<?xml version="1.0" encoding="utf-8"?>
<svg xmlns="http://www.w3.org/2000/svg" xmlns:xlink="http://www.w3.org/1999/xlink" width="600" height="400" viewBox="0 0 2400 1600">
<defs>
  <clipPath id="clip360">
    <rect x="0" y="0" width="2400" height="1600"/>
  </clipPath>
</defs>
<path clip-path="url(#clip360)" d="M0 1600 L2400 1600 L2400 0 L0 0  Z" fill="#ffffff" fill-rule="evenodd" fill-opacity="1"/>
<defs>
  <clipPath id="clip361">
    <rect x="480" y="0" width="1681" height="1600"/>
  </clipPath>
</defs>
<path clip-path="url(#clip360)" d="M239.19 1410.9 L2352.76 1410.9 L2352.76 123.472 L239.19 123.472  Z" fill="#ffffff" fill-rule="evenodd" fill-opacity="1"/>
<defs>
  <clipPath id="clip362">
    <rect x="239" y="123" width="2115" height="1288"/>
  </clipPath>
</defs>
<polyline clip-path="url(#clip362)" style="stroke:#000000; stroke-linecap:round; stroke-linejoin:round; stroke-width:2; stroke-opacity:0.1; fill:none" points="1096.58,1410.9 1096.58,123.472 "/>
<polyline clip-path="url(#clip362)" style="stroke:#000000; stroke-linecap:round; stroke-linejoin:round; stroke-width:2; stroke-opacity:0.1; fill:none" points="2093.55,1410.9 2093.55,123.472 "/>
<polyline clip-path="url(#clip362)" style="stroke:#000000; stroke-linecap:round; stroke-linejoin:round; stroke-width:2; stroke-opacity:0.1; fill:none" points="239.19,1219.34 2352.76,1219.34 "/>
<polyline clip-path="url(#clip362)" style="stroke:#000000; stroke-linecap:round; stroke-linejoin:round; stroke-width:2; stroke-opacity:0.1; fill:none" points="239.19,1000.05 2352.76,1000.05 "/>
<polyline clip-path="url(#clip362)" style="stroke:#000000; stroke-linecap:round; stroke-linejoin:round; stroke-width:2; stroke-opacity:0.1; fill:none" points="239.19,780.759 2352.76,780.759 "/>
<polyline clip-path="url(#clip362)" style="stroke:#000000; stroke-linecap:round; stroke-linejoin:round; stroke-width:2; stroke-opacity:0.1; fill:none" points="239.19,561.466 2352.76,561.466 "/>
<polyline clip-path="url(#clip362)" style="stroke:#000000; stroke-linecap:round; stroke-linejoin:round; stroke-width:2; stroke-opacity:0.1; fill:none" points="239.19,342.174 2352.76,342.174 "/>
<polyline clip-path="url(#clip360)" style="stroke:#000000; stroke-linecap:round; stroke-linejoin:round; stroke-width:4; stroke-opacity:1; fill:none" points="239.19,1410.9 2352.76,1410.9 "/>
<polyline clip-path="url(#clip360)" style="stroke:#000000; stroke-linecap:round; stroke-linejoin:round; stroke-width:4; stroke-opacity:1; fill:none" points="1096.58,1410.9 1096.58,1392 "/>
<polyline clip-path="url(#clip360)" style="stroke:#000000; stroke-linecap:round; stroke-linejoin:round; stroke-width:4; stroke-opacity:1; fill:none" points="2093.55,1410.9 2093.55,1392 "/>
<path clip-path="url(#clip360)" d="M1061.56 1485.02 L1069.2 1485.02 L1069.2 1458.66 L1060.89 1460.32 L1060.89 1456.06 L1069.16 1454.4 L1073.83 1454.4 L1073.83 1485.02 L1081.47 1485.02 L1081.47 1488.96 L1061.56 1488.96 L1061.56 1485.02 Z" fill="#000000" fill-rule="nonzero" fill-opacity="1" /><path clip-path="url(#clip360)" d="M1100.91 1457.48 Q1097.3 1457.48 1095.47 1461.04 Q1093.67 1464.58 1093.67 1471.71 Q1093.67 1478.82 1095.47 1482.38 Q1097.3 1485.92 1100.91 1485.92 Q1104.55 1485.92 1106.35 1482.38 Q1108.18 1478.82 1108.18 1471.71 Q1108.18 1464.58 1106.35 1461.04 Q1104.55 1457.48 1100.91 1457.48 M1100.91 1453.77 Q1106.72 1453.77 1109.78 1458.38 Q1112.86 1462.96 1112.86 1471.71 Q1112.86 1480.44 1109.78 1485.04 Q1106.72 1489.63 1100.91 1489.63 Q1095.1 1489.63 1092.03 1485.04 Q1088.97 1480.44 1088.97 1471.71 Q1088.97 1462.96 1092.03 1458.38 Q1095.1 1453.77 1100.91 1453.77 Z" fill="#000000" fill-rule="nonzero" fill-opacity="1" /><path clip-path="url(#clip360)" d="M1122.56 1435.97 Q1119.63 1435.97 1118.14 1438.86 Q1116.68 1441.74 1116.68 1447.53 Q1116.68 1453.31 1118.14 1456.2 Q1119.63 1459.08 1122.56 1459.08 Q1125.52 1459.08 1126.98 1456.2 Q1128.47 1453.31 1128.47 1447.53 Q1128.47 1441.74 1126.98 1438.86 Q1125.52 1435.97 1122.56 1435.97 M1122.56 1432.96 Q1127.28 1432.96 1129.77 1436.7 Q1132.27 1440.43 1132.27 1447.53 Q1132.27 1454.62 1129.77 1458.37 Q1127.28 1462.09 1122.56 1462.09 Q1117.84 1462.09 1115.34 1458.37 Q1112.86 1454.62 1112.86 1447.53 Q1112.86 1440.43 1115.34 1436.7 Q1117.84 1432.96 1122.56 1432.96 Z" fill="#000000" fill-rule="nonzero" fill-opacity="1" /><path clip-path="url(#clip360)" d="M2059.87 1485.02 L2067.51 1485.02 L2067.51 1458.66 L2059.2 1460.32 L2059.2 1456.06 L2067.47 1454.4 L2072.14 1454.4 L2072.14 1485.02 L2079.78 1485.02 L2079.78 1488.96 L2059.87 1488.96 L2059.87 1485.02 Z" fill="#000000" fill-rule="nonzero" fill-opacity="1" /><path clip-path="url(#clip360)" d="M2099.22 1457.48 Q2095.61 1457.48 2093.78 1461.04 Q2091.98 1464.58 2091.98 1471.71 Q2091.98 1478.82 2093.78 1482.38 Q2095.61 1485.92 2099.22 1485.92 Q2102.86 1485.92 2104.66 1482.38 Q2106.49 1478.82 2106.49 1471.71 Q2106.49 1464.58 2104.66 1461.04 Q2102.86 1457.48 2099.22 1457.48 M2099.22 1453.77 Q2105.03 1453.77 2108.09 1458.38 Q2111.17 1462.96 2111.17 1471.71 Q2111.17 1480.44 2108.09 1485.04 Q2105.03 1489.63 2099.22 1489.63 Q2093.41 1489.63 2090.34 1485.04 Q2087.28 1480.44 2087.28 1471.71 Q2087.28 1462.96 2090.34 1458.38 Q2093.41 1453.77 2099.22 1453.77 Z" fill="#000000" fill-rule="nonzero" fill-opacity="1" /><path clip-path="url(#clip360)" d="M2111.71 1458.35 L2117.92 1458.35 L2117.92 1436.93 L2111.17 1438.28 L2111.17 1434.82 L2117.88 1433.47 L2121.68 1433.47 L2121.68 1458.35 L2127.89 1458.35 L2127.89 1461.55 L2111.71 1461.55 L2111.71 1458.35 Z" fill="#000000" fill-rule="nonzero" fill-opacity="1" /><path clip-path="url(#clip360)" d="M733.834 1531.95 L733.834 1568.9 L741.6 1568.9 Q751.435 1568.9 755.986 1564.45 Q760.569 1559.99 760.569 1550.38 Q760.569 1540.83 755.986 1536.4 Q751.435 1531.95 741.6 1531.95 L733.834 1531.95 M727.404 1526.67 L740.613 1526.67 Q754.427 1526.67 760.888 1532.43 Q767.349 1538.16 767.349 1550.38 Q767.349 1562.66 760.856 1568.42 Q754.363 1574.19 740.613 1574.19 L727.404 1574.19 L727.404 1526.67 Z" fill="#000000" fill-rule="nonzero" fill-opacity="1" /><path clip-path="url(#clip360)" d="M792.175 1577.5 Q789.693 1583.86 787.337 1585.8 Q784.982 1587.74 781.035 1587.74 L776.356 1587.74 L776.356 1582.84 L779.794 1582.84 Q782.213 1582.84 783.55 1581.7 Q784.886 1580.55 786.51 1576.29 L787.56 1573.61 L773.142 1538.54 L779.348 1538.54 L790.488 1566.42 L801.628 1538.54 L807.835 1538.54 L792.175 1577.5 Z" fill="#000000" fill-rule="nonzero" fill-opacity="1" /><path clip-path="url(#clip360)" d="M845.552 1552.67 L845.552 1574.19 L839.695 1574.19 L839.695 1552.86 Q839.695 1547.8 837.722 1545.29 Q835.748 1542.77 831.802 1542.77 Q827.059 1542.77 824.322 1545.79 Q821.585 1548.82 821.585 1554.04 L821.585 1574.19 L815.696 1574.19 L815.696 1538.54 L821.585 1538.54 L821.585 1544.08 Q823.685 1540.86 826.518 1539.27 Q829.383 1537.68 833.107 1537.68 Q839.25 1537.68 842.401 1541.5 Q845.552 1545.29 845.552 1552.67 Z" fill="#000000" fill-rule="nonzero" fill-opacity="1" /><path clip-path="url(#clip360)" d="M873.433 1556.27 Q866.336 1556.27 863.598 1557.89 Q860.861 1559.51 860.861 1563.43 Q860.861 1566.55 862.898 1568.39 Q864.967 1570.21 868.5 1570.21 Q873.37 1570.21 876.298 1566.77 Q879.258 1563.3 879.258 1557.57 L879.258 1556.27 L873.433 1556.27 M885.115 1553.85 L885.115 1574.19 L879.258 1574.19 L879.258 1568.77 Q877.253 1572.02 874.261 1573.58 Q871.269 1575.11 866.94 1575.11 Q861.466 1575.11 858.219 1572.05 Q855.005 1568.97 855.005 1563.81 Q855.005 1557.79 859.015 1554.74 Q863.057 1551.68 871.046 1551.68 L879.258 1551.68 L879.258 1551.11 Q879.258 1547.07 876.584 1544.87 Q873.943 1542.64 869.137 1542.64 Q866.081 1542.64 863.185 1543.38 Q860.288 1544.11 857.615 1545.57 L857.615 1540.16 Q860.829 1538.92 863.853 1538.31 Q866.877 1537.68 869.741 1537.68 Q877.476 1537.68 881.295 1541.69 Q885.115 1545.7 885.115 1553.85 Z" fill="#000000" fill-rule="nonzero" fill-opacity="1" /><path clip-path="url(#clip360)" d="M924.932 1545.38 Q927.128 1541.43 930.184 1539.56 Q933.239 1537.68 937.377 1537.68 Q942.947 1537.68 945.971 1541.59 Q948.994 1545.48 948.994 1552.67 L948.994 1574.19 L943.106 1574.19 L943.106 1552.86 Q943.106 1547.74 941.292 1545.25 Q939.478 1542.77 935.754 1542.77 Q931.202 1542.77 928.56 1545.79 Q925.919 1548.82 925.919 1554.04 L925.919 1574.19 L920.03 1574.19 L920.03 1552.86 Q920.03 1547.7 918.216 1545.25 Q916.402 1542.77 912.614 1542.77 Q908.127 1542.77 905.485 1545.83 Q902.843 1548.85 902.843 1554.04 L902.843 1574.19 L896.955 1574.19 L896.955 1538.54 L902.843 1538.54 L902.843 1544.08 Q904.848 1540.8 907.649 1539.24 Q910.45 1537.68 914.301 1537.68 Q918.184 1537.68 920.89 1539.65 Q923.627 1541.62 924.932 1545.38 Z" fill="#000000" fill-rule="nonzero" fill-opacity="1" /><path clip-path="url(#clip360)" d="M960.675 1538.54 L966.532 1538.54 L966.532 1574.19 L960.675 1574.19 L960.675 1538.54 M960.675 1524.66 L966.532 1524.66 L966.532 1532.08 L960.675 1532.08 L960.675 1524.66 Z" fill="#000000" fill-rule="nonzero" fill-opacity="1" /><path clip-path="url(#clip360)" d="M1004.44 1539.91 L1004.44 1545.38 Q1001.96 1544.01 999.443 1543.34 Q996.96 1542.64 994.414 1542.64 Q988.716 1542.64 985.565 1546.27 Q982.414 1549.87 982.414 1556.39 Q982.414 1562.92 985.565 1566.55 Q988.716 1570.14 994.414 1570.14 Q996.96 1570.14 999.443 1569.47 Q1001.96 1568.77 1004.44 1567.41 L1004.44 1572.82 Q1001.99 1573.96 999.347 1574.54 Q996.737 1575.11 993.777 1575.11 Q985.725 1575.11 980.982 1570.05 Q976.24 1564.99 976.24 1556.39 Q976.24 1547.67 981.014 1542.68 Q985.82 1537.68 994.159 1537.68 Q996.865 1537.68 999.443 1538.25 Q1002.02 1538.79 1004.44 1539.91 Z" fill="#000000" fill-rule="nonzero" fill-opacity="1" /><path clip-path="url(#clip360)" d="M1037.35 1539.59 L1037.35 1545.13 Q1034.87 1543.85 1032.19 1543.22 Q1029.52 1542.58 1026.66 1542.58 Q1022.3 1542.58 1020.1 1543.92 Q1017.93 1545.25 1017.93 1547.93 Q1017.93 1549.96 1019.49 1551.14 Q1021.05 1552.29 1025.76 1553.34 L1027.77 1553.78 Q1034.01 1555.12 1036.62 1557.57 Q1039.26 1559.99 1039.26 1564.35 Q1039.26 1569.32 1035.31 1572.21 Q1031.4 1575.11 1024.52 1575.11 Q1021.66 1575.11 1018.54 1574.54 Q1015.45 1573.99 1012.01 1572.88 L1012.01 1566.83 Q1015.26 1568.52 1018.41 1569.38 Q1021.56 1570.21 1024.65 1570.21 Q1028.79 1570.21 1031.02 1568.81 Q1033.24 1567.37 1033.24 1564.8 Q1033.24 1562.41 1031.62 1561.14 Q1030.03 1559.86 1024.59 1558.68 L1022.55 1558.21 Q1017.11 1557.06 1014.69 1554.71 Q1012.27 1552.32 1012.27 1548.18 Q1012.27 1543.15 1015.83 1540.42 Q1019.4 1537.68 1025.96 1537.68 Q1029.2 1537.68 1032.07 1538.16 Q1034.93 1538.63 1037.35 1539.59 Z" fill="#000000" fill-rule="nonzero" fill-opacity="1" /><path clip-path="url(#clip360)" d="M1098.94 1552.67 L1098.94 1574.19 L1093.08 1574.19 L1093.08 1552.86 Q1093.08 1547.8 1091.11 1545.29 Q1089.14 1542.77 1085.19 1542.77 Q1080.45 1542.77 1077.71 1545.79 Q1074.97 1548.82 1074.97 1554.04 L1074.97 1574.19 L1069.08 1574.19 L1069.08 1538.54 L1074.97 1538.54 L1074.97 1544.08 Q1077.07 1540.86 1079.91 1539.27 Q1082.77 1537.68 1086.49 1537.68 Q1092.64 1537.68 1095.79 1541.5 Q1098.94 1545.29 1098.94 1552.67 Z" fill="#000000" fill-rule="nonzero" fill-opacity="1" /><path clip-path="url(#clip360)" d="M1124.43 1542.64 Q1119.72 1542.64 1116.99 1546.34 Q1114.25 1550 1114.25 1556.39 Q1114.25 1562.79 1116.95 1566.48 Q1119.69 1570.14 1124.43 1570.14 Q1129.11 1570.14 1131.85 1566.45 Q1134.59 1562.76 1134.59 1556.39 Q1134.59 1550.06 1131.85 1546.37 Q1129.11 1542.64 1124.43 1542.64 M1124.43 1537.68 Q1132.07 1537.68 1136.43 1542.64 Q1140.79 1547.61 1140.79 1556.39 Q1140.79 1565.15 1136.43 1570.14 Q1132.07 1575.11 1124.43 1575.11 Q1116.76 1575.11 1112.4 1570.14 Q1108.07 1565.15 1108.07 1556.39 Q1108.07 1547.61 1112.4 1542.64 Q1116.76 1537.68 1124.43 1537.68 Z" fill="#000000" fill-rule="nonzero" fill-opacity="1" /><path clip-path="url(#clip360)" d="M1150.5 1538.54 L1156.36 1538.54 L1156.36 1574.19 L1150.5 1574.19 L1150.5 1538.54 M1150.5 1524.66 L1156.36 1524.66 L1156.36 1532.08 L1150.5 1532.08 L1150.5 1524.66 Z" fill="#000000" fill-rule="nonzero" fill-opacity="1" /><path clip-path="url(#clip360)" d="M1191.34 1539.59 L1191.34 1545.13 Q1188.85 1543.85 1186.18 1543.22 Q1183.51 1542.58 1180.64 1542.58 Q1176.28 1542.58 1174.09 1543.92 Q1171.92 1545.25 1171.92 1547.93 Q1171.92 1549.96 1173.48 1551.14 Q1175.04 1552.29 1179.75 1553.34 L1181.76 1553.78 Q1187.99 1555.12 1190.6 1557.57 Q1193.25 1559.99 1193.25 1564.35 Q1193.25 1569.32 1189.3 1572.21 Q1185.38 1575.11 1178.51 1575.11 Q1175.65 1575.11 1172.53 1574.54 Q1169.44 1573.99 1166 1572.88 L1166 1566.83 Q1169.25 1568.52 1172.4 1569.38 Q1175.55 1570.21 1178.64 1570.21 Q1182.77 1570.21 1185 1568.81 Q1187.23 1567.37 1187.23 1564.8 Q1187.23 1562.41 1185.61 1561.14 Q1184.02 1559.86 1178.57 1558.68 L1176.54 1558.21 Q1171.09 1557.06 1168.67 1554.71 Q1166.26 1552.32 1166.26 1548.18 Q1166.26 1543.15 1169.82 1540.42 Q1173.39 1537.68 1179.94 1537.68 Q1183.19 1537.68 1186.05 1538.16 Q1188.92 1538.63 1191.34 1539.59 Z" fill="#000000" fill-rule="nonzero" fill-opacity="1" /><path clip-path="url(#clip360)" d="M1233.06 1554.9 L1233.06 1557.76 L1206.14 1557.76 Q1206.52 1563.81 1209.77 1566.99 Q1213.04 1570.14 1218.87 1570.14 Q1222.24 1570.14 1225.39 1569.32 Q1228.58 1568.49 1231.7 1566.83 L1231.7 1572.37 Q1228.54 1573.71 1225.23 1574.41 Q1221.92 1575.11 1218.52 1575.11 Q1209.99 1575.11 1204.99 1570.14 Q1200.03 1565.18 1200.03 1556.71 Q1200.03 1547.96 1204.74 1542.83 Q1209.48 1537.68 1217.5 1537.68 Q1224.69 1537.68 1228.86 1542.33 Q1233.06 1546.94 1233.06 1554.9 M1227.21 1553.18 Q1227.14 1548.37 1224.5 1545.51 Q1221.89 1542.64 1217.56 1542.64 Q1212.66 1542.64 1209.7 1545.41 Q1206.77 1548.18 1206.33 1553.21 L1227.21 1553.18 Z" fill="#000000" fill-rule="nonzero" fill-opacity="1" /><path clip-path="url(#clip360)" d="M1286.12 1539.59 L1286.12 1545.13 Q1283.64 1543.85 1280.97 1543.22 Q1278.29 1542.58 1275.43 1542.58 Q1271.07 1542.58 1268.87 1543.92 Q1266.71 1545.25 1266.71 1547.93 Q1266.71 1549.96 1268.27 1551.14 Q1269.83 1552.29 1274.54 1553.34 L1276.54 1553.78 Q1282.78 1555.12 1285.39 1557.57 Q1288.03 1559.99 1288.03 1564.35 Q1288.03 1569.32 1284.09 1572.21 Q1280.17 1575.11 1273.3 1575.11 Q1270.43 1575.11 1267.31 1574.54 Q1264.22 1573.99 1260.79 1572.88 L1260.79 1566.83 Q1264.03 1568.52 1267.18 1569.38 Q1270.34 1570.21 1273.42 1570.21 Q1277.56 1570.21 1279.79 1568.81 Q1282.02 1567.37 1282.02 1564.8 Q1282.02 1562.41 1280.39 1561.14 Q1278.8 1559.86 1273.36 1558.68 L1271.32 1558.21 Q1265.88 1557.06 1263.46 1554.71 Q1261.04 1552.32 1261.04 1548.18 Q1261.04 1543.15 1264.61 1540.42 Q1268.17 1537.68 1274.73 1537.68 Q1277.97 1537.68 1280.84 1538.16 Q1283.7 1538.63 1286.12 1539.59 Z" fill="#000000" fill-rule="nonzero" fill-opacity="1" /><path clip-path="url(#clip360)" d="M1303.15 1528.42 L1303.15 1538.54 L1315.21 1538.54 L1315.21 1543.09 L1303.15 1543.09 L1303.15 1562.44 Q1303.15 1566.8 1304.33 1568.04 Q1305.54 1569.28 1309.2 1569.28 L1315.21 1569.28 L1315.21 1574.19 L1309.2 1574.19 Q1302.42 1574.19 1299.84 1571.67 Q1297.26 1569.12 1297.26 1562.44 L1297.26 1543.09 L1292.97 1543.09 L1292.97 1538.54 L1297.26 1538.54 L1297.26 1528.42 L1303.15 1528.42 Z" fill="#000000" fill-rule="nonzero" fill-opacity="1" /><path clip-path="url(#clip360)" d="M1339.12 1556.27 Q1332.02 1556.27 1329.28 1557.89 Q1326.54 1559.51 1326.54 1563.43 Q1326.54 1566.55 1328.58 1568.39 Q1330.65 1570.21 1334.18 1570.21 Q1339.05 1570.21 1341.98 1566.77 Q1344.94 1563.3 1344.94 1557.57 L1344.94 1556.27 L1339.12 1556.27 M1350.8 1553.85 L1350.8 1574.19 L1344.94 1574.19 L1344.94 1568.77 Q1342.94 1572.02 1339.94 1573.58 Q1336.95 1575.11 1332.62 1575.11 Q1327.15 1575.11 1323.9 1572.05 Q1320.69 1568.97 1320.69 1563.81 Q1320.69 1557.79 1324.7 1554.74 Q1328.74 1551.68 1336.73 1551.68 L1344.94 1551.68 L1344.94 1551.11 Q1344.94 1547.07 1342.27 1544.87 Q1339.63 1542.64 1334.82 1542.64 Q1331.76 1542.64 1328.87 1543.38 Q1325.97 1544.11 1323.3 1545.57 L1323.3 1540.16 Q1326.51 1538.92 1329.54 1538.31 Q1332.56 1537.68 1335.42 1537.68 Q1343.16 1537.68 1346.98 1541.69 Q1350.8 1545.7 1350.8 1553.85 Z" fill="#000000" fill-rule="nonzero" fill-opacity="1" /><path clip-path="url(#clip360)" d="M1392.49 1552.67 L1392.49 1574.19 L1386.64 1574.19 L1386.64 1552.86 Q1386.64 1547.8 1384.66 1545.29 Q1382.69 1542.77 1378.74 1542.77 Q1374 1542.77 1371.26 1545.79 Q1368.53 1548.82 1368.53 1554.04 L1368.53 1574.19 L1362.64 1574.19 L1362.64 1538.54 L1368.53 1538.54 L1368.53 1544.08 Q1370.63 1540.86 1373.46 1539.27 Q1376.32 1537.68 1380.05 1537.68 Q1386.19 1537.68 1389.34 1541.5 Q1392.49 1545.29 1392.49 1552.67 Z" fill="#000000" fill-rule="nonzero" fill-opacity="1" /><path clip-path="url(#clip360)" d="M1427.63 1543.95 L1427.63 1524.66 L1433.49 1524.66 L1433.49 1574.19 L1427.63 1574.19 L1427.63 1568.84 Q1425.79 1572.02 1422.95 1573.58 Q1420.15 1575.11 1416.21 1575.11 Q1409.74 1575.11 1405.67 1569.95 Q1401.63 1564.8 1401.63 1556.39 Q1401.63 1547.99 1405.67 1542.83 Q1409.74 1537.68 1416.21 1537.68 Q1420.15 1537.68 1422.95 1539.24 Q1425.79 1540.77 1427.63 1543.95 M1407.68 1556.39 Q1407.68 1562.85 1410.32 1566.55 Q1412.99 1570.21 1417.64 1570.21 Q1422.28 1570.21 1424.96 1566.55 Q1427.63 1562.85 1427.63 1556.39 Q1427.63 1549.93 1424.96 1546.27 Q1422.28 1542.58 1417.64 1542.58 Q1412.99 1542.58 1410.32 1546.27 Q1407.68 1549.93 1407.68 1556.39 Z" fill="#000000" fill-rule="nonzero" fill-opacity="1" /><path clip-path="url(#clip360)" d="M1461.75 1556.27 Q1454.65 1556.27 1451.92 1557.89 Q1449.18 1559.51 1449.18 1563.43 Q1449.18 1566.55 1451.22 1568.39 Q1453.29 1570.21 1456.82 1570.21 Q1461.69 1570.21 1464.62 1566.77 Q1467.58 1563.3 1467.58 1557.57 L1467.58 1556.27 L1461.75 1556.27 M1473.43 1553.85 L1473.43 1574.19 L1467.58 1574.19 L1467.58 1568.77 Q1465.57 1572.02 1462.58 1573.58 Q1459.59 1575.11 1455.26 1575.11 Q1449.78 1575.11 1446.54 1572.05 Q1443.32 1568.97 1443.32 1563.81 Q1443.32 1557.79 1447.33 1554.74 Q1451.38 1551.68 1459.36 1551.68 L1467.58 1551.68 L1467.58 1551.11 Q1467.58 1547.07 1464.9 1544.87 Q1462.26 1542.64 1457.46 1542.64 Q1454.4 1542.64 1451.5 1543.38 Q1448.61 1544.11 1445.93 1545.57 L1445.93 1540.16 Q1449.15 1538.92 1452.17 1538.31 Q1455.2 1537.68 1458.06 1537.68 Q1465.79 1537.68 1469.61 1541.69 Q1473.43 1545.7 1473.43 1553.85 Z" fill="#000000" fill-rule="nonzero" fill-opacity="1" /><path clip-path="url(#clip360)" d="M1506.15 1544.01 Q1505.17 1543.44 1503.99 1543.18 Q1502.84 1542.9 1501.44 1542.9 Q1496.48 1542.9 1493.8 1546.14 Q1491.16 1549.36 1491.16 1555.41 L1491.16 1574.19 L1485.27 1574.19 L1485.27 1538.54 L1491.16 1538.54 L1491.16 1544.08 Q1493.01 1540.83 1495.97 1539.27 Q1498.93 1537.68 1503.16 1537.68 Q1503.77 1537.68 1504.5 1537.77 Q1505.23 1537.84 1506.12 1538 L1506.15 1544.01 Z" fill="#000000" fill-rule="nonzero" fill-opacity="1" /><path clip-path="url(#clip360)" d="M1534.61 1543.95 L1534.61 1524.66 L1540.46 1524.66 L1540.46 1574.19 L1534.61 1574.19 L1534.61 1568.84 Q1532.76 1572.02 1529.93 1573.58 Q1527.13 1575.11 1523.18 1575.11 Q1516.72 1575.11 1512.65 1569.95 Q1508.6 1564.8 1508.6 1556.39 Q1508.6 1547.99 1512.65 1542.83 Q1516.72 1537.68 1523.18 1537.68 Q1527.13 1537.68 1529.93 1539.24 Q1532.76 1540.77 1534.61 1543.95 M1514.65 1556.39 Q1514.65 1562.85 1517.29 1566.55 Q1519.97 1570.21 1524.61 1570.21 Q1529.26 1570.21 1531.93 1566.55 Q1534.61 1562.85 1534.61 1556.39 Q1534.61 1549.93 1531.93 1546.27 Q1529.26 1542.58 1524.61 1542.58 Q1519.97 1542.58 1517.29 1546.27 Q1514.65 1549.93 1514.65 1556.39 Z" fill="#000000" fill-rule="nonzero" fill-opacity="1" /><path clip-path="url(#clip360)" d="M1596.71 1543.95 L1596.71 1524.66 L1602.56 1524.66 L1602.56 1574.19 L1596.71 1574.19 L1596.71 1568.84 Q1594.86 1572.02 1592.03 1573.58 Q1589.23 1575.11 1585.28 1575.11 Q1578.82 1575.11 1574.74 1569.95 Q1570.7 1564.8 1570.7 1556.39 Q1570.7 1547.99 1574.74 1542.83 Q1578.82 1537.68 1585.28 1537.68 Q1589.23 1537.68 1592.03 1539.24 Q1594.86 1540.77 1596.71 1543.95 M1576.75 1556.39 Q1576.75 1562.85 1579.39 1566.55 Q1582.06 1570.21 1586.71 1570.21 Q1591.36 1570.21 1594.03 1566.55 Q1596.71 1562.85 1596.71 1556.39 Q1596.71 1549.93 1594.03 1546.27 Q1591.36 1542.58 1586.71 1542.58 Q1582.06 1542.58 1579.39 1546.27 Q1576.75 1549.93 1576.75 1556.39 Z" fill="#000000" fill-rule="nonzero" fill-opacity="1" /><path clip-path="url(#clip360)" d="M1645.12 1554.9 L1645.12 1557.76 L1618.19 1557.76 Q1618.57 1563.81 1621.82 1566.99 Q1625.1 1570.14 1630.92 1570.14 Q1634.29 1570.14 1637.45 1569.32 Q1640.63 1568.49 1643.75 1566.83 L1643.75 1572.37 Q1640.6 1573.71 1637.29 1574.41 Q1633.98 1575.11 1630.57 1575.11 Q1622.04 1575.11 1617.04 1570.14 Q1612.08 1565.18 1612.08 1556.71 Q1612.08 1547.96 1616.79 1542.83 Q1621.53 1537.68 1629.55 1537.68 Q1636.75 1537.68 1640.91 1542.33 Q1645.12 1546.94 1645.12 1554.9 M1639.26 1553.18 Q1639.2 1548.37 1636.55 1545.51 Q1633.94 1542.64 1629.62 1542.64 Q1624.71 1542.64 1621.75 1545.41 Q1618.83 1548.18 1618.38 1553.21 L1639.26 1553.18 Z" fill="#000000" fill-rule="nonzero" fill-opacity="1" /><path clip-path="url(#clip360)" d="M1650.53 1538.54 L1656.73 1538.54 L1667.87 1568.46 L1679.01 1538.54 L1685.22 1538.54 L1671.85 1574.19 L1663.9 1574.19 L1650.53 1538.54 Z" fill="#000000" fill-rule="nonzero" fill-opacity="1" /><path clip-path="url(#clip360)" d="M1693.3 1538.54 L1699.16 1538.54 L1699.16 1574.19 L1693.3 1574.19 L1693.3 1538.54 M1693.3 1524.66 L1699.16 1524.66 L1699.16 1532.08 L1693.3 1532.08 L1693.3 1524.66 Z" fill="#000000" fill-rule="nonzero" fill-opacity="1" /><path clip-path="url(#clip360)" d="M1727.62 1556.27 Q1720.52 1556.27 1717.78 1557.89 Q1715.04 1559.51 1715.04 1563.43 Q1715.04 1566.55 1717.08 1568.39 Q1719.15 1570.21 1722.68 1570.21 Q1727.55 1570.21 1730.48 1566.77 Q1733.44 1563.3 1733.44 1557.57 L1733.44 1556.27 L1727.62 1556.27 M1739.3 1553.85 L1739.3 1574.19 L1733.44 1574.19 L1733.44 1568.77 Q1731.44 1572.02 1728.44 1573.58 Q1725.45 1575.11 1721.12 1575.11 Q1715.65 1575.11 1712.4 1572.05 Q1709.19 1568.97 1709.19 1563.81 Q1709.19 1557.79 1713.2 1554.74 Q1717.24 1551.68 1725.23 1551.68 L1733.44 1551.68 L1733.44 1551.11 Q1733.44 1547.07 1730.77 1544.87 Q1728.13 1542.64 1723.32 1542.64 Q1720.26 1542.64 1717.37 1543.38 Q1714.47 1544.11 1711.8 1545.57 L1711.8 1540.16 Q1715.01 1538.92 1718.04 1538.31 Q1721.06 1537.68 1723.92 1537.68 Q1731.66 1537.68 1735.48 1541.69 Q1739.3 1545.7 1739.3 1553.85 Z" fill="#000000" fill-rule="nonzero" fill-opacity="1" /><path clip-path="url(#clip360)" d="M1757.15 1528.42 L1757.15 1538.54 L1769.22 1538.54 L1769.22 1543.09 L1757.15 1543.09 L1757.15 1562.44 Q1757.15 1566.8 1758.33 1568.04 Q1759.54 1569.28 1763.2 1569.28 L1769.22 1569.28 L1769.22 1574.19 L1763.2 1574.19 Q1756.42 1574.19 1753.84 1571.67 Q1751.26 1569.12 1751.26 1562.44 L1751.26 1543.09 L1746.97 1543.09 L1746.97 1538.54 L1751.26 1538.54 L1751.26 1528.42 L1757.15 1528.42 Z" fill="#000000" fill-rule="nonzero" fill-opacity="1" /><path clip-path="url(#clip360)" d="M1776.92 1538.54 L1782.77 1538.54 L1782.77 1574.19 L1776.92 1574.19 L1776.92 1538.54 M1776.92 1524.66 L1782.77 1524.66 L1782.77 1532.08 L1776.92 1532.08 L1776.92 1524.66 Z" fill="#000000" fill-rule="nonzero" fill-opacity="1" /><path clip-path="url(#clip360)" d="M1808.84 1542.64 Q1804.13 1542.64 1801.39 1546.34 Q1798.66 1550 1798.66 1556.39 Q1798.66 1562.79 1801.36 1566.48 Q1804.1 1570.14 1808.84 1570.14 Q1813.52 1570.14 1816.26 1566.45 Q1819 1562.76 1819 1556.39 Q1819 1550.06 1816.26 1546.37 Q1813.52 1542.64 1808.84 1542.64 M1808.84 1537.68 Q1816.48 1537.68 1820.84 1542.64 Q1825.2 1547.61 1825.2 1556.39 Q1825.2 1565.15 1820.84 1570.14 Q1816.48 1575.11 1808.84 1575.11 Q1801.17 1575.11 1796.81 1570.14 Q1792.48 1565.15 1792.48 1556.39 Q1792.48 1547.61 1796.81 1542.64 Q1801.17 1537.68 1808.84 1537.68 Z" fill="#000000" fill-rule="nonzero" fill-opacity="1" /><path clip-path="url(#clip360)" d="M1864.54 1552.67 L1864.54 1574.19 L1858.69 1574.19 L1858.69 1552.86 Q1858.69 1547.8 1856.71 1545.29 Q1854.74 1542.77 1850.79 1542.77 Q1846.05 1542.77 1843.31 1545.79 Q1840.58 1548.82 1840.58 1554.04 L1840.58 1574.19 L1834.69 1574.19 L1834.69 1538.54 L1840.58 1538.54 L1840.58 1544.08 Q1842.68 1540.86 1845.51 1539.27 Q1848.37 1537.68 1852.1 1537.68 Q1858.24 1537.68 1861.39 1541.5 Q1864.54 1545.29 1864.54 1552.67 Z" fill="#000000" fill-rule="nonzero" fill-opacity="1" /><polyline clip-path="url(#clip360)" style="stroke:#000000; stroke-linecap:round; stroke-linejoin:round; stroke-width:4; stroke-opacity:1; fill:none" points="239.19,1410.9 239.19,123.472 "/>
<polyline clip-path="url(#clip360)" style="stroke:#000000; stroke-linecap:round; stroke-linejoin:round; stroke-width:4; stroke-opacity:1; fill:none" points="239.19,1219.34 258.088,1219.34 "/>
<polyline clip-path="url(#clip360)" style="stroke:#000000; stroke-linecap:round; stroke-linejoin:round; stroke-width:4; stroke-opacity:1; fill:none" points="239.19,1000.05 258.088,1000.05 "/>
<polyline clip-path="url(#clip360)" style="stroke:#000000; stroke-linecap:round; stroke-linejoin:round; stroke-width:4; stroke-opacity:1; fill:none" points="239.19,780.759 258.088,780.759 "/>
<polyline clip-path="url(#clip360)" style="stroke:#000000; stroke-linecap:round; stroke-linejoin:round; stroke-width:4; stroke-opacity:1; fill:none" points="239.19,561.466 258.088,561.466 "/>
<polyline clip-path="url(#clip360)" style="stroke:#000000; stroke-linecap:round; stroke-linejoin:round; stroke-width:4; stroke-opacity:1; fill:none" points="239.19,342.174 258.088,342.174 "/>
<path clip-path="url(#clip360)" d="M50.9921 1219.8 L80.6679 1219.8 L80.6679 1223.73 L50.9921 1223.73 L50.9921 1219.8 Z" fill="#000000" fill-rule="nonzero" fill-opacity="1" /><path clip-path="url(#clip360)" d="M101.339 1217.48 Q98.1909 1217.48 96.3391 1219.63 Q94.5104 1221.79 94.5104 1225.54 Q94.5104 1229.26 96.3391 1231.44 Q98.1909 1233.59 101.339 1233.59 Q104.487 1233.59 106.316 1231.44 Q108.168 1229.26 108.168 1225.54 Q108.168 1221.79 106.316 1219.63 Q104.487 1217.48 101.339 1217.48 M110.621 1202.83 L110.621 1207.09 Q108.862 1206.25 107.057 1205.81 Q105.274 1205.37 103.515 1205.37 Q98.8854 1205.37 96.4317 1208.5 Q94.0012 1211.62 93.6539 1217.94 Q95.0197 1215.93 97.0798 1214.87 Q99.14 1213.78 101.617 1213.78 Q106.825 1213.78 109.834 1216.95 Q112.867 1220.1 112.867 1225.54 Q112.867 1230.86 109.719 1234.08 Q106.571 1237.3 101.339 1237.3 Q95.3437 1237.3 92.1725 1232.71 Q89.0012 1228.11 89.0012 1219.38 Q89.0012 1211.19 92.89 1206.32 Q96.7789 1201.44 103.33 1201.44 Q105.089 1201.44 106.871 1201.79 Q108.677 1202.13 110.621 1202.83 Z" fill="#000000" fill-rule="nonzero" fill-opacity="1" /><path clip-path="url(#clip360)" d="M130.922 1205.14 Q127.311 1205.14 125.482 1208.71 Q123.677 1212.25 123.677 1219.38 Q123.677 1226.49 125.482 1230.05 Q127.311 1233.59 130.922 1233.59 Q134.556 1233.59 136.362 1230.05 Q138.191 1226.49 138.191 1219.38 Q138.191 1212.25 136.362 1208.71 Q134.556 1205.14 130.922 1205.14 M130.922 1201.44 Q136.732 1201.44 139.788 1206.05 Q142.867 1210.63 142.867 1219.38 Q142.867 1228.11 139.788 1232.71 Q136.732 1237.3 130.922 1237.3 Q125.112 1237.3 122.033 1232.71 Q118.978 1228.11 118.978 1219.38 Q118.978 1210.63 122.033 1206.05 Q125.112 1201.44 130.922 1201.44 Z" fill="#000000" fill-rule="nonzero" fill-opacity="1" /><path clip-path="url(#clip360)" d="M161.084 1205.14 Q157.473 1205.14 155.644 1208.71 Q153.839 1212.25 153.839 1219.38 Q153.839 1226.49 155.644 1230.05 Q157.473 1233.59 161.084 1233.59 Q164.718 1233.59 166.524 1230.05 Q168.353 1226.49 168.353 1219.38 Q168.353 1212.25 166.524 1208.71 Q164.718 1205.14 161.084 1205.14 M161.084 1201.44 Q166.894 1201.44 169.95 1206.05 Q173.029 1210.63 173.029 1219.38 Q173.029 1228.11 169.95 1232.71 Q166.894 1237.3 161.084 1237.3 Q155.274 1237.3 152.195 1232.71 Q149.14 1228.11 149.14 1219.38 Q149.14 1210.63 152.195 1206.05 Q155.274 1201.44 161.084 1201.44 Z" fill="#000000" fill-rule="nonzero" fill-opacity="1" /><path clip-path="url(#clip360)" d="M191.246 1205.14 Q187.635 1205.14 185.806 1208.71 Q184.001 1212.25 184.001 1219.38 Q184.001 1226.49 185.806 1230.05 Q187.635 1233.59 191.246 1233.59 Q194.88 1233.59 196.686 1230.05 Q198.514 1226.49 198.514 1219.38 Q198.514 1212.25 196.686 1208.71 Q194.88 1205.14 191.246 1205.14 M191.246 1201.44 Q197.056 1201.44 200.112 1206.05 Q203.19 1210.63 203.19 1219.38 Q203.19 1228.11 200.112 1232.71 Q197.056 1237.3 191.246 1237.3 Q185.436 1237.3 182.357 1232.71 Q179.302 1228.11 179.302 1219.38 Q179.302 1210.63 182.357 1206.05 Q185.436 1201.44 191.246 1201.44 Z" fill="#000000" fill-rule="nonzero" fill-opacity="1" /><path clip-path="url(#clip360)" d="M50.9921 1000.5 L80.6679 1000.5 L80.6679 1004.44 L50.9921 1004.44 L50.9921 1000.5 Z" fill="#000000" fill-rule="nonzero" fill-opacity="1" /><path clip-path="url(#clip360)" d="M90.8067 982.772 L109.163 982.772 L109.163 986.707 L95.0891 986.707 L95.0891 995.179 Q96.1076 994.832 97.1261 994.67 Q98.1447 994.485 99.1632 994.485 Q104.95 994.485 108.33 997.656 Q111.709 1000.83 111.709 1006.24 Q111.709 1011.82 108.237 1014.92 Q104.765 1018 98.4456 1018 Q96.2697 1018 94.0012 1017.63 Q91.7558 1017.26 89.3484 1016.52 L89.3484 1011.82 Q91.4317 1012.96 93.6539 1013.51 Q95.8761 1014.07 98.353 1014.07 Q102.358 1014.07 104.696 1011.96 Q107.033 1009.86 107.033 1006.24 Q107.033 1002.63 104.696 1000.53 Q102.358 998.42 98.353 998.42 Q96.478 998.42 94.603 998.837 Q92.7512 999.253 90.8067 1000.13 L90.8067 982.772 Z" fill="#000000" fill-rule="nonzero" fill-opacity="1" /><path clip-path="url(#clip360)" d="M130.922 985.851 Q127.311 985.851 125.482 989.415 Q123.677 992.957 123.677 1000.09 Q123.677 1007.19 125.482 1010.76 Q127.311 1014.3 130.922 1014.3 Q134.556 1014.3 136.362 1010.76 Q138.191 1007.19 138.191 1000.09 Q138.191 992.957 136.362 989.415 Q134.556 985.851 130.922 985.851 M130.922 982.147 Q136.732 982.147 139.788 986.753 Q142.867 991.337 142.867 1000.09 Q142.867 1008.81 139.788 1013.42 Q136.732 1018 130.922 1018 Q125.112 1018 122.033 1013.42 Q118.978 1008.81 118.978 1000.09 Q118.978 991.337 122.033 986.753 Q125.112 982.147 130.922 982.147 Z" fill="#000000" fill-rule="nonzero" fill-opacity="1" /><path clip-path="url(#clip360)" d="M161.084 985.851 Q157.473 985.851 155.644 989.415 Q153.839 992.957 153.839 1000.09 Q153.839 1007.19 155.644 1010.76 Q157.473 1014.3 161.084 1014.3 Q164.718 1014.3 166.524 1010.76 Q168.353 1007.19 168.353 1000.09 Q168.353 992.957 166.524 989.415 Q164.718 985.851 161.084 985.851 M161.084 982.147 Q166.894 982.147 169.95 986.753 Q173.029 991.337 173.029 1000.09 Q173.029 1008.81 169.95 1013.42 Q166.894 1018 161.084 1018 Q155.274 1018 152.195 1013.42 Q149.14 1008.81 149.14 1000.09 Q149.14 991.337 152.195 986.753 Q155.274 982.147 161.084 982.147 Z" fill="#000000" fill-rule="nonzero" fill-opacity="1" /><path clip-path="url(#clip360)" d="M191.246 985.851 Q187.635 985.851 185.806 989.415 Q184.001 992.957 184.001 1000.09 Q184.001 1007.19 185.806 1010.76 Q187.635 1014.3 191.246 1014.3 Q194.88 1014.3 196.686 1010.76 Q198.514 1007.19 198.514 1000.09 Q198.514 992.957 196.686 989.415 Q194.88 985.851 191.246 985.851 M191.246 982.147 Q197.056 982.147 200.112 986.753 Q203.19 991.337 203.19 1000.09 Q203.19 1008.81 200.112 1013.42 Q197.056 1018 191.246 1018 Q185.436 1018 182.357 1013.42 Q179.302 1008.81 179.302 1000.09 Q179.302 991.337 182.357 986.753 Q185.436 982.147 191.246 982.147 Z" fill="#000000" fill-rule="nonzero" fill-opacity="1" /><path clip-path="url(#clip360)" d="M50.9921 781.211 L80.6679 781.211 L80.6679 785.146 L50.9921 785.146 L50.9921 781.211 Z" fill="#000000" fill-rule="nonzero" fill-opacity="1" /><path clip-path="url(#clip360)" d="M103.608 767.553 L91.8021 786.002 L103.608 786.002 L103.608 767.553 M102.381 763.479 L108.26 763.479 L108.26 786.002 L113.191 786.002 L113.191 789.891 L108.26 789.891 L108.26 798.039 L103.608 798.039 L103.608 789.891 L88.0058 789.891 L88.0058 785.377 L102.381 763.479 Z" fill="#000000" fill-rule="nonzero" fill-opacity="1" /><path clip-path="url(#clip360)" d="M130.922 766.558 Q127.311 766.558 125.482 770.123 Q123.677 773.664 123.677 780.794 Q123.677 787.9 125.482 791.465 Q127.311 795.007 130.922 795.007 Q134.556 795.007 136.362 791.465 Q138.191 787.9 138.191 780.794 Q138.191 773.664 136.362 770.123 Q134.556 766.558 130.922 766.558 M130.922 762.854 Q136.732 762.854 139.788 767.461 Q142.867 772.044 142.867 780.794 Q142.867 789.521 139.788 794.127 Q136.732 798.71 130.922 798.71 Q125.112 798.71 122.033 794.127 Q118.978 789.521 118.978 780.794 Q118.978 772.044 122.033 767.461 Q125.112 762.854 130.922 762.854 Z" fill="#000000" fill-rule="nonzero" fill-opacity="1" /><path clip-path="url(#clip360)" d="M161.084 766.558 Q157.473 766.558 155.644 770.123 Q153.839 773.664 153.839 780.794 Q153.839 787.9 155.644 791.465 Q157.473 795.007 161.084 795.007 Q164.718 795.007 166.524 791.465 Q168.353 787.9 168.353 780.794 Q168.353 773.664 166.524 770.123 Q164.718 766.558 161.084 766.558 M161.084 762.854 Q166.894 762.854 169.95 767.461 Q173.029 772.044 173.029 780.794 Q173.029 789.521 169.95 794.127 Q166.894 798.71 161.084 798.71 Q155.274 798.71 152.195 794.127 Q149.14 789.521 149.14 780.794 Q149.14 772.044 152.195 767.461 Q155.274 762.854 161.084 762.854 Z" fill="#000000" fill-rule="nonzero" fill-opacity="1" /><path clip-path="url(#clip360)" d="M191.246 766.558 Q187.635 766.558 185.806 770.123 Q184.001 773.664 184.001 780.794 Q184.001 787.9 185.806 791.465 Q187.635 795.007 191.246 795.007 Q194.88 795.007 196.686 791.465 Q198.514 787.9 198.514 780.794 Q198.514 773.664 196.686 770.123 Q194.88 766.558 191.246 766.558 M191.246 762.854 Q197.056 762.854 200.112 767.461 Q203.19 772.044 203.19 780.794 Q203.19 789.521 200.112 794.127 Q197.056 798.71 191.246 798.71 Q185.436 798.71 182.357 794.127 Q179.302 789.521 179.302 780.794 Q179.302 772.044 182.357 767.461 Q185.436 762.854 191.246 762.854 Z" fill="#000000" fill-rule="nonzero" fill-opacity="1" /><path clip-path="url(#clip360)" d="M50.9921 561.918 L80.6679 561.918 L80.6679 565.853 L50.9921 565.853 L50.9921 561.918 Z" fill="#000000" fill-rule="nonzero" fill-opacity="1" /><path clip-path="url(#clip360)" d="M104.927 560.112 Q108.283 560.83 110.158 563.098 Q112.057 565.367 112.057 568.7 Q112.057 573.816 108.538 576.617 Q105.02 579.418 98.5382 579.418 Q96.3623 579.418 94.0475 578.978 Q91.7558 578.561 89.3021 577.705 L89.3021 573.191 Q91.2465 574.325 93.5613 574.904 Q95.8761 575.482 98.3993 575.482 Q102.797 575.482 105.089 573.746 Q107.404 572.01 107.404 568.7 Q107.404 565.645 105.251 563.932 Q103.121 562.196 99.3021 562.196 L95.2743 562.196 L95.2743 558.353 L99.4872 558.353 Q102.936 558.353 104.765 556.987 Q106.594 555.598 106.594 553.006 Q106.594 550.344 104.696 548.932 Q102.821 547.497 99.3021 547.497 Q97.3808 547.497 95.1817 547.913 Q92.9826 548.33 90.3438 549.209 L90.3438 545.043 Q93.0058 544.302 95.3206 543.932 Q97.6585 543.561 99.7187 543.561 Q105.043 543.561 108.145 545.992 Q111.246 548.399 111.246 552.52 Q111.246 555.39 109.603 557.381 Q107.959 559.348 104.927 560.112 Z" fill="#000000" fill-rule="nonzero" fill-opacity="1" /><path clip-path="url(#clip360)" d="M130.922 547.265 Q127.311 547.265 125.482 550.83 Q123.677 554.371 123.677 561.501 Q123.677 568.608 125.482 572.172 Q127.311 575.714 130.922 575.714 Q134.556 575.714 136.362 572.172 Q138.191 568.608 138.191 561.501 Q138.191 554.371 136.362 550.83 Q134.556 547.265 130.922 547.265 M130.922 543.561 Q136.732 543.561 139.788 548.168 Q142.867 552.751 142.867 561.501 Q142.867 570.228 139.788 574.834 Q136.732 579.418 130.922 579.418 Q125.112 579.418 122.033 574.834 Q118.978 570.228 118.978 561.501 Q118.978 552.751 122.033 548.168 Q125.112 543.561 130.922 543.561 Z" fill="#000000" fill-rule="nonzero" fill-opacity="1" /><path clip-path="url(#clip360)" d="M161.084 547.265 Q157.473 547.265 155.644 550.83 Q153.839 554.371 153.839 561.501 Q153.839 568.608 155.644 572.172 Q157.473 575.714 161.084 575.714 Q164.718 575.714 166.524 572.172 Q168.353 568.608 168.353 561.501 Q168.353 554.371 166.524 550.83 Q164.718 547.265 161.084 547.265 M161.084 543.561 Q166.894 543.561 169.95 548.168 Q173.029 552.751 173.029 561.501 Q173.029 570.228 169.95 574.834 Q166.894 579.418 161.084 579.418 Q155.274 579.418 152.195 574.834 Q149.14 570.228 149.14 561.501 Q149.14 552.751 152.195 548.168 Q155.274 543.561 161.084 543.561 Z" fill="#000000" fill-rule="nonzero" fill-opacity="1" /><path clip-path="url(#clip360)" d="M191.246 547.265 Q187.635 547.265 185.806 550.83 Q184.001 554.371 184.001 561.501 Q184.001 568.608 185.806 572.172 Q187.635 575.714 191.246 575.714 Q194.88 575.714 196.686 572.172 Q198.514 568.608 198.514 561.501 Q198.514 554.371 196.686 550.83 Q194.88 547.265 191.246 547.265 M191.246 543.561 Q197.056 543.561 200.112 548.168 Q203.19 552.751 203.19 561.501 Q203.19 570.228 200.112 574.834 Q197.056 579.418 191.246 579.418 Q185.436 579.418 182.357 574.834 Q179.302 570.228 179.302 561.501 Q179.302 552.751 182.357 548.168 Q185.436 543.561 191.246 543.561 Z" fill="#000000" fill-rule="nonzero" fill-opacity="1" /><path clip-path="url(#clip360)" d="M50.9921 342.625 L80.6679 342.625 L80.6679 346.56 L50.9921 346.56 L50.9921 342.625 Z" fill="#000000" fill-rule="nonzero" fill-opacity="1" /><path clip-path="url(#clip360)" d="M94.7882 355.518 L111.108 355.518 L111.108 359.454 L89.1632 359.454 L89.1632 355.518 Q91.8252 352.764 96.4085 348.134 Q101.015 343.481 102.196 342.139 Q104.441 339.616 105.321 337.88 Q106.223 336.12 106.223 334.431 Q106.223 331.676 104.279 329.94 Q102.358 328.204 99.2558 328.204 Q97.0567 328.204 94.603 328.968 Q92.1725 329.731 89.3947 331.282 L89.3947 326.56 Q92.2188 325.426 94.6724 324.847 Q97.1261 324.269 99.1632 324.269 Q104.534 324.269 107.728 326.954 Q110.922 329.639 110.922 334.13 Q110.922 336.259 110.112 338.181 Q109.325 340.079 107.219 342.671 Q106.64 343.343 103.538 346.56 Q100.436 349.755 94.7882 355.518 Z" fill="#000000" fill-rule="nonzero" fill-opacity="1" /><path clip-path="url(#clip360)" d="M130.922 327.972 Q127.311 327.972 125.482 331.537 Q123.677 335.079 123.677 342.208 Q123.677 349.315 125.482 352.88 Q127.311 356.421 130.922 356.421 Q134.556 356.421 136.362 352.88 Q138.191 349.315 138.191 342.208 Q138.191 335.079 136.362 331.537 Q134.556 327.972 130.922 327.972 M130.922 324.269 Q136.732 324.269 139.788 328.875 Q142.867 333.458 142.867 342.208 Q142.867 350.935 139.788 355.542 Q136.732 360.125 130.922 360.125 Q125.112 360.125 122.033 355.542 Q118.978 350.935 118.978 342.208 Q118.978 333.458 122.033 328.875 Q125.112 324.269 130.922 324.269 Z" fill="#000000" fill-rule="nonzero" fill-opacity="1" /><path clip-path="url(#clip360)" d="M161.084 327.972 Q157.473 327.972 155.644 331.537 Q153.839 335.079 153.839 342.208 Q153.839 349.315 155.644 352.88 Q157.473 356.421 161.084 356.421 Q164.718 356.421 166.524 352.88 Q168.353 349.315 168.353 342.208 Q168.353 335.079 166.524 331.537 Q164.718 327.972 161.084 327.972 M161.084 324.269 Q166.894 324.269 169.95 328.875 Q173.029 333.458 173.029 342.208 Q173.029 350.935 169.95 355.542 Q166.894 360.125 161.084 360.125 Q155.274 360.125 152.195 355.542 Q149.14 350.935 149.14 342.208 Q149.14 333.458 152.195 328.875 Q155.274 324.269 161.084 324.269 Z" fill="#000000" fill-rule="nonzero" fill-opacity="1" /><path clip-path="url(#clip360)" d="M191.246 327.972 Q187.635 327.972 185.806 331.537 Q184.001 335.079 184.001 342.208 Q184.001 349.315 185.806 352.88 Q187.635 356.421 191.246 356.421 Q194.88 356.421 196.686 352.88 Q198.514 349.315 198.514 342.208 Q198.514 335.079 196.686 331.537 Q194.88 327.972 191.246 327.972 M191.246 324.269 Q197.056 324.269 200.112 328.875 Q203.19 333.458 203.19 342.208 Q203.19 350.935 200.112 355.542 Q197.056 360.125 191.246 360.125 Q185.436 360.125 182.357 355.542 Q179.302 350.935 179.302 342.208 Q179.302 333.458 182.357 328.875 Q185.436 324.269 191.246 324.269 Z" fill="#000000" fill-rule="nonzero" fill-opacity="1" /><path clip-path="url(#clip360)" d="M1017.21 12.096 L1025.39 12.096 L1025.39 65.6895 L1054.84 65.6895 L1054.84 72.576 L1017.21 72.576 L1017.21 12.096 Z" fill="#000000" fill-rule="nonzero" fill-opacity="1" /><path clip-path="url(#clip360)" d="M1079.23 32.4315 Q1073.23 32.4315 1069.75 37.1306 Q1066.27 41.7891 1066.27 49.9314 Q1066.27 58.0738 1069.71 62.7728 Q1073.19 67.4314 1079.23 67.4314 Q1085.18 67.4314 1088.67 62.7323 Q1092.15 58.0333 1092.15 49.9314 Q1092.15 41.8701 1088.67 37.1711 Q1085.18 32.4315 1079.23 32.4315 M1079.23 26.1121 Q1088.95 26.1121 1094.5 32.4315 Q1100.05 38.7509 1100.05 49.9314 Q1100.05 61.0714 1094.5 67.4314 Q1088.95 73.7508 1079.23 73.7508 Q1069.47 73.7508 1063.92 67.4314 Q1058.41 61.0714 1058.41 49.9314 Q1058.41 38.7509 1063.92 32.4315 Q1069.47 26.1121 1079.23 26.1121 Z" fill="#000000" fill-rule="nonzero" fill-opacity="1" /><path clip-path="url(#clip360)" d="M1142.26 49.3643 Q1142.26 41.2625 1138.9 36.8065 Q1135.58 32.3505 1129.54 32.3505 Q1123.55 32.3505 1120.18 36.8065 Q1116.86 41.2625 1116.86 49.3643 Q1116.86 57.4256 1120.18 61.8816 Q1123.55 66.3376 1129.54 66.3376 Q1135.58 66.3376 1138.9 61.8816 Q1142.26 57.4256 1142.26 49.3643 M1149.72 66.9452 Q1149.72 78.5308 1144.57 84.1616 Q1139.43 89.8329 1128.81 89.8329 Q1124.88 89.8329 1121.4 89.2252 Q1117.92 88.6581 1114.63 87.4428 L1114.63 80.1917 Q1117.92 81.9741 1121.12 82.8248 Q1124.32 83.6755 1127.64 83.6755 Q1134.97 83.6755 1138.62 79.8271 Q1142.26 76.0193 1142.26 68.282 L1142.26 64.5957 Q1139.95 68.6061 1136.35 70.5911 Q1132.74 72.576 1127.72 72.576 Q1119.37 72.576 1114.27 66.2161 Q1109.17 59.8562 1109.17 49.3643 Q1109.17 38.832 1114.27 32.472 Q1119.37 26.1121 1127.72 26.1121 Q1132.74 26.1121 1136.35 28.0971 Q1139.95 30.082 1142.26 34.0924 L1142.26 27.2059 L1149.72 27.2059 L1149.72 66.9452 Z" fill="#000000" fill-rule="nonzero" fill-opacity="1" /><path clip-path="url(#clip360)" d="M1161.3 46.5287 L1183.14 46.5287 L1183.14 53.1722 L1161.3 53.1722 L1161.3 46.5287 Z" fill="#000000" fill-rule="nonzero" fill-opacity="1" /><path clip-path="url(#clip360)" d="M1195 9.54393 L1202.46 9.54393 L1202.46 72.576 L1195 72.576 L1195 9.54393 Z" fill="#000000" fill-rule="nonzero" fill-opacity="1" /><path clip-path="url(#clip360)" d="M1218.05 27.2059 L1225.51 27.2059 L1225.51 72.576 L1218.05 72.576 L1218.05 27.2059 M1218.05 9.54393 L1225.51 9.54393 L1225.51 18.9825 L1218.05 18.9825 L1218.05 9.54393 Z" fill="#000000" fill-rule="nonzero" fill-opacity="1" /><path clip-path="url(#clip360)" d="M1240.82 9.54393 L1248.31 9.54393 L1248.31 46.7717 L1270.55 27.2059 L1280.07 27.2059 L1256.01 48.4326 L1281.09 72.576 L1271.36 72.576 L1248.31 50.4176 L1248.31 72.576 L1240.82 72.576 L1240.82 9.54393 Z" fill="#000000" fill-rule="nonzero" fill-opacity="1" /><path clip-path="url(#clip360)" d="M1325 48.0275 L1325 51.6733 L1290.73 51.6733 Q1291.21 59.3701 1295.35 63.421 Q1299.52 67.4314 1306.93 67.4314 Q1311.22 67.4314 1315.24 66.3781 Q1319.29 65.3249 1323.26 63.2184 L1323.26 70.267 Q1319.25 71.9684 1315.03 72.8596 Q1310.82 73.7508 1306.49 73.7508 Q1295.63 73.7508 1289.27 67.4314 Q1282.95 61.1119 1282.95 50.3365 Q1282.95 39.1965 1288.94 32.6746 Q1294.98 26.1121 1305.19 26.1121 Q1314.34 26.1121 1319.65 32.0264 Q1325 37.9003 1325 48.0275 M1317.54 45.84 Q1317.46 39.7232 1314.1 36.0774 Q1310.78 32.4315 1305.27 32.4315 Q1299.03 32.4315 1295.26 35.9558 Q1291.54 39.4801 1290.97 45.8805 L1317.54 45.84 Z" fill="#000000" fill-rule="nonzero" fill-opacity="1" /><path clip-path="url(#clip360)" d="M1337.23 9.54393 L1344.69 9.54393 L1344.69 72.576 L1337.23 72.576 L1337.23 9.54393 Z" fill="#000000" fill-rule="nonzero" fill-opacity="1" /><path clip-path="url(#clip360)" d="M1360.28 27.2059 L1367.73 27.2059 L1367.73 72.576 L1360.28 72.576 L1360.28 27.2059 M1360.28 9.54393 L1367.73 9.54393 L1367.73 18.9825 L1360.28 18.9825 L1360.28 9.54393 Z" fill="#000000" fill-rule="nonzero" fill-opacity="1" /><path clip-path="url(#clip360)" d="M1421.04 45.1919 L1421.04 72.576 L1413.59 72.576 L1413.59 45.4349 Q1413.59 38.994 1411.08 35.7938 Q1408.57 32.5936 1403.54 32.5936 Q1397.51 32.5936 1394.03 36.4419 Q1390.54 40.2903 1390.54 46.9338 L1390.54 72.576 L1383.05 72.576 L1383.05 9.54393 L1390.54 9.54393 L1390.54 34.2544 Q1393.22 30.163 1396.82 28.1376 Q1400.47 26.1121 1405.21 26.1121 Q1413.02 26.1121 1417.03 30.9732 Q1421.04 35.7938 1421.04 45.1919 Z" fill="#000000" fill-rule="nonzero" fill-opacity="1" /><path clip-path="url(#clip360)" d="M1453.49 32.4315 Q1447.5 32.4315 1444.01 37.1306 Q1440.53 41.7891 1440.53 49.9314 Q1440.53 58.0738 1443.97 62.7728 Q1447.46 67.4314 1453.49 67.4314 Q1459.45 67.4314 1462.93 62.7323 Q1466.41 58.0333 1466.41 49.9314 Q1466.41 41.8701 1462.93 37.1711 Q1459.45 32.4315 1453.49 32.4315 M1453.49 26.1121 Q1463.21 26.1121 1468.76 32.4315 Q1474.31 38.7509 1474.31 49.9314 Q1474.31 61.0714 1468.76 67.4314 Q1463.21 73.7508 1453.49 73.7508 Q1443.73 73.7508 1438.18 67.4314 Q1432.67 61.0714 1432.67 49.9314 Q1432.67 38.7509 1438.18 32.4315 Q1443.73 26.1121 1453.49 26.1121 Z" fill="#000000" fill-rule="nonzero" fill-opacity="1" /><path clip-path="url(#clip360)" d="M1504.25 32.4315 Q1498.26 32.4315 1494.77 37.1306 Q1491.29 41.7891 1491.29 49.9314 Q1491.29 58.0738 1494.73 62.7728 Q1498.21 67.4314 1504.25 67.4314 Q1510.21 67.4314 1513.69 62.7323 Q1517.17 58.0333 1517.17 49.9314 Q1517.17 41.8701 1513.69 37.1711 Q1510.21 32.4315 1504.25 32.4315 M1504.25 26.1121 Q1513.97 26.1121 1519.52 32.4315 Q1525.07 38.7509 1525.07 49.9314 Q1525.07 61.0714 1519.52 67.4314 Q1513.97 73.7508 1504.25 73.7508 Q1494.49 73.7508 1488.94 67.4314 Q1483.43 61.0714 1483.43 49.9314 Q1483.43 38.7509 1488.94 32.4315 Q1494.49 26.1121 1504.25 26.1121 Z" fill="#000000" fill-rule="nonzero" fill-opacity="1" /><path clip-path="url(#clip360)" d="M1567.28 34.0924 L1567.28 9.54393 L1574.74 9.54393 L1574.74 72.576 L1567.28 72.576 L1567.28 65.7705 Q1564.93 69.8214 1561.33 71.8063 Q1557.76 73.7508 1552.74 73.7508 Q1544.52 73.7508 1539.33 67.1883 Q1534.19 60.6258 1534.19 49.9314 Q1534.19 39.2371 1539.33 32.6746 Q1544.52 26.1121 1552.74 26.1121 Q1557.76 26.1121 1561.33 28.0971 Q1564.93 30.0415 1567.28 34.0924 M1541.88 49.9314 Q1541.88 58.1548 1545.25 62.8538 Q1548.65 67.5124 1554.56 67.5124 Q1560.48 67.5124 1563.88 62.8538 Q1567.28 58.1548 1567.28 49.9314 Q1567.28 41.7081 1563.88 37.0496 Q1560.48 32.3505 1554.56 32.3505 Q1548.65 32.3505 1545.25 37.0496 Q1541.88 41.7081 1541.88 49.9314 Z" fill="#000000" fill-rule="nonzero" fill-opacity="1" /><polyline clip-path="url(#clip362)" style="stroke:#009af9; stroke-linecap:round; stroke-linejoin:round; stroke-width:4; stroke-opacity:1; fill:none" points="299.008,1374.46 332.804,1117.72 366.599,772.07 400.395,637.262 434.19,579.846 467.985,405.184 501.781,370.383 535.576,302.504 569.372,272.503 603.167,249.69 636.962,234.196 670.758,223.776 704.553,203.528 738.349,198.484 772.144,193.134 805.94,182.134 839.735,178.488 873.53,174.1 907.326,170.279 941.121,166.73 974.917,164.584 1008.71,163.207 1042.51,161.264 1076.3,161.81 1110.1,159.909 1143.89,160.148 1177.69,160.371 1211.48,162.31 1245.28,162.44 1279.08,164.371 1312.87,167.076 1346.67,169.4 1380.46,172.302 1414.26,176.888 1448.05,180.415 1481.85,185.883 1515.64,190.805 1549.44,195.751 1583.23,203.3 1617.03,210.41 1650.83,216.766 1684.62,223.68 1718.42,230.704 1752.21,239.072 1786.01,247.686 1819.8,255.775 1853.6,264.64 1887.39,272.775 1921.19,282.142 1954.98,291.807 1988.78,299.755 2022.57,311.665 2056.37,320.49 2090.17,330.648 2123.96,340.638 2157.76,350.163 2191.55,359.589 2225.35,369.477 2259.14,379.757 2292.94,391.999 "/>
<polyline clip-path="url(#clip362)" style="stroke:#0000ff; stroke-linecap:round; stroke-linejoin:round; stroke-width:4; stroke-opacity:1; fill:none" stroke-dasharray="16, 10" points="1110.1,2698.32 1110.1,-1163.95 "/>
<polyline clip-path="url(#clip362)" style="stroke:#ff0000; stroke-linecap:round; stroke-linejoin:round; stroke-width:4; stroke-opacity:1; fill:none" points="299.008,334.735 332.804,316.716 366.599,300.162 400.395,284.979 434.19,271.078 467.985,258.372 501.781,246.777 535.576,236.213 569.372,226.601 603.167,217.871 636.962,209.953 670.758,202.787 704.553,196.315 738.349,190.487 772.144,185.258 805.94,180.59 839.735,176.449 873.53,172.808 907.326,169.645 941.121,166.943 974.917,164.688 1008.71,162.874 1042.51,161.494 1076.3,160.549 1110.1,160.041 1143.89,159.974 1177.69,160.356 1211.48,161.196 1245.28,162.503 1279.08,164.287 1312.87,166.557 1346.67,169.32 1380.46,172.581 1414.26,176.34 1448.05,180.595 1481.85,185.339 1515.64,190.559 1549.44,196.24 1583.23,202.362 1617.03,208.901 1650.83,215.832 1684.62,223.126 1718.42,230.756 1752.21,238.692 1786.01,246.906 1819.8,255.37 1853.6,264.058 1887.39,272.945 1921.19,282.008 1954.98,291.226 1988.78,300.581 2022.57,310.056 2056.37,319.634 2090.17,329.303 2123.96,339.051 2157.76,348.867 2191.55,358.742 2225.35,368.667 2259.14,378.637 2292.94,388.644 "/>
<polyline clip-path="url(#clip362)" style="stroke:#ff0000; stroke-linecap:round; stroke-linejoin:round; stroke-width:4; stroke-opacity:1; fill:none" stroke-dasharray="16, 10" points="1143.89,2698.32 1143.89,-1163.95 "/>
<path clip-path="url(#clip360)" d="M1901.87 1367.98 L2282.3 1367.98 L2282.3 1212.46 L1901.87 1212.46  Z" fill="#ffffff" fill-rule="evenodd" fill-opacity="1"/>
<polyline clip-path="url(#clip360)" style="stroke:#000000; stroke-linecap:round; stroke-linejoin:round; stroke-width:4; stroke-opacity:1; fill:none" points="1901.87,1367.98 2282.3,1367.98 2282.3,1212.46 1901.87,1212.46 1901.87,1367.98 "/>
<polyline clip-path="url(#clip360)" style="stroke:#009af9; stroke-linecap:round; stroke-linejoin:round; stroke-width:4; stroke-opacity:1; fill:none" points="1925.36,1264.3 2066.26,1264.3 "/>
<path clip-path="url(#clip360)" d="M2094.42 1250.87 L2094.42 1263.85 L2100.3 1263.85 Q2103.57 1263.85 2105.35 1262.16 Q2107.13 1260.47 2107.13 1257.35 Q2107.13 1254.24 2105.35 1252.55 Q2103.57 1250.87 2100.3 1250.87 L2094.42 1250.87 M2089.75 1247.02 L2100.3 1247.02 Q2106.11 1247.02 2109.08 1249.66 Q2112.06 1252.28 2112.06 1257.35 Q2112.06 1262.46 2109.08 1265.08 Q2106.11 1267.69 2100.3 1267.69 L2094.42 1267.69 L2094.42 1281.58 L2089.75 1281.58 L2089.75 1247.02 Z" fill="#000000" fill-rule="nonzero" fill-opacity="1" /><path clip-path="url(#clip360)" d="M2118.33 1247.02 L2138.2 1247.02 L2138.2 1250.96 L2123.01 1250.96 L2123.01 1261.14 L2136.71 1261.14 L2136.71 1265.08 L2123.01 1265.08 L2123.01 1281.58 L2118.33 1281.58 L2118.33 1247.02 Z" fill="#000000" fill-rule="nonzero" fill-opacity="1" /><polyline clip-path="url(#clip360)" style="stroke:#ff0000; stroke-linecap:round; stroke-linejoin:round; stroke-width:4; stroke-opacity:1; fill:none" points="1925.36,1316.14 2066.26,1316.14 "/>
<path clip-path="url(#clip360)" d="M2089.75 1298.86 L2094.42 1298.86 L2094.42 1313.47 L2109.93 1298.86 L2115.95 1298.86 L2098.8 1314.97 L2117.18 1333.42 L2111.02 1333.42 L2094.42 1316.78 L2094.42 1333.42 L2089.75 1333.42 L2089.75 1298.86 Z" fill="#000000" fill-rule="nonzero" fill-opacity="1" /><path clip-path="url(#clip360)" d="M2131.6 1320.39 Q2126.44 1320.39 2124.45 1321.57 Q2122.45 1322.75 2122.45 1325.6 Q2122.45 1327.87 2123.94 1329.21 Q2125.44 1330.53 2128.01 1330.53 Q2131.55 1330.53 2133.68 1328.03 Q2135.83 1325.51 2135.83 1321.34 L2135.83 1320.39 L2131.6 1320.39 M2140.09 1318.63 L2140.09 1333.42 L2135.83 1333.42 L2135.83 1329.49 Q2134.38 1331.85 2132.2 1332.98 Q2130.02 1334.09 2126.88 1334.09 Q2122.89 1334.09 2120.53 1331.87 Q2118.2 1329.63 2118.2 1325.88 Q2118.2 1321.5 2121.11 1319.28 Q2124.05 1317.06 2129.86 1317.06 L2135.83 1317.06 L2135.83 1316.64 Q2135.83 1313.7 2133.89 1312.1 Q2131.97 1310.48 2128.47 1310.48 Q2126.25 1310.48 2124.14 1311.02 Q2122.04 1311.55 2120.09 1312.61 L2120.09 1308.68 Q2122.43 1307.77 2124.63 1307.33 Q2126.83 1306.87 2128.91 1306.87 Q2134.54 1306.87 2137.32 1309.79 Q2140.09 1312.71 2140.09 1318.63 Z" fill="#000000" fill-rule="nonzero" fill-opacity="1" /><path clip-path="url(#clip360)" d="M2148.87 1297.4 L2153.13 1297.4 L2153.13 1333.42 L2148.87 1333.42 L2148.87 1297.4 Z" fill="#000000" fill-rule="nonzero" fill-opacity="1" /><path clip-path="url(#clip360)" d="M2182.22 1312.47 Q2183.82 1309.6 2186.04 1308.24 Q2188.26 1306.87 2191.27 1306.87 Q2195.32 1306.87 2197.52 1309.72 Q2199.72 1312.54 2199.72 1317.77 L2199.72 1333.42 L2195.44 1333.42 L2195.44 1317.91 Q2195.44 1314.19 2194.12 1312.38 Q2192.8 1310.58 2190.09 1310.58 Q2186.78 1310.58 2184.86 1312.77 Q2182.94 1314.97 2182.94 1318.77 L2182.94 1333.42 L2178.66 1333.42 L2178.66 1317.91 Q2178.66 1314.16 2177.34 1312.38 Q2176.02 1310.58 2173.26 1310.58 Q2170 1310.58 2168.08 1312.8 Q2166.16 1315 2166.16 1318.77 L2166.16 1333.42 L2161.88 1333.42 L2161.88 1307.5 L2166.16 1307.5 L2166.16 1311.52 Q2167.62 1309.14 2169.65 1308.01 Q2171.69 1306.87 2174.49 1306.87 Q2177.32 1306.87 2179.28 1308.31 Q2181.27 1309.74 2182.22 1312.47 Z" fill="#000000" fill-rule="nonzero" fill-opacity="1" /><path clip-path="url(#clip360)" d="M2220 1320.39 Q2214.84 1320.39 2212.85 1321.57 Q2210.86 1322.75 2210.86 1325.6 Q2210.86 1327.87 2212.34 1329.21 Q2213.84 1330.53 2216.41 1330.53 Q2219.95 1330.53 2222.08 1328.03 Q2224.24 1325.51 2224.24 1321.34 L2224.24 1320.39 L2220 1320.39 M2228.5 1318.63 L2228.5 1333.42 L2224.24 1333.42 L2224.24 1329.49 Q2222.78 1331.85 2220.6 1332.98 Q2218.43 1334.09 2215.28 1334.09 Q2211.3 1334.09 2208.94 1331.87 Q2206.6 1329.63 2206.6 1325.88 Q2206.6 1321.5 2209.51 1319.28 Q2212.45 1317.06 2218.26 1317.06 L2224.24 1317.06 L2224.24 1316.64 Q2224.24 1313.7 2222.29 1312.1 Q2220.37 1310.48 2216.88 1310.48 Q2214.65 1310.48 2212.55 1311.02 Q2210.44 1311.55 2208.5 1312.61 L2208.5 1308.68 Q2210.83 1307.77 2213.03 1307.33 Q2215.23 1306.87 2217.32 1306.87 Q2222.94 1306.87 2225.72 1309.79 Q2228.5 1312.71 2228.5 1318.63 Z" fill="#000000" fill-rule="nonzero" fill-opacity="1" /><path clip-path="url(#clip360)" d="M2258.82 1317.77 L2258.82 1333.42 L2254.56 1333.42 L2254.56 1317.91 Q2254.56 1314.23 2253.13 1312.4 Q2251.69 1310.58 2248.82 1310.58 Q2245.37 1310.58 2243.38 1312.77 Q2241.39 1314.97 2241.39 1318.77 L2241.39 1333.42 L2237.11 1333.42 L2237.11 1307.5 L2241.39 1307.5 L2241.39 1311.52 Q2242.92 1309.19 2244.98 1308.03 Q2247.06 1306.87 2249.77 1306.87 Q2254.24 1306.87 2256.53 1309.65 Q2258.82 1312.4 2258.82 1317.77 Z" fill="#000000" fill-rule="nonzero" fill-opacity="1" /></svg>
