<?xml version="1.0" encoding="utf-8"?>
<svg xmlns="http://www.w3.org/2000/svg" xmlns:xlink="http://www.w3.org/1999/xlink" width="600" height="400" viewBox="0 0 2400 1600">
<defs>
  <clipPath id="clip170">
    <rect x="0" y="0" width="2400" height="1600"/>
  </clipPath>
</defs>
<path clip-path="url(#clip170)" d="M0 1600 L2400 1600 L2400 0 L0 0  Z" fill="#ffffff" fill-rule="evenodd" fill-opacity="1"/>
<defs>
  <clipPath id="clip171">
    <rect x="480" y="0" width="1681" height="1600"/>
  </clipPath>
</defs>
<path clip-path="url(#clip170)" d="M140.51 1486.45 L2352.76 1486.45 L2352.76 47.2441 L140.51 47.2441  Z" fill="#ffffff" fill-rule="evenodd" fill-opacity="1"/>
<defs>
  <clipPath id="clip172">
    <rect x="140" y="47" width="2213" height="1440"/>
  </clipPath>
</defs>
<polyline clip-path="url(#clip172)" style="stroke:#000000; stroke-linecap:round; stroke-linejoin:round; stroke-width:2; stroke-opacity:0.1; fill:none" points="352.465,1486.45 352.465,47.2441 "/>
<polyline clip-path="url(#clip172)" style="stroke:#000000; stroke-linecap:round; stroke-linejoin:round; stroke-width:2; stroke-opacity:0.1; fill:none" points="786.352,1486.45 786.352,47.2441 "/>
<polyline clip-path="url(#clip172)" style="stroke:#000000; stroke-linecap:round; stroke-linejoin:round; stroke-width:2; stroke-opacity:0.1; fill:none" points="1220.24,1486.45 1220.24,47.2441 "/>
<polyline clip-path="url(#clip172)" style="stroke:#000000; stroke-linecap:round; stroke-linejoin:round; stroke-width:2; stroke-opacity:0.1; fill:none" points="1654.13,1486.45 1654.13,47.2441 "/>
<polyline clip-path="url(#clip172)" style="stroke:#000000; stroke-linecap:round; stroke-linejoin:round; stroke-width:2; stroke-opacity:0.1; fill:none" points="2088.01,1486.45 2088.01,47.2441 "/>
<polyline clip-path="url(#clip172)" style="stroke:#000000; stroke-linecap:round; stroke-linejoin:round; stroke-width:2; stroke-opacity:0.1; fill:none" points="140.51,1180.23 2352.76,1180.23 "/>
<polyline clip-path="url(#clip172)" style="stroke:#000000; stroke-linecap:round; stroke-linejoin:round; stroke-width:2; stroke-opacity:0.1; fill:none" points="140.51,872.483 2352.76,872.483 "/>
<polyline clip-path="url(#clip172)" style="stroke:#000000; stroke-linecap:round; stroke-linejoin:round; stroke-width:2; stroke-opacity:0.1; fill:none" points="140.51,564.737 2352.76,564.737 "/>
<polyline clip-path="url(#clip172)" style="stroke:#000000; stroke-linecap:round; stroke-linejoin:round; stroke-width:2; stroke-opacity:0.1; fill:none" points="140.51,256.991 2352.76,256.991 "/>
<polyline clip-path="url(#clip170)" style="stroke:#000000; stroke-linecap:round; stroke-linejoin:round; stroke-width:4; stroke-opacity:1; fill:none" points="140.51,1486.45 2352.76,1486.45 "/>
<polyline clip-path="url(#clip170)" style="stroke:#000000; stroke-linecap:round; stroke-linejoin:round; stroke-width:4; stroke-opacity:1; fill:none" points="352.465,1486.45 352.465,1467.55 "/>
<polyline clip-path="url(#clip170)" style="stroke:#000000; stroke-linecap:round; stroke-linejoin:round; stroke-width:4; stroke-opacity:1; fill:none" points="786.352,1486.45 786.352,1467.55 "/>
<polyline clip-path="url(#clip170)" style="stroke:#000000; stroke-linecap:round; stroke-linejoin:round; stroke-width:4; stroke-opacity:1; fill:none" points="1220.24,1486.45 1220.24,1467.55 "/>
<polyline clip-path="url(#clip170)" style="stroke:#000000; stroke-linecap:round; stroke-linejoin:round; stroke-width:4; stroke-opacity:1; fill:none" points="1654.13,1486.45 1654.13,1467.55 "/>
<polyline clip-path="url(#clip170)" style="stroke:#000000; stroke-linecap:round; stroke-linejoin:round; stroke-width:4; stroke-opacity:1; fill:none" points="2088.01,1486.45 2088.01,1467.55 "/>
<path clip-path="url(#clip170)" d="M306.528 1532.02 L336.203 1532.02 L336.203 1535.95 L306.528 1535.95 L306.528 1532.02 Z" fill="#000000" fill-rule="nonzero" fill-opacity="1" /><path clip-path="url(#clip170)" d="M360.462 1530.21 Q363.819 1530.93 365.694 1533.2 Q367.592 1535.47 367.592 1538.8 Q367.592 1543.92 364.074 1546.72 Q360.555 1549.52 354.074 1549.52 Q351.898 1549.52 349.583 1549.08 Q347.291 1548.66 344.838 1547.81 L344.838 1543.29 Q346.782 1544.43 349.097 1545.01 Q351.412 1545.58 353.935 1545.58 Q358.333 1545.58 360.624 1543.85 Q362.939 1542.11 362.939 1538.8 Q362.939 1535.75 360.786 1534.03 Q358.657 1532.3 354.837 1532.3 L350.81 1532.3 L350.81 1528.45 L355.023 1528.45 Q358.472 1528.45 360.3 1527.09 Q362.129 1525.7 362.129 1523.11 Q362.129 1520.45 360.231 1519.03 Q358.356 1517.6 354.837 1517.6 Q352.916 1517.6 350.717 1518.01 Q348.518 1518.43 345.879 1519.31 L345.879 1515.14 Q348.541 1514.4 350.856 1514.03 Q353.194 1513.66 355.254 1513.66 Q360.578 1513.66 363.68 1516.09 Q366.782 1518.5 366.782 1522.62 Q366.782 1525.49 365.138 1527.48 Q363.495 1529.45 360.462 1530.21 Z" fill="#000000" fill-rule="nonzero" fill-opacity="1" /><path clip-path="url(#clip170)" d="M386.458 1517.37 Q382.847 1517.37 381.018 1520.93 Q379.212 1524.47 379.212 1531.6 Q379.212 1538.71 381.018 1542.27 Q382.847 1545.82 386.458 1545.82 Q390.092 1545.82 391.897 1542.27 Q393.726 1538.71 393.726 1531.6 Q393.726 1524.47 391.897 1520.93 Q390.092 1517.37 386.458 1517.37 M386.458 1513.66 Q392.268 1513.66 395.323 1518.27 Q398.402 1522.85 398.402 1531.6 Q398.402 1540.33 395.323 1544.94 Q392.268 1549.52 386.458 1549.52 Q380.647 1549.52 377.569 1544.94 Q374.513 1540.33 374.513 1531.6 Q374.513 1522.85 377.569 1518.27 Q380.647 1513.66 386.458 1513.66 Z" fill="#000000" fill-rule="nonzero" fill-opacity="1" /><path clip-path="url(#clip170)" d="M786.352 1517.37 Q782.74 1517.37 780.912 1520.93 Q779.106 1524.47 779.106 1531.6 Q779.106 1538.71 780.912 1542.27 Q782.74 1545.82 786.352 1545.82 Q789.986 1545.82 791.791 1542.27 Q793.62 1538.71 793.62 1531.6 Q793.62 1524.47 791.791 1520.93 Q789.986 1517.37 786.352 1517.37 M786.352 1513.66 Q792.162 1513.66 795.217 1518.27 Q798.296 1522.85 798.296 1531.6 Q798.296 1540.33 795.217 1544.94 Q792.162 1549.52 786.352 1549.52 Q780.541 1549.52 777.463 1544.94 Q774.407 1540.33 774.407 1531.6 Q774.407 1522.85 777.463 1518.27 Q780.541 1513.66 786.352 1513.66 Z" fill="#000000" fill-rule="nonzero" fill-opacity="1" /><path clip-path="url(#clip170)" d="M1209.08 1530.21 Q1212.44 1530.93 1214.31 1533.2 Q1216.21 1535.47 1216.21 1538.8 Q1216.21 1543.92 1212.69 1546.72 Q1209.17 1549.52 1202.69 1549.52 Q1200.52 1549.52 1198.2 1549.08 Q1195.91 1548.66 1193.46 1547.81 L1193.46 1543.29 Q1195.4 1544.43 1197.72 1545.01 Q1200.03 1545.58 1202.55 1545.58 Q1206.95 1545.58 1209.24 1543.85 Q1211.56 1542.11 1211.56 1538.8 Q1211.56 1535.75 1209.41 1534.03 Q1207.28 1532.3 1203.46 1532.3 L1199.43 1532.3 L1199.43 1528.45 L1203.64 1528.45 Q1207.09 1528.45 1208.92 1527.09 Q1210.75 1525.7 1210.75 1523.11 Q1210.75 1520.45 1208.85 1519.03 Q1206.97 1517.6 1203.46 1517.6 Q1201.53 1517.6 1199.34 1518.01 Q1197.14 1518.43 1194.5 1519.31 L1194.5 1515.14 Q1197.16 1514.4 1199.47 1514.03 Q1201.81 1513.66 1203.87 1513.66 Q1209.2 1513.66 1212.3 1516.09 Q1215.4 1518.5 1215.4 1522.62 Q1215.4 1525.49 1213.76 1527.48 Q1212.11 1529.45 1209.08 1530.21 Z" fill="#000000" fill-rule="nonzero" fill-opacity="1" /><path clip-path="url(#clip170)" d="M1235.08 1517.37 Q1231.47 1517.37 1229.64 1520.93 Q1227.83 1524.47 1227.83 1531.6 Q1227.83 1538.71 1229.64 1542.27 Q1231.47 1545.82 1235.08 1545.82 Q1238.71 1545.82 1240.52 1542.27 Q1242.34 1538.71 1242.34 1531.6 Q1242.34 1524.47 1240.52 1520.93 Q1238.71 1517.37 1235.08 1517.37 M1235.08 1513.66 Q1240.89 1513.66 1243.94 1518.27 Q1247.02 1522.85 1247.02 1531.6 Q1247.02 1540.33 1243.94 1544.94 Q1240.89 1549.52 1235.08 1549.52 Q1229.27 1549.52 1226.19 1544.94 Q1223.13 1540.33 1223.13 1531.6 Q1223.13 1522.85 1226.19 1518.27 Q1229.27 1513.66 1235.08 1513.66 Z" fill="#000000" fill-rule="nonzero" fill-opacity="1" /><path clip-path="url(#clip170)" d="M1639.53 1529.7 Q1636.38 1529.7 1634.53 1531.86 Q1632.7 1534.01 1632.7 1537.76 Q1632.7 1541.49 1634.53 1543.66 Q1636.38 1545.82 1639.53 1545.82 Q1642.68 1545.82 1644.51 1543.66 Q1646.36 1541.49 1646.36 1537.76 Q1646.36 1534.01 1644.51 1531.86 Q1642.68 1529.7 1639.53 1529.7 M1648.81 1515.05 L1648.81 1519.31 Q1647.05 1518.48 1645.25 1518.04 Q1643.47 1517.6 1641.71 1517.6 Q1637.08 1517.6 1634.62 1520.72 Q1632.19 1523.85 1631.85 1530.17 Q1633.21 1528.15 1635.27 1527.09 Q1637.33 1526 1639.81 1526 Q1645.02 1526 1648.03 1529.17 Q1651.06 1532.32 1651.06 1537.76 Q1651.06 1543.08 1647.91 1546.3 Q1644.76 1549.52 1639.53 1549.52 Q1633.53 1549.52 1630.36 1544.94 Q1627.19 1540.33 1627.19 1531.6 Q1627.19 1523.41 1631.08 1518.55 Q1634.97 1513.66 1641.52 1513.66 Q1643.28 1513.66 1645.06 1514.01 Q1646.87 1514.36 1648.81 1515.05 Z" fill="#000000" fill-rule="nonzero" fill-opacity="1" /><path clip-path="url(#clip170)" d="M1669.11 1517.37 Q1665.5 1517.37 1663.67 1520.93 Q1661.87 1524.47 1661.87 1531.6 Q1661.87 1538.71 1663.67 1542.27 Q1665.5 1545.82 1669.11 1545.82 Q1672.75 1545.82 1674.55 1542.27 Q1676.38 1538.71 1676.38 1531.6 Q1676.38 1524.47 1674.55 1520.93 Q1672.75 1517.37 1669.11 1517.37 M1669.11 1513.66 Q1674.92 1513.66 1677.98 1518.27 Q1681.06 1522.85 1681.06 1531.6 Q1681.06 1540.33 1677.98 1544.94 Q1674.92 1549.52 1669.11 1549.52 Q1663.3 1549.52 1660.22 1544.94 Q1657.17 1540.33 1657.17 1531.6 Q1657.17 1522.85 1660.22 1518.27 Q1663.3 1513.66 1669.11 1513.66 Z" fill="#000000" fill-rule="nonzero" fill-opacity="1" /><path clip-path="url(#clip170)" d="M2063.14 1548.13 L2063.14 1543.87 Q2064.9 1544.7 2066.7 1545.14 Q2068.51 1545.58 2070.25 1545.58 Q2074.88 1545.58 2077.31 1542.48 Q2079.76 1539.36 2080.11 1533.01 Q2078.76 1535.01 2076.7 1536.07 Q2074.64 1537.13 2072.14 1537.13 Q2066.96 1537.13 2063.93 1534.01 Q2060.92 1530.86 2060.92 1525.42 Q2060.92 1520.1 2064.07 1516.88 Q2067.21 1513.66 2072.44 1513.66 Q2078.44 1513.66 2081.59 1518.27 Q2084.76 1522.85 2084.76 1531.6 Q2084.76 1539.77 2080.87 1544.66 Q2077 1549.52 2070.45 1549.52 Q2068.69 1549.52 2066.89 1549.17 Q2065.08 1548.82 2063.14 1548.13 M2072.44 1533.48 Q2075.59 1533.48 2077.42 1531.32 Q2079.27 1529.17 2079.27 1525.42 Q2079.27 1521.7 2077.42 1519.54 Q2075.59 1517.37 2072.44 1517.37 Q2069.3 1517.37 2067.44 1519.54 Q2065.62 1521.7 2065.62 1525.42 Q2065.62 1529.17 2067.44 1531.32 Q2069.3 1533.48 2072.44 1533.48 Z" fill="#000000" fill-rule="nonzero" fill-opacity="1" /><path clip-path="url(#clip170)" d="M2103.16 1517.37 Q2099.55 1517.37 2097.72 1520.93 Q2095.92 1524.47 2095.92 1531.6 Q2095.92 1538.71 2097.72 1542.27 Q2099.55 1545.82 2103.16 1545.82 Q2106.8 1545.82 2108.6 1542.27 Q2110.43 1538.71 2110.43 1531.6 Q2110.43 1524.47 2108.6 1520.93 Q2106.8 1517.37 2103.16 1517.37 M2103.16 1513.66 Q2108.97 1513.66 2112.03 1518.27 Q2115.11 1522.85 2115.11 1531.6 Q2115.11 1540.33 2112.03 1544.94 Q2108.97 1549.52 2103.16 1549.52 Q2097.35 1549.52 2094.27 1544.94 Q2091.22 1540.33 2091.22 1531.6 Q2091.22 1522.85 2094.27 1518.27 Q2097.35 1513.66 2103.16 1513.66 Z" fill="#000000" fill-rule="nonzero" fill-opacity="1" /><polyline clip-path="url(#clip170)" style="stroke:#000000; stroke-linecap:round; stroke-linejoin:round; stroke-width:4; stroke-opacity:1; fill:none" points="140.51,1486.45 140.51,47.2441 "/>
<polyline clip-path="url(#clip170)" style="stroke:#000000; stroke-linecap:round; stroke-linejoin:round; stroke-width:4; stroke-opacity:1; fill:none" points="140.51,1180.23 159.408,1180.23 "/>
<polyline clip-path="url(#clip170)" style="stroke:#000000; stroke-linecap:round; stroke-linejoin:round; stroke-width:4; stroke-opacity:1; fill:none" points="140.51,872.483 159.408,872.483 "/>
<polyline clip-path="url(#clip170)" style="stroke:#000000; stroke-linecap:round; stroke-linejoin:round; stroke-width:4; stroke-opacity:1; fill:none" points="140.51,564.737 159.408,564.737 "/>
<polyline clip-path="url(#clip170)" style="stroke:#000000; stroke-linecap:round; stroke-linejoin:round; stroke-width:4; stroke-opacity:1; fill:none" points="140.51,256.991 159.408,256.991 "/>
<path clip-path="url(#clip170)" d="M92.566 1166.03 Q88.9549 1166.03 87.1262 1169.59 Q85.3206 1173.13 85.3206 1180.26 Q85.3206 1187.37 87.1262 1190.94 Q88.9549 1194.48 92.566 1194.48 Q96.2002 1194.48 98.0058 1190.94 Q99.8345 1187.37 99.8345 1180.26 Q99.8345 1173.13 98.0058 1169.59 Q96.2002 1166.03 92.566 1166.03 M92.566 1162.32 Q98.3761 1162.32 101.432 1166.93 Q104.51 1171.51 104.51 1180.26 Q104.51 1188.99 101.432 1193.6 Q98.3761 1198.18 92.566 1198.18 Q86.7558 1198.18 83.6771 1193.6 Q80.6216 1188.99 80.6216 1180.26 Q80.6216 1171.51 83.6771 1166.93 Q86.7558 1162.32 92.566 1162.32 Z" fill="#000000" fill-rule="nonzero" fill-opacity="1" /><path clip-path="url(#clip170)" d="M57.4273 885.828 L73.7466 885.828 L73.7466 889.763 L51.8023 889.763 L51.8023 885.828 Q54.4643 883.073 59.0476 878.444 Q63.6541 873.791 64.8346 872.448 Q67.08 869.925 67.9596 868.189 Q68.8624 866.43 68.8624 864.74 Q68.8624 861.985 66.918 860.249 Q64.9967 858.513 61.8948 858.513 Q59.6958 858.513 57.2421 859.277 Q54.8115 860.041 52.0338 861.592 L52.0338 856.87 Q54.8578 855.735 57.3115 855.157 Q59.7652 854.578 61.8023 854.578 Q67.1726 854.578 70.367 857.263 Q73.5614 859.948 73.5614 864.439 Q73.5614 866.569 72.7513 868.49 Q71.9642 870.388 69.8578 872.981 Q69.2791 873.652 66.1772 876.87 Q63.0754 880.064 57.4273 885.828 Z" fill="#000000" fill-rule="nonzero" fill-opacity="1" /><path clip-path="url(#clip170)" d="M83.6077 855.203 L101.964 855.203 L101.964 859.138 L87.8901 859.138 L87.8901 867.61 Q88.9086 867.263 89.9271 867.101 Q90.9456 866.916 91.9641 866.916 Q97.7511 866.916 101.131 870.087 Q104.51 873.258 104.51 878.675 Q104.51 884.254 101.038 887.356 Q97.566 890.434 91.2465 890.434 Q89.0706 890.434 86.8021 890.064 Q84.5568 889.694 82.1494 888.953 L82.1494 884.254 Q84.2327 885.388 86.4549 885.944 Q88.6771 886.499 91.1539 886.499 Q95.1586 886.499 97.4965 884.393 Q99.8345 882.286 99.8345 878.675 Q99.8345 875.064 97.4965 872.957 Q95.1586 870.851 91.1539 870.851 Q89.279 870.851 87.404 871.268 Q85.5521 871.684 83.6077 872.564 L83.6077 855.203 Z" fill="#000000" fill-rule="nonzero" fill-opacity="1" /><path clip-path="url(#clip170)" d="M52.4505 547.457 L70.8068 547.457 L70.8068 551.392 L56.7328 551.392 L56.7328 559.864 Q57.7513 559.517 58.7699 559.355 Q59.7884 559.17 60.8069 559.17 Q66.5939 559.17 69.9735 562.341 Q73.3531 565.512 73.3531 570.929 Q73.3531 576.507 69.8809 579.609 Q66.4087 582.688 60.0893 582.688 Q57.9134 582.688 55.6449 582.318 Q53.3995 581.947 50.9921 581.207 L50.9921 576.507 Q53.0754 577.642 55.2977 578.197 Q57.5199 578.753 59.9967 578.753 Q64.0013 578.753 66.3393 576.646 Q68.6772 574.54 68.6772 570.929 Q68.6772 567.318 66.3393 565.211 Q64.0013 563.105 59.9967 563.105 Q58.1217 563.105 56.2467 563.521 Q54.3949 563.938 52.4505 564.818 L52.4505 547.457 Z" fill="#000000" fill-rule="nonzero" fill-opacity="1" /><path clip-path="url(#clip170)" d="M92.566 550.535 Q88.9549 550.535 87.1262 554.1 Q85.3206 557.642 85.3206 564.771 Q85.3206 571.878 87.1262 575.443 Q88.9549 578.984 92.566 578.984 Q96.2002 578.984 98.0058 575.443 Q99.8345 571.878 99.8345 564.771 Q99.8345 557.642 98.0058 554.1 Q96.2002 550.535 92.566 550.535 M92.566 546.832 Q98.3761 546.832 101.432 551.438 Q104.51 556.021 104.51 564.771 Q104.51 573.498 101.432 578.105 Q98.3761 582.688 92.566 582.688 Q86.7558 582.688 83.6771 578.105 Q80.6216 573.498 80.6216 564.771 Q80.6216 556.021 83.6771 551.438 Q86.7558 546.832 92.566 546.832 Z" fill="#000000" fill-rule="nonzero" fill-opacity="1" /><path clip-path="url(#clip170)" d="M52.219 239.711 L74.4411 239.711 L74.4411 241.701 L61.8948 274.271 L57.0106 274.271 L68.8161 243.646 L52.219 243.646 L52.219 239.711 Z" fill="#000000" fill-rule="nonzero" fill-opacity="1" /><path clip-path="url(#clip170)" d="M83.6077 239.711 L101.964 239.711 L101.964 243.646 L87.8901 243.646 L87.8901 252.118 Q88.9086 251.771 89.9271 251.609 Q90.9456 251.423 91.9641 251.423 Q97.7511 251.423 101.131 254.595 Q104.51 257.766 104.51 263.183 Q104.51 268.761 101.038 271.863 Q97.566 274.942 91.2465 274.942 Q89.0706 274.942 86.8021 274.571 Q84.5568 274.201 82.1494 273.46 L82.1494 268.761 Q84.2327 269.896 86.4549 270.451 Q88.6771 271.007 91.1539 271.007 Q95.1586 271.007 97.4965 268.9 Q99.8345 266.794 99.8345 263.183 Q99.8345 259.572 97.4965 257.465 Q95.1586 255.359 91.1539 255.359 Q89.279 255.359 87.404 255.775 Q85.5521 256.192 83.6077 257.072 L83.6077 239.711 Z" fill="#000000" fill-rule="nonzero" fill-opacity="1" /><polyline clip-path="url(#clip172)" style="stroke:#0000ff; stroke-linecap:round; stroke-linejoin:round; stroke-width:4; stroke-opacity:1; fill:none" points="203.121,717.843 225.502,722.38 231.261,717.847 250.086,715.208 260.506,715.582 283.774,719.55 303.374,723.889 329.727,725.955 356.436,727.59 387.459,732.177 416.513,732.35 441.183,732.773 477.2,734.15 498.873,740.35 521.619,744.658 556.732,748.177 582.651,749.47 604.283,754.007 633.088,760.629 656.244,768.054 679.321,775.979 703.063,782.804 730.963,789.477 753.369,798.058 779.588,803.103 810.767,811.184 833.348,810.727 867.762,813.267 893.176,821.877 919.58,829.607 950.757,839.312 975.017,847.657 1000.77,854.423 1019.18,864.442 1036.53,876.982 1043.34,882.175 1065.12,884.505 1082.99,885.972 1105.58,887.366 1131.95,890.932 1158.61,901.74 1185.95,911.94 1207.61,916.904 1233,920.143 1265.88,921.799 1294.92,922.981 1327.87,927.419 1355.82,932.675 1381.54,936.16 1406.51,938.286 1438.78,937.714 1463,937.556 1489.94,936.974 1517.07,934.293 1546.68,928.604 1574.74,929.86 1602.08,928.238 1628.24,928.769 1648.69,921.659 1666.58,918.14 1683.09,911.345 1701.09,904.953 1722.75,905.124 1745.89,903.822 1768.27,905.997 1787.95,909.465 1809.77,916.326 1829.48,928.279 1850.93,940.917 1866.15,951.765 1881.81,968.445 1891.67,982.416 1899.19,996.717 1909.07,1015.83 1921.32,1033.49 1934.05,1052.29 1944.63,1062.56 1963.51,1068.69 1978.32,1070.94 1987.95,1069.7 2010.53,1062.39 2027.23,1056.22 2047.7,1036.08 2058.9,1021.54 2061.99,1001.02 2063.1,982.428 2061.31,961.261 2048.5,946.01 2029.77,939.514 2005.53,930.991 1977.9,933.443 1952.38,932.866 1932.19,929.79 1913.97,926.729 1892.25,924.187 1872.53,930.348 1850.45,936.822 1833.68,944.599 1810.36,946.782 1785.36,945.529 1758.02,940.428 1735.56,930.163 1712.73,919.385 1681.83,903.301 1656.4,885.613 1633.81,867.735 1618.88,853.154 1607.52,840.57 1591.14,827.21 1576.78,810.892 1565.24,795.355 1557.45,778.557 1557.26,763.208 1571.33,748.71 1584.11,736.423 1607.66,729.435 1626.92,730.123 1653.67,731.564 1673.66,745.948 1694.07,751.979 1707.83,756.262 1730.78,762.308 1753.23,773.241 1764.92,782.532 1782.03,793.322 1800.52,804.003 1823.07,811.249 1843.97,811.915 1865.66,811.978 1889.55,804.722 1909.84,800.792 1925.82,800.693 1944.68,808.889 1961.06,821.566 1975.78,838.242 1985.03,854.641 1993.61,874.239 2001.25,895.527 2004.97,914.271 2004.46,935.045 2004.76,945.375 2008.09,958.871 2019.6,977.952 2027.48,995.417 2039.57,1009.92 2050.86,1016.25 2064.31,1019.08 2083.73,1013.18 2102.05,1005.55 2114.63,997.432 2130.71,985.482 2139.75,976.847 2143.03,957.918 2134.06,941.255 2117.69,922.771 2103.04,906.433 2079.74,895.415 2048.42,891.666 2020.34,887.526 2003.47,885.588 1979.6,884.014 1959.75,881.67 1941.82,870.711 1927.04,863.708 1904.25,857.414 1888.04,857.104 1865.56,859.935 1845.28,854.253 1824.51,848.774 1804.71,847.583 1779.99,844.311 1762.37,839.749 1745.57,835.458 1723.23,833.981 1695.35,835.522 1668.7,841.598 1653.08,840.036 1649.06,832.097 1644.45,829.694 1637.54,828.254 1626.33,827.367 1617.77,826.425 1603.34,830.934 1588.93,837.969 1562.16,841.875 1540.74,844.917 1526.74,850.744 1517.86,859.763 1526.8,860.63 1543.86,859.138 1578.84,854.014 1595.71,834.788 1610.49,819.547 1615.47,804.146 1607.54,788.139 1592.51,770.556 1580.52,759.982 1570.33,738.792 1550.64,728.578 1529.75,740.163 1507.21,741.097 1478.27,734.987 1475.3,716.621 1470.68,697.342 1472.53,676.387 1476.68,660.348 1492.22,639.263 1499.57,619.705 1503.36,595.826 1485.23,583.285 1462.53,575.265 1452.73,574.09 1463.4,560.161 1484.95,549.944 1519.69,549.262 1560.41,534.627 1586.26,516.794 1603.78,493.661 1617.41,472.065 1639.02,463.547 1665.68,466.817 1689.43,472.205 1708.53,489.605 1735.91,502.425 1756.57,519.208 1765.24,541.068 1754.3,557.556 1735.77,573.147 1709.21,586.181 1674.55,591.884 1649.17,591.889 1614.47,576.534 1589.04,561.23 1579.39,539.272 1579.13,517.978 1597.28,503.146 1612.43,492.439 1635.69,478.53 1659.66,470.094 1681.75,453.728 1704.77,442.114 1724.81,441.177 1748.9,427.096 1751.45,411.536 1762.87,394.935 1775.88,390.126 1791.9,373.058 1784.67,359.128 1762.38,348.797 1758.68,346.229 1771.21,342.275 1796.93,336.445 1824.17,340.626 1849.58,343.236 1877.4,348.484 1901.06,366.716 1904.61,385.367 1900.56,397.904 1878.53,408.305 1864.16,431.069 1848.34,457.88 1838.71,490.021 1839.91,511.297 1803.39,513.144 1780.61,530.107 1747.53,536.111 1717.17,552.902 1700.57,578.904 1680.65,596.608 1652.61,589.71 1630.21,577.828 1601.82,570.101 1588.56,556.779 1562.97,541.392 1553.86,532.978 1562.19,510.758 1587.35,502.636 1621.47,498.104 1651.39,501.654 1686.45,508.689 1714.68,523.118 1721.32,545.113 1737.19,565.343 1753.91,570.256 1780.3,574.824 1803.35,585.246 1813.04,588.343 1839.18,580.561 1863.7,572.164 1882.82,562.736 1903.93,565.365 1922.67,580.713 1921.19,599.234 1922.06,620.391 1907.92,652.074 1887.42,677.928 1862.53,697.011 1839.95,726.773 1838.61,751.64 1802.9,763.347 1774.92,768.083 1747.11,783.333 1720.94,797.517 1703.67,816.01 1687.13,837.607 1661.07,861.12 1633.7,868.921 1607,859.887 1582.24,854.273 1550.14,850.881 1521.67,841.983 1502.26,820.582 1488.33,799.632 1457.78,777.006 1439.84,758.079 1414.57,740.859 1390.06,738.785 1359.44,744.593 1340.71,741.483 1315.24,733.657 1311.61,706.729 1293.13,699.578 1269.02,704.089 1250.91,712.561 1225.77,730.216 1219.57,737.505 1188.73,740.087 1165.24,744.754 1139.73,737.452 1118.47,720.205 1095.66,707.48 1061.1,701.748 1028.13,692.371 1005.3,688.247 985.165,677.906 966.166,657.234 964.913,643.383 975.369,623.293 990.861,602.982 1002.64,580.98 1008.49,549.763 1015.44,524.598 1000.17,504.964 980.273,501.083 970.436,489.22 975.463,475.702 1001.83,475.176 1038.36,479.542 1079.44,476.322 1113.06,473.032 1140.53,454.044 1166.16,429.05 1190.87,409.618 1221.93,403.355 1260.49,406.199 1292.67,418.502 1323.6,433.825 1353.8,447.17 1381.2,458.579 1403.5,472.913 1440.33,480.537 1466,495.187 1492.71,516.974 1521.04,543.975 1549.61,558.8 1573.68,571.287 1592.83,581.272 1602.92,570.369 1624,562.323 1651.05,547.93 1674.33,538.717 1704.13,526.951 1737.04,526.343 1773.39,536.338 1800.77,561.191 1806.84,582.913 1803.76,614.255 1785.48,647.062 1783.36,673.886 1774.38,705.809 1775.81,740.187 1791.45,771.213 1824.08,795.813 1863.69,793.382 1885.3,795.584 1916.03,802.482 1935.43,824.789 1960.89,850.936 1982.3,883.243 1994.35,915.866 1999.14,937.646 2014.48,917.693 2050.05,925.359 2078.43,931.281 2091.36,947.023 2093.18,951.947 2093.56,956.587 2097.91,971.987 2101.73,978.441 2115.14,982.17 2132.85,983.778 2161.13,977.261 2189.59,987.542 2202.4,1001.08 2216.42,1023.88 2216.66,1037.09 2219.74,1021.94 2224.96,1003.28 2222.67,975.662 2212.05,949.425 2195.81,925.35 2185.4,903.701 2187.01,883.583 2158.77,861.905 2152.4,830.718 2157.62,805.411 2176.11,795.116 2196.78,798.222 2221.24,806.219 2238.32,818.799 2249.6,839.091 2274.95,861.361 2289.67,882.702 2279.91,909.918 2260.01,932.102 2242.08,952.51 2211.12,964.527 2192.74,983.545 2165.56,996.279 2138.13,1018.83 2119.29,1040.3 2109.46,1064.28 2089.45,1087.48 2071.03,1109.7 2045.34,1126.67 2019.02,1138.32 1987.73,1154.35 1962.56,1172.25 1934.09,1180.62 1904.36,1200.01 1888.62,1217.7 1855.95,1229.72 1837.19,1243.73 1819,1262.95 1801.28,1291.38 1794.22,1312.74 1788.06,1332.34 1782.22,1357.03 1805.55,1377.46 1813.97,1393.1 1806.13,1416.79 1799.73,1442.74 1778.85,1445.53 1755.44,1442.71 1733.66,1425 1721.4,1398.04 1707.08,1376.5 1683.22,1353.82 1644.89,1327.41 1613.13,1320.3 1577.87,1320.32 1540.85,1327.35 1499.84,1337.36 1473.24,1337 1437.99,1326.08 1413.34,1314.28 1392.32,1290.36 1390.23,1256.74 1385.86,1215.13 1365.02,1189.01 1343.11,1167.67 1348.88,1136.44 1346.47,1108.31 1337.52,1084.37 1325.54,1055.77 1306.59,1031.4 1301.29,1005.06 1308.1,972.097 1317.45,938.537 1336.01,909.247 1352.24,878.078 1365.1,845.307 1393.23,824.323 1387.03,796.511 1371.96,771.848 1341.99,749.489 1308.43,746.95 1288.17,733.591 1280.46,707.447 1276.24,675.511 1289.23,647.963 1304.02,626.469 1325.73,617.173 1357.61,605.605 1394.62,599.891 1435.04,595.648 1473.73,596.247 1503,589.168 1525.54,562.227 1543.7,540.82 1572.46,529.357 1594.31,522.356 1598.03,506.501 1582.45,493.52 1560.95,478.353 1535.42,466.004 1506.47,439.227 1483.43,413.872 1470.11,387.072 1452.73,366.713 1451.16,348.724 1457.88,327.709 1475.36,318.477 1492.56,328.818 1523.83,333.475 1565.74,336.115 1599.65,344.473 1639.2,350.596 1672.79,353.123 1703.35,369.021 1728.58,373.964 1753.45,366.949 1776.89,356.171 1808.85,351.385 1841.82,351.209 1874.07,346.135 1896.15,361.446 1907.61,378.076 1912.95,370.447 1922.43,354.028 1941.16,337.33 1958.95,326.537 1983.06,311.805 2003.48,303.338 1990.3,304.208 1966.92,291.828 1958.58,274.519 1946.48,244.633 1951.38,215.529 1962.54,199.969 1991.58,190.416 2025.62,193.357 2050.48,198.34 2084.18,202.956 2120.59,214.582 2143.58,237.821 2147.82,266.942 2141.53,293.806 2128.26,301.267 2133.62,317.497 2137.54,340.279 2132.01,372.807 2102.01,389.368 2082.69,425.148 2055.62,446.983 2033.6,473.004 2026.34,507.891 1999.94,514.495 1964.73,515.535 1929.09,529.101 1896.92,541.808 1881.59,569.333 1870.38,601.223 1869.34,617.211 1896.54,622.382 1925.63,634.467 1963,648.71 1998.68,673.738 2026.01,689.8 2064.54,693.135 2100.06,694.487 2139.21,690.137 2169.11,694.68 2194.92,693.649 2204.69,678.604 2218.28,659.401 2235.24,639.107 2232.33,613.849 2229.25,594.371 2219.39,570.381 2191.23,549.085 2170.85,530.649 2146.13,515.66 2103.9,516.889 2078.2,524.94 2054.78,542.807 2037.37,561.933 2011.49,587.073 2008.19,617.419 2012.71,648.948 2015.62,678.178 2033.7,704.969 2046.65,729.594 2059.63,763.326 2075.1,794.355 2106.57,805.662 2136.57,823.659 2163.84,852.159 2183.86,875.733 2198.46,907.315 2205.41,931.633 2201.34,943.544 2169.28,943.368 2132.84,957.895 2105.25,955.702 2089.35,963.307 2069,967.752 2046.96,962.877 2015.18,948.48 1984.66,940.242 1947.4,943.396 1902.84,956.856 1864.98,970.826 1825.77,971.056 1782.11,979.392 1745,979.636 1706.3,980.33 1675.07,975.148 1640.29,979.588 1607.99,973.943 1574.68,967.028 1538.2,935.461 1510.71,920.003 1473.25,912.972 1439.33,897.477 1409.4,881.838 1377.95,860.858 1352.18,853.936 1326.07,867.373 1300.57,883.718 1271.59,899.34 1233.03,917.252 1194.05,925.039 1165.57,920.387 1137.74,897.447 1119.77,872.808 1101.51,842.475 1075.06,816.966 1063.65,785.868 1061.48,757.83 1063.64,734.823 1049.31,706.569 1026.36,688.63 997.514,676.531 978.686,654.749 969.858,623.265 967.324,599.836 955.593,572.781 964.915,545.998 986.384,518.606 997.658,502.137 1011.19,495.173 1021.09,481.592 1025.86,464.66 1031.97,441.194 1038.18,417 1044.46,388.358 1057.28,355.236 1057.04,331.819 1034.88,312.947 1014.89,299.302 987.086,299.601 959.518,308.37 931.324,303.806 899.504,289.026 861.331,274.631 838.08,269.128 816.734,265.482 801.673,247.256 801,225.957 816.445,207.535 838.55,187.987 862.42,170.411 906.705,160.844 937.296,147.842 970.557,141.657 1000.04,153.512 1028.34,159.788 1061.95,155.199 1096.3,149.936 1116.16,128.795 1131.73,109.263 1145.51,88.6687 "/>
<polyline clip-path="url(#clip172)" style="stroke:#ff0000; stroke-linecap:round; stroke-linejoin:round; stroke-width:4; stroke-opacity:1; fill:none" points="203.193,717.49 234.158,723.891 236.819,714.991 258.355,716.296 261.797,716.997 289.32,722.697 306.516,726.254 335.818,726.008 360.795,728.027 391.775,734.428 418.531,730.513 440.067,731.806 483.151,734.416 495.156,743.205 520.148,745.211 563.247,747.821 581.355,748.412 601.154,755.662 635.619,762.778 655.433,770.028 678.704,777.993 702.843,782.978 733.88,789.391 752.841,799.621 781.318,802.354 814.974,812.472 831.375,806.391 873.678,811.98 891.8,825.201 919.425,830.913 953.123,841.031 972.995,848.294 1000.65,854.006 1015.34,866.525 1033.52,879.758 1036.98,880.472 1069.82,880.94 1083.65,883.808 1108.73,885.827 1136.41,891.551 1161.53,906.237 1188.38,914.94 1206.54,915.543 1235.09,918.288 1271.44,919.47 1296.53,921.501 1331.17,928.665 1355.44,933.688 1380.53,935.706 1405.64,937.737 1442.84,935.953 1461.02,936.543 1490.43,936.31 1517.23,932.358 1548.33,926.154 1576.07,931.878 1602.85,927.939 1627.98,929.97 1646.03,917.906 1664.21,918.497 1681.4,909.425 1701.25,904.045 1725.53,909.068 1748.83,904.402 1769.65,908.699 1787,912.281 1810.47,920.282 1828.82,933.54 1851.47,944.532 1863.72,953.383 1880.44,972.636 1888.39,983.764 1895.53,997.883 1907.96,1019.44 1922.06,1035.01 1935.34,1053.59 1944.96,1058.74 1969.31,1063.79 1979.76,1065.94 1987.55,1064.38 2016.02,1054.43 2027.27,1053.59 2049.37,1026.5 2055.31,1018.23 2054.07,995.84 2058.15,980.883 2056.92,958.516 2037.7,948.238 2020.31,944.643 1997.63,933.651 1970.02,940.581 1949.18,936.285 1932.64,929.711 1915.28,926.129 1890.14,924.098 1872.14,936.174 1848.82,940.827 1835.94,947.647 1807.33,944.889 1782.19,942.871 1754.43,937.134 1736.09,923.877 1712.63,915.875 1676.96,899.035 1656.02,882.097 1635.09,865.159 1623.72,853.366 1612.37,841.561 1590.62,827.626 1577.49,809.173 1566.97,794.426 1560.77,777.414 1564.95,762.556 1583.79,747.575 1594.05,737.112 1617.3,732.483 1631.13,735.327 1660.47,735.093 1674.45,750.529 1695.21,754.813 1705.6,756.943 1733.29,762.654 1755.05,776.552 1760.33,783.926 1782.92,794.869 1802.05,805.111 1826.31,810.109 1845.28,807.721 1866.9,809.026 1891.81,798.427 1909.96,799.03 1923.83,801.886 1945.64,815.808 1960.52,828.315 1974.59,843.801 1981.72,857.859 1990.71,878.613 1999.69,899.38 2002.54,915.74 2000.28,937.356 2002.94,941.061 2009.28,958.16 2025.23,980.403 2028.09,996.8 2043.02,1009.37 2053.46,1011.54 2067.37,1014.4 2088.04,1006.02 2104.4,999.915 2113.8,992.369 2131.79,980.28 2136.9,975.024 2136.43,949.666 2121.49,937.11 2103.89,920.861 2093.26,906.064 2069.76,898.063 2041.15,895.318 2016.84,890.308 2006.43,888.153 1977.83,885.421 1960.48,881.838 1942.93,865.614 1929.05,862.758 1901.3,857.034 1889.25,860.85 1862.49,864.789 1844.15,851.556 1823.34,847.272 1804.35,849.648 1776.63,843.936 1763.58,838.102 1746.25,834.519 1720.34,835.48 1690.12,838.705 1666,846.325 1657.28,838.225 1657.13,825.595 1649.38,827.146 1638.16,827.983 1623.46,828.106 1616.54,826.678 1599.34,835.726 1586.45,842.521 1553.61,842.053 1538.07,845.143 1528.63,852.652 1521.82,863.866 1537.35,860.764 1556.34,858.376 1587.41,852.172 1596.71,832.033 1611.27,819.292 1615.44,804.409 1605.76,786.683 1589.17,767.541 1580.45,759.454 1569,735.105 1549.08,727.855 1526.78,742.122 1505.2,740.817 1474.08,734.403 1475.65,715.877 1470.32,695.947 1472.73,674.479 1476.91,659.658 1494.8,635.137 1499.82,617.374 1503.06,593 1484.04,582.832 1460.73,574.917 1453.83,573.501 1465.75,557.191 1490.62,546.666 1530.22,548.549 1567.91,531.303 1586.7,516.421 1604.52,491.998 1617.22,472.782 1637.75,464.522 1666.16,467.23 1690.28,472.167 1710.28,491.85 1739.66,504.111 1757.07,520.163 1765.92,540.708 1754.08,557.006 1734.5,574.855 1705.37,587.633 1670.99,593.086 1649.44,591.794 1610.5,574.412 1588.85,560.588 1580.05,540.031 1578.98,517.959 1597.75,503.089 1611.4,493.413 1637.88,477.017 1661.88,469.471 1684.9,452.372 1706.25,441.183 1724.3,441.761 1750.74,425.389 1750.59,412.919 1763.23,393.741 1775.21,389.974 1795.56,369.281 1784.25,357.648 1758.34,346.138 1774.59,340.156 1805.39,334.038 1832.11,342.593 1853.58,343.886 1881.12,349.511 1904.59,369.835 1903.96,385.235 1900.69,396.99 1875.12,410.408 1860.86,435.483 1845.77,463.525 1836.75,495.949 1840.38,509.17 1799.13,513.183 1779.58,531.02 1745.23,536.461 1714.46,555.123 1700.12,580.309 1681.34,595.216 1653.72,589.541 1631.22,578.671 1600.99,569.328 1589.68,557.634 1558.53,538.738 1555.91,535.082 1563.4,508.518 1590.85,501.673 1628.64,496.946 1652.77,501.895 1690.7,509.675 1715.82,524.188 1721.22,544.019 1736.97,565.992 1750.78,568.824 1781.86,575.2 1804.38,586.082 1811.29,587.498 1843.04,578.388 1867.05,570.818 1884.13,561.832 1904.85,566.079 1925.77,582.857 1920.86,600.608 1922.05,622.741 1904.49,659.83 1884.1,680.696 1861.05,697.905 1837.34,730.673 1839.32,749.914 1798.93,763.59 1775.67,768.231 1745.65,784.049 1719.89,797.614 1703.69,816.313 1686.65,837.991 1657.55,863.497 1634.25,868.15 1607.37,859.447 1583.11,854.437 1547.62,850.276 1520.76,841.573 1501.54,818.714 1488.44,800.261 1451.95,773.856 1441.48,759.122 1413.74,740.829 1392.14,739.524 1357.68,744.99 1343.85,742.134 1313.6,732.766 1310.85,703.912 1293.58,700.354 1266.87,704.281 1249.67,713.304 1222.16,732.778 1221.31,735.745 1183.37,740.497 1163.54,745.852 1136.77,737.173 1116.89,717.354 1094.43,706.435 1055.62,701.585 1025.44,692.218 1008.2,688.66 985.78,677.753 963.348,654.303 965.937,645.415 976.249,622.445 993.446,600.903 1003.74,577.97 1009.72,544.77 1015.7,524.114 999.347,505.12 982.15,501.587 970.97,489.917 975.251,475.183 1007.91,475.638 1046.58,480.464 1087.82,476.45 1114.44,472.548 1141.88,453.222 1167.55,427.322 1190.66,410.248 1221.54,404.13 1264.48,406.703 1293.74,418.927 1325.6,434.806 1354.89,447.042 1380.75,458.577 1402.33,472.364 1443.65,480.833 1465.24,494.632 1494.69,519.4 1526.76,547.848 1549.24,558.705 1571.73,569.574 1590.76,579.742 1600.16,572.283 1625.01,561.758 1654.98,546.038 1675.53,537.766 1708.09,525.715 1740.79,526.182 1777.93,536.916 1803.24,563.974 1806.03,580.161 1803.06,617.078 1782.82,650.487 1783.96,672.645 1774.05,708.245 1775.35,743.033 1792.98,771.801 1826.15,797.491 1864.08,792.727 1877.95,795.583 1916.08,803.425 1935.43,826.284 1964.38,854.289 1984.78,886.849 1994.77,917.291 1997.63,933.651 2012.14,920.873 2054.65,926.486 2078.97,931.496 2089.62,946.317 2092.28,950.023 2094.13,956.719 2099.67,976.809 2102.33,980.526 2119.73,984.109 2137.92,984.712 2169.83,975.492 2195.23,990.214 2203.24,1001.35 2218.45,1026.63 2216.01,1035.61 2220.07,1020.63 2225.74,999.668 2222.57,970.592 2210.86,946.071 2194.85,923.852 2185.81,903.073 2187.2,884.448 2153.85,858.684 2151.55,826.74 2157.22,805.899 2174.34,796.851 2195.96,798.168 2222.92,806.847 2237.86,819.354 2250.37,840.797 2280.28,865.836 2290.15,883.611 2278.62,912.736 2258.25,933.761 2242.16,952.534 2209.47,964.733 2193.36,983.518 2164.14,996.443 2135.13,1022.07 2118.99,1040.88 2108.98,1064.15 2087.71,1088.26 2070.71,1110.11 2044.09,1126.82 2019.08,1137.51 1984.63,1155.78 1961.45,1173.22 1933.75,1180.2 1901.92,1202.23 1890.81,1215.84 1853.64,1230.42 1839.03,1243.32 1818.44,1264.54 1798.83,1295.55 1794.68,1310.64 1788.85,1331.79 1781.36,1358.99 1808.63,1380.66 1813.13,1391.2 1805.64,1418.44 1798.13,1445.72 1779.82,1445.1 1754.5,1443.04 1730.71,1422.07 1719.93,1394.2 1706.64,1375.44 1680.23,1350.76 1636.41,1322.46 1614.63,1321.13 1578.06,1319.92 1538.97,1327.76 1495.54,1337.92 1477.26,1337.3 1436.26,1325.58 1413.55,1314.46 1391.62,1287.53 1390.51,1252.19 1384.13,1209.42 1364.01,1189.31 1343.91,1169.21 1349.78,1135.43 1346.15,1109.25 1338.2,1085.37 1324.99,1054.07 1305.8,1031.06 1302.19,1004.95 1308.91,968.34 1318.24,935.472 1337.1,907.775 1353.34,876.397 1366.1,844.33 1393.6,824.795 1386.52,798.131 1371.66,773.032 1338.7,747.366 1309.37,747.612 1291.18,734.428 1280.68,707.125 1276.18,671.66 1290.7,646.425 1303.5,627.123 1324.13,618.826 1361.08,604.498 1398.93,599.758 1440.23,595.733 1476.41,596.915 1500.44,589.332 1526.88,560.367 1543.06,541.816 1572.19,529.063 1591.93,523.745 1596.09,508.985 1582.17,493.66 1557.93,476.217 1532.04,464.67 1500.83,433.341 1481.74,410.753 1470.39,386.65 1453.93,367.73 1451.23,351.641 1457.89,328.154 1474.97,319.241 1493.93,329.323 1529.14,333.422 1572.05,335.983 1602.17,345.252 1644.28,350.755 1672.62,353.45 1704.56,369.306 1725.21,373.528 1752.6,366.708 1777.36,356.245 1811.63,350.828 1844.24,351.284 1875.05,345.166 1895.89,361.846 1906.4,376.408 1911.48,371.238 1924.07,352.084 1943.54,334.346 1960.58,325.421 1986.92,309.098 2003.11,303.103 1991.98,303.928 1963.44,288.811 1957.18,272.058 1944.67,238.563 1951.99,212.22 1962.1,201.929 1994.47,189.988 2029.64,194.063 2050.26,198.273 2088.89,203.049 2125.11,216.602 2144.36,239.067 2147.45,267.54 2140.21,293.908 2131.72,298.376 2133.77,317.383 2137.66,342.975 2131.43,378.932 2099,390.934 2080.79,430.719 2054.43,447.092 2032.5,473.73 2026.21,509.835 2003.87,511.484 1962.63,515.51 1925.85,529.801 1896.77,542.567 1881.68,570.695 1869.2,602.516 1870.2,612.093 1897.03,620.734 1929.15,636.712 1969.03,651.164 2002.2,676.769 2024.81,687.675 2067.17,693.239 2099.96,693.707 2141.31,689.669 2165.55,694.655 2191.42,693.695 2202.38,680.289 2219.23,658.71 2236.05,637.131 2232.12,611.317 2229.21,595.105 2218.35,567.9 2187.81,546.038 2170.29,529.986 2145.07,515.46 2096.92,518.07 2080.66,524.102 2053.45,543.478 2037.41,562.029 2007.71,590.292 2007.31,618.346 2012.99,650.795 2016.04,679.612 2034.59,705.352 2046.2,729.689 2061.5,767.369 2075.81,795.436 2106.21,804.84 2137.66,823.884 2165.89,854.868 2182.67,874.071 2198.9,908.92 2204.47,928.985 2202.04,937.947 2167.5,943.449 2126.24,960.191 2105.37,955.882 2092.5,962.702 2069.18,967.367 2044.85,962.345 2009.07,945.48 1981.28,939.744 1943.25,944.532 1894.98,959.834 1862.25,972.033 1825.84,970.839 1779.2,980.17 1746.28,979.689 1705.58,980.773 1677.8,975.036 1639.75,979.813 1608.51,973.362 1573.8,966.186 1532.78,929.256 1512.81,921.969 1471.21,913.376 1439.09,897.263 1410.44,881.875 1376.57,859.102 1355.78,854.818 1326.48,867.694 1299.78,884.263 1269.6,900.143 1227.33,919.839 1192.74,925.329 1168.5,920.319 1135.56,894.542 1119.92,872.36 1099.96,839.825 1073.99,815.538 1064.43,785.194 1060.92,759.282 1063.46,737.776 1047.87,703.124 1026.29,689.251 996.975,676.929 977.999,654.18 969.365,621.03 967.615,601.863 954.7,571.002 965.865,545.127 989.049,515.497 995.919,504.406 1008.79,497.685 1020.81,481.411 1025.93,463.734 1033.62,437.244 1040.45,413.707 1045.54,383.597 1059.19,349.068 1056.59,332.979 1033.41,312.693 1015.39,299.681 986.243,299.927 957.968,309.664 930.547,304.051 895.416,287.531 856.019,273.252 842.323,270.445 818.343,265.534 802.102,246.687 801.292,224.813 817.577,206.446 841.556,186.566 864.668,169.628 915.129,158.278 936.505,147.187 970.696,141.795 999.78,153.932 1027.16,159.521 1064.78,154.831 1098.97,149.452 1116,128.205 1132.19,109.888 1145.78,87.9763 "/>
<path clip-path="url(#clip170)" d="M214.252 1438.47 L760.776 1438.47 L760.776 1282.95 L214.252 1282.95  Z" fill="#ffffff" fill-rule="evenodd" fill-opacity="1"/>
<polyline clip-path="url(#clip170)" style="stroke:#000000; stroke-linecap:round; stroke-linejoin:round; stroke-width:4; stroke-opacity:1; fill:none" points="214.252,1438.47 760.776,1438.47 760.776,1282.95 214.252,1282.95 214.252,1438.47 "/>
<polyline clip-path="url(#clip170)" style="stroke:#0000ff; stroke-linecap:round; stroke-linejoin:round; stroke-width:4; stroke-opacity:1; fill:none" points="238.832,1334.79 386.315,1334.79 "/>
<path clip-path="url(#clip170)" d="M434.924 1338.05 L434.924 1340.13 L415.34 1340.13 Q415.618 1344.53 417.979 1346.84 Q420.363 1349.13 424.6 1349.13 Q427.053 1349.13 429.345 1348.53 Q431.66 1347.93 433.928 1346.73 L433.928 1350.75 Q431.637 1351.73 429.229 1352.24 Q426.822 1352.75 424.345 1352.75 Q418.141 1352.75 414.507 1349.13 Q410.896 1345.52 410.896 1339.37 Q410.896 1333 414.322 1329.27 Q417.771 1325.52 423.604 1325.52 Q428.836 1325.52 431.868 1328.9 Q434.924 1332.26 434.924 1338.05 M430.664 1336.8 Q430.618 1333.3 428.697 1331.22 Q426.799 1329.13 423.65 1329.13 Q420.086 1329.13 417.933 1331.15 Q415.803 1333.16 415.479 1336.82 L430.664 1336.8 Z" fill="#000000" fill-rule="nonzero" fill-opacity="1" /><path clip-path="url(#clip170)" d="M458.442 1326.91 L458.442 1330.94 Q456.636 1330.01 454.692 1329.55 Q452.748 1329.09 450.664 1329.09 Q447.493 1329.09 445.896 1330.06 Q444.322 1331.03 444.322 1332.98 Q444.322 1334.46 445.456 1335.32 Q446.59 1336.15 450.016 1336.91 L451.474 1337.24 Q456.011 1338.21 457.91 1339.99 Q459.831 1341.75 459.831 1344.92 Q459.831 1348.53 456.96 1350.64 Q454.113 1352.75 449.113 1352.75 Q447.03 1352.75 444.761 1352.33 Q442.516 1351.94 440.016 1351.13 L440.016 1346.73 Q442.377 1347.95 444.669 1348.58 Q446.961 1349.18 449.206 1349.18 Q452.215 1349.18 453.836 1348.16 Q455.456 1347.12 455.456 1345.25 Q455.456 1343.51 454.275 1342.58 Q453.118 1341.66 449.16 1340.8 L447.678 1340.45 Q443.72 1339.62 441.961 1337.91 Q440.201 1336.17 440.201 1333.16 Q440.201 1329.51 442.794 1327.51 Q445.386 1325.52 450.155 1325.52 Q452.516 1325.52 454.599 1325.87 Q456.683 1326.22 458.442 1326.91 Z" fill="#000000" fill-rule="nonzero" fill-opacity="1" /><path clip-path="url(#clip170)" d="M470.826 1318.79 L470.826 1326.15 L479.599 1326.15 L479.599 1329.46 L470.826 1329.46 L470.826 1343.53 Q470.826 1346.7 471.683 1347.61 Q472.562 1348.51 475.224 1348.51 L479.599 1348.51 L479.599 1352.07 L475.224 1352.07 Q470.294 1352.07 468.419 1350.25 Q466.544 1348.39 466.544 1343.53 L466.544 1329.46 L463.419 1329.46 L463.419 1326.15 L466.544 1326.15 L466.544 1318.79 L470.826 1318.79 Z" fill="#000000" fill-rule="nonzero" fill-opacity="1" /><path clip-path="url(#clip170)" d="M485.201 1326.15 L489.46 1326.15 L489.46 1352.07 L485.201 1352.07 L485.201 1326.15 M485.201 1316.06 L489.46 1316.06 L489.46 1321.45 L485.201 1321.45 L485.201 1316.06 Z" fill="#000000" fill-rule="nonzero" fill-opacity="1" /><path clip-path="url(#clip170)" d="M518.557 1331.13 Q520.155 1328.26 522.377 1326.89 Q524.599 1325.52 527.608 1325.52 Q531.659 1325.52 533.858 1328.37 Q536.057 1331.19 536.057 1336.43 L536.057 1352.07 L531.775 1352.07 L531.775 1336.57 Q531.775 1332.84 530.455 1331.03 Q529.136 1329.23 526.428 1329.23 Q523.118 1329.23 521.196 1331.43 Q519.275 1333.63 519.275 1337.42 L519.275 1352.07 L514.993 1352.07 L514.993 1336.57 Q514.993 1332.82 513.673 1331.03 Q512.354 1329.23 509.599 1329.23 Q506.335 1329.23 504.414 1331.45 Q502.493 1333.65 502.493 1337.42 L502.493 1352.07 L498.21 1352.07 L498.21 1326.15 L502.493 1326.15 L502.493 1330.18 Q503.951 1327.79 505.988 1326.66 Q508.025 1325.52 510.826 1325.52 Q513.65 1325.52 515.618 1326.96 Q517.608 1328.39 518.557 1331.13 Z" fill="#000000" fill-rule="nonzero" fill-opacity="1" /><path clip-path="url(#clip170)" d="M556.335 1339.04 Q551.173 1339.04 549.182 1340.22 Q547.191 1341.4 547.191 1344.25 Q547.191 1346.52 548.673 1347.86 Q550.178 1349.18 552.747 1349.18 Q556.289 1349.18 558.418 1346.68 Q560.571 1344.16 560.571 1339.99 L560.571 1339.04 L556.335 1339.04 M564.83 1337.28 L564.83 1352.07 L560.571 1352.07 L560.571 1348.14 Q559.113 1350.5 556.937 1351.63 Q554.761 1352.75 551.613 1352.75 Q547.631 1352.75 545.27 1350.52 Q542.932 1348.28 542.932 1344.53 Q542.932 1340.15 545.849 1337.93 Q548.789 1335.71 554.599 1335.71 L560.571 1335.71 L560.571 1335.29 Q560.571 1332.35 558.627 1330.76 Q556.705 1329.13 553.21 1329.13 Q550.988 1329.13 548.881 1329.67 Q546.775 1330.2 544.83 1331.26 L544.83 1327.33 Q547.168 1326.43 549.367 1325.99 Q551.566 1325.52 553.65 1325.52 Q559.275 1325.52 562.053 1328.44 Q564.83 1331.36 564.83 1337.28 Z" fill="#000000" fill-rule="nonzero" fill-opacity="1" /><path clip-path="url(#clip170)" d="M577.816 1318.79 L577.816 1326.15 L586.589 1326.15 L586.589 1329.46 L577.816 1329.46 L577.816 1343.53 Q577.816 1346.7 578.673 1347.61 Q579.552 1348.51 582.214 1348.51 L586.589 1348.51 L586.589 1352.07 L582.214 1352.07 Q577.284 1352.07 575.409 1350.25 Q573.534 1348.39 573.534 1343.53 L573.534 1329.46 L570.409 1329.46 L570.409 1326.15 L573.534 1326.15 L573.534 1318.79 L577.816 1318.79 Z" fill="#000000" fill-rule="nonzero" fill-opacity="1" /><path clip-path="url(#clip170)" d="M614.367 1338.05 L614.367 1340.13 L594.784 1340.13 Q595.062 1344.53 597.423 1346.84 Q599.807 1349.13 604.043 1349.13 Q606.497 1349.13 608.788 1348.53 Q611.103 1347.93 613.372 1346.73 L613.372 1350.75 Q611.08 1351.73 608.673 1352.24 Q606.265 1352.75 603.788 1352.75 Q597.585 1352.75 593.95 1349.13 Q590.339 1345.52 590.339 1339.37 Q590.339 1333 593.765 1329.27 Q597.214 1325.52 603.048 1325.52 Q608.279 1325.52 611.312 1328.9 Q614.367 1332.26 614.367 1338.05 M610.108 1336.8 Q610.062 1333.3 608.14 1331.22 Q606.242 1329.13 603.094 1329.13 Q599.529 1329.13 597.376 1331.15 Q595.247 1333.16 594.923 1336.82 L610.108 1336.8 Z" fill="#000000" fill-rule="nonzero" fill-opacity="1" /><polyline clip-path="url(#clip170)" style="stroke:#ff0000; stroke-linecap:round; stroke-linejoin:round; stroke-width:4; stroke-opacity:1; fill:none" points="238.832,1386.63 386.315,1386.63 "/>
<path clip-path="url(#clip170)" d="M431.243 1382.97 Q432.84 1380.1 435.062 1378.73 Q437.285 1377.36 440.294 1377.36 Q444.345 1377.36 446.544 1380.21 Q448.743 1383.03 448.743 1388.27 L448.743 1403.91 L444.461 1403.91 L444.461 1388.41 Q444.461 1384.68 443.141 1382.87 Q441.822 1381.07 439.113 1381.07 Q435.803 1381.07 433.882 1383.27 Q431.961 1385.47 431.961 1389.26 L431.961 1403.91 L427.678 1403.91 L427.678 1388.41 Q427.678 1384.66 426.359 1382.87 Q425.039 1381.07 422.285 1381.07 Q419.021 1381.07 417.1 1383.29 Q415.178 1385.49 415.178 1389.26 L415.178 1403.91 L410.896 1403.91 L410.896 1377.99 L415.178 1377.99 L415.178 1382.02 Q416.637 1379.63 418.674 1378.5 Q420.711 1377.36 423.512 1377.36 Q426.336 1377.36 428.303 1378.8 Q430.294 1380.23 431.243 1382.97 Z" fill="#000000" fill-rule="nonzero" fill-opacity="1" /><path clip-path="url(#clip170)" d="M479.414 1389.89 L479.414 1391.97 L459.831 1391.97 Q460.109 1396.37 462.47 1398.68 Q464.854 1400.97 469.09 1400.97 Q471.544 1400.97 473.835 1400.37 Q476.15 1399.77 478.419 1398.57 L478.419 1402.59 Q476.127 1403.57 473.72 1404.08 Q471.312 1404.59 468.835 1404.59 Q462.632 1404.59 458.998 1400.97 Q455.386 1397.36 455.386 1391.21 Q455.386 1384.84 458.812 1381.11 Q462.261 1377.36 468.095 1377.36 Q473.326 1377.36 476.359 1380.74 Q479.414 1384.1 479.414 1389.89 M475.155 1388.64 Q475.109 1385.14 473.187 1383.06 Q471.289 1380.97 468.141 1380.97 Q464.576 1380.97 462.423 1382.99 Q460.294 1385 459.97 1388.66 L475.155 1388.64 Z" fill="#000000" fill-rule="nonzero" fill-opacity="1" /><path clip-path="url(#clip170)" d="M498.187 1390.88 Q493.025 1390.88 491.034 1392.06 Q489.044 1393.24 489.044 1396.09 Q489.044 1398.36 490.525 1399.7 Q492.03 1401.02 494.599 1401.02 Q498.141 1401.02 500.27 1398.52 Q502.423 1396 502.423 1391.83 L502.423 1390.88 L498.187 1390.88 M506.682 1389.12 L506.682 1403.91 L502.423 1403.91 L502.423 1399.98 Q500.965 1402.34 498.789 1403.47 Q496.613 1404.59 493.465 1404.59 Q489.483 1404.59 487.122 1402.36 Q484.784 1400.12 484.784 1396.37 Q484.784 1391.99 487.701 1389.77 Q490.641 1387.55 496.451 1387.55 L502.423 1387.55 L502.423 1387.13 Q502.423 1384.19 500.479 1382.6 Q498.557 1380.97 495.062 1380.97 Q492.84 1380.97 490.733 1381.51 Q488.627 1382.04 486.683 1383.1 L486.683 1379.17 Q489.021 1378.27 491.22 1377.83 Q493.419 1377.36 495.502 1377.36 Q501.127 1377.36 503.905 1380.28 Q506.682 1383.2 506.682 1389.12 Z" fill="#000000" fill-rule="nonzero" fill-opacity="1" /><path clip-path="url(#clip170)" d="M531.983 1378.75 L531.983 1382.78 Q530.178 1381.85 528.233 1381.39 Q526.289 1380.93 524.206 1380.93 Q521.034 1380.93 519.437 1381.9 Q517.863 1382.87 517.863 1384.82 Q517.863 1386.3 518.997 1387.16 Q520.131 1387.99 523.557 1388.75 L525.016 1389.08 Q529.553 1390.05 531.451 1391.83 Q533.372 1393.59 533.372 1396.76 Q533.372 1400.37 530.502 1402.48 Q527.655 1404.59 522.655 1404.59 Q520.571 1404.59 518.303 1404.17 Q516.057 1403.78 513.557 1402.97 L513.557 1398.57 Q515.919 1399.79 518.21 1400.42 Q520.502 1401.02 522.747 1401.02 Q525.756 1401.02 527.377 1400 Q528.997 1398.96 528.997 1397.09 Q528.997 1395.35 527.817 1394.42 Q526.659 1393.5 522.701 1392.64 L521.219 1392.29 Q517.261 1391.46 515.502 1389.75 Q513.743 1388.01 513.743 1385 Q513.743 1381.35 516.335 1379.35 Q518.928 1377.36 523.696 1377.36 Q526.057 1377.36 528.141 1377.71 Q530.224 1378.06 531.983 1378.75 Z" fill="#000000" fill-rule="nonzero" fill-opacity="1" /><path clip-path="url(#clip170)" d="M539.715 1393.68 L539.715 1377.99 L543.974 1377.99 L543.974 1393.52 Q543.974 1397.2 545.409 1399.05 Q546.844 1400.88 549.715 1400.88 Q553.164 1400.88 555.154 1398.68 Q557.168 1396.48 557.168 1392.69 L557.168 1377.99 L561.428 1377.99 L561.428 1403.91 L557.168 1403.91 L557.168 1399.93 Q555.617 1402.29 553.557 1403.45 Q551.52 1404.59 548.812 1404.59 Q544.344 1404.59 542.029 1401.81 Q539.715 1399.03 539.715 1393.68 M550.432 1377.36 L550.432 1377.36 Z" fill="#000000" fill-rule="nonzero" fill-opacity="1" /><path clip-path="url(#clip170)" d="M585.224 1381.97 Q584.506 1381.55 583.65 1381.37 Q582.816 1381.16 581.798 1381.16 Q578.187 1381.16 576.242 1383.52 Q574.321 1385.86 574.321 1390.26 L574.321 1403.91 L570.039 1403.91 L570.039 1377.99 L574.321 1377.99 L574.321 1382.02 Q575.664 1379.66 577.816 1378.52 Q579.969 1377.36 583.048 1377.36 Q583.488 1377.36 584.02 1377.43 Q584.552 1377.48 585.201 1377.6 L585.224 1381.97 Z" fill="#000000" fill-rule="nonzero" fill-opacity="1" /><path clip-path="url(#clip170)" d="M610.825 1389.89 L610.825 1391.97 L591.242 1391.97 Q591.52 1396.37 593.881 1398.68 Q596.265 1400.97 600.501 1400.97 Q602.955 1400.97 605.247 1400.37 Q607.562 1399.77 609.83 1398.57 L609.83 1402.59 Q607.538 1403.57 605.131 1404.08 Q602.724 1404.59 600.247 1404.59 Q594.043 1404.59 590.409 1400.97 Q586.798 1397.36 586.798 1391.21 Q586.798 1384.84 590.224 1381.11 Q593.673 1377.36 599.506 1377.36 Q604.737 1377.36 607.77 1380.74 Q610.825 1384.1 610.825 1389.89 M606.566 1388.64 Q606.52 1385.14 604.599 1383.06 Q602.7 1380.97 599.552 1380.97 Q595.988 1380.97 593.835 1382.99 Q591.705 1385 591.381 1388.66 L606.566 1388.64 Z" fill="#000000" fill-rule="nonzero" fill-opacity="1" /><path clip-path="url(#clip170)" d="M638.001 1382.97 Q639.598 1380.1 641.821 1378.73 Q644.043 1377.36 647.052 1377.36 Q651.103 1377.36 653.302 1380.21 Q655.501 1383.03 655.501 1388.27 L655.501 1403.91 L651.219 1403.91 L651.219 1388.41 Q651.219 1384.68 649.899 1382.87 Q648.58 1381.07 645.872 1381.07 Q642.561 1381.07 640.64 1383.27 Q638.719 1385.47 638.719 1389.26 L638.719 1403.91 L634.436 1403.91 L634.436 1388.41 Q634.436 1384.66 633.117 1382.87 Q631.798 1381.07 629.043 1381.07 Q625.779 1381.07 623.858 1383.29 Q621.936 1385.49 621.936 1389.26 L621.936 1403.91 L617.654 1403.91 L617.654 1377.99 L621.936 1377.99 L621.936 1382.02 Q623.395 1379.63 625.432 1378.5 Q627.469 1377.36 630.27 1377.36 Q633.094 1377.36 635.061 1378.8 Q637.052 1380.23 638.001 1382.97 Z" fill="#000000" fill-rule="nonzero" fill-opacity="1" /><path clip-path="url(#clip170)" d="M686.172 1389.89 L686.172 1391.97 L666.589 1391.97 Q666.867 1396.37 669.228 1398.68 Q671.612 1400.97 675.848 1400.97 Q678.302 1400.97 680.594 1400.37 Q682.908 1399.77 685.177 1398.57 L685.177 1402.59 Q682.885 1403.57 680.478 1404.08 Q678.07 1404.59 675.594 1404.59 Q669.39 1404.59 665.756 1400.97 Q662.145 1397.36 662.145 1391.21 Q662.145 1384.84 665.57 1381.11 Q669.02 1377.36 674.853 1377.36 Q680.084 1377.36 683.117 1380.74 Q686.172 1384.1 686.172 1389.89 M681.913 1388.64 Q681.867 1385.14 679.945 1383.06 Q678.047 1380.97 674.899 1380.97 Q671.334 1380.97 669.182 1382.99 Q667.052 1385 666.728 1388.66 L681.913 1388.64 Z" fill="#000000" fill-rule="nonzero" fill-opacity="1" /><path clip-path="url(#clip170)" d="M714.714 1388.27 L714.714 1403.91 L710.455 1403.91 L710.455 1388.41 Q710.455 1384.72 709.019 1382.9 Q707.584 1381.07 704.714 1381.07 Q701.265 1381.07 699.274 1383.27 Q697.283 1385.47 697.283 1389.26 L697.283 1403.91 L693.001 1403.91 L693.001 1377.99 L697.283 1377.99 L697.283 1382.02 Q698.811 1379.68 700.871 1378.52 Q702.955 1377.36 705.663 1377.36 Q710.13 1377.36 712.422 1380.14 Q714.714 1382.9 714.714 1388.27 Z" fill="#000000" fill-rule="nonzero" fill-opacity="1" /><path clip-path="url(#clip170)" d="M727.422 1370.63 L727.422 1377.99 L736.195 1377.99 L736.195 1381.3 L727.422 1381.3 L727.422 1395.37 Q727.422 1398.54 728.278 1399.45 Q729.158 1400.35 731.82 1400.35 L736.195 1400.35 L736.195 1403.91 L731.82 1403.91 Q726.89 1403.91 725.015 1402.09 Q723.14 1400.23 723.14 1395.37 L723.14 1381.3 L720.015 1381.3 L720.015 1377.99 L723.14 1377.99 L723.14 1370.63 L727.422 1370.63 Z" fill="#000000" fill-rule="nonzero" fill-opacity="1" /></svg>
