<?xml version="1.0" encoding="utf-8"?>
<svg xmlns="http://www.w3.org/2000/svg" xmlns:xlink="http://www.w3.org/1999/xlink" width="600" height="400" viewBox="0 0 2400 1600">
<defs>
  <clipPath id="clip230">
    <rect x="0" y="0" width="2400" height="1600"/>
  </clipPath>
</defs>
<path clip-path="url(#clip230)" d="M0 1600 L2400 1600 L2400 0 L0 0  Z" fill="#ffffff" fill-rule="evenodd" fill-opacity="1"/>
<defs>
  <clipPath id="clip231">
    <rect x="1393" y="47" width="960" height="1440"/>
  </clipPath>
</defs>
<path clip-path="url(#clip230)" d="M193.936 1486.45 L1153.25 1486.45 L1153.25 47.2441 L193.936 47.2441  Z" fill="#ffffff" fill-rule="evenodd" fill-opacity="1"/>
<defs>
  <clipPath id="clip232">
    <rect x="193" y="47" width="960" height="1440"/>
  </clipPath>
</defs>
<polyline clip-path="url(#clip232)" style="stroke:#000000; stroke-linecap:round; stroke-linejoin:round; stroke-width:2; stroke-opacity:0.1; fill:none" points="209.631,1486.45 209.631,47.2441 "/>
<polyline clip-path="url(#clip232)" style="stroke:#000000; stroke-linecap:round; stroke-linejoin:round; stroke-width:2; stroke-opacity:0.1; fill:none" points="438.749,1486.45 438.749,47.2441 "/>
<polyline clip-path="url(#clip232)" style="stroke:#000000; stroke-linecap:round; stroke-linejoin:round; stroke-width:2; stroke-opacity:0.1; fill:none" points="667.867,1486.45 667.867,47.2441 "/>
<polyline clip-path="url(#clip232)" style="stroke:#000000; stroke-linecap:round; stroke-linejoin:round; stroke-width:2; stroke-opacity:0.1; fill:none" points="896.985,1486.45 896.985,47.2441 "/>
<polyline clip-path="url(#clip232)" style="stroke:#000000; stroke-linecap:round; stroke-linejoin:round; stroke-width:2; stroke-opacity:0.1; fill:none" points="1126.1,1486.45 1126.1,47.2441 "/>
<polyline clip-path="url(#clip232)" style="stroke:#000000; stroke-linecap:round; stroke-linejoin:round; stroke-width:2; stroke-opacity:0.1; fill:none" points="193.936,1328.48 1153.25,1328.48 "/>
<polyline clip-path="url(#clip232)" style="stroke:#000000; stroke-linecap:round; stroke-linejoin:round; stroke-width:2; stroke-opacity:0.1; fill:none" points="193.936,1078.13 1153.25,1078.13 "/>
<polyline clip-path="url(#clip232)" style="stroke:#000000; stroke-linecap:round; stroke-linejoin:round; stroke-width:2; stroke-opacity:0.1; fill:none" points="193.936,827.78 1153.25,827.78 "/>
<polyline clip-path="url(#clip232)" style="stroke:#000000; stroke-linecap:round; stroke-linejoin:round; stroke-width:2; stroke-opacity:0.1; fill:none" points="193.936,577.432 1153.25,577.432 "/>
<polyline clip-path="url(#clip232)" style="stroke:#000000; stroke-linecap:round; stroke-linejoin:round; stroke-width:2; stroke-opacity:0.1; fill:none" points="193.936,327.084 1153.25,327.084 "/>
<polyline clip-path="url(#clip232)" style="stroke:#000000; stroke-linecap:round; stroke-linejoin:round; stroke-width:2; stroke-opacity:0.1; fill:none" points="193.936,76.7359 1153.25,76.7359 "/>
<polyline clip-path="url(#clip230)" style="stroke:#000000; stroke-linecap:round; stroke-linejoin:round; stroke-width:4; stroke-opacity:1; fill:none" points="193.936,1486.45 1153.25,1486.45 "/>
<polyline clip-path="url(#clip230)" style="stroke:#000000; stroke-linecap:round; stroke-linejoin:round; stroke-width:4; stroke-opacity:1; fill:none" points="209.631,1486.45 209.631,1467.55 "/>
<polyline clip-path="url(#clip230)" style="stroke:#000000; stroke-linecap:round; stroke-linejoin:round; stroke-width:4; stroke-opacity:1; fill:none" points="438.749,1486.45 438.749,1467.55 "/>
<polyline clip-path="url(#clip230)" style="stroke:#000000; stroke-linecap:round; stroke-linejoin:round; stroke-width:4; stroke-opacity:1; fill:none" points="667.867,1486.45 667.867,1467.55 "/>
<polyline clip-path="url(#clip230)" style="stroke:#000000; stroke-linecap:round; stroke-linejoin:round; stroke-width:4; stroke-opacity:1; fill:none" points="896.985,1486.45 896.985,1467.55 "/>
<polyline clip-path="url(#clip230)" style="stroke:#000000; stroke-linecap:round; stroke-linejoin:round; stroke-width:4; stroke-opacity:1; fill:none" points="1126.1,1486.45 1126.1,1467.55 "/>
<path clip-path="url(#clip230)" d="M209.631 1517.37 Q206.019 1517.37 204.191 1520.93 Q202.385 1524.47 202.385 1531.6 Q202.385 1538.71 204.191 1542.27 Q206.019 1545.82 209.631 1545.82 Q213.265 1545.82 215.07 1542.27 Q216.899 1538.71 216.899 1531.6 Q216.899 1524.47 215.07 1520.93 Q213.265 1517.37 209.631 1517.37 M209.631 1513.66 Q215.441 1513.66 218.496 1518.27 Q221.575 1522.85 221.575 1531.6 Q221.575 1540.33 218.496 1544.94 Q215.441 1549.52 209.631 1549.52 Q203.82 1549.52 200.742 1544.94 Q197.686 1540.33 197.686 1531.6 Q197.686 1522.85 200.742 1518.27 Q203.82 1513.66 209.631 1513.66 Z" fill="#000000" fill-rule="nonzero" fill-opacity="1" /><path clip-path="url(#clip230)" d="M417.522 1544.91 L433.841 1544.91 L433.841 1548.85 L411.897 1548.85 L411.897 1544.91 Q414.559 1542.16 419.142 1537.53 Q423.749 1532.88 424.929 1531.53 Q427.175 1529.01 428.054 1527.27 Q428.957 1525.51 428.957 1523.82 Q428.957 1521.07 427.013 1519.33 Q425.091 1517.6 421.99 1517.6 Q419.79 1517.6 417.337 1518.36 Q414.906 1519.13 412.128 1520.68 L412.128 1515.95 Q414.953 1514.82 417.406 1514.24 Q419.86 1513.66 421.897 1513.66 Q427.267 1513.66 430.462 1516.35 Q433.656 1519.03 433.656 1523.52 Q433.656 1525.65 432.846 1527.57 Q432.059 1529.47 429.952 1532.07 Q429.374 1532.74 426.272 1535.95 Q423.17 1539.15 417.522 1544.91 Z" fill="#000000" fill-rule="nonzero" fill-opacity="1" /><path clip-path="url(#clip230)" d="M453.656 1517.37 Q450.045 1517.37 448.216 1520.93 Q446.411 1524.47 446.411 1531.6 Q446.411 1538.71 448.216 1542.27 Q450.045 1545.82 453.656 1545.82 Q457.29 1545.82 459.096 1542.27 Q460.925 1538.71 460.925 1531.6 Q460.925 1524.47 459.096 1520.93 Q457.29 1517.37 453.656 1517.37 M453.656 1513.66 Q459.466 1513.66 462.522 1518.27 Q465.6 1522.85 465.6 1531.6 Q465.6 1540.33 462.522 1544.94 Q459.466 1549.52 453.656 1549.52 Q447.846 1549.52 444.767 1544.94 Q441.712 1540.33 441.712 1531.6 Q441.712 1522.85 444.767 1518.27 Q447.846 1513.66 453.656 1513.66 Z" fill="#000000" fill-rule="nonzero" fill-opacity="1" /><path clip-path="url(#clip230)" d="M656.038 1518.36 L644.233 1536.81 L656.038 1536.81 L656.038 1518.36 M654.811 1514.29 L660.691 1514.29 L660.691 1536.81 L665.621 1536.81 L665.621 1540.7 L660.691 1540.7 L660.691 1548.85 L656.038 1548.85 L656.038 1540.7 L640.436 1540.7 L640.436 1536.19 L654.811 1514.29 Z" fill="#000000" fill-rule="nonzero" fill-opacity="1" /><path clip-path="url(#clip230)" d="M683.353 1517.37 Q679.742 1517.37 677.913 1520.93 Q676.108 1524.47 676.108 1531.6 Q676.108 1538.71 677.913 1542.27 Q679.742 1545.82 683.353 1545.82 Q686.987 1545.82 688.793 1542.27 Q690.621 1538.71 690.621 1531.6 Q690.621 1524.47 688.793 1520.93 Q686.987 1517.37 683.353 1517.37 M683.353 1513.66 Q689.163 1513.66 692.219 1518.27 Q695.297 1522.85 695.297 1531.6 Q695.297 1540.33 692.219 1544.94 Q689.163 1549.52 683.353 1549.52 Q677.543 1549.52 674.464 1544.94 Q671.408 1540.33 671.408 1531.6 Q671.408 1522.85 674.464 1518.27 Q677.543 1513.66 683.353 1513.66 Z" fill="#000000" fill-rule="nonzero" fill-opacity="1" /><path clip-path="url(#clip230)" d="M882.39 1529.7 Q879.242 1529.7 877.39 1531.86 Q875.561 1534.01 875.561 1537.76 Q875.561 1541.49 877.39 1543.66 Q879.242 1545.82 882.39 1545.82 Q885.538 1545.82 887.367 1543.66 Q889.219 1541.49 889.219 1537.76 Q889.219 1534.01 887.367 1531.86 Q885.538 1529.7 882.39 1529.7 M891.672 1515.05 L891.672 1519.31 Q889.913 1518.48 888.108 1518.04 Q886.325 1517.6 884.566 1517.6 Q879.936 1517.6 877.483 1520.72 Q875.052 1523.85 874.705 1530.17 Q876.071 1528.15 878.131 1527.09 Q880.191 1526 882.668 1526 Q887.876 1526 890.885 1529.17 Q893.918 1532.32 893.918 1537.76 Q893.918 1543.08 890.77 1546.3 Q887.622 1549.52 882.39 1549.52 Q876.395 1549.52 873.224 1544.94 Q870.052 1540.33 870.052 1531.6 Q870.052 1523.41 873.941 1518.55 Q877.83 1513.66 884.381 1513.66 Q886.14 1513.66 887.923 1514.01 Q889.728 1514.36 891.672 1515.05 Z" fill="#000000" fill-rule="nonzero" fill-opacity="1" /><path clip-path="url(#clip230)" d="M911.973 1517.37 Q908.362 1517.37 906.534 1520.93 Q904.728 1524.47 904.728 1531.6 Q904.728 1538.71 906.534 1542.27 Q908.362 1545.82 911.973 1545.82 Q915.608 1545.82 917.413 1542.27 Q919.242 1538.71 919.242 1531.6 Q919.242 1524.47 917.413 1520.93 Q915.608 1517.37 911.973 1517.37 M911.973 1513.66 Q917.783 1513.66 920.839 1518.27 Q923.918 1522.85 923.918 1531.6 Q923.918 1540.33 920.839 1544.94 Q917.783 1549.52 911.973 1549.52 Q906.163 1549.52 903.084 1544.94 Q900.029 1540.33 900.029 1531.6 Q900.029 1522.85 903.084 1518.27 Q906.163 1513.66 911.973 1513.66 Z" fill="#000000" fill-rule="nonzero" fill-opacity="1" /><path clip-path="url(#clip230)" d="M1110.98 1532.44 Q1107.64 1532.44 1105.72 1534.22 Q1103.82 1536 1103.82 1539.13 Q1103.82 1542.25 1105.72 1544.03 Q1107.64 1545.82 1110.98 1545.82 Q1114.31 1545.82 1116.23 1544.03 Q1118.15 1542.23 1118.15 1539.13 Q1118.15 1536 1116.23 1534.22 Q1114.33 1532.44 1110.98 1532.44 M1106.3 1530.45 Q1103.29 1529.7 1101.6 1527.64 Q1099.93 1525.58 1099.93 1522.62 Q1099.93 1518.48 1102.87 1516.07 Q1105.84 1513.66 1110.98 1513.66 Q1116.14 1513.66 1119.08 1516.07 Q1122.02 1518.48 1122.02 1522.62 Q1122.02 1525.58 1120.33 1527.64 Q1118.66 1529.7 1115.67 1530.45 Q1119.05 1531.23 1120.93 1533.52 Q1122.83 1535.82 1122.83 1539.13 Q1122.83 1544.15 1119.75 1546.83 Q1116.69 1549.52 1110.98 1549.52 Q1105.26 1549.52 1102.18 1546.83 Q1099.12 1544.15 1099.12 1539.13 Q1099.12 1535.82 1101.02 1533.52 Q1102.92 1531.23 1106.3 1530.45 M1104.59 1523.06 Q1104.59 1525.75 1106.25 1527.25 Q1107.94 1528.76 1110.98 1528.76 Q1113.99 1528.76 1115.67 1527.25 Q1117.39 1525.75 1117.39 1523.06 Q1117.39 1520.38 1115.67 1518.87 Q1113.99 1517.37 1110.98 1517.37 Q1107.94 1517.37 1106.25 1518.87 Q1104.59 1520.38 1104.59 1523.06 Z" fill="#000000" fill-rule="nonzero" fill-opacity="1" /><path clip-path="url(#clip230)" d="M1141.14 1517.37 Q1137.53 1517.37 1135.7 1520.93 Q1133.89 1524.47 1133.89 1531.6 Q1133.89 1538.71 1135.7 1542.27 Q1137.53 1545.82 1141.14 1545.82 Q1144.77 1545.82 1146.58 1542.27 Q1148.41 1538.71 1148.41 1531.6 Q1148.41 1524.47 1146.58 1520.93 Q1144.77 1517.37 1141.14 1517.37 M1141.14 1513.66 Q1146.95 1513.66 1150 1518.27 Q1153.08 1522.85 1153.08 1531.6 Q1153.08 1540.33 1150 1544.94 Q1146.95 1549.52 1141.14 1549.52 Q1135.33 1549.52 1132.25 1544.94 Q1129.19 1540.33 1129.19 1531.6 Q1129.19 1522.85 1132.25 1518.27 Q1135.33 1513.66 1141.14 1513.66 Z" fill="#000000" fill-rule="nonzero" fill-opacity="1" /><polyline clip-path="url(#clip230)" style="stroke:#000000; stroke-linecap:round; stroke-linejoin:round; stroke-width:4; stroke-opacity:1; fill:none" points="193.936,1486.45 193.936,47.2441 "/>
<polyline clip-path="url(#clip230)" style="stroke:#000000; stroke-linecap:round; stroke-linejoin:round; stroke-width:4; stroke-opacity:1; fill:none" points="193.936,1328.48 212.834,1328.48 "/>
<polyline clip-path="url(#clip230)" style="stroke:#000000; stroke-linecap:round; stroke-linejoin:round; stroke-width:4; stroke-opacity:1; fill:none" points="193.936,1078.13 212.834,1078.13 "/>
<polyline clip-path="url(#clip230)" style="stroke:#000000; stroke-linecap:round; stroke-linejoin:round; stroke-width:4; stroke-opacity:1; fill:none" points="193.936,827.78 212.834,827.78 "/>
<polyline clip-path="url(#clip230)" style="stroke:#000000; stroke-linecap:round; stroke-linejoin:round; stroke-width:4; stroke-opacity:1; fill:none" points="193.936,577.432 212.834,577.432 "/>
<polyline clip-path="url(#clip230)" style="stroke:#000000; stroke-linecap:round; stroke-linejoin:round; stroke-width:4; stroke-opacity:1; fill:none" points="193.936,327.084 212.834,327.084 "/>
<polyline clip-path="url(#clip230)" style="stroke:#000000; stroke-linecap:round; stroke-linejoin:round; stroke-width:4; stroke-opacity:1; fill:none" points="193.936,76.7359 212.834,76.7359 "/>
<path clip-path="url(#clip230)" d="M50.9921 1328.93 L80.6679 1328.93 L80.6679 1332.86 L50.9921 1332.86 L50.9921 1328.93 Z" fill="#000000" fill-rule="nonzero" fill-opacity="1" /><path clip-path="url(#clip230)" d="M91.5706 1341.82 L99.2095 1341.82 L99.2095 1315.46 L90.8993 1317.12 L90.8993 1312.86 L99.1632 1311.2 L103.839 1311.2 L103.839 1341.82 L111.478 1341.82 L111.478 1345.76 L91.5706 1345.76 L91.5706 1341.82 Z" fill="#000000" fill-rule="nonzero" fill-opacity="1" /><path clip-path="url(#clip230)" d="M120.922 1339.88 L125.807 1339.88 L125.807 1345.76 L120.922 1345.76 L120.922 1339.88 Z" fill="#000000" fill-rule="nonzero" fill-opacity="1" /><path clip-path="url(#clip230)" d="M145.992 1314.27 Q142.381 1314.27 140.552 1317.84 Q138.746 1321.38 138.746 1328.51 Q138.746 1335.62 140.552 1339.18 Q142.381 1342.72 145.992 1342.72 Q149.626 1342.72 151.431 1339.18 Q153.26 1335.62 153.26 1328.51 Q153.26 1321.38 151.431 1317.84 Q149.626 1314.27 145.992 1314.27 M145.992 1310.57 Q151.802 1310.57 154.857 1315.18 Q157.936 1319.76 157.936 1328.51 Q157.936 1337.24 154.857 1341.84 Q151.802 1346.43 145.992 1346.43 Q140.181 1346.43 137.103 1341.84 Q134.047 1337.24 134.047 1328.51 Q134.047 1319.76 137.103 1315.18 Q140.181 1310.57 145.992 1310.57 Z" fill="#000000" fill-rule="nonzero" fill-opacity="1" /><path clip-path="url(#clip230)" d="M51.9875 1078.58 L81.6633 1078.58 L81.6633 1082.51 L51.9875 1082.51 L51.9875 1078.58 Z" fill="#000000" fill-rule="nonzero" fill-opacity="1" /><path clip-path="url(#clip230)" d="M101.756 1063.93 Q98.1447 1063.93 96.316 1067.49 Q94.5104 1071.03 94.5104 1078.16 Q94.5104 1085.27 96.316 1088.83 Q98.1447 1092.38 101.756 1092.38 Q105.39 1092.38 107.196 1088.83 Q109.024 1085.27 109.024 1078.16 Q109.024 1071.03 107.196 1067.49 Q105.39 1063.93 101.756 1063.93 M101.756 1060.22 Q107.566 1060.22 110.621 1064.83 Q113.7 1069.41 113.7 1078.16 Q113.7 1086.89 110.621 1091.5 Q107.566 1096.08 101.756 1096.08 Q95.9456 1096.08 92.8669 1091.5 Q89.8114 1086.89 89.8114 1078.16 Q89.8114 1069.41 92.8669 1064.83 Q95.9456 1060.22 101.756 1060.22 Z" fill="#000000" fill-rule="nonzero" fill-opacity="1" /><path clip-path="url(#clip230)" d="M121.918 1089.53 L126.802 1089.53 L126.802 1095.41 L121.918 1095.41 L121.918 1089.53 Z" fill="#000000" fill-rule="nonzero" fill-opacity="1" /><path clip-path="url(#clip230)" d="M137.033 1060.85 L155.39 1060.85 L155.39 1064.78 L141.316 1064.78 L141.316 1073.26 Q142.334 1072.91 143.353 1072.75 Q144.371 1072.56 145.39 1072.56 Q151.177 1072.56 154.556 1075.73 Q157.936 1078.9 157.936 1084.32 Q157.936 1089.9 154.464 1093 Q150.992 1096.08 144.672 1096.08 Q142.496 1096.08 140.228 1095.71 Q137.982 1095.34 135.575 1094.6 L135.575 1089.9 Q137.658 1091.03 139.881 1091.59 Q142.103 1092.14 144.58 1092.14 Q148.584 1092.14 150.922 1090.04 Q153.26 1087.93 153.26 1084.32 Q153.26 1080.71 150.922 1078.6 Q148.584 1076.5 144.58 1076.5 Q142.705 1076.5 140.83 1076.91 Q138.978 1077.33 137.033 1078.21 L137.033 1060.85 Z" fill="#000000" fill-rule="nonzero" fill-opacity="1" /><path clip-path="url(#clip230)" d="M100.76 813.579 Q97.1493 813.579 95.3206 817.143 Q93.515 820.685 93.515 827.815 Q93.515 834.921 95.3206 838.486 Q97.1493 842.028 100.76 842.028 Q104.395 842.028 106.2 838.486 Q108.029 834.921 108.029 827.815 Q108.029 820.685 106.2 817.143 Q104.395 813.579 100.76 813.579 M100.76 809.875 Q106.571 809.875 109.626 814.481 Q112.705 819.065 112.705 827.815 Q112.705 836.541 109.626 841.148 Q106.571 845.731 100.76 845.731 Q94.9502 845.731 91.8715 841.148 Q88.816 836.541 88.816 827.815 Q88.816 819.065 91.8715 814.481 Q94.9502 809.875 100.76 809.875 Z" fill="#000000" fill-rule="nonzero" fill-opacity="1" /><path clip-path="url(#clip230)" d="M120.922 839.18 L125.807 839.18 L125.807 845.06 L120.922 845.06 L120.922 839.18 Z" fill="#000000" fill-rule="nonzero" fill-opacity="1" /><path clip-path="url(#clip230)" d="M145.992 813.579 Q142.381 813.579 140.552 817.143 Q138.746 820.685 138.746 827.815 Q138.746 834.921 140.552 838.486 Q142.381 842.028 145.992 842.028 Q149.626 842.028 151.431 838.486 Q153.26 834.921 153.26 827.815 Q153.26 820.685 151.431 817.143 Q149.626 813.579 145.992 813.579 M145.992 809.875 Q151.802 809.875 154.857 814.481 Q157.936 819.065 157.936 827.815 Q157.936 836.541 154.857 841.148 Q151.802 845.731 145.992 845.731 Q140.181 845.731 137.103 841.148 Q134.047 836.541 134.047 827.815 Q134.047 819.065 137.103 814.481 Q140.181 809.875 145.992 809.875 Z" fill="#000000" fill-rule="nonzero" fill-opacity="1" /><path clip-path="url(#clip230)" d="M101.756 563.231 Q98.1447 563.231 96.316 566.795 Q94.5104 570.337 94.5104 577.467 Q94.5104 584.573 96.316 588.138 Q98.1447 591.68 101.756 591.68 Q105.39 591.68 107.196 588.138 Q109.024 584.573 109.024 577.467 Q109.024 570.337 107.196 566.795 Q105.39 563.231 101.756 563.231 M101.756 559.527 Q107.566 559.527 110.621 564.133 Q113.7 568.717 113.7 577.467 Q113.7 586.193 110.621 590.8 Q107.566 595.383 101.756 595.383 Q95.9456 595.383 92.8669 590.8 Q89.8114 586.193 89.8114 577.467 Q89.8114 568.717 92.8669 564.133 Q95.9456 559.527 101.756 559.527 Z" fill="#000000" fill-rule="nonzero" fill-opacity="1" /><path clip-path="url(#clip230)" d="M121.918 588.832 L126.802 588.832 L126.802 594.712 L121.918 594.712 L121.918 588.832 Z" fill="#000000" fill-rule="nonzero" fill-opacity="1" /><path clip-path="url(#clip230)" d="M137.033 560.152 L155.39 560.152 L155.39 564.087 L141.316 564.087 L141.316 572.559 Q142.334 572.212 143.353 572.05 Q144.371 571.865 145.39 571.865 Q151.177 571.865 154.556 575.036 Q157.936 578.207 157.936 583.624 Q157.936 589.203 154.464 592.304 Q150.992 595.383 144.672 595.383 Q142.496 595.383 140.228 595.013 Q137.982 594.642 135.575 593.902 L135.575 589.203 Q137.658 590.337 139.881 590.892 Q142.103 591.448 144.58 591.448 Q148.584 591.448 150.922 589.342 Q153.26 587.235 153.26 583.624 Q153.26 580.013 150.922 577.906 Q148.584 575.8 144.58 575.8 Q142.705 575.8 140.83 576.217 Q138.978 576.633 137.033 577.513 L137.033 560.152 Z" fill="#000000" fill-rule="nonzero" fill-opacity="1" /><path clip-path="url(#clip230)" d="M91.5706 340.429 L99.2095 340.429 L99.2095 314.063 L90.8993 315.73 L90.8993 311.471 L99.1632 309.804 L103.839 309.804 L103.839 340.429 L111.478 340.429 L111.478 344.364 L91.5706 344.364 L91.5706 340.429 Z" fill="#000000" fill-rule="nonzero" fill-opacity="1" /><path clip-path="url(#clip230)" d="M120.922 338.484 L125.807 338.484 L125.807 344.364 L120.922 344.364 L120.922 338.484 Z" fill="#000000" fill-rule="nonzero" fill-opacity="1" /><path clip-path="url(#clip230)" d="M145.992 312.883 Q142.381 312.883 140.552 316.447 Q138.746 319.989 138.746 327.119 Q138.746 334.225 140.552 337.79 Q142.381 341.331 145.992 341.331 Q149.626 341.331 151.431 337.79 Q153.26 334.225 153.26 327.119 Q153.26 319.989 151.431 316.447 Q149.626 312.883 145.992 312.883 M145.992 309.179 Q151.802 309.179 154.857 313.785 Q157.936 318.369 157.936 327.119 Q157.936 335.845 154.857 340.452 Q151.802 345.035 145.992 345.035 Q140.181 345.035 137.103 340.452 Q134.047 335.845 134.047 327.119 Q134.047 318.369 137.103 313.785 Q140.181 309.179 145.992 309.179 Z" fill="#000000" fill-rule="nonzero" fill-opacity="1" /><path clip-path="url(#clip230)" d="M92.566 90.0807 L100.205 90.0807 L100.205 63.7151 L91.8947 65.3817 L91.8947 61.1225 L100.159 59.4559 L104.834 59.4559 L104.834 90.0807 L112.473 90.0807 L112.473 94.0159 L92.566 94.0159 L92.566 90.0807 Z" fill="#000000" fill-rule="nonzero" fill-opacity="1" /><path clip-path="url(#clip230)" d="M121.918 88.1363 L126.802 88.1363 L126.802 94.0159 L121.918 94.0159 L121.918 88.1363 Z" fill="#000000" fill-rule="nonzero" fill-opacity="1" /><path clip-path="url(#clip230)" d="M137.033 59.4559 L155.39 59.4559 L155.39 63.391 L141.316 63.391 L141.316 71.8632 Q142.334 71.516 143.353 71.3539 Q144.371 71.1688 145.39 71.1688 Q151.177 71.1688 154.556 74.34 Q157.936 77.5113 157.936 82.9279 Q157.936 88.5066 154.464 91.6085 Q150.992 94.6871 144.672 94.6871 Q142.496 94.6871 140.228 94.3168 Q137.982 93.9464 135.575 93.2057 L135.575 88.5066 Q137.658 89.6409 139.881 90.1964 Q142.103 90.752 144.58 90.752 Q148.584 90.752 150.922 88.6455 Q153.26 86.539 153.26 82.9279 Q153.26 79.3169 150.922 77.2104 Q148.584 75.1039 144.58 75.1039 Q142.705 75.1039 140.83 75.5206 Q138.978 75.9372 137.033 76.8169 L137.033 59.4559 Z" fill="#000000" fill-rule="nonzero" fill-opacity="1" /><polyline clip-path="url(#clip232)" style="stroke:#009af9; stroke-linecap:round; stroke-linejoin:round; stroke-width:4; stroke-opacity:1; fill:none" points="221.086,865.573 232.542,777.005 243.998,847.632 255.454,775.895 266.91,709.772 278.366,696.016 289.822,693.618 301.278,692.636 312.734,653.162 324.19,702.541 335.646,647.321 347.101,634.951 358.557,643.951 370.013,565.874 381.469,569.316 392.925,477.974 404.381,449.115 415.837,378.362 427.293,342.888 438.749,231.96 450.205,255.656 461.661,326.563 473.116,389.052 484.572,344.836 496.028,369.606 507.484,372.763 518.94,445.71 530.396,411.327 541.852,392.333 553.308,395.051 564.764,452.164 576.22,431.819 587.675,496.23 599.131,517.774 610.587,635.951 622.043,571.111 633.499,633.869 644.955,675.816 656.411,718.529 667.867,719.707 679.323,762.299 690.779,825.36 702.235,801.152 713.69,794.061 725.146,849.121 736.602,982.123 748.058,1063.38 759.514,1112.79 770.97,1144.11 782.426,1201.28 793.882,1202.1 805.338,1159.85 816.794,1118.87 828.25,1091.92 839.705,1093.64 851.161,1118.39 862.617,1140.21 874.073,1201.01 885.529,1191.67 896.985,1135.79 908.441,1077.13 919.897,1086.58 931.353,1061.32 942.809,1071.13 954.264,1146.25 965.72,1255.38 977.176,1231.73 988.632,1264.79 1000.09,1256.61 1011.54,1272.78 1023,1310.1 1034.46,1349.52 1045.91,1372.22 1057.37,1259.73 1068.82,1234.71 1080.28,1259.33 1091.74,1223.36 1103.19,1031.03 1114.65,1017.28 1126.1,1057.87 "/>
<polyline clip-path="url(#clip232)" style="stroke:#e26f46; stroke-linecap:round; stroke-linejoin:round; stroke-width:4; stroke-opacity:1; fill:none" points="221.086,873.561 232.542,778.444 243.998,848.192 255.454,774.358 266.91,705.976 278.366,688.051 289.822,682.435 301.278,682.492 312.734,637.683 324.19,690.06 335.646,625.616 347.101,619.33 358.557,631.786 370.013,551.888 381.469,558.776 392.925,470.001 404.381,437.561 415.837,359.263 427.293,327.26 438.749,210.887 450.205,241.267 461.661,310.042 473.116,373.939 484.572,330.563 496.028,357.417 507.484,373.904 518.94,444.158 530.396,405.285 541.852,393.637 553.308,394.422 564.764,460.372 576.22,442.691 587.675,511.903 599.131,529.796 610.587,648.813 622.043,583.759 633.499,637.255 644.955,682.474 656.411,728.337 667.867,726.013 679.323,762.894 690.779,832.119 702.235,811.784 713.69,802.295 725.146,869.871 736.602,1008.94 748.058,1084.67 759.514,1134.25 770.97,1166.85 782.426,1228.63 793.882,1234.16 805.338,1196.46 816.794,1153.98 828.25,1130.92 839.705,1133.98 851.161,1163.37 862.617,1186.32 874.073,1246.36 885.529,1227.67 896.985,1165.95 908.441,1103.87 919.897,1114.34 931.353,1090.07 942.809,1097.6 954.264,1160.14 965.72,1269.69 977.176,1243.26 988.632,1269.16 1000.09,1259.64 1011.54,1276.61 1023,1307.87 1034.46,1353.33 1045.91,1373.58 1057.37,1269.68 1068.82,1246.76 1080.28,1259.24 1091.74,1229 1103.19,1044.71 1114.65,1031.83 1126.1,1070.72 "/>
<polyline clip-path="url(#clip232)" style="stroke:#3da44d; stroke-linecap:round; stroke-linejoin:round; stroke-width:4; stroke-opacity:1; fill:none" points="221.086,732.683 232.542,670.747 243.998,725.062 255.454,732.594 266.91,705.027 278.366,678.122 289.822,680.264 301.278,697.461 312.734,635.416 324.19,637.071 335.646,524.774 347.101,475.032 358.557,575.049 370.013,450.54 381.469,389.687 392.925,285.719 404.381,248.989 415.837,171.816 427.293,120.383 438.749,87.9763 450.205,164.047 461.661,252.397 473.116,326.79 484.572,321.179 496.028,413.255 507.484,386.183 518.94,511.535 530.396,410.892 541.852,350.65 553.308,308.967 564.764,293.501 576.22,286.214 587.675,392.347 599.131,423.237 610.587,582.071 622.043,459 633.499,506.431 644.955,552.128 656.411,615.89 667.867,662.497 679.323,716.183 690.779,863.077 702.235,871.059 713.69,907.567 725.146,927.515 736.602,1069.39 748.058,1216.96 759.514,1193.4 770.97,1313.4 782.426,1368.63 793.882,1380.84 805.338,1201.78 816.794,1129.66 828.25,1016.08 839.705,1008.27 851.161,1034.77 862.617,1100.69 874.073,1152.38 885.529,1163.3 896.985,1112.9 908.441,1059.34 919.897,1093.65 931.353,1081.94 942.809,1008.84 954.264,1060.74 965.72,1183.51 977.176,1106.48 988.632,1238.54 1000.09,1265.53 1011.54,1331.48 1023,1380.66 1034.46,1445.72 1045.91,1420.84 1057.37,1375.21 1068.82,1376.07 1080.28,1369.3 1091.74,1275.52 1103.19,1011.34 1114.65,978.276 1126.1,1008.17 "/>
<path clip-path="url(#clip230)" d="M663.68 302.578 L1121.28 302.578 L1121.28 95.2176 L663.68 95.2176  Z" fill="#ffffff" fill-rule="evenodd" fill-opacity="1"/>
<polyline clip-path="url(#clip230)" style="stroke:#000000; stroke-linecap:round; stroke-linejoin:round; stroke-width:4; stroke-opacity:1; fill:none" points="663.68,302.578 1121.28,302.578 1121.28,95.2176 663.68,95.2176 663.68,302.578 "/>
<polyline clip-path="url(#clip230)" style="stroke:#009af9; stroke-linecap:round; stroke-linejoin:round; stroke-width:4; stroke-opacity:1; fill:none" points="674.339,147.058 738.293,147.058 "/>
<path clip-path="url(#clip230)" d="M748.953 129.778 L753.628 129.778 L753.628 144.384 L769.138 129.778 L775.156 129.778 L758.003 145.889 L776.383 164.338 L770.226 164.338 L753.628 147.694 L753.628 164.338 L748.953 164.338 L748.953 129.778 Z" fill="#000000" fill-rule="nonzero" fill-opacity="1" /><path clip-path="url(#clip230)" d="M790.804 151.305 Q785.642 151.305 783.651 152.486 Q781.661 153.666 781.661 156.514 Q781.661 158.782 783.142 160.125 Q784.647 161.444 787.216 161.444 Q790.758 161.444 792.887 158.944 Q795.04 156.421 795.04 152.254 L795.04 151.305 L790.804 151.305 M799.299 149.546 L799.299 164.338 L795.04 164.338 L795.04 160.402 Q793.582 162.763 791.406 163.898 Q789.23 165.009 786.082 165.009 Q782.1 165.009 779.739 162.787 Q777.401 160.541 777.401 156.791 Q777.401 152.416 780.318 150.194 Q783.258 147.972 789.068 147.972 L795.04 147.972 L795.04 147.555 Q795.04 144.615 793.096 143.018 Q791.175 141.398 787.679 141.398 Q785.457 141.398 783.35 141.93 Q781.244 142.463 779.3 143.527 L779.3 139.592 Q781.638 138.69 783.837 138.25 Q786.036 137.787 788.119 137.787 Q793.744 137.787 796.522 140.703 Q799.299 143.62 799.299 149.546 Z" fill="#000000" fill-rule="nonzero" fill-opacity="1" /><path clip-path="url(#clip230)" d="M808.073 128.319 L812.332 128.319 L812.332 164.338 L808.073 164.338 L808.073 128.319 Z" fill="#000000" fill-rule="nonzero" fill-opacity="1" /><path clip-path="url(#clip230)" d="M841.429 143.389 Q843.026 140.518 845.248 139.153 Q847.471 137.787 850.48 137.787 Q854.531 137.787 856.73 140.634 Q858.929 143.458 858.929 148.689 L858.929 164.338 L854.646 164.338 L854.646 148.828 Q854.646 145.102 853.327 143.296 Q852.008 141.49 849.299 141.49 Q845.989 141.49 844.068 143.69 Q842.146 145.889 842.146 149.685 L842.146 164.338 L837.864 164.338 L837.864 148.828 Q837.864 145.078 836.545 143.296 Q835.225 141.49 832.471 141.49 Q829.207 141.49 827.285 143.713 Q825.364 145.912 825.364 149.685 L825.364 164.338 L821.082 164.338 L821.082 138.412 L825.364 138.412 L825.364 142.44 Q826.822 140.055 828.86 138.921 Q830.897 137.787 833.697 137.787 Q836.521 137.787 838.489 139.222 Q840.48 140.657 841.429 143.389 Z" fill="#000000" fill-rule="nonzero" fill-opacity="1" /><path clip-path="url(#clip230)" d="M879.206 151.305 Q874.044 151.305 872.054 152.486 Q870.063 153.666 870.063 156.514 Q870.063 158.782 871.544 160.125 Q873.049 161.444 875.619 161.444 Q879.16 161.444 881.29 158.944 Q883.443 156.421 883.443 152.254 L883.443 151.305 L879.206 151.305 M887.702 149.546 L887.702 164.338 L883.443 164.338 L883.443 160.402 Q881.984 162.763 879.808 163.898 Q877.632 165.009 874.484 165.009 Q870.503 165.009 868.142 162.787 Q865.804 160.541 865.804 156.791 Q865.804 152.416 868.72 150.194 Q871.66 147.972 877.47 147.972 L883.443 147.972 L883.443 147.555 Q883.443 144.615 881.498 143.018 Q879.577 141.398 876.081 141.398 Q873.859 141.398 871.753 141.93 Q869.646 142.463 867.702 143.527 L867.702 139.592 Q870.04 138.69 872.239 138.25 Q874.438 137.787 876.521 137.787 Q882.146 137.787 884.924 140.703 Q887.702 143.62 887.702 149.546 Z" fill="#000000" fill-rule="nonzero" fill-opacity="1" /><path clip-path="url(#clip230)" d="M918.026 148.689 L918.026 164.338 L913.766 164.338 L913.766 148.828 Q913.766 145.148 912.331 143.319 Q910.896 141.49 908.026 141.49 Q904.577 141.49 902.586 143.69 Q900.595 145.889 900.595 149.685 L900.595 164.338 L896.313 164.338 L896.313 138.412 L900.595 138.412 L900.595 142.44 Q902.123 140.102 904.183 138.944 Q906.266 137.787 908.975 137.787 Q913.442 137.787 915.734 140.565 Q918.026 143.319 918.026 148.689 Z" fill="#000000" fill-rule="nonzero" fill-opacity="1" /><path clip-path="url(#clip230)" d="M958.118 139.176 L958.118 143.203 Q956.313 142.277 954.368 141.815 Q952.424 141.352 950.34 141.352 Q947.169 141.352 945.572 142.324 Q943.998 143.296 943.998 145.24 Q943.998 146.722 945.132 147.578 Q946.266 148.412 949.692 149.176 L951.151 149.5 Q955.688 150.472 957.586 152.254 Q959.507 154.014 959.507 157.185 Q959.507 160.796 956.637 162.902 Q953.789 165.009 948.789 165.009 Q946.706 165.009 944.438 164.592 Q942.192 164.199 939.692 163.388 L939.692 158.99 Q942.053 160.217 944.345 160.842 Q946.637 161.444 948.882 161.444 Q951.891 161.444 953.512 160.426 Q955.132 159.384 955.132 157.509 Q955.132 155.773 953.951 154.847 Q952.794 153.921 948.836 153.064 L947.354 152.717 Q943.396 151.884 941.637 150.171 Q939.877 148.435 939.877 145.426 Q939.877 141.768 942.47 139.778 Q945.063 137.787 949.831 137.787 Q952.192 137.787 954.275 138.134 Q956.359 138.481 958.118 139.176 Z" fill="#000000" fill-rule="nonzero" fill-opacity="1" /><path clip-path="url(#clip230)" d="M986.474 143.389 Q988.072 140.518 990.294 139.153 Q992.516 137.787 995.525 137.787 Q999.576 137.787 1001.78 140.634 Q1003.97 143.458 1003.97 148.689 L1003.97 164.338 L999.692 164.338 L999.692 148.828 Q999.692 145.102 998.372 143.296 Q997.053 141.49 994.345 141.49 Q991.035 141.49 989.113 143.69 Q987.192 145.889 987.192 149.685 L987.192 164.338 L982.91 164.338 L982.91 148.828 Q982.91 145.078 981.59 143.296 Q980.271 141.49 977.516 141.49 Q974.252 141.49 972.331 143.713 Q970.41 145.912 970.41 149.685 L970.41 164.338 L966.127 164.338 L966.127 138.412 L970.41 138.412 L970.41 142.44 Q971.868 140.055 973.905 138.921 Q975.942 137.787 978.743 137.787 Q981.567 137.787 983.535 139.222 Q985.525 140.657 986.474 143.389 Z" fill="#000000" fill-rule="nonzero" fill-opacity="1" /><path clip-path="url(#clip230)" d="M1022.52 141.398 Q1019.09 141.398 1017.1 144.083 Q1015.11 146.745 1015.11 151.398 Q1015.11 156.051 1017.08 158.736 Q1019.07 161.398 1022.52 161.398 Q1025.92 161.398 1027.91 158.713 Q1029.9 156.027 1029.9 151.398 Q1029.9 146.791 1027.91 144.106 Q1025.92 141.398 1022.52 141.398 M1022.52 137.787 Q1028.07 137.787 1031.24 141.398 Q1034.41 145.009 1034.41 151.398 Q1034.41 157.764 1031.24 161.398 Q1028.07 165.009 1022.52 165.009 Q1016.94 165.009 1013.77 161.398 Q1010.62 157.764 1010.62 151.398 Q1010.62 145.009 1013.77 141.398 Q1016.94 137.787 1022.52 137.787 Z" fill="#000000" fill-rule="nonzero" fill-opacity="1" /><path clip-path="url(#clip230)" d="M1051.52 141.398 Q1048.09 141.398 1046.1 144.083 Q1044.11 146.745 1044.11 151.398 Q1044.11 156.051 1046.08 158.736 Q1048.07 161.398 1051.52 161.398 Q1054.92 161.398 1056.91 158.713 Q1058.9 156.027 1058.9 151.398 Q1058.9 146.791 1056.91 144.106 Q1054.92 141.398 1051.52 141.398 M1051.52 137.787 Q1057.08 137.787 1060.25 141.398 Q1063.42 145.009 1063.42 151.398 Q1063.42 157.764 1060.25 161.398 Q1057.08 165.009 1051.52 165.009 Q1045.94 165.009 1042.77 161.398 Q1039.62 157.764 1039.62 151.398 Q1039.62 145.009 1042.77 141.398 Q1045.94 137.787 1051.52 137.787 Z" fill="#000000" fill-rule="nonzero" fill-opacity="1" /><path clip-path="url(#clip230)" d="M1074.69 131.051 L1074.69 138.412 L1083.46 138.412 L1083.46 141.722 L1074.69 141.722 L1074.69 155.796 Q1074.69 158.967 1075.55 159.87 Q1076.43 160.773 1079.09 160.773 L1083.46 160.773 L1083.46 164.338 L1079.09 164.338 Q1074.16 164.338 1072.28 162.509 Q1070.41 160.657 1070.41 155.796 L1070.41 141.722 L1067.28 141.722 L1067.28 138.412 L1070.41 138.412 L1070.41 131.051 L1074.69 131.051 Z" fill="#000000" fill-rule="nonzero" fill-opacity="1" /><path clip-path="url(#clip230)" d="M1110.62 148.689 L1110.62 164.338 L1106.36 164.338 L1106.36 148.828 Q1106.36 145.148 1104.92 143.319 Q1103.49 141.49 1100.62 141.49 Q1097.17 141.49 1095.18 143.69 Q1093.19 145.889 1093.19 149.685 L1093.19 164.338 L1088.9 164.338 L1088.9 128.319 L1093.19 128.319 L1093.19 142.44 Q1094.71 140.102 1096.77 138.944 Q1098.86 137.787 1101.57 137.787 Q1106.03 137.787 1108.33 140.565 Q1110.62 143.319 1110.62 148.689 Z" fill="#000000" fill-rule="nonzero" fill-opacity="1" /><polyline clip-path="url(#clip230)" style="stroke:#e26f46; stroke-linecap:round; stroke-linejoin:round; stroke-width:4; stroke-opacity:1; fill:none" points="674.339,198.898 738.293,198.898 "/>
<path clip-path="url(#clip230)" d="M753.235 212.289 L753.235 226.039 L748.953 226.039 L748.953 190.252 L753.235 190.252 L753.235 194.187 Q754.577 191.872 756.615 190.761 Q758.675 189.627 761.522 189.627 Q766.244 189.627 769.184 193.377 Q772.147 197.127 772.147 203.238 Q772.147 209.349 769.184 213.099 Q766.244 216.849 761.522 216.849 Q758.675 216.849 756.615 215.738 Q754.577 214.603 753.235 212.289 M767.726 203.238 Q767.726 198.539 765.781 195.877 Q763.86 193.192 760.48 193.192 Q757.101 193.192 755.156 195.877 Q753.235 198.539 753.235 203.238 Q753.235 207.937 755.156 210.622 Q757.101 213.284 760.48 213.284 Q763.86 213.284 765.781 210.622 Q767.726 207.937 767.726 203.238 Z" fill="#000000" fill-rule="nonzero" fill-opacity="1" /><path clip-path="url(#clip230)" d="M792.332 180.159 L792.332 183.701 L788.258 183.701 Q785.966 183.701 785.063 184.627 Q784.184 185.553 784.184 187.96 L784.184 190.252 L791.198 190.252 L791.198 193.562 L784.184 193.562 L784.184 216.178 L779.901 216.178 L779.901 193.562 L775.827 193.562 L775.827 190.252 L779.901 190.252 L779.901 188.446 Q779.901 184.118 781.915 182.15 Q783.929 180.159 788.304 180.159 L792.332 180.159 Z" fill="#000000" fill-rule="nonzero" fill-opacity="1" /><path clip-path="url(#clip230)" d="M827.494 191.016 L827.494 195.043 Q825.688 194.117 823.744 193.655 Q821.799 193.192 819.716 193.192 Q816.545 193.192 814.948 194.164 Q813.373 195.136 813.373 197.08 Q813.373 198.562 814.508 199.418 Q815.642 200.252 819.068 201.016 L820.526 201.34 Q825.063 202.312 826.961 204.094 Q828.883 205.854 828.883 209.025 Q828.883 212.636 826.012 214.742 Q823.165 216.849 818.165 216.849 Q816.082 216.849 813.813 216.432 Q811.568 216.039 809.068 215.228 L809.068 210.83 Q811.429 212.057 813.721 212.682 Q816.012 213.284 818.258 213.284 Q821.267 213.284 822.887 212.266 Q824.508 211.224 824.508 209.349 Q824.508 207.613 823.327 206.687 Q822.17 205.761 818.211 204.904 L816.73 204.557 Q812.772 203.724 811.012 202.011 Q809.253 200.275 809.253 197.266 Q809.253 193.608 811.846 191.618 Q814.438 189.627 819.207 189.627 Q821.568 189.627 823.651 189.974 Q825.735 190.321 827.494 191.016 Z" fill="#000000" fill-rule="nonzero" fill-opacity="1" /><path clip-path="url(#clip230)" d="M855.85 195.229 Q857.447 192.358 859.67 190.993 Q861.892 189.627 864.901 189.627 Q868.952 189.627 871.151 192.474 Q873.35 195.298 873.35 200.529 L873.35 216.178 L869.068 216.178 L869.068 200.668 Q869.068 196.942 867.748 195.136 Q866.429 193.33 863.72 193.33 Q860.41 193.33 858.489 195.53 Q856.568 197.729 856.568 201.525 L856.568 216.178 L852.285 216.178 L852.285 200.668 Q852.285 196.918 850.966 195.136 Q849.646 193.33 846.892 193.33 Q843.628 193.33 841.707 195.553 Q839.785 197.752 839.785 201.525 L839.785 216.178 L835.503 216.178 L835.503 190.252 L839.785 190.252 L839.785 194.28 Q841.244 191.895 843.281 190.761 Q845.318 189.627 848.119 189.627 Q850.943 189.627 852.91 191.062 Q854.901 192.497 855.85 195.229 Z" fill="#000000" fill-rule="nonzero" fill-opacity="1" /><path clip-path="url(#clip230)" d="M891.892 193.238 Q888.466 193.238 886.475 195.923 Q884.484 198.585 884.484 203.238 Q884.484 207.891 886.452 210.576 Q888.443 213.238 891.892 213.238 Q895.294 213.238 897.285 210.553 Q899.276 207.867 899.276 203.238 Q899.276 198.631 897.285 195.946 Q895.294 193.238 891.892 193.238 M891.892 189.627 Q897.447 189.627 900.618 193.238 Q903.79 196.849 903.79 203.238 Q903.79 209.604 900.618 213.238 Q897.447 216.849 891.892 216.849 Q886.313 216.849 883.142 213.238 Q879.993 209.604 879.993 203.238 Q879.993 196.849 883.142 193.238 Q886.313 189.627 891.892 189.627 Z" fill="#000000" fill-rule="nonzero" fill-opacity="1" /><path clip-path="url(#clip230)" d="M920.896 193.238 Q917.47 193.238 915.479 195.923 Q913.489 198.585 913.489 203.238 Q913.489 207.891 915.456 210.576 Q917.447 213.238 920.896 213.238 Q924.299 213.238 926.29 210.553 Q928.28 207.867 928.28 203.238 Q928.28 198.631 926.29 195.946 Q924.299 193.238 920.896 193.238 M920.896 189.627 Q926.452 189.627 929.623 193.238 Q932.794 196.849 932.794 203.238 Q932.794 209.604 929.623 213.238 Q926.452 216.849 920.896 216.849 Q915.317 216.849 912.146 213.238 Q908.998 209.604 908.998 203.238 Q908.998 196.849 912.146 193.238 Q915.317 189.627 920.896 189.627 Z" fill="#000000" fill-rule="nonzero" fill-opacity="1" /><path clip-path="url(#clip230)" d="M944.067 182.891 L944.067 190.252 L952.84 190.252 L952.84 193.562 L944.067 193.562 L944.067 207.636 Q944.067 210.807 944.924 211.71 Q945.803 212.613 948.465 212.613 L952.84 212.613 L952.84 216.178 L948.465 216.178 Q943.535 216.178 941.66 214.349 Q939.785 212.497 939.785 207.636 L939.785 193.562 L936.66 193.562 L936.66 190.252 L939.785 190.252 L939.785 182.891 L944.067 182.891 Z" fill="#000000" fill-rule="nonzero" fill-opacity="1" /><path clip-path="url(#clip230)" d="M979.993 200.529 L979.993 216.178 L975.734 216.178 L975.734 200.668 Q975.734 196.988 974.299 195.159 Q972.863 193.33 969.993 193.33 Q966.544 193.33 964.553 195.53 Q962.562 197.729 962.562 201.525 L962.562 216.178 L958.28 216.178 L958.28 180.159 L962.562 180.159 L962.562 194.28 Q964.09 191.942 966.15 190.784 Q968.234 189.627 970.942 189.627 Q975.41 189.627 977.701 192.405 Q979.993 195.159 979.993 200.529 Z" fill="#000000" fill-rule="nonzero" fill-opacity="1" /><polyline clip-path="url(#clip230)" style="stroke:#3da44d; stroke-linecap:round; stroke-linejoin:round; stroke-width:4; stroke-opacity:1; fill:none" points="674.339,250.738 738.293,250.738 "/>
<path clip-path="url(#clip230)" d="M756.36 234.731 L756.36 242.092 L765.133 242.092 L765.133 245.402 L756.36 245.402 L756.36 259.476 Q756.36 262.647 757.216 263.55 Q758.096 264.453 760.758 264.453 L765.133 264.453 L765.133 268.018 L760.758 268.018 Q755.827 268.018 753.952 266.189 Q752.078 264.337 752.078 259.476 L752.078 245.402 L748.953 245.402 L748.953 242.092 L752.078 242.092 L752.078 234.731 L756.36 234.731 Z" fill="#000000" fill-rule="nonzero" fill-opacity="1" /><path clip-path="url(#clip230)" d="M785.758 246.073 Q785.04 245.657 784.184 245.471 Q783.35 245.263 782.332 245.263 Q778.721 245.263 776.776 247.624 Q774.855 249.962 774.855 254.36 L774.855 268.018 L770.573 268.018 L770.573 242.092 L774.855 242.092 L774.855 246.12 Q776.198 243.758 778.351 242.624 Q780.503 241.467 783.582 241.467 Q784.022 241.467 784.554 241.536 Q785.087 241.583 785.735 241.698 L785.758 246.073 Z" fill="#000000" fill-rule="nonzero" fill-opacity="1" /><path clip-path="url(#clip230)" d="M789.786 257.786 L789.786 242.092 L794.045 242.092 L794.045 257.624 Q794.045 261.305 795.48 263.156 Q796.915 264.985 799.786 264.985 Q803.235 264.985 805.225 262.786 Q807.239 260.587 807.239 256.791 L807.239 242.092 L811.498 242.092 L811.498 268.018 L807.239 268.018 L807.239 264.036 Q805.688 266.397 803.628 267.555 Q801.591 268.689 798.883 268.689 Q794.415 268.689 792.1 265.911 Q789.786 263.133 789.786 257.786 M800.503 241.467 L800.503 241.467 Z" fill="#000000" fill-rule="nonzero" fill-opacity="1" /><path clip-path="url(#clip230)" d="M842.447 253.99 L842.447 256.073 L822.864 256.073 Q823.142 260.471 825.503 262.786 Q827.887 265.078 832.123 265.078 Q834.577 265.078 836.869 264.476 Q839.184 263.874 841.452 262.67 L841.452 266.698 Q839.16 267.67 836.753 268.18 Q834.346 268.689 831.869 268.689 Q825.665 268.689 822.031 265.078 Q818.42 261.467 818.42 255.309 Q818.42 248.944 821.846 245.217 Q825.295 241.467 831.128 241.467 Q836.359 241.467 839.392 244.846 Q842.447 248.203 842.447 253.99 M838.188 252.74 Q838.142 249.245 836.221 247.161 Q834.322 245.078 831.174 245.078 Q827.61 245.078 825.457 247.092 Q823.327 249.106 823.003 252.763 L838.188 252.74 Z" fill="#000000" fill-rule="nonzero" fill-opacity="1" /><path clip-path="url(#clip230)" d="M1393.44 1486.45 L2352.76 1486.45 L2352.76 47.2441 L1393.44 47.2441  Z" fill="#ffffff" fill-rule="evenodd" fill-opacity="1"/>
<polyline clip-path="url(#clip231)" style="stroke:#000000; stroke-linecap:round; stroke-linejoin:round; stroke-width:2; stroke-opacity:0.1; fill:none" points="1409.13,1486.45 1409.13,47.2441 "/>
<polyline clip-path="url(#clip231)" style="stroke:#000000; stroke-linecap:round; stroke-linejoin:round; stroke-width:2; stroke-opacity:0.1; fill:none" points="1638.25,1486.45 1638.25,47.2441 "/>
<polyline clip-path="url(#clip231)" style="stroke:#000000; stroke-linecap:round; stroke-linejoin:round; stroke-width:2; stroke-opacity:0.1; fill:none" points="1867.37,1486.45 1867.37,47.2441 "/>
<polyline clip-path="url(#clip231)" style="stroke:#000000; stroke-linecap:round; stroke-linejoin:round; stroke-width:2; stroke-opacity:0.1; fill:none" points="2096.49,1486.45 2096.49,47.2441 "/>
<polyline clip-path="url(#clip231)" style="stroke:#000000; stroke-linecap:round; stroke-linejoin:round; stroke-width:2; stroke-opacity:0.1; fill:none" points="2325.61,1486.45 2325.61,47.2441 "/>
<polyline clip-path="url(#clip231)" style="stroke:#000000; stroke-linecap:round; stroke-linejoin:round; stroke-width:2; stroke-opacity:0.1; fill:none" points="1393.44,1242.68 2352.76,1242.68 "/>
<polyline clip-path="url(#clip231)" style="stroke:#000000; stroke-linecap:round; stroke-linejoin:round; stroke-width:2; stroke-opacity:0.1; fill:none" points="1393.44,909.635 2352.76,909.635 "/>
<polyline clip-path="url(#clip231)" style="stroke:#000000; stroke-linecap:round; stroke-linejoin:round; stroke-width:2; stroke-opacity:0.1; fill:none" points="1393.44,576.59 2352.76,576.59 "/>
<polyline clip-path="url(#clip231)" style="stroke:#000000; stroke-linecap:round; stroke-linejoin:round; stroke-width:2; stroke-opacity:0.1; fill:none" points="1393.44,243.545 2352.76,243.545 "/>
<polyline clip-path="url(#clip230)" style="stroke:#000000; stroke-linecap:round; stroke-linejoin:round; stroke-width:4; stroke-opacity:1; fill:none" points="1393.44,1486.45 2352.76,1486.45 "/>
<polyline clip-path="url(#clip230)" style="stroke:#000000; stroke-linecap:round; stroke-linejoin:round; stroke-width:4; stroke-opacity:1; fill:none" points="1409.13,1486.45 1409.13,1467.55 "/>
<polyline clip-path="url(#clip230)" style="stroke:#000000; stroke-linecap:round; stroke-linejoin:round; stroke-width:4; stroke-opacity:1; fill:none" points="1638.25,1486.45 1638.25,1467.55 "/>
<polyline clip-path="url(#clip230)" style="stroke:#000000; stroke-linecap:round; stroke-linejoin:round; stroke-width:4; stroke-opacity:1; fill:none" points="1867.37,1486.45 1867.37,1467.55 "/>
<polyline clip-path="url(#clip230)" style="stroke:#000000; stroke-linecap:round; stroke-linejoin:round; stroke-width:4; stroke-opacity:1; fill:none" points="2096.49,1486.45 2096.49,1467.55 "/>
<polyline clip-path="url(#clip230)" style="stroke:#000000; stroke-linecap:round; stroke-linejoin:round; stroke-width:4; stroke-opacity:1; fill:none" points="2325.61,1486.45 2325.61,1467.55 "/>
<path clip-path="url(#clip230)" d="M1409.13 1517.37 Q1405.52 1517.37 1403.69 1520.93 Q1401.89 1524.47 1401.89 1531.6 Q1401.89 1538.71 1403.69 1542.27 Q1405.52 1545.82 1409.13 1545.82 Q1412.77 1545.82 1414.57 1542.27 Q1416.4 1538.71 1416.4 1531.6 Q1416.4 1524.47 1414.57 1520.93 Q1412.77 1517.37 1409.13 1517.37 M1409.13 1513.66 Q1414.94 1513.66 1418 1518.27 Q1421.08 1522.85 1421.08 1531.6 Q1421.08 1540.33 1418 1544.94 Q1414.94 1549.52 1409.13 1549.52 Q1403.32 1549.52 1400.24 1544.94 Q1397.19 1540.33 1397.19 1531.6 Q1397.19 1522.85 1400.24 1518.27 Q1403.32 1513.66 1409.13 1513.66 Z" fill="#000000" fill-rule="nonzero" fill-opacity="1" /><path clip-path="url(#clip230)" d="M1617.02 1544.91 L1633.34 1544.91 L1633.34 1548.85 L1611.4 1548.85 L1611.4 1544.91 Q1614.06 1542.16 1618.64 1537.53 Q1623.25 1532.88 1624.43 1531.53 Q1626.68 1529.01 1627.56 1527.27 Q1628.46 1525.51 1628.46 1523.82 Q1628.46 1521.07 1626.51 1519.33 Q1624.59 1517.6 1621.49 1517.6 Q1619.29 1517.6 1616.84 1518.36 Q1614.41 1519.13 1611.63 1520.68 L1611.63 1515.95 Q1614.45 1514.82 1616.91 1514.24 Q1619.36 1513.66 1621.4 1513.66 Q1626.77 1513.66 1629.96 1516.35 Q1633.16 1519.03 1633.16 1523.52 Q1633.16 1525.65 1632.35 1527.57 Q1631.56 1529.47 1629.45 1532.07 Q1628.88 1532.74 1625.77 1535.95 Q1622.67 1539.15 1617.02 1544.91 Z" fill="#000000" fill-rule="nonzero" fill-opacity="1" /><path clip-path="url(#clip230)" d="M1653.16 1517.37 Q1649.55 1517.37 1647.72 1520.93 Q1645.91 1524.47 1645.91 1531.6 Q1645.91 1538.71 1647.72 1542.27 Q1649.55 1545.82 1653.16 1545.82 Q1656.79 1545.82 1658.6 1542.27 Q1660.43 1538.71 1660.43 1531.6 Q1660.43 1524.47 1658.6 1520.93 Q1656.79 1517.37 1653.16 1517.37 M1653.16 1513.66 Q1658.97 1513.66 1662.02 1518.27 Q1665.1 1522.85 1665.1 1531.6 Q1665.1 1540.33 1662.02 1544.94 Q1658.97 1549.52 1653.16 1549.52 Q1647.35 1549.52 1644.27 1544.94 Q1641.21 1540.33 1641.21 1531.6 Q1641.21 1522.85 1644.27 1518.27 Q1647.35 1513.66 1653.16 1513.66 Z" fill="#000000" fill-rule="nonzero" fill-opacity="1" /><path clip-path="url(#clip230)" d="M1855.54 1518.36 L1843.74 1536.81 L1855.54 1536.81 L1855.54 1518.36 M1854.31 1514.29 L1860.19 1514.29 L1860.19 1536.81 L1865.12 1536.81 L1865.12 1540.7 L1860.19 1540.7 L1860.19 1548.85 L1855.54 1548.85 L1855.54 1540.7 L1839.94 1540.7 L1839.94 1536.19 L1854.31 1514.29 Z" fill="#000000" fill-rule="nonzero" fill-opacity="1" /><path clip-path="url(#clip230)" d="M1882.86 1517.37 Q1879.24 1517.37 1877.42 1520.93 Q1875.61 1524.47 1875.61 1531.6 Q1875.61 1538.71 1877.42 1542.27 Q1879.24 1545.82 1882.86 1545.82 Q1886.49 1545.82 1888.29 1542.27 Q1890.12 1538.71 1890.12 1531.6 Q1890.12 1524.47 1888.29 1520.93 Q1886.49 1517.37 1882.86 1517.37 M1882.86 1513.66 Q1888.67 1513.66 1891.72 1518.27 Q1894.8 1522.85 1894.8 1531.6 Q1894.8 1540.33 1891.72 1544.94 Q1888.67 1549.52 1882.86 1549.52 Q1877.05 1549.52 1873.97 1544.94 Q1870.91 1540.33 1870.91 1531.6 Q1870.91 1522.85 1873.97 1518.27 Q1877.05 1513.66 1882.86 1513.66 Z" fill="#000000" fill-rule="nonzero" fill-opacity="1" /><path clip-path="url(#clip230)" d="M2081.89 1529.7 Q2078.74 1529.7 2076.89 1531.86 Q2075.06 1534.01 2075.06 1537.76 Q2075.06 1541.49 2076.89 1543.66 Q2078.74 1545.82 2081.89 1545.82 Q2085.04 1545.82 2086.87 1543.66 Q2088.72 1541.49 2088.72 1537.76 Q2088.72 1534.01 2086.87 1531.86 Q2085.04 1529.7 2081.89 1529.7 M2091.17 1515.05 L2091.17 1519.31 Q2089.42 1518.48 2087.61 1518.04 Q2085.83 1517.6 2084.07 1517.6 Q2079.44 1517.6 2076.99 1520.72 Q2074.55 1523.85 2074.21 1530.17 Q2075.57 1528.15 2077.63 1527.09 Q2079.69 1526 2082.17 1526 Q2087.38 1526 2090.39 1529.17 Q2093.42 1532.32 2093.42 1537.76 Q2093.42 1543.08 2090.27 1546.3 Q2087.12 1549.52 2081.89 1549.52 Q2075.9 1549.52 2072.73 1544.94 Q2069.55 1540.33 2069.55 1531.6 Q2069.55 1523.41 2073.44 1518.55 Q2077.33 1513.66 2083.88 1513.66 Q2085.64 1513.66 2087.42 1514.01 Q2089.23 1514.36 2091.17 1515.05 Z" fill="#000000" fill-rule="nonzero" fill-opacity="1" /><path clip-path="url(#clip230)" d="M2111.48 1517.37 Q2107.86 1517.37 2106.04 1520.93 Q2104.23 1524.47 2104.23 1531.6 Q2104.23 1538.71 2106.04 1542.27 Q2107.86 1545.82 2111.48 1545.82 Q2115.11 1545.82 2116.92 1542.27 Q2118.74 1538.71 2118.74 1531.6 Q2118.74 1524.47 2116.92 1520.93 Q2115.11 1517.37 2111.48 1517.37 M2111.48 1513.66 Q2117.29 1513.66 2120.34 1518.27 Q2123.42 1522.85 2123.42 1531.6 Q2123.42 1540.33 2120.34 1544.94 Q2117.29 1549.52 2111.48 1549.52 Q2105.67 1549.52 2102.59 1544.94 Q2099.53 1540.33 2099.53 1531.6 Q2099.53 1522.85 2102.59 1518.27 Q2105.67 1513.66 2111.48 1513.66 Z" fill="#000000" fill-rule="nonzero" fill-opacity="1" /><path clip-path="url(#clip230)" d="M2310.48 1532.44 Q2307.14 1532.44 2305.22 1534.22 Q2303.33 1536 2303.33 1539.13 Q2303.33 1542.25 2305.22 1544.03 Q2307.14 1545.82 2310.48 1545.82 Q2313.81 1545.82 2315.73 1544.03 Q2317.65 1542.23 2317.65 1539.13 Q2317.65 1536 2315.73 1534.22 Q2313.83 1532.44 2310.48 1532.44 M2305.8 1530.45 Q2302.79 1529.7 2301.1 1527.64 Q2299.44 1525.58 2299.44 1522.62 Q2299.44 1518.48 2302.38 1516.07 Q2305.34 1513.66 2310.48 1513.66 Q2315.64 1513.66 2318.58 1516.07 Q2321.52 1518.48 2321.52 1522.62 Q2321.52 1525.58 2319.83 1527.64 Q2318.16 1529.7 2315.18 1530.45 Q2318.56 1531.23 2320.43 1533.52 Q2322.33 1535.82 2322.33 1539.13 Q2322.33 1544.15 2319.25 1546.83 Q2316.2 1549.52 2310.48 1549.52 Q2304.76 1549.52 2301.68 1546.83 Q2298.63 1544.15 2298.63 1539.13 Q2298.63 1535.82 2300.52 1533.52 Q2302.42 1531.23 2305.8 1530.45 M2304.09 1523.06 Q2304.09 1525.75 2305.76 1527.25 Q2307.45 1528.76 2310.48 1528.76 Q2313.49 1528.76 2315.18 1527.25 Q2316.89 1525.75 2316.89 1523.06 Q2316.89 1520.38 2315.18 1518.87 Q2313.49 1517.37 2310.48 1517.37 Q2307.45 1517.37 2305.76 1518.87 Q2304.09 1520.38 2304.09 1523.06 Z" fill="#000000" fill-rule="nonzero" fill-opacity="1" /><path clip-path="url(#clip230)" d="M2340.64 1517.37 Q2337.03 1517.37 2335.2 1520.93 Q2333.39 1524.47 2333.39 1531.6 Q2333.39 1538.71 2335.2 1542.27 Q2337.03 1545.82 2340.64 1545.82 Q2344.27 1545.82 2346.08 1542.27 Q2347.91 1538.71 2347.91 1531.6 Q2347.91 1524.47 2346.08 1520.93 Q2344.27 1517.37 2340.64 1517.37 M2340.64 1513.66 Q2346.45 1513.66 2349.51 1518.27 Q2352.58 1522.85 2352.58 1531.6 Q2352.58 1540.33 2349.51 1544.94 Q2346.45 1549.52 2340.64 1549.52 Q2334.83 1549.52 2331.75 1544.94 Q2328.7 1540.33 2328.7 1531.6 Q2328.7 1522.85 2331.75 1518.27 Q2334.83 1513.66 2340.64 1513.66 Z" fill="#000000" fill-rule="nonzero" fill-opacity="1" /><polyline clip-path="url(#clip230)" style="stroke:#000000; stroke-linecap:round; stroke-linejoin:round; stroke-width:4; stroke-opacity:1; fill:none" points="1393.44,1486.45 1393.44,47.2441 "/>
<polyline clip-path="url(#clip230)" style="stroke:#000000; stroke-linecap:round; stroke-linejoin:round; stroke-width:4; stroke-opacity:1; fill:none" points="1393.44,1242.68 1412.34,1242.68 "/>
<polyline clip-path="url(#clip230)" style="stroke:#000000; stroke-linecap:round; stroke-linejoin:round; stroke-width:4; stroke-opacity:1; fill:none" points="1393.44,909.635 1412.34,909.635 "/>
<polyline clip-path="url(#clip230)" style="stroke:#000000; stroke-linecap:round; stroke-linejoin:round; stroke-width:4; stroke-opacity:1; fill:none" points="1393.44,576.59 1412.34,576.59 "/>
<polyline clip-path="url(#clip230)" style="stroke:#000000; stroke-linecap:round; stroke-linejoin:round; stroke-width:4; stroke-opacity:1; fill:none" points="1393.44,243.545 1412.34,243.545 "/>
<path clip-path="url(#clip230)" d="M1251.49 1243.13 L1281.17 1243.13 L1281.17 1247.07 L1251.49 1247.07 L1251.49 1243.13 Z" fill="#000000" fill-rule="nonzero" fill-opacity="1" /><path clip-path="url(#clip230)" d="M1301.26 1228.48 Q1297.65 1228.48 1295.82 1232.04 Q1294.01 1235.59 1294.01 1242.72 Q1294.01 1249.82 1295.82 1253.39 Q1297.65 1256.93 1301.26 1256.93 Q1304.89 1256.93 1306.7 1253.39 Q1308.53 1249.82 1308.53 1242.72 Q1308.53 1235.59 1306.7 1232.04 Q1304.89 1228.48 1301.26 1228.48 M1301.26 1224.78 Q1307.07 1224.78 1310.12 1229.38 Q1313.2 1233.97 1313.2 1242.72 Q1313.2 1251.44 1310.12 1256.05 Q1307.07 1260.63 1301.26 1260.63 Q1295.45 1260.63 1292.37 1256.05 Q1289.31 1251.44 1289.31 1242.72 Q1289.31 1233.97 1292.37 1229.38 Q1295.45 1224.78 1301.26 1224.78 Z" fill="#000000" fill-rule="nonzero" fill-opacity="1" /><path clip-path="url(#clip230)" d="M1321.42 1254.08 L1326.3 1254.08 L1326.3 1259.96 L1321.42 1259.96 L1321.42 1254.08 Z" fill="#000000" fill-rule="nonzero" fill-opacity="1" /><path clip-path="url(#clip230)" d="M1336.54 1225.4 L1354.89 1225.4 L1354.89 1229.34 L1340.82 1229.34 L1340.82 1237.81 Q1341.84 1237.46 1342.86 1237.3 Q1343.87 1237.11 1344.89 1237.11 Q1350.68 1237.11 1354.06 1240.28 Q1357.44 1243.46 1357.44 1248.87 Q1357.44 1254.45 1353.97 1257.55 Q1350.49 1260.63 1344.17 1260.63 Q1342 1260.63 1339.73 1260.26 Q1337.48 1259.89 1335.08 1259.15 L1335.08 1254.45 Q1337.16 1255.59 1339.38 1256.14 Q1341.61 1256.7 1344.08 1256.7 Q1348.09 1256.7 1350.42 1254.59 Q1352.76 1252.48 1352.76 1248.87 Q1352.76 1245.26 1350.42 1243.15 Q1348.09 1241.05 1344.08 1241.05 Q1342.21 1241.05 1340.33 1241.47 Q1338.48 1241.88 1336.54 1242.76 L1336.54 1225.4 Z" fill="#000000" fill-rule="nonzero" fill-opacity="1" /><path clip-path="url(#clip230)" d="M1300.26 895.434 Q1296.65 895.434 1294.82 898.999 Q1293.02 902.54 1293.02 909.67 Q1293.02 916.776 1294.82 920.341 Q1296.65 923.883 1300.26 923.883 Q1303.9 923.883 1305.7 920.341 Q1307.53 916.776 1307.53 909.67 Q1307.53 902.54 1305.7 898.999 Q1303.9 895.434 1300.26 895.434 M1300.26 891.73 Q1306.07 891.73 1309.13 896.337 Q1312.21 900.92 1312.21 909.67 Q1312.21 918.397 1309.13 923.003 Q1306.07 927.587 1300.26 927.587 Q1294.45 927.587 1291.37 923.003 Q1288.32 918.397 1288.32 909.67 Q1288.32 900.92 1291.37 896.337 Q1294.45 891.73 1300.26 891.73 Z" fill="#000000" fill-rule="nonzero" fill-opacity="1" /><path clip-path="url(#clip230)" d="M1320.42 921.036 L1325.31 921.036 L1325.31 926.915 L1320.42 926.915 L1320.42 921.036 Z" fill="#000000" fill-rule="nonzero" fill-opacity="1" /><path clip-path="url(#clip230)" d="M1345.49 895.434 Q1341.88 895.434 1340.05 898.999 Q1338.25 902.54 1338.25 909.67 Q1338.25 916.776 1340.05 920.341 Q1341.88 923.883 1345.49 923.883 Q1349.13 923.883 1350.93 920.341 Q1352.76 916.776 1352.76 909.67 Q1352.76 902.54 1350.93 898.999 Q1349.13 895.434 1345.49 895.434 M1345.49 891.73 Q1351.3 891.73 1354.36 896.337 Q1357.44 900.92 1357.44 909.67 Q1357.44 918.397 1354.36 923.003 Q1351.3 927.587 1345.49 927.587 Q1339.68 927.587 1336.61 923.003 Q1333.55 918.397 1333.55 909.67 Q1333.55 900.92 1336.61 896.337 Q1339.68 891.73 1345.49 891.73 Z" fill="#000000" fill-rule="nonzero" fill-opacity="1" /><path clip-path="url(#clip230)" d="M1301.26 562.389 Q1297.65 562.389 1295.82 565.954 Q1294.01 569.495 1294.01 576.625 Q1294.01 583.731 1295.82 587.296 Q1297.65 590.838 1301.26 590.838 Q1304.89 590.838 1306.7 587.296 Q1308.53 583.731 1308.53 576.625 Q1308.53 569.495 1306.7 565.954 Q1304.89 562.389 1301.26 562.389 M1301.26 558.685 Q1307.07 558.685 1310.12 563.292 Q1313.2 567.875 1313.2 576.625 Q1313.2 585.352 1310.12 589.958 Q1307.07 594.541 1301.26 594.541 Q1295.45 594.541 1292.37 589.958 Q1289.31 585.352 1289.31 576.625 Q1289.31 567.875 1292.37 563.292 Q1295.45 558.685 1301.26 558.685 Z" fill="#000000" fill-rule="nonzero" fill-opacity="1" /><path clip-path="url(#clip230)" d="M1321.42 587.99 L1326.3 587.99 L1326.3 593.87 L1321.42 593.87 L1321.42 587.99 Z" fill="#000000" fill-rule="nonzero" fill-opacity="1" /><path clip-path="url(#clip230)" d="M1336.54 559.31 L1354.89 559.31 L1354.89 563.245 L1340.82 563.245 L1340.82 571.717 Q1341.84 571.37 1342.86 571.208 Q1343.87 571.023 1344.89 571.023 Q1350.68 571.023 1354.06 574.194 Q1357.44 577.366 1357.44 582.782 Q1357.44 588.361 1353.97 591.463 Q1350.49 594.541 1344.17 594.541 Q1342 594.541 1339.73 594.171 Q1337.48 593.801 1335.08 593.06 L1335.08 588.361 Q1337.16 589.495 1339.38 590.051 Q1341.61 590.606 1344.08 590.606 Q1348.09 590.606 1350.42 588.5 Q1352.76 586.393 1352.76 582.782 Q1352.76 579.171 1350.42 577.065 Q1348.09 574.958 1344.08 574.958 Q1342.21 574.958 1340.33 575.375 Q1338.48 575.791 1336.54 576.671 L1336.54 559.31 Z" fill="#000000" fill-rule="nonzero" fill-opacity="1" /><path clip-path="url(#clip230)" d="M1291.07 256.89 L1298.71 256.89 L1298.71 230.524 L1290.4 232.191 L1290.4 227.932 L1298.67 226.265 L1303.34 226.265 L1303.34 256.89 L1310.98 256.89 L1310.98 260.825 L1291.07 260.825 L1291.07 256.89 Z" fill="#000000" fill-rule="nonzero" fill-opacity="1" /><path clip-path="url(#clip230)" d="M1320.42 254.945 L1325.31 254.945 L1325.31 260.825 L1320.42 260.825 L1320.42 254.945 Z" fill="#000000" fill-rule="nonzero" fill-opacity="1" /><path clip-path="url(#clip230)" d="M1345.49 229.344 Q1341.88 229.344 1340.05 232.908 Q1338.25 236.45 1338.25 243.58 Q1338.25 250.686 1340.05 254.251 Q1341.88 257.792 1345.49 257.792 Q1349.13 257.792 1350.93 254.251 Q1352.76 250.686 1352.76 243.58 Q1352.76 236.45 1350.93 232.908 Q1349.13 229.344 1345.49 229.344 M1345.49 225.64 Q1351.3 225.64 1354.36 230.246 Q1357.44 234.83 1357.44 243.58 Q1357.44 252.306 1354.36 256.913 Q1351.3 261.496 1345.49 261.496 Q1339.68 261.496 1336.61 256.913 Q1333.55 252.306 1333.55 243.58 Q1333.55 234.83 1336.61 230.246 Q1339.68 225.64 1345.49 225.64 Z" fill="#000000" fill-rule="nonzero" fill-opacity="1" /><polyline clip-path="url(#clip231)" style="stroke:#009af9; stroke-linecap:round; stroke-linejoin:round; stroke-width:4; stroke-opacity:1; fill:none" points="1420.59,1380.82 1432.04,1408.95 1443.5,1391.91 1454.96,1381.31 1466.41,1358.14 1477.87,1316.13 1489.32,1302.25 1500.78,1258.59 1512.24,1194.2 1523.69,1168.36 1535.15,1175.95 1546.6,1199.33 1558.06,1210.12 1569.52,1179.58 1580.97,1165.12 1592.43,1137.05 1603.88,1025.35 1615.34,939.044 1626.8,893.661 1638.25,858.415 1649.71,776.783 1661.16,658.79 1672.62,568.039 1684.07,537.987 1695.53,520.78 1706.99,513.974 1718.44,489.022 1729.9,456.065 1741.35,422.206 1752.81,365.722 1764.27,350.469 1775.72,316.087 1787.18,299.584 1798.63,241.654 1810.09,231.969 1821.55,201.919 1833,167.131 1844.46,158.084 1855.91,151.363 1867.37,159.515 1878.83,156.268 1890.28,107.667 1901.74,135.3 1913.19,105.853 1924.65,158.057 1936.1,205.996 1947.56,272.986 1959.02,269.572 1970.47,302.045 1981.93,376.586 1993.38,446.881 2004.84,515.537 2016.3,602.666 2027.75,655.399 2039.21,666.213 2050.66,695.953 2062.12,717.037 2073.58,749.975 2085.03,777.261 2096.49,770.1 2107.94,766.899 2119.4,757.716 2130.86,799.253 2142.31,840.236 2153.77,857.687 2165.22,883.541 2176.68,930.154 2188.13,988.286 2199.59,999.464 2211.05,1051.27 2222.5,1083.7 2233.96,1110.67 2245.41,1137.78 2256.87,1184.25 2268.33,1228.87 2279.78,1275.32 2291.24,1284.24 2302.69,1355.41 2314.15,1392.44 2325.61,1417.52 "/>
<polyline clip-path="url(#clip231)" style="stroke:#e26f46; stroke-linecap:round; stroke-linejoin:round; stroke-width:4; stroke-opacity:1; fill:none" points="1420.59,1402.71 1432.04,1424.07 1443.5,1407.1 1454.96,1388.09 1466.41,1359.41 1477.87,1313.93 1489.32,1297.36 1500.78,1247.91 1512.24,1186.15 1523.69,1166.34 1535.15,1178.41 1546.6,1207.38 1558.06,1225.86 1569.52,1199.79 1580.97,1183.85 1592.43,1148.46 1603.88,1022.87 1615.34,937.829 1626.8,895.321 1638.25,865.238 1649.71,782.198 1661.16,664.554 1672.62,569.686 1684.07,536.747 1695.53,517.35 1706.99,506.995 1718.44,491.242 1729.9,462.521 1741.35,418.822 1752.81,363.399 1764.27,348.869 1775.72,313.463 1787.18,303.533 1798.63,248.53 1810.09,233.454 1821.55,191.483 1833,153.881 1844.46,147.242 1855.91,145.9 1867.37,152.399 1878.83,146.19 1890.28,95.7625 1901.74,127.553 1913.19,87.9763 1924.65,144.716 1936.1,202.252 1947.56,274.853 1959.02,275.182 1970.47,310.776 1981.93,380.874 1993.38,446.778 2004.84,507.865 2016.3,604.884 2027.75,662.578 2039.21,669.902 2050.66,699.979 2062.12,723.852 2073.58,759.696 2085.03,793.062 2096.49,789.051 2107.94,783.044 2119.4,773.296 2130.86,818.351 2142.31,854.101 2153.77,866.064 2165.22,890.427 2176.68,935.328 2188.13,994.355 2199.59,999.04 2211.05,1053.53 2222.5,1084.57 2233.96,1126.74 2245.41,1144.66 2256.87,1182.28 2268.33,1222.4 2279.78,1275.33 2291.24,1280.61 2302.69,1354.07 2314.15,1382.45 2325.61,1408.79 "/>
<polyline clip-path="url(#clip231)" style="stroke:#3da44d; stroke-linecap:round; stroke-linejoin:round; stroke-width:4; stroke-opacity:1; fill:none" points="1420.59,1445.72 1432.04,1402.48 1443.5,1347.09 1454.96,1324.58 1466.41,1332.79 1477.87,1337.57 1489.32,1251.94 1500.78,1293.83 1512.24,1321.37 1523.69,1225.63 1535.15,1201.25 1546.6,1269.77 1558.06,1249.54 1569.52,1249.89 1580.97,1213.49 1592.43,1073.82 1603.88,959.846 1615.34,823.737 1626.8,756.438 1638.25,772.078 1649.71,756.86 1661.16,663.896 1672.62,516.822 1684.07,481.291 1695.53,482.673 1706.99,474.103 1718.44,539.898 1729.9,539.897 1741.35,441.66 1752.81,402.41 1764.27,385.242 1775.72,317.505 1787.18,314.221 1798.63,163.41 1810.09,130.859 1821.55,207.533 1833,318.313 1844.46,244.848 1855.91,256.113 1867.37,181.366 1878.83,114.276 1890.28,131.809 1901.74,121.651 1913.19,98.9099 1924.65,180.006 1936.1,233.556 1947.56,320.078 1959.02,337.64 1970.47,368.653 1981.93,329.014 1993.38,428.329 2004.84,450.345 2016.3,540.653 2027.75,644.369 2039.21,658.288 2050.66,718.993 2062.12,730.009 2073.58,803.873 2085.03,830.595 2096.49,837.29 2107.94,810.376 2119.4,799.953 2130.86,830.906 2142.31,957.983 2153.77,861.318 2165.22,876.021 2176.68,907.108 2188.13,978.086 2199.59,1002.35 2211.05,1023.46 2222.5,916.232 2233.96,1081.76 2245.41,1147.08 2256.87,1169.15 2268.33,1219.14 2279.78,1355.36 2291.24,1402.88 2302.69,1438.24 2314.15,1439.67 2325.61,1432.28 "/>
<path clip-path="url(#clip230)" d="M1863.18 302.578 L2320.78 302.578 L2320.78 95.2176 L1863.18 95.2176  Z" fill="#ffffff" fill-rule="evenodd" fill-opacity="1"/>
<polyline clip-path="url(#clip230)" style="stroke:#000000; stroke-linecap:round; stroke-linejoin:round; stroke-width:4; stroke-opacity:1; fill:none" points="1863.18,302.578 2320.78,302.578 2320.78,95.2176 1863.18,95.2176 1863.18,302.578 "/>
<polyline clip-path="url(#clip230)" style="stroke:#009af9; stroke-linecap:round; stroke-linejoin:round; stroke-width:4; stroke-opacity:1; fill:none" points="1873.84,147.058 1937.8,147.058 "/>
<path clip-path="url(#clip230)" d="M1948.45 129.778 L1953.13 129.778 L1953.13 144.384 L1968.64 129.778 L1974.66 129.778 L1957.51 145.889 L1975.89 164.338 L1969.73 164.338 L1953.13 147.694 L1953.13 164.338 L1948.45 164.338 L1948.45 129.778 Z" fill="#000000" fill-rule="nonzero" fill-opacity="1" /><path clip-path="url(#clip230)" d="M1990.31 151.305 Q1985.14 151.305 1983.15 152.486 Q1981.16 153.666 1981.16 156.514 Q1981.16 158.782 1982.64 160.125 Q1984.15 161.444 1986.72 161.444 Q1990.26 161.444 1992.39 158.944 Q1994.54 156.421 1994.54 152.254 L1994.54 151.305 L1990.31 151.305 M1998.8 149.546 L1998.8 164.338 L1994.54 164.338 L1994.54 160.402 Q1993.08 162.763 1990.91 163.898 Q1988.73 165.009 1985.58 165.009 Q1981.6 165.009 1979.24 162.787 Q1976.9 160.541 1976.9 156.791 Q1976.9 152.416 1979.82 150.194 Q1982.76 147.972 1988.57 147.972 L1994.54 147.972 L1994.54 147.555 Q1994.54 144.615 1992.6 143.018 Q1990.68 141.398 1987.18 141.398 Q1984.96 141.398 1982.85 141.93 Q1980.75 142.463 1978.8 143.527 L1978.8 139.592 Q1981.14 138.69 1983.34 138.25 Q1985.54 137.787 1987.62 137.787 Q1993.25 137.787 1996.02 140.703 Q1998.8 143.62 1998.8 149.546 Z" fill="#000000" fill-rule="nonzero" fill-opacity="1" /><path clip-path="url(#clip230)" d="M2007.57 128.319 L2011.83 128.319 L2011.83 164.338 L2007.57 164.338 L2007.57 128.319 Z" fill="#000000" fill-rule="nonzero" fill-opacity="1" /><path clip-path="url(#clip230)" d="M2040.93 143.389 Q2042.53 140.518 2044.75 139.153 Q2046.97 137.787 2049.98 137.787 Q2054.03 137.787 2056.23 140.634 Q2058.43 143.458 2058.43 148.689 L2058.43 164.338 L2054.15 164.338 L2054.15 148.828 Q2054.15 145.102 2052.83 143.296 Q2051.51 141.49 2048.8 141.49 Q2045.49 141.49 2043.57 143.69 Q2041.65 145.889 2041.65 149.685 L2041.65 164.338 L2037.37 164.338 L2037.37 148.828 Q2037.37 145.078 2036.05 143.296 Q2034.73 141.49 2031.97 141.49 Q2028.71 141.49 2026.79 143.713 Q2024.87 145.912 2024.87 149.685 L2024.87 164.338 L2020.58 164.338 L2020.58 138.412 L2024.87 138.412 L2024.87 142.44 Q2026.32 140.055 2028.36 138.921 Q2030.4 137.787 2033.2 137.787 Q2036.02 137.787 2037.99 139.222 Q2039.98 140.657 2040.93 143.389 Z" fill="#000000" fill-rule="nonzero" fill-opacity="1" /><path clip-path="url(#clip230)" d="M2078.71 151.305 Q2073.55 151.305 2071.56 152.486 Q2069.57 153.666 2069.57 156.514 Q2069.57 158.782 2071.05 160.125 Q2072.55 161.444 2075.12 161.444 Q2078.66 161.444 2080.79 158.944 Q2082.94 156.421 2082.94 152.254 L2082.94 151.305 L2078.71 151.305 M2087.2 149.546 L2087.2 164.338 L2082.94 164.338 L2082.94 160.402 Q2081.49 162.763 2079.31 163.898 Q2077.13 165.009 2073.99 165.009 Q2070.01 165.009 2067.64 162.787 Q2065.31 160.541 2065.31 156.791 Q2065.31 152.416 2068.22 150.194 Q2071.16 147.972 2076.97 147.972 L2082.94 147.972 L2082.94 147.555 Q2082.94 144.615 2081 143.018 Q2079.08 141.398 2075.58 141.398 Q2073.36 141.398 2071.26 141.93 Q2069.15 142.463 2067.2 143.527 L2067.2 139.592 Q2069.54 138.69 2071.74 138.25 Q2073.94 137.787 2076.02 137.787 Q2081.65 137.787 2084.43 140.703 Q2087.2 143.62 2087.2 149.546 Z" fill="#000000" fill-rule="nonzero" fill-opacity="1" /><path clip-path="url(#clip230)" d="M2117.53 148.689 L2117.53 164.338 L2113.27 164.338 L2113.27 148.828 Q2113.27 145.148 2111.83 143.319 Q2110.4 141.49 2107.53 141.49 Q2104.08 141.49 2102.09 143.69 Q2100.1 145.889 2100.1 149.685 L2100.1 164.338 L2095.82 164.338 L2095.82 138.412 L2100.1 138.412 L2100.1 142.44 Q2101.63 140.102 2103.69 138.944 Q2105.77 137.787 2108.48 137.787 Q2112.94 137.787 2115.24 140.565 Q2117.53 143.319 2117.53 148.689 Z" fill="#000000" fill-rule="nonzero" fill-opacity="1" /><path clip-path="url(#clip230)" d="M2157.62 139.176 L2157.62 143.203 Q2155.81 142.277 2153.87 141.815 Q2151.93 141.352 2149.84 141.352 Q2146.67 141.352 2145.07 142.324 Q2143.5 143.296 2143.5 145.24 Q2143.5 146.722 2144.63 147.578 Q2145.77 148.412 2149.19 149.176 L2150.65 149.5 Q2155.19 150.472 2157.09 152.254 Q2159.01 154.014 2159.01 157.185 Q2159.01 160.796 2156.14 162.902 Q2153.29 165.009 2148.29 165.009 Q2146.21 165.009 2143.94 164.592 Q2141.69 164.199 2139.19 163.388 L2139.19 158.99 Q2141.56 160.217 2143.85 160.842 Q2146.14 161.444 2148.38 161.444 Q2151.39 161.444 2153.01 160.426 Q2154.63 159.384 2154.63 157.509 Q2154.63 155.773 2153.45 154.847 Q2152.3 153.921 2148.34 153.064 L2146.86 152.717 Q2142.9 151.884 2141.14 150.171 Q2139.38 148.435 2139.38 145.426 Q2139.38 141.768 2141.97 139.778 Q2144.56 137.787 2149.33 137.787 Q2151.69 137.787 2153.78 138.134 Q2155.86 138.481 2157.62 139.176 Z" fill="#000000" fill-rule="nonzero" fill-opacity="1" /><path clip-path="url(#clip230)" d="M2185.98 143.389 Q2187.57 140.518 2189.8 139.153 Q2192.02 137.787 2195.03 137.787 Q2199.08 137.787 2201.28 140.634 Q2203.48 143.458 2203.48 148.689 L2203.48 164.338 L2199.19 164.338 L2199.19 148.828 Q2199.19 145.102 2197.87 143.296 Q2196.56 141.49 2193.85 141.49 Q2190.54 141.49 2188.62 143.69 Q2186.69 145.889 2186.69 149.685 L2186.69 164.338 L2182.41 164.338 L2182.41 148.828 Q2182.41 145.078 2181.09 143.296 Q2179.77 141.49 2177.02 141.49 Q2173.75 141.49 2171.83 143.713 Q2169.91 145.912 2169.91 149.685 L2169.91 164.338 L2165.63 164.338 L2165.63 138.412 L2169.91 138.412 L2169.91 142.44 Q2171.37 140.055 2173.41 138.921 Q2175.44 137.787 2178.25 137.787 Q2181.07 137.787 2183.04 139.222 Q2185.03 140.657 2185.98 143.389 Z" fill="#000000" fill-rule="nonzero" fill-opacity="1" /><path clip-path="url(#clip230)" d="M2222.02 141.398 Q2218.59 141.398 2216.6 144.083 Q2214.61 146.745 2214.61 151.398 Q2214.61 156.051 2216.58 158.736 Q2218.57 161.398 2222.02 161.398 Q2225.42 161.398 2227.41 158.713 Q2229.4 156.027 2229.4 151.398 Q2229.4 146.791 2227.41 144.106 Q2225.42 141.398 2222.02 141.398 M2222.02 137.787 Q2227.57 137.787 2230.74 141.398 Q2233.92 145.009 2233.92 151.398 Q2233.92 157.764 2230.74 161.398 Q2227.57 165.009 2222.02 165.009 Q2216.44 165.009 2213.27 161.398 Q2210.12 157.764 2210.12 151.398 Q2210.12 145.009 2213.27 141.398 Q2216.44 137.787 2222.02 137.787 Z" fill="#000000" fill-rule="nonzero" fill-opacity="1" /><path clip-path="url(#clip230)" d="M2251.02 141.398 Q2247.6 141.398 2245.61 144.083 Q2243.62 146.745 2243.62 151.398 Q2243.62 156.051 2245.58 158.736 Q2247.57 161.398 2251.02 161.398 Q2254.43 161.398 2256.42 158.713 Q2258.41 156.027 2258.41 151.398 Q2258.41 146.791 2256.42 144.106 Q2254.43 141.398 2251.02 141.398 M2251.02 137.787 Q2256.58 137.787 2259.75 141.398 Q2262.92 145.009 2262.92 151.398 Q2262.92 157.764 2259.75 161.398 Q2256.58 165.009 2251.02 165.009 Q2245.44 165.009 2242.27 161.398 Q2239.12 157.764 2239.12 151.398 Q2239.12 145.009 2242.27 141.398 Q2245.44 137.787 2251.02 137.787 Z" fill="#000000" fill-rule="nonzero" fill-opacity="1" /><path clip-path="url(#clip230)" d="M2274.19 131.051 L2274.19 138.412 L2282.97 138.412 L2282.97 141.722 L2274.19 141.722 L2274.19 155.796 Q2274.19 158.967 2275.05 159.87 Q2275.93 160.773 2278.59 160.773 L2282.97 160.773 L2282.97 164.338 L2278.59 164.338 Q2273.66 164.338 2271.79 162.509 Q2269.91 160.657 2269.91 155.796 L2269.91 141.722 L2266.79 141.722 L2266.79 138.412 L2269.91 138.412 L2269.91 131.051 L2274.19 131.051 Z" fill="#000000" fill-rule="nonzero" fill-opacity="1" /><path clip-path="url(#clip230)" d="M2310.12 148.689 L2310.12 164.338 L2305.86 164.338 L2305.86 148.828 Q2305.86 145.148 2304.43 143.319 Q2302.99 141.49 2300.12 141.49 Q2296.67 141.49 2294.68 143.69 Q2292.69 145.889 2292.69 149.685 L2292.69 164.338 L2288.41 164.338 L2288.41 128.319 L2292.69 128.319 L2292.69 142.44 Q2294.22 140.102 2296.28 138.944 Q2298.36 137.787 2301.07 137.787 Q2305.54 137.787 2307.83 140.565 Q2310.12 143.319 2310.12 148.689 Z" fill="#000000" fill-rule="nonzero" fill-opacity="1" /><polyline clip-path="url(#clip230)" style="stroke:#e26f46; stroke-linecap:round; stroke-linejoin:round; stroke-width:4; stroke-opacity:1; fill:none" points="1873.84,198.898 1937.8,198.898 "/>
<path clip-path="url(#clip230)" d="M1952.74 212.289 L1952.74 226.039 L1948.45 226.039 L1948.45 190.252 L1952.74 190.252 L1952.74 194.187 Q1954.08 191.872 1956.12 190.761 Q1958.18 189.627 1961.02 189.627 Q1965.75 189.627 1968.69 193.377 Q1971.65 197.127 1971.65 203.238 Q1971.65 209.349 1968.69 213.099 Q1965.75 216.849 1961.02 216.849 Q1958.18 216.849 1956.12 215.738 Q1954.08 214.603 1952.74 212.289 M1967.23 203.238 Q1967.23 198.539 1965.28 195.877 Q1963.36 193.192 1959.98 193.192 Q1956.6 193.192 1954.66 195.877 Q1952.74 198.539 1952.74 203.238 Q1952.74 207.937 1954.66 210.622 Q1956.6 213.284 1959.98 213.284 Q1963.36 213.284 1965.28 210.622 Q1967.23 207.937 1967.23 203.238 Z" fill="#000000" fill-rule="nonzero" fill-opacity="1" /><path clip-path="url(#clip230)" d="M1991.83 180.159 L1991.83 183.701 L1987.76 183.701 Q1985.47 183.701 1984.57 184.627 Q1983.69 185.553 1983.69 187.96 L1983.69 190.252 L1990.7 190.252 L1990.7 193.562 L1983.69 193.562 L1983.69 216.178 L1979.4 216.178 L1979.4 193.562 L1975.33 193.562 L1975.33 190.252 L1979.4 190.252 L1979.4 188.446 Q1979.4 184.118 1981.42 182.15 Q1983.43 180.159 1987.81 180.159 L1991.83 180.159 Z" fill="#000000" fill-rule="nonzero" fill-opacity="1" /><path clip-path="url(#clip230)" d="M2027 191.016 L2027 195.043 Q2025.19 194.117 2023.25 193.655 Q2021.3 193.192 2019.22 193.192 Q2016.05 193.192 2014.45 194.164 Q2012.88 195.136 2012.88 197.08 Q2012.88 198.562 2014.01 199.418 Q2015.14 200.252 2018.57 201.016 L2020.03 201.34 Q2024.57 202.312 2026.46 204.094 Q2028.38 205.854 2028.38 209.025 Q2028.38 212.636 2025.51 214.742 Q2022.67 216.849 2017.67 216.849 Q2015.58 216.849 2013.32 216.432 Q2011.07 216.039 2008.57 215.228 L2008.57 210.83 Q2010.93 212.057 2013.22 212.682 Q2015.51 213.284 2017.76 213.284 Q2020.77 213.284 2022.39 212.266 Q2024.01 211.224 2024.01 209.349 Q2024.01 207.613 2022.83 206.687 Q2021.67 205.761 2017.71 204.904 L2016.23 204.557 Q2012.27 203.724 2010.51 202.011 Q2008.76 200.275 2008.76 197.266 Q2008.76 193.608 2011.35 191.618 Q2013.94 189.627 2018.71 189.627 Q2021.07 189.627 2023.15 189.974 Q2025.24 190.321 2027 191.016 Z" fill="#000000" fill-rule="nonzero" fill-opacity="1" /><path clip-path="url(#clip230)" d="M2055.35 195.229 Q2056.95 192.358 2059.17 190.993 Q2061.39 189.627 2064.4 189.627 Q2068.45 189.627 2070.65 192.474 Q2072.85 195.298 2072.85 200.529 L2072.85 216.178 L2068.57 216.178 L2068.57 200.668 Q2068.57 196.942 2067.25 195.136 Q2065.93 193.33 2063.22 193.33 Q2059.91 193.33 2057.99 195.53 Q2056.07 197.729 2056.07 201.525 L2056.07 216.178 L2051.79 216.178 L2051.79 200.668 Q2051.79 196.918 2050.47 195.136 Q2049.15 193.33 2046.39 193.33 Q2043.13 193.33 2041.21 195.553 Q2039.29 197.752 2039.29 201.525 L2039.29 216.178 L2035.01 216.178 L2035.01 190.252 L2039.29 190.252 L2039.29 194.28 Q2040.75 191.895 2042.78 190.761 Q2044.82 189.627 2047.62 189.627 Q2050.45 189.627 2052.41 191.062 Q2054.4 192.497 2055.35 195.229 Z" fill="#000000" fill-rule="nonzero" fill-opacity="1" /><path clip-path="url(#clip230)" d="M2091.39 193.238 Q2087.97 193.238 2085.98 195.923 Q2083.99 198.585 2083.99 203.238 Q2083.99 207.891 2085.95 210.576 Q2087.94 213.238 2091.39 213.238 Q2094.8 213.238 2096.79 210.553 Q2098.78 207.867 2098.78 203.238 Q2098.78 198.631 2096.79 195.946 Q2094.8 193.238 2091.39 193.238 M2091.39 189.627 Q2096.95 189.627 2100.12 193.238 Q2103.29 196.849 2103.29 203.238 Q2103.29 209.604 2100.12 213.238 Q2096.95 216.849 2091.39 216.849 Q2085.82 216.849 2082.64 213.238 Q2079.5 209.604 2079.5 203.238 Q2079.5 196.849 2082.64 193.238 Q2085.82 189.627 2091.39 189.627 Z" fill="#000000" fill-rule="nonzero" fill-opacity="1" /><path clip-path="url(#clip230)" d="M2120.4 193.238 Q2116.97 193.238 2114.98 195.923 Q2112.99 198.585 2112.99 203.238 Q2112.99 207.891 2114.96 210.576 Q2116.95 213.238 2120.4 213.238 Q2123.8 213.238 2125.79 210.553 Q2127.78 207.867 2127.78 203.238 Q2127.78 198.631 2125.79 195.946 Q2123.8 193.238 2120.4 193.238 M2120.4 189.627 Q2125.95 189.627 2129.13 193.238 Q2132.3 196.849 2132.3 203.238 Q2132.3 209.604 2129.13 213.238 Q2125.95 216.849 2120.4 216.849 Q2114.82 216.849 2111.65 213.238 Q2108.5 209.604 2108.5 203.238 Q2108.5 196.849 2111.65 193.238 Q2114.82 189.627 2120.4 189.627 Z" fill="#000000" fill-rule="nonzero" fill-opacity="1" /><path clip-path="url(#clip230)" d="M2143.57 182.891 L2143.57 190.252 L2152.34 190.252 L2152.34 193.562 L2143.57 193.562 L2143.57 207.636 Q2143.57 210.807 2144.43 211.71 Q2145.31 212.613 2147.97 212.613 L2152.34 212.613 L2152.34 216.178 L2147.97 216.178 Q2143.04 216.178 2141.16 214.349 Q2139.29 212.497 2139.29 207.636 L2139.29 193.562 L2136.16 193.562 L2136.16 190.252 L2139.29 190.252 L2139.29 182.891 L2143.57 182.891 Z" fill="#000000" fill-rule="nonzero" fill-opacity="1" /><path clip-path="url(#clip230)" d="M2179.5 200.529 L2179.5 216.178 L2175.24 216.178 L2175.24 200.668 Q2175.24 196.988 2173.8 195.159 Q2172.37 193.33 2169.5 193.33 Q2166.05 193.33 2164.06 195.53 Q2162.06 197.729 2162.06 201.525 L2162.06 216.178 L2157.78 216.178 L2157.78 180.159 L2162.06 180.159 L2162.06 194.28 Q2163.59 191.942 2165.65 190.784 Q2167.74 189.627 2170.44 189.627 Q2174.91 189.627 2177.2 192.405 Q2179.5 195.159 2179.5 200.529 Z" fill="#000000" fill-rule="nonzero" fill-opacity="1" /><polyline clip-path="url(#clip230)" style="stroke:#3da44d; stroke-linecap:round; stroke-linejoin:round; stroke-width:4; stroke-opacity:1; fill:none" points="1873.84,250.738 1937.8,250.738 "/>
<path clip-path="url(#clip230)" d="M1955.86 234.731 L1955.86 242.092 L1964.64 242.092 L1964.64 245.402 L1955.86 245.402 L1955.86 259.476 Q1955.86 262.647 1956.72 263.55 Q1957.6 264.453 1960.26 264.453 L1964.64 264.453 L1964.64 268.018 L1960.26 268.018 Q1955.33 268.018 1953.45 266.189 Q1951.58 264.337 1951.58 259.476 L1951.58 245.402 L1948.45 245.402 L1948.45 242.092 L1951.58 242.092 L1951.58 234.731 L1955.86 234.731 Z" fill="#000000" fill-rule="nonzero" fill-opacity="1" /><path clip-path="url(#clip230)" d="M1985.26 246.073 Q1984.54 245.657 1983.69 245.471 Q1982.85 245.263 1981.83 245.263 Q1978.22 245.263 1976.28 247.624 Q1974.36 249.962 1974.36 254.36 L1974.36 268.018 L1970.08 268.018 L1970.08 242.092 L1974.36 242.092 L1974.36 246.12 Q1975.7 243.758 1977.85 242.624 Q1980.01 241.467 1983.08 241.467 Q1983.52 241.467 1984.06 241.536 Q1984.59 241.583 1985.24 241.698 L1985.26 246.073 Z" fill="#000000" fill-rule="nonzero" fill-opacity="1" /><path clip-path="url(#clip230)" d="M1989.29 257.786 L1989.29 242.092 L1993.55 242.092 L1993.55 257.624 Q1993.55 261.305 1994.98 263.156 Q1996.42 264.985 1999.29 264.985 Q2002.74 264.985 2004.73 262.786 Q2006.74 260.587 2006.74 256.791 L2006.74 242.092 L2011 242.092 L2011 268.018 L2006.74 268.018 L2006.74 264.036 Q2005.19 266.397 2003.13 267.555 Q2001.09 268.689 1998.39 268.689 Q1993.92 268.689 1991.6 265.911 Q1989.29 263.133 1989.29 257.786 M2000.01 241.467 L2000.01 241.467 Z" fill="#000000" fill-rule="nonzero" fill-opacity="1" /><path clip-path="url(#clip230)" d="M2041.95 253.99 L2041.95 256.073 L2022.37 256.073 Q2022.64 260.471 2025.01 262.786 Q2027.39 265.078 2031.63 265.078 Q2034.08 265.078 2036.37 264.476 Q2038.69 263.874 2040.95 262.67 L2040.95 266.698 Q2038.66 267.67 2036.26 268.18 Q2033.85 268.689 2031.37 268.689 Q2025.17 268.689 2021.53 265.078 Q2017.92 261.467 2017.92 255.309 Q2017.92 248.944 2021.35 245.217 Q2024.8 241.467 2030.63 241.467 Q2035.86 241.467 2038.89 244.846 Q2041.95 248.203 2041.95 253.99 M2037.69 252.74 Q2037.64 249.245 2035.72 247.161 Q2033.82 245.078 2030.68 245.078 Q2027.11 245.078 2024.96 247.092 Q2022.83 249.106 2022.51 252.763 L2037.69 252.74 Z" fill="#000000" fill-rule="nonzero" fill-opacity="1" /></svg>
