<?xml version="1.0" encoding="utf-8"?>
<svg xmlns="http://www.w3.org/2000/svg" xmlns:xlink="http://www.w3.org/1999/xlink" width="600" height="400" viewBox="0 0 2400 1600">
<defs>
  <clipPath id="clip200">
    <rect x="0" y="0" width="2400" height="1600"/>
  </clipPath>
</defs>
<path clip-path="url(#clip200)" d="M0 1600 L2400 1600 L2400 0 L0 0  Z" fill="#ffffff" fill-rule="evenodd" fill-opacity="1"/>
<defs>
  <clipPath id="clip201">
    <rect x="193" y="47" width="2160" height="1440"/>
  </clipPath>
</defs>
<path clip-path="url(#clip200)" d="M193.936 1486.45 L2352.76 1486.45 L2352.76 47.2441 L193.936 47.2441  Z" fill="#ffffff" fill-rule="evenodd" fill-opacity="1"/>
<polyline clip-path="url(#clip201)" style="stroke:#000000; stroke-linecap:round; stroke-linejoin:round; stroke-width:2; stroke-opacity:0.1; fill:none" points="229.255,1486.45 229.255,47.2441 "/>
<polyline clip-path="url(#clip201)" style="stroke:#000000; stroke-linecap:round; stroke-linejoin:round; stroke-width:2; stroke-opacity:0.1; fill:none" points="744.855,1486.45 744.855,47.2441 "/>
<polyline clip-path="url(#clip201)" style="stroke:#000000; stroke-linecap:round; stroke-linejoin:round; stroke-width:2; stroke-opacity:0.1; fill:none" points="1260.46,1486.45 1260.46,47.2441 "/>
<polyline clip-path="url(#clip201)" style="stroke:#000000; stroke-linecap:round; stroke-linejoin:round; stroke-width:2; stroke-opacity:0.1; fill:none" points="1776.06,1486.45 1776.06,47.2441 "/>
<polyline clip-path="url(#clip201)" style="stroke:#000000; stroke-linecap:round; stroke-linejoin:round; stroke-width:2; stroke-opacity:0.1; fill:none" points="2291.66,1486.45 2291.66,47.2441 "/>
<polyline clip-path="url(#clip201)" style="stroke:#000000; stroke-linecap:round; stroke-linejoin:round; stroke-width:2; stroke-opacity:0.1; fill:none" points="193.936,1412.26 2352.76,1412.26 "/>
<polyline clip-path="url(#clip201)" style="stroke:#000000; stroke-linecap:round; stroke-linejoin:round; stroke-width:2; stroke-opacity:0.1; fill:none" points="193.936,1205.6 2352.76,1205.6 "/>
<polyline clip-path="url(#clip201)" style="stroke:#000000; stroke-linecap:round; stroke-linejoin:round; stroke-width:2; stroke-opacity:0.1; fill:none" points="193.936,998.944 2352.76,998.944 "/>
<polyline clip-path="url(#clip201)" style="stroke:#000000; stroke-linecap:round; stroke-linejoin:round; stroke-width:2; stroke-opacity:0.1; fill:none" points="193.936,792.284 2352.76,792.284 "/>
<polyline clip-path="url(#clip201)" style="stroke:#000000; stroke-linecap:round; stroke-linejoin:round; stroke-width:2; stroke-opacity:0.1; fill:none" points="193.936,585.623 2352.76,585.623 "/>
<polyline clip-path="url(#clip201)" style="stroke:#000000; stroke-linecap:round; stroke-linejoin:round; stroke-width:2; stroke-opacity:0.1; fill:none" points="193.936,378.963 2352.76,378.963 "/>
<polyline clip-path="url(#clip201)" style="stroke:#000000; stroke-linecap:round; stroke-linejoin:round; stroke-width:2; stroke-opacity:0.1; fill:none" points="193.936,172.303 2352.76,172.303 "/>
<polyline clip-path="url(#clip200)" style="stroke:#000000; stroke-linecap:round; stroke-linejoin:round; stroke-width:4; stroke-opacity:1; fill:none" points="193.936,1486.45 2352.76,1486.45 "/>
<polyline clip-path="url(#clip200)" style="stroke:#000000; stroke-linecap:round; stroke-linejoin:round; stroke-width:4; stroke-opacity:1; fill:none" points="229.255,1486.45 229.255,1467.55 "/>
<polyline clip-path="url(#clip200)" style="stroke:#000000; stroke-linecap:round; stroke-linejoin:round; stroke-width:4; stroke-opacity:1; fill:none" points="744.855,1486.45 744.855,1467.55 "/>
<polyline clip-path="url(#clip200)" style="stroke:#000000; stroke-linecap:round; stroke-linejoin:round; stroke-width:4; stroke-opacity:1; fill:none" points="1260.46,1486.45 1260.46,1467.55 "/>
<polyline clip-path="url(#clip200)" style="stroke:#000000; stroke-linecap:round; stroke-linejoin:round; stroke-width:4; stroke-opacity:1; fill:none" points="1776.06,1486.45 1776.06,1467.55 "/>
<polyline clip-path="url(#clip200)" style="stroke:#000000; stroke-linecap:round; stroke-linejoin:round; stroke-width:4; stroke-opacity:1; fill:none" points="2291.66,1486.45 2291.66,1467.55 "/>
<path clip-path="url(#clip200)" d="M229.255 1517.37 Q225.644 1517.37 223.815 1520.93 Q222.009 1524.47 222.009 1531.6 Q222.009 1538.71 223.815 1542.27 Q225.644 1545.82 229.255 1545.82 Q232.889 1545.82 234.694 1542.27 Q236.523 1538.71 236.523 1531.6 Q236.523 1524.47 234.694 1520.93 Q232.889 1517.37 229.255 1517.37 M229.255 1513.66 Q235.065 1513.66 238.12 1518.27 Q241.199 1522.85 241.199 1531.6 Q241.199 1540.33 238.12 1544.94 Q235.065 1549.52 229.255 1549.52 Q223.444 1549.52 220.366 1544.94 Q217.31 1540.33 217.31 1531.6 Q217.31 1522.85 220.366 1518.27 Q223.444 1513.66 229.255 1513.66 Z" fill="#000000" fill-rule="nonzero" fill-opacity="1" /><path clip-path="url(#clip200)" d="M723.629 1544.91 L739.948 1544.91 L739.948 1548.85 L718.004 1548.85 L718.004 1544.91 Q720.666 1542.16 725.249 1537.53 Q729.855 1532.88 731.036 1531.53 Q733.281 1529.01 734.161 1527.27 Q735.064 1525.51 735.064 1523.82 Q735.064 1521.07 733.119 1519.33 Q731.198 1517.6 728.096 1517.6 Q725.897 1517.6 723.443 1518.36 Q721.013 1519.13 718.235 1520.68 L718.235 1515.95 Q721.059 1514.82 723.513 1514.24 Q725.967 1513.66 728.004 1513.66 Q733.374 1513.66 736.568 1516.35 Q739.763 1519.03 739.763 1523.52 Q739.763 1525.65 738.953 1527.57 Q738.166 1529.47 736.059 1532.07 Q735.48 1532.74 732.379 1535.95 Q729.277 1539.15 723.629 1544.91 Z" fill="#000000" fill-rule="nonzero" fill-opacity="1" /><path clip-path="url(#clip200)" d="M759.763 1517.37 Q756.152 1517.37 754.323 1520.93 Q752.517 1524.47 752.517 1531.6 Q752.517 1538.71 754.323 1542.27 Q756.152 1545.82 759.763 1545.82 Q763.397 1545.82 765.202 1542.27 Q767.031 1538.71 767.031 1531.6 Q767.031 1524.47 765.202 1520.93 Q763.397 1517.37 759.763 1517.37 M759.763 1513.66 Q765.573 1513.66 768.628 1518.27 Q771.707 1522.85 771.707 1531.6 Q771.707 1540.33 768.628 1544.94 Q765.573 1549.52 759.763 1549.52 Q753.952 1549.52 750.874 1544.94 Q747.818 1540.33 747.818 1531.6 Q747.818 1522.85 750.874 1518.27 Q753.952 1513.66 759.763 1513.66 Z" fill="#000000" fill-rule="nonzero" fill-opacity="1" /><path clip-path="url(#clip200)" d="M1248.63 1518.36 L1236.82 1536.81 L1248.63 1536.81 L1248.63 1518.36 M1247.4 1514.29 L1253.28 1514.29 L1253.28 1536.81 L1258.21 1536.81 L1258.21 1540.7 L1253.28 1540.7 L1253.28 1548.85 L1248.63 1548.85 L1248.63 1540.7 L1233.03 1540.7 L1233.03 1536.19 L1247.4 1514.29 Z" fill="#000000" fill-rule="nonzero" fill-opacity="1" /><path clip-path="url(#clip200)" d="M1275.94 1517.37 Q1272.33 1517.37 1270.5 1520.93 Q1268.7 1524.47 1268.7 1531.6 Q1268.7 1538.71 1270.5 1542.27 Q1272.33 1545.82 1275.94 1545.82 Q1279.58 1545.82 1281.38 1542.27 Q1283.21 1538.71 1283.21 1531.6 Q1283.21 1524.47 1281.38 1520.93 Q1279.58 1517.37 1275.94 1517.37 M1275.94 1513.66 Q1281.75 1513.66 1284.81 1518.27 Q1287.89 1522.85 1287.89 1531.6 Q1287.89 1540.33 1284.81 1544.94 Q1281.75 1549.52 1275.94 1549.52 Q1270.13 1549.52 1267.05 1544.94 Q1264 1540.33 1264 1531.6 Q1264 1522.85 1267.05 1518.27 Q1270.13 1513.66 1275.94 1513.66 Z" fill="#000000" fill-rule="nonzero" fill-opacity="1" /><path clip-path="url(#clip200)" d="M1761.46 1529.7 Q1758.31 1529.7 1756.46 1531.86 Q1754.63 1534.01 1754.63 1537.76 Q1754.63 1541.49 1756.46 1543.66 Q1758.31 1545.82 1761.46 1545.82 Q1764.61 1545.82 1766.44 1543.66 Q1768.29 1541.49 1768.29 1537.76 Q1768.29 1534.01 1766.44 1531.86 Q1764.61 1529.7 1761.46 1529.7 M1770.74 1515.05 L1770.74 1519.31 Q1768.98 1518.48 1767.18 1518.04 Q1765.4 1517.6 1763.64 1517.6 Q1759.01 1517.6 1756.55 1520.72 Q1754.12 1523.85 1753.78 1530.17 Q1755.14 1528.15 1757.2 1527.09 Q1759.26 1526 1761.74 1526 Q1766.95 1526 1769.96 1529.17 Q1772.99 1532.32 1772.99 1537.76 Q1772.99 1543.08 1769.84 1546.3 Q1766.69 1549.52 1761.46 1549.52 Q1755.47 1549.52 1752.3 1544.94 Q1749.12 1540.33 1749.12 1531.6 Q1749.12 1523.41 1753.01 1518.55 Q1756.9 1513.66 1763.45 1513.66 Q1765.21 1513.66 1766.99 1514.01 Q1768.8 1514.36 1770.74 1515.05 Z" fill="#000000" fill-rule="nonzero" fill-opacity="1" /><path clip-path="url(#clip200)" d="M1791.04 1517.37 Q1787.43 1517.37 1785.61 1520.93 Q1783.8 1524.47 1783.8 1531.6 Q1783.8 1538.71 1785.61 1542.27 Q1787.43 1545.82 1791.04 1545.82 Q1794.68 1545.82 1796.48 1542.27 Q1798.31 1538.71 1798.31 1531.6 Q1798.31 1524.47 1796.48 1520.93 Q1794.68 1517.37 1791.04 1517.37 M1791.04 1513.66 Q1796.86 1513.66 1799.91 1518.27 Q1802.99 1522.85 1802.99 1531.6 Q1802.99 1540.33 1799.91 1544.94 Q1796.86 1549.52 1791.04 1549.52 Q1785.23 1549.52 1782.16 1544.94 Q1779.1 1540.33 1779.1 1531.6 Q1779.1 1522.85 1782.16 1518.27 Q1785.23 1513.66 1791.04 1513.66 Z" fill="#000000" fill-rule="nonzero" fill-opacity="1" /><path clip-path="url(#clip200)" d="M2276.53 1532.44 Q2273.2 1532.44 2271.28 1534.22 Q2269.38 1536 2269.38 1539.13 Q2269.38 1542.25 2271.28 1544.03 Q2273.2 1545.82 2276.53 1545.82 Q2279.86 1545.82 2281.78 1544.03 Q2283.71 1542.23 2283.71 1539.13 Q2283.71 1536 2281.78 1534.22 Q2279.89 1532.44 2276.53 1532.44 M2271.85 1530.45 Q2268.84 1529.7 2267.16 1527.64 Q2265.49 1525.58 2265.49 1522.62 Q2265.49 1518.48 2268.43 1516.07 Q2271.39 1513.66 2276.53 1513.66 Q2281.69 1513.66 2284.63 1516.07 Q2287.57 1518.48 2287.57 1522.62 Q2287.57 1525.58 2285.88 1527.64 Q2284.22 1529.7 2281.23 1530.45 Q2284.61 1531.23 2286.48 1533.52 Q2288.38 1535.82 2288.38 1539.13 Q2288.38 1544.15 2285.3 1546.83 Q2282.25 1549.52 2276.53 1549.52 Q2270.81 1549.52 2267.73 1546.83 Q2264.68 1544.15 2264.68 1539.13 Q2264.68 1535.82 2266.58 1533.52 Q2268.47 1531.23 2271.85 1530.45 M2270.14 1523.06 Q2270.14 1525.75 2271.81 1527.25 Q2273.5 1528.76 2276.53 1528.76 Q2279.54 1528.76 2281.23 1527.25 Q2282.94 1525.75 2282.94 1523.06 Q2282.94 1520.38 2281.23 1518.87 Q2279.54 1517.37 2276.53 1517.37 Q2273.5 1517.37 2271.81 1518.87 Q2270.14 1520.38 2270.14 1523.06 Z" fill="#000000" fill-rule="nonzero" fill-opacity="1" /><path clip-path="url(#clip200)" d="M2306.69 1517.37 Q2303.08 1517.37 2301.25 1520.93 Q2299.45 1524.47 2299.45 1531.6 Q2299.45 1538.71 2301.25 1542.27 Q2303.08 1545.82 2306.69 1545.82 Q2310.33 1545.82 2312.13 1542.27 Q2313.96 1538.71 2313.96 1531.6 Q2313.96 1524.47 2312.13 1520.93 Q2310.33 1517.37 2306.69 1517.37 M2306.69 1513.66 Q2312.5 1513.66 2315.56 1518.27 Q2318.64 1522.85 2318.64 1531.6 Q2318.64 1540.33 2315.56 1544.94 Q2312.5 1549.52 2306.69 1549.52 Q2300.88 1549.52 2297.8 1544.94 Q2294.75 1540.33 2294.75 1531.6 Q2294.75 1522.85 2297.8 1518.27 Q2300.88 1513.66 2306.69 1513.66 Z" fill="#000000" fill-rule="nonzero" fill-opacity="1" /><polyline clip-path="url(#clip200)" style="stroke:#000000; stroke-linecap:round; stroke-linejoin:round; stroke-width:4; stroke-opacity:1; fill:none" points="193.936,1486.45 193.936,47.2441 "/>
<polyline clip-path="url(#clip200)" style="stroke:#000000; stroke-linecap:round; stroke-linejoin:round; stroke-width:4; stroke-opacity:1; fill:none" points="193.936,1412.26 212.834,1412.26 "/>
<polyline clip-path="url(#clip200)" style="stroke:#000000; stroke-linecap:round; stroke-linejoin:round; stroke-width:4; stroke-opacity:1; fill:none" points="193.936,1205.6 212.834,1205.6 "/>
<polyline clip-path="url(#clip200)" style="stroke:#000000; stroke-linecap:round; stroke-linejoin:round; stroke-width:4; stroke-opacity:1; fill:none" points="193.936,998.944 212.834,998.944 "/>
<polyline clip-path="url(#clip200)" style="stroke:#000000; stroke-linecap:round; stroke-linejoin:round; stroke-width:4; stroke-opacity:1; fill:none" points="193.936,792.284 212.834,792.284 "/>
<polyline clip-path="url(#clip200)" style="stroke:#000000; stroke-linecap:round; stroke-linejoin:round; stroke-width:4; stroke-opacity:1; fill:none" points="193.936,585.623 212.834,585.623 "/>
<polyline clip-path="url(#clip200)" style="stroke:#000000; stroke-linecap:round; stroke-linejoin:round; stroke-width:4; stroke-opacity:1; fill:none" points="193.936,378.963 212.834,378.963 "/>
<polyline clip-path="url(#clip200)" style="stroke:#000000; stroke-linecap:round; stroke-linejoin:round; stroke-width:4; stroke-opacity:1; fill:none" points="193.936,172.303 212.834,172.303 "/>
<path clip-path="url(#clip200)" d="M51.9875 1412.72 L81.6633 1412.72 L81.6633 1416.65 L51.9875 1416.65 L51.9875 1412.72 Z" fill="#000000" fill-rule="nonzero" fill-opacity="1" /><path clip-path="url(#clip200)" d="M92.566 1425.61 L100.205 1425.61 L100.205 1399.24 L91.8947 1400.91 L91.8947 1396.65 L100.159 1394.98 L104.834 1394.98 L104.834 1425.61 L112.473 1425.61 L112.473 1429.54 L92.566 1429.54 L92.566 1425.61 Z" fill="#000000" fill-rule="nonzero" fill-opacity="1" /><path clip-path="url(#clip200)" d="M121.918 1423.66 L126.802 1423.66 L126.802 1429.54 L121.918 1429.54 L121.918 1423.66 Z" fill="#000000" fill-rule="nonzero" fill-opacity="1" /><path clip-path="url(#clip200)" d="M137.033 1394.98 L155.39 1394.98 L155.39 1398.92 L141.316 1398.92 L141.316 1407.39 Q142.334 1407.04 143.353 1406.88 Q144.371 1406.7 145.39 1406.7 Q151.177 1406.7 154.556 1409.87 Q157.936 1413.04 157.936 1418.46 Q157.936 1424.03 154.464 1427.14 Q150.992 1430.22 144.672 1430.22 Q142.496 1430.22 140.228 1429.85 Q137.982 1429.47 135.575 1428.73 L135.575 1424.03 Q137.658 1425.17 139.881 1425.72 Q142.103 1426.28 144.58 1426.28 Q148.584 1426.28 150.922 1424.17 Q153.26 1422.07 153.26 1418.46 Q153.26 1414.85 150.922 1412.74 Q148.584 1410.63 144.58 1410.63 Q142.705 1410.63 140.83 1411.05 Q138.978 1411.47 137.033 1412.35 L137.033 1394.98 Z" fill="#000000" fill-rule="nonzero" fill-opacity="1" /><path clip-path="url(#clip200)" d="M50.9921 1206.06 L80.6679 1206.06 L80.6679 1209.99 L50.9921 1209.99 L50.9921 1206.06 Z" fill="#000000" fill-rule="nonzero" fill-opacity="1" /><path clip-path="url(#clip200)" d="M91.5706 1218.95 L99.2095 1218.95 L99.2095 1192.58 L90.8993 1194.25 L90.8993 1189.99 L99.1632 1188.32 L103.839 1188.32 L103.839 1218.95 L111.478 1218.95 L111.478 1222.88 L91.5706 1222.88 L91.5706 1218.95 Z" fill="#000000" fill-rule="nonzero" fill-opacity="1" /><path clip-path="url(#clip200)" d="M120.922 1217 L125.807 1217 L125.807 1222.88 L120.922 1222.88 L120.922 1217 Z" fill="#000000" fill-rule="nonzero" fill-opacity="1" /><path clip-path="url(#clip200)" d="M145.992 1191.4 Q142.381 1191.4 140.552 1194.97 Q138.746 1198.51 138.746 1205.64 Q138.746 1212.75 140.552 1216.31 Q142.381 1219.85 145.992 1219.85 Q149.626 1219.85 151.431 1216.31 Q153.26 1212.75 153.26 1205.64 Q153.26 1198.51 151.431 1194.97 Q149.626 1191.4 145.992 1191.4 M145.992 1187.7 Q151.802 1187.7 154.857 1192.31 Q157.936 1196.89 157.936 1205.64 Q157.936 1214.37 154.857 1218.97 Q151.802 1223.56 145.992 1223.56 Q140.181 1223.56 137.103 1218.97 Q134.047 1214.37 134.047 1205.64 Q134.047 1196.89 137.103 1192.31 Q140.181 1187.7 145.992 1187.7 Z" fill="#000000" fill-rule="nonzero" fill-opacity="1" /><path clip-path="url(#clip200)" d="M51.9875 999.395 L81.6633 999.395 L81.6633 1003.33 L51.9875 1003.33 L51.9875 999.395 Z" fill="#000000" fill-rule="nonzero" fill-opacity="1" /><path clip-path="url(#clip200)" d="M101.756 984.742 Q98.1447 984.742 96.316 988.307 Q94.5104 991.849 94.5104 998.979 Q94.5104 1006.08 96.316 1009.65 Q98.1447 1013.19 101.756 1013.19 Q105.39 1013.19 107.196 1009.65 Q109.024 1006.08 109.024 998.979 Q109.024 991.849 107.196 988.307 Q105.39 984.742 101.756 984.742 M101.756 981.039 Q107.566 981.039 110.621 985.645 Q113.7 990.229 113.7 998.979 Q113.7 1007.71 110.621 1012.31 Q107.566 1016.9 101.756 1016.9 Q95.9456 1016.9 92.8669 1012.31 Q89.8114 1007.71 89.8114 998.979 Q89.8114 990.229 92.8669 985.645 Q95.9456 981.039 101.756 981.039 Z" fill="#000000" fill-rule="nonzero" fill-opacity="1" /><path clip-path="url(#clip200)" d="M121.918 1010.34 L126.802 1010.34 L126.802 1016.22 L121.918 1016.22 L121.918 1010.34 Z" fill="#000000" fill-rule="nonzero" fill-opacity="1" /><path clip-path="url(#clip200)" d="M137.033 981.664 L155.39 981.664 L155.39 985.599 L141.316 985.599 L141.316 994.071 Q142.334 993.724 143.353 993.562 Q144.371 993.377 145.39 993.377 Q151.177 993.377 154.556 996.548 Q157.936 999.719 157.936 1005.14 Q157.936 1010.71 154.464 1013.82 Q150.992 1016.9 144.672 1016.9 Q142.496 1016.9 140.228 1016.52 Q137.982 1016.15 135.575 1015.41 L135.575 1010.71 Q137.658 1011.85 139.881 1012.4 Q142.103 1012.96 144.58 1012.96 Q148.584 1012.96 150.922 1010.85 Q153.26 1008.75 153.26 1005.14 Q153.26 1001.52 150.922 999.418 Q148.584 997.312 144.58 997.312 Q142.705 997.312 140.83 997.729 Q138.978 998.145 137.033 999.025 L137.033 981.664 Z" fill="#000000" fill-rule="nonzero" fill-opacity="1" /><path clip-path="url(#clip200)" d="M100.76 778.082 Q97.1493 778.082 95.3206 781.647 Q93.515 785.189 93.515 792.318 Q93.515 799.425 95.3206 802.99 Q97.1493 806.531 100.76 806.531 Q104.395 806.531 106.2 802.99 Q108.029 799.425 108.029 792.318 Q108.029 785.189 106.2 781.647 Q104.395 778.082 100.76 778.082 M100.76 774.379 Q106.571 774.379 109.626 778.985 Q112.705 783.568 112.705 792.318 Q112.705 801.045 109.626 805.652 Q106.571 810.235 100.76 810.235 Q94.9502 810.235 91.8715 805.652 Q88.816 801.045 88.816 792.318 Q88.816 783.568 91.8715 778.985 Q94.9502 774.379 100.76 774.379 Z" fill="#000000" fill-rule="nonzero" fill-opacity="1" /><path clip-path="url(#clip200)" d="M120.922 803.684 L125.807 803.684 L125.807 809.564 L120.922 809.564 L120.922 803.684 Z" fill="#000000" fill-rule="nonzero" fill-opacity="1" /><path clip-path="url(#clip200)" d="M145.992 778.082 Q142.381 778.082 140.552 781.647 Q138.746 785.189 138.746 792.318 Q138.746 799.425 140.552 802.99 Q142.381 806.531 145.992 806.531 Q149.626 806.531 151.431 802.99 Q153.26 799.425 153.26 792.318 Q153.26 785.189 151.431 781.647 Q149.626 778.082 145.992 778.082 M145.992 774.379 Q151.802 774.379 154.857 778.985 Q157.936 783.568 157.936 792.318 Q157.936 801.045 154.857 805.652 Q151.802 810.235 145.992 810.235 Q140.181 810.235 137.103 805.652 Q134.047 801.045 134.047 792.318 Q134.047 783.568 137.103 778.985 Q140.181 774.379 145.992 774.379 Z" fill="#000000" fill-rule="nonzero" fill-opacity="1" /><path clip-path="url(#clip200)" d="M101.756 571.422 Q98.1447 571.422 96.316 574.987 Q94.5104 578.529 94.5104 585.658 Q94.5104 592.765 96.316 596.329 Q98.1447 599.871 101.756 599.871 Q105.39 599.871 107.196 596.329 Q109.024 592.765 109.024 585.658 Q109.024 578.529 107.196 574.987 Q105.39 571.422 101.756 571.422 M101.756 567.718 Q107.566 567.718 110.621 572.325 Q113.7 576.908 113.7 585.658 Q113.7 594.385 110.621 598.991 Q107.566 603.575 101.756 603.575 Q95.9456 603.575 92.8669 598.991 Q89.8114 594.385 89.8114 585.658 Q89.8114 576.908 92.8669 572.325 Q95.9456 567.718 101.756 567.718 Z" fill="#000000" fill-rule="nonzero" fill-opacity="1" /><path clip-path="url(#clip200)" d="M121.918 597.024 L126.802 597.024 L126.802 602.903 L121.918 602.903 L121.918 597.024 Z" fill="#000000" fill-rule="nonzero" fill-opacity="1" /><path clip-path="url(#clip200)" d="M137.033 568.343 L155.39 568.343 L155.39 572.279 L141.316 572.279 L141.316 580.751 Q142.334 580.404 143.353 580.242 Q144.371 580.056 145.39 580.056 Q151.177 580.056 154.556 583.228 Q157.936 586.399 157.936 591.816 Q157.936 597.394 154.464 600.496 Q150.992 603.575 144.672 603.575 Q142.496 603.575 140.228 603.204 Q137.982 602.834 135.575 602.093 L135.575 597.394 Q137.658 598.528 139.881 599.084 Q142.103 599.64 144.58 599.64 Q148.584 599.64 150.922 597.533 Q153.26 595.427 153.26 591.816 Q153.26 588.204 150.922 586.098 Q148.584 583.992 144.58 583.992 Q142.705 583.992 140.83 584.408 Q138.978 584.825 137.033 585.704 L137.033 568.343 Z" fill="#000000" fill-rule="nonzero" fill-opacity="1" /><path clip-path="url(#clip200)" d="M91.5706 392.308 L99.2095 392.308 L99.2095 365.943 L90.8993 367.609 L90.8993 363.35 L99.1632 361.683 L103.839 361.683 L103.839 392.308 L111.478 392.308 L111.478 396.243 L91.5706 396.243 L91.5706 392.308 Z" fill="#000000" fill-rule="nonzero" fill-opacity="1" /><path clip-path="url(#clip200)" d="M120.922 390.364 L125.807 390.364 L125.807 396.243 L120.922 396.243 L120.922 390.364 Z" fill="#000000" fill-rule="nonzero" fill-opacity="1" /><path clip-path="url(#clip200)" d="M145.992 364.762 Q142.381 364.762 140.552 368.327 Q138.746 371.868 138.746 378.998 Q138.746 386.104 140.552 389.669 Q142.381 393.211 145.992 393.211 Q149.626 393.211 151.431 389.669 Q153.26 386.104 153.26 378.998 Q153.26 371.868 151.431 368.327 Q149.626 364.762 145.992 364.762 M145.992 361.058 Q151.802 361.058 154.857 365.665 Q157.936 370.248 157.936 378.998 Q157.936 387.725 154.857 392.331 Q151.802 396.915 145.992 396.915 Q140.181 396.915 137.103 392.331 Q134.047 387.725 134.047 378.998 Q134.047 370.248 137.103 365.665 Q140.181 361.058 145.992 361.058 Z" fill="#000000" fill-rule="nonzero" fill-opacity="1" /><path clip-path="url(#clip200)" d="M92.566 185.648 L100.205 185.648 L100.205 159.282 L91.8947 160.949 L91.8947 156.69 L100.159 155.023 L104.834 155.023 L104.834 185.648 L112.473 185.648 L112.473 189.583 L92.566 189.583 L92.566 185.648 Z" fill="#000000" fill-rule="nonzero" fill-opacity="1" /><path clip-path="url(#clip200)" d="M121.918 183.704 L126.802 183.704 L126.802 189.583 L121.918 189.583 L121.918 183.704 Z" fill="#000000" fill-rule="nonzero" fill-opacity="1" /><path clip-path="url(#clip200)" d="M137.033 155.023 L155.39 155.023 L155.39 158.958 L141.316 158.958 L141.316 167.43 Q142.334 167.083 143.353 166.921 Q144.371 166.736 145.39 166.736 Q151.177 166.736 154.556 169.907 Q157.936 173.079 157.936 178.495 Q157.936 184.074 154.464 187.176 Q150.992 190.254 144.672 190.254 Q142.496 190.254 140.228 189.884 Q137.982 189.514 135.575 188.773 L135.575 184.074 Q137.658 185.208 139.881 185.764 Q142.103 186.319 144.58 186.319 Q148.584 186.319 150.922 184.213 Q153.26 182.106 153.26 178.495 Q153.26 174.884 150.922 172.778 Q148.584 170.671 144.58 170.671 Q142.705 170.671 140.83 171.088 Q138.978 171.505 137.033 172.384 L137.033 155.023 Z" fill="#000000" fill-rule="nonzero" fill-opacity="1" /><path clip-path="url(#clip201)" d="M255.035 1130.09 L280.815 1039.36 L306.595 1079.58 L332.375 1012.72 L358.155 952.282 L383.935 926.324 L409.715 907.138 L435.495 909.126 L461.275 871.172 L487.055 911.501 L512.835 854.199 L538.615 827.41 L564.395 837.772 L590.175 765.34 L615.955 779.281 L641.735 707.432 L667.515 662.559 L693.295 608.816 L719.075 577.541 L744.855 478.112 L770.635 481.813 L796.415 530.424 L822.195 603.566 L847.975 568.308 L873.755 575.954 L899.535 587.461 L925.316 638.47 L951.096 618.132 L976.876 616.983 L1002.66 608.393 L1028.44 648.578 L1054.22 637.43 L1080 697.363 L1105.78 711.361 L1131.56 812.343 L1157.34 768.525 L1183.12 806.354 L1208.9 833.904 L1234.68 884.291 L1260.46 905.028 L1286.24 936.337 L1312.02 1001.99 L1337.8 985.224 L1363.58 964.991 L1389.36 1018.58 L1415.14 1124.59 L1440.92 1196.28 L1466.7 1224.22 L1492.48 1255.37 L1518.26 1301.95 L1544.04 1304.26 L1569.82 1257.72 L1595.6 1219.72 L1621.38 1204.45 L1647.16 1199.25 L1672.94 1241.9 L1698.72 1263.09 L1724.5 1321.31 L1750.28 1323.3 L1776.06 1264.21 L1801.84 1212.52 L1827.62 1236.3 L1853.4 1205.77 L1879.18 1227.77 L1904.96 1280.39 L1930.74 1352.79 L1956.52 1339.32 L1982.3 1361.47 L2008.08 1352.87 L2033.86 1370.48 L2059.64 1380.97 L2085.42 1428.08 L2111.2 1445.72 L2136.98 1366.95 L2162.76 1355 L2188.54 1362.9 L2214.32 1345.83 L2240.1 1191.74 L2265.88 1189.97 L2291.66 1216.16 L2291.66 769.497 L2265.88 731.481 L2240.1 750.967 L2214.32 901.142 L2188.54 933.995 L2162.76 921.296 L2136.98 947.182 L2111.2 1039.95 L2085.42 1024.17 L2059.64 996.214 L2033.86 955.096 L2008.08 944.693 L1982.3 951.805 L1956.52 931.196 L1930.74 961.362 L1904.96 852.886 L1879.18 802.275 L1853.4 811.833 L1827.62 821.378 L1801.84 827.871 L1776.06 878.679 L1750.28 921.473 L1724.5 954.321 L1698.72 913.414 L1672.94 896.717 L1647.16 890.846 L1621.38 880.592 L1595.6 903.403 L1569.82 935.538 L1544.04 951.233 L1518.26 944.413 L1492.48 888.988 L1466.7 866.324 L1440.92 812.408 L1415.14 759.059 L1389.36 635.481 L1363.58 577.501 L1337.8 572.933 L1312.02 589.736 L1286.24 541.106 L1260.46 511.524 L1234.68 536.097 L1208.9 510.766 L1183.12 463.66 L1157.34 413.168 L1131.56 476.753 L1105.78 381.24 L1080 365.697 L1054.22 311.362 L1028.44 329.405 L1002.66 260.708 L976.876 250.821 L951.096 268.904 L925.316 312.745 L899.535 247.764 L873.755 232.052 L847.975 195.363 L822.195 231.718 L796.415 199.367 L770.635 134.431 L744.855 87.9763 L719.075 180.677 L693.295 202.237 L667.515 277.764 L641.735 286.447 L615.955 361.165 L590.175 363.734 L564.395 423.211 L538.615 413.01 L512.835 396.6 L487.055 445.694 L461.275 399.549 L435.495 435.573 L409.715 437.467 L383.935 427.553 L358.155 431.19 L332.375 483.653 L306.595 538.684 L280.815 463.757 L255.035 530.059  Z" fill="#009af9" fill-rule="evenodd" fill-opacity="0.5"/>
<polyline clip-path="url(#clip201)" style="stroke:#009af9; stroke-linecap:round; stroke-linejoin:round; stroke-width:4; stroke-opacity:1; fill:none" points="255.035,830.076 280.815,751.558 306.595,809.134 332.375,748.184 358.155,691.736 383.935,676.939 409.715,672.303 435.495,672.35 461.275,635.36 487.055,678.597 512.835,625.399 538.615,620.21 564.395,630.492 590.175,564.537 615.955,570.223 641.735,496.94 667.515,470.161 693.295,405.527 719.075,379.109 744.855,283.044 770.635,308.122 796.415,364.896 822.195,417.642 847.975,381.836 873.755,404.003 899.535,417.613 925.316,475.607 951.096,443.518 976.876,433.902 1002.66,434.551 1028.44,488.992 1054.22,474.396 1080,531.53 1105.78,546.301 1131.56,644.548 1157.34,590.846 1183.12,635.007 1208.9,672.335 1234.68,710.194 1260.46,708.276 1286.24,738.721 1312.02,795.865 1337.8,779.079 1363.58,771.246 1389.36,827.03 1415.14,941.826 1440.92,1004.35 1466.7,1045.27 1492.48,1072.18 1518.26,1123.18 1544.04,1127.75 1569.82,1096.63 1595.6,1061.56 1621.38,1042.52 1647.16,1045.05 1672.94,1069.31 1698.72,1088.25 1724.5,1137.82 1750.28,1122.39 1776.06,1071.44 1801.84,1020.2 1827.62,1028.84 1853.4,1008.8 1879.18,1015.02 1904.96,1066.64 1930.74,1157.08 1956.52,1135.26 1982.3,1156.64 2008.08,1148.78 2033.86,1162.79 2059.64,1188.59 2085.42,1226.12 2111.2,1242.83 2136.98,1157.06 2162.76,1138.15 2188.54,1148.45 2214.32,1123.48 2240.1,971.356 2265.88,960.727 2291.66,992.827 "/>
<path clip-path="url(#clip201)" d="M255.035 1214.11 L280.815 1218.25 L306.595 1211.17 L332.375 1179.86 L358.155 1155.8 L383.935 1127.97 L409.715 1123.91 L435.495 1094.12 L461.275 1048.44 L487.055 1028.07 L512.835 1043.08 L538.615 1064.33 L564.395 1074.86 L590.175 1059.35 L615.955 1049.23 L641.735 1023.91 L667.515 944.34 L693.295 894.442 L719.075 874.131 L744.855 847.776 L770.635 792.907 L796.415 717.474 L822.195 643.685 L847.975 630.658 L873.755 625.998 L899.535 616.224 L925.316 615.425 L951.096 596.027 L976.876 559.967 L1002.66 526.951 L1028.44 520.44 L1054.22 502.453 L1080 486.687 L1105.78 472.954 L1131.56 459.675 L1157.34 435.588 L1183.12 394.211 L1208.9 396.062 L1234.68 398.717 L1260.46 406.878 L1286.24 408.554 L1312.02 374.558 L1337.8 389.684 L1363.58 368.244 L1389.36 396.068 L1415.14 439.964 L1440.92 486.205 L1466.7 479.259 L1492.48 508.761 L1518.26 552.58 L1544.04 594.83 L1569.82 626.675 L1595.6 696.485 L1621.38 736.377 L1647.16 734.455 L1672.94 749.484 L1698.72 764.258 L1724.5 790.266 L1750.28 806.696 L1776.06 801.297 L1801.84 796.689 L1827.62 791.172 L1853.4 816.806 L1879.18 833.13 L1904.96 854.925 L1930.74 868.556 L1956.52 905.628 L1982.3 937.435 L2008.08 931.752 L2033.86 975.916 L2059.64 988.184 L2085.42 1019.59 L2111.2 1032.02 L2136.98 1048.26 L2162.76 1072.16 L2188.54 1110.2 L2214.32 1104.59 L2240.1 1166.66 L2265.88 1181.38 L2291.66 1217.17 L2291.66 986.87 L2265.88 989.96 L2240.1 969.462 L2214.32 940.371 L2188.54 928.208 L2162.76 900.56 L2136.98 874.665 L2111.2 844.216 L2085.42 834.409 L2059.64 813.484 L2033.86 787.229 L2008.08 763.769 L1982.3 752.272 L1956.52 710.825 L1930.74 692.173 L1904.96 675.569 L1879.18 682.518 L1853.4 654.474 L1827.62 624.194 L1801.84 630.775 L1776.06 633.622 L1750.28 633.201 L1724.5 608.222 L1698.72 589.746 L1672.94 574.892 L1647.16 552.595 L1621.38 541.584 L1595.6 509.876 L1569.82 459.281 L1544.04 415.316 L1518.26 375.776 L1492.48 332.601 L1466.7 317.931 L1440.92 310.576 L1415.14 266.716 L1389.36 239.209 L1363.58 196.617 L1337.8 224.293 L1312.02 199.966 L1286.24 228.552 L1260.46 237.933 L1234.68 238.029 L1208.9 242.349 L1183.12 252.439 L1157.34 257.728 L1131.56 285.728 L1105.78 291.159 L1080 345.687 L1054.22 342.244 L1028.44 368.197 L1002.66 379.719 L976.876 415.484 L951.096 433.656 L925.316 449.902 L899.535 468.652 L873.755 471.729 L847.975 491.142 L822.195 518.994 L796.415 562.939 L770.635 633.505 L744.855 681.692 L719.075 692.671 L693.295 725.115 L667.515 780.762 L641.735 857.04 L615.955 875.654 L590.175 885.308 L564.395 902.157 L538.615 889.745 L512.835 875.056 L487.055 875.075 L461.275 879.292 L435.495 910.257 L409.715 941.829 L383.935 958.341 L358.155 986.954 L332.375 998.48 L306.595 990.764 L280.815 1004.75 L255.035 982.382  Z" fill="#e26f46" fill-rule="evenodd" fill-opacity="0.5"/>
<polyline clip-path="url(#clip201)" style="stroke:#e26f46; stroke-linecap:round; stroke-linejoin:round; stroke-width:4; stroke-opacity:1; fill:none" points="255.035,1098.24 280.815,1111.5 306.595,1100.97 332.375,1089.17 358.155,1071.38 383.935,1043.15 409.715,1032.87 435.495,1002.19 461.275,963.866 487.055,951.574 512.835,959.066 538.615,977.038 564.395,988.508 590.175,972.33 615.955,962.441 641.735,940.475 667.515,862.551 693.295,809.779 719.075,783.401 744.855,764.734 770.635,713.206 796.415,640.207 822.195,581.34 847.975,560.9 873.755,548.864 899.535,542.438 925.316,532.664 951.096,514.842 976.876,487.726 1002.66,453.335 1028.44,444.319 1054.22,422.349 1080,416.187 1105.78,382.057 1131.56,372.702 1157.34,346.658 1183.12,323.325 1208.9,319.206 1234.68,318.373 1260.46,322.406 1286.24,318.553 1312.02,287.262 1337.8,306.988 1363.58,282.43 1389.36,317.638 1415.14,353.34 1440.92,398.39 1466.7,398.595 1492.48,420.681 1518.26,464.178 1544.04,505.073 1569.82,542.978 1595.6,603.181 1621.38,638.981 1647.16,643.525 1672.94,662.188 1698.72,677.002 1724.5,699.244 1750.28,719.948 1776.06,717.459 1801.84,713.732 1827.62,707.683 1853.4,735.64 1879.18,757.824 1904.96,765.247 1930.74,780.364 1956.52,808.227 1982.3,844.854 2008.08,847.761 2033.86,881.573 2059.64,900.834 2085.42,926.998 2111.2,938.119 2136.98,961.462 2162.76,986.361 2188.54,1019.2 2214.32,1022.48 2240.1,1068.06 2265.88,1085.67 2291.66,1102.02 "/>
<polyline clip-path="url(#clip201)" style="stroke:#3da44d; stroke-linecap:round; stroke-linejoin:round; stroke-width:4; stroke-opacity:1; fill:none" stroke-dasharray="16, 10" points="255.035,713.782 280.815,662.654 306.595,707.491 332.375,713.708 358.155,690.952 383.935,668.743 409.715,670.51 435.495,684.707 461.275,633.489 487.055,634.855 512.835,542.155 538.615,501.093 564.395,583.656 590.175,480.875 615.955,430.642 641.735,344.817 667.515,314.496 693.295,250.791 719.075,208.333 744.855,181.582 770.635,244.378 796.415,317.31 822.195,378.721 847.975,374.089 873.755,450.097 899.535,427.749 925.316,531.226 951.096,448.146 976.876,398.417 1002.66,364.008 1028.44,351.241 1054.22,345.225 1080,432.837 1105.78,458.337 1131.56,589.453 1157.34,487.859 1183.12,527.013 1208.9,564.735 1234.68,617.37 1260.46,655.844 1286.24,700.161 1312.02,821.421 1337.8,828.01 1363.58,858.147 1389.36,874.614 1415.14,991.734 1440.92,1113.55 1466.7,1094.1 1492.48,1193.16 1518.26,1238.75 1544.04,1248.83 1569.82,1101.02 1595.6,1041.48 1621.38,947.726 1647.16,941.279 1672.94,963.156 1698.72,1017.57 1724.5,1060.24 1750.28,1069.25 1776.06,1027.65 1801.84,983.431 1827.62,1011.76 1853.4,1002.09 1879.18,941.751 1904.96,984.593 1930.74,1085.93 1956.52,1022.35 1982.3,1131.36 2008.08,1153.64 2033.86,1208.08 2059.64,1248.68 2085.42,1302.38 2111.2,1281.85 2136.98,1244.18 2162.76,1244.89 2188.54,1239.3 2214.32,1161.89 2240.1,943.813 2265.88,916.517 2291.66,941.191 "/>
<polyline clip-path="url(#clip201)" style="stroke:#c271d2; stroke-linecap:round; stroke-linejoin:round; stroke-width:4; stroke-opacity:1; fill:none" stroke-dasharray="16, 10" points="255.035,1124.93 280.815,1098.1 306.595,1063.73 332.375,1049.77 358.155,1054.86 383.935,1057.83 409.715,1004.69 435.495,1030.68 461.275,1047.77 487.055,988.363 512.835,973.237 538.615,1015.75 564.395,1003.2 590.175,1003.41 615.955,980.828 641.735,894.165 667.515,823.44 693.295,738.982 719.075,697.222 744.855,706.927 770.635,697.484 796.415,639.798 822.195,548.536 847.975,526.489 873.755,527.346 899.535,522.028 925.316,562.855 951.096,562.855 976.876,501.897 1002.66,477.542 1028.44,466.889 1054.22,424.857 1080,422.819 1105.78,329.238 1131.56,309.04 1157.34,356.617 1183.12,425.358 1208.9,379.772 1234.68,386.762 1260.46,340.38 1286.24,298.75 1312.02,309.629 1337.8,303.326 1363.58,289.215 1389.36,339.536 1415.14,372.765 1440.92,426.453 1466.7,437.351 1492.48,456.595 1518.26,431.998 1544.04,493.625 1569.82,507.286 1595.6,563.324 1621.38,627.681 1647.16,636.318 1672.94,673.987 1698.72,680.822 1724.5,726.656 1750.28,743.238 1776.06,747.392 1801.84,730.691 1827.62,724.224 1853.4,743.431 1879.18,822.284 1904.96,762.302 1930.74,771.425 1956.52,790.716 1982.3,834.758 2008.08,849.817 2033.86,862.916 2059.64,796.377 2085.42,899.092 2111.2,939.625 2136.98,953.32 2162.76,984.338 2188.54,1068.87 2214.32,1098.35 2240.1,1120.29 2265.88,1121.18 2291.66,1116.6 "/>
<path clip-path="url(#clip200)" d="M1825.15 354.418 L2280.8 354.418 L2280.8 95.2176 L1825.15 95.2176  Z" fill="#ffffff" fill-rule="evenodd" fill-opacity="1"/>
<polyline clip-path="url(#clip200)" style="stroke:#000000; stroke-linecap:round; stroke-linejoin:round; stroke-width:4; stroke-opacity:1; fill:none" points="1825.15,354.418 2280.8,354.418 2280.8,95.2176 1825.15,95.2176 1825.15,354.418 "/>
<polyline clip-path="url(#clip200)" style="stroke:#009af9; stroke-linecap:round; stroke-linejoin:round; stroke-width:4; stroke-opacity:1; fill:none" points="1849.13,147.058 1993.05,147.058 "/>
<path clip-path="url(#clip200)" d="M2021.72 133.62 L2021.72 146.606 L2027.6 146.606 Q2030.86 146.606 2032.64 144.916 Q2034.43 143.227 2034.43 140.102 Q2034.43 137 2032.64 135.31 Q2030.86 133.62 2027.6 133.62 L2021.72 133.62 M2017.04 129.778 L2027.6 129.778 Q2033.41 129.778 2036.37 132.416 Q2039.36 135.032 2039.36 140.102 Q2039.36 145.217 2036.37 147.833 Q2033.41 150.449 2027.6 150.449 L2021.72 150.449 L2021.72 164.338 L2017.04 164.338 L2017.04 129.778 Z" fill="#000000" fill-rule="nonzero" fill-opacity="1" /><path clip-path="url(#clip200)" d="M2045.63 129.778 L2065.49 129.778 L2065.49 133.713 L2050.3 133.713 L2050.3 143.898 L2064.01 143.898 L2064.01 147.833 L2050.3 147.833 L2050.3 164.338 L2045.63 164.338 L2045.63 129.778 Z" fill="#000000" fill-rule="nonzero" fill-opacity="1" /><path clip-path="url(#clip200)" d="M2104.31 139.176 L2104.31 143.203 Q2102.5 142.277 2100.56 141.815 Q2098.61 141.352 2096.53 141.352 Q2093.36 141.352 2091.76 142.324 Q2090.19 143.296 2090.19 145.24 Q2090.19 146.722 2091.32 147.578 Q2092.46 148.412 2095.88 149.176 L2097.34 149.5 Q2101.88 150.472 2103.78 152.254 Q2105.7 154.014 2105.7 157.185 Q2105.7 160.796 2102.83 162.902 Q2099.98 165.009 2094.98 165.009 Q2092.9 165.009 2090.63 164.592 Q2088.38 164.199 2085.88 163.388 L2085.88 158.99 Q2088.24 160.217 2090.54 160.842 Q2092.83 161.444 2095.07 161.444 Q2098.08 161.444 2099.7 160.426 Q2101.32 159.384 2101.32 157.509 Q2101.32 155.773 2100.14 154.847 Q2098.99 153.921 2095.03 153.064 L2093.55 152.717 Q2089.59 151.884 2087.83 150.171 Q2086.07 148.435 2086.07 145.426 Q2086.07 141.768 2088.66 139.778 Q2091.25 137.787 2096.02 137.787 Q2098.38 137.787 2100.47 138.134 Q2102.55 138.481 2104.31 139.176 Z" fill="#000000" fill-rule="nonzero" fill-opacity="1" /><path clip-path="url(#clip200)" d="M2132.67 143.389 Q2134.26 140.518 2136.48 139.153 Q2138.71 137.787 2141.72 137.787 Q2145.77 137.787 2147.97 140.634 Q2150.17 143.458 2150.17 148.689 L2150.17 164.338 L2145.88 164.338 L2145.88 148.828 Q2145.88 145.102 2144.56 143.296 Q2143.24 141.49 2140.54 141.49 Q2137.23 141.49 2135.3 143.69 Q2133.38 145.889 2133.38 149.685 L2133.38 164.338 L2129.1 164.338 L2129.1 148.828 Q2129.1 145.078 2127.78 143.296 Q2126.46 141.49 2123.71 141.49 Q2120.44 141.49 2118.52 143.713 Q2116.6 145.912 2116.6 149.685 L2116.6 164.338 L2112.32 164.338 L2112.32 138.412 L2116.6 138.412 L2116.6 142.44 Q2118.06 140.055 2120.1 138.921 Q2122.13 137.787 2124.93 137.787 Q2127.76 137.787 2129.73 139.222 Q2131.72 140.657 2132.67 143.389 Z" fill="#000000" fill-rule="nonzero" fill-opacity="1" /><path clip-path="url(#clip200)" d="M2168.71 141.398 Q2165.28 141.398 2163.29 144.083 Q2161.3 146.745 2161.3 151.398 Q2161.3 156.051 2163.27 158.736 Q2165.26 161.398 2168.71 161.398 Q2172.11 161.398 2174.1 158.713 Q2176.09 156.027 2176.09 151.398 Q2176.09 146.791 2174.1 144.106 Q2172.11 141.398 2168.71 141.398 M2168.71 137.787 Q2174.26 137.787 2177.43 141.398 Q2180.61 145.009 2180.61 151.398 Q2180.61 157.764 2177.43 161.398 Q2174.26 165.009 2168.71 165.009 Q2163.13 165.009 2159.96 161.398 Q2156.81 157.764 2156.81 151.398 Q2156.81 145.009 2159.96 141.398 Q2163.13 137.787 2168.71 137.787 Z" fill="#000000" fill-rule="nonzero" fill-opacity="1" /><path clip-path="url(#clip200)" d="M2197.71 141.398 Q2194.29 141.398 2192.29 144.083 Q2190.3 146.745 2190.3 151.398 Q2190.3 156.051 2192.27 158.736 Q2194.26 161.398 2197.71 161.398 Q2201.11 161.398 2203.1 158.713 Q2205.1 156.027 2205.1 151.398 Q2205.1 146.791 2203.1 144.106 Q2201.11 141.398 2197.71 141.398 M2197.71 137.787 Q2203.27 137.787 2206.44 141.398 Q2209.61 145.009 2209.61 151.398 Q2209.61 157.764 2206.44 161.398 Q2203.27 165.009 2197.71 165.009 Q2192.13 165.009 2188.96 161.398 Q2185.81 157.764 2185.81 151.398 Q2185.81 145.009 2188.96 141.398 Q2192.13 137.787 2197.71 137.787 Z" fill="#000000" fill-rule="nonzero" fill-opacity="1" /><path clip-path="url(#clip200)" d="M2220.88 131.051 L2220.88 138.412 L2229.66 138.412 L2229.66 141.722 L2220.88 141.722 L2220.88 155.796 Q2220.88 158.967 2221.74 159.87 Q2222.62 160.773 2225.28 160.773 L2229.66 160.773 L2229.66 164.338 L2225.28 164.338 Q2220.35 164.338 2218.48 162.509 Q2216.6 160.657 2216.6 155.796 L2216.6 141.722 L2213.48 141.722 L2213.48 138.412 L2216.6 138.412 L2216.6 131.051 L2220.88 131.051 Z" fill="#000000" fill-rule="nonzero" fill-opacity="1" /><path clip-path="url(#clip200)" d="M2256.81 148.689 L2256.81 164.338 L2252.55 164.338 L2252.55 148.828 Q2252.55 145.148 2251.11 143.319 Q2249.68 141.49 2246.81 141.49 Q2243.36 141.49 2241.37 143.69 Q2239.38 145.889 2239.38 149.685 L2239.38 164.338 L2235.1 164.338 L2235.1 128.319 L2239.38 128.319 L2239.38 142.44 Q2240.91 140.102 2242.97 138.944 Q2245.05 137.787 2247.76 137.787 Q2252.23 137.787 2254.52 140.565 Q2256.81 143.319 2256.81 148.689 Z" fill="#000000" fill-rule="nonzero" fill-opacity="1" /><polyline clip-path="url(#clip200)" style="stroke:#e26f46; stroke-linecap:round; stroke-linejoin:round; stroke-width:4; stroke-opacity:1; fill:none" points="1849.13,198.898 1993.05,198.898 "/>
<path clip-path="url(#clip200)" d="M2021.72 185.46 L2021.72 198.446 L2027.6 198.446 Q2030.86 198.446 2032.64 196.756 Q2034.43 195.067 2034.43 191.942 Q2034.43 188.84 2032.64 187.15 Q2030.86 185.46 2027.6 185.46 L2021.72 185.46 M2017.04 181.618 L2027.6 181.618 Q2033.41 181.618 2036.37 184.256 Q2039.36 186.872 2039.36 191.942 Q2039.36 197.057 2036.37 199.673 Q2033.41 202.289 2027.6 202.289 L2021.72 202.289 L2021.72 216.178 L2017.04 216.178 L2017.04 181.618 Z" fill="#000000" fill-rule="nonzero" fill-opacity="1" /><path clip-path="url(#clip200)" d="M2045.63 181.618 L2065.49 181.618 L2065.49 185.553 L2050.3 185.553 L2050.3 195.738 L2064.01 195.738 L2064.01 199.673 L2050.3 199.673 L2050.3 216.178 L2045.63 216.178 L2045.63 181.618 Z" fill="#000000" fill-rule="nonzero" fill-opacity="1" /><path clip-path="url(#clip200)" d="M2104.31 191.016 L2104.31 195.043 Q2102.5 194.117 2100.56 193.655 Q2098.61 193.192 2096.53 193.192 Q2093.36 193.192 2091.76 194.164 Q2090.19 195.136 2090.19 197.08 Q2090.19 198.562 2091.32 199.418 Q2092.46 200.252 2095.88 201.016 L2097.34 201.34 Q2101.88 202.312 2103.78 204.094 Q2105.7 205.854 2105.7 209.025 Q2105.7 212.636 2102.83 214.742 Q2099.98 216.849 2094.98 216.849 Q2092.9 216.849 2090.63 216.432 Q2088.38 216.039 2085.88 215.228 L2085.88 210.83 Q2088.24 212.057 2090.54 212.682 Q2092.83 213.284 2095.07 213.284 Q2098.08 213.284 2099.7 212.266 Q2101.32 211.224 2101.32 209.349 Q2101.32 207.613 2100.14 206.687 Q2098.99 205.761 2095.03 204.904 L2093.55 204.557 Q2089.59 203.724 2087.83 202.011 Q2086.07 200.275 2086.07 197.266 Q2086.07 193.608 2088.66 191.618 Q2091.25 189.627 2096.02 189.627 Q2098.38 189.627 2100.47 189.974 Q2102.55 190.321 2104.31 191.016 Z" fill="#000000" fill-rule="nonzero" fill-opacity="1" /><path clip-path="url(#clip200)" d="M2132.67 195.229 Q2134.26 192.358 2136.48 190.993 Q2138.71 189.627 2141.72 189.627 Q2145.77 189.627 2147.97 192.474 Q2150.17 195.298 2150.17 200.529 L2150.17 216.178 L2145.88 216.178 L2145.88 200.668 Q2145.88 196.942 2144.56 195.136 Q2143.24 193.33 2140.54 193.33 Q2137.23 193.33 2135.3 195.53 Q2133.38 197.729 2133.38 201.525 L2133.38 216.178 L2129.1 216.178 L2129.1 200.668 Q2129.1 196.918 2127.78 195.136 Q2126.46 193.33 2123.71 193.33 Q2120.44 193.33 2118.52 195.553 Q2116.6 197.752 2116.6 201.525 L2116.6 216.178 L2112.32 216.178 L2112.32 190.252 L2116.6 190.252 L2116.6 194.28 Q2118.06 191.895 2120.1 190.761 Q2122.13 189.627 2124.93 189.627 Q2127.76 189.627 2129.73 191.062 Q2131.72 192.497 2132.67 195.229 Z" fill="#000000" fill-rule="nonzero" fill-opacity="1" /><path clip-path="url(#clip200)" d="M2168.71 193.238 Q2165.28 193.238 2163.29 195.923 Q2161.3 198.585 2161.3 203.238 Q2161.3 207.891 2163.27 210.576 Q2165.26 213.238 2168.71 213.238 Q2172.11 213.238 2174.1 210.553 Q2176.09 207.867 2176.09 203.238 Q2176.09 198.631 2174.1 195.946 Q2172.11 193.238 2168.71 193.238 M2168.71 189.627 Q2174.26 189.627 2177.43 193.238 Q2180.61 196.849 2180.61 203.238 Q2180.61 209.604 2177.43 213.238 Q2174.26 216.849 2168.71 216.849 Q2163.13 216.849 2159.96 213.238 Q2156.81 209.604 2156.81 203.238 Q2156.81 196.849 2159.96 193.238 Q2163.13 189.627 2168.71 189.627 Z" fill="#000000" fill-rule="nonzero" fill-opacity="1" /><path clip-path="url(#clip200)" d="M2197.71 193.238 Q2194.29 193.238 2192.29 195.923 Q2190.3 198.585 2190.3 203.238 Q2190.3 207.891 2192.27 210.576 Q2194.26 213.238 2197.71 213.238 Q2201.11 213.238 2203.1 210.553 Q2205.1 207.867 2205.1 203.238 Q2205.1 198.631 2203.1 195.946 Q2201.11 193.238 2197.71 193.238 M2197.71 189.627 Q2203.27 189.627 2206.44 193.238 Q2209.61 196.849 2209.61 203.238 Q2209.61 209.604 2206.44 213.238 Q2203.27 216.849 2197.71 216.849 Q2192.13 216.849 2188.96 213.238 Q2185.81 209.604 2185.81 203.238 Q2185.81 196.849 2188.96 193.238 Q2192.13 189.627 2197.71 189.627 Z" fill="#000000" fill-rule="nonzero" fill-opacity="1" /><path clip-path="url(#clip200)" d="M2220.88 182.891 L2220.88 190.252 L2229.66 190.252 L2229.66 193.562 L2220.88 193.562 L2220.88 207.636 Q2220.88 210.807 2221.74 211.71 Q2222.62 212.613 2225.28 212.613 L2229.66 212.613 L2229.66 216.178 L2225.28 216.178 Q2220.35 216.178 2218.48 214.349 Q2216.6 212.497 2216.6 207.636 L2216.6 193.562 L2213.48 193.562 L2213.48 190.252 L2216.6 190.252 L2216.6 182.891 L2220.88 182.891 Z" fill="#000000" fill-rule="nonzero" fill-opacity="1" /><path clip-path="url(#clip200)" d="M2256.81 200.529 L2256.81 216.178 L2252.55 216.178 L2252.55 200.668 Q2252.55 196.988 2251.11 195.159 Q2249.68 193.33 2246.81 193.33 Q2243.36 193.33 2241.37 195.53 Q2239.38 197.729 2239.38 201.525 L2239.38 216.178 L2235.1 216.178 L2235.1 180.159 L2239.38 180.159 L2239.38 194.28 Q2240.91 191.942 2242.97 190.784 Q2245.05 189.627 2247.76 189.627 Q2252.23 189.627 2254.52 192.405 Q2256.81 195.159 2256.81 200.529 Z" fill="#000000" fill-rule="nonzero" fill-opacity="1" /><polyline clip-path="url(#clip200)" style="stroke:#3da44d; stroke-linecap:round; stroke-linejoin:round; stroke-width:4; stroke-opacity:1; fill:none" stroke-dasharray="16, 10" points="1849.13,250.738 1993.05,250.738 "/>
<path clip-path="url(#clip200)" d="M2017.04 233.458 L2046.28 233.458 L2046.28 237.393 L2034.01 237.393 L2034.01 268.018 L2029.31 268.018 L2029.31 237.393 L2017.04 237.393 L2017.04 233.458 Z" fill="#000000" fill-rule="nonzero" fill-opacity="1" /><path clip-path="url(#clip200)" d="M2058.66 246.073 Q2057.94 245.657 2057.09 245.471 Q2056.25 245.263 2055.24 245.263 Q2051.62 245.263 2049.68 247.624 Q2047.76 249.962 2047.76 254.36 L2047.76 268.018 L2043.48 268.018 L2043.48 242.092 L2047.76 242.092 L2047.76 246.12 Q2049.1 243.758 2051.25 242.624 Q2053.41 241.467 2056.49 241.467 Q2056.93 241.467 2057.46 241.536 Q2057.99 241.583 2058.64 241.698 L2058.66 246.073 Z" fill="#000000" fill-rule="nonzero" fill-opacity="1" /><path clip-path="url(#clip200)" d="M2062.69 257.786 L2062.69 242.092 L2066.95 242.092 L2066.95 257.624 Q2066.95 261.305 2068.38 263.156 Q2069.82 264.985 2072.69 264.985 Q2076.14 264.985 2078.13 262.786 Q2080.14 260.587 2080.14 256.791 L2080.14 242.092 L2084.4 242.092 L2084.4 268.018 L2080.14 268.018 L2080.14 264.036 Q2078.59 266.397 2076.53 267.555 Q2074.49 268.689 2071.79 268.689 Q2067.32 268.689 2065 265.911 Q2062.69 263.133 2062.69 257.786 M2073.41 241.467 L2073.41 241.467 Z" fill="#000000" fill-rule="nonzero" fill-opacity="1" /><path clip-path="url(#clip200)" d="M2115.35 253.99 L2115.35 256.073 L2095.77 256.073 Q2096.05 260.471 2098.41 262.786 Q2100.79 265.078 2105.03 265.078 Q2107.48 265.078 2109.77 264.476 Q2112.09 263.874 2114.36 262.67 L2114.36 266.698 Q2112.06 267.67 2109.66 268.18 Q2107.25 268.689 2104.77 268.689 Q2098.57 268.689 2094.93 265.078 Q2091.32 261.467 2091.32 255.309 Q2091.32 248.944 2094.75 245.217 Q2098.2 241.467 2104.03 241.467 Q2109.26 241.467 2112.3 244.846 Q2115.35 248.203 2115.35 253.99 M2111.09 252.74 Q2111.05 249.245 2109.12 247.161 Q2107.23 245.078 2104.08 245.078 Q2100.51 245.078 2098.36 247.092 Q2096.23 249.106 2095.91 252.763 L2111.09 252.74 Z" fill="#000000" fill-rule="nonzero" fill-opacity="1" /><polyline clip-path="url(#clip200)" style="stroke:#c271d2; stroke-linecap:round; stroke-linejoin:round; stroke-width:4; stroke-opacity:1; fill:none" stroke-dasharray="16, 10" points="1849.13,302.578 1993.05,302.578 "/>
<path clip-path="url(#clip200)" d="M2017.04 285.298 L2046.28 285.298 L2046.28 289.233 L2034.01 289.233 L2034.01 319.858 L2029.31 319.858 L2029.31 289.233 L2017.04 289.233 L2017.04 285.298 Z" fill="#000000" fill-rule="nonzero" fill-opacity="1" /><path clip-path="url(#clip200)" d="M2058.66 297.913 Q2057.94 297.497 2057.09 297.311 Q2056.25 297.103 2055.24 297.103 Q2051.62 297.103 2049.68 299.464 Q2047.76 301.802 2047.76 306.2 L2047.76 319.858 L2043.48 319.858 L2043.48 293.932 L2047.76 293.932 L2047.76 297.96 Q2049.1 295.598 2051.25 294.464 Q2053.41 293.307 2056.49 293.307 Q2056.93 293.307 2057.46 293.376 Q2057.99 293.423 2058.64 293.538 L2058.66 297.913 Z" fill="#000000" fill-rule="nonzero" fill-opacity="1" /><path clip-path="url(#clip200)" d="M2062.69 309.626 L2062.69 293.932 L2066.95 293.932 L2066.95 309.464 Q2066.95 313.145 2068.38 314.996 Q2069.82 316.825 2072.69 316.825 Q2076.14 316.825 2078.13 314.626 Q2080.14 312.427 2080.14 308.631 L2080.14 293.932 L2084.4 293.932 L2084.4 319.858 L2080.14 319.858 L2080.14 315.876 Q2078.59 318.237 2076.53 319.395 Q2074.49 320.529 2071.79 320.529 Q2067.32 320.529 2065 317.751 Q2062.69 314.973 2062.69 309.626 M2073.41 293.307 L2073.41 293.307 Z" fill="#000000" fill-rule="nonzero" fill-opacity="1" /><path clip-path="url(#clip200)" d="M2115.35 305.83 L2115.35 307.913 L2095.77 307.913 Q2096.05 312.311 2098.41 314.626 Q2100.79 316.918 2105.03 316.918 Q2107.48 316.918 2109.77 316.316 Q2112.09 315.714 2114.36 314.51 L2114.36 318.538 Q2112.06 319.51 2109.66 320.02 Q2107.25 320.529 2104.77 320.529 Q2098.57 320.529 2094.93 316.918 Q2091.32 313.307 2091.32 307.149 Q2091.32 300.784 2094.75 297.057 Q2098.2 293.307 2104.03 293.307 Q2109.26 293.307 2112.3 296.686 Q2115.35 300.043 2115.35 305.83 M2111.09 304.58 Q2111.05 301.085 2109.12 299.001 Q2107.23 296.918 2104.08 296.918 Q2100.51 296.918 2098.36 298.932 Q2096.23 300.946 2095.91 304.603 L2111.09 304.58 Z" fill="#000000" fill-rule="nonzero" fill-opacity="1" /></svg>
