<?xml version="1.0" encoding="utf-8"?>
<svg xmlns="http://www.w3.org/2000/svg" xmlns:xlink="http://www.w3.org/1999/xlink" width="600" height="400" viewBox="0 0 2400 1600">
<defs>
  <clipPath id="clip740">
    <rect x="0" y="0" width="2400" height="1600"/>
  </clipPath>
</defs>
<path clip-path="url(#clip740)" d="M0 1600 L2400 1600 L2400 0 L0 0  Z" fill="#ffffff" fill-rule="evenodd" fill-opacity="1"/>
<defs>
  <clipPath id="clip741">
    <rect x="193" y="47" width="2160" height="1440"/>
  </clipPath>
</defs>
<path clip-path="url(#clip740)" d="M193.936 1486.45 L2352.76 1486.45 L2352.76 47.2441 L193.936 47.2441  Z" fill="#ffffff" fill-rule="evenodd" fill-opacity="1"/>
<polyline clip-path="url(#clip741)" style="stroke:#000000; stroke-linecap:round; stroke-linejoin:round; stroke-width:2; stroke-opacity:0.1; fill:none" points="229.255,1486.45 229.255,47.2441 "/>
<polyline clip-path="url(#clip741)" style="stroke:#000000; stroke-linecap:round; stroke-linejoin:round; stroke-width:2; stroke-opacity:0.1; fill:none" points="744.855,1486.45 744.855,47.2441 "/>
<polyline clip-path="url(#clip741)" style="stroke:#000000; stroke-linecap:round; stroke-linejoin:round; stroke-width:2; stroke-opacity:0.1; fill:none" points="1260.46,1486.45 1260.46,47.2441 "/>
<polyline clip-path="url(#clip741)" style="stroke:#000000; stroke-linecap:round; stroke-linejoin:round; stroke-width:2; stroke-opacity:0.1; fill:none" points="1776.06,1486.45 1776.06,47.2441 "/>
<polyline clip-path="url(#clip741)" style="stroke:#000000; stroke-linecap:round; stroke-linejoin:round; stroke-width:2; stroke-opacity:0.1; fill:none" points="2291.66,1486.45 2291.66,47.2441 "/>
<polyline clip-path="url(#clip741)" style="stroke:#000000; stroke-linecap:round; stroke-linejoin:round; stroke-width:2; stroke-opacity:0.1; fill:none" points="193.936,1289.61 2352.76,1289.61 "/>
<polyline clip-path="url(#clip741)" style="stroke:#000000; stroke-linecap:round; stroke-linejoin:round; stroke-width:2; stroke-opacity:0.1; fill:none" points="193.936,1034.4 2352.76,1034.4 "/>
<polyline clip-path="url(#clip741)" style="stroke:#000000; stroke-linecap:round; stroke-linejoin:round; stroke-width:2; stroke-opacity:0.1; fill:none" points="193.936,779.196 2352.76,779.196 "/>
<polyline clip-path="url(#clip741)" style="stroke:#000000; stroke-linecap:round; stroke-linejoin:round; stroke-width:2; stroke-opacity:0.1; fill:none" points="193.936,523.988 2352.76,523.988 "/>
<polyline clip-path="url(#clip741)" style="stroke:#000000; stroke-linecap:round; stroke-linejoin:round; stroke-width:2; stroke-opacity:0.1; fill:none" points="193.936,268.78 2352.76,268.78 "/>
<polyline clip-path="url(#clip740)" style="stroke:#000000; stroke-linecap:round; stroke-linejoin:round; stroke-width:4; stroke-opacity:1; fill:none" points="193.936,1486.45 2352.76,1486.45 "/>
<polyline clip-path="url(#clip740)" style="stroke:#000000; stroke-linecap:round; stroke-linejoin:round; stroke-width:4; stroke-opacity:1; fill:none" points="229.255,1486.45 229.255,1467.55 "/>
<polyline clip-path="url(#clip740)" style="stroke:#000000; stroke-linecap:round; stroke-linejoin:round; stroke-width:4; stroke-opacity:1; fill:none" points="744.855,1486.45 744.855,1467.55 "/>
<polyline clip-path="url(#clip740)" style="stroke:#000000; stroke-linecap:round; stroke-linejoin:round; stroke-width:4; stroke-opacity:1; fill:none" points="1260.46,1486.45 1260.46,1467.55 "/>
<polyline clip-path="url(#clip740)" style="stroke:#000000; stroke-linecap:round; stroke-linejoin:round; stroke-width:4; stroke-opacity:1; fill:none" points="1776.06,1486.45 1776.06,1467.55 "/>
<polyline clip-path="url(#clip740)" style="stroke:#000000; stroke-linecap:round; stroke-linejoin:round; stroke-width:4; stroke-opacity:1; fill:none" points="2291.66,1486.45 2291.66,1467.55 "/>
<path clip-path="url(#clip740)" d="M229.255 1517.37 Q225.644 1517.37 223.815 1520.93 Q222.009 1524.47 222.009 1531.6 Q222.009 1538.71 223.815 1542.27 Q225.644 1545.82 229.255 1545.82 Q232.889 1545.82 234.694 1542.27 Q236.523 1538.71 236.523 1531.6 Q236.523 1524.47 234.694 1520.93 Q232.889 1517.37 229.255 1517.37 M229.255 1513.66 Q235.065 1513.66 238.12 1518.27 Q241.199 1522.85 241.199 1531.6 Q241.199 1540.33 238.12 1544.94 Q235.065 1549.52 229.255 1549.52 Q223.444 1549.52 220.366 1544.94 Q217.31 1540.33 217.31 1531.6 Q217.31 1522.85 220.366 1518.27 Q223.444 1513.66 229.255 1513.66 Z" fill="#000000" fill-rule="nonzero" fill-opacity="1" /><path clip-path="url(#clip740)" d="M723.629 1544.91 L739.948 1544.91 L739.948 1548.85 L718.004 1548.85 L718.004 1544.91 Q720.666 1542.16 725.249 1537.53 Q729.855 1532.88 731.036 1531.53 Q733.281 1529.01 734.161 1527.27 Q735.064 1525.51 735.064 1523.82 Q735.064 1521.07 733.119 1519.33 Q731.198 1517.6 728.096 1517.6 Q725.897 1517.6 723.443 1518.36 Q721.013 1519.13 718.235 1520.68 L718.235 1515.95 Q721.059 1514.82 723.513 1514.24 Q725.967 1513.66 728.004 1513.66 Q733.374 1513.66 736.568 1516.35 Q739.763 1519.03 739.763 1523.52 Q739.763 1525.65 738.953 1527.57 Q738.166 1529.47 736.059 1532.07 Q735.48 1532.74 732.379 1535.95 Q729.277 1539.15 723.629 1544.91 Z" fill="#000000" fill-rule="nonzero" fill-opacity="1" /><path clip-path="url(#clip740)" d="M759.763 1517.37 Q756.152 1517.37 754.323 1520.93 Q752.517 1524.47 752.517 1531.6 Q752.517 1538.71 754.323 1542.27 Q756.152 1545.82 759.763 1545.82 Q763.397 1545.82 765.202 1542.27 Q767.031 1538.71 767.031 1531.6 Q767.031 1524.47 765.202 1520.93 Q763.397 1517.37 759.763 1517.37 M759.763 1513.66 Q765.573 1513.66 768.628 1518.27 Q771.707 1522.85 771.707 1531.6 Q771.707 1540.33 768.628 1544.94 Q765.573 1549.52 759.763 1549.52 Q753.952 1549.52 750.874 1544.94 Q747.818 1540.33 747.818 1531.6 Q747.818 1522.85 750.874 1518.27 Q753.952 1513.66 759.763 1513.66 Z" fill="#000000" fill-rule="nonzero" fill-opacity="1" /><path clip-path="url(#clip740)" d="M1248.63 1518.36 L1236.82 1536.81 L1248.63 1536.81 L1248.63 1518.36 M1247.4 1514.29 L1253.28 1514.29 L1253.28 1536.81 L1258.21 1536.81 L1258.21 1540.7 L1253.28 1540.7 L1253.28 1548.85 L1248.63 1548.85 L1248.63 1540.7 L1233.03 1540.7 L1233.03 1536.19 L1247.4 1514.29 Z" fill="#000000" fill-rule="nonzero" fill-opacity="1" /><path clip-path="url(#clip740)" d="M1275.94 1517.37 Q1272.33 1517.37 1270.5 1520.93 Q1268.7 1524.47 1268.7 1531.6 Q1268.7 1538.71 1270.5 1542.27 Q1272.33 1545.82 1275.94 1545.82 Q1279.58 1545.82 1281.38 1542.27 Q1283.21 1538.71 1283.21 1531.6 Q1283.21 1524.47 1281.38 1520.93 Q1279.58 1517.37 1275.94 1517.37 M1275.94 1513.66 Q1281.75 1513.66 1284.81 1518.27 Q1287.89 1522.85 1287.89 1531.6 Q1287.89 1540.33 1284.81 1544.94 Q1281.75 1549.52 1275.94 1549.52 Q1270.13 1549.52 1267.05 1544.94 Q1264 1540.33 1264 1531.6 Q1264 1522.85 1267.05 1518.27 Q1270.13 1513.66 1275.94 1513.66 Z" fill="#000000" fill-rule="nonzero" fill-opacity="1" /><path clip-path="url(#clip740)" d="M1761.46 1529.7 Q1758.31 1529.7 1756.46 1531.86 Q1754.63 1534.01 1754.63 1537.76 Q1754.63 1541.49 1756.46 1543.66 Q1758.31 1545.82 1761.46 1545.82 Q1764.61 1545.82 1766.44 1543.66 Q1768.29 1541.49 1768.29 1537.76 Q1768.29 1534.01 1766.44 1531.86 Q1764.61 1529.7 1761.46 1529.7 M1770.74 1515.05 L1770.74 1519.31 Q1768.98 1518.48 1767.18 1518.04 Q1765.4 1517.6 1763.64 1517.6 Q1759.01 1517.6 1756.55 1520.72 Q1754.12 1523.85 1753.78 1530.17 Q1755.14 1528.15 1757.2 1527.09 Q1759.26 1526 1761.74 1526 Q1766.95 1526 1769.96 1529.17 Q1772.99 1532.32 1772.99 1537.76 Q1772.99 1543.08 1769.84 1546.3 Q1766.69 1549.52 1761.46 1549.52 Q1755.47 1549.52 1752.3 1544.94 Q1749.12 1540.33 1749.12 1531.6 Q1749.12 1523.41 1753.01 1518.55 Q1756.9 1513.66 1763.45 1513.66 Q1765.21 1513.66 1766.99 1514.01 Q1768.8 1514.36 1770.74 1515.05 Z" fill="#000000" fill-rule="nonzero" fill-opacity="1" /><path clip-path="url(#clip740)" d="M1791.04 1517.37 Q1787.43 1517.37 1785.61 1520.93 Q1783.8 1524.47 1783.8 1531.6 Q1783.8 1538.71 1785.61 1542.27 Q1787.43 1545.82 1791.04 1545.82 Q1794.68 1545.82 1796.48 1542.27 Q1798.31 1538.71 1798.31 1531.6 Q1798.31 1524.47 1796.48 1520.93 Q1794.68 1517.37 1791.04 1517.37 M1791.04 1513.66 Q1796.86 1513.66 1799.91 1518.27 Q1802.99 1522.85 1802.99 1531.6 Q1802.99 1540.33 1799.91 1544.94 Q1796.86 1549.52 1791.04 1549.52 Q1785.23 1549.52 1782.16 1544.94 Q1779.1 1540.33 1779.1 1531.6 Q1779.1 1522.85 1782.16 1518.27 Q1785.23 1513.66 1791.04 1513.66 Z" fill="#000000" fill-rule="nonzero" fill-opacity="1" /><path clip-path="url(#clip740)" d="M2276.53 1532.44 Q2273.2 1532.44 2271.28 1534.22 Q2269.38 1536 2269.38 1539.13 Q2269.38 1542.25 2271.28 1544.03 Q2273.2 1545.82 2276.53 1545.82 Q2279.86 1545.82 2281.78 1544.03 Q2283.71 1542.23 2283.71 1539.13 Q2283.71 1536 2281.78 1534.22 Q2279.89 1532.44 2276.53 1532.44 M2271.85 1530.45 Q2268.84 1529.7 2267.16 1527.64 Q2265.49 1525.58 2265.49 1522.62 Q2265.49 1518.48 2268.43 1516.07 Q2271.39 1513.66 2276.53 1513.66 Q2281.69 1513.66 2284.63 1516.07 Q2287.57 1518.48 2287.57 1522.62 Q2287.57 1525.58 2285.88 1527.64 Q2284.22 1529.7 2281.23 1530.45 Q2284.61 1531.23 2286.48 1533.52 Q2288.38 1535.82 2288.38 1539.13 Q2288.38 1544.15 2285.3 1546.83 Q2282.25 1549.52 2276.53 1549.52 Q2270.81 1549.52 2267.73 1546.83 Q2264.68 1544.15 2264.68 1539.13 Q2264.68 1535.82 2266.58 1533.52 Q2268.47 1531.23 2271.85 1530.45 M2270.14 1523.06 Q2270.14 1525.75 2271.81 1527.25 Q2273.5 1528.76 2276.53 1528.76 Q2279.54 1528.76 2281.23 1527.25 Q2282.94 1525.75 2282.94 1523.06 Q2282.94 1520.38 2281.23 1518.87 Q2279.54 1517.37 2276.53 1517.37 Q2273.5 1517.37 2271.81 1518.87 Q2270.14 1520.38 2270.14 1523.06 Z" fill="#000000" fill-rule="nonzero" fill-opacity="1" /><path clip-path="url(#clip740)" d="M2306.69 1517.37 Q2303.08 1517.37 2301.25 1520.93 Q2299.45 1524.47 2299.45 1531.6 Q2299.45 1538.71 2301.25 1542.27 Q2303.08 1545.82 2306.69 1545.82 Q2310.33 1545.82 2312.13 1542.27 Q2313.96 1538.71 2313.96 1531.6 Q2313.96 1524.47 2312.13 1520.93 Q2310.33 1517.37 2306.69 1517.37 M2306.69 1513.66 Q2312.5 1513.66 2315.56 1518.27 Q2318.64 1522.85 2318.64 1531.6 Q2318.64 1540.33 2315.56 1544.94 Q2312.5 1549.52 2306.69 1549.52 Q2300.88 1549.52 2297.8 1544.94 Q2294.75 1540.33 2294.75 1531.6 Q2294.75 1522.85 2297.8 1518.27 Q2300.88 1513.66 2306.69 1513.66 Z" fill="#000000" fill-rule="nonzero" fill-opacity="1" /><polyline clip-path="url(#clip740)" style="stroke:#000000; stroke-linecap:round; stroke-linejoin:round; stroke-width:4; stroke-opacity:1; fill:none" points="193.936,1486.45 193.936,47.2441 "/>
<polyline clip-path="url(#clip740)" style="stroke:#000000; stroke-linecap:round; stroke-linejoin:round; stroke-width:4; stroke-opacity:1; fill:none" points="193.936,1289.61 212.834,1289.61 "/>
<polyline clip-path="url(#clip740)" style="stroke:#000000; stroke-linecap:round; stroke-linejoin:round; stroke-width:4; stroke-opacity:1; fill:none" points="193.936,1034.4 212.834,1034.4 "/>
<polyline clip-path="url(#clip740)" style="stroke:#000000; stroke-linecap:round; stroke-linejoin:round; stroke-width:4; stroke-opacity:1; fill:none" points="193.936,779.196 212.834,779.196 "/>
<polyline clip-path="url(#clip740)" style="stroke:#000000; stroke-linecap:round; stroke-linejoin:round; stroke-width:4; stroke-opacity:1; fill:none" points="193.936,523.988 212.834,523.988 "/>
<polyline clip-path="url(#clip740)" style="stroke:#000000; stroke-linecap:round; stroke-linejoin:round; stroke-width:4; stroke-opacity:1; fill:none" points="193.936,268.78 212.834,268.78 "/>
<path clip-path="url(#clip740)" d="M50.9921 1290.06 L80.6679 1290.06 L80.6679 1294 L50.9921 1294 L50.9921 1290.06 Z" fill="#000000" fill-rule="nonzero" fill-opacity="1" /><path clip-path="url(#clip740)" d="M91.5706 1302.96 L99.2095 1302.96 L99.2095 1276.59 L90.8993 1278.26 L90.8993 1274 L99.1632 1272.33 L103.839 1272.33 L103.839 1302.96 L111.478 1302.96 L111.478 1306.89 L91.5706 1306.89 L91.5706 1302.96 Z" fill="#000000" fill-rule="nonzero" fill-opacity="1" /><path clip-path="url(#clip740)" d="M120.922 1301.01 L125.807 1301.01 L125.807 1306.89 L120.922 1306.89 L120.922 1301.01 Z" fill="#000000" fill-rule="nonzero" fill-opacity="1" /><path clip-path="url(#clip740)" d="M145.992 1275.41 Q142.381 1275.41 140.552 1278.98 Q138.746 1282.52 138.746 1289.65 Q138.746 1296.75 140.552 1300.32 Q142.381 1303.86 145.992 1303.86 Q149.626 1303.86 151.431 1300.32 Q153.26 1296.75 153.26 1289.65 Q153.26 1282.52 151.431 1278.98 Q149.626 1275.41 145.992 1275.41 M145.992 1271.71 Q151.802 1271.71 154.857 1276.31 Q157.936 1280.9 157.936 1289.65 Q157.936 1298.37 154.857 1302.98 Q151.802 1307.56 145.992 1307.56 Q140.181 1307.56 137.103 1302.98 Q134.047 1298.37 134.047 1289.65 Q134.047 1280.9 137.103 1276.31 Q140.181 1271.71 145.992 1271.71 Z" fill="#000000" fill-rule="nonzero" fill-opacity="1" /><path clip-path="url(#clip740)" d="M51.9875 1034.86 L81.6633 1034.86 L81.6633 1038.79 L51.9875 1038.79 L51.9875 1034.86 Z" fill="#000000" fill-rule="nonzero" fill-opacity="1" /><path clip-path="url(#clip740)" d="M101.756 1020.2 Q98.1447 1020.2 96.316 1023.77 Q94.5104 1027.31 94.5104 1034.44 Q94.5104 1041.55 96.316 1045.11 Q98.1447 1048.65 101.756 1048.65 Q105.39 1048.65 107.196 1045.11 Q109.024 1041.55 109.024 1034.44 Q109.024 1027.31 107.196 1023.77 Q105.39 1020.2 101.756 1020.2 M101.756 1016.5 Q107.566 1016.5 110.621 1021.11 Q113.7 1025.69 113.7 1034.44 Q113.7 1043.17 110.621 1047.77 Q107.566 1052.36 101.756 1052.36 Q95.9456 1052.36 92.8669 1047.77 Q89.8114 1043.17 89.8114 1034.44 Q89.8114 1025.69 92.8669 1021.11 Q95.9456 1016.5 101.756 1016.5 Z" fill="#000000" fill-rule="nonzero" fill-opacity="1" /><path clip-path="url(#clip740)" d="M121.918 1045.8 L126.802 1045.8 L126.802 1051.68 L121.918 1051.68 L121.918 1045.8 Z" fill="#000000" fill-rule="nonzero" fill-opacity="1" /><path clip-path="url(#clip740)" d="M137.033 1017.12 L155.39 1017.12 L155.39 1021.06 L141.316 1021.06 L141.316 1029.53 Q142.334 1029.18 143.353 1029.02 Q144.371 1028.84 145.39 1028.84 Q151.177 1028.84 154.556 1032.01 Q157.936 1035.18 157.936 1040.6 Q157.936 1046.18 154.464 1049.28 Q150.992 1052.36 144.672 1052.36 Q142.496 1052.36 140.228 1051.99 Q137.982 1051.62 135.575 1050.87 L135.575 1046.18 Q137.658 1047.31 139.881 1047.87 Q142.103 1048.42 144.58 1048.42 Q148.584 1048.42 150.922 1046.31 Q153.26 1044.21 153.26 1040.6 Q153.26 1036.99 150.922 1034.88 Q148.584 1032.77 144.58 1032.77 Q142.705 1032.77 140.83 1033.19 Q138.978 1033.61 137.033 1034.49 L137.033 1017.12 Z" fill="#000000" fill-rule="nonzero" fill-opacity="1" /><path clip-path="url(#clip740)" d="M100.76 764.995 Q97.1493 764.995 95.3206 768.56 Q93.515 772.101 93.515 779.231 Q93.515 786.337 95.3206 789.902 Q97.1493 793.444 100.76 793.444 Q104.395 793.444 106.2 789.902 Q108.029 786.337 108.029 779.231 Q108.029 772.101 106.2 768.56 Q104.395 764.995 100.76 764.995 M100.76 761.291 Q106.571 761.291 109.626 765.898 Q112.705 770.481 112.705 779.231 Q112.705 787.958 109.626 792.564 Q106.571 797.148 100.76 797.148 Q94.9502 797.148 91.8715 792.564 Q88.816 787.958 88.816 779.231 Q88.816 770.481 91.8715 765.898 Q94.9502 761.291 100.76 761.291 Z" fill="#000000" fill-rule="nonzero" fill-opacity="1" /><path clip-path="url(#clip740)" d="M120.922 790.597 L125.807 790.597 L125.807 796.476 L120.922 796.476 L120.922 790.597 Z" fill="#000000" fill-rule="nonzero" fill-opacity="1" /><path clip-path="url(#clip740)" d="M145.992 764.995 Q142.381 764.995 140.552 768.56 Q138.746 772.101 138.746 779.231 Q138.746 786.337 140.552 789.902 Q142.381 793.444 145.992 793.444 Q149.626 793.444 151.431 789.902 Q153.26 786.337 153.26 779.231 Q153.26 772.101 151.431 768.56 Q149.626 764.995 145.992 764.995 M145.992 761.291 Q151.802 761.291 154.857 765.898 Q157.936 770.481 157.936 779.231 Q157.936 787.958 154.857 792.564 Q151.802 797.148 145.992 797.148 Q140.181 797.148 137.103 792.564 Q134.047 787.958 134.047 779.231 Q134.047 770.481 137.103 765.898 Q140.181 761.291 145.992 761.291 Z" fill="#000000" fill-rule="nonzero" fill-opacity="1" /><path clip-path="url(#clip740)" d="M101.756 509.787 Q98.1447 509.787 96.316 513.352 Q94.5104 516.893 94.5104 524.023 Q94.5104 531.129 96.316 534.694 Q98.1447 538.236 101.756 538.236 Q105.39 538.236 107.196 534.694 Q109.024 531.129 109.024 524.023 Q109.024 516.893 107.196 513.352 Q105.39 509.787 101.756 509.787 M101.756 506.083 Q107.566 506.083 110.621 510.69 Q113.7 515.273 113.7 524.023 Q113.7 532.75 110.621 537.356 Q107.566 541.939 101.756 541.939 Q95.9456 541.939 92.8669 537.356 Q89.8114 532.75 89.8114 524.023 Q89.8114 515.273 92.8669 510.69 Q95.9456 506.083 101.756 506.083 Z" fill="#000000" fill-rule="nonzero" fill-opacity="1" /><path clip-path="url(#clip740)" d="M121.918 535.389 L126.802 535.389 L126.802 541.268 L121.918 541.268 L121.918 535.389 Z" fill="#000000" fill-rule="nonzero" fill-opacity="1" /><path clip-path="url(#clip740)" d="M137.033 506.708 L155.39 506.708 L155.39 510.643 L141.316 510.643 L141.316 519.115 Q142.334 518.768 143.353 518.606 Q144.371 518.421 145.39 518.421 Q151.177 518.421 154.556 521.592 Q157.936 524.764 157.936 530.18 Q157.936 535.759 154.464 538.861 Q150.992 541.939 144.672 541.939 Q142.496 541.939 140.228 541.569 Q137.982 541.199 135.575 540.458 L135.575 535.759 Q137.658 536.893 139.881 537.449 Q142.103 538.004 144.58 538.004 Q148.584 538.004 150.922 535.898 Q153.26 533.791 153.26 530.18 Q153.26 526.569 150.922 524.463 Q148.584 522.356 144.58 522.356 Q142.705 522.356 140.83 522.773 Q138.978 523.189 137.033 524.069 L137.033 506.708 Z" fill="#000000" fill-rule="nonzero" fill-opacity="1" /><path clip-path="url(#clip740)" d="M91.5706 282.125 L99.2095 282.125 L99.2095 255.759 L90.8993 257.426 L90.8993 253.167 L99.1632 251.5 L103.839 251.5 L103.839 282.125 L111.478 282.125 L111.478 286.06 L91.5706 286.06 L91.5706 282.125 Z" fill="#000000" fill-rule="nonzero" fill-opacity="1" /><path clip-path="url(#clip740)" d="M120.922 280.18 L125.807 280.18 L125.807 286.06 L120.922 286.06 L120.922 280.18 Z" fill="#000000" fill-rule="nonzero" fill-opacity="1" /><path clip-path="url(#clip740)" d="M145.992 254.579 Q142.381 254.579 140.552 258.143 Q138.746 261.685 138.746 268.815 Q138.746 275.921 140.552 279.486 Q142.381 283.028 145.992 283.028 Q149.626 283.028 151.431 279.486 Q153.26 275.921 153.26 268.815 Q153.26 261.685 151.431 258.143 Q149.626 254.579 145.992 254.579 M145.992 250.875 Q151.802 250.875 154.857 255.481 Q157.936 260.065 157.936 268.815 Q157.936 277.541 154.857 282.148 Q151.802 286.731 145.992 286.731 Q140.181 286.731 137.103 282.148 Q134.047 277.541 134.047 268.815 Q134.047 260.065 137.103 255.481 Q140.181 250.875 145.992 250.875 Z" fill="#000000" fill-rule="nonzero" fill-opacity="1" /><path clip-path="url(#clip741)" d="M255.035 1245.99 L280.815 1135.52 L306.595 1178.87 L332.375 1191.33 L358.155 1156.56 L383.935 1088.84 L409.715 1176.97 L435.495 1124.72 L461.275 1050.05 L487.055 1036.99 L512.835 1028.91 L538.615 1033.97 L564.395 972.747 L590.175 997.343 L615.955 905.71 L641.735 917.817 L667.515 925.708 L693.295 864.797 L719.075 891.897 L744.855 818.223 L770.635 786.429 L796.415 733.104 L822.195 725.775 L847.975 612.568 L873.755 650 L899.535 712.122 L925.316 735.769 L951.096 693.285 L976.876 710.778 L1002.66 715.747 L1028.44 795.642 L1054.22 760.924 L1080 737.706 L1105.78 740.482 L1131.56 795.085 L1157.34 766.174 L1183.12 824.546 L1208.9 839.475 L1234.68 954.305 L1260.46 874.563 L1286.24 896.076 L1312.02 923.027 L1337.8 937.893 L1363.58 925.373 L1389.36 936.882 L1415.14 988.819 L1440.92 922.392 L1466.7 891.602 L1492.48 928.811 L1518.26 1040.57 L1544.04 1117.26 L1569.82 1144.53 L1595.6 1172.47 L1621.38 1222.64 L1647.16 1236.19 L1672.94 1180.32 L1698.72 1128.75 L1724.5 1087.16 L1750.28 1078.94 L1776.06 1105.69 L1801.84 1117.67 L1827.62 1197.05 L1853.4 1200.79 L1879.18 1130.54 L1904.96 1047.75 L1930.74 1056.55 L1956.52 1007.32 L1982.3 1018.14 L2008.08 1076.9 L2033.86 1197.45 L2059.64 1185.88 L2085.42 1251.43 L2111.2 1267.62 L2136.98 1312.83 L2162.76 1373.17 L2188.54 1421.06 L2214.32 1445.72 L2240.1 1357.21 L2265.88 1364.69 L2291.66 1424.33 L2291.66 823.202 L2265.88 793.701 L2240.1 825.385 L2214.32 950.831 L2188.54 920.952 L2162.76 872.877 L2136.98 813.593 L2111.2 788.784 L2085.42 774.333 L2059.64 737.78 L2033.86 738.362 L2008.08 636.099 L1982.3 564.284 L1956.52 584.317 L1930.74 630.978 L1904.96 678.442 L1879.18 738.314 L1853.4 798.211 L1827.62 816.901 L1801.84 740.68 L1776.06 689.051 L1750.28 658.937 L1724.5 619.131 L1698.72 625.665 L1672.94 670.091 L1647.16 727.595 L1621.38 752.602 L1595.6 723.717 L1569.82 715.043 L1544.04 649.591 L1518.26 571.509 L1492.48 446.8 L1466.7 420.032 L1440.92 450.075 L1415.14 501.657 L1389.36 473.496 L1363.58 455.823 L1337.8 490.801 L1312.02 483.992 L1286.24 467.64 L1260.46 416.506 L1234.68 506.6 L1208.9 405.349 L1183.12 411.309 L1157.34 347.456 L1131.56 374.282 L1105.78 311.238 L1080 338.446 L1054.22 360.026 L1028.44 374.283 L1002.66 272.295 L976.876 249.628 L951.096 220.298 L925.316 287.509 L899.535 217.004 L873.755 130.539 L847.975 87.9763 L822.195 189.036 L796.415 199.859 L770.635 271.419 L744.855 274.835 L719.075 350.243 L693.295 331.417 L667.515 407.052 L641.735 388.743 L615.955 433.739 L590.175 485.016 L564.395 446.485 L538.615 490.89 L512.835 491.567 L487.055 469.381 L461.275 477.46 L435.495 499.017 L409.715 537.827 L383.935 444.74 L358.155 510.35 L332.375 535.704 L306.595 473.869 L280.815 390.085 L255.035 456.515  Z" fill="#009af9" fill-rule="evenodd" fill-opacity="0.5"/>
<polyline clip-path="url(#clip741)" style="stroke:#009af9; stroke-linecap:round; stroke-linejoin:round; stroke-width:4; stroke-opacity:1; fill:none" points="255.035,851.252 280.815,762.802 306.595,826.369 332.375,863.515 358.155,833.455 383.935,766.789 409.715,857.397 435.495,811.867 461.275,763.753 487.055,753.186 512.835,760.237 538.615,762.432 564.395,709.616 590.175,741.18 615.955,669.725 641.735,653.28 667.515,666.38 693.295,598.107 719.075,621.07 744.855,546.529 770.635,528.924 796.415,466.481 822.195,457.405 847.975,350.272 873.755,390.27 899.535,464.563 925.316,511.639 951.096,456.792 976.876,480.203 1002.66,494.021 1028.44,584.963 1054.22,560.475 1080,538.076 1105.78,525.86 1131.56,584.684 1157.34,556.815 1183.12,617.927 1208.9,622.412 1234.68,730.452 1260.46,645.534 1286.24,681.858 1312.02,703.51 1337.8,714.347 1363.58,690.598 1389.36,705.189 1415.14,745.238 1440.92,686.234 1466.7,655.817 1492.48,687.806 1518.26,806.039 1544.04,883.424 1569.82,929.787 1595.6,948.093 1621.38,987.621 1647.16,981.893 1672.94,925.204 1698.72,877.21 1724.5,853.144 1750.28,868.937 1776.06,897.372 1801.84,929.177 1827.62,1006.98 1853.4,999.5 1879.18,934.428 1904.96,863.096 1930.74,843.763 1956.52,795.816 1982.3,791.212 2008.08,856.499 2033.86,967.906 2059.64,961.83 2085.42,1012.88 2111.2,1028.2 2136.98,1063.21 2162.76,1123.02 2188.54,1171.01 2214.32,1198.27 2240.1,1091.3 2265.88,1079.2 2291.66,1123.77 "/>
<path clip-path="url(#clip741)" d="M255.035 1240.79 L280.815 1246.2 L306.595 1199.91 L332.375 1139.44 L358.155 1126.4 L383.935 1126.5 L409.715 1103.3 L435.495 1145.72 L461.275 1162.97 L487.055 1181.32 L512.835 1211.33 L538.615 1190.71 L564.395 1197.91 L590.175 1176.28 L615.955 1165.77 L641.735 1114.4 L667.515 1067.28 L693.295 1031.45 L719.075 1016.24 L744.855 997.153 L770.635 963.642 L796.415 898.197 L822.195 850.209 L847.975 836.395 L873.755 806.939 L899.535 770.941 L925.316 754.9 L951.096 722.491 L976.876 656.283 L1002.66 624.223 L1028.44 608.9 L1054.22 648.157 L1080 645.793 L1105.78 657.408 L1131.56 665.357 L1157.34 683.769 L1183.12 662.375 L1208.9 645.391 L1234.68 604.337 L1260.46 630.596 L1286.24 657.712 L1312.02 680.506 L1337.8 692.67 L1363.58 695.459 L1389.36 663.044 L1415.14 638.578 L1440.92 640.073 L1466.7 634.642 L1492.48 637.19 L1518.26 623.454 L1544.04 614.174 L1569.82 644.244 L1595.6 680.01 L1621.38 722.352 L1647.16 755.014 L1672.94 805.915 L1698.72 804.764 L1724.5 806.232 L1750.28 774.007 L1776.06 762.689 L1801.84 794.769 L1827.62 838.913 L1853.4 888.701 L1879.18 925.901 L1904.96 948.909 L1930.74 970.292 L1956.52 949.619 L1982.3 894.029 L2008.08 892.008 L2033.86 871.672 L2059.64 819.149 L2085.42 821.091 L2111.2 822.198 L2136.98 816.219 L2162.76 869.056 L2188.54 923.957 L2214.32 984.019 L2240.1 1009.14 L2265.88 1000.23 L2291.66 1041.34 L2291.66 801.755 L2265.88 792.82 L2240.1 809.799 L2214.32 786.74 L2188.54 717.293 L2162.76 675.985 L2136.98 633.077 L2111.2 616.001 L2085.42 614.28 L2059.64 641.352 L2033.86 677.18 L2008.08 698.931 L1982.3 695.694 L1956.52 734.816 L1930.74 763.362 L1904.96 758.644 L1879.18 732.038 L1853.4 683.882 L1827.62 626.252 L1801.84 592.916 L1776.06 589.737 L1750.28 579.144 L1724.5 594.61 L1698.72 604.275 L1672.94 614.886 L1647.16 576.282 L1621.38 515.918 L1595.6 507.189 L1569.82 475.992 L1544.04 417.822 L1518.26 414.786 L1492.48 429.21 L1466.7 442.207 L1440.92 451.926 L1415.14 427.871 L1389.36 461.731 L1363.58 474.333 L1337.8 487 L1312.02 487.664 L1286.24 430.484 L1260.46 429.645 L1234.68 403.895 L1208.9 413.619 L1183.12 438.47 L1157.34 449.685 L1131.56 454.481 L1105.78 442.201 L1080 450.655 L1054.22 427.058 L1028.44 427.374 L1002.66 436.788 L976.876 454.264 L951.096 501.376 L925.316 553.539 L899.535 578.631 L873.755 610.876 L847.975 626.427 L822.195 650.411 L796.415 692.61 L770.635 764.906 L744.855 790.92 L719.075 812.585 L693.295 815.139 L667.515 835.383 L641.735 905.516 L615.955 955.843 L590.175 1001.86 L564.395 998.975 L538.615 975.806 L512.835 968.233 L487.055 972.287 L461.275 965.544 L435.495 918.117 L409.715 902.981 L383.935 903.434 L358.155 920.503 L332.375 926.03 L306.595 968.168 L280.815 1018.06 L255.035 978.9  Z" fill="#e26f46" fill-rule="evenodd" fill-opacity="0.5"/>
<polyline clip-path="url(#clip741)" style="stroke:#e26f46; stroke-linecap:round; stroke-linejoin:round; stroke-width:4; stroke-opacity:1; fill:none" points="255.035,1109.84 280.815,1132.13 306.595,1084.04 332.375,1032.74 358.155,1023.45 383.935,1014.97 409.715,1003.14 435.495,1031.92 461.275,1064.25 487.055,1076.81 512.835,1089.78 538.615,1083.26 564.395,1098.45 590.175,1089.07 615.955,1060.81 641.735,1009.96 667.515,951.332 693.295,923.293 719.075,914.413 744.855,894.037 770.635,864.274 796.415,795.403 822.195,750.31 847.975,731.411 873.755,708.907 899.535,674.786 925.316,654.22 951.096,611.933 976.876,555.274 1002.66,530.506 1028.44,518.137 1054.22,537.608 1080,548.224 1105.78,549.805 1131.56,559.919 1157.34,566.727 1183.12,550.423 1208.9,529.505 1234.68,504.116 1260.46,530.121 1286.24,544.098 1312.02,584.085 1337.8,589.835 1363.58,584.896 1389.36,562.388 1415.14,533.225 1440.92,546 1466.7,538.425 1492.48,533.2 1518.26,519.12 1544.04,515.998 1569.82,560.118 1595.6,593.599 1621.38,619.135 1647.16,665.648 1672.94,710.4 1698.72,704.52 1724.5,700.421 1750.28,676.576 1776.06,676.213 1801.84,693.842 1827.62,732.583 1853.4,786.292 1879.18,828.969 1904.96,853.776 1930.74,866.827 1956.52,842.217 1982.3,794.861 2008.08,795.469 2033.86,774.426 2059.64,730.251 2085.42,717.685 2111.2,719.1 2136.98,724.648 2162.76,772.52 2188.54,820.625 2214.32,885.38 2240.1,909.468 2265.88,896.523 2291.66,921.548 "/>
<polyline clip-path="url(#clip741)" style="stroke:#3da44d; stroke-linecap:round; stroke-linejoin:round; stroke-width:4; stroke-opacity:1; fill:none" stroke-dasharray="16, 10" points="255.035,682.254 280.815,624.676 306.595,692.013 332.375,705.66 358.155,654.029 383.935,620.375 409.715,679.297 435.495,605.171 461.275,557.52 487.055,569.753 512.835,541.034 538.615,601.84 564.395,594.841 590.175,747.997 615.955,676.594 641.735,645.899 667.515,752.355 693.295,696.431 719.075,722.591 744.855,659.988 770.635,582.183 796.415,453.461 822.195,466.878 847.975,405.182 873.755,469.13 899.535,547.875 925.316,579.722 951.096,567.759 976.876,547.629 1002.66,494.718 1028.44,623.605 1054.22,570.761 1080,572.421 1105.78,488.441 1131.56,654.084 1157.34,601.462 1183.12,664.461 1208.9,746.152 1234.68,841.834 1260.46,700.829 1286.24,837.417 1312.02,741.355 1337.8,745.055 1363.58,721.543 1389.36,804.355 1415.14,846.659 1440.92,793.484 1466.7,813.153 1492.48,691.717 1518.26,745.673 1544.04,792.953 1569.82,902.202 1595.6,940.013 1621.38,993.43 1647.16,974.357 1672.94,1018.13 1698.72,1028.1 1724.5,912.159 1750.28,950.766 1776.06,1033.38 1801.84,1032.34 1827.62,1002.51 1853.4,941.048 1879.18,789.542 1904.96,679.056 1930.74,659.851 1956.52,597.461 1982.3,617.054 2008.08,727.086 2033.86,808.749 2059.64,859.458 2085.42,927.13 2111.2,926.329 2136.98,981.318 2162.76,1027.57 2188.54,1052.73 2214.32,1177.56 2240.1,1021.26 2265.88,997.739 2291.66,1024.81 "/>
<polyline clip-path="url(#clip741)" style="stroke:#c271d2; stroke-linecap:round; stroke-linejoin:round; stroke-width:4; stroke-opacity:1; fill:none" stroke-dasharray="16, 10" points="255.035,1189.99 280.815,1158.23 306.595,1122.4 332.375,1028.2 358.155,993.136 383.935,1007.86 409.715,990.645 435.495,1009.04 461.275,1081.17 487.055,1099.33 512.835,1072.64 538.615,1101.61 564.395,1090.39 590.175,1067.06 615.955,1090.36 641.735,1092.84 667.515,995.288 693.295,912.921 719.075,912.843 744.855,883.805 770.635,890.265 796.415,829.784 822.195,815.92 847.975,744.417 873.755,686.175 899.535,690.937 925.316,724.921 951.096,751.651 976.876,647.396 1002.66,609.675 1028.44,598.883 1054.22,617.217 1080,627.07 1105.78,621.448 1131.56,608.772 1157.34,657.208 1183.12,592.679 1208.9,553.864 1234.68,540.062 1260.46,565.113 1286.24,611.026 1312.02,669.547 1337.8,627.623 1363.58,582.38 1389.36,568.781 1415.14,612.669 1440.92,609.554 1466.7,584.487 1492.48,469.465 1518.26,565.017 1544.04,600.461 1569.82,561.298 1595.6,591.767 1621.38,648.078 1647.16,632.555 1672.94,741.343 1698.72,682.094 1724.5,709.476 1750.28,642.538 1776.06,655.87 1801.84,691.251 1827.62,695.706 1853.4,744.839 1879.18,820.825 1904.96,878.505 1930.74,906.629 1956.52,936.429 1982.3,849.828 2008.08,833.552 2033.86,813.081 2059.64,727.692 2085.42,771.947 2111.2,703.881 2136.98,736.994 2162.76,666.445 2188.54,720.317 2214.32,819.167 2240.1,809.837 2265.88,827.326 2291.66,839.323 "/>
<path clip-path="url(#clip740)" d="M1825.15 354.418 L2280.8 354.418 L2280.8 95.2176 L1825.15 95.2176  Z" fill="#ffffff" fill-rule="evenodd" fill-opacity="1"/>
<polyline clip-path="url(#clip740)" style="stroke:#000000; stroke-linecap:round; stroke-linejoin:round; stroke-width:4; stroke-opacity:1; fill:none" points="1825.15,354.418 2280.8,354.418 2280.8,95.2176 1825.15,95.2176 1825.15,354.418 "/>
<polyline clip-path="url(#clip740)" style="stroke:#009af9; stroke-linecap:round; stroke-linejoin:round; stroke-width:4; stroke-opacity:1; fill:none" points="1849.13,147.058 1993.05,147.058 "/>
<path clip-path="url(#clip740)" d="M2021.72 133.62 L2021.72 146.606 L2027.6 146.606 Q2030.86 146.606 2032.64 144.916 Q2034.43 143.227 2034.43 140.102 Q2034.43 137 2032.64 135.31 Q2030.86 133.62 2027.6 133.62 L2021.72 133.62 M2017.04 129.778 L2027.6 129.778 Q2033.41 129.778 2036.37 132.416 Q2039.36 135.032 2039.36 140.102 Q2039.36 145.217 2036.37 147.833 Q2033.41 150.449 2027.6 150.449 L2021.72 150.449 L2021.72 164.338 L2017.04 164.338 L2017.04 129.778 Z" fill="#000000" fill-rule="nonzero" fill-opacity="1" /><path clip-path="url(#clip740)" d="M2045.63 129.778 L2065.49 129.778 L2065.49 133.713 L2050.3 133.713 L2050.3 143.898 L2064.01 143.898 L2064.01 147.833 L2050.3 147.833 L2050.3 164.338 L2045.63 164.338 L2045.63 129.778 Z" fill="#000000" fill-rule="nonzero" fill-opacity="1" /><path clip-path="url(#clip740)" d="M2104.31 139.176 L2104.31 143.203 Q2102.5 142.277 2100.56 141.815 Q2098.61 141.352 2096.53 141.352 Q2093.36 141.352 2091.76 142.324 Q2090.19 143.296 2090.19 145.24 Q2090.19 146.722 2091.32 147.578 Q2092.46 148.412 2095.88 149.176 L2097.34 149.5 Q2101.88 150.472 2103.78 152.254 Q2105.7 154.014 2105.7 157.185 Q2105.7 160.796 2102.83 162.902 Q2099.98 165.009 2094.98 165.009 Q2092.9 165.009 2090.63 164.592 Q2088.38 164.199 2085.88 163.388 L2085.88 158.99 Q2088.24 160.217 2090.54 160.842 Q2092.83 161.444 2095.07 161.444 Q2098.08 161.444 2099.7 160.426 Q2101.32 159.384 2101.32 157.509 Q2101.32 155.773 2100.14 154.847 Q2098.99 153.921 2095.03 153.064 L2093.55 152.717 Q2089.59 151.884 2087.83 150.171 Q2086.07 148.435 2086.07 145.426 Q2086.07 141.768 2088.66 139.778 Q2091.25 137.787 2096.02 137.787 Q2098.38 137.787 2100.47 138.134 Q2102.55 138.481 2104.31 139.176 Z" fill="#000000" fill-rule="nonzero" fill-opacity="1" /><path clip-path="url(#clip740)" d="M2132.67 143.389 Q2134.26 140.518 2136.48 139.153 Q2138.71 137.787 2141.72 137.787 Q2145.77 137.787 2147.97 140.634 Q2150.17 143.458 2150.17 148.689 L2150.17 164.338 L2145.88 164.338 L2145.88 148.828 Q2145.88 145.102 2144.56 143.296 Q2143.24 141.49 2140.54 141.49 Q2137.23 141.49 2135.3 143.69 Q2133.38 145.889 2133.38 149.685 L2133.38 164.338 L2129.1 164.338 L2129.1 148.828 Q2129.1 145.078 2127.78 143.296 Q2126.46 141.49 2123.71 141.49 Q2120.44 141.49 2118.52 143.713 Q2116.6 145.912 2116.6 149.685 L2116.6 164.338 L2112.32 164.338 L2112.32 138.412 L2116.6 138.412 L2116.6 142.44 Q2118.06 140.055 2120.1 138.921 Q2122.13 137.787 2124.93 137.787 Q2127.76 137.787 2129.73 139.222 Q2131.72 140.657 2132.67 143.389 Z" fill="#000000" fill-rule="nonzero" fill-opacity="1" /><path clip-path="url(#clip740)" d="M2168.71 141.398 Q2165.28 141.398 2163.29 144.083 Q2161.3 146.745 2161.3 151.398 Q2161.3 156.051 2163.27 158.736 Q2165.26 161.398 2168.71 161.398 Q2172.11 161.398 2174.1 158.713 Q2176.09 156.027 2176.09 151.398 Q2176.09 146.791 2174.1 144.106 Q2172.11 141.398 2168.71 141.398 M2168.71 137.787 Q2174.26 137.787 2177.43 141.398 Q2180.61 145.009 2180.61 151.398 Q2180.61 157.764 2177.43 161.398 Q2174.26 165.009 2168.71 165.009 Q2163.13 165.009 2159.96 161.398 Q2156.81 157.764 2156.81 151.398 Q2156.81 145.009 2159.96 141.398 Q2163.13 137.787 2168.71 137.787 Z" fill="#000000" fill-rule="nonzero" fill-opacity="1" /><path clip-path="url(#clip740)" d="M2197.71 141.398 Q2194.29 141.398 2192.29 144.083 Q2190.3 146.745 2190.3 151.398 Q2190.3 156.051 2192.27 158.736 Q2194.26 161.398 2197.71 161.398 Q2201.11 161.398 2203.1 158.713 Q2205.1 156.027 2205.1 151.398 Q2205.1 146.791 2203.1 144.106 Q2201.11 141.398 2197.71 141.398 M2197.71 137.787 Q2203.27 137.787 2206.44 141.398 Q2209.61 145.009 2209.61 151.398 Q2209.61 157.764 2206.44 161.398 Q2203.27 165.009 2197.71 165.009 Q2192.13 165.009 2188.96 161.398 Q2185.81 157.764 2185.81 151.398 Q2185.81 145.009 2188.96 141.398 Q2192.13 137.787 2197.71 137.787 Z" fill="#000000" fill-rule="nonzero" fill-opacity="1" /><path clip-path="url(#clip740)" d="M2220.88 131.051 L2220.88 138.412 L2229.66 138.412 L2229.66 141.722 L2220.88 141.722 L2220.88 155.796 Q2220.88 158.967 2221.74 159.87 Q2222.62 160.773 2225.28 160.773 L2229.66 160.773 L2229.66 164.338 L2225.28 164.338 Q2220.35 164.338 2218.48 162.509 Q2216.6 160.657 2216.6 155.796 L2216.6 141.722 L2213.48 141.722 L2213.48 138.412 L2216.6 138.412 L2216.6 131.051 L2220.88 131.051 Z" fill="#000000" fill-rule="nonzero" fill-opacity="1" /><path clip-path="url(#clip740)" d="M2256.81 148.689 L2256.81 164.338 L2252.55 164.338 L2252.55 148.828 Q2252.55 145.148 2251.11 143.319 Q2249.68 141.49 2246.81 141.49 Q2243.36 141.49 2241.37 143.69 Q2239.38 145.889 2239.38 149.685 L2239.38 164.338 L2235.1 164.338 L2235.1 128.319 L2239.38 128.319 L2239.38 142.44 Q2240.91 140.102 2242.97 138.944 Q2245.05 137.787 2247.76 137.787 Q2252.23 137.787 2254.52 140.565 Q2256.81 143.319 2256.81 148.689 Z" fill="#000000" fill-rule="nonzero" fill-opacity="1" /><polyline clip-path="url(#clip740)" style="stroke:#e26f46; stroke-linecap:round; stroke-linejoin:round; stroke-width:4; stroke-opacity:1; fill:none" points="1849.13,198.898 1993.05,198.898 "/>
<path clip-path="url(#clip740)" d="M2021.72 185.46 L2021.72 198.446 L2027.6 198.446 Q2030.86 198.446 2032.64 196.756 Q2034.43 195.067 2034.43 191.942 Q2034.43 188.84 2032.64 187.15 Q2030.86 185.46 2027.6 185.46 L2021.72 185.46 M2017.04 181.618 L2027.6 181.618 Q2033.41 181.618 2036.37 184.256 Q2039.36 186.872 2039.36 191.942 Q2039.36 197.057 2036.37 199.673 Q2033.41 202.289 2027.6 202.289 L2021.72 202.289 L2021.72 216.178 L2017.04 216.178 L2017.04 181.618 Z" fill="#000000" fill-rule="nonzero" fill-opacity="1" /><path clip-path="url(#clip740)" d="M2045.63 181.618 L2065.49 181.618 L2065.49 185.553 L2050.3 185.553 L2050.3 195.738 L2064.01 195.738 L2064.01 199.673 L2050.3 199.673 L2050.3 216.178 L2045.63 216.178 L2045.63 181.618 Z" fill="#000000" fill-rule="nonzero" fill-opacity="1" /><path clip-path="url(#clip740)" d="M2104.31 191.016 L2104.31 195.043 Q2102.5 194.117 2100.56 193.655 Q2098.61 193.192 2096.53 193.192 Q2093.36 193.192 2091.76 194.164 Q2090.19 195.136 2090.19 197.08 Q2090.19 198.562 2091.32 199.418 Q2092.46 200.252 2095.88 201.016 L2097.34 201.34 Q2101.88 202.312 2103.78 204.094 Q2105.7 205.854 2105.7 209.025 Q2105.7 212.636 2102.83 214.742 Q2099.98 216.849 2094.98 216.849 Q2092.9 216.849 2090.63 216.432 Q2088.38 216.039 2085.88 215.228 L2085.88 210.83 Q2088.24 212.057 2090.54 212.682 Q2092.83 213.284 2095.07 213.284 Q2098.08 213.284 2099.7 212.266 Q2101.32 211.224 2101.32 209.349 Q2101.32 207.613 2100.14 206.687 Q2098.99 205.761 2095.03 204.904 L2093.55 204.557 Q2089.59 203.724 2087.83 202.011 Q2086.07 200.275 2086.07 197.266 Q2086.07 193.608 2088.66 191.618 Q2091.25 189.627 2096.02 189.627 Q2098.38 189.627 2100.47 189.974 Q2102.55 190.321 2104.31 191.016 Z" fill="#000000" fill-rule="nonzero" fill-opacity="1" /><path clip-path="url(#clip740)" d="M2132.67 195.229 Q2134.26 192.358 2136.48 190.993 Q2138.71 189.627 2141.72 189.627 Q2145.77 189.627 2147.97 192.474 Q2150.17 195.298 2150.17 200.529 L2150.17 216.178 L2145.88 216.178 L2145.88 200.668 Q2145.88 196.942 2144.56 195.136 Q2143.24 193.33 2140.54 193.33 Q2137.23 193.33 2135.3 195.53 Q2133.38 197.729 2133.38 201.525 L2133.38 216.178 L2129.1 216.178 L2129.1 200.668 Q2129.1 196.918 2127.78 195.136 Q2126.46 193.33 2123.71 193.33 Q2120.44 193.33 2118.52 195.553 Q2116.6 197.752 2116.6 201.525 L2116.6 216.178 L2112.32 216.178 L2112.32 190.252 L2116.6 190.252 L2116.6 194.28 Q2118.06 191.895 2120.1 190.761 Q2122.13 189.627 2124.93 189.627 Q2127.76 189.627 2129.73 191.062 Q2131.72 192.497 2132.67 195.229 Z" fill="#000000" fill-rule="nonzero" fill-opacity="1" /><path clip-path="url(#clip740)" d="M2168.71 193.238 Q2165.28 193.238 2163.29 195.923 Q2161.3 198.585 2161.3 203.238 Q2161.3 207.891 2163.27 210.576 Q2165.26 213.238 2168.71 213.238 Q2172.11 213.238 2174.1 210.553 Q2176.09 207.867 2176.09 203.238 Q2176.09 198.631 2174.1 195.946 Q2172.11 193.238 2168.71 193.238 M2168.71 189.627 Q2174.26 189.627 2177.43 193.238 Q2180.61 196.849 2180.61 203.238 Q2180.61 209.604 2177.43 213.238 Q2174.26 216.849 2168.71 216.849 Q2163.13 216.849 2159.96 213.238 Q2156.81 209.604 2156.81 203.238 Q2156.81 196.849 2159.96 193.238 Q2163.13 189.627 2168.71 189.627 Z" fill="#000000" fill-rule="nonzero" fill-opacity="1" /><path clip-path="url(#clip740)" d="M2197.71 193.238 Q2194.29 193.238 2192.29 195.923 Q2190.3 198.585 2190.3 203.238 Q2190.3 207.891 2192.27 210.576 Q2194.26 213.238 2197.71 213.238 Q2201.11 213.238 2203.1 210.553 Q2205.1 207.867 2205.1 203.238 Q2205.1 198.631 2203.1 195.946 Q2201.11 193.238 2197.71 193.238 M2197.71 189.627 Q2203.27 189.627 2206.44 193.238 Q2209.61 196.849 2209.61 203.238 Q2209.61 209.604 2206.44 213.238 Q2203.27 216.849 2197.71 216.849 Q2192.13 216.849 2188.96 213.238 Q2185.81 209.604 2185.81 203.238 Q2185.81 196.849 2188.96 193.238 Q2192.13 189.627 2197.71 189.627 Z" fill="#000000" fill-rule="nonzero" fill-opacity="1" /><path clip-path="url(#clip740)" d="M2220.88 182.891 L2220.88 190.252 L2229.66 190.252 L2229.66 193.562 L2220.88 193.562 L2220.88 207.636 Q2220.88 210.807 2221.74 211.71 Q2222.62 212.613 2225.28 212.613 L2229.66 212.613 L2229.66 216.178 L2225.28 216.178 Q2220.35 216.178 2218.48 214.349 Q2216.6 212.497 2216.6 207.636 L2216.6 193.562 L2213.48 193.562 L2213.48 190.252 L2216.6 190.252 L2216.6 182.891 L2220.88 182.891 Z" fill="#000000" fill-rule="nonzero" fill-opacity="1" /><path clip-path="url(#clip740)" d="M2256.81 200.529 L2256.81 216.178 L2252.55 216.178 L2252.55 200.668 Q2252.55 196.988 2251.11 195.159 Q2249.68 193.33 2246.81 193.33 Q2243.36 193.33 2241.37 195.53 Q2239.38 197.729 2239.38 201.525 L2239.38 216.178 L2235.1 216.178 L2235.1 180.159 L2239.38 180.159 L2239.38 194.28 Q2240.91 191.942 2242.97 190.784 Q2245.05 189.627 2247.76 189.627 Q2252.23 189.627 2254.52 192.405 Q2256.81 195.159 2256.81 200.529 Z" fill="#000000" fill-rule="nonzero" fill-opacity="1" /><polyline clip-path="url(#clip740)" style="stroke:#3da44d; stroke-linecap:round; stroke-linejoin:round; stroke-width:4; stroke-opacity:1; fill:none" stroke-dasharray="16, 10" points="1849.13,250.738 1993.05,250.738 "/>
<path clip-path="url(#clip740)" d="M2017.04 233.458 L2046.28 233.458 L2046.28 237.393 L2034.01 237.393 L2034.01 268.018 L2029.31 268.018 L2029.31 237.393 L2017.04 237.393 L2017.04 233.458 Z" fill="#000000" fill-rule="nonzero" fill-opacity="1" /><path clip-path="url(#clip740)" d="M2058.66 246.073 Q2057.94 245.657 2057.09 245.471 Q2056.25 245.263 2055.24 245.263 Q2051.62 245.263 2049.68 247.624 Q2047.76 249.962 2047.76 254.36 L2047.76 268.018 L2043.48 268.018 L2043.48 242.092 L2047.76 242.092 L2047.76 246.12 Q2049.1 243.758 2051.25 242.624 Q2053.41 241.467 2056.49 241.467 Q2056.93 241.467 2057.46 241.536 Q2057.99 241.583 2058.64 241.698 L2058.66 246.073 Z" fill="#000000" fill-rule="nonzero" fill-opacity="1" /><path clip-path="url(#clip740)" d="M2062.69 257.786 L2062.69 242.092 L2066.95 242.092 L2066.95 257.624 Q2066.95 261.305 2068.38 263.156 Q2069.82 264.985 2072.69 264.985 Q2076.14 264.985 2078.13 262.786 Q2080.14 260.587 2080.14 256.791 L2080.14 242.092 L2084.4 242.092 L2084.4 268.018 L2080.14 268.018 L2080.14 264.036 Q2078.59 266.397 2076.53 267.555 Q2074.49 268.689 2071.79 268.689 Q2067.32 268.689 2065 265.911 Q2062.69 263.133 2062.69 257.786 M2073.41 241.467 L2073.41 241.467 Z" fill="#000000" fill-rule="nonzero" fill-opacity="1" /><path clip-path="url(#clip740)" d="M2115.35 253.99 L2115.35 256.073 L2095.77 256.073 Q2096.05 260.471 2098.41 262.786 Q2100.79 265.078 2105.03 265.078 Q2107.48 265.078 2109.77 264.476 Q2112.09 263.874 2114.36 262.67 L2114.36 266.698 Q2112.06 267.67 2109.66 268.18 Q2107.25 268.689 2104.77 268.689 Q2098.57 268.689 2094.93 265.078 Q2091.32 261.467 2091.32 255.309 Q2091.32 248.944 2094.75 245.217 Q2098.2 241.467 2104.03 241.467 Q2109.26 241.467 2112.3 244.846 Q2115.35 248.203 2115.35 253.99 M2111.09 252.74 Q2111.05 249.245 2109.12 247.161 Q2107.23 245.078 2104.08 245.078 Q2100.51 245.078 2098.36 247.092 Q2096.23 249.106 2095.91 252.763 L2111.09 252.74 Z" fill="#000000" fill-rule="nonzero" fill-opacity="1" /><polyline clip-path="url(#clip740)" style="stroke:#c271d2; stroke-linecap:round; stroke-linejoin:round; stroke-width:4; stroke-opacity:1; fill:none" stroke-dasharray="16, 10" points="1849.13,302.578 1993.05,302.578 "/>
<path clip-path="url(#clip740)" d="M2017.04 285.298 L2046.28 285.298 L2046.28 289.233 L2034.01 289.233 L2034.01 319.858 L2029.31 319.858 L2029.31 289.233 L2017.04 289.233 L2017.04 285.298 Z" fill="#000000" fill-rule="nonzero" fill-opacity="1" /><path clip-path="url(#clip740)" d="M2058.66 297.913 Q2057.94 297.497 2057.09 297.311 Q2056.25 297.103 2055.24 297.103 Q2051.62 297.103 2049.68 299.464 Q2047.76 301.802 2047.76 306.2 L2047.76 319.858 L2043.48 319.858 L2043.48 293.932 L2047.76 293.932 L2047.76 297.96 Q2049.1 295.598 2051.25 294.464 Q2053.41 293.307 2056.49 293.307 Q2056.93 293.307 2057.46 293.376 Q2057.99 293.423 2058.64 293.538 L2058.66 297.913 Z" fill="#000000" fill-rule="nonzero" fill-opacity="1" /><path clip-path="url(#clip740)" d="M2062.69 309.626 L2062.69 293.932 L2066.95 293.932 L2066.95 309.464 Q2066.95 313.145 2068.38 314.996 Q2069.82 316.825 2072.69 316.825 Q2076.14 316.825 2078.13 314.626 Q2080.14 312.427 2080.14 308.631 L2080.14 293.932 L2084.4 293.932 L2084.4 319.858 L2080.14 319.858 L2080.14 315.876 Q2078.59 318.237 2076.53 319.395 Q2074.49 320.529 2071.79 320.529 Q2067.32 320.529 2065 317.751 Q2062.69 314.973 2062.69 309.626 M2073.41 293.307 L2073.41 293.307 Z" fill="#000000" fill-rule="nonzero" fill-opacity="1" /><path clip-path="url(#clip740)" d="M2115.35 305.83 L2115.35 307.913 L2095.77 307.913 Q2096.05 312.311 2098.41 314.626 Q2100.79 316.918 2105.03 316.918 Q2107.48 316.918 2109.77 316.316 Q2112.09 315.714 2114.36 314.51 L2114.36 318.538 Q2112.06 319.51 2109.66 320.02 Q2107.25 320.529 2104.77 320.529 Q2098.57 320.529 2094.93 316.918 Q2091.32 313.307 2091.32 307.149 Q2091.32 300.784 2094.75 297.057 Q2098.2 293.307 2104.03 293.307 Q2109.26 293.307 2112.3 296.686 Q2115.35 300.043 2115.35 305.83 M2111.09 304.58 Q2111.05 301.085 2109.12 299.001 Q2107.23 296.918 2104.08 296.918 Q2100.51 296.918 2098.36 298.932 Q2096.23 300.946 2095.91 304.603 L2111.09 304.58 Z" fill="#000000" fill-rule="nonzero" fill-opacity="1" /></svg>
