<?xml version="1.0" encoding="utf-8"?>
<svg xmlns="http://www.w3.org/2000/svg" xmlns:xlink="http://www.w3.org/1999/xlink" width="600" height="400" viewBox="0 0 2400 1600">
<defs>
  <clipPath id="clip770">
    <rect x="0" y="0" width="2400" height="1600"/>
  </clipPath>
</defs>
<path clip-path="url(#clip770)" d="M0 1600 L2400 1600 L2400 0 L0 0  Z" fill="#ffffff" fill-rule="evenodd" fill-opacity="1"/>
<defs>
  <clipPath id="clip771">
    <rect x="1424" y="47" width="930" height="1440"/>
  </clipPath>
</defs>
<path clip-path="url(#clip770)" d="M224.098 1486.45 L1152.76 1486.45 L1152.76 47.2441 L224.098 47.2441  Z" fill="#ffffff" fill-rule="evenodd" fill-opacity="1"/>
<defs>
  <clipPath id="clip772">
    <rect x="224" y="47" width="930" height="1440"/>
  </clipPath>
</defs>
<polyline clip-path="url(#clip772)" style="stroke:#000000; stroke-linecap:round; stroke-linejoin:round; stroke-width:2; stroke-opacity:0.1; fill:none" points="239.291,1486.45 239.291,47.2441 "/>
<polyline clip-path="url(#clip772)" style="stroke:#000000; stroke-linecap:round; stroke-linejoin:round; stroke-width:2; stroke-opacity:0.1; fill:none" points="461.086,1486.45 461.086,47.2441 "/>
<polyline clip-path="url(#clip772)" style="stroke:#000000; stroke-linecap:round; stroke-linejoin:round; stroke-width:2; stroke-opacity:0.1; fill:none" points="682.882,1486.45 682.882,47.2441 "/>
<polyline clip-path="url(#clip772)" style="stroke:#000000; stroke-linecap:round; stroke-linejoin:round; stroke-width:2; stroke-opacity:0.1; fill:none" points="904.678,1486.45 904.678,47.2441 "/>
<polyline clip-path="url(#clip772)" style="stroke:#000000; stroke-linecap:round; stroke-linejoin:round; stroke-width:2; stroke-opacity:0.1; fill:none" points="1126.47,1486.45 1126.47,47.2441 "/>
<polyline clip-path="url(#clip772)" style="stroke:#000000; stroke-linecap:round; stroke-linejoin:round; stroke-width:2; stroke-opacity:0.1; fill:none" points="224.098,1369.3 1152.76,1369.3 "/>
<polyline clip-path="url(#clip772)" style="stroke:#000000; stroke-linecap:round; stroke-linejoin:round; stroke-width:2; stroke-opacity:0.1; fill:none" points="224.098,1171.98 1152.76,1171.98 "/>
<polyline clip-path="url(#clip772)" style="stroke:#000000; stroke-linecap:round; stroke-linejoin:round; stroke-width:2; stroke-opacity:0.1; fill:none" points="224.098,974.667 1152.76,974.667 "/>
<polyline clip-path="url(#clip772)" style="stroke:#000000; stroke-linecap:round; stroke-linejoin:round; stroke-width:2; stroke-opacity:0.1; fill:none" points="224.098,777.35 1152.76,777.35 "/>
<polyline clip-path="url(#clip772)" style="stroke:#000000; stroke-linecap:round; stroke-linejoin:round; stroke-width:2; stroke-opacity:0.1; fill:none" points="224.098,580.033 1152.76,580.033 "/>
<polyline clip-path="url(#clip772)" style="stroke:#000000; stroke-linecap:round; stroke-linejoin:round; stroke-width:2; stroke-opacity:0.1; fill:none" points="224.098,382.716 1152.76,382.716 "/>
<polyline clip-path="url(#clip772)" style="stroke:#000000; stroke-linecap:round; stroke-linejoin:round; stroke-width:2; stroke-opacity:0.1; fill:none" points="224.098,185.399 1152.76,185.399 "/>
<polyline clip-path="url(#clip770)" style="stroke:#000000; stroke-linecap:round; stroke-linejoin:round; stroke-width:4; stroke-opacity:1; fill:none" points="224.098,1486.45 1152.76,1486.45 "/>
<polyline clip-path="url(#clip770)" style="stroke:#000000; stroke-linecap:round; stroke-linejoin:round; stroke-width:4; stroke-opacity:1; fill:none" points="239.291,1486.45 239.291,1467.55 "/>
<polyline clip-path="url(#clip770)" style="stroke:#000000; stroke-linecap:round; stroke-linejoin:round; stroke-width:4; stroke-opacity:1; fill:none" points="461.086,1486.45 461.086,1467.55 "/>
<polyline clip-path="url(#clip770)" style="stroke:#000000; stroke-linecap:round; stroke-linejoin:round; stroke-width:4; stroke-opacity:1; fill:none" points="682.882,1486.45 682.882,1467.55 "/>
<polyline clip-path="url(#clip770)" style="stroke:#000000; stroke-linecap:round; stroke-linejoin:round; stroke-width:4; stroke-opacity:1; fill:none" points="904.678,1486.45 904.678,1467.55 "/>
<polyline clip-path="url(#clip770)" style="stroke:#000000; stroke-linecap:round; stroke-linejoin:round; stroke-width:4; stroke-opacity:1; fill:none" points="1126.47,1486.45 1126.47,1467.55 "/>
<path clip-path="url(#clip770)" d="M239.291 1517.37 Q235.68 1517.37 233.851 1520.93 Q232.046 1524.47 232.046 1531.6 Q232.046 1538.71 233.851 1542.27 Q235.68 1545.82 239.291 1545.82 Q242.925 1545.82 244.731 1542.27 Q246.559 1538.71 246.559 1531.6 Q246.559 1524.47 244.731 1520.93 Q242.925 1517.37 239.291 1517.37 M239.291 1513.66 Q245.101 1513.66 248.157 1518.27 Q251.235 1522.85 251.235 1531.6 Q251.235 1540.33 248.157 1544.94 Q245.101 1549.52 239.291 1549.52 Q233.481 1549.52 230.402 1544.94 Q227.346 1540.33 227.346 1531.6 Q227.346 1522.85 230.402 1518.27 Q233.481 1513.66 239.291 1513.66 Z" fill="#000000" fill-rule="nonzero" fill-opacity="1" /><path clip-path="url(#clip770)" d="M439.86 1544.91 L456.179 1544.91 L456.179 1548.85 L434.235 1548.85 L434.235 1544.91 Q436.897 1542.16 441.48 1537.53 Q446.087 1532.88 447.267 1531.53 Q449.512 1529.01 450.392 1527.27 Q451.295 1525.51 451.295 1523.82 Q451.295 1521.07 449.35 1519.33 Q447.429 1517.6 444.327 1517.6 Q442.128 1517.6 439.675 1518.36 Q437.244 1519.13 434.466 1520.68 L434.466 1515.95 Q437.29 1514.82 439.744 1514.24 Q442.198 1513.66 444.235 1513.66 Q449.605 1513.66 452.799 1516.35 Q455.994 1519.03 455.994 1523.52 Q455.994 1525.65 455.184 1527.57 Q454.397 1529.47 452.29 1532.07 Q451.711 1532.74 448.61 1535.95 Q445.508 1539.15 439.86 1544.91 Z" fill="#000000" fill-rule="nonzero" fill-opacity="1" /><path clip-path="url(#clip770)" d="M475.994 1517.37 Q472.383 1517.37 470.554 1520.93 Q468.748 1524.47 468.748 1531.6 Q468.748 1538.71 470.554 1542.27 Q472.383 1545.82 475.994 1545.82 Q479.628 1545.82 481.434 1542.27 Q483.262 1538.71 483.262 1531.6 Q483.262 1524.47 481.434 1520.93 Q479.628 1517.37 475.994 1517.37 M475.994 1513.66 Q481.804 1513.66 484.859 1518.27 Q487.938 1522.85 487.938 1531.6 Q487.938 1540.33 484.859 1544.94 Q481.804 1549.52 475.994 1549.52 Q470.184 1549.52 467.105 1544.94 Q464.049 1540.33 464.049 1531.6 Q464.049 1522.85 467.105 1518.27 Q470.184 1513.66 475.994 1513.66 Z" fill="#000000" fill-rule="nonzero" fill-opacity="1" /><path clip-path="url(#clip770)" d="M671.053 1518.36 L659.248 1536.81 L671.053 1536.81 L671.053 1518.36 M669.827 1514.29 L675.706 1514.29 L675.706 1536.81 L680.637 1536.81 L680.637 1540.7 L675.706 1540.7 L675.706 1548.85 L671.053 1548.85 L671.053 1540.7 L655.452 1540.7 L655.452 1536.19 L669.827 1514.29 Z" fill="#000000" fill-rule="nonzero" fill-opacity="1" /><path clip-path="url(#clip770)" d="M698.368 1517.37 Q694.757 1517.37 692.928 1520.93 Q691.123 1524.47 691.123 1531.6 Q691.123 1538.71 692.928 1542.27 Q694.757 1545.82 698.368 1545.82 Q702.002 1545.82 703.808 1542.27 Q705.637 1538.71 705.637 1531.6 Q705.637 1524.47 703.808 1520.93 Q702.002 1517.37 698.368 1517.37 M698.368 1513.66 Q704.178 1513.66 707.234 1518.27 Q710.312 1522.85 710.312 1531.6 Q710.312 1540.33 707.234 1544.94 Q704.178 1549.52 698.368 1549.52 Q692.558 1549.52 689.479 1544.94 Q686.424 1540.33 686.424 1531.6 Q686.424 1522.85 689.479 1518.27 Q692.558 1513.66 698.368 1513.66 Z" fill="#000000" fill-rule="nonzero" fill-opacity="1" /><path clip-path="url(#clip770)" d="M890.083 1529.7 Q886.935 1529.7 885.083 1531.86 Q883.254 1534.01 883.254 1537.76 Q883.254 1541.49 885.083 1543.66 Q886.935 1545.82 890.083 1545.82 Q893.231 1545.82 895.06 1543.66 Q896.911 1541.49 896.911 1537.76 Q896.911 1534.01 895.06 1531.86 Q893.231 1529.7 890.083 1529.7 M899.365 1515.05 L899.365 1519.31 Q897.606 1518.48 895.8 1518.04 Q894.018 1517.6 892.259 1517.6 Q887.629 1517.6 885.175 1520.72 Q882.745 1523.85 882.398 1530.17 Q883.763 1528.15 885.823 1527.09 Q887.884 1526 890.361 1526 Q895.569 1526 898.578 1529.17 Q901.61 1532.32 901.61 1537.76 Q901.61 1543.08 898.462 1546.3 Q895.314 1549.52 890.083 1549.52 Q884.087 1549.52 880.916 1544.94 Q877.745 1540.33 877.745 1531.6 Q877.745 1523.41 881.634 1518.55 Q885.523 1513.66 892.073 1513.66 Q893.833 1513.66 895.615 1514.01 Q897.421 1514.36 899.365 1515.05 Z" fill="#000000" fill-rule="nonzero" fill-opacity="1" /><path clip-path="url(#clip770)" d="M919.666 1517.37 Q916.055 1517.37 914.226 1520.93 Q912.421 1524.47 912.421 1531.6 Q912.421 1538.71 914.226 1542.27 Q916.055 1545.82 919.666 1545.82 Q923.3 1545.82 925.106 1542.27 Q926.934 1538.71 926.934 1531.6 Q926.934 1524.47 925.106 1520.93 Q923.3 1517.37 919.666 1517.37 M919.666 1513.66 Q925.476 1513.66 928.532 1518.27 Q931.61 1522.85 931.61 1531.6 Q931.61 1540.33 928.532 1544.94 Q925.476 1549.52 919.666 1549.52 Q913.856 1549.52 910.777 1544.94 Q907.722 1540.33 907.722 1531.6 Q907.722 1522.85 910.777 1518.27 Q913.856 1513.66 919.666 1513.66 Z" fill="#000000" fill-rule="nonzero" fill-opacity="1" /><path clip-path="url(#clip770)" d="M1111.35 1532.44 Q1108.01 1532.44 1106.09 1534.22 Q1104.19 1536 1104.19 1539.13 Q1104.19 1542.25 1106.09 1544.03 Q1108.01 1545.82 1111.35 1545.82 Q1114.68 1545.82 1116.6 1544.03 Q1118.52 1542.23 1118.52 1539.13 Q1118.52 1536 1116.6 1534.22 Q1114.7 1532.44 1111.35 1532.44 M1106.67 1530.45 Q1103.66 1529.7 1101.97 1527.64 Q1100.3 1525.58 1100.3 1522.62 Q1100.3 1518.48 1103.24 1516.07 Q1106.21 1513.66 1111.35 1513.66 Q1116.51 1513.66 1119.45 1516.07 Q1122.39 1518.48 1122.39 1522.62 Q1122.39 1525.58 1120.7 1527.64 Q1119.03 1529.7 1116.04 1530.45 Q1119.42 1531.23 1121.3 1533.52 Q1123.2 1535.82 1123.2 1539.13 Q1123.2 1544.15 1120.12 1546.83 Q1117.06 1549.52 1111.35 1549.52 Q1105.63 1549.52 1102.55 1546.83 Q1099.49 1544.15 1099.49 1539.13 Q1099.49 1535.82 1101.39 1533.52 Q1103.29 1531.23 1106.67 1530.45 M1104.96 1523.06 Q1104.96 1525.75 1106.62 1527.25 Q1108.31 1528.76 1111.35 1528.76 Q1114.36 1528.76 1116.04 1527.25 Q1117.76 1525.75 1117.76 1523.06 Q1117.76 1520.38 1116.04 1518.87 Q1114.36 1517.37 1111.35 1517.37 Q1108.31 1517.37 1106.62 1518.87 Q1104.96 1520.38 1104.96 1523.06 Z" fill="#000000" fill-rule="nonzero" fill-opacity="1" /><path clip-path="url(#clip770)" d="M1141.51 1517.37 Q1137.9 1517.37 1136.07 1520.93 Q1134.26 1524.47 1134.26 1531.6 Q1134.26 1538.71 1136.07 1542.27 Q1137.9 1545.82 1141.51 1545.82 Q1145.14 1545.82 1146.95 1542.27 Q1148.78 1538.71 1148.78 1531.6 Q1148.78 1524.47 1146.95 1520.93 Q1145.14 1517.37 1141.51 1517.37 M1141.51 1513.66 Q1147.32 1513.66 1150.37 1518.27 Q1153.45 1522.85 1153.45 1531.6 Q1153.45 1540.33 1150.37 1544.94 Q1147.32 1549.52 1141.51 1549.52 Q1135.7 1549.52 1132.62 1544.94 Q1129.56 1540.33 1129.56 1531.6 Q1129.56 1522.85 1132.62 1518.27 Q1135.7 1513.66 1141.51 1513.66 Z" fill="#000000" fill-rule="nonzero" fill-opacity="1" /><polyline clip-path="url(#clip770)" style="stroke:#000000; stroke-linecap:round; stroke-linejoin:round; stroke-width:4; stroke-opacity:1; fill:none" points="224.098,1486.45 224.098,47.2441 "/>
<polyline clip-path="url(#clip770)" style="stroke:#000000; stroke-linecap:round; stroke-linejoin:round; stroke-width:4; stroke-opacity:1; fill:none" points="224.098,1369.3 242.996,1369.3 "/>
<polyline clip-path="url(#clip770)" style="stroke:#000000; stroke-linecap:round; stroke-linejoin:round; stroke-width:4; stroke-opacity:1; fill:none" points="224.098,1171.98 242.996,1171.98 "/>
<polyline clip-path="url(#clip770)" style="stroke:#000000; stroke-linecap:round; stroke-linejoin:round; stroke-width:4; stroke-opacity:1; fill:none" points="224.098,974.667 242.996,974.667 "/>
<polyline clip-path="url(#clip770)" style="stroke:#000000; stroke-linecap:round; stroke-linejoin:round; stroke-width:4; stroke-opacity:1; fill:none" points="224.098,777.35 242.996,777.35 "/>
<polyline clip-path="url(#clip770)" style="stroke:#000000; stroke-linecap:round; stroke-linejoin:round; stroke-width:4; stroke-opacity:1; fill:none" points="224.098,580.033 242.996,580.033 "/>
<polyline clip-path="url(#clip770)" style="stroke:#000000; stroke-linecap:round; stroke-linejoin:round; stroke-width:4; stroke-opacity:1; fill:none" points="224.098,382.716 242.996,382.716 "/>
<polyline clip-path="url(#clip770)" style="stroke:#000000; stroke-linecap:round; stroke-linejoin:round; stroke-width:4; stroke-opacity:1; fill:none" points="224.098,185.399 242.996,185.399 "/>
<path clip-path="url(#clip770)" d="M51.9875 1369.75 L81.6633 1369.75 L81.6633 1373.69 L51.9875 1373.69 L51.9875 1369.75 Z" fill="#000000" fill-rule="nonzero" fill-opacity="1" /><path clip-path="url(#clip770)" d="M101.756 1355.1 Q98.1447 1355.1 96.316 1358.66 Q94.5104 1362.21 94.5104 1369.34 Q94.5104 1376.44 96.316 1380.01 Q98.1447 1383.55 101.756 1383.55 Q105.39 1383.55 107.196 1380.01 Q109.024 1376.44 109.024 1369.34 Q109.024 1362.21 107.196 1358.66 Q105.39 1355.1 101.756 1355.1 M101.756 1351.4 Q107.566 1351.4 110.621 1356 Q113.7 1360.59 113.7 1369.34 Q113.7 1378.06 110.621 1382.67 Q107.566 1387.25 101.756 1387.25 Q95.9456 1387.25 92.8669 1382.67 Q89.8114 1378.06 89.8114 1369.34 Q89.8114 1360.59 92.8669 1356 Q95.9456 1351.4 101.756 1351.4 Z" fill="#000000" fill-rule="nonzero" fill-opacity="1" /><path clip-path="url(#clip770)" d="M121.918 1380.7 L126.802 1380.7 L126.802 1386.58 L121.918 1386.58 L121.918 1380.7 Z" fill="#000000" fill-rule="nonzero" fill-opacity="1" /><path clip-path="url(#clip770)" d="M135.806 1352.02 L158.029 1352.02 L158.029 1354.01 L145.482 1386.58 L140.598 1386.58 L152.404 1355.96 L135.806 1355.96 L135.806 1352.02 Z" fill="#000000" fill-rule="nonzero" fill-opacity="1" /><path clip-path="url(#clip770)" d="M167.195 1352.02 L185.552 1352.02 L185.552 1355.96 L171.478 1355.96 L171.478 1364.43 Q172.496 1364.08 173.515 1363.92 Q174.533 1363.73 175.552 1363.73 Q181.339 1363.73 184.718 1366.91 Q188.098 1370.08 188.098 1375.49 Q188.098 1381.07 184.626 1384.17 Q181.153 1387.25 174.834 1387.25 Q172.658 1387.25 170.39 1386.88 Q168.144 1386.51 165.737 1385.77 L165.737 1381.07 Q167.82 1382.21 170.042 1382.76 Q172.265 1383.32 174.741 1383.32 Q178.746 1383.32 181.084 1381.21 Q183.422 1379.1 183.422 1375.49 Q183.422 1371.88 181.084 1369.78 Q178.746 1367.67 174.741 1367.67 Q172.866 1367.67 170.991 1368.09 Q169.14 1368.5 167.195 1369.38 L167.195 1352.02 Z" fill="#000000" fill-rule="nonzero" fill-opacity="1" /><path clip-path="url(#clip770)" d="M50.9921 1172.44 L80.6679 1172.44 L80.6679 1176.37 L50.9921 1176.37 L50.9921 1172.44 Z" fill="#000000" fill-rule="nonzero" fill-opacity="1" /><path clip-path="url(#clip770)" d="M100.76 1157.78 Q97.1493 1157.78 95.3206 1161.35 Q93.515 1164.89 93.515 1172.02 Q93.515 1179.13 95.3206 1182.69 Q97.1493 1186.23 100.76 1186.23 Q104.395 1186.23 106.2 1182.69 Q108.029 1179.13 108.029 1172.02 Q108.029 1164.89 106.2 1161.35 Q104.395 1157.78 100.76 1157.78 M100.76 1154.08 Q106.571 1154.08 109.626 1158.69 Q112.705 1163.27 112.705 1172.02 Q112.705 1180.75 109.626 1185.35 Q106.571 1189.94 100.76 1189.94 Q94.9502 1189.94 91.8715 1185.35 Q88.816 1180.75 88.816 1172.02 Q88.816 1163.27 91.8715 1158.69 Q94.9502 1154.08 100.76 1154.08 Z" fill="#000000" fill-rule="nonzero" fill-opacity="1" /><path clip-path="url(#clip770)" d="M120.922 1183.38 L125.807 1183.38 L125.807 1189.26 L120.922 1189.26 L120.922 1183.38 Z" fill="#000000" fill-rule="nonzero" fill-opacity="1" /><path clip-path="url(#clip770)" d="M136.038 1154.7 L154.394 1154.7 L154.394 1158.64 L140.32 1158.64 L140.32 1167.11 Q141.339 1166.76 142.357 1166.6 Q143.376 1166.42 144.394 1166.42 Q150.181 1166.42 153.561 1169.59 Q156.941 1172.76 156.941 1178.18 Q156.941 1183.75 153.468 1186.86 Q149.996 1189.94 143.677 1189.94 Q141.501 1189.94 139.232 1189.56 Q136.987 1189.19 134.58 1188.45 L134.58 1183.75 Q136.663 1184.89 138.885 1185.44 Q141.107 1186 143.584 1186 Q147.589 1186 149.927 1183.89 Q152.265 1181.79 152.265 1178.18 Q152.265 1174.57 149.927 1172.46 Q147.589 1170.35 143.584 1170.35 Q141.709 1170.35 139.834 1170.77 Q137.982 1171.19 136.038 1172.07 L136.038 1154.7 Z" fill="#000000" fill-rule="nonzero" fill-opacity="1" /><path clip-path="url(#clip770)" d="M176.153 1157.78 Q172.542 1157.78 170.714 1161.35 Q168.908 1164.89 168.908 1172.02 Q168.908 1179.13 170.714 1182.69 Q172.542 1186.23 176.153 1186.23 Q179.788 1186.23 181.593 1182.69 Q183.422 1179.13 183.422 1172.02 Q183.422 1164.89 181.593 1161.35 Q179.788 1157.78 176.153 1157.78 M176.153 1154.08 Q181.964 1154.08 185.019 1158.69 Q188.098 1163.27 188.098 1172.02 Q188.098 1180.75 185.019 1185.35 Q181.964 1189.94 176.153 1189.94 Q170.343 1189.94 167.265 1185.35 Q164.209 1180.75 164.209 1172.02 Q164.209 1163.27 167.265 1158.69 Q170.343 1154.08 176.153 1154.08 Z" fill="#000000" fill-rule="nonzero" fill-opacity="1" /><path clip-path="url(#clip770)" d="M51.9875 975.118 L81.6633 975.118 L81.6633 979.054 L51.9875 979.054 L51.9875 975.118 Z" fill="#000000" fill-rule="nonzero" fill-opacity="1" /><path clip-path="url(#clip770)" d="M101.756 960.466 Q98.1447 960.466 96.316 964.03 Q94.5104 967.572 94.5104 974.702 Q94.5104 981.808 96.316 985.373 Q98.1447 988.915 101.756 988.915 Q105.39 988.915 107.196 985.373 Q109.024 981.808 109.024 974.702 Q109.024 967.572 107.196 964.03 Q105.39 960.466 101.756 960.466 M101.756 956.762 Q107.566 956.762 110.621 961.368 Q113.7 965.952 113.7 974.702 Q113.7 983.429 110.621 988.035 Q107.566 992.618 101.756 992.618 Q95.9456 992.618 92.8669 988.035 Q89.8114 983.429 89.8114 974.702 Q89.8114 965.952 92.8669 961.368 Q95.9456 956.762 101.756 956.762 Z" fill="#000000" fill-rule="nonzero" fill-opacity="1" /><path clip-path="url(#clip770)" d="M121.918 986.067 L126.802 986.067 L126.802 991.947 L121.918 991.947 L121.918 986.067 Z" fill="#000000" fill-rule="nonzero" fill-opacity="1" /><path clip-path="url(#clip770)" d="M141.015 988.012 L157.334 988.012 L157.334 991.947 L135.39 991.947 L135.39 988.012 Q138.052 985.257 142.635 980.628 Q147.242 975.975 148.422 974.632 Q150.668 972.109 151.547 970.373 Q152.45 968.614 152.45 966.924 Q152.45 964.169 150.505 962.433 Q148.584 960.697 145.482 960.697 Q143.283 960.697 140.83 961.461 Q138.399 962.225 135.621 963.776 L135.621 959.054 Q138.445 957.919 140.899 957.341 Q143.353 956.762 145.39 956.762 Q150.76 956.762 153.955 959.447 Q157.149 962.132 157.149 966.623 Q157.149 968.753 156.339 970.674 Q155.552 972.572 153.445 975.165 Q152.867 975.836 149.765 979.054 Q146.663 982.248 141.015 988.012 Z" fill="#000000" fill-rule="nonzero" fill-opacity="1" /><path clip-path="url(#clip770)" d="M167.195 957.387 L185.552 957.387 L185.552 961.322 L171.478 961.322 L171.478 969.794 Q172.496 969.447 173.515 969.285 Q174.533 969.1 175.552 969.1 Q181.339 969.1 184.718 972.271 Q188.098 975.442 188.098 980.859 Q188.098 986.438 184.626 989.54 Q181.153 992.618 174.834 992.618 Q172.658 992.618 170.39 992.248 Q168.144 991.878 165.737 991.137 L165.737 986.438 Q167.82 987.572 170.042 988.128 Q172.265 988.683 174.741 988.683 Q178.746 988.683 181.084 986.577 Q183.422 984.47 183.422 980.859 Q183.422 977.248 181.084 975.142 Q178.746 973.035 174.741 973.035 Q172.866 973.035 170.991 973.452 Q169.14 973.868 167.195 974.748 L167.195 957.387 Z" fill="#000000" fill-rule="nonzero" fill-opacity="1" /><path clip-path="url(#clip770)" d="M100.76 763.149 Q97.1493 763.149 95.3206 766.713 Q93.515 770.255 93.515 777.385 Q93.515 784.491 95.3206 788.056 Q97.1493 791.598 100.76 791.598 Q104.395 791.598 106.2 788.056 Q108.029 784.491 108.029 777.385 Q108.029 770.255 106.2 766.713 Q104.395 763.149 100.76 763.149 M100.76 759.445 Q106.571 759.445 109.626 764.051 Q112.705 768.635 112.705 777.385 Q112.705 786.112 109.626 790.718 Q106.571 795.301 100.76 795.301 Q94.9502 795.301 91.8715 790.718 Q88.816 786.112 88.816 777.385 Q88.816 768.635 91.8715 764.051 Q94.9502 759.445 100.76 759.445 Z" fill="#000000" fill-rule="nonzero" fill-opacity="1" /><path clip-path="url(#clip770)" d="M120.922 788.75 L125.807 788.75 L125.807 794.63 L120.922 794.63 L120.922 788.75 Z" fill="#000000" fill-rule="nonzero" fill-opacity="1" /><path clip-path="url(#clip770)" d="M145.992 763.149 Q142.381 763.149 140.552 766.713 Q138.746 770.255 138.746 777.385 Q138.746 784.491 140.552 788.056 Q142.381 791.598 145.992 791.598 Q149.626 791.598 151.431 788.056 Q153.26 784.491 153.26 777.385 Q153.26 770.255 151.431 766.713 Q149.626 763.149 145.992 763.149 M145.992 759.445 Q151.802 759.445 154.857 764.051 Q157.936 768.635 157.936 777.385 Q157.936 786.112 154.857 790.718 Q151.802 795.301 145.992 795.301 Q140.181 795.301 137.103 790.718 Q134.047 786.112 134.047 777.385 Q134.047 768.635 137.103 764.051 Q140.181 759.445 145.992 759.445 Z" fill="#000000" fill-rule="nonzero" fill-opacity="1" /><path clip-path="url(#clip770)" d="M176.153 763.149 Q172.542 763.149 170.714 766.713 Q168.908 770.255 168.908 777.385 Q168.908 784.491 170.714 788.056 Q172.542 791.598 176.153 791.598 Q179.788 791.598 181.593 788.056 Q183.422 784.491 183.422 777.385 Q183.422 770.255 181.593 766.713 Q179.788 763.149 176.153 763.149 M176.153 759.445 Q181.964 759.445 185.019 764.051 Q188.098 768.635 188.098 777.385 Q188.098 786.112 185.019 790.718 Q181.964 795.301 176.153 795.301 Q170.343 795.301 167.265 790.718 Q164.209 786.112 164.209 777.385 Q164.209 768.635 167.265 764.051 Q170.343 759.445 176.153 759.445 Z" fill="#000000" fill-rule="nonzero" fill-opacity="1" /><path clip-path="url(#clip770)" d="M101.756 565.832 Q98.1447 565.832 96.316 569.396 Q94.5104 572.938 94.5104 580.068 Q94.5104 587.174 96.316 590.739 Q98.1447 594.281 101.756 594.281 Q105.39 594.281 107.196 590.739 Q109.024 587.174 109.024 580.068 Q109.024 572.938 107.196 569.396 Q105.39 565.832 101.756 565.832 M101.756 562.128 Q107.566 562.128 110.621 566.734 Q113.7 571.318 113.7 580.068 Q113.7 588.795 110.621 593.401 Q107.566 597.984 101.756 597.984 Q95.9456 597.984 92.8669 593.401 Q89.8114 588.795 89.8114 580.068 Q89.8114 571.318 92.8669 566.734 Q95.9456 562.128 101.756 562.128 Z" fill="#000000" fill-rule="nonzero" fill-opacity="1" /><path clip-path="url(#clip770)" d="M121.918 591.433 L126.802 591.433 L126.802 597.313 L121.918 597.313 L121.918 591.433 Z" fill="#000000" fill-rule="nonzero" fill-opacity="1" /><path clip-path="url(#clip770)" d="M141.015 593.378 L157.334 593.378 L157.334 597.313 L135.39 597.313 L135.39 593.378 Q138.052 590.623 142.635 585.994 Q147.242 581.341 148.422 579.998 Q150.668 577.475 151.547 575.739 Q152.45 573.98 152.45 572.29 Q152.45 569.535 150.505 567.799 Q148.584 566.063 145.482 566.063 Q143.283 566.063 140.83 566.827 Q138.399 567.591 135.621 569.142 L135.621 564.42 Q138.445 563.285 140.899 562.707 Q143.353 562.128 145.39 562.128 Q150.76 562.128 153.955 564.813 Q157.149 567.498 157.149 571.989 Q157.149 574.119 156.339 576.04 Q155.552 577.938 153.445 580.531 Q152.867 581.202 149.765 584.42 Q146.663 587.614 141.015 593.378 Z" fill="#000000" fill-rule="nonzero" fill-opacity="1" /><path clip-path="url(#clip770)" d="M167.195 562.753 L185.552 562.753 L185.552 566.688 L171.478 566.688 L171.478 575.16 Q172.496 574.813 173.515 574.651 Q174.533 574.466 175.552 574.466 Q181.339 574.466 184.718 577.637 Q188.098 580.808 188.098 586.225 Q188.098 591.804 184.626 594.906 Q181.153 597.984 174.834 597.984 Q172.658 597.984 170.39 597.614 Q168.144 597.244 165.737 596.503 L165.737 591.804 Q167.82 592.938 170.042 593.494 Q172.265 594.049 174.741 594.049 Q178.746 594.049 181.084 591.943 Q183.422 589.836 183.422 586.225 Q183.422 582.614 181.084 580.508 Q178.746 578.401 174.741 578.401 Q172.866 578.401 170.991 578.818 Q169.14 579.234 167.195 580.114 L167.195 562.753 Z" fill="#000000" fill-rule="nonzero" fill-opacity="1" /><path clip-path="url(#clip770)" d="M100.76 368.515 Q97.1493 368.515 95.3206 372.079 Q93.515 375.621 93.515 382.751 Q93.515 389.857 95.3206 393.422 Q97.1493 396.964 100.76 396.964 Q104.395 396.964 106.2 393.422 Q108.029 389.857 108.029 382.751 Q108.029 375.621 106.2 372.079 Q104.395 368.515 100.76 368.515 M100.76 364.811 Q106.571 364.811 109.626 369.417 Q112.705 374.001 112.705 382.751 Q112.705 391.478 109.626 396.084 Q106.571 400.667 100.76 400.667 Q94.9502 400.667 91.8715 396.084 Q88.816 391.478 88.816 382.751 Q88.816 374.001 91.8715 369.417 Q94.9502 364.811 100.76 364.811 Z" fill="#000000" fill-rule="nonzero" fill-opacity="1" /><path clip-path="url(#clip770)" d="M120.922 394.116 L125.807 394.116 L125.807 399.996 L120.922 399.996 L120.922 394.116 Z" fill="#000000" fill-rule="nonzero" fill-opacity="1" /><path clip-path="url(#clip770)" d="M136.038 365.436 L154.394 365.436 L154.394 369.371 L140.32 369.371 L140.32 377.843 Q141.339 377.496 142.357 377.334 Q143.376 377.149 144.394 377.149 Q150.181 377.149 153.561 380.32 Q156.941 383.491 156.941 388.908 Q156.941 394.487 153.468 397.589 Q149.996 400.667 143.677 400.667 Q141.501 400.667 139.232 400.297 Q136.987 399.927 134.58 399.186 L134.58 394.487 Q136.663 395.621 138.885 396.177 Q141.107 396.732 143.584 396.732 Q147.589 396.732 149.927 394.626 Q152.265 392.519 152.265 388.908 Q152.265 385.297 149.927 383.191 Q147.589 381.084 143.584 381.084 Q141.709 381.084 139.834 381.501 Q137.982 381.917 136.038 382.797 L136.038 365.436 Z" fill="#000000" fill-rule="nonzero" fill-opacity="1" /><path clip-path="url(#clip770)" d="M176.153 368.515 Q172.542 368.515 170.714 372.079 Q168.908 375.621 168.908 382.751 Q168.908 389.857 170.714 393.422 Q172.542 396.964 176.153 396.964 Q179.788 396.964 181.593 393.422 Q183.422 389.857 183.422 382.751 Q183.422 375.621 181.593 372.079 Q179.788 368.515 176.153 368.515 M176.153 364.811 Q181.964 364.811 185.019 369.417 Q188.098 374.001 188.098 382.751 Q188.098 391.478 185.019 396.084 Q181.964 400.667 176.153 400.667 Q170.343 400.667 167.265 396.084 Q164.209 391.478 164.209 382.751 Q164.209 374.001 167.265 369.417 Q170.343 364.811 176.153 364.811 Z" fill="#000000" fill-rule="nonzero" fill-opacity="1" /><path clip-path="url(#clip770)" d="M101.756 171.198 Q98.1447 171.198 96.316 174.762 Q94.5104 178.304 94.5104 185.434 Q94.5104 192.54 96.316 196.105 Q98.1447 199.647 101.756 199.647 Q105.39 199.647 107.196 196.105 Q109.024 192.54 109.024 185.434 Q109.024 178.304 107.196 174.762 Q105.39 171.198 101.756 171.198 M101.756 167.494 Q107.566 167.494 110.621 172.1 Q113.7 176.684 113.7 185.434 Q113.7 194.161 110.621 198.767 Q107.566 203.35 101.756 203.35 Q95.9456 203.35 92.8669 198.767 Q89.8114 194.161 89.8114 185.434 Q89.8114 176.684 92.8669 172.1 Q95.9456 167.494 101.756 167.494 Z" fill="#000000" fill-rule="nonzero" fill-opacity="1" /><path clip-path="url(#clip770)" d="M121.918 196.799 L126.802 196.799 L126.802 202.679 L121.918 202.679 L121.918 196.799 Z" fill="#000000" fill-rule="nonzero" fill-opacity="1" /><path clip-path="url(#clip770)" d="M135.806 168.119 L158.029 168.119 L158.029 170.11 L145.482 202.679 L140.598 202.679 L152.404 172.054 L135.806 172.054 L135.806 168.119 Z" fill="#000000" fill-rule="nonzero" fill-opacity="1" /><path clip-path="url(#clip770)" d="M167.195 168.119 L185.552 168.119 L185.552 172.054 L171.478 172.054 L171.478 180.526 Q172.496 180.179 173.515 180.017 Q174.533 179.832 175.552 179.832 Q181.339 179.832 184.718 183.003 Q188.098 186.174 188.098 191.591 Q188.098 197.17 184.626 200.272 Q181.153 203.35 174.834 203.35 Q172.658 203.35 170.39 202.98 Q168.144 202.61 165.737 201.869 L165.737 197.17 Q167.82 198.304 170.042 198.86 Q172.265 199.415 174.741 199.415 Q178.746 199.415 181.084 197.309 Q183.422 195.202 183.422 191.591 Q183.422 187.98 181.084 185.874 Q178.746 183.767 174.741 183.767 Q172.866 183.767 170.991 184.184 Q169.14 184.6 167.195 185.48 L167.195 168.119 Z" fill="#000000" fill-rule="nonzero" fill-opacity="1" /><polyline clip-path="url(#clip772)" style="stroke:#009af9; stroke-linecap:round; stroke-linejoin:round; stroke-width:4; stroke-opacity:1; fill:none" points="250.381,885.16 261.47,743.093 272.56,851.221 283.65,907.361 294.74,860.931 305.83,753.16 316.919,901.815 328.009,822.463 339.099,741.094 350.189,728.502 361.278,725.534 372.368,718.692 383.458,637.12 394.548,685.549 405.638,574.937 416.727,548.617 427.817,576.685 438.907,478.618 449.997,511.01 461.086,396.228 472.176,374.045 483.266,278.042 494.356,240.899 505.446,87.9763 516.535,142.126 527.625,258.053 538.715,346.991 549.805,266.791 560.894,307.461 571.984,326.411 583.074,461.348 594.164,422.981 605.254,400.187 616.343,403.044 627.433,485.473 638.523,440.484 649.613,525.769 660.702,541.507 671.792,710.409 682.882,588.984 693.972,658.1 705.062,682.837 716.151,699.722 727.241,651.763 738.331,675.4 749.421,732.909 760.51,652.731 771.6,598.696 782.69,647.359 793.78,832.741 804.87,950.177 815.959,1016.22 827.049,1042.34 838.139,1109.34 849.229,1089.95 860.318,1000.35 871.408,921.796 882.498,881.526 893.588,896.556 904.678,954.074 915.767,1007.33 926.857,1116.89 937.947,1106.83 949.037,1007.53 960.126,886.928 971.216,863.346 982.306,787.374 993.396,782.571 1004.49,890.283 1015.58,1055.62 1026.67,1027.73 1037.75,1108.4 1048.84,1133.15 1059.93,1201.59 1071.02,1301.81 1082.11,1394.27 1093.2,1445.72 1104.29,1275.03 1115.38,1248.92 1126.47,1308.95 "/>
<polyline clip-path="url(#clip772)" style="stroke:#e26f46; stroke-linecap:round; stroke-linejoin:round; stroke-width:4; stroke-opacity:1; fill:none" points="250.381,888.772 261.47,751.999 272.56,850.294 283.65,907.734 294.74,861.252 305.83,758.165 316.919,898.274 328.009,827.869 339.099,753.47 350.189,737.129 361.278,748.033 372.368,751.427 383.458,669.757 394.548,718.564 405.638,608.072 416.727,582.643 427.817,602.899 438.907,497.327 449.997,532.836 461.086,417.571 472.176,390.348 483.266,293.792 494.356,279.758 505.446,114.095 516.535,175.944 527.625,290.825 538.715,363.62 549.805,278.809 560.894,315.01 571.984,336.377 583.074,477.002 594.164,439.137 605.254,404.5 616.343,385.611 627.433,476.571 638.523,433.477 649.613,527.976 660.702,534.911 671.792,701.976 682.882,570.666 693.972,626.834 705.062,660.314 716.151,677.072 727.241,640.349 738.331,662.911 749.421,724.839 760.51,633.6 771.6,586.566 782.69,636.031 793.78,818.858 804.87,938.519 815.959,1010.21 827.049,1038.52 838.139,1099.64 849.229,1090.78 860.318,1003.12 871.408,928.911 882.498,891.697 893.588,916.117 904.678,960.087 915.767,1009.27 926.857,1129.57 937.947,1118.01 949.037,1017.39 960.126,907.085 971.216,877.192 982.306,803.05 993.396,795.93 1004.49,896.885 1015.58,1069.16 1026.67,1059.76 1037.75,1138.7 1048.84,1162.39 1059.93,1216.53 1071.02,1309.01 1082.11,1383.21 1093.2,1425.38 1104.29,1259.96 1115.38,1241.25 1126.47,1310.17 "/>
<polyline clip-path="url(#clip772)" style="stroke:#3da44d; stroke-linecap:round; stroke-linejoin:round; stroke-width:4; stroke-opacity:1; fill:none" points="250.381,627.445 261.47,538.412 272.56,642.536 283.65,663.639 294.74,583.802 305.83,531.762 316.919,622.873 328.009,508.251 339.099,434.568 350.189,453.483 361.278,409.074 372.368,503.1 383.458,492.277 394.548,729.106 405.638,618.693 416.727,571.229 427.817,735.845 438.907,649.368 449.997,689.82 461.086,593.016 472.176,472.705 483.266,273.659 494.356,294.406 505.446,199.004 516.535,297.888 527.625,419.653 538.715,468.899 549.805,450.4 560.894,419.273 571.984,337.455 583.074,536.755 594.164,455.042 605.254,457.609 616.343,327.749 627.433,583.886 638.523,502.515 649.613,599.933 660.702,726.253 671.792,874.208 682.882,656.168 693.972,867.377 705.062,718.835 716.151,724.556 727.241,688.2 738.331,816.253 749.421,881.668 760.51,799.444 771.6,829.857 782.69,642.079 793.78,725.512 804.87,798.622 815.959,967.556 827.049,1026.02 838.139,1108.62 849.229,1079.13 860.318,1146.81 871.408,1162.23 882.498,982.953 893.588,1042.65 904.678,1170.4 915.767,1168.79 926.857,1122.66 937.947,1027.62 949.037,793.347 960.126,622.5 971.216,592.803 982.306,496.329 993.396,526.626 1004.49,696.771 1015.58,823.048 1026.67,901.461 1037.75,1006.1 1048.84,1004.87 1059.93,1089.9 1071.02,1161.42 1082.11,1200.32 1093.2,1393.35 1104.29,1151.66 1115.38,1115.29 1126.47,1157.15 "/>
<path clip-path="url(#clip770)" d="M667.27 302.578 L1121.8 302.578 L1121.8 95.2176 L667.27 95.2176  Z" fill="#ffffff" fill-rule="evenodd" fill-opacity="1"/>
<polyline clip-path="url(#clip770)" style="stroke:#000000; stroke-linecap:round; stroke-linejoin:round; stroke-width:4; stroke-opacity:1; fill:none" points="667.27,302.578 1121.8,302.578 1121.8,95.2176 667.27,95.2176 667.27,302.578 "/>
<polyline clip-path="url(#clip770)" style="stroke:#009af9; stroke-linecap:round; stroke-linejoin:round; stroke-width:4; stroke-opacity:1; fill:none" points="677.589,147.058 739.499,147.058 "/>
<path clip-path="url(#clip770)" d="M749.817 129.778 L754.493 129.778 L754.493 144.384 L770.003 129.778 L776.021 129.778 L758.868 145.889 L777.248 164.338 L771.091 164.338 L754.493 147.694 L754.493 164.338 L749.817 164.338 L749.817 129.778 Z" fill="#000000" fill-rule="nonzero" fill-opacity="1" /><path clip-path="url(#clip770)" d="M791.669 151.305 Q786.507 151.305 784.516 152.486 Q782.526 153.666 782.526 156.514 Q782.526 158.782 784.007 160.125 Q785.512 161.444 788.081 161.444 Q791.623 161.444 793.752 158.944 Q795.905 156.421 795.905 152.254 L795.905 151.305 L791.669 151.305 M800.164 149.546 L800.164 164.338 L795.905 164.338 L795.905 160.402 Q794.447 162.763 792.271 163.898 Q790.095 165.009 786.947 165.009 Q782.965 165.009 780.604 162.787 Q778.266 160.541 778.266 156.791 Q778.266 152.416 781.183 150.194 Q784.123 147.972 789.933 147.972 L795.905 147.972 L795.905 147.555 Q795.905 144.615 793.961 143.018 Q792.039 141.398 788.544 141.398 Q786.322 141.398 784.215 141.93 Q782.109 142.463 780.165 143.527 L780.165 139.592 Q782.502 138.69 784.702 138.25 Q786.901 137.787 788.984 137.787 Q794.609 137.787 797.387 140.703 Q800.164 143.62 800.164 149.546 Z" fill="#000000" fill-rule="nonzero" fill-opacity="1" /><path clip-path="url(#clip770)" d="M808.938 128.319 L813.197 128.319 L813.197 164.338 L808.938 164.338 L808.938 128.319 Z" fill="#000000" fill-rule="nonzero" fill-opacity="1" /><path clip-path="url(#clip770)" d="M842.294 143.389 Q843.891 140.518 846.113 139.153 Q848.335 137.787 851.345 137.787 Q855.396 137.787 857.595 140.634 Q859.794 143.458 859.794 148.689 L859.794 164.338 L855.511 164.338 L855.511 148.828 Q855.511 145.102 854.192 143.296 Q852.872 141.49 850.164 141.49 Q846.854 141.49 844.933 143.69 Q843.011 145.889 843.011 149.685 L843.011 164.338 L838.729 164.338 L838.729 148.828 Q838.729 145.078 837.41 143.296 Q836.09 141.49 833.336 141.49 Q830.072 141.49 828.15 143.713 Q826.229 145.912 826.229 149.685 L826.229 164.338 L821.947 164.338 L821.947 138.412 L826.229 138.412 L826.229 142.44 Q827.687 140.055 829.724 138.921 Q831.761 137.787 834.562 137.787 Q837.386 137.787 839.354 139.222 Q841.345 140.657 842.294 143.389 Z" fill="#000000" fill-rule="nonzero" fill-opacity="1" /><path clip-path="url(#clip770)" d="M880.071 151.305 Q874.909 151.305 872.919 152.486 Q870.928 153.666 870.928 156.514 Q870.928 158.782 872.409 160.125 Q873.914 161.444 876.483 161.444 Q880.025 161.444 882.155 158.944 Q884.308 156.421 884.308 152.254 L884.308 151.305 L880.071 151.305 M888.567 149.546 L888.567 164.338 L884.308 164.338 L884.308 160.402 Q882.849 162.763 880.673 163.898 Q878.497 165.009 875.349 165.009 Q871.368 165.009 869.007 162.787 Q866.669 160.541 866.669 156.791 Q866.669 152.416 869.585 150.194 Q872.525 147.972 878.335 147.972 L884.308 147.972 L884.308 147.555 Q884.308 144.615 882.363 143.018 Q880.442 141.398 876.946 141.398 Q874.724 141.398 872.618 141.93 Q870.511 142.463 868.567 143.527 L868.567 139.592 Q870.905 138.69 873.104 138.25 Q875.303 137.787 877.386 137.787 Q883.011 137.787 885.789 140.703 Q888.567 143.62 888.567 149.546 Z" fill="#000000" fill-rule="nonzero" fill-opacity="1" /><path clip-path="url(#clip770)" d="M918.891 148.689 L918.891 164.338 L914.631 164.338 L914.631 148.828 Q914.631 145.148 913.196 143.319 Q911.761 141.49 908.891 141.49 Q905.442 141.49 903.451 143.69 Q901.46 145.889 901.46 149.685 L901.46 164.338 L897.178 164.338 L897.178 138.412 L901.46 138.412 L901.46 142.44 Q902.988 140.102 905.048 138.944 Q907.131 137.787 909.84 137.787 Q914.307 137.787 916.599 140.565 Q918.891 143.319 918.891 148.689 Z" fill="#000000" fill-rule="nonzero" fill-opacity="1" /><path clip-path="url(#clip770)" d="M958.983 139.176 L958.983 143.203 Q957.177 142.277 955.233 141.815 Q953.289 141.352 951.205 141.352 Q948.034 141.352 946.437 142.324 Q944.863 143.296 944.863 145.24 Q944.863 146.722 945.997 147.578 Q947.131 148.412 950.557 149.176 L952.015 149.5 Q956.552 150.472 958.451 152.254 Q960.372 154.014 960.372 157.185 Q960.372 160.796 957.502 162.902 Q954.654 165.009 949.654 165.009 Q947.571 165.009 945.303 164.592 Q943.057 164.199 940.557 163.388 L940.557 158.99 Q942.918 160.217 945.21 160.842 Q947.502 161.444 949.747 161.444 Q952.756 161.444 954.377 160.426 Q955.997 159.384 955.997 157.509 Q955.997 155.773 954.816 154.847 Q953.659 153.921 949.701 153.064 L948.219 152.717 Q944.261 151.884 942.502 150.171 Q940.742 148.435 940.742 145.426 Q940.742 141.768 943.335 139.778 Q945.928 137.787 950.696 137.787 Q953.057 137.787 955.14 138.134 Q957.224 138.481 958.983 139.176 Z" fill="#000000" fill-rule="nonzero" fill-opacity="1" /><path clip-path="url(#clip770)" d="M987.339 143.389 Q988.937 140.518 991.159 139.153 Q993.381 137.787 996.39 137.787 Q1000.44 137.787 1002.64 140.634 Q1004.84 143.458 1004.84 148.689 L1004.84 164.338 L1000.56 164.338 L1000.56 148.828 Q1000.56 145.102 999.237 143.296 Q997.918 141.49 995.21 141.49 Q991.9 141.49 989.978 143.69 Q988.057 145.889 988.057 149.685 L988.057 164.338 L983.775 164.338 L983.775 148.828 Q983.775 145.078 982.455 143.296 Q981.136 141.49 978.381 141.49 Q975.117 141.49 973.196 143.713 Q971.275 145.912 971.275 149.685 L971.275 164.338 L966.992 164.338 L966.992 138.412 L971.275 138.412 L971.275 142.44 Q972.733 140.055 974.77 138.921 Q976.807 137.787 979.608 137.787 Q982.432 137.787 984.4 139.222 Q986.39 140.657 987.339 143.389 Z" fill="#000000" fill-rule="nonzero" fill-opacity="1" /><path clip-path="url(#clip770)" d="M1023.38 141.398 Q1019.95 141.398 1017.96 144.083 Q1015.97 146.745 1015.97 151.398 Q1015.97 156.051 1017.94 158.736 Q1019.93 161.398 1023.38 161.398 Q1026.78 161.398 1028.77 158.713 Q1030.77 156.027 1030.77 151.398 Q1030.77 146.791 1028.77 144.106 Q1026.78 141.398 1023.38 141.398 M1023.38 137.787 Q1028.94 137.787 1032.11 141.398 Q1035.28 145.009 1035.28 151.398 Q1035.28 157.764 1032.11 161.398 Q1028.94 165.009 1023.38 165.009 Q1017.8 165.009 1014.63 161.398 Q1011.48 157.764 1011.48 151.398 Q1011.48 145.009 1014.63 141.398 Q1017.8 137.787 1023.38 137.787 Z" fill="#000000" fill-rule="nonzero" fill-opacity="1" /><path clip-path="url(#clip770)" d="M1052.39 141.398 Q1048.96 141.398 1046.97 144.083 Q1044.98 146.745 1044.98 151.398 Q1044.98 156.051 1046.95 158.736 Q1048.94 161.398 1052.39 161.398 Q1055.79 161.398 1057.78 158.713 Q1059.77 156.027 1059.77 151.398 Q1059.77 146.791 1057.78 144.106 Q1055.79 141.398 1052.39 141.398 M1052.39 137.787 Q1057.94 137.787 1061.11 141.398 Q1064.28 145.009 1064.28 151.398 Q1064.28 157.764 1061.11 161.398 Q1057.94 165.009 1052.39 165.009 Q1046.81 165.009 1043.64 161.398 Q1040.49 157.764 1040.49 151.398 Q1040.49 145.009 1043.64 141.398 Q1046.81 137.787 1052.39 137.787 Z" fill="#000000" fill-rule="nonzero" fill-opacity="1" /><path clip-path="url(#clip770)" d="M1075.56 131.051 L1075.56 138.412 L1084.33 138.412 L1084.33 141.722 L1075.56 141.722 L1075.56 155.796 Q1075.56 158.967 1076.41 159.87 Q1077.29 160.773 1079.95 160.773 L1084.33 160.773 L1084.33 164.338 L1079.95 164.338 Q1075.02 164.338 1073.15 162.509 Q1071.27 160.657 1071.27 155.796 L1071.27 141.722 L1068.15 141.722 L1068.15 138.412 L1071.27 138.412 L1071.27 131.051 L1075.56 131.051 Z" fill="#000000" fill-rule="nonzero" fill-opacity="1" /><path clip-path="url(#clip770)" d="M1111.48 148.689 L1111.48 164.338 L1107.22 164.338 L1107.22 148.828 Q1107.22 145.148 1105.79 143.319 Q1104.35 141.49 1101.48 141.49 Q1098.03 141.49 1096.04 143.69 Q1094.05 145.889 1094.05 149.685 L1094.05 164.338 L1089.77 164.338 L1089.77 128.319 L1094.05 128.319 L1094.05 142.44 Q1095.58 140.102 1097.64 138.944 Q1099.72 137.787 1102.43 137.787 Q1106.9 137.787 1109.19 140.565 Q1111.48 143.319 1111.48 148.689 Z" fill="#000000" fill-rule="nonzero" fill-opacity="1" /><polyline clip-path="url(#clip770)" style="stroke:#e26f46; stroke-linecap:round; stroke-linejoin:round; stroke-width:4; stroke-opacity:1; fill:none" points="677.589,198.898 739.499,198.898 "/>
<path clip-path="url(#clip770)" d="M754.1 212.289 L754.1 226.039 L749.817 226.039 L749.817 190.252 L754.1 190.252 L754.1 194.187 Q755.442 191.872 757.479 190.761 Q759.54 189.627 762.387 189.627 Q767.109 189.627 770.049 193.377 Q773.012 197.127 773.012 203.238 Q773.012 209.349 770.049 213.099 Q767.109 216.849 762.387 216.849 Q759.54 216.849 757.479 215.738 Q755.442 214.603 754.1 212.289 M768.591 203.238 Q768.591 198.539 766.646 195.877 Q764.725 193.192 761.345 193.192 Q757.966 193.192 756.021 195.877 Q754.1 198.539 754.1 203.238 Q754.1 207.937 756.021 210.622 Q757.966 213.284 761.345 213.284 Q764.725 213.284 766.646 210.622 Q768.591 207.937 768.591 203.238 Z" fill="#000000" fill-rule="nonzero" fill-opacity="1" /><path clip-path="url(#clip770)" d="M793.197 180.159 L793.197 183.701 L789.123 183.701 Q786.831 183.701 785.928 184.627 Q785.049 185.553 785.049 187.96 L785.049 190.252 L792.063 190.252 L792.063 193.562 L785.049 193.562 L785.049 216.178 L780.766 216.178 L780.766 193.562 L776.692 193.562 L776.692 190.252 L780.766 190.252 L780.766 188.446 Q780.766 184.118 782.78 182.15 Q784.794 180.159 789.169 180.159 L793.197 180.159 Z" fill="#000000" fill-rule="nonzero" fill-opacity="1" /><path clip-path="url(#clip770)" d="M828.359 191.016 L828.359 195.043 Q826.553 194.117 824.609 193.655 Q822.664 193.192 820.581 193.192 Q817.41 193.192 815.813 194.164 Q814.238 195.136 814.238 197.08 Q814.238 198.562 815.373 199.418 Q816.507 200.252 819.933 201.016 L821.391 201.34 Q825.928 202.312 827.826 204.094 Q829.748 205.854 829.748 209.025 Q829.748 212.636 826.877 214.742 Q824.03 216.849 819.03 216.849 Q816.947 216.849 814.678 216.432 Q812.433 216.039 809.933 215.228 L809.933 210.83 Q812.294 212.057 814.586 212.682 Q816.877 213.284 819.123 213.284 Q822.132 213.284 823.752 212.266 Q825.373 211.224 825.373 209.349 Q825.373 207.613 824.192 206.687 Q823.035 205.761 819.076 204.904 L817.595 204.557 Q813.637 203.724 811.877 202.011 Q810.118 200.275 810.118 197.266 Q810.118 193.608 812.711 191.618 Q815.303 189.627 820.072 189.627 Q822.433 189.627 824.516 189.974 Q826.599 190.321 828.359 191.016 Z" fill="#000000" fill-rule="nonzero" fill-opacity="1" /><path clip-path="url(#clip770)" d="M856.715 195.229 Q858.312 192.358 860.534 190.993 Q862.757 189.627 865.766 189.627 Q869.817 189.627 872.016 192.474 Q874.215 195.298 874.215 200.529 L874.215 216.178 L869.933 216.178 L869.933 200.668 Q869.933 196.942 868.613 195.136 Q867.294 193.33 864.585 193.33 Q861.275 193.33 859.354 195.53 Q857.433 197.729 857.433 201.525 L857.433 216.178 L853.15 216.178 L853.15 200.668 Q853.15 196.918 851.831 195.136 Q850.511 193.33 847.757 193.33 Q844.493 193.33 842.572 195.553 Q840.65 197.752 840.65 201.525 L840.65 216.178 L836.368 216.178 L836.368 190.252 L840.65 190.252 L840.65 194.28 Q842.109 191.895 844.146 190.761 Q846.183 189.627 848.984 189.627 Q851.808 189.627 853.775 191.062 Q855.766 192.497 856.715 195.229 Z" fill="#000000" fill-rule="nonzero" fill-opacity="1" /><path clip-path="url(#clip770)" d="M892.757 193.238 Q889.331 193.238 887.34 195.923 Q885.349 198.585 885.349 203.238 Q885.349 207.891 887.317 210.576 Q889.307 213.238 892.757 213.238 Q896.159 213.238 898.15 210.553 Q900.141 207.867 900.141 203.238 Q900.141 198.631 898.15 195.946 Q896.159 193.238 892.757 193.238 M892.757 189.627 Q898.312 189.627 901.483 193.238 Q904.655 196.849 904.655 203.238 Q904.655 209.604 901.483 213.238 Q898.312 216.849 892.757 216.849 Q887.178 216.849 884.007 213.238 Q880.858 209.604 880.858 203.238 Q880.858 196.849 884.007 193.238 Q887.178 189.627 892.757 189.627 Z" fill="#000000" fill-rule="nonzero" fill-opacity="1" /><path clip-path="url(#clip770)" d="M921.761 193.238 Q918.335 193.238 916.344 195.923 Q914.354 198.585 914.354 203.238 Q914.354 207.891 916.321 210.576 Q918.312 213.238 921.761 213.238 Q925.164 213.238 927.154 210.553 Q929.145 207.867 929.145 203.238 Q929.145 198.631 927.154 195.946 Q925.164 193.238 921.761 193.238 M921.761 189.627 Q927.317 189.627 930.488 193.238 Q933.659 196.849 933.659 203.238 Q933.659 209.604 930.488 213.238 Q927.317 216.849 921.761 216.849 Q916.182 216.849 913.011 213.238 Q909.863 209.604 909.863 203.238 Q909.863 196.849 913.011 193.238 Q916.182 189.627 921.761 189.627 Z" fill="#000000" fill-rule="nonzero" fill-opacity="1" /><path clip-path="url(#clip770)" d="M944.932 182.891 L944.932 190.252 L953.705 190.252 L953.705 193.562 L944.932 193.562 L944.932 207.636 Q944.932 210.807 945.789 211.71 Q946.668 212.613 949.33 212.613 L953.705 212.613 L953.705 216.178 L949.33 216.178 Q944.4 216.178 942.525 214.349 Q940.65 212.497 940.65 207.636 L940.65 193.562 L937.525 193.562 L937.525 190.252 L940.65 190.252 L940.65 182.891 L944.932 182.891 Z" fill="#000000" fill-rule="nonzero" fill-opacity="1" /><path clip-path="url(#clip770)" d="M980.858 200.529 L980.858 216.178 L976.599 216.178 L976.599 200.668 Q976.599 196.988 975.164 195.159 Q973.728 193.33 970.858 193.33 Q967.409 193.33 965.418 195.53 Q963.427 197.729 963.427 201.525 L963.427 216.178 L959.145 216.178 L959.145 180.159 L963.427 180.159 L963.427 194.28 Q964.955 191.942 967.015 190.784 Q969.099 189.627 971.807 189.627 Q976.275 189.627 978.566 192.405 Q980.858 195.159 980.858 200.529 Z" fill="#000000" fill-rule="nonzero" fill-opacity="1" /><polyline clip-path="url(#clip770)" style="stroke:#3da44d; stroke-linecap:round; stroke-linejoin:round; stroke-width:4; stroke-opacity:1; fill:none" points="677.589,250.738 739.499,250.738 "/>
<path clip-path="url(#clip770)" d="M757.225 234.731 L757.225 242.092 L765.998 242.092 L765.998 245.402 L757.225 245.402 L757.225 259.476 Q757.225 262.647 758.081 263.55 Q758.961 264.453 761.623 264.453 L765.998 264.453 L765.998 268.018 L761.623 268.018 Q756.692 268.018 754.817 266.189 Q752.942 264.337 752.942 259.476 L752.942 245.402 L749.817 245.402 L749.817 242.092 L752.942 242.092 L752.942 234.731 L757.225 234.731 Z" fill="#000000" fill-rule="nonzero" fill-opacity="1" /><path clip-path="url(#clip770)" d="M786.623 246.073 Q785.905 245.657 785.049 245.471 Q784.215 245.263 783.197 245.263 Q779.586 245.263 777.641 247.624 Q775.72 249.962 775.72 254.36 L775.72 268.018 L771.438 268.018 L771.438 242.092 L775.72 242.092 L775.72 246.12 Q777.063 243.758 779.215 242.624 Q781.368 241.467 784.447 241.467 Q784.887 241.467 785.419 241.536 Q785.952 241.583 786.6 241.698 L786.623 246.073 Z" fill="#000000" fill-rule="nonzero" fill-opacity="1" /><path clip-path="url(#clip770)" d="M790.651 257.786 L790.651 242.092 L794.91 242.092 L794.91 257.624 Q794.91 261.305 796.345 263.156 Q797.78 264.985 800.651 264.985 Q804.1 264.985 806.09 262.786 Q808.104 260.587 808.104 256.791 L808.104 242.092 L812.363 242.092 L812.363 268.018 L808.104 268.018 L808.104 264.036 Q806.553 266.397 804.493 267.555 Q802.456 268.689 799.748 268.689 Q795.28 268.689 792.965 265.911 Q790.651 263.133 790.651 257.786 M801.368 241.467 L801.368 241.467 Z" fill="#000000" fill-rule="nonzero" fill-opacity="1" /><path clip-path="url(#clip770)" d="M843.312 253.99 L843.312 256.073 L823.729 256.073 Q824.007 260.471 826.368 262.786 Q828.752 265.078 832.988 265.078 Q835.442 265.078 837.734 264.476 Q840.048 263.874 842.317 262.67 L842.317 266.698 Q840.025 267.67 837.618 268.18 Q835.211 268.689 832.734 268.689 Q826.53 268.689 822.896 265.078 Q819.285 261.467 819.285 255.309 Q819.285 248.944 822.711 245.217 Q826.16 241.467 831.993 241.467 Q837.224 241.467 840.257 244.846 Q843.312 248.203 843.312 253.99 M839.053 252.74 Q839.007 249.245 837.086 247.161 Q835.187 245.078 832.039 245.078 Q828.474 245.078 826.322 247.092 Q824.192 249.106 823.868 252.763 L839.053 252.74 Z" fill="#000000" fill-rule="nonzero" fill-opacity="1" /><path clip-path="url(#clip770)" d="M1424.1 1486.45 L2352.76 1486.45 L2352.76 47.2441 L1424.1 47.2441  Z" fill="#ffffff" fill-rule="evenodd" fill-opacity="1"/>
<polyline clip-path="url(#clip771)" style="stroke:#000000; stroke-linecap:round; stroke-linejoin:round; stroke-width:2; stroke-opacity:0.1; fill:none" points="1439.29,1486.45 1439.29,47.2441 "/>
<polyline clip-path="url(#clip771)" style="stroke:#000000; stroke-linecap:round; stroke-linejoin:round; stroke-width:2; stroke-opacity:0.1; fill:none" points="1661.09,1486.45 1661.09,47.2441 "/>
<polyline clip-path="url(#clip771)" style="stroke:#000000; stroke-linecap:round; stroke-linejoin:round; stroke-width:2; stroke-opacity:0.1; fill:none" points="1882.88,1486.45 1882.88,47.2441 "/>
<polyline clip-path="url(#clip771)" style="stroke:#000000; stroke-linecap:round; stroke-linejoin:round; stroke-width:2; stroke-opacity:0.1; fill:none" points="2104.68,1486.45 2104.68,47.2441 "/>
<polyline clip-path="url(#clip771)" style="stroke:#000000; stroke-linecap:round; stroke-linejoin:round; stroke-width:2; stroke-opacity:0.1; fill:none" points="2326.47,1486.45 2326.47,47.2441 "/>
<polyline clip-path="url(#clip771)" style="stroke:#000000; stroke-linecap:round; stroke-linejoin:round; stroke-width:2; stroke-opacity:0.1; fill:none" points="1424.1,1392.99 2352.76,1392.99 "/>
<polyline clip-path="url(#clip771)" style="stroke:#000000; stroke-linecap:round; stroke-linejoin:round; stroke-width:2; stroke-opacity:0.1; fill:none" points="1424.1,1152.54 2352.76,1152.54 "/>
<polyline clip-path="url(#clip771)" style="stroke:#000000; stroke-linecap:round; stroke-linejoin:round; stroke-width:2; stroke-opacity:0.1; fill:none" points="1424.1,912.082 2352.76,912.082 "/>
<polyline clip-path="url(#clip771)" style="stroke:#000000; stroke-linecap:round; stroke-linejoin:round; stroke-width:2; stroke-opacity:0.1; fill:none" points="1424.1,671.628 2352.76,671.628 "/>
<polyline clip-path="url(#clip771)" style="stroke:#000000; stroke-linecap:round; stroke-linejoin:round; stroke-width:2; stroke-opacity:0.1; fill:none" points="1424.1,431.173 2352.76,431.173 "/>
<polyline clip-path="url(#clip771)" style="stroke:#000000; stroke-linecap:round; stroke-linejoin:round; stroke-width:2; stroke-opacity:0.1; fill:none" points="1424.1,190.718 2352.76,190.718 "/>
<polyline clip-path="url(#clip770)" style="stroke:#000000; stroke-linecap:round; stroke-linejoin:round; stroke-width:4; stroke-opacity:1; fill:none" points="1424.1,1486.45 2352.76,1486.45 "/>
<polyline clip-path="url(#clip770)" style="stroke:#000000; stroke-linecap:round; stroke-linejoin:round; stroke-width:4; stroke-opacity:1; fill:none" points="1439.29,1486.45 1439.29,1467.55 "/>
<polyline clip-path="url(#clip770)" style="stroke:#000000; stroke-linecap:round; stroke-linejoin:round; stroke-width:4; stroke-opacity:1; fill:none" points="1661.09,1486.45 1661.09,1467.55 "/>
<polyline clip-path="url(#clip770)" style="stroke:#000000; stroke-linecap:round; stroke-linejoin:round; stroke-width:4; stroke-opacity:1; fill:none" points="1882.88,1486.45 1882.88,1467.55 "/>
<polyline clip-path="url(#clip770)" style="stroke:#000000; stroke-linecap:round; stroke-linejoin:round; stroke-width:4; stroke-opacity:1; fill:none" points="2104.68,1486.45 2104.68,1467.55 "/>
<polyline clip-path="url(#clip770)" style="stroke:#000000; stroke-linecap:round; stroke-linejoin:round; stroke-width:4; stroke-opacity:1; fill:none" points="2326.47,1486.45 2326.47,1467.55 "/>
<path clip-path="url(#clip770)" d="M1439.29 1517.37 Q1435.68 1517.37 1433.85 1520.93 Q1432.05 1524.47 1432.05 1531.6 Q1432.05 1538.71 1433.85 1542.27 Q1435.68 1545.82 1439.29 1545.82 Q1442.93 1545.82 1444.73 1542.27 Q1446.56 1538.71 1446.56 1531.6 Q1446.56 1524.47 1444.73 1520.93 Q1442.93 1517.37 1439.29 1517.37 M1439.29 1513.66 Q1445.1 1513.66 1448.16 1518.27 Q1451.24 1522.85 1451.24 1531.6 Q1451.24 1540.33 1448.16 1544.94 Q1445.1 1549.52 1439.29 1549.52 Q1433.48 1549.52 1430.4 1544.94 Q1427.35 1540.33 1427.35 1531.6 Q1427.35 1522.85 1430.4 1518.27 Q1433.48 1513.66 1439.29 1513.66 Z" fill="#000000" fill-rule="nonzero" fill-opacity="1" /><path clip-path="url(#clip770)" d="M1639.86 1544.91 L1656.18 1544.91 L1656.18 1548.85 L1634.23 1548.85 L1634.23 1544.91 Q1636.9 1542.16 1641.48 1537.53 Q1646.09 1532.88 1647.27 1531.53 Q1649.51 1529.01 1650.39 1527.27 Q1651.29 1525.51 1651.29 1523.82 Q1651.29 1521.07 1649.35 1519.33 Q1647.43 1517.6 1644.33 1517.6 Q1642.13 1517.6 1639.67 1518.36 Q1637.24 1519.13 1634.47 1520.68 L1634.47 1515.95 Q1637.29 1514.82 1639.74 1514.24 Q1642.2 1513.66 1644.23 1513.66 Q1649.61 1513.66 1652.8 1516.35 Q1655.99 1519.03 1655.99 1523.52 Q1655.99 1525.65 1655.18 1527.57 Q1654.4 1529.47 1652.29 1532.07 Q1651.71 1532.74 1648.61 1535.95 Q1645.51 1539.15 1639.86 1544.91 Z" fill="#000000" fill-rule="nonzero" fill-opacity="1" /><path clip-path="url(#clip770)" d="M1675.99 1517.37 Q1672.38 1517.37 1670.55 1520.93 Q1668.75 1524.47 1668.75 1531.6 Q1668.75 1538.71 1670.55 1542.27 Q1672.38 1545.82 1675.99 1545.82 Q1679.63 1545.82 1681.43 1542.27 Q1683.26 1538.71 1683.26 1531.6 Q1683.26 1524.47 1681.43 1520.93 Q1679.63 1517.37 1675.99 1517.37 M1675.99 1513.66 Q1681.8 1513.66 1684.86 1518.27 Q1687.94 1522.85 1687.94 1531.6 Q1687.94 1540.33 1684.86 1544.94 Q1681.8 1549.52 1675.99 1549.52 Q1670.18 1549.52 1667.1 1544.94 Q1664.05 1540.33 1664.05 1531.6 Q1664.05 1522.85 1667.1 1518.27 Q1670.18 1513.66 1675.99 1513.66 Z" fill="#000000" fill-rule="nonzero" fill-opacity="1" /><path clip-path="url(#clip770)" d="M1871.05 1518.36 L1859.25 1536.81 L1871.05 1536.81 L1871.05 1518.36 M1869.83 1514.29 L1875.71 1514.29 L1875.71 1536.81 L1880.64 1536.81 L1880.64 1540.7 L1875.71 1540.7 L1875.71 1548.85 L1871.05 1548.85 L1871.05 1540.7 L1855.45 1540.7 L1855.45 1536.19 L1869.83 1514.29 Z" fill="#000000" fill-rule="nonzero" fill-opacity="1" /><path clip-path="url(#clip770)" d="M1898.37 1517.37 Q1894.76 1517.37 1892.93 1520.93 Q1891.12 1524.47 1891.12 1531.6 Q1891.12 1538.71 1892.93 1542.27 Q1894.76 1545.82 1898.37 1545.82 Q1902 1545.82 1903.81 1542.27 Q1905.64 1538.71 1905.64 1531.6 Q1905.64 1524.47 1903.81 1520.93 Q1902 1517.37 1898.37 1517.37 M1898.37 1513.66 Q1904.18 1513.66 1907.23 1518.27 Q1910.31 1522.85 1910.31 1531.6 Q1910.31 1540.33 1907.23 1544.94 Q1904.18 1549.52 1898.37 1549.52 Q1892.56 1549.52 1889.48 1544.94 Q1886.42 1540.33 1886.42 1531.6 Q1886.42 1522.85 1889.48 1518.27 Q1892.56 1513.66 1898.37 1513.66 Z" fill="#000000" fill-rule="nonzero" fill-opacity="1" /><path clip-path="url(#clip770)" d="M2090.08 1529.7 Q2086.93 1529.7 2085.08 1531.86 Q2083.25 1534.01 2083.25 1537.76 Q2083.25 1541.49 2085.08 1543.66 Q2086.93 1545.82 2090.08 1545.82 Q2093.23 1545.82 2095.06 1543.66 Q2096.91 1541.49 2096.91 1537.76 Q2096.91 1534.01 2095.06 1531.86 Q2093.23 1529.7 2090.08 1529.7 M2099.37 1515.05 L2099.37 1519.31 Q2097.61 1518.48 2095.8 1518.04 Q2094.02 1517.6 2092.26 1517.6 Q2087.63 1517.6 2085.18 1520.72 Q2082.74 1523.85 2082.4 1530.17 Q2083.76 1528.15 2085.82 1527.09 Q2087.88 1526 2090.36 1526 Q2095.57 1526 2098.58 1529.17 Q2101.61 1532.32 2101.61 1537.76 Q2101.61 1543.08 2098.46 1546.3 Q2095.31 1549.52 2090.08 1549.52 Q2084.09 1549.52 2080.92 1544.94 Q2077.74 1540.33 2077.74 1531.6 Q2077.74 1523.41 2081.63 1518.55 Q2085.52 1513.66 2092.07 1513.66 Q2093.83 1513.66 2095.62 1514.01 Q2097.42 1514.36 2099.37 1515.05 Z" fill="#000000" fill-rule="nonzero" fill-opacity="1" /><path clip-path="url(#clip770)" d="M2119.67 1517.37 Q2116.05 1517.37 2114.23 1520.93 Q2112.42 1524.47 2112.42 1531.6 Q2112.42 1538.71 2114.23 1542.27 Q2116.05 1545.82 2119.67 1545.82 Q2123.3 1545.82 2125.11 1542.27 Q2126.93 1538.71 2126.93 1531.6 Q2126.93 1524.47 2125.11 1520.93 Q2123.3 1517.37 2119.67 1517.37 M2119.67 1513.66 Q2125.48 1513.66 2128.53 1518.27 Q2131.61 1522.85 2131.61 1531.6 Q2131.61 1540.33 2128.53 1544.94 Q2125.48 1549.52 2119.67 1549.52 Q2113.86 1549.52 2110.78 1544.94 Q2107.72 1540.33 2107.72 1531.6 Q2107.72 1522.85 2110.78 1518.27 Q2113.86 1513.66 2119.67 1513.66 Z" fill="#000000" fill-rule="nonzero" fill-opacity="1" /><path clip-path="url(#clip770)" d="M2311.35 1532.44 Q2308.01 1532.44 2306.09 1534.22 Q2304.19 1536 2304.19 1539.13 Q2304.19 1542.25 2306.09 1544.03 Q2308.01 1545.82 2311.35 1545.82 Q2314.68 1545.82 2316.6 1544.03 Q2318.52 1542.23 2318.52 1539.13 Q2318.52 1536 2316.6 1534.22 Q2314.7 1532.44 2311.35 1532.44 M2306.67 1530.45 Q2303.66 1529.7 2301.97 1527.64 Q2300.3 1525.58 2300.3 1522.62 Q2300.3 1518.48 2303.24 1516.07 Q2306.21 1513.66 2311.35 1513.66 Q2316.51 1513.66 2319.45 1516.07 Q2322.39 1518.48 2322.39 1522.62 Q2322.39 1525.58 2320.7 1527.64 Q2319.03 1529.7 2316.04 1530.45 Q2319.42 1531.23 2321.3 1533.52 Q2323.2 1535.82 2323.2 1539.13 Q2323.2 1544.15 2320.12 1546.83 Q2317.06 1549.52 2311.35 1549.52 Q2305.63 1549.52 2302.55 1546.83 Q2299.49 1544.15 2299.49 1539.13 Q2299.49 1535.82 2301.39 1533.52 Q2303.29 1531.23 2306.67 1530.45 M2304.96 1523.06 Q2304.96 1525.75 2306.62 1527.25 Q2308.31 1528.76 2311.35 1528.76 Q2314.36 1528.76 2316.04 1527.25 Q2317.76 1525.75 2317.76 1523.06 Q2317.76 1520.38 2316.04 1518.87 Q2314.36 1517.37 2311.35 1517.37 Q2308.31 1517.37 2306.62 1518.87 Q2304.96 1520.38 2304.96 1523.06 Z" fill="#000000" fill-rule="nonzero" fill-opacity="1" /><path clip-path="url(#clip770)" d="M2341.51 1517.37 Q2337.9 1517.37 2336.07 1520.93 Q2334.26 1524.47 2334.26 1531.6 Q2334.26 1538.71 2336.07 1542.27 Q2337.9 1545.82 2341.51 1545.82 Q2345.14 1545.82 2346.95 1542.27 Q2348.78 1538.71 2348.78 1531.6 Q2348.78 1524.47 2346.95 1520.93 Q2345.14 1517.37 2341.51 1517.37 M2341.51 1513.66 Q2347.32 1513.66 2350.37 1518.27 Q2353.45 1522.85 2353.45 1531.6 Q2353.45 1540.33 2350.37 1544.94 Q2347.32 1549.52 2341.51 1549.52 Q2335.7 1549.52 2332.62 1544.94 Q2329.56 1540.33 2329.56 1531.6 Q2329.56 1522.85 2332.62 1518.27 Q2335.7 1513.66 2341.51 1513.66 Z" fill="#000000" fill-rule="nonzero" fill-opacity="1" /><polyline clip-path="url(#clip770)" style="stroke:#000000; stroke-linecap:round; stroke-linejoin:round; stroke-width:4; stroke-opacity:1; fill:none" points="1424.1,1486.45 1424.1,47.2441 "/>
<polyline clip-path="url(#clip770)" style="stroke:#000000; stroke-linecap:round; stroke-linejoin:round; stroke-width:4; stroke-opacity:1; fill:none" points="1424.1,1392.99 1443,1392.99 "/>
<polyline clip-path="url(#clip770)" style="stroke:#000000; stroke-linecap:round; stroke-linejoin:round; stroke-width:4; stroke-opacity:1; fill:none" points="1424.1,1152.54 1443,1152.54 "/>
<polyline clip-path="url(#clip770)" style="stroke:#000000; stroke-linecap:round; stroke-linejoin:round; stroke-width:4; stroke-opacity:1; fill:none" points="1424.1,912.082 1443,912.082 "/>
<polyline clip-path="url(#clip770)" style="stroke:#000000; stroke-linecap:round; stroke-linejoin:round; stroke-width:4; stroke-opacity:1; fill:none" points="1424.1,671.628 1443,671.628 "/>
<polyline clip-path="url(#clip770)" style="stroke:#000000; stroke-linecap:round; stroke-linejoin:round; stroke-width:4; stroke-opacity:1; fill:none" points="1424.1,431.173 1443,431.173 "/>
<polyline clip-path="url(#clip770)" style="stroke:#000000; stroke-linecap:round; stroke-linejoin:round; stroke-width:4; stroke-opacity:1; fill:none" points="1424.1,190.718 1443,190.718 "/>
<path clip-path="url(#clip770)" d="M1251.99 1393.44 L1281.66 1393.44 L1281.66 1397.38 L1251.99 1397.38 L1251.99 1393.44 Z" fill="#000000" fill-rule="nonzero" fill-opacity="1" /><path clip-path="url(#clip770)" d="M1301.76 1378.79 Q1298.14 1378.79 1296.32 1382.36 Q1294.51 1385.9 1294.51 1393.03 Q1294.51 1400.13 1296.32 1403.7 Q1298.14 1407.24 1301.76 1407.24 Q1305.39 1407.24 1307.2 1403.7 Q1309.02 1400.13 1309.02 1393.03 Q1309.02 1385.9 1307.2 1382.36 Q1305.39 1378.79 1301.76 1378.79 M1301.76 1375.09 Q1307.57 1375.09 1310.62 1379.69 Q1313.7 1384.28 1313.7 1393.03 Q1313.7 1401.75 1310.62 1406.36 Q1307.57 1410.94 1301.76 1410.94 Q1295.95 1410.94 1292.87 1406.36 Q1289.81 1401.75 1289.81 1393.03 Q1289.81 1384.28 1292.87 1379.69 Q1295.95 1375.09 1301.76 1375.09 Z" fill="#000000" fill-rule="nonzero" fill-opacity="1" /><path clip-path="url(#clip770)" d="M1321.92 1404.39 L1326.8 1404.39 L1326.8 1410.27 L1321.92 1410.27 L1321.92 1404.39 Z" fill="#000000" fill-rule="nonzero" fill-opacity="1" /><path clip-path="url(#clip770)" d="M1335.81 1375.71 L1358.03 1375.71 L1358.03 1377.7 L1345.48 1410.27 L1340.6 1410.27 L1352.4 1379.65 L1335.81 1379.65 L1335.81 1375.71 Z" fill="#000000" fill-rule="nonzero" fill-opacity="1" /><path clip-path="url(#clip770)" d="M1367.2 1375.71 L1385.55 1375.71 L1385.55 1379.65 L1371.48 1379.65 L1371.48 1388.12 Q1372.5 1387.77 1373.51 1387.61 Q1374.53 1387.43 1375.55 1387.43 Q1381.34 1387.43 1384.72 1390.6 Q1388.1 1393.77 1388.1 1399.18 Q1388.1 1404.76 1384.63 1407.86 Q1381.15 1410.94 1374.83 1410.94 Q1372.66 1410.94 1370.39 1410.57 Q1368.14 1410.2 1365.74 1409.46 L1365.74 1404.76 Q1367.82 1405.9 1370.04 1406.45 Q1372.26 1407.01 1374.74 1407.01 Q1378.75 1407.01 1381.08 1404.9 Q1383.42 1402.8 1383.42 1399.18 Q1383.42 1395.57 1381.08 1393.47 Q1378.75 1391.36 1374.74 1391.36 Q1372.87 1391.36 1370.99 1391.78 Q1369.14 1392.19 1367.2 1393.07 L1367.2 1375.71 Z" fill="#000000" fill-rule="nonzero" fill-opacity="1" /><path clip-path="url(#clip770)" d="M1250.99 1152.99 L1280.67 1152.99 L1280.67 1156.92 L1250.99 1156.92 L1250.99 1152.99 Z" fill="#000000" fill-rule="nonzero" fill-opacity="1" /><path clip-path="url(#clip770)" d="M1300.76 1138.34 Q1297.15 1138.34 1295.32 1141.9 Q1293.52 1145.44 1293.52 1152.57 Q1293.52 1159.68 1295.32 1163.24 Q1297.15 1166.78 1300.76 1166.78 Q1304.39 1166.78 1306.2 1163.24 Q1308.03 1159.68 1308.03 1152.57 Q1308.03 1145.44 1306.2 1141.9 Q1304.39 1138.34 1300.76 1138.34 M1300.76 1134.63 Q1306.57 1134.63 1309.63 1139.24 Q1312.7 1143.82 1312.7 1152.57 Q1312.7 1161.3 1309.63 1165.91 Q1306.57 1170.49 1300.76 1170.49 Q1294.95 1170.49 1291.87 1165.91 Q1288.82 1161.3 1288.82 1152.57 Q1288.82 1143.82 1291.87 1139.24 Q1294.95 1134.63 1300.76 1134.63 Z" fill="#000000" fill-rule="nonzero" fill-opacity="1" /><path clip-path="url(#clip770)" d="M1320.92 1163.94 L1325.81 1163.94 L1325.81 1169.82 L1320.92 1169.82 L1320.92 1163.94 Z" fill="#000000" fill-rule="nonzero" fill-opacity="1" /><path clip-path="url(#clip770)" d="M1336.04 1135.26 L1354.39 1135.26 L1354.39 1139.19 L1340.32 1139.19 L1340.32 1147.66 Q1341.34 1147.32 1342.36 1147.16 Q1343.38 1146.97 1344.39 1146.97 Q1350.18 1146.97 1353.56 1150.14 Q1356.94 1153.31 1356.94 1158.73 Q1356.94 1164.31 1353.47 1167.41 Q1350 1170.49 1343.68 1170.49 Q1341.5 1170.49 1339.23 1170.12 Q1336.99 1169.75 1334.58 1169.01 L1334.58 1164.31 Q1336.66 1165.44 1338.89 1166 Q1341.11 1166.55 1343.58 1166.55 Q1347.59 1166.55 1349.93 1164.45 Q1352.26 1162.34 1352.26 1158.73 Q1352.26 1155.12 1349.93 1153.01 Q1347.59 1150.91 1343.58 1150.91 Q1341.71 1150.91 1339.83 1151.32 Q1337.98 1151.74 1336.04 1152.62 L1336.04 1135.26 Z" fill="#000000" fill-rule="nonzero" fill-opacity="1" /><path clip-path="url(#clip770)" d="M1376.15 1138.34 Q1372.54 1138.34 1370.71 1141.9 Q1368.91 1145.44 1368.91 1152.57 Q1368.91 1159.68 1370.71 1163.24 Q1372.54 1166.78 1376.15 1166.78 Q1379.79 1166.78 1381.59 1163.24 Q1383.42 1159.68 1383.42 1152.57 Q1383.42 1145.44 1381.59 1141.9 Q1379.79 1138.34 1376.15 1138.34 M1376.15 1134.63 Q1381.96 1134.63 1385.02 1139.24 Q1388.1 1143.82 1388.1 1152.57 Q1388.1 1161.3 1385.02 1165.91 Q1381.96 1170.49 1376.15 1170.49 Q1370.34 1170.49 1367.26 1165.91 Q1364.21 1161.3 1364.21 1152.57 Q1364.21 1143.82 1367.26 1139.24 Q1370.34 1134.63 1376.15 1134.63 Z" fill="#000000" fill-rule="nonzero" fill-opacity="1" /><path clip-path="url(#clip770)" d="M1251.99 912.534 L1281.66 912.534 L1281.66 916.469 L1251.99 916.469 L1251.99 912.534 Z" fill="#000000" fill-rule="nonzero" fill-opacity="1" /><path clip-path="url(#clip770)" d="M1301.76 897.881 Q1298.14 897.881 1296.32 901.446 Q1294.51 904.988 1294.51 912.117 Q1294.51 919.224 1296.32 922.788 Q1298.14 926.33 1301.76 926.33 Q1305.39 926.33 1307.2 922.788 Q1309.02 919.224 1309.02 912.117 Q1309.02 904.988 1307.2 901.446 Q1305.39 897.881 1301.76 897.881 M1301.76 894.177 Q1307.57 894.177 1310.62 898.784 Q1313.7 903.367 1313.7 912.117 Q1313.7 920.844 1310.62 925.45 Q1307.57 930.034 1301.76 930.034 Q1295.95 930.034 1292.87 925.45 Q1289.81 920.844 1289.81 912.117 Q1289.81 903.367 1292.87 898.784 Q1295.95 894.177 1301.76 894.177 Z" fill="#000000" fill-rule="nonzero" fill-opacity="1" /><path clip-path="url(#clip770)" d="M1321.92 923.483 L1326.8 923.483 L1326.8 929.362 L1321.92 929.362 L1321.92 923.483 Z" fill="#000000" fill-rule="nonzero" fill-opacity="1" /><path clip-path="url(#clip770)" d="M1341.01 925.427 L1357.33 925.427 L1357.33 929.362 L1335.39 929.362 L1335.39 925.427 Q1338.05 922.673 1342.64 918.043 Q1347.24 913.39 1348.42 912.048 Q1350.67 909.525 1351.55 907.788 Q1352.45 906.029 1352.45 904.339 Q1352.45 901.585 1350.51 899.849 Q1348.58 898.113 1345.48 898.113 Q1343.28 898.113 1340.83 898.876 Q1338.4 899.64 1335.62 901.191 L1335.62 896.469 Q1338.45 895.335 1340.9 894.756 Q1343.35 894.177 1345.39 894.177 Q1350.76 894.177 1353.95 896.863 Q1357.15 899.548 1357.15 904.038 Q1357.15 906.168 1356.34 908.089 Q1355.55 909.988 1353.45 912.58 Q1352.87 913.251 1349.76 916.469 Q1346.66 919.663 1341.01 925.427 Z" fill="#000000" fill-rule="nonzero" fill-opacity="1" /><path clip-path="url(#clip770)" d="M1367.2 894.802 L1385.55 894.802 L1385.55 898.738 L1371.48 898.738 L1371.48 907.21 Q1372.5 906.863 1373.51 906.701 Q1374.53 906.515 1375.55 906.515 Q1381.34 906.515 1384.72 909.687 Q1388.1 912.858 1388.1 918.275 Q1388.1 923.853 1384.63 926.955 Q1381.15 930.034 1374.83 930.034 Q1372.66 930.034 1370.39 929.663 Q1368.14 929.293 1365.74 928.552 L1365.74 923.853 Q1367.82 924.987 1370.04 925.543 Q1372.26 926.099 1374.74 926.099 Q1378.75 926.099 1381.08 923.992 Q1383.42 921.886 1383.42 918.275 Q1383.42 914.663 1381.08 912.557 Q1378.75 910.45 1374.74 910.45 Q1372.87 910.45 1370.99 910.867 Q1369.14 911.284 1367.2 912.163 L1367.2 894.802 Z" fill="#000000" fill-rule="nonzero" fill-opacity="1" /><path clip-path="url(#clip770)" d="M1300.76 657.426 Q1297.15 657.426 1295.32 660.991 Q1293.52 664.533 1293.52 671.662 Q1293.52 678.769 1295.32 682.334 Q1297.15 685.875 1300.76 685.875 Q1304.39 685.875 1306.2 682.334 Q1308.03 678.769 1308.03 671.662 Q1308.03 664.533 1306.2 660.991 Q1304.39 657.426 1300.76 657.426 M1300.76 653.723 Q1306.57 653.723 1309.63 658.329 Q1312.7 662.912 1312.7 671.662 Q1312.7 680.389 1309.63 684.996 Q1306.57 689.579 1300.76 689.579 Q1294.95 689.579 1291.87 684.996 Q1288.82 680.389 1288.82 671.662 Q1288.82 662.912 1291.87 658.329 Q1294.95 653.723 1300.76 653.723 Z" fill="#000000" fill-rule="nonzero" fill-opacity="1" /><path clip-path="url(#clip770)" d="M1320.92 683.028 L1325.81 683.028 L1325.81 688.908 L1320.92 688.908 L1320.92 683.028 Z" fill="#000000" fill-rule="nonzero" fill-opacity="1" /><path clip-path="url(#clip770)" d="M1345.99 657.426 Q1342.38 657.426 1340.55 660.991 Q1338.75 664.533 1338.75 671.662 Q1338.75 678.769 1340.55 682.334 Q1342.38 685.875 1345.99 685.875 Q1349.63 685.875 1351.43 682.334 Q1353.26 678.769 1353.26 671.662 Q1353.26 664.533 1351.43 660.991 Q1349.63 657.426 1345.99 657.426 M1345.99 653.723 Q1351.8 653.723 1354.86 658.329 Q1357.94 662.912 1357.94 671.662 Q1357.94 680.389 1354.86 684.996 Q1351.8 689.579 1345.99 689.579 Q1340.18 689.579 1337.1 684.996 Q1334.05 680.389 1334.05 671.662 Q1334.05 662.912 1337.1 658.329 Q1340.18 653.723 1345.99 653.723 Z" fill="#000000" fill-rule="nonzero" fill-opacity="1" /><path clip-path="url(#clip770)" d="M1376.15 657.426 Q1372.54 657.426 1370.71 660.991 Q1368.91 664.533 1368.91 671.662 Q1368.91 678.769 1370.71 682.334 Q1372.54 685.875 1376.15 685.875 Q1379.79 685.875 1381.59 682.334 Q1383.42 678.769 1383.42 671.662 Q1383.42 664.533 1381.59 660.991 Q1379.79 657.426 1376.15 657.426 M1376.15 653.723 Q1381.96 653.723 1385.02 658.329 Q1388.1 662.912 1388.1 671.662 Q1388.1 680.389 1385.02 684.996 Q1381.96 689.579 1376.15 689.579 Q1370.34 689.579 1367.26 684.996 Q1364.21 680.389 1364.21 671.662 Q1364.21 662.912 1367.26 658.329 Q1370.34 653.723 1376.15 653.723 Z" fill="#000000" fill-rule="nonzero" fill-opacity="1" /><path clip-path="url(#clip770)" d="M1301.76 416.971 Q1298.14 416.971 1296.32 420.536 Q1294.51 424.078 1294.51 431.207 Q1294.51 438.314 1296.32 441.879 Q1298.14 445.42 1301.76 445.42 Q1305.39 445.42 1307.2 441.879 Q1309.02 438.314 1309.02 431.207 Q1309.02 424.078 1307.2 420.536 Q1305.39 416.971 1301.76 416.971 M1301.76 413.268 Q1307.57 413.268 1310.62 417.874 Q1313.7 422.457 1313.7 431.207 Q1313.7 439.934 1310.62 444.541 Q1307.57 449.124 1301.76 449.124 Q1295.95 449.124 1292.87 444.541 Q1289.81 439.934 1289.81 431.207 Q1289.81 422.457 1292.87 417.874 Q1295.95 413.268 1301.76 413.268 Z" fill="#000000" fill-rule="nonzero" fill-opacity="1" /><path clip-path="url(#clip770)" d="M1321.92 442.573 L1326.8 442.573 L1326.8 448.453 L1321.92 448.453 L1321.92 442.573 Z" fill="#000000" fill-rule="nonzero" fill-opacity="1" /><path clip-path="url(#clip770)" d="M1341.01 444.518 L1357.33 444.518 L1357.33 448.453 L1335.39 448.453 L1335.39 444.518 Q1338.05 441.763 1342.64 437.133 Q1347.24 432.481 1348.42 431.138 Q1350.67 428.615 1351.55 426.879 Q1352.45 425.119 1352.45 423.43 Q1352.45 420.675 1350.51 418.939 Q1348.58 417.203 1345.48 417.203 Q1343.28 417.203 1340.83 417.967 Q1338.4 418.731 1335.62 420.282 L1335.62 415.559 Q1338.45 414.425 1340.9 413.846 Q1343.35 413.268 1345.39 413.268 Q1350.76 413.268 1353.95 415.953 Q1357.15 418.638 1357.15 423.129 Q1357.15 425.258 1356.34 427.18 Q1355.55 429.078 1353.45 431.67 Q1352.87 432.342 1349.76 435.559 Q1346.66 438.754 1341.01 444.518 Z" fill="#000000" fill-rule="nonzero" fill-opacity="1" /><path clip-path="url(#clip770)" d="M1367.2 413.893 L1385.55 413.893 L1385.55 417.828 L1371.48 417.828 L1371.48 426.3 Q1372.5 425.953 1373.51 425.791 Q1374.53 425.606 1375.55 425.606 Q1381.34 425.606 1384.72 428.777 Q1388.1 431.948 1388.1 437.365 Q1388.1 442.943 1384.63 446.045 Q1381.15 449.124 1374.83 449.124 Q1372.66 449.124 1370.39 448.754 Q1368.14 448.383 1365.74 447.643 L1365.74 442.943 Q1367.82 444.078 1370.04 444.633 Q1372.26 445.189 1374.74 445.189 Q1378.75 445.189 1381.08 443.082 Q1383.42 440.976 1383.42 437.365 Q1383.42 433.754 1381.08 431.647 Q1378.75 429.541 1374.74 429.541 Q1372.87 429.541 1370.99 429.957 Q1369.14 430.374 1367.2 431.254 L1367.2 413.893 Z" fill="#000000" fill-rule="nonzero" fill-opacity="1" /><path clip-path="url(#clip770)" d="M1300.76 176.516 Q1297.15 176.516 1295.32 180.081 Q1293.52 183.623 1293.52 190.753 Q1293.52 197.859 1295.32 201.424 Q1297.15 204.965 1300.76 204.965 Q1304.39 204.965 1306.2 201.424 Q1308.03 197.859 1308.03 190.753 Q1308.03 183.623 1306.2 180.081 Q1304.39 176.516 1300.76 176.516 M1300.76 172.813 Q1306.57 172.813 1309.63 177.419 Q1312.7 182.003 1312.7 190.753 Q1312.7 199.479 1309.63 204.086 Q1306.57 208.669 1300.76 208.669 Q1294.95 208.669 1291.87 204.086 Q1288.82 199.479 1288.82 190.753 Q1288.82 182.003 1291.87 177.419 Q1294.95 172.813 1300.76 172.813 Z" fill="#000000" fill-rule="nonzero" fill-opacity="1" /><path clip-path="url(#clip770)" d="M1320.92 202.118 L1325.81 202.118 L1325.81 207.998 L1320.92 207.998 L1320.92 202.118 Z" fill="#000000" fill-rule="nonzero" fill-opacity="1" /><path clip-path="url(#clip770)" d="M1336.04 173.438 L1354.39 173.438 L1354.39 177.373 L1340.32 177.373 L1340.32 185.845 Q1341.34 185.498 1342.36 185.336 Q1343.38 185.151 1344.39 185.151 Q1350.18 185.151 1353.56 188.322 Q1356.94 191.493 1356.94 196.91 Q1356.94 202.489 1353.47 205.59 Q1350 208.669 1343.68 208.669 Q1341.5 208.669 1339.23 208.299 Q1336.99 207.928 1334.58 207.188 L1334.58 202.489 Q1336.66 203.623 1338.89 204.178 Q1341.11 204.734 1343.58 204.734 Q1347.59 204.734 1349.93 202.627 Q1352.26 200.521 1352.26 196.91 Q1352.26 193.299 1349.93 191.192 Q1347.59 189.086 1343.58 189.086 Q1341.71 189.086 1339.83 189.503 Q1337.98 189.919 1336.04 190.799 L1336.04 173.438 Z" fill="#000000" fill-rule="nonzero" fill-opacity="1" /><path clip-path="url(#clip770)" d="M1376.15 176.516 Q1372.54 176.516 1370.71 180.081 Q1368.91 183.623 1368.91 190.753 Q1368.91 197.859 1370.71 201.424 Q1372.54 204.965 1376.15 204.965 Q1379.79 204.965 1381.59 201.424 Q1383.42 197.859 1383.42 190.753 Q1383.42 183.623 1381.59 180.081 Q1379.79 176.516 1376.15 176.516 M1376.15 172.813 Q1381.96 172.813 1385.02 177.419 Q1388.1 182.003 1388.1 190.753 Q1388.1 199.479 1385.02 204.086 Q1381.96 208.669 1376.15 208.669 Q1370.34 208.669 1367.26 204.086 Q1364.21 199.479 1364.21 190.753 Q1364.21 182.003 1367.26 177.419 Q1370.34 172.813 1376.15 172.813 Z" fill="#000000" fill-rule="nonzero" fill-opacity="1" /><polyline clip-path="url(#clip771)" style="stroke:#009af9; stroke-linecap:round; stroke-linejoin:round; stroke-width:4; stroke-opacity:1; fill:none" points="1450.38,1289.84 1461.47,1324.35 1472.56,1238.33 1483.65,1158.3 1494.74,1143.89 1505.83,1118.51 1516.92,1100.59 1528.01,1134.32 1539.1,1200.25 1550.19,1226.85 1561.28,1240.72 1572.37,1238.61 1583.46,1275.41 1594.55,1248.02 1605.64,1191.77 1616.73,1099.98 1627.82,999.434 1638.91,947.834 1650,925.453 1661.09,877.54 1672.18,817.286 1683.27,711.235 1694.36,614.767 1705.45,585.942 1716.54,540.827 1727.63,485.807 1738.71,441.135 1749.8,356.553 1760.89,258.141 1771.98,204.563 1783.07,174.245 1794.16,208.019 1805.25,222.424 1816.34,221.788 1827.43,233.705 1838.52,253.601 1849.61,237.921 1860.7,205.215 1871.79,162.895 1882.88,200.583 1893.97,225.987 1905.06,302.043 1916.15,332.049 1927.24,308.732 1938.33,268.271 1949.42,214.506 1960.51,234.208 1971.6,211.39 1982.69,193.399 1993.78,166.494 2004.87,169.583 2015.96,247.026 2027.05,322.744 2038.14,369.877 2049.23,468.919 2060.32,562.632 2071.41,545.122 2082.5,527.472 2093.59,473.848 2104.68,471.908 2115.77,506.382 2126.86,578.37 2137.95,671.036 2149.04,768.835 2160.13,828.415 2171.22,839.902 2182.31,805.183 2193.4,719.554 2204.49,724.513 2215.58,682.823 2226.67,582.518 2237.75,551.369 2248.84,525.765 2259.93,536.316 2271.02,630.582 2282.11,725.825 2293.2,860.253 2304.29,916.941 2315.38,886.719 2326.47,930.728 "/>
<polyline clip-path="url(#clip771)" style="stroke:#e26f46; stroke-linecap:round; stroke-linejoin:round; stroke-width:4; stroke-opacity:1; fill:none" points="1450.38,1294.69 1461.47,1336.69 1472.56,1246.07 1483.65,1149.39 1494.74,1131.9 1505.83,1115.91 1516.92,1093.62 1528.01,1147.85 1539.1,1208.79 1550.19,1232.44 1561.28,1256.89 1572.37,1244.59 1583.46,1273.21 1594.55,1255.55 1605.64,1202.29 1616.73,1106.47 1627.82,995.997 1638.91,943.16 1650,926.428 1661.09,888.03 1672.18,831.946 1683.27,702.168 1694.36,617.195 1705.45,581.582 1716.54,539.176 1727.63,474.878 1738.71,436.124 1749.8,356.44 1760.89,249.672 1771.98,203 1783.07,179.693 1794.16,216.382 1805.25,236.387 1816.34,239.366 1827.43,258.425 1838.52,271.254 1849.61,240.531 1860.7,201.113 1871.79,153.271 1882.88,202.274 1893.97,228.612 1905.06,303.964 1916.15,314.799 1927.24,305.491 1938.33,263.078 1949.42,208.123 1960.51,232.196 1971.6,217.922 1982.69,208.076 1993.78,181.545 2004.87,175.661 2015.96,258.801 2027.05,321.892 2038.14,370.012 2049.23,457.659 2060.32,541.99 2071.41,530.909 2082.5,523.185 2093.59,478.251 2104.68,477.568 2115.77,510.788 2126.86,583.79 2137.95,684.998 2149.04,765.419 2160.13,812.165 2171.22,836.758 2182.31,790.383 2193.4,701.146 2204.49,702.292 2215.58,662.639 2226.67,579.396 2237.75,555.718 2248.84,558.382 2259.93,568.838 2271.02,659.048 2282.11,749.695 2293.2,871.718 2304.29,917.11 2315.38,892.716 2326.47,939.873 "/>
<polyline clip-path="url(#clip771)" style="stroke:#3da44d; stroke-linecap:round; stroke-linejoin:round; stroke-width:4; stroke-opacity:1; fill:none" points="1450.38,1445.72 1461.47,1385.86 1472.56,1318.35 1483.65,1140.85 1494.74,1074.77 1505.83,1102.51 1516.92,1070.08 1528.01,1104.74 1539.1,1240.66 1550.19,1274.88 1561.28,1224.59 1572.37,1279.18 1583.46,1258.03 1594.55,1214.07 1605.64,1257.97 1616.73,1262.66 1627.82,1078.83 1638.91,923.615 1650,923.469 1661.09,868.75 1672.18,880.923 1683.27,766.955 1694.36,740.829 1705.45,606.089 1716.54,496.34 1727.63,505.313 1738.71,569.353 1749.8,619.721 1760.89,423.266 1771.98,352.185 1783.07,331.848 1794.16,366.396 1805.25,384.963 1816.34,374.369 1827.43,350.482 1838.52,441.755 1849.61,320.157 1860.7,247.016 1871.79,221.007 1882.88,268.212 1893.97,354.731 1905.06,465.006 1916.15,386.006 1927.24,300.75 1938.33,275.125 1949.42,357.826 1960.51,351.957 1971.6,304.722 1982.69,87.9763 1993.78,268.031 2004.87,334.822 2015.96,261.024 2027.05,318.44 2038.14,424.55 2049.23,395.3 2060.32,600.298 2071.41,488.65 2082.5,540.247 2093.59,414.111 2104.68,439.234 2115.77,505.906 2126.86,514.3 2137.95,606.884 2149.04,750.072 2160.13,858.763 2171.22,911.76 2182.31,967.915 2193.4,804.724 2204.49,774.054 2215.58,735.48 2226.67,574.573 2237.75,657.966 2248.84,529.705 2259.93,592.102 2271.02,459.161 2282.11,560.677 2293.2,746.947 2304.29,729.366 2315.38,762.323 2326.47,784.929 "/>
<path clip-path="url(#clip770)" d="M1867.27 302.578 L2321.8 302.578 L2321.8 95.2176 L1867.27 95.2176  Z" fill="#ffffff" fill-rule="evenodd" fill-opacity="1"/>
<polyline clip-path="url(#clip770)" style="stroke:#000000; stroke-linecap:round; stroke-linejoin:round; stroke-width:4; stroke-opacity:1; fill:none" points="1867.27,302.578 2321.8,302.578 2321.8,95.2176 1867.27,95.2176 1867.27,302.578 "/>
<polyline clip-path="url(#clip770)" style="stroke:#009af9; stroke-linecap:round; stroke-linejoin:round; stroke-width:4; stroke-opacity:1; fill:none" points="1877.59,147.058 1939.5,147.058 "/>
<path clip-path="url(#clip770)" d="M1949.82 129.778 L1954.49 129.778 L1954.49 144.384 L1970 129.778 L1976.02 129.778 L1958.87 145.889 L1977.25 164.338 L1971.09 164.338 L1954.49 147.694 L1954.49 164.338 L1949.82 164.338 L1949.82 129.778 Z" fill="#000000" fill-rule="nonzero" fill-opacity="1" /><path clip-path="url(#clip770)" d="M1991.67 151.305 Q1986.51 151.305 1984.52 152.486 Q1982.53 153.666 1982.53 156.514 Q1982.53 158.782 1984.01 160.125 Q1985.51 161.444 1988.08 161.444 Q1991.62 161.444 1993.75 158.944 Q1995.91 156.421 1995.91 152.254 L1995.91 151.305 L1991.67 151.305 M2000.16 149.546 L2000.16 164.338 L1995.91 164.338 L1995.91 160.402 Q1994.45 162.763 1992.27 163.898 Q1990.1 165.009 1986.95 165.009 Q1982.97 165.009 1980.6 162.787 Q1978.27 160.541 1978.27 156.791 Q1978.27 152.416 1981.18 150.194 Q1984.12 147.972 1989.93 147.972 L1995.91 147.972 L1995.91 147.555 Q1995.91 144.615 1993.96 143.018 Q1992.04 141.398 1988.54 141.398 Q1986.32 141.398 1984.22 141.93 Q1982.11 142.463 1980.16 143.527 L1980.16 139.592 Q1982.5 138.69 1984.7 138.25 Q1986.9 137.787 1988.98 137.787 Q1994.61 137.787 1997.39 140.703 Q2000.16 143.62 2000.16 149.546 Z" fill="#000000" fill-rule="nonzero" fill-opacity="1" /><path clip-path="url(#clip770)" d="M2008.94 128.319 L2013.2 128.319 L2013.2 164.338 L2008.94 164.338 L2008.94 128.319 Z" fill="#000000" fill-rule="nonzero" fill-opacity="1" /><path clip-path="url(#clip770)" d="M2042.29 143.389 Q2043.89 140.518 2046.11 139.153 Q2048.34 137.787 2051.34 137.787 Q2055.4 137.787 2057.59 140.634 Q2059.79 143.458 2059.79 148.689 L2059.79 164.338 L2055.51 164.338 L2055.51 148.828 Q2055.51 145.102 2054.19 143.296 Q2052.87 141.49 2050.16 141.49 Q2046.85 141.49 2044.93 143.69 Q2043.01 145.889 2043.01 149.685 L2043.01 164.338 L2038.73 164.338 L2038.73 148.828 Q2038.73 145.078 2037.41 143.296 Q2036.09 141.49 2033.34 141.49 Q2030.07 141.49 2028.15 143.713 Q2026.23 145.912 2026.23 149.685 L2026.23 164.338 L2021.95 164.338 L2021.95 138.412 L2026.23 138.412 L2026.23 142.44 Q2027.69 140.055 2029.72 138.921 Q2031.76 137.787 2034.56 137.787 Q2037.39 137.787 2039.35 139.222 Q2041.34 140.657 2042.29 143.389 Z" fill="#000000" fill-rule="nonzero" fill-opacity="1" /><path clip-path="url(#clip770)" d="M2080.07 151.305 Q2074.91 151.305 2072.92 152.486 Q2070.93 153.666 2070.93 156.514 Q2070.93 158.782 2072.41 160.125 Q2073.91 161.444 2076.48 161.444 Q2080.03 161.444 2082.15 158.944 Q2084.31 156.421 2084.31 152.254 L2084.31 151.305 L2080.07 151.305 M2088.57 149.546 L2088.57 164.338 L2084.31 164.338 L2084.31 160.402 Q2082.85 162.763 2080.67 163.898 Q2078.5 165.009 2075.35 165.009 Q2071.37 165.009 2069.01 162.787 Q2066.67 160.541 2066.67 156.791 Q2066.67 152.416 2069.59 150.194 Q2072.53 147.972 2078.34 147.972 L2084.31 147.972 L2084.31 147.555 Q2084.31 144.615 2082.36 143.018 Q2080.44 141.398 2076.95 141.398 Q2074.72 141.398 2072.62 141.93 Q2070.51 142.463 2068.57 143.527 L2068.57 139.592 Q2070.9 138.69 2073.1 138.25 Q2075.3 137.787 2077.39 137.787 Q2083.01 137.787 2085.79 140.703 Q2088.57 143.62 2088.57 149.546 Z" fill="#000000" fill-rule="nonzero" fill-opacity="1" /><path clip-path="url(#clip770)" d="M2118.89 148.689 L2118.89 164.338 L2114.63 164.338 L2114.63 148.828 Q2114.63 145.148 2113.2 143.319 Q2111.76 141.49 2108.89 141.49 Q2105.44 141.49 2103.45 143.69 Q2101.46 145.889 2101.46 149.685 L2101.46 164.338 L2097.18 164.338 L2097.18 138.412 L2101.46 138.412 L2101.46 142.44 Q2102.99 140.102 2105.05 138.944 Q2107.13 137.787 2109.84 137.787 Q2114.31 137.787 2116.6 140.565 Q2118.89 143.319 2118.89 148.689 Z" fill="#000000" fill-rule="nonzero" fill-opacity="1" /><path clip-path="url(#clip770)" d="M2158.98 139.176 L2158.98 143.203 Q2157.18 142.277 2155.23 141.815 Q2153.29 141.352 2151.21 141.352 Q2148.03 141.352 2146.44 142.324 Q2144.86 143.296 2144.86 145.24 Q2144.86 146.722 2146 147.578 Q2147.13 148.412 2150.56 149.176 L2152.02 149.5 Q2156.55 150.472 2158.45 152.254 Q2160.37 154.014 2160.37 157.185 Q2160.37 160.796 2157.5 162.902 Q2154.65 165.009 2149.65 165.009 Q2147.57 165.009 2145.3 164.592 Q2143.06 164.199 2140.56 163.388 L2140.56 158.99 Q2142.92 160.217 2145.21 160.842 Q2147.5 161.444 2149.75 161.444 Q2152.76 161.444 2154.38 160.426 Q2156 159.384 2156 157.509 Q2156 155.773 2154.82 154.847 Q2153.66 153.921 2149.7 153.064 L2148.22 152.717 Q2144.26 151.884 2142.5 150.171 Q2140.74 148.435 2140.74 145.426 Q2140.74 141.768 2143.33 139.778 Q2145.93 137.787 2150.7 137.787 Q2153.06 137.787 2155.14 138.134 Q2157.22 138.481 2158.98 139.176 Z" fill="#000000" fill-rule="nonzero" fill-opacity="1" /><path clip-path="url(#clip770)" d="M2187.34 143.389 Q2188.94 140.518 2191.16 139.153 Q2193.38 137.787 2196.39 137.787 Q2200.44 137.787 2202.64 140.634 Q2204.84 143.458 2204.84 148.689 L2204.84 164.338 L2200.56 164.338 L2200.56 148.828 Q2200.56 145.102 2199.24 143.296 Q2197.92 141.49 2195.21 141.49 Q2191.9 141.49 2189.98 143.69 Q2188.06 145.889 2188.06 149.685 L2188.06 164.338 L2183.77 164.338 L2183.77 148.828 Q2183.77 145.078 2182.46 143.296 Q2181.14 141.49 2178.38 141.49 Q2175.12 141.49 2173.2 143.713 Q2171.27 145.912 2171.27 149.685 L2171.27 164.338 L2166.99 164.338 L2166.99 138.412 L2171.27 138.412 L2171.27 142.44 Q2172.73 140.055 2174.77 138.921 Q2176.81 137.787 2179.61 137.787 Q2182.43 137.787 2184.4 139.222 Q2186.39 140.657 2187.34 143.389 Z" fill="#000000" fill-rule="nonzero" fill-opacity="1" /><path clip-path="url(#clip770)" d="M2223.38 141.398 Q2219.95 141.398 2217.96 144.083 Q2215.97 146.745 2215.97 151.398 Q2215.97 156.051 2217.94 158.736 Q2219.93 161.398 2223.38 161.398 Q2226.78 161.398 2228.77 158.713 Q2230.77 156.027 2230.77 151.398 Q2230.77 146.791 2228.77 144.106 Q2226.78 141.398 2223.38 141.398 M2223.38 137.787 Q2228.94 137.787 2232.11 141.398 Q2235.28 145.009 2235.28 151.398 Q2235.28 157.764 2232.11 161.398 Q2228.94 165.009 2223.38 165.009 Q2217.8 165.009 2214.63 161.398 Q2211.48 157.764 2211.48 151.398 Q2211.48 145.009 2214.63 141.398 Q2217.8 137.787 2223.38 137.787 Z" fill="#000000" fill-rule="nonzero" fill-opacity="1" /><path clip-path="url(#clip770)" d="M2252.39 141.398 Q2248.96 141.398 2246.97 144.083 Q2244.98 146.745 2244.98 151.398 Q2244.98 156.051 2246.95 158.736 Q2248.94 161.398 2252.39 161.398 Q2255.79 161.398 2257.78 158.713 Q2259.77 156.027 2259.77 151.398 Q2259.77 146.791 2257.78 144.106 Q2255.79 141.398 2252.39 141.398 M2252.39 137.787 Q2257.94 137.787 2261.11 141.398 Q2264.28 145.009 2264.28 151.398 Q2264.28 157.764 2261.11 161.398 Q2257.94 165.009 2252.39 165.009 Q2246.81 165.009 2243.64 161.398 Q2240.49 157.764 2240.49 151.398 Q2240.49 145.009 2243.64 141.398 Q2246.81 137.787 2252.39 137.787 Z" fill="#000000" fill-rule="nonzero" fill-opacity="1" /><path clip-path="url(#clip770)" d="M2275.56 131.051 L2275.56 138.412 L2284.33 138.412 L2284.33 141.722 L2275.56 141.722 L2275.56 155.796 Q2275.56 158.967 2276.41 159.87 Q2277.29 160.773 2279.95 160.773 L2284.33 160.773 L2284.33 164.338 L2279.95 164.338 Q2275.02 164.338 2273.15 162.509 Q2271.27 160.657 2271.27 155.796 L2271.27 141.722 L2268.15 141.722 L2268.15 138.412 L2271.27 138.412 L2271.27 131.051 L2275.56 131.051 Z" fill="#000000" fill-rule="nonzero" fill-opacity="1" /><path clip-path="url(#clip770)" d="M2311.48 148.689 L2311.48 164.338 L2307.22 164.338 L2307.22 148.828 Q2307.22 145.148 2305.79 143.319 Q2304.35 141.49 2301.48 141.49 Q2298.03 141.49 2296.04 143.69 Q2294.05 145.889 2294.05 149.685 L2294.05 164.338 L2289.77 164.338 L2289.77 128.319 L2294.05 128.319 L2294.05 142.44 Q2295.58 140.102 2297.64 138.944 Q2299.72 137.787 2302.43 137.787 Q2306.9 137.787 2309.19 140.565 Q2311.48 143.319 2311.48 148.689 Z" fill="#000000" fill-rule="nonzero" fill-opacity="1" /><polyline clip-path="url(#clip770)" style="stroke:#e26f46; stroke-linecap:round; stroke-linejoin:round; stroke-width:4; stroke-opacity:1; fill:none" points="1877.59,198.898 1939.5,198.898 "/>
<path clip-path="url(#clip770)" d="M1954.1 212.289 L1954.1 226.039 L1949.82 226.039 L1949.82 190.252 L1954.1 190.252 L1954.1 194.187 Q1955.44 191.872 1957.48 190.761 Q1959.54 189.627 1962.39 189.627 Q1967.11 189.627 1970.05 193.377 Q1973.01 197.127 1973.01 203.238 Q1973.01 209.349 1970.05 213.099 Q1967.11 216.849 1962.39 216.849 Q1959.54 216.849 1957.48 215.738 Q1955.44 214.603 1954.1 212.289 M1968.59 203.238 Q1968.59 198.539 1966.65 195.877 Q1964.72 193.192 1961.35 193.192 Q1957.97 193.192 1956.02 195.877 Q1954.1 198.539 1954.1 203.238 Q1954.1 207.937 1956.02 210.622 Q1957.97 213.284 1961.35 213.284 Q1964.72 213.284 1966.65 210.622 Q1968.59 207.937 1968.59 203.238 Z" fill="#000000" fill-rule="nonzero" fill-opacity="1" /><path clip-path="url(#clip770)" d="M1993.2 180.159 L1993.2 183.701 L1989.12 183.701 Q1986.83 183.701 1985.93 184.627 Q1985.05 185.553 1985.05 187.96 L1985.05 190.252 L1992.06 190.252 L1992.06 193.562 L1985.05 193.562 L1985.05 216.178 L1980.77 216.178 L1980.77 193.562 L1976.69 193.562 L1976.69 190.252 L1980.77 190.252 L1980.77 188.446 Q1980.77 184.118 1982.78 182.15 Q1984.79 180.159 1989.17 180.159 L1993.2 180.159 Z" fill="#000000" fill-rule="nonzero" fill-opacity="1" /><path clip-path="url(#clip770)" d="M2028.36 191.016 L2028.36 195.043 Q2026.55 194.117 2024.61 193.655 Q2022.66 193.192 2020.58 193.192 Q2017.41 193.192 2015.81 194.164 Q2014.24 195.136 2014.24 197.08 Q2014.24 198.562 2015.37 199.418 Q2016.51 200.252 2019.93 201.016 L2021.39 201.34 Q2025.93 202.312 2027.83 204.094 Q2029.75 205.854 2029.75 209.025 Q2029.75 212.636 2026.88 214.742 Q2024.03 216.849 2019.03 216.849 Q2016.95 216.849 2014.68 216.432 Q2012.43 216.039 2009.93 215.228 L2009.93 210.83 Q2012.29 212.057 2014.59 212.682 Q2016.88 213.284 2019.12 213.284 Q2022.13 213.284 2023.75 212.266 Q2025.37 211.224 2025.37 209.349 Q2025.37 207.613 2024.19 206.687 Q2023.03 205.761 2019.08 204.904 L2017.59 204.557 Q2013.64 203.724 2011.88 202.011 Q2010.12 200.275 2010.12 197.266 Q2010.12 193.608 2012.71 191.618 Q2015.3 189.627 2020.07 189.627 Q2022.43 189.627 2024.52 189.974 Q2026.6 190.321 2028.36 191.016 Z" fill="#000000" fill-rule="nonzero" fill-opacity="1" /><path clip-path="url(#clip770)" d="M2056.72 195.229 Q2058.31 192.358 2060.53 190.993 Q2062.76 189.627 2065.77 189.627 Q2069.82 189.627 2072.02 192.474 Q2074.21 195.298 2074.21 200.529 L2074.21 216.178 L2069.93 216.178 L2069.93 200.668 Q2069.93 196.942 2068.61 195.136 Q2067.29 193.33 2064.59 193.33 Q2061.28 193.33 2059.35 195.53 Q2057.43 197.729 2057.43 201.525 L2057.43 216.178 L2053.15 216.178 L2053.15 200.668 Q2053.15 196.918 2051.83 195.136 Q2050.51 193.33 2047.76 193.33 Q2044.49 193.33 2042.57 195.553 Q2040.65 197.752 2040.65 201.525 L2040.65 216.178 L2036.37 216.178 L2036.37 190.252 L2040.65 190.252 L2040.65 194.28 Q2042.11 191.895 2044.15 190.761 Q2046.18 189.627 2048.98 189.627 Q2051.81 189.627 2053.78 191.062 Q2055.77 192.497 2056.72 195.229 Z" fill="#000000" fill-rule="nonzero" fill-opacity="1" /><path clip-path="url(#clip770)" d="M2092.76 193.238 Q2089.33 193.238 2087.34 195.923 Q2085.35 198.585 2085.35 203.238 Q2085.35 207.891 2087.32 210.576 Q2089.31 213.238 2092.76 213.238 Q2096.16 213.238 2098.15 210.553 Q2100.14 207.867 2100.14 203.238 Q2100.14 198.631 2098.15 195.946 Q2096.16 193.238 2092.76 193.238 M2092.76 189.627 Q2098.31 189.627 2101.48 193.238 Q2104.65 196.849 2104.65 203.238 Q2104.65 209.604 2101.48 213.238 Q2098.31 216.849 2092.76 216.849 Q2087.18 216.849 2084.01 213.238 Q2080.86 209.604 2080.86 203.238 Q2080.86 196.849 2084.01 193.238 Q2087.18 189.627 2092.76 189.627 Z" fill="#000000" fill-rule="nonzero" fill-opacity="1" /><path clip-path="url(#clip770)" d="M2121.76 193.238 Q2118.34 193.238 2116.34 195.923 Q2114.35 198.585 2114.35 203.238 Q2114.35 207.891 2116.32 210.576 Q2118.31 213.238 2121.76 213.238 Q2125.16 213.238 2127.15 210.553 Q2129.15 207.867 2129.15 203.238 Q2129.15 198.631 2127.15 195.946 Q2125.16 193.238 2121.76 193.238 M2121.76 189.627 Q2127.32 189.627 2130.49 193.238 Q2133.66 196.849 2133.66 203.238 Q2133.66 209.604 2130.49 213.238 Q2127.32 216.849 2121.76 216.849 Q2116.18 216.849 2113.01 213.238 Q2109.86 209.604 2109.86 203.238 Q2109.86 196.849 2113.01 193.238 Q2116.18 189.627 2121.76 189.627 Z" fill="#000000" fill-rule="nonzero" fill-opacity="1" /><path clip-path="url(#clip770)" d="M2144.93 182.891 L2144.93 190.252 L2153.71 190.252 L2153.71 193.562 L2144.93 193.562 L2144.93 207.636 Q2144.93 210.807 2145.79 211.71 Q2146.67 212.613 2149.33 212.613 L2153.71 212.613 L2153.71 216.178 L2149.33 216.178 Q2144.4 216.178 2142.52 214.349 Q2140.65 212.497 2140.65 207.636 L2140.65 193.562 L2137.52 193.562 L2137.52 190.252 L2140.65 190.252 L2140.65 182.891 L2144.93 182.891 Z" fill="#000000" fill-rule="nonzero" fill-opacity="1" /><path clip-path="url(#clip770)" d="M2180.86 200.529 L2180.86 216.178 L2176.6 216.178 L2176.6 200.668 Q2176.6 196.988 2175.16 195.159 Q2173.73 193.33 2170.86 193.33 Q2167.41 193.33 2165.42 195.53 Q2163.43 197.729 2163.43 201.525 L2163.43 216.178 L2159.15 216.178 L2159.15 180.159 L2163.43 180.159 L2163.43 194.28 Q2164.96 191.942 2167.02 190.784 Q2169.1 189.627 2171.81 189.627 Q2176.27 189.627 2178.57 192.405 Q2180.86 195.159 2180.86 200.529 Z" fill="#000000" fill-rule="nonzero" fill-opacity="1" /><polyline clip-path="url(#clip770)" style="stroke:#3da44d; stroke-linecap:round; stroke-linejoin:round; stroke-width:4; stroke-opacity:1; fill:none" points="1877.59,250.738 1939.5,250.738 "/>
<path clip-path="url(#clip770)" d="M1957.22 234.731 L1957.22 242.092 L1966 242.092 L1966 245.402 L1957.22 245.402 L1957.22 259.476 Q1957.22 262.647 1958.08 263.55 Q1958.96 264.453 1961.62 264.453 L1966 264.453 L1966 268.018 L1961.62 268.018 Q1956.69 268.018 1954.82 266.189 Q1952.94 264.337 1952.94 259.476 L1952.94 245.402 L1949.82 245.402 L1949.82 242.092 L1952.94 242.092 L1952.94 234.731 L1957.22 234.731 Z" fill="#000000" fill-rule="nonzero" fill-opacity="1" /><path clip-path="url(#clip770)" d="M1986.62 246.073 Q1985.91 245.657 1985.05 245.471 Q1984.22 245.263 1983.2 245.263 Q1979.59 245.263 1977.64 247.624 Q1975.72 249.962 1975.72 254.36 L1975.72 268.018 L1971.44 268.018 L1971.44 242.092 L1975.72 242.092 L1975.72 246.12 Q1977.06 243.758 1979.22 242.624 Q1981.37 241.467 1984.45 241.467 Q1984.89 241.467 1985.42 241.536 Q1985.95 241.583 1986.6 241.698 L1986.62 246.073 Z" fill="#000000" fill-rule="nonzero" fill-opacity="1" /><path clip-path="url(#clip770)" d="M1990.65 257.786 L1990.65 242.092 L1994.91 242.092 L1994.91 257.624 Q1994.91 261.305 1996.35 263.156 Q1997.78 264.985 2000.65 264.985 Q2004.1 264.985 2006.09 262.786 Q2008.1 260.587 2008.1 256.791 L2008.1 242.092 L2012.36 242.092 L2012.36 268.018 L2008.1 268.018 L2008.1 264.036 Q2006.55 266.397 2004.49 267.555 Q2002.46 268.689 1999.75 268.689 Q1995.28 268.689 1992.97 265.911 Q1990.65 263.133 1990.65 257.786 M2001.37 241.467 L2001.37 241.467 Z" fill="#000000" fill-rule="nonzero" fill-opacity="1" /><path clip-path="url(#clip770)" d="M2043.31 253.99 L2043.31 256.073 L2023.73 256.073 Q2024.01 260.471 2026.37 262.786 Q2028.75 265.078 2032.99 265.078 Q2035.44 265.078 2037.73 264.476 Q2040.05 263.874 2042.32 262.67 L2042.32 266.698 Q2040.03 267.67 2037.62 268.18 Q2035.21 268.689 2032.73 268.689 Q2026.53 268.689 2022.9 265.078 Q2019.28 261.467 2019.28 255.309 Q2019.28 248.944 2022.71 245.217 Q2026.16 241.467 2031.99 241.467 Q2037.22 241.467 2040.26 244.846 Q2043.31 248.203 2043.31 253.99 M2039.05 252.74 Q2039.01 249.245 2037.09 247.161 Q2035.19 245.078 2032.04 245.078 Q2028.47 245.078 2026.32 247.092 Q2024.19 249.106 2023.87 252.763 L2039.05 252.74 Z" fill="#000000" fill-rule="nonzero" fill-opacity="1" /></svg>
