<?xml version="1.0" encoding="utf-8"?>
<svg xmlns="http://www.w3.org/2000/svg" xmlns:xlink="http://www.w3.org/1999/xlink" width="600" height="400" viewBox="0 0 2400 1600">
<defs>
  <clipPath id="clip290">
    <rect x="0" y="0" width="2400" height="1600"/>
  </clipPath>
</defs>
<path clip-path="url(#clip290)" d="M0 1600 L2400 1600 L2400 0 L0 0  Z" fill="#ffffff" fill-rule="evenodd" fill-opacity="1"/>
<defs>
  <clipPath id="clip291">
    <rect x="480" y="0" width="1681" height="1600"/>
  </clipPath>
</defs>
<path clip-path="url(#clip290)" d="M147.478 1486.45 L1129.53 1486.45 L1129.53 47.2441 L147.478 47.2441  Z" fill="#ffffff" fill-rule="evenodd" fill-opacity="1"/>
<defs>
  <clipPath id="clip292">
    <rect x="147" y="47" width="983" height="1440"/>
  </clipPath>
</defs>
<polyline clip-path="url(#clip292)" style="stroke:#000000; stroke-linecap:round; stroke-linejoin:round; stroke-width:2; stroke-opacity:0.1; fill:none" points="163.544,1486.45 163.544,47.2441 "/>
<polyline clip-path="url(#clip292)" style="stroke:#000000; stroke-linecap:round; stroke-linejoin:round; stroke-width:2; stroke-opacity:0.1; fill:none" points="398.092,1486.45 398.092,47.2441 "/>
<polyline clip-path="url(#clip292)" style="stroke:#000000; stroke-linecap:round; stroke-linejoin:round; stroke-width:2; stroke-opacity:0.1; fill:none" points="632.639,1486.45 632.639,47.2441 "/>
<polyline clip-path="url(#clip292)" style="stroke:#000000; stroke-linecap:round; stroke-linejoin:round; stroke-width:2; stroke-opacity:0.1; fill:none" points="867.186,1486.45 867.186,47.2441 "/>
<polyline clip-path="url(#clip292)" style="stroke:#000000; stroke-linecap:round; stroke-linejoin:round; stroke-width:2; stroke-opacity:0.1; fill:none" points="1101.73,1486.45 1101.73,47.2441 "/>
<polyline clip-path="url(#clip292)" style="stroke:#000000; stroke-linecap:round; stroke-linejoin:round; stroke-width:2; stroke-opacity:0.1; fill:none" points="147.478,1244.01 1129.53,1244.01 "/>
<polyline clip-path="url(#clip292)" style="stroke:#000000; stroke-linecap:round; stroke-linejoin:round; stroke-width:2; stroke-opacity:0.1; fill:none" points="147.478,908.046 1129.53,908.046 "/>
<polyline clip-path="url(#clip292)" style="stroke:#000000; stroke-linecap:round; stroke-linejoin:round; stroke-width:2; stroke-opacity:0.1; fill:none" points="147.478,572.083 1129.53,572.083 "/>
<polyline clip-path="url(#clip292)" style="stroke:#000000; stroke-linecap:round; stroke-linejoin:round; stroke-width:2; stroke-opacity:0.1; fill:none" points="147.478,236.121 1129.53,236.121 "/>
<polyline clip-path="url(#clip290)" style="stroke:#000000; stroke-linecap:round; stroke-linejoin:round; stroke-width:4; stroke-opacity:1; fill:none" points="147.478,1486.45 1129.53,1486.45 "/>
<polyline clip-path="url(#clip290)" style="stroke:#000000; stroke-linecap:round; stroke-linejoin:round; stroke-width:4; stroke-opacity:1; fill:none" points="163.544,1486.45 163.544,1467.55 "/>
<polyline clip-path="url(#clip290)" style="stroke:#000000; stroke-linecap:round; stroke-linejoin:round; stroke-width:4; stroke-opacity:1; fill:none" points="398.092,1486.45 398.092,1467.55 "/>
<polyline clip-path="url(#clip290)" style="stroke:#000000; stroke-linecap:round; stroke-linejoin:round; stroke-width:4; stroke-opacity:1; fill:none" points="632.639,1486.45 632.639,1467.55 "/>
<polyline clip-path="url(#clip290)" style="stroke:#000000; stroke-linecap:round; stroke-linejoin:round; stroke-width:4; stroke-opacity:1; fill:none" points="867.186,1486.45 867.186,1467.55 "/>
<polyline clip-path="url(#clip290)" style="stroke:#000000; stroke-linecap:round; stroke-linejoin:round; stroke-width:4; stroke-opacity:1; fill:none" points="1101.73,1486.45 1101.73,1467.55 "/>
<path clip-path="url(#clip290)" d="M163.544 1517.37 Q159.933 1517.37 158.105 1520.93 Q156.299 1524.47 156.299 1531.6 Q156.299 1538.71 158.105 1542.27 Q159.933 1545.82 163.544 1545.82 Q167.179 1545.82 168.984 1542.27 Q170.813 1538.71 170.813 1531.6 Q170.813 1524.47 168.984 1520.93 Q167.179 1517.37 163.544 1517.37 M163.544 1513.66 Q169.355 1513.66 172.41 1518.27 Q175.489 1522.85 175.489 1531.6 Q175.489 1540.33 172.41 1544.94 Q169.355 1549.52 163.544 1549.52 Q157.734 1549.52 154.656 1544.94 Q151.6 1540.33 151.6 1531.6 Q151.6 1522.85 154.656 1518.27 Q157.734 1513.66 163.544 1513.66 Z" fill="#000000" fill-rule="nonzero" fill-opacity="1" /><path clip-path="url(#clip290)" d="M376.865 1544.91 L393.184 1544.91 L393.184 1548.85 L371.24 1548.85 L371.24 1544.91 Q373.902 1542.16 378.485 1537.53 Q383.092 1532.88 384.272 1531.53 Q386.518 1529.01 387.397 1527.27 Q388.3 1525.51 388.3 1523.82 Q388.3 1521.07 386.356 1519.33 Q384.434 1517.6 381.332 1517.6 Q379.133 1517.6 376.68 1518.36 Q374.249 1519.13 371.471 1520.68 L371.471 1515.95 Q374.295 1514.82 376.749 1514.24 Q379.203 1513.66 381.24 1513.66 Q386.61 1513.66 389.805 1516.35 Q392.999 1519.03 392.999 1523.52 Q392.999 1525.65 392.189 1527.57 Q391.402 1529.47 389.295 1532.07 Q388.717 1532.74 385.615 1535.95 Q382.513 1539.15 376.865 1544.91 Z" fill="#000000" fill-rule="nonzero" fill-opacity="1" /><path clip-path="url(#clip290)" d="M412.999 1517.37 Q409.388 1517.37 407.559 1520.93 Q405.754 1524.47 405.754 1531.6 Q405.754 1538.71 407.559 1542.27 Q409.388 1545.82 412.999 1545.82 Q416.633 1545.82 418.439 1542.27 Q420.267 1538.71 420.267 1531.6 Q420.267 1524.47 418.439 1520.93 Q416.633 1517.37 412.999 1517.37 M412.999 1513.66 Q418.809 1513.66 421.865 1518.27 Q424.943 1522.85 424.943 1531.6 Q424.943 1540.33 421.865 1544.94 Q418.809 1549.52 412.999 1549.52 Q407.189 1549.52 404.11 1544.94 Q401.054 1540.33 401.054 1531.6 Q401.054 1522.85 404.11 1518.27 Q407.189 1513.66 412.999 1513.66 Z" fill="#000000" fill-rule="nonzero" fill-opacity="1" /><path clip-path="url(#clip290)" d="M620.81 1518.36 L609.005 1536.81 L620.81 1536.81 L620.81 1518.36 M619.583 1514.29 L625.463 1514.29 L625.463 1536.81 L630.393 1536.81 L630.393 1540.7 L625.463 1540.7 L625.463 1548.85 L620.81 1548.85 L620.81 1540.7 L605.208 1540.7 L605.208 1536.19 L619.583 1514.29 Z" fill="#000000" fill-rule="nonzero" fill-opacity="1" /><path clip-path="url(#clip290)" d="M648.125 1517.37 Q644.514 1517.37 642.685 1520.93 Q640.879 1524.47 640.879 1531.6 Q640.879 1538.71 642.685 1542.27 Q644.514 1545.82 648.125 1545.82 Q651.759 1545.82 653.565 1542.27 Q655.393 1538.71 655.393 1531.6 Q655.393 1524.47 653.565 1520.93 Q651.759 1517.37 648.125 1517.37 M648.125 1513.66 Q653.935 1513.66 656.99 1518.27 Q660.069 1522.85 660.069 1531.6 Q660.069 1540.33 656.99 1544.94 Q653.935 1549.52 648.125 1549.52 Q642.315 1549.52 639.236 1544.94 Q636.18 1540.33 636.18 1531.6 Q636.18 1522.85 639.236 1518.27 Q642.315 1513.66 648.125 1513.66 Z" fill="#000000" fill-rule="nonzero" fill-opacity="1" /><path clip-path="url(#clip290)" d="M852.591 1529.7 Q849.443 1529.7 847.591 1531.86 Q845.762 1534.01 845.762 1537.76 Q845.762 1541.49 847.591 1543.66 Q849.443 1545.82 852.591 1545.82 Q855.739 1545.82 857.568 1543.66 Q859.42 1541.49 859.42 1537.76 Q859.42 1534.01 857.568 1531.86 Q855.739 1529.7 852.591 1529.7 M861.873 1515.05 L861.873 1519.31 Q860.114 1518.48 858.309 1518.04 Q856.526 1517.6 854.767 1517.6 Q850.137 1517.6 847.684 1520.72 Q845.253 1523.85 844.906 1530.17 Q846.272 1528.15 848.332 1527.09 Q850.392 1526 852.869 1526 Q858.077 1526 861.086 1529.17 Q864.119 1532.32 864.119 1537.76 Q864.119 1543.08 860.971 1546.3 Q857.822 1549.52 852.591 1549.52 Q846.596 1549.52 843.424 1544.94 Q840.253 1540.33 840.253 1531.6 Q840.253 1523.41 844.142 1518.55 Q848.031 1513.66 854.582 1513.66 Q856.341 1513.66 858.123 1514.01 Q859.929 1514.36 861.873 1515.05 Z" fill="#000000" fill-rule="nonzero" fill-opacity="1" /><path clip-path="url(#clip290)" d="M882.174 1517.37 Q878.563 1517.37 876.734 1520.93 Q874.929 1524.47 874.929 1531.6 Q874.929 1538.71 876.734 1542.27 Q878.563 1545.82 882.174 1545.82 Q885.808 1545.82 887.614 1542.27 Q889.443 1538.71 889.443 1531.6 Q889.443 1524.47 887.614 1520.93 Q885.808 1517.37 882.174 1517.37 M882.174 1513.66 Q887.984 1513.66 891.04 1518.27 Q894.119 1522.85 894.119 1531.6 Q894.119 1540.33 891.04 1544.94 Q887.984 1549.52 882.174 1549.52 Q876.364 1549.52 873.285 1544.94 Q870.23 1540.33 870.23 1531.6 Q870.23 1522.85 873.285 1518.27 Q876.364 1513.66 882.174 1513.66 Z" fill="#000000" fill-rule="nonzero" fill-opacity="1" /><path clip-path="url(#clip290)" d="M1086.61 1532.44 Q1083.27 1532.44 1081.35 1534.22 Q1079.45 1536 1079.45 1539.13 Q1079.45 1542.25 1081.35 1544.03 Q1083.27 1545.82 1086.61 1545.82 Q1089.94 1545.82 1091.86 1544.03 Q1093.78 1542.23 1093.78 1539.13 Q1093.78 1536 1091.86 1534.22 Q1089.96 1532.44 1086.61 1532.44 M1081.93 1530.45 Q1078.92 1529.7 1077.23 1527.64 Q1075.56 1525.58 1075.56 1522.62 Q1075.56 1518.48 1078.5 1516.07 Q1081.47 1513.66 1086.61 1513.66 Q1091.77 1513.66 1094.71 1516.07 Q1097.65 1518.48 1097.65 1522.62 Q1097.65 1525.58 1095.96 1527.64 Q1094.29 1529.7 1091.3 1530.45 Q1094.68 1531.23 1096.56 1533.52 Q1098.46 1535.82 1098.46 1539.13 Q1098.46 1544.15 1095.38 1546.83 Q1092.32 1549.52 1086.61 1549.52 Q1080.89 1549.52 1077.81 1546.83 Q1074.75 1544.15 1074.75 1539.13 Q1074.75 1535.82 1076.65 1533.52 Q1078.55 1531.23 1081.93 1530.45 M1080.22 1523.06 Q1080.22 1525.75 1081.88 1527.25 Q1083.57 1528.76 1086.61 1528.76 Q1089.62 1528.76 1091.3 1527.25 Q1093.02 1525.75 1093.02 1523.06 Q1093.02 1520.38 1091.3 1518.87 Q1089.62 1517.37 1086.61 1517.37 Q1083.57 1517.37 1081.88 1518.87 Q1080.22 1520.38 1080.22 1523.06 Z" fill="#000000" fill-rule="nonzero" fill-opacity="1" /><path clip-path="url(#clip290)" d="M1116.77 1517.37 Q1113.16 1517.37 1111.33 1520.93 Q1109.52 1524.47 1109.52 1531.6 Q1109.52 1538.71 1111.33 1542.27 Q1113.16 1545.82 1116.77 1545.82 Q1120.4 1545.82 1122.21 1542.27 Q1124.04 1538.71 1124.04 1531.6 Q1124.04 1524.47 1122.21 1520.93 Q1120.4 1517.37 1116.77 1517.37 M1116.77 1513.66 Q1122.58 1513.66 1125.63 1518.27 Q1128.71 1522.85 1128.71 1531.6 Q1128.71 1540.33 1125.63 1544.94 Q1122.58 1549.52 1116.77 1549.52 Q1110.96 1549.52 1107.88 1544.94 Q1104.82 1540.33 1104.82 1531.6 Q1104.82 1522.85 1107.88 1518.27 Q1110.96 1513.66 1116.77 1513.66 Z" fill="#000000" fill-rule="nonzero" fill-opacity="1" /><polyline clip-path="url(#clip290)" style="stroke:#000000; stroke-linecap:round; stroke-linejoin:round; stroke-width:4; stroke-opacity:1; fill:none" points="147.478,1486.45 147.478,47.2441 "/>
<polyline clip-path="url(#clip290)" style="stroke:#000000; stroke-linecap:round; stroke-linejoin:round; stroke-width:4; stroke-opacity:1; fill:none" points="147.478,1244.01 166.376,1244.01 "/>
<polyline clip-path="url(#clip290)" style="stroke:#000000; stroke-linecap:round; stroke-linejoin:round; stroke-width:4; stroke-opacity:1; fill:none" points="147.478,908.046 166.376,908.046 "/>
<polyline clip-path="url(#clip290)" style="stroke:#000000; stroke-linecap:round; stroke-linejoin:round; stroke-width:4; stroke-opacity:1; fill:none" points="147.478,572.083 166.376,572.083 "/>
<polyline clip-path="url(#clip290)" style="stroke:#000000; stroke-linecap:round; stroke-linejoin:round; stroke-width:4; stroke-opacity:1; fill:none" points="147.478,236.121 166.376,236.121 "/>
<path clip-path="url(#clip290)" d="M51.3625 1244.46 L81.0383 1244.46 L81.0383 1248.39 L51.3625 1248.39 L51.3625 1244.46 Z" fill="#000000" fill-rule="nonzero" fill-opacity="1" /><path clip-path="url(#clip290)" d="M95.1586 1257.35 L111.478 1257.35 L111.478 1261.29 L89.5336 1261.29 L89.5336 1257.35 Q92.1956 1254.6 96.7789 1249.97 Q101.385 1245.32 102.566 1243.97 Q104.811 1241.45 105.691 1239.71 Q106.594 1237.96 106.594 1236.27 Q106.594 1233.51 104.649 1231.77 Q102.728 1230.04 99.6261 1230.04 Q97.4271 1230.04 94.9734 1230.8 Q92.5428 1231.57 89.7651 1233.12 L89.7651 1228.39 Q92.5891 1227.26 95.0428 1226.68 Q97.4965 1226.1 99.5335 1226.1 Q104.904 1226.1 108.098 1228.79 Q111.293 1231.47 111.293 1235.96 Q111.293 1238.09 110.483 1240.02 Q109.696 1241.91 107.589 1244.51 Q107.01 1245.18 103.909 1248.39 Q100.807 1251.59 95.1586 1257.35 Z" fill="#000000" fill-rule="nonzero" fill-opacity="1" /><path clip-path="url(#clip290)" d="M50.9921 908.497 L80.6679 908.497 L80.6679 912.432 L50.9921 912.432 L50.9921 908.497 Z" fill="#000000" fill-rule="nonzero" fill-opacity="1" /><path clip-path="url(#clip290)" d="M91.5706 921.391 L99.2095 921.391 L99.2095 895.025 L90.8993 896.692 L90.8993 892.432 L99.1632 890.766 L103.839 890.766 L103.839 921.391 L111.478 921.391 L111.478 925.326 L91.5706 925.326 L91.5706 921.391 Z" fill="#000000" fill-rule="nonzero" fill-opacity="1" /><path clip-path="url(#clip290)" d="M99.5335 557.882 Q95.9224 557.882 94.0937 561.447 Q92.2882 564.988 92.2882 572.118 Q92.2882 579.224 94.0937 582.789 Q95.9224 586.331 99.5335 586.331 Q103.168 586.331 104.973 582.789 Q106.802 579.224 106.802 572.118 Q106.802 564.988 104.973 561.447 Q103.168 557.882 99.5335 557.882 M99.5335 554.178 Q105.344 554.178 108.399 558.785 Q111.478 563.368 111.478 572.118 Q111.478 580.845 108.399 585.451 Q105.344 590.034 99.5335 590.034 Q93.7234 590.034 90.6447 585.451 Q87.5892 580.845 87.5892 572.118 Q87.5892 563.368 90.6447 558.785 Q93.7234 554.178 99.5335 554.178 Z" fill="#000000" fill-rule="nonzero" fill-opacity="1" /><path clip-path="url(#clip290)" d="M91.5706 249.465 L99.2095 249.465 L99.2095 223.1 L90.8993 224.766 L90.8993 220.507 L99.1632 218.841 L103.839 218.841 L103.839 249.465 L111.478 249.465 L111.478 253.401 L91.5706 253.401 L91.5706 249.465 Z" fill="#000000" fill-rule="nonzero" fill-opacity="1" /><polyline clip-path="url(#clip292)" style="stroke:#009af9; stroke-linecap:round; stroke-linejoin:round; stroke-width:4; stroke-opacity:1; fill:none" points="175.272,1200.07 186.999,1280.13 198.726,1310.52 210.454,1365.25 222.181,1349.71 233.909,1340.09 245.636,1265 257.363,1257.66 269.091,1221.87 280.818,1200.26 292.545,1141.46 304.273,1083.74 316,1022.02 327.727,962.291 339.455,945.292 351.182,850.281 362.909,816.084 374.637,799.227 386.364,740.044 398.092,754.835 409.819,707.69 421.546,690.159 433.274,641.096 445.001,554.239 456.728,416.77 468.456,363.603 480.183,327.489 491.91,204.964 503.638,136.857 515.365,160.707 527.092,103.72 538.82,87.9763 550.547,138 562.275,127.239 574.002,135.036 585.729,125.557 597.457,122.331 609.184,182.166 620.911,199.072 632.639,218.708 644.366,271.414 656.093,352.593 667.821,369.574 679.548,414.056 691.275,450.501 703.003,520.058 714.73,579.614 726.458,561.42 738.185,590.435 749.912,585.273 761.64,634.382 773.367,684.249 785.094,684.917 796.822,656.357 808.549,673.773 820.276,688.547 832.004,650.206 843.731,680.22 855.459,668.658 867.186,646.239 878.913,654.067 890.641,674.921 902.368,697.244 914.095,629.006 925.823,618.305 937.55,628.579 949.277,663.865 961.005,654.046 972.732,608.197 984.459,565.725 996.187,567.467 1007.91,610.32 1019.64,590.31 1031.37,580.217 1043.1,559.208 1054.82,646.493 1066.55,626.641 1078.28,580.872 1090.01,583.142 1101.73,621.817 "/>
<polyline clip-path="url(#clip292)" style="stroke:#e26f46; stroke-linecap:round; stroke-linejoin:round; stroke-width:4; stroke-opacity:1; fill:none" points="175.272,1166.49 186.999,1250.22 198.726,1278.02 210.454,1333.53 222.181,1320.25 233.909,1310.52 245.636,1237.27 257.363,1232.56 269.091,1197.15 280.818,1180.1 292.545,1123.88 304.273,1065.18 316,1007.49 327.727,952.116 339.455,933.619 351.182,841.115 362.909,812.707 374.637,791.28 386.364,734.467 398.092,744.834 409.819,695.503 421.546,675.507 433.274,630.608 445.001,542.117 456.728,407.425 468.456,351.074 480.183,317.322 491.91,198.476 503.638,131.52 515.365,161.811 527.092,109.221 538.82,91.8837 550.547,137.64 562.275,124.786 574.002,130.843 585.729,121.408 597.457,114.715 609.184,181.831 620.911,193.198 632.639,208.375 644.366,253.669 656.093,331.703 667.821,350.255 679.548,399.952 691.275,434.01 703.003,508.908 714.73,570.632 726.458,551.477 738.185,579.803 749.912,573.429 761.64,621.058 773.367,672.579 785.094,671.34 796.822,642.917 808.549,656.077 820.276,671.441 832.004,641.21 843.731,669.848 855.459,650.252 867.186,632.564 878.913,644.094 890.641,667.524 902.368,689.969 914.095,624.623 925.823,613.56 937.55,623.701 949.277,656.65 961.005,646.265 972.732,598.926 984.459,550.828 996.187,553.534 1007.91,598.09 1019.64,583.605 1031.37,570.588 1043.1,552.787 1054.82,646.528 1066.55,628.992 1078.28,585.45 1090.01,585.71 1101.73,622.372 "/>
<polyline clip-path="url(#clip292)" style="stroke:#3da44d; stroke-linecap:round; stroke-linejoin:round; stroke-width:4; stroke-opacity:1; fill:none" points="175.272,1340.55 186.999,1445.72 198.726,1427.87 210.454,1405.13 222.181,1379.4 233.909,1356.83 245.636,1311.53 257.363,1282.27 269.091,1283.58 280.818,1264.5 292.545,1212.24 304.273,1172.01 316,1081.74 327.727,988.224 339.455,963.545 351.182,924.166 362.909,903.006 374.637,908.788 386.364,801.555 398.092,887.149 409.819,859.055 421.546,815.063 433.274,801.375 445.001,726.044 456.728,586.085 468.456,533.71 480.183,537.215 491.91,342.806 503.638,246.076 515.365,278.048 527.092,186.023 538.82,205.252 550.547,225.053 562.275,202.01 574.002,174.677 585.729,128.888 597.457,180.514 609.184,197.277 620.911,228.21 632.639,261.653 644.366,303.626 656.093,350.318 667.821,355.769 679.548,344.896 691.275,385.357 703.003,441.073 714.73,442.606 726.458,418.15 738.185,438.241 749.912,390.073 761.64,477.266 773.367,484.685 785.094,471.342 796.822,431.157 808.549,493.17 820.276,531.406 832.004,518.181 843.731,542.627 855.459,529.901 867.186,529.015 878.913,546.756 890.641,490.988 902.368,490.465 914.095,451.311 925.823,469.529 937.55,529.038 949.277,589.547 961.005,583.929 972.732,430.274 984.459,367.885 996.187,429.516 1007.91,491.783 1019.64,420.641 1031.37,394.472 1043.1,398.384 1054.82,458.577 1066.55,435.154 1078.28,414.053 1090.01,436.474 1101.73,450.344 "/>
<path clip-path="url(#clip290)" d="M180.213 302.578 L640.083 302.578 L640.083 95.2176 L180.213 95.2176  Z" fill="#ffffff" fill-rule="evenodd" fill-opacity="1"/>
<polyline clip-path="url(#clip290)" style="stroke:#000000; stroke-linecap:round; stroke-linejoin:round; stroke-width:4; stroke-opacity:1; fill:none" points="180.213,302.578 640.083,302.578 640.083,95.2176 180.213,95.2176 180.213,302.578 "/>
<polyline clip-path="url(#clip290)" style="stroke:#009af9; stroke-linecap:round; stroke-linejoin:round; stroke-width:4; stroke-opacity:1; fill:none" points="191.125,147.058 256.594,147.058 "/>
<path clip-path="url(#clip290)" d="M267.506 129.778 L272.182 129.778 L272.182 144.384 L287.691 129.778 L293.71 129.778 L276.557 145.889 L294.937 164.338 L288.779 164.338 L272.182 147.694 L272.182 164.338 L267.506 164.338 L267.506 129.778 Z" fill="#000000" fill-rule="nonzero" fill-opacity="1" /><path clip-path="url(#clip290)" d="M309.358 151.305 Q304.196 151.305 302.205 152.486 Q300.214 153.666 300.214 156.514 Q300.214 158.782 301.696 160.125 Q303.2 161.444 305.77 161.444 Q309.311 161.444 311.441 158.944 Q313.594 156.421 313.594 152.254 L313.594 151.305 L309.358 151.305 M317.853 149.546 L317.853 164.338 L313.594 164.338 L313.594 160.402 Q312.136 162.763 309.96 163.898 Q307.784 165.009 304.636 165.009 Q300.654 165.009 298.293 162.787 Q295.955 160.541 295.955 156.791 Q295.955 152.416 298.872 150.194 Q301.811 147.972 307.622 147.972 L313.594 147.972 L313.594 147.555 Q313.594 144.615 311.649 143.018 Q309.728 141.398 306.233 141.398 Q304.011 141.398 301.904 141.93 Q299.798 142.463 297.853 143.527 L297.853 139.592 Q300.191 138.69 302.39 138.25 Q304.589 137.787 306.673 137.787 Q312.298 137.787 315.075 140.703 Q317.853 143.62 317.853 149.546 Z" fill="#000000" fill-rule="nonzero" fill-opacity="1" /><path clip-path="url(#clip290)" d="M326.626 128.319 L330.885 128.319 L330.885 164.338 L326.626 164.338 L326.626 128.319 Z" fill="#000000" fill-rule="nonzero" fill-opacity="1" /><path clip-path="url(#clip290)" d="M359.982 143.389 Q361.58 140.518 363.802 139.153 Q366.024 137.787 369.033 137.787 Q373.084 137.787 375.283 140.634 Q377.482 143.458 377.482 148.689 L377.482 164.338 L373.2 164.338 L373.2 148.828 Q373.2 145.102 371.881 143.296 Q370.561 141.49 367.853 141.49 Q364.543 141.49 362.621 143.69 Q360.7 145.889 360.7 149.685 L360.7 164.338 L356.418 164.338 L356.418 148.828 Q356.418 145.078 355.098 143.296 Q353.779 141.49 351.024 141.49 Q347.76 141.49 345.839 143.713 Q343.918 145.912 343.918 149.685 L343.918 164.338 L339.635 164.338 L339.635 138.412 L343.918 138.412 L343.918 142.44 Q345.376 140.055 347.413 138.921 Q349.45 137.787 352.251 137.787 Q355.075 137.787 357.043 139.222 Q359.033 140.657 359.982 143.389 Z" fill="#000000" fill-rule="nonzero" fill-opacity="1" /><path clip-path="url(#clip290)" d="M397.76 151.305 Q392.598 151.305 390.607 152.486 Q388.617 153.666 388.617 156.514 Q388.617 158.782 390.098 160.125 Q391.603 161.444 394.172 161.444 Q397.714 161.444 399.843 158.944 Q401.996 156.421 401.996 152.254 L401.996 151.305 L397.76 151.305 M406.255 149.546 L406.255 164.338 L401.996 164.338 L401.996 160.402 Q400.538 162.763 398.362 163.898 Q396.186 165.009 393.038 165.009 Q389.056 165.009 386.695 162.787 Q384.357 160.541 384.357 156.791 Q384.357 152.416 387.274 150.194 Q390.214 147.972 396.024 147.972 L401.996 147.972 L401.996 147.555 Q401.996 144.615 400.052 143.018 Q398.13 141.398 394.635 141.398 Q392.413 141.398 390.306 141.93 Q388.2 142.463 386.255 143.527 L386.255 139.592 Q388.593 138.69 390.792 138.25 Q392.992 137.787 395.075 137.787 Q400.7 137.787 403.478 140.703 Q406.255 143.62 406.255 149.546 Z" fill="#000000" fill-rule="nonzero" fill-opacity="1" /><path clip-path="url(#clip290)" d="M436.579 148.689 L436.579 164.338 L432.32 164.338 L432.32 148.828 Q432.32 145.148 430.885 143.319 Q429.45 141.49 426.579 141.49 Q423.13 141.49 421.14 143.69 Q419.149 145.889 419.149 149.685 L419.149 164.338 L414.866 164.338 L414.866 138.412 L419.149 138.412 L419.149 142.44 Q420.677 140.102 422.737 138.944 Q424.82 137.787 427.528 137.787 Q431.996 137.787 434.288 140.565 Q436.579 143.319 436.579 148.689 Z" fill="#000000" fill-rule="nonzero" fill-opacity="1" /><path clip-path="url(#clip290)" d="M476.672 139.176 L476.672 143.203 Q474.866 142.277 472.922 141.815 Q470.977 141.352 468.894 141.352 Q465.723 141.352 464.125 142.324 Q462.551 143.296 462.551 145.24 Q462.551 146.722 463.686 147.578 Q464.82 148.412 468.246 149.176 L469.704 149.5 Q474.241 150.472 476.139 152.254 Q478.061 154.014 478.061 157.185 Q478.061 160.796 475.19 162.902 Q472.343 165.009 467.343 165.009 Q465.26 165.009 462.991 164.592 Q460.746 164.199 458.246 163.388 L458.246 158.99 Q460.607 160.217 462.899 160.842 Q465.19 161.444 467.436 161.444 Q470.445 161.444 472.065 160.426 Q473.686 159.384 473.686 157.509 Q473.686 155.773 472.505 154.847 Q471.348 153.921 467.389 153.064 L465.908 152.717 Q461.95 151.884 460.19 150.171 Q458.431 148.435 458.431 145.426 Q458.431 141.768 461.024 139.778 Q463.616 137.787 468.385 137.787 Q470.746 137.787 472.829 138.134 Q474.912 138.481 476.672 139.176 Z" fill="#000000" fill-rule="nonzero" fill-opacity="1" /><path clip-path="url(#clip290)" d="M505.028 143.389 Q506.625 140.518 508.847 139.153 Q511.07 137.787 514.079 137.787 Q518.13 137.787 520.329 140.634 Q522.528 143.458 522.528 148.689 L522.528 164.338 L518.246 164.338 L518.246 148.828 Q518.246 145.102 516.926 143.296 Q515.607 141.49 512.898 141.49 Q509.588 141.49 507.667 143.69 Q505.746 145.889 505.746 149.685 L505.746 164.338 L501.463 164.338 L501.463 148.828 Q501.463 145.078 500.144 143.296 Q498.824 141.49 496.07 141.49 Q492.806 141.49 490.885 143.713 Q488.963 145.912 488.963 149.685 L488.963 164.338 L484.681 164.338 L484.681 138.412 L488.963 138.412 L488.963 142.44 Q490.422 140.055 492.459 138.921 Q494.496 137.787 497.297 137.787 Q500.121 137.787 502.088 139.222 Q504.079 140.657 505.028 143.389 Z" fill="#000000" fill-rule="nonzero" fill-opacity="1" /><path clip-path="url(#clip290)" d="M541.069 141.398 Q537.644 141.398 535.653 144.083 Q533.662 146.745 533.662 151.398 Q533.662 156.051 535.63 158.736 Q537.62 161.398 541.069 161.398 Q544.472 161.398 546.463 158.713 Q548.454 156.027 548.454 151.398 Q548.454 146.791 546.463 144.106 Q544.472 141.398 541.069 141.398 M541.069 137.787 Q546.625 137.787 549.796 141.398 Q552.968 145.009 552.968 151.398 Q552.968 157.764 549.796 161.398 Q546.625 165.009 541.069 165.009 Q535.491 165.009 532.32 161.398 Q529.171 157.764 529.171 151.398 Q529.171 145.009 532.32 141.398 Q535.491 137.787 541.069 137.787 Z" fill="#000000" fill-rule="nonzero" fill-opacity="1" /><path clip-path="url(#clip290)" d="M570.074 141.398 Q566.648 141.398 564.657 144.083 Q562.667 146.745 562.667 151.398 Q562.667 156.051 564.634 158.736 Q566.625 161.398 570.074 161.398 Q573.477 161.398 575.467 158.713 Q577.458 156.027 577.458 151.398 Q577.458 146.791 575.467 144.106 Q573.477 141.398 570.074 141.398 M570.074 137.787 Q575.629 137.787 578.801 141.398 Q581.972 145.009 581.972 151.398 Q581.972 157.764 578.801 161.398 Q575.629 165.009 570.074 165.009 Q564.495 165.009 561.324 161.398 Q558.176 157.764 558.176 151.398 Q558.176 145.009 561.324 141.398 Q564.495 137.787 570.074 137.787 Z" fill="#000000" fill-rule="nonzero" fill-opacity="1" /><path clip-path="url(#clip290)" d="M593.245 131.051 L593.245 138.412 L602.018 138.412 L602.018 141.722 L593.245 141.722 L593.245 155.796 Q593.245 158.967 594.102 159.87 Q594.981 160.773 597.643 160.773 L602.018 160.773 L602.018 164.338 L597.643 164.338 Q592.713 164.338 590.838 162.509 Q588.963 160.657 588.963 155.796 L588.963 141.722 L585.838 141.722 L585.838 138.412 L588.963 138.412 L588.963 131.051 L593.245 131.051 Z" fill="#000000" fill-rule="nonzero" fill-opacity="1" /><path clip-path="url(#clip290)" d="M629.171 148.689 L629.171 164.338 L624.912 164.338 L624.912 148.828 Q624.912 145.148 623.476 143.319 Q622.041 141.49 619.171 141.49 Q615.722 141.49 613.731 143.69 Q611.74 145.889 611.74 149.685 L611.74 164.338 L607.458 164.338 L607.458 128.319 L611.74 128.319 L611.74 142.44 Q613.268 140.102 615.328 138.944 Q617.412 137.787 620.12 137.787 Q624.588 137.787 626.879 140.565 Q629.171 143.319 629.171 148.689 Z" fill="#000000" fill-rule="nonzero" fill-opacity="1" /><polyline clip-path="url(#clip290)" style="stroke:#e26f46; stroke-linecap:round; stroke-linejoin:round; stroke-width:4; stroke-opacity:1; fill:none" points="191.125,198.898 256.594,198.898 "/>
<path clip-path="url(#clip290)" d="M271.789 212.289 L271.789 226.039 L267.506 226.039 L267.506 190.252 L271.789 190.252 L271.789 194.187 Q273.131 191.872 275.168 190.761 Q277.228 189.627 280.075 189.627 Q284.798 189.627 287.737 193.377 Q290.7 197.127 290.7 203.238 Q290.7 209.349 287.737 213.099 Q284.798 216.849 280.075 216.849 Q277.228 216.849 275.168 215.738 Q273.131 214.603 271.789 212.289 M286.279 203.238 Q286.279 198.539 284.335 195.877 Q282.413 193.192 279.034 193.192 Q275.654 193.192 273.71 195.877 Q271.789 198.539 271.789 203.238 Q271.789 207.937 273.71 210.622 Q275.654 213.284 279.034 213.284 Q282.413 213.284 284.335 210.622 Q286.279 207.937 286.279 203.238 Z" fill="#000000" fill-rule="nonzero" fill-opacity="1" /><path clip-path="url(#clip290)" d="M310.886 180.159 L310.886 183.701 L306.811 183.701 Q304.52 183.701 303.617 184.627 Q302.737 185.553 302.737 187.96 L302.737 190.252 L309.751 190.252 L309.751 193.562 L302.737 193.562 L302.737 216.178 L298.455 216.178 L298.455 193.562 L294.381 193.562 L294.381 190.252 L298.455 190.252 L298.455 188.446 Q298.455 184.118 300.469 182.15 Q302.483 180.159 306.858 180.159 L310.886 180.159 Z" fill="#000000" fill-rule="nonzero" fill-opacity="1" /><path clip-path="url(#clip290)" d="M346.047 191.016 L346.047 195.043 Q344.242 194.117 342.297 193.655 Q340.353 193.192 338.27 193.192 Q335.098 193.192 333.501 194.164 Q331.927 195.136 331.927 197.08 Q331.927 198.562 333.061 199.418 Q334.196 200.252 337.621 201.016 L339.08 201.34 Q343.617 202.312 345.515 204.094 Q347.436 205.854 347.436 209.025 Q347.436 212.636 344.566 214.742 Q341.719 216.849 336.719 216.849 Q334.635 216.849 332.367 216.432 Q330.122 216.039 327.622 215.228 L327.622 210.83 Q329.983 212.057 332.274 212.682 Q334.566 213.284 336.811 213.284 Q339.821 213.284 341.441 212.266 Q343.061 211.224 343.061 209.349 Q343.061 207.613 341.881 206.687 Q340.723 205.761 336.765 204.904 L335.284 204.557 Q331.325 203.724 329.566 202.011 Q327.807 200.275 327.807 197.266 Q327.807 193.608 330.399 191.618 Q332.992 189.627 337.76 189.627 Q340.121 189.627 342.205 189.974 Q344.288 190.321 346.047 191.016 Z" fill="#000000" fill-rule="nonzero" fill-opacity="1" /><path clip-path="url(#clip290)" d="M374.404 195.229 Q376.001 192.358 378.223 190.993 Q380.445 189.627 383.455 189.627 Q387.505 189.627 389.705 192.474 Q391.904 195.298 391.904 200.529 L391.904 216.178 L387.621 216.178 L387.621 200.668 Q387.621 196.942 386.302 195.136 Q384.982 193.33 382.274 193.33 Q378.964 193.33 377.043 195.53 Q375.121 197.729 375.121 201.525 L375.121 216.178 L370.839 216.178 L370.839 200.668 Q370.839 196.918 369.519 195.136 Q368.2 193.33 365.445 193.33 Q362.182 193.33 360.26 195.553 Q358.339 197.752 358.339 201.525 L358.339 216.178 L354.057 216.178 L354.057 190.252 L358.339 190.252 L358.339 194.28 Q359.797 191.895 361.834 190.761 Q363.871 189.627 366.672 189.627 Q369.496 189.627 371.464 191.062 Q373.455 192.497 374.404 195.229 Z" fill="#000000" fill-rule="nonzero" fill-opacity="1" /><path clip-path="url(#clip290)" d="M410.445 193.238 Q407.019 193.238 405.029 195.923 Q403.038 198.585 403.038 203.238 Q403.038 207.891 405.005 210.576 Q406.996 213.238 410.445 213.238 Q413.848 213.238 415.839 210.553 Q417.829 207.867 417.829 203.238 Q417.829 198.631 415.839 195.946 Q413.848 193.238 410.445 193.238 M410.445 189.627 Q416.001 189.627 419.172 193.238 Q422.343 196.849 422.343 203.238 Q422.343 209.604 419.172 213.238 Q416.001 216.849 410.445 216.849 Q404.866 216.849 401.695 213.238 Q398.547 209.604 398.547 203.238 Q398.547 196.849 401.695 193.238 Q404.866 189.627 410.445 189.627 Z" fill="#000000" fill-rule="nonzero" fill-opacity="1" /><path clip-path="url(#clip290)" d="M439.45 193.238 Q436.024 193.238 434.033 195.923 Q432.042 198.585 432.042 203.238 Q432.042 207.891 434.01 210.576 Q436.001 213.238 439.45 213.238 Q442.852 213.238 444.843 210.553 Q446.834 207.867 446.834 203.238 Q446.834 198.631 444.843 195.946 Q442.852 193.238 439.45 193.238 M439.45 189.627 Q445.005 189.627 448.176 193.238 Q451.348 196.849 451.348 203.238 Q451.348 209.604 448.176 213.238 Q445.005 216.849 439.45 216.849 Q433.871 216.849 430.7 213.238 Q427.552 209.604 427.552 203.238 Q427.552 196.849 430.7 193.238 Q433.871 189.627 439.45 189.627 Z" fill="#000000" fill-rule="nonzero" fill-opacity="1" /><path clip-path="url(#clip290)" d="M462.621 182.891 L462.621 190.252 L471.394 190.252 L471.394 193.562 L462.621 193.562 L462.621 207.636 Q462.621 210.807 463.477 211.71 Q464.357 212.613 467.019 212.613 L471.394 212.613 L471.394 216.178 L467.019 216.178 Q462.088 216.178 460.213 214.349 Q458.338 212.497 458.338 207.636 L458.338 193.562 L455.213 193.562 L455.213 190.252 L458.338 190.252 L458.338 182.891 L462.621 182.891 Z" fill="#000000" fill-rule="nonzero" fill-opacity="1" /><path clip-path="url(#clip290)" d="M498.547 200.529 L498.547 216.178 L494.287 216.178 L494.287 200.668 Q494.287 196.988 492.852 195.159 Q491.417 193.33 488.547 193.33 Q485.098 193.33 483.107 195.53 Q481.116 197.729 481.116 201.525 L481.116 216.178 L476.834 216.178 L476.834 180.159 L481.116 180.159 L481.116 194.28 Q482.644 191.942 484.704 190.784 Q486.787 189.627 489.496 189.627 Q493.963 189.627 496.255 192.405 Q498.547 195.159 498.547 200.529 Z" fill="#000000" fill-rule="nonzero" fill-opacity="1" /><polyline clip-path="url(#clip290)" style="stroke:#3da44d; stroke-linecap:round; stroke-linejoin:round; stroke-width:4; stroke-opacity:1; fill:none" points="191.125,250.738 256.594,250.738 "/>
<path clip-path="url(#clip290)" d="M274.913 234.731 L274.913 242.092 L283.687 242.092 L283.687 245.402 L274.913 245.402 L274.913 259.476 Q274.913 262.647 275.77 263.55 Q276.65 264.453 279.312 264.453 L283.687 264.453 L283.687 268.018 L279.312 268.018 Q274.381 268.018 272.506 266.189 Q270.631 264.337 270.631 259.476 L270.631 245.402 L267.506 245.402 L267.506 242.092 L270.631 242.092 L270.631 234.731 L274.913 234.731 Z" fill="#000000" fill-rule="nonzero" fill-opacity="1" /><path clip-path="url(#clip290)" d="M304.311 246.073 Q303.594 245.657 302.737 245.471 Q301.904 245.263 300.886 245.263 Q297.274 245.263 295.33 247.624 Q293.409 249.962 293.409 254.36 L293.409 268.018 L289.126 268.018 L289.126 242.092 L293.409 242.092 L293.409 246.12 Q294.751 243.758 296.904 242.624 Q299.057 241.467 302.136 241.467 Q302.575 241.467 303.108 241.536 Q303.64 241.583 304.288 241.698 L304.311 246.073 Z" fill="#000000" fill-rule="nonzero" fill-opacity="1" /><path clip-path="url(#clip290)" d="M308.339 257.786 L308.339 242.092 L312.598 242.092 L312.598 257.624 Q312.598 261.305 314.034 263.156 Q315.469 264.985 318.339 264.985 Q321.788 264.985 323.779 262.786 Q325.793 260.587 325.793 256.791 L325.793 242.092 L330.052 242.092 L330.052 268.018 L325.793 268.018 L325.793 264.036 Q324.242 266.397 322.182 267.555 Q320.145 268.689 317.436 268.689 Q312.969 268.689 310.654 265.911 Q308.339 263.133 308.339 257.786 M319.057 241.467 L319.057 241.467 Z" fill="#000000" fill-rule="nonzero" fill-opacity="1" /><path clip-path="url(#clip290)" d="M361.001 253.99 L361.001 256.073 L341.418 256.073 Q341.696 260.471 344.057 262.786 Q346.441 265.078 350.677 265.078 Q353.131 265.078 355.422 264.476 Q357.737 263.874 360.006 262.67 L360.006 266.698 Q357.714 267.67 355.307 268.18 Q352.899 268.689 350.422 268.689 Q344.219 268.689 340.584 265.078 Q336.973 261.467 336.973 255.309 Q336.973 248.944 340.399 245.217 Q343.848 241.467 349.682 241.467 Q354.913 241.467 357.945 244.846 Q361.001 248.203 361.001 253.99 M356.742 252.74 Q356.695 249.245 354.774 247.161 Q352.876 245.078 349.728 245.078 Q346.163 245.078 344.01 247.092 Q341.881 249.106 341.557 252.763 L356.742 252.74 Z" fill="#000000" fill-rule="nonzero" fill-opacity="1" /><path clip-path="url(#clip290)" d="M1370.71 1486.45 L2352.76 1486.45 L2352.76 47.2441 L1370.71 47.2441  Z" fill="#ffffff" fill-rule="evenodd" fill-opacity="1"/>
<defs>
  <clipPath id="clip293">
    <rect x="1370" y="47" width="983" height="1440"/>
  </clipPath>
</defs>
<polyline clip-path="url(#clip293)" style="stroke:#000000; stroke-linecap:round; stroke-linejoin:round; stroke-width:2; stroke-opacity:0.1; fill:none" points="1386.77,1486.45 1386.77,47.2441 "/>
<polyline clip-path="url(#clip293)" style="stroke:#000000; stroke-linecap:round; stroke-linejoin:round; stroke-width:2; stroke-opacity:0.1; fill:none" points="1621.32,1486.45 1621.32,47.2441 "/>
<polyline clip-path="url(#clip293)" style="stroke:#000000; stroke-linecap:round; stroke-linejoin:round; stroke-width:2; stroke-opacity:0.1; fill:none" points="1855.87,1486.45 1855.87,47.2441 "/>
<polyline clip-path="url(#clip293)" style="stroke:#000000; stroke-linecap:round; stroke-linejoin:round; stroke-width:2; stroke-opacity:0.1; fill:none" points="2090.41,1486.45 2090.41,47.2441 "/>
<polyline clip-path="url(#clip293)" style="stroke:#000000; stroke-linecap:round; stroke-linejoin:round; stroke-width:2; stroke-opacity:0.1; fill:none" points="2324.96,1486.45 2324.96,47.2441 "/>
<polyline clip-path="url(#clip293)" style="stroke:#000000; stroke-linecap:round; stroke-linejoin:round; stroke-width:2; stroke-opacity:0.1; fill:none" points="1370.71,1432.57 2352.76,1432.57 "/>
<polyline clip-path="url(#clip293)" style="stroke:#000000; stroke-linecap:round; stroke-linejoin:round; stroke-width:2; stroke-opacity:0.1; fill:none" points="1370.71,1211.78 2352.76,1211.78 "/>
<polyline clip-path="url(#clip293)" style="stroke:#000000; stroke-linecap:round; stroke-linejoin:round; stroke-width:2; stroke-opacity:0.1; fill:none" points="1370.71,990.997 2352.76,990.997 "/>
<polyline clip-path="url(#clip293)" style="stroke:#000000; stroke-linecap:round; stroke-linejoin:round; stroke-width:2; stroke-opacity:0.1; fill:none" points="1370.71,770.213 2352.76,770.213 "/>
<polyline clip-path="url(#clip293)" style="stroke:#000000; stroke-linecap:round; stroke-linejoin:round; stroke-width:2; stroke-opacity:0.1; fill:none" points="1370.71,549.428 2352.76,549.428 "/>
<polyline clip-path="url(#clip293)" style="stroke:#000000; stroke-linecap:round; stroke-linejoin:round; stroke-width:2; stroke-opacity:0.1; fill:none" points="1370.71,328.644 2352.76,328.644 "/>
<polyline clip-path="url(#clip293)" style="stroke:#000000; stroke-linecap:round; stroke-linejoin:round; stroke-width:2; stroke-opacity:0.1; fill:none" points="1370.71,107.86 2352.76,107.86 "/>
<polyline clip-path="url(#clip290)" style="stroke:#000000; stroke-linecap:round; stroke-linejoin:round; stroke-width:4; stroke-opacity:1; fill:none" points="1370.71,1486.45 2352.76,1486.45 "/>
<polyline clip-path="url(#clip290)" style="stroke:#000000; stroke-linecap:round; stroke-linejoin:round; stroke-width:4; stroke-opacity:1; fill:none" points="1386.77,1486.45 1386.77,1467.55 "/>
<polyline clip-path="url(#clip290)" style="stroke:#000000; stroke-linecap:round; stroke-linejoin:round; stroke-width:4; stroke-opacity:1; fill:none" points="1621.32,1486.45 1621.32,1467.55 "/>
<polyline clip-path="url(#clip290)" style="stroke:#000000; stroke-linecap:round; stroke-linejoin:round; stroke-width:4; stroke-opacity:1; fill:none" points="1855.87,1486.45 1855.87,1467.55 "/>
<polyline clip-path="url(#clip290)" style="stroke:#000000; stroke-linecap:round; stroke-linejoin:round; stroke-width:4; stroke-opacity:1; fill:none" points="2090.41,1486.45 2090.41,1467.55 "/>
<polyline clip-path="url(#clip290)" style="stroke:#000000; stroke-linecap:round; stroke-linejoin:round; stroke-width:4; stroke-opacity:1; fill:none" points="2324.96,1486.45 2324.96,1467.55 "/>
<path clip-path="url(#clip290)" d="M1386.77 1517.37 Q1383.16 1517.37 1381.33 1520.93 Q1379.53 1524.47 1379.53 1531.6 Q1379.53 1538.71 1381.33 1542.27 Q1383.16 1545.82 1386.77 1545.82 Q1390.41 1545.82 1392.21 1542.27 Q1394.04 1538.71 1394.04 1531.6 Q1394.04 1524.47 1392.21 1520.93 Q1390.41 1517.37 1386.77 1517.37 M1386.77 1513.66 Q1392.58 1513.66 1395.64 1518.27 Q1398.72 1522.85 1398.72 1531.6 Q1398.72 1540.33 1395.64 1544.94 Q1392.58 1549.52 1386.77 1549.52 Q1380.96 1549.52 1377.88 1544.94 Q1374.83 1540.33 1374.83 1531.6 Q1374.83 1522.85 1377.88 1518.27 Q1380.96 1513.66 1386.77 1513.66 Z" fill="#000000" fill-rule="nonzero" fill-opacity="1" /><path clip-path="url(#clip290)" d="M1600.09 1544.91 L1616.41 1544.91 L1616.41 1548.85 L1594.47 1548.85 L1594.47 1544.91 Q1597.13 1542.16 1601.71 1537.53 Q1606.32 1532.88 1607.5 1531.53 Q1609.75 1529.01 1610.63 1527.27 Q1611.53 1525.51 1611.53 1523.82 Q1611.53 1521.07 1609.58 1519.33 Q1607.66 1517.6 1604.56 1517.6 Q1602.36 1517.6 1599.91 1518.36 Q1597.48 1519.13 1594.7 1520.68 L1594.7 1515.95 Q1597.52 1514.82 1599.98 1514.24 Q1602.43 1513.66 1604.47 1513.66 Q1609.84 1513.66 1613.03 1516.35 Q1616.23 1519.03 1616.23 1523.52 Q1616.23 1525.65 1615.42 1527.57 Q1614.63 1529.47 1612.52 1532.07 Q1611.95 1532.74 1608.84 1535.95 Q1605.74 1539.15 1600.09 1544.91 Z" fill="#000000" fill-rule="nonzero" fill-opacity="1" /><path clip-path="url(#clip290)" d="M1636.23 1517.37 Q1632.62 1517.37 1630.79 1520.93 Q1628.98 1524.47 1628.98 1531.6 Q1628.98 1538.71 1630.79 1542.27 Q1632.62 1545.82 1636.23 1545.82 Q1639.86 1545.82 1641.67 1542.27 Q1643.5 1538.71 1643.5 1531.6 Q1643.5 1524.47 1641.67 1520.93 Q1639.86 1517.37 1636.23 1517.37 M1636.23 1513.66 Q1642.04 1513.66 1645.09 1518.27 Q1648.17 1522.85 1648.17 1531.6 Q1648.17 1540.33 1645.09 1544.94 Q1642.04 1549.52 1636.23 1549.52 Q1630.42 1549.52 1627.34 1544.94 Q1624.28 1540.33 1624.28 1531.6 Q1624.28 1522.85 1627.34 1518.27 Q1630.42 1513.66 1636.23 1513.66 Z" fill="#000000" fill-rule="nonzero" fill-opacity="1" /><path clip-path="url(#clip290)" d="M1844.04 1518.36 L1832.23 1536.81 L1844.04 1536.81 L1844.04 1518.36 M1842.81 1514.29 L1848.69 1514.29 L1848.69 1536.81 L1853.62 1536.81 L1853.62 1540.7 L1848.69 1540.7 L1848.69 1548.85 L1844.04 1548.85 L1844.04 1540.7 L1828.44 1540.7 L1828.44 1536.19 L1842.81 1514.29 Z" fill="#000000" fill-rule="nonzero" fill-opacity="1" /><path clip-path="url(#clip290)" d="M1871.35 1517.37 Q1867.74 1517.37 1865.91 1520.93 Q1864.11 1524.47 1864.11 1531.6 Q1864.11 1538.71 1865.91 1542.27 Q1867.74 1545.82 1871.35 1545.82 Q1874.99 1545.82 1876.79 1542.27 Q1878.62 1538.71 1878.62 1531.6 Q1878.62 1524.47 1876.79 1520.93 Q1874.99 1517.37 1871.35 1517.37 M1871.35 1513.66 Q1877.16 1513.66 1880.22 1518.27 Q1883.3 1522.85 1883.3 1531.6 Q1883.3 1540.33 1880.22 1544.94 Q1877.16 1549.52 1871.35 1549.52 Q1865.54 1549.52 1862.46 1544.94 Q1859.41 1540.33 1859.41 1531.6 Q1859.41 1522.85 1862.46 1518.27 Q1865.54 1513.66 1871.35 1513.66 Z" fill="#000000" fill-rule="nonzero" fill-opacity="1" /><path clip-path="url(#clip290)" d="M2075.82 1529.7 Q2072.67 1529.7 2070.82 1531.86 Q2068.99 1534.01 2068.99 1537.76 Q2068.99 1541.49 2070.82 1543.66 Q2072.67 1545.82 2075.82 1545.82 Q2078.97 1545.82 2080.8 1543.66 Q2082.65 1541.49 2082.65 1537.76 Q2082.65 1534.01 2080.8 1531.86 Q2078.97 1529.7 2075.82 1529.7 M2085.1 1515.05 L2085.1 1519.31 Q2083.34 1518.48 2081.54 1518.04 Q2079.76 1517.6 2078 1517.6 Q2073.37 1517.6 2070.91 1520.72 Q2068.48 1523.85 2068.13 1530.17 Q2069.5 1528.15 2071.56 1527.09 Q2073.62 1526 2076.1 1526 Q2081.31 1526 2084.32 1529.17 Q2087.35 1532.32 2087.35 1537.76 Q2087.35 1543.08 2084.2 1546.3 Q2081.05 1549.52 2075.82 1549.52 Q2069.82 1549.52 2066.65 1544.94 Q2063.48 1540.33 2063.48 1531.6 Q2063.48 1523.41 2067.37 1518.55 Q2071.26 1513.66 2077.81 1513.66 Q2079.57 1513.66 2081.35 1514.01 Q2083.16 1514.36 2085.1 1515.05 Z" fill="#000000" fill-rule="nonzero" fill-opacity="1" /><path clip-path="url(#clip290)" d="M2105.4 1517.37 Q2101.79 1517.37 2099.96 1520.93 Q2098.16 1524.47 2098.16 1531.6 Q2098.16 1538.71 2099.96 1542.27 Q2101.79 1545.82 2105.4 1545.82 Q2109.04 1545.82 2110.84 1542.27 Q2112.67 1538.71 2112.67 1531.6 Q2112.67 1524.47 2110.84 1520.93 Q2109.04 1517.37 2105.4 1517.37 M2105.4 1513.66 Q2111.21 1513.66 2114.27 1518.27 Q2117.35 1522.85 2117.35 1531.6 Q2117.35 1540.33 2114.27 1544.94 Q2111.21 1549.52 2105.4 1549.52 Q2099.59 1549.52 2096.51 1544.94 Q2093.46 1540.33 2093.46 1531.6 Q2093.46 1522.85 2096.51 1518.27 Q2099.59 1513.66 2105.4 1513.66 Z" fill="#000000" fill-rule="nonzero" fill-opacity="1" /><path clip-path="url(#clip290)" d="M2309.83 1532.44 Q2306.5 1532.44 2304.58 1534.22 Q2302.68 1536 2302.68 1539.13 Q2302.68 1542.25 2304.58 1544.03 Q2306.5 1545.82 2309.83 1545.82 Q2313.17 1545.82 2315.09 1544.03 Q2317.01 1542.23 2317.01 1539.13 Q2317.01 1536 2315.09 1534.22 Q2313.19 1532.44 2309.83 1532.44 M2305.16 1530.45 Q2302.15 1529.7 2300.46 1527.64 Q2298.79 1525.58 2298.79 1522.62 Q2298.79 1518.48 2301.73 1516.07 Q2304.7 1513.66 2309.83 1513.66 Q2315 1513.66 2317.94 1516.07 Q2320.88 1518.48 2320.88 1522.62 Q2320.88 1525.58 2319.19 1527.64 Q2317.52 1529.7 2314.53 1530.45 Q2317.91 1531.23 2319.79 1533.52 Q2321.69 1535.82 2321.69 1539.13 Q2321.69 1544.15 2318.61 1546.83 Q2315.55 1549.52 2309.83 1549.52 Q2304.12 1549.52 2301.04 1546.83 Q2297.98 1544.15 2297.98 1539.13 Q2297.98 1535.82 2299.88 1533.52 Q2301.78 1531.23 2305.16 1530.45 M2303.45 1523.06 Q2303.45 1525.75 2305.11 1527.25 Q2306.8 1528.76 2309.83 1528.76 Q2312.84 1528.76 2314.53 1527.25 Q2316.25 1525.75 2316.25 1523.06 Q2316.25 1520.38 2314.53 1518.87 Q2312.84 1517.37 2309.83 1517.37 Q2306.8 1517.37 2305.11 1518.87 Q2303.45 1520.38 2303.45 1523.06 Z" fill="#000000" fill-rule="nonzero" fill-opacity="1" /><path clip-path="url(#clip290)" d="M2340 1517.37 Q2336.39 1517.37 2334.56 1520.93 Q2332.75 1524.47 2332.75 1531.6 Q2332.75 1538.71 2334.56 1542.27 Q2336.39 1545.82 2340 1545.82 Q2343.63 1545.82 2345.44 1542.27 Q2347.27 1538.71 2347.27 1531.6 Q2347.27 1524.47 2345.44 1520.93 Q2343.63 1517.37 2340 1517.37 M2340 1513.66 Q2345.81 1513.66 2348.86 1518.27 Q2351.94 1522.85 2351.94 1531.6 Q2351.94 1540.33 2348.86 1544.94 Q2345.81 1549.52 2340 1549.52 Q2334.19 1549.52 2331.11 1544.94 Q2328.05 1540.33 2328.05 1531.6 Q2328.05 1522.85 2331.11 1518.27 Q2334.19 1513.66 2340 1513.66 Z" fill="#000000" fill-rule="nonzero" fill-opacity="1" /><polyline clip-path="url(#clip290)" style="stroke:#000000; stroke-linecap:round; stroke-linejoin:round; stroke-width:4; stroke-opacity:1; fill:none" points="1370.71,1486.45 1370.71,47.2441 "/>
<polyline clip-path="url(#clip290)" style="stroke:#000000; stroke-linecap:round; stroke-linejoin:round; stroke-width:4; stroke-opacity:1; fill:none" points="1370.71,1432.57 1389.6,1432.57 "/>
<polyline clip-path="url(#clip290)" style="stroke:#000000; stroke-linecap:round; stroke-linejoin:round; stroke-width:4; stroke-opacity:1; fill:none" points="1370.71,1211.78 1389.6,1211.78 "/>
<polyline clip-path="url(#clip290)" style="stroke:#000000; stroke-linecap:round; stroke-linejoin:round; stroke-width:4; stroke-opacity:1; fill:none" points="1370.71,990.997 1389.6,990.997 "/>
<polyline clip-path="url(#clip290)" style="stroke:#000000; stroke-linecap:round; stroke-linejoin:round; stroke-width:4; stroke-opacity:1; fill:none" points="1370.71,770.213 1389.6,770.213 "/>
<polyline clip-path="url(#clip290)" style="stroke:#000000; stroke-linecap:round; stroke-linejoin:round; stroke-width:4; stroke-opacity:1; fill:none" points="1370.71,549.428 1389.6,549.428 "/>
<polyline clip-path="url(#clip290)" style="stroke:#000000; stroke-linecap:round; stroke-linejoin:round; stroke-width:4; stroke-opacity:1; fill:none" points="1370.71,328.644 1389.6,328.644 "/>
<polyline clip-path="url(#clip290)" style="stroke:#000000; stroke-linecap:round; stroke-linejoin:round; stroke-width:4; stroke-opacity:1; fill:none" points="1370.71,107.86 1389.6,107.86 "/>
<path clip-path="url(#clip290)" d="M1228.76 1433.02 L1258.43 1433.02 L1258.43 1436.95 L1228.76 1436.95 L1228.76 1433.02 Z" fill="#000000" fill-rule="nonzero" fill-opacity="1" /><path clip-path="url(#clip290)" d="M1269.34 1445.91 L1276.98 1445.91 L1276.98 1419.54 L1268.67 1421.21 L1268.67 1416.95 L1276.93 1415.29 L1281.61 1415.29 L1281.61 1445.91 L1289.24 1445.91 L1289.24 1449.85 L1269.34 1449.85 L1269.34 1445.91 Z" fill="#000000" fill-rule="nonzero" fill-opacity="1" /><path clip-path="url(#clip290)" d="M1298.69 1443.97 L1303.57 1443.97 L1303.57 1449.85 L1298.69 1449.85 L1298.69 1443.97 Z" fill="#000000" fill-rule="nonzero" fill-opacity="1" /><path clip-path="url(#clip290)" d="M1313.8 1415.29 L1332.16 1415.29 L1332.16 1419.22 L1318.09 1419.22 L1318.09 1427.69 Q1319.11 1427.35 1320.12 1427.18 Q1321.14 1427 1322.16 1427 Q1327.95 1427 1331.33 1430.17 Q1334.71 1433.34 1334.71 1438.76 Q1334.71 1444.34 1331.23 1447.44 Q1327.76 1450.52 1321.44 1450.52 Q1319.27 1450.52 1317 1450.15 Q1314.75 1449.78 1312.35 1449.03 L1312.35 1444.34 Q1314.43 1445.47 1316.65 1446.03 Q1318.87 1446.58 1321.35 1446.58 Q1325.36 1446.58 1327.69 1444.47 Q1330.03 1442.37 1330.03 1438.76 Q1330.03 1435.15 1327.69 1433.04 Q1325.36 1430.93 1321.35 1430.93 Q1319.48 1430.93 1317.6 1431.35 Q1315.75 1431.77 1313.8 1432.65 L1313.8 1415.29 Z" fill="#000000" fill-rule="nonzero" fill-opacity="1" /><path clip-path="url(#clip290)" d="M1227.76 1212.23 L1257.44 1212.23 L1257.44 1216.17 L1227.76 1216.17 L1227.76 1212.23 Z" fill="#000000" fill-rule="nonzero" fill-opacity="1" /><path clip-path="url(#clip290)" d="M1268.34 1225.13 L1275.98 1225.13 L1275.98 1198.76 L1267.67 1200.43 L1267.67 1196.17 L1275.93 1194.5 L1280.61 1194.5 L1280.61 1225.13 L1288.25 1225.13 L1288.25 1229.06 L1268.34 1229.06 L1268.34 1225.13 Z" fill="#000000" fill-rule="nonzero" fill-opacity="1" /><path clip-path="url(#clip290)" d="M1297.69 1223.18 L1302.58 1223.18 L1302.58 1229.06 L1297.69 1229.06 L1297.69 1223.18 Z" fill="#000000" fill-rule="nonzero" fill-opacity="1" /><path clip-path="url(#clip290)" d="M1322.76 1197.58 Q1319.15 1197.58 1317.32 1201.14 Q1315.52 1204.69 1315.52 1211.82 Q1315.52 1218.92 1317.32 1222.49 Q1319.15 1226.03 1322.76 1226.03 Q1326.4 1226.03 1328.2 1222.49 Q1330.03 1218.92 1330.03 1211.82 Q1330.03 1204.69 1328.2 1201.14 Q1326.4 1197.58 1322.76 1197.58 M1322.76 1193.88 Q1328.57 1193.88 1331.63 1198.48 Q1334.71 1203.07 1334.71 1211.82 Q1334.71 1220.54 1331.63 1225.15 Q1328.57 1229.73 1322.76 1229.73 Q1316.95 1229.73 1313.87 1225.15 Q1310.82 1220.54 1310.82 1211.82 Q1310.82 1203.07 1313.87 1198.48 Q1316.95 1193.88 1322.76 1193.88 Z" fill="#000000" fill-rule="nonzero" fill-opacity="1" /><path clip-path="url(#clip290)" d="M1228.76 991.448 L1258.43 991.448 L1258.43 995.383 L1228.76 995.383 L1228.76 991.448 Z" fill="#000000" fill-rule="nonzero" fill-opacity="1" /><path clip-path="url(#clip290)" d="M1278.53 976.795 Q1274.92 976.795 1273.09 980.36 Q1271.28 983.902 1271.28 991.031 Q1271.28 998.138 1273.09 1001.7 Q1274.92 1005.24 1278.53 1005.24 Q1282.16 1005.24 1283.97 1001.7 Q1285.8 998.138 1285.8 991.031 Q1285.8 983.902 1283.97 980.36 Q1282.16 976.795 1278.53 976.795 M1278.53 973.092 Q1284.34 973.092 1287.39 977.698 Q1290.47 982.281 1290.47 991.031 Q1290.47 999.758 1287.39 1004.36 Q1284.34 1008.95 1278.53 1008.95 Q1272.72 1008.95 1269.64 1004.36 Q1266.58 999.758 1266.58 991.031 Q1266.58 982.281 1269.64 977.698 Q1272.72 973.092 1278.53 973.092 Z" fill="#000000" fill-rule="nonzero" fill-opacity="1" /><path clip-path="url(#clip290)" d="M1298.69 1002.4 L1303.57 1002.4 L1303.57 1008.28 L1298.69 1008.28 L1298.69 1002.4 Z" fill="#000000" fill-rule="nonzero" fill-opacity="1" /><path clip-path="url(#clip290)" d="M1313.8 973.717 L1332.16 973.717 L1332.16 977.652 L1318.09 977.652 L1318.09 986.124 Q1319.11 985.777 1320.12 985.615 Q1321.14 985.43 1322.16 985.43 Q1327.95 985.43 1331.33 988.601 Q1334.71 991.772 1334.71 997.189 Q1334.71 1002.77 1331.23 1005.87 Q1327.76 1008.95 1321.44 1008.95 Q1319.27 1008.95 1317 1008.58 Q1314.75 1008.21 1312.35 1007.47 L1312.35 1002.77 Q1314.43 1003.9 1316.65 1004.46 Q1318.87 1005.01 1321.35 1005.01 Q1325.36 1005.01 1327.69 1002.91 Q1330.03 1000.8 1330.03 997.189 Q1330.03 993.578 1327.69 991.471 Q1325.36 989.365 1321.35 989.365 Q1319.48 989.365 1317.6 989.781 Q1315.75 990.198 1313.8 991.078 L1313.8 973.717 Z" fill="#000000" fill-rule="nonzero" fill-opacity="1" /><path clip-path="url(#clip290)" d="M1277.53 756.011 Q1273.92 756.011 1272.09 759.576 Q1270.29 763.118 1270.29 770.247 Q1270.29 777.354 1272.09 780.919 Q1273.92 784.46 1277.53 784.46 Q1281.17 784.46 1282.97 780.919 Q1284.8 777.354 1284.8 770.247 Q1284.8 763.118 1282.97 759.576 Q1281.17 756.011 1277.53 756.011 M1277.53 752.308 Q1283.34 752.308 1286.4 756.914 Q1289.48 761.497 1289.48 770.247 Q1289.48 778.974 1286.4 783.581 Q1283.34 788.164 1277.53 788.164 Q1271.72 788.164 1268.64 783.581 Q1265.59 778.974 1265.59 770.247 Q1265.59 761.497 1268.64 756.914 Q1271.72 752.308 1277.53 752.308 Z" fill="#000000" fill-rule="nonzero" fill-opacity="1" /><path clip-path="url(#clip290)" d="M1297.69 781.613 L1302.58 781.613 L1302.58 787.493 L1297.69 787.493 L1297.69 781.613 Z" fill="#000000" fill-rule="nonzero" fill-opacity="1" /><path clip-path="url(#clip290)" d="M1322.76 756.011 Q1319.15 756.011 1317.32 759.576 Q1315.52 763.118 1315.52 770.247 Q1315.52 777.354 1317.32 780.919 Q1319.15 784.46 1322.76 784.46 Q1326.4 784.46 1328.2 780.919 Q1330.03 777.354 1330.03 770.247 Q1330.03 763.118 1328.2 759.576 Q1326.4 756.011 1322.76 756.011 M1322.76 752.308 Q1328.57 752.308 1331.63 756.914 Q1334.71 761.497 1334.71 770.247 Q1334.71 778.974 1331.63 783.581 Q1328.57 788.164 1322.76 788.164 Q1316.95 788.164 1313.87 783.581 Q1310.82 778.974 1310.82 770.247 Q1310.82 761.497 1313.87 756.914 Q1316.95 752.308 1322.76 752.308 Z" fill="#000000" fill-rule="nonzero" fill-opacity="1" /><path clip-path="url(#clip290)" d="M1278.53 535.227 Q1274.92 535.227 1273.09 538.792 Q1271.28 542.334 1271.28 549.463 Q1271.28 556.57 1273.09 560.134 Q1274.92 563.676 1278.53 563.676 Q1282.16 563.676 1283.97 560.134 Q1285.8 556.57 1285.8 549.463 Q1285.8 542.334 1283.97 538.792 Q1282.16 535.227 1278.53 535.227 M1278.53 531.523 Q1284.34 531.523 1287.39 536.13 Q1290.47 540.713 1290.47 549.463 Q1290.47 558.19 1287.39 562.796 Q1284.34 567.38 1278.53 567.38 Q1272.72 567.38 1269.64 562.796 Q1266.58 558.19 1266.58 549.463 Q1266.58 540.713 1269.64 536.13 Q1272.72 531.523 1278.53 531.523 Z" fill="#000000" fill-rule="nonzero" fill-opacity="1" /><path clip-path="url(#clip290)" d="M1298.69 560.829 L1303.57 560.829 L1303.57 566.708 L1298.69 566.708 L1298.69 560.829 Z" fill="#000000" fill-rule="nonzero" fill-opacity="1" /><path clip-path="url(#clip290)" d="M1313.8 532.148 L1332.16 532.148 L1332.16 536.084 L1318.09 536.084 L1318.09 544.556 Q1319.11 544.209 1320.12 544.046 Q1321.14 543.861 1322.16 543.861 Q1327.95 543.861 1331.33 547.033 Q1334.71 550.204 1334.71 555.62 Q1334.71 561.199 1331.23 564.301 Q1327.76 567.38 1321.44 567.38 Q1319.27 567.38 1317 567.009 Q1314.75 566.639 1312.35 565.898 L1312.35 561.199 Q1314.43 562.333 1316.65 562.889 Q1318.87 563.445 1321.35 563.445 Q1325.36 563.445 1327.69 561.338 Q1330.03 559.232 1330.03 555.62 Q1330.03 552.009 1327.69 549.903 Q1325.36 547.796 1321.35 547.796 Q1319.48 547.796 1317.6 548.213 Q1315.75 548.63 1313.8 549.509 L1313.8 532.148 Z" fill="#000000" fill-rule="nonzero" fill-opacity="1" /><path clip-path="url(#clip290)" d="M1268.34 341.989 L1275.98 341.989 L1275.98 315.623 L1267.67 317.29 L1267.67 313.031 L1275.93 311.364 L1280.61 311.364 L1280.61 341.989 L1288.25 341.989 L1288.25 345.924 L1268.34 345.924 L1268.34 341.989 Z" fill="#000000" fill-rule="nonzero" fill-opacity="1" /><path clip-path="url(#clip290)" d="M1297.69 340.045 L1302.58 340.045 L1302.58 345.924 L1297.69 345.924 L1297.69 340.045 Z" fill="#000000" fill-rule="nonzero" fill-opacity="1" /><path clip-path="url(#clip290)" d="M1322.76 314.443 Q1319.15 314.443 1317.32 318.008 Q1315.52 321.549 1315.52 328.679 Q1315.52 335.785 1317.32 339.35 Q1319.15 342.892 1322.76 342.892 Q1326.4 342.892 1328.2 339.35 Q1330.03 335.785 1330.03 328.679 Q1330.03 321.549 1328.2 318.008 Q1326.4 314.443 1322.76 314.443 M1322.76 310.739 Q1328.57 310.739 1331.63 315.346 Q1334.71 319.929 1334.71 328.679 Q1334.71 337.406 1331.63 342.012 Q1328.57 346.596 1322.76 346.596 Q1316.95 346.596 1313.87 342.012 Q1310.82 337.406 1310.82 328.679 Q1310.82 319.929 1313.87 315.346 Q1316.95 310.739 1322.76 310.739 Z" fill="#000000" fill-rule="nonzero" fill-opacity="1" /><path clip-path="url(#clip290)" d="M1269.34 121.205 L1276.98 121.205 L1276.98 94.8393 L1268.67 96.506 L1268.67 92.2467 L1276.93 90.5801 L1281.61 90.5801 L1281.61 121.205 L1289.24 121.205 L1289.24 125.14 L1269.34 125.14 L1269.34 121.205 Z" fill="#000000" fill-rule="nonzero" fill-opacity="1" /><path clip-path="url(#clip290)" d="M1298.69 119.26 L1303.57 119.26 L1303.57 125.14 L1298.69 125.14 L1298.69 119.26 Z" fill="#000000" fill-rule="nonzero" fill-opacity="1" /><path clip-path="url(#clip290)" d="M1313.8 90.5801 L1332.16 90.5801 L1332.16 94.5152 L1318.09 94.5152 L1318.09 102.987 Q1319.11 102.64 1320.12 102.478 Q1321.14 102.293 1322.16 102.293 Q1327.95 102.293 1331.33 105.464 Q1334.71 108.636 1334.71 114.052 Q1334.71 119.631 1331.23 122.733 Q1327.76 125.811 1321.44 125.811 Q1319.27 125.811 1317 125.441 Q1314.75 125.071 1312.35 124.33 L1312.35 119.631 Q1314.43 120.765 1316.65 121.321 Q1318.87 121.876 1321.35 121.876 Q1325.36 121.876 1327.69 119.77 Q1330.03 117.663 1330.03 114.052 Q1330.03 110.441 1327.69 108.335 Q1325.36 106.228 1321.35 106.228 Q1319.48 106.228 1317.6 106.645 Q1315.75 107.061 1313.8 107.941 L1313.8 90.5801 Z" fill="#000000" fill-rule="nonzero" fill-opacity="1" /><polyline clip-path="url(#clip293)" style="stroke:#009af9; stroke-linecap:round; stroke-linejoin:round; stroke-width:4; stroke-opacity:1; fill:none" points="1398.5,87.9763 1410.23,156.104 1421.96,250.599 1433.68,400.994 1445.41,528.81 1457.14,622.91 1468.86,723.401 1480.59,811.892 1492.32,894.277 1504.05,985.557 1515.77,1045.09 1527.5,1087.63 1539.23,1137.84 1550.96,1180.37 1562.68,1218.09 1574.41,1248.43 1586.14,1289.55 1597.87,1320.49 1609.59,1340.78 1621.32,1340.58 1633.05,1356.59 1644.78,1380.78 1656.5,1391.04 1668.23,1390.71 1679.96,1354.6 1691.68,1295.32 1703.41,1270.37 1715.14,1255.19 1726.87,1181.29 1738.59,1097.93 1750.32,1037.58 1762.05,949.219 1773.78,861.426 1785.5,810.381 1797.23,743.618 1808.96,676.807 1820.69,607.961 1832.41,541.772 1844.14,472.964 1855.87,437.615 1867.6,414.338 1879.32,416.762 1891.05,414.633 1902.78,395.632 1914.5,380.509 1926.23,389.437 1937.96,413.093 1949.69,445.863 1961.41,432.761 1973.14,430.899 1984.87,428.78 1996.6,437.926 2008.32,487.439 2020.05,520.418 2031.78,536.553 2043.51,574.01 2055.23,613.429 2066.96,632.094 2078.69,664.286 2090.41,694.362 2102.14,714.809 2113.87,734.964 2125.6,766.494 2137.32,763.677 2149.05,748.54 2160.78,742.552 2172.51,723.001 2184.23,727.812 2195.96,735.148 2207.69,758.742 2219.42,753.934 2231.14,736.636 2242.87,732.727 2254.6,721.42 2266.33,722.604 2278.05,720.521 2289.78,734.546 2301.51,729.664 2313.23,740.137 2324.96,782.404 "/>
<polyline clip-path="url(#clip293)" style="stroke:#e26f46; stroke-linecap:round; stroke-linejoin:round; stroke-width:4; stroke-opacity:1; fill:none" points="1398.5,95.5527 1410.23,161.153 1421.96,247.355 1433.68,398.118 1445.41,530.228 1457.14,617.645 1468.86,716.589 1480.59,806.279 1492.32,890.104 1504.05,986.133 1515.77,1046.69 1527.5,1080.43 1539.23,1133.72 1550.96,1180.98 1562.68,1221.63 1574.41,1250.55 1586.14,1294.26 1597.87,1322.63 1609.59,1345.55 1621.32,1340.43 1633.05,1363.3 1644.78,1379.17 1656.5,1384.72 1668.23,1389.69 1679.96,1351.04 1691.68,1289.09 1703.41,1263.4 1715.14,1251.12 1726.87,1177.62 1738.59,1093.98 1750.32,1032.22 1762.05,948.063 1773.78,859.841 1785.5,813.778 1797.23,745.045 1808.96,676.429 1820.69,612.834 1832.41,543.373 1844.14,472.634 1855.87,443.668 1867.6,409.363 1879.32,407.395 1891.05,410.176 1902.78,400.606 1914.5,381.66 1926.23,384.884 1937.96,411.218 1949.69,449.36 1961.41,436.581 1973.14,433.984 1984.87,437.369 1996.6,449.008 2008.32,498.967 2020.05,524.74 2031.78,540.004 2043.51,578.081 2055.23,614.592 2066.96,631.805 2078.69,667.486 2090.41,694.406 2102.14,716.315 2113.87,737.832 2125.6,769.736 2137.32,773.718 2149.05,760.819 2160.78,751.762 2172.51,726.625 2184.23,724.911 2195.96,736.782 2207.69,755.695 2219.42,751.261 2231.14,732.826 2242.87,727.687 2254.6,720.459 2266.33,723.244 2278.05,717.177 2289.78,724.507 2301.51,714.858 2313.23,729.102 2324.96,771.777 "/>
<polyline clip-path="url(#clip293)" style="stroke:#3da44d; stroke-linecap:round; stroke-linejoin:round; stroke-width:4; stroke-opacity:1; fill:none" points="1398.5,131.994 1410.23,110.319 1421.96,276.811 1433.68,370.679 1445.41,512.573 1457.14,577.811 1468.86,683.353 1480.59,788.016 1492.32,820.331 1504.05,978.573 1515.77,1031.24 1527.5,987.077 1539.23,1156.46 1550.96,1137.94 1562.68,1140.65 1574.41,1200.13 1586.14,1191.86 1597.87,1268.68 1609.59,1323.9 1621.32,1336.57 1633.05,1369.3 1644.78,1445.72 1656.5,1420.65 1668.23,1441.09 1679.96,1407.68 1691.68,1270.14 1703.41,1273.61 1715.14,1255.89 1726.87,1134.06 1738.59,1013.34 1750.32,1021.07 1762.05,899.149 1773.78,889.167 1785.5,841.873 1797.23,803.138 1808.96,719.331 1820.69,616.477 1832.41,504.245 1844.14,447.926 1855.87,457.074 1867.6,420.436 1879.32,457.114 1891.05,430.126 1902.78,440.387 1914.5,415.151 1926.23,443.899 1937.96,449.257 1949.69,438.938 1961.41,462.052 1973.14,387.533 1984.87,360.448 1996.6,439.125 2008.32,489.359 2020.05,464.184 2031.78,456.82 2043.51,501.993 2055.23,491.214 2066.96,516.892 2078.69,644.99 2090.41,716.732 2102.14,727.452 2113.87,728.052 2125.6,707.292 2137.32,700.741 2149.05,720.808 2160.78,716.997 2172.51,639.356 2184.23,719.389 2195.96,721.279 2207.69,721.715 2219.42,715.984 2231.14,755.434 2242.87,728.04 2254.6,795.37 2266.33,717.099 2278.05,648.769 2289.78,716.487 2301.51,684.531 2313.23,706.766 2324.96,731.237 "/>
<path clip-path="url(#clip290)" d="M1860.15 302.578 L2320.02 302.578 L2320.02 95.2176 L1860.15 95.2176  Z" fill="#ffffff" fill-rule="evenodd" fill-opacity="1"/>
<polyline clip-path="url(#clip290)" style="stroke:#000000; stroke-linecap:round; stroke-linejoin:round; stroke-width:4; stroke-opacity:1; fill:none" points="1860.15,302.578 2320.02,302.578 2320.02,95.2176 1860.15,95.2176 1860.15,302.578 "/>
<polyline clip-path="url(#clip290)" style="stroke:#009af9; stroke-linecap:round; stroke-linejoin:round; stroke-width:4; stroke-opacity:1; fill:none" points="1871.06,147.058 1936.53,147.058 "/>
<path clip-path="url(#clip290)" d="M1947.44 129.778 L1952.12 129.778 L1952.12 144.384 L1967.63 129.778 L1973.65 129.778 L1956.5 145.889 L1974.87 164.338 L1968.72 164.338 L1952.12 147.694 L1952.12 164.338 L1947.44 164.338 L1947.44 129.778 Z" fill="#000000" fill-rule="nonzero" fill-opacity="1" /><path clip-path="url(#clip290)" d="M1989.3 151.305 Q1984.13 151.305 1982.14 152.486 Q1980.15 153.666 1980.15 156.514 Q1980.15 158.782 1981.63 160.125 Q1983.14 161.444 1985.71 161.444 Q1989.25 161.444 1991.38 158.944 Q1993.53 156.421 1993.53 152.254 L1993.53 151.305 L1989.3 151.305 M1997.79 149.546 L1997.79 164.338 L1993.53 164.338 L1993.53 160.402 Q1992.07 162.763 1989.9 163.898 Q1987.72 165.009 1984.57 165.009 Q1980.59 165.009 1978.23 162.787 Q1975.89 160.541 1975.89 156.791 Q1975.89 152.416 1978.81 150.194 Q1981.75 147.972 1987.56 147.972 L1993.53 147.972 L1993.53 147.555 Q1993.53 144.615 1991.59 143.018 Q1989.67 141.398 1986.17 141.398 Q1983.95 141.398 1981.84 141.93 Q1979.74 142.463 1977.79 143.527 L1977.79 139.592 Q1980.13 138.69 1982.33 138.25 Q1984.53 137.787 1986.61 137.787 Q1992.24 137.787 1995.01 140.703 Q1997.79 143.62 1997.79 149.546 Z" fill="#000000" fill-rule="nonzero" fill-opacity="1" /><path clip-path="url(#clip290)" d="M2006.56 128.319 L2010.82 128.319 L2010.82 164.338 L2006.56 164.338 L2006.56 128.319 Z" fill="#000000" fill-rule="nonzero" fill-opacity="1" /><path clip-path="url(#clip290)" d="M2039.92 143.389 Q2041.52 140.518 2043.74 139.153 Q2045.96 137.787 2048.97 137.787 Q2053.02 137.787 2055.22 140.634 Q2057.42 143.458 2057.42 148.689 L2057.42 164.338 L2053.14 164.338 L2053.14 148.828 Q2053.14 145.102 2051.82 143.296 Q2050.5 141.49 2047.79 141.49 Q2044.48 141.49 2042.56 143.69 Q2040.64 145.889 2040.64 149.685 L2040.64 164.338 L2036.36 164.338 L2036.36 148.828 Q2036.36 145.078 2035.04 143.296 Q2033.72 141.49 2030.96 141.49 Q2027.7 141.49 2025.78 143.713 Q2023.86 145.912 2023.86 149.685 L2023.86 164.338 L2019.57 164.338 L2019.57 138.412 L2023.86 138.412 L2023.86 142.44 Q2025.31 140.055 2027.35 138.921 Q2029.39 137.787 2032.19 137.787 Q2035.01 137.787 2036.98 139.222 Q2038.97 140.657 2039.92 143.389 Z" fill="#000000" fill-rule="nonzero" fill-opacity="1" /><path clip-path="url(#clip290)" d="M2077.7 151.305 Q2072.54 151.305 2070.55 152.486 Q2068.56 153.666 2068.56 156.514 Q2068.56 158.782 2070.04 160.125 Q2071.54 161.444 2074.11 161.444 Q2077.65 161.444 2079.78 158.944 Q2081.93 156.421 2081.93 152.254 L2081.93 151.305 L2077.7 151.305 M2086.19 149.546 L2086.19 164.338 L2081.93 164.338 L2081.93 160.402 Q2080.48 162.763 2078.3 163.898 Q2076.12 165.009 2072.98 165.009 Q2068.99 165.009 2066.63 162.787 Q2064.3 160.541 2064.3 156.791 Q2064.3 152.416 2067.21 150.194 Q2070.15 147.972 2075.96 147.972 L2081.93 147.972 L2081.93 147.555 Q2081.93 144.615 2079.99 143.018 Q2078.07 141.398 2074.57 141.398 Q2072.35 141.398 2070.24 141.93 Q2068.14 142.463 2066.19 143.527 L2066.19 139.592 Q2068.53 138.69 2070.73 138.25 Q2072.93 137.787 2075.01 137.787 Q2080.64 137.787 2083.42 140.703 Q2086.19 143.62 2086.19 149.546 Z" fill="#000000" fill-rule="nonzero" fill-opacity="1" /><path clip-path="url(#clip290)" d="M2116.52 148.689 L2116.52 164.338 L2112.26 164.338 L2112.26 148.828 Q2112.26 145.148 2110.82 143.319 Q2109.39 141.49 2106.52 141.49 Q2103.07 141.49 2101.08 143.69 Q2099.09 145.889 2099.09 149.685 L2099.09 164.338 L2094.8 164.338 L2094.8 138.412 L2099.09 138.412 L2099.09 142.44 Q2100.62 140.102 2102.68 138.944 Q2104.76 137.787 2107.47 137.787 Q2111.93 137.787 2114.23 140.565 Q2116.52 143.319 2116.52 148.689 Z" fill="#000000" fill-rule="nonzero" fill-opacity="1" /><path clip-path="url(#clip290)" d="M2156.61 139.176 L2156.61 143.203 Q2154.8 142.277 2152.86 141.815 Q2150.92 141.352 2148.83 141.352 Q2145.66 141.352 2144.06 142.324 Q2142.49 143.296 2142.49 145.24 Q2142.49 146.722 2143.62 147.578 Q2144.76 148.412 2148.18 149.176 L2149.64 149.5 Q2154.18 150.472 2156.08 152.254 Q2158 154.014 2158 157.185 Q2158 160.796 2155.13 162.902 Q2152.28 165.009 2147.28 165.009 Q2145.2 165.009 2142.93 164.592 Q2140.68 164.199 2138.18 163.388 L2138.18 158.99 Q2140.55 160.217 2142.84 160.842 Q2145.13 161.444 2147.37 161.444 Q2150.38 161.444 2152 160.426 Q2153.62 159.384 2153.62 157.509 Q2153.62 155.773 2152.44 154.847 Q2151.29 153.921 2147.33 153.064 L2145.85 152.717 Q2141.89 151.884 2140.13 150.171 Q2138.37 148.435 2138.37 145.426 Q2138.37 141.768 2140.96 139.778 Q2143.55 137.787 2148.32 137.787 Q2150.68 137.787 2152.77 138.134 Q2154.85 138.481 2156.61 139.176 Z" fill="#000000" fill-rule="nonzero" fill-opacity="1" /><path clip-path="url(#clip290)" d="M2184.97 143.389 Q2186.56 140.518 2188.79 139.153 Q2191.01 137.787 2194.02 137.787 Q2198.07 137.787 2200.27 140.634 Q2202.47 143.458 2202.47 148.689 L2202.47 164.338 L2198.18 164.338 L2198.18 148.828 Q2198.18 145.102 2196.86 143.296 Q2195.55 141.49 2192.84 141.49 Q2189.53 141.49 2187.61 143.69 Q2185.68 145.889 2185.68 149.685 L2185.68 164.338 L2181.4 164.338 L2181.4 148.828 Q2181.4 145.078 2180.08 143.296 Q2178.76 141.49 2176.01 141.49 Q2172.74 141.49 2170.82 143.713 Q2168.9 145.912 2168.9 149.685 L2168.9 164.338 L2164.62 164.338 L2164.62 138.412 L2168.9 138.412 L2168.9 142.44 Q2170.36 140.055 2172.4 138.921 Q2174.43 137.787 2177.23 137.787 Q2180.06 137.787 2182.03 139.222 Q2184.02 140.657 2184.97 143.389 Z" fill="#000000" fill-rule="nonzero" fill-opacity="1" /><path clip-path="url(#clip290)" d="M2221.01 141.398 Q2217.58 141.398 2215.59 144.083 Q2213.6 146.745 2213.6 151.398 Q2213.6 156.051 2215.57 158.736 Q2217.56 161.398 2221.01 161.398 Q2224.41 161.398 2226.4 158.713 Q2228.39 156.027 2228.39 151.398 Q2228.39 146.791 2226.4 144.106 Q2224.41 141.398 2221.01 141.398 M2221.01 137.787 Q2226.56 137.787 2229.73 141.398 Q2232.91 145.009 2232.91 151.398 Q2232.91 157.764 2229.73 161.398 Q2226.56 165.009 2221.01 165.009 Q2215.43 165.009 2212.26 161.398 Q2209.11 157.764 2209.11 151.398 Q2209.11 145.009 2212.26 141.398 Q2215.43 137.787 2221.01 137.787 Z" fill="#000000" fill-rule="nonzero" fill-opacity="1" /><path clip-path="url(#clip290)" d="M2250.01 141.398 Q2246.59 141.398 2244.6 144.083 Q2242.61 146.745 2242.61 151.398 Q2242.61 156.051 2244.57 158.736 Q2246.56 161.398 2250.01 161.398 Q2253.42 161.398 2255.41 158.713 Q2257.4 156.027 2257.4 151.398 Q2257.4 146.791 2255.41 144.106 Q2253.42 141.398 2250.01 141.398 M2250.01 137.787 Q2255.57 137.787 2258.74 141.398 Q2261.91 145.009 2261.91 151.398 Q2261.91 157.764 2258.74 161.398 Q2255.57 165.009 2250.01 165.009 Q2244.43 165.009 2241.26 161.398 Q2238.11 157.764 2238.11 151.398 Q2238.11 145.009 2241.26 141.398 Q2244.43 137.787 2250.01 137.787 Z" fill="#000000" fill-rule="nonzero" fill-opacity="1" /><path clip-path="url(#clip290)" d="M2273.18 131.051 L2273.18 138.412 L2281.96 138.412 L2281.96 141.722 L2273.18 141.722 L2273.18 155.796 Q2273.18 158.967 2274.04 159.87 Q2274.92 160.773 2277.58 160.773 L2281.96 160.773 L2281.96 164.338 L2277.58 164.338 Q2272.65 164.338 2270.78 162.509 Q2268.9 160.657 2268.9 155.796 L2268.9 141.722 L2265.78 141.722 L2265.78 138.412 L2268.9 138.412 L2268.9 131.051 L2273.18 131.051 Z" fill="#000000" fill-rule="nonzero" fill-opacity="1" /><path clip-path="url(#clip290)" d="M2309.11 148.689 L2309.11 164.338 L2304.85 164.338 L2304.85 148.828 Q2304.85 145.148 2303.41 143.319 Q2301.98 141.49 2299.11 141.49 Q2295.66 141.49 2293.67 143.69 Q2291.68 145.889 2291.68 149.685 L2291.68 164.338 L2287.4 164.338 L2287.4 128.319 L2291.68 128.319 L2291.68 142.44 Q2293.21 140.102 2295.27 138.944 Q2297.35 137.787 2300.06 137.787 Q2304.53 137.787 2306.82 140.565 Q2309.11 143.319 2309.11 148.689 Z" fill="#000000" fill-rule="nonzero" fill-opacity="1" /><polyline clip-path="url(#clip290)" style="stroke:#e26f46; stroke-linecap:round; stroke-linejoin:round; stroke-width:4; stroke-opacity:1; fill:none" points="1871.06,198.898 1936.53,198.898 "/>
<path clip-path="url(#clip290)" d="M1951.73 212.289 L1951.73 226.039 L1947.44 226.039 L1947.44 190.252 L1951.73 190.252 L1951.73 194.187 Q1953.07 191.872 1955.11 190.761 Q1957.17 189.627 1960.01 189.627 Q1964.74 189.627 1967.68 193.377 Q1970.64 197.127 1970.64 203.238 Q1970.64 209.349 1967.68 213.099 Q1964.74 216.849 1960.01 216.849 Q1957.17 216.849 1955.11 215.738 Q1953.07 214.603 1951.73 212.289 M1966.22 203.238 Q1966.22 198.539 1964.27 195.877 Q1962.35 193.192 1958.97 193.192 Q1955.59 193.192 1953.65 195.877 Q1951.73 198.539 1951.73 203.238 Q1951.73 207.937 1953.65 210.622 Q1955.59 213.284 1958.97 213.284 Q1962.35 213.284 1964.27 210.622 Q1966.22 207.937 1966.22 203.238 Z" fill="#000000" fill-rule="nonzero" fill-opacity="1" /><path clip-path="url(#clip290)" d="M1990.82 180.159 L1990.82 183.701 L1986.75 183.701 Q1984.46 183.701 1983.56 184.627 Q1982.68 185.553 1982.68 187.96 L1982.68 190.252 L1989.69 190.252 L1989.69 193.562 L1982.68 193.562 L1982.68 216.178 L1978.39 216.178 L1978.39 193.562 L1974.32 193.562 L1974.32 190.252 L1978.39 190.252 L1978.39 188.446 Q1978.39 184.118 1980.41 182.15 Q1982.42 180.159 1986.8 180.159 L1990.82 180.159 Z" fill="#000000" fill-rule="nonzero" fill-opacity="1" /><path clip-path="url(#clip290)" d="M2025.99 191.016 L2025.99 195.043 Q2024.18 194.117 2022.24 193.655 Q2020.29 193.192 2018.21 193.192 Q2015.04 193.192 2013.44 194.164 Q2011.87 195.136 2011.87 197.08 Q2011.87 198.562 2013 199.418 Q2014.13 200.252 2017.56 201.016 L2019.02 201.34 Q2023.56 202.312 2025.45 204.094 Q2027.37 205.854 2027.37 209.025 Q2027.37 212.636 2024.5 214.742 Q2021.66 216.849 2016.66 216.849 Q2014.57 216.849 2012.31 216.432 Q2010.06 216.039 2007.56 215.228 L2007.56 210.83 Q2009.92 212.057 2012.21 212.682 Q2014.5 213.284 2016.75 213.284 Q2019.76 213.284 2021.38 212.266 Q2023 211.224 2023 209.349 Q2023 207.613 2021.82 206.687 Q2020.66 205.761 2016.7 204.904 L2015.22 204.557 Q2011.26 203.724 2009.5 202.011 Q2007.75 200.275 2007.75 197.266 Q2007.75 193.608 2010.34 191.618 Q2012.93 189.627 2017.7 189.627 Q2020.06 189.627 2022.14 189.974 Q2024.23 190.321 2025.99 191.016 Z" fill="#000000" fill-rule="nonzero" fill-opacity="1" /><path clip-path="url(#clip290)" d="M2054.34 195.229 Q2055.94 192.358 2058.16 190.993 Q2060.38 189.627 2063.39 189.627 Q2067.44 189.627 2069.64 192.474 Q2071.84 195.298 2071.84 200.529 L2071.84 216.178 L2067.56 216.178 L2067.56 200.668 Q2067.56 196.942 2066.24 195.136 Q2064.92 193.33 2062.21 193.33 Q2058.9 193.33 2056.98 195.53 Q2055.06 197.729 2055.06 201.525 L2055.06 216.178 L2050.78 216.178 L2050.78 200.668 Q2050.78 196.918 2049.46 195.136 Q2048.14 193.33 2045.38 193.33 Q2042.12 193.33 2040.2 195.553 Q2038.28 197.752 2038.28 201.525 L2038.28 216.178 L2034 216.178 L2034 190.252 L2038.28 190.252 L2038.28 194.28 Q2039.74 191.895 2041.77 190.761 Q2043.81 189.627 2046.61 189.627 Q2049.43 189.627 2051.4 191.062 Q2053.39 192.497 2054.34 195.229 Z" fill="#000000" fill-rule="nonzero" fill-opacity="1" /><path clip-path="url(#clip290)" d="M2090.38 193.238 Q2086.96 193.238 2084.97 195.923 Q2082.98 198.585 2082.98 203.238 Q2082.98 207.891 2084.94 210.576 Q2086.93 213.238 2090.38 213.238 Q2093.79 213.238 2095.78 210.553 Q2097.77 207.867 2097.77 203.238 Q2097.77 198.631 2095.78 195.946 Q2093.79 193.238 2090.38 193.238 M2090.38 189.627 Q2095.94 189.627 2099.11 193.238 Q2102.28 196.849 2102.28 203.238 Q2102.28 209.604 2099.11 213.238 Q2095.94 216.849 2090.38 216.849 Q2084.8 216.849 2081.63 213.238 Q2078.49 209.604 2078.49 203.238 Q2078.49 196.849 2081.63 193.238 Q2084.8 189.627 2090.38 189.627 Z" fill="#000000" fill-rule="nonzero" fill-opacity="1" /><path clip-path="url(#clip290)" d="M2119.39 193.238 Q2115.96 193.238 2113.97 195.923 Q2111.98 198.585 2111.98 203.238 Q2111.98 207.891 2113.95 210.576 Q2115.94 213.238 2119.39 213.238 Q2122.79 213.238 2124.78 210.553 Q2126.77 207.867 2126.77 203.238 Q2126.77 198.631 2124.78 195.946 Q2122.79 193.238 2119.39 193.238 M2119.39 189.627 Q2124.94 189.627 2128.11 193.238 Q2131.29 196.849 2131.29 203.238 Q2131.29 209.604 2128.11 213.238 Q2124.94 216.849 2119.39 216.849 Q2113.81 216.849 2110.64 213.238 Q2107.49 209.604 2107.49 203.238 Q2107.49 196.849 2110.64 193.238 Q2113.81 189.627 2119.39 189.627 Z" fill="#000000" fill-rule="nonzero" fill-opacity="1" /><path clip-path="url(#clip290)" d="M2142.56 182.891 L2142.56 190.252 L2151.33 190.252 L2151.33 193.562 L2142.56 193.562 L2142.56 207.636 Q2142.56 210.807 2143.42 211.71 Q2144.3 212.613 2146.96 212.613 L2151.33 212.613 L2151.33 216.178 L2146.96 216.178 Q2142.03 216.178 2140.15 214.349 Q2138.28 212.497 2138.28 207.636 L2138.28 193.562 L2135.15 193.562 L2135.15 190.252 L2138.28 190.252 L2138.28 182.891 L2142.56 182.891 Z" fill="#000000" fill-rule="nonzero" fill-opacity="1" /><path clip-path="url(#clip290)" d="M2178.48 200.529 L2178.48 216.178 L2174.23 216.178 L2174.23 200.668 Q2174.23 196.988 2172.79 195.159 Q2171.36 193.33 2168.49 193.33 Q2165.04 193.33 2163.05 195.53 Q2161.05 197.729 2161.05 201.525 L2161.05 216.178 L2156.77 216.178 L2156.77 180.159 L2161.05 180.159 L2161.05 194.28 Q2162.58 191.942 2164.64 190.784 Q2166.73 189.627 2169.43 189.627 Q2173.9 189.627 2176.19 192.405 Q2178.48 195.159 2178.48 200.529 Z" fill="#000000" fill-rule="nonzero" fill-opacity="1" /><polyline clip-path="url(#clip290)" style="stroke:#3da44d; stroke-linecap:round; stroke-linejoin:round; stroke-width:4; stroke-opacity:1; fill:none" points="1871.06,250.738 1936.53,250.738 "/>
<path clip-path="url(#clip290)" d="M1954.85 234.731 L1954.85 242.092 L1963.63 242.092 L1963.63 245.402 L1954.85 245.402 L1954.85 259.476 Q1954.85 262.647 1955.71 263.55 Q1956.59 264.453 1959.25 264.453 L1963.63 264.453 L1963.63 268.018 L1959.25 268.018 Q1954.32 268.018 1952.44 266.189 Q1950.57 264.337 1950.57 259.476 L1950.57 245.402 L1947.44 245.402 L1947.44 242.092 L1950.57 242.092 L1950.57 234.731 L1954.85 234.731 Z" fill="#000000" fill-rule="nonzero" fill-opacity="1" /><path clip-path="url(#clip290)" d="M1984.25 246.073 Q1983.53 245.657 1982.68 245.471 Q1981.84 245.263 1980.82 245.263 Q1977.21 245.263 1975.27 247.624 Q1973.35 249.962 1973.35 254.36 L1973.35 268.018 L1969.06 268.018 L1969.06 242.092 L1973.35 242.092 L1973.35 246.12 Q1974.69 243.758 1976.84 242.624 Q1979 241.467 1982.07 241.467 Q1982.51 241.467 1983.05 241.536 Q1983.58 241.583 1984.23 241.698 L1984.25 246.073 Z" fill="#000000" fill-rule="nonzero" fill-opacity="1" /><path clip-path="url(#clip290)" d="M1988.28 257.786 L1988.28 242.092 L1992.54 242.092 L1992.54 257.624 Q1992.54 261.305 1993.97 263.156 Q1995.41 264.985 1998.28 264.985 Q2001.73 264.985 2003.72 262.786 Q2005.73 260.587 2005.73 256.791 L2005.73 242.092 L2009.99 242.092 L2009.99 268.018 L2005.73 268.018 L2005.73 264.036 Q2004.18 266.397 2002.12 267.555 Q2000.08 268.689 1997.37 268.689 Q1992.91 268.689 1990.59 265.911 Q1988.28 263.133 1988.28 257.786 M1999 241.467 L1999 241.467 Z" fill="#000000" fill-rule="nonzero" fill-opacity="1" /><path clip-path="url(#clip290)" d="M2040.94 253.99 L2040.94 256.073 L2021.36 256.073 Q2021.63 260.471 2024 262.786 Q2026.38 265.078 2030.62 265.078 Q2033.07 265.078 2035.36 264.476 Q2037.68 263.874 2039.94 262.67 L2039.94 266.698 Q2037.65 267.67 2035.25 268.18 Q2032.84 268.689 2030.36 268.689 Q2024.16 268.689 2020.52 265.078 Q2016.91 261.467 2016.91 255.309 Q2016.91 248.944 2020.34 245.217 Q2023.79 241.467 2029.62 241.467 Q2034.85 241.467 2037.88 244.846 Q2040.94 248.203 2040.94 253.99 M2036.68 252.74 Q2036.63 249.245 2034.71 247.161 Q2032.81 245.078 2029.67 245.078 Q2026.1 245.078 2023.95 247.092 Q2021.82 249.106 2021.5 252.763 L2036.68 252.74 Z" fill="#000000" fill-rule="nonzero" fill-opacity="1" /></svg>
