<?xml version="1.0" encoding="utf-8"?>
<svg xmlns="http://www.w3.org/2000/svg" xmlns:xlink="http://www.w3.org/1999/xlink" width="600" height="400" viewBox="0 0 2400 1600">
<defs>
  <clipPath id="clip990">
    <rect x="0" y="0" width="2400" height="1600"/>
  </clipPath>
</defs>
<path clip-path="url(#clip990)" d="M0 1600 L2400 1600 L2400 0 L0 0  Z" fill="#ffffff" fill-rule="evenodd" fill-opacity="1"/>
<defs>
  <clipPath id="clip991">
    <rect x="480" y="0" width="1681" height="1600"/>
  </clipPath>
</defs>
<path clip-path="url(#clip990)" d="M140.51 1486.45 L2352.76 1486.45 L2352.76 47.2441 L140.51 47.2441  Z" fill="#ffffff" fill-rule="evenodd" fill-opacity="1"/>
<defs>
  <clipPath id="clip992">
    <rect x="140" y="47" width="2213" height="1440"/>
  </clipPath>
</defs>
<polyline clip-path="url(#clip992)" style="stroke:#000000; stroke-linecap:round; stroke-linejoin:round; stroke-width:2; stroke-opacity:0.1; fill:none" points="352.398,1486.45 352.398,47.2441 "/>
<polyline clip-path="url(#clip992)" style="stroke:#000000; stroke-linecap:round; stroke-linejoin:round; stroke-width:2; stroke-opacity:0.1; fill:none" points="786.3,1486.45 786.3,47.2441 "/>
<polyline clip-path="url(#clip992)" style="stroke:#000000; stroke-linecap:round; stroke-linejoin:round; stroke-width:2; stroke-opacity:0.1; fill:none" points="1220.2,1486.45 1220.2,47.2441 "/>
<polyline clip-path="url(#clip992)" style="stroke:#000000; stroke-linecap:round; stroke-linejoin:round; stroke-width:2; stroke-opacity:0.1; fill:none" points="1654.1,1486.45 1654.1,47.2441 "/>
<polyline clip-path="url(#clip992)" style="stroke:#000000; stroke-linecap:round; stroke-linejoin:round; stroke-width:2; stroke-opacity:0.1; fill:none" points="2088,1486.45 2088,47.2441 "/>
<polyline clip-path="url(#clip992)" style="stroke:#000000; stroke-linecap:round; stroke-linejoin:round; stroke-width:2; stroke-opacity:0.1; fill:none" points="140.51,1180.08 2352.76,1180.08 "/>
<polyline clip-path="url(#clip992)" style="stroke:#000000; stroke-linecap:round; stroke-linejoin:round; stroke-width:2; stroke-opacity:0.1; fill:none" points="140.51,872.484 2352.76,872.484 "/>
<polyline clip-path="url(#clip992)" style="stroke:#000000; stroke-linecap:round; stroke-linejoin:round; stroke-width:2; stroke-opacity:0.1; fill:none" points="140.51,564.891 2352.76,564.891 "/>
<polyline clip-path="url(#clip992)" style="stroke:#000000; stroke-linecap:round; stroke-linejoin:round; stroke-width:2; stroke-opacity:0.1; fill:none" points="140.51,257.297 2352.76,257.297 "/>
<polyline clip-path="url(#clip990)" style="stroke:#000000; stroke-linecap:round; stroke-linejoin:round; stroke-width:4; stroke-opacity:1; fill:none" points="140.51,1486.45 2352.76,1486.45 "/>
<polyline clip-path="url(#clip990)" style="stroke:#000000; stroke-linecap:round; stroke-linejoin:round; stroke-width:4; stroke-opacity:1; fill:none" points="352.398,1486.45 352.398,1467.55 "/>
<polyline clip-path="url(#clip990)" style="stroke:#000000; stroke-linecap:round; stroke-linejoin:round; stroke-width:4; stroke-opacity:1; fill:none" points="786.3,1486.45 786.3,1467.55 "/>
<polyline clip-path="url(#clip990)" style="stroke:#000000; stroke-linecap:round; stroke-linejoin:round; stroke-width:4; stroke-opacity:1; fill:none" points="1220.2,1486.45 1220.2,1467.55 "/>
<polyline clip-path="url(#clip990)" style="stroke:#000000; stroke-linecap:round; stroke-linejoin:round; stroke-width:4; stroke-opacity:1; fill:none" points="1654.1,1486.45 1654.1,1467.55 "/>
<polyline clip-path="url(#clip990)" style="stroke:#000000; stroke-linecap:round; stroke-linejoin:round; stroke-width:4; stroke-opacity:1; fill:none" points="2088,1486.45 2088,1467.55 "/>
<path clip-path="url(#clip990)" d="M306.46 1532.02 L336.136 1532.02 L336.136 1535.95 L306.46 1535.95 L306.46 1532.02 Z" fill="#000000" fill-rule="nonzero" fill-opacity="1" /><path clip-path="url(#clip990)" d="M360.395 1530.21 Q363.752 1530.93 365.627 1533.2 Q367.525 1535.47 367.525 1538.8 Q367.525 1543.92 364.006 1546.72 Q360.488 1549.52 354.007 1549.52 Q351.831 1549.52 349.516 1549.08 Q347.224 1548.66 344.77 1547.81 L344.77 1543.29 Q346.715 1544.43 349.03 1545.01 Q351.345 1545.58 353.868 1545.58 Q358.266 1545.58 360.557 1543.85 Q362.872 1542.11 362.872 1538.8 Q362.872 1535.75 360.719 1534.03 Q358.59 1532.3 354.77 1532.3 L350.743 1532.3 L350.743 1528.45 L354.956 1528.45 Q358.405 1528.45 360.233 1527.09 Q362.062 1525.7 362.062 1523.11 Q362.062 1520.45 360.164 1519.03 Q358.289 1517.6 354.77 1517.6 Q352.849 1517.6 350.65 1518.01 Q348.451 1518.43 345.812 1519.31 L345.812 1515.14 Q348.474 1514.4 350.789 1514.03 Q353.127 1513.66 355.187 1513.66 Q360.511 1513.66 363.613 1516.09 Q366.715 1518.5 366.715 1522.62 Q366.715 1525.49 365.071 1527.48 Q363.428 1529.45 360.395 1530.21 Z" fill="#000000" fill-rule="nonzero" fill-opacity="1" /><path clip-path="url(#clip990)" d="M386.391 1517.37 Q382.78 1517.37 380.951 1520.93 Q379.145 1524.47 379.145 1531.6 Q379.145 1538.71 380.951 1542.27 Q382.78 1545.82 386.391 1545.82 Q390.025 1545.82 391.83 1542.27 Q393.659 1538.71 393.659 1531.6 Q393.659 1524.47 391.83 1520.93 Q390.025 1517.37 386.391 1517.37 M386.391 1513.66 Q392.201 1513.66 395.256 1518.27 Q398.335 1522.85 398.335 1531.6 Q398.335 1540.33 395.256 1544.94 Q392.201 1549.52 386.391 1549.52 Q380.58 1549.52 377.502 1544.94 Q374.446 1540.33 374.446 1531.6 Q374.446 1522.85 377.502 1518.27 Q380.58 1513.66 386.391 1513.66 Z" fill="#000000" fill-rule="nonzero" fill-opacity="1" /><path clip-path="url(#clip990)" d="M786.3 1517.37 Q782.688 1517.37 780.86 1520.93 Q779.054 1524.47 779.054 1531.6 Q779.054 1538.71 780.86 1542.27 Q782.688 1545.82 786.3 1545.82 Q789.934 1545.82 791.739 1542.27 Q793.568 1538.71 793.568 1531.6 Q793.568 1524.47 791.739 1520.93 Q789.934 1517.37 786.3 1517.37 M786.3 1513.66 Q792.11 1513.66 795.165 1518.27 Q798.244 1522.85 798.244 1531.6 Q798.244 1540.33 795.165 1544.94 Q792.11 1549.52 786.3 1549.52 Q780.489 1549.52 777.411 1544.94 Q774.355 1540.33 774.355 1531.6 Q774.355 1522.85 777.411 1518.27 Q780.489 1513.66 786.3 1513.66 Z" fill="#000000" fill-rule="nonzero" fill-opacity="1" /><path clip-path="url(#clip990)" d="M1209.04 1530.21 Q1212.4 1530.93 1214.28 1533.2 Q1216.17 1535.47 1216.17 1538.8 Q1216.17 1543.92 1212.66 1546.72 Q1209.14 1549.52 1202.66 1549.52 Q1200.48 1549.52 1198.16 1549.08 Q1195.87 1548.66 1193.42 1547.81 L1193.42 1543.29 Q1195.36 1544.43 1197.68 1545.01 Q1199.99 1545.58 1202.52 1545.58 Q1206.91 1545.58 1209.21 1543.85 Q1211.52 1542.11 1211.52 1538.8 Q1211.52 1535.75 1209.37 1534.03 Q1207.24 1532.3 1203.42 1532.3 L1199.39 1532.3 L1199.39 1528.45 L1203.6 1528.45 Q1207.05 1528.45 1208.88 1527.09 Q1210.71 1525.7 1210.71 1523.11 Q1210.71 1520.45 1208.81 1519.03 Q1206.94 1517.6 1203.42 1517.6 Q1201.5 1517.6 1199.3 1518.01 Q1197.1 1518.43 1194.46 1519.31 L1194.46 1515.14 Q1197.12 1514.4 1199.44 1514.03 Q1201.78 1513.66 1203.84 1513.66 Q1209.16 1513.66 1212.26 1516.09 Q1215.36 1518.5 1215.36 1522.62 Q1215.36 1525.49 1213.72 1527.48 Q1212.08 1529.45 1209.04 1530.21 Z" fill="#000000" fill-rule="nonzero" fill-opacity="1" /><path clip-path="url(#clip990)" d="M1235.04 1517.37 Q1231.43 1517.37 1229.6 1520.93 Q1227.79 1524.47 1227.79 1531.6 Q1227.79 1538.71 1229.6 1542.27 Q1231.43 1545.82 1235.04 1545.82 Q1238.67 1545.82 1240.48 1542.27 Q1242.31 1538.71 1242.31 1531.6 Q1242.31 1524.47 1240.48 1520.93 Q1238.67 1517.37 1235.04 1517.37 M1235.04 1513.66 Q1240.85 1513.66 1243.9 1518.27 Q1246.98 1522.85 1246.98 1531.6 Q1246.98 1540.33 1243.9 1544.94 Q1240.85 1549.52 1235.04 1549.52 Q1229.23 1549.52 1226.15 1544.94 Q1223.09 1540.33 1223.09 1531.6 Q1223.09 1522.85 1226.15 1518.27 Q1229.23 1513.66 1235.04 1513.66 Z" fill="#000000" fill-rule="nonzero" fill-opacity="1" /><path clip-path="url(#clip990)" d="M1639.51 1529.7 Q1636.36 1529.7 1634.51 1531.86 Q1632.68 1534.01 1632.68 1537.76 Q1632.68 1541.49 1634.51 1543.66 Q1636.36 1545.82 1639.51 1545.82 Q1642.66 1545.82 1644.49 1543.66 Q1646.34 1541.49 1646.34 1537.76 Q1646.34 1534.01 1644.49 1531.86 Q1642.66 1529.7 1639.51 1529.7 M1648.79 1515.05 L1648.79 1519.31 Q1647.03 1518.48 1645.23 1518.04 Q1643.44 1517.6 1641.68 1517.6 Q1637.05 1517.6 1634.6 1520.72 Q1632.17 1523.85 1631.82 1530.17 Q1633.19 1528.15 1635.25 1527.09 Q1637.31 1526 1639.79 1526 Q1644.99 1526 1648 1529.17 Q1651.04 1532.32 1651.04 1537.76 Q1651.04 1543.08 1647.89 1546.3 Q1644.74 1549.52 1639.51 1549.52 Q1633.51 1549.52 1630.34 1544.94 Q1627.17 1540.33 1627.17 1531.6 Q1627.17 1523.41 1631.06 1518.55 Q1634.95 1513.66 1641.5 1513.66 Q1643.26 1513.66 1645.04 1514.01 Q1646.85 1514.36 1648.79 1515.05 Z" fill="#000000" fill-rule="nonzero" fill-opacity="1" /><path clip-path="url(#clip990)" d="M1669.09 1517.37 Q1665.48 1517.37 1663.65 1520.93 Q1661.85 1524.47 1661.85 1531.6 Q1661.85 1538.71 1663.65 1542.27 Q1665.48 1545.82 1669.09 1545.82 Q1672.73 1545.82 1674.53 1542.27 Q1676.36 1538.71 1676.36 1531.6 Q1676.36 1524.47 1674.53 1520.93 Q1672.73 1517.37 1669.09 1517.37 M1669.09 1513.66 Q1674.9 1513.66 1677.96 1518.27 Q1681.04 1522.85 1681.04 1531.6 Q1681.04 1540.33 1677.96 1544.94 Q1674.9 1549.52 1669.09 1549.52 Q1663.28 1549.52 1660.2 1544.94 Q1657.15 1540.33 1657.15 1531.6 Q1657.15 1522.85 1660.2 1518.27 Q1663.28 1513.66 1669.09 1513.66 Z" fill="#000000" fill-rule="nonzero" fill-opacity="1" /><path clip-path="url(#clip990)" d="M2063.13 1548.13 L2063.13 1543.87 Q2064.89 1544.7 2066.7 1545.14 Q2068.5 1545.58 2070.24 1545.58 Q2074.87 1545.58 2077.3 1542.48 Q2079.75 1539.36 2080.1 1533.01 Q2078.76 1535.01 2076.7 1536.07 Q2074.64 1537.13 2072.14 1537.13 Q2066.95 1537.13 2063.92 1534.01 Q2060.91 1530.86 2060.91 1525.42 Q2060.91 1520.1 2064.06 1516.88 Q2067.21 1513.66 2072.44 1513.66 Q2078.43 1513.66 2081.58 1518.27 Q2084.75 1522.85 2084.75 1531.6 Q2084.75 1539.77 2080.86 1544.66 Q2077 1549.52 2070.45 1549.52 Q2068.69 1549.52 2066.88 1549.17 Q2065.08 1548.82 2063.13 1548.13 M2072.44 1533.48 Q2075.59 1533.48 2077.41 1531.32 Q2079.27 1529.17 2079.27 1525.42 Q2079.27 1521.7 2077.41 1519.54 Q2075.59 1517.37 2072.44 1517.37 Q2069.29 1517.37 2067.44 1519.54 Q2065.61 1521.7 2065.61 1525.42 Q2065.61 1529.17 2067.44 1531.32 Q2069.29 1533.48 2072.44 1533.48 Z" fill="#000000" fill-rule="nonzero" fill-opacity="1" /><path clip-path="url(#clip990)" d="M2103.16 1517.37 Q2099.54 1517.37 2097.72 1520.93 Q2095.91 1524.47 2095.91 1531.6 Q2095.91 1538.71 2097.72 1542.27 Q2099.54 1545.82 2103.16 1545.82 Q2106.79 1545.82 2108.59 1542.27 Q2110.42 1538.71 2110.42 1531.6 Q2110.42 1524.47 2108.59 1520.93 Q2106.79 1517.37 2103.16 1517.37 M2103.16 1513.66 Q2108.97 1513.66 2112.02 1518.27 Q2115.1 1522.85 2115.1 1531.6 Q2115.1 1540.33 2112.02 1544.94 Q2108.97 1549.52 2103.16 1549.52 Q2097.35 1549.52 2094.27 1544.94 Q2091.21 1540.33 2091.21 1531.6 Q2091.21 1522.85 2094.27 1518.27 Q2097.35 1513.66 2103.16 1513.66 Z" fill="#000000" fill-rule="nonzero" fill-opacity="1" /><polyline clip-path="url(#clip990)" style="stroke:#000000; stroke-linecap:round; stroke-linejoin:round; stroke-width:4; stroke-opacity:1; fill:none" points="140.51,1486.45 140.51,47.2441 "/>
<polyline clip-path="url(#clip990)" style="stroke:#000000; stroke-linecap:round; stroke-linejoin:round; stroke-width:4; stroke-opacity:1; fill:none" points="140.51,1180.08 159.408,1180.08 "/>
<polyline clip-path="url(#clip990)" style="stroke:#000000; stroke-linecap:round; stroke-linejoin:round; stroke-width:4; stroke-opacity:1; fill:none" points="140.51,872.484 159.408,872.484 "/>
<polyline clip-path="url(#clip990)" style="stroke:#000000; stroke-linecap:round; stroke-linejoin:round; stroke-width:4; stroke-opacity:1; fill:none" points="140.51,564.891 159.408,564.891 "/>
<polyline clip-path="url(#clip990)" style="stroke:#000000; stroke-linecap:round; stroke-linejoin:round; stroke-width:4; stroke-opacity:1; fill:none" points="140.51,257.297 159.408,257.297 "/>
<path clip-path="url(#clip990)" d="M92.566 1165.88 Q88.9549 1165.88 87.1262 1169.44 Q85.3206 1172.98 85.3206 1180.11 Q85.3206 1187.22 87.1262 1190.78 Q88.9549 1194.32 92.566 1194.32 Q96.2002 1194.32 98.0058 1190.78 Q99.8345 1187.22 99.8345 1180.11 Q99.8345 1172.98 98.0058 1169.44 Q96.2002 1165.88 92.566 1165.88 M92.566 1162.17 Q98.3761 1162.17 101.432 1166.78 Q104.51 1171.36 104.51 1180.11 Q104.51 1188.84 101.432 1193.45 Q98.3761 1198.03 92.566 1198.03 Q86.7558 1198.03 83.6771 1193.45 Q80.6216 1188.84 80.6216 1180.11 Q80.6216 1171.36 83.6771 1166.78 Q86.7558 1162.17 92.566 1162.17 Z" fill="#000000" fill-rule="nonzero" fill-opacity="1" /><path clip-path="url(#clip990)" d="M57.4273 885.829 L73.7466 885.829 L73.7466 889.764 L51.8023 889.764 L51.8023 885.829 Q54.4643 883.074 59.0476 878.445 Q63.6541 873.792 64.8346 872.449 Q67.08 869.926 67.9596 868.19 Q68.8624 866.431 68.8624 864.741 Q68.8624 861.986 66.918 860.25 Q64.9967 858.514 61.8948 858.514 Q59.6958 858.514 57.2421 859.278 Q54.8115 860.042 52.0338 861.593 L52.0338 856.871 Q54.8578 855.736 57.3115 855.158 Q59.7652 854.579 61.8023 854.579 Q67.1726 854.579 70.367 857.264 Q73.5614 859.949 73.5614 864.44 Q73.5614 866.57 72.7513 868.491 Q71.9642 870.389 69.8578 872.982 Q69.2791 873.653 66.1772 876.87 Q63.0754 880.065 57.4273 885.829 Z" fill="#000000" fill-rule="nonzero" fill-opacity="1" /><path clip-path="url(#clip990)" d="M83.6077 855.204 L101.964 855.204 L101.964 859.139 L87.8901 859.139 L87.8901 867.611 Q88.9086 867.264 89.9271 867.102 Q90.9456 866.917 91.9641 866.917 Q97.7511 866.917 101.131 870.088 Q104.51 873.259 104.51 878.676 Q104.51 884.255 101.038 887.357 Q97.566 890.435 91.2465 890.435 Q89.0706 890.435 86.8021 890.065 Q84.5568 889.694 82.1494 888.954 L82.1494 884.255 Q84.2327 885.389 86.4549 885.945 Q88.6771 886.5 91.1539 886.5 Q95.1586 886.5 97.4965 884.394 Q99.8345 882.287 99.8345 878.676 Q99.8345 875.065 97.4965 872.958 Q95.1586 870.852 91.1539 870.852 Q89.279 870.852 87.404 871.269 Q85.5521 871.685 83.6077 872.565 L83.6077 855.204 Z" fill="#000000" fill-rule="nonzero" fill-opacity="1" /><path clip-path="url(#clip990)" d="M52.4505 547.611 L70.8068 547.611 L70.8068 551.546 L56.7328 551.546 L56.7328 560.018 Q57.7513 559.671 58.7699 559.509 Q59.7884 559.324 60.8069 559.324 Q66.5939 559.324 69.9735 562.495 Q73.3531 565.666 73.3531 571.083 Q73.3531 576.661 69.8809 579.763 Q66.4087 582.842 60.0893 582.842 Q57.9134 582.842 55.6449 582.472 Q53.3995 582.101 50.9921 581.36 L50.9921 576.661 Q53.0754 577.796 55.2977 578.351 Q57.5199 578.907 59.9967 578.907 Q64.0013 578.907 66.3393 576.8 Q68.6772 574.694 68.6772 571.083 Q68.6772 567.472 66.3393 565.365 Q64.0013 563.259 59.9967 563.259 Q58.1217 563.259 56.2467 563.675 Q54.3949 564.092 52.4505 564.972 L52.4505 547.611 Z" fill="#000000" fill-rule="nonzero" fill-opacity="1" /><path clip-path="url(#clip990)" d="M92.566 550.689 Q88.9549 550.689 87.1262 554.254 Q85.3206 557.796 85.3206 564.925 Q85.3206 572.032 87.1262 575.597 Q88.9549 579.138 92.566 579.138 Q96.2002 579.138 98.0058 575.597 Q99.8345 572.032 99.8345 564.925 Q99.8345 557.796 98.0058 554.254 Q96.2002 550.689 92.566 550.689 M92.566 546.986 Q98.3761 546.986 101.432 551.592 Q104.51 556.175 104.51 564.925 Q104.51 573.652 101.432 578.259 Q98.3761 582.842 92.566 582.842 Q86.7558 582.842 83.6771 578.259 Q80.6216 573.652 80.6216 564.925 Q80.6216 556.175 83.6771 551.592 Q86.7558 546.986 92.566 546.986 Z" fill="#000000" fill-rule="nonzero" fill-opacity="1" /><path clip-path="url(#clip990)" d="M52.219 240.017 L74.4411 240.017 L74.4411 242.008 L61.8948 274.577 L57.0106 274.577 L68.8161 243.952 L52.219 243.952 L52.219 240.017 Z" fill="#000000" fill-rule="nonzero" fill-opacity="1" /><path clip-path="url(#clip990)" d="M83.6077 240.017 L101.964 240.017 L101.964 243.952 L87.8901 243.952 L87.8901 252.425 Q88.9086 252.077 89.9271 251.915 Q90.9456 251.73 91.9641 251.73 Q97.7511 251.73 101.131 254.902 Q104.51 258.073 104.51 263.489 Q104.51 269.068 101.038 272.17 Q97.566 275.249 91.2465 275.249 Q89.0706 275.249 86.8021 274.878 Q84.5568 274.508 82.1494 273.767 L82.1494 269.068 Q84.2327 270.202 86.4549 270.758 Q88.6771 271.313 91.1539 271.313 Q95.1586 271.313 97.4965 269.207 Q99.8345 267.101 99.8345 263.489 Q99.8345 259.878 97.4965 257.772 Q95.1586 255.665 91.1539 255.665 Q89.279 255.665 87.404 256.082 Q85.5521 256.499 83.6077 257.378 L83.6077 240.017 Z" fill="#000000" fill-rule="nonzero" fill-opacity="1" /><polyline clip-path="url(#clip992)" style="stroke:#0000ff; stroke-linecap:round; stroke-linejoin:round; stroke-width:4; stroke-opacity:1; fill:none" points="203.416,717.533 227.374,722.901 231.818,718.695 251.885,716.38 261.268,716.51 282.949,719.993 303.077,723.888 329.156,725.742 356.155,728.127 386.917,733.277 416.099,733.112 440.745,732.959 477.094,734.292 498.881,740.614 521.398,744.993 556.607,748.379 582.663,749.959 604.083,754.42 633.107,761.244 656.597,768.844 679.419,776.942 702.578,783.1 730.847,789.377 753.845,797.795 779.634,803.008 810.79,811.25 833.57,810.508 868.221,812.988 893.347,821.676 919.635,829.692 950.236,839.415 974.416,847.966 1000.41,854.882 1018.65,865.032 1035.93,877.29 1043.34,882.819 1065.21,885.355 1082.91,886.968 1105.82,888.041 1132.1,891.182 1159.01,901.417 1186.02,911.73 1207.54,916.574 1233.26,919.97 1266.36,921.49 1295.56,922.759 1328.38,927.295 1356.04,932.769 1381.54,936.313 1406.26,938.603 1438.84,938.303 1462.91,937.775 1489.81,936.663 1516.44,933.787 1546.34,928.965 1575.45,929.649 1602.79,928.019 1628.14,928.549 1648.55,921.955 1666.45,918.798 1683.52,911.939 1701.51,905.756 1722.87,905.396 1746.1,903.601 1768.53,905.965 1787.85,909.355 1809.35,916.452 1828.8,928.504 1850.51,940.945 1866.08,951.799 1881.76,968.119 1892.11,982.007 1899.93,996.569 1909.37,1015.84 1920.89,1033.5 1933.65,1052.19 1944.69,1062.13 1963.73,1069 1978.33,1071.4 1988.36,1070.35 2011.57,1063.31 2027.63,1057.52 2048.64,1037.02 2059.52,1021.09 2062.78,1000.44 2063.4,982.18 2061.23,961.083 2046.81,946.533 2027.73,940.138 2004.8,931.005 1977.39,932.264 1952.38,931.417 1931.8,928.558 1914.05,925.779 1891.96,923.409 1872.31,929.992 1850.29,937.008 1834.3,944.944 1811.02,947.11 1785.57,946.374 1757.87,941.214 1735.64,929.94 1712.82,918.686 1681.48,903.496 1655.93,885.999 1633.45,867.772 1618.81,853.037 1608.39,840.632 1591.65,827.319 1576.68,810.847 1564.86,795.144 1557.16,778.899 1557.64,763.222 1571.5,747.968 1585.67,735.194 1607.93,727.126 1627.04,728.831 1654.47,731.543 1672.03,745.942 1693.61,751.927 1707.45,756.659 1730.01,762.608 1752.64,773.771 1764.24,782.908 1781.77,793.152 1800.59,803.996 1822.72,811.714 1843.72,812.439 1865.87,812.539 1889.52,805.436 1910.12,800.674 1926.08,800.509 1944.99,808.795 1962.29,821.177 1977.27,837.233 1986.66,853.32 1994.14,874.327 2002.04,896.447 2006.14,915.149 2005.51,935.725 2005.26,945.788 2008.4,958.915 2019.66,977.784 2027.23,995.793 2039.36,1009.96 2051.02,1016.11 2063.37,1019.43 2082.73,1013.82 2102.05,1006.05 2115.14,997.574 2131.55,985.302 2140.19,976.679 2143.45,957.301 2132.95,939.396 2115.67,921.729 2099.31,905.51 2075.62,894.798 2047.28,890.668 2019.54,887.281 2002.89,885.506 1979.65,883.84 1960.27,881.43 1942.3,870.499 1927.52,863.566 1905.18,857.199 1888.98,857.023 1866.05,860.129 1845.07,854.27 1824.28,848.997 1804.43,847.794 1779.73,844.42 1761.82,839.65 1745.22,835.242 1723.11,833.971 1695.26,835.945 1668.65,842.084 1653.39,840.447 1649.91,831.803 1644.91,829.043 1637.87,827.582 1626.34,826.945 1617.59,825.954 1603.54,830.342 1588.65,837.342 1561.89,841.615 1540.41,844.8 1526.04,850.425 1517.29,859.479 1525.99,860.379 1544.64,858.195 1579.83,853.388 1594.01,835.082 1609.48,821.172 1614.47,805.28 1606.53,788.578 1592.01,770.105 1580.68,759.567 1570.69,739.036 1550.8,729.159 1529.45,740.871 1506.51,740.744 1478.13,734.494 1475.68,716.434 1470.65,697.187 1472.01,676.674 1476.77,660.574 1491.87,638.541 1499.04,618.365 1503.48,595.682 1485.08,583.278 1462.7,575.133 1452.51,572.886 1464.41,560.178 1485.96,549.613 1521.26,548.719 1559.2,533.533 1585.01,517.214 1604.19,494.075 1617.88,472.683 1639.29,463.936 1665.65,467.305 1689.49,472.54 1709.01,489.99 1736.62,503.121 1756.8,519.403 1766.55,540.529 1753.94,556.913 1735.47,573.726 1708.1,586.707 1674.97,593.019 1649.05,592.294 1614.6,576.978 1588.67,560.811 1579.69,539.292 1578.55,518.033 1597.13,503.416 1613.02,493.008 1635.48,478.814 1660.17,470.065 1681.79,454.636 1704.72,441.828 1725.26,441.387 1748.43,427.685 1751.3,412.308 1762.19,395.012 1775.03,389.933 1791.58,373.062 1784.09,358.208 1762.14,348.411 1758.47,347.023 1770.76,342.381 1796.42,336.35 1825.76,341.601 1851.11,344.171 1878.8,349.071 1901.58,367.549 1904.25,385.39 1901.25,398.361 1878.25,408.737 1863.3,431.479 1848.51,459.114 1838.18,491.898 1839.88,512.085 1804.36,514.56 1779.83,529.591 1747.34,535.955 1717.17,552.863 1700.63,578.657 1681.31,596.004 1653.15,590.892 1630.58,578.673 1602.76,570.239 1588.06,557.21 1562.25,541.603 1553.42,533.375 1562.16,511.677 1586.44,502.847 1621.14,497.661 1650.46,501.654 1686.18,508.687 1714.6,522.968 1721.99,544.914 1735.8,565.536 1752.4,570.431 1779.11,574.873 1803.24,584.946 1813.9,588.437 1839.19,580.194 1863.78,571.846 1882.65,562.052 1903.59,565.6 1923.54,580.981 1921.49,599.072 1922.4,620.16 1909.33,652.13 1885.57,676.929 1862.88,696.73 1839.39,726.602 1838.81,751.458 1803.23,763.07 1774.18,768.617 1746.44,783.653 1720.39,798.061 1702.81,816.368 1686.98,837.077 1661.25,860.709 1633.88,868.721 1607.07,859.98 1582.31,854.758 1550.81,850.532 1522.55,841.621 1503.01,820.183 1488.51,799.996 1457.98,777.004 1440.45,757.98 1415.26,741.521 1390.52,739.373 1359.48,745.239 1340.82,742.307 1315.65,733.629 1311.43,707.755 1292.89,700.13 1268.72,703.969 1250.36,713.292 1225.78,729.559 1219.35,736.937 1189.53,739.597 1165.5,745.27 1139.55,738.307 1118.98,720.448 1095.47,707.574 1061.29,701.977 1029.22,692.787 1005.85,688.259 985.392,677.972 964.221,656.924 965.853,642.735 975.289,624.489 990.061,603.429 1002.16,580.742 1008.8,550.558 1016.01,525.57 999.756,504.929 979.924,500.554 970.264,489.878 974.59,476.432 1001.87,475.8 1039.35,479.571 1082.37,477.608 1113.72,473.01 1139.82,454.341 1165.27,429.467 1190.74,410.535 1221.96,404.289 1260.66,407.249 1293.02,418.814 1324.06,434.202 1354.08,447.464 1380.9,458.904 1403.46,472.705 1439.44,480.905 1465.66,494.246 1492.54,517.025 1522.78,544.842 1550.42,559.798 1574.64,571.486 1593.36,581.707 1603.03,570.041 1624.51,562.514 1650.86,548.896 1673.8,537.946 1704.53,527.548 1738.1,526.045 1773.85,535.24 1801.13,560.851 1806.82,583.318 1803.37,614.982 1784.34,647.515 1783.04,674.186 1774.9,705.6 1775.39,740.636 1791.83,771.047 1823.53,796.522 1863.14,792.685 1884.78,796.159 1915.55,803.392 1934.87,824.878 1961.19,851.011 1983.15,882.83 1993.68,915.876 1998.3,937.533 2014.92,920.581 2051.66,925.635 2079.1,932.469 2091.5,947.665 2093.73,950.712 2093.25,956.098 2097.6,973.153 2101.67,978.934 2115.56,981.892 2132.31,983.889 2161.86,977.795 2190.3,988.14 2202.34,1001.43 2216.42,1023.31 2215.89,1036.59 2218.78,1022.34 2224.96,1002.93 2223.54,975.568 2212.37,949.826 2196.45,925.869 2185.84,903.838 2186.52,883.919 2159.73,862.296 2151.83,830.903 2157.62,805.593 2175.68,794.632 2196.52,797.761 2220.75,806.291 2237.22,818.782 2249.82,838.706 2275.45,861.694 2289.87,883.152 2279.97,909.956 2260.54,931.92 2242.25,952.146 2211.96,964.213 2193.01,983.253 2165.64,995.677 2138.72,1018.67 2119.01,1040.98 2108.68,1064.55 2088.48,1087.04 2071.26,1110.07 2044.7,1126.61 2018.55,1137.58 1988.31,1154.2 1962.45,1172.48 1933.41,1180.17 1904.08,1199.87 1888.44,1217.04 1856.12,1229.53 1837.06,1243.79 1819.05,1263.43 1801.82,1291.35 1793.98,1312 1787.86,1331.92 1781.69,1356.65 1805.48,1377.41 1814.52,1392.82 1807.58,1416.3 1799.32,1442.89 1778.08,1445.72 1755.36,1442.61 1733.73,1424.24 1720.91,1397.94 1706.71,1375.64 1682.82,1352.8 1644.34,1327.4 1612.56,1319.93 1578.16,1319.67 1541.22,1326.51 1498.9,1335.87 1472.39,1337.34 1438.5,1326.2 1412.95,1313.69 1393.29,1289.31 1391.07,1255.75 1385.81,1215.99 1364.46,1189.13 1342.49,1167.87 1349.4,1136.42 1346.73,1108.49 1338.11,1084.53 1326.76,1055.94 1307.49,1031.57 1302.81,1004.86 1308,971.991 1317.44,938.274 1336.28,909.431 1352.81,878.411 1365,846.226 1392.73,824.769 1387.29,797.017 1371.91,772.33 1341.9,749.81 1308.84,747.357 1287.6,733.403 1280.11,708.043 1276.82,675.193 1290.13,648.158 1303.65,625.932 1325.56,617.783 1357.98,606.576 1394.75,600.119 1435.15,596.603 1473.99,596.67 1503.61,589.79 1526.47,562.945 1544.24,541.106 1572.3,528.674 1594.98,523.276 1596.84,506.78 1582.91,493.733 1561.02,478.121 1535.32,465.741 1506.7,438.499 1483.7,413.273 1470.17,387.101 1453.21,366.832 1450.7,349.042 1457.83,328.276 1475.47,318.78 1492.93,329.166 1523.73,333.238 1563.5,336.258 1598.51,344.377 1640.26,350.277 1673.23,354.031 1704.34,368.928 1728.93,374.639 1753.96,367.127 1778.22,356.481 1808.99,351.384 1842.36,350.797 1873.79,345.981 1896.57,362.038 1908.24,377.856 1912.56,370.534 1922.52,354.931 1941.1,338.11 1959.33,326.199 1983.3,311.697 2003.2,303.534 1990.3,304.816 1967.87,291.966 1957.85,274.119 1947.26,245.048 1950.8,216.016 1963.27,200.729 1991.64,190.792 2025.2,194.088 2051.09,198.019 2085.19,203.246 2120.75,215.362 2143.91,238.186 2148.09,267.085 2140.54,293.474 2128.81,303.135 2134.88,318.887 2137.88,341.05 2132.73,372.662 2103.93,389.906 2084.17,425.611 2055.37,446.186 2033.24,472.453 2025.99,507.471 1999.41,513.841 1964.16,515.635 1928.85,528.262 1897.51,541.74 1882.22,568.998 1870.51,600.081 1869.3,617.074 1896.66,621.821 1926.28,635.233 1964.4,649.871 1998.8,674.535 2026.98,689.324 2065.81,693.709 2100.82,693.517 2139.01,688.916 2168.17,694.872 2194.27,694.381 2203.99,678.623 2218.46,660.001 2234.48,639.476 2232.35,613.44 2228.77,594.352 2219.52,570.457 2192.91,549.377 2171.21,530.423 2146.22,516.25 2105.55,518.061 2078.71,524.327 2054.38,542.423 2037.66,561.926 2011.07,587.297 2007.06,617.147 2013.05,648.419 2016.36,678.42 2033.33,704.964 2046.5,729.99 2059.89,763.791 2076.38,794.16 2107.69,805.956 2137.72,823.481 2163.68,851.952 2183.37,874.932 2197.78,906.535 2205.77,931.765 2201.34,943.028 2169.68,944.529 2132.21,957.41 2104.73,955.491 2089.06,963.05 2070.1,968.104 2047.82,963.012 2016.13,949.096 1984.84,940.322 1948.83,943.543 1903.92,956.363 1864.65,970.472 1825.82,971.048 1782.58,979.462 1744.57,980.184 1705.92,980.327 1675.11,975.446 1640.08,980.054 1607.53,973.832 1574.27,965.404 1539.13,935.42 1510.67,920.096 1473.03,912.897 1439.82,897.989 1409.65,881.567 1378.75,860.188 1351.5,852.803 1325.7,867.21 1300.34,883.743 1271.27,899.786 1232.72,916.991 1194.75,924.906 1165.21,920.115 1137.8,896.644 1119.32,872.859 1101.81,842.451 1076.71,816.622 1064.51,786.316 1060.09,758.086 1064.07,734.936 1049.87,705.965 1026.27,688.963 998.443,677.562 978.129,655.467 969.48,624.352 967.396,600.313 955.818,572.716 964.973,545.777 985.973,519.02 998.778,502.426 1011.8,494.84 1021.88,481.688 1025.31,465.034 1032.58,441.025 1040.18,416.875 1044.63,387.802 1056.75,355.382 1057.03,331.913 1034.46,313.77 1014.81,299.924 987.115,299.201 959.268,309.018 931.142,304.957 899.511,290.395 862.526,275.972 839.26,269.704 816.328,265.628 801.991,247.69 800.364,226.526 815.426,207.887 838.584,189.133 862.56,171.773 906.072,160.887 937.291,148.171 970.411,141.898 999.836,154.063 1027.63,159.905 1061.94,155.733 1097.46,150.386 1116.79,129.056 1133.24,109.235 1145.8,87.9763 "/>
<polyline clip-path="url(#clip992)" style="stroke:#ff0000; stroke-linecap:round; stroke-linejoin:round; stroke-width:4; stroke-opacity:1; fill:none" points="203.121,717.568 234.087,723.966 236.748,715.07 258.284,716.374 261.727,717.075 289.251,722.772 306.448,726.328 335.75,726.082 360.729,728.1 391.709,734.498 418.467,730.585 440.003,731.877 483.089,734.485 495.094,743.27 520.086,745.276 563.187,747.884 581.295,748.475 601.096,755.722 635.562,762.833 655.377,770.08 678.648,778.04 702.788,783.024 733.826,789.434 752.788,799.658 781.266,802.39 814.923,812.503 831.324,806.425 873.629,812.011 891.752,825.225 919.377,830.934 953.077,841.048 972.95,848.307 1000.6,854.016 1015.3,866.529 1033.48,879.755 1036.94,880.469 1069.78,880.937 1083.61,883.803 1108.69,885.821 1136.37,891.542 1161.49,906.221 1188.34,914.92 1206.5,915.522 1235.06,918.266 1271.4,919.447 1296.5,921.477 1331.14,928.638 1355.41,933.658 1380.5,935.676 1405.61,937.706 1442.81,935.922 1460.99,936.513 1490.41,936.279 1517.21,932.329 1548.3,926.128 1576.04,931.849 1602.83,927.912 1627.95,929.942 1646,917.885 1664.18,918.475 1681.38,909.407 1701.22,904.031 1725.51,909.051 1748.81,904.388 1769.64,908.682 1786.98,912.262 1810.45,920.259 1828.81,933.51 1851.46,944.498 1863.71,953.344 1880.43,972.587 1888.38,983.71 1895.51,997.822 1907.95,1019.37 1922.05,1034.93 1935.33,1053.5 1944.95,1058.65 1969.3,1063.7 1979.75,1065.85 1987.54,1064.29 2016.01,1054.35 2027.26,1053.5 2049.36,1026.43 2055.3,1018.16 2054.06,995.78 2058.14,980.831 2056.91,958.475 2037.69,948.201 2020.3,944.608 1997.62,933.621 1970.01,940.548 1949.17,936.254 1932.62,929.684 1915.27,926.104 1890.13,924.073 1872.12,936.143 1848.81,940.794 1835.92,947.611 1807.31,944.854 1782.18,942.837 1754.41,937.103 1736.07,923.852 1712.61,915.855 1676.94,899.023 1656,882.093 1635.07,865.163 1623.7,853.376 1612.35,841.577 1590.59,827.649 1577.46,809.206 1566.95,794.466 1560.74,777.462 1564.92,762.612 1583.77,747.638 1594.02,737.18 1617.28,732.554 1631.11,735.396 1660.45,735.162 1674.42,750.591 1695.19,754.873 1705.58,757.001 1733.28,762.71 1755.03,776.601 1760.31,783.971 1782.9,794.909 1802.03,805.146 1826.29,810.141 1845.27,807.754 1866.89,809.058 1891.79,798.465 1909.95,799.068 1923.82,801.922 1945.63,815.838 1960.51,828.338 1974.58,843.816 1981.71,857.867 1990.7,878.611 1999.68,899.368 2002.53,915.719 2000.27,937.325 2002.93,941.028 2009.27,958.118 2025.22,980.351 2028.08,996.739 2043.01,1009.3 2053.45,1011.47 2067.37,1014.33 2088.03,1005.95 2104.39,999.852 2113.79,992.31 2131.79,980.228 2136.89,974.974 2136.43,949.628 2121.49,937.079 2103.89,920.838 2093.26,906.049 2069.75,898.051 2041.14,895.307 2016.83,890.3 2006.42,888.147 1977.82,885.415 1960.47,881.835 1942.92,865.618 1929.04,862.764 1901.28,857.043 1889.23,860.857 1862.48,864.794 1844.14,851.568 1823.32,847.286 1804.33,849.661 1776.61,843.952 1763.56,838.12 1746.23,834.539 1720.32,835.499 1690.1,838.722 1665.98,846.339 1657.26,838.243 1657.11,825.619 1649.36,827.169 1638.14,828.006 1623.44,828.129 1616.51,826.702 1599.32,835.745 1586.43,842.537 1553.58,842.069 1538.05,845.157 1528.6,852.663 1521.79,863.871 1537.33,860.771 1556.32,858.384 1587.38,852.183 1596.68,832.054 1611.25,819.32 1615.41,804.444 1605.74,786.727 1589.15,767.595 1580.43,759.511 1568.97,735.174 1549.06,727.927 1526.75,742.187 1505.17,740.883 1474.05,734.473 1475.62,715.956 1470.29,696.036 1472.7,674.578 1476.88,659.765 1494.77,635.256 1499.79,617.501 1503.03,593.14 1484.01,582.977 1460.7,575.066 1453.8,573.651 1465.72,557.348 1490.59,546.829 1530.2,548.711 1567.89,531.474 1586.67,516.598 1604.49,492.188 1617.19,472.982 1637.73,464.726 1666.14,467.433 1690.26,472.367 1710.26,492.04 1739.64,504.295 1757.05,520.339 1765.91,540.874 1754.06,557.164 1734.48,575.004 1705.35,587.776 1670.97,593.226 1649.42,591.934 1610.48,574.561 1588.83,560.744 1580.02,540.197 1578.95,518.136 1597.72,503.274 1611.38,493.603 1637.86,477.214 1661.86,469.672 1684.88,452.582 1706.23,441.398 1724.28,441.976 1750.72,425.612 1750.57,413.149 1763.21,393.979 1775.19,390.215 1795.54,369.532 1784.23,357.905 1758.33,346.401 1774.57,340.421 1805.38,334.306 1832.09,342.857 1853.57,344.149 1881.11,349.772 1904.58,370.086 1903.94,385.478 1900.67,397.228 1875.1,410.639 1860.84,435.701 1845.76,463.729 1836.73,496.137 1840.36,509.352 1799.11,513.363 1779.56,531.191 1745.21,536.629 1714.44,555.281 1700.1,580.455 1681.32,595.355 1653.7,589.683 1631.19,578.818 1600.96,569.48 1589.65,557.791 1558.5,538.905 1555.88,535.251 1563.37,508.699 1590.83,501.859 1628.62,497.134 1652.74,502.08 1690.68,509.856 1715.8,524.362 1721.2,544.183 1736.95,566.146 1750.76,568.975 1781.84,575.349 1804.36,586.225 1811.28,587.64 1843.02,578.535 1867.03,570.969 1884.11,561.987 1904.84,566.232 1925.75,583.002 1920.85,600.744 1922.04,622.866 1904.48,659.937 1884.09,680.792 1861.03,697.992 1837.33,730.745 1839.31,749.976 1798.91,763.645 1775.65,768.284 1745.63,784.094 1719.87,797.653 1703.67,816.342 1686.63,838.009 1657.53,863.502 1634.23,868.153 1607.34,859.454 1583.09,854.447 1547.59,850.288 1520.74,841.589 1501.51,818.741 1488.41,800.298 1451.92,773.906 1441.45,759.179 1413.71,740.896 1392.11,739.591 1357.65,745.054 1343.82,742.2 1313.56,732.837 1310.81,703.997 1293.55,700.441 1266.83,704.366 1249.63,713.384 1222.12,732.849 1221.27,735.814 1183.33,740.563 1163.5,745.915 1136.73,737.241 1116.85,717.432 1094.38,706.519 1055.58,701.671 1025.39,692.308 1008.15,688.752 985.735,677.851 963.303,654.413 965.891,645.529 976.204,622.571 993.401,601.039 1003.7,578.117 1009.67,544.934 1015.66,524.288 999.302,505.304 982.105,501.772 970.925,490.109 975.206,475.381 1007.86,475.836 1046.54,480.659 1087.77,476.648 1114.4,472.748 1141.84,453.431 1167.51,427.544 1190.62,410.479 1221.5,404.364 1264.44,406.935 1293.7,419.153 1325.57,435.025 1354.86,447.255 1380.72,458.783 1402.3,472.563 1443.62,481.028 1465.21,494.821 1494.66,519.576 1526.74,548.01 1549.21,558.862 1571.71,569.726 1590.74,579.889 1600.14,572.433 1624.99,561.913 1654.96,546.201 1675.51,537.933 1708.07,525.888 1740.77,526.355 1777.91,537.084 1803.22,564.128 1806.01,580.307 1803.05,617.206 1782.8,650.598 1783.94,672.745 1774.03,708.328 1775.34,743.098 1792.97,771.852 1826.13,797.53 1864.07,792.768 1877.94,795.623 1916.06,803.46 1935.42,826.308 1964.37,854.299 1984.77,886.842 1994.76,917.27 1997.62,933.621 2012.13,920.85 2054.64,926.46 2078.97,931.468 2089.61,946.282 2092.27,949.985 2094.12,956.678 2099.66,976.758 2102.32,980.474 2119.72,984.054 2137.92,984.657 2169.82,975.442 2195.22,990.157 2203.23,1001.29 2218.45,1026.55 2216.01,1035.53 2220.07,1020.56 2225.74,999.606 2222.57,970.545 2210.86,946.036 2194.85,923.827 2185.81,903.059 2187.19,884.443 2153.84,858.691 2151.54,826.763 2157.21,805.933 2174.34,796.89 2195.96,798.206 2222.92,806.88 2237.86,819.381 2250.37,840.814 2280.28,865.84 2290.15,883.607 2278.62,912.717 2258.25,933.732 2242.16,952.495 2209.47,964.688 2193.36,983.464 2164.14,996.383 2135.13,1022 2118.99,1040.8 2108.98,1064.05 2087.7,1088.16 2070.71,1110 2044.08,1126.69 2019.07,1137.38 1984.62,1155.64 1961.44,1173.08 1933.74,1180.05 1901.9,1202.06 1890.8,1215.67 1853.63,1230.24 1839.02,1243.13 1818.42,1264.35 1798.81,1295.34 1794.66,1310.42 1788.83,1331.56 1781.34,1358.75 1808.62,1380.41 1813.11,1390.94 1805.62,1418.17 1798.12,1445.43 1779.8,1444.82 1754.48,1442.76 1730.69,1421.8 1719.91,1393.94 1706.62,1375.19 1680.21,1350.52 1636.39,1322.23 1614.6,1320.91 1578.04,1319.7 1538.95,1327.54 1495.51,1337.69 1477.23,1337.07 1436.23,1325.36 1413.52,1314.24 1391.59,1287.33 1390.48,1252 1384.1,1209.25 1363.98,1189.16 1343.88,1169.07 1349.75,1135.3 1346.12,1109.13 1338.16,1085.26 1324.96,1053.98 1305.77,1030.98 1302.15,1004.88 1308.88,968.293 1318.21,935.442 1337.07,907.759 1353.31,876.397 1366.06,844.345 1393.57,824.819 1386.49,798.169 1371.63,773.082 1338.67,747.429 1309.34,747.675 1291.14,734.498 1280.64,707.208 1276.15,671.761 1290.67,646.538 1303.47,627.246 1324.09,618.953 1361.05,604.632 1398.9,599.895 1440.2,595.871 1476.38,597.053 1500.42,589.473 1526.85,560.523 1543.04,541.981 1572.17,529.234 1591.91,523.919 1596.06,509.167 1582.15,493.849 1557.91,476.414 1532.02,464.874 1500.81,433.561 1481.71,410.983 1470.36,386.893 1453.9,367.982 1451.2,351.901 1457.86,328.425 1474.95,319.517 1493.91,329.594 1529.11,333.691 1572.02,336.25 1602.15,345.515 1644.25,351.015 1672.6,353.709 1704.54,369.557 1725.19,373.777 1752.58,366.96 1777.35,356.502 1811.61,351.089 1844.22,351.544 1875.03,345.429 1895.87,362.101 1906.39,376.656 1911.46,371.488 1924.06,352.344 1943.53,334.614 1960.57,325.694 1986.91,309.379 2003.1,303.387 1991.97,304.211 1963.43,289.102 1957.17,272.357 1944.66,238.879 1951.98,212.549 1962.09,202.263 1994.46,190.328 2029.63,194.401 2050.26,198.609 2088.89,203.382 2125.1,216.929 2144.35,239.383 2147.45,267.842 2140.2,294.196 2131.71,298.662 2133.77,317.659 2137.66,343.239 2131.42,379.178 2099,391.174 2080.79,430.94 2054.42,447.304 2032.49,473.929 2026.2,510.016 2003.86,511.665 1962.62,515.688 1925.84,529.973 1896.76,542.732 1881.67,570.846 1869.19,602.651 1870.19,612.223 1897.02,620.86 1929.14,636.831 1969.01,651.275 2002.19,676.867 2024.8,687.768 2067.16,693.329 2099.95,693.797 2141.3,689.761 2165.54,694.744 2191.42,693.785 2202.38,680.386 2219.23,658.817 2236.05,637.249 2232.12,611.448 2229.21,595.244 2218.35,568.053 2187.8,546.201 2170.29,530.157 2145.06,515.639 2096.91,518.247 2080.66,524.276 2053.44,543.642 2037.4,562.184 2007.7,590.433 2007.3,618.473 2012.98,650.906 2016.03,679.709 2034.58,705.436 2046.19,729.761 2061.49,767.422 2075.8,795.475 2106.2,804.875 2137.66,823.909 2165.89,854.877 2182.67,874.071 2198.9,908.903 2204.46,928.958 2202.03,937.915 2167.5,943.415 2126.23,960.148 2105.36,955.842 2092.49,962.658 2069.17,967.321 2044.85,962.301 2009.06,945.445 1981.26,939.712 1943.24,944.498 1894.96,959.791 1862.23,971.984 1825.83,970.791 1779.18,980.117 1746.26,979.637 1705.56,980.72 1677.78,974.986 1639.73,979.76 1608.49,973.313 1573.77,966.14 1532.76,929.229 1512.78,921.945 1471.18,913.357 1439.06,897.251 1410.41,881.872 1376.54,859.11 1355.75,854.828 1326.45,867.698 1299.75,884.259 1269.56,900.13 1227.29,919.816 1192.71,925.304 1168.47,920.296 1135.52,894.532 1119.88,872.361 1099.92,839.842 1073.95,815.567 1064.39,785.238 1060.87,759.339 1063.42,737.844 1047.83,703.209 1026.25,689.343 996.93,677.027 977.954,654.29 969.319,621.156 967.569,601.999 954.653,571.153 965.819,545.291 989.004,515.676 995.874,504.59 1008.75,497.872 1020.77,481.607 1025.89,463.939 1033.58,437.461 1040.41,413.936 1045.5,383.841 1059.15,349.329 1056.55,333.248 1033.36,312.972 1015.34,299.967 986.198,300.213 957.922,309.945 930.5,304.334 895.368,287.823 855.97,273.551 842.273,270.745 818.293,265.836 802.05,246.999 801.24,225.135 817.526,206.778 841.506,186.908 864.619,169.978 915.082,158.634 936.458,147.548 970.65,142.159 999.736,154.29 1027.11,159.876 1064.73,155.189 1098.93,149.812 1115.96,128.576 1132.15,110.268 1145.74,88.3671 "/>
<path clip-path="url(#clip990)" d="M214.252 1438.47 L760.776 1438.47 L760.776 1282.95 L214.252 1282.95  Z" fill="#ffffff" fill-rule="evenodd" fill-opacity="1"/>
<polyline clip-path="url(#clip990)" style="stroke:#000000; stroke-linecap:round; stroke-linejoin:round; stroke-width:4; stroke-opacity:1; fill:none" points="214.252,1438.47 760.776,1438.47 760.776,1282.95 214.252,1282.95 214.252,1438.47 "/>
<polyline clip-path="url(#clip990)" style="stroke:#0000ff; stroke-linecap:round; stroke-linejoin:round; stroke-width:4; stroke-opacity:1; fill:none" points="238.832,1334.79 386.315,1334.79 "/>
<path clip-path="url(#clip990)" d="M434.924 1338.05 L434.924 1340.13 L415.34 1340.13 Q415.618 1344.53 417.979 1346.84 Q420.363 1349.13 424.6 1349.13 Q427.053 1349.13 429.345 1348.53 Q431.66 1347.93 433.928 1346.73 L433.928 1350.75 Q431.637 1351.73 429.229 1352.24 Q426.822 1352.75 424.345 1352.75 Q418.141 1352.75 414.507 1349.13 Q410.896 1345.52 410.896 1339.37 Q410.896 1333 414.322 1329.27 Q417.771 1325.52 423.604 1325.52 Q428.836 1325.52 431.868 1328.9 Q434.924 1332.26 434.924 1338.05 M430.664 1336.8 Q430.618 1333.3 428.697 1331.22 Q426.799 1329.13 423.65 1329.13 Q420.086 1329.13 417.933 1331.15 Q415.803 1333.16 415.479 1336.82 L430.664 1336.8 Z" fill="#000000" fill-rule="nonzero" fill-opacity="1" /><path clip-path="url(#clip990)" d="M458.442 1326.91 L458.442 1330.94 Q456.636 1330.01 454.692 1329.55 Q452.748 1329.09 450.664 1329.09 Q447.493 1329.09 445.896 1330.06 Q444.322 1331.03 444.322 1332.98 Q444.322 1334.46 445.456 1335.32 Q446.59 1336.15 450.016 1336.91 L451.474 1337.24 Q456.011 1338.21 457.91 1339.99 Q459.831 1341.75 459.831 1344.92 Q459.831 1348.53 456.96 1350.64 Q454.113 1352.75 449.113 1352.75 Q447.03 1352.75 444.761 1352.33 Q442.516 1351.94 440.016 1351.13 L440.016 1346.73 Q442.377 1347.95 444.669 1348.58 Q446.961 1349.18 449.206 1349.18 Q452.215 1349.18 453.836 1348.16 Q455.456 1347.12 455.456 1345.25 Q455.456 1343.51 454.275 1342.58 Q453.118 1341.66 449.16 1340.8 L447.678 1340.45 Q443.72 1339.62 441.961 1337.91 Q440.201 1336.17 440.201 1333.16 Q440.201 1329.51 442.794 1327.51 Q445.386 1325.52 450.155 1325.52 Q452.516 1325.52 454.599 1325.87 Q456.683 1326.22 458.442 1326.91 Z" fill="#000000" fill-rule="nonzero" fill-opacity="1" /><path clip-path="url(#clip990)" d="M470.826 1318.79 L470.826 1326.15 L479.599 1326.15 L479.599 1329.46 L470.826 1329.46 L470.826 1343.53 Q470.826 1346.7 471.683 1347.61 Q472.562 1348.51 475.224 1348.51 L479.599 1348.51 L479.599 1352.07 L475.224 1352.07 Q470.294 1352.07 468.419 1350.25 Q466.544 1348.39 466.544 1343.53 L466.544 1329.46 L463.419 1329.46 L463.419 1326.15 L466.544 1326.15 L466.544 1318.79 L470.826 1318.79 Z" fill="#000000" fill-rule="nonzero" fill-opacity="1" /><path clip-path="url(#clip990)" d="M485.201 1326.15 L489.46 1326.15 L489.46 1352.07 L485.201 1352.07 L485.201 1326.15 M485.201 1316.06 L489.46 1316.06 L489.46 1321.45 L485.201 1321.45 L485.201 1316.06 Z" fill="#000000" fill-rule="nonzero" fill-opacity="1" /><path clip-path="url(#clip990)" d="M518.557 1331.13 Q520.155 1328.26 522.377 1326.89 Q524.599 1325.52 527.608 1325.52 Q531.659 1325.52 533.858 1328.37 Q536.057 1331.19 536.057 1336.43 L536.057 1352.07 L531.775 1352.07 L531.775 1336.57 Q531.775 1332.84 530.455 1331.03 Q529.136 1329.23 526.428 1329.23 Q523.118 1329.23 521.196 1331.43 Q519.275 1333.63 519.275 1337.42 L519.275 1352.07 L514.993 1352.07 L514.993 1336.57 Q514.993 1332.82 513.673 1331.03 Q512.354 1329.23 509.599 1329.23 Q506.335 1329.23 504.414 1331.45 Q502.493 1333.65 502.493 1337.42 L502.493 1352.07 L498.21 1352.07 L498.21 1326.15 L502.493 1326.15 L502.493 1330.18 Q503.951 1327.79 505.988 1326.66 Q508.025 1325.52 510.826 1325.52 Q513.65 1325.52 515.618 1326.96 Q517.608 1328.39 518.557 1331.13 Z" fill="#000000" fill-rule="nonzero" fill-opacity="1" /><path clip-path="url(#clip990)" d="M556.335 1339.04 Q551.173 1339.04 549.182 1340.22 Q547.191 1341.4 547.191 1344.25 Q547.191 1346.52 548.673 1347.86 Q550.178 1349.18 552.747 1349.18 Q556.289 1349.18 558.418 1346.68 Q560.571 1344.16 560.571 1339.99 L560.571 1339.04 L556.335 1339.04 M564.83 1337.28 L564.83 1352.07 L560.571 1352.07 L560.571 1348.14 Q559.113 1350.5 556.937 1351.63 Q554.761 1352.75 551.613 1352.75 Q547.631 1352.75 545.27 1350.52 Q542.932 1348.28 542.932 1344.53 Q542.932 1340.15 545.849 1337.93 Q548.789 1335.71 554.599 1335.71 L560.571 1335.71 L560.571 1335.29 Q560.571 1332.35 558.627 1330.76 Q556.705 1329.13 553.21 1329.13 Q550.988 1329.13 548.881 1329.67 Q546.775 1330.2 544.83 1331.26 L544.83 1327.33 Q547.168 1326.43 549.367 1325.99 Q551.566 1325.52 553.65 1325.52 Q559.275 1325.52 562.053 1328.44 Q564.83 1331.36 564.83 1337.28 Z" fill="#000000" fill-rule="nonzero" fill-opacity="1" /><path clip-path="url(#clip990)" d="M577.816 1318.79 L577.816 1326.15 L586.589 1326.15 L586.589 1329.46 L577.816 1329.46 L577.816 1343.53 Q577.816 1346.7 578.673 1347.61 Q579.552 1348.51 582.214 1348.51 L586.589 1348.51 L586.589 1352.07 L582.214 1352.07 Q577.284 1352.07 575.409 1350.25 Q573.534 1348.39 573.534 1343.53 L573.534 1329.46 L570.409 1329.46 L570.409 1326.15 L573.534 1326.15 L573.534 1318.79 L577.816 1318.79 Z" fill="#000000" fill-rule="nonzero" fill-opacity="1" /><path clip-path="url(#clip990)" d="M614.367 1338.05 L614.367 1340.13 L594.784 1340.13 Q595.062 1344.53 597.423 1346.84 Q599.807 1349.13 604.043 1349.13 Q606.497 1349.13 608.788 1348.53 Q611.103 1347.93 613.372 1346.73 L613.372 1350.75 Q611.08 1351.73 608.673 1352.24 Q606.265 1352.75 603.788 1352.75 Q597.585 1352.75 593.95 1349.13 Q590.339 1345.52 590.339 1339.37 Q590.339 1333 593.765 1329.27 Q597.214 1325.52 603.048 1325.52 Q608.279 1325.52 611.312 1328.9 Q614.367 1332.26 614.367 1338.05 M610.108 1336.8 Q610.062 1333.3 608.14 1331.22 Q606.242 1329.13 603.094 1329.13 Q599.529 1329.13 597.376 1331.15 Q595.247 1333.16 594.923 1336.82 L610.108 1336.8 Z" fill="#000000" fill-rule="nonzero" fill-opacity="1" /><polyline clip-path="url(#clip990)" style="stroke:#ff0000; stroke-linecap:round; stroke-linejoin:round; stroke-width:4; stroke-opacity:1; fill:none" points="238.832,1386.63 386.315,1386.63 "/>
<path clip-path="url(#clip990)" d="M431.243 1382.97 Q432.84 1380.1 435.062 1378.73 Q437.285 1377.36 440.294 1377.36 Q444.345 1377.36 446.544 1380.21 Q448.743 1383.03 448.743 1388.27 L448.743 1403.91 L444.461 1403.91 L444.461 1388.41 Q444.461 1384.68 443.141 1382.87 Q441.822 1381.07 439.113 1381.07 Q435.803 1381.07 433.882 1383.27 Q431.961 1385.47 431.961 1389.26 L431.961 1403.91 L427.678 1403.91 L427.678 1388.41 Q427.678 1384.66 426.359 1382.87 Q425.039 1381.07 422.285 1381.07 Q419.021 1381.07 417.1 1383.29 Q415.178 1385.49 415.178 1389.26 L415.178 1403.91 L410.896 1403.91 L410.896 1377.99 L415.178 1377.99 L415.178 1382.02 Q416.637 1379.63 418.674 1378.5 Q420.711 1377.36 423.512 1377.36 Q426.336 1377.36 428.303 1378.8 Q430.294 1380.23 431.243 1382.97 Z" fill="#000000" fill-rule="nonzero" fill-opacity="1" /><path clip-path="url(#clip990)" d="M479.414 1389.89 L479.414 1391.97 L459.831 1391.97 Q460.109 1396.37 462.47 1398.68 Q464.854 1400.97 469.09 1400.97 Q471.544 1400.97 473.835 1400.37 Q476.15 1399.77 478.419 1398.57 L478.419 1402.59 Q476.127 1403.57 473.72 1404.08 Q471.312 1404.59 468.835 1404.59 Q462.632 1404.59 458.998 1400.97 Q455.386 1397.36 455.386 1391.21 Q455.386 1384.84 458.812 1381.11 Q462.261 1377.36 468.095 1377.36 Q473.326 1377.36 476.359 1380.74 Q479.414 1384.1 479.414 1389.89 M475.155 1388.64 Q475.109 1385.14 473.187 1383.06 Q471.289 1380.97 468.141 1380.97 Q464.576 1380.97 462.423 1382.99 Q460.294 1385 459.97 1388.66 L475.155 1388.64 Z" fill="#000000" fill-rule="nonzero" fill-opacity="1" /><path clip-path="url(#clip990)" d="M498.187 1390.88 Q493.025 1390.88 491.034 1392.06 Q489.044 1393.24 489.044 1396.09 Q489.044 1398.36 490.525 1399.7 Q492.03 1401.02 494.599 1401.02 Q498.141 1401.02 500.27 1398.52 Q502.423 1396 502.423 1391.83 L502.423 1390.88 L498.187 1390.88 M506.682 1389.12 L506.682 1403.91 L502.423 1403.91 L502.423 1399.98 Q500.965 1402.34 498.789 1403.47 Q496.613 1404.59 493.465 1404.59 Q489.483 1404.59 487.122 1402.36 Q484.784 1400.12 484.784 1396.37 Q484.784 1391.99 487.701 1389.77 Q490.641 1387.55 496.451 1387.55 L502.423 1387.55 L502.423 1387.13 Q502.423 1384.19 500.479 1382.6 Q498.557 1380.97 495.062 1380.97 Q492.84 1380.97 490.733 1381.51 Q488.627 1382.04 486.683 1383.1 L486.683 1379.17 Q489.021 1378.27 491.22 1377.83 Q493.419 1377.36 495.502 1377.36 Q501.127 1377.36 503.905 1380.28 Q506.682 1383.2 506.682 1389.12 Z" fill="#000000" fill-rule="nonzero" fill-opacity="1" /><path clip-path="url(#clip990)" d="M531.983 1378.75 L531.983 1382.78 Q530.178 1381.85 528.233 1381.39 Q526.289 1380.93 524.206 1380.93 Q521.034 1380.93 519.437 1381.9 Q517.863 1382.87 517.863 1384.82 Q517.863 1386.3 518.997 1387.16 Q520.131 1387.99 523.557 1388.75 L525.016 1389.08 Q529.553 1390.05 531.451 1391.83 Q533.372 1393.59 533.372 1396.76 Q533.372 1400.37 530.502 1402.48 Q527.655 1404.59 522.655 1404.59 Q520.571 1404.59 518.303 1404.17 Q516.057 1403.78 513.557 1402.97 L513.557 1398.57 Q515.919 1399.79 518.21 1400.42 Q520.502 1401.02 522.747 1401.02 Q525.756 1401.02 527.377 1400 Q528.997 1398.96 528.997 1397.09 Q528.997 1395.35 527.817 1394.42 Q526.659 1393.5 522.701 1392.64 L521.219 1392.29 Q517.261 1391.46 515.502 1389.75 Q513.743 1388.01 513.743 1385 Q513.743 1381.35 516.335 1379.35 Q518.928 1377.36 523.696 1377.36 Q526.057 1377.36 528.141 1377.71 Q530.224 1378.06 531.983 1378.75 Z" fill="#000000" fill-rule="nonzero" fill-opacity="1" /><path clip-path="url(#clip990)" d="M539.715 1393.68 L539.715 1377.99 L543.974 1377.99 L543.974 1393.52 Q543.974 1397.2 545.409 1399.05 Q546.844 1400.88 549.715 1400.88 Q553.164 1400.88 555.154 1398.68 Q557.168 1396.48 557.168 1392.69 L557.168 1377.99 L561.428 1377.99 L561.428 1403.91 L557.168 1403.91 L557.168 1399.93 Q555.617 1402.29 553.557 1403.45 Q551.52 1404.59 548.812 1404.59 Q544.344 1404.59 542.029 1401.81 Q539.715 1399.03 539.715 1393.68 M550.432 1377.36 L550.432 1377.36 Z" fill="#000000" fill-rule="nonzero" fill-opacity="1" /><path clip-path="url(#clip990)" d="M585.224 1381.97 Q584.506 1381.55 583.65 1381.37 Q582.816 1381.16 581.798 1381.16 Q578.187 1381.16 576.242 1383.52 Q574.321 1385.86 574.321 1390.26 L574.321 1403.91 L570.039 1403.91 L570.039 1377.99 L574.321 1377.99 L574.321 1382.02 Q575.664 1379.66 577.816 1378.52 Q579.969 1377.36 583.048 1377.36 Q583.488 1377.36 584.02 1377.43 Q584.552 1377.48 585.201 1377.6 L585.224 1381.97 Z" fill="#000000" fill-rule="nonzero" fill-opacity="1" /><path clip-path="url(#clip990)" d="M610.825 1389.89 L610.825 1391.97 L591.242 1391.97 Q591.52 1396.37 593.881 1398.68 Q596.265 1400.97 600.501 1400.97 Q602.955 1400.97 605.247 1400.37 Q607.562 1399.77 609.83 1398.57 L609.83 1402.59 Q607.538 1403.57 605.131 1404.08 Q602.724 1404.59 600.247 1404.59 Q594.043 1404.59 590.409 1400.97 Q586.798 1397.36 586.798 1391.21 Q586.798 1384.84 590.224 1381.11 Q593.673 1377.36 599.506 1377.36 Q604.737 1377.36 607.77 1380.74 Q610.825 1384.1 610.825 1389.89 M606.566 1388.64 Q606.52 1385.14 604.599 1383.06 Q602.7 1380.97 599.552 1380.97 Q595.988 1380.97 593.835 1382.99 Q591.705 1385 591.381 1388.66 L606.566 1388.64 Z" fill="#000000" fill-rule="nonzero" fill-opacity="1" /><path clip-path="url(#clip990)" d="M638.001 1382.97 Q639.598 1380.1 641.821 1378.73 Q644.043 1377.36 647.052 1377.36 Q651.103 1377.36 653.302 1380.21 Q655.501 1383.03 655.501 1388.27 L655.501 1403.91 L651.219 1403.91 L651.219 1388.41 Q651.219 1384.68 649.899 1382.87 Q648.58 1381.07 645.872 1381.07 Q642.561 1381.07 640.64 1383.27 Q638.719 1385.47 638.719 1389.26 L638.719 1403.91 L634.436 1403.91 L634.436 1388.41 Q634.436 1384.66 633.117 1382.87 Q631.798 1381.07 629.043 1381.07 Q625.779 1381.07 623.858 1383.29 Q621.936 1385.49 621.936 1389.26 L621.936 1403.91 L617.654 1403.91 L617.654 1377.99 L621.936 1377.99 L621.936 1382.02 Q623.395 1379.63 625.432 1378.5 Q627.469 1377.36 630.27 1377.36 Q633.094 1377.36 635.061 1378.8 Q637.052 1380.23 638.001 1382.97 Z" fill="#000000" fill-rule="nonzero" fill-opacity="1" /><path clip-path="url(#clip990)" d="M686.172 1389.89 L686.172 1391.97 L666.589 1391.97 Q666.867 1396.37 669.228 1398.68 Q671.612 1400.97 675.848 1400.97 Q678.302 1400.97 680.594 1400.37 Q682.908 1399.77 685.177 1398.57 L685.177 1402.59 Q682.885 1403.57 680.478 1404.08 Q678.07 1404.59 675.594 1404.59 Q669.39 1404.59 665.756 1400.97 Q662.145 1397.36 662.145 1391.21 Q662.145 1384.84 665.57 1381.11 Q669.02 1377.36 674.853 1377.36 Q680.084 1377.36 683.117 1380.74 Q686.172 1384.1 686.172 1389.89 M681.913 1388.64 Q681.867 1385.14 679.945 1383.06 Q678.047 1380.97 674.899 1380.97 Q671.334 1380.97 669.182 1382.99 Q667.052 1385 666.728 1388.66 L681.913 1388.64 Z" fill="#000000" fill-rule="nonzero" fill-opacity="1" /><path clip-path="url(#clip990)" d="M714.714 1388.27 L714.714 1403.91 L710.455 1403.91 L710.455 1388.41 Q710.455 1384.72 709.019 1382.9 Q707.584 1381.07 704.714 1381.07 Q701.265 1381.07 699.274 1383.27 Q697.283 1385.47 697.283 1389.26 L697.283 1403.91 L693.001 1403.91 L693.001 1377.99 L697.283 1377.99 L697.283 1382.02 Q698.811 1379.68 700.871 1378.52 Q702.955 1377.36 705.663 1377.36 Q710.13 1377.36 712.422 1380.14 Q714.714 1382.9 714.714 1388.27 Z" fill="#000000" fill-rule="nonzero" fill-opacity="1" /><path clip-path="url(#clip990)" d="M727.422 1370.63 L727.422 1377.99 L736.195 1377.99 L736.195 1381.3 L727.422 1381.3 L727.422 1395.37 Q727.422 1398.54 728.278 1399.45 Q729.158 1400.35 731.82 1400.35 L736.195 1400.35 L736.195 1403.91 L731.82 1403.91 Q726.89 1403.91 725.015 1402.09 Q723.14 1400.23 723.14 1395.37 L723.14 1381.3 L720.015 1381.3 L720.015 1377.99 L723.14 1377.99 L723.14 1370.63 L727.422 1370.63 Z" fill="#000000" fill-rule="nonzero" fill-opacity="1" /></svg>
