<?xml version="1.0" encoding="utf-8"?>
<svg xmlns="http://www.w3.org/2000/svg" xmlns:xlink="http://www.w3.org/1999/xlink" width="600" height="400" viewBox="0 0 2400 1600">
<defs>
  <clipPath id="clip720">
    <rect x="0" y="0" width="2400" height="1600"/>
  </clipPath>
</defs>
<path clip-path="url(#clip720)" d="M0 1600 L2400 1600 L2400 0 L0 0  Z" fill="#ffffff" fill-rule="evenodd" fill-opacity="1"/>
<defs>
  <clipPath id="clip721">
    <rect x="140" y="47" width="2213" height="1440"/>
  </clipPath>
</defs>
<path clip-path="url(#clip720)" d="M140.51 1486.45 L2352.76 1486.45 L2352.76 47.2441 L140.51 47.2441  Z" fill="#ffffff" fill-rule="evenodd" fill-opacity="1"/>
<polyline clip-path="url(#clip721)" style="stroke:#000000; stroke-linecap:round; stroke-linejoin:round; stroke-width:2; stroke-opacity:0.1; fill:none" points="352.127,1486.45 352.127,47.2441 "/>
<polyline clip-path="url(#clip721)" style="stroke:#000000; stroke-linecap:round; stroke-linejoin:round; stroke-width:2; stroke-opacity:0.1; fill:none" points="785.241,1486.45 785.241,47.2441 "/>
<polyline clip-path="url(#clip721)" style="stroke:#000000; stroke-linecap:round; stroke-linejoin:round; stroke-width:2; stroke-opacity:0.1; fill:none" points="1218.35,1486.45 1218.35,47.2441 "/>
<polyline clip-path="url(#clip721)" style="stroke:#000000; stroke-linecap:round; stroke-linejoin:round; stroke-width:2; stroke-opacity:0.1; fill:none" points="1651.47,1486.45 1651.47,47.2441 "/>
<polyline clip-path="url(#clip721)" style="stroke:#000000; stroke-linecap:round; stroke-linejoin:round; stroke-width:2; stroke-opacity:0.1; fill:none" points="2084.58,1486.45 2084.58,47.2441 "/>
<polyline clip-path="url(#clip721)" style="stroke:#000000; stroke-linecap:round; stroke-linejoin:round; stroke-width:2; stroke-opacity:0.1; fill:none" points="140.51,1180.09 2352.76,1180.09 "/>
<polyline clip-path="url(#clip721)" style="stroke:#000000; stroke-linecap:round; stroke-linejoin:round; stroke-width:2; stroke-opacity:0.1; fill:none" points="140.51,872.38 2352.76,872.38 "/>
<polyline clip-path="url(#clip721)" style="stroke:#000000; stroke-linecap:round; stroke-linejoin:round; stroke-width:2; stroke-opacity:0.1; fill:none" points="140.51,564.674 2352.76,564.674 "/>
<polyline clip-path="url(#clip721)" style="stroke:#000000; stroke-linecap:round; stroke-linejoin:round; stroke-width:2; stroke-opacity:0.1; fill:none" points="140.51,256.968 2352.76,256.968 "/>
<polyline clip-path="url(#clip720)" style="stroke:#000000; stroke-linecap:round; stroke-linejoin:round; stroke-width:4; stroke-opacity:1; fill:none" points="140.51,1486.45 2352.76,1486.45 "/>
<polyline clip-path="url(#clip720)" style="stroke:#000000; stroke-linecap:round; stroke-linejoin:round; stroke-width:4; stroke-opacity:1; fill:none" points="352.127,1486.45 352.127,1467.55 "/>
<polyline clip-path="url(#clip720)" style="stroke:#000000; stroke-linecap:round; stroke-linejoin:round; stroke-width:4; stroke-opacity:1; fill:none" points="785.241,1486.45 785.241,1467.55 "/>
<polyline clip-path="url(#clip720)" style="stroke:#000000; stroke-linecap:round; stroke-linejoin:round; stroke-width:4; stroke-opacity:1; fill:none" points="1218.35,1486.45 1218.35,1467.55 "/>
<polyline clip-path="url(#clip720)" style="stroke:#000000; stroke-linecap:round; stroke-linejoin:round; stroke-width:4; stroke-opacity:1; fill:none" points="1651.47,1486.45 1651.47,1467.55 "/>
<polyline clip-path="url(#clip720)" style="stroke:#000000; stroke-linecap:round; stroke-linejoin:round; stroke-width:4; stroke-opacity:1; fill:none" points="2084.58,1486.45 2084.58,1467.55 "/>
<path clip-path="url(#clip720)" d="M306.189 1532.02 L335.865 1532.02 L335.865 1535.95 L306.189 1535.95 L306.189 1532.02 Z" fill="#000000" fill-rule="nonzero" fill-opacity="1" /><path clip-path="url(#clip720)" d="M360.124 1530.21 Q363.481 1530.93 365.356 1533.2 Q367.254 1535.47 367.254 1538.8 Q367.254 1543.92 363.735 1546.72 Q360.217 1549.52 353.735 1549.52 Q351.56 1549.52 349.245 1549.08 Q346.953 1548.66 344.499 1547.81 L344.499 1543.29 Q346.444 1544.43 348.759 1545.01 Q351.073 1545.58 353.597 1545.58 Q357.995 1545.58 360.286 1543.85 Q362.601 1542.11 362.601 1538.8 Q362.601 1535.75 360.448 1534.03 Q358.319 1532.3 354.499 1532.3 L350.472 1532.3 L350.472 1528.45 L354.685 1528.45 Q358.134 1528.45 359.962 1527.09 Q361.791 1525.7 361.791 1523.11 Q361.791 1520.45 359.893 1519.03 Q358.018 1517.6 354.499 1517.6 Q352.578 1517.6 350.379 1518.01 Q348.18 1518.43 345.541 1519.31 L345.541 1515.14 Q348.203 1514.4 350.518 1514.03 Q352.856 1513.66 354.916 1513.66 Q360.24 1513.66 363.342 1516.09 Q366.444 1518.5 366.444 1522.62 Q366.444 1525.49 364.8 1527.48 Q363.157 1529.45 360.124 1530.21 Z" fill="#000000" fill-rule="nonzero" fill-opacity="1" /><path clip-path="url(#clip720)" d="M386.12 1517.37 Q382.508 1517.37 380.68 1520.93 Q378.874 1524.47 378.874 1531.6 Q378.874 1538.71 380.68 1542.27 Q382.508 1545.82 386.12 1545.82 Q389.754 1545.82 391.559 1542.27 Q393.388 1538.71 393.388 1531.6 Q393.388 1524.47 391.559 1520.93 Q389.754 1517.37 386.12 1517.37 M386.12 1513.66 Q391.93 1513.66 394.985 1518.27 Q398.064 1522.85 398.064 1531.6 Q398.064 1540.33 394.985 1544.94 Q391.93 1549.52 386.12 1549.52 Q380.309 1549.52 377.231 1544.94 Q374.175 1540.33 374.175 1531.6 Q374.175 1522.85 377.231 1518.27 Q380.309 1513.66 386.12 1513.66 Z" fill="#000000" fill-rule="nonzero" fill-opacity="1" /><path clip-path="url(#clip720)" d="M785.241 1517.37 Q781.63 1517.37 779.801 1520.93 Q777.995 1524.47 777.995 1531.6 Q777.995 1538.71 779.801 1542.27 Q781.63 1545.82 785.241 1545.82 Q788.875 1545.82 790.68 1542.27 Q792.509 1538.71 792.509 1531.6 Q792.509 1524.47 790.68 1520.93 Q788.875 1517.37 785.241 1517.37 M785.241 1513.66 Q791.051 1513.66 794.106 1518.27 Q797.185 1522.85 797.185 1531.6 Q797.185 1540.33 794.106 1544.94 Q791.051 1549.52 785.241 1549.52 Q779.43 1549.52 776.352 1544.94 Q773.296 1540.33 773.296 1531.6 Q773.296 1522.85 776.352 1518.27 Q779.43 1513.66 785.241 1513.66 Z" fill="#000000" fill-rule="nonzero" fill-opacity="1" /><path clip-path="url(#clip720)" d="M1207.2 1530.21 Q1210.55 1530.93 1212.43 1533.2 Q1214.33 1535.47 1214.33 1538.8 Q1214.33 1543.92 1210.81 1546.72 Q1207.29 1549.52 1200.81 1549.52 Q1198.63 1549.52 1196.32 1549.08 Q1194.03 1548.66 1191.57 1547.81 L1191.57 1543.29 Q1193.52 1544.43 1195.83 1545.01 Q1198.15 1545.58 1200.67 1545.58 Q1205.07 1545.58 1207.36 1543.85 Q1209.67 1542.11 1209.67 1538.8 Q1209.67 1535.75 1207.52 1534.03 Q1205.39 1532.3 1201.57 1532.3 L1197.54 1532.3 L1197.54 1528.45 L1201.76 1528.45 Q1205.21 1528.45 1207.04 1527.09 Q1208.86 1525.7 1208.86 1523.11 Q1208.86 1520.45 1206.97 1519.03 Q1205.09 1517.6 1201.57 1517.6 Q1199.65 1517.6 1197.45 1518.01 Q1195.25 1518.43 1192.61 1519.31 L1192.61 1515.14 Q1195.28 1514.4 1197.59 1514.03 Q1199.93 1513.66 1201.99 1513.66 Q1207.31 1513.66 1210.41 1516.09 Q1213.52 1518.5 1213.52 1522.62 Q1213.52 1525.49 1211.87 1527.48 Q1210.23 1529.45 1207.2 1530.21 Z" fill="#000000" fill-rule="nonzero" fill-opacity="1" /><path clip-path="url(#clip720)" d="M1233.19 1517.37 Q1229.58 1517.37 1227.75 1520.93 Q1225.95 1524.47 1225.95 1531.6 Q1225.95 1538.71 1227.75 1542.27 Q1229.58 1545.82 1233.19 1545.82 Q1236.83 1545.82 1238.63 1542.27 Q1240.46 1538.71 1240.46 1531.6 Q1240.46 1524.47 1238.63 1520.93 Q1236.83 1517.37 1233.19 1517.37 M1233.19 1513.66 Q1239 1513.66 1242.06 1518.27 Q1245.14 1522.85 1245.14 1531.6 Q1245.14 1540.33 1242.06 1544.94 Q1239 1549.52 1233.19 1549.52 Q1227.38 1549.52 1224.3 1544.94 Q1221.25 1540.33 1221.25 1531.6 Q1221.25 1522.85 1224.3 1518.27 Q1227.38 1513.66 1233.19 1513.66 Z" fill="#000000" fill-rule="nonzero" fill-opacity="1" /><path clip-path="url(#clip720)" d="M1636.87 1529.7 Q1633.73 1529.7 1631.87 1531.86 Q1630.04 1534.01 1630.04 1537.76 Q1630.04 1541.49 1631.87 1543.66 Q1633.73 1545.82 1636.87 1545.82 Q1640.02 1545.82 1641.85 1543.66 Q1643.7 1541.49 1643.7 1537.76 Q1643.7 1534.01 1641.85 1531.86 Q1640.02 1529.7 1636.87 1529.7 M1646.16 1515.05 L1646.16 1519.31 Q1644.4 1518.48 1642.59 1518.04 Q1640.81 1517.6 1639.05 1517.6 Q1634.42 1517.6 1631.97 1520.72 Q1629.54 1523.85 1629.19 1530.17 Q1630.55 1528.15 1632.61 1527.09 Q1634.67 1526 1637.15 1526 Q1642.36 1526 1645.37 1529.17 Q1648.4 1532.32 1648.4 1537.76 Q1648.4 1543.08 1645.25 1546.3 Q1642.11 1549.52 1636.87 1549.52 Q1630.88 1549.52 1627.71 1544.94 Q1624.54 1540.33 1624.54 1531.6 Q1624.54 1523.41 1628.42 1518.55 Q1632.31 1513.66 1638.86 1513.66 Q1640.62 1513.66 1642.41 1514.01 Q1644.21 1514.36 1646.16 1515.05 Z" fill="#000000" fill-rule="nonzero" fill-opacity="1" /><path clip-path="url(#clip720)" d="M1666.46 1517.37 Q1662.85 1517.37 1661.02 1520.93 Q1659.21 1524.47 1659.21 1531.6 Q1659.21 1538.71 1661.02 1542.27 Q1662.85 1545.82 1666.46 1545.82 Q1670.09 1545.82 1671.9 1542.27 Q1673.73 1538.71 1673.73 1531.6 Q1673.73 1524.47 1671.9 1520.93 Q1670.09 1517.37 1666.46 1517.37 M1666.46 1513.66 Q1672.27 1513.66 1675.32 1518.27 Q1678.4 1522.85 1678.4 1531.6 Q1678.4 1540.33 1675.32 1544.94 Q1672.27 1549.52 1666.46 1549.52 Q1660.65 1549.52 1657.57 1544.94 Q1654.51 1540.33 1654.51 1531.6 Q1654.51 1522.85 1657.57 1518.27 Q1660.65 1513.66 1666.46 1513.66 Z" fill="#000000" fill-rule="nonzero" fill-opacity="1" /><path clip-path="url(#clip720)" d="M2059.71 1548.13 L2059.71 1543.87 Q2061.47 1544.7 2063.27 1545.14 Q2065.08 1545.58 2066.82 1545.58 Q2071.45 1545.58 2073.88 1542.48 Q2076.33 1539.36 2076.68 1533.01 Q2075.33 1535.01 2073.27 1536.07 Q2071.21 1537.13 2068.71 1537.13 Q2063.53 1537.13 2060.5 1534.01 Q2057.49 1530.86 2057.49 1525.42 Q2057.49 1520.1 2060.64 1516.88 Q2063.78 1513.66 2069.02 1513.66 Q2075.01 1513.66 2078.16 1518.27 Q2081.33 1522.85 2081.33 1531.6 Q2081.33 1539.77 2077.44 1544.66 Q2073.58 1549.52 2067.02 1549.52 Q2065.27 1549.52 2063.46 1549.17 Q2061.65 1548.82 2059.71 1548.13 M2069.02 1533.48 Q2072.16 1533.48 2073.99 1531.32 Q2075.84 1529.17 2075.84 1525.42 Q2075.84 1521.7 2073.99 1519.54 Q2072.16 1517.37 2069.02 1517.37 Q2065.87 1517.37 2064.02 1519.54 Q2062.19 1521.7 2062.19 1525.42 Q2062.19 1529.17 2064.02 1531.32 Q2065.87 1533.48 2069.02 1533.48 Z" fill="#000000" fill-rule="nonzero" fill-opacity="1" /><path clip-path="url(#clip720)" d="M2099.73 1517.37 Q2096.12 1517.37 2094.29 1520.93 Q2092.49 1524.47 2092.49 1531.6 Q2092.49 1538.71 2094.29 1542.27 Q2096.12 1545.82 2099.73 1545.82 Q2103.37 1545.82 2105.17 1542.27 Q2107 1538.71 2107 1531.6 Q2107 1524.47 2105.17 1520.93 Q2103.37 1517.37 2099.73 1517.37 M2099.73 1513.66 Q2105.54 1513.66 2108.6 1518.27 Q2111.68 1522.85 2111.68 1531.6 Q2111.68 1540.33 2108.6 1544.94 Q2105.54 1549.52 2099.73 1549.52 Q2093.92 1549.52 2090.84 1544.94 Q2087.79 1540.33 2087.79 1531.6 Q2087.79 1522.85 2090.84 1518.27 Q2093.92 1513.66 2099.73 1513.66 Z" fill="#000000" fill-rule="nonzero" fill-opacity="1" /><polyline clip-path="url(#clip720)" style="stroke:#000000; stroke-linecap:round; stroke-linejoin:round; stroke-width:4; stroke-opacity:1; fill:none" points="140.51,1486.45 140.51,47.2441 "/>
<polyline clip-path="url(#clip720)" style="stroke:#000000; stroke-linecap:round; stroke-linejoin:round; stroke-width:4; stroke-opacity:1; fill:none" points="140.51,1180.09 159.408,1180.09 "/>
<polyline clip-path="url(#clip720)" style="stroke:#000000; stroke-linecap:round; stroke-linejoin:round; stroke-width:4; stroke-opacity:1; fill:none" points="140.51,872.38 159.408,872.38 "/>
<polyline clip-path="url(#clip720)" style="stroke:#000000; stroke-linecap:round; stroke-linejoin:round; stroke-width:4; stroke-opacity:1; fill:none" points="140.51,564.674 159.408,564.674 "/>
<polyline clip-path="url(#clip720)" style="stroke:#000000; stroke-linecap:round; stroke-linejoin:round; stroke-width:4; stroke-opacity:1; fill:none" points="140.51,256.968 159.408,256.968 "/>
<path clip-path="url(#clip720)" d="M92.566 1165.88 Q88.9549 1165.88 87.1262 1169.45 Q85.3206 1172.99 85.3206 1180.12 Q85.3206 1187.23 87.1262 1190.79 Q88.9549 1194.33 92.566 1194.33 Q96.2002 1194.33 98.0058 1190.79 Q99.8345 1187.23 99.8345 1180.12 Q99.8345 1172.99 98.0058 1169.45 Q96.2002 1165.88 92.566 1165.88 M92.566 1162.18 Q98.3761 1162.18 101.432 1166.79 Q104.51 1171.37 104.51 1180.12 Q104.51 1188.85 101.432 1193.45 Q98.3761 1198.04 92.566 1198.04 Q86.7558 1198.04 83.6771 1193.45 Q80.6216 1188.85 80.6216 1180.12 Q80.6216 1171.37 83.6771 1166.79 Q86.7558 1162.18 92.566 1162.18 Z" fill="#000000" fill-rule="nonzero" fill-opacity="1" /><path clip-path="url(#clip720)" d="M57.4273 885.724 L73.7466 885.724 L73.7466 889.66 L51.8023 889.66 L51.8023 885.724 Q54.4643 882.97 59.0476 878.34 Q63.6541 873.687 64.8346 872.345 Q67.08 869.822 67.9596 868.086 Q68.8624 866.326 68.8624 864.637 Q68.8624 861.882 66.918 860.146 Q64.9967 858.41 61.8948 858.41 Q59.6958 858.41 57.2421 859.174 Q54.8115 859.938 52.0338 861.488 L52.0338 856.766 Q54.8578 855.632 57.3115 855.053 Q59.7652 854.475 61.8023 854.475 Q67.1726 854.475 70.367 857.16 Q73.5614 859.845 73.5614 864.336 Q73.5614 866.465 72.7513 868.387 Q71.9642 870.285 69.8578 872.877 Q69.2791 873.549 66.1772 876.766 Q63.0754 879.961 57.4273 885.724 Z" fill="#000000" fill-rule="nonzero" fill-opacity="1" /><path clip-path="url(#clip720)" d="M83.6077 855.1 L101.964 855.1 L101.964 859.035 L87.8901 859.035 L87.8901 867.507 Q88.9086 867.16 89.9271 866.998 Q90.9456 866.813 91.9641 866.813 Q97.7511 866.813 101.131 869.984 Q104.51 873.155 104.51 878.572 Q104.51 884.15 101.038 887.252 Q97.566 890.331 91.2465 890.331 Q89.0706 890.331 86.8021 889.961 Q84.5568 889.59 82.1494 888.849 L82.1494 884.15 Q84.2327 885.285 86.4549 885.84 Q88.6771 886.396 91.1539 886.396 Q95.1586 886.396 97.4965 884.289 Q99.8345 882.183 99.8345 878.572 Q99.8345 874.961 97.4965 872.854 Q95.1586 870.748 91.1539 870.748 Q89.279 870.748 87.404 871.164 Q85.5521 871.581 83.6077 872.461 L83.6077 855.1 Z" fill="#000000" fill-rule="nonzero" fill-opacity="1" /><path clip-path="url(#clip720)" d="M52.4505 547.394 L70.8068 547.394 L70.8068 551.329 L56.7328 551.329 L56.7328 559.801 Q57.7513 559.454 58.7699 559.292 Q59.7884 559.107 60.8069 559.107 Q66.5939 559.107 69.9735 562.278 Q73.3531 565.449 73.3531 570.866 Q73.3531 576.445 69.8809 579.547 Q66.4087 582.625 60.0893 582.625 Q57.9134 582.625 55.6449 582.255 Q53.3995 581.884 50.9921 581.144 L50.9921 576.445 Q53.0754 577.579 55.2977 578.135 Q57.5199 578.69 59.9967 578.69 Q64.0013 578.69 66.3393 576.584 Q68.6772 574.477 68.6772 570.866 Q68.6772 567.255 66.3393 565.148 Q64.0013 563.042 59.9967 563.042 Q58.1217 563.042 56.2467 563.459 Q54.3949 563.875 52.4505 564.755 L52.4505 547.394 Z" fill="#000000" fill-rule="nonzero" fill-opacity="1" /><path clip-path="url(#clip720)" d="M92.566 550.473 Q88.9549 550.473 87.1262 554.037 Q85.3206 557.579 85.3206 564.709 Q85.3206 571.815 87.1262 575.38 Q88.9549 578.922 92.566 578.922 Q96.2002 578.922 98.0058 575.38 Q99.8345 571.815 99.8345 564.709 Q99.8345 557.579 98.0058 554.037 Q96.2002 550.473 92.566 550.473 M92.566 546.769 Q98.3761 546.769 101.432 551.375 Q104.51 555.959 104.51 564.709 Q104.51 573.435 101.432 578.042 Q98.3761 582.625 92.566 582.625 Q86.7558 582.625 83.6771 578.042 Q80.6216 573.435 80.6216 564.709 Q80.6216 555.959 83.6771 551.375 Q86.7558 546.769 92.566 546.769 Z" fill="#000000" fill-rule="nonzero" fill-opacity="1" /><path clip-path="url(#clip720)" d="M52.219 239.688 L74.4411 239.688 L74.4411 241.679 L61.8948 274.248 L57.0106 274.248 L68.8161 243.623 L52.219 243.623 L52.219 239.688 Z" fill="#000000" fill-rule="nonzero" fill-opacity="1" /><path clip-path="url(#clip720)" d="M83.6077 239.688 L101.964 239.688 L101.964 243.623 L87.8901 243.623 L87.8901 252.096 Q88.9086 251.748 89.9271 251.586 Q90.9456 251.401 91.9641 251.401 Q97.7511 251.401 101.131 254.572 Q104.51 257.744 104.51 263.16 Q104.51 268.739 101.038 271.841 Q97.566 274.92 91.2465 274.92 Q89.0706 274.92 86.8021 274.549 Q84.5568 274.179 82.1494 273.438 L82.1494 268.739 Q84.2327 269.873 86.4549 270.429 Q88.6771 270.984 91.1539 270.984 Q95.1586 270.984 97.4965 268.878 Q99.8345 266.771 99.8345 263.16 Q99.8345 259.549 97.4965 257.443 Q95.1586 255.336 91.1539 255.336 Q89.279 255.336 87.404 255.753 Q85.5521 256.17 83.6077 257.049 L83.6077 239.688 Z" fill="#000000" fill-rule="nonzero" fill-opacity="1" /><polyline clip-path="url(#clip721)" style="stroke:#0000ff; stroke-linecap:round; stroke-linejoin:round; stroke-width:4; stroke-opacity:1; fill:none" points="203.763,717.227 230.973,724.031 234.907,719.24 245.94,717.357 252.682,717.489 276.164,719.632 300.201,723.736 327.636,726.737 354.07,729.172 383.872,733.364 413.621,733.539 438.683,733.49 474.436,734.269 497.805,739.863 521.864,744.019 556.217,747.656 581.595,749.55 603.728,753.962 632.256,760.723 656.067,767.897 679.021,775.31 702.421,782.165 729.738,788.821 752.407,797.143 777.904,802.928 808.774,810.997 831.261,811.119 865.081,813.678 891.258,821.463 917.602,829.045 948.039,838.383 972.974,846.723 998.954,853.655 1018.08,864.267 1036.25,876.009 1044.65,881.92 1064.65,885.011 1081.55,886.956 1102.85,888.153 1129.02,891.539 1155.41,901.307 1182.77,911.251 1205.11,916.228 1230.41,919.976 1262.69,922.239 1291.78,923.811 1324.06,927.929 1352.54,932.508 1379.37,935.485 1404.45,938.23 1436.49,938.261 1460.47,937.968 1486.79,937.545 1513.58,934.567 1542.95,929.283 1571.82,929.84 1599.7,928.103 1625.82,928.208 1646.49,921.941 1664.95,919.01 1682.04,913.127 1699.85,906.52 1720.43,905.824 1742.73,903.462 1764.15,905.112 1783.6,908.225 1805.43,914.954 1825.95,926.836 1847.42,939.393 1863.48,950.585 1879.32,966.573 1889.86,980.834 1897.73,994.911 1907.33,1014.51 1918.56,1032.43 1930.9,1051.05 1941.34,1062.31 1958.84,1069.32 1972.89,1072.37 1983.34,1071.94 2004.93,1065.63 2021.57,1061.05 2042.54,1039.82 2054.99,1024.48 2059.29,1004.58 2062,985.776 2061.45,963.739 2048.92,948.04 2030.7,940.275 2004.81,930.848 1976.01,932.837 1951.95,931.855 1931.37,928.593 1912.03,925.615 1889.41,923.279 1869.63,928.156 1848.58,934.378 1831.71,942.033 1807.91,945.326 1783.3,945.72 1756,942.372 1732.55,931.855 1709.15,921.302 1679.27,905.731 1654.19,888.293 1631.69,869.141 1616.36,853.462 1604.52,840.663 1587.95,827.226 1574.1,811.101 1562.27,795.783 1553.85,779.879 1553,764.381 1565.62,749.346 1579.2,736.057 1599.73,727.405 1620.62,726.16 1648.25,726.835 1669.37,740.416 1690.32,748.745 1704.32,754.37 1726.23,761.28 1749.02,772.276 1762.02,780.983 1780.1,791.783 1798.44,803.219 1819.85,811.587 1839.99,813.755 1861.03,813.901 1884.49,807.839 1905.7,803.391 1922.53,801.966 1941.54,808.752 1958.25,819.524 1972.77,833.934 1982.77,850.367 1991.19,870.5 1998.92,892.631 2003.54,912.353 2004.27,933.608 2004.26,944.969 2006.3,958.628 2015.1,977.103 2021.92,994.628 2033.69,1009.53 2045.59,1016.63 2058.74,1020.44 2076.58,1017.4 2095.83,1011.57 2110.03,1002.31 2126.13,989.001 2135.66,978.844 2140.98,960.072 2132.54,943.253 2115.93,924.745 2100.6,906.292 2078.13,893.831 2049.82,888.318 2021.78,883.239 2002.6,881.377 1977.51,880.556 1956.63,879.647 1938.39,870.732 1923.6,864.683 1901.4,858.256 1885.58,857.601 1863.51,859.567 1842.73,854.227 1822.14,849.141 1802.58,847.466 1778.08,843.851 1760.12,839.735 1743.01,835.602 1721.04,833.572 1693.6,835.039 1667.32,840.814 1650.95,839.864 1646.23,832.255 1641.22,828.952 1634.12,827.795 1623.23,826.757 1615.1,825.856 1601.57,829.82 1587.43,836.058 1561.46,840.624 1540.1,844.649 1525.39,849.946 1515.37,858.477 1521.57,859.419 1534.59,857.175 1566.69,855.274 1587.87,838.594 1604.57,823.081 1611.71,807.357 1604.51,790.362 1589.95,772.117 1580.46,761.059 1568.75,739.718 1550.29,730.19 1529.31,739.646 1507.03,741.126 1478.57,735.653 1474.25,718.589 1468.35,699.127 1469.76,678.453 1473.94,662 1489.08,639.798 1495.79,620.736 1499.26,596.981 1483.28,583.369 1461.02,575.627 1451.68,573.922 1461.21,561.602 1481.6,551.038 1516.88,548.655 1557.11,534.615 1582.53,517.123 1600.62,493.331 1614.02,472.999 1635.91,463.936 1661.84,466.413 1685.83,471.18 1705.9,489.045 1732.44,502.521 1753.12,517.87 1762.1,538.585 1752.2,556.086 1734.14,572.492 1707.61,584.911 1674.89,592.052 1647.36,591.756 1613.96,577.125 1587.79,562.065 1576.79,540.015 1576.18,518.613 1594.66,502.727 1608.64,492.902 1631.95,478.788 1656.54,470.346 1679.37,454.432 1701.6,442.091 1720.98,441.05 1744.69,427.67 1748.83,413.309 1758.99,396.657 1771.17,390.662 1788.23,373.654 1783.18,360.505 1761.82,349.663 1757.61,347.214 1767.97,343.355 1790.08,336.921 1818.66,340.199 1844.6,343.393 1872.96,348.751 1897.01,366.218 1900.49,383.879 1897.95,396.63 1877.44,407.877 1860.7,429.505 1845.96,456.799 1835.89,489.147 1836.7,509.486 1801.84,513.808 1777.74,528.977 1745.98,535.743 1715.9,551.991 1697.88,576.979 1678.59,594.783 1651.61,590.591 1629.11,579.543 1602.19,569.708 1586.82,557.945 1560.86,542.446 1552.37,534.59 1559.64,512.129 1583.3,503.295 1617.39,498.207 1647.01,501.367 1682.03,508.39 1710.5,523.119 1719.83,543.811 1733.64,565.075 1748.9,570.107 1775.76,575.069 1799.34,584.974 1809.05,587.226 1834.39,580.746 1858.9,572.022 1878.96,563.094 1898.87,565.7 1918.16,580 1918.05,597.67 1918.88,617.931 1905.94,650.136 1885.17,675.598 1860.91,696.599 1838.88,725.796 1835.47,750.483 1800.84,763.557 1772.59,768.216 1744.94,782.679 1718.99,796.97 1701.17,815.941 1684.71,837.041 1659.41,860.049 1632.63,868.537 1604.53,860.42 1579.9,853.707 1549.32,850.571 1520.7,842.998 1500.86,820.995 1485.95,801.294 1455.35,778.725 1438.54,759.465 1413.26,741.648 1389.21,739.28 1358.03,744.278 1339.58,742.001 1314.62,733.195 1309.06,707.942 1292.69,699.993 1268.29,703.834 1250.59,712.12 1226.26,728.553 1219.1,735.409 1187.92,739.87 1164.74,745.151 1139.19,738.749 1118.83,720.592 1095.95,707.29 1060.76,701.826 1028.24,694.223 1005.77,688.444 984.667,678.217 964.624,656.996 963.519,644.145 973.3,625.173 989.736,604.602 1001.25,581.153 1007.83,550.154 1013.56,525.181 998.854,505.033 979.386,500.252 969.557,490.558 972.421,477.683 998.191,475.895 1033.94,478.739 1076.96,476.577 1110.36,472.853 1138.05,455.248 1163.34,430.615 1188.18,410.358 1219.33,403.25 1258.34,405.444 1289.95,417.237 1321.07,434.209 1352.2,446.854 1379.55,458.175 1401.73,472.602 1438.13,481.216 1463.37,494.128 1489.34,516.972 1519.74,543.897 1546.69,558.933 1571.42,570.174 1590.93,581.261 1599.32,572.282 1619.78,562.704 1646.54,549.075 1669.64,539.414 1700.2,527.303 1733.87,526.071 1769.36,534.962 1795.46,560.429 1803.58,581.845 1800.15,613.306 1782.7,644.998 1779.79,672.334 1772.66,705.257 1772.32,740.674 1788.19,770.543 1819.54,796.101 1859.53,794.154 1881.33,795.052 1913.06,802.431 1932,824.578 1957.99,850.648 1979.69,882.686 1991.02,914.921 1996.19,937.181 2011.84,921.43 2048.49,924.961 2075.46,931.113 2087.27,946.409 2088.72,950.111 2090.59,955.178 2094.54,971.03 2097.85,976.657 2109.79,980.89 2125.77,983.264 2154.63,977.713 2184.01,987.222 2197.74,999.256 2212.03,1021.14 2212.25,1034.46 2215.33,1022.56 2219.76,1006.56 2220.42,979.108 2209.42,951.812 2193.36,928.55 2183.11,905.522 2183.52,884.959 2156.87,862.939 2148.71,832.761 2154.46,808.083 2172.03,795.148 2192.62,796.823 2216.76,805.424 2232.87,817.939 2246.02,837.854 2271.26,860.727 2285.12,882.054 2276.57,908.114 2257.73,930.915 2240.32,951.102 2210.06,963.676 2190.15,982.252 2162.63,995.465 2135.43,1018.49 2115.55,1040.14 2105.65,1063.73 2085.95,1086.65 2067.78,1109.69 2042.18,1126.48 2017.03,1137.62 1985.62,1153.72 1959.97,1171.56 1932.1,1179.73 1902.24,1199.57 1886.47,1216.82 1854.04,1229.34 1834.05,1243.89 1816.4,1263.43 1798.95,1290.89 1791.51,1310.77 1785.84,1331.4 1779.16,1356.34 1801.66,1377.23 1811.36,1391.34 1804.56,1415.11 1797.92,1441.13 1777.29,1445.72 1753.65,1442.48 1731.12,1425.17 1718,1399.48 1705.29,1377.27 1681.61,1353.94 1642.73,1328.23 1611.96,1320.17 1576.46,1319.27 1540.09,1326.19 1498.97,1336.2 1471.8,1337.71 1436.26,1327.05 1410.07,1314.37 1390.23,1289.27 1388.93,1256.73 1383.26,1217.44 1363.02,1190.21 1341.01,1167.67 1346.07,1136.05 1344.62,1108.28 1335.46,1084.15 1323.93,1056.09 1305.13,1031.64 1299.61,1004.47 1306.17,972.116 1314.95,938.872 1332.87,910.116 1350.6,878.965 1363.54,845.689 1390.96,824.459 1386.61,796.219 1369.65,772.18 1340,749.317 1307.08,746.161 1286.22,733.584 1277.87,708.75 1275.44,677.897 1287.11,649.293 1299.09,626.585 1321.47,617.815 1354.72,605.985 1391.99,600.322 1432.46,596.155 1470.69,596.448 1499.67,589.384 1522.29,563.078 1540.66,541.768 1568.55,528.724 1591.12,523.183 1595.84,508.511 1581.41,493.999 1559.28,478.327 1533.15,466.426 1505.42,439.966 1482.56,414.304 1468.92,388.416 1451.2,367.149 1447.7,349.233 1454.6,328.449 1472.58,319.101 1490.12,327.985 1520.54,331.908 1559.2,336.021 1593.77,343.879 1634.67,350.148 1668.79,353.197 1699.5,368.02 1724.29,374.395 1750.48,367.028 1774.33,355.835 1805.5,350.383 1837.49,350.738 1869.21,346.139 1892.47,360.384 1902.87,377.192 1909.72,371.645 1919.36,355.081 1936.01,338.189 1953.37,327.828 1977.4,312.917 1996.89,303.946 1988.48,304.57 1967.32,292.682 1956.27,276.977 1943.46,247.176 1947.97,218.308 1958.31,202.194 1986.7,191.805 2020.01,193.608 2045.56,198.459 2079.52,202.616 2115.46,215.196 2139.7,236.117 2143.77,264.806 2137.6,292.422 2126.23,302.113 2128.91,317.798 2133.48,340.322 2128.8,371.915 2100.9,388.533 2081.42,422.314 2054.31,445.077 2030.56,471.144 2022.72,505.368 1998.46,515.035 1963,515.505 1926.13,527.883 1894.29,541.646 1879.04,569.233 1867.07,600.188 1866.56,616.266 1892.79,622.265 1922.42,635.637 1959.23,648.501 1992.99,671.911 2021.01,687.416 2059.58,692.303 2094.61,693.228 2133.88,690.119 2164.77,694.074 2191.56,693.357 2200.71,679.209 2215.16,660.057 2230.48,638.788 2229.5,614.059 2225.49,595.686 2216.01,571.401 2189.82,550.366 2169.21,531.113 2143.52,516.746 2101.37,517.292 2075.88,524.152 2051.7,541.507 2034.62,560.956 2008.79,585.887 2003.45,614.855 2008.37,646.837 2012.85,677.667 2029.55,704.632 2043.03,729.821 2057.37,762.91 2072.62,793.265 2102.53,805.93 2132.53,822.371 2159.94,851.032 2178.97,874.595 2194.45,906.566 2201.93,931.557 2197.35,942.913 2166.05,944.43 2128.9,957.61 2101.19,956.244 2087.08,963.507 2065.84,967.214 2044.01,962.241 2012.9,948.828 1982.54,940.009 1946.1,942.687 1902.83,954.53 1864.31,969.558 1825.06,970.494 1781.75,978.918 1744.14,980.255 1703.64,979.874 1672.51,974.929 1637.34,979.241 1605.68,974.121 1571.8,966.668 1536.62,935.951 1508.49,920.522 1470.24,913.034 1436.74,898.712 1407.71,881.997 1376,860.814 1350.46,852.503 1323.43,866.857 1298.7,883.507 1269.99,899.107 1232.08,917.272 1193.45,925.595 1164.03,920.847 1135.77,897.55 1118.05,872.878 1099.48,842.711 1074.26,816.975 1062.46,786.045 1058.45,758.739 1061.49,735.585 1048.53,705.721 1025.3,688.224 996.32,676.417 976.884,655.028 968.693,624.724 966.096,601.173 954.342,573.706 963.035,547.037 984.027,519.513 996.662,502.432 1009.34,495.661 1019.91,481.744 1024.03,465.475 1031.02,441.664 1037.97,417.544 1042.97,389.536 1054.72,357.145 1055.33,333.246 1033.71,314.324 1013.37,299.658 986.582,299.757 958.159,308.306 930.384,304.078 898.888,290.048 861.505,275.638 838.651,268.942 816.343,264.521 801.113,247.653 799.721,226.409 814.216,208.4 836.976,189.334 860.472,171.859 903.269,159.689 934.461,147.503 967.652,141.847 998.707,153.351 1026.64,159.355 1060.29,154.647 1095.07,149.999 1114.5,129.184 1130.19,109.656 1144.16,88.8446 "/>
<polyline clip-path="url(#clip721)" style="stroke:#ff0000; stroke-linecap:round; stroke-linejoin:round; stroke-width:4; stroke-opacity:1; fill:none" points="203.121,717.407 234.031,723.807 236.687,714.908 258.184,716.213 261.62,716.914 289.094,722.613 306.26,726.17 335.51,725.924 360.442,727.943 391.367,734.343 418.076,730.429 439.572,731.721 482.581,734.331 494.563,743.119 519.511,745.125 562.533,747.734 580.609,748.325 600.373,755.575 634.777,762.689 654.556,769.938 677.785,777.902 701.881,782.887 732.863,789.299 751.79,799.527 780.217,802.26 813.812,812.377 830.183,806.297 872.412,811.885 890.502,825.104 918.077,830.815 951.715,840.932 971.552,848.194 999.156,853.905 1013.82,866.422 1031.97,879.654 1035.42,880.368 1068.21,880.835 1082.01,883.703 1107.04,885.722 1134.68,891.445 1159.75,906.129 1186.55,914.831 1204.68,915.434 1233.18,918.179 1269.46,919.36 1294.51,921.391 1329.09,928.554 1353.31,933.576 1378.36,935.595 1403.42,937.626 1440.56,935.841 1458.7,936.432 1488.07,936.198 1514.82,932.247 1545.86,926.044 1573.55,931.767 1600.29,927.828 1625.37,929.859 1643.38,917.797 1661.53,918.388 1678.7,909.317 1698.5,903.938 1722.74,908.96 1746,904.295 1766.79,908.59 1784.1,912.172 1807.53,920.172 1825.85,933.428 1848.46,944.42 1860.69,953.269 1877.38,972.519 1885.32,983.646 1892.44,997.764 1904.85,1019.32 1918.93,1034.89 1932.18,1053.46 1941.78,1058.62 1966.1,1063.66 1976.52,1065.82 1984.3,1064.25 2012.71,1054.31 2023.95,1053.46 2046.01,1026.38 2051.94,1018.11 2050.7,995.72 2054.77,980.766 2053.54,958.402 2034.36,948.124 2017,944.53 1994.36,933.539 1966.8,940.469 1946,936.173 1929.48,929.601 1912.16,926.019 1887.07,923.988 1869.09,936.062 1845.82,940.715 1832.96,947.534 1804.4,944.777 1779.31,942.758 1751.59,937.022 1733.28,923.766 1709.87,915.766 1674.26,898.928 1653.36,881.992 1632.47,865.056 1621.12,853.265 1609.79,841.461 1588.08,827.528 1574.97,809.078 1564.47,794.333 1558.28,777.323 1562.45,762.467 1581.26,747.488 1591.5,737.026 1614.71,732.398 1628.51,735.241 1657.81,735.008 1671.75,750.442 1692.48,754.725 1702.85,756.855 1730.5,762.566 1752.21,776.462 1757.48,783.834 1780.03,794.776 1799.13,805.017 1823.34,810.014 1842.28,807.626 1863.87,808.931 1888.73,798.333 1906.85,798.936 1920.69,801.792 1942.46,815.713 1957.32,828.218 1971.37,843.701 1978.48,857.757 1987.45,878.509 1996.41,899.273 1999.26,915.631 1997.01,937.244 1999.66,940.949 2005.99,958.045 2021.91,980.286 2024.77,996.68 2039.67,1009.25 2050.09,1011.41 2063.98,1014.28 2084.61,1005.9 2100.94,999.794 2110.32,992.249 2128.28,980.163 2133.38,974.907 2132.92,949.552 2118,936.998 2100.43,920.751 2089.82,905.956 2066.36,897.956 2037.81,895.211 2013.54,890.202 2003.14,888.048 1974.6,885.316 1957.28,881.734 1939.76,865.512 1925.9,862.656 1898.2,856.933 1886.17,860.748 1859.46,864.687 1841.16,851.456 1820.38,847.172 1801.43,849.548 1773.75,843.837 1760.73,838.003 1743.43,834.421 1717.56,835.381 1687.4,838.606 1663.32,846.225 1654.62,838.126 1654.47,825.498 1646.73,827.048 1635.53,827.885 1620.86,828.008 1613.95,826.581 1596.78,835.627 1583.92,842.421 1551.13,841.954 1535.62,845.043 1526.2,852.551 1519.4,863.764 1534.9,860.662 1553.86,858.274 1584.87,852.071 1594.15,831.935 1608.69,819.196 1612.85,804.315 1603.19,786.591 1586.63,767.452 1577.93,759.365 1566.49,735.02 1546.61,727.77 1524.35,742.036 1502.81,740.731 1471.74,734.318 1473.31,715.794 1467.99,695.867 1470.4,674.402 1474.57,659.583 1492.43,635.065 1497.44,617.304 1500.67,592.934 1481.69,582.767 1458.42,574.853 1451.53,573.437 1463.42,557.129 1488.26,546.605 1527.79,548.489 1565.41,531.245 1584.16,516.364 1601.95,491.945 1614.62,472.731 1635.13,464.473 1663.48,467.18 1687.56,472.116 1707.53,491.797 1736.85,504.056 1754.23,520.106 1763.07,540.648 1751.24,556.944 1731.7,574.791 1702.62,587.567 1668.3,593.02 1646.79,591.727 1607.93,574.348 1586.31,560.526 1577.52,539.971 1576.45,517.903 1595.19,503.034 1608.82,493.36 1635.26,476.966 1659.21,469.421 1682.19,452.324 1703.5,441.136 1721.52,441.715 1747.91,425.345 1747.76,412.877 1760.38,393.7 1772.34,389.934 1792.65,369.244 1781.36,357.613 1755.5,346.104 1771.72,340.123 1802.47,334.005 1829.13,342.56 1850.57,343.852 1878.06,349.477 1901.49,369.798 1900.86,385.195 1897.59,396.95 1872.07,410.366 1857.83,435.438 1842.77,463.476 1833.77,495.896 1837.39,509.115 1796.22,513.127 1776.7,530.962 1742.41,536.402 1711.7,555.061 1697.38,580.244 1678.64,595.149 1651.06,589.475 1628.6,578.607 1598.43,569.265 1587.14,557.572 1556.04,538.679 1553.43,535.023 1560.9,508.462 1588.31,501.619 1626.03,496.893 1650.11,501.84 1687.98,509.619 1713.06,524.131 1718.44,543.959 1734.16,565.929 1747.95,568.76 1778.98,575.136 1801.46,586.016 1808.36,587.432 1840.05,578.324 1864.01,570.754 1881.06,561.769 1901.75,566.016 1922.63,582.792 1917.73,600.54 1918.92,622.67 1901.39,659.755 1881.03,680.617 1858.02,697.824 1834.36,730.589 1836.34,749.827 1796.01,763.501 1772.8,768.141 1742.83,783.957 1717.11,797.521 1700.94,816.217 1683.94,837.892 1654.89,863.395 1631.63,868.047 1604.79,859.345 1580.58,854.336 1545.15,850.176 1518.34,841.474 1499.16,818.617 1486.08,800.167 1449.65,773.766 1439.2,759.033 1411.51,740.743 1389.95,739.438 1355.55,744.903 1341.75,742.048 1311.55,732.681 1308.8,703.831 1291.57,700.274 1264.9,704.2 1247.73,713.222 1220.27,732.694 1219.42,735.66 1181.55,740.411 1161.76,745.765 1135.04,737.088 1115.19,717.271 1092.77,706.354 1054.03,701.505 1023.9,692.138 1006.69,688.581 984.314,677.676 961.922,654.229 964.506,645.342 974.8,622.375 991.966,600.836 1002.25,577.905 1008.21,544.71 1014.18,524.057 997.856,505.065 980.691,501.533 969.531,489.865 973.804,475.132 1006.4,475.587 1045.01,480.412 1086.17,476.399 1112.75,472.498 1140.13,453.174 1165.76,427.277 1188.83,410.206 1219.65,404.088 1262.52,406.661 1291.72,418.883 1323.53,434.761 1352.76,446.995 1378.58,458.528 1400.12,472.313 1441.36,480.781 1462.92,494.579 1492.31,519.343 1524.34,547.787 1546.77,558.643 1569.22,569.511 1588.22,579.678 1597.6,572.219 1622.41,561.695 1652.32,545.978 1672.84,537.707 1705.33,525.657 1737.98,526.125 1775.05,536.857 1800.32,563.911 1803.1,580.096 1800.14,617.009 1779.93,650.413 1781.07,672.568 1771.18,708.163 1772.48,742.946 1790.08,771.711 1823.18,797.398 1861.05,792.635 1874.9,795.49 1912.95,803.33 1932.27,826.187 1961.17,854.188 1981.53,886.743 1991.51,917.182 1994.36,933.539 2008.85,920.763 2051.28,926.376 2075.56,931.385 2086.18,946.204 2088.84,949.909 2090.69,956.605 2096.22,976.692 2098.88,980.409 2116.24,983.991 2134.4,984.594 2166.25,975.375 2191.6,990.096 2199.6,1001.23 2214.79,1026.5 2212.35,1035.49 2216.41,1020.51 2222.07,999.548 2218.91,970.476 2207.21,945.958 2191.23,923.742 2182.21,902.966 2183.59,884.343 2150.3,858.582 2148,826.642 2153.66,805.804 2170.76,796.758 2192.34,798.075 2219.25,806.752 2234.17,819.257 2246.65,840.698 2276.51,865.733 2286.36,883.506 2274.85,912.628 2254.52,933.65 2238.45,952.42 2205.83,964.617 2189.74,983.4 2160.58,996.323 2131.62,1021.95 2115.51,1040.76 2105.52,1064.02 2084.28,1088.13 2067.32,1109.98 2040.74,1126.68 2015.78,1137.38 1981.39,1155.64 1958.24,1173.08 1930.6,1180.06 1898.82,1202.08 1887.73,1215.69 1850.63,1230.27 1836.05,1243.16 1815.49,1264.38 1795.91,1295.39 1791.77,1310.48 1785.95,1331.62 1778.47,1358.83 1805.7,1380.49 1810.19,1391.02 1802.71,1418.26 1795.22,1445.54 1776.94,1444.92 1751.66,1442.87 1727.91,1421.89 1717.16,1394.03 1703.89,1375.27 1677.53,1350.59 1633.78,1322.29 1612.04,1320.97 1575.54,1319.76 1536.52,1327.6 1493.17,1337.75 1474.92,1337.14 1433.99,1325.42 1411.32,1314.29 1389.43,1287.38 1388.32,1252.04 1381.96,1209.27 1361.87,1189.17 1341.81,1169.07 1347.67,1135.3 1344.04,1109.12 1336.1,1085.24 1322.92,1053.94 1303.76,1030.93 1300.16,1004.83 1306.87,968.224 1316.18,935.361 1335.01,907.667 1351.22,876.294 1363.95,844.231 1391.41,824.698 1384.34,798.038 1369.51,772.941 1336.61,747.279 1307.33,747.525 1289.17,734.343 1278.69,707.043 1274.2,671.583 1288.69,646.351 1301.47,627.052 1322.06,618.756 1358.94,604.43 1396.73,599.691 1437.96,595.666 1474.07,596.848 1498.06,589.266 1524.45,560.305 1540.61,541.756 1569.68,529.005 1589.39,523.688 1593.53,508.93 1579.64,493.606 1555.45,476.165 1529.6,464.62 1498.45,433.296 1479.39,410.71 1468.06,386.611 1451.63,367.693 1448.93,351.606 1455.59,328.122 1472.64,319.211 1491.56,329.291 1526.7,333.39 1569.54,335.95 1599.61,345.218 1641.64,350.72 1669.93,353.416 1701.81,369.269 1722.43,373.49 1749.77,366.671 1774.49,356.209 1808.69,350.794 1841.24,351.249 1872,345.132 1892.8,361.81 1903.3,376.37 1908.36,371.201 1920.94,352.049 1940.37,334.313 1957.38,325.39 1983.67,309.069 1999.84,303.075 1988.72,303.9 1960.24,288.785 1953.98,272.034 1941.5,238.543 1948.8,212.203 1958.89,201.914 1991.2,189.975 2026.31,194.049 2046.9,198.258 2085.46,203.034 2121.61,216.585 2140.83,239.047 2143.92,267.516 2136.69,293.881 2128.21,298.349 2130.26,317.352 2134.15,342.941 2127.92,378.894 2095.55,390.894 2077.38,430.674 2051.06,447.044 2029.17,473.679 2022.89,509.779 2000.59,511.429 1959.43,515.453 1922.71,529.743 1893.68,542.507 1878.62,570.631 1866.16,602.448 1867.16,612.024 1893.94,620.664 1926,636.64 1965.81,651.09 1998.93,676.691 2021.49,687.596 2063.78,693.16 2096.51,693.627 2137.78,689.59 2161.98,694.575 2187.81,693.615 2198.75,680.211 2215.57,658.635 2232.36,637.059 2228.43,611.248 2225.53,595.038 2214.69,567.837 2184.2,545.978 2166.72,529.928 2141.54,515.404 2093.48,518.013 2077.25,524.044 2050.08,543.418 2034.07,561.966 2004.43,590.226 2004.02,618.276 2009.7,650.721 2012.74,679.534 2031.25,705.271 2042.84,729.604 2058.12,767.28 2072.4,795.342 2102.74,804.746 2134.15,823.787 2162.33,854.767 2179.07,873.967 2195.27,908.812 2200.83,928.874 2198.4,937.835 2163.93,943.337 2122.74,960.076 2101.91,955.768 2089.06,962.587 2065.79,967.251 2041.5,962.23 2005.78,945.367 1978.04,939.632 1940.08,944.42 1891.89,959.719 1859.22,971.916 1822.88,970.722 1776.32,980.052 1743.46,979.572 1702.84,980.655 1675.1,974.919 1637.12,979.695 1605.93,973.246 1571.28,966.07 1530.34,929.145 1510.4,921.859 1468.88,913.268 1436.82,897.156 1408.22,881.771 1374.41,859.001 1353.66,854.717 1324.41,867.592 1297.76,884.159 1267.63,900.036 1225.43,919.729 1190.91,925.219 1166.71,920.209 1133.83,894.436 1118.22,872.257 1098.3,839.726 1072.37,815.442 1062.82,785.102 1059.32,759.193 1061.86,737.691 1046.29,703.043 1024.75,689.172 995.489,676.851 976.547,654.106 967.928,620.959 966.181,601.796 953.289,570.939 964.434,545.067 987.577,515.441 994.435,504.351 1007.28,497.631 1019.28,481.36 1024.39,463.685 1032.07,437.198 1038.89,413.664 1043.97,383.558 1057.6,349.034 1055,332.947 1031.86,312.663 1013.87,299.653 984.776,299.899 956.552,309.635 929.179,304.023 894.111,287.505 854.784,273.227 841.112,270.421 817.176,265.51 800.963,246.666 800.154,224.795 816.41,206.431 840.347,186.553 863.418,169.617 913.789,158.269 935.127,147.179 969.256,141.788 998.289,153.924 1025.62,159.512 1063.17,154.822 1097.3,149.444 1114.31,128.2 1130.46,109.885 1144.03,87.9763 "/>
<polyline clip-path="url(#clip721)" style="stroke:#3da44d; stroke-linecap:round; stroke-linejoin:round; stroke-width:4; stroke-opacity:1; fill:none" points="217.82,725.041 230.361,723.788 243.958,725.078 258.069,726.089 274.107,725.358 293.103,725.905 314.045,728.163 337.001,731.045 361.698,731.247 387.388,733.709 415.981,734.489 440.894,735.484 470.132,736.419 496.757,738.408 522.446,744.417 550.695,748.147 577.741,753.886 604.281,756.824 630.026,762.843 654.264,769.78 678.764,777.439 705.856,783.438 732.516,788.93 757.93,794.945 783.998,800.002 810.252,806.04 836.84,811.68 864.983,819.518 891.436,824.458 916.899,831.712 943.283,840.213 968.347,849.45 990.441,857.614 1010.88,864.797 1030.07,872.667 1048.8,876.826 1069.03,881.298 1090.04,884.309 1112.47,890.709 1136.41,897.243 1161.9,902.611 1186.74,907.134 1213.34,911.266 1240.22,915.947 1269.75,920.04 1295.36,922.406 1323.23,927.39 1351.14,930.66 1378.55,930.569 1406.13,931.934 1434.19,932.895 1462.17,931.598 1489.94,934.106 1517.45,932.604 1542.58,931.794 1568.43,930.899 1592.9,928.034 1617.83,925.142 1639.16,921.949 1660.14,918.436 1679.65,914.886 1699.04,913.582 1719.74,911.514 1741.93,911.705 1763.64,912.824 1784.47,917.774 1805,922.192 1823.7,932.138 1842.88,943.441 1859.11,957.352 1874.82,969.467 1887.91,982.163 1897.99,997.872 1910.04,1011.63 1921.01,1025.02 1933.81,1037.66 1946.8,1046.44 1960.54,1053.57 1976.02,1056.77 1990.14,1056.09 2004.18,1050.65 2019.65,1042.67 2030.5,1031.7 2037.39,1016.48 2041.86,999.835 2042.59,984.267 2037.05,970.476 2024.93,959.622 2009.84,947.824 1994.03,939.742 1972.27,934.46 1949.85,933.032 1929.22,932.046 1907.85,929.714 1888.48,929.789 1867.13,933.111 1844.51,936.048 1822.24,937.899 1799.93,937.086 1777.67,935.859 1753.65,930.04 1730.8,920.938 1707.98,909.895 1685.73,896.626 1663.4,882.988 1643.78,867.254 1627.38,852.507 1611.3,838.256 1596.38,824.408 1582.49,810.698 1574.99,797.168 1571.79,783.953 1574.88,771.072 1582.33,758.407 1594.81,747.099 1612.7,745.953 1631.42,745.52 1651.53,744.352 1671.87,747.061 1690.72,752.404 1709.51,759.068 1726.84,768.376 1745.56,776.533 1763.85,783.606 1780.14,792.571 1799.09,799.036 1819.2,804.784 1840.87,808.251 1861.38,810.675 1881.43,811.172 1900.62,813.197 1919.49,816.375 1936.14,822.672 1953.05,832.745 1965.35,845.109 1975.69,860.891 1982.86,877.565 1990.32,894.184 1995.43,910.681 2000.97,926.256 2007.22,943.638 2012.46,957.142 2019.95,972.062 2025.61,986.216 2037.08,996.36 2049.31,1002.93 2062.75,1006.75 2079.04,1004.49 2093.89,1000.53 2104.59,993.755 2112.48,983.117 2114.02,968.475 2112.42,953.778 2102.2,939.168 2090.78,924.996 2076.46,912.955 2059.12,902.141 2039.15,894.743 2018.78,890.044 1999.76,883.995 1979.29,879.364 1960.66,874.665 1940.26,870.925 1919.5,865.304 1899.14,860.322 1879.21,855.471 1860.43,854.138 1840.71,850.985 1821.7,849.037 1799.49,847.598 1779.7,842.989 1759.29,838.784 1737.24,839.309 1717.67,836.763 1697.12,836.572 1677.92,838.597 1662,834.879 1653,829.974 1640.27,827.857 1628.09,826.12 1618.22,824.427 1608.6,829.736 1593.2,832.102 1576.1,835.723 1560.91,840.769 1545.19,847.964 1528.67,853.794 1528.87,860.378 1543.82,865.426 1559.38,858.143 1579.85,850.169 1591.15,827.732 1608.4,823.162 1609.9,803.197 1603.52,784.312 1596.12,765.759 1593.72,745.382 1571,733.705 1544.93,729.376 1525.34,741.189 1501.54,745.534 1479.27,741.675 1467.7,724.171 1466.75,699.673 1466.65,677.926 1478.53,659.586 1489.85,642.055 1494.97,622.666 1495.12,601.759 1473.6,590.813 1453.49,583.55 1459.26,570.143 1472.32,557.513 1497.37,547.672 1526.99,542.18 1558.13,535.577 1579.71,516.114 1587.19,492.589 1607.57,472.752 1633.54,466.339 1664.16,469.797 1691.07,474.135 1716.18,484.921 1735.89,502.231 1762.43,515.337 1762.41,539.576 1750.33,556.16 1730.49,574.442 1701.83,585.347 1672.92,592.673 1643.18,590.525 1616.51,579.651 1592.92,562.295 1575.19,540.946 1569.73,517.761 1594.43,504.732 1616.47,492.312 1641.18,477.158 1665.09,470.82 1683.72,458.505 1700,449.663 1723.42,440.254 1735.95,420.255 1748.77,412.538 1759.7,399.223 1781.5,390.776 1795.17,372.658 1779.26,360.928 1758.27,356.011 1757.11,344.383 1778.86,337.427 1802.13,340.212 1824.09,338.707 1850.42,343.306 1876.75,351.631 1904.36,358.257 1909.02,385.538 1889.14,401.326 1873.27,419.989 1857.36,440.475 1848.56,464.713 1840.97,489.121 1830.35,511.691 1800.74,515.786 1770.98,524.317 1743.18,537.729 1716.2,557.027 1709.56,585.771 1680.66,599.478 1653.89,587.527 1627.32,579.087 1602.93,575.955 1580.14,564.495 1562.17,547.151 1548.94,529.577 1568.32,508.948 1595.72,494.448 1625.49,498.148 1654.28,503.957 1681.8,513.593 1704.13,529.203 1711.39,550.254 1732.31,562.233 1753.95,566.435 1771.97,579.448 1794.79,582.868 1818.18,586.97 1839.54,578.582 1858.16,565.222 1880.25,559.248 1899.15,566.641 1913.88,583.741 1924.36,606.925 1917.82,632.133 1900.44,654.497 1878.77,678.512 1856.49,699.122 1850.83,726.089 1830.75,745.526 1807.51,757.243 1778.48,770.866 1748.82,779.16 1724.4,797.559 1697.32,813.669 1682.94,840.499 1656.53,859.681 1620.28,868.228 1602.39,856.288 1574.33,855.688 1545.59,852.704 1519.68,839.972 1503.18,816.361 1486.04,795.135 1465.13,774.435 1445.34,759.974 1419.83,749.623 1393.02,751.375 1367.8,752.191 1348.68,737.968 1328.7,725.493 1309.95,710.28 1288.97,699.769 1267.42,706.951 1249.44,716.173 1229.02,726.241 1203.67,733.642 1186.27,748.99 1159.89,750.883 1133.07,739.276 1110.02,723.326 1091.02,707.556 1062.87,695.192 1035.8,690.845 1008.37,683.818 979.453,679.967 959.711,661.374 972.408,642.583 989.688,627.476 987.923,599.365 996.648,575.032 1008.76,551.374 1010.83,527.976 998.794,505.083 967.859,506.027 966.118,484.457 988.708,472.576 1011.72,482.664 1043.74,479.718 1077,475.947 1107.92,464.789 1140.75,453.396 1169.62,434.277 1191.91,411.895 1224.13,399.551 1259.5,403.067 1289.93,414.531 1321.84,427.514 1349.42,440.76 1378.46,455.662 1408.38,463.803 1436.62,478.144 1468.3,490.415 1488.32,516.019 1508.7,538.842 1535.66,552.267 1557.45,568.325 1581.11,578.551 1605.85,573.271 1625.88,561.312 1652.18,553.263 1677,538.124 1706,528.26 1737.72,526.161 1768.72,537.733 1799.98,553.087 1805.44,583.957 1795.34,615.697 1784.93,646.727 1770.05,674.014 1772.87,707.375 1767.31,739.657 1786.6,766.024 1814.61,787.314 1846.96,790.779 1882.36,786.271 1916.28,798.821 1938.37,826.123 1960.02,852.257 1981.45,877.083 1986.2,903.509 1989.02,929.421 2016.49,924.424 2044.05,922.597 2063.37,932.715 2082.28,937.175 2085.71,943.988 2087.14,956.642 2090.95,964.263 2102.55,975.721 2117.34,983.446 2137.97,979.015 2165.38,980.854 2184.67,995.89 2193.71,1012.32 2199.44,1026.65 2216.47,1035.42 2223.11,1019.57 2220.05,998.572 2221.02,975.762 2208.89,952.859 2196.61,929.238 2184.13,902.042 2183.32,872.323 2160.16,851.489 2146.03,827.26 2160.48,814.466 2164.19,790.715 2189.47,793.035 2215.72,803.154 2228.39,827.403 2250.21,847.505 2274.18,860.402 2290.15,889.158 2281.01,916.2 2259.88,933.871 2241.48,957.25 2210.57,965.26 2189.46,982.213 2163.5,999.033 2138.69,1015.47 2119.65,1035.58 2100.13,1058.4 2087.5,1084.5 2073.25,1110.06 2047.39,1129.7 2015.56,1144.26 1990.42,1163.58 1959.3,1175.04 1926.15,1180.75 1899.48,1199.09 1879.11,1218.28 1852.37,1230.19 1834.81,1249.27 1816.08,1268.22 1805.25,1289.65 1786.9,1306.9 1783.62,1329.73 1784.43,1354.15 1801.85,1371.15 1817.75,1394.87 1809.67,1419.61 1801.65,1444.89 1774.16,1441.94 1748.32,1437 1721.51,1423.08 1716.14,1393.38 1695.77,1368.43 1672.04,1349.94 1642.83,1333.43 1610.6,1317.63 1574.5,1318.5 1540.84,1319.86 1508.5,1337.01 1471.83,1330.81 1439.3,1318 1409.04,1304.45 1394.01,1278.3 1386.58,1248.76 1380.25,1218 1363.41,1191.48 1340.01,1174.5 1346.15,1144.76 1340.11,1111.62 1326.77,1083.42 1319.46,1053.47 1300.7,1028.96 1300.42,996.323 1308.42,965.29 1311.69,933.843 1334.81,907.299 1348.77,876.445 1370.3,852.414 1397.97,831.802 1388.92,799.333 1366.38,773.227 1338.66,752.429 1306.62,745.22 1274.93,734.57 1270.71,704.896 1271.89,675.027 1282.29,646.889 1302.64,625.187 1328.86,611.426 1359.39,600.955 1394.35,601.845 1432.24,597.737 1468.68,597.701 1499.47,587.764 1512.31,561.763 1537.29,544.887 1565.6,539.055 1594.55,530.574 1590.78,514.994 1573.19,497.367 1551.07,477.934 1524.58,463.396 1505.77,440.341 1486.9,416.235 1468.46,394.601 1455.02,370.037 1439.03,350.668 1448.85,324.19 1473.22,319.74 1498.67,330.442 1533.75,327.484 1565.36,336.742 1599.24,340.413 1633.16,345.623 1662.49,358.341 1689.66,375.291 1722.28,374.389 1751.07,364.694 1780.03,358.659 1807.77,353.435 1834.71,351.054 1862.34,348.717 1878.72,365.495 1892.97,384.066 1909.84,369.196 1924.53,353.357 1935.6,334.832 1959.06,322.899 1987.07,315.981 2005.23,311.008 1983.24,302.326 1957.38,291.333 1949.87,268.004 1943.21,242.283 1944.5,213.221 1967.98,203.438 1994.55,195.072 2023.49,192.597 2054.32,196.598 2088.52,200.382 2117.1,212.676 2135.07,237.047 2141.02,263.01 2141.03,288.939 2127.44,304.752 2138.04,325.178 2130.48,349.194 2118.4,374.203 2098.21,398.25 2079.76,424.412 2050.18,445.974 2033.52,474.866 2022.4,504.574 1994.23,517.817 1959.07,517.894 1926.13,528.201 1894.85,540.375 1876.63,563.304 1857.59,588.37 1871.93,613.659 1901.48,623.166 1933.64,633.889 1964.68,648.863 1990.03,670.004 2020.12,685.542 2058.33,695.596 2093.45,696.189 2127.32,691.834 2154.25,697.837 2180.95,694.845 2198.03,678.603 2212.75,662.31 2224.56,641.795 2224.11,615.981 2225.17,589.373 2209.2,569.774 2187.13,549.145 2164.72,525.896 2133.84,513.939 2100.62,508.504 2073.12,523.833 2046.1,542.112 2026.04,568.858 2001.9,591.404 2003.46,619.926 2004.21,649.052 2009.75,678.045 2028.1,704.176 2044.96,732.859 2055.51,763.342 2079.59,788.418 2109.06,801.535 2134.84,820.541 2154.44,846.746 2177.14,870.25 2191.91,894.586 2200.79,918.812 2190.57,942.509 2163.53,950.361 2134.14,955.956 2104.55,954.198 2086.37,965.333 2055.57,968.733 2034.6,957.339 2005.77,944.285 1971.5,940.103 1935.33,949.662 1896.91,959.953 1859.67,969.972 1821.06,972.056 1784.52,978.927 1745.72,980.891 1705.69,983.551 1667.39,979.849 1633.05,975.992 1598.48,971.701 1566.81,955.923 1540.37,936.741 1509.29,917.732 1470.3,914.002 1434.95,900.684 1410.04,879.58 1385.45,859.379 1354.93,850.966 1327.86,868.964 1296.34,886.561 1268.33,905.222 1232.72,914.976 1199.39,923.173 1162.48,924.8 1137.19,902.091 1120.77,873.084 1104.81,843.927 1080.61,820.271 1066.26,791.413 1060.85,764.134 1063.42,734.494 1052.7,707.344 1020.81,693.243 991.842,679.76 975.619,653.564 964.663,626.645 959.472,599.413 956.57,572.007 966.199,549.804 980.009,527.43 991.087,507.171 1005.14,495.486 1020.05,480.954 1028.23,458.318 1038.11,434.615 1046.21,411.031 1050.02,384.958 1058.17,359.59 1049.97,332.35 1036.19,309.749 1014.91,297.327 985.432,298.484 959.349,305.693 927.501,302.916 895.916,291.88 870.721,277.731 841.805,269.553 811.27,267.864 790.649,245.443 795.928,221.713 815.991,200.745 843.542,190.106 873.917,172.815 905.808,161.358 935.67,144.765 967.024,141.821 995.395,151.823 1025.67,156.632 1059.52,155.926 1091.97,150.556 1110.11,127.048 1131.14,109.412 1138.32,89.7026 "/>
<path clip-path="url(#clip720)" d="M214.252 1438.47 L760.776 1438.47 L760.776 1231.11 L214.252 1231.11  Z" fill="#ffffff" fill-rule="evenodd" fill-opacity="1"/>
<polyline clip-path="url(#clip720)" style="stroke:#000000; stroke-linecap:round; stroke-linejoin:round; stroke-width:4; stroke-opacity:1; fill:none" points="214.252,1438.47 760.776,1438.47 760.776,1231.11 214.252,1231.11 214.252,1438.47 "/>
<polyline clip-path="url(#clip720)" style="stroke:#0000ff; stroke-linecap:round; stroke-linejoin:round; stroke-width:4; stroke-opacity:1; fill:none" points="238.832,1282.95 386.315,1282.95 "/>
<path clip-path="url(#clip720)" d="M434.924 1286.21 L434.924 1288.29 L415.34 1288.29 Q415.618 1292.69 417.979 1295 Q420.363 1297.29 424.6 1297.29 Q427.053 1297.29 429.345 1296.69 Q431.66 1296.09 433.928 1294.89 L433.928 1298.91 Q431.637 1299.89 429.229 1300.4 Q426.822 1300.91 424.345 1300.91 Q418.141 1300.91 414.507 1297.29 Q410.896 1293.68 410.896 1287.53 Q410.896 1281.16 414.322 1277.43 Q417.771 1273.68 423.604 1273.68 Q428.836 1273.68 431.868 1277.06 Q434.924 1280.42 434.924 1286.21 M430.664 1284.96 Q430.618 1281.46 428.697 1279.38 Q426.799 1277.29 423.65 1277.29 Q420.086 1277.29 417.933 1279.31 Q415.803 1281.32 415.479 1284.98 L430.664 1284.96 Z" fill="#000000" fill-rule="nonzero" fill-opacity="1" /><path clip-path="url(#clip720)" d="M458.442 1275.07 L458.442 1279.1 Q456.636 1278.17 454.692 1277.71 Q452.748 1277.25 450.664 1277.25 Q447.493 1277.25 445.896 1278.22 Q444.322 1279.19 444.322 1281.14 Q444.322 1282.62 445.456 1283.48 Q446.59 1284.31 450.016 1285.07 L451.474 1285.4 Q456.011 1286.37 457.91 1288.15 Q459.831 1289.91 459.831 1293.08 Q459.831 1296.69 456.96 1298.8 Q454.113 1300.91 449.113 1300.91 Q447.03 1300.91 444.761 1300.49 Q442.516 1300.1 440.016 1299.29 L440.016 1294.89 Q442.377 1296.11 444.669 1296.74 Q446.961 1297.34 449.206 1297.34 Q452.215 1297.34 453.836 1296.32 Q455.456 1295.28 455.456 1293.41 Q455.456 1291.67 454.275 1290.74 Q453.118 1289.82 449.16 1288.96 L447.678 1288.61 Q443.72 1287.78 441.961 1286.07 Q440.201 1284.33 440.201 1281.32 Q440.201 1277.67 442.794 1275.67 Q445.386 1273.68 450.155 1273.68 Q452.516 1273.68 454.599 1274.03 Q456.683 1274.38 458.442 1275.07 Z" fill="#000000" fill-rule="nonzero" fill-opacity="1" /><path clip-path="url(#clip720)" d="M470.826 1266.95 L470.826 1274.31 L479.599 1274.31 L479.599 1277.62 L470.826 1277.62 L470.826 1291.69 Q470.826 1294.86 471.683 1295.77 Q472.562 1296.67 475.224 1296.67 L479.599 1296.67 L479.599 1300.23 L475.224 1300.23 Q470.294 1300.23 468.419 1298.41 Q466.544 1296.55 466.544 1291.69 L466.544 1277.62 L463.419 1277.62 L463.419 1274.31 L466.544 1274.31 L466.544 1266.95 L470.826 1266.95 Z" fill="#000000" fill-rule="nonzero" fill-opacity="1" /><path clip-path="url(#clip720)" d="M485.201 1274.31 L489.46 1274.31 L489.46 1300.23 L485.201 1300.23 L485.201 1274.31 M485.201 1264.22 L489.46 1264.22 L489.46 1269.61 L485.201 1269.61 L485.201 1264.22 Z" fill="#000000" fill-rule="nonzero" fill-opacity="1" /><path clip-path="url(#clip720)" d="M518.557 1279.29 Q520.155 1276.42 522.377 1275.05 Q524.599 1273.68 527.608 1273.68 Q531.659 1273.68 533.858 1276.53 Q536.057 1279.35 536.057 1284.59 L536.057 1300.23 L531.775 1300.23 L531.775 1284.73 Q531.775 1281 530.455 1279.19 Q529.136 1277.39 526.428 1277.39 Q523.118 1277.39 521.196 1279.59 Q519.275 1281.79 519.275 1285.58 L519.275 1300.23 L514.993 1300.23 L514.993 1284.73 Q514.993 1280.98 513.673 1279.19 Q512.354 1277.39 509.599 1277.39 Q506.335 1277.39 504.414 1279.61 Q502.493 1281.81 502.493 1285.58 L502.493 1300.23 L498.21 1300.23 L498.21 1274.31 L502.493 1274.31 L502.493 1278.34 Q503.951 1275.95 505.988 1274.82 Q508.025 1273.68 510.826 1273.68 Q513.65 1273.68 515.618 1275.12 Q517.608 1276.55 518.557 1279.29 Z" fill="#000000" fill-rule="nonzero" fill-opacity="1" /><path clip-path="url(#clip720)" d="M556.335 1287.2 Q551.173 1287.2 549.182 1288.38 Q547.191 1289.56 547.191 1292.41 Q547.191 1294.68 548.673 1296.02 Q550.178 1297.34 552.747 1297.34 Q556.289 1297.34 558.418 1294.84 Q560.571 1292.32 560.571 1288.15 L560.571 1287.2 L556.335 1287.2 M564.83 1285.44 L564.83 1300.23 L560.571 1300.23 L560.571 1296.3 Q559.113 1298.66 556.937 1299.79 Q554.761 1300.91 551.613 1300.91 Q547.631 1300.91 545.27 1298.68 Q542.932 1296.44 542.932 1292.69 Q542.932 1288.31 545.849 1286.09 Q548.789 1283.87 554.599 1283.87 L560.571 1283.87 L560.571 1283.45 Q560.571 1280.51 558.627 1278.92 Q556.705 1277.29 553.21 1277.29 Q550.988 1277.29 548.881 1277.83 Q546.775 1278.36 544.83 1279.42 L544.83 1275.49 Q547.168 1274.59 549.367 1274.15 Q551.566 1273.68 553.65 1273.68 Q559.275 1273.68 562.053 1276.6 Q564.83 1279.52 564.83 1285.44 Z" fill="#000000" fill-rule="nonzero" fill-opacity="1" /><path clip-path="url(#clip720)" d="M577.816 1266.95 L577.816 1274.31 L586.589 1274.31 L586.589 1277.62 L577.816 1277.62 L577.816 1291.69 Q577.816 1294.86 578.673 1295.77 Q579.552 1296.67 582.214 1296.67 L586.589 1296.67 L586.589 1300.23 L582.214 1300.23 Q577.284 1300.23 575.409 1298.41 Q573.534 1296.55 573.534 1291.69 L573.534 1277.62 L570.409 1277.62 L570.409 1274.31 L573.534 1274.31 L573.534 1266.95 L577.816 1266.95 Z" fill="#000000" fill-rule="nonzero" fill-opacity="1" /><path clip-path="url(#clip720)" d="M614.367 1286.21 L614.367 1288.29 L594.784 1288.29 Q595.062 1292.69 597.423 1295 Q599.807 1297.29 604.043 1297.29 Q606.497 1297.29 608.788 1296.69 Q611.103 1296.09 613.372 1294.89 L613.372 1298.91 Q611.08 1299.89 608.673 1300.4 Q606.265 1300.91 603.788 1300.91 Q597.585 1300.91 593.95 1297.29 Q590.339 1293.68 590.339 1287.53 Q590.339 1281.16 593.765 1277.43 Q597.214 1273.68 603.048 1273.68 Q608.279 1273.68 611.312 1277.06 Q614.367 1280.42 614.367 1286.21 M610.108 1284.96 Q610.062 1281.46 608.14 1279.38 Q606.242 1277.29 603.094 1277.29 Q599.529 1277.29 597.376 1279.31 Q595.247 1281.32 594.923 1284.98 L610.108 1284.96 Z" fill="#000000" fill-rule="nonzero" fill-opacity="1" /><polyline clip-path="url(#clip720)" style="stroke:#ff0000; stroke-linecap:round; stroke-linejoin:round; stroke-width:4; stroke-opacity:1; fill:none" points="238.832,1334.79 386.315,1334.79 "/>
<path clip-path="url(#clip720)" d="M431.243 1331.13 Q432.84 1328.26 435.062 1326.89 Q437.285 1325.52 440.294 1325.52 Q444.345 1325.52 446.544 1328.37 Q448.743 1331.19 448.743 1336.43 L448.743 1352.07 L444.461 1352.07 L444.461 1336.57 Q444.461 1332.84 443.141 1331.03 Q441.822 1329.23 439.113 1329.23 Q435.803 1329.23 433.882 1331.43 Q431.961 1333.63 431.961 1337.42 L431.961 1352.07 L427.678 1352.07 L427.678 1336.57 Q427.678 1332.82 426.359 1331.03 Q425.039 1329.23 422.285 1329.23 Q419.021 1329.23 417.1 1331.45 Q415.178 1333.65 415.178 1337.42 L415.178 1352.07 L410.896 1352.07 L410.896 1326.15 L415.178 1326.15 L415.178 1330.18 Q416.637 1327.79 418.674 1326.66 Q420.711 1325.52 423.512 1325.52 Q426.336 1325.52 428.303 1326.96 Q430.294 1328.39 431.243 1331.13 Z" fill="#000000" fill-rule="nonzero" fill-opacity="1" /><path clip-path="url(#clip720)" d="M479.414 1338.05 L479.414 1340.13 L459.831 1340.13 Q460.109 1344.53 462.47 1346.84 Q464.854 1349.13 469.09 1349.13 Q471.544 1349.13 473.835 1348.53 Q476.15 1347.93 478.419 1346.73 L478.419 1350.75 Q476.127 1351.73 473.72 1352.24 Q471.312 1352.75 468.835 1352.75 Q462.632 1352.75 458.998 1349.13 Q455.386 1345.52 455.386 1339.37 Q455.386 1333 458.812 1329.27 Q462.261 1325.52 468.095 1325.52 Q473.326 1325.52 476.359 1328.9 Q479.414 1332.26 479.414 1338.05 M475.155 1336.8 Q475.109 1333.3 473.187 1331.22 Q471.289 1329.13 468.141 1329.13 Q464.576 1329.13 462.423 1331.15 Q460.294 1333.16 459.97 1336.82 L475.155 1336.8 Z" fill="#000000" fill-rule="nonzero" fill-opacity="1" /><path clip-path="url(#clip720)" d="M498.187 1339.04 Q493.025 1339.04 491.034 1340.22 Q489.044 1341.4 489.044 1344.25 Q489.044 1346.52 490.525 1347.86 Q492.03 1349.18 494.599 1349.18 Q498.141 1349.18 500.27 1346.68 Q502.423 1344.16 502.423 1339.99 L502.423 1339.04 L498.187 1339.04 M506.682 1337.28 L506.682 1352.07 L502.423 1352.07 L502.423 1348.14 Q500.965 1350.5 498.789 1351.63 Q496.613 1352.75 493.465 1352.75 Q489.483 1352.75 487.122 1350.52 Q484.784 1348.28 484.784 1344.53 Q484.784 1340.15 487.701 1337.93 Q490.641 1335.71 496.451 1335.71 L502.423 1335.71 L502.423 1335.29 Q502.423 1332.35 500.479 1330.76 Q498.557 1329.13 495.062 1329.13 Q492.84 1329.13 490.733 1329.67 Q488.627 1330.2 486.683 1331.26 L486.683 1327.33 Q489.021 1326.43 491.22 1325.99 Q493.419 1325.52 495.502 1325.52 Q501.127 1325.52 503.905 1328.44 Q506.682 1331.36 506.682 1337.28 Z" fill="#000000" fill-rule="nonzero" fill-opacity="1" /><path clip-path="url(#clip720)" d="M531.983 1326.91 L531.983 1330.94 Q530.178 1330.01 528.233 1329.55 Q526.289 1329.09 524.206 1329.09 Q521.034 1329.09 519.437 1330.06 Q517.863 1331.03 517.863 1332.98 Q517.863 1334.46 518.997 1335.32 Q520.131 1336.15 523.557 1336.91 L525.016 1337.24 Q529.553 1338.21 531.451 1339.99 Q533.372 1341.75 533.372 1344.92 Q533.372 1348.53 530.502 1350.64 Q527.655 1352.75 522.655 1352.75 Q520.571 1352.75 518.303 1352.33 Q516.057 1351.94 513.557 1351.13 L513.557 1346.73 Q515.919 1347.95 518.21 1348.58 Q520.502 1349.18 522.747 1349.18 Q525.756 1349.18 527.377 1348.16 Q528.997 1347.12 528.997 1345.25 Q528.997 1343.51 527.817 1342.58 Q526.659 1341.66 522.701 1340.8 L521.219 1340.45 Q517.261 1339.62 515.502 1337.91 Q513.743 1336.17 513.743 1333.16 Q513.743 1329.51 516.335 1327.51 Q518.928 1325.52 523.696 1325.52 Q526.057 1325.52 528.141 1325.87 Q530.224 1326.22 531.983 1326.91 Z" fill="#000000" fill-rule="nonzero" fill-opacity="1" /><path clip-path="url(#clip720)" d="M539.715 1341.84 L539.715 1326.15 L543.974 1326.15 L543.974 1341.68 Q543.974 1345.36 545.409 1347.21 Q546.844 1349.04 549.715 1349.04 Q553.164 1349.04 555.154 1346.84 Q557.168 1344.64 557.168 1340.85 L557.168 1326.15 L561.428 1326.15 L561.428 1352.07 L557.168 1352.07 L557.168 1348.09 Q555.617 1350.45 553.557 1351.61 Q551.52 1352.75 548.812 1352.75 Q544.344 1352.75 542.029 1349.97 Q539.715 1347.19 539.715 1341.84 M550.432 1325.52 L550.432 1325.52 Z" fill="#000000" fill-rule="nonzero" fill-opacity="1" /><path clip-path="url(#clip720)" d="M585.224 1330.13 Q584.506 1329.71 583.65 1329.53 Q582.816 1329.32 581.798 1329.32 Q578.187 1329.32 576.242 1331.68 Q574.321 1334.02 574.321 1338.42 L574.321 1352.07 L570.039 1352.07 L570.039 1326.15 L574.321 1326.15 L574.321 1330.18 Q575.664 1327.82 577.816 1326.68 Q579.969 1325.52 583.048 1325.52 Q583.488 1325.52 584.02 1325.59 Q584.552 1325.64 585.201 1325.76 L585.224 1330.13 Z" fill="#000000" fill-rule="nonzero" fill-opacity="1" /><path clip-path="url(#clip720)" d="M610.825 1338.05 L610.825 1340.13 L591.242 1340.13 Q591.52 1344.53 593.881 1346.84 Q596.265 1349.13 600.501 1349.13 Q602.955 1349.13 605.247 1348.53 Q607.562 1347.93 609.83 1346.73 L609.83 1350.75 Q607.538 1351.73 605.131 1352.24 Q602.724 1352.75 600.247 1352.75 Q594.043 1352.75 590.409 1349.13 Q586.798 1345.52 586.798 1339.37 Q586.798 1333 590.224 1329.27 Q593.673 1325.52 599.506 1325.52 Q604.737 1325.52 607.77 1328.9 Q610.825 1332.26 610.825 1338.05 M606.566 1336.8 Q606.52 1333.3 604.599 1331.22 Q602.7 1329.13 599.552 1329.13 Q595.988 1329.13 593.835 1331.15 Q591.705 1333.16 591.381 1336.82 L606.566 1336.8 Z" fill="#000000" fill-rule="nonzero" fill-opacity="1" /><path clip-path="url(#clip720)" d="M638.001 1331.13 Q639.598 1328.26 641.821 1326.89 Q644.043 1325.52 647.052 1325.52 Q651.103 1325.52 653.302 1328.37 Q655.501 1331.19 655.501 1336.43 L655.501 1352.07 L651.219 1352.07 L651.219 1336.57 Q651.219 1332.84 649.899 1331.03 Q648.58 1329.23 645.872 1329.23 Q642.561 1329.23 640.64 1331.43 Q638.719 1333.63 638.719 1337.42 L638.719 1352.07 L634.436 1352.07 L634.436 1336.57 Q634.436 1332.82 633.117 1331.03 Q631.798 1329.23 629.043 1329.23 Q625.779 1329.23 623.858 1331.45 Q621.936 1333.65 621.936 1337.42 L621.936 1352.07 L617.654 1352.07 L617.654 1326.15 L621.936 1326.15 L621.936 1330.18 Q623.395 1327.79 625.432 1326.66 Q627.469 1325.52 630.27 1325.52 Q633.094 1325.52 635.061 1326.96 Q637.052 1328.39 638.001 1331.13 Z" fill="#000000" fill-rule="nonzero" fill-opacity="1" /><path clip-path="url(#clip720)" d="M686.172 1338.05 L686.172 1340.13 L666.589 1340.13 Q666.867 1344.53 669.228 1346.84 Q671.612 1349.13 675.848 1349.13 Q678.302 1349.13 680.594 1348.53 Q682.908 1347.93 685.177 1346.73 L685.177 1350.75 Q682.885 1351.73 680.478 1352.24 Q678.07 1352.75 675.594 1352.75 Q669.39 1352.75 665.756 1349.13 Q662.145 1345.52 662.145 1339.37 Q662.145 1333 665.57 1329.27 Q669.02 1325.52 674.853 1325.52 Q680.084 1325.52 683.117 1328.9 Q686.172 1332.26 686.172 1338.05 M681.913 1336.8 Q681.867 1333.3 679.945 1331.22 Q678.047 1329.13 674.899 1329.13 Q671.334 1329.13 669.182 1331.15 Q667.052 1333.16 666.728 1336.82 L681.913 1336.8 Z" fill="#000000" fill-rule="nonzero" fill-opacity="1" /><path clip-path="url(#clip720)" d="M714.714 1336.43 L714.714 1352.07 L710.455 1352.07 L710.455 1336.57 Q710.455 1332.88 709.019 1331.06 Q707.584 1329.23 704.714 1329.23 Q701.265 1329.23 699.274 1331.43 Q697.283 1333.63 697.283 1337.42 L697.283 1352.07 L693.001 1352.07 L693.001 1326.15 L697.283 1326.15 L697.283 1330.18 Q698.811 1327.84 700.871 1326.68 Q702.955 1325.52 705.663 1325.52 Q710.13 1325.52 712.422 1328.3 Q714.714 1331.06 714.714 1336.43 Z" fill="#000000" fill-rule="nonzero" fill-opacity="1" /><path clip-path="url(#clip720)" d="M727.422 1318.79 L727.422 1326.15 L736.195 1326.15 L736.195 1329.46 L727.422 1329.46 L727.422 1343.53 Q727.422 1346.7 728.278 1347.61 Q729.158 1348.51 731.82 1348.51 L736.195 1348.51 L736.195 1352.07 L731.82 1352.07 Q726.89 1352.07 725.015 1350.25 Q723.14 1348.39 723.14 1343.53 L723.14 1329.46 L720.015 1329.46 L720.015 1326.15 L723.14 1326.15 L723.14 1318.79 L727.422 1318.79 Z" fill="#000000" fill-rule="nonzero" fill-opacity="1" /><polyline clip-path="url(#clip720)" style="stroke:#3da44d; stroke-linecap:round; stroke-linejoin:round; stroke-width:4; stroke-opacity:1; fill:none" points="238.832,1386.63 386.315,1386.63 "/>
<path clip-path="url(#clip720)" d="M435.549 1377.99 L426.174 1390.6 L436.035 1403.91 L431.012 1403.91 L423.465 1393.73 L415.919 1403.91 L410.896 1403.91 L420.965 1390.35 L411.752 1377.99 L416.776 1377.99 L423.65 1387.22 L430.525 1377.99 L435.549 1377.99 Z" fill="#000000" fill-rule="nonzero" fill-opacity="1" /><path clip-path="url(#clip720)" d="M458.581 1378.75 L458.581 1382.78 Q456.775 1381.85 454.831 1381.39 Q452.886 1380.93 450.803 1380.93 Q447.632 1380.93 446.035 1381.9 Q444.461 1382.87 444.461 1384.82 Q444.461 1386.3 445.595 1387.16 Q446.729 1387.99 450.155 1388.75 L451.613 1389.08 Q456.15 1390.05 458.048 1391.83 Q459.97 1393.59 459.97 1396.76 Q459.97 1400.37 457.099 1402.48 Q454.252 1404.59 449.252 1404.59 Q447.169 1404.59 444.9 1404.17 Q442.655 1403.78 440.155 1402.97 L440.155 1398.57 Q442.516 1399.79 444.808 1400.42 Q447.099 1401.02 449.345 1401.02 Q452.354 1401.02 453.974 1400 Q455.595 1398.96 455.595 1397.09 Q455.595 1395.35 454.414 1394.42 Q453.257 1393.5 449.298 1392.64 L447.817 1392.29 Q443.859 1391.46 442.099 1389.75 Q440.34 1388.01 440.34 1385 Q440.34 1381.35 442.933 1379.35 Q445.525 1377.36 450.294 1377.36 Q452.655 1377.36 454.738 1377.71 Q456.822 1378.06 458.581 1378.75 Z" fill="#000000" fill-rule="nonzero" fill-opacity="1" /></svg>
