<?xml version="1.0" encoding="utf-8"?>
<svg xmlns="http://www.w3.org/2000/svg" xmlns:xlink="http://www.w3.org/1999/xlink" width="600" height="400" viewBox="0 0 2400 1600">
<defs>
  <clipPath id="clip690">
    <rect x="0" y="0" width="2400" height="1600"/>
  </clipPath>
</defs>
<path clip-path="url(#clip690)" d="M0 1600 L2400 1600 L2400 0 L0 0  Z" fill="#ffffff" fill-rule="evenodd" fill-opacity="1"/>
<defs>
  <clipPath id="clip691">
    <rect x="140" y="47" width="2213" height="1440"/>
  </clipPath>
</defs>
<path clip-path="url(#clip690)" d="M140.51 1486.45 L2352.76 1486.45 L2352.76 47.2441 L140.51 47.2441  Z" fill="#ffffff" fill-rule="evenodd" fill-opacity="1"/>
<polyline clip-path="url(#clip691)" style="stroke:#000000; stroke-linecap:round; stroke-linejoin:round; stroke-width:2; stroke-opacity:0.1; fill:none" points="352.398,1486.45 352.398,47.2441 "/>
<polyline clip-path="url(#clip691)" style="stroke:#000000; stroke-linecap:round; stroke-linejoin:round; stroke-width:2; stroke-opacity:0.1; fill:none" points="786.3,1486.45 786.3,47.2441 "/>
<polyline clip-path="url(#clip691)" style="stroke:#000000; stroke-linecap:round; stroke-linejoin:round; stroke-width:2; stroke-opacity:0.1; fill:none" points="1220.2,1486.45 1220.2,47.2441 "/>
<polyline clip-path="url(#clip691)" style="stroke:#000000; stroke-linecap:round; stroke-linejoin:round; stroke-width:2; stroke-opacity:0.1; fill:none" points="1654.1,1486.45 1654.1,47.2441 "/>
<polyline clip-path="url(#clip691)" style="stroke:#000000; stroke-linecap:round; stroke-linejoin:round; stroke-width:2; stroke-opacity:0.1; fill:none" points="2088,1486.45 2088,47.2441 "/>
<polyline clip-path="url(#clip691)" style="stroke:#000000; stroke-linecap:round; stroke-linejoin:round; stroke-width:2; stroke-opacity:0.1; fill:none" points="140.51,1180.09 2352.76,1180.09 "/>
<polyline clip-path="url(#clip691)" style="stroke:#000000; stroke-linecap:round; stroke-linejoin:round; stroke-width:2; stroke-opacity:0.1; fill:none" points="140.51,872.38 2352.76,872.38 "/>
<polyline clip-path="url(#clip691)" style="stroke:#000000; stroke-linecap:round; stroke-linejoin:round; stroke-width:2; stroke-opacity:0.1; fill:none" points="140.51,564.674 2352.76,564.674 "/>
<polyline clip-path="url(#clip691)" style="stroke:#000000; stroke-linecap:round; stroke-linejoin:round; stroke-width:2; stroke-opacity:0.1; fill:none" points="140.51,256.968 2352.76,256.968 "/>
<polyline clip-path="url(#clip690)" style="stroke:#000000; stroke-linecap:round; stroke-linejoin:round; stroke-width:4; stroke-opacity:1; fill:none" points="140.51,1486.45 2352.76,1486.45 "/>
<polyline clip-path="url(#clip690)" style="stroke:#000000; stroke-linecap:round; stroke-linejoin:round; stroke-width:4; stroke-opacity:1; fill:none" points="352.398,1486.45 352.398,1467.55 "/>
<polyline clip-path="url(#clip690)" style="stroke:#000000; stroke-linecap:round; stroke-linejoin:round; stroke-width:4; stroke-opacity:1; fill:none" points="786.3,1486.45 786.3,1467.55 "/>
<polyline clip-path="url(#clip690)" style="stroke:#000000; stroke-linecap:round; stroke-linejoin:round; stroke-width:4; stroke-opacity:1; fill:none" points="1220.2,1486.45 1220.2,1467.55 "/>
<polyline clip-path="url(#clip690)" style="stroke:#000000; stroke-linecap:round; stroke-linejoin:round; stroke-width:4; stroke-opacity:1; fill:none" points="1654.1,1486.45 1654.1,1467.55 "/>
<polyline clip-path="url(#clip690)" style="stroke:#000000; stroke-linecap:round; stroke-linejoin:round; stroke-width:4; stroke-opacity:1; fill:none" points="2088,1486.45 2088,1467.55 "/>
<path clip-path="url(#clip690)" d="M306.46 1532.02 L336.136 1532.02 L336.136 1535.95 L306.46 1535.95 L306.46 1532.02 Z" fill="#000000" fill-rule="nonzero" fill-opacity="1" /><path clip-path="url(#clip690)" d="M360.395 1530.21 Q363.752 1530.93 365.627 1533.2 Q367.525 1535.47 367.525 1538.8 Q367.525 1543.92 364.006 1546.72 Q360.488 1549.52 354.007 1549.52 Q351.831 1549.52 349.516 1549.08 Q347.224 1548.66 344.77 1547.81 L344.77 1543.29 Q346.715 1544.43 349.03 1545.01 Q351.345 1545.58 353.868 1545.58 Q358.266 1545.58 360.557 1543.85 Q362.872 1542.11 362.872 1538.8 Q362.872 1535.75 360.719 1534.03 Q358.59 1532.3 354.77 1532.3 L350.743 1532.3 L350.743 1528.45 L354.956 1528.45 Q358.405 1528.45 360.233 1527.09 Q362.062 1525.7 362.062 1523.11 Q362.062 1520.45 360.164 1519.03 Q358.289 1517.6 354.77 1517.6 Q352.849 1517.6 350.65 1518.01 Q348.451 1518.43 345.812 1519.31 L345.812 1515.14 Q348.474 1514.4 350.789 1514.03 Q353.127 1513.66 355.187 1513.66 Q360.511 1513.66 363.613 1516.09 Q366.715 1518.5 366.715 1522.62 Q366.715 1525.49 365.071 1527.48 Q363.428 1529.45 360.395 1530.21 Z" fill="#000000" fill-rule="nonzero" fill-opacity="1" /><path clip-path="url(#clip690)" d="M386.391 1517.37 Q382.78 1517.37 380.951 1520.93 Q379.145 1524.47 379.145 1531.6 Q379.145 1538.71 380.951 1542.27 Q382.78 1545.82 386.391 1545.82 Q390.025 1545.82 391.83 1542.27 Q393.659 1538.71 393.659 1531.6 Q393.659 1524.47 391.83 1520.93 Q390.025 1517.37 386.391 1517.37 M386.391 1513.66 Q392.201 1513.66 395.256 1518.27 Q398.335 1522.85 398.335 1531.6 Q398.335 1540.33 395.256 1544.94 Q392.201 1549.52 386.391 1549.52 Q380.58 1549.52 377.502 1544.94 Q374.446 1540.33 374.446 1531.6 Q374.446 1522.85 377.502 1518.27 Q380.58 1513.66 386.391 1513.66 Z" fill="#000000" fill-rule="nonzero" fill-opacity="1" /><path clip-path="url(#clip690)" d="M786.3 1517.37 Q782.688 1517.37 780.86 1520.93 Q779.054 1524.47 779.054 1531.6 Q779.054 1538.71 780.86 1542.27 Q782.688 1545.82 786.3 1545.82 Q789.934 1545.82 791.739 1542.27 Q793.568 1538.71 793.568 1531.6 Q793.568 1524.47 791.739 1520.93 Q789.934 1517.37 786.3 1517.37 M786.3 1513.66 Q792.11 1513.66 795.165 1518.27 Q798.244 1522.85 798.244 1531.6 Q798.244 1540.33 795.165 1544.94 Q792.11 1549.52 786.3 1549.52 Q780.489 1549.52 777.411 1544.94 Q774.355 1540.33 774.355 1531.6 Q774.355 1522.85 777.411 1518.27 Q780.489 1513.66 786.3 1513.66 Z" fill="#000000" fill-rule="nonzero" fill-opacity="1" /><path clip-path="url(#clip690)" d="M1209.04 1530.21 Q1212.4 1530.93 1214.28 1533.2 Q1216.17 1535.47 1216.17 1538.8 Q1216.17 1543.92 1212.66 1546.72 Q1209.14 1549.52 1202.66 1549.52 Q1200.48 1549.52 1198.16 1549.08 Q1195.87 1548.66 1193.42 1547.81 L1193.42 1543.29 Q1195.36 1544.43 1197.68 1545.01 Q1199.99 1545.58 1202.52 1545.58 Q1206.91 1545.58 1209.21 1543.85 Q1211.52 1542.11 1211.52 1538.8 Q1211.52 1535.75 1209.37 1534.03 Q1207.24 1532.3 1203.42 1532.3 L1199.39 1532.3 L1199.39 1528.45 L1203.6 1528.45 Q1207.05 1528.45 1208.88 1527.09 Q1210.71 1525.7 1210.71 1523.11 Q1210.71 1520.45 1208.81 1519.03 Q1206.94 1517.6 1203.42 1517.6 Q1201.5 1517.6 1199.3 1518.01 Q1197.1 1518.43 1194.46 1519.31 L1194.46 1515.14 Q1197.12 1514.4 1199.44 1514.03 Q1201.78 1513.66 1203.84 1513.66 Q1209.16 1513.66 1212.26 1516.09 Q1215.36 1518.5 1215.36 1522.62 Q1215.36 1525.49 1213.72 1527.48 Q1212.08 1529.45 1209.04 1530.21 Z" fill="#000000" fill-rule="nonzero" fill-opacity="1" /><path clip-path="url(#clip690)" d="M1235.04 1517.37 Q1231.43 1517.37 1229.6 1520.93 Q1227.79 1524.47 1227.79 1531.6 Q1227.79 1538.71 1229.6 1542.27 Q1231.43 1545.82 1235.04 1545.82 Q1238.67 1545.82 1240.48 1542.27 Q1242.31 1538.71 1242.31 1531.6 Q1242.31 1524.47 1240.48 1520.93 Q1238.67 1517.37 1235.04 1517.37 M1235.04 1513.66 Q1240.85 1513.66 1243.9 1518.27 Q1246.98 1522.85 1246.98 1531.6 Q1246.98 1540.33 1243.9 1544.94 Q1240.85 1549.52 1235.04 1549.52 Q1229.23 1549.52 1226.15 1544.94 Q1223.09 1540.33 1223.09 1531.6 Q1223.09 1522.85 1226.15 1518.27 Q1229.23 1513.66 1235.04 1513.66 Z" fill="#000000" fill-rule="nonzero" fill-opacity="1" /><path clip-path="url(#clip690)" d="M1639.51 1529.7 Q1636.36 1529.7 1634.51 1531.86 Q1632.68 1534.01 1632.68 1537.76 Q1632.68 1541.49 1634.51 1543.66 Q1636.36 1545.82 1639.51 1545.82 Q1642.66 1545.82 1644.49 1543.66 Q1646.34 1541.49 1646.34 1537.76 Q1646.34 1534.01 1644.49 1531.86 Q1642.66 1529.7 1639.51 1529.7 M1648.79 1515.05 L1648.79 1519.31 Q1647.03 1518.48 1645.23 1518.04 Q1643.44 1517.6 1641.68 1517.6 Q1637.05 1517.6 1634.6 1520.72 Q1632.17 1523.85 1631.82 1530.17 Q1633.19 1528.15 1635.25 1527.09 Q1637.31 1526 1639.79 1526 Q1644.99 1526 1648 1529.17 Q1651.04 1532.32 1651.04 1537.76 Q1651.04 1543.08 1647.89 1546.3 Q1644.74 1549.52 1639.51 1549.52 Q1633.51 1549.52 1630.34 1544.94 Q1627.17 1540.33 1627.17 1531.6 Q1627.17 1523.41 1631.06 1518.55 Q1634.95 1513.66 1641.5 1513.66 Q1643.26 1513.66 1645.04 1514.01 Q1646.85 1514.36 1648.79 1515.05 Z" fill="#000000" fill-rule="nonzero" fill-opacity="1" /><path clip-path="url(#clip690)" d="M1669.09 1517.37 Q1665.48 1517.37 1663.65 1520.93 Q1661.85 1524.47 1661.85 1531.6 Q1661.85 1538.71 1663.65 1542.27 Q1665.48 1545.82 1669.09 1545.82 Q1672.73 1545.82 1674.53 1542.27 Q1676.36 1538.71 1676.36 1531.6 Q1676.36 1524.47 1674.53 1520.93 Q1672.73 1517.37 1669.09 1517.37 M1669.09 1513.66 Q1674.9 1513.66 1677.96 1518.27 Q1681.04 1522.85 1681.04 1531.6 Q1681.04 1540.33 1677.96 1544.94 Q1674.9 1549.52 1669.09 1549.52 Q1663.28 1549.52 1660.2 1544.94 Q1657.15 1540.33 1657.15 1531.6 Q1657.15 1522.85 1660.2 1518.27 Q1663.28 1513.66 1669.09 1513.66 Z" fill="#000000" fill-rule="nonzero" fill-opacity="1" /><path clip-path="url(#clip690)" d="M2063.13 1548.13 L2063.13 1543.87 Q2064.89 1544.7 2066.7 1545.14 Q2068.5 1545.58 2070.24 1545.58 Q2074.87 1545.58 2077.3 1542.48 Q2079.75 1539.36 2080.1 1533.01 Q2078.76 1535.01 2076.7 1536.07 Q2074.64 1537.13 2072.14 1537.13 Q2066.95 1537.13 2063.92 1534.01 Q2060.91 1530.86 2060.91 1525.42 Q2060.91 1520.1 2064.06 1516.88 Q2067.21 1513.66 2072.44 1513.66 Q2078.43 1513.66 2081.58 1518.27 Q2084.75 1522.85 2084.75 1531.6 Q2084.75 1539.77 2080.86 1544.66 Q2077 1549.52 2070.45 1549.52 Q2068.69 1549.52 2066.88 1549.17 Q2065.08 1548.82 2063.13 1548.13 M2072.44 1533.48 Q2075.59 1533.48 2077.41 1531.32 Q2079.27 1529.17 2079.27 1525.42 Q2079.27 1521.7 2077.41 1519.54 Q2075.59 1517.37 2072.44 1517.37 Q2069.29 1517.37 2067.44 1519.54 Q2065.61 1521.7 2065.61 1525.42 Q2065.61 1529.17 2067.44 1531.32 Q2069.29 1533.48 2072.44 1533.48 Z" fill="#000000" fill-rule="nonzero" fill-opacity="1" /><path clip-path="url(#clip690)" d="M2103.16 1517.37 Q2099.54 1517.37 2097.72 1520.93 Q2095.91 1524.47 2095.91 1531.6 Q2095.91 1538.71 2097.72 1542.27 Q2099.54 1545.82 2103.16 1545.82 Q2106.79 1545.82 2108.59 1542.27 Q2110.42 1538.71 2110.42 1531.6 Q2110.42 1524.47 2108.59 1520.93 Q2106.79 1517.37 2103.16 1517.37 M2103.16 1513.66 Q2108.97 1513.66 2112.02 1518.27 Q2115.1 1522.85 2115.1 1531.6 Q2115.1 1540.33 2112.02 1544.94 Q2108.97 1549.52 2103.16 1549.52 Q2097.35 1549.52 2094.27 1544.94 Q2091.21 1540.33 2091.21 1531.6 Q2091.21 1522.85 2094.27 1518.27 Q2097.35 1513.66 2103.16 1513.66 Z" fill="#000000" fill-rule="nonzero" fill-opacity="1" /><polyline clip-path="url(#clip690)" style="stroke:#000000; stroke-linecap:round; stroke-linejoin:round; stroke-width:4; stroke-opacity:1; fill:none" points="140.51,1486.45 140.51,47.2441 "/>
<polyline clip-path="url(#clip690)" style="stroke:#000000; stroke-linecap:round; stroke-linejoin:round; stroke-width:4; stroke-opacity:1; fill:none" points="140.51,1180.09 159.408,1180.09 "/>
<polyline clip-path="url(#clip690)" style="stroke:#000000; stroke-linecap:round; stroke-linejoin:round; stroke-width:4; stroke-opacity:1; fill:none" points="140.51,872.38 159.408,872.38 "/>
<polyline clip-path="url(#clip690)" style="stroke:#000000; stroke-linecap:round; stroke-linejoin:round; stroke-width:4; stroke-opacity:1; fill:none" points="140.51,564.674 159.408,564.674 "/>
<polyline clip-path="url(#clip690)" style="stroke:#000000; stroke-linecap:round; stroke-linejoin:round; stroke-width:4; stroke-opacity:1; fill:none" points="140.51,256.968 159.408,256.968 "/>
<path clip-path="url(#clip690)" d="M92.566 1165.88 Q88.9549 1165.88 87.1262 1169.45 Q85.3206 1172.99 85.3206 1180.12 Q85.3206 1187.23 87.1262 1190.79 Q88.9549 1194.33 92.566 1194.33 Q96.2002 1194.33 98.0058 1190.79 Q99.8345 1187.23 99.8345 1180.12 Q99.8345 1172.99 98.0058 1169.45 Q96.2002 1165.88 92.566 1165.88 M92.566 1162.18 Q98.3761 1162.18 101.432 1166.79 Q104.51 1171.37 104.51 1180.12 Q104.51 1188.85 101.432 1193.45 Q98.3761 1198.04 92.566 1198.04 Q86.7558 1198.04 83.6771 1193.45 Q80.6216 1188.85 80.6216 1180.12 Q80.6216 1171.37 83.6771 1166.79 Q86.7558 1162.18 92.566 1162.18 Z" fill="#000000" fill-rule="nonzero" fill-opacity="1" /><path clip-path="url(#clip690)" d="M57.4273 885.724 L73.7466 885.724 L73.7466 889.66 L51.8023 889.66 L51.8023 885.724 Q54.4643 882.97 59.0476 878.34 Q63.6541 873.687 64.8346 872.345 Q67.08 869.822 67.9596 868.086 Q68.8624 866.326 68.8624 864.637 Q68.8624 861.882 66.918 860.146 Q64.9967 858.41 61.8948 858.41 Q59.6958 858.41 57.2421 859.174 Q54.8115 859.938 52.0338 861.488 L52.0338 856.766 Q54.8578 855.632 57.3115 855.053 Q59.7652 854.475 61.8023 854.475 Q67.1726 854.475 70.367 857.16 Q73.5614 859.845 73.5614 864.336 Q73.5614 866.465 72.7513 868.387 Q71.9642 870.285 69.8578 872.877 Q69.2791 873.549 66.1772 876.766 Q63.0754 879.961 57.4273 885.724 Z" fill="#000000" fill-rule="nonzero" fill-opacity="1" /><path clip-path="url(#clip690)" d="M83.6077 855.1 L101.964 855.1 L101.964 859.035 L87.8901 859.035 L87.8901 867.507 Q88.9086 867.16 89.9271 866.998 Q90.9456 866.813 91.9641 866.813 Q97.7511 866.813 101.131 869.984 Q104.51 873.155 104.51 878.572 Q104.51 884.15 101.038 887.252 Q97.566 890.331 91.2465 890.331 Q89.0706 890.331 86.8021 889.961 Q84.5568 889.59 82.1494 888.849 L82.1494 884.15 Q84.2327 885.285 86.4549 885.84 Q88.6771 886.396 91.1539 886.396 Q95.1586 886.396 97.4965 884.289 Q99.8345 882.183 99.8345 878.572 Q99.8345 874.961 97.4965 872.854 Q95.1586 870.748 91.1539 870.748 Q89.279 870.748 87.404 871.164 Q85.5521 871.581 83.6077 872.461 L83.6077 855.1 Z" fill="#000000" fill-rule="nonzero" fill-opacity="1" /><path clip-path="url(#clip690)" d="M52.4505 547.394 L70.8068 547.394 L70.8068 551.329 L56.7328 551.329 L56.7328 559.801 Q57.7513 559.454 58.7699 559.292 Q59.7884 559.107 60.8069 559.107 Q66.5939 559.107 69.9735 562.278 Q73.3531 565.449 73.3531 570.866 Q73.3531 576.445 69.8809 579.547 Q66.4087 582.625 60.0893 582.625 Q57.9134 582.625 55.6449 582.255 Q53.3995 581.884 50.9921 581.144 L50.9921 576.445 Q53.0754 577.579 55.2977 578.135 Q57.5199 578.69 59.9967 578.69 Q64.0013 578.69 66.3393 576.584 Q68.6772 574.477 68.6772 570.866 Q68.6772 567.255 66.3393 565.148 Q64.0013 563.042 59.9967 563.042 Q58.1217 563.042 56.2467 563.459 Q54.3949 563.875 52.4505 564.755 L52.4505 547.394 Z" fill="#000000" fill-rule="nonzero" fill-opacity="1" /><path clip-path="url(#clip690)" d="M92.566 550.473 Q88.9549 550.473 87.1262 554.037 Q85.3206 557.579 85.3206 564.709 Q85.3206 571.815 87.1262 575.38 Q88.9549 578.922 92.566 578.922 Q96.2002 578.922 98.0058 575.38 Q99.8345 571.815 99.8345 564.709 Q99.8345 557.579 98.0058 554.037 Q96.2002 550.473 92.566 550.473 M92.566 546.769 Q98.3761 546.769 101.432 551.375 Q104.51 555.959 104.51 564.709 Q104.51 573.435 101.432 578.042 Q98.3761 582.625 92.566 582.625 Q86.7558 582.625 83.6771 578.042 Q80.6216 573.435 80.6216 564.709 Q80.6216 555.959 83.6771 551.375 Q86.7558 546.769 92.566 546.769 Z" fill="#000000" fill-rule="nonzero" fill-opacity="1" /><path clip-path="url(#clip690)" d="M52.219 239.688 L74.4411 239.688 L74.4411 241.679 L61.8948 274.248 L57.0106 274.248 L68.8161 243.623 L52.219 243.623 L52.219 239.688 Z" fill="#000000" fill-rule="nonzero" fill-opacity="1" /><path clip-path="url(#clip690)" d="M83.6077 239.688 L101.964 239.688 L101.964 243.623 L87.8901 243.623 L87.8901 252.096 Q88.9086 251.748 89.9271 251.586 Q90.9456 251.401 91.9641 251.401 Q97.7511 251.401 101.131 254.572 Q104.51 257.744 104.51 263.16 Q104.51 268.739 101.038 271.841 Q97.566 274.92 91.2465 274.92 Q89.0706 274.92 86.8021 274.549 Q84.5568 274.179 82.1494 273.438 L82.1494 268.739 Q84.2327 269.873 86.4549 270.429 Q88.6771 270.984 91.1539 270.984 Q95.1586 270.984 97.4965 268.878 Q99.8345 266.771 99.8345 263.16 Q99.8345 259.549 97.4965 257.443 Q95.1586 255.336 91.1539 255.336 Q89.279 255.336 87.404 255.753 Q85.5521 256.17 83.6077 257.049 L83.6077 239.688 Z" fill="#000000" fill-rule="nonzero" fill-opacity="1" /><polyline clip-path="url(#clip691)" style="stroke:#0000ff; stroke-linecap:round; stroke-linejoin:round; stroke-width:4; stroke-opacity:1; fill:none" points="203.764,717.227 231.024,724.031 234.964,719.24 246.018,717.357 252.772,717.489 276.297,719.632 300.377,723.736 327.862,726.737 354.344,729.172 384.201,733.364 414.004,733.539 439.111,733.49 474.93,734.269 498.342,739.863 522.444,744.019 556.859,747.656 582.283,749.55 604.457,753.962 633.036,760.723 656.891,767.897 679.887,775.31 703.329,782.165 730.696,788.821 753.406,797.143 778.95,802.928 809.875,810.997 832.404,811.119 866.285,813.678 892.51,821.463 918.902,829.045 949.394,838.383 974.375,846.723 1000.4,853.655 1019.56,864.267 1037.77,876.009 1046.18,881.92 1066.22,885.011 1083.15,886.956 1104.49,888.153 1130.7,891.539 1157.14,901.307 1184.55,911.251 1206.93,916.228 1232.27,919.976 1264.62,922.239 1293.76,923.811 1326.1,927.929 1354.63,932.508 1381.51,935.485 1406.63,938.23 1438.73,938.261 1462.75,937.968 1489.12,937.545 1515.97,934.567 1545.38,929.283 1574.31,929.84 1602.24,928.103 1628.41,928.208 1649.11,921.941 1667.61,919.01 1684.73,913.127 1702.58,906.52 1723.19,905.824 1745.53,903.462 1766.99,905.112 1786.47,908.225 1808.34,914.954 1828.9,926.836 1850.41,939.393 1866.5,950.585 1882.37,966.573 1892.93,980.834 1900.82,994.911 1910.43,1014.51 1921.68,1032.43 1934.04,1051.05 1944.5,1062.31 1962.04,1069.32 1976.11,1072.37 1986.57,1071.94 2008.21,1065.63 2024.88,1061.05 2045.89,1039.82 2058.36,1024.48 2062.66,1004.58 2065.38,985.776 2064.84,963.739 2052.28,948.04 2034.02,940.275 2008.08,930.848 1979.24,932.837 1955.13,931.855 1934.51,928.593 1915.14,925.615 1892.48,923.279 1872.67,928.156 1851.57,934.378 1834.67,942.033 1810.83,945.326 1786.18,945.72 1758.83,942.372 1735.34,931.855 1711.89,921.302 1681.95,905.731 1656.83,888.293 1634.29,869.141 1618.94,853.462 1607.07,840.663 1590.47,827.226 1576.59,811.101 1564.74,795.783 1556.31,779.879 1555.46,764.381 1568.1,749.346 1581.7,736.057 1602.27,727.405 1623.2,726.16 1650.88,726.835 1672.04,740.416 1693.02,748.745 1707.05,754.37 1729,761.28 1751.83,772.276 1764.86,780.983 1782.97,791.783 1801.34,803.219 1822.79,811.587 1842.97,813.755 1864.05,813.901 1887.55,807.839 1908.8,803.391 1925.65,801.966 1944.7,808.752 1961.44,819.524 1975.99,833.934 1986,850.367 1994.44,870.5 2002.19,892.631 2006.81,912.353 2007.54,933.608 2007.54,944.969 2009.58,958.628 2018.4,977.103 2025.23,994.628 2037.02,1009.53 2048.94,1016.63 2062.12,1020.44 2079.99,1017.4 2099.27,1011.57 2113.5,1002.31 2129.63,989.001 2139.18,978.844 2144.5,960.072 2136.05,943.253 2119.41,924.745 2104.05,906.292 2081.54,893.831 2053.18,888.318 2025.09,883.239 2005.88,881.377 1980.73,880.556 1959.82,879.647 1941.55,870.732 1926.73,864.683 1904.49,858.256 1888.64,857.601 1866.53,859.567 1845.71,854.227 1825.09,849.141 1805.48,847.466 1780.95,843.851 1762.95,839.735 1745.81,835.602 1723.81,833.572 1696.31,835.039 1669.99,840.814 1653.58,839.864 1648.85,832.255 1643.84,828.952 1636.73,827.795 1625.82,826.757 1617.67,825.856 1604.11,829.82 1589.95,836.058 1563.93,840.624 1542.53,844.649 1527.79,849.946 1517.76,858.477 1523.97,859.419 1537.01,857.175 1569.17,855.274 1590.39,838.594 1607.12,823.081 1614.27,807.357 1607.05,790.362 1592.47,772.117 1582.97,761.059 1571.23,739.718 1552.74,730.19 1531.72,739.646 1509.4,741.126 1480.89,735.653 1476.56,718.589 1470.65,699.127 1472.06,678.453 1476.25,662 1491.41,639.798 1498.14,620.736 1501.62,596.981 1485.61,583.369 1463.31,575.627 1453.95,573.922 1463.5,561.602 1483.93,551.038 1519.27,548.655 1559.57,534.615 1585.03,517.123 1603.16,493.331 1616.59,472.999 1638.52,463.936 1664.49,466.413 1688.52,471.18 1708.63,489.045 1735.22,502.521 1755.94,517.87 1764.93,538.585 1755.02,556.086 1736.92,572.492 1710.34,584.911 1677.57,592.052 1649.99,591.756 1616.52,577.125 1590.3,562.065 1579.29,540.015 1578.68,518.613 1597.19,502.727 1611.19,492.902 1634.54,478.788 1659.18,470.346 1682.06,454.432 1704.33,442.091 1723.74,441.05 1747.49,427.67 1751.64,413.309 1761.82,396.657 1774.02,390.662 1791.11,373.654 1786.05,360.505 1764.65,349.663 1760.43,347.214 1770.82,343.355 1792.96,336.921 1821.6,340.199 1847.59,343.393 1875.99,348.751 1900.09,366.218 1903.58,383.879 1901.03,396.63 1880.49,407.877 1863.71,429.505 1848.95,456.799 1838.86,489.147 1839.67,509.486 1804.75,513.808 1780.6,528.977 1748.79,535.743 1718.65,551.991 1700.6,576.979 1681.27,594.783 1654.25,590.591 1631.7,579.543 1604.73,569.708 1589.34,557.945 1563.33,542.446 1554.82,534.59 1562.11,512.129 1585.81,503.295 1619.96,498.207 1649.64,501.367 1684.72,508.39 1713.24,523.119 1722.59,543.811 1736.42,565.075 1751.71,570.107 1778.62,575.069 1802.24,584.974 1811.97,587.226 1837.36,580.746 1861.91,572.022 1882.01,563.094 1901.96,565.7 1921.28,580 1921.16,597.67 1922,617.931 1909.03,650.136 1888.23,675.598 1863.92,696.599 1841.85,725.796 1838.44,750.483 1803.74,763.557 1775.44,768.216 1747.74,782.679 1721.75,796.97 1703.89,815.941 1687.41,837.041 1662.05,860.049 1635.23,868.537 1607.07,860.42 1582.4,853.707 1551.77,850.571 1523.1,842.998 1503.22,820.995 1488.28,801.294 1457.63,778.725 1440.79,759.465 1415.46,741.648 1391.36,739.28 1360.13,744.278 1341.65,742.001 1316.64,733.195 1311.07,707.942 1294.68,699.993 1270.23,703.834 1252.5,712.12 1228.12,728.553 1220.95,735.409 1189.71,739.87 1166.49,745.151 1140.9,738.749 1120.49,720.592 1097.57,707.29 1062.32,701.826 1029.74,694.223 1007.23,688.444 986.089,678.217 966.009,656.996 964.902,644.145 974.701,625.173 991.167,604.602 1002.7,581.153 1009.29,550.154 1015.03,525.181 1000.3,505.033 980.798,500.252 970.951,490.558 973.821,477.683 999.637,475.895 1035.45,478.739 1078.55,476.577 1112.01,472.853 1139.75,455.248 1165.09,430.615 1189.97,410.358 1221.18,403.25 1260.26,405.444 1291.93,417.237 1323.1,434.209 1354.29,446.854 1381.69,458.175 1403.91,472.602 1440.37,481.216 1465.66,494.128 1491.68,516.972 1522.13,543.897 1549.14,558.933 1573.91,570.174 1593.46,581.261 1601.86,572.282 1622.36,562.704 1649.16,549.075 1672.31,539.414 1702.92,527.303 1736.65,526.071 1772.21,534.962 1798.36,560.429 1806.49,581.845 1803.05,613.306 1785.57,644.998 1782.66,672.334 1775.52,705.257 1775.18,740.674 1791.07,770.543 1822.48,796.101 1862.54,794.154 1884.38,795.052 1916.17,802.431 1935.15,824.578 1961.18,850.648 1982.92,882.686 1994.27,914.921 1999.45,937.181 2015.13,921.43 2051.85,924.961 2078.87,931.113 2090.7,946.409 2092.15,950.111 2094.02,955.178 2097.98,971.03 2101.3,976.657 2113.26,980.89 2129.27,983.264 2158.18,977.713 2187.61,987.222 2201.37,999.256 2215.68,1021.14 2215.9,1034.46 2218.99,1022.56 2223.43,1006.56 2224.09,979.108 2213.07,951.812 2196.98,928.55 2186.71,905.522 2187.13,884.959 2160.42,862.939 2152.25,832.761 2158.01,808.083 2175.61,795.148 2196.24,796.823 2220.42,805.424 2236.56,817.939 2249.74,837.854 2275.03,860.727 2288.9,882.054 2280.34,908.114 2261.47,930.915 2244.02,951.102 2213.72,963.676 2193.77,982.252 2166.19,995.465 2138.94,1018.49 2119.03,1040.14 2109.11,1063.73 2089.38,1086.65 2071.17,1109.69 2045.53,1126.48 2020.33,1137.62 1988.86,1153.72 1963.16,1171.56 1935.25,1179.73 1905.33,1199.57 1889.54,1216.82 1857.04,1229.34 1837.02,1243.89 1819.34,1263.43 1801.85,1290.89 1794.4,1310.77 1788.71,1331.4 1782.03,1356.34 1804.57,1377.23 1814.29,1391.34 1807.48,1415.11 1800.82,1441.13 1780.15,1445.72 1756.47,1442.48 1733.9,1425.17 1720.76,1399.48 1708.03,1377.27 1684.3,1353.94 1645.35,1328.23 1614.52,1320.17 1578.96,1319.27 1542.52,1326.19 1501.33,1336.2 1474.11,1337.71 1438.5,1327.05 1412.27,1314.37 1392.39,1289.27 1391.08,1256.73 1385.41,1217.44 1365.13,1190.21 1343.08,1167.67 1348.14,1136.05 1346.69,1108.28 1337.52,1084.15 1325.97,1056.09 1307.13,1031.64 1301.6,1004.47 1308.18,972.116 1316.97,938.872 1334.93,910.116 1352.69,878.965 1365.65,845.689 1393.12,824.459 1388.76,796.219 1371.77,772.18 1342.07,749.317 1309.09,746.161 1288.19,733.584 1279.82,708.75 1277.39,677.897 1289.08,649.293 1301.09,626.585 1323.51,617.815 1356.82,605.985 1394.15,600.322 1434.7,596.155 1473,596.448 1502.03,589.384 1524.68,563.078 1543.09,541.768 1571.03,528.724 1593.65,523.183 1598.38,508.511 1583.91,493.999 1561.74,478.327 1535.57,466.426 1507.79,439.966 1484.89,414.304 1471.22,388.416 1453.47,367.149 1449.96,349.233 1456.87,328.449 1474.89,319.101 1492.46,327.985 1522.94,331.908 1561.67,336.021 1596.3,343.879 1637.27,350.148 1671.46,353.197 1702.22,368.02 1727.06,374.395 1753.3,367.028 1777.19,355.835 1808.41,350.383 1840.47,350.738 1872.24,346.139 1895.54,360.384 1905.96,377.192 1912.82,371.645 1922.48,355.081 1939.16,338.189 1956.55,327.828 1980.63,312.917 2000.15,303.946 1991.73,304.57 1970.53,292.682 1959.46,276.977 1946.63,247.176 1951.14,218.308 1961.51,202.194 1989.95,191.805 2023.31,193.608 2048.92,198.459 2082.94,202.616 2118.94,215.196 2143.22,236.117 2147.3,264.806 2141.12,292.422 2129.73,302.113 2132.41,317.798 2136.99,340.322 2132.3,371.915 2104.35,388.533 2084.83,422.314 2057.68,445.077 2033.88,471.144 2026.03,505.368 2001.72,515.035 1966.2,515.505 1929.26,527.883 1897.37,541.646 1882.08,569.233 1870.1,600.188 1869.58,616.266 1895.86,622.265 1925.55,635.637 1962.42,648.501 1996.25,671.911 2024.31,687.416 2062.96,692.303 2098.05,693.228 2137.39,690.119 2168.34,694.074 2195.17,693.357 2204.34,679.209 2218.82,660.057 2234.17,638.788 2233.18,614.059 2229.17,595.686 2219.67,571.401 2193.44,550.366 2172.79,531.113 2147.05,516.746 2104.82,517.292 2079.29,524.152 2055.06,541.507 2037.95,560.956 2012.08,585.887 2006.72,614.855 2011.66,646.837 2016.14,677.667 2032.87,704.632 2046.37,729.821 2060.74,762.91 2076.02,793.265 2105.98,805.93 2136.04,822.371 2163.5,851.032 2182.56,874.595 2198.07,906.566 2205.57,931.557 2200.98,942.913 2169.62,944.43 2132.4,957.61 2104.64,956.244 2090.51,963.507 2069.23,967.214 2047.36,962.241 2016.19,948.828 1985.77,940.009 1949.27,942.687 1905.93,954.53 1867.33,969.558 1828.01,970.494 1784.62,978.918 1746.95,980.255 1706.37,979.874 1675.19,974.929 1639.95,979.241 1608.23,974.121 1574.29,966.668 1539.04,935.951 1510.87,920.522 1472.55,913.034 1438.98,898.712 1409.9,881.997 1378.13,860.814 1352.55,852.503 1325.47,866.857 1300.69,883.507 1271.93,899.107 1233.95,917.272 1195.25,925.595 1165.77,920.847 1137.46,897.55 1119.71,872.878 1101.11,842.711 1075.85,816.975 1064.02,786.045 1060.01,758.739 1063.05,735.585 1050.06,705.721 1026.8,688.224 997.762,676.417 978.292,655.028 970.085,624.724 967.484,601.173 955.709,573.706 964.417,547.037 985.447,519.513 998.105,502.432 1010.81,495.661 1021.4,481.744 1025.52,465.475 1032.53,441.664 1039.49,417.544 1044.5,389.536 1056.27,357.145 1056.88,333.246 1035.22,314.324 1014.85,299.658 988.008,299.757 959.532,308.306 931.707,304.078 900.153,290.048 862.702,275.638 839.807,268.942 817.459,264.521 802.201,247.653 800.806,226.409 815.328,208.4 838.129,189.334 861.668,171.859 904.543,159.689 935.791,147.503 969.042,141.847 1000.15,153.351 1028.14,159.355 1061.85,154.647 1096.69,149.999 1116.15,129.184 1131.88,109.656 1145.87,88.8446 "/>
<polyline clip-path="url(#clip691)" style="stroke:#ff0000; stroke-linecap:round; stroke-linejoin:round; stroke-width:4; stroke-opacity:1; fill:none" points="203.121,717.407 234.087,723.807 236.748,714.908 258.284,716.213 261.727,716.914 289.251,722.613 306.448,726.17 335.75,725.924 360.729,727.943 391.709,734.343 418.467,730.429 440.003,731.721 483.089,734.331 495.094,743.119 520.086,745.125 563.187,747.734 581.295,748.325 601.096,755.575 635.562,762.689 655.377,769.938 678.648,777.902 702.788,782.887 733.826,789.299 752.788,799.527 781.266,802.26 814.923,812.377 831.324,806.297 873.629,811.885 891.752,825.104 919.377,830.815 953.077,840.932 972.95,848.194 1000.6,853.905 1015.3,866.422 1033.48,879.654 1036.94,880.368 1069.78,880.835 1083.61,883.703 1108.69,885.722 1136.37,891.445 1161.49,906.129 1188.34,914.831 1206.5,915.434 1235.06,918.179 1271.4,919.36 1296.5,921.391 1331.14,928.554 1355.41,933.576 1380.5,935.595 1405.61,937.626 1442.81,935.841 1460.99,936.432 1490.41,936.198 1517.21,932.247 1548.3,926.044 1576.04,931.767 1602.83,927.828 1627.95,929.859 1646,917.797 1664.18,918.388 1681.38,909.317 1701.22,903.938 1725.51,908.96 1748.81,904.295 1769.64,908.59 1786.98,912.172 1810.45,920.172 1828.81,933.428 1851.46,944.42 1863.71,953.269 1880.43,972.519 1888.38,983.646 1895.51,997.764 1907.95,1019.32 1922.05,1034.89 1935.33,1053.46 1944.95,1058.62 1969.3,1063.66 1979.75,1065.82 1987.54,1064.25 2016.01,1054.31 2027.26,1053.46 2049.36,1026.38 2055.3,1018.11 2054.06,995.72 2058.14,980.766 2056.91,958.402 2037.69,948.124 2020.3,944.53 1997.62,933.539 1970.01,940.469 1949.17,936.173 1932.62,929.601 1915.27,926.019 1890.13,923.988 1872.12,936.062 1848.81,940.715 1835.92,947.534 1807.31,944.777 1782.18,942.758 1754.41,937.022 1736.07,923.766 1712.61,915.766 1676.94,898.928 1656,881.992 1635.07,865.056 1623.7,853.265 1612.35,841.461 1590.59,827.528 1577.46,809.078 1566.95,794.333 1560.74,777.323 1564.92,762.467 1583.77,747.488 1594.02,737.026 1617.28,732.398 1631.11,735.241 1660.45,735.008 1674.42,750.442 1695.19,754.725 1705.58,756.855 1733.28,762.566 1755.03,776.462 1760.31,783.834 1782.9,794.776 1802.03,805.017 1826.29,810.014 1845.27,807.626 1866.89,808.931 1891.79,798.333 1909.95,798.936 1923.82,801.792 1945.63,815.713 1960.51,828.218 1974.58,843.701 1981.71,857.757 1990.7,878.509 1999.68,899.273 2002.53,915.631 2000.27,937.244 2002.93,940.949 2009.27,958.045 2025.22,980.286 2028.08,996.68 2043.01,1009.25 2053.45,1011.41 2067.37,1014.28 2088.03,1005.9 2104.39,999.794 2113.79,992.249 2131.79,980.163 2136.89,974.907 2136.43,949.552 2121.49,936.998 2103.89,920.751 2093.26,905.956 2069.75,897.956 2041.14,895.211 2016.83,890.202 2006.42,888.048 1977.82,885.316 1960.47,881.734 1942.92,865.512 1929.04,862.656 1901.28,856.933 1889.23,860.748 1862.48,864.687 1844.14,851.456 1823.32,847.172 1804.33,849.548 1776.61,843.837 1763.56,838.003 1746.23,834.421 1720.32,835.381 1690.1,838.606 1665.98,846.225 1657.26,838.126 1657.11,825.498 1649.36,827.048 1638.14,827.885 1623.44,828.008 1616.51,826.581 1599.32,835.627 1586.43,842.421 1553.58,841.954 1538.05,845.043 1528.6,852.551 1521.79,863.764 1537.33,860.662 1556.32,858.274 1587.38,852.071 1596.68,831.935 1611.25,819.196 1615.41,804.315 1605.74,786.591 1589.15,767.452 1580.43,759.365 1568.97,735.02 1549.06,727.77 1526.75,742.036 1505.17,740.731 1474.05,734.318 1475.62,715.794 1470.29,695.867 1472.7,674.402 1476.88,659.583 1494.77,635.065 1499.79,617.304 1503.03,592.934 1484.01,582.767 1460.7,574.853 1453.8,573.437 1465.72,557.129 1490.59,546.605 1530.2,548.489 1567.89,531.245 1586.67,516.364 1604.49,491.945 1617.19,472.731 1637.73,464.473 1666.14,467.18 1690.26,472.116 1710.26,491.797 1739.64,504.056 1757.05,520.106 1765.91,540.648 1754.06,556.944 1734.48,574.791 1705.35,587.567 1670.97,593.02 1649.42,591.727 1610.48,574.348 1588.83,560.526 1580.02,539.971 1578.95,517.903 1597.72,503.034 1611.38,493.36 1637.86,476.966 1661.86,469.421 1684.88,452.324 1706.23,441.136 1724.28,441.715 1750.72,425.345 1750.57,412.877 1763.21,393.7 1775.19,389.934 1795.54,369.244 1784.23,357.613 1758.33,346.104 1774.57,340.123 1805.38,334.005 1832.09,342.56 1853.57,343.852 1881.11,349.477 1904.58,369.798 1903.94,385.195 1900.67,396.95 1875.1,410.366 1860.84,435.438 1845.76,463.476 1836.73,495.896 1840.36,509.115 1799.11,513.127 1779.56,530.962 1745.21,536.402 1714.44,555.061 1700.1,580.244 1681.32,595.149 1653.7,589.475 1631.19,578.607 1600.96,569.265 1589.65,557.572 1558.5,538.679 1555.88,535.023 1563.37,508.462 1590.83,501.619 1628.62,496.893 1652.74,501.84 1690.68,509.619 1715.8,524.131 1721.2,543.959 1736.95,565.929 1750.76,568.76 1781.84,575.136 1804.36,586.016 1811.28,587.432 1843.02,578.324 1867.03,570.754 1884.11,561.769 1904.84,566.016 1925.75,582.792 1920.85,600.54 1922.04,622.67 1904.48,659.755 1884.09,680.617 1861.03,697.824 1837.33,730.589 1839.31,749.827 1798.91,763.501 1775.65,768.141 1745.63,783.957 1719.87,797.521 1703.67,816.217 1686.63,837.892 1657.53,863.395 1634.23,868.047 1607.34,859.345 1583.09,854.336 1547.59,850.176 1520.74,841.474 1501.51,818.617 1488.41,800.167 1451.92,773.766 1441.45,759.033 1413.71,740.743 1392.11,739.438 1357.65,744.903 1343.82,742.048 1313.56,732.681 1310.81,703.831 1293.55,700.274 1266.83,704.2 1249.63,713.222 1222.12,732.694 1221.27,735.66 1183.33,740.411 1163.5,745.765 1136.73,737.088 1116.85,717.271 1094.38,706.354 1055.58,701.505 1025.39,692.138 1008.15,688.581 985.735,677.676 963.303,654.229 965.891,645.342 976.204,622.375 993.401,600.836 1003.7,577.905 1009.67,544.71 1015.66,524.057 999.302,505.065 982.105,501.533 970.925,489.865 975.206,475.132 1007.86,475.587 1046.54,480.412 1087.77,476.399 1114.4,472.498 1141.84,453.174 1167.51,427.277 1190.62,410.206 1221.5,404.088 1264.44,406.661 1293.7,418.883 1325.57,434.761 1354.86,446.995 1380.72,458.528 1402.3,472.313 1443.62,480.781 1465.21,494.579 1494.66,519.343 1526.74,547.787 1549.21,558.643 1571.71,569.511 1590.74,579.678 1600.14,572.219 1624.99,561.695 1654.96,545.978 1675.51,537.707 1708.07,525.657 1740.77,526.125 1777.91,536.857 1803.22,563.911 1806.01,580.096 1803.05,617.009 1782.8,650.413 1783.94,672.568 1774.03,708.163 1775.34,742.946 1792.97,771.711 1826.13,797.398 1864.07,792.635 1877.94,795.49 1916.06,803.33 1935.42,826.187 1964.37,854.188 1984.77,886.743 1994.76,917.182 1997.62,933.539 2012.13,920.763 2054.64,926.376 2078.97,931.385 2089.61,946.204 2092.27,949.909 2094.12,956.605 2099.66,976.692 2102.32,980.409 2119.72,983.991 2137.92,984.594 2169.82,975.375 2195.22,990.096 2203.23,1001.23 2218.45,1026.5 2216.01,1035.49 2220.07,1020.51 2225.74,999.548 2222.57,970.476 2210.86,945.958 2194.85,923.742 2185.81,902.966 2187.19,884.343 2153.84,858.582 2151.54,826.642 2157.21,805.804 2174.34,796.758 2195.96,798.075 2222.92,806.752 2237.86,819.257 2250.37,840.698 2280.28,865.733 2290.15,883.506 2278.62,912.628 2258.25,933.65 2242.16,952.42 2209.47,964.617 2193.36,983.4 2164.14,996.323 2135.13,1021.95 2118.99,1040.76 2108.98,1064.02 2087.7,1088.13 2070.71,1109.98 2044.08,1126.68 2019.07,1137.38 1984.62,1155.64 1961.44,1173.08 1933.74,1180.06 1901.9,1202.08 1890.8,1215.69 1853.63,1230.27 1839.02,1243.16 1818.42,1264.38 1798.81,1295.39 1794.66,1310.48 1788.83,1331.62 1781.34,1358.83 1808.62,1380.49 1813.11,1391.02 1805.62,1418.26 1798.12,1445.54 1779.8,1444.92 1754.48,1442.87 1730.69,1421.89 1719.91,1394.03 1706.62,1375.27 1680.21,1350.59 1636.39,1322.29 1614.6,1320.97 1578.04,1319.76 1538.95,1327.6 1495.51,1337.75 1477.23,1337.14 1436.23,1325.42 1413.52,1314.29 1391.59,1287.38 1390.48,1252.04 1384.1,1209.27 1363.98,1189.17 1343.88,1169.07 1349.75,1135.3 1346.12,1109.12 1338.16,1085.24 1324.96,1053.94 1305.77,1030.93 1302.15,1004.83 1308.88,968.224 1318.21,935.361 1337.07,907.667 1353.31,876.294 1366.06,844.231 1393.57,824.698 1386.49,798.038 1371.63,772.941 1338.67,747.279 1309.34,747.525 1291.14,734.343 1280.64,707.043 1276.15,671.583 1290.67,646.351 1303.47,627.052 1324.09,618.756 1361.05,604.43 1398.9,599.691 1440.2,595.666 1476.38,596.848 1500.42,589.266 1526.85,560.305 1543.04,541.756 1572.17,529.005 1591.91,523.688 1596.06,508.93 1582.15,493.606 1557.91,476.165 1532.02,464.62 1500.81,433.296 1481.71,410.71 1470.36,386.611 1453.9,367.693 1451.2,351.606 1457.86,328.122 1474.95,319.211 1493.91,329.291 1529.11,333.39 1572.02,335.95 1602.15,345.218 1644.25,350.72 1672.6,353.416 1704.54,369.269 1725.19,373.49 1752.58,366.671 1777.35,356.209 1811.61,350.794 1844.22,351.249 1875.03,345.132 1895.87,361.81 1906.39,376.37 1911.46,371.201 1924.06,352.049 1943.53,334.313 1960.57,325.39 1986.91,309.069 2003.1,303.075 1991.97,303.9 1963.43,288.785 1957.17,272.034 1944.66,238.543 1951.98,212.203 1962.09,201.914 1994.46,189.975 2029.63,194.049 2050.26,198.258 2088.89,203.034 2125.1,216.585 2144.35,239.047 2147.45,267.516 2140.2,293.881 2131.71,298.349 2133.77,317.352 2137.66,342.941 2131.42,378.894 2099,390.894 2080.79,430.674 2054.42,447.044 2032.49,473.679 2026.2,509.779 2003.86,511.429 1962.62,515.453 1925.84,529.743 1896.76,542.507 1881.67,570.631 1869.19,602.448 1870.19,612.024 1897.02,620.664 1929.14,636.64 1969.01,651.09 2002.19,676.691 2024.8,687.596 2067.16,693.16 2099.95,693.627 2141.3,689.59 2165.54,694.575 2191.42,693.615 2202.38,680.211 2219.23,658.635 2236.05,637.059 2232.12,611.248 2229.21,595.038 2218.35,567.837 2187.8,545.978 2170.29,529.928 2145.06,515.404 2096.91,518.013 2080.66,524.044 2053.44,543.418 2037.4,561.966 2007.7,590.226 2007.3,618.276 2012.98,650.721 2016.03,679.534 2034.58,705.271 2046.19,729.604 2061.49,767.28 2075.8,795.342 2106.2,804.746 2137.66,823.787 2165.89,854.767 2182.67,873.967 2198.9,908.812 2204.46,928.874 2202.03,937.835 2167.5,943.337 2126.23,960.076 2105.36,955.768 2092.49,962.587 2069.17,967.251 2044.85,962.23 2009.06,945.367 1981.26,939.632 1943.24,944.42 1894.96,959.719 1862.23,971.916 1825.83,970.722 1779.18,980.052 1746.26,979.572 1705.56,980.655 1677.78,974.919 1639.73,979.695 1608.49,973.246 1573.77,966.07 1532.76,929.145 1512.78,921.859 1471.18,913.268 1439.06,897.156 1410.41,881.771 1376.54,859.001 1355.75,854.717 1326.45,867.592 1299.75,884.159 1269.56,900.036 1227.29,919.729 1192.71,925.219 1168.47,920.209 1135.52,894.436 1119.88,872.257 1099.92,839.726 1073.95,815.442 1064.39,785.102 1060.87,759.193 1063.42,737.691 1047.83,703.043 1026.25,689.172 996.93,676.851 977.954,654.106 969.319,620.959 967.569,601.796 954.653,570.939 965.819,545.067 989.004,515.441 995.874,504.351 1008.75,497.631 1020.77,481.36 1025.89,463.685 1033.58,437.198 1040.41,413.664 1045.5,383.558 1059.15,349.034 1056.55,332.947 1033.36,312.663 1015.34,299.653 986.198,299.899 957.922,309.635 930.5,304.023 895.368,287.505 855.97,273.227 842.273,270.421 818.293,265.51 802.05,246.666 801.24,224.795 817.526,206.431 841.506,186.553 864.619,169.617 915.082,158.269 936.458,147.179 970.65,141.788 999.736,153.924 1027.11,159.512 1064.73,154.822 1098.93,149.444 1115.96,128.2 1132.15,109.885 1145.74,87.9763 "/>
<path clip-path="url(#clip690)" d="M214.252 1438.47 L760.776 1438.47 L760.776 1282.95 L214.252 1282.95  Z" fill="#ffffff" fill-rule="evenodd" fill-opacity="1"/>
<polyline clip-path="url(#clip690)" style="stroke:#000000; stroke-linecap:round; stroke-linejoin:round; stroke-width:4; stroke-opacity:1; fill:none" points="214.252,1438.47 760.776,1438.47 760.776,1282.95 214.252,1282.95 214.252,1438.47 "/>
<polyline clip-path="url(#clip690)" style="stroke:#0000ff; stroke-linecap:round; stroke-linejoin:round; stroke-width:4; stroke-opacity:1; fill:none" points="238.832,1334.79 386.315,1334.79 "/>
<path clip-path="url(#clip690)" d="M434.924 1338.05 L434.924 1340.13 L415.34 1340.13 Q415.618 1344.53 417.979 1346.84 Q420.363 1349.13 424.6 1349.13 Q427.053 1349.13 429.345 1348.53 Q431.66 1347.93 433.928 1346.73 L433.928 1350.75 Q431.637 1351.73 429.229 1352.24 Q426.822 1352.75 424.345 1352.75 Q418.141 1352.75 414.507 1349.13 Q410.896 1345.52 410.896 1339.37 Q410.896 1333 414.322 1329.27 Q417.771 1325.52 423.604 1325.52 Q428.836 1325.52 431.868 1328.9 Q434.924 1332.26 434.924 1338.05 M430.664 1336.8 Q430.618 1333.3 428.697 1331.22 Q426.799 1329.13 423.65 1329.13 Q420.086 1329.13 417.933 1331.15 Q415.803 1333.16 415.479 1336.82 L430.664 1336.8 Z" fill="#000000" fill-rule="nonzero" fill-opacity="1" /><path clip-path="url(#clip690)" d="M458.442 1326.91 L458.442 1330.94 Q456.636 1330.01 454.692 1329.55 Q452.748 1329.09 450.664 1329.09 Q447.493 1329.09 445.896 1330.06 Q444.322 1331.03 444.322 1332.98 Q444.322 1334.46 445.456 1335.32 Q446.59 1336.15 450.016 1336.91 L451.474 1337.24 Q456.011 1338.21 457.91 1339.99 Q459.831 1341.75 459.831 1344.92 Q459.831 1348.53 456.96 1350.64 Q454.113 1352.75 449.113 1352.75 Q447.03 1352.75 444.761 1352.33 Q442.516 1351.94 440.016 1351.13 L440.016 1346.73 Q442.377 1347.95 444.669 1348.58 Q446.961 1349.18 449.206 1349.18 Q452.215 1349.18 453.836 1348.16 Q455.456 1347.12 455.456 1345.25 Q455.456 1343.51 454.275 1342.58 Q453.118 1341.66 449.16 1340.8 L447.678 1340.45 Q443.72 1339.62 441.961 1337.91 Q440.201 1336.17 440.201 1333.16 Q440.201 1329.51 442.794 1327.51 Q445.386 1325.52 450.155 1325.52 Q452.516 1325.52 454.599 1325.87 Q456.683 1326.22 458.442 1326.91 Z" fill="#000000" fill-rule="nonzero" fill-opacity="1" /><path clip-path="url(#clip690)" d="M470.826 1318.79 L470.826 1326.15 L479.599 1326.15 L479.599 1329.46 L470.826 1329.46 L470.826 1343.53 Q470.826 1346.7 471.683 1347.61 Q472.562 1348.51 475.224 1348.51 L479.599 1348.51 L479.599 1352.07 L475.224 1352.07 Q470.294 1352.07 468.419 1350.25 Q466.544 1348.39 466.544 1343.53 L466.544 1329.46 L463.419 1329.46 L463.419 1326.15 L466.544 1326.15 L466.544 1318.79 L470.826 1318.79 Z" fill="#000000" fill-rule="nonzero" fill-opacity="1" /><path clip-path="url(#clip690)" d="M485.201 1326.15 L489.46 1326.15 L489.46 1352.07 L485.201 1352.07 L485.201 1326.15 M485.201 1316.06 L489.46 1316.06 L489.46 1321.45 L485.201 1321.45 L485.201 1316.06 Z" fill="#000000" fill-rule="nonzero" fill-opacity="1" /><path clip-path="url(#clip690)" d="M518.557 1331.13 Q520.155 1328.26 522.377 1326.89 Q524.599 1325.52 527.608 1325.52 Q531.659 1325.52 533.858 1328.37 Q536.057 1331.19 536.057 1336.43 L536.057 1352.07 L531.775 1352.07 L531.775 1336.57 Q531.775 1332.84 530.455 1331.03 Q529.136 1329.23 526.428 1329.23 Q523.118 1329.23 521.196 1331.43 Q519.275 1333.63 519.275 1337.42 L519.275 1352.07 L514.993 1352.07 L514.993 1336.57 Q514.993 1332.82 513.673 1331.03 Q512.354 1329.23 509.599 1329.23 Q506.335 1329.23 504.414 1331.45 Q502.493 1333.65 502.493 1337.42 L502.493 1352.07 L498.21 1352.07 L498.21 1326.15 L502.493 1326.15 L502.493 1330.18 Q503.951 1327.79 505.988 1326.66 Q508.025 1325.52 510.826 1325.52 Q513.65 1325.52 515.618 1326.96 Q517.608 1328.39 518.557 1331.13 Z" fill="#000000" fill-rule="nonzero" fill-opacity="1" /><path clip-path="url(#clip690)" d="M556.335 1339.04 Q551.173 1339.04 549.182 1340.22 Q547.191 1341.4 547.191 1344.25 Q547.191 1346.52 548.673 1347.86 Q550.178 1349.18 552.747 1349.18 Q556.289 1349.18 558.418 1346.68 Q560.571 1344.16 560.571 1339.99 L560.571 1339.04 L556.335 1339.04 M564.83 1337.28 L564.83 1352.07 L560.571 1352.07 L560.571 1348.14 Q559.113 1350.5 556.937 1351.63 Q554.761 1352.75 551.613 1352.75 Q547.631 1352.75 545.27 1350.52 Q542.932 1348.28 542.932 1344.53 Q542.932 1340.15 545.849 1337.93 Q548.789 1335.71 554.599 1335.71 L560.571 1335.71 L560.571 1335.29 Q560.571 1332.35 558.627 1330.76 Q556.705 1329.13 553.21 1329.13 Q550.988 1329.13 548.881 1329.67 Q546.775 1330.2 544.83 1331.26 L544.83 1327.33 Q547.168 1326.43 549.367 1325.99 Q551.566 1325.52 553.65 1325.52 Q559.275 1325.52 562.053 1328.44 Q564.83 1331.36 564.83 1337.28 Z" fill="#000000" fill-rule="nonzero" fill-opacity="1" /><path clip-path="url(#clip690)" d="M577.816 1318.79 L577.816 1326.15 L586.589 1326.15 L586.589 1329.46 L577.816 1329.46 L577.816 1343.53 Q577.816 1346.7 578.673 1347.61 Q579.552 1348.51 582.214 1348.51 L586.589 1348.51 L586.589 1352.07 L582.214 1352.07 Q577.284 1352.07 575.409 1350.25 Q573.534 1348.39 573.534 1343.53 L573.534 1329.46 L570.409 1329.46 L570.409 1326.15 L573.534 1326.15 L573.534 1318.79 L577.816 1318.79 Z" fill="#000000" fill-rule="nonzero" fill-opacity="1" /><path clip-path="url(#clip690)" d="M614.367 1338.05 L614.367 1340.13 L594.784 1340.13 Q595.062 1344.53 597.423 1346.84 Q599.807 1349.13 604.043 1349.13 Q606.497 1349.13 608.788 1348.53 Q611.103 1347.93 613.372 1346.73 L613.372 1350.75 Q611.08 1351.73 608.673 1352.24 Q606.265 1352.75 603.788 1352.75 Q597.585 1352.75 593.95 1349.13 Q590.339 1345.52 590.339 1339.37 Q590.339 1333 593.765 1329.27 Q597.214 1325.52 603.048 1325.52 Q608.279 1325.52 611.312 1328.9 Q614.367 1332.26 614.367 1338.05 M610.108 1336.8 Q610.062 1333.3 608.14 1331.22 Q606.242 1329.13 603.094 1329.13 Q599.529 1329.13 597.376 1331.15 Q595.247 1333.16 594.923 1336.82 L610.108 1336.8 Z" fill="#000000" fill-rule="nonzero" fill-opacity="1" /><polyline clip-path="url(#clip690)" style="stroke:#ff0000; stroke-linecap:round; stroke-linejoin:round; stroke-width:4; stroke-opacity:1; fill:none" points="238.832,1386.63 386.315,1386.63 "/>
<path clip-path="url(#clip690)" d="M431.243 1382.97 Q432.84 1380.1 435.062 1378.73 Q437.285 1377.36 440.294 1377.36 Q444.345 1377.36 446.544 1380.21 Q448.743 1383.03 448.743 1388.27 L448.743 1403.91 L444.461 1403.91 L444.461 1388.41 Q444.461 1384.68 443.141 1382.87 Q441.822 1381.07 439.113 1381.07 Q435.803 1381.07 433.882 1383.27 Q431.961 1385.47 431.961 1389.26 L431.961 1403.91 L427.678 1403.91 L427.678 1388.41 Q427.678 1384.66 426.359 1382.87 Q425.039 1381.07 422.285 1381.07 Q419.021 1381.07 417.1 1383.29 Q415.178 1385.49 415.178 1389.26 L415.178 1403.91 L410.896 1403.91 L410.896 1377.99 L415.178 1377.99 L415.178 1382.02 Q416.637 1379.63 418.674 1378.5 Q420.711 1377.36 423.512 1377.36 Q426.336 1377.36 428.303 1378.8 Q430.294 1380.23 431.243 1382.97 Z" fill="#000000" fill-rule="nonzero" fill-opacity="1" /><path clip-path="url(#clip690)" d="M479.414 1389.89 L479.414 1391.97 L459.831 1391.97 Q460.109 1396.37 462.47 1398.68 Q464.854 1400.97 469.09 1400.97 Q471.544 1400.97 473.835 1400.37 Q476.15 1399.77 478.419 1398.57 L478.419 1402.59 Q476.127 1403.57 473.72 1404.08 Q471.312 1404.59 468.835 1404.59 Q462.632 1404.59 458.998 1400.97 Q455.386 1397.36 455.386 1391.21 Q455.386 1384.84 458.812 1381.11 Q462.261 1377.36 468.095 1377.36 Q473.326 1377.36 476.359 1380.74 Q479.414 1384.1 479.414 1389.89 M475.155 1388.64 Q475.109 1385.14 473.187 1383.06 Q471.289 1380.97 468.141 1380.97 Q464.576 1380.97 462.423 1382.99 Q460.294 1385 459.97 1388.66 L475.155 1388.64 Z" fill="#000000" fill-rule="nonzero" fill-opacity="1" /><path clip-path="url(#clip690)" d="M498.187 1390.88 Q493.025 1390.88 491.034 1392.06 Q489.044 1393.24 489.044 1396.09 Q489.044 1398.36 490.525 1399.7 Q492.03 1401.02 494.599 1401.02 Q498.141 1401.02 500.27 1398.52 Q502.423 1396 502.423 1391.83 L502.423 1390.88 L498.187 1390.88 M506.682 1389.12 L506.682 1403.91 L502.423 1403.91 L502.423 1399.98 Q500.965 1402.34 498.789 1403.47 Q496.613 1404.59 493.465 1404.59 Q489.483 1404.59 487.122 1402.36 Q484.784 1400.12 484.784 1396.37 Q484.784 1391.99 487.701 1389.77 Q490.641 1387.55 496.451 1387.55 L502.423 1387.55 L502.423 1387.13 Q502.423 1384.19 500.479 1382.6 Q498.557 1380.97 495.062 1380.97 Q492.84 1380.97 490.733 1381.51 Q488.627 1382.04 486.683 1383.1 L486.683 1379.17 Q489.021 1378.27 491.22 1377.83 Q493.419 1377.36 495.502 1377.36 Q501.127 1377.36 503.905 1380.28 Q506.682 1383.2 506.682 1389.12 Z" fill="#000000" fill-rule="nonzero" fill-opacity="1" /><path clip-path="url(#clip690)" d="M531.983 1378.75 L531.983 1382.78 Q530.178 1381.85 528.233 1381.39 Q526.289 1380.93 524.206 1380.93 Q521.034 1380.93 519.437 1381.9 Q517.863 1382.87 517.863 1384.82 Q517.863 1386.3 518.997 1387.16 Q520.131 1387.99 523.557 1388.75 L525.016 1389.08 Q529.553 1390.05 531.451 1391.83 Q533.372 1393.59 533.372 1396.76 Q533.372 1400.37 530.502 1402.48 Q527.655 1404.59 522.655 1404.59 Q520.571 1404.59 518.303 1404.17 Q516.057 1403.78 513.557 1402.97 L513.557 1398.57 Q515.919 1399.79 518.21 1400.42 Q520.502 1401.02 522.747 1401.02 Q525.756 1401.02 527.377 1400 Q528.997 1398.96 528.997 1397.09 Q528.997 1395.35 527.817 1394.42 Q526.659 1393.5 522.701 1392.64 L521.219 1392.29 Q517.261 1391.46 515.502 1389.75 Q513.743 1388.01 513.743 1385 Q513.743 1381.35 516.335 1379.35 Q518.928 1377.36 523.696 1377.36 Q526.057 1377.36 528.141 1377.71 Q530.224 1378.06 531.983 1378.75 Z" fill="#000000" fill-rule="nonzero" fill-opacity="1" /><path clip-path="url(#clip690)" d="M539.715 1393.68 L539.715 1377.99 L543.974 1377.99 L543.974 1393.52 Q543.974 1397.2 545.409 1399.05 Q546.844 1400.88 549.715 1400.88 Q553.164 1400.88 555.154 1398.68 Q557.168 1396.48 557.168 1392.69 L557.168 1377.99 L561.428 1377.99 L561.428 1403.91 L557.168 1403.91 L557.168 1399.93 Q555.617 1402.29 553.557 1403.45 Q551.52 1404.59 548.812 1404.59 Q544.344 1404.59 542.029 1401.81 Q539.715 1399.03 539.715 1393.68 M550.432 1377.36 L550.432 1377.36 Z" fill="#000000" fill-rule="nonzero" fill-opacity="1" /><path clip-path="url(#clip690)" d="M585.224 1381.97 Q584.506 1381.55 583.65 1381.37 Q582.816 1381.16 581.798 1381.16 Q578.187 1381.16 576.242 1383.52 Q574.321 1385.86 574.321 1390.26 L574.321 1403.91 L570.039 1403.91 L570.039 1377.99 L574.321 1377.99 L574.321 1382.02 Q575.664 1379.66 577.816 1378.52 Q579.969 1377.36 583.048 1377.36 Q583.488 1377.36 584.02 1377.43 Q584.552 1377.48 585.201 1377.6 L585.224 1381.97 Z" fill="#000000" fill-rule="nonzero" fill-opacity="1" /><path clip-path="url(#clip690)" d="M610.825 1389.89 L610.825 1391.97 L591.242 1391.97 Q591.52 1396.37 593.881 1398.68 Q596.265 1400.97 600.501 1400.97 Q602.955 1400.97 605.247 1400.37 Q607.562 1399.77 609.83 1398.57 L609.83 1402.59 Q607.538 1403.57 605.131 1404.08 Q602.724 1404.59 600.247 1404.59 Q594.043 1404.59 590.409 1400.97 Q586.798 1397.36 586.798 1391.21 Q586.798 1384.84 590.224 1381.11 Q593.673 1377.36 599.506 1377.36 Q604.737 1377.36 607.77 1380.74 Q610.825 1384.1 610.825 1389.89 M606.566 1388.64 Q606.52 1385.14 604.599 1383.06 Q602.7 1380.97 599.552 1380.97 Q595.988 1380.97 593.835 1382.99 Q591.705 1385 591.381 1388.66 L606.566 1388.64 Z" fill="#000000" fill-rule="nonzero" fill-opacity="1" /><path clip-path="url(#clip690)" d="M638.001 1382.97 Q639.598 1380.1 641.821 1378.73 Q644.043 1377.36 647.052 1377.36 Q651.103 1377.36 653.302 1380.21 Q655.501 1383.03 655.501 1388.27 L655.501 1403.91 L651.219 1403.91 L651.219 1388.41 Q651.219 1384.68 649.899 1382.87 Q648.58 1381.07 645.872 1381.07 Q642.561 1381.07 640.64 1383.27 Q638.719 1385.47 638.719 1389.26 L638.719 1403.91 L634.436 1403.91 L634.436 1388.41 Q634.436 1384.66 633.117 1382.87 Q631.798 1381.07 629.043 1381.07 Q625.779 1381.07 623.858 1383.29 Q621.936 1385.49 621.936 1389.26 L621.936 1403.91 L617.654 1403.91 L617.654 1377.99 L621.936 1377.99 L621.936 1382.02 Q623.395 1379.63 625.432 1378.5 Q627.469 1377.36 630.27 1377.36 Q633.094 1377.36 635.061 1378.8 Q637.052 1380.23 638.001 1382.97 Z" fill="#000000" fill-rule="nonzero" fill-opacity="1" /><path clip-path="url(#clip690)" d="M686.172 1389.89 L686.172 1391.97 L666.589 1391.97 Q666.867 1396.37 669.228 1398.68 Q671.612 1400.97 675.848 1400.97 Q678.302 1400.97 680.594 1400.37 Q682.908 1399.77 685.177 1398.57 L685.177 1402.59 Q682.885 1403.57 680.478 1404.08 Q678.07 1404.59 675.594 1404.59 Q669.39 1404.59 665.756 1400.97 Q662.145 1397.36 662.145 1391.21 Q662.145 1384.84 665.57 1381.11 Q669.02 1377.36 674.853 1377.36 Q680.084 1377.36 683.117 1380.74 Q686.172 1384.1 686.172 1389.89 M681.913 1388.64 Q681.867 1385.14 679.945 1383.06 Q678.047 1380.97 674.899 1380.97 Q671.334 1380.97 669.182 1382.99 Q667.052 1385 666.728 1388.66 L681.913 1388.64 Z" fill="#000000" fill-rule="nonzero" fill-opacity="1" /><path clip-path="url(#clip690)" d="M714.714 1388.27 L714.714 1403.91 L710.455 1403.91 L710.455 1388.41 Q710.455 1384.72 709.019 1382.9 Q707.584 1381.07 704.714 1381.07 Q701.265 1381.07 699.274 1383.27 Q697.283 1385.47 697.283 1389.26 L697.283 1403.91 L693.001 1403.91 L693.001 1377.99 L697.283 1377.99 L697.283 1382.02 Q698.811 1379.68 700.871 1378.52 Q702.955 1377.36 705.663 1377.36 Q710.13 1377.36 712.422 1380.14 Q714.714 1382.9 714.714 1388.27 Z" fill="#000000" fill-rule="nonzero" fill-opacity="1" /><path clip-path="url(#clip690)" d="M727.422 1370.63 L727.422 1377.99 L736.195 1377.99 L736.195 1381.3 L727.422 1381.3 L727.422 1395.37 Q727.422 1398.54 728.278 1399.45 Q729.158 1400.35 731.82 1400.35 L736.195 1400.35 L736.195 1403.91 L731.82 1403.91 Q726.89 1403.91 725.015 1402.09 Q723.14 1400.23 723.14 1395.37 L723.14 1381.3 L720.015 1381.3 L720.015 1377.99 L723.14 1377.99 L723.14 1370.63 L727.422 1370.63 Z" fill="#000000" fill-rule="nonzero" fill-opacity="1" /></svg>
