<?xml version="1.0" encoding="utf-8"?>
<svg xmlns="http://www.w3.org/2000/svg" xmlns:xlink="http://www.w3.org/1999/xlink" width="600" height="400" viewBox="0 0 2400 1600">
<defs>
  <clipPath id="clip490">
    <rect x="0" y="0" width="2400" height="1600"/>
  </clipPath>
</defs>
<path clip-path="url(#clip490)" d="M0 1600 L2400 1600 L2400 0 L0 0  Z" fill="#ffffff" fill-rule="evenodd" fill-opacity="1"/>
<defs>
  <clipPath id="clip491">
    <rect x="239" y="123" width="2115" height="1288"/>
  </clipPath>
</defs>
<path clip-path="url(#clip490)" d="M239.19 1410.9 L2352.76 1410.9 L2352.76 123.472 L239.19 123.472  Z" fill="#ffffff" fill-rule="evenodd" fill-opacity="1"/>
<polyline clip-path="url(#clip491)" style="stroke:#000000; stroke-linecap:round; stroke-linejoin:round; stroke-width:2; stroke-opacity:0.1; fill:none" points="1096.58,1410.9 1096.58,123.472 "/>
<polyline clip-path="url(#clip491)" style="stroke:#000000; stroke-linecap:round; stroke-linejoin:round; stroke-width:2; stroke-opacity:0.1; fill:none" points="2093.55,1410.9 2093.55,123.472 "/>
<polyline clip-path="url(#clip491)" style="stroke:#000000; stroke-linecap:round; stroke-linejoin:round; stroke-width:2; stroke-opacity:0.1; fill:none" points="239.19,1309.25 2352.76,1309.25 "/>
<polyline clip-path="url(#clip491)" style="stroke:#000000; stroke-linecap:round; stroke-linejoin:round; stroke-width:2; stroke-opacity:0.1; fill:none" points="239.19,1138.73 2352.76,1138.73 "/>
<polyline clip-path="url(#clip491)" style="stroke:#000000; stroke-linecap:round; stroke-linejoin:round; stroke-width:2; stroke-opacity:0.1; fill:none" points="239.19,968.217 2352.76,968.217 "/>
<polyline clip-path="url(#clip491)" style="stroke:#000000; stroke-linecap:round; stroke-linejoin:round; stroke-width:2; stroke-opacity:0.1; fill:none" points="239.19,797.7 2352.76,797.7 "/>
<polyline clip-path="url(#clip491)" style="stroke:#000000; stroke-linecap:round; stroke-linejoin:round; stroke-width:2; stroke-opacity:0.1; fill:none" points="239.19,627.182 2352.76,627.182 "/>
<polyline clip-path="url(#clip491)" style="stroke:#000000; stroke-linecap:round; stroke-linejoin:round; stroke-width:2; stroke-opacity:0.1; fill:none" points="239.19,456.665 2352.76,456.665 "/>
<polyline clip-path="url(#clip491)" style="stroke:#000000; stroke-linecap:round; stroke-linejoin:round; stroke-width:2; stroke-opacity:0.1; fill:none" points="239.19,286.147 2352.76,286.147 "/>
<polyline clip-path="url(#clip490)" style="stroke:#000000; stroke-linecap:round; stroke-linejoin:round; stroke-width:4; stroke-opacity:1; fill:none" points="239.19,1410.9 2352.76,1410.9 "/>
<polyline clip-path="url(#clip490)" style="stroke:#000000; stroke-linecap:round; stroke-linejoin:round; stroke-width:4; stroke-opacity:1; fill:none" points="1096.58,1410.9 1096.58,1392 "/>
<polyline clip-path="url(#clip490)" style="stroke:#000000; stroke-linecap:round; stroke-linejoin:round; stroke-width:4; stroke-opacity:1; fill:none" points="2093.55,1410.9 2093.55,1392 "/>
<path clip-path="url(#clip490)" d="M1061.56 1485.02 L1069.2 1485.02 L1069.2 1458.66 L1060.89 1460.32 L1060.89 1456.06 L1069.16 1454.4 L1073.83 1454.4 L1073.83 1485.02 L1081.47 1485.02 L1081.47 1488.96 L1061.56 1488.96 L1061.56 1485.02 Z" fill="#000000" fill-rule="nonzero" fill-opacity="1" /><path clip-path="url(#clip490)" d="M1100.91 1457.48 Q1097.3 1457.48 1095.47 1461.04 Q1093.67 1464.58 1093.67 1471.71 Q1093.67 1478.82 1095.47 1482.38 Q1097.3 1485.92 1100.91 1485.92 Q1104.55 1485.92 1106.35 1482.38 Q1108.18 1478.82 1108.18 1471.71 Q1108.18 1464.58 1106.35 1461.04 Q1104.55 1457.48 1100.91 1457.48 M1100.91 1453.77 Q1106.72 1453.77 1109.78 1458.38 Q1112.86 1462.96 1112.86 1471.71 Q1112.86 1480.44 1109.78 1485.04 Q1106.72 1489.63 1100.91 1489.63 Q1095.1 1489.63 1092.03 1485.04 Q1088.97 1480.44 1088.97 1471.71 Q1088.97 1462.96 1092.03 1458.38 Q1095.1 1453.77 1100.91 1453.77 Z" fill="#000000" fill-rule="nonzero" fill-opacity="1" /><path clip-path="url(#clip490)" d="M1122.56 1435.97 Q1119.63 1435.97 1118.14 1438.86 Q1116.68 1441.74 1116.68 1447.53 Q1116.68 1453.31 1118.14 1456.2 Q1119.63 1459.08 1122.56 1459.08 Q1125.52 1459.08 1126.98 1456.2 Q1128.47 1453.31 1128.47 1447.53 Q1128.47 1441.74 1126.98 1438.86 Q1125.52 1435.97 1122.56 1435.97 M1122.56 1432.96 Q1127.28 1432.96 1129.77 1436.7 Q1132.27 1440.43 1132.27 1447.53 Q1132.27 1454.62 1129.77 1458.37 Q1127.28 1462.09 1122.56 1462.09 Q1117.84 1462.09 1115.34 1458.37 Q1112.86 1454.62 1112.86 1447.53 Q1112.86 1440.43 1115.34 1436.7 Q1117.84 1432.96 1122.56 1432.96 Z" fill="#000000" fill-rule="nonzero" fill-opacity="1" /><path clip-path="url(#clip490)" d="M2059.87 1485.02 L2067.51 1485.02 L2067.51 1458.66 L2059.2 1460.32 L2059.2 1456.06 L2067.47 1454.4 L2072.14 1454.4 L2072.14 1485.02 L2079.78 1485.02 L2079.78 1488.96 L2059.87 1488.96 L2059.87 1485.02 Z" fill="#000000" fill-rule="nonzero" fill-opacity="1" /><path clip-path="url(#clip490)" d="M2099.22 1457.48 Q2095.61 1457.48 2093.78 1461.04 Q2091.98 1464.58 2091.98 1471.71 Q2091.98 1478.82 2093.78 1482.38 Q2095.61 1485.92 2099.22 1485.92 Q2102.86 1485.92 2104.66 1482.38 Q2106.49 1478.82 2106.49 1471.71 Q2106.49 1464.58 2104.66 1461.04 Q2102.86 1457.48 2099.22 1457.48 M2099.22 1453.77 Q2105.03 1453.77 2108.09 1458.38 Q2111.17 1462.96 2111.17 1471.71 Q2111.17 1480.44 2108.09 1485.04 Q2105.03 1489.63 2099.22 1489.63 Q2093.41 1489.63 2090.34 1485.04 Q2087.28 1480.44 2087.28 1471.71 Q2087.28 1462.96 2090.34 1458.38 Q2093.41 1453.77 2099.22 1453.77 Z" fill="#000000" fill-rule="nonzero" fill-opacity="1" /><path clip-path="url(#clip490)" d="M2111.71 1458.35 L2117.92 1458.35 L2117.92 1436.93 L2111.17 1438.28 L2111.17 1434.82 L2117.88 1433.47 L2121.68 1433.47 L2121.68 1458.35 L2127.89 1458.35 L2127.89 1461.55 L2111.71 1461.55 L2111.71 1458.35 Z" fill="#000000" fill-rule="nonzero" fill-opacity="1" /><path clip-path="url(#clip490)" d="M733.834 1531.95 L733.834 1568.9 L741.6 1568.9 Q751.435 1568.9 755.986 1564.45 Q760.569 1559.99 760.569 1550.38 Q760.569 1540.83 755.986 1536.4 Q751.435 1531.95 741.6 1531.95 L733.834 1531.95 M727.404 1526.67 L740.613 1526.67 Q754.427 1526.67 760.888 1532.43 Q767.349 1538.16 767.349 1550.38 Q767.349 1562.66 760.856 1568.42 Q754.363 1574.19 740.613 1574.19 L727.404 1574.19 L727.404 1526.67 Z" fill="#000000" fill-rule="nonzero" fill-opacity="1" /><path clip-path="url(#clip490)" d="M792.175 1577.5 Q789.693 1583.86 787.337 1585.8 Q784.982 1587.74 781.035 1587.74 L776.356 1587.74 L776.356 1582.84 L779.794 1582.84 Q782.213 1582.84 783.55 1581.7 Q784.886 1580.55 786.51 1576.29 L787.56 1573.61 L773.142 1538.54 L779.348 1538.54 L790.488 1566.42 L801.628 1538.54 L807.835 1538.54 L792.175 1577.5 Z" fill="#000000" fill-rule="nonzero" fill-opacity="1" /><path clip-path="url(#clip490)" d="M845.552 1552.67 L845.552 1574.19 L839.695 1574.19 L839.695 1552.86 Q839.695 1547.8 837.722 1545.29 Q835.748 1542.77 831.802 1542.77 Q827.059 1542.77 824.322 1545.79 Q821.585 1548.82 821.585 1554.04 L821.585 1574.19 L815.696 1574.19 L815.696 1538.54 L821.585 1538.54 L821.585 1544.08 Q823.685 1540.86 826.518 1539.27 Q829.383 1537.68 833.107 1537.68 Q839.25 1537.68 842.401 1541.5 Q845.552 1545.29 845.552 1552.67 Z" fill="#000000" fill-rule="nonzero" fill-opacity="1" /><path clip-path="url(#clip490)" d="M873.433 1556.27 Q866.336 1556.27 863.598 1557.89 Q860.861 1559.51 860.861 1563.43 Q860.861 1566.55 862.898 1568.39 Q864.967 1570.21 868.5 1570.21 Q873.37 1570.21 876.298 1566.77 Q879.258 1563.3 879.258 1557.57 L879.258 1556.27 L873.433 1556.27 M885.115 1553.85 L885.115 1574.19 L879.258 1574.19 L879.258 1568.77 Q877.253 1572.02 874.261 1573.58 Q871.269 1575.11 866.94 1575.11 Q861.466 1575.11 858.219 1572.05 Q855.005 1568.97 855.005 1563.81 Q855.005 1557.79 859.015 1554.74 Q863.057 1551.68 871.046 1551.68 L879.258 1551.68 L879.258 1551.11 Q879.258 1547.07 876.584 1544.87 Q873.943 1542.64 869.137 1542.64 Q866.081 1542.64 863.185 1543.38 Q860.288 1544.11 857.615 1545.57 L857.615 1540.16 Q860.829 1538.92 863.853 1538.31 Q866.877 1537.68 869.741 1537.68 Q877.476 1537.68 881.295 1541.69 Q885.115 1545.7 885.115 1553.85 Z" fill="#000000" fill-rule="nonzero" fill-opacity="1" /><path clip-path="url(#clip490)" d="M924.932 1545.38 Q927.128 1541.43 930.184 1539.56 Q933.239 1537.68 937.377 1537.68 Q942.947 1537.68 945.971 1541.59 Q948.994 1545.48 948.994 1552.67 L948.994 1574.19 L943.106 1574.19 L943.106 1552.86 Q943.106 1547.74 941.292 1545.25 Q939.478 1542.77 935.754 1542.77 Q931.202 1542.77 928.56 1545.79 Q925.919 1548.82 925.919 1554.04 L925.919 1574.19 L920.03 1574.19 L920.03 1552.86 Q920.03 1547.7 918.216 1545.25 Q916.402 1542.77 912.614 1542.77 Q908.127 1542.77 905.485 1545.83 Q902.843 1548.85 902.843 1554.04 L902.843 1574.19 L896.955 1574.19 L896.955 1538.54 L902.843 1538.54 L902.843 1544.08 Q904.848 1540.8 907.649 1539.24 Q910.45 1537.68 914.301 1537.68 Q918.184 1537.68 920.89 1539.65 Q923.627 1541.62 924.932 1545.38 Z" fill="#000000" fill-rule="nonzero" fill-opacity="1" /><path clip-path="url(#clip490)" d="M960.675 1538.54 L966.532 1538.54 L966.532 1574.19 L960.675 1574.19 L960.675 1538.54 M960.675 1524.66 L966.532 1524.66 L966.532 1532.08 L960.675 1532.08 L960.675 1524.66 Z" fill="#000000" fill-rule="nonzero" fill-opacity="1" /><path clip-path="url(#clip490)" d="M1004.44 1539.91 L1004.44 1545.38 Q1001.96 1544.01 999.443 1543.34 Q996.96 1542.64 994.414 1542.64 Q988.716 1542.64 985.565 1546.27 Q982.414 1549.87 982.414 1556.39 Q982.414 1562.92 985.565 1566.55 Q988.716 1570.14 994.414 1570.14 Q996.96 1570.14 999.443 1569.47 Q1001.96 1568.77 1004.44 1567.41 L1004.44 1572.82 Q1001.99 1573.96 999.347 1574.54 Q996.737 1575.11 993.777 1575.11 Q985.725 1575.11 980.982 1570.05 Q976.24 1564.99 976.24 1556.39 Q976.24 1547.67 981.014 1542.68 Q985.82 1537.68 994.159 1537.68 Q996.865 1537.68 999.443 1538.25 Q1002.02 1538.79 1004.44 1539.91 Z" fill="#000000" fill-rule="nonzero" fill-opacity="1" /><path clip-path="url(#clip490)" d="M1037.35 1539.59 L1037.35 1545.13 Q1034.87 1543.85 1032.19 1543.22 Q1029.52 1542.58 1026.66 1542.58 Q1022.3 1542.58 1020.1 1543.92 Q1017.93 1545.25 1017.93 1547.93 Q1017.93 1549.96 1019.49 1551.14 Q1021.05 1552.29 1025.76 1553.34 L1027.77 1553.78 Q1034.01 1555.12 1036.62 1557.57 Q1039.26 1559.99 1039.26 1564.35 Q1039.26 1569.32 1035.31 1572.21 Q1031.4 1575.11 1024.52 1575.11 Q1021.66 1575.11 1018.54 1574.54 Q1015.45 1573.99 1012.01 1572.88 L1012.01 1566.83 Q1015.26 1568.52 1018.41 1569.38 Q1021.56 1570.21 1024.65 1570.21 Q1028.79 1570.21 1031.02 1568.81 Q1033.24 1567.37 1033.24 1564.8 Q1033.24 1562.41 1031.62 1561.14 Q1030.03 1559.86 1024.59 1558.68 L1022.55 1558.21 Q1017.11 1557.06 1014.69 1554.71 Q1012.27 1552.32 1012.27 1548.18 Q1012.27 1543.15 1015.83 1540.42 Q1019.4 1537.68 1025.96 1537.68 Q1029.2 1537.68 1032.07 1538.16 Q1034.93 1538.63 1037.35 1539.59 Z" fill="#000000" fill-rule="nonzero" fill-opacity="1" /><path clip-path="url(#clip490)" d="M1098.94 1552.67 L1098.94 1574.19 L1093.08 1574.19 L1093.08 1552.86 Q1093.08 1547.8 1091.11 1545.29 Q1089.14 1542.77 1085.19 1542.77 Q1080.45 1542.77 1077.71 1545.79 Q1074.97 1548.82 1074.97 1554.04 L1074.97 1574.19 L1069.08 1574.19 L1069.08 1538.54 L1074.97 1538.54 L1074.97 1544.08 Q1077.07 1540.86 1079.91 1539.27 Q1082.77 1537.68 1086.49 1537.68 Q1092.64 1537.68 1095.79 1541.5 Q1098.94 1545.29 1098.94 1552.67 Z" fill="#000000" fill-rule="nonzero" fill-opacity="1" /><path clip-path="url(#clip490)" d="M1124.43 1542.64 Q1119.72 1542.64 1116.99 1546.34 Q1114.25 1550 1114.25 1556.39 Q1114.25 1562.79 1116.95 1566.48 Q1119.69 1570.14 1124.43 1570.14 Q1129.11 1570.14 1131.85 1566.45 Q1134.59 1562.76 1134.59 1556.39 Q1134.59 1550.06 1131.85 1546.37 Q1129.11 1542.64 1124.43 1542.64 M1124.43 1537.68 Q1132.07 1537.68 1136.43 1542.64 Q1140.79 1547.61 1140.79 1556.39 Q1140.79 1565.15 1136.43 1570.14 Q1132.07 1575.11 1124.43 1575.11 Q1116.76 1575.11 1112.4 1570.14 Q1108.07 1565.15 1108.07 1556.39 Q1108.07 1547.61 1112.4 1542.64 Q1116.76 1537.68 1124.43 1537.68 Z" fill="#000000" fill-rule="nonzero" fill-opacity="1" /><path clip-path="url(#clip490)" d="M1150.5 1538.54 L1156.36 1538.54 L1156.36 1574.19 L1150.5 1574.19 L1150.5 1538.54 M1150.5 1524.66 L1156.36 1524.66 L1156.36 1532.08 L1150.5 1532.08 L1150.5 1524.66 Z" fill="#000000" fill-rule="nonzero" fill-opacity="1" /><path clip-path="url(#clip490)" d="M1191.34 1539.59 L1191.34 1545.13 Q1188.85 1543.85 1186.18 1543.22 Q1183.51 1542.58 1180.64 1542.58 Q1176.28 1542.58 1174.09 1543.92 Q1171.92 1545.25 1171.92 1547.93 Q1171.92 1549.96 1173.48 1551.14 Q1175.04 1552.29 1179.75 1553.34 L1181.76 1553.78 Q1187.99 1555.12 1190.6 1557.57 Q1193.25 1559.99 1193.25 1564.35 Q1193.25 1569.32 1189.3 1572.21 Q1185.38 1575.11 1178.51 1575.11 Q1175.65 1575.11 1172.53 1574.54 Q1169.44 1573.99 1166 1572.88 L1166 1566.83 Q1169.25 1568.52 1172.4 1569.38 Q1175.55 1570.21 1178.64 1570.21 Q1182.77 1570.21 1185 1568.81 Q1187.23 1567.37 1187.23 1564.8 Q1187.23 1562.41 1185.61 1561.14 Q1184.02 1559.86 1178.57 1558.68 L1176.54 1558.21 Q1171.09 1557.06 1168.67 1554.71 Q1166.26 1552.32 1166.26 1548.18 Q1166.26 1543.15 1169.82 1540.42 Q1173.39 1537.68 1179.94 1537.68 Q1183.19 1537.68 1186.05 1538.16 Q1188.92 1538.63 1191.34 1539.59 Z" fill="#000000" fill-rule="nonzero" fill-opacity="1" /><path clip-path="url(#clip490)" d="M1233.06 1554.9 L1233.06 1557.76 L1206.14 1557.76 Q1206.52 1563.81 1209.77 1566.99 Q1213.04 1570.14 1218.87 1570.14 Q1222.24 1570.14 1225.39 1569.32 Q1228.58 1568.49 1231.7 1566.83 L1231.7 1572.37 Q1228.54 1573.71 1225.23 1574.41 Q1221.92 1575.11 1218.52 1575.11 Q1209.99 1575.11 1204.99 1570.14 Q1200.03 1565.18 1200.03 1556.71 Q1200.03 1547.96 1204.74 1542.83 Q1209.48 1537.68 1217.5 1537.68 Q1224.69 1537.68 1228.86 1542.33 Q1233.06 1546.94 1233.06 1554.9 M1227.21 1553.18 Q1227.14 1548.37 1224.5 1545.51 Q1221.89 1542.64 1217.56 1542.64 Q1212.66 1542.64 1209.7 1545.41 Q1206.77 1548.18 1206.33 1553.21 L1227.21 1553.18 Z" fill="#000000" fill-rule="nonzero" fill-opacity="1" /><path clip-path="url(#clip490)" d="M1286.12 1539.59 L1286.12 1545.13 Q1283.64 1543.85 1280.97 1543.22 Q1278.29 1542.58 1275.43 1542.58 Q1271.07 1542.58 1268.87 1543.92 Q1266.71 1545.25 1266.71 1547.93 Q1266.71 1549.96 1268.27 1551.14 Q1269.83 1552.29 1274.54 1553.34 L1276.54 1553.78 Q1282.78 1555.12 1285.39 1557.57 Q1288.03 1559.99 1288.03 1564.35 Q1288.03 1569.32 1284.09 1572.21 Q1280.17 1575.11 1273.3 1575.11 Q1270.43 1575.11 1267.31 1574.54 Q1264.22 1573.99 1260.79 1572.88 L1260.79 1566.83 Q1264.03 1568.52 1267.18 1569.38 Q1270.34 1570.21 1273.42 1570.21 Q1277.56 1570.21 1279.79 1568.81 Q1282.02 1567.37 1282.02 1564.8 Q1282.02 1562.41 1280.39 1561.14 Q1278.8 1559.86 1273.36 1558.68 L1271.32 1558.21 Q1265.88 1557.06 1263.46 1554.71 Q1261.04 1552.32 1261.04 1548.18 Q1261.04 1543.15 1264.61 1540.42 Q1268.17 1537.68 1274.73 1537.68 Q1277.97 1537.68 1280.84 1538.16 Q1283.7 1538.63 1286.12 1539.59 Z" fill="#000000" fill-rule="nonzero" fill-opacity="1" /><path clip-path="url(#clip490)" d="M1303.15 1528.42 L1303.15 1538.54 L1315.21 1538.54 L1315.21 1543.09 L1303.15 1543.09 L1303.15 1562.44 Q1303.15 1566.8 1304.33 1568.04 Q1305.54 1569.28 1309.2 1569.28 L1315.21 1569.28 L1315.21 1574.19 L1309.2 1574.19 Q1302.42 1574.19 1299.84 1571.67 Q1297.26 1569.12 1297.26 1562.44 L1297.26 1543.09 L1292.97 1543.09 L1292.97 1538.54 L1297.26 1538.54 L1297.26 1528.42 L1303.15 1528.42 Z" fill="#000000" fill-rule="nonzero" fill-opacity="1" /><path clip-path="url(#clip490)" d="M1339.12 1556.27 Q1332.02 1556.27 1329.28 1557.89 Q1326.54 1559.51 1326.54 1563.43 Q1326.54 1566.55 1328.58 1568.39 Q1330.65 1570.21 1334.18 1570.21 Q1339.05 1570.21 1341.98 1566.77 Q1344.94 1563.3 1344.94 1557.57 L1344.94 1556.27 L1339.12 1556.27 M1350.8 1553.85 L1350.8 1574.19 L1344.94 1574.19 L1344.94 1568.77 Q1342.94 1572.02 1339.94 1573.58 Q1336.95 1575.11 1332.62 1575.11 Q1327.15 1575.11 1323.9 1572.05 Q1320.69 1568.97 1320.69 1563.81 Q1320.69 1557.79 1324.7 1554.74 Q1328.74 1551.68 1336.73 1551.68 L1344.94 1551.68 L1344.94 1551.11 Q1344.94 1547.07 1342.27 1544.87 Q1339.63 1542.64 1334.82 1542.64 Q1331.76 1542.64 1328.87 1543.38 Q1325.97 1544.11 1323.3 1545.57 L1323.3 1540.16 Q1326.51 1538.92 1329.54 1538.31 Q1332.56 1537.68 1335.42 1537.68 Q1343.16 1537.68 1346.98 1541.69 Q1350.8 1545.7 1350.8 1553.85 Z" fill="#000000" fill-rule="nonzero" fill-opacity="1" /><path clip-path="url(#clip490)" d="M1392.49 1552.67 L1392.49 1574.19 L1386.64 1574.19 L1386.64 1552.86 Q1386.64 1547.8 1384.66 1545.29 Q1382.69 1542.77 1378.74 1542.77 Q1374 1542.77 1371.26 1545.79 Q1368.53 1548.82 1368.53 1554.04 L1368.53 1574.19 L1362.64 1574.19 L1362.64 1538.54 L1368.53 1538.54 L1368.53 1544.08 Q1370.63 1540.86 1373.46 1539.27 Q1376.32 1537.68 1380.05 1537.68 Q1386.19 1537.68 1389.34 1541.5 Q1392.49 1545.29 1392.49 1552.67 Z" fill="#000000" fill-rule="nonzero" fill-opacity="1" /><path clip-path="url(#clip490)" d="M1427.63 1543.95 L1427.63 1524.66 L1433.49 1524.66 L1433.49 1574.19 L1427.63 1574.19 L1427.63 1568.84 Q1425.79 1572.02 1422.95 1573.58 Q1420.15 1575.11 1416.21 1575.11 Q1409.74 1575.11 1405.67 1569.95 Q1401.63 1564.8 1401.63 1556.39 Q1401.63 1547.99 1405.67 1542.83 Q1409.74 1537.68 1416.21 1537.68 Q1420.15 1537.68 1422.95 1539.24 Q1425.79 1540.77 1427.63 1543.95 M1407.68 1556.39 Q1407.68 1562.85 1410.32 1566.55 Q1412.99 1570.21 1417.64 1570.21 Q1422.28 1570.21 1424.96 1566.55 Q1427.63 1562.85 1427.63 1556.39 Q1427.63 1549.93 1424.96 1546.27 Q1422.28 1542.58 1417.64 1542.58 Q1412.99 1542.58 1410.32 1546.27 Q1407.68 1549.93 1407.68 1556.39 Z" fill="#000000" fill-rule="nonzero" fill-opacity="1" /><path clip-path="url(#clip490)" d="M1461.75 1556.27 Q1454.65 1556.27 1451.92 1557.89 Q1449.18 1559.51 1449.18 1563.43 Q1449.18 1566.55 1451.22 1568.39 Q1453.29 1570.21 1456.82 1570.21 Q1461.69 1570.21 1464.62 1566.77 Q1467.58 1563.3 1467.58 1557.57 L1467.58 1556.27 L1461.75 1556.27 M1473.43 1553.85 L1473.43 1574.19 L1467.58 1574.19 L1467.58 1568.77 Q1465.57 1572.02 1462.58 1573.58 Q1459.59 1575.11 1455.26 1575.11 Q1449.78 1575.11 1446.54 1572.05 Q1443.32 1568.97 1443.32 1563.81 Q1443.32 1557.79 1447.33 1554.74 Q1451.38 1551.68 1459.36 1551.68 L1467.58 1551.68 L1467.58 1551.11 Q1467.58 1547.07 1464.9 1544.87 Q1462.26 1542.64 1457.46 1542.64 Q1454.4 1542.64 1451.5 1543.38 Q1448.61 1544.11 1445.93 1545.57 L1445.93 1540.16 Q1449.15 1538.92 1452.17 1538.31 Q1455.2 1537.68 1458.06 1537.68 Q1465.79 1537.68 1469.61 1541.69 Q1473.43 1545.7 1473.43 1553.85 Z" fill="#000000" fill-rule="nonzero" fill-opacity="1" /><path clip-path="url(#clip490)" d="M1506.15 1544.01 Q1505.17 1543.44 1503.99 1543.18 Q1502.84 1542.9 1501.44 1542.9 Q1496.48 1542.9 1493.8 1546.14 Q1491.16 1549.36 1491.16 1555.41 L1491.16 1574.19 L1485.27 1574.19 L1485.27 1538.54 L1491.16 1538.54 L1491.16 1544.08 Q1493.01 1540.83 1495.97 1539.27 Q1498.93 1537.68 1503.16 1537.68 Q1503.77 1537.68 1504.5 1537.77 Q1505.23 1537.84 1506.12 1538 L1506.15 1544.01 Z" fill="#000000" fill-rule="nonzero" fill-opacity="1" /><path clip-path="url(#clip490)" d="M1534.61 1543.95 L1534.61 1524.66 L1540.46 1524.66 L1540.46 1574.19 L1534.61 1574.19 L1534.61 1568.84 Q1532.76 1572.02 1529.93 1573.58 Q1527.13 1575.11 1523.18 1575.11 Q1516.72 1575.11 1512.65 1569.95 Q1508.6 1564.8 1508.6 1556.39 Q1508.6 1547.99 1512.65 1542.83 Q1516.72 1537.68 1523.18 1537.68 Q1527.13 1537.68 1529.93 1539.24 Q1532.76 1540.77 1534.61 1543.95 M1514.65 1556.39 Q1514.65 1562.85 1517.29 1566.55 Q1519.97 1570.21 1524.61 1570.21 Q1529.26 1570.21 1531.93 1566.55 Q1534.61 1562.85 1534.61 1556.39 Q1534.61 1549.93 1531.93 1546.27 Q1529.26 1542.58 1524.61 1542.58 Q1519.97 1542.58 1517.29 1546.27 Q1514.65 1549.93 1514.65 1556.39 Z" fill="#000000" fill-rule="nonzero" fill-opacity="1" /><path clip-path="url(#clip490)" d="M1596.71 1543.95 L1596.71 1524.66 L1602.56 1524.66 L1602.56 1574.19 L1596.71 1574.19 L1596.71 1568.84 Q1594.86 1572.02 1592.03 1573.58 Q1589.23 1575.11 1585.28 1575.11 Q1578.82 1575.11 1574.74 1569.95 Q1570.7 1564.8 1570.7 1556.39 Q1570.7 1547.99 1574.74 1542.83 Q1578.82 1537.68 1585.28 1537.68 Q1589.23 1537.68 1592.03 1539.24 Q1594.86 1540.77 1596.71 1543.95 M1576.75 1556.39 Q1576.75 1562.85 1579.39 1566.55 Q1582.06 1570.21 1586.71 1570.21 Q1591.36 1570.21 1594.03 1566.55 Q1596.71 1562.85 1596.71 1556.39 Q1596.71 1549.93 1594.03 1546.27 Q1591.36 1542.58 1586.71 1542.58 Q1582.06 1542.58 1579.39 1546.27 Q1576.75 1549.93 1576.75 1556.39 Z" fill="#000000" fill-rule="nonzero" fill-opacity="1" /><path clip-path="url(#clip490)" d="M1645.12 1554.9 L1645.12 1557.76 L1618.19 1557.76 Q1618.57 1563.81 1621.82 1566.99 Q1625.1 1570.14 1630.92 1570.14 Q1634.29 1570.14 1637.45 1569.32 Q1640.63 1568.49 1643.75 1566.83 L1643.75 1572.37 Q1640.6 1573.71 1637.29 1574.41 Q1633.98 1575.11 1630.57 1575.11 Q1622.04 1575.11 1617.04 1570.14 Q1612.08 1565.18 1612.08 1556.71 Q1612.08 1547.96 1616.79 1542.83 Q1621.53 1537.68 1629.55 1537.68 Q1636.75 1537.68 1640.91 1542.33 Q1645.12 1546.94 1645.12 1554.9 M1639.26 1553.18 Q1639.2 1548.37 1636.55 1545.51 Q1633.94 1542.64 1629.62 1542.64 Q1624.71 1542.64 1621.75 1545.41 Q1618.83 1548.18 1618.38 1553.21 L1639.26 1553.18 Z" fill="#000000" fill-rule="nonzero" fill-opacity="1" /><path clip-path="url(#clip490)" d="M1650.53 1538.54 L1656.73 1538.54 L1667.87 1568.46 L1679.01 1538.54 L1685.22 1538.54 L1671.85 1574.19 L1663.9 1574.19 L1650.53 1538.54 Z" fill="#000000" fill-rule="nonzero" fill-opacity="1" /><path clip-path="url(#clip490)" d="M1693.3 1538.54 L1699.16 1538.54 L1699.16 1574.19 L1693.3 1574.19 L1693.3 1538.54 M1693.3 1524.66 L1699.16 1524.66 L1699.16 1532.08 L1693.3 1532.08 L1693.3 1524.66 Z" fill="#000000" fill-rule="nonzero" fill-opacity="1" /><path clip-path="url(#clip490)" d="M1727.62 1556.27 Q1720.52 1556.27 1717.78 1557.89 Q1715.04 1559.51 1715.04 1563.43 Q1715.04 1566.55 1717.08 1568.39 Q1719.15 1570.21 1722.68 1570.21 Q1727.55 1570.21 1730.48 1566.77 Q1733.44 1563.3 1733.44 1557.57 L1733.44 1556.27 L1727.62 1556.27 M1739.3 1553.85 L1739.3 1574.19 L1733.44 1574.19 L1733.44 1568.77 Q1731.44 1572.02 1728.44 1573.58 Q1725.45 1575.11 1721.12 1575.11 Q1715.65 1575.11 1712.4 1572.05 Q1709.19 1568.97 1709.19 1563.81 Q1709.19 1557.79 1713.2 1554.74 Q1717.24 1551.68 1725.23 1551.68 L1733.44 1551.68 L1733.44 1551.11 Q1733.44 1547.07 1730.77 1544.87 Q1728.13 1542.64 1723.32 1542.64 Q1720.26 1542.64 1717.37 1543.38 Q1714.47 1544.11 1711.8 1545.57 L1711.8 1540.16 Q1715.01 1538.92 1718.04 1538.31 Q1721.06 1537.68 1723.92 1537.68 Q1731.66 1537.68 1735.48 1541.69 Q1739.3 1545.7 1739.3 1553.85 Z" fill="#000000" fill-rule="nonzero" fill-opacity="1" /><path clip-path="url(#clip490)" d="M1757.15 1528.42 L1757.15 1538.54 L1769.22 1538.54 L1769.22 1543.09 L1757.15 1543.09 L1757.15 1562.44 Q1757.15 1566.8 1758.33 1568.04 Q1759.54 1569.28 1763.2 1569.28 L1769.22 1569.28 L1769.22 1574.19 L1763.2 1574.19 Q1756.42 1574.19 1753.84 1571.67 Q1751.26 1569.12 1751.26 1562.44 L1751.26 1543.09 L1746.97 1543.09 L1746.97 1538.54 L1751.26 1538.54 L1751.26 1528.42 L1757.15 1528.42 Z" fill="#000000" fill-rule="nonzero" fill-opacity="1" /><path clip-path="url(#clip490)" d="M1776.92 1538.54 L1782.77 1538.54 L1782.77 1574.19 L1776.92 1574.19 L1776.92 1538.54 M1776.92 1524.66 L1782.77 1524.66 L1782.77 1532.08 L1776.92 1532.08 L1776.92 1524.66 Z" fill="#000000" fill-rule="nonzero" fill-opacity="1" /><path clip-path="url(#clip490)" d="M1808.84 1542.64 Q1804.13 1542.64 1801.39 1546.34 Q1798.66 1550 1798.66 1556.39 Q1798.66 1562.79 1801.36 1566.48 Q1804.1 1570.14 1808.84 1570.14 Q1813.52 1570.14 1816.26 1566.45 Q1819 1562.76 1819 1556.39 Q1819 1550.06 1816.26 1546.37 Q1813.52 1542.64 1808.84 1542.64 M1808.84 1537.68 Q1816.48 1537.68 1820.84 1542.64 Q1825.2 1547.61 1825.2 1556.39 Q1825.2 1565.15 1820.84 1570.14 Q1816.48 1575.11 1808.84 1575.11 Q1801.17 1575.11 1796.81 1570.14 Q1792.48 1565.15 1792.48 1556.39 Q1792.48 1547.61 1796.81 1542.64 Q1801.17 1537.68 1808.84 1537.68 Z" fill="#000000" fill-rule="nonzero" fill-opacity="1" /><path clip-path="url(#clip490)" d="M1864.54 1552.67 L1864.54 1574.19 L1858.69 1574.19 L1858.69 1552.86 Q1858.69 1547.8 1856.71 1545.29 Q1854.74 1542.77 1850.79 1542.77 Q1846.05 1542.77 1843.31 1545.79 Q1840.58 1548.82 1840.58 1554.04 L1840.58 1574.19 L1834.69 1574.19 L1834.69 1538.54 L1840.58 1538.54 L1840.58 1544.08 Q1842.68 1540.86 1845.51 1539.27 Q1848.37 1537.68 1852.1 1537.68 Q1858.24 1537.68 1861.39 1541.5 Q1864.54 1545.29 1864.54 1552.67 Z" fill="#000000" fill-rule="nonzero" fill-opacity="1" /><polyline clip-path="url(#clip490)" style="stroke:#000000; stroke-linecap:round; stroke-linejoin:round; stroke-width:4; stroke-opacity:1; fill:none" points="239.19,1410.9 239.19,123.472 "/>
<polyline clip-path="url(#clip490)" style="stroke:#000000; stroke-linecap:round; stroke-linejoin:round; stroke-width:4; stroke-opacity:1; fill:none" points="239.19,1309.25 258.088,1309.25 "/>
<polyline clip-path="url(#clip490)" style="stroke:#000000; stroke-linecap:round; stroke-linejoin:round; stroke-width:4; stroke-opacity:1; fill:none" points="239.19,1138.73 258.088,1138.73 "/>
<polyline clip-path="url(#clip490)" style="stroke:#000000; stroke-linecap:round; stroke-linejoin:round; stroke-width:4; stroke-opacity:1; fill:none" points="239.19,968.217 258.088,968.217 "/>
<polyline clip-path="url(#clip490)" style="stroke:#000000; stroke-linecap:round; stroke-linejoin:round; stroke-width:4; stroke-opacity:1; fill:none" points="239.19,797.7 258.088,797.7 "/>
<polyline clip-path="url(#clip490)" style="stroke:#000000; stroke-linecap:round; stroke-linejoin:round; stroke-width:4; stroke-opacity:1; fill:none" points="239.19,627.182 258.088,627.182 "/>
<polyline clip-path="url(#clip490)" style="stroke:#000000; stroke-linecap:round; stroke-linejoin:round; stroke-width:4; stroke-opacity:1; fill:none" points="239.19,456.665 258.088,456.665 "/>
<polyline clip-path="url(#clip490)" style="stroke:#000000; stroke-linecap:round; stroke-linejoin:round; stroke-width:4; stroke-opacity:1; fill:none" points="239.19,286.147 258.088,286.147 "/>
<path clip-path="url(#clip490)" d="M50.9921 1309.7 L80.6679 1309.7 L80.6679 1313.64 L50.9921 1313.64 L50.9921 1309.7 Z" fill="#000000" fill-rule="nonzero" fill-opacity="1" /><path clip-path="url(#clip490)" d="M103.608 1296.05 L91.8021 1314.5 L103.608 1314.5 L103.608 1296.05 M102.381 1291.97 L108.26 1291.97 L108.26 1314.5 L113.191 1314.5 L113.191 1318.38 L108.26 1318.38 L108.26 1326.53 L103.608 1326.53 L103.608 1318.38 L88.0058 1318.38 L88.0058 1313.87 L102.381 1291.97 Z" fill="#000000" fill-rule="nonzero" fill-opacity="1" /><path clip-path="url(#clip490)" d="M120.969 1291.97 L139.325 1291.97 L139.325 1295.91 L125.251 1295.91 L125.251 1304.38 Q126.27 1304.03 127.288 1303.87 Q128.307 1303.68 129.325 1303.68 Q135.112 1303.68 138.492 1306.86 Q141.871 1310.03 141.871 1315.44 Q141.871 1321.02 138.399 1324.12 Q134.927 1327.2 128.607 1327.2 Q126.432 1327.2 124.163 1326.83 Q121.918 1326.46 119.51 1325.72 L119.51 1321.02 Q121.594 1322.16 123.816 1322.71 Q126.038 1323.27 128.515 1323.27 Q132.519 1323.27 134.857 1321.16 Q137.195 1319.06 137.195 1315.44 Q137.195 1311.83 134.857 1309.73 Q132.519 1307.62 128.515 1307.62 Q126.64 1307.62 124.765 1308.04 Q122.913 1308.45 120.969 1309.33 L120.969 1291.97 Z" fill="#000000" fill-rule="nonzero" fill-opacity="1" /><path clip-path="url(#clip490)" d="M161.084 1295.05 Q157.473 1295.05 155.644 1298.62 Q153.839 1302.16 153.839 1309.29 Q153.839 1316.39 155.644 1319.96 Q157.473 1323.5 161.084 1323.5 Q164.718 1323.5 166.524 1319.96 Q168.353 1316.39 168.353 1309.29 Q168.353 1302.16 166.524 1298.62 Q164.718 1295.05 161.084 1295.05 M161.084 1291.35 Q166.894 1291.35 169.95 1295.95 Q173.029 1300.54 173.029 1309.29 Q173.029 1318.01 169.95 1322.62 Q166.894 1327.2 161.084 1327.2 Q155.274 1327.2 152.195 1322.62 Q149.14 1318.01 149.14 1309.29 Q149.14 1300.54 152.195 1295.95 Q155.274 1291.35 161.084 1291.35 Z" fill="#000000" fill-rule="nonzero" fill-opacity="1" /><path clip-path="url(#clip490)" d="M191.246 1295.05 Q187.635 1295.05 185.806 1298.62 Q184.001 1302.16 184.001 1309.29 Q184.001 1316.39 185.806 1319.96 Q187.635 1323.5 191.246 1323.5 Q194.88 1323.5 196.686 1319.96 Q198.514 1316.39 198.514 1309.29 Q198.514 1302.16 196.686 1298.62 Q194.88 1295.05 191.246 1295.05 M191.246 1291.35 Q197.056 1291.35 200.112 1295.95 Q203.19 1300.54 203.19 1309.29 Q203.19 1318.01 200.112 1322.62 Q197.056 1327.2 191.246 1327.2 Q185.436 1327.2 182.357 1322.62 Q179.302 1318.01 179.302 1309.29 Q179.302 1300.54 182.357 1295.95 Q185.436 1291.35 191.246 1291.35 Z" fill="#000000" fill-rule="nonzero" fill-opacity="1" /><path clip-path="url(#clip490)" d="M50.9921 1139.19 L80.6679 1139.19 L80.6679 1143.12 L50.9921 1143.12 L50.9921 1139.19 Z" fill="#000000" fill-rule="nonzero" fill-opacity="1" /><path clip-path="url(#clip490)" d="M103.608 1125.53 L91.8021 1143.98 L103.608 1143.98 L103.608 1125.53 M102.381 1121.45 L108.26 1121.45 L108.26 1143.98 L113.191 1143.98 L113.191 1147.87 L108.26 1147.87 L108.26 1156.01 L103.608 1156.01 L103.608 1147.87 L88.0058 1147.87 L88.0058 1143.35 L102.381 1121.45 Z" fill="#000000" fill-rule="nonzero" fill-opacity="1" /><path clip-path="url(#clip490)" d="M130.922 1124.53 Q127.311 1124.53 125.482 1128.1 Q123.677 1131.64 123.677 1138.77 Q123.677 1145.88 125.482 1149.44 Q127.311 1152.98 130.922 1152.98 Q134.556 1152.98 136.362 1149.44 Q138.191 1145.88 138.191 1138.77 Q138.191 1131.64 136.362 1128.1 Q134.556 1124.53 130.922 1124.53 M130.922 1120.83 Q136.732 1120.83 139.788 1125.44 Q142.867 1130.02 142.867 1138.77 Q142.867 1147.5 139.788 1152.1 Q136.732 1156.69 130.922 1156.69 Q125.112 1156.69 122.033 1152.1 Q118.978 1147.5 118.978 1138.77 Q118.978 1130.02 122.033 1125.44 Q125.112 1120.83 130.922 1120.83 Z" fill="#000000" fill-rule="nonzero" fill-opacity="1" /><path clip-path="url(#clip490)" d="M161.084 1124.53 Q157.473 1124.53 155.644 1128.1 Q153.839 1131.64 153.839 1138.77 Q153.839 1145.88 155.644 1149.44 Q157.473 1152.98 161.084 1152.98 Q164.718 1152.98 166.524 1149.44 Q168.353 1145.88 168.353 1138.77 Q168.353 1131.64 166.524 1128.1 Q164.718 1124.53 161.084 1124.53 M161.084 1120.83 Q166.894 1120.83 169.95 1125.44 Q173.029 1130.02 173.029 1138.77 Q173.029 1147.5 169.95 1152.1 Q166.894 1156.69 161.084 1156.69 Q155.274 1156.69 152.195 1152.1 Q149.14 1147.5 149.14 1138.77 Q149.14 1130.02 152.195 1125.44 Q155.274 1120.83 161.084 1120.83 Z" fill="#000000" fill-rule="nonzero" fill-opacity="1" /><path clip-path="url(#clip490)" d="M191.246 1124.53 Q187.635 1124.53 185.806 1128.1 Q184.001 1131.64 184.001 1138.77 Q184.001 1145.88 185.806 1149.44 Q187.635 1152.98 191.246 1152.98 Q194.88 1152.98 196.686 1149.44 Q198.514 1145.88 198.514 1138.77 Q198.514 1131.64 196.686 1128.1 Q194.88 1124.53 191.246 1124.53 M191.246 1120.83 Q197.056 1120.83 200.112 1125.44 Q203.19 1130.02 203.19 1138.77 Q203.19 1147.5 200.112 1152.1 Q197.056 1156.69 191.246 1156.69 Q185.436 1156.69 182.357 1152.1 Q179.302 1147.5 179.302 1138.77 Q179.302 1130.02 182.357 1125.44 Q185.436 1120.83 191.246 1120.83 Z" fill="#000000" fill-rule="nonzero" fill-opacity="1" /><path clip-path="url(#clip490)" d="M50.9921 968.669 L80.6679 968.669 L80.6679 972.604 L50.9921 972.604 L50.9921 968.669 Z" fill="#000000" fill-rule="nonzero" fill-opacity="1" /><path clip-path="url(#clip490)" d="M104.927 966.863 Q108.283 967.581 110.158 969.849 Q112.057 972.118 112.057 975.451 Q112.057 980.567 108.538 983.368 Q105.02 986.168 98.5382 986.168 Q96.3623 986.168 94.0475 985.729 Q91.7558 985.312 89.3021 984.456 L89.3021 979.942 Q91.2465 981.076 93.5613 981.655 Q95.8761 982.233 98.3993 982.233 Q102.797 982.233 105.089 980.497 Q107.404 978.761 107.404 975.451 Q107.404 972.395 105.251 970.682 Q103.121 968.946 99.3021 968.946 L95.2743 968.946 L95.2743 965.104 L99.4872 965.104 Q102.936 965.104 104.765 963.738 Q106.594 962.349 106.594 959.757 Q106.594 957.095 104.696 955.683 Q102.821 954.247 99.3021 954.247 Q97.3808 954.247 95.1817 954.664 Q92.9826 955.081 90.3438 955.96 L90.3438 951.794 Q93.0058 951.053 95.3206 950.683 Q97.6585 950.312 99.7187 950.312 Q105.043 950.312 108.145 952.743 Q111.246 955.15 111.246 959.27 Q111.246 962.141 109.603 964.132 Q107.959 966.099 104.927 966.863 Z" fill="#000000" fill-rule="nonzero" fill-opacity="1" /><path clip-path="url(#clip490)" d="M120.969 950.937 L139.325 950.937 L139.325 954.872 L125.251 954.872 L125.251 963.345 Q126.27 962.997 127.288 962.835 Q128.307 962.65 129.325 962.65 Q135.112 962.65 138.492 965.821 Q141.871 968.993 141.871 974.409 Q141.871 979.988 138.399 983.09 Q134.927 986.168 128.607 986.168 Q126.432 986.168 124.163 985.798 Q121.918 985.428 119.51 984.687 L119.51 979.988 Q121.594 981.122 123.816 981.678 Q126.038 982.233 128.515 982.233 Q132.519 982.233 134.857 980.127 Q137.195 978.02 137.195 974.409 Q137.195 970.798 134.857 968.692 Q132.519 966.585 128.515 966.585 Q126.64 966.585 124.765 967.002 Q122.913 967.419 120.969 968.298 L120.969 950.937 Z" fill="#000000" fill-rule="nonzero" fill-opacity="1" /><path clip-path="url(#clip490)" d="M161.084 954.016 Q157.473 954.016 155.644 957.581 Q153.839 961.122 153.839 968.252 Q153.839 975.358 155.644 978.923 Q157.473 982.465 161.084 982.465 Q164.718 982.465 166.524 978.923 Q168.353 975.358 168.353 968.252 Q168.353 961.122 166.524 957.581 Q164.718 954.016 161.084 954.016 M161.084 950.312 Q166.894 950.312 169.95 954.919 Q173.029 959.502 173.029 968.252 Q173.029 976.979 169.95 981.585 Q166.894 986.168 161.084 986.168 Q155.274 986.168 152.195 981.585 Q149.14 976.979 149.14 968.252 Q149.14 959.502 152.195 954.919 Q155.274 950.312 161.084 950.312 Z" fill="#000000" fill-rule="nonzero" fill-opacity="1" /><path clip-path="url(#clip490)" d="M191.246 954.016 Q187.635 954.016 185.806 957.581 Q184.001 961.122 184.001 968.252 Q184.001 975.358 185.806 978.923 Q187.635 982.465 191.246 982.465 Q194.88 982.465 196.686 978.923 Q198.514 975.358 198.514 968.252 Q198.514 961.122 196.686 957.581 Q194.88 954.016 191.246 954.016 M191.246 950.312 Q197.056 950.312 200.112 954.919 Q203.19 959.502 203.19 968.252 Q203.19 976.979 200.112 981.585 Q197.056 986.168 191.246 986.168 Q185.436 986.168 182.357 981.585 Q179.302 976.979 179.302 968.252 Q179.302 959.502 182.357 954.919 Q185.436 950.312 191.246 950.312 Z" fill="#000000" fill-rule="nonzero" fill-opacity="1" /><path clip-path="url(#clip490)" d="M50.9921 798.151 L80.6679 798.151 L80.6679 802.086 L50.9921 802.086 L50.9921 798.151 Z" fill="#000000" fill-rule="nonzero" fill-opacity="1" /><path clip-path="url(#clip490)" d="M104.927 796.346 Q108.283 797.063 110.158 799.332 Q112.057 801.6 112.057 804.934 Q112.057 810.049 108.538 812.85 Q105.02 815.651 98.5382 815.651 Q96.3623 815.651 94.0475 815.211 Q91.7558 814.795 89.3021 813.938 L89.3021 809.424 Q91.2465 810.558 93.5613 811.137 Q95.8761 811.716 98.3993 811.716 Q102.797 811.716 105.089 809.98 Q107.404 808.244 107.404 804.934 Q107.404 801.878 105.251 800.165 Q103.121 798.429 99.3021 798.429 L95.2743 798.429 L95.2743 794.586 L99.4872 794.586 Q102.936 794.586 104.765 793.221 Q106.594 791.832 106.594 789.239 Q106.594 786.577 104.696 785.165 Q102.821 783.73 99.3021 783.73 Q97.3808 783.73 95.1817 784.147 Q92.9826 784.563 90.3438 785.443 L90.3438 781.276 Q93.0058 780.535 95.3206 780.165 Q97.6585 779.795 99.7187 779.795 Q105.043 779.795 108.145 782.225 Q111.246 784.633 111.246 788.753 Q111.246 791.623 109.603 793.614 Q107.959 795.582 104.927 796.346 Z" fill="#000000" fill-rule="nonzero" fill-opacity="1" /><path clip-path="url(#clip490)" d="M130.922 783.498 Q127.311 783.498 125.482 787.063 Q123.677 790.605 123.677 797.734 Q123.677 804.841 125.482 808.406 Q127.311 811.947 130.922 811.947 Q134.556 811.947 136.362 808.406 Q138.191 804.841 138.191 797.734 Q138.191 790.605 136.362 787.063 Q134.556 783.498 130.922 783.498 M130.922 779.795 Q136.732 779.795 139.788 784.401 Q142.867 788.985 142.867 797.734 Q142.867 806.461 139.788 811.068 Q136.732 815.651 130.922 815.651 Q125.112 815.651 122.033 811.068 Q118.978 806.461 118.978 797.734 Q118.978 788.985 122.033 784.401 Q125.112 779.795 130.922 779.795 Z" fill="#000000" fill-rule="nonzero" fill-opacity="1" /><path clip-path="url(#clip490)" d="M161.084 783.498 Q157.473 783.498 155.644 787.063 Q153.839 790.605 153.839 797.734 Q153.839 804.841 155.644 808.406 Q157.473 811.947 161.084 811.947 Q164.718 811.947 166.524 808.406 Q168.353 804.841 168.353 797.734 Q168.353 790.605 166.524 787.063 Q164.718 783.498 161.084 783.498 M161.084 779.795 Q166.894 779.795 169.95 784.401 Q173.029 788.985 173.029 797.734 Q173.029 806.461 169.95 811.068 Q166.894 815.651 161.084 815.651 Q155.274 815.651 152.195 811.068 Q149.14 806.461 149.14 797.734 Q149.14 788.985 152.195 784.401 Q155.274 779.795 161.084 779.795 Z" fill="#000000" fill-rule="nonzero" fill-opacity="1" /><path clip-path="url(#clip490)" d="M191.246 783.498 Q187.635 783.498 185.806 787.063 Q184.001 790.605 184.001 797.734 Q184.001 804.841 185.806 808.406 Q187.635 811.947 191.246 811.947 Q194.88 811.947 196.686 808.406 Q198.514 804.841 198.514 797.734 Q198.514 790.605 196.686 787.063 Q194.88 783.498 191.246 783.498 M191.246 779.795 Q197.056 779.795 200.112 784.401 Q203.19 788.985 203.19 797.734 Q203.19 806.461 200.112 811.068 Q197.056 815.651 191.246 815.651 Q185.436 815.651 182.357 811.068 Q179.302 806.461 179.302 797.734 Q179.302 788.985 182.357 784.401 Q185.436 779.795 191.246 779.795 Z" fill="#000000" fill-rule="nonzero" fill-opacity="1" /><path clip-path="url(#clip490)" d="M50.9921 627.634 L80.6679 627.634 L80.6679 631.569 L50.9921 631.569 L50.9921 627.634 Z" fill="#000000" fill-rule="nonzero" fill-opacity="1" /><path clip-path="url(#clip490)" d="M94.7882 640.527 L111.108 640.527 L111.108 644.462 L89.1632 644.462 L89.1632 640.527 Q91.8252 637.773 96.4085 633.143 Q101.015 628.49 102.196 627.148 Q104.441 624.624 105.321 622.888 Q106.223 621.129 106.223 619.439 Q106.223 616.685 104.279 614.949 Q102.358 613.213 99.2558 613.213 Q97.0567 613.213 94.603 613.976 Q92.1725 614.74 89.3947 616.291 L89.3947 611.569 Q92.2188 610.435 94.6724 609.856 Q97.1261 609.277 99.1632 609.277 Q104.534 609.277 107.728 611.963 Q110.922 614.648 110.922 619.138 Q110.922 621.268 110.112 623.189 Q109.325 625.087 107.219 627.68 Q106.64 628.351 103.538 631.569 Q100.436 634.763 94.7882 640.527 Z" fill="#000000" fill-rule="nonzero" fill-opacity="1" /><path clip-path="url(#clip490)" d="M120.969 609.902 L139.325 609.902 L139.325 613.837 L125.251 613.837 L125.251 622.31 Q126.27 621.962 127.288 621.8 Q128.307 621.615 129.325 621.615 Q135.112 621.615 138.492 624.787 Q141.871 627.958 141.871 633.374 Q141.871 638.953 138.399 642.055 Q134.927 645.134 128.607 645.134 Q126.432 645.134 124.163 644.763 Q121.918 644.393 119.51 643.652 L119.51 638.953 Q121.594 640.087 123.816 640.643 Q126.038 641.198 128.515 641.198 Q132.519 641.198 134.857 639.092 Q137.195 636.986 137.195 633.374 Q137.195 629.763 134.857 627.657 Q132.519 625.55 128.515 625.55 Q126.64 625.55 124.765 625.967 Q122.913 626.384 120.969 627.263 L120.969 609.902 Z" fill="#000000" fill-rule="nonzero" fill-opacity="1" /><path clip-path="url(#clip490)" d="M161.084 612.981 Q157.473 612.981 155.644 616.546 Q153.839 620.087 153.839 627.217 Q153.839 634.324 155.644 637.888 Q157.473 641.43 161.084 641.43 Q164.718 641.43 166.524 637.888 Q168.353 634.324 168.353 627.217 Q168.353 620.087 166.524 616.546 Q164.718 612.981 161.084 612.981 M161.084 609.277 Q166.894 609.277 169.95 613.884 Q173.029 618.467 173.029 627.217 Q173.029 635.944 169.95 640.55 Q166.894 645.134 161.084 645.134 Q155.274 645.134 152.195 640.55 Q149.14 635.944 149.14 627.217 Q149.14 618.467 152.195 613.884 Q155.274 609.277 161.084 609.277 Z" fill="#000000" fill-rule="nonzero" fill-opacity="1" /><path clip-path="url(#clip490)" d="M191.246 612.981 Q187.635 612.981 185.806 616.546 Q184.001 620.087 184.001 627.217 Q184.001 634.324 185.806 637.888 Q187.635 641.43 191.246 641.43 Q194.88 641.43 196.686 637.888 Q198.514 634.324 198.514 627.217 Q198.514 620.087 196.686 616.546 Q194.88 612.981 191.246 612.981 M191.246 609.277 Q197.056 609.277 200.112 613.884 Q203.19 618.467 203.19 627.217 Q203.19 635.944 200.112 640.55 Q197.056 645.134 191.246 645.134 Q185.436 645.134 182.357 640.55 Q179.302 635.944 179.302 627.217 Q179.302 618.467 182.357 613.884 Q185.436 609.277 191.246 609.277 Z" fill="#000000" fill-rule="nonzero" fill-opacity="1" /><path clip-path="url(#clip490)" d="M50.9921 457.116 L80.6679 457.116 L80.6679 461.051 L50.9921 461.051 L50.9921 457.116 Z" fill="#000000" fill-rule="nonzero" fill-opacity="1" /><path clip-path="url(#clip490)" d="M94.7882 470.01 L111.108 470.01 L111.108 473.945 L89.1632 473.945 L89.1632 470.01 Q91.8252 467.255 96.4085 462.626 Q101.015 457.973 102.196 456.63 Q104.441 454.107 105.321 452.371 Q106.223 450.612 106.223 448.922 Q106.223 446.167 104.279 444.431 Q102.358 442.695 99.2558 442.695 Q97.0567 442.695 94.603 443.459 Q92.1725 444.223 89.3947 445.774 L89.3947 441.052 Q92.2188 439.917 94.6724 439.339 Q97.1261 438.76 99.1632 438.76 Q104.534 438.76 107.728 441.445 Q110.922 444.13 110.922 448.621 Q110.922 450.751 110.112 452.672 Q109.325 454.57 107.219 457.163 Q106.64 457.834 103.538 461.051 Q100.436 464.246 94.7882 470.01 Z" fill="#000000" fill-rule="nonzero" fill-opacity="1" /><path clip-path="url(#clip490)" d="M130.922 442.464 Q127.311 442.464 125.482 446.028 Q123.677 449.57 123.677 456.7 Q123.677 463.806 125.482 467.371 Q127.311 470.913 130.922 470.913 Q134.556 470.913 136.362 467.371 Q138.191 463.806 138.191 456.7 Q138.191 449.57 136.362 446.028 Q134.556 442.464 130.922 442.464 M130.922 438.76 Q136.732 438.76 139.788 443.366 Q142.867 447.95 142.867 456.7 Q142.867 465.426 139.788 470.033 Q136.732 474.616 130.922 474.616 Q125.112 474.616 122.033 470.033 Q118.978 465.426 118.978 456.7 Q118.978 447.95 122.033 443.366 Q125.112 438.76 130.922 438.76 Z" fill="#000000" fill-rule="nonzero" fill-opacity="1" /><path clip-path="url(#clip490)" d="M161.084 442.464 Q157.473 442.464 155.644 446.028 Q153.839 449.57 153.839 456.7 Q153.839 463.806 155.644 467.371 Q157.473 470.913 161.084 470.913 Q164.718 470.913 166.524 467.371 Q168.353 463.806 168.353 456.7 Q168.353 449.57 166.524 446.028 Q164.718 442.464 161.084 442.464 M161.084 438.76 Q166.894 438.76 169.95 443.366 Q173.029 447.95 173.029 456.7 Q173.029 465.426 169.95 470.033 Q166.894 474.616 161.084 474.616 Q155.274 474.616 152.195 470.033 Q149.14 465.426 149.14 456.7 Q149.14 447.95 152.195 443.366 Q155.274 438.76 161.084 438.76 Z" fill="#000000" fill-rule="nonzero" fill-opacity="1" /><path clip-path="url(#clip490)" d="M191.246 442.464 Q187.635 442.464 185.806 446.028 Q184.001 449.57 184.001 456.7 Q184.001 463.806 185.806 467.371 Q187.635 470.913 191.246 470.913 Q194.88 470.913 196.686 467.371 Q198.514 463.806 198.514 456.7 Q198.514 449.57 196.686 446.028 Q194.88 442.464 191.246 442.464 M191.246 438.76 Q197.056 438.76 200.112 443.366 Q203.19 447.95 203.19 456.7 Q203.19 465.426 200.112 470.033 Q197.056 474.616 191.246 474.616 Q185.436 474.616 182.357 470.033 Q179.302 465.426 179.302 456.7 Q179.302 447.95 182.357 443.366 Q185.436 438.76 191.246 438.76 Z" fill="#000000" fill-rule="nonzero" fill-opacity="1" /><path clip-path="url(#clip490)" d="M50.9921 286.599 L80.6679 286.599 L80.6679 290.534 L50.9921 290.534 L50.9921 286.599 Z" fill="#000000" fill-rule="nonzero" fill-opacity="1" /><path clip-path="url(#clip490)" d="M91.5706 299.492 L99.2095 299.492 L99.2095 273.127 L90.8993 274.793 L90.8993 270.534 L99.1632 268.867 L103.839 268.867 L103.839 299.492 L111.478 299.492 L111.478 303.427 L91.5706 303.427 L91.5706 299.492 Z" fill="#000000" fill-rule="nonzero" fill-opacity="1" /><path clip-path="url(#clip490)" d="M120.969 268.867 L139.325 268.867 L139.325 272.803 L125.251 272.803 L125.251 281.275 Q126.27 280.928 127.288 280.766 Q128.307 280.58 129.325 280.58 Q135.112 280.58 138.492 283.752 Q141.871 286.923 141.871 292.34 Q141.871 297.918 138.399 301.02 Q134.927 304.099 128.607 304.099 Q126.432 304.099 124.163 303.728 Q121.918 303.358 119.51 302.617 L119.51 297.918 Q121.594 299.053 123.816 299.608 Q126.038 300.164 128.515 300.164 Q132.519 300.164 134.857 298.057 Q137.195 295.951 137.195 292.34 Q137.195 288.729 134.857 286.622 Q132.519 284.516 128.515 284.516 Q126.64 284.516 124.765 284.932 Q122.913 285.349 120.969 286.229 L120.969 268.867 Z" fill="#000000" fill-rule="nonzero" fill-opacity="1" /><path clip-path="url(#clip490)" d="M161.084 271.946 Q157.473 271.946 155.644 275.511 Q153.839 279.053 153.839 286.182 Q153.839 293.289 155.644 296.853 Q157.473 300.395 161.084 300.395 Q164.718 300.395 166.524 296.853 Q168.353 293.289 168.353 286.182 Q168.353 279.053 166.524 275.511 Q164.718 271.946 161.084 271.946 M161.084 268.243 Q166.894 268.243 169.95 272.849 Q173.029 277.432 173.029 286.182 Q173.029 294.909 169.95 299.515 Q166.894 304.099 161.084 304.099 Q155.274 304.099 152.195 299.515 Q149.14 294.909 149.14 286.182 Q149.14 277.432 152.195 272.849 Q155.274 268.243 161.084 268.243 Z" fill="#000000" fill-rule="nonzero" fill-opacity="1" /><path clip-path="url(#clip490)" d="M191.246 271.946 Q187.635 271.946 185.806 275.511 Q184.001 279.053 184.001 286.182 Q184.001 293.289 185.806 296.853 Q187.635 300.395 191.246 300.395 Q194.88 300.395 196.686 296.853 Q198.514 293.289 198.514 286.182 Q198.514 279.053 196.686 275.511 Q194.88 271.946 191.246 271.946 M191.246 268.243 Q197.056 268.243 200.112 272.849 Q203.19 277.432 203.19 286.182 Q203.19 294.909 200.112 299.515 Q197.056 304.099 191.246 304.099 Q185.436 304.099 182.357 299.515 Q179.302 294.909 179.302 286.182 Q179.302 277.432 182.357 272.849 Q185.436 268.243 191.246 268.243 Z" fill="#000000" fill-rule="nonzero" fill-opacity="1" /><path clip-path="url(#clip490)" d="M1017.21 12.096 L1025.39 12.096 L1025.39 65.6895 L1054.84 65.6895 L1054.84 72.576 L1017.21 72.576 L1017.21 12.096 Z" fill="#000000" fill-rule="nonzero" fill-opacity="1" /><path clip-path="url(#clip490)" d="M1079.23 32.4315 Q1073.23 32.4315 1069.75 37.1306 Q1066.27 41.7891 1066.27 49.9314 Q1066.27 58.0738 1069.71 62.7728 Q1073.19 67.4314 1079.23 67.4314 Q1085.18 67.4314 1088.67 62.7323 Q1092.15 58.0333 1092.15 49.9314 Q1092.15 41.8701 1088.67 37.1711 Q1085.18 32.4315 1079.23 32.4315 M1079.23 26.1121 Q1088.95 26.1121 1094.5 32.4315 Q1100.05 38.7509 1100.05 49.9314 Q1100.05 61.0714 1094.5 67.4314 Q1088.95 73.7508 1079.23 73.7508 Q1069.47 73.7508 1063.92 67.4314 Q1058.41 61.0714 1058.41 49.9314 Q1058.41 38.7509 1063.92 32.4315 Q1069.47 26.1121 1079.23 26.1121 Z" fill="#000000" fill-rule="nonzero" fill-opacity="1" /><path clip-path="url(#clip490)" d="M1142.26 49.3643 Q1142.26 41.2625 1138.9 36.8065 Q1135.58 32.3505 1129.54 32.3505 Q1123.55 32.3505 1120.18 36.8065 Q1116.86 41.2625 1116.86 49.3643 Q1116.86 57.4256 1120.18 61.8816 Q1123.55 66.3376 1129.54 66.3376 Q1135.58 66.3376 1138.9 61.8816 Q1142.26 57.4256 1142.26 49.3643 M1149.72 66.9452 Q1149.72 78.5308 1144.57 84.1616 Q1139.43 89.8329 1128.81 89.8329 Q1124.88 89.8329 1121.4 89.2252 Q1117.92 88.6581 1114.63 87.4428 L1114.63 80.1917 Q1117.92 81.9741 1121.12 82.8248 Q1124.32 83.6755 1127.64 83.6755 Q1134.97 83.6755 1138.62 79.8271 Q1142.26 76.0193 1142.26 68.282 L1142.26 64.5957 Q1139.95 68.6061 1136.35 70.5911 Q1132.74 72.576 1127.72 72.576 Q1119.37 72.576 1114.27 66.2161 Q1109.17 59.8562 1109.17 49.3643 Q1109.17 38.832 1114.27 32.472 Q1119.37 26.1121 1127.72 26.1121 Q1132.74 26.1121 1136.35 28.0971 Q1139.95 30.082 1142.26 34.0924 L1142.26 27.2059 L1149.72 27.2059 L1149.72 66.9452 Z" fill="#000000" fill-rule="nonzero" fill-opacity="1" /><path clip-path="url(#clip490)" d="M1161.3 46.5287 L1183.14 46.5287 L1183.14 53.1722 L1161.3 53.1722 L1161.3 46.5287 Z" fill="#000000" fill-rule="nonzero" fill-opacity="1" /><path clip-path="url(#clip490)" d="M1195 9.54393 L1202.46 9.54393 L1202.46 72.576 L1195 72.576 L1195 9.54393 Z" fill="#000000" fill-rule="nonzero" fill-opacity="1" /><path clip-path="url(#clip490)" d="M1218.05 27.2059 L1225.51 27.2059 L1225.51 72.576 L1218.05 72.576 L1218.05 27.2059 M1218.05 9.54393 L1225.51 9.54393 L1225.51 18.9825 L1218.05 18.9825 L1218.05 9.54393 Z" fill="#000000" fill-rule="nonzero" fill-opacity="1" /><path clip-path="url(#clip490)" d="M1240.82 9.54393 L1248.31 9.54393 L1248.31 46.7717 L1270.55 27.2059 L1280.07 27.2059 L1256.01 48.4326 L1281.09 72.576 L1271.36 72.576 L1248.31 50.4176 L1248.31 72.576 L1240.82 72.576 L1240.82 9.54393 Z" fill="#000000" fill-rule="nonzero" fill-opacity="1" /><path clip-path="url(#clip490)" d="M1325 48.0275 L1325 51.6733 L1290.73 51.6733 Q1291.21 59.3701 1295.35 63.421 Q1299.52 67.4314 1306.93 67.4314 Q1311.22 67.4314 1315.24 66.3781 Q1319.29 65.3249 1323.26 63.2184 L1323.26 70.267 Q1319.25 71.9684 1315.03 72.8596 Q1310.82 73.7508 1306.49 73.7508 Q1295.63 73.7508 1289.27 67.4314 Q1282.95 61.1119 1282.95 50.3365 Q1282.95 39.1965 1288.94 32.6746 Q1294.98 26.1121 1305.19 26.1121 Q1314.34 26.1121 1319.65 32.0264 Q1325 37.9003 1325 48.0275 M1317.54 45.84 Q1317.46 39.7232 1314.1 36.0774 Q1310.78 32.4315 1305.27 32.4315 Q1299.03 32.4315 1295.26 35.9558 Q1291.54 39.4801 1290.97 45.8805 L1317.54 45.84 Z" fill="#000000" fill-rule="nonzero" fill-opacity="1" /><path clip-path="url(#clip490)" d="M1337.23 9.54393 L1344.69 9.54393 L1344.69 72.576 L1337.23 72.576 L1337.23 9.54393 Z" fill="#000000" fill-rule="nonzero" fill-opacity="1" /><path clip-path="url(#clip490)" d="M1360.28 27.2059 L1367.73 27.2059 L1367.73 72.576 L1360.28 72.576 L1360.28 27.2059 M1360.28 9.54393 L1367.73 9.54393 L1367.73 18.9825 L1360.28 18.9825 L1360.28 9.54393 Z" fill="#000000" fill-rule="nonzero" fill-opacity="1" /><path clip-path="url(#clip490)" d="M1421.04 45.1919 L1421.04 72.576 L1413.59 72.576 L1413.59 45.4349 Q1413.59 38.994 1411.08 35.7938 Q1408.57 32.5936 1403.54 32.5936 Q1397.51 32.5936 1394.03 36.4419 Q1390.54 40.2903 1390.54 46.9338 L1390.54 72.576 L1383.05 72.576 L1383.05 9.54393 L1390.54 9.54393 L1390.54 34.2544 Q1393.22 30.163 1396.82 28.1376 Q1400.47 26.1121 1405.21 26.1121 Q1413.02 26.1121 1417.03 30.9732 Q1421.04 35.7938 1421.04 45.1919 Z" fill="#000000" fill-rule="nonzero" fill-opacity="1" /><path clip-path="url(#clip490)" d="M1453.49 32.4315 Q1447.5 32.4315 1444.01 37.1306 Q1440.53 41.7891 1440.53 49.9314 Q1440.53 58.0738 1443.97 62.7728 Q1447.46 67.4314 1453.49 67.4314 Q1459.45 67.4314 1462.93 62.7323 Q1466.41 58.0333 1466.41 49.9314 Q1466.41 41.8701 1462.93 37.1711 Q1459.45 32.4315 1453.49 32.4315 M1453.49 26.1121 Q1463.21 26.1121 1468.76 32.4315 Q1474.31 38.7509 1474.31 49.9314 Q1474.31 61.0714 1468.76 67.4314 Q1463.21 73.7508 1453.49 73.7508 Q1443.73 73.7508 1438.18 67.4314 Q1432.67 61.0714 1432.67 49.9314 Q1432.67 38.7509 1438.18 32.4315 Q1443.73 26.1121 1453.49 26.1121 Z" fill="#000000" fill-rule="nonzero" fill-opacity="1" /><path clip-path="url(#clip490)" d="M1504.25 32.4315 Q1498.26 32.4315 1494.77 37.1306 Q1491.29 41.7891 1491.29 49.9314 Q1491.29 58.0738 1494.73 62.7728 Q1498.21 67.4314 1504.25 67.4314 Q1510.21 67.4314 1513.69 62.7323 Q1517.17 58.0333 1517.17 49.9314 Q1517.17 41.8701 1513.69 37.1711 Q1510.21 32.4315 1504.25 32.4315 M1504.25 26.1121 Q1513.97 26.1121 1519.52 32.4315 Q1525.07 38.7509 1525.07 49.9314 Q1525.07 61.0714 1519.52 67.4314 Q1513.97 73.7508 1504.25 73.7508 Q1494.49 73.7508 1488.94 67.4314 Q1483.43 61.0714 1483.43 49.9314 Q1483.43 38.7509 1488.94 32.4315 Q1494.49 26.1121 1504.25 26.1121 Z" fill="#000000" fill-rule="nonzero" fill-opacity="1" /><path clip-path="url(#clip490)" d="M1567.28 34.0924 L1567.28 9.54393 L1574.74 9.54393 L1574.74 72.576 L1567.28 72.576 L1567.28 65.7705 Q1564.93 69.8214 1561.33 71.8063 Q1557.76 73.7508 1552.74 73.7508 Q1544.52 73.7508 1539.33 67.1883 Q1534.19 60.6258 1534.19 49.9314 Q1534.19 39.2371 1539.33 32.6746 Q1544.52 26.1121 1552.74 26.1121 Q1557.76 26.1121 1561.33 28.0971 Q1564.93 30.0415 1567.28 34.0924 M1541.88 49.9314 Q1541.88 58.1548 1545.25 62.8538 Q1548.65 67.5124 1554.56 67.5124 Q1560.48 67.5124 1563.88 62.8538 Q1567.28 58.1548 1567.28 49.9314 Q1567.28 41.7081 1563.88 37.0496 Q1560.48 32.3505 1554.56 32.3505 Q1548.65 32.3505 1545.25 37.0496 Q1541.88 41.7081 1541.88 49.9314 Z" fill="#000000" fill-rule="nonzero" fill-opacity="1" /><polyline clip-path="url(#clip491)" style="stroke:#009af9; stroke-linecap:round; stroke-linejoin:round; stroke-width:4; stroke-opacity:1; fill:none" points="299.008,1374.46 332.804,1147.11 366.599,831.988 400.395,624.481 434.19,515.365 467.985,451.687 501.781,411.748 535.576,359.584 569.372,330.16 603.167,279.525 636.962,270.566 670.758,237.466 704.553,231.834 738.349,213.454 772.144,204.743 805.94,195.95 839.735,183.921 873.53,179.663 907.326,173.488 941.121,170.302 974.917,167.966 1008.71,162.862 1042.51,161.997 1076.3,159.909 1110.1,160.971 1143.89,161.235 1177.69,162.896 1211.48,164.17 1245.28,167.624 1279.08,169.885 1312.87,174.899 1346.67,179.604 1380.46,185.914 1414.26,191.887 1448.05,199.938 1481.85,206.803 1515.64,216.643 1549.44,225.358 1583.23,237.192 1617.03,245.774 1650.83,257.486 1684.62,268.955 1718.42,281.002 1752.21,294.218 1786.01,307.013 1819.8,320.474 1853.6,333.262 1887.39,347.678 1921.19,362.941 1954.98,377.921 1988.78,392.507 2022.57,406.514 2056.37,420.737 2090.17,436.784 2123.96,453.002 2157.76,467.982 2191.55,483.022 2225.35,499.359 2259.14,514.963 2292.94,532.635 "/>
<polyline clip-path="url(#clip491)" style="stroke:#008000; stroke-linecap:round; stroke-linejoin:round; stroke-width:4; stroke-opacity:1; fill:none" points="299.008,1267.47 332.804,795.901 366.599,737.606 400.395,521.445 434.19,471.55 467.985,413.281 501.781,379.095 535.576,326.61 569.372,319.813 603.167,278.832 636.962,263.637 670.758,244.908 704.553,228.777 738.349,215.834 772.144,211.051 805.94,197.986 839.735,192.338 873.53,178.41 907.326,176.922 941.121,171.371 974.917,168.221 1008.71,164.125 1042.51,161.382 1076.3,161.83 1110.1,161.313 1143.89,160.827 1177.69,162.54 1211.48,163.743 1245.28,166.842 1279.08,170.263 1312.87,174.489 1346.67,178.949 1380.46,184.949 1414.26,191.672 1448.05,199.079 1481.85,206.93 1515.64,215.641 1549.44,224.946 1583.23,234.925 1617.03,245.683 1650.83,257.339 1684.62,268.963 1718.42,280.192 1752.21,292.679 1786.01,307.46 1819.8,321.339 1853.6,334.757 1887.39,347.858 1921.19,362.106 1954.98,376.838 1988.78,393.948 2022.57,407.242 2056.37,422.609 2090.17,438.662 2123.96,454.48 2157.76,470.388 2191.55,485.151 2225.35,505.009 2259.14,516.14 2292.94,534.936 "/>
<polyline clip-path="url(#clip491)" style="stroke:#0000ff; stroke-linecap:round; stroke-linejoin:round; stroke-width:4; stroke-opacity:1; fill:none" stroke-dasharray="16, 10" points="1076.3,2698.32 1076.3,-1163.95 "/>
<path clip-path="url(#clip490)" d="M1903.54 321.906 L2282.3 321.906 L2282.3 166.386 L1903.54 166.386  Z" fill="#ffffff" fill-rule="evenodd" fill-opacity="1"/>
<polyline clip-path="url(#clip490)" style="stroke:#000000; stroke-linecap:round; stroke-linejoin:round; stroke-width:4; stroke-opacity:1; fill:none" points="1903.54,321.906 2282.3,321.906 2282.3,166.386 1903.54,166.386 1903.54,321.906 "/>
<polyline clip-path="url(#clip490)" style="stroke:#009af9; stroke-linecap:round; stroke-linejoin:round; stroke-width:4; stroke-opacity:1; fill:none" points="1927.02,218.226 2067.93,218.226 "/>
<path clip-path="url(#clip490)" d="M2096.09 204.789 L2096.09 217.775 L2101.97 217.775 Q2105.23 217.775 2107.01 216.085 Q2108.8 214.395 2108.8 211.27 Q2108.8 208.168 2107.01 206.479 Q2105.23 204.789 2101.97 204.789 L2096.09 204.789 M2091.41 200.946 L2101.97 200.946 Q2107.78 200.946 2110.74 203.585 Q2113.73 206.201 2113.73 211.27 Q2113.73 216.386 2110.74 219.002 Q2107.78 221.617 2101.97 221.617 L2096.09 221.617 L2096.09 235.506 L2091.41 235.506 L2091.41 200.946 Z" fill="#000000" fill-rule="nonzero" fill-opacity="1" /><path clip-path="url(#clip490)" d="M2120 200.946 L2139.86 200.946 L2139.86 204.881 L2124.68 204.881 L2124.68 215.067 L2138.38 215.067 L2138.38 219.002 L2124.68 219.002 L2124.68 235.506 L2120 235.506 L2120 200.946 Z" fill="#000000" fill-rule="nonzero" fill-opacity="1" /><polyline clip-path="url(#clip490)" style="stroke:#008000; stroke-linecap:round; stroke-linejoin:round; stroke-width:4; stroke-opacity:1; fill:none" points="1927.02,270.066 2067.93,270.066 "/>
<path clip-path="url(#clip490)" d="M2107.25 257.393 L2100.9 274.592 L2113.61 274.592 L2107.25 257.393 M2104.61 252.786 L2109.91 252.786 L2123.08 287.346 L2118.22 287.346 L2115.07 278.481 L2099.49 278.481 L2096.34 287.346 L2091.41 287.346 L2104.61 252.786 Z" fill="#000000" fill-rule="nonzero" fill-opacity="1" /><path clip-path="url(#clip490)" d="M2127.59 252.786 L2132.29 252.786 L2132.29 273.782 Q2132.29 279.337 2134.31 281.791 Q2136.32 284.221 2140.83 284.221 Q2145.32 284.221 2147.34 281.791 Q2149.35 279.337 2149.35 273.782 L2149.35 252.786 L2154.05 252.786 L2154.05 274.36 Q2154.05 281.119 2150.7 284.569 Q2147.36 288.018 2140.83 288.018 Q2134.28 288.018 2130.93 284.569 Q2127.59 281.119 2127.59 274.36 L2127.59 252.786 Z" fill="#000000" fill-rule="nonzero" fill-opacity="1" /><path clip-path="url(#clip490)" d="M2161.16 252.786 L2166.18 252.786 L2174.77 265.633 L2183.4 252.786 L2188.43 252.786 L2177.32 269.383 L2189.17 287.346 L2184.14 287.346 L2174.42 272.647 L2164.63 287.346 L2159.58 287.346 L2171.92 268.897 L2161.16 252.786 Z" fill="#000000" fill-rule="nonzero" fill-opacity="1" /><path clip-path="url(#clip490)" d="M2215.05 256.629 L2215.05 269.615 L2220.93 269.615 Q2224.19 269.615 2225.97 267.925 Q2227.76 266.235 2227.76 263.11 Q2227.76 260.008 2225.97 258.319 Q2224.19 256.629 2220.93 256.629 L2215.05 256.629 M2210.37 252.786 L2220.93 252.786 Q2226.74 252.786 2229.7 255.425 Q2232.69 258.041 2232.69 263.11 Q2232.69 268.226 2229.7 270.842 Q2226.74 273.457 2220.93 273.457 L2215.05 273.457 L2215.05 287.346 L2210.37 287.346 L2210.37 252.786 Z" fill="#000000" fill-rule="nonzero" fill-opacity="1" /><path clip-path="url(#clip490)" d="M2238.96 252.786 L2258.82 252.786 L2258.82 256.721 L2243.63 256.721 L2243.63 266.907 L2257.34 266.907 L2257.34 270.842 L2243.63 270.842 L2243.63 287.346 L2238.96 287.346 L2238.96 252.786 Z" fill="#000000" fill-rule="nonzero" fill-opacity="1" /></svg>
