<?xml version="1.0" encoding="utf-8"?>
<svg xmlns="http://www.w3.org/2000/svg" xmlns:xlink="http://www.w3.org/1999/xlink" width="600" height="400" viewBox="0 0 2400 1600">
<defs>
  <clipPath id="clip290">
    <rect x="0" y="0" width="2400" height="1600"/>
  </clipPath>
</defs>
<path clip-path="url(#clip290)" d="M0 1600 L2400 1600 L2400 0 L0 0  Z" fill="#ffffff" fill-rule="evenodd" fill-opacity="1"/>
<defs>
  <clipPath id="clip291">
    <rect x="480" y="0" width="1681" height="1600"/>
  </clipPath>
</defs>
<path clip-path="url(#clip290)" d="M186.274 1486.45 L2352.76 1486.45 L2352.76 123.472 L186.274 123.472  Z" fill="#ffffff" fill-rule="evenodd" fill-opacity="1"/>
<defs>
  <clipPath id="clip292">
    <rect x="186" y="123" width="2167" height="1364"/>
  </clipPath>
</defs>
<polyline clip-path="url(#clip292)" style="stroke:#000000; stroke-linecap:round; stroke-linejoin:round; stroke-width:2; stroke-opacity:0.1; fill:none" points="244.593,1486.45 244.593,123.472 "/>
<polyline clip-path="url(#clip292)" style="stroke:#000000; stroke-linecap:round; stroke-linejoin:round; stroke-width:2; stroke-opacity:0.1; fill:none" points="843.962,1486.45 843.962,123.472 "/>
<polyline clip-path="url(#clip292)" style="stroke:#000000; stroke-linecap:round; stroke-linejoin:round; stroke-width:2; stroke-opacity:0.1; fill:none" points="1443.33,1486.45 1443.33,123.472 "/>
<polyline clip-path="url(#clip292)" style="stroke:#000000; stroke-linecap:round; stroke-linejoin:round; stroke-width:2; stroke-opacity:0.1; fill:none" points="2042.7,1486.45 2042.7,123.472 "/>
<polyline clip-path="url(#clip292)" style="stroke:#000000; stroke-linecap:round; stroke-linejoin:round; stroke-width:2; stroke-opacity:0.1; fill:none" points="186.274,1447.95 2352.76,1447.95 "/>
<polyline clip-path="url(#clip292)" style="stroke:#000000; stroke-linecap:round; stroke-linejoin:round; stroke-width:2; stroke-opacity:0.1; fill:none" points="186.274,1126.45 2352.76,1126.45 "/>
<polyline clip-path="url(#clip292)" style="stroke:#000000; stroke-linecap:round; stroke-linejoin:round; stroke-width:2; stroke-opacity:0.1; fill:none" points="186.274,804.96 2352.76,804.96 "/>
<polyline clip-path="url(#clip292)" style="stroke:#000000; stroke-linecap:round; stroke-linejoin:round; stroke-width:2; stroke-opacity:0.1; fill:none" points="186.274,483.467 2352.76,483.467 "/>
<polyline clip-path="url(#clip292)" style="stroke:#000000; stroke-linecap:round; stroke-linejoin:round; stroke-width:2; stroke-opacity:0.1; fill:none" points="186.274,161.974 2352.76,161.974 "/>
<polyline clip-path="url(#clip290)" style="stroke:#000000; stroke-linecap:round; stroke-linejoin:round; stroke-width:4; stroke-opacity:1; fill:none" points="186.274,1486.45 2352.76,1486.45 "/>
<polyline clip-path="url(#clip290)" style="stroke:#000000; stroke-linecap:round; stroke-linejoin:round; stroke-width:4; stroke-opacity:1; fill:none" points="244.593,1486.45 244.593,1467.55 "/>
<polyline clip-path="url(#clip290)" style="stroke:#000000; stroke-linecap:round; stroke-linejoin:round; stroke-width:4; stroke-opacity:1; fill:none" points="843.962,1486.45 843.962,1467.55 "/>
<polyline clip-path="url(#clip290)" style="stroke:#000000; stroke-linecap:round; stroke-linejoin:round; stroke-width:4; stroke-opacity:1; fill:none" points="1443.33,1486.45 1443.33,1467.55 "/>
<polyline clip-path="url(#clip290)" style="stroke:#000000; stroke-linecap:round; stroke-linejoin:round; stroke-width:4; stroke-opacity:1; fill:none" points="2042.7,1486.45 2042.7,1467.55 "/>
<path clip-path="url(#clip290)" d="M244.593 1517.37 Q240.982 1517.37 239.153 1520.93 Q237.347 1524.47 237.347 1531.6 Q237.347 1538.71 239.153 1542.27 Q240.982 1545.82 244.593 1545.82 Q248.227 1545.82 250.032 1542.27 Q251.861 1538.71 251.861 1531.6 Q251.861 1524.47 250.032 1520.93 Q248.227 1517.37 244.593 1517.37 M244.593 1513.66 Q250.403 1513.66 253.458 1518.27 Q256.537 1522.85 256.537 1531.6 Q256.537 1540.33 253.458 1544.94 Q250.403 1549.52 244.593 1549.52 Q238.783 1549.52 235.704 1544.94 Q232.648 1540.33 232.648 1531.6 Q232.648 1522.85 235.704 1518.27 Q238.783 1513.66 244.593 1513.66 Z" fill="#000000" fill-rule="nonzero" fill-opacity="1" /><path clip-path="url(#clip290)" d="M807.655 1544.91 L823.974 1544.91 L823.974 1548.85 L802.03 1548.85 L802.03 1544.91 Q804.692 1542.16 809.275 1537.53 Q813.882 1532.88 815.062 1531.53 Q817.307 1529.01 818.187 1527.27 Q819.09 1525.51 819.09 1523.82 Q819.09 1521.07 817.145 1519.33 Q815.224 1517.6 812.122 1517.6 Q809.923 1517.6 807.47 1518.36 Q805.039 1519.13 802.261 1520.68 L802.261 1515.95 Q805.085 1514.82 807.539 1514.24 Q809.993 1513.66 812.03 1513.66 Q817.4 1513.66 820.594 1516.35 Q823.789 1519.03 823.789 1523.52 Q823.789 1525.65 822.979 1527.57 Q822.192 1529.47 820.085 1532.07 Q819.507 1532.74 816.405 1535.95 Q813.303 1539.15 807.655 1544.91 Z" fill="#000000" fill-rule="nonzero" fill-opacity="1" /><path clip-path="url(#clip290)" d="M843.789 1517.37 Q840.178 1517.37 838.349 1520.93 Q836.543 1524.47 836.543 1531.6 Q836.543 1538.71 838.349 1542.27 Q840.178 1545.82 843.789 1545.82 Q847.423 1545.82 849.229 1542.27 Q851.057 1538.71 851.057 1531.6 Q851.057 1524.47 849.229 1520.93 Q847.423 1517.37 843.789 1517.37 M843.789 1513.66 Q849.599 1513.66 852.655 1518.27 Q855.733 1522.85 855.733 1531.6 Q855.733 1540.33 852.655 1544.94 Q849.599 1549.52 843.789 1549.52 Q837.979 1549.52 834.9 1544.94 Q831.844 1540.33 831.844 1531.6 Q831.844 1522.85 834.9 1518.27 Q837.979 1513.66 843.789 1513.66 Z" fill="#000000" fill-rule="nonzero" fill-opacity="1" /><path clip-path="url(#clip290)" d="M873.951 1517.37 Q870.34 1517.37 868.511 1520.93 Q866.705 1524.47 866.705 1531.6 Q866.705 1538.71 868.511 1542.27 Q870.34 1545.82 873.951 1545.82 Q877.585 1545.82 879.39 1542.27 Q881.219 1538.71 881.219 1531.6 Q881.219 1524.47 879.39 1520.93 Q877.585 1517.37 873.951 1517.37 M873.951 1513.66 Q879.761 1513.66 882.816 1518.27 Q885.895 1522.85 885.895 1531.6 Q885.895 1540.33 882.816 1544.94 Q879.761 1549.52 873.951 1549.52 Q868.141 1549.52 865.062 1544.94 Q862.006 1540.33 862.006 1531.6 Q862.006 1522.85 865.062 1518.27 Q868.141 1513.66 873.951 1513.66 Z" fill="#000000" fill-rule="nonzero" fill-opacity="1" /><path clip-path="url(#clip290)" d="M1416.42 1518.36 L1404.62 1536.81 L1416.42 1536.81 L1416.42 1518.36 M1415.2 1514.29 L1421.08 1514.29 L1421.08 1536.81 L1426.01 1536.81 L1426.01 1540.7 L1421.08 1540.7 L1421.08 1548.85 L1416.42 1548.85 L1416.42 1540.7 L1400.82 1540.7 L1400.82 1536.19 L1415.2 1514.29 Z" fill="#000000" fill-rule="nonzero" fill-opacity="1" /><path clip-path="url(#clip290)" d="M1443.74 1517.37 Q1440.13 1517.37 1438.3 1520.93 Q1436.49 1524.47 1436.49 1531.6 Q1436.49 1538.71 1438.3 1542.27 Q1440.13 1545.82 1443.74 1545.82 Q1447.37 1545.82 1449.18 1542.27 Q1451.01 1538.71 1451.01 1531.6 Q1451.01 1524.47 1449.18 1520.93 Q1447.37 1517.37 1443.74 1517.37 M1443.74 1513.66 Q1449.55 1513.66 1452.6 1518.27 Q1455.68 1522.85 1455.68 1531.6 Q1455.68 1540.33 1452.6 1544.94 Q1449.55 1549.52 1443.74 1549.52 Q1437.93 1549.52 1434.85 1544.94 Q1431.79 1540.33 1431.79 1531.6 Q1431.79 1522.85 1434.85 1518.27 Q1437.93 1513.66 1443.74 1513.66 Z" fill="#000000" fill-rule="nonzero" fill-opacity="1" /><path clip-path="url(#clip290)" d="M1473.9 1517.37 Q1470.29 1517.37 1468.46 1520.93 Q1466.65 1524.47 1466.65 1531.6 Q1466.65 1538.71 1468.46 1542.27 Q1470.29 1545.82 1473.9 1545.82 Q1477.53 1545.82 1479.34 1542.27 Q1481.17 1538.71 1481.17 1531.6 Q1481.17 1524.47 1479.34 1520.93 Q1477.53 1517.37 1473.9 1517.37 M1473.9 1513.66 Q1479.71 1513.66 1482.76 1518.27 Q1485.84 1522.85 1485.84 1531.6 Q1485.84 1540.33 1482.76 1544.94 Q1479.71 1549.52 1473.9 1549.52 Q1468.09 1549.52 1465.01 1544.94 Q1461.95 1540.33 1461.95 1531.6 Q1461.95 1522.85 1465.01 1518.27 Q1468.09 1513.66 1473.9 1513.66 Z" fill="#000000" fill-rule="nonzero" fill-opacity="1" /><path clip-path="url(#clip290)" d="M2013.03 1529.7 Q2009.88 1529.7 2008.03 1531.86 Q2006.2 1534.01 2006.2 1537.76 Q2006.2 1541.49 2008.03 1543.66 Q2009.88 1545.82 2013.03 1545.82 Q2016.17 1545.82 2018 1543.66 Q2019.85 1541.49 2019.85 1537.76 Q2019.85 1534.01 2018 1531.86 Q2016.17 1529.7 2013.03 1529.7 M2022.31 1515.05 L2022.31 1519.31 Q2020.55 1518.48 2018.74 1518.04 Q2016.96 1517.6 2015.2 1517.6 Q2010.57 1517.6 2008.12 1520.72 Q2005.69 1523.85 2005.34 1530.17 Q2006.71 1528.15 2008.77 1527.09 Q2010.83 1526 2013.3 1526 Q2018.51 1526 2021.52 1529.17 Q2024.55 1532.32 2024.55 1537.76 Q2024.55 1543.08 2021.41 1546.3 Q2018.26 1549.52 2013.03 1549.52 Q2007.03 1549.52 2003.86 1544.94 Q2000.69 1540.33 2000.69 1531.6 Q2000.69 1523.41 2004.58 1518.55 Q2008.47 1513.66 2015.02 1513.66 Q2016.78 1513.66 2018.56 1514.01 Q2020.36 1514.36 2022.31 1515.05 Z" fill="#000000" fill-rule="nonzero" fill-opacity="1" /><path clip-path="url(#clip290)" d="M2042.61 1517.37 Q2039 1517.37 2037.17 1520.93 Q2035.36 1524.47 2035.36 1531.6 Q2035.36 1538.71 2037.17 1542.27 Q2039 1545.82 2042.61 1545.82 Q2046.24 1545.82 2048.05 1542.27 Q2049.88 1538.71 2049.88 1531.6 Q2049.88 1524.47 2048.05 1520.93 Q2046.24 1517.37 2042.61 1517.37 M2042.61 1513.66 Q2048.42 1513.66 2051.48 1518.27 Q2054.55 1522.85 2054.55 1531.6 Q2054.55 1540.33 2051.48 1544.94 Q2048.42 1549.52 2042.61 1549.52 Q2036.8 1549.52 2033.72 1544.94 Q2030.66 1540.33 2030.66 1531.6 Q2030.66 1522.85 2033.72 1518.27 Q2036.8 1513.66 2042.61 1513.66 Z" fill="#000000" fill-rule="nonzero" fill-opacity="1" /><path clip-path="url(#clip290)" d="M2072.77 1517.37 Q2069.16 1517.37 2067.33 1520.93 Q2065.53 1524.47 2065.53 1531.6 Q2065.53 1538.71 2067.33 1542.27 Q2069.16 1545.82 2072.77 1545.82 Q2076.41 1545.82 2078.21 1542.27 Q2080.04 1538.71 2080.04 1531.6 Q2080.04 1524.47 2078.21 1520.93 Q2076.41 1517.37 2072.77 1517.37 M2072.77 1513.66 Q2078.58 1513.66 2081.64 1518.27 Q2084.72 1522.85 2084.72 1531.6 Q2084.72 1540.33 2081.64 1544.94 Q2078.58 1549.52 2072.77 1549.52 Q2066.96 1549.52 2063.88 1544.94 Q2060.83 1540.33 2060.83 1531.6 Q2060.83 1522.85 2063.88 1518.27 Q2066.96 1513.66 2072.77 1513.66 Z" fill="#000000" fill-rule="nonzero" fill-opacity="1" /><polyline clip-path="url(#clip290)" style="stroke:#000000; stroke-linecap:round; stroke-linejoin:round; stroke-width:4; stroke-opacity:1; fill:none" points="186.274,1486.45 186.274,123.472 "/>
<polyline clip-path="url(#clip290)" style="stroke:#000000; stroke-linecap:round; stroke-linejoin:round; stroke-width:4; stroke-opacity:1; fill:none" points="186.274,1447.95 205.172,1447.95 "/>
<polyline clip-path="url(#clip290)" style="stroke:#000000; stroke-linecap:round; stroke-linejoin:round; stroke-width:4; stroke-opacity:1; fill:none" points="186.274,1126.45 205.172,1126.45 "/>
<polyline clip-path="url(#clip290)" style="stroke:#000000; stroke-linecap:round; stroke-linejoin:round; stroke-width:4; stroke-opacity:1; fill:none" points="186.274,804.96 205.172,804.96 "/>
<polyline clip-path="url(#clip290)" style="stroke:#000000; stroke-linecap:round; stroke-linejoin:round; stroke-width:4; stroke-opacity:1; fill:none" points="186.274,483.467 205.172,483.467 "/>
<polyline clip-path="url(#clip290)" style="stroke:#000000; stroke-linecap:round; stroke-linejoin:round; stroke-width:4; stroke-opacity:1; fill:none" points="186.274,161.974 205.172,161.974 "/>
<path clip-path="url(#clip290)" d="M62.9365 1433.75 Q59.3254 1433.75 57.4967 1437.31 Q55.6912 1440.85 55.6912 1447.98 Q55.6912 1455.09 57.4967 1458.65 Q59.3254 1462.19 62.9365 1462.19 Q66.5707 1462.19 68.3763 1458.65 Q70.205 1455.09 70.205 1447.98 Q70.205 1440.85 68.3763 1437.31 Q66.5707 1433.75 62.9365 1433.75 M62.9365 1430.04 Q68.7467 1430.04 71.8022 1434.65 Q74.8809 1439.23 74.8809 1447.98 Q74.8809 1456.71 71.8022 1461.31 Q68.7467 1465.9 62.9365 1465.9 Q57.1264 1465.9 54.0477 1461.31 Q50.9921 1456.71 50.9921 1447.98 Q50.9921 1439.23 54.0477 1434.65 Q57.1264 1430.04 62.9365 1430.04 Z" fill="#000000" fill-rule="nonzero" fill-opacity="1" /><path clip-path="url(#clip290)" d="M83.0984 1459.35 L87.9827 1459.35 L87.9827 1465.23 L83.0984 1465.23 L83.0984 1459.35 Z" fill="#000000" fill-rule="nonzero" fill-opacity="1" /><path clip-path="url(#clip290)" d="M108.168 1433.75 Q104.557 1433.75 102.728 1437.31 Q100.922 1440.85 100.922 1447.98 Q100.922 1455.09 102.728 1458.65 Q104.557 1462.19 108.168 1462.19 Q111.802 1462.19 113.608 1458.65 Q115.436 1455.09 115.436 1447.98 Q115.436 1440.85 113.608 1437.31 Q111.802 1433.75 108.168 1433.75 M108.168 1430.04 Q113.978 1430.04 117.033 1434.65 Q120.112 1439.23 120.112 1447.98 Q120.112 1456.71 117.033 1461.31 Q113.978 1465.9 108.168 1465.9 Q102.358 1465.9 99.2789 1461.31 Q96.2234 1456.71 96.2234 1447.98 Q96.2234 1439.23 99.2789 1434.65 Q102.358 1430.04 108.168 1430.04 Z" fill="#000000" fill-rule="nonzero" fill-opacity="1" /><path clip-path="url(#clip290)" d="M138.33 1433.75 Q134.719 1433.75 132.89 1437.31 Q131.084 1440.85 131.084 1447.98 Q131.084 1455.09 132.89 1458.65 Q134.719 1462.19 138.33 1462.19 Q141.964 1462.19 143.769 1458.65 Q145.598 1455.09 145.598 1447.98 Q145.598 1440.85 143.769 1437.31 Q141.964 1433.75 138.33 1433.75 M138.33 1430.04 Q144.14 1430.04 147.195 1434.65 Q150.274 1439.23 150.274 1447.98 Q150.274 1456.71 147.195 1461.31 Q144.14 1465.9 138.33 1465.9 Q132.519 1465.9 129.441 1461.31 Q126.385 1456.71 126.385 1447.98 Q126.385 1439.23 129.441 1434.65 Q132.519 1430.04 138.33 1430.04 Z" fill="#000000" fill-rule="nonzero" fill-opacity="1" /><path clip-path="url(#clip290)" d="M63.9319 1112.25 Q60.3208 1112.25 58.4921 1115.82 Q56.6865 1119.36 56.6865 1126.49 Q56.6865 1133.59 58.4921 1137.16 Q60.3208 1140.7 63.9319 1140.7 Q67.5661 1140.7 69.3717 1137.16 Q71.2004 1133.59 71.2004 1126.49 Q71.2004 1119.36 69.3717 1115.82 Q67.5661 1112.25 63.9319 1112.25 M63.9319 1108.55 Q69.742 1108.55 72.7976 1113.15 Q75.8763 1117.74 75.8763 1126.49 Q75.8763 1135.21 72.7976 1139.82 Q69.742 1144.4 63.9319 1144.4 Q58.1217 1144.4 55.043 1139.82 Q51.9875 1135.21 51.9875 1126.49 Q51.9875 1117.74 55.043 1113.15 Q58.1217 1108.55 63.9319 1108.55 Z" fill="#000000" fill-rule="nonzero" fill-opacity="1" /><path clip-path="url(#clip290)" d="M84.0938 1137.85 L88.978 1137.85 L88.978 1143.73 L84.0938 1143.73 L84.0938 1137.85 Z" fill="#000000" fill-rule="nonzero" fill-opacity="1" /><path clip-path="url(#clip290)" d="M103.191 1139.8 L119.51 1139.8 L119.51 1143.73 L97.566 1143.73 L97.566 1139.8 Q100.228 1137.04 104.811 1132.41 Q109.418 1127.76 110.598 1126.42 Q112.844 1123.9 113.723 1122.16 Q114.626 1120.4 114.626 1118.71 Q114.626 1115.96 112.682 1114.22 Q110.76 1112.48 107.658 1112.48 Q105.459 1112.48 103.006 1113.25 Q100.575 1114.01 97.7974 1115.56 L97.7974 1110.84 Q100.621 1109.71 103.075 1109.13 Q105.529 1108.55 107.566 1108.55 Q112.936 1108.55 116.131 1111.23 Q119.325 1113.92 119.325 1118.41 Q119.325 1120.54 118.515 1122.46 Q117.728 1124.36 115.621 1126.95 Q115.043 1127.62 111.941 1130.84 Q108.839 1134.03 103.191 1139.8 Z" fill="#000000" fill-rule="nonzero" fill-opacity="1" /><path clip-path="url(#clip290)" d="M129.371 1109.17 L147.728 1109.17 L147.728 1113.11 L133.654 1113.11 L133.654 1121.58 Q134.672 1121.23 135.691 1121.07 Q136.709 1120.89 137.728 1120.89 Q143.515 1120.89 146.894 1124.06 Q150.274 1127.23 150.274 1132.65 Q150.274 1138.22 146.802 1141.33 Q143.33 1144.4 137.01 1144.4 Q134.834 1144.4 132.566 1144.03 Q130.32 1143.66 127.913 1142.92 L127.913 1138.22 Q129.996 1139.36 132.219 1139.91 Q134.441 1140.47 136.918 1140.47 Q140.922 1140.47 143.26 1138.36 Q145.598 1136.26 145.598 1132.65 Q145.598 1129.03 143.26 1126.93 Q140.922 1124.82 136.918 1124.82 Q135.043 1124.82 133.168 1125.24 Q131.316 1125.65 129.371 1126.53 L129.371 1109.17 Z" fill="#000000" fill-rule="nonzero" fill-opacity="1" /><path clip-path="url(#clip290)" d="M62.9365 790.759 Q59.3254 790.759 57.4967 794.323 Q55.6912 797.865 55.6912 804.995 Q55.6912 812.101 57.4967 815.666 Q59.3254 819.208 62.9365 819.208 Q66.5707 819.208 68.3763 815.666 Q70.205 812.101 70.205 804.995 Q70.205 797.865 68.3763 794.323 Q66.5707 790.759 62.9365 790.759 M62.9365 787.055 Q68.7467 787.055 71.8022 791.661 Q74.8809 796.245 74.8809 804.995 Q74.8809 813.722 71.8022 818.328 Q68.7467 822.911 62.9365 822.911 Q57.1264 822.911 54.0477 818.328 Q50.9921 813.722 50.9921 804.995 Q50.9921 796.245 54.0477 791.661 Q57.1264 787.055 62.9365 787.055 Z" fill="#000000" fill-rule="nonzero" fill-opacity="1" /><path clip-path="url(#clip290)" d="M83.0984 816.36 L87.9827 816.36 L87.9827 822.24 L83.0984 822.24 L83.0984 816.36 Z" fill="#000000" fill-rule="nonzero" fill-opacity="1" /><path clip-path="url(#clip290)" d="M98.2141 787.68 L116.57 787.68 L116.57 791.615 L102.496 791.615 L102.496 800.087 Q103.515 799.74 104.534 799.578 Q105.552 799.393 106.571 799.393 Q112.358 799.393 115.737 802.564 Q119.117 805.735 119.117 811.152 Q119.117 816.731 115.645 819.833 Q112.172 822.911 105.853 822.911 Q103.677 822.911 101.409 822.541 Q99.1632 822.171 96.7558 821.43 L96.7558 816.731 Q98.8391 817.865 101.061 818.421 Q103.284 818.976 105.76 818.976 Q109.765 818.976 112.103 816.87 Q114.441 814.763 114.441 811.152 Q114.441 807.541 112.103 805.435 Q109.765 803.328 105.76 803.328 Q103.885 803.328 102.01 803.745 Q100.159 804.161 98.2141 805.041 L98.2141 787.68 Z" fill="#000000" fill-rule="nonzero" fill-opacity="1" /><path clip-path="url(#clip290)" d="M138.33 790.759 Q134.719 790.759 132.89 794.323 Q131.084 797.865 131.084 804.995 Q131.084 812.101 132.89 815.666 Q134.719 819.208 138.33 819.208 Q141.964 819.208 143.769 815.666 Q145.598 812.101 145.598 804.995 Q145.598 797.865 143.769 794.323 Q141.964 790.759 138.33 790.759 M138.33 787.055 Q144.14 787.055 147.195 791.661 Q150.274 796.245 150.274 804.995 Q150.274 813.722 147.195 818.328 Q144.14 822.911 138.33 822.911 Q132.519 822.911 129.441 818.328 Q126.385 813.722 126.385 804.995 Q126.385 796.245 129.441 791.661 Q132.519 787.055 138.33 787.055 Z" fill="#000000" fill-rule="nonzero" fill-opacity="1" /><path clip-path="url(#clip290)" d="M63.9319 469.265 Q60.3208 469.265 58.4921 472.83 Q56.6865 476.372 56.6865 483.501 Q56.6865 490.608 58.4921 494.173 Q60.3208 497.714 63.9319 497.714 Q67.5661 497.714 69.3717 494.173 Q71.2004 490.608 71.2004 483.501 Q71.2004 476.372 69.3717 472.83 Q67.5661 469.265 63.9319 469.265 M63.9319 465.562 Q69.742 465.562 72.7976 470.168 Q75.8763 474.752 75.8763 483.501 Q75.8763 492.228 72.7976 496.835 Q69.742 501.418 63.9319 501.418 Q58.1217 501.418 55.043 496.835 Q51.9875 492.228 51.9875 483.501 Q51.9875 474.752 55.043 470.168 Q58.1217 465.562 63.9319 465.562 Z" fill="#000000" fill-rule="nonzero" fill-opacity="1" /><path clip-path="url(#clip290)" d="M84.0938 494.867 L88.978 494.867 L88.978 500.747 L84.0938 500.747 L84.0938 494.867 Z" fill="#000000" fill-rule="nonzero" fill-opacity="1" /><path clip-path="url(#clip290)" d="M97.9826 466.187 L120.205 466.187 L120.205 468.178 L107.658 500.747 L102.774 500.747 L114.58 470.122 L97.9826 470.122 L97.9826 466.187 Z" fill="#000000" fill-rule="nonzero" fill-opacity="1" /><path clip-path="url(#clip290)" d="M129.371 466.187 L147.728 466.187 L147.728 470.122 L133.654 470.122 L133.654 478.594 Q134.672 478.247 135.691 478.085 Q136.709 477.9 137.728 477.9 Q143.515 477.9 146.894 481.071 Q150.274 484.242 150.274 489.659 Q150.274 495.238 146.802 498.339 Q143.33 501.418 137.01 501.418 Q134.834 501.418 132.566 501.048 Q130.32 500.677 127.913 499.937 L127.913 495.238 Q129.996 496.372 132.219 496.927 Q134.441 497.483 136.918 497.483 Q140.922 497.483 143.26 495.376 Q145.598 493.27 145.598 489.659 Q145.598 486.048 143.26 483.941 Q140.922 481.835 136.918 481.835 Q135.043 481.835 133.168 482.252 Q131.316 482.668 129.371 483.548 L129.371 466.187 Z" fill="#000000" fill-rule="nonzero" fill-opacity="1" /><path clip-path="url(#clip290)" d="M53.7467 175.318 L61.3856 175.318 L61.3856 148.953 L53.0754 150.619 L53.0754 146.36 L61.3393 144.694 L66.0152 144.694 L66.0152 175.318 L73.654 175.318 L73.654 179.254 L53.7467 179.254 L53.7467 175.318 Z" fill="#000000" fill-rule="nonzero" fill-opacity="1" /><path clip-path="url(#clip290)" d="M83.0984 173.374 L87.9827 173.374 L87.9827 179.254 L83.0984 179.254 L83.0984 173.374 Z" fill="#000000" fill-rule="nonzero" fill-opacity="1" /><path clip-path="url(#clip290)" d="M108.168 147.772 Q104.557 147.772 102.728 151.337 Q100.922 154.879 100.922 162.008 Q100.922 169.115 102.728 172.68 Q104.557 176.221 108.168 176.221 Q111.802 176.221 113.608 172.68 Q115.436 169.115 115.436 162.008 Q115.436 154.879 113.608 151.337 Q111.802 147.772 108.168 147.772 M108.168 144.069 Q113.978 144.069 117.033 148.675 Q120.112 153.258 120.112 162.008 Q120.112 170.735 117.033 175.342 Q113.978 179.925 108.168 179.925 Q102.358 179.925 99.2789 175.342 Q96.2234 170.735 96.2234 162.008 Q96.2234 153.258 99.2789 148.675 Q102.358 144.069 108.168 144.069 Z" fill="#000000" fill-rule="nonzero" fill-opacity="1" /><path clip-path="url(#clip290)" d="M138.33 147.772 Q134.719 147.772 132.89 151.337 Q131.084 154.879 131.084 162.008 Q131.084 169.115 132.89 172.68 Q134.719 176.221 138.33 176.221 Q141.964 176.221 143.769 172.68 Q145.598 169.115 145.598 162.008 Q145.598 154.879 143.769 151.337 Q141.964 147.772 138.33 147.772 M138.33 144.069 Q144.14 144.069 147.195 148.675 Q150.274 153.258 150.274 162.008 Q150.274 170.735 147.195 175.342 Q144.14 179.925 138.33 179.925 Q132.519 179.925 129.441 175.342 Q126.385 170.735 126.385 162.008 Q126.385 153.258 129.441 148.675 Q132.519 144.069 138.33 144.069 Z" fill="#000000" fill-rule="nonzero" fill-opacity="1" /><path clip-path="url(#clip290)" d="M803.843 12.096 L816.036 12.096 L831.47 53.2532 L846.985 12.096 L859.179 12.096 L859.179 72.576 L851.198 72.576 L851.198 19.4686 L835.602 60.9499 L827.379 60.9499 L811.783 19.4686 L811.783 72.576 L803.843 72.576 L803.843 12.096 Z" fill="#000000" fill-rule="nonzero" fill-opacity="1" /><path clip-path="url(#clip290)" d="M892.68 32.4315 Q886.684 32.4315 883.2 37.1306 Q879.717 41.7891 879.717 49.9314 Q879.717 58.0738 883.16 62.7728 Q886.644 67.4314 892.68 67.4314 Q898.634 67.4314 902.118 62.7323 Q905.602 58.0333 905.602 49.9314 Q905.602 41.8701 902.118 37.1711 Q898.634 32.4315 892.68 32.4315 M892.68 26.1121 Q902.402 26.1121 907.951 32.4315 Q913.501 38.7509 913.501 49.9314 Q913.501 61.0714 907.951 67.4314 Q902.402 73.7508 892.68 73.7508 Q882.917 73.7508 877.367 67.4314 Q871.858 61.0714 871.858 49.9314 Q871.858 38.7509 877.367 32.4315 Q882.917 26.1121 892.68 26.1121 Z" fill="#000000" fill-rule="nonzero" fill-opacity="1" /><path clip-path="url(#clip290)" d="M955.712 34.0924 L955.712 9.54393 L963.165 9.54393 L963.165 72.576 L955.712 72.576 L955.712 65.7705 Q953.362 69.8214 949.757 71.8063 Q946.192 73.7508 941.169 73.7508 Q932.946 73.7508 927.76 67.1883 Q922.616 60.6258 922.616 49.9314 Q922.616 39.2371 927.76 32.6746 Q932.946 26.1121 941.169 26.1121 Q946.192 26.1121 949.757 28.0971 Q953.362 30.0415 955.712 34.0924 M930.312 49.9314 Q930.312 58.1548 933.675 62.8538 Q937.077 67.5124 942.992 67.5124 Q948.906 67.5124 952.309 62.8538 Q955.712 58.1548 955.712 49.9314 Q955.712 41.7081 952.309 37.0496 Q948.906 32.3505 942.992 32.3505 Q937.077 32.3505 933.675 37.0496 Q930.312 41.7081 930.312 49.9314 Z" fill="#000000" fill-rule="nonzero" fill-opacity="1" /><path clip-path="url(#clip290)" d="M1017.33 48.0275 L1017.33 51.6733 L983.055 51.6733 Q983.541 59.3701 987.673 63.421 Q991.846 67.4314 999.259 67.4314 Q1003.55 67.4314 1007.56 66.3781 Q1011.61 65.3249 1015.58 63.2184 L1015.58 70.267 Q1011.57 71.9684 1007.36 72.8596 Q1003.15 73.7508 998.813 73.7508 Q987.957 73.7508 981.597 67.4314 Q975.278 61.1119 975.278 50.3365 Q975.278 39.1965 981.273 32.6746 Q987.309 26.1121 997.517 26.1121 Q1006.67 26.1121 1011.98 32.0264 Q1017.33 37.9003 1017.33 48.0275 M1009.87 45.84 Q1009.79 39.7232 1006.43 36.0774 Q1003.11 32.4315 997.598 32.4315 Q991.36 32.4315 987.592 35.9558 Q983.865 39.4801 983.298 45.8805 L1009.87 45.84 Z" fill="#000000" fill-rule="nonzero" fill-opacity="1" /><path clip-path="url(#clip290)" d="M1073.84 9.62495 Q1068.41 18.942 1065.77 28.0566 Q1063.14 37.1711 1063.14 46.5287 Q1063.14 55.8863 1065.77 65.0818 Q1068.45 74.2369 1073.84 83.5134 L1067.35 83.5134 Q1061.28 73.9938 1058.24 64.7983 Q1055.24 55.6027 1055.24 46.5287 Q1055.24 37.4952 1058.24 28.3401 Q1061.24 19.1851 1067.35 9.62495 L1073.84 9.62495 Z" fill="#000000" fill-rule="nonzero" fill-opacity="1" /><path clip-path="url(#clip290)" d="M1105.88 32.4315 Q1099.88 32.4315 1096.4 37.1306 Q1092.92 41.7891 1092.92 49.9314 Q1092.92 58.0738 1096.36 62.7728 Q1099.84 67.4314 1105.88 67.4314 Q1111.83 67.4314 1115.32 62.7323 Q1118.8 58.0333 1118.8 49.9314 Q1118.8 41.8701 1115.32 37.1711 Q1111.83 32.4315 1105.88 32.4315 M1105.88 26.1121 Q1115.6 26.1121 1121.15 32.4315 Q1126.7 38.7509 1126.7 49.9314 Q1126.7 61.0714 1121.15 67.4314 Q1115.6 73.7508 1105.88 73.7508 Q1096.12 73.7508 1090.57 67.4314 Q1085.06 61.0714 1085.06 49.9314 Q1085.06 38.7509 1090.57 32.4315 Q1096.12 26.1121 1105.88 26.1121 Z" fill="#000000" fill-rule="nonzero" fill-opacity="1" /><path clip-path="url(#clip290)" d="M1146.27 65.7705 L1146.27 89.8329 L1138.77 89.8329 L1138.77 27.2059 L1146.27 27.2059 L1146.27 34.0924 Q1148.62 30.0415 1152.18 28.0971 Q1155.79 26.1121 1160.77 26.1121 Q1169.03 26.1121 1174.18 32.6746 Q1179.36 39.2371 1179.36 49.9314 Q1179.36 60.6258 1174.18 67.1883 Q1169.03 73.7508 1160.77 73.7508 Q1155.79 73.7508 1152.18 71.8063 Q1148.62 69.8214 1146.27 65.7705 M1171.62 49.9314 Q1171.62 41.7081 1168.22 37.0496 Q1164.86 32.3505 1158.95 32.3505 Q1153.03 32.3505 1149.63 37.0496 Q1146.27 41.7081 1146.27 49.9314 Q1146.27 58.1548 1149.63 62.8538 Q1153.03 67.5124 1158.95 67.5124 Q1164.86 67.5124 1168.22 62.8538 Q1171.62 58.1548 1171.62 49.9314 Z" fill="#000000" fill-rule="nonzero" fill-opacity="1" /><path clip-path="url(#clip290)" d="M1199.09 14.324 L1199.09 27.2059 L1214.44 27.2059 L1214.44 32.9987 L1199.09 32.9987 L1199.09 57.6282 Q1199.09 63.1779 1200.59 64.7578 Q1202.13 66.3376 1206.79 66.3376 L1214.44 66.3376 L1214.44 72.576 L1206.79 72.576 Q1198.16 72.576 1194.88 69.3758 Q1191.6 66.1351 1191.6 57.6282 L1191.6 32.9987 L1186.13 32.9987 L1186.13 27.2059 L1191.6 27.2059 L1191.6 14.324 L1199.09 14.324 Z" fill="#000000" fill-rule="nonzero" fill-opacity="1" /><path clip-path="url(#clip290)" d="M1224.25 27.2059 L1231.7 27.2059 L1231.7 72.576 L1224.25 72.576 L1224.25 27.2059 M1224.25 9.54393 L1231.7 9.54393 L1231.7 18.9825 L1224.25 18.9825 L1224.25 9.54393 Z" fill="#000000" fill-rule="nonzero" fill-opacity="1" /><path clip-path="url(#clip290)" d="M1282.62 35.9153 Q1285.41 30.8922 1289.3 28.5022 Q1293.19 26.1121 1298.46 26.1121 Q1305.55 26.1121 1309.4 31.0947 Q1313.24 36.0368 1313.24 45.1919 L1313.24 72.576 L1305.75 72.576 L1305.75 45.4349 Q1305.75 38.913 1303.44 35.7533 Q1301.13 32.5936 1296.39 32.5936 Q1290.6 32.5936 1287.24 36.4419 Q1283.88 40.2903 1283.88 46.9338 L1283.88 72.576 L1276.38 72.576 L1276.38 45.4349 Q1276.38 38.8725 1274.07 35.7533 Q1271.76 32.5936 1266.94 32.5936 Q1261.23 32.5936 1257.87 36.4824 Q1254.51 40.3308 1254.51 46.9338 L1254.51 72.576 L1247.01 72.576 L1247.01 27.2059 L1254.51 27.2059 L1254.51 34.2544 Q1257.06 30.082 1260.62 28.0971 Q1264.19 26.1121 1269.09 26.1121 Q1274.03 26.1121 1277.47 28.6237 Q1280.96 31.1352 1282.62 35.9153 Z" fill="#000000" fill-rule="nonzero" fill-opacity="1" /><path clip-path="url(#clip290)" d="M1328.11 27.2059 L1335.56 27.2059 L1335.56 72.576 L1328.11 72.576 L1328.11 27.2059 M1328.11 9.54393 L1335.56 9.54393 L1335.56 18.9825 L1328.11 18.9825 L1328.11 9.54393 Z" fill="#000000" fill-rule="nonzero" fill-opacity="1" /><path clip-path="url(#clip290)" d="M1347.92 27.2059 L1383.33 27.2059 L1383.33 34.0114 L1355.29 66.6212 L1383.33 66.6212 L1383.33 72.576 L1346.91 72.576 L1346.91 65.7705 L1374.94 33.1607 L1347.92 33.1607 L1347.92 27.2059 Z" fill="#000000" fill-rule="nonzero" fill-opacity="1" /><path clip-path="url(#clip290)" d="M1433.52 48.0275 L1433.52 51.6733 L1399.25 51.6733 Q1399.73 59.3701 1403.86 63.421 Q1408.04 67.4314 1415.45 67.4314 Q1419.74 67.4314 1423.75 66.3781 Q1427.8 65.3249 1431.77 63.2184 L1431.77 70.267 Q1427.76 71.9684 1423.55 72.8596 Q1419.34 73.7508 1415 73.7508 Q1404.15 73.7508 1397.79 67.4314 Q1391.47 61.1119 1391.47 50.3365 Q1391.47 39.1965 1397.46 32.6746 Q1403.5 26.1121 1413.71 26.1121 Q1422.86 26.1121 1428.17 32.0264 Q1433.52 37.9003 1433.52 48.0275 M1426.06 45.84 Q1425.98 39.7232 1422.62 36.0774 Q1419.3 32.4315 1413.79 32.4315 Q1407.55 32.4315 1403.78 35.9558 Q1400.06 39.4801 1399.49 45.8805 L1426.06 45.84 Z" fill="#000000" fill-rule="nonzero" fill-opacity="1" /><path clip-path="url(#clip290)" d="M1475.6 34.0924 L1475.6 9.54393 L1483.06 9.54393 L1483.06 72.576 L1475.6 72.576 L1475.6 65.7705 Q1473.26 69.8214 1469.65 71.8063 Q1466.09 73.7508 1461.06 73.7508 Q1452.84 73.7508 1447.65 67.1883 Q1442.51 60.6258 1442.51 49.9314 Q1442.51 39.2371 1447.65 32.6746 Q1452.84 26.1121 1461.06 26.1121 Q1466.09 26.1121 1469.65 28.0971 Q1473.26 30.0415 1475.6 34.0924 M1450.21 49.9314 Q1450.21 58.1548 1453.57 62.8538 Q1456.97 67.5124 1462.88 67.5124 Q1468.8 67.5124 1472.2 62.8538 Q1475.6 58.1548 1475.6 49.9314 Q1475.6 41.7081 1472.2 37.0496 Q1468.8 32.3505 1462.88 32.3505 Q1456.97 32.3505 1453.57 37.0496 Q1450.21 41.7081 1450.21 49.9314 Z" fill="#000000" fill-rule="nonzero" fill-opacity="1" /><path clip-path="url(#clip290)" d="M1547.75 9.54393 L1547.75 15.7418 L1540.62 15.7418 Q1536.61 15.7418 1535.03 17.3622 Q1533.49 18.9825 1533.49 23.1955 L1533.49 27.2059 L1545.77 27.2059 L1545.77 32.9987 L1533.49 32.9987 L1533.49 72.576 L1526 72.576 L1526 32.9987 L1518.87 32.9987 L1518.87 27.2059 L1526 27.2059 L1526 24.0462 Q1526 16.471 1529.52 13.0277 Q1533.05 9.54393 1540.7 9.54393 L1547.75 9.54393 Z" fill="#000000" fill-rule="nonzero" fill-opacity="1" /><path clip-path="url(#clip290)" d="M1553.99 27.2059 L1561.44 27.2059 L1561.44 72.576 L1553.99 72.576 L1553.99 27.2059 M1553.99 9.54393 L1561.44 9.54393 L1561.44 18.9825 L1553.99 18.9825 L1553.99 9.54393 Z" fill="#000000" fill-rule="nonzero" fill-opacity="1" /><path clip-path="url(#clip290)" d="M1577.04 9.54393 L1584.49 9.54393 L1584.49 72.576 L1577.04 72.576 L1577.04 9.54393 Z" fill="#000000" fill-rule="nonzero" fill-opacity="1" /><path clip-path="url(#clip290)" d="M1607.46 14.324 L1607.46 27.2059 L1622.81 27.2059 L1622.81 32.9987 L1607.46 32.9987 L1607.46 57.6282 Q1607.46 63.1779 1608.96 64.7578 Q1610.5 66.3376 1615.16 66.3376 L1622.81 66.3376 L1622.81 72.576 L1615.16 72.576 Q1606.53 72.576 1603.25 69.3758 Q1599.97 66.1351 1599.97 57.6282 L1599.97 32.9987 L1594.5 32.9987 L1594.5 27.2059 L1599.97 27.2059 L1599.97 14.324 L1607.46 14.324 Z" fill="#000000" fill-rule="nonzero" fill-opacity="1" /><path clip-path="url(#clip290)" d="M1671.43 48.0275 L1671.43 51.6733 L1637.15 51.6733 Q1637.64 59.3701 1641.77 63.421 Q1645.95 67.4314 1653.36 67.4314 Q1657.65 67.4314 1661.66 66.3781 Q1665.71 65.3249 1669.68 63.2184 L1669.68 70.267 Q1665.67 71.9684 1661.46 72.8596 Q1657.25 73.7508 1652.91 73.7508 Q1642.06 73.7508 1635.7 67.4314 Q1629.38 61.1119 1629.38 50.3365 Q1629.38 39.1965 1635.37 32.6746 Q1641.41 26.1121 1651.62 26.1121 Q1660.77 26.1121 1666.08 32.0264 Q1671.43 37.9003 1671.43 48.0275 M1663.97 45.84 Q1663.89 39.7232 1660.53 36.0774 Q1657.21 32.4315 1651.7 32.4315 Q1645.46 32.4315 1641.69 35.9558 Q1637.96 39.4801 1637.4 45.8805 L1663.97 45.84 Z" fill="#000000" fill-rule="nonzero" fill-opacity="1" /><path clip-path="url(#clip290)" d="M1709.95 34.1734 Q1708.69 33.4443 1707.19 33.1202 Q1705.74 32.7556 1703.95 32.7556 Q1697.63 32.7556 1694.23 36.8875 Q1690.87 40.9789 1690.87 48.6757 L1690.87 72.576 L1683.38 72.576 L1683.38 27.2059 L1690.87 27.2059 L1690.87 34.2544 Q1693.22 30.1225 1696.99 28.1376 Q1700.75 26.1121 1706.14 26.1121 Q1706.91 26.1121 1707.84 26.2337 Q1708.77 26.3147 1709.91 26.5172 L1709.95 34.1734 Z" fill="#000000" fill-rule="nonzero" fill-opacity="1" /><path clip-path="url(#clip290)" d="M1716.59 9.62495 L1723.07 9.62495 Q1729.15 19.1851 1732.15 28.3401 Q1735.19 37.4952 1735.19 46.5287 Q1735.19 55.6027 1732.15 64.7983 Q1729.15 73.9938 1723.07 83.5134 L1716.59 83.5134 Q1721.98 74.2369 1724.61 65.0818 Q1727.29 55.8863 1727.29 46.5287 Q1727.29 37.1711 1724.61 28.0566 Q1721.98 18.942 1716.59 9.62495 Z" fill="#000000" fill-rule="nonzero" fill-opacity="1" /><polyline clip-path="url(#clip292)" style="stroke:#009af9; stroke-linecap:round; stroke-linejoin:round; stroke-width:4; stroke-opacity:1; fill:none" points="247.59,168.403 250.586,174.801 253.583,185.844 256.58,175.679 259.577,182.036 262.574,183.441 265.571,177.512 268.567,162.93 271.564,165.459 274.561,167.381 277.558,167.973 280.555,167.412 283.552,162.787 286.549,169.047 289.545,169.296 292.542,170.669 295.539,167.662 298.536,167.402 301.533,164.414 304.53,166.878 307.527,167.905 310.523,166.701 313.52,163.204 316.517,167.167 319.514,168.81 322.511,167.969 325.508,166.717 328.504,162.854 331.501,168.564 334.498,169.798 337.495,170.368 340.492,169.177 343.489,163.492 346.486,168.273 349.482,171.239 352.479,176.288 355.476,181.055 358.473,169.992 361.47,176.194 364.467,177.56 367.463,179.576 370.46,180.676 373.457,184.436 376.454,186.402 379.451,181.687 382.448,177.06 385.445,175.897 388.441,175.955 391.438,180.52 394.435,183.966 397.432,181.553 400.429,178.232 403.426,178.298 406.423,175.849 409.419,171.553 412.416,176.548 415.413,186.85 418.41,184.612 421.407,177.824 424.404,173.409 427.4,177.603 430.397,177.661 433.394,182.265 436.391,174.424 439.388,172.649 442.385,174.074 445.382,175.24 448.378,180.254 451.375,178.229 454.372,177.345 457.369,184.151 460.366,183.592 463.363,181.789 466.359,179.016 469.356,178.125 472.353,178.726 475.35,181.741 478.347,190.617 481.344,189.226 484.341,190.744 487.337,196.607 490.334,171.195 493.331,164.919 496.328,167.722 499.325,173.15 502.322,176.115 505.319,175.121 508.315,199.557 511.312,196.273 514.309,186.919 517.306,182.246 520.303,168.499 523.3,168.899 526.296,171.539 529.293,175.437 532.29,175.858 535.287,167.789 538.284,170.574 541.281,183.216 544.278,181.559 547.274,178.504 550.271,180.693 553.268,174.994 556.265,166.402 559.262,167.923 562.259,165.253 565.255,166.967 568.252,168.334 571.249,165.499 574.246,167.386 577.243,167.085 580.24,168.368 583.237,175.421 586.233,202.785 589.23,196.321 592.227,194.53 595.224,172.649 598.221,163.773 601.218,169.317 604.215,177.469 607.211,180.749 610.208,182.119 613.205,179.861 616.202,184.384 619.199,182.533 622.196,171.884 625.192,165.119 628.189,168.558 631.186,172.371 634.183,173.85 637.18,171.938 640.177,180.078 643.174,189.088 646.17,185.596 649.167,180.072 652.164,168.961 655.161,167.141 658.158,171.045 661.155,177.616 664.152,182.278 667.148,184.17 670.145,186.089 673.142,188.789 676.139,191.907 679.136,182.284 682.133,186.349 685.129,179.476 688.126,178.469 691.123,168.03 694.12,174.076 697.117,174.98 700.114,180.996 703.111,186.96 706.107,186.388 709.104,165.561 712.101,170.584 715.098,174.926 718.095,175.81 721.092,173.164 724.088,174.622 727.085,177.203 730.082,179.013 733.079,178.763 736.076,174.032 739.073,178.75 742.07,179.171 745.066,179.538 748.063,188.838 751.06,174.544 754.057,181.769 757.054,181.747 760.051,181.386 763.048,180.734 766.044,180.958 769.041,171.691 772.038,164.021 775.035,172.93 778.032,174.138 781.029,180.772 784.025,188.146 787.022,192.836 790.019,200.252 793.016,223.961 796.013,229.138 799.01,225.261 802.007,184.93 805.003,194.451 808,200.16 810.997,286.041 813.994,234.777 816.991,340.934 819.988,453.595 822.984,683.32 825.981,696.98 828.978,430.758 831.975,343.547 834.972,407.3 837.969,818.007 840.966,842.874 843.962,655.776 846.959,520.592 849.956,192.779 852.953,196.273 855.95,173.678 858.947,165.377 861.944,169.099 864.94,169.644 867.937,178.432 870.934,171.776 873.931,164.576 876.928,170.117 879.925,175.593 882.921,183.838 885.918,218.82 888.915,168.902 891.912,167.42 894.909,182.549 897.906,163.997 900.903,165.915 903.899,172.753 906.896,191.044 909.893,186.22 912.89,187.16 915.887,176.856 918.884,165.133 921.88,166.221 924.877,173.041 927.874,179.56 930.871,189.294 933.868,173.252 936.865,164.483 939.862,164.315 942.858,168.07 945.855,169.175 948.852,177.97 951.849,208.112 954.846,191.817 957.843,189.155 960.84,181.641 963.836,168.806 966.833,163.942 969.83,165.644 972.827,167.777 975.824,181.699 978.821,173.455 981.817,179.439 984.814,182.064 987.811,234.344 990.808,316.346 993.805,249.968 996.802,340.03 999.799,841.553 1002.8,1274.68 1005.79,1227.5 1008.79,724.998 1011.79,561.649 1014.78,346.824 1017.78,313.874 1020.78,500.373 1023.77,436.952 1026.77,288.658 1029.77,172.792 1032.76,170.714 1035.76,516.215 1038.76,329.125 1041.75,203.866 1044.75,235.045 1047.75,173.591 1050.74,167.841 1053.74,162.848 1056.74,167.718 1059.74,168.603 1062.73,170.065 1065.73,172.011 1068.73,179.596 1071.72,171.727 1074.72,209.714 1077.72,171.399 1080.71,172.704 1083.71,176.071 1086.71,179.555 1089.7,185.515 1092.7,174.387 1095.7,182.769 1098.69,172.787 1101.69,163.57 1104.69,169.525 1107.69,184.97 1110.68,186.335 1113.68,183.362 1116.68,170.776 1119.67,163.944 1122.67,169.24 1125.67,170.047 1128.66,177.664 1131.66,177.282 1134.66,174.189 1137.65,168.434 1140.65,167.749 1143.65,184.7 1146.64,167.585 1149.64,163.393 1152.64,164.925 1155.63,170.364 1158.63,172.335 1161.63,174.469 1164.63,174.488 1167.62,194.684 1170.62,186.012 1173.62,179.274 1176.61,175.754 1179.61,171.769 1182.61,165.381 1185.6,168.688 1188.6,172.931 1191.6,175.944 1194.59,179.06 1197.59,188.155 1200.59,180.051 1203.58,177.324 1206.58,188.153 1209.58,188.298 1212.57,181.358 1215.57,180.457 1218.57,167.83 1221.57,172.446 1224.56,204.454 1227.56,168.734 1230.56,164.62 1233.55,163.575 1236.55,166.967 1239.55,170.625 1242.54,170.696 1245.54,174.842 1248.54,172.994 1251.53,163.866 1254.53,168.671 1257.53,167.49 1260.52,174.345 1263.52,178.541 1266.52,164.65 1269.51,165.226 1272.51,167.936 1275.51,181.051 1278.51,179.646 1281.5,181.148 1284.5,177.395 1287.5,163.992 1290.49,166.68 1293.49,175.416 1296.49,180.149 1299.48,177.201 1302.48,164.069 1305.48,165.672 1308.47,167.517 1311.47,163.007 1314.47,167.231 1317.46,170.396 1320.46,172.997 1323.46,174.825 1326.46,175.263 1329.45,165.22 1332.45,168.452 1335.45,168.778 1338.44,165.89 1341.44,170.792 1344.44,173.487 1347.43,178.857 1350.43,194.78 1353.43,199.909 1356.42,171.087 1359.42,163.018 1362.42,167.313 1365.41,170.201 1368.41,177.807 1371.41,175.179 1374.4,171 1377.4,166.763 1380.4,175.331 1383.4,172.534 1386.39,171.489 1389.39,172.58 1392.39,177.227 1395.38,221.519 1398.38,188.904 1401.38,168.77 1404.37,186.156 1407.37,172.777 1410.37,162.609 1413.36,168.217 1416.36,172.218 1419.36,176.687 1422.35,231.631 1425.35,198.07 1428.35,175.04 1431.34,182.491 1434.34,183.915 1437.34,181.86 1440.34,186.601 1443.33,206.968 1446.33,201.172 1449.33,210.16 1452.32,192.179 1455.32,191.479 1458.32,176.134 1461.31,176.959 1464.31,236.547 1467.31,415.681 1470.3,916.95 1473.3,1201.81 1476.3,979.607 1479.29,952.163 1482.29,949.38 1485.29,1322.73 1488.28,1419 1491.28,1390.09 1494.28,1373.97 1497.28,1380.49 1500.27,1308.14 1503.27,1058.71 1506.27,787.276 1509.26,403.655 1512.26,295.481 1515.26,189.777 1518.25,172.5 1521.25,162.977 1524.25,163.463 1527.24,169.958 1530.24,175.213 1533.24,177.703 1536.23,168.144 1539.23,173.542 1542.23,174.253 1545.23,172.263 1548.22,166.816 1551.22,172.759 1554.22,173.856 1557.21,176.223 1560.21,175.329 1563.21,163.854 1566.2,168.296 1569.2,172.552 1572.2,166.395 1575.19,168.672 1578.19,172.688 1581.19,171.979 1584.18,172.652 1587.18,164.987 1590.18,224.657 1593.17,204.72 1596.17,353.459 1599.17,320.877 1602.17,233.769 1605.16,172.833 1608.16,170.349 1611.16,162.965 1614.15,165.376 1617.15,164.807 1620.15,162.746 1623.14,166.607 1626.14,168.775 1629.14,172.773 1632.13,172.916 1635.13,174.524 1638.13,194.415 1641.12,188.323 1644.12,200.771 1647.12,211.246 1650.11,230.638 1653.11,182.509 1656.11,163.731 1659.11,164.026 1662.1,169.947 1665.1,173.246 1668.1,174.504 1671.09,176.995 1674.09,168.562 1677.09,162.233 1680.08,168.507 1683.08,173.411 1686.08,164.747 1689.07,165.406 1692.07,164.147 1695.07,164.429 1698.06,179.342 1701.06,200.928 1704.06,174.43 1707.05,164.11 1710.05,174.093 1713.05,181.222 1716.05,164.358 1719.04,169.324 1722.04,172.313 1725.04,172.031 1728.03,165.105 1731.03,162.909 1734.03,166.813 1737.02,170.966 1740.02,217.814 1743.02,198.224 1746.01,197.262 1749.01,191.181 1752.01,194.276 1755,315.024 1758,685.313 1761,634.298 1763.99,968.059 1766.99,992.404 1769.99,1013.99 1772.99,657.72 1775.98,395.693 1778.98,204.677 1781.98,189.665 1784.97,230.137 1787.97,165.051 1790.97,162.343 1793.96,167.441 1796.96,167.519 1799.96,168.804 1802.95,176.13 1805.95,175.862 1808.95,185.155 1811.94,189.152 1814.94,182.582 1817.94,175.983 1820.94,179.384 1823.93,186.674 1826.93,200.175 1829.93,196.022 1832.92,217.159 1835.92,181.615 1838.92,168.481 1841.91,162.717 1844.91,168.403 1847.91,174.577 1850.9,190.395 1853.9,193.859 1856.9,203.509 1859.89,246.759 1862.89,371.203 1865.89,241.097 1868.88,165.751 1871.88,190.951 1874.88,368.668 1877.88,324.303 1880.87,203.356 1883.87,163.479 1886.87,167.885 1889.86,174.413 1892.86,177.739 1895.86,176.535 1898.85,164.731 1901.85,164.749 1904.85,194.112 1907.84,171.898 1910.84,164.369 1913.84,169.497 1916.83,175.904 1919.83,246.325 1922.83,169.484 1925.82,164.314 1928.82,163.984 1931.82,166.187 1934.82,166.545 1937.81,185.621 1940.81,213.555 1943.81,180.406 1946.8,170.701 1949.8,168.839 1952.8,169.021 1955.79,162.918 1958.79,167.323 1961.79,166.809 1964.78,166.904 1967.78,175.582 1970.78,174.27 1973.77,163.52 1976.77,171.546 1979.77,172.663 1982.76,171.443 1985.76,181.051 1988.76,181.736 1991.76,177.041 1994.75,188.425 1997.75,168.53 2000.75,163.459 2003.74,168.497 2006.74,165.231 2009.74,165.483 2012.73,167.364 2015.73,171.189 2018.73,177.023 2021.72,167.62 2024.72,169.46 2027.72,163.424 2030.71,180.389 2033.71,172.35 2036.71,167.055 2039.71,164.553 2042.7,168.892 2045.7,173.137 2048.7,176.638 2051.69,323.763 2054.69,446.926 2057.69,231.193 2060.68,206.68 2063.68,167.537 2066.68,164.952 2069.67,166.076 2072.67,163.175 2075.67,167.596 2078.66,170.209 2081.66,162.264 2084.66,169.325 2087.65,172.103 2090.65,163.64 2093.65,169.657 2096.65,173.093 2099.64,165.555 2102.64,172.604 2105.64,173.937 2108.63,188.647 2111.63,175.925 2114.63,163.593 2117.62,162.537 2120.62,167.424 2123.62,169.743 2126.61,173.356 2129.61,202.781 2132.61,217.896 2135.6,164.308 2138.6,166.314 2141.6,167.006 2144.59,171.176 2147.59,214.711 2150.59,172.265 2153.59,174.382 2156.58,171.053 2159.58,175.788 2162.58,162.25 2165.57,168.796 2168.57,173.412 2171.57,165.259 2174.56,164.633 2177.56,168.43 2180.56,167.541 2183.55,163.259 2186.55,166.589 2189.55,171.258 2192.54,162.177 2195.54,168.681 2198.54,174.185 2201.53,172.753 2204.53,174.999 2207.53,167.497 2210.53,163.782 2213.52,166.677 2216.52,166.339 2219.52,163.584 2222.51,171.793 2225.51,178.182 2228.51,198.985 2231.5,172.717 2234.5,163.484 2237.5,165.114 2240.49,164.166 2243.49,167.447 2246.49,168.63 2249.48,170.207 2252.48,179.618 2255.48,169.524 2258.48,171.792 2261.47,170.257 2264.47,162.047 2267.47,168.705 2270.46,172.28 2273.46,199.179 2276.46,187.158 2279.45,189.447 2282.45,168.434 2285.45,163.615 2288.44,169.38 2291.44,172.588 "/>
<polyline clip-path="url(#clip292)" style="stroke:#e26f46; stroke-linecap:round; stroke-linejoin:round; stroke-width:4; stroke-opacity:1; fill:none" points="247.59,1441.52 250.586,1435.12 253.583,1424.08 256.58,1434.24 259.577,1427.88 262.574,1426.48 265.571,1432.41 268.567,1446.99 271.564,1444.46 274.561,1442.54 277.558,1441.95 280.555,1442.51 283.552,1447.13 286.549,1440.87 289.545,1440.62 292.542,1439.25 295.539,1442.26 298.536,1442.52 301.533,1445.51 304.53,1443.04 307.527,1442.01 310.523,1443.22 313.52,1446.72 316.517,1442.75 319.514,1441.11 322.511,1441.95 325.508,1443.2 328.504,1447.07 331.501,1441.36 334.498,1440.12 337.495,1439.55 340.492,1440.74 343.489,1446.43 346.486,1441.65 349.482,1438.68 352.479,1433.63 355.476,1428.87 358.473,1439.93 361.47,1433.73 364.467,1432.36 367.463,1430.34 370.46,1429.24 373.457,1425.48 376.454,1423.52 379.451,1428.23 382.448,1432.86 385.445,1434.02 388.441,1433.97 391.438,1429.4 394.435,1425.95 397.432,1428.37 400.429,1431.69 403.426,1431.62 406.423,1434.07 409.419,1438.37 412.416,1433.37 415.413,1423.07 418.41,1425.31 421.407,1432.1 424.404,1436.51 427.4,1432.32 430.397,1432.26 433.394,1427.65 436.391,1435.5 439.388,1437.27 442.385,1435.85 445.382,1434.68 448.378,1429.67 451.375,1431.69 454.372,1432.58 457.369,1425.77 460.366,1426.33 463.363,1428.13 466.359,1430.9 469.356,1431.8 472.353,1431.19 475.35,1428.18 478.347,1419.3 481.344,1420.69 484.341,1419.18 487.337,1413.31 490.334,1438.72 493.331,1445 496.328,1442.2 499.325,1436.77 502.322,1433.81 505.319,1434.8 508.315,1410.36 511.312,1413.65 514.309,1423 517.306,1427.67 520.303,1441.42 523.3,1441.02 526.296,1438.38 529.293,1434.48 532.29,1434.06 535.287,1442.13 538.284,1439.35 541.281,1426.7 544.278,1428.36 547.274,1431.42 550.271,1429.23 553.268,1434.93 556.265,1443.52 559.262,1442 562.259,1444.67 565.255,1442.95 568.252,1441.59 571.249,1444.42 574.246,1442.53 577.243,1442.83 580.24,1441.55 583.237,1434.5 586.233,1407.13 589.23,1413.6 592.227,1415.39 595.224,1437.27 598.221,1446.15 601.218,1440.6 604.215,1432.45 607.211,1429.17 610.208,1427.8 613.205,1430.06 616.202,1425.54 619.199,1427.39 622.196,1438.04 625.192,1444.8 628.189,1441.36 631.186,1437.55 634.183,1436.07 637.18,1437.98 640.177,1429.84 643.174,1420.83 646.17,1424.32 649.167,1429.85 652.164,1440.96 655.161,1442.78 658.158,1438.87 661.155,1432.3 664.152,1427.64 667.148,1425.75 670.145,1423.83 673.142,1421.13 676.139,1418.01 679.136,1427.64 682.133,1423.57 685.129,1430.44 688.126,1431.45 691.123,1441.89 694.12,1435.84 697.117,1434.94 700.114,1428.92 703.111,1422.96 706.107,1423.53 709.104,1444.36 712.101,1439.34 715.098,1434.99 718.095,1434.11 721.092,1436.76 724.088,1435.3 727.085,1432.72 730.082,1430.91 733.079,1431.16 736.076,1435.89 739.073,1431.17 742.07,1430.75 745.066,1430.38 748.063,1421.08 751.06,1435.38 754.057,1428.15 757.054,1428.17 760.051,1428.53 763.048,1429.19 766.044,1428.96 769.041,1438.23 772.038,1445.9 775.035,1436.99 778.032,1435.78 781.029,1429.15 784.025,1421.77 787.022,1417.08 790.019,1409.67 793.016,1385.96 796.013,1380.78 799.01,1384.66 802.007,1424.99 805.003,1415.47 808,1409.76 810.997,1323.88 813.994,1375.14 816.991,1268.99 819.988,1156.32 822.984,926.6 825.981,912.94 828.978,1179.16 831.975,1266.37 834.972,1202.62 837.969,791.913 840.966,767.046 843.962,954.144 846.959,1089.33 849.956,1417.14 852.953,1413.65 855.95,1436.24 858.947,1444.54 861.944,1440.82 864.94,1440.28 867.937,1431.49 870.934,1438.14 873.931,1445.34 876.928,1439.8 879.925,1434.33 882.921,1426.08 885.918,1391.1 888.915,1441.02 891.912,1442.5 894.909,1427.37 897.906,1445.92 900.903,1444 903.899,1437.17 906.896,1418.88 909.893,1423.7 912.89,1422.76 915.887,1433.06 918.884,1444.79 921.88,1443.7 924.877,1436.88 927.874,1430.36 930.871,1420.63 933.868,1436.67 936.865,1445.44 939.862,1445.6 942.858,1441.85 945.855,1440.74 948.852,1431.95 951.849,1401.81 954.846,1418.1 957.843,1420.77 960.84,1428.28 963.836,1441.11 966.833,1445.98 969.83,1444.28 972.827,1442.14 975.824,1428.22 978.821,1436.47 981.817,1430.48 984.814,1427.86 987.811,1375.58 990.808,1293.57 993.805,1359.95 996.802,1269.89 999.799,768.367 1002.8,335.245 1005.79,382.424 1008.79,884.922 1011.79,1048.27 1014.78,1263.1 1017.78,1296.05 1020.78,1109.55 1023.77,1172.97 1026.77,1321.26 1029.77,1437.13 1032.76,1439.21 1035.76,1093.7 1038.76,1280.8 1041.75,1406.05 1044.75,1374.87 1047.75,1436.33 1050.74,1442.08 1053.74,1447.07 1056.74,1442.2 1059.74,1441.32 1062.73,1439.86 1065.73,1437.91 1068.73,1430.32 1071.72,1438.19 1074.72,1400.21 1077.72,1438.52 1080.71,1437.22 1083.71,1433.85 1086.71,1430.36 1089.7,1424.4 1092.7,1435.53 1095.7,1427.15 1098.69,1437.13 1101.69,1446.35 1104.69,1440.4 1107.69,1424.95 1110.68,1423.58 1113.68,1426.56 1116.68,1439.14 1119.67,1445.98 1122.67,1440.68 1125.67,1439.87 1128.66,1432.26 1131.66,1432.64 1134.66,1435.73 1137.65,1441.49 1140.65,1442.17 1143.65,1425.22 1146.64,1442.34 1149.64,1446.53 1152.64,1444.99 1155.63,1439.56 1158.63,1437.58 1161.63,1435.45 1164.63,1435.43 1167.62,1415.24 1170.62,1423.91 1173.62,1430.65 1176.61,1434.17 1179.61,1438.15 1182.61,1444.54 1185.6,1441.23 1188.6,1436.99 1191.6,1433.98 1194.59,1430.86 1197.59,1421.77 1200.59,1429.87 1203.58,1432.6 1206.58,1421.77 1209.58,1421.62 1212.57,1428.56 1215.57,1429.46 1218.57,1442.09 1221.57,1437.47 1224.56,1405.47 1227.56,1441.19 1230.56,1445.3 1233.55,1446.35 1236.55,1442.95 1239.55,1439.29 1242.54,1439.22 1245.54,1435.08 1248.54,1436.93 1251.53,1446.05 1254.53,1441.25 1257.53,1442.43 1260.52,1435.57 1263.52,1431.38 1266.52,1445.27 1269.51,1444.69 1272.51,1441.98 1275.51,1428.87 1278.51,1430.27 1281.5,1428.77 1284.5,1432.53 1287.5,1445.93 1290.49,1443.24 1293.49,1434.5 1296.49,1429.77 1299.48,1432.72 1302.48,1445.85 1305.48,1444.25 1308.47,1442.4 1311.47,1446.91 1314.47,1442.69 1317.46,1439.52 1320.46,1436.92 1323.46,1435.1 1326.46,1434.66 1329.45,1444.7 1332.45,1441.47 1335.45,1441.14 1338.44,1444.03 1341.44,1439.13 1344.44,1436.43 1347.43,1431.06 1350.43,1415.14 1353.43,1410.01 1356.42,1438.83 1359.42,1446.9 1362.42,1442.61 1365.41,1439.72 1368.41,1432.11 1371.41,1434.74 1374.4,1438.92 1377.4,1443.16 1380.4,1434.59 1383.4,1437.39 1386.39,1438.43 1389.39,1437.34 1392.39,1432.69 1395.38,1388.4 1398.38,1421.02 1401.38,1441.15 1404.37,1423.76 1407.37,1437.14 1410.37,1447.31 1413.36,1441.7 1416.36,1437.7 1419.36,1433.23 1422.35,1378.29 1425.35,1411.85 1428.35,1434.88 1431.34,1427.43 1434.34,1426.01 1437.34,1428.06 1440.34,1423.32 1443.33,1402.95 1446.33,1408.75 1449.33,1399.76 1452.32,1417.74 1455.32,1418.44 1458.32,1433.79 1461.31,1432.96 1464.31,1373.37 1467.31,1194.24 1470.3,692.97 1473.3,408.111 1476.3,630.313 1479.29,657.757 1482.29,660.54 1485.29,287.194 1488.28,190.922 1491.28,219.829 1494.28,235.955 1497.28,229.425 1500.27,301.785 1503.27,551.213 1506.27,822.644 1509.26,1206.27 1512.26,1314.44 1515.26,1420.14 1518.25,1437.42 1521.25,1446.94 1524.25,1446.46 1527.24,1439.96 1530.24,1434.71 1533.24,1432.22 1536.23,1441.78 1539.23,1436.38 1542.23,1435.67 1545.23,1437.66 1548.22,1443.1 1551.22,1437.16 1554.22,1436.06 1557.21,1433.7 1560.21,1434.59 1563.21,1446.07 1566.2,1441.62 1569.2,1437.37 1572.2,1443.53 1575.19,1441.25 1578.19,1437.23 1581.19,1437.94 1584.18,1437.27 1587.18,1444.93 1590.18,1385.26 1593.17,1405.2 1596.17,1256.46 1599.17,1289.04 1602.17,1376.15 1605.16,1437.09 1608.16,1439.57 1611.16,1446.95 1614.15,1444.54 1617.15,1445.11 1620.15,1447.17 1623.14,1443.31 1626.14,1441.15 1629.14,1437.15 1632.13,1437 1635.13,1435.4 1638.13,1415.5 1641.12,1421.6 1644.12,1409.15 1647.12,1398.67 1650.11,1379.28 1653.11,1427.41 1656.11,1446.19 1659.11,1445.89 1662.1,1439.97 1665.1,1436.67 1668.1,1435.42 1671.09,1432.93 1674.09,1441.36 1677.09,1447.69 1680.08,1441.41 1683.08,1436.51 1686.08,1445.17 1689.07,1444.51 1692.07,1445.77 1695.07,1445.49 1698.06,1430.58 1701.06,1408.99 1704.06,1435.49 1707.05,1445.81 1710.05,1435.83 1713.05,1428.7 1716.05,1445.56 1719.04,1440.6 1722.04,1437.61 1725.04,1437.89 1728.03,1444.82 1731.03,1447.01 1734.03,1443.11 1737.02,1438.95 1740.02,1392.11 1743.02,1411.7 1746.01,1412.66 1749.01,1418.74 1752.01,1415.64 1755,1294.9 1758,924.607 1761,975.622 1763.99,641.861 1766.99,617.516 1769.99,595.927 1772.99,952.2 1775.98,1214.23 1778.98,1405.24 1781.98,1420.26 1784.97,1379.78 1787.97,1444.87 1790.97,1447.58 1793.96,1442.48 1796.96,1442.4 1799.96,1441.12 1802.95,1433.79 1805.95,1434.06 1808.95,1424.77 1811.94,1420.77 1814.94,1427.34 1817.94,1433.94 1820.94,1430.54 1823.93,1423.25 1826.93,1409.74 1829.93,1413.9 1832.92,1392.76 1835.92,1428.3 1838.92,1441.44 1841.91,1447.2 1844.91,1441.52 1847.91,1435.34 1850.9,1419.52 1853.9,1416.06 1856.9,1406.41 1859.89,1363.16 1862.89,1238.72 1865.89,1368.82 1868.88,1444.17 1871.88,1418.97 1874.88,1241.25 1877.88,1285.62 1880.87,1406.56 1883.87,1446.44 1886.87,1442.03 1889.86,1435.51 1892.86,1432.18 1895.86,1433.38 1898.85,1445.19 1901.85,1445.17 1904.85,1415.81 1907.84,1438.02 1910.84,1445.55 1913.84,1440.42 1916.83,1434.02 1919.83,1363.6 1922.83,1440.44 1925.82,1445.61 1928.82,1445.94 1931.82,1443.73 1934.82,1443.37 1937.81,1424.3 1940.81,1396.37 1943.81,1429.51 1946.8,1439.22 1949.8,1441.08 1952.8,1440.9 1955.79,1447 1958.79,1442.6 1961.79,1443.11 1964.78,1443.02 1967.78,1434.34 1970.78,1435.65 1973.77,1446.4 1976.77,1438.37 1979.77,1437.26 1982.76,1438.48 1985.76,1428.87 1988.76,1428.18 1991.76,1432.88 1994.75,1421.5 1997.75,1441.39 2000.75,1446.46 2003.74,1441.42 2006.74,1444.69 2009.74,1444.44 2012.73,1442.56 2015.73,1438.73 2018.73,1432.9 2021.72,1442.3 2024.72,1440.46 2027.72,1446.5 2030.71,1429.53 2033.71,1437.57 2036.71,1442.86 2039.71,1445.37 2042.7,1441.03 2045.7,1436.78 2048.7,1433.28 2051.69,1286.16 2054.69,1162.99 2057.69,1378.73 2060.68,1403.24 2063.68,1442.38 2066.68,1444.97 2069.67,1443.84 2072.67,1446.74 2075.67,1442.32 2078.66,1439.71 2081.66,1447.66 2084.66,1440.59 2087.65,1437.82 2090.65,1446.28 2093.65,1440.26 2096.65,1436.83 2099.64,1444.36 2102.64,1437.32 2105.64,1435.98 2108.63,1421.27 2111.63,1433.99 2114.63,1446.33 2117.62,1447.38 2120.62,1442.5 2123.62,1440.18 2126.61,1436.56 2129.61,1407.14 2132.61,1392.02 2135.6,1445.61 2138.6,1443.61 2141.6,1442.91 2144.59,1438.74 2147.59,1395.21 2150.59,1437.66 2153.59,1435.54 2156.58,1438.87 2159.58,1434.13 2162.58,1447.67 2165.57,1441.12 2168.57,1436.51 2171.57,1444.66 2174.56,1445.29 2177.56,1441.49 2180.56,1442.38 2183.55,1446.66 2186.55,1443.33 2189.55,1438.66 2192.54,1447.74 2195.54,1441.24 2198.54,1435.73 2201.53,1437.17 2204.53,1434.92 2207.53,1442.42 2210.53,1446.14 2213.52,1443.24 2216.52,1443.58 2219.52,1446.34 2222.51,1438.13 2225.51,1431.74 2228.51,1410.93 2231.5,1437.2 2234.5,1446.44 2237.5,1444.81 2240.49,1445.75 2243.49,1442.47 2246.49,1441.29 2249.48,1439.71 2252.48,1430.3 2255.48,1440.4 2258.48,1438.13 2261.47,1439.66 2264.47,1447.87 2267.47,1441.22 2270.46,1437.64 2273.46,1410.74 2276.46,1422.76 2279.45,1420.47 2282.45,1441.49 2285.45,1446.3 2288.44,1440.54 2291.44,1437.33 "/>
<path clip-path="url(#clip290)" d="M2011.46 324.425 L2280.54 324.425 L2280.54 168.905 L2011.46 168.905  Z" fill="#ffffff" fill-rule="evenodd" fill-opacity="1"/>
<polyline clip-path="url(#clip290)" style="stroke:#000000; stroke-linecap:round; stroke-linejoin:round; stroke-width:4; stroke-opacity:1; fill:none" points="2011.46,324.425 2280.54,324.425 2280.54,168.905 2011.46,168.905 2011.46,324.425 "/>
<polyline clip-path="url(#clip290)" style="stroke:#009af9; stroke-linecap:round; stroke-linejoin:round; stroke-width:4; stroke-opacity:1; fill:none" points="2035.53,220.745 2179.97,220.745 "/>
<path clip-path="url(#clip290)" d="M2217.88 240.432 Q2216.07 245.062 2214.36 246.474 Q2212.65 247.886 2209.78 247.886 L2206.38 247.886 L2206.38 244.321 L2208.88 244.321 Q2210.63 244.321 2211.61 243.488 Q2212.58 242.654 2213.76 239.552 L2214.52 237.608 L2204.04 212.099 L2208.55 212.099 L2216.65 232.377 L2224.76 212.099 L2229.27 212.099 L2217.88 240.432 Z" fill="#000000" fill-rule="nonzero" fill-opacity="1" /><path clip-path="url(#clip290)" d="M2236.56 234.089 L2244.2 234.089 L2244.2 207.724 L2235.89 209.391 L2235.89 205.131 L2244.15 203.465 L2248.83 203.465 L2248.83 234.089 L2256.47 234.089 L2256.47 238.025 L2236.56 238.025 L2236.56 234.089 Z" fill="#000000" fill-rule="nonzero" fill-opacity="1" /><polyline clip-path="url(#clip290)" style="stroke:#e26f46; stroke-linecap:round; stroke-linejoin:round; stroke-width:4; stroke-opacity:1; fill:none" points="2035.53,272.585 2179.97,272.585 "/>
<path clip-path="url(#clip290)" d="M2217.88 292.272 Q2216.07 296.902 2214.36 298.314 Q2212.65 299.726 2209.78 299.726 L2206.38 299.726 L2206.38 296.161 L2208.88 296.161 Q2210.63 296.161 2211.61 295.328 Q2212.58 294.494 2213.76 291.392 L2214.52 289.448 L2204.04 263.939 L2208.55 263.939 L2216.65 284.217 L2224.76 263.939 L2229.27 263.939 L2217.88 292.272 Z" fill="#000000" fill-rule="nonzero" fill-opacity="1" /><path clip-path="url(#clip290)" d="M2239.78 285.929 L2256.1 285.929 L2256.1 289.865 L2234.15 289.865 L2234.15 285.929 Q2236.82 283.175 2241.4 278.545 Q2246 273.893 2247.19 272.55 Q2249.43 270.027 2250.31 268.291 Q2251.21 266.531 2251.21 264.842 Q2251.21 262.087 2249.27 260.351 Q2247.35 258.615 2244.25 258.615 Q2242.05 258.615 2239.59 259.379 Q2237.16 260.143 2234.38 261.694 L2234.38 256.971 Q2237.21 255.837 2239.66 255.258 Q2242.12 254.68 2244.15 254.68 Q2249.52 254.68 2252.72 257.365 Q2255.91 260.05 2255.91 264.541 Q2255.91 266.67 2255.1 268.592 Q2254.32 270.49 2252.21 273.082 Q2251.63 273.754 2248.53 276.971 Q2245.43 280.166 2239.78 285.929 Z" fill="#000000" fill-rule="nonzero" fill-opacity="1" /></svg>
