<?xml version="1.0" encoding="utf-8"?>
<svg xmlns="http://www.w3.org/2000/svg" xmlns:xlink="http://www.w3.org/1999/xlink" width="600" height="400" viewBox="0 0 2400 1600">
<defs>
  <clipPath id="clip340">
    <rect x="0" y="0" width="2400" height="1600"/>
  </clipPath>
</defs>
<path clip-path="url(#clip340)" d="M0 1600 L2400 1600 L2400 0 L0 0  Z" fill="#ffffff" fill-rule="evenodd" fill-opacity="1"/>
<defs>
  <clipPath id="clip341">
    <rect x="480" y="0" width="1681" height="1600"/>
  </clipPath>
</defs>
<path clip-path="url(#clip340)" d="M192.941 1486.45 L1152.26 1486.45 L1152.26 47.2441 L192.941 47.2441  Z" fill="#ffffff" fill-rule="evenodd" fill-opacity="1"/>
<defs>
  <clipPath id="clip342">
    <rect x="192" y="47" width="960" height="1440"/>
  </clipPath>
</defs>
<polyline clip-path="url(#clip342)" style="stroke:#000000; stroke-linecap:round; stroke-linejoin:round; stroke-width:2; stroke-opacity:0.1; fill:none" points="208.635,1486.45 208.635,47.2441 "/>
<polyline clip-path="url(#clip342)" style="stroke:#000000; stroke-linecap:round; stroke-linejoin:round; stroke-width:2; stroke-opacity:0.1; fill:none" points="437.753,1486.45 437.753,47.2441 "/>
<polyline clip-path="url(#clip342)" style="stroke:#000000; stroke-linecap:round; stroke-linejoin:round; stroke-width:2; stroke-opacity:0.1; fill:none" points="666.871,1486.45 666.871,47.2441 "/>
<polyline clip-path="url(#clip342)" style="stroke:#000000; stroke-linecap:round; stroke-linejoin:round; stroke-width:2; stroke-opacity:0.1; fill:none" points="895.99,1486.45 895.99,47.2441 "/>
<polyline clip-path="url(#clip342)" style="stroke:#000000; stroke-linecap:round; stroke-linejoin:round; stroke-width:2; stroke-opacity:0.1; fill:none" points="1125.11,1486.45 1125.11,47.2441 "/>
<polyline clip-path="url(#clip342)" style="stroke:#000000; stroke-linecap:round; stroke-linejoin:round; stroke-width:2; stroke-opacity:0.1; fill:none" points="192.941,1226.5 1152.26,1226.5 "/>
<polyline clip-path="url(#clip342)" style="stroke:#000000; stroke-linecap:round; stroke-linejoin:round; stroke-width:2; stroke-opacity:0.1; fill:none" points="192.941,923.925 1152.26,923.925 "/>
<polyline clip-path="url(#clip342)" style="stroke:#000000; stroke-linecap:round; stroke-linejoin:round; stroke-width:2; stroke-opacity:0.1; fill:none" points="192.941,621.347 1152.26,621.347 "/>
<polyline clip-path="url(#clip342)" style="stroke:#000000; stroke-linecap:round; stroke-linejoin:round; stroke-width:2; stroke-opacity:0.1; fill:none" points="192.941,318.768 1152.26,318.768 "/>
<polyline clip-path="url(#clip340)" style="stroke:#000000; stroke-linecap:round; stroke-linejoin:round; stroke-width:4; stroke-opacity:1; fill:none" points="192.941,1486.45 1152.26,1486.45 "/>
<polyline clip-path="url(#clip340)" style="stroke:#000000; stroke-linecap:round; stroke-linejoin:round; stroke-width:4; stroke-opacity:1; fill:none" points="208.635,1486.45 208.635,1467.55 "/>
<polyline clip-path="url(#clip340)" style="stroke:#000000; stroke-linecap:round; stroke-linejoin:round; stroke-width:4; stroke-opacity:1; fill:none" points="437.753,1486.45 437.753,1467.55 "/>
<polyline clip-path="url(#clip340)" style="stroke:#000000; stroke-linecap:round; stroke-linejoin:round; stroke-width:4; stroke-opacity:1; fill:none" points="666.871,1486.45 666.871,1467.55 "/>
<polyline clip-path="url(#clip340)" style="stroke:#000000; stroke-linecap:round; stroke-linejoin:round; stroke-width:4; stroke-opacity:1; fill:none" points="895.99,1486.45 895.99,1467.55 "/>
<polyline clip-path="url(#clip340)" style="stroke:#000000; stroke-linecap:round; stroke-linejoin:round; stroke-width:4; stroke-opacity:1; fill:none" points="1125.11,1486.45 1125.11,1467.55 "/>
<path clip-path="url(#clip340)" d="M208.635 1517.37 Q205.024 1517.37 203.195 1520.93 Q201.39 1524.47 201.39 1531.6 Q201.39 1538.71 203.195 1542.27 Q205.024 1545.82 208.635 1545.82 Q212.269 1545.82 214.075 1542.27 Q215.904 1538.71 215.904 1531.6 Q215.904 1524.47 214.075 1520.93 Q212.269 1517.37 208.635 1517.37 M208.635 1513.66 Q214.445 1513.66 217.501 1518.27 Q220.58 1522.85 220.58 1531.6 Q220.58 1540.33 217.501 1544.94 Q214.445 1549.52 208.635 1549.52 Q202.825 1549.52 199.746 1544.94 Q196.691 1540.33 196.691 1531.6 Q196.691 1522.85 199.746 1518.27 Q202.825 1513.66 208.635 1513.66 Z" fill="#000000" fill-rule="nonzero" fill-opacity="1" /><path clip-path="url(#clip340)" d="M416.527 1544.91 L432.846 1544.91 L432.846 1548.85 L410.902 1548.85 L410.902 1544.91 Q413.564 1542.16 418.147 1537.53 Q422.753 1532.88 423.934 1531.53 Q426.179 1529.01 427.059 1527.27 Q427.962 1525.51 427.962 1523.82 Q427.962 1521.07 426.017 1519.33 Q424.096 1517.6 420.994 1517.6 Q418.795 1517.6 416.341 1518.36 Q413.911 1519.13 411.133 1520.68 L411.133 1515.95 Q413.957 1514.82 416.411 1514.24 Q418.865 1513.66 420.902 1513.66 Q426.272 1513.66 429.466 1516.35 Q432.661 1519.03 432.661 1523.52 Q432.661 1525.65 431.851 1527.57 Q431.064 1529.47 428.957 1532.07 Q428.378 1532.74 425.277 1535.95 Q422.175 1539.15 416.527 1544.91 Z" fill="#000000" fill-rule="nonzero" fill-opacity="1" /><path clip-path="url(#clip340)" d="M452.661 1517.37 Q449.05 1517.37 447.221 1520.93 Q445.415 1524.47 445.415 1531.6 Q445.415 1538.71 447.221 1542.27 Q449.05 1545.82 452.661 1545.82 Q456.295 1545.82 458.1 1542.27 Q459.929 1538.71 459.929 1531.6 Q459.929 1524.47 458.1 1520.93 Q456.295 1517.37 452.661 1517.37 M452.661 1513.66 Q458.471 1513.66 461.526 1518.27 Q464.605 1522.85 464.605 1531.6 Q464.605 1540.33 461.526 1544.94 Q458.471 1549.52 452.661 1549.52 Q446.851 1549.52 443.772 1544.94 Q440.716 1540.33 440.716 1531.6 Q440.716 1522.85 443.772 1518.27 Q446.851 1513.66 452.661 1513.66 Z" fill="#000000" fill-rule="nonzero" fill-opacity="1" /><path clip-path="url(#clip340)" d="M655.043 1518.36 L643.237 1536.81 L655.043 1536.81 L655.043 1518.36 M653.816 1514.29 L659.696 1514.29 L659.696 1536.81 L664.626 1536.81 L664.626 1540.7 L659.696 1540.7 L659.696 1548.85 L655.043 1548.85 L655.043 1540.7 L639.441 1540.7 L639.441 1536.19 L653.816 1514.29 Z" fill="#000000" fill-rule="nonzero" fill-opacity="1" /><path clip-path="url(#clip340)" d="M682.358 1517.37 Q678.746 1517.37 676.918 1520.93 Q675.112 1524.47 675.112 1531.6 Q675.112 1538.71 676.918 1542.27 Q678.746 1545.82 682.358 1545.82 Q685.992 1545.82 687.797 1542.27 Q689.626 1538.71 689.626 1531.6 Q689.626 1524.47 687.797 1520.93 Q685.992 1517.37 682.358 1517.37 M682.358 1513.66 Q688.168 1513.66 691.223 1518.27 Q694.302 1522.85 694.302 1531.6 Q694.302 1540.33 691.223 1544.94 Q688.168 1549.52 682.358 1549.52 Q676.547 1549.52 673.469 1544.94 Q670.413 1540.33 670.413 1531.6 Q670.413 1522.85 673.469 1518.27 Q676.547 1513.66 682.358 1513.66 Z" fill="#000000" fill-rule="nonzero" fill-opacity="1" /><path clip-path="url(#clip340)" d="M881.395 1529.7 Q878.247 1529.7 876.395 1531.86 Q874.566 1534.01 874.566 1537.76 Q874.566 1541.49 876.395 1543.66 Q878.247 1545.82 881.395 1545.82 Q884.543 1545.82 886.372 1543.66 Q888.223 1541.49 888.223 1537.76 Q888.223 1534.01 886.372 1531.86 Q884.543 1529.7 881.395 1529.7 M890.677 1515.05 L890.677 1519.31 Q888.918 1518.48 887.112 1518.04 Q885.33 1517.6 883.571 1517.6 Q878.941 1517.6 876.487 1520.72 Q874.057 1523.85 873.71 1530.17 Q875.075 1528.15 877.136 1527.09 Q879.196 1526 881.673 1526 Q886.881 1526 889.89 1529.17 Q892.922 1532.32 892.922 1537.76 Q892.922 1543.08 889.774 1546.3 Q886.626 1549.52 881.395 1549.52 Q875.399 1549.52 872.228 1544.94 Q869.057 1540.33 869.057 1531.6 Q869.057 1523.41 872.946 1518.55 Q876.835 1513.66 883.386 1513.66 Q885.145 1513.66 886.927 1514.01 Q888.733 1514.36 890.677 1515.05 Z" fill="#000000" fill-rule="nonzero" fill-opacity="1" /><path clip-path="url(#clip340)" d="M910.978 1517.37 Q907.367 1517.37 905.538 1520.93 Q903.733 1524.47 903.733 1531.6 Q903.733 1538.71 905.538 1542.27 Q907.367 1545.82 910.978 1545.82 Q914.612 1545.82 916.418 1542.27 Q918.246 1538.71 918.246 1531.6 Q918.246 1524.47 916.418 1520.93 Q914.612 1517.37 910.978 1517.37 M910.978 1513.66 Q916.788 1513.66 919.844 1518.27 Q922.922 1522.85 922.922 1531.6 Q922.922 1540.33 919.844 1544.94 Q916.788 1549.52 910.978 1549.52 Q905.168 1549.52 902.089 1544.94 Q899.034 1540.33 899.034 1531.6 Q899.034 1522.85 902.089 1518.27 Q905.168 1513.66 910.978 1513.66 Z" fill="#000000" fill-rule="nonzero" fill-opacity="1" /><path clip-path="url(#clip340)" d="M1109.98 1532.44 Q1106.65 1532.44 1104.73 1534.22 Q1102.83 1536 1102.83 1539.13 Q1102.83 1542.25 1104.73 1544.03 Q1106.65 1545.82 1109.98 1545.82 Q1113.31 1545.82 1115.24 1544.03 Q1117.16 1542.23 1117.16 1539.13 Q1117.16 1536 1115.24 1534.22 Q1113.34 1532.44 1109.98 1532.44 M1105.3 1530.45 Q1102.3 1529.7 1100.61 1527.64 Q1098.94 1525.58 1098.94 1522.62 Q1098.94 1518.48 1101.88 1516.07 Q1104.84 1513.66 1109.98 1513.66 Q1115.14 1513.66 1118.08 1516.07 Q1121.02 1518.48 1121.02 1522.62 Q1121.02 1525.58 1119.33 1527.64 Q1117.67 1529.7 1114.68 1530.45 Q1118.06 1531.23 1119.93 1533.52 Q1121.83 1535.82 1121.83 1539.13 Q1121.83 1544.15 1118.75 1546.83 Q1115.7 1549.52 1109.98 1549.52 Q1104.26 1549.52 1101.18 1546.83 Q1098.13 1544.15 1098.13 1539.13 Q1098.13 1535.82 1100.03 1533.52 Q1101.92 1531.23 1105.3 1530.45 M1103.59 1523.06 Q1103.59 1525.75 1105.26 1527.25 Q1106.95 1528.76 1109.98 1528.76 Q1112.99 1528.76 1114.68 1527.25 Q1116.39 1525.75 1116.39 1523.06 Q1116.39 1520.38 1114.68 1518.87 Q1112.99 1517.37 1109.98 1517.37 Q1106.95 1517.37 1105.26 1518.87 Q1103.59 1520.38 1103.59 1523.06 Z" fill="#000000" fill-rule="nonzero" fill-opacity="1" /><path clip-path="url(#clip340)" d="M1140.14 1517.37 Q1136.53 1517.37 1134.7 1520.93 Q1132.9 1524.47 1132.9 1531.6 Q1132.9 1538.71 1134.7 1542.27 Q1136.53 1545.82 1140.14 1545.82 Q1143.78 1545.82 1145.58 1542.27 Q1147.41 1538.71 1147.41 1531.6 Q1147.41 1524.47 1145.58 1520.93 Q1143.78 1517.37 1140.14 1517.37 M1140.14 1513.66 Q1145.95 1513.66 1149.01 1518.27 Q1152.09 1522.85 1152.09 1531.6 Q1152.09 1540.33 1149.01 1544.94 Q1145.95 1549.52 1140.14 1549.52 Q1134.33 1549.52 1131.25 1544.94 Q1128.2 1540.33 1128.2 1531.6 Q1128.2 1522.85 1131.25 1518.27 Q1134.33 1513.66 1140.14 1513.66 Z" fill="#000000" fill-rule="nonzero" fill-opacity="1" /><polyline clip-path="url(#clip340)" style="stroke:#000000; stroke-linecap:round; stroke-linejoin:round; stroke-width:4; stroke-opacity:1; fill:none" points="192.941,1486.45 192.941,47.2441 "/>
<polyline clip-path="url(#clip340)" style="stroke:#000000; stroke-linecap:round; stroke-linejoin:round; stroke-width:4; stroke-opacity:1; fill:none" points="192.941,1226.5 211.838,1226.5 "/>
<polyline clip-path="url(#clip340)" style="stroke:#000000; stroke-linecap:round; stroke-linejoin:round; stroke-width:4; stroke-opacity:1; fill:none" points="192.941,923.925 211.838,923.925 "/>
<polyline clip-path="url(#clip340)" style="stroke:#000000; stroke-linecap:round; stroke-linejoin:round; stroke-width:4; stroke-opacity:1; fill:none" points="192.941,621.347 211.838,621.347 "/>
<polyline clip-path="url(#clip340)" style="stroke:#000000; stroke-linecap:round; stroke-linejoin:round; stroke-width:4; stroke-opacity:1; fill:none" points="192.941,318.768 211.838,318.768 "/>
<path clip-path="url(#clip340)" d="M50.9921 1226.95 L80.6679 1226.95 L80.6679 1230.89 L50.9921 1230.89 L50.9921 1226.95 Z" fill="#000000" fill-rule="nonzero" fill-opacity="1" /><path clip-path="url(#clip340)" d="M100.76 1212.3 Q97.1493 1212.3 95.3206 1215.87 Q93.515 1219.41 93.515 1226.54 Q93.515 1233.64 95.3206 1237.21 Q97.1493 1240.75 100.76 1240.75 Q104.395 1240.75 106.2 1237.21 Q108.029 1233.64 108.029 1226.54 Q108.029 1219.41 106.2 1215.87 Q104.395 1212.3 100.76 1212.3 M100.76 1208.6 Q106.571 1208.6 109.626 1213.2 Q112.705 1217.79 112.705 1226.54 Q112.705 1235.26 109.626 1239.87 Q106.571 1244.45 100.76 1244.45 Q94.9502 1244.45 91.8715 1239.87 Q88.816 1235.26 88.816 1226.54 Q88.816 1217.79 91.8715 1213.2 Q94.9502 1208.6 100.76 1208.6 Z" fill="#000000" fill-rule="nonzero" fill-opacity="1" /><path clip-path="url(#clip340)" d="M120.922 1237.9 L125.807 1237.9 L125.807 1243.78 L120.922 1243.78 L120.922 1237.9 Z" fill="#000000" fill-rule="nonzero" fill-opacity="1" /><path clip-path="url(#clip340)" d="M136.038 1209.22 L154.394 1209.22 L154.394 1213.16 L140.32 1213.16 L140.32 1221.63 Q141.339 1221.28 142.357 1221.12 Q143.376 1220.94 144.394 1220.94 Q150.181 1220.94 153.561 1224.11 Q156.941 1227.28 156.941 1232.7 Q156.941 1238.27 153.468 1241.38 Q149.996 1244.45 143.677 1244.45 Q141.501 1244.45 139.232 1244.08 Q136.987 1243.71 134.58 1242.97 L134.58 1238.27 Q136.663 1239.41 138.885 1239.96 Q141.107 1240.52 143.584 1240.52 Q147.589 1240.52 149.927 1238.41 Q152.265 1236.31 152.265 1232.7 Q152.265 1229.08 149.927 1226.98 Q147.589 1224.87 143.584 1224.87 Q141.709 1224.87 139.834 1225.29 Q137.982 1225.7 136.038 1226.58 L136.038 1209.22 Z" fill="#000000" fill-rule="nonzero" fill-opacity="1" /><path clip-path="url(#clip340)" d="M99.765 909.723 Q96.1539 909.723 94.3252 913.288 Q92.5197 916.83 92.5197 923.96 Q92.5197 931.066 94.3252 934.631 Q96.1539 938.172 99.765 938.172 Q103.399 938.172 105.205 934.631 Q107.033 931.066 107.033 923.96 Q107.033 916.83 105.205 913.288 Q103.399 909.723 99.765 909.723 M99.765 906.02 Q105.575 906.02 108.631 910.626 Q111.709 915.21 111.709 923.96 Q111.709 932.686 108.631 937.293 Q105.575 941.876 99.765 941.876 Q93.9549 941.876 90.8762 937.293 Q87.8206 932.686 87.8206 923.96 Q87.8206 915.21 90.8762 910.626 Q93.9549 906.02 99.765 906.02 Z" fill="#000000" fill-rule="nonzero" fill-opacity="1" /><path clip-path="url(#clip340)" d="M119.927 935.325 L124.811 935.325 L124.811 941.205 L119.927 941.205 L119.927 935.325 Z" fill="#000000" fill-rule="nonzero" fill-opacity="1" /><path clip-path="url(#clip340)" d="M144.996 909.723 Q141.385 909.723 139.556 913.288 Q137.751 916.83 137.751 923.96 Q137.751 931.066 139.556 934.631 Q141.385 938.172 144.996 938.172 Q148.63 938.172 150.436 934.631 Q152.265 931.066 152.265 923.96 Q152.265 916.83 150.436 913.288 Q148.63 909.723 144.996 909.723 M144.996 906.02 Q150.806 906.02 153.862 910.626 Q156.941 915.21 156.941 923.96 Q156.941 932.686 153.862 937.293 Q150.806 941.876 144.996 941.876 Q139.186 941.876 136.107 937.293 Q133.052 932.686 133.052 923.96 Q133.052 915.21 136.107 910.626 Q139.186 906.02 144.996 906.02 Z" fill="#000000" fill-rule="nonzero" fill-opacity="1" /><path clip-path="url(#clip340)" d="M100.76 607.145 Q97.1493 607.145 95.3206 610.71 Q93.515 614.252 93.515 621.381 Q93.515 628.488 95.3206 632.053 Q97.1493 635.594 100.76 635.594 Q104.395 635.594 106.2 632.053 Q108.029 628.488 108.029 621.381 Q108.029 614.252 106.2 610.71 Q104.395 607.145 100.76 607.145 M100.76 603.442 Q106.571 603.442 109.626 608.048 Q112.705 612.631 112.705 621.381 Q112.705 630.108 109.626 634.715 Q106.571 639.298 100.76 639.298 Q94.9502 639.298 91.8715 634.715 Q88.816 630.108 88.816 621.381 Q88.816 612.631 91.8715 608.048 Q94.9502 603.442 100.76 603.442 Z" fill="#000000" fill-rule="nonzero" fill-opacity="1" /><path clip-path="url(#clip340)" d="M120.922 632.747 L125.807 632.747 L125.807 638.627 L120.922 638.627 L120.922 632.747 Z" fill="#000000" fill-rule="nonzero" fill-opacity="1" /><path clip-path="url(#clip340)" d="M136.038 604.067 L154.394 604.067 L154.394 608.002 L140.32 608.002 L140.32 616.474 Q141.339 616.127 142.357 615.965 Q143.376 615.78 144.394 615.78 Q150.181 615.78 153.561 618.951 Q156.941 622.122 156.941 627.539 Q156.941 633.117 153.468 636.219 Q149.996 639.298 143.677 639.298 Q141.501 639.298 139.232 638.928 Q136.987 638.557 134.58 637.816 L134.58 633.117 Q136.663 634.252 138.885 634.807 Q141.107 635.363 143.584 635.363 Q147.589 635.363 149.927 633.256 Q152.265 631.15 152.265 627.539 Q152.265 623.928 149.927 621.821 Q147.589 619.715 143.584 619.715 Q141.709 619.715 139.834 620.131 Q137.982 620.548 136.038 621.428 L136.038 604.067 Z" fill="#000000" fill-rule="nonzero" fill-opacity="1" /><path clip-path="url(#clip340)" d="M90.5752 332.113 L98.2141 332.113 L98.2141 305.748 L89.904 307.414 L89.904 303.155 L98.1678 301.488 L102.844 301.488 L102.844 332.113 L110.483 332.113 L110.483 336.048 L90.5752 336.048 L90.5752 332.113 Z" fill="#000000" fill-rule="nonzero" fill-opacity="1" /><path clip-path="url(#clip340)" d="M119.927 330.169 L124.811 330.169 L124.811 336.048 L119.927 336.048 L119.927 330.169 Z" fill="#000000" fill-rule="nonzero" fill-opacity="1" /><path clip-path="url(#clip340)" d="M144.996 304.567 Q141.385 304.567 139.556 308.132 Q137.751 311.674 137.751 318.803 Q137.751 325.91 139.556 329.474 Q141.385 333.016 144.996 333.016 Q148.63 333.016 150.436 329.474 Q152.265 325.91 152.265 318.803 Q152.265 311.674 150.436 308.132 Q148.63 304.567 144.996 304.567 M144.996 300.863 Q150.806 300.863 153.862 305.47 Q156.941 310.053 156.941 318.803 Q156.941 327.53 153.862 332.136 Q150.806 336.72 144.996 336.72 Q139.186 336.72 136.107 332.136 Q133.052 327.53 133.052 318.803 Q133.052 310.053 136.107 305.47 Q139.186 300.863 144.996 300.863 Z" fill="#000000" fill-rule="nonzero" fill-opacity="1" /><polyline clip-path="url(#clip342)" style="stroke:#009af9; stroke-linecap:round; stroke-linejoin:round; stroke-width:4; stroke-opacity:1; fill:none" points="220.091,856.058 231.547,831.165 243.003,897.295 254.459,1000.23 265.915,910.355 277.371,858.794 288.827,889.568 300.282,890.38 311.738,917.186 323.194,868.899 334.65,865.663 346.106,906.944 357.562,945.448 369.018,918.835 380.474,827.803 391.93,889.927 403.386,766.825 414.842,700.647 426.297,695.918 437.753,703.098 449.209,721.821 460.665,722.228 472.121,762.989 483.577,784.697 495.033,804.196 506.489,877.704 517.945,818.172 529.401,849.86 540.857,1028.84 552.312,1021.99 563.768,949.436 575.224,963.41 586.68,940.341 598.136,977.364 609.592,983.338 621.048,998.064 632.504,1048.83 643.96,1026.59 655.416,1050.22 666.871,959.274 678.327,968.431 689.783,1104.74 701.239,1148.22 712.695,1142.42 724.151,1217.72 735.607,1259.57 747.063,1321.21 758.519,1413.36 769.975,1365.58 781.431,1417.47 792.886,1399.26 804.342,1359.21 815.798,1406.3 827.254,1327.9 838.71,1310.85 850.166,1182.7 861.622,1119.1 873.078,917.284 884.534,835.156 895.99,696.648 907.446,625.891 918.901,587.912 930.357,496.853 941.813,446.527 953.269,314.59 964.725,361.791 976.181,241.938 987.637,221.29 999.093,230.773 1010.55,243.752 1022,313.248 1033.46,290.137 1044.92,369.584 1056.37,382.646 1067.83,434.932 1079.28,681.934 1090.74,750.707 1102.2,693.125 1113.65,591.994 1125.11,513.725 "/>
<polyline clip-path="url(#clip342)" style="stroke:#e26f46; stroke-linecap:round; stroke-linejoin:round; stroke-width:4; stroke-opacity:1; fill:none" points="220.091,868.725 231.547,837.963 243.003,900.071 254.459,1015.71 265.915,926.871 277.371,873.245 288.827,905.959 300.282,902.909 311.738,930.292 323.194,874.228 334.65,879.314 346.106,925.654 357.562,974.253 369.018,955.095 380.474,859.172 391.93,923.773 403.386,789.747 414.842,713.334 426.297,705.209 437.753,708.425 449.209,724.703 460.665,730.264 472.121,777.236 483.577,794.541 495.033,818.243 506.489,890.525 517.945,817.9 529.401,844.07 540.857,1015.03 552.312,1008.62 563.768,933.764 575.224,945.657 586.68,929.836 598.136,971.986 609.592,982.095 621.048,990.706 632.504,1042 643.96,1015.27 655.416,1041.1 666.871,937.147 678.327,941.414 689.783,1077.85 701.239,1131.66 712.695,1135.55 724.151,1208.16 735.607,1253.55 747.063,1314.28 758.519,1412.98 769.975,1371.23 781.431,1410.62 792.886,1379.01 804.342,1341.55 815.798,1382.48 827.254,1316.55 838.71,1293.8 850.166,1172.72 861.622,1108.05 873.078,906.382 884.534,821.211 895.99,690.892 907.446,610.102 918.901,562.521 930.357,469.2 941.813,420.563 953.269,287.908 964.725,334.357 976.181,216.289 987.637,200.46 999.093,212.287 1010.55,228.036 1022,292.956 1033.46,277.532 1044.92,358.828 1056.37,361.356 1067.83,409.271 1079.28,654.711 1090.74,731.571 1102.2,685.781 1113.65,581.443 1125.11,501.837 "/>
<polyline clip-path="url(#clip342)" style="stroke:#3da44d; stroke-linecap:round; stroke-linejoin:round; stroke-width:4; stroke-opacity:1; fill:none" points="220.091,877.073 231.547,815.562 243.003,928.212 254.459,1018.57 265.915,840.476 277.371,930.064 288.827,890.664 300.282,878.361 311.738,962.57 323.194,871.068 334.65,988.601 346.106,963.35 357.562,1018.38 369.018,1034.89 380.474,1076.85 391.93,1120.98 403.386,959.455 414.842,859.79 426.297,782.752 437.753,753.214 449.209,849.319 460.665,882.719 472.121,845.971 483.577,820.86 495.033,887.159 506.489,1026.98 517.945,985.247 529.401,1037.21 540.857,1243.49 552.312,1186.84 563.768,1182.91 575.224,1259.44 586.68,1359.79 598.136,1394.86 609.592,1407.21 621.048,1271.84 632.504,1236.23 643.96,1304.11 655.416,1261.98 666.871,1160.28 678.327,1213.07 689.783,1299.86 701.239,1309.48 712.695,1233.43 724.151,1331.5 735.607,1443.81 747.063,1445.72 758.519,1429.75 769.975,1369.29 781.431,1308.23 792.886,1265.66 804.342,1240.31 815.798,1329.21 827.254,1305.49 838.71,1300.89 850.166,1059.88 861.622,1112.95 873.078,932.627 884.534,817.395 895.99,711.996 907.446,719.827 918.901,586.719 930.357,544.453 941.813,605.234 953.269,404.459 964.725,415.983 976.181,324.376 987.637,301.988 999.093,178.832 1010.55,110.63 1022,156.234 1033.46,87.9763 1044.92,218.892 1056.37,228.642 1067.83,240.632 1079.28,436.284 1090.74,517.237 1102.2,402.048 1113.65,345.831 1125.11,192.896 "/>
<path clip-path="url(#clip340)" d="M224.918 302.578 L682.514 302.578 L682.514 95.2176 L224.918 95.2176  Z" fill="#ffffff" fill-rule="evenodd" fill-opacity="1"/>
<polyline clip-path="url(#clip340)" style="stroke:#000000; stroke-linecap:round; stroke-linejoin:round; stroke-width:4; stroke-opacity:1; fill:none" points="224.918,302.578 682.514,302.578 682.514,95.2176 224.918,95.2176 224.918,302.578 "/>
<polyline clip-path="url(#clip340)" style="stroke:#009af9; stroke-linecap:round; stroke-linejoin:round; stroke-width:4; stroke-opacity:1; fill:none" points="235.577,147.058 299.531,147.058 "/>
<path clip-path="url(#clip340)" d="M310.191 129.778 L314.866 129.778 L314.866 144.384 L330.376 129.778 L336.394 129.778 L319.241 145.889 L337.621 164.338 L331.464 164.338 L314.866 147.694 L314.866 164.338 L310.191 164.338 L310.191 129.778 Z" fill="#000000" fill-rule="nonzero" fill-opacity="1" /><path clip-path="url(#clip340)" d="M352.042 151.305 Q346.88 151.305 344.889 152.486 Q342.899 153.666 342.899 156.514 Q342.899 158.782 344.38 160.125 Q345.885 161.444 348.454 161.444 Q351.996 161.444 354.126 158.944 Q356.278 156.421 356.278 152.254 L356.278 151.305 L352.042 151.305 M360.538 149.546 L360.538 164.338 L356.278 164.338 L356.278 160.402 Q354.82 162.763 352.644 163.898 Q350.468 165.009 347.32 165.009 Q343.339 165.009 340.977 162.787 Q338.639 160.541 338.639 156.791 Q338.639 152.416 341.556 150.194 Q344.496 147.972 350.306 147.972 L356.278 147.972 L356.278 147.555 Q356.278 144.615 354.334 143.018 Q352.413 141.398 348.917 141.398 Q346.695 141.398 344.589 141.93 Q342.482 142.463 340.538 143.527 L340.538 139.592 Q342.876 138.69 345.075 138.25 Q347.274 137.787 349.357 137.787 Q354.982 137.787 357.76 140.703 Q360.538 143.62 360.538 149.546 Z" fill="#000000" fill-rule="nonzero" fill-opacity="1" /><path clip-path="url(#clip340)" d="M369.311 128.319 L373.57 128.319 L373.57 164.338 L369.311 164.338 L369.311 128.319 Z" fill="#000000" fill-rule="nonzero" fill-opacity="1" /><path clip-path="url(#clip340)" d="M402.667 143.389 Q404.264 140.518 406.486 139.153 Q408.709 137.787 411.718 137.787 Q415.769 137.787 417.968 140.634 Q420.167 143.458 420.167 148.689 L420.167 164.338 L415.884 164.338 L415.884 148.828 Q415.884 145.102 414.565 143.296 Q413.246 141.49 410.537 141.49 Q407.227 141.49 405.306 143.69 Q403.385 145.889 403.385 149.685 L403.385 164.338 L399.102 164.338 L399.102 148.828 Q399.102 145.078 397.783 143.296 Q396.463 141.49 393.709 141.49 Q390.445 141.49 388.523 143.713 Q386.602 145.912 386.602 149.685 L386.602 164.338 L382.32 164.338 L382.32 138.412 L386.602 138.412 L386.602 142.44 Q388.061 140.055 390.098 138.921 Q392.135 137.787 394.935 137.787 Q397.76 137.787 399.727 139.222 Q401.718 140.657 402.667 143.389 Z" fill="#000000" fill-rule="nonzero" fill-opacity="1" /><path clip-path="url(#clip340)" d="M440.444 151.305 Q435.282 151.305 433.292 152.486 Q431.301 153.666 431.301 156.514 Q431.301 158.782 432.782 160.125 Q434.287 161.444 436.857 161.444 Q440.398 161.444 442.528 158.944 Q444.681 156.421 444.681 152.254 L444.681 151.305 L440.444 151.305 M448.94 149.546 L448.94 164.338 L444.681 164.338 L444.681 160.402 Q443.222 162.763 441.046 163.898 Q438.87 165.009 435.722 165.009 Q431.741 165.009 429.38 162.787 Q427.042 160.541 427.042 156.791 Q427.042 152.416 429.958 150.194 Q432.898 147.972 438.708 147.972 L444.681 147.972 L444.681 147.555 Q444.681 144.615 442.736 143.018 Q440.815 141.398 437.32 141.398 Q435.097 141.398 432.991 141.93 Q430.884 142.463 428.94 143.527 L428.94 139.592 Q431.278 138.69 433.477 138.25 Q435.676 137.787 437.759 137.787 Q443.384 137.787 446.162 140.703 Q448.94 143.62 448.94 149.546 Z" fill="#000000" fill-rule="nonzero" fill-opacity="1" /><path clip-path="url(#clip340)" d="M479.264 148.689 L479.264 164.338 L475.004 164.338 L475.004 148.828 Q475.004 145.148 473.569 143.319 Q472.134 141.49 469.264 141.49 Q465.815 141.49 463.824 143.69 Q461.833 145.889 461.833 149.685 L461.833 164.338 L457.551 164.338 L457.551 138.412 L461.833 138.412 L461.833 142.44 Q463.361 140.102 465.421 138.944 Q467.505 137.787 470.213 137.787 Q474.68 137.787 476.972 140.565 Q479.264 143.319 479.264 148.689 Z" fill="#000000" fill-rule="nonzero" fill-opacity="1" /><path clip-path="url(#clip340)" d="M519.356 139.176 L519.356 143.203 Q517.551 142.277 515.606 141.815 Q513.662 141.352 511.578 141.352 Q508.407 141.352 506.81 142.324 Q505.236 143.296 505.236 145.24 Q505.236 146.722 506.37 147.578 Q507.504 148.412 510.93 149.176 L512.389 149.5 Q516.926 150.472 518.824 152.254 Q520.745 154.014 520.745 157.185 Q520.745 160.796 517.875 162.902 Q515.027 165.009 510.027 165.009 Q507.944 165.009 505.676 164.592 Q503.43 164.199 500.93 163.388 L500.93 158.99 Q503.291 160.217 505.583 160.842 Q507.875 161.444 510.12 161.444 Q513.129 161.444 514.75 160.426 Q516.37 159.384 516.37 157.509 Q516.37 155.773 515.189 154.847 Q514.032 153.921 510.074 153.064 L508.592 152.717 Q504.634 151.884 502.875 150.171 Q501.115 148.435 501.115 145.426 Q501.115 141.768 503.708 139.778 Q506.301 137.787 511.069 137.787 Q513.43 137.787 515.514 138.134 Q517.597 138.481 519.356 139.176 Z" fill="#000000" fill-rule="nonzero" fill-opacity="1" /><path clip-path="url(#clip340)" d="M547.712 143.389 Q549.31 140.518 551.532 139.153 Q553.754 137.787 556.763 137.787 Q560.814 137.787 563.013 140.634 Q565.212 143.458 565.212 148.689 L565.212 164.338 L560.93 164.338 L560.93 148.828 Q560.93 145.102 559.611 143.296 Q558.291 141.49 555.583 141.49 Q552.273 141.49 550.351 143.69 Q548.43 145.889 548.43 149.685 L548.43 164.338 L544.148 164.338 L544.148 148.828 Q544.148 145.078 542.828 143.296 Q541.509 141.49 538.754 141.49 Q535.49 141.49 533.569 143.713 Q531.648 145.912 531.648 149.685 L531.648 164.338 L527.365 164.338 L527.365 138.412 L531.648 138.412 L531.648 142.44 Q533.106 140.055 535.143 138.921 Q537.18 137.787 539.981 137.787 Q542.805 137.787 544.773 139.222 Q546.763 140.657 547.712 143.389 Z" fill="#000000" fill-rule="nonzero" fill-opacity="1" /><path clip-path="url(#clip340)" d="M583.754 141.398 Q580.328 141.398 578.337 144.083 Q576.347 146.745 576.347 151.398 Q576.347 156.051 578.314 158.736 Q580.305 161.398 583.754 161.398 Q587.157 161.398 589.147 158.713 Q591.138 156.027 591.138 151.398 Q591.138 146.791 589.147 144.106 Q587.157 141.398 583.754 141.398 M583.754 137.787 Q589.309 137.787 592.481 141.398 Q595.652 145.009 595.652 151.398 Q595.652 157.764 592.481 161.398 Q589.309 165.009 583.754 165.009 Q578.175 165.009 575.004 161.398 Q571.856 157.764 571.856 151.398 Q571.856 145.009 575.004 141.398 Q578.175 137.787 583.754 137.787 Z" fill="#000000" fill-rule="nonzero" fill-opacity="1" /><path clip-path="url(#clip340)" d="M612.758 141.398 Q609.332 141.398 607.342 144.083 Q605.351 146.745 605.351 151.398 Q605.351 156.051 607.319 158.736 Q609.309 161.398 612.758 161.398 Q616.161 161.398 618.152 158.713 Q620.143 156.027 620.143 151.398 Q620.143 146.791 618.152 144.106 Q616.161 141.398 612.758 141.398 M612.758 137.787 Q618.314 137.787 621.485 141.398 Q624.656 145.009 624.656 151.398 Q624.656 157.764 621.485 161.398 Q618.314 165.009 612.758 165.009 Q607.18 165.009 604.008 161.398 Q600.86 157.764 600.86 151.398 Q600.86 145.009 604.008 141.398 Q607.18 137.787 612.758 137.787 Z" fill="#000000" fill-rule="nonzero" fill-opacity="1" /><path clip-path="url(#clip340)" d="M635.93 131.051 L635.93 138.412 L644.703 138.412 L644.703 141.722 L635.93 141.722 L635.93 155.796 Q635.93 158.967 636.786 159.87 Q637.666 160.773 640.328 160.773 L644.703 160.773 L644.703 164.338 L640.328 164.338 Q635.397 164.338 633.522 162.509 Q631.647 160.657 631.647 155.796 L631.647 141.722 L628.522 141.722 L628.522 138.412 L631.647 138.412 L631.647 131.051 L635.93 131.051 Z" fill="#000000" fill-rule="nonzero" fill-opacity="1" /><path clip-path="url(#clip340)" d="M671.855 148.689 L671.855 164.338 L667.596 164.338 L667.596 148.828 Q667.596 145.148 666.161 143.319 Q664.726 141.49 661.855 141.49 Q658.406 141.49 656.416 143.69 Q654.425 145.889 654.425 149.685 L654.425 164.338 L650.142 164.338 L650.142 128.319 L654.425 128.319 L654.425 142.44 Q655.953 140.102 658.013 138.944 Q660.096 137.787 662.804 137.787 Q667.272 137.787 669.564 140.565 Q671.855 143.319 671.855 148.689 Z" fill="#000000" fill-rule="nonzero" fill-opacity="1" /><polyline clip-path="url(#clip340)" style="stroke:#e26f46; stroke-linecap:round; stroke-linejoin:round; stroke-width:4; stroke-opacity:1; fill:none" points="235.577,198.898 299.531,198.898 "/>
<path clip-path="url(#clip340)" d="M314.473 212.289 L314.473 226.039 L310.191 226.039 L310.191 190.252 L314.473 190.252 L314.473 194.187 Q315.816 191.872 317.853 190.761 Q319.913 189.627 322.76 189.627 Q327.482 189.627 330.422 193.377 Q333.385 197.127 333.385 203.238 Q333.385 209.349 330.422 213.099 Q327.482 216.849 322.76 216.849 Q319.913 216.849 317.853 215.738 Q315.816 214.603 314.473 212.289 M328.964 203.238 Q328.964 198.539 327.019 195.877 Q325.098 193.192 321.718 193.192 Q318.339 193.192 316.394 195.877 Q314.473 198.539 314.473 203.238 Q314.473 207.937 316.394 210.622 Q318.339 213.284 321.718 213.284 Q325.098 213.284 327.019 210.622 Q328.964 207.937 328.964 203.238 Z" fill="#000000" fill-rule="nonzero" fill-opacity="1" /><path clip-path="url(#clip340)" d="M353.57 180.159 L353.57 183.701 L349.496 183.701 Q347.204 183.701 346.301 184.627 Q345.422 185.553 345.422 187.96 L345.422 190.252 L352.436 190.252 L352.436 193.562 L345.422 193.562 L345.422 216.178 L341.139 216.178 L341.139 193.562 L337.065 193.562 L337.065 190.252 L341.139 190.252 L341.139 188.446 Q341.139 184.118 343.153 182.15 Q345.167 180.159 349.542 180.159 L353.57 180.159 Z" fill="#000000" fill-rule="nonzero" fill-opacity="1" /><path clip-path="url(#clip340)" d="M388.732 191.016 L388.732 195.043 Q386.926 194.117 384.982 193.655 Q383.037 193.192 380.954 193.192 Q377.783 193.192 376.186 194.164 Q374.612 195.136 374.612 197.08 Q374.612 198.562 375.746 199.418 Q376.88 200.252 380.306 201.016 L381.764 201.34 Q386.301 202.312 388.199 204.094 Q390.121 205.854 390.121 209.025 Q390.121 212.636 387.25 214.742 Q384.403 216.849 379.403 216.849 Q377.32 216.849 375.051 216.432 Q372.806 216.039 370.306 215.228 L370.306 210.83 Q372.667 212.057 374.959 212.682 Q377.25 213.284 379.496 213.284 Q382.505 213.284 384.125 212.266 Q385.746 211.224 385.746 209.349 Q385.746 207.613 384.565 206.687 Q383.408 205.761 379.449 204.904 L377.968 204.557 Q374.01 203.724 372.25 202.011 Q370.491 200.275 370.491 197.266 Q370.491 193.608 373.084 191.618 Q375.676 189.627 380.445 189.627 Q382.806 189.627 384.889 189.974 Q386.973 190.321 388.732 191.016 Z" fill="#000000" fill-rule="nonzero" fill-opacity="1" /><path clip-path="url(#clip340)" d="M417.088 195.229 Q418.685 192.358 420.908 190.993 Q423.13 189.627 426.139 189.627 Q430.19 189.627 432.389 192.474 Q434.588 195.298 434.588 200.529 L434.588 216.178 L430.306 216.178 L430.306 200.668 Q430.306 196.942 428.986 195.136 Q427.667 193.33 424.958 193.33 Q421.648 193.33 419.727 195.53 Q417.806 197.729 417.806 201.525 L417.806 216.178 L413.523 216.178 L413.523 200.668 Q413.523 196.918 412.204 195.136 Q410.884 193.33 408.13 193.33 Q404.866 193.33 402.945 195.553 Q401.023 197.752 401.023 201.525 L401.023 216.178 L396.741 216.178 L396.741 190.252 L401.023 190.252 L401.023 194.28 Q402.482 191.895 404.519 190.761 Q406.556 189.627 409.357 189.627 Q412.181 189.627 414.148 191.062 Q416.139 192.497 417.088 195.229 Z" fill="#000000" fill-rule="nonzero" fill-opacity="1" /><path clip-path="url(#clip340)" d="M453.13 193.238 Q449.704 193.238 447.713 195.923 Q445.722 198.585 445.722 203.238 Q445.722 207.891 447.69 210.576 Q449.681 213.238 453.13 213.238 Q456.532 213.238 458.523 210.553 Q460.514 207.867 460.514 203.238 Q460.514 198.631 458.523 195.946 Q456.532 193.238 453.13 193.238 M453.13 189.627 Q458.685 189.627 461.856 193.238 Q465.028 196.849 465.028 203.238 Q465.028 209.604 461.856 213.238 Q458.685 216.849 453.13 216.849 Q447.551 216.849 444.38 213.238 Q441.232 209.604 441.232 203.238 Q441.232 196.849 444.38 193.238 Q447.551 189.627 453.13 189.627 Z" fill="#000000" fill-rule="nonzero" fill-opacity="1" /><path clip-path="url(#clip340)" d="M482.134 193.238 Q478.708 193.238 476.717 195.923 Q474.727 198.585 474.727 203.238 Q474.727 207.891 476.694 210.576 Q478.685 213.238 482.134 213.238 Q485.537 213.238 487.528 210.553 Q489.518 207.867 489.518 203.238 Q489.518 198.631 487.528 195.946 Q485.537 193.238 482.134 193.238 M482.134 189.627 Q487.69 189.627 490.861 193.238 Q494.032 196.849 494.032 203.238 Q494.032 209.604 490.861 213.238 Q487.69 216.849 482.134 216.849 Q476.555 216.849 473.384 213.238 Q470.236 209.604 470.236 203.238 Q470.236 196.849 473.384 193.238 Q476.555 189.627 482.134 189.627 Z" fill="#000000" fill-rule="nonzero" fill-opacity="1" /><path clip-path="url(#clip340)" d="M505.305 182.891 L505.305 190.252 L514.078 190.252 L514.078 193.562 L505.305 193.562 L505.305 207.636 Q505.305 210.807 506.162 211.71 Q507.041 212.613 509.703 212.613 L514.078 212.613 L514.078 216.178 L509.703 216.178 Q504.773 216.178 502.898 214.349 Q501.023 212.497 501.023 207.636 L501.023 193.562 L497.898 193.562 L497.898 190.252 L501.023 190.252 L501.023 182.891 L505.305 182.891 Z" fill="#000000" fill-rule="nonzero" fill-opacity="1" /><path clip-path="url(#clip340)" d="M541.231 200.529 L541.231 216.178 L536.972 216.178 L536.972 200.668 Q536.972 196.988 535.537 195.159 Q534.101 193.33 531.231 193.33 Q527.782 193.33 525.791 195.53 Q523.801 197.729 523.801 201.525 L523.801 216.178 L519.518 216.178 L519.518 180.159 L523.801 180.159 L523.801 194.28 Q525.328 191.942 527.388 190.784 Q529.472 189.627 532.18 189.627 Q536.648 189.627 538.939 192.405 Q541.231 195.159 541.231 200.529 Z" fill="#000000" fill-rule="nonzero" fill-opacity="1" /><polyline clip-path="url(#clip340)" style="stroke:#3da44d; stroke-linecap:round; stroke-linejoin:round; stroke-width:4; stroke-opacity:1; fill:none" points="235.577,250.738 299.531,250.738 "/>
<path clip-path="url(#clip340)" d="M317.598 234.731 L317.598 242.092 L326.371 242.092 L326.371 245.402 L317.598 245.402 L317.598 259.476 Q317.598 262.647 318.454 263.55 Q319.334 264.453 321.996 264.453 L326.371 264.453 L326.371 268.018 L321.996 268.018 Q317.066 268.018 315.191 266.189 Q313.316 264.337 313.316 259.476 L313.316 245.402 L310.191 245.402 L310.191 242.092 L313.316 242.092 L313.316 234.731 L317.598 234.731 Z" fill="#000000" fill-rule="nonzero" fill-opacity="1" /><path clip-path="url(#clip340)" d="M346.996 246.073 Q346.278 245.657 345.422 245.471 Q344.589 245.263 343.57 245.263 Q339.959 245.263 338.014 247.624 Q336.093 249.962 336.093 254.36 L336.093 268.018 L331.811 268.018 L331.811 242.092 L336.093 242.092 L336.093 246.12 Q337.436 243.758 339.589 242.624 Q341.741 241.467 344.82 241.467 Q345.26 241.467 345.792 241.536 Q346.325 241.583 346.973 241.698 L346.996 246.073 Z" fill="#000000" fill-rule="nonzero" fill-opacity="1" /><path clip-path="url(#clip340)" d="M351.024 257.786 L351.024 242.092 L355.283 242.092 L355.283 257.624 Q355.283 261.305 356.718 263.156 Q358.153 264.985 361.024 264.985 Q364.473 264.985 366.463 262.786 Q368.477 260.587 368.477 256.791 L368.477 242.092 L372.737 242.092 L372.737 268.018 L368.477 268.018 L368.477 264.036 Q366.926 266.397 364.866 267.555 Q362.829 268.689 360.121 268.689 Q355.653 268.689 353.338 265.911 Q351.024 263.133 351.024 257.786 M361.741 241.467 L361.741 241.467 Z" fill="#000000" fill-rule="nonzero" fill-opacity="1" /><path clip-path="url(#clip340)" d="M403.685 253.99 L403.685 256.073 L384.102 256.073 Q384.38 260.471 386.741 262.786 Q389.125 265.078 393.361 265.078 Q395.815 265.078 398.107 264.476 Q400.422 263.874 402.69 262.67 L402.69 266.698 Q400.398 267.67 397.991 268.18 Q395.584 268.689 393.107 268.689 Q386.903 268.689 383.269 265.078 Q379.658 261.467 379.658 255.309 Q379.658 248.944 383.084 245.217 Q386.533 241.467 392.366 241.467 Q397.597 241.467 400.63 244.846 Q403.685 248.203 403.685 253.99 M399.426 252.74 Q399.38 249.245 397.459 247.161 Q395.56 245.078 392.412 245.078 Q388.848 245.078 386.695 247.092 Q384.565 249.106 384.241 252.763 L399.426 252.74 Z" fill="#000000" fill-rule="nonzero" fill-opacity="1" /><path clip-path="url(#clip340)" d="M1393.44 1486.45 L2352.76 1486.45 L2352.76 47.2441 L1393.44 47.2441  Z" fill="#ffffff" fill-rule="evenodd" fill-opacity="1"/>
<defs>
  <clipPath id="clip343">
    <rect x="1393" y="47" width="960" height="1440"/>
  </clipPath>
</defs>
<polyline clip-path="url(#clip343)" style="stroke:#000000; stroke-linecap:round; stroke-linejoin:round; stroke-width:2; stroke-opacity:0.1; fill:none" points="1409.13,1486.45 1409.13,47.2441 "/>
<polyline clip-path="url(#clip343)" style="stroke:#000000; stroke-linecap:round; stroke-linejoin:round; stroke-width:2; stroke-opacity:0.1; fill:none" points="1638.25,1486.45 1638.25,47.2441 "/>
<polyline clip-path="url(#clip343)" style="stroke:#000000; stroke-linecap:round; stroke-linejoin:round; stroke-width:2; stroke-opacity:0.1; fill:none" points="1867.37,1486.45 1867.37,47.2441 "/>
<polyline clip-path="url(#clip343)" style="stroke:#000000; stroke-linecap:round; stroke-linejoin:round; stroke-width:2; stroke-opacity:0.1; fill:none" points="2096.49,1486.45 2096.49,47.2441 "/>
<polyline clip-path="url(#clip343)" style="stroke:#000000; stroke-linecap:round; stroke-linejoin:round; stroke-width:2; stroke-opacity:0.1; fill:none" points="2325.61,1486.45 2325.61,47.2441 "/>
<polyline clip-path="url(#clip343)" style="stroke:#000000; stroke-linecap:round; stroke-linejoin:round; stroke-width:2; stroke-opacity:0.1; fill:none" points="1393.44,1353.38 2352.76,1353.38 "/>
<polyline clip-path="url(#clip343)" style="stroke:#000000; stroke-linecap:round; stroke-linejoin:round; stroke-width:2; stroke-opacity:0.1; fill:none" points="1393.44,960.766 2352.76,960.766 "/>
<polyline clip-path="url(#clip343)" style="stroke:#000000; stroke-linecap:round; stroke-linejoin:round; stroke-width:2; stroke-opacity:0.1; fill:none" points="1393.44,568.152 2352.76,568.152 "/>
<polyline clip-path="url(#clip343)" style="stroke:#000000; stroke-linecap:round; stroke-linejoin:round; stroke-width:2; stroke-opacity:0.1; fill:none" points="1393.44,175.539 2352.76,175.539 "/>
<polyline clip-path="url(#clip340)" style="stroke:#000000; stroke-linecap:round; stroke-linejoin:round; stroke-width:4; stroke-opacity:1; fill:none" points="1393.44,1486.45 2352.76,1486.45 "/>
<polyline clip-path="url(#clip340)" style="stroke:#000000; stroke-linecap:round; stroke-linejoin:round; stroke-width:4; stroke-opacity:1; fill:none" points="1409.13,1486.45 1409.13,1467.55 "/>
<polyline clip-path="url(#clip340)" style="stroke:#000000; stroke-linecap:round; stroke-linejoin:round; stroke-width:4; stroke-opacity:1; fill:none" points="1638.25,1486.45 1638.25,1467.55 "/>
<polyline clip-path="url(#clip340)" style="stroke:#000000; stroke-linecap:round; stroke-linejoin:round; stroke-width:4; stroke-opacity:1; fill:none" points="1867.37,1486.45 1867.37,1467.55 "/>
<polyline clip-path="url(#clip340)" style="stroke:#000000; stroke-linecap:round; stroke-linejoin:round; stroke-width:4; stroke-opacity:1; fill:none" points="2096.49,1486.45 2096.49,1467.55 "/>
<polyline clip-path="url(#clip340)" style="stroke:#000000; stroke-linecap:round; stroke-linejoin:round; stroke-width:4; stroke-opacity:1; fill:none" points="2325.61,1486.45 2325.61,1467.55 "/>
<path clip-path="url(#clip340)" d="M1409.13 1517.37 Q1405.52 1517.37 1403.69 1520.93 Q1401.89 1524.47 1401.89 1531.6 Q1401.89 1538.71 1403.69 1542.27 Q1405.52 1545.82 1409.13 1545.82 Q1412.77 1545.82 1414.57 1542.27 Q1416.4 1538.71 1416.4 1531.6 Q1416.4 1524.47 1414.57 1520.93 Q1412.77 1517.37 1409.13 1517.37 M1409.13 1513.66 Q1414.94 1513.66 1418 1518.27 Q1421.08 1522.85 1421.08 1531.6 Q1421.08 1540.33 1418 1544.94 Q1414.94 1549.52 1409.13 1549.52 Q1403.32 1549.52 1400.24 1544.94 Q1397.19 1540.33 1397.19 1531.6 Q1397.19 1522.85 1400.24 1518.27 Q1403.32 1513.66 1409.13 1513.66 Z" fill="#000000" fill-rule="nonzero" fill-opacity="1" /><path clip-path="url(#clip340)" d="M1617.02 1544.91 L1633.34 1544.91 L1633.34 1548.85 L1611.4 1548.85 L1611.4 1544.91 Q1614.06 1542.16 1618.64 1537.53 Q1623.25 1532.88 1624.43 1531.53 Q1626.68 1529.01 1627.56 1527.27 Q1628.46 1525.51 1628.46 1523.82 Q1628.46 1521.07 1626.51 1519.33 Q1624.59 1517.6 1621.49 1517.6 Q1619.29 1517.6 1616.84 1518.36 Q1614.41 1519.13 1611.63 1520.68 L1611.63 1515.95 Q1614.45 1514.82 1616.91 1514.24 Q1619.36 1513.66 1621.4 1513.66 Q1626.77 1513.66 1629.96 1516.35 Q1633.16 1519.03 1633.16 1523.52 Q1633.16 1525.65 1632.35 1527.57 Q1631.56 1529.47 1629.45 1532.07 Q1628.88 1532.74 1625.77 1535.95 Q1622.67 1539.15 1617.02 1544.91 Z" fill="#000000" fill-rule="nonzero" fill-opacity="1" /><path clip-path="url(#clip340)" d="M1653.16 1517.37 Q1649.55 1517.37 1647.72 1520.93 Q1645.91 1524.47 1645.91 1531.6 Q1645.91 1538.71 1647.72 1542.27 Q1649.55 1545.82 1653.16 1545.82 Q1656.79 1545.82 1658.6 1542.27 Q1660.43 1538.71 1660.43 1531.6 Q1660.43 1524.47 1658.6 1520.93 Q1656.79 1517.37 1653.16 1517.37 M1653.16 1513.66 Q1658.97 1513.66 1662.02 1518.27 Q1665.1 1522.85 1665.1 1531.6 Q1665.1 1540.33 1662.02 1544.94 Q1658.97 1549.52 1653.16 1549.52 Q1647.35 1549.52 1644.27 1544.94 Q1641.21 1540.33 1641.21 1531.6 Q1641.21 1522.85 1644.27 1518.27 Q1647.35 1513.66 1653.16 1513.66 Z" fill="#000000" fill-rule="nonzero" fill-opacity="1" /><path clip-path="url(#clip340)" d="M1855.54 1518.36 L1843.74 1536.81 L1855.54 1536.81 L1855.54 1518.36 M1854.31 1514.29 L1860.19 1514.29 L1860.19 1536.81 L1865.12 1536.81 L1865.12 1540.7 L1860.19 1540.7 L1860.19 1548.85 L1855.54 1548.85 L1855.54 1540.7 L1839.94 1540.7 L1839.94 1536.19 L1854.31 1514.29 Z" fill="#000000" fill-rule="nonzero" fill-opacity="1" /><path clip-path="url(#clip340)" d="M1882.86 1517.37 Q1879.24 1517.37 1877.42 1520.93 Q1875.61 1524.47 1875.61 1531.6 Q1875.61 1538.71 1877.42 1542.27 Q1879.24 1545.82 1882.86 1545.82 Q1886.49 1545.82 1888.29 1542.27 Q1890.12 1538.71 1890.12 1531.6 Q1890.12 1524.47 1888.29 1520.93 Q1886.49 1517.37 1882.86 1517.37 M1882.86 1513.66 Q1888.67 1513.66 1891.72 1518.27 Q1894.8 1522.85 1894.8 1531.6 Q1894.8 1540.33 1891.72 1544.94 Q1888.67 1549.52 1882.86 1549.52 Q1877.05 1549.52 1873.97 1544.94 Q1870.91 1540.33 1870.91 1531.6 Q1870.91 1522.85 1873.97 1518.27 Q1877.05 1513.66 1882.86 1513.66 Z" fill="#000000" fill-rule="nonzero" fill-opacity="1" /><path clip-path="url(#clip340)" d="M2081.89 1529.7 Q2078.74 1529.7 2076.89 1531.86 Q2075.06 1534.01 2075.06 1537.76 Q2075.06 1541.49 2076.89 1543.66 Q2078.74 1545.82 2081.89 1545.82 Q2085.04 1545.82 2086.87 1543.66 Q2088.72 1541.49 2088.72 1537.76 Q2088.72 1534.01 2086.87 1531.86 Q2085.04 1529.7 2081.89 1529.7 M2091.17 1515.05 L2091.17 1519.31 Q2089.42 1518.48 2087.61 1518.04 Q2085.83 1517.6 2084.07 1517.6 Q2079.44 1517.6 2076.99 1520.72 Q2074.55 1523.85 2074.21 1530.17 Q2075.57 1528.15 2077.63 1527.09 Q2079.69 1526 2082.17 1526 Q2087.38 1526 2090.39 1529.17 Q2093.42 1532.32 2093.42 1537.76 Q2093.42 1543.08 2090.27 1546.3 Q2087.12 1549.52 2081.89 1549.52 Q2075.9 1549.52 2072.73 1544.94 Q2069.55 1540.33 2069.55 1531.6 Q2069.55 1523.41 2073.44 1518.55 Q2077.33 1513.66 2083.88 1513.66 Q2085.64 1513.66 2087.42 1514.01 Q2089.23 1514.36 2091.17 1515.05 Z" fill="#000000" fill-rule="nonzero" fill-opacity="1" /><path clip-path="url(#clip340)" d="M2111.48 1517.37 Q2107.86 1517.37 2106.04 1520.93 Q2104.23 1524.47 2104.23 1531.6 Q2104.23 1538.71 2106.04 1542.27 Q2107.86 1545.82 2111.48 1545.82 Q2115.11 1545.82 2116.92 1542.27 Q2118.74 1538.71 2118.74 1531.6 Q2118.74 1524.47 2116.92 1520.93 Q2115.11 1517.37 2111.48 1517.37 M2111.48 1513.66 Q2117.29 1513.66 2120.34 1518.27 Q2123.42 1522.85 2123.42 1531.6 Q2123.42 1540.33 2120.34 1544.94 Q2117.29 1549.52 2111.48 1549.52 Q2105.67 1549.52 2102.59 1544.94 Q2099.53 1540.33 2099.53 1531.6 Q2099.53 1522.85 2102.59 1518.27 Q2105.67 1513.66 2111.48 1513.66 Z" fill="#000000" fill-rule="nonzero" fill-opacity="1" /><path clip-path="url(#clip340)" d="M2310.48 1532.44 Q2307.14 1532.44 2305.22 1534.22 Q2303.33 1536 2303.33 1539.13 Q2303.33 1542.25 2305.22 1544.03 Q2307.14 1545.82 2310.48 1545.82 Q2313.81 1545.82 2315.73 1544.03 Q2317.65 1542.23 2317.65 1539.13 Q2317.65 1536 2315.73 1534.22 Q2313.83 1532.44 2310.48 1532.44 M2305.8 1530.45 Q2302.79 1529.7 2301.1 1527.64 Q2299.44 1525.58 2299.44 1522.62 Q2299.44 1518.48 2302.38 1516.07 Q2305.34 1513.66 2310.48 1513.66 Q2315.64 1513.66 2318.58 1516.07 Q2321.52 1518.48 2321.52 1522.62 Q2321.52 1525.58 2319.83 1527.64 Q2318.16 1529.7 2315.18 1530.45 Q2318.56 1531.23 2320.43 1533.52 Q2322.33 1535.82 2322.33 1539.13 Q2322.33 1544.15 2319.25 1546.83 Q2316.2 1549.52 2310.48 1549.52 Q2304.76 1549.52 2301.68 1546.83 Q2298.63 1544.15 2298.63 1539.13 Q2298.63 1535.82 2300.52 1533.52 Q2302.42 1531.23 2305.8 1530.45 M2304.09 1523.06 Q2304.09 1525.75 2305.76 1527.25 Q2307.45 1528.76 2310.48 1528.76 Q2313.49 1528.76 2315.18 1527.25 Q2316.89 1525.75 2316.89 1523.06 Q2316.89 1520.38 2315.18 1518.87 Q2313.49 1517.37 2310.48 1517.37 Q2307.45 1517.37 2305.76 1518.87 Q2304.09 1520.38 2304.09 1523.06 Z" fill="#000000" fill-rule="nonzero" fill-opacity="1" /><path clip-path="url(#clip340)" d="M2340.64 1517.37 Q2337.03 1517.37 2335.2 1520.93 Q2333.39 1524.47 2333.39 1531.6 Q2333.39 1538.71 2335.2 1542.27 Q2337.03 1545.82 2340.64 1545.82 Q2344.27 1545.82 2346.08 1542.27 Q2347.91 1538.71 2347.91 1531.6 Q2347.91 1524.47 2346.08 1520.93 Q2344.27 1517.37 2340.64 1517.37 M2340.64 1513.66 Q2346.45 1513.66 2349.51 1518.27 Q2352.58 1522.85 2352.58 1531.6 Q2352.58 1540.33 2349.51 1544.94 Q2346.45 1549.52 2340.64 1549.52 Q2334.83 1549.52 2331.75 1544.94 Q2328.7 1540.33 2328.7 1531.6 Q2328.7 1522.85 2331.75 1518.27 Q2334.83 1513.66 2340.64 1513.66 Z" fill="#000000" fill-rule="nonzero" fill-opacity="1" /><polyline clip-path="url(#clip340)" style="stroke:#000000; stroke-linecap:round; stroke-linejoin:round; stroke-width:4; stroke-opacity:1; fill:none" points="1393.44,1486.45 1393.44,47.2441 "/>
<polyline clip-path="url(#clip340)" style="stroke:#000000; stroke-linecap:round; stroke-linejoin:round; stroke-width:4; stroke-opacity:1; fill:none" points="1393.44,1353.38 1412.34,1353.38 "/>
<polyline clip-path="url(#clip340)" style="stroke:#000000; stroke-linecap:round; stroke-linejoin:round; stroke-width:4; stroke-opacity:1; fill:none" points="1393.44,960.766 1412.34,960.766 "/>
<polyline clip-path="url(#clip340)" style="stroke:#000000; stroke-linecap:round; stroke-linejoin:round; stroke-width:4; stroke-opacity:1; fill:none" points="1393.44,568.152 1412.34,568.152 "/>
<polyline clip-path="url(#clip340)" style="stroke:#000000; stroke-linecap:round; stroke-linejoin:round; stroke-width:4; stroke-opacity:1; fill:none" points="1393.44,175.539 1412.34,175.539 "/>
<path clip-path="url(#clip340)" d="M1250.49 1353.83 L1280.17 1353.83 L1280.17 1357.77 L1250.49 1357.77 L1250.49 1353.83 Z" fill="#000000" fill-rule="nonzero" fill-opacity="1" /><path clip-path="url(#clip340)" d="M1291.07 1366.72 L1298.71 1366.72 L1298.71 1340.36 L1290.4 1342.02 L1290.4 1337.77 L1298.67 1336.1 L1303.34 1336.1 L1303.34 1366.72 L1310.98 1366.72 L1310.98 1370.66 L1291.07 1370.66 L1291.07 1366.72 Z" fill="#000000" fill-rule="nonzero" fill-opacity="1" /><path clip-path="url(#clip340)" d="M1320.42 1364.78 L1325.31 1364.78 L1325.31 1370.66 L1320.42 1370.66 L1320.42 1364.78 Z" fill="#000000" fill-rule="nonzero" fill-opacity="1" /><path clip-path="url(#clip340)" d="M1345.49 1339.18 Q1341.88 1339.18 1340.05 1342.74 Q1338.25 1346.28 1338.25 1353.41 Q1338.25 1360.52 1340.05 1364.08 Q1341.88 1367.63 1345.49 1367.63 Q1349.13 1367.63 1350.93 1364.08 Q1352.76 1360.52 1352.76 1353.41 Q1352.76 1346.28 1350.93 1342.74 Q1349.13 1339.18 1345.49 1339.18 M1345.49 1335.47 Q1351.3 1335.47 1354.36 1340.08 Q1357.44 1344.66 1357.44 1353.41 Q1357.44 1362.14 1354.36 1366.75 Q1351.3 1371.33 1345.49 1371.33 Q1339.68 1371.33 1336.61 1366.75 Q1333.55 1362.14 1333.55 1353.41 Q1333.55 1344.66 1336.61 1340.08 Q1339.68 1335.47 1345.49 1335.47 Z" fill="#000000" fill-rule="nonzero" fill-opacity="1" /><path clip-path="url(#clip340)" d="M1251.49 961.217 L1281.17 961.217 L1281.17 965.152 L1251.49 965.152 L1251.49 961.217 Z" fill="#000000" fill-rule="nonzero" fill-opacity="1" /><path clip-path="url(#clip340)" d="M1301.26 946.564 Q1297.65 946.564 1295.82 950.129 Q1294.01 953.671 1294.01 960.8 Q1294.01 967.907 1295.82 971.472 Q1297.65 975.013 1301.26 975.013 Q1304.89 975.013 1306.7 971.472 Q1308.53 967.907 1308.53 960.8 Q1308.53 953.671 1306.7 950.129 Q1304.89 946.564 1301.26 946.564 M1301.26 942.861 Q1307.07 942.861 1310.12 947.467 Q1313.2 952.05 1313.2 960.8 Q1313.2 969.527 1310.12 974.134 Q1307.07 978.717 1301.26 978.717 Q1295.45 978.717 1292.37 974.134 Q1289.31 969.527 1289.31 960.8 Q1289.31 952.05 1292.37 947.467 Q1295.45 942.861 1301.26 942.861 Z" fill="#000000" fill-rule="nonzero" fill-opacity="1" /><path clip-path="url(#clip340)" d="M1321.42 972.166 L1326.3 972.166 L1326.3 978.046 L1321.42 978.046 L1321.42 972.166 Z" fill="#000000" fill-rule="nonzero" fill-opacity="1" /><path clip-path="url(#clip340)" d="M1336.54 943.486 L1354.89 943.486 L1354.89 947.421 L1340.82 947.421 L1340.82 955.893 Q1341.84 955.546 1342.86 955.384 Q1343.87 955.199 1344.89 955.199 Q1350.68 955.199 1354.06 958.37 Q1357.44 961.541 1357.44 966.958 Q1357.44 972.536 1353.97 975.638 Q1350.49 978.717 1344.17 978.717 Q1342 978.717 1339.73 978.347 Q1337.48 977.976 1335.08 977.235 L1335.08 972.536 Q1337.16 973.671 1339.38 974.226 Q1341.61 974.782 1344.08 974.782 Q1348.09 974.782 1350.42 972.675 Q1352.76 970.569 1352.76 966.958 Q1352.76 963.347 1350.42 961.24 Q1348.09 959.134 1344.08 959.134 Q1342.21 959.134 1340.33 959.55 Q1338.48 959.967 1336.54 960.847 L1336.54 943.486 Z" fill="#000000" fill-rule="nonzero" fill-opacity="1" /><path clip-path="url(#clip340)" d="M1300.26 553.951 Q1296.65 553.951 1294.82 557.516 Q1293.02 561.057 1293.02 568.187 Q1293.02 575.293 1294.82 578.858 Q1296.65 582.4 1300.26 582.4 Q1303.9 582.4 1305.7 578.858 Q1307.53 575.293 1307.53 568.187 Q1307.53 561.057 1305.7 557.516 Q1303.9 553.951 1300.26 553.951 M1300.26 550.247 Q1306.07 550.247 1309.13 554.854 Q1312.21 559.437 1312.21 568.187 Q1312.21 576.914 1309.13 581.52 Q1306.07 586.104 1300.26 586.104 Q1294.45 586.104 1291.37 581.52 Q1288.32 576.914 1288.32 568.187 Q1288.32 559.437 1291.37 554.854 Q1294.45 550.247 1300.26 550.247 Z" fill="#000000" fill-rule="nonzero" fill-opacity="1" /><path clip-path="url(#clip340)" d="M1320.42 579.553 L1325.31 579.553 L1325.31 585.432 L1320.42 585.432 L1320.42 579.553 Z" fill="#000000" fill-rule="nonzero" fill-opacity="1" /><path clip-path="url(#clip340)" d="M1345.49 553.951 Q1341.88 553.951 1340.05 557.516 Q1338.25 561.057 1338.25 568.187 Q1338.25 575.293 1340.05 578.858 Q1341.88 582.4 1345.49 582.4 Q1349.13 582.4 1350.93 578.858 Q1352.76 575.293 1352.76 568.187 Q1352.76 561.057 1350.93 557.516 Q1349.13 553.951 1345.49 553.951 M1345.49 550.247 Q1351.3 550.247 1354.36 554.854 Q1357.44 559.437 1357.44 568.187 Q1357.44 576.914 1354.36 581.52 Q1351.3 586.104 1345.49 586.104 Q1339.68 586.104 1336.61 581.52 Q1333.55 576.914 1333.55 568.187 Q1333.55 559.437 1336.61 554.854 Q1339.68 550.247 1345.49 550.247 Z" fill="#000000" fill-rule="nonzero" fill-opacity="1" /><path clip-path="url(#clip340)" d="M1301.26 161.338 Q1297.65 161.338 1295.82 164.902 Q1294.01 168.444 1294.01 175.574 Q1294.01 182.68 1295.82 186.245 Q1297.65 189.787 1301.26 189.787 Q1304.89 189.787 1306.7 186.245 Q1308.53 182.68 1308.53 175.574 Q1308.53 168.444 1306.7 164.902 Q1304.89 161.338 1301.26 161.338 M1301.26 157.634 Q1307.07 157.634 1310.12 162.24 Q1313.2 166.824 1313.2 175.574 Q1313.2 184.3 1310.12 188.907 Q1307.07 193.49 1301.26 193.49 Q1295.45 193.49 1292.37 188.907 Q1289.31 184.3 1289.31 175.574 Q1289.31 166.824 1292.37 162.24 Q1295.45 157.634 1301.26 157.634 Z" fill="#000000" fill-rule="nonzero" fill-opacity="1" /><path clip-path="url(#clip340)" d="M1321.42 186.939 L1326.3 186.939 L1326.3 192.819 L1321.42 192.819 L1321.42 186.939 Z" fill="#000000" fill-rule="nonzero" fill-opacity="1" /><path clip-path="url(#clip340)" d="M1336.54 158.259 L1354.89 158.259 L1354.89 162.194 L1340.82 162.194 L1340.82 170.666 Q1341.84 170.319 1342.86 170.157 Q1343.87 169.972 1344.89 169.972 Q1350.68 169.972 1354.06 173.143 Q1357.44 176.314 1357.44 181.731 Q1357.44 187.31 1353.97 190.412 Q1350.49 193.49 1344.17 193.49 Q1342 193.49 1339.73 193.12 Q1337.48 192.75 1335.08 192.009 L1335.08 187.31 Q1337.16 188.444 1339.38 189 Q1341.61 189.555 1344.08 189.555 Q1348.09 189.555 1350.42 187.449 Q1352.76 185.342 1352.76 181.731 Q1352.76 178.12 1350.42 176.013 Q1348.09 173.907 1344.08 173.907 Q1342.21 173.907 1340.33 174.324 Q1338.48 174.74 1336.54 175.62 L1336.54 158.259 Z" fill="#000000" fill-rule="nonzero" fill-opacity="1" /><polyline clip-path="url(#clip343)" style="stroke:#009af9; stroke-linecap:round; stroke-linejoin:round; stroke-width:4; stroke-opacity:1; fill:none" points="1420.59,660.964 1432.04,653.366 1443.5,624.391 1454.96,622.883 1466.41,635.636 1477.87,598.034 1489.32,512.076 1500.78,480.006 1512.24,491.572 1523.69,538.022 1535.15,535.16 1546.6,502.853 1558.06,492.838 1569.52,480.112 1580.97,487.105 1592.43,438.663 1603.88,415.857 1615.34,383.472 1626.8,329.527 1638.25,320.911 1649.71,355.076 1661.16,389.649 1672.62,443.668 1684.07,441.687 1695.53,465.42 1706.99,471.876 1718.44,479.408 1729.9,486.408 1741.35,484.71 1752.81,507.268 1764.27,494.124 1775.72,485.401 1787.18,465.33 1798.63,433.832 1810.09,412.438 1821.55,412.259 1833,421.101 1844.46,393.931 1855.91,353.792 1867.37,363.94 1878.83,378.466 1890.28,429.038 1901.74,475.811 1913.19,512.508 1924.65,584.177 1936.1,631.115 1947.56,693.689 1959.02,790.08 1970.47,896.231 1981.93,960.204 1993.38,1026.72 2004.84,1116.29 2016.3,1201.28 2027.75,1276.86 2039.21,1298.58 2050.66,1377.08 2062.12,1366.34 2073.58,1384.63 2085.03,1364.13 2096.49,1370.99 2107.94,1350.94 2119.4,1335.21 2130.86,1269.67 2142.31,1188.49 2153.77,1059.65 2165.22,950.703 2176.68,847.405 2188.13,737.455 2199.59,618.409 2211.05,554.876 2222.5,473.236 2233.96,395.845 2245.41,293.885 2256.87,207.735 2268.33,143.684 2279.78,87.9763 2291.24,96.2417 2302.69,150.755 2314.15,167.724 2325.61,124.83 "/>
<polyline clip-path="url(#clip343)" style="stroke:#e26f46; stroke-linecap:round; stroke-linejoin:round; stroke-width:4; stroke-opacity:1; fill:none" points="1420.59,659.211 1432.04,653.005 1443.5,609.453 1454.96,603.315 1466.41,633.76 1477.87,592.835 1489.32,512.214 1500.78,476.58 1512.24,490.456 1523.69,528.061 1535.15,536.716 1546.6,497.922 1558.06,474.75 1569.52,465.718 1580.97,484.129 1592.43,431.865 1603.88,403.072 1615.34,387.056 1626.8,336.575 1638.25,324.731 1649.71,350.036 1661.16,392.214 1672.62,447.364 1684.07,451.5 1695.53,477.354 1706.99,489.847 1718.44,488.302 1729.9,493.694 1741.35,491.054 1752.81,504.506 1764.27,491.927 1775.72,481.672 1787.18,451.698 1798.63,418.545 1810.09,391.292 1821.55,396.233 1833,424.019 1844.46,401.855 1855.91,360.722 1867.37,364.057 1878.83,370.647 1890.28,410.447 1901.74,460.864 1913.19,500.48 1924.65,578.309 1936.1,639.448 1947.56,693.491 1959.02,788.951 1970.47,896.252 1981.93,960.013 1993.38,1018.2 2004.84,1108.82 2016.3,1195.14 2027.75,1286.13 2039.21,1302.8 2050.66,1388.87 2062.12,1385.73 2073.58,1392.88 2085.03,1365.95 2096.49,1378.82 2107.94,1353.33 2119.4,1344.71 2130.86,1276.08 2142.31,1179.55 2153.77,1045.33 2165.22,933.563 2176.68,843.439 2188.13,740.615 2199.59,614.567 2211.05,554.268 2222.5,476.349 2233.96,386.656 2245.41,284.868 2256.87,210.904 2268.33,148.543 2279.78,97.464 2291.24,89.9441 2302.69,143.797 2314.15,151.146 2325.61,103.077 "/>
<polyline clip-path="url(#clip343)" style="stroke:#3da44d; stroke-linecap:round; stroke-linejoin:round; stroke-width:4; stroke-opacity:1; fill:none" points="1420.59,704.192 1432.04,603.729 1443.5,573.848 1454.96,443.971 1466.41,569.972 1477.87,612.622 1489.32,470.396 1500.78,398.232 1512.24,244.753 1523.69,345.49 1535.15,236.6 1546.6,337.257 1558.06,351.457 1569.52,430.107 1580.97,405.253 1592.43,416.194 1603.88,443.94 1615.34,338.466 1626.8,272.731 1638.25,353.534 1649.71,411.433 1661.16,417.971 1672.62,454.598 1684.07,400.219 1695.53,555.899 1706.99,569.217 1718.44,556.509 1729.9,541.538 1741.35,459.115 1752.81,494.997 1764.27,519.623 1775.72,452.576 1787.18,287.388 1798.63,435.989 1810.09,474.753 1821.55,534.822 1833,424.607 1844.46,325.431 1855.91,276.263 1867.37,395.019 1878.83,234.595 1890.28,328.751 1901.74,445.486 1913.19,527.396 1924.65,471.439 1936.1,658.311 1947.56,824.155 1959.02,835.717 1970.47,892.139 1981.93,926.774 1993.38,1000.43 2004.84,1080.28 2016.3,1214.37 2027.75,1415.94 2039.21,1430.44 2050.66,1445.72 2062.12,1378.87 2073.58,1318.54 2085.03,1330.9 2096.49,1442.61 2107.94,1438.83 2119.4,1339.53 2130.86,1261.58 2142.31,1146.02 2153.77,933.699 2165.22,924.344 2176.68,896.64 2188.13,771.129 2199.59,776.4 2211.05,639.986 2222.5,627.406 2233.96,555.15 2245.41,402.495 2256.87,220.737 2268.33,156.326 2279.78,154.774 2291.24,183.294 2302.69,279.489 2314.15,199.474 2325.61,106.985 "/>
<path clip-path="url(#clip340)" d="M1425.42 1438.47 L1883.01 1438.47 L1883.01 1231.11 L1425.42 1231.11  Z" fill="#ffffff" fill-rule="evenodd" fill-opacity="1"/>
<polyline clip-path="url(#clip340)" style="stroke:#000000; stroke-linecap:round; stroke-linejoin:round; stroke-width:4; stroke-opacity:1; fill:none" points="1425.42,1438.47 1883.01,1438.47 1883.01,1231.11 1425.42,1231.11 1425.42,1438.47 "/>
<polyline clip-path="url(#clip340)" style="stroke:#009af9; stroke-linecap:round; stroke-linejoin:round; stroke-width:4; stroke-opacity:1; fill:none" points="1436.07,1282.95 1500.03,1282.95 "/>
<path clip-path="url(#clip340)" d="M1510.69 1265.67 L1515.36 1265.67 L1515.36 1280.28 L1530.87 1265.67 L1536.89 1265.67 L1519.74 1281.79 L1538.12 1300.23 L1531.96 1300.23 L1515.36 1283.59 L1515.36 1300.23 L1510.69 1300.23 L1510.69 1265.67 Z" fill="#000000" fill-rule="nonzero" fill-opacity="1" /><path clip-path="url(#clip340)" d="M1552.54 1287.2 Q1547.38 1287.2 1545.39 1288.38 Q1543.4 1289.56 1543.4 1292.41 Q1543.4 1294.68 1544.88 1296.02 Q1546.38 1297.34 1548.95 1297.34 Q1552.49 1297.34 1554.62 1294.84 Q1556.78 1292.32 1556.78 1288.15 L1556.78 1287.2 L1552.54 1287.2 M1561.04 1285.44 L1561.04 1300.23 L1556.78 1300.23 L1556.78 1296.3 Q1555.32 1298.66 1553.14 1299.79 Q1550.97 1300.91 1547.82 1300.91 Q1543.84 1300.91 1541.48 1298.68 Q1539.14 1296.44 1539.14 1292.69 Q1539.14 1288.31 1542.05 1286.09 Q1544.99 1283.87 1550.8 1283.87 L1556.78 1283.87 L1556.78 1283.45 Q1556.78 1280.51 1554.83 1278.92 Q1552.91 1277.29 1549.41 1277.29 Q1547.19 1277.29 1545.09 1277.83 Q1542.98 1278.36 1541.04 1279.42 L1541.04 1275.49 Q1543.37 1274.59 1545.57 1274.15 Q1547.77 1273.68 1549.85 1273.68 Q1555.48 1273.68 1558.26 1276.6 Q1561.04 1279.52 1561.04 1285.44 Z" fill="#000000" fill-rule="nonzero" fill-opacity="1" /><path clip-path="url(#clip340)" d="M1569.81 1264.22 L1574.07 1264.22 L1574.07 1300.23 L1569.81 1300.23 L1569.81 1264.22 Z" fill="#000000" fill-rule="nonzero" fill-opacity="1" /><path clip-path="url(#clip340)" d="M1603.16 1279.29 Q1604.76 1276.42 1606.98 1275.05 Q1609.21 1273.68 1612.22 1273.68 Q1616.27 1273.68 1618.47 1276.53 Q1620.66 1279.35 1620.66 1284.59 L1620.66 1300.23 L1616.38 1300.23 L1616.38 1284.73 Q1616.38 1281 1615.06 1279.19 Q1613.74 1277.39 1611.03 1277.39 Q1607.72 1277.39 1605.8 1279.59 Q1603.88 1281.79 1603.88 1285.58 L1603.88 1300.23 L1599.6 1300.23 L1599.6 1284.73 Q1599.6 1280.98 1598.28 1279.19 Q1596.96 1277.39 1594.21 1277.39 Q1590.94 1277.39 1589.02 1279.61 Q1587.1 1281.81 1587.1 1285.58 L1587.1 1300.23 L1582.82 1300.23 L1582.82 1274.31 L1587.1 1274.31 L1587.1 1278.34 Q1588.56 1275.95 1590.6 1274.82 Q1592.63 1273.68 1595.43 1273.68 Q1598.26 1273.68 1600.22 1275.12 Q1602.22 1276.55 1603.16 1279.29 Z" fill="#000000" fill-rule="nonzero" fill-opacity="1" /><path clip-path="url(#clip340)" d="M1640.94 1287.2 Q1635.78 1287.2 1633.79 1288.38 Q1631.8 1289.56 1631.8 1292.41 Q1631.8 1294.68 1633.28 1296.02 Q1634.78 1297.34 1637.35 1297.34 Q1640.9 1297.34 1643.03 1294.84 Q1645.18 1292.32 1645.18 1288.15 L1645.18 1287.2 L1640.94 1287.2 M1649.44 1285.44 L1649.44 1300.23 L1645.18 1300.23 L1645.18 1296.3 Q1643.72 1298.66 1641.54 1299.79 Q1639.37 1300.91 1636.22 1300.91 Q1632.24 1300.91 1629.88 1298.68 Q1627.54 1296.44 1627.54 1292.69 Q1627.54 1288.31 1630.46 1286.09 Q1633.4 1283.87 1639.21 1283.87 L1645.18 1283.87 L1645.18 1283.45 Q1645.18 1280.51 1643.23 1278.92 Q1641.31 1277.29 1637.82 1277.29 Q1635.59 1277.29 1633.49 1277.83 Q1631.38 1278.36 1629.44 1279.42 L1629.44 1275.49 Q1631.78 1274.59 1633.97 1274.15 Q1636.17 1273.68 1638.26 1273.68 Q1643.88 1273.68 1646.66 1276.6 Q1649.44 1279.52 1649.44 1285.44 Z" fill="#000000" fill-rule="nonzero" fill-opacity="1" /><path clip-path="url(#clip340)" d="M1679.76 1284.59 L1679.76 1300.23 L1675.5 1300.23 L1675.5 1284.73 Q1675.5 1281.04 1674.07 1279.22 Q1672.63 1277.39 1669.76 1277.39 Q1666.31 1277.39 1664.32 1279.59 Q1662.33 1281.79 1662.33 1285.58 L1662.33 1300.23 L1658.05 1300.23 L1658.05 1274.31 L1662.33 1274.31 L1662.33 1278.34 Q1663.86 1276 1665.92 1274.84 Q1668 1273.68 1670.71 1273.68 Q1675.18 1273.68 1677.47 1276.46 Q1679.76 1279.22 1679.76 1284.59 Z" fill="#000000" fill-rule="nonzero" fill-opacity="1" /><path clip-path="url(#clip340)" d="M1719.85 1275.07 L1719.85 1279.1 Q1718.05 1278.17 1716.1 1277.71 Q1714.16 1277.25 1712.08 1277.25 Q1708.9 1277.25 1707.31 1278.22 Q1705.73 1279.19 1705.73 1281.14 Q1705.73 1282.62 1706.87 1283.48 Q1708 1284.31 1711.43 1285.07 L1712.89 1285.4 Q1717.42 1286.37 1719.32 1288.15 Q1721.24 1289.91 1721.24 1293.08 Q1721.24 1296.69 1718.37 1298.8 Q1715.53 1300.91 1710.53 1300.91 Q1708.44 1300.91 1706.17 1300.49 Q1703.93 1300.1 1701.43 1299.29 L1701.43 1294.89 Q1703.79 1296.11 1706.08 1296.74 Q1708.37 1297.34 1710.62 1297.34 Q1713.63 1297.34 1715.25 1296.32 Q1716.87 1295.28 1716.87 1293.41 Q1716.87 1291.67 1715.69 1290.74 Q1714.53 1289.82 1710.57 1288.96 L1709.09 1288.61 Q1705.13 1287.78 1703.37 1286.07 Q1701.61 1284.33 1701.61 1281.32 Q1701.61 1277.67 1704.21 1275.67 Q1706.8 1273.68 1711.57 1273.68 Q1713.93 1273.68 1716.01 1274.03 Q1718.09 1274.38 1719.85 1275.07 Z" fill="#000000" fill-rule="nonzero" fill-opacity="1" /><path clip-path="url(#clip340)" d="M1748.21 1279.29 Q1749.81 1276.42 1752.03 1275.05 Q1754.25 1273.68 1757.26 1273.68 Q1761.31 1273.68 1763.51 1276.53 Q1765.71 1279.35 1765.71 1284.59 L1765.71 1300.23 L1761.43 1300.23 L1761.43 1284.73 Q1761.43 1281 1760.11 1279.19 Q1758.79 1277.39 1756.08 1277.39 Q1752.77 1277.39 1750.85 1279.59 Q1748.93 1281.79 1748.93 1285.58 L1748.93 1300.23 L1744.65 1300.23 L1744.65 1284.73 Q1744.65 1280.98 1743.33 1279.19 Q1742.01 1277.39 1739.25 1277.39 Q1735.99 1277.39 1734.07 1279.61 Q1732.15 1281.81 1732.15 1285.58 L1732.15 1300.23 L1727.86 1300.23 L1727.86 1274.31 L1732.15 1274.31 L1732.15 1278.34 Q1733.6 1275.95 1735.64 1274.82 Q1737.68 1273.68 1740.48 1273.68 Q1743.3 1273.68 1745.27 1275.12 Q1747.26 1276.55 1748.21 1279.29 Z" fill="#000000" fill-rule="nonzero" fill-opacity="1" /><path clip-path="url(#clip340)" d="M1784.25 1277.29 Q1780.83 1277.29 1778.83 1279.98 Q1776.84 1282.64 1776.84 1287.29 Q1776.84 1291.95 1778.81 1294.63 Q1780.8 1297.29 1784.25 1297.29 Q1787.65 1297.29 1789.65 1294.61 Q1791.64 1291.92 1791.64 1287.29 Q1791.64 1282.69 1789.65 1280 Q1787.65 1277.29 1784.25 1277.29 M1784.25 1273.68 Q1789.81 1273.68 1792.98 1277.29 Q1796.15 1280.91 1796.15 1287.29 Q1796.15 1293.66 1792.98 1297.29 Q1789.81 1300.91 1784.25 1300.91 Q1778.67 1300.91 1775.5 1297.29 Q1772.35 1293.66 1772.35 1287.29 Q1772.35 1280.91 1775.5 1277.29 Q1778.67 1273.68 1784.25 1273.68 Z" fill="#000000" fill-rule="nonzero" fill-opacity="1" /><path clip-path="url(#clip340)" d="M1813.26 1277.29 Q1809.83 1277.29 1807.84 1279.98 Q1805.85 1282.64 1805.85 1287.29 Q1805.85 1291.95 1807.82 1294.63 Q1809.81 1297.29 1813.26 1297.29 Q1816.66 1297.29 1818.65 1294.61 Q1820.64 1291.92 1820.64 1287.29 Q1820.64 1282.69 1818.65 1280 Q1816.66 1277.29 1813.26 1277.29 M1813.26 1273.68 Q1818.81 1273.68 1821.98 1277.29 Q1825.15 1280.91 1825.15 1287.29 Q1825.15 1293.66 1821.98 1297.29 Q1818.81 1300.91 1813.26 1300.91 Q1807.68 1300.91 1804.51 1297.29 Q1801.36 1293.66 1801.36 1287.29 Q1801.36 1280.91 1804.51 1277.29 Q1807.68 1273.68 1813.26 1273.68 Z" fill="#000000" fill-rule="nonzero" fill-opacity="1" /><path clip-path="url(#clip340)" d="M1836.43 1266.95 L1836.43 1274.31 L1845.2 1274.31 L1845.2 1277.62 L1836.43 1277.62 L1836.43 1291.69 Q1836.43 1294.86 1837.28 1295.77 Q1838.16 1296.67 1840.83 1296.67 L1845.2 1296.67 L1845.2 1300.23 L1840.83 1300.23 Q1835.89 1300.23 1834.02 1298.41 Q1832.14 1296.55 1832.14 1291.69 L1832.14 1277.62 L1829.02 1277.62 L1829.02 1274.31 L1832.14 1274.31 L1832.14 1266.95 L1836.43 1266.95 Z" fill="#000000" fill-rule="nonzero" fill-opacity="1" /><path clip-path="url(#clip340)" d="M1872.35 1284.59 L1872.35 1300.23 L1868.09 1300.23 L1868.09 1284.73 Q1868.09 1281.04 1866.66 1279.22 Q1865.22 1277.39 1862.35 1277.39 Q1858.9 1277.39 1856.91 1279.59 Q1854.92 1281.79 1854.92 1285.58 L1854.92 1300.23 L1850.64 1300.23 L1850.64 1264.22 L1854.92 1264.22 L1854.92 1278.34 Q1856.45 1276 1858.51 1274.84 Q1860.59 1273.68 1863.3 1273.68 Q1867.77 1273.68 1870.06 1276.46 Q1872.35 1279.22 1872.35 1284.59 Z" fill="#000000" fill-rule="nonzero" fill-opacity="1" /><polyline clip-path="url(#clip340)" style="stroke:#e26f46; stroke-linecap:round; stroke-linejoin:round; stroke-width:4; stroke-opacity:1; fill:none" points="1436.07,1334.79 1500.03,1334.79 "/>
<path clip-path="url(#clip340)" d="M1514.97 1348.19 L1514.97 1361.94 L1510.69 1361.94 L1510.69 1326.15 L1514.97 1326.15 L1514.97 1330.08 Q1516.31 1327.77 1518.35 1326.66 Q1520.41 1325.52 1523.26 1325.52 Q1527.98 1325.52 1530.92 1329.27 Q1533.88 1333.02 1533.88 1339.13 Q1533.88 1345.25 1530.92 1349 Q1527.98 1352.75 1523.26 1352.75 Q1520.41 1352.75 1518.35 1351.63 Q1516.31 1350.5 1514.97 1348.19 M1529.46 1339.13 Q1529.46 1334.44 1527.52 1331.77 Q1525.6 1329.09 1522.22 1329.09 Q1518.84 1329.09 1516.89 1331.77 Q1514.97 1334.44 1514.97 1339.13 Q1514.97 1343.83 1516.89 1346.52 Q1518.84 1349.18 1522.22 1349.18 Q1525.6 1349.18 1527.52 1346.52 Q1529.46 1343.83 1529.46 1339.13 Z" fill="#000000" fill-rule="nonzero" fill-opacity="1" /><path clip-path="url(#clip340)" d="M1554.07 1316.06 L1554.07 1319.6 L1549.99 1319.6 Q1547.7 1319.6 1546.8 1320.52 Q1545.92 1321.45 1545.92 1323.86 L1545.92 1326.15 L1552.93 1326.15 L1552.93 1329.46 L1545.92 1329.46 L1545.92 1352.07 L1541.64 1352.07 L1541.64 1329.46 L1537.56 1329.46 L1537.56 1326.15 L1541.64 1326.15 L1541.64 1324.34 Q1541.64 1320.01 1543.65 1318.05 Q1545.66 1316.06 1550.04 1316.06 L1554.07 1316.06 Z" fill="#000000" fill-rule="nonzero" fill-opacity="1" /><path clip-path="url(#clip340)" d="M1589.23 1326.91 L1589.23 1330.94 Q1587.42 1330.01 1585.48 1329.55 Q1583.54 1329.09 1581.45 1329.09 Q1578.28 1329.09 1576.68 1330.06 Q1575.11 1331.03 1575.11 1332.98 Q1575.11 1334.46 1576.24 1335.32 Q1577.38 1336.15 1580.8 1336.91 L1582.26 1337.24 Q1586.8 1338.21 1588.7 1339.99 Q1590.62 1341.75 1590.62 1344.92 Q1590.62 1348.53 1587.75 1350.64 Q1584.9 1352.75 1579.9 1352.75 Q1577.82 1352.75 1575.55 1352.33 Q1573.3 1351.94 1570.8 1351.13 L1570.8 1346.73 Q1573.16 1347.95 1575.46 1348.58 Q1577.75 1349.18 1579.99 1349.18 Q1583 1349.18 1584.62 1348.16 Q1586.24 1347.12 1586.24 1345.25 Q1586.24 1343.51 1585.06 1342.58 Q1583.91 1341.66 1579.95 1340.8 L1578.47 1340.45 Q1574.51 1339.62 1572.75 1337.91 Q1570.99 1336.17 1570.99 1333.16 Q1570.99 1329.51 1573.58 1327.51 Q1576.17 1325.52 1580.94 1325.52 Q1583.3 1325.52 1585.39 1325.87 Q1587.47 1326.22 1589.23 1326.91 Z" fill="#000000" fill-rule="nonzero" fill-opacity="1" /><path clip-path="url(#clip340)" d="M1617.59 1331.13 Q1619.18 1328.26 1621.41 1326.89 Q1623.63 1325.52 1626.64 1325.52 Q1630.69 1325.52 1632.89 1328.37 Q1635.09 1331.19 1635.09 1336.43 L1635.09 1352.07 L1630.8 1352.07 L1630.8 1336.57 Q1630.8 1332.84 1629.48 1331.03 Q1628.16 1329.23 1625.46 1329.23 Q1622.15 1329.23 1620.22 1331.43 Q1618.3 1333.63 1618.3 1337.42 L1618.3 1352.07 L1614.02 1352.07 L1614.02 1336.57 Q1614.02 1332.82 1612.7 1331.03 Q1611.38 1329.23 1608.63 1329.23 Q1605.36 1329.23 1603.44 1331.45 Q1601.52 1333.65 1601.52 1337.42 L1601.52 1352.07 L1597.24 1352.07 L1597.24 1326.15 L1601.52 1326.15 L1601.52 1330.18 Q1602.98 1327.79 1605.02 1326.66 Q1607.05 1325.52 1609.85 1325.52 Q1612.68 1325.52 1614.65 1326.96 Q1616.64 1328.39 1617.59 1331.13 Z" fill="#000000" fill-rule="nonzero" fill-opacity="1" /><path clip-path="url(#clip340)" d="M1653.63 1329.13 Q1650.2 1329.13 1648.21 1331.82 Q1646.22 1334.48 1646.22 1339.13 Q1646.22 1343.79 1648.19 1346.47 Q1650.18 1349.13 1653.63 1349.13 Q1657.03 1349.13 1659.02 1346.45 Q1661.01 1343.76 1661.01 1339.13 Q1661.01 1334.53 1659.02 1331.84 Q1657.03 1329.13 1653.63 1329.13 M1653.63 1325.52 Q1659.18 1325.52 1662.35 1329.13 Q1665.53 1332.75 1665.53 1339.13 Q1665.53 1345.5 1662.35 1349.13 Q1659.18 1352.75 1653.63 1352.75 Q1648.05 1352.75 1644.88 1349.13 Q1641.73 1345.5 1641.73 1339.13 Q1641.73 1332.75 1644.88 1329.13 Q1648.05 1325.52 1653.63 1325.52 Z" fill="#000000" fill-rule="nonzero" fill-opacity="1" /><path clip-path="url(#clip340)" d="M1682.63 1329.13 Q1679.21 1329.13 1677.22 1331.82 Q1675.22 1334.48 1675.22 1339.13 Q1675.22 1343.79 1677.19 1346.47 Q1679.18 1349.13 1682.63 1349.13 Q1686.03 1349.13 1688.03 1346.45 Q1690.02 1343.76 1690.02 1339.13 Q1690.02 1334.53 1688.03 1331.84 Q1686.03 1329.13 1682.63 1329.13 M1682.63 1325.52 Q1688.19 1325.52 1691.36 1329.13 Q1694.53 1332.75 1694.53 1339.13 Q1694.53 1345.5 1691.36 1349.13 Q1688.19 1352.75 1682.63 1352.75 Q1677.05 1352.75 1673.88 1349.13 Q1670.73 1345.5 1670.73 1339.13 Q1670.73 1332.75 1673.88 1329.13 Q1677.05 1325.52 1682.63 1325.52 Z" fill="#000000" fill-rule="nonzero" fill-opacity="1" /><path clip-path="url(#clip340)" d="M1705.8 1318.79 L1705.8 1326.15 L1714.58 1326.15 L1714.58 1329.46 L1705.8 1329.46 L1705.8 1343.53 Q1705.8 1346.7 1706.66 1347.61 Q1707.54 1348.51 1710.2 1348.51 L1714.58 1348.51 L1714.58 1352.07 L1710.2 1352.07 Q1705.27 1352.07 1703.4 1350.25 Q1701.52 1348.39 1701.52 1343.53 L1701.52 1329.46 L1698.4 1329.46 L1698.4 1326.15 L1701.52 1326.15 L1701.52 1318.79 L1705.8 1318.79 Z" fill="#000000" fill-rule="nonzero" fill-opacity="1" /><path clip-path="url(#clip340)" d="M1741.73 1336.43 L1741.73 1352.07 L1737.47 1352.07 L1737.47 1336.57 Q1737.47 1332.88 1736.03 1331.06 Q1734.6 1329.23 1731.73 1329.23 Q1728.28 1329.23 1726.29 1331.43 Q1724.3 1333.63 1724.3 1337.42 L1724.3 1352.07 L1720.02 1352.07 L1720.02 1316.06 L1724.3 1316.06 L1724.3 1330.18 Q1725.83 1327.84 1727.89 1326.68 Q1729.97 1325.52 1732.68 1325.52 Q1737.15 1325.52 1739.44 1328.3 Q1741.73 1331.06 1741.73 1336.43 Z" fill="#000000" fill-rule="nonzero" fill-opacity="1" /><polyline clip-path="url(#clip340)" style="stroke:#3da44d; stroke-linecap:round; stroke-linejoin:round; stroke-width:4; stroke-opacity:1; fill:none" points="1436.07,1386.63 1500.03,1386.63 "/>
<path clip-path="url(#clip340)" d="M1518.1 1370.63 L1518.1 1377.99 L1526.87 1377.99 L1526.87 1381.3 L1518.1 1381.3 L1518.1 1395.37 Q1518.1 1398.54 1518.95 1399.45 Q1519.83 1400.35 1522.49 1400.35 L1526.87 1400.35 L1526.87 1403.91 L1522.49 1403.91 Q1517.56 1403.91 1515.69 1402.09 Q1513.81 1400.23 1513.81 1395.37 L1513.81 1381.3 L1510.69 1381.3 L1510.69 1377.99 L1513.81 1377.99 L1513.81 1370.63 L1518.1 1370.63 Z" fill="#000000" fill-rule="nonzero" fill-opacity="1" /><path clip-path="url(#clip340)" d="M1547.49 1381.97 Q1546.78 1381.55 1545.92 1381.37 Q1545.09 1381.16 1544.07 1381.16 Q1540.46 1381.16 1538.51 1383.52 Q1536.59 1385.86 1536.59 1390.26 L1536.59 1403.91 L1532.31 1403.91 L1532.31 1377.99 L1536.59 1377.99 L1536.59 1382.02 Q1537.93 1379.66 1540.09 1378.52 Q1542.24 1377.36 1545.32 1377.36 Q1545.76 1377.36 1546.29 1377.43 Q1546.82 1377.48 1547.47 1377.6 L1547.49 1381.97 Z" fill="#000000" fill-rule="nonzero" fill-opacity="1" /><path clip-path="url(#clip340)" d="M1551.52 1393.68 L1551.52 1377.99 L1555.78 1377.99 L1555.78 1393.52 Q1555.78 1397.2 1557.22 1399.05 Q1558.65 1400.88 1561.52 1400.88 Q1564.97 1400.88 1566.96 1398.68 Q1568.97 1396.48 1568.97 1392.69 L1568.97 1377.99 L1573.23 1377.99 L1573.23 1403.91 L1568.97 1403.91 L1568.97 1399.93 Q1567.42 1402.29 1565.36 1403.45 Q1563.33 1404.59 1560.62 1404.59 Q1556.15 1404.59 1553.84 1401.81 Q1551.52 1399.03 1551.52 1393.68 M1562.24 1377.36 L1562.24 1377.36 Z" fill="#000000" fill-rule="nonzero" fill-opacity="1" /><path clip-path="url(#clip340)" d="M1604.18 1389.89 L1604.18 1391.97 L1584.6 1391.97 Q1584.88 1396.37 1587.24 1398.68 Q1589.62 1400.97 1593.86 1400.97 Q1596.31 1400.97 1598.6 1400.37 Q1600.92 1399.77 1603.19 1398.57 L1603.19 1402.59 Q1600.9 1403.57 1598.49 1404.08 Q1596.08 1404.59 1593.6 1404.59 Q1587.4 1404.59 1583.77 1400.97 Q1580.16 1397.36 1580.16 1391.21 Q1580.16 1384.84 1583.58 1381.11 Q1587.03 1377.36 1592.86 1377.36 Q1598.1 1377.36 1601.13 1380.74 Q1604.18 1384.1 1604.18 1389.89 M1599.92 1388.64 Q1599.88 1385.14 1597.96 1383.06 Q1596.06 1380.97 1592.91 1380.97 Q1589.35 1380.97 1587.19 1382.99 Q1585.06 1385 1584.74 1388.66 L1599.92 1388.64 Z" fill="#000000" fill-rule="nonzero" fill-opacity="1" /></svg>
