<?xml version="1.0" encoding="utf-8"?>
<svg xmlns="http://www.w3.org/2000/svg" xmlns:xlink="http://www.w3.org/1999/xlink" width="600" height="400" viewBox="0 0 2400 1600">
<defs>
  <clipPath id="clip750">
    <rect x="0" y="0" width="2400" height="1600"/>
  </clipPath>
</defs>
<path clip-path="url(#clip750)" d="M0 1600 L2400 1600 L2400 0 L0 0  Z" fill="#ffffff" fill-rule="evenodd" fill-opacity="1"/>
<defs>
  <clipPath id="clip751">
    <rect x="480" y="0" width="1681" height="1600"/>
  </clipPath>
</defs>
<path clip-path="url(#clip750)" d="M148.057 1486.45 L1156.44 1486.45 L1156.44 123.472 L148.057 123.472  Z" fill="#ffffff" fill-rule="evenodd" fill-opacity="1"/>
<defs>
  <clipPath id="clip752">
    <rect x="148" y="123" width="1009" height="1364"/>
  </clipPath>
</defs>
<polyline clip-path="url(#clip752)" style="stroke:#000000; stroke-linecap:round; stroke-linejoin:round; stroke-width:2; stroke-opacity:0.1; fill:none" points="166.987,1486.45 166.987,123.472 "/>
<polyline clip-path="url(#clip752)" style="stroke:#000000; stroke-linecap:round; stroke-linejoin:round; stroke-width:2; stroke-opacity:0.1; fill:none" points="407.214,1486.45 407.214,123.472 "/>
<polyline clip-path="url(#clip752)" style="stroke:#000000; stroke-linecap:round; stroke-linejoin:round; stroke-width:2; stroke-opacity:0.1; fill:none" points="647.442,1486.45 647.442,123.472 "/>
<polyline clip-path="url(#clip752)" style="stroke:#000000; stroke-linecap:round; stroke-linejoin:round; stroke-width:2; stroke-opacity:0.1; fill:none" points="887.67,1486.45 887.67,123.472 "/>
<polyline clip-path="url(#clip752)" style="stroke:#000000; stroke-linecap:round; stroke-linejoin:round; stroke-width:2; stroke-opacity:0.1; fill:none" points="1127.9,1486.45 1127.9,123.472 "/>
<polyline clip-path="url(#clip752)" style="stroke:#000000; stroke-linecap:round; stroke-linejoin:round; stroke-width:2; stroke-opacity:0.1; fill:none" points="148.057,1409.17 1156.44,1409.17 "/>
<polyline clip-path="url(#clip752)" style="stroke:#000000; stroke-linecap:round; stroke-linejoin:round; stroke-width:2; stroke-opacity:0.1; fill:none" points="148.057,1176.82 1156.44,1176.82 "/>
<polyline clip-path="url(#clip752)" style="stroke:#000000; stroke-linecap:round; stroke-linejoin:round; stroke-width:2; stroke-opacity:0.1; fill:none" points="148.057,944.466 1156.44,944.466 "/>
<polyline clip-path="url(#clip752)" style="stroke:#000000; stroke-linecap:round; stroke-linejoin:round; stroke-width:2; stroke-opacity:0.1; fill:none" points="148.057,712.113 1156.44,712.113 "/>
<polyline clip-path="url(#clip752)" style="stroke:#000000; stroke-linecap:round; stroke-linejoin:round; stroke-width:2; stroke-opacity:0.1; fill:none" points="148.057,479.761 1156.44,479.761 "/>
<polyline clip-path="url(#clip752)" style="stroke:#000000; stroke-linecap:round; stroke-linejoin:round; stroke-width:2; stroke-opacity:0.1; fill:none" points="148.057,247.408 1156.44,247.408 "/>
<polyline clip-path="url(#clip750)" style="stroke:#000000; stroke-linecap:round; stroke-linejoin:round; stroke-width:4; stroke-opacity:1; fill:none" points="148.057,1486.45 1156.44,1486.45 "/>
<polyline clip-path="url(#clip750)" style="stroke:#000000; stroke-linecap:round; stroke-linejoin:round; stroke-width:4; stroke-opacity:1; fill:none" points="166.987,1486.45 166.987,1467.55 "/>
<polyline clip-path="url(#clip750)" style="stroke:#000000; stroke-linecap:round; stroke-linejoin:round; stroke-width:4; stroke-opacity:1; fill:none" points="407.214,1486.45 407.214,1467.55 "/>
<polyline clip-path="url(#clip750)" style="stroke:#000000; stroke-linecap:round; stroke-linejoin:round; stroke-width:4; stroke-opacity:1; fill:none" points="647.442,1486.45 647.442,1467.55 "/>
<polyline clip-path="url(#clip750)" style="stroke:#000000; stroke-linecap:round; stroke-linejoin:round; stroke-width:4; stroke-opacity:1; fill:none" points="887.67,1486.45 887.67,1467.55 "/>
<polyline clip-path="url(#clip750)" style="stroke:#000000; stroke-linecap:round; stroke-linejoin:round; stroke-width:4; stroke-opacity:1; fill:none" points="1127.9,1486.45 1127.9,1467.55 "/>
<path clip-path="url(#clip750)" d="M166.987 1517.37 Q163.375 1517.37 161.547 1520.93 Q159.741 1524.47 159.741 1531.6 Q159.741 1538.71 161.547 1542.27 Q163.375 1545.82 166.987 1545.82 Q170.621 1545.82 172.426 1542.27 Q174.255 1538.71 174.255 1531.6 Q174.255 1524.47 172.426 1520.93 Q170.621 1517.37 166.987 1517.37 M166.987 1513.66 Q172.797 1513.66 175.852 1518.27 Q178.931 1522.85 178.931 1531.6 Q178.931 1540.33 175.852 1544.94 Q172.797 1549.52 166.987 1549.52 Q161.176 1549.52 158.098 1544.94 Q155.042 1540.33 155.042 1531.6 Q155.042 1522.85 158.098 1518.27 Q161.176 1513.66 166.987 1513.66 Z" fill="#000000" fill-rule="nonzero" fill-opacity="1" /><path clip-path="url(#clip750)" d="M386.485 1544.91 L402.805 1544.91 L402.805 1548.85 L380.86 1548.85 L380.86 1544.91 Q383.522 1542.16 388.106 1537.53 Q392.712 1532.88 393.893 1531.53 Q396.138 1529.01 397.018 1527.27 Q397.92 1525.51 397.92 1523.82 Q397.92 1521.07 395.976 1519.33 Q394.055 1517.6 390.953 1517.6 Q388.754 1517.6 386.3 1518.36 Q383.869 1519.13 381.092 1520.68 L381.092 1515.95 Q383.916 1514.82 386.369 1514.24 Q388.823 1513.66 390.86 1513.66 Q396.231 1513.66 399.425 1516.35 Q402.619 1519.03 402.619 1523.52 Q402.619 1525.65 401.809 1527.57 Q401.022 1529.47 398.916 1532.07 Q398.337 1532.74 395.235 1535.95 Q392.133 1539.15 386.485 1544.91 Z" fill="#000000" fill-rule="nonzero" fill-opacity="1" /><path clip-path="url(#clip750)" d="M412.666 1514.29 L431.022 1514.29 L431.022 1518.22 L416.948 1518.22 L416.948 1526.7 Q417.967 1526.35 418.985 1526.19 Q420.004 1526 421.022 1526 Q426.809 1526 430.189 1529.17 Q433.568 1532.34 433.568 1537.76 Q433.568 1543.34 430.096 1546.44 Q426.624 1549.52 420.304 1549.52 Q418.129 1549.52 415.86 1549.15 Q413.615 1548.78 411.207 1548.04 L411.207 1543.34 Q413.291 1544.47 415.513 1545.03 Q417.735 1545.58 420.212 1545.58 Q424.216 1545.58 426.554 1543.48 Q428.892 1541.37 428.892 1537.76 Q428.892 1534.15 426.554 1532.04 Q424.216 1529.94 420.212 1529.94 Q418.337 1529.94 416.462 1530.35 Q414.61 1530.77 412.666 1531.65 L412.666 1514.29 Z" fill="#000000" fill-rule="nonzero" fill-opacity="1" /><path clip-path="url(#clip750)" d="M622.141 1514.29 L640.498 1514.29 L640.498 1518.22 L626.424 1518.22 L626.424 1526.7 Q627.442 1526.35 628.461 1526.19 Q629.479 1526 630.498 1526 Q636.285 1526 639.664 1529.17 Q643.044 1532.34 643.044 1537.76 Q643.044 1543.34 639.572 1546.44 Q636.099 1549.52 629.78 1549.52 Q627.604 1549.52 625.336 1549.15 Q623.09 1548.78 620.683 1548.04 L620.683 1543.34 Q622.766 1544.47 624.988 1545.03 Q627.211 1545.58 629.687 1545.58 Q633.692 1545.58 636.03 1543.48 Q638.368 1541.37 638.368 1537.76 Q638.368 1534.15 636.03 1532.04 Q633.692 1529.94 629.687 1529.94 Q627.812 1529.94 625.937 1530.35 Q624.086 1530.77 622.141 1531.65 L622.141 1514.29 Z" fill="#000000" fill-rule="nonzero" fill-opacity="1" /><path clip-path="url(#clip750)" d="M662.257 1517.37 Q658.646 1517.37 656.817 1520.93 Q655.011 1524.47 655.011 1531.6 Q655.011 1538.71 656.817 1542.27 Q658.646 1545.82 662.257 1545.82 Q665.891 1545.82 667.696 1542.27 Q669.525 1538.71 669.525 1531.6 Q669.525 1524.47 667.696 1520.93 Q665.891 1517.37 662.257 1517.37 M662.257 1513.66 Q668.067 1513.66 671.122 1518.27 Q674.201 1522.85 674.201 1531.6 Q674.201 1540.33 671.122 1544.94 Q668.067 1549.52 662.257 1549.52 Q656.447 1549.52 653.368 1544.94 Q650.312 1540.33 650.312 1531.6 Q650.312 1522.85 653.368 1518.27 Q656.447 1513.66 662.257 1513.66 Z" fill="#000000" fill-rule="nonzero" fill-opacity="1" /><path clip-path="url(#clip750)" d="M861.524 1514.29 L883.746 1514.29 L883.746 1516.28 L871.2 1548.85 L866.316 1548.85 L878.121 1518.22 L861.524 1518.22 L861.524 1514.29 Z" fill="#000000" fill-rule="nonzero" fill-opacity="1" /><path clip-path="url(#clip750)" d="M892.913 1514.29 L911.269 1514.29 L911.269 1518.22 L897.195 1518.22 L897.195 1526.7 Q898.214 1526.35 899.232 1526.19 Q900.251 1526 901.269 1526 Q907.056 1526 910.436 1529.17 Q913.815 1532.34 913.815 1537.76 Q913.815 1543.34 910.343 1546.44 Q906.871 1549.52 900.552 1549.52 Q898.376 1549.52 896.107 1549.15 Q893.862 1548.78 891.454 1548.04 L891.454 1543.34 Q893.538 1544.47 895.76 1545.03 Q897.982 1545.58 900.459 1545.58 Q904.464 1545.58 906.802 1543.48 Q909.139 1541.37 909.139 1537.76 Q909.139 1534.15 906.802 1532.04 Q904.464 1529.94 900.459 1529.94 Q898.584 1529.94 896.709 1530.35 Q894.857 1530.77 892.913 1531.65 L892.913 1514.29 Z" fill="#000000" fill-rule="nonzero" fill-opacity="1" /><path clip-path="url(#clip750)" d="M1087.5 1544.91 L1095.14 1544.91 L1095.14 1518.55 L1086.83 1520.21 L1086.83 1515.95 L1095.1 1514.29 L1099.77 1514.29 L1099.77 1544.91 L1107.41 1544.91 L1107.41 1548.85 L1087.5 1548.85 L1087.5 1544.91 Z" fill="#000000" fill-rule="nonzero" fill-opacity="1" /><path clip-path="url(#clip750)" d="M1126.86 1517.37 Q1123.24 1517.37 1121.42 1520.93 Q1119.61 1524.47 1119.61 1531.6 Q1119.61 1538.71 1121.42 1542.27 Q1123.24 1545.82 1126.86 1545.82 Q1130.49 1545.82 1132.3 1542.27 Q1134.12 1538.71 1134.12 1531.6 Q1134.12 1524.47 1132.3 1520.93 Q1130.49 1517.37 1126.86 1517.37 M1126.86 1513.66 Q1132.67 1513.66 1135.72 1518.27 Q1138.8 1522.85 1138.8 1531.6 Q1138.8 1540.33 1135.72 1544.94 Q1132.67 1549.52 1126.86 1549.52 Q1121.05 1549.52 1117.97 1544.94 Q1114.91 1540.33 1114.91 1531.6 Q1114.91 1522.85 1117.97 1518.27 Q1121.05 1513.66 1126.86 1513.66 Z" fill="#000000" fill-rule="nonzero" fill-opacity="1" /><path clip-path="url(#clip750)" d="M1157.02 1517.37 Q1153.41 1517.37 1151.58 1520.93 Q1149.77 1524.47 1149.77 1531.6 Q1149.77 1538.71 1151.58 1542.27 Q1153.41 1545.82 1157.02 1545.82 Q1160.65 1545.82 1162.46 1542.27 Q1164.29 1538.71 1164.29 1531.6 Q1164.29 1524.47 1162.46 1520.93 Q1160.65 1517.37 1157.02 1517.37 M1157.02 1513.66 Q1162.83 1513.66 1165.88 1518.27 Q1168.96 1522.85 1168.96 1531.6 Q1168.96 1540.33 1165.88 1544.94 Q1162.83 1549.52 1157.02 1549.52 Q1151.21 1549.52 1148.13 1544.94 Q1145.07 1540.33 1145.07 1531.6 Q1145.07 1522.85 1148.13 1518.27 Q1151.21 1513.66 1157.02 1513.66 Z" fill="#000000" fill-rule="nonzero" fill-opacity="1" /><polyline clip-path="url(#clip750)" style="stroke:#000000; stroke-linecap:round; stroke-linejoin:round; stroke-width:4; stroke-opacity:1; fill:none" points="148.057,1486.45 148.057,123.472 "/>
<polyline clip-path="url(#clip750)" style="stroke:#000000; stroke-linecap:round; stroke-linejoin:round; stroke-width:4; stroke-opacity:1; fill:none" points="148.057,1409.17 166.954,1409.17 "/>
<polyline clip-path="url(#clip750)" style="stroke:#000000; stroke-linecap:round; stroke-linejoin:round; stroke-width:4; stroke-opacity:1; fill:none" points="148.057,1176.82 166.954,1176.82 "/>
<polyline clip-path="url(#clip750)" style="stroke:#000000; stroke-linecap:round; stroke-linejoin:round; stroke-width:4; stroke-opacity:1; fill:none" points="148.057,944.466 166.954,944.466 "/>
<polyline clip-path="url(#clip750)" style="stroke:#000000; stroke-linecap:round; stroke-linejoin:round; stroke-width:4; stroke-opacity:1; fill:none" points="148.057,712.113 166.954,712.113 "/>
<polyline clip-path="url(#clip750)" style="stroke:#000000; stroke-linecap:round; stroke-linejoin:round; stroke-width:4; stroke-opacity:1; fill:none" points="148.057,479.761 166.954,479.761 "/>
<polyline clip-path="url(#clip750)" style="stroke:#000000; stroke-linecap:round; stroke-linejoin:round; stroke-width:4; stroke-opacity:1; fill:none" points="148.057,247.408 166.954,247.408 "/>
<path clip-path="url(#clip750)" d="M50.9921 1409.62 L80.6679 1409.62 L80.6679 1413.56 L50.9921 1413.56 L50.9921 1409.62 Z" fill="#000000" fill-rule="nonzero" fill-opacity="1" /><path clip-path="url(#clip750)" d="M104.927 1407.82 Q108.283 1408.54 110.158 1410.8 Q112.057 1413.07 112.057 1416.41 Q112.057 1421.52 108.538 1424.32 Q105.02 1427.12 98.5382 1427.12 Q96.3623 1427.12 94.0475 1426.68 Q91.7558 1426.27 89.3021 1425.41 L89.3021 1420.9 Q91.2465 1422.03 93.5613 1422.61 Q95.8761 1423.19 98.3993 1423.19 Q102.797 1423.19 105.089 1421.45 Q107.404 1419.72 107.404 1416.41 Q107.404 1413.35 105.251 1411.64 Q103.121 1409.9 99.3021 1409.9 L95.2743 1409.9 L95.2743 1406.06 L99.4872 1406.06 Q102.936 1406.06 104.765 1404.69 Q106.594 1403.3 106.594 1400.71 Q106.594 1398.05 104.696 1396.64 Q102.821 1395.2 99.3021 1395.2 Q97.3808 1395.2 95.1817 1395.62 Q92.9826 1396.04 90.3438 1396.92 L90.3438 1392.75 Q93.0058 1392.01 95.3206 1391.64 Q97.6585 1391.27 99.7187 1391.27 Q105.043 1391.27 108.145 1393.7 Q111.246 1396.11 111.246 1400.23 Q111.246 1403.1 109.603 1405.09 Q107.959 1407.05 104.927 1407.82 Z" fill="#000000" fill-rule="nonzero" fill-opacity="1" /><path clip-path="url(#clip750)" d="M51.9412 1177.27 L81.617 1177.27 L81.617 1181.21 L51.9412 1181.21 L51.9412 1177.27 Z" fill="#000000" fill-rule="nonzero" fill-opacity="1" /><path clip-path="url(#clip750)" d="M95.7373 1190.16 L112.057 1190.16 L112.057 1194.1 L90.1123 1194.1 L90.1123 1190.16 Q92.7743 1187.41 97.3576 1182.78 Q101.964 1178.13 103.145 1176.78 Q105.39 1174.26 106.27 1172.53 Q107.172 1170.77 107.172 1169.08 Q107.172 1166.32 105.228 1164.59 Q103.307 1162.85 100.205 1162.85 Q98.0058 1162.85 95.5521 1163.61 Q93.1215 1164.38 90.3438 1165.93 L90.3438 1161.21 Q93.1678 1160.07 95.6215 1159.49 Q98.0752 1158.91 100.112 1158.91 Q105.483 1158.91 108.677 1161.6 Q111.871 1164.28 111.871 1168.78 Q111.871 1170.9 111.061 1172.83 Q110.274 1174.72 108.168 1177.32 Q107.589 1177.99 104.487 1181.21 Q101.385 1184.4 95.7373 1190.16 Z" fill="#000000" fill-rule="nonzero" fill-opacity="1" /><path clip-path="url(#clip750)" d="M51.5708 944.918 L81.2466 944.918 L81.2466 948.853 L51.5708 948.853 L51.5708 944.918 Z" fill="#000000" fill-rule="nonzero" fill-opacity="1" /><path clip-path="url(#clip750)" d="M92.1493 957.811 L99.7882 957.811 L99.7882 931.446 L91.478 933.112 L91.478 928.853 L99.7419 927.186 L104.418 927.186 L104.418 957.811 L112.057 957.811 L112.057 961.746 L92.1493 961.746 L92.1493 957.811 Z" fill="#000000" fill-rule="nonzero" fill-opacity="1" /><path clip-path="url(#clip750)" d="M100.112 697.912 Q96.5011 697.912 94.6724 701.477 Q92.8669 705.019 92.8669 712.148 Q92.8669 719.255 94.6724 722.819 Q96.5011 726.361 100.112 726.361 Q103.746 726.361 105.552 722.819 Q107.381 719.255 107.381 712.148 Q107.381 705.019 105.552 701.477 Q103.746 697.912 100.112 697.912 M100.112 694.208 Q105.922 694.208 108.978 698.815 Q112.057 703.398 112.057 712.148 Q112.057 720.875 108.978 725.481 Q105.922 730.065 100.112 730.065 Q94.3021 730.065 91.2234 725.481 Q88.1679 720.875 88.1679 712.148 Q88.1679 703.398 91.2234 698.815 Q94.3021 694.208 100.112 694.208 Z" fill="#000000" fill-rule="nonzero" fill-opacity="1" /><path clip-path="url(#clip750)" d="M92.1493 493.105 L99.7882 493.105 L99.7882 466.74 L91.478 468.406 L91.478 464.147 L99.7419 462.481 L104.418 462.481 L104.418 493.105 L112.057 493.105 L112.057 497.041 L92.1493 497.041 L92.1493 493.105 Z" fill="#000000" fill-rule="nonzero" fill-opacity="1" /><path clip-path="url(#clip750)" d="M95.7373 260.752 L112.057 260.752 L112.057 264.688 L90.1123 264.688 L90.1123 260.752 Q92.7743 257.998 97.3576 253.368 Q101.964 248.715 103.145 247.373 Q105.39 244.85 106.27 243.114 Q107.172 241.354 107.172 239.665 Q107.172 236.91 105.228 235.174 Q103.307 233.438 100.205 233.438 Q98.0058 233.438 95.5521 234.202 Q93.1215 234.966 90.3438 236.516 L90.3438 231.794 Q93.1678 230.66 95.6215 230.081 Q98.0752 229.503 100.112 229.503 Q105.483 229.503 108.677 232.188 Q111.871 234.873 111.871 239.364 Q111.871 241.493 111.061 243.415 Q110.274 245.313 108.168 247.905 Q107.589 248.577 104.487 251.794 Q101.385 254.989 95.7373 260.752 Z" fill="#000000" fill-rule="nonzero" fill-opacity="1" /><polyline clip-path="url(#clip752)" style="stroke:#009af9; stroke-linecap:round; stroke-linejoin:round; stroke-width:4; stroke-opacity:1; fill:none" points="176.596,680.06 186.205,653.486 195.814,563.842 205.423,1026.37 215.032,491.918 224.641,926.37 234.25,471.568 243.859,1123.11 253.469,1188.48 263.078,1085.51 272.687,848.142 282.296,762.297 291.905,219.722 301.514,646.084 311.123,258.557 320.732,683.446 330.341,795.009 339.951,851.789 349.56,284.781 359.169,491.115 368.778,1014.5 378.387,436.014 387.996,647.093 397.605,815.4 407.214,783.203 416.823,745.214 426.432,824.998 436.042,688.121 445.651,467.261 455.26,1447.87 464.869,841.242 474.478,1032.64 484.087,785.889 493.696,568.22 503.305,505.289 512.914,1004.05 522.524,770.109 532.133,779.411 541.742,527.488 551.351,982.896 560.96,633.544 570.569,625.053 580.178,1094.03 589.787,674.703 599.396,982.357 609.006,907.782 618.615,808.279 628.224,819.643 637.833,644.108 647.442,638.901 657.051,824.249 666.66,162.047 676.269,740.949 685.878,327.6 695.488,933.542 705.097,545.686 714.706,763.119 724.315,524.644 733.924,373.383 743.533,1046.2 753.142,804.682 762.751,893.869 772.36,223.517 781.969,443.729 791.579,967.465 801.188,751.165 810.797,914.827 820.406,328.37 830.015,850.612 839.624,821.477 849.233,1095.74 858.842,765.175 868.451,734.685 878.061,695.225 887.67,767.015 897.279,1003.66 906.888,845.188 916.497,887.958 926.106,846.408 935.715,457.883 945.324,752.304 954.933,795.242 964.543,671.584 974.152,518.266 983.761,567.151 993.37,675.608 1002.98,915.771 1012.59,568.888 1022.2,728.747 1031.81,878.041 1041.42,450.311 1051.02,810.991 1060.63,304.45 1070.24,636.153 1079.85,586.143 1089.46,777.452 1099.07,827.27 1108.68,447.907 1118.29,976.788 1127.9,426.291 "/>
<path clip-path="url(#clip750)" d="M523.701 1441.02 L1122.82 1441.02 L1122.82 1337.34 L523.701 1337.34  Z" fill="#ffffff" fill-rule="evenodd" fill-opacity="1"/>
<polyline clip-path="url(#clip750)" style="stroke:#000000; stroke-linecap:round; stroke-linejoin:round; stroke-width:4; stroke-opacity:1; fill:none" points="523.701,1441.02 1122.82,1441.02 1122.82,1337.34 523.701,1337.34 523.701,1441.02 "/>
<polyline clip-path="url(#clip750)" style="stroke:#009af9; stroke-linecap:round; stroke-linejoin:round; stroke-width:4; stroke-opacity:1; fill:none" points="534.906,1389.18 602.131,1389.18 "/>
<path clip-path="url(#clip750)" d="M638.891 1401.52 L638.891 1392.24 L631.252 1392.24 L631.252 1388.4 L643.52 1388.4 L643.52 1403.24 Q640.812 1405.16 637.548 1406.15 Q634.284 1407.13 630.58 1407.13 Q622.479 1407.13 617.895 1402.4 Q613.335 1397.66 613.335 1389.21 Q613.335 1380.74 617.895 1376.02 Q622.479 1371.27 630.58 1371.27 Q633.96 1371.27 636.992 1372.1 Q640.048 1372.94 642.617 1374.56 L642.617 1379.53 Q640.025 1377.34 637.108 1376.22 Q634.192 1375.11 630.974 1375.11 Q624.631 1375.11 621.437 1378.65 Q618.266 1382.2 618.266 1389.21 Q618.266 1396.2 621.437 1399.74 Q624.631 1403.28 630.974 1403.28 Q633.451 1403.28 635.395 1402.87 Q637.34 1402.43 638.891 1401.52 Z" fill="#000000" fill-rule="nonzero" fill-opacity="1" /><path clip-path="url(#clip750)" d="M663.659 1393.42 Q658.497 1393.42 656.506 1394.6 Q654.516 1395.78 654.516 1398.63 Q654.516 1400.9 655.997 1402.24 Q657.502 1403.56 660.071 1403.56 Q663.613 1403.56 665.742 1401.06 Q667.895 1398.54 667.895 1394.37 L667.895 1393.42 L663.659 1393.42 M672.154 1391.66 L672.154 1406.46 L667.895 1406.46 L667.895 1402.52 Q666.437 1404.88 664.261 1406.02 Q662.085 1407.13 658.937 1407.13 Q654.955 1407.13 652.594 1404.9 Q650.256 1402.66 650.256 1398.91 Q650.256 1394.53 653.173 1392.31 Q656.113 1390.09 661.923 1390.09 L667.895 1390.09 L667.895 1389.67 Q667.895 1386.73 665.951 1385.14 Q664.029 1383.52 660.534 1383.52 Q658.312 1383.52 656.205 1384.05 Q654.099 1384.58 652.154 1385.65 L652.154 1381.71 Q654.492 1380.81 656.691 1380.37 Q658.891 1379.9 660.974 1379.9 Q666.599 1379.9 669.377 1382.82 Q672.154 1385.74 672.154 1391.66 Z" fill="#000000" fill-rule="nonzero" fill-opacity="1" /><path clip-path="url(#clip750)" d="M680.488 1396.22 L680.488 1380.53 L684.747 1380.53 L684.747 1396.06 Q684.747 1399.74 686.182 1401.59 Q687.617 1403.42 690.488 1403.42 Q693.937 1403.42 695.927 1401.22 Q697.941 1399.02 697.941 1395.23 L697.941 1380.53 L702.2 1380.53 L702.2 1406.46 L697.941 1406.46 L697.941 1402.47 Q696.39 1404.83 694.33 1405.99 Q692.293 1407.13 689.585 1407.13 Q685.117 1407.13 682.802 1404.35 Q680.488 1401.57 680.488 1396.22 M691.205 1379.9 L691.205 1379.9 Z" fill="#000000" fill-rule="nonzero" fill-opacity="1" /><path clip-path="url(#clip750)" d="M727.501 1381.29 L727.501 1385.32 Q725.696 1384.4 723.751 1383.93 Q721.807 1383.47 719.724 1383.47 Q716.552 1383.47 714.955 1384.44 Q713.381 1385.41 713.381 1387.36 Q713.381 1388.84 714.515 1389.7 Q715.649 1390.53 719.075 1391.29 L720.534 1391.62 Q725.071 1392.59 726.969 1394.37 Q728.89 1396.13 728.89 1399.3 Q728.89 1402.91 726.02 1405.02 Q723.173 1407.13 718.173 1407.13 Q716.089 1407.13 713.821 1406.71 Q711.575 1406.32 709.075 1405.51 L709.075 1401.11 Q711.437 1402.34 713.728 1402.96 Q716.02 1403.56 718.265 1403.56 Q721.274 1403.56 722.895 1402.54 Q724.515 1401.5 724.515 1399.63 Q724.515 1397.89 723.335 1396.96 Q722.177 1396.04 718.219 1395.18 L716.737 1394.84 Q712.779 1394 711.02 1392.29 Q709.261 1390.55 709.261 1387.54 Q709.261 1383.89 711.853 1381.9 Q714.446 1379.9 719.214 1379.9 Q721.575 1379.9 723.659 1380.25 Q725.742 1380.6 727.501 1381.29 Z" fill="#000000" fill-rule="nonzero" fill-opacity="1" /><path clip-path="url(#clip750)" d="M752.2 1381.29 L752.2 1385.32 Q750.395 1384.4 748.45 1383.93 Q746.506 1383.47 744.422 1383.47 Q741.251 1383.47 739.654 1384.44 Q738.08 1385.41 738.08 1387.36 Q738.08 1388.84 739.214 1389.7 Q740.348 1390.53 743.774 1391.29 L745.233 1391.62 Q749.77 1392.59 751.668 1394.37 Q753.589 1396.13 753.589 1399.3 Q753.589 1402.91 750.719 1405.02 Q747.872 1407.13 742.872 1407.13 Q740.788 1407.13 738.52 1406.71 Q736.274 1406.32 733.774 1405.51 L733.774 1401.11 Q736.135 1402.34 738.427 1402.96 Q740.719 1403.56 742.964 1403.56 Q745.973 1403.56 747.594 1402.54 Q749.214 1401.5 749.214 1399.63 Q749.214 1397.89 748.034 1396.96 Q746.876 1396.04 742.918 1395.18 L741.436 1394.84 Q737.478 1394 735.719 1392.29 Q733.96 1390.55 733.96 1387.54 Q733.96 1383.89 736.552 1381.9 Q739.145 1379.9 743.913 1379.9 Q746.274 1379.9 748.358 1380.25 Q750.441 1380.6 752.2 1381.29 Z" fill="#000000" fill-rule="nonzero" fill-opacity="1" /><path clip-path="url(#clip750)" d="M760.371 1380.53 L764.631 1380.53 L764.631 1406.46 L760.371 1406.46 L760.371 1380.53 M760.371 1370.44 L764.631 1370.44 L764.631 1375.83 L760.371 1375.83 L760.371 1370.44 Z" fill="#000000" fill-rule="nonzero" fill-opacity="1" /><path clip-path="url(#clip750)" d="M785.325 1393.42 Q780.163 1393.42 778.172 1394.6 Q776.182 1395.78 776.182 1398.63 Q776.182 1400.9 777.663 1402.24 Q779.168 1403.56 781.737 1403.56 Q785.279 1403.56 787.408 1401.06 Q789.561 1398.54 789.561 1394.37 L789.561 1393.42 L785.325 1393.42 M793.82 1391.66 L793.82 1406.46 L789.561 1406.46 L789.561 1402.52 Q788.103 1404.88 785.927 1406.02 Q783.751 1407.13 780.603 1407.13 Q776.621 1407.13 774.26 1404.9 Q771.922 1402.66 771.922 1398.91 Q771.922 1394.53 774.839 1392.31 Q777.779 1390.09 783.589 1390.09 L789.561 1390.09 L789.561 1389.67 Q789.561 1386.73 787.617 1385.14 Q785.695 1383.52 782.2 1383.52 Q779.978 1383.52 777.871 1384.05 Q775.765 1384.58 773.82 1385.65 L773.82 1381.71 Q776.158 1380.81 778.357 1380.37 Q780.557 1379.9 782.64 1379.9 Q788.265 1379.9 791.043 1382.82 Q793.82 1385.74 793.82 1391.66 Z" fill="#000000" fill-rule="nonzero" fill-opacity="1" /><path clip-path="url(#clip750)" d="M824.144 1390.81 L824.144 1406.46 L819.885 1406.46 L819.885 1390.95 Q819.885 1387.27 818.45 1385.44 Q817.015 1383.61 814.144 1383.61 Q810.695 1383.61 808.705 1385.81 Q806.714 1388.01 806.714 1391.8 L806.714 1406.46 L802.431 1406.46 L802.431 1380.53 L806.714 1380.53 L806.714 1384.56 Q808.242 1382.22 810.302 1381.06 Q812.385 1379.9 815.093 1379.9 Q819.561 1379.9 821.853 1382.68 Q824.144 1385.44 824.144 1390.81 Z" fill="#000000" fill-rule="nonzero" fill-opacity="1" /><path clip-path="url(#clip750)" d="M845.232 1380.53 L849.491 1380.53 L854.815 1400.76 L860.116 1380.53 L865.139 1380.53 L870.463 1400.76 L875.764 1380.53 L880.024 1380.53 L873.241 1406.46 L868.218 1406.46 L862.639 1385.21 L857.038 1406.46 L852.014 1406.46 L845.232 1380.53 Z" fill="#000000" fill-rule="nonzero" fill-opacity="1" /><path clip-path="url(#clip750)" d="M908.033 1390.81 L908.033 1406.46 L903.773 1406.46 L903.773 1390.95 Q903.773 1387.27 902.338 1385.44 Q900.903 1383.61 898.033 1383.61 Q894.584 1383.61 892.593 1385.81 Q890.602 1388.01 890.602 1391.8 L890.602 1406.46 L886.32 1406.46 L886.32 1370.44 L890.602 1370.44 L890.602 1384.56 Q892.13 1382.22 894.19 1381.06 Q896.273 1379.9 898.982 1379.9 Q903.449 1379.9 905.741 1382.68 Q908.033 1385.44 908.033 1390.81 Z" fill="#000000" fill-rule="nonzero" fill-opacity="1" /><path clip-path="url(#clip750)" d="M916.528 1380.53 L920.787 1380.53 L920.787 1406.46 L916.528 1406.46 L916.528 1380.53 M916.528 1370.44 L920.787 1370.44 L920.787 1375.83 L916.528 1375.83 L916.528 1370.44 Z" fill="#000000" fill-rule="nonzero" fill-opacity="1" /><path clip-path="url(#clip750)" d="M933.912 1373.17 L933.912 1380.53 L942.685 1380.53 L942.685 1383.84 L933.912 1383.84 L933.912 1397.91 Q933.912 1401.09 934.769 1401.99 Q935.648 1402.89 938.31 1402.89 L942.685 1402.89 L942.685 1406.46 L938.31 1406.46 Q933.38 1406.46 931.505 1404.63 Q929.63 1402.77 929.63 1397.91 L929.63 1383.84 L926.505 1383.84 L926.505 1380.53 L929.63 1380.53 L929.63 1373.17 L933.912 1373.17 Z" fill="#000000" fill-rule="nonzero" fill-opacity="1" /><path clip-path="url(#clip750)" d="M970.463 1392.43 L970.463 1394.51 L950.88 1394.51 Q951.157 1398.91 953.519 1401.22 Q955.903 1403.52 960.139 1403.52 Q962.593 1403.52 964.884 1402.91 Q967.199 1402.31 969.468 1401.11 L969.468 1405.14 Q967.176 1406.11 964.768 1406.62 Q962.361 1407.13 959.884 1407.13 Q953.681 1407.13 950.046 1403.52 Q946.435 1399.9 946.435 1393.75 Q946.435 1387.38 949.861 1383.65 Q953.31 1379.9 959.144 1379.9 Q964.375 1379.9 967.407 1383.28 Q970.463 1386.64 970.463 1392.43 M966.204 1391.18 Q966.157 1387.68 964.236 1385.6 Q962.338 1383.52 959.19 1383.52 Q955.625 1383.52 953.472 1385.53 Q951.343 1387.54 951.019 1391.2 L966.204 1391.18 Z" fill="#000000" fill-rule="nonzero" fill-opacity="1" /><path clip-path="url(#clip750)" d="M1014.07 1390.81 L1014.07 1406.46 L1009.81 1406.46 L1009.81 1390.95 Q1009.81 1387.27 1008.38 1385.44 Q1006.94 1383.61 1004.07 1383.61 Q1000.62 1383.61 998.634 1385.81 Q996.643 1388.01 996.643 1391.8 L996.643 1406.46 L992.361 1406.46 L992.361 1380.53 L996.643 1380.53 L996.643 1384.56 Q998.171 1382.22 1000.23 1381.06 Q1002.31 1379.9 1005.02 1379.9 Q1009.49 1379.9 1011.78 1382.68 Q1014.07 1385.44 1014.07 1390.81 Z" fill="#000000" fill-rule="nonzero" fill-opacity="1" /><path clip-path="url(#clip750)" d="M1032.62 1383.52 Q1029.19 1383.52 1027.2 1386.2 Q1025.21 1388.86 1025.21 1393.52 Q1025.21 1398.17 1027.18 1400.85 Q1029.17 1403.52 1032.62 1403.52 Q1036.02 1403.52 1038.01 1400.83 Q1040 1398.15 1040 1393.52 Q1040 1388.91 1038.01 1386.22 Q1036.02 1383.52 1032.62 1383.52 M1032.62 1379.9 Q1038.17 1379.9 1041.34 1383.52 Q1044.51 1387.13 1044.51 1393.52 Q1044.51 1399.88 1041.34 1403.52 Q1038.17 1407.13 1032.62 1407.13 Q1027.04 1407.13 1023.87 1403.52 Q1020.72 1399.88 1020.72 1393.52 Q1020.72 1387.13 1023.87 1383.52 Q1027.04 1379.9 1032.62 1379.9 Z" fill="#000000" fill-rule="nonzero" fill-opacity="1" /><path clip-path="url(#clip750)" d="M1051.57 1380.53 L1055.83 1380.53 L1055.83 1406.46 L1051.57 1406.46 L1051.57 1380.53 M1051.57 1370.44 L1055.83 1370.44 L1055.83 1375.83 L1051.57 1375.83 L1051.57 1370.44 Z" fill="#000000" fill-rule="nonzero" fill-opacity="1" /><path clip-path="url(#clip750)" d="M1081.27 1381.29 L1081.27 1385.32 Q1079.47 1384.4 1077.52 1383.93 Q1075.58 1383.47 1073.49 1383.47 Q1070.32 1383.47 1068.73 1384.44 Q1067.15 1385.41 1067.15 1387.36 Q1067.15 1388.84 1068.29 1389.7 Q1069.42 1390.53 1072.85 1391.29 L1074.3 1391.62 Q1078.84 1392.59 1080.74 1394.37 Q1082.66 1396.13 1082.66 1399.3 Q1082.66 1402.91 1079.79 1405.02 Q1076.94 1407.13 1071.94 1407.13 Q1069.86 1407.13 1067.59 1406.71 Q1065.35 1406.32 1062.85 1405.51 L1062.85 1401.11 Q1065.21 1402.34 1067.5 1402.96 Q1069.79 1403.56 1072.04 1403.56 Q1075.05 1403.56 1076.67 1402.54 Q1078.29 1401.5 1078.29 1399.63 Q1078.29 1397.89 1077.11 1396.96 Q1075.95 1396.04 1071.99 1395.18 L1070.51 1394.84 Q1066.55 1394 1064.79 1392.29 Q1063.03 1390.55 1063.03 1387.54 Q1063.03 1383.89 1065.62 1381.9 Q1068.22 1379.9 1072.99 1379.9 Q1075.35 1379.9 1077.43 1380.25 Q1079.51 1380.6 1081.27 1381.29 Z" fill="#000000" fill-rule="nonzero" fill-opacity="1" /><path clip-path="url(#clip750)" d="M1111.62 1392.43 L1111.62 1394.51 L1092.04 1394.51 Q1092.31 1398.91 1094.68 1401.22 Q1097.06 1403.52 1101.3 1403.52 Q1103.75 1403.52 1106.04 1402.91 Q1108.36 1402.31 1110.62 1401.11 L1110.62 1405.14 Q1108.33 1406.11 1105.93 1406.62 Q1103.52 1407.13 1101.04 1407.13 Q1094.84 1407.13 1091.2 1403.52 Q1087.59 1399.9 1087.59 1393.75 Q1087.59 1387.38 1091.02 1383.65 Q1094.47 1379.9 1100.3 1379.9 Q1105.53 1379.9 1108.56 1383.28 Q1111.62 1386.64 1111.62 1392.43 M1107.36 1391.18 Q1107.31 1387.68 1105.39 1385.6 Q1103.49 1383.52 1100.35 1383.52 Q1096.78 1383.52 1094.63 1385.53 Q1092.5 1387.54 1092.18 1391.2 L1107.36 1391.18 Z" fill="#000000" fill-rule="nonzero" fill-opacity="1" /><path clip-path="url(#clip750)" d="M1344.38 1486.45 L2352.76 1486.45 L2352.76 123.472 L1344.38 123.472  Z" fill="#ffffff" fill-rule="evenodd" fill-opacity="1"/>
<defs>
  <clipPath id="clip753">
    <rect x="1344" y="123" width="1009" height="1364"/>
  </clipPath>
</defs>
<polyline clip-path="url(#clip753)" style="stroke:#000000; stroke-linecap:round; stroke-linejoin:round; stroke-width:2; stroke-opacity:0.1; fill:none" points="1474.63,1486.45 1474.63,123.472 "/>
<polyline clip-path="url(#clip753)" style="stroke:#000000; stroke-linecap:round; stroke-linejoin:round; stroke-width:2; stroke-opacity:0.1; fill:none" points="1624.2,1486.45 1624.2,123.472 "/>
<polyline clip-path="url(#clip753)" style="stroke:#000000; stroke-linecap:round; stroke-linejoin:round; stroke-width:2; stroke-opacity:0.1; fill:none" points="1773.78,1486.45 1773.78,123.472 "/>
<polyline clip-path="url(#clip753)" style="stroke:#000000; stroke-linecap:round; stroke-linejoin:round; stroke-width:2; stroke-opacity:0.1; fill:none" points="1923.35,1486.45 1923.35,123.472 "/>
<polyline clip-path="url(#clip753)" style="stroke:#000000; stroke-linecap:round; stroke-linejoin:round; stroke-width:2; stroke-opacity:0.1; fill:none" points="2072.93,1486.45 2072.93,123.472 "/>
<polyline clip-path="url(#clip753)" style="stroke:#000000; stroke-linecap:round; stroke-linejoin:round; stroke-width:2; stroke-opacity:0.1; fill:none" points="2222.51,1486.45 2222.51,123.472 "/>
<polyline clip-path="url(#clip753)" style="stroke:#000000; stroke-linecap:round; stroke-linejoin:round; stroke-width:2; stroke-opacity:0.1; fill:none" points="1344.38,1486.45 2352.76,1486.45 "/>
<polyline clip-path="url(#clip753)" style="stroke:#000000; stroke-linecap:round; stroke-linejoin:round; stroke-width:2; stroke-opacity:0.1; fill:none" points="1344.38,1224.34 2352.76,1224.34 "/>
<polyline clip-path="url(#clip753)" style="stroke:#000000; stroke-linecap:round; stroke-linejoin:round; stroke-width:2; stroke-opacity:0.1; fill:none" points="1344.38,962.226 2352.76,962.226 "/>
<polyline clip-path="url(#clip753)" style="stroke:#000000; stroke-linecap:round; stroke-linejoin:round; stroke-width:2; stroke-opacity:0.1; fill:none" points="1344.38,700.116 2352.76,700.116 "/>
<polyline clip-path="url(#clip753)" style="stroke:#000000; stroke-linecap:round; stroke-linejoin:round; stroke-width:2; stroke-opacity:0.1; fill:none" points="1344.38,438.005 2352.76,438.005 "/>
<polyline clip-path="url(#clip753)" style="stroke:#000000; stroke-linecap:round; stroke-linejoin:round; stroke-width:2; stroke-opacity:0.1; fill:none" points="1344.38,175.894 2352.76,175.894 "/>
<polyline clip-path="url(#clip750)" style="stroke:#000000; stroke-linecap:round; stroke-linejoin:round; stroke-width:4; stroke-opacity:1; fill:none" points="1344.38,1486.45 2352.76,1486.45 "/>
<polyline clip-path="url(#clip750)" style="stroke:#000000; stroke-linecap:round; stroke-linejoin:round; stroke-width:4; stroke-opacity:1; fill:none" points="1474.63,1486.45 1474.63,1467.55 "/>
<polyline clip-path="url(#clip750)" style="stroke:#000000; stroke-linecap:round; stroke-linejoin:round; stroke-width:4; stroke-opacity:1; fill:none" points="1624.2,1486.45 1624.2,1467.55 "/>
<polyline clip-path="url(#clip750)" style="stroke:#000000; stroke-linecap:round; stroke-linejoin:round; stroke-width:4; stroke-opacity:1; fill:none" points="1773.78,1486.45 1773.78,1467.55 "/>
<polyline clip-path="url(#clip750)" style="stroke:#000000; stroke-linecap:round; stroke-linejoin:round; stroke-width:4; stroke-opacity:1; fill:none" points="1923.35,1486.45 1923.35,1467.55 "/>
<polyline clip-path="url(#clip750)" style="stroke:#000000; stroke-linecap:round; stroke-linejoin:round; stroke-width:4; stroke-opacity:1; fill:none" points="2072.93,1486.45 2072.93,1467.55 "/>
<polyline clip-path="url(#clip750)" style="stroke:#000000; stroke-linecap:round; stroke-linejoin:round; stroke-width:4; stroke-opacity:1; fill:none" points="2222.51,1486.45 2222.51,1467.55 "/>
<path clip-path="url(#clip750)" d="M1444.09 1532.02 L1473.77 1532.02 L1473.77 1535.95 L1444.09 1535.95 L1444.09 1532.02 Z" fill="#000000" fill-rule="nonzero" fill-opacity="1" /><path clip-path="url(#clip750)" d="M1498.03 1530.21 Q1501.39 1530.93 1503.26 1533.2 Q1505.16 1535.47 1505.16 1538.8 Q1505.16 1543.92 1501.64 1546.72 Q1498.12 1549.52 1491.64 1549.52 Q1489.46 1549.52 1487.15 1549.08 Q1484.86 1548.66 1482.4 1547.81 L1482.4 1543.29 Q1484.35 1544.43 1486.66 1545.01 Q1488.98 1545.58 1491.5 1545.58 Q1495.9 1545.58 1498.19 1543.85 Q1500.51 1542.11 1500.51 1538.8 Q1500.51 1535.75 1498.35 1534.03 Q1496.22 1532.3 1492.4 1532.3 L1488.38 1532.3 L1488.38 1528.45 L1492.59 1528.45 Q1496.04 1528.45 1497.87 1527.09 Q1499.7 1525.7 1499.7 1523.11 Q1499.7 1520.45 1497.8 1519.03 Q1495.92 1517.6 1492.4 1517.6 Q1490.48 1517.6 1488.28 1518.01 Q1486.08 1518.43 1483.45 1519.31 L1483.45 1515.14 Q1486.11 1514.4 1488.42 1514.03 Q1490.76 1513.66 1492.82 1513.66 Q1498.15 1513.66 1501.25 1516.09 Q1504.35 1518.5 1504.35 1522.62 Q1504.35 1525.49 1502.71 1527.48 Q1501.06 1529.45 1498.03 1530.21 Z" fill="#000000" fill-rule="nonzero" fill-opacity="1" /><path clip-path="url(#clip750)" d="M1594.14 1532.02 L1623.82 1532.02 L1623.82 1535.95 L1594.14 1535.95 L1594.14 1532.02 Z" fill="#000000" fill-rule="nonzero" fill-opacity="1" /><path clip-path="url(#clip750)" d="M1637.94 1544.91 L1654.26 1544.91 L1654.26 1548.85 L1632.32 1548.85 L1632.32 1544.91 Q1634.98 1542.16 1639.56 1537.53 Q1644.17 1532.88 1645.35 1531.53 Q1647.59 1529.01 1648.47 1527.27 Q1649.38 1525.51 1649.38 1523.82 Q1649.38 1521.07 1647.43 1519.33 Q1645.51 1517.6 1642.41 1517.6 Q1640.21 1517.6 1637.76 1518.36 Q1635.33 1519.13 1632.55 1520.68 L1632.55 1515.95 Q1635.37 1514.82 1637.82 1514.24 Q1640.28 1513.66 1642.32 1513.66 Q1647.69 1513.66 1650.88 1516.35 Q1654.07 1519.03 1654.07 1523.52 Q1654.07 1525.65 1653.26 1527.57 Q1652.48 1529.47 1650.37 1532.07 Q1649.79 1532.74 1646.69 1535.95 Q1643.59 1539.15 1637.94 1544.91 Z" fill="#000000" fill-rule="nonzero" fill-opacity="1" /><path clip-path="url(#clip750)" d="M1743.54 1532.02 L1773.21 1532.02 L1773.21 1535.95 L1743.54 1535.95 L1743.54 1532.02 Z" fill="#000000" fill-rule="nonzero" fill-opacity="1" /><path clip-path="url(#clip750)" d="M1784.11 1544.91 L1791.75 1544.91 L1791.75 1518.55 L1783.44 1520.21 L1783.44 1515.95 L1791.71 1514.29 L1796.38 1514.29 L1796.38 1544.91 L1804.02 1544.91 L1804.02 1548.85 L1784.11 1548.85 L1784.11 1544.91 Z" fill="#000000" fill-rule="nonzero" fill-opacity="1" /><path clip-path="url(#clip750)" d="M1923.35 1517.37 Q1919.74 1517.37 1917.91 1520.93 Q1916.11 1524.47 1916.11 1531.6 Q1916.11 1538.71 1917.91 1542.27 Q1919.74 1545.82 1923.35 1545.82 Q1926.99 1545.82 1928.79 1542.27 Q1930.62 1538.71 1930.62 1531.6 Q1930.62 1524.47 1928.79 1520.93 Q1926.99 1517.37 1923.35 1517.37 M1923.35 1513.66 Q1929.16 1513.66 1932.22 1518.27 Q1935.3 1522.85 1935.3 1531.6 Q1935.3 1540.33 1932.22 1544.94 Q1929.16 1549.52 1923.35 1549.52 Q1917.54 1549.52 1914.47 1544.94 Q1911.41 1540.33 1911.41 1531.6 Q1911.41 1522.85 1914.47 1518.27 Q1917.54 1513.66 1923.35 1513.66 Z" fill="#000000" fill-rule="nonzero" fill-opacity="1" /><path clip-path="url(#clip750)" d="M2063.31 1544.91 L2070.95 1544.91 L2070.95 1518.55 L2062.64 1520.21 L2062.64 1515.95 L2070.9 1514.29 L2075.58 1514.29 L2075.58 1544.91 L2083.22 1544.91 L2083.22 1548.85 L2063.31 1548.85 L2063.31 1544.91 Z" fill="#000000" fill-rule="nonzero" fill-opacity="1" /><path clip-path="url(#clip750)" d="M2217.16 1544.91 L2233.48 1544.91 L2233.48 1548.85 L2211.53 1548.85 L2211.53 1544.91 Q2214.2 1542.16 2218.78 1537.53 Q2223.38 1532.88 2224.57 1531.53 Q2226.81 1529.01 2227.69 1527.27 Q2228.59 1525.51 2228.59 1523.82 Q2228.59 1521.07 2226.65 1519.33 Q2224.73 1517.6 2221.63 1517.6 Q2219.43 1517.6 2216.97 1518.36 Q2214.54 1519.13 2211.76 1520.68 L2211.76 1515.95 Q2214.59 1514.82 2217.04 1514.24 Q2219.5 1513.66 2221.53 1513.66 Q2226.9 1513.66 2230.1 1516.35 Q2233.29 1519.03 2233.29 1523.52 Q2233.29 1525.65 2232.48 1527.57 Q2231.7 1529.47 2229.59 1532.07 Q2229.01 1532.74 2225.91 1535.95 Q2222.81 1539.15 2217.16 1544.91 Z" fill="#000000" fill-rule="nonzero" fill-opacity="1" /><polyline clip-path="url(#clip750)" style="stroke:#000000; stroke-linecap:round; stroke-linejoin:round; stroke-width:4; stroke-opacity:1; fill:none" points="1344.38,1486.45 1344.38,123.472 "/>
<polyline clip-path="url(#clip750)" style="stroke:#000000; stroke-linecap:round; stroke-linejoin:round; stroke-width:4; stroke-opacity:1; fill:none" points="1344.38,1486.45 1363.27,1486.45 "/>
<polyline clip-path="url(#clip750)" style="stroke:#000000; stroke-linecap:round; stroke-linejoin:round; stroke-width:4; stroke-opacity:1; fill:none" points="1344.38,1224.34 1363.27,1224.34 "/>
<polyline clip-path="url(#clip750)" style="stroke:#000000; stroke-linecap:round; stroke-linejoin:round; stroke-width:4; stroke-opacity:1; fill:none" points="1344.38,962.226 1363.27,962.226 "/>
<polyline clip-path="url(#clip750)" style="stroke:#000000; stroke-linecap:round; stroke-linejoin:round; stroke-width:4; stroke-opacity:1; fill:none" points="1344.38,700.116 1363.27,700.116 "/>
<polyline clip-path="url(#clip750)" style="stroke:#000000; stroke-linecap:round; stroke-linejoin:round; stroke-width:4; stroke-opacity:1; fill:none" points="1344.38,438.005 1363.27,438.005 "/>
<polyline clip-path="url(#clip750)" style="stroke:#000000; stroke-linecap:round; stroke-linejoin:round; stroke-width:4; stroke-opacity:1; fill:none" points="1344.38,175.894 1363.27,175.894 "/>
<path clip-path="url(#clip750)" d="M1296.43 1472.25 Q1292.82 1472.25 1290.99 1475.81 Q1289.19 1479.35 1289.19 1486.48 Q1289.19 1493.59 1290.99 1497.15 Q1292.82 1500.7 1296.43 1500.7 Q1300.07 1500.7 1301.87 1497.15 Q1303.7 1493.59 1303.7 1486.48 Q1303.7 1479.35 1301.87 1475.81 Q1300.07 1472.25 1296.43 1472.25 M1296.43 1468.54 Q1302.24 1468.54 1305.3 1473.15 Q1308.38 1477.73 1308.38 1486.48 Q1308.38 1495.21 1305.3 1499.82 Q1302.24 1504.4 1296.43 1504.4 Q1290.62 1504.4 1287.54 1499.82 Q1284.49 1495.21 1284.49 1486.48 Q1284.49 1477.73 1287.54 1473.15 Q1290.62 1468.54 1296.43 1468.54 Z" fill="#000000" fill-rule="nonzero" fill-opacity="1" /><path clip-path="url(#clip750)" d="M1287.47 1207.06 L1305.83 1207.06 L1305.83 1210.99 L1291.76 1210.99 L1291.76 1219.46 Q1292.77 1219.12 1293.79 1218.96 Q1294.81 1218.77 1295.83 1218.77 Q1301.62 1218.77 1305 1221.94 Q1308.38 1225.11 1308.38 1230.53 Q1308.38 1236.11 1304.9 1239.21 Q1301.43 1242.29 1295.11 1242.29 Q1292.94 1242.29 1290.67 1241.92 Q1288.42 1241.55 1286.02 1240.81 L1286.02 1236.11 Q1288.1 1237.24 1290.32 1237.8 Q1292.54 1238.35 1295.02 1238.35 Q1299.02 1238.35 1301.36 1236.25 Q1303.7 1234.14 1303.7 1230.53 Q1303.7 1226.92 1301.36 1224.81 Q1299.02 1222.71 1295.02 1222.71 Q1293.14 1222.71 1291.27 1223.12 Q1289.42 1223.54 1287.47 1224.42 L1287.47 1207.06 Z" fill="#000000" fill-rule="nonzero" fill-opacity="1" /><path clip-path="url(#clip750)" d="M1257.08 975.571 L1264.72 975.571 L1264.72 949.206 L1256.41 950.872 L1256.41 946.613 L1264.67 944.946 L1269.35 944.946 L1269.35 975.571 L1276.99 975.571 L1276.99 979.506 L1257.08 979.506 L1257.08 975.571 Z" fill="#000000" fill-rule="nonzero" fill-opacity="1" /><path clip-path="url(#clip750)" d="M1296.43 948.025 Q1292.82 948.025 1290.99 951.59 Q1289.19 955.132 1289.19 962.261 Q1289.19 969.368 1290.99 972.932 Q1292.82 976.474 1296.43 976.474 Q1300.07 976.474 1301.87 972.932 Q1303.7 969.368 1303.7 962.261 Q1303.7 955.132 1301.87 951.59 Q1300.07 948.025 1296.43 948.025 M1296.43 944.321 Q1302.24 944.321 1305.3 948.928 Q1308.38 953.511 1308.38 962.261 Q1308.38 970.988 1305.3 975.594 Q1302.24 980.178 1296.43 980.178 Q1290.62 980.178 1287.54 975.594 Q1284.49 970.988 1284.49 962.261 Q1284.49 953.511 1287.54 948.928 Q1290.62 944.321 1296.43 944.321 Z" fill="#000000" fill-rule="nonzero" fill-opacity="1" /><path clip-path="url(#clip750)" d="M1258.08 713.461 L1265.71 713.461 L1265.71 687.095 L1257.4 688.762 L1257.4 684.502 L1265.67 682.836 L1270.34 682.836 L1270.34 713.461 L1277.98 713.461 L1277.98 717.396 L1258.08 717.396 L1258.08 713.461 Z" fill="#000000" fill-rule="nonzero" fill-opacity="1" /><path clip-path="url(#clip750)" d="M1287.47 682.836 L1305.83 682.836 L1305.83 686.771 L1291.76 686.771 L1291.76 695.243 Q1292.77 694.896 1293.79 694.734 Q1294.81 694.549 1295.83 694.549 Q1301.62 694.549 1305 697.72 Q1308.38 700.891 1308.38 706.308 Q1308.38 711.886 1304.9 714.988 Q1301.43 718.067 1295.11 718.067 Q1292.94 718.067 1290.67 717.697 Q1288.42 717.326 1286.02 716.586 L1286.02 711.886 Q1288.1 713.021 1290.32 713.576 Q1292.54 714.132 1295.02 714.132 Q1299.02 714.132 1301.36 712.025 Q1303.7 709.919 1303.7 706.308 Q1303.7 702.697 1301.36 700.59 Q1299.02 698.484 1295.02 698.484 Q1293.14 698.484 1291.27 698.9 Q1289.42 699.317 1287.47 700.197 L1287.47 682.836 Z" fill="#000000" fill-rule="nonzero" fill-opacity="1" /><path clip-path="url(#clip750)" d="M1260.3 451.35 L1276.62 451.35 L1276.62 455.285 L1254.67 455.285 L1254.67 451.35 Q1257.33 448.595 1261.92 443.966 Q1266.52 439.313 1267.7 437.97 Q1269.95 435.447 1270.83 433.711 Q1271.73 431.952 1271.73 430.262 Q1271.73 427.507 1269.79 425.771 Q1267.87 424.035 1264.77 424.035 Q1262.57 424.035 1260.11 424.799 Q1257.68 425.563 1254.9 427.114 L1254.9 422.392 Q1257.73 421.257 1260.18 420.679 Q1262.64 420.1 1264.67 420.1 Q1270.04 420.1 1273.24 422.785 Q1276.43 425.47 1276.43 429.961 Q1276.43 432.091 1275.62 434.012 Q1274.83 435.91 1272.73 438.503 Q1272.15 439.174 1269.05 442.392 Q1265.95 445.586 1260.3 451.35 Z" fill="#000000" fill-rule="nonzero" fill-opacity="1" /><path clip-path="url(#clip750)" d="M1296.43 423.804 Q1292.82 423.804 1290.99 427.368 Q1289.19 430.91 1289.19 438.04 Q1289.19 445.146 1290.99 448.711 Q1292.82 452.253 1296.43 452.253 Q1300.07 452.253 1301.87 448.711 Q1303.7 445.146 1303.7 438.04 Q1303.7 430.91 1301.87 427.368 Q1300.07 423.804 1296.43 423.804 M1296.43 420.1 Q1302.24 420.1 1305.3 424.706 Q1308.38 429.29 1308.38 438.04 Q1308.38 446.767 1305.3 451.373 Q1302.24 455.956 1296.43 455.956 Q1290.62 455.956 1287.54 451.373 Q1284.49 446.767 1284.49 438.04 Q1284.49 429.29 1287.54 424.706 Q1290.62 420.1 1296.43 420.1 Z" fill="#000000" fill-rule="nonzero" fill-opacity="1" /><path clip-path="url(#clip750)" d="M1261.29 189.239 L1277.61 189.239 L1277.61 193.174 L1255.67 193.174 L1255.67 189.239 Q1258.33 186.484 1262.91 181.855 Q1267.52 177.202 1268.7 175.86 Q1270.95 173.336 1271.83 171.6 Q1272.73 169.841 1272.73 168.151 Q1272.73 165.397 1270.78 163.661 Q1268.86 161.924 1265.76 161.924 Q1263.56 161.924 1261.11 162.688 Q1258.68 163.452 1255.9 165.003 L1255.9 160.281 Q1258.72 159.147 1261.18 158.568 Q1263.63 157.989 1265.67 157.989 Q1271.04 157.989 1274.23 160.674 Q1277.43 163.36 1277.43 167.85 Q1277.43 169.98 1276.62 171.901 Q1275.83 173.799 1273.72 176.392 Q1273.14 177.063 1270.04 180.281 Q1266.94 183.475 1261.29 189.239 Z" fill="#000000" fill-rule="nonzero" fill-opacity="1" /><path clip-path="url(#clip750)" d="M1287.47 158.614 L1305.83 158.614 L1305.83 162.549 L1291.76 162.549 L1291.76 171.022 Q1292.77 170.674 1293.79 170.512 Q1294.81 170.327 1295.83 170.327 Q1301.62 170.327 1305 173.498 Q1308.38 176.67 1308.38 182.086 Q1308.38 187.665 1304.9 190.767 Q1301.43 193.846 1295.11 193.846 Q1292.94 193.846 1290.67 193.475 Q1288.42 193.105 1286.02 192.364 L1286.02 187.665 Q1288.1 188.799 1290.32 189.355 Q1292.54 189.91 1295.02 189.91 Q1299.02 189.91 1301.36 187.804 Q1303.7 185.697 1303.7 182.086 Q1303.7 178.475 1301.36 176.369 Q1299.02 174.262 1295.02 174.262 Q1293.14 174.262 1291.27 174.679 Q1289.42 175.096 1287.47 175.975 L1287.47 158.614 Z" fill="#000000" fill-rule="nonzero" fill-opacity="1" /><path clip-path="url(#clip750)" d="M1640.98 12.096 L1649.16 12.096 L1649.16 36.8875 L1678.89 36.8875 L1678.89 12.096 L1687.08 12.096 L1687.08 72.576 L1678.89 72.576 L1678.89 43.7741 L1649.16 43.7741 L1649.16 72.576 L1640.98 72.576 L1640.98 12.096 Z" fill="#000000" fill-rule="nonzero" fill-opacity="1" /><path clip-path="url(#clip750)" d="M1703.04 27.2059 L1710.49 27.2059 L1710.49 72.576 L1703.04 72.576 L1703.04 27.2059 M1703.04 9.54393 L1710.49 9.54393 L1710.49 18.9825 L1703.04 18.9825 L1703.04 9.54393 Z" fill="#000000" fill-rule="nonzero" fill-opacity="1" /><path clip-path="url(#clip750)" d="M1755.01 28.5427 L1755.01 35.5912 Q1751.85 33.9709 1748.45 33.1607 Q1745.05 32.3505 1741.4 32.3505 Q1735.85 32.3505 1733.05 34.0519 Q1730.3 35.7533 1730.3 39.156 Q1730.3 41.7486 1732.28 43.2475 Q1734.27 44.7058 1740.27 46.0426 L1742.82 46.6097 Q1750.76 48.3111 1754.08 51.4303 Q1757.44 54.509 1757.44 60.0587 Q1757.44 66.3781 1752.42 70.0644 Q1747.44 73.7508 1738.69 73.7508 Q1735.04 73.7508 1731.07 73.0216 Q1727.14 72.3329 1722.77 70.9151 L1722.77 63.2184 Q1726.9 65.3654 1730.91 66.4591 Q1734.92 67.5124 1738.85 67.5124 Q1744.11 67.5124 1746.95 65.73 Q1749.78 63.9071 1749.78 60.6258 Q1749.78 57.5877 1747.72 55.9673 Q1745.69 54.3469 1738.77 52.8481 L1736.17 52.2405 Q1729.25 50.7821 1726.17 47.7845 Q1723.09 44.7463 1723.09 39.4801 Q1723.09 33.0797 1727.63 29.5959 Q1732.16 26.1121 1740.51 26.1121 Q1744.64 26.1121 1748.29 26.7198 Q1751.93 27.3274 1755.01 28.5427 Z" fill="#000000" fill-rule="nonzero" fill-opacity="1" /><path clip-path="url(#clip750)" d="M1776.68 14.324 L1776.68 27.2059 L1792.04 27.2059 L1792.04 32.9987 L1776.68 32.9987 L1776.68 57.6282 Q1776.68 63.1779 1778.18 64.7578 Q1779.72 66.3376 1784.38 66.3376 L1792.04 66.3376 L1792.04 72.576 L1784.38 72.576 Q1775.75 72.576 1772.47 69.3758 Q1769.19 66.1351 1769.19 57.6282 L1769.19 32.9987 L1763.72 32.9987 L1763.72 27.2059 L1769.19 27.2059 L1769.19 14.324 L1776.68 14.324 Z" fill="#000000" fill-rule="nonzero" fill-opacity="1" /><path clip-path="url(#clip750)" d="M1819.42 32.4315 Q1813.42 32.4315 1809.94 37.1306 Q1806.46 41.7891 1806.46 49.9314 Q1806.46 58.0738 1809.9 62.7728 Q1813.38 67.4314 1819.42 67.4314 Q1825.37 67.4314 1828.86 62.7323 Q1832.34 58.0333 1832.34 49.9314 Q1832.34 41.8701 1828.86 37.1711 Q1825.37 32.4315 1819.42 32.4315 M1819.42 26.1121 Q1829.14 26.1121 1834.69 32.4315 Q1840.24 38.7509 1840.24 49.9314 Q1840.24 61.0714 1834.69 67.4314 Q1829.14 73.7508 1819.42 73.7508 Q1809.66 73.7508 1804.11 67.4314 Q1798.6 61.0714 1798.6 49.9314 Q1798.6 38.7509 1804.11 32.4315 Q1809.66 26.1121 1819.42 26.1121 Z" fill="#000000" fill-rule="nonzero" fill-opacity="1" /><path clip-path="url(#clip750)" d="M1882.45 49.3643 Q1882.45 41.2625 1879.09 36.8065 Q1875.77 32.3505 1869.73 32.3505 Q1863.74 32.3505 1860.37 36.8065 Q1857.05 41.2625 1857.05 49.3643 Q1857.05 57.4256 1860.37 61.8816 Q1863.74 66.3376 1869.73 66.3376 Q1875.77 66.3376 1879.09 61.8816 Q1882.45 57.4256 1882.45 49.3643 M1889.91 66.9452 Q1889.91 78.5308 1884.76 84.1616 Q1879.62 89.8329 1869 89.8329 Q1865.07 89.8329 1861.59 89.2252 Q1858.11 88.6581 1854.82 87.4428 L1854.82 80.1917 Q1858.11 81.9741 1861.31 82.8248 Q1864.51 83.6755 1867.83 83.6755 Q1875.16 83.6755 1878.81 79.8271 Q1882.45 76.0193 1882.45 68.282 L1882.45 64.5957 Q1880.14 68.6061 1876.54 70.5911 Q1872.93 72.576 1867.91 72.576 Q1859.56 72.576 1854.46 66.2161 Q1849.36 59.8562 1849.36 49.3643 Q1849.36 38.832 1854.46 32.472 Q1859.56 26.1121 1867.91 26.1121 Q1872.93 26.1121 1876.54 28.0971 Q1880.14 30.082 1882.45 34.0924 L1882.45 27.2059 L1889.91 27.2059 L1889.91 66.9452 Z" fill="#000000" fill-rule="nonzero" fill-opacity="1" /><path clip-path="url(#clip750)" d="M1931.55 34.1734 Q1930.29 33.4443 1928.79 33.1202 Q1927.34 32.7556 1925.55 32.7556 Q1919.23 32.7556 1915.83 36.8875 Q1912.47 40.9789 1912.47 48.6757 L1912.47 72.576 L1904.97 72.576 L1904.97 27.2059 L1912.47 27.2059 L1912.47 34.2544 Q1914.82 30.1225 1918.59 28.1376 Q1922.35 26.1121 1927.74 26.1121 Q1928.51 26.1121 1929.44 26.2337 Q1930.37 26.3147 1931.51 26.5172 L1931.55 34.1734 Z" fill="#000000" fill-rule="nonzero" fill-opacity="1" /><path clip-path="url(#clip750)" d="M1959.99 49.7694 Q1950.95 49.7694 1947.47 51.8354 Q1943.99 53.9013 1943.99 58.8839 Q1943.99 62.8538 1946.58 65.2034 Q1949.21 67.5124 1953.71 67.5124 Q1959.91 67.5124 1963.63 63.1374 Q1967.4 58.7219 1967.4 51.4303 L1967.4 49.7694 L1959.99 49.7694 M1974.85 46.6907 L1974.85 72.576 L1967.4 72.576 L1967.4 65.6895 Q1964.85 69.8214 1961.04 71.8063 Q1957.23 73.7508 1951.72 73.7508 Q1944.75 73.7508 1940.62 69.8619 Q1936.53 65.9325 1936.53 59.3701 Q1936.53 51.7138 1941.64 47.825 Q1946.78 43.9361 1956.95 43.9361 L1967.4 43.9361 L1967.4 43.2069 Q1967.4 38.0623 1964 35.2672 Q1960.63 32.4315 1954.52 32.4315 Q1950.63 32.4315 1946.94 33.3632 Q1943.26 34.295 1939.85 36.1584 L1939.85 29.2718 Q1943.94 27.692 1947.79 26.9223 Q1951.64 26.1121 1955.29 26.1121 Q1965.13 26.1121 1969.99 31.2163 Q1974.85 36.3204 1974.85 46.6907 Z" fill="#000000" fill-rule="nonzero" fill-opacity="1" /><path clip-path="url(#clip750)" d="M2025.53 35.9153 Q2028.32 30.8922 2032.21 28.5022 Q2036.1 26.1121 2041.37 26.1121 Q2048.46 26.1121 2052.31 31.0947 Q2056.15 36.0368 2056.15 45.1919 L2056.15 72.576 L2048.66 72.576 L2048.66 45.4349 Q2048.66 38.913 2046.35 35.7533 Q2044.04 32.5936 2039.3 32.5936 Q2033.51 32.5936 2030.15 36.4419 Q2026.79 40.2903 2026.79 46.9338 L2026.79 72.576 L2019.29 72.576 L2019.29 45.4349 Q2019.29 38.8725 2016.98 35.7533 Q2014.67 32.5936 2009.85 32.5936 Q2004.14 32.5936 2000.78 36.4824 Q1997.42 40.3308 1997.42 46.9338 L1997.42 72.576 L1989.92 72.576 L1989.92 27.2059 L1997.42 27.2059 L1997.42 34.2544 Q1999.97 30.082 2003.53 28.0971 Q2007.1 26.1121 2012 26.1121 Q2016.94 26.1121 2020.39 28.6237 Q2023.87 31.1352 2025.53 35.9153 Z" fill="#000000" fill-rule="nonzero" fill-opacity="1" /><path clip-path="url(#clip753)" d="M1399.84 1434.03 L1399.84 1486.45 L1474.63 1486.45 L1474.63 1434.03 L1399.84 1434.03 L1399.84 1434.03  Z" fill="#009af9" fill-rule="evenodd" fill-opacity="1"/>
<polyline clip-path="url(#clip753)" style="stroke:#000000; stroke-linecap:round; stroke-linejoin:round; stroke-width:4; stroke-opacity:1; fill:none" points="1399.84,1434.03 1399.84,1486.45 1474.63,1486.45 1474.63,1434.03 1399.84,1434.03 "/>
<path clip-path="url(#clip753)" d="M1474.63 1486.45 L1474.63 1486.45 L1549.41 1486.45 L1549.41 1486.45 L1474.63 1486.45 L1474.63 1486.45  Z" fill="#009af9" fill-rule="evenodd" fill-opacity="1"/>
<polyline clip-path="url(#clip753)" style="stroke:#000000; stroke-linecap:round; stroke-linejoin:round; stroke-width:4; stroke-opacity:1; fill:none" points="1474.63,1486.45 1474.63,1486.45 1549.41,1486.45 1474.63,1486.45 "/>
<path clip-path="url(#clip753)" d="M1549.41 1434.03 L1549.41 1486.45 L1624.2 1486.45 L1624.2 1434.03 L1549.41 1434.03 L1549.41 1434.03  Z" fill="#009af9" fill-rule="evenodd" fill-opacity="1"/>
<polyline clip-path="url(#clip753)" style="stroke:#000000; stroke-linecap:round; stroke-linejoin:round; stroke-width:4; stroke-opacity:1; fill:none" points="1549.41,1434.03 1549.41,1486.45 1624.2,1486.45 1624.2,1434.03 1549.41,1434.03 "/>
<path clip-path="url(#clip753)" d="M1624.2 1276.76 L1624.2 1486.45 L1698.99 1486.45 L1698.99 1276.76 L1624.2 1276.76 L1624.2 1276.76  Z" fill="#009af9" fill-rule="evenodd" fill-opacity="1"/>
<polyline clip-path="url(#clip753)" style="stroke:#000000; stroke-linecap:round; stroke-linejoin:round; stroke-width:4; stroke-opacity:1; fill:none" points="1624.2,1276.76 1624.2,1486.45 1698.99,1486.45 1698.99,1276.76 1624.2,1276.76 "/>
<path clip-path="url(#clip753)" d="M1698.99 962.226 L1698.99 1486.45 L1773.78 1486.45 L1773.78 962.226 L1698.99 962.226 L1698.99 962.226  Z" fill="#009af9" fill-rule="evenodd" fill-opacity="1"/>
<polyline clip-path="url(#clip753)" style="stroke:#000000; stroke-linecap:round; stroke-linejoin:round; stroke-width:4; stroke-opacity:1; fill:none" points="1698.99,962.226 1698.99,1486.45 1773.78,1486.45 1773.78,962.226 1698.99,962.226 "/>
<path clip-path="url(#clip753)" d="M1773.78 752.538 L1773.78 1486.45 L1848.57 1486.45 L1848.57 752.538 L1773.78 752.538 L1773.78 752.538  Z" fill="#009af9" fill-rule="evenodd" fill-opacity="1"/>
<polyline clip-path="url(#clip753)" style="stroke:#000000; stroke-linecap:round; stroke-linejoin:round; stroke-width:4; stroke-opacity:1; fill:none" points="1773.78,752.538 1773.78,1486.45 1848.57,1486.45 1848.57,752.538 1773.78,752.538 "/>
<path clip-path="url(#clip753)" d="M1848.57 123.472 L1848.57 1486.45 L1923.35 1486.45 L1923.35 123.472 L1848.57 123.472 L1848.57 123.472  Z" fill="#009af9" fill-rule="evenodd" fill-opacity="1"/>
<polyline clip-path="url(#clip753)" style="stroke:#000000; stroke-linecap:round; stroke-linejoin:round; stroke-width:4; stroke-opacity:1; fill:none" points="1848.57,123.472 1848.57,1486.45 1923.35,1486.45 1923.35,123.472 1848.57,123.472 "/>
<path clip-path="url(#clip753)" d="M1923.35 700.116 L1923.35 1486.45 L1998.14 1486.45 L1998.14 700.116 L1923.35 700.116 L1923.35 700.116  Z" fill="#009af9" fill-rule="evenodd" fill-opacity="1"/>
<polyline clip-path="url(#clip753)" style="stroke:#000000; stroke-linecap:round; stroke-linejoin:round; stroke-width:4; stroke-opacity:1; fill:none" points="1923.35,700.116 1923.35,1486.45 1998.14,1486.45 1998.14,700.116 1923.35,700.116 "/>
<path clip-path="url(#clip753)" d="M1998.14 857.382 L1998.14 1486.45 L2072.93 1486.45 L2072.93 857.382 L1998.14 857.382 L1998.14 857.382  Z" fill="#009af9" fill-rule="evenodd" fill-opacity="1"/>
<polyline clip-path="url(#clip753)" style="stroke:#000000; stroke-linecap:round; stroke-linejoin:round; stroke-width:4; stroke-opacity:1; fill:none" points="1998.14,857.382 1998.14,1486.45 2072.93,1486.45 2072.93,857.382 1998.14,857.382 "/>
<path clip-path="url(#clip753)" d="M2072.93 1014.65 L2072.93 1486.45 L2147.72 1486.45 L2147.72 1014.65 L2072.93 1014.65 L2072.93 1014.65  Z" fill="#009af9" fill-rule="evenodd" fill-opacity="1"/>
<polyline clip-path="url(#clip753)" style="stroke:#000000; stroke-linecap:round; stroke-linejoin:round; stroke-width:4; stroke-opacity:1; fill:none" points="2072.93,1014.65 2072.93,1486.45 2147.72,1486.45 2147.72,1014.65 2072.93,1014.65 "/>
<path clip-path="url(#clip753)" d="M2147.72 1224.34 L2147.72 1486.45 L2222.51 1486.45 L2222.51 1224.34 L2147.72 1224.34 L2147.72 1224.34  Z" fill="#009af9" fill-rule="evenodd" fill-opacity="1"/>
<polyline clip-path="url(#clip753)" style="stroke:#000000; stroke-linecap:round; stroke-linejoin:round; stroke-width:4; stroke-opacity:1; fill:none" points="2147.72,1224.34 2147.72,1486.45 2222.51,1486.45 2222.51,1224.34 2147.72,1224.34 "/>
<path clip-path="url(#clip753)" d="M2222.51 1329.18 L2222.51 1486.45 L2297.29 1486.45 L2297.29 1329.18 L2222.51 1329.18 L2222.51 1329.18  Z" fill="#009af9" fill-rule="evenodd" fill-opacity="1"/>
<polyline clip-path="url(#clip753)" style="stroke:#000000; stroke-linecap:round; stroke-linejoin:round; stroke-width:4; stroke-opacity:1; fill:none" points="2222.51,1329.18 2222.51,1486.45 2297.29,1486.45 2297.29,1329.18 2222.51,1329.18 "/>
<circle clip-path="url(#clip753)" style="fill:#009af9; stroke:none; fill-opacity:0" cx="1437.23" cy="1434.03" r="2"/>
<circle clip-path="url(#clip753)" style="fill:#009af9; stroke:none; fill-opacity:0" cx="1512.02" cy="1486.45" r="2"/>
<circle clip-path="url(#clip753)" style="fill:#009af9; stroke:none; fill-opacity:0" cx="1586.81" cy="1434.03" r="2"/>
<circle clip-path="url(#clip753)" style="fill:#009af9; stroke:none; fill-opacity:0" cx="1661.6" cy="1276.76" r="2"/>
<circle clip-path="url(#clip753)" style="fill:#009af9; stroke:none; fill-opacity:0" cx="1736.38" cy="962.226" r="2"/>
<circle clip-path="url(#clip753)" style="fill:#009af9; stroke:none; fill-opacity:0" cx="1811.17" cy="752.538" r="2"/>
<circle clip-path="url(#clip753)" style="fill:#009af9; stroke:none; fill-opacity:0" cx="1885.96" cy="123.472" r="2"/>
<circle clip-path="url(#clip753)" style="fill:#009af9; stroke:none; fill-opacity:0" cx="1960.75" cy="700.116" r="2"/>
<circle clip-path="url(#clip753)" style="fill:#009af9; stroke:none; fill-opacity:0" cx="2035.54" cy="857.382" r="2"/>
<circle clip-path="url(#clip753)" style="fill:#009af9; stroke:none; fill-opacity:0" cx="2110.32" cy="1014.65" r="2"/>
<circle clip-path="url(#clip753)" style="fill:#009af9; stroke:none; fill-opacity:0" cx="2185.11" cy="1224.34" r="2"/>
<circle clip-path="url(#clip753)" style="fill:#009af9; stroke:none; fill-opacity:0" cx="2259.9" cy="1329.18" r="2"/>
</svg>
