<?xml version="1.0" encoding="utf-8"?>
<svg xmlns="http://www.w3.org/2000/svg" xmlns:xlink="http://www.w3.org/1999/xlink" width="600" height="400" viewBox="0 0 2400 1600">
<defs>
  <clipPath id="clip220">
    <rect x="0" y="0" width="2400" height="1600"/>
  </clipPath>
</defs>
<path clip-path="url(#clip220)" d="M0 1600 L2400 1600 L2400 0 L0 0  Z" fill="#ffffff" fill-rule="evenodd" fill-opacity="1"/>
<defs>
  <clipPath id="clip221">
    <rect x="480" y="0" width="1681" height="1600"/>
  </clipPath>
</defs>
<path clip-path="url(#clip220)" d="M239.19 1410.9 L2352.76 1410.9 L2352.76 123.472 L239.19 123.472  Z" fill="#ffffff" fill-rule="evenodd" fill-opacity="1"/>
<defs>
  <clipPath id="clip222">
    <rect x="239" y="123" width="2115" height="1288"/>
  </clipPath>
</defs>
<polyline clip-path="url(#clip222)" style="stroke:#000000; stroke-linecap:round; stroke-linejoin:round; stroke-width:2; stroke-opacity:0.1; fill:none" points="1096.58,1410.9 1096.58,123.472 "/>
<polyline clip-path="url(#clip222)" style="stroke:#000000; stroke-linecap:round; stroke-linejoin:round; stroke-width:2; stroke-opacity:0.1; fill:none" points="2093.55,1410.9 2093.55,123.472 "/>
<polyline clip-path="url(#clip222)" style="stroke:#000000; stroke-linecap:round; stroke-linejoin:round; stroke-width:2; stroke-opacity:0.1; fill:none" points="239.19,1270.52 2352.76,1270.52 "/>
<polyline clip-path="url(#clip222)" style="stroke:#000000; stroke-linecap:round; stroke-linejoin:round; stroke-width:2; stroke-opacity:0.1; fill:none" points="239.19,1015.62 2352.76,1015.62 "/>
<polyline clip-path="url(#clip222)" style="stroke:#000000; stroke-linecap:round; stroke-linejoin:round; stroke-width:2; stroke-opacity:0.1; fill:none" points="239.19,760.713 2352.76,760.713 "/>
<polyline clip-path="url(#clip222)" style="stroke:#000000; stroke-linecap:round; stroke-linejoin:round; stroke-width:2; stroke-opacity:0.1; fill:none" points="239.19,505.811 2352.76,505.811 "/>
<polyline clip-path="url(#clip222)" style="stroke:#000000; stroke-linecap:round; stroke-linejoin:round; stroke-width:2; stroke-opacity:0.1; fill:none" points="239.19,250.909 2352.76,250.909 "/>
<polyline clip-path="url(#clip220)" style="stroke:#000000; stroke-linecap:round; stroke-linejoin:round; stroke-width:4; stroke-opacity:1; fill:none" points="239.19,1410.9 2352.76,1410.9 "/>
<polyline clip-path="url(#clip220)" style="stroke:#000000; stroke-linecap:round; stroke-linejoin:round; stroke-width:4; stroke-opacity:1; fill:none" points="1096.58,1410.9 1096.58,1392 "/>
<polyline clip-path="url(#clip220)" style="stroke:#000000; stroke-linecap:round; stroke-linejoin:round; stroke-width:4; stroke-opacity:1; fill:none" points="2093.55,1410.9 2093.55,1392 "/>
<path clip-path="url(#clip220)" d="M1061.56 1485.02 L1069.2 1485.02 L1069.2 1458.66 L1060.89 1460.32 L1060.89 1456.06 L1069.16 1454.4 L1073.83 1454.4 L1073.83 1485.02 L1081.47 1485.02 L1081.47 1488.96 L1061.56 1488.96 L1061.56 1485.02 Z" fill="#000000" fill-rule="nonzero" fill-opacity="1" /><path clip-path="url(#clip220)" d="M1100.91 1457.48 Q1097.3 1457.48 1095.47 1461.04 Q1093.67 1464.58 1093.67 1471.71 Q1093.67 1478.82 1095.47 1482.38 Q1097.3 1485.92 1100.91 1485.92 Q1104.55 1485.92 1106.35 1482.38 Q1108.18 1478.82 1108.18 1471.71 Q1108.18 1464.58 1106.35 1461.04 Q1104.55 1457.48 1100.91 1457.48 M1100.91 1453.77 Q1106.72 1453.77 1109.78 1458.38 Q1112.86 1462.96 1112.86 1471.71 Q1112.86 1480.44 1109.78 1485.04 Q1106.72 1489.63 1100.91 1489.63 Q1095.1 1489.63 1092.03 1485.04 Q1088.97 1480.44 1088.97 1471.71 Q1088.97 1462.96 1092.03 1458.38 Q1095.1 1453.77 1100.91 1453.77 Z" fill="#000000" fill-rule="nonzero" fill-opacity="1" /><path clip-path="url(#clip220)" d="M1122.56 1435.97 Q1119.63 1435.97 1118.14 1438.86 Q1116.68 1441.74 1116.68 1447.53 Q1116.68 1453.31 1118.14 1456.2 Q1119.63 1459.08 1122.56 1459.08 Q1125.52 1459.08 1126.98 1456.2 Q1128.47 1453.31 1128.47 1447.53 Q1128.47 1441.74 1126.98 1438.86 Q1125.52 1435.97 1122.56 1435.97 M1122.56 1432.96 Q1127.28 1432.96 1129.77 1436.7 Q1132.27 1440.43 1132.27 1447.53 Q1132.27 1454.62 1129.77 1458.37 Q1127.28 1462.09 1122.56 1462.09 Q1117.84 1462.09 1115.34 1458.37 Q1112.86 1454.62 1112.86 1447.53 Q1112.86 1440.43 1115.34 1436.7 Q1117.84 1432.96 1122.56 1432.96 Z" fill="#000000" fill-rule="nonzero" fill-opacity="1" /><path clip-path="url(#clip220)" d="M2059.87 1485.02 L2067.51 1485.02 L2067.51 1458.66 L2059.2 1460.32 L2059.2 1456.06 L2067.47 1454.4 L2072.14 1454.4 L2072.14 1485.02 L2079.78 1485.02 L2079.78 1488.96 L2059.87 1488.96 L2059.87 1485.02 Z" fill="#000000" fill-rule="nonzero" fill-opacity="1" /><path clip-path="url(#clip220)" d="M2099.22 1457.48 Q2095.61 1457.48 2093.78 1461.04 Q2091.98 1464.58 2091.98 1471.71 Q2091.98 1478.82 2093.78 1482.38 Q2095.61 1485.92 2099.22 1485.92 Q2102.86 1485.92 2104.66 1482.38 Q2106.49 1478.82 2106.49 1471.71 Q2106.49 1464.58 2104.66 1461.04 Q2102.86 1457.48 2099.22 1457.48 M2099.22 1453.77 Q2105.03 1453.77 2108.09 1458.38 Q2111.17 1462.96 2111.17 1471.71 Q2111.17 1480.44 2108.09 1485.04 Q2105.03 1489.63 2099.22 1489.63 Q2093.41 1489.63 2090.34 1485.04 Q2087.28 1480.44 2087.28 1471.71 Q2087.28 1462.96 2090.34 1458.38 Q2093.41 1453.77 2099.22 1453.77 Z" fill="#000000" fill-rule="nonzero" fill-opacity="1" /><path clip-path="url(#clip220)" d="M2111.71 1458.35 L2117.92 1458.35 L2117.92 1436.93 L2111.17 1438.28 L2111.17 1434.82 L2117.88 1433.47 L2121.68 1433.47 L2121.68 1458.35 L2127.89 1458.35 L2127.89 1461.55 L2111.71 1461.55 L2111.71 1458.35 Z" fill="#000000" fill-rule="nonzero" fill-opacity="1" /><path clip-path="url(#clip220)" d="M733.834 1531.95 L733.834 1568.9 L741.6 1568.9 Q751.435 1568.9 755.986 1564.45 Q760.569 1559.99 760.569 1550.38 Q760.569 1540.83 755.986 1536.4 Q751.435 1531.95 741.6 1531.95 L733.834 1531.95 M727.404 1526.67 L740.613 1526.67 Q754.427 1526.67 760.888 1532.43 Q767.349 1538.16 767.349 1550.38 Q767.349 1562.66 760.856 1568.42 Q754.363 1574.19 740.613 1574.19 L727.404 1574.19 L727.404 1526.67 Z" fill="#000000" fill-rule="nonzero" fill-opacity="1" /><path clip-path="url(#clip220)" d="M792.175 1577.5 Q789.693 1583.86 787.337 1585.8 Q784.982 1587.74 781.035 1587.74 L776.356 1587.74 L776.356 1582.84 L779.794 1582.84 Q782.213 1582.84 783.55 1581.7 Q784.886 1580.55 786.51 1576.29 L787.56 1573.61 L773.142 1538.54 L779.348 1538.54 L790.488 1566.42 L801.628 1538.54 L807.835 1538.54 L792.175 1577.5 Z" fill="#000000" fill-rule="nonzero" fill-opacity="1" /><path clip-path="url(#clip220)" d="M845.552 1552.67 L845.552 1574.19 L839.695 1574.19 L839.695 1552.86 Q839.695 1547.8 837.722 1545.29 Q835.748 1542.77 831.802 1542.77 Q827.059 1542.77 824.322 1545.79 Q821.585 1548.82 821.585 1554.04 L821.585 1574.19 L815.696 1574.19 L815.696 1538.54 L821.585 1538.54 L821.585 1544.08 Q823.685 1540.86 826.518 1539.27 Q829.383 1537.68 833.107 1537.68 Q839.25 1537.68 842.401 1541.5 Q845.552 1545.29 845.552 1552.67 Z" fill="#000000" fill-rule="nonzero" fill-opacity="1" /><path clip-path="url(#clip220)" d="M873.433 1556.27 Q866.336 1556.27 863.598 1557.89 Q860.861 1559.51 860.861 1563.43 Q860.861 1566.55 862.898 1568.39 Q864.967 1570.21 868.5 1570.21 Q873.37 1570.21 876.298 1566.77 Q879.258 1563.3 879.258 1557.57 L879.258 1556.27 L873.433 1556.27 M885.115 1553.85 L885.115 1574.19 L879.258 1574.19 L879.258 1568.77 Q877.253 1572.02 874.261 1573.58 Q871.269 1575.11 866.94 1575.11 Q861.466 1575.11 858.219 1572.05 Q855.005 1568.97 855.005 1563.81 Q855.005 1557.79 859.015 1554.74 Q863.057 1551.68 871.046 1551.68 L879.258 1551.68 L879.258 1551.11 Q879.258 1547.07 876.584 1544.87 Q873.943 1542.64 869.137 1542.64 Q866.081 1542.64 863.185 1543.38 Q860.288 1544.11 857.615 1545.57 L857.615 1540.16 Q860.829 1538.92 863.853 1538.31 Q866.877 1537.68 869.741 1537.68 Q877.476 1537.68 881.295 1541.69 Q885.115 1545.7 885.115 1553.85 Z" fill="#000000" fill-rule="nonzero" fill-opacity="1" /><path clip-path="url(#clip220)" d="M924.932 1545.38 Q927.128 1541.43 930.184 1539.56 Q933.239 1537.68 937.377 1537.68 Q942.947 1537.68 945.971 1541.59 Q948.994 1545.48 948.994 1552.67 L948.994 1574.19 L943.106 1574.19 L943.106 1552.86 Q943.106 1547.74 941.292 1545.25 Q939.478 1542.77 935.754 1542.77 Q931.202 1542.77 928.56 1545.79 Q925.919 1548.82 925.919 1554.04 L925.919 1574.19 L920.03 1574.19 L920.03 1552.86 Q920.03 1547.7 918.216 1545.25 Q916.402 1542.77 912.614 1542.77 Q908.127 1542.77 905.485 1545.83 Q902.843 1548.85 902.843 1554.04 L902.843 1574.19 L896.955 1574.19 L896.955 1538.54 L902.843 1538.54 L902.843 1544.08 Q904.848 1540.8 907.649 1539.24 Q910.45 1537.68 914.301 1537.68 Q918.184 1537.68 920.89 1539.65 Q923.627 1541.62 924.932 1545.38 Z" fill="#000000" fill-rule="nonzero" fill-opacity="1" /><path clip-path="url(#clip220)" d="M960.675 1538.54 L966.532 1538.54 L966.532 1574.19 L960.675 1574.19 L960.675 1538.54 M960.675 1524.66 L966.532 1524.66 L966.532 1532.08 L960.675 1532.08 L960.675 1524.66 Z" fill="#000000" fill-rule="nonzero" fill-opacity="1" /><path clip-path="url(#clip220)" d="M1004.44 1539.91 L1004.44 1545.38 Q1001.96 1544.01 999.443 1543.34 Q996.96 1542.64 994.414 1542.64 Q988.716 1542.64 985.565 1546.27 Q982.414 1549.87 982.414 1556.39 Q982.414 1562.92 985.565 1566.55 Q988.716 1570.14 994.414 1570.14 Q996.96 1570.14 999.443 1569.47 Q1001.96 1568.77 1004.44 1567.41 L1004.44 1572.82 Q1001.99 1573.96 999.347 1574.54 Q996.737 1575.11 993.777 1575.11 Q985.725 1575.11 980.982 1570.05 Q976.24 1564.99 976.24 1556.39 Q976.24 1547.67 981.014 1542.68 Q985.82 1537.68 994.159 1537.68 Q996.865 1537.68 999.443 1538.25 Q1002.02 1538.79 1004.44 1539.91 Z" fill="#000000" fill-rule="nonzero" fill-opacity="1" /><path clip-path="url(#clip220)" d="M1037.35 1539.59 L1037.35 1545.13 Q1034.87 1543.85 1032.19 1543.22 Q1029.52 1542.58 1026.66 1542.58 Q1022.3 1542.58 1020.1 1543.92 Q1017.93 1545.25 1017.93 1547.93 Q1017.93 1549.96 1019.49 1551.14 Q1021.05 1552.29 1025.76 1553.34 L1027.77 1553.78 Q1034.01 1555.12 1036.62 1557.57 Q1039.26 1559.99 1039.26 1564.35 Q1039.26 1569.32 1035.31 1572.21 Q1031.4 1575.11 1024.52 1575.11 Q1021.66 1575.11 1018.54 1574.54 Q1015.45 1573.99 1012.01 1572.88 L1012.01 1566.83 Q1015.26 1568.52 1018.41 1569.38 Q1021.56 1570.21 1024.65 1570.21 Q1028.79 1570.21 1031.02 1568.81 Q1033.24 1567.37 1033.24 1564.8 Q1033.24 1562.41 1031.62 1561.14 Q1030.03 1559.86 1024.59 1558.68 L1022.55 1558.21 Q1017.11 1557.06 1014.69 1554.71 Q1012.27 1552.32 1012.27 1548.18 Q1012.27 1543.15 1015.83 1540.42 Q1019.4 1537.68 1025.96 1537.68 Q1029.2 1537.68 1032.07 1538.16 Q1034.93 1538.63 1037.35 1539.59 Z" fill="#000000" fill-rule="nonzero" fill-opacity="1" /><path clip-path="url(#clip220)" d="M1098.94 1552.67 L1098.94 1574.19 L1093.08 1574.19 L1093.08 1552.86 Q1093.08 1547.8 1091.11 1545.29 Q1089.14 1542.77 1085.19 1542.77 Q1080.45 1542.77 1077.71 1545.79 Q1074.97 1548.82 1074.97 1554.04 L1074.97 1574.19 L1069.08 1574.19 L1069.08 1538.54 L1074.97 1538.54 L1074.97 1544.08 Q1077.07 1540.86 1079.91 1539.27 Q1082.77 1537.68 1086.49 1537.68 Q1092.64 1537.68 1095.79 1541.5 Q1098.94 1545.29 1098.94 1552.67 Z" fill="#000000" fill-rule="nonzero" fill-opacity="1" /><path clip-path="url(#clip220)" d="M1124.43 1542.64 Q1119.72 1542.64 1116.99 1546.34 Q1114.25 1550 1114.25 1556.39 Q1114.25 1562.79 1116.95 1566.48 Q1119.69 1570.14 1124.43 1570.14 Q1129.11 1570.14 1131.85 1566.45 Q1134.59 1562.76 1134.59 1556.39 Q1134.59 1550.06 1131.85 1546.37 Q1129.11 1542.64 1124.43 1542.64 M1124.43 1537.68 Q1132.07 1537.68 1136.43 1542.64 Q1140.79 1547.61 1140.79 1556.39 Q1140.79 1565.15 1136.43 1570.14 Q1132.07 1575.11 1124.43 1575.11 Q1116.76 1575.11 1112.4 1570.14 Q1108.07 1565.15 1108.07 1556.39 Q1108.07 1547.61 1112.4 1542.64 Q1116.76 1537.68 1124.43 1537.68 Z" fill="#000000" fill-rule="nonzero" fill-opacity="1" /><path clip-path="url(#clip220)" d="M1150.5 1538.54 L1156.36 1538.54 L1156.36 1574.19 L1150.5 1574.19 L1150.5 1538.54 M1150.5 1524.66 L1156.36 1524.66 L1156.36 1532.08 L1150.5 1532.08 L1150.5 1524.66 Z" fill="#000000" fill-rule="nonzero" fill-opacity="1" /><path clip-path="url(#clip220)" d="M1191.34 1539.59 L1191.34 1545.13 Q1188.85 1543.85 1186.18 1543.22 Q1183.51 1542.58 1180.64 1542.58 Q1176.28 1542.58 1174.09 1543.92 Q1171.92 1545.25 1171.92 1547.93 Q1171.92 1549.96 1173.48 1551.14 Q1175.04 1552.29 1179.75 1553.34 L1181.76 1553.78 Q1187.99 1555.12 1190.6 1557.57 Q1193.25 1559.99 1193.25 1564.35 Q1193.25 1569.32 1189.3 1572.21 Q1185.38 1575.11 1178.51 1575.11 Q1175.65 1575.11 1172.53 1574.54 Q1169.44 1573.99 1166 1572.88 L1166 1566.83 Q1169.25 1568.52 1172.4 1569.38 Q1175.55 1570.21 1178.64 1570.21 Q1182.77 1570.21 1185 1568.81 Q1187.23 1567.37 1187.23 1564.8 Q1187.23 1562.41 1185.61 1561.14 Q1184.02 1559.86 1178.57 1558.68 L1176.54 1558.21 Q1171.09 1557.06 1168.67 1554.71 Q1166.26 1552.32 1166.26 1548.18 Q1166.26 1543.15 1169.82 1540.42 Q1173.39 1537.68 1179.94 1537.68 Q1183.19 1537.68 1186.05 1538.16 Q1188.92 1538.63 1191.34 1539.59 Z" fill="#000000" fill-rule="nonzero" fill-opacity="1" /><path clip-path="url(#clip220)" d="M1233.06 1554.9 L1233.06 1557.76 L1206.14 1557.76 Q1206.52 1563.81 1209.77 1566.99 Q1213.04 1570.14 1218.87 1570.14 Q1222.24 1570.14 1225.39 1569.32 Q1228.58 1568.49 1231.7 1566.83 L1231.7 1572.37 Q1228.54 1573.71 1225.23 1574.41 Q1221.92 1575.11 1218.52 1575.11 Q1209.99 1575.11 1204.99 1570.14 Q1200.03 1565.18 1200.03 1556.71 Q1200.03 1547.96 1204.74 1542.83 Q1209.48 1537.68 1217.5 1537.68 Q1224.69 1537.68 1228.86 1542.33 Q1233.06 1546.94 1233.06 1554.9 M1227.21 1553.18 Q1227.14 1548.37 1224.5 1545.51 Q1221.89 1542.64 1217.56 1542.64 Q1212.66 1542.64 1209.7 1545.41 Q1206.77 1548.18 1206.33 1553.21 L1227.21 1553.18 Z" fill="#000000" fill-rule="nonzero" fill-opacity="1" /><path clip-path="url(#clip220)" d="M1286.12 1539.59 L1286.12 1545.13 Q1283.64 1543.85 1280.97 1543.22 Q1278.29 1542.58 1275.43 1542.58 Q1271.07 1542.58 1268.87 1543.92 Q1266.71 1545.25 1266.71 1547.93 Q1266.71 1549.96 1268.27 1551.14 Q1269.83 1552.29 1274.54 1553.34 L1276.54 1553.78 Q1282.78 1555.12 1285.39 1557.57 Q1288.03 1559.99 1288.03 1564.35 Q1288.03 1569.32 1284.09 1572.21 Q1280.17 1575.11 1273.3 1575.11 Q1270.43 1575.11 1267.31 1574.54 Q1264.22 1573.99 1260.79 1572.88 L1260.79 1566.83 Q1264.03 1568.52 1267.18 1569.38 Q1270.34 1570.21 1273.42 1570.21 Q1277.56 1570.21 1279.79 1568.81 Q1282.02 1567.37 1282.02 1564.8 Q1282.02 1562.41 1280.39 1561.14 Q1278.8 1559.86 1273.36 1558.68 L1271.32 1558.21 Q1265.88 1557.06 1263.46 1554.71 Q1261.04 1552.32 1261.04 1548.18 Q1261.04 1543.15 1264.61 1540.42 Q1268.17 1537.68 1274.73 1537.68 Q1277.97 1537.68 1280.84 1538.16 Q1283.7 1538.63 1286.12 1539.59 Z" fill="#000000" fill-rule="nonzero" fill-opacity="1" /><path clip-path="url(#clip220)" d="M1303.15 1528.42 L1303.15 1538.54 L1315.21 1538.54 L1315.21 1543.09 L1303.15 1543.09 L1303.15 1562.44 Q1303.15 1566.8 1304.33 1568.04 Q1305.54 1569.28 1309.2 1569.28 L1315.21 1569.28 L1315.21 1574.19 L1309.2 1574.19 Q1302.42 1574.19 1299.84 1571.67 Q1297.26 1569.12 1297.26 1562.44 L1297.26 1543.09 L1292.97 1543.09 L1292.97 1538.54 L1297.26 1538.54 L1297.26 1528.42 L1303.15 1528.42 Z" fill="#000000" fill-rule="nonzero" fill-opacity="1" /><path clip-path="url(#clip220)" d="M1339.12 1556.27 Q1332.02 1556.27 1329.28 1557.89 Q1326.54 1559.51 1326.54 1563.43 Q1326.54 1566.55 1328.58 1568.39 Q1330.65 1570.21 1334.18 1570.21 Q1339.05 1570.21 1341.98 1566.77 Q1344.94 1563.3 1344.94 1557.57 L1344.94 1556.27 L1339.12 1556.27 M1350.8 1553.85 L1350.8 1574.19 L1344.94 1574.19 L1344.94 1568.77 Q1342.94 1572.02 1339.94 1573.58 Q1336.95 1575.11 1332.62 1575.11 Q1327.15 1575.11 1323.9 1572.05 Q1320.69 1568.97 1320.69 1563.81 Q1320.69 1557.79 1324.7 1554.74 Q1328.74 1551.68 1336.73 1551.68 L1344.94 1551.68 L1344.94 1551.11 Q1344.94 1547.07 1342.27 1544.87 Q1339.63 1542.64 1334.82 1542.64 Q1331.76 1542.64 1328.87 1543.38 Q1325.97 1544.11 1323.3 1545.57 L1323.3 1540.16 Q1326.51 1538.92 1329.54 1538.31 Q1332.56 1537.68 1335.42 1537.68 Q1343.16 1537.68 1346.98 1541.69 Q1350.8 1545.7 1350.8 1553.85 Z" fill="#000000" fill-rule="nonzero" fill-opacity="1" /><path clip-path="url(#clip220)" d="M1392.49 1552.67 L1392.49 1574.19 L1386.64 1574.19 L1386.64 1552.86 Q1386.64 1547.8 1384.66 1545.29 Q1382.69 1542.77 1378.74 1542.77 Q1374 1542.77 1371.26 1545.79 Q1368.53 1548.82 1368.53 1554.04 L1368.53 1574.19 L1362.64 1574.19 L1362.64 1538.54 L1368.53 1538.54 L1368.53 1544.08 Q1370.63 1540.86 1373.46 1539.27 Q1376.32 1537.68 1380.05 1537.68 Q1386.19 1537.68 1389.34 1541.5 Q1392.49 1545.29 1392.49 1552.67 Z" fill="#000000" fill-rule="nonzero" fill-opacity="1" /><path clip-path="url(#clip220)" d="M1427.63 1543.95 L1427.63 1524.66 L1433.49 1524.66 L1433.49 1574.19 L1427.63 1574.19 L1427.63 1568.84 Q1425.79 1572.02 1422.95 1573.58 Q1420.15 1575.11 1416.21 1575.11 Q1409.74 1575.11 1405.67 1569.95 Q1401.63 1564.8 1401.63 1556.39 Q1401.63 1547.99 1405.67 1542.83 Q1409.74 1537.68 1416.21 1537.68 Q1420.15 1537.68 1422.95 1539.24 Q1425.79 1540.77 1427.63 1543.95 M1407.68 1556.39 Q1407.68 1562.85 1410.32 1566.55 Q1412.99 1570.21 1417.64 1570.21 Q1422.28 1570.21 1424.96 1566.55 Q1427.63 1562.85 1427.63 1556.39 Q1427.63 1549.93 1424.96 1546.27 Q1422.28 1542.58 1417.64 1542.58 Q1412.99 1542.58 1410.32 1546.27 Q1407.68 1549.93 1407.68 1556.39 Z" fill="#000000" fill-rule="nonzero" fill-opacity="1" /><path clip-path="url(#clip220)" d="M1461.75 1556.27 Q1454.65 1556.27 1451.92 1557.89 Q1449.18 1559.51 1449.18 1563.43 Q1449.18 1566.55 1451.22 1568.39 Q1453.29 1570.21 1456.82 1570.21 Q1461.69 1570.21 1464.62 1566.77 Q1467.58 1563.3 1467.58 1557.57 L1467.58 1556.27 L1461.75 1556.27 M1473.43 1553.85 L1473.43 1574.19 L1467.58 1574.19 L1467.58 1568.77 Q1465.57 1572.02 1462.58 1573.58 Q1459.59 1575.11 1455.26 1575.11 Q1449.78 1575.11 1446.54 1572.05 Q1443.32 1568.97 1443.32 1563.81 Q1443.32 1557.79 1447.33 1554.74 Q1451.38 1551.68 1459.36 1551.68 L1467.58 1551.68 L1467.58 1551.11 Q1467.58 1547.07 1464.9 1544.87 Q1462.26 1542.64 1457.46 1542.64 Q1454.4 1542.64 1451.5 1543.38 Q1448.61 1544.11 1445.93 1545.57 L1445.93 1540.16 Q1449.15 1538.92 1452.17 1538.31 Q1455.2 1537.68 1458.06 1537.68 Q1465.79 1537.68 1469.61 1541.69 Q1473.43 1545.7 1473.43 1553.85 Z" fill="#000000" fill-rule="nonzero" fill-opacity="1" /><path clip-path="url(#clip220)" d="M1506.15 1544.01 Q1505.17 1543.44 1503.99 1543.18 Q1502.84 1542.9 1501.44 1542.9 Q1496.48 1542.9 1493.8 1546.14 Q1491.16 1549.36 1491.16 1555.41 L1491.16 1574.19 L1485.27 1574.19 L1485.27 1538.54 L1491.16 1538.54 L1491.16 1544.08 Q1493.01 1540.83 1495.97 1539.27 Q1498.93 1537.68 1503.16 1537.68 Q1503.77 1537.68 1504.5 1537.77 Q1505.23 1537.84 1506.12 1538 L1506.15 1544.01 Z" fill="#000000" fill-rule="nonzero" fill-opacity="1" /><path clip-path="url(#clip220)" d="M1534.61 1543.95 L1534.61 1524.66 L1540.46 1524.66 L1540.46 1574.19 L1534.61 1574.19 L1534.61 1568.84 Q1532.76 1572.02 1529.93 1573.58 Q1527.13 1575.11 1523.18 1575.11 Q1516.72 1575.11 1512.65 1569.95 Q1508.6 1564.8 1508.6 1556.39 Q1508.6 1547.99 1512.65 1542.83 Q1516.72 1537.68 1523.18 1537.68 Q1527.13 1537.68 1529.93 1539.24 Q1532.76 1540.77 1534.61 1543.95 M1514.65 1556.39 Q1514.65 1562.85 1517.29 1566.55 Q1519.97 1570.21 1524.61 1570.21 Q1529.26 1570.21 1531.93 1566.55 Q1534.61 1562.85 1534.61 1556.39 Q1534.61 1549.93 1531.93 1546.27 Q1529.26 1542.58 1524.61 1542.58 Q1519.97 1542.58 1517.29 1546.27 Q1514.65 1549.93 1514.65 1556.39 Z" fill="#000000" fill-rule="nonzero" fill-opacity="1" /><path clip-path="url(#clip220)" d="M1596.71 1543.95 L1596.71 1524.66 L1602.56 1524.66 L1602.56 1574.19 L1596.71 1574.19 L1596.71 1568.84 Q1594.86 1572.02 1592.03 1573.58 Q1589.23 1575.11 1585.28 1575.11 Q1578.82 1575.11 1574.74 1569.95 Q1570.7 1564.8 1570.7 1556.39 Q1570.7 1547.99 1574.74 1542.83 Q1578.82 1537.68 1585.28 1537.68 Q1589.23 1537.68 1592.03 1539.24 Q1594.86 1540.77 1596.71 1543.95 M1576.75 1556.39 Q1576.75 1562.85 1579.39 1566.55 Q1582.06 1570.21 1586.71 1570.21 Q1591.36 1570.21 1594.03 1566.55 Q1596.71 1562.85 1596.71 1556.39 Q1596.71 1549.93 1594.03 1546.27 Q1591.36 1542.58 1586.71 1542.58 Q1582.06 1542.58 1579.39 1546.27 Q1576.75 1549.93 1576.75 1556.39 Z" fill="#000000" fill-rule="nonzero" fill-opacity="1" /><path clip-path="url(#clip220)" d="M1645.12 1554.9 L1645.12 1557.76 L1618.19 1557.76 Q1618.57 1563.81 1621.82 1566.99 Q1625.1 1570.14 1630.92 1570.14 Q1634.29 1570.14 1637.45 1569.32 Q1640.63 1568.49 1643.75 1566.83 L1643.75 1572.37 Q1640.6 1573.71 1637.29 1574.41 Q1633.98 1575.11 1630.57 1575.11 Q1622.04 1575.11 1617.04 1570.14 Q1612.08 1565.18 1612.08 1556.71 Q1612.08 1547.96 1616.79 1542.83 Q1621.53 1537.68 1629.55 1537.68 Q1636.75 1537.68 1640.91 1542.33 Q1645.12 1546.94 1645.12 1554.9 M1639.26 1553.18 Q1639.2 1548.37 1636.55 1545.51 Q1633.94 1542.64 1629.62 1542.64 Q1624.71 1542.64 1621.75 1545.41 Q1618.83 1548.18 1618.38 1553.21 L1639.26 1553.18 Z" fill="#000000" fill-rule="nonzero" fill-opacity="1" /><path clip-path="url(#clip220)" d="M1650.53 1538.54 L1656.73 1538.54 L1667.87 1568.46 L1679.01 1538.54 L1685.22 1538.54 L1671.85 1574.19 L1663.9 1574.19 L1650.53 1538.54 Z" fill="#000000" fill-rule="nonzero" fill-opacity="1" /><path clip-path="url(#clip220)" d="M1693.3 1538.54 L1699.16 1538.54 L1699.16 1574.19 L1693.3 1574.19 L1693.3 1538.54 M1693.3 1524.66 L1699.16 1524.66 L1699.16 1532.08 L1693.3 1532.08 L1693.3 1524.66 Z" fill="#000000" fill-rule="nonzero" fill-opacity="1" /><path clip-path="url(#clip220)" d="M1727.62 1556.27 Q1720.52 1556.27 1717.78 1557.89 Q1715.04 1559.51 1715.04 1563.43 Q1715.04 1566.55 1717.08 1568.39 Q1719.15 1570.21 1722.68 1570.21 Q1727.55 1570.21 1730.48 1566.77 Q1733.44 1563.3 1733.44 1557.57 L1733.44 1556.27 L1727.62 1556.27 M1739.3 1553.85 L1739.3 1574.19 L1733.44 1574.19 L1733.44 1568.77 Q1731.44 1572.02 1728.44 1573.58 Q1725.45 1575.11 1721.12 1575.11 Q1715.65 1575.11 1712.4 1572.05 Q1709.19 1568.97 1709.19 1563.81 Q1709.19 1557.79 1713.2 1554.74 Q1717.24 1551.68 1725.23 1551.68 L1733.44 1551.68 L1733.44 1551.11 Q1733.44 1547.07 1730.77 1544.87 Q1728.13 1542.64 1723.32 1542.64 Q1720.26 1542.64 1717.37 1543.38 Q1714.47 1544.11 1711.8 1545.57 L1711.8 1540.16 Q1715.01 1538.92 1718.04 1538.31 Q1721.06 1537.68 1723.92 1537.68 Q1731.66 1537.68 1735.48 1541.69 Q1739.3 1545.7 1739.3 1553.85 Z" fill="#000000" fill-rule="nonzero" fill-opacity="1" /><path clip-path="url(#clip220)" d="M1757.15 1528.42 L1757.15 1538.54 L1769.22 1538.54 L1769.22 1543.09 L1757.15 1543.09 L1757.15 1562.44 Q1757.15 1566.8 1758.33 1568.04 Q1759.54 1569.28 1763.2 1569.28 L1769.22 1569.28 L1769.22 1574.19 L1763.2 1574.19 Q1756.42 1574.19 1753.84 1571.67 Q1751.26 1569.12 1751.26 1562.44 L1751.26 1543.09 L1746.97 1543.09 L1746.97 1538.54 L1751.26 1538.54 L1751.26 1528.42 L1757.15 1528.42 Z" fill="#000000" fill-rule="nonzero" fill-opacity="1" /><path clip-path="url(#clip220)" d="M1776.92 1538.54 L1782.77 1538.54 L1782.77 1574.19 L1776.92 1574.19 L1776.92 1538.54 M1776.92 1524.66 L1782.77 1524.66 L1782.77 1532.08 L1776.92 1532.08 L1776.92 1524.66 Z" fill="#000000" fill-rule="nonzero" fill-opacity="1" /><path clip-path="url(#clip220)" d="M1808.84 1542.64 Q1804.13 1542.64 1801.39 1546.34 Q1798.66 1550 1798.66 1556.39 Q1798.66 1562.79 1801.36 1566.48 Q1804.1 1570.14 1808.84 1570.14 Q1813.52 1570.14 1816.26 1566.45 Q1819 1562.76 1819 1556.39 Q1819 1550.06 1816.26 1546.37 Q1813.52 1542.64 1808.84 1542.64 M1808.84 1537.68 Q1816.48 1537.68 1820.84 1542.64 Q1825.2 1547.61 1825.2 1556.39 Q1825.2 1565.15 1820.84 1570.14 Q1816.48 1575.11 1808.84 1575.11 Q1801.17 1575.11 1796.81 1570.14 Q1792.48 1565.15 1792.48 1556.39 Q1792.48 1547.61 1796.81 1542.64 Q1801.17 1537.68 1808.84 1537.68 Z" fill="#000000" fill-rule="nonzero" fill-opacity="1" /><path clip-path="url(#clip220)" d="M1864.54 1552.67 L1864.54 1574.19 L1858.69 1574.19 L1858.69 1552.86 Q1858.69 1547.8 1856.71 1545.29 Q1854.74 1542.77 1850.79 1542.77 Q1846.05 1542.77 1843.31 1545.79 Q1840.58 1548.82 1840.58 1554.04 L1840.58 1574.19 L1834.69 1574.19 L1834.69 1538.54 L1840.58 1538.54 L1840.58 1544.08 Q1842.68 1540.86 1845.51 1539.27 Q1848.37 1537.68 1852.1 1537.68 Q1858.24 1537.68 1861.39 1541.5 Q1864.54 1545.29 1864.54 1552.67 Z" fill="#000000" fill-rule="nonzero" fill-opacity="1" /><polyline clip-path="url(#clip220)" style="stroke:#000000; stroke-linecap:round; stroke-linejoin:round; stroke-width:4; stroke-opacity:1; fill:none" points="239.19,1410.9 239.19,123.472 "/>
<polyline clip-path="url(#clip220)" style="stroke:#000000; stroke-linecap:round; stroke-linejoin:round; stroke-width:4; stroke-opacity:1; fill:none" points="239.19,1270.52 258.088,1270.52 "/>
<polyline clip-path="url(#clip220)" style="stroke:#000000; stroke-linecap:round; stroke-linejoin:round; stroke-width:4; stroke-opacity:1; fill:none" points="239.19,1015.62 258.088,1015.62 "/>
<polyline clip-path="url(#clip220)" style="stroke:#000000; stroke-linecap:round; stroke-linejoin:round; stroke-width:4; stroke-opacity:1; fill:none" points="239.19,760.713 258.088,760.713 "/>
<polyline clip-path="url(#clip220)" style="stroke:#000000; stroke-linecap:round; stroke-linejoin:round; stroke-width:4; stroke-opacity:1; fill:none" points="239.19,505.811 258.088,505.811 "/>
<polyline clip-path="url(#clip220)" style="stroke:#000000; stroke-linecap:round; stroke-linejoin:round; stroke-width:4; stroke-opacity:1; fill:none" points="239.19,250.909 258.088,250.909 "/>
<path clip-path="url(#clip220)" d="M50.9921 1270.97 L80.6679 1270.97 L80.6679 1274.9 L50.9921 1274.9 L50.9921 1270.97 Z" fill="#000000" fill-rule="nonzero" fill-opacity="1" /><path clip-path="url(#clip220)" d="M94.7882 1283.86 L111.108 1283.86 L111.108 1287.8 L89.1632 1287.8 L89.1632 1283.86 Q91.8252 1281.11 96.4085 1276.48 Q101.015 1271.83 102.196 1270.48 Q104.441 1267.96 105.321 1266.22 Q106.223 1264.46 106.223 1262.77 Q106.223 1260.02 104.279 1258.28 Q102.358 1256.55 99.2558 1256.55 Q97.0567 1256.55 94.603 1257.31 Q92.1725 1258.08 89.3947 1259.63 L89.3947 1254.9 Q92.2188 1253.77 94.6724 1253.19 Q97.1261 1252.61 99.1632 1252.61 Q104.534 1252.61 107.728 1255.3 Q110.922 1257.98 110.922 1262.47 Q110.922 1264.6 110.112 1266.52 Q109.325 1268.42 107.219 1271.02 Q106.64 1271.69 103.538 1274.9 Q100.436 1278.1 94.7882 1283.86 Z" fill="#000000" fill-rule="nonzero" fill-opacity="1" /><path clip-path="url(#clip220)" d="M124.95 1283.86 L141.269 1283.86 L141.269 1287.8 L119.325 1287.8 L119.325 1283.86 Q121.987 1281.11 126.57 1276.48 Q131.177 1271.83 132.357 1270.48 Q134.603 1267.96 135.482 1266.22 Q136.385 1264.46 136.385 1262.77 Q136.385 1260.02 134.441 1258.28 Q132.519 1256.55 129.418 1256.55 Q127.219 1256.55 124.765 1257.31 Q122.334 1258.08 119.557 1259.63 L119.557 1254.9 Q122.381 1253.77 124.834 1253.19 Q127.288 1252.61 129.325 1252.61 Q134.695 1252.61 137.89 1255.3 Q141.084 1257.98 141.084 1262.47 Q141.084 1264.6 140.274 1266.52 Q139.487 1268.42 137.381 1271.02 Q136.802 1271.69 133.7 1274.9 Q130.598 1278.1 124.95 1283.86 Z" fill="#000000" fill-rule="nonzero" fill-opacity="1" /><path clip-path="url(#clip220)" d="M151.13 1253.24 L169.487 1253.24 L169.487 1257.17 L155.413 1257.17 L155.413 1265.64 Q156.431 1265.3 157.45 1265.14 Q158.468 1264.95 159.487 1264.95 Q165.274 1264.95 168.654 1268.12 Q172.033 1271.29 172.033 1276.71 Q172.033 1282.29 168.561 1285.39 Q165.089 1288.47 158.769 1288.47 Q156.593 1288.47 154.325 1288.1 Q152.08 1287.73 149.672 1286.99 L149.672 1282.29 Q151.755 1283.42 153.978 1283.98 Q156.2 1284.53 158.677 1284.53 Q162.681 1284.53 165.019 1282.43 Q167.357 1280.32 167.357 1276.71 Q167.357 1273.1 165.019 1270.99 Q162.681 1268.89 158.677 1268.89 Q156.802 1268.89 154.927 1269.3 Q153.075 1269.72 151.13 1270.6 L151.13 1253.24 Z" fill="#000000" fill-rule="nonzero" fill-opacity="1" /><path clip-path="url(#clip220)" d="M191.246 1256.32 Q187.635 1256.32 185.806 1259.88 Q184.001 1263.42 184.001 1270.55 Q184.001 1277.66 185.806 1281.22 Q187.635 1284.77 191.246 1284.77 Q194.88 1284.77 196.686 1281.22 Q198.514 1277.66 198.514 1270.55 Q198.514 1263.42 196.686 1259.88 Q194.88 1256.32 191.246 1256.32 M191.246 1252.61 Q197.056 1252.61 200.112 1257.22 Q203.19 1261.8 203.19 1270.55 Q203.19 1279.28 200.112 1283.89 Q197.056 1288.47 191.246 1288.47 Q185.436 1288.47 182.357 1283.89 Q179.302 1279.28 179.302 1270.55 Q179.302 1261.8 182.357 1257.22 Q185.436 1252.61 191.246 1252.61 Z" fill="#000000" fill-rule="nonzero" fill-opacity="1" /><path clip-path="url(#clip220)" d="M50.9921 1016.07 L80.6679 1016.07 L80.6679 1020 L50.9921 1020 L50.9921 1016.07 Z" fill="#000000" fill-rule="nonzero" fill-opacity="1" /><path clip-path="url(#clip220)" d="M94.7882 1028.96 L111.108 1028.96 L111.108 1032.9 L89.1632 1032.9 L89.1632 1028.96 Q91.8252 1026.21 96.4085 1021.58 Q101.015 1016.92 102.196 1015.58 Q104.441 1013.06 105.321 1011.32 Q106.223 1009.56 106.223 1007.87 Q106.223 1005.12 104.279 1003.38 Q102.358 1001.65 99.2558 1001.65 Q97.0567 1001.65 94.603 1002.41 Q92.1725 1003.17 89.3947 1004.72 L89.3947 1000 Q92.2188 998.868 94.6724 998.289 Q97.1261 997.71 99.1632 997.71 Q104.534 997.71 107.728 1000.4 Q110.922 1003.08 110.922 1007.57 Q110.922 1009.7 110.112 1011.62 Q109.325 1013.52 107.219 1016.11 Q106.64 1016.78 103.538 1020 Q100.436 1023.2 94.7882 1028.96 Z" fill="#000000" fill-rule="nonzero" fill-opacity="1" /><path clip-path="url(#clip220)" d="M130.922 1001.41 Q127.311 1001.41 125.482 1004.98 Q123.677 1008.52 123.677 1015.65 Q123.677 1022.76 125.482 1026.32 Q127.311 1029.86 130.922 1029.86 Q134.556 1029.86 136.362 1026.32 Q138.191 1022.76 138.191 1015.65 Q138.191 1008.52 136.362 1004.98 Q134.556 1001.41 130.922 1001.41 M130.922 997.71 Q136.732 997.71 139.788 1002.32 Q142.867 1006.9 142.867 1015.65 Q142.867 1024.38 139.788 1028.98 Q136.732 1033.57 130.922 1033.57 Q125.112 1033.57 122.033 1028.98 Q118.978 1024.38 118.978 1015.65 Q118.978 1006.9 122.033 1002.32 Q125.112 997.71 130.922 997.71 Z" fill="#000000" fill-rule="nonzero" fill-opacity="1" /><path clip-path="url(#clip220)" d="M161.084 1001.41 Q157.473 1001.41 155.644 1004.98 Q153.839 1008.52 153.839 1015.65 Q153.839 1022.76 155.644 1026.32 Q157.473 1029.86 161.084 1029.86 Q164.718 1029.86 166.524 1026.32 Q168.353 1022.76 168.353 1015.65 Q168.353 1008.52 166.524 1004.98 Q164.718 1001.41 161.084 1001.41 M161.084 997.71 Q166.894 997.71 169.95 1002.32 Q173.029 1006.9 173.029 1015.65 Q173.029 1024.38 169.95 1028.98 Q166.894 1033.57 161.084 1033.57 Q155.274 1033.57 152.195 1028.98 Q149.14 1024.38 149.14 1015.65 Q149.14 1006.9 152.195 1002.32 Q155.274 997.71 161.084 997.71 Z" fill="#000000" fill-rule="nonzero" fill-opacity="1" /><path clip-path="url(#clip220)" d="M191.246 1001.41 Q187.635 1001.41 185.806 1004.98 Q184.001 1008.52 184.001 1015.65 Q184.001 1022.76 185.806 1026.32 Q187.635 1029.86 191.246 1029.86 Q194.88 1029.86 196.686 1026.32 Q198.514 1022.76 198.514 1015.65 Q198.514 1008.52 196.686 1004.98 Q194.88 1001.41 191.246 1001.41 M191.246 997.71 Q197.056 997.71 200.112 1002.32 Q203.19 1006.9 203.19 1015.65 Q203.19 1024.38 200.112 1028.98 Q197.056 1033.57 191.246 1033.57 Q185.436 1033.57 182.357 1028.98 Q179.302 1024.38 179.302 1015.65 Q179.302 1006.9 182.357 1002.32 Q185.436 997.71 191.246 997.71 Z" fill="#000000" fill-rule="nonzero" fill-opacity="1" /><path clip-path="url(#clip220)" d="M50.9921 761.164 L80.6679 761.164 L80.6679 765.1 L50.9921 765.1 L50.9921 761.164 Z" fill="#000000" fill-rule="nonzero" fill-opacity="1" /><path clip-path="url(#clip220)" d="M91.5706 774.058 L99.2095 774.058 L99.2095 747.692 L90.8993 749.359 L90.8993 745.1 L99.1632 743.433 L103.839 743.433 L103.839 774.058 L111.478 774.058 L111.478 777.993 L91.5706 777.993 L91.5706 774.058 Z" fill="#000000" fill-rule="nonzero" fill-opacity="1" /><path clip-path="url(#clip220)" d="M119.742 743.433 L141.964 743.433 L141.964 745.424 L129.418 777.993 L124.533 777.993 L136.339 747.368 L119.742 747.368 L119.742 743.433 Z" fill="#000000" fill-rule="nonzero" fill-opacity="1" /><path clip-path="url(#clip220)" d="M151.13 743.433 L169.487 743.433 L169.487 747.368 L155.413 747.368 L155.413 755.84 Q156.431 755.493 157.45 755.331 Q158.468 755.146 159.487 755.146 Q165.274 755.146 168.654 758.317 Q172.033 761.488 172.033 766.905 Q172.033 772.484 168.561 775.586 Q165.089 778.664 158.769 778.664 Q156.593 778.664 154.325 778.294 Q152.08 777.924 149.672 777.183 L149.672 772.484 Q151.755 773.618 153.978 774.174 Q156.2 774.729 158.677 774.729 Q162.681 774.729 165.019 772.623 Q167.357 770.516 167.357 766.905 Q167.357 763.294 165.019 761.188 Q162.681 759.081 158.677 759.081 Q156.802 759.081 154.927 759.498 Q153.075 759.914 151.13 760.794 L151.13 743.433 Z" fill="#000000" fill-rule="nonzero" fill-opacity="1" /><path clip-path="url(#clip220)" d="M191.246 746.512 Q187.635 746.512 185.806 750.077 Q184.001 753.618 184.001 760.748 Q184.001 767.854 185.806 771.419 Q187.635 774.961 191.246 774.961 Q194.88 774.961 196.686 771.419 Q198.514 767.854 198.514 760.748 Q198.514 753.618 196.686 750.077 Q194.88 746.512 191.246 746.512 M191.246 742.808 Q197.056 742.808 200.112 747.414 Q203.19 751.998 203.19 760.748 Q203.19 769.475 200.112 774.081 Q197.056 778.664 191.246 778.664 Q185.436 778.664 182.357 774.081 Q179.302 769.475 179.302 760.748 Q179.302 751.998 182.357 747.414 Q185.436 742.808 191.246 742.808 Z" fill="#000000" fill-rule="nonzero" fill-opacity="1" /><path clip-path="url(#clip220)" d="M50.9921 506.262 L80.6679 506.262 L80.6679 510.197 L50.9921 510.197 L50.9921 506.262 Z" fill="#000000" fill-rule="nonzero" fill-opacity="1" /><path clip-path="url(#clip220)" d="M91.5706 519.156 L99.2095 519.156 L99.2095 492.79 L90.8993 494.457 L90.8993 490.197 L99.1632 488.531 L103.839 488.531 L103.839 519.156 L111.478 519.156 L111.478 523.091 L91.5706 523.091 L91.5706 519.156 Z" fill="#000000" fill-rule="nonzero" fill-opacity="1" /><path clip-path="url(#clip220)" d="M120.969 488.531 L139.325 488.531 L139.325 492.466 L125.251 492.466 L125.251 500.938 Q126.27 500.591 127.288 500.429 Q128.307 500.244 129.325 500.244 Q135.112 500.244 138.492 503.415 Q141.871 506.586 141.871 512.003 Q141.871 517.582 138.399 520.683 Q134.927 523.762 128.607 523.762 Q126.432 523.762 124.163 523.392 Q121.918 523.021 119.51 522.281 L119.51 517.582 Q121.594 518.716 123.816 519.271 Q126.038 519.827 128.515 519.827 Q132.519 519.827 134.857 517.72 Q137.195 515.614 137.195 512.003 Q137.195 508.392 134.857 506.285 Q132.519 504.179 128.515 504.179 Q126.64 504.179 124.765 504.596 Q122.913 505.012 120.969 505.892 L120.969 488.531 Z" fill="#000000" fill-rule="nonzero" fill-opacity="1" /><path clip-path="url(#clip220)" d="M161.084 491.61 Q157.473 491.61 155.644 495.174 Q153.839 498.716 153.839 505.846 Q153.839 512.952 155.644 516.517 Q157.473 520.058 161.084 520.058 Q164.718 520.058 166.524 516.517 Q168.353 512.952 168.353 505.846 Q168.353 498.716 166.524 495.174 Q164.718 491.61 161.084 491.61 M161.084 487.906 Q166.894 487.906 169.95 492.512 Q173.029 497.096 173.029 505.846 Q173.029 514.572 169.95 519.179 Q166.894 523.762 161.084 523.762 Q155.274 523.762 152.195 519.179 Q149.14 514.572 149.14 505.846 Q149.14 497.096 152.195 492.512 Q155.274 487.906 161.084 487.906 Z" fill="#000000" fill-rule="nonzero" fill-opacity="1" /><path clip-path="url(#clip220)" d="M191.246 491.61 Q187.635 491.61 185.806 495.174 Q184.001 498.716 184.001 505.846 Q184.001 512.952 185.806 516.517 Q187.635 520.058 191.246 520.058 Q194.88 520.058 196.686 516.517 Q198.514 512.952 198.514 505.846 Q198.514 498.716 196.686 495.174 Q194.88 491.61 191.246 491.61 M191.246 487.906 Q197.056 487.906 200.112 492.512 Q203.19 497.096 203.19 505.846 Q203.19 514.572 200.112 519.179 Q197.056 523.762 191.246 523.762 Q185.436 523.762 182.357 519.179 Q179.302 514.572 179.302 505.846 Q179.302 497.096 182.357 492.512 Q185.436 487.906 191.246 487.906 Z" fill="#000000" fill-rule="nonzero" fill-opacity="1" /><path clip-path="url(#clip220)" d="M50.9921 251.36 L80.6679 251.36 L80.6679 255.295 L50.9921 255.295 L50.9921 251.36 Z" fill="#000000" fill-rule="nonzero" fill-opacity="1" /><path clip-path="url(#clip220)" d="M91.5706 264.253 L99.2095 264.253 L99.2095 237.888 L90.8993 239.555 L90.8993 235.295 L99.1632 233.629 L103.839 233.629 L103.839 264.253 L111.478 264.253 L111.478 268.189 L91.5706 268.189 L91.5706 264.253 Z" fill="#000000" fill-rule="nonzero" fill-opacity="1" /><path clip-path="url(#clip220)" d="M124.95 264.253 L141.269 264.253 L141.269 268.189 L119.325 268.189 L119.325 264.253 Q121.987 261.499 126.57 256.869 Q131.177 252.216 132.357 250.874 Q134.603 248.351 135.482 246.615 Q136.385 244.855 136.385 243.166 Q136.385 240.411 134.441 238.675 Q132.519 236.939 129.418 236.939 Q127.219 236.939 124.765 237.703 Q122.334 238.467 119.557 240.017 L119.557 235.295 Q122.381 234.161 124.834 233.582 Q127.288 233.004 129.325 233.004 Q134.695 233.004 137.89 235.689 Q141.084 238.374 141.084 242.865 Q141.084 244.994 140.274 246.916 Q139.487 248.814 137.381 251.406 Q136.802 252.078 133.7 255.295 Q130.598 258.49 124.95 264.253 Z" fill="#000000" fill-rule="nonzero" fill-opacity="1" /><path clip-path="url(#clip220)" d="M151.13 233.629 L169.487 233.629 L169.487 237.564 L155.413 237.564 L155.413 246.036 Q156.431 245.689 157.45 245.527 Q158.468 245.342 159.487 245.342 Q165.274 245.342 168.654 248.513 Q172.033 251.684 172.033 257.101 Q172.033 262.679 168.561 265.781 Q165.089 268.86 158.769 268.86 Q156.593 268.86 154.325 268.49 Q152.08 268.119 149.672 267.378 L149.672 262.679 Q151.755 263.814 153.978 264.369 Q156.2 264.925 158.677 264.925 Q162.681 264.925 165.019 262.818 Q167.357 260.712 167.357 257.101 Q167.357 253.49 165.019 251.383 Q162.681 249.277 158.677 249.277 Q156.802 249.277 154.927 249.693 Q153.075 250.11 151.13 250.99 L151.13 233.629 Z" fill="#000000" fill-rule="nonzero" fill-opacity="1" /><path clip-path="url(#clip220)" d="M191.246 236.707 Q187.635 236.707 185.806 240.272 Q184.001 243.814 184.001 250.943 Q184.001 258.05 185.806 261.615 Q187.635 265.156 191.246 265.156 Q194.88 265.156 196.686 261.615 Q198.514 258.05 198.514 250.943 Q198.514 243.814 196.686 240.272 Q194.88 236.707 191.246 236.707 M191.246 233.004 Q197.056 233.004 200.112 237.61 Q203.19 242.193 203.19 250.943 Q203.19 259.67 200.112 264.277 Q197.056 268.86 191.246 268.86 Q185.436 268.86 182.357 264.277 Q179.302 259.67 179.302 250.943 Q179.302 242.193 182.357 237.61 Q185.436 233.004 191.246 233.004 Z" fill="#000000" fill-rule="nonzero" fill-opacity="1" /><path clip-path="url(#clip220)" d="M1017.21 12.096 L1025.39 12.096 L1025.39 65.6895 L1054.84 65.6895 L1054.84 72.576 L1017.21 72.576 L1017.21 12.096 Z" fill="#000000" fill-rule="nonzero" fill-opacity="1" /><path clip-path="url(#clip220)" d="M1079.23 32.4315 Q1073.23 32.4315 1069.75 37.1306 Q1066.27 41.7891 1066.27 49.9314 Q1066.27 58.0738 1069.71 62.7728 Q1073.19 67.4314 1079.23 67.4314 Q1085.18 67.4314 1088.67 62.7323 Q1092.15 58.0333 1092.15 49.9314 Q1092.15 41.8701 1088.67 37.1711 Q1085.18 32.4315 1079.23 32.4315 M1079.23 26.1121 Q1088.95 26.1121 1094.5 32.4315 Q1100.05 38.7509 1100.05 49.9314 Q1100.05 61.0714 1094.5 67.4314 Q1088.95 73.7508 1079.23 73.7508 Q1069.47 73.7508 1063.92 67.4314 Q1058.41 61.0714 1058.41 49.9314 Q1058.41 38.7509 1063.92 32.4315 Q1069.47 26.1121 1079.23 26.1121 Z" fill="#000000" fill-rule="nonzero" fill-opacity="1" /><path clip-path="url(#clip220)" d="M1142.26 49.3643 Q1142.26 41.2625 1138.9 36.8065 Q1135.58 32.3505 1129.54 32.3505 Q1123.55 32.3505 1120.18 36.8065 Q1116.86 41.2625 1116.86 49.3643 Q1116.86 57.4256 1120.18 61.8816 Q1123.55 66.3376 1129.54 66.3376 Q1135.58 66.3376 1138.9 61.8816 Q1142.26 57.4256 1142.26 49.3643 M1149.72 66.9452 Q1149.72 78.5308 1144.57 84.1616 Q1139.43 89.8329 1128.81 89.8329 Q1124.88 89.8329 1121.4 89.2252 Q1117.92 88.6581 1114.63 87.4428 L1114.63 80.1917 Q1117.92 81.9741 1121.12 82.8248 Q1124.32 83.6755 1127.64 83.6755 Q1134.97 83.6755 1138.62 79.8271 Q1142.26 76.0193 1142.26 68.282 L1142.26 64.5957 Q1139.95 68.6061 1136.35 70.5911 Q1132.74 72.576 1127.72 72.576 Q1119.37 72.576 1114.27 66.2161 Q1109.17 59.8562 1109.17 49.3643 Q1109.17 38.832 1114.27 32.472 Q1119.37 26.1121 1127.72 26.1121 Q1132.74 26.1121 1136.35 28.0971 Q1139.95 30.082 1142.26 34.0924 L1142.26 27.2059 L1149.72 27.2059 L1149.72 66.9452 Z" fill="#000000" fill-rule="nonzero" fill-opacity="1" /><path clip-path="url(#clip220)" d="M1161.3 46.5287 L1183.14 46.5287 L1183.14 53.1722 L1161.3 53.1722 L1161.3 46.5287 Z" fill="#000000" fill-rule="nonzero" fill-opacity="1" /><path clip-path="url(#clip220)" d="M1195 9.54393 L1202.46 9.54393 L1202.46 72.576 L1195 72.576 L1195 9.54393 Z" fill="#000000" fill-rule="nonzero" fill-opacity="1" /><path clip-path="url(#clip220)" d="M1218.05 27.2059 L1225.51 27.2059 L1225.51 72.576 L1218.05 72.576 L1218.05 27.2059 M1218.05 9.54393 L1225.51 9.54393 L1225.51 18.9825 L1218.05 18.9825 L1218.05 9.54393 Z" fill="#000000" fill-rule="nonzero" fill-opacity="1" /><path clip-path="url(#clip220)" d="M1240.82 9.54393 L1248.31 9.54393 L1248.31 46.7717 L1270.55 27.2059 L1280.07 27.2059 L1256.01 48.4326 L1281.09 72.576 L1271.36 72.576 L1248.31 50.4176 L1248.31 72.576 L1240.82 72.576 L1240.82 9.54393 Z" fill="#000000" fill-rule="nonzero" fill-opacity="1" /><path clip-path="url(#clip220)" d="M1325 48.0275 L1325 51.6733 L1290.73 51.6733 Q1291.21 59.3701 1295.35 63.421 Q1299.52 67.4314 1306.93 67.4314 Q1311.22 67.4314 1315.24 66.3781 Q1319.29 65.3249 1323.26 63.2184 L1323.26 70.267 Q1319.25 71.9684 1315.03 72.8596 Q1310.82 73.7508 1306.49 73.7508 Q1295.63 73.7508 1289.27 67.4314 Q1282.95 61.1119 1282.95 50.3365 Q1282.95 39.1965 1288.94 32.6746 Q1294.98 26.1121 1305.19 26.1121 Q1314.34 26.1121 1319.65 32.0264 Q1325 37.9003 1325 48.0275 M1317.54 45.84 Q1317.46 39.7232 1314.1 36.0774 Q1310.78 32.4315 1305.27 32.4315 Q1299.03 32.4315 1295.26 35.9558 Q1291.54 39.4801 1290.97 45.8805 L1317.54 45.84 Z" fill="#000000" fill-rule="nonzero" fill-opacity="1" /><path clip-path="url(#clip220)" d="M1337.23 9.54393 L1344.69 9.54393 L1344.69 72.576 L1337.23 72.576 L1337.23 9.54393 Z" fill="#000000" fill-rule="nonzero" fill-opacity="1" /><path clip-path="url(#clip220)" d="M1360.28 27.2059 L1367.73 27.2059 L1367.73 72.576 L1360.28 72.576 L1360.28 27.2059 M1360.28 9.54393 L1367.73 9.54393 L1367.73 18.9825 L1360.28 18.9825 L1360.28 9.54393 Z" fill="#000000" fill-rule="nonzero" fill-opacity="1" /><path clip-path="url(#clip220)" d="M1421.04 45.1919 L1421.04 72.576 L1413.59 72.576 L1413.59 45.4349 Q1413.59 38.994 1411.08 35.7938 Q1408.57 32.5936 1403.54 32.5936 Q1397.51 32.5936 1394.03 36.4419 Q1390.54 40.2903 1390.54 46.9338 L1390.54 72.576 L1383.05 72.576 L1383.05 9.54393 L1390.54 9.54393 L1390.54 34.2544 Q1393.22 30.163 1396.82 28.1376 Q1400.47 26.1121 1405.21 26.1121 Q1413.02 26.1121 1417.03 30.9732 Q1421.04 35.7938 1421.04 45.1919 Z" fill="#000000" fill-rule="nonzero" fill-opacity="1" /><path clip-path="url(#clip220)" d="M1453.49 32.4315 Q1447.5 32.4315 1444.01 37.1306 Q1440.53 41.7891 1440.53 49.9314 Q1440.53 58.0738 1443.97 62.7728 Q1447.46 67.4314 1453.49 67.4314 Q1459.45 67.4314 1462.93 62.7323 Q1466.41 58.0333 1466.41 49.9314 Q1466.41 41.8701 1462.93 37.1711 Q1459.45 32.4315 1453.49 32.4315 M1453.49 26.1121 Q1463.21 26.1121 1468.76 32.4315 Q1474.31 38.7509 1474.31 49.9314 Q1474.31 61.0714 1468.76 67.4314 Q1463.21 73.7508 1453.49 73.7508 Q1443.73 73.7508 1438.18 67.4314 Q1432.67 61.0714 1432.67 49.9314 Q1432.67 38.7509 1438.18 32.4315 Q1443.73 26.1121 1453.49 26.1121 Z" fill="#000000" fill-rule="nonzero" fill-opacity="1" /><path clip-path="url(#clip220)" d="M1504.25 32.4315 Q1498.26 32.4315 1494.77 37.1306 Q1491.29 41.7891 1491.29 49.9314 Q1491.29 58.0738 1494.73 62.7728 Q1498.21 67.4314 1504.25 67.4314 Q1510.21 67.4314 1513.69 62.7323 Q1517.17 58.0333 1517.17 49.9314 Q1517.17 41.8701 1513.69 37.1711 Q1510.21 32.4315 1504.25 32.4315 M1504.25 26.1121 Q1513.97 26.1121 1519.52 32.4315 Q1525.07 38.7509 1525.07 49.9314 Q1525.07 61.0714 1519.52 67.4314 Q1513.97 73.7508 1504.25 73.7508 Q1494.49 73.7508 1488.94 67.4314 Q1483.43 61.0714 1483.43 49.9314 Q1483.43 38.7509 1488.94 32.4315 Q1494.49 26.1121 1504.25 26.1121 Z" fill="#000000" fill-rule="nonzero" fill-opacity="1" /><path clip-path="url(#clip220)" d="M1567.28 34.0924 L1567.28 9.54393 L1574.74 9.54393 L1574.74 72.576 L1567.28 72.576 L1567.28 65.7705 Q1564.93 69.8214 1561.33 71.8063 Q1557.76 73.7508 1552.74 73.7508 Q1544.52 73.7508 1539.33 67.1883 Q1534.19 60.6258 1534.19 49.9314 Q1534.19 39.2371 1539.33 32.6746 Q1544.52 26.1121 1552.74 26.1121 Q1557.76 26.1121 1561.33 28.0971 Q1564.93 30.0415 1567.28 34.0924 M1541.88 49.9314 Q1541.88 58.1548 1545.25 62.8538 Q1548.65 67.5124 1554.56 67.5124 Q1560.48 67.5124 1563.88 62.8538 Q1567.28 58.1548 1567.28 49.9314 Q1567.28 41.7081 1563.88 37.0496 Q1560.48 32.3505 1554.56 32.3505 Q1548.65 32.3505 1545.25 37.0496 Q1541.88 41.7081 1541.88 49.9314 Z" fill="#000000" fill-rule="nonzero" fill-opacity="1" /><polyline clip-path="url(#clip222)" style="stroke:#009af9; stroke-linecap:round; stroke-linejoin:round; stroke-width:4; stroke-opacity:1; fill:none" points="299.008,1374.46 332.804,1048.43 366.599,951.629 400.395,892.931 434.19,867.645 467.985,708.993 501.781,661.529 535.576,581.599 569.372,546.498 603.167,487.958 636.962,430.995 670.758,379.398 704.553,352.889 738.349,311.356 772.144,272.272 805.94,257.237 839.735,235.006 873.53,230.351 907.326,207.325 941.121,188.91 974.917,178.403 1008.71,170.745 1042.51,163.047 1076.3,166.236 1110.1,162.824 1143.89,162.438 1177.69,163.7 1211.48,166.052 1245.28,173.259 1279.08,182.806 1312.87,194.287 1346.67,207.466 1380.46,225.251 1414.26,241.492 1448.05,261.298 1481.85,282.425 1515.64,308.85 1549.44,337.958 1583.23,366.987 1617.03,395.269 1650.83,427.805 1684.62,465.903 1718.42,498.242 1752.21,533.444 1786.01,574.499 1819.8,613.227 1853.6,651.317 1887.39,692.305 1921.19,740.082 1954.98,781.732 1988.78,827.308 2022.57,867.896 2056.37,914.841 2090.17,956.618 2123.96,1009.9 2157.76,1054.33 2191.55,1101.38 2225.35,1151.89 2259.14,1199.76 2292.94,1236.07 "/>
<polyline clip-path="url(#clip222)" style="stroke:#0000ff; stroke-linecap:round; stroke-linejoin:round; stroke-width:4; stroke-opacity:1; fill:none" stroke-dasharray="16, 10" points="1143.89,2698.32 1143.89,-1163.95 "/>
<polyline clip-path="url(#clip222)" style="stroke:#ff0000; stroke-linecap:round; stroke-linejoin:round; stroke-width:4; stroke-opacity:1; fill:none" points="299.008,773.523 332.804,722.32 366.599,673.19 400.395,626.245 434.19,581.573 467.985,539.243 501.781,499.295 535.576,461.751 569.372,426.608 603.167,393.847 636.962,363.435 670.758,335.331 704.553,309.484 738.349,285.843 772.144,264.356 805.94,244.972 839.735,227.645 873.53,212.335 907.326,199.007 941.121,187.636 974.917,178.206 1008.71,170.709 1042.51,165.15 1076.3,161.542 1110.1,159.909 1143.89,160.284 1177.69,162.707 1211.48,167.223 1245.28,173.88 1279.08,182.725 1312.87,193.8 1346.67,207.136 1380.46,222.756 1414.26,240.663 1448.05,260.843 1481.85,283.264 1515.64,307.87 1549.44,334.587 1583.23,363.325 1617.03,393.974 1650.83,426.419 1684.62,460.53 1718.42,496.177 1752.21,533.227 1786.01,571.55 1819.8,611.018 1853.6,651.512 1887.39,692.919 1921.19,735.134 1954.98,778.061 1988.78,821.613 2022.57,865.713 2056.37,910.291 2090.17,955.284 2123.96,1000.64 2157.76,1046.3 2191.55,1092.24 2225.35,1138.41 2259.14,1184.78 2292.94,1231.32 "/>
<polyline clip-path="url(#clip222)" style="stroke:#ff0000; stroke-linecap:round; stroke-linejoin:round; stroke-width:4; stroke-opacity:1; fill:none" stroke-dasharray="16, 10" points="1110.1,2698.32 1110.1,-1163.95 "/>
<path clip-path="url(#clip220)" d="M1901.87 321.906 L2282.3 321.906 L2282.3 166.386 L1901.87 166.386  Z" fill="#ffffff" fill-rule="evenodd" fill-opacity="1"/>
<polyline clip-path="url(#clip220)" style="stroke:#000000; stroke-linecap:round; stroke-linejoin:round; stroke-width:4; stroke-opacity:1; fill:none" points="1901.87,321.906 2282.3,321.906 2282.3,166.386 1901.87,166.386 1901.87,321.906 "/>
<polyline clip-path="url(#clip220)" style="stroke:#009af9; stroke-linecap:round; stroke-linejoin:round; stroke-width:4; stroke-opacity:1; fill:none" points="1925.36,218.226 2066.26,218.226 "/>
<path clip-path="url(#clip220)" d="M2094.42 204.789 L2094.42 217.775 L2100.3 217.775 Q2103.57 217.775 2105.35 216.085 Q2107.13 214.395 2107.13 211.27 Q2107.13 208.168 2105.35 206.479 Q2103.57 204.789 2100.3 204.789 L2094.42 204.789 M2089.75 200.946 L2100.3 200.946 Q2106.11 200.946 2109.08 203.585 Q2112.06 206.201 2112.06 211.27 Q2112.06 216.386 2109.08 219.002 Q2106.11 221.617 2100.3 221.617 L2094.42 221.617 L2094.42 235.506 L2089.75 235.506 L2089.75 200.946 Z" fill="#000000" fill-rule="nonzero" fill-opacity="1" /><path clip-path="url(#clip220)" d="M2118.33 200.946 L2138.2 200.946 L2138.2 204.881 L2123.01 204.881 L2123.01 215.067 L2136.71 215.067 L2136.71 219.002 L2123.01 219.002 L2123.01 235.506 L2118.33 235.506 L2118.33 200.946 Z" fill="#000000" fill-rule="nonzero" fill-opacity="1" /><polyline clip-path="url(#clip220)" style="stroke:#ff0000; stroke-linecap:round; stroke-linejoin:round; stroke-width:4; stroke-opacity:1; fill:none" points="1925.36,270.066 2066.26,270.066 "/>
<path clip-path="url(#clip220)" d="M2089.75 252.786 L2094.42 252.786 L2094.42 267.393 L2109.93 252.786 L2115.95 252.786 L2098.8 268.897 L2117.18 287.346 L2111.02 287.346 L2094.42 270.703 L2094.42 287.346 L2089.75 287.346 L2089.75 252.786 Z" fill="#000000" fill-rule="nonzero" fill-opacity="1" /><path clip-path="url(#clip220)" d="M2131.6 274.314 Q2126.44 274.314 2124.45 275.494 Q2122.45 276.675 2122.45 279.522 Q2122.45 281.791 2123.94 283.133 Q2125.44 284.453 2128.01 284.453 Q2131.55 284.453 2133.68 281.953 Q2135.83 279.43 2135.83 275.263 L2135.83 274.314 L2131.6 274.314 M2140.09 272.555 L2140.09 287.346 L2135.83 287.346 L2135.83 283.411 Q2134.38 285.772 2132.2 286.906 Q2130.02 288.018 2126.88 288.018 Q2122.89 288.018 2120.53 285.795 Q2118.2 283.55 2118.2 279.8 Q2118.2 275.425 2121.11 273.203 Q2124.05 270.981 2129.86 270.981 L2135.83 270.981 L2135.83 270.564 Q2135.83 267.624 2133.89 266.027 Q2131.97 264.407 2128.47 264.407 Q2126.25 264.407 2124.14 264.939 Q2122.04 265.471 2120.09 266.536 L2120.09 262.601 Q2122.43 261.698 2124.63 261.258 Q2126.83 260.795 2128.91 260.795 Q2134.54 260.795 2137.32 263.712 Q2140.09 266.629 2140.09 272.555 Z" fill="#000000" fill-rule="nonzero" fill-opacity="1" /><path clip-path="url(#clip220)" d="M2148.87 251.328 L2153.13 251.328 L2153.13 287.346 L2148.87 287.346 L2148.87 251.328 Z" fill="#000000" fill-rule="nonzero" fill-opacity="1" /><path clip-path="url(#clip220)" d="M2182.22 266.397 Q2183.82 263.527 2186.04 262.161 Q2188.26 260.795 2191.27 260.795 Q2195.32 260.795 2197.52 263.643 Q2199.72 266.467 2199.72 271.698 L2199.72 287.346 L2195.44 287.346 L2195.44 271.837 Q2195.44 268.11 2194.12 266.305 Q2192.8 264.499 2190.09 264.499 Q2186.78 264.499 2184.86 266.698 Q2182.94 268.897 2182.94 272.694 L2182.94 287.346 L2178.66 287.346 L2178.66 271.837 Q2178.66 268.087 2177.34 266.305 Q2176.02 264.499 2173.26 264.499 Q2170 264.499 2168.08 266.721 Q2166.16 268.92 2166.16 272.694 L2166.16 287.346 L2161.88 287.346 L2161.88 261.42 L2166.16 261.42 L2166.16 265.448 Q2167.62 263.064 2169.65 261.93 Q2171.69 260.795 2174.49 260.795 Q2177.32 260.795 2179.28 262.231 Q2181.27 263.666 2182.22 266.397 Z" fill="#000000" fill-rule="nonzero" fill-opacity="1" /><path clip-path="url(#clip220)" d="M2220 274.314 Q2214.84 274.314 2212.85 275.494 Q2210.86 276.675 2210.86 279.522 Q2210.86 281.791 2212.34 283.133 Q2213.84 284.453 2216.41 284.453 Q2219.95 284.453 2222.08 281.953 Q2224.24 279.43 2224.24 275.263 L2224.24 274.314 L2220 274.314 M2228.5 272.555 L2228.5 287.346 L2224.24 287.346 L2224.24 283.411 Q2222.78 285.772 2220.6 286.906 Q2218.43 288.018 2215.28 288.018 Q2211.3 288.018 2208.94 285.795 Q2206.6 283.55 2206.6 279.8 Q2206.6 275.425 2209.51 273.203 Q2212.45 270.981 2218.26 270.981 L2224.24 270.981 L2224.24 270.564 Q2224.24 267.624 2222.29 266.027 Q2220.37 264.407 2216.88 264.407 Q2214.65 264.407 2212.55 264.939 Q2210.44 265.471 2208.5 266.536 L2208.5 262.601 Q2210.83 261.698 2213.03 261.258 Q2215.23 260.795 2217.32 260.795 Q2222.94 260.795 2225.72 263.712 Q2228.5 266.629 2228.5 272.555 Z" fill="#000000" fill-rule="nonzero" fill-opacity="1" /><path clip-path="url(#clip220)" d="M2258.82 271.698 L2258.82 287.346 L2254.56 287.346 L2254.56 271.837 Q2254.56 268.157 2253.13 266.328 Q2251.69 264.499 2248.82 264.499 Q2245.37 264.499 2243.38 266.698 Q2241.39 268.897 2241.39 272.694 L2241.39 287.346 L2237.11 287.346 L2237.11 261.42 L2241.39 261.42 L2241.39 265.448 Q2242.92 263.11 2244.98 261.953 Q2247.06 260.795 2249.77 260.795 Q2254.24 260.795 2256.53 263.573 Q2258.82 266.328 2258.82 271.698 Z" fill="#000000" fill-rule="nonzero" fill-opacity="1" /></svg>
