<?xml version="1.0" encoding="utf-8"?>
<svg xmlns="http://www.w3.org/2000/svg" xmlns:xlink="http://www.w3.org/1999/xlink" width="600" height="400" viewBox="0 0 2400 1600">
<defs>
  <clipPath id="clip270">
    <rect x="0" y="0" width="2400" height="1600"/>
  </clipPath>
</defs>
<path clip-path="url(#clip270)" d="M0 1600 L2400 1600 L2400 0 L0 0  Z" fill="#ffffff" fill-rule="evenodd" fill-opacity="1"/>
<defs>
  <clipPath id="clip271">
    <rect x="480" y="0" width="1681" height="1600"/>
  </clipPath>
</defs>
<path clip-path="url(#clip270)" d="M193.936 1486.45 L2352.76 1486.45 L2352.76 47.2441 L193.936 47.2441  Z" fill="#ffffff" fill-rule="evenodd" fill-opacity="1"/>
<defs>
  <clipPath id="clip272">
    <rect x="193" y="47" width="2160" height="1440"/>
  </clipPath>
</defs>
<polyline clip-path="url(#clip272)" style="stroke:#000000; stroke-linecap:round; stroke-linejoin:round; stroke-width:2; stroke-opacity:0.1; fill:none" points="229.255,1486.45 229.255,47.2441 "/>
<polyline clip-path="url(#clip272)" style="stroke:#000000; stroke-linecap:round; stroke-linejoin:round; stroke-width:2; stroke-opacity:0.1; fill:none" points="744.855,1486.45 744.855,47.2441 "/>
<polyline clip-path="url(#clip272)" style="stroke:#000000; stroke-linecap:round; stroke-linejoin:round; stroke-width:2; stroke-opacity:0.1; fill:none" points="1260.46,1486.45 1260.46,47.2441 "/>
<polyline clip-path="url(#clip272)" style="stroke:#000000; stroke-linecap:round; stroke-linejoin:round; stroke-width:2; stroke-opacity:0.1; fill:none" points="1776.06,1486.45 1776.06,47.2441 "/>
<polyline clip-path="url(#clip272)" style="stroke:#000000; stroke-linecap:round; stroke-linejoin:round; stroke-width:2; stroke-opacity:0.1; fill:none" points="2291.66,1486.45 2291.66,47.2441 "/>
<polyline clip-path="url(#clip272)" style="stroke:#000000; stroke-linecap:round; stroke-linejoin:round; stroke-width:2; stroke-opacity:0.1; fill:none" points="193.936,1436.92 2352.76,1436.92 "/>
<polyline clip-path="url(#clip272)" style="stroke:#000000; stroke-linecap:round; stroke-linejoin:round; stroke-width:2; stroke-opacity:0.1; fill:none" points="193.936,1142.14 2352.76,1142.14 "/>
<polyline clip-path="url(#clip272)" style="stroke:#000000; stroke-linecap:round; stroke-linejoin:round; stroke-width:2; stroke-opacity:0.1; fill:none" points="193.936,847.362 2352.76,847.362 "/>
<polyline clip-path="url(#clip272)" style="stroke:#000000; stroke-linecap:round; stroke-linejoin:round; stroke-width:2; stroke-opacity:0.1; fill:none" points="193.936,552.583 2352.76,552.583 "/>
<polyline clip-path="url(#clip272)" style="stroke:#000000; stroke-linecap:round; stroke-linejoin:round; stroke-width:2; stroke-opacity:0.1; fill:none" points="193.936,257.803 2352.76,257.803 "/>
<polyline clip-path="url(#clip270)" style="stroke:#000000; stroke-linecap:round; stroke-linejoin:round; stroke-width:4; stroke-opacity:1; fill:none" points="193.936,1486.45 2352.76,1486.45 "/>
<polyline clip-path="url(#clip270)" style="stroke:#000000; stroke-linecap:round; stroke-linejoin:round; stroke-width:4; stroke-opacity:1; fill:none" points="229.255,1486.45 229.255,1467.55 "/>
<polyline clip-path="url(#clip270)" style="stroke:#000000; stroke-linecap:round; stroke-linejoin:round; stroke-width:4; stroke-opacity:1; fill:none" points="744.855,1486.45 744.855,1467.55 "/>
<polyline clip-path="url(#clip270)" style="stroke:#000000; stroke-linecap:round; stroke-linejoin:round; stroke-width:4; stroke-opacity:1; fill:none" points="1260.46,1486.45 1260.46,1467.55 "/>
<polyline clip-path="url(#clip270)" style="stroke:#000000; stroke-linecap:round; stroke-linejoin:round; stroke-width:4; stroke-opacity:1; fill:none" points="1776.06,1486.45 1776.06,1467.55 "/>
<polyline clip-path="url(#clip270)" style="stroke:#000000; stroke-linecap:round; stroke-linejoin:round; stroke-width:4; stroke-opacity:1; fill:none" points="2291.66,1486.45 2291.66,1467.55 "/>
<path clip-path="url(#clip270)" d="M229.255 1517.37 Q225.644 1517.37 223.815 1520.93 Q222.009 1524.47 222.009 1531.6 Q222.009 1538.71 223.815 1542.27 Q225.644 1545.82 229.255 1545.82 Q232.889 1545.82 234.694 1542.27 Q236.523 1538.71 236.523 1531.6 Q236.523 1524.47 234.694 1520.93 Q232.889 1517.37 229.255 1517.37 M229.255 1513.66 Q235.065 1513.66 238.12 1518.27 Q241.199 1522.85 241.199 1531.6 Q241.199 1540.33 238.12 1544.94 Q235.065 1549.52 229.255 1549.52 Q223.444 1549.52 220.366 1544.94 Q217.31 1540.33 217.31 1531.6 Q217.31 1522.85 220.366 1518.27 Q223.444 1513.66 229.255 1513.66 Z" fill="#000000" fill-rule="nonzero" fill-opacity="1" /><path clip-path="url(#clip270)" d="M723.629 1544.91 L739.948 1544.91 L739.948 1548.85 L718.004 1548.85 L718.004 1544.91 Q720.666 1542.16 725.249 1537.53 Q729.855 1532.88 731.036 1531.53 Q733.281 1529.01 734.161 1527.27 Q735.064 1525.51 735.064 1523.82 Q735.064 1521.07 733.119 1519.33 Q731.198 1517.6 728.096 1517.6 Q725.897 1517.6 723.443 1518.36 Q721.013 1519.13 718.235 1520.68 L718.235 1515.95 Q721.059 1514.82 723.513 1514.24 Q725.967 1513.66 728.004 1513.66 Q733.374 1513.66 736.568 1516.35 Q739.763 1519.03 739.763 1523.52 Q739.763 1525.65 738.953 1527.57 Q738.166 1529.47 736.059 1532.07 Q735.48 1532.74 732.379 1535.95 Q729.277 1539.15 723.629 1544.91 Z" fill="#000000" fill-rule="nonzero" fill-opacity="1" /><path clip-path="url(#clip270)" d="M759.763 1517.37 Q756.152 1517.37 754.323 1520.93 Q752.517 1524.47 752.517 1531.6 Q752.517 1538.71 754.323 1542.27 Q756.152 1545.82 759.763 1545.82 Q763.397 1545.82 765.202 1542.27 Q767.031 1538.71 767.031 1531.6 Q767.031 1524.47 765.202 1520.93 Q763.397 1517.37 759.763 1517.37 M759.763 1513.66 Q765.573 1513.66 768.628 1518.27 Q771.707 1522.85 771.707 1531.6 Q771.707 1540.33 768.628 1544.94 Q765.573 1549.52 759.763 1549.52 Q753.952 1549.52 750.874 1544.94 Q747.818 1540.33 747.818 1531.6 Q747.818 1522.85 750.874 1518.27 Q753.952 1513.66 759.763 1513.66 Z" fill="#000000" fill-rule="nonzero" fill-opacity="1" /><path clip-path="url(#clip270)" d="M1248.63 1518.36 L1236.82 1536.81 L1248.63 1536.81 L1248.63 1518.36 M1247.4 1514.29 L1253.28 1514.29 L1253.28 1536.81 L1258.21 1536.81 L1258.21 1540.7 L1253.28 1540.7 L1253.28 1548.85 L1248.63 1548.85 L1248.63 1540.7 L1233.03 1540.7 L1233.03 1536.19 L1247.4 1514.29 Z" fill="#000000" fill-rule="nonzero" fill-opacity="1" /><path clip-path="url(#clip270)" d="M1275.94 1517.37 Q1272.33 1517.37 1270.5 1520.93 Q1268.7 1524.47 1268.7 1531.6 Q1268.7 1538.71 1270.5 1542.27 Q1272.33 1545.82 1275.94 1545.82 Q1279.58 1545.82 1281.38 1542.27 Q1283.21 1538.71 1283.21 1531.6 Q1283.21 1524.47 1281.38 1520.93 Q1279.58 1517.37 1275.94 1517.37 M1275.94 1513.66 Q1281.75 1513.66 1284.81 1518.27 Q1287.89 1522.85 1287.89 1531.6 Q1287.89 1540.33 1284.81 1544.94 Q1281.75 1549.52 1275.94 1549.52 Q1270.13 1549.52 1267.05 1544.94 Q1264 1540.33 1264 1531.6 Q1264 1522.85 1267.05 1518.27 Q1270.13 1513.66 1275.94 1513.66 Z" fill="#000000" fill-rule="nonzero" fill-opacity="1" /><path clip-path="url(#clip270)" d="M1761.46 1529.7 Q1758.31 1529.7 1756.46 1531.86 Q1754.63 1534.01 1754.63 1537.76 Q1754.63 1541.49 1756.46 1543.66 Q1758.31 1545.82 1761.46 1545.82 Q1764.61 1545.82 1766.44 1543.66 Q1768.29 1541.49 1768.29 1537.76 Q1768.29 1534.01 1766.44 1531.86 Q1764.61 1529.7 1761.46 1529.7 M1770.74 1515.05 L1770.74 1519.31 Q1768.98 1518.48 1767.18 1518.04 Q1765.4 1517.6 1763.64 1517.6 Q1759.01 1517.6 1756.55 1520.72 Q1754.12 1523.85 1753.78 1530.17 Q1755.14 1528.15 1757.2 1527.09 Q1759.26 1526 1761.74 1526 Q1766.95 1526 1769.96 1529.17 Q1772.99 1532.32 1772.99 1537.76 Q1772.99 1543.08 1769.84 1546.3 Q1766.69 1549.52 1761.46 1549.52 Q1755.47 1549.52 1752.3 1544.94 Q1749.12 1540.33 1749.12 1531.6 Q1749.12 1523.41 1753.01 1518.55 Q1756.9 1513.66 1763.45 1513.66 Q1765.21 1513.66 1766.99 1514.01 Q1768.8 1514.36 1770.74 1515.05 Z" fill="#000000" fill-rule="nonzero" fill-opacity="1" /><path clip-path="url(#clip270)" d="M1791.04 1517.37 Q1787.43 1517.37 1785.61 1520.93 Q1783.8 1524.47 1783.8 1531.6 Q1783.8 1538.71 1785.61 1542.27 Q1787.43 1545.82 1791.04 1545.82 Q1794.68 1545.82 1796.48 1542.27 Q1798.31 1538.71 1798.31 1531.6 Q1798.31 1524.47 1796.48 1520.93 Q1794.68 1517.37 1791.04 1517.37 M1791.04 1513.66 Q1796.86 1513.66 1799.91 1518.27 Q1802.99 1522.85 1802.99 1531.6 Q1802.99 1540.33 1799.91 1544.94 Q1796.86 1549.52 1791.04 1549.52 Q1785.23 1549.52 1782.16 1544.94 Q1779.1 1540.33 1779.1 1531.6 Q1779.1 1522.85 1782.16 1518.27 Q1785.23 1513.66 1791.04 1513.66 Z" fill="#000000" fill-rule="nonzero" fill-opacity="1" /><path clip-path="url(#clip270)" d="M2276.53 1532.44 Q2273.2 1532.44 2271.28 1534.22 Q2269.38 1536 2269.38 1539.13 Q2269.38 1542.25 2271.28 1544.03 Q2273.2 1545.82 2276.53 1545.82 Q2279.86 1545.82 2281.78 1544.03 Q2283.71 1542.23 2283.71 1539.13 Q2283.71 1536 2281.78 1534.22 Q2279.89 1532.44 2276.53 1532.44 M2271.85 1530.45 Q2268.84 1529.7 2267.16 1527.64 Q2265.49 1525.58 2265.49 1522.62 Q2265.49 1518.48 2268.43 1516.07 Q2271.39 1513.66 2276.53 1513.66 Q2281.69 1513.66 2284.63 1516.07 Q2287.57 1518.48 2287.57 1522.62 Q2287.57 1525.58 2285.88 1527.64 Q2284.22 1529.7 2281.23 1530.45 Q2284.61 1531.23 2286.48 1533.52 Q2288.38 1535.82 2288.38 1539.13 Q2288.38 1544.15 2285.3 1546.83 Q2282.25 1549.52 2276.53 1549.52 Q2270.81 1549.52 2267.73 1546.83 Q2264.68 1544.15 2264.68 1539.13 Q2264.68 1535.82 2266.58 1533.52 Q2268.47 1531.23 2271.85 1530.45 M2270.14 1523.06 Q2270.14 1525.75 2271.81 1527.25 Q2273.5 1528.76 2276.53 1528.76 Q2279.54 1528.76 2281.23 1527.25 Q2282.94 1525.75 2282.94 1523.06 Q2282.94 1520.38 2281.23 1518.87 Q2279.54 1517.37 2276.53 1517.37 Q2273.5 1517.37 2271.81 1518.87 Q2270.14 1520.38 2270.14 1523.06 Z" fill="#000000" fill-rule="nonzero" fill-opacity="1" /><path clip-path="url(#clip270)" d="M2306.69 1517.37 Q2303.08 1517.37 2301.25 1520.93 Q2299.45 1524.47 2299.45 1531.6 Q2299.45 1538.71 2301.25 1542.27 Q2303.08 1545.82 2306.69 1545.82 Q2310.33 1545.82 2312.13 1542.27 Q2313.96 1538.71 2313.96 1531.6 Q2313.96 1524.47 2312.13 1520.93 Q2310.33 1517.37 2306.69 1517.37 M2306.69 1513.66 Q2312.5 1513.66 2315.56 1518.27 Q2318.64 1522.85 2318.64 1531.6 Q2318.64 1540.33 2315.56 1544.94 Q2312.5 1549.52 2306.69 1549.52 Q2300.88 1549.52 2297.8 1544.94 Q2294.75 1540.33 2294.75 1531.6 Q2294.75 1522.85 2297.8 1518.27 Q2300.88 1513.66 2306.69 1513.66 Z" fill="#000000" fill-rule="nonzero" fill-opacity="1" /><polyline clip-path="url(#clip270)" style="stroke:#000000; stroke-linecap:round; stroke-linejoin:round; stroke-width:4; stroke-opacity:1; fill:none" points="193.936,1486.45 193.936,47.2441 "/>
<polyline clip-path="url(#clip270)" style="stroke:#000000; stroke-linecap:round; stroke-linejoin:round; stroke-width:4; stroke-opacity:1; fill:none" points="193.936,1436.92 212.834,1436.92 "/>
<polyline clip-path="url(#clip270)" style="stroke:#000000; stroke-linecap:round; stroke-linejoin:round; stroke-width:4; stroke-opacity:1; fill:none" points="193.936,1142.14 212.834,1142.14 "/>
<polyline clip-path="url(#clip270)" style="stroke:#000000; stroke-linecap:round; stroke-linejoin:round; stroke-width:4; stroke-opacity:1; fill:none" points="193.936,847.362 212.834,847.362 "/>
<polyline clip-path="url(#clip270)" style="stroke:#000000; stroke-linecap:round; stroke-linejoin:round; stroke-width:4; stroke-opacity:1; fill:none" points="193.936,552.583 212.834,552.583 "/>
<polyline clip-path="url(#clip270)" style="stroke:#000000; stroke-linecap:round; stroke-linejoin:round; stroke-width:4; stroke-opacity:1; fill:none" points="193.936,257.803 212.834,257.803 "/>
<path clip-path="url(#clip270)" d="M50.9921 1437.37 L80.6679 1437.37 L80.6679 1441.31 L50.9921 1441.31 L50.9921 1437.37 Z" fill="#000000" fill-rule="nonzero" fill-opacity="1" /><path clip-path="url(#clip270)" d="M91.5706 1450.27 L99.2095 1450.27 L99.2095 1423.9 L90.8993 1425.57 L90.8993 1421.31 L99.1632 1419.64 L103.839 1419.64 L103.839 1450.27 L111.478 1450.27 L111.478 1454.2 L91.5706 1454.2 L91.5706 1450.27 Z" fill="#000000" fill-rule="nonzero" fill-opacity="1" /><path clip-path="url(#clip270)" d="M120.922 1448.32 L125.807 1448.32 L125.807 1454.2 L120.922 1454.2 L120.922 1448.32 Z" fill="#000000" fill-rule="nonzero" fill-opacity="1" /><path clip-path="url(#clip270)" d="M145.992 1422.72 Q142.381 1422.72 140.552 1426.29 Q138.746 1429.83 138.746 1436.96 Q138.746 1444.06 140.552 1447.63 Q142.381 1451.17 145.992 1451.17 Q149.626 1451.17 151.431 1447.63 Q153.26 1444.06 153.26 1436.96 Q153.26 1429.83 151.431 1426.29 Q149.626 1422.72 145.992 1422.72 M145.992 1419.02 Q151.802 1419.02 154.857 1423.62 Q157.936 1428.21 157.936 1436.96 Q157.936 1445.68 154.857 1450.29 Q151.802 1454.87 145.992 1454.87 Q140.181 1454.87 137.103 1450.29 Q134.047 1445.68 134.047 1436.96 Q134.047 1428.21 137.103 1423.62 Q140.181 1419.02 145.992 1419.02 Z" fill="#000000" fill-rule="nonzero" fill-opacity="1" /><path clip-path="url(#clip270)" d="M51.9875 1142.59 L81.6633 1142.59 L81.6633 1146.53 L51.9875 1146.53 L51.9875 1142.59 Z" fill="#000000" fill-rule="nonzero" fill-opacity="1" /><path clip-path="url(#clip270)" d="M101.756 1127.94 Q98.1447 1127.94 96.316 1131.51 Q94.5104 1135.05 94.5104 1142.18 Q94.5104 1149.28 96.316 1152.85 Q98.1447 1156.39 101.756 1156.39 Q105.39 1156.39 107.196 1152.85 Q109.024 1149.28 109.024 1142.18 Q109.024 1135.05 107.196 1131.51 Q105.39 1127.94 101.756 1127.94 M101.756 1124.24 Q107.566 1124.24 110.621 1128.84 Q113.7 1133.43 113.7 1142.18 Q113.7 1150.9 110.621 1155.51 Q107.566 1160.09 101.756 1160.09 Q95.9456 1160.09 92.8669 1155.51 Q89.8114 1150.9 89.8114 1142.18 Q89.8114 1133.43 92.8669 1128.84 Q95.9456 1124.24 101.756 1124.24 Z" fill="#000000" fill-rule="nonzero" fill-opacity="1" /><path clip-path="url(#clip270)" d="M121.918 1153.54 L126.802 1153.54 L126.802 1159.42 L121.918 1159.42 L121.918 1153.54 Z" fill="#000000" fill-rule="nonzero" fill-opacity="1" /><path clip-path="url(#clip270)" d="M137.033 1124.86 L155.39 1124.86 L155.39 1128.8 L141.316 1128.8 L141.316 1137.27 Q142.334 1136.92 143.353 1136.76 Q144.371 1136.58 145.39 1136.58 Q151.177 1136.58 154.556 1139.75 Q157.936 1142.92 157.936 1148.33 Q157.936 1153.91 154.464 1157.01 Q150.992 1160.09 144.672 1160.09 Q142.496 1160.09 140.228 1159.72 Q137.982 1159.35 135.575 1158.61 L135.575 1153.91 Q137.658 1155.05 139.881 1155.6 Q142.103 1156.16 144.58 1156.16 Q148.584 1156.16 150.922 1154.05 Q153.26 1151.95 153.26 1148.33 Q153.26 1144.72 150.922 1142.62 Q148.584 1140.51 144.58 1140.51 Q142.705 1140.51 140.83 1140.93 Q138.978 1141.34 137.033 1142.22 L137.033 1124.86 Z" fill="#000000" fill-rule="nonzero" fill-opacity="1" /><path clip-path="url(#clip270)" d="M100.76 833.161 Q97.1493 833.161 95.3206 836.726 Q93.515 840.268 93.515 847.397 Q93.515 854.504 95.3206 858.068 Q97.1493 861.61 100.76 861.61 Q104.395 861.61 106.2 858.068 Q108.029 854.504 108.029 847.397 Q108.029 840.268 106.2 836.726 Q104.395 833.161 100.76 833.161 M100.76 829.457 Q106.571 829.457 109.626 834.064 Q112.705 838.647 112.705 847.397 Q112.705 856.124 109.626 860.73 Q106.571 865.314 100.76 865.314 Q94.9502 865.314 91.8715 860.73 Q88.816 856.124 88.816 847.397 Q88.816 838.647 91.8715 834.064 Q94.9502 829.457 100.76 829.457 Z" fill="#000000" fill-rule="nonzero" fill-opacity="1" /><path clip-path="url(#clip270)" d="M120.922 858.763 L125.807 858.763 L125.807 864.642 L120.922 864.642 L120.922 858.763 Z" fill="#000000" fill-rule="nonzero" fill-opacity="1" /><path clip-path="url(#clip270)" d="M145.992 833.161 Q142.381 833.161 140.552 836.726 Q138.746 840.268 138.746 847.397 Q138.746 854.504 140.552 858.068 Q142.381 861.61 145.992 861.61 Q149.626 861.61 151.431 858.068 Q153.26 854.504 153.26 847.397 Q153.26 840.268 151.431 836.726 Q149.626 833.161 145.992 833.161 M145.992 829.457 Q151.802 829.457 154.857 834.064 Q157.936 838.647 157.936 847.397 Q157.936 856.124 154.857 860.73 Q151.802 865.314 145.992 865.314 Q140.181 865.314 137.103 860.73 Q134.047 856.124 134.047 847.397 Q134.047 838.647 137.103 834.064 Q140.181 829.457 145.992 829.457 Z" fill="#000000" fill-rule="nonzero" fill-opacity="1" /><path clip-path="url(#clip270)" d="M101.756 538.381 Q98.1447 538.381 96.316 541.946 Q94.5104 545.488 94.5104 552.617 Q94.5104 559.724 96.316 563.289 Q98.1447 566.83 101.756 566.83 Q105.39 566.83 107.196 563.289 Q109.024 559.724 109.024 552.617 Q109.024 545.488 107.196 541.946 Q105.39 538.381 101.756 538.381 M101.756 534.678 Q107.566 534.678 110.621 539.284 Q113.7 543.867 113.7 552.617 Q113.7 561.344 110.621 565.951 Q107.566 570.534 101.756 570.534 Q95.9456 570.534 92.8669 565.951 Q89.8114 561.344 89.8114 552.617 Q89.8114 543.867 92.8669 539.284 Q95.9456 534.678 101.756 534.678 Z" fill="#000000" fill-rule="nonzero" fill-opacity="1" /><path clip-path="url(#clip270)" d="M121.918 563.983 L126.802 563.983 L126.802 569.863 L121.918 569.863 L121.918 563.983 Z" fill="#000000" fill-rule="nonzero" fill-opacity="1" /><path clip-path="url(#clip270)" d="M137.033 535.303 L155.39 535.303 L155.39 539.238 L141.316 539.238 L141.316 547.71 Q142.334 547.363 143.353 547.201 Q144.371 547.016 145.39 547.016 Q151.177 547.016 154.556 550.187 Q157.936 553.358 157.936 558.775 Q157.936 564.353 154.464 567.455 Q150.992 570.534 144.672 570.534 Q142.496 570.534 140.228 570.164 Q137.982 569.793 135.575 569.052 L135.575 564.353 Q137.658 565.488 139.881 566.043 Q142.103 566.599 144.58 566.599 Q148.584 566.599 150.922 564.492 Q153.26 562.386 153.26 558.775 Q153.26 555.164 150.922 553.057 Q148.584 550.951 144.58 550.951 Q142.705 550.951 140.83 551.367 Q138.978 551.784 137.033 552.664 L137.033 535.303 Z" fill="#000000" fill-rule="nonzero" fill-opacity="1" /><path clip-path="url(#clip270)" d="M91.5706 271.148 L99.2095 271.148 L99.2095 244.782 L90.8993 246.449 L90.8993 242.19 L99.1632 240.523 L103.839 240.523 L103.839 271.148 L111.478 271.148 L111.478 275.083 L91.5706 275.083 L91.5706 271.148 Z" fill="#000000" fill-rule="nonzero" fill-opacity="1" /><path clip-path="url(#clip270)" d="M120.922 269.203 L125.807 269.203 L125.807 275.083 L120.922 275.083 L120.922 269.203 Z" fill="#000000" fill-rule="nonzero" fill-opacity="1" /><path clip-path="url(#clip270)" d="M145.992 243.602 Q142.381 243.602 140.552 247.166 Q138.746 250.708 138.746 257.838 Q138.746 264.944 140.552 268.509 Q142.381 272.05 145.992 272.05 Q149.626 272.05 151.431 268.509 Q153.26 264.944 153.26 257.838 Q153.26 250.708 151.431 247.166 Q149.626 243.602 145.992 243.602 M145.992 239.898 Q151.802 239.898 154.857 244.504 Q157.936 249.088 157.936 257.838 Q157.936 266.564 154.857 271.171 Q151.802 275.754 145.992 275.754 Q140.181 275.754 137.103 271.171 Q134.047 266.564 134.047 257.838 Q134.047 249.088 137.103 244.504 Q140.181 239.898 145.992 239.898 Z" fill="#000000" fill-rule="nonzero" fill-opacity="1" /><path clip-path="url(#clip272)" d="M255.035 1123.65 L280.815 1049.86 L306.595 1086.24 L332.375 999.248 L358.155 1050.64 L383.935 1071.71 L409.715 958.335 L435.495 960.633 L461.275 855.194 L487.055 931.122 L512.835 881.727 L538.615 870.652 L564.395 906.161 L590.175 934.174 L615.955 961.199 L641.735 986.35 L667.515 923.328 L693.295 976.985 L719.075 980.735 L744.855 918.897 L770.635 973.919 L796.415 944.378 L822.195 997.724 L847.975 1034.44 L873.755 970.618 L899.535 874.178 L925.316 1053.49 L951.096 992.876 L976.876 978.796 L1002.66 1069.16 L1028.44 1155.68 L1054.22 1145.89 L1080 1126.91 L1105.78 976.769 L1131.56 1016.84 L1157.34 934.546 L1183.12 976.993 L1208.9 1033.12 L1234.68 975.902 L1260.46 950.466 L1286.24 859.78 L1312.02 944.555 L1337.8 793.914 L1363.58 909.1 L1389.36 844.644 L1415.14 848.476 L1440.92 761.429 L1466.7 870.571 L1492.48 888.449 L1518.26 911.217 L1544.04 976.753 L1569.82 1064.11 L1595.6 1143.38 L1621.38 1175.47 L1647.16 1152.45 L1672.94 1282.37 L1698.72 1369.03 L1724.5 1445.72 L1750.28 1382.08 L1776.06 1352.11 L1801.84 1193.37 L1827.62 1201.93 L1853.4 1167.75 L1879.18 1214.61 L1904.96 1140.67 L1930.74 1142.46 L1956.52 1203.59 L1982.3 1164.14 L2008.08 1156.55 L2033.86 1188.15 L2059.64 1308.93 L2085.42 1294.73 L2111.2 1331.84 L2136.98 1297.46 L2162.76 1309.32 L2188.54 1285.38 L2214.32 1367.6 L2240.1 1151.35 L2265.88 1272.49 L2291.66 1345.45 L2291.66 620.574 L2265.88 594.861 L2240.1 516.282 L2214.32 749.667 L2188.54 663.118 L2162.76 712.987 L2136.98 705.422 L2111.2 725.633 L2085.42 678.252 L2059.64 696.291 L2033.86 576.574 L2008.08 571.373 L1982.3 585.098 L1956.52 590.997 L1930.74 577.413 L1904.96 565.775 L1879.18 641.325 L1853.4 607.979 L1827.62 627.487 L1801.84 586.696 L1776.06 757.117 L1750.28 793.29 L1724.5 860.408 L1698.72 813.502 L1672.94 706.419 L1647.16 587.763 L1621.38 629.604 L1595.6 613.225 L1569.82 547.983 L1544.04 457.343 L1518.26 380.226 L1492.48 339.399 L1466.7 310.513 L1440.92 191.361 L1415.14 293.279 L1389.36 285.969 L1363.58 371.562 L1337.8 253.364 L1312.02 398.147 L1286.24 351.234 L1260.46 425.941 L1234.68 438.669 L1208.9 498.571 L1183.12 442.21 L1157.34 429.325 L1131.56 502.062 L1105.78 459.672 L1080 582.632 L1054.22 593.01 L1028.44 585.454 L1002.66 525.773 L976.876 438.763 L951.096 441.911 L925.316 484.203 L899.535 377.024 L873.755 465.56 L847.975 501.762 L822.195 503.901 L796.415 439.317 L770.635 491.245 L744.855 433.611 L719.075 462.035 L693.295 449.94 L667.515 395.579 L641.735 420.519 L615.955 401.921 L590.175 356.72 L564.395 298.836 L538.615 237.862 L512.835 249.584 L487.055 295.126 L461.275 213.843 L435.495 290.766 L409.715 293.071 L383.935 357.042 L358.155 287.395 L332.375 148.895 L306.595 166.853 L280.815 87.9763 L255.035 149.446  Z" fill="#009af9" fill-rule="evenodd" fill-opacity="0.5"/>
<polyline clip-path="url(#clip272)" style="stroke:#009af9; stroke-linecap:round; stroke-linejoin:round; stroke-width:4; stroke-opacity:1; fill:none" points="255.035,636.549 280.815,568.92 306.595,626.545 332.375,574.072 358.155,669.016 383.935,714.375 409.715,625.703 435.495,625.7 461.275,534.518 487.055,613.124 512.835,565.656 538.615,554.257 564.395,602.498 590.175,645.447 615.955,681.56 641.735,703.434 667.515,659.453 693.295,713.463 719.075,721.385 744.855,676.254 770.635,732.582 796.415,691.848 822.195,750.813 847.975,768.099 873.755,718.089 899.535,625.601 925.316,768.846 951.096,717.394 976.876,708.779 1002.66,797.469 1028.44,870.567 1054.22,869.448 1080,854.771 1105.78,718.22 1131.56,759.451 1157.34,681.936 1183.12,709.602 1208.9,765.843 1234.68,707.285 1260.46,688.204 1286.24,605.507 1312.02,671.351 1337.8,523.639 1363.58,640.331 1389.36,565.306 1415.14,570.877 1440.92,476.395 1466.7,590.542 1492.48,613.924 1518.26,645.722 1544.04,717.048 1569.82,806.048 1595.6,878.302 1621.38,902.536 1647.16,870.106 1672.94,994.397 1698.72,1091.26 1724.5,1153.06 1750.28,1087.68 1776.06,1054.61 1801.84,890.031 1827.62,914.71 1853.4,887.863 1879.18,927.966 1904.96,853.224 1930.74,859.939 1956.52,897.296 1982.3,874.621 2008.08,863.962 2033.86,882.362 2059.64,1002.61 2085.42,986.493 2111.2,1028.74 2136.98,1001.44 2162.76,1011.15 2188.54,974.248 2214.32,1058.63 2240.1,833.814 2265.88,933.675 2291.66,983.014 "/>
<path clip-path="url(#clip272)" d="M255.035 1238.81 L280.815 1196.86 L306.595 1137.67 L332.375 1076.51 L358.155 1010.83 L383.935 994.434 L409.715 988.979 L435.495 915.057 L461.275 885.768 L487.055 860.271 L512.835 892.499 L538.615 853.892 L564.395 849.096 L590.175 839.594 L615.955 851.945 L641.735 851.309 L667.515 868.878 L693.295 880.262 L719.075 867.877 L744.855 855.388 L770.635 841.954 L796.415 784.007 L822.195 784.165 L847.975 820.069 L873.755 819.687 L899.535 807.28 L925.316 791.24 L951.096 823.155 L976.876 814.32 L1002.66 802.737 L1028.44 852.966 L1054.22 913.618 L1080 966.906 L1105.78 999.939 L1131.56 960.219 L1157.34 915.004 L1183.12 883.185 L1208.9 902.438 L1234.68 915.437 L1260.46 895.953 L1286.24 887.081 L1312.02 861.399 L1337.8 828.313 L1363.58 804.413 L1389.36 786.704 L1415.14 749.067 L1440.92 699.101 L1466.7 640.07 L1492.48 595.038 L1518.26 552.528 L1544.04 512.477 L1569.82 540.977 L1595.6 575.849 L1621.38 602.067 L1647.16 580.963 L1672.94 616.053 L1698.72 643.365 L1724.5 692.845 L1750.28 779.238 L1776.06 809.431 L1801.84 838.891 L1827.62 854.103 L1853.4 855.9 L1879.18 823.938 L1904.96 806.578 L1930.74 757.041 L1956.52 711.521 L1982.3 720.698 L2008.08 700.073 L2033.86 685.46 L2059.64 718.425 L2085.42 729.86 L2111.2 780.817 L2136.98 806.371 L2162.76 833.637 L2188.54 874.166 L2214.32 848.492 L2240.1 860.882 L2265.88 875.077 L2291.66 955.946 L2291.66 622.715 L2265.88 608.514 L2240.1 599.659 L2214.32 608.857 L2188.54 630.926 L2162.76 589.647 L2136.98 593.927 L2111.2 552.299 L2085.42 514.311 L2059.64 492.488 L2033.86 465.046 L2008.08 473.789 L1982.3 484.265 L1956.52 499.459 L1930.74 486.163 L1904.96 571.405 L1879.18 599.441 L1853.4 627.157 L1827.62 618.029 L1801.84 614.166 L1776.06 599.048 L1750.28 541.472 L1724.5 468.775 L1698.72 394.534 L1672.94 364.298 L1647.16 353.346 L1621.38 371.333 L1595.6 360.194 L1569.82 304.632 L1544.04 302.145 L1518.26 320.558 L1492.48 359.431 L1466.7 414.518 L1440.92 455.709 L1415.14 495.609 L1389.36 564.618 L1363.58 592.765 L1337.8 621.036 L1312.02 652.26 L1286.24 698.528 L1260.46 673.539 L1234.68 662.937 L1208.9 658.865 L1183.12 682.281 L1157.34 705.57 L1131.56 735.41 L1105.78 746.939 L1080 729.886 L1054.22 672.001 L1028.44 609.284 L1002.66 558.049 L976.876 568.875 L951.096 579.716 L925.316 597.686 L899.535 592.971 L873.755 595.412 L847.975 556.195 L822.195 533.945 L796.415 568.649 L770.635 601.781 L744.855 629.051 L719.075 634.945 L693.295 642.702 L667.515 636.217 L641.735 627.32 L615.955 589.977 L590.175 591.822 L564.395 579.062 L538.615 624.302 L512.835 657.289 L487.055 648.386 L461.275 656.303 L435.495 689.084 L409.715 738.289 L383.935 788.4 L358.155 791.572 L332.375 839.837 L306.595 868.155 L280.815 916.463 L255.035 911.156  Z" fill="#e26f46" fill-rule="evenodd" fill-opacity="0.5"/>
<polyline clip-path="url(#clip272)" style="stroke:#e26f46; stroke-linecap:round; stroke-linejoin:round; stroke-width:4; stroke-opacity:1; fill:none" points="255.035,1074.98 280.815,1056.66 306.595,1002.91 332.375,958.173 358.155,901.199 383.935,891.417 409.715,863.634 435.495,802.07 461.275,771.036 487.055,754.329 512.835,774.894 538.615,739.097 564.395,714.079 590.175,715.708 615.955,720.961 641.735,739.315 667.515,752.548 693.295,761.482 719.075,751.411 744.855,742.22 770.635,721.868 796.415,676.328 822.195,659.055 847.975,688.132 873.755,707.55 899.535,700.125 925.316,694.463 951.096,701.435 976.876,691.598 1002.66,680.393 1028.44,731.125 1054.22,792.81 1080,848.396 1105.78,873.439 1131.56,847.815 1157.34,810.287 1183.12,782.733 1208.9,780.652 1234.68,789.187 1260.46,784.746 1286.24,792.805 1312.02,756.829 1337.8,724.675 1363.58,698.589 1389.36,675.661 1415.14,622.338 1440.92,577.405 1466.7,527.294 1492.48,477.234 1518.26,436.543 1544.04,407.311 1569.82,422.804 1595.6,468.022 1621.38,486.7 1647.16,467.155 1672.94,490.176 1698.72,518.95 1724.5,580.81 1750.28,660.355 1776.06,704.239 1801.84,726.529 1827.62,736.066 1853.4,741.529 1879.18,711.689 1904.96,688.992 1930.74,621.602 1956.52,605.49 1982.3,602.482 2008.08,586.931 2033.86,575.253 2059.64,605.457 2085.42,622.086 2111.2,666.558 2136.98,700.149 2162.76,711.642 2188.54,752.546 2214.32,728.675 2240.1,730.27 2265.88,741.796 2291.66,789.331 "/>
<polyline clip-path="url(#clip272)" style="stroke:#3da44d; stroke-linecap:round; stroke-linejoin:round; stroke-width:4; stroke-opacity:1; fill:none" stroke-dasharray="16, 10" points="255.035,625.176 280.815,432.886 306.595,475.957 332.375,425.286 358.155,599.502 383.935,640.729 409.715,544.373 435.495,602.676 461.275,422.027 487.055,532.794 512.835,534.592 538.615,475.439 564.395,433.182 590.175,578.674 615.955,546.525 641.735,556.083 667.515,508.305 693.295,537.866 719.075,498.859 744.855,450.285 770.635,508.785 796.415,492.776 822.195,649.642 847.975,672.153 873.755,689.818 899.535,575.978 925.316,679.835 951.096,731.517 976.876,747.994 1002.66,795.771 1028.44,804.951 1054.22,864.822 1080,928.109 1105.78,730.409 1131.56,657.343 1157.34,602.155 1183.12,616.704 1208.9,657.883 1234.68,622.929 1260.46,708.198 1286.24,626.712 1312.02,752.637 1337.8,643.16 1363.58,738.75 1389.36,564.287 1415.14,583.515 1440.92,468.504 1466.7,656.683 1492.48,649.285 1518.26,752.598 1544.04,893.466 1569.82,909.443 1595.6,984.244 1621.38,961.401 1647.16,852.107 1672.94,970.523 1698.72,946.355 1724.5,1102.82 1750.28,990.056 1776.06,945.387 1801.84,824.327 1827.62,866.486 1853.4,882.712 1879.18,842.847 1904.96,725.475 1930.74,795.553 1956.52,827.655 1982.3,757.212 2008.08,757.239 2033.86,796.519 2059.64,930.495 2085.42,933.678 2111.2,994.537 2136.98,938.132 2162.76,881.261 2188.54,841.119 2214.32,1086.08 2240.1,792.807 2265.88,938.034 2291.66,897.111 "/>
<polyline clip-path="url(#clip272)" style="stroke:#c271d2; stroke-linecap:round; stroke-linejoin:round; stroke-width:4; stroke-opacity:1; fill:none" stroke-dasharray="16, 10" points="255.035,960.692 280.815,929.127 306.595,904.111 332.375,961.208 358.155,963.323 383.935,979.604 409.715,849.259 435.495,681.945 461.275,785.97 487.055,801.996 512.835,783.979 538.615,739.425 564.395,717.516 590.175,669.447 615.955,711.564 641.735,670.706 667.515,667.041 693.295,725.73 719.075,921.114 744.855,785.463 770.635,689.189 796.415,616.062 822.195,537.282 847.975,533.3 873.755,649.513 899.535,713.802 925.316,690.894 951.096,711.921 976.876,685.141 1002.66,719.917 1028.44,779.926 1054.22,830.829 1080,889.526 1105.78,874.928 1131.56,915.073 1157.34,792.19 1183.12,633.291 1208.9,687.635 1234.68,746.07 1260.46,767.978 1286.24,767.668 1312.02,784.579 1337.8,723.383 1363.58,656.261 1389.36,617.644 1415.14,521.099 1440.92,594.104 1466.7,561.343 1492.48,462.853 1518.26,480.554 1544.04,449.347 1569.82,468.453 1595.6,423.437 1621.38,458.79 1647.16,423.149 1672.94,485.676 1698.72,610.04 1724.5,674.046 1750.28,829.135 1776.06,857.363 1801.84,868.209 1827.62,883.696 1853.4,798.976 1879.18,768.301 1904.96,717.108 1930.74,649.89 1956.52,640.438 1982.3,616.671 2008.08,588.336 2033.86,543.333 2059.64,589.031 2085.42,558.345 2111.2,639.067 2136.98,650.397 2162.76,688.438 2188.54,689.599 2214.32,659.603 2240.1,715.542 2265.88,805.609 2291.66,868.953 "/>
<path clip-path="url(#clip270)" d="M1825.15 354.418 L2280.8 354.418 L2280.8 95.2176 L1825.15 95.2176  Z" fill="#ffffff" fill-rule="evenodd" fill-opacity="1"/>
<polyline clip-path="url(#clip270)" style="stroke:#000000; stroke-linecap:round; stroke-linejoin:round; stroke-width:4; stroke-opacity:1; fill:none" points="1825.15,354.418 2280.8,354.418 2280.8,95.2176 1825.15,95.2176 1825.15,354.418 "/>
<polyline clip-path="url(#clip270)" style="stroke:#009af9; stroke-linecap:round; stroke-linejoin:round; stroke-width:4; stroke-opacity:1; fill:none" points="1849.13,147.058 1993.05,147.058 "/>
<path clip-path="url(#clip270)" d="M2021.72 133.62 L2021.72 146.606 L2027.6 146.606 Q2030.86 146.606 2032.64 144.916 Q2034.43 143.227 2034.43 140.102 Q2034.43 137 2032.64 135.31 Q2030.86 133.62 2027.6 133.62 L2021.72 133.62 M2017.04 129.778 L2027.6 129.778 Q2033.41 129.778 2036.37 132.416 Q2039.36 135.032 2039.36 140.102 Q2039.36 145.217 2036.37 147.833 Q2033.41 150.449 2027.6 150.449 L2021.72 150.449 L2021.72 164.338 L2017.04 164.338 L2017.04 129.778 Z" fill="#000000" fill-rule="nonzero" fill-opacity="1" /><path clip-path="url(#clip270)" d="M2045.63 129.778 L2065.49 129.778 L2065.49 133.713 L2050.3 133.713 L2050.3 143.898 L2064.01 143.898 L2064.01 147.833 L2050.3 147.833 L2050.3 164.338 L2045.63 164.338 L2045.63 129.778 Z" fill="#000000" fill-rule="nonzero" fill-opacity="1" /><path clip-path="url(#clip270)" d="M2104.31 139.176 L2104.31 143.203 Q2102.5 142.277 2100.56 141.815 Q2098.61 141.352 2096.53 141.352 Q2093.36 141.352 2091.76 142.324 Q2090.19 143.296 2090.19 145.24 Q2090.19 146.722 2091.32 147.578 Q2092.46 148.412 2095.88 149.176 L2097.34 149.5 Q2101.88 150.472 2103.78 152.254 Q2105.7 154.014 2105.7 157.185 Q2105.7 160.796 2102.83 162.902 Q2099.98 165.009 2094.98 165.009 Q2092.9 165.009 2090.63 164.592 Q2088.38 164.199 2085.88 163.388 L2085.88 158.99 Q2088.24 160.217 2090.54 160.842 Q2092.83 161.444 2095.07 161.444 Q2098.08 161.444 2099.7 160.426 Q2101.32 159.384 2101.32 157.509 Q2101.32 155.773 2100.14 154.847 Q2098.99 153.921 2095.03 153.064 L2093.55 152.717 Q2089.59 151.884 2087.83 150.171 Q2086.07 148.435 2086.07 145.426 Q2086.07 141.768 2088.66 139.778 Q2091.25 137.787 2096.02 137.787 Q2098.38 137.787 2100.47 138.134 Q2102.55 138.481 2104.31 139.176 Z" fill="#000000" fill-rule="nonzero" fill-opacity="1" /><path clip-path="url(#clip270)" d="M2132.67 143.389 Q2134.26 140.518 2136.48 139.153 Q2138.71 137.787 2141.72 137.787 Q2145.77 137.787 2147.97 140.634 Q2150.17 143.458 2150.17 148.689 L2150.17 164.338 L2145.88 164.338 L2145.88 148.828 Q2145.88 145.102 2144.56 143.296 Q2143.24 141.49 2140.54 141.49 Q2137.23 141.49 2135.3 143.69 Q2133.38 145.889 2133.38 149.685 L2133.38 164.338 L2129.1 164.338 L2129.1 148.828 Q2129.1 145.078 2127.78 143.296 Q2126.46 141.49 2123.71 141.49 Q2120.44 141.49 2118.52 143.713 Q2116.6 145.912 2116.6 149.685 L2116.6 164.338 L2112.32 164.338 L2112.32 138.412 L2116.6 138.412 L2116.6 142.44 Q2118.06 140.055 2120.1 138.921 Q2122.13 137.787 2124.93 137.787 Q2127.76 137.787 2129.73 139.222 Q2131.72 140.657 2132.67 143.389 Z" fill="#000000" fill-rule="nonzero" fill-opacity="1" /><path clip-path="url(#clip270)" d="M2168.71 141.398 Q2165.28 141.398 2163.29 144.083 Q2161.3 146.745 2161.3 151.398 Q2161.3 156.051 2163.27 158.736 Q2165.26 161.398 2168.71 161.398 Q2172.11 161.398 2174.1 158.713 Q2176.09 156.027 2176.09 151.398 Q2176.09 146.791 2174.1 144.106 Q2172.11 141.398 2168.71 141.398 M2168.71 137.787 Q2174.26 137.787 2177.43 141.398 Q2180.61 145.009 2180.61 151.398 Q2180.61 157.764 2177.43 161.398 Q2174.26 165.009 2168.71 165.009 Q2163.13 165.009 2159.96 161.398 Q2156.81 157.764 2156.81 151.398 Q2156.81 145.009 2159.96 141.398 Q2163.13 137.787 2168.71 137.787 Z" fill="#000000" fill-rule="nonzero" fill-opacity="1" /><path clip-path="url(#clip270)" d="M2197.71 141.398 Q2194.29 141.398 2192.29 144.083 Q2190.3 146.745 2190.3 151.398 Q2190.3 156.051 2192.27 158.736 Q2194.26 161.398 2197.71 161.398 Q2201.11 161.398 2203.1 158.713 Q2205.1 156.027 2205.1 151.398 Q2205.1 146.791 2203.1 144.106 Q2201.11 141.398 2197.71 141.398 M2197.71 137.787 Q2203.27 137.787 2206.44 141.398 Q2209.61 145.009 2209.61 151.398 Q2209.61 157.764 2206.44 161.398 Q2203.27 165.009 2197.71 165.009 Q2192.13 165.009 2188.96 161.398 Q2185.81 157.764 2185.81 151.398 Q2185.81 145.009 2188.96 141.398 Q2192.13 137.787 2197.71 137.787 Z" fill="#000000" fill-rule="nonzero" fill-opacity="1" /><path clip-path="url(#clip270)" d="M2220.88 131.051 L2220.88 138.412 L2229.66 138.412 L2229.66 141.722 L2220.88 141.722 L2220.88 155.796 Q2220.88 158.967 2221.74 159.87 Q2222.62 160.773 2225.28 160.773 L2229.66 160.773 L2229.66 164.338 L2225.28 164.338 Q2220.35 164.338 2218.48 162.509 Q2216.6 160.657 2216.6 155.796 L2216.6 141.722 L2213.48 141.722 L2213.48 138.412 L2216.6 138.412 L2216.6 131.051 L2220.88 131.051 Z" fill="#000000" fill-rule="nonzero" fill-opacity="1" /><path clip-path="url(#clip270)" d="M2256.81 148.689 L2256.81 164.338 L2252.55 164.338 L2252.55 148.828 Q2252.55 145.148 2251.11 143.319 Q2249.68 141.49 2246.81 141.49 Q2243.36 141.49 2241.37 143.69 Q2239.38 145.889 2239.38 149.685 L2239.38 164.338 L2235.1 164.338 L2235.1 128.319 L2239.38 128.319 L2239.38 142.44 Q2240.91 140.102 2242.97 138.944 Q2245.05 137.787 2247.76 137.787 Q2252.23 137.787 2254.52 140.565 Q2256.81 143.319 2256.81 148.689 Z" fill="#000000" fill-rule="nonzero" fill-opacity="1" /><polyline clip-path="url(#clip270)" style="stroke:#e26f46; stroke-linecap:round; stroke-linejoin:round; stroke-width:4; stroke-opacity:1; fill:none" points="1849.13,198.898 1993.05,198.898 "/>
<path clip-path="url(#clip270)" d="M2021.72 185.46 L2021.72 198.446 L2027.6 198.446 Q2030.86 198.446 2032.64 196.756 Q2034.43 195.067 2034.43 191.942 Q2034.43 188.84 2032.64 187.15 Q2030.86 185.46 2027.6 185.46 L2021.72 185.46 M2017.04 181.618 L2027.6 181.618 Q2033.41 181.618 2036.37 184.256 Q2039.36 186.872 2039.36 191.942 Q2039.36 197.057 2036.37 199.673 Q2033.41 202.289 2027.6 202.289 L2021.72 202.289 L2021.72 216.178 L2017.04 216.178 L2017.04 181.618 Z" fill="#000000" fill-rule="nonzero" fill-opacity="1" /><path clip-path="url(#clip270)" d="M2045.63 181.618 L2065.49 181.618 L2065.49 185.553 L2050.3 185.553 L2050.3 195.738 L2064.01 195.738 L2064.01 199.673 L2050.3 199.673 L2050.3 216.178 L2045.63 216.178 L2045.63 181.618 Z" fill="#000000" fill-rule="nonzero" fill-opacity="1" /><path clip-path="url(#clip270)" d="M2104.31 191.016 L2104.31 195.043 Q2102.5 194.117 2100.56 193.655 Q2098.61 193.192 2096.53 193.192 Q2093.36 193.192 2091.76 194.164 Q2090.19 195.136 2090.19 197.08 Q2090.19 198.562 2091.32 199.418 Q2092.46 200.252 2095.88 201.016 L2097.34 201.34 Q2101.88 202.312 2103.78 204.094 Q2105.7 205.854 2105.7 209.025 Q2105.7 212.636 2102.83 214.742 Q2099.98 216.849 2094.98 216.849 Q2092.9 216.849 2090.63 216.432 Q2088.38 216.039 2085.88 215.228 L2085.88 210.83 Q2088.24 212.057 2090.54 212.682 Q2092.83 213.284 2095.07 213.284 Q2098.08 213.284 2099.7 212.266 Q2101.32 211.224 2101.32 209.349 Q2101.32 207.613 2100.14 206.687 Q2098.99 205.761 2095.03 204.904 L2093.55 204.557 Q2089.59 203.724 2087.83 202.011 Q2086.07 200.275 2086.07 197.266 Q2086.07 193.608 2088.66 191.618 Q2091.25 189.627 2096.02 189.627 Q2098.38 189.627 2100.47 189.974 Q2102.55 190.321 2104.31 191.016 Z" fill="#000000" fill-rule="nonzero" fill-opacity="1" /><path clip-path="url(#clip270)" d="M2132.67 195.229 Q2134.26 192.358 2136.48 190.993 Q2138.71 189.627 2141.72 189.627 Q2145.77 189.627 2147.97 192.474 Q2150.17 195.298 2150.17 200.529 L2150.17 216.178 L2145.88 216.178 L2145.88 200.668 Q2145.88 196.942 2144.56 195.136 Q2143.24 193.33 2140.54 193.33 Q2137.23 193.33 2135.3 195.53 Q2133.38 197.729 2133.38 201.525 L2133.38 216.178 L2129.1 216.178 L2129.1 200.668 Q2129.1 196.918 2127.78 195.136 Q2126.46 193.33 2123.71 193.33 Q2120.44 193.33 2118.52 195.553 Q2116.6 197.752 2116.6 201.525 L2116.6 216.178 L2112.32 216.178 L2112.32 190.252 L2116.6 190.252 L2116.6 194.28 Q2118.06 191.895 2120.1 190.761 Q2122.13 189.627 2124.93 189.627 Q2127.76 189.627 2129.73 191.062 Q2131.72 192.497 2132.67 195.229 Z" fill="#000000" fill-rule="nonzero" fill-opacity="1" /><path clip-path="url(#clip270)" d="M2168.71 193.238 Q2165.28 193.238 2163.29 195.923 Q2161.3 198.585 2161.3 203.238 Q2161.3 207.891 2163.27 210.576 Q2165.26 213.238 2168.71 213.238 Q2172.11 213.238 2174.1 210.553 Q2176.09 207.867 2176.09 203.238 Q2176.09 198.631 2174.1 195.946 Q2172.11 193.238 2168.71 193.238 M2168.71 189.627 Q2174.26 189.627 2177.43 193.238 Q2180.61 196.849 2180.61 203.238 Q2180.61 209.604 2177.43 213.238 Q2174.26 216.849 2168.71 216.849 Q2163.13 216.849 2159.96 213.238 Q2156.81 209.604 2156.81 203.238 Q2156.81 196.849 2159.96 193.238 Q2163.13 189.627 2168.71 189.627 Z" fill="#000000" fill-rule="nonzero" fill-opacity="1" /><path clip-path="url(#clip270)" d="M2197.71 193.238 Q2194.29 193.238 2192.29 195.923 Q2190.3 198.585 2190.3 203.238 Q2190.3 207.891 2192.27 210.576 Q2194.26 213.238 2197.71 213.238 Q2201.11 213.238 2203.1 210.553 Q2205.1 207.867 2205.1 203.238 Q2205.1 198.631 2203.1 195.946 Q2201.11 193.238 2197.71 193.238 M2197.71 189.627 Q2203.27 189.627 2206.44 193.238 Q2209.61 196.849 2209.61 203.238 Q2209.61 209.604 2206.44 213.238 Q2203.27 216.849 2197.71 216.849 Q2192.13 216.849 2188.96 213.238 Q2185.81 209.604 2185.81 203.238 Q2185.81 196.849 2188.96 193.238 Q2192.13 189.627 2197.71 189.627 Z" fill="#000000" fill-rule="nonzero" fill-opacity="1" /><path clip-path="url(#clip270)" d="M2220.88 182.891 L2220.88 190.252 L2229.66 190.252 L2229.66 193.562 L2220.88 193.562 L2220.88 207.636 Q2220.88 210.807 2221.74 211.71 Q2222.62 212.613 2225.28 212.613 L2229.66 212.613 L2229.66 216.178 L2225.28 216.178 Q2220.35 216.178 2218.48 214.349 Q2216.6 212.497 2216.6 207.636 L2216.6 193.562 L2213.48 193.562 L2213.48 190.252 L2216.6 190.252 L2216.6 182.891 L2220.88 182.891 Z" fill="#000000" fill-rule="nonzero" fill-opacity="1" /><path clip-path="url(#clip270)" d="M2256.81 200.529 L2256.81 216.178 L2252.55 216.178 L2252.55 200.668 Q2252.55 196.988 2251.11 195.159 Q2249.68 193.33 2246.81 193.33 Q2243.36 193.33 2241.37 195.53 Q2239.38 197.729 2239.38 201.525 L2239.38 216.178 L2235.1 216.178 L2235.1 180.159 L2239.38 180.159 L2239.38 194.28 Q2240.91 191.942 2242.97 190.784 Q2245.05 189.627 2247.76 189.627 Q2252.23 189.627 2254.52 192.405 Q2256.81 195.159 2256.81 200.529 Z" fill="#000000" fill-rule="nonzero" fill-opacity="1" /><polyline clip-path="url(#clip270)" style="stroke:#3da44d; stroke-linecap:round; stroke-linejoin:round; stroke-width:4; stroke-opacity:1; fill:none" stroke-dasharray="16, 10" points="1849.13,250.738 1993.05,250.738 "/>
<path clip-path="url(#clip270)" d="M2017.04 233.458 L2046.28 233.458 L2046.28 237.393 L2034.01 237.393 L2034.01 268.018 L2029.31 268.018 L2029.31 237.393 L2017.04 237.393 L2017.04 233.458 Z" fill="#000000" fill-rule="nonzero" fill-opacity="1" /><path clip-path="url(#clip270)" d="M2058.66 246.073 Q2057.94 245.657 2057.09 245.471 Q2056.25 245.263 2055.24 245.263 Q2051.62 245.263 2049.68 247.624 Q2047.76 249.962 2047.76 254.36 L2047.76 268.018 L2043.48 268.018 L2043.48 242.092 L2047.76 242.092 L2047.76 246.12 Q2049.1 243.758 2051.25 242.624 Q2053.41 241.467 2056.49 241.467 Q2056.93 241.467 2057.46 241.536 Q2057.99 241.583 2058.64 241.698 L2058.66 246.073 Z" fill="#000000" fill-rule="nonzero" fill-opacity="1" /><path clip-path="url(#clip270)" d="M2062.69 257.786 L2062.69 242.092 L2066.95 242.092 L2066.95 257.624 Q2066.95 261.305 2068.38 263.156 Q2069.82 264.985 2072.69 264.985 Q2076.14 264.985 2078.13 262.786 Q2080.14 260.587 2080.14 256.791 L2080.14 242.092 L2084.4 242.092 L2084.4 268.018 L2080.14 268.018 L2080.14 264.036 Q2078.59 266.397 2076.53 267.555 Q2074.49 268.689 2071.79 268.689 Q2067.32 268.689 2065 265.911 Q2062.69 263.133 2062.69 257.786 M2073.41 241.467 L2073.41 241.467 Z" fill="#000000" fill-rule="nonzero" fill-opacity="1" /><path clip-path="url(#clip270)" d="M2115.35 253.99 L2115.35 256.073 L2095.77 256.073 Q2096.05 260.471 2098.41 262.786 Q2100.79 265.078 2105.03 265.078 Q2107.48 265.078 2109.77 264.476 Q2112.09 263.874 2114.36 262.67 L2114.36 266.698 Q2112.06 267.67 2109.66 268.18 Q2107.25 268.689 2104.77 268.689 Q2098.57 268.689 2094.93 265.078 Q2091.32 261.467 2091.32 255.309 Q2091.32 248.944 2094.75 245.217 Q2098.2 241.467 2104.03 241.467 Q2109.26 241.467 2112.3 244.846 Q2115.35 248.203 2115.35 253.99 M2111.09 252.74 Q2111.05 249.245 2109.12 247.161 Q2107.23 245.078 2104.08 245.078 Q2100.51 245.078 2098.36 247.092 Q2096.23 249.106 2095.91 252.763 L2111.09 252.74 Z" fill="#000000" fill-rule="nonzero" fill-opacity="1" /><polyline clip-path="url(#clip270)" style="stroke:#c271d2; stroke-linecap:round; stroke-linejoin:round; stroke-width:4; stroke-opacity:1; fill:none" stroke-dasharray="16, 10" points="1849.13,302.578 1993.05,302.578 "/>
<path clip-path="url(#clip270)" d="M2017.04 285.298 L2046.28 285.298 L2046.28 289.233 L2034.01 289.233 L2034.01 319.858 L2029.31 319.858 L2029.31 289.233 L2017.04 289.233 L2017.04 285.298 Z" fill="#000000" fill-rule="nonzero" fill-opacity="1" /><path clip-path="url(#clip270)" d="M2058.66 297.913 Q2057.94 297.497 2057.09 297.311 Q2056.25 297.103 2055.24 297.103 Q2051.62 297.103 2049.68 299.464 Q2047.76 301.802 2047.76 306.2 L2047.76 319.858 L2043.48 319.858 L2043.48 293.932 L2047.76 293.932 L2047.76 297.96 Q2049.1 295.598 2051.25 294.464 Q2053.41 293.307 2056.49 293.307 Q2056.93 293.307 2057.46 293.376 Q2057.99 293.423 2058.64 293.538 L2058.66 297.913 Z" fill="#000000" fill-rule="nonzero" fill-opacity="1" /><path clip-path="url(#clip270)" d="M2062.69 309.626 L2062.69 293.932 L2066.95 293.932 L2066.95 309.464 Q2066.95 313.145 2068.38 314.996 Q2069.82 316.825 2072.69 316.825 Q2076.14 316.825 2078.13 314.626 Q2080.14 312.427 2080.14 308.631 L2080.14 293.932 L2084.4 293.932 L2084.4 319.858 L2080.14 319.858 L2080.14 315.876 Q2078.59 318.237 2076.53 319.395 Q2074.49 320.529 2071.79 320.529 Q2067.32 320.529 2065 317.751 Q2062.69 314.973 2062.69 309.626 M2073.41 293.307 L2073.41 293.307 Z" fill="#000000" fill-rule="nonzero" fill-opacity="1" /><path clip-path="url(#clip270)" d="M2115.35 305.83 L2115.35 307.913 L2095.77 307.913 Q2096.05 312.311 2098.41 314.626 Q2100.79 316.918 2105.03 316.918 Q2107.48 316.918 2109.77 316.316 Q2112.09 315.714 2114.36 314.51 L2114.36 318.538 Q2112.06 319.51 2109.66 320.02 Q2107.25 320.529 2104.77 320.529 Q2098.57 320.529 2094.93 316.918 Q2091.32 313.307 2091.32 307.149 Q2091.32 300.784 2094.75 297.057 Q2098.2 293.307 2104.03 293.307 Q2109.26 293.307 2112.3 296.686 Q2115.35 300.043 2115.35 305.83 M2111.09 304.58 Q2111.05 301.085 2109.12 299.001 Q2107.23 296.918 2104.08 296.918 Q2100.51 296.918 2098.36 298.932 Q2096.23 300.946 2095.91 304.603 L2111.09 304.58 Z" fill="#000000" fill-rule="nonzero" fill-opacity="1" /></svg>
