<?xml version="1.0" encoding="utf-8"?>
<svg xmlns="http://www.w3.org/2000/svg" xmlns:xlink="http://www.w3.org/1999/xlink" width="600" height="400" viewBox="0 0 2400 1600">
<defs>
  <clipPath id="clip300">
    <rect x="0" y="0" width="2400" height="1600"/>
  </clipPath>
</defs>
<path clip-path="url(#clip300)" d="M0 1600 L2400 1600 L2400 0 L0 0  Z" fill="#ffffff" fill-rule="evenodd" fill-opacity="1"/>
<defs>
  <clipPath id="clip301">
    <rect x="480" y="0" width="1681" height="1600"/>
  </clipPath>
</defs>
<path clip-path="url(#clip300)" d="M194.422 1486.45 L1138.42 1486.45 L1138.42 47.2441 L194.422 47.2441  Z" fill="#ffffff" fill-rule="evenodd" fill-opacity="1"/>
<defs>
  <clipPath id="clip302">
    <rect x="194" y="47" width="945" height="1440"/>
  </clipPath>
</defs>
<polyline clip-path="url(#clip302)" style="stroke:#000000; stroke-linecap:round; stroke-linejoin:round; stroke-width:2; stroke-opacity:0.1; fill:none" points="209.866,1486.45 209.866,47.2441 "/>
<polyline clip-path="url(#clip302)" style="stroke:#000000; stroke-linecap:round; stroke-linejoin:round; stroke-width:2; stroke-opacity:0.1; fill:none" points="435.324,1486.45 435.324,47.2441 "/>
<polyline clip-path="url(#clip302)" style="stroke:#000000; stroke-linecap:round; stroke-linejoin:round; stroke-width:2; stroke-opacity:0.1; fill:none" points="660.782,1486.45 660.782,47.2441 "/>
<polyline clip-path="url(#clip302)" style="stroke:#000000; stroke-linecap:round; stroke-linejoin:round; stroke-width:2; stroke-opacity:0.1; fill:none" points="886.241,1486.45 886.241,47.2441 "/>
<polyline clip-path="url(#clip302)" style="stroke:#000000; stroke-linecap:round; stroke-linejoin:round; stroke-width:2; stroke-opacity:0.1; fill:none" points="1111.7,1486.45 1111.7,47.2441 "/>
<polyline clip-path="url(#clip302)" style="stroke:#000000; stroke-linecap:round; stroke-linejoin:round; stroke-width:2; stroke-opacity:0.1; fill:none" points="194.422,1479.14 1138.42,1479.14 "/>
<polyline clip-path="url(#clip302)" style="stroke:#000000; stroke-linecap:round; stroke-linejoin:round; stroke-width:2; stroke-opacity:0.1; fill:none" points="194.422,1268.58 1138.42,1268.58 "/>
<polyline clip-path="url(#clip302)" style="stroke:#000000; stroke-linecap:round; stroke-linejoin:round; stroke-width:2; stroke-opacity:0.1; fill:none" points="194.422,1058.03 1138.42,1058.03 "/>
<polyline clip-path="url(#clip302)" style="stroke:#000000; stroke-linecap:round; stroke-linejoin:round; stroke-width:2; stroke-opacity:0.1; fill:none" points="194.422,847.482 1138.42,847.482 "/>
<polyline clip-path="url(#clip302)" style="stroke:#000000; stroke-linecap:round; stroke-linejoin:round; stroke-width:2; stroke-opacity:0.1; fill:none" points="194.422,636.931 1138.42,636.931 "/>
<polyline clip-path="url(#clip302)" style="stroke:#000000; stroke-linecap:round; stroke-linejoin:round; stroke-width:2; stroke-opacity:0.1; fill:none" points="194.422,426.38 1138.42,426.38 "/>
<polyline clip-path="url(#clip302)" style="stroke:#000000; stroke-linecap:round; stroke-linejoin:round; stroke-width:2; stroke-opacity:0.1; fill:none" points="194.422,215.829 1138.42,215.829 "/>
<polyline clip-path="url(#clip300)" style="stroke:#000000; stroke-linecap:round; stroke-linejoin:round; stroke-width:4; stroke-opacity:1; fill:none" points="194.422,1486.45 1138.42,1486.45 "/>
<polyline clip-path="url(#clip300)" style="stroke:#000000; stroke-linecap:round; stroke-linejoin:round; stroke-width:4; stroke-opacity:1; fill:none" points="209.866,1486.45 209.866,1467.55 "/>
<polyline clip-path="url(#clip300)" style="stroke:#000000; stroke-linecap:round; stroke-linejoin:round; stroke-width:4; stroke-opacity:1; fill:none" points="435.324,1486.45 435.324,1467.55 "/>
<polyline clip-path="url(#clip300)" style="stroke:#000000; stroke-linecap:round; stroke-linejoin:round; stroke-width:4; stroke-opacity:1; fill:none" points="660.782,1486.45 660.782,1467.55 "/>
<polyline clip-path="url(#clip300)" style="stroke:#000000; stroke-linecap:round; stroke-linejoin:round; stroke-width:4; stroke-opacity:1; fill:none" points="886.241,1486.45 886.241,1467.55 "/>
<polyline clip-path="url(#clip300)" style="stroke:#000000; stroke-linecap:round; stroke-linejoin:round; stroke-width:4; stroke-opacity:1; fill:none" points="1111.7,1486.45 1111.7,1467.55 "/>
<path clip-path="url(#clip300)" d="M209.866 1517.37 Q206.255 1517.37 204.426 1520.93 Q202.621 1524.47 202.621 1531.6 Q202.621 1538.71 204.426 1542.27 Q206.255 1545.82 209.866 1545.82 Q213.5 1545.82 215.306 1542.27 Q217.134 1538.71 217.134 1531.6 Q217.134 1524.47 215.306 1520.93 Q213.5 1517.37 209.866 1517.37 M209.866 1513.66 Q215.676 1513.66 218.732 1518.27 Q221.81 1522.85 221.81 1531.6 Q221.81 1540.33 218.732 1544.94 Q215.676 1549.52 209.866 1549.52 Q204.056 1549.52 200.977 1544.94 Q197.922 1540.33 197.922 1531.6 Q197.922 1522.85 200.977 1518.27 Q204.056 1513.66 209.866 1513.66 Z" fill="#000000" fill-rule="nonzero" fill-opacity="1" /><path clip-path="url(#clip300)" d="M414.097 1544.91 L430.417 1544.91 L430.417 1548.85 L408.473 1548.85 L408.473 1544.91 Q411.135 1542.16 415.718 1537.53 Q420.324 1532.88 421.505 1531.53 Q423.75 1529.01 424.63 1527.27 Q425.533 1525.51 425.533 1523.82 Q425.533 1521.07 423.588 1519.33 Q421.667 1517.6 418.565 1517.6 Q416.366 1517.6 413.912 1518.36 Q411.482 1519.13 408.704 1520.68 L408.704 1515.95 Q411.528 1514.82 413.982 1514.24 Q416.435 1513.66 418.472 1513.66 Q423.843 1513.66 427.037 1516.35 Q430.232 1519.03 430.232 1523.52 Q430.232 1525.65 429.421 1527.57 Q428.634 1529.47 426.528 1532.07 Q425.949 1532.74 422.847 1535.95 Q419.746 1539.15 414.097 1544.91 Z" fill="#000000" fill-rule="nonzero" fill-opacity="1" /><path clip-path="url(#clip300)" d="M450.232 1517.37 Q446.62 1517.37 444.792 1520.93 Q442.986 1524.47 442.986 1531.6 Q442.986 1538.71 444.792 1542.27 Q446.62 1545.82 450.232 1545.82 Q453.866 1545.82 455.671 1542.27 Q457.5 1538.71 457.5 1531.6 Q457.5 1524.47 455.671 1520.93 Q453.866 1517.37 450.232 1517.37 M450.232 1513.66 Q456.042 1513.66 459.097 1518.27 Q462.176 1522.85 462.176 1531.6 Q462.176 1540.33 459.097 1544.94 Q456.042 1549.52 450.232 1549.52 Q444.421 1549.52 441.343 1544.94 Q438.287 1540.33 438.287 1531.6 Q438.287 1522.85 441.343 1518.27 Q444.421 1513.66 450.232 1513.66 Z" fill="#000000" fill-rule="nonzero" fill-opacity="1" /><path clip-path="url(#clip300)" d="M648.954 1518.36 L637.148 1536.81 L648.954 1536.81 L648.954 1518.36 M647.727 1514.29 L653.607 1514.29 L653.607 1536.81 L658.537 1536.81 L658.537 1540.7 L653.607 1540.7 L653.607 1548.85 L648.954 1548.85 L648.954 1540.7 L633.352 1540.7 L633.352 1536.19 L647.727 1514.29 Z" fill="#000000" fill-rule="nonzero" fill-opacity="1" /><path clip-path="url(#clip300)" d="M676.268 1517.37 Q672.657 1517.37 670.829 1520.93 Q669.023 1524.47 669.023 1531.6 Q669.023 1538.71 670.829 1542.27 Q672.657 1545.82 676.268 1545.82 Q679.903 1545.82 681.708 1542.27 Q683.537 1538.71 683.537 1531.6 Q683.537 1524.47 681.708 1520.93 Q679.903 1517.37 676.268 1517.37 M676.268 1513.66 Q682.079 1513.66 685.134 1518.27 Q688.213 1522.85 688.213 1531.6 Q688.213 1540.33 685.134 1544.94 Q682.079 1549.52 676.268 1549.52 Q670.458 1549.52 667.38 1544.94 Q664.324 1540.33 664.324 1531.6 Q664.324 1522.85 667.38 1518.27 Q670.458 1513.66 676.268 1513.66 Z" fill="#000000" fill-rule="nonzero" fill-opacity="1" /><path clip-path="url(#clip300)" d="M871.646 1529.7 Q868.498 1529.7 866.646 1531.86 Q864.817 1534.01 864.817 1537.76 Q864.817 1541.49 866.646 1543.66 Q868.498 1545.82 871.646 1545.82 Q874.794 1545.82 876.623 1543.66 Q878.475 1541.49 878.475 1537.76 Q878.475 1534.01 876.623 1531.86 Q874.794 1529.7 871.646 1529.7 M880.928 1515.05 L880.928 1519.31 Q879.169 1518.48 877.363 1518.04 Q875.581 1517.6 873.822 1517.6 Q869.192 1517.6 866.738 1520.72 Q864.308 1523.85 863.961 1530.17 Q865.326 1528.15 867.387 1527.09 Q869.447 1526 871.924 1526 Q877.132 1526 880.141 1529.17 Q883.174 1532.32 883.174 1537.76 Q883.174 1543.08 880.025 1546.3 Q876.877 1549.52 871.646 1549.52 Q865.651 1549.52 862.479 1544.94 Q859.308 1540.33 859.308 1531.6 Q859.308 1523.41 863.197 1518.55 Q867.086 1513.66 873.637 1513.66 Q875.396 1513.66 877.178 1514.01 Q878.984 1514.36 880.928 1515.05 Z" fill="#000000" fill-rule="nonzero" fill-opacity="1" /><path clip-path="url(#clip300)" d="M901.229 1517.37 Q897.618 1517.37 895.789 1520.93 Q893.984 1524.47 893.984 1531.6 Q893.984 1538.71 895.789 1542.27 Q897.618 1545.82 901.229 1545.82 Q904.863 1545.82 906.669 1542.27 Q908.498 1538.71 908.498 1531.6 Q908.498 1524.47 906.669 1520.93 Q904.863 1517.37 901.229 1517.37 M901.229 1513.66 Q907.039 1513.66 910.095 1518.27 Q913.173 1522.85 913.173 1531.6 Q913.173 1540.33 910.095 1544.94 Q907.039 1549.52 901.229 1549.52 Q895.419 1549.52 892.34 1544.94 Q889.285 1540.33 889.285 1531.6 Q889.285 1522.85 892.34 1518.27 Q895.419 1513.66 901.229 1513.66 Z" fill="#000000" fill-rule="nonzero" fill-opacity="1" /><path clip-path="url(#clip300)" d="M1096.57 1532.44 Q1093.24 1532.44 1091.32 1534.22 Q1089.42 1536 1089.42 1539.13 Q1089.42 1542.25 1091.32 1544.03 Q1093.24 1545.82 1096.57 1545.82 Q1099.9 1545.82 1101.83 1544.03 Q1103.75 1542.23 1103.75 1539.13 Q1103.75 1536 1101.83 1534.22 Q1099.93 1532.44 1096.57 1532.44 M1091.9 1530.45 Q1088.89 1529.7 1087.2 1527.64 Q1085.53 1525.58 1085.53 1522.62 Q1085.53 1518.48 1088.47 1516.07 Q1091.43 1513.66 1096.57 1513.66 Q1101.73 1513.66 1104.67 1516.07 Q1107.61 1518.48 1107.61 1522.62 Q1107.61 1525.58 1105.92 1527.64 Q1104.26 1529.7 1101.27 1530.45 Q1104.65 1531.23 1106.53 1533.52 Q1108.42 1535.82 1108.42 1539.13 Q1108.42 1544.15 1105.34 1546.83 Q1102.29 1549.52 1096.57 1549.52 Q1090.85 1549.52 1087.78 1546.83 Q1084.72 1544.15 1084.72 1539.13 Q1084.72 1535.82 1086.62 1533.52 Q1088.52 1531.23 1091.9 1530.45 M1090.18 1523.06 Q1090.18 1525.75 1091.85 1527.25 Q1093.54 1528.76 1096.57 1528.76 Q1099.58 1528.76 1101.27 1527.25 Q1102.98 1525.75 1102.98 1523.06 Q1102.98 1520.38 1101.27 1518.87 Q1099.58 1517.37 1096.57 1517.37 Q1093.54 1517.37 1091.85 1518.87 Q1090.18 1520.38 1090.18 1523.06 Z" fill="#000000" fill-rule="nonzero" fill-opacity="1" /><path clip-path="url(#clip300)" d="M1126.73 1517.37 Q1123.12 1517.37 1121.29 1520.93 Q1119.49 1524.47 1119.49 1531.6 Q1119.49 1538.71 1121.29 1542.27 Q1123.12 1545.82 1126.73 1545.82 Q1130.37 1545.82 1132.17 1542.27 Q1134 1538.71 1134 1531.6 Q1134 1524.47 1132.17 1520.93 Q1130.37 1517.37 1126.73 1517.37 M1126.73 1513.66 Q1132.54 1513.66 1135.6 1518.27 Q1138.68 1522.85 1138.68 1531.6 Q1138.68 1540.33 1135.6 1544.94 Q1132.54 1549.52 1126.73 1549.52 Q1120.92 1549.52 1117.84 1544.94 Q1114.79 1540.33 1114.79 1531.6 Q1114.79 1522.85 1117.84 1518.27 Q1120.92 1513.66 1126.73 1513.66 Z" fill="#000000" fill-rule="nonzero" fill-opacity="1" /><polyline clip-path="url(#clip300)" style="stroke:#000000; stroke-linecap:round; stroke-linejoin:round; stroke-width:4; stroke-opacity:1; fill:none" points="194.422,1486.45 194.422,47.2441 "/>
<polyline clip-path="url(#clip300)" style="stroke:#000000; stroke-linecap:round; stroke-linejoin:round; stroke-width:4; stroke-opacity:1; fill:none" points="194.422,1479.14 213.32,1479.14 "/>
<polyline clip-path="url(#clip300)" style="stroke:#000000; stroke-linecap:round; stroke-linejoin:round; stroke-width:4; stroke-opacity:1; fill:none" points="194.422,1268.58 213.32,1268.58 "/>
<polyline clip-path="url(#clip300)" style="stroke:#000000; stroke-linecap:round; stroke-linejoin:round; stroke-width:4; stroke-opacity:1; fill:none" points="194.422,1058.03 213.32,1058.03 "/>
<polyline clip-path="url(#clip300)" style="stroke:#000000; stroke-linecap:round; stroke-linejoin:round; stroke-width:4; stroke-opacity:1; fill:none" points="194.422,847.482 213.32,847.482 "/>
<polyline clip-path="url(#clip300)" style="stroke:#000000; stroke-linecap:round; stroke-linejoin:round; stroke-width:4; stroke-opacity:1; fill:none" points="194.422,636.931 213.32,636.931 "/>
<polyline clip-path="url(#clip300)" style="stroke:#000000; stroke-linecap:round; stroke-linejoin:round; stroke-width:4; stroke-opacity:1; fill:none" points="194.422,426.38 213.32,426.38 "/>
<polyline clip-path="url(#clip300)" style="stroke:#000000; stroke-linecap:round; stroke-linejoin:round; stroke-width:4; stroke-opacity:1; fill:none" points="194.422,215.829 213.32,215.829 "/>
<path clip-path="url(#clip300)" d="M51.3162 1479.59 L80.992 1479.59 L80.992 1483.52 L51.3162 1483.52 L51.3162 1479.59 Z" fill="#000000" fill-rule="nonzero" fill-opacity="1" /><path clip-path="url(#clip300)" d="M101.084 1464.93 Q97.4734 1464.93 95.6447 1468.5 Q93.8391 1472.04 93.8391 1479.17 Q93.8391 1486.28 95.6447 1489.84 Q97.4734 1493.38 101.084 1493.38 Q104.719 1493.38 106.524 1489.84 Q108.353 1486.28 108.353 1479.17 Q108.353 1472.04 106.524 1468.5 Q104.719 1464.93 101.084 1464.93 M101.084 1461.23 Q106.895 1461.23 109.95 1465.84 Q113.029 1470.42 113.029 1479.17 Q113.029 1487.9 109.95 1492.5 Q106.895 1497.09 101.084 1497.09 Q95.2743 1497.09 92.1956 1492.5 Q89.1401 1487.9 89.1401 1479.17 Q89.1401 1470.42 92.1956 1465.84 Q95.2743 1461.23 101.084 1461.23 Z" fill="#000000" fill-rule="nonzero" fill-opacity="1" /><path clip-path="url(#clip300)" d="M121.246 1490.54 L126.131 1490.54 L126.131 1496.42 L121.246 1496.42 L121.246 1490.54 Z" fill="#000000" fill-rule="nonzero" fill-opacity="1" /><path clip-path="url(#clip300)" d="M146.894 1477.27 Q143.746 1477.27 141.894 1479.43 Q140.066 1481.58 140.066 1485.33 Q140.066 1489.05 141.894 1491.23 Q143.746 1493.38 146.894 1493.38 Q150.043 1493.38 151.871 1491.23 Q153.723 1489.05 153.723 1485.33 Q153.723 1481.58 151.871 1479.43 Q150.043 1477.27 146.894 1477.27 M156.177 1462.62 L156.177 1466.88 Q154.417 1466.05 152.612 1465.61 Q150.83 1465.17 149.07 1465.17 Q144.441 1465.17 141.987 1468.29 Q139.556 1471.42 139.209 1477.74 Q140.575 1475.72 142.635 1474.66 Q144.695 1473.57 147.172 1473.57 Q152.38 1473.57 155.39 1476.74 Q158.422 1479.89 158.422 1485.33 Q158.422 1490.65 155.274 1493.87 Q152.126 1497.09 146.894 1497.09 Q140.899 1497.09 137.728 1492.5 Q134.556 1487.9 134.556 1479.17 Q134.556 1470.98 138.445 1466.12 Q142.334 1461.23 148.885 1461.23 Q150.644 1461.23 152.427 1461.58 Q154.232 1461.93 156.177 1462.62 Z" fill="#000000" fill-rule="nonzero" fill-opacity="1" /><path clip-path="url(#clip300)" d="M50.9921 1269.04 L80.6679 1269.04 L80.6679 1272.97 L50.9921 1272.97 L50.9921 1269.04 Z" fill="#000000" fill-rule="nonzero" fill-opacity="1" /><path clip-path="url(#clip300)" d="M100.76 1254.38 Q97.1493 1254.38 95.3206 1257.95 Q93.515 1261.49 93.515 1268.62 Q93.515 1275.73 95.3206 1279.29 Q97.1493 1282.83 100.76 1282.83 Q104.395 1282.83 106.2 1279.29 Q108.029 1275.73 108.029 1268.62 Q108.029 1261.49 106.2 1257.95 Q104.395 1254.38 100.76 1254.38 M100.76 1250.68 Q106.571 1250.68 109.626 1255.29 Q112.705 1259.87 112.705 1268.62 Q112.705 1277.35 109.626 1281.95 Q106.571 1286.54 100.76 1286.54 Q94.9502 1286.54 91.8715 1281.95 Q88.816 1277.35 88.816 1268.62 Q88.816 1259.87 91.8715 1255.29 Q94.9502 1250.68 100.76 1250.68 Z" fill="#000000" fill-rule="nonzero" fill-opacity="1" /><path clip-path="url(#clip300)" d="M120.922 1279.99 L125.807 1279.99 L125.807 1285.86 L120.922 1285.86 L120.922 1279.99 Z" fill="#000000" fill-rule="nonzero" fill-opacity="1" /><path clip-path="url(#clip300)" d="M148.839 1255.38 L137.033 1273.83 L148.839 1273.83 L148.839 1255.38 M147.612 1251.3 L153.492 1251.3 L153.492 1273.83 L158.422 1273.83 L158.422 1277.72 L153.492 1277.72 L153.492 1285.86 L148.839 1285.86 L148.839 1277.72 L133.237 1277.72 L133.237 1273.2 L147.612 1251.3 Z" fill="#000000" fill-rule="nonzero" fill-opacity="1" /><path clip-path="url(#clip300)" d="M53.0754 1058.48 L82.7512 1058.48 L82.7512 1062.42 L53.0754 1062.42 L53.0754 1058.48 Z" fill="#000000" fill-rule="nonzero" fill-opacity="1" /><path clip-path="url(#clip300)" d="M102.844 1043.83 Q99.2326 1043.83 97.4039 1047.4 Q95.5984 1050.94 95.5984 1058.07 Q95.5984 1065.17 97.4039 1068.74 Q99.2326 1072.28 102.844 1072.28 Q106.478 1072.28 108.283 1068.74 Q110.112 1065.17 110.112 1058.07 Q110.112 1050.94 108.283 1047.4 Q106.478 1043.83 102.844 1043.83 M102.844 1040.13 Q108.654 1040.13 111.709 1044.73 Q114.788 1049.32 114.788 1058.07 Q114.788 1066.8 111.709 1071.4 Q108.654 1075.98 102.844 1075.98 Q97.0335 1075.98 93.9549 1071.4 Q90.8993 1066.8 90.8993 1058.07 Q90.8993 1049.32 93.9549 1044.73 Q97.0335 1040.13 102.844 1040.13 Z" fill="#000000" fill-rule="nonzero" fill-opacity="1" /><path clip-path="url(#clip300)" d="M123.006 1069.43 L127.89 1069.43 L127.89 1075.31 L123.006 1075.31 L123.006 1069.43 Z" fill="#000000" fill-rule="nonzero" fill-opacity="1" /><path clip-path="url(#clip300)" d="M142.103 1071.38 L158.422 1071.38 L158.422 1075.31 L136.478 1075.31 L136.478 1071.38 Q139.14 1068.62 143.723 1063.99 Q148.33 1059.34 149.51 1058 Q151.755 1055.48 152.635 1053.74 Q153.538 1051.98 153.538 1050.29 Q153.538 1047.54 151.593 1045.8 Q149.672 1044.06 146.57 1044.06 Q144.371 1044.06 141.918 1044.83 Q139.487 1045.59 136.709 1047.14 L136.709 1042.42 Q139.533 1041.29 141.987 1040.71 Q144.441 1040.13 146.478 1040.13 Q151.848 1040.13 155.042 1042.81 Q158.237 1045.5 158.237 1049.99 Q158.237 1052.12 157.427 1054.04 Q156.64 1055.94 154.533 1058.53 Q153.955 1059.2 150.853 1062.42 Q147.751 1065.61 142.103 1071.38 Z" fill="#000000" fill-rule="nonzero" fill-opacity="1" /><path clip-path="url(#clip300)" d="M101.246 833.281 Q97.6354 833.281 95.8067 836.846 Q94.0012 840.388 94.0012 847.517 Q94.0012 854.624 95.8067 858.188 Q97.6354 861.73 101.246 861.73 Q104.881 861.73 106.686 858.188 Q108.515 854.624 108.515 847.517 Q108.515 840.388 106.686 836.846 Q104.881 833.281 101.246 833.281 M101.246 829.577 Q107.057 829.577 110.112 834.184 Q113.191 838.767 113.191 847.517 Q113.191 856.244 110.112 860.85 Q107.057 865.434 101.246 865.434 Q95.4363 865.434 92.3576 860.85 Q89.3021 856.244 89.3021 847.517 Q89.3021 838.767 92.3576 834.184 Q95.4363 829.577 101.246 829.577 Z" fill="#000000" fill-rule="nonzero" fill-opacity="1" /><path clip-path="url(#clip300)" d="M121.408 858.883 L126.293 858.883 L126.293 864.762 L121.408 864.762 L121.408 858.883 Z" fill="#000000" fill-rule="nonzero" fill-opacity="1" /><path clip-path="url(#clip300)" d="M146.478 833.281 Q142.867 833.281 141.038 836.846 Q139.232 840.388 139.232 847.517 Q139.232 854.624 141.038 858.188 Q142.867 861.73 146.478 861.73 Q150.112 861.73 151.918 858.188 Q153.746 854.624 153.746 847.517 Q153.746 840.388 151.918 836.846 Q150.112 833.281 146.478 833.281 M146.478 829.577 Q152.288 829.577 155.343 834.184 Q158.422 838.767 158.422 847.517 Q158.422 856.244 155.343 860.85 Q152.288 865.434 146.478 865.434 Q140.668 865.434 137.589 860.85 Q134.533 856.244 134.533 847.517 Q134.533 838.767 137.589 834.184 Q140.668 829.577 146.478 829.577 Z" fill="#000000" fill-rule="nonzero" fill-opacity="1" /><path clip-path="url(#clip300)" d="M102.844 622.73 Q99.2326 622.73 97.4039 626.295 Q95.5984 629.836 95.5984 636.966 Q95.5984 644.072 97.4039 647.637 Q99.2326 651.179 102.844 651.179 Q106.478 651.179 108.283 647.637 Q110.112 644.072 110.112 636.966 Q110.112 629.836 108.283 626.295 Q106.478 622.73 102.844 622.73 M102.844 619.026 Q108.654 619.026 111.709 623.633 Q114.788 628.216 114.788 636.966 Q114.788 645.693 111.709 650.299 Q108.654 654.883 102.844 654.883 Q97.0335 654.883 93.9549 650.299 Q90.8993 645.693 90.8993 636.966 Q90.8993 628.216 93.9549 623.633 Q97.0335 619.026 102.844 619.026 Z" fill="#000000" fill-rule="nonzero" fill-opacity="1" /><path clip-path="url(#clip300)" d="M123.006 648.332 L127.89 648.332 L127.89 654.211 L123.006 654.211 L123.006 648.332 Z" fill="#000000" fill-rule="nonzero" fill-opacity="1" /><path clip-path="url(#clip300)" d="M142.103 650.276 L158.422 650.276 L158.422 654.211 L136.478 654.211 L136.478 650.276 Q139.14 647.522 143.723 642.892 Q148.33 638.239 149.51 636.897 Q151.755 634.373 152.635 632.637 Q153.538 630.878 153.538 629.188 Q153.538 626.434 151.593 624.698 Q149.672 622.961 146.57 622.961 Q144.371 622.961 141.918 623.725 Q139.487 624.489 136.709 626.04 L136.709 621.318 Q139.533 620.184 141.987 619.605 Q144.441 619.026 146.478 619.026 Q151.848 619.026 155.042 621.711 Q158.237 624.397 158.237 628.887 Q158.237 631.017 157.427 632.938 Q156.64 634.836 154.533 637.429 Q153.955 638.1 150.853 641.318 Q147.751 644.512 142.103 650.276 Z" fill="#000000" fill-rule="nonzero" fill-opacity="1" /><path clip-path="url(#clip300)" d="M100.76 412.179 Q97.1493 412.179 95.3206 415.744 Q93.515 419.285 93.515 426.415 Q93.515 433.521 95.3206 437.086 Q97.1493 440.628 100.76 440.628 Q104.395 440.628 106.2 437.086 Q108.029 433.521 108.029 426.415 Q108.029 419.285 106.2 415.744 Q104.395 412.179 100.76 412.179 M100.76 408.475 Q106.571 408.475 109.626 413.082 Q112.705 417.665 112.705 426.415 Q112.705 435.142 109.626 439.748 Q106.571 444.331 100.76 444.331 Q94.9502 444.331 91.8715 439.748 Q88.816 435.142 88.816 426.415 Q88.816 417.665 91.8715 413.082 Q94.9502 408.475 100.76 408.475 Z" fill="#000000" fill-rule="nonzero" fill-opacity="1" /><path clip-path="url(#clip300)" d="M120.922 437.781 L125.807 437.781 L125.807 443.66 L120.922 443.66 L120.922 437.781 Z" fill="#000000" fill-rule="nonzero" fill-opacity="1" /><path clip-path="url(#clip300)" d="M148.839 413.174 L137.033 431.623 L148.839 431.623 L148.839 413.174 M147.612 409.1 L153.492 409.1 L153.492 431.623 L158.422 431.623 L158.422 435.512 L153.492 435.512 L153.492 443.66 L148.839 443.66 L148.839 435.512 L133.237 435.512 L133.237 430.998 L147.612 409.1 Z" fill="#000000" fill-rule="nonzero" fill-opacity="1" /><path clip-path="url(#clip300)" d="M101.084 201.628 Q97.4734 201.628 95.6447 205.193 Q93.8391 208.734 93.8391 215.864 Q93.8391 222.97 95.6447 226.535 Q97.4734 230.077 101.084 230.077 Q104.719 230.077 106.524 226.535 Q108.353 222.97 108.353 215.864 Q108.353 208.734 106.524 205.193 Q104.719 201.628 101.084 201.628 M101.084 197.924 Q106.895 197.924 109.95 202.531 Q113.029 207.114 113.029 215.864 Q113.029 224.591 109.95 229.197 Q106.895 233.78 101.084 233.78 Q95.2743 233.78 92.1956 229.197 Q89.1401 224.591 89.1401 215.864 Q89.1401 207.114 92.1956 202.531 Q95.2743 197.924 101.084 197.924 Z" fill="#000000" fill-rule="nonzero" fill-opacity="1" /><path clip-path="url(#clip300)" d="M121.246 227.229 L126.131 227.229 L126.131 233.109 L121.246 233.109 L121.246 227.229 Z" fill="#000000" fill-rule="nonzero" fill-opacity="1" /><path clip-path="url(#clip300)" d="M146.894 213.966 Q143.746 213.966 141.894 216.118 Q140.066 218.271 140.066 222.021 Q140.066 225.748 141.894 227.924 Q143.746 230.077 146.894 230.077 Q150.043 230.077 151.871 227.924 Q153.723 225.748 153.723 222.021 Q153.723 218.271 151.871 216.118 Q150.043 213.966 146.894 213.966 M156.177 199.313 L156.177 203.572 Q154.417 202.739 152.612 202.299 Q150.83 201.859 149.07 201.859 Q144.441 201.859 141.987 204.984 Q139.556 208.109 139.209 214.429 Q140.575 212.415 142.635 211.35 Q144.695 210.262 147.172 210.262 Q152.38 210.262 155.39 213.433 Q158.422 216.581 158.422 222.021 Q158.422 227.345 155.274 230.563 Q152.126 233.78 146.894 233.78 Q140.899 233.78 137.728 229.197 Q134.556 224.591 134.556 215.864 Q134.556 207.669 138.445 202.808 Q142.334 197.924 148.885 197.924 Q150.644 197.924 152.427 198.271 Q154.232 198.619 156.177 199.313 Z" fill="#000000" fill-rule="nonzero" fill-opacity="1" /><polyline clip-path="url(#clip302)" style="stroke:#009af9; stroke-linecap:round; stroke-linejoin:round; stroke-width:4; stroke-opacity:1; fill:none" points="221.139,584.432 232.412,440.157 243.685,532.15 254.958,436.859 266.231,594.068 277.503,656.716 288.776,503.195 300.049,490.423 311.322,315.564 322.595,468.823 333.868,370.614 345.141,368.34 356.414,446.093 367.687,538.393 378.96,601.574 390.233,613.81 401.505,517.162 412.778,599.153 424.051,618.423 435.324,544.935 446.597,654.587 457.87,577.079 469.143,678.114 480.416,709.154 491.689,634.072 502.962,482.697 514.235,726.141 525.508,634.373 536.78,617.871 548.053,771.842 559.326,878.783 570.599,869.365 581.872,828.458 593.145,588.901 604.418,672.509 615.691,516.911 626.964,555.999 638.237,669.376 649.51,568.033 660.782,542.336 672.055,397.965 683.328,549.668 694.601,277.63 705.874,499.668 717.147,354.219 728.42,366.836 739.693,208.69 750.966,412.024 762.239,458.628 773.512,508.182 784.784,646.221 796.057,807.231 807.33,942.087 818.603,983.63 829.876,924.935 841.149,1132.31 852.422,1313.17 863.695,1445.72 874.968,1333.46 886.241,1277.2 897.514,982.954 908.786,1010.78 920.059,960.916 931.332,1025.56 942.605,897.757 953.878,904.191 965.151,935.688 976.424,890.576 987.697,865.004 998.97,903.299 1010.24,1105.99 1021.52,1081.94 1032.79,1148.86 1044.06,1103.81 1055.33,1118.14 1066.61,1050.34 1077.88,1206.18 1089.15,799.39 1100.43,986.176 1111.7,1065.91 "/>
<polyline clip-path="url(#clip302)" style="stroke:#e26f46; stroke-linecap:round; stroke-linejoin:round; stroke-width:4; stroke-opacity:1; fill:none" points="221.139,471.041 232.412,350.277 243.685,453.176 254.958,359.477 266.231,529.015 277.503,610.011 288.776,451.672 300.049,451.667 311.322,288.848 322.595,429.211 333.868,344.449 345.141,324.095 356.414,410.237 367.687,486.929 378.96,551.415 390.233,590.475 401.505,511.939 412.778,608.383 424.051,622.529 435.324,541.94 446.597,642.523 457.87,569.785 469.143,675.077 480.416,705.945 491.689,616.644 502.962,451.491 514.235,707.279 525.508,615.402 536.78,600.019 548.053,758.39 559.326,888.918 570.599,886.92 581.872,860.712 593.145,616.878 604.418,690.502 615.691,552.086 626.964,601.488 638.237,701.917 649.51,597.351 660.782,563.278 672.055,415.61 683.328,533.186 694.601,269.421 705.874,477.794 717.147,343.825 728.42,353.773 739.693,185.059 750.966,388.888 762.239,430.64 773.512,487.42 784.784,614.785 796.057,773.708 807.33,902.73 818.603,946.005 829.876,888.095 841.149,1110.04 852.422,1283.01 863.695,1393.36 874.968,1276.61 886.241,1217.56 897.514,923.674 908.786,967.742 920.059,919.803 931.332,991.414 942.605,857.95 953.878,869.94 965.151,936.647 976.424,896.157 987.697,877.123 998.97,909.98 1010.24,1124.71 1021.52,1095.92 1032.79,1171.35 1044.06,1122.62 1055.33,1139.96 1066.61,1074.06 1077.88,1224.74 1089.15,823.289 1100.43,1001.61 1111.7,1089.71 "/>
<polyline clip-path="url(#clip302)" style="stroke:#3da44d; stroke-linecap:round; stroke-linejoin:round; stroke-width:4; stroke-opacity:1; fill:none" points="221.139,450.733 232.412,107.366 243.685,184.276 254.958,93.7956 266.231,404.887 277.503,478.504 288.776,306.445 300.049,410.554 311.322,87.9763 322.595,285.768 333.868,288.979 345.141,183.353 356.414,107.895 367.687,367.695 378.96,310.287 390.233,327.355 401.505,242.04 412.778,294.826 424.051,225.173 435.324,138.435 446.597,242.897 457.87,214.311 469.143,494.42 480.416,534.617 491.689,566.16 502.962,362.88 514.235,548.334 525.508,640.622 536.78,670.043 548.053,755.357 559.326,771.75 570.599,878.66 581.872,991.668 593.145,638.644 604.418,508.171 615.691,409.625 626.964,435.604 638.237,509.136 649.51,446.719 660.782,598.981 672.055,453.475 683.328,678.335 694.601,482.845 705.874,653.538 717.147,342.005 728.42,376.34 739.693,170.969 750.966,506.992 762.239,493.783 773.512,678.265 784.784,929.808 796.057,958.338 807.33,1091.91 818.603,1051.12 829.876,855.954 841.149,1067.41 852.422,1024.25 863.695,1303.65 874.968,1102.28 886.241,1022.52 897.514,806.349 908.786,881.631 920.059,910.605 931.332,839.419 942.605,629.832 953.878,754.968 965.151,812.291 976.424,686.505 987.697,686.553 998.97,756.693 1010.24,995.929 1021.52,1001.61 1032.79,1110.29 1044.06,1009.57 1055.33,908.013 1066.61,836.333 1077.88,1273.74 1089.15,750.065 1100.43,1009.39 1111.7,936.317 "/>
<path clip-path="url(#clip300)" d="M650.885 302.578 L1106.95 302.578 L1106.95 95.2176 L650.885 95.2176  Z" fill="#ffffff" fill-rule="evenodd" fill-opacity="1"/>
<polyline clip-path="url(#clip300)" style="stroke:#000000; stroke-linecap:round; stroke-linejoin:round; stroke-width:4; stroke-opacity:1; fill:none" points="650.885,302.578 1106.95,302.578 1106.95,95.2176 650.885,95.2176 650.885,302.578 "/>
<polyline clip-path="url(#clip300)" style="stroke:#009af9; stroke-linecap:round; stroke-linejoin:round; stroke-width:4; stroke-opacity:1; fill:none" points="661.374,147.058 724.307,147.058 "/>
<path clip-path="url(#clip300)" d="M734.796 129.778 L739.472 129.778 L739.472 144.384 L754.981 129.778 L760.999 129.778 L743.847 145.889 L762.226 164.338 L756.069 164.338 L739.472 147.694 L739.472 164.338 L734.796 164.338 L734.796 129.778 Z" fill="#000000" fill-rule="nonzero" fill-opacity="1" /><path clip-path="url(#clip300)" d="M776.647 151.305 Q771.485 151.305 769.495 152.486 Q767.504 153.666 767.504 156.514 Q767.504 158.782 768.985 160.125 Q770.49 161.444 773.059 161.444 Q776.601 161.444 778.731 158.944 Q780.883 156.421 780.883 152.254 L780.883 151.305 L776.647 151.305 M785.143 149.546 L785.143 164.338 L780.883 164.338 L780.883 160.402 Q779.425 162.763 777.249 163.898 Q775.073 165.009 771.925 165.009 Q767.944 165.009 765.583 162.787 Q763.245 160.541 763.245 156.791 Q763.245 152.416 766.161 150.194 Q769.101 147.972 774.911 147.972 L780.883 147.972 L780.883 147.555 Q780.883 144.615 778.939 143.018 Q777.018 141.398 773.522 141.398 Q771.3 141.398 769.194 141.93 Q767.087 142.463 765.143 143.527 L765.143 139.592 Q767.481 138.69 769.68 138.25 Q771.879 137.787 773.962 137.787 Q779.587 137.787 782.365 140.703 Q785.143 143.62 785.143 149.546 Z" fill="#000000" fill-rule="nonzero" fill-opacity="1" /><path clip-path="url(#clip300)" d="M793.916 128.319 L798.175 128.319 L798.175 164.338 L793.916 164.338 L793.916 128.319 Z" fill="#000000" fill-rule="nonzero" fill-opacity="1" /><path clip-path="url(#clip300)" d="M827.272 143.389 Q828.869 140.518 831.091 139.153 Q833.314 137.787 836.323 137.787 Q840.374 137.787 842.573 140.634 Q844.772 143.458 844.772 148.689 L844.772 164.338 L840.49 164.338 L840.49 148.828 Q840.49 145.102 839.17 143.296 Q837.851 141.49 835.142 141.49 Q831.832 141.49 829.911 143.69 Q827.99 145.889 827.99 149.685 L827.99 164.338 L823.707 164.338 L823.707 148.828 Q823.707 145.078 822.388 143.296 Q821.068 141.49 818.314 141.49 Q815.05 141.49 813.129 143.713 Q811.207 145.912 811.207 149.685 L811.207 164.338 L806.925 164.338 L806.925 138.412 L811.207 138.412 L811.207 142.44 Q812.666 140.055 814.703 138.921 Q816.74 137.787 819.541 137.787 Q822.365 137.787 824.332 139.222 Q826.323 140.657 827.272 143.389 Z" fill="#000000" fill-rule="nonzero" fill-opacity="1" /><path clip-path="url(#clip300)" d="M865.05 151.305 Q859.888 151.305 857.897 152.486 Q855.906 153.666 855.906 156.514 Q855.906 158.782 857.388 160.125 Q858.892 161.444 861.462 161.444 Q865.003 161.444 867.133 158.944 Q869.286 156.421 869.286 152.254 L869.286 151.305 L865.05 151.305 M873.545 149.546 L873.545 164.338 L869.286 164.338 L869.286 160.402 Q867.827 162.763 865.651 163.898 Q863.476 165.009 860.327 165.009 Q856.346 165.009 853.985 162.787 Q851.647 160.541 851.647 156.791 Q851.647 152.416 854.564 150.194 Q857.503 147.972 863.314 147.972 L869.286 147.972 L869.286 147.555 Q869.286 144.615 867.341 143.018 Q865.42 141.398 861.925 141.398 Q859.702 141.398 857.596 141.93 Q855.49 142.463 853.545 143.527 L853.545 139.592 Q855.883 138.69 858.082 138.25 Q860.281 137.787 862.364 137.787 Q867.989 137.787 870.767 140.703 Q873.545 143.62 873.545 149.546 Z" fill="#000000" fill-rule="nonzero" fill-opacity="1" /><path clip-path="url(#clip300)" d="M903.869 148.689 L903.869 164.338 L899.61 164.338 L899.61 148.828 Q899.61 145.148 898.174 143.319 Q896.739 141.49 893.869 141.49 Q890.42 141.49 888.429 143.69 Q886.438 145.889 886.438 149.685 L886.438 164.338 L882.156 164.338 L882.156 138.412 L886.438 138.412 L886.438 142.44 Q887.966 140.102 890.026 138.944 Q892.11 137.787 894.818 137.787 Q899.286 137.787 901.577 140.565 Q903.869 143.319 903.869 148.689 Z" fill="#000000" fill-rule="nonzero" fill-opacity="1" /><path clip-path="url(#clip300)" d="M943.961 139.176 L943.961 143.203 Q942.156 142.277 940.211 141.815 Q938.267 141.352 936.184 141.352 Q933.012 141.352 931.415 142.324 Q929.841 143.296 929.841 145.24 Q929.841 146.722 930.975 147.578 Q932.109 148.412 935.535 149.176 L936.994 149.5 Q941.531 150.472 943.429 152.254 Q945.35 154.014 945.35 157.185 Q945.35 160.796 942.48 162.902 Q939.633 165.009 934.633 165.009 Q932.549 165.009 930.281 164.592 Q928.035 164.199 925.535 163.388 L925.535 158.99 Q927.897 160.217 930.188 160.842 Q932.48 161.444 934.725 161.444 Q937.734 161.444 939.355 160.426 Q940.975 159.384 940.975 157.509 Q940.975 155.773 939.795 154.847 Q938.637 153.921 934.679 153.064 L933.197 152.717 Q929.239 151.884 927.48 150.171 Q925.721 148.435 925.721 145.426 Q925.721 141.768 928.313 139.778 Q930.906 137.787 935.674 137.787 Q938.035 137.787 940.119 138.134 Q942.202 138.481 943.961 139.176 Z" fill="#000000" fill-rule="nonzero" fill-opacity="1" /><path clip-path="url(#clip300)" d="M972.318 143.389 Q973.915 140.518 976.137 139.153 Q978.359 137.787 981.368 137.787 Q985.419 137.787 987.618 140.634 Q989.817 143.458 989.817 148.689 L989.817 164.338 L985.535 164.338 L985.535 148.828 Q985.535 145.102 984.216 143.296 Q982.896 141.49 980.188 141.49 Q976.878 141.49 974.956 143.69 Q973.035 145.889 973.035 149.685 L973.035 164.338 L968.753 164.338 L968.753 148.828 Q968.753 145.078 967.433 143.296 Q966.114 141.49 963.359 141.49 Q960.095 141.49 958.174 143.713 Q956.253 145.912 956.253 149.685 L956.253 164.338 L951.97 164.338 L951.97 138.412 L956.253 138.412 L956.253 142.44 Q957.711 140.055 959.748 138.921 Q961.785 137.787 964.586 137.787 Q967.41 137.787 969.378 139.222 Q971.369 140.657 972.318 143.389 Z" fill="#000000" fill-rule="nonzero" fill-opacity="1" /><path clip-path="url(#clip300)" d="M1008.36 141.398 Q1004.93 141.398 1002.94 144.083 Q1000.95 146.745 1000.95 151.398 Q1000.95 156.051 1002.92 158.736 Q1004.91 161.398 1008.36 161.398 Q1011.76 161.398 1013.75 158.713 Q1015.74 156.027 1015.74 151.398 Q1015.74 146.791 1013.75 144.106 Q1011.76 141.398 1008.36 141.398 M1008.36 137.787 Q1013.91 137.787 1017.09 141.398 Q1020.26 145.009 1020.26 151.398 Q1020.26 157.764 1017.09 161.398 Q1013.91 165.009 1008.36 165.009 Q1002.78 165.009 999.609 161.398 Q996.461 157.764 996.461 151.398 Q996.461 145.009 999.609 141.398 Q1002.78 137.787 1008.36 137.787 Z" fill="#000000" fill-rule="nonzero" fill-opacity="1" /><path clip-path="url(#clip300)" d="M1037.36 141.398 Q1033.94 141.398 1031.95 144.083 Q1029.96 146.745 1029.96 151.398 Q1029.96 156.051 1031.92 158.736 Q1033.91 161.398 1037.36 161.398 Q1040.77 161.398 1042.76 158.713 Q1044.75 156.027 1044.75 151.398 Q1044.75 146.791 1042.76 144.106 Q1040.77 141.398 1037.36 141.398 M1037.36 137.787 Q1042.92 137.787 1046.09 141.398 Q1049.26 145.009 1049.26 151.398 Q1049.26 157.764 1046.09 161.398 Q1042.92 165.009 1037.36 165.009 Q1031.78 165.009 1028.61 161.398 Q1025.47 157.764 1025.47 151.398 Q1025.47 145.009 1028.61 141.398 Q1031.78 137.787 1037.36 137.787 Z" fill="#000000" fill-rule="nonzero" fill-opacity="1" /><path clip-path="url(#clip300)" d="M1060.53 131.051 L1060.53 138.412 L1069.31 138.412 L1069.31 141.722 L1060.53 141.722 L1060.53 155.796 Q1060.53 158.967 1061.39 159.87 Q1062.27 160.773 1064.93 160.773 L1069.31 160.773 L1069.31 164.338 L1064.93 164.338 Q1060 164.338 1058.13 162.509 Q1056.25 160.657 1056.25 155.796 L1056.25 141.722 L1053.13 141.722 L1053.13 138.412 L1056.25 138.412 L1056.25 131.051 L1060.53 131.051 Z" fill="#000000" fill-rule="nonzero" fill-opacity="1" /><path clip-path="url(#clip300)" d="M1096.46 148.689 L1096.46 164.338 L1092.2 164.338 L1092.2 148.828 Q1092.2 145.148 1090.77 143.319 Q1089.33 141.49 1086.46 141.49 Q1083.01 141.49 1081.02 143.69 Q1079.03 145.889 1079.03 149.685 L1079.03 164.338 L1074.75 164.338 L1074.75 128.319 L1079.03 128.319 L1079.03 142.44 Q1080.56 140.102 1082.62 138.944 Q1084.7 137.787 1087.41 137.787 Q1091.88 137.787 1094.17 140.565 Q1096.46 143.319 1096.46 148.689 Z" fill="#000000" fill-rule="nonzero" fill-opacity="1" /><polyline clip-path="url(#clip300)" style="stroke:#e26f46; stroke-linecap:round; stroke-linejoin:round; stroke-width:4; stroke-opacity:1; fill:none" points="661.374,198.898 724.307,198.898 "/>
<path clip-path="url(#clip300)" d="M739.078 212.289 L739.078 226.039 L734.796 226.039 L734.796 190.252 L739.078 190.252 L739.078 194.187 Q740.421 191.872 742.458 190.761 Q744.518 189.627 747.365 189.627 Q752.087 189.627 755.027 193.377 Q757.99 197.127 757.99 203.238 Q757.99 209.349 755.027 213.099 Q752.087 216.849 747.365 216.849 Q744.518 216.849 742.458 215.738 Q740.421 214.603 739.078 212.289 M753.569 203.238 Q753.569 198.539 751.624 195.877 Q749.703 193.192 746.323 193.192 Q742.944 193.192 740.999 195.877 Q739.078 198.539 739.078 203.238 Q739.078 207.937 740.999 210.622 Q742.944 213.284 746.323 213.284 Q749.703 213.284 751.624 210.622 Q753.569 207.937 753.569 203.238 Z" fill="#000000" fill-rule="nonzero" fill-opacity="1" /><path clip-path="url(#clip300)" d="M778.175 180.159 L778.175 183.701 L774.101 183.701 Q771.809 183.701 770.907 184.627 Q770.027 185.553 770.027 187.96 L770.027 190.252 L777.041 190.252 L777.041 193.562 L770.027 193.562 L770.027 216.178 L765.745 216.178 L765.745 193.562 L761.671 193.562 L761.671 190.252 L765.745 190.252 L765.745 188.446 Q765.745 184.118 767.758 182.15 Q769.772 180.159 774.147 180.159 L778.175 180.159 Z" fill="#000000" fill-rule="nonzero" fill-opacity="1" /><path clip-path="url(#clip300)" d="M813.337 191.016 L813.337 195.043 Q811.531 194.117 809.587 193.655 Q807.643 193.192 805.559 193.192 Q802.388 193.192 800.791 194.164 Q799.217 195.136 799.217 197.08 Q799.217 198.562 800.351 199.418 Q801.485 200.252 804.911 201.016 L806.369 201.34 Q810.906 202.312 812.805 204.094 Q814.726 205.854 814.726 209.025 Q814.726 212.636 811.855 214.742 Q809.008 216.849 804.008 216.849 Q801.925 216.849 799.656 216.432 Q797.411 216.039 794.911 215.228 L794.911 210.83 Q797.272 212.057 799.564 212.682 Q801.856 213.284 804.101 213.284 Q807.11 213.284 808.73 212.266 Q810.351 211.224 810.351 209.349 Q810.351 207.613 809.17 206.687 Q808.013 205.761 804.055 204.904 L802.573 204.557 Q798.615 203.724 796.856 202.011 Q795.096 200.275 795.096 197.266 Q795.096 193.608 797.689 191.618 Q800.281 189.627 805.05 189.627 Q807.411 189.627 809.494 189.974 Q811.578 190.321 813.337 191.016 Z" fill="#000000" fill-rule="nonzero" fill-opacity="1" /><path clip-path="url(#clip300)" d="M841.693 195.229 Q843.29 192.358 845.513 190.993 Q847.735 189.627 850.744 189.627 Q854.795 189.627 856.994 192.474 Q859.193 195.298 859.193 200.529 L859.193 216.178 L854.911 216.178 L854.911 200.668 Q854.911 196.942 853.591 195.136 Q852.272 193.33 849.564 193.33 Q846.253 193.33 844.332 195.53 Q842.411 197.729 842.411 201.525 L842.411 216.178 L838.128 216.178 L838.128 200.668 Q838.128 196.918 836.809 195.136 Q835.49 193.33 832.735 193.33 Q829.471 193.33 827.55 195.553 Q825.629 197.752 825.629 201.525 L825.629 216.178 L821.346 216.178 L821.346 190.252 L825.629 190.252 L825.629 194.28 Q827.087 191.895 829.124 190.761 Q831.161 189.627 833.962 189.627 Q836.786 189.627 838.753 191.062 Q840.744 192.497 841.693 195.229 Z" fill="#000000" fill-rule="nonzero" fill-opacity="1" /><path clip-path="url(#clip300)" d="M877.735 193.238 Q874.309 193.238 872.318 195.923 Q870.327 198.585 870.327 203.238 Q870.327 207.891 872.295 210.576 Q874.286 213.238 877.735 213.238 Q881.138 213.238 883.128 210.553 Q885.119 207.867 885.119 203.238 Q885.119 198.631 883.128 195.946 Q881.138 193.238 877.735 193.238 M877.735 189.627 Q883.29 189.627 886.462 193.238 Q889.633 196.849 889.633 203.238 Q889.633 209.604 886.462 213.238 Q883.29 216.849 877.735 216.849 Q872.156 216.849 868.985 213.238 Q865.837 209.604 865.837 203.238 Q865.837 196.849 868.985 193.238 Q872.156 189.627 877.735 189.627 Z" fill="#000000" fill-rule="nonzero" fill-opacity="1" /><path clip-path="url(#clip300)" d="M906.739 193.238 Q903.313 193.238 901.323 195.923 Q899.332 198.585 899.332 203.238 Q899.332 207.891 901.299 210.576 Q903.29 213.238 906.739 213.238 Q910.142 213.238 912.133 210.553 Q914.123 207.867 914.123 203.238 Q914.123 198.631 912.133 195.946 Q910.142 193.238 906.739 193.238 M906.739 189.627 Q912.295 189.627 915.466 193.238 Q918.637 196.849 918.637 203.238 Q918.637 209.604 915.466 213.238 Q912.295 216.849 906.739 216.849 Q901.161 216.849 897.989 213.238 Q894.841 209.604 894.841 203.238 Q894.841 196.849 897.989 193.238 Q901.161 189.627 906.739 189.627 Z" fill="#000000" fill-rule="nonzero" fill-opacity="1" /><path clip-path="url(#clip300)" d="M929.91 182.891 L929.91 190.252 L938.684 190.252 L938.684 193.562 L929.91 193.562 L929.91 207.636 Q929.91 210.807 930.767 211.71 Q931.647 212.613 934.309 212.613 L938.684 212.613 L938.684 216.178 L934.309 216.178 Q929.378 216.178 927.503 214.349 Q925.628 212.497 925.628 207.636 L925.628 193.562 L922.503 193.562 L922.503 190.252 L925.628 190.252 L925.628 182.891 L929.91 182.891 Z" fill="#000000" fill-rule="nonzero" fill-opacity="1" /><path clip-path="url(#clip300)" d="M965.836 200.529 L965.836 216.178 L961.577 216.178 L961.577 200.668 Q961.577 196.988 960.142 195.159 Q958.707 193.33 955.836 193.33 Q952.387 193.33 950.396 195.53 Q948.406 197.729 948.406 201.525 L948.406 216.178 L944.123 216.178 L944.123 180.159 L948.406 180.159 L948.406 194.28 Q949.933 191.942 951.994 190.784 Q954.077 189.627 956.785 189.627 Q961.253 189.627 963.544 192.405 Q965.836 195.159 965.836 200.529 Z" fill="#000000" fill-rule="nonzero" fill-opacity="1" /><polyline clip-path="url(#clip300)" style="stroke:#3da44d; stroke-linecap:round; stroke-linejoin:round; stroke-width:4; stroke-opacity:1; fill:none" points="661.374,250.738 724.307,250.738 "/>
<path clip-path="url(#clip300)" d="M742.203 234.731 L742.203 242.092 L750.976 242.092 L750.976 245.402 L742.203 245.402 L742.203 259.476 Q742.203 262.647 743.06 263.55 Q743.939 264.453 746.601 264.453 L750.976 264.453 L750.976 268.018 L746.601 268.018 Q741.671 268.018 739.796 266.189 Q737.921 264.337 737.921 259.476 L737.921 245.402 L734.796 245.402 L734.796 242.092 L737.921 242.092 L737.921 234.731 L742.203 234.731 Z" fill="#000000" fill-rule="nonzero" fill-opacity="1" /><path clip-path="url(#clip300)" d="M771.601 246.073 Q770.883 245.657 770.027 245.471 Q769.194 245.263 768.175 245.263 Q764.564 245.263 762.62 247.624 Q760.698 249.962 760.698 254.36 L760.698 268.018 L756.416 268.018 L756.416 242.092 L760.698 242.092 L760.698 246.12 Q762.041 243.758 764.194 242.624 Q766.346 241.467 769.425 241.467 Q769.865 241.467 770.397 241.536 Q770.93 241.583 771.578 241.698 L771.601 246.073 Z" fill="#000000" fill-rule="nonzero" fill-opacity="1" /><path clip-path="url(#clip300)" d="M775.629 257.786 L775.629 242.092 L779.888 242.092 L779.888 257.624 Q779.888 261.305 781.323 263.156 Q782.758 264.985 785.629 264.985 Q789.078 264.985 791.069 262.786 Q793.082 260.587 793.082 256.791 L793.082 242.092 L797.342 242.092 L797.342 268.018 L793.082 268.018 L793.082 264.036 Q791.532 266.397 789.471 267.555 Q787.434 268.689 784.726 268.689 Q780.258 268.689 777.944 265.911 Q775.629 263.133 775.629 257.786 M786.346 241.467 L786.346 241.467 Z" fill="#000000" fill-rule="nonzero" fill-opacity="1" /><path clip-path="url(#clip300)" d="M828.291 253.99 L828.291 256.073 L808.707 256.073 Q808.985 260.471 811.346 262.786 Q813.73 265.078 817.967 265.078 Q820.42 265.078 822.712 264.476 Q825.027 263.874 827.295 262.67 L827.295 266.698 Q825.004 267.67 822.596 268.18 Q820.189 268.689 817.712 268.689 Q811.508 268.689 807.874 265.078 Q804.263 261.467 804.263 255.309 Q804.263 248.944 807.689 245.217 Q811.138 241.467 816.971 241.467 Q822.203 241.467 825.235 244.846 Q828.291 248.203 828.291 253.99 M824.031 252.74 Q823.985 249.245 822.064 247.161 Q820.166 245.078 817.017 245.078 Q813.453 245.078 811.3 247.092 Q809.17 249.106 808.846 252.763 L824.031 252.74 Z" fill="#000000" fill-rule="nonzero" fill-opacity="1" /><path clip-path="url(#clip300)" d="M1408.76 1486.45 L2352.76 1486.45 L2352.76 47.2441 L1408.76 47.2441  Z" fill="#ffffff" fill-rule="evenodd" fill-opacity="1"/>
<defs>
  <clipPath id="clip303">
    <rect x="1408" y="47" width="945" height="1440"/>
  </clipPath>
</defs>
<polyline clip-path="url(#clip303)" style="stroke:#000000; stroke-linecap:round; stroke-linejoin:round; stroke-width:2; stroke-opacity:0.1; fill:none" points="1424.21,1486.45 1424.21,47.2441 "/>
<polyline clip-path="url(#clip303)" style="stroke:#000000; stroke-linecap:round; stroke-linejoin:round; stroke-width:2; stroke-opacity:0.1; fill:none" points="1649.66,1486.45 1649.66,47.2441 "/>
<polyline clip-path="url(#clip303)" style="stroke:#000000; stroke-linecap:round; stroke-linejoin:round; stroke-width:2; stroke-opacity:0.1; fill:none" points="1875.12,1486.45 1875.12,47.2441 "/>
<polyline clip-path="url(#clip303)" style="stroke:#000000; stroke-linecap:round; stroke-linejoin:round; stroke-width:2; stroke-opacity:0.1; fill:none" points="2100.58,1486.45 2100.58,47.2441 "/>
<polyline clip-path="url(#clip303)" style="stroke:#000000; stroke-linecap:round; stroke-linejoin:round; stroke-width:2; stroke-opacity:0.1; fill:none" points="2326.04,1486.45 2326.04,47.2441 "/>
<polyline clip-path="url(#clip303)" style="stroke:#000000; stroke-linecap:round; stroke-linejoin:round; stroke-width:2; stroke-opacity:0.1; fill:none" points="1408.76,1282.57 2352.76,1282.57 "/>
<polyline clip-path="url(#clip303)" style="stroke:#000000; stroke-linecap:round; stroke-linejoin:round; stroke-width:2; stroke-opacity:0.1; fill:none" points="1408.76,982.842 2352.76,982.842 "/>
<polyline clip-path="url(#clip303)" style="stroke:#000000; stroke-linecap:round; stroke-linejoin:round; stroke-width:2; stroke-opacity:0.1; fill:none" points="1408.76,683.117 2352.76,683.117 "/>
<polyline clip-path="url(#clip303)" style="stroke:#000000; stroke-linecap:round; stroke-linejoin:round; stroke-width:2; stroke-opacity:0.1; fill:none" points="1408.76,383.393 2352.76,383.393 "/>
<polyline clip-path="url(#clip303)" style="stroke:#000000; stroke-linecap:round; stroke-linejoin:round; stroke-width:2; stroke-opacity:0.1; fill:none" points="1408.76,83.6682 2352.76,83.6682 "/>
<polyline clip-path="url(#clip300)" style="stroke:#000000; stroke-linecap:round; stroke-linejoin:round; stroke-width:4; stroke-opacity:1; fill:none" points="1408.76,1486.45 2352.76,1486.45 "/>
<polyline clip-path="url(#clip300)" style="stroke:#000000; stroke-linecap:round; stroke-linejoin:round; stroke-width:4; stroke-opacity:1; fill:none" points="1424.21,1486.45 1424.21,1467.55 "/>
<polyline clip-path="url(#clip300)" style="stroke:#000000; stroke-linecap:round; stroke-linejoin:round; stroke-width:4; stroke-opacity:1; fill:none" points="1649.66,1486.45 1649.66,1467.55 "/>
<polyline clip-path="url(#clip300)" style="stroke:#000000; stroke-linecap:round; stroke-linejoin:round; stroke-width:4; stroke-opacity:1; fill:none" points="1875.12,1486.45 1875.12,1467.55 "/>
<polyline clip-path="url(#clip300)" style="stroke:#000000; stroke-linecap:round; stroke-linejoin:round; stroke-width:4; stroke-opacity:1; fill:none" points="2100.58,1486.45 2100.58,1467.55 "/>
<polyline clip-path="url(#clip300)" style="stroke:#000000; stroke-linecap:round; stroke-linejoin:round; stroke-width:4; stroke-opacity:1; fill:none" points="2326.04,1486.45 2326.04,1467.55 "/>
<path clip-path="url(#clip300)" d="M1424.21 1517.37 Q1420.6 1517.37 1418.77 1520.93 Q1416.96 1524.47 1416.96 1531.6 Q1416.96 1538.71 1418.77 1542.27 Q1420.6 1545.82 1424.21 1545.82 Q1427.84 1545.82 1429.65 1542.27 Q1431.47 1538.71 1431.47 1531.6 Q1431.47 1524.47 1429.65 1520.93 Q1427.84 1517.37 1424.21 1517.37 M1424.21 1513.66 Q1430.02 1513.66 1433.07 1518.27 Q1436.15 1522.85 1436.15 1531.6 Q1436.15 1540.33 1433.07 1544.94 Q1430.02 1549.52 1424.21 1549.52 Q1418.4 1549.52 1415.32 1544.94 Q1412.26 1540.33 1412.26 1531.6 Q1412.26 1522.85 1415.32 1518.27 Q1418.4 1513.66 1424.21 1513.66 Z" fill="#000000" fill-rule="nonzero" fill-opacity="1" /><path clip-path="url(#clip300)" d="M1628.44 1544.91 L1644.76 1544.91 L1644.76 1548.85 L1622.81 1548.85 L1622.81 1544.91 Q1625.47 1542.16 1630.06 1537.53 Q1634.66 1532.88 1635.85 1531.53 Q1638.09 1529.01 1638.97 1527.27 Q1639.87 1525.51 1639.87 1523.82 Q1639.87 1521.07 1637.93 1519.33 Q1636.01 1517.6 1632.91 1517.6 Q1630.71 1517.6 1628.25 1518.36 Q1625.82 1519.13 1623.04 1520.68 L1623.04 1515.95 Q1625.87 1514.82 1628.32 1514.24 Q1630.78 1513.66 1632.81 1513.66 Q1638.18 1513.66 1641.38 1516.35 Q1644.57 1519.03 1644.57 1523.52 Q1644.57 1525.65 1643.76 1527.57 Q1642.97 1529.47 1640.87 1532.07 Q1640.29 1532.74 1637.19 1535.95 Q1634.09 1539.15 1628.44 1544.91 Z" fill="#000000" fill-rule="nonzero" fill-opacity="1" /><path clip-path="url(#clip300)" d="M1664.57 1517.37 Q1660.96 1517.37 1659.13 1520.93 Q1657.33 1524.47 1657.33 1531.6 Q1657.33 1538.71 1659.13 1542.27 Q1660.96 1545.82 1664.57 1545.82 Q1668.21 1545.82 1670.01 1542.27 Q1671.84 1538.71 1671.84 1531.6 Q1671.84 1524.47 1670.01 1520.93 Q1668.21 1517.37 1664.57 1517.37 M1664.57 1513.66 Q1670.38 1513.66 1673.44 1518.27 Q1676.52 1522.85 1676.52 1531.6 Q1676.52 1540.33 1673.44 1544.94 Q1670.38 1549.52 1664.57 1549.52 Q1658.76 1549.52 1655.68 1544.94 Q1652.63 1540.33 1652.63 1531.6 Q1652.63 1522.85 1655.68 1518.27 Q1658.76 1513.66 1664.57 1513.66 Z" fill="#000000" fill-rule="nonzero" fill-opacity="1" /><path clip-path="url(#clip300)" d="M1863.29 1518.36 L1851.49 1536.81 L1863.29 1536.81 L1863.29 1518.36 M1862.07 1514.29 L1867.95 1514.29 L1867.95 1536.81 L1872.88 1536.81 L1872.88 1540.7 L1867.95 1540.7 L1867.95 1548.85 L1863.29 1548.85 L1863.29 1540.7 L1847.69 1540.7 L1847.69 1536.19 L1862.07 1514.29 Z" fill="#000000" fill-rule="nonzero" fill-opacity="1" /><path clip-path="url(#clip300)" d="M1890.61 1517.37 Q1887 1517.37 1885.17 1520.93 Q1883.36 1524.47 1883.36 1531.6 Q1883.36 1538.71 1885.17 1542.27 Q1887 1545.82 1890.61 1545.82 Q1894.24 1545.82 1896.05 1542.27 Q1897.88 1538.71 1897.88 1531.6 Q1897.88 1524.47 1896.05 1520.93 Q1894.24 1517.37 1890.61 1517.37 M1890.61 1513.66 Q1896.42 1513.66 1899.47 1518.27 Q1902.55 1522.85 1902.55 1531.6 Q1902.55 1540.33 1899.47 1544.94 Q1896.42 1549.52 1890.61 1549.52 Q1884.8 1549.52 1881.72 1544.94 Q1878.66 1540.33 1878.66 1531.6 Q1878.66 1522.85 1881.72 1518.27 Q1884.8 1513.66 1890.61 1513.66 Z" fill="#000000" fill-rule="nonzero" fill-opacity="1" /><path clip-path="url(#clip300)" d="M2085.99 1529.7 Q2082.84 1529.7 2080.99 1531.86 Q2079.16 1534.01 2079.16 1537.76 Q2079.16 1541.49 2080.99 1543.66 Q2082.84 1545.82 2085.99 1545.82 Q2089.13 1545.82 2090.96 1543.66 Q2092.81 1541.49 2092.81 1537.76 Q2092.81 1534.01 2090.96 1531.86 Q2089.13 1529.7 2085.99 1529.7 M2095.27 1515.05 L2095.27 1519.31 Q2093.51 1518.48 2091.7 1518.04 Q2089.92 1517.6 2088.16 1517.6 Q2083.53 1517.6 2081.08 1520.72 Q2078.65 1523.85 2078.3 1530.17 Q2079.67 1528.15 2081.73 1527.09 Q2083.79 1526 2086.26 1526 Q2091.47 1526 2094.48 1529.17 Q2097.51 1532.32 2097.51 1537.76 Q2097.51 1543.08 2094.37 1546.3 Q2091.22 1549.52 2085.99 1549.52 Q2079.99 1549.52 2076.82 1544.94 Q2073.65 1540.33 2073.65 1531.6 Q2073.65 1523.41 2077.54 1518.55 Q2081.43 1513.66 2087.98 1513.66 Q2089.74 1513.66 2091.52 1514.01 Q2093.32 1514.36 2095.27 1515.05 Z" fill="#000000" fill-rule="nonzero" fill-opacity="1" /><path clip-path="url(#clip300)" d="M2115.57 1517.37 Q2111.96 1517.37 2110.13 1520.93 Q2108.32 1524.47 2108.32 1531.6 Q2108.32 1538.71 2110.13 1542.27 Q2111.96 1545.82 2115.57 1545.82 Q2119.2 1545.82 2121.01 1542.27 Q2122.84 1538.71 2122.84 1531.6 Q2122.84 1524.47 2121.01 1520.93 Q2119.2 1517.37 2115.57 1517.37 M2115.57 1513.66 Q2121.38 1513.66 2124.43 1518.27 Q2127.51 1522.85 2127.51 1531.6 Q2127.51 1540.33 2124.43 1544.94 Q2121.38 1549.52 2115.57 1549.52 Q2109.76 1549.52 2106.68 1544.94 Q2103.62 1540.33 2103.62 1531.6 Q2103.62 1522.85 2106.68 1518.27 Q2109.76 1513.66 2115.57 1513.66 Z" fill="#000000" fill-rule="nonzero" fill-opacity="1" /><path clip-path="url(#clip300)" d="M2310.91 1532.44 Q2307.58 1532.44 2305.66 1534.22 Q2303.76 1536 2303.76 1539.13 Q2303.76 1542.25 2305.66 1544.03 Q2307.58 1545.82 2310.91 1545.82 Q2314.25 1545.82 2316.17 1544.03 Q2318.09 1542.23 2318.09 1539.13 Q2318.09 1536 2316.17 1534.22 Q2314.27 1532.44 2310.91 1532.44 M2306.24 1530.45 Q2303.23 1529.7 2301.54 1527.64 Q2299.87 1525.58 2299.87 1522.62 Q2299.87 1518.48 2302.81 1516.07 Q2305.77 1513.66 2310.91 1513.66 Q2316.07 1513.66 2319.01 1516.07 Q2321.95 1518.48 2321.95 1522.62 Q2321.95 1525.58 2320.26 1527.64 Q2318.6 1529.7 2315.61 1530.45 Q2318.99 1531.23 2320.87 1533.52 Q2322.76 1535.82 2322.76 1539.13 Q2322.76 1544.15 2319.68 1546.83 Q2316.63 1549.52 2310.91 1549.52 Q2305.19 1549.52 2302.12 1546.83 Q2299.06 1544.15 2299.06 1539.13 Q2299.06 1535.82 2300.96 1533.52 Q2302.86 1531.23 2306.24 1530.45 M2304.52 1523.06 Q2304.52 1525.75 2306.19 1527.25 Q2307.88 1528.76 2310.91 1528.76 Q2313.92 1528.76 2315.61 1527.25 Q2317.32 1525.75 2317.32 1523.06 Q2317.32 1520.38 2315.61 1518.87 Q2313.92 1517.37 2310.91 1517.37 Q2307.88 1517.37 2306.19 1518.87 Q2304.52 1520.38 2304.52 1523.06 Z" fill="#000000" fill-rule="nonzero" fill-opacity="1" /><path clip-path="url(#clip300)" d="M2341.07 1517.37 Q2337.46 1517.37 2335.63 1520.93 Q2333.83 1524.47 2333.83 1531.6 Q2333.83 1538.71 2335.63 1542.27 Q2337.46 1545.82 2341.07 1545.82 Q2344.71 1545.82 2346.51 1542.27 Q2348.34 1538.71 2348.34 1531.6 Q2348.34 1524.47 2346.51 1520.93 Q2344.71 1517.37 2341.07 1517.37 M2341.07 1513.66 Q2346.88 1513.66 2349.94 1518.27 Q2353.02 1522.85 2353.02 1531.6 Q2353.02 1540.33 2349.94 1544.94 Q2346.88 1549.52 2341.07 1549.52 Q2335.26 1549.52 2332.18 1544.94 Q2329.13 1540.33 2329.13 1531.6 Q2329.13 1522.85 2332.18 1518.27 Q2335.26 1513.66 2341.07 1513.66 Z" fill="#000000" fill-rule="nonzero" fill-opacity="1" /><polyline clip-path="url(#clip300)" style="stroke:#000000; stroke-linecap:round; stroke-linejoin:round; stroke-width:4; stroke-opacity:1; fill:none" points="1408.76,1486.45 1408.76,47.2441 "/>
<polyline clip-path="url(#clip300)" style="stroke:#000000; stroke-linecap:round; stroke-linejoin:round; stroke-width:4; stroke-opacity:1; fill:none" points="1408.76,1282.57 1427.66,1282.57 "/>
<polyline clip-path="url(#clip300)" style="stroke:#000000; stroke-linecap:round; stroke-linejoin:round; stroke-width:4; stroke-opacity:1; fill:none" points="1408.76,982.842 1427.66,982.842 "/>
<polyline clip-path="url(#clip300)" style="stroke:#000000; stroke-linecap:round; stroke-linejoin:round; stroke-width:4; stroke-opacity:1; fill:none" points="1408.76,683.117 1427.66,683.117 "/>
<polyline clip-path="url(#clip300)" style="stroke:#000000; stroke-linecap:round; stroke-linejoin:round; stroke-width:4; stroke-opacity:1; fill:none" points="1408.76,383.393 1427.66,383.393 "/>
<polyline clip-path="url(#clip300)" style="stroke:#000000; stroke-linecap:round; stroke-linejoin:round; stroke-width:4; stroke-opacity:1; fill:none" points="1408.76,83.6682 1427.66,83.6682 "/>
<path clip-path="url(#clip300)" d="M1236.65 1283.02 L1266.33 1283.02 L1266.33 1286.95 L1236.65 1286.95 L1236.65 1283.02 Z" fill="#000000" fill-rule="nonzero" fill-opacity="1" /><path clip-path="url(#clip300)" d="M1286.42 1268.36 Q1282.81 1268.36 1280.98 1271.93 Q1279.17 1275.47 1279.17 1282.6 Q1279.17 1289.71 1280.98 1293.27 Q1282.81 1296.81 1286.42 1296.81 Q1290.05 1296.81 1291.86 1293.27 Q1293.69 1289.71 1293.69 1282.6 Q1293.69 1275.47 1291.86 1271.93 Q1290.05 1268.36 1286.42 1268.36 M1286.42 1264.66 Q1292.23 1264.66 1295.29 1269.27 Q1298.36 1273.85 1298.36 1282.6 Q1298.36 1291.33 1295.29 1295.93 Q1292.23 1300.52 1286.42 1300.52 Q1280.61 1300.52 1277.53 1295.93 Q1274.48 1291.33 1274.48 1282.6 Q1274.48 1273.85 1277.53 1269.27 Q1280.61 1264.66 1286.42 1264.66 Z" fill="#000000" fill-rule="nonzero" fill-opacity="1" /><path clip-path="url(#clip300)" d="M1306.58 1293.97 L1311.47 1293.97 L1311.47 1299.85 L1306.58 1299.85 L1306.58 1293.97 Z" fill="#000000" fill-rule="nonzero" fill-opacity="1" /><path clip-path="url(#clip300)" d="M1325.68 1295.91 L1342 1295.91 L1342 1299.85 L1320.05 1299.85 L1320.05 1295.91 Q1322.72 1293.16 1327.3 1288.53 Q1331.91 1283.87 1333.09 1282.53 Q1335.33 1280.01 1336.21 1278.27 Q1337.11 1276.51 1337.11 1274.82 Q1337.11 1272.07 1335.17 1270.33 Q1333.25 1268.6 1330.15 1268.6 Q1327.95 1268.6 1325.49 1269.36 Q1323.06 1270.12 1320.29 1271.67 L1320.29 1266.95 Q1323.11 1265.82 1325.56 1265.24 Q1328.02 1264.66 1330.05 1264.66 Q1335.42 1264.66 1338.62 1267.35 Q1341.81 1270.03 1341.81 1274.52 Q1341.81 1276.65 1341 1278.57 Q1340.22 1280.47 1338.11 1283.06 Q1337.53 1283.74 1334.43 1286.95 Q1331.33 1290.15 1325.68 1295.91 Z" fill="#000000" fill-rule="nonzero" fill-opacity="1" /><path clip-path="url(#clip300)" d="M1351.86 1265.29 L1370.22 1265.29 L1370.22 1269.22 L1356.14 1269.22 L1356.14 1277.69 Q1357.16 1277.35 1358.18 1277.18 Q1359.2 1277 1360.22 1277 Q1366 1277 1369.38 1280.17 Q1372.76 1283.34 1372.76 1288.76 Q1372.76 1294.34 1369.29 1297.44 Q1365.82 1300.52 1359.5 1300.52 Q1357.32 1300.52 1355.05 1300.15 Q1352.81 1299.78 1350.4 1299.04 L1350.4 1294.34 Q1352.48 1295.47 1354.71 1296.03 Q1356.93 1296.58 1359.41 1296.58 Q1363.41 1296.58 1365.75 1294.48 Q1368.09 1292.37 1368.09 1288.76 Q1368.09 1285.15 1365.75 1283.04 Q1363.41 1280.93 1359.41 1280.93 Q1357.53 1280.93 1355.66 1281.35 Q1353.8 1281.77 1351.86 1282.65 L1351.86 1265.29 Z" fill="#000000" fill-rule="nonzero" fill-opacity="1" /><path clip-path="url(#clip300)" d="M1285.42 968.64 Q1281.81 968.64 1279.99 972.205 Q1278.18 975.747 1278.18 982.876 Q1278.18 989.983 1279.99 993.548 Q1281.81 997.089 1285.42 997.089 Q1289.06 997.089 1290.86 993.548 Q1292.69 989.983 1292.69 982.876 Q1292.69 975.747 1290.86 972.205 Q1289.06 968.64 1285.42 968.64 M1285.42 964.937 Q1291.23 964.937 1294.29 969.543 Q1297.37 974.126 1297.37 982.876 Q1297.37 991.603 1294.29 996.21 Q1291.23 1000.79 1285.42 1000.79 Q1279.61 1000.79 1276.54 996.21 Q1273.48 991.603 1273.48 982.876 Q1273.48 974.126 1276.54 969.543 Q1279.61 964.937 1285.42 964.937 Z" fill="#000000" fill-rule="nonzero" fill-opacity="1" /><path clip-path="url(#clip300)" d="M1305.59 994.242 L1310.47 994.242 L1310.47 1000.12 L1305.59 1000.12 L1305.59 994.242 Z" fill="#000000" fill-rule="nonzero" fill-opacity="1" /><path clip-path="url(#clip300)" d="M1330.66 968.64 Q1327.04 968.64 1325.22 972.205 Q1323.41 975.747 1323.41 982.876 Q1323.41 989.983 1325.22 993.548 Q1327.04 997.089 1330.66 997.089 Q1334.29 997.089 1336.1 993.548 Q1337.92 989.983 1337.92 982.876 Q1337.92 975.747 1336.1 972.205 Q1334.29 968.64 1330.66 968.64 M1330.66 964.937 Q1336.47 964.937 1339.52 969.543 Q1342.6 974.126 1342.6 982.876 Q1342.6 991.603 1339.52 996.21 Q1336.47 1000.79 1330.66 1000.79 Q1324.85 1000.79 1321.77 996.21 Q1318.71 991.603 1318.71 982.876 Q1318.71 974.126 1321.77 969.543 Q1324.85 964.937 1330.66 964.937 Z" fill="#000000" fill-rule="nonzero" fill-opacity="1" /><path clip-path="url(#clip300)" d="M1360.82 968.64 Q1357.21 968.64 1355.38 972.205 Q1353.57 975.747 1353.57 982.876 Q1353.57 989.983 1355.38 993.548 Q1357.21 997.089 1360.82 997.089 Q1364.45 997.089 1366.26 993.548 Q1368.09 989.983 1368.09 982.876 Q1368.09 975.747 1366.26 972.205 Q1364.45 968.64 1360.82 968.64 M1360.82 964.937 Q1366.63 964.937 1369.68 969.543 Q1372.76 974.126 1372.76 982.876 Q1372.76 991.603 1369.68 996.21 Q1366.63 1000.79 1360.82 1000.79 Q1355.01 1000.79 1351.93 996.21 Q1348.87 991.603 1348.87 982.876 Q1348.87 974.126 1351.93 969.543 Q1355.01 964.937 1360.82 964.937 Z" fill="#000000" fill-rule="nonzero" fill-opacity="1" /><path clip-path="url(#clip300)" d="M1286.42 668.916 Q1282.81 668.916 1280.98 672.481 Q1279.17 676.022 1279.17 683.152 Q1279.17 690.258 1280.98 693.823 Q1282.81 697.365 1286.42 697.365 Q1290.05 697.365 1291.86 693.823 Q1293.69 690.258 1293.69 683.152 Q1293.69 676.022 1291.86 672.481 Q1290.05 668.916 1286.42 668.916 M1286.42 665.212 Q1292.23 665.212 1295.29 669.819 Q1298.36 674.402 1298.36 683.152 Q1298.36 691.879 1295.29 696.485 Q1292.23 701.068 1286.42 701.068 Q1280.61 701.068 1277.53 696.485 Q1274.48 691.879 1274.48 683.152 Q1274.48 674.402 1277.53 669.819 Q1280.61 665.212 1286.42 665.212 Z" fill="#000000" fill-rule="nonzero" fill-opacity="1" /><path clip-path="url(#clip300)" d="M1306.58 694.518 L1311.47 694.518 L1311.47 700.397 L1306.58 700.397 L1306.58 694.518 Z" fill="#000000" fill-rule="nonzero" fill-opacity="1" /><path clip-path="url(#clip300)" d="M1325.68 696.462 L1342 696.462 L1342 700.397 L1320.05 700.397 L1320.05 696.462 Q1322.72 693.707 1327.3 689.078 Q1331.91 684.425 1333.09 683.082 Q1335.33 680.559 1336.21 678.823 Q1337.11 677.064 1337.11 675.374 Q1337.11 672.62 1335.17 670.883 Q1333.25 669.147 1330.15 669.147 Q1327.95 669.147 1325.49 669.911 Q1323.06 670.675 1320.29 672.226 L1320.29 667.504 Q1323.11 666.37 1325.56 665.791 Q1328.02 665.212 1330.05 665.212 Q1335.42 665.212 1338.62 667.897 Q1341.81 670.582 1341.81 675.073 Q1341.81 677.203 1341 679.124 Q1340.22 681.022 1338.11 683.615 Q1337.53 684.286 1334.43 687.504 Q1331.33 690.698 1325.68 696.462 Z" fill="#000000" fill-rule="nonzero" fill-opacity="1" /><path clip-path="url(#clip300)" d="M1351.86 665.837 L1370.22 665.837 L1370.22 669.772 L1356.14 669.772 L1356.14 678.244 Q1357.16 677.897 1358.18 677.735 Q1359.2 677.55 1360.22 677.55 Q1366 677.55 1369.38 680.721 Q1372.76 683.893 1372.76 689.309 Q1372.76 694.888 1369.29 697.99 Q1365.82 701.068 1359.5 701.068 Q1357.32 701.068 1355.05 700.698 Q1352.81 700.328 1350.4 699.587 L1350.4 694.888 Q1352.48 696.022 1354.71 696.578 Q1356.93 697.133 1359.41 697.133 Q1363.41 697.133 1365.75 695.027 Q1368.09 692.92 1368.09 689.309 Q1368.09 685.698 1365.75 683.592 Q1363.41 681.485 1359.41 681.485 Q1357.53 681.485 1355.66 681.902 Q1353.8 682.319 1351.86 683.198 L1351.86 665.837 Z" fill="#000000" fill-rule="nonzero" fill-opacity="1" /><path clip-path="url(#clip300)" d="M1285.42 369.191 Q1281.81 369.191 1279.99 372.756 Q1278.18 376.298 1278.18 383.427 Q1278.18 390.534 1279.99 394.099 Q1281.81 397.64 1285.42 397.64 Q1289.06 397.64 1290.86 394.099 Q1292.69 390.534 1292.69 383.427 Q1292.69 376.298 1290.86 372.756 Q1289.06 369.191 1285.42 369.191 M1285.42 365.488 Q1291.23 365.488 1294.29 370.094 Q1297.37 374.677 1297.37 383.427 Q1297.37 392.154 1294.29 396.761 Q1291.23 401.344 1285.42 401.344 Q1279.61 401.344 1276.54 396.761 Q1273.48 392.154 1273.48 383.427 Q1273.48 374.677 1276.54 370.094 Q1279.61 365.488 1285.42 365.488 Z" fill="#000000" fill-rule="nonzero" fill-opacity="1" /><path clip-path="url(#clip300)" d="M1305.59 394.793 L1310.47 394.793 L1310.47 400.673 L1305.59 400.673 L1305.59 394.793 Z" fill="#000000" fill-rule="nonzero" fill-opacity="1" /><path clip-path="url(#clip300)" d="M1320.7 366.113 L1339.06 366.113 L1339.06 370.048 L1324.98 370.048 L1324.98 378.52 Q1326 378.173 1327.02 378.011 Q1328.04 377.826 1329.06 377.826 Q1334.85 377.826 1338.23 380.997 Q1341.61 384.168 1341.61 389.585 Q1341.61 395.163 1338.13 398.265 Q1334.66 401.344 1328.34 401.344 Q1326.17 401.344 1323.9 400.974 Q1321.65 400.603 1319.24 399.862 L1319.24 395.163 Q1321.33 396.298 1323.55 396.853 Q1325.77 397.409 1328.25 397.409 Q1332.25 397.409 1334.59 395.302 Q1336.93 393.196 1336.93 389.585 Q1336.93 385.974 1334.59 383.867 Q1332.25 381.761 1328.25 381.761 Q1326.37 381.761 1324.5 382.177 Q1322.65 382.594 1320.7 383.474 L1320.7 366.113 Z" fill="#000000" fill-rule="nonzero" fill-opacity="1" /><path clip-path="url(#clip300)" d="M1360.82 369.191 Q1357.21 369.191 1355.38 372.756 Q1353.57 376.298 1353.57 383.427 Q1353.57 390.534 1355.38 394.099 Q1357.21 397.64 1360.82 397.64 Q1364.45 397.64 1366.26 394.099 Q1368.09 390.534 1368.09 383.427 Q1368.09 376.298 1366.26 372.756 Q1364.45 369.191 1360.82 369.191 M1360.82 365.488 Q1366.63 365.488 1369.68 370.094 Q1372.76 374.677 1372.76 383.427 Q1372.76 392.154 1369.68 396.761 Q1366.63 401.344 1360.82 401.344 Q1355.01 401.344 1351.93 396.761 Q1348.87 392.154 1348.87 383.427 Q1348.87 374.677 1351.93 370.094 Q1355.01 365.488 1360.82 365.488 Z" fill="#000000" fill-rule="nonzero" fill-opacity="1" /><path clip-path="url(#clip300)" d="M1286.42 69.4669 Q1282.81 69.4669 1280.98 73.0317 Q1279.17 76.5733 1279.17 83.7029 Q1279.17 90.8093 1280.98 94.3741 Q1282.81 97.9158 1286.42 97.9158 Q1290.05 97.9158 1291.86 94.3741 Q1293.69 90.8093 1293.69 83.7029 Q1293.69 76.5733 1291.86 73.0317 Q1290.05 69.4669 1286.42 69.4669 M1286.42 65.7632 Q1292.23 65.7632 1295.29 70.3696 Q1298.36 74.9529 1298.36 83.7029 Q1298.36 92.4297 1295.29 97.0362 Q1292.23 101.619 1286.42 101.619 Q1280.61 101.619 1277.53 97.0362 Q1274.48 92.4297 1274.48 83.7029 Q1274.48 74.9529 1277.53 70.3696 Q1280.61 65.7632 1286.42 65.7632 Z" fill="#000000" fill-rule="nonzero" fill-opacity="1" /><path clip-path="url(#clip300)" d="M1306.58 95.0686 L1311.47 95.0686 L1311.47 100.948 L1306.58 100.948 L1306.58 95.0686 Z" fill="#000000" fill-rule="nonzero" fill-opacity="1" /><path clip-path="url(#clip300)" d="M1320.47 66.3882 L1342.69 66.3882 L1342.69 68.3789 L1330.15 100.948 L1325.26 100.948 L1337.07 70.3233 L1320.47 70.3233 L1320.47 66.3882 Z" fill="#000000" fill-rule="nonzero" fill-opacity="1" /><path clip-path="url(#clip300)" d="M1351.86 66.3882 L1370.22 66.3882 L1370.22 70.3233 L1356.14 70.3233 L1356.14 78.7955 Q1357.16 78.4483 1358.18 78.2863 Q1359.2 78.1011 1360.22 78.1011 Q1366 78.1011 1369.38 81.2723 Q1372.76 84.4436 1372.76 89.8603 Q1372.76 95.4389 1369.29 98.5408 Q1365.82 101.619 1359.5 101.619 Q1357.32 101.619 1355.05 101.249 Q1352.81 100.879 1350.4 100.138 L1350.4 95.4389 Q1352.48 96.5732 1354.71 97.1287 Q1356.93 97.6843 1359.41 97.6843 Q1363.41 97.6843 1365.75 95.5778 Q1368.09 93.4714 1368.09 89.8603 Q1368.09 86.2492 1365.75 84.1427 Q1363.41 82.0362 1359.41 82.0362 Q1357.53 82.0362 1355.66 82.4529 Q1353.8 82.8696 1351.86 83.7492 L1351.86 66.3882 Z" fill="#000000" fill-rule="nonzero" fill-opacity="1" /><polyline clip-path="url(#clip303)" style="stroke:#009af9; stroke-linecap:round; stroke-linejoin:round; stroke-width:4; stroke-opacity:1; fill:none" points="1435.48,1426.59 1446.75,1384.75 1458.02,1293.63 1469.3,1208.81 1480.57,1094.65 1491.84,1067.67 1503.12,995.71 1514.39,860.89 1525.66,808.213 1536.94,781.876 1548.21,807.537 1559.48,755.182 1570.75,716.716 1582.03,716.749 1593.3,732.778 1604.57,778.941 1615.85,783.831 1627.12,797.209 1638.39,789.971 1649.66,777.855 1660.94,724.603 1672.21,627.182 1683.48,615.858 1694.76,642.535 1706.03,689.198 1717.3,675.63 1728.57,661.34 1739.85,677.017 1751.12,659.102 1762.39,652.162 1773.67,781.528 1784.94,896.877 1796.21,1007.72 1807.49,1059.98 1818.76,1007.55 1830.03,916.073 1841.3,855.798 1852.58,840.865 1863.85,845.226 1875.12,841.005 1886.4,854.965 1897.67,804.247 1908.94,744.695 1920.21,691.629 1931.49,654.159 1942.76,523.03 1954.03,458.703 1965.31,363.271 1976.58,260.932 1987.85,176.551 1999.12,118.412 2010.4,149.34 2021.67,235.739 2032.94,260.388 2044.22,216.715 2055.49,258.306 2066.76,314.096 2078.04,453.547 2089.31,620.163 2100.58,705.562 2111.85,745.569 2123.13,757.503 2134.4,755.732 2145.67,708.005 2156.95,674.362 2168.22,558.719 2179.49,535.197 2190.76,508.436 2202.04,477.096 2213.31,449.751 2224.58,521.111 2235.86,554.843 2247.13,641.258 2258.4,709.928 2269.67,727.803 2280.95,797.069 2292.22,736.697 2303.49,757.033 2314.77,761.469 2326.04,866.356 "/>
<polyline clip-path="url(#clip303)" style="stroke:#e26f46; stroke-linecap:round; stroke-linejoin:round; stroke-width:4; stroke-opacity:1; fill:none" points="1435.48,1445.72 1446.75,1408.46 1458.02,1299.16 1469.3,1208.18 1480.57,1092.32 1491.84,1072.43 1503.12,1015.93 1514.39,890.738 1525.66,827.627 1536.94,793.653 1548.21,835.474 1559.48,762.679 1570.75,711.803 1582.03,715.115 1593.3,725.798 1604.57,763.121 1615.85,790.031 1627.12,808.2 1638.39,787.72 1649.66,769.028 1660.94,727.642 1672.21,635.035 1683.48,599.909 1694.76,659.039 1706.03,698.526 1717.3,683.428 1728.57,671.914 1739.85,686.092 1751.12,666.087 1762.39,643.301 1773.67,746.468 1784.94,871.906 1796.21,984.944 1807.49,1035.87 1818.76,983.761 1830.03,907.447 1841.3,851.414 1852.58,847.182 1863.85,864.539 1875.12,855.508 1886.4,871.896 1897.67,798.739 1908.94,733.35 1920.21,680.305 1931.49,633.678 1942.76,525.243 1954.03,433.869 1965.31,331.967 1976.58,230.168 1987.85,147.421 1999.12,87.9763 2010.4,119.482 2021.67,211.434 2032.94,249.417 2044.22,209.671 2055.49,256.485 2066.76,314.999 2078.04,440.795 2089.31,602.554 2100.58,691.794 2111.85,737.12 2123.13,756.515 2134.4,767.623 2145.67,706.943 2156.95,660.787 2168.22,523.746 2179.49,490.982 2190.76,484.864 2202.04,453.241 2213.31,429.494 2224.58,490.914 2235.86,524.73 2247.13,615.166 2258.4,683.477 2269.67,706.847 2280.95,790.028 2292.22,741.484 2303.49,744.729 2314.77,768.167 2326.04,864.831 "/>
<polyline clip-path="url(#clip303)" style="stroke:#3da44d; stroke-linecap:round; stroke-linejoin:round; stroke-width:4; stroke-opacity:1; fill:none" points="1435.48,1213.3 1446.75,1149.11 1458.02,1098.24 1469.3,1214.35 1480.57,1218.65 1491.84,1251.76 1503.12,986.699 1514.39,646.458 1525.66,857.996 1536.94,890.587 1548.21,853.949 1559.48,763.346 1570.75,718.792 1582.03,621.042 1593.3,706.688 1604.57,623.602 1615.85,616.15 1627.12,735.496 1638.39,1132.82 1649.66,856.967 1660.94,661.188 1672.21,512.48 1683.48,352.278 1694.76,344.18 1706.03,580.506 1717.3,711.239 1728.57,664.655 1739.85,707.415 1751.12,652.956 1762.39,723.676 1773.67,845.706 1784.94,949.22 1796.21,1068.58 1807.49,1038.9 1818.76,1120.53 1830.03,870.647 1841.3,547.517 1852.58,658.028 1863.85,776.858 1875.12,821.41 1886.4,820.779 1897.67,855.169 1908.94,730.724 1920.21,594.227 1931.49,515.698 1942.76,319.37 1954.03,467.829 1965.31,401.207 1976.58,200.923 1987.85,236.919 1999.12,173.458 2010.4,212.31 2021.67,120.768 2032.94,192.66 2044.22,120.183 2055.49,247.335 2066.76,500.236 2078.04,630.394 2089.31,945.775 2100.58,1003.18 2111.85,1025.23 2123.13,1056.73 2134.4,884.446 2145.67,822.067 2156.95,717.963 2168.22,581.272 2179.49,562.05 2190.76,513.72 2202.04,456.1 2213.31,364.583 2224.58,457.512 2235.86,395.11 2247.13,559.263 2258.4,582.302 2269.67,659.662 2280.95,662.021 2292.22,601.023 2303.49,714.779 2314.77,897.934 2326.04,1026.75 "/>
<path clip-path="url(#clip300)" d="M1440.23 302.578 L1896.29 302.578 L1896.29 95.2176 L1440.23 95.2176  Z" fill="#ffffff" fill-rule="evenodd" fill-opacity="1"/>
<polyline clip-path="url(#clip300)" style="stroke:#000000; stroke-linecap:round; stroke-linejoin:round; stroke-width:4; stroke-opacity:1; fill:none" points="1440.23,302.578 1896.29,302.578 1896.29,95.2176 1440.23,95.2176 1440.23,302.578 "/>
<polyline clip-path="url(#clip300)" style="stroke:#009af9; stroke-linecap:round; stroke-linejoin:round; stroke-width:4; stroke-opacity:1; fill:none" points="1450.72,147.058 1513.65,147.058 "/>
<path clip-path="url(#clip300)" d="M1524.14 129.778 L1528.82 129.778 L1528.82 144.384 L1544.32 129.778 L1550.34 129.778 L1533.19 145.889 L1551.57 164.338 L1545.41 164.338 L1528.82 147.694 L1528.82 164.338 L1524.14 164.338 L1524.14 129.778 Z" fill="#000000" fill-rule="nonzero" fill-opacity="1" /><path clip-path="url(#clip300)" d="M1565.99 151.305 Q1560.83 151.305 1558.84 152.486 Q1556.85 153.666 1556.85 156.514 Q1556.85 158.782 1558.33 160.125 Q1559.83 161.444 1562.4 161.444 Q1565.94 161.444 1568.07 158.944 Q1570.23 156.421 1570.23 152.254 L1570.23 151.305 L1565.99 151.305 M1574.49 149.546 L1574.49 164.338 L1570.23 164.338 L1570.23 160.402 Q1568.77 162.763 1566.59 163.898 Q1564.42 165.009 1561.27 165.009 Q1557.29 165.009 1554.93 162.787 Q1552.59 160.541 1552.59 156.791 Q1552.59 152.416 1555.5 150.194 Q1558.44 147.972 1564.25 147.972 L1570.23 147.972 L1570.23 147.555 Q1570.23 144.615 1568.28 143.018 Q1566.36 141.398 1562.87 141.398 Q1560.64 141.398 1558.54 141.93 Q1556.43 142.463 1554.49 143.527 L1554.49 139.592 Q1556.82 138.69 1559.02 138.25 Q1561.22 137.787 1563.31 137.787 Q1568.93 137.787 1571.71 140.703 Q1574.49 143.62 1574.49 149.546 Z" fill="#000000" fill-rule="nonzero" fill-opacity="1" /><path clip-path="url(#clip300)" d="M1583.26 128.319 L1587.52 128.319 L1587.52 164.338 L1583.26 164.338 L1583.26 128.319 Z" fill="#000000" fill-rule="nonzero" fill-opacity="1" /><path clip-path="url(#clip300)" d="M1616.62 143.389 Q1618.21 140.518 1620.44 139.153 Q1622.66 137.787 1625.67 137.787 Q1629.72 137.787 1631.92 140.634 Q1634.12 143.458 1634.12 148.689 L1634.12 164.338 L1629.83 164.338 L1629.83 148.828 Q1629.83 145.102 1628.51 143.296 Q1627.19 141.49 1624.49 141.49 Q1621.18 141.49 1619.25 143.69 Q1617.33 145.889 1617.33 149.685 L1617.33 164.338 L1613.05 164.338 L1613.05 148.828 Q1613.05 145.078 1611.73 143.296 Q1610.41 141.49 1607.66 141.49 Q1604.39 141.49 1602.47 143.713 Q1600.55 145.912 1600.55 149.685 L1600.55 164.338 L1596.27 164.338 L1596.27 138.412 L1600.55 138.412 L1600.55 142.44 Q1602.01 140.055 1604.05 138.921 Q1606.08 137.787 1608.88 137.787 Q1611.71 137.787 1613.68 139.222 Q1615.67 140.657 1616.62 143.389 Z" fill="#000000" fill-rule="nonzero" fill-opacity="1" /><path clip-path="url(#clip300)" d="M1654.39 151.305 Q1649.23 151.305 1647.24 152.486 Q1645.25 153.666 1645.25 156.514 Q1645.25 158.782 1646.73 160.125 Q1648.24 161.444 1650.81 161.444 Q1654.35 161.444 1656.48 158.944 Q1658.63 156.421 1658.63 152.254 L1658.63 151.305 L1654.39 151.305 M1662.89 149.546 L1662.89 164.338 L1658.63 164.338 L1658.63 160.402 Q1657.17 162.763 1655 163.898 Q1652.82 165.009 1649.67 165.009 Q1645.69 165.009 1643.33 162.787 Q1640.99 160.541 1640.99 156.791 Q1640.99 152.416 1643.91 150.194 Q1646.85 147.972 1652.66 147.972 L1658.63 147.972 L1658.63 147.555 Q1658.63 144.615 1656.68 143.018 Q1654.76 141.398 1651.27 141.398 Q1649.05 141.398 1646.94 141.93 Q1644.83 142.463 1642.89 143.527 L1642.89 139.592 Q1645.23 138.69 1647.43 138.25 Q1649.62 137.787 1651.71 137.787 Q1657.33 137.787 1660.11 140.703 Q1662.89 143.62 1662.89 149.546 Z" fill="#000000" fill-rule="nonzero" fill-opacity="1" /><path clip-path="url(#clip300)" d="M1693.21 148.689 L1693.21 164.338 L1688.95 164.338 L1688.95 148.828 Q1688.95 145.148 1687.52 143.319 Q1686.08 141.49 1683.21 141.49 Q1679.76 141.49 1677.77 143.69 Q1675.78 145.889 1675.78 149.685 L1675.78 164.338 L1671.5 164.338 L1671.5 138.412 L1675.78 138.412 L1675.78 142.44 Q1677.31 140.102 1679.37 138.944 Q1681.45 137.787 1684.16 137.787 Q1688.63 137.787 1690.92 140.565 Q1693.21 143.319 1693.21 148.689 Z" fill="#000000" fill-rule="nonzero" fill-opacity="1" /><path clip-path="url(#clip300)" d="M1733.3 139.176 L1733.3 143.203 Q1731.5 142.277 1729.55 141.815 Q1727.61 141.352 1725.53 141.352 Q1722.36 141.352 1720.76 142.324 Q1719.18 143.296 1719.18 145.24 Q1719.18 146.722 1720.32 147.578 Q1721.45 148.412 1724.88 149.176 L1726.34 149.5 Q1730.87 150.472 1732.77 152.254 Q1734.69 154.014 1734.69 157.185 Q1734.69 160.796 1731.82 162.902 Q1728.98 165.009 1723.98 165.009 Q1721.89 165.009 1719.62 164.592 Q1717.38 164.199 1714.88 163.388 L1714.88 158.99 Q1717.24 160.217 1719.53 160.842 Q1721.82 161.444 1724.07 161.444 Q1727.08 161.444 1728.7 160.426 Q1730.32 159.384 1730.32 157.509 Q1730.32 155.773 1729.14 154.847 Q1727.98 153.921 1724.02 153.064 L1722.54 152.717 Q1718.58 151.884 1716.82 150.171 Q1715.06 148.435 1715.06 145.426 Q1715.06 141.768 1717.66 139.778 Q1720.25 137.787 1725.02 137.787 Q1727.38 137.787 1729.46 138.134 Q1731.55 138.481 1733.3 139.176 Z" fill="#000000" fill-rule="nonzero" fill-opacity="1" /><path clip-path="url(#clip300)" d="M1761.66 143.389 Q1763.26 140.518 1765.48 139.153 Q1767.7 137.787 1770.71 137.787 Q1774.76 137.787 1776.96 140.634 Q1779.16 143.458 1779.16 148.689 L1779.16 164.338 L1774.88 164.338 L1774.88 148.828 Q1774.88 145.102 1773.56 143.296 Q1772.24 141.49 1769.53 141.49 Q1766.22 141.49 1764.3 143.69 Q1762.38 145.889 1762.38 149.685 L1762.38 164.338 L1758.1 164.338 L1758.1 148.828 Q1758.1 145.078 1756.78 143.296 Q1755.46 141.49 1752.7 141.49 Q1749.44 141.49 1747.52 143.713 Q1745.6 145.912 1745.6 149.685 L1745.6 164.338 L1741.31 164.338 L1741.31 138.412 L1745.6 138.412 L1745.6 142.44 Q1747.05 140.055 1749.09 138.921 Q1751.13 137.787 1753.93 137.787 Q1756.75 137.787 1758.72 139.222 Q1760.71 140.657 1761.66 143.389 Z" fill="#000000" fill-rule="nonzero" fill-opacity="1" /><path clip-path="url(#clip300)" d="M1797.7 141.398 Q1794.28 141.398 1792.29 144.083 Q1790.3 146.745 1790.3 151.398 Q1790.3 156.051 1792.26 158.736 Q1794.25 161.398 1797.7 161.398 Q1801.11 161.398 1803.1 158.713 Q1805.09 156.027 1805.09 151.398 Q1805.09 146.791 1803.1 144.106 Q1801.11 141.398 1797.7 141.398 M1797.7 137.787 Q1803.26 137.787 1806.43 141.398 Q1809.6 145.009 1809.6 151.398 Q1809.6 157.764 1806.43 161.398 Q1803.26 165.009 1797.7 165.009 Q1792.12 165.009 1788.95 161.398 Q1785.8 157.764 1785.8 151.398 Q1785.8 145.009 1788.95 141.398 Q1792.12 137.787 1797.7 137.787 Z" fill="#000000" fill-rule="nonzero" fill-opacity="1" /><path clip-path="url(#clip300)" d="M1826.71 141.398 Q1823.28 141.398 1821.29 144.083 Q1819.3 146.745 1819.3 151.398 Q1819.3 156.051 1821.27 158.736 Q1823.26 161.398 1826.71 161.398 Q1830.11 161.398 1832.1 158.713 Q1834.09 156.027 1834.09 151.398 Q1834.09 146.791 1832.1 144.106 Q1830.11 141.398 1826.71 141.398 M1826.71 137.787 Q1832.26 137.787 1835.43 141.398 Q1838.61 145.009 1838.61 151.398 Q1838.61 157.764 1835.43 161.398 Q1832.26 165.009 1826.71 165.009 Q1821.13 165.009 1817.96 161.398 Q1814.81 157.764 1814.81 151.398 Q1814.81 145.009 1817.96 141.398 Q1821.13 137.787 1826.71 137.787 Z" fill="#000000" fill-rule="nonzero" fill-opacity="1" /><path clip-path="url(#clip300)" d="M1849.88 131.051 L1849.88 138.412 L1858.65 138.412 L1858.65 141.722 L1849.88 141.722 L1849.88 155.796 Q1849.88 158.967 1850.73 159.87 Q1851.61 160.773 1854.28 160.773 L1858.65 160.773 L1858.65 164.338 L1854.28 164.338 Q1849.35 164.338 1847.47 162.509 Q1845.6 160.657 1845.6 155.796 L1845.6 141.722 L1842.47 141.722 L1842.47 138.412 L1845.6 138.412 L1845.6 131.051 L1849.88 131.051 Z" fill="#000000" fill-rule="nonzero" fill-opacity="1" /><path clip-path="url(#clip300)" d="M1885.8 148.689 L1885.8 164.338 L1881.54 164.338 L1881.54 148.828 Q1881.54 145.148 1880.11 143.319 Q1878.67 141.49 1875.8 141.49 Q1872.36 141.49 1870.36 143.69 Q1868.37 145.889 1868.37 149.685 L1868.37 164.338 L1864.09 164.338 L1864.09 128.319 L1868.37 128.319 L1868.37 142.44 Q1869.9 140.102 1871.96 138.944 Q1874.04 137.787 1876.75 137.787 Q1881.22 137.787 1883.51 140.565 Q1885.8 143.319 1885.8 148.689 Z" fill="#000000" fill-rule="nonzero" fill-opacity="1" /><polyline clip-path="url(#clip300)" style="stroke:#e26f46; stroke-linecap:round; stroke-linejoin:round; stroke-width:4; stroke-opacity:1; fill:none" points="1450.72,198.898 1513.65,198.898 "/>
<path clip-path="url(#clip300)" d="M1528.42 212.289 L1528.42 226.039 L1524.14 226.039 L1524.14 190.252 L1528.42 190.252 L1528.42 194.187 Q1529.76 191.872 1531.8 190.761 Q1533.86 189.627 1536.71 189.627 Q1541.43 189.627 1544.37 193.377 Q1547.33 197.127 1547.33 203.238 Q1547.33 209.349 1544.37 213.099 Q1541.43 216.849 1536.71 216.849 Q1533.86 216.849 1531.8 215.738 Q1529.76 214.603 1528.42 212.289 M1542.91 203.238 Q1542.91 198.539 1540.97 195.877 Q1539.05 193.192 1535.67 193.192 Q1532.29 193.192 1530.34 195.877 Q1528.42 198.539 1528.42 203.238 Q1528.42 207.937 1530.34 210.622 Q1532.29 213.284 1535.67 213.284 Q1539.05 213.284 1540.97 210.622 Q1542.91 207.937 1542.91 203.238 Z" fill="#000000" fill-rule="nonzero" fill-opacity="1" /><path clip-path="url(#clip300)" d="M1567.52 180.159 L1567.52 183.701 L1563.44 183.701 Q1561.15 183.701 1560.25 184.627 Q1559.37 185.553 1559.37 187.96 L1559.37 190.252 L1566.38 190.252 L1566.38 193.562 L1559.37 193.562 L1559.37 216.178 L1555.09 216.178 L1555.09 193.562 L1551.01 193.562 L1551.01 190.252 L1555.09 190.252 L1555.09 188.446 Q1555.09 184.118 1557.1 182.15 Q1559.12 180.159 1563.49 180.159 L1567.52 180.159 Z" fill="#000000" fill-rule="nonzero" fill-opacity="1" /><path clip-path="url(#clip300)" d="M1602.68 191.016 L1602.68 195.043 Q1600.88 194.117 1598.93 193.655 Q1596.99 193.192 1594.9 193.192 Q1591.73 193.192 1590.13 194.164 Q1588.56 195.136 1588.56 197.08 Q1588.56 198.562 1589.69 199.418 Q1590.83 200.252 1594.25 201.016 L1595.71 201.34 Q1600.25 202.312 1602.15 204.094 Q1604.07 205.854 1604.07 209.025 Q1604.07 212.636 1601.2 214.742 Q1598.35 216.849 1593.35 216.849 Q1591.27 216.849 1589 216.432 Q1586.75 216.039 1584.25 215.228 L1584.25 210.83 Q1586.62 212.057 1588.91 212.682 Q1591.2 213.284 1593.44 213.284 Q1596.45 213.284 1598.07 212.266 Q1599.69 211.224 1599.69 209.349 Q1599.69 207.613 1598.51 206.687 Q1597.36 205.761 1593.4 204.904 L1591.92 204.557 Q1587.96 203.724 1586.2 202.011 Q1584.44 200.275 1584.44 197.266 Q1584.44 193.608 1587.03 191.618 Q1589.63 189.627 1594.39 189.627 Q1596.75 189.627 1598.84 189.974 Q1600.92 190.321 1602.68 191.016 Z" fill="#000000" fill-rule="nonzero" fill-opacity="1" /><path clip-path="url(#clip300)" d="M1631.04 195.229 Q1632.63 192.358 1634.86 190.993 Q1637.08 189.627 1640.09 189.627 Q1644.14 189.627 1646.34 192.474 Q1648.54 195.298 1648.54 200.529 L1648.54 216.178 L1644.25 216.178 L1644.25 200.668 Q1644.25 196.942 1642.93 195.136 Q1641.62 193.33 1638.91 193.33 Q1635.6 193.33 1633.68 195.53 Q1631.75 197.729 1631.75 201.525 L1631.75 216.178 L1627.47 216.178 L1627.47 200.668 Q1627.47 196.918 1626.15 195.136 Q1624.83 193.33 1622.08 193.33 Q1618.81 193.33 1616.89 195.553 Q1614.97 197.752 1614.97 201.525 L1614.97 216.178 L1610.69 216.178 L1610.69 190.252 L1614.97 190.252 L1614.97 194.28 Q1616.43 191.895 1618.47 190.761 Q1620.5 189.627 1623.31 189.627 Q1626.13 189.627 1628.1 191.062 Q1630.09 192.497 1631.04 195.229 Z" fill="#000000" fill-rule="nonzero" fill-opacity="1" /><path clip-path="url(#clip300)" d="M1667.08 193.238 Q1663.65 193.238 1661.66 195.923 Q1659.67 198.585 1659.67 203.238 Q1659.67 207.891 1661.64 210.576 Q1663.63 213.238 1667.08 213.238 Q1670.48 213.238 1672.47 210.553 Q1674.46 207.867 1674.46 203.238 Q1674.46 198.631 1672.47 195.946 Q1670.48 193.238 1667.08 193.238 M1667.08 189.627 Q1672.63 189.627 1675.81 193.238 Q1678.98 196.849 1678.98 203.238 Q1678.98 209.604 1675.81 213.238 Q1672.63 216.849 1667.08 216.849 Q1661.5 216.849 1658.33 213.238 Q1655.18 209.604 1655.18 203.238 Q1655.18 196.849 1658.33 193.238 Q1661.5 189.627 1667.08 189.627 Z" fill="#000000" fill-rule="nonzero" fill-opacity="1" /><path clip-path="url(#clip300)" d="M1696.08 193.238 Q1692.66 193.238 1690.67 195.923 Q1688.68 198.585 1688.68 203.238 Q1688.68 207.891 1690.64 210.576 Q1692.63 213.238 1696.08 213.238 Q1699.49 213.238 1701.48 210.553 Q1703.47 207.867 1703.47 203.238 Q1703.47 198.631 1701.48 195.946 Q1699.49 193.238 1696.08 193.238 M1696.08 189.627 Q1701.64 189.627 1704.81 193.238 Q1707.98 196.849 1707.98 203.238 Q1707.98 209.604 1704.81 213.238 Q1701.64 216.849 1696.08 216.849 Q1690.5 216.849 1687.33 213.238 Q1684.18 209.604 1684.18 203.238 Q1684.18 196.849 1687.33 193.238 Q1690.5 189.627 1696.08 189.627 Z" fill="#000000" fill-rule="nonzero" fill-opacity="1" /><path clip-path="url(#clip300)" d="M1719.25 182.891 L1719.25 190.252 L1728.03 190.252 L1728.03 193.562 L1719.25 193.562 L1719.25 207.636 Q1719.25 210.807 1720.11 211.71 Q1720.99 212.613 1723.65 212.613 L1728.03 212.613 L1728.03 216.178 L1723.65 216.178 Q1718.72 216.178 1716.85 214.349 Q1714.97 212.497 1714.97 207.636 L1714.97 193.562 L1711.85 193.562 L1711.85 190.252 L1714.97 190.252 L1714.97 182.891 L1719.25 182.891 Z" fill="#000000" fill-rule="nonzero" fill-opacity="1" /><path clip-path="url(#clip300)" d="M1755.18 200.529 L1755.18 216.178 L1750.92 216.178 L1750.92 200.668 Q1750.92 196.988 1749.49 195.159 Q1748.05 193.33 1745.18 193.33 Q1741.73 193.33 1739.74 195.53 Q1737.75 197.729 1737.75 201.525 L1737.75 216.178 L1733.47 216.178 L1733.47 180.159 L1737.75 180.159 L1737.75 194.28 Q1739.28 191.942 1741.34 190.784 Q1743.42 189.627 1746.13 189.627 Q1750.6 189.627 1752.89 192.405 Q1755.18 195.159 1755.18 200.529 Z" fill="#000000" fill-rule="nonzero" fill-opacity="1" /><polyline clip-path="url(#clip300)" style="stroke:#3da44d; stroke-linecap:round; stroke-linejoin:round; stroke-width:4; stroke-opacity:1; fill:none" points="1450.72,250.738 1513.65,250.738 "/>
<path clip-path="url(#clip300)" d="M1531.55 234.731 L1531.55 242.092 L1540.32 242.092 L1540.32 245.402 L1531.55 245.402 L1531.55 259.476 Q1531.55 262.647 1532.4 263.55 Q1533.28 264.453 1535.94 264.453 L1540.32 264.453 L1540.32 268.018 L1535.94 268.018 Q1531.01 268.018 1529.14 266.189 Q1527.26 264.337 1527.26 259.476 L1527.26 245.402 L1524.14 245.402 L1524.14 242.092 L1527.26 242.092 L1527.26 234.731 L1531.55 234.731 Z" fill="#000000" fill-rule="nonzero" fill-opacity="1" /><path clip-path="url(#clip300)" d="M1560.94 246.073 Q1560.23 245.657 1559.37 245.471 Q1558.54 245.263 1557.52 245.263 Q1553.91 245.263 1551.96 247.624 Q1550.04 249.962 1550.04 254.36 L1550.04 268.018 L1545.76 268.018 L1545.76 242.092 L1550.04 242.092 L1550.04 246.12 Q1551.38 243.758 1553.54 242.624 Q1555.69 241.467 1558.77 241.467 Q1559.21 241.467 1559.74 241.536 Q1560.27 241.583 1560.92 241.698 L1560.94 246.073 Z" fill="#000000" fill-rule="nonzero" fill-opacity="1" /><path clip-path="url(#clip300)" d="M1564.97 257.786 L1564.97 242.092 L1569.23 242.092 L1569.23 257.624 Q1569.23 261.305 1570.67 263.156 Q1572.1 264.985 1574.97 264.985 Q1578.42 264.985 1580.41 262.786 Q1582.43 260.587 1582.43 256.791 L1582.43 242.092 L1586.69 242.092 L1586.69 268.018 L1582.43 268.018 L1582.43 264.036 Q1580.88 266.397 1578.81 267.555 Q1576.78 268.689 1574.07 268.689 Q1569.6 268.689 1567.29 265.911 Q1564.97 263.133 1564.97 257.786 M1575.69 241.467 L1575.69 241.467 Z" fill="#000000" fill-rule="nonzero" fill-opacity="1" /><path clip-path="url(#clip300)" d="M1617.63 253.99 L1617.63 256.073 L1598.05 256.073 Q1598.33 260.471 1600.69 262.786 Q1603.07 265.078 1607.31 265.078 Q1609.76 265.078 1612.06 264.476 Q1614.37 263.874 1616.64 262.67 L1616.64 266.698 Q1614.35 267.67 1611.94 268.18 Q1609.53 268.689 1607.06 268.689 Q1600.85 268.689 1597.22 265.078 Q1593.61 261.467 1593.61 255.309 Q1593.61 248.944 1597.03 245.217 Q1600.48 241.467 1606.31 241.467 Q1611.55 241.467 1614.58 244.846 Q1617.63 248.203 1617.63 253.99 M1613.37 252.74 Q1613.33 249.245 1611.41 247.161 Q1609.51 245.078 1606.36 245.078 Q1602.8 245.078 1600.64 247.092 Q1598.51 249.106 1598.19 252.763 L1613.37 252.74 Z" fill="#000000" fill-rule="nonzero" fill-opacity="1" /></svg>
