<?xml version="1.0" encoding="utf-8"?>
<svg xmlns="http://www.w3.org/2000/svg" xmlns:xlink="http://www.w3.org/1999/xlink" width="600" height="400" viewBox="0 0 2400 1600">
<defs>
  <clipPath id="clip190">
    <rect x="0" y="0" width="2400" height="1600"/>
  </clipPath>
</defs>
<path clip-path="url(#clip190)" d="M0 1600 L2400 1600 L2400 0 L0 0  Z" fill="#ffffff" fill-rule="evenodd" fill-opacity="1"/>
<defs>
  <clipPath id="clip191">
    <rect x="480" y="0" width="1681" height="1600"/>
  </clipPath>
</defs>
<path clip-path="url(#clip190)" d="M177.871 1486.45 L2352.76 1486.45 L2352.76 47.2441 L177.871 47.2441  Z" fill="#ffffff" fill-rule="evenodd" fill-opacity="1"/>
<defs>
  <clipPath id="clip192">
    <rect x="177" y="47" width="2176" height="1440"/>
  </clipPath>
</defs>
<polyline clip-path="url(#clip192)" style="stroke:#000000; stroke-linecap:round; stroke-linejoin:round; stroke-width:2; stroke-opacity:0.1; fill:none" points="386.206,1486.45 386.206,47.2441 "/>
<polyline clip-path="url(#clip192)" style="stroke:#000000; stroke-linecap:round; stroke-linejoin:round; stroke-width:2; stroke-opacity:0.1; fill:none" points="812.397,1486.45 812.397,47.2441 "/>
<polyline clip-path="url(#clip192)" style="stroke:#000000; stroke-linecap:round; stroke-linejoin:round; stroke-width:2; stroke-opacity:0.1; fill:none" points="1238.59,1486.45 1238.59,47.2441 "/>
<polyline clip-path="url(#clip192)" style="stroke:#000000; stroke-linecap:round; stroke-linejoin:round; stroke-width:2; stroke-opacity:0.1; fill:none" points="1664.78,1486.45 1664.78,47.2441 "/>
<polyline clip-path="url(#clip192)" style="stroke:#000000; stroke-linecap:round; stroke-linejoin:round; stroke-width:2; stroke-opacity:0.1; fill:none" points="2090.97,1486.45 2090.97,47.2441 "/>
<polyline clip-path="url(#clip192)" style="stroke:#000000; stroke-linecap:round; stroke-linejoin:round; stroke-width:2; stroke-opacity:0.1; fill:none" points="177.871,1481.47 2352.76,1481.47 "/>
<polyline clip-path="url(#clip192)" style="stroke:#000000; stroke-linecap:round; stroke-linejoin:round; stroke-width:2; stroke-opacity:0.1; fill:none" points="177.871,1175.16 2352.76,1175.16 "/>
<polyline clip-path="url(#clip192)" style="stroke:#000000; stroke-linecap:round; stroke-linejoin:round; stroke-width:2; stroke-opacity:0.1; fill:none" points="177.871,868.84 2352.76,868.84 "/>
<polyline clip-path="url(#clip192)" style="stroke:#000000; stroke-linecap:round; stroke-linejoin:round; stroke-width:2; stroke-opacity:0.1; fill:none" points="177.871,562.523 2352.76,562.523 "/>
<polyline clip-path="url(#clip192)" style="stroke:#000000; stroke-linecap:round; stroke-linejoin:round; stroke-width:2; stroke-opacity:0.1; fill:none" points="177.871,256.206 2352.76,256.206 "/>
<polyline clip-path="url(#clip190)" style="stroke:#000000; stroke-linecap:round; stroke-linejoin:round; stroke-width:4; stroke-opacity:1; fill:none" points="177.871,1486.45 2352.76,1486.45 "/>
<polyline clip-path="url(#clip190)" style="stroke:#000000; stroke-linecap:round; stroke-linejoin:round; stroke-width:4; stroke-opacity:1; fill:none" points="386.206,1486.45 386.206,1467.55 "/>
<polyline clip-path="url(#clip190)" style="stroke:#000000; stroke-linecap:round; stroke-linejoin:round; stroke-width:4; stroke-opacity:1; fill:none" points="812.397,1486.45 812.397,1467.55 "/>
<polyline clip-path="url(#clip190)" style="stroke:#000000; stroke-linecap:round; stroke-linejoin:round; stroke-width:4; stroke-opacity:1; fill:none" points="1238.59,1486.45 1238.59,1467.55 "/>
<polyline clip-path="url(#clip190)" style="stroke:#000000; stroke-linecap:round; stroke-linejoin:round; stroke-width:4; stroke-opacity:1; fill:none" points="1664.78,1486.45 1664.78,1467.55 "/>
<polyline clip-path="url(#clip190)" style="stroke:#000000; stroke-linecap:round; stroke-linejoin:round; stroke-width:4; stroke-opacity:1; fill:none" points="2090.97,1486.45 2090.97,1467.55 "/>
<path clip-path="url(#clip190)" d="M340.268 1532.02 L369.944 1532.02 L369.944 1535.95 L340.268 1535.95 L340.268 1532.02 Z" fill="#000000" fill-rule="nonzero" fill-opacity="1" /><path clip-path="url(#clip190)" d="M394.203 1530.21 Q397.56 1530.93 399.435 1533.2 Q401.333 1535.47 401.333 1538.8 Q401.333 1543.92 397.814 1546.72 Q394.296 1549.52 387.814 1549.52 Q385.639 1549.52 383.324 1549.08 Q381.032 1548.66 378.578 1547.81 L378.578 1543.29 Q380.523 1544.43 382.838 1545.01 Q385.152 1545.58 387.676 1545.58 Q392.074 1545.58 394.365 1543.85 Q396.68 1542.11 396.68 1538.8 Q396.68 1535.75 394.527 1534.03 Q392.398 1532.3 388.578 1532.3 L384.551 1532.3 L384.551 1528.45 L388.764 1528.45 Q392.213 1528.45 394.041 1527.09 Q395.87 1525.7 395.87 1523.11 Q395.87 1520.45 393.972 1519.03 Q392.097 1517.6 388.578 1517.6 Q386.657 1517.6 384.458 1518.01 Q382.259 1518.43 379.62 1519.31 L379.62 1515.14 Q382.282 1514.4 384.597 1514.03 Q386.935 1513.66 388.995 1513.66 Q394.319 1513.66 397.421 1516.09 Q400.523 1518.5 400.523 1522.62 Q400.523 1525.49 398.879 1527.48 Q397.236 1529.45 394.203 1530.21 Z" fill="#000000" fill-rule="nonzero" fill-opacity="1" /><path clip-path="url(#clip190)" d="M420.199 1517.37 Q416.587 1517.37 414.759 1520.93 Q412.953 1524.47 412.953 1531.6 Q412.953 1538.71 414.759 1542.27 Q416.587 1545.82 420.199 1545.82 Q423.833 1545.82 425.638 1542.27 Q427.467 1538.71 427.467 1531.6 Q427.467 1524.47 425.638 1520.93 Q423.833 1517.37 420.199 1517.37 M420.199 1513.66 Q426.009 1513.66 429.064 1518.27 Q432.143 1522.85 432.143 1531.6 Q432.143 1540.33 429.064 1544.94 Q426.009 1549.52 420.199 1549.52 Q414.388 1549.52 411.31 1544.94 Q408.254 1540.33 408.254 1531.6 Q408.254 1522.85 411.31 1518.27 Q414.388 1513.66 420.199 1513.66 Z" fill="#000000" fill-rule="nonzero" fill-opacity="1" /><path clip-path="url(#clip190)" d="M812.397 1517.37 Q808.786 1517.37 806.957 1520.93 Q805.152 1524.47 805.152 1531.6 Q805.152 1538.71 806.957 1542.27 Q808.786 1545.82 812.397 1545.82 Q816.031 1545.82 817.837 1542.27 Q819.666 1538.71 819.666 1531.6 Q819.666 1524.47 817.837 1520.93 Q816.031 1517.37 812.397 1517.37 M812.397 1513.66 Q818.207 1513.66 821.263 1518.27 Q824.342 1522.85 824.342 1531.6 Q824.342 1540.33 821.263 1544.94 Q818.207 1549.52 812.397 1549.52 Q806.587 1549.52 803.508 1544.94 Q800.453 1540.33 800.453 1531.6 Q800.453 1522.85 803.508 1518.27 Q806.587 1513.66 812.397 1513.66 Z" fill="#000000" fill-rule="nonzero" fill-opacity="1" /><path clip-path="url(#clip190)" d="M1227.43 1530.21 Q1230.79 1530.93 1232.66 1533.2 Q1234.56 1535.47 1234.56 1538.8 Q1234.56 1543.92 1231.04 1546.72 Q1227.52 1549.52 1221.04 1549.52 Q1218.87 1549.52 1216.55 1549.08 Q1214.26 1548.66 1211.81 1547.81 L1211.81 1543.29 Q1213.75 1544.43 1216.07 1545.01 Q1218.38 1545.58 1220.9 1545.58 Q1225.3 1545.58 1227.59 1543.85 Q1229.91 1542.11 1229.91 1538.8 Q1229.91 1535.75 1227.76 1534.03 Q1225.63 1532.3 1221.81 1532.3 L1217.78 1532.3 L1217.78 1528.45 L1221.99 1528.45 Q1225.44 1528.45 1227.27 1527.09 Q1229.1 1525.7 1229.1 1523.11 Q1229.1 1520.45 1227.2 1519.03 Q1225.32 1517.6 1221.81 1517.6 Q1219.89 1517.6 1217.69 1518.01 Q1215.49 1518.43 1212.85 1519.31 L1212.85 1515.14 Q1215.51 1514.4 1217.82 1514.03 Q1220.16 1513.66 1222.22 1513.66 Q1227.55 1513.66 1230.65 1516.09 Q1233.75 1518.5 1233.75 1522.62 Q1233.75 1525.49 1232.11 1527.48 Q1230.46 1529.45 1227.43 1530.21 Z" fill="#000000" fill-rule="nonzero" fill-opacity="1" /><path clip-path="url(#clip190)" d="M1253.43 1517.37 Q1249.82 1517.37 1247.99 1520.93 Q1246.18 1524.47 1246.18 1531.6 Q1246.18 1538.71 1247.99 1542.27 Q1249.82 1545.82 1253.43 1545.82 Q1257.06 1545.82 1258.87 1542.27 Q1260.7 1538.71 1260.7 1531.6 Q1260.7 1524.47 1258.87 1520.93 Q1257.06 1517.37 1253.43 1517.37 M1253.43 1513.66 Q1259.24 1513.66 1262.29 1518.27 Q1265.37 1522.85 1265.37 1531.6 Q1265.37 1540.33 1262.29 1544.94 Q1259.24 1549.52 1253.43 1549.52 Q1247.62 1549.52 1244.54 1544.94 Q1241.48 1540.33 1241.48 1531.6 Q1241.48 1522.85 1244.54 1518.27 Q1247.62 1513.66 1253.43 1513.66 Z" fill="#000000" fill-rule="nonzero" fill-opacity="1" /><path clip-path="url(#clip190)" d="M1650.19 1529.7 Q1647.04 1529.7 1645.19 1531.86 Q1643.36 1534.01 1643.36 1537.76 Q1643.36 1541.49 1645.19 1543.66 Q1647.04 1545.82 1650.19 1545.82 Q1653.33 1545.82 1655.16 1543.66 Q1657.01 1541.49 1657.01 1537.76 Q1657.01 1534.01 1655.16 1531.86 Q1653.33 1529.7 1650.19 1529.7 M1659.47 1515.05 L1659.47 1519.31 Q1657.71 1518.48 1655.9 1518.04 Q1654.12 1517.6 1652.36 1517.6 Q1647.73 1517.6 1645.28 1520.72 Q1642.85 1523.85 1642.5 1530.17 Q1643.87 1528.15 1645.93 1527.09 Q1647.99 1526 1650.46 1526 Q1655.67 1526 1658.68 1529.17 Q1661.71 1532.32 1661.71 1537.76 Q1661.71 1543.08 1658.56 1546.3 Q1655.42 1549.52 1650.19 1549.52 Q1644.19 1549.52 1641.02 1544.94 Q1637.85 1540.33 1637.85 1531.6 Q1637.85 1523.41 1641.74 1518.55 Q1645.63 1513.66 1652.18 1513.66 Q1653.94 1513.66 1655.72 1514.01 Q1657.52 1514.36 1659.47 1515.05 Z" fill="#000000" fill-rule="nonzero" fill-opacity="1" /><path clip-path="url(#clip190)" d="M1679.77 1517.37 Q1676.16 1517.37 1674.33 1520.93 Q1672.52 1524.47 1672.52 1531.6 Q1672.52 1538.71 1674.33 1542.27 Q1676.16 1545.82 1679.77 1545.82 Q1683.4 1545.82 1685.21 1542.27 Q1687.04 1538.71 1687.04 1531.6 Q1687.04 1524.47 1685.21 1520.93 Q1683.4 1517.37 1679.77 1517.37 M1679.77 1513.66 Q1685.58 1513.66 1688.63 1518.27 Q1691.71 1522.85 1691.71 1531.6 Q1691.71 1540.33 1688.63 1544.94 Q1685.58 1549.52 1679.77 1549.52 Q1673.96 1549.52 1670.88 1544.94 Q1667.82 1540.33 1667.82 1531.6 Q1667.82 1522.85 1670.88 1518.27 Q1673.96 1513.66 1679.77 1513.66 Z" fill="#000000" fill-rule="nonzero" fill-opacity="1" /><path clip-path="url(#clip190)" d="M2066.1 1548.13 L2066.1 1543.87 Q2067.86 1544.7 2069.66 1545.14 Q2071.47 1545.58 2073.21 1545.58 Q2077.84 1545.58 2080.27 1542.48 Q2082.72 1539.36 2083.07 1533.01 Q2081.72 1535.01 2079.66 1536.07 Q2077.6 1537.13 2075.1 1537.13 Q2069.92 1537.13 2066.89 1534.01 Q2063.88 1530.86 2063.88 1525.42 Q2063.88 1520.1 2067.03 1516.88 Q2070.17 1513.66 2075.4 1513.66 Q2081.4 1513.66 2084.55 1518.27 Q2087.72 1522.85 2087.72 1531.6 Q2087.72 1539.77 2083.83 1544.66 Q2079.96 1549.52 2073.41 1549.52 Q2071.65 1549.52 2069.85 1549.17 Q2068.04 1548.82 2066.1 1548.13 M2075.4 1533.48 Q2078.55 1533.48 2080.38 1531.32 Q2082.23 1529.17 2082.23 1525.42 Q2082.23 1521.7 2080.38 1519.54 Q2078.55 1517.37 2075.4 1517.37 Q2072.26 1517.37 2070.4 1519.54 Q2068.58 1521.7 2068.58 1525.42 Q2068.58 1529.17 2070.4 1531.32 Q2072.26 1533.48 2075.4 1533.48 Z" fill="#000000" fill-rule="nonzero" fill-opacity="1" /><path clip-path="url(#clip190)" d="M2106.12 1517.37 Q2102.51 1517.37 2100.68 1520.93 Q2098.88 1524.47 2098.88 1531.6 Q2098.88 1538.71 2100.68 1542.27 Q2102.51 1545.82 2106.12 1545.82 Q2109.76 1545.82 2111.56 1542.27 Q2113.39 1538.71 2113.39 1531.6 Q2113.39 1524.47 2111.56 1520.93 Q2109.76 1517.37 2106.12 1517.37 M2106.12 1513.66 Q2111.93 1513.66 2114.99 1518.27 Q2118.07 1522.85 2118.07 1531.6 Q2118.07 1540.33 2114.99 1544.94 Q2111.93 1549.52 2106.12 1549.52 Q2100.31 1549.52 2097.23 1544.94 Q2094.18 1540.33 2094.18 1531.6 Q2094.18 1522.85 2097.23 1518.27 Q2100.31 1513.66 2106.12 1513.66 Z" fill="#000000" fill-rule="nonzero" fill-opacity="1" /><polyline clip-path="url(#clip190)" style="stroke:#000000; stroke-linecap:round; stroke-linejoin:round; stroke-width:4; stroke-opacity:1; fill:none" points="177.871,1486.45 177.871,47.2441 "/>
<polyline clip-path="url(#clip190)" style="stroke:#000000; stroke-linecap:round; stroke-linejoin:round; stroke-width:4; stroke-opacity:1; fill:none" points="177.871,1481.47 196.769,1481.47 "/>
<polyline clip-path="url(#clip190)" style="stroke:#000000; stroke-linecap:round; stroke-linejoin:round; stroke-width:4; stroke-opacity:1; fill:none" points="177.871,1175.16 196.769,1175.16 "/>
<polyline clip-path="url(#clip190)" style="stroke:#000000; stroke-linecap:round; stroke-linejoin:round; stroke-width:4; stroke-opacity:1; fill:none" points="177.871,868.84 196.769,868.84 "/>
<polyline clip-path="url(#clip190)" style="stroke:#000000; stroke-linecap:round; stroke-linejoin:round; stroke-width:4; stroke-opacity:1; fill:none" points="177.871,562.523 196.769,562.523 "/>
<polyline clip-path="url(#clip190)" style="stroke:#000000; stroke-linecap:round; stroke-linejoin:round; stroke-width:4; stroke-opacity:1; fill:none" points="177.871,256.206 196.769,256.206 "/>
<path clip-path="url(#clip190)" d="M50.9921 1481.93 L80.6679 1481.93 L80.6679 1485.86 L50.9921 1485.86 L50.9921 1481.93 Z" fill="#000000" fill-rule="nonzero" fill-opacity="1" /><path clip-path="url(#clip190)" d="M94.7882 1494.82 L111.108 1494.82 L111.108 1498.75 L89.1632 1498.75 L89.1632 1494.82 Q91.8252 1492.06 96.4085 1487.43 Q101.015 1482.78 102.196 1481.44 Q104.441 1478.92 105.321 1477.18 Q106.223 1475.42 106.223 1473.73 Q106.223 1470.98 104.279 1469.24 Q102.358 1467.5 99.2558 1467.5 Q97.0567 1467.5 94.603 1468.27 Q92.1725 1469.03 89.3947 1470.58 L89.3947 1465.86 Q92.2188 1464.73 94.6724 1464.15 Q97.1261 1463.57 99.1632 1463.57 Q104.534 1463.57 107.728 1466.25 Q110.922 1468.94 110.922 1473.43 Q110.922 1475.56 110.112 1477.48 Q109.325 1479.38 107.219 1481.97 Q106.64 1482.64 103.538 1485.86 Q100.436 1489.05 94.7882 1494.82 Z" fill="#000000" fill-rule="nonzero" fill-opacity="1" /><path clip-path="url(#clip190)" d="M120.969 1464.19 L139.325 1464.19 L139.325 1468.13 L125.251 1468.13 L125.251 1476.6 Q126.27 1476.25 127.288 1476.09 Q128.307 1475.91 129.325 1475.91 Q135.112 1475.91 138.492 1479.08 Q141.871 1482.25 141.871 1487.67 Q141.871 1493.24 138.399 1496.35 Q134.927 1499.43 128.607 1499.43 Q126.432 1499.43 124.163 1499.05 Q121.918 1498.68 119.51 1497.94 L119.51 1493.24 Q121.594 1494.38 123.816 1494.93 Q126.038 1495.49 128.515 1495.49 Q132.519 1495.49 134.857 1493.38 Q137.195 1491.28 137.195 1487.67 Q137.195 1484.06 134.857 1481.95 Q132.519 1479.84 128.515 1479.84 Q126.64 1479.84 124.765 1480.26 Q122.913 1480.68 120.969 1481.56 L120.969 1464.19 Z" fill="#000000" fill-rule="nonzero" fill-opacity="1" /><path clip-path="url(#clip190)" d="M129.927 1160.96 Q126.316 1160.96 124.487 1164.52 Q122.682 1168.06 122.682 1175.19 Q122.682 1182.3 124.487 1185.86 Q126.316 1189.4 129.927 1189.4 Q133.561 1189.4 135.367 1185.86 Q137.195 1182.3 137.195 1175.19 Q137.195 1168.06 135.367 1164.52 Q133.561 1160.96 129.927 1160.96 M129.927 1157.25 Q135.737 1157.25 138.793 1161.86 Q141.871 1166.44 141.871 1175.19 Q141.871 1183.92 138.793 1188.52 Q135.737 1193.11 129.927 1193.11 Q124.117 1193.11 121.038 1188.52 Q117.983 1183.92 117.983 1175.19 Q117.983 1166.44 121.038 1161.86 Q124.117 1157.25 129.927 1157.25 Z" fill="#000000" fill-rule="nonzero" fill-opacity="1" /><path clip-path="url(#clip190)" d="M94.7882 882.185 L111.108 882.185 L111.108 886.12 L89.1632 886.12 L89.1632 882.185 Q91.8252 879.43 96.4085 874.8 Q101.015 870.148 102.196 868.805 Q104.441 866.282 105.321 864.546 Q106.223 862.787 106.223 861.097 Q106.223 858.342 104.279 856.606 Q102.358 854.87 99.2558 854.87 Q97.0567 854.87 94.603 855.634 Q92.1725 856.398 89.3947 857.949 L89.3947 853.226 Q92.2188 852.092 94.6724 851.514 Q97.1261 850.935 99.1632 850.935 Q104.534 850.935 107.728 853.62 Q110.922 856.305 110.922 860.796 Q110.922 862.926 110.112 864.847 Q109.325 866.745 107.219 869.338 Q106.64 870.009 103.538 873.226 Q100.436 876.421 94.7882 882.185 Z" fill="#000000" fill-rule="nonzero" fill-opacity="1" /><path clip-path="url(#clip190)" d="M120.969 851.56 L139.325 851.56 L139.325 855.495 L125.251 855.495 L125.251 863.967 Q126.27 863.62 127.288 863.458 Q128.307 863.273 129.325 863.273 Q135.112 863.273 138.492 866.444 Q141.871 869.615 141.871 875.032 Q141.871 880.611 138.399 883.712 Q134.927 886.791 128.607 886.791 Q126.432 886.791 124.163 886.421 Q121.918 886.05 119.51 885.31 L119.51 880.611 Q121.594 881.745 123.816 882.3 Q126.038 882.856 128.515 882.856 Q132.519 882.856 134.857 880.749 Q137.195 878.643 137.195 875.032 Q137.195 871.421 134.857 869.314 Q132.519 867.208 128.515 867.208 Q126.64 867.208 124.765 867.625 Q122.913 868.041 120.969 868.921 L120.969 851.56 Z" fill="#000000" fill-rule="nonzero" fill-opacity="1" /><path clip-path="url(#clip190)" d="M89.8114 545.243 L108.168 545.243 L108.168 549.178 L94.0937 549.178 L94.0937 557.65 Q95.1123 557.303 96.1308 557.141 Q97.1493 556.956 98.1678 556.956 Q103.955 556.956 107.334 560.127 Q110.714 563.298 110.714 568.715 Q110.714 574.293 107.242 577.395 Q103.77 580.474 97.4502 580.474 Q95.2743 580.474 93.0058 580.104 Q90.7604 579.733 88.353 578.993 L88.353 574.293 Q90.4364 575.428 92.6586 575.983 Q94.8808 576.539 97.3576 576.539 Q101.362 576.539 103.7 574.432 Q106.038 572.326 106.038 568.715 Q106.038 565.104 103.7 562.997 Q101.362 560.891 97.3576 560.891 Q95.4826 560.891 93.6076 561.307 Q91.7558 561.724 89.8114 562.604 L89.8114 545.243 Z" fill="#000000" fill-rule="nonzero" fill-opacity="1" /><path clip-path="url(#clip190)" d="M129.927 548.321 Q126.316 548.321 124.487 551.886 Q122.682 555.428 122.682 562.557 Q122.682 569.664 124.487 573.229 Q126.316 576.77 129.927 576.77 Q133.561 576.77 135.367 573.229 Q137.195 569.664 137.195 562.557 Q137.195 555.428 135.367 551.886 Q133.561 548.321 129.927 548.321 M129.927 544.618 Q135.737 544.618 138.793 549.224 Q141.871 553.807 141.871 562.557 Q141.871 571.284 138.793 575.891 Q135.737 580.474 129.927 580.474 Q124.117 580.474 121.038 575.891 Q117.983 571.284 117.983 562.557 Q117.983 553.807 121.038 549.224 Q124.117 544.618 129.927 544.618 Z" fill="#000000" fill-rule="nonzero" fill-opacity="1" /><path clip-path="url(#clip190)" d="M89.5799 238.926 L111.802 238.926 L111.802 240.916 L99.2558 273.486 L94.3715 273.486 L106.177 242.861 L89.5799 242.861 L89.5799 238.926 Z" fill="#000000" fill-rule="nonzero" fill-opacity="1" /><path clip-path="url(#clip190)" d="M120.969 238.926 L139.325 238.926 L139.325 242.861 L125.251 242.861 L125.251 251.333 Q126.27 250.986 127.288 250.824 Q128.307 250.639 129.325 250.639 Q135.112 250.639 138.492 253.81 Q141.871 256.981 141.871 262.398 Q141.871 267.976 138.399 271.078 Q134.927 274.157 128.607 274.157 Q126.432 274.157 124.163 273.787 Q121.918 273.416 119.51 272.675 L119.51 267.976 Q121.594 269.111 123.816 269.666 Q126.038 270.222 128.515 270.222 Q132.519 270.222 134.857 268.115 Q137.195 266.009 137.195 262.398 Q137.195 258.787 134.857 256.68 Q132.519 254.574 128.515 254.574 Q126.64 254.574 124.765 254.99 Q122.913 255.407 120.969 256.287 L120.969 238.926 Z" fill="#000000" fill-rule="nonzero" fill-opacity="1" /><polyline clip-path="url(#clip192)" style="stroke:#0000ff; stroke-linecap:round; stroke-linejoin:round; stroke-width:4; stroke-opacity:1; fill:none" points="239.425,715.132 262.12,719.408 268.387,715.64 285.923,713.818 295.848,713.318 317.64,716.754 337.414,720.975 363.608,722.924 389.67,724.742 419.872,729.332 448.741,729.304 472.761,729.742 508.466,731.251 530.013,737.228 552.52,741.542 587.455,744.977 612.387,746.592 633.403,751.234 662.119,757.696 684.943,765.07 707.143,773.419 730.014,779.634 758.06,786.086 780.441,794.901 805.841,800.303 836.278,808.319 858.252,807.555 892.839,809.363 917.77,817.648 943.508,825.722 973.708,835.906 997.325,844.509 1023,851.092 1041.42,861.087 1058.28,873.645 1065.45,879.566 1086.66,881.618 1103.69,882.689 1125.62,883.637 1151.33,887.203 1177.33,897.864 1204.28,908.324 1225.78,913.084 1251.16,916.304 1283.84,918.05 1312.69,918.948 1344.85,923.379 1371.93,928.736 1397.24,932.23 1421.69,934.367 1453.72,933.875 1477.2,933.5 1503.24,932.891 1529.46,930.045 1558.55,924.771 1586.71,925.637 1614.29,924.233 1639.76,924.916 1659.85,918.365 1677.46,914.737 1693.5,908.207 1711.18,901.838 1732.72,901.888 1755.19,899.774 1777.05,901.861 1795.62,905.598 1817.1,912.538 1836.57,924.246 1858.1,937.285 1873.01,948.182 1888.28,964.699 1898.15,978.576 1905.6,992.637 1914.81,1011.87 1926.54,1029.47 1939.66,1047.52 1950.28,1057.94 1969.15,1064.59 1983.78,1066.91 1994.01,1065.39 2014.8,1057.81 2030.56,1052.61 2051.02,1032.68 2062.08,1016.92 2064.9,996.717 2066.39,979.084 2065.39,957.718 2051.69,942.44 2034.42,935.016 2012.43,925.677 1982.57,929.664 1957.05,929.176 1937.69,925.408 1920.17,922.555 1898.55,920.452 1879.28,926.881 1857.47,933.623 1841.25,940.85 1818.31,942.817 1793.63,941.862 1766.9,937.277 1744.15,926.802 1721.49,915.563 1691.21,899.376 1666.63,881.899 1644.67,863.917 1630.4,849.554 1619.41,837.019 1603.23,824.012 1588.81,807.737 1577.28,792.284 1569.79,775.824 1570.09,759.996 1581.96,744.575 1595.87,732.993 1617.07,725.993 1636.14,724.888 1663.04,725.248 1684.29,740.788 1705.14,749.059 1718.11,753.744 1739.64,759.603 1761.31,770.605 1773.09,779.267 1790.54,789.733 1808.95,800.462 1830.82,807.988 1851.02,809.354 1872.01,809.208 1895.83,801.98 1916.34,797.599 1931.88,797.211 1951.25,805.343 1968.13,817.116 1982.49,832.676 1991.2,849.29 1998.9,870.527 2006.43,892.066 2010.31,911.12 2009.18,931.638 2009.16,941.039 2012.56,954.419 2023.74,973.416 2031.23,990.989 2043.03,1005.95 2054.67,1012.65 2067.4,1016.1 2086.13,1010.31 2104.76,1003.03 2117.53,993.866 2132.99,980.778 2141.9,972.185 2144.66,953.369 2134.7,937.131 2116.25,919.691 2101.92,902.622 2078.83,893.286 2050.19,889.51 2023.64,884.318 2007.11,882.447 1984.29,880.44 1964.97,877.841 1947.65,867.029 1933.03,860.26 1910.95,853.588 1894.82,853.235 1872.74,856.482 1853,851.264 1832.4,845.593 1813.03,844.773 1788.87,841.521 1771.21,836.337 1754.45,831.707 1732.36,830.588 1705.1,832.438 1678.72,838.824 1663.87,837.233 1660.27,828.385 1655.89,825.5 1648.71,823.652 1637.81,822.924 1629.04,822.421 1615.28,826.939 1600.79,834.152 1574.78,838.438 1553.64,841.857 1539.56,847.583 1530.93,856.677 1539.01,857.216 1556.47,854.601 1591.17,848.772 1606.4,831.472 1621.53,817.505 1626.37,802.216 1618.44,785.368 1602.93,767.515 1592.79,756.282 1583.8,735.435 1564.19,725.728 1543.2,737.536 1520.82,737.917 1492.78,732.349 1489.43,713.415 1484.4,694.744 1486.89,674.143 1490.74,657.687 1506.02,636.278 1512.76,616.227 1515.49,593.125 1498.17,580.495 1476.79,573.334 1467.13,570.669 1478.25,557.801 1499.22,547.587 1535.32,546.568 1573.62,532.16 1597.64,514.432 1615.85,491.075 1628.78,470.675 1650.17,462.336 1676.04,465.677 1699.55,470.424 1718.34,487.998 1745.6,501.248 1766.05,517.056 1774.24,538.403 1763.35,554.92 1745.59,570.973 1719.65,584.071 1686.48,590.459 1659.76,589.185 1626.11,574.87 1601.46,559.194 1591.37,537.716 1590.38,515.724 1608.61,500.304 1624.08,490.736 1646.36,476.302 1670.03,468.196 1692.34,452.379 1713.82,440.263 1734.37,439.393 1756.88,425.416 1760.16,410.702 1770.31,393.417 1783.86,388.312 1800.64,371.279 1793.05,357.486 1771.17,347.422 1766.59,345.133 1779.62,340.789 1805.27,334.26 1834.13,340.618 1858.77,342.314 1885.24,347.7 1907.51,365.879 1910.72,384.654 1907.07,396.623 1885.71,407.12 1870.24,430.003 1855.41,458.067 1845.35,489.829 1847.04,509.224 1811.22,511.852 1788.12,527.327 1757.03,533.507 1726.88,550.335 1710.21,575.891 1691.51,593.509 1664.19,587.073 1642.16,575.914 1614.32,567.428 1600,554.429 1574.6,538.751 1566.04,531.642 1574.89,509.46 1599.88,501.187 1632.85,495.675 1660.85,499.172 1696.01,506.965 1724.16,521.109 1731.6,542.567 1746.25,562.949 1762.51,567.155 1787.92,572.288 1810.81,582.306 1821.32,586.315 1845.67,577.497 1871.65,569.544 1890.54,559.606 1910.68,563.451 1929.34,578.594 1927.59,597.049 1928.21,617.317 1913.92,648.982 1892.78,674.003 1869.81,693.766 1848.31,724.014 1846.63,748.885 1811.03,760.368 1782.46,765.116 1755.61,780.519 1729.77,793.791 1713.22,813.603 1697.1,834.642 1671.06,857.593 1644.82,865.263 1619.11,856.02 1594.89,850.817 1563.82,847.331 1535.6,838.18 1516.35,816.804 1501.95,796.555 1471.13,774.072 1454.21,755.483 1430.74,738.644 1405.69,735.623 1375.05,741.684 1356.94,739.088 1332.07,731.187 1327.24,705.182 1310.29,696.807 1287.17,701.535 1268.57,709.914 1244.54,727.231 1238.02,734.416 1208.33,736.63 1185.16,742.217 1159.98,734.425 1139.51,716.7 1116.82,704.062 1081.9,699.401 1050.21,690.59 1028.23,684.386 1008.02,674.619 988.382,653.938 987.681,640.251 997.995,621.426 1013.53,601.177 1024.97,578.474 1030.54,547.163 1036.52,522.506 1021.62,503.11 1002.55,498.468 992.271,487.371 997.576,474.097 1023.77,473.995 1060.91,477.435 1102.16,475.377 1133.82,471.09 1160.91,452.95 1184.79,427.24 1208.91,408.375 1239.7,402.215 1278.57,404.104 1310.24,415.73 1340.99,432.468 1370.72,445.879 1396.92,456.965 1418.36,472.159 1454.19,479.01 1479.96,493.353 1505.39,515.687 1535.86,541.902 1563.2,557.888 1586.72,568.39 1604.57,579.063 1613.67,568.358 1633.9,560.629 1661.17,545.949 1684.67,536.129 1714.87,525.587 1748.25,524.112 1783.17,532.853 1808.75,558.623 1814.99,580.897 1811.26,612.253 1793.56,644.91 1791.36,671.155 1783.08,702.977 1783.18,737.661 1800.06,767.443 1831.35,792.397 1871,789.712 1891.28,792.399 1922.17,799.948 1941.08,821.759 1966.82,848.163 1987.69,879.506 1999.17,911.607 2002.47,934.172 2019.03,916.106 2054.99,921.516 2082.87,927.518 2094.06,943.216 2095.71,947.756 2096.96,951.766 2101.02,968 2104.2,974.96 2118.27,978.214 2134.91,979.829 2164.22,972.946 2190.09,983.519 2203.85,995.781 2216.76,1018.33 2216.9,1032.66 2220,1017.61 2225.51,999.092 2223.41,971.616 2213.08,944.559 2197.29,921.668 2187.81,899.354 2188.63,879.591 2160.3,858.31 2154.29,827.032 2159,802.073 2177.21,791.533 2197.54,794.678 2221.33,803.024 2237.25,815.525 2249.36,834.658 2275.05,858.785 2289.62,879.419 2279.99,906.09 2260.07,927.878 2242.31,948.197 2211.52,960.577 2194.42,979.808 2167.61,991.904 2140.27,1014.56 2120.61,1036.42 2110.72,1060.54 2091.69,1082.66 2074.23,1104.32 2048.8,1121.38 2023.87,1133.16 1992.85,1148.98 1967.9,1166.77 1938.61,1175.55 1910.82,1195.03 1895.08,1211.81 1863.6,1224.31 1844.35,1238.8 1826.88,1258.64 1808.94,1285.77 1801.6,1306.48 1797,1326.43 1790.36,1351.03 1812.41,1372.16 1822.5,1387.4 1814.45,1410.54 1807.12,1436.43 1786.79,1439.47 1764.36,1436.98 1742.78,1419.04 1732.01,1391.95 1716.89,1370.58 1693.35,1347.88 1655.9,1321.72 1624.35,1314.8 1590.48,1314.33 1554.26,1321.8 1513.47,1331.27 1487.23,1331.2 1452.69,1320.86 1426.91,1308.34 1408.3,1283.16 1406.07,1250.32 1400.58,1210.13 1379.96,1183.92 1359.51,1163.28 1365.23,1131.69 1362.51,1104.27 1354.67,1080.09 1343.05,1051.8 1323.22,1027.73 1319.65,1000.55 1325.24,966.82 1334.26,933.715 1352.87,906.264 1368.71,874.681 1381.34,841.626 1408.95,820.808 1402.54,793.226 1387.26,769.516 1357.68,747.204 1325.33,743.413 1305.19,730.463 1297.43,705.53 1293.72,673.063 1306.86,645.06 1321.19,623.546 1342.51,615.17 1373.8,603.632 1410.62,598.31 1450.27,593.992 1487.86,593.845 1515.9,586.561 1538.3,561.123 1556.06,539.841 1583.97,526.376 1606.26,520.756 1609.52,504.679 1595.34,491.684 1573.64,476.38 1548.47,464.389 1519.73,437.276 1497.24,412.034 1484,385.477 1467.33,364.788 1464.99,347.877 1471.1,327.093 1488.69,317.302 1506.74,327.46 1536.59,331.874 1577.21,333.145 1610.14,342.792 1650.29,348.277 1682.81,352.542 1712.65,367.108 1737.79,372.947 1762.61,365.203 1785.89,355.202 1817.31,350.353 1849.2,350.479 1880.1,344.893 1902.15,360.171 1914.01,376.505 1918.81,369.345 1928.72,353.169 1945.17,335.908 1963.91,325.279 1987.84,310.58 2007.61,302.047 1995.28,303.257 1973.38,289.548 1963.58,272.677 1952.71,244.007 1956.73,215.376 1968,199.954 1996.47,190.476 2029.15,192.765 2054.24,197.917 2088.18,202.405 2123.25,214.598 2145.16,237.962 2148.65,266.335 2142.22,292.87 2131.9,301.589 2135.98,317.641 2139.57,339.764 2134.99,371.696 2105.53,387.615 2086.61,422.838 2058.81,444.491 2037.1,470.858 2030.26,505.851 2004.01,511.505 1969.2,513.673 1934.02,526.422 1903.46,539.863 1887.92,567.088 1877.34,597.533 1875.78,614.406 1902.86,619.397 1932.12,632.827 1968.36,646.584 2002.3,670.841 2029.33,685.382 2067.72,690.527 2103.23,690.645 2141.36,687.023 2169.89,691.78 2195.18,691.973 2204.8,676.267 2219.22,657.641 2234.42,636.706 2233.02,611.69 2229.19,592.528 2219.46,568.326 2193.13,547.149 2171.98,528.335 2147.99,513.771 2105.68,515.654 2081.15,522.315 2058.15,540.437 2041.92,560.374 2016.16,584.046 2011.24,613.929 2017.26,645.328 2020.51,675.755 2038.26,701.834 2051.07,726.862 2064.19,759.714 2078.51,790.051 2108.58,801.895 2138.76,819.262 2164.56,848.044 2184.36,871.125 2198.37,902.889 2206.78,927.529 2203.26,939.353 2171.73,941.499 2134.97,953.054 2107.37,951.691 2091.77,959.496 2071.4,963.885 2049.91,958.961 2018.09,945.506 1988.62,937.058 1953.7,939.982 1909.7,952.334 1871.66,966.324 1833.95,966.92 1791.55,974.994 1754.42,975.98 1716.13,976.639 1685.25,970.555 1650.65,975.221 1618.47,969.121 1586.44,962.271 1550.52,931.979 1523.96,916.444 1486.06,909.421 1453.97,893.995 1424.72,877.807 1393.92,856.54 1368.16,850.035 1341.82,863.836 1316.99,880.318 1288.53,895.132 1251.17,913.038 1213.8,920.944 1185.39,916.618 1157.9,893.37 1139.4,869.663 1121.61,838.934 1097.01,813.696 1085.49,782.89 1081.72,754.66 1084.57,731.807 1070.51,702.855 1047.12,685.401 1019.79,673.288 1000.61,651.809 992.104,621.179 990.941,598.173 979.71,571.192 988.136,544.783 1008.43,516.625 1020.48,499.921 1033.13,493.439 1041.93,479.435 1047.06,463.542 1053.95,439.643 1060.72,414.734 1066.96,385.487 1078.89,353.043 1078.14,330.331 1056.59,311.611 1036.6,297.947 1009.75,299 982.407,308.578 955.778,304.238 923.158,288.762 886.22,274.668 863.782,268.834 842.106,264.378 828.399,246.485 826.448,224.892 842.117,207.06 863.939,188.439 887.192,170.805 930.307,160.031 960.241,147.6 992.837,141.606 1021.94,153.079 1049.78,159.166 1083.66,155.159 1117.46,149.337 1136.27,128.487 1152.49,109.616 1165.92,88.4113 "/>
<polyline clip-path="url(#clip192)" style="stroke:#ff0000; stroke-linecap:round; stroke-linejoin:round; stroke-width:4; stroke-opacity:1; fill:none" points="239.582,714.566 269.997,720.938 272.611,712.079 293.765,713.378 297.146,714.076 324.181,719.749 341.072,723.29 369.854,723.045 394.389,725.055 424.819,731.426 451.1,727.53 472.254,728.816 514.575,731.414 526.366,740.162 550.914,742.159 593.25,744.757 611.036,745.345 630.484,752.562 664.338,759.644 683.801,766.861 706.659,774.788 730.37,779.751 760.856,786.134 779.481,796.316 807.453,799.036 840.512,809.108 856.622,803.055 898.175,808.618 915.976,821.777 943.11,827.463 976.211,837.534 995.731,844.763 1022.89,850.449 1037.33,862.91 1055.18,876.081 1058.58,876.792 1090.84,877.257 1104.42,880.112 1129.06,882.122 1156.25,887.819 1180.93,902.437 1207.29,911.099 1225.14,911.7 1253.18,914.432 1288.88,915.608 1313.53,917.63 1347.55,924.761 1371.39,929.76 1396.04,931.77 1420.7,933.791 1457.24,932.015 1475.1,932.603 1503.99,932.37 1530.32,928.437 1560.86,922.262 1588.11,927.959 1614.42,924.038 1639.1,926.06 1656.82,914.052 1674.68,914.64 1691.57,905.61 1711.06,900.256 1734.92,905.255 1757.8,900.611 1778.26,904.887 1795.29,908.453 1818.35,916.417 1836.38,929.613 1858.63,940.555 1870.66,949.364 1887.08,968.528 1894.9,979.604 1901.9,993.658 1914.12,1015.11 1927.97,1030.61 1941.01,1049.1 1950.46,1054.24 1974.38,1059.26 1984.64,1061.4 1992.29,1059.85 2020.25,1049.95 2031.3,1049.1 2053.01,1022.15 2058.85,1013.91 2057.63,991.624 2061.64,976.737 2060.43,954.474 2041.55,944.243 2024.47,940.665 2002.2,929.723 1975.08,936.622 1954.6,932.345 1938.35,925.803 1921.3,922.237 1896.61,920.215 1878.93,932.235 1856.03,936.867 1843.37,943.655 1815.27,940.91 1790.58,938.901 1763.3,933.191 1745.29,919.995 1722.25,912.031 1687.21,895.269 1666.64,878.409 1646.08,861.549 1634.92,849.811 1623.77,838.061 1602.4,824.191 1589.5,805.824 1579.17,791.146 1573.08,774.212 1577.18,759.423 1595.69,744.512 1605.77,734.097 1628.61,729.49 1642.19,732.32 1671.02,732.088 1684.74,747.452 1705.14,751.716 1715.34,753.836 1742.55,759.521 1763.91,773.355 1769.1,780.694 1791.29,791.587 1810.08,801.781 1833.91,806.755 1852.55,804.378 1873.78,805.677 1898.25,795.128 1916.08,795.728 1929.7,798.571 1951.12,812.428 1965.74,824.877 1979.57,840.291 1986.57,854.284 1995.39,874.942 2004.21,895.612 2007.01,911.896 2004.8,933.411 2007.41,937.1 2013.63,954.119 2029.3,976.259 2032.11,992.58 2046.78,1005.09 2057.03,1007.25 2070.7,1010.1 2091,1001.76 2107.07,995.68 2116.3,988.169 2133.97,976.137 2138.99,970.905 2138.53,945.664 2123.86,933.166 2106.57,916.993 2096.13,902.265 2073.04,894.301 2044.94,891.569 2021.06,886.582 2010.83,884.437 1982.75,881.717 1965.7,878.152 1948.47,862.003 1934.83,859.16 1907.57,853.463 1895.73,857.261 1869.45,861.182 1851.44,848.01 1830.99,843.746 1812.34,846.111 1785.11,840.426 1772.29,834.618 1755.27,831.053 1729.82,832.008 1700.14,835.218 1676.44,842.803 1667.88,834.741 1667.74,822.169 1660.12,823.713 1649.1,824.546 1634.66,824.669 1627.86,823.248 1610.97,832.253 1598.31,839.017 1566.05,838.551 1550.79,841.627 1541.51,849.101 1534.82,860.263 1550.08,857.175 1568.73,854.798 1599.25,848.623 1608.38,828.578 1622.69,815.896 1626.78,801.082 1617.27,783.439 1600.98,764.386 1592.41,756.336 1581.16,732.1 1561.6,724.883 1539.69,739.084 1518.5,737.785 1487.92,731.401 1489.47,712.961 1484.23,693.124 1486.6,671.755 1490.71,657.003 1508.28,632.596 1513.21,614.915 1516.39,590.655 1497.71,580.534 1474.81,572.656 1468.04,571.247 1479.74,555.012 1504.18,544.536 1543.07,546.41 1580.1,529.244 1598.55,514.431 1616.05,490.122 1628.53,470.995 1648.7,462.774 1676.6,465.469 1700.3,470.383 1719.94,489.975 1748.8,502.178 1765.9,518.156 1774.6,538.605 1762.96,554.828 1743.73,572.594 1715.11,585.313 1681.34,590.741 1660.18,589.454 1621.93,572.153 1600.67,558.394 1592.02,537.932 1590.96,515.963 1609.4,501.161 1622.81,491.531 1648.83,475.21 1672.39,467.699 1695.01,450.68 1715.98,439.543 1733.71,440.118 1759.68,423.822 1759.54,411.41 1771.95,392.321 1783.72,388.571 1803.7,367.975 1792.6,356.396 1767.15,344.94 1783.11,338.985 1813.36,332.895 1839.6,341.411 1860.7,342.697 1887.75,348.297 1910.81,368.526 1910.18,383.854 1906.97,395.555 1881.85,408.911 1867.85,433.87 1853.03,461.781 1844.16,494.055 1847.73,507.214 1807.21,511.208 1788.01,528.963 1754.27,534.378 1724.05,552.953 1709.96,578.022 1691.52,592.86 1664.38,587.212 1642.28,576.393 1612.59,567.093 1601.48,555.453 1570.88,536.645 1568.3,533.006 1575.66,506.565 1602.63,499.752 1639.75,495.047 1663.44,499.973 1700.71,507.716 1725.38,522.162 1730.68,541.901 1746.15,563.772 1759.72,566.591 1790.25,572.938 1812.37,583.769 1819.16,585.178 1850.34,576.111 1873.93,568.576 1890.7,559.631 1911.06,563.858 1931.6,580.559 1926.79,598.227 1927.95,620.257 1910.71,657.175 1890.68,677.943 1868.03,695.072 1844.75,727.689 1846.69,746.84 1807.01,760.453 1784.17,765.072 1754.68,780.817 1729.38,794.319 1713.47,812.931 1696.73,834.508 1668.15,859.895 1645.26,864.527 1618.85,855.864 1595.03,850.877 1560.16,846.736 1533.78,838.073 1514.9,815.32 1502.03,796.953 1466.19,770.671 1455.9,756.005 1428.66,737.797 1407.45,736.499 1373.59,741.939 1360.01,739.096 1330.29,729.772 1327.59,701.052 1310.63,697.511 1284.39,701.419 1267.5,710.4 1240.48,729.784 1239.64,732.737 1202.38,737.467 1182.9,742.796 1156.6,734.158 1137.07,714.431 1115.01,703.563 1076.89,698.736 1047.24,689.412 1030.31,685.87 1008.29,675.015 986.255,651.673 988.798,642.827 998.927,619.963 1015.82,598.521 1025.93,575.694 1031.8,542.649 1037.68,522.089 1021.61,503.183 1004.72,499.666 993.742,488.051 997.947,473.384 1030.02,473.838 1068.01,478.641 1108.52,474.646 1134.67,470.762 1161.62,451.526 1186.83,425.746 1209.54,408.752 1239.87,402.662 1282.05,405.223 1310.79,417.39 1342.08,433.196 1370.85,445.375 1396.25,456.856 1417.45,470.579 1458.03,479.008 1479.24,492.744 1508.17,517.396 1539.68,545.712 1561.76,556.519 1583.85,567.338 1602.54,577.459 1611.78,570.034 1636.18,559.558 1665.62,543.911 1685.81,535.677 1717.78,523.682 1749.9,524.147 1786.39,534.832 1811.25,561.763 1813.99,577.875 1811.08,614.621 1791.19,647.875 1792.31,669.93 1782.58,705.365 1783.86,739.991 1801.18,768.625 1833.75,794.196 1871.01,789.455 1884.64,792.297 1922.09,800.102 1941.09,822.855 1969.54,850.73 1989.57,883.139 1999.38,913.44 2002.2,929.723 2016.45,917.005 2058.2,922.592 2082.09,927.579 2092.55,942.331 2095.16,946.019 2096.98,952.685 2102.42,972.681 2105.04,976.382 2122.13,979.947 2140,980.548 2171.34,971.37 2196.28,986.024 2204.15,997.113 2219.1,1022.27 2216.7,1031.21 2220.69,1016.3 2226.26,995.435 2223.15,966.494 2211.64,942.086 2195.91,919.97 2187.04,899.288 2188.4,880.749 2155.64,855.105 2153.38,823.309 2158.95,802.565 2175.77,793.559 2197.01,794.87 2223.49,803.509 2238.16,815.957 2250.45,837.301 2279.83,862.223 2289.52,879.916 2278.2,908.906 2258.2,929.834 2242.38,948.519 2210.28,960.661 2194.45,979.359 2165.75,992.224 2137.26,1017.73 2121.4,1036.46 2111.57,1059.61 2090.67,1083.62 2073.98,1105.37 2047.83,1121.99 2023.26,1132.64 1989.42,1150.82 1966.65,1168.19 1939.45,1175.13 1908.18,1197.05 1897.27,1210.6 1860.76,1225.11 1846.41,1237.95 1826.18,1259.08 1806.92,1289.94 1802.84,1304.96 1797.11,1326.01 1789.75,1353.09 1816.55,1374.66 1820.97,1385.14 1813.61,1412.26 1806.23,1439.41 1788.25,1438.8 1763.37,1436.75 1740,1415.87 1729.42,1388.13 1716.36,1369.46 1690.42,1344.89 1647.38,1316.72 1625.98,1315.4 1590.07,1314.2 1551.67,1322.01 1509.01,1332.11 1491.05,1331.5 1450.78,1319.84 1428.47,1308.76 1406.93,1281.96 1405.84,1246.79 1399.58,1204.21 1379.81,1184.2 1360.07,1164.19 1365.84,1130.57 1362.27,1104.51 1354.46,1080.74 1341.49,1049.58 1322.63,1026.68 1319.08,1000.69 1325.69,964.251 1334.85,931.537 1353.38,903.968 1369.33,872.736 1381.86,840.818 1408.88,821.373 1401.92,794.834 1387.33,769.85 1354.95,744.304 1326.14,744.549 1308.27,731.426 1297.96,704.25 1293.54,668.95 1307.8,643.832 1320.37,624.619 1340.63,616.361 1376.93,602.099 1414.11,597.382 1454.68,593.375 1490.21,594.551 1513.82,587.004 1539.79,558.173 1555.69,539.708 1584.3,527.014 1603.69,521.721 1607.77,507.03 1594.1,491.776 1570.29,474.414 1544.86,462.921 1514.21,431.738 1495.45,409.254 1484.3,385.263 1468.14,366.431 1465.48,350.417 1472.03,327.038 1488.81,318.167 1507.43,328.202 1542.01,332.283 1584.16,334.831 1613.75,344.057 1655.11,349.534 1682.95,352.218 1714.32,367.999 1734.6,372.202 1761.51,365.414 1785.83,354.999 1819.49,349.608 1851.52,350.061 1881.78,343.972 1902.25,360.574 1912.58,375.069 1917.57,369.923 1929.94,350.858 1949.06,333.201 1965.8,324.318 1991.67,308.071 2007.58,302.104 1996.64,302.925 1968.61,287.879 1962.46,271.203 1950.17,237.863 1957.36,211.643 1967.29,201.399 1999.08,189.514 2033.63,193.57 2053.89,197.76 2091.84,202.514 2127.41,216.005 2146.32,238.366 2149.36,266.706 2142.24,292.951 2133.9,297.399 2135.92,316.317 2139.74,341.791 2133.62,377.581 2101.77,389.527 2083.88,429.128 2057.98,445.424 2036.45,471.939 2030.27,507.876 2008.32,509.518 1967.82,513.524 1931.69,527.75 1903.12,540.456 1888.3,568.453 1876.04,600.126 1877.02,609.659 1903.38,618.26 1934.93,634.164 1974.1,648.549 2006.69,674.034 2028.89,684.89 2070.5,690.428 2102.71,690.894 2143.32,686.875 2167.13,691.838 2192.55,690.882 2203.32,677.539 2219.87,656.06 2236.39,634.581 2232.52,608.887 2229.67,592.75 2219,565.672 2189,543.911 2171.79,527.933 2147.02,513.475 2099.72,516.073 2083.75,522.077 2057.02,541.362 2041.26,559.827 2012.1,587.959 2011.7,615.883 2017.28,648.181 2020.28,676.865 2038.49,702.485 2049.9,726.709 2064.93,764.214 2078.98,792.15 2108.84,801.511 2139.74,820.466 2167.47,851.306 2183.95,870.42 2199.89,905.108 2205.36,925.08 2202.97,934 2169.05,939.477 2128.52,956.14 2108.02,951.852 2095.38,958.64 2072.48,963.284 2048.58,958.284 2013.43,941.498 1986.13,935.788 1948.78,940.555 1901.36,955.785 1869.21,967.927 1833.45,966.739 1787.64,976.026 1755.3,975.548 1715.33,976.627 1688.04,970.917 1650.66,975.671 1619.97,969.251 1585.88,962.107 1545.59,925.349 1525.97,918.096 1485.11,909.543 1453.56,893.504 1425.42,878.189 1392.15,855.521 1371.73,851.257 1342.95,864.074 1316.72,880.566 1287.08,896.372 1245.55,915.976 1211.58,921.441 1187.77,916.454 1155.41,890.797 1140.05,868.717 1120.45,836.333 1094.93,812.159 1085.54,781.956 1082.09,756.164 1084.59,734.759 1069.28,700.267 1048.08,686.459 1019.28,674.194 1000.65,651.551 992.165,618.554 990.446,599.477 977.76,568.759 988.727,543.004 1011.5,513.512 1018.25,502.472 1030.89,495.782 1042.7,479.584 1047.73,461.989 1055.28,435.622 1061.99,412.195 1066.99,382.224 1080.4,347.856 1077.84,331.841 1055.07,311.649 1037.37,298.698 1008.74,298.943 980.97,308.635 954.035,303.048 919.528,286.605 880.829,272.391 867.376,269.598 843.822,264.709 827.868,245.95 827.072,224.177 843.069,205.896 866.623,186.108 889.325,169.248 938.891,157.951 959.888,146.912 993.472,141.545 1022.04,153.626 1048.93,159.189 1085.88,154.521 1119.47,149.166 1136.2,128.018 1152.1,109.786 1165.45,87.9763 "/>
<polyline clip-path="url(#clip192)" style="stroke:#3da44d; stroke-linecap:round; stroke-linejoin:round; stroke-width:4; stroke-opacity:1; fill:none" points="252.451,717.031 265.824,714.669 277.409,716.142 292.644,716.407 308.181,717.939 325.917,719.872 347.278,720.217 371.464,721.198 398.536,724.283 425.818,726.771 450.857,728.005 477.751,730.682 504.885,734.213 529.974,738.057 557.046,742.563 584.004,744.044 611.326,747.652 636.538,754.105 660.897,759.357 685.402,765.702 709.52,772.456 735.129,778.787 760.719,785.405 785.962,792.128 812.047,800.219 837.57,807.929 864.024,808.308 890.057,813.785 915.956,819.818 942.405,826.201 968.364,833.994 992.553,842.069 1014.06,849.317 1033.41,858.548 1050.82,867.543 1071.24,872.333 1090.76,877.497 1110.58,881.874 1133.42,885.98 1155.29,892.414 1179.91,899.615 1205.8,906.592 1231.41,910.787 1258,914.169 1284.72,918.073 1313.28,921.646 1343.35,924.865 1371.5,927.891 1399.06,931.482 1425.38,933.418 1453.01,933.06 1479.75,932.319 1505.62,930.242 1532.89,928.561 1559.14,926.425 1586.1,924.409 1611.49,922.541 1633.85,918.759 1655.35,917.376 1676.22,913.753 1695.98,909.955 1715.15,906.554 1736.21,905.435 1757.03,903.78 1777.55,905.699 1798.11,910.37 1817.7,918.505 1836.36,928.157 1853.28,939.494 1868.86,951.16 1883.9,963.721 1894.95,979.512 1906.11,994.101 1915.85,1009.63 1927.99,1023.33 1941.03,1036.77 1955.22,1045.83 1970.4,1052.45 1985.25,1054.9 1998.39,1053.15 2013.91,1046.57 2030.63,1036.85 2043.3,1024.13 2051.71,1009.17 2054.24,993.37 2049.73,976.419 2043.5,960.037 2031.66,949.692 2018.38,941.056 2000.93,934.533 1979.74,931.652 1959.05,929.198 1938.45,928.571 1918.25,926.771 1897.39,926.967 1876.75,929.059 1855.58,933.471 1835.57,936.032 1812.02,935.595 1788.43,932.372 1764.48,928.435 1741.47,920.513 1718.37,908.58 1695.24,894.681 1672.69,880.732 1653.52,865.098 1637.31,849.614 1622.43,834.952 1610.76,819.509 1601.27,805.397 1592.65,791.322 1586.17,779.218 1585.45,764.086 1593.84,752.849 1609.92,745.16 1626.65,737.755 1644.71,733.516 1664.87,735.707 1685.5,742.662 1704.51,747.667 1723.67,754.397 1742.84,763.374 1761.04,772.183 1779.51,780.763 1797.74,788.625 1816.59,796.713 1834.39,802.897 1853.61,805.073 1873.13,805.639 1893.49,804.615 1913.41,805.783 1930.23,810.553 1946.29,817.942 1961.89,829.221 1975.08,840.944 1986.15,856.191 1994.92,875.38 2001.08,892.903 2006.83,910.095 2011.16,926.663 2015.58,941.604 2019.95,956.971 2027.2,971.849 2034.8,985.193 2045.33,995.917 2058.27,1003.37 2072.98,1002.94 2089,999.482 2103.65,993.162 2113.62,984.097 2122.34,974.044 2126.16,962.539 2128.02,949.143 2123.08,936.189 2108.52,922.128 2089.17,909.81 2069.45,898.937 2048.7,891.348 2027.83,887.257 2006.63,881.701 1986.39,876.764 1966.21,872.429 1946.31,866.022 1927.8,861.013 1909.38,859.505 1891.43,857.658 1871.91,853.837 1850.08,851.664 1828.76,847.081 1809.65,843.933 1788.51,842.065 1769.87,838.02 1749.86,832.953 1729.9,831.188 1710.65,830.769 1692.1,833.89 1675.73,832.803 1663.73,830.216 1654.42,827.721 1642.63,827.537 1630.9,828.14 1619.87,829.379 1607.64,832.4 1592.14,838.488 1572.89,844.072 1552.99,847.195 1533.84,846.489 1545.47,847.391 1555.33,857.644 1570.85,852.255 1588.48,843.897 1607.33,830.679 1622.28,816.478 1631.18,796.833 1621.19,777.185 1602.57,767.389 1586.93,751.075 1579.58,729.435 1556.82,725.036 1537.78,739.729 1509.3,741.095 1483.64,730.052 1479.61,707.216 1491.62,690.506 1490.8,672.988 1488.42,650.345 1502.25,633.844 1504.46,614.062 1509.55,596.655 1503.64,578.775 1484.27,574.766 1470.3,571.179 1486.9,557.309 1507.5,546.412 1537.4,548.501 1566.81,539.324 1589.67,519.398 1605.04,496.677 1621.23,472.926 1647.63,467.635 1676.05,464.029 1703.69,474.607 1725.57,491.195 1745.8,503.284 1758.88,522.724 1771.75,544.288 1767.19,565.926 1738.32,572.083 1713.15,588.309 1680.66,598.952 1652.47,586.947 1621.48,576.263 1604.58,558.591 1592.48,537.454 1589.16,517.572 1605.26,501.485 1625.73,487.182 1648.39,480.045 1671.37,467.431 1689.81,452.407 1714.69,443.579 1734.42,430.642 1760.59,429.381 1756.11,406.019 1773.54,398.124 1789.35,386.151 1803.72,371.729 1787.79,360.78 1769.41,351.381 1763.52,332.127 1788.15,337.172 1811.43,342.475 1834.53,343.962 1859.25,340.474 1886.83,340.647 1903.71,358.003 1912.17,381.424 1899.99,400.234 1889.22,423.344 1871.35,436.507 1854.16,458.913 1846.96,488.069 1846.27,516.368 1815.09,519.291 1788.65,535.284 1759.38,538.598 1731.23,549.715 1715.99,571.269 1693.11,586.75 1664.99,585.829 1641.34,577.543 1618.76,565.332 1595.25,560.043 1577.64,548.852 1566.56,528.724 1578.06,507.278 1604.85,496.561 1635.62,497.173 1666.9,498.982 1697.21,508.893 1723.62,519.987 1732.5,542.814 1734.27,566.954 1764.23,569.741 1789.27,570.881 1808.87,583 1830.27,586.954 1845.21,574.651 1867.46,570.411 1890.58,564.872 1914.23,563.53 1931.31,579.539 1932.43,603.763 1924.99,625.409 1911.5,652.917 1890.45,678.441 1864.77,699.775 1849.36,725.947 1838.72,752.935 1808.01,759.089 1779,762.477 1753.91,775.035 1728.72,792.204 1706.27,811.724 1695.23,838.729 1672.7,858.757 1643.02,865.329 1618.96,850.758 1588.69,846.224 1558.6,846.272 1529.62,836.653 1511.47,814.094 1503.14,787.427 1478.36,771.84 1454.76,756.291 1432.12,737.955 1404.82,733.181 1383.37,745.806 1354.84,745.589 1331.28,730.173 1329.37,705.55 1307.24,690.937 1286.5,700.712 1266.11,712.537 1250.49,730.25 1233.35,743.906 1203.96,746.701 1176.78,741.377 1152.74,730.034 1139.34,705.144 1111.35,707.931 1081.13,708.159 1053.86,702.551 1034.06,689.931 1010.26,681.95 993.981,660.007 983.69,640.028 1004.8,623.534 1010.7,598.02 1023.5,576.313 1030.2,553.717 1033.59,528.998 1024.05,507.035 1000.74,514.933 982.41,494.614 1004.39,473.027 1038.42,474.744 1072.36,481.592 1105.19,479.046 1139.88,471.14 1161.84,450.202 1181.7,424.509 1213.08,409.178 1245.04,398.25 1277.72,405.57 1309.74,416.467 1337.82,430.699 1364.83,445.242 1397.07,454.531 1421,473.447 1453.08,479.918 1478.03,499.001 1510.39,514.138 1533.49,536.872 1552.91,556.275 1575.08,571.455 1600.78,580.94 1617.27,565.355 1641.29,554.564 1665.61,542.176 1691.07,529.824 1720.81,524.464 1754.02,528.075 1785.47,538.213 1813.78,554.112 1815.98,586.627 1809.27,615.991 1796.85,644.503 1789.53,675.5 1784.38,708.126 1782.15,741.616 1798.16,768.096 1828.09,786.506 1861.09,786.774 1891.22,789.465 1919.71,804.193 1945.76,828.235 1968.27,851.324 1988.59,876.185 1999.84,904.759 1997.87,932.629 2023.3,917.428 2053.85,919.409 2078.06,929.159 2084.68,941.923 2085.8,945.609 2091.14,957.41 2093.38,968.85 2100.98,983.278 2121.87,983.397 2140.36,976.024 2166.52,975.798 2192.2,980.924 2202.49,999.51 2211.53,1017.59 2213.13,1032.48 2220.83,1010.64 2226.59,989.666 2216.94,966.705 2207.57,942.604 2196.73,921.661 2190.66,898.575 2179.94,874.125 2158.72,855.738 2149.9,831.257 2154.66,808.313 2176.1,791.134 2200.38,793.397 2227.48,800.217 2241.26,820.495 2255.73,842.766 2276.57,861.238 2291.2,884.323 2278,908.314 2259.95,929.428 2241.75,950.741 2211.66,957.351 2190.54,978.386 2160.81,992.649 2139.72,1014.18 2126.97,1039.45 2115.49,1064.96 2091.64,1083.62 2068.77,1101.85 2047.02,1121.03 2020.58,1134.86 1994.59,1149.59 1970.78,1165.67 1940.95,1176.5 1916.03,1192.11 1893.71,1208.01 1868.71,1225.22 1841.74,1237.8 1825.39,1259.3 1812.25,1282.98 1798.94,1305.34 1792.24,1329.17 1794.09,1354.73 1815.83,1370.01 1823.75,1392.21 1823.14,1415.63 1809.29,1433.87 1785.4,1445.72 1761.97,1435.51 1746.5,1412.62 1726.73,1390.01 1706.34,1368.01 1683.87,1343.83 1657.21,1320.42 1622.28,1310.68 1586.82,1315.07 1553.23,1326.14 1518.2,1333.31 1483.59,1333.4 1450.77,1321.23 1424.93,1302.13 1409.96,1275.2 1409.43,1244.99 1402.19,1214.63 1382.96,1187.25 1363.67,1164.48 1369.6,1134.77 1369.32,1105.84 1352.76,1079.53 1337.64,1053.86 1326.31,1026.11 1323.37,995.473 1324.98,963.59 1334.18,931.007 1351.87,902.584 1369.87,875.676 1387.75,848.255 1409.19,823.866 1405.03,793.238 1392.88,767.81 1363.46,751.967 1331.05,748.627 1306.34,730.549 1301.27,701.54 1295.9,673.44 1301.85,645.358 1314.24,620.419 1345.84,611.757 1376.93,600.064 1413.45,596.896 1448.73,597.073 1481.88,592.096 1511.46,581.828 1532.43,561.893 1553.6,542.494 1583.24,538.12 1608.03,529.369 1607.21,506.719 1593.94,486.443 1570.77,470.465 1542.97,458.43 1521.21,438.005 1504.56,414.881 1485.04,393.689 1471.32,370.768 1465.49,348.573 1466.97,324.258 1493.27,317.25 1518.89,328.915 1551.41,332.174 1582.76,337.197 1614.23,341.854 1648,344.731 1679.68,350.389 1706.01,366.121 1734.03,373.86 1763.74,366.975 1790.46,355.684 1819.47,351.62 1846.98,349.82 1873.43,349.53 1891.51,363.522 1904.6,375.397 1917.29,361.455 1931.23,347.15 1945.74,334.025 1965.69,326.752 1988.62,321.238 2004.35,309.614 1988.16,301.191 1972.02,284.502 1958.51,265.011 1947,242.123 1946.67,216.24 1971.98,200.909 1998.57,189.864 2029.25,195.306 2062.56,198.159 2095.3,205.506 2126.27,214.991 2151.57,235.049 2154.9,263.949 2144.31,287.167 2129.99,298.679 2136.53,321.42 2138.34,347.269 2129.03,374.54 2111.53,399.943 2085.09,423.366 2060.47,445.882 2041.52,471.563 2032.05,502.764 1998.99,511.945 1966.07,515.558 1935.83,528.045 1903.76,540.431 1884.39,563.995 1872.6,591.193 1879.87,615.781 1907.78,624.85 1938.26,634.442 1969.38,650.432 2000.94,668.127 2030.04,687.592 2069.04,687.377 2103.24,684.168 2141.04,688.356 2167.22,694.134 2188.27,686.391 2208.71,676.958 2226.22,654.166 2235.05,632.653 2235.81,606.385 2231.97,583.5 2213.02,567.91 2189.95,548.358 2172.96,524.879 2144.71,510.782 2112.87,519.084 2082.78,526.888 2056.54,543.066 2036.53,565.382 2015.49,588.597 2002.97,618.097 2010.39,647.941 2022.05,677.664 2041.91,703.281 2053.34,733.416 2061.5,763.84 2075.94,792.805 2108.62,805.869 2141.53,821.458 2163.39,846.156 2185.8,867.382 2203.56,891.772 2207.37,919.372 2194.91,940.839 2167.81,942.473 2140.88,952.9 2113.28,952.052 2090.61,959.649 2065.52,963.226 2041.28,950.974 2012.49,941.773 1978.8,935.175 1943.49,943.499 1908.8,956.512 1871.09,968.966 1832.96,967.4 1795.23,975.123 1758.09,973.345 1722.16,976.836 1686.34,976.717 1650.84,974.658 1616.32,967.13 1581.85,957.064 1557.16,933.439 1524.1,920.733 1488.78,910.196 1460.06,893.822 1428.88,877.176 1403.83,855.143 1369.63,850.536 1341.64,863.255 1313.56,879.866 1284.54,897.667 1252.57,911.575 1217.68,920.093 1180.73,917.138 1151.49,898.733 1135.92,869.205 1119.79,840.051 1096.17,814.237 1086.21,785.545 1089.94,755.593 1091.01,728.638 1073.39,703.14 1047.61,686.036 1021.12,670.32 1001.04,648.796 988.703,622.734 984.55,595.277 976.456,568.754 990.539,545.772 1006.67,528.455 1022.09,511.972 1034.96,497.219 1035.95,476.34 1043.47,456.958 1053.3,433.096 1066.52,409.344 1070.46,381.689 1076.56,354.924 1076.84,330.631 1058.96,311.089 1036.78,299.466 1009.88,300.964 980.788,305.81 951.134,297.669 922.56,286.708 894.046,275.534 865.659,270.102 836.899,267.478 823.197,245.574 826.546,221.02 842.513,200.592 866.603,185.26 895.604,168.06 929.421,159.329 957.311,146.596 989.912,144.315 1020.63,150.798 1049,162.761 1081.37,155.387 1111.95,146.695 1137.03,131.265 1153.77,110.729 1169.92,91.7321 "/>
<path clip-path="url(#clip190)" d="M250.367 1438.47 L793.155 1438.47 L793.155 1231.11 L250.367 1231.11  Z" fill="#ffffff" fill-rule="evenodd" fill-opacity="1"/>
<polyline clip-path="url(#clip190)" style="stroke:#000000; stroke-linecap:round; stroke-linejoin:round; stroke-width:4; stroke-opacity:1; fill:none" points="250.367,1438.47 793.155,1438.47 793.155,1231.11 250.367,1231.11 250.367,1438.47 "/>
<polyline clip-path="url(#clip190)" style="stroke:#0000ff; stroke-linecap:round; stroke-linejoin:round; stroke-width:4; stroke-opacity:1; fill:none" points="274.533,1282.95 419.525,1282.95 "/>
<path clip-path="url(#clip190)" d="M467.718 1286.21 L467.718 1288.29 L448.135 1288.29 Q448.413 1292.69 450.774 1295 Q453.158 1297.29 457.394 1297.29 Q459.848 1297.29 462.139 1296.69 Q464.454 1296.09 466.723 1294.89 L466.723 1298.91 Q464.431 1299.89 462.024 1300.4 Q459.616 1300.91 457.14 1300.91 Q450.936 1300.91 447.302 1297.29 Q443.691 1293.68 443.691 1287.53 Q443.691 1281.16 447.116 1277.43 Q450.565 1273.68 456.399 1273.68 Q461.63 1273.68 464.663 1277.06 Q467.718 1280.42 467.718 1286.21 M463.459 1284.96 Q463.413 1281.46 461.491 1279.38 Q459.593 1277.29 456.445 1277.29 Q452.88 1277.29 450.728 1279.31 Q448.598 1281.32 448.274 1284.98 L463.459 1284.96 Z" fill="#000000" fill-rule="nonzero" fill-opacity="1" /><path clip-path="url(#clip190)" d="M491.237 1275.07 L491.237 1279.1 Q489.431 1278.17 487.487 1277.71 Q485.542 1277.25 483.459 1277.25 Q480.288 1277.25 478.69 1278.22 Q477.116 1279.19 477.116 1281.14 Q477.116 1282.62 478.251 1283.48 Q479.385 1284.31 482.811 1285.07 L484.269 1285.4 Q488.806 1286.37 490.704 1288.15 Q492.625 1289.91 492.625 1293.08 Q492.625 1296.69 489.755 1298.8 Q486.908 1300.91 481.908 1300.91 Q479.825 1300.91 477.556 1300.49 Q475.311 1300.1 472.811 1299.29 L472.811 1294.89 Q475.172 1296.11 477.463 1296.74 Q479.755 1297.34 482 1297.34 Q485.01 1297.34 486.63 1296.32 Q488.25 1295.28 488.25 1293.41 Q488.25 1291.67 487.07 1290.74 Q485.912 1289.82 481.954 1288.96 L480.473 1288.61 Q476.514 1287.78 474.755 1286.07 Q472.996 1284.33 472.996 1281.32 Q472.996 1277.67 475.588 1275.67 Q478.181 1273.68 482.95 1273.68 Q485.311 1273.68 487.394 1274.03 Q489.477 1274.38 491.237 1275.07 Z" fill="#000000" fill-rule="nonzero" fill-opacity="1" /><path clip-path="url(#clip190)" d="M503.621 1266.95 L503.621 1274.31 L512.394 1274.31 L512.394 1277.62 L503.621 1277.62 L503.621 1291.69 Q503.621 1294.86 504.477 1295.77 Q505.357 1296.67 508.019 1296.67 L512.394 1296.67 L512.394 1300.23 L508.019 1300.23 Q503.088 1300.23 501.213 1298.41 Q499.338 1296.55 499.338 1291.69 L499.338 1277.62 L496.213 1277.62 L496.213 1274.31 L499.338 1274.31 L499.338 1266.95 L503.621 1266.95 Z" fill="#000000" fill-rule="nonzero" fill-opacity="1" /><path clip-path="url(#clip190)" d="M517.996 1274.31 L522.255 1274.31 L522.255 1300.23 L517.996 1300.23 L517.996 1274.31 M517.996 1264.22 L522.255 1264.22 L522.255 1269.61 L517.996 1269.61 L517.996 1264.22 Z" fill="#000000" fill-rule="nonzero" fill-opacity="1" /><path clip-path="url(#clip190)" d="M551.352 1279.29 Q552.949 1276.42 555.171 1275.05 Q557.394 1273.68 560.403 1273.68 Q564.454 1273.68 566.653 1276.53 Q568.852 1279.35 568.852 1284.59 L568.852 1300.23 L564.569 1300.23 L564.569 1284.73 Q564.569 1281 563.25 1279.19 Q561.931 1277.39 559.222 1277.39 Q555.912 1277.39 553.991 1279.59 Q552.07 1281.79 552.07 1285.58 L552.07 1300.23 L547.787 1300.23 L547.787 1284.73 Q547.787 1280.98 546.468 1279.19 Q545.148 1277.39 542.394 1277.39 Q539.13 1277.39 537.209 1279.61 Q535.287 1281.81 535.287 1285.58 L535.287 1300.23 L531.005 1300.23 L531.005 1274.31 L535.287 1274.31 L535.287 1278.34 Q536.746 1275.95 538.783 1274.82 Q540.82 1273.68 543.621 1273.68 Q546.445 1273.68 548.412 1275.12 Q550.403 1276.55 551.352 1279.29 Z" fill="#000000" fill-rule="nonzero" fill-opacity="1" /><path clip-path="url(#clip190)" d="M589.13 1287.2 Q583.968 1287.2 581.977 1288.38 Q579.986 1289.56 579.986 1292.41 Q579.986 1294.68 581.468 1296.02 Q582.972 1297.34 585.542 1297.34 Q589.083 1297.34 591.213 1294.84 Q593.366 1292.32 593.366 1288.15 L593.366 1287.2 L589.13 1287.2 M597.625 1285.44 L597.625 1300.23 L593.366 1300.23 L593.366 1296.3 Q591.907 1298.66 589.731 1299.79 Q587.555 1300.91 584.407 1300.91 Q580.426 1300.91 578.065 1298.68 Q575.727 1296.44 575.727 1292.69 Q575.727 1288.31 578.643 1286.09 Q581.583 1283.87 587.393 1283.87 L593.366 1283.87 L593.366 1283.45 Q593.366 1280.51 591.421 1278.92 Q589.5 1277.29 586.005 1277.29 Q583.782 1277.29 581.676 1277.83 Q579.569 1278.36 577.625 1279.42 L577.625 1275.49 Q579.963 1274.59 582.162 1274.15 Q584.361 1273.68 586.444 1273.68 Q592.069 1273.68 594.847 1276.6 Q597.625 1279.52 597.625 1285.44 Z" fill="#000000" fill-rule="nonzero" fill-opacity="1" /><path clip-path="url(#clip190)" d="M610.611 1266.95 L610.611 1274.31 L619.384 1274.31 L619.384 1277.62 L610.611 1277.62 L610.611 1291.69 Q610.611 1294.86 611.467 1295.77 Q612.347 1296.67 615.009 1296.67 L619.384 1296.67 L619.384 1300.23 L615.009 1300.23 Q610.078 1300.23 608.204 1298.41 Q606.329 1296.55 606.329 1291.69 L606.329 1277.62 L603.204 1277.62 L603.204 1274.31 L606.329 1274.31 L606.329 1266.95 L610.611 1266.95 Z" fill="#000000" fill-rule="nonzero" fill-opacity="1" /><path clip-path="url(#clip190)" d="M647.162 1286.21 L647.162 1288.29 L627.578 1288.29 Q627.856 1292.69 630.217 1295 Q632.602 1297.29 636.838 1297.29 Q639.291 1297.29 641.583 1296.69 Q643.898 1296.09 646.166 1294.89 L646.166 1298.91 Q643.875 1299.89 641.467 1300.4 Q639.06 1300.91 636.583 1300.91 Q630.379 1300.91 626.745 1297.29 Q623.134 1293.68 623.134 1287.53 Q623.134 1281.16 626.56 1277.43 Q630.009 1273.68 635.842 1273.68 Q641.074 1273.68 644.106 1277.06 Q647.162 1280.42 647.162 1286.21 M642.902 1284.96 Q642.856 1281.46 640.935 1279.38 Q639.037 1277.29 635.889 1277.29 Q632.324 1277.29 630.171 1279.31 Q628.041 1281.32 627.717 1284.98 L642.902 1284.96 Z" fill="#000000" fill-rule="nonzero" fill-opacity="1" /><polyline clip-path="url(#clip190)" style="stroke:#ff0000; stroke-linecap:round; stroke-linejoin:round; stroke-width:4; stroke-opacity:1; fill:none" points="274.533,1334.79 419.525,1334.79 "/>
<path clip-path="url(#clip190)" d="M464.038 1331.13 Q465.635 1328.26 467.857 1326.89 Q470.079 1325.52 473.088 1325.52 Q477.139 1325.52 479.338 1328.37 Q481.538 1331.19 481.538 1336.43 L481.538 1352.07 L477.255 1352.07 L477.255 1336.57 Q477.255 1332.84 475.936 1331.03 Q474.616 1329.23 471.908 1329.23 Q468.598 1329.23 466.676 1331.43 Q464.755 1333.63 464.755 1337.42 L464.755 1352.07 L460.473 1352.07 L460.473 1336.57 Q460.473 1332.82 459.153 1331.03 Q457.834 1329.23 455.079 1329.23 Q451.815 1329.23 449.894 1331.45 Q447.973 1333.65 447.973 1337.42 L447.973 1352.07 L443.691 1352.07 L443.691 1326.15 L447.973 1326.15 L447.973 1330.18 Q449.431 1327.79 451.468 1326.66 Q453.505 1325.52 456.306 1325.52 Q459.13 1325.52 461.098 1326.96 Q463.089 1328.39 464.038 1331.13 Z" fill="#000000" fill-rule="nonzero" fill-opacity="1" /><path clip-path="url(#clip190)" d="M512.209 1338.05 L512.209 1340.13 L492.625 1340.13 Q492.903 1344.53 495.264 1346.84 Q497.649 1349.13 501.885 1349.13 Q504.338 1349.13 506.63 1348.53 Q508.945 1347.93 511.213 1346.73 L511.213 1350.75 Q508.922 1351.73 506.514 1352.24 Q504.107 1352.75 501.63 1352.75 Q495.426 1352.75 491.792 1349.13 Q488.181 1345.52 488.181 1339.37 Q488.181 1333 491.607 1329.27 Q495.056 1325.52 500.889 1325.52 Q506.121 1325.52 509.153 1328.9 Q512.209 1332.26 512.209 1338.05 M507.949 1336.8 Q507.903 1333.3 505.982 1331.22 Q504.084 1329.13 500.936 1329.13 Q497.371 1329.13 495.218 1331.15 Q493.088 1333.16 492.764 1336.82 L507.949 1336.8 Z" fill="#000000" fill-rule="nonzero" fill-opacity="1" /><path clip-path="url(#clip190)" d="M530.982 1339.04 Q525.82 1339.04 523.829 1340.22 Q521.838 1341.4 521.838 1344.25 Q521.838 1346.52 523.32 1347.86 Q524.824 1349.18 527.394 1349.18 Q530.935 1349.18 533.065 1346.68 Q535.218 1344.16 535.218 1339.99 L535.218 1339.04 L530.982 1339.04 M539.477 1337.28 L539.477 1352.07 L535.218 1352.07 L535.218 1348.14 Q533.759 1350.5 531.584 1351.63 Q529.408 1352.75 526.26 1352.75 Q522.278 1352.75 519.917 1350.52 Q517.579 1348.28 517.579 1344.53 Q517.579 1340.15 520.496 1337.93 Q523.435 1335.71 529.246 1335.71 L535.218 1335.71 L535.218 1335.29 Q535.218 1332.35 533.273 1330.76 Q531.352 1329.13 527.857 1329.13 Q525.635 1329.13 523.528 1329.67 Q521.422 1330.2 519.477 1331.26 L519.477 1327.33 Q521.815 1326.43 524.014 1325.99 Q526.213 1325.52 528.297 1325.52 Q533.922 1325.52 536.699 1328.44 Q539.477 1331.36 539.477 1337.28 Z" fill="#000000" fill-rule="nonzero" fill-opacity="1" /><path clip-path="url(#clip190)" d="M564.778 1326.91 L564.778 1330.94 Q562.972 1330.01 561.028 1329.55 Q559.083 1329.09 557 1329.09 Q553.829 1329.09 552.232 1330.06 Q550.658 1331.03 550.658 1332.98 Q550.658 1334.46 551.792 1335.32 Q552.926 1336.15 556.352 1336.91 L557.81 1337.24 Q562.347 1338.21 564.245 1339.99 Q566.167 1341.75 566.167 1344.92 Q566.167 1348.53 563.296 1350.64 Q560.449 1352.75 555.449 1352.75 Q553.366 1352.75 551.097 1352.33 Q548.852 1351.94 546.352 1351.13 L546.352 1346.73 Q548.713 1347.95 551.005 1348.58 Q553.296 1349.18 555.542 1349.18 Q558.551 1349.18 560.171 1348.16 Q561.792 1347.12 561.792 1345.25 Q561.792 1343.51 560.611 1342.58 Q559.454 1341.66 555.495 1340.8 L554.014 1340.45 Q550.056 1339.62 548.296 1337.91 Q546.537 1336.17 546.537 1333.16 Q546.537 1329.51 549.13 1327.51 Q551.722 1325.52 556.491 1325.52 Q558.852 1325.52 560.935 1325.87 Q563.019 1326.22 564.778 1326.91 Z" fill="#000000" fill-rule="nonzero" fill-opacity="1" /><path clip-path="url(#clip190)" d="M572.509 1341.84 L572.509 1326.15 L576.768 1326.15 L576.768 1341.68 Q576.768 1345.36 578.204 1347.21 Q579.639 1349.04 582.509 1349.04 Q585.958 1349.04 587.949 1346.84 Q589.963 1344.64 589.963 1340.85 L589.963 1326.15 L594.222 1326.15 L594.222 1352.07 L589.963 1352.07 L589.963 1348.09 Q588.412 1350.45 586.352 1351.61 Q584.315 1352.75 581.606 1352.75 Q577.139 1352.75 574.824 1349.97 Q572.509 1347.19 572.509 1341.84 M583.227 1325.52 L583.227 1325.52 Z" fill="#000000" fill-rule="nonzero" fill-opacity="1" /><path clip-path="url(#clip190)" d="M618.018 1330.13 Q617.301 1329.71 616.444 1329.53 Q615.611 1329.32 614.592 1329.32 Q610.981 1329.32 609.037 1331.68 Q607.116 1334.02 607.116 1338.42 L607.116 1352.07 L602.833 1352.07 L602.833 1326.15 L607.116 1326.15 L607.116 1330.18 Q608.458 1327.82 610.611 1326.68 Q612.764 1325.52 615.842 1325.52 Q616.282 1325.52 616.815 1325.59 Q617.347 1325.64 617.995 1325.76 L618.018 1330.13 Z" fill="#000000" fill-rule="nonzero" fill-opacity="1" /><path clip-path="url(#clip190)" d="M643.62 1338.05 L643.62 1340.13 L624.037 1340.13 Q624.315 1344.53 626.676 1346.84 Q629.06 1349.13 633.296 1349.13 Q635.75 1349.13 638.041 1348.53 Q640.356 1347.93 642.625 1346.73 L642.625 1350.75 Q640.333 1351.73 637.926 1352.24 Q635.518 1352.75 633.041 1352.75 Q626.838 1352.75 623.203 1349.13 Q619.592 1345.52 619.592 1339.37 Q619.592 1333 623.018 1329.27 Q626.467 1325.52 632.301 1325.52 Q637.532 1325.52 640.564 1328.9 Q643.62 1332.26 643.62 1338.05 M639.361 1336.8 Q639.314 1333.3 637.393 1331.22 Q635.495 1329.13 632.347 1329.13 Q628.782 1329.13 626.629 1331.15 Q624.5 1333.16 624.176 1336.82 L639.361 1336.8 Z" fill="#000000" fill-rule="nonzero" fill-opacity="1" /><path clip-path="url(#clip190)" d="M670.796 1331.13 Q672.393 1328.26 674.615 1326.89 Q676.837 1325.52 679.847 1325.52 Q683.898 1325.52 686.097 1328.37 Q688.296 1331.19 688.296 1336.43 L688.296 1352.07 L684.013 1352.07 L684.013 1336.57 Q684.013 1332.84 682.694 1331.03 Q681.374 1329.23 678.666 1329.23 Q675.356 1329.23 673.435 1331.43 Q671.513 1333.63 671.513 1337.42 L671.513 1352.07 L667.231 1352.07 L667.231 1336.57 Q667.231 1332.82 665.912 1331.03 Q664.592 1329.23 661.837 1329.23 Q658.574 1329.23 656.652 1331.45 Q654.731 1333.65 654.731 1337.42 L654.731 1352.07 L650.449 1352.07 L650.449 1326.15 L654.731 1326.15 L654.731 1330.18 Q656.189 1327.79 658.226 1326.66 Q660.263 1325.52 663.064 1325.52 Q665.888 1325.52 667.856 1326.96 Q669.847 1328.39 670.796 1331.13 Z" fill="#000000" fill-rule="nonzero" fill-opacity="1" /><path clip-path="url(#clip190)" d="M718.967 1338.05 L718.967 1340.13 L699.384 1340.13 Q699.661 1344.53 702.022 1346.84 Q704.407 1349.13 708.643 1349.13 Q711.096 1349.13 713.388 1348.53 Q715.703 1347.93 717.971 1346.73 L717.971 1350.75 Q715.68 1351.73 713.272 1352.24 Q710.865 1352.75 708.388 1352.75 Q702.184 1352.75 698.55 1349.13 Q694.939 1345.52 694.939 1339.37 Q694.939 1333 698.365 1329.27 Q701.814 1325.52 707.647 1325.52 Q712.879 1325.52 715.911 1328.9 Q718.967 1332.26 718.967 1338.05 M714.708 1336.8 Q714.661 1333.3 712.74 1331.22 Q710.842 1329.13 707.694 1329.13 Q704.129 1329.13 701.976 1331.15 Q699.847 1333.16 699.522 1336.82 L714.708 1336.8 Z" fill="#000000" fill-rule="nonzero" fill-opacity="1" /><path clip-path="url(#clip190)" d="M747.508 1336.43 L747.508 1352.07 L743.249 1352.07 L743.249 1336.57 Q743.249 1332.88 741.814 1331.06 Q740.379 1329.23 737.508 1329.23 Q734.059 1329.23 732.069 1331.43 Q730.078 1333.63 730.078 1337.42 L730.078 1352.07 L725.795 1352.07 L725.795 1326.15 L730.078 1326.15 L730.078 1330.18 Q731.606 1327.84 733.666 1326.68 Q735.749 1325.52 738.457 1325.52 Q742.925 1325.52 745.217 1328.3 Q747.508 1331.06 747.508 1336.43 Z" fill="#000000" fill-rule="nonzero" fill-opacity="1" /><path clip-path="url(#clip190)" d="M760.217 1318.79 L760.217 1326.15 L768.99 1326.15 L768.99 1329.46 L760.217 1329.46 L760.217 1343.53 Q760.217 1346.7 761.073 1347.61 Q761.953 1348.51 764.615 1348.51 L768.99 1348.51 L768.99 1352.07 L764.615 1352.07 Q759.684 1352.07 757.809 1350.25 Q755.934 1348.39 755.934 1343.53 L755.934 1329.46 L752.809 1329.46 L752.809 1326.15 L755.934 1326.15 L755.934 1318.79 L760.217 1318.79 Z" fill="#000000" fill-rule="nonzero" fill-opacity="1" /><polyline clip-path="url(#clip190)" style="stroke:#3da44d; stroke-linecap:round; stroke-linejoin:round; stroke-width:4; stroke-opacity:1; fill:none" points="274.533,1386.63 419.525,1386.63 "/>
<path clip-path="url(#clip190)" d="M468.343 1377.99 L458.968 1390.6 L468.829 1403.91 L463.806 1403.91 L456.26 1393.73 L448.714 1403.91 L443.691 1403.91 L453.76 1390.35 L444.547 1377.99 L449.57 1377.99 L456.445 1387.22 L463.32 1377.99 L468.343 1377.99 Z" fill="#000000" fill-rule="nonzero" fill-opacity="1" /><path clip-path="url(#clip190)" d="M491.375 1378.75 L491.375 1382.78 Q489.57 1381.85 487.625 1381.39 Q485.681 1380.93 483.598 1380.93 Q480.426 1380.93 478.829 1381.9 Q477.255 1382.87 477.255 1384.82 Q477.255 1386.3 478.389 1387.16 Q479.524 1387.99 482.95 1388.75 L484.408 1389.08 Q488.945 1390.05 490.843 1391.83 Q492.764 1393.59 492.764 1396.76 Q492.764 1400.37 489.894 1402.48 Q487.047 1404.59 482.047 1404.59 Q479.963 1404.59 477.695 1404.17 Q475.45 1403.78 472.95 1402.97 L472.95 1398.57 Q475.311 1399.79 477.602 1400.42 Q479.894 1401.02 482.139 1401.02 Q485.149 1401.02 486.769 1400 Q488.389 1398.96 488.389 1397.09 Q488.389 1395.35 487.209 1394.42 Q486.051 1393.5 482.093 1392.64 L480.612 1392.29 Q476.653 1391.46 474.894 1389.75 Q473.135 1388.01 473.135 1385 Q473.135 1381.35 475.727 1379.35 Q478.32 1377.36 483.088 1377.36 Q485.45 1377.36 487.533 1377.71 Q489.616 1378.06 491.375 1378.75 Z" fill="#000000" fill-rule="nonzero" fill-opacity="1" /></svg>
