<?xml version="1.0" encoding="utf-8"?>
<svg xmlns="http://www.w3.org/2000/svg" xmlns:xlink="http://www.w3.org/1999/xlink" width="600" height="400" viewBox="0 0 2400 1600">
<defs>
  <clipPath id="clip420">
    <rect x="0" y="0" width="2400" height="1600"/>
  </clipPath>
</defs>
<path clip-path="url(#clip420)" d="M0 1600 L2400 1600 L2400 0 L0 0  Z" fill="#ffffff" fill-rule="evenodd" fill-opacity="1"/>
<defs>
  <clipPath id="clip421">
    <rect x="1408" y="47" width="945" height="1440"/>
  </clipPath>
</defs>
<path clip-path="url(#clip420)" d="M192.941 1486.45 L1137.18 1486.45 L1137.18 47.2441 L192.941 47.2441  Z" fill="#ffffff" fill-rule="evenodd" fill-opacity="1"/>
<defs>
  <clipPath id="clip422">
    <rect x="192" y="47" width="945" height="1440"/>
  </clipPath>
</defs>
<polyline clip-path="url(#clip422)" style="stroke:#000000; stroke-linecap:round; stroke-linejoin:round; stroke-width:2; stroke-opacity:0.1; fill:none" points="208.388,1486.45 208.388,47.2441 "/>
<polyline clip-path="url(#clip422)" style="stroke:#000000; stroke-linecap:round; stroke-linejoin:round; stroke-width:2; stroke-opacity:0.1; fill:none" points="433.905,1486.45 433.905,47.2441 "/>
<polyline clip-path="url(#clip422)" style="stroke:#000000; stroke-linecap:round; stroke-linejoin:round; stroke-width:2; stroke-opacity:0.1; fill:none" points="659.421,1486.45 659.421,47.2441 "/>
<polyline clip-path="url(#clip422)" style="stroke:#000000; stroke-linecap:round; stroke-linejoin:round; stroke-width:2; stroke-opacity:0.1; fill:none" points="884.937,1486.45 884.937,47.2441 "/>
<polyline clip-path="url(#clip422)" style="stroke:#000000; stroke-linecap:round; stroke-linejoin:round; stroke-width:2; stroke-opacity:0.1; fill:none" points="1110.45,1486.45 1110.45,47.2441 "/>
<polyline clip-path="url(#clip422)" style="stroke:#000000; stroke-linecap:round; stroke-linejoin:round; stroke-width:2; stroke-opacity:0.1; fill:none" points="192.941,1278.31 1137.18,1278.31 "/>
<polyline clip-path="url(#clip422)" style="stroke:#000000; stroke-linecap:round; stroke-linejoin:round; stroke-width:2; stroke-opacity:0.1; fill:none" points="192.941,910.149 1137.18,910.149 "/>
<polyline clip-path="url(#clip422)" style="stroke:#000000; stroke-linecap:round; stroke-linejoin:round; stroke-width:2; stroke-opacity:0.1; fill:none" points="192.941,541.99 1137.18,541.99 "/>
<polyline clip-path="url(#clip422)" style="stroke:#000000; stroke-linecap:round; stroke-linejoin:round; stroke-width:2; stroke-opacity:0.1; fill:none" points="192.941,173.832 1137.18,173.832 "/>
<polyline clip-path="url(#clip420)" style="stroke:#000000; stroke-linecap:round; stroke-linejoin:round; stroke-width:4; stroke-opacity:1; fill:none" points="192.941,1486.45 1137.18,1486.45 "/>
<polyline clip-path="url(#clip420)" style="stroke:#000000; stroke-linecap:round; stroke-linejoin:round; stroke-width:4; stroke-opacity:1; fill:none" points="208.388,1486.45 208.388,1467.55 "/>
<polyline clip-path="url(#clip420)" style="stroke:#000000; stroke-linecap:round; stroke-linejoin:round; stroke-width:4; stroke-opacity:1; fill:none" points="433.905,1486.45 433.905,1467.55 "/>
<polyline clip-path="url(#clip420)" style="stroke:#000000; stroke-linecap:round; stroke-linejoin:round; stroke-width:4; stroke-opacity:1; fill:none" points="659.421,1486.45 659.421,1467.55 "/>
<polyline clip-path="url(#clip420)" style="stroke:#000000; stroke-linecap:round; stroke-linejoin:round; stroke-width:4; stroke-opacity:1; fill:none" points="884.937,1486.45 884.937,1467.55 "/>
<polyline clip-path="url(#clip420)" style="stroke:#000000; stroke-linecap:round; stroke-linejoin:round; stroke-width:4; stroke-opacity:1; fill:none" points="1110.45,1486.45 1110.45,1467.55 "/>
<path clip-path="url(#clip420)" d="M208.388 1517.37 Q204.777 1517.37 202.949 1520.93 Q201.143 1524.47 201.143 1531.6 Q201.143 1538.71 202.949 1542.27 Q204.777 1545.82 208.388 1545.82 Q212.023 1545.82 213.828 1542.27 Q215.657 1538.71 215.657 1531.6 Q215.657 1524.47 213.828 1520.93 Q212.023 1517.37 208.388 1517.37 M208.388 1513.66 Q214.199 1513.66 217.254 1518.27 Q220.333 1522.85 220.333 1531.6 Q220.333 1540.33 217.254 1544.94 Q214.199 1549.52 208.388 1549.52 Q202.578 1549.52 199.5 1544.94 Q196.444 1540.33 196.444 1531.6 Q196.444 1522.85 199.5 1518.27 Q202.578 1513.66 208.388 1513.66 Z" fill="#000000" fill-rule="nonzero" fill-opacity="1" /><path clip-path="url(#clip420)" d="M412.678 1544.91 L428.997 1544.91 L428.997 1548.85 L407.053 1548.85 L407.053 1544.91 Q409.715 1542.16 414.298 1537.53 Q418.905 1532.88 420.085 1531.53 Q422.331 1529.01 423.21 1527.27 Q424.113 1525.51 424.113 1523.82 Q424.113 1521.07 422.169 1519.33 Q420.247 1517.6 417.146 1517.6 Q414.947 1517.6 412.493 1518.36 Q410.062 1519.13 407.285 1520.68 L407.285 1515.95 Q410.109 1514.82 412.562 1514.24 Q415.016 1513.66 417.053 1513.66 Q422.423 1513.66 425.618 1516.35 Q428.812 1519.03 428.812 1523.52 Q428.812 1525.65 428.002 1527.57 Q427.215 1529.47 425.109 1532.07 Q424.53 1532.74 421.428 1535.95 Q418.326 1539.15 412.678 1544.91 Z" fill="#000000" fill-rule="nonzero" fill-opacity="1" /><path clip-path="url(#clip420)" d="M448.812 1517.37 Q445.201 1517.37 443.372 1520.93 Q441.567 1524.47 441.567 1531.6 Q441.567 1538.71 443.372 1542.27 Q445.201 1545.82 448.812 1545.82 Q452.446 1545.82 454.252 1542.27 Q456.081 1538.71 456.081 1531.6 Q456.081 1524.47 454.252 1520.93 Q452.446 1517.37 448.812 1517.37 M448.812 1513.66 Q454.622 1513.66 457.678 1518.27 Q460.756 1522.85 460.756 1531.6 Q460.756 1540.33 457.678 1544.94 Q454.622 1549.52 448.812 1549.52 Q443.002 1549.52 439.923 1544.94 Q436.868 1540.33 436.868 1531.6 Q436.868 1522.85 439.923 1518.27 Q443.002 1513.66 448.812 1513.66 Z" fill="#000000" fill-rule="nonzero" fill-opacity="1" /><path clip-path="url(#clip420)" d="M647.592 1518.36 L635.787 1536.81 L647.592 1536.81 L647.592 1518.36 M646.366 1514.29 L652.245 1514.29 L652.245 1536.81 L657.176 1536.81 L657.176 1540.7 L652.245 1540.7 L652.245 1548.85 L647.592 1548.85 L647.592 1540.7 L631.991 1540.7 L631.991 1536.19 L646.366 1514.29 Z" fill="#000000" fill-rule="nonzero" fill-opacity="1" /><path clip-path="url(#clip420)" d="M674.907 1517.37 Q671.296 1517.37 669.467 1520.93 Q667.662 1524.47 667.662 1531.6 Q667.662 1538.71 669.467 1542.27 Q671.296 1545.82 674.907 1545.82 Q678.541 1545.82 680.347 1542.27 Q682.176 1538.71 682.176 1531.6 Q682.176 1524.47 680.347 1520.93 Q678.541 1517.37 674.907 1517.37 M674.907 1513.66 Q680.717 1513.66 683.773 1518.27 Q686.851 1522.85 686.851 1531.6 Q686.851 1540.33 683.773 1544.94 Q680.717 1549.52 674.907 1549.52 Q669.097 1549.52 666.018 1544.94 Q662.963 1540.33 662.963 1531.6 Q662.963 1522.85 666.018 1518.27 Q669.097 1513.66 674.907 1513.66 Z" fill="#000000" fill-rule="nonzero" fill-opacity="1" /><path clip-path="url(#clip420)" d="M870.342 1529.7 Q867.194 1529.7 865.343 1531.86 Q863.514 1534.01 863.514 1537.76 Q863.514 1541.49 865.343 1543.66 Q867.194 1545.82 870.342 1545.82 Q873.491 1545.82 875.319 1543.66 Q877.171 1541.49 877.171 1537.76 Q877.171 1534.01 875.319 1531.86 Q873.491 1529.7 870.342 1529.7 M879.625 1515.05 L879.625 1519.31 Q877.866 1518.48 876.06 1518.04 Q874.278 1517.6 872.518 1517.6 Q867.889 1517.6 865.435 1520.72 Q863.005 1523.85 862.657 1530.17 Q864.023 1528.15 866.083 1527.09 Q868.143 1526 870.62 1526 Q875.829 1526 878.838 1529.17 Q881.87 1532.32 881.87 1537.76 Q881.87 1543.08 878.722 1546.3 Q875.574 1549.52 870.342 1549.52 Q864.347 1549.52 861.176 1544.94 Q858.005 1540.33 858.005 1531.6 Q858.005 1523.41 861.893 1518.55 Q865.782 1513.66 872.333 1513.66 Q874.092 1513.66 875.875 1514.01 Q877.68 1514.36 879.625 1515.05 Z" fill="#000000" fill-rule="nonzero" fill-opacity="1" /><path clip-path="url(#clip420)" d="M899.926 1517.37 Q896.315 1517.37 894.486 1520.93 Q892.68 1524.47 892.68 1531.6 Q892.68 1538.71 894.486 1542.27 Q896.315 1545.82 899.926 1545.82 Q903.56 1545.82 905.365 1542.27 Q907.194 1538.71 907.194 1531.6 Q907.194 1524.47 905.365 1520.93 Q903.56 1517.37 899.926 1517.37 M899.926 1513.66 Q905.736 1513.66 908.791 1518.27 Q911.87 1522.85 911.87 1531.6 Q911.87 1540.33 908.791 1544.94 Q905.736 1549.52 899.926 1549.52 Q894.116 1549.52 891.037 1544.94 Q887.981 1540.33 887.981 1531.6 Q887.981 1522.85 891.037 1518.27 Q894.116 1513.66 899.926 1513.66 Z" fill="#000000" fill-rule="nonzero" fill-opacity="1" /><path clip-path="url(#clip420)" d="M1095.33 1532.44 Q1091.99 1532.44 1090.07 1534.22 Q1088.17 1536 1088.17 1539.13 Q1088.17 1542.25 1090.07 1544.03 Q1091.99 1545.82 1095.33 1545.82 Q1098.66 1545.82 1100.58 1544.03 Q1102.5 1542.23 1102.5 1539.13 Q1102.5 1536 1100.58 1534.22 Q1098.68 1532.44 1095.33 1532.44 M1090.65 1530.45 Q1087.64 1529.7 1085.95 1527.64 Q1084.28 1525.58 1084.28 1522.62 Q1084.28 1518.48 1087.22 1516.07 Q1090.19 1513.66 1095.33 1513.66 Q1100.49 1513.66 1103.43 1516.07 Q1106.37 1518.48 1106.37 1522.62 Q1106.37 1525.58 1104.68 1527.64 Q1103.01 1529.7 1100.03 1530.45 Q1103.41 1531.23 1105.28 1533.52 Q1107.18 1535.82 1107.18 1539.13 Q1107.18 1544.15 1104.1 1546.83 Q1101.04 1549.52 1095.33 1549.52 Q1089.61 1549.52 1086.53 1546.83 Q1083.47 1544.15 1083.47 1539.13 Q1083.47 1535.82 1085.37 1533.52 Q1087.27 1531.23 1090.65 1530.45 M1088.94 1523.06 Q1088.94 1525.75 1090.6 1527.25 Q1092.29 1528.76 1095.33 1528.76 Q1098.34 1528.76 1100.03 1527.25 Q1101.74 1525.75 1101.74 1523.06 Q1101.74 1520.38 1100.03 1518.87 Q1098.34 1517.37 1095.33 1517.37 Q1092.29 1517.37 1090.6 1518.87 Q1088.94 1520.38 1088.94 1523.06 Z" fill="#000000" fill-rule="nonzero" fill-opacity="1" /><path clip-path="url(#clip420)" d="M1125.49 1517.37 Q1121.88 1517.37 1120.05 1520.93 Q1118.24 1524.47 1118.24 1531.6 Q1118.24 1538.71 1120.05 1542.27 Q1121.88 1545.82 1125.49 1545.82 Q1129.12 1545.82 1130.93 1542.27 Q1132.76 1538.71 1132.76 1531.6 Q1132.76 1524.47 1130.93 1520.93 Q1129.12 1517.37 1125.49 1517.37 M1125.49 1513.66 Q1131.3 1513.66 1134.35 1518.27 Q1137.43 1522.85 1137.43 1531.6 Q1137.43 1540.33 1134.35 1544.94 Q1131.3 1549.52 1125.49 1549.52 Q1119.68 1549.52 1116.6 1544.94 Q1113.54 1540.33 1113.54 1531.6 Q1113.54 1522.85 1116.6 1518.27 Q1119.68 1513.66 1125.49 1513.66 Z" fill="#000000" fill-rule="nonzero" fill-opacity="1" /><polyline clip-path="url(#clip420)" style="stroke:#000000; stroke-linecap:round; stroke-linejoin:round; stroke-width:4; stroke-opacity:1; fill:none" points="192.941,1486.45 192.941,47.2441 "/>
<polyline clip-path="url(#clip420)" style="stroke:#000000; stroke-linecap:round; stroke-linejoin:round; stroke-width:4; stroke-opacity:1; fill:none" points="192.941,1278.31 211.838,1278.31 "/>
<polyline clip-path="url(#clip420)" style="stroke:#000000; stroke-linecap:round; stroke-linejoin:round; stroke-width:4; stroke-opacity:1; fill:none" points="192.941,910.149 211.838,910.149 "/>
<polyline clip-path="url(#clip420)" style="stroke:#000000; stroke-linecap:round; stroke-linejoin:round; stroke-width:4; stroke-opacity:1; fill:none" points="192.941,541.99 211.838,541.99 "/>
<polyline clip-path="url(#clip420)" style="stroke:#000000; stroke-linecap:round; stroke-linejoin:round; stroke-width:4; stroke-opacity:1; fill:none" points="192.941,173.832 211.838,173.832 "/>
<path clip-path="url(#clip420)" d="M50.9921 1278.76 L80.6679 1278.76 L80.6679 1282.69 L50.9921 1282.69 L50.9921 1278.76 Z" fill="#000000" fill-rule="nonzero" fill-opacity="1" /><path clip-path="url(#clip420)" d="M100.76 1264.11 Q97.1493 1264.11 95.3206 1267.67 Q93.515 1271.21 93.515 1278.34 Q93.515 1285.45 95.3206 1289.01 Q97.1493 1292.55 100.76 1292.55 Q104.395 1292.55 106.2 1289.01 Q108.029 1285.45 108.029 1278.34 Q108.029 1271.21 106.2 1267.67 Q104.395 1264.11 100.76 1264.11 M100.76 1260.4 Q106.571 1260.4 109.626 1265.01 Q112.705 1269.59 112.705 1278.34 Q112.705 1287.07 109.626 1291.67 Q106.571 1296.26 100.76 1296.26 Q94.9502 1296.26 91.8715 1291.67 Q88.816 1287.07 88.816 1278.34 Q88.816 1269.59 91.8715 1265.01 Q94.9502 1260.4 100.76 1260.4 Z" fill="#000000" fill-rule="nonzero" fill-opacity="1" /><path clip-path="url(#clip420)" d="M120.922 1289.71 L125.807 1289.71 L125.807 1295.59 L120.922 1295.59 L120.922 1289.71 Z" fill="#000000" fill-rule="nonzero" fill-opacity="1" /><path clip-path="url(#clip420)" d="M136.038 1261.03 L154.394 1261.03 L154.394 1264.96 L140.32 1264.96 L140.32 1273.43 Q141.339 1273.09 142.357 1272.92 Q143.376 1272.74 144.394 1272.74 Q150.181 1272.74 153.561 1275.91 Q156.941 1279.08 156.941 1284.5 Q156.941 1290.08 153.468 1293.18 Q149.996 1296.26 143.677 1296.26 Q141.501 1296.26 139.232 1295.89 Q136.987 1295.52 134.58 1294.78 L134.58 1290.08 Q136.663 1291.21 138.885 1291.77 Q141.107 1292.32 143.584 1292.32 Q147.589 1292.32 149.927 1290.22 Q152.265 1288.11 152.265 1284.5 Q152.265 1280.89 149.927 1278.78 Q147.589 1276.67 143.584 1276.67 Q141.709 1276.67 139.834 1277.09 Q137.982 1277.51 136.038 1278.39 L136.038 1261.03 Z" fill="#000000" fill-rule="nonzero" fill-opacity="1" /><path clip-path="url(#clip420)" d="M99.765 895.947 Q96.1539 895.947 94.3252 899.512 Q92.5197 903.054 92.5197 910.183 Q92.5197 917.29 94.3252 920.854 Q96.1539 924.396 99.765 924.396 Q103.399 924.396 105.205 920.854 Q107.033 917.29 107.033 910.183 Q107.033 903.054 105.205 899.512 Q103.399 895.947 99.765 895.947 M99.765 892.244 Q105.575 892.244 108.631 896.85 Q111.709 901.433 111.709 910.183 Q111.709 918.91 108.631 923.517 Q105.575 928.1 99.765 928.1 Q93.9549 928.1 90.8762 923.517 Q87.8206 918.91 87.8206 910.183 Q87.8206 901.433 90.8762 896.85 Q93.9549 892.244 99.765 892.244 Z" fill="#000000" fill-rule="nonzero" fill-opacity="1" /><path clip-path="url(#clip420)" d="M119.927 921.549 L124.811 921.549 L124.811 927.429 L119.927 927.429 L119.927 921.549 Z" fill="#000000" fill-rule="nonzero" fill-opacity="1" /><path clip-path="url(#clip420)" d="M144.996 895.947 Q141.385 895.947 139.556 899.512 Q137.751 903.054 137.751 910.183 Q137.751 917.29 139.556 920.854 Q141.385 924.396 144.996 924.396 Q148.63 924.396 150.436 920.854 Q152.265 917.29 152.265 910.183 Q152.265 903.054 150.436 899.512 Q148.63 895.947 144.996 895.947 M144.996 892.244 Q150.806 892.244 153.862 896.85 Q156.941 901.433 156.941 910.183 Q156.941 918.91 153.862 923.517 Q150.806 928.1 144.996 928.1 Q139.186 928.1 136.107 923.517 Q133.052 918.91 133.052 910.183 Q133.052 901.433 136.107 896.85 Q139.186 892.244 144.996 892.244 Z" fill="#000000" fill-rule="nonzero" fill-opacity="1" /><path clip-path="url(#clip420)" d="M100.76 527.789 Q97.1493 527.789 95.3206 531.354 Q93.515 534.895 93.515 542.025 Q93.515 549.132 95.3206 552.696 Q97.1493 556.238 100.76 556.238 Q104.395 556.238 106.2 552.696 Q108.029 549.132 108.029 542.025 Q108.029 534.895 106.2 531.354 Q104.395 527.789 100.76 527.789 M100.76 524.085 Q106.571 524.085 109.626 528.692 Q112.705 533.275 112.705 542.025 Q112.705 550.752 109.626 555.358 Q106.571 559.942 100.76 559.942 Q94.9502 559.942 91.8715 555.358 Q88.816 550.752 88.816 542.025 Q88.816 533.275 91.8715 528.692 Q94.9502 524.085 100.76 524.085 Z" fill="#000000" fill-rule="nonzero" fill-opacity="1" /><path clip-path="url(#clip420)" d="M120.922 553.391 L125.807 553.391 L125.807 559.27 L120.922 559.27 L120.922 553.391 Z" fill="#000000" fill-rule="nonzero" fill-opacity="1" /><path clip-path="url(#clip420)" d="M136.038 524.71 L154.394 524.71 L154.394 528.646 L140.32 528.646 L140.32 537.118 Q141.339 536.77 142.357 536.608 Q143.376 536.423 144.394 536.423 Q150.181 536.423 153.561 539.595 Q156.941 542.766 156.941 548.182 Q156.941 553.761 153.468 556.863 Q149.996 559.942 143.677 559.942 Q141.501 559.942 139.232 559.571 Q136.987 559.201 134.58 558.46 L134.58 553.761 Q136.663 554.895 138.885 555.451 Q141.107 556.006 143.584 556.006 Q147.589 556.006 149.927 553.9 Q152.265 551.794 152.265 548.182 Q152.265 544.571 149.927 542.465 Q147.589 540.358 143.584 540.358 Q141.709 540.358 139.834 540.775 Q137.982 541.192 136.038 542.071 L136.038 524.71 Z" fill="#000000" fill-rule="nonzero" fill-opacity="1" /><path clip-path="url(#clip420)" d="M90.5752 187.177 L98.2141 187.177 L98.2141 160.811 L89.904 162.478 L89.904 158.219 L98.1678 156.552 L102.844 156.552 L102.844 187.177 L110.483 187.177 L110.483 191.112 L90.5752 191.112 L90.5752 187.177 Z" fill="#000000" fill-rule="nonzero" fill-opacity="1" /><path clip-path="url(#clip420)" d="M119.927 185.233 L124.811 185.233 L124.811 191.112 L119.927 191.112 L119.927 185.233 Z" fill="#000000" fill-rule="nonzero" fill-opacity="1" /><path clip-path="url(#clip420)" d="M144.996 159.631 Q141.385 159.631 139.556 163.196 Q137.751 166.737 137.751 173.867 Q137.751 180.973 139.556 184.538 Q141.385 188.08 144.996 188.08 Q148.63 188.08 150.436 184.538 Q152.265 180.973 152.265 173.867 Q152.265 166.737 150.436 163.196 Q148.63 159.631 144.996 159.631 M144.996 155.927 Q150.806 155.927 153.862 160.534 Q156.941 165.117 156.941 173.867 Q156.941 182.594 153.862 187.2 Q150.806 191.783 144.996 191.783 Q139.186 191.783 136.107 187.2 Q133.052 182.594 133.052 173.867 Q133.052 165.117 136.107 160.534 Q139.186 155.927 144.996 155.927 Z" fill="#000000" fill-rule="nonzero" fill-opacity="1" /><polyline clip-path="url(#clip422)" style="stroke:#009af9; stroke-linecap:round; stroke-linejoin:round; stroke-width:4; stroke-opacity:1; fill:none" points="219.664,973.617 230.94,1065.76 242.216,1100.95 253.492,1035.06 264.768,906.186 276.043,1007 287.319,890.732 298.595,776.301 309.871,735.299 321.147,714.627 332.422,698.979 343.698,621.1 354.974,671.485 366.25,578.046 377.526,563.408 388.802,599.04 400.077,517.72 411.353,562.094 422.629,475.095 433.905,479.247 445.181,414.369 456.456,394.386 467.732,262.543 479.008,323.599 490.284,437.343 501.56,523.256 512.835,449.973 524.111,490.203 535.387,516.728 546.663,658.316 557.939,648.713 569.215,668.927 580.49,718.009 591.766,839.017 603.042,842.307 614.318,965.428 625.594,1011.91 636.869,1187.37 648.145,1087.33 659.421,1159.14 670.697,1180.22 681.973,1194.99 693.248,1149.23 704.524,1159.31 715.8,1190.96 727.076,1093.9 738.352,1026.99 749.628,1055.05 760.903,1199.38 772.179,1268.89 783.455,1289.64 794.731,1280.12 806.007,1316.3 817.282,1283.37 828.558,1200.48 839.834,1136.03 851.11,1102.9 862.386,1106.27 873.662,1134.68 884.937,1154.65 896.213,1231.9 907.489,1208.01 918.765,1107.6 930.041,987.287 941.316,958.406 952.592,881.491 963.868,865.561 975.144,953.76 986.42,1100.07 997.695,1058.58 1008.97,1107.33 1020.25,1101.64 1031.52,1136.74 1042.8,1206.23 1054.07,1270.93 1065.35,1301.03 1076.63,1131.24 1087.9,1093.79 1099.18,1133.83 1110.45,1079.97 "/>
<polyline clip-path="url(#clip422)" style="stroke:#e26f46; stroke-linecap:round; stroke-linejoin:round; stroke-width:4; stroke-opacity:1; fill:none" points="219.664,1014.63 230.94,1110.62 242.216,1143.4 253.492,1067.93 264.768,939.556 276.043,1046.08 287.319,939.941 298.595,809.933 309.871,773.466 321.147,753.71 332.422,742.493 343.698,682.859 354.974,730.435 366.25,642.582 377.526,621.982 388.802,661.598 400.077,575.51 411.353,606.869 422.629,517.594 433.905,524.704 445.181,455.384 456.456,444.674 467.732,312.01 479.008,375.73 490.284,489.457 501.56,576.082 512.835,517.012 524.111,561.086 535.387,591.636 546.663,730.574 557.939,711.872 569.215,723.176 580.49,763.403 591.766,891.879 603.042,887.807 614.318,1011.92 625.594,1049.39 636.869,1220.39 648.145,1107.57 659.421,1165.74 670.697,1181.47 681.973,1195.22 693.248,1144.37 704.524,1154.07 715.8,1195.81 727.076,1097.15 738.352,1042.77 749.628,1068.48 760.903,1205.47 772.179,1266.12 783.455,1281.51 794.731,1268.51 806.007,1313.99 817.282,1288.23 828.558,1214.74 839.834,1150.39 851.11,1125.3 862.386,1122.09 873.662,1162.17 884.937,1176.75 896.213,1259.26 907.489,1240.85 918.765,1133.93 930.041,1020.24 941.316,993.863 952.592,913.679 963.868,892.123 975.144,979.001 986.42,1122.23 997.695,1078.02 1008.97,1123.03 1020.25,1110.85 1031.52,1142.81 1042.8,1207.82 1054.07,1274.12 1065.35,1308.68 1076.63,1145.08 1087.9,1112.74 1099.18,1152.63 1110.45,1096.08 "/>
<polyline clip-path="url(#clip422)" style="stroke:#3da44d; stroke-linecap:round; stroke-linejoin:round; stroke-width:4; stroke-opacity:1; fill:none" points="219.664,770.301 230.94,875.153 242.216,818.341 253.492,750.841 264.768,502.27 276.043,739.487 287.319,567.545 298.595,473.13 309.871,472.564 321.147,372.547 332.422,229.239 343.698,139.491 354.974,267.387 366.25,344.435 377.526,393.605 388.802,473.61 400.077,326.293 411.353,331.534 422.629,252.319 433.905,246.744 445.181,196.973 456.456,220.037 467.732,87.9763 479.008,150.207 490.284,288.638 501.56,351.669 512.835,221.565 524.111,297.418 535.387,387.457 546.663,586.555 557.939,708.902 569.215,810.864 580.49,819.656 591.766,810.588 603.042,938.151 614.318,1088.11 625.594,1140.8 636.869,1238.71 648.145,1003.4 659.421,1264.4 670.697,1358.8 681.973,1360.08 693.248,1315.63 704.524,1292.15 715.8,1191.36 727.076,1016.6 738.352,1058.05 749.628,1037.51 760.903,1069.04 772.179,1058.91 783.455,1114.83 794.731,1127.68 806.007,1069.46 817.282,1153.95 828.558,1154.73 839.834,1136.28 851.11,1196.06 862.386,1188.9 873.662,1267.41 884.937,1296.51 896.213,1404.46 907.489,1445.72 918.765,1403.97 930.041,1193.21 941.316,1044.86 952.592,943.95 963.868,901.051 975.144,935.109 986.42,1045.51 997.695,1112.33 1008.97,1299.12 1020.25,1205.15 1031.52,1133.57 1042.8,1309.16 1054.07,1332.03 1065.35,1234.22 1076.63,1110.06 1087.9,1095.62 1099.18,1131.95 1110.45,1119.99 "/>
<path clip-path="url(#clip420)" d="M649.614 302.578 L1105.7 302.578 L1105.7 95.2176 L649.614 95.2176  Z" fill="#ffffff" fill-rule="evenodd" fill-opacity="1"/>
<polyline clip-path="url(#clip420)" style="stroke:#000000; stroke-linecap:round; stroke-linejoin:round; stroke-width:4; stroke-opacity:1; fill:none" points="649.614,302.578 1105.7,302.578 1105.7,95.2176 649.614,95.2176 649.614,302.578 "/>
<polyline clip-path="url(#clip420)" style="stroke:#009af9; stroke-linecap:round; stroke-linejoin:round; stroke-width:4; stroke-opacity:1; fill:none" points="660.106,147.058 723.055,147.058 "/>
<path clip-path="url(#clip420)" d="M733.546 129.778 L738.222 129.778 L738.222 144.384 L753.732 129.778 L759.75 129.778 L742.597 145.889 L760.977 164.338 L754.82 164.338 L738.222 147.694 L738.222 164.338 L733.546 164.338 L733.546 129.778 Z" fill="#000000" fill-rule="nonzero" fill-opacity="1" /><path clip-path="url(#clip420)" d="M775.398 151.305 Q770.236 151.305 768.245 152.486 Q766.255 153.666 766.255 156.514 Q766.255 158.782 767.736 160.125 Q769.241 161.444 771.81 161.444 Q775.352 161.444 777.481 158.944 Q779.634 156.421 779.634 152.254 L779.634 151.305 L775.398 151.305 M783.893 149.546 L783.893 164.338 L779.634 164.338 L779.634 160.402 Q778.176 162.763 776 163.898 Q773.824 165.009 770.676 165.009 Q766.694 165.009 764.333 162.787 Q761.995 160.541 761.995 156.791 Q761.995 152.416 764.912 150.194 Q767.852 147.972 773.662 147.972 L779.634 147.972 L779.634 147.555 Q779.634 144.615 777.69 143.018 Q775.768 141.398 772.273 141.398 Q770.051 141.398 767.944 141.93 Q765.838 142.463 763.894 143.527 L763.894 139.592 Q766.231 138.69 768.431 138.25 Q770.63 137.787 772.713 137.787 Q778.338 137.787 781.116 140.703 Q783.893 143.62 783.893 149.546 Z" fill="#000000" fill-rule="nonzero" fill-opacity="1" /><path clip-path="url(#clip420)" d="M792.667 128.319 L796.926 128.319 L796.926 164.338 L792.667 164.338 L792.667 128.319 Z" fill="#000000" fill-rule="nonzero" fill-opacity="1" /><path clip-path="url(#clip420)" d="M826.023 143.389 Q827.62 140.518 829.842 139.153 Q832.064 137.787 835.074 137.787 Q839.125 137.787 841.324 140.634 Q843.523 143.458 843.523 148.689 L843.523 164.338 L839.24 164.338 L839.24 148.828 Q839.24 145.102 837.921 143.296 Q836.601 141.49 833.893 141.49 Q830.583 141.49 828.662 143.69 Q826.74 145.889 826.74 149.685 L826.74 164.338 L822.458 164.338 L822.458 148.828 Q822.458 145.078 821.139 143.296 Q819.819 141.49 817.065 141.49 Q813.801 141.49 811.879 143.713 Q809.958 145.912 809.958 149.685 L809.958 164.338 L805.676 164.338 L805.676 138.412 L809.958 138.412 L809.958 142.44 Q811.416 140.055 813.453 138.921 Q815.49 137.787 818.291 137.787 Q821.115 137.787 823.083 139.222 Q825.074 140.657 826.023 143.389 Z" fill="#000000" fill-rule="nonzero" fill-opacity="1" /><path clip-path="url(#clip420)" d="M863.8 151.305 Q858.638 151.305 856.648 152.486 Q854.657 153.666 854.657 156.514 Q854.657 158.782 856.138 160.125 Q857.643 161.444 860.212 161.444 Q863.754 161.444 865.884 158.944 Q868.037 156.421 868.037 152.254 L868.037 151.305 L863.8 151.305 M872.296 149.546 L872.296 164.338 L868.037 164.338 L868.037 160.402 Q866.578 162.763 864.402 163.898 Q862.226 165.009 859.078 165.009 Q855.097 165.009 852.736 162.787 Q850.398 160.541 850.398 156.791 Q850.398 152.416 853.314 150.194 Q856.254 147.972 862.064 147.972 L868.037 147.972 L868.037 147.555 Q868.037 144.615 866.092 143.018 Q864.171 141.398 860.675 141.398 Q858.453 141.398 856.347 141.93 Q854.24 142.463 852.296 143.527 L852.296 139.592 Q854.634 138.69 856.833 138.25 Q859.032 137.787 861.115 137.787 Q866.74 137.787 869.518 140.703 Q872.296 143.62 872.296 149.546 Z" fill="#000000" fill-rule="nonzero" fill-opacity="1" /><path clip-path="url(#clip420)" d="M902.62 148.689 L902.62 164.338 L898.36 164.338 L898.36 148.828 Q898.36 145.148 896.925 143.319 Q895.49 141.49 892.62 141.49 Q889.171 141.49 887.18 143.69 Q885.189 145.889 885.189 149.685 L885.189 164.338 L880.907 164.338 L880.907 138.412 L885.189 138.412 L885.189 142.44 Q886.717 140.102 888.777 138.944 Q890.86 137.787 893.569 137.787 Q898.036 137.787 900.328 140.565 Q902.62 143.319 902.62 148.689 Z" fill="#000000" fill-rule="nonzero" fill-opacity="1" /><path clip-path="url(#clip420)" d="M942.712 139.176 L942.712 143.203 Q940.906 142.277 938.962 141.815 Q937.018 141.352 934.934 141.352 Q931.763 141.352 930.166 142.324 Q928.592 143.296 928.592 145.24 Q928.592 146.722 929.726 147.578 Q930.86 148.412 934.286 149.176 L935.744 149.5 Q940.281 150.472 942.18 152.254 Q944.101 154.014 944.101 157.185 Q944.101 160.796 941.231 162.902 Q938.383 165.009 933.383 165.009 Q931.3 165.009 929.032 164.592 Q926.786 164.199 924.286 163.388 L924.286 158.99 Q926.647 160.217 928.939 160.842 Q931.231 161.444 933.476 161.444 Q936.485 161.444 938.106 160.426 Q939.726 159.384 939.726 157.509 Q939.726 155.773 938.545 154.847 Q937.388 153.921 933.43 153.064 L931.948 152.717 Q927.99 151.884 926.231 150.171 Q924.471 148.435 924.471 145.426 Q924.471 141.768 927.064 139.778 Q929.657 137.787 934.425 137.787 Q936.786 137.787 938.869 138.134 Q940.953 138.481 942.712 139.176 Z" fill="#000000" fill-rule="nonzero" fill-opacity="1" /><path clip-path="url(#clip420)" d="M971.068 143.389 Q972.666 140.518 974.888 139.153 Q977.11 137.787 980.119 137.787 Q984.17 137.787 986.369 140.634 Q988.568 143.458 988.568 148.689 L988.568 164.338 L984.286 164.338 L984.286 148.828 Q984.286 145.102 982.966 143.296 Q981.647 141.49 978.939 141.49 Q975.629 141.49 973.707 143.69 Q971.786 145.889 971.786 149.685 L971.786 164.338 L967.504 164.338 L967.504 148.828 Q967.504 145.078 966.184 143.296 Q964.865 141.49 962.11 141.49 Q958.846 141.49 956.925 143.713 Q955.004 145.912 955.004 149.685 L955.004 164.338 L950.721 164.338 L950.721 138.412 L955.004 138.412 L955.004 142.44 Q956.462 140.055 958.499 138.921 Q960.536 137.787 963.337 137.787 Q966.161 137.787 968.129 139.222 Q970.119 140.657 971.068 143.389 Z" fill="#000000" fill-rule="nonzero" fill-opacity="1" /><path clip-path="url(#clip420)" d="M1007.11 141.398 Q1003.68 141.398 1001.69 144.083 Q999.702 146.745 999.702 151.398 Q999.702 156.051 1001.67 158.736 Q1003.66 161.398 1007.11 161.398 Q1010.51 161.398 1012.5 158.713 Q1014.49 156.027 1014.49 151.398 Q1014.49 146.791 1012.5 144.106 Q1010.51 141.398 1007.11 141.398 M1007.11 137.787 Q1012.67 137.787 1015.84 141.398 Q1019.01 145.009 1019.01 151.398 Q1019.01 157.764 1015.84 161.398 Q1012.67 165.009 1007.11 165.009 Q1001.53 165.009 998.36 161.398 Q995.212 157.764 995.212 151.398 Q995.212 145.009 998.36 141.398 Q1001.53 137.787 1007.11 137.787 Z" fill="#000000" fill-rule="nonzero" fill-opacity="1" /><path clip-path="url(#clip420)" d="M1036.11 141.398 Q1032.69 141.398 1030.7 144.083 Q1028.71 146.745 1028.71 151.398 Q1028.71 156.051 1030.67 158.736 Q1032.67 161.398 1036.11 161.398 Q1039.52 161.398 1041.51 158.713 Q1043.5 156.027 1043.5 151.398 Q1043.5 146.791 1041.51 144.106 Q1039.52 141.398 1036.11 141.398 M1036.11 137.787 Q1041.67 137.787 1044.84 141.398 Q1048.01 145.009 1048.01 151.398 Q1048.01 157.764 1044.84 161.398 Q1041.67 165.009 1036.11 165.009 Q1030.54 165.009 1027.36 161.398 Q1024.22 157.764 1024.22 151.398 Q1024.22 145.009 1027.36 141.398 Q1030.54 137.787 1036.11 137.787 Z" fill="#000000" fill-rule="nonzero" fill-opacity="1" /><path clip-path="url(#clip420)" d="M1059.29 131.051 L1059.29 138.412 L1068.06 138.412 L1068.06 141.722 L1059.29 141.722 L1059.29 155.796 Q1059.29 158.967 1060.14 159.87 Q1061.02 160.773 1063.68 160.773 L1068.06 160.773 L1068.06 164.338 L1063.68 164.338 Q1058.75 164.338 1056.88 162.509 Q1055 160.657 1055 155.796 L1055 141.722 L1051.88 141.722 L1051.88 138.412 L1055 138.412 L1055 131.051 L1059.29 131.051 Z" fill="#000000" fill-rule="nonzero" fill-opacity="1" /><path clip-path="url(#clip420)" d="M1095.21 148.689 L1095.21 164.338 L1090.95 164.338 L1090.95 148.828 Q1090.95 145.148 1089.52 143.319 Q1088.08 141.49 1085.21 141.49 Q1081.76 141.49 1079.77 143.69 Q1077.78 145.889 1077.78 149.685 L1077.78 164.338 L1073.5 164.338 L1073.5 128.319 L1077.78 128.319 L1077.78 142.44 Q1079.31 140.102 1081.37 138.944 Q1083.45 137.787 1086.16 137.787 Q1090.63 137.787 1092.92 140.565 Q1095.21 143.319 1095.21 148.689 Z" fill="#000000" fill-rule="nonzero" fill-opacity="1" /><polyline clip-path="url(#clip420)" style="stroke:#e26f46; stroke-linecap:round; stroke-linejoin:round; stroke-width:4; stroke-opacity:1; fill:none" points="660.106,198.898 723.055,198.898 "/>
<path clip-path="url(#clip420)" d="M737.829 212.289 L737.829 226.039 L733.546 226.039 L733.546 190.252 L737.829 190.252 L737.829 194.187 Q739.171 191.872 741.208 190.761 Q743.269 189.627 746.116 189.627 Q750.838 189.627 753.778 193.377 Q756.741 197.127 756.741 203.238 Q756.741 209.349 753.778 213.099 Q750.838 216.849 746.116 216.849 Q743.269 216.849 741.208 215.738 Q739.171 214.603 737.829 212.289 M752.32 203.238 Q752.32 198.539 750.375 195.877 Q748.454 193.192 745.074 193.192 Q741.695 193.192 739.75 195.877 Q737.829 198.539 737.829 203.238 Q737.829 207.937 739.75 210.622 Q741.695 213.284 745.074 213.284 Q748.454 213.284 750.375 210.622 Q752.32 207.937 752.32 203.238 Z" fill="#000000" fill-rule="nonzero" fill-opacity="1" /><path clip-path="url(#clip420)" d="M776.926 180.159 L776.926 183.701 L772.852 183.701 Q770.56 183.701 769.657 184.627 Q768.778 185.553 768.778 187.96 L768.778 190.252 L775.792 190.252 L775.792 193.562 L768.778 193.562 L768.778 216.178 L764.495 216.178 L764.495 193.562 L760.421 193.562 L760.421 190.252 L764.495 190.252 L764.495 188.446 Q764.495 184.118 766.509 182.15 Q768.523 180.159 772.898 180.159 L776.926 180.159 Z" fill="#000000" fill-rule="nonzero" fill-opacity="1" /><path clip-path="url(#clip420)" d="M812.088 191.016 L812.088 195.043 Q810.282 194.117 808.338 193.655 Q806.393 193.192 804.31 193.192 Q801.139 193.192 799.541 194.164 Q797.967 195.136 797.967 197.08 Q797.967 198.562 799.102 199.418 Q800.236 200.252 803.662 201.016 L805.12 201.34 Q809.657 202.312 811.555 204.094 Q813.477 205.854 813.477 209.025 Q813.477 212.636 810.606 214.742 Q807.759 216.849 802.759 216.849 Q800.676 216.849 798.407 216.432 Q796.162 216.039 793.662 215.228 L793.662 210.83 Q796.023 212.057 798.315 212.682 Q800.606 213.284 802.852 213.284 Q805.861 213.284 807.481 212.266 Q809.102 211.224 809.102 209.349 Q809.102 207.613 807.921 206.687 Q806.764 205.761 802.805 204.904 L801.324 204.557 Q797.366 203.724 795.606 202.011 Q793.847 200.275 793.847 197.266 Q793.847 193.608 796.44 191.618 Q799.032 189.627 803.801 189.627 Q806.162 189.627 808.245 189.974 Q810.328 190.321 812.088 191.016 Z" fill="#000000" fill-rule="nonzero" fill-opacity="1" /><path clip-path="url(#clip420)" d="M840.444 195.229 Q842.041 192.358 844.263 190.993 Q846.486 189.627 849.495 189.627 Q853.546 189.627 855.745 192.474 Q857.944 195.298 857.944 200.529 L857.944 216.178 L853.662 216.178 L853.662 200.668 Q853.662 196.942 852.342 195.136 Q851.023 193.33 848.314 193.33 Q845.004 193.33 843.083 195.53 Q841.162 197.729 841.162 201.525 L841.162 216.178 L836.879 216.178 L836.879 200.668 Q836.879 196.918 835.56 195.136 Q834.24 193.33 831.486 193.33 Q828.222 193.33 826.301 195.553 Q824.379 197.752 824.379 201.525 L824.379 216.178 L820.097 216.178 L820.097 190.252 L824.379 190.252 L824.379 194.28 Q825.838 191.895 827.875 190.761 Q829.912 189.627 832.713 189.627 Q835.537 189.627 837.504 191.062 Q839.495 192.497 840.444 195.229 Z" fill="#000000" fill-rule="nonzero" fill-opacity="1" /><path clip-path="url(#clip420)" d="M876.486 193.238 Q873.06 193.238 871.069 195.923 Q869.078 198.585 869.078 203.238 Q869.078 207.891 871.046 210.576 Q873.036 213.238 876.486 213.238 Q879.888 213.238 881.879 210.553 Q883.87 207.867 883.87 203.238 Q883.87 198.631 881.879 195.946 Q879.888 193.238 876.486 193.238 M876.486 189.627 Q882.041 189.627 885.212 193.238 Q888.384 196.849 888.384 203.238 Q888.384 209.604 885.212 213.238 Q882.041 216.849 876.486 216.849 Q870.907 216.849 867.736 213.238 Q864.587 209.604 864.587 203.238 Q864.587 196.849 867.736 193.238 Q870.907 189.627 876.486 189.627 Z" fill="#000000" fill-rule="nonzero" fill-opacity="1" /><path clip-path="url(#clip420)" d="M905.49 193.238 Q902.064 193.238 900.073 195.923 Q898.083 198.585 898.083 203.238 Q898.083 207.891 900.05 210.576 Q902.041 213.238 905.49 213.238 Q908.893 213.238 910.883 210.553 Q912.874 207.867 912.874 203.238 Q912.874 198.631 910.883 195.946 Q908.893 193.238 905.49 193.238 M905.49 189.627 Q911.046 189.627 914.217 193.238 Q917.388 196.849 917.388 203.238 Q917.388 209.604 914.217 213.238 Q911.046 216.849 905.49 216.849 Q899.911 216.849 896.74 213.238 Q893.592 209.604 893.592 203.238 Q893.592 196.849 896.74 193.238 Q899.911 189.627 905.49 189.627 Z" fill="#000000" fill-rule="nonzero" fill-opacity="1" /><path clip-path="url(#clip420)" d="M928.661 182.891 L928.661 190.252 L937.434 190.252 L937.434 193.562 L928.661 193.562 L928.661 207.636 Q928.661 210.807 929.518 211.71 Q930.397 212.613 933.059 212.613 L937.434 212.613 L937.434 216.178 L933.059 216.178 Q928.129 216.178 926.254 214.349 Q924.379 212.497 924.379 207.636 L924.379 193.562 L921.254 193.562 L921.254 190.252 L924.379 190.252 L924.379 182.891 L928.661 182.891 Z" fill="#000000" fill-rule="nonzero" fill-opacity="1" /><path clip-path="url(#clip420)" d="M964.587 200.529 L964.587 216.178 L960.328 216.178 L960.328 200.668 Q960.328 196.988 958.892 195.159 Q957.457 193.33 954.587 193.33 Q951.138 193.33 949.147 195.53 Q947.156 197.729 947.156 201.525 L947.156 216.178 L942.874 216.178 L942.874 180.159 L947.156 180.159 L947.156 194.28 Q948.684 191.942 950.744 190.784 Q952.828 189.627 955.536 189.627 Q960.004 189.627 962.295 192.405 Q964.587 195.159 964.587 200.529 Z" fill="#000000" fill-rule="nonzero" fill-opacity="1" /><polyline clip-path="url(#clip420)" style="stroke:#3da44d; stroke-linecap:round; stroke-linejoin:round; stroke-width:4; stroke-opacity:1; fill:none" points="660.106,250.738 723.055,250.738 "/>
<path clip-path="url(#clip420)" d="M740.954 234.731 L740.954 242.092 L749.727 242.092 L749.727 245.402 L740.954 245.402 L740.954 259.476 Q740.954 262.647 741.81 263.55 Q742.69 264.453 745.352 264.453 L749.727 264.453 L749.727 268.018 L745.352 268.018 Q740.421 268.018 738.546 266.189 Q736.671 264.337 736.671 259.476 L736.671 245.402 L733.546 245.402 L733.546 242.092 L736.671 242.092 L736.671 234.731 L740.954 234.731 Z" fill="#000000" fill-rule="nonzero" fill-opacity="1" /><path clip-path="url(#clip420)" d="M770.352 246.073 Q769.634 245.657 768.778 245.471 Q767.944 245.263 766.926 245.263 Q763.315 245.263 761.37 247.624 Q759.449 249.962 759.449 254.36 L759.449 268.018 L755.167 268.018 L755.167 242.092 L759.449 242.092 L759.449 246.12 Q760.792 243.758 762.944 242.624 Q765.097 241.467 768.176 241.467 Q768.616 241.467 769.148 241.536 Q769.681 241.583 770.329 241.698 L770.352 246.073 Z" fill="#000000" fill-rule="nonzero" fill-opacity="1" /><path clip-path="url(#clip420)" d="M774.38 257.786 L774.38 242.092 L778.639 242.092 L778.639 257.624 Q778.639 261.305 780.074 263.156 Q781.509 264.985 784.38 264.985 Q787.829 264.985 789.819 262.786 Q791.833 260.587 791.833 256.791 L791.833 242.092 L796.092 242.092 L796.092 268.018 L791.833 268.018 L791.833 264.036 Q790.282 266.397 788.222 267.555 Q786.185 268.689 783.477 268.689 Q779.009 268.689 776.694 265.911 Q774.38 263.133 774.38 257.786 M785.097 241.467 L785.097 241.467 Z" fill="#000000" fill-rule="nonzero" fill-opacity="1" /><path clip-path="url(#clip420)" d="M827.041 253.99 L827.041 256.073 L807.458 256.073 Q807.736 260.471 810.097 262.786 Q812.481 265.078 816.717 265.078 Q819.171 265.078 821.463 264.476 Q823.777 263.874 826.046 262.67 L826.046 266.698 Q823.754 267.67 821.347 268.18 Q818.94 268.689 816.463 268.689 Q810.259 268.689 806.625 265.078 Q803.014 261.467 803.014 255.309 Q803.014 248.944 806.44 245.217 Q809.889 241.467 815.722 241.467 Q820.953 241.467 823.986 244.846 Q827.041 248.203 827.041 253.99 M822.782 252.74 Q822.736 249.245 820.815 247.161 Q818.916 245.078 815.768 245.078 Q812.203 245.078 810.051 247.092 Q807.921 249.106 807.597 252.763 L822.782 252.74 Z" fill="#000000" fill-rule="nonzero" fill-opacity="1" /><path clip-path="url(#clip420)" d="M1408.52 1486.45 L2352.76 1486.45 L2352.76 47.2441 L1408.52 47.2441  Z" fill="#ffffff" fill-rule="evenodd" fill-opacity="1"/>
<polyline clip-path="url(#clip421)" style="stroke:#000000; stroke-linecap:round; stroke-linejoin:round; stroke-width:2; stroke-opacity:0.1; fill:none" points="1423.97,1486.45 1423.97,47.2441 "/>
<polyline clip-path="url(#clip421)" style="stroke:#000000; stroke-linecap:round; stroke-linejoin:round; stroke-width:2; stroke-opacity:0.1; fill:none" points="1649.48,1486.45 1649.48,47.2441 "/>
<polyline clip-path="url(#clip421)" style="stroke:#000000; stroke-linecap:round; stroke-linejoin:round; stroke-width:2; stroke-opacity:0.1; fill:none" points="1875,1486.45 1875,47.2441 "/>
<polyline clip-path="url(#clip421)" style="stroke:#000000; stroke-linecap:round; stroke-linejoin:round; stroke-width:2; stroke-opacity:0.1; fill:none" points="2100.52,1486.45 2100.52,47.2441 "/>
<polyline clip-path="url(#clip421)" style="stroke:#000000; stroke-linecap:round; stroke-linejoin:round; stroke-width:2; stroke-opacity:0.1; fill:none" points="2326.03,1486.45 2326.03,47.2441 "/>
<polyline clip-path="url(#clip421)" style="stroke:#000000; stroke-linecap:round; stroke-linejoin:round; stroke-width:2; stroke-opacity:0.1; fill:none" points="1408.52,1348.26 2352.76,1348.26 "/>
<polyline clip-path="url(#clip421)" style="stroke:#000000; stroke-linecap:round; stroke-linejoin:round; stroke-width:2; stroke-opacity:0.1; fill:none" points="1408.52,1149.93 2352.76,1149.93 "/>
<polyline clip-path="url(#clip421)" style="stroke:#000000; stroke-linecap:round; stroke-linejoin:round; stroke-width:2; stroke-opacity:0.1; fill:none" points="1408.52,951.597 2352.76,951.597 "/>
<polyline clip-path="url(#clip421)" style="stroke:#000000; stroke-linecap:round; stroke-linejoin:round; stroke-width:2; stroke-opacity:0.1; fill:none" points="1408.52,753.265 2352.76,753.265 "/>
<polyline clip-path="url(#clip421)" style="stroke:#000000; stroke-linecap:round; stroke-linejoin:round; stroke-width:2; stroke-opacity:0.1; fill:none" points="1408.52,554.933 2352.76,554.933 "/>
<polyline clip-path="url(#clip421)" style="stroke:#000000; stroke-linecap:round; stroke-linejoin:round; stroke-width:2; stroke-opacity:0.1; fill:none" points="1408.52,356.601 2352.76,356.601 "/>
<polyline clip-path="url(#clip421)" style="stroke:#000000; stroke-linecap:round; stroke-linejoin:round; stroke-width:2; stroke-opacity:0.1; fill:none" points="1408.52,158.27 2352.76,158.27 "/>
<polyline clip-path="url(#clip420)" style="stroke:#000000; stroke-linecap:round; stroke-linejoin:round; stroke-width:4; stroke-opacity:1; fill:none" points="1408.52,1486.45 2352.76,1486.45 "/>
<polyline clip-path="url(#clip420)" style="stroke:#000000; stroke-linecap:round; stroke-linejoin:round; stroke-width:4; stroke-opacity:1; fill:none" points="1423.97,1486.45 1423.97,1467.55 "/>
<polyline clip-path="url(#clip420)" style="stroke:#000000; stroke-linecap:round; stroke-linejoin:round; stroke-width:4; stroke-opacity:1; fill:none" points="1649.48,1486.45 1649.48,1467.55 "/>
<polyline clip-path="url(#clip420)" style="stroke:#000000; stroke-linecap:round; stroke-linejoin:round; stroke-width:4; stroke-opacity:1; fill:none" points="1875,1486.45 1875,1467.55 "/>
<polyline clip-path="url(#clip420)" style="stroke:#000000; stroke-linecap:round; stroke-linejoin:round; stroke-width:4; stroke-opacity:1; fill:none" points="2100.52,1486.45 2100.52,1467.55 "/>
<polyline clip-path="url(#clip420)" style="stroke:#000000; stroke-linecap:round; stroke-linejoin:round; stroke-width:4; stroke-opacity:1; fill:none" points="2326.03,1486.45 2326.03,1467.55 "/>
<path clip-path="url(#clip420)" d="M1423.97 1517.37 Q1420.36 1517.37 1418.53 1520.93 Q1416.72 1524.47 1416.72 1531.6 Q1416.72 1538.71 1418.53 1542.27 Q1420.36 1545.82 1423.97 1545.82 Q1427.6 1545.82 1429.41 1542.27 Q1431.24 1538.71 1431.24 1531.6 Q1431.24 1524.47 1429.41 1520.93 Q1427.6 1517.37 1423.97 1517.37 M1423.97 1513.66 Q1429.78 1513.66 1432.83 1518.27 Q1435.91 1522.85 1435.91 1531.6 Q1435.91 1540.33 1432.83 1544.94 Q1429.78 1549.52 1423.97 1549.52 Q1418.16 1549.52 1415.08 1544.94 Q1412.02 1540.33 1412.02 1531.6 Q1412.02 1522.85 1415.08 1518.27 Q1418.16 1513.66 1423.97 1513.66 Z" fill="#000000" fill-rule="nonzero" fill-opacity="1" /><path clip-path="url(#clip420)" d="M1628.26 1544.91 L1644.58 1544.91 L1644.58 1548.85 L1622.63 1548.85 L1622.63 1544.91 Q1625.29 1542.16 1629.88 1537.53 Q1634.48 1532.88 1635.66 1531.53 Q1637.91 1529.01 1638.79 1527.27 Q1639.69 1525.51 1639.69 1523.82 Q1639.69 1521.07 1637.75 1519.33 Q1635.83 1517.6 1632.72 1517.6 Q1630.53 1517.6 1628.07 1518.36 Q1625.64 1519.13 1622.86 1520.68 L1622.86 1515.95 Q1625.69 1514.82 1628.14 1514.24 Q1630.59 1513.66 1632.63 1513.66 Q1638 1513.66 1641.2 1516.35 Q1644.39 1519.03 1644.39 1523.52 Q1644.39 1525.65 1643.58 1527.57 Q1642.79 1529.47 1640.69 1532.07 Q1640.11 1532.74 1637.01 1535.95 Q1633.9 1539.15 1628.26 1544.91 Z" fill="#000000" fill-rule="nonzero" fill-opacity="1" /><path clip-path="url(#clip420)" d="M1664.39 1517.37 Q1660.78 1517.37 1658.95 1520.93 Q1657.15 1524.47 1657.15 1531.6 Q1657.15 1538.71 1658.95 1542.27 Q1660.78 1545.82 1664.39 1545.82 Q1668.02 1545.82 1669.83 1542.27 Q1671.66 1538.71 1671.66 1531.6 Q1671.66 1524.47 1669.83 1520.93 Q1668.02 1517.37 1664.39 1517.37 M1664.39 1513.66 Q1670.2 1513.66 1673.26 1518.27 Q1676.34 1522.85 1676.34 1531.6 Q1676.34 1540.33 1673.26 1544.94 Q1670.2 1549.52 1664.39 1549.52 Q1658.58 1549.52 1655.5 1544.94 Q1652.45 1540.33 1652.45 1531.6 Q1652.45 1522.85 1655.5 1518.27 Q1658.58 1513.66 1664.39 1513.66 Z" fill="#000000" fill-rule="nonzero" fill-opacity="1" /><path clip-path="url(#clip420)" d="M1863.17 1518.36 L1851.37 1536.81 L1863.17 1536.81 L1863.17 1518.36 M1861.94 1514.29 L1867.82 1514.29 L1867.82 1536.81 L1872.75 1536.81 L1872.75 1540.7 L1867.82 1540.7 L1867.82 1548.85 L1863.17 1548.85 L1863.17 1540.7 L1847.57 1540.7 L1847.57 1536.19 L1861.94 1514.29 Z" fill="#000000" fill-rule="nonzero" fill-opacity="1" /><path clip-path="url(#clip420)" d="M1890.49 1517.37 Q1886.87 1517.37 1885.05 1520.93 Q1883.24 1524.47 1883.24 1531.6 Q1883.24 1538.71 1885.05 1542.27 Q1886.87 1545.82 1890.49 1545.82 Q1894.12 1545.82 1895.93 1542.27 Q1897.75 1538.71 1897.75 1531.6 Q1897.75 1524.47 1895.93 1520.93 Q1894.12 1517.37 1890.49 1517.37 M1890.49 1513.66 Q1896.3 1513.66 1899.35 1518.27 Q1902.43 1522.85 1902.43 1531.6 Q1902.43 1540.33 1899.35 1544.94 Q1896.3 1549.52 1890.49 1549.52 Q1884.68 1549.52 1881.6 1544.94 Q1878.54 1540.33 1878.54 1531.6 Q1878.54 1522.85 1881.6 1518.27 Q1884.68 1513.66 1890.49 1513.66 Z" fill="#000000" fill-rule="nonzero" fill-opacity="1" /><path clip-path="url(#clip420)" d="M2085.92 1529.7 Q2082.77 1529.7 2080.92 1531.86 Q2079.09 1534.01 2079.09 1537.76 Q2079.09 1541.49 2080.92 1543.66 Q2082.77 1545.82 2085.92 1545.82 Q2089.07 1545.82 2090.9 1543.66 Q2092.75 1541.49 2092.75 1537.76 Q2092.75 1534.01 2090.9 1531.86 Q2089.07 1529.7 2085.92 1529.7 M2095.2 1515.05 L2095.2 1519.31 Q2093.44 1518.48 2091.64 1518.04 Q2089.86 1517.6 2088.1 1517.6 Q2083.47 1517.6 2081.01 1520.72 Q2078.58 1523.85 2078.24 1530.17 Q2079.6 1528.15 2081.66 1527.09 Q2083.72 1526 2086.2 1526 Q2091.41 1526 2094.42 1529.17 Q2097.45 1532.32 2097.45 1537.76 Q2097.45 1543.08 2094.3 1546.3 Q2091.15 1549.52 2085.92 1549.52 Q2079.93 1549.52 2076.75 1544.94 Q2073.58 1540.33 2073.58 1531.6 Q2073.58 1523.41 2077.47 1518.55 Q2081.36 1513.66 2087.91 1513.66 Q2089.67 1513.66 2091.45 1514.01 Q2093.26 1514.36 2095.2 1515.05 Z" fill="#000000" fill-rule="nonzero" fill-opacity="1" /><path clip-path="url(#clip420)" d="M2115.5 1517.37 Q2111.89 1517.37 2110.06 1520.93 Q2108.26 1524.47 2108.26 1531.6 Q2108.26 1538.71 2110.06 1542.27 Q2111.89 1545.82 2115.5 1545.82 Q2119.14 1545.82 2120.94 1542.27 Q2122.77 1538.71 2122.77 1531.6 Q2122.77 1524.47 2120.94 1520.93 Q2119.14 1517.37 2115.5 1517.37 M2115.5 1513.66 Q2121.31 1513.66 2124.37 1518.27 Q2127.45 1522.85 2127.45 1531.6 Q2127.45 1540.33 2124.37 1544.94 Q2121.31 1549.52 2115.5 1549.52 Q2109.69 1549.52 2106.62 1544.94 Q2103.56 1540.33 2103.56 1531.6 Q2103.56 1522.85 2106.62 1518.27 Q2109.69 1513.66 2115.5 1513.66 Z" fill="#000000" fill-rule="nonzero" fill-opacity="1" /><path clip-path="url(#clip420)" d="M2310.9 1532.44 Q2307.57 1532.44 2305.65 1534.22 Q2303.75 1536 2303.75 1539.13 Q2303.75 1542.25 2305.65 1544.03 Q2307.57 1545.82 2310.9 1545.82 Q2314.24 1545.82 2316.16 1544.03 Q2318.08 1542.23 2318.08 1539.13 Q2318.08 1536 2316.16 1534.22 Q2314.26 1532.44 2310.9 1532.44 M2306.23 1530.45 Q2303.22 1529.7 2301.53 1527.64 Q2299.86 1525.58 2299.86 1522.62 Q2299.86 1518.48 2302.8 1516.07 Q2305.77 1513.66 2310.9 1513.66 Q2316.07 1513.66 2319.01 1516.07 Q2321.95 1518.48 2321.95 1522.62 Q2321.95 1525.58 2320.26 1527.64 Q2318.59 1529.7 2315.6 1530.45 Q2318.98 1531.23 2320.86 1533.52 Q2322.76 1535.82 2322.76 1539.13 Q2322.76 1544.15 2319.68 1546.83 Q2316.62 1549.52 2310.9 1549.52 Q2305.19 1549.52 2302.11 1546.83 Q2299.05 1544.15 2299.05 1539.13 Q2299.05 1535.82 2300.95 1533.52 Q2302.85 1531.23 2306.23 1530.45 M2304.52 1523.06 Q2304.52 1525.75 2306.18 1527.25 Q2307.87 1528.76 2310.9 1528.76 Q2313.91 1528.76 2315.6 1527.25 Q2317.32 1525.75 2317.32 1523.06 Q2317.32 1520.38 2315.6 1518.87 Q2313.91 1517.37 2310.9 1517.37 Q2307.87 1517.37 2306.18 1518.87 Q2304.52 1520.38 2304.52 1523.06 Z" fill="#000000" fill-rule="nonzero" fill-opacity="1" /><path clip-path="url(#clip420)" d="M2341.07 1517.37 Q2337.46 1517.37 2335.63 1520.93 Q2333.82 1524.47 2333.82 1531.6 Q2333.82 1538.71 2335.63 1542.27 Q2337.46 1545.82 2341.07 1545.82 Q2344.7 1545.82 2346.51 1542.27 Q2348.34 1538.71 2348.34 1531.6 Q2348.34 1524.47 2346.51 1520.93 Q2344.7 1517.37 2341.07 1517.37 M2341.07 1513.66 Q2346.88 1513.66 2349.93 1518.27 Q2353.01 1522.85 2353.01 1531.6 Q2353.01 1540.33 2349.93 1544.94 Q2346.88 1549.52 2341.07 1549.52 Q2335.26 1549.52 2332.18 1544.94 Q2329.12 1540.33 2329.12 1531.6 Q2329.12 1522.85 2332.18 1518.27 Q2335.26 1513.66 2341.07 1513.66 Z" fill="#000000" fill-rule="nonzero" fill-opacity="1" /><polyline clip-path="url(#clip420)" style="stroke:#000000; stroke-linecap:round; stroke-linejoin:round; stroke-width:4; stroke-opacity:1; fill:none" points="1408.52,1486.45 1408.52,47.2441 "/>
<polyline clip-path="url(#clip420)" style="stroke:#000000; stroke-linecap:round; stroke-linejoin:round; stroke-width:4; stroke-opacity:1; fill:none" points="1408.52,1348.26 1427.42,1348.26 "/>
<polyline clip-path="url(#clip420)" style="stroke:#000000; stroke-linecap:round; stroke-linejoin:round; stroke-width:4; stroke-opacity:1; fill:none" points="1408.52,1149.93 1427.42,1149.93 "/>
<polyline clip-path="url(#clip420)" style="stroke:#000000; stroke-linecap:round; stroke-linejoin:round; stroke-width:4; stroke-opacity:1; fill:none" points="1408.52,951.597 1427.42,951.597 "/>
<polyline clip-path="url(#clip420)" style="stroke:#000000; stroke-linecap:round; stroke-linejoin:round; stroke-width:4; stroke-opacity:1; fill:none" points="1408.52,753.265 1427.42,753.265 "/>
<polyline clip-path="url(#clip420)" style="stroke:#000000; stroke-linecap:round; stroke-linejoin:round; stroke-width:4; stroke-opacity:1; fill:none" points="1408.52,554.933 1427.42,554.933 "/>
<polyline clip-path="url(#clip420)" style="stroke:#000000; stroke-linecap:round; stroke-linejoin:round; stroke-width:4; stroke-opacity:1; fill:none" points="1408.52,356.601 1427.42,356.601 "/>
<polyline clip-path="url(#clip420)" style="stroke:#000000; stroke-linecap:round; stroke-linejoin:round; stroke-width:4; stroke-opacity:1; fill:none" points="1408.52,158.27 1427.42,158.27 "/>
<path clip-path="url(#clip420)" d="M1236.41 1348.71 L1266.08 1348.71 L1266.08 1352.65 L1236.41 1352.65 L1236.41 1348.71 Z" fill="#000000" fill-rule="nonzero" fill-opacity="1" /><path clip-path="url(#clip420)" d="M1286.18 1334.06 Q1282.57 1334.06 1280.74 1337.62 Q1278.93 1341.17 1278.93 1348.3 Q1278.93 1355.4 1280.74 1358.97 Q1282.57 1362.51 1286.18 1362.51 Q1289.81 1362.51 1291.62 1358.97 Q1293.45 1355.4 1293.45 1348.3 Q1293.45 1341.17 1291.62 1337.62 Q1289.81 1334.06 1286.18 1334.06 M1286.18 1330.36 Q1291.99 1330.36 1295.04 1334.96 Q1298.12 1339.55 1298.12 1348.3 Q1298.12 1357.02 1295.04 1361.63 Q1291.99 1366.21 1286.18 1366.21 Q1280.37 1366.21 1277.29 1361.63 Q1274.23 1357.02 1274.23 1348.3 Q1274.23 1339.55 1277.29 1334.96 Q1280.37 1330.36 1286.18 1330.36 Z" fill="#000000" fill-rule="nonzero" fill-opacity="1" /><path clip-path="url(#clip420)" d="M1306.34 1359.66 L1311.22 1359.66 L1311.22 1365.54 L1306.34 1365.54 L1306.34 1359.66 Z" fill="#000000" fill-rule="nonzero" fill-opacity="1" /><path clip-path="url(#clip420)" d="M1320.23 1330.98 L1342.45 1330.98 L1342.45 1332.97 L1329.9 1365.54 L1325.02 1365.54 L1336.82 1334.92 L1320.23 1334.92 L1320.23 1330.98 Z" fill="#000000" fill-rule="nonzero" fill-opacity="1" /><path clip-path="url(#clip420)" d="M1351.62 1330.98 L1369.97 1330.98 L1369.97 1334.92 L1355.9 1334.92 L1355.9 1343.39 Q1356.92 1343.04 1357.94 1342.88 Q1358.95 1342.69 1359.97 1342.69 Q1365.76 1342.69 1369.14 1345.86 Q1372.52 1349.04 1372.52 1354.45 Q1372.52 1360.03 1369.05 1363.13 Q1365.57 1366.21 1359.26 1366.21 Q1357.08 1366.21 1354.81 1365.84 Q1352.57 1365.47 1350.16 1364.73 L1350.16 1360.03 Q1352.24 1361.17 1354.46 1361.72 Q1356.69 1362.28 1359.16 1362.28 Q1363.17 1362.28 1365.51 1360.17 Q1367.84 1358.06 1367.84 1354.45 Q1367.84 1350.84 1365.51 1348.74 Q1363.17 1346.63 1359.16 1346.63 Q1357.29 1346.63 1355.41 1347.05 Q1353.56 1347.46 1351.62 1348.34 L1351.62 1330.98 Z" fill="#000000" fill-rule="nonzero" fill-opacity="1" /><path clip-path="url(#clip420)" d="M1235.41 1150.38 L1265.09 1150.38 L1265.09 1154.32 L1235.41 1154.32 L1235.41 1150.38 Z" fill="#000000" fill-rule="nonzero" fill-opacity="1" /><path clip-path="url(#clip420)" d="M1285.18 1135.73 Q1281.57 1135.73 1279.74 1139.29 Q1277.94 1142.83 1277.94 1149.96 Q1277.94 1157.07 1279.74 1160.63 Q1281.57 1164.18 1285.18 1164.18 Q1288.82 1164.18 1290.62 1160.63 Q1292.45 1157.07 1292.45 1149.96 Q1292.45 1142.83 1290.62 1139.29 Q1288.82 1135.73 1285.18 1135.73 M1285.18 1132.02 Q1290.99 1132.02 1294.05 1136.63 Q1297.13 1141.21 1297.13 1149.96 Q1297.13 1158.69 1294.05 1163.3 Q1290.99 1167.88 1285.18 1167.88 Q1279.37 1167.88 1276.29 1163.3 Q1273.24 1158.69 1273.24 1149.96 Q1273.24 1141.21 1276.29 1136.63 Q1279.37 1132.02 1285.18 1132.02 Z" fill="#000000" fill-rule="nonzero" fill-opacity="1" /><path clip-path="url(#clip420)" d="M1305.34 1161.33 L1310.23 1161.33 L1310.23 1167.21 L1305.34 1167.21 L1305.34 1161.33 Z" fill="#000000" fill-rule="nonzero" fill-opacity="1" /><path clip-path="url(#clip420)" d="M1320.46 1132.65 L1338.82 1132.65 L1338.82 1136.58 L1324.74 1136.58 L1324.74 1145.06 Q1325.76 1144.71 1326.78 1144.55 Q1327.8 1144.36 1328.82 1144.36 Q1334.6 1144.36 1337.98 1147.53 Q1341.36 1150.7 1341.36 1156.12 Q1341.36 1161.7 1337.89 1164.8 Q1334.42 1167.88 1328.1 1167.88 Q1325.92 1167.88 1323.65 1167.51 Q1321.41 1167.14 1319 1166.4 L1319 1161.7 Q1321.08 1162.83 1323.31 1163.39 Q1325.53 1163.95 1328.01 1163.95 Q1332.01 1163.95 1334.35 1161.84 Q1336.69 1159.73 1336.69 1156.12 Q1336.69 1152.51 1334.35 1150.4 Q1332.01 1148.3 1328.01 1148.3 Q1326.13 1148.3 1324.26 1148.71 Q1322.4 1149.13 1320.46 1150.01 L1320.46 1132.65 Z" fill="#000000" fill-rule="nonzero" fill-opacity="1" /><path clip-path="url(#clip420)" d="M1360.57 1135.73 Q1356.96 1135.73 1355.14 1139.29 Q1353.33 1142.83 1353.33 1149.96 Q1353.33 1157.07 1355.14 1160.63 Q1356.96 1164.18 1360.57 1164.18 Q1364.21 1164.18 1366.01 1160.63 Q1367.84 1157.07 1367.84 1149.96 Q1367.84 1142.83 1366.01 1139.29 Q1364.21 1135.73 1360.57 1135.73 M1360.57 1132.02 Q1366.39 1132.02 1369.44 1136.63 Q1372.52 1141.21 1372.52 1149.96 Q1372.52 1158.69 1369.44 1163.3 Q1366.39 1167.88 1360.57 1167.88 Q1354.76 1167.88 1351.69 1163.3 Q1348.63 1158.69 1348.63 1149.96 Q1348.63 1141.21 1351.69 1136.63 Q1354.76 1132.02 1360.57 1132.02 Z" fill="#000000" fill-rule="nonzero" fill-opacity="1" /><path clip-path="url(#clip420)" d="M1236.41 952.048 L1266.08 952.048 L1266.08 955.984 L1236.41 955.984 L1236.41 952.048 Z" fill="#000000" fill-rule="nonzero" fill-opacity="1" /><path clip-path="url(#clip420)" d="M1286.18 937.396 Q1282.57 937.396 1280.74 940.961 Q1278.93 944.502 1278.93 951.632 Q1278.93 958.738 1280.74 962.303 Q1282.57 965.845 1286.18 965.845 Q1289.81 965.845 1291.62 962.303 Q1293.45 958.738 1293.45 951.632 Q1293.45 944.502 1291.62 940.961 Q1289.81 937.396 1286.18 937.396 M1286.18 933.692 Q1291.99 933.692 1295.04 938.299 Q1298.12 942.882 1298.12 951.632 Q1298.12 960.359 1295.04 964.965 Q1291.99 969.548 1286.18 969.548 Q1280.37 969.548 1277.29 964.965 Q1274.23 960.359 1274.23 951.632 Q1274.23 942.882 1277.29 938.299 Q1280.37 933.692 1286.18 933.692 Z" fill="#000000" fill-rule="nonzero" fill-opacity="1" /><path clip-path="url(#clip420)" d="M1306.34 962.997 L1311.22 962.997 L1311.22 968.877 L1306.34 968.877 L1306.34 962.997 Z" fill="#000000" fill-rule="nonzero" fill-opacity="1" /><path clip-path="url(#clip420)" d="M1325.44 964.942 L1341.76 964.942 L1341.76 968.877 L1319.81 968.877 L1319.81 964.942 Q1322.47 962.187 1327.06 957.558 Q1331.66 952.905 1332.84 951.562 Q1335.09 949.039 1335.97 947.303 Q1336.87 945.544 1336.87 943.854 Q1336.87 941.099 1334.93 939.363 Q1333.01 937.627 1329.9 937.627 Q1327.7 937.627 1325.25 938.391 Q1322.82 939.155 1320.04 940.706 L1320.04 935.984 Q1322.87 934.849 1325.32 934.271 Q1327.77 933.692 1329.81 933.692 Q1335.18 933.692 1338.38 936.377 Q1341.57 939.062 1341.57 943.553 Q1341.57 945.683 1340.76 947.604 Q1339.97 949.502 1337.87 952.095 Q1337.29 952.766 1334.19 955.984 Q1331.08 959.178 1325.44 964.942 Z" fill="#000000" fill-rule="nonzero" fill-opacity="1" /><path clip-path="url(#clip420)" d="M1351.62 934.317 L1369.97 934.317 L1369.97 938.252 L1355.9 938.252 L1355.9 946.724 Q1356.92 946.377 1357.94 946.215 Q1358.95 946.03 1359.97 946.03 Q1365.76 946.03 1369.14 949.201 Q1372.52 952.373 1372.52 957.789 Q1372.52 963.368 1369.05 966.47 Q1365.57 969.548 1359.26 969.548 Q1357.08 969.548 1354.81 969.178 Q1352.57 968.808 1350.16 968.067 L1350.16 963.368 Q1352.24 964.502 1354.46 965.058 Q1356.69 965.613 1359.16 965.613 Q1363.17 965.613 1365.51 963.507 Q1367.84 961.4 1367.84 957.789 Q1367.84 954.178 1365.51 952.072 Q1363.17 949.965 1359.16 949.965 Q1357.29 949.965 1355.41 950.382 Q1353.56 950.798 1351.62 951.678 L1351.62 934.317 Z" fill="#000000" fill-rule="nonzero" fill-opacity="1" /><path clip-path="url(#clip420)" d="M1285.18 739.064 Q1281.57 739.064 1279.74 742.629 Q1277.94 746.17 1277.94 753.3 Q1277.94 760.406 1279.74 763.971 Q1281.57 767.513 1285.18 767.513 Q1288.82 767.513 1290.62 763.971 Q1292.45 760.406 1292.45 753.3 Q1292.45 746.17 1290.62 742.629 Q1288.82 739.064 1285.18 739.064 M1285.18 735.36 Q1290.99 735.36 1294.05 739.967 Q1297.13 744.55 1297.13 753.3 Q1297.13 762.027 1294.05 766.633 Q1290.99 771.217 1285.18 771.217 Q1279.37 771.217 1276.29 766.633 Q1273.24 762.027 1273.24 753.3 Q1273.24 744.55 1276.29 739.967 Q1279.37 735.36 1285.18 735.36 Z" fill="#000000" fill-rule="nonzero" fill-opacity="1" /><path clip-path="url(#clip420)" d="M1305.34 764.666 L1310.23 764.666 L1310.23 770.545 L1305.34 770.545 L1305.34 764.666 Z" fill="#000000" fill-rule="nonzero" fill-opacity="1" /><path clip-path="url(#clip420)" d="M1330.41 739.064 Q1326.8 739.064 1324.97 742.629 Q1323.17 746.17 1323.17 753.3 Q1323.17 760.406 1324.97 763.971 Q1326.8 767.513 1330.41 767.513 Q1334.05 767.513 1335.85 763.971 Q1337.68 760.406 1337.68 753.3 Q1337.68 746.17 1335.85 742.629 Q1334.05 739.064 1330.41 739.064 M1330.41 735.36 Q1336.22 735.36 1339.28 739.967 Q1342.36 744.55 1342.36 753.3 Q1342.36 762.027 1339.28 766.633 Q1336.22 771.217 1330.41 771.217 Q1324.6 771.217 1321.52 766.633 Q1318.47 762.027 1318.47 753.3 Q1318.47 744.55 1321.52 739.967 Q1324.6 735.36 1330.41 735.36 Z" fill="#000000" fill-rule="nonzero" fill-opacity="1" /><path clip-path="url(#clip420)" d="M1360.57 739.064 Q1356.96 739.064 1355.14 742.629 Q1353.33 746.17 1353.33 753.3 Q1353.33 760.406 1355.14 763.971 Q1356.96 767.513 1360.57 767.513 Q1364.21 767.513 1366.01 763.971 Q1367.84 760.406 1367.84 753.3 Q1367.84 746.17 1366.01 742.629 Q1364.21 739.064 1360.57 739.064 M1360.57 735.36 Q1366.39 735.36 1369.44 739.967 Q1372.52 744.55 1372.52 753.3 Q1372.52 762.027 1369.44 766.633 Q1366.39 771.217 1360.57 771.217 Q1354.76 771.217 1351.69 766.633 Q1348.63 762.027 1348.63 753.3 Q1348.63 744.55 1351.69 739.967 Q1354.76 735.36 1360.57 735.36 Z" fill="#000000" fill-rule="nonzero" fill-opacity="1" /><path clip-path="url(#clip420)" d="M1286.18 540.732 Q1282.57 540.732 1280.74 544.297 Q1278.93 547.838 1278.93 554.968 Q1278.93 562.075 1280.74 565.639 Q1282.57 569.181 1286.18 569.181 Q1289.81 569.181 1291.62 565.639 Q1293.45 562.075 1293.45 554.968 Q1293.45 547.838 1291.62 544.297 Q1289.81 540.732 1286.18 540.732 M1286.18 537.028 Q1291.99 537.028 1295.04 541.635 Q1298.12 546.218 1298.12 554.968 Q1298.12 563.695 1295.04 568.301 Q1291.99 572.885 1286.18 572.885 Q1280.37 572.885 1277.29 568.301 Q1274.23 563.695 1274.23 554.968 Q1274.23 546.218 1277.29 541.635 Q1280.37 537.028 1286.18 537.028 Z" fill="#000000" fill-rule="nonzero" fill-opacity="1" /><path clip-path="url(#clip420)" d="M1306.34 566.334 L1311.22 566.334 L1311.22 572.213 L1306.34 572.213 L1306.34 566.334 Z" fill="#000000" fill-rule="nonzero" fill-opacity="1" /><path clip-path="url(#clip420)" d="M1325.44 568.278 L1341.76 568.278 L1341.76 572.213 L1319.81 572.213 L1319.81 568.278 Q1322.47 565.524 1327.06 560.894 Q1331.66 556.241 1332.84 554.899 Q1335.09 552.375 1335.97 550.639 Q1336.87 548.88 1336.87 547.19 Q1336.87 544.436 1334.93 542.7 Q1333.01 540.964 1329.9 540.964 Q1327.7 540.964 1325.25 541.727 Q1322.82 542.491 1320.04 544.042 L1320.04 539.32 Q1322.87 538.186 1325.32 537.607 Q1327.77 537.028 1329.81 537.028 Q1335.18 537.028 1338.38 539.714 Q1341.57 542.399 1341.57 546.889 Q1341.57 549.019 1340.76 550.94 Q1339.97 552.838 1337.87 555.431 Q1337.29 556.102 1334.19 559.32 Q1331.08 562.514 1325.44 568.278 Z" fill="#000000" fill-rule="nonzero" fill-opacity="1" /><path clip-path="url(#clip420)" d="M1351.62 537.653 L1369.97 537.653 L1369.97 541.589 L1355.9 541.589 L1355.9 550.061 Q1356.92 549.713 1357.94 549.551 Q1358.95 549.366 1359.97 549.366 Q1365.76 549.366 1369.14 552.538 Q1372.52 555.709 1372.52 561.125 Q1372.52 566.704 1369.05 569.806 Q1365.57 572.885 1359.26 572.885 Q1357.08 572.885 1354.81 572.514 Q1352.57 572.144 1350.16 571.403 L1350.16 566.704 Q1352.24 567.838 1354.46 568.394 Q1356.69 568.949 1359.16 568.949 Q1363.17 568.949 1365.51 566.843 Q1367.84 564.737 1367.84 561.125 Q1367.84 557.514 1365.51 555.408 Q1363.17 553.301 1359.16 553.301 Q1357.29 553.301 1355.41 553.718 Q1353.56 554.135 1351.62 555.014 L1351.62 537.653 Z" fill="#000000" fill-rule="nonzero" fill-opacity="1" /><path clip-path="url(#clip420)" d="M1285.18 342.4 Q1281.57 342.4 1279.74 345.965 Q1277.94 349.507 1277.94 356.636 Q1277.94 363.743 1279.74 367.307 Q1281.57 370.849 1285.18 370.849 Q1288.82 370.849 1290.62 367.307 Q1292.45 363.743 1292.45 356.636 Q1292.45 349.507 1290.62 345.965 Q1288.82 342.4 1285.18 342.4 M1285.18 338.697 Q1290.99 338.697 1294.05 343.303 Q1297.13 347.886 1297.13 356.636 Q1297.13 365.363 1294.05 369.969 Q1290.99 374.553 1285.18 374.553 Q1279.37 374.553 1276.29 369.969 Q1273.24 365.363 1273.24 356.636 Q1273.24 347.886 1276.29 343.303 Q1279.37 338.697 1285.18 338.697 Z" fill="#000000" fill-rule="nonzero" fill-opacity="1" /><path clip-path="url(#clip420)" d="M1305.34 368.002 L1310.23 368.002 L1310.23 373.881 L1305.34 373.881 L1305.34 368.002 Z" fill="#000000" fill-rule="nonzero" fill-opacity="1" /><path clip-path="url(#clip420)" d="M1320.46 339.321 L1338.82 339.321 L1338.82 343.257 L1324.74 343.257 L1324.74 351.729 Q1325.76 351.382 1326.78 351.22 Q1327.8 351.034 1328.82 351.034 Q1334.6 351.034 1337.98 354.206 Q1341.36 357.377 1341.36 362.794 Q1341.36 368.372 1337.89 371.474 Q1334.42 374.553 1328.1 374.553 Q1325.92 374.553 1323.65 374.182 Q1321.41 373.812 1319 373.071 L1319 368.372 Q1321.08 369.507 1323.31 370.062 Q1325.53 370.618 1328.01 370.618 Q1332.01 370.618 1334.35 368.511 Q1336.69 366.405 1336.69 362.794 Q1336.69 359.183 1334.35 357.076 Q1332.01 354.97 1328.01 354.97 Q1326.13 354.97 1324.26 355.386 Q1322.4 355.803 1320.46 356.683 L1320.46 339.321 Z" fill="#000000" fill-rule="nonzero" fill-opacity="1" /><path clip-path="url(#clip420)" d="M1360.57 342.4 Q1356.96 342.4 1355.14 345.965 Q1353.33 349.507 1353.33 356.636 Q1353.33 363.743 1355.14 367.307 Q1356.96 370.849 1360.57 370.849 Q1364.21 370.849 1366.01 367.307 Q1367.84 363.743 1367.84 356.636 Q1367.84 349.507 1366.01 345.965 Q1364.21 342.4 1360.57 342.4 M1360.57 338.697 Q1366.39 338.697 1369.44 343.303 Q1372.52 347.886 1372.52 356.636 Q1372.52 365.363 1369.44 369.969 Q1366.39 374.553 1360.57 374.553 Q1354.76 374.553 1351.69 369.969 Q1348.63 365.363 1348.63 356.636 Q1348.63 347.886 1351.69 343.303 Q1354.76 338.697 1360.57 338.697 Z" fill="#000000" fill-rule="nonzero" fill-opacity="1" /><path clip-path="url(#clip420)" d="M1286.18 144.068 Q1282.57 144.068 1280.74 147.633 Q1278.93 151.175 1278.93 158.304 Q1278.93 165.411 1280.74 168.976 Q1282.57 172.517 1286.18 172.517 Q1289.81 172.517 1291.62 168.976 Q1293.45 165.411 1293.45 158.304 Q1293.45 151.175 1291.62 147.633 Q1289.81 144.068 1286.18 144.068 M1286.18 140.365 Q1291.99 140.365 1295.04 144.971 Q1298.12 149.554 1298.12 158.304 Q1298.12 167.031 1295.04 171.638 Q1291.99 176.221 1286.18 176.221 Q1280.37 176.221 1277.29 171.638 Q1274.23 167.031 1274.23 158.304 Q1274.23 149.554 1277.29 144.971 Q1280.37 140.365 1286.18 140.365 Z" fill="#000000" fill-rule="nonzero" fill-opacity="1" /><path clip-path="url(#clip420)" d="M1306.34 169.67 L1311.22 169.67 L1311.22 175.55 L1306.34 175.55 L1306.34 169.67 Z" fill="#000000" fill-rule="nonzero" fill-opacity="1" /><path clip-path="url(#clip420)" d="M1320.23 140.99 L1342.45 140.99 L1342.45 142.98 L1329.9 175.55 L1325.02 175.55 L1336.82 144.925 L1320.23 144.925 L1320.23 140.99 Z" fill="#000000" fill-rule="nonzero" fill-opacity="1" /><path clip-path="url(#clip420)" d="M1351.62 140.99 L1369.97 140.99 L1369.97 144.925 L1355.9 144.925 L1355.9 153.397 Q1356.92 153.05 1357.94 152.888 Q1358.95 152.703 1359.97 152.703 Q1365.76 152.703 1369.14 155.874 Q1372.52 159.045 1372.52 164.462 Q1372.52 170.04 1369.05 173.142 Q1365.57 176.221 1359.26 176.221 Q1357.08 176.221 1354.81 175.851 Q1352.57 175.48 1350.16 174.739 L1350.16 170.04 Q1352.24 171.175 1354.46 171.73 Q1356.69 172.286 1359.16 172.286 Q1363.17 172.286 1365.51 170.179 Q1367.84 168.073 1367.84 164.462 Q1367.84 160.851 1365.51 158.744 Q1363.17 156.638 1359.16 156.638 Q1357.29 156.638 1355.41 157.054 Q1353.56 157.471 1351.62 158.351 L1351.62 140.99 Z" fill="#000000" fill-rule="nonzero" fill-opacity="1" /><polyline clip-path="url(#clip421)" style="stroke:#009af9; stroke-linecap:round; stroke-linejoin:round; stroke-width:4; stroke-opacity:1; fill:none" points="1435.24,1354.29 1446.52,1326.87 1457.79,1318.18 1469.07,1314.69 1480.35,1352.63 1491.62,1383.56 1502.9,1410.3 1514.17,1418.83 1525.45,1375.66 1536.73,1315.49 1548,1275.73 1559.28,1245.79 1570.55,1190.37 1581.83,1110.44 1593.1,1050.08 1604.38,941.571 1615.66,902.651 1626.93,824.68 1638.21,769.63 1649.48,675.18 1660.76,627.942 1672.04,612.267 1683.31,564.159 1694.59,553.792 1705.86,535.353 1717.14,501.383 1728.41,445.503 1739.69,344.219 1750.97,251.831 1762.24,204.503 1773.52,146.99 1784.79,87.9763 1796.07,117.999 1807.34,140.058 1818.62,154.906 1829.9,190.069 1841.17,274.484 1852.45,314.469 1863.72,359.465 1875,470.365 1886.28,584.622 1897.55,587.965 1908.83,631.47 1920.1,693.919 1931.38,700.79 1942.65,705.5 1953.93,670.829 1965.21,713.2 1976.48,785.553 1987.76,843.459 1999.03,883.301 2010.31,912.948 2021.59,917.367 2032.86,921.388 2044.14,918.798 2055.41,906.202 2066.69,947.615 2077.96,1020.33 2089.24,1068.19 2100.52,1102 2111.79,1108.39 2123.07,1126.2 2134.34,1192.09 2145.62,1254.25 2156.9,1238 2168.17,1222.39 2179.45,1192.47 2190.72,1159.19 2202,1108.35 2213.27,1115.04 2224.55,1108.7 2235.83,1079.81 2247.1,1079.89 2258.38,1095.97 2269.65,1187.77 2280.93,1221.36 2292.2,1240.03 2303.48,1242.59 2314.76,1252.83 2326.03,1312.97 "/>
<polyline clip-path="url(#clip421)" style="stroke:#e26f46; stroke-linecap:round; stroke-linejoin:round; stroke-width:4; stroke-opacity:1; fill:none" points="1435.24,1362.51 1446.52,1333.46 1457.79,1319.41 1469.07,1326.57 1480.35,1373.52 1491.62,1399.18 1502.9,1407.96 1514.17,1423.2 1525.45,1383.03 1536.73,1313.92 1548,1270.91 1559.28,1235.78 1570.55,1188.09 1581.83,1115.57 1593.1,1058.31 1604.38,962.987 1615.66,919.413 1626.93,828.106 1638.21,775.048 1649.48,668.379 1660.76,620.703 1672.04,593.743 1683.31,558.558 1694.59,545.617 1705.86,526.752 1717.14,498.362 1728.41,439.643 1739.69,331.383 1750.97,242.7 1762.24,200.5 1773.52,155.448 1784.79,102.413 1796.07,132.24 1807.34,142.324 1818.62,155.263 1829.9,184.222 1841.17,276.331 1852.45,310.166 1863.72,368.412 1875,484.37 1886.28,591.475 1897.55,584.694 1908.83,631.917 1920.1,677.536 1931.38,688.649 1942.65,691.833 1953.93,657.851 1965.21,702.479 1976.48,783.085 1987.76,841.583 1999.03,865.516 2010.31,903.296 2021.59,905.498 2032.86,898.637 2044.14,906.546 2055.41,901.24 2066.69,940.213 2077.96,1020.09 2089.24,1068.11 2100.52,1092.01 2111.79,1093.65 2123.07,1112.43 2134.34,1169.44 2145.62,1232.83 2156.9,1233.94 2168.17,1221.26 2179.45,1188.42 2190.72,1164.08 2202,1114.67 2213.27,1123.87 2224.55,1115.16 2235.83,1083.5 2247.1,1089.8 2258.38,1093.18 2269.65,1174.42 2280.93,1216.4 2292.2,1235.03 2303.48,1228.56 2314.76,1256.28 2326.03,1314.65 "/>
<polyline clip-path="url(#clip421)" style="stroke:#3da44d; stroke-linecap:round; stroke-linejoin:round; stroke-width:4; stroke-opacity:1; fill:none" points="1435.24,1391.75 1446.52,1439.16 1457.79,1358.84 1469.07,1445.72 1480.35,1371.24 1491.62,1372.22 1502.9,1382.23 1514.17,1362.97 1525.45,1367.23 1536.73,1331.44 1548,1323.38 1559.28,1266.9 1570.55,1167.85 1581.83,1137.1 1593.1,1021.83 1604.38,906.321 1615.66,845.489 1626.93,908.608 1638.21,864.001 1649.48,710.608 1660.76,647.547 1672.04,620.924 1683.31,466.988 1694.59,393.565 1705.86,508.673 1717.14,460.05 1728.41,392.421 1739.69,239.398 1750.97,95.473 1762.24,153.064 1773.52,134.359 1784.79,99.7842 1796.07,179.863 1807.34,184.749 1818.62,129.27 1829.9,198.253 1841.17,203.418 1852.45,232.936 1863.72,292.796 1875,404.467 1886.28,630.844 1897.55,701.576 1908.83,747.992 1920.1,798.473 1931.38,786.781 1942.65,779.128 1953.93,717.793 1965.21,717.071 1976.48,695.381 1987.76,904.987 1999.03,872.359 2010.31,829.38 2021.59,885.675 2032.86,815.534 2044.14,696.444 2055.41,859.681 2066.69,878.958 2077.96,1074.96 2089.24,1126.6 2100.52,1113.21 2111.79,1078.67 2123.07,1174.56 2134.34,1278.62 2145.62,1239.72 2156.9,1148.34 2168.17,1123.3 2179.45,1025.82 2190.72,1052.55 2202,1111.22 2213.27,1212.98 2224.55,1090.58 2235.83,1095.06 2247.1,1171.18 2258.38,1123.03 2269.65,1199.8 2280.93,1212.5 2292.2,1262.41 2303.48,1170.95 2314.76,1278.79 2326.03,1327.63 "/>
<path clip-path="url(#clip420)" d="M1865.19 302.578 L2321.28 302.578 L2321.28 95.2176 L1865.19 95.2176  Z" fill="#ffffff" fill-rule="evenodd" fill-opacity="1"/>
<polyline clip-path="url(#clip420)" style="stroke:#000000; stroke-linecap:round; stroke-linejoin:round; stroke-width:4; stroke-opacity:1; fill:none" points="1865.19,302.578 2321.28,302.578 2321.28,95.2176 1865.19,95.2176 1865.19,302.578 "/>
<polyline clip-path="url(#clip420)" style="stroke:#009af9; stroke-linecap:round; stroke-linejoin:round; stroke-width:4; stroke-opacity:1; fill:none" points="1875.68,147.058 1938.63,147.058 "/>
<path clip-path="url(#clip420)" d="M1949.13 129.778 L1953.8 129.778 L1953.8 144.384 L1969.31 129.778 L1975.33 129.778 L1958.18 145.889 L1976.56 164.338 L1970.4 164.338 L1953.8 147.694 L1953.8 164.338 L1949.13 164.338 L1949.13 129.778 Z" fill="#000000" fill-rule="nonzero" fill-opacity="1" /><path clip-path="url(#clip420)" d="M1990.98 151.305 Q1985.81 151.305 1983.82 152.486 Q1981.83 153.666 1981.83 156.514 Q1981.83 158.782 1983.31 160.125 Q1984.82 161.444 1987.39 161.444 Q1990.93 161.444 1993.06 158.944 Q1995.21 156.421 1995.21 152.254 L1995.21 151.305 L1990.98 151.305 M1999.47 149.546 L1999.47 164.338 L1995.21 164.338 L1995.21 160.402 Q1993.75 162.763 1991.58 163.898 Q1989.4 165.009 1986.25 165.009 Q1982.27 165.009 1979.91 162.787 Q1977.57 160.541 1977.57 156.791 Q1977.57 152.416 1980.49 150.194 Q1983.43 147.972 1989.24 147.972 L1995.21 147.972 L1995.21 147.555 Q1995.21 144.615 1993.27 143.018 Q1991.35 141.398 1987.85 141.398 Q1985.63 141.398 1983.52 141.93 Q1981.42 142.463 1979.47 143.527 L1979.47 139.592 Q1981.81 138.69 1984.01 138.25 Q1986.21 137.787 1988.29 137.787 Q1993.92 137.787 1996.69 140.703 Q1999.47 143.62 1999.47 149.546 Z" fill="#000000" fill-rule="nonzero" fill-opacity="1" /><path clip-path="url(#clip420)" d="M2008.25 128.319 L2012.5 128.319 L2012.5 164.338 L2008.25 164.338 L2008.25 128.319 Z" fill="#000000" fill-rule="nonzero" fill-opacity="1" /><path clip-path="url(#clip420)" d="M2041.6 143.389 Q2043.2 140.518 2045.42 139.153 Q2047.64 137.787 2050.65 137.787 Q2054.7 137.787 2056.9 140.634 Q2059.1 143.458 2059.1 148.689 L2059.1 164.338 L2054.82 164.338 L2054.82 148.828 Q2054.82 145.102 2053.5 143.296 Q2052.18 141.49 2049.47 141.49 Q2046.16 141.49 2044.24 143.69 Q2042.32 145.889 2042.32 149.685 L2042.32 164.338 L2038.04 164.338 L2038.04 148.828 Q2038.04 145.078 2036.72 143.296 Q2035.4 141.49 2032.64 141.49 Q2029.38 141.49 2027.46 143.713 Q2025.54 145.912 2025.54 149.685 L2025.54 164.338 L2021.25 164.338 L2021.25 138.412 L2025.54 138.412 L2025.54 142.44 Q2027 140.055 2029.03 138.921 Q2031.07 137.787 2033.87 137.787 Q2036.69 137.787 2038.66 139.222 Q2040.65 140.657 2041.6 143.389 Z" fill="#000000" fill-rule="nonzero" fill-opacity="1" /><path clip-path="url(#clip420)" d="M2079.38 151.305 Q2074.22 151.305 2072.23 152.486 Q2070.24 153.666 2070.24 156.514 Q2070.24 158.782 2071.72 160.125 Q2073.22 161.444 2075.79 161.444 Q2079.33 161.444 2081.46 158.944 Q2083.62 156.421 2083.62 152.254 L2083.62 151.305 L2079.38 151.305 M2087.87 149.546 L2087.87 164.338 L2083.62 164.338 L2083.62 160.402 Q2082.16 162.763 2079.98 163.898 Q2077.8 165.009 2074.66 165.009 Q2070.68 165.009 2068.31 162.787 Q2065.98 160.541 2065.98 156.791 Q2065.98 152.416 2068.89 150.194 Q2071.83 147.972 2077.64 147.972 L2083.62 147.972 L2083.62 147.555 Q2083.62 144.615 2081.67 143.018 Q2079.75 141.398 2076.25 141.398 Q2074.03 141.398 2071.93 141.93 Q2069.82 142.463 2067.87 143.527 L2067.87 139.592 Q2070.21 138.69 2072.41 138.25 Q2074.61 137.787 2076.69 137.787 Q2082.32 137.787 2085.1 140.703 Q2087.87 143.62 2087.87 149.546 Z" fill="#000000" fill-rule="nonzero" fill-opacity="1" /><path clip-path="url(#clip420)" d="M2118.2 148.689 L2118.2 164.338 L2113.94 164.338 L2113.94 148.828 Q2113.94 145.148 2112.5 143.319 Q2111.07 141.49 2108.2 141.49 Q2104.75 141.49 2102.76 143.69 Q2100.77 145.889 2100.77 149.685 L2100.77 164.338 L2096.49 164.338 L2096.49 138.412 L2100.77 138.412 L2100.77 142.44 Q2102.3 140.102 2104.36 138.944 Q2106.44 137.787 2109.15 137.787 Q2113.61 137.787 2115.91 140.565 Q2118.2 143.319 2118.2 148.689 Z" fill="#000000" fill-rule="nonzero" fill-opacity="1" /><path clip-path="url(#clip420)" d="M2158.29 139.176 L2158.29 143.203 Q2156.49 142.277 2154.54 141.815 Q2152.6 141.352 2150.51 141.352 Q2147.34 141.352 2145.74 142.324 Q2144.17 143.296 2144.17 145.24 Q2144.17 146.722 2145.3 147.578 Q2146.44 148.412 2149.86 149.176 L2151.32 149.5 Q2155.86 150.472 2157.76 152.254 Q2159.68 154.014 2159.68 157.185 Q2159.68 160.796 2156.81 162.902 Q2153.96 165.009 2148.96 165.009 Q2146.88 165.009 2144.61 164.592 Q2142.36 164.199 2139.86 163.388 L2139.86 158.99 Q2142.23 160.217 2144.52 160.842 Q2146.81 161.444 2149.05 161.444 Q2152.06 161.444 2153.68 160.426 Q2155.3 159.384 2155.3 157.509 Q2155.3 155.773 2154.12 154.847 Q2152.97 153.921 2149.01 153.064 L2147.53 152.717 Q2143.57 151.884 2141.81 150.171 Q2140.05 148.435 2140.05 145.426 Q2140.05 141.768 2142.64 139.778 Q2145.24 137.787 2150 137.787 Q2152.36 137.787 2154.45 138.134 Q2156.53 138.481 2158.29 139.176 Z" fill="#000000" fill-rule="nonzero" fill-opacity="1" /><path clip-path="url(#clip420)" d="M2186.65 143.389 Q2188.24 140.518 2190.47 139.153 Q2192.69 137.787 2195.7 137.787 Q2199.75 137.787 2201.95 140.634 Q2204.15 143.458 2204.15 148.689 L2204.15 164.338 L2199.86 164.338 L2199.86 148.828 Q2199.86 145.102 2198.55 143.296 Q2197.23 141.49 2194.52 141.49 Q2191.21 141.49 2189.29 143.69 Q2187.36 145.889 2187.36 149.685 L2187.36 164.338 L2183.08 164.338 L2183.08 148.828 Q2183.08 145.078 2181.76 143.296 Q2180.44 141.49 2177.69 141.49 Q2174.42 141.49 2172.5 143.713 Q2170.58 145.912 2170.58 149.685 L2170.58 164.338 L2166.3 164.338 L2166.3 138.412 L2170.58 138.412 L2170.58 142.44 Q2172.04 140.055 2174.08 138.921 Q2176.11 137.787 2178.92 137.787 Q2181.74 137.787 2183.71 139.222 Q2185.7 140.657 2186.65 143.389 Z" fill="#000000" fill-rule="nonzero" fill-opacity="1" /><path clip-path="url(#clip420)" d="M2222.69 141.398 Q2219.26 141.398 2217.27 144.083 Q2215.28 146.745 2215.28 151.398 Q2215.28 156.051 2217.25 158.736 Q2219.24 161.398 2222.69 161.398 Q2226.09 161.398 2228.08 158.713 Q2230.07 156.027 2230.07 151.398 Q2230.07 146.791 2228.08 144.106 Q2226.09 141.398 2222.69 141.398 M2222.69 137.787 Q2228.24 137.787 2231.42 141.398 Q2234.59 145.009 2234.59 151.398 Q2234.59 157.764 2231.42 161.398 Q2228.24 165.009 2222.69 165.009 Q2217.11 165.009 2213.94 161.398 Q2210.79 157.764 2210.79 151.398 Q2210.79 145.009 2213.94 141.398 Q2217.11 137.787 2222.69 137.787 Z" fill="#000000" fill-rule="nonzero" fill-opacity="1" /><path clip-path="url(#clip420)" d="M2251.69 141.398 Q2248.27 141.398 2246.28 144.083 Q2244.29 146.745 2244.29 151.398 Q2244.29 156.051 2246.25 158.736 Q2248.24 161.398 2251.69 161.398 Q2255.1 161.398 2257.09 158.713 Q2259.08 156.027 2259.08 151.398 Q2259.08 146.791 2257.09 144.106 Q2255.1 141.398 2251.69 141.398 M2251.69 137.787 Q2257.25 137.787 2260.42 141.398 Q2263.59 145.009 2263.59 151.398 Q2263.59 157.764 2260.42 161.398 Q2257.25 165.009 2251.69 165.009 Q2246.11 165.009 2242.94 161.398 Q2239.79 157.764 2239.79 151.398 Q2239.79 145.009 2242.94 141.398 Q2246.11 137.787 2251.69 137.787 Z" fill="#000000" fill-rule="nonzero" fill-opacity="1" /><path clip-path="url(#clip420)" d="M2274.86 131.051 L2274.86 138.412 L2283.64 138.412 L2283.64 141.722 L2274.86 141.722 L2274.86 155.796 Q2274.86 158.967 2275.72 159.87 Q2276.6 160.773 2279.26 160.773 L2283.64 160.773 L2283.64 164.338 L2279.26 164.338 Q2274.33 164.338 2272.46 162.509 Q2270.58 160.657 2270.58 155.796 L2270.58 141.722 L2267.46 141.722 L2267.46 138.412 L2270.58 138.412 L2270.58 131.051 L2274.86 131.051 Z" fill="#000000" fill-rule="nonzero" fill-opacity="1" /><path clip-path="url(#clip420)" d="M2310.79 148.689 L2310.79 164.338 L2306.53 164.338 L2306.53 148.828 Q2306.53 145.148 2305.1 143.319 Q2303.66 141.49 2300.79 141.49 Q2297.34 141.49 2295.35 143.69 Q2293.36 145.889 2293.36 149.685 L2293.36 164.338 L2289.08 164.338 L2289.08 128.319 L2293.36 128.319 L2293.36 142.44 Q2294.89 140.102 2296.95 138.944 Q2299.03 137.787 2301.74 137.787 Q2306.21 137.787 2308.5 140.565 Q2310.79 143.319 2310.79 148.689 Z" fill="#000000" fill-rule="nonzero" fill-opacity="1" /><polyline clip-path="url(#clip420)" style="stroke:#e26f46; stroke-linecap:round; stroke-linejoin:round; stroke-width:4; stroke-opacity:1; fill:none" points="1875.68,198.898 1938.63,198.898 "/>
<path clip-path="url(#clip420)" d="M1953.41 212.289 L1953.41 226.039 L1949.13 226.039 L1949.13 190.252 L1953.41 190.252 L1953.41 194.187 Q1954.75 191.872 1956.79 190.761 Q1958.85 189.627 1961.69 189.627 Q1966.42 189.627 1969.36 193.377 Q1972.32 197.127 1972.32 203.238 Q1972.32 209.349 1969.36 213.099 Q1966.42 216.849 1961.69 216.849 Q1958.85 216.849 1956.79 215.738 Q1954.75 214.603 1953.41 212.289 M1967.9 203.238 Q1967.9 198.539 1965.95 195.877 Q1964.03 193.192 1960.65 193.192 Q1957.27 193.192 1955.33 195.877 Q1953.41 198.539 1953.41 203.238 Q1953.41 207.937 1955.33 210.622 Q1957.27 213.284 1960.65 213.284 Q1964.03 213.284 1965.95 210.622 Q1967.9 207.937 1967.9 203.238 Z" fill="#000000" fill-rule="nonzero" fill-opacity="1" /><path clip-path="url(#clip420)" d="M1992.5 180.159 L1992.5 183.701 L1988.43 183.701 Q1986.14 183.701 1985.24 184.627 Q1984.36 185.553 1984.36 187.96 L1984.36 190.252 L1991.37 190.252 L1991.37 193.562 L1984.36 193.562 L1984.36 216.178 L1980.07 216.178 L1980.07 193.562 L1976 193.562 L1976 190.252 L1980.07 190.252 L1980.07 188.446 Q1980.07 184.118 1982.09 182.15 Q1984.1 180.159 1988.48 180.159 L1992.5 180.159 Z" fill="#000000" fill-rule="nonzero" fill-opacity="1" /><path clip-path="url(#clip420)" d="M2027.67 191.016 L2027.67 195.043 Q2025.86 194.117 2023.92 193.655 Q2021.97 193.192 2019.89 193.192 Q2016.72 193.192 2015.12 194.164 Q2013.55 195.136 2013.55 197.08 Q2013.55 198.562 2014.68 199.418 Q2015.81 200.252 2019.24 201.016 L2020.7 201.34 Q2025.24 202.312 2027.13 204.094 Q2029.06 205.854 2029.06 209.025 Q2029.06 212.636 2026.18 214.742 Q2023.34 216.849 2018.34 216.849 Q2016.25 216.849 2013.99 216.432 Q2011.74 216.039 2009.24 215.228 L2009.24 210.83 Q2011.6 212.057 2013.89 212.682 Q2016.18 213.284 2018.43 213.284 Q2021.44 213.284 2023.06 212.266 Q2024.68 211.224 2024.68 209.349 Q2024.68 207.613 2023.5 206.687 Q2022.34 205.761 2018.38 204.904 L2016.9 204.557 Q2012.94 203.724 2011.18 202.011 Q2009.43 200.275 2009.43 197.266 Q2009.43 193.608 2012.02 191.618 Q2014.61 189.627 2019.38 189.627 Q2021.74 189.627 2023.82 189.974 Q2025.91 190.321 2027.67 191.016 Z" fill="#000000" fill-rule="nonzero" fill-opacity="1" /><path clip-path="url(#clip420)" d="M2056.02 195.229 Q2057.62 192.358 2059.84 190.993 Q2062.06 189.627 2065.07 189.627 Q2069.12 189.627 2071.32 192.474 Q2073.52 195.298 2073.52 200.529 L2073.52 216.178 L2069.24 216.178 L2069.24 200.668 Q2069.24 196.942 2067.92 195.136 Q2066.6 193.33 2063.89 193.33 Q2060.58 193.33 2058.66 195.53 Q2056.74 197.729 2056.74 201.525 L2056.74 216.178 L2052.46 216.178 L2052.46 200.668 Q2052.46 196.918 2051.14 195.136 Q2049.82 193.33 2047.06 193.33 Q2043.8 193.33 2041.88 195.553 Q2039.96 197.752 2039.96 201.525 L2039.96 216.178 L2035.68 216.178 L2035.68 190.252 L2039.96 190.252 L2039.96 194.28 Q2041.42 191.895 2043.45 190.761 Q2045.49 189.627 2048.29 189.627 Q2051.12 189.627 2053.08 191.062 Q2055.07 192.497 2056.02 195.229 Z" fill="#000000" fill-rule="nonzero" fill-opacity="1" /><path clip-path="url(#clip420)" d="M2092.06 193.238 Q2088.64 193.238 2086.65 195.923 Q2084.66 198.585 2084.66 203.238 Q2084.66 207.891 2086.62 210.576 Q2088.62 213.238 2092.06 213.238 Q2095.47 213.238 2097.46 210.553 Q2099.45 207.867 2099.45 203.238 Q2099.45 198.631 2097.46 195.946 Q2095.47 193.238 2092.06 193.238 M2092.06 189.627 Q2097.62 189.627 2100.79 193.238 Q2103.96 196.849 2103.96 203.238 Q2103.96 209.604 2100.79 213.238 Q2097.62 216.849 2092.06 216.849 Q2086.49 216.849 2083.31 213.238 Q2080.17 209.604 2080.17 203.238 Q2080.17 196.849 2083.31 193.238 Q2086.49 189.627 2092.06 189.627 Z" fill="#000000" fill-rule="nonzero" fill-opacity="1" /><path clip-path="url(#clip420)" d="M2121.07 193.238 Q2117.64 193.238 2115.65 195.923 Q2113.66 198.585 2113.66 203.238 Q2113.66 207.891 2115.63 210.576 Q2117.62 213.238 2121.07 213.238 Q2124.47 213.238 2126.46 210.553 Q2128.45 207.867 2128.45 203.238 Q2128.45 198.631 2126.46 195.946 Q2124.47 193.238 2121.07 193.238 M2121.07 189.627 Q2126.62 189.627 2129.8 193.238 Q2132.97 196.849 2132.97 203.238 Q2132.97 209.604 2129.8 213.238 Q2126.62 216.849 2121.07 216.849 Q2115.49 216.849 2112.32 213.238 Q2109.17 209.604 2109.17 203.238 Q2109.17 196.849 2112.32 193.238 Q2115.49 189.627 2121.07 189.627 Z" fill="#000000" fill-rule="nonzero" fill-opacity="1" /><path clip-path="url(#clip420)" d="M2144.24 182.891 L2144.24 190.252 L2153.01 190.252 L2153.01 193.562 L2144.24 193.562 L2144.24 207.636 Q2144.24 210.807 2145.1 211.71 Q2145.98 212.613 2148.64 212.613 L2153.01 212.613 L2153.01 216.178 L2148.64 216.178 Q2143.71 216.178 2141.83 214.349 Q2139.96 212.497 2139.96 207.636 L2139.96 193.562 L2136.83 193.562 L2136.83 190.252 L2139.96 190.252 L2139.96 182.891 L2144.24 182.891 Z" fill="#000000" fill-rule="nonzero" fill-opacity="1" /><path clip-path="url(#clip420)" d="M2180.17 200.529 L2180.17 216.178 L2175.91 216.178 L2175.91 200.668 Q2175.91 196.988 2174.47 195.159 Q2173.04 193.33 2170.17 193.33 Q2166.72 193.33 2164.73 195.53 Q2162.74 197.729 2162.74 201.525 L2162.74 216.178 L2158.45 216.178 L2158.45 180.159 L2162.74 180.159 L2162.74 194.28 Q2164.26 191.942 2166.32 190.784 Q2168.41 189.627 2171.11 189.627 Q2175.58 189.627 2177.87 192.405 Q2180.17 195.159 2180.17 200.529 Z" fill="#000000" fill-rule="nonzero" fill-opacity="1" /><polyline clip-path="url(#clip420)" style="stroke:#3da44d; stroke-linecap:round; stroke-linejoin:round; stroke-width:4; stroke-opacity:1; fill:none" points="1875.68,250.738 1938.63,250.738 "/>
<path clip-path="url(#clip420)" d="M1956.53 234.731 L1956.53 242.092 L1965.31 242.092 L1965.31 245.402 L1956.53 245.402 L1956.53 259.476 Q1956.53 262.647 1957.39 263.55 Q1958.27 264.453 1960.93 264.453 L1965.31 264.453 L1965.31 268.018 L1960.93 268.018 Q1956 268.018 1954.13 266.189 Q1952.25 264.337 1952.25 259.476 L1952.25 245.402 L1949.13 245.402 L1949.13 242.092 L1952.25 242.092 L1952.25 234.731 L1956.53 234.731 Z" fill="#000000" fill-rule="nonzero" fill-opacity="1" /><path clip-path="url(#clip420)" d="M1985.93 246.073 Q1985.21 245.657 1984.36 245.471 Q1983.52 245.263 1982.5 245.263 Q1978.89 245.263 1976.95 247.624 Q1975.03 249.962 1975.03 254.36 L1975.03 268.018 L1970.75 268.018 L1970.75 242.092 L1975.03 242.092 L1975.03 246.12 Q1976.37 243.758 1978.52 242.624 Q1980.68 241.467 1983.75 241.467 Q1984.19 241.467 1984.73 241.536 Q1985.26 241.583 1985.91 241.698 L1985.93 246.073 Z" fill="#000000" fill-rule="nonzero" fill-opacity="1" /><path clip-path="url(#clip420)" d="M1989.96 257.786 L1989.96 242.092 L1994.22 242.092 L1994.22 257.624 Q1994.22 261.305 1995.65 263.156 Q1997.09 264.985 1999.96 264.985 Q2003.41 264.985 2005.4 262.786 Q2007.41 260.587 2007.41 256.791 L2007.41 242.092 L2011.67 242.092 L2011.67 268.018 L2007.41 268.018 L2007.41 264.036 Q2005.86 266.397 2003.8 267.555 Q2001.76 268.689 1999.06 268.689 Q1994.59 268.689 1992.27 265.911 Q1989.96 263.133 1989.96 257.786 M2000.68 241.467 L2000.68 241.467 Z" fill="#000000" fill-rule="nonzero" fill-opacity="1" /><path clip-path="url(#clip420)" d="M2042.62 253.99 L2042.62 256.073 L2023.04 256.073 Q2023.31 260.471 2025.68 262.786 Q2028.06 265.078 2032.3 265.078 Q2034.75 265.078 2037.04 264.476 Q2039.36 263.874 2041.62 262.67 L2041.62 266.698 Q2039.33 267.67 2036.93 268.18 Q2034.52 268.689 2032.04 268.689 Q2025.84 268.689 2022.2 265.078 Q2018.59 261.467 2018.59 255.309 Q2018.59 248.944 2022.02 245.217 Q2025.47 241.467 2031.3 241.467 Q2036.53 241.467 2039.56 244.846 Q2042.62 248.203 2042.62 253.99 M2038.36 252.74 Q2038.31 249.245 2036.39 247.161 Q2034.5 245.078 2031.35 245.078 Q2027.78 245.078 2025.63 247.092 Q2023.5 249.106 2023.18 252.763 L2038.36 252.74 Z" fill="#000000" fill-rule="nonzero" fill-opacity="1" /></svg>
