<?xml version="1.0" encoding="utf-8"?>
<svg xmlns="http://www.w3.org/2000/svg" xmlns:xlink="http://www.w3.org/1999/xlink" width="600" height="400" viewBox="0 0 2400 1600">
<defs>
  <clipPath id="clip710">
    <rect x="0" y="0" width="2400" height="1600"/>
  </clipPath>
</defs>
<path clip-path="url(#clip710)" d="M0 1600 L2400 1600 L2400 0 L0 0  Z" fill="#ffffff" fill-rule="evenodd" fill-opacity="1"/>
<defs>
  <clipPath id="clip711">
    <rect x="480" y="0" width="1681" height="1600"/>
  </clipPath>
</defs>
<path clip-path="url(#clip710)" d="M140.51 1486.45 L2352.76 1486.45 L2352.76 47.2441 L140.51 47.2441  Z" fill="#ffffff" fill-rule="evenodd" fill-opacity="1"/>
<defs>
  <clipPath id="clip712">
    <rect x="140" y="47" width="2213" height="1440"/>
  </clipPath>
</defs>
<polyline clip-path="url(#clip712)" style="stroke:#000000; stroke-linecap:round; stroke-linejoin:round; stroke-width:2; stroke-opacity:0.1; fill:none" points="353.539,1486.45 353.539,47.2441 "/>
<polyline clip-path="url(#clip712)" style="stroke:#000000; stroke-linecap:round; stroke-linejoin:round; stroke-width:2; stroke-opacity:0.1; fill:none" points="787.185,1486.45 787.185,47.2441 "/>
<polyline clip-path="url(#clip712)" style="stroke:#000000; stroke-linecap:round; stroke-linejoin:round; stroke-width:2; stroke-opacity:0.1; fill:none" points="1220.83,1486.45 1220.83,47.2441 "/>
<polyline clip-path="url(#clip712)" style="stroke:#000000; stroke-linecap:round; stroke-linejoin:round; stroke-width:2; stroke-opacity:0.1; fill:none" points="1654.48,1486.45 1654.48,47.2441 "/>
<polyline clip-path="url(#clip712)" style="stroke:#000000; stroke-linecap:round; stroke-linejoin:round; stroke-width:2; stroke-opacity:0.1; fill:none" points="2088.12,1486.45 2088.12,47.2441 "/>
<polyline clip-path="url(#clip712)" style="stroke:#000000; stroke-linecap:round; stroke-linejoin:round; stroke-width:2; stroke-opacity:0.1; fill:none" points="140.51,1180.02 2352.76,1180.02 "/>
<polyline clip-path="url(#clip712)" style="stroke:#000000; stroke-linecap:round; stroke-linejoin:round; stroke-width:2; stroke-opacity:0.1; fill:none" points="140.51,872.334 2352.76,872.334 "/>
<polyline clip-path="url(#clip712)" style="stroke:#000000; stroke-linecap:round; stroke-linejoin:round; stroke-width:2; stroke-opacity:0.1; fill:none" points="140.51,564.646 2352.76,564.646 "/>
<polyline clip-path="url(#clip712)" style="stroke:#000000; stroke-linecap:round; stroke-linejoin:round; stroke-width:2; stroke-opacity:0.1; fill:none" points="140.51,256.958 2352.76,256.958 "/>
<polyline clip-path="url(#clip710)" style="stroke:#000000; stroke-linecap:round; stroke-linejoin:round; stroke-width:4; stroke-opacity:1; fill:none" points="140.51,1486.45 2352.76,1486.45 "/>
<polyline clip-path="url(#clip710)" style="stroke:#000000; stroke-linecap:round; stroke-linejoin:round; stroke-width:4; stroke-opacity:1; fill:none" points="353.539,1486.45 353.539,1467.55 "/>
<polyline clip-path="url(#clip710)" style="stroke:#000000; stroke-linecap:round; stroke-linejoin:round; stroke-width:4; stroke-opacity:1; fill:none" points="787.185,1486.45 787.185,1467.55 "/>
<polyline clip-path="url(#clip710)" style="stroke:#000000; stroke-linecap:round; stroke-linejoin:round; stroke-width:4; stroke-opacity:1; fill:none" points="1220.83,1486.45 1220.83,1467.55 "/>
<polyline clip-path="url(#clip710)" style="stroke:#000000; stroke-linecap:round; stroke-linejoin:round; stroke-width:4; stroke-opacity:1; fill:none" points="1654.48,1486.45 1654.48,1467.55 "/>
<polyline clip-path="url(#clip710)" style="stroke:#000000; stroke-linecap:round; stroke-linejoin:round; stroke-width:4; stroke-opacity:1; fill:none" points="2088.12,1486.45 2088.12,1467.55 "/>
<path clip-path="url(#clip710)" d="M307.602 1532.02 L337.278 1532.02 L337.278 1535.95 L307.602 1535.95 L307.602 1532.02 Z" fill="#000000" fill-rule="nonzero" fill-opacity="1" /><path clip-path="url(#clip710)" d="M361.537 1530.21 Q364.893 1530.93 366.768 1533.2 Q368.666 1535.47 368.666 1538.8 Q368.666 1543.92 365.148 1546.72 Q361.629 1549.52 355.148 1549.52 Q352.972 1549.52 350.657 1549.08 Q348.365 1548.66 345.912 1547.81 L345.912 1543.29 Q347.856 1544.43 350.171 1545.01 Q352.486 1545.58 355.009 1545.58 Q359.407 1545.58 361.699 1543.85 Q364.013 1542.11 364.013 1538.8 Q364.013 1535.75 361.861 1534.03 Q359.731 1532.3 355.912 1532.3 L351.884 1532.3 L351.884 1528.45 L356.097 1528.45 Q359.546 1528.45 361.375 1527.09 Q363.203 1525.7 363.203 1523.11 Q363.203 1520.45 361.305 1519.03 Q359.43 1517.6 355.912 1517.6 Q353.99 1517.6 351.791 1518.01 Q349.592 1518.43 346.953 1519.31 L346.953 1515.14 Q349.615 1514.4 351.93 1514.03 Q354.268 1513.66 356.328 1513.66 Q361.652 1513.66 364.754 1516.09 Q367.856 1518.5 367.856 1522.62 Q367.856 1525.49 366.213 1527.48 Q364.569 1529.45 361.537 1530.21 Z" fill="#000000" fill-rule="nonzero" fill-opacity="1" /><path clip-path="url(#clip710)" d="M387.532 1517.37 Q383.921 1517.37 382.092 1520.93 Q380.287 1524.47 380.287 1531.6 Q380.287 1538.71 382.092 1542.27 Q383.921 1545.82 387.532 1545.82 Q391.166 1545.82 392.972 1542.27 Q394.8 1538.71 394.8 1531.6 Q394.8 1524.47 392.972 1520.93 Q391.166 1517.37 387.532 1517.37 M387.532 1513.66 Q393.342 1513.66 396.398 1518.27 Q399.476 1522.85 399.476 1531.6 Q399.476 1540.33 396.398 1544.94 Q393.342 1549.52 387.532 1549.52 Q381.722 1549.52 378.643 1544.94 Q375.588 1540.33 375.588 1531.6 Q375.588 1522.85 378.643 1518.27 Q381.722 1513.66 387.532 1513.66 Z" fill="#000000" fill-rule="nonzero" fill-opacity="1" /><path clip-path="url(#clip710)" d="M787.185 1517.37 Q783.574 1517.37 781.745 1520.93 Q779.94 1524.47 779.94 1531.6 Q779.94 1538.71 781.745 1542.27 Q783.574 1545.82 787.185 1545.82 Q790.819 1545.82 792.625 1542.27 Q794.454 1538.71 794.454 1531.6 Q794.454 1524.47 792.625 1520.93 Q790.819 1517.37 787.185 1517.37 M787.185 1513.66 Q792.995 1513.66 796.051 1518.27 Q799.13 1522.85 799.13 1531.6 Q799.13 1540.33 796.051 1544.94 Q792.995 1549.52 787.185 1549.52 Q781.375 1549.52 778.296 1544.94 Q775.241 1540.33 775.241 1531.6 Q775.241 1522.85 778.296 1518.27 Q781.375 1513.66 787.185 1513.66 Z" fill="#000000" fill-rule="nonzero" fill-opacity="1" /><path clip-path="url(#clip710)" d="M1209.67 1530.21 Q1213.03 1530.93 1214.91 1533.2 Q1216.8 1535.47 1216.8 1538.8 Q1216.8 1543.92 1213.29 1546.72 Q1209.77 1549.52 1203.29 1549.52 Q1201.11 1549.52 1198.79 1549.08 Q1196.5 1548.66 1194.05 1547.81 L1194.05 1543.29 Q1195.99 1544.43 1198.31 1545.01 Q1200.62 1545.58 1203.15 1545.58 Q1207.54 1545.58 1209.84 1543.85 Q1212.15 1542.11 1212.15 1538.8 Q1212.15 1535.75 1210 1534.03 Q1207.87 1532.3 1204.05 1532.3 L1200.02 1532.3 L1200.02 1528.45 L1204.23 1528.45 Q1207.68 1528.45 1209.51 1527.09 Q1211.34 1525.7 1211.34 1523.11 Q1211.34 1520.45 1209.44 1519.03 Q1207.57 1517.6 1204.05 1517.6 Q1202.13 1517.6 1199.93 1518.01 Q1197.73 1518.43 1195.09 1519.31 L1195.09 1515.14 Q1197.75 1514.4 1200.07 1514.03 Q1202.41 1513.66 1204.47 1513.66 Q1209.79 1513.66 1212.89 1516.09 Q1215.99 1518.5 1215.99 1522.62 Q1215.99 1525.49 1214.35 1527.48 Q1212.71 1529.45 1209.67 1530.21 Z" fill="#000000" fill-rule="nonzero" fill-opacity="1" /><path clip-path="url(#clip710)" d="M1235.67 1517.37 Q1232.06 1517.37 1230.23 1520.93 Q1228.42 1524.47 1228.42 1531.6 Q1228.42 1538.71 1230.23 1542.27 Q1232.06 1545.82 1235.67 1545.82 Q1239.3 1545.82 1241.11 1542.27 Q1242.94 1538.71 1242.94 1531.6 Q1242.94 1524.47 1241.11 1520.93 Q1239.3 1517.37 1235.67 1517.37 M1235.67 1513.66 Q1241.48 1513.66 1244.54 1518.27 Q1247.61 1522.85 1247.61 1531.6 Q1247.61 1540.33 1244.54 1544.94 Q1241.48 1549.52 1235.67 1549.52 Q1229.86 1549.52 1226.78 1544.94 Q1223.72 1540.33 1223.72 1531.6 Q1223.72 1522.85 1226.78 1518.27 Q1229.86 1513.66 1235.67 1513.66 Z" fill="#000000" fill-rule="nonzero" fill-opacity="1" /><path clip-path="url(#clip710)" d="M1639.88 1529.7 Q1636.73 1529.7 1634.88 1531.86 Q1633.05 1534.01 1633.05 1537.76 Q1633.05 1541.49 1634.88 1543.66 Q1636.73 1545.82 1639.88 1545.82 Q1643.03 1545.82 1644.86 1543.66 Q1646.71 1541.49 1646.71 1537.76 Q1646.71 1534.01 1644.86 1531.86 Q1643.03 1529.7 1639.88 1529.7 M1649.17 1515.05 L1649.17 1519.31 Q1647.41 1518.48 1645.6 1518.04 Q1643.82 1517.6 1642.06 1517.6 Q1637.43 1517.6 1634.98 1520.72 Q1632.54 1523.85 1632.2 1530.17 Q1633.56 1528.15 1635.62 1527.09 Q1637.68 1526 1640.16 1526 Q1645.37 1526 1648.38 1529.17 Q1651.41 1532.32 1651.41 1537.76 Q1651.41 1543.08 1648.26 1546.3 Q1645.11 1549.52 1639.88 1549.52 Q1633.89 1549.52 1630.72 1544.94 Q1627.54 1540.33 1627.54 1531.6 Q1627.54 1523.41 1631.43 1518.55 Q1635.32 1513.66 1641.87 1513.66 Q1643.63 1513.66 1645.42 1514.01 Q1647.22 1514.36 1649.17 1515.05 Z" fill="#000000" fill-rule="nonzero" fill-opacity="1" /><path clip-path="url(#clip710)" d="M1669.47 1517.37 Q1665.85 1517.37 1664.03 1520.93 Q1662.22 1524.47 1662.22 1531.6 Q1662.22 1538.71 1664.03 1542.27 Q1665.85 1545.82 1669.47 1545.82 Q1673.1 1545.82 1674.91 1542.27 Q1676.73 1538.71 1676.73 1531.6 Q1676.73 1524.47 1674.91 1520.93 Q1673.1 1517.37 1669.47 1517.37 M1669.47 1513.66 Q1675.28 1513.66 1678.33 1518.27 Q1681.41 1522.85 1681.41 1531.6 Q1681.41 1540.33 1678.33 1544.94 Q1675.28 1549.52 1669.47 1549.52 Q1663.66 1549.52 1660.58 1544.94 Q1657.52 1540.33 1657.52 1531.6 Q1657.52 1522.85 1660.58 1518.27 Q1663.66 1513.66 1669.47 1513.66 Z" fill="#000000" fill-rule="nonzero" fill-opacity="1" /><path clip-path="url(#clip710)" d="M2063.25 1548.13 L2063.25 1543.87 Q2065.01 1544.7 2066.82 1545.14 Q2068.62 1545.58 2070.36 1545.58 Q2074.99 1545.58 2077.42 1542.48 Q2079.87 1539.36 2080.22 1533.01 Q2078.88 1535.01 2076.82 1536.07 Q2074.76 1537.13 2072.26 1537.13 Q2067.07 1537.13 2064.04 1534.01 Q2061.03 1530.86 2061.03 1525.42 Q2061.03 1520.1 2064.18 1516.88 Q2067.33 1513.66 2072.56 1513.66 Q2078.55 1513.66 2081.7 1518.27 Q2084.87 1522.85 2084.87 1531.6 Q2084.87 1539.77 2080.98 1544.66 Q2077.12 1549.52 2070.57 1549.52 Q2068.81 1549.52 2067 1549.17 Q2065.2 1548.82 2063.25 1548.13 M2072.56 1533.48 Q2075.7 1533.48 2077.53 1531.32 Q2079.39 1529.17 2079.39 1525.42 Q2079.39 1521.7 2077.53 1519.54 Q2075.7 1517.37 2072.56 1517.37 Q2069.41 1517.37 2067.56 1519.54 Q2065.73 1521.7 2065.73 1525.42 Q2065.73 1529.17 2067.56 1531.32 Q2069.41 1533.48 2072.56 1533.48 Z" fill="#000000" fill-rule="nonzero" fill-opacity="1" /><path clip-path="url(#clip710)" d="M2103.27 1517.37 Q2099.66 1517.37 2097.83 1520.93 Q2096.03 1524.47 2096.03 1531.6 Q2096.03 1538.71 2097.83 1542.27 Q2099.66 1545.82 2103.27 1545.82 Q2106.91 1545.82 2108.71 1542.27 Q2110.54 1538.71 2110.54 1531.6 Q2110.54 1524.47 2108.71 1520.93 Q2106.91 1517.37 2103.27 1517.37 M2103.27 1513.66 Q2109.08 1513.66 2112.14 1518.27 Q2115.22 1522.85 2115.22 1531.6 Q2115.22 1540.33 2112.14 1544.94 Q2109.08 1549.52 2103.27 1549.52 Q2097.46 1549.52 2094.39 1544.94 Q2091.33 1540.33 2091.33 1531.6 Q2091.33 1522.85 2094.39 1518.27 Q2097.46 1513.66 2103.27 1513.66 Z" fill="#000000" fill-rule="nonzero" fill-opacity="1" /><polyline clip-path="url(#clip710)" style="stroke:#000000; stroke-linecap:round; stroke-linejoin:round; stroke-width:4; stroke-opacity:1; fill:none" points="140.51,1486.45 140.51,47.2441 "/>
<polyline clip-path="url(#clip710)" style="stroke:#000000; stroke-linecap:round; stroke-linejoin:round; stroke-width:4; stroke-opacity:1; fill:none" points="140.51,1180.02 159.408,1180.02 "/>
<polyline clip-path="url(#clip710)" style="stroke:#000000; stroke-linecap:round; stroke-linejoin:round; stroke-width:4; stroke-opacity:1; fill:none" points="140.51,872.334 159.408,872.334 "/>
<polyline clip-path="url(#clip710)" style="stroke:#000000; stroke-linecap:round; stroke-linejoin:round; stroke-width:4; stroke-opacity:1; fill:none" points="140.51,564.646 159.408,564.646 "/>
<polyline clip-path="url(#clip710)" style="stroke:#000000; stroke-linecap:round; stroke-linejoin:round; stroke-width:4; stroke-opacity:1; fill:none" points="140.51,256.958 159.408,256.958 "/>
<path clip-path="url(#clip710)" d="M92.566 1165.82 Q88.9549 1165.82 87.1262 1169.38 Q85.3206 1172.93 85.3206 1180.06 Q85.3206 1187.16 87.1262 1190.73 Q88.9549 1194.27 92.566 1194.27 Q96.2002 1194.27 98.0058 1190.73 Q99.8345 1187.16 99.8345 1180.06 Q99.8345 1172.93 98.0058 1169.38 Q96.2002 1165.82 92.566 1165.82 M92.566 1162.12 Q98.3761 1162.12 101.432 1166.72 Q104.51 1171.31 104.51 1180.06 Q104.51 1188.78 101.432 1193.39 Q98.3761 1197.97 92.566 1197.97 Q86.7558 1197.97 83.6771 1193.39 Q80.6216 1188.78 80.6216 1180.06 Q80.6216 1171.31 83.6771 1166.72 Q86.7558 1162.12 92.566 1162.12 Z" fill="#000000" fill-rule="nonzero" fill-opacity="1" /><path clip-path="url(#clip710)" d="M57.4273 885.678 L73.7466 885.678 L73.7466 889.614 L51.8023 889.614 L51.8023 885.678 Q54.4643 882.924 59.0476 878.294 Q63.6541 873.641 64.8346 872.299 Q67.08 869.776 67.9596 868.04 Q68.8624 866.28 68.8624 864.591 Q68.8624 861.836 66.918 860.1 Q64.9967 858.364 61.8948 858.364 Q59.6958 858.364 57.2421 859.128 Q54.8115 859.892 52.0338 861.442 L52.0338 856.72 Q54.8578 855.586 57.3115 855.007 Q59.7652 854.429 61.8023 854.429 Q67.1726 854.429 70.367 857.114 Q73.5614 859.799 73.5614 864.29 Q73.5614 866.419 72.7513 868.341 Q71.9642 870.239 69.8578 872.831 Q69.2791 873.503 66.1772 876.72 Q63.0754 879.915 57.4273 885.678 Z" fill="#000000" fill-rule="nonzero" fill-opacity="1" /><path clip-path="url(#clip710)" d="M83.6077 855.054 L101.964 855.054 L101.964 858.989 L87.8901 858.989 L87.8901 867.461 Q88.9086 867.114 89.9271 866.952 Q90.9456 866.767 91.9641 866.767 Q97.7511 866.767 101.131 869.938 Q104.51 873.109 104.51 878.526 Q104.51 884.104 101.038 887.206 Q97.566 890.285 91.2465 890.285 Q89.0706 890.285 86.8021 889.915 Q84.5568 889.544 82.1494 888.803 L82.1494 884.104 Q84.2327 885.239 86.4549 885.794 Q88.6771 886.35 91.1539 886.35 Q95.1586 886.35 97.4965 884.243 Q99.8345 882.137 99.8345 878.526 Q99.8345 874.915 97.4965 872.808 Q95.1586 870.702 91.1539 870.702 Q89.279 870.702 87.404 871.118 Q85.5521 871.535 83.6077 872.415 L83.6077 855.054 Z" fill="#000000" fill-rule="nonzero" fill-opacity="1" /><path clip-path="url(#clip710)" d="M52.4505 547.366 L70.8068 547.366 L70.8068 551.301 L56.7328 551.301 L56.7328 559.773 Q57.7513 559.426 58.7699 559.264 Q59.7884 559.079 60.8069 559.079 Q66.5939 559.079 69.9735 562.25 Q73.3531 565.421 73.3531 570.838 Q73.3531 576.417 69.8809 579.519 Q66.4087 582.597 60.0893 582.597 Q57.9134 582.597 55.6449 582.227 Q53.3995 581.857 50.9921 581.116 L50.9921 576.417 Q53.0754 577.551 55.2977 578.107 Q57.5199 578.662 59.9967 578.662 Q64.0013 578.662 66.3393 576.556 Q68.6772 574.449 68.6772 570.838 Q68.6772 567.227 66.3393 565.121 Q64.0013 563.014 59.9967 563.014 Q58.1217 563.014 56.2467 563.431 Q54.3949 563.847 52.4505 564.727 L52.4505 547.366 Z" fill="#000000" fill-rule="nonzero" fill-opacity="1" /><path clip-path="url(#clip710)" d="M92.566 550.445 Q88.9549 550.445 87.1262 554.009 Q85.3206 557.551 85.3206 564.681 Q85.3206 571.787 87.1262 575.352 Q88.9549 578.894 92.566 578.894 Q96.2002 578.894 98.0058 575.352 Q99.8345 571.787 99.8345 564.681 Q99.8345 557.551 98.0058 554.009 Q96.2002 550.445 92.566 550.445 M92.566 546.741 Q98.3761 546.741 101.432 551.347 Q104.51 555.931 104.51 564.681 Q104.51 573.408 101.432 578.014 Q98.3761 582.597 92.566 582.597 Q86.7558 582.597 83.6771 578.014 Q80.6216 573.408 80.6216 564.681 Q80.6216 555.931 83.6771 551.347 Q86.7558 546.741 92.566 546.741 Z" fill="#000000" fill-rule="nonzero" fill-opacity="1" /><path clip-path="url(#clip710)" d="M52.219 239.678 L74.4411 239.678 L74.4411 241.669 L61.8948 274.238 L57.0106 274.238 L68.8161 243.613 L52.219 243.613 L52.219 239.678 Z" fill="#000000" fill-rule="nonzero" fill-opacity="1" /><path clip-path="url(#clip710)" d="M83.6077 239.678 L101.964 239.678 L101.964 243.613 L87.8901 243.613 L87.8901 252.086 Q88.9086 251.738 89.9271 251.576 Q90.9456 251.391 91.9641 251.391 Q97.7511 251.391 101.131 254.563 Q104.51 257.734 104.51 263.15 Q104.51 268.729 101.038 271.831 Q97.566 274.91 91.2465 274.91 Q89.0706 274.91 86.8021 274.539 Q84.5568 274.169 82.1494 273.428 L82.1494 268.729 Q84.2327 269.863 86.4549 270.419 Q88.6771 270.974 91.1539 270.974 Q95.1586 270.974 97.4965 268.868 Q99.8345 266.762 99.8345 263.15 Q99.8345 259.539 97.4965 257.433 Q95.1586 255.326 91.1539 255.326 Q89.279 255.326 87.404 255.743 Q85.5521 256.16 83.6077 257.039 L83.6077 239.678 Z" fill="#000000" fill-rule="nonzero" fill-opacity="1" /><polyline clip-path="url(#clip712)" style="stroke:#0000ff; stroke-linecap:round; stroke-linejoin:round; stroke-width:4; stroke-opacity:1; fill:none" points="203.121,716.1 232.812,722.052 237.05,717.485 248.708,717.236 255.973,717.206 278.938,719.772 301.976,723.288 329.155,725.634 355.536,727.183 385.365,731.806 414.595,732.283 440.263,733.026 476.103,734.639 498.734,740.099 522.389,744.444 557.349,747.972 582.965,749.727 605.226,754.089 634.076,760.315 657.573,767.666 680.722,775.589 703.834,782.577 731.5,788.951 754.263,797.369 780.326,803.302 811.263,811.149 834.049,811.795 867.479,813.812 893.524,821.609 920.672,828.323 951.264,837.675 975.603,846.491 1001.43,853.6 1020.35,863.513 1037.35,875.852 1045.83,881.971 1066.74,885.255 1084.49,887.214 1105.76,888.729 1131.74,892.062 1158.18,901.567 1184.57,911.415 1207.04,916.525 1233.07,919.866 1265.09,921.813 1294.31,923.388 1327.37,927.148 1356.06,931.982 1382.57,936.017 1407.85,938.557 1439.48,938.881 1463.15,938.551 1490.26,937.787 1517.42,934.912 1546.11,929.795 1574.46,929.835 1602.24,927.742 1628.51,927.929 1649.56,921.732 1668.31,918.901 1685.01,912.298 1702.6,906.003 1723.29,905.24 1746.07,903.199 1767.75,904.666 1786.72,908.264 1808.34,915.145 1828.29,926.389 1849.91,938.496 1866.1,949.931 1882.25,966.653 1892.98,980.669 1900.26,994.918 1910.08,1013.79 1921.36,1031.96 1933.85,1050.73 1944.48,1061.92 1962.53,1069.19 1977.45,1072.18 1987.74,1071.24 2008.81,1065.12 2024.89,1060.27 2045.88,1041.24 2057.96,1026.35 2062.62,1006.34 2065.35,986.658 2064.37,964.241 2050.06,948.036 2031.96,939.428 2008.73,931.295 1979.25,934.294 1955.2,932.184 1935.16,926.807 1916.42,924.408 1893.87,923.458 1873.66,929.35 1851.05,935.85 1833.72,943.404 1811.03,946.176 1786.02,945.845 1759.27,941.838 1736.72,932.745 1714.1,922.212 1683.06,905.914 1656.52,887.885 1634.03,869.374 1618.69,854.001 1607.25,840.753 1590.63,827.153 1576.03,810.819 1563.78,795.654 1555.94,779.243 1556.19,763.755 1568.58,749.079 1581.03,736.667 1603.79,729.639 1623.51,728.922 1650.02,729.175 1668.93,741.499 1689.58,749.521 1704.26,753.978 1727.86,760.852 1751.76,772.7 1764.67,781.87 1782.46,792.5 1800.9,802.925 1823,810.828 1843.07,812.855 1864.13,813.828 1888.77,807.05 1909.79,802.634 1925.37,801.752 1944.73,808.106 1961.91,819.429 1977.32,835.26 1987.63,851.784 1996.24,871.092 2003.7,892.696 2007.29,912.274 2006.55,933.133 2006.7,944.356 2009.3,958.207 2019.48,977.366 2026.51,994.979 2038.1,1010.17 2049.16,1017.02 2061.89,1021.05 2079.01,1017.63 2098.04,1010.05 2112.23,1000.37 2129.17,987.692 2138.58,978.703 2142.57,960.477 2135.75,943.819 2119.35,925.367 2104.45,907.484 2080.87,896.619 2049.61,893.8 2023.15,889.359 2006.08,885.313 1981.3,882.266 1960.92,879.603 1942.01,870.438 1926.94,863.699 1904.52,857.416 1888.81,856.812 1866.59,858.782 1846.54,853.897 1824.88,848.956 1805.42,847.939 1781.02,844.449 1763.05,839.876 1745.86,835.357 1723.93,833.695 1696.41,834.865 1670,840.191 1653.54,839.978 1647.88,832.463 1643.01,828.989 1637.07,827.953 1626.65,827.079 1618.14,825.992 1604.6,830.083 1590.36,836.057 1565.01,840.109 1543.75,844.01 1528.97,849.83 1518.95,858.805 1525.15,860.31 1538.76,858.994 1570.09,854.391 1590.91,837.093 1607.39,822.465 1614.46,806.773 1607.73,790.416 1593.51,771.084 1582.36,760.805 1572.2,740.21 1553.42,728.933 1532.37,738.79 1510.29,740.733 1480.51,736.23 1476.83,719.054 1472.27,699.669 1472.85,678.026 1477.03,661.44 1492.07,638.828 1499.43,620.446 1503.09,596.64 1486.45,583.811 1464.14,576.256 1454.68,573.758 1463.44,561.26 1483.71,550.095 1519.77,548.536 1557.81,535.445 1584.12,517.96 1602.6,494.734 1616.52,473.802 1637.53,463.319 1664.24,465.857 1689.22,471.597 1708.39,489.553 1735.95,502.102 1755.67,518.58 1766.62,539.778 1755.56,556.893 1736.45,573.583 1709.1,586.155 1676.01,592.492 1650.16,591.848 1617.22,576.72 1591.6,561.517 1579.87,540.834 1578.83,518.307 1596.65,503.015 1611.67,494.056 1633.58,479.852 1659.25,471.03 1681.93,454.796 1705.09,441.559 1724.8,441.847 1747.44,428.112 1751.28,413.793 1761.57,396.41 1774.32,390.926 1792.18,373.768 1785.43,360.224 1764.36,349.467 1760.23,347.518 1770.66,343.227 1793.79,337.572 1822.11,340.796 1847.92,343.812 1875.59,348.607 1900.14,366.338 1904.42,384.339 1900.81,396.027 1879.66,408.397 1864.42,431.088 1849.51,457.585 1838.54,489.163 1841.07,510.298 1805.64,513.53 1782.38,528.403 1751.1,535.402 1719.01,552.314 1701.86,577.459 1681.98,594.548 1655.28,589.955 1631.8,579.492 1603.42,569.737 1588.71,557.571 1562.78,540.862 1554.38,533.494 1562.44,511.583 1586.65,503.714 1621.71,497.78 1651.2,500.841 1685.55,508.398 1713.75,521.997 1722.7,543.528 1736.51,564.845 1752.87,570.119 1779.28,574.261 1802.55,584.404 1811.26,587.01 1837.89,580.17 1862.63,572.044 1881.66,562.555 1901.44,566.174 1921.57,579.905 1920.98,597.118 1921.6,617.826 1908.64,650.678 1887.97,676.872 1863.42,696.231 1840.19,725.6 1838.53,750.232 1803.07,763.382 1774.86,768.441 1747.95,782.993 1720.7,796.221 1703.86,816.127 1687.45,836.542 1661.48,860.525 1634.57,868.668 1607.94,860.063 1583.21,853.656 1551.14,850.772 1523.22,841.882 1503.63,821.369 1489.19,801.542 1458.57,778.014 1441.34,758.759 1416.18,741.945 1391.62,738.855 1360.77,743.98 1342.31,742.248 1317.56,733.755 1312.14,707.792 1295.14,699.367 1270.75,703.319 1252.88,712.162 1228.17,729.104 1221.94,735.538 1191.49,738.905 1167.59,744.078 1142.23,738.906 1121.03,721.099 1098.05,708.028 1063.33,702.821 1029.96,694.186 1008.04,687.769 986.959,678.672 966.99,657.996 966.095,644.046 975.452,625.027 992.053,604.124 1002.91,581.073 1007.98,550.287 1016.07,525.807 1002.04,505.55 983.134,501.382 971.103,491.128 975.075,477.173 1001.23,475.626 1036.77,478.754 1078.85,476.505 1112.73,472.796 1140.2,455.046 1165.82,430.55 1190.28,409.788 1221.48,403.034 1260.22,405.965 1292.39,417.594 1322.97,433.455 1353.43,445.839 1381.09,458.217 1403.72,472.403 1439.52,480.197 1466.05,494.3 1492.72,517.027 1522.39,543.198 1550.07,558.996 1574.24,570.699 1592.77,580.914 1602.13,571.736 1623.13,561.971 1649.31,548.42 1673.33,539.086 1703.79,528.277 1737.14,526.032 1772.16,534.954 1799.08,559.262 1807.45,580.354 1804.39,612.458 1787.39,644.251 1784.03,672.288 1775.6,703.751 1775.66,737.975 1791.83,768.493 1822.94,794.596 1863.53,793.794 1884.53,795.912 1914.69,803.71 1935.74,823.967 1960.73,849.671 1982.67,881.261 1994.1,914.105 1998.82,936.781 2016.11,920.992 2050.85,924.63 2077.28,930.715 2090.75,945.417 2092.25,950.675 2093.13,954.479 2097.78,971.096 2100.93,977.341 2114.23,981.468 2129.59,982.975 2159.52,976.674 2187.79,986.899 2201.2,999.257 2215.27,1020.89 2215.95,1033.25 2218.1,1023.21 2223.38,1006.24 2223.14,979.021 2213.25,952.352 2198.36,927.435 2187.23,905.424 2186.32,884.989 2159.99,862.631 2152.99,831.749 2156.76,806.591 2175.01,795.452 2195.67,797.539 2219.29,805.615 2235.88,818.055 2249.25,836.84 2275.13,858.908 2289.04,880.759 2281.38,908.397 2260.79,930.654 2242.38,950.869 2213.13,963.603 2193.91,982.227 2165.48,994.801 2139.81,1017.74 2120.01,1039.62 2108.85,1063.75 2089.06,1086.69 2071.68,1108.18 2046.9,1125.95 2020.43,1137.82 1988.49,1153.34 1962.64,1171.7 1934.46,1180.89 1905.25,1199.65 1889.19,1216.53 1856.68,1229.38 1837.79,1243.52 1819.38,1262.87 1801.13,1291.44 1793.88,1311.54 1788.73,1332.09 1782.53,1356.47 1804.49,1377.95 1813.49,1392.07 1806.03,1415.43 1799.68,1440.74 1780.35,1445.72 1756.78,1442.5 1734.21,1425.02 1720.9,1398.38 1707.91,1376.65 1685.04,1354.01 1647.21,1327.64 1613.84,1320.18 1578.57,1319.16 1541.84,1326.08 1501.86,1336.77 1474.28,1337.85 1439.45,1326.97 1413.22,1314.22 1392.75,1289.62 1390.69,1256.22 1386.21,1216.8 1366.02,1190.05 1343.82,1168.94 1348.44,1137.01 1347.05,1108.35 1339.15,1083.72 1325.79,1055.43 1306.25,1030.93 1301.98,1004.26 1308.25,971.169 1317.79,938.643 1336.16,909.754 1352.53,878.42 1366.09,845.548 1395,824.942 1388.71,796.788 1372.52,772.7 1343.74,749.705 1310.31,746.521 1289.4,733.523 1281.19,707.715 1276.93,676.251 1289.56,648.52 1303.09,626.855 1325.14,617.139 1356.94,605.555 1393.49,600.597 1434.62,595.706 1473.35,596.777 1502.28,589.311 1525.12,562.697 1544.09,540.909 1572.07,527.766 1594.99,523.134 1597.8,508.285 1584.75,495.097 1562.41,479.864 1537.6,467.027 1508.97,440.62 1485.83,414.814 1472.12,388.801 1454.34,368.424 1450.7,350.218 1457.68,328.541 1474.74,318.943 1492.69,328.172 1523.01,332.939 1563.59,335.502 1598.49,343.741 1637.41,349.288 1671.21,352.914 1701.79,367.749 1726.95,374.12 1753.03,366.856 1777.86,357.088 1809.06,351.881 1841.83,351.455 1872.92,346.207 1895.85,360.705 1907.5,376.596 1912.18,371.271 1922.16,355.066 1939.35,338.024 1957.54,328.015 1981.39,312.76 2001.18,303.952 1992.38,303.806 1969.93,292.09 1959.61,275.352 1948.4,246.667 1951.49,217.263 1962.39,201.506 1990.88,190.621 2024.03,193.769 2049.52,197.611 2084.4,202.214 2120.88,214.468 2143.03,236.953 2148.13,265.958 2140.62,292.623 2129.51,302.582 2132.59,318.327 2137.46,340.438 2132.18,370.945 2103.91,388.12 2086.16,422.842 2058.81,445.177 2035.19,471.663 2027.66,506.677 2001.46,514.801 1965.57,515.813 1929.93,527.843 1898.24,542.049 1882.12,569.021 1870.75,600.004 1868.28,616.445 1895.66,621.539 1925.4,634.35 1963.46,648.628 1997.45,673.161 2025.13,688.95 2064.08,692.761 2099.56,692.561 2138.98,690.299 2168.07,694.821 2194.25,693.582 2204.29,678.633 2218.45,659.76 2233.96,639.099 2233.42,613.95 2229.69,595.195 2219.58,571.839 2193.21,550.06 2171.85,530.849 2146.3,515.895 2104.11,517.099 2079.33,523.903 2055.69,541.589 2038.01,560.915 2011.83,585.91 2006.87,615.452 2012.59,647.606 2016.57,677.325 2033.74,704.707 2047.48,729.387 2060.8,763.119 2074.88,792.778 2106.26,806.102 2136.64,823.065 2162.65,850.962 2183.99,874.296 2198.42,905.967 2204.94,930.913 2202.35,943.137 2169.76,944.489 2133.21,957.609 2104.93,956.616 2089.47,962.868 2069.66,967.602 2047.37,962.564 2015.95,948.568 1986.69,940.195 1950.01,944.099 1906.12,957.11 1867.74,970.18 1828.47,971.059 1785.78,978.673 1747.68,979.503 1708.3,980.681 1676.93,974.58 1641.24,979.249 1608.98,973.282 1574.52,966.841 1539.04,935.819 1512.11,920.242 1473.6,913.728 1440.45,898.821 1410.61,882.043 1379.25,860.433 1352.65,853.198 1325.74,867.473 1300.1,883.631 1272.18,898.778 1233.79,916.608 1196.88,925.437 1166.21,921.415 1137.43,896.856 1120.89,873.24 1101.38,842.633 1076.44,816.729 1064.48,787.057 1061.92,758.148 1064.36,735.391 1050.17,705.863 1028.01,688.797 999.608,677.385 979.845,655.846 970.923,625.345 967.681,601.235 956.718,573.017 964.942,545.922 986.547,518.517 998.373,501.964 1011.21,495.993 1021.44,481.448 1025.63,465.499 1032.97,442.448 1038.9,417.992 1044.72,390.25 1056.69,356.992 1057.24,332.868 1035.72,313.344 1016.43,299.175 989.428,298.744 960.935,308.023 934.021,304.981 903.067,290.456 864.746,276.102 840.989,269.661 817.652,265.394 801.44,248.164 801.361,226.282 816.132,207.526 838.5,189.056 862.531,171.917 905.798,160.405 936.463,148.38 969.923,141.795 1000.12,152.258 1027.72,159.986 1061.87,155.508 1096.45,149.258 1117.09,129.385 1133.37,109.845 1145.86,88.4835 "/>
<polyline clip-path="url(#clip712)" style="stroke:#ff0000; stroke-linecap:round; stroke-linejoin:round; stroke-width:4; stroke-opacity:1; fill:none" points="204.35,717.37 235.298,723.77 237.958,714.871 259.481,716.176 262.921,716.878 290.429,722.576 307.616,726.133 336.901,725.887 361.865,727.905 392.827,734.305 419.569,730.391 441.092,731.683 484.153,734.293 496.151,743.08 521.129,745.086 564.204,747.696 582.302,748.286 602.091,755.535 636.537,762.649 656.34,769.898 679.598,777.861 703.723,782.846 734.743,789.258 753.693,799.485 782.155,802.218 815.791,812.335 832.183,806.255 874.464,811.842 892.576,825.06 920.185,830.771 953.864,840.888 973.725,848.149 1001.36,853.86 1016.05,866.377 1034.22,879.607 1037.67,880.321 1070.5,880.789 1084.32,883.657 1109.38,885.675 1137.05,891.398 1162.16,906.081 1188.99,914.782 1207.14,915.385 1235.68,918.13 1272,919.311 1297.08,921.342 1331.7,928.505 1355.96,933.527 1381.03,935.545 1406.13,937.576 1443.31,935.791 1461.48,936.382 1490.88,936.148 1517.66,932.197 1548.74,925.994 1576.46,931.717 1603.24,927.779 1628.34,929.81 1646.38,917.748 1664.55,918.339 1681.74,909.268 1701.57,903.89 1725.84,908.912 1749.13,904.247 1769.94,908.542 1787.27,912.124 1810.73,920.124 1829.08,933.379 1851.71,944.369 1863.96,953.219 1880.67,972.467 1888.62,983.593 1895.74,997.71 1908.18,1019.26 1922.27,1034.83 1935.54,1053.4 1945.15,1058.56 1969.49,1063.6 1979.93,1065.76 1987.72,1064.2 2016.17,1054.25 2027.41,1053.4 2049.5,1026.33 2055.44,1018.05 2054.2,995.667 2058.27,980.714 2057.05,958.351 2037.84,948.074 2020.46,944.48 1997.8,933.49 1970.2,940.419 1949.37,936.123 1932.84,929.551 1915.49,925.97 1890.37,923.939 1872.37,936.013 1849.07,940.665 1836.19,947.483 1807.6,944.726 1782.48,942.708 1754.72,936.973 1736.39,923.717 1712.95,915.718 1677.3,898.881 1656.37,881.946 1635.46,865.011 1624.09,853.22 1612.75,841.417 1591.01,827.485 1577.88,809.036 1567.37,794.292 1561.17,777.283 1565.35,762.428 1584.18,747.449 1594.43,736.988 1617.68,732.36 1631.49,735.203 1660.82,734.97 1674.79,750.403 1695.54,754.686 1705.92,756.815 1733.6,762.526 1755.34,776.421 1760.62,783.793 1783.2,794.735 1802.32,804.975 1826.56,809.971 1845.53,807.584 1867.14,808.888 1892.03,798.292 1910.17,798.895 1924.03,801.75 1945.83,815.67 1960.7,828.174 1974.77,843.657 1981.89,857.712 1990.87,878.463 1999.85,899.226 2002.7,915.582 2000.44,937.194 2003.1,940.899 2009.43,957.994 2025.38,980.234 2028.24,996.627 2043.15,1009.19 2053.59,1011.36 2067.5,1014.23 2088.15,1005.85 2104.5,999.741 2113.9,992.196 2131.88,980.11 2136.98,974.855 2136.52,949.502 2121.59,936.948 2104,920.702 2093.37,905.908 2069.88,897.909 2041.29,895.164 2016.99,890.155 2006.58,888.001 1978.01,885.269 1960.66,881.687 1943.13,865.466 1929.25,862.611 1901.51,856.888 1889.47,860.703 1862.73,864.641 1844.4,851.411 1823.6,847.128 1804.62,849.503 1776.91,843.793 1763.87,837.959 1746.56,834.377 1720.65,835.337 1690.46,838.562 1666.35,846.18 1657.63,838.082 1657.48,825.454 1649.74,827.005 1638.52,827.842 1623.83,827.965 1616.91,826.537 1599.72,835.583 1586.84,842.377 1554.02,841.909 1538.49,844.999 1529.05,852.506 1522.24,863.718 1537.77,860.617 1556.75,858.229 1587.8,852.026 1597.09,831.891 1611.65,819.153 1615.81,804.273 1606.14,786.55 1589.56,767.412 1580.84,759.326 1569.4,734.982 1549.49,727.733 1527.2,741.997 1505.64,740.693 1474.53,734.28 1476.1,715.758 1470.77,695.832 1473.18,674.367 1477.36,659.549 1495.24,635.033 1500.26,617.273 1503.5,592.904 1484.49,582.738 1461.19,574.824 1454.29,573.409 1466.2,557.101 1491.07,546.579 1530.64,548.462 1568.31,531.219 1587.09,516.339 1604.9,491.921 1617.59,472.709 1638.11,464.451 1666.5,467.158 1690.61,472.094 1710.61,491.773 1739.96,504.032 1757.37,520.08 1766.21,540.622 1754.38,556.917 1734.8,574.763 1705.69,587.538 1671.33,592.99 1649.79,591.698 1610.88,574.32 1589.24,560.498 1580.44,539.945 1579.37,517.877 1598.13,503.01 1611.78,493.336 1638.24,476.943 1662.23,469.398 1685.24,452.303 1706.57,441.116 1724.61,441.694 1751.04,425.325 1750.89,412.858 1763.53,393.682 1775.49,389.916 1795.83,369.227 1784.53,357.597 1758.64,346.089 1774.87,340.108 1805.66,333.991 1832.36,342.545 1853.82,343.837 1881.35,349.462 1904.81,369.781 1904.17,385.178 1900.9,396.932 1875.35,410.347 1861.1,435.417 1846.02,463.454 1837,495.872 1840.63,509.09 1799.4,513.102 1779.86,530.936 1745.53,536.376 1714.78,555.034 1700.44,580.215 1681.68,595.119 1654.07,589.446 1631.58,578.578 1601.37,569.237 1590.07,557.545 1558.93,538.653 1556.31,534.997 1563.8,508.438 1591.24,501.595 1629.01,496.869 1653.12,501.816 1691.03,509.595 1716.14,524.105 1721.53,543.932 1737.28,565.901 1751.08,568.732 1782.14,575.107 1804.65,585.987 1811.56,587.403 1843.29,578.295 1867.28,570.726 1884.35,561.741 1905.07,565.987 1925.97,582.763 1921.07,600.51 1922.25,622.639 1904.71,659.721 1884.32,680.583 1861.28,697.789 1837.59,730.551 1839.57,749.788 1799.2,763.461 1775.96,768.101 1745.95,783.916 1720.2,797.479 1704.01,816.174 1686.99,837.848 1657.9,863.349 1634.62,868.001 1607.75,859.3 1583.5,854.291 1548.03,850.131 1521.19,841.429 1501.98,818.574 1488.88,800.125 1452.41,773.726 1441.95,758.994 1414.22,740.705 1392.64,739.4 1358.2,744.865 1344.38,742.009 1314.14,732.643 1311.39,703.795 1294.13,700.238 1267.43,704.164 1250.25,713.185 1222.75,732.656 1221.9,735.622 1183.99,740.373 1164.17,745.726 1137.41,737.05 1117.54,717.234 1095.09,706.318 1056.31,701.469 1026.14,692.103 1008.91,688.546 986.503,677.641 964.084,654.195 966.671,645.309 976.978,622.344 994.165,600.805 1004.46,577.877 1010.43,544.683 1016.41,524.031 1000.06,505.041 982.875,501.508 971.702,489.841 975.98,475.109 1008.62,475.564 1047.27,480.389 1088.48,476.377 1115.09,472.475 1142.51,453.152 1168.17,427.257 1191.27,410.187 1222.13,404.07 1265.05,406.642 1294.29,418.864 1326.14,434.74 1355.41,446.974 1381.25,458.506 1402.82,472.29 1444.12,480.758 1465.7,494.555 1495.13,519.317 1527.19,547.76 1549.65,558.615 1572.13,569.483 1591.15,579.649 1600.55,572.19 1625.38,561.668 1655.33,545.951 1675.87,537.68 1708.41,525.631 1741.09,526.099 1778.21,536.831 1803.51,563.883 1806.3,580.067 1803.33,616.977 1783.1,650.38 1784.24,672.534 1774.34,708.127 1775.64,742.908 1793.26,771.671 1826.4,797.356 1864.32,792.593 1878.18,795.449 1916.28,803.289 1935.62,826.144 1964.56,854.143 1984.94,886.696 1994.93,917.133 1997.8,933.49 2012.29,920.714 2054.78,926.327 2079.09,931.336 2089.73,946.154 2092.39,949.859 2094.24,956.554 2099.77,976.64 2102.43,980.357 2119.82,983.938 2138.01,984.541 2169.9,975.323 2195.28,990.043 2203.29,1001.18 2218.49,1026.45 2216.05,1035.43 2220.11,1020.45 2225.78,999.495 2222.61,970.424 2210.9,945.908 2194.9,923.693 2185.87,902.918 2187.26,884.297 2153.92,858.537 2151.62,826.599 2157.29,805.762 2174.41,796.716 2196.02,798.033 2222.96,806.71 2237.89,819.214 2250.39,840.654 2280.29,865.688 2290.15,883.46 2278.62,912.579 2258.27,933.6 2242.18,952.369 2209.52,964.566 2193.41,983.347 2164.21,996.27 2135.22,1021.89 2119.09,1040.7 2109.08,1063.96 2087.82,1088.07 2070.84,1109.92 2044.22,1126.62 2019.23,1137.31 1984.8,1155.58 1961.63,1173.02 1933.95,1180 1902.13,1202.01 1891.03,1215.63 1853.88,1230.2 1839.28,1243.1 1818.7,1264.32 1799.1,1295.32 1794.95,1310.41 1789.12,1331.55 1781.64,1358.75 1808.9,1380.41 1813.39,1390.95 1805.91,1418.18 1798.4,1445.46 1780.1,1444.84 1754.79,1442.79 1731.02,1421.81 1720.25,1393.95 1706.96,1375.19 1680.57,1350.52 1636.77,1322.22 1615,1320.89 1578.46,1319.69 1539.39,1327.53 1495.98,1337.68 1477.71,1337.07 1436.73,1325.35 1414.04,1314.22 1392.12,1287.31 1391.01,1251.97 1384.63,1209.2 1364.53,1189.1 1344.44,1169.01 1350.3,1135.23 1346.68,1109.06 1338.73,1085.18 1325.53,1053.88 1306.35,1030.88 1302.73,1004.77 1309.45,968.172 1318.78,935.311 1337.63,907.619 1353.86,876.247 1366.61,844.186 1394.1,824.654 1387.02,797.996 1372.17,772.901 1339.23,747.24 1309.92,747.486 1291.73,734.305 1281.24,707.007 1276.74,671.549 1291.26,646.319 1304.05,627.02 1324.66,618.725 1361.59,604.399 1399.42,599.661 1440.7,595.636 1476.86,596.818 1500.88,589.236 1527.3,560.277 1543.48,541.729 1572.59,528.979 1592.32,523.662 1596.47,508.905 1582.56,493.582 1558.34,476.143 1532.46,464.598 1501.27,433.276 1482.19,410.691 1470.84,386.593 1454.39,367.677 1451.69,351.591 1458.35,328.108 1475.43,319.197 1494.38,329.277 1529.56,333.376 1572.45,335.936 1602.56,345.203 1644.63,350.705 1672.97,353.4 1704.88,369.252 1725.52,373.473 1752.9,366.655 1777.65,356.194 1811.89,350.778 1844.49,351.234 1875.28,345.117 1896.11,361.794 1906.61,376.353 1911.69,371.184 1924.28,352.034 1943.73,334.299 1960.76,325.376 1987.08,309.056 2003.27,303.062 1992.14,303.887 1963.62,288.773 1957.37,272.023 1944.86,238.534 1952.18,212.196 1962.28,201.907 1994.63,189.969 2029.78,194.042 2050.4,198.252 2089.01,203.027 2125.2,216.577 2144.44,239.039 2147.53,267.506 2140.29,293.869 2131.81,298.336 2133.86,317.339 2137.75,342.926 2131.52,378.876 2099.11,390.876 2080.91,430.654 2054.56,447.023 2032.65,473.657 2026.36,509.754 2004.03,511.404 1962.81,515.428 1926.06,529.717 1896.99,542.48 1881.91,570.603 1869.44,602.418 1870.43,611.993 1897.25,620.633 1929.35,636.608 1969.2,651.057 2002.36,676.657 2024.96,687.561 2067.29,693.124 2100.06,693.592 2141.39,689.555 2165.62,694.539 2191.48,693.579 2202.43,680.177 2219.27,658.601 2236.08,637.026 2232.15,611.218 2229.25,595.009 2218.39,567.809 2187.86,545.951 2170.36,529.902 2145.15,515.379 2097.03,517.988 2080.78,524.019 2053.58,543.391 2037.55,561.938 2007.87,590.196 2007.47,618.245 2013.15,650.688 2016.2,679.5 2034.73,705.235 2046.33,729.567 2061.63,767.24 2075.92,795.301 2106.31,804.704 2137.75,823.744 2165.96,854.722 2182.73,873.921 2198.95,908.764 2204.51,928.825 2202.09,937.785 2167.57,943.286 2126.33,960.025 2105.47,955.717 2092.6,962.535 2069.3,967.2 2044.99,962.178 2009.23,945.317 1981.45,939.582 1943.45,944.369 1895.19,959.668 1862.48,971.864 1826.1,970.671 1779.48,980 1746.58,979.52 1705.91,980.603 1678.14,974.867 1640.11,979.643 1608.89,973.194 1574.2,966.018 1533.2,929.096 1513.24,921.81 1471.67,913.219 1439.56,897.109 1410.93,881.724 1377.07,858.955 1356.3,854.672 1327.02,867.546 1300.33,884.112 1270.17,899.989 1227.91,919.681 1193.35,925.17 1169.13,920.161 1136.2,894.389 1120.57,872.211 1100.62,839.682 1074.66,815.399 1065.11,785.061 1061.6,759.154 1064.14,737.653 1048.56,703.007 1026.99,689.136 997.692,676.817 978.727,654.072 970.097,620.928 968.348,601.765 955.44,570.91 966.599,545.04 989.77,515.416 996.636,504.327 1009.5,497.607 1021.51,481.336 1026.63,463.663 1034.32,437.177 1041.14,413.645 1046.23,383.541 1059.88,349.018 1057.27,332.933 1034.1,312.65 1016.09,299.641 986.966,299.887 958.707,309.622 931.3,304.01 896.189,287.493 856.814,273.217 843.126,270.41 819.159,265.5 802.927,246.657 802.117,224.787 818.393,206.424 842.359,186.547 865.458,169.612 915.891,158.264 937.256,147.175 971.427,141.785 1000.5,153.92 1027.86,159.508 1065.46,154.818 1099.63,149.44 1116.66,128.197 1132.83,109.884 1146.42,87.9763 "/>
<path clip-path="url(#clip710)" d="M214.252 1438.47 L760.776 1438.47 L760.776 1282.95 L214.252 1282.95  Z" fill="#ffffff" fill-rule="evenodd" fill-opacity="1"/>
<polyline clip-path="url(#clip710)" style="stroke:#000000; stroke-linecap:round; stroke-linejoin:round; stroke-width:4; stroke-opacity:1; fill:none" points="214.252,1438.47 760.776,1438.47 760.776,1282.95 214.252,1282.95 214.252,1438.47 "/>
<polyline clip-path="url(#clip710)" style="stroke:#0000ff; stroke-linecap:round; stroke-linejoin:round; stroke-width:4; stroke-opacity:1; fill:none" points="238.832,1334.79 386.315,1334.79 "/>
<path clip-path="url(#clip710)" d="M434.924 1338.05 L434.924 1340.13 L415.34 1340.13 Q415.618 1344.53 417.979 1346.84 Q420.363 1349.13 424.6 1349.13 Q427.053 1349.13 429.345 1348.53 Q431.66 1347.93 433.928 1346.73 L433.928 1350.75 Q431.637 1351.73 429.229 1352.24 Q426.822 1352.75 424.345 1352.75 Q418.141 1352.75 414.507 1349.13 Q410.896 1345.52 410.896 1339.37 Q410.896 1333 414.322 1329.27 Q417.771 1325.52 423.604 1325.52 Q428.836 1325.52 431.868 1328.9 Q434.924 1332.26 434.924 1338.05 M430.664 1336.8 Q430.618 1333.3 428.697 1331.22 Q426.799 1329.13 423.65 1329.13 Q420.086 1329.13 417.933 1331.15 Q415.803 1333.16 415.479 1336.82 L430.664 1336.8 Z" fill="#000000" fill-rule="nonzero" fill-opacity="1" /><path clip-path="url(#clip710)" d="M458.442 1326.91 L458.442 1330.94 Q456.636 1330.01 454.692 1329.55 Q452.748 1329.09 450.664 1329.09 Q447.493 1329.09 445.896 1330.06 Q444.322 1331.03 444.322 1332.98 Q444.322 1334.46 445.456 1335.32 Q446.59 1336.15 450.016 1336.91 L451.474 1337.24 Q456.011 1338.21 457.91 1339.99 Q459.831 1341.75 459.831 1344.92 Q459.831 1348.53 456.96 1350.64 Q454.113 1352.75 449.113 1352.75 Q447.03 1352.75 444.761 1352.33 Q442.516 1351.94 440.016 1351.13 L440.016 1346.73 Q442.377 1347.95 444.669 1348.58 Q446.961 1349.18 449.206 1349.18 Q452.215 1349.18 453.836 1348.16 Q455.456 1347.12 455.456 1345.25 Q455.456 1343.51 454.275 1342.58 Q453.118 1341.66 449.16 1340.8 L447.678 1340.45 Q443.72 1339.62 441.961 1337.91 Q440.201 1336.17 440.201 1333.16 Q440.201 1329.51 442.794 1327.51 Q445.386 1325.52 450.155 1325.52 Q452.516 1325.52 454.599 1325.87 Q456.683 1326.22 458.442 1326.91 Z" fill="#000000" fill-rule="nonzero" fill-opacity="1" /><path clip-path="url(#clip710)" d="M470.826 1318.79 L470.826 1326.15 L479.599 1326.15 L479.599 1329.46 L470.826 1329.46 L470.826 1343.53 Q470.826 1346.7 471.683 1347.61 Q472.562 1348.51 475.224 1348.51 L479.599 1348.51 L479.599 1352.07 L475.224 1352.07 Q470.294 1352.07 468.419 1350.25 Q466.544 1348.39 466.544 1343.53 L466.544 1329.46 L463.419 1329.46 L463.419 1326.15 L466.544 1326.15 L466.544 1318.79 L470.826 1318.79 Z" fill="#000000" fill-rule="nonzero" fill-opacity="1" /><path clip-path="url(#clip710)" d="M485.201 1326.15 L489.46 1326.15 L489.46 1352.07 L485.201 1352.07 L485.201 1326.15 M485.201 1316.06 L489.46 1316.06 L489.46 1321.45 L485.201 1321.45 L485.201 1316.06 Z" fill="#000000" fill-rule="nonzero" fill-opacity="1" /><path clip-path="url(#clip710)" d="M518.557 1331.13 Q520.155 1328.26 522.377 1326.89 Q524.599 1325.52 527.608 1325.52 Q531.659 1325.52 533.858 1328.37 Q536.057 1331.19 536.057 1336.43 L536.057 1352.07 L531.775 1352.07 L531.775 1336.57 Q531.775 1332.84 530.455 1331.03 Q529.136 1329.23 526.428 1329.23 Q523.118 1329.23 521.196 1331.43 Q519.275 1333.63 519.275 1337.42 L519.275 1352.07 L514.993 1352.07 L514.993 1336.57 Q514.993 1332.82 513.673 1331.03 Q512.354 1329.23 509.599 1329.23 Q506.335 1329.23 504.414 1331.45 Q502.493 1333.65 502.493 1337.42 L502.493 1352.07 L498.21 1352.07 L498.21 1326.15 L502.493 1326.15 L502.493 1330.18 Q503.951 1327.79 505.988 1326.66 Q508.025 1325.52 510.826 1325.52 Q513.65 1325.52 515.618 1326.96 Q517.608 1328.39 518.557 1331.13 Z" fill="#000000" fill-rule="nonzero" fill-opacity="1" /><path clip-path="url(#clip710)" d="M556.335 1339.04 Q551.173 1339.04 549.182 1340.22 Q547.191 1341.4 547.191 1344.25 Q547.191 1346.52 548.673 1347.86 Q550.178 1349.18 552.747 1349.18 Q556.289 1349.18 558.418 1346.68 Q560.571 1344.16 560.571 1339.99 L560.571 1339.04 L556.335 1339.04 M564.83 1337.28 L564.83 1352.07 L560.571 1352.07 L560.571 1348.14 Q559.113 1350.5 556.937 1351.63 Q554.761 1352.75 551.613 1352.75 Q547.631 1352.75 545.27 1350.52 Q542.932 1348.28 542.932 1344.53 Q542.932 1340.15 545.849 1337.93 Q548.789 1335.71 554.599 1335.71 L560.571 1335.71 L560.571 1335.29 Q560.571 1332.35 558.627 1330.76 Q556.705 1329.13 553.21 1329.13 Q550.988 1329.13 548.881 1329.67 Q546.775 1330.2 544.83 1331.26 L544.83 1327.33 Q547.168 1326.43 549.367 1325.99 Q551.566 1325.52 553.65 1325.52 Q559.275 1325.52 562.053 1328.44 Q564.83 1331.36 564.83 1337.28 Z" fill="#000000" fill-rule="nonzero" fill-opacity="1" /><path clip-path="url(#clip710)" d="M577.816 1318.79 L577.816 1326.15 L586.589 1326.15 L586.589 1329.46 L577.816 1329.46 L577.816 1343.53 Q577.816 1346.7 578.673 1347.61 Q579.552 1348.51 582.214 1348.51 L586.589 1348.51 L586.589 1352.07 L582.214 1352.07 Q577.284 1352.07 575.409 1350.25 Q573.534 1348.39 573.534 1343.53 L573.534 1329.46 L570.409 1329.46 L570.409 1326.15 L573.534 1326.15 L573.534 1318.79 L577.816 1318.79 Z" fill="#000000" fill-rule="nonzero" fill-opacity="1" /><path clip-path="url(#clip710)" d="M614.367 1338.05 L614.367 1340.13 L594.784 1340.13 Q595.062 1344.53 597.423 1346.84 Q599.807 1349.13 604.043 1349.13 Q606.497 1349.13 608.788 1348.53 Q611.103 1347.93 613.372 1346.73 L613.372 1350.75 Q611.08 1351.73 608.673 1352.24 Q606.265 1352.75 603.788 1352.75 Q597.585 1352.75 593.95 1349.13 Q590.339 1345.52 590.339 1339.37 Q590.339 1333 593.765 1329.27 Q597.214 1325.52 603.048 1325.52 Q608.279 1325.52 611.312 1328.9 Q614.367 1332.26 614.367 1338.05 M610.108 1336.8 Q610.062 1333.3 608.14 1331.22 Q606.242 1329.13 603.094 1329.13 Q599.529 1329.13 597.376 1331.15 Q595.247 1333.16 594.923 1336.82 L610.108 1336.8 Z" fill="#000000" fill-rule="nonzero" fill-opacity="1" /><polyline clip-path="url(#clip710)" style="stroke:#ff0000; stroke-linecap:round; stroke-linejoin:round; stroke-width:4; stroke-opacity:1; fill:none" points="238.832,1386.63 386.315,1386.63 "/>
<path clip-path="url(#clip710)" d="M431.243 1382.97 Q432.84 1380.1 435.062 1378.73 Q437.285 1377.36 440.294 1377.36 Q444.345 1377.36 446.544 1380.21 Q448.743 1383.03 448.743 1388.27 L448.743 1403.91 L444.461 1403.91 L444.461 1388.41 Q444.461 1384.68 443.141 1382.87 Q441.822 1381.07 439.113 1381.07 Q435.803 1381.07 433.882 1383.27 Q431.961 1385.47 431.961 1389.26 L431.961 1403.91 L427.678 1403.91 L427.678 1388.41 Q427.678 1384.66 426.359 1382.87 Q425.039 1381.07 422.285 1381.07 Q419.021 1381.07 417.1 1383.29 Q415.178 1385.49 415.178 1389.26 L415.178 1403.91 L410.896 1403.91 L410.896 1377.99 L415.178 1377.99 L415.178 1382.02 Q416.637 1379.63 418.674 1378.5 Q420.711 1377.36 423.512 1377.36 Q426.336 1377.36 428.303 1378.8 Q430.294 1380.23 431.243 1382.97 Z" fill="#000000" fill-rule="nonzero" fill-opacity="1" /><path clip-path="url(#clip710)" d="M479.414 1389.89 L479.414 1391.97 L459.831 1391.97 Q460.109 1396.37 462.47 1398.68 Q464.854 1400.97 469.09 1400.97 Q471.544 1400.97 473.835 1400.37 Q476.15 1399.77 478.419 1398.57 L478.419 1402.59 Q476.127 1403.57 473.72 1404.08 Q471.312 1404.59 468.835 1404.59 Q462.632 1404.59 458.998 1400.97 Q455.386 1397.36 455.386 1391.21 Q455.386 1384.84 458.812 1381.11 Q462.261 1377.36 468.095 1377.36 Q473.326 1377.36 476.359 1380.74 Q479.414 1384.1 479.414 1389.89 M475.155 1388.64 Q475.109 1385.14 473.187 1383.06 Q471.289 1380.97 468.141 1380.97 Q464.576 1380.97 462.423 1382.99 Q460.294 1385 459.97 1388.66 L475.155 1388.64 Z" fill="#000000" fill-rule="nonzero" fill-opacity="1" /><path clip-path="url(#clip710)" d="M498.187 1390.88 Q493.025 1390.88 491.034 1392.06 Q489.044 1393.24 489.044 1396.09 Q489.044 1398.36 490.525 1399.7 Q492.03 1401.02 494.599 1401.02 Q498.141 1401.02 500.27 1398.52 Q502.423 1396 502.423 1391.83 L502.423 1390.88 L498.187 1390.88 M506.682 1389.12 L506.682 1403.91 L502.423 1403.91 L502.423 1399.98 Q500.965 1402.34 498.789 1403.47 Q496.613 1404.59 493.465 1404.59 Q489.483 1404.59 487.122 1402.36 Q484.784 1400.12 484.784 1396.37 Q484.784 1391.99 487.701 1389.77 Q490.641 1387.55 496.451 1387.55 L502.423 1387.55 L502.423 1387.13 Q502.423 1384.19 500.479 1382.6 Q498.557 1380.97 495.062 1380.97 Q492.84 1380.97 490.733 1381.51 Q488.627 1382.04 486.683 1383.1 L486.683 1379.17 Q489.021 1378.27 491.22 1377.83 Q493.419 1377.36 495.502 1377.36 Q501.127 1377.36 503.905 1380.28 Q506.682 1383.2 506.682 1389.12 Z" fill="#000000" fill-rule="nonzero" fill-opacity="1" /><path clip-path="url(#clip710)" d="M531.983 1378.75 L531.983 1382.78 Q530.178 1381.85 528.233 1381.39 Q526.289 1380.93 524.206 1380.93 Q521.034 1380.93 519.437 1381.9 Q517.863 1382.87 517.863 1384.82 Q517.863 1386.3 518.997 1387.16 Q520.131 1387.99 523.557 1388.75 L525.016 1389.08 Q529.553 1390.05 531.451 1391.83 Q533.372 1393.59 533.372 1396.76 Q533.372 1400.37 530.502 1402.48 Q527.655 1404.59 522.655 1404.59 Q520.571 1404.59 518.303 1404.17 Q516.057 1403.78 513.557 1402.97 L513.557 1398.57 Q515.919 1399.79 518.21 1400.42 Q520.502 1401.02 522.747 1401.02 Q525.756 1401.02 527.377 1400 Q528.997 1398.96 528.997 1397.09 Q528.997 1395.35 527.817 1394.42 Q526.659 1393.5 522.701 1392.64 L521.219 1392.29 Q517.261 1391.46 515.502 1389.75 Q513.743 1388.01 513.743 1385 Q513.743 1381.35 516.335 1379.35 Q518.928 1377.36 523.696 1377.36 Q526.057 1377.36 528.141 1377.71 Q530.224 1378.06 531.983 1378.75 Z" fill="#000000" fill-rule="nonzero" fill-opacity="1" /><path clip-path="url(#clip710)" d="M539.715 1393.68 L539.715 1377.99 L543.974 1377.99 L543.974 1393.52 Q543.974 1397.2 545.409 1399.05 Q546.844 1400.88 549.715 1400.88 Q553.164 1400.88 555.154 1398.68 Q557.168 1396.48 557.168 1392.69 L557.168 1377.99 L561.428 1377.99 L561.428 1403.91 L557.168 1403.91 L557.168 1399.93 Q555.617 1402.29 553.557 1403.45 Q551.52 1404.59 548.812 1404.59 Q544.344 1404.59 542.029 1401.81 Q539.715 1399.03 539.715 1393.68 M550.432 1377.36 L550.432 1377.36 Z" fill="#000000" fill-rule="nonzero" fill-opacity="1" /><path clip-path="url(#clip710)" d="M585.224 1381.97 Q584.506 1381.55 583.65 1381.37 Q582.816 1381.16 581.798 1381.16 Q578.187 1381.16 576.242 1383.52 Q574.321 1385.86 574.321 1390.26 L574.321 1403.91 L570.039 1403.91 L570.039 1377.99 L574.321 1377.99 L574.321 1382.02 Q575.664 1379.66 577.816 1378.52 Q579.969 1377.36 583.048 1377.36 Q583.488 1377.36 584.02 1377.43 Q584.552 1377.48 585.201 1377.6 L585.224 1381.97 Z" fill="#000000" fill-rule="nonzero" fill-opacity="1" /><path clip-path="url(#clip710)" d="M610.825 1389.89 L610.825 1391.97 L591.242 1391.97 Q591.52 1396.37 593.881 1398.68 Q596.265 1400.97 600.501 1400.97 Q602.955 1400.97 605.247 1400.37 Q607.562 1399.77 609.83 1398.57 L609.83 1402.59 Q607.538 1403.57 605.131 1404.08 Q602.724 1404.59 600.247 1404.59 Q594.043 1404.59 590.409 1400.97 Q586.798 1397.36 586.798 1391.21 Q586.798 1384.84 590.224 1381.11 Q593.673 1377.36 599.506 1377.36 Q604.737 1377.36 607.77 1380.74 Q610.825 1384.1 610.825 1389.89 M606.566 1388.64 Q606.52 1385.14 604.599 1383.06 Q602.7 1380.97 599.552 1380.97 Q595.988 1380.97 593.835 1382.99 Q591.705 1385 591.381 1388.66 L606.566 1388.64 Z" fill="#000000" fill-rule="nonzero" fill-opacity="1" /><path clip-path="url(#clip710)" d="M638.001 1382.97 Q639.598 1380.1 641.821 1378.73 Q644.043 1377.36 647.052 1377.36 Q651.103 1377.36 653.302 1380.21 Q655.501 1383.03 655.501 1388.27 L655.501 1403.91 L651.219 1403.91 L651.219 1388.41 Q651.219 1384.68 649.899 1382.87 Q648.58 1381.07 645.872 1381.07 Q642.561 1381.07 640.64 1383.27 Q638.719 1385.47 638.719 1389.26 L638.719 1403.91 L634.436 1403.91 L634.436 1388.41 Q634.436 1384.66 633.117 1382.87 Q631.798 1381.07 629.043 1381.07 Q625.779 1381.07 623.858 1383.29 Q621.936 1385.49 621.936 1389.26 L621.936 1403.91 L617.654 1403.91 L617.654 1377.99 L621.936 1377.99 L621.936 1382.02 Q623.395 1379.63 625.432 1378.5 Q627.469 1377.36 630.27 1377.36 Q633.094 1377.36 635.061 1378.8 Q637.052 1380.23 638.001 1382.97 Z" fill="#000000" fill-rule="nonzero" fill-opacity="1" /><path clip-path="url(#clip710)" d="M686.172 1389.89 L686.172 1391.97 L666.589 1391.97 Q666.867 1396.37 669.228 1398.68 Q671.612 1400.97 675.848 1400.97 Q678.302 1400.97 680.594 1400.37 Q682.908 1399.77 685.177 1398.57 L685.177 1402.59 Q682.885 1403.57 680.478 1404.08 Q678.07 1404.59 675.594 1404.59 Q669.39 1404.59 665.756 1400.97 Q662.145 1397.36 662.145 1391.21 Q662.145 1384.84 665.57 1381.11 Q669.02 1377.36 674.853 1377.36 Q680.084 1377.36 683.117 1380.74 Q686.172 1384.1 686.172 1389.89 M681.913 1388.64 Q681.867 1385.14 679.945 1383.06 Q678.047 1380.97 674.899 1380.97 Q671.334 1380.97 669.182 1382.99 Q667.052 1385 666.728 1388.66 L681.913 1388.64 Z" fill="#000000" fill-rule="nonzero" fill-opacity="1" /><path clip-path="url(#clip710)" d="M714.714 1388.27 L714.714 1403.91 L710.455 1403.91 L710.455 1388.41 Q710.455 1384.72 709.019 1382.9 Q707.584 1381.07 704.714 1381.07 Q701.265 1381.07 699.274 1383.27 Q697.283 1385.47 697.283 1389.26 L697.283 1403.91 L693.001 1403.91 L693.001 1377.99 L697.283 1377.99 L697.283 1382.02 Q698.811 1379.68 700.871 1378.52 Q702.955 1377.36 705.663 1377.36 Q710.13 1377.36 712.422 1380.14 Q714.714 1382.9 714.714 1388.27 Z" fill="#000000" fill-rule="nonzero" fill-opacity="1" /><path clip-path="url(#clip710)" d="M727.422 1370.63 L727.422 1377.99 L736.195 1377.99 L736.195 1381.3 L727.422 1381.3 L727.422 1395.37 Q727.422 1398.54 728.278 1399.45 Q729.158 1400.35 731.82 1400.35 L736.195 1400.35 L736.195 1403.91 L731.82 1403.91 Q726.89 1403.91 725.015 1402.09 Q723.14 1400.23 723.14 1395.37 L723.14 1381.3 L720.015 1381.3 L720.015 1377.99 L723.14 1377.99 L723.14 1370.63 L727.422 1370.63 Z" fill="#000000" fill-rule="nonzero" fill-opacity="1" /></svg>
