<?xml version="1.0" encoding="utf-8"?>
<svg xmlns="http://www.w3.org/2000/svg" xmlns:xlink="http://www.w3.org/1999/xlink" width="600" height="400" viewBox="0 0 2400 1600">
<defs>
  <clipPath id="clip300">
    <rect x="0" y="0" width="2400" height="1600"/>
  </clipPath>
</defs>
<path clip-path="url(#clip300)" d="M0 1600 L2400 1600 L2400 0 L0 0  Z" fill="#ffffff" fill-rule="evenodd" fill-opacity="1"/>
<defs>
  <clipPath id="clip301">
    <rect x="480" y="0" width="1681" height="1600"/>
  </clipPath>
</defs>
<path clip-path="url(#clip300)" d="M194.098 1486.45 L1152.84 1486.45 L1152.84 47.2441 L194.098 47.2441  Z" fill="#ffffff" fill-rule="evenodd" fill-opacity="1"/>
<defs>
  <clipPath id="clip302">
    <rect x="194" y="47" width="960" height="1440"/>
  </clipPath>
</defs>
<polyline clip-path="url(#clip302)" style="stroke:#000000; stroke-linecap:round; stroke-linejoin:round; stroke-width:2; stroke-opacity:0.1; fill:none" points="209.783,1486.45 209.783,47.2441 "/>
<polyline clip-path="url(#clip302)" style="stroke:#000000; stroke-linecap:round; stroke-linejoin:round; stroke-width:2; stroke-opacity:0.1; fill:none" points="438.763,1486.45 438.763,47.2441 "/>
<polyline clip-path="url(#clip302)" style="stroke:#000000; stroke-linecap:round; stroke-linejoin:round; stroke-width:2; stroke-opacity:0.1; fill:none" points="667.743,1486.45 667.743,47.2441 "/>
<polyline clip-path="url(#clip302)" style="stroke:#000000; stroke-linecap:round; stroke-linejoin:round; stroke-width:2; stroke-opacity:0.1; fill:none" points="896.723,1486.45 896.723,47.2441 "/>
<polyline clip-path="url(#clip302)" style="stroke:#000000; stroke-linecap:round; stroke-linejoin:round; stroke-width:2; stroke-opacity:0.1; fill:none" points="1125.7,1486.45 1125.7,47.2441 "/>
<polyline clip-path="url(#clip302)" style="stroke:#000000; stroke-linecap:round; stroke-linejoin:round; stroke-width:2; stroke-opacity:0.1; fill:none" points="194.098,1219.65 1152.84,1219.65 "/>
<polyline clip-path="url(#clip302)" style="stroke:#000000; stroke-linecap:round; stroke-linejoin:round; stroke-width:2; stroke-opacity:0.1; fill:none" points="194.098,943.118 1152.84,943.118 "/>
<polyline clip-path="url(#clip302)" style="stroke:#000000; stroke-linecap:round; stroke-linejoin:round; stroke-width:2; stroke-opacity:0.1; fill:none" points="194.098,666.59 1152.84,666.59 "/>
<polyline clip-path="url(#clip302)" style="stroke:#000000; stroke-linecap:round; stroke-linejoin:round; stroke-width:2; stroke-opacity:0.1; fill:none" points="194.098,390.062 1152.84,390.062 "/>
<polyline clip-path="url(#clip302)" style="stroke:#000000; stroke-linecap:round; stroke-linejoin:round; stroke-width:2; stroke-opacity:0.1; fill:none" points="194.098,113.534 1152.84,113.534 "/>
<polyline clip-path="url(#clip300)" style="stroke:#000000; stroke-linecap:round; stroke-linejoin:round; stroke-width:4; stroke-opacity:1; fill:none" points="194.098,1486.45 1152.84,1486.45 "/>
<polyline clip-path="url(#clip300)" style="stroke:#000000; stroke-linecap:round; stroke-linejoin:round; stroke-width:4; stroke-opacity:1; fill:none" points="209.783,1486.45 209.783,1467.55 "/>
<polyline clip-path="url(#clip300)" style="stroke:#000000; stroke-linecap:round; stroke-linejoin:round; stroke-width:4; stroke-opacity:1; fill:none" points="438.763,1486.45 438.763,1467.55 "/>
<polyline clip-path="url(#clip300)" style="stroke:#000000; stroke-linecap:round; stroke-linejoin:round; stroke-width:4; stroke-opacity:1; fill:none" points="667.743,1486.45 667.743,1467.55 "/>
<polyline clip-path="url(#clip300)" style="stroke:#000000; stroke-linecap:round; stroke-linejoin:round; stroke-width:4; stroke-opacity:1; fill:none" points="896.723,1486.45 896.723,1467.55 "/>
<polyline clip-path="url(#clip300)" style="stroke:#000000; stroke-linecap:round; stroke-linejoin:round; stroke-width:4; stroke-opacity:1; fill:none" points="1125.7,1486.45 1125.7,1467.55 "/>
<path clip-path="url(#clip300)" d="M209.783 1517.37 Q206.172 1517.37 204.343 1520.93 Q202.538 1524.47 202.538 1531.6 Q202.538 1538.71 204.343 1542.27 Q206.172 1545.82 209.783 1545.82 Q213.417 1545.82 215.223 1542.27 Q217.052 1538.71 217.052 1531.6 Q217.052 1524.47 215.223 1520.93 Q213.417 1517.37 209.783 1517.37 M209.783 1513.66 Q215.593 1513.66 218.649 1518.27 Q221.728 1522.85 221.728 1531.6 Q221.728 1540.33 218.649 1544.94 Q215.593 1549.52 209.783 1549.52 Q203.973 1549.52 200.894 1544.94 Q197.839 1540.33 197.839 1531.6 Q197.839 1522.85 200.894 1518.27 Q203.973 1513.66 209.783 1513.66 Z" fill="#000000" fill-rule="nonzero" fill-opacity="1" /><path clip-path="url(#clip300)" d="M417.536 1544.91 L433.856 1544.91 L433.856 1548.85 L411.911 1548.85 L411.911 1544.91 Q414.573 1542.16 419.157 1537.53 Q423.763 1532.88 424.944 1531.53 Q427.189 1529.01 428.069 1527.27 Q428.971 1525.51 428.971 1523.82 Q428.971 1521.07 427.027 1519.33 Q425.106 1517.6 422.004 1517.6 Q419.805 1517.6 417.351 1518.36 Q414.921 1519.13 412.143 1520.68 L412.143 1515.95 Q414.967 1514.82 417.421 1514.24 Q419.874 1513.66 421.911 1513.66 Q427.282 1513.66 430.476 1516.35 Q433.671 1519.03 433.671 1523.52 Q433.671 1525.65 432.86 1527.57 Q432.073 1529.47 429.967 1532.07 Q429.388 1532.74 426.286 1535.95 Q423.184 1539.15 417.536 1544.91 Z" fill="#000000" fill-rule="nonzero" fill-opacity="1" /><path clip-path="url(#clip300)" d="M453.67 1517.37 Q450.059 1517.37 448.231 1520.93 Q446.425 1524.47 446.425 1531.6 Q446.425 1538.71 448.231 1542.27 Q450.059 1545.82 453.67 1545.82 Q457.305 1545.82 459.11 1542.27 Q460.939 1538.71 460.939 1531.6 Q460.939 1524.47 459.11 1520.93 Q457.305 1517.37 453.67 1517.37 M453.67 1513.66 Q459.481 1513.66 462.536 1518.27 Q465.615 1522.85 465.615 1531.6 Q465.615 1540.33 462.536 1544.94 Q459.481 1549.52 453.67 1549.52 Q447.86 1549.52 444.782 1544.94 Q441.726 1540.33 441.726 1531.6 Q441.726 1522.85 444.782 1518.27 Q447.86 1513.66 453.67 1513.66 Z" fill="#000000" fill-rule="nonzero" fill-opacity="1" /><path clip-path="url(#clip300)" d="M655.914 1518.36 L644.109 1536.81 L655.914 1536.81 L655.914 1518.36 M654.687 1514.29 L660.567 1514.29 L660.567 1536.81 L665.498 1536.81 L665.498 1540.7 L660.567 1540.7 L660.567 1548.85 L655.914 1548.85 L655.914 1540.7 L640.313 1540.7 L640.313 1536.19 L654.687 1514.29 Z" fill="#000000" fill-rule="nonzero" fill-opacity="1" /><path clip-path="url(#clip300)" d="M683.229 1517.37 Q679.618 1517.37 677.789 1520.93 Q675.984 1524.47 675.984 1531.6 Q675.984 1538.71 677.789 1542.27 Q679.618 1545.82 683.229 1545.82 Q686.863 1545.82 688.669 1542.27 Q690.497 1538.71 690.497 1531.6 Q690.497 1524.47 688.669 1520.93 Q686.863 1517.37 683.229 1517.37 M683.229 1513.66 Q689.039 1513.66 692.095 1518.27 Q695.173 1522.85 695.173 1531.6 Q695.173 1540.33 692.095 1544.94 Q689.039 1549.52 683.229 1549.52 Q677.419 1549.52 674.34 1544.94 Q671.285 1540.33 671.285 1531.6 Q671.285 1522.85 674.34 1518.27 Q677.419 1513.66 683.229 1513.66 Z" fill="#000000" fill-rule="nonzero" fill-opacity="1" /><path clip-path="url(#clip300)" d="M882.128 1529.7 Q878.98 1529.7 877.128 1531.86 Q875.299 1534.01 875.299 1537.76 Q875.299 1541.49 877.128 1543.66 Q878.98 1545.82 882.128 1545.82 Q885.276 1545.82 887.105 1543.66 Q888.957 1541.49 888.957 1537.76 Q888.957 1534.01 887.105 1531.86 Q885.276 1529.7 882.128 1529.7 M891.41 1515.05 L891.41 1519.31 Q889.651 1518.48 887.846 1518.04 Q886.063 1517.6 884.304 1517.6 Q879.674 1517.6 877.221 1520.72 Q874.79 1523.85 874.443 1530.17 Q875.809 1528.15 877.869 1527.09 Q879.929 1526 882.406 1526 Q887.614 1526 890.623 1529.17 Q893.656 1532.32 893.656 1537.76 Q893.656 1543.08 890.508 1546.3 Q887.36 1549.52 882.128 1549.52 Q876.133 1549.52 872.961 1544.94 Q869.79 1540.33 869.79 1531.6 Q869.79 1523.41 873.679 1518.55 Q877.568 1513.66 884.119 1513.66 Q885.878 1513.66 887.66 1514.01 Q889.466 1514.36 891.41 1515.05 Z" fill="#000000" fill-rule="nonzero" fill-opacity="1" /><path clip-path="url(#clip300)" d="M911.711 1517.37 Q908.1 1517.37 906.271 1520.93 Q904.466 1524.47 904.466 1531.6 Q904.466 1538.71 906.271 1542.27 Q908.1 1545.82 911.711 1545.82 Q915.345 1545.82 917.151 1542.27 Q918.98 1538.71 918.98 1531.6 Q918.98 1524.47 917.151 1520.93 Q915.345 1517.37 911.711 1517.37 M911.711 1513.66 Q917.521 1513.66 920.577 1518.27 Q923.656 1522.85 923.656 1531.6 Q923.656 1540.33 920.577 1544.94 Q917.521 1549.52 911.711 1549.52 Q905.901 1549.52 902.822 1544.94 Q899.767 1540.33 899.767 1531.6 Q899.767 1522.85 902.822 1518.27 Q905.901 1513.66 911.711 1513.66 Z" fill="#000000" fill-rule="nonzero" fill-opacity="1" /><path clip-path="url(#clip300)" d="M1110.58 1532.44 Q1107.24 1532.44 1105.32 1534.22 Q1103.42 1536 1103.42 1539.13 Q1103.42 1542.25 1105.32 1544.03 Q1107.24 1545.82 1110.58 1545.82 Q1113.91 1545.82 1115.83 1544.03 Q1117.75 1542.23 1117.75 1539.13 Q1117.75 1536 1115.83 1534.22 Q1113.93 1532.44 1110.58 1532.44 M1105.9 1530.45 Q1102.89 1529.7 1101.2 1527.64 Q1099.53 1525.58 1099.53 1522.62 Q1099.53 1518.48 1102.47 1516.07 Q1105.44 1513.66 1110.58 1513.66 Q1115.74 1513.66 1118.68 1516.07 Q1121.62 1518.48 1121.62 1522.62 Q1121.62 1525.58 1119.93 1527.64 Q1118.26 1529.7 1115.27 1530.45 Q1118.65 1531.23 1120.53 1533.52 Q1122.43 1535.82 1122.43 1539.13 Q1122.43 1544.15 1119.35 1546.83 Q1116.29 1549.52 1110.58 1549.52 Q1104.86 1549.52 1101.78 1546.83 Q1098.72 1544.15 1098.72 1539.13 Q1098.72 1535.82 1100.62 1533.52 Q1102.52 1531.23 1105.9 1530.45 M1104.19 1523.06 Q1104.19 1525.75 1105.85 1527.25 Q1107.54 1528.76 1110.58 1528.76 Q1113.58 1528.76 1115.27 1527.25 Q1116.99 1525.75 1116.99 1523.06 Q1116.99 1520.38 1115.27 1518.87 Q1113.58 1517.37 1110.58 1517.37 Q1107.54 1517.37 1105.85 1518.87 Q1104.19 1520.38 1104.19 1523.06 Z" fill="#000000" fill-rule="nonzero" fill-opacity="1" /><path clip-path="url(#clip300)" d="M1140.74 1517.37 Q1137.13 1517.37 1135.3 1520.93 Q1133.49 1524.47 1133.49 1531.6 Q1133.49 1538.71 1135.3 1542.27 Q1137.13 1545.82 1140.74 1545.82 Q1144.37 1545.82 1146.18 1542.27 Q1148.01 1538.71 1148.01 1531.6 Q1148.01 1524.47 1146.18 1520.93 Q1144.37 1517.37 1140.74 1517.37 M1140.74 1513.66 Q1146.55 1513.66 1149.6 1518.27 Q1152.68 1522.85 1152.68 1531.6 Q1152.68 1540.33 1149.6 1544.94 Q1146.55 1549.52 1140.74 1549.52 Q1134.93 1549.52 1131.85 1544.94 Q1128.79 1540.33 1128.79 1531.6 Q1128.79 1522.85 1131.85 1518.27 Q1134.93 1513.66 1140.74 1513.66 Z" fill="#000000" fill-rule="nonzero" fill-opacity="1" /><polyline clip-path="url(#clip300)" style="stroke:#000000; stroke-linecap:round; stroke-linejoin:round; stroke-width:4; stroke-opacity:1; fill:none" points="194.098,1486.45 194.098,47.2441 "/>
<polyline clip-path="url(#clip300)" style="stroke:#000000; stroke-linecap:round; stroke-linejoin:round; stroke-width:4; stroke-opacity:1; fill:none" points="194.098,1219.65 212.996,1219.65 "/>
<polyline clip-path="url(#clip300)" style="stroke:#000000; stroke-linecap:round; stroke-linejoin:round; stroke-width:4; stroke-opacity:1; fill:none" points="194.098,943.118 212.996,943.118 "/>
<polyline clip-path="url(#clip300)" style="stroke:#000000; stroke-linecap:round; stroke-linejoin:round; stroke-width:4; stroke-opacity:1; fill:none" points="194.098,666.59 212.996,666.59 "/>
<polyline clip-path="url(#clip300)" style="stroke:#000000; stroke-linecap:round; stroke-linejoin:round; stroke-width:4; stroke-opacity:1; fill:none" points="194.098,390.062 212.996,390.062 "/>
<polyline clip-path="url(#clip300)" style="stroke:#000000; stroke-linecap:round; stroke-linejoin:round; stroke-width:4; stroke-opacity:1; fill:none" points="194.098,113.534 212.996,113.534 "/>
<path clip-path="url(#clip300)" d="M50.9921 1220.1 L80.6679 1220.1 L80.6679 1224.03 L50.9921 1224.03 L50.9921 1220.1 Z" fill="#000000" fill-rule="nonzero" fill-opacity="1" /><path clip-path="url(#clip300)" d="M100.76 1205.44 Q97.1493 1205.44 95.3206 1209.01 Q93.515 1212.55 93.515 1219.68 Q93.515 1226.79 95.3206 1230.35 Q97.1493 1233.89 100.76 1233.89 Q104.395 1233.89 106.2 1230.35 Q108.029 1226.79 108.029 1219.68 Q108.029 1212.55 106.2 1209.01 Q104.395 1205.44 100.76 1205.44 M100.76 1201.74 Q106.571 1201.74 109.626 1206.35 Q112.705 1210.93 112.705 1219.68 Q112.705 1228.41 109.626 1233.01 Q106.571 1237.6 100.76 1237.6 Q94.9502 1237.6 91.8715 1233.01 Q88.816 1228.41 88.816 1219.68 Q88.816 1210.93 91.8715 1206.35 Q94.9502 1201.74 100.76 1201.74 Z" fill="#000000" fill-rule="nonzero" fill-opacity="1" /><path clip-path="url(#clip300)" d="M120.922 1231.05 L125.807 1231.05 L125.807 1236.93 L120.922 1236.93 L120.922 1231.05 Z" fill="#000000" fill-rule="nonzero" fill-opacity="1" /><path clip-path="url(#clip300)" d="M146.57 1217.78 Q143.422 1217.78 141.57 1219.94 Q139.742 1222.09 139.742 1225.84 Q139.742 1229.56 141.57 1231.74 Q143.422 1233.89 146.57 1233.89 Q149.718 1233.89 151.547 1231.74 Q153.399 1229.56 153.399 1225.84 Q153.399 1222.09 151.547 1219.94 Q149.718 1217.78 146.57 1217.78 M155.853 1203.13 L155.853 1207.39 Q154.093 1206.56 152.288 1206.12 Q150.505 1205.68 148.746 1205.68 Q144.117 1205.68 141.663 1208.8 Q139.232 1211.93 138.885 1218.25 Q140.251 1216.23 142.311 1215.17 Q144.371 1214.08 146.848 1214.08 Q152.056 1214.08 155.066 1217.25 Q158.098 1220.4 158.098 1225.84 Q158.098 1231.16 154.95 1234.38 Q151.802 1237.6 146.57 1237.6 Q140.575 1237.6 137.404 1233.01 Q134.232 1228.41 134.232 1219.68 Q134.232 1211.49 138.121 1206.63 Q142.01 1201.74 148.561 1201.74 Q150.32 1201.74 152.103 1202.09 Q153.908 1202.44 155.853 1203.13 Z" fill="#000000" fill-rule="nonzero" fill-opacity="1" /><path clip-path="url(#clip300)" d="M51.8023 943.569 L81.4781 943.569 L81.4781 947.504 L51.8023 947.504 L51.8023 943.569 Z" fill="#000000" fill-rule="nonzero" fill-opacity="1" /><path clip-path="url(#clip300)" d="M101.571 928.917 Q97.9595 928.917 96.1308 932.481 Q94.3252 936.023 94.3252 943.153 Q94.3252 950.259 96.1308 953.824 Q97.9595 957.366 101.571 957.366 Q105.205 957.366 107.01 953.824 Q108.839 950.259 108.839 943.153 Q108.839 936.023 107.01 932.481 Q105.205 928.917 101.571 928.917 M101.571 925.213 Q107.381 925.213 110.436 929.819 Q113.515 934.403 113.515 943.153 Q113.515 951.879 110.436 956.486 Q107.381 961.069 101.571 961.069 Q95.7604 961.069 92.6817 956.486 Q89.6262 951.879 89.6262 943.153 Q89.6262 934.403 92.6817 929.819 Q95.7604 925.213 101.571 925.213 Z" fill="#000000" fill-rule="nonzero" fill-opacity="1" /><path clip-path="url(#clip300)" d="M121.732 954.518 L126.617 954.518 L126.617 960.398 L121.732 960.398 L121.732 954.518 Z" fill="#000000" fill-rule="nonzero" fill-opacity="1" /><path clip-path="url(#clip300)" d="M150.968 941.764 Q154.325 942.481 156.2 944.75 Q158.098 947.018 158.098 950.352 Q158.098 955.467 154.58 958.268 Q151.061 961.069 144.58 961.069 Q142.404 961.069 140.089 960.629 Q137.797 960.213 135.344 959.356 L135.344 954.842 Q137.288 955.977 139.603 956.555 Q141.918 957.134 144.441 957.134 Q148.839 957.134 151.13 955.398 Q153.445 953.662 153.445 950.352 Q153.445 947.296 151.293 945.583 Q149.163 943.847 145.343 943.847 L141.316 943.847 L141.316 940.005 L145.529 940.005 Q148.978 940.005 150.806 938.639 Q152.635 937.25 152.635 934.657 Q152.635 931.995 150.737 930.583 Q148.862 929.148 145.343 929.148 Q143.422 929.148 141.223 929.565 Q139.024 929.981 136.385 930.861 L136.385 926.694 Q139.047 925.954 141.362 925.583 Q143.7 925.213 145.76 925.213 Q151.084 925.213 154.186 927.643 Q157.288 930.051 157.288 934.171 Q157.288 937.042 155.644 939.032 Q154.001 941 150.968 941.764 Z" fill="#000000" fill-rule="nonzero" fill-opacity="1" /><path clip-path="url(#clip300)" d="M100.922 652.389 Q97.3113 652.389 95.4826 655.954 Q93.6771 659.495 93.6771 666.625 Q93.6771 673.731 95.4826 677.296 Q97.3113 680.838 100.922 680.838 Q104.557 680.838 106.362 677.296 Q108.191 673.731 108.191 666.625 Q108.191 659.495 106.362 655.954 Q104.557 652.389 100.922 652.389 M100.922 648.685 Q106.733 648.685 109.788 653.292 Q112.867 657.875 112.867 666.625 Q112.867 675.352 109.788 679.958 Q106.733 684.541 100.922 684.541 Q95.1123 684.541 92.0336 679.958 Q88.978 675.352 88.978 666.625 Q88.978 657.875 92.0336 653.292 Q95.1123 648.685 100.922 648.685 Z" fill="#000000" fill-rule="nonzero" fill-opacity="1" /><path clip-path="url(#clip300)" d="M121.084 677.99 L125.969 677.99 L125.969 683.87 L121.084 683.87 L121.084 677.99 Z" fill="#000000" fill-rule="nonzero" fill-opacity="1" /><path clip-path="url(#clip300)" d="M146.154 652.389 Q142.543 652.389 140.714 655.954 Q138.908 659.495 138.908 666.625 Q138.908 673.731 140.714 677.296 Q142.543 680.838 146.154 680.838 Q149.788 680.838 151.593 677.296 Q153.422 673.731 153.422 666.625 Q153.422 659.495 151.593 655.954 Q149.788 652.389 146.154 652.389 M146.154 648.685 Q151.964 648.685 155.019 653.292 Q158.098 657.875 158.098 666.625 Q158.098 675.352 155.019 679.958 Q151.964 684.541 146.154 684.541 Q140.343 684.541 137.265 679.958 Q134.209 675.352 134.209 666.625 Q134.209 657.875 137.265 653.292 Q140.343 648.685 146.154 648.685 Z" fill="#000000" fill-rule="nonzero" fill-opacity="1" /><path clip-path="url(#clip300)" d="M101.571 375.861 Q97.9595 375.861 96.1308 379.426 Q94.3252 382.967 94.3252 390.097 Q94.3252 397.203 96.1308 400.768 Q97.9595 404.31 101.571 404.31 Q105.205 404.31 107.01 400.768 Q108.839 397.203 108.839 390.097 Q108.839 382.967 107.01 379.426 Q105.205 375.861 101.571 375.861 M101.571 372.157 Q107.381 372.157 110.436 376.764 Q113.515 381.347 113.515 390.097 Q113.515 398.824 110.436 403.43 Q107.381 408.013 101.571 408.013 Q95.7604 408.013 92.6817 403.43 Q89.6262 398.824 89.6262 390.097 Q89.6262 381.347 92.6817 376.764 Q95.7604 372.157 101.571 372.157 Z" fill="#000000" fill-rule="nonzero" fill-opacity="1" /><path clip-path="url(#clip300)" d="M121.732 401.463 L126.617 401.463 L126.617 407.342 L121.732 407.342 L121.732 401.463 Z" fill="#000000" fill-rule="nonzero" fill-opacity="1" /><path clip-path="url(#clip300)" d="M150.968 388.708 Q154.325 389.426 156.2 391.694 Q158.098 393.963 158.098 397.296 Q158.098 402.412 154.58 405.213 Q151.061 408.013 144.58 408.013 Q142.404 408.013 140.089 407.574 Q137.797 407.157 135.344 406.3 L135.344 401.787 Q137.288 402.921 139.603 403.5 Q141.918 404.078 144.441 404.078 Q148.839 404.078 151.13 402.342 Q153.445 400.606 153.445 397.296 Q153.445 394.24 151.293 392.527 Q149.163 390.791 145.343 390.791 L141.316 390.791 L141.316 386.949 L145.529 386.949 Q148.978 386.949 150.806 385.583 Q152.635 384.194 152.635 381.602 Q152.635 378.94 150.737 377.528 Q148.862 376.092 145.343 376.092 Q143.422 376.092 141.223 376.509 Q139.024 376.926 136.385 377.805 L136.385 373.639 Q139.047 372.898 141.362 372.528 Q143.7 372.157 145.76 372.157 Q151.084 372.157 154.186 374.588 Q157.288 376.995 157.288 381.115 Q157.288 383.986 155.644 385.977 Q154.001 387.944 150.968 388.708 Z" fill="#000000" fill-rule="nonzero" fill-opacity="1" /><path clip-path="url(#clip300)" d="M100.76 99.333 Q97.1493 99.333 95.3206 102.898 Q93.515 106.439 93.515 113.569 Q93.515 120.675 95.3206 124.24 Q97.1493 127.782 100.76 127.782 Q104.395 127.782 106.2 124.24 Q108.029 120.675 108.029 113.569 Q108.029 106.439 106.2 102.898 Q104.395 99.333 100.76 99.333 M100.76 95.6293 Q106.571 95.6293 109.626 100.236 Q112.705 104.819 112.705 113.569 Q112.705 122.296 109.626 126.902 Q106.571 131.486 100.76 131.486 Q94.9502 131.486 91.8715 126.902 Q88.816 122.296 88.816 113.569 Q88.816 104.819 91.8715 100.236 Q94.9502 95.6293 100.76 95.6293 Z" fill="#000000" fill-rule="nonzero" fill-opacity="1" /><path clip-path="url(#clip300)" d="M120.922 124.935 L125.807 124.935 L125.807 130.814 L120.922 130.814 L120.922 124.935 Z" fill="#000000" fill-rule="nonzero" fill-opacity="1" /><path clip-path="url(#clip300)" d="M146.57 111.671 Q143.422 111.671 141.57 113.824 Q139.742 115.976 139.742 119.726 Q139.742 123.453 141.57 125.629 Q143.422 127.782 146.57 127.782 Q149.718 127.782 151.547 125.629 Q153.399 123.453 153.399 119.726 Q153.399 115.976 151.547 113.824 Q149.718 111.671 146.57 111.671 M155.853 97.0182 L155.853 101.277 Q154.093 100.444 152.288 100.004 Q150.505 99.5644 148.746 99.5644 Q144.117 99.5644 141.663 102.689 Q139.232 105.814 138.885 112.134 Q140.251 110.12 142.311 109.055 Q144.371 107.967 146.848 107.967 Q152.056 107.967 155.066 111.138 Q158.098 114.287 158.098 119.726 Q158.098 125.05 154.95 128.268 Q151.802 131.486 146.57 131.486 Q140.575 131.486 137.404 126.902 Q134.232 122.296 134.232 113.569 Q134.232 105.375 138.121 100.514 Q142.01 95.6293 148.561 95.6293 Q150.32 95.6293 152.103 95.9765 Q153.908 96.3237 155.853 97.0182 Z" fill="#000000" fill-rule="nonzero" fill-opacity="1" /><polyline clip-path="url(#clip302)" style="stroke:#009af9; stroke-linecap:round; stroke-linejoin:round; stroke-width:4; stroke-opacity:1; fill:none" points="221.232,360.549 232.681,195.74 244.13,325.085 255.579,387.205 267.028,326.482 278.477,195.488 289.926,371.11 301.375,296.059 312.824,238.984 324.273,278.607 335.722,334.937 347.171,387.516 358.62,365.843 370.069,509.496 381.518,468.591 392.967,516.766 404.416,614.901 415.865,557.132 427.314,645.407 438.763,553.722 450.212,559.422 461.661,467.809 473.11,436.146 484.559,262.545 496.008,319.795 507.457,440.578 518.906,529.957 530.355,416.361 541.804,425.565 553.253,388.475 564.702,472.535 576.151,351.392 587.6,256.583 599.049,199.615 610.498,248.252 621.947,169.843 633.396,258.058 644.845,270.533 656.294,463.581 667.743,320.591 679.192,405.584 690.641,446.994 702.09,491.311 713.539,460.272 724.988,505.518 736.437,582.911 747.886,499.339 759.335,458.784 770.784,544.476 782.233,785.268 793.682,940.561 805.131,1041.54 816.58,1108.9 828.029,1230.75 839.478,1258.53 850.927,1207.44 862.376,1161.97 873.825,1145.84 885.274,1177.62 896.723,1250.76 908.172,1315.61 919.621,1445.72 931.07,1443.53 942.519,1345.3 953.968,1219.98 965.417,1198.43 976.866,1102.42 988.315,1074 999.764,1169.1 1011.21,1328.2 1022.66,1248.99 1034.11,1287.61 1045.56,1251.94 1057.01,1252.14 1068.46,1285.32 1079.91,1313.87 1091.36,1302.44 1102.8,1036.16 1114.25,936.954 1125.7,938.959 "/>
<polyline clip-path="url(#clip302)" style="stroke:#e26f46; stroke-linecap:round; stroke-linejoin:round; stroke-width:4; stroke-opacity:1; fill:none" points="221.232,395.439 232.681,227.029 244.13,351.202 255.579,411.991 267.028,349.246 278.477,207.647 289.926,396.269 301.375,325.145 312.824,256.123 324.273,279.83 335.722,331.115 347.171,380.977 358.62,360.057 370.069,497.935 381.518,459.159 392.967,492.661 404.416,588.355 415.865,518.79 427.314,605.524 438.763,494.474 450.212,500.794 461.661,405.688 473.11,380.49 484.559,199.842 496.008,278.344 507.457,395.859 518.906,493.238 530.355,376.731 541.804,391.266 553.253,357.942 564.702,433.995 576.151,316.695 587.6,225.049 599.049,173.378 610.498,228.623 621.947,155.628 633.396,238.316 644.845,251.063 656.294,451.57 667.743,309.063 679.192,393.125 690.641,434.138 702.09,459.933 713.539,427.853 724.988,484.671 736.437,563.896 747.886,499.432 759.335,468.002 770.784,568.77 782.233,789.347 793.682,949.858 805.131,1056.68 816.58,1093.33 828.029,1230.57 839.478,1259.96 850.927,1212.46 862.376,1176.33 873.825,1155.84 885.274,1175.67 896.723,1242.69 908.172,1312.19 919.621,1431.53 931.07,1429.97 942.519,1333.67 953.968,1214.07 965.417,1200.1 976.866,1099.23 988.315,1086.38 999.764,1172.19 1011.21,1326.12 1022.66,1229.44 1034.11,1271.11 1045.56,1235.41 1057.01,1239.6 1068.46,1278.36 1079.91,1313.58 1091.36,1292.1 1102.8,1032.18 1114.25,933.292 1125.7,941.285 "/>
<polyline clip-path="url(#clip302)" style="stroke:#3da44d; stroke-linecap:round; stroke-linejoin:round; stroke-width:4; stroke-opacity:1; fill:none" points="221.232,491.522 232.681,425.508 244.13,569.815 255.579,633.477 267.028,572.034 278.477,476.851 289.926,645.189 301.375,616.698 312.824,486.88 324.273,467.214 335.722,475.846 347.171,487.615 358.62,501.207 370.069,517.5 381.518,580.43 392.967,616.284 404.416,743.386 415.865,731.456 427.314,787.502 438.763,615.844 450.212,561.922 461.661,317.137 473.11,277.519 484.559,93.6338 496.008,87.9763 507.457,194.752 518.906,496.859 530.355,451.701 541.804,516.29 553.253,432.764 564.702,508.891 576.151,701.254 587.6,602.51 599.049,700.79 610.498,651.091 621.947,488.831 633.396,436.547 644.845,446.088 656.294,652.594 667.743,428.413 679.192,560.925 690.641,502.305 702.09,406.261 713.539,433.586 724.988,506.684 736.437,321.024 747.886,306.042 759.335,243.721 770.784,430.873 782.233,537.75 793.682,650.166 805.131,730.747 816.58,956.255 828.029,1112.88 839.478,1257.25 850.927,1117.29 862.376,1072.6 873.825,1069.12 885.274,1006.48 896.723,1140.62 908.172,1209.06 919.621,1247.53 931.07,1135.39 942.519,1167.45 953.968,1117.66 965.417,1019.18 976.866,879.666 988.315,846.174 999.764,939.342 1011.21,1076.72 1022.66,1058.41 1034.11,952.037 1045.56,832.919 1057.01,846.358 1068.46,941.76 1079.91,984.698 1091.36,1194.46 1102.8,950.025 1114.25,872.226 1125.7,838.919 "/>
<path clip-path="url(#clip300)" d="M663.34 302.578 L1120.88 302.578 L1120.88 95.2176 L663.34 95.2176  Z" fill="#ffffff" fill-rule="evenodd" fill-opacity="1"/>
<polyline clip-path="url(#clip300)" style="stroke:#000000; stroke-linecap:round; stroke-linejoin:round; stroke-width:4; stroke-opacity:1; fill:none" points="663.34,302.578 1120.88,302.578 1120.88,95.2176 663.34,95.2176 663.34,302.578 "/>
<polyline clip-path="url(#clip300)" style="stroke:#009af9; stroke-linecap:round; stroke-linejoin:round; stroke-width:4; stroke-opacity:1; fill:none" points="673.993,147.058 737.909,147.058 "/>
<path clip-path="url(#clip300)" d="M748.562 129.778 L753.237 129.778 L753.237 144.384 L768.747 129.778 L774.765 129.778 L757.612 145.889 L775.992 164.338 L769.835 164.338 L753.237 147.694 L753.237 164.338 L748.562 164.338 L748.562 129.778 Z" fill="#000000" fill-rule="nonzero" fill-opacity="1" /><path clip-path="url(#clip300)" d="M790.413 151.305 Q785.251 151.305 783.26 152.486 Q781.27 153.666 781.27 156.514 Q781.27 158.782 782.751 160.125 Q784.256 161.444 786.825 161.444 Q790.367 161.444 792.497 158.944 Q794.649 156.421 794.649 152.254 L794.649 151.305 L790.413 151.305 M798.909 149.546 L798.909 164.338 L794.649 164.338 L794.649 160.402 Q793.191 162.763 791.015 163.898 Q788.839 165.009 785.691 165.009 Q781.71 165.009 779.348 162.787 Q777.01 160.541 777.01 156.791 Q777.01 152.416 779.927 150.194 Q782.867 147.972 788.677 147.972 L794.649 147.972 L794.649 147.555 Q794.649 144.615 792.705 143.018 Q790.784 141.398 787.288 141.398 Q785.066 141.398 782.96 141.93 Q780.853 142.463 778.909 143.527 L778.909 139.592 Q781.247 138.69 783.446 138.25 Q785.645 137.787 787.728 137.787 Q793.353 137.787 796.131 140.703 Q798.909 143.62 798.909 149.546 Z" fill="#000000" fill-rule="nonzero" fill-opacity="1" /><path clip-path="url(#clip300)" d="M807.682 128.319 L811.941 128.319 L811.941 164.338 L807.682 164.338 L807.682 128.319 Z" fill="#000000" fill-rule="nonzero" fill-opacity="1" /><path clip-path="url(#clip300)" d="M841.038 143.389 Q842.635 140.518 844.857 139.153 Q847.08 137.787 850.089 137.787 Q854.14 137.787 856.339 140.634 Q858.538 143.458 858.538 148.689 L858.538 164.338 L854.255 164.338 L854.255 148.828 Q854.255 145.102 852.936 143.296 Q851.617 141.49 848.908 141.49 Q845.598 141.49 843.677 143.69 Q841.756 145.889 841.756 149.685 L841.756 164.338 L837.473 164.338 L837.473 148.828 Q837.473 145.078 836.154 143.296 Q834.834 141.49 832.08 141.49 Q828.816 141.49 826.894 143.713 Q824.973 145.912 824.973 149.685 L824.973 164.338 L820.691 164.338 L820.691 138.412 L824.973 138.412 L824.973 142.44 Q826.432 140.055 828.469 138.921 Q830.506 137.787 833.306 137.787 Q836.131 137.787 838.098 139.222 Q840.089 140.657 841.038 143.389 Z" fill="#000000" fill-rule="nonzero" fill-opacity="1" /><path clip-path="url(#clip300)" d="M878.816 151.305 Q873.653 151.305 871.663 152.486 Q869.672 153.666 869.672 156.514 Q869.672 158.782 871.154 160.125 Q872.658 161.444 875.228 161.444 Q878.769 161.444 880.899 158.944 Q883.052 156.421 883.052 152.254 L883.052 151.305 L878.816 151.305 M887.311 149.546 L887.311 164.338 L883.052 164.338 L883.052 160.402 Q881.593 162.763 879.417 163.898 Q877.241 165.009 874.093 165.009 Q870.112 165.009 867.751 162.787 Q865.413 160.541 865.413 156.791 Q865.413 152.416 868.329 150.194 Q871.269 147.972 877.079 147.972 L883.052 147.972 L883.052 147.555 Q883.052 144.615 881.107 143.018 Q879.186 141.398 875.691 141.398 Q873.468 141.398 871.362 141.93 Q869.255 142.463 867.311 143.527 L867.311 139.592 Q869.649 138.69 871.848 138.25 Q874.047 137.787 876.13 137.787 Q881.755 137.787 884.533 140.703 Q887.311 143.62 887.311 149.546 Z" fill="#000000" fill-rule="nonzero" fill-opacity="1" /><path clip-path="url(#clip300)" d="M917.635 148.689 L917.635 164.338 L913.376 164.338 L913.376 148.828 Q913.376 145.148 911.94 143.319 Q910.505 141.49 907.635 141.49 Q904.186 141.49 902.195 143.69 Q900.204 145.889 900.204 149.685 L900.204 164.338 L895.922 164.338 L895.922 138.412 L900.204 138.412 L900.204 142.44 Q901.732 140.102 903.792 138.944 Q905.876 137.787 908.584 137.787 Q913.051 137.787 915.343 140.565 Q917.635 143.319 917.635 148.689 Z" fill="#000000" fill-rule="nonzero" fill-opacity="1" /><path clip-path="url(#clip300)" d="M957.727 139.176 L957.727 143.203 Q955.922 142.277 953.977 141.815 Q952.033 141.352 949.949 141.352 Q946.778 141.352 945.181 142.324 Q943.607 143.296 943.607 145.24 Q943.607 146.722 944.741 147.578 Q945.875 148.412 949.301 149.176 L950.76 149.5 Q955.297 150.472 957.195 152.254 Q959.116 154.014 959.116 157.185 Q959.116 160.796 956.246 162.902 Q953.398 165.009 948.398 165.009 Q946.315 165.009 944.047 164.592 Q941.801 164.199 939.301 163.388 L939.301 158.99 Q941.662 160.217 943.954 160.842 Q946.246 161.444 948.491 161.444 Q951.5 161.444 953.121 160.426 Q954.741 159.384 954.741 157.509 Q954.741 155.773 953.56 154.847 Q952.403 153.921 948.445 153.064 L946.963 152.717 Q943.005 151.884 941.246 150.171 Q939.486 148.435 939.486 145.426 Q939.486 141.768 942.079 139.778 Q944.672 137.787 949.44 137.787 Q951.801 137.787 953.885 138.134 Q955.968 138.481 957.727 139.176 Z" fill="#000000" fill-rule="nonzero" fill-opacity="1" /><path clip-path="url(#clip300)" d="M986.083 143.389 Q987.681 140.518 989.903 139.153 Q992.125 137.787 995.134 137.787 Q999.185 137.787 1001.38 140.634 Q1003.58 143.458 1003.58 148.689 L1003.58 164.338 L999.301 164.338 L999.301 148.828 Q999.301 145.102 997.982 143.296 Q996.662 141.49 993.954 141.49 Q990.644 141.49 988.722 143.69 Q986.801 145.889 986.801 149.685 L986.801 164.338 L982.519 164.338 L982.519 148.828 Q982.519 145.078 981.199 143.296 Q979.88 141.49 977.125 141.49 Q973.861 141.49 971.94 143.713 Q970.019 145.912 970.019 149.685 L970.019 164.338 L965.736 164.338 L965.736 138.412 L970.019 138.412 L970.019 142.44 Q971.477 140.055 973.514 138.921 Q975.551 137.787 978.352 137.787 Q981.176 137.787 983.144 139.222 Q985.134 140.657 986.083 143.389 Z" fill="#000000" fill-rule="nonzero" fill-opacity="1" /><path clip-path="url(#clip300)" d="M1022.12 141.398 Q1018.7 141.398 1016.71 144.083 Q1014.72 146.745 1014.72 151.398 Q1014.72 156.051 1016.69 158.736 Q1018.68 161.398 1022.12 161.398 Q1025.53 161.398 1027.52 158.713 Q1029.51 156.027 1029.51 151.398 Q1029.51 146.791 1027.52 144.106 Q1025.53 141.398 1022.12 141.398 M1022.12 137.787 Q1027.68 137.787 1030.85 141.398 Q1034.02 145.009 1034.02 151.398 Q1034.02 157.764 1030.85 161.398 Q1027.68 165.009 1022.12 165.009 Q1016.55 165.009 1013.37 161.398 Q1010.23 157.764 1010.23 151.398 Q1010.23 145.009 1013.37 141.398 Q1016.55 137.787 1022.12 137.787 Z" fill="#000000" fill-rule="nonzero" fill-opacity="1" /><path clip-path="url(#clip300)" d="M1051.13 141.398 Q1047.7 141.398 1045.71 144.083 Q1043.72 146.745 1043.72 151.398 Q1043.72 156.051 1045.69 158.736 Q1047.68 161.398 1051.13 161.398 Q1054.53 161.398 1056.52 158.713 Q1058.51 156.027 1058.51 151.398 Q1058.51 146.791 1056.52 144.106 Q1054.53 141.398 1051.13 141.398 M1051.13 137.787 Q1056.68 137.787 1059.86 141.398 Q1063.03 145.009 1063.03 151.398 Q1063.03 157.764 1059.86 161.398 Q1056.68 165.009 1051.13 165.009 Q1045.55 165.009 1042.38 161.398 Q1039.23 157.764 1039.23 151.398 Q1039.23 145.009 1042.38 141.398 Q1045.55 137.787 1051.13 137.787 Z" fill="#000000" fill-rule="nonzero" fill-opacity="1" /><path clip-path="url(#clip300)" d="M1074.3 131.051 L1074.3 138.412 L1083.07 138.412 L1083.07 141.722 L1074.3 141.722 L1074.3 155.796 Q1074.3 158.967 1075.16 159.87 Q1076.04 160.773 1078.7 160.773 L1083.07 160.773 L1083.07 164.338 L1078.7 164.338 Q1073.77 164.338 1071.89 162.509 Q1070.02 160.657 1070.02 155.796 L1070.02 141.722 L1066.89 141.722 L1066.89 138.412 L1070.02 138.412 L1070.02 131.051 L1074.3 131.051 Z" fill="#000000" fill-rule="nonzero" fill-opacity="1" /><path clip-path="url(#clip300)" d="M1110.23 148.689 L1110.23 164.338 L1105.97 164.338 L1105.97 148.828 Q1105.97 145.148 1104.53 143.319 Q1103.1 141.49 1100.23 141.49 Q1096.78 141.49 1094.79 143.69 Q1092.8 145.889 1092.8 149.685 L1092.8 164.338 L1088.51 164.338 L1088.51 128.319 L1092.8 128.319 L1092.8 142.44 Q1094.32 140.102 1096.38 138.944 Q1098.47 137.787 1101.18 137.787 Q1105.64 137.787 1107.93 140.565 Q1110.23 143.319 1110.23 148.689 Z" fill="#000000" fill-rule="nonzero" fill-opacity="1" /><polyline clip-path="url(#clip300)" style="stroke:#e26f46; stroke-linecap:round; stroke-linejoin:round; stroke-width:4; stroke-opacity:1; fill:none" points="673.993,198.898 737.909,198.898 "/>
<path clip-path="url(#clip300)" d="M752.844 212.289 L752.844 226.039 L748.562 226.039 L748.562 190.252 L752.844 190.252 L752.844 194.187 Q754.187 191.872 756.224 190.761 Q758.284 189.627 761.131 189.627 Q765.853 189.627 768.793 193.377 Q771.756 197.127 771.756 203.238 Q771.756 209.349 768.793 213.099 Q765.853 216.849 761.131 216.849 Q758.284 216.849 756.224 215.738 Q754.187 214.603 752.844 212.289 M767.335 203.238 Q767.335 198.539 765.39 195.877 Q763.469 193.192 760.089 193.192 Q756.71 193.192 754.765 195.877 Q752.844 198.539 752.844 203.238 Q752.844 207.937 754.765 210.622 Q756.71 213.284 760.089 213.284 Q763.469 213.284 765.39 210.622 Q767.335 207.937 767.335 203.238 Z" fill="#000000" fill-rule="nonzero" fill-opacity="1" /><path clip-path="url(#clip300)" d="M791.941 180.159 L791.941 183.701 L787.867 183.701 Q785.575 183.701 784.672 184.627 Q783.793 185.553 783.793 187.96 L783.793 190.252 L790.807 190.252 L790.807 193.562 L783.793 193.562 L783.793 216.178 L779.51 216.178 L779.51 193.562 L775.436 193.562 L775.436 190.252 L779.51 190.252 L779.51 188.446 Q779.51 184.118 781.524 182.15 Q783.538 180.159 787.913 180.159 L791.941 180.159 Z" fill="#000000" fill-rule="nonzero" fill-opacity="1" /><path clip-path="url(#clip300)" d="M827.103 191.016 L827.103 195.043 Q825.297 194.117 823.353 193.655 Q821.408 193.192 819.325 193.192 Q816.154 193.192 814.557 194.164 Q812.983 195.136 812.983 197.08 Q812.983 198.562 814.117 199.418 Q815.251 200.252 818.677 201.016 L820.135 201.34 Q824.672 202.312 826.57 204.094 Q828.492 205.854 828.492 209.025 Q828.492 212.636 825.621 214.742 Q822.774 216.849 817.774 216.849 Q815.691 216.849 813.422 216.432 Q811.177 216.039 808.677 215.228 L808.677 210.83 Q811.038 212.057 813.33 212.682 Q815.621 213.284 817.867 213.284 Q820.876 213.284 822.496 212.266 Q824.117 211.224 824.117 209.349 Q824.117 207.613 822.936 206.687 Q821.779 205.761 817.82 204.904 L816.339 204.557 Q812.381 203.724 810.621 202.011 Q808.862 200.275 808.862 197.266 Q808.862 193.608 811.455 191.618 Q814.047 189.627 818.816 189.627 Q821.177 189.627 823.26 189.974 Q825.344 190.321 827.103 191.016 Z" fill="#000000" fill-rule="nonzero" fill-opacity="1" /><path clip-path="url(#clip300)" d="M855.459 195.229 Q857.056 192.358 859.279 190.993 Q861.501 189.627 864.51 189.627 Q868.561 189.627 870.76 192.474 Q872.959 195.298 872.959 200.529 L872.959 216.178 L868.677 216.178 L868.677 200.668 Q868.677 196.942 867.357 195.136 Q866.038 193.33 863.329 193.33 Q860.019 193.33 858.098 195.53 Q856.177 197.729 856.177 201.525 L856.177 216.178 L851.894 216.178 L851.894 200.668 Q851.894 196.918 850.575 195.136 Q849.255 193.33 846.501 193.33 Q843.237 193.33 841.316 195.553 Q839.394 197.752 839.394 201.525 L839.394 216.178 L835.112 216.178 L835.112 190.252 L839.394 190.252 L839.394 194.28 Q840.853 191.895 842.89 190.761 Q844.927 189.627 847.728 189.627 Q850.552 189.627 852.519 191.062 Q854.51 192.497 855.459 195.229 Z" fill="#000000" fill-rule="nonzero" fill-opacity="1" /><path clip-path="url(#clip300)" d="M891.501 193.238 Q888.075 193.238 886.084 195.923 Q884.093 198.585 884.093 203.238 Q884.093 207.891 886.061 210.576 Q888.052 213.238 891.501 213.238 Q894.903 213.238 896.894 210.553 Q898.885 207.867 898.885 203.238 Q898.885 198.631 896.894 195.946 Q894.903 193.238 891.501 193.238 M891.501 189.627 Q897.056 189.627 900.227 193.238 Q903.399 196.849 903.399 203.238 Q903.399 209.604 900.227 213.238 Q897.056 216.849 891.501 216.849 Q885.922 216.849 882.751 213.238 Q879.603 209.604 879.603 203.238 Q879.603 196.849 882.751 193.238 Q885.922 189.627 891.501 189.627 Z" fill="#000000" fill-rule="nonzero" fill-opacity="1" /><path clip-path="url(#clip300)" d="M920.505 193.238 Q917.079 193.238 915.088 195.923 Q913.098 198.585 913.098 203.238 Q913.098 207.891 915.065 210.576 Q917.056 213.238 920.505 213.238 Q923.908 213.238 925.899 210.553 Q927.889 207.867 927.889 203.238 Q927.889 198.631 925.899 195.946 Q923.908 193.238 920.505 193.238 M920.505 189.627 Q926.061 189.627 929.232 193.238 Q932.403 196.849 932.403 203.238 Q932.403 209.604 929.232 213.238 Q926.061 216.849 920.505 216.849 Q914.926 216.849 911.755 213.238 Q908.607 209.604 908.607 203.238 Q908.607 196.849 911.755 193.238 Q914.926 189.627 920.505 189.627 Z" fill="#000000" fill-rule="nonzero" fill-opacity="1" /><path clip-path="url(#clip300)" d="M943.676 182.891 L943.676 190.252 L952.449 190.252 L952.449 193.562 L943.676 193.562 L943.676 207.636 Q943.676 210.807 944.533 211.71 Q945.412 212.613 948.074 212.613 L952.449 212.613 L952.449 216.178 L948.074 216.178 Q943.144 216.178 941.269 214.349 Q939.394 212.497 939.394 207.636 L939.394 193.562 L936.269 193.562 L936.269 190.252 L939.394 190.252 L939.394 182.891 L943.676 182.891 Z" fill="#000000" fill-rule="nonzero" fill-opacity="1" /><path clip-path="url(#clip300)" d="M979.602 200.529 L979.602 216.178 L975.343 216.178 L975.343 200.668 Q975.343 196.988 973.908 195.159 Q972.472 193.33 969.602 193.33 Q966.153 193.33 964.162 195.53 Q962.172 197.729 962.172 201.525 L962.172 216.178 L957.889 216.178 L957.889 180.159 L962.172 180.159 L962.172 194.28 Q963.699 191.942 965.759 190.784 Q967.843 189.627 970.551 189.627 Q975.019 189.627 977.31 192.405 Q979.602 195.159 979.602 200.529 Z" fill="#000000" fill-rule="nonzero" fill-opacity="1" /><polyline clip-path="url(#clip300)" style="stroke:#3da44d; stroke-linecap:round; stroke-linejoin:round; stroke-width:4; stroke-opacity:1; fill:none" points="673.993,250.738 737.909,250.738 "/>
<path clip-path="url(#clip300)" d="M755.969 234.731 L755.969 242.092 L764.742 242.092 L764.742 245.402 L755.969 245.402 L755.969 259.476 Q755.969 262.647 756.825 263.55 Q757.705 264.453 760.367 264.453 L764.742 264.453 L764.742 268.018 L760.367 268.018 Q755.437 268.018 753.562 266.189 Q751.687 264.337 751.687 259.476 L751.687 245.402 L748.562 245.402 L748.562 242.092 L751.687 242.092 L751.687 234.731 L755.969 234.731 Z" fill="#000000" fill-rule="nonzero" fill-opacity="1" /><path clip-path="url(#clip300)" d="M785.367 246.073 Q784.649 245.657 783.793 245.471 Q782.96 245.263 781.941 245.263 Q778.33 245.263 776.386 247.624 Q774.464 249.962 774.464 254.36 L774.464 268.018 L770.182 268.018 L770.182 242.092 L774.464 242.092 L774.464 246.12 Q775.807 243.758 777.96 242.624 Q780.112 241.467 783.191 241.467 Q783.631 241.467 784.163 241.536 Q784.696 241.583 785.344 241.698 L785.367 246.073 Z" fill="#000000" fill-rule="nonzero" fill-opacity="1" /><path clip-path="url(#clip300)" d="M789.395 257.786 L789.395 242.092 L793.654 242.092 L793.654 257.624 Q793.654 261.305 795.089 263.156 Q796.524 264.985 799.395 264.985 Q802.844 264.985 804.834 262.786 Q806.848 260.587 806.848 256.791 L806.848 242.092 L811.108 242.092 L811.108 268.018 L806.848 268.018 L806.848 264.036 Q805.297 266.397 803.237 267.555 Q801.2 268.689 798.492 268.689 Q794.024 268.689 791.709 265.911 Q789.395 263.133 789.395 257.786 M800.112 241.467 L800.112 241.467 Z" fill="#000000" fill-rule="nonzero" fill-opacity="1" /><path clip-path="url(#clip300)" d="M842.056 253.99 L842.056 256.073 L822.473 256.073 Q822.751 260.471 825.112 262.786 Q827.496 265.078 831.732 265.078 Q834.186 265.078 836.478 264.476 Q838.793 263.874 841.061 262.67 L841.061 266.698 Q838.769 267.67 836.362 268.18 Q833.955 268.689 831.478 268.689 Q825.274 268.689 821.64 265.078 Q818.029 261.467 818.029 255.309 Q818.029 248.944 821.455 245.217 Q824.904 241.467 830.737 241.467 Q835.969 241.467 839.001 244.846 Q842.056 248.203 842.056 253.99 M837.797 252.74 Q837.751 249.245 835.83 247.161 Q833.931 245.078 830.783 245.078 Q827.219 245.078 825.066 247.092 Q822.936 249.106 822.612 252.763 L837.797 252.74 Z" fill="#000000" fill-rule="nonzero" fill-opacity="1" /><path clip-path="url(#clip300)" d="M1394.02 1486.45 L2352.76 1486.45 L2352.76 47.2441 L1394.02 47.2441  Z" fill="#ffffff" fill-rule="evenodd" fill-opacity="1"/>
<defs>
  <clipPath id="clip303">
    <rect x="1394" y="47" width="960" height="1440"/>
  </clipPath>
</defs>
<polyline clip-path="url(#clip303)" style="stroke:#000000; stroke-linecap:round; stroke-linejoin:round; stroke-width:2; stroke-opacity:0.1; fill:none" points="1409.7,1486.45 1409.7,47.2441 "/>
<polyline clip-path="url(#clip303)" style="stroke:#000000; stroke-linecap:round; stroke-linejoin:round; stroke-width:2; stroke-opacity:0.1; fill:none" points="1638.68,1486.45 1638.68,47.2441 "/>
<polyline clip-path="url(#clip303)" style="stroke:#000000; stroke-linecap:round; stroke-linejoin:round; stroke-width:2; stroke-opacity:0.1; fill:none" points="1867.66,1486.45 1867.66,47.2441 "/>
<polyline clip-path="url(#clip303)" style="stroke:#000000; stroke-linecap:round; stroke-linejoin:round; stroke-width:2; stroke-opacity:0.1; fill:none" points="2096.64,1486.45 2096.64,47.2441 "/>
<polyline clip-path="url(#clip303)" style="stroke:#000000; stroke-linecap:round; stroke-linejoin:round; stroke-width:2; stroke-opacity:0.1; fill:none" points="2325.62,1486.45 2325.62,47.2441 "/>
<polyline clip-path="url(#clip303)" style="stroke:#000000; stroke-linecap:round; stroke-linejoin:round; stroke-width:2; stroke-opacity:0.1; fill:none" points="1394.02,1364.22 2352.76,1364.22 "/>
<polyline clip-path="url(#clip303)" style="stroke:#000000; stroke-linecap:round; stroke-linejoin:round; stroke-width:2; stroke-opacity:0.1; fill:none" points="1394.02,992.538 2352.76,992.538 "/>
<polyline clip-path="url(#clip303)" style="stroke:#000000; stroke-linecap:round; stroke-linejoin:round; stroke-width:2; stroke-opacity:0.1; fill:none" points="1394.02,620.852 2352.76,620.852 "/>
<polyline clip-path="url(#clip303)" style="stroke:#000000; stroke-linecap:round; stroke-linejoin:round; stroke-width:2; stroke-opacity:0.1; fill:none" points="1394.02,249.167 2352.76,249.167 "/>
<polyline clip-path="url(#clip300)" style="stroke:#000000; stroke-linecap:round; stroke-linejoin:round; stroke-width:4; stroke-opacity:1; fill:none" points="1394.02,1486.45 2352.76,1486.45 "/>
<polyline clip-path="url(#clip300)" style="stroke:#000000; stroke-linecap:round; stroke-linejoin:round; stroke-width:4; stroke-opacity:1; fill:none" points="1409.7,1486.45 1409.7,1467.55 "/>
<polyline clip-path="url(#clip300)" style="stroke:#000000; stroke-linecap:round; stroke-linejoin:round; stroke-width:4; stroke-opacity:1; fill:none" points="1638.68,1486.45 1638.68,1467.55 "/>
<polyline clip-path="url(#clip300)" style="stroke:#000000; stroke-linecap:round; stroke-linejoin:round; stroke-width:4; stroke-opacity:1; fill:none" points="1867.66,1486.45 1867.66,1467.55 "/>
<polyline clip-path="url(#clip300)" style="stroke:#000000; stroke-linecap:round; stroke-linejoin:round; stroke-width:4; stroke-opacity:1; fill:none" points="2096.64,1486.45 2096.64,1467.55 "/>
<polyline clip-path="url(#clip300)" style="stroke:#000000; stroke-linecap:round; stroke-linejoin:round; stroke-width:4; stroke-opacity:1; fill:none" points="2325.62,1486.45 2325.62,1467.55 "/>
<path clip-path="url(#clip300)" d="M1409.7 1517.37 Q1406.09 1517.37 1404.26 1520.93 Q1402.46 1524.47 1402.46 1531.6 Q1402.46 1538.71 1404.26 1542.27 Q1406.09 1545.82 1409.7 1545.82 Q1413.34 1545.82 1415.14 1542.27 Q1416.97 1538.71 1416.97 1531.6 Q1416.97 1524.47 1415.14 1520.93 Q1413.34 1517.37 1409.7 1517.37 M1409.7 1513.66 Q1415.51 1513.66 1418.57 1518.27 Q1421.65 1522.85 1421.65 1531.6 Q1421.65 1540.33 1418.57 1544.94 Q1415.51 1549.52 1409.7 1549.52 Q1403.89 1549.52 1400.81 1544.94 Q1397.76 1540.33 1397.76 1531.6 Q1397.76 1522.85 1400.81 1518.27 Q1403.89 1513.66 1409.7 1513.66 Z" fill="#000000" fill-rule="nonzero" fill-opacity="1" /><path clip-path="url(#clip300)" d="M1617.46 1544.91 L1633.77 1544.91 L1633.77 1548.85 L1611.83 1548.85 L1611.83 1544.91 Q1614.49 1542.16 1619.08 1537.53 Q1623.68 1532.88 1624.86 1531.53 Q1627.11 1529.01 1627.99 1527.27 Q1628.89 1525.51 1628.89 1523.82 Q1628.89 1521.07 1626.95 1519.33 Q1625.02 1517.6 1621.92 1517.6 Q1619.72 1517.6 1617.27 1518.36 Q1614.84 1519.13 1612.06 1520.68 L1612.06 1515.95 Q1614.89 1514.82 1617.34 1514.24 Q1619.79 1513.66 1621.83 1513.66 Q1627.2 1513.66 1630.4 1516.35 Q1633.59 1519.03 1633.59 1523.52 Q1633.59 1525.65 1632.78 1527.57 Q1631.99 1529.47 1629.89 1532.07 Q1629.31 1532.74 1626.21 1535.95 Q1623.1 1539.15 1617.46 1544.91 Z" fill="#000000" fill-rule="nonzero" fill-opacity="1" /><path clip-path="url(#clip300)" d="M1653.59 1517.37 Q1649.98 1517.37 1648.15 1520.93 Q1646.34 1524.47 1646.34 1531.6 Q1646.34 1538.71 1648.15 1542.27 Q1649.98 1545.82 1653.59 1545.82 Q1657.22 1545.82 1659.03 1542.27 Q1660.86 1538.71 1660.86 1531.6 Q1660.86 1524.47 1659.03 1520.93 Q1657.22 1517.37 1653.59 1517.37 M1653.59 1513.66 Q1659.4 1513.66 1662.46 1518.27 Q1665.53 1522.85 1665.53 1531.6 Q1665.53 1540.33 1662.46 1544.94 Q1659.4 1549.52 1653.59 1549.52 Q1647.78 1549.52 1644.7 1544.94 Q1641.64 1540.33 1641.64 1531.6 Q1641.64 1522.85 1644.7 1518.27 Q1647.78 1513.66 1653.59 1513.66 Z" fill="#000000" fill-rule="nonzero" fill-opacity="1" /><path clip-path="url(#clip300)" d="M1855.83 1518.36 L1844.03 1536.81 L1855.83 1536.81 L1855.83 1518.36 M1854.61 1514.29 L1860.49 1514.29 L1860.49 1536.81 L1865.42 1536.81 L1865.42 1540.7 L1860.49 1540.7 L1860.49 1548.85 L1855.83 1548.85 L1855.83 1540.7 L1840.23 1540.7 L1840.23 1536.19 L1854.61 1514.29 Z" fill="#000000" fill-rule="nonzero" fill-opacity="1" /><path clip-path="url(#clip300)" d="M1883.15 1517.37 Q1879.54 1517.37 1877.71 1520.93 Q1875.9 1524.47 1875.9 1531.6 Q1875.9 1538.71 1877.71 1542.27 Q1879.54 1545.82 1883.15 1545.82 Q1886.78 1545.82 1888.59 1542.27 Q1890.42 1538.71 1890.42 1531.6 Q1890.42 1524.47 1888.59 1520.93 Q1886.78 1517.37 1883.15 1517.37 M1883.15 1513.66 Q1888.96 1513.66 1892.01 1518.27 Q1895.09 1522.85 1895.09 1531.6 Q1895.09 1540.33 1892.01 1544.94 Q1888.96 1549.52 1883.15 1549.52 Q1877.34 1549.52 1874.26 1544.94 Q1871.2 1540.33 1871.2 1531.6 Q1871.2 1522.85 1874.26 1518.27 Q1877.34 1513.66 1883.15 1513.66 Z" fill="#000000" fill-rule="nonzero" fill-opacity="1" /><path clip-path="url(#clip300)" d="M2082.05 1529.7 Q2078.9 1529.7 2077.05 1531.86 Q2075.22 1534.01 2075.22 1537.76 Q2075.22 1541.49 2077.05 1543.66 Q2078.9 1545.82 2082.05 1545.82 Q2085.2 1545.82 2087.02 1543.66 Q2088.88 1541.49 2088.88 1537.76 Q2088.88 1534.01 2087.02 1531.86 Q2085.2 1529.7 2082.05 1529.7 M2091.33 1515.05 L2091.33 1519.31 Q2089.57 1518.48 2087.76 1518.04 Q2085.98 1517.6 2084.22 1517.6 Q2079.59 1517.6 2077.14 1520.72 Q2074.71 1523.85 2074.36 1530.17 Q2075.73 1528.15 2077.79 1527.09 Q2079.85 1526 2082.32 1526 Q2087.53 1526 2090.54 1529.17 Q2093.57 1532.32 2093.57 1537.76 Q2093.57 1543.08 2090.43 1546.3 Q2087.28 1549.52 2082.05 1549.52 Q2076.05 1549.52 2072.88 1544.94 Q2069.71 1540.33 2069.71 1531.6 Q2069.71 1523.41 2073.6 1518.55 Q2077.49 1513.66 2084.04 1513.66 Q2085.8 1513.66 2087.58 1514.01 Q2089.38 1514.36 2091.33 1515.05 Z" fill="#000000" fill-rule="nonzero" fill-opacity="1" /><path clip-path="url(#clip300)" d="M2111.63 1517.37 Q2108.02 1517.37 2106.19 1520.93 Q2104.38 1524.47 2104.38 1531.6 Q2104.38 1538.71 2106.19 1542.27 Q2108.02 1545.82 2111.63 1545.82 Q2115.26 1545.82 2117.07 1542.27 Q2118.9 1538.71 2118.9 1531.6 Q2118.9 1524.47 2117.07 1520.93 Q2115.26 1517.37 2111.63 1517.37 M2111.63 1513.66 Q2117.44 1513.66 2120.5 1518.27 Q2123.57 1522.85 2123.57 1531.6 Q2123.57 1540.33 2120.5 1544.94 Q2117.44 1549.52 2111.63 1549.52 Q2105.82 1549.52 2102.74 1544.94 Q2099.69 1540.33 2099.69 1531.6 Q2099.69 1522.85 2102.74 1518.27 Q2105.82 1513.66 2111.63 1513.66 Z" fill="#000000" fill-rule="nonzero" fill-opacity="1" /><path clip-path="url(#clip300)" d="M2310.49 1532.44 Q2307.16 1532.44 2305.24 1534.22 Q2303.34 1536 2303.34 1539.13 Q2303.34 1542.25 2305.24 1544.03 Q2307.16 1545.82 2310.49 1545.82 Q2313.83 1545.82 2315.75 1544.03 Q2317.67 1542.23 2317.67 1539.13 Q2317.67 1536 2315.75 1534.22 Q2313.85 1532.44 2310.49 1532.44 M2305.82 1530.45 Q2302.81 1529.7 2301.12 1527.64 Q2299.45 1525.58 2299.45 1522.62 Q2299.45 1518.48 2302.39 1516.07 Q2305.36 1513.66 2310.49 1513.66 Q2315.66 1513.66 2318.6 1516.07 Q2321.54 1518.48 2321.54 1522.62 Q2321.54 1525.58 2319.85 1527.64 Q2318.18 1529.7 2315.19 1530.45 Q2318.57 1531.23 2320.45 1533.52 Q2322.35 1535.82 2322.35 1539.13 Q2322.35 1544.15 2319.27 1546.83 Q2316.21 1549.52 2310.49 1549.52 Q2304.78 1549.52 2301.7 1546.83 Q2298.64 1544.15 2298.64 1539.13 Q2298.64 1535.82 2300.54 1533.52 Q2302.44 1531.23 2305.82 1530.45 M2304.11 1523.06 Q2304.11 1525.75 2305.77 1527.25 Q2307.46 1528.76 2310.49 1528.76 Q2313.5 1528.76 2315.19 1527.25 Q2316.91 1525.75 2316.91 1523.06 Q2316.91 1520.38 2315.19 1518.87 Q2313.5 1517.37 2310.49 1517.37 Q2307.46 1517.37 2305.77 1518.87 Q2304.11 1520.38 2304.11 1523.06 Z" fill="#000000" fill-rule="nonzero" fill-opacity="1" /><path clip-path="url(#clip300)" d="M2340.66 1517.37 Q2337.05 1517.37 2335.22 1520.93 Q2333.41 1524.47 2333.41 1531.6 Q2333.41 1538.71 2335.22 1542.27 Q2337.05 1545.82 2340.66 1545.82 Q2344.29 1545.82 2346.1 1542.27 Q2347.92 1538.71 2347.92 1531.6 Q2347.92 1524.47 2346.1 1520.93 Q2344.29 1517.37 2340.66 1517.37 M2340.66 1513.66 Q2346.47 1513.66 2349.52 1518.27 Q2352.6 1522.85 2352.6 1531.6 Q2352.6 1540.33 2349.52 1544.94 Q2346.47 1549.52 2340.66 1549.52 Q2334.85 1549.52 2331.77 1544.94 Q2328.71 1540.33 2328.71 1531.6 Q2328.71 1522.85 2331.77 1518.27 Q2334.85 1513.66 2340.66 1513.66 Z" fill="#000000" fill-rule="nonzero" fill-opacity="1" /><polyline clip-path="url(#clip300)" style="stroke:#000000; stroke-linecap:round; stroke-linejoin:round; stroke-width:4; stroke-opacity:1; fill:none" points="1394.02,1486.45 1394.02,47.2441 "/>
<polyline clip-path="url(#clip300)" style="stroke:#000000; stroke-linecap:round; stroke-linejoin:round; stroke-width:4; stroke-opacity:1; fill:none" points="1394.02,1364.22 1412.91,1364.22 "/>
<polyline clip-path="url(#clip300)" style="stroke:#000000; stroke-linecap:round; stroke-linejoin:round; stroke-width:4; stroke-opacity:1; fill:none" points="1394.02,992.538 1412.91,992.538 "/>
<polyline clip-path="url(#clip300)" style="stroke:#000000; stroke-linecap:round; stroke-linejoin:round; stroke-width:4; stroke-opacity:1; fill:none" points="1394.02,620.852 1412.91,620.852 "/>
<polyline clip-path="url(#clip300)" style="stroke:#000000; stroke-linecap:round; stroke-linejoin:round; stroke-width:4; stroke-opacity:1; fill:none" points="1394.02,249.167 1412.91,249.167 "/>
<path clip-path="url(#clip300)" d="M1251.07 1364.68 L1280.75 1364.68 L1280.75 1368.61 L1251.07 1368.61 L1251.07 1364.68 Z" fill="#000000" fill-rule="nonzero" fill-opacity="1" /><path clip-path="url(#clip300)" d="M1291.65 1377.57 L1299.29 1377.57 L1299.29 1351.2 L1290.98 1352.87 L1290.98 1348.61 L1299.24 1346.94 L1303.92 1346.94 L1303.92 1377.57 L1311.56 1377.57 L1311.56 1381.5 L1291.65 1381.5 L1291.65 1377.57 Z" fill="#000000" fill-rule="nonzero" fill-opacity="1" /><path clip-path="url(#clip300)" d="M1321 1375.62 L1325.89 1375.62 L1325.89 1381.5 L1321 1381.5 L1321 1375.62 Z" fill="#000000" fill-rule="nonzero" fill-opacity="1" /><path clip-path="url(#clip300)" d="M1346.07 1350.02 Q1342.46 1350.02 1340.63 1353.59 Q1338.83 1357.13 1338.83 1364.26 Q1338.83 1371.36 1340.63 1374.93 Q1342.46 1378.47 1346.07 1378.47 Q1349.71 1378.47 1351.51 1374.93 Q1353.34 1371.36 1353.34 1364.26 Q1353.34 1357.13 1351.51 1353.59 Q1349.71 1350.02 1346.07 1350.02 M1346.07 1346.32 Q1351.88 1346.32 1354.94 1350.93 Q1358.02 1355.51 1358.02 1364.26 Q1358.02 1372.99 1354.94 1377.59 Q1351.88 1382.18 1346.07 1382.18 Q1340.26 1382.18 1337.18 1377.59 Q1334.13 1372.99 1334.13 1364.26 Q1334.13 1355.51 1337.18 1350.93 Q1340.26 1346.32 1346.07 1346.32 Z" fill="#000000" fill-rule="nonzero" fill-opacity="1" /><path clip-path="url(#clip300)" d="M1252.07 992.989 L1281.74 992.989 L1281.74 996.925 L1252.07 996.925 L1252.07 992.989 Z" fill="#000000" fill-rule="nonzero" fill-opacity="1" /><path clip-path="url(#clip300)" d="M1301.84 978.337 Q1298.23 978.337 1296.4 981.902 Q1294.59 985.443 1294.59 992.573 Q1294.59 999.679 1296.4 1003.24 Q1298.23 1006.79 1301.84 1006.79 Q1305.47 1006.79 1307.28 1003.24 Q1309.11 999.679 1309.11 992.573 Q1309.11 985.443 1307.28 981.902 Q1305.47 978.337 1301.84 978.337 M1301.84 974.633 Q1307.65 974.633 1310.7 979.239 Q1313.78 983.823 1313.78 992.573 Q1313.78 1001.3 1310.7 1005.91 Q1307.65 1010.49 1301.84 1010.49 Q1296.03 1010.49 1292.95 1005.91 Q1289.89 1001.3 1289.89 992.573 Q1289.89 983.823 1292.95 979.239 Q1296.03 974.633 1301.84 974.633 Z" fill="#000000" fill-rule="nonzero" fill-opacity="1" /><path clip-path="url(#clip300)" d="M1322 1003.94 L1326.88 1003.94 L1326.88 1009.82 L1322 1009.82 L1322 1003.94 Z" fill="#000000" fill-rule="nonzero" fill-opacity="1" /><path clip-path="url(#clip300)" d="M1337.11 975.258 L1355.47 975.258 L1355.47 979.193 L1341.4 979.193 L1341.4 987.665 Q1342.42 987.318 1343.43 987.156 Q1344.45 986.971 1345.47 986.971 Q1351.26 986.971 1354.64 990.142 Q1358.02 993.313 1358.02 998.73 Q1358.02 1004.31 1354.54 1007.41 Q1351.07 1010.49 1344.75 1010.49 Q1342.58 1010.49 1340.31 1010.12 Q1338.06 1009.75 1335.66 1009.01 L1335.66 1004.31 Q1337.74 1005.44 1339.96 1006 Q1342.18 1006.55 1344.66 1006.55 Q1348.67 1006.55 1351 1004.45 Q1353.34 1002.34 1353.34 998.73 Q1353.34 995.119 1351 993.013 Q1348.67 990.906 1344.66 990.906 Q1342.79 990.906 1340.91 991.323 Q1339.06 991.739 1337.11 992.619 L1337.11 975.258 Z" fill="#000000" fill-rule="nonzero" fill-opacity="1" /><path clip-path="url(#clip300)" d="M1300.84 606.651 Q1297.23 606.651 1295.4 610.216 Q1293.6 613.757 1293.6 620.887 Q1293.6 627.993 1295.4 631.558 Q1297.23 635.1 1300.84 635.1 Q1304.48 635.1 1306.28 631.558 Q1308.11 627.993 1308.11 620.887 Q1308.11 613.757 1306.28 610.216 Q1304.48 606.651 1300.84 606.651 M1300.84 602.947 Q1306.65 602.947 1309.71 607.554 Q1312.79 612.137 1312.79 620.887 Q1312.79 629.614 1309.71 634.22 Q1306.65 638.804 1300.84 638.804 Q1295.03 638.804 1291.95 634.22 Q1288.9 629.614 1288.9 620.887 Q1288.9 612.137 1291.95 607.554 Q1295.03 602.947 1300.84 602.947 Z" fill="#000000" fill-rule="nonzero" fill-opacity="1" /><path clip-path="url(#clip300)" d="M1321 632.253 L1325.89 632.253 L1325.89 638.132 L1321 638.132 L1321 632.253 Z" fill="#000000" fill-rule="nonzero" fill-opacity="1" /><path clip-path="url(#clip300)" d="M1346.07 606.651 Q1342.46 606.651 1340.63 610.216 Q1338.83 613.757 1338.83 620.887 Q1338.83 627.993 1340.63 631.558 Q1342.46 635.1 1346.07 635.1 Q1349.71 635.1 1351.51 631.558 Q1353.34 627.993 1353.34 620.887 Q1353.34 613.757 1351.51 610.216 Q1349.71 606.651 1346.07 606.651 M1346.07 602.947 Q1351.88 602.947 1354.94 607.554 Q1358.02 612.137 1358.02 620.887 Q1358.02 629.614 1354.94 634.22 Q1351.88 638.804 1346.07 638.804 Q1340.26 638.804 1337.18 634.22 Q1334.13 629.614 1334.13 620.887 Q1334.13 612.137 1337.18 607.554 Q1340.26 602.947 1346.07 602.947 Z" fill="#000000" fill-rule="nonzero" fill-opacity="1" /><path clip-path="url(#clip300)" d="M1301.84 234.965 Q1298.23 234.965 1296.4 238.53 Q1294.59 242.072 1294.59 249.201 Q1294.59 256.308 1296.4 259.872 Q1298.23 263.414 1301.84 263.414 Q1305.47 263.414 1307.28 259.872 Q1309.11 256.308 1309.11 249.201 Q1309.11 242.072 1307.28 238.53 Q1305.47 234.965 1301.84 234.965 M1301.84 231.262 Q1307.65 231.262 1310.7 235.868 Q1313.78 240.451 1313.78 249.201 Q1313.78 257.928 1310.7 262.535 Q1307.65 267.118 1301.84 267.118 Q1296.03 267.118 1292.95 262.535 Q1289.89 257.928 1289.89 249.201 Q1289.89 240.451 1292.95 235.868 Q1296.03 231.262 1301.84 231.262 Z" fill="#000000" fill-rule="nonzero" fill-opacity="1" /><path clip-path="url(#clip300)" d="M1322 260.567 L1326.88 260.567 L1326.88 266.447 L1322 266.447 L1322 260.567 Z" fill="#000000" fill-rule="nonzero" fill-opacity="1" /><path clip-path="url(#clip300)" d="M1337.11 231.887 L1355.47 231.887 L1355.47 235.822 L1341.4 235.822 L1341.4 244.294 Q1342.42 243.947 1343.43 243.785 Q1344.45 243.599 1345.47 243.599 Q1351.26 243.599 1354.64 246.771 Q1358.02 249.942 1358.02 255.359 Q1358.02 260.937 1354.54 264.039 Q1351.07 267.118 1344.75 267.118 Q1342.58 267.118 1340.31 266.747 Q1338.06 266.377 1335.66 265.636 L1335.66 260.937 Q1337.74 262.072 1339.96 262.627 Q1342.18 263.183 1344.66 263.183 Q1348.67 263.183 1351 261.076 Q1353.34 258.97 1353.34 255.359 Q1353.34 251.748 1351 249.641 Q1348.67 247.535 1344.66 247.535 Q1342.79 247.535 1340.91 247.951 Q1339.06 248.368 1337.11 249.248 L1337.11 231.887 Z" fill="#000000" fill-rule="nonzero" fill-opacity="1" /><polyline clip-path="url(#clip303)" style="stroke:#009af9; stroke-linecap:round; stroke-linejoin:round; stroke-width:4; stroke-opacity:1; fill:none" points="1421.15,1212.03 1432.6,1176.24 1444.05,1119.51 1455.5,1063.56 1466.95,1034.09 1478.4,984.283 1489.85,905.218 1501.29,833.225 1512.74,782.517 1524.19,740.078 1535.64,741.466 1547.09,719.691 1558.54,645.535 1569.99,606.682 1581.44,567.13 1592.89,570.805 1604.34,537.51 1615.78,537.964 1627.23,551.613 1638.68,573.458 1650.13,582.961 1661.58,565.372 1673.03,530.043 1684.48,556.541 1695.93,595.575 1707.38,582.266 1718.83,550.219 1730.27,557.52 1741.72,586.042 1753.17,634.671 1764.62,657.515 1776.07,674.92 1787.52,637.72 1798.97,624.814 1810.42,541.997 1821.87,467.829 1833.31,420.011 1844.76,376.528 1856.21,338.024 1867.66,337.937 1879.11,332.113 1890.56,339.642 1902.01,307.638 1913.46,334.557 1924.91,312.144 1936.36,317.707 1947.8,284.412 1959.25,213.076 1970.7,202.228 1982.15,217.663 1993.6,237.849 2005.05,240.215 2016.5,259.934 2027.95,292.276 2039.4,333.255 2050.85,435.662 2062.29,474.566 2073.74,560.063 2085.19,584.209 2096.64,615.439 2108.09,668.33 2119.54,734.349 2130.99,768.931 2142.44,849.398 2153.89,943.476 2165.34,1017.54 2176.78,1069.17 2188.23,1085.75 2199.68,1104.56 2211.13,1115.69 2222.58,1125.31 2234.03,1110.95 2245.48,1173.72 2256.93,1235.82 2268.38,1295.63 2279.83,1347.18 2291.27,1403.19 2302.72,1445.72 2314.17,1419.82 2325.62,1427.39 "/>
<polyline clip-path="url(#clip303)" style="stroke:#e26f46; stroke-linecap:round; stroke-linejoin:round; stroke-width:4; stroke-opacity:1; fill:none" points="1421.15,1193.39 1432.6,1177.54 1444.05,1113.29 1455.5,1065.2 1466.95,1033.32 1478.4,976.513 1489.85,903.629 1501.29,840.913 1512.74,789.292 1524.19,740.517 1535.64,749.767 1547.09,727.33 1558.54,649.778 1569.99,604.861 1581.44,570.106 1592.89,562.338 1604.34,523.862 1615.78,530.204 1627.23,551.912 1638.68,577.196 1650.13,585.956 1661.58,571.278 1673.03,540.274 1684.48,557.715 1695.93,596.508 1707.38,581.745 1718.83,551.814 1730.27,561.844 1741.72,586.715 1753.17,632.609 1764.62,662.527 1776.07,666.097 1787.52,633.425 1798.97,620.061 1810.42,531.986 1821.87,465.442 1833.31,418.588 1844.76,387.247 1856.21,337.083 1867.66,340.262 1879.11,340.199 1890.56,349.679 1902.01,311.972 1913.46,343.65 1924.91,319.014 1936.36,327.859 1947.8,293.498 1959.25,224.844 1970.7,205.379 1982.15,208.376 1993.6,231.956 2005.05,245.407 2016.5,260.127 2027.95,292.222 2039.4,332.442 2050.85,449.784 2062.29,488.84 2073.74,561.738 2085.19,584.016 2096.64,628.591 2108.09,678.771 2119.54,738.254 2130.99,759.722 2142.44,835.766 2153.89,932.007 2165.34,1010.32 2176.78,1049.06 2188.23,1059.63 2199.68,1091.56 2211.13,1113.23 2222.58,1116.03 2234.03,1097.92 2245.48,1172.13 2256.93,1236.43 2268.38,1294.71 2279.83,1352.61 2291.27,1401.46 2302.72,1433.28 2314.17,1411.31 2325.62,1426.3 "/>
<polyline clip-path="url(#clip303)" style="stroke:#3da44d; stroke-linecap:round; stroke-linejoin:round; stroke-width:4; stroke-opacity:1; fill:none" points="1421.15,1219.13 1432.6,1136.9 1444.05,988.019 1455.5,894.428 1466.95,866.526 1478.4,880.217 1489.85,756.113 1501.29,732.925 1512.74,671.183 1524.19,770.62 1535.64,835.592 1547.09,781.849 1558.54,701.315 1569.99,561.736 1581.44,643.158 1592.89,652.787 1604.34,621.478 1615.78,524.386 1627.23,531.205 1638.68,475.88 1650.13,512.323 1661.58,673.494 1673.03,552.363 1684.48,554.756 1695.93,637.105 1707.38,541.394 1718.83,605.577 1730.27,683.579 1741.72,678.015 1753.17,594.153 1764.62,593.046 1776.07,561.774 1787.52,444.943 1798.97,494.923 1810.42,441.568 1821.87,389.702 1833.31,247.247 1844.76,261.371 1856.21,346.402 1867.66,327.557 1879.11,319.464 1890.56,341.525 1902.01,238.982 1913.46,279.433 1924.91,324.504 1936.36,239.487 1947.8,269.458 1959.25,343.404 1970.7,267.115 1982.15,175.974 1993.6,87.9763 2005.05,128.792 2016.5,179.642 2027.95,277.45 2039.4,250.729 2050.85,404.671 2062.29,527.127 2073.74,617.637 2085.19,577.794 2096.64,535.607 2108.09,705.816 2119.54,728.823 2130.99,735.216 2142.44,783.547 2153.89,956.677 2165.34,1095.99 2176.78,1101.27 2188.23,1196.2 2199.68,1099.87 2211.13,1149.34 2222.58,1197.49 2234.03,1165.21 2245.48,1190.11 2256.93,1168.19 2268.38,1197 2279.83,1262.35 2291.27,1248.48 2302.72,1303.7 2314.17,1218.38 2325.62,1306.25 "/>
<path clip-path="url(#clip300)" d="M1863.26 302.578 L2320.8 302.578 L2320.8 95.2176 L1863.26 95.2176  Z" fill="#ffffff" fill-rule="evenodd" fill-opacity="1"/>
<polyline clip-path="url(#clip300)" style="stroke:#000000; stroke-linecap:round; stroke-linejoin:round; stroke-width:4; stroke-opacity:1; fill:none" points="1863.26,302.578 2320.8,302.578 2320.8,95.2176 1863.26,95.2176 1863.26,302.578 "/>
<polyline clip-path="url(#clip300)" style="stroke:#009af9; stroke-linecap:round; stroke-linejoin:round; stroke-width:4; stroke-opacity:1; fill:none" points="1873.91,147.058 1937.83,147.058 "/>
<path clip-path="url(#clip300)" d="M1948.48 129.778 L1953.16 129.778 L1953.16 144.384 L1968.67 129.778 L1974.68 129.778 L1957.53 145.889 L1975.91 164.338 L1969.75 164.338 L1953.16 147.694 L1953.16 164.338 L1948.48 164.338 L1948.48 129.778 Z" fill="#000000" fill-rule="nonzero" fill-opacity="1" /><path clip-path="url(#clip300)" d="M1990.33 151.305 Q1985.17 151.305 1983.18 152.486 Q1981.19 153.666 1981.19 156.514 Q1981.19 158.782 1982.67 160.125 Q1984.17 161.444 1986.74 161.444 Q1990.29 161.444 1992.42 158.944 Q1994.57 156.421 1994.57 152.254 L1994.57 151.305 L1990.33 151.305 M1998.83 149.546 L1998.83 164.338 L1994.57 164.338 L1994.57 160.402 Q1993.11 162.763 1990.93 163.898 Q1988.76 165.009 1985.61 165.009 Q1981.63 165.009 1979.27 162.787 Q1976.93 160.541 1976.93 156.791 Q1976.93 152.416 1979.85 150.194 Q1982.79 147.972 1988.6 147.972 L1994.57 147.972 L1994.57 147.555 Q1994.57 144.615 1992.62 143.018 Q1990.7 141.398 1987.21 141.398 Q1984.98 141.398 1982.88 141.93 Q1980.77 142.463 1978.83 143.527 L1978.83 139.592 Q1981.17 138.69 1983.36 138.25 Q1985.56 137.787 1987.65 137.787 Q1993.27 137.787 1996.05 140.703 Q1998.83 143.62 1998.83 149.546 Z" fill="#000000" fill-rule="nonzero" fill-opacity="1" /><path clip-path="url(#clip300)" d="M2007.6 128.319 L2011.86 128.319 L2011.86 164.338 L2007.6 164.338 L2007.6 128.319 Z" fill="#000000" fill-rule="nonzero" fill-opacity="1" /><path clip-path="url(#clip300)" d="M2040.96 143.389 Q2042.55 140.518 2044.78 139.153 Q2047 137.787 2050.01 137.787 Q2054.06 137.787 2056.26 140.634 Q2058.46 143.458 2058.46 148.689 L2058.46 164.338 L2054.17 164.338 L2054.17 148.828 Q2054.17 145.102 2052.86 143.296 Q2051.54 141.49 2048.83 141.49 Q2045.52 141.49 2043.6 143.69 Q2041.67 145.889 2041.67 149.685 L2041.67 164.338 L2037.39 164.338 L2037.39 148.828 Q2037.39 145.078 2036.07 143.296 Q2034.75 141.49 2032 141.49 Q2028.73 141.49 2026.81 143.713 Q2024.89 145.912 2024.89 149.685 L2024.89 164.338 L2020.61 164.338 L2020.61 138.412 L2024.89 138.412 L2024.89 142.44 Q2026.35 140.055 2028.39 138.921 Q2030.42 137.787 2033.23 137.787 Q2036.05 137.787 2038.02 139.222 Q2040.01 140.657 2040.96 143.389 Z" fill="#000000" fill-rule="nonzero" fill-opacity="1" /><path clip-path="url(#clip300)" d="M2078.73 151.305 Q2073.57 151.305 2071.58 152.486 Q2069.59 153.666 2069.59 156.514 Q2069.59 158.782 2071.07 160.125 Q2072.58 161.444 2075.15 161.444 Q2078.69 161.444 2080.82 158.944 Q2082.97 156.421 2082.97 152.254 L2082.97 151.305 L2078.73 151.305 M2087.23 149.546 L2087.23 164.338 L2082.97 164.338 L2082.97 160.402 Q2081.51 162.763 2079.34 163.898 Q2077.16 165.009 2074.01 165.009 Q2070.03 165.009 2067.67 162.787 Q2065.33 160.541 2065.33 156.791 Q2065.33 152.416 2068.25 150.194 Q2071.19 147.972 2077 147.972 L2082.97 147.972 L2082.97 147.555 Q2082.97 144.615 2081.03 143.018 Q2079.1 141.398 2075.61 141.398 Q2073.39 141.398 2071.28 141.93 Q2069.17 142.463 2067.23 143.527 L2067.23 139.592 Q2069.57 138.69 2071.77 138.25 Q2073.97 137.787 2076.05 137.787 Q2081.67 137.787 2084.45 140.703 Q2087.23 143.62 2087.23 149.546 Z" fill="#000000" fill-rule="nonzero" fill-opacity="1" /><path clip-path="url(#clip300)" d="M2117.55 148.689 L2117.55 164.338 L2113.29 164.338 L2113.29 148.828 Q2113.29 145.148 2111.86 143.319 Q2110.42 141.49 2107.55 141.49 Q2104.1 141.49 2102.11 143.69 Q2100.12 145.889 2100.12 149.685 L2100.12 164.338 L2095.84 164.338 L2095.84 138.412 L2100.12 138.412 L2100.12 142.44 Q2101.65 140.102 2103.71 138.944 Q2105.79 137.787 2108.5 137.787 Q2112.97 137.787 2115.26 140.565 Q2117.55 143.319 2117.55 148.689 Z" fill="#000000" fill-rule="nonzero" fill-opacity="1" /><path clip-path="url(#clip300)" d="M2157.65 139.176 L2157.65 143.203 Q2155.84 142.277 2153.9 141.815 Q2151.95 141.352 2149.87 141.352 Q2146.7 141.352 2145.1 142.324 Q2143.53 143.296 2143.53 145.24 Q2143.53 146.722 2144.66 147.578 Q2145.79 148.412 2149.22 149.176 L2150.68 149.5 Q2155.22 150.472 2157.11 152.254 Q2159.03 154.014 2159.03 157.185 Q2159.03 160.796 2156.16 162.902 Q2153.32 165.009 2148.32 165.009 Q2146.23 165.009 2143.97 164.592 Q2141.72 164.199 2139.22 163.388 L2139.22 158.99 Q2141.58 160.217 2143.87 160.842 Q2146.16 161.444 2148.41 161.444 Q2151.42 161.444 2153.04 160.426 Q2154.66 159.384 2154.66 157.509 Q2154.66 155.773 2153.48 154.847 Q2152.32 153.921 2148.36 153.064 L2146.88 152.717 Q2142.92 151.884 2141.16 150.171 Q2139.41 148.435 2139.41 145.426 Q2139.41 141.768 2142 139.778 Q2144.59 137.787 2149.36 137.787 Q2151.72 137.787 2153.8 138.134 Q2155.89 138.481 2157.65 139.176 Z" fill="#000000" fill-rule="nonzero" fill-opacity="1" /><path clip-path="url(#clip300)" d="M2186 143.389 Q2187.6 140.518 2189.82 139.153 Q2192.04 137.787 2195.05 137.787 Q2199.1 137.787 2201.3 140.634 Q2203.5 143.458 2203.5 148.689 L2203.5 164.338 L2199.22 164.338 L2199.22 148.828 Q2199.22 145.102 2197.9 143.296 Q2196.58 141.49 2193.87 141.49 Q2190.56 141.49 2188.64 143.69 Q2186.72 145.889 2186.72 149.685 L2186.72 164.338 L2182.44 164.338 L2182.44 148.828 Q2182.44 145.078 2181.12 143.296 Q2179.8 141.49 2177.04 141.49 Q2173.78 141.49 2171.86 143.713 Q2169.94 145.912 2169.94 149.685 L2169.94 164.338 L2165.66 164.338 L2165.66 138.412 L2169.94 138.412 L2169.94 142.44 Q2171.4 140.055 2173.43 138.921 Q2175.47 137.787 2178.27 137.787 Q2181.1 137.787 2183.06 139.222 Q2185.05 140.657 2186 143.389 Z" fill="#000000" fill-rule="nonzero" fill-opacity="1" /><path clip-path="url(#clip300)" d="M2222.04 141.398 Q2218.62 141.398 2216.63 144.083 Q2214.64 146.745 2214.64 151.398 Q2214.64 156.051 2216.6 158.736 Q2218.59 161.398 2222.04 161.398 Q2225.45 161.398 2227.44 158.713 Q2229.43 156.027 2229.43 151.398 Q2229.43 146.791 2227.44 144.106 Q2225.45 141.398 2222.04 141.398 M2222.04 137.787 Q2227.6 137.787 2230.77 141.398 Q2233.94 145.009 2233.94 151.398 Q2233.94 157.764 2230.77 161.398 Q2227.6 165.009 2222.04 165.009 Q2216.47 165.009 2213.29 161.398 Q2210.15 157.764 2210.15 151.398 Q2210.15 145.009 2213.29 141.398 Q2216.47 137.787 2222.04 137.787 Z" fill="#000000" fill-rule="nonzero" fill-opacity="1" /><path clip-path="url(#clip300)" d="M2251.05 141.398 Q2247.62 141.398 2245.63 144.083 Q2243.64 146.745 2243.64 151.398 Q2243.64 156.051 2245.61 158.736 Q2247.6 161.398 2251.05 161.398 Q2254.45 161.398 2256.44 158.713 Q2258.43 156.027 2258.43 151.398 Q2258.43 146.791 2256.44 144.106 Q2254.45 141.398 2251.05 141.398 M2251.05 137.787 Q2256.6 137.787 2259.78 141.398 Q2262.95 145.009 2262.95 151.398 Q2262.95 157.764 2259.78 161.398 Q2256.6 165.009 2251.05 165.009 Q2245.47 165.009 2242.3 161.398 Q2239.15 157.764 2239.15 151.398 Q2239.15 145.009 2242.3 141.398 Q2245.47 137.787 2251.05 137.787 Z" fill="#000000" fill-rule="nonzero" fill-opacity="1" /><path clip-path="url(#clip300)" d="M2274.22 131.051 L2274.22 138.412 L2282.99 138.412 L2282.99 141.722 L2274.22 141.722 L2274.22 155.796 Q2274.22 158.967 2275.08 159.87 Q2275.96 160.773 2278.62 160.773 L2282.99 160.773 L2282.99 164.338 L2278.62 164.338 Q2273.69 164.338 2271.81 162.509 Q2269.94 160.657 2269.94 155.796 L2269.94 141.722 L2266.81 141.722 L2266.81 138.412 L2269.94 138.412 L2269.94 131.051 L2274.22 131.051 Z" fill="#000000" fill-rule="nonzero" fill-opacity="1" /><path clip-path="url(#clip300)" d="M2310.15 148.689 L2310.15 164.338 L2305.89 164.338 L2305.89 148.828 Q2305.89 145.148 2304.45 143.319 Q2303.02 141.49 2300.15 141.49 Q2296.7 141.49 2294.71 143.69 Q2292.71 145.889 2292.71 149.685 L2292.71 164.338 L2288.43 164.338 L2288.43 128.319 L2292.71 128.319 L2292.71 142.44 Q2294.24 140.102 2296.3 138.944 Q2298.39 137.787 2301.09 137.787 Q2305.56 137.787 2307.85 140.565 Q2310.15 143.319 2310.15 148.689 Z" fill="#000000" fill-rule="nonzero" fill-opacity="1" /><polyline clip-path="url(#clip300)" style="stroke:#e26f46; stroke-linecap:round; stroke-linejoin:round; stroke-width:4; stroke-opacity:1; fill:none" points="1873.91,198.898 1937.83,198.898 "/>
<path clip-path="url(#clip300)" d="M1952.76 212.289 L1952.76 226.039 L1948.48 226.039 L1948.48 190.252 L1952.76 190.252 L1952.76 194.187 Q1954.11 191.872 1956.14 190.761 Q1958.2 189.627 1961.05 189.627 Q1965.77 189.627 1968.71 193.377 Q1971.67 197.127 1971.67 203.238 Q1971.67 209.349 1968.71 213.099 Q1965.77 216.849 1961.05 216.849 Q1958.2 216.849 1956.14 215.738 Q1954.11 214.603 1952.76 212.289 M1967.25 203.238 Q1967.25 198.539 1965.31 195.877 Q1963.39 193.192 1960.01 193.192 Q1956.63 193.192 1954.68 195.877 Q1952.76 198.539 1952.76 203.238 Q1952.76 207.937 1954.68 210.622 Q1956.63 213.284 1960.01 213.284 Q1963.39 213.284 1965.31 210.622 Q1967.25 207.937 1967.25 203.238 Z" fill="#000000" fill-rule="nonzero" fill-opacity="1" /><path clip-path="url(#clip300)" d="M1991.86 180.159 L1991.86 183.701 L1987.79 183.701 Q1985.49 183.701 1984.59 184.627 Q1983.71 185.553 1983.71 187.96 L1983.71 190.252 L1990.73 190.252 L1990.73 193.562 L1983.71 193.562 L1983.71 216.178 L1979.43 216.178 L1979.43 193.562 L1975.36 193.562 L1975.36 190.252 L1979.43 190.252 L1979.43 188.446 Q1979.43 184.118 1981.44 182.15 Q1983.46 180.159 1987.83 180.159 L1991.86 180.159 Z" fill="#000000" fill-rule="nonzero" fill-opacity="1" /><path clip-path="url(#clip300)" d="M2027.02 191.016 L2027.02 195.043 Q2025.22 194.117 2023.27 193.655 Q2021.33 193.192 2019.24 193.192 Q2016.07 193.192 2014.48 194.164 Q2012.9 195.136 2012.9 197.08 Q2012.9 198.562 2014.04 199.418 Q2015.17 200.252 2018.6 201.016 L2020.05 201.34 Q2024.59 202.312 2026.49 204.094 Q2028.41 205.854 2028.41 209.025 Q2028.41 212.636 2025.54 214.742 Q2022.69 216.849 2017.69 216.849 Q2015.61 216.849 2013.34 216.432 Q2011.1 216.039 2008.6 215.228 L2008.6 210.83 Q2010.96 212.057 2013.25 212.682 Q2015.54 213.284 2017.79 213.284 Q2020.79 213.284 2022.42 212.266 Q2024.04 211.224 2024.04 209.349 Q2024.04 207.613 2022.86 206.687 Q2021.7 205.761 2017.74 204.904 L2016.26 204.557 Q2012.3 203.724 2010.54 202.011 Q2008.78 200.275 2008.78 197.266 Q2008.78 193.608 2011.37 191.618 Q2013.97 189.627 2018.73 189.627 Q2021.1 189.627 2023.18 189.974 Q2025.26 190.321 2027.02 191.016 Z" fill="#000000" fill-rule="nonzero" fill-opacity="1" /><path clip-path="url(#clip300)" d="M2055.38 195.229 Q2056.98 192.358 2059.2 190.993 Q2061.42 189.627 2064.43 189.627 Q2068.48 189.627 2070.68 192.474 Q2072.88 195.298 2072.88 200.529 L2072.88 216.178 L2068.6 216.178 L2068.6 200.668 Q2068.6 196.942 2067.28 195.136 Q2065.96 193.33 2063.25 193.33 Q2059.94 193.33 2058.02 195.53 Q2056.1 197.729 2056.1 201.525 L2056.1 216.178 L2051.81 216.178 L2051.81 200.668 Q2051.81 196.918 2050.49 195.136 Q2049.17 193.33 2046.42 193.33 Q2043.16 193.33 2041.23 195.553 Q2039.31 197.752 2039.31 201.525 L2039.31 216.178 L2035.03 216.178 L2035.03 190.252 L2039.31 190.252 L2039.31 194.28 Q2040.77 191.895 2042.81 190.761 Q2044.85 189.627 2047.65 189.627 Q2050.47 189.627 2052.44 191.062 Q2054.43 192.497 2055.38 195.229 Z" fill="#000000" fill-rule="nonzero" fill-opacity="1" /><path clip-path="url(#clip300)" d="M2091.42 193.238 Q2087.99 193.238 2086 195.923 Q2084.01 198.585 2084.01 203.238 Q2084.01 207.891 2085.98 210.576 Q2087.97 213.238 2091.42 213.238 Q2094.82 213.238 2096.81 210.553 Q2098.8 207.867 2098.8 203.238 Q2098.8 198.631 2096.81 195.946 Q2094.82 193.238 2091.42 193.238 M2091.42 189.627 Q2096.98 189.627 2100.15 193.238 Q2103.32 196.849 2103.32 203.238 Q2103.32 209.604 2100.15 213.238 Q2096.98 216.849 2091.42 216.849 Q2085.84 216.849 2082.67 213.238 Q2079.52 209.604 2079.52 203.238 Q2079.52 196.849 2082.67 193.238 Q2085.84 189.627 2091.42 189.627 Z" fill="#000000" fill-rule="nonzero" fill-opacity="1" /><path clip-path="url(#clip300)" d="M2120.42 193.238 Q2117 193.238 2115.01 195.923 Q2113.02 198.585 2113.02 203.238 Q2113.02 207.891 2114.98 210.576 Q2116.98 213.238 2120.42 213.238 Q2123.83 213.238 2125.82 210.553 Q2127.81 207.867 2127.81 203.238 Q2127.81 198.631 2125.82 195.946 Q2123.83 193.238 2120.42 193.238 M2120.42 189.627 Q2125.98 189.627 2129.15 193.238 Q2132.32 196.849 2132.32 203.238 Q2132.32 209.604 2129.15 213.238 Q2125.98 216.849 2120.42 216.849 Q2114.85 216.849 2111.67 213.238 Q2108.53 209.604 2108.53 203.238 Q2108.53 196.849 2111.67 193.238 Q2114.85 189.627 2120.42 189.627 Z" fill="#000000" fill-rule="nonzero" fill-opacity="1" /><path clip-path="url(#clip300)" d="M2143.6 182.891 L2143.6 190.252 L2152.37 190.252 L2152.37 193.562 L2143.6 193.562 L2143.6 207.636 Q2143.6 210.807 2144.45 211.71 Q2145.33 212.613 2147.99 212.613 L2152.37 212.613 L2152.37 216.178 L2147.99 216.178 Q2143.06 216.178 2141.19 214.349 Q2139.31 212.497 2139.31 207.636 L2139.31 193.562 L2136.19 193.562 L2136.19 190.252 L2139.31 190.252 L2139.31 182.891 L2143.6 182.891 Z" fill="#000000" fill-rule="nonzero" fill-opacity="1" /><path clip-path="url(#clip300)" d="M2179.52 200.529 L2179.52 216.178 L2175.26 216.178 L2175.26 200.668 Q2175.26 196.988 2173.83 195.159 Q2172.39 193.33 2169.52 193.33 Q2166.07 193.33 2164.08 195.53 Q2162.09 197.729 2162.09 201.525 L2162.09 216.178 L2157.81 216.178 L2157.81 180.159 L2162.09 180.159 L2162.09 194.28 Q2163.62 191.942 2165.68 190.784 Q2167.76 189.627 2170.47 189.627 Q2174.94 189.627 2177.23 192.405 Q2179.52 195.159 2179.52 200.529 Z" fill="#000000" fill-rule="nonzero" fill-opacity="1" /><polyline clip-path="url(#clip300)" style="stroke:#3da44d; stroke-linecap:round; stroke-linejoin:round; stroke-width:4; stroke-opacity:1; fill:none" points="1873.91,250.738 1937.83,250.738 "/>
<path clip-path="url(#clip300)" d="M1955.89 234.731 L1955.89 242.092 L1964.66 242.092 L1964.66 245.402 L1955.89 245.402 L1955.89 259.476 Q1955.89 262.647 1956.74 263.55 Q1957.62 264.453 1960.29 264.453 L1964.66 264.453 L1964.66 268.018 L1960.29 268.018 Q1955.36 268.018 1953.48 266.189 Q1951.61 264.337 1951.61 259.476 L1951.61 245.402 L1948.48 245.402 L1948.48 242.092 L1951.61 242.092 L1951.61 234.731 L1955.89 234.731 Z" fill="#000000" fill-rule="nonzero" fill-opacity="1" /><path clip-path="url(#clip300)" d="M1985.29 246.073 Q1984.57 245.657 1983.71 245.471 Q1982.88 245.263 1981.86 245.263 Q1978.25 245.263 1976.3 247.624 Q1974.38 249.962 1974.38 254.36 L1974.38 268.018 L1970.1 268.018 L1970.1 242.092 L1974.38 242.092 L1974.38 246.12 Q1975.73 243.758 1977.88 242.624 Q1980.03 241.467 1983.11 241.467 Q1983.55 241.467 1984.08 241.536 Q1984.61 241.583 1985.26 241.698 L1985.29 246.073 Z" fill="#000000" fill-rule="nonzero" fill-opacity="1" /><path clip-path="url(#clip300)" d="M1989.31 257.786 L1989.31 242.092 L1993.57 242.092 L1993.57 257.624 Q1993.57 261.305 1995.01 263.156 Q1996.44 264.985 1999.31 264.985 Q2002.76 264.985 2004.75 262.786 Q2006.77 260.587 2006.77 256.791 L2006.77 242.092 L2011.03 242.092 L2011.03 268.018 L2006.77 268.018 L2006.77 264.036 Q2005.22 266.397 2003.16 267.555 Q2001.12 268.689 1998.41 268.689 Q1993.94 268.689 1991.63 265.911 Q1989.31 263.133 1989.31 257.786 M2000.03 241.467 L2000.03 241.467 Z" fill="#000000" fill-rule="nonzero" fill-opacity="1" /><path clip-path="url(#clip300)" d="M2041.98 253.99 L2041.98 256.073 L2022.39 256.073 Q2022.67 260.471 2025.03 262.786 Q2027.42 265.078 2031.65 265.078 Q2034.11 265.078 2036.4 264.476 Q2038.71 263.874 2040.98 262.67 L2040.98 266.698 Q2038.69 267.67 2036.28 268.18 Q2033.87 268.689 2031.4 268.689 Q2025.19 268.689 2021.56 265.078 Q2017.95 261.467 2017.95 255.309 Q2017.95 248.944 2021.37 245.217 Q2024.82 241.467 2030.66 241.467 Q2035.89 241.467 2038.92 244.846 Q2041.98 248.203 2041.98 253.99 M2037.72 252.74 Q2037.67 249.245 2035.75 247.161 Q2033.85 245.078 2030.7 245.078 Q2027.14 245.078 2024.98 247.092 Q2022.86 249.106 2022.53 252.763 L2037.72 252.74 Z" fill="#000000" fill-rule="nonzero" fill-opacity="1" /></svg>
