<?xml version="1.0" encoding="utf-8"?>
<svg xmlns="http://www.w3.org/2000/svg" xmlns:xlink="http://www.w3.org/1999/xlink" width="600" height="400" viewBox="0 0 2400 1600">
<defs>
  <clipPath id="clip130">
    <rect x="0" y="0" width="2400" height="1600"/>
  </clipPath>
</defs>
<path clip-path="url(#clip130)" d="M0 1600 L2400 1600 L2400 0 L0 0  Z" fill="#ffffff" fill-rule="evenodd" fill-opacity="1"/>
<defs>
  <clipPath id="clip131">
    <rect x="1393" y="47" width="960" height="1440"/>
  </clipPath>
</defs>
<path clip-path="url(#clip130)" d="M193.936 1486.45 L1152.76 1486.45 L1152.76 47.2441 L193.936 47.2441  Z" fill="#ffffff" fill-rule="evenodd" fill-opacity="1"/>
<defs>
  <clipPath id="clip132">
    <rect x="193" y="47" width="960" height="1440"/>
  </clipPath>
</defs>
<polyline clip-path="url(#clip132)" style="stroke:#000000; stroke-linecap:round; stroke-linejoin:round; stroke-width:2; stroke-opacity:0.1; fill:none" points="209.622,1486.45 209.622,47.2441 "/>
<polyline clip-path="url(#clip132)" style="stroke:#000000; stroke-linecap:round; stroke-linejoin:round; stroke-width:2; stroke-opacity:0.1; fill:none" points="438.622,1486.45 438.622,47.2441 "/>
<polyline clip-path="url(#clip132)" style="stroke:#000000; stroke-linecap:round; stroke-linejoin:round; stroke-width:2; stroke-opacity:0.1; fill:none" points="667.621,1486.45 667.621,47.2441 "/>
<polyline clip-path="url(#clip132)" style="stroke:#000000; stroke-linecap:round; stroke-linejoin:round; stroke-width:2; stroke-opacity:0.1; fill:none" points="896.62,1486.45 896.62,47.2441 "/>
<polyline clip-path="url(#clip132)" style="stroke:#000000; stroke-linecap:round; stroke-linejoin:round; stroke-width:2; stroke-opacity:0.1; fill:none" points="1125.62,1486.45 1125.62,47.2441 "/>
<polyline clip-path="url(#clip132)" style="stroke:#000000; stroke-linecap:round; stroke-linejoin:round; stroke-width:2; stroke-opacity:0.1; fill:none" points="193.936,1479.45 1152.76,1479.45 "/>
<polyline clip-path="url(#clip132)" style="stroke:#000000; stroke-linecap:round; stroke-linejoin:round; stroke-width:2; stroke-opacity:0.1; fill:none" points="193.936,1208.92 1152.76,1208.92 "/>
<polyline clip-path="url(#clip132)" style="stroke:#000000; stroke-linecap:round; stroke-linejoin:round; stroke-width:2; stroke-opacity:0.1; fill:none" points="193.936,938.389 1152.76,938.389 "/>
<polyline clip-path="url(#clip132)" style="stroke:#000000; stroke-linecap:round; stroke-linejoin:round; stroke-width:2; stroke-opacity:0.1; fill:none" points="193.936,667.859 1152.76,667.859 "/>
<polyline clip-path="url(#clip132)" style="stroke:#000000; stroke-linecap:round; stroke-linejoin:round; stroke-width:2; stroke-opacity:0.1; fill:none" points="193.936,397.33 1152.76,397.33 "/>
<polyline clip-path="url(#clip132)" style="stroke:#000000; stroke-linecap:round; stroke-linejoin:round; stroke-width:2; stroke-opacity:0.1; fill:none" points="193.936,126.8 1152.76,126.8 "/>
<polyline clip-path="url(#clip130)" style="stroke:#000000; stroke-linecap:round; stroke-linejoin:round; stroke-width:4; stroke-opacity:1; fill:none" points="193.936,1486.45 1152.76,1486.45 "/>
<polyline clip-path="url(#clip130)" style="stroke:#000000; stroke-linecap:round; stroke-linejoin:round; stroke-width:4; stroke-opacity:1; fill:none" points="209.622,1486.45 209.622,1467.55 "/>
<polyline clip-path="url(#clip130)" style="stroke:#000000; stroke-linecap:round; stroke-linejoin:round; stroke-width:4; stroke-opacity:1; fill:none" points="438.622,1486.45 438.622,1467.55 "/>
<polyline clip-path="url(#clip130)" style="stroke:#000000; stroke-linecap:round; stroke-linejoin:round; stroke-width:4; stroke-opacity:1; fill:none" points="667.621,1486.45 667.621,1467.55 "/>
<polyline clip-path="url(#clip130)" style="stroke:#000000; stroke-linecap:round; stroke-linejoin:round; stroke-width:4; stroke-opacity:1; fill:none" points="896.62,1486.45 896.62,1467.55 "/>
<polyline clip-path="url(#clip130)" style="stroke:#000000; stroke-linecap:round; stroke-linejoin:round; stroke-width:4; stroke-opacity:1; fill:none" points="1125.62,1486.45 1125.62,1467.55 "/>
<path clip-path="url(#clip130)" d="M209.622 1517.37 Q206.011 1517.37 204.183 1520.93 Q202.377 1524.47 202.377 1531.6 Q202.377 1538.71 204.183 1542.27 Q206.011 1545.82 209.622 1545.82 Q213.257 1545.82 215.062 1542.27 Q216.891 1538.71 216.891 1531.6 Q216.891 1524.47 215.062 1520.93 Q213.257 1517.37 209.622 1517.37 M209.622 1513.66 Q215.433 1513.66 218.488 1518.27 Q221.567 1522.85 221.567 1531.6 Q221.567 1540.33 218.488 1544.94 Q215.433 1549.52 209.622 1549.52 Q203.812 1549.52 200.734 1544.94 Q197.678 1540.33 197.678 1531.6 Q197.678 1522.85 200.734 1518.27 Q203.812 1513.66 209.622 1513.66 Z" fill="#000000" fill-rule="nonzero" fill-opacity="1" /><path clip-path="url(#clip130)" d="M417.395 1544.91 L433.714 1544.91 L433.714 1548.85 L411.77 1548.85 L411.77 1544.91 Q414.432 1542.16 419.015 1537.53 Q423.622 1532.88 424.802 1531.53 Q427.048 1529.01 427.927 1527.27 Q428.83 1525.51 428.83 1523.82 Q428.83 1521.07 426.886 1519.33 Q424.964 1517.6 421.863 1517.6 Q419.663 1517.6 417.21 1518.36 Q414.779 1519.13 412.001 1520.68 L412.001 1515.95 Q414.826 1514.82 417.279 1514.24 Q419.733 1513.66 421.77 1513.66 Q427.14 1513.66 430.335 1516.35 Q433.529 1519.03 433.529 1523.52 Q433.529 1525.65 432.719 1527.57 Q431.932 1529.47 429.825 1532.07 Q429.247 1532.74 426.145 1535.95 Q423.043 1539.15 417.395 1544.91 Z" fill="#000000" fill-rule="nonzero" fill-opacity="1" /><path clip-path="url(#clip130)" d="M453.529 1517.37 Q449.918 1517.37 448.089 1520.93 Q446.284 1524.47 446.284 1531.6 Q446.284 1538.71 448.089 1542.27 Q449.918 1545.82 453.529 1545.82 Q457.163 1545.82 458.969 1542.27 Q460.798 1538.71 460.798 1531.6 Q460.798 1524.47 458.969 1520.93 Q457.163 1517.37 453.529 1517.37 M453.529 1513.66 Q459.339 1513.66 462.395 1518.27 Q465.473 1522.85 465.473 1531.6 Q465.473 1540.33 462.395 1544.94 Q459.339 1549.52 453.529 1549.52 Q447.719 1549.52 444.64 1544.94 Q441.585 1540.33 441.585 1531.6 Q441.585 1522.85 444.64 1518.27 Q447.719 1513.66 453.529 1513.66 Z" fill="#000000" fill-rule="nonzero" fill-opacity="1" /><path clip-path="url(#clip130)" d="M655.792 1518.36 L643.987 1536.81 L655.792 1536.81 L655.792 1518.36 M654.565 1514.29 L660.445 1514.29 L660.445 1536.81 L665.376 1536.81 L665.376 1540.7 L660.445 1540.7 L660.445 1548.85 L655.792 1548.85 L655.792 1540.7 L640.191 1540.7 L640.191 1536.19 L654.565 1514.29 Z" fill="#000000" fill-rule="nonzero" fill-opacity="1" /><path clip-path="url(#clip130)" d="M683.107 1517.37 Q679.496 1517.37 677.667 1520.93 Q675.862 1524.47 675.862 1531.6 Q675.862 1538.71 677.667 1542.27 Q679.496 1545.82 683.107 1545.82 Q686.741 1545.82 688.547 1542.27 Q690.375 1538.71 690.375 1531.6 Q690.375 1524.47 688.547 1520.93 Q686.741 1517.37 683.107 1517.37 M683.107 1513.66 Q688.917 1513.66 691.973 1518.27 Q695.051 1522.85 695.051 1531.6 Q695.051 1540.33 691.973 1544.94 Q688.917 1549.52 683.107 1549.52 Q677.297 1549.52 674.218 1544.94 Q671.163 1540.33 671.163 1531.6 Q671.163 1522.85 674.218 1518.27 Q677.297 1513.66 683.107 1513.66 Z" fill="#000000" fill-rule="nonzero" fill-opacity="1" /><path clip-path="url(#clip130)" d="M882.025 1529.7 Q878.877 1529.7 877.025 1531.86 Q875.197 1534.01 875.197 1537.76 Q875.197 1541.49 877.025 1543.66 Q878.877 1545.82 882.025 1545.82 Q885.174 1545.82 887.002 1543.66 Q888.854 1541.49 888.854 1537.76 Q888.854 1534.01 887.002 1531.86 Q885.174 1529.7 882.025 1529.7 M891.308 1515.05 L891.308 1519.31 Q889.549 1518.48 887.743 1518.04 Q885.961 1517.6 884.201 1517.6 Q879.572 1517.6 877.118 1520.72 Q874.687 1523.85 874.34 1530.17 Q875.706 1528.15 877.766 1527.09 Q879.826 1526 882.303 1526 Q887.511 1526 890.521 1529.17 Q893.553 1532.32 893.553 1537.76 Q893.553 1543.08 890.405 1546.3 Q887.257 1549.52 882.025 1549.52 Q876.03 1549.52 872.859 1544.94 Q869.688 1540.33 869.688 1531.6 Q869.688 1523.41 873.576 1518.55 Q877.465 1513.66 884.016 1513.66 Q885.775 1513.66 887.558 1514.01 Q889.363 1514.36 891.308 1515.05 Z" fill="#000000" fill-rule="nonzero" fill-opacity="1" /><path clip-path="url(#clip130)" d="M911.609 1517.37 Q907.997 1517.37 906.169 1520.93 Q904.363 1524.47 904.363 1531.6 Q904.363 1538.71 906.169 1542.27 Q907.997 1545.82 911.609 1545.82 Q915.243 1545.82 917.048 1542.27 Q918.877 1538.71 918.877 1531.6 Q918.877 1524.47 917.048 1520.93 Q915.243 1517.37 911.609 1517.37 M911.609 1513.66 Q917.419 1513.66 920.474 1518.27 Q923.553 1522.85 923.553 1531.6 Q923.553 1540.33 920.474 1544.94 Q917.419 1549.52 911.609 1549.52 Q905.798 1549.52 902.72 1544.94 Q899.664 1540.33 899.664 1531.6 Q899.664 1522.85 902.72 1518.27 Q905.798 1513.66 911.609 1513.66 Z" fill="#000000" fill-rule="nonzero" fill-opacity="1" /><path clip-path="url(#clip130)" d="M1110.49 1532.44 Q1107.16 1532.44 1105.24 1534.22 Q1103.34 1536 1103.34 1539.13 Q1103.34 1542.25 1105.24 1544.03 Q1107.16 1545.82 1110.49 1545.82 Q1113.83 1545.82 1115.75 1544.03 Q1117.67 1542.23 1117.67 1539.13 Q1117.67 1536 1115.75 1534.22 Q1113.85 1532.44 1110.49 1532.44 M1105.82 1530.45 Q1102.81 1529.7 1101.12 1527.64 Q1099.45 1525.58 1099.45 1522.62 Q1099.45 1518.48 1102.39 1516.07 Q1105.35 1513.66 1110.49 1513.66 Q1115.65 1513.66 1118.59 1516.07 Q1121.53 1518.48 1121.53 1522.62 Q1121.53 1525.58 1119.84 1527.64 Q1118.18 1529.7 1115.19 1530.45 Q1118.57 1531.23 1120.45 1533.52 Q1122.34 1535.82 1122.34 1539.13 Q1122.34 1544.15 1119.27 1546.83 Q1116.21 1549.52 1110.49 1549.52 Q1104.77 1549.52 1101.7 1546.83 Q1098.64 1544.15 1098.64 1539.13 Q1098.64 1535.82 1100.54 1533.52 Q1102.44 1531.23 1105.82 1530.45 M1104.1 1523.06 Q1104.1 1525.75 1105.77 1527.25 Q1107.46 1528.76 1110.49 1528.76 Q1113.5 1528.76 1115.19 1527.25 Q1116.9 1525.75 1116.9 1523.06 Q1116.9 1520.38 1115.19 1518.87 Q1113.5 1517.37 1110.49 1517.37 Q1107.46 1517.37 1105.77 1518.87 Q1104.1 1520.38 1104.1 1523.06 Z" fill="#000000" fill-rule="nonzero" fill-opacity="1" /><path clip-path="url(#clip130)" d="M1140.65 1517.37 Q1137.04 1517.37 1135.21 1520.93 Q1133.41 1524.47 1133.41 1531.6 Q1133.41 1538.71 1135.21 1542.27 Q1137.04 1545.82 1140.65 1545.82 Q1144.29 1545.82 1146.09 1542.27 Q1147.92 1538.71 1147.92 1531.6 Q1147.92 1524.47 1146.09 1520.93 Q1144.29 1517.37 1140.65 1517.37 M1140.65 1513.66 Q1146.46 1513.66 1149.52 1518.27 Q1152.6 1522.85 1152.6 1531.6 Q1152.6 1540.33 1149.52 1544.94 Q1146.46 1549.52 1140.65 1549.52 Q1134.84 1549.52 1131.77 1544.94 Q1128.71 1540.33 1128.71 1531.6 Q1128.71 1522.85 1131.77 1518.27 Q1134.84 1513.66 1140.65 1513.66 Z" fill="#000000" fill-rule="nonzero" fill-opacity="1" /><polyline clip-path="url(#clip130)" style="stroke:#000000; stroke-linecap:round; stroke-linejoin:round; stroke-width:4; stroke-opacity:1; fill:none" points="193.936,1486.45 193.936,47.2441 "/>
<polyline clip-path="url(#clip130)" style="stroke:#000000; stroke-linecap:round; stroke-linejoin:round; stroke-width:4; stroke-opacity:1; fill:none" points="193.936,1479.45 212.834,1479.45 "/>
<polyline clip-path="url(#clip130)" style="stroke:#000000; stroke-linecap:round; stroke-linejoin:round; stroke-width:4; stroke-opacity:1; fill:none" points="193.936,1208.92 212.834,1208.92 "/>
<polyline clip-path="url(#clip130)" style="stroke:#000000; stroke-linecap:round; stroke-linejoin:round; stroke-width:4; stroke-opacity:1; fill:none" points="193.936,938.389 212.834,938.389 "/>
<polyline clip-path="url(#clip130)" style="stroke:#000000; stroke-linecap:round; stroke-linejoin:round; stroke-width:4; stroke-opacity:1; fill:none" points="193.936,667.859 212.834,667.859 "/>
<polyline clip-path="url(#clip130)" style="stroke:#000000; stroke-linecap:round; stroke-linejoin:round; stroke-width:4; stroke-opacity:1; fill:none" points="193.936,397.33 212.834,397.33 "/>
<polyline clip-path="url(#clip130)" style="stroke:#000000; stroke-linecap:round; stroke-linejoin:round; stroke-width:4; stroke-opacity:1; fill:none" points="193.936,126.8 212.834,126.8 "/>
<path clip-path="url(#clip130)" d="M51.9875 1479.9 L81.6633 1479.9 L81.6633 1483.83 L51.9875 1483.83 L51.9875 1479.9 Z" fill="#000000" fill-rule="nonzero" fill-opacity="1" /><path clip-path="url(#clip130)" d="M92.566 1492.79 L100.205 1492.79 L100.205 1466.43 L91.8947 1468.09 L91.8947 1463.83 L100.159 1462.17 L104.834 1462.17 L104.834 1492.79 L112.473 1492.79 L112.473 1496.73 L92.566 1496.73 L92.566 1492.79 Z" fill="#000000" fill-rule="nonzero" fill-opacity="1" /><path clip-path="url(#clip130)" d="M121.918 1490.85 L126.802 1490.85 L126.802 1496.73 L121.918 1496.73 L121.918 1490.85 Z" fill="#000000" fill-rule="nonzero" fill-opacity="1" /><path clip-path="url(#clip130)" d="M137.033 1462.17 L155.39 1462.17 L155.39 1466.1 L141.316 1466.1 L141.316 1474.57 Q142.334 1474.23 143.353 1474.07 Q144.371 1473.88 145.39 1473.88 Q151.177 1473.88 154.556 1477.05 Q157.936 1480.22 157.936 1485.64 Q157.936 1491.22 154.464 1494.32 Q150.992 1497.4 144.672 1497.4 Q142.496 1497.4 140.228 1497.03 Q137.982 1496.66 135.575 1495.92 L135.575 1491.22 Q137.658 1492.35 139.881 1492.91 Q142.103 1493.46 144.58 1493.46 Q148.584 1493.46 150.922 1491.36 Q153.26 1489.25 153.26 1485.64 Q153.26 1482.03 150.922 1479.92 Q148.584 1477.82 144.58 1477.82 Q142.705 1477.82 140.83 1478.23 Q138.978 1478.65 137.033 1479.53 L137.033 1462.17 Z" fill="#000000" fill-rule="nonzero" fill-opacity="1" /><path clip-path="url(#clip130)" d="M50.9921 1209.37 L80.6679 1209.37 L80.6679 1213.3 L50.9921 1213.3 L50.9921 1209.37 Z" fill="#000000" fill-rule="nonzero" fill-opacity="1" /><path clip-path="url(#clip130)" d="M91.5706 1222.26 L99.2095 1222.26 L99.2095 1195.9 L90.8993 1197.56 L90.8993 1193.3 L99.1632 1191.64 L103.839 1191.64 L103.839 1222.26 L111.478 1222.26 L111.478 1226.2 L91.5706 1226.2 L91.5706 1222.26 Z" fill="#000000" fill-rule="nonzero" fill-opacity="1" /><path clip-path="url(#clip130)" d="M120.922 1220.32 L125.807 1220.32 L125.807 1226.2 L120.922 1226.2 L120.922 1220.32 Z" fill="#000000" fill-rule="nonzero" fill-opacity="1" /><path clip-path="url(#clip130)" d="M145.992 1194.72 Q142.381 1194.72 140.552 1198.28 Q138.746 1201.82 138.746 1208.95 Q138.746 1216.06 140.552 1219.62 Q142.381 1223.17 145.992 1223.17 Q149.626 1223.17 151.431 1219.62 Q153.26 1216.06 153.26 1208.95 Q153.26 1201.82 151.431 1198.28 Q149.626 1194.72 145.992 1194.72 M145.992 1191.01 Q151.802 1191.01 154.857 1195.62 Q157.936 1200.2 157.936 1208.95 Q157.936 1217.68 154.857 1222.29 Q151.802 1226.87 145.992 1226.87 Q140.181 1226.87 137.103 1222.29 Q134.047 1217.68 134.047 1208.95 Q134.047 1200.2 137.103 1195.62 Q140.181 1191.01 145.992 1191.01 Z" fill="#000000" fill-rule="nonzero" fill-opacity="1" /><path clip-path="url(#clip130)" d="M51.9875 938.84 L81.6633 938.84 L81.6633 942.775 L51.9875 942.775 L51.9875 938.84 Z" fill="#000000" fill-rule="nonzero" fill-opacity="1" /><path clip-path="url(#clip130)" d="M101.756 924.187 Q98.1447 924.187 96.316 927.752 Q94.5104 931.294 94.5104 938.423 Q94.5104 945.53 96.316 949.095 Q98.1447 952.636 101.756 952.636 Q105.39 952.636 107.196 949.095 Q109.024 945.53 109.024 938.423 Q109.024 931.294 107.196 927.752 Q105.39 924.187 101.756 924.187 M101.756 920.484 Q107.566 920.484 110.621 925.09 Q113.7 929.673 113.7 938.423 Q113.7 947.15 110.621 951.757 Q107.566 956.34 101.756 956.34 Q95.9456 956.34 92.8669 951.757 Q89.8114 947.15 89.8114 938.423 Q89.8114 929.673 92.8669 925.09 Q95.9456 920.484 101.756 920.484 Z" fill="#000000" fill-rule="nonzero" fill-opacity="1" /><path clip-path="url(#clip130)" d="M121.918 949.789 L126.802 949.789 L126.802 955.669 L121.918 955.669 L121.918 949.789 Z" fill="#000000" fill-rule="nonzero" fill-opacity="1" /><path clip-path="url(#clip130)" d="M137.033 921.109 L155.39 921.109 L155.39 925.044 L141.316 925.044 L141.316 933.516 Q142.334 933.169 143.353 933.007 Q144.371 932.822 145.39 932.822 Q151.177 932.822 154.556 935.993 Q157.936 939.164 157.936 944.581 Q157.936 950.159 154.464 953.261 Q150.992 956.34 144.672 956.34 Q142.496 956.34 140.228 955.97 Q137.982 955.599 135.575 954.858 L135.575 950.159 Q137.658 951.294 139.881 951.849 Q142.103 952.405 144.58 952.405 Q148.584 952.405 150.922 950.298 Q153.26 948.192 153.26 944.581 Q153.26 940.97 150.922 938.863 Q148.584 936.757 144.58 936.757 Q142.705 936.757 140.83 937.173 Q138.978 937.59 137.033 938.47 L137.033 921.109 Z" fill="#000000" fill-rule="nonzero" fill-opacity="1" /><path clip-path="url(#clip130)" d="M100.76 653.658 Q97.1493 653.658 95.3206 657.223 Q93.515 660.764 93.515 667.894 Q93.515 675 95.3206 678.565 Q97.1493 682.107 100.76 682.107 Q104.395 682.107 106.2 678.565 Q108.029 675 108.029 667.894 Q108.029 660.764 106.2 657.223 Q104.395 653.658 100.76 653.658 M100.76 649.954 Q106.571 649.954 109.626 654.561 Q112.705 659.144 112.705 667.894 Q112.705 676.621 109.626 681.227 Q106.571 685.81 100.76 685.81 Q94.9502 685.81 91.8715 681.227 Q88.816 676.621 88.816 667.894 Q88.816 659.144 91.8715 654.561 Q94.9502 649.954 100.76 649.954 Z" fill="#000000" fill-rule="nonzero" fill-opacity="1" /><path clip-path="url(#clip130)" d="M120.922 679.26 L125.807 679.26 L125.807 685.139 L120.922 685.139 L120.922 679.26 Z" fill="#000000" fill-rule="nonzero" fill-opacity="1" /><path clip-path="url(#clip130)" d="M145.992 653.658 Q142.381 653.658 140.552 657.223 Q138.746 660.764 138.746 667.894 Q138.746 675 140.552 678.565 Q142.381 682.107 145.992 682.107 Q149.626 682.107 151.431 678.565 Q153.26 675 153.26 667.894 Q153.26 660.764 151.431 657.223 Q149.626 653.658 145.992 653.658 M145.992 649.954 Q151.802 649.954 154.857 654.561 Q157.936 659.144 157.936 667.894 Q157.936 676.621 154.857 681.227 Q151.802 685.81 145.992 685.81 Q140.181 685.81 137.103 681.227 Q134.047 676.621 134.047 667.894 Q134.047 659.144 137.103 654.561 Q140.181 649.954 145.992 649.954 Z" fill="#000000" fill-rule="nonzero" fill-opacity="1" /><path clip-path="url(#clip130)" d="M101.756 383.128 Q98.1447 383.128 96.316 386.693 Q94.5104 390.235 94.5104 397.364 Q94.5104 404.471 96.316 408.036 Q98.1447 411.577 101.756 411.577 Q105.39 411.577 107.196 408.036 Q109.024 404.471 109.024 397.364 Q109.024 390.235 107.196 386.693 Q105.39 383.128 101.756 383.128 M101.756 379.425 Q107.566 379.425 110.621 384.031 Q113.7 388.614 113.7 397.364 Q113.7 406.091 110.621 410.698 Q107.566 415.281 101.756 415.281 Q95.9456 415.281 92.8669 410.698 Q89.8114 406.091 89.8114 397.364 Q89.8114 388.614 92.8669 384.031 Q95.9456 379.425 101.756 379.425 Z" fill="#000000" fill-rule="nonzero" fill-opacity="1" /><path clip-path="url(#clip130)" d="M121.918 408.73 L126.802 408.73 L126.802 414.61 L121.918 414.61 L121.918 408.73 Z" fill="#000000" fill-rule="nonzero" fill-opacity="1" /><path clip-path="url(#clip130)" d="M137.033 380.05 L155.39 380.05 L155.39 383.985 L141.316 383.985 L141.316 392.457 Q142.334 392.11 143.353 391.948 Q144.371 391.763 145.39 391.763 Q151.177 391.763 154.556 394.934 Q157.936 398.105 157.936 403.522 Q157.936 409.1 154.464 412.202 Q150.992 415.281 144.672 415.281 Q142.496 415.281 140.228 414.911 Q137.982 414.54 135.575 413.8 L135.575 409.1 Q137.658 410.235 139.881 410.79 Q142.103 411.346 144.58 411.346 Q148.584 411.346 150.922 409.239 Q153.26 407.133 153.26 403.522 Q153.26 399.911 150.922 397.804 Q148.584 395.698 144.58 395.698 Q142.705 395.698 140.83 396.114 Q138.978 396.531 137.033 397.411 L137.033 380.05 Z" fill="#000000" fill-rule="nonzero" fill-opacity="1" /><path clip-path="url(#clip130)" d="M91.5706 140.145 L99.2095 140.145 L99.2095 113.779 L90.8993 115.446 L90.8993 111.187 L99.1632 109.52 L103.839 109.52 L103.839 140.145 L111.478 140.145 L111.478 144.08 L91.5706 144.08 L91.5706 140.145 Z" fill="#000000" fill-rule="nonzero" fill-opacity="1" /><path clip-path="url(#clip130)" d="M120.922 138.201 L125.807 138.201 L125.807 144.08 L120.922 144.08 L120.922 138.201 Z" fill="#000000" fill-rule="nonzero" fill-opacity="1" /><path clip-path="url(#clip130)" d="M145.992 112.599 Q142.381 112.599 140.552 116.164 Q138.746 119.705 138.746 126.835 Q138.746 133.941 140.552 137.506 Q142.381 141.048 145.992 141.048 Q149.626 141.048 151.431 137.506 Q153.26 133.941 153.26 126.835 Q153.26 119.705 151.431 116.164 Q149.626 112.599 145.992 112.599 M145.992 108.895 Q151.802 108.895 154.857 113.502 Q157.936 118.085 157.936 126.835 Q157.936 135.562 154.857 140.168 Q151.802 144.752 145.992 144.752 Q140.181 144.752 137.103 140.168 Q134.047 135.562 134.047 126.835 Q134.047 118.085 137.103 113.502 Q140.181 108.895 145.992 108.895 Z" fill="#000000" fill-rule="nonzero" fill-opacity="1" /><polyline clip-path="url(#clip132)" style="stroke:#009af9; stroke-linecap:round; stroke-linejoin:round; stroke-width:4; stroke-opacity:1; fill:none" points="221.072,779.056 232.522,663.178 243.972,563.413 255.422,629.882 266.872,655.871 278.322,614.868 289.772,538.641 301.222,644.783 312.672,601.143 324.122,564.783 335.572,583.961 347.022,613.481 358.472,641.841 369.922,621.024 381.372,688.185 392.822,636.703 404.272,632.351 415.722,655.632 427.172,581.621 438.622,588.778 450.072,489.171 461.522,448.06 472.972,349.876 484.422,286.677 495.872,147.394 507.321,162.903 518.771,232.811 530.221,290.223 541.671,233.131 553.121,260.724 564.571,278.442 576.021,377.149 587.471,356.514 598.921,349.469 610.371,362.977 621.821,430.435 633.271,411.219 644.721,482.46 656.171,504.285 667.621,630.541 679.071,562.854 690.521,630.628 701.971,670.945 713.421,708.151 724.871,698.132 736.321,730.547 747.771,779.363 759.221,735.499 770.671,715.74 782.121,764.175 793.571,898.073 805.021,975.831 816.47,1015.56 827.92,1034.66 839.37,1086.82 850.82,1085.59 862.27,1047.57 873.72,1019.65 885.17,1010.78 896.62,1032.89 908.07,1079.42 919.52,1124.86 930.97,1213.62 942.42,1227.05 953.87,1190.18 965.32,1144.31 976.77,1163.62 988.22,1141.37 999.67,1155.51 1011.12,1235.28 1022.57,1344.18 1034.02,1303.35 1045.47,1319.88 1056.92,1280.51 1068.37,1252.05 1079.82,1239.72 1091.27,1222.87 1102.72,1176.93 1114.17,977.977 1125.62,872.482 "/>
<polyline clip-path="url(#clip132)" style="stroke:#e26f46; stroke-linecap:round; stroke-linejoin:round; stroke-width:4; stroke-opacity:1; fill:none" points="221.072,819.781 232.522,704.434 243.972,602.192 255.422,668.217 266.872,694.626 278.322,661.95 289.772,589.569 301.222,695.041 312.672,652.892 324.122,619.954 335.572,635.893 347.022,667.749 358.472,686.319 369.922,659.487 381.372,715.075 392.822,657.788 404.272,646.282 415.722,657.769 427.172,575.47 438.622,580.768 450.072,476.815 461.522,424.803 472.972,327.818 484.422,268.199 495.872,131.21 507.321,142.984 518.771,214.273 530.221,277.882 541.671,222.818 553.121,246.847 564.571,264.714 576.021,366.711 587.471,343.046 598.921,344.101 610.371,355.065 621.821,426.518 633.271,410.498 644.721,480.182 656.171,501.491 667.621,615.98 679.071,547.571 690.521,607.047 701.971,654.393 713.421,686.428 724.871,673.057 736.321,710.89 747.771,763.804 759.221,721.855 770.671,694.84 782.121,743.759 793.571,880.313 805.021,956.562 816.47,990.968 827.92,1006.57 839.37,1059.5 850.82,1062.31 862.27,1022.22 873.72,992.707 885.17,978.261 896.62,999.922 908.07,1039.58 919.52,1081 930.97,1177.03 942.42,1186.4 953.87,1146.91 965.32,1100.11 976.77,1117.69 988.22,1098.34 999.67,1109.26 1011.12,1190.24 1022.57,1295.06 1034.02,1261.69 1045.47,1285.52 1056.92,1247.54 1068.37,1209.38 1079.82,1196 1091.27,1189.12 1102.72,1141.15 1114.17,932.077 1125.62,826.051 "/>
<polyline clip-path="url(#clip132)" style="stroke:#3da44d; stroke-linecap:round; stroke-linejoin:round; stroke-width:4; stroke-opacity:1; fill:none" points="221.072,565.097 232.522,436.303 243.972,370.631 255.422,326.597 266.872,354.499 278.322,394.206 289.772,327.969 301.222,454.286 312.672,410.312 324.122,398.474 335.572,351.548 347.022,353.034 358.472,381.753 369.922,366.865 381.372,490.027 392.822,480.549 404.272,581.793 415.722,541.128 427.172,502.911 438.622,526.656 450.072,445.341 461.522,381.301 472.972,240.235 484.422,195.056 495.872,87.9763 507.321,143.704 518.771,245.765 530.221,336.28 541.671,191.327 553.121,289.811 564.571,384.289 576.021,401.929 587.471,410.706 598.921,366.837 610.371,311.08 621.821,384.821 633.271,280.761 644.721,311.21 656.171,401.459 667.621,510.682 679.071,462.614 690.521,578.34 701.971,577.24 713.421,677.106 724.871,647.581 736.321,728.779 747.771,906.194 759.221,861.292 770.671,860.017 782.121,844.937 793.571,963.16 805.021,1078.28 816.47,1086.13 827.92,1051.67 839.37,1059.51 850.82,1092.24 862.27,1031.63 873.72,1070.83 885.17,1008.69 896.62,1031.61 908.07,1096.21 919.52,1163.74 930.97,1182.5 942.42,1337.66 953.87,1262.16 965.32,1247.93 976.77,1301.62 988.22,1258.04 999.67,1236.85 1011.12,1389.84 1022.57,1434.16 1034.02,1394.54 1045.47,1402.14 1056.92,1357.36 1068.37,1417.98 1079.82,1445.72 1091.27,1443.61 1102.72,1428.2 1114.17,1197.79 1125.62,1158.49 "/>
<path clip-path="url(#clip130)" d="M663.249 302.578 L1120.8 302.578 L1120.8 95.2176 L663.249 95.2176  Z" fill="#ffffff" fill-rule="evenodd" fill-opacity="1"/>
<polyline clip-path="url(#clip130)" style="stroke:#000000; stroke-linecap:round; stroke-linejoin:round; stroke-width:4; stroke-opacity:1; fill:none" points="663.249,302.578 1120.8,302.578 1120.8,95.2176 663.249,95.2176 663.249,302.578 "/>
<polyline clip-path="url(#clip130)" style="stroke:#009af9; stroke-linecap:round; stroke-linejoin:round; stroke-width:4; stroke-opacity:1; fill:none" points="673.902,147.058 737.823,147.058 "/>
<path clip-path="url(#clip130)" d="M748.477 129.778 L753.153 129.778 L753.153 144.384 L768.662 129.778 L774.681 129.778 L757.528 145.889 L775.907 164.338 L769.75 164.338 L753.153 147.694 L753.153 164.338 L748.477 164.338 L748.477 129.778 Z" fill="#000000" fill-rule="nonzero" fill-opacity="1" /><path clip-path="url(#clip130)" d="M790.329 151.305 Q785.167 151.305 783.176 152.486 Q781.185 153.666 781.185 156.514 Q781.185 158.782 782.667 160.125 Q784.171 161.444 786.741 161.444 Q790.282 161.444 792.412 158.944 Q794.565 156.421 794.565 152.254 L794.565 151.305 L790.329 151.305 M798.824 149.546 L798.824 164.338 L794.565 164.338 L794.565 160.402 Q793.106 162.763 790.93 163.898 Q788.755 165.009 785.606 165.009 Q781.625 165.009 779.264 162.787 Q776.926 160.541 776.926 156.791 Q776.926 152.416 779.843 150.194 Q782.782 147.972 788.592 147.972 L794.565 147.972 L794.565 147.555 Q794.565 144.615 792.62 143.018 Q790.699 141.398 787.204 141.398 Q784.981 141.398 782.875 141.93 Q780.768 142.463 778.824 143.527 L778.824 139.592 Q781.162 138.69 783.361 138.25 Q785.56 137.787 787.643 137.787 Q793.268 137.787 796.046 140.703 Q798.824 143.62 798.824 149.546 Z" fill="#000000" fill-rule="nonzero" fill-opacity="1" /><path clip-path="url(#clip130)" d="M807.597 128.319 L811.856 128.319 L811.856 164.338 L807.597 164.338 L807.597 128.319 Z" fill="#000000" fill-rule="nonzero" fill-opacity="1" /><path clip-path="url(#clip130)" d="M840.953 143.389 Q842.551 140.518 844.773 139.153 Q846.995 137.787 850.004 137.787 Q854.055 137.787 856.254 140.634 Q858.453 143.458 858.453 148.689 L858.453 164.338 L854.171 164.338 L854.171 148.828 Q854.171 145.102 852.851 143.296 Q851.532 141.49 848.824 141.49 Q845.513 141.49 843.592 143.69 Q841.671 145.889 841.671 149.685 L841.671 164.338 L837.389 164.338 L837.389 148.828 Q837.389 145.078 836.069 143.296 Q834.75 141.49 831.995 141.49 Q828.731 141.49 826.81 143.713 Q824.889 145.912 824.889 149.685 L824.889 164.338 L820.606 164.338 L820.606 138.412 L824.889 138.412 L824.889 142.44 Q826.347 140.055 828.384 138.921 Q830.421 137.787 833.222 137.787 Q836.046 137.787 838.014 139.222 Q840.004 140.657 840.953 143.389 Z" fill="#000000" fill-rule="nonzero" fill-opacity="1" /><path clip-path="url(#clip130)" d="M878.731 151.305 Q873.569 151.305 871.578 152.486 Q869.587 153.666 869.587 156.514 Q869.587 158.782 871.069 160.125 Q872.574 161.444 875.143 161.444 Q878.685 161.444 880.814 158.944 Q882.967 156.421 882.967 152.254 L882.967 151.305 L878.731 151.305 M887.226 149.546 L887.226 164.338 L882.967 164.338 L882.967 160.402 Q881.509 162.763 879.333 163.898 Q877.157 165.009 874.009 165.009 Q870.027 165.009 867.666 162.787 Q865.328 160.541 865.328 156.791 Q865.328 152.416 868.245 150.194 Q871.185 147.972 876.995 147.972 L882.967 147.972 L882.967 147.555 Q882.967 144.615 881.023 143.018 Q879.101 141.398 875.606 141.398 Q873.384 141.398 871.277 141.93 Q869.171 142.463 867.226 143.527 L867.226 139.592 Q869.564 138.69 871.763 138.25 Q873.962 137.787 876.046 137.787 Q881.671 137.787 884.448 140.703 Q887.226 143.62 887.226 149.546 Z" fill="#000000" fill-rule="nonzero" fill-opacity="1" /><path clip-path="url(#clip130)" d="M917.55 148.689 L917.55 164.338 L913.291 164.338 L913.291 148.828 Q913.291 145.148 911.856 143.319 Q910.421 141.49 907.55 141.49 Q904.101 141.49 902.11 143.69 Q900.12 145.889 900.12 149.685 L900.12 164.338 L895.837 164.338 L895.837 138.412 L900.12 138.412 L900.12 142.44 Q901.647 140.102 903.708 138.944 Q905.791 137.787 908.499 137.787 Q912.967 137.787 915.258 140.565 Q917.55 143.319 917.55 148.689 Z" fill="#000000" fill-rule="nonzero" fill-opacity="1" /><path clip-path="url(#clip130)" d="M957.643 139.176 L957.643 143.203 Q955.837 142.277 953.893 141.815 Q951.948 141.352 949.865 141.352 Q946.693 141.352 945.096 142.324 Q943.522 143.296 943.522 145.24 Q943.522 146.722 944.656 147.578 Q945.791 148.412 949.217 149.176 L950.675 149.5 Q955.212 150.472 957.11 152.254 Q959.031 154.014 959.031 157.185 Q959.031 160.796 956.161 162.902 Q953.314 165.009 948.314 165.009 Q946.231 165.009 943.962 164.592 Q941.717 164.199 939.217 163.388 L939.217 158.99 Q941.578 160.217 943.869 160.842 Q946.161 161.444 948.406 161.444 Q951.416 161.444 953.036 160.426 Q954.656 159.384 954.656 157.509 Q954.656 155.773 953.476 154.847 Q952.318 153.921 948.36 153.064 L946.879 152.717 Q942.92 151.884 941.161 150.171 Q939.402 148.435 939.402 145.426 Q939.402 141.768 941.994 139.778 Q944.587 137.787 949.356 137.787 Q951.717 137.787 953.8 138.134 Q955.883 138.481 957.643 139.176 Z" fill="#000000" fill-rule="nonzero" fill-opacity="1" /><path clip-path="url(#clip130)" d="M985.999 143.389 Q987.596 140.518 989.818 139.153 Q992.04 137.787 995.05 137.787 Q999.101 137.787 1001.3 140.634 Q1003.5 143.458 1003.5 148.689 L1003.5 164.338 L999.216 164.338 L999.216 148.828 Q999.216 145.102 997.897 143.296 Q996.577 141.49 993.869 141.49 Q990.559 141.49 988.638 143.69 Q986.716 145.889 986.716 149.685 L986.716 164.338 L982.434 164.338 L982.434 148.828 Q982.434 145.078 981.115 143.296 Q979.795 141.49 977.041 141.49 Q973.777 141.49 971.855 143.713 Q969.934 145.912 969.934 149.685 L969.934 164.338 L965.652 164.338 L965.652 138.412 L969.934 138.412 L969.934 142.44 Q971.392 140.055 973.429 138.921 Q975.466 137.787 978.267 137.787 Q981.091 137.787 983.059 139.222 Q985.05 140.657 985.999 143.389 Z" fill="#000000" fill-rule="nonzero" fill-opacity="1" /><path clip-path="url(#clip130)" d="M1022.04 141.398 Q1018.61 141.398 1016.62 144.083 Q1014.63 146.745 1014.63 151.398 Q1014.63 156.051 1016.6 158.736 Q1018.59 161.398 1022.04 161.398 Q1025.44 161.398 1027.43 158.713 Q1029.42 156.027 1029.42 151.398 Q1029.42 146.791 1027.43 144.106 Q1025.44 141.398 1022.04 141.398 M1022.04 137.787 Q1027.6 137.787 1030.77 141.398 Q1033.94 145.009 1033.94 151.398 Q1033.94 157.764 1030.77 161.398 Q1027.6 165.009 1022.04 165.009 Q1016.46 165.009 1013.29 161.398 Q1010.14 157.764 1010.14 151.398 Q1010.14 145.009 1013.29 141.398 Q1016.46 137.787 1022.04 137.787 Z" fill="#000000" fill-rule="nonzero" fill-opacity="1" /><path clip-path="url(#clip130)" d="M1051.04 141.398 Q1047.62 141.398 1045.63 144.083 Q1043.64 146.745 1043.64 151.398 Q1043.64 156.051 1045.6 158.736 Q1047.6 161.398 1051.04 161.398 Q1054.45 161.398 1056.44 158.713 Q1058.43 156.027 1058.43 151.398 Q1058.43 146.791 1056.44 144.106 Q1054.45 141.398 1051.04 141.398 M1051.04 137.787 Q1056.6 137.787 1059.77 141.398 Q1062.94 145.009 1062.94 151.398 Q1062.94 157.764 1059.77 161.398 Q1056.6 165.009 1051.04 165.009 Q1045.47 165.009 1042.29 161.398 Q1039.15 157.764 1039.15 151.398 Q1039.15 145.009 1042.29 141.398 Q1045.47 137.787 1051.04 137.787 Z" fill="#000000" fill-rule="nonzero" fill-opacity="1" /><path clip-path="url(#clip130)" d="M1074.22 131.051 L1074.22 138.412 L1082.99 138.412 L1082.99 141.722 L1074.22 141.722 L1074.22 155.796 Q1074.22 158.967 1075.07 159.87 Q1075.95 160.773 1078.61 160.773 L1082.99 160.773 L1082.99 164.338 L1078.61 164.338 Q1073.68 164.338 1071.81 162.509 Q1069.93 160.657 1069.93 155.796 L1069.93 141.722 L1066.81 141.722 L1066.81 138.412 L1069.93 138.412 L1069.93 131.051 L1074.22 131.051 Z" fill="#000000" fill-rule="nonzero" fill-opacity="1" /><path clip-path="url(#clip130)" d="M1110.14 148.689 L1110.14 164.338 L1105.88 164.338 L1105.88 148.828 Q1105.88 145.148 1104.45 143.319 Q1103.01 141.49 1100.14 141.49 Q1096.69 141.49 1094.7 143.69 Q1092.71 145.889 1092.71 149.685 L1092.71 164.338 L1088.43 164.338 L1088.43 128.319 L1092.71 128.319 L1092.71 142.44 Q1094.24 140.102 1096.3 138.944 Q1098.38 137.787 1101.09 137.787 Q1105.56 137.787 1107.85 140.565 Q1110.14 143.319 1110.14 148.689 Z" fill="#000000" fill-rule="nonzero" fill-opacity="1" /><polyline clip-path="url(#clip130)" style="stroke:#e26f46; stroke-linecap:round; stroke-linejoin:round; stroke-width:4; stroke-opacity:1; fill:none" points="673.902,198.898 737.823,198.898 "/>
<path clip-path="url(#clip130)" d="M752.759 212.289 L752.759 226.039 L748.477 226.039 L748.477 190.252 L752.759 190.252 L752.759 194.187 Q754.102 191.872 756.139 190.761 Q758.199 189.627 761.046 189.627 Q765.769 189.627 768.708 193.377 Q771.671 197.127 771.671 203.238 Q771.671 209.349 768.708 213.099 Q765.769 216.849 761.046 216.849 Q758.199 216.849 756.139 215.738 Q754.102 214.603 752.759 212.289 M767.25 203.238 Q767.25 198.539 765.306 195.877 Q763.384 193.192 760.005 193.192 Q756.625 193.192 754.681 195.877 Q752.759 198.539 752.759 203.238 Q752.759 207.937 754.681 210.622 Q756.625 213.284 760.005 213.284 Q763.384 213.284 765.306 210.622 Q767.25 207.937 767.25 203.238 Z" fill="#000000" fill-rule="nonzero" fill-opacity="1" /><path clip-path="url(#clip130)" d="M791.856 180.159 L791.856 183.701 L787.782 183.701 Q785.491 183.701 784.588 184.627 Q783.708 185.553 783.708 187.96 L783.708 190.252 L790.722 190.252 L790.722 193.562 L783.708 193.562 L783.708 216.178 L779.426 216.178 L779.426 193.562 L775.352 193.562 L775.352 190.252 L779.426 190.252 L779.426 188.446 Q779.426 184.118 781.44 182.15 Q783.454 180.159 787.829 180.159 L791.856 180.159 Z" fill="#000000" fill-rule="nonzero" fill-opacity="1" /><path clip-path="url(#clip130)" d="M827.018 191.016 L827.018 195.043 Q825.213 194.117 823.268 193.655 Q821.324 193.192 819.24 193.192 Q816.069 193.192 814.472 194.164 Q812.898 195.136 812.898 197.08 Q812.898 198.562 814.032 199.418 Q815.166 200.252 818.592 201.016 L820.051 201.34 Q824.588 202.312 826.486 204.094 Q828.407 205.854 828.407 209.025 Q828.407 212.636 825.537 214.742 Q822.69 216.849 817.69 216.849 Q815.606 216.849 813.338 216.432 Q811.092 216.039 808.592 215.228 L808.592 210.83 Q810.953 212.057 813.245 212.682 Q815.537 213.284 817.782 213.284 Q820.791 213.284 822.412 212.266 Q824.032 211.224 824.032 209.349 Q824.032 207.613 822.852 206.687 Q821.694 205.761 817.736 204.904 L816.254 204.557 Q812.296 203.724 810.537 202.011 Q808.778 200.275 808.778 197.266 Q808.778 193.608 811.37 191.618 Q813.963 189.627 818.731 189.627 Q821.092 189.627 823.176 189.974 Q825.259 190.321 827.018 191.016 Z" fill="#000000" fill-rule="nonzero" fill-opacity="1" /><path clip-path="url(#clip130)" d="M855.375 195.229 Q856.972 192.358 859.194 190.993 Q861.416 189.627 864.425 189.627 Q868.476 189.627 870.675 192.474 Q872.874 195.298 872.874 200.529 L872.874 216.178 L868.592 216.178 L868.592 200.668 Q868.592 196.942 867.273 195.136 Q865.953 193.33 863.245 193.33 Q859.935 193.33 858.013 195.53 Q856.092 197.729 856.092 201.525 L856.092 216.178 L851.81 216.178 L851.81 200.668 Q851.81 196.918 850.49 195.136 Q849.171 193.33 846.416 193.33 Q843.152 193.33 841.231 195.553 Q839.31 197.752 839.31 201.525 L839.31 216.178 L835.027 216.178 L835.027 190.252 L839.31 190.252 L839.31 194.28 Q840.768 191.895 842.805 190.761 Q844.842 189.627 847.643 189.627 Q850.467 189.627 852.435 191.062 Q854.425 192.497 855.375 195.229 Z" fill="#000000" fill-rule="nonzero" fill-opacity="1" /><path clip-path="url(#clip130)" d="M891.416 193.238 Q887.99 193.238 885.999 195.923 Q884.009 198.585 884.009 203.238 Q884.009 207.891 885.976 210.576 Q887.967 213.238 891.416 213.238 Q894.819 213.238 896.809 210.553 Q898.8 207.867 898.8 203.238 Q898.8 198.631 896.809 195.946 Q894.819 193.238 891.416 193.238 M891.416 189.627 Q896.972 189.627 900.143 193.238 Q903.314 196.849 903.314 203.238 Q903.314 209.604 900.143 213.238 Q896.972 216.849 891.416 216.849 Q885.837 216.849 882.666 213.238 Q879.518 209.604 879.518 203.238 Q879.518 196.849 882.666 193.238 Q885.837 189.627 891.416 189.627 Z" fill="#000000" fill-rule="nonzero" fill-opacity="1" /><path clip-path="url(#clip130)" d="M920.42 193.238 Q916.995 193.238 915.004 195.923 Q913.013 198.585 913.013 203.238 Q913.013 207.891 914.981 210.576 Q916.971 213.238 920.42 213.238 Q923.823 213.238 925.814 210.553 Q927.805 207.867 927.805 203.238 Q927.805 198.631 925.814 195.946 Q923.823 193.238 920.42 193.238 M920.42 189.627 Q925.976 189.627 929.147 193.238 Q932.319 196.849 932.319 203.238 Q932.319 209.604 929.147 213.238 Q925.976 216.849 920.42 216.849 Q914.842 216.849 911.671 213.238 Q908.522 209.604 908.522 203.238 Q908.522 196.849 911.671 193.238 Q914.842 189.627 920.42 189.627 Z" fill="#000000" fill-rule="nonzero" fill-opacity="1" /><path clip-path="url(#clip130)" d="M943.592 182.891 L943.592 190.252 L952.365 190.252 L952.365 193.562 L943.592 193.562 L943.592 207.636 Q943.592 210.807 944.448 211.71 Q945.328 212.613 947.99 212.613 L952.365 212.613 L952.365 216.178 L947.99 216.178 Q943.059 216.178 941.184 214.349 Q939.309 212.497 939.309 207.636 L939.309 193.562 L936.184 193.562 L936.184 190.252 L939.309 190.252 L939.309 182.891 L943.592 182.891 Z" fill="#000000" fill-rule="nonzero" fill-opacity="1" /><path clip-path="url(#clip130)" d="M979.517 200.529 L979.517 216.178 L975.258 216.178 L975.258 200.668 Q975.258 196.988 973.823 195.159 Q972.388 193.33 969.517 193.33 Q966.068 193.33 964.078 195.53 Q962.087 197.729 962.087 201.525 L962.087 216.178 L957.805 216.178 L957.805 180.159 L962.087 180.159 L962.087 194.28 Q963.615 191.942 965.675 190.784 Q967.758 189.627 970.467 189.627 Q974.934 189.627 977.226 192.405 Q979.517 195.159 979.517 200.529 Z" fill="#000000" fill-rule="nonzero" fill-opacity="1" /><polyline clip-path="url(#clip130)" style="stroke:#3da44d; stroke-linecap:round; stroke-linejoin:round; stroke-width:4; stroke-opacity:1; fill:none" points="673.902,250.738 737.823,250.738 "/>
<path clip-path="url(#clip130)" d="M755.884 234.731 L755.884 242.092 L764.657 242.092 L764.657 245.402 L755.884 245.402 L755.884 259.476 Q755.884 262.647 756.741 263.55 Q757.62 264.453 760.282 264.453 L764.657 264.453 L764.657 268.018 L760.282 268.018 Q755.352 268.018 753.477 266.189 Q751.602 264.337 751.602 259.476 L751.602 245.402 L748.477 245.402 L748.477 242.092 L751.602 242.092 L751.602 234.731 L755.884 234.731 Z" fill="#000000" fill-rule="nonzero" fill-opacity="1" /><path clip-path="url(#clip130)" d="M785.282 246.073 Q784.565 245.657 783.708 245.471 Q782.875 245.263 781.856 245.263 Q778.245 245.263 776.301 247.624 Q774.38 249.962 774.38 254.36 L774.38 268.018 L770.097 268.018 L770.097 242.092 L774.38 242.092 L774.38 246.12 Q775.722 243.758 777.875 242.624 Q780.028 241.467 783.106 241.467 Q783.546 241.467 784.079 241.536 Q784.611 241.583 785.259 241.698 L785.282 246.073 Z" fill="#000000" fill-rule="nonzero" fill-opacity="1" /><path clip-path="url(#clip130)" d="M789.31 257.786 L789.31 242.092 L793.569 242.092 L793.569 257.624 Q793.569 261.305 795.004 263.156 Q796.44 264.985 799.31 264.985 Q802.759 264.985 804.75 262.786 Q806.764 260.587 806.764 256.791 L806.764 242.092 L811.023 242.092 L811.023 268.018 L806.764 268.018 L806.764 264.036 Q805.213 266.397 803.153 267.555 Q801.116 268.689 798.407 268.689 Q793.94 268.689 791.625 265.911 Q789.31 263.133 789.31 257.786 M800.028 241.467 L800.028 241.467 Z" fill="#000000" fill-rule="nonzero" fill-opacity="1" /><path clip-path="url(#clip130)" d="M841.972 253.99 L841.972 256.073 L822.389 256.073 Q822.666 260.471 825.027 262.786 Q827.412 265.078 831.648 265.078 Q834.101 265.078 836.393 264.476 Q838.708 263.874 840.976 262.67 L840.976 266.698 Q838.685 267.67 836.277 268.18 Q833.87 268.689 831.393 268.689 Q825.19 268.689 821.555 265.078 Q817.944 261.467 817.944 255.309 Q817.944 248.944 821.37 245.217 Q824.819 241.467 830.652 241.467 Q835.884 241.467 838.916 244.846 Q841.972 248.203 841.972 253.99 M837.713 252.74 Q837.666 249.245 835.745 247.161 Q833.847 245.078 830.699 245.078 Q827.134 245.078 824.981 247.092 Q822.852 249.106 822.527 252.763 L837.713 252.74 Z" fill="#000000" fill-rule="nonzero" fill-opacity="1" /><path clip-path="url(#clip130)" d="M1393.94 1486.45 L2352.76 1486.45 L2352.76 47.2441 L1393.94 47.2441  Z" fill="#ffffff" fill-rule="evenodd" fill-opacity="1"/>
<polyline clip-path="url(#clip131)" style="stroke:#000000; stroke-linecap:round; stroke-linejoin:round; stroke-width:2; stroke-opacity:0.1; fill:none" points="1409.62,1486.45 1409.62,47.2441 "/>
<polyline clip-path="url(#clip131)" style="stroke:#000000; stroke-linecap:round; stroke-linejoin:round; stroke-width:2; stroke-opacity:0.1; fill:none" points="1638.62,1486.45 1638.62,47.2441 "/>
<polyline clip-path="url(#clip131)" style="stroke:#000000; stroke-linecap:round; stroke-linejoin:round; stroke-width:2; stroke-opacity:0.1; fill:none" points="1867.62,1486.45 1867.62,47.2441 "/>
<polyline clip-path="url(#clip131)" style="stroke:#000000; stroke-linecap:round; stroke-linejoin:round; stroke-width:2; stroke-opacity:0.1; fill:none" points="2096.62,1486.45 2096.62,47.2441 "/>
<polyline clip-path="url(#clip131)" style="stroke:#000000; stroke-linecap:round; stroke-linejoin:round; stroke-width:2; stroke-opacity:0.1; fill:none" points="2325.62,1486.45 2325.62,47.2441 "/>
<polyline clip-path="url(#clip131)" style="stroke:#000000; stroke-linecap:round; stroke-linejoin:round; stroke-width:2; stroke-opacity:0.1; fill:none" points="1393.94,1453.07 2352.76,1453.07 "/>
<polyline clip-path="url(#clip131)" style="stroke:#000000; stroke-linecap:round; stroke-linejoin:round; stroke-width:2; stroke-opacity:0.1; fill:none" points="1393.94,1206.73 2352.76,1206.73 "/>
<polyline clip-path="url(#clip131)" style="stroke:#000000; stroke-linecap:round; stroke-linejoin:round; stroke-width:2; stroke-opacity:0.1; fill:none" points="1393.94,960.389 2352.76,960.389 "/>
<polyline clip-path="url(#clip131)" style="stroke:#000000; stroke-linecap:round; stroke-linejoin:round; stroke-width:2; stroke-opacity:0.1; fill:none" points="1393.94,714.047 2352.76,714.047 "/>
<polyline clip-path="url(#clip131)" style="stroke:#000000; stroke-linecap:round; stroke-linejoin:round; stroke-width:2; stroke-opacity:0.1; fill:none" points="1393.94,467.705 2352.76,467.705 "/>
<polyline clip-path="url(#clip131)" style="stroke:#000000; stroke-linecap:round; stroke-linejoin:round; stroke-width:2; stroke-opacity:0.1; fill:none" points="1393.94,221.363 2352.76,221.363 "/>
<polyline clip-path="url(#clip130)" style="stroke:#000000; stroke-linecap:round; stroke-linejoin:round; stroke-width:4; stroke-opacity:1; fill:none" points="1393.94,1486.45 2352.76,1486.45 "/>
<polyline clip-path="url(#clip130)" style="stroke:#000000; stroke-linecap:round; stroke-linejoin:round; stroke-width:4; stroke-opacity:1; fill:none" points="1409.62,1486.45 1409.62,1467.55 "/>
<polyline clip-path="url(#clip130)" style="stroke:#000000; stroke-linecap:round; stroke-linejoin:round; stroke-width:4; stroke-opacity:1; fill:none" points="1638.62,1486.45 1638.62,1467.55 "/>
<polyline clip-path="url(#clip130)" style="stroke:#000000; stroke-linecap:round; stroke-linejoin:round; stroke-width:4; stroke-opacity:1; fill:none" points="1867.62,1486.45 1867.62,1467.55 "/>
<polyline clip-path="url(#clip130)" style="stroke:#000000; stroke-linecap:round; stroke-linejoin:round; stroke-width:4; stroke-opacity:1; fill:none" points="2096.62,1486.45 2096.62,1467.55 "/>
<polyline clip-path="url(#clip130)" style="stroke:#000000; stroke-linecap:round; stroke-linejoin:round; stroke-width:4; stroke-opacity:1; fill:none" points="2325.62,1486.45 2325.62,1467.55 "/>
<path clip-path="url(#clip130)" d="M1409.62 1517.37 Q1406.01 1517.37 1404.18 1520.93 Q1402.38 1524.47 1402.38 1531.6 Q1402.38 1538.71 1404.18 1542.27 Q1406.01 1545.82 1409.62 1545.82 Q1413.26 1545.82 1415.06 1542.27 Q1416.89 1538.71 1416.89 1531.6 Q1416.89 1524.47 1415.06 1520.93 Q1413.26 1517.37 1409.62 1517.37 M1409.62 1513.66 Q1415.43 1513.66 1418.49 1518.27 Q1421.57 1522.85 1421.57 1531.6 Q1421.57 1540.33 1418.49 1544.94 Q1415.43 1549.52 1409.62 1549.52 Q1403.81 1549.52 1400.73 1544.94 Q1397.68 1540.33 1397.68 1531.6 Q1397.68 1522.85 1400.73 1518.27 Q1403.81 1513.66 1409.62 1513.66 Z" fill="#000000" fill-rule="nonzero" fill-opacity="1" /><path clip-path="url(#clip130)" d="M1617.39 1544.91 L1633.71 1544.91 L1633.71 1548.85 L1611.77 1548.85 L1611.77 1544.91 Q1614.43 1542.16 1619.02 1537.53 Q1623.62 1532.88 1624.8 1531.53 Q1627.05 1529.01 1627.93 1527.27 Q1628.83 1525.51 1628.83 1523.82 Q1628.83 1521.07 1626.89 1519.33 Q1624.96 1517.6 1621.86 1517.6 Q1619.66 1517.6 1617.21 1518.36 Q1614.78 1519.13 1612 1520.68 L1612 1515.95 Q1614.83 1514.82 1617.28 1514.24 Q1619.73 1513.66 1621.77 1513.66 Q1627.14 1513.66 1630.33 1516.35 Q1633.53 1519.03 1633.53 1523.52 Q1633.53 1525.65 1632.72 1527.57 Q1631.93 1529.47 1629.83 1532.07 Q1629.25 1532.74 1626.14 1535.95 Q1623.04 1539.15 1617.39 1544.91 Z" fill="#000000" fill-rule="nonzero" fill-opacity="1" /><path clip-path="url(#clip130)" d="M1653.53 1517.37 Q1649.92 1517.37 1648.09 1520.93 Q1646.28 1524.47 1646.28 1531.6 Q1646.28 1538.71 1648.09 1542.27 Q1649.92 1545.82 1653.53 1545.82 Q1657.16 1545.82 1658.97 1542.27 Q1660.8 1538.71 1660.8 1531.6 Q1660.8 1524.47 1658.97 1520.93 Q1657.16 1517.37 1653.53 1517.37 M1653.53 1513.66 Q1659.34 1513.66 1662.39 1518.27 Q1665.47 1522.85 1665.47 1531.6 Q1665.47 1540.33 1662.39 1544.94 Q1659.34 1549.52 1653.53 1549.52 Q1647.72 1549.52 1644.64 1544.94 Q1641.58 1540.33 1641.58 1531.6 Q1641.58 1522.85 1644.64 1518.27 Q1647.72 1513.66 1653.53 1513.66 Z" fill="#000000" fill-rule="nonzero" fill-opacity="1" /><path clip-path="url(#clip130)" d="M1855.79 1518.36 L1843.99 1536.81 L1855.79 1536.81 L1855.79 1518.36 M1854.57 1514.29 L1860.45 1514.29 L1860.45 1536.81 L1865.38 1536.81 L1865.38 1540.7 L1860.45 1540.7 L1860.45 1548.85 L1855.79 1548.85 L1855.79 1540.7 L1840.19 1540.7 L1840.19 1536.19 L1854.57 1514.29 Z" fill="#000000" fill-rule="nonzero" fill-opacity="1" /><path clip-path="url(#clip130)" d="M1883.11 1517.37 Q1879.5 1517.37 1877.67 1520.93 Q1875.86 1524.47 1875.86 1531.6 Q1875.86 1538.71 1877.67 1542.27 Q1879.5 1545.82 1883.11 1545.82 Q1886.74 1545.82 1888.55 1542.27 Q1890.38 1538.71 1890.38 1531.6 Q1890.38 1524.47 1888.55 1520.93 Q1886.74 1517.37 1883.11 1517.37 M1883.11 1513.66 Q1888.92 1513.66 1891.97 1518.27 Q1895.05 1522.85 1895.05 1531.6 Q1895.05 1540.33 1891.97 1544.94 Q1888.92 1549.52 1883.11 1549.52 Q1877.3 1549.52 1874.22 1544.94 Q1871.16 1540.33 1871.16 1531.6 Q1871.16 1522.85 1874.22 1518.27 Q1877.3 1513.66 1883.11 1513.66 Z" fill="#000000" fill-rule="nonzero" fill-opacity="1" /><path clip-path="url(#clip130)" d="M2082.03 1529.7 Q2078.88 1529.7 2077.03 1531.86 Q2075.2 1534.01 2075.2 1537.76 Q2075.2 1541.49 2077.03 1543.66 Q2078.88 1545.82 2082.03 1545.82 Q2085.17 1545.82 2087 1543.66 Q2088.85 1541.49 2088.85 1537.76 Q2088.85 1534.01 2087 1531.86 Q2085.17 1529.7 2082.03 1529.7 M2091.31 1515.05 L2091.31 1519.31 Q2089.55 1518.48 2087.74 1518.04 Q2085.96 1517.6 2084.2 1517.6 Q2079.57 1517.6 2077.12 1520.72 Q2074.69 1523.85 2074.34 1530.17 Q2075.71 1528.15 2077.77 1527.09 Q2079.83 1526 2082.3 1526 Q2087.51 1526 2090.52 1529.17 Q2093.55 1532.32 2093.55 1537.76 Q2093.55 1543.08 2090.4 1546.3 Q2087.26 1549.52 2082.03 1549.52 Q2076.03 1549.52 2072.86 1544.94 Q2069.69 1540.33 2069.69 1531.6 Q2069.69 1523.41 2073.58 1518.55 Q2077.47 1513.66 2084.02 1513.66 Q2085.78 1513.66 2087.56 1514.01 Q2089.36 1514.36 2091.31 1515.05 Z" fill="#000000" fill-rule="nonzero" fill-opacity="1" /><path clip-path="url(#clip130)" d="M2111.61 1517.37 Q2108 1517.37 2106.17 1520.93 Q2104.36 1524.47 2104.36 1531.6 Q2104.36 1538.71 2106.17 1542.27 Q2108 1545.82 2111.61 1545.82 Q2115.24 1545.82 2117.05 1542.27 Q2118.88 1538.71 2118.88 1531.6 Q2118.88 1524.47 2117.05 1520.93 Q2115.24 1517.37 2111.61 1517.37 M2111.61 1513.66 Q2117.42 1513.66 2120.47 1518.27 Q2123.55 1522.85 2123.55 1531.6 Q2123.55 1540.33 2120.47 1544.94 Q2117.42 1549.52 2111.61 1549.52 Q2105.8 1549.52 2102.72 1544.94 Q2099.66 1540.33 2099.66 1531.6 Q2099.66 1522.85 2102.72 1518.27 Q2105.8 1513.66 2111.61 1513.66 Z" fill="#000000" fill-rule="nonzero" fill-opacity="1" /><path clip-path="url(#clip130)" d="M2310.49 1532.44 Q2307.16 1532.44 2305.24 1534.22 Q2303.34 1536 2303.34 1539.13 Q2303.34 1542.25 2305.24 1544.03 Q2307.16 1545.82 2310.49 1545.82 Q2313.83 1545.82 2315.75 1544.03 Q2317.67 1542.23 2317.67 1539.13 Q2317.67 1536 2315.75 1534.22 Q2313.85 1532.44 2310.49 1532.44 M2305.82 1530.45 Q2302.81 1529.7 2301.12 1527.64 Q2299.45 1525.58 2299.45 1522.62 Q2299.45 1518.48 2302.39 1516.07 Q2305.35 1513.66 2310.49 1513.66 Q2315.65 1513.66 2318.59 1516.07 Q2321.53 1518.48 2321.53 1522.62 Q2321.53 1525.58 2319.84 1527.64 Q2318.18 1529.7 2315.19 1530.45 Q2318.57 1531.23 2320.45 1533.52 Q2322.34 1535.82 2322.34 1539.13 Q2322.34 1544.15 2319.27 1546.83 Q2316.21 1549.52 2310.49 1549.52 Q2304.77 1549.52 2301.7 1546.83 Q2298.64 1544.15 2298.64 1539.13 Q2298.64 1535.82 2300.54 1533.52 Q2302.44 1531.23 2305.82 1530.45 M2304.1 1523.06 Q2304.1 1525.75 2305.77 1527.25 Q2307.46 1528.76 2310.49 1528.76 Q2313.5 1528.76 2315.19 1527.25 Q2316.9 1525.75 2316.9 1523.06 Q2316.9 1520.38 2315.19 1518.87 Q2313.5 1517.37 2310.49 1517.37 Q2307.46 1517.37 2305.77 1518.87 Q2304.1 1520.38 2304.1 1523.06 Z" fill="#000000" fill-rule="nonzero" fill-opacity="1" /><path clip-path="url(#clip130)" d="M2340.65 1517.37 Q2337.04 1517.37 2335.21 1520.93 Q2333.41 1524.47 2333.41 1531.6 Q2333.41 1538.71 2335.21 1542.27 Q2337.04 1545.82 2340.65 1545.82 Q2344.29 1545.82 2346.09 1542.27 Q2347.92 1538.71 2347.92 1531.6 Q2347.92 1524.47 2346.09 1520.93 Q2344.29 1517.37 2340.65 1517.37 M2340.65 1513.66 Q2346.46 1513.66 2349.52 1518.27 Q2352.6 1522.85 2352.6 1531.6 Q2352.6 1540.33 2349.52 1544.94 Q2346.46 1549.52 2340.65 1549.52 Q2334.84 1549.52 2331.77 1544.94 Q2328.71 1540.33 2328.71 1531.6 Q2328.71 1522.85 2331.77 1518.27 Q2334.84 1513.66 2340.65 1513.66 Z" fill="#000000" fill-rule="nonzero" fill-opacity="1" /><polyline clip-path="url(#clip130)" style="stroke:#000000; stroke-linecap:round; stroke-linejoin:round; stroke-width:4; stroke-opacity:1; fill:none" points="1393.94,1486.45 1393.94,47.2441 "/>
<polyline clip-path="url(#clip130)" style="stroke:#000000; stroke-linecap:round; stroke-linejoin:round; stroke-width:4; stroke-opacity:1; fill:none" points="1393.94,1453.07 1412.83,1453.07 "/>
<polyline clip-path="url(#clip130)" style="stroke:#000000; stroke-linecap:round; stroke-linejoin:round; stroke-width:4; stroke-opacity:1; fill:none" points="1393.94,1206.73 1412.83,1206.73 "/>
<polyline clip-path="url(#clip130)" style="stroke:#000000; stroke-linecap:round; stroke-linejoin:round; stroke-width:4; stroke-opacity:1; fill:none" points="1393.94,960.389 1412.83,960.389 "/>
<polyline clip-path="url(#clip130)" style="stroke:#000000; stroke-linecap:round; stroke-linejoin:round; stroke-width:4; stroke-opacity:1; fill:none" points="1393.94,714.047 1412.83,714.047 "/>
<polyline clip-path="url(#clip130)" style="stroke:#000000; stroke-linecap:round; stroke-linejoin:round; stroke-width:4; stroke-opacity:1; fill:none" points="1393.94,467.705 1412.83,467.705 "/>
<polyline clip-path="url(#clip130)" style="stroke:#000000; stroke-linecap:round; stroke-linejoin:round; stroke-width:4; stroke-opacity:1; fill:none" points="1393.94,221.363 1412.83,221.363 "/>
<path clip-path="url(#clip130)" d="M1250.99 1453.52 L1280.67 1453.52 L1280.67 1457.46 L1250.99 1457.46 L1250.99 1453.52 Z" fill="#000000" fill-rule="nonzero" fill-opacity="1" /><path clip-path="url(#clip130)" d="M1294.79 1466.42 L1311.11 1466.42 L1311.11 1470.35 L1289.16 1470.35 L1289.16 1466.42 Q1291.83 1463.66 1296.41 1459.03 Q1301.02 1454.38 1302.2 1453.04 Q1304.44 1450.51 1305.32 1448.78 Q1306.22 1447.02 1306.22 1445.33 Q1306.22 1442.57 1304.28 1440.84 Q1302.36 1439.1 1299.26 1439.1 Q1297.06 1439.1 1294.6 1439.87 Q1292.17 1440.63 1289.39 1442.18 L1289.39 1437.46 Q1292.22 1436.32 1294.67 1435.75 Q1297.13 1435.17 1299.16 1435.17 Q1304.53 1435.17 1307.73 1437.85 Q1310.92 1440.54 1310.92 1445.03 Q1310.92 1447.16 1310.11 1449.08 Q1309.33 1450.98 1307.22 1453.57 Q1306.64 1454.24 1303.54 1457.46 Q1300.44 1460.65 1294.79 1466.42 Z" fill="#000000" fill-rule="nonzero" fill-opacity="1" /><path clip-path="url(#clip130)" d="M1320.92 1464.47 L1325.81 1464.47 L1325.81 1470.35 L1320.92 1470.35 L1320.92 1464.47 Z" fill="#000000" fill-rule="nonzero" fill-opacity="1" /><path clip-path="url(#clip130)" d="M1345.99 1438.87 Q1342.38 1438.87 1340.55 1442.44 Q1338.75 1445.98 1338.75 1453.11 Q1338.75 1460.21 1340.55 1463.78 Q1342.38 1467.32 1345.99 1467.32 Q1349.63 1467.32 1351.43 1463.78 Q1353.26 1460.21 1353.26 1453.11 Q1353.26 1445.98 1351.43 1442.44 Q1349.63 1438.87 1345.99 1438.87 M1345.99 1435.17 Q1351.8 1435.17 1354.86 1439.77 Q1357.94 1444.36 1357.94 1453.11 Q1357.94 1461.83 1354.86 1466.44 Q1351.8 1471.02 1345.99 1471.02 Q1340.18 1471.02 1337.1 1466.44 Q1334.05 1461.83 1334.05 1453.11 Q1334.05 1444.36 1337.1 1439.77 Q1340.18 1435.17 1345.99 1435.17 Z" fill="#000000" fill-rule="nonzero" fill-opacity="1" /><path clip-path="url(#clip130)" d="M1251.99 1207.18 L1281.66 1207.18 L1281.66 1211.12 L1251.99 1211.12 L1251.99 1207.18 Z" fill="#000000" fill-rule="nonzero" fill-opacity="1" /><path clip-path="url(#clip130)" d="M1292.57 1220.08 L1300.2 1220.08 L1300.2 1193.71 L1291.89 1195.38 L1291.89 1191.12 L1300.16 1189.45 L1304.83 1189.45 L1304.83 1220.08 L1312.47 1220.08 L1312.47 1224.01 L1292.57 1224.01 L1292.57 1220.08 Z" fill="#000000" fill-rule="nonzero" fill-opacity="1" /><path clip-path="url(#clip130)" d="M1321.92 1218.13 L1326.8 1218.13 L1326.8 1224.01 L1321.92 1224.01 L1321.92 1218.13 Z" fill="#000000" fill-rule="nonzero" fill-opacity="1" /><path clip-path="url(#clip130)" d="M1337.03 1189.45 L1355.39 1189.45 L1355.39 1193.39 L1341.32 1193.39 L1341.32 1201.86 Q1342.33 1201.51 1343.35 1201.35 Q1344.37 1201.16 1345.39 1201.16 Q1351.18 1201.16 1354.56 1204.33 Q1357.94 1207.51 1357.94 1212.92 Q1357.94 1218.5 1354.46 1221.6 Q1350.99 1224.68 1344.67 1224.68 Q1342.5 1224.68 1340.23 1224.31 Q1337.98 1223.94 1335.58 1223.2 L1335.58 1218.5 Q1337.66 1219.64 1339.88 1220.19 Q1342.1 1220.75 1344.58 1220.75 Q1348.58 1220.75 1350.92 1218.64 Q1353.26 1216.53 1353.26 1212.92 Q1353.26 1209.31 1350.92 1207.21 Q1348.58 1205.1 1344.58 1205.1 Q1342.7 1205.1 1340.83 1205.52 Q1338.98 1205.93 1337.03 1206.81 L1337.03 1189.45 Z" fill="#000000" fill-rule="nonzero" fill-opacity="1" /><path clip-path="url(#clip130)" d="M1250.99 960.84 L1280.67 960.84 L1280.67 964.775 L1250.99 964.775 L1250.99 960.84 Z" fill="#000000" fill-rule="nonzero" fill-opacity="1" /><path clip-path="url(#clip130)" d="M1291.57 973.734 L1299.21 973.734 L1299.21 947.368 L1290.9 949.035 L1290.9 944.775 L1299.16 943.109 L1303.84 943.109 L1303.84 973.734 L1311.48 973.734 L1311.48 977.669 L1291.57 977.669 L1291.57 973.734 Z" fill="#000000" fill-rule="nonzero" fill-opacity="1" /><path clip-path="url(#clip130)" d="M1320.92 971.789 L1325.81 971.789 L1325.81 977.669 L1320.92 977.669 L1320.92 971.789 Z" fill="#000000" fill-rule="nonzero" fill-opacity="1" /><path clip-path="url(#clip130)" d="M1345.99 946.187 Q1342.38 946.187 1340.55 949.752 Q1338.75 953.294 1338.75 960.423 Q1338.75 967.53 1340.55 971.095 Q1342.38 974.636 1345.99 974.636 Q1349.63 974.636 1351.43 971.095 Q1353.26 967.53 1353.26 960.423 Q1353.26 953.294 1351.43 949.752 Q1349.63 946.187 1345.99 946.187 M1345.99 942.484 Q1351.8 942.484 1354.86 947.09 Q1357.94 951.673 1357.94 960.423 Q1357.94 969.15 1354.86 973.757 Q1351.8 978.34 1345.99 978.34 Q1340.18 978.34 1337.1 973.757 Q1334.05 969.15 1334.05 960.423 Q1334.05 951.673 1337.1 947.09 Q1340.18 942.484 1345.99 942.484 Z" fill="#000000" fill-rule="nonzero" fill-opacity="1" /><path clip-path="url(#clip130)" d="M1251.99 714.498 L1281.66 714.498 L1281.66 718.433 L1251.99 718.433 L1251.99 714.498 Z" fill="#000000" fill-rule="nonzero" fill-opacity="1" /><path clip-path="url(#clip130)" d="M1301.76 699.846 Q1298.14 699.846 1296.32 703.41 Q1294.51 706.952 1294.51 714.082 Q1294.51 721.188 1296.32 724.753 Q1298.14 728.294 1301.76 728.294 Q1305.39 728.294 1307.2 724.753 Q1309.02 721.188 1309.02 714.082 Q1309.02 706.952 1307.2 703.41 Q1305.39 699.846 1301.76 699.846 M1301.76 696.142 Q1307.57 696.142 1310.62 700.748 Q1313.7 705.332 1313.7 714.082 Q1313.7 722.808 1310.62 727.415 Q1307.57 731.998 1301.76 731.998 Q1295.95 731.998 1292.87 727.415 Q1289.81 722.808 1289.81 714.082 Q1289.81 705.332 1292.87 700.748 Q1295.95 696.142 1301.76 696.142 Z" fill="#000000" fill-rule="nonzero" fill-opacity="1" /><path clip-path="url(#clip130)" d="M1321.92 725.447 L1326.8 725.447 L1326.8 731.327 L1321.92 731.327 L1321.92 725.447 Z" fill="#000000" fill-rule="nonzero" fill-opacity="1" /><path clip-path="url(#clip130)" d="M1337.03 696.767 L1355.39 696.767 L1355.39 700.702 L1341.32 700.702 L1341.32 709.174 Q1342.33 708.827 1343.35 708.665 Q1344.37 708.48 1345.39 708.48 Q1351.18 708.48 1354.56 711.651 Q1357.94 714.822 1357.94 720.239 Q1357.94 725.818 1354.46 728.919 Q1350.99 731.998 1344.67 731.998 Q1342.5 731.998 1340.23 731.628 Q1337.98 731.257 1335.58 730.517 L1335.58 725.818 Q1337.66 726.952 1339.88 727.507 Q1342.1 728.063 1344.58 728.063 Q1348.58 728.063 1350.92 725.956 Q1353.26 723.85 1353.26 720.239 Q1353.26 716.628 1350.92 714.521 Q1348.58 712.415 1344.58 712.415 Q1342.7 712.415 1340.83 712.832 Q1338.98 713.248 1337.03 714.128 L1337.03 696.767 Z" fill="#000000" fill-rule="nonzero" fill-opacity="1" /><path clip-path="url(#clip130)" d="M1300.76 453.504 Q1297.15 453.504 1295.32 457.068 Q1293.52 460.61 1293.52 467.74 Q1293.52 474.846 1295.32 478.411 Q1297.15 481.953 1300.76 481.953 Q1304.39 481.953 1306.2 478.411 Q1308.03 474.846 1308.03 467.74 Q1308.03 460.61 1306.2 457.068 Q1304.39 453.504 1300.76 453.504 M1300.76 449.8 Q1306.57 449.8 1309.63 454.406 Q1312.7 458.99 1312.7 467.74 Q1312.7 476.466 1309.63 481.073 Q1306.57 485.656 1300.76 485.656 Q1294.95 485.656 1291.87 481.073 Q1288.82 476.466 1288.82 467.74 Q1288.82 458.99 1291.87 454.406 Q1294.95 449.8 1300.76 449.8 Z" fill="#000000" fill-rule="nonzero" fill-opacity="1" /><path clip-path="url(#clip130)" d="M1320.92 479.105 L1325.81 479.105 L1325.81 484.985 L1320.92 484.985 L1320.92 479.105 Z" fill="#000000" fill-rule="nonzero" fill-opacity="1" /><path clip-path="url(#clip130)" d="M1345.99 453.504 Q1342.38 453.504 1340.55 457.068 Q1338.75 460.61 1338.75 467.74 Q1338.75 474.846 1340.55 478.411 Q1342.38 481.953 1345.99 481.953 Q1349.63 481.953 1351.43 478.411 Q1353.26 474.846 1353.26 467.74 Q1353.26 460.61 1351.43 457.068 Q1349.63 453.504 1345.99 453.504 M1345.99 449.8 Q1351.8 449.8 1354.86 454.406 Q1357.94 458.99 1357.94 467.74 Q1357.94 476.466 1354.86 481.073 Q1351.8 485.656 1345.99 485.656 Q1340.18 485.656 1337.1 481.073 Q1334.05 476.466 1334.05 467.74 Q1334.05 458.99 1337.1 454.406 Q1340.18 449.8 1345.99 449.8 Z" fill="#000000" fill-rule="nonzero" fill-opacity="1" /><path clip-path="url(#clip130)" d="M1301.76 207.162 Q1298.14 207.162 1296.32 210.727 Q1294.51 214.268 1294.51 221.398 Q1294.51 228.504 1296.32 232.069 Q1298.14 235.611 1301.76 235.611 Q1305.39 235.611 1307.2 232.069 Q1309.02 228.504 1309.02 221.398 Q1309.02 214.268 1307.2 210.727 Q1305.39 207.162 1301.76 207.162 M1301.76 203.458 Q1307.57 203.458 1310.62 208.065 Q1313.7 212.648 1313.7 221.398 Q1313.7 230.125 1310.62 234.731 Q1307.57 239.314 1301.76 239.314 Q1295.95 239.314 1292.87 234.731 Q1289.81 230.125 1289.81 221.398 Q1289.81 212.648 1292.87 208.065 Q1295.95 203.458 1301.76 203.458 Z" fill="#000000" fill-rule="nonzero" fill-opacity="1" /><path clip-path="url(#clip130)" d="M1321.92 232.763 L1326.8 232.763 L1326.8 238.643 L1321.92 238.643 L1321.92 232.763 Z" fill="#000000" fill-rule="nonzero" fill-opacity="1" /><path clip-path="url(#clip130)" d="M1337.03 204.083 L1355.39 204.083 L1355.39 208.018 L1341.32 208.018 L1341.32 216.49 Q1342.33 216.143 1343.35 215.981 Q1344.37 215.796 1345.39 215.796 Q1351.18 215.796 1354.56 218.967 Q1357.94 222.139 1357.94 227.555 Q1357.94 233.134 1354.46 236.236 Q1350.99 239.314 1344.67 239.314 Q1342.5 239.314 1340.23 238.944 Q1337.98 238.574 1335.58 237.833 L1335.58 233.134 Q1337.66 234.268 1339.88 234.824 Q1342.1 235.379 1344.58 235.379 Q1348.58 235.379 1350.92 233.273 Q1353.26 231.166 1353.26 227.555 Q1353.26 223.944 1350.92 221.838 Q1348.58 219.731 1344.58 219.731 Q1342.7 219.731 1340.83 220.148 Q1338.98 220.564 1337.03 221.444 L1337.03 204.083 Z" fill="#000000" fill-rule="nonzero" fill-opacity="1" /><polyline clip-path="url(#clip131)" style="stroke:#009af9; stroke-linecap:round; stroke-linejoin:round; stroke-width:4; stroke-opacity:1; fill:none" points="1421.07,824.292 1432.52,820.169 1443.97,842.306 1455.42,833.862 1466.87,792.602 1478.32,745.555 1489.77,699.576 1501.22,652.719 1512.67,637.991 1524.12,615.691 1535.57,601.659 1547.02,597.574 1558.47,592.27 1569.92,598.084 1581.37,612.219 1592.82,650.596 1604.27,643.491 1615.72,651.412 1627.17,675.923 1638.62,700.007 1650.07,703.237 1661.52,697.816 1672.97,682.251 1684.42,645.11 1695.87,586.962 1707.32,486.057 1718.77,419.589 1730.22,372.827 1741.67,332.283 1753.12,254.303 1764.57,200.692 1776.02,190.148 1787.47,200.17 1798.92,181.749 1810.37,174.491 1821.82,188.278 1833.27,181.055 1844.72,177.501 1856.17,170.81 1867.62,144.018 1879.07,123.145 1890.52,134.731 1901.97,152.509 1913.42,175.019 1924.87,190.159 1936.32,213.93 1947.77,216.624 1959.22,194.732 1970.67,173.724 1982.12,210.36 1993.57,243.659 2005.02,303.548 2016.47,328.628 2027.92,338.713 2039.37,363.717 2050.82,379.251 2062.27,379.256 2073.72,417.203 2085.17,451.054 2096.62,469.892 2108.07,492.756 2119.52,497.972 2130.97,533.533 2142.42,552.092 2153.87,564.509 2165.32,617.212 2176.77,651.93 2188.22,698.729 2199.67,748.032 2211.12,808.667 2222.57,870.886 2234.02,939.596 2245.47,1003.26 2256.92,1111.24 2268.37,1203.99 2279.82,1244.68 2291.27,1314.45 2302.72,1383.84 2314.17,1424.01 2325.62,1445.72 "/>
<polyline clip-path="url(#clip131)" style="stroke:#e26f46; stroke-linecap:round; stroke-linejoin:round; stroke-width:4; stroke-opacity:1; fill:none" points="1421.07,832.107 1432.52,828.619 1443.97,848.928 1455.42,833.553 1466.87,795.047 1478.32,746.231 1489.77,696.545 1501.22,652.616 1512.67,636.828 1524.12,618.601 1535.57,615.336 1547.02,601.54 1558.47,599.553 1569.92,603.751 1581.37,620.811 1592.82,657.504 1604.27,654.824 1615.72,664.681 1627.17,689.838 1638.62,717.301 1650.07,719.723 1661.52,703.877 1672.97,686.628 1684.42,643.616 1695.87,583.489 1707.32,491.356 1718.77,423.515 1730.22,379.186 1741.67,338.399 1753.12,258.731 1764.57,201.361 1776.02,190.446 1787.47,193.543 1798.92,176.722 1810.37,169.55 1821.82,180.557 1833.27,178.986 1844.72,175.608 1856.17,178.227 1867.62,150.599 1879.07,133.149 1890.52,136.362 1901.97,154.564 1913.42,176.564 1924.87,193.244 1936.32,214.134 1947.77,218.723 1959.22,200.648 1970.67,179.251 1982.12,215.271 1993.57,243.209 2005.02,308.26 2016.47,331.901 2027.92,343.211 2039.37,367.641 2050.82,386.312 2062.27,384.706 2073.72,420.636 2085.17,460.729 2096.62,476.062 2108.07,494.217 2119.52,494.027 2130.97,535.242 2142.42,551.584 2153.87,562.227 2165.32,615.718 2176.77,649.673 2188.22,699.354 2199.67,745.168 2211.12,811.274 2222.57,870.344 2234.02,942.524 2245.47,1003.06 2256.92,1103.03 2268.37,1194.56 2279.82,1237.7 2291.27,1316.84 2302.72,1381.53 2314.17,1427.29 2325.62,1442.6 "/>
<polyline clip-path="url(#clip131)" style="stroke:#3da44d; stroke-linecap:round; stroke-linejoin:round; stroke-width:4; stroke-opacity:1; fill:none" points="1421.07,864.225 1432.52,814.437 1443.97,804.773 1455.42,801.558 1466.87,791.727 1478.32,687.663 1489.77,675.134 1501.22,626.192 1512.67,702.571 1524.12,620.509 1535.57,533.117 1547.02,545.057 1558.47,461.126 1569.92,479.164 1581.37,567.657 1592.82,541.147 1604.27,613.252 1615.72,642.923 1627.17,694.108 1638.62,745.411 1650.07,692.027 1661.52,621.084 1672.97,577.355 1684.42,597.811 1695.87,559.279 1707.32,491.487 1718.77,421.42 1730.22,337.906 1741.67,338.216 1753.12,208.951 1764.57,177.105 1776.02,185.388 1787.47,187.245 1798.92,175.04 1810.37,89.3694 1821.82,157.969 1833.27,178.096 1844.72,182.839 1856.17,125.091 1867.62,122.831 1879.07,87.9763 1890.52,103.155 1901.97,99.3679 1913.42,109.182 1924.87,144.285 1936.32,230.397 1947.77,219.417 1959.22,184.58 1970.67,190.919 1982.12,236.87 1993.57,286.839 2005.02,251.263 2016.47,299.868 2027.92,353.04 2039.37,366.609 2050.82,357.722 2062.27,315.131 2073.72,352.558 2085.17,439.12 2096.62,482.267 2108.07,530.78 2119.52,576.196 2130.97,572.959 2142.42,614.362 2153.87,572.686 2165.32,538.112 2176.77,633.046 2188.22,717.19 2199.67,786.702 2211.12,826.248 2222.57,908.528 2234.02,943.292 2245.47,954.289 2256.92,1022.54 2268.37,1195.03 2279.82,1213.26 2291.27,1291.61 2302.72,1309.82 2314.17,1375.78 2325.62,1372.62 "/>
<path clip-path="url(#clip130)" d="M1863.25 302.578 L2320.8 302.578 L2320.8 95.2176 L1863.25 95.2176  Z" fill="#ffffff" fill-rule="evenodd" fill-opacity="1"/>
<polyline clip-path="url(#clip130)" style="stroke:#000000; stroke-linecap:round; stroke-linejoin:round; stroke-width:4; stroke-opacity:1; fill:none" points="1863.25,302.578 2320.8,302.578 2320.8,95.2176 1863.25,95.2176 1863.25,302.578 "/>
<polyline clip-path="url(#clip130)" style="stroke:#009af9; stroke-linecap:round; stroke-linejoin:round; stroke-width:4; stroke-opacity:1; fill:none" points="1873.9,147.058 1937.82,147.058 "/>
<path clip-path="url(#clip130)" d="M1948.48 129.778 L1953.15 129.778 L1953.15 144.384 L1968.66 129.778 L1974.68 129.778 L1957.53 145.889 L1975.91 164.338 L1969.75 164.338 L1953.15 147.694 L1953.15 164.338 L1948.48 164.338 L1948.48 129.778 Z" fill="#000000" fill-rule="nonzero" fill-opacity="1" /><path clip-path="url(#clip130)" d="M1990.33 151.305 Q1985.17 151.305 1983.18 152.486 Q1981.19 153.666 1981.19 156.514 Q1981.19 158.782 1982.67 160.125 Q1984.17 161.444 1986.74 161.444 Q1990.28 161.444 1992.41 158.944 Q1994.56 156.421 1994.56 152.254 L1994.56 151.305 L1990.33 151.305 M1998.82 149.546 L1998.82 164.338 L1994.56 164.338 L1994.56 160.402 Q1993.11 162.763 1990.93 163.898 Q1988.75 165.009 1985.61 165.009 Q1981.62 165.009 1979.26 162.787 Q1976.93 160.541 1976.93 156.791 Q1976.93 152.416 1979.84 150.194 Q1982.78 147.972 1988.59 147.972 L1994.56 147.972 L1994.56 147.555 Q1994.56 144.615 1992.62 143.018 Q1990.7 141.398 1987.2 141.398 Q1984.98 141.398 1982.87 141.93 Q1980.77 142.463 1978.82 143.527 L1978.82 139.592 Q1981.16 138.69 1983.36 138.25 Q1985.56 137.787 1987.64 137.787 Q1993.27 137.787 1996.05 140.703 Q1998.82 143.62 1998.82 149.546 Z" fill="#000000" fill-rule="nonzero" fill-opacity="1" /><path clip-path="url(#clip130)" d="M2007.6 128.319 L2011.86 128.319 L2011.86 164.338 L2007.6 164.338 L2007.6 128.319 Z" fill="#000000" fill-rule="nonzero" fill-opacity="1" /><path clip-path="url(#clip130)" d="M2040.95 143.389 Q2042.55 140.518 2044.77 139.153 Q2046.99 137.787 2050 137.787 Q2054.06 137.787 2056.25 140.634 Q2058.45 143.458 2058.45 148.689 L2058.45 164.338 L2054.17 164.338 L2054.17 148.828 Q2054.17 145.102 2052.85 143.296 Q2051.53 141.49 2048.82 141.49 Q2045.51 141.49 2043.59 143.69 Q2041.67 145.889 2041.67 149.685 L2041.67 164.338 L2037.39 164.338 L2037.39 148.828 Q2037.39 145.078 2036.07 143.296 Q2034.75 141.49 2032 141.49 Q2028.73 141.49 2026.81 143.713 Q2024.89 145.912 2024.89 149.685 L2024.89 164.338 L2020.61 164.338 L2020.61 138.412 L2024.89 138.412 L2024.89 142.44 Q2026.35 140.055 2028.38 138.921 Q2030.42 137.787 2033.22 137.787 Q2036.05 137.787 2038.01 139.222 Q2040 140.657 2040.95 143.389 Z" fill="#000000" fill-rule="nonzero" fill-opacity="1" /><path clip-path="url(#clip130)" d="M2078.73 151.305 Q2073.57 151.305 2071.58 152.486 Q2069.59 153.666 2069.59 156.514 Q2069.59 158.782 2071.07 160.125 Q2072.57 161.444 2075.14 161.444 Q2078.68 161.444 2080.81 158.944 Q2082.97 156.421 2082.97 152.254 L2082.97 151.305 L2078.73 151.305 M2087.23 149.546 L2087.23 164.338 L2082.97 164.338 L2082.97 160.402 Q2081.51 162.763 2079.33 163.898 Q2077.16 165.009 2074.01 165.009 Q2070.03 165.009 2067.67 162.787 Q2065.33 160.541 2065.33 156.791 Q2065.33 152.416 2068.24 150.194 Q2071.18 147.972 2076.99 147.972 L2082.97 147.972 L2082.97 147.555 Q2082.97 144.615 2081.02 143.018 Q2079.1 141.398 2075.61 141.398 Q2073.38 141.398 2071.28 141.93 Q2069.17 142.463 2067.23 143.527 L2067.23 139.592 Q2069.56 138.69 2071.76 138.25 Q2073.96 137.787 2076.05 137.787 Q2081.67 137.787 2084.45 140.703 Q2087.23 143.62 2087.23 149.546 Z" fill="#000000" fill-rule="nonzero" fill-opacity="1" /><path clip-path="url(#clip130)" d="M2117.55 148.689 L2117.55 164.338 L2113.29 164.338 L2113.29 148.828 Q2113.29 145.148 2111.86 143.319 Q2110.42 141.49 2107.55 141.49 Q2104.1 141.49 2102.11 143.69 Q2100.12 145.889 2100.12 149.685 L2100.12 164.338 L2095.84 164.338 L2095.84 138.412 L2100.12 138.412 L2100.12 142.44 Q2101.65 140.102 2103.71 138.944 Q2105.79 137.787 2108.5 137.787 Q2112.97 137.787 2115.26 140.565 Q2117.55 143.319 2117.55 148.689 Z" fill="#000000" fill-rule="nonzero" fill-opacity="1" /><path clip-path="url(#clip130)" d="M2157.64 139.176 L2157.64 143.203 Q2155.84 142.277 2153.89 141.815 Q2151.95 141.352 2149.86 141.352 Q2146.69 141.352 2145.1 142.324 Q2143.52 143.296 2143.52 145.24 Q2143.52 146.722 2144.66 147.578 Q2145.79 148.412 2149.22 149.176 L2150.67 149.5 Q2155.21 150.472 2157.11 152.254 Q2159.03 154.014 2159.03 157.185 Q2159.03 160.796 2156.16 162.902 Q2153.31 165.009 2148.31 165.009 Q2146.23 165.009 2143.96 164.592 Q2141.72 164.199 2139.22 163.388 L2139.22 158.99 Q2141.58 160.217 2143.87 160.842 Q2146.16 161.444 2148.41 161.444 Q2151.42 161.444 2153.04 160.426 Q2154.66 159.384 2154.66 157.509 Q2154.66 155.773 2153.48 154.847 Q2152.32 153.921 2148.36 153.064 L2146.88 152.717 Q2142.92 151.884 2141.16 150.171 Q2139.4 148.435 2139.4 145.426 Q2139.4 141.768 2141.99 139.778 Q2144.59 137.787 2149.36 137.787 Q2151.72 137.787 2153.8 138.134 Q2155.88 138.481 2157.64 139.176 Z" fill="#000000" fill-rule="nonzero" fill-opacity="1" /><path clip-path="url(#clip130)" d="M2186 143.389 Q2187.6 140.518 2189.82 139.153 Q2192.04 137.787 2195.05 137.787 Q2199.1 137.787 2201.3 140.634 Q2203.5 143.458 2203.5 148.689 L2203.5 164.338 L2199.22 164.338 L2199.22 148.828 Q2199.22 145.102 2197.9 143.296 Q2196.58 141.49 2193.87 141.49 Q2190.56 141.49 2188.64 143.69 Q2186.72 145.889 2186.72 149.685 L2186.72 164.338 L2182.43 164.338 L2182.43 148.828 Q2182.43 145.078 2181.11 143.296 Q2179.8 141.49 2177.04 141.49 Q2173.78 141.49 2171.86 143.713 Q2169.93 145.912 2169.93 149.685 L2169.93 164.338 L2165.65 164.338 L2165.65 138.412 L2169.93 138.412 L2169.93 142.44 Q2171.39 140.055 2173.43 138.921 Q2175.47 137.787 2178.27 137.787 Q2181.09 137.787 2183.06 139.222 Q2185.05 140.657 2186 143.389 Z" fill="#000000" fill-rule="nonzero" fill-opacity="1" /><path clip-path="url(#clip130)" d="M2222.04 141.398 Q2218.61 141.398 2216.62 144.083 Q2214.63 146.745 2214.63 151.398 Q2214.63 156.051 2216.6 158.736 Q2218.59 161.398 2222.04 161.398 Q2225.44 161.398 2227.43 158.713 Q2229.42 156.027 2229.42 151.398 Q2229.42 146.791 2227.43 144.106 Q2225.44 141.398 2222.04 141.398 M2222.04 137.787 Q2227.6 137.787 2230.77 141.398 Q2233.94 145.009 2233.94 151.398 Q2233.94 157.764 2230.77 161.398 Q2227.6 165.009 2222.04 165.009 Q2216.46 165.009 2213.29 161.398 Q2210.14 157.764 2210.14 151.398 Q2210.14 145.009 2213.29 141.398 Q2216.46 137.787 2222.04 137.787 Z" fill="#000000" fill-rule="nonzero" fill-opacity="1" /><path clip-path="url(#clip130)" d="M2251.04 141.398 Q2247.62 141.398 2245.63 144.083 Q2243.64 146.745 2243.64 151.398 Q2243.64 156.051 2245.6 158.736 Q2247.6 161.398 2251.04 161.398 Q2254.45 161.398 2256.44 158.713 Q2258.43 156.027 2258.43 151.398 Q2258.43 146.791 2256.44 144.106 Q2254.45 141.398 2251.04 141.398 M2251.04 137.787 Q2256.6 137.787 2259.77 141.398 Q2262.94 145.009 2262.94 151.398 Q2262.94 157.764 2259.77 161.398 Q2256.6 165.009 2251.04 165.009 Q2245.47 165.009 2242.29 161.398 Q2239.15 157.764 2239.15 151.398 Q2239.15 145.009 2242.29 141.398 Q2245.47 137.787 2251.04 137.787 Z" fill="#000000" fill-rule="nonzero" fill-opacity="1" /><path clip-path="url(#clip130)" d="M2274.22 131.051 L2274.22 138.412 L2282.99 138.412 L2282.99 141.722 L2274.22 141.722 L2274.22 155.796 Q2274.22 158.967 2275.07 159.87 Q2275.95 160.773 2278.61 160.773 L2282.99 160.773 L2282.99 164.338 L2278.61 164.338 Q2273.68 164.338 2271.81 162.509 Q2269.93 160.657 2269.93 155.796 L2269.93 141.722 L2266.81 141.722 L2266.81 138.412 L2269.93 138.412 L2269.93 131.051 L2274.22 131.051 Z" fill="#000000" fill-rule="nonzero" fill-opacity="1" /><path clip-path="url(#clip130)" d="M2310.14 148.689 L2310.14 164.338 L2305.88 164.338 L2305.88 148.828 Q2305.88 145.148 2304.45 143.319 Q2303.01 141.49 2300.14 141.49 Q2296.69 141.49 2294.7 143.69 Q2292.71 145.889 2292.71 149.685 L2292.71 164.338 L2288.43 164.338 L2288.43 128.319 L2292.71 128.319 L2292.71 142.44 Q2294.24 140.102 2296.3 138.944 Q2298.38 137.787 2301.09 137.787 Q2305.56 137.787 2307.85 140.565 Q2310.14 143.319 2310.14 148.689 Z" fill="#000000" fill-rule="nonzero" fill-opacity="1" /><polyline clip-path="url(#clip130)" style="stroke:#e26f46; stroke-linecap:round; stroke-linejoin:round; stroke-width:4; stroke-opacity:1; fill:none" points="1873.9,198.898 1937.82,198.898 "/>
<path clip-path="url(#clip130)" d="M1952.76 212.289 L1952.76 226.039 L1948.48 226.039 L1948.48 190.252 L1952.76 190.252 L1952.76 194.187 Q1954.1 191.872 1956.14 190.761 Q1958.2 189.627 1961.05 189.627 Q1965.77 189.627 1968.71 193.377 Q1971.67 197.127 1971.67 203.238 Q1971.67 209.349 1968.71 213.099 Q1965.77 216.849 1961.05 216.849 Q1958.2 216.849 1956.14 215.738 Q1954.1 214.603 1952.76 212.289 M1967.25 203.238 Q1967.25 198.539 1965.31 195.877 Q1963.38 193.192 1960 193.192 Q1956.63 193.192 1954.68 195.877 Q1952.76 198.539 1952.76 203.238 Q1952.76 207.937 1954.68 210.622 Q1956.63 213.284 1960 213.284 Q1963.38 213.284 1965.31 210.622 Q1967.25 207.937 1967.25 203.238 Z" fill="#000000" fill-rule="nonzero" fill-opacity="1" /><path clip-path="url(#clip130)" d="M1991.86 180.159 L1991.86 183.701 L1987.78 183.701 Q1985.49 183.701 1984.59 184.627 Q1983.71 185.553 1983.71 187.96 L1983.71 190.252 L1990.72 190.252 L1990.72 193.562 L1983.71 193.562 L1983.71 216.178 L1979.43 216.178 L1979.43 193.562 L1975.35 193.562 L1975.35 190.252 L1979.43 190.252 L1979.43 188.446 Q1979.43 184.118 1981.44 182.15 Q1983.45 180.159 1987.83 180.159 L1991.86 180.159 Z" fill="#000000" fill-rule="nonzero" fill-opacity="1" /><path clip-path="url(#clip130)" d="M2027.02 191.016 L2027.02 195.043 Q2025.21 194.117 2023.27 193.655 Q2021.32 193.192 2019.24 193.192 Q2016.07 193.192 2014.47 194.164 Q2012.9 195.136 2012.9 197.08 Q2012.9 198.562 2014.03 199.418 Q2015.17 200.252 2018.59 201.016 L2020.05 201.34 Q2024.59 202.312 2026.49 204.094 Q2028.41 205.854 2028.41 209.025 Q2028.41 212.636 2025.54 214.742 Q2022.69 216.849 2017.69 216.849 Q2015.61 216.849 2013.34 216.432 Q2011.09 216.039 2008.59 215.228 L2008.59 210.83 Q2010.95 212.057 2013.25 212.682 Q2015.54 213.284 2017.78 213.284 Q2020.79 213.284 2022.41 212.266 Q2024.03 211.224 2024.03 209.349 Q2024.03 207.613 2022.85 206.687 Q2021.69 205.761 2017.74 204.904 L2016.25 204.557 Q2012.3 203.724 2010.54 202.011 Q2008.78 200.275 2008.78 197.266 Q2008.78 193.608 2011.37 191.618 Q2013.96 189.627 2018.73 189.627 Q2021.09 189.627 2023.18 189.974 Q2025.26 190.321 2027.02 191.016 Z" fill="#000000" fill-rule="nonzero" fill-opacity="1" /><path clip-path="url(#clip130)" d="M2055.37 195.229 Q2056.97 192.358 2059.19 190.993 Q2061.42 189.627 2064.43 189.627 Q2068.48 189.627 2070.68 192.474 Q2072.87 195.298 2072.87 200.529 L2072.87 216.178 L2068.59 216.178 L2068.59 200.668 Q2068.59 196.942 2067.27 195.136 Q2065.95 193.33 2063.24 193.33 Q2059.93 193.33 2058.01 195.53 Q2056.09 197.729 2056.09 201.525 L2056.09 216.178 L2051.81 216.178 L2051.81 200.668 Q2051.81 196.918 2050.49 195.136 Q2049.17 193.33 2046.42 193.33 Q2043.15 193.33 2041.23 195.553 Q2039.31 197.752 2039.31 201.525 L2039.31 216.178 L2035.03 216.178 L2035.03 190.252 L2039.31 190.252 L2039.31 194.28 Q2040.77 191.895 2042.81 190.761 Q2044.84 189.627 2047.64 189.627 Q2050.47 189.627 2052.43 191.062 Q2054.43 192.497 2055.37 195.229 Z" fill="#000000" fill-rule="nonzero" fill-opacity="1" /><path clip-path="url(#clip130)" d="M2091.42 193.238 Q2087.99 193.238 2086 195.923 Q2084.01 198.585 2084.01 203.238 Q2084.01 207.891 2085.98 210.576 Q2087.97 213.238 2091.42 213.238 Q2094.82 213.238 2096.81 210.553 Q2098.8 207.867 2098.8 203.238 Q2098.8 198.631 2096.81 195.946 Q2094.82 193.238 2091.42 193.238 M2091.42 189.627 Q2096.97 189.627 2100.14 193.238 Q2103.31 196.849 2103.31 203.238 Q2103.31 209.604 2100.14 213.238 Q2096.97 216.849 2091.42 216.849 Q2085.84 216.849 2082.67 213.238 Q2079.52 209.604 2079.52 203.238 Q2079.52 196.849 2082.67 193.238 Q2085.84 189.627 2091.42 189.627 Z" fill="#000000" fill-rule="nonzero" fill-opacity="1" /><path clip-path="url(#clip130)" d="M2120.42 193.238 Q2116.99 193.238 2115 195.923 Q2113.01 198.585 2113.01 203.238 Q2113.01 207.891 2114.98 210.576 Q2116.97 213.238 2120.42 213.238 Q2123.82 213.238 2125.81 210.553 Q2127.8 207.867 2127.8 203.238 Q2127.8 198.631 2125.81 195.946 Q2123.82 193.238 2120.42 193.238 M2120.42 189.627 Q2125.98 189.627 2129.15 193.238 Q2132.32 196.849 2132.32 203.238 Q2132.32 209.604 2129.15 213.238 Q2125.98 216.849 2120.42 216.849 Q2114.84 216.849 2111.67 213.238 Q2108.52 209.604 2108.52 203.238 Q2108.52 196.849 2111.67 193.238 Q2114.84 189.627 2120.42 189.627 Z" fill="#000000" fill-rule="nonzero" fill-opacity="1" /><path clip-path="url(#clip130)" d="M2143.59 182.891 L2143.59 190.252 L2152.36 190.252 L2152.36 193.562 L2143.59 193.562 L2143.59 207.636 Q2143.59 210.807 2144.45 211.71 Q2145.33 212.613 2147.99 212.613 L2152.36 212.613 L2152.36 216.178 L2147.99 216.178 Q2143.06 216.178 2141.18 214.349 Q2139.31 212.497 2139.31 207.636 L2139.31 193.562 L2136.18 193.562 L2136.18 190.252 L2139.31 190.252 L2139.31 182.891 L2143.59 182.891 Z" fill="#000000" fill-rule="nonzero" fill-opacity="1" /><path clip-path="url(#clip130)" d="M2179.52 200.529 L2179.52 216.178 L2175.26 216.178 L2175.26 200.668 Q2175.26 196.988 2173.82 195.159 Q2172.39 193.33 2169.52 193.33 Q2166.07 193.33 2164.08 195.53 Q2162.09 197.729 2162.09 201.525 L2162.09 216.178 L2157.8 216.178 L2157.8 180.159 L2162.09 180.159 L2162.09 194.28 Q2163.61 191.942 2165.67 190.784 Q2167.76 189.627 2170.47 189.627 Q2174.93 189.627 2177.23 192.405 Q2179.52 195.159 2179.52 200.529 Z" fill="#000000" fill-rule="nonzero" fill-opacity="1" /><polyline clip-path="url(#clip130)" style="stroke:#3da44d; stroke-linecap:round; stroke-linejoin:round; stroke-width:4; stroke-opacity:1; fill:none" points="1873.9,250.738 1937.82,250.738 "/>
<path clip-path="url(#clip130)" d="M1955.88 234.731 L1955.88 242.092 L1964.66 242.092 L1964.66 245.402 L1955.88 245.402 L1955.88 259.476 Q1955.88 262.647 1956.74 263.55 Q1957.62 264.453 1960.28 264.453 L1964.66 264.453 L1964.66 268.018 L1960.28 268.018 Q1955.35 268.018 1953.48 266.189 Q1951.6 264.337 1951.6 259.476 L1951.6 245.402 L1948.48 245.402 L1948.48 242.092 L1951.6 242.092 L1951.6 234.731 L1955.88 234.731 Z" fill="#000000" fill-rule="nonzero" fill-opacity="1" /><path clip-path="url(#clip130)" d="M1985.28 246.073 Q1984.56 245.657 1983.71 245.471 Q1982.87 245.263 1981.86 245.263 Q1978.25 245.263 1976.3 247.624 Q1974.38 249.962 1974.38 254.36 L1974.38 268.018 L1970.1 268.018 L1970.1 242.092 L1974.38 242.092 L1974.38 246.12 Q1975.72 243.758 1977.87 242.624 Q1980.03 241.467 1983.11 241.467 Q1983.55 241.467 1984.08 241.536 Q1984.61 241.583 1985.26 241.698 L1985.28 246.073 Z" fill="#000000" fill-rule="nonzero" fill-opacity="1" /><path clip-path="url(#clip130)" d="M1989.31 257.786 L1989.31 242.092 L1993.57 242.092 L1993.57 257.624 Q1993.57 261.305 1995 263.156 Q1996.44 264.985 1999.31 264.985 Q2002.76 264.985 2004.75 262.786 Q2006.76 260.587 2006.76 256.791 L2006.76 242.092 L2011.02 242.092 L2011.02 268.018 L2006.76 268.018 L2006.76 264.036 Q2005.21 266.397 2003.15 267.555 Q2001.12 268.689 1998.41 268.689 Q1993.94 268.689 1991.62 265.911 Q1989.31 263.133 1989.31 257.786 M2000.03 241.467 L2000.03 241.467 Z" fill="#000000" fill-rule="nonzero" fill-opacity="1" /><path clip-path="url(#clip130)" d="M2041.97 253.99 L2041.97 256.073 L2022.39 256.073 Q2022.67 260.471 2025.03 262.786 Q2027.41 265.078 2031.65 265.078 Q2034.1 265.078 2036.39 264.476 Q2038.71 263.874 2040.98 262.67 L2040.98 266.698 Q2038.68 267.67 2036.28 268.18 Q2033.87 268.689 2031.39 268.689 Q2025.19 268.689 2021.56 265.078 Q2017.94 261.467 2017.94 255.309 Q2017.94 248.944 2021.37 245.217 Q2024.82 241.467 2030.65 241.467 Q2035.88 241.467 2038.92 244.846 Q2041.97 248.203 2041.97 253.99 M2037.71 252.74 Q2037.67 249.245 2035.75 247.161 Q2033.85 245.078 2030.7 245.078 Q2027.13 245.078 2024.98 247.092 Q2022.85 249.106 2022.53 252.763 L2037.71 252.74 Z" fill="#000000" fill-rule="nonzero" fill-opacity="1" /></svg>
