<?xml version="1.0" encoding="utf-8"?>
<svg xmlns="http://www.w3.org/2000/svg" xmlns:xlink="http://www.w3.org/1999/xlink" width="600" height="400" viewBox="0 0 2400 1600">
<defs>
  <clipPath id="clip890">
    <rect x="0" y="0" width="2400" height="1600"/>
  </clipPath>
</defs>
<path clip-path="url(#clip890)" d="M0 1600 L2400 1600 L2400 0 L0 0  Z" fill="#ffffff" fill-rule="evenodd" fill-opacity="1"/>
<defs>
  <clipPath id="clip891">
    <rect x="1393" y="47" width="960" height="1440"/>
  </clipPath>
</defs>
<path clip-path="url(#clip890)" d="M192.941 1486.45 L1152.26 1486.45 L1152.26 47.2441 L192.941 47.2441  Z" fill="#ffffff" fill-rule="evenodd" fill-opacity="1"/>
<defs>
  <clipPath id="clip892">
    <rect x="192" y="47" width="960" height="1440"/>
  </clipPath>
</defs>
<polyline clip-path="url(#clip892)" style="stroke:#000000; stroke-linecap:round; stroke-linejoin:round; stroke-width:2; stroke-opacity:0.1; fill:none" points="208.635,1486.45 208.635,47.2441 "/>
<polyline clip-path="url(#clip892)" style="stroke:#000000; stroke-linecap:round; stroke-linejoin:round; stroke-width:2; stroke-opacity:0.1; fill:none" points="437.753,1486.45 437.753,47.2441 "/>
<polyline clip-path="url(#clip892)" style="stroke:#000000; stroke-linecap:round; stroke-linejoin:round; stroke-width:2; stroke-opacity:0.1; fill:none" points="666.871,1486.45 666.871,47.2441 "/>
<polyline clip-path="url(#clip892)" style="stroke:#000000; stroke-linecap:round; stroke-linejoin:round; stroke-width:2; stroke-opacity:0.1; fill:none" points="895.99,1486.45 895.99,47.2441 "/>
<polyline clip-path="url(#clip892)" style="stroke:#000000; stroke-linecap:round; stroke-linejoin:round; stroke-width:2; stroke-opacity:0.1; fill:none" points="1125.11,1486.45 1125.11,47.2441 "/>
<polyline clip-path="url(#clip892)" style="stroke:#000000; stroke-linecap:round; stroke-linejoin:round; stroke-width:2; stroke-opacity:0.1; fill:none" points="192.941,1210.47 1152.26,1210.47 "/>
<polyline clip-path="url(#clip892)" style="stroke:#000000; stroke-linecap:round; stroke-linejoin:round; stroke-width:2; stroke-opacity:0.1; fill:none" points="192.941,864.316 1152.26,864.316 "/>
<polyline clip-path="url(#clip892)" style="stroke:#000000; stroke-linecap:round; stroke-linejoin:round; stroke-width:2; stroke-opacity:0.1; fill:none" points="192.941,518.165 1152.26,518.165 "/>
<polyline clip-path="url(#clip892)" style="stroke:#000000; stroke-linecap:round; stroke-linejoin:round; stroke-width:2; stroke-opacity:0.1; fill:none" points="192.941,172.014 1152.26,172.014 "/>
<polyline clip-path="url(#clip890)" style="stroke:#000000; stroke-linecap:round; stroke-linejoin:round; stroke-width:4; stroke-opacity:1; fill:none" points="192.941,1486.45 1152.26,1486.45 "/>
<polyline clip-path="url(#clip890)" style="stroke:#000000; stroke-linecap:round; stroke-linejoin:round; stroke-width:4; stroke-opacity:1; fill:none" points="208.635,1486.45 208.635,1467.55 "/>
<polyline clip-path="url(#clip890)" style="stroke:#000000; stroke-linecap:round; stroke-linejoin:round; stroke-width:4; stroke-opacity:1; fill:none" points="437.753,1486.45 437.753,1467.55 "/>
<polyline clip-path="url(#clip890)" style="stroke:#000000; stroke-linecap:round; stroke-linejoin:round; stroke-width:4; stroke-opacity:1; fill:none" points="666.871,1486.45 666.871,1467.55 "/>
<polyline clip-path="url(#clip890)" style="stroke:#000000; stroke-linecap:round; stroke-linejoin:round; stroke-width:4; stroke-opacity:1; fill:none" points="895.99,1486.45 895.99,1467.55 "/>
<polyline clip-path="url(#clip890)" style="stroke:#000000; stroke-linecap:round; stroke-linejoin:round; stroke-width:4; stroke-opacity:1; fill:none" points="1125.11,1486.45 1125.11,1467.55 "/>
<path clip-path="url(#clip890)" d="M208.635 1517.37 Q205.024 1517.37 203.195 1520.93 Q201.39 1524.47 201.39 1531.6 Q201.39 1538.71 203.195 1542.27 Q205.024 1545.82 208.635 1545.82 Q212.269 1545.82 214.075 1542.27 Q215.904 1538.71 215.904 1531.6 Q215.904 1524.47 214.075 1520.93 Q212.269 1517.37 208.635 1517.37 M208.635 1513.66 Q214.445 1513.66 217.501 1518.27 Q220.58 1522.85 220.58 1531.6 Q220.58 1540.33 217.501 1544.94 Q214.445 1549.52 208.635 1549.52 Q202.825 1549.52 199.746 1544.94 Q196.691 1540.33 196.691 1531.6 Q196.691 1522.85 199.746 1518.27 Q202.825 1513.66 208.635 1513.66 Z" fill="#000000" fill-rule="nonzero" fill-opacity="1" /><path clip-path="url(#clip890)" d="M416.527 1544.91 L432.846 1544.91 L432.846 1548.85 L410.902 1548.85 L410.902 1544.91 Q413.564 1542.16 418.147 1537.53 Q422.753 1532.88 423.934 1531.53 Q426.179 1529.01 427.059 1527.27 Q427.962 1525.51 427.962 1523.82 Q427.962 1521.07 426.017 1519.33 Q424.096 1517.6 420.994 1517.6 Q418.795 1517.6 416.341 1518.36 Q413.911 1519.13 411.133 1520.68 L411.133 1515.95 Q413.957 1514.82 416.411 1514.24 Q418.865 1513.66 420.902 1513.66 Q426.272 1513.66 429.466 1516.35 Q432.661 1519.03 432.661 1523.52 Q432.661 1525.65 431.851 1527.57 Q431.064 1529.47 428.957 1532.07 Q428.378 1532.74 425.277 1535.95 Q422.175 1539.15 416.527 1544.91 Z" fill="#000000" fill-rule="nonzero" fill-opacity="1" /><path clip-path="url(#clip890)" d="M452.661 1517.37 Q449.05 1517.37 447.221 1520.93 Q445.415 1524.47 445.415 1531.6 Q445.415 1538.71 447.221 1542.27 Q449.05 1545.82 452.661 1545.82 Q456.295 1545.82 458.1 1542.27 Q459.929 1538.71 459.929 1531.6 Q459.929 1524.47 458.1 1520.93 Q456.295 1517.37 452.661 1517.37 M452.661 1513.66 Q458.471 1513.66 461.526 1518.27 Q464.605 1522.85 464.605 1531.6 Q464.605 1540.33 461.526 1544.94 Q458.471 1549.52 452.661 1549.52 Q446.851 1549.52 443.772 1544.94 Q440.716 1540.33 440.716 1531.6 Q440.716 1522.85 443.772 1518.27 Q446.851 1513.66 452.661 1513.66 Z" fill="#000000" fill-rule="nonzero" fill-opacity="1" /><path clip-path="url(#clip890)" d="M655.043 1518.36 L643.237 1536.81 L655.043 1536.81 L655.043 1518.36 M653.816 1514.29 L659.696 1514.29 L659.696 1536.81 L664.626 1536.81 L664.626 1540.7 L659.696 1540.7 L659.696 1548.85 L655.043 1548.85 L655.043 1540.7 L639.441 1540.7 L639.441 1536.19 L653.816 1514.29 Z" fill="#000000" fill-rule="nonzero" fill-opacity="1" /><path clip-path="url(#clip890)" d="M682.358 1517.37 Q678.746 1517.37 676.918 1520.93 Q675.112 1524.47 675.112 1531.6 Q675.112 1538.71 676.918 1542.27 Q678.746 1545.82 682.358 1545.82 Q685.992 1545.82 687.797 1542.27 Q689.626 1538.71 689.626 1531.6 Q689.626 1524.47 687.797 1520.93 Q685.992 1517.37 682.358 1517.37 M682.358 1513.66 Q688.168 1513.66 691.223 1518.27 Q694.302 1522.85 694.302 1531.6 Q694.302 1540.33 691.223 1544.94 Q688.168 1549.52 682.358 1549.52 Q676.547 1549.52 673.469 1544.94 Q670.413 1540.33 670.413 1531.6 Q670.413 1522.85 673.469 1518.27 Q676.547 1513.66 682.358 1513.66 Z" fill="#000000" fill-rule="nonzero" fill-opacity="1" /><path clip-path="url(#clip890)" d="M881.395 1529.7 Q878.247 1529.7 876.395 1531.86 Q874.566 1534.01 874.566 1537.76 Q874.566 1541.49 876.395 1543.66 Q878.247 1545.82 881.395 1545.82 Q884.543 1545.82 886.372 1543.66 Q888.223 1541.49 888.223 1537.76 Q888.223 1534.01 886.372 1531.86 Q884.543 1529.7 881.395 1529.7 M890.677 1515.05 L890.677 1519.31 Q888.918 1518.48 887.112 1518.04 Q885.33 1517.6 883.571 1517.6 Q878.941 1517.6 876.487 1520.72 Q874.057 1523.85 873.71 1530.17 Q875.075 1528.15 877.136 1527.09 Q879.196 1526 881.673 1526 Q886.881 1526 889.89 1529.17 Q892.922 1532.32 892.922 1537.76 Q892.922 1543.08 889.774 1546.3 Q886.626 1549.52 881.395 1549.52 Q875.399 1549.52 872.228 1544.94 Q869.057 1540.33 869.057 1531.6 Q869.057 1523.41 872.946 1518.55 Q876.835 1513.66 883.386 1513.66 Q885.145 1513.66 886.927 1514.01 Q888.733 1514.36 890.677 1515.05 Z" fill="#000000" fill-rule="nonzero" fill-opacity="1" /><path clip-path="url(#clip890)" d="M910.978 1517.37 Q907.367 1517.37 905.538 1520.93 Q903.733 1524.47 903.733 1531.6 Q903.733 1538.71 905.538 1542.27 Q907.367 1545.82 910.978 1545.82 Q914.612 1545.82 916.418 1542.27 Q918.246 1538.71 918.246 1531.6 Q918.246 1524.47 916.418 1520.93 Q914.612 1517.37 910.978 1517.37 M910.978 1513.66 Q916.788 1513.66 919.844 1518.27 Q922.922 1522.85 922.922 1531.6 Q922.922 1540.33 919.844 1544.94 Q916.788 1549.52 910.978 1549.52 Q905.168 1549.52 902.089 1544.94 Q899.034 1540.33 899.034 1531.6 Q899.034 1522.85 902.089 1518.27 Q905.168 1513.66 910.978 1513.66 Z" fill="#000000" fill-rule="nonzero" fill-opacity="1" /><path clip-path="url(#clip890)" d="M1109.98 1532.44 Q1106.65 1532.44 1104.73 1534.22 Q1102.83 1536 1102.83 1539.13 Q1102.83 1542.25 1104.73 1544.03 Q1106.65 1545.82 1109.98 1545.82 Q1113.31 1545.82 1115.24 1544.03 Q1117.16 1542.23 1117.16 1539.13 Q1117.16 1536 1115.24 1534.22 Q1113.34 1532.44 1109.98 1532.44 M1105.3 1530.45 Q1102.3 1529.7 1100.61 1527.64 Q1098.94 1525.58 1098.94 1522.62 Q1098.94 1518.48 1101.88 1516.07 Q1104.84 1513.66 1109.98 1513.66 Q1115.14 1513.66 1118.08 1516.07 Q1121.02 1518.48 1121.02 1522.62 Q1121.02 1525.58 1119.33 1527.64 Q1117.67 1529.7 1114.68 1530.45 Q1118.06 1531.23 1119.93 1533.52 Q1121.83 1535.82 1121.83 1539.13 Q1121.83 1544.15 1118.75 1546.83 Q1115.7 1549.52 1109.98 1549.52 Q1104.26 1549.52 1101.18 1546.83 Q1098.13 1544.15 1098.13 1539.13 Q1098.13 1535.82 1100.03 1533.52 Q1101.92 1531.23 1105.3 1530.45 M1103.59 1523.06 Q1103.59 1525.75 1105.26 1527.25 Q1106.95 1528.76 1109.98 1528.76 Q1112.99 1528.76 1114.68 1527.25 Q1116.39 1525.75 1116.39 1523.06 Q1116.39 1520.38 1114.68 1518.87 Q1112.99 1517.37 1109.98 1517.37 Q1106.95 1517.37 1105.26 1518.87 Q1103.59 1520.38 1103.59 1523.06 Z" fill="#000000" fill-rule="nonzero" fill-opacity="1" /><path clip-path="url(#clip890)" d="M1140.14 1517.37 Q1136.53 1517.37 1134.7 1520.93 Q1132.9 1524.47 1132.9 1531.6 Q1132.9 1538.71 1134.7 1542.27 Q1136.53 1545.82 1140.14 1545.82 Q1143.78 1545.82 1145.58 1542.27 Q1147.41 1538.71 1147.41 1531.6 Q1147.41 1524.47 1145.58 1520.93 Q1143.78 1517.37 1140.14 1517.37 M1140.14 1513.66 Q1145.95 1513.66 1149.01 1518.27 Q1152.09 1522.85 1152.09 1531.6 Q1152.09 1540.33 1149.01 1544.94 Q1145.95 1549.52 1140.14 1549.52 Q1134.33 1549.52 1131.25 1544.94 Q1128.2 1540.33 1128.2 1531.6 Q1128.2 1522.85 1131.25 1518.27 Q1134.33 1513.66 1140.14 1513.66 Z" fill="#000000" fill-rule="nonzero" fill-opacity="1" /><polyline clip-path="url(#clip890)" style="stroke:#000000; stroke-linecap:round; stroke-linejoin:round; stroke-width:4; stroke-opacity:1; fill:none" points="192.941,1486.45 192.941,47.2441 "/>
<polyline clip-path="url(#clip890)" style="stroke:#000000; stroke-linecap:round; stroke-linejoin:round; stroke-width:4; stroke-opacity:1; fill:none" points="192.941,1210.47 211.838,1210.47 "/>
<polyline clip-path="url(#clip890)" style="stroke:#000000; stroke-linecap:round; stroke-linejoin:round; stroke-width:4; stroke-opacity:1; fill:none" points="192.941,864.316 211.838,864.316 "/>
<polyline clip-path="url(#clip890)" style="stroke:#000000; stroke-linecap:round; stroke-linejoin:round; stroke-width:4; stroke-opacity:1; fill:none" points="192.941,518.165 211.838,518.165 "/>
<polyline clip-path="url(#clip890)" style="stroke:#000000; stroke-linecap:round; stroke-linejoin:round; stroke-width:4; stroke-opacity:1; fill:none" points="192.941,172.014 211.838,172.014 "/>
<path clip-path="url(#clip890)" d="M50.9921 1210.92 L80.6679 1210.92 L80.6679 1214.85 L50.9921 1214.85 L50.9921 1210.92 Z" fill="#000000" fill-rule="nonzero" fill-opacity="1" /><path clip-path="url(#clip890)" d="M100.76 1196.27 Q97.1493 1196.27 95.3206 1199.83 Q93.515 1203.37 93.515 1210.5 Q93.515 1217.61 95.3206 1221.17 Q97.1493 1224.72 100.76 1224.72 Q104.395 1224.72 106.2 1221.17 Q108.029 1217.61 108.029 1210.5 Q108.029 1203.37 106.2 1199.83 Q104.395 1196.27 100.76 1196.27 M100.76 1192.56 Q106.571 1192.56 109.626 1197.17 Q112.705 1201.75 112.705 1210.5 Q112.705 1219.23 109.626 1223.84 Q106.571 1228.42 100.76 1228.42 Q94.9502 1228.42 91.8715 1223.84 Q88.816 1219.23 88.816 1210.5 Q88.816 1201.75 91.8715 1197.17 Q94.9502 1192.56 100.76 1192.56 Z" fill="#000000" fill-rule="nonzero" fill-opacity="1" /><path clip-path="url(#clip890)" d="M120.922 1221.87 L125.807 1221.87 L125.807 1227.75 L120.922 1227.75 L120.922 1221.87 Z" fill="#000000" fill-rule="nonzero" fill-opacity="1" /><path clip-path="url(#clip890)" d="M136.038 1193.19 L154.394 1193.19 L154.394 1197.12 L140.32 1197.12 L140.32 1205.59 Q141.339 1205.25 142.357 1205.09 Q143.376 1204.9 144.394 1204.9 Q150.181 1204.9 153.561 1208.07 Q156.941 1211.24 156.941 1216.66 Q156.941 1222.24 153.468 1225.34 Q149.996 1228.42 143.677 1228.42 Q141.501 1228.42 139.232 1228.05 Q136.987 1227.68 134.58 1226.94 L134.58 1222.24 Q136.663 1223.37 138.885 1223.93 Q141.107 1224.48 143.584 1224.48 Q147.589 1224.48 149.927 1222.38 Q152.265 1220.27 152.265 1216.66 Q152.265 1213.05 149.927 1210.94 Q147.589 1208.84 143.584 1208.84 Q141.709 1208.84 139.834 1209.25 Q137.982 1209.67 136.038 1210.55 L136.038 1193.19 Z" fill="#000000" fill-rule="nonzero" fill-opacity="1" /><path clip-path="url(#clip890)" d="M99.765 850.115 Q96.1539 850.115 94.3252 853.68 Q92.5197 857.221 92.5197 864.351 Q92.5197 871.457 94.3252 875.022 Q96.1539 878.564 99.765 878.564 Q103.399 878.564 105.205 875.022 Q107.033 871.457 107.033 864.351 Q107.033 857.221 105.205 853.68 Q103.399 850.115 99.765 850.115 M99.765 846.411 Q105.575 846.411 108.631 851.018 Q111.709 855.601 111.709 864.351 Q111.709 873.078 108.631 877.684 Q105.575 882.268 99.765 882.268 Q93.9549 882.268 90.8762 877.684 Q87.8206 873.078 87.8206 864.351 Q87.8206 855.601 90.8762 851.018 Q93.9549 846.411 99.765 846.411 Z" fill="#000000" fill-rule="nonzero" fill-opacity="1" /><path clip-path="url(#clip890)" d="M119.927 875.717 L124.811 875.717 L124.811 881.596 L119.927 881.596 L119.927 875.717 Z" fill="#000000" fill-rule="nonzero" fill-opacity="1" /><path clip-path="url(#clip890)" d="M144.996 850.115 Q141.385 850.115 139.556 853.68 Q137.751 857.221 137.751 864.351 Q137.751 871.457 139.556 875.022 Q141.385 878.564 144.996 878.564 Q148.63 878.564 150.436 875.022 Q152.265 871.457 152.265 864.351 Q152.265 857.221 150.436 853.68 Q148.63 850.115 144.996 850.115 M144.996 846.411 Q150.806 846.411 153.862 851.018 Q156.941 855.601 156.941 864.351 Q156.941 873.078 153.862 877.684 Q150.806 882.268 144.996 882.268 Q139.186 882.268 136.107 877.684 Q133.052 873.078 133.052 864.351 Q133.052 855.601 136.107 851.018 Q139.186 846.411 144.996 846.411 Z" fill="#000000" fill-rule="nonzero" fill-opacity="1" /><path clip-path="url(#clip890)" d="M100.76 503.964 Q97.1493 503.964 95.3206 507.529 Q93.515 511.07 93.515 518.2 Q93.515 525.306 95.3206 528.871 Q97.1493 532.413 100.76 532.413 Q104.395 532.413 106.2 528.871 Q108.029 525.306 108.029 518.2 Q108.029 511.07 106.2 507.529 Q104.395 503.964 100.76 503.964 M100.76 500.26 Q106.571 500.26 109.626 504.866 Q112.705 509.45 112.705 518.2 Q112.705 526.927 109.626 531.533 Q106.571 536.116 100.76 536.116 Q94.9502 536.116 91.8715 531.533 Q88.816 526.927 88.816 518.2 Q88.816 509.45 91.8715 504.866 Q94.9502 500.26 100.76 500.26 Z" fill="#000000" fill-rule="nonzero" fill-opacity="1" /><path clip-path="url(#clip890)" d="M120.922 529.565 L125.807 529.565 L125.807 535.445 L120.922 535.445 L120.922 529.565 Z" fill="#000000" fill-rule="nonzero" fill-opacity="1" /><path clip-path="url(#clip890)" d="M136.038 500.885 L154.394 500.885 L154.394 504.82 L140.32 504.82 L140.32 513.292 Q141.339 512.945 142.357 512.783 Q143.376 512.598 144.394 512.598 Q150.181 512.598 153.561 515.769 Q156.941 518.94 156.941 524.357 Q156.941 529.936 153.468 533.038 Q149.996 536.116 143.677 536.116 Q141.501 536.116 139.232 535.746 Q136.987 535.376 134.58 534.635 L134.58 529.936 Q136.663 531.07 138.885 531.626 Q141.107 532.181 143.584 532.181 Q147.589 532.181 149.927 530.075 Q152.265 527.968 152.265 524.357 Q152.265 520.746 149.927 518.64 Q147.589 516.533 143.584 516.533 Q141.709 516.533 139.834 516.95 Q137.982 517.366 136.038 518.246 L136.038 500.885 Z" fill="#000000" fill-rule="nonzero" fill-opacity="1" /><path clip-path="url(#clip890)" d="M90.5752 185.359 L98.2141 185.359 L98.2141 158.993 L89.904 160.66 L89.904 156.4 L98.1678 154.734 L102.844 154.734 L102.844 185.359 L110.483 185.359 L110.483 189.294 L90.5752 189.294 L90.5752 185.359 Z" fill="#000000" fill-rule="nonzero" fill-opacity="1" /><path clip-path="url(#clip890)" d="M119.927 183.414 L124.811 183.414 L124.811 189.294 L119.927 189.294 L119.927 183.414 Z" fill="#000000" fill-rule="nonzero" fill-opacity="1" /><path clip-path="url(#clip890)" d="M144.996 157.812 Q141.385 157.812 139.556 161.377 Q137.751 164.919 137.751 172.049 Q137.751 179.155 139.556 182.72 Q141.385 186.261 144.996 186.261 Q148.63 186.261 150.436 182.72 Q152.265 179.155 152.265 172.049 Q152.265 164.919 150.436 161.377 Q148.63 157.812 144.996 157.812 M144.996 154.109 Q150.806 154.109 153.862 158.715 Q156.941 163.299 156.941 172.049 Q156.941 180.775 153.862 185.382 Q150.806 189.965 144.996 189.965 Q139.186 189.965 136.107 185.382 Q133.052 180.775 133.052 172.049 Q133.052 163.299 136.107 158.715 Q139.186 154.109 144.996 154.109 Z" fill="#000000" fill-rule="nonzero" fill-opacity="1" /><polyline clip-path="url(#clip892)" style="stroke:#009af9; stroke-linecap:round; stroke-linejoin:round; stroke-width:4; stroke-opacity:1; fill:none" points="220.091,491.784 231.547,445.779 243.003,378.899 254.459,346.819 265.915,202.779 277.371,87.9763 288.827,198.815 300.282,263.07 311.738,239.448 323.194,164.072 334.65,313.463 346.106,269.528 357.562,237.19 369.018,279.022 380.474,336.266 391.93,389.442 403.386,373.979 414.842,469.641 426.297,422.385 437.753,439.423 449.209,491.646 460.665,428.272 472.121,481.022 483.577,415.306 495.033,447.242 506.489,429.698 517.945,472.584 529.401,414.255 540.857,535.907 552.312,709.216 563.768,856.192 575.224,850.904 586.68,937.496 598.136,985.415 609.592,1120.32 621.048,1095.04 632.504,1077.57 643.96,1075.28 655.416,1134.53 666.871,1079.38 678.327,1134.1 689.783,1113.62 701.239,1213.89 712.695,1050.99 724.151,1050.94 735.607,1014.08 747.063,982.64 758.519,903.726 769.975,893.741 781.431,916.426 792.886,817.052 804.342,739.198 815.798,749.584 827.254,876.668 838.71,941.405 850.166,968.731 861.622,975.514 873.078,1027.84 884.534,1007.97 895.99,934.726 907.446,877.389 918.901,853.454 930.357,878.804 941.813,947.715 953.269,1024.27 964.725,1159.89 976.181,1198.81 987.637,1164.42 999.093,1111.11 1010.55,1139.05 1022,1109.31 1033.46,1123.87 1044.92,1227.16 1056.37,1376.39 1067.83,1338.5 1079.28,1376.31 1090.74,1351.76 1102.2,1357.44 1113.65,1398.95 1125.11,1445.72 "/>
<polyline clip-path="url(#clip892)" style="stroke:#e26f46; stroke-linecap:round; stroke-linejoin:round; stroke-width:4; stroke-opacity:1; fill:none" points="220.091,516.081 231.547,463.962 243.003,393.288 254.459,362.62 265.915,221.864 277.371,112.179 288.827,221.53 300.282,287.516 311.738,260.037 323.194,185.464 334.65,342.915 346.106,294.355 357.562,258.99 369.018,310.129 380.474,365.913 391.93,424.703 403.386,410.518 414.842,514.403 426.297,475.654 437.753,493.743 449.209,544.242 460.665,464.88 472.121,541.678 483.577,488.144 495.033,528.192 506.489,494.901 517.945,534.151 529.401,470.304 540.857,586.088 552.312,746.049 563.768,886.636 575.224,871.299 586.68,963.34 598.136,1005.84 609.592,1134.36 621.048,1106.13 632.504,1087.29 643.96,1087.05 655.416,1143.79 666.871,1083.46 678.327,1134.03 689.783,1101.99 701.239,1195.31 712.695,1034.09 724.151,1030.96 735.607,1000.84 747.063,956.759 758.519,869.966 769.975,859.651 781.431,889.393 792.886,783.703 804.342,710.564 815.798,729.559 827.254,857.206 838.71,920.969 850.166,956.308 861.622,964.791 873.078,1013.12 884.534,1006.13 895.99,935.113 907.446,874.729 918.901,851.022 930.357,869.938 941.813,946.873 953.269,1026.04 964.725,1161.53 976.181,1210.21 987.637,1174.11 999.093,1106.13 1010.55,1126.58 1022,1087.32 1033.46,1085.57 1044.92,1191.76 1056.37,1350.28 1067.83,1326.09 1079.28,1371.79 1090.74,1347.3 1102.2,1343.52 1113.65,1388.29 1125.11,1419.05 "/>
<polyline clip-path="url(#clip892)" style="stroke:#3da44d; stroke-linecap:round; stroke-linejoin:round; stroke-width:4; stroke-opacity:1; fill:none" points="220.091,732.828 231.547,615.456 243.003,601.034 254.459,611.785 265.915,393.555 277.371,264.668 288.827,463.377 300.282,359.885 311.738,274.187 323.194,141.874 334.65,363.413 346.106,268.149 357.562,325.117 369.018,326.204 380.474,288.87 391.93,366.519 403.386,329.818 414.842,463.587 426.297,322.918 437.753,251.704 449.209,348.185 460.665,377.138 472.121,527.97 483.577,498.136 495.033,462.577 506.489,468.565 517.945,541.428 529.401,562.836 540.857,576.553 552.312,763.523 563.768,944.67 575.224,974.273 586.68,1046.43 598.136,1051.93 609.592,1165 621.048,1095.66 632.504,1128.03 643.96,1056.25 655.416,1072.18 666.871,954.861 678.327,950.836 689.783,986.047 701.239,1183.63 712.695,1070.7 724.151,920.619 735.607,881.086 747.063,796.01 758.519,672.803 769.975,620.924 781.431,668.016 792.886,547.654 804.342,595.255 815.798,574.216 827.254,722.631 838.71,852.914 850.166,937.815 861.622,1055.24 873.078,1186.83 884.534,1247.45 895.99,1238.96 907.446,1184.62 918.901,1033.67 930.357,1061.15 941.813,1157.02 953.269,1243.72 964.725,1308.04 976.181,1259.73 987.637,1209.85 999.093,1185.53 1010.55,1128.34 1022,1032.33 1033.46,1012.54 1044.92,1070.84 1056.37,1284.15 1067.83,1375.34 1079.28,1327.4 1090.74,1349.45 1102.2,1205.21 1113.65,1197.46 1125.11,1173.06 "/>
<path clip-path="url(#clip890)" d="M662.684 302.578 L1120.28 302.578 L1120.28 95.2176 L662.684 95.2176  Z" fill="#ffffff" fill-rule="evenodd" fill-opacity="1"/>
<polyline clip-path="url(#clip890)" style="stroke:#000000; stroke-linecap:round; stroke-linejoin:round; stroke-width:4; stroke-opacity:1; fill:none" points="662.684,302.578 1120.28,302.578 1120.28,95.2176 662.684,95.2176 662.684,302.578 "/>
<polyline clip-path="url(#clip890)" style="stroke:#009af9; stroke-linecap:round; stroke-linejoin:round; stroke-width:4; stroke-opacity:1; fill:none" points="673.344,147.058 737.298,147.058 "/>
<path clip-path="url(#clip890)" d="M747.957 129.778 L752.633 129.778 L752.633 144.384 L768.142 129.778 L774.161 129.778 L757.008 145.889 L775.388 164.338 L769.23 164.338 L752.633 147.694 L752.633 164.338 L747.957 164.338 L747.957 129.778 Z" fill="#000000" fill-rule="nonzero" fill-opacity="1" /><path clip-path="url(#clip890)" d="M789.809 151.305 Q784.647 151.305 782.656 152.486 Q780.665 153.666 780.665 156.514 Q780.665 158.782 782.147 160.125 Q783.651 161.444 786.221 161.444 Q789.762 161.444 791.892 158.944 Q794.045 156.421 794.045 152.254 L794.045 151.305 L789.809 151.305 M798.304 149.546 L798.304 164.338 L794.045 164.338 L794.045 160.402 Q792.587 162.763 790.411 163.898 Q788.235 165.009 785.087 165.009 Q781.105 165.009 778.744 162.787 Q776.406 160.541 776.406 156.791 Q776.406 152.416 779.323 150.194 Q782.263 147.972 788.073 147.972 L794.045 147.972 L794.045 147.555 Q794.045 144.615 792.1 143.018 Q790.179 141.398 786.684 141.398 Q784.462 141.398 782.355 141.93 Q780.249 142.463 778.304 143.527 L778.304 139.592 Q780.642 138.69 782.841 138.25 Q785.04 137.787 787.124 137.787 Q792.749 137.787 795.526 140.703 Q798.304 143.62 798.304 149.546 Z" fill="#000000" fill-rule="nonzero" fill-opacity="1" /><path clip-path="url(#clip890)" d="M807.077 128.319 L811.336 128.319 L811.336 164.338 L807.077 164.338 L807.077 128.319 Z" fill="#000000" fill-rule="nonzero" fill-opacity="1" /><path clip-path="url(#clip890)" d="M840.434 143.389 Q842.031 140.518 844.253 139.153 Q846.475 137.787 849.484 137.787 Q853.535 137.787 855.734 140.634 Q857.933 143.458 857.933 148.689 L857.933 164.338 L853.651 164.338 L853.651 148.828 Q853.651 145.102 852.332 143.296 Q851.012 141.49 848.304 141.49 Q844.994 141.49 843.072 143.69 Q841.151 145.889 841.151 149.685 L841.151 164.338 L836.869 164.338 L836.869 148.828 Q836.869 145.078 835.549 143.296 Q834.23 141.49 831.475 141.49 Q828.211 141.49 826.29 143.713 Q824.369 145.912 824.369 149.685 L824.369 164.338 L820.086 164.338 L820.086 138.412 L824.369 138.412 L824.369 142.44 Q825.827 140.055 827.864 138.921 Q829.901 137.787 832.702 137.787 Q835.526 137.787 837.494 139.222 Q839.484 140.657 840.434 143.389 Z" fill="#000000" fill-rule="nonzero" fill-opacity="1" /><path clip-path="url(#clip890)" d="M878.211 151.305 Q873.049 151.305 871.058 152.486 Q869.068 153.666 869.068 156.514 Q869.068 158.782 870.549 160.125 Q872.054 161.444 874.623 161.444 Q878.165 161.444 880.294 158.944 Q882.447 156.421 882.447 152.254 L882.447 151.305 L878.211 151.305 M886.706 149.546 L886.706 164.338 L882.447 164.338 L882.447 160.402 Q880.989 162.763 878.813 163.898 Q876.637 165.009 873.489 165.009 Q869.507 165.009 867.146 162.787 Q864.808 160.541 864.808 156.791 Q864.808 152.416 867.725 150.194 Q870.665 147.972 876.475 147.972 L882.447 147.972 L882.447 147.555 Q882.447 144.615 880.503 143.018 Q878.581 141.398 875.086 141.398 Q872.864 141.398 870.757 141.93 Q868.651 142.463 866.707 143.527 L866.707 139.592 Q869.044 138.69 871.244 138.25 Q873.443 137.787 875.526 137.787 Q881.151 137.787 883.929 140.703 Q886.706 143.62 886.706 149.546 Z" fill="#000000" fill-rule="nonzero" fill-opacity="1" /><path clip-path="url(#clip890)" d="M917.03 148.689 L917.03 164.338 L912.771 164.338 L912.771 148.828 Q912.771 145.148 911.336 143.319 Q909.901 141.49 907.03 141.49 Q903.581 141.49 901.591 143.69 Q899.6 145.889 899.6 149.685 L899.6 164.338 L895.317 164.338 L895.317 138.412 L899.6 138.412 L899.6 142.44 Q901.128 140.102 903.188 138.944 Q905.271 137.787 907.979 137.787 Q912.447 137.787 914.739 140.565 Q917.03 143.319 917.03 148.689 Z" fill="#000000" fill-rule="nonzero" fill-opacity="1" /><path clip-path="url(#clip890)" d="M957.123 139.176 L957.123 143.203 Q955.317 142.277 953.373 141.815 Q951.428 141.352 949.345 141.352 Q946.174 141.352 944.576 142.324 Q943.002 143.296 943.002 145.24 Q943.002 146.722 944.137 147.578 Q945.271 148.412 948.697 149.176 L950.155 149.5 Q954.692 150.472 956.59 152.254 Q958.512 154.014 958.512 157.185 Q958.512 160.796 955.641 162.902 Q952.794 165.009 947.794 165.009 Q945.711 165.009 943.442 164.592 Q941.197 164.199 938.697 163.388 L938.697 158.99 Q941.058 160.217 943.35 160.842 Q945.641 161.444 947.887 161.444 Q950.896 161.444 952.516 160.426 Q954.137 159.384 954.137 157.509 Q954.137 155.773 952.956 154.847 Q951.799 153.921 947.84 153.064 L946.359 152.717 Q942.401 151.884 940.641 150.171 Q938.882 148.435 938.882 145.426 Q938.882 141.768 941.475 139.778 Q944.067 137.787 948.836 137.787 Q951.197 137.787 953.28 138.134 Q955.363 138.481 957.123 139.176 Z" fill="#000000" fill-rule="nonzero" fill-opacity="1" /><path clip-path="url(#clip890)" d="M985.479 143.389 Q987.076 140.518 989.298 139.153 Q991.521 137.787 994.53 137.787 Q998.581 137.787 1000.78 140.634 Q1002.98 143.458 1002.98 148.689 L1002.98 164.338 L998.697 164.338 L998.697 148.828 Q998.697 145.102 997.377 143.296 Q996.058 141.49 993.349 141.49 Q990.039 141.49 988.118 143.69 Q986.197 145.889 986.197 149.685 L986.197 164.338 L981.914 164.338 L981.914 148.828 Q981.914 145.078 980.595 143.296 Q979.275 141.49 976.521 141.49 Q973.257 141.49 971.336 143.713 Q969.414 145.912 969.414 149.685 L969.414 164.338 L965.132 164.338 L965.132 138.412 L969.414 138.412 L969.414 142.44 Q970.873 140.055 972.91 138.921 Q974.947 137.787 977.748 137.787 Q980.572 137.787 982.539 139.222 Q984.53 140.657 985.479 143.389 Z" fill="#000000" fill-rule="nonzero" fill-opacity="1" /><path clip-path="url(#clip890)" d="M1021.52 141.398 Q1018.09 141.398 1016.1 144.083 Q1014.11 146.745 1014.11 151.398 Q1014.11 156.051 1016.08 158.736 Q1018.07 161.398 1021.52 161.398 Q1024.92 161.398 1026.91 158.713 Q1028.9 156.027 1028.9 151.398 Q1028.9 146.791 1026.91 144.106 Q1024.92 141.398 1021.52 141.398 M1021.52 137.787 Q1027.08 137.787 1030.25 141.398 Q1033.42 145.009 1033.42 151.398 Q1033.42 157.764 1030.25 161.398 Q1027.08 165.009 1021.52 165.009 Q1015.94 165.009 1012.77 161.398 Q1009.62 157.764 1009.62 151.398 Q1009.62 145.009 1012.77 141.398 Q1015.94 137.787 1021.52 137.787 Z" fill="#000000" fill-rule="nonzero" fill-opacity="1" /><path clip-path="url(#clip890)" d="M1050.52 141.398 Q1047.1 141.398 1045.11 144.083 Q1043.12 146.745 1043.12 151.398 Q1043.12 156.051 1045.09 158.736 Q1047.08 161.398 1050.52 161.398 Q1053.93 161.398 1055.92 158.713 Q1057.91 156.027 1057.91 151.398 Q1057.91 146.791 1055.92 144.106 Q1053.93 141.398 1050.52 141.398 M1050.52 137.787 Q1056.08 137.787 1059.25 141.398 Q1062.42 145.009 1062.42 151.398 Q1062.42 157.764 1059.25 161.398 Q1056.08 165.009 1050.52 165.009 Q1044.95 165.009 1041.78 161.398 Q1038.63 157.764 1038.63 151.398 Q1038.63 145.009 1041.78 141.398 Q1044.95 137.787 1050.52 137.787 Z" fill="#000000" fill-rule="nonzero" fill-opacity="1" /><path clip-path="url(#clip890)" d="M1073.7 131.051 L1073.7 138.412 L1082.47 138.412 L1082.47 141.722 L1073.7 141.722 L1073.7 155.796 Q1073.7 158.967 1074.55 159.87 Q1075.43 160.773 1078.09 160.773 L1082.47 160.773 L1082.47 164.338 L1078.09 164.338 Q1073.16 164.338 1071.29 162.509 Q1069.41 160.657 1069.41 155.796 L1069.41 141.722 L1066.29 141.722 L1066.29 138.412 L1069.41 138.412 L1069.41 131.051 L1073.7 131.051 Z" fill="#000000" fill-rule="nonzero" fill-opacity="1" /><path clip-path="url(#clip890)" d="M1109.62 148.689 L1109.62 164.338 L1105.36 164.338 L1105.36 148.828 Q1105.36 145.148 1103.93 143.319 Q1102.49 141.49 1099.62 141.49 Q1096.17 141.49 1094.18 143.69 Q1092.19 145.889 1092.19 149.685 L1092.19 164.338 L1087.91 164.338 L1087.91 128.319 L1092.19 128.319 L1092.19 142.44 Q1093.72 140.102 1095.78 138.944 Q1097.86 137.787 1100.57 137.787 Q1105.04 137.787 1107.33 140.565 Q1109.62 143.319 1109.62 148.689 Z" fill="#000000" fill-rule="nonzero" fill-opacity="1" /><polyline clip-path="url(#clip890)" style="stroke:#e26f46; stroke-linecap:round; stroke-linejoin:round; stroke-width:4; stroke-opacity:1; fill:none" points="673.344,198.898 737.298,198.898 "/>
<path clip-path="url(#clip890)" d="M752.24 212.289 L752.24 226.039 L747.957 226.039 L747.957 190.252 L752.24 190.252 L752.24 194.187 Q753.582 191.872 755.619 190.761 Q757.679 189.627 760.527 189.627 Q765.249 189.627 768.189 193.377 Q771.151 197.127 771.151 203.238 Q771.151 209.349 768.189 213.099 Q765.249 216.849 760.527 216.849 Q757.679 216.849 755.619 215.738 Q753.582 214.603 752.24 212.289 M766.73 203.238 Q766.73 198.539 764.786 195.877 Q762.864 193.192 759.485 193.192 Q756.105 193.192 754.161 195.877 Q752.24 198.539 752.24 203.238 Q752.24 207.937 754.161 210.622 Q756.105 213.284 759.485 213.284 Q762.864 213.284 764.786 210.622 Q766.73 207.937 766.73 203.238 Z" fill="#000000" fill-rule="nonzero" fill-opacity="1" /><path clip-path="url(#clip890)" d="M791.337 180.159 L791.337 183.701 L787.263 183.701 Q784.971 183.701 784.068 184.627 Q783.188 185.553 783.188 187.96 L783.188 190.252 L790.202 190.252 L790.202 193.562 L783.188 193.562 L783.188 216.178 L778.906 216.178 L778.906 193.562 L774.832 193.562 L774.832 190.252 L778.906 190.252 L778.906 188.446 Q778.906 184.118 780.92 182.15 Q782.934 180.159 787.309 180.159 L791.337 180.159 Z" fill="#000000" fill-rule="nonzero" fill-opacity="1" /><path clip-path="url(#clip890)" d="M826.498 191.016 L826.498 195.043 Q824.693 194.117 822.748 193.655 Q820.804 193.192 818.721 193.192 Q815.549 193.192 813.952 194.164 Q812.378 195.136 812.378 197.08 Q812.378 198.562 813.512 199.418 Q814.647 200.252 818.073 201.016 L819.531 201.34 Q824.068 202.312 825.966 204.094 Q827.887 205.854 827.887 209.025 Q827.887 212.636 825.017 214.742 Q822.17 216.849 817.17 216.849 Q815.086 216.849 812.818 216.432 Q810.573 216.039 808.073 215.228 L808.073 210.83 Q810.434 212.057 812.725 212.682 Q815.017 213.284 817.262 213.284 Q820.272 213.284 821.892 212.266 Q823.512 211.224 823.512 209.349 Q823.512 207.613 822.332 206.687 Q821.174 205.761 817.216 204.904 L815.735 204.557 Q811.776 203.724 810.017 202.011 Q808.258 200.275 808.258 197.266 Q808.258 193.608 810.85 191.618 Q813.443 189.627 818.211 189.627 Q820.573 189.627 822.656 189.974 Q824.739 190.321 826.498 191.016 Z" fill="#000000" fill-rule="nonzero" fill-opacity="1" /><path clip-path="url(#clip890)" d="M854.855 195.229 Q856.452 192.358 858.674 190.993 Q860.896 189.627 863.906 189.627 Q867.957 189.627 870.156 192.474 Q872.355 195.298 872.355 200.529 L872.355 216.178 L868.072 216.178 L868.072 200.668 Q868.072 196.942 866.753 195.136 Q865.433 193.33 862.725 193.33 Q859.415 193.33 857.494 195.53 Q855.572 197.729 855.572 201.525 L855.572 216.178 L851.29 216.178 L851.29 200.668 Q851.29 196.918 849.97 195.136 Q848.651 193.33 845.896 193.33 Q842.633 193.33 840.711 195.553 Q838.79 197.752 838.79 201.525 L838.79 216.178 L834.508 216.178 L834.508 190.252 L838.79 190.252 L838.79 194.28 Q840.248 191.895 842.285 190.761 Q844.322 189.627 847.123 189.627 Q849.947 189.627 851.915 191.062 Q853.906 192.497 854.855 195.229 Z" fill="#000000" fill-rule="nonzero" fill-opacity="1" /><path clip-path="url(#clip890)" d="M890.896 193.238 Q887.47 193.238 885.48 195.923 Q883.489 198.585 883.489 203.238 Q883.489 207.891 885.456 210.576 Q887.447 213.238 890.896 213.238 Q894.299 213.238 896.29 210.553 Q898.28 207.867 898.28 203.238 Q898.28 198.631 896.29 195.946 Q894.299 193.238 890.896 193.238 M890.896 189.627 Q896.452 189.627 899.623 193.238 Q902.794 196.849 902.794 203.238 Q902.794 209.604 899.623 213.238 Q896.452 216.849 890.896 216.849 Q885.318 216.849 882.146 213.238 Q878.998 209.604 878.998 203.238 Q878.998 196.849 882.146 193.238 Q885.318 189.627 890.896 189.627 Z" fill="#000000" fill-rule="nonzero" fill-opacity="1" /><path clip-path="url(#clip890)" d="M919.901 193.238 Q916.475 193.238 914.484 195.923 Q912.493 198.585 912.493 203.238 Q912.493 207.891 914.461 210.576 Q916.452 213.238 919.901 213.238 Q923.303 213.238 925.294 210.553 Q927.285 207.867 927.285 203.238 Q927.285 198.631 925.294 195.946 Q923.303 193.238 919.901 193.238 M919.901 189.627 Q925.456 189.627 928.627 193.238 Q931.799 196.849 931.799 203.238 Q931.799 209.604 928.627 213.238 Q925.456 216.849 919.901 216.849 Q914.322 216.849 911.151 213.238 Q908.003 209.604 908.003 203.238 Q908.003 196.849 911.151 193.238 Q914.322 189.627 919.901 189.627 Z" fill="#000000" fill-rule="nonzero" fill-opacity="1" /><path clip-path="url(#clip890)" d="M943.072 182.891 L943.072 190.252 L951.845 190.252 L951.845 193.562 L943.072 193.562 L943.072 207.636 Q943.072 210.807 943.928 211.71 Q944.808 212.613 947.47 212.613 L951.845 212.613 L951.845 216.178 L947.47 216.178 Q942.539 216.178 940.664 214.349 Q938.789 212.497 938.789 207.636 L938.789 193.562 L935.664 193.562 L935.664 190.252 L938.789 190.252 L938.789 182.891 L943.072 182.891 Z" fill="#000000" fill-rule="nonzero" fill-opacity="1" /><path clip-path="url(#clip890)" d="M978.998 200.529 L978.998 216.178 L974.738 216.178 L974.738 200.668 Q974.738 196.988 973.303 195.159 Q971.868 193.33 968.998 193.33 Q965.549 193.33 963.558 195.53 Q961.567 197.729 961.567 201.525 L961.567 216.178 L957.285 216.178 L957.285 180.159 L961.567 180.159 L961.567 194.28 Q963.095 191.942 965.155 190.784 Q967.238 189.627 969.947 189.627 Q974.414 189.627 976.706 192.405 Q978.998 195.159 978.998 200.529 Z" fill="#000000" fill-rule="nonzero" fill-opacity="1" /><polyline clip-path="url(#clip890)" style="stroke:#3da44d; stroke-linecap:round; stroke-linejoin:round; stroke-width:4; stroke-opacity:1; fill:none" points="673.344,250.738 737.298,250.738 "/>
<path clip-path="url(#clip890)" d="M755.365 234.731 L755.365 242.092 L764.138 242.092 L764.138 245.402 L755.365 245.402 L755.365 259.476 Q755.365 262.647 756.221 263.55 Q757.101 264.453 759.763 264.453 L764.138 264.453 L764.138 268.018 L759.763 268.018 Q754.832 268.018 752.957 266.189 Q751.082 264.337 751.082 259.476 L751.082 245.402 L747.957 245.402 L747.957 242.092 L751.082 242.092 L751.082 234.731 L755.365 234.731 Z" fill="#000000" fill-rule="nonzero" fill-opacity="1" /><path clip-path="url(#clip890)" d="M784.763 246.073 Q784.045 245.657 783.188 245.471 Q782.355 245.263 781.337 245.263 Q777.726 245.263 775.781 247.624 Q773.86 249.962 773.86 254.36 L773.86 268.018 L769.577 268.018 L769.577 242.092 L773.86 242.092 L773.86 246.12 Q775.202 243.758 777.355 242.624 Q779.508 241.467 782.587 241.467 Q783.026 241.467 783.559 241.536 Q784.091 241.583 784.739 241.698 L784.763 246.073 Z" fill="#000000" fill-rule="nonzero" fill-opacity="1" /><path clip-path="url(#clip890)" d="M788.79 257.786 L788.79 242.092 L793.05 242.092 L793.05 257.624 Q793.05 261.305 794.485 263.156 Q795.92 264.985 798.79 264.985 Q802.239 264.985 804.23 262.786 Q806.244 260.587 806.244 256.791 L806.244 242.092 L810.503 242.092 L810.503 268.018 L806.244 268.018 L806.244 264.036 Q804.693 266.397 802.633 267.555 Q800.596 268.689 797.887 268.689 Q793.42 268.689 791.105 265.911 Q788.79 263.133 788.79 257.786 M799.508 241.467 L799.508 241.467 Z" fill="#000000" fill-rule="nonzero" fill-opacity="1" /><path clip-path="url(#clip890)" d="M841.452 253.99 L841.452 256.073 L821.869 256.073 Q822.147 260.471 824.508 262.786 Q826.892 265.078 831.128 265.078 Q833.582 265.078 835.873 264.476 Q838.188 263.874 840.457 262.67 L840.457 266.698 Q838.165 267.67 835.758 268.18 Q833.35 268.689 830.873 268.689 Q824.67 268.689 821.035 265.078 Q817.424 261.467 817.424 255.309 Q817.424 248.944 820.85 245.217 Q824.299 241.467 830.133 241.467 Q835.364 241.467 838.396 244.846 Q841.452 248.203 841.452 253.99 M837.193 252.74 Q837.146 249.245 835.225 247.161 Q833.327 245.078 830.179 245.078 Q826.614 245.078 824.461 247.092 Q822.332 249.106 822.008 252.763 L837.193 252.74 Z" fill="#000000" fill-rule="nonzero" fill-opacity="1" /><path clip-path="url(#clip890)" d="M1393.44 1486.45 L2352.76 1486.45 L2352.76 47.2441 L1393.44 47.2441  Z" fill="#ffffff" fill-rule="evenodd" fill-opacity="1"/>
<polyline clip-path="url(#clip891)" style="stroke:#000000; stroke-linecap:round; stroke-linejoin:round; stroke-width:2; stroke-opacity:0.1; fill:none" points="1409.13,1486.45 1409.13,47.2441 "/>
<polyline clip-path="url(#clip891)" style="stroke:#000000; stroke-linecap:round; stroke-linejoin:round; stroke-width:2; stroke-opacity:0.1; fill:none" points="1638.25,1486.45 1638.25,47.2441 "/>
<polyline clip-path="url(#clip891)" style="stroke:#000000; stroke-linecap:round; stroke-linejoin:round; stroke-width:2; stroke-opacity:0.1; fill:none" points="1867.37,1486.45 1867.37,47.2441 "/>
<polyline clip-path="url(#clip891)" style="stroke:#000000; stroke-linecap:round; stroke-linejoin:round; stroke-width:2; stroke-opacity:0.1; fill:none" points="2096.49,1486.45 2096.49,47.2441 "/>
<polyline clip-path="url(#clip891)" style="stroke:#000000; stroke-linecap:round; stroke-linejoin:round; stroke-width:2; stroke-opacity:0.1; fill:none" points="2325.61,1486.45 2325.61,47.2441 "/>
<polyline clip-path="url(#clip891)" style="stroke:#000000; stroke-linecap:round; stroke-linejoin:round; stroke-width:2; stroke-opacity:0.1; fill:none" points="1393.44,1364.34 2352.76,1364.34 "/>
<polyline clip-path="url(#clip891)" style="stroke:#000000; stroke-linecap:round; stroke-linejoin:round; stroke-width:2; stroke-opacity:0.1; fill:none" points="1393.44,1082.14 2352.76,1082.14 "/>
<polyline clip-path="url(#clip891)" style="stroke:#000000; stroke-linecap:round; stroke-linejoin:round; stroke-width:2; stroke-opacity:0.1; fill:none" points="1393.44,799.939 2352.76,799.939 "/>
<polyline clip-path="url(#clip891)" style="stroke:#000000; stroke-linecap:round; stroke-linejoin:round; stroke-width:2; stroke-opacity:0.1; fill:none" points="1393.44,517.74 2352.76,517.74 "/>
<polyline clip-path="url(#clip891)" style="stroke:#000000; stroke-linecap:round; stroke-linejoin:round; stroke-width:2; stroke-opacity:0.1; fill:none" points="1393.44,235.54 2352.76,235.54 "/>
<polyline clip-path="url(#clip890)" style="stroke:#000000; stroke-linecap:round; stroke-linejoin:round; stroke-width:4; stroke-opacity:1; fill:none" points="1393.44,1486.45 2352.76,1486.45 "/>
<polyline clip-path="url(#clip890)" style="stroke:#000000; stroke-linecap:round; stroke-linejoin:round; stroke-width:4; stroke-opacity:1; fill:none" points="1409.13,1486.45 1409.13,1467.55 "/>
<polyline clip-path="url(#clip890)" style="stroke:#000000; stroke-linecap:round; stroke-linejoin:round; stroke-width:4; stroke-opacity:1; fill:none" points="1638.25,1486.45 1638.25,1467.55 "/>
<polyline clip-path="url(#clip890)" style="stroke:#000000; stroke-linecap:round; stroke-linejoin:round; stroke-width:4; stroke-opacity:1; fill:none" points="1867.37,1486.45 1867.37,1467.55 "/>
<polyline clip-path="url(#clip890)" style="stroke:#000000; stroke-linecap:round; stroke-linejoin:round; stroke-width:4; stroke-opacity:1; fill:none" points="2096.49,1486.45 2096.49,1467.55 "/>
<polyline clip-path="url(#clip890)" style="stroke:#000000; stroke-linecap:round; stroke-linejoin:round; stroke-width:4; stroke-opacity:1; fill:none" points="2325.61,1486.45 2325.61,1467.55 "/>
<path clip-path="url(#clip890)" d="M1409.13 1517.37 Q1405.52 1517.37 1403.69 1520.93 Q1401.89 1524.47 1401.89 1531.6 Q1401.89 1538.71 1403.69 1542.27 Q1405.52 1545.82 1409.13 1545.82 Q1412.77 1545.82 1414.57 1542.27 Q1416.4 1538.71 1416.4 1531.6 Q1416.4 1524.47 1414.57 1520.93 Q1412.77 1517.37 1409.13 1517.37 M1409.13 1513.66 Q1414.94 1513.66 1418 1518.27 Q1421.08 1522.85 1421.08 1531.6 Q1421.08 1540.33 1418 1544.94 Q1414.94 1549.52 1409.13 1549.52 Q1403.32 1549.52 1400.24 1544.94 Q1397.19 1540.33 1397.19 1531.6 Q1397.19 1522.85 1400.24 1518.27 Q1403.32 1513.66 1409.13 1513.66 Z" fill="#000000" fill-rule="nonzero" fill-opacity="1" /><path clip-path="url(#clip890)" d="M1617.02 1544.91 L1633.34 1544.91 L1633.34 1548.85 L1611.4 1548.85 L1611.4 1544.91 Q1614.06 1542.16 1618.64 1537.53 Q1623.25 1532.88 1624.43 1531.53 Q1626.68 1529.01 1627.56 1527.27 Q1628.46 1525.51 1628.46 1523.82 Q1628.46 1521.07 1626.51 1519.33 Q1624.59 1517.6 1621.49 1517.6 Q1619.29 1517.6 1616.84 1518.36 Q1614.41 1519.13 1611.63 1520.68 L1611.63 1515.95 Q1614.45 1514.82 1616.91 1514.24 Q1619.36 1513.66 1621.4 1513.66 Q1626.77 1513.66 1629.96 1516.35 Q1633.16 1519.03 1633.16 1523.52 Q1633.16 1525.65 1632.35 1527.57 Q1631.56 1529.47 1629.45 1532.07 Q1628.88 1532.74 1625.77 1535.95 Q1622.67 1539.15 1617.02 1544.91 Z" fill="#000000" fill-rule="nonzero" fill-opacity="1" /><path clip-path="url(#clip890)" d="M1653.16 1517.37 Q1649.55 1517.37 1647.72 1520.93 Q1645.91 1524.47 1645.91 1531.6 Q1645.91 1538.71 1647.72 1542.27 Q1649.55 1545.82 1653.16 1545.82 Q1656.79 1545.82 1658.6 1542.27 Q1660.43 1538.71 1660.43 1531.6 Q1660.43 1524.47 1658.6 1520.93 Q1656.79 1517.37 1653.16 1517.37 M1653.16 1513.66 Q1658.97 1513.66 1662.02 1518.27 Q1665.1 1522.85 1665.1 1531.6 Q1665.1 1540.33 1662.02 1544.94 Q1658.97 1549.52 1653.16 1549.52 Q1647.35 1549.52 1644.27 1544.94 Q1641.21 1540.33 1641.21 1531.6 Q1641.21 1522.85 1644.27 1518.27 Q1647.35 1513.66 1653.16 1513.66 Z" fill="#000000" fill-rule="nonzero" fill-opacity="1" /><path clip-path="url(#clip890)" d="M1855.54 1518.36 L1843.74 1536.81 L1855.54 1536.81 L1855.54 1518.36 M1854.31 1514.29 L1860.19 1514.29 L1860.19 1536.81 L1865.12 1536.81 L1865.12 1540.7 L1860.19 1540.7 L1860.19 1548.85 L1855.54 1548.85 L1855.54 1540.7 L1839.94 1540.7 L1839.94 1536.19 L1854.31 1514.29 Z" fill="#000000" fill-rule="nonzero" fill-opacity="1" /><path clip-path="url(#clip890)" d="M1882.86 1517.37 Q1879.24 1517.37 1877.42 1520.93 Q1875.61 1524.47 1875.61 1531.6 Q1875.61 1538.71 1877.42 1542.27 Q1879.24 1545.82 1882.86 1545.82 Q1886.49 1545.82 1888.29 1542.27 Q1890.12 1538.71 1890.12 1531.6 Q1890.12 1524.47 1888.29 1520.93 Q1886.49 1517.37 1882.86 1517.37 M1882.86 1513.66 Q1888.67 1513.66 1891.72 1518.27 Q1894.8 1522.85 1894.8 1531.6 Q1894.8 1540.33 1891.72 1544.94 Q1888.67 1549.52 1882.86 1549.52 Q1877.05 1549.52 1873.97 1544.94 Q1870.91 1540.33 1870.91 1531.6 Q1870.91 1522.85 1873.97 1518.27 Q1877.05 1513.66 1882.86 1513.66 Z" fill="#000000" fill-rule="nonzero" fill-opacity="1" /><path clip-path="url(#clip890)" d="M2081.89 1529.7 Q2078.74 1529.7 2076.89 1531.86 Q2075.06 1534.01 2075.06 1537.76 Q2075.06 1541.49 2076.89 1543.66 Q2078.74 1545.82 2081.89 1545.82 Q2085.04 1545.82 2086.87 1543.66 Q2088.72 1541.49 2088.72 1537.76 Q2088.72 1534.01 2086.87 1531.86 Q2085.04 1529.7 2081.89 1529.7 M2091.17 1515.05 L2091.17 1519.31 Q2089.42 1518.48 2087.61 1518.04 Q2085.83 1517.6 2084.07 1517.6 Q2079.44 1517.6 2076.99 1520.72 Q2074.55 1523.85 2074.21 1530.17 Q2075.57 1528.15 2077.63 1527.09 Q2079.69 1526 2082.17 1526 Q2087.38 1526 2090.39 1529.17 Q2093.42 1532.32 2093.42 1537.76 Q2093.42 1543.08 2090.27 1546.3 Q2087.12 1549.52 2081.89 1549.52 Q2075.9 1549.52 2072.73 1544.94 Q2069.55 1540.33 2069.55 1531.6 Q2069.55 1523.41 2073.44 1518.55 Q2077.33 1513.66 2083.88 1513.66 Q2085.64 1513.66 2087.42 1514.01 Q2089.23 1514.36 2091.17 1515.05 Z" fill="#000000" fill-rule="nonzero" fill-opacity="1" /><path clip-path="url(#clip890)" d="M2111.48 1517.37 Q2107.86 1517.37 2106.04 1520.93 Q2104.23 1524.47 2104.23 1531.6 Q2104.23 1538.71 2106.04 1542.27 Q2107.86 1545.82 2111.48 1545.82 Q2115.11 1545.82 2116.92 1542.27 Q2118.74 1538.71 2118.74 1531.6 Q2118.74 1524.47 2116.92 1520.93 Q2115.11 1517.37 2111.48 1517.37 M2111.48 1513.66 Q2117.29 1513.66 2120.34 1518.27 Q2123.42 1522.85 2123.42 1531.6 Q2123.42 1540.33 2120.34 1544.94 Q2117.29 1549.52 2111.48 1549.52 Q2105.67 1549.52 2102.59 1544.94 Q2099.53 1540.33 2099.53 1531.6 Q2099.53 1522.85 2102.59 1518.27 Q2105.67 1513.66 2111.48 1513.66 Z" fill="#000000" fill-rule="nonzero" fill-opacity="1" /><path clip-path="url(#clip890)" d="M2310.48 1532.44 Q2307.14 1532.44 2305.22 1534.22 Q2303.33 1536 2303.33 1539.13 Q2303.33 1542.25 2305.22 1544.03 Q2307.14 1545.82 2310.48 1545.82 Q2313.81 1545.82 2315.73 1544.03 Q2317.65 1542.23 2317.65 1539.13 Q2317.65 1536 2315.73 1534.22 Q2313.83 1532.44 2310.48 1532.44 M2305.8 1530.45 Q2302.79 1529.7 2301.1 1527.64 Q2299.44 1525.58 2299.44 1522.62 Q2299.44 1518.48 2302.38 1516.07 Q2305.34 1513.66 2310.48 1513.66 Q2315.64 1513.66 2318.58 1516.07 Q2321.52 1518.48 2321.52 1522.62 Q2321.52 1525.58 2319.83 1527.64 Q2318.16 1529.7 2315.18 1530.45 Q2318.56 1531.23 2320.43 1533.52 Q2322.33 1535.82 2322.33 1539.13 Q2322.33 1544.15 2319.25 1546.83 Q2316.2 1549.52 2310.48 1549.52 Q2304.76 1549.52 2301.68 1546.83 Q2298.63 1544.15 2298.63 1539.13 Q2298.63 1535.82 2300.52 1533.52 Q2302.42 1531.23 2305.8 1530.45 M2304.09 1523.06 Q2304.09 1525.75 2305.76 1527.25 Q2307.45 1528.76 2310.48 1528.76 Q2313.49 1528.76 2315.18 1527.25 Q2316.89 1525.75 2316.89 1523.06 Q2316.89 1520.38 2315.18 1518.87 Q2313.49 1517.37 2310.48 1517.37 Q2307.45 1517.37 2305.76 1518.87 Q2304.09 1520.38 2304.09 1523.06 Z" fill="#000000" fill-rule="nonzero" fill-opacity="1" /><path clip-path="url(#clip890)" d="M2340.64 1517.37 Q2337.03 1517.37 2335.2 1520.93 Q2333.39 1524.47 2333.39 1531.6 Q2333.39 1538.71 2335.2 1542.27 Q2337.03 1545.82 2340.64 1545.82 Q2344.27 1545.82 2346.08 1542.27 Q2347.91 1538.71 2347.91 1531.6 Q2347.91 1524.47 2346.08 1520.93 Q2344.27 1517.37 2340.64 1517.37 M2340.64 1513.66 Q2346.45 1513.66 2349.51 1518.27 Q2352.58 1522.85 2352.58 1531.6 Q2352.58 1540.33 2349.51 1544.94 Q2346.45 1549.52 2340.64 1549.52 Q2334.83 1549.52 2331.75 1544.94 Q2328.7 1540.33 2328.7 1531.6 Q2328.7 1522.85 2331.75 1518.27 Q2334.83 1513.66 2340.64 1513.66 Z" fill="#000000" fill-rule="nonzero" fill-opacity="1" /><polyline clip-path="url(#clip890)" style="stroke:#000000; stroke-linecap:round; stroke-linejoin:round; stroke-width:4; stroke-opacity:1; fill:none" points="1393.44,1486.45 1393.44,47.2441 "/>
<polyline clip-path="url(#clip890)" style="stroke:#000000; stroke-linecap:round; stroke-linejoin:round; stroke-width:4; stroke-opacity:1; fill:none" points="1393.44,1364.34 1412.34,1364.34 "/>
<polyline clip-path="url(#clip890)" style="stroke:#000000; stroke-linecap:round; stroke-linejoin:round; stroke-width:4; stroke-opacity:1; fill:none" points="1393.44,1082.14 1412.34,1082.14 "/>
<polyline clip-path="url(#clip890)" style="stroke:#000000; stroke-linecap:round; stroke-linejoin:round; stroke-width:4; stroke-opacity:1; fill:none" points="1393.44,799.939 1412.34,799.939 "/>
<polyline clip-path="url(#clip890)" style="stroke:#000000; stroke-linecap:round; stroke-linejoin:round; stroke-width:4; stroke-opacity:1; fill:none" points="1393.44,517.74 1412.34,517.74 "/>
<polyline clip-path="url(#clip890)" style="stroke:#000000; stroke-linecap:round; stroke-linejoin:round; stroke-width:4; stroke-opacity:1; fill:none" points="1393.44,235.54 1412.34,235.54 "/>
<path clip-path="url(#clip890)" d="M1250.49 1364.79 L1280.17 1364.79 L1280.17 1368.72 L1250.49 1368.72 L1250.49 1364.79 Z" fill="#000000" fill-rule="nonzero" fill-opacity="1" /><path clip-path="url(#clip890)" d="M1291.07 1377.68 L1298.71 1377.68 L1298.71 1351.32 L1290.4 1352.98 L1290.4 1348.72 L1298.67 1347.06 L1303.34 1347.06 L1303.34 1377.68 L1310.98 1377.68 L1310.98 1381.62 L1291.07 1381.62 L1291.07 1377.68 Z" fill="#000000" fill-rule="nonzero" fill-opacity="1" /><path clip-path="url(#clip890)" d="M1320.42 1375.74 L1325.31 1375.74 L1325.31 1381.62 L1320.42 1381.62 L1320.42 1375.74 Z" fill="#000000" fill-rule="nonzero" fill-opacity="1" /><path clip-path="url(#clip890)" d="M1345.49 1350.14 Q1341.88 1350.14 1340.05 1353.7 Q1338.25 1357.24 1338.25 1364.37 Q1338.25 1371.48 1340.05 1375.04 Q1341.88 1378.58 1345.49 1378.58 Q1349.13 1378.58 1350.93 1375.04 Q1352.76 1371.48 1352.76 1364.37 Q1352.76 1357.24 1350.93 1353.7 Q1349.13 1350.14 1345.49 1350.14 M1345.49 1346.43 Q1351.3 1346.43 1354.36 1351.04 Q1357.44 1355.62 1357.44 1364.37 Q1357.44 1373.1 1354.36 1377.7 Q1351.3 1382.29 1345.49 1382.29 Q1339.68 1382.29 1336.61 1377.7 Q1333.55 1373.1 1333.55 1364.37 Q1333.55 1355.62 1336.61 1351.04 Q1339.68 1346.43 1345.49 1346.43 Z" fill="#000000" fill-rule="nonzero" fill-opacity="1" /><path clip-path="url(#clip890)" d="M1251.49 1082.59 L1281.17 1082.59 L1281.17 1086.52 L1251.49 1086.52 L1251.49 1082.59 Z" fill="#000000" fill-rule="nonzero" fill-opacity="1" /><path clip-path="url(#clip890)" d="M1301.26 1067.94 Q1297.65 1067.94 1295.82 1071.5 Q1294.01 1075.04 1294.01 1082.17 Q1294.01 1089.28 1295.82 1092.84 Q1297.65 1096.39 1301.26 1096.39 Q1304.89 1096.39 1306.7 1092.84 Q1308.53 1089.28 1308.53 1082.17 Q1308.53 1075.04 1306.7 1071.5 Q1304.89 1067.94 1301.26 1067.94 M1301.26 1064.23 Q1307.07 1064.23 1310.12 1068.84 Q1313.2 1073.42 1313.2 1082.17 Q1313.2 1090.9 1310.12 1095.51 Q1307.07 1100.09 1301.26 1100.09 Q1295.45 1100.09 1292.37 1095.51 Q1289.31 1090.9 1289.31 1082.17 Q1289.31 1073.42 1292.37 1068.84 Q1295.45 1064.23 1301.26 1064.23 Z" fill="#000000" fill-rule="nonzero" fill-opacity="1" /><path clip-path="url(#clip890)" d="M1321.42 1093.54 L1326.3 1093.54 L1326.3 1099.42 L1321.42 1099.42 L1321.42 1093.54 Z" fill="#000000" fill-rule="nonzero" fill-opacity="1" /><path clip-path="url(#clip890)" d="M1336.54 1064.86 L1354.89 1064.86 L1354.89 1068.79 L1340.82 1068.79 L1340.82 1077.26 Q1341.84 1076.92 1342.86 1076.76 Q1343.87 1076.57 1344.89 1076.57 Q1350.68 1076.57 1354.06 1079.74 Q1357.44 1082.91 1357.44 1088.33 Q1357.44 1093.91 1353.97 1097.01 Q1350.49 1100.09 1344.17 1100.09 Q1342 1100.09 1339.73 1099.72 Q1337.48 1099.35 1335.08 1098.61 L1335.08 1093.91 Q1337.16 1095.04 1339.38 1095.6 Q1341.61 1096.15 1344.08 1096.15 Q1348.09 1096.15 1350.42 1094.05 Q1352.76 1091.94 1352.76 1088.33 Q1352.76 1084.72 1350.42 1082.61 Q1348.09 1080.51 1344.08 1080.51 Q1342.21 1080.51 1340.33 1080.92 Q1338.48 1081.34 1336.54 1082.22 L1336.54 1064.86 Z" fill="#000000" fill-rule="nonzero" fill-opacity="1" /><path clip-path="url(#clip890)" d="M1300.26 785.737 Q1296.65 785.737 1294.82 789.302 Q1293.02 792.844 1293.02 799.973 Q1293.02 807.08 1294.82 810.645 Q1296.65 814.186 1300.26 814.186 Q1303.9 814.186 1305.7 810.645 Q1307.53 807.08 1307.53 799.973 Q1307.53 792.844 1305.7 789.302 Q1303.9 785.737 1300.26 785.737 M1300.26 782.034 Q1306.07 782.034 1309.13 786.64 Q1312.21 791.223 1312.21 799.973 Q1312.21 808.7 1309.13 813.307 Q1306.07 817.89 1300.26 817.89 Q1294.45 817.89 1291.37 813.307 Q1288.32 808.7 1288.32 799.973 Q1288.32 791.223 1291.37 786.64 Q1294.45 782.034 1300.26 782.034 Z" fill="#000000" fill-rule="nonzero" fill-opacity="1" /><path clip-path="url(#clip890)" d="M1320.42 811.339 L1325.31 811.339 L1325.31 817.219 L1320.42 817.219 L1320.42 811.339 Z" fill="#000000" fill-rule="nonzero" fill-opacity="1" /><path clip-path="url(#clip890)" d="M1345.49 785.737 Q1341.88 785.737 1340.05 789.302 Q1338.25 792.844 1338.25 799.973 Q1338.25 807.08 1340.05 810.645 Q1341.88 814.186 1345.49 814.186 Q1349.13 814.186 1350.93 810.645 Q1352.76 807.08 1352.76 799.973 Q1352.76 792.844 1350.93 789.302 Q1349.13 785.737 1345.49 785.737 M1345.49 782.034 Q1351.3 782.034 1354.36 786.64 Q1357.44 791.223 1357.44 799.973 Q1357.44 808.7 1354.36 813.307 Q1351.3 817.89 1345.49 817.89 Q1339.68 817.89 1336.61 813.307 Q1333.55 808.7 1333.55 799.973 Q1333.55 791.223 1336.61 786.64 Q1339.68 782.034 1345.49 782.034 Z" fill="#000000" fill-rule="nonzero" fill-opacity="1" /><path clip-path="url(#clip890)" d="M1301.26 503.538 Q1297.65 503.538 1295.82 507.103 Q1294.01 510.645 1294.01 517.774 Q1294.01 524.881 1295.82 528.446 Q1297.65 531.987 1301.26 531.987 Q1304.89 531.987 1306.7 528.446 Q1308.53 524.881 1308.53 517.774 Q1308.53 510.645 1306.7 507.103 Q1304.89 503.538 1301.26 503.538 M1301.26 499.835 Q1307.07 499.835 1310.12 504.441 Q1313.2 509.024 1313.2 517.774 Q1313.2 526.501 1310.12 531.108 Q1307.07 535.691 1301.26 535.691 Q1295.45 535.691 1292.37 531.108 Q1289.31 526.501 1289.31 517.774 Q1289.31 509.024 1292.37 504.441 Q1295.45 499.835 1301.26 499.835 Z" fill="#000000" fill-rule="nonzero" fill-opacity="1" /><path clip-path="url(#clip890)" d="M1321.42 529.14 L1326.3 529.14 L1326.3 535.02 L1321.42 535.02 L1321.42 529.14 Z" fill="#000000" fill-rule="nonzero" fill-opacity="1" /><path clip-path="url(#clip890)" d="M1336.54 500.46 L1354.89 500.46 L1354.89 504.395 L1340.82 504.395 L1340.82 512.867 Q1341.84 512.52 1342.86 512.358 Q1343.87 512.172 1344.89 512.172 Q1350.68 512.172 1354.06 515.344 Q1357.44 518.515 1357.44 523.932 Q1357.44 529.51 1353.97 532.612 Q1350.49 535.691 1344.17 535.691 Q1342 535.691 1339.73 535.32 Q1337.48 534.95 1335.08 534.209 L1335.08 529.51 Q1337.16 530.645 1339.38 531.2 Q1341.61 531.756 1344.08 531.756 Q1348.09 531.756 1350.42 529.649 Q1352.76 527.543 1352.76 523.932 Q1352.76 520.321 1350.42 518.214 Q1348.09 516.108 1344.08 516.108 Q1342.21 516.108 1340.33 516.524 Q1338.48 516.941 1336.54 517.821 L1336.54 500.46 Z" fill="#000000" fill-rule="nonzero" fill-opacity="1" /><path clip-path="url(#clip890)" d="M1291.07 248.885 L1298.71 248.885 L1298.71 222.52 L1290.4 224.186 L1290.4 219.927 L1298.67 218.26 L1303.34 218.26 L1303.34 248.885 L1310.98 248.885 L1310.98 252.82 L1291.07 252.82 L1291.07 248.885 Z" fill="#000000" fill-rule="nonzero" fill-opacity="1" /><path clip-path="url(#clip890)" d="M1320.42 246.941 L1325.31 246.941 L1325.31 252.82 L1320.42 252.82 L1320.42 246.941 Z" fill="#000000" fill-rule="nonzero" fill-opacity="1" /><path clip-path="url(#clip890)" d="M1345.49 221.339 Q1341.88 221.339 1340.05 224.904 Q1338.25 228.446 1338.25 235.575 Q1338.25 242.682 1340.05 246.246 Q1341.88 249.788 1345.49 249.788 Q1349.13 249.788 1350.93 246.246 Q1352.76 242.682 1352.76 235.575 Q1352.76 228.446 1350.93 224.904 Q1349.13 221.339 1345.49 221.339 M1345.49 217.636 Q1351.3 217.636 1354.36 222.242 Q1357.44 226.825 1357.44 235.575 Q1357.44 244.302 1354.36 248.908 Q1351.3 253.492 1345.49 253.492 Q1339.68 253.492 1336.61 248.908 Q1333.55 244.302 1333.55 235.575 Q1333.55 226.825 1336.61 222.242 Q1339.68 217.636 1345.49 217.636 Z" fill="#000000" fill-rule="nonzero" fill-opacity="1" /><polyline clip-path="url(#clip891)" style="stroke:#009af9; stroke-linecap:round; stroke-linejoin:round; stroke-width:4; stroke-opacity:1; fill:none" points="1420.59,1445.72 1432.04,1403.28 1443.5,1349.71 1454.96,1301.21 1466.41,1253.63 1477.87,1194.97 1489.32,1108.45 1500.78,1042.22 1512.24,974.018 1523.69,941.683 1535.15,891.01 1546.6,839.54 1558.06,785.89 1569.52,729.747 1580.97,705.976 1592.43,700.25 1603.88,714.731 1615.34,697.52 1626.8,666.174 1638.25,666.079 1649.71,635.603 1661.16,600.038 1672.62,563.347 1684.07,459.458 1695.53,356.431 1706.99,232.282 1718.44,166.371 1729.9,162.818 1741.35,149.805 1752.81,144.449 1764.27,138.945 1775.72,132.363 1787.18,184.113 1798.63,244.692 1810.09,299.505 1821.55,359.401 1833,422.223 1844.46,474.119 1855.91,542.642 1867.37,559.916 1878.83,625.044 1890.28,689.378 1901.74,731.127 1913.19,791.177 1924.65,833.518 1936.1,858.641 1947.56,816.011 1959.02,802.292 1970.47,741.75 1981.93,733.272 1993.38,740.117 2004.84,748.288 2016.3,733.867 2027.75,748.094 2039.21,739.069 2050.66,726.603 2062.12,702.213 2073.58,709.404 2085.03,747.929 2096.49,744.514 2107.94,731.173 2119.4,715.516 2130.86,674.165 2142.31,623.953 2153.77,594.52 2165.22,604.238 2176.68,624.127 2188.13,679.592 2199.59,726.798 2211.05,765.68 2222.5,825.781 2233.96,862.785 2245.41,881.486 2256.87,901.558 2268.33,964.614 2279.78,1005.16 2291.24,1058.67 2302.69,1077.35 2314.15,1065.98 2325.61,1096.97 "/>
<polyline clip-path="url(#clip891)" style="stroke:#e26f46; stroke-linecap:round; stroke-linejoin:round; stroke-width:4; stroke-opacity:1; fill:none" points="1420.59,1445.16 1432.04,1409.43 1443.5,1352.66 1454.96,1308.19 1466.41,1264.05 1477.87,1207.91 1489.32,1117.88 1500.78,1047.26 1512.24,969.456 1523.69,938.612 1535.15,895.821 1546.6,843.27 1558.06,786.041 1569.52,723.668 1580.97,705.086 1592.43,703.91 1603.88,714.304 1615.34,694.37 1626.8,664.745 1638.25,666.976 1649.71,640.448 1661.16,600.285 1672.62,557.442 1684.07,447.387 1695.53,346.309 1706.99,216.305 1718.44,160.745 1729.9,163.931 1741.35,151.514 1752.81,146.293 1764.27,150.668 1775.72,135.474 1787.18,190.092 1798.63,249.193 1810.09,304.462 1821.55,364.908 1833,428.108 1844.46,484.916 1855.91,548.416 1867.37,567.186 1878.83,630.236 1890.28,688.806 1901.74,733.186 1913.19,790.061 1924.65,841.21 1936.1,862.145 1947.56,833.915 1959.02,815.198 1970.47,741.45 1981.93,734.522 1993.38,736.868 2004.84,752.018 2016.3,738.382 2027.75,756.726 2039.21,747.875 2050.66,729.792 2062.12,701.553 2073.58,707.189 2085.03,748.557 2096.49,743.041 2107.94,731.663 2119.4,713.005 2130.86,668.403 2142.31,621.791 2153.77,593.969 2165.22,605.818 2176.68,620.685 2188.13,676.297 2199.59,727.028 2211.05,765.958 2222.5,833.346 2233.96,880.516 2245.41,895.892 2256.87,911.119 2268.33,968.237 2279.78,1007.58 2291.24,1058.39 2302.69,1074.12 2314.15,1062.2 2325.61,1098.3 "/>
<polyline clip-path="url(#clip891)" style="stroke:#3da44d; stroke-linecap:round; stroke-linejoin:round; stroke-width:4; stroke-opacity:1; fill:none" points="1420.59,1254.18 1432.04,1321.72 1443.5,1293.12 1454.96,1319.12 1466.41,1276.43 1477.87,1215.3 1489.32,1209.23 1500.78,1126.66 1512.24,985.369 1523.69,958.725 1535.15,849.695 1546.6,789.739 1558.06,779.868 1569.52,779.714 1580.97,778.321 1592.43,792.785 1603.88,788.996 1615.34,677.746 1626.8,524.932 1638.25,530.166 1649.71,590.177 1661.16,642.656 1672.62,594.832 1684.07,509.654 1695.53,344.378 1706.99,200.655 1718.44,142.994 1729.9,198.945 1741.35,126.303 1752.81,87.9763 1764.27,144.451 1775.72,183.132 1787.18,264.762 1798.63,346.305 1810.09,288.042 1821.55,405.361 1833,575.407 1844.46,552.689 1855.91,570.895 1867.37,646.741 1878.83,711.994 1890.28,698.582 1901.74,746.438 1913.19,749.889 1924.65,786.836 1936.1,879.124 1947.56,799.277 1959.02,833.786 1970.47,727.623 1981.93,745.455 1993.38,757.151 2004.84,700.66 2016.3,686.157 2027.75,758.99 2039.21,689.641 2050.66,660.975 2062.12,537.517 2073.58,574.983 2085.03,679.959 2096.49,715.712 2107.94,799.228 2119.4,807.067 2130.86,723.582 2142.31,660.885 2153.77,549.374 2165.22,567.02 2176.68,589.737 2188.13,702.213 2199.59,689.64 2211.05,729.805 2222.5,789.985 2233.96,850.52 2245.41,907.107 2256.87,777.383 2268.33,922.275 2279.78,949.92 2291.24,1032.43 2302.69,1157.92 2314.15,1131.51 2325.61,1133.41 "/>
<path clip-path="url(#clip890)" d="M1863.18 302.578 L2320.78 302.578 L2320.78 95.2176 L1863.18 95.2176  Z" fill="#ffffff" fill-rule="evenodd" fill-opacity="1"/>
<polyline clip-path="url(#clip890)" style="stroke:#000000; stroke-linecap:round; stroke-linejoin:round; stroke-width:4; stroke-opacity:1; fill:none" points="1863.18,302.578 2320.78,302.578 2320.78,95.2176 1863.18,95.2176 1863.18,302.578 "/>
<polyline clip-path="url(#clip890)" style="stroke:#009af9; stroke-linecap:round; stroke-linejoin:round; stroke-width:4; stroke-opacity:1; fill:none" points="1873.84,147.058 1937.8,147.058 "/>
<path clip-path="url(#clip890)" d="M1948.45 129.778 L1953.13 129.778 L1953.13 144.384 L1968.64 129.778 L1974.66 129.778 L1957.51 145.889 L1975.89 164.338 L1969.73 164.338 L1953.13 147.694 L1953.13 164.338 L1948.45 164.338 L1948.45 129.778 Z" fill="#000000" fill-rule="nonzero" fill-opacity="1" /><path clip-path="url(#clip890)" d="M1990.31 151.305 Q1985.14 151.305 1983.15 152.486 Q1981.16 153.666 1981.16 156.514 Q1981.16 158.782 1982.64 160.125 Q1984.15 161.444 1986.72 161.444 Q1990.26 161.444 1992.39 158.944 Q1994.54 156.421 1994.54 152.254 L1994.54 151.305 L1990.31 151.305 M1998.8 149.546 L1998.8 164.338 L1994.54 164.338 L1994.54 160.402 Q1993.08 162.763 1990.91 163.898 Q1988.73 165.009 1985.58 165.009 Q1981.6 165.009 1979.24 162.787 Q1976.9 160.541 1976.9 156.791 Q1976.9 152.416 1979.82 150.194 Q1982.76 147.972 1988.57 147.972 L1994.54 147.972 L1994.54 147.555 Q1994.54 144.615 1992.6 143.018 Q1990.68 141.398 1987.18 141.398 Q1984.96 141.398 1982.85 141.93 Q1980.75 142.463 1978.8 143.527 L1978.8 139.592 Q1981.14 138.69 1983.34 138.25 Q1985.54 137.787 1987.62 137.787 Q1993.25 137.787 1996.02 140.703 Q1998.8 143.62 1998.8 149.546 Z" fill="#000000" fill-rule="nonzero" fill-opacity="1" /><path clip-path="url(#clip890)" d="M2007.57 128.319 L2011.83 128.319 L2011.83 164.338 L2007.57 164.338 L2007.57 128.319 Z" fill="#000000" fill-rule="nonzero" fill-opacity="1" /><path clip-path="url(#clip890)" d="M2040.93 143.389 Q2042.53 140.518 2044.75 139.153 Q2046.97 137.787 2049.98 137.787 Q2054.03 137.787 2056.23 140.634 Q2058.43 143.458 2058.43 148.689 L2058.43 164.338 L2054.15 164.338 L2054.15 148.828 Q2054.15 145.102 2052.83 143.296 Q2051.51 141.49 2048.8 141.49 Q2045.49 141.49 2043.57 143.69 Q2041.65 145.889 2041.65 149.685 L2041.65 164.338 L2037.37 164.338 L2037.37 148.828 Q2037.37 145.078 2036.05 143.296 Q2034.73 141.49 2031.97 141.49 Q2028.71 141.49 2026.79 143.713 Q2024.87 145.912 2024.87 149.685 L2024.87 164.338 L2020.58 164.338 L2020.58 138.412 L2024.87 138.412 L2024.87 142.44 Q2026.32 140.055 2028.36 138.921 Q2030.4 137.787 2033.2 137.787 Q2036.02 137.787 2037.99 139.222 Q2039.98 140.657 2040.93 143.389 Z" fill="#000000" fill-rule="nonzero" fill-opacity="1" /><path clip-path="url(#clip890)" d="M2078.71 151.305 Q2073.55 151.305 2071.56 152.486 Q2069.57 153.666 2069.57 156.514 Q2069.57 158.782 2071.05 160.125 Q2072.55 161.444 2075.12 161.444 Q2078.66 161.444 2080.79 158.944 Q2082.94 156.421 2082.94 152.254 L2082.94 151.305 L2078.71 151.305 M2087.2 149.546 L2087.2 164.338 L2082.94 164.338 L2082.94 160.402 Q2081.49 162.763 2079.31 163.898 Q2077.13 165.009 2073.99 165.009 Q2070.01 165.009 2067.64 162.787 Q2065.31 160.541 2065.31 156.791 Q2065.31 152.416 2068.22 150.194 Q2071.16 147.972 2076.97 147.972 L2082.94 147.972 L2082.94 147.555 Q2082.94 144.615 2081 143.018 Q2079.08 141.398 2075.58 141.398 Q2073.36 141.398 2071.26 141.93 Q2069.15 142.463 2067.2 143.527 L2067.2 139.592 Q2069.54 138.69 2071.74 138.25 Q2073.94 137.787 2076.02 137.787 Q2081.65 137.787 2084.43 140.703 Q2087.2 143.62 2087.2 149.546 Z" fill="#000000" fill-rule="nonzero" fill-opacity="1" /><path clip-path="url(#clip890)" d="M2117.53 148.689 L2117.53 164.338 L2113.27 164.338 L2113.27 148.828 Q2113.27 145.148 2111.83 143.319 Q2110.4 141.49 2107.53 141.49 Q2104.08 141.49 2102.09 143.69 Q2100.1 145.889 2100.1 149.685 L2100.1 164.338 L2095.82 164.338 L2095.82 138.412 L2100.1 138.412 L2100.1 142.44 Q2101.63 140.102 2103.69 138.944 Q2105.77 137.787 2108.48 137.787 Q2112.94 137.787 2115.24 140.565 Q2117.53 143.319 2117.53 148.689 Z" fill="#000000" fill-rule="nonzero" fill-opacity="1" /><path clip-path="url(#clip890)" d="M2157.62 139.176 L2157.62 143.203 Q2155.81 142.277 2153.87 141.815 Q2151.93 141.352 2149.84 141.352 Q2146.67 141.352 2145.07 142.324 Q2143.5 143.296 2143.5 145.24 Q2143.5 146.722 2144.63 147.578 Q2145.77 148.412 2149.19 149.176 L2150.65 149.5 Q2155.19 150.472 2157.09 152.254 Q2159.01 154.014 2159.01 157.185 Q2159.01 160.796 2156.14 162.902 Q2153.29 165.009 2148.29 165.009 Q2146.21 165.009 2143.94 164.592 Q2141.69 164.199 2139.19 163.388 L2139.19 158.99 Q2141.56 160.217 2143.85 160.842 Q2146.14 161.444 2148.38 161.444 Q2151.39 161.444 2153.01 160.426 Q2154.63 159.384 2154.63 157.509 Q2154.63 155.773 2153.45 154.847 Q2152.3 153.921 2148.34 153.064 L2146.86 152.717 Q2142.9 151.884 2141.14 150.171 Q2139.38 148.435 2139.38 145.426 Q2139.38 141.768 2141.97 139.778 Q2144.56 137.787 2149.33 137.787 Q2151.69 137.787 2153.78 138.134 Q2155.86 138.481 2157.62 139.176 Z" fill="#000000" fill-rule="nonzero" fill-opacity="1" /><path clip-path="url(#clip890)" d="M2185.98 143.389 Q2187.57 140.518 2189.8 139.153 Q2192.02 137.787 2195.03 137.787 Q2199.08 137.787 2201.28 140.634 Q2203.48 143.458 2203.48 148.689 L2203.48 164.338 L2199.19 164.338 L2199.19 148.828 Q2199.19 145.102 2197.87 143.296 Q2196.56 141.49 2193.85 141.49 Q2190.54 141.49 2188.62 143.69 Q2186.69 145.889 2186.69 149.685 L2186.69 164.338 L2182.41 164.338 L2182.41 148.828 Q2182.41 145.078 2181.09 143.296 Q2179.77 141.49 2177.02 141.49 Q2173.75 141.49 2171.83 143.713 Q2169.91 145.912 2169.91 149.685 L2169.91 164.338 L2165.63 164.338 L2165.63 138.412 L2169.91 138.412 L2169.91 142.44 Q2171.37 140.055 2173.41 138.921 Q2175.44 137.787 2178.25 137.787 Q2181.07 137.787 2183.04 139.222 Q2185.03 140.657 2185.98 143.389 Z" fill="#000000" fill-rule="nonzero" fill-opacity="1" /><path clip-path="url(#clip890)" d="M2222.02 141.398 Q2218.59 141.398 2216.6 144.083 Q2214.61 146.745 2214.61 151.398 Q2214.61 156.051 2216.58 158.736 Q2218.57 161.398 2222.02 161.398 Q2225.42 161.398 2227.41 158.713 Q2229.4 156.027 2229.4 151.398 Q2229.4 146.791 2227.41 144.106 Q2225.42 141.398 2222.02 141.398 M2222.02 137.787 Q2227.57 137.787 2230.74 141.398 Q2233.92 145.009 2233.92 151.398 Q2233.92 157.764 2230.74 161.398 Q2227.57 165.009 2222.02 165.009 Q2216.44 165.009 2213.27 161.398 Q2210.12 157.764 2210.12 151.398 Q2210.12 145.009 2213.27 141.398 Q2216.44 137.787 2222.02 137.787 Z" fill="#000000" fill-rule="nonzero" fill-opacity="1" /><path clip-path="url(#clip890)" d="M2251.02 141.398 Q2247.6 141.398 2245.61 144.083 Q2243.62 146.745 2243.62 151.398 Q2243.62 156.051 2245.58 158.736 Q2247.57 161.398 2251.02 161.398 Q2254.43 161.398 2256.42 158.713 Q2258.41 156.027 2258.41 151.398 Q2258.41 146.791 2256.42 144.106 Q2254.43 141.398 2251.02 141.398 M2251.02 137.787 Q2256.58 137.787 2259.75 141.398 Q2262.92 145.009 2262.92 151.398 Q2262.92 157.764 2259.75 161.398 Q2256.58 165.009 2251.02 165.009 Q2245.44 165.009 2242.27 161.398 Q2239.12 157.764 2239.12 151.398 Q2239.12 145.009 2242.27 141.398 Q2245.44 137.787 2251.02 137.787 Z" fill="#000000" fill-rule="nonzero" fill-opacity="1" /><path clip-path="url(#clip890)" d="M2274.19 131.051 L2274.19 138.412 L2282.97 138.412 L2282.97 141.722 L2274.19 141.722 L2274.19 155.796 Q2274.19 158.967 2275.05 159.87 Q2275.93 160.773 2278.59 160.773 L2282.97 160.773 L2282.97 164.338 L2278.59 164.338 Q2273.66 164.338 2271.79 162.509 Q2269.91 160.657 2269.91 155.796 L2269.91 141.722 L2266.79 141.722 L2266.79 138.412 L2269.91 138.412 L2269.91 131.051 L2274.19 131.051 Z" fill="#000000" fill-rule="nonzero" fill-opacity="1" /><path clip-path="url(#clip890)" d="M2310.12 148.689 L2310.12 164.338 L2305.86 164.338 L2305.86 148.828 Q2305.86 145.148 2304.43 143.319 Q2302.99 141.49 2300.12 141.49 Q2296.67 141.49 2294.68 143.69 Q2292.69 145.889 2292.69 149.685 L2292.69 164.338 L2288.41 164.338 L2288.41 128.319 L2292.69 128.319 L2292.69 142.44 Q2294.22 140.102 2296.28 138.944 Q2298.36 137.787 2301.07 137.787 Q2305.54 137.787 2307.83 140.565 Q2310.12 143.319 2310.12 148.689 Z" fill="#000000" fill-rule="nonzero" fill-opacity="1" /><polyline clip-path="url(#clip890)" style="stroke:#e26f46; stroke-linecap:round; stroke-linejoin:round; stroke-width:4; stroke-opacity:1; fill:none" points="1873.84,198.898 1937.8,198.898 "/>
<path clip-path="url(#clip890)" d="M1952.74 212.289 L1952.74 226.039 L1948.45 226.039 L1948.45 190.252 L1952.74 190.252 L1952.74 194.187 Q1954.08 191.872 1956.12 190.761 Q1958.18 189.627 1961.02 189.627 Q1965.75 189.627 1968.69 193.377 Q1971.65 197.127 1971.65 203.238 Q1971.65 209.349 1968.69 213.099 Q1965.75 216.849 1961.02 216.849 Q1958.18 216.849 1956.12 215.738 Q1954.08 214.603 1952.74 212.289 M1967.23 203.238 Q1967.23 198.539 1965.28 195.877 Q1963.36 193.192 1959.98 193.192 Q1956.6 193.192 1954.66 195.877 Q1952.74 198.539 1952.74 203.238 Q1952.74 207.937 1954.66 210.622 Q1956.6 213.284 1959.98 213.284 Q1963.36 213.284 1965.28 210.622 Q1967.23 207.937 1967.23 203.238 Z" fill="#000000" fill-rule="nonzero" fill-opacity="1" /><path clip-path="url(#clip890)" d="M1991.83 180.159 L1991.83 183.701 L1987.76 183.701 Q1985.47 183.701 1984.57 184.627 Q1983.69 185.553 1983.69 187.96 L1983.69 190.252 L1990.7 190.252 L1990.7 193.562 L1983.69 193.562 L1983.69 216.178 L1979.4 216.178 L1979.4 193.562 L1975.33 193.562 L1975.33 190.252 L1979.4 190.252 L1979.4 188.446 Q1979.4 184.118 1981.42 182.15 Q1983.43 180.159 1987.81 180.159 L1991.83 180.159 Z" fill="#000000" fill-rule="nonzero" fill-opacity="1" /><path clip-path="url(#clip890)" d="M2027 191.016 L2027 195.043 Q2025.19 194.117 2023.25 193.655 Q2021.3 193.192 2019.22 193.192 Q2016.05 193.192 2014.45 194.164 Q2012.88 195.136 2012.88 197.08 Q2012.88 198.562 2014.01 199.418 Q2015.14 200.252 2018.57 201.016 L2020.03 201.34 Q2024.57 202.312 2026.46 204.094 Q2028.38 205.854 2028.38 209.025 Q2028.38 212.636 2025.51 214.742 Q2022.67 216.849 2017.67 216.849 Q2015.58 216.849 2013.32 216.432 Q2011.07 216.039 2008.57 215.228 L2008.57 210.83 Q2010.93 212.057 2013.22 212.682 Q2015.51 213.284 2017.76 213.284 Q2020.77 213.284 2022.39 212.266 Q2024.01 211.224 2024.01 209.349 Q2024.01 207.613 2022.83 206.687 Q2021.67 205.761 2017.71 204.904 L2016.23 204.557 Q2012.27 203.724 2010.51 202.011 Q2008.76 200.275 2008.76 197.266 Q2008.76 193.608 2011.35 191.618 Q2013.94 189.627 2018.71 189.627 Q2021.07 189.627 2023.15 189.974 Q2025.24 190.321 2027 191.016 Z" fill="#000000" fill-rule="nonzero" fill-opacity="1" /><path clip-path="url(#clip890)" d="M2055.35 195.229 Q2056.95 192.358 2059.17 190.993 Q2061.39 189.627 2064.4 189.627 Q2068.45 189.627 2070.65 192.474 Q2072.85 195.298 2072.85 200.529 L2072.85 216.178 L2068.57 216.178 L2068.57 200.668 Q2068.57 196.942 2067.25 195.136 Q2065.93 193.33 2063.22 193.33 Q2059.91 193.33 2057.99 195.53 Q2056.07 197.729 2056.07 201.525 L2056.07 216.178 L2051.79 216.178 L2051.79 200.668 Q2051.79 196.918 2050.47 195.136 Q2049.15 193.33 2046.39 193.33 Q2043.13 193.33 2041.21 195.553 Q2039.29 197.752 2039.29 201.525 L2039.29 216.178 L2035.01 216.178 L2035.01 190.252 L2039.29 190.252 L2039.29 194.28 Q2040.75 191.895 2042.78 190.761 Q2044.82 189.627 2047.62 189.627 Q2050.45 189.627 2052.41 191.062 Q2054.4 192.497 2055.35 195.229 Z" fill="#000000" fill-rule="nonzero" fill-opacity="1" /><path clip-path="url(#clip890)" d="M2091.39 193.238 Q2087.97 193.238 2085.98 195.923 Q2083.99 198.585 2083.99 203.238 Q2083.99 207.891 2085.95 210.576 Q2087.94 213.238 2091.39 213.238 Q2094.8 213.238 2096.79 210.553 Q2098.78 207.867 2098.78 203.238 Q2098.78 198.631 2096.79 195.946 Q2094.8 193.238 2091.39 193.238 M2091.39 189.627 Q2096.95 189.627 2100.12 193.238 Q2103.29 196.849 2103.29 203.238 Q2103.29 209.604 2100.12 213.238 Q2096.95 216.849 2091.39 216.849 Q2085.82 216.849 2082.64 213.238 Q2079.5 209.604 2079.5 203.238 Q2079.5 196.849 2082.64 193.238 Q2085.82 189.627 2091.39 189.627 Z" fill="#000000" fill-rule="nonzero" fill-opacity="1" /><path clip-path="url(#clip890)" d="M2120.4 193.238 Q2116.97 193.238 2114.98 195.923 Q2112.99 198.585 2112.99 203.238 Q2112.99 207.891 2114.96 210.576 Q2116.95 213.238 2120.4 213.238 Q2123.8 213.238 2125.79 210.553 Q2127.78 207.867 2127.78 203.238 Q2127.78 198.631 2125.79 195.946 Q2123.8 193.238 2120.4 193.238 M2120.4 189.627 Q2125.95 189.627 2129.13 193.238 Q2132.3 196.849 2132.3 203.238 Q2132.3 209.604 2129.13 213.238 Q2125.95 216.849 2120.4 216.849 Q2114.82 216.849 2111.65 213.238 Q2108.5 209.604 2108.5 203.238 Q2108.5 196.849 2111.65 193.238 Q2114.82 189.627 2120.4 189.627 Z" fill="#000000" fill-rule="nonzero" fill-opacity="1" /><path clip-path="url(#clip890)" d="M2143.57 182.891 L2143.57 190.252 L2152.34 190.252 L2152.34 193.562 L2143.57 193.562 L2143.57 207.636 Q2143.57 210.807 2144.43 211.71 Q2145.31 212.613 2147.97 212.613 L2152.34 212.613 L2152.34 216.178 L2147.97 216.178 Q2143.04 216.178 2141.16 214.349 Q2139.29 212.497 2139.29 207.636 L2139.29 193.562 L2136.16 193.562 L2136.16 190.252 L2139.29 190.252 L2139.29 182.891 L2143.57 182.891 Z" fill="#000000" fill-rule="nonzero" fill-opacity="1" /><path clip-path="url(#clip890)" d="M2179.5 200.529 L2179.5 216.178 L2175.24 216.178 L2175.24 200.668 Q2175.24 196.988 2173.8 195.159 Q2172.37 193.33 2169.5 193.33 Q2166.05 193.33 2164.06 195.53 Q2162.06 197.729 2162.06 201.525 L2162.06 216.178 L2157.78 216.178 L2157.78 180.159 L2162.06 180.159 L2162.06 194.28 Q2163.59 191.942 2165.65 190.784 Q2167.74 189.627 2170.44 189.627 Q2174.91 189.627 2177.2 192.405 Q2179.5 195.159 2179.5 200.529 Z" fill="#000000" fill-rule="nonzero" fill-opacity="1" /><polyline clip-path="url(#clip890)" style="stroke:#3da44d; stroke-linecap:round; stroke-linejoin:round; stroke-width:4; stroke-opacity:1; fill:none" points="1873.84,250.738 1937.8,250.738 "/>
<path clip-path="url(#clip890)" d="M1955.86 234.731 L1955.86 242.092 L1964.64 242.092 L1964.64 245.402 L1955.86 245.402 L1955.86 259.476 Q1955.86 262.647 1956.72 263.55 Q1957.6 264.453 1960.26 264.453 L1964.64 264.453 L1964.64 268.018 L1960.26 268.018 Q1955.33 268.018 1953.45 266.189 Q1951.58 264.337 1951.58 259.476 L1951.58 245.402 L1948.45 245.402 L1948.45 242.092 L1951.58 242.092 L1951.58 234.731 L1955.86 234.731 Z" fill="#000000" fill-rule="nonzero" fill-opacity="1" /><path clip-path="url(#clip890)" d="M1985.26 246.073 Q1984.54 245.657 1983.69 245.471 Q1982.85 245.263 1981.83 245.263 Q1978.22 245.263 1976.28 247.624 Q1974.36 249.962 1974.36 254.36 L1974.36 268.018 L1970.08 268.018 L1970.08 242.092 L1974.36 242.092 L1974.36 246.12 Q1975.7 243.758 1977.85 242.624 Q1980.01 241.467 1983.08 241.467 Q1983.52 241.467 1984.06 241.536 Q1984.59 241.583 1985.24 241.698 L1985.26 246.073 Z" fill="#000000" fill-rule="nonzero" fill-opacity="1" /><path clip-path="url(#clip890)" d="M1989.29 257.786 L1989.29 242.092 L1993.55 242.092 L1993.55 257.624 Q1993.55 261.305 1994.98 263.156 Q1996.42 264.985 1999.29 264.985 Q2002.74 264.985 2004.73 262.786 Q2006.74 260.587 2006.74 256.791 L2006.74 242.092 L2011 242.092 L2011 268.018 L2006.74 268.018 L2006.74 264.036 Q2005.19 266.397 2003.13 267.555 Q2001.09 268.689 1998.39 268.689 Q1993.92 268.689 1991.6 265.911 Q1989.29 263.133 1989.29 257.786 M2000.01 241.467 L2000.01 241.467 Z" fill="#000000" fill-rule="nonzero" fill-opacity="1" /><path clip-path="url(#clip890)" d="M2041.95 253.99 L2041.95 256.073 L2022.37 256.073 Q2022.64 260.471 2025.01 262.786 Q2027.39 265.078 2031.63 265.078 Q2034.08 265.078 2036.37 264.476 Q2038.69 263.874 2040.95 262.67 L2040.95 266.698 Q2038.66 267.67 2036.26 268.18 Q2033.85 268.689 2031.37 268.689 Q2025.17 268.689 2021.53 265.078 Q2017.92 261.467 2017.92 255.309 Q2017.92 248.944 2021.35 245.217 Q2024.8 241.467 2030.63 241.467 Q2035.86 241.467 2038.89 244.846 Q2041.95 248.203 2041.95 253.99 M2037.69 252.74 Q2037.64 249.245 2035.72 247.161 Q2033.82 245.078 2030.68 245.078 Q2027.11 245.078 2024.96 247.092 Q2022.83 249.106 2022.51 252.763 L2037.69 252.74 Z" fill="#000000" fill-rule="nonzero" fill-opacity="1" /></svg>
