<?xml version="1.0" encoding="utf-8"?>
<svg xmlns="http://www.w3.org/2000/svg" xmlns:xlink="http://www.w3.org/1999/xlink" width="600" height="400" viewBox="0 0 2400 1600">
<defs>
  <clipPath id="clip530">
    <rect x="0" y="0" width="2400" height="1600"/>
  </clipPath>
</defs>
<path clip-path="url(#clip530)" d="M0 1600 L2400 1600 L2400 0 L0 0  Z" fill="#ffffff" fill-rule="evenodd" fill-opacity="1"/>
<defs>
  <clipPath id="clip531">
    <rect x="480" y="0" width="1681" height="1600"/>
  </clipPath>
</defs>
<path clip-path="url(#clip530)" d="M193.936 1486.45 L2352.76 1486.45 L2352.76 47.2441 L193.936 47.2441  Z" fill="#ffffff" fill-rule="evenodd" fill-opacity="1"/>
<defs>
  <clipPath id="clip532">
    <rect x="193" y="47" width="2160" height="1440"/>
  </clipPath>
</defs>
<polyline clip-path="url(#clip532)" style="stroke:#000000; stroke-linecap:round; stroke-linejoin:round; stroke-width:2; stroke-opacity:0.1; fill:none" points="229.255,1486.45 229.255,47.2441 "/>
<polyline clip-path="url(#clip532)" style="stroke:#000000; stroke-linecap:round; stroke-linejoin:round; stroke-width:2; stroke-opacity:0.1; fill:none" points="744.855,1486.45 744.855,47.2441 "/>
<polyline clip-path="url(#clip532)" style="stroke:#000000; stroke-linecap:round; stroke-linejoin:round; stroke-width:2; stroke-opacity:0.1; fill:none" points="1260.46,1486.45 1260.46,47.2441 "/>
<polyline clip-path="url(#clip532)" style="stroke:#000000; stroke-linecap:round; stroke-linejoin:round; stroke-width:2; stroke-opacity:0.1; fill:none" points="1776.06,1486.45 1776.06,47.2441 "/>
<polyline clip-path="url(#clip532)" style="stroke:#000000; stroke-linecap:round; stroke-linejoin:round; stroke-width:2; stroke-opacity:0.1; fill:none" points="2291.66,1486.45 2291.66,47.2441 "/>
<polyline clip-path="url(#clip532)" style="stroke:#000000; stroke-linecap:round; stroke-linejoin:round; stroke-width:2; stroke-opacity:0.1; fill:none" points="193.936,1415.64 2352.76,1415.64 "/>
<polyline clip-path="url(#clip532)" style="stroke:#000000; stroke-linecap:round; stroke-linejoin:round; stroke-width:2; stroke-opacity:0.1; fill:none" points="193.936,1126.13 2352.76,1126.13 "/>
<polyline clip-path="url(#clip532)" style="stroke:#000000; stroke-linecap:round; stroke-linejoin:round; stroke-width:2; stroke-opacity:0.1; fill:none" points="193.936,836.623 2352.76,836.623 "/>
<polyline clip-path="url(#clip532)" style="stroke:#000000; stroke-linecap:round; stroke-linejoin:round; stroke-width:2; stroke-opacity:0.1; fill:none" points="193.936,547.114 2352.76,547.114 "/>
<polyline clip-path="url(#clip532)" style="stroke:#000000; stroke-linecap:round; stroke-linejoin:round; stroke-width:2; stroke-opacity:0.1; fill:none" points="193.936,257.605 2352.76,257.605 "/>
<polyline clip-path="url(#clip530)" style="stroke:#000000; stroke-linecap:round; stroke-linejoin:round; stroke-width:4; stroke-opacity:1; fill:none" points="193.936,1486.45 2352.76,1486.45 "/>
<polyline clip-path="url(#clip530)" style="stroke:#000000; stroke-linecap:round; stroke-linejoin:round; stroke-width:4; stroke-opacity:1; fill:none" points="229.255,1486.45 229.255,1467.55 "/>
<polyline clip-path="url(#clip530)" style="stroke:#000000; stroke-linecap:round; stroke-linejoin:round; stroke-width:4; stroke-opacity:1; fill:none" points="744.855,1486.45 744.855,1467.55 "/>
<polyline clip-path="url(#clip530)" style="stroke:#000000; stroke-linecap:round; stroke-linejoin:round; stroke-width:4; stroke-opacity:1; fill:none" points="1260.46,1486.45 1260.46,1467.55 "/>
<polyline clip-path="url(#clip530)" style="stroke:#000000; stroke-linecap:round; stroke-linejoin:round; stroke-width:4; stroke-opacity:1; fill:none" points="1776.06,1486.45 1776.06,1467.55 "/>
<polyline clip-path="url(#clip530)" style="stroke:#000000; stroke-linecap:round; stroke-linejoin:round; stroke-width:4; stroke-opacity:1; fill:none" points="2291.66,1486.45 2291.66,1467.55 "/>
<path clip-path="url(#clip530)" d="M229.255 1517.37 Q225.644 1517.37 223.815 1520.93 Q222.009 1524.47 222.009 1531.6 Q222.009 1538.71 223.815 1542.27 Q225.644 1545.82 229.255 1545.82 Q232.889 1545.82 234.694 1542.27 Q236.523 1538.71 236.523 1531.6 Q236.523 1524.47 234.694 1520.93 Q232.889 1517.37 229.255 1517.37 M229.255 1513.66 Q235.065 1513.66 238.12 1518.27 Q241.199 1522.85 241.199 1531.6 Q241.199 1540.33 238.12 1544.94 Q235.065 1549.52 229.255 1549.52 Q223.444 1549.52 220.366 1544.94 Q217.31 1540.33 217.31 1531.6 Q217.31 1522.85 220.366 1518.27 Q223.444 1513.66 229.255 1513.66 Z" fill="#000000" fill-rule="nonzero" fill-opacity="1" /><path clip-path="url(#clip530)" d="M723.629 1544.91 L739.948 1544.91 L739.948 1548.85 L718.004 1548.85 L718.004 1544.91 Q720.666 1542.16 725.249 1537.53 Q729.855 1532.88 731.036 1531.53 Q733.281 1529.01 734.161 1527.27 Q735.064 1525.51 735.064 1523.82 Q735.064 1521.07 733.119 1519.33 Q731.198 1517.6 728.096 1517.6 Q725.897 1517.6 723.443 1518.36 Q721.013 1519.13 718.235 1520.68 L718.235 1515.95 Q721.059 1514.82 723.513 1514.24 Q725.967 1513.66 728.004 1513.66 Q733.374 1513.66 736.568 1516.35 Q739.763 1519.03 739.763 1523.52 Q739.763 1525.65 738.953 1527.57 Q738.166 1529.47 736.059 1532.07 Q735.48 1532.74 732.379 1535.95 Q729.277 1539.15 723.629 1544.91 Z" fill="#000000" fill-rule="nonzero" fill-opacity="1" /><path clip-path="url(#clip530)" d="M759.763 1517.37 Q756.152 1517.37 754.323 1520.93 Q752.517 1524.47 752.517 1531.6 Q752.517 1538.71 754.323 1542.27 Q756.152 1545.82 759.763 1545.82 Q763.397 1545.82 765.202 1542.27 Q767.031 1538.71 767.031 1531.6 Q767.031 1524.47 765.202 1520.93 Q763.397 1517.37 759.763 1517.37 M759.763 1513.66 Q765.573 1513.66 768.628 1518.27 Q771.707 1522.85 771.707 1531.6 Q771.707 1540.33 768.628 1544.94 Q765.573 1549.52 759.763 1549.52 Q753.952 1549.52 750.874 1544.94 Q747.818 1540.33 747.818 1531.6 Q747.818 1522.85 750.874 1518.27 Q753.952 1513.66 759.763 1513.66 Z" fill="#000000" fill-rule="nonzero" fill-opacity="1" /><path clip-path="url(#clip530)" d="M1248.63 1518.36 L1236.82 1536.81 L1248.63 1536.81 L1248.63 1518.36 M1247.4 1514.29 L1253.28 1514.29 L1253.28 1536.81 L1258.21 1536.81 L1258.21 1540.7 L1253.28 1540.7 L1253.28 1548.85 L1248.63 1548.85 L1248.63 1540.7 L1233.03 1540.7 L1233.03 1536.19 L1247.4 1514.29 Z" fill="#000000" fill-rule="nonzero" fill-opacity="1" /><path clip-path="url(#clip530)" d="M1275.94 1517.37 Q1272.33 1517.37 1270.5 1520.93 Q1268.7 1524.47 1268.7 1531.6 Q1268.7 1538.71 1270.5 1542.27 Q1272.33 1545.82 1275.94 1545.82 Q1279.58 1545.82 1281.38 1542.27 Q1283.21 1538.71 1283.21 1531.6 Q1283.21 1524.47 1281.38 1520.93 Q1279.58 1517.37 1275.94 1517.37 M1275.94 1513.66 Q1281.75 1513.66 1284.81 1518.27 Q1287.89 1522.85 1287.89 1531.6 Q1287.89 1540.33 1284.81 1544.94 Q1281.75 1549.52 1275.94 1549.52 Q1270.13 1549.52 1267.05 1544.94 Q1264 1540.33 1264 1531.6 Q1264 1522.85 1267.05 1518.27 Q1270.13 1513.66 1275.94 1513.66 Z" fill="#000000" fill-rule="nonzero" fill-opacity="1" /><path clip-path="url(#clip530)" d="M1761.46 1529.7 Q1758.31 1529.7 1756.46 1531.86 Q1754.63 1534.01 1754.63 1537.76 Q1754.63 1541.49 1756.46 1543.66 Q1758.31 1545.82 1761.46 1545.82 Q1764.61 1545.82 1766.44 1543.66 Q1768.29 1541.49 1768.29 1537.76 Q1768.29 1534.01 1766.44 1531.86 Q1764.61 1529.7 1761.46 1529.7 M1770.74 1515.05 L1770.74 1519.31 Q1768.98 1518.48 1767.18 1518.04 Q1765.4 1517.6 1763.64 1517.6 Q1759.01 1517.6 1756.55 1520.72 Q1754.12 1523.85 1753.78 1530.17 Q1755.14 1528.15 1757.2 1527.09 Q1759.26 1526 1761.74 1526 Q1766.95 1526 1769.96 1529.17 Q1772.99 1532.32 1772.99 1537.76 Q1772.99 1543.08 1769.84 1546.3 Q1766.69 1549.52 1761.46 1549.52 Q1755.47 1549.52 1752.3 1544.94 Q1749.12 1540.33 1749.12 1531.6 Q1749.12 1523.41 1753.01 1518.55 Q1756.9 1513.66 1763.45 1513.66 Q1765.21 1513.66 1766.99 1514.01 Q1768.8 1514.36 1770.74 1515.05 Z" fill="#000000" fill-rule="nonzero" fill-opacity="1" /><path clip-path="url(#clip530)" d="M1791.04 1517.37 Q1787.43 1517.37 1785.61 1520.93 Q1783.8 1524.47 1783.8 1531.6 Q1783.8 1538.71 1785.61 1542.27 Q1787.43 1545.82 1791.04 1545.82 Q1794.68 1545.82 1796.48 1542.27 Q1798.31 1538.71 1798.31 1531.6 Q1798.31 1524.47 1796.48 1520.93 Q1794.68 1517.37 1791.04 1517.37 M1791.04 1513.66 Q1796.86 1513.66 1799.91 1518.27 Q1802.99 1522.85 1802.99 1531.6 Q1802.99 1540.33 1799.91 1544.94 Q1796.86 1549.52 1791.04 1549.52 Q1785.23 1549.52 1782.16 1544.94 Q1779.1 1540.33 1779.1 1531.6 Q1779.1 1522.85 1782.16 1518.27 Q1785.23 1513.66 1791.04 1513.66 Z" fill="#000000" fill-rule="nonzero" fill-opacity="1" /><path clip-path="url(#clip530)" d="M2276.53 1532.44 Q2273.2 1532.44 2271.28 1534.22 Q2269.38 1536 2269.38 1539.13 Q2269.38 1542.25 2271.28 1544.03 Q2273.2 1545.82 2276.53 1545.82 Q2279.86 1545.82 2281.78 1544.03 Q2283.71 1542.23 2283.71 1539.13 Q2283.71 1536 2281.78 1534.22 Q2279.89 1532.44 2276.53 1532.44 M2271.85 1530.45 Q2268.84 1529.7 2267.16 1527.64 Q2265.49 1525.58 2265.49 1522.62 Q2265.49 1518.48 2268.43 1516.07 Q2271.39 1513.66 2276.53 1513.66 Q2281.69 1513.66 2284.63 1516.07 Q2287.57 1518.48 2287.57 1522.62 Q2287.57 1525.58 2285.88 1527.64 Q2284.22 1529.7 2281.23 1530.45 Q2284.61 1531.23 2286.48 1533.52 Q2288.38 1535.82 2288.38 1539.13 Q2288.38 1544.15 2285.3 1546.83 Q2282.25 1549.52 2276.53 1549.52 Q2270.81 1549.52 2267.73 1546.83 Q2264.68 1544.15 2264.68 1539.13 Q2264.68 1535.82 2266.58 1533.52 Q2268.47 1531.23 2271.85 1530.45 M2270.14 1523.06 Q2270.14 1525.75 2271.81 1527.25 Q2273.5 1528.76 2276.53 1528.76 Q2279.54 1528.76 2281.23 1527.25 Q2282.94 1525.75 2282.94 1523.06 Q2282.94 1520.38 2281.23 1518.87 Q2279.54 1517.37 2276.53 1517.37 Q2273.5 1517.37 2271.81 1518.87 Q2270.14 1520.38 2270.14 1523.06 Z" fill="#000000" fill-rule="nonzero" fill-opacity="1" /><path clip-path="url(#clip530)" d="M2306.69 1517.37 Q2303.08 1517.37 2301.25 1520.93 Q2299.45 1524.47 2299.45 1531.6 Q2299.45 1538.71 2301.25 1542.27 Q2303.08 1545.82 2306.69 1545.82 Q2310.33 1545.82 2312.13 1542.27 Q2313.96 1538.71 2313.96 1531.6 Q2313.96 1524.47 2312.13 1520.93 Q2310.33 1517.37 2306.69 1517.37 M2306.69 1513.66 Q2312.5 1513.66 2315.56 1518.27 Q2318.64 1522.85 2318.64 1531.6 Q2318.64 1540.33 2315.56 1544.94 Q2312.5 1549.52 2306.69 1549.52 Q2300.88 1549.52 2297.8 1544.94 Q2294.75 1540.33 2294.75 1531.6 Q2294.75 1522.85 2297.8 1518.27 Q2300.88 1513.66 2306.69 1513.66 Z" fill="#000000" fill-rule="nonzero" fill-opacity="1" /><polyline clip-path="url(#clip530)" style="stroke:#000000; stroke-linecap:round; stroke-linejoin:round; stroke-width:4; stroke-opacity:1; fill:none" points="193.936,1486.45 193.936,47.2441 "/>
<polyline clip-path="url(#clip530)" style="stroke:#000000; stroke-linecap:round; stroke-linejoin:round; stroke-width:4; stroke-opacity:1; fill:none" points="193.936,1415.64 212.834,1415.64 "/>
<polyline clip-path="url(#clip530)" style="stroke:#000000; stroke-linecap:round; stroke-linejoin:round; stroke-width:4; stroke-opacity:1; fill:none" points="193.936,1126.13 212.834,1126.13 "/>
<polyline clip-path="url(#clip530)" style="stroke:#000000; stroke-linecap:round; stroke-linejoin:round; stroke-width:4; stroke-opacity:1; fill:none" points="193.936,836.623 212.834,836.623 "/>
<polyline clip-path="url(#clip530)" style="stroke:#000000; stroke-linecap:round; stroke-linejoin:round; stroke-width:4; stroke-opacity:1; fill:none" points="193.936,547.114 212.834,547.114 "/>
<polyline clip-path="url(#clip530)" style="stroke:#000000; stroke-linecap:round; stroke-linejoin:round; stroke-width:4; stroke-opacity:1; fill:none" points="193.936,257.605 212.834,257.605 "/>
<path clip-path="url(#clip530)" d="M50.9921 1416.09 L80.6679 1416.09 L80.6679 1420.03 L50.9921 1420.03 L50.9921 1416.09 Z" fill="#000000" fill-rule="nonzero" fill-opacity="1" /><path clip-path="url(#clip530)" d="M91.5706 1428.99 L99.2095 1428.99 L99.2095 1402.62 L90.8993 1404.29 L90.8993 1400.03 L99.1632 1398.36 L103.839 1398.36 L103.839 1428.99 L111.478 1428.99 L111.478 1432.92 L91.5706 1432.92 L91.5706 1428.99 Z" fill="#000000" fill-rule="nonzero" fill-opacity="1" /><path clip-path="url(#clip530)" d="M120.922 1427.04 L125.807 1427.04 L125.807 1432.92 L120.922 1432.92 L120.922 1427.04 Z" fill="#000000" fill-rule="nonzero" fill-opacity="1" /><path clip-path="url(#clip530)" d="M145.992 1401.44 Q142.381 1401.44 140.552 1405 Q138.746 1408.55 138.746 1415.68 Q138.746 1422.78 140.552 1426.35 Q142.381 1429.89 145.992 1429.89 Q149.626 1429.89 151.431 1426.35 Q153.26 1422.78 153.26 1415.68 Q153.26 1408.55 151.431 1405 Q149.626 1401.44 145.992 1401.44 M145.992 1397.74 Q151.802 1397.74 154.857 1402.34 Q157.936 1406.93 157.936 1415.68 Q157.936 1424.4 154.857 1429.01 Q151.802 1433.59 145.992 1433.59 Q140.181 1433.59 137.103 1429.01 Q134.047 1424.4 134.047 1415.68 Q134.047 1406.93 137.103 1402.34 Q140.181 1397.74 145.992 1397.74 Z" fill="#000000" fill-rule="nonzero" fill-opacity="1" /><path clip-path="url(#clip530)" d="M51.9875 1126.58 L81.6633 1126.58 L81.6633 1130.52 L51.9875 1130.52 L51.9875 1126.58 Z" fill="#000000" fill-rule="nonzero" fill-opacity="1" /><path clip-path="url(#clip530)" d="M101.756 1111.93 Q98.1447 1111.93 96.316 1115.5 Q94.5104 1119.04 94.5104 1126.17 Q94.5104 1133.27 96.316 1136.84 Q98.1447 1140.38 101.756 1140.38 Q105.39 1140.38 107.196 1136.84 Q109.024 1133.27 109.024 1126.17 Q109.024 1119.04 107.196 1115.5 Q105.39 1111.93 101.756 1111.93 M101.756 1108.23 Q107.566 1108.23 110.621 1112.83 Q113.7 1117.42 113.7 1126.17 Q113.7 1134.89 110.621 1139.5 Q107.566 1144.08 101.756 1144.08 Q95.9456 1144.08 92.8669 1139.5 Q89.8114 1134.89 89.8114 1126.17 Q89.8114 1117.42 92.8669 1112.83 Q95.9456 1108.23 101.756 1108.23 Z" fill="#000000" fill-rule="nonzero" fill-opacity="1" /><path clip-path="url(#clip530)" d="M121.918 1137.53 L126.802 1137.53 L126.802 1143.41 L121.918 1143.41 L121.918 1137.53 Z" fill="#000000" fill-rule="nonzero" fill-opacity="1" /><path clip-path="url(#clip530)" d="M137.033 1108.85 L155.39 1108.85 L155.39 1112.79 L141.316 1112.79 L141.316 1121.26 Q142.334 1120.91 143.353 1120.75 Q144.371 1120.56 145.39 1120.56 Q151.177 1120.56 154.556 1123.74 Q157.936 1126.91 157.936 1132.32 Q157.936 1137.9 154.464 1141 Q150.992 1144.08 144.672 1144.08 Q142.496 1144.08 140.228 1143.71 Q137.982 1143.34 135.575 1142.6 L135.575 1137.9 Q137.658 1139.04 139.881 1139.59 Q142.103 1140.15 144.58 1140.15 Q148.584 1140.15 150.922 1138.04 Q153.26 1135.94 153.26 1132.32 Q153.26 1128.71 150.922 1126.61 Q148.584 1124.5 144.58 1124.5 Q142.705 1124.5 140.83 1124.92 Q138.978 1125.33 137.033 1126.21 L137.033 1108.85 Z" fill="#000000" fill-rule="nonzero" fill-opacity="1" /><path clip-path="url(#clip530)" d="M100.76 822.422 Q97.1493 822.422 95.3206 825.987 Q93.515 829.528 93.515 836.658 Q93.515 843.764 95.3206 847.329 Q97.1493 850.871 100.76 850.871 Q104.395 850.871 106.2 847.329 Q108.029 843.764 108.029 836.658 Q108.029 829.528 106.2 825.987 Q104.395 822.422 100.76 822.422 M100.76 818.718 Q106.571 818.718 109.626 823.325 Q112.705 827.908 112.705 836.658 Q112.705 845.385 109.626 849.991 Q106.571 854.574 100.76 854.574 Q94.9502 854.574 91.8715 849.991 Q88.816 845.385 88.816 836.658 Q88.816 827.908 91.8715 823.325 Q94.9502 818.718 100.76 818.718 Z" fill="#000000" fill-rule="nonzero" fill-opacity="1" /><path clip-path="url(#clip530)" d="M120.922 848.024 L125.807 848.024 L125.807 853.903 L120.922 853.903 L120.922 848.024 Z" fill="#000000" fill-rule="nonzero" fill-opacity="1" /><path clip-path="url(#clip530)" d="M145.992 822.422 Q142.381 822.422 140.552 825.987 Q138.746 829.528 138.746 836.658 Q138.746 843.764 140.552 847.329 Q142.381 850.871 145.992 850.871 Q149.626 850.871 151.431 847.329 Q153.26 843.764 153.26 836.658 Q153.26 829.528 151.431 825.987 Q149.626 822.422 145.992 822.422 M145.992 818.718 Q151.802 818.718 154.857 823.325 Q157.936 827.908 157.936 836.658 Q157.936 845.385 154.857 849.991 Q151.802 854.574 145.992 854.574 Q140.181 854.574 137.103 849.991 Q134.047 845.385 134.047 836.658 Q134.047 827.908 137.103 823.325 Q140.181 818.718 145.992 818.718 Z" fill="#000000" fill-rule="nonzero" fill-opacity="1" /><path clip-path="url(#clip530)" d="M101.756 532.913 Q98.1447 532.913 96.316 536.478 Q94.5104 540.019 94.5104 547.149 Q94.5104 554.255 96.316 557.82 Q98.1447 561.362 101.756 561.362 Q105.39 561.362 107.196 557.82 Q109.024 554.255 109.024 547.149 Q109.024 540.019 107.196 536.478 Q105.39 532.913 101.756 532.913 M101.756 529.209 Q107.566 529.209 110.621 533.816 Q113.7 538.399 113.7 547.149 Q113.7 555.876 110.621 560.482 Q107.566 565.066 101.756 565.066 Q95.9456 565.066 92.8669 560.482 Q89.8114 555.876 89.8114 547.149 Q89.8114 538.399 92.8669 533.816 Q95.9456 529.209 101.756 529.209 Z" fill="#000000" fill-rule="nonzero" fill-opacity="1" /><path clip-path="url(#clip530)" d="M121.918 558.515 L126.802 558.515 L126.802 564.394 L121.918 564.394 L121.918 558.515 Z" fill="#000000" fill-rule="nonzero" fill-opacity="1" /><path clip-path="url(#clip530)" d="M137.033 529.834 L155.39 529.834 L155.39 533.769 L141.316 533.769 L141.316 542.242 Q142.334 541.894 143.353 541.732 Q144.371 541.547 145.39 541.547 Q151.177 541.547 154.556 544.718 Q157.936 547.89 157.936 553.306 Q157.936 558.885 154.464 561.987 Q150.992 565.066 144.672 565.066 Q142.496 565.066 140.228 564.695 Q137.982 564.325 135.575 563.584 L135.575 558.885 Q137.658 560.019 139.881 560.575 Q142.103 561.13 144.58 561.13 Q148.584 561.13 150.922 559.024 Q153.26 556.917 153.26 553.306 Q153.26 549.695 150.922 547.589 Q148.584 545.482 144.58 545.482 Q142.705 545.482 140.83 545.899 Q138.978 546.316 137.033 547.195 L137.033 529.834 Z" fill="#000000" fill-rule="nonzero" fill-opacity="1" /><path clip-path="url(#clip530)" d="M91.5706 270.95 L99.2095 270.95 L99.2095 244.585 L90.8993 246.251 L90.8993 241.992 L99.1632 240.325 L103.839 240.325 L103.839 270.95 L111.478 270.95 L111.478 274.885 L91.5706 274.885 L91.5706 270.95 Z" fill="#000000" fill-rule="nonzero" fill-opacity="1" /><path clip-path="url(#clip530)" d="M120.922 269.006 L125.807 269.006 L125.807 274.885 L120.922 274.885 L120.922 269.006 Z" fill="#000000" fill-rule="nonzero" fill-opacity="1" /><path clip-path="url(#clip530)" d="M145.992 243.404 Q142.381 243.404 140.552 246.969 Q138.746 250.511 138.746 257.64 Q138.746 264.747 140.552 268.311 Q142.381 271.853 145.992 271.853 Q149.626 271.853 151.431 268.311 Q153.26 264.747 153.26 257.64 Q153.26 250.511 151.431 246.969 Q149.626 243.404 145.992 243.404 M145.992 239.7 Q151.802 239.7 154.857 244.307 Q157.936 248.89 157.936 257.64 Q157.936 266.367 154.857 270.973 Q151.802 275.557 145.992 275.557 Q140.181 275.557 137.103 270.973 Q134.047 266.367 134.047 257.64 Q134.047 248.89 137.103 244.307 Q140.181 239.7 145.992 239.7 Z" fill="#000000" fill-rule="nonzero" fill-opacity="1" /><path clip-path="url(#clip532)" d="M255.035 1332.94 L280.815 1170.09 L306.595 1192.51 L332.375 1132.55 L358.155 1184.22 L383.935 1254.54 L409.715 1146.32 L435.495 1045.53 L461.275 1067.97 L487.055 1036.43 L512.835 1035.38 L538.615 977.163 L564.395 972.489 L590.175 1011.64 L615.955 1024.71 L641.735 982.759 L667.515 877.794 L693.295 899.276 L719.075 760.743 L744.855 681.742 L770.635 653.838 L796.415 642.787 L822.195 677.295 L847.975 683.508 L873.755 743.189 L899.535 811.734 L925.316 857.75 L951.096 949.053 L976.876 915.591 L1002.66 987.391 L1028.44 1193 L1054.22 1238.21 L1080 1185.18 L1105.78 1237.33 L1131.56 1240.92 L1157.34 1282.05 L1183.12 1254.03 L1208.9 1264.79 L1234.68 1319.02 L1260.46 1281.68 L1286.24 1293.67 L1312.02 1172.1 L1337.8 1131.22 L1363.58 1241.88 L1389.36 1281.53 L1415.14 1263.88 L1440.92 1304.11 L1466.7 1322.33 L1492.48 1349.11 L1518.26 1445.72 L1544.04 1390.17 L1569.82 1439.37 L1595.6 1391.93 L1621.38 1368.61 L1647.16 1412.87 L1672.94 1328.75 L1698.72 1307.87 L1724.5 1182.28 L1750.28 1138.58 L1776.06 968.557 L1801.84 892.93 L1827.62 801.03 L1853.4 763.207 L1879.18 778.951 L1904.96 731.472 L1930.74 739.358 L1956.52 659.99 L1982.3 751.216 L2008.08 660.128 L2033.86 670.372 L2059.64 707.891 L2085.42 720.535 L2111.2 790.358 L2136.98 770.319 L2162.76 856.085 L2188.54 869.968 L2214.32 901.998 L2240.1 1154.59 L2265.88 1200.26 L2291.66 1131.67 L2291.66 451.25 L2265.88 528.078 L2240.1 492.936 L2214.32 292.662 L2188.54 242.032 L2162.76 255.083 L2136.98 203.46 L2111.2 227.175 L2085.42 133.948 L2059.64 93.9727 L2033.86 87.9763 L2008.08 100.058 L1982.3 185.629 L1956.52 112.322 L1930.74 184.506 L1904.96 186.193 L1879.18 188.395 L1853.4 177.983 L1827.62 223.109 L1801.84 346.967 L1776.06 390.061 L1750.28 579.996 L1724.5 644.683 L1698.72 749.735 L1672.94 754.592 L1647.16 809.914 L1621.38 782.544 L1595.6 858.738 L1569.82 878.227 L1544.04 857.031 L1518.26 904.149 L1492.48 837.742 L1466.7 811.207 L1440.92 797.153 L1415.14 730.662 L1389.36 743.891 L1363.58 709.158 L1337.8 590.897 L1312.02 591.158 L1286.24 700.111 L1260.46 689.417 L1234.68 733.419 L1208.9 706.177 L1183.12 710.737 L1157.34 672.091 L1131.56 630.667 L1105.78 652.621 L1080 605.42 L1054.22 634.468 L1028.44 615.116 L1002.66 414.702 L976.876 354.618 L951.096 372.102 L925.316 246.532 L899.535 180.582 L873.755 153.8 L847.975 118.433 L822.195 124.512 L796.415 126.296 L770.635 148.945 L744.855 200.026 L719.075 298.898 L693.295 427.232 L667.515 366.805 L641.735 457.324 L615.955 480.206 L590.175 444.629 L564.395 414.102 L538.615 400.136 L512.835 471.146 L487.055 438.935 L461.275 456.031 L435.495 454.765 L409.715 487.303 L383.935 548.847 L358.155 447.409 L332.375 381.601 L306.595 349.214 L280.815 266.217 L255.035 392.626  Z" fill="#009af9" fill-rule="evenodd" fill-opacity="0.5"/>
<polyline clip-path="url(#clip532)" style="stroke:#009af9; stroke-linecap:round; stroke-linejoin:round; stroke-width:4; stroke-opacity:1; fill:none" points="255.035,862.785 280.815,718.151 306.595,770.863 332.375,757.075 358.155,815.815 383.935,901.695 409.715,816.809 435.495,750.149 461.275,762.002 487.055,737.683 512.835,753.264 538.615,688.649 564.395,693.296 590.175,728.134 615.955,752.456 641.735,720.041 667.515,622.3 693.295,663.254 719.075,529.821 744.855,440.884 770.635,401.392 796.415,384.541 822.195,400.903 847.975,400.97 873.755,448.495 899.535,496.158 925.316,552.141 951.096,660.578 976.876,635.104 1002.66,701.046 1028.44,904.057 1054.22,936.34 1080,895.302 1105.78,944.974 1131.56,935.794 1157.34,977.072 1183.12,982.384 1208.9,985.483 1234.68,1026.22 1260.46,985.548 1286.24,996.893 1312.02,881.629 1337.8,861.057 1363.58,975.519 1389.36,1012.71 1415.14,997.27 1440.92,1050.63 1466.7,1066.77 1492.48,1093.43 1518.26,1174.93 1544.04,1123.6 1569.82,1158.8 1595.6,1125.34 1621.38,1075.58 1647.16,1111.39 1672.94,1041.67 1698.72,1028.8 1724.5,913.484 1750.28,859.289 1776.06,679.309 1801.84,619.948 1827.62,512.07 1853.4,470.595 1879.18,483.673 1904.96,458.833 1930.74,461.932 1956.52,386.156 1982.3,468.423 2008.08,380.093 2033.86,379.174 2059.64,400.932 2085.42,427.241 2111.2,508.766 2136.98,486.89 2162.76,555.584 2188.54,556 2214.32,597.33 2240.1,823.761 2265.88,864.169 2291.66,791.46 "/>
<path clip-path="url(#clip532)" d="M255.035 1170.19 L280.815 1121.24 L306.595 1071.84 L332.375 1084.22 L358.155 1056.2 L383.935 1052.04 L409.715 1050.86 L435.495 1051.91 L461.275 1020.62 L487.055 1015.32 L512.835 1013.55 L538.615 971.825 L564.395 960.36 L590.175 969.045 L615.955 1009.1 L641.735 941.495 L667.515 951.394 L693.295 938.531 L719.075 933.942 L744.855 913.877 L770.635 881.282 L796.415 841.002 L822.195 756.701 L847.975 720.54 L873.755 655.648 L899.535 620.597 L925.316 608.791 L951.096 605.621 L976.876 633.809 L1002.66 634.762 L1028.44 620.005 L1054.22 609.315 L1080 656.604 L1105.78 700.573 L1131.56 719.817 L1157.34 755.494 L1183.12 793.429 L1208.9 802.788 L1234.68 798.156 L1260.46 807.032 L1286.24 827.521 L1312.02 862.162 L1337.8 875.452 L1363.58 840.97 L1389.36 850.957 L1415.14 931.13 L1440.92 999.17 L1466.7 1029.47 L1492.48 1073.69 L1518.26 1092.01 L1544.04 1132.42 L1569.82 1199.11 L1595.6 1239.58 L1621.38 1279.89 L1647.16 1298.5 L1672.94 1296.83 L1698.72 1316.7 L1724.5 1332.16 L1750.28 1321.98 L1776.06 1299.64 L1801.84 1253.05 L1827.62 1194.45 L1853.4 1130.08 L1879.18 1041.81 L1904.96 975.293 L1930.74 933.765 L1956.52 916.458 L1982.3 865.311 L2008.08 848.439 L2033.86 821.638 L2059.64 774.407 L2085.42 773.766 L2111.2 738.067 L2136.98 725.86 L2162.76 686.597 L2188.54 673 L2214.32 637.322 L2240.1 645.042 L2265.88 652.637 L2291.66 672.66 L2291.66 371.841 L2265.88 388.347 L2240.1 407.196 L2214.32 389.029 L2188.54 429.132 L2162.76 445.187 L2136.98 499.056 L2111.2 499.855 L2085.42 528.35 L2059.64 537.847 L2033.86 583.045 L2008.08 614.876 L1982.3 642.53 L1956.52 655.99 L1930.74 694.057 L1904.96 754.741 L1879.18 792.073 L1853.4 847.771 L1827.62 929.483 L1801.84 1012.46 L1776.06 1070 L1750.28 1072.08 L1724.5 1082.28 L1698.72 1105.03 L1672.94 1069.2 L1647.16 1052.45 L1621.38 1044.32 L1595.6 1014.12 L1569.82 958.717 L1544.04 906.236 L1518.26 882.878 L1492.48 816.742 L1466.7 775.976 L1440.92 732.207 L1415.14 680.34 L1389.36 622.106 L1363.58 626.558 L1337.8 636.646 L1312.02 640.422 L1286.24 609.116 L1260.46 597.59 L1234.68 577.046 L1208.9 592.58 L1183.12 573.717 L1157.34 531.912 L1131.56 482.422 L1105.78 467.41 L1080 418.679 L1054.22 387.697 L1028.44 382.25 L1002.66 380.523 L976.876 404.085 L951.096 361.623 L925.316 372.234 L899.535 409.717 L873.755 449.389 L847.975 504.792 L822.195 551.232 L796.415 594.785 L770.635 642.902 L744.855 683.724 L719.075 696.734 L693.295 704.874 L667.515 720.733 L641.735 707.824 L615.955 724.079 L590.175 740.401 L564.395 748.096 L538.615 734.923 L512.835 759.077 L487.055 783.882 L461.275 766.786 L435.495 824.542 L409.715 839.197 L383.935 804.627 L358.155 834.859 L332.375 824.648 L306.595 825.038 L280.815 851.067 L255.035 831.201  Z" fill="#e26f46" fill-rule="evenodd" fill-opacity="0.5"/>
<polyline clip-path="url(#clip532)" style="stroke:#e26f46; stroke-linecap:round; stroke-linejoin:round; stroke-width:4; stroke-opacity:1; fill:none" points="255.035,1000.7 280.815,986.152 306.595,948.437 332.375,954.433 358.155,945.53 383.935,928.334 409.715,945.029 435.495,938.224 461.275,893.702 487.055,899.601 512.835,886.314 538.615,853.374 564.395,854.228 590.175,854.723 615.955,866.592 641.735,824.66 667.515,836.064 693.295,821.702 719.075,815.338 744.855,798.801 770.635,762.092 796.415,717.894 822.195,653.967 847.975,612.666 873.755,552.519 899.535,515.157 925.316,490.513 951.096,483.622 976.876,518.947 1002.66,507.643 1028.44,501.127 1054.22,498.506 1080,537.642 1105.78,583.992 1131.56,601.119 1157.34,643.703 1183.12,683.573 1208.9,697.684 1234.68,687.601 1260.46,702.311 1286.24,718.318 1312.02,751.292 1337.8,756.049 1363.58,733.764 1389.36,736.532 1415.14,805.735 1440.92,865.688 1466.7,902.724 1492.48,945.216 1518.26,987.444 1544.04,1019.33 1569.82,1078.91 1595.6,1126.85 1621.38,1162.11 1647.16,1175.47 1672.94,1183.02 1698.72,1210.87 1724.5,1207.22 1750.28,1197.03 1776.06,1184.82 1801.84,1132.75 1827.62,1061.97 1853.4,988.928 1879.18,916.942 1904.96,865.017 1930.74,813.911 1956.52,786.224 1982.3,753.921 2008.08,731.658 2033.86,702.341 2059.64,656.127 2085.42,651.058 2111.2,618.961 2136.98,612.458 2162.76,565.892 2188.54,551.066 2214.32,513.175 2240.1,526.119 2265.88,520.492 2291.66,522.251 "/>
<polyline clip-path="url(#clip532)" style="stroke:#3da44d; stroke-linecap:round; stroke-linejoin:round; stroke-width:4; stroke-opacity:1; fill:none" stroke-dasharray="16, 10" points="255.035,791.795 280.815,712.105 306.595,845.184 332.375,847.022 358.155,769.073 383.935,848.385 409.715,722.825 435.495,669.621 461.275,656.613 487.055,576.248 512.835,558.503 538.615,480.779 564.395,560.243 590.175,497.06 615.955,591.762 641.735,621.777 667.515,629.744 693.295,789.901 719.075,667.47 744.855,526.536 770.635,421.722 796.415,302.115 822.195,278.521 847.975,339.026 873.755,464.452 899.535,530.101 925.316,460.061 951.096,605.597 976.876,556.885 1002.66,518.449 1028.44,719.226 1054.22,727.395 1080,649.06 1105.78,630.81 1131.56,654.017 1157.34,687.723 1183.12,742.957 1208.9,869 1234.68,905.112 1260.46,937.107 1286.24,899.976 1312.02,722.526 1337.8,705.745 1363.58,891.144 1389.36,854.584 1415.14,898.127 1440.92,927.133 1466.7,972.941 1492.48,925.174 1518.26,1050.54 1544.04,1007.6 1569.82,1034.56 1595.6,1103.78 1621.38,1133.7 1647.16,1116.22 1672.94,1087.08 1698.72,1014.43 1724.5,886.462 1750.28,893.962 1776.06,669.313 1801.84,582.114 1827.62,458.8 1853.4,415.306 1879.18,438.769 1904.96,458.314 1930.74,504.432 1956.52,492.713 1982.3,532.397 2008.08,445.093 2033.86,425.715 2059.64,492.793 2085.42,448.168 2111.2,495.46 2136.98,496.956 2162.76,525.06 2188.54,502.301 2214.32,557.388 2240.1,758.849 2265.88,769.031 2291.66,749.35 "/>
<polyline clip-path="url(#clip532)" style="stroke:#c271d2; stroke-linecap:round; stroke-linejoin:round; stroke-width:4; stroke-opacity:1; fill:none" stroke-dasharray="16, 10" points="255.035,936.938 280.815,970.423 306.595,893.241 332.375,930.815 358.155,884.59 383.935,861.285 409.715,876.473 435.495,917.385 461.275,884.471 487.055,914.933 512.835,990.976 538.615,938.162 564.395,916.816 590.175,935.352 615.955,840.325 641.735,833.491 667.515,926.374 693.295,855.82 719.075,820.217 744.855,822.801 770.635,750.688 796.415,698.142 822.195,599.901 847.975,613.156 873.755,653.781 899.535,524.655 925.316,545.165 951.096,526.753 976.876,575.567 1002.66,483.834 1028.44,461.967 1054.22,431.662 1080,510.072 1105.78,513.686 1131.56,592.174 1157.34,647.523 1183.12,669.955 1208.9,634.839 1234.68,650.595 1260.46,762.048 1286.24,856.635 1312.02,870.867 1337.8,881.77 1363.58,830.898 1389.36,754.784 1415.14,793.526 1440.92,892.935 1466.7,874.41 1492.48,940.638 1518.26,992.37 1544.04,1048.07 1569.82,1137.22 1595.6,1237.91 1621.38,1274.77 1647.16,1259.77 1672.94,1197.28 1698.72,1314.2 1724.5,1365.01 1750.28,1258.72 1776.06,1256.33 1801.84,1212.38 1827.62,1125.75 1853.4,1040.52 1879.18,1013.38 1904.96,866.318 1930.74,785.997 1956.52,796.742 1982.3,760.604 2008.08,700.811 2033.86,679.126 2059.64,623.987 2085.42,554.892 2111.2,523.008 2136.98,548.686 2162.76,525.768 2188.54,532.242 2214.32,532.93 2240.1,474.868 2265.88,562.791 2291.66,475.102 "/>
<path clip-path="url(#clip530)" d="M265.897 354.418 L721.546 354.418 L721.546 95.2176 L265.897 95.2176  Z" fill="#ffffff" fill-rule="evenodd" fill-opacity="1"/>
<polyline clip-path="url(#clip530)" style="stroke:#000000; stroke-linecap:round; stroke-linejoin:round; stroke-width:4; stroke-opacity:1; fill:none" points="265.897,354.418 721.546,354.418 721.546,95.2176 265.897,95.2176 265.897,354.418 "/>
<polyline clip-path="url(#clip530)" style="stroke:#009af9; stroke-linecap:round; stroke-linejoin:round; stroke-width:4; stroke-opacity:1; fill:none" points="289.884,147.058 433.805,147.058 "/>
<path clip-path="url(#clip530)" d="M462.468 133.62 L462.468 146.606 L468.347 146.606 Q471.611 146.606 473.394 144.916 Q475.176 143.227 475.176 140.102 Q475.176 137 473.394 135.31 Q471.611 133.62 468.347 133.62 L462.468 133.62 M457.792 129.778 L468.347 129.778 Q474.157 129.778 477.12 132.416 Q480.106 135.032 480.106 140.102 Q480.106 145.217 477.12 147.833 Q474.157 150.449 468.347 150.449 L462.468 150.449 L462.468 164.338 L457.792 164.338 L457.792 129.778 Z" fill="#000000" fill-rule="nonzero" fill-opacity="1" /><path clip-path="url(#clip530)" d="M486.38 129.778 L506.241 129.778 L506.241 133.713 L491.055 133.713 L491.055 143.898 L504.759 143.898 L504.759 147.833 L491.055 147.833 L491.055 164.338 L486.38 164.338 L486.38 129.778 Z" fill="#000000" fill-rule="nonzero" fill-opacity="1" /><path clip-path="url(#clip530)" d="M545.06 139.176 L545.06 143.203 Q543.254 142.277 541.31 141.815 Q539.365 141.352 537.282 141.352 Q534.111 141.352 532.514 142.324 Q530.94 143.296 530.94 145.24 Q530.94 146.722 532.074 147.578 Q533.208 148.412 536.634 149.176 L538.092 149.5 Q542.629 150.472 544.527 152.254 Q546.449 154.014 546.449 157.185 Q546.449 160.796 543.578 162.902 Q540.731 165.009 535.731 165.009 Q533.648 165.009 531.379 164.592 Q529.134 164.199 526.634 163.388 L526.634 158.99 Q528.995 160.217 531.287 160.842 Q533.578 161.444 535.824 161.444 Q538.833 161.444 540.453 160.426 Q542.074 159.384 542.074 157.509 Q542.074 155.773 540.893 154.847 Q539.736 153.921 535.777 153.064 L534.296 152.717 Q530.338 151.884 528.578 150.171 Q526.819 148.435 526.819 145.426 Q526.819 141.768 529.412 139.778 Q532.004 137.787 536.773 137.787 Q539.134 137.787 541.217 138.134 Q543.301 138.481 545.06 139.176 Z" fill="#000000" fill-rule="nonzero" fill-opacity="1" /><path clip-path="url(#clip530)" d="M573.416 143.389 Q575.013 140.518 577.236 139.153 Q579.458 137.787 582.467 137.787 Q586.518 137.787 588.717 140.634 Q590.916 143.458 590.916 148.689 L590.916 164.338 L586.634 164.338 L586.634 148.828 Q586.634 145.102 585.314 143.296 Q583.995 141.49 581.286 141.49 Q577.976 141.49 576.055 143.69 Q574.134 145.889 574.134 149.685 L574.134 164.338 L569.851 164.338 L569.851 148.828 Q569.851 145.078 568.532 143.296 Q567.212 141.49 564.458 141.49 Q561.194 141.49 559.273 143.713 Q557.351 145.912 557.351 149.685 L557.351 164.338 L553.069 164.338 L553.069 138.412 L557.351 138.412 L557.351 142.44 Q558.81 140.055 560.847 138.921 Q562.884 137.787 565.685 137.787 Q568.509 137.787 570.476 139.222 Q572.467 140.657 573.416 143.389 Z" fill="#000000" fill-rule="nonzero" fill-opacity="1" /><path clip-path="url(#clip530)" d="M609.458 141.398 Q606.032 141.398 604.041 144.083 Q602.05 146.745 602.05 151.398 Q602.05 156.051 604.018 158.736 Q606.009 161.398 609.458 161.398 Q612.86 161.398 614.851 158.713 Q616.842 156.027 616.842 151.398 Q616.842 146.791 614.851 144.106 Q612.86 141.398 609.458 141.398 M609.458 137.787 Q615.013 137.787 618.184 141.398 Q621.356 145.009 621.356 151.398 Q621.356 157.764 618.184 161.398 Q615.013 165.009 609.458 165.009 Q603.879 165.009 600.708 161.398 Q597.56 157.764 597.56 151.398 Q597.56 145.009 600.708 141.398 Q603.879 137.787 609.458 137.787 Z" fill="#000000" fill-rule="nonzero" fill-opacity="1" /><path clip-path="url(#clip530)" d="M638.462 141.398 Q635.036 141.398 633.045 144.083 Q631.055 146.745 631.055 151.398 Q631.055 156.051 633.022 158.736 Q635.013 161.398 638.462 161.398 Q641.865 161.398 643.856 158.713 Q645.846 156.027 645.846 151.398 Q645.846 146.791 643.856 144.106 Q641.865 141.398 638.462 141.398 M638.462 137.787 Q644.018 137.787 647.189 141.398 Q650.36 145.009 650.36 151.398 Q650.36 157.764 647.189 161.398 Q644.018 165.009 638.462 165.009 Q632.883 165.009 629.712 161.398 Q626.564 157.764 626.564 151.398 Q626.564 145.009 629.712 141.398 Q632.883 137.787 638.462 137.787 Z" fill="#000000" fill-rule="nonzero" fill-opacity="1" /><path clip-path="url(#clip530)" d="M661.633 131.051 L661.633 138.412 L670.406 138.412 L670.406 141.722 L661.633 141.722 L661.633 155.796 Q661.633 158.967 662.49 159.87 Q663.369 160.773 666.031 160.773 L670.406 160.773 L670.406 164.338 L666.031 164.338 Q661.101 164.338 659.226 162.509 Q657.351 160.657 657.351 155.796 L657.351 141.722 L654.226 141.722 L654.226 138.412 L657.351 138.412 L657.351 131.051 L661.633 131.051 Z" fill="#000000" fill-rule="nonzero" fill-opacity="1" /><path clip-path="url(#clip530)" d="M697.559 148.689 L697.559 164.338 L693.3 164.338 L693.3 148.828 Q693.3 145.148 691.865 143.319 Q690.429 141.49 687.559 141.49 Q684.11 141.49 682.119 143.69 Q680.129 145.889 680.129 149.685 L680.129 164.338 L675.846 164.338 L675.846 128.319 L680.129 128.319 L680.129 142.44 Q681.656 140.102 683.716 138.944 Q685.8 137.787 688.508 137.787 Q692.976 137.787 695.267 140.565 Q697.559 143.319 697.559 148.689 Z" fill="#000000" fill-rule="nonzero" fill-opacity="1" /><polyline clip-path="url(#clip530)" style="stroke:#e26f46; stroke-linecap:round; stroke-linejoin:round; stroke-width:4; stroke-opacity:1; fill:none" points="289.884,198.898 433.805,198.898 "/>
<path clip-path="url(#clip530)" d="M462.468 185.46 L462.468 198.446 L468.347 198.446 Q471.611 198.446 473.394 196.756 Q475.176 195.067 475.176 191.942 Q475.176 188.84 473.394 187.15 Q471.611 185.46 468.347 185.46 L462.468 185.46 M457.792 181.618 L468.347 181.618 Q474.157 181.618 477.12 184.256 Q480.106 186.872 480.106 191.942 Q480.106 197.057 477.12 199.673 Q474.157 202.289 468.347 202.289 L462.468 202.289 L462.468 216.178 L457.792 216.178 L457.792 181.618 Z" fill="#000000" fill-rule="nonzero" fill-opacity="1" /><path clip-path="url(#clip530)" d="M486.38 181.618 L506.241 181.618 L506.241 185.553 L491.055 185.553 L491.055 195.738 L504.759 195.738 L504.759 199.673 L491.055 199.673 L491.055 216.178 L486.38 216.178 L486.38 181.618 Z" fill="#000000" fill-rule="nonzero" fill-opacity="1" /><path clip-path="url(#clip530)" d="M545.06 191.016 L545.06 195.043 Q543.254 194.117 541.31 193.655 Q539.365 193.192 537.282 193.192 Q534.111 193.192 532.514 194.164 Q530.94 195.136 530.94 197.08 Q530.94 198.562 532.074 199.418 Q533.208 200.252 536.634 201.016 L538.092 201.34 Q542.629 202.312 544.527 204.094 Q546.449 205.854 546.449 209.025 Q546.449 212.636 543.578 214.742 Q540.731 216.849 535.731 216.849 Q533.648 216.849 531.379 216.432 Q529.134 216.039 526.634 215.228 L526.634 210.83 Q528.995 212.057 531.287 212.682 Q533.578 213.284 535.824 213.284 Q538.833 213.284 540.453 212.266 Q542.074 211.224 542.074 209.349 Q542.074 207.613 540.893 206.687 Q539.736 205.761 535.777 204.904 L534.296 204.557 Q530.338 203.724 528.578 202.011 Q526.819 200.275 526.819 197.266 Q526.819 193.608 529.412 191.618 Q532.004 189.627 536.773 189.627 Q539.134 189.627 541.217 189.974 Q543.301 190.321 545.06 191.016 Z" fill="#000000" fill-rule="nonzero" fill-opacity="1" /><path clip-path="url(#clip530)" d="M573.416 195.229 Q575.013 192.358 577.236 190.993 Q579.458 189.627 582.467 189.627 Q586.518 189.627 588.717 192.474 Q590.916 195.298 590.916 200.529 L590.916 216.178 L586.634 216.178 L586.634 200.668 Q586.634 196.942 585.314 195.136 Q583.995 193.33 581.286 193.33 Q577.976 193.33 576.055 195.53 Q574.134 197.729 574.134 201.525 L574.134 216.178 L569.851 216.178 L569.851 200.668 Q569.851 196.918 568.532 195.136 Q567.212 193.33 564.458 193.33 Q561.194 193.33 559.273 195.553 Q557.351 197.752 557.351 201.525 L557.351 216.178 L553.069 216.178 L553.069 190.252 L557.351 190.252 L557.351 194.28 Q558.81 191.895 560.847 190.761 Q562.884 189.627 565.685 189.627 Q568.509 189.627 570.476 191.062 Q572.467 192.497 573.416 195.229 Z" fill="#000000" fill-rule="nonzero" fill-opacity="1" /><path clip-path="url(#clip530)" d="M609.458 193.238 Q606.032 193.238 604.041 195.923 Q602.05 198.585 602.05 203.238 Q602.05 207.891 604.018 210.576 Q606.009 213.238 609.458 213.238 Q612.86 213.238 614.851 210.553 Q616.842 207.867 616.842 203.238 Q616.842 198.631 614.851 195.946 Q612.86 193.238 609.458 193.238 M609.458 189.627 Q615.013 189.627 618.184 193.238 Q621.356 196.849 621.356 203.238 Q621.356 209.604 618.184 213.238 Q615.013 216.849 609.458 216.849 Q603.879 216.849 600.708 213.238 Q597.56 209.604 597.56 203.238 Q597.56 196.849 600.708 193.238 Q603.879 189.627 609.458 189.627 Z" fill="#000000" fill-rule="nonzero" fill-opacity="1" /><path clip-path="url(#clip530)" d="M638.462 193.238 Q635.036 193.238 633.045 195.923 Q631.055 198.585 631.055 203.238 Q631.055 207.891 633.022 210.576 Q635.013 213.238 638.462 213.238 Q641.865 213.238 643.856 210.553 Q645.846 207.867 645.846 203.238 Q645.846 198.631 643.856 195.946 Q641.865 193.238 638.462 193.238 M638.462 189.627 Q644.018 189.627 647.189 193.238 Q650.36 196.849 650.36 203.238 Q650.36 209.604 647.189 213.238 Q644.018 216.849 638.462 216.849 Q632.883 216.849 629.712 213.238 Q626.564 209.604 626.564 203.238 Q626.564 196.849 629.712 193.238 Q632.883 189.627 638.462 189.627 Z" fill="#000000" fill-rule="nonzero" fill-opacity="1" /><path clip-path="url(#clip530)" d="M661.633 182.891 L661.633 190.252 L670.406 190.252 L670.406 193.562 L661.633 193.562 L661.633 207.636 Q661.633 210.807 662.49 211.71 Q663.369 212.613 666.031 212.613 L670.406 212.613 L670.406 216.178 L666.031 216.178 Q661.101 216.178 659.226 214.349 Q657.351 212.497 657.351 207.636 L657.351 193.562 L654.226 193.562 L654.226 190.252 L657.351 190.252 L657.351 182.891 L661.633 182.891 Z" fill="#000000" fill-rule="nonzero" fill-opacity="1" /><path clip-path="url(#clip530)" d="M697.559 200.529 L697.559 216.178 L693.3 216.178 L693.3 200.668 Q693.3 196.988 691.865 195.159 Q690.429 193.33 687.559 193.33 Q684.11 193.33 682.119 195.53 Q680.129 197.729 680.129 201.525 L680.129 216.178 L675.846 216.178 L675.846 180.159 L680.129 180.159 L680.129 194.28 Q681.656 191.942 683.716 190.784 Q685.8 189.627 688.508 189.627 Q692.976 189.627 695.267 192.405 Q697.559 195.159 697.559 200.529 Z" fill="#000000" fill-rule="nonzero" fill-opacity="1" /><polyline clip-path="url(#clip530)" style="stroke:#3da44d; stroke-linecap:round; stroke-linejoin:round; stroke-width:4; stroke-opacity:1; fill:none" stroke-dasharray="16, 10" points="289.884,250.738 433.805,250.738 "/>
<path clip-path="url(#clip530)" d="M457.792 233.458 L487.028 233.458 L487.028 237.393 L474.759 237.393 L474.759 268.018 L470.06 268.018 L470.06 237.393 L457.792 237.393 L457.792 233.458 Z" fill="#000000" fill-rule="nonzero" fill-opacity="1" /><path clip-path="url(#clip530)" d="M499.412 246.073 Q498.694 245.657 497.838 245.471 Q497.005 245.263 495.986 245.263 Q492.375 245.263 490.43 247.624 Q488.509 249.962 488.509 254.36 L488.509 268.018 L484.227 268.018 L484.227 242.092 L488.509 242.092 L488.509 246.12 Q489.852 243.758 492.005 242.624 Q494.157 241.467 497.236 241.467 Q497.676 241.467 498.208 241.536 Q498.741 241.583 499.389 241.698 L499.412 246.073 Z" fill="#000000" fill-rule="nonzero" fill-opacity="1" /><path clip-path="url(#clip530)" d="M503.44 257.786 L503.44 242.092 L507.699 242.092 L507.699 257.624 Q507.699 261.305 509.134 263.156 Q510.569 264.985 513.44 264.985 Q516.889 264.985 518.879 262.786 Q520.893 260.587 520.893 256.791 L520.893 242.092 L525.153 242.092 L525.153 268.018 L520.893 268.018 L520.893 264.036 Q519.342 266.397 517.282 267.555 Q515.245 268.689 512.537 268.689 Q508.069 268.689 505.754 265.911 Q503.44 263.133 503.44 257.786 M514.157 241.467 L514.157 241.467 Z" fill="#000000" fill-rule="nonzero" fill-opacity="1" /><path clip-path="url(#clip530)" d="M556.101 253.99 L556.101 256.073 L536.518 256.073 Q536.796 260.471 539.157 262.786 Q541.541 265.078 545.777 265.078 Q548.231 265.078 550.523 264.476 Q552.838 263.874 555.106 262.67 L555.106 266.698 Q552.814 267.67 550.407 268.18 Q548 268.689 545.523 268.689 Q539.319 268.689 535.685 265.078 Q532.074 261.467 532.074 255.309 Q532.074 248.944 535.5 245.217 Q538.949 241.467 544.782 241.467 Q550.013 241.467 553.046 244.846 Q556.101 248.203 556.101 253.99 M551.842 252.74 Q551.796 249.245 549.875 247.161 Q547.976 245.078 544.828 245.078 Q541.264 245.078 539.111 247.092 Q536.981 249.106 536.657 252.763 L551.842 252.74 Z" fill="#000000" fill-rule="nonzero" fill-opacity="1" /><polyline clip-path="url(#clip530)" style="stroke:#c271d2; stroke-linecap:round; stroke-linejoin:round; stroke-width:4; stroke-opacity:1; fill:none" stroke-dasharray="16, 10" points="289.884,302.578 433.805,302.578 "/>
<path clip-path="url(#clip530)" d="M457.792 285.298 L487.028 285.298 L487.028 289.233 L474.759 289.233 L474.759 319.858 L470.06 319.858 L470.06 289.233 L457.792 289.233 L457.792 285.298 Z" fill="#000000" fill-rule="nonzero" fill-opacity="1" /><path clip-path="url(#clip530)" d="M499.412 297.913 Q498.694 297.497 497.838 297.311 Q497.005 297.103 495.986 297.103 Q492.375 297.103 490.43 299.464 Q488.509 301.802 488.509 306.2 L488.509 319.858 L484.227 319.858 L484.227 293.932 L488.509 293.932 L488.509 297.96 Q489.852 295.598 492.005 294.464 Q494.157 293.307 497.236 293.307 Q497.676 293.307 498.208 293.376 Q498.741 293.423 499.389 293.538 L499.412 297.913 Z" fill="#000000" fill-rule="nonzero" fill-opacity="1" /><path clip-path="url(#clip530)" d="M503.44 309.626 L503.44 293.932 L507.699 293.932 L507.699 309.464 Q507.699 313.145 509.134 314.996 Q510.569 316.825 513.44 316.825 Q516.889 316.825 518.879 314.626 Q520.893 312.427 520.893 308.631 L520.893 293.932 L525.153 293.932 L525.153 319.858 L520.893 319.858 L520.893 315.876 Q519.342 318.237 517.282 319.395 Q515.245 320.529 512.537 320.529 Q508.069 320.529 505.754 317.751 Q503.44 314.973 503.44 309.626 M514.157 293.307 L514.157 293.307 Z" fill="#000000" fill-rule="nonzero" fill-opacity="1" /><path clip-path="url(#clip530)" d="M556.101 305.83 L556.101 307.913 L536.518 307.913 Q536.796 312.311 539.157 314.626 Q541.541 316.918 545.777 316.918 Q548.231 316.918 550.523 316.316 Q552.838 315.714 555.106 314.51 L555.106 318.538 Q552.814 319.51 550.407 320.02 Q548 320.529 545.523 320.529 Q539.319 320.529 535.685 316.918 Q532.074 313.307 532.074 307.149 Q532.074 300.784 535.5 297.057 Q538.949 293.307 544.782 293.307 Q550.013 293.307 553.046 296.686 Q556.101 300.043 556.101 305.83 M551.842 304.58 Q551.796 301.085 549.875 299.001 Q547.976 296.918 544.828 296.918 Q541.264 296.918 539.111 298.932 Q536.981 300.946 536.657 304.603 L551.842 304.58 Z" fill="#000000" fill-rule="nonzero" fill-opacity="1" /></svg>
