<?xml version="1.0" encoding="utf-8"?>
<svg xmlns="http://www.w3.org/2000/svg" xmlns:xlink="http://www.w3.org/1999/xlink" width="600" height="400" viewBox="0 0 2400 1600">
<defs>
  <clipPath id="clip510">
    <rect x="0" y="0" width="2400" height="1600"/>
  </clipPath>
</defs>
<path clip-path="url(#clip510)" d="M0 1600 L2400 1600 L2400 0 L0 0  Z" fill="#ffffff" fill-rule="evenodd" fill-opacity="1"/>
<defs>
  <clipPath id="clip511">
    <rect x="140" y="47" width="2213" height="1440"/>
  </clipPath>
</defs>
<path clip-path="url(#clip510)" d="M140.51 1486.45 L2352.76 1486.45 L2352.76 47.2441 L140.51 47.2441  Z" fill="#ffffff" fill-rule="evenodd" fill-opacity="1"/>
<polyline clip-path="url(#clip511)" style="stroke:#000000; stroke-linecap:round; stroke-linejoin:round; stroke-width:2; stroke-opacity:0.1; fill:none" points="352.884,1486.45 352.884,47.2441 "/>
<polyline clip-path="url(#clip511)" style="stroke:#000000; stroke-linecap:round; stroke-linejoin:round; stroke-width:2; stroke-opacity:0.1; fill:none" points="786.677,1486.45 786.677,47.2441 "/>
<polyline clip-path="url(#clip511)" style="stroke:#000000; stroke-linecap:round; stroke-linejoin:round; stroke-width:2; stroke-opacity:0.1; fill:none" points="1220.47,1486.45 1220.47,47.2441 "/>
<polyline clip-path="url(#clip511)" style="stroke:#000000; stroke-linecap:round; stroke-linejoin:round; stroke-width:2; stroke-opacity:0.1; fill:none" points="1654.26,1486.45 1654.26,47.2441 "/>
<polyline clip-path="url(#clip511)" style="stroke:#000000; stroke-linecap:round; stroke-linejoin:round; stroke-width:2; stroke-opacity:0.1; fill:none" points="2088.06,1486.45 2088.06,47.2441 "/>
<polyline clip-path="url(#clip511)" style="stroke:#000000; stroke-linecap:round; stroke-linejoin:round; stroke-width:2; stroke-opacity:0.1; fill:none" points="140.51,1179.6 2352.76,1179.6 "/>
<polyline clip-path="url(#clip511)" style="stroke:#000000; stroke-linecap:round; stroke-linejoin:round; stroke-width:2; stroke-opacity:0.1; fill:none" points="140.51,872.031 2352.76,872.031 "/>
<polyline clip-path="url(#clip511)" style="stroke:#000000; stroke-linecap:round; stroke-linejoin:round; stroke-width:2; stroke-opacity:0.1; fill:none" points="140.51,564.462 2352.76,564.462 "/>
<polyline clip-path="url(#clip511)" style="stroke:#000000; stroke-linecap:round; stroke-linejoin:round; stroke-width:2; stroke-opacity:0.1; fill:none" points="140.51,256.893 2352.76,256.893 "/>
<polyline clip-path="url(#clip510)" style="stroke:#000000; stroke-linecap:round; stroke-linejoin:round; stroke-width:4; stroke-opacity:1; fill:none" points="140.51,1486.45 2352.76,1486.45 "/>
<polyline clip-path="url(#clip510)" style="stroke:#000000; stroke-linecap:round; stroke-linejoin:round; stroke-width:4; stroke-opacity:1; fill:none" points="352.884,1486.45 352.884,1467.55 "/>
<polyline clip-path="url(#clip510)" style="stroke:#000000; stroke-linecap:round; stroke-linejoin:round; stroke-width:4; stroke-opacity:1; fill:none" points="786.677,1486.45 786.677,1467.55 "/>
<polyline clip-path="url(#clip510)" style="stroke:#000000; stroke-linecap:round; stroke-linejoin:round; stroke-width:4; stroke-opacity:1; fill:none" points="1220.47,1486.45 1220.47,1467.55 "/>
<polyline clip-path="url(#clip510)" style="stroke:#000000; stroke-linecap:round; stroke-linejoin:round; stroke-width:4; stroke-opacity:1; fill:none" points="1654.26,1486.45 1654.26,1467.55 "/>
<polyline clip-path="url(#clip510)" style="stroke:#000000; stroke-linecap:round; stroke-linejoin:round; stroke-width:4; stroke-opacity:1; fill:none" points="2088.06,1486.45 2088.06,1467.55 "/>
<path clip-path="url(#clip510)" d="M306.946 1532.02 L336.622 1532.02 L336.622 1535.95 L306.946 1535.95 L306.946 1532.02 Z" fill="#000000" fill-rule="nonzero" fill-opacity="1" /><path clip-path="url(#clip510)" d="M360.881 1530.21 Q364.238 1530.93 366.113 1533.2 Q368.011 1535.47 368.011 1538.8 Q368.011 1543.92 364.492 1546.72 Q360.974 1549.52 354.492 1549.52 Q352.317 1549.52 350.002 1549.08 Q347.71 1548.66 345.256 1547.81 L345.256 1543.29 Q347.201 1544.43 349.516 1545.01 Q351.83 1545.58 354.354 1545.58 Q358.752 1545.58 361.043 1543.85 Q363.358 1542.11 363.358 1538.8 Q363.358 1535.75 361.205 1534.03 Q359.076 1532.3 355.256 1532.3 L351.229 1532.3 L351.229 1528.45 L355.442 1528.45 Q358.891 1528.45 360.719 1527.09 Q362.548 1525.7 362.548 1523.11 Q362.548 1520.45 360.65 1519.03 Q358.775 1517.6 355.256 1517.6 Q353.335 1517.6 351.136 1518.01 Q348.937 1518.43 346.298 1519.31 L346.298 1515.14 Q348.96 1514.4 351.275 1514.03 Q353.613 1513.66 355.673 1513.66 Q360.997 1513.66 364.099 1516.09 Q367.201 1518.5 367.201 1522.62 Q367.201 1525.49 365.557 1527.48 Q363.914 1529.45 360.881 1530.21 Z" fill="#000000" fill-rule="nonzero" fill-opacity="1" /><path clip-path="url(#clip510)" d="M386.877 1517.37 Q383.265 1517.37 381.437 1520.93 Q379.631 1524.47 379.631 1531.6 Q379.631 1538.71 381.437 1542.27 Q383.265 1545.82 386.877 1545.82 Q390.511 1545.82 392.316 1542.27 Q394.145 1538.71 394.145 1531.6 Q394.145 1524.47 392.316 1520.93 Q390.511 1517.37 386.877 1517.37 M386.877 1513.66 Q392.687 1513.66 395.742 1518.27 Q398.821 1522.85 398.821 1531.6 Q398.821 1540.33 395.742 1544.94 Q392.687 1549.52 386.877 1549.52 Q381.066 1549.52 377.988 1544.94 Q374.932 1540.33 374.932 1531.6 Q374.932 1522.85 377.988 1518.27 Q381.066 1513.66 386.877 1513.66 Z" fill="#000000" fill-rule="nonzero" fill-opacity="1" /><path clip-path="url(#clip510)" d="M786.677 1517.37 Q783.066 1517.37 781.237 1520.93 Q779.431 1524.47 779.431 1531.6 Q779.431 1538.71 781.237 1542.27 Q783.066 1545.82 786.677 1545.82 Q790.311 1545.82 792.116 1542.27 Q793.945 1538.71 793.945 1531.6 Q793.945 1524.47 792.116 1520.93 Q790.311 1517.37 786.677 1517.37 M786.677 1513.66 Q792.487 1513.66 795.542 1518.27 Q798.621 1522.85 798.621 1531.6 Q798.621 1540.33 795.542 1544.94 Q792.487 1549.52 786.677 1549.52 Q780.866 1549.52 777.788 1544.94 Q774.732 1540.33 774.732 1531.6 Q774.732 1522.85 777.788 1518.27 Q780.866 1513.66 786.677 1513.66 Z" fill="#000000" fill-rule="nonzero" fill-opacity="1" /><path clip-path="url(#clip510)" d="M1209.31 1530.21 Q1212.67 1530.93 1214.54 1533.2 Q1216.44 1535.47 1216.44 1538.8 Q1216.44 1543.92 1212.92 1546.72 Q1209.4 1549.52 1202.92 1549.52 Q1200.75 1549.52 1198.43 1549.08 Q1196.14 1548.66 1193.69 1547.81 L1193.69 1543.29 Q1195.63 1544.43 1197.95 1545.01 Q1200.26 1545.58 1202.78 1545.58 Q1207.18 1545.58 1209.47 1543.85 Q1211.79 1542.11 1211.79 1538.8 Q1211.79 1535.75 1209.64 1534.03 Q1207.51 1532.3 1203.69 1532.3 L1199.66 1532.3 L1199.66 1528.45 L1203.87 1528.45 Q1207.32 1528.45 1209.15 1527.09 Q1210.98 1525.7 1210.98 1523.11 Q1210.98 1520.45 1209.08 1519.03 Q1207.21 1517.6 1203.69 1517.6 Q1201.77 1517.6 1199.57 1518.01 Q1197.37 1518.43 1194.73 1519.31 L1194.73 1515.14 Q1197.39 1514.4 1199.71 1514.03 Q1202.04 1513.66 1204.1 1513.66 Q1209.43 1513.66 1212.53 1516.09 Q1215.63 1518.5 1215.63 1522.62 Q1215.63 1525.49 1213.99 1527.48 Q1212.34 1529.45 1209.31 1530.21 Z" fill="#000000" fill-rule="nonzero" fill-opacity="1" /><path clip-path="url(#clip510)" d="M1235.31 1517.37 Q1231.7 1517.37 1229.87 1520.93 Q1228.06 1524.47 1228.06 1531.6 Q1228.06 1538.71 1229.87 1542.27 Q1231.7 1545.82 1235.31 1545.82 Q1238.94 1545.82 1240.75 1542.27 Q1242.58 1538.71 1242.58 1531.6 Q1242.58 1524.47 1240.75 1520.93 Q1238.94 1517.37 1235.31 1517.37 M1235.31 1513.66 Q1241.12 1513.66 1244.17 1518.27 Q1247.25 1522.85 1247.25 1531.6 Q1247.25 1540.33 1244.17 1544.94 Q1241.12 1549.52 1235.31 1549.52 Q1229.5 1549.52 1226.42 1544.94 Q1223.36 1540.33 1223.36 1531.6 Q1223.36 1522.85 1226.42 1518.27 Q1229.5 1513.66 1235.31 1513.66 Z" fill="#000000" fill-rule="nonzero" fill-opacity="1" /><path clip-path="url(#clip510)" d="M1639.67 1529.7 Q1636.52 1529.7 1634.67 1531.86 Q1632.84 1534.01 1632.84 1537.76 Q1632.84 1541.49 1634.67 1543.66 Q1636.52 1545.82 1639.67 1545.82 Q1642.82 1545.82 1644.64 1543.66 Q1646.5 1541.49 1646.5 1537.76 Q1646.5 1534.01 1644.64 1531.86 Q1642.82 1529.7 1639.67 1529.7 M1648.95 1515.05 L1648.95 1519.31 Q1647.19 1518.48 1645.39 1518.04 Q1643.6 1517.6 1641.84 1517.6 Q1637.21 1517.6 1634.76 1520.72 Q1632.33 1523.85 1631.98 1530.17 Q1633.35 1528.15 1635.41 1527.09 Q1637.47 1526 1639.95 1526 Q1645.15 1526 1648.16 1529.17 Q1651.2 1532.32 1651.2 1537.76 Q1651.2 1543.08 1648.05 1546.3 Q1644.9 1549.52 1639.67 1549.52 Q1633.67 1549.52 1630.5 1544.94 Q1627.33 1540.33 1627.33 1531.6 Q1627.33 1523.41 1631.22 1518.55 Q1635.11 1513.66 1641.66 1513.66 Q1643.42 1513.66 1645.2 1514.01 Q1647.01 1514.36 1648.95 1515.05 Z" fill="#000000" fill-rule="nonzero" fill-opacity="1" /><path clip-path="url(#clip510)" d="M1669.25 1517.37 Q1665.64 1517.37 1663.81 1520.93 Q1662.01 1524.47 1662.01 1531.6 Q1662.01 1538.71 1663.81 1542.27 Q1665.64 1545.82 1669.25 1545.82 Q1672.89 1545.82 1674.69 1542.27 Q1676.52 1538.71 1676.52 1531.6 Q1676.52 1524.47 1674.69 1520.93 Q1672.89 1517.37 1669.25 1517.37 M1669.25 1513.66 Q1675.06 1513.66 1678.12 1518.27 Q1681.2 1522.85 1681.2 1531.6 Q1681.2 1540.33 1678.12 1544.94 Q1675.06 1549.52 1669.25 1549.52 Q1663.44 1549.52 1660.36 1544.94 Q1657.31 1540.33 1657.31 1531.6 Q1657.31 1522.85 1660.36 1518.27 Q1663.44 1513.66 1669.25 1513.66 Z" fill="#000000" fill-rule="nonzero" fill-opacity="1" /><path clip-path="url(#clip510)" d="M2063.18 1548.13 L2063.18 1543.87 Q2064.94 1544.7 2066.75 1545.14 Q2068.55 1545.58 2070.29 1545.58 Q2074.92 1545.58 2077.35 1542.48 Q2079.8 1539.36 2080.15 1533.01 Q2078.81 1535.01 2076.75 1536.07 Q2074.69 1537.13 2072.19 1537.13 Q2067 1537.13 2063.97 1534.01 Q2060.96 1530.86 2060.96 1525.42 Q2060.96 1520.1 2064.11 1516.88 Q2067.26 1513.66 2072.49 1513.66 Q2078.48 1513.66 2081.63 1518.27 Q2084.8 1522.85 2084.8 1531.6 Q2084.8 1539.77 2080.91 1544.66 Q2077.05 1549.52 2070.5 1549.52 Q2068.74 1549.52 2066.93 1549.17 Q2065.13 1548.82 2063.18 1548.13 M2072.49 1533.48 Q2075.64 1533.48 2077.47 1531.32 Q2079.32 1529.17 2079.32 1525.42 Q2079.32 1521.7 2077.47 1519.54 Q2075.64 1517.37 2072.49 1517.37 Q2069.34 1517.37 2067.49 1519.54 Q2065.66 1521.7 2065.66 1525.42 Q2065.66 1529.17 2067.49 1531.32 Q2069.34 1533.48 2072.49 1533.48 Z" fill="#000000" fill-rule="nonzero" fill-opacity="1" /><path clip-path="url(#clip510)" d="M2103.21 1517.37 Q2099.59 1517.37 2097.77 1520.93 Q2095.96 1524.47 2095.96 1531.6 Q2095.96 1538.71 2097.77 1542.27 Q2099.59 1545.82 2103.21 1545.82 Q2106.84 1545.82 2108.65 1542.27 Q2110.47 1538.71 2110.47 1531.6 Q2110.47 1524.47 2108.65 1520.93 Q2106.84 1517.37 2103.21 1517.37 M2103.21 1513.66 Q2109.02 1513.66 2112.07 1518.27 Q2115.15 1522.85 2115.15 1531.6 Q2115.15 1540.33 2112.07 1544.94 Q2109.02 1549.52 2103.21 1549.52 Q2097.4 1549.52 2094.32 1544.94 Q2091.26 1540.33 2091.26 1531.6 Q2091.26 1522.85 2094.32 1518.27 Q2097.4 1513.66 2103.21 1513.66 Z" fill="#000000" fill-rule="nonzero" fill-opacity="1" /><polyline clip-path="url(#clip510)" style="stroke:#000000; stroke-linecap:round; stroke-linejoin:round; stroke-width:4; stroke-opacity:1; fill:none" points="140.51,1486.45 140.51,47.2441 "/>
<polyline clip-path="url(#clip510)" style="stroke:#000000; stroke-linecap:round; stroke-linejoin:round; stroke-width:4; stroke-opacity:1; fill:none" points="140.51,1179.6 159.408,1179.6 "/>
<polyline clip-path="url(#clip510)" style="stroke:#000000; stroke-linecap:round; stroke-linejoin:round; stroke-width:4; stroke-opacity:1; fill:none" points="140.51,872.031 159.408,872.031 "/>
<polyline clip-path="url(#clip510)" style="stroke:#000000; stroke-linecap:round; stroke-linejoin:round; stroke-width:4; stroke-opacity:1; fill:none" points="140.51,564.462 159.408,564.462 "/>
<polyline clip-path="url(#clip510)" style="stroke:#000000; stroke-linecap:round; stroke-linejoin:round; stroke-width:4; stroke-opacity:1; fill:none" points="140.51,256.893 159.408,256.893 "/>
<path clip-path="url(#clip510)" d="M92.566 1165.4 Q88.9549 1165.4 87.1262 1168.96 Q85.3206 1172.5 85.3206 1179.63 Q85.3206 1186.74 87.1262 1190.31 Q88.9549 1193.85 92.566 1193.85 Q96.2002 1193.85 98.0058 1190.31 Q99.8345 1186.74 99.8345 1179.63 Q99.8345 1172.5 98.0058 1168.96 Q96.2002 1165.4 92.566 1165.4 M92.566 1161.69 Q98.3761 1161.69 101.432 1166.3 Q104.51 1170.88 104.51 1179.63 Q104.51 1188.36 101.432 1192.97 Q98.3761 1197.55 92.566 1197.55 Q86.7558 1197.55 83.6771 1192.97 Q80.6216 1188.36 80.6216 1179.63 Q80.6216 1170.88 83.6771 1166.3 Q86.7558 1161.69 92.566 1161.69 Z" fill="#000000" fill-rule="nonzero" fill-opacity="1" /><path clip-path="url(#clip510)" d="M57.4273 885.376 L73.7466 885.376 L73.7466 889.311 L51.8023 889.311 L51.8023 885.376 Q54.4643 882.621 59.0476 877.992 Q63.6541 873.339 64.8346 871.996 Q67.08 869.473 67.9596 867.737 Q68.8624 865.978 68.8624 864.288 Q68.8624 861.533 66.918 859.797 Q64.9967 858.061 61.8948 858.061 Q59.6958 858.061 57.2421 858.825 Q54.8115 859.589 52.0338 861.14 L52.0338 856.418 Q54.8578 855.283 57.3115 854.705 Q59.7652 854.126 61.8023 854.126 Q67.1726 854.126 70.367 856.811 Q73.5614 859.496 73.5614 863.987 Q73.5614 866.117 72.7513 868.038 Q71.9642 869.936 69.8578 872.529 Q69.2791 873.2 66.1772 876.418 Q63.0754 879.612 57.4273 885.376 Z" fill="#000000" fill-rule="nonzero" fill-opacity="1" /><path clip-path="url(#clip510)" d="M83.6077 854.751 L101.964 854.751 L101.964 858.686 L87.8901 858.686 L87.8901 867.158 Q88.9086 866.811 89.9271 866.649 Q90.9456 866.464 91.9641 866.464 Q97.7511 866.464 101.131 869.635 Q104.51 872.806 104.51 878.223 Q104.51 883.802 101.038 886.904 Q97.566 889.982 91.2465 889.982 Q89.0706 889.982 86.8021 889.612 Q84.5568 889.242 82.1494 888.501 L82.1494 883.802 Q84.2327 884.936 86.4549 885.492 Q88.6771 886.047 91.1539 886.047 Q95.1586 886.047 97.4965 883.941 Q99.8345 881.834 99.8345 878.223 Q99.8345 874.612 97.4965 872.505 Q95.1586 870.399 91.1539 870.399 Q89.279 870.399 87.404 870.816 Q85.5521 871.232 83.6077 872.112 L83.6077 854.751 Z" fill="#000000" fill-rule="nonzero" fill-opacity="1" /><path clip-path="url(#clip510)" d="M52.4505 547.182 L70.8068 547.182 L70.8068 551.117 L56.7328 551.117 L56.7328 559.589 Q57.7513 559.242 58.7699 559.08 Q59.7884 558.895 60.8069 558.895 Q66.5939 558.895 69.9735 562.066 Q73.3531 565.237 73.3531 570.654 Q73.3531 576.233 69.8809 579.335 Q66.4087 582.413 60.0893 582.413 Q57.9134 582.413 55.6449 582.043 Q53.3995 581.673 50.9921 580.932 L50.9921 576.233 Q53.0754 577.367 55.2977 577.923 Q57.5199 578.478 59.9967 578.478 Q64.0013 578.478 66.3393 576.372 Q68.6772 574.265 68.6772 570.654 Q68.6772 567.043 66.3393 564.937 Q64.0013 562.83 59.9967 562.83 Q58.1217 562.83 56.2467 563.247 Q54.3949 563.663 52.4505 564.543 L52.4505 547.182 Z" fill="#000000" fill-rule="nonzero" fill-opacity="1" /><path clip-path="url(#clip510)" d="M92.566 550.261 Q88.9549 550.261 87.1262 553.826 Q85.3206 557.367 85.3206 564.497 Q85.3206 571.603 87.1262 575.168 Q88.9549 578.71 92.566 578.71 Q96.2002 578.71 98.0058 575.168 Q99.8345 571.603 99.8345 564.497 Q99.8345 557.367 98.0058 553.826 Q96.2002 550.261 92.566 550.261 M92.566 546.557 Q98.3761 546.557 101.432 551.163 Q104.51 555.747 104.51 564.497 Q104.51 573.224 101.432 577.83 Q98.3761 582.413 92.566 582.413 Q86.7558 582.413 83.6771 577.83 Q80.6216 573.224 80.6216 564.497 Q80.6216 555.747 83.6771 551.163 Q86.7558 546.557 92.566 546.557 Z" fill="#000000" fill-rule="nonzero" fill-opacity="1" /><path clip-path="url(#clip510)" d="M52.219 239.613 L74.4411 239.613 L74.4411 241.604 L61.8948 274.173 L57.0106 274.173 L68.8161 243.548 L52.219 243.548 L52.219 239.613 Z" fill="#000000" fill-rule="nonzero" fill-opacity="1" /><path clip-path="url(#clip510)" d="M83.6077 239.613 L101.964 239.613 L101.964 243.548 L87.8901 243.548 L87.8901 252.02 Q88.9086 251.673 89.9271 251.511 Q90.9456 251.326 91.9641 251.326 Q97.7511 251.326 101.131 254.497 Q104.51 257.669 104.51 263.085 Q104.51 268.664 101.038 271.766 Q97.566 274.844 91.2465 274.844 Q89.0706 274.844 86.8021 274.474 Q84.5568 274.104 82.1494 273.363 L82.1494 268.664 Q84.2327 269.798 86.4549 270.354 Q88.6771 270.909 91.1539 270.909 Q95.1586 270.909 97.4965 268.803 Q99.8345 266.696 99.8345 263.085 Q99.8345 259.474 97.4965 257.368 Q95.1586 255.261 91.1539 255.261 Q89.279 255.261 87.404 255.678 Q85.5521 256.095 83.6077 256.974 L83.6077 239.613 Z" fill="#000000" fill-rule="nonzero" fill-opacity="1" /><polyline clip-path="url(#clip511)" style="stroke:#0000ff; stroke-linecap:round; stroke-linejoin:round; stroke-width:4; stroke-opacity:1; fill:none" points="203.121,719.059 231.846,722.839 235.917,718.07 247.437,716.689 254.864,716.278 277.777,718.621 301.275,723.094 328.349,725.604 355.154,727.61 385.281,731.881 414.449,732.049 440.041,732.812 476.021,734.415 498.86,739.655 522.261,743.808 556.826,747.29 582.755,748.971 604.158,753.197 632.505,759.346 656.523,766.585 679.858,774.653 702.819,781.932 730.456,788.873 753.683,797.855 779.346,803.423 810.163,811.077 833.202,810.711 867.219,813.373 893.311,821.519 919.766,828.728 950.187,837.647 974.383,846.471 1000.11,853.752 1019.36,863.795 1037.22,875.469 1045.29,881.462 1066.39,884.699 1083.21,886.868 1104.77,888.531 1130.18,891.64 1156.88,901.304 1184.75,910.951 1207.03,916.385 1232.81,920.207 1265.13,921.788 1294.22,922.97 1326.93,926.981 1355.12,931.763 1381.13,935.688 1406.18,937.994 1438.54,937.637 1462.56,937.397 1489.84,937.272 1516.83,934.602 1546.42,928.857 1575.13,929.203 1602.62,927.611 1628.88,928.183 1649.72,921.849 1668.41,918.602 1685.29,912.252 1703.4,905.813 1723.96,905.276 1745.94,902.746 1767.74,903.907 1787.21,907.152 1808.94,913.739 1829.15,925.748 1850.8,938.524 1866.65,949.723 1882.33,966.053 1893.19,980.187 1900.85,994.528 1910,1013.74 1921.96,1031.73 1934.33,1050.15 1945.12,1060.9 1962.97,1068.04 1977.46,1071.37 1988,1071.4 2009.22,1065.58 2026.57,1060.2 2048.82,1040.57 2060.77,1024.57 2063.47,1002.51 2064.57,983.887 2062.95,962.611 2051.44,947.214 2032.56,939.598 2008.01,930.333 1979.75,931.018 1954.95,930.312 1934.3,927.837 1915.6,925.302 1893.26,923.118 1873.64,928.841 1851.78,934.822 1834.72,942.727 1811.03,945.649 1786.41,945.751 1759.31,941.864 1737.19,931.9 1714.11,921.604 1684.06,905.507 1657.6,888.071 1634.61,869.521 1619.36,853.886 1606.97,840.435 1590.48,826.545 1575.93,810.126 1564.08,794.601 1555.74,778.738 1555.64,763.308 1567.09,746.712 1579.35,733.227 1601.61,725.995 1623.61,728.171 1652.27,730.807 1671.36,743.592 1692.43,749.488 1707.47,754.497 1730.01,760.992 1751.96,772.163 1764.49,780.867 1781.87,791.439 1800.08,802.527 1821.79,810.666 1842.07,812.511 1863.78,813.107 1887.98,806.456 1909.65,802.181 1926.46,801.409 1944.82,808.564 1962.15,819.555 1977.75,834.564 1988.38,850.448 1996.15,870.431 2003.59,892.429 2007.31,912.372 2006.87,933.813 2006.66,944.463 2009.42,958.322 2019.47,976.938 2026.43,994.367 2038.09,1009.18 2049.74,1016.31 2062.72,1020 2079.84,1017.3 2098.32,1010 2112.53,1000.87 2129.71,988.485 2140.14,978.825 2144.23,959.82 2135.15,943.198 2118.54,924.932 2103.68,908.018 2080.07,896.378 2051.75,890.284 2024.02,884.395 2006.35,882.265 1981.57,880.583 1960.21,878.971 1941.6,869.843 1926.6,863.878 1904.92,857.577 1888.9,857.218 1866.49,858.709 1845.39,853.786 1824.38,849.029 1804.39,847.984 1780.7,844.795 1762.2,840.204 1745.53,835.079 1723.56,832.876 1696.57,834.703 1669.94,840.522 1653.81,839.676 1648.29,832.564 1644.21,829.401 1636.75,828.088 1626.07,827.122 1617.87,826.111 1604.57,830.171 1590.4,836.318 1565.12,840.36 1543.64,844.332 1528.56,849.993 1518.21,858.514 1524.47,860.184 1539.17,857.979 1572.46,854.262 1592.02,837.909 1607.27,823.17 1613.98,807.483 1607.47,789.838 1592.93,771.521 1581.28,760.66 1571.57,739.71 1553.13,729.364 1531.76,739.182 1509.94,741.205 1480.48,735.167 1475.76,717.917 1471.83,698.576 1472.71,678.113 1476.92,662.061 1490.72,639.639 1499.38,619.722 1502.66,596.404 1486.42,583.664 1464.01,575.71 1455.23,573.759 1464.21,560.771 1483.76,550.278 1520.04,548.516 1558.38,534.708 1584,518.461 1603.11,494.271 1618,473.224 1639.1,462.958 1665.23,465.905 1689.25,471.666 1708.91,489.588 1736.64,502.567 1756.36,518.357 1766.5,538.647 1756.08,555.726 1737.24,572.485 1710.91,585.361 1677.65,591.295 1651.89,591.387 1617.3,577.102 1591.04,562.435 1579.73,540.029 1577.85,517.23 1596.4,503.035 1611.71,492.976 1635.08,478.84 1659.58,470.015 1682.86,454.381 1704.58,441.879 1724.09,441.023 1747.26,427.98 1751.34,414.207 1760.89,396.636 1773.58,390.486 1790.84,373.607 1784.85,360.943 1764.48,349.81 1759.75,347.663 1770.41,342.77 1794.57,337.141 1823.32,341.246 1848.73,343.06 1875.63,347.243 1899.59,365.331 1903.74,384.004 1901.39,395.997 1880.38,407.93 1865.07,429.577 1848.84,457.359 1839.05,490.349 1839.73,510.382 1804.84,513.844 1781.43,528.583 1750.11,535.029 1719.49,551.676 1701.14,576.695 1681.33,594.935 1653.8,590.733 1631.53,579.316 1603.96,569.696 1588.82,557.591 1563.31,540.981 1554.04,534.235 1562.65,510.895 1586.64,502.775 1621.15,497.823 1650.13,500.863 1686.08,507.61 1714.46,522.516 1721.41,544.065 1736.34,564.538 1752.42,569.574 1778.71,574.553 1801.04,584.289 1811.32,587.308 1838.41,579.557 1863.03,571.738 1881.5,562.487 1901.26,564.524 1921.44,579.205 1920.95,597.451 1921.7,618.352 1909.02,649.91 1888.74,676.001 1864.97,695.901 1841.76,724.503 1838.52,749.84 1803.02,762.889 1774.83,768.758 1746.48,782.856 1720.46,796.613 1703.04,815.591 1687.6,836.804 1661.16,859.98 1634.46,868.649 1607.97,859.967 1583.76,854.07 1552.05,849.826 1523.35,842.116 1503.21,820.143 1488.23,799.851 1457.31,777.318 1440.68,757.836 1415.08,741.825 1391.63,738.389 1361.69,743.955 1342.92,742.747 1315.98,734.168 1310.72,708.304 1294.48,699.122 1270.01,703.291 1252.75,712.047 1228.13,728.392 1221.36,734.369 1190.13,739.498 1166.92,744.548 1141.06,738.554 1120.14,720.761 1098.32,707.056 1063.12,702.55 1030.63,693.569 1008.11,687.691 986.194,677.682 965.466,657.118 966.501,644.308 975.305,624.113 991.068,603.64 1003.28,580.944 1009.52,550.615 1015.64,526.364 1002.45,504.885 982.957,500.918 971.717,489.488 975.525,475.883 1000,475.605 1035,479.516 1076.82,477.553 1110.8,473.011 1139.39,455.095 1164.25,430.653 1189.02,410.817 1220.08,402.85 1259.44,405.771 1292.25,418.203 1324.44,433.068 1353.86,446.81 1380.71,458.791 1403.09,472.692 1438.91,480.417 1465.36,493.883 1491.57,517.035 1522.08,543.338 1550.22,559.325 1573.58,570.538 1593.86,579.984 1602.77,572.341 1623.57,562.365 1650.68,547.665 1673.32,538.208 1703.26,527.791 1736.03,525.826 1772.52,535.271 1800.1,560.131 1807.96,581.381 1803.58,612.648 1786.77,645.407 1783.68,672.152 1775.58,704.598 1774.26,738.943 1791.24,770.243 1822.97,794.868 1861.71,793.126 1883.14,795.581 1915.08,802.654 1935.54,824.235 1961.2,849.682 1981.32,881.507 1994.04,914.334 1998.6,937.067 2014.36,919.895 2050.75,924.574 2077.74,930.721 2090.03,945.887 2093.47,950.238 2094.23,955.817 2098.05,971.341 2101.72,977.044 2113.6,981.023 2129.67,982.422 2158.65,976.981 2185.29,985.358 2200.55,998.331 2215.48,1020.5 2216.12,1034.48 2218.75,1022.36 2223.84,1005.2 2223.54,978.328 2213.53,950.409 2197.57,926.222 2186.21,904.104 2186.66,884.658 2159.56,862.178 2152.33,830.853 2156.85,806.158 2174.96,794.892 2195.84,796.763 2220.24,804.894 2236.44,817.092 2248.38,837.655 2274.46,860.143 2288.81,881.14 2281.51,909.104 2260.85,930.632 2243.68,950.286 2213.63,962.733 2194.33,981.342 2166.28,995.614 2138.27,1018.56 2118.52,1040.04 2108.16,1063.92 2089.36,1086.81 2071.36,1108.72 2046.22,1125.47 2019.91,1137.91 1988.68,1153.78 1963.6,1170.78 1934.95,1179.61 1905.71,1198.03 1889.35,1215.72 1857.13,1228.45 1837.81,1242.33 1819.3,1262.28 1802.33,1289.6 1794.97,1310.35 1789.49,1331.47 1781.64,1355.86 1803.83,1376.94 1813.39,1391.05 1806.47,1414.56 1799.51,1440.45 1780.24,1445.72 1756.83,1442.43 1734.49,1424.89 1722.58,1398.6 1708.37,1377.02 1683.88,1353.46 1646.23,1327.64 1614.36,1320.38 1578.92,1318.9 1541.01,1326.72 1500.31,1335.92 1473.72,1337.36 1438.11,1326.04 1413.41,1313.84 1392.99,1289.41 1390.09,1255.86 1385.32,1215.69 1366.08,1188.74 1344.17,1167.58 1348.88,1135.49 1346.53,1108.26 1338.83,1083.88 1326.26,1055.39 1307.96,1031.65 1302.14,1004.46 1307.77,971.568 1317.78,938.814 1335.43,909.109 1352.6,877.739 1365.22,845.537 1392.71,824.324 1387.76,795.837 1372.15,771.989 1342.48,749.907 1309.22,746.61 1288.87,733.151 1280.35,707.598 1277.59,675.807 1289.24,648.809 1304.25,626.106 1326.11,616.411 1359.08,605.09 1394.79,600.061 1434.71,596.293 1473.3,596.665 1502.43,589.062 1525,562.895 1543.26,541.214 1571.77,528.008 1594.88,522.693 1597.59,507.397 1583.36,493.857 1562.21,478.749 1535.98,466.709 1506.91,439.023 1484.96,413.971 1471.12,388.198 1453.42,367.16 1450.47,348.824 1457.09,327.907 1474,318.866 1491.86,327.978 1522.73,332.3 1561.84,335.122 1596.29,343.562 1636.2,349.724 1671.36,352.51 1702.42,367.896 1727.29,374.552 1753.28,367.385 1776.85,356.901 1808.42,350.447 1841.19,350.64 1872.26,345.057 1894.88,360.203 1906.61,376.03 1911.81,371.244 1922.06,355.346 1938.93,338.933 1956.52,326.806 1981.02,312.398 2000.88,303.365 1991.93,303.868 1971.02,291.545 1959.15,276.268 1948.06,246.35 1950.73,217.538 1962.76,201.808 1990.7,191.271 2025.41,193.415 2050.17,197.896 2084.47,202.958 2119.7,215.501 2143.01,236.991 2147.97,265.73 2140.85,292.325 2130.19,301.032 2133.62,317.372 2137.22,340.181 2133.45,371.458 2105.23,388.653 2085.2,422.613 2057.43,445.277 2034.29,472.074 2026.18,506.997 1999.92,514.206 1964.74,515.532 1929.82,528.082 1898.78,541.737 1882.19,568.368 1869.4,599.046 1869.59,616.116 1895.98,621.349 1925.19,634.198 1962.41,649.095 1996.58,672.721 2024.97,687.374 2063.61,692.827 2098.15,693.459 2137.17,689.581 2167.08,693.56 2193.63,693.691 2204.95,679.983 2218.28,659.272 2235.05,638.948 2232.79,613.571 2229.63,595.07 2219.9,570.142 2193.49,549.415 2171.81,531.986 2147.59,516.37 2104.87,516.248 2079.63,523.522 2054.95,541.109 2038.12,561.233 2011.88,585.586 2007.49,615.541 2012.1,647.526 2015.44,677.114 2033.24,703.397 2045.83,728.868 2060.4,763.362 2075.22,793.985 2106.61,805.468 2137.17,822.627 2163.09,851.362 2182.91,874.625 2198.14,905.532 2205.55,930.901 2202.23,942.036 2170.17,943.614 2132.45,956.035 2104.71,955.869 2089.74,962.571 2069.91,966.675 2047.39,962.419 2016.19,948.151 1985.32,940.732 1949.51,943.443 1905.31,955.28 1866.86,969.558 1828.45,970.518 1784.58,978.285 1746.23,979.221 1706.66,980.428 1675.07,974.408 1639.82,979.065 1607.71,973.741 1575.01,965.846 1538.78,935.151 1511.92,920.219 1475.13,912.409 1441.03,897.838 1410.88,881.991 1379.32,860.187 1353.21,852.014 1325.76,865.491 1301.1,882.815 1271.78,898.375 1234.08,915.91 1195.95,925.084 1165.89,920.409 1137.59,897.914 1120.65,872.928 1102.25,842.952 1076.67,817.664 1064.12,787.465 1060.51,759.609 1063.59,735.817 1049.86,705.36 1027.32,688.373 998.275,676.252 978.98,654.64 970.459,623.854 967.063,600.305 956.07,573.147 964.883,546.683 986.779,519.331 998.134,502.031 1010.31,496.215 1020.33,481.835 1025.12,464.75 1032.57,441.149 1039.31,416.911 1044.83,388.077 1056.78,354.688 1057.48,332.742 1035.64,314.804 1016.85,299.985 989.345,299.434 961.156,308.924 932.811,305.227 900.746,290.422 862.443,275.839 840.774,269.119 817.337,265.766 802.612,247.433 801.213,226.45 815.584,208.426 838.707,189.078 862.148,171.269 904.069,160.98 935.01,149.008 968.903,142.322 999.883,152.898 1028.55,159.756 1062.63,156.229 1095.91,149.859 1115.54,129.828 1132.66,110.171 1145.95,88.269 "/>
<polyline clip-path="url(#clip511)" style="stroke:#ff0000; stroke-linecap:round; stroke-linejoin:round; stroke-width:4; stroke-opacity:1; fill:none" points="203.644,717.127 234.603,723.524 237.263,714.629 258.794,715.934 262.235,716.635 289.752,722.331 306.945,725.887 336.241,725.64 361.213,727.658 392.185,734.056 418.936,730.143 440.466,731.435 483.542,734.043 495.544,742.827 520.53,744.833 563.62,747.441 581.724,748.031 601.519,755.278 635.977,762.389 655.787,769.635 679.053,777.595 703.186,782.578 734.217,788.987 753.173,799.211 781.645,801.942 815.293,812.055 831.69,805.977 873.985,811.563 892.103,824.776 919.721,830.485 953.412,840.597 973.28,847.856 1000.93,853.565 1015.62,866.076 1033.79,879.302 1037.25,880.015 1070.09,880.483 1083.91,883.349 1108.98,885.367 1136.66,891.088 1161.78,905.765 1188.61,914.463 1206.78,915.066 1235.32,917.81 1271.66,918.991 1296.74,921.021 1331.38,928.181 1355.64,933.2 1380.73,935.218 1405.83,937.248 1443.02,935.464 1461.2,936.054 1490.61,935.821 1517.4,931.872 1548.49,925.671 1576.22,931.392 1603,927.455 1628.12,929.485 1646.17,917.428 1664.34,918.019 1681.53,908.952 1701.37,903.575 1725.65,908.595 1748.95,903.932 1769.77,908.226 1787.1,911.806 1810.57,919.803 1828.92,933.053 1851.57,944.039 1863.81,952.885 1880.53,972.126 1888.48,983.248 1895.61,997.359 1908.05,1018.9 1922.14,1034.46 1935.42,1053.03 1945.03,1058.18 1969.38,1063.23 1979.82,1065.38 1987.62,1063.82 2016.07,1053.88 2027.32,1053.03 2049.42,1025.96 2055.36,1017.7 2054.12,995.317 2058.2,980.369 2056.97,958.015 2037.75,947.742 2020.37,944.15 1997.7,933.163 1970.09,940.09 1949.26,935.796 1932.71,929.226 1915.36,925.646 1890.23,923.616 1872.23,935.685 1848.92,940.336 1836.04,947.152 1807.43,944.396 1782.3,942.378 1754.54,936.645 1736.21,923.395 1712.75,915.398 1677.09,898.568 1656.16,881.639 1635.23,864.711 1623.87,852.925 1612.52,841.126 1590.77,827.2 1577.64,808.758 1567.13,794.019 1560.92,777.017 1565.1,762.167 1583.94,747.195 1594.2,736.738 1617.45,732.112 1631.27,734.954 1660.61,734.72 1674.58,750.148 1695.34,754.429 1705.72,756.557 1733.42,762.266 1755.16,776.156 1760.44,783.525 1783.03,794.462 1802.16,804.698 1826.41,809.693 1845.38,807.306 1866.99,808.61 1891.89,798.018 1910.04,798.62 1923.91,801.475 1945.71,815.389 1960.59,827.889 1974.66,843.366 1981.79,857.415 1990.77,878.158 1999.75,898.912 2002.6,915.263 2000.34,936.866 2003,940.57 2009.34,957.658 2025.29,979.889 2028.15,996.276 2043.07,1008.84 2053.51,1011 2067.42,1013.87 2088.08,1005.49 2104.44,999.389 2113.84,991.847 2131.83,979.766 2136.93,974.513 2136.47,949.169 2121.53,936.62 2103.93,920.381 2093.3,905.593 2069.81,897.596 2041.21,894.853 2016.9,889.845 2006.49,887.692 1977.9,884.961 1960.55,881.381 1943.01,865.166 1929.13,862.312 1901.38,856.591 1889.33,860.405 1862.58,864.342 1844.25,851.116 1823.44,846.835 1804.46,849.209 1776.74,843.501 1763.69,837.669 1746.37,834.089 1720.46,835.049 1690.25,838.272 1666.13,845.888 1657.41,837.792 1657.27,825.17 1649.52,826.72 1638.3,827.556 1623.61,827.68 1616.68,826.252 1599.49,835.295 1586.61,842.086 1553.77,841.619 1538.24,844.707 1528.8,852.211 1521.98,863.419 1537.51,860.319 1556.5,857.932 1587.56,851.731 1596.86,831.604 1611.42,818.871 1615.58,803.997 1605.91,786.281 1589.32,767.15 1580.6,759.067 1569.15,734.732 1549.24,727.486 1526.94,741.745 1505.37,740.441 1474.25,734.031 1475.83,715.515 1470.49,695.597 1472.91,674.141 1477.09,659.329 1494.97,634.822 1499.99,617.069 1503.23,592.709 1484.22,582.547 1460.91,574.636 1454.01,573.222 1465.92,556.92 1490.79,546.402 1530.39,548.284 1568.07,531.048 1586.85,516.174 1604.67,491.765 1617.36,472.56 1637.89,464.305 1666.29,467.012 1690.41,471.945 1710.41,491.617 1739.78,503.871 1757.19,519.914 1766.04,540.447 1754.19,556.736 1734.62,574.575 1705.49,587.345 1671.12,592.795 1649.58,591.503 1610.65,574.132 1589.01,560.316 1580.2,539.77 1579.13,517.712 1597.9,502.85 1611.55,493.18 1638.02,476.793 1662.01,469.251 1685.03,452.162 1706.38,440.979 1724.42,441.557 1750.85,425.195 1750.71,412.732 1763.35,393.564 1775.32,389.8 1795.66,369.119 1784.36,357.493 1758.46,345.99 1774.7,340.011 1805.5,333.896 1832.2,342.446 1853.68,343.738 1881.21,349.361 1904.68,369.672 1904.04,385.063 1900.77,396.812 1875.21,410.222 1860.95,435.283 1845.87,463.309 1836.85,495.714 1840.48,508.927 1799.24,512.938 1779.69,530.765 1745.34,536.203 1714.59,554.854 1700.24,580.025 1681.48,594.924 1653.86,589.252 1631.36,578.389 1601.14,569.051 1589.83,557.363 1558.68,538.479 1556.07,534.825 1563.56,508.275 1591,501.435 1628.78,496.711 1652.9,501.656 1690.83,509.432 1715.95,523.937 1721.34,543.756 1737.09,565.717 1750.9,568.547 1781.97,574.919 1804.49,585.795 1811.4,587.21 1843.14,578.106 1867.14,570.54 1884.22,561.559 1904.94,565.803 1925.85,582.572 1920.94,600.312 1922.13,622.433 1904.58,659.501 1884.19,680.354 1861.14,697.553 1837.44,730.303 1839.42,749.532 1799.03,763.201 1775.78,767.839 1745.76,783.648 1720.01,797.206 1703.82,815.893 1686.78,837.559 1657.69,863.05 1634.39,867.7 1607.51,859.002 1583.27,853.995 1547.78,849.837 1520.93,841.139 1501.71,818.293 1488.61,799.851 1452.13,773.461 1441.66,758.735 1413.93,740.453 1392.34,739.149 1357.88,744.611 1344.06,741.757 1313.81,732.395 1311.06,703.557 1293.8,700.002 1267.09,703.926 1249.9,712.944 1222.39,732.407 1221.54,735.372 1183.61,740.121 1163.79,745.472 1137.02,736.799 1117.14,716.992 1094.68,706.079 1055.89,701.232 1025.71,691.869 1008.47,688.314 986.062,677.414 963.635,653.977 966.224,645.094 976.533,622.137 993.726,600.608 1004.02,577.688 1009.99,544.507 1015.98,523.863 999.626,504.88 982.433,501.349 971.256,489.686 975.536,474.959 1008.19,475.415 1046.85,480.237 1088.08,476.227 1114.7,472.327 1142.13,453.011 1167.79,427.126 1190.9,410.062 1221.77,403.948 1264.7,406.519 1293.95,418.736 1325.81,434.606 1355.09,446.835 1380.94,458.363 1402.52,472.142 1443.83,480.606 1465.42,494.398 1494.86,519.151 1526.93,547.583 1549.4,558.434 1571.89,569.297 1590.91,579.459 1600.31,572.004 1625.16,561.485 1655.12,545.774 1675.66,537.507 1708.21,525.462 1740.91,525.93 1778.04,536.658 1803.34,563.699 1806.13,579.877 1803.17,616.773 1782.93,650.163 1784.07,672.308 1774.16,707.888 1775.46,742.655 1793.09,771.407 1826.25,797.083 1864.17,792.321 1878.04,795.176 1916.16,803.012 1935.5,825.859 1964.45,853.847 1984.84,886.388 1994.83,916.813 1997.7,933.163 2012.2,920.393 2054.7,926.003 2079.02,931.01 2089.66,945.823 2092.32,949.526 2094.17,956.219 2099.71,976.297 2102.37,980.012 2119.77,983.592 2137.96,984.195 2169.85,974.98 2195.25,989.695 2203.26,1000.83 2218.47,1026.09 2216.02,1035.07 2220.09,1020.09 2225.76,999.143 2222.59,970.084 2210.88,945.577 2194.87,923.37 2185.83,902.603 2187.22,883.989 2153.88,858.24 2151.58,826.314 2157.25,805.485 2174.37,796.443 2195.98,797.759 2222.94,806.433 2237.87,818.932 2250.38,840.364 2280.28,865.387 2290.15,883.153 2278.62,912.261 2258.26,933.274 2242.17,952.036 2209.49,964.228 2193.38,983.002 2164.17,995.92 2135.17,1021.53 2119.03,1040.33 2109.02,1063.58 2087.75,1087.69 2070.76,1109.52 2044.14,1126.22 2019.14,1136.91 1984.7,1155.17 1961.52,1172.6 1933.83,1179.58 1902,1201.58 1890.9,1215.19 1853.74,1229.76 1839.13,1242.65 1818.54,1263.86 1798.93,1294.85 1794.78,1309.94 1788.96,1331.07 1781.47,1358.26 1808.74,1379.91 1813.23,1390.44 1805.74,1417.67 1798.24,1444.93 1779.93,1444.32 1754.61,1442.26 1730.83,1421.3 1720.05,1393.45 1706.77,1374.7 1680.36,1350.03 1636.55,1321.75 1614.77,1320.42 1578.22,1319.21 1539.13,1327.05 1495.71,1337.2 1477.43,1336.58 1436.44,1324.87 1413.74,1313.75 1391.82,1286.84 1390.7,1251.52 1384.33,1208.77 1364.21,1188.68 1344.12,1168.59 1349.99,1134.83 1346.36,1108.66 1338.4,1084.79 1325.2,1053.51 1306.01,1030.52 1302.4,1004.42 1309.12,967.833 1318.45,934.984 1337.3,907.303 1353.54,875.943 1366.3,843.895 1393.8,824.37 1386.71,797.722 1371.86,772.637 1338.91,746.986 1309.59,747.232 1291.39,734.056 1280.9,706.768 1276.4,671.324 1290.92,646.103 1303.71,626.812 1324.33,618.52 1361.28,604.2 1399.12,599.463 1440.42,595.44 1476.58,596.621 1500.61,589.043 1527.05,560.095 1543.23,541.554 1572.35,528.809 1592.09,523.494 1596.24,508.743 1582.33,493.426 1558.09,475.993 1532.21,464.453 1501,433.142 1481.92,410.567 1470.57,386.478 1454.11,367.569 1451.41,351.489 1458.07,328.015 1475.15,319.108 1494.11,329.184 1529.3,333.281 1572.2,335.84 1602.32,345.104 1644.42,350.603 1672.76,353.298 1704.68,369.143 1725.33,373.363 1752.72,366.548 1777.47,356.09 1811.73,350.677 1844.34,351.132 1875.14,345.018 1895.97,361.688 1906.48,376.242 1911.56,371.075 1924.15,351.932 1943.62,334.204 1960.65,325.284 1986.98,308.971 2003.18,302.979 1992.04,303.804 1963.51,288.696 1957.25,271.952 1944.74,238.476 1952.06,212.148 1962.17,201.863 1994.53,189.929 2029.7,194.001 2050.32,198.209 2088.94,202.982 2125.14,216.528 2144.39,238.98 2147.49,267.437 2140.24,293.789 2131.75,298.255 2133.81,317.25 2137.7,342.828 2131.46,378.764 2099.04,390.759 2080.84,430.522 2054.48,446.885 2032.56,473.508 2026.27,509.592 2003.93,511.24 1962.7,515.263 1925.93,529.547 1896.85,542.305 1881.77,570.417 1869.29,602.219 1870.29,611.791 1897.11,620.427 1929.23,636.396 1969.1,650.84 2002.27,676.429 2024.87,687.33 2067.22,692.891 2100,693.358 2141.34,689.323 2165.57,694.305 2191.44,693.346 2202.4,679.948 2219.25,658.381 2236.07,636.815 2232.13,611.016 2229.23,594.813 2218.37,567.624 2187.83,545.774 2170.32,529.731 2145.1,515.214 2096.96,517.822 2080.71,523.851 2053.5,543.215 2037.46,561.755 2007.77,590.003 2007.37,618.041 2013.05,650.471 2016.1,679.271 2034.64,704.996 2046.25,729.319 2061.55,766.978 2075.85,795.028 2106.25,804.427 2137.7,823.46 2165.92,854.426 2182.69,873.618 2198.92,908.447 2204.49,928.501 2202.06,937.457 2167.53,942.956 2126.27,959.688 2105.41,955.382 2092.54,962.198 2069.23,966.861 2044.91,961.841 2009.13,944.986 1981.34,939.253 1943.33,944.039 1895.06,959.331 1862.34,971.523 1825.94,970.33 1779.31,979.655 1746.4,979.176 1705.71,980.258 1677.93,974.525 1639.89,979.299 1608.66,972.852 1573.95,965.68 1532.95,928.771 1512.98,921.488 1471.39,912.901 1439.27,896.796 1410.63,881.418 1376.77,858.658 1355.99,854.376 1326.69,867.245 1300,883.805 1269.82,899.675 1227.55,919.36 1192.98,924.847 1168.75,919.839 1135.81,894.077 1120.18,871.908 1100.22,839.392 1074.25,815.118 1064.69,784.792 1061.18,758.895 1063.73,737.402 1048.14,702.77 1026.56,688.904 997.254,676.589 978.283,653.854 969.651,620.723 967.901,601.567 954.988,570.724 966.151,544.864 989.33,515.251 996.199,504.166 1009.07,497.449 1021.08,481.185 1026.2,463.518 1033.9,437.042 1040.72,413.52 1045.81,383.427 1059.46,348.918 1056.86,332.838 1033.68,312.563 1015.66,299.559 986.525,299.805 958.256,309.537 930.841,303.927 895.718,287.416 856.329,273.145 842.636,270.34 818.662,265.431 802.423,246.596 801.614,224.734 817.895,206.378 841.87,186.509 864.976,169.58 915.426,158.237 936.798,147.153 970.981,141.764 1000.06,153.894 1027.43,159.48 1065.04,154.793 1099.22,149.416 1116.26,128.182 1132.44,109.875 1146.03,87.9763 "/>
<path clip-path="url(#clip510)" d="M214.252 1438.47 L760.776 1438.47 L760.776 1282.95 L214.252 1282.95  Z" fill="#ffffff" fill-rule="evenodd" fill-opacity="1"/>
<polyline clip-path="url(#clip510)" style="stroke:#000000; stroke-linecap:round; stroke-linejoin:round; stroke-width:4; stroke-opacity:1; fill:none" points="214.252,1438.47 760.776,1438.47 760.776,1282.95 214.252,1282.95 214.252,1438.47 "/>
<polyline clip-path="url(#clip510)" style="stroke:#0000ff; stroke-linecap:round; stroke-linejoin:round; stroke-width:4; stroke-opacity:1; fill:none" points="238.832,1334.79 386.315,1334.79 "/>
<path clip-path="url(#clip510)" d="M434.924 1338.05 L434.924 1340.13 L415.34 1340.13 Q415.618 1344.53 417.979 1346.84 Q420.363 1349.13 424.6 1349.13 Q427.053 1349.13 429.345 1348.53 Q431.66 1347.93 433.928 1346.73 L433.928 1350.75 Q431.637 1351.73 429.229 1352.24 Q426.822 1352.75 424.345 1352.75 Q418.141 1352.75 414.507 1349.13 Q410.896 1345.52 410.896 1339.37 Q410.896 1333 414.322 1329.27 Q417.771 1325.52 423.604 1325.52 Q428.836 1325.52 431.868 1328.9 Q434.924 1332.26 434.924 1338.05 M430.664 1336.8 Q430.618 1333.3 428.697 1331.22 Q426.799 1329.13 423.65 1329.13 Q420.086 1329.13 417.933 1331.15 Q415.803 1333.16 415.479 1336.82 L430.664 1336.8 Z" fill="#000000" fill-rule="nonzero" fill-opacity="1" /><path clip-path="url(#clip510)" d="M458.442 1326.91 L458.442 1330.94 Q456.636 1330.01 454.692 1329.55 Q452.748 1329.09 450.664 1329.09 Q447.493 1329.09 445.896 1330.06 Q444.322 1331.03 444.322 1332.98 Q444.322 1334.46 445.456 1335.32 Q446.59 1336.15 450.016 1336.91 L451.474 1337.24 Q456.011 1338.21 457.91 1339.99 Q459.831 1341.75 459.831 1344.92 Q459.831 1348.53 456.96 1350.64 Q454.113 1352.75 449.113 1352.75 Q447.03 1352.75 444.761 1352.33 Q442.516 1351.94 440.016 1351.13 L440.016 1346.73 Q442.377 1347.95 444.669 1348.58 Q446.961 1349.18 449.206 1349.18 Q452.215 1349.18 453.836 1348.16 Q455.456 1347.12 455.456 1345.25 Q455.456 1343.51 454.275 1342.58 Q453.118 1341.66 449.16 1340.8 L447.678 1340.45 Q443.72 1339.62 441.961 1337.91 Q440.201 1336.17 440.201 1333.16 Q440.201 1329.51 442.794 1327.51 Q445.386 1325.52 450.155 1325.52 Q452.516 1325.52 454.599 1325.87 Q456.683 1326.22 458.442 1326.91 Z" fill="#000000" fill-rule="nonzero" fill-opacity="1" /><path clip-path="url(#clip510)" d="M470.826 1318.79 L470.826 1326.15 L479.599 1326.15 L479.599 1329.46 L470.826 1329.46 L470.826 1343.53 Q470.826 1346.7 471.683 1347.61 Q472.562 1348.51 475.224 1348.51 L479.599 1348.51 L479.599 1352.07 L475.224 1352.07 Q470.294 1352.07 468.419 1350.25 Q466.544 1348.39 466.544 1343.53 L466.544 1329.46 L463.419 1329.46 L463.419 1326.15 L466.544 1326.15 L466.544 1318.79 L470.826 1318.79 Z" fill="#000000" fill-rule="nonzero" fill-opacity="1" /><path clip-path="url(#clip510)" d="M485.201 1326.15 L489.46 1326.15 L489.46 1352.07 L485.201 1352.07 L485.201 1326.15 M485.201 1316.06 L489.46 1316.06 L489.46 1321.45 L485.201 1321.45 L485.201 1316.06 Z" fill="#000000" fill-rule="nonzero" fill-opacity="1" /><path clip-path="url(#clip510)" d="M518.557 1331.13 Q520.155 1328.26 522.377 1326.89 Q524.599 1325.52 527.608 1325.52 Q531.659 1325.52 533.858 1328.37 Q536.057 1331.19 536.057 1336.43 L536.057 1352.07 L531.775 1352.07 L531.775 1336.57 Q531.775 1332.84 530.455 1331.03 Q529.136 1329.23 526.428 1329.23 Q523.118 1329.23 521.196 1331.43 Q519.275 1333.63 519.275 1337.42 L519.275 1352.07 L514.993 1352.07 L514.993 1336.57 Q514.993 1332.82 513.673 1331.03 Q512.354 1329.23 509.599 1329.23 Q506.335 1329.23 504.414 1331.45 Q502.493 1333.65 502.493 1337.42 L502.493 1352.07 L498.21 1352.07 L498.21 1326.15 L502.493 1326.15 L502.493 1330.18 Q503.951 1327.79 505.988 1326.66 Q508.025 1325.52 510.826 1325.52 Q513.65 1325.52 515.618 1326.96 Q517.608 1328.39 518.557 1331.13 Z" fill="#000000" fill-rule="nonzero" fill-opacity="1" /><path clip-path="url(#clip510)" d="M556.335 1339.04 Q551.173 1339.04 549.182 1340.22 Q547.191 1341.4 547.191 1344.25 Q547.191 1346.52 548.673 1347.86 Q550.178 1349.18 552.747 1349.18 Q556.289 1349.18 558.418 1346.68 Q560.571 1344.16 560.571 1339.99 L560.571 1339.04 L556.335 1339.04 M564.83 1337.28 L564.83 1352.07 L560.571 1352.07 L560.571 1348.14 Q559.113 1350.5 556.937 1351.63 Q554.761 1352.75 551.613 1352.75 Q547.631 1352.75 545.27 1350.52 Q542.932 1348.28 542.932 1344.53 Q542.932 1340.15 545.849 1337.93 Q548.789 1335.71 554.599 1335.71 L560.571 1335.71 L560.571 1335.29 Q560.571 1332.35 558.627 1330.76 Q556.705 1329.13 553.21 1329.13 Q550.988 1329.13 548.881 1329.67 Q546.775 1330.2 544.83 1331.26 L544.83 1327.33 Q547.168 1326.43 549.367 1325.99 Q551.566 1325.52 553.65 1325.52 Q559.275 1325.52 562.053 1328.44 Q564.83 1331.36 564.83 1337.28 Z" fill="#000000" fill-rule="nonzero" fill-opacity="1" /><path clip-path="url(#clip510)" d="M577.816 1318.79 L577.816 1326.15 L586.589 1326.15 L586.589 1329.46 L577.816 1329.46 L577.816 1343.53 Q577.816 1346.7 578.673 1347.61 Q579.552 1348.51 582.214 1348.51 L586.589 1348.51 L586.589 1352.07 L582.214 1352.07 Q577.284 1352.07 575.409 1350.25 Q573.534 1348.39 573.534 1343.53 L573.534 1329.46 L570.409 1329.46 L570.409 1326.15 L573.534 1326.15 L573.534 1318.79 L577.816 1318.79 Z" fill="#000000" fill-rule="nonzero" fill-opacity="1" /><path clip-path="url(#clip510)" d="M614.367 1338.05 L614.367 1340.13 L594.784 1340.13 Q595.062 1344.53 597.423 1346.84 Q599.807 1349.13 604.043 1349.13 Q606.497 1349.13 608.788 1348.53 Q611.103 1347.93 613.372 1346.73 L613.372 1350.75 Q611.08 1351.73 608.673 1352.24 Q606.265 1352.75 603.788 1352.75 Q597.585 1352.75 593.95 1349.13 Q590.339 1345.52 590.339 1339.37 Q590.339 1333 593.765 1329.27 Q597.214 1325.52 603.048 1325.52 Q608.279 1325.52 611.312 1328.9 Q614.367 1332.26 614.367 1338.05 M610.108 1336.8 Q610.062 1333.3 608.14 1331.22 Q606.242 1329.13 603.094 1329.13 Q599.529 1329.13 597.376 1331.15 Q595.247 1333.16 594.923 1336.82 L610.108 1336.8 Z" fill="#000000" fill-rule="nonzero" fill-opacity="1" /><polyline clip-path="url(#clip510)" style="stroke:#ff0000; stroke-linecap:round; stroke-linejoin:round; stroke-width:4; stroke-opacity:1; fill:none" points="238.832,1386.63 386.315,1386.63 "/>
<path clip-path="url(#clip510)" d="M431.243 1382.97 Q432.84 1380.1 435.062 1378.73 Q437.285 1377.36 440.294 1377.36 Q444.345 1377.36 446.544 1380.21 Q448.743 1383.03 448.743 1388.27 L448.743 1403.91 L444.461 1403.91 L444.461 1388.41 Q444.461 1384.68 443.141 1382.87 Q441.822 1381.07 439.113 1381.07 Q435.803 1381.07 433.882 1383.27 Q431.961 1385.47 431.961 1389.26 L431.961 1403.91 L427.678 1403.91 L427.678 1388.41 Q427.678 1384.66 426.359 1382.87 Q425.039 1381.07 422.285 1381.07 Q419.021 1381.07 417.1 1383.29 Q415.178 1385.49 415.178 1389.26 L415.178 1403.91 L410.896 1403.91 L410.896 1377.99 L415.178 1377.99 L415.178 1382.02 Q416.637 1379.63 418.674 1378.5 Q420.711 1377.36 423.512 1377.36 Q426.336 1377.36 428.303 1378.8 Q430.294 1380.23 431.243 1382.97 Z" fill="#000000" fill-rule="nonzero" fill-opacity="1" /><path clip-path="url(#clip510)" d="M479.414 1389.89 L479.414 1391.97 L459.831 1391.97 Q460.109 1396.37 462.47 1398.68 Q464.854 1400.97 469.09 1400.97 Q471.544 1400.97 473.835 1400.37 Q476.15 1399.77 478.419 1398.57 L478.419 1402.59 Q476.127 1403.57 473.72 1404.08 Q471.312 1404.59 468.835 1404.59 Q462.632 1404.59 458.998 1400.97 Q455.386 1397.36 455.386 1391.21 Q455.386 1384.84 458.812 1381.11 Q462.261 1377.36 468.095 1377.36 Q473.326 1377.36 476.359 1380.74 Q479.414 1384.1 479.414 1389.89 M475.155 1388.64 Q475.109 1385.14 473.187 1383.06 Q471.289 1380.97 468.141 1380.97 Q464.576 1380.97 462.423 1382.99 Q460.294 1385 459.97 1388.66 L475.155 1388.64 Z" fill="#000000" fill-rule="nonzero" fill-opacity="1" /><path clip-path="url(#clip510)" d="M498.187 1390.88 Q493.025 1390.88 491.034 1392.06 Q489.044 1393.24 489.044 1396.09 Q489.044 1398.36 490.525 1399.7 Q492.03 1401.02 494.599 1401.02 Q498.141 1401.02 500.27 1398.52 Q502.423 1396 502.423 1391.83 L502.423 1390.88 L498.187 1390.88 M506.682 1389.12 L506.682 1403.91 L502.423 1403.91 L502.423 1399.98 Q500.965 1402.34 498.789 1403.47 Q496.613 1404.59 493.465 1404.59 Q489.483 1404.59 487.122 1402.36 Q484.784 1400.12 484.784 1396.37 Q484.784 1391.99 487.701 1389.77 Q490.641 1387.55 496.451 1387.55 L502.423 1387.55 L502.423 1387.13 Q502.423 1384.19 500.479 1382.6 Q498.557 1380.97 495.062 1380.97 Q492.84 1380.97 490.733 1381.51 Q488.627 1382.04 486.683 1383.1 L486.683 1379.17 Q489.021 1378.27 491.22 1377.83 Q493.419 1377.36 495.502 1377.36 Q501.127 1377.36 503.905 1380.28 Q506.682 1383.2 506.682 1389.12 Z" fill="#000000" fill-rule="nonzero" fill-opacity="1" /><path clip-path="url(#clip510)" d="M531.983 1378.75 L531.983 1382.78 Q530.178 1381.85 528.233 1381.39 Q526.289 1380.93 524.206 1380.93 Q521.034 1380.93 519.437 1381.9 Q517.863 1382.87 517.863 1384.82 Q517.863 1386.3 518.997 1387.16 Q520.131 1387.99 523.557 1388.75 L525.016 1389.08 Q529.553 1390.05 531.451 1391.83 Q533.372 1393.59 533.372 1396.76 Q533.372 1400.37 530.502 1402.48 Q527.655 1404.59 522.655 1404.59 Q520.571 1404.59 518.303 1404.17 Q516.057 1403.78 513.557 1402.97 L513.557 1398.57 Q515.919 1399.79 518.21 1400.42 Q520.502 1401.02 522.747 1401.02 Q525.756 1401.02 527.377 1400 Q528.997 1398.96 528.997 1397.09 Q528.997 1395.35 527.817 1394.42 Q526.659 1393.5 522.701 1392.64 L521.219 1392.29 Q517.261 1391.46 515.502 1389.75 Q513.743 1388.01 513.743 1385 Q513.743 1381.35 516.335 1379.35 Q518.928 1377.36 523.696 1377.36 Q526.057 1377.36 528.141 1377.71 Q530.224 1378.06 531.983 1378.75 Z" fill="#000000" fill-rule="nonzero" fill-opacity="1" /><path clip-path="url(#clip510)" d="M539.715 1393.68 L539.715 1377.99 L543.974 1377.99 L543.974 1393.52 Q543.974 1397.2 545.409 1399.05 Q546.844 1400.88 549.715 1400.88 Q553.164 1400.88 555.154 1398.68 Q557.168 1396.48 557.168 1392.69 L557.168 1377.99 L561.428 1377.99 L561.428 1403.91 L557.168 1403.91 L557.168 1399.93 Q555.617 1402.29 553.557 1403.45 Q551.52 1404.59 548.812 1404.59 Q544.344 1404.59 542.029 1401.81 Q539.715 1399.03 539.715 1393.68 M550.432 1377.36 L550.432 1377.36 Z" fill="#000000" fill-rule="nonzero" fill-opacity="1" /><path clip-path="url(#clip510)" d="M585.224 1381.97 Q584.506 1381.55 583.65 1381.37 Q582.816 1381.16 581.798 1381.16 Q578.187 1381.16 576.242 1383.52 Q574.321 1385.86 574.321 1390.26 L574.321 1403.91 L570.039 1403.91 L570.039 1377.99 L574.321 1377.99 L574.321 1382.02 Q575.664 1379.66 577.816 1378.52 Q579.969 1377.36 583.048 1377.36 Q583.488 1377.36 584.02 1377.43 Q584.552 1377.48 585.201 1377.6 L585.224 1381.97 Z" fill="#000000" fill-rule="nonzero" fill-opacity="1" /><path clip-path="url(#clip510)" d="M610.825 1389.89 L610.825 1391.97 L591.242 1391.97 Q591.52 1396.37 593.881 1398.68 Q596.265 1400.97 600.501 1400.97 Q602.955 1400.97 605.247 1400.37 Q607.562 1399.77 609.83 1398.57 L609.83 1402.59 Q607.538 1403.57 605.131 1404.08 Q602.724 1404.59 600.247 1404.59 Q594.043 1404.59 590.409 1400.97 Q586.798 1397.36 586.798 1391.21 Q586.798 1384.84 590.224 1381.11 Q593.673 1377.36 599.506 1377.36 Q604.737 1377.36 607.77 1380.74 Q610.825 1384.1 610.825 1389.89 M606.566 1388.64 Q606.52 1385.14 604.599 1383.06 Q602.7 1380.97 599.552 1380.97 Q595.988 1380.97 593.835 1382.99 Q591.705 1385 591.381 1388.66 L606.566 1388.64 Z" fill="#000000" fill-rule="nonzero" fill-opacity="1" /><path clip-path="url(#clip510)" d="M638.001 1382.97 Q639.598 1380.1 641.821 1378.73 Q644.043 1377.36 647.052 1377.36 Q651.103 1377.36 653.302 1380.21 Q655.501 1383.03 655.501 1388.27 L655.501 1403.91 L651.219 1403.91 L651.219 1388.41 Q651.219 1384.68 649.899 1382.87 Q648.58 1381.07 645.872 1381.07 Q642.561 1381.07 640.64 1383.27 Q638.719 1385.47 638.719 1389.26 L638.719 1403.91 L634.436 1403.91 L634.436 1388.41 Q634.436 1384.66 633.117 1382.87 Q631.798 1381.07 629.043 1381.07 Q625.779 1381.07 623.858 1383.29 Q621.936 1385.49 621.936 1389.26 L621.936 1403.91 L617.654 1403.91 L617.654 1377.99 L621.936 1377.99 L621.936 1382.02 Q623.395 1379.63 625.432 1378.5 Q627.469 1377.36 630.27 1377.36 Q633.094 1377.36 635.061 1378.8 Q637.052 1380.23 638.001 1382.97 Z" fill="#000000" fill-rule="nonzero" fill-opacity="1" /><path clip-path="url(#clip510)" d="M686.172 1389.89 L686.172 1391.97 L666.589 1391.97 Q666.867 1396.37 669.228 1398.68 Q671.612 1400.97 675.848 1400.97 Q678.302 1400.97 680.594 1400.37 Q682.908 1399.77 685.177 1398.57 L685.177 1402.59 Q682.885 1403.57 680.478 1404.08 Q678.07 1404.59 675.594 1404.59 Q669.39 1404.59 665.756 1400.97 Q662.145 1397.36 662.145 1391.21 Q662.145 1384.84 665.57 1381.11 Q669.02 1377.36 674.853 1377.36 Q680.084 1377.36 683.117 1380.74 Q686.172 1384.1 686.172 1389.89 M681.913 1388.64 Q681.867 1385.14 679.945 1383.06 Q678.047 1380.97 674.899 1380.97 Q671.334 1380.97 669.182 1382.99 Q667.052 1385 666.728 1388.66 L681.913 1388.64 Z" fill="#000000" fill-rule="nonzero" fill-opacity="1" /><path clip-path="url(#clip510)" d="M714.714 1388.27 L714.714 1403.91 L710.455 1403.91 L710.455 1388.41 Q710.455 1384.72 709.019 1382.9 Q707.584 1381.07 704.714 1381.07 Q701.265 1381.07 699.274 1383.27 Q697.283 1385.47 697.283 1389.26 L697.283 1403.91 L693.001 1403.91 L693.001 1377.99 L697.283 1377.99 L697.283 1382.02 Q698.811 1379.68 700.871 1378.52 Q702.955 1377.36 705.663 1377.36 Q710.13 1377.36 712.422 1380.14 Q714.714 1382.9 714.714 1388.27 Z" fill="#000000" fill-rule="nonzero" fill-opacity="1" /><path clip-path="url(#clip510)" d="M727.422 1370.63 L727.422 1377.99 L736.195 1377.99 L736.195 1381.3 L727.422 1381.3 L727.422 1395.37 Q727.422 1398.54 728.278 1399.45 Q729.158 1400.35 731.82 1400.35 L736.195 1400.35 L736.195 1403.91 L731.82 1403.91 Q726.89 1403.91 725.015 1402.09 Q723.14 1400.23 723.14 1395.37 L723.14 1381.3 L720.015 1381.3 L720.015 1377.99 L723.14 1377.99 L723.14 1370.63 L727.422 1370.63 Z" fill="#000000" fill-rule="nonzero" fill-opacity="1" /></svg>
