<?xml version="1.0" encoding="utf-8"?>
<svg xmlns="http://www.w3.org/2000/svg" xmlns:xlink="http://www.w3.org/1999/xlink" width="600" height="400" viewBox="0 0 2400 1600">
<defs>
  <clipPath id="clip540">
    <rect x="0" y="0" width="2400" height="1600"/>
  </clipPath>
</defs>
<path clip-path="url(#clip540)" d="M0 1600 L2400 1600 L2400 0 L0 0  Z" fill="#ffffff" fill-rule="evenodd" fill-opacity="1"/>
<defs>
  <clipPath id="clip541">
    <rect x="480" y="0" width="1681" height="1600"/>
  </clipPath>
</defs>
<path clip-path="url(#clip540)" d="M193.936 1486.45 L2352.76 1486.45 L2352.76 47.2441 L193.936 47.2441  Z" fill="#ffffff" fill-rule="evenodd" fill-opacity="1"/>
<defs>
  <clipPath id="clip542">
    <rect x="193" y="47" width="2160" height="1440"/>
  </clipPath>
</defs>
<polyline clip-path="url(#clip542)" style="stroke:#000000; stroke-linecap:round; stroke-linejoin:round; stroke-width:2; stroke-opacity:0.1; fill:none" points="229.255,1486.45 229.255,47.2441 "/>
<polyline clip-path="url(#clip542)" style="stroke:#000000; stroke-linecap:round; stroke-linejoin:round; stroke-width:2; stroke-opacity:0.1; fill:none" points="744.855,1486.45 744.855,47.2441 "/>
<polyline clip-path="url(#clip542)" style="stroke:#000000; stroke-linecap:round; stroke-linejoin:round; stroke-width:2; stroke-opacity:0.1; fill:none" points="1260.46,1486.45 1260.46,47.2441 "/>
<polyline clip-path="url(#clip542)" style="stroke:#000000; stroke-linecap:round; stroke-linejoin:round; stroke-width:2; stroke-opacity:0.1; fill:none" points="1776.06,1486.45 1776.06,47.2441 "/>
<polyline clip-path="url(#clip542)" style="stroke:#000000; stroke-linecap:round; stroke-linejoin:round; stroke-width:2; stroke-opacity:0.1; fill:none" points="2291.66,1486.45 2291.66,47.2441 "/>
<polyline clip-path="url(#clip542)" style="stroke:#000000; stroke-linecap:round; stroke-linejoin:round; stroke-width:2; stroke-opacity:0.1; fill:none" points="193.936,1356.53 2352.76,1356.53 "/>
<polyline clip-path="url(#clip542)" style="stroke:#000000; stroke-linecap:round; stroke-linejoin:round; stroke-width:2; stroke-opacity:0.1; fill:none" points="193.936,1160.36 2352.76,1160.36 "/>
<polyline clip-path="url(#clip542)" style="stroke:#000000; stroke-linecap:round; stroke-linejoin:round; stroke-width:2; stroke-opacity:0.1; fill:none" points="193.936,964.183 2352.76,964.183 "/>
<polyline clip-path="url(#clip542)" style="stroke:#000000; stroke-linecap:round; stroke-linejoin:round; stroke-width:2; stroke-opacity:0.1; fill:none" points="193.936,768.008 2352.76,768.008 "/>
<polyline clip-path="url(#clip542)" style="stroke:#000000; stroke-linecap:round; stroke-linejoin:round; stroke-width:2; stroke-opacity:0.1; fill:none" points="193.936,571.833 2352.76,571.833 "/>
<polyline clip-path="url(#clip542)" style="stroke:#000000; stroke-linecap:round; stroke-linejoin:round; stroke-width:2; stroke-opacity:0.1; fill:none" points="193.936,375.659 2352.76,375.659 "/>
<polyline clip-path="url(#clip542)" style="stroke:#000000; stroke-linecap:round; stroke-linejoin:round; stroke-width:2; stroke-opacity:0.1; fill:none" points="193.936,179.484 2352.76,179.484 "/>
<polyline clip-path="url(#clip540)" style="stroke:#000000; stroke-linecap:round; stroke-linejoin:round; stroke-width:4; stroke-opacity:1; fill:none" points="193.936,1486.45 2352.76,1486.45 "/>
<polyline clip-path="url(#clip540)" style="stroke:#000000; stroke-linecap:round; stroke-linejoin:round; stroke-width:4; stroke-opacity:1; fill:none" points="229.255,1486.45 229.255,1467.55 "/>
<polyline clip-path="url(#clip540)" style="stroke:#000000; stroke-linecap:round; stroke-linejoin:round; stroke-width:4; stroke-opacity:1; fill:none" points="744.855,1486.45 744.855,1467.55 "/>
<polyline clip-path="url(#clip540)" style="stroke:#000000; stroke-linecap:round; stroke-linejoin:round; stroke-width:4; stroke-opacity:1; fill:none" points="1260.46,1486.45 1260.46,1467.55 "/>
<polyline clip-path="url(#clip540)" style="stroke:#000000; stroke-linecap:round; stroke-linejoin:round; stroke-width:4; stroke-opacity:1; fill:none" points="1776.06,1486.45 1776.06,1467.55 "/>
<polyline clip-path="url(#clip540)" style="stroke:#000000; stroke-linecap:round; stroke-linejoin:round; stroke-width:4; stroke-opacity:1; fill:none" points="2291.66,1486.45 2291.66,1467.55 "/>
<path clip-path="url(#clip540)" d="M229.255 1517.37 Q225.644 1517.37 223.815 1520.93 Q222.009 1524.47 222.009 1531.6 Q222.009 1538.71 223.815 1542.27 Q225.644 1545.82 229.255 1545.82 Q232.889 1545.82 234.694 1542.27 Q236.523 1538.71 236.523 1531.6 Q236.523 1524.47 234.694 1520.93 Q232.889 1517.37 229.255 1517.37 M229.255 1513.66 Q235.065 1513.66 238.12 1518.27 Q241.199 1522.85 241.199 1531.6 Q241.199 1540.33 238.12 1544.94 Q235.065 1549.52 229.255 1549.52 Q223.444 1549.52 220.366 1544.94 Q217.31 1540.33 217.31 1531.6 Q217.31 1522.85 220.366 1518.27 Q223.444 1513.66 229.255 1513.66 Z" fill="#000000" fill-rule="nonzero" fill-opacity="1" /><path clip-path="url(#clip540)" d="M723.629 1544.91 L739.948 1544.91 L739.948 1548.85 L718.004 1548.85 L718.004 1544.91 Q720.666 1542.16 725.249 1537.53 Q729.855 1532.88 731.036 1531.53 Q733.281 1529.01 734.161 1527.27 Q735.064 1525.51 735.064 1523.82 Q735.064 1521.07 733.119 1519.33 Q731.198 1517.6 728.096 1517.6 Q725.897 1517.6 723.443 1518.36 Q721.013 1519.13 718.235 1520.68 L718.235 1515.95 Q721.059 1514.82 723.513 1514.24 Q725.967 1513.66 728.004 1513.66 Q733.374 1513.66 736.568 1516.35 Q739.763 1519.03 739.763 1523.52 Q739.763 1525.65 738.953 1527.57 Q738.166 1529.47 736.059 1532.07 Q735.48 1532.74 732.379 1535.95 Q729.277 1539.15 723.629 1544.91 Z" fill="#000000" fill-rule="nonzero" fill-opacity="1" /><path clip-path="url(#clip540)" d="M759.763 1517.37 Q756.152 1517.37 754.323 1520.93 Q752.517 1524.47 752.517 1531.6 Q752.517 1538.71 754.323 1542.27 Q756.152 1545.82 759.763 1545.82 Q763.397 1545.82 765.202 1542.27 Q767.031 1538.71 767.031 1531.6 Q767.031 1524.47 765.202 1520.93 Q763.397 1517.37 759.763 1517.37 M759.763 1513.66 Q765.573 1513.66 768.628 1518.27 Q771.707 1522.85 771.707 1531.6 Q771.707 1540.33 768.628 1544.94 Q765.573 1549.52 759.763 1549.52 Q753.952 1549.52 750.874 1544.94 Q747.818 1540.33 747.818 1531.6 Q747.818 1522.85 750.874 1518.27 Q753.952 1513.66 759.763 1513.66 Z" fill="#000000" fill-rule="nonzero" fill-opacity="1" /><path clip-path="url(#clip540)" d="M1248.63 1518.36 L1236.82 1536.81 L1248.63 1536.81 L1248.63 1518.36 M1247.4 1514.29 L1253.28 1514.29 L1253.28 1536.81 L1258.21 1536.81 L1258.21 1540.7 L1253.28 1540.7 L1253.28 1548.85 L1248.63 1548.85 L1248.63 1540.7 L1233.03 1540.7 L1233.03 1536.19 L1247.4 1514.29 Z" fill="#000000" fill-rule="nonzero" fill-opacity="1" /><path clip-path="url(#clip540)" d="M1275.94 1517.37 Q1272.33 1517.37 1270.5 1520.93 Q1268.7 1524.47 1268.7 1531.6 Q1268.7 1538.71 1270.5 1542.27 Q1272.33 1545.82 1275.94 1545.82 Q1279.58 1545.82 1281.38 1542.27 Q1283.21 1538.71 1283.21 1531.6 Q1283.21 1524.47 1281.38 1520.93 Q1279.58 1517.37 1275.94 1517.37 M1275.94 1513.66 Q1281.75 1513.66 1284.81 1518.27 Q1287.89 1522.85 1287.89 1531.6 Q1287.89 1540.33 1284.81 1544.94 Q1281.75 1549.52 1275.94 1549.52 Q1270.13 1549.52 1267.05 1544.94 Q1264 1540.33 1264 1531.6 Q1264 1522.85 1267.05 1518.27 Q1270.13 1513.66 1275.94 1513.66 Z" fill="#000000" fill-rule="nonzero" fill-opacity="1" /><path clip-path="url(#clip540)" d="M1761.46 1529.7 Q1758.31 1529.7 1756.46 1531.86 Q1754.63 1534.01 1754.63 1537.76 Q1754.63 1541.49 1756.46 1543.66 Q1758.31 1545.82 1761.46 1545.82 Q1764.61 1545.82 1766.44 1543.66 Q1768.29 1541.49 1768.29 1537.76 Q1768.29 1534.01 1766.44 1531.86 Q1764.61 1529.7 1761.46 1529.7 M1770.74 1515.05 L1770.74 1519.31 Q1768.98 1518.48 1767.18 1518.04 Q1765.4 1517.6 1763.64 1517.6 Q1759.01 1517.6 1756.55 1520.72 Q1754.12 1523.85 1753.78 1530.17 Q1755.14 1528.15 1757.2 1527.09 Q1759.26 1526 1761.74 1526 Q1766.95 1526 1769.96 1529.17 Q1772.99 1532.32 1772.99 1537.76 Q1772.99 1543.08 1769.84 1546.3 Q1766.69 1549.52 1761.46 1549.52 Q1755.47 1549.52 1752.3 1544.94 Q1749.12 1540.33 1749.12 1531.6 Q1749.12 1523.41 1753.01 1518.55 Q1756.9 1513.66 1763.45 1513.66 Q1765.21 1513.66 1766.99 1514.01 Q1768.8 1514.36 1770.74 1515.05 Z" fill="#000000" fill-rule="nonzero" fill-opacity="1" /><path clip-path="url(#clip540)" d="M1791.04 1517.37 Q1787.43 1517.37 1785.61 1520.93 Q1783.8 1524.47 1783.8 1531.6 Q1783.8 1538.71 1785.61 1542.27 Q1787.43 1545.82 1791.04 1545.82 Q1794.68 1545.82 1796.48 1542.27 Q1798.31 1538.71 1798.31 1531.6 Q1798.31 1524.47 1796.48 1520.93 Q1794.68 1517.37 1791.04 1517.37 M1791.04 1513.66 Q1796.86 1513.66 1799.91 1518.27 Q1802.99 1522.85 1802.99 1531.6 Q1802.99 1540.33 1799.91 1544.94 Q1796.86 1549.52 1791.04 1549.52 Q1785.23 1549.52 1782.16 1544.94 Q1779.1 1540.33 1779.1 1531.6 Q1779.1 1522.85 1782.16 1518.27 Q1785.23 1513.66 1791.04 1513.66 Z" fill="#000000" fill-rule="nonzero" fill-opacity="1" /><path clip-path="url(#clip540)" d="M2276.53 1532.44 Q2273.2 1532.44 2271.28 1534.22 Q2269.38 1536 2269.38 1539.13 Q2269.38 1542.25 2271.28 1544.03 Q2273.2 1545.82 2276.53 1545.82 Q2279.86 1545.82 2281.78 1544.03 Q2283.71 1542.23 2283.71 1539.13 Q2283.71 1536 2281.78 1534.22 Q2279.89 1532.44 2276.53 1532.44 M2271.85 1530.45 Q2268.84 1529.7 2267.16 1527.64 Q2265.49 1525.58 2265.49 1522.62 Q2265.49 1518.48 2268.43 1516.07 Q2271.39 1513.66 2276.53 1513.66 Q2281.69 1513.66 2284.63 1516.07 Q2287.57 1518.48 2287.57 1522.62 Q2287.57 1525.58 2285.88 1527.64 Q2284.22 1529.7 2281.23 1530.45 Q2284.61 1531.23 2286.48 1533.52 Q2288.38 1535.82 2288.38 1539.13 Q2288.38 1544.15 2285.3 1546.83 Q2282.25 1549.52 2276.53 1549.52 Q2270.81 1549.52 2267.73 1546.83 Q2264.68 1544.15 2264.68 1539.13 Q2264.68 1535.82 2266.58 1533.52 Q2268.47 1531.23 2271.85 1530.45 M2270.14 1523.06 Q2270.14 1525.75 2271.81 1527.25 Q2273.5 1528.76 2276.53 1528.76 Q2279.54 1528.76 2281.23 1527.25 Q2282.94 1525.75 2282.94 1523.06 Q2282.94 1520.38 2281.23 1518.87 Q2279.54 1517.37 2276.53 1517.37 Q2273.5 1517.37 2271.81 1518.87 Q2270.14 1520.38 2270.14 1523.06 Z" fill="#000000" fill-rule="nonzero" fill-opacity="1" /><path clip-path="url(#clip540)" d="M2306.69 1517.37 Q2303.08 1517.37 2301.25 1520.93 Q2299.45 1524.47 2299.45 1531.6 Q2299.45 1538.71 2301.25 1542.27 Q2303.08 1545.82 2306.69 1545.82 Q2310.33 1545.82 2312.13 1542.27 Q2313.96 1538.71 2313.96 1531.6 Q2313.96 1524.47 2312.13 1520.93 Q2310.33 1517.37 2306.69 1517.37 M2306.69 1513.66 Q2312.5 1513.66 2315.56 1518.27 Q2318.64 1522.85 2318.64 1531.6 Q2318.64 1540.33 2315.56 1544.94 Q2312.5 1549.52 2306.69 1549.52 Q2300.88 1549.52 2297.8 1544.94 Q2294.75 1540.33 2294.75 1531.6 Q2294.75 1522.85 2297.8 1518.27 Q2300.88 1513.66 2306.69 1513.66 Z" fill="#000000" fill-rule="nonzero" fill-opacity="1" /><polyline clip-path="url(#clip540)" style="stroke:#000000; stroke-linecap:round; stroke-linejoin:round; stroke-width:4; stroke-opacity:1; fill:none" points="193.936,1486.45 193.936,47.2441 "/>
<polyline clip-path="url(#clip540)" style="stroke:#000000; stroke-linecap:round; stroke-linejoin:round; stroke-width:4; stroke-opacity:1; fill:none" points="193.936,1356.53 212.834,1356.53 "/>
<polyline clip-path="url(#clip540)" style="stroke:#000000; stroke-linecap:round; stroke-linejoin:round; stroke-width:4; stroke-opacity:1; fill:none" points="193.936,1160.36 212.834,1160.36 "/>
<polyline clip-path="url(#clip540)" style="stroke:#000000; stroke-linecap:round; stroke-linejoin:round; stroke-width:4; stroke-opacity:1; fill:none" points="193.936,964.183 212.834,964.183 "/>
<polyline clip-path="url(#clip540)" style="stroke:#000000; stroke-linecap:round; stroke-linejoin:round; stroke-width:4; stroke-opacity:1; fill:none" points="193.936,768.008 212.834,768.008 "/>
<polyline clip-path="url(#clip540)" style="stroke:#000000; stroke-linecap:round; stroke-linejoin:round; stroke-width:4; stroke-opacity:1; fill:none" points="193.936,571.833 212.834,571.833 "/>
<polyline clip-path="url(#clip540)" style="stroke:#000000; stroke-linecap:round; stroke-linejoin:round; stroke-width:4; stroke-opacity:1; fill:none" points="193.936,375.659 212.834,375.659 "/>
<polyline clip-path="url(#clip540)" style="stroke:#000000; stroke-linecap:round; stroke-linejoin:round; stroke-width:4; stroke-opacity:1; fill:none" points="193.936,179.484 212.834,179.484 "/>
<path clip-path="url(#clip540)" d="M51.9875 1356.98 L81.6633 1356.98 L81.6633 1360.92 L51.9875 1360.92 L51.9875 1356.98 Z" fill="#000000" fill-rule="nonzero" fill-opacity="1" /><path clip-path="url(#clip540)" d="M92.566 1369.88 L100.205 1369.88 L100.205 1343.51 L91.8947 1345.18 L91.8947 1340.92 L100.159 1339.25 L104.834 1339.25 L104.834 1369.88 L112.473 1369.88 L112.473 1373.81 L92.566 1373.81 L92.566 1369.88 Z" fill="#000000" fill-rule="nonzero" fill-opacity="1" /><path clip-path="url(#clip540)" d="M121.918 1367.93 L126.802 1367.93 L126.802 1373.81 L121.918 1373.81 L121.918 1367.93 Z" fill="#000000" fill-rule="nonzero" fill-opacity="1" /><path clip-path="url(#clip540)" d="M137.033 1339.25 L155.39 1339.25 L155.39 1343.19 L141.316 1343.19 L141.316 1351.66 Q142.334 1351.31 143.353 1351.15 Q144.371 1350.97 145.39 1350.97 Q151.177 1350.97 154.556 1354.14 Q157.936 1357.31 157.936 1362.72 Q157.936 1368.3 154.464 1371.4 Q150.992 1374.48 144.672 1374.48 Q142.496 1374.48 140.228 1374.11 Q137.982 1373.74 135.575 1373 L135.575 1368.3 Q137.658 1369.44 139.881 1369.99 Q142.103 1370.55 144.58 1370.55 Q148.584 1370.55 150.922 1368.44 Q153.26 1366.34 153.26 1362.72 Q153.26 1359.11 150.922 1357.01 Q148.584 1354.9 144.58 1354.9 Q142.705 1354.9 140.83 1355.32 Q138.978 1355.73 137.033 1356.61 L137.033 1339.25 Z" fill="#000000" fill-rule="nonzero" fill-opacity="1" /><path clip-path="url(#clip540)" d="M50.9921 1160.81 L80.6679 1160.81 L80.6679 1164.74 L50.9921 1164.74 L50.9921 1160.81 Z" fill="#000000" fill-rule="nonzero" fill-opacity="1" /><path clip-path="url(#clip540)" d="M91.5706 1173.7 L99.2095 1173.7 L99.2095 1147.34 L90.8993 1149 L90.8993 1144.74 L99.1632 1143.08 L103.839 1143.08 L103.839 1173.7 L111.478 1173.7 L111.478 1177.64 L91.5706 1177.64 L91.5706 1173.7 Z" fill="#000000" fill-rule="nonzero" fill-opacity="1" /><path clip-path="url(#clip540)" d="M120.922 1171.76 L125.807 1171.76 L125.807 1177.64 L120.922 1177.64 L120.922 1171.76 Z" fill="#000000" fill-rule="nonzero" fill-opacity="1" /><path clip-path="url(#clip540)" d="M145.992 1146.16 Q142.381 1146.16 140.552 1149.72 Q138.746 1153.26 138.746 1160.39 Q138.746 1167.5 140.552 1171.06 Q142.381 1174.61 145.992 1174.61 Q149.626 1174.61 151.431 1171.06 Q153.26 1167.5 153.26 1160.39 Q153.26 1153.26 151.431 1149.72 Q149.626 1146.16 145.992 1146.16 M145.992 1142.45 Q151.802 1142.45 154.857 1147.06 Q157.936 1151.64 157.936 1160.39 Q157.936 1169.12 154.857 1173.73 Q151.802 1178.31 145.992 1178.31 Q140.181 1178.31 137.103 1173.73 Q134.047 1169.12 134.047 1160.39 Q134.047 1151.64 137.103 1147.06 Q140.181 1142.45 145.992 1142.45 Z" fill="#000000" fill-rule="nonzero" fill-opacity="1" /><path clip-path="url(#clip540)" d="M51.9875 964.634 L81.6633 964.634 L81.6633 968.569 L51.9875 968.569 L51.9875 964.634 Z" fill="#000000" fill-rule="nonzero" fill-opacity="1" /><path clip-path="url(#clip540)" d="M101.756 949.981 Q98.1447 949.981 96.316 953.546 Q94.5104 957.088 94.5104 964.217 Q94.5104 971.324 96.316 974.889 Q98.1447 978.43 101.756 978.43 Q105.39 978.43 107.196 974.889 Q109.024 971.324 109.024 964.217 Q109.024 957.088 107.196 953.546 Q105.39 949.981 101.756 949.981 M101.756 946.278 Q107.566 946.278 110.621 950.884 Q113.7 955.468 113.7 964.217 Q113.7 972.944 110.621 977.551 Q107.566 982.134 101.756 982.134 Q95.9456 982.134 92.8669 977.551 Q89.8114 972.944 89.8114 964.217 Q89.8114 955.468 92.8669 950.884 Q95.9456 946.278 101.756 946.278 Z" fill="#000000" fill-rule="nonzero" fill-opacity="1" /><path clip-path="url(#clip540)" d="M121.918 975.583 L126.802 975.583 L126.802 981.463 L121.918 981.463 L121.918 975.583 Z" fill="#000000" fill-rule="nonzero" fill-opacity="1" /><path clip-path="url(#clip540)" d="M137.033 946.903 L155.39 946.903 L155.39 950.838 L141.316 950.838 L141.316 959.31 Q142.334 958.963 143.353 958.801 Q144.371 958.616 145.39 958.616 Q151.177 958.616 154.556 961.787 Q157.936 964.958 157.936 970.375 Q157.936 975.954 154.464 979.055 Q150.992 982.134 144.672 982.134 Q142.496 982.134 140.228 981.764 Q137.982 981.393 135.575 980.653 L135.575 975.954 Q137.658 977.088 139.881 977.643 Q142.103 978.199 144.58 978.199 Q148.584 978.199 150.922 976.092 Q153.26 973.986 153.26 970.375 Q153.26 966.764 150.922 964.657 Q148.584 962.551 144.58 962.551 Q142.705 962.551 140.83 962.967 Q138.978 963.384 137.033 964.264 L137.033 946.903 Z" fill="#000000" fill-rule="nonzero" fill-opacity="1" /><path clip-path="url(#clip540)" d="M100.76 753.807 Q97.1493 753.807 95.3206 757.372 Q93.515 760.913 93.515 768.043 Q93.515 775.149 95.3206 778.714 Q97.1493 782.256 100.76 782.256 Q104.395 782.256 106.2 778.714 Q108.029 775.149 108.029 768.043 Q108.029 760.913 106.2 757.372 Q104.395 753.807 100.76 753.807 M100.76 750.103 Q106.571 750.103 109.626 754.71 Q112.705 759.293 112.705 768.043 Q112.705 776.77 109.626 781.376 Q106.571 785.959 100.76 785.959 Q94.9502 785.959 91.8715 781.376 Q88.816 776.77 88.816 768.043 Q88.816 759.293 91.8715 754.71 Q94.9502 750.103 100.76 750.103 Z" fill="#000000" fill-rule="nonzero" fill-opacity="1" /><path clip-path="url(#clip540)" d="M120.922 779.408 L125.807 779.408 L125.807 785.288 L120.922 785.288 L120.922 779.408 Z" fill="#000000" fill-rule="nonzero" fill-opacity="1" /><path clip-path="url(#clip540)" d="M145.992 753.807 Q142.381 753.807 140.552 757.372 Q138.746 760.913 138.746 768.043 Q138.746 775.149 140.552 778.714 Q142.381 782.256 145.992 782.256 Q149.626 782.256 151.431 778.714 Q153.26 775.149 153.26 768.043 Q153.26 760.913 151.431 757.372 Q149.626 753.807 145.992 753.807 M145.992 750.103 Q151.802 750.103 154.857 754.71 Q157.936 759.293 157.936 768.043 Q157.936 776.77 154.857 781.376 Q151.802 785.959 145.992 785.959 Q140.181 785.959 137.103 781.376 Q134.047 776.77 134.047 768.043 Q134.047 759.293 137.103 754.71 Q140.181 750.103 145.992 750.103 Z" fill="#000000" fill-rule="nonzero" fill-opacity="1" /><path clip-path="url(#clip540)" d="M101.756 557.632 Q98.1447 557.632 96.316 561.197 Q94.5104 564.738 94.5104 571.868 Q94.5104 578.974 96.316 582.539 Q98.1447 586.081 101.756 586.081 Q105.39 586.081 107.196 582.539 Q109.024 578.974 109.024 571.868 Q109.024 564.738 107.196 561.197 Q105.39 557.632 101.756 557.632 M101.756 553.928 Q107.566 553.928 110.621 558.535 Q113.7 563.118 113.7 571.868 Q113.7 580.595 110.621 585.201 Q107.566 589.785 101.756 589.785 Q95.9456 589.785 92.8669 585.201 Q89.8114 580.595 89.8114 571.868 Q89.8114 563.118 92.8669 558.535 Q95.9456 553.928 101.756 553.928 Z" fill="#000000" fill-rule="nonzero" fill-opacity="1" /><path clip-path="url(#clip540)" d="M121.918 583.234 L126.802 583.234 L126.802 589.113 L121.918 589.113 L121.918 583.234 Z" fill="#000000" fill-rule="nonzero" fill-opacity="1" /><path clip-path="url(#clip540)" d="M137.033 554.553 L155.39 554.553 L155.39 558.488 L141.316 558.488 L141.316 566.961 Q142.334 566.613 143.353 566.451 Q144.371 566.266 145.39 566.266 Q151.177 566.266 154.556 569.438 Q157.936 572.609 157.936 578.025 Q157.936 583.604 154.464 586.706 Q150.992 589.785 144.672 589.785 Q142.496 589.785 140.228 589.414 Q137.982 589.044 135.575 588.303 L135.575 583.604 Q137.658 584.738 139.881 585.294 Q142.103 585.849 144.58 585.849 Q148.584 585.849 150.922 583.743 Q153.26 581.637 153.26 578.025 Q153.26 574.414 150.922 572.308 Q148.584 570.201 144.58 570.201 Q142.705 570.201 140.83 570.618 Q138.978 571.035 137.033 571.914 L137.033 554.553 Z" fill="#000000" fill-rule="nonzero" fill-opacity="1" /><path clip-path="url(#clip540)" d="M91.5706 389.003 L99.2095 389.003 L99.2095 362.638 L90.8993 364.305 L90.8993 360.045 L99.1632 358.379 L103.839 358.379 L103.839 389.003 L111.478 389.003 L111.478 392.939 L91.5706 392.939 L91.5706 389.003 Z" fill="#000000" fill-rule="nonzero" fill-opacity="1" /><path clip-path="url(#clip540)" d="M120.922 387.059 L125.807 387.059 L125.807 392.939 L120.922 392.939 L120.922 387.059 Z" fill="#000000" fill-rule="nonzero" fill-opacity="1" /><path clip-path="url(#clip540)" d="M145.992 361.457 Q142.381 361.457 140.552 365.022 Q138.746 368.564 138.746 375.693 Q138.746 382.8 140.552 386.365 Q142.381 389.906 145.992 389.906 Q149.626 389.906 151.431 386.365 Q153.26 382.8 153.26 375.693 Q153.26 368.564 151.431 365.022 Q149.626 361.457 145.992 361.457 M145.992 357.754 Q151.802 357.754 154.857 362.36 Q157.936 366.943 157.936 375.693 Q157.936 384.42 154.857 389.027 Q151.802 393.61 145.992 393.61 Q140.181 393.61 137.103 389.027 Q134.047 384.42 134.047 375.693 Q134.047 366.943 137.103 362.36 Q140.181 357.754 145.992 357.754 Z" fill="#000000" fill-rule="nonzero" fill-opacity="1" /><path clip-path="url(#clip540)" d="M92.566 192.829 L100.205 192.829 L100.205 166.463 L91.8947 168.13 L91.8947 163.871 L100.159 162.204 L104.834 162.204 L104.834 192.829 L112.473 192.829 L112.473 196.764 L92.566 196.764 L92.566 192.829 Z" fill="#000000" fill-rule="nonzero" fill-opacity="1" /><path clip-path="url(#clip540)" d="M121.918 190.884 L126.802 190.884 L126.802 196.764 L121.918 196.764 L121.918 190.884 Z" fill="#000000" fill-rule="nonzero" fill-opacity="1" /><path clip-path="url(#clip540)" d="M137.033 162.204 L155.39 162.204 L155.39 166.139 L141.316 166.139 L141.316 174.611 Q142.334 174.264 143.353 174.102 Q144.371 173.917 145.39 173.917 Q151.177 173.917 154.556 177.088 Q157.936 180.259 157.936 185.676 Q157.936 191.255 154.464 194.357 Q150.992 197.435 144.672 197.435 Q142.496 197.435 140.228 197.065 Q137.982 196.694 135.575 195.954 L135.575 191.255 Q137.658 192.389 139.881 192.944 Q142.103 193.5 144.58 193.5 Q148.584 193.5 150.922 191.394 Q153.26 189.287 153.26 185.676 Q153.26 182.065 150.922 179.958 Q148.584 177.852 144.58 177.852 Q142.705 177.852 140.83 178.269 Q138.978 178.685 137.033 179.565 L137.033 162.204 Z" fill="#000000" fill-rule="nonzero" fill-opacity="1" /><path clip-path="url(#clip542)" d="M255.035 1247.99 L280.815 1242.91 L306.595 1226.93 L332.375 1093.41 L358.155 1110.71 L383.935 1070.38 L409.715 1094.6 L435.495 1141.39 L461.275 1066.67 L487.055 1026.39 L512.835 1025.56 L538.615 998.009 L564.395 976.387 L590.175 915.015 L615.955 859.142 L641.735 837.176 L667.515 816.71 L693.295 759.614 L719.075 673.365 L744.855 704.382 L770.635 613.199 L796.415 567.955 L822.195 552.209 L847.975 527.979 L873.755 515.329 L899.535 498.665 L925.316 529.517 L951.096 531.28 L976.876 539.551 L1002.66 609.528 L1028.44 602.383 L1054.22 673.404 L1080 855.443 L1105.78 905.746 L1131.56 909.653 L1157.34 961.306 L1183.12 997.618 L1208.9 1045.7 L1234.68 1092.79 L1260.46 1110.63 L1286.24 1155.99 L1312.02 1151 L1337.8 1157.49 L1363.58 1083.35 L1389.36 1102.66 L1415.14 1183.84 L1440.92 1213.97 L1466.7 1206.97 L1492.48 1262.44 L1518.26 1315.35 L1544.04 1368.85 L1569.82 1419.72 L1595.6 1400.13 L1621.38 1445.72 L1647.16 1429.14 L1672.94 1397.51 L1698.72 1425.47 L1724.5 1384.2 L1750.28 1371.28 L1776.06 1281 L1801.84 1251.23 L1827.62 1126.33 L1853.4 1076.35 L1879.18 1001.93 L1904.96 954.745 L1930.74 934.89 L1956.52 884.632 L1982.3 847.506 L2008.08 750.867 L2033.86 769.973 L2059.64 679.498 L2085.42 658.56 L2111.2 637.448 L2136.98 631.253 L2162.76 651.288 L2188.54 605.183 L2214.32 616.923 L2240.1 580.022 L2265.88 574.381 L2291.66 688.27 L2291.66 227.847 L2265.88 112.085 L2240.1 118.201 L2214.32 175.112 L2188.54 165.141 L2162.76 222.159 L2136.98 211.16 L2111.2 240.808 L2085.42 260.963 L2059.64 317.197 L2033.86 417.974 L2008.08 394.688 L1982.3 489.648 L1956.52 514.558 L1930.74 591.175 L1904.96 614.181 L1879.18 673.702 L1853.4 766.19 L1827.62 813.375 L1801.84 951.178 L1776.06 1006.76 L1750.28 1093.97 L1724.5 1107.54 L1698.72 1151.46 L1672.94 1103.53 L1647.16 1111.69 L1621.38 1102.6 L1595.6 1070.69 L1569.82 1102.49 L1544.04 1040.6 L1518.26 989.917 L1492.48 967.968 L1466.7 913.13 L1440.92 905.304 L1415.14 867.304 L1389.36 791.685 L1363.58 800.967 L1337.8 854.128 L1312.02 816.333 L1286.24 820.91 L1260.46 766.692 L1234.68 722.164 L1208.9 687.762 L1183.12 619.097 L1157.34 598.246 L1131.56 540.647 L1105.78 549.872 L1080 490.369 L1054.22 331.907 L1028.44 247.994 L1002.66 251.657 L976.876 176.603 L951.096 140.266 L925.316 116.812 L899.535 87.9763 L873.755 104.498 L847.975 113.412 L822.195 137.142 L796.415 162.704 L770.635 228.024 L744.855 324.241 L719.075 304.433 L693.295 388.962 L667.515 420.421 L641.735 407.947 L615.955 411.577 L590.175 437.925 L564.395 496.581 L538.615 513.295 L512.835 550.209 L487.055 555.848 L461.275 599.055 L435.495 649.034 L409.715 559.974 L383.935 506.417 L358.155 510.221 L332.375 458.638 L306.595 538.896 L280.815 519.943 L255.035 511.458  Z" fill="#009af9" fill-rule="evenodd" fill-opacity="0.5"/>
<polyline clip-path="url(#clip542)" style="stroke:#009af9; stroke-linecap:round; stroke-linejoin:round; stroke-width:4; stroke-opacity:1; fill:none" points="255.035,879.723 280.815,881.425 306.595,882.912 332.375,776.026 358.155,810.465 383.935,788.399 409.715,827.286 435.495,895.213 461.275,832.862 487.055,791.12 512.835,787.883 538.615,755.652 564.395,736.484 590.175,676.47 615.955,635.359 641.735,622.562 667.515,618.566 693.295,574.288 719.075,488.899 744.855,514.311 770.635,420.611 796.415,365.329 822.195,344.676 847.975,320.696 873.755,309.914 899.535,293.321 925.316,323.164 951.096,335.773 976.876,358.077 1002.66,430.592 1028.44,425.189 1054.22,502.655 1080,672.906 1105.78,727.809 1131.56,725.15 1157.34,779.776 1183.12,808.358 1208.9,866.732 1234.68,907.477 1260.46,938.663 1286.24,988.451 1312.02,983.665 1337.8,1005.81 1363.58,942.157 1389.36,947.172 1415.14,1025.57 1440.92,1059.64 1466.7,1060.05 1492.48,1115.21 1518.26,1152.63 1544.04,1204.73 1569.82,1261.11 1595.6,1235.41 1621.38,1274.16 1647.16,1270.42 1672.94,1250.52 1698.72,1288.46 1724.5,1245.87 1750.28,1232.62 1776.06,1143.88 1801.84,1101.2 1827.62,969.852 1853.4,921.27 1879.18,837.814 1904.96,784.463 1930.74,763.032 1956.52,699.595 1982.3,668.577 2008.08,572.777 2033.86,593.973 2059.64,498.348 2085.42,459.761 2111.2,439.128 2136.98,421.206 2162.76,436.723 2188.54,385.162 2214.32,396.017 2240.1,349.112 2265.88,343.233 2291.66,458.058 "/>
<path clip-path="url(#clip542)" d="M255.035 980.116 L280.815 988.578 L306.595 974.726 L332.375 959.768 L358.155 954.492 L383.935 936.096 L409.715 932.748 L435.495 926.766 L461.275 965.014 L487.055 1009.82 L512.835 1025.81 L538.615 1061.53 L564.395 1077.95 L590.175 1082.1 L615.955 1086.76 L641.735 1048.53 L667.515 1009.42 L693.295 976.988 L719.075 931.301 L744.855 897.799 L770.635 865.96 L796.415 855.666 L822.195 836.854 L847.975 806.777 L873.755 782.513 L899.535 754.692 L925.316 698.708 L951.096 650.501 L976.876 594.398 L1002.66 527.087 L1028.44 449.609 L1054.22 402.553 L1080 375.963 L1105.78 401.136 L1131.56 441.55 L1157.34 448.853 L1183.12 453.415 L1208.9 447.416 L1234.68 477.156 L1260.46 510.418 L1286.24 559.649 L1312.02 583.555 L1337.8 605.722 L1363.58 637.662 L1389.36 680.316 L1415.14 699.835 L1440.92 714.057 L1466.7 717.451 L1492.48 752.826 L1518.26 783.159 L1544.04 838.54 L1569.82 916.579 L1595.6 966.295 L1621.38 1007.37 L1647.16 1053.68 L1672.94 1087.24 L1698.72 1145.27 L1724.5 1210.97 L1750.28 1277.49 L1776.06 1335.58 L1801.84 1337.02 L1827.62 1339.15 L1853.4 1346 L1879.18 1360.12 L1904.96 1376.29 L1930.74 1379.26 L1956.52 1341.89 L1982.3 1329.32 L2008.08 1316.94 L2033.86 1297.41 L2059.64 1282.94 L2085.42 1262.16 L2111.2 1228 L2136.98 1190.42 L2162.76 1200.71 L2188.54 1177.61 L2214.32 1164.66 L2240.1 1129.21 L2265.88 1069.81 L2291.66 1055.48 L2291.66 849.988 L2265.88 900.646 L2240.1 951.305 L2214.32 977.482 L2188.54 1003.26 L2162.76 1037.63 L2136.98 1031.96 L2111.2 1076.67 L2085.42 1120.03 L2059.64 1154.96 L2033.86 1164.8 L2008.08 1156.95 L1982.3 1154.74 L1956.52 1175.04 L1930.74 1190.7 L1904.96 1216.88 L1879.18 1194.06 L1853.4 1189.63 L1827.62 1193.86 L1801.84 1199.67 L1776.06 1185.87 L1750.28 1128.36 L1724.5 1064.72 L1698.72 994.651 L1672.94 942.955 L1647.16 899.693 L1621.38 845.167 L1595.6 821.151 L1569.82 761.593 L1544.04 690.189 L1518.26 634.108 L1492.48 614.137 L1466.7 580.878 L1440.92 562.17 L1415.14 564.121 L1389.36 535.087 L1363.58 498.454 L1337.8 449.761 L1312.02 437.232 L1286.24 399.835 L1260.46 363.596 L1234.68 338.041 L1208.9 312.822 L1183.12 299.455 L1157.34 285.106 L1131.56 287.402 L1105.78 236.684 L1080 226.865 L1054.22 247.261 L1028.44 282.94 L1002.66 338.44 L976.876 413.158 L951.096 468.227 L925.316 505.092 L899.535 563.008 L873.755 620.154 L847.975 652.71 L822.195 686.625 L796.415 693.653 L770.635 717.088 L744.855 738.492 L719.075 773.207 L693.295 817.2 L667.515 847.3 L641.735 876.423 L615.955 922.613 L590.175 923.857 L564.395 897.792 L538.615 893.682 L512.835 865.962 L487.055 850.455 L461.275 803.932 L435.495 770.335 L409.715 771.471 L383.935 789.245 L358.155 798.328 L332.375 802.989 L306.595 819.759 L280.815 822.273 L255.035 776.104  Z" fill="#e26f46" fill-rule="evenodd" fill-opacity="0.5"/>
<polyline clip-path="url(#clip542)" style="stroke:#e26f46; stroke-linecap:round; stroke-linejoin:round; stroke-width:4; stroke-opacity:1; fill:none" points="255.035,878.11 280.815,905.425 306.595,897.242 332.375,881.379 358.155,876.41 383.935,862.671 409.715,852.11 435.495,848.551 461.275,884.473 487.055,930.138 512.835,945.887 538.615,977.604 564.395,987.869 590.175,1002.98 615.955,1004.69 641.735,962.477 667.515,928.359 693.295,897.094 719.075,852.254 744.855,818.145 770.635,791.524 796.415,774.659 822.195,761.739 847.975,729.744 873.755,701.334 899.535,658.85 925.316,601.9 951.096,559.364 976.876,503.778 1002.66,432.764 1028.44,366.275 1054.22,324.907 1080,301.414 1105.78,318.91 1131.56,364.476 1157.34,366.98 1183.12,376.435 1208.9,380.119 1234.68,407.598 1260.46,437.007 1286.24,479.742 1312.02,510.393 1337.8,527.742 1363.58,568.058 1389.36,607.701 1415.14,631.978 1440.92,638.113 1466.7,649.164 1492.48,683.481 1518.26,708.633 1544.04,764.365 1569.82,839.086 1595.6,893.723 1621.38,926.268 1647.16,976.689 1672.94,1015.1 1698.72,1069.96 1724.5,1137.85 1750.28,1202.93 1776.06,1260.72 1801.84,1268.34 1827.62,1266.51 1853.4,1267.82 1879.18,1277.09 1904.96,1296.59 1930.74,1284.98 1956.52,1258.47 1982.3,1242.03 2008.08,1236.94 2033.86,1231.11 2059.64,1218.95 2085.42,1191.1 2111.2,1152.34 2136.98,1111.19 2162.76,1119.17 2188.54,1090.43 2214.32,1071.07 2240.1,1040.26 2265.88,985.228 2291.66,952.734 "/>
<polyline clip-path="url(#clip542)" style="stroke:#3da44d; stroke-linecap:round; stroke-linejoin:round; stroke-width:4; stroke-opacity:1; fill:none" stroke-dasharray="16, 10" points="255.035,737.632 280.815,831.592 306.595,799.525 332.375,692.086 358.155,689.907 383.935,647.498 409.715,736.219 435.495,826.431 461.275,808.344 487.055,814.324 512.835,783.851 538.615,769.891 564.395,704.972 590.175,565.896 615.955,547.365 641.735,509.112 667.515,502.345 693.295,430.16 719.075,351.443 744.855,298.97 770.635,222.923 796.415,141.773 822.195,198.905 847.975,166.237 873.755,179.419 899.535,174.348 925.316,213.959 951.096,209.09 976.876,280.067 1002.66,386.32 1028.44,468.677 1054.22,569.536 1080,710.844 1105.78,785.752 1131.56,786.707 1157.34,823.429 1183.12,865.978 1208.9,908.64 1234.68,903.197 1260.46,935.277 1286.24,996.64 1312.02,1019.85 1337.8,1004.17 1363.58,908.268 1389.36,918.465 1415.14,977.522 1440.92,968.67 1466.7,976.91 1492.48,1001.09 1518.26,1078.22 1544.04,1110.67 1569.82,1179.73 1595.6,1094.09 1621.38,1153.4 1647.16,1213.35 1672.94,1208.04 1698.72,1222.27 1724.5,1200.7 1750.28,1110.69 1776.06,981.186 1801.84,947.043 1827.62,808.199 1853.4,761.145 1879.18,704.097 1904.96,667.633 1930.74,667.835 1956.52,621.046 1982.3,601.519 2008.08,478.77 2033.86,493.342 2059.64,403.822 2085.42,331.225 2111.2,367.493 2136.98,411.637 2162.76,336.426 2188.54,332.497 2214.32,311.382 2240.1,268.439 2265.88,237.865 2291.66,403.811 "/>
<polyline clip-path="url(#clip542)" style="stroke:#c271d2; stroke-linecap:round; stroke-linejoin:round; stroke-width:4; stroke-opacity:1; fill:none" stroke-dasharray="16, 10" points="255.035,835.982 280.815,908.88 306.595,903.124 332.375,899.858 358.155,892.312 383.935,911.552 409.715,855.329 435.495,827.765 461.275,873.668 487.055,917.911 512.835,907.569 538.615,918.047 564.395,936.587 590.175,1000.05 615.955,992.105 641.735,953.427 667.515,909.104 693.295,897.61 719.075,796.192 744.855,758.565 770.635,732.29 796.415,707.905 822.195,698.851 847.975,714.902 873.755,688.089 899.535,675.754 925.316,624.195 951.096,606.809 976.876,586.149 1002.66,484.893 1028.44,476.291 1054.22,388.857 1080,287.405 1105.78,294.646 1131.56,354.844 1157.34,353.204 1183.12,365.444 1208.9,385.486 1234.68,382.895 1260.46,447.169 1286.24,520.132 1312.02,570.394 1337.8,556.191 1363.58,591.562 1389.36,640.954 1415.14,654.635 1440.92,636.884 1466.7,658.854 1492.48,637.793 1518.26,659.293 1544.04,719.482 1569.82,816.236 1595.6,894.162 1621.38,1010.78 1647.16,997.767 1672.94,998.313 1698.72,1061.77 1724.5,1129.9 1750.28,1217.32 1776.06,1320.79 1801.84,1280.91 1827.62,1277.22 1853.4,1239.19 1879.18,1278.11 1904.96,1261.34 1930.74,1259.04 1956.52,1294.81 1982.3,1248.66 2008.08,1242.66 2033.86,1300.19 2059.64,1264.9 2085.42,1189.61 2111.2,1153.6 2136.98,1131.29 2162.76,1172.22 2188.54,1114.72 2214.32,1071.38 2240.1,967.801 2265.88,899.015 2291.66,907.833 "/>
<path clip-path="url(#clip540)" d="M265.897 1438.47 L721.546 1438.47 L721.546 1179.27 L265.897 1179.27  Z" fill="#ffffff" fill-rule="evenodd" fill-opacity="1"/>
<polyline clip-path="url(#clip540)" style="stroke:#000000; stroke-linecap:round; stroke-linejoin:round; stroke-width:4; stroke-opacity:1; fill:none" points="265.897,1438.47 721.546,1438.47 721.546,1179.27 265.897,1179.27 265.897,1438.47 "/>
<polyline clip-path="url(#clip540)" style="stroke:#009af9; stroke-linecap:round; stroke-linejoin:round; stroke-width:4; stroke-opacity:1; fill:none" points="289.884,1231.11 433.805,1231.11 "/>
<path clip-path="url(#clip540)" d="M462.468 1217.68 L462.468 1230.66 L468.347 1230.66 Q471.611 1230.66 473.394 1228.97 Q475.176 1227.28 475.176 1224.16 Q475.176 1221.06 473.394 1219.37 Q471.611 1217.68 468.347 1217.68 L462.468 1217.68 M457.792 1213.83 L468.347 1213.83 Q474.157 1213.83 477.12 1216.47 Q480.106 1219.09 480.106 1224.16 Q480.106 1229.27 477.12 1231.89 Q474.157 1234.51 468.347 1234.51 L462.468 1234.51 L462.468 1248.39 L457.792 1248.39 L457.792 1213.83 Z" fill="#000000" fill-rule="nonzero" fill-opacity="1" /><path clip-path="url(#clip540)" d="M486.38 1213.83 L506.241 1213.83 L506.241 1217.77 L491.055 1217.77 L491.055 1227.95 L504.759 1227.95 L504.759 1231.89 L491.055 1231.89 L491.055 1248.39 L486.38 1248.39 L486.38 1213.83 Z" fill="#000000" fill-rule="nonzero" fill-opacity="1" /><path clip-path="url(#clip540)" d="M545.06 1223.23 L545.06 1227.26 Q543.254 1226.33 541.31 1225.87 Q539.365 1225.41 537.282 1225.41 Q534.111 1225.41 532.514 1226.38 Q530.94 1227.35 530.94 1229.3 Q530.94 1230.78 532.074 1231.64 Q533.208 1232.47 536.634 1233.23 L538.092 1233.56 Q542.629 1234.53 544.527 1236.31 Q546.449 1238.07 546.449 1241.24 Q546.449 1244.85 543.578 1246.96 Q540.731 1249.07 535.731 1249.07 Q533.648 1249.07 531.379 1248.65 Q529.134 1248.26 526.634 1247.45 L526.634 1243.05 Q528.995 1244.27 531.287 1244.9 Q533.578 1245.5 535.824 1245.5 Q538.833 1245.5 540.453 1244.48 Q542.074 1243.44 542.074 1241.57 Q542.074 1239.83 540.893 1238.9 Q539.736 1237.98 535.777 1237.12 L534.296 1236.77 Q530.338 1235.94 528.578 1234.23 Q526.819 1232.49 526.819 1229.48 Q526.819 1225.83 529.412 1223.83 Q532.004 1221.84 536.773 1221.84 Q539.134 1221.84 541.217 1222.19 Q543.301 1222.54 545.06 1223.23 Z" fill="#000000" fill-rule="nonzero" fill-opacity="1" /><path clip-path="url(#clip540)" d="M573.416 1227.45 Q575.013 1224.58 577.236 1223.21 Q579.458 1221.84 582.467 1221.84 Q586.518 1221.84 588.717 1224.69 Q590.916 1227.51 590.916 1232.75 L590.916 1248.39 L586.634 1248.39 L586.634 1232.89 Q586.634 1229.16 585.314 1227.35 Q583.995 1225.55 581.286 1225.55 Q577.976 1225.55 576.055 1227.75 Q574.134 1229.95 574.134 1233.74 L574.134 1248.39 L569.851 1248.39 L569.851 1232.89 Q569.851 1229.14 568.532 1227.35 Q567.212 1225.55 564.458 1225.55 Q561.194 1225.55 559.273 1227.77 Q557.351 1229.97 557.351 1233.74 L557.351 1248.39 L553.069 1248.39 L553.069 1222.47 L557.351 1222.47 L557.351 1226.5 Q558.81 1224.11 560.847 1222.98 Q562.884 1221.84 565.685 1221.84 Q568.509 1221.84 570.476 1223.28 Q572.467 1224.71 573.416 1227.45 Z" fill="#000000" fill-rule="nonzero" fill-opacity="1" /><path clip-path="url(#clip540)" d="M609.458 1225.45 Q606.032 1225.45 604.041 1228.14 Q602.05 1230.8 602.05 1235.45 Q602.05 1240.11 604.018 1242.79 Q606.009 1245.45 609.458 1245.45 Q612.86 1245.45 614.851 1242.77 Q616.842 1240.08 616.842 1235.45 Q616.842 1230.85 614.851 1228.16 Q612.86 1225.45 609.458 1225.45 M609.458 1221.84 Q615.013 1221.84 618.184 1225.45 Q621.356 1229.07 621.356 1235.45 Q621.356 1241.82 618.184 1245.45 Q615.013 1249.07 609.458 1249.07 Q603.879 1249.07 600.708 1245.45 Q597.56 1241.82 597.56 1235.45 Q597.56 1229.07 600.708 1225.45 Q603.879 1221.84 609.458 1221.84 Z" fill="#000000" fill-rule="nonzero" fill-opacity="1" /><path clip-path="url(#clip540)" d="M638.462 1225.45 Q635.036 1225.45 633.045 1228.14 Q631.055 1230.8 631.055 1235.45 Q631.055 1240.11 633.022 1242.79 Q635.013 1245.45 638.462 1245.45 Q641.865 1245.45 643.856 1242.77 Q645.846 1240.08 645.846 1235.45 Q645.846 1230.85 643.856 1228.16 Q641.865 1225.45 638.462 1225.45 M638.462 1221.84 Q644.018 1221.84 647.189 1225.45 Q650.36 1229.07 650.36 1235.45 Q650.36 1241.82 647.189 1245.45 Q644.018 1249.07 638.462 1249.07 Q632.883 1249.07 629.712 1245.45 Q626.564 1241.82 626.564 1235.45 Q626.564 1229.07 629.712 1225.45 Q632.883 1221.84 638.462 1221.84 Z" fill="#000000" fill-rule="nonzero" fill-opacity="1" /><path clip-path="url(#clip540)" d="M661.633 1215.11 L661.633 1222.47 L670.406 1222.47 L670.406 1225.78 L661.633 1225.78 L661.633 1239.85 Q661.633 1243.02 662.49 1243.93 Q663.369 1244.83 666.031 1244.83 L670.406 1244.83 L670.406 1248.39 L666.031 1248.39 Q661.101 1248.39 659.226 1246.57 Q657.351 1244.71 657.351 1239.85 L657.351 1225.78 L654.226 1225.78 L654.226 1222.47 L657.351 1222.47 L657.351 1215.11 L661.633 1215.11 Z" fill="#000000" fill-rule="nonzero" fill-opacity="1" /><path clip-path="url(#clip540)" d="M697.559 1232.75 L697.559 1248.39 L693.3 1248.39 L693.3 1232.89 Q693.3 1229.2 691.865 1227.38 Q690.429 1225.55 687.559 1225.55 Q684.11 1225.55 682.119 1227.75 Q680.129 1229.95 680.129 1233.74 L680.129 1248.39 L675.846 1248.39 L675.846 1212.38 L680.129 1212.38 L680.129 1226.5 Q681.656 1224.16 683.716 1223 Q685.8 1221.84 688.508 1221.84 Q692.976 1221.84 695.267 1224.62 Q697.559 1227.38 697.559 1232.75 Z" fill="#000000" fill-rule="nonzero" fill-opacity="1" /><polyline clip-path="url(#clip540)" style="stroke:#e26f46; stroke-linecap:round; stroke-linejoin:round; stroke-width:4; stroke-opacity:1; fill:none" points="289.884,1282.95 433.805,1282.95 "/>
<path clip-path="url(#clip540)" d="M462.468 1269.52 L462.468 1282.5 L468.347 1282.5 Q471.611 1282.5 473.394 1280.81 Q475.176 1279.12 475.176 1276 Q475.176 1272.9 473.394 1271.21 Q471.611 1269.52 468.347 1269.52 L462.468 1269.52 M457.792 1265.67 L468.347 1265.67 Q474.157 1265.67 477.12 1268.31 Q480.106 1270.93 480.106 1276 Q480.106 1281.11 477.12 1283.73 Q474.157 1286.35 468.347 1286.35 L462.468 1286.35 L462.468 1300.23 L457.792 1300.23 L457.792 1265.67 Z" fill="#000000" fill-rule="nonzero" fill-opacity="1" /><path clip-path="url(#clip540)" d="M486.38 1265.67 L506.241 1265.67 L506.241 1269.61 L491.055 1269.61 L491.055 1279.79 L504.759 1279.79 L504.759 1283.73 L491.055 1283.73 L491.055 1300.23 L486.38 1300.23 L486.38 1265.67 Z" fill="#000000" fill-rule="nonzero" fill-opacity="1" /><path clip-path="url(#clip540)" d="M545.06 1275.07 L545.06 1279.1 Q543.254 1278.17 541.31 1277.71 Q539.365 1277.25 537.282 1277.25 Q534.111 1277.25 532.514 1278.22 Q530.94 1279.19 530.94 1281.14 Q530.94 1282.62 532.074 1283.48 Q533.208 1284.31 536.634 1285.07 L538.092 1285.4 Q542.629 1286.37 544.527 1288.15 Q546.449 1289.91 546.449 1293.08 Q546.449 1296.69 543.578 1298.8 Q540.731 1300.91 535.731 1300.91 Q533.648 1300.91 531.379 1300.49 Q529.134 1300.1 526.634 1299.29 L526.634 1294.89 Q528.995 1296.11 531.287 1296.74 Q533.578 1297.34 535.824 1297.34 Q538.833 1297.34 540.453 1296.32 Q542.074 1295.28 542.074 1293.41 Q542.074 1291.67 540.893 1290.74 Q539.736 1289.82 535.777 1288.96 L534.296 1288.61 Q530.338 1287.78 528.578 1286.07 Q526.819 1284.33 526.819 1281.32 Q526.819 1277.67 529.412 1275.67 Q532.004 1273.68 536.773 1273.68 Q539.134 1273.68 541.217 1274.03 Q543.301 1274.38 545.06 1275.07 Z" fill="#000000" fill-rule="nonzero" fill-opacity="1" /><path clip-path="url(#clip540)" d="M573.416 1279.29 Q575.013 1276.42 577.236 1275.05 Q579.458 1273.68 582.467 1273.68 Q586.518 1273.68 588.717 1276.53 Q590.916 1279.35 590.916 1284.59 L590.916 1300.23 L586.634 1300.23 L586.634 1284.73 Q586.634 1281 585.314 1279.19 Q583.995 1277.39 581.286 1277.39 Q577.976 1277.39 576.055 1279.59 Q574.134 1281.79 574.134 1285.58 L574.134 1300.23 L569.851 1300.23 L569.851 1284.73 Q569.851 1280.98 568.532 1279.19 Q567.212 1277.39 564.458 1277.39 Q561.194 1277.39 559.273 1279.61 Q557.351 1281.81 557.351 1285.58 L557.351 1300.23 L553.069 1300.23 L553.069 1274.31 L557.351 1274.31 L557.351 1278.34 Q558.81 1275.95 560.847 1274.82 Q562.884 1273.68 565.685 1273.68 Q568.509 1273.68 570.476 1275.12 Q572.467 1276.55 573.416 1279.29 Z" fill="#000000" fill-rule="nonzero" fill-opacity="1" /><path clip-path="url(#clip540)" d="M609.458 1277.29 Q606.032 1277.29 604.041 1279.98 Q602.05 1282.64 602.05 1287.29 Q602.05 1291.95 604.018 1294.63 Q606.009 1297.29 609.458 1297.29 Q612.86 1297.29 614.851 1294.61 Q616.842 1291.92 616.842 1287.29 Q616.842 1282.69 614.851 1280 Q612.86 1277.29 609.458 1277.29 M609.458 1273.68 Q615.013 1273.68 618.184 1277.29 Q621.356 1280.91 621.356 1287.29 Q621.356 1293.66 618.184 1297.29 Q615.013 1300.91 609.458 1300.91 Q603.879 1300.91 600.708 1297.29 Q597.56 1293.66 597.56 1287.29 Q597.56 1280.91 600.708 1277.29 Q603.879 1273.68 609.458 1273.68 Z" fill="#000000" fill-rule="nonzero" fill-opacity="1" /><path clip-path="url(#clip540)" d="M638.462 1277.29 Q635.036 1277.29 633.045 1279.98 Q631.055 1282.64 631.055 1287.29 Q631.055 1291.95 633.022 1294.63 Q635.013 1297.29 638.462 1297.29 Q641.865 1297.29 643.856 1294.61 Q645.846 1291.92 645.846 1287.29 Q645.846 1282.69 643.856 1280 Q641.865 1277.29 638.462 1277.29 M638.462 1273.68 Q644.018 1273.68 647.189 1277.29 Q650.36 1280.91 650.36 1287.29 Q650.36 1293.66 647.189 1297.29 Q644.018 1300.91 638.462 1300.91 Q632.883 1300.91 629.712 1297.29 Q626.564 1293.66 626.564 1287.29 Q626.564 1280.91 629.712 1277.29 Q632.883 1273.68 638.462 1273.68 Z" fill="#000000" fill-rule="nonzero" fill-opacity="1" /><path clip-path="url(#clip540)" d="M661.633 1266.95 L661.633 1274.31 L670.406 1274.31 L670.406 1277.62 L661.633 1277.62 L661.633 1291.69 Q661.633 1294.86 662.49 1295.77 Q663.369 1296.67 666.031 1296.67 L670.406 1296.67 L670.406 1300.23 L666.031 1300.23 Q661.101 1300.23 659.226 1298.41 Q657.351 1296.55 657.351 1291.69 L657.351 1277.62 L654.226 1277.62 L654.226 1274.31 L657.351 1274.31 L657.351 1266.95 L661.633 1266.95 Z" fill="#000000" fill-rule="nonzero" fill-opacity="1" /><path clip-path="url(#clip540)" d="M697.559 1284.59 L697.559 1300.23 L693.3 1300.23 L693.3 1284.73 Q693.3 1281.04 691.865 1279.22 Q690.429 1277.39 687.559 1277.39 Q684.11 1277.39 682.119 1279.59 Q680.129 1281.79 680.129 1285.58 L680.129 1300.23 L675.846 1300.23 L675.846 1264.22 L680.129 1264.22 L680.129 1278.34 Q681.656 1276 683.716 1274.84 Q685.8 1273.68 688.508 1273.68 Q692.976 1273.68 695.267 1276.46 Q697.559 1279.22 697.559 1284.59 Z" fill="#000000" fill-rule="nonzero" fill-opacity="1" /><polyline clip-path="url(#clip540)" style="stroke:#3da44d; stroke-linecap:round; stroke-linejoin:round; stroke-width:4; stroke-opacity:1; fill:none" stroke-dasharray="16, 10" points="289.884,1334.79 433.805,1334.79 "/>
<path clip-path="url(#clip540)" d="M457.792 1317.51 L487.028 1317.51 L487.028 1321.45 L474.759 1321.45 L474.759 1352.07 L470.06 1352.07 L470.06 1321.45 L457.792 1321.45 L457.792 1317.51 Z" fill="#000000" fill-rule="nonzero" fill-opacity="1" /><path clip-path="url(#clip540)" d="M499.412 1330.13 Q498.694 1329.71 497.838 1329.53 Q497.005 1329.32 495.986 1329.32 Q492.375 1329.32 490.43 1331.68 Q488.509 1334.02 488.509 1338.42 L488.509 1352.07 L484.227 1352.07 L484.227 1326.15 L488.509 1326.15 L488.509 1330.18 Q489.852 1327.82 492.005 1326.68 Q494.157 1325.52 497.236 1325.52 Q497.676 1325.52 498.208 1325.59 Q498.741 1325.64 499.389 1325.76 L499.412 1330.13 Z" fill="#000000" fill-rule="nonzero" fill-opacity="1" /><path clip-path="url(#clip540)" d="M503.44 1341.84 L503.44 1326.15 L507.699 1326.15 L507.699 1341.68 Q507.699 1345.36 509.134 1347.21 Q510.569 1349.04 513.44 1349.04 Q516.889 1349.04 518.879 1346.84 Q520.893 1344.64 520.893 1340.85 L520.893 1326.15 L525.153 1326.15 L525.153 1352.07 L520.893 1352.07 L520.893 1348.09 Q519.342 1350.45 517.282 1351.61 Q515.245 1352.75 512.537 1352.75 Q508.069 1352.75 505.754 1349.97 Q503.44 1347.19 503.44 1341.84 M514.157 1325.52 L514.157 1325.52 Z" fill="#000000" fill-rule="nonzero" fill-opacity="1" /><path clip-path="url(#clip540)" d="M556.101 1338.05 L556.101 1340.13 L536.518 1340.13 Q536.796 1344.53 539.157 1346.84 Q541.541 1349.13 545.777 1349.13 Q548.231 1349.13 550.523 1348.53 Q552.838 1347.93 555.106 1346.73 L555.106 1350.75 Q552.814 1351.73 550.407 1352.24 Q548 1352.75 545.523 1352.75 Q539.319 1352.75 535.685 1349.13 Q532.074 1345.52 532.074 1339.37 Q532.074 1333 535.5 1329.27 Q538.949 1325.52 544.782 1325.52 Q550.013 1325.52 553.046 1328.9 Q556.101 1332.26 556.101 1338.05 M551.842 1336.8 Q551.796 1333.3 549.875 1331.22 Q547.976 1329.13 544.828 1329.13 Q541.264 1329.13 539.111 1331.15 Q536.981 1333.16 536.657 1336.82 L551.842 1336.8 Z" fill="#000000" fill-rule="nonzero" fill-opacity="1" /><polyline clip-path="url(#clip540)" style="stroke:#c271d2; stroke-linecap:round; stroke-linejoin:round; stroke-width:4; stroke-opacity:1; fill:none" stroke-dasharray="16, 10" points="289.884,1386.63 433.805,1386.63 "/>
<path clip-path="url(#clip540)" d="M457.792 1369.35 L487.028 1369.35 L487.028 1373.29 L474.759 1373.29 L474.759 1403.91 L470.06 1403.91 L470.06 1373.29 L457.792 1373.29 L457.792 1369.35 Z" fill="#000000" fill-rule="nonzero" fill-opacity="1" /><path clip-path="url(#clip540)" d="M499.412 1381.97 Q498.694 1381.55 497.838 1381.37 Q497.005 1381.16 495.986 1381.16 Q492.375 1381.16 490.43 1383.52 Q488.509 1385.86 488.509 1390.26 L488.509 1403.91 L484.227 1403.91 L484.227 1377.99 L488.509 1377.99 L488.509 1382.02 Q489.852 1379.66 492.005 1378.52 Q494.157 1377.36 497.236 1377.36 Q497.676 1377.36 498.208 1377.43 Q498.741 1377.48 499.389 1377.6 L499.412 1381.97 Z" fill="#000000" fill-rule="nonzero" fill-opacity="1" /><path clip-path="url(#clip540)" d="M503.44 1393.68 L503.44 1377.99 L507.699 1377.99 L507.699 1393.52 Q507.699 1397.2 509.134 1399.05 Q510.569 1400.88 513.44 1400.88 Q516.889 1400.88 518.879 1398.68 Q520.893 1396.48 520.893 1392.69 L520.893 1377.99 L525.153 1377.99 L525.153 1403.91 L520.893 1403.91 L520.893 1399.93 Q519.342 1402.29 517.282 1403.45 Q515.245 1404.59 512.537 1404.59 Q508.069 1404.59 505.754 1401.81 Q503.44 1399.03 503.44 1393.68 M514.157 1377.36 L514.157 1377.36 Z" fill="#000000" fill-rule="nonzero" fill-opacity="1" /><path clip-path="url(#clip540)" d="M556.101 1389.89 L556.101 1391.97 L536.518 1391.97 Q536.796 1396.37 539.157 1398.68 Q541.541 1400.97 545.777 1400.97 Q548.231 1400.97 550.523 1400.37 Q552.838 1399.77 555.106 1398.57 L555.106 1402.59 Q552.814 1403.57 550.407 1404.08 Q548 1404.59 545.523 1404.59 Q539.319 1404.59 535.685 1400.97 Q532.074 1397.36 532.074 1391.21 Q532.074 1384.84 535.5 1381.11 Q538.949 1377.36 544.782 1377.36 Q550.013 1377.36 553.046 1380.74 Q556.101 1384.1 556.101 1389.89 M551.842 1388.64 Q551.796 1385.14 549.875 1383.06 Q547.976 1380.97 544.828 1380.97 Q541.264 1380.97 539.111 1382.99 Q536.981 1385 536.657 1388.66 L551.842 1388.64 Z" fill="#000000" fill-rule="nonzero" fill-opacity="1" /></svg>
