<?xml version="1.0" encoding="utf-8"?>
<svg xmlns="http://www.w3.org/2000/svg" xmlns:xlink="http://www.w3.org/1999/xlink" width="600" height="400" viewBox="0 0 2400 1600">
<defs>
  <clipPath id="clip000">
    <rect x="0" y="0" width="2400" height="1600"/>
  </clipPath>
</defs>
<path clip-path="url(#clip000)" d="M0 1600 L2400 1600 L2400 0 L0 0  Z" fill="#ffffff" fill-rule="evenodd" fill-opacity="1"/>
<defs>
  <clipPath id="clip001">
    <rect x="480" y="0" width="1681" height="1600"/>
  </clipPath>
</defs>
<path clip-path="url(#clip000)" d="M193.936 1486.45 L1153.25 1486.45 L1153.25 47.2441 L193.936 47.2441  Z" fill="#ffffff" fill-rule="evenodd" fill-opacity="1"/>
<defs>
  <clipPath id="clip002">
    <rect x="193" y="47" width="960" height="1440"/>
  </clipPath>
</defs>
<polyline clip-path="url(#clip002)" style="stroke:#000000; stroke-linecap:round; stroke-linejoin:round; stroke-width:2; stroke-opacity:0.1; fill:none" points="209.631,1486.45 209.631,47.2441 "/>
<polyline clip-path="url(#clip002)" style="stroke:#000000; stroke-linecap:round; stroke-linejoin:round; stroke-width:2; stroke-opacity:0.1; fill:none" points="438.749,1486.45 438.749,47.2441 "/>
<polyline clip-path="url(#clip002)" style="stroke:#000000; stroke-linecap:round; stroke-linejoin:round; stroke-width:2; stroke-opacity:0.1; fill:none" points="667.867,1486.45 667.867,47.2441 "/>
<polyline clip-path="url(#clip002)" style="stroke:#000000; stroke-linecap:round; stroke-linejoin:round; stroke-width:2; stroke-opacity:0.1; fill:none" points="896.985,1486.45 896.985,47.2441 "/>
<polyline clip-path="url(#clip002)" style="stroke:#000000; stroke-linecap:round; stroke-linejoin:round; stroke-width:2; stroke-opacity:0.1; fill:none" points="1126.1,1486.45 1126.1,47.2441 "/>
<polyline clip-path="url(#clip002)" style="stroke:#000000; stroke-linecap:round; stroke-linejoin:round; stroke-width:2; stroke-opacity:0.1; fill:none" points="193.936,1297.33 1153.25,1297.33 "/>
<polyline clip-path="url(#clip002)" style="stroke:#000000; stroke-linecap:round; stroke-linejoin:round; stroke-width:2; stroke-opacity:0.1; fill:none" points="193.936,1076.07 1153.25,1076.07 "/>
<polyline clip-path="url(#clip002)" style="stroke:#000000; stroke-linecap:round; stroke-linejoin:round; stroke-width:2; stroke-opacity:0.1; fill:none" points="193.936,854.821 1153.25,854.821 "/>
<polyline clip-path="url(#clip002)" style="stroke:#000000; stroke-linecap:round; stroke-linejoin:round; stroke-width:2; stroke-opacity:0.1; fill:none" points="193.936,633.569 1153.25,633.569 "/>
<polyline clip-path="url(#clip002)" style="stroke:#000000; stroke-linecap:round; stroke-linejoin:round; stroke-width:2; stroke-opacity:0.1; fill:none" points="193.936,412.316 1153.25,412.316 "/>
<polyline clip-path="url(#clip002)" style="stroke:#000000; stroke-linecap:round; stroke-linejoin:round; stroke-width:2; stroke-opacity:0.1; fill:none" points="193.936,191.064 1153.25,191.064 "/>
<polyline clip-path="url(#clip000)" style="stroke:#000000; stroke-linecap:round; stroke-linejoin:round; stroke-width:4; stroke-opacity:1; fill:none" points="193.936,1486.45 1153.25,1486.45 "/>
<polyline clip-path="url(#clip000)" style="stroke:#000000; stroke-linecap:round; stroke-linejoin:round; stroke-width:4; stroke-opacity:1; fill:none" points="209.631,1486.45 209.631,1467.55 "/>
<polyline clip-path="url(#clip000)" style="stroke:#000000; stroke-linecap:round; stroke-linejoin:round; stroke-width:4; stroke-opacity:1; fill:none" points="438.749,1486.45 438.749,1467.55 "/>
<polyline clip-path="url(#clip000)" style="stroke:#000000; stroke-linecap:round; stroke-linejoin:round; stroke-width:4; stroke-opacity:1; fill:none" points="667.867,1486.45 667.867,1467.55 "/>
<polyline clip-path="url(#clip000)" style="stroke:#000000; stroke-linecap:round; stroke-linejoin:round; stroke-width:4; stroke-opacity:1; fill:none" points="896.985,1486.45 896.985,1467.55 "/>
<polyline clip-path="url(#clip000)" style="stroke:#000000; stroke-linecap:round; stroke-linejoin:round; stroke-width:4; stroke-opacity:1; fill:none" points="1126.1,1486.45 1126.1,1467.55 "/>
<path clip-path="url(#clip000)" d="M209.631 1517.37 Q206.019 1517.37 204.191 1520.93 Q202.385 1524.47 202.385 1531.6 Q202.385 1538.71 204.191 1542.27 Q206.019 1545.82 209.631 1545.82 Q213.265 1545.82 215.07 1542.27 Q216.899 1538.71 216.899 1531.6 Q216.899 1524.47 215.07 1520.93 Q213.265 1517.37 209.631 1517.37 M209.631 1513.66 Q215.441 1513.66 218.496 1518.27 Q221.575 1522.85 221.575 1531.6 Q221.575 1540.33 218.496 1544.94 Q215.441 1549.52 209.631 1549.52 Q203.82 1549.52 200.742 1544.94 Q197.686 1540.33 197.686 1531.6 Q197.686 1522.85 200.742 1518.27 Q203.82 1513.66 209.631 1513.66 Z" fill="#000000" fill-rule="nonzero" fill-opacity="1" /><path clip-path="url(#clip000)" d="M417.522 1544.91 L433.841 1544.91 L433.841 1548.85 L411.897 1548.85 L411.897 1544.91 Q414.559 1542.16 419.142 1537.53 Q423.749 1532.88 424.929 1531.53 Q427.175 1529.01 428.054 1527.27 Q428.957 1525.51 428.957 1523.82 Q428.957 1521.07 427.013 1519.33 Q425.091 1517.6 421.99 1517.6 Q419.79 1517.6 417.337 1518.36 Q414.906 1519.13 412.128 1520.68 L412.128 1515.95 Q414.953 1514.82 417.406 1514.24 Q419.86 1513.66 421.897 1513.66 Q427.267 1513.66 430.462 1516.35 Q433.656 1519.03 433.656 1523.52 Q433.656 1525.65 432.846 1527.57 Q432.059 1529.47 429.952 1532.07 Q429.374 1532.74 426.272 1535.95 Q423.17 1539.15 417.522 1544.91 Z" fill="#000000" fill-rule="nonzero" fill-opacity="1" /><path clip-path="url(#clip000)" d="M453.656 1517.37 Q450.045 1517.37 448.216 1520.93 Q446.411 1524.47 446.411 1531.6 Q446.411 1538.71 448.216 1542.27 Q450.045 1545.82 453.656 1545.82 Q457.29 1545.82 459.096 1542.27 Q460.925 1538.71 460.925 1531.6 Q460.925 1524.47 459.096 1520.93 Q457.29 1517.37 453.656 1517.37 M453.656 1513.66 Q459.466 1513.66 462.522 1518.27 Q465.6 1522.85 465.6 1531.6 Q465.6 1540.33 462.522 1544.94 Q459.466 1549.52 453.656 1549.52 Q447.846 1549.52 444.767 1544.94 Q441.712 1540.33 441.712 1531.6 Q441.712 1522.85 444.767 1518.27 Q447.846 1513.66 453.656 1513.66 Z" fill="#000000" fill-rule="nonzero" fill-opacity="1" /><path clip-path="url(#clip000)" d="M656.038 1518.36 L644.233 1536.81 L656.038 1536.81 L656.038 1518.36 M654.811 1514.29 L660.691 1514.29 L660.691 1536.81 L665.621 1536.81 L665.621 1540.7 L660.691 1540.7 L660.691 1548.85 L656.038 1548.85 L656.038 1540.7 L640.436 1540.7 L640.436 1536.19 L654.811 1514.29 Z" fill="#000000" fill-rule="nonzero" fill-opacity="1" /><path clip-path="url(#clip000)" d="M683.353 1517.37 Q679.742 1517.37 677.913 1520.93 Q676.108 1524.47 676.108 1531.6 Q676.108 1538.71 677.913 1542.27 Q679.742 1545.82 683.353 1545.82 Q686.987 1545.82 688.793 1542.27 Q690.621 1538.71 690.621 1531.6 Q690.621 1524.47 688.793 1520.93 Q686.987 1517.37 683.353 1517.37 M683.353 1513.66 Q689.163 1513.66 692.219 1518.27 Q695.297 1522.85 695.297 1531.6 Q695.297 1540.33 692.219 1544.94 Q689.163 1549.52 683.353 1549.52 Q677.543 1549.52 674.464 1544.94 Q671.408 1540.33 671.408 1531.6 Q671.408 1522.85 674.464 1518.27 Q677.543 1513.66 683.353 1513.66 Z" fill="#000000" fill-rule="nonzero" fill-opacity="1" /><path clip-path="url(#clip000)" d="M882.39 1529.7 Q879.242 1529.7 877.39 1531.86 Q875.561 1534.01 875.561 1537.76 Q875.561 1541.49 877.39 1543.66 Q879.242 1545.82 882.39 1545.82 Q885.538 1545.82 887.367 1543.66 Q889.219 1541.49 889.219 1537.76 Q889.219 1534.01 887.367 1531.86 Q885.538 1529.7 882.39 1529.7 M891.672 1515.05 L891.672 1519.31 Q889.913 1518.48 888.108 1518.04 Q886.325 1517.6 884.566 1517.6 Q879.936 1517.6 877.483 1520.72 Q875.052 1523.85 874.705 1530.17 Q876.071 1528.15 878.131 1527.09 Q880.191 1526 882.668 1526 Q887.876 1526 890.885 1529.17 Q893.918 1532.32 893.918 1537.76 Q893.918 1543.08 890.77 1546.3 Q887.622 1549.52 882.39 1549.52 Q876.395 1549.52 873.224 1544.94 Q870.052 1540.33 870.052 1531.6 Q870.052 1523.41 873.941 1518.55 Q877.83 1513.66 884.381 1513.66 Q886.14 1513.66 887.923 1514.01 Q889.728 1514.36 891.672 1515.05 Z" fill="#000000" fill-rule="nonzero" fill-opacity="1" /><path clip-path="url(#clip000)" d="M911.973 1517.37 Q908.362 1517.37 906.534 1520.93 Q904.728 1524.47 904.728 1531.6 Q904.728 1538.71 906.534 1542.27 Q908.362 1545.82 911.973 1545.82 Q915.608 1545.82 917.413 1542.27 Q919.242 1538.71 919.242 1531.6 Q919.242 1524.47 917.413 1520.93 Q915.608 1517.37 911.973 1517.37 M911.973 1513.66 Q917.783 1513.66 920.839 1518.27 Q923.918 1522.85 923.918 1531.6 Q923.918 1540.33 920.839 1544.94 Q917.783 1549.52 911.973 1549.52 Q906.163 1549.52 903.084 1544.94 Q900.029 1540.33 900.029 1531.6 Q900.029 1522.85 903.084 1518.27 Q906.163 1513.66 911.973 1513.66 Z" fill="#000000" fill-rule="nonzero" fill-opacity="1" /><path clip-path="url(#clip000)" d="M1110.98 1532.44 Q1107.64 1532.44 1105.72 1534.22 Q1103.82 1536 1103.82 1539.13 Q1103.82 1542.25 1105.72 1544.03 Q1107.64 1545.82 1110.98 1545.82 Q1114.31 1545.82 1116.23 1544.03 Q1118.15 1542.23 1118.15 1539.13 Q1118.15 1536 1116.23 1534.22 Q1114.33 1532.44 1110.98 1532.44 M1106.3 1530.45 Q1103.29 1529.7 1101.6 1527.64 Q1099.93 1525.58 1099.93 1522.62 Q1099.93 1518.48 1102.87 1516.07 Q1105.84 1513.66 1110.98 1513.66 Q1116.14 1513.66 1119.08 1516.07 Q1122.02 1518.48 1122.02 1522.62 Q1122.02 1525.58 1120.33 1527.64 Q1118.66 1529.7 1115.67 1530.45 Q1119.05 1531.23 1120.93 1533.52 Q1122.83 1535.82 1122.83 1539.13 Q1122.83 1544.15 1119.75 1546.83 Q1116.69 1549.52 1110.98 1549.52 Q1105.26 1549.52 1102.18 1546.83 Q1099.12 1544.15 1099.12 1539.13 Q1099.12 1535.82 1101.02 1533.52 Q1102.92 1531.23 1106.3 1530.45 M1104.59 1523.06 Q1104.59 1525.75 1106.25 1527.25 Q1107.94 1528.76 1110.98 1528.76 Q1113.99 1528.76 1115.67 1527.25 Q1117.39 1525.75 1117.39 1523.06 Q1117.39 1520.38 1115.67 1518.87 Q1113.99 1517.37 1110.98 1517.37 Q1107.94 1517.37 1106.25 1518.87 Q1104.59 1520.38 1104.59 1523.06 Z" fill="#000000" fill-rule="nonzero" fill-opacity="1" /><path clip-path="url(#clip000)" d="M1141.14 1517.37 Q1137.53 1517.37 1135.7 1520.93 Q1133.89 1524.47 1133.89 1531.6 Q1133.89 1538.71 1135.7 1542.27 Q1137.53 1545.82 1141.14 1545.82 Q1144.77 1545.82 1146.58 1542.27 Q1148.41 1538.71 1148.41 1531.6 Q1148.41 1524.47 1146.58 1520.93 Q1144.77 1517.37 1141.14 1517.37 M1141.14 1513.66 Q1146.95 1513.66 1150 1518.27 Q1153.08 1522.85 1153.08 1531.6 Q1153.08 1540.33 1150 1544.94 Q1146.95 1549.52 1141.14 1549.52 Q1135.33 1549.52 1132.25 1544.94 Q1129.19 1540.33 1129.19 1531.6 Q1129.19 1522.85 1132.25 1518.27 Q1135.33 1513.66 1141.14 1513.66 Z" fill="#000000" fill-rule="nonzero" fill-opacity="1" /><polyline clip-path="url(#clip000)" style="stroke:#000000; stroke-linecap:round; stroke-linejoin:round; stroke-width:4; stroke-opacity:1; fill:none" points="193.936,1486.45 193.936,47.2441 "/>
<polyline clip-path="url(#clip000)" style="stroke:#000000; stroke-linecap:round; stroke-linejoin:round; stroke-width:4; stroke-opacity:1; fill:none" points="193.936,1297.33 212.834,1297.33 "/>
<polyline clip-path="url(#clip000)" style="stroke:#000000; stroke-linecap:round; stroke-linejoin:round; stroke-width:4; stroke-opacity:1; fill:none" points="193.936,1076.07 212.834,1076.07 "/>
<polyline clip-path="url(#clip000)" style="stroke:#000000; stroke-linecap:round; stroke-linejoin:round; stroke-width:4; stroke-opacity:1; fill:none" points="193.936,854.821 212.834,854.821 "/>
<polyline clip-path="url(#clip000)" style="stroke:#000000; stroke-linecap:round; stroke-linejoin:round; stroke-width:4; stroke-opacity:1; fill:none" points="193.936,633.569 212.834,633.569 "/>
<polyline clip-path="url(#clip000)" style="stroke:#000000; stroke-linecap:round; stroke-linejoin:round; stroke-width:4; stroke-opacity:1; fill:none" points="193.936,412.316 212.834,412.316 "/>
<polyline clip-path="url(#clip000)" style="stroke:#000000; stroke-linecap:round; stroke-linejoin:round; stroke-width:4; stroke-opacity:1; fill:none" points="193.936,191.064 212.834,191.064 "/>
<path clip-path="url(#clip000)" d="M51.9875 1297.78 L81.6633 1297.78 L81.6633 1301.71 L51.9875 1301.71 L51.9875 1297.78 Z" fill="#000000" fill-rule="nonzero" fill-opacity="1" /><path clip-path="url(#clip000)" d="M92.566 1310.67 L100.205 1310.67 L100.205 1284.31 L91.8947 1285.97 L91.8947 1281.71 L100.159 1280.05 L104.834 1280.05 L104.834 1310.67 L112.473 1310.67 L112.473 1314.61 L92.566 1314.61 L92.566 1310.67 Z" fill="#000000" fill-rule="nonzero" fill-opacity="1" /><path clip-path="url(#clip000)" d="M121.918 1308.73 L126.802 1308.73 L126.802 1314.61 L121.918 1314.61 L121.918 1308.73 Z" fill="#000000" fill-rule="nonzero" fill-opacity="1" /><path clip-path="url(#clip000)" d="M137.033 1280.05 L155.39 1280.05 L155.39 1283.98 L141.316 1283.98 L141.316 1292.45 Q142.334 1292.11 143.353 1291.94 Q144.371 1291.76 145.39 1291.76 Q151.177 1291.76 154.556 1294.93 Q157.936 1298.1 157.936 1303.52 Q157.936 1309.1 154.464 1312.2 Q150.992 1315.28 144.672 1315.28 Q142.496 1315.28 140.228 1314.91 Q137.982 1314.54 135.575 1313.8 L135.575 1309.1 Q137.658 1310.23 139.881 1310.79 Q142.103 1311.34 144.58 1311.34 Q148.584 1311.34 150.922 1309.24 Q153.26 1307.13 153.26 1303.52 Q153.26 1299.91 150.922 1297.8 Q148.584 1295.69 144.58 1295.69 Q142.705 1295.69 140.83 1296.11 Q138.978 1296.53 137.033 1297.41 L137.033 1280.05 Z" fill="#000000" fill-rule="nonzero" fill-opacity="1" /><path clip-path="url(#clip000)" d="M50.9921 1076.53 L80.6679 1076.53 L80.6679 1080.46 L50.9921 1080.46 L50.9921 1076.53 Z" fill="#000000" fill-rule="nonzero" fill-opacity="1" /><path clip-path="url(#clip000)" d="M91.5706 1089.42 L99.2095 1089.42 L99.2095 1063.05 L90.8993 1064.72 L90.8993 1060.46 L99.1632 1058.79 L103.839 1058.79 L103.839 1089.42 L111.478 1089.42 L111.478 1093.35 L91.5706 1093.35 L91.5706 1089.42 Z" fill="#000000" fill-rule="nonzero" fill-opacity="1" /><path clip-path="url(#clip000)" d="M120.922 1087.47 L125.807 1087.47 L125.807 1093.35 L120.922 1093.35 L120.922 1087.47 Z" fill="#000000" fill-rule="nonzero" fill-opacity="1" /><path clip-path="url(#clip000)" d="M145.992 1061.87 Q142.381 1061.87 140.552 1065.44 Q138.746 1068.98 138.746 1076.11 Q138.746 1083.21 140.552 1086.78 Q142.381 1090.32 145.992 1090.32 Q149.626 1090.32 151.431 1086.78 Q153.26 1083.21 153.26 1076.11 Q153.26 1068.98 151.431 1065.44 Q149.626 1061.87 145.992 1061.87 M145.992 1058.17 Q151.802 1058.17 154.857 1062.78 Q157.936 1067.36 157.936 1076.11 Q157.936 1084.84 154.857 1089.44 Q151.802 1094.03 145.992 1094.03 Q140.181 1094.03 137.103 1089.44 Q134.047 1084.84 134.047 1076.11 Q134.047 1067.36 137.103 1062.78 Q140.181 1058.17 145.992 1058.17 Z" fill="#000000" fill-rule="nonzero" fill-opacity="1" /><path clip-path="url(#clip000)" d="M51.9875 855.273 L81.6633 855.273 L81.6633 859.208 L51.9875 859.208 L51.9875 855.273 Z" fill="#000000" fill-rule="nonzero" fill-opacity="1" /><path clip-path="url(#clip000)" d="M101.756 840.62 Q98.1447 840.62 96.316 844.185 Q94.5104 847.726 94.5104 854.856 Q94.5104 861.962 96.316 865.527 Q98.1447 869.069 101.756 869.069 Q105.39 869.069 107.196 865.527 Q109.024 861.962 109.024 854.856 Q109.024 847.726 107.196 844.185 Q105.39 840.62 101.756 840.62 M101.756 836.916 Q107.566 836.916 110.621 841.523 Q113.7 846.106 113.7 854.856 Q113.7 863.583 110.621 868.189 Q107.566 872.773 101.756 872.773 Q95.9456 872.773 92.8669 868.189 Q89.8114 863.583 89.8114 854.856 Q89.8114 846.106 92.8669 841.523 Q95.9456 836.916 101.756 836.916 Z" fill="#000000" fill-rule="nonzero" fill-opacity="1" /><path clip-path="url(#clip000)" d="M121.918 866.222 L126.802 866.222 L126.802 872.101 L121.918 872.101 L121.918 866.222 Z" fill="#000000" fill-rule="nonzero" fill-opacity="1" /><path clip-path="url(#clip000)" d="M137.033 837.541 L155.39 837.541 L155.39 841.476 L141.316 841.476 L141.316 849.949 Q142.334 849.601 143.353 849.439 Q144.371 849.254 145.39 849.254 Q151.177 849.254 154.556 852.425 Q157.936 855.597 157.936 861.013 Q157.936 866.592 154.464 869.694 Q150.992 872.773 144.672 872.773 Q142.496 872.773 140.228 872.402 Q137.982 872.032 135.575 871.291 L135.575 866.592 Q137.658 867.726 139.881 868.282 Q142.103 868.837 144.58 868.837 Q148.584 868.837 150.922 866.731 Q153.26 864.624 153.26 861.013 Q153.26 857.402 150.922 855.296 Q148.584 853.189 144.58 853.189 Q142.705 853.189 140.83 853.606 Q138.978 854.023 137.033 854.902 L137.033 837.541 Z" fill="#000000" fill-rule="nonzero" fill-opacity="1" /><path clip-path="url(#clip000)" d="M100.76 619.367 Q97.1493 619.367 95.3206 622.932 Q93.515 626.474 93.515 633.603 Q93.515 640.71 95.3206 644.275 Q97.1493 647.816 100.76 647.816 Q104.395 647.816 106.2 644.275 Q108.029 640.71 108.029 633.603 Q108.029 626.474 106.2 622.932 Q104.395 619.367 100.76 619.367 M100.76 615.664 Q106.571 615.664 109.626 620.27 Q112.705 624.853 112.705 633.603 Q112.705 642.33 109.626 646.937 Q106.571 651.52 100.76 651.52 Q94.9502 651.52 91.8715 646.937 Q88.816 642.33 88.816 633.603 Q88.816 624.853 91.8715 620.27 Q94.9502 615.664 100.76 615.664 Z" fill="#000000" fill-rule="nonzero" fill-opacity="1" /><path clip-path="url(#clip000)" d="M120.922 644.969 L125.807 644.969 L125.807 650.849 L120.922 650.849 L120.922 644.969 Z" fill="#000000" fill-rule="nonzero" fill-opacity="1" /><path clip-path="url(#clip000)" d="M145.992 619.367 Q142.381 619.367 140.552 622.932 Q138.746 626.474 138.746 633.603 Q138.746 640.71 140.552 644.275 Q142.381 647.816 145.992 647.816 Q149.626 647.816 151.431 644.275 Q153.26 640.71 153.26 633.603 Q153.26 626.474 151.431 622.932 Q149.626 619.367 145.992 619.367 M145.992 615.664 Q151.802 615.664 154.857 620.27 Q157.936 624.853 157.936 633.603 Q157.936 642.33 154.857 646.937 Q151.802 651.52 145.992 651.52 Q140.181 651.52 137.103 646.937 Q134.047 642.33 134.047 633.603 Q134.047 624.853 137.103 620.27 Q140.181 615.664 145.992 615.664 Z" fill="#000000" fill-rule="nonzero" fill-opacity="1" /><path clip-path="url(#clip000)" d="M101.756 398.115 Q98.1447 398.115 96.316 401.68 Q94.5104 405.221 94.5104 412.351 Q94.5104 419.457 96.316 423.022 Q98.1447 426.564 101.756 426.564 Q105.39 426.564 107.196 423.022 Q109.024 419.457 109.024 412.351 Q109.024 405.221 107.196 401.68 Q105.39 398.115 101.756 398.115 M101.756 394.411 Q107.566 394.411 110.621 399.018 Q113.7 403.601 113.7 412.351 Q113.7 421.078 110.621 425.684 Q107.566 430.267 101.756 430.267 Q95.9456 430.267 92.8669 425.684 Q89.8114 421.078 89.8114 412.351 Q89.8114 403.601 92.8669 399.018 Q95.9456 394.411 101.756 394.411 Z" fill="#000000" fill-rule="nonzero" fill-opacity="1" /><path clip-path="url(#clip000)" d="M121.918 423.717 L126.802 423.717 L126.802 429.596 L121.918 429.596 L121.918 423.717 Z" fill="#000000" fill-rule="nonzero" fill-opacity="1" /><path clip-path="url(#clip000)" d="M137.033 395.036 L155.39 395.036 L155.39 398.971 L141.316 398.971 L141.316 407.443 Q142.334 407.096 143.353 406.934 Q144.371 406.749 145.39 406.749 Q151.177 406.749 154.556 409.92 Q157.936 413.092 157.936 418.508 Q157.936 424.087 154.464 427.189 Q150.992 430.267 144.672 430.267 Q142.496 430.267 140.228 429.897 Q137.982 429.527 135.575 428.786 L135.575 424.087 Q137.658 425.221 139.881 425.777 Q142.103 426.332 144.58 426.332 Q148.584 426.332 150.922 424.226 Q153.26 422.119 153.26 418.508 Q153.26 414.897 150.922 412.791 Q148.584 410.684 144.58 410.684 Q142.705 410.684 140.83 411.101 Q138.978 411.517 137.033 412.397 L137.033 395.036 Z" fill="#000000" fill-rule="nonzero" fill-opacity="1" /><path clip-path="url(#clip000)" d="M91.5706 204.408 L99.2095 204.408 L99.2095 178.043 L90.8993 179.709 L90.8993 175.45 L99.1632 173.784 L103.839 173.784 L103.839 204.408 L111.478 204.408 L111.478 208.344 L91.5706 208.344 L91.5706 204.408 Z" fill="#000000" fill-rule="nonzero" fill-opacity="1" /><path clip-path="url(#clip000)" d="M120.922 202.464 L125.807 202.464 L125.807 208.344 L120.922 208.344 L120.922 202.464 Z" fill="#000000" fill-rule="nonzero" fill-opacity="1" /><path clip-path="url(#clip000)" d="M145.992 176.862 Q142.381 176.862 140.552 180.427 Q138.746 183.969 138.746 191.098 Q138.746 198.205 140.552 201.77 Q142.381 205.311 145.992 205.311 Q149.626 205.311 151.431 201.77 Q153.26 198.205 153.26 191.098 Q153.26 183.969 151.431 180.427 Q149.626 176.862 145.992 176.862 M145.992 173.159 Q151.802 173.159 154.857 177.765 Q157.936 182.348 157.936 191.098 Q157.936 199.825 154.857 204.432 Q151.802 209.015 145.992 209.015 Q140.181 209.015 137.103 204.432 Q134.047 199.825 134.047 191.098 Q134.047 182.348 137.103 177.765 Q140.181 173.159 145.992 173.159 Z" fill="#000000" fill-rule="nonzero" fill-opacity="1" /><polyline clip-path="url(#clip002)" style="stroke:#009af9; stroke-linecap:round; stroke-linejoin:round; stroke-width:4; stroke-opacity:1; fill:none" points="221.086,709.049 232.542,692.905 243.998,731.471 255.454,715.521 266.91,731.294 278.366,691.547 289.822,618.247 301.278,532.536 312.734,558.481 324.19,560.632 335.646,598.659 347.101,618.877 358.557,665.32 370.013,657.835 381.469,692.855 392.925,712.365 404.381,730.696 415.837,776.865 427.293,861.114 438.749,872.084 450.205,887.535 461.661,916.585 473.116,915.309 484.572,904.312 496.028,943.157 507.484,911.3 518.94,856.837 530.396,834.722 541.852,804.935 553.308,792.88 564.764,793.661 576.22,805.729 587.675,800.444 599.131,773.72 610.587,777.639 622.043,737.763 633.499,697.293 644.955,648.002 656.411,525.962 667.867,462.442 679.323,372.976 690.779,404.54 702.235,328.833 713.69,328.226 725.146,291.497 736.602,189.716 748.058,102.555 759.514,95.6736 770.97,181.679 782.426,154.076 793.882,87.9763 805.338,113.403 816.794,114.824 828.25,88.8369 839.705,115.609 851.161,133.366 862.617,186.228 874.073,178.442 885.529,251.324 896.985,273.262 908.441,329.246 919.897,418.478 931.353,460.911 942.809,556.23 954.264,586.732 965.72,704.905 977.176,790.706 988.632,870.121 1000.09,908.585 1011.54,978.149 1023,1005.26 1034.46,1109.5 1045.91,1245.34 1057.37,1233.1 1068.82,1261.65 1080.28,1345.95 1091.74,1295.37 1103.19,1254.93 1114.65,1148.52 1126.1,1117.09 "/>
<polyline clip-path="url(#clip002)" style="stroke:#e26f46; stroke-linecap:round; stroke-linejoin:round; stroke-width:4; stroke-opacity:1; fill:none" points="221.086,724.793 232.542,705.828 243.998,747.152 255.454,729.455 266.91,725.233 278.366,686.26 289.822,611.4 301.278,524.459 312.734,549.235 324.19,555.083 335.646,604.115 347.101,623.358 358.557,674.198 370.013,670.32 381.469,703.923 392.925,728.247 404.381,746.114 415.837,791.666 427.293,872.659 438.749,884.391 450.205,907.878 461.661,936.439 473.116,935.77 484.572,925.757 496.028,954.584 507.484,922.007 518.94,870.83 530.396,848.345 541.852,815.481 553.308,801.615 564.764,799.172 576.22,810.496 587.675,814.31 599.131,789.639 610.587,796.087 622.043,754.777 633.499,710.875 644.955,660.436 656.411,534.532 667.867,468.262 679.323,379.817 690.779,410.401 702.235,343.644 713.69,337.973 725.146,301.961 736.602,203.631 748.058,124.819 759.514,118.55 770.97,213.486 782.426,189.18 793.882,119.314 805.338,148.285 816.794,159.06 828.25,132.869 839.705,154.913 851.161,163.258 862.617,216.852 874.073,205.347 885.529,280.658 896.985,294.588 908.441,345.58 919.897,429.976 931.353,468.831 942.809,557.36 954.264,597.541 965.72,705.275 977.176,794.312 988.632,871.87 1000.09,905.517 1011.54,970.208 1023,991.953 1034.46,1090.93 1045.91,1226.85 1057.37,1215.69 1068.82,1234.95 1080.28,1321.38 1091.74,1272.85 1103.19,1233.55 1114.65,1125.91 1126.1,1103.89 "/>
<polyline clip-path="url(#clip002)" style="stroke:#3da44d; stroke-linecap:round; stroke-linejoin:round; stroke-width:4; stroke-opacity:1; fill:none" points="221.086,784.498 232.542,741.719 243.998,762.811 255.454,689.964 266.91,693.212 278.366,592.222 289.822,524.243 301.278,498.991 312.734,519.71 324.19,648.804 335.646,772.745 347.101,833.463 358.557,860.856 370.013,826.873 381.469,875.433 392.925,860.47 404.381,887.813 415.837,911.427 427.293,993.963 438.749,977.029 450.205,1015.89 461.661,985.036 473.116,981.805 484.572,969.423 496.028,972.481 507.484,928.536 518.94,828.19 530.396,788.931 541.852,800.261 553.308,833.224 564.764,839.419 576.22,841.461 587.675,879.927 599.131,899.891 610.587,964.665 622.043,839.463 633.499,755.795 644.955,790.283 656.411,601.649 667.867,577.608 679.323,497.195 690.779,590.462 702.235,473.496 713.69,458.816 725.146,352.585 736.602,254.522 748.058,202.065 759.514,136.608 770.97,198.99 782.426,172.901 793.882,104.562 805.338,152.817 816.794,121.291 828.25,157.676 839.705,154.586 851.161,175.446 862.617,249.117 874.073,204.697 885.529,341.902 896.985,331.54 908.441,384.635 919.897,463.834 931.353,488.146 942.809,549.412 954.264,559.7 965.72,652.762 977.176,838.283 988.632,911.529 1000.09,998.73 1011.54,1015.36 1023,1043.02 1034.46,1081.72 1045.91,1241.96 1057.37,1286.56 1068.82,1323.89 1080.28,1445.72 1091.74,1406.8 1103.19,1398.18 1114.65,1288.69 1126.1,1254.51 "/>
<path clip-path="url(#clip000)" d="M663.68 302.578 L1121.28 302.578 L1121.28 95.2176 L663.68 95.2176  Z" fill="#ffffff" fill-rule="evenodd" fill-opacity="1"/>
<polyline clip-path="url(#clip000)" style="stroke:#000000; stroke-linecap:round; stroke-linejoin:round; stroke-width:4; stroke-opacity:1; fill:none" points="663.68,302.578 1121.28,302.578 1121.28,95.2176 663.68,95.2176 663.68,302.578 "/>
<polyline clip-path="url(#clip000)" style="stroke:#009af9; stroke-linecap:round; stroke-linejoin:round; stroke-width:4; stroke-opacity:1; fill:none" points="674.339,147.058 738.293,147.058 "/>
<path clip-path="url(#clip000)" d="M748.953 129.778 L753.628 129.778 L753.628 144.384 L769.138 129.778 L775.156 129.778 L758.003 145.889 L776.383 164.338 L770.226 164.338 L753.628 147.694 L753.628 164.338 L748.953 164.338 L748.953 129.778 Z" fill="#000000" fill-rule="nonzero" fill-opacity="1" /><path clip-path="url(#clip000)" d="M790.804 151.305 Q785.642 151.305 783.651 152.486 Q781.661 153.666 781.661 156.514 Q781.661 158.782 783.142 160.125 Q784.647 161.444 787.216 161.444 Q790.758 161.444 792.887 158.944 Q795.04 156.421 795.04 152.254 L795.04 151.305 L790.804 151.305 M799.299 149.546 L799.299 164.338 L795.04 164.338 L795.04 160.402 Q793.582 162.763 791.406 163.898 Q789.23 165.009 786.082 165.009 Q782.1 165.009 779.739 162.787 Q777.401 160.541 777.401 156.791 Q777.401 152.416 780.318 150.194 Q783.258 147.972 789.068 147.972 L795.04 147.972 L795.04 147.555 Q795.04 144.615 793.096 143.018 Q791.175 141.398 787.679 141.398 Q785.457 141.398 783.35 141.93 Q781.244 142.463 779.3 143.527 L779.3 139.592 Q781.638 138.69 783.837 138.25 Q786.036 137.787 788.119 137.787 Q793.744 137.787 796.522 140.703 Q799.299 143.62 799.299 149.546 Z" fill="#000000" fill-rule="nonzero" fill-opacity="1" /><path clip-path="url(#clip000)" d="M808.073 128.319 L812.332 128.319 L812.332 164.338 L808.073 164.338 L808.073 128.319 Z" fill="#000000" fill-rule="nonzero" fill-opacity="1" /><path clip-path="url(#clip000)" d="M841.429 143.389 Q843.026 140.518 845.248 139.153 Q847.471 137.787 850.48 137.787 Q854.531 137.787 856.73 140.634 Q858.929 143.458 858.929 148.689 L858.929 164.338 L854.646 164.338 L854.646 148.828 Q854.646 145.102 853.327 143.296 Q852.008 141.49 849.299 141.49 Q845.989 141.49 844.068 143.69 Q842.146 145.889 842.146 149.685 L842.146 164.338 L837.864 164.338 L837.864 148.828 Q837.864 145.078 836.545 143.296 Q835.225 141.49 832.471 141.49 Q829.207 141.49 827.285 143.713 Q825.364 145.912 825.364 149.685 L825.364 164.338 L821.082 164.338 L821.082 138.412 L825.364 138.412 L825.364 142.44 Q826.822 140.055 828.86 138.921 Q830.897 137.787 833.697 137.787 Q836.521 137.787 838.489 139.222 Q840.48 140.657 841.429 143.389 Z" fill="#000000" fill-rule="nonzero" fill-opacity="1" /><path clip-path="url(#clip000)" d="M879.206 151.305 Q874.044 151.305 872.054 152.486 Q870.063 153.666 870.063 156.514 Q870.063 158.782 871.544 160.125 Q873.049 161.444 875.619 161.444 Q879.16 161.444 881.29 158.944 Q883.443 156.421 883.443 152.254 L883.443 151.305 L879.206 151.305 M887.702 149.546 L887.702 164.338 L883.443 164.338 L883.443 160.402 Q881.984 162.763 879.808 163.898 Q877.632 165.009 874.484 165.009 Q870.503 165.009 868.142 162.787 Q865.804 160.541 865.804 156.791 Q865.804 152.416 868.72 150.194 Q871.66 147.972 877.47 147.972 L883.443 147.972 L883.443 147.555 Q883.443 144.615 881.498 143.018 Q879.577 141.398 876.081 141.398 Q873.859 141.398 871.753 141.93 Q869.646 142.463 867.702 143.527 L867.702 139.592 Q870.04 138.69 872.239 138.25 Q874.438 137.787 876.521 137.787 Q882.146 137.787 884.924 140.703 Q887.702 143.62 887.702 149.546 Z" fill="#000000" fill-rule="nonzero" fill-opacity="1" /><path clip-path="url(#clip000)" d="M918.026 148.689 L918.026 164.338 L913.766 164.338 L913.766 148.828 Q913.766 145.148 912.331 143.319 Q910.896 141.49 908.026 141.49 Q904.577 141.49 902.586 143.69 Q900.595 145.889 900.595 149.685 L900.595 164.338 L896.313 164.338 L896.313 138.412 L900.595 138.412 L900.595 142.44 Q902.123 140.102 904.183 138.944 Q906.266 137.787 908.975 137.787 Q913.442 137.787 915.734 140.565 Q918.026 143.319 918.026 148.689 Z" fill="#000000" fill-rule="nonzero" fill-opacity="1" /><path clip-path="url(#clip000)" d="M958.118 139.176 L958.118 143.203 Q956.313 142.277 954.368 141.815 Q952.424 141.352 950.34 141.352 Q947.169 141.352 945.572 142.324 Q943.998 143.296 943.998 145.24 Q943.998 146.722 945.132 147.578 Q946.266 148.412 949.692 149.176 L951.151 149.5 Q955.688 150.472 957.586 152.254 Q959.507 154.014 959.507 157.185 Q959.507 160.796 956.637 162.902 Q953.789 165.009 948.789 165.009 Q946.706 165.009 944.438 164.592 Q942.192 164.199 939.692 163.388 L939.692 158.99 Q942.053 160.217 944.345 160.842 Q946.637 161.444 948.882 161.444 Q951.891 161.444 953.512 160.426 Q955.132 159.384 955.132 157.509 Q955.132 155.773 953.951 154.847 Q952.794 153.921 948.836 153.064 L947.354 152.717 Q943.396 151.884 941.637 150.171 Q939.877 148.435 939.877 145.426 Q939.877 141.768 942.47 139.778 Q945.063 137.787 949.831 137.787 Q952.192 137.787 954.275 138.134 Q956.359 138.481 958.118 139.176 Z" fill="#000000" fill-rule="nonzero" fill-opacity="1" /><path clip-path="url(#clip000)" d="M986.474 143.389 Q988.072 140.518 990.294 139.153 Q992.516 137.787 995.525 137.787 Q999.576 137.787 1001.78 140.634 Q1003.97 143.458 1003.97 148.689 L1003.97 164.338 L999.692 164.338 L999.692 148.828 Q999.692 145.102 998.372 143.296 Q997.053 141.49 994.345 141.49 Q991.035 141.49 989.113 143.69 Q987.192 145.889 987.192 149.685 L987.192 164.338 L982.91 164.338 L982.91 148.828 Q982.91 145.078 981.59 143.296 Q980.271 141.49 977.516 141.49 Q974.252 141.49 972.331 143.713 Q970.41 145.912 970.41 149.685 L970.41 164.338 L966.127 164.338 L966.127 138.412 L970.41 138.412 L970.41 142.44 Q971.868 140.055 973.905 138.921 Q975.942 137.787 978.743 137.787 Q981.567 137.787 983.535 139.222 Q985.525 140.657 986.474 143.389 Z" fill="#000000" fill-rule="nonzero" fill-opacity="1" /><path clip-path="url(#clip000)" d="M1022.52 141.398 Q1019.09 141.398 1017.1 144.083 Q1015.11 146.745 1015.11 151.398 Q1015.11 156.051 1017.08 158.736 Q1019.07 161.398 1022.52 161.398 Q1025.92 161.398 1027.91 158.713 Q1029.9 156.027 1029.9 151.398 Q1029.9 146.791 1027.91 144.106 Q1025.92 141.398 1022.52 141.398 M1022.52 137.787 Q1028.07 137.787 1031.24 141.398 Q1034.41 145.009 1034.41 151.398 Q1034.41 157.764 1031.24 161.398 Q1028.07 165.009 1022.52 165.009 Q1016.94 165.009 1013.77 161.398 Q1010.62 157.764 1010.62 151.398 Q1010.62 145.009 1013.77 141.398 Q1016.94 137.787 1022.52 137.787 Z" fill="#000000" fill-rule="nonzero" fill-opacity="1" /><path clip-path="url(#clip000)" d="M1051.52 141.398 Q1048.09 141.398 1046.1 144.083 Q1044.11 146.745 1044.11 151.398 Q1044.11 156.051 1046.08 158.736 Q1048.07 161.398 1051.52 161.398 Q1054.92 161.398 1056.91 158.713 Q1058.9 156.027 1058.9 151.398 Q1058.9 146.791 1056.91 144.106 Q1054.92 141.398 1051.52 141.398 M1051.52 137.787 Q1057.08 137.787 1060.25 141.398 Q1063.42 145.009 1063.42 151.398 Q1063.42 157.764 1060.25 161.398 Q1057.08 165.009 1051.52 165.009 Q1045.94 165.009 1042.77 161.398 Q1039.62 157.764 1039.62 151.398 Q1039.62 145.009 1042.77 141.398 Q1045.94 137.787 1051.52 137.787 Z" fill="#000000" fill-rule="nonzero" fill-opacity="1" /><path clip-path="url(#clip000)" d="M1074.69 131.051 L1074.69 138.412 L1083.46 138.412 L1083.46 141.722 L1074.69 141.722 L1074.69 155.796 Q1074.69 158.967 1075.55 159.87 Q1076.43 160.773 1079.09 160.773 L1083.46 160.773 L1083.46 164.338 L1079.09 164.338 Q1074.16 164.338 1072.28 162.509 Q1070.41 160.657 1070.41 155.796 L1070.41 141.722 L1067.28 141.722 L1067.28 138.412 L1070.41 138.412 L1070.41 131.051 L1074.69 131.051 Z" fill="#000000" fill-rule="nonzero" fill-opacity="1" /><path clip-path="url(#clip000)" d="M1110.62 148.689 L1110.62 164.338 L1106.36 164.338 L1106.36 148.828 Q1106.36 145.148 1104.92 143.319 Q1103.49 141.49 1100.62 141.49 Q1097.17 141.49 1095.18 143.69 Q1093.19 145.889 1093.19 149.685 L1093.19 164.338 L1088.9 164.338 L1088.9 128.319 L1093.19 128.319 L1093.19 142.44 Q1094.71 140.102 1096.77 138.944 Q1098.86 137.787 1101.57 137.787 Q1106.03 137.787 1108.33 140.565 Q1110.62 143.319 1110.62 148.689 Z" fill="#000000" fill-rule="nonzero" fill-opacity="1" /><polyline clip-path="url(#clip000)" style="stroke:#e26f46; stroke-linecap:round; stroke-linejoin:round; stroke-width:4; stroke-opacity:1; fill:none" points="674.339,198.898 738.293,198.898 "/>
<path clip-path="url(#clip000)" d="M753.235 212.289 L753.235 226.039 L748.953 226.039 L748.953 190.252 L753.235 190.252 L753.235 194.187 Q754.577 191.872 756.615 190.761 Q758.675 189.627 761.522 189.627 Q766.244 189.627 769.184 193.377 Q772.147 197.127 772.147 203.238 Q772.147 209.349 769.184 213.099 Q766.244 216.849 761.522 216.849 Q758.675 216.849 756.615 215.738 Q754.577 214.603 753.235 212.289 M767.726 203.238 Q767.726 198.539 765.781 195.877 Q763.86 193.192 760.48 193.192 Q757.101 193.192 755.156 195.877 Q753.235 198.539 753.235 203.238 Q753.235 207.937 755.156 210.622 Q757.101 213.284 760.48 213.284 Q763.86 213.284 765.781 210.622 Q767.726 207.937 767.726 203.238 Z" fill="#000000" fill-rule="nonzero" fill-opacity="1" /><path clip-path="url(#clip000)" d="M792.332 180.159 L792.332 183.701 L788.258 183.701 Q785.966 183.701 785.063 184.627 Q784.184 185.553 784.184 187.96 L784.184 190.252 L791.198 190.252 L791.198 193.562 L784.184 193.562 L784.184 216.178 L779.901 216.178 L779.901 193.562 L775.827 193.562 L775.827 190.252 L779.901 190.252 L779.901 188.446 Q779.901 184.118 781.915 182.15 Q783.929 180.159 788.304 180.159 L792.332 180.159 Z" fill="#000000" fill-rule="nonzero" fill-opacity="1" /><path clip-path="url(#clip000)" d="M827.494 191.016 L827.494 195.043 Q825.688 194.117 823.744 193.655 Q821.799 193.192 819.716 193.192 Q816.545 193.192 814.948 194.164 Q813.373 195.136 813.373 197.08 Q813.373 198.562 814.508 199.418 Q815.642 200.252 819.068 201.016 L820.526 201.34 Q825.063 202.312 826.961 204.094 Q828.883 205.854 828.883 209.025 Q828.883 212.636 826.012 214.742 Q823.165 216.849 818.165 216.849 Q816.082 216.849 813.813 216.432 Q811.568 216.039 809.068 215.228 L809.068 210.83 Q811.429 212.057 813.721 212.682 Q816.012 213.284 818.258 213.284 Q821.267 213.284 822.887 212.266 Q824.508 211.224 824.508 209.349 Q824.508 207.613 823.327 206.687 Q822.17 205.761 818.211 204.904 L816.73 204.557 Q812.772 203.724 811.012 202.011 Q809.253 200.275 809.253 197.266 Q809.253 193.608 811.846 191.618 Q814.438 189.627 819.207 189.627 Q821.568 189.627 823.651 189.974 Q825.735 190.321 827.494 191.016 Z" fill="#000000" fill-rule="nonzero" fill-opacity="1" /><path clip-path="url(#clip000)" d="M855.85 195.229 Q857.447 192.358 859.67 190.993 Q861.892 189.627 864.901 189.627 Q868.952 189.627 871.151 192.474 Q873.35 195.298 873.35 200.529 L873.35 216.178 L869.068 216.178 L869.068 200.668 Q869.068 196.942 867.748 195.136 Q866.429 193.33 863.72 193.33 Q860.41 193.33 858.489 195.53 Q856.568 197.729 856.568 201.525 L856.568 216.178 L852.285 216.178 L852.285 200.668 Q852.285 196.918 850.966 195.136 Q849.646 193.33 846.892 193.33 Q843.628 193.33 841.707 195.553 Q839.785 197.752 839.785 201.525 L839.785 216.178 L835.503 216.178 L835.503 190.252 L839.785 190.252 L839.785 194.28 Q841.244 191.895 843.281 190.761 Q845.318 189.627 848.119 189.627 Q850.943 189.627 852.91 191.062 Q854.901 192.497 855.85 195.229 Z" fill="#000000" fill-rule="nonzero" fill-opacity="1" /><path clip-path="url(#clip000)" d="M891.892 193.238 Q888.466 193.238 886.475 195.923 Q884.484 198.585 884.484 203.238 Q884.484 207.891 886.452 210.576 Q888.443 213.238 891.892 213.238 Q895.294 213.238 897.285 210.553 Q899.276 207.867 899.276 203.238 Q899.276 198.631 897.285 195.946 Q895.294 193.238 891.892 193.238 M891.892 189.627 Q897.447 189.627 900.618 193.238 Q903.79 196.849 903.79 203.238 Q903.79 209.604 900.618 213.238 Q897.447 216.849 891.892 216.849 Q886.313 216.849 883.142 213.238 Q879.993 209.604 879.993 203.238 Q879.993 196.849 883.142 193.238 Q886.313 189.627 891.892 189.627 Z" fill="#000000" fill-rule="nonzero" fill-opacity="1" /><path clip-path="url(#clip000)" d="M920.896 193.238 Q917.47 193.238 915.479 195.923 Q913.489 198.585 913.489 203.238 Q913.489 207.891 915.456 210.576 Q917.447 213.238 920.896 213.238 Q924.299 213.238 926.29 210.553 Q928.28 207.867 928.28 203.238 Q928.28 198.631 926.29 195.946 Q924.299 193.238 920.896 193.238 M920.896 189.627 Q926.452 189.627 929.623 193.238 Q932.794 196.849 932.794 203.238 Q932.794 209.604 929.623 213.238 Q926.452 216.849 920.896 216.849 Q915.317 216.849 912.146 213.238 Q908.998 209.604 908.998 203.238 Q908.998 196.849 912.146 193.238 Q915.317 189.627 920.896 189.627 Z" fill="#000000" fill-rule="nonzero" fill-opacity="1" /><path clip-path="url(#clip000)" d="M944.067 182.891 L944.067 190.252 L952.84 190.252 L952.84 193.562 L944.067 193.562 L944.067 207.636 Q944.067 210.807 944.924 211.71 Q945.803 212.613 948.465 212.613 L952.84 212.613 L952.84 216.178 L948.465 216.178 Q943.535 216.178 941.66 214.349 Q939.785 212.497 939.785 207.636 L939.785 193.562 L936.66 193.562 L936.66 190.252 L939.785 190.252 L939.785 182.891 L944.067 182.891 Z" fill="#000000" fill-rule="nonzero" fill-opacity="1" /><path clip-path="url(#clip000)" d="M979.993 200.529 L979.993 216.178 L975.734 216.178 L975.734 200.668 Q975.734 196.988 974.299 195.159 Q972.863 193.33 969.993 193.33 Q966.544 193.33 964.553 195.53 Q962.562 197.729 962.562 201.525 L962.562 216.178 L958.28 216.178 L958.28 180.159 L962.562 180.159 L962.562 194.28 Q964.09 191.942 966.15 190.784 Q968.234 189.627 970.942 189.627 Q975.41 189.627 977.701 192.405 Q979.993 195.159 979.993 200.529 Z" fill="#000000" fill-rule="nonzero" fill-opacity="1" /><polyline clip-path="url(#clip000)" style="stroke:#3da44d; stroke-linecap:round; stroke-linejoin:round; stroke-width:4; stroke-opacity:1; fill:none" points="674.339,250.738 738.293,250.738 "/>
<path clip-path="url(#clip000)" d="M756.36 234.731 L756.36 242.092 L765.133 242.092 L765.133 245.402 L756.36 245.402 L756.36 259.476 Q756.36 262.647 757.216 263.55 Q758.096 264.453 760.758 264.453 L765.133 264.453 L765.133 268.018 L760.758 268.018 Q755.827 268.018 753.952 266.189 Q752.078 264.337 752.078 259.476 L752.078 245.402 L748.953 245.402 L748.953 242.092 L752.078 242.092 L752.078 234.731 L756.36 234.731 Z" fill="#000000" fill-rule="nonzero" fill-opacity="1" /><path clip-path="url(#clip000)" d="M785.758 246.073 Q785.04 245.657 784.184 245.471 Q783.35 245.263 782.332 245.263 Q778.721 245.263 776.776 247.624 Q774.855 249.962 774.855 254.36 L774.855 268.018 L770.573 268.018 L770.573 242.092 L774.855 242.092 L774.855 246.12 Q776.198 243.758 778.351 242.624 Q780.503 241.467 783.582 241.467 Q784.022 241.467 784.554 241.536 Q785.087 241.583 785.735 241.698 L785.758 246.073 Z" fill="#000000" fill-rule="nonzero" fill-opacity="1" /><path clip-path="url(#clip000)" d="M789.786 257.786 L789.786 242.092 L794.045 242.092 L794.045 257.624 Q794.045 261.305 795.48 263.156 Q796.915 264.985 799.786 264.985 Q803.235 264.985 805.225 262.786 Q807.239 260.587 807.239 256.791 L807.239 242.092 L811.498 242.092 L811.498 268.018 L807.239 268.018 L807.239 264.036 Q805.688 266.397 803.628 267.555 Q801.591 268.689 798.883 268.689 Q794.415 268.689 792.1 265.911 Q789.786 263.133 789.786 257.786 M800.503 241.467 L800.503 241.467 Z" fill="#000000" fill-rule="nonzero" fill-opacity="1" /><path clip-path="url(#clip000)" d="M842.447 253.99 L842.447 256.073 L822.864 256.073 Q823.142 260.471 825.503 262.786 Q827.887 265.078 832.123 265.078 Q834.577 265.078 836.869 264.476 Q839.184 263.874 841.452 262.67 L841.452 266.698 Q839.16 267.67 836.753 268.18 Q834.346 268.689 831.869 268.689 Q825.665 268.689 822.031 265.078 Q818.42 261.467 818.42 255.309 Q818.42 248.944 821.846 245.217 Q825.295 241.467 831.128 241.467 Q836.359 241.467 839.392 244.846 Q842.447 248.203 842.447 253.99 M838.188 252.74 Q838.142 249.245 836.221 247.161 Q834.322 245.078 831.174 245.078 Q827.61 245.078 825.457 247.092 Q823.327 249.106 823.003 252.763 L838.188 252.74 Z" fill="#000000" fill-rule="nonzero" fill-opacity="1" /><path clip-path="url(#clip000)" d="M1393.44 1486.45 L2352.76 1486.45 L2352.76 47.2441 L1393.44 47.2441  Z" fill="#ffffff" fill-rule="evenodd" fill-opacity="1"/>
<defs>
  <clipPath id="clip003">
    <rect x="1393" y="47" width="960" height="1440"/>
  </clipPath>
</defs>
<polyline clip-path="url(#clip003)" style="stroke:#000000; stroke-linecap:round; stroke-linejoin:round; stroke-width:2; stroke-opacity:0.1; fill:none" points="1409.13,1486.45 1409.13,47.2441 "/>
<polyline clip-path="url(#clip003)" style="stroke:#000000; stroke-linecap:round; stroke-linejoin:round; stroke-width:2; stroke-opacity:0.1; fill:none" points="1638.25,1486.45 1638.25,47.2441 "/>
<polyline clip-path="url(#clip003)" style="stroke:#000000; stroke-linecap:round; stroke-linejoin:round; stroke-width:2; stroke-opacity:0.1; fill:none" points="1867.37,1486.45 1867.37,47.2441 "/>
<polyline clip-path="url(#clip003)" style="stroke:#000000; stroke-linecap:round; stroke-linejoin:round; stroke-width:2; stroke-opacity:0.1; fill:none" points="2096.49,1486.45 2096.49,47.2441 "/>
<polyline clip-path="url(#clip003)" style="stroke:#000000; stroke-linecap:round; stroke-linejoin:round; stroke-width:2; stroke-opacity:0.1; fill:none" points="2325.61,1486.45 2325.61,47.2441 "/>
<polyline clip-path="url(#clip003)" style="stroke:#000000; stroke-linecap:round; stroke-linejoin:round; stroke-width:2; stroke-opacity:0.1; fill:none" points="1393.44,1346.36 2352.76,1346.36 "/>
<polyline clip-path="url(#clip003)" style="stroke:#000000; stroke-linecap:round; stroke-linejoin:round; stroke-width:2; stroke-opacity:0.1; fill:none" points="1393.44,1053.2 2352.76,1053.2 "/>
<polyline clip-path="url(#clip003)" style="stroke:#000000; stroke-linecap:round; stroke-linejoin:round; stroke-width:2; stroke-opacity:0.1; fill:none" points="1393.44,760.051 2352.76,760.051 "/>
<polyline clip-path="url(#clip003)" style="stroke:#000000; stroke-linecap:round; stroke-linejoin:round; stroke-width:2; stroke-opacity:0.1; fill:none" points="1393.44,466.9 2352.76,466.9 "/>
<polyline clip-path="url(#clip003)" style="stroke:#000000; stroke-linecap:round; stroke-linejoin:round; stroke-width:2; stroke-opacity:0.1; fill:none" points="1393.44,173.748 2352.76,173.748 "/>
<polyline clip-path="url(#clip000)" style="stroke:#000000; stroke-linecap:round; stroke-linejoin:round; stroke-width:4; stroke-opacity:1; fill:none" points="1393.44,1486.45 2352.76,1486.45 "/>
<polyline clip-path="url(#clip000)" style="stroke:#000000; stroke-linecap:round; stroke-linejoin:round; stroke-width:4; stroke-opacity:1; fill:none" points="1409.13,1486.45 1409.13,1467.55 "/>
<polyline clip-path="url(#clip000)" style="stroke:#000000; stroke-linecap:round; stroke-linejoin:round; stroke-width:4; stroke-opacity:1; fill:none" points="1638.25,1486.45 1638.25,1467.55 "/>
<polyline clip-path="url(#clip000)" style="stroke:#000000; stroke-linecap:round; stroke-linejoin:round; stroke-width:4; stroke-opacity:1; fill:none" points="1867.37,1486.45 1867.37,1467.55 "/>
<polyline clip-path="url(#clip000)" style="stroke:#000000; stroke-linecap:round; stroke-linejoin:round; stroke-width:4; stroke-opacity:1; fill:none" points="2096.49,1486.45 2096.49,1467.55 "/>
<polyline clip-path="url(#clip000)" style="stroke:#000000; stroke-linecap:round; stroke-linejoin:round; stroke-width:4; stroke-opacity:1; fill:none" points="2325.61,1486.45 2325.61,1467.55 "/>
<path clip-path="url(#clip000)" d="M1409.13 1517.37 Q1405.52 1517.37 1403.69 1520.93 Q1401.89 1524.47 1401.89 1531.6 Q1401.89 1538.71 1403.69 1542.27 Q1405.52 1545.82 1409.13 1545.82 Q1412.77 1545.82 1414.57 1542.27 Q1416.4 1538.71 1416.4 1531.6 Q1416.4 1524.47 1414.57 1520.93 Q1412.77 1517.37 1409.13 1517.37 M1409.13 1513.66 Q1414.94 1513.66 1418 1518.27 Q1421.08 1522.85 1421.08 1531.6 Q1421.08 1540.33 1418 1544.94 Q1414.94 1549.52 1409.13 1549.52 Q1403.32 1549.52 1400.24 1544.94 Q1397.19 1540.33 1397.19 1531.6 Q1397.19 1522.85 1400.24 1518.27 Q1403.32 1513.66 1409.13 1513.66 Z" fill="#000000" fill-rule="nonzero" fill-opacity="1" /><path clip-path="url(#clip000)" d="M1617.02 1544.91 L1633.34 1544.91 L1633.34 1548.85 L1611.4 1548.85 L1611.4 1544.91 Q1614.06 1542.16 1618.64 1537.53 Q1623.25 1532.88 1624.43 1531.53 Q1626.68 1529.01 1627.56 1527.27 Q1628.46 1525.51 1628.46 1523.82 Q1628.46 1521.07 1626.51 1519.33 Q1624.59 1517.6 1621.49 1517.6 Q1619.29 1517.6 1616.84 1518.36 Q1614.41 1519.13 1611.63 1520.68 L1611.63 1515.95 Q1614.45 1514.82 1616.91 1514.24 Q1619.36 1513.66 1621.4 1513.66 Q1626.77 1513.66 1629.96 1516.35 Q1633.16 1519.03 1633.16 1523.52 Q1633.16 1525.65 1632.35 1527.57 Q1631.56 1529.47 1629.45 1532.07 Q1628.88 1532.74 1625.77 1535.95 Q1622.67 1539.15 1617.02 1544.91 Z" fill="#000000" fill-rule="nonzero" fill-opacity="1" /><path clip-path="url(#clip000)" d="M1653.16 1517.37 Q1649.55 1517.37 1647.72 1520.93 Q1645.91 1524.47 1645.91 1531.6 Q1645.91 1538.71 1647.72 1542.27 Q1649.55 1545.82 1653.16 1545.82 Q1656.79 1545.82 1658.6 1542.27 Q1660.43 1538.71 1660.43 1531.6 Q1660.43 1524.47 1658.6 1520.93 Q1656.79 1517.37 1653.16 1517.37 M1653.16 1513.66 Q1658.97 1513.66 1662.02 1518.27 Q1665.1 1522.85 1665.1 1531.6 Q1665.1 1540.33 1662.02 1544.94 Q1658.97 1549.52 1653.16 1549.52 Q1647.35 1549.52 1644.27 1544.94 Q1641.21 1540.33 1641.21 1531.6 Q1641.21 1522.85 1644.27 1518.27 Q1647.35 1513.66 1653.16 1513.66 Z" fill="#000000" fill-rule="nonzero" fill-opacity="1" /><path clip-path="url(#clip000)" d="M1855.54 1518.36 L1843.74 1536.81 L1855.54 1536.81 L1855.54 1518.36 M1854.31 1514.29 L1860.19 1514.29 L1860.19 1536.81 L1865.12 1536.81 L1865.12 1540.7 L1860.19 1540.7 L1860.19 1548.85 L1855.54 1548.85 L1855.54 1540.7 L1839.94 1540.7 L1839.94 1536.19 L1854.31 1514.29 Z" fill="#000000" fill-rule="nonzero" fill-opacity="1" /><path clip-path="url(#clip000)" d="M1882.86 1517.37 Q1879.24 1517.37 1877.42 1520.93 Q1875.61 1524.47 1875.61 1531.6 Q1875.61 1538.71 1877.42 1542.27 Q1879.24 1545.82 1882.86 1545.82 Q1886.49 1545.82 1888.29 1542.27 Q1890.12 1538.71 1890.12 1531.6 Q1890.12 1524.47 1888.29 1520.93 Q1886.49 1517.37 1882.86 1517.37 M1882.86 1513.66 Q1888.67 1513.66 1891.72 1518.27 Q1894.8 1522.85 1894.8 1531.6 Q1894.8 1540.33 1891.72 1544.94 Q1888.67 1549.52 1882.86 1549.52 Q1877.05 1549.52 1873.97 1544.94 Q1870.91 1540.33 1870.91 1531.6 Q1870.91 1522.85 1873.97 1518.27 Q1877.05 1513.66 1882.86 1513.66 Z" fill="#000000" fill-rule="nonzero" fill-opacity="1" /><path clip-path="url(#clip000)" d="M2081.89 1529.7 Q2078.74 1529.7 2076.89 1531.86 Q2075.06 1534.01 2075.06 1537.76 Q2075.06 1541.49 2076.89 1543.66 Q2078.74 1545.82 2081.89 1545.82 Q2085.04 1545.82 2086.87 1543.66 Q2088.72 1541.49 2088.72 1537.76 Q2088.72 1534.01 2086.87 1531.86 Q2085.04 1529.7 2081.89 1529.7 M2091.17 1515.05 L2091.17 1519.31 Q2089.42 1518.48 2087.61 1518.04 Q2085.83 1517.6 2084.07 1517.6 Q2079.44 1517.6 2076.99 1520.72 Q2074.55 1523.85 2074.21 1530.17 Q2075.57 1528.15 2077.63 1527.09 Q2079.69 1526 2082.17 1526 Q2087.38 1526 2090.39 1529.17 Q2093.42 1532.32 2093.42 1537.76 Q2093.42 1543.08 2090.27 1546.3 Q2087.12 1549.52 2081.89 1549.52 Q2075.9 1549.52 2072.73 1544.94 Q2069.55 1540.33 2069.55 1531.6 Q2069.55 1523.41 2073.44 1518.55 Q2077.33 1513.66 2083.88 1513.66 Q2085.64 1513.66 2087.42 1514.01 Q2089.23 1514.36 2091.17 1515.05 Z" fill="#000000" fill-rule="nonzero" fill-opacity="1" /><path clip-path="url(#clip000)" d="M2111.48 1517.37 Q2107.86 1517.37 2106.04 1520.93 Q2104.23 1524.47 2104.23 1531.6 Q2104.23 1538.71 2106.04 1542.27 Q2107.86 1545.82 2111.48 1545.82 Q2115.11 1545.82 2116.92 1542.27 Q2118.74 1538.71 2118.74 1531.6 Q2118.74 1524.47 2116.92 1520.93 Q2115.11 1517.37 2111.48 1517.37 M2111.48 1513.66 Q2117.29 1513.66 2120.34 1518.27 Q2123.42 1522.85 2123.42 1531.6 Q2123.42 1540.33 2120.34 1544.94 Q2117.29 1549.52 2111.48 1549.52 Q2105.67 1549.52 2102.59 1544.94 Q2099.53 1540.33 2099.53 1531.6 Q2099.53 1522.85 2102.59 1518.27 Q2105.67 1513.66 2111.48 1513.66 Z" fill="#000000" fill-rule="nonzero" fill-opacity="1" /><path clip-path="url(#clip000)" d="M2310.48 1532.44 Q2307.14 1532.44 2305.22 1534.22 Q2303.33 1536 2303.33 1539.13 Q2303.33 1542.25 2305.22 1544.03 Q2307.14 1545.82 2310.48 1545.82 Q2313.81 1545.82 2315.73 1544.03 Q2317.65 1542.23 2317.65 1539.13 Q2317.65 1536 2315.73 1534.22 Q2313.83 1532.44 2310.48 1532.44 M2305.8 1530.45 Q2302.79 1529.7 2301.1 1527.64 Q2299.44 1525.58 2299.44 1522.62 Q2299.44 1518.48 2302.38 1516.07 Q2305.34 1513.66 2310.48 1513.66 Q2315.64 1513.66 2318.58 1516.07 Q2321.52 1518.48 2321.52 1522.62 Q2321.52 1525.58 2319.83 1527.64 Q2318.16 1529.7 2315.18 1530.45 Q2318.56 1531.23 2320.43 1533.52 Q2322.33 1535.82 2322.33 1539.13 Q2322.33 1544.15 2319.25 1546.83 Q2316.2 1549.52 2310.48 1549.52 Q2304.76 1549.52 2301.68 1546.83 Q2298.63 1544.15 2298.63 1539.13 Q2298.63 1535.82 2300.52 1533.52 Q2302.42 1531.23 2305.8 1530.45 M2304.09 1523.06 Q2304.09 1525.75 2305.76 1527.25 Q2307.45 1528.76 2310.48 1528.76 Q2313.49 1528.76 2315.18 1527.25 Q2316.89 1525.75 2316.89 1523.06 Q2316.89 1520.38 2315.18 1518.87 Q2313.49 1517.37 2310.48 1517.37 Q2307.45 1517.37 2305.76 1518.87 Q2304.09 1520.38 2304.09 1523.06 Z" fill="#000000" fill-rule="nonzero" fill-opacity="1" /><path clip-path="url(#clip000)" d="M2340.64 1517.37 Q2337.03 1517.37 2335.2 1520.93 Q2333.39 1524.47 2333.39 1531.6 Q2333.39 1538.71 2335.2 1542.27 Q2337.03 1545.82 2340.64 1545.82 Q2344.27 1545.82 2346.08 1542.27 Q2347.91 1538.71 2347.91 1531.6 Q2347.91 1524.47 2346.08 1520.93 Q2344.27 1517.37 2340.64 1517.37 M2340.64 1513.66 Q2346.45 1513.66 2349.51 1518.27 Q2352.58 1522.85 2352.58 1531.6 Q2352.58 1540.33 2349.51 1544.94 Q2346.45 1549.52 2340.64 1549.52 Q2334.83 1549.52 2331.75 1544.94 Q2328.7 1540.33 2328.7 1531.6 Q2328.7 1522.85 2331.75 1518.27 Q2334.83 1513.66 2340.64 1513.66 Z" fill="#000000" fill-rule="nonzero" fill-opacity="1" /><polyline clip-path="url(#clip000)" style="stroke:#000000; stroke-linecap:round; stroke-linejoin:round; stroke-width:4; stroke-opacity:1; fill:none" points="1393.44,1486.45 1393.44,47.2441 "/>
<polyline clip-path="url(#clip000)" style="stroke:#000000; stroke-linecap:round; stroke-linejoin:round; stroke-width:4; stroke-opacity:1; fill:none" points="1393.44,1346.36 1412.34,1346.36 "/>
<polyline clip-path="url(#clip000)" style="stroke:#000000; stroke-linecap:round; stroke-linejoin:round; stroke-width:4; stroke-opacity:1; fill:none" points="1393.44,1053.2 1412.34,1053.2 "/>
<polyline clip-path="url(#clip000)" style="stroke:#000000; stroke-linecap:round; stroke-linejoin:round; stroke-width:4; stroke-opacity:1; fill:none" points="1393.44,760.051 1412.34,760.051 "/>
<polyline clip-path="url(#clip000)" style="stroke:#000000; stroke-linecap:round; stroke-linejoin:round; stroke-width:4; stroke-opacity:1; fill:none" points="1393.44,466.9 1412.34,466.9 "/>
<polyline clip-path="url(#clip000)" style="stroke:#000000; stroke-linecap:round; stroke-linejoin:round; stroke-width:4; stroke-opacity:1; fill:none" points="1393.44,173.748 1412.34,173.748 "/>
<path clip-path="url(#clip000)" d="M1251.49 1346.81 L1281.17 1346.81 L1281.17 1350.74 L1251.49 1350.74 L1251.49 1346.81 Z" fill="#000000" fill-rule="nonzero" fill-opacity="1" /><path clip-path="url(#clip000)" d="M1301.26 1332.15 Q1297.65 1332.15 1295.82 1335.72 Q1294.01 1339.26 1294.01 1346.39 Q1294.01 1353.5 1295.82 1357.06 Q1297.65 1360.6 1301.26 1360.6 Q1304.89 1360.6 1306.7 1357.06 Q1308.53 1353.5 1308.53 1346.39 Q1308.53 1339.26 1306.7 1335.72 Q1304.89 1332.15 1301.26 1332.15 M1301.26 1328.45 Q1307.07 1328.45 1310.12 1333.06 Q1313.2 1337.64 1313.2 1346.39 Q1313.2 1355.12 1310.12 1359.72 Q1307.07 1364.31 1301.26 1364.31 Q1295.45 1364.31 1292.37 1359.72 Q1289.31 1355.12 1289.31 1346.39 Q1289.31 1337.64 1292.37 1333.06 Q1295.45 1328.45 1301.26 1328.45 Z" fill="#000000" fill-rule="nonzero" fill-opacity="1" /><path clip-path="url(#clip000)" d="M1321.42 1357.76 L1326.3 1357.76 L1326.3 1363.64 L1321.42 1363.64 L1321.42 1357.76 Z" fill="#000000" fill-rule="nonzero" fill-opacity="1" /><path clip-path="url(#clip000)" d="M1336.54 1329.08 L1354.89 1329.08 L1354.89 1333.01 L1340.82 1333.01 L1340.82 1341.48 Q1341.84 1341.14 1342.86 1340.97 Q1343.87 1340.79 1344.89 1340.79 Q1350.68 1340.79 1354.06 1343.96 Q1357.44 1347.13 1357.44 1352.55 Q1357.44 1358.13 1353.97 1361.23 Q1350.49 1364.31 1344.17 1364.31 Q1342 1364.31 1339.73 1363.94 Q1337.48 1363.57 1335.08 1362.82 L1335.08 1358.13 Q1337.16 1359.26 1339.38 1359.82 Q1341.61 1360.37 1344.08 1360.37 Q1348.09 1360.37 1350.42 1358.26 Q1352.76 1356.16 1352.76 1352.55 Q1352.76 1348.94 1350.42 1346.83 Q1348.09 1344.72 1344.08 1344.72 Q1342.21 1344.72 1340.33 1345.14 Q1338.48 1345.56 1336.54 1346.44 L1336.54 1329.08 Z" fill="#000000" fill-rule="nonzero" fill-opacity="1" /><path clip-path="url(#clip000)" d="M1300.26 1039 Q1296.65 1039 1294.82 1042.57 Q1293.02 1046.11 1293.02 1053.24 Q1293.02 1060.34 1294.82 1063.91 Q1296.65 1067.45 1300.26 1067.45 Q1303.9 1067.45 1305.7 1063.91 Q1307.53 1060.34 1307.53 1053.24 Q1307.53 1046.11 1305.7 1042.57 Q1303.9 1039 1300.26 1039 M1300.26 1035.3 Q1306.07 1035.3 1309.13 1039.9 Q1312.21 1044.49 1312.21 1053.24 Q1312.21 1061.96 1309.13 1066.57 Q1306.07 1071.15 1300.26 1071.15 Q1294.45 1071.15 1291.37 1066.57 Q1288.32 1061.96 1288.32 1053.24 Q1288.32 1044.49 1291.37 1039.9 Q1294.45 1035.3 1300.26 1035.3 Z" fill="#000000" fill-rule="nonzero" fill-opacity="1" /><path clip-path="url(#clip000)" d="M1320.42 1064.6 L1325.31 1064.6 L1325.31 1070.48 L1320.42 1070.48 L1320.42 1064.6 Z" fill="#000000" fill-rule="nonzero" fill-opacity="1" /><path clip-path="url(#clip000)" d="M1345.49 1039 Q1341.88 1039 1340.05 1042.57 Q1338.25 1046.11 1338.25 1053.24 Q1338.25 1060.34 1340.05 1063.91 Q1341.88 1067.45 1345.49 1067.45 Q1349.13 1067.45 1350.93 1063.91 Q1352.76 1060.34 1352.76 1053.24 Q1352.76 1046.11 1350.93 1042.57 Q1349.13 1039 1345.49 1039 M1345.49 1035.3 Q1351.3 1035.3 1354.36 1039.9 Q1357.44 1044.49 1357.44 1053.24 Q1357.44 1061.96 1354.36 1066.57 Q1351.3 1071.15 1345.49 1071.15 Q1339.68 1071.15 1336.61 1066.57 Q1333.55 1061.96 1333.55 1053.24 Q1333.55 1044.49 1336.61 1039.9 Q1339.68 1035.3 1345.49 1035.3 Z" fill="#000000" fill-rule="nonzero" fill-opacity="1" /><path clip-path="url(#clip000)" d="M1301.26 745.85 Q1297.65 745.85 1295.82 749.415 Q1294.01 752.957 1294.01 760.086 Q1294.01 767.193 1295.82 770.757 Q1297.65 774.299 1301.26 774.299 Q1304.89 774.299 1306.7 770.757 Q1308.53 767.193 1308.53 760.086 Q1308.53 752.957 1306.7 749.415 Q1304.89 745.85 1301.26 745.85 M1301.26 742.147 Q1307.07 742.147 1310.12 746.753 Q1313.2 751.336 1313.2 760.086 Q1313.2 768.813 1310.12 773.419 Q1307.07 778.003 1301.26 778.003 Q1295.45 778.003 1292.37 773.419 Q1289.31 768.813 1289.31 760.086 Q1289.31 751.336 1292.37 746.753 Q1295.45 742.147 1301.26 742.147 Z" fill="#000000" fill-rule="nonzero" fill-opacity="1" /><path clip-path="url(#clip000)" d="M1321.42 771.452 L1326.3 771.452 L1326.3 777.331 L1321.42 777.331 L1321.42 771.452 Z" fill="#000000" fill-rule="nonzero" fill-opacity="1" /><path clip-path="url(#clip000)" d="M1336.54 742.771 L1354.89 742.771 L1354.89 746.707 L1340.82 746.707 L1340.82 755.179 Q1341.84 754.832 1342.86 754.67 Q1343.87 754.484 1344.89 754.484 Q1350.68 754.484 1354.06 757.656 Q1357.44 760.827 1357.44 766.244 Q1357.44 771.822 1353.97 774.924 Q1350.49 778.003 1344.17 778.003 Q1342 778.003 1339.73 777.632 Q1337.48 777.262 1335.08 776.521 L1335.08 771.822 Q1337.16 772.957 1339.38 773.512 Q1341.61 774.068 1344.08 774.068 Q1348.09 774.068 1350.42 771.961 Q1352.76 769.855 1352.76 766.244 Q1352.76 762.633 1350.42 760.526 Q1348.09 758.42 1344.08 758.42 Q1342.21 758.42 1340.33 758.836 Q1338.48 759.253 1336.54 760.133 L1336.54 742.771 Z" fill="#000000" fill-rule="nonzero" fill-opacity="1" /><path clip-path="url(#clip000)" d="M1291.07 480.245 L1298.71 480.245 L1298.71 453.879 L1290.4 455.546 L1290.4 451.286 L1298.67 449.62 L1303.34 449.62 L1303.34 480.245 L1310.98 480.245 L1310.98 484.18 L1291.07 484.18 L1291.07 480.245 Z" fill="#000000" fill-rule="nonzero" fill-opacity="1" /><path clip-path="url(#clip000)" d="M1320.42 478.3 L1325.31 478.3 L1325.31 484.18 L1320.42 484.18 L1320.42 478.3 Z" fill="#000000" fill-rule="nonzero" fill-opacity="1" /><path clip-path="url(#clip000)" d="M1345.49 452.698 Q1341.88 452.698 1340.05 456.263 Q1338.25 459.805 1338.25 466.934 Q1338.25 474.041 1340.05 477.606 Q1341.88 481.147 1345.49 481.147 Q1349.13 481.147 1350.93 477.606 Q1352.76 474.041 1352.76 466.934 Q1352.76 459.805 1350.93 456.263 Q1349.13 452.698 1345.49 452.698 M1345.49 448.995 Q1351.3 448.995 1354.36 453.601 Q1357.44 458.184 1357.44 466.934 Q1357.44 475.661 1354.36 480.268 Q1351.3 484.851 1345.49 484.851 Q1339.68 484.851 1336.61 480.268 Q1333.55 475.661 1333.55 466.934 Q1333.55 458.184 1336.61 453.601 Q1339.68 448.995 1345.49 448.995 Z" fill="#000000" fill-rule="nonzero" fill-opacity="1" /><path clip-path="url(#clip000)" d="M1292.07 187.093 L1299.71 187.093 L1299.71 160.727 L1291.4 162.394 L1291.4 158.135 L1299.66 156.468 L1304.34 156.468 L1304.34 187.093 L1311.98 187.093 L1311.98 191.028 L1292.07 191.028 L1292.07 187.093 Z" fill="#000000" fill-rule="nonzero" fill-opacity="1" /><path clip-path="url(#clip000)" d="M1321.42 185.148 L1326.3 185.148 L1326.3 191.028 L1321.42 191.028 L1321.42 185.148 Z" fill="#000000" fill-rule="nonzero" fill-opacity="1" /><path clip-path="url(#clip000)" d="M1336.54 156.468 L1354.89 156.468 L1354.89 160.403 L1340.82 160.403 L1340.82 168.875 Q1341.84 168.528 1342.86 168.366 Q1343.87 168.181 1344.89 168.181 Q1350.68 168.181 1354.06 171.352 Q1357.44 174.523 1357.44 179.94 Q1357.44 185.519 1353.97 188.621 Q1350.49 191.699 1344.17 191.699 Q1342 191.699 1339.73 191.329 Q1337.48 190.959 1335.08 190.218 L1335.08 185.519 Q1337.16 186.653 1339.38 187.209 Q1341.61 187.764 1344.08 187.764 Q1348.09 187.764 1350.42 185.658 Q1352.76 183.551 1352.76 179.94 Q1352.76 176.329 1350.42 174.222 Q1348.09 172.116 1344.08 172.116 Q1342.21 172.116 1340.33 172.533 Q1338.48 172.949 1336.54 173.829 L1336.54 156.468 Z" fill="#000000" fill-rule="nonzero" fill-opacity="1" /><polyline clip-path="url(#clip003)" style="stroke:#009af9; stroke-linecap:round; stroke-linejoin:round; stroke-width:4; stroke-opacity:1; fill:none" points="1420.59,680.459 1432.04,709.532 1443.5,723.141 1454.96,750.466 1466.41,786.323 1477.87,804.587 1489.32,813.378 1500.78,810.577 1512.24,792.896 1523.69,752.468 1535.15,727.848 1546.6,753.743 1558.06,760.97 1569.52,780.881 1580.97,803.288 1592.43,769.275 1603.88,780.362 1615.34,848.97 1626.8,876.35 1638.25,919.275 1649.71,962.914 1661.16,1016.33 1672.62,1060.66 1684.07,1070.76 1695.53,1098.18 1706.99,1170.13 1718.44,1227.28 1729.9,1262.19 1741.35,1302.49 1752.81,1307.75 1764.27,1326.25 1775.72,1336.49 1787.18,1332.97 1798.63,1342.56 1810.09,1352.19 1821.55,1349.41 1833,1375.84 1844.46,1419.43 1855.91,1441.93 1867.37,1434.97 1878.83,1439.09 1890.28,1414.8 1901.74,1390.72 1913.19,1333.93 1924.65,1275.91 1936.1,1180.04 1947.56,1104.32 1959.02,1013.91 1970.47,955.71 1981.93,903.546 1993.38,871.974 2004.84,846.695 2016.3,753.12 2027.75,660.663 2039.21,600.474 2050.66,514.264 2062.12,407.279 2073.58,319.303 2085.03,266.654 2096.49,249.49 2107.94,214.945 2119.4,187.755 2130.86,163.818 2142.31,122.951 2153.77,101.162 2165.22,104.618 2176.68,113.151 2188.13,149.485 2199.59,198.837 2211.05,263.842 2222.5,347.916 2233.96,394.742 2245.41,467.084 2256.87,543.414 2268.33,620.234 2279.78,746.172 2291.24,876.674 2302.69,1007.38 2314.15,1109.96 2325.61,1187.06 "/>
<polyline clip-path="url(#clip003)" style="stroke:#e26f46; stroke-linecap:round; stroke-linejoin:round; stroke-width:4; stroke-opacity:1; fill:none" points="1420.59,674.737 1432.04,711.802 1443.5,726.965 1454.96,747.956 1466.41,789.334 1477.87,794.179 1489.32,803.401 1500.78,796.758 1512.24,786.211 1523.69,744.685 1535.15,720.862 1546.6,749.196 1558.06,763.822 1569.52,796.731 1580.97,817.651 1592.43,768.604 1603.88,782.007 1615.34,854.628 1626.8,884.882 1638.25,924.791 1649.71,958.896 1661.16,1022.49 1672.62,1064.66 1684.07,1069.62 1695.53,1095.47 1706.99,1165.92 1718.44,1219.37 1729.9,1257.13 1741.35,1301.22 1752.81,1313.47 1764.27,1321.47 1775.72,1319.69 1787.18,1318.1 1798.63,1337.66 1810.09,1348.9 1821.55,1347.21 1833,1379.1 1844.46,1415.68 1855.91,1443.14 1867.37,1439.84 1878.83,1445.72 1890.28,1427.74 1901.74,1407.81 1913.19,1342.06 1924.65,1274.39 1936.1,1176.12 1947.56,1099.97 1959.02,1005.12 1970.47,953.186 1981.93,913.497 1993.38,881.77 2004.84,853.515 2016.3,753.708 2027.75,666.294 2039.21,600.483 2050.66,508.671 2062.12,393.097 2073.58,306.517 2085.03,262.984 2096.49,256.975 2107.94,217.536 2119.4,200.834 2130.86,173.222 2142.31,131.134 2153.77,106.698 2165.22,107.032 2176.68,112.512 2188.13,147.171 2199.59,201.757 2211.05,265.798 2222.5,350.841 2233.96,403.011 2245.41,475.956 2256.87,554.658 2268.33,625.126 2279.78,751.955 2291.24,878.885 2302.69,1005.91 2314.15,1110.49 2325.61,1185.38 "/>
<polyline clip-path="url(#clip003)" style="stroke:#3da44d; stroke-linecap:round; stroke-linejoin:round; stroke-width:4; stroke-opacity:1; fill:none" points="1420.59,580.171 1432.04,625.945 1443.5,751.919 1454.96,773.264 1466.41,873.381 1477.87,873.793 1489.32,854.715 1500.78,841.594 1512.24,744.096 1523.69,726.826 1535.15,748.423 1546.6,687.934 1558.06,766.324 1569.52,811.416 1580.97,847.814 1592.43,833.312 1603.88,835.628 1615.34,888.68 1626.8,934.375 1638.25,959.999 1649.71,1044.4 1661.16,1063.23 1672.62,1147.95 1684.07,1211.91 1695.53,1139.65 1706.99,1221.51 1718.44,1191.29 1729.9,1194.01 1741.35,1252.94 1752.81,1220.47 1764.27,1289 1775.72,1344.87 1787.18,1402.77 1798.63,1372.63 1810.09,1391.53 1821.55,1298.36 1833,1296.49 1844.46,1419.53 1855.91,1433.59 1867.37,1405.25 1878.83,1398.07 1890.28,1422.71 1901.74,1288.19 1913.19,1239.01 1924.65,1283.61 1936.1,1211.65 1947.56,1081.03 1959.02,1010.84 1970.47,904.684 1981.93,892.321 1993.38,844.997 2004.84,750.92 2016.3,703.818 2027.75,714.34 2039.21,573.889 2050.66,512.169 2062.12,358.479 2073.58,235.463 2085.03,237.814 2096.49,313.925 2107.94,238.886 2119.4,237.786 2130.86,232.152 2142.31,114.576 2153.77,100.588 2165.22,115.452 2176.68,87.9763 2188.13,160.308 2199.59,183.014 2211.05,246.606 2222.5,395.884 2233.96,387.87 2245.41,469.104 2256.87,611.768 2268.33,687.33 2279.78,780.122 2291.24,925.622 2302.69,1089.33 2314.15,1105.37 2325.61,1235.57 "/>
<path clip-path="url(#clip000)" d="M1425.42 302.578 L1883.01 302.578 L1883.01 95.2176 L1425.42 95.2176  Z" fill="#ffffff" fill-rule="evenodd" fill-opacity="1"/>
<polyline clip-path="url(#clip000)" style="stroke:#000000; stroke-linecap:round; stroke-linejoin:round; stroke-width:4; stroke-opacity:1; fill:none" points="1425.42,302.578 1883.01,302.578 1883.01,95.2176 1425.42,95.2176 1425.42,302.578 "/>
<polyline clip-path="url(#clip000)" style="stroke:#009af9; stroke-linecap:round; stroke-linejoin:round; stroke-width:4; stroke-opacity:1; fill:none" points="1436.07,147.058 1500.03,147.058 "/>
<path clip-path="url(#clip000)" d="M1510.69 129.778 L1515.36 129.778 L1515.36 144.384 L1530.87 129.778 L1536.89 129.778 L1519.74 145.889 L1538.12 164.338 L1531.96 164.338 L1515.36 147.694 L1515.36 164.338 L1510.69 164.338 L1510.69 129.778 Z" fill="#000000" fill-rule="nonzero" fill-opacity="1" /><path clip-path="url(#clip000)" d="M1552.54 151.305 Q1547.38 151.305 1545.39 152.486 Q1543.4 153.666 1543.4 156.514 Q1543.4 158.782 1544.88 160.125 Q1546.38 161.444 1548.95 161.444 Q1552.49 161.444 1554.62 158.944 Q1556.78 156.421 1556.78 152.254 L1556.78 151.305 L1552.54 151.305 M1561.04 149.546 L1561.04 164.338 L1556.78 164.338 L1556.78 160.402 Q1555.32 162.763 1553.14 163.898 Q1550.97 165.009 1547.82 165.009 Q1543.84 165.009 1541.48 162.787 Q1539.14 160.541 1539.14 156.791 Q1539.14 152.416 1542.05 150.194 Q1544.99 147.972 1550.8 147.972 L1556.78 147.972 L1556.78 147.555 Q1556.78 144.615 1554.83 143.018 Q1552.91 141.398 1549.41 141.398 Q1547.19 141.398 1545.09 141.93 Q1542.98 142.463 1541.04 143.527 L1541.04 139.592 Q1543.37 138.69 1545.57 138.25 Q1547.77 137.787 1549.85 137.787 Q1555.48 137.787 1558.26 140.703 Q1561.04 143.62 1561.04 149.546 Z" fill="#000000" fill-rule="nonzero" fill-opacity="1" /><path clip-path="url(#clip000)" d="M1569.81 128.319 L1574.07 128.319 L1574.07 164.338 L1569.81 164.338 L1569.81 128.319 Z" fill="#000000" fill-rule="nonzero" fill-opacity="1" /><path clip-path="url(#clip000)" d="M1603.16 143.389 Q1604.76 140.518 1606.98 139.153 Q1609.21 137.787 1612.22 137.787 Q1616.27 137.787 1618.47 140.634 Q1620.66 143.458 1620.66 148.689 L1620.66 164.338 L1616.38 164.338 L1616.38 148.828 Q1616.38 145.102 1615.06 143.296 Q1613.74 141.49 1611.03 141.49 Q1607.72 141.49 1605.8 143.69 Q1603.88 145.889 1603.88 149.685 L1603.88 164.338 L1599.6 164.338 L1599.6 148.828 Q1599.6 145.078 1598.28 143.296 Q1596.96 141.49 1594.21 141.49 Q1590.94 141.49 1589.02 143.713 Q1587.1 145.912 1587.1 149.685 L1587.1 164.338 L1582.82 164.338 L1582.82 138.412 L1587.1 138.412 L1587.1 142.44 Q1588.56 140.055 1590.6 138.921 Q1592.63 137.787 1595.43 137.787 Q1598.26 137.787 1600.22 139.222 Q1602.22 140.657 1603.16 143.389 Z" fill="#000000" fill-rule="nonzero" fill-opacity="1" /><path clip-path="url(#clip000)" d="M1640.94 151.305 Q1635.78 151.305 1633.79 152.486 Q1631.8 153.666 1631.8 156.514 Q1631.8 158.782 1633.28 160.125 Q1634.78 161.444 1637.35 161.444 Q1640.9 161.444 1643.03 158.944 Q1645.18 156.421 1645.18 152.254 L1645.18 151.305 L1640.94 151.305 M1649.44 149.546 L1649.44 164.338 L1645.18 164.338 L1645.18 160.402 Q1643.72 162.763 1641.54 163.898 Q1639.37 165.009 1636.22 165.009 Q1632.24 165.009 1629.88 162.787 Q1627.54 160.541 1627.54 156.791 Q1627.54 152.416 1630.46 150.194 Q1633.4 147.972 1639.21 147.972 L1645.18 147.972 L1645.18 147.555 Q1645.18 144.615 1643.23 143.018 Q1641.31 141.398 1637.82 141.398 Q1635.59 141.398 1633.49 141.93 Q1631.38 142.463 1629.44 143.527 L1629.44 139.592 Q1631.78 138.69 1633.97 138.25 Q1636.17 137.787 1638.26 137.787 Q1643.88 137.787 1646.66 140.703 Q1649.44 143.62 1649.44 149.546 Z" fill="#000000" fill-rule="nonzero" fill-opacity="1" /><path clip-path="url(#clip000)" d="M1679.76 148.689 L1679.76 164.338 L1675.5 164.338 L1675.5 148.828 Q1675.5 145.148 1674.07 143.319 Q1672.63 141.49 1669.76 141.49 Q1666.31 141.49 1664.32 143.69 Q1662.33 145.889 1662.33 149.685 L1662.33 164.338 L1658.05 164.338 L1658.05 138.412 L1662.33 138.412 L1662.33 142.44 Q1663.86 140.102 1665.92 138.944 Q1668 137.787 1670.71 137.787 Q1675.18 137.787 1677.47 140.565 Q1679.76 143.319 1679.76 148.689 Z" fill="#000000" fill-rule="nonzero" fill-opacity="1" /><path clip-path="url(#clip000)" d="M1719.85 139.176 L1719.85 143.203 Q1718.05 142.277 1716.1 141.815 Q1714.16 141.352 1712.08 141.352 Q1708.9 141.352 1707.31 142.324 Q1705.73 143.296 1705.73 145.24 Q1705.73 146.722 1706.87 147.578 Q1708 148.412 1711.43 149.176 L1712.89 149.5 Q1717.42 150.472 1719.32 152.254 Q1721.24 154.014 1721.24 157.185 Q1721.24 160.796 1718.37 162.902 Q1715.53 165.009 1710.53 165.009 Q1708.44 165.009 1706.17 164.592 Q1703.93 164.199 1701.43 163.388 L1701.43 158.99 Q1703.79 160.217 1706.08 160.842 Q1708.37 161.444 1710.62 161.444 Q1713.63 161.444 1715.25 160.426 Q1716.87 159.384 1716.87 157.509 Q1716.87 155.773 1715.69 154.847 Q1714.53 153.921 1710.57 153.064 L1709.09 152.717 Q1705.13 151.884 1703.37 150.171 Q1701.61 148.435 1701.61 145.426 Q1701.61 141.768 1704.21 139.778 Q1706.8 137.787 1711.57 137.787 Q1713.93 137.787 1716.01 138.134 Q1718.09 138.481 1719.85 139.176 Z" fill="#000000" fill-rule="nonzero" fill-opacity="1" /><path clip-path="url(#clip000)" d="M1748.21 143.389 Q1749.81 140.518 1752.03 139.153 Q1754.25 137.787 1757.26 137.787 Q1761.31 137.787 1763.51 140.634 Q1765.71 143.458 1765.71 148.689 L1765.71 164.338 L1761.43 164.338 L1761.43 148.828 Q1761.43 145.102 1760.11 143.296 Q1758.79 141.49 1756.08 141.49 Q1752.77 141.49 1750.85 143.69 Q1748.93 145.889 1748.93 149.685 L1748.93 164.338 L1744.65 164.338 L1744.65 148.828 Q1744.65 145.078 1743.33 143.296 Q1742.01 141.49 1739.25 141.49 Q1735.99 141.49 1734.07 143.713 Q1732.15 145.912 1732.15 149.685 L1732.15 164.338 L1727.86 164.338 L1727.86 138.412 L1732.15 138.412 L1732.15 142.44 Q1733.6 140.055 1735.64 138.921 Q1737.68 137.787 1740.48 137.787 Q1743.3 137.787 1745.27 139.222 Q1747.26 140.657 1748.21 143.389 Z" fill="#000000" fill-rule="nonzero" fill-opacity="1" /><path clip-path="url(#clip000)" d="M1784.25 141.398 Q1780.83 141.398 1778.83 144.083 Q1776.84 146.745 1776.84 151.398 Q1776.84 156.051 1778.81 158.736 Q1780.8 161.398 1784.25 161.398 Q1787.65 161.398 1789.65 158.713 Q1791.64 156.027 1791.64 151.398 Q1791.64 146.791 1789.65 144.106 Q1787.65 141.398 1784.25 141.398 M1784.25 137.787 Q1789.81 137.787 1792.98 141.398 Q1796.15 145.009 1796.15 151.398 Q1796.15 157.764 1792.98 161.398 Q1789.81 165.009 1784.25 165.009 Q1778.67 165.009 1775.5 161.398 Q1772.35 157.764 1772.35 151.398 Q1772.35 145.009 1775.5 141.398 Q1778.67 137.787 1784.25 137.787 Z" fill="#000000" fill-rule="nonzero" fill-opacity="1" /><path clip-path="url(#clip000)" d="M1813.26 141.398 Q1809.83 141.398 1807.84 144.083 Q1805.85 146.745 1805.85 151.398 Q1805.85 156.051 1807.82 158.736 Q1809.81 161.398 1813.26 161.398 Q1816.66 161.398 1818.65 158.713 Q1820.64 156.027 1820.64 151.398 Q1820.64 146.791 1818.65 144.106 Q1816.66 141.398 1813.26 141.398 M1813.26 137.787 Q1818.81 137.787 1821.98 141.398 Q1825.15 145.009 1825.15 151.398 Q1825.15 157.764 1821.98 161.398 Q1818.81 165.009 1813.26 165.009 Q1807.68 165.009 1804.51 161.398 Q1801.36 157.764 1801.36 151.398 Q1801.36 145.009 1804.51 141.398 Q1807.68 137.787 1813.26 137.787 Z" fill="#000000" fill-rule="nonzero" fill-opacity="1" /><path clip-path="url(#clip000)" d="M1836.43 131.051 L1836.43 138.412 L1845.2 138.412 L1845.2 141.722 L1836.43 141.722 L1836.43 155.796 Q1836.43 158.967 1837.28 159.87 Q1838.16 160.773 1840.83 160.773 L1845.2 160.773 L1845.2 164.338 L1840.83 164.338 Q1835.89 164.338 1834.02 162.509 Q1832.14 160.657 1832.14 155.796 L1832.14 141.722 L1829.02 141.722 L1829.02 138.412 L1832.14 138.412 L1832.14 131.051 L1836.43 131.051 Z" fill="#000000" fill-rule="nonzero" fill-opacity="1" /><path clip-path="url(#clip000)" d="M1872.35 148.689 L1872.35 164.338 L1868.09 164.338 L1868.09 148.828 Q1868.09 145.148 1866.66 143.319 Q1865.22 141.49 1862.35 141.49 Q1858.9 141.49 1856.91 143.69 Q1854.92 145.889 1854.92 149.685 L1854.92 164.338 L1850.64 164.338 L1850.64 128.319 L1854.92 128.319 L1854.92 142.44 Q1856.45 140.102 1858.51 138.944 Q1860.59 137.787 1863.3 137.787 Q1867.77 137.787 1870.06 140.565 Q1872.35 143.319 1872.35 148.689 Z" fill="#000000" fill-rule="nonzero" fill-opacity="1" /><polyline clip-path="url(#clip000)" style="stroke:#e26f46; stroke-linecap:round; stroke-linejoin:round; stroke-width:4; stroke-opacity:1; fill:none" points="1436.07,198.898 1500.03,198.898 "/>
<path clip-path="url(#clip000)" d="M1514.97 212.289 L1514.97 226.039 L1510.69 226.039 L1510.69 190.252 L1514.97 190.252 L1514.97 194.187 Q1516.31 191.872 1518.35 190.761 Q1520.41 189.627 1523.26 189.627 Q1527.98 189.627 1530.92 193.377 Q1533.88 197.127 1533.88 203.238 Q1533.88 209.349 1530.92 213.099 Q1527.98 216.849 1523.26 216.849 Q1520.41 216.849 1518.35 215.738 Q1516.31 214.603 1514.97 212.289 M1529.46 203.238 Q1529.46 198.539 1527.52 195.877 Q1525.6 193.192 1522.22 193.192 Q1518.84 193.192 1516.89 195.877 Q1514.97 198.539 1514.97 203.238 Q1514.97 207.937 1516.89 210.622 Q1518.84 213.284 1522.22 213.284 Q1525.6 213.284 1527.52 210.622 Q1529.46 207.937 1529.46 203.238 Z" fill="#000000" fill-rule="nonzero" fill-opacity="1" /><path clip-path="url(#clip000)" d="M1554.07 180.159 L1554.07 183.701 L1549.99 183.701 Q1547.7 183.701 1546.8 184.627 Q1545.92 185.553 1545.92 187.96 L1545.92 190.252 L1552.93 190.252 L1552.93 193.562 L1545.92 193.562 L1545.92 216.178 L1541.64 216.178 L1541.64 193.562 L1537.56 193.562 L1537.56 190.252 L1541.64 190.252 L1541.64 188.446 Q1541.64 184.118 1543.65 182.15 Q1545.66 180.159 1550.04 180.159 L1554.07 180.159 Z" fill="#000000" fill-rule="nonzero" fill-opacity="1" /><path clip-path="url(#clip000)" d="M1589.23 191.016 L1589.23 195.043 Q1587.42 194.117 1585.48 193.655 Q1583.54 193.192 1581.45 193.192 Q1578.28 193.192 1576.68 194.164 Q1575.11 195.136 1575.11 197.08 Q1575.11 198.562 1576.24 199.418 Q1577.38 200.252 1580.8 201.016 L1582.26 201.34 Q1586.8 202.312 1588.7 204.094 Q1590.62 205.854 1590.62 209.025 Q1590.62 212.636 1587.75 214.742 Q1584.9 216.849 1579.9 216.849 Q1577.82 216.849 1575.55 216.432 Q1573.3 216.039 1570.8 215.228 L1570.8 210.83 Q1573.16 212.057 1575.46 212.682 Q1577.75 213.284 1579.99 213.284 Q1583 213.284 1584.62 212.266 Q1586.24 211.224 1586.24 209.349 Q1586.24 207.613 1585.06 206.687 Q1583.91 205.761 1579.95 204.904 L1578.47 204.557 Q1574.51 203.724 1572.75 202.011 Q1570.99 200.275 1570.99 197.266 Q1570.99 193.608 1573.58 191.618 Q1576.17 189.627 1580.94 189.627 Q1583.3 189.627 1585.39 189.974 Q1587.47 190.321 1589.23 191.016 Z" fill="#000000" fill-rule="nonzero" fill-opacity="1" /><path clip-path="url(#clip000)" d="M1617.59 195.229 Q1619.18 192.358 1621.41 190.993 Q1623.63 189.627 1626.64 189.627 Q1630.69 189.627 1632.89 192.474 Q1635.09 195.298 1635.09 200.529 L1635.09 216.178 L1630.8 216.178 L1630.8 200.668 Q1630.8 196.942 1629.48 195.136 Q1628.16 193.33 1625.46 193.33 Q1622.15 193.33 1620.22 195.53 Q1618.3 197.729 1618.3 201.525 L1618.3 216.178 L1614.02 216.178 L1614.02 200.668 Q1614.02 196.918 1612.7 195.136 Q1611.38 193.33 1608.63 193.33 Q1605.36 193.33 1603.44 195.553 Q1601.52 197.752 1601.52 201.525 L1601.52 216.178 L1597.24 216.178 L1597.24 190.252 L1601.52 190.252 L1601.52 194.28 Q1602.98 191.895 1605.02 190.761 Q1607.05 189.627 1609.85 189.627 Q1612.68 189.627 1614.65 191.062 Q1616.64 192.497 1617.59 195.229 Z" fill="#000000" fill-rule="nonzero" fill-opacity="1" /><path clip-path="url(#clip000)" d="M1653.63 193.238 Q1650.2 193.238 1648.21 195.923 Q1646.22 198.585 1646.22 203.238 Q1646.22 207.891 1648.19 210.576 Q1650.18 213.238 1653.63 213.238 Q1657.03 213.238 1659.02 210.553 Q1661.01 207.867 1661.01 203.238 Q1661.01 198.631 1659.02 195.946 Q1657.03 193.238 1653.63 193.238 M1653.63 189.627 Q1659.18 189.627 1662.35 193.238 Q1665.53 196.849 1665.53 203.238 Q1665.53 209.604 1662.35 213.238 Q1659.18 216.849 1653.63 216.849 Q1648.05 216.849 1644.88 213.238 Q1641.73 209.604 1641.73 203.238 Q1641.73 196.849 1644.88 193.238 Q1648.05 189.627 1653.63 189.627 Z" fill="#000000" fill-rule="nonzero" fill-opacity="1" /><path clip-path="url(#clip000)" d="M1682.63 193.238 Q1679.21 193.238 1677.22 195.923 Q1675.22 198.585 1675.22 203.238 Q1675.22 207.891 1677.19 210.576 Q1679.18 213.238 1682.63 213.238 Q1686.03 213.238 1688.03 210.553 Q1690.02 207.867 1690.02 203.238 Q1690.02 198.631 1688.03 195.946 Q1686.03 193.238 1682.63 193.238 M1682.63 189.627 Q1688.19 189.627 1691.36 193.238 Q1694.53 196.849 1694.53 203.238 Q1694.53 209.604 1691.36 213.238 Q1688.19 216.849 1682.63 216.849 Q1677.05 216.849 1673.88 213.238 Q1670.73 209.604 1670.73 203.238 Q1670.73 196.849 1673.88 193.238 Q1677.05 189.627 1682.63 189.627 Z" fill="#000000" fill-rule="nonzero" fill-opacity="1" /><path clip-path="url(#clip000)" d="M1705.8 182.891 L1705.8 190.252 L1714.58 190.252 L1714.58 193.562 L1705.8 193.562 L1705.8 207.636 Q1705.8 210.807 1706.66 211.71 Q1707.54 212.613 1710.2 212.613 L1714.58 212.613 L1714.58 216.178 L1710.2 216.178 Q1705.27 216.178 1703.4 214.349 Q1701.52 212.497 1701.52 207.636 L1701.52 193.562 L1698.4 193.562 L1698.4 190.252 L1701.52 190.252 L1701.52 182.891 L1705.8 182.891 Z" fill="#000000" fill-rule="nonzero" fill-opacity="1" /><path clip-path="url(#clip000)" d="M1741.73 200.529 L1741.73 216.178 L1737.47 216.178 L1737.47 200.668 Q1737.47 196.988 1736.03 195.159 Q1734.6 193.33 1731.73 193.33 Q1728.28 193.33 1726.29 195.53 Q1724.3 197.729 1724.3 201.525 L1724.3 216.178 L1720.02 216.178 L1720.02 180.159 L1724.3 180.159 L1724.3 194.28 Q1725.83 191.942 1727.89 190.784 Q1729.97 189.627 1732.68 189.627 Q1737.15 189.627 1739.44 192.405 Q1741.73 195.159 1741.73 200.529 Z" fill="#000000" fill-rule="nonzero" fill-opacity="1" /><polyline clip-path="url(#clip000)" style="stroke:#3da44d; stroke-linecap:round; stroke-linejoin:round; stroke-width:4; stroke-opacity:1; fill:none" points="1436.07,250.738 1500.03,250.738 "/>
<path clip-path="url(#clip000)" d="M1518.1 234.731 L1518.1 242.092 L1526.87 242.092 L1526.87 245.402 L1518.1 245.402 L1518.1 259.476 Q1518.1 262.647 1518.95 263.55 Q1519.83 264.453 1522.49 264.453 L1526.87 264.453 L1526.87 268.018 L1522.49 268.018 Q1517.56 268.018 1515.69 266.189 Q1513.81 264.337 1513.81 259.476 L1513.81 245.402 L1510.69 245.402 L1510.69 242.092 L1513.81 242.092 L1513.81 234.731 L1518.1 234.731 Z" fill="#000000" fill-rule="nonzero" fill-opacity="1" /><path clip-path="url(#clip000)" d="M1547.49 246.073 Q1546.78 245.657 1545.92 245.471 Q1545.09 245.263 1544.07 245.263 Q1540.46 245.263 1538.51 247.624 Q1536.59 249.962 1536.59 254.36 L1536.59 268.018 L1532.31 268.018 L1532.31 242.092 L1536.59 242.092 L1536.59 246.12 Q1537.93 243.758 1540.09 242.624 Q1542.24 241.467 1545.32 241.467 Q1545.76 241.467 1546.29 241.536 Q1546.82 241.583 1547.47 241.698 L1547.49 246.073 Z" fill="#000000" fill-rule="nonzero" fill-opacity="1" /><path clip-path="url(#clip000)" d="M1551.52 257.786 L1551.52 242.092 L1555.78 242.092 L1555.78 257.624 Q1555.78 261.305 1557.22 263.156 Q1558.65 264.985 1561.52 264.985 Q1564.97 264.985 1566.96 262.786 Q1568.97 260.587 1568.97 256.791 L1568.97 242.092 L1573.23 242.092 L1573.23 268.018 L1568.97 268.018 L1568.97 264.036 Q1567.42 266.397 1565.36 267.555 Q1563.33 268.689 1560.62 268.689 Q1556.15 268.689 1553.84 265.911 Q1551.52 263.133 1551.52 257.786 M1562.24 241.467 L1562.24 241.467 Z" fill="#000000" fill-rule="nonzero" fill-opacity="1" /><path clip-path="url(#clip000)" d="M1604.18 253.99 L1604.18 256.073 L1584.6 256.073 Q1584.88 260.471 1587.24 262.786 Q1589.62 265.078 1593.86 265.078 Q1596.31 265.078 1598.6 264.476 Q1600.92 263.874 1603.19 262.67 L1603.19 266.698 Q1600.9 267.67 1598.49 268.18 Q1596.08 268.689 1593.6 268.689 Q1587.4 268.689 1583.77 265.078 Q1580.16 261.467 1580.16 255.309 Q1580.16 248.944 1583.58 245.217 Q1587.03 241.467 1592.86 241.467 Q1598.1 241.467 1601.13 244.846 Q1604.18 248.203 1604.18 253.99 M1599.92 252.74 Q1599.88 249.245 1597.96 247.161 Q1596.06 245.078 1592.91 245.078 Q1589.35 245.078 1587.19 247.092 Q1585.06 249.106 1584.74 252.763 L1599.92 252.74 Z" fill="#000000" fill-rule="nonzero" fill-opacity="1" /></svg>
