<?xml version="1.0" encoding="utf-8"?>
<svg xmlns="http://www.w3.org/2000/svg" xmlns:xlink="http://www.w3.org/1999/xlink" width="600" height="400" viewBox="0 0 2400 1600">
<defs>
  <clipPath id="clip050">
    <rect x="0" y="0" width="2400" height="1600"/>
  </clipPath>
</defs>
<path clip-path="url(#clip050)" d="M0 1600 L2400 1600 L2400 0 L0 0  Z" fill="#ffffff" fill-rule="evenodd" fill-opacity="1"/>
<defs>
  <clipPath id="clip051">
    <rect x="480" y="0" width="1681" height="1600"/>
  </clipPath>
</defs>
<path clip-path="url(#clip050)" d="M148.057 1486.45 L1152.19 1486.45 L1152.19 47.2441 L148.057 47.2441  Z" fill="#ffffff" fill-rule="evenodd" fill-opacity="1"/>
<defs>
  <clipPath id="clip052">
    <rect x="148" y="47" width="1005" height="1440"/>
  </clipPath>
</defs>
<polyline clip-path="url(#clip052)" style="stroke:#000000; stroke-linecap:round; stroke-linejoin:round; stroke-width:2; stroke-opacity:0.1; fill:none" points="164.484,1486.45 164.484,47.2441 "/>
<polyline clip-path="url(#clip052)" style="stroke:#000000; stroke-linecap:round; stroke-linejoin:round; stroke-width:2; stroke-opacity:0.1; fill:none" points="404.306,1486.45 404.306,47.2441 "/>
<polyline clip-path="url(#clip052)" style="stroke:#000000; stroke-linecap:round; stroke-linejoin:round; stroke-width:2; stroke-opacity:0.1; fill:none" points="644.127,1486.45 644.127,47.2441 "/>
<polyline clip-path="url(#clip052)" style="stroke:#000000; stroke-linecap:round; stroke-linejoin:round; stroke-width:2; stroke-opacity:0.1; fill:none" points="883.949,1486.45 883.949,47.2441 "/>
<polyline clip-path="url(#clip052)" style="stroke:#000000; stroke-linecap:round; stroke-linejoin:round; stroke-width:2; stroke-opacity:0.1; fill:none" points="1123.77,1486.45 1123.77,47.2441 "/>
<polyline clip-path="url(#clip052)" style="stroke:#000000; stroke-linecap:round; stroke-linejoin:round; stroke-width:2; stroke-opacity:0.1; fill:none" points="148.057,1196.78 1152.19,1196.78 "/>
<polyline clip-path="url(#clip052)" style="stroke:#000000; stroke-linecap:round; stroke-linejoin:round; stroke-width:2; stroke-opacity:0.1; fill:none" points="148.057,897.115 1152.19,897.115 "/>
<polyline clip-path="url(#clip052)" style="stroke:#000000; stroke-linecap:round; stroke-linejoin:round; stroke-width:2; stroke-opacity:0.1; fill:none" points="148.057,597.446 1152.19,597.446 "/>
<polyline clip-path="url(#clip052)" style="stroke:#000000; stroke-linecap:round; stroke-linejoin:round; stroke-width:2; stroke-opacity:0.1; fill:none" points="148.057,297.776 1152.19,297.776 "/>
<polyline clip-path="url(#clip050)" style="stroke:#000000; stroke-linecap:round; stroke-linejoin:round; stroke-width:4; stroke-opacity:1; fill:none" points="148.057,1486.45 1152.19,1486.45 "/>
<polyline clip-path="url(#clip050)" style="stroke:#000000; stroke-linecap:round; stroke-linejoin:round; stroke-width:4; stroke-opacity:1; fill:none" points="164.484,1486.45 164.484,1467.55 "/>
<polyline clip-path="url(#clip050)" style="stroke:#000000; stroke-linecap:round; stroke-linejoin:round; stroke-width:4; stroke-opacity:1; fill:none" points="404.306,1486.45 404.306,1467.55 "/>
<polyline clip-path="url(#clip050)" style="stroke:#000000; stroke-linecap:round; stroke-linejoin:round; stroke-width:4; stroke-opacity:1; fill:none" points="644.127,1486.45 644.127,1467.55 "/>
<polyline clip-path="url(#clip050)" style="stroke:#000000; stroke-linecap:round; stroke-linejoin:round; stroke-width:4; stroke-opacity:1; fill:none" points="883.949,1486.45 883.949,1467.55 "/>
<polyline clip-path="url(#clip050)" style="stroke:#000000; stroke-linecap:round; stroke-linejoin:round; stroke-width:4; stroke-opacity:1; fill:none" points="1123.77,1486.45 1123.77,1467.55 "/>
<path clip-path="url(#clip050)" d="M164.484 1517.37 Q160.873 1517.37 159.045 1520.93 Q157.239 1524.47 157.239 1531.6 Q157.239 1538.71 159.045 1542.27 Q160.873 1545.82 164.484 1545.82 Q168.119 1545.82 169.924 1542.27 Q171.753 1538.71 171.753 1531.6 Q171.753 1524.47 169.924 1520.93 Q168.119 1517.37 164.484 1517.37 M164.484 1513.66 Q170.295 1513.66 173.35 1518.27 Q176.429 1522.85 176.429 1531.6 Q176.429 1540.33 173.35 1544.94 Q170.295 1549.52 164.484 1549.52 Q158.674 1549.52 155.596 1544.94 Q152.54 1540.33 152.54 1531.6 Q152.54 1522.85 155.596 1518.27 Q158.674 1513.66 164.484 1513.66 Z" fill="#000000" fill-rule="nonzero" fill-opacity="1" /><path clip-path="url(#clip050)" d="M383.079 1544.91 L399.398 1544.91 L399.398 1548.85 L377.454 1548.85 L377.454 1544.91 Q380.116 1542.16 384.699 1537.53 Q389.306 1532.88 390.486 1531.53 Q392.732 1529.01 393.611 1527.27 Q394.514 1525.51 394.514 1523.82 Q394.514 1521.07 392.57 1519.33 Q390.648 1517.6 387.547 1517.6 Q385.348 1517.6 382.894 1518.36 Q380.463 1519.13 377.686 1520.68 L377.686 1515.95 Q380.51 1514.82 382.963 1514.24 Q385.417 1513.66 387.454 1513.66 Q392.824 1513.66 396.019 1516.35 Q399.213 1519.03 399.213 1523.52 Q399.213 1525.65 398.403 1527.57 Q397.616 1529.47 395.51 1532.07 Q394.931 1532.74 391.829 1535.95 Q388.727 1539.15 383.079 1544.91 Z" fill="#000000" fill-rule="nonzero" fill-opacity="1" /><path clip-path="url(#clip050)" d="M419.213 1517.37 Q415.602 1517.37 413.773 1520.93 Q411.968 1524.47 411.968 1531.6 Q411.968 1538.71 413.773 1542.27 Q415.602 1545.82 419.213 1545.82 Q422.847 1545.82 424.653 1542.27 Q426.482 1538.71 426.482 1531.6 Q426.482 1524.47 424.653 1520.93 Q422.847 1517.37 419.213 1517.37 M419.213 1513.66 Q425.023 1513.66 428.079 1518.27 Q431.157 1522.85 431.157 1531.6 Q431.157 1540.33 428.079 1544.94 Q425.023 1549.52 419.213 1549.52 Q413.403 1549.52 410.324 1544.94 Q407.269 1540.33 407.269 1531.6 Q407.269 1522.85 410.324 1518.27 Q413.403 1513.66 419.213 1513.66 Z" fill="#000000" fill-rule="nonzero" fill-opacity="1" /><path clip-path="url(#clip050)" d="M632.299 1518.36 L620.493 1536.81 L632.299 1536.81 L632.299 1518.36 M631.072 1514.29 L636.951 1514.29 L636.951 1536.81 L641.882 1536.81 L641.882 1540.7 L636.951 1540.7 L636.951 1548.85 L632.299 1548.85 L632.299 1540.7 L616.697 1540.7 L616.697 1536.19 L631.072 1514.29 Z" fill="#000000" fill-rule="nonzero" fill-opacity="1" /><path clip-path="url(#clip050)" d="M659.613 1517.37 Q656.002 1517.37 654.173 1520.93 Q652.368 1524.47 652.368 1531.6 Q652.368 1538.71 654.173 1542.27 Q656.002 1545.82 659.613 1545.82 Q663.247 1545.82 665.053 1542.27 Q666.882 1538.71 666.882 1531.6 Q666.882 1524.47 665.053 1520.93 Q663.247 1517.37 659.613 1517.37 M659.613 1513.66 Q665.423 1513.66 668.479 1518.27 Q671.558 1522.85 671.558 1531.6 Q671.558 1540.33 668.479 1544.94 Q665.423 1549.52 659.613 1549.52 Q653.803 1549.52 650.724 1544.94 Q647.669 1540.33 647.669 1531.6 Q647.669 1522.85 650.724 1518.27 Q653.803 1513.66 659.613 1513.66 Z" fill="#000000" fill-rule="nonzero" fill-opacity="1" /><path clip-path="url(#clip050)" d="M869.354 1529.7 Q866.206 1529.7 864.354 1531.86 Q862.525 1534.01 862.525 1537.76 Q862.525 1541.49 864.354 1543.66 Q866.206 1545.82 869.354 1545.82 Q872.502 1545.82 874.331 1543.66 Q876.182 1541.49 876.182 1537.76 Q876.182 1534.01 874.331 1531.86 Q872.502 1529.7 869.354 1529.7 M878.636 1515.05 L878.636 1519.31 Q876.877 1518.48 875.071 1518.04 Q873.289 1517.6 871.53 1517.6 Q866.9 1517.6 864.446 1520.72 Q862.016 1523.85 861.669 1530.17 Q863.034 1528.15 865.094 1527.09 Q867.155 1526 869.631 1526 Q874.84 1526 877.849 1529.17 Q880.881 1532.32 880.881 1537.76 Q880.881 1543.08 877.733 1546.3 Q874.585 1549.52 869.354 1549.52 Q863.358 1549.52 860.187 1544.94 Q857.016 1540.33 857.016 1531.6 Q857.016 1523.41 860.905 1518.55 Q864.794 1513.66 871.344 1513.66 Q873.104 1513.66 874.886 1514.01 Q876.692 1514.36 878.636 1515.05 Z" fill="#000000" fill-rule="nonzero" fill-opacity="1" /><path clip-path="url(#clip050)" d="M898.937 1517.37 Q895.326 1517.37 893.497 1520.93 Q891.692 1524.47 891.692 1531.6 Q891.692 1538.71 893.497 1542.27 Q895.326 1545.82 898.937 1545.82 Q902.571 1545.82 904.377 1542.27 Q906.205 1538.71 906.205 1531.6 Q906.205 1524.47 904.377 1520.93 Q902.571 1517.37 898.937 1517.37 M898.937 1513.66 Q904.747 1513.66 907.803 1518.27 Q910.881 1522.85 910.881 1531.6 Q910.881 1540.33 907.803 1544.94 Q904.747 1549.52 898.937 1549.52 Q893.127 1549.52 890.048 1544.94 Q886.993 1540.33 886.993 1531.6 Q886.993 1522.85 890.048 1518.27 Q893.127 1513.66 898.937 1513.66 Z" fill="#000000" fill-rule="nonzero" fill-opacity="1" /><path clip-path="url(#clip050)" d="M1108.64 1532.44 Q1105.31 1532.44 1103.39 1534.22 Q1101.49 1536 1101.49 1539.13 Q1101.49 1542.25 1103.39 1544.03 Q1105.31 1545.82 1108.64 1545.82 Q1111.98 1545.82 1113.9 1544.03 Q1115.82 1542.23 1115.82 1539.13 Q1115.82 1536 1113.9 1534.22 Q1112 1532.44 1108.64 1532.44 M1103.97 1530.45 Q1100.96 1529.7 1099.27 1527.64 Q1097.6 1525.58 1097.6 1522.62 Q1097.6 1518.48 1100.54 1516.07 Q1103.5 1513.66 1108.64 1513.66 Q1113.8 1513.66 1116.74 1516.07 Q1119.68 1518.48 1119.68 1522.62 Q1119.68 1525.58 1117.99 1527.64 Q1116.33 1529.7 1113.34 1530.45 Q1116.72 1531.23 1118.6 1533.52 Q1120.49 1535.82 1120.49 1539.13 Q1120.49 1544.15 1117.42 1546.83 Q1114.36 1549.52 1108.64 1549.52 Q1102.93 1549.52 1099.85 1546.83 Q1096.79 1544.15 1096.79 1539.13 Q1096.79 1535.82 1098.69 1533.52 Q1100.59 1531.23 1103.97 1530.45 M1102.25 1523.06 Q1102.25 1525.75 1103.92 1527.25 Q1105.61 1528.76 1108.64 1528.76 Q1111.65 1528.76 1113.34 1527.25 Q1115.05 1525.75 1115.05 1523.06 Q1115.05 1520.38 1113.34 1518.87 Q1111.65 1517.37 1108.64 1517.37 Q1105.61 1517.37 1103.92 1518.87 Q1102.25 1520.38 1102.25 1523.06 Z" fill="#000000" fill-rule="nonzero" fill-opacity="1" /><path clip-path="url(#clip050)" d="M1138.8 1517.37 Q1135.19 1517.37 1133.36 1520.93 Q1131.56 1524.47 1131.56 1531.6 Q1131.56 1538.71 1133.36 1542.27 Q1135.19 1545.82 1138.8 1545.82 Q1142.44 1545.82 1144.24 1542.27 Q1146.07 1538.71 1146.07 1531.6 Q1146.07 1524.47 1144.24 1520.93 Q1142.44 1517.37 1138.8 1517.37 M1138.8 1513.66 Q1144.61 1513.66 1147.67 1518.27 Q1150.75 1522.85 1150.75 1531.6 Q1150.75 1540.33 1147.67 1544.94 Q1144.61 1549.52 1138.8 1549.52 Q1132.99 1549.52 1129.92 1544.94 Q1126.86 1540.33 1126.86 1531.6 Q1126.86 1522.85 1129.92 1518.27 Q1132.99 1513.66 1138.8 1513.66 Z" fill="#000000" fill-rule="nonzero" fill-opacity="1" /><polyline clip-path="url(#clip050)" style="stroke:#000000; stroke-linecap:round; stroke-linejoin:round; stroke-width:4; stroke-opacity:1; fill:none" points="148.057,1486.45 148.057,47.2441 "/>
<polyline clip-path="url(#clip050)" style="stroke:#000000; stroke-linecap:round; stroke-linejoin:round; stroke-width:4; stroke-opacity:1; fill:none" points="148.057,1196.78 166.954,1196.78 "/>
<polyline clip-path="url(#clip050)" style="stroke:#000000; stroke-linecap:round; stroke-linejoin:round; stroke-width:4; stroke-opacity:1; fill:none" points="148.057,897.115 166.954,897.115 "/>
<polyline clip-path="url(#clip050)" style="stroke:#000000; stroke-linecap:round; stroke-linejoin:round; stroke-width:4; stroke-opacity:1; fill:none" points="148.057,597.446 166.954,597.446 "/>
<polyline clip-path="url(#clip050)" style="stroke:#000000; stroke-linecap:round; stroke-linejoin:round; stroke-width:4; stroke-opacity:1; fill:none" points="148.057,297.776 166.954,297.776 "/>
<path clip-path="url(#clip050)" d="M50.9921 1197.24 L80.6679 1197.24 L80.6679 1201.17 L50.9921 1201.17 L50.9921 1197.24 Z" fill="#000000" fill-rule="nonzero" fill-opacity="1" /><path clip-path="url(#clip050)" d="M104.927 1195.43 Q108.283 1196.15 110.158 1198.42 Q112.057 1200.68 112.057 1204.02 Q112.057 1209.13 108.538 1211.93 Q105.02 1214.74 98.5382 1214.74 Q96.3623 1214.74 94.0475 1214.3 Q91.7558 1213.88 89.3021 1213.02 L89.3021 1208.51 Q91.2465 1209.64 93.5613 1210.22 Q95.8761 1210.8 98.3993 1210.8 Q102.797 1210.8 105.089 1209.06 Q107.404 1207.33 107.404 1204.02 Q107.404 1200.96 105.251 1199.25 Q103.121 1197.51 99.3021 1197.51 L95.2743 1197.51 L95.2743 1193.67 L99.4872 1193.67 Q102.936 1193.67 104.765 1192.3 Q106.594 1190.92 106.594 1188.32 Q106.594 1185.66 104.696 1184.25 Q102.821 1182.81 99.3021 1182.81 Q97.3808 1182.81 95.1817 1183.23 Q92.9826 1183.65 90.3438 1184.53 L90.3438 1180.36 Q93.0058 1179.62 95.3206 1179.25 Q97.6585 1178.88 99.7187 1178.88 Q105.043 1178.88 108.145 1181.31 Q111.246 1183.72 111.246 1187.84 Q111.246 1190.71 109.603 1192.7 Q107.959 1194.67 104.927 1195.43 Z" fill="#000000" fill-rule="nonzero" fill-opacity="1" /><path clip-path="url(#clip050)" d="M100.112 882.913 Q96.5011 882.913 94.6724 886.478 Q92.8669 890.02 92.8669 897.149 Q92.8669 904.256 94.6724 907.821 Q96.5011 911.362 100.112 911.362 Q103.746 911.362 105.552 907.821 Q107.381 904.256 107.381 897.149 Q107.381 890.02 105.552 886.478 Q103.746 882.913 100.112 882.913 M100.112 879.21 Q105.922 879.21 108.978 883.816 Q112.057 888.399 112.057 897.149 Q112.057 905.876 108.978 910.483 Q105.922 915.066 100.112 915.066 Q94.3021 915.066 91.2234 910.483 Q88.1679 905.876 88.1679 897.149 Q88.1679 888.399 91.2234 883.816 Q94.3021 879.21 100.112 879.21 Z" fill="#000000" fill-rule="nonzero" fill-opacity="1" /><path clip-path="url(#clip050)" d="M104.927 596.091 Q108.283 596.809 110.158 599.077 Q112.057 601.346 112.057 604.679 Q112.057 609.795 108.538 612.596 Q105.02 615.397 98.5382 615.397 Q96.3623 615.397 94.0475 614.957 Q91.7558 614.54 89.3021 613.684 L89.3021 609.17 Q91.2465 610.304 93.5613 610.883 Q95.8761 611.462 98.3993 611.462 Q102.797 611.462 105.089 609.726 Q107.404 607.989 107.404 604.679 Q107.404 601.624 105.251 599.911 Q103.121 598.175 99.3021 598.175 L95.2743 598.175 L95.2743 594.332 L99.4872 594.332 Q102.936 594.332 104.765 592.966 Q106.594 591.577 106.594 588.985 Q106.594 586.323 104.696 584.911 Q102.821 583.476 99.3021 583.476 Q97.3808 583.476 95.1817 583.892 Q92.9826 584.309 90.3438 585.189 L90.3438 581.022 Q93.0058 580.281 95.3206 579.911 Q97.6585 579.541 99.7187 579.541 Q105.043 579.541 108.145 581.971 Q111.246 584.378 111.246 588.499 Q111.246 591.369 109.603 593.36 Q107.959 595.327 104.927 596.091 Z" fill="#000000" fill-rule="nonzero" fill-opacity="1" /><path clip-path="url(#clip050)" d="M100.529 295.913 Q97.3808 295.913 95.5289 298.066 Q93.7002 300.218 93.7002 303.968 Q93.7002 307.695 95.5289 309.871 Q97.3808 312.024 100.529 312.024 Q103.677 312.024 105.506 309.871 Q107.358 307.695 107.358 303.968 Q107.358 300.218 105.506 298.066 Q103.677 295.913 100.529 295.913 M109.811 281.26 L109.811 285.519 Q108.052 284.686 106.246 284.246 Q104.464 283.806 102.705 283.806 Q98.0752 283.806 95.6215 286.931 Q93.191 290.056 92.8438 296.376 Q94.2095 294.362 96.2697 293.297 Q98.3298 292.209 100.807 292.209 Q106.015 292.209 109.024 295.38 Q112.057 298.529 112.057 303.968 Q112.057 309.292 108.908 312.51 Q105.76 315.728 100.529 315.728 Q94.5336 315.728 91.3623 311.144 Q88.191 306.538 88.191 297.811 Q88.191 289.617 92.0799 284.756 Q95.9687 279.871 102.52 279.871 Q104.279 279.871 106.061 280.219 Q107.867 280.566 109.811 281.26 Z" fill="#000000" fill-rule="nonzero" fill-opacity="1" /><polyline clip-path="url(#clip052)" style="stroke:#009af9; stroke-linecap:round; stroke-linejoin:round; stroke-width:4; stroke-opacity:1; fill:none" points="176.475,1115.19 188.467,1136.05 200.458,1128.77 212.449,1110.57 224.44,1078.7 236.431,1019.61 248.422,948.407 260.413,897.717 272.404,855.359 284.395,835.095 296.386,812.925 308.377,828.731 320.368,836.841 332.359,867.026 344.35,880.21 356.341,875.388 368.333,877.344 380.324,877.964 392.315,874.09 404.306,870.329 416.297,880.703 428.288,866.234 440.279,859.402 452.27,847.891 464.261,873.632 476.252,882.184 488.243,905.016 500.234,923.895 512.225,940.433 524.216,950.048 536.208,985.632 548.199,1007.44 560.19,1019.8 572.181,1029.42 584.172,1021.42 596.163,993.527 608.154,968.195 620.145,931.274 632.136,865.514 644.127,829.14 656.118,804.474 668.109,787.002 680.1,779.274 692.091,809.454 704.083,833.962 716.074,851.358 728.065,847.714 740.056,844.5 752.047,825.331 764.038,813.504 776.029,785.738 788.02,783.929 800.011,782.457 812.002,783.389 823.993,760.745 835.984,719.644 847.975,688.956 859.966,667.577 871.957,605.719 883.949,610.319 895.94,606.463 907.931,629.194 919.922,642.339 931.913,647.531 943.904,644.462 955.895,655.12 967.886,644.702 979.877,645.327 991.868,648.32 1003.86,663.817 1015.85,670.488 1027.84,702.626 1039.83,731.96 1051.82,765.202 1063.81,785.97 1075.81,842.472 1087.8,866.393 1099.79,905.832 1111.78,938.194 1123.77,982.638 "/>
<polyline clip-path="url(#clip052)" style="stroke:#e26f46; stroke-linecap:round; stroke-linejoin:round; stroke-width:4; stroke-opacity:1; fill:none" points="176.475,1114.74 188.467,1123.73 200.458,1118.15 212.449,1111.39 224.44,1103.77 236.431,1044.71 248.422,985.6 260.413,948.996 272.404,898.491 284.395,895.093 296.386,880.281 308.377,890.433 320.368,898.026 332.359,906.153 344.35,909.039 356.341,905.373 368.333,903.811 380.324,887.875 392.315,888.742 404.306,868.543 416.297,883.132 428.288,870.037 440.279,867.539 452.27,848.708 464.261,862.806 476.252,887.809 488.243,916.514 500.234,934.432 512.225,954.181 524.216,967.517 536.208,1004.28 548.199,1026.62 560.19,1067.57 572.181,1084.72 584.172,1094.68 596.163,1051.44 608.154,1033.16 620.145,985.256 632.136,915.226 644.127,869.235 656.118,828.542 668.109,821.555 680.1,796.802 692.091,813.626 704.083,822.095 716.074,840.057 728.065,817.018 740.056,816.796 752.047,794.518 764.038,778.262 776.029,759.911 788.02,769.978 800.011,749.834 812.002,732.972 823.993,705.16 835.984,663.451 847.975,620.164 859.966,590.569 871.957,524.651 883.949,536.811 895.94,541.623 907.931,577.557 919.922,597.62 931.913,606.636 943.904,593.816 955.895,598.575 967.886,605.704 979.877,601.607 991.868,615.681 1003.86,647.417 1015.85,657.852 1027.84,684.842 1039.83,722.725 1051.82,769.099 1063.81,792.422 1075.81,844.289 1087.8,866.621 1099.79,911.106 1111.78,944.796 1123.77,982.804 "/>
<polyline clip-path="url(#clip052)" style="stroke:#3da44d; stroke-linecap:round; stroke-linejoin:round; stroke-width:4; stroke-opacity:1; fill:none" points="176.475,1063.49 188.467,1207.48 200.458,1400.1 212.449,1445.72 224.44,1367.4 236.431,1279.59 248.422,1279.92 260.413,1127.58 272.404,1059.35 284.395,1210.1 296.386,1230.28 308.377,1102.02 320.368,989.956 332.359,920.108 344.35,999.492 356.341,937.217 368.333,978.078 380.324,1082.37 392.315,1061.58 404.306,1025.06 416.297,1039.37 428.288,1086.16 440.279,1079.03 452.27,1101.86 464.261,1174.81 476.252,1271.35 488.243,1176.52 500.234,1109.15 512.225,1109.55 524.216,1051.45 536.208,942.798 548.199,1119.28 560.19,1077.09 572.181,1136.39 584.172,1087.1 596.163,846.747 608.154,562.497 620.145,625.637 632.136,631.756 644.127,604.103 656.118,511.674 668.109,328.357 680.1,344.412 692.091,330.717 704.083,439.087 716.074,526.643 728.065,486.963 740.056,417.643 752.047,488.572 764.038,455.836 776.029,471.607 788.02,480.374 800.011,305.1 812.002,346.516 823.993,277.541 835.984,210.834 847.975,87.9763 859.966,187.07 871.957,204.625 883.949,331.251 895.94,399.438 907.931,380.829 919.922,460.829 931.913,484.022 943.904,562.602 955.895,441.462 967.886,466.417 979.877,412.157 991.868,487.532 1003.86,518.897 1015.85,287.339 1027.84,334.097 1039.83,355.567 1051.82,346.675 1063.81,347.936 1075.81,412.325 1087.8,334.26 1099.79,514.289 1111.78,452.085 1123.77,678.678 "/>
<path clip-path="url(#clip050)" d="M181.528 302.578 L643.606 302.578 L643.606 95.2176 L181.528 95.2176  Z" fill="#ffffff" fill-rule="evenodd" fill-opacity="1"/>
<polyline clip-path="url(#clip050)" style="stroke:#000000; stroke-linecap:round; stroke-linejoin:round; stroke-width:4; stroke-opacity:1; fill:none" points="181.528,302.578 643.606,302.578 643.606,95.2176 181.528,95.2176 181.528,302.578 "/>
<polyline clip-path="url(#clip050)" style="stroke:#009af9; stroke-linecap:round; stroke-linejoin:round; stroke-width:4; stroke-opacity:1; fill:none" points="192.685,147.058 259.627,147.058 "/>
<path clip-path="url(#clip050)" d="M270.784 129.778 L275.46 129.778 L275.46 144.384 L290.969 129.778 L296.987 129.778 L279.835 145.889 L298.214 164.338 L292.057 164.338 L275.46 147.694 L275.46 164.338 L270.784 164.338 L270.784 129.778 Z" fill="#000000" fill-rule="nonzero" fill-opacity="1" /><path clip-path="url(#clip050)" d="M312.636 151.305 Q307.473 151.305 305.483 152.486 Q303.492 153.666 303.492 156.514 Q303.492 158.782 304.974 160.125 Q306.478 161.444 309.048 161.444 Q312.589 161.444 314.719 158.944 Q316.872 156.421 316.872 152.254 L316.872 151.305 L312.636 151.305 M321.131 149.546 L321.131 164.338 L316.872 164.338 L316.872 160.402 Q315.413 162.763 313.237 163.898 Q311.061 165.009 307.913 165.009 Q303.932 165.009 301.571 162.787 Q299.233 160.541 299.233 156.791 Q299.233 152.416 302.149 150.194 Q305.089 147.972 310.899 147.972 L316.872 147.972 L316.872 147.555 Q316.872 144.615 314.927 143.018 Q313.006 141.398 309.511 141.398 Q307.288 141.398 305.182 141.93 Q303.075 142.463 301.131 143.527 L301.131 139.592 Q303.469 138.69 305.668 138.25 Q307.867 137.787 309.95 137.787 Q315.575 137.787 318.353 140.703 Q321.131 143.62 321.131 149.546 Z" fill="#000000" fill-rule="nonzero" fill-opacity="1" /><path clip-path="url(#clip050)" d="M329.904 128.319 L334.163 128.319 L334.163 164.338 L329.904 164.338 L329.904 128.319 Z" fill="#000000" fill-rule="nonzero" fill-opacity="1" /><path clip-path="url(#clip050)" d="M363.26 143.389 Q364.857 140.518 367.08 139.153 Q369.302 137.787 372.311 137.787 Q376.362 137.787 378.561 140.634 Q380.76 143.458 380.76 148.689 L380.76 164.338 L376.478 164.338 L376.478 148.828 Q376.478 145.102 375.158 143.296 Q373.839 141.49 371.131 141.49 Q367.82 141.49 365.899 143.69 Q363.978 145.889 363.978 149.685 L363.978 164.338 L359.695 164.338 L359.695 148.828 Q359.695 145.078 358.376 143.296 Q357.057 141.49 354.302 141.49 Q351.038 141.49 349.117 143.713 Q347.196 145.912 347.196 149.685 L347.196 164.338 L342.913 164.338 L342.913 138.412 L347.196 138.412 L347.196 142.44 Q348.654 140.055 350.691 138.921 Q352.728 137.787 355.529 137.787 Q358.353 137.787 360.32 139.222 Q362.311 140.657 363.26 143.389 Z" fill="#000000" fill-rule="nonzero" fill-opacity="1" /><path clip-path="url(#clip050)" d="M401.038 151.305 Q395.876 151.305 393.885 152.486 Q391.894 153.666 391.894 156.514 Q391.894 158.782 393.376 160.125 Q394.88 161.444 397.45 161.444 Q400.992 161.444 403.121 158.944 Q405.274 156.421 405.274 152.254 L405.274 151.305 L401.038 151.305 M409.533 149.546 L409.533 164.338 L405.274 164.338 L405.274 160.402 Q403.816 162.763 401.64 163.898 Q399.464 165.009 396.316 165.009 Q392.334 165.009 389.973 162.787 Q387.635 160.541 387.635 156.791 Q387.635 152.416 390.552 150.194 Q393.492 147.972 399.302 147.972 L405.274 147.972 L405.274 147.555 Q405.274 144.615 403.329 143.018 Q401.408 141.398 397.913 141.398 Q395.691 141.398 393.584 141.93 Q391.478 142.463 389.533 143.527 L389.533 139.592 Q391.871 138.69 394.07 138.25 Q396.269 137.787 398.353 137.787 Q403.978 137.787 406.755 140.703 Q409.533 143.62 409.533 149.546 Z" fill="#000000" fill-rule="nonzero" fill-opacity="1" /><path clip-path="url(#clip050)" d="M439.857 148.689 L439.857 164.338 L435.598 164.338 L435.598 148.828 Q435.598 145.148 434.163 143.319 Q432.727 141.49 429.857 141.49 Q426.408 141.49 424.417 143.69 Q422.427 145.889 422.427 149.685 L422.427 164.338 L418.144 164.338 L418.144 138.412 L422.427 138.412 L422.427 142.44 Q423.954 140.102 426.015 138.944 Q428.098 137.787 430.806 137.787 Q435.274 137.787 437.565 140.565 Q439.857 143.319 439.857 148.689 Z" fill="#000000" fill-rule="nonzero" fill-opacity="1" /><path clip-path="url(#clip050)" d="M479.949 139.176 L479.949 143.203 Q478.144 142.277 476.199 141.815 Q474.255 141.352 472.172 141.352 Q469 141.352 467.403 142.324 Q465.829 143.296 465.829 145.24 Q465.829 146.722 466.963 147.578 Q468.098 148.412 471.524 149.176 L472.982 149.5 Q477.519 150.472 479.417 152.254 Q481.338 154.014 481.338 157.185 Q481.338 160.796 478.468 162.902 Q475.621 165.009 470.621 165.009 Q468.537 165.009 466.269 164.592 Q464.024 164.199 461.524 163.388 L461.524 158.99 Q463.885 160.217 466.176 160.842 Q468.468 161.444 470.713 161.444 Q473.723 161.444 475.343 160.426 Q476.963 159.384 476.963 157.509 Q476.963 155.773 475.783 154.847 Q474.625 153.921 470.667 153.064 L469.186 152.717 Q465.227 151.884 463.468 150.171 Q461.709 148.435 461.709 145.426 Q461.709 141.768 464.301 139.778 Q466.894 137.787 471.662 137.787 Q474.024 137.787 476.107 138.134 Q478.19 138.481 479.949 139.176 Z" fill="#000000" fill-rule="nonzero" fill-opacity="1" /><path clip-path="url(#clip050)" d="M508.306 143.389 Q509.903 140.518 512.125 139.153 Q514.347 137.787 517.357 137.787 Q521.408 137.787 523.607 140.634 Q525.806 143.458 525.806 148.689 L525.806 164.338 L521.523 164.338 L521.523 148.828 Q521.523 145.102 520.204 143.296 Q518.884 141.49 516.176 141.49 Q512.866 141.49 510.945 143.69 Q509.023 145.889 509.023 149.685 L509.023 164.338 L504.741 164.338 L504.741 148.828 Q504.741 145.078 503.422 143.296 Q502.102 141.49 499.347 141.49 Q496.084 141.49 494.162 143.713 Q492.241 145.912 492.241 149.685 L492.241 164.338 L487.959 164.338 L487.959 138.412 L492.241 138.412 L492.241 142.44 Q493.699 140.055 495.736 138.921 Q497.773 137.787 500.574 137.787 Q503.398 137.787 505.366 139.222 Q507.357 140.657 508.306 143.389 Z" fill="#000000" fill-rule="nonzero" fill-opacity="1" /><path clip-path="url(#clip050)" d="M544.347 141.398 Q540.921 141.398 538.931 144.083 Q536.94 146.745 536.94 151.398 Q536.94 156.051 538.907 158.736 Q540.898 161.398 544.347 161.398 Q547.75 161.398 549.741 158.713 Q551.731 156.027 551.731 151.398 Q551.731 146.791 549.741 144.106 Q547.75 141.398 544.347 141.398 M544.347 137.787 Q549.903 137.787 553.074 141.398 Q556.245 145.009 556.245 151.398 Q556.245 157.764 553.074 161.398 Q549.903 165.009 544.347 165.009 Q538.769 165.009 535.597 161.398 Q532.449 157.764 532.449 151.398 Q532.449 145.009 535.597 141.398 Q538.769 137.787 544.347 137.787 Z" fill="#000000" fill-rule="nonzero" fill-opacity="1" /><path clip-path="url(#clip050)" d="M573.352 141.398 Q569.926 141.398 567.935 144.083 Q565.944 146.745 565.944 151.398 Q565.944 156.051 567.912 158.736 Q569.903 161.398 573.352 161.398 Q576.754 161.398 578.745 158.713 Q580.736 156.027 580.736 151.398 Q580.736 146.791 578.745 144.106 Q576.754 141.398 573.352 141.398 M573.352 137.787 Q578.907 137.787 582.079 141.398 Q585.25 145.009 585.25 151.398 Q585.25 157.764 582.079 161.398 Q578.907 165.009 573.352 165.009 Q567.773 165.009 564.602 161.398 Q561.454 157.764 561.454 151.398 Q561.454 145.009 564.602 141.398 Q567.773 137.787 573.352 137.787 Z" fill="#000000" fill-rule="nonzero" fill-opacity="1" /><path clip-path="url(#clip050)" d="M596.523 131.051 L596.523 138.412 L605.296 138.412 L605.296 141.722 L596.523 141.722 L596.523 155.796 Q596.523 158.967 597.379 159.87 Q598.259 160.773 600.921 160.773 L605.296 160.773 L605.296 164.338 L600.921 164.338 Q595.99 164.338 594.115 162.509 Q592.24 160.657 592.24 155.796 L592.24 141.722 L589.116 141.722 L589.116 138.412 L592.24 138.412 L592.24 131.051 L596.523 131.051 Z" fill="#000000" fill-rule="nonzero" fill-opacity="1" /><path clip-path="url(#clip050)" d="M632.449 148.689 L632.449 164.338 L628.189 164.338 L628.189 148.828 Q628.189 145.148 626.754 143.319 Q625.319 141.49 622.449 141.49 Q619 141.49 617.009 143.69 Q615.018 145.889 615.018 149.685 L615.018 164.338 L610.736 164.338 L610.736 128.319 L615.018 128.319 L615.018 142.44 Q616.546 140.102 618.606 138.944 Q620.689 137.787 623.398 137.787 Q627.865 137.787 630.157 140.565 Q632.449 143.319 632.449 148.689 Z" fill="#000000" fill-rule="nonzero" fill-opacity="1" /><polyline clip-path="url(#clip050)" style="stroke:#e26f46; stroke-linecap:round; stroke-linejoin:round; stroke-width:4; stroke-opacity:1; fill:none" points="192.685,198.898 259.627,198.898 "/>
<path clip-path="url(#clip050)" d="M275.066 212.289 L275.066 226.039 L270.784 226.039 L270.784 190.252 L275.066 190.252 L275.066 194.187 Q276.409 191.872 278.446 190.761 Q280.506 189.627 283.353 189.627 Q288.075 189.627 291.015 193.377 Q293.978 197.127 293.978 203.238 Q293.978 209.349 291.015 213.099 Q288.075 216.849 283.353 216.849 Q280.506 216.849 278.446 215.738 Q276.409 214.603 275.066 212.289 M289.557 203.238 Q289.557 198.539 287.612 195.877 Q285.691 193.192 282.312 193.192 Q278.932 193.192 276.988 195.877 Q275.066 198.539 275.066 203.238 Q275.066 207.937 276.988 210.622 Q278.932 213.284 282.312 213.284 Q285.691 213.284 287.612 210.622 Q289.557 207.937 289.557 203.238 Z" fill="#000000" fill-rule="nonzero" fill-opacity="1" /><path clip-path="url(#clip050)" d="M314.163 180.159 L314.163 183.701 L310.089 183.701 Q307.798 183.701 306.895 184.627 Q306.015 185.553 306.015 187.96 L306.015 190.252 L313.029 190.252 L313.029 193.562 L306.015 193.562 L306.015 216.178 L301.733 216.178 L301.733 193.562 L297.659 193.562 L297.659 190.252 L301.733 190.252 L301.733 188.446 Q301.733 184.118 303.747 182.15 Q305.761 180.159 310.136 180.159 L314.163 180.159 Z" fill="#000000" fill-rule="nonzero" fill-opacity="1" /><path clip-path="url(#clip050)" d="M349.325 191.016 L349.325 195.043 Q347.52 194.117 345.575 193.655 Q343.631 193.192 341.547 193.192 Q338.376 193.192 336.779 194.164 Q335.205 195.136 335.205 197.08 Q335.205 198.562 336.339 199.418 Q337.473 200.252 340.899 201.016 L342.358 201.34 Q346.895 202.312 348.793 204.094 Q350.714 205.854 350.714 209.025 Q350.714 212.636 347.844 214.742 Q344.996 216.849 339.996 216.849 Q337.913 216.849 335.645 216.432 Q333.399 216.039 330.899 215.228 L330.899 210.83 Q333.26 212.057 335.552 212.682 Q337.844 213.284 340.089 213.284 Q343.098 213.284 344.719 212.266 Q346.339 211.224 346.339 209.349 Q346.339 207.613 345.158 206.687 Q344.001 205.761 340.043 204.904 L338.561 204.557 Q334.603 203.724 332.844 202.011 Q331.084 200.275 331.084 197.266 Q331.084 193.608 333.677 191.618 Q336.27 189.627 341.038 189.627 Q343.399 189.627 345.483 189.974 Q347.566 190.321 349.325 191.016 Z" fill="#000000" fill-rule="nonzero" fill-opacity="1" /><path clip-path="url(#clip050)" d="M377.681 195.229 Q379.279 192.358 381.501 190.993 Q383.723 189.627 386.732 189.627 Q390.783 189.627 392.982 192.474 Q395.181 195.298 395.181 200.529 L395.181 216.178 L390.899 216.178 L390.899 200.668 Q390.899 196.942 389.58 195.136 Q388.26 193.33 385.552 193.33 Q382.242 193.33 380.32 195.53 Q378.399 197.729 378.399 201.525 L378.399 216.178 L374.117 216.178 L374.117 200.668 Q374.117 196.918 372.797 195.136 Q371.478 193.33 368.723 193.33 Q365.459 193.33 363.538 195.553 Q361.617 197.752 361.617 201.525 L361.617 216.178 L357.334 216.178 L357.334 190.252 L361.617 190.252 L361.617 194.28 Q363.075 191.895 365.112 190.761 Q367.149 189.627 369.95 189.627 Q372.774 189.627 374.742 191.062 Q376.732 192.497 377.681 195.229 Z" fill="#000000" fill-rule="nonzero" fill-opacity="1" /><path clip-path="url(#clip050)" d="M413.723 193.238 Q410.297 193.238 408.306 195.923 Q406.316 198.585 406.316 203.238 Q406.316 207.891 408.283 210.576 Q410.274 213.238 413.723 213.238 Q417.126 213.238 419.116 210.553 Q421.107 207.867 421.107 203.238 Q421.107 198.631 419.116 195.946 Q417.126 193.238 413.723 193.238 M413.723 189.627 Q419.278 189.627 422.45 193.238 Q425.621 196.849 425.621 203.238 Q425.621 209.604 422.45 213.238 Q419.278 216.849 413.723 216.849 Q408.144 216.849 404.973 213.238 Q401.825 209.604 401.825 203.238 Q401.825 196.849 404.973 193.238 Q408.144 189.627 413.723 189.627 Z" fill="#000000" fill-rule="nonzero" fill-opacity="1" /><path clip-path="url(#clip050)" d="M442.727 193.238 Q439.301 193.238 437.311 195.923 Q435.32 198.585 435.32 203.238 Q435.32 207.891 437.288 210.576 Q439.278 213.238 442.727 213.238 Q446.13 213.238 448.121 210.553 Q450.112 207.867 450.112 203.238 Q450.112 198.631 448.121 195.946 Q446.13 193.238 442.727 193.238 M442.727 189.627 Q448.283 189.627 451.454 193.238 Q454.625 196.849 454.625 203.238 Q454.625 209.604 451.454 213.238 Q448.283 216.849 442.727 216.849 Q437.149 216.849 433.977 213.238 Q430.829 209.604 430.829 203.238 Q430.829 196.849 433.977 193.238 Q437.149 189.627 442.727 189.627 Z" fill="#000000" fill-rule="nonzero" fill-opacity="1" /><path clip-path="url(#clip050)" d="M465.899 182.891 L465.899 190.252 L474.672 190.252 L474.672 193.562 L465.899 193.562 L465.899 207.636 Q465.899 210.807 466.755 211.71 Q467.635 212.613 470.297 212.613 L474.672 212.613 L474.672 216.178 L470.297 216.178 Q465.366 216.178 463.491 214.349 Q461.616 212.497 461.616 207.636 L461.616 193.562 L458.491 193.562 L458.491 190.252 L461.616 190.252 L461.616 182.891 L465.899 182.891 Z" fill="#000000" fill-rule="nonzero" fill-opacity="1" /><path clip-path="url(#clip050)" d="M501.824 200.529 L501.824 216.178 L497.565 216.178 L497.565 200.668 Q497.565 196.988 496.13 195.159 Q494.695 193.33 491.824 193.33 Q488.375 193.33 486.385 195.53 Q484.394 197.729 484.394 201.525 L484.394 216.178 L480.111 216.178 L480.111 180.159 L484.394 180.159 L484.394 194.28 Q485.922 191.942 487.982 190.784 Q490.065 189.627 492.773 189.627 Q497.241 189.627 499.533 192.405 Q501.824 195.159 501.824 200.529 Z" fill="#000000" fill-rule="nonzero" fill-opacity="1" /><polyline clip-path="url(#clip050)" style="stroke:#3da44d; stroke-linecap:round; stroke-linejoin:round; stroke-width:4; stroke-opacity:1; fill:none" points="192.685,250.738 259.627,250.738 "/>
<path clip-path="url(#clip050)" d="M278.191 234.731 L278.191 242.092 L286.964 242.092 L286.964 245.402 L278.191 245.402 L278.191 259.476 Q278.191 262.647 279.048 263.55 Q279.927 264.453 282.589 264.453 L286.964 264.453 L286.964 268.018 L282.589 268.018 Q277.659 268.018 275.784 266.189 Q273.909 264.337 273.909 259.476 L273.909 245.402 L270.784 245.402 L270.784 242.092 L273.909 242.092 L273.909 234.731 L278.191 234.731 Z" fill="#000000" fill-rule="nonzero" fill-opacity="1" /><path clip-path="url(#clip050)" d="M307.589 246.073 Q306.872 245.657 306.015 245.471 Q305.182 245.263 304.163 245.263 Q300.552 245.263 298.608 247.624 Q296.687 249.962 296.687 254.36 L296.687 268.018 L292.404 268.018 L292.404 242.092 L296.687 242.092 L296.687 246.12 Q298.029 243.758 300.182 242.624 Q302.335 241.467 305.413 241.467 Q305.853 241.467 306.386 241.536 Q306.918 241.583 307.566 241.698 L307.589 246.073 Z" fill="#000000" fill-rule="nonzero" fill-opacity="1" /><path clip-path="url(#clip050)" d="M311.617 257.786 L311.617 242.092 L315.876 242.092 L315.876 257.624 Q315.876 261.305 317.311 263.156 Q318.747 264.985 321.617 264.985 Q325.066 264.985 327.057 262.786 Q329.071 260.587 329.071 256.791 L329.071 242.092 L333.33 242.092 L333.33 268.018 L329.071 268.018 L329.071 264.036 Q327.52 266.397 325.46 267.555 Q323.422 268.689 320.714 268.689 Q316.247 268.689 313.932 265.911 Q311.617 263.133 311.617 257.786 M322.335 241.467 L322.335 241.467 Z" fill="#000000" fill-rule="nonzero" fill-opacity="1" /><path clip-path="url(#clip050)" d="M364.279 253.99 L364.279 256.073 L344.696 256.073 Q344.973 260.471 347.334 262.786 Q349.719 265.078 353.955 265.078 Q356.408 265.078 358.7 264.476 Q361.015 263.874 363.283 262.67 L363.283 266.698 Q360.992 267.67 358.584 268.18 Q356.177 268.689 353.7 268.689 Q347.496 268.689 343.862 265.078 Q340.251 261.467 340.251 255.309 Q340.251 248.944 343.677 245.217 Q347.126 241.467 352.959 241.467 Q358.191 241.467 361.223 244.846 Q364.279 248.203 364.279 253.99 M360.02 252.74 Q359.973 249.245 358.052 247.161 Q356.154 245.078 353.006 245.078 Q349.441 245.078 347.288 247.092 Q345.158 249.106 344.834 252.763 L360.02 252.74 Z" fill="#000000" fill-rule="nonzero" fill-opacity="1" /><path clip-path="url(#clip050)" d="M1348.62 1486.45 L2352.76 1486.45 L2352.76 47.2441 L1348.62 47.2441  Z" fill="#ffffff" fill-rule="evenodd" fill-opacity="1"/>
<defs>
  <clipPath id="clip053">
    <rect x="1348" y="47" width="1005" height="1440"/>
  </clipPath>
</defs>
<polyline clip-path="url(#clip053)" style="stroke:#000000; stroke-linecap:round; stroke-linejoin:round; stroke-width:2; stroke-opacity:0.1; fill:none" points="1365.05,1486.45 1365.05,47.2441 "/>
<polyline clip-path="url(#clip053)" style="stroke:#000000; stroke-linecap:round; stroke-linejoin:round; stroke-width:2; stroke-opacity:0.1; fill:none" points="1604.87,1486.45 1604.87,47.2441 "/>
<polyline clip-path="url(#clip053)" style="stroke:#000000; stroke-linecap:round; stroke-linejoin:round; stroke-width:2; stroke-opacity:0.1; fill:none" points="1844.69,1486.45 1844.69,47.2441 "/>
<polyline clip-path="url(#clip053)" style="stroke:#000000; stroke-linecap:round; stroke-linejoin:round; stroke-width:2; stroke-opacity:0.1; fill:none" points="2084.52,1486.45 2084.52,47.2441 "/>
<polyline clip-path="url(#clip053)" style="stroke:#000000; stroke-linecap:round; stroke-linejoin:round; stroke-width:2; stroke-opacity:0.1; fill:none" points="2324.34,1486.45 2324.34,47.2441 "/>
<polyline clip-path="url(#clip053)" style="stroke:#000000; stroke-linecap:round; stroke-linejoin:round; stroke-width:2; stroke-opacity:0.1; fill:none" points="1348.62,1438.25 2352.76,1438.25 "/>
<polyline clip-path="url(#clip053)" style="stroke:#000000; stroke-linecap:round; stroke-linejoin:round; stroke-width:2; stroke-opacity:0.1; fill:none" points="1348.62,1150.72 2352.76,1150.72 "/>
<polyline clip-path="url(#clip053)" style="stroke:#000000; stroke-linecap:round; stroke-linejoin:round; stroke-width:2; stroke-opacity:0.1; fill:none" points="1348.62,863.2 2352.76,863.2 "/>
<polyline clip-path="url(#clip053)" style="stroke:#000000; stroke-linecap:round; stroke-linejoin:round; stroke-width:2; stroke-opacity:0.1; fill:none" points="1348.62,575.677 2352.76,575.677 "/>
<polyline clip-path="url(#clip053)" style="stroke:#000000; stroke-linecap:round; stroke-linejoin:round; stroke-width:2; stroke-opacity:0.1; fill:none" points="1348.62,288.153 2352.76,288.153 "/>
<polyline clip-path="url(#clip050)" style="stroke:#000000; stroke-linecap:round; stroke-linejoin:round; stroke-width:4; stroke-opacity:1; fill:none" points="1348.62,1486.45 2352.76,1486.45 "/>
<polyline clip-path="url(#clip050)" style="stroke:#000000; stroke-linecap:round; stroke-linejoin:round; stroke-width:4; stroke-opacity:1; fill:none" points="1365.05,1486.45 1365.05,1467.55 "/>
<polyline clip-path="url(#clip050)" style="stroke:#000000; stroke-linecap:round; stroke-linejoin:round; stroke-width:4; stroke-opacity:1; fill:none" points="1604.87,1486.45 1604.87,1467.55 "/>
<polyline clip-path="url(#clip050)" style="stroke:#000000; stroke-linecap:round; stroke-linejoin:round; stroke-width:4; stroke-opacity:1; fill:none" points="1844.69,1486.45 1844.69,1467.55 "/>
<polyline clip-path="url(#clip050)" style="stroke:#000000; stroke-linecap:round; stroke-linejoin:round; stroke-width:4; stroke-opacity:1; fill:none" points="2084.52,1486.45 2084.52,1467.55 "/>
<polyline clip-path="url(#clip050)" style="stroke:#000000; stroke-linecap:round; stroke-linejoin:round; stroke-width:4; stroke-opacity:1; fill:none" points="2324.34,1486.45 2324.34,1467.55 "/>
<path clip-path="url(#clip050)" d="M1365.05 1517.37 Q1361.44 1517.37 1359.61 1520.93 Q1357.81 1524.47 1357.81 1531.6 Q1357.81 1538.71 1359.61 1542.27 Q1361.44 1545.82 1365.05 1545.82 Q1368.69 1545.82 1370.49 1542.27 Q1372.32 1538.71 1372.32 1531.6 Q1372.32 1524.47 1370.49 1520.93 Q1368.69 1517.37 1365.05 1517.37 M1365.05 1513.66 Q1370.86 1513.66 1373.92 1518.27 Q1377 1522.85 1377 1531.6 Q1377 1540.33 1373.92 1544.94 Q1370.86 1549.52 1365.05 1549.52 Q1359.24 1549.52 1356.16 1544.94 Q1353.11 1540.33 1353.11 1531.6 Q1353.11 1522.85 1356.16 1518.27 Q1359.24 1513.66 1365.05 1513.66 Z" fill="#000000" fill-rule="nonzero" fill-opacity="1" /><path clip-path="url(#clip050)" d="M1583.65 1544.91 L1599.97 1544.91 L1599.97 1548.85 L1578.02 1548.85 L1578.02 1544.91 Q1580.68 1542.16 1585.27 1537.53 Q1589.87 1532.88 1591.05 1531.53 Q1593.3 1529.01 1594.18 1527.27 Q1595.08 1525.51 1595.08 1523.82 Q1595.08 1521.07 1593.14 1519.33 Q1591.22 1517.6 1588.11 1517.6 Q1585.91 1517.6 1583.46 1518.36 Q1581.03 1519.13 1578.25 1520.68 L1578.25 1515.95 Q1581.08 1514.82 1583.53 1514.24 Q1585.98 1513.66 1588.02 1513.66 Q1593.39 1513.66 1596.59 1516.35 Q1599.78 1519.03 1599.78 1523.52 Q1599.78 1525.65 1598.97 1527.57 Q1598.18 1529.47 1596.08 1532.07 Q1595.5 1532.74 1592.4 1535.95 Q1589.29 1539.15 1583.65 1544.91 Z" fill="#000000" fill-rule="nonzero" fill-opacity="1" /><path clip-path="url(#clip050)" d="M1619.78 1517.37 Q1616.17 1517.37 1614.34 1520.93 Q1612.53 1524.47 1612.53 1531.6 Q1612.53 1538.71 1614.34 1542.27 Q1616.17 1545.82 1619.78 1545.82 Q1623.41 1545.82 1625.22 1542.27 Q1627.05 1538.71 1627.05 1531.6 Q1627.05 1524.47 1625.22 1520.93 Q1623.41 1517.37 1619.78 1517.37 M1619.78 1513.66 Q1625.59 1513.66 1628.65 1518.27 Q1631.72 1522.85 1631.72 1531.6 Q1631.72 1540.33 1628.65 1544.94 Q1625.59 1549.52 1619.78 1549.52 Q1613.97 1549.52 1610.89 1544.94 Q1607.84 1540.33 1607.84 1531.6 Q1607.84 1522.85 1610.89 1518.27 Q1613.97 1513.66 1619.78 1513.66 Z" fill="#000000" fill-rule="nonzero" fill-opacity="1" /><path clip-path="url(#clip050)" d="M1832.87 1518.36 L1821.06 1536.81 L1832.87 1536.81 L1832.87 1518.36 M1831.64 1514.29 L1837.52 1514.29 L1837.52 1536.81 L1842.45 1536.81 L1842.45 1540.7 L1837.52 1540.7 L1837.52 1548.85 L1832.87 1548.85 L1832.87 1540.7 L1817.26 1540.7 L1817.26 1536.19 L1831.64 1514.29 Z" fill="#000000" fill-rule="nonzero" fill-opacity="1" /><path clip-path="url(#clip050)" d="M1860.18 1517.37 Q1856.57 1517.37 1854.74 1520.93 Q1852.93 1524.47 1852.93 1531.6 Q1852.93 1538.71 1854.74 1542.27 Q1856.57 1545.82 1860.18 1545.82 Q1863.81 1545.82 1865.62 1542.27 Q1867.45 1538.71 1867.45 1531.6 Q1867.45 1524.47 1865.62 1520.93 Q1863.81 1517.37 1860.18 1517.37 M1860.18 1513.66 Q1865.99 1513.66 1869.05 1518.27 Q1872.12 1522.85 1872.12 1531.6 Q1872.12 1540.33 1869.05 1544.94 Q1865.99 1549.52 1860.18 1549.52 Q1854.37 1549.52 1851.29 1544.94 Q1848.24 1540.33 1848.24 1531.6 Q1848.24 1522.85 1851.29 1518.27 Q1854.37 1513.66 1860.18 1513.66 Z" fill="#000000" fill-rule="nonzero" fill-opacity="1" /><path clip-path="url(#clip050)" d="M2069.92 1529.7 Q2066.77 1529.7 2064.92 1531.86 Q2063.09 1534.01 2063.09 1537.76 Q2063.09 1541.49 2064.92 1543.66 Q2066.77 1545.82 2069.92 1545.82 Q2073.07 1545.82 2074.9 1543.66 Q2076.75 1541.49 2076.75 1537.76 Q2076.75 1534.01 2074.9 1531.86 Q2073.07 1529.7 2069.92 1529.7 M2079.2 1515.05 L2079.2 1519.31 Q2077.44 1518.48 2075.64 1518.04 Q2073.86 1517.6 2072.1 1517.6 Q2067.47 1517.6 2065.01 1520.72 Q2062.58 1523.85 2062.24 1530.17 Q2063.6 1528.15 2065.66 1527.09 Q2067.72 1526 2070.2 1526 Q2075.41 1526 2078.42 1529.17 Q2081.45 1532.32 2081.45 1537.76 Q2081.45 1543.08 2078.3 1546.3 Q2075.15 1549.52 2069.92 1549.52 Q2063.93 1549.52 2060.75 1544.94 Q2057.58 1540.33 2057.58 1531.6 Q2057.58 1523.41 2061.47 1518.55 Q2065.36 1513.66 2071.91 1513.66 Q2073.67 1513.66 2075.45 1514.01 Q2077.26 1514.36 2079.2 1515.05 Z" fill="#000000" fill-rule="nonzero" fill-opacity="1" /><path clip-path="url(#clip050)" d="M2099.5 1517.37 Q2095.89 1517.37 2094.06 1520.93 Q2092.26 1524.47 2092.26 1531.6 Q2092.26 1538.71 2094.06 1542.27 Q2095.89 1545.82 2099.5 1545.82 Q2103.14 1545.82 2104.94 1542.27 Q2106.77 1538.71 2106.77 1531.6 Q2106.77 1524.47 2104.94 1520.93 Q2103.14 1517.37 2099.5 1517.37 M2099.5 1513.66 Q2105.31 1513.66 2108.37 1518.27 Q2111.45 1522.85 2111.45 1531.6 Q2111.45 1540.33 2108.37 1544.94 Q2105.31 1549.52 2099.5 1549.52 Q2093.69 1549.52 2090.62 1544.94 Q2087.56 1540.33 2087.56 1531.6 Q2087.56 1522.85 2090.62 1518.27 Q2093.69 1513.66 2099.5 1513.66 Z" fill="#000000" fill-rule="nonzero" fill-opacity="1" /><path clip-path="url(#clip050)" d="M2309.21 1532.44 Q2305.88 1532.44 2303.96 1534.22 Q2302.06 1536 2302.06 1539.13 Q2302.06 1542.25 2303.96 1544.03 Q2305.88 1545.82 2309.21 1545.82 Q2312.54 1545.82 2314.46 1544.03 Q2316.39 1542.23 2316.39 1539.13 Q2316.39 1536 2314.46 1534.22 Q2312.57 1532.44 2309.21 1532.44 M2304.53 1530.45 Q2301.52 1529.7 2299.83 1527.64 Q2298.17 1525.58 2298.17 1522.62 Q2298.17 1518.48 2301.11 1516.07 Q2304.07 1513.66 2309.21 1513.66 Q2314.37 1513.66 2317.31 1516.07 Q2320.25 1518.48 2320.25 1522.62 Q2320.25 1525.58 2318.56 1527.64 Q2316.89 1529.7 2313.91 1530.45 Q2317.29 1531.23 2319.16 1533.52 Q2321.06 1535.82 2321.06 1539.13 Q2321.06 1544.15 2317.98 1546.83 Q2314.93 1549.52 2309.21 1549.52 Q2303.49 1549.52 2300.41 1546.83 Q2297.36 1544.15 2297.36 1539.13 Q2297.36 1535.82 2299.26 1533.52 Q2301.15 1531.23 2304.53 1530.45 M2302.82 1523.06 Q2302.82 1525.75 2304.49 1527.25 Q2306.18 1528.76 2309.21 1528.76 Q2312.22 1528.76 2313.91 1527.25 Q2315.62 1525.75 2315.62 1523.06 Q2315.62 1520.38 2313.91 1518.87 Q2312.22 1517.37 2309.21 1517.37 Q2306.18 1517.37 2304.49 1518.87 Q2302.82 1520.38 2302.82 1523.06 Z" fill="#000000" fill-rule="nonzero" fill-opacity="1" /><path clip-path="url(#clip050)" d="M2339.37 1517.37 Q2335.76 1517.37 2333.93 1520.93 Q2332.13 1524.47 2332.13 1531.6 Q2332.13 1538.71 2333.93 1542.27 Q2335.76 1545.82 2339.37 1545.82 Q2343.01 1545.82 2344.81 1542.27 Q2346.64 1538.71 2346.64 1531.6 Q2346.64 1524.47 2344.81 1520.93 Q2343.01 1517.37 2339.37 1517.37 M2339.37 1513.66 Q2345.18 1513.66 2348.24 1518.27 Q2351.32 1522.85 2351.32 1531.6 Q2351.32 1540.33 2348.24 1544.94 Q2345.18 1549.52 2339.37 1549.52 Q2333.56 1549.52 2330.48 1544.94 Q2327.43 1540.33 2327.43 1531.6 Q2327.43 1522.85 2330.48 1518.27 Q2333.56 1513.66 2339.37 1513.66 Z" fill="#000000" fill-rule="nonzero" fill-opacity="1" /><polyline clip-path="url(#clip050)" style="stroke:#000000; stroke-linecap:round; stroke-linejoin:round; stroke-width:4; stroke-opacity:1; fill:none" points="1348.62,1486.45 1348.62,47.2441 "/>
<polyline clip-path="url(#clip050)" style="stroke:#000000; stroke-linecap:round; stroke-linejoin:round; stroke-width:4; stroke-opacity:1; fill:none" points="1348.62,1438.25 1367.52,1438.25 "/>
<polyline clip-path="url(#clip050)" style="stroke:#000000; stroke-linecap:round; stroke-linejoin:round; stroke-width:4; stroke-opacity:1; fill:none" points="1348.62,1150.72 1367.52,1150.72 "/>
<polyline clip-path="url(#clip050)" style="stroke:#000000; stroke-linecap:round; stroke-linejoin:round; stroke-width:4; stroke-opacity:1; fill:none" points="1348.62,863.2 1367.52,863.2 "/>
<polyline clip-path="url(#clip050)" style="stroke:#000000; stroke-linecap:round; stroke-linejoin:round; stroke-width:4; stroke-opacity:1; fill:none" points="1348.62,575.677 1367.52,575.677 "/>
<polyline clip-path="url(#clip050)" style="stroke:#000000; stroke-linecap:round; stroke-linejoin:round; stroke-width:4; stroke-opacity:1; fill:none" points="1348.62,288.153 1367.52,288.153 "/>
<path clip-path="url(#clip050)" d="M1250.42 1438.7 L1280.1 1438.7 L1280.1 1442.63 L1250.42 1442.63 L1250.42 1438.7 Z" fill="#000000" fill-rule="nonzero" fill-opacity="1" /><path clip-path="url(#clip050)" d="M1303.04 1425.04 L1291.23 1443.49 L1303.04 1443.49 L1303.04 1425.04 M1301.81 1420.97 L1307.69 1420.97 L1307.69 1443.49 L1312.62 1443.49 L1312.62 1447.38 L1307.69 1447.38 L1307.69 1455.53 L1303.04 1455.53 L1303.04 1447.38 L1287.44 1447.38 L1287.44 1442.87 L1301.81 1420.97 Z" fill="#000000" fill-rule="nonzero" fill-opacity="1" /><path clip-path="url(#clip050)" d="M1252.51 1151.18 L1282.18 1151.18 L1282.18 1155.11 L1252.51 1155.11 L1252.51 1151.18 Z" fill="#000000" fill-rule="nonzero" fill-opacity="1" /><path clip-path="url(#clip050)" d="M1296.3 1164.07 L1312.62 1164.07 L1312.62 1168 L1290.68 1168 L1290.68 1164.07 Q1293.34 1161.31 1297.92 1156.68 Q1302.53 1152.03 1303.71 1150.69 Q1305.96 1148.17 1306.84 1146.43 Q1307.74 1144.67 1307.74 1142.98 Q1307.74 1140.23 1305.8 1138.49 Q1303.87 1136.75 1300.77 1136.75 Q1298.57 1136.75 1296.12 1137.52 Q1293.69 1138.28 1290.91 1139.83 L1290.91 1135.11 Q1293.73 1133.98 1296.19 1133.4 Q1298.64 1132.82 1300.68 1132.82 Q1306.05 1132.82 1309.24 1135.5 Q1312.44 1138.19 1312.44 1142.68 Q1312.44 1144.81 1311.63 1146.73 Q1310.84 1148.63 1308.73 1151.22 Q1308.16 1151.89 1305.05 1155.11 Q1301.95 1158.3 1296.3 1164.07 Z" fill="#000000" fill-rule="nonzero" fill-opacity="1" /><path clip-path="url(#clip050)" d="M1300.68 848.999 Q1297.07 848.999 1295.24 852.564 Q1293.43 856.105 1293.43 863.235 Q1293.43 870.341 1295.24 873.906 Q1297.07 877.448 1300.68 877.448 Q1304.31 877.448 1306.12 873.906 Q1307.95 870.341 1307.95 863.235 Q1307.95 856.105 1306.12 852.564 Q1304.31 848.999 1300.68 848.999 M1300.68 845.295 Q1306.49 845.295 1309.55 849.902 Q1312.62 854.485 1312.62 863.235 Q1312.62 871.962 1309.55 876.568 Q1306.49 881.151 1300.68 881.151 Q1294.87 881.151 1291.79 876.568 Q1288.73 871.962 1288.73 863.235 Q1288.73 854.485 1291.79 849.902 Q1294.87 845.295 1300.68 845.295 Z" fill="#000000" fill-rule="nonzero" fill-opacity="1" /><path clip-path="url(#clip050)" d="M1296.3 589.021 L1312.62 589.021 L1312.62 592.957 L1290.68 592.957 L1290.68 589.021 Q1293.34 586.267 1297.92 581.637 Q1302.53 576.984 1303.71 575.642 Q1305.96 573.119 1306.84 571.383 Q1307.74 569.623 1307.74 567.934 Q1307.74 565.179 1305.8 563.443 Q1303.87 561.707 1300.77 561.707 Q1298.57 561.707 1296.12 562.471 Q1293.69 563.235 1290.91 564.785 L1290.91 560.063 Q1293.73 558.929 1296.19 558.35 Q1298.64 557.772 1300.68 557.772 Q1306.05 557.772 1309.24 560.457 Q1312.44 563.142 1312.44 567.633 Q1312.44 569.762 1311.63 571.684 Q1310.84 573.582 1308.73 576.174 Q1308.16 576.846 1305.05 580.063 Q1301.95 583.258 1296.3 589.021 Z" fill="#000000" fill-rule="nonzero" fill-opacity="1" /><path clip-path="url(#clip050)" d="M1303.04 274.947 L1291.23 293.396 L1303.04 293.396 L1303.04 274.947 M1301.81 270.873 L1307.69 270.873 L1307.69 293.396 L1312.62 293.396 L1312.62 297.285 L1307.69 297.285 L1307.69 305.433 L1303.04 305.433 L1303.04 297.285 L1287.44 297.285 L1287.44 292.771 L1301.81 270.873 Z" fill="#000000" fill-rule="nonzero" fill-opacity="1" /><polyline clip-path="url(#clip053)" style="stroke:#009af9; stroke-linecap:round; stroke-linejoin:round; stroke-width:4; stroke-opacity:1; fill:none" points="1377.04,732.153 1389.03,757.736 1401.02,891.231 1413.02,1070.13 1425.01,1276.14 1437,1426.18 1448.99,1356.31 1460.98,1247.95 1472.97,1195.56 1484.96,1169.42 1496.95,885.214 1508.94,785.722 1520.94,880.911 1532.93,850.522 1544.92,899.062 1556.91,893.441 1568.9,909.471 1580.89,901.575 1592.88,841.802 1604.87,830.72 1616.86,860.582 1628.86,882.258 1640.85,973.678 1652.84,765.459 1664.83,739.016 1676.82,776.942 1688.81,690.223 1700.8,769.753 1712.79,858.678 1724.78,898.282 1736.77,878.428 1748.77,811.98 1760.76,845.953 1772.75,931.858 1784.74,1071.23 1796.73,1186.28 1808.72,1265.07 1820.71,1305.6 1832.7,1407.13 1844.69,1211.03 1856.69,1049.74 1868.68,965.85 1880.67,864.747 1892.66,784.295 1904.65,729.339 1916.64,866.982 1928.63,887.029 1940.62,870.568 1952.61,1009.43 1964.6,968.566 1976.6,1005.58 1988.59,858.997 2000.58,797.993 2012.57,965.313 2024.56,1038.84 2036.55,1056.03 2048.54,1087.8 2060.53,1193.24 2072.52,1002.42 2084.52,788.694 2096.51,646.88 2108.5,620.531 2120.49,659.514 2132.48,639.524 2144.47,613.419 2156.46,603.192 2168.45,649.64 2180.44,607.07 2192.44,522.275 2204.43,541.191 2216.42,379.597 2228.41,393.88 2240.4,298.684 2252.39,370.528 2264.38,310.393 2276.37,236.909 2288.36,315.159 2300.35,301.505 2312.35,248.211 2324.34,230.205 "/>
<polyline clip-path="url(#clip053)" style="stroke:#e26f46; stroke-linecap:round; stroke-linejoin:round; stroke-width:4; stroke-opacity:1; fill:none" points="1377.04,740.09 1389.03,767.351 1401.02,871.816 1413.02,1048.09 1425.01,1249.56 1437,1407.12 1448.99,1335.92 1460.98,1229.44 1472.97,1184.19 1484.96,1171.62 1496.95,893.504 1508.94,807.22 1520.94,892.976 1532.93,843.976 1544.92,882.333 1556.91,879.677 1568.9,911.343 1580.89,910.108 1592.88,854.79 1604.87,838.932 1616.86,864.795 1628.86,905.892 1640.85,978.32 1652.84,766.856 1664.83,720.385 1676.82,765.168 1688.81,702.886 1700.8,785.029 1712.79,862.044 1724.78,908.795 1736.77,886.183 1748.77,800.983 1760.76,819.912 1772.75,917.054 1784.74,1088.1 1796.73,1193.4 1808.72,1268.94 1820.71,1306.9 1832.7,1407.08 1844.69,1206.03 1856.69,1051.83 1868.68,978.458 1880.67,848.46 1892.66,769.67 1904.65,745.583 1916.64,872.607 1928.63,909.292 1940.62,856.797 1952.61,992.202 1964.6,973.476 1976.6,990.757 1988.59,857.966 2000.58,807.989 2012.57,960.829 2024.56,1029.26 2036.55,1049 2048.54,1079.2 2060.53,1176.45 2072.52,985.662 2084.52,786.726 2096.51,633.804 2108.5,591.997 2120.49,654.464 2132.48,637.647 2144.47,608.677 2156.46,610.449 2168.45,650.136 2180.44,607.405 2192.44,514.526 2204.43,527.94 2216.42,359.479 2228.41,375.242 2240.4,292.931 2252.39,368.184 2264.38,316.362 2276.37,235.894 2288.36,313.767 2300.35,290.577 2312.35,242.18 2324.34,235.634 "/>
<polyline clip-path="url(#clip053)" style="stroke:#3da44d; stroke-linecap:round; stroke-linejoin:round; stroke-width:4; stroke-opacity:1; fill:none" points="1377.04,883.27 1389.03,992.524 1401.02,990.106 1413.02,1252.71 1425.01,1308.03 1437,1335.48 1448.99,1369.81 1460.98,1431.22 1472.97,1268.43 1484.96,1100.99 1496.95,913.766 1508.94,789.241 1520.94,929.182 1532.93,940.262 1544.92,956.234 1556.91,815.567 1568.9,872.485 1580.89,962.039 1592.88,787.546 1604.87,692.131 1616.86,589.99 1628.86,694.507 1640.85,999.661 1652.84,738.931 1664.83,750.932 1676.82,878.717 1688.81,675.12 1700.8,697.418 1712.79,821.949 1724.78,760.511 1736.77,921.188 1748.77,756.177 1760.76,826.782 1772.75,955.14 1784.74,1123.1 1796.73,1181.54 1808.72,1434.44 1820.71,1445.72 1832.7,1382.88 1844.69,1327.56 1856.69,1088.72 1868.68,866.249 1880.67,947.19 1892.66,722.119 1904.65,594.124 1916.64,897.344 1928.63,746.851 1940.62,824.215 1952.61,1190.3 1964.6,1101.25 1976.6,1139.3 1988.59,889.897 2000.58,823.011 2012.57,930.301 2024.56,980.745 2036.55,1238.97 2048.54,981.843 2060.53,1018.14 2072.52,965.728 2084.52,837.922 2096.51,542.142 2108.5,535.047 2120.49,530.378 2132.48,579.186 2144.47,539.389 2156.46,719.445 2168.45,622.034 2180.44,541.899 2192.44,515.077 2204.43,552.65 2216.42,488.953 2228.41,491.481 2240.4,365.751 2252.39,538.293 2264.38,367.003 2276.37,87.9763 2288.36,314.811 2300.35,410.262 2312.35,362.926 2324.34,170.139 "/>
<path clip-path="url(#clip050)" d="M1382.09 302.578 L1844.17 302.578 L1844.17 95.2176 L1382.09 95.2176  Z" fill="#ffffff" fill-rule="evenodd" fill-opacity="1"/>
<polyline clip-path="url(#clip050)" style="stroke:#000000; stroke-linecap:round; stroke-linejoin:round; stroke-width:4; stroke-opacity:1; fill:none" points="1382.09,302.578 1844.17,302.578 1844.17,95.2176 1382.09,95.2176 1382.09,302.578 "/>
<polyline clip-path="url(#clip050)" style="stroke:#009af9; stroke-linecap:round; stroke-linejoin:round; stroke-width:4; stroke-opacity:1; fill:none" points="1393.25,147.058 1460.19,147.058 "/>
<path clip-path="url(#clip050)" d="M1471.35 129.778 L1476.03 129.778 L1476.03 144.384 L1491.54 129.778 L1497.55 129.778 L1480.4 145.889 L1498.78 164.338 L1492.62 164.338 L1476.03 147.694 L1476.03 164.338 L1471.35 164.338 L1471.35 129.778 Z" fill="#000000" fill-rule="nonzero" fill-opacity="1" /><path clip-path="url(#clip050)" d="M1513.2 151.305 Q1508.04 151.305 1506.05 152.486 Q1504.06 153.666 1504.06 156.514 Q1504.06 158.782 1505.54 160.125 Q1507.05 161.444 1509.61 161.444 Q1513.16 161.444 1515.29 158.944 Q1517.44 156.421 1517.44 152.254 L1517.44 151.305 L1513.2 151.305 M1521.7 149.546 L1521.7 164.338 L1517.44 164.338 L1517.44 160.402 Q1515.98 162.763 1513.8 163.898 Q1511.63 165.009 1508.48 165.009 Q1504.5 165.009 1502.14 162.787 Q1499.8 160.541 1499.8 156.791 Q1499.8 152.416 1502.72 150.194 Q1505.66 147.972 1511.47 147.972 L1517.44 147.972 L1517.44 147.555 Q1517.44 144.615 1515.49 143.018 Q1513.57 141.398 1510.08 141.398 Q1507.86 141.398 1505.75 141.93 Q1503.64 142.463 1501.7 143.527 L1501.7 139.592 Q1504.04 138.69 1506.24 138.25 Q1508.43 137.787 1510.52 137.787 Q1516.14 137.787 1518.92 140.703 Q1521.7 143.62 1521.7 149.546 Z" fill="#000000" fill-rule="nonzero" fill-opacity="1" /><path clip-path="url(#clip050)" d="M1530.47 128.319 L1534.73 128.319 L1534.73 164.338 L1530.47 164.338 L1530.47 128.319 Z" fill="#000000" fill-rule="nonzero" fill-opacity="1" /><path clip-path="url(#clip050)" d="M1563.83 143.389 Q1565.42 140.518 1567.65 139.153 Q1569.87 137.787 1572.88 137.787 Q1576.93 137.787 1579.13 140.634 Q1581.33 143.458 1581.33 148.689 L1581.33 164.338 L1577.04 164.338 L1577.04 148.828 Q1577.04 145.102 1575.73 143.296 Q1574.41 141.49 1571.7 141.49 Q1568.39 141.49 1566.47 143.69 Q1564.54 145.889 1564.54 149.685 L1564.54 164.338 L1560.26 164.338 L1560.26 148.828 Q1560.26 145.078 1558.94 143.296 Q1557.62 141.49 1554.87 141.49 Q1551.61 141.49 1549.68 143.713 Q1547.76 145.912 1547.76 149.685 L1547.76 164.338 L1543.48 164.338 L1543.48 138.412 L1547.76 138.412 L1547.76 142.44 Q1549.22 140.055 1551.26 138.921 Q1553.3 137.787 1556.1 137.787 Q1558.92 137.787 1560.89 139.222 Q1562.88 140.657 1563.83 143.389 Z" fill="#000000" fill-rule="nonzero" fill-opacity="1" /><path clip-path="url(#clip050)" d="M1601.6 151.305 Q1596.44 151.305 1594.45 152.486 Q1592.46 153.666 1592.46 156.514 Q1592.46 158.782 1593.94 160.125 Q1595.45 161.444 1598.02 161.444 Q1601.56 161.444 1603.69 158.944 Q1605.84 156.421 1605.84 152.254 L1605.84 151.305 L1601.6 151.305 M1610.1 149.546 L1610.1 164.338 L1605.84 164.338 L1605.84 160.402 Q1604.38 162.763 1602.21 163.898 Q1600.03 165.009 1596.88 165.009 Q1592.9 165.009 1590.54 162.787 Q1588.2 160.541 1588.2 156.791 Q1588.2 152.416 1591.12 150.194 Q1594.06 147.972 1599.87 147.972 L1605.84 147.972 L1605.84 147.555 Q1605.84 144.615 1603.9 143.018 Q1601.98 141.398 1598.48 141.398 Q1596.26 141.398 1594.15 141.93 Q1592.04 142.463 1590.1 143.527 L1590.1 139.592 Q1592.44 138.69 1594.64 138.25 Q1596.84 137.787 1598.92 137.787 Q1604.54 137.787 1607.32 140.703 Q1610.1 143.62 1610.1 149.546 Z" fill="#000000" fill-rule="nonzero" fill-opacity="1" /><path clip-path="url(#clip050)" d="M1640.42 148.689 L1640.42 164.338 L1636.16 164.338 L1636.16 148.828 Q1636.16 145.148 1634.73 143.319 Q1633.29 141.49 1630.42 141.49 Q1626.98 141.49 1624.98 143.69 Q1622.99 145.889 1622.99 149.685 L1622.99 164.338 L1618.71 164.338 L1618.71 138.412 L1622.99 138.412 L1622.99 142.44 Q1624.52 140.102 1626.58 138.944 Q1628.66 137.787 1631.37 137.787 Q1635.84 137.787 1638.13 140.565 Q1640.42 143.319 1640.42 148.689 Z" fill="#000000" fill-rule="nonzero" fill-opacity="1" /><path clip-path="url(#clip050)" d="M1680.52 139.176 L1680.52 143.203 Q1678.71 142.277 1676.77 141.815 Q1674.82 141.352 1672.74 141.352 Q1669.57 141.352 1667.97 142.324 Q1666.4 143.296 1666.4 145.24 Q1666.4 146.722 1667.53 147.578 Q1668.66 148.412 1672.09 149.176 L1673.55 149.5 Q1678.09 150.472 1679.98 152.254 Q1681.91 154.014 1681.91 157.185 Q1681.91 160.796 1679.04 162.902 Q1676.19 165.009 1671.19 165.009 Q1669.1 165.009 1666.84 164.592 Q1664.59 164.199 1662.09 163.388 L1662.09 158.99 Q1664.45 160.217 1666.74 160.842 Q1669.04 161.444 1671.28 161.444 Q1674.29 161.444 1675.91 160.426 Q1677.53 159.384 1677.53 157.509 Q1677.53 155.773 1676.35 154.847 Q1675.19 153.921 1671.23 153.064 L1669.75 152.717 Q1665.79 151.884 1664.04 150.171 Q1662.28 148.435 1662.28 145.426 Q1662.28 141.768 1664.87 139.778 Q1667.46 137.787 1672.23 137.787 Q1674.59 137.787 1676.67 138.134 Q1678.76 138.481 1680.52 139.176 Z" fill="#000000" fill-rule="nonzero" fill-opacity="1" /><path clip-path="url(#clip050)" d="M1708.87 143.389 Q1710.47 140.518 1712.69 139.153 Q1714.91 137.787 1717.92 137.787 Q1721.97 137.787 1724.17 140.634 Q1726.37 143.458 1726.37 148.689 L1726.37 164.338 L1722.09 164.338 L1722.09 148.828 Q1722.09 145.102 1720.77 143.296 Q1719.45 141.49 1716.74 141.49 Q1713.43 141.49 1711.51 143.69 Q1709.59 145.889 1709.59 149.685 L1709.59 164.338 L1705.31 164.338 L1705.31 148.828 Q1705.31 145.078 1703.99 143.296 Q1702.67 141.49 1699.91 141.49 Q1696.65 141.49 1694.73 143.713 Q1692.81 145.912 1692.81 149.685 L1692.81 164.338 L1688.53 164.338 L1688.53 138.412 L1692.81 138.412 L1692.81 142.44 Q1694.27 140.055 1696.3 138.921 Q1698.34 137.787 1701.14 137.787 Q1703.97 137.787 1705.93 139.222 Q1707.92 140.657 1708.87 143.389 Z" fill="#000000" fill-rule="nonzero" fill-opacity="1" /><path clip-path="url(#clip050)" d="M1744.91 141.398 Q1741.49 141.398 1739.5 144.083 Q1737.51 146.745 1737.51 151.398 Q1737.51 156.051 1739.47 158.736 Q1741.47 161.398 1744.91 161.398 Q1748.32 161.398 1750.31 158.713 Q1752.3 156.027 1752.3 151.398 Q1752.3 146.791 1750.31 144.106 Q1748.32 141.398 1744.91 141.398 M1744.91 137.787 Q1750.47 137.787 1753.64 141.398 Q1756.81 145.009 1756.81 151.398 Q1756.81 157.764 1753.64 161.398 Q1750.47 165.009 1744.91 165.009 Q1739.34 165.009 1736.16 161.398 Q1733.02 157.764 1733.02 151.398 Q1733.02 145.009 1736.16 141.398 Q1739.34 137.787 1744.91 137.787 Z" fill="#000000" fill-rule="nonzero" fill-opacity="1" /><path clip-path="url(#clip050)" d="M1773.92 141.398 Q1770.49 141.398 1768.5 144.083 Q1766.51 146.745 1766.51 151.398 Q1766.51 156.051 1768.48 158.736 Q1770.47 161.398 1773.92 161.398 Q1777.32 161.398 1779.31 158.713 Q1781.3 156.027 1781.3 151.398 Q1781.3 146.791 1779.31 144.106 Q1777.32 141.398 1773.92 141.398 M1773.92 137.787 Q1779.47 137.787 1782.65 141.398 Q1785.82 145.009 1785.82 151.398 Q1785.82 157.764 1782.65 161.398 Q1779.47 165.009 1773.92 165.009 Q1768.34 165.009 1765.17 161.398 Q1762.02 157.764 1762.02 151.398 Q1762.02 145.009 1765.17 141.398 Q1768.34 137.787 1773.92 137.787 Z" fill="#000000" fill-rule="nonzero" fill-opacity="1" /><path clip-path="url(#clip050)" d="M1797.09 131.051 L1797.09 138.412 L1805.86 138.412 L1805.86 141.722 L1797.09 141.722 L1797.09 155.796 Q1797.09 158.967 1797.95 159.87 Q1798.83 160.773 1801.49 160.773 L1805.86 160.773 L1805.86 164.338 L1801.49 164.338 Q1796.56 164.338 1794.68 162.509 Q1792.81 160.657 1792.81 155.796 L1792.81 141.722 L1789.68 141.722 L1789.68 138.412 L1792.81 138.412 L1792.81 131.051 L1797.09 131.051 Z" fill="#000000" fill-rule="nonzero" fill-opacity="1" /><path clip-path="url(#clip050)" d="M1833.02 148.689 L1833.02 164.338 L1828.76 164.338 L1828.76 148.828 Q1828.76 145.148 1827.32 143.319 Q1825.89 141.49 1823.02 141.49 Q1819.57 141.49 1817.58 143.69 Q1815.59 145.889 1815.59 149.685 L1815.59 164.338 L1811.3 164.338 L1811.3 128.319 L1815.59 128.319 L1815.59 142.44 Q1817.11 140.102 1819.17 138.944 Q1821.26 137.787 1823.96 137.787 Q1828.43 137.787 1830.72 140.565 Q1833.02 143.319 1833.02 148.689 Z" fill="#000000" fill-rule="nonzero" fill-opacity="1" /><polyline clip-path="url(#clip050)" style="stroke:#e26f46; stroke-linecap:round; stroke-linejoin:round; stroke-width:4; stroke-opacity:1; fill:none" points="1393.25,198.898 1460.19,198.898 "/>
<path clip-path="url(#clip050)" d="M1475.63 212.289 L1475.63 226.039 L1471.35 226.039 L1471.35 190.252 L1475.63 190.252 L1475.63 194.187 Q1476.98 191.872 1479.01 190.761 Q1481.07 189.627 1483.92 189.627 Q1488.64 189.627 1491.58 193.377 Q1494.55 197.127 1494.55 203.238 Q1494.55 209.349 1491.58 213.099 Q1488.64 216.849 1483.92 216.849 Q1481.07 216.849 1479.01 215.738 Q1476.98 214.603 1475.63 212.289 M1490.12 203.238 Q1490.12 198.539 1488.18 195.877 Q1486.26 193.192 1482.88 193.192 Q1479.5 193.192 1477.55 195.877 Q1475.63 198.539 1475.63 203.238 Q1475.63 207.937 1477.55 210.622 Q1479.5 213.284 1482.88 213.284 Q1486.26 213.284 1488.18 210.622 Q1490.12 207.937 1490.12 203.238 Z" fill="#000000" fill-rule="nonzero" fill-opacity="1" /><path clip-path="url(#clip050)" d="M1514.73 180.159 L1514.73 183.701 L1510.66 183.701 Q1508.36 183.701 1507.46 184.627 Q1506.58 185.553 1506.58 187.96 L1506.58 190.252 L1513.6 190.252 L1513.6 193.562 L1506.58 193.562 L1506.58 216.178 L1502.3 216.178 L1502.3 193.562 L1498.23 193.562 L1498.23 190.252 L1502.3 190.252 L1502.3 188.446 Q1502.3 184.118 1504.31 182.15 Q1506.33 180.159 1510.7 180.159 L1514.73 180.159 Z" fill="#000000" fill-rule="nonzero" fill-opacity="1" /><path clip-path="url(#clip050)" d="M1549.89 191.016 L1549.89 195.043 Q1548.09 194.117 1546.14 193.655 Q1544.2 193.192 1542.11 193.192 Q1538.94 193.192 1537.35 194.164 Q1535.77 195.136 1535.77 197.08 Q1535.77 198.562 1536.91 199.418 Q1538.04 200.252 1541.47 201.016 L1542.92 201.34 Q1547.46 202.312 1549.36 204.094 Q1551.28 205.854 1551.28 209.025 Q1551.28 212.636 1548.41 214.742 Q1545.56 216.849 1540.56 216.849 Q1538.48 216.849 1536.21 216.432 Q1533.97 216.039 1531.47 215.228 L1531.47 210.83 Q1533.83 212.057 1536.12 212.682 Q1538.41 213.284 1540.66 213.284 Q1543.67 213.284 1545.29 212.266 Q1546.91 211.224 1546.91 209.349 Q1546.91 207.613 1545.73 206.687 Q1544.57 205.761 1540.61 204.904 L1539.13 204.557 Q1535.17 203.724 1533.41 202.011 Q1531.65 200.275 1531.65 197.266 Q1531.65 193.608 1534.24 191.618 Q1536.84 189.627 1541.61 189.627 Q1543.97 189.627 1546.05 189.974 Q1548.13 190.321 1549.89 191.016 Z" fill="#000000" fill-rule="nonzero" fill-opacity="1" /><path clip-path="url(#clip050)" d="M1578.25 195.229 Q1579.85 192.358 1582.07 190.993 Q1584.29 189.627 1587.3 189.627 Q1591.35 189.627 1593.55 192.474 Q1595.75 195.298 1595.75 200.529 L1595.75 216.178 L1591.47 216.178 L1591.47 200.668 Q1591.47 196.942 1590.15 195.136 Q1588.83 193.33 1586.12 193.33 Q1582.81 193.33 1580.89 195.53 Q1578.97 197.729 1578.97 201.525 L1578.97 216.178 L1574.68 216.178 L1574.68 200.668 Q1574.68 196.918 1573.36 195.136 Q1572.04 193.33 1569.29 193.33 Q1566.03 193.33 1564.11 195.553 Q1562.18 197.752 1562.18 201.525 L1562.18 216.178 L1557.9 216.178 L1557.9 190.252 L1562.18 190.252 L1562.18 194.28 Q1563.64 191.895 1565.68 190.761 Q1567.72 189.627 1570.52 189.627 Q1573.34 189.627 1575.31 191.062 Q1577.3 192.497 1578.25 195.229 Z" fill="#000000" fill-rule="nonzero" fill-opacity="1" /><path clip-path="url(#clip050)" d="M1614.29 193.238 Q1610.86 193.238 1608.87 195.923 Q1606.88 198.585 1606.88 203.238 Q1606.88 207.891 1608.85 210.576 Q1610.84 213.238 1614.29 213.238 Q1617.69 213.238 1619.68 210.553 Q1621.67 207.867 1621.67 203.238 Q1621.67 198.631 1619.68 195.946 Q1617.69 193.238 1614.29 193.238 M1614.29 189.627 Q1619.85 189.627 1623.02 193.238 Q1626.19 196.849 1626.19 203.238 Q1626.19 209.604 1623.02 213.238 Q1619.85 216.849 1614.29 216.849 Q1608.71 216.849 1605.54 213.238 Q1602.39 209.604 1602.39 203.238 Q1602.39 196.849 1605.54 193.238 Q1608.71 189.627 1614.29 189.627 Z" fill="#000000" fill-rule="nonzero" fill-opacity="1" /><path clip-path="url(#clip050)" d="M1643.29 193.238 Q1639.87 193.238 1637.88 195.923 Q1635.89 198.585 1635.89 203.238 Q1635.89 207.891 1637.85 210.576 Q1639.85 213.238 1643.29 213.238 Q1646.7 213.238 1648.69 210.553 Q1650.68 207.867 1650.68 203.238 Q1650.68 198.631 1648.69 195.946 Q1646.7 193.238 1643.29 193.238 M1643.29 189.627 Q1648.85 189.627 1652.02 193.238 Q1655.19 196.849 1655.19 203.238 Q1655.19 209.604 1652.02 213.238 Q1648.85 216.849 1643.29 216.849 Q1637.72 216.849 1634.54 213.238 Q1631.4 209.604 1631.4 203.238 Q1631.4 196.849 1634.54 193.238 Q1637.72 189.627 1643.29 189.627 Z" fill="#000000" fill-rule="nonzero" fill-opacity="1" /><path clip-path="url(#clip050)" d="M1666.47 182.891 L1666.47 190.252 L1675.24 190.252 L1675.24 193.562 L1666.47 193.562 L1666.47 207.636 Q1666.47 210.807 1667.32 211.71 Q1668.2 212.613 1670.86 212.613 L1675.24 212.613 L1675.24 216.178 L1670.86 216.178 Q1665.93 216.178 1664.06 214.349 Q1662.18 212.497 1662.18 207.636 L1662.18 193.562 L1659.06 193.562 L1659.06 190.252 L1662.18 190.252 L1662.18 182.891 L1666.47 182.891 Z" fill="#000000" fill-rule="nonzero" fill-opacity="1" /><path clip-path="url(#clip050)" d="M1702.39 200.529 L1702.39 216.178 L1698.13 216.178 L1698.13 200.668 Q1698.13 196.988 1696.7 195.159 Q1695.26 193.33 1692.39 193.33 Q1688.94 193.33 1686.95 195.53 Q1684.96 197.729 1684.96 201.525 L1684.96 216.178 L1680.68 216.178 L1680.68 180.159 L1684.96 180.159 L1684.96 194.28 Q1686.49 191.942 1688.55 190.784 Q1690.63 189.627 1693.34 189.627 Q1697.81 189.627 1700.1 192.405 Q1702.39 195.159 1702.39 200.529 Z" fill="#000000" fill-rule="nonzero" fill-opacity="1" /><polyline clip-path="url(#clip050)" style="stroke:#3da44d; stroke-linecap:round; stroke-linejoin:round; stroke-width:4; stroke-opacity:1; fill:none" points="1393.25,250.738 1460.19,250.738 "/>
<path clip-path="url(#clip050)" d="M1478.76 234.731 L1478.76 242.092 L1487.53 242.092 L1487.53 245.402 L1478.76 245.402 L1478.76 259.476 Q1478.76 262.647 1479.61 263.55 Q1480.49 264.453 1483.16 264.453 L1487.53 264.453 L1487.53 268.018 L1483.16 268.018 Q1478.23 268.018 1476.35 266.189 Q1474.48 264.337 1474.48 259.476 L1474.48 245.402 L1471.35 245.402 L1471.35 242.092 L1474.48 242.092 L1474.48 234.731 L1478.76 234.731 Z" fill="#000000" fill-rule="nonzero" fill-opacity="1" /><path clip-path="url(#clip050)" d="M1508.16 246.073 Q1507.44 245.657 1506.58 245.471 Q1505.75 245.263 1504.73 245.263 Q1501.12 245.263 1499.17 247.624 Q1497.25 249.962 1497.25 254.36 L1497.25 268.018 L1492.97 268.018 L1492.97 242.092 L1497.25 242.092 L1497.25 246.12 Q1498.6 243.758 1500.75 242.624 Q1502.9 241.467 1505.98 241.467 Q1506.42 241.467 1506.95 241.536 Q1507.49 241.583 1508.13 241.698 L1508.16 246.073 Z" fill="#000000" fill-rule="nonzero" fill-opacity="1" /><path clip-path="url(#clip050)" d="M1512.18 257.786 L1512.18 242.092 L1516.44 242.092 L1516.44 257.624 Q1516.44 261.305 1517.88 263.156 Q1519.31 264.985 1522.18 264.985 Q1525.63 264.985 1527.62 262.786 Q1529.64 260.587 1529.64 256.791 L1529.64 242.092 L1533.9 242.092 L1533.9 268.018 L1529.64 268.018 L1529.64 264.036 Q1528.09 266.397 1526.03 267.555 Q1523.99 268.689 1521.28 268.689 Q1516.81 268.689 1514.5 265.911 Q1512.18 263.133 1512.18 257.786 M1522.9 241.467 L1522.9 241.467 Z" fill="#000000" fill-rule="nonzero" fill-opacity="1" /><path clip-path="url(#clip050)" d="M1564.85 253.99 L1564.85 256.073 L1545.26 256.073 Q1545.54 260.471 1547.9 262.786 Q1550.29 265.078 1554.52 265.078 Q1556.98 265.078 1559.27 264.476 Q1561.58 263.874 1563.85 262.67 L1563.85 266.698 Q1561.56 267.67 1559.15 268.18 Q1556.74 268.689 1554.27 268.689 Q1548.06 268.689 1544.43 265.078 Q1540.82 261.467 1540.82 255.309 Q1540.82 248.944 1544.24 245.217 Q1547.69 241.467 1553.53 241.467 Q1558.76 241.467 1561.79 244.846 Q1564.85 248.203 1564.85 253.99 M1560.59 252.74 Q1560.54 249.245 1558.62 247.161 Q1556.72 245.078 1553.57 245.078 Q1550.01 245.078 1547.86 247.092 Q1545.73 249.106 1545.4 252.763 L1560.59 252.74 Z" fill="#000000" fill-rule="nonzero" fill-opacity="1" /></svg>
