<?xml version="1.0" encoding="utf-8"?>
<svg xmlns="http://www.w3.org/2000/svg" xmlns:xlink="http://www.w3.org/1999/xlink" width="600" height="400" viewBox="0 0 2400 1600">
<defs>
  <clipPath id="clip170">
    <rect x="0" y="0" width="2400" height="1600"/>
  </clipPath>
</defs>
<path clip-path="url(#clip170)" d="M0 1600 L2400 1600 L2400 0 L0 0  Z" fill="#ffffff" fill-rule="evenodd" fill-opacity="1"/>
<defs>
  <clipPath id="clip171">
    <rect x="480" y="0" width="1681" height="1600"/>
  </clipPath>
</defs>
<path clip-path="url(#clip170)" d="M147.478 1486.45 L2352.76 1486.45 L2352.76 47.2441 L147.478 47.2441  Z" fill="#ffffff" fill-rule="evenodd" fill-opacity="1"/>
<defs>
  <clipPath id="clip172">
    <rect x="147" y="47" width="2206" height="1440"/>
  </clipPath>
</defs>
<polyline clip-path="url(#clip172)" style="stroke:#000000; stroke-linecap:round; stroke-linejoin:round; stroke-width:2; stroke-opacity:0.1; fill:none" points="183.557,1486.45 183.557,47.2441 "/>
<polyline clip-path="url(#clip172)" style="stroke:#000000; stroke-linecap:round; stroke-linejoin:round; stroke-width:2; stroke-opacity:0.1; fill:none" points="710.253,1486.45 710.253,47.2441 "/>
<polyline clip-path="url(#clip172)" style="stroke:#000000; stroke-linecap:round; stroke-linejoin:round; stroke-width:2; stroke-opacity:0.1; fill:none" points="1236.95,1486.45 1236.95,47.2441 "/>
<polyline clip-path="url(#clip172)" style="stroke:#000000; stroke-linecap:round; stroke-linejoin:round; stroke-width:2; stroke-opacity:0.1; fill:none" points="1763.65,1486.45 1763.65,47.2441 "/>
<polyline clip-path="url(#clip172)" style="stroke:#000000; stroke-linecap:round; stroke-linejoin:round; stroke-width:2; stroke-opacity:0.1; fill:none" points="2290.34,1486.45 2290.34,47.2441 "/>
<polyline clip-path="url(#clip172)" style="stroke:#000000; stroke-linecap:round; stroke-linejoin:round; stroke-width:2; stroke-opacity:0.1; fill:none" points="147.478,1199.44 2352.76,1199.44 "/>
<polyline clip-path="url(#clip172)" style="stroke:#000000; stroke-linecap:round; stroke-linejoin:round; stroke-width:2; stroke-opacity:0.1; fill:none" points="147.478,888.09 2352.76,888.09 "/>
<polyline clip-path="url(#clip172)" style="stroke:#000000; stroke-linecap:round; stroke-linejoin:round; stroke-width:2; stroke-opacity:0.1; fill:none" points="147.478,576.745 2352.76,576.745 "/>
<polyline clip-path="url(#clip172)" style="stroke:#000000; stroke-linecap:round; stroke-linejoin:round; stroke-width:2; stroke-opacity:0.1; fill:none" points="147.478,265.4 2352.76,265.4 "/>
<polyline clip-path="url(#clip170)" style="stroke:#000000; stroke-linecap:round; stroke-linejoin:round; stroke-width:4; stroke-opacity:1; fill:none" points="147.478,1486.45 2352.76,1486.45 "/>
<polyline clip-path="url(#clip170)" style="stroke:#000000; stroke-linecap:round; stroke-linejoin:round; stroke-width:4; stroke-opacity:1; fill:none" points="183.557,1486.45 183.557,1467.55 "/>
<polyline clip-path="url(#clip170)" style="stroke:#000000; stroke-linecap:round; stroke-linejoin:round; stroke-width:4; stroke-opacity:1; fill:none" points="710.253,1486.45 710.253,1467.55 "/>
<polyline clip-path="url(#clip170)" style="stroke:#000000; stroke-linecap:round; stroke-linejoin:round; stroke-width:4; stroke-opacity:1; fill:none" points="1236.95,1486.45 1236.95,1467.55 "/>
<polyline clip-path="url(#clip170)" style="stroke:#000000; stroke-linecap:round; stroke-linejoin:round; stroke-width:4; stroke-opacity:1; fill:none" points="1763.65,1486.45 1763.65,1467.55 "/>
<polyline clip-path="url(#clip170)" style="stroke:#000000; stroke-linecap:round; stroke-linejoin:round; stroke-width:4; stroke-opacity:1; fill:none" points="2290.34,1486.45 2290.34,1467.55 "/>
<path clip-path="url(#clip170)" d="M183.557 1517.37 Q179.946 1517.37 178.117 1520.93 Q176.311 1524.47 176.311 1531.6 Q176.311 1538.71 178.117 1542.27 Q179.946 1545.82 183.557 1545.82 Q187.191 1545.82 188.996 1542.27 Q190.825 1538.71 190.825 1531.6 Q190.825 1524.47 188.996 1520.93 Q187.191 1517.37 183.557 1517.37 M183.557 1513.66 Q189.367 1513.66 192.422 1518.27 Q195.501 1522.85 195.501 1531.6 Q195.501 1540.33 192.422 1544.94 Q189.367 1549.52 183.557 1549.52 Q177.746 1549.52 174.668 1544.94 Q171.612 1540.33 171.612 1531.6 Q171.612 1522.85 174.668 1518.27 Q177.746 1513.66 183.557 1513.66 Z" fill="#000000" fill-rule="nonzero" fill-opacity="1" /><path clip-path="url(#clip170)" d="M689.026 1544.91 L705.346 1544.91 L705.346 1548.85 L683.401 1548.85 L683.401 1544.91 Q686.063 1542.16 690.647 1537.53 Q695.253 1532.88 696.434 1531.53 Q698.679 1529.01 699.559 1527.27 Q700.461 1525.51 700.461 1523.82 Q700.461 1521.07 698.517 1519.33 Q696.596 1517.6 693.494 1517.6 Q691.295 1517.6 688.841 1518.36 Q686.411 1519.13 683.633 1520.68 L683.633 1515.95 Q686.457 1514.82 688.911 1514.24 Q691.364 1513.66 693.401 1513.66 Q698.772 1513.66 701.966 1516.35 Q705.16 1519.03 705.16 1523.52 Q705.16 1525.65 704.35 1527.57 Q703.563 1529.47 701.457 1532.07 Q700.878 1532.74 697.776 1535.95 Q694.674 1539.15 689.026 1544.91 Z" fill="#000000" fill-rule="nonzero" fill-opacity="1" /><path clip-path="url(#clip170)" d="M725.16 1517.37 Q721.549 1517.37 719.721 1520.93 Q717.915 1524.47 717.915 1531.6 Q717.915 1538.71 719.721 1542.27 Q721.549 1545.82 725.16 1545.82 Q728.795 1545.82 730.6 1542.27 Q732.429 1538.71 732.429 1531.6 Q732.429 1524.47 730.6 1520.93 Q728.795 1517.37 725.16 1517.37 M725.16 1513.66 Q730.971 1513.66 734.026 1518.27 Q737.105 1522.85 737.105 1531.6 Q737.105 1540.33 734.026 1544.94 Q730.971 1549.52 725.16 1549.52 Q719.35 1549.52 716.272 1544.94 Q713.216 1540.33 713.216 1531.6 Q713.216 1522.85 716.272 1518.27 Q719.35 1513.66 725.16 1513.66 Z" fill="#000000" fill-rule="nonzero" fill-opacity="1" /><path clip-path="url(#clip170)" d="M1225.12 1518.36 L1213.32 1536.81 L1225.12 1536.81 L1225.12 1518.36 M1223.89 1514.29 L1229.77 1514.29 L1229.77 1536.81 L1234.7 1536.81 L1234.7 1540.7 L1229.77 1540.7 L1229.77 1548.85 L1225.12 1548.85 L1225.12 1540.7 L1209.52 1540.7 L1209.52 1536.19 L1223.89 1514.29 Z" fill="#000000" fill-rule="nonzero" fill-opacity="1" /><path clip-path="url(#clip170)" d="M1252.44 1517.37 Q1248.82 1517.37 1247 1520.93 Q1245.19 1524.47 1245.19 1531.6 Q1245.19 1538.71 1247 1542.27 Q1248.82 1545.82 1252.44 1545.82 Q1256.07 1545.82 1257.88 1542.27 Q1259.7 1538.71 1259.7 1531.6 Q1259.7 1524.47 1257.88 1520.93 Q1256.07 1517.37 1252.44 1517.37 M1252.44 1513.66 Q1258.25 1513.66 1261.3 1518.27 Q1264.38 1522.85 1264.38 1531.6 Q1264.38 1540.33 1261.3 1544.94 Q1258.25 1549.52 1252.44 1549.52 Q1246.63 1549.52 1243.55 1544.94 Q1240.49 1540.33 1240.49 1531.6 Q1240.49 1522.85 1243.55 1518.27 Q1246.63 1513.66 1252.44 1513.66 Z" fill="#000000" fill-rule="nonzero" fill-opacity="1" /><path clip-path="url(#clip170)" d="M1749.05 1529.7 Q1745.9 1529.7 1744.05 1531.86 Q1742.22 1534.01 1742.22 1537.76 Q1742.22 1541.49 1744.05 1543.66 Q1745.9 1545.82 1749.05 1545.82 Q1752.2 1545.82 1754.03 1543.66 Q1755.88 1541.49 1755.88 1537.76 Q1755.88 1534.01 1754.03 1531.86 Q1752.2 1529.7 1749.05 1529.7 M1758.33 1515.05 L1758.33 1519.31 Q1756.57 1518.48 1754.77 1518.04 Q1752.99 1517.6 1751.23 1517.6 Q1746.6 1517.6 1744.14 1520.72 Q1741.71 1523.85 1741.37 1530.17 Q1742.73 1528.15 1744.79 1527.09 Q1746.85 1526 1749.33 1526 Q1754.54 1526 1757.55 1529.17 Q1760.58 1532.32 1760.58 1537.76 Q1760.58 1543.08 1757.43 1546.3 Q1754.28 1549.52 1749.05 1549.52 Q1743.06 1549.52 1739.88 1544.94 Q1736.71 1540.33 1736.71 1531.6 Q1736.71 1523.41 1740.6 1518.55 Q1744.49 1513.66 1751.04 1513.66 Q1752.8 1513.66 1754.58 1514.01 Q1756.39 1514.36 1758.33 1515.05 Z" fill="#000000" fill-rule="nonzero" fill-opacity="1" /><path clip-path="url(#clip170)" d="M1778.63 1517.37 Q1775.02 1517.37 1773.19 1520.93 Q1771.39 1524.47 1771.39 1531.6 Q1771.39 1538.71 1773.19 1542.27 Q1775.02 1545.82 1778.63 1545.82 Q1782.27 1545.82 1784.07 1542.27 Q1785.9 1538.71 1785.9 1531.6 Q1785.9 1524.47 1784.07 1520.93 Q1782.27 1517.37 1778.63 1517.37 M1778.63 1513.66 Q1784.44 1513.66 1787.5 1518.27 Q1790.58 1522.85 1790.58 1531.6 Q1790.58 1540.33 1787.5 1544.94 Q1784.44 1549.52 1778.63 1549.52 Q1772.82 1549.52 1769.75 1544.94 Q1766.69 1540.33 1766.69 1531.6 Q1766.69 1522.85 1769.75 1518.27 Q1772.82 1513.66 1778.63 1513.66 Z" fill="#000000" fill-rule="nonzero" fill-opacity="1" /><path clip-path="url(#clip170)" d="M2275.22 1532.44 Q2271.88 1532.44 2269.96 1534.22 Q2268.06 1536 2268.06 1539.13 Q2268.06 1542.25 2269.96 1544.03 Q2271.88 1545.82 2275.22 1545.82 Q2278.55 1545.82 2280.47 1544.03 Q2282.39 1542.23 2282.39 1539.13 Q2282.39 1536 2280.47 1534.22 Q2278.57 1532.44 2275.22 1532.44 M2270.54 1530.45 Q2267.53 1529.7 2265.84 1527.64 Q2264.17 1525.58 2264.17 1522.62 Q2264.17 1518.48 2267.11 1516.07 Q2270.08 1513.66 2275.22 1513.66 Q2280.38 1513.66 2283.32 1516.07 Q2286.26 1518.48 2286.26 1522.62 Q2286.26 1525.58 2284.57 1527.64 Q2282.9 1529.7 2279.91 1530.45 Q2283.29 1531.23 2285.17 1533.52 Q2287.07 1535.82 2287.07 1539.13 Q2287.07 1544.15 2283.99 1546.83 Q2280.93 1549.52 2275.22 1549.52 Q2269.5 1549.52 2266.42 1546.83 Q2263.36 1544.15 2263.36 1539.13 Q2263.36 1535.82 2265.26 1533.52 Q2267.16 1531.23 2270.54 1530.45 M2268.83 1523.06 Q2268.83 1525.75 2270.49 1527.25 Q2272.18 1528.76 2275.22 1528.76 Q2278.22 1528.76 2279.91 1527.25 Q2281.63 1525.75 2281.63 1523.06 Q2281.63 1520.38 2279.91 1518.87 Q2278.22 1517.37 2275.22 1517.37 Q2272.18 1517.37 2270.49 1518.87 Q2268.83 1520.38 2268.83 1523.06 Z" fill="#000000" fill-rule="nonzero" fill-opacity="1" /><path clip-path="url(#clip170)" d="M2305.38 1517.37 Q2301.77 1517.37 2299.94 1520.93 Q2298.13 1524.47 2298.13 1531.6 Q2298.13 1538.71 2299.94 1542.27 Q2301.77 1545.82 2305.38 1545.82 Q2309.01 1545.82 2310.82 1542.27 Q2312.65 1538.71 2312.65 1531.6 Q2312.65 1524.47 2310.82 1520.93 Q2309.01 1517.37 2305.38 1517.37 M2305.38 1513.66 Q2311.19 1513.66 2314.24 1518.27 Q2317.32 1522.85 2317.32 1531.6 Q2317.32 1540.33 2314.24 1544.94 Q2311.19 1549.52 2305.38 1549.52 Q2299.57 1549.52 2296.49 1544.94 Q2293.43 1540.33 2293.43 1531.6 Q2293.43 1522.85 2296.49 1518.27 Q2299.57 1513.66 2305.38 1513.66 Z" fill="#000000" fill-rule="nonzero" fill-opacity="1" /><polyline clip-path="url(#clip170)" style="stroke:#000000; stroke-linecap:round; stroke-linejoin:round; stroke-width:4; stroke-opacity:1; fill:none" points="147.478,1486.45 147.478,47.2441 "/>
<polyline clip-path="url(#clip170)" style="stroke:#000000; stroke-linecap:round; stroke-linejoin:round; stroke-width:4; stroke-opacity:1; fill:none" points="147.478,1199.44 166.376,1199.44 "/>
<polyline clip-path="url(#clip170)" style="stroke:#000000; stroke-linecap:round; stroke-linejoin:round; stroke-width:4; stroke-opacity:1; fill:none" points="147.478,888.09 166.376,888.09 "/>
<polyline clip-path="url(#clip170)" style="stroke:#000000; stroke-linecap:round; stroke-linejoin:round; stroke-width:4; stroke-opacity:1; fill:none" points="147.478,576.745 166.376,576.745 "/>
<polyline clip-path="url(#clip170)" style="stroke:#000000; stroke-linecap:round; stroke-linejoin:round; stroke-width:4; stroke-opacity:1; fill:none" points="147.478,265.4 166.376,265.4 "/>
<path clip-path="url(#clip170)" d="M51.3625 1199.89 L81.0383 1199.89 L81.0383 1203.82 L51.3625 1203.82 L51.3625 1199.89 Z" fill="#000000" fill-rule="nonzero" fill-opacity="1" /><path clip-path="url(#clip170)" d="M95.1586 1212.78 L111.478 1212.78 L111.478 1216.72 L89.5336 1216.72 L89.5336 1212.78 Q92.1956 1210.03 96.7789 1205.4 Q101.385 1200.74 102.566 1199.4 Q104.811 1196.88 105.691 1195.14 Q106.594 1193.38 106.594 1191.69 Q106.594 1188.94 104.649 1187.2 Q102.728 1185.47 99.6261 1185.47 Q97.4271 1185.47 94.9734 1186.23 Q92.5428 1186.99 89.7651 1188.54 L89.7651 1183.82 Q92.5891 1182.69 95.0428 1182.11 Q97.4965 1181.53 99.5335 1181.53 Q104.904 1181.53 108.098 1184.22 Q111.293 1186.9 111.293 1191.39 Q111.293 1193.52 110.483 1195.44 Q109.696 1197.34 107.589 1199.93 Q107.01 1200.6 103.909 1203.82 Q100.807 1207.02 95.1586 1212.78 Z" fill="#000000" fill-rule="nonzero" fill-opacity="1" /><path clip-path="url(#clip170)" d="M50.9921 888.542 L80.6679 888.542 L80.6679 892.477 L50.9921 892.477 L50.9921 888.542 Z" fill="#000000" fill-rule="nonzero" fill-opacity="1" /><path clip-path="url(#clip170)" d="M91.5706 901.435 L99.2095 901.435 L99.2095 875.069 L90.8993 876.736 L90.8993 872.477 L99.1632 870.81 L103.839 870.81 L103.839 901.435 L111.478 901.435 L111.478 905.37 L91.5706 905.37 L91.5706 901.435 Z" fill="#000000" fill-rule="nonzero" fill-opacity="1" /><path clip-path="url(#clip170)" d="M99.5335 562.544 Q95.9224 562.544 94.0937 566.109 Q92.2882 569.65 92.2882 576.78 Q92.2882 583.886 94.0937 587.451 Q95.9224 590.993 99.5335 590.993 Q103.168 590.993 104.973 587.451 Q106.802 583.886 106.802 576.78 Q106.802 569.65 104.973 566.109 Q103.168 562.544 99.5335 562.544 M99.5335 558.84 Q105.344 558.84 108.399 563.447 Q111.478 568.03 111.478 576.78 Q111.478 585.507 108.399 590.113 Q105.344 594.697 99.5335 594.697 Q93.7234 594.697 90.6447 590.113 Q87.5892 585.507 87.5892 576.78 Q87.5892 568.03 90.6447 563.447 Q93.7234 558.84 99.5335 558.84 Z" fill="#000000" fill-rule="nonzero" fill-opacity="1" /><path clip-path="url(#clip170)" d="M91.5706 278.745 L99.2095 278.745 L99.2095 252.38 L90.8993 254.046 L90.8993 249.787 L99.1632 248.12 L103.839 248.12 L103.839 278.745 L111.478 278.745 L111.478 282.68 L91.5706 282.68 L91.5706 278.745 Z" fill="#000000" fill-rule="nonzero" fill-opacity="1" /><path clip-path="url(#clip172)" d="M209.891 1445.72 L236.226 1414.08 L262.561 1407.59 L288.896 1367.27 L315.231 1321.45 L341.566 1319.29 L367.9 1299 L394.235 1288.95 L420.57 1298.98 L446.905 1287.47 L473.24 1175.59 L499.574 1143.22 L525.909 1074.71 L552.244 979.86 L578.579 891.577 L604.914 870.736 L631.249 774.556 L657.583 744.571 L683.918 650.945 L710.253 628.98 L736.588 562.885 L762.923 522.781 L789.258 545.896 L815.592 539.112 L841.927 427.749 L868.262 451.842 L894.597 442.49 L920.932 398.295 L947.266 364.058 L973.601 409.932 L999.936 480.188 L1026.27 533.265 L1052.61 587.315 L1078.94 532.403 L1105.28 591.486 L1131.61 519.735 L1157.95 564.369 L1184.28 604.476 L1210.61 597.112 L1236.95 611.814 L1263.28 683.248 L1289.62 647.281 L1315.95 614.709 L1342.29 667.086 L1368.62 718.506 L1394.96 783.373 L1421.29 813.658 L1447.63 821.483 L1473.96 776.682 L1500.3 801.062 L1526.63 811.145 L1552.97 830.02 L1579.3 839.992 L1605.64 801.777 L1631.97 829.944 L1658.31 853.492 L1684.64 838.884 L1710.98 826.766 L1737.31 831.124 L1763.65 909.462 L1789.98 956.064 L1816.32 971.976 L1842.65 994.612 L1868.99 1014.33 L1895.32 988.656 L1921.65 1022.76 L1947.99 993.602 L1974.32 1035.64 L2000.66 964.359 L2026.99 913.248 L2053.33 859.366 L2079.66 858.958 L2106 897.282 L2132.33 877.263 L2158.67 834.992 L2185 777.952 L2211.34 748.704 L2237.67 766.55 L2264.01 761.529 L2290.34 749.299 L2290.34 398.193 L2264.01 393.884 L2237.67 419.299 L2211.34 414.016 L2185 435.942 L2158.67 484.5 L2132.33 553.533 L2106 553.604 L2079.66 539.73 L2053.33 536.882 L2026.99 588.873 L2000.66 662.504 L1974.32 744.832 L1947.99 688.207 L1921.65 701.468 L1895.32 675.208 L1868.99 712.995 L1842.65 688.171 L1816.32 642.579 L1789.98 630.735 L1763.65 585.05 L1737.31 532.526 L1710.98 543.816 L1684.64 546.366 L1658.31 548.715 L1631.97 537.424 L1605.64 494.25 L1579.3 525.026 L1552.97 521.138 L1526.63 511.983 L1500.3 501.51 L1473.96 487.391 L1447.63 530.806 L1421.29 526.727 L1394.96 499.536 L1368.62 425.907 L1342.29 381.546 L1315.95 326.008 L1289.62 352.981 L1263.28 394.431 L1236.95 332.528 L1210.61 308.719 L1184.28 322.64 L1157.95 295.545 L1131.61 248.691 L1105.28 316.276 L1078.94 252.587 L1052.61 303.089 L1026.27 266.419 L999.936 212.068 L973.601 138.782 L947.266 87.9763 L920.932 125.367 L894.597 158.178 L868.262 154.212 L841.927 111.666 L815.592 218.025 L789.258 206.709 L762.923 186.833 L736.588 210.316 L710.253 269.459 L683.918 301.263 L657.583 397.945 L631.249 446.569 L604.914 515.614 L578.579 535.091 L552.244 619.032 L525.909 697.92 L499.574 765.598 L473.24 792.898 L446.905 891.056 L420.57 888.636 L394.235 858.495 L367.9 836.738 L341.566 828.468 L315.231 806.051 L288.896 824.779 L262.561 844.849 L236.226 840.586 L209.891 856.008  Z" fill="#009af9" fill-rule="evenodd" fill-opacity="0.5"/>
<polyline clip-path="url(#clip172)" style="stroke:#009af9; stroke-linecap:round; stroke-linejoin:round; stroke-width:4; stroke-opacity:1; fill:none" points="209.891,1150.86 236.226,1127.33 262.561,1126.22 288.896,1096.02 315.231,1063.75 341.566,1073.88 367.9,1067.87 394.235,1073.72 420.57,1093.81 446.905,1089.26 473.24,984.246 499.574,954.409 525.909,886.317 552.244,799.446 578.579,713.334 604.914,693.175 631.249,610.562 657.583,571.258 683.918,476.104 710.253,449.22 736.588,386.601 762.923,354.807 789.258,376.303 815.592,378.568 841.927,269.708 868.262,303.027 894.597,300.334 920.932,261.831 947.266,226.017 973.601,274.357 999.936,346.128 1026.27,399.842 1052.61,445.202 1078.94,392.495 1105.28,453.881 1131.61,384.213 1157.95,429.957 1184.28,463.558 1210.61,452.916 1236.95,472.171 1263.28,538.839 1289.62,500.131 1315.95,470.358 1342.29,524.316 1368.62,572.206 1394.96,641.454 1421.29,670.192 1447.63,676.145 1473.96,632.036 1500.3,651.286 1526.63,661.564 1552.97,675.579 1579.3,682.509 1605.64,648.013 1631.97,683.684 1658.31,701.104 1684.64,692.625 1710.98,685.291 1737.31,681.825 1763.65,747.256 1789.98,793.4 1816.32,807.278 1842.65,841.392 1868.99,863.66 1895.32,831.932 1921.65,862.113 1947.99,840.905 1974.32,890.235 2000.66,813.432 2026.99,751.061 2053.33,698.124 2079.66,699.344 2106,725.443 2132.33,715.398 2158.67,659.746 2185,606.947 2211.34,581.36 2237.67,592.924 2264.01,577.706 2290.34,573.746 "/>
<path clip-path="url(#clip172)" d="M209.891 472.72 L236.226 514.232 L262.561 567.159 L288.896 619.372 L315.231 663.574 L341.566 697.976 L367.9 745.128 L394.235 790.53 L420.57 837.134 L446.905 893.255 L473.24 939.131 L499.574 980.474 L525.909 1038.09 L552.244 1058.93 L578.579 1084.41 L604.914 1072.54 L631.249 1055.09 L657.583 1051.89 L683.918 1029.27 L710.253 982.802 L736.588 947.302 L762.923 921.801 L789.258 893.442 L815.592 874.349 L841.927 839.264 L868.262 778.09 L894.597 729.853 L920.932 680.011 L947.266 631.627 L973.601 605.397 L999.936 571.23 L1026.27 544.018 L1052.61 527.521 L1078.94 504.578 L1105.28 490.106 L1131.61 496.792 L1157.95 490.533 L1184.28 487.069 L1210.61 485.585 L1236.95 483.625 L1263.28 509.125 L1289.62 523.504 L1315.95 524.856 L1342.29 549.894 L1368.62 556.18 L1394.96 567.799 L1421.29 563.346 L1447.63 555.873 L1473.96 553.635 L1500.3 547.464 L1526.63 558.065 L1552.97 568.638 L1579.3 562.228 L1605.64 584.071 L1631.97 609.847 L1658.31 620.187 L1684.64 645.686 L1710.98 634.119 L1737.31 614.056 L1763.65 615.502 L1789.98 630.63 L1816.32 652.345 L1842.65 675.38 L1868.99 696.095 L1895.32 724.067 L1921.65 769.678 L1947.99 816.926 L1974.32 872.499 L2000.66 892.695 L2026.99 904.868 L2053.33 907.821 L2079.66 900.18 L2106 893.956 L2132.33 914.169 L2158.67 934.895 L2185 948.784 L2211.34 934.434 L2237.67 928.249 L2264.01 916.386 L2290.34 902.69 L2290.34 730.046 L2264.01 772.902 L2237.67 795.272 L2211.34 817.649 L2185 819.701 L2158.67 817.214 L2132.33 787.129 L2106 783.819 L2079.66 785.421 L2053.33 787.309 L2026.99 784.964 L2000.66 773.183 L1974.32 750.93 L1947.99 704.119 L1921.65 651.828 L1895.32 612.509 L1868.99 582.93 L1842.65 567.853 L1816.32 535.652 L1789.98 502.113 L1763.65 488.491 L1737.31 488.655 L1710.98 499.638 L1684.64 507.929 L1658.31 489.104 L1631.97 477.8 L1605.64 461.84 L1579.3 450.358 L1552.97 429.08 L1526.63 439.022 L1500.3 423.125 L1473.96 424.173 L1447.63 436.588 L1421.29 434.329 L1394.96 448.118 L1368.62 430.038 L1342.29 413.844 L1315.95 398.284 L1289.62 388.229 L1263.28 374.651 L1236.95 365.187 L1210.61 363.414 L1184.28 369.677 L1157.95 367.675 L1131.61 396.563 L1105.28 387.163 L1078.94 390.674 L1052.61 412.285 L1026.27 417.197 L999.936 453.305 L973.601 485.606 L947.266 519.896 L920.932 556.481 L894.597 602.266 L868.262 660.702 L841.927 710.968 L815.592 744.36 L789.258 764.586 L762.923 767.628 L736.588 822.441 L710.253 857.989 L683.918 898.186 L657.583 923.469 L631.249 926.326 L604.914 947.343 L578.579 960.178 L552.244 941.934 L525.909 914.136 L499.574 869.21 L473.24 819.37 L446.905 769.936 L420.57 729.118 L394.235 690.702 L367.9 630.946 L341.566 570.865 L315.231 521.004 L288.896 493.893 L262.561 434.179 L236.226 352.008 L209.891 265.686  Z" fill="#e26f46" fill-rule="evenodd" fill-opacity="0.5"/>
<polyline clip-path="url(#clip172)" style="stroke:#e26f46; stroke-linecap:round; stroke-linejoin:round; stroke-width:4; stroke-opacity:1; fill:none" points="209.891,369.203 236.226,433.12 262.561,500.669 288.896,556.633 315.231,592.289 341.566,634.421 367.9,688.037 394.235,740.616 420.57,783.126 446.905,831.595 473.24,879.25 499.574,924.842 525.909,976.112 552.244,1000.43 578.579,1022.29 604.914,1009.94 631.249,990.706 657.583,987.679 683.918,963.727 710.253,920.396 736.588,884.871 762.923,844.714 789.258,829.014 815.592,809.354 841.927,775.116 868.262,719.396 894.597,666.06 920.932,618.246 947.266,575.762 973.601,545.502 999.936,512.268 1026.27,480.608 1052.61,469.903 1078.94,447.626 1105.28,438.635 1131.61,446.677 1157.95,429.104 1184.28,428.373 1210.61,424.499 1236.95,424.406 1263.28,441.888 1289.62,455.866 1315.95,461.57 1342.29,481.869 1368.62,493.109 1394.96,507.959 1421.29,498.837 1447.63,496.23 1473.96,488.904 1500.3,485.295 1526.63,498.543 1552.97,498.859 1579.3,506.293 1605.64,522.955 1631.97,543.824 1658.31,554.646 1684.64,576.807 1710.98,566.879 1737.31,551.356 1763.65,551.997 1789.98,566.372 1816.32,593.998 1842.65,621.617 1868.99,639.512 1895.32,668.288 1921.65,710.753 1947.99,760.522 1974.32,811.714 2000.66,832.939 2026.99,844.916 2053.33,847.565 2079.66,842.801 2106,838.887 2132.33,850.649 2158.67,876.054 2185,884.243 2211.34,876.042 2237.67,861.761 2264.01,844.644 2290.34,816.368 "/>
<polyline clip-path="url(#clip172)" style="stroke:#3da44d; stroke-linecap:round; stroke-linejoin:round; stroke-width:4; stroke-opacity:1; fill:none" stroke-dasharray="16, 10" points="209.891,1134.64 236.226,1112.5 262.561,1156.6 288.896,1081.08 315.231,1083.42 341.566,1065.97 367.9,1000.8 394.235,1010.9 420.57,1044.1 446.905,1043.48 473.24,980.25 499.574,941.382 525.909,883.789 552.244,858.178 578.579,739.891 604.914,694.314 631.249,539.59 657.583,489.174 683.918,385.21 710.253,383.904 736.588,306.644 762.923,296.959 789.258,310.856 815.592,321.759 841.927,210.991 868.262,218.931 894.597,274.889 920.932,175.279 947.266,141.886 973.601,182.461 999.936,271.614 1026.27,323.322 1052.61,471.839 1078.94,459.315 1105.28,461.688 1131.61,346.525 1157.95,374.208 1184.28,374.761 1210.61,353.342 1236.95,392.785 1263.28,421.789 1289.62,379.934 1315.95,304.311 1342.29,384.264 1368.62,436.531 1394.96,487.572 1421.29,554.421 1447.63,583.079 1473.96,525.044 1500.3,561.07 1526.63,546.38 1552.97,519.584 1579.3,548.993 1605.64,474.798 1631.97,551.541 1658.31,563.913 1684.64,571.511 1710.98,589.696 1737.31,581.839 1763.65,672.485 1789.98,788.955 1816.32,842.966 1842.65,887.231 1868.99,907.751 1895.32,854.409 1921.65,898.688 1947.99,886.508 1974.32,942.271 2000.66,877.113 2026.99,830.408 2053.33,769.65 2079.66,775.442 2106,814.468 2132.33,785.7 2158.67,701.7 2185,640.588 2211.34,642.489 2237.67,604.145 2264.01,590.246 2290.34,561.771 "/>
<polyline clip-path="url(#clip172)" style="stroke:#c271d2; stroke-linecap:round; stroke-linejoin:round; stroke-width:4; stroke-opacity:1; fill:none" stroke-dasharray="16, 10" points="209.891,354.604 236.226,450.822 262.561,539.928 288.896,658.599 315.231,621.164 341.566,653.097 367.9,692.096 394.235,722.209 420.57,779.039 446.905,741.924 473.24,834.405 499.574,893.7 525.909,961.732 552.244,1036.21 578.579,1074.2 604.914,1081.02 631.249,1000.1 657.583,1010.92 683.918,993.334 710.253,918.751 736.588,913.617 762.923,878.706 789.258,824.405 815.592,769.931 841.927,716.832 868.262,695.883 894.597,650.136 920.932,614.548 947.266,601.769 973.601,535.47 999.936,515.206 1026.27,468.972 1052.61,499.101 1078.94,456.542 1105.28,483.139 1131.61,497.91 1157.95,441.32 1184.28,439.172 1210.61,426.107 1236.95,444.244 1263.28,375.074 1289.62,430.819 1315.95,471.961 1342.29,477.687 1368.62,497.901 1394.96,491.515 1421.29,499.651 1447.63,516.799 1473.96,536.382 1500.3,498.984 1526.63,475.648 1552.97,485.778 1579.3,476.478 1605.64,465.539 1631.97,498.414 1658.31,551.445 1684.64,552.285 1710.98,581.572 1737.31,576.664 1763.65,565.092 1789.98,567.634 1816.32,572.83 1842.65,628.665 1868.99,599.241 1895.32,620.541 1921.65,738.615 1947.99,751.687 1974.32,824.47 2000.66,824.414 2026.99,819.453 2053.33,795.502 2079.66,775.533 2106,817.09 2132.33,893.171 2158.67,905.102 2185,915.476 2211.34,897.497 2237.67,872.979 2264.01,857.133 2290.34,889.807 "/>
<path clip-path="url(#clip170)" d="M1818.95 354.418 L2279.25 354.418 L2279.25 95.2176 L1818.95 95.2176  Z" fill="#ffffff" fill-rule="evenodd" fill-opacity="1"/>
<polyline clip-path="url(#clip170)" style="stroke:#000000; stroke-linecap:round; stroke-linejoin:round; stroke-width:4; stroke-opacity:1; fill:none" points="1818.95,354.418 2279.25,354.418 2279.25,95.2176 1818.95,95.2176 1818.95,354.418 "/>
<polyline clip-path="url(#clip170)" style="stroke:#009af9; stroke-linecap:round; stroke-linejoin:round; stroke-width:4; stroke-opacity:1; fill:none" points="1843.45,147.058 1990.47,147.058 "/>
<path clip-path="url(#clip170)" d="M2019.65 133.62 L2019.65 146.606 L2025.53 146.606 Q2028.8 146.606 2030.58 144.916 Q2032.36 143.227 2032.36 140.102 Q2032.36 137 2030.58 135.31 Q2028.8 133.62 2025.53 133.62 L2019.65 133.62 M2014.98 129.778 L2025.53 129.778 Q2031.34 129.778 2034.3 132.416 Q2037.29 135.032 2037.29 140.102 Q2037.29 145.217 2034.3 147.833 Q2031.34 150.449 2025.53 150.449 L2019.65 150.449 L2019.65 164.338 L2014.98 164.338 L2014.98 129.778 Z" fill="#000000" fill-rule="nonzero" fill-opacity="1" /><path clip-path="url(#clip170)" d="M2043.56 129.778 L2063.43 129.778 L2063.43 133.713 L2048.24 133.713 L2048.24 143.898 L2061.94 143.898 L2061.94 147.833 L2048.24 147.833 L2048.24 164.338 L2043.56 164.338 L2043.56 129.778 Z" fill="#000000" fill-rule="nonzero" fill-opacity="1" /><path clip-path="url(#clip170)" d="M2102.24 139.176 L2102.24 143.203 Q2100.44 142.277 2098.49 141.815 Q2096.55 141.352 2094.47 141.352 Q2091.3 141.352 2089.7 142.324 Q2088.12 143.296 2088.12 145.24 Q2088.12 146.722 2089.26 147.578 Q2090.39 148.412 2093.82 149.176 L2095.28 149.5 Q2099.81 150.472 2101.71 152.254 Q2103.63 154.014 2103.63 157.185 Q2103.63 160.796 2100.76 162.902 Q2097.92 165.009 2092.92 165.009 Q2090.83 165.009 2088.56 164.592 Q2086.32 164.199 2083.82 163.388 L2083.82 158.99 Q2086.18 160.217 2088.47 160.842 Q2090.76 161.444 2093.01 161.444 Q2096.02 161.444 2097.64 160.426 Q2099.26 159.384 2099.26 157.509 Q2099.26 155.773 2098.08 154.847 Q2096.92 153.921 2092.96 153.064 L2091.48 152.717 Q2087.52 151.884 2085.76 150.171 Q2084 148.435 2084 145.426 Q2084 141.768 2086.6 139.778 Q2089.19 137.787 2093.96 137.787 Q2096.32 137.787 2098.4 138.134 Q2100.49 138.481 2102.24 139.176 Z" fill="#000000" fill-rule="nonzero" fill-opacity="1" /><path clip-path="url(#clip170)" d="M2130.6 143.389 Q2132.2 140.518 2134.42 139.153 Q2136.64 137.787 2139.65 137.787 Q2143.7 137.787 2145.9 140.634 Q2148.1 143.458 2148.1 148.689 L2148.1 164.338 L2143.82 164.338 L2143.82 148.828 Q2143.82 145.102 2142.5 143.296 Q2141.18 141.49 2138.47 141.49 Q2135.16 141.49 2133.24 143.69 Q2131.32 145.889 2131.32 149.685 L2131.32 164.338 L2127.04 164.338 L2127.04 148.828 Q2127.04 145.078 2125.72 143.296 Q2124.4 141.49 2121.64 141.49 Q2118.38 141.49 2116.46 143.713 Q2114.54 145.912 2114.54 149.685 L2114.54 164.338 L2110.25 164.338 L2110.25 138.412 L2114.54 138.412 L2114.54 142.44 Q2115.99 140.055 2118.03 138.921 Q2120.07 137.787 2122.87 137.787 Q2125.69 137.787 2127.66 139.222 Q2129.65 140.657 2130.6 143.389 Z" fill="#000000" fill-rule="nonzero" fill-opacity="1" /><path clip-path="url(#clip170)" d="M2166.64 141.398 Q2163.22 141.398 2161.23 144.083 Q2159.23 146.745 2159.23 151.398 Q2159.23 156.051 2161.2 158.736 Q2163.19 161.398 2166.64 161.398 Q2170.04 161.398 2172.04 158.713 Q2174.03 156.027 2174.03 151.398 Q2174.03 146.791 2172.04 144.106 Q2170.04 141.398 2166.64 141.398 M2166.64 137.787 Q2172.2 137.787 2175.37 141.398 Q2178.54 145.009 2178.54 151.398 Q2178.54 157.764 2175.37 161.398 Q2172.2 165.009 2166.64 165.009 Q2161.06 165.009 2157.89 161.398 Q2154.74 157.764 2154.74 151.398 Q2154.74 145.009 2157.89 141.398 Q2161.06 137.787 2166.64 137.787 Z" fill="#000000" fill-rule="nonzero" fill-opacity="1" /><path clip-path="url(#clip170)" d="M2195.65 141.398 Q2192.22 141.398 2190.23 144.083 Q2188.24 146.745 2188.24 151.398 Q2188.24 156.051 2190.21 158.736 Q2192.2 161.398 2195.65 161.398 Q2199.05 161.398 2201.04 158.713 Q2203.03 156.027 2203.03 151.398 Q2203.03 146.791 2201.04 144.106 Q2199.05 141.398 2195.65 141.398 M2195.65 137.787 Q2201.2 137.787 2204.37 141.398 Q2207.54 145.009 2207.54 151.398 Q2207.54 157.764 2204.37 161.398 Q2201.2 165.009 2195.65 165.009 Q2190.07 165.009 2186.9 161.398 Q2183.75 157.764 2183.75 151.398 Q2183.75 145.009 2186.9 141.398 Q2190.07 137.787 2195.65 137.787 Z" fill="#000000" fill-rule="nonzero" fill-opacity="1" /><path clip-path="url(#clip170)" d="M2218.82 131.051 L2218.82 138.412 L2227.59 138.412 L2227.59 141.722 L2218.82 141.722 L2218.82 155.796 Q2218.82 158.967 2219.67 159.87 Q2220.55 160.773 2223.22 160.773 L2227.59 160.773 L2227.59 164.338 L2223.22 164.338 Q2218.29 164.338 2216.41 162.509 Q2214.54 160.657 2214.54 155.796 L2214.54 141.722 L2211.41 141.722 L2211.41 138.412 L2214.54 138.412 L2214.54 131.051 L2218.82 131.051 Z" fill="#000000" fill-rule="nonzero" fill-opacity="1" /><path clip-path="url(#clip170)" d="M2254.74 148.689 L2254.74 164.338 L2250.48 164.338 L2250.48 148.828 Q2250.48 145.148 2249.05 143.319 Q2247.61 141.49 2244.74 141.49 Q2241.29 141.49 2239.3 143.69 Q2237.31 145.889 2237.31 149.685 L2237.31 164.338 L2233.03 164.338 L2233.03 128.319 L2237.31 128.319 L2237.31 142.44 Q2238.84 140.102 2240.9 138.944 Q2242.98 137.787 2245.69 137.787 Q2250.16 137.787 2252.45 140.565 Q2254.74 143.319 2254.74 148.689 Z" fill="#000000" fill-rule="nonzero" fill-opacity="1" /><polyline clip-path="url(#clip170)" style="stroke:#e26f46; stroke-linecap:round; stroke-linejoin:round; stroke-width:4; stroke-opacity:1; fill:none" points="1843.45,198.898 1990.47,198.898 "/>
<path clip-path="url(#clip170)" d="M2019.65 185.46 L2019.65 198.446 L2025.53 198.446 Q2028.8 198.446 2030.58 196.756 Q2032.36 195.067 2032.36 191.942 Q2032.36 188.84 2030.58 187.15 Q2028.8 185.46 2025.53 185.46 L2019.65 185.46 M2014.98 181.618 L2025.53 181.618 Q2031.34 181.618 2034.3 184.256 Q2037.29 186.872 2037.29 191.942 Q2037.29 197.057 2034.3 199.673 Q2031.34 202.289 2025.53 202.289 L2019.65 202.289 L2019.65 216.178 L2014.98 216.178 L2014.98 181.618 Z" fill="#000000" fill-rule="nonzero" fill-opacity="1" /><path clip-path="url(#clip170)" d="M2043.56 181.618 L2063.43 181.618 L2063.43 185.553 L2048.24 185.553 L2048.24 195.738 L2061.94 195.738 L2061.94 199.673 L2048.24 199.673 L2048.24 216.178 L2043.56 216.178 L2043.56 181.618 Z" fill="#000000" fill-rule="nonzero" fill-opacity="1" /><path clip-path="url(#clip170)" d="M2102.24 191.016 L2102.24 195.043 Q2100.44 194.117 2098.49 193.655 Q2096.55 193.192 2094.47 193.192 Q2091.3 193.192 2089.7 194.164 Q2088.12 195.136 2088.12 197.08 Q2088.12 198.562 2089.26 199.418 Q2090.39 200.252 2093.82 201.016 L2095.28 201.34 Q2099.81 202.312 2101.71 204.094 Q2103.63 205.854 2103.63 209.025 Q2103.63 212.636 2100.76 214.742 Q2097.92 216.849 2092.92 216.849 Q2090.83 216.849 2088.56 216.432 Q2086.32 216.039 2083.82 215.228 L2083.82 210.83 Q2086.18 212.057 2088.47 212.682 Q2090.76 213.284 2093.01 213.284 Q2096.02 213.284 2097.64 212.266 Q2099.26 211.224 2099.26 209.349 Q2099.26 207.613 2098.08 206.687 Q2096.92 205.761 2092.96 204.904 L2091.48 204.557 Q2087.52 203.724 2085.76 202.011 Q2084 200.275 2084 197.266 Q2084 193.608 2086.6 191.618 Q2089.19 189.627 2093.96 189.627 Q2096.32 189.627 2098.4 189.974 Q2100.49 190.321 2102.24 191.016 Z" fill="#000000" fill-rule="nonzero" fill-opacity="1" /><path clip-path="url(#clip170)" d="M2130.6 195.229 Q2132.2 192.358 2134.42 190.993 Q2136.64 189.627 2139.65 189.627 Q2143.7 189.627 2145.9 192.474 Q2148.1 195.298 2148.1 200.529 L2148.1 216.178 L2143.82 216.178 L2143.82 200.668 Q2143.82 196.942 2142.5 195.136 Q2141.18 193.33 2138.47 193.33 Q2135.16 193.33 2133.24 195.53 Q2131.32 197.729 2131.32 201.525 L2131.32 216.178 L2127.04 216.178 L2127.04 200.668 Q2127.04 196.918 2125.72 195.136 Q2124.4 193.33 2121.64 193.33 Q2118.38 193.33 2116.46 195.553 Q2114.54 197.752 2114.54 201.525 L2114.54 216.178 L2110.25 216.178 L2110.25 190.252 L2114.54 190.252 L2114.54 194.28 Q2115.99 191.895 2118.03 190.761 Q2120.07 189.627 2122.87 189.627 Q2125.69 189.627 2127.66 191.062 Q2129.65 192.497 2130.6 195.229 Z" fill="#000000" fill-rule="nonzero" fill-opacity="1" /><path clip-path="url(#clip170)" d="M2166.64 193.238 Q2163.22 193.238 2161.23 195.923 Q2159.23 198.585 2159.23 203.238 Q2159.23 207.891 2161.2 210.576 Q2163.19 213.238 2166.64 213.238 Q2170.04 213.238 2172.04 210.553 Q2174.03 207.867 2174.03 203.238 Q2174.03 198.631 2172.04 195.946 Q2170.04 193.238 2166.64 193.238 M2166.64 189.627 Q2172.2 189.627 2175.37 193.238 Q2178.54 196.849 2178.54 203.238 Q2178.54 209.604 2175.37 213.238 Q2172.2 216.849 2166.64 216.849 Q2161.06 216.849 2157.89 213.238 Q2154.74 209.604 2154.74 203.238 Q2154.74 196.849 2157.89 193.238 Q2161.06 189.627 2166.64 189.627 Z" fill="#000000" fill-rule="nonzero" fill-opacity="1" /><path clip-path="url(#clip170)" d="M2195.65 193.238 Q2192.22 193.238 2190.23 195.923 Q2188.24 198.585 2188.24 203.238 Q2188.24 207.891 2190.21 210.576 Q2192.2 213.238 2195.65 213.238 Q2199.05 213.238 2201.04 210.553 Q2203.03 207.867 2203.03 203.238 Q2203.03 198.631 2201.04 195.946 Q2199.05 193.238 2195.65 193.238 M2195.65 189.627 Q2201.2 189.627 2204.37 193.238 Q2207.54 196.849 2207.54 203.238 Q2207.54 209.604 2204.37 213.238 Q2201.2 216.849 2195.65 216.849 Q2190.07 216.849 2186.9 213.238 Q2183.75 209.604 2183.75 203.238 Q2183.75 196.849 2186.9 193.238 Q2190.07 189.627 2195.65 189.627 Z" fill="#000000" fill-rule="nonzero" fill-opacity="1" /><path clip-path="url(#clip170)" d="M2218.82 182.891 L2218.82 190.252 L2227.59 190.252 L2227.59 193.562 L2218.82 193.562 L2218.82 207.636 Q2218.82 210.807 2219.67 211.71 Q2220.55 212.613 2223.22 212.613 L2227.59 212.613 L2227.59 216.178 L2223.22 216.178 Q2218.29 216.178 2216.41 214.349 Q2214.54 212.497 2214.54 207.636 L2214.54 193.562 L2211.41 193.562 L2211.41 190.252 L2214.54 190.252 L2214.54 182.891 L2218.82 182.891 Z" fill="#000000" fill-rule="nonzero" fill-opacity="1" /><path clip-path="url(#clip170)" d="M2254.74 200.529 L2254.74 216.178 L2250.48 216.178 L2250.48 200.668 Q2250.48 196.988 2249.05 195.159 Q2247.61 193.33 2244.74 193.33 Q2241.29 193.33 2239.3 195.53 Q2237.31 197.729 2237.31 201.525 L2237.31 216.178 L2233.03 216.178 L2233.03 180.159 L2237.31 180.159 L2237.31 194.28 Q2238.84 191.942 2240.9 190.784 Q2242.98 189.627 2245.69 189.627 Q2250.16 189.627 2252.45 192.405 Q2254.74 195.159 2254.74 200.529 Z" fill="#000000" fill-rule="nonzero" fill-opacity="1" /><polyline clip-path="url(#clip170)" style="stroke:#3da44d; stroke-linecap:round; stroke-linejoin:round; stroke-width:4; stroke-opacity:1; fill:none" stroke-dasharray="16, 10" points="1843.45,250.738 1990.47,250.738 "/>
<path clip-path="url(#clip170)" d="M2014.98 233.458 L2044.21 233.458 L2044.21 237.393 L2031.94 237.393 L2031.94 268.018 L2027.24 268.018 L2027.24 237.393 L2014.98 237.393 L2014.98 233.458 Z" fill="#000000" fill-rule="nonzero" fill-opacity="1" /><path clip-path="url(#clip170)" d="M2056.6 246.073 Q2055.88 245.657 2055.02 245.471 Q2054.19 245.263 2053.17 245.263 Q2049.56 245.263 2047.62 247.624 Q2045.69 249.962 2045.69 254.36 L2045.69 268.018 L2041.41 268.018 L2041.41 242.092 L2045.69 242.092 L2045.69 246.12 Q2047.04 243.758 2049.19 242.624 Q2051.34 241.467 2054.42 241.467 Q2054.86 241.467 2055.39 241.536 Q2055.93 241.583 2056.57 241.698 L2056.6 246.073 Z" fill="#000000" fill-rule="nonzero" fill-opacity="1" /><path clip-path="url(#clip170)" d="M2060.62 257.786 L2060.62 242.092 L2064.88 242.092 L2064.88 257.624 Q2064.88 261.305 2066.32 263.156 Q2067.75 264.985 2070.62 264.985 Q2074.07 264.985 2076.06 262.786 Q2078.08 260.587 2078.08 256.791 L2078.08 242.092 L2082.34 242.092 L2082.34 268.018 L2078.08 268.018 L2078.08 264.036 Q2076.53 266.397 2074.47 267.555 Q2072.43 268.689 2069.72 268.689 Q2065.25 268.689 2062.94 265.911 Q2060.62 263.133 2060.62 257.786 M2071.34 241.467 L2071.34 241.467 Z" fill="#000000" fill-rule="nonzero" fill-opacity="1" /><path clip-path="url(#clip170)" d="M2113.29 253.99 L2113.29 256.073 L2093.7 256.073 Q2093.98 260.471 2096.34 262.786 Q2098.73 265.078 2102.96 265.078 Q2105.42 265.078 2107.71 264.476 Q2110.02 263.874 2112.29 262.67 L2112.29 266.698 Q2110 267.67 2107.59 268.18 Q2105.18 268.689 2102.71 268.689 Q2096.5 268.689 2092.87 265.078 Q2089.26 261.467 2089.26 255.309 Q2089.26 248.944 2092.68 245.217 Q2096.13 241.467 2101.97 241.467 Q2107.2 241.467 2110.23 244.846 Q2113.29 248.203 2113.29 253.99 M2109.03 252.74 Q2108.98 249.245 2107.06 247.161 Q2105.16 245.078 2102.01 245.078 Q2098.45 245.078 2096.3 247.092 Q2094.17 249.106 2093.84 252.763 L2109.03 252.74 Z" fill="#000000" fill-rule="nonzero" fill-opacity="1" /><polyline clip-path="url(#clip170)" style="stroke:#c271d2; stroke-linecap:round; stroke-linejoin:round; stroke-width:4; stroke-opacity:1; fill:none" stroke-dasharray="16, 10" points="1843.45,302.578 1990.47,302.578 "/>
<path clip-path="url(#clip170)" d="M2014.98 285.298 L2044.21 285.298 L2044.21 289.233 L2031.94 289.233 L2031.94 319.858 L2027.24 319.858 L2027.24 289.233 L2014.98 289.233 L2014.98 285.298 Z" fill="#000000" fill-rule="nonzero" fill-opacity="1" /><path clip-path="url(#clip170)" d="M2056.6 297.913 Q2055.88 297.497 2055.02 297.311 Q2054.19 297.103 2053.17 297.103 Q2049.56 297.103 2047.62 299.464 Q2045.69 301.802 2045.69 306.2 L2045.69 319.858 L2041.41 319.858 L2041.41 293.932 L2045.69 293.932 L2045.69 297.96 Q2047.04 295.598 2049.19 294.464 Q2051.34 293.307 2054.42 293.307 Q2054.86 293.307 2055.39 293.376 Q2055.93 293.423 2056.57 293.538 L2056.6 297.913 Z" fill="#000000" fill-rule="nonzero" fill-opacity="1" /><path clip-path="url(#clip170)" d="M2060.62 309.626 L2060.62 293.932 L2064.88 293.932 L2064.88 309.464 Q2064.88 313.145 2066.32 314.996 Q2067.75 316.825 2070.62 316.825 Q2074.07 316.825 2076.06 314.626 Q2078.08 312.427 2078.08 308.631 L2078.08 293.932 L2082.34 293.932 L2082.34 319.858 L2078.08 319.858 L2078.08 315.876 Q2076.53 318.237 2074.47 319.395 Q2072.43 320.529 2069.72 320.529 Q2065.25 320.529 2062.94 317.751 Q2060.62 314.973 2060.62 309.626 M2071.34 293.307 L2071.34 293.307 Z" fill="#000000" fill-rule="nonzero" fill-opacity="1" /><path clip-path="url(#clip170)" d="M2113.29 305.83 L2113.29 307.913 L2093.7 307.913 Q2093.98 312.311 2096.34 314.626 Q2098.73 316.918 2102.96 316.918 Q2105.42 316.918 2107.71 316.316 Q2110.02 315.714 2112.29 314.51 L2112.29 318.538 Q2110 319.51 2107.59 320.02 Q2105.18 320.529 2102.71 320.529 Q2096.5 320.529 2092.87 316.918 Q2089.26 313.307 2089.26 307.149 Q2089.26 300.784 2092.68 297.057 Q2096.13 293.307 2101.97 293.307 Q2107.2 293.307 2110.23 296.686 Q2113.29 300.043 2113.29 305.83 M2109.03 304.58 Q2108.98 301.085 2107.06 299.001 Q2105.16 296.918 2102.01 296.918 Q2098.45 296.918 2096.3 298.932 Q2094.17 300.946 2093.84 304.603 L2109.03 304.58 Z" fill="#000000" fill-rule="nonzero" fill-opacity="1" /></svg>
