<?xml version="1.0" encoding="utf-8"?>
<svg xmlns="http://www.w3.org/2000/svg" xmlns:xlink="http://www.w3.org/1999/xlink" width="600" height="400" viewBox="0 0 2400 1600">
<defs>
  <clipPath id="clip190">
    <rect x="0" y="0" width="2400" height="1600"/>
  </clipPath>
</defs>
<path clip-path="url(#clip190)" d="M0 1600 L2400 1600 L2400 0 L0 0  Z" fill="#ffffff" fill-rule="evenodd" fill-opacity="1"/>
<defs>
  <clipPath id="clip191">
    <rect x="177" y="47" width="2176" height="1440"/>
  </clipPath>
</defs>
<path clip-path="url(#clip190)" d="M177.871 1486.45 L2352.76 1486.45 L2352.76 47.2441 L177.871 47.2441  Z" fill="#ffffff" fill-rule="evenodd" fill-opacity="1"/>
<polyline clip-path="url(#clip191)" style="stroke:#000000; stroke-linecap:round; stroke-linejoin:round; stroke-width:2; stroke-opacity:0.1; fill:none" points="387.823,1486.45 387.823,47.2441 "/>
<polyline clip-path="url(#clip191)" style="stroke:#000000; stroke-linecap:round; stroke-linejoin:round; stroke-width:2; stroke-opacity:0.1; fill:none" points="814.029,1486.45 814.029,47.2441 "/>
<polyline clip-path="url(#clip191)" style="stroke:#000000; stroke-linecap:round; stroke-linejoin:round; stroke-width:2; stroke-opacity:0.1; fill:none" points="1240.23,1486.45 1240.23,47.2441 "/>
<polyline clip-path="url(#clip191)" style="stroke:#000000; stroke-linecap:round; stroke-linejoin:round; stroke-width:2; stroke-opacity:0.1; fill:none" points="1666.44,1486.45 1666.44,47.2441 "/>
<polyline clip-path="url(#clip191)" style="stroke:#000000; stroke-linecap:round; stroke-linejoin:round; stroke-width:2; stroke-opacity:0.1; fill:none" points="2092.65,1486.45 2092.65,47.2441 "/>
<polyline clip-path="url(#clip191)" style="stroke:#000000; stroke-linecap:round; stroke-linejoin:round; stroke-width:2; stroke-opacity:0.1; fill:none" points="177.871,1481.23 2352.76,1481.23 "/>
<polyline clip-path="url(#clip191)" style="stroke:#000000; stroke-linecap:round; stroke-linejoin:round; stroke-width:2; stroke-opacity:0.1; fill:none" points="177.871,1175.04 2352.76,1175.04 "/>
<polyline clip-path="url(#clip191)" style="stroke:#000000; stroke-linecap:round; stroke-linejoin:round; stroke-width:2; stroke-opacity:0.1; fill:none" points="177.871,868.86 2352.76,868.86 "/>
<polyline clip-path="url(#clip191)" style="stroke:#000000; stroke-linecap:round; stroke-linejoin:round; stroke-width:2; stroke-opacity:0.1; fill:none" points="177.871,562.676 2352.76,562.676 "/>
<polyline clip-path="url(#clip191)" style="stroke:#000000; stroke-linecap:round; stroke-linejoin:round; stroke-width:2; stroke-opacity:0.1; fill:none" points="177.871,256.492 2352.76,256.492 "/>
<polyline clip-path="url(#clip190)" style="stroke:#000000; stroke-linecap:round; stroke-linejoin:round; stroke-width:4; stroke-opacity:1; fill:none" points="177.871,1486.45 2352.76,1486.45 "/>
<polyline clip-path="url(#clip190)" style="stroke:#000000; stroke-linecap:round; stroke-linejoin:round; stroke-width:4; stroke-opacity:1; fill:none" points="387.823,1486.45 387.823,1467.55 "/>
<polyline clip-path="url(#clip190)" style="stroke:#000000; stroke-linecap:round; stroke-linejoin:round; stroke-width:4; stroke-opacity:1; fill:none" points="814.029,1486.45 814.029,1467.55 "/>
<polyline clip-path="url(#clip190)" style="stroke:#000000; stroke-linecap:round; stroke-linejoin:round; stroke-width:4; stroke-opacity:1; fill:none" points="1240.23,1486.45 1240.23,1467.55 "/>
<polyline clip-path="url(#clip190)" style="stroke:#000000; stroke-linecap:round; stroke-linejoin:round; stroke-width:4; stroke-opacity:1; fill:none" points="1666.44,1486.45 1666.44,1467.55 "/>
<polyline clip-path="url(#clip190)" style="stroke:#000000; stroke-linecap:round; stroke-linejoin:round; stroke-width:4; stroke-opacity:1; fill:none" points="2092.65,1486.45 2092.65,1467.55 "/>
<path clip-path="url(#clip190)" d="M341.885 1532.02 L371.561 1532.02 L371.561 1535.95 L341.885 1535.95 L341.885 1532.02 Z" fill="#000000" fill-rule="nonzero" fill-opacity="1" /><path clip-path="url(#clip190)" d="M395.82 1530.21 Q399.177 1530.93 401.052 1533.2 Q402.95 1535.47 402.95 1538.8 Q402.95 1543.92 399.431 1546.72 Q395.913 1549.52 389.431 1549.52 Q387.255 1549.52 384.941 1549.08 Q382.649 1548.66 380.195 1547.81 L380.195 1543.29 Q382.14 1544.43 384.455 1545.01 Q386.769 1545.58 389.293 1545.58 Q393.691 1545.58 395.982 1543.85 Q398.297 1542.11 398.297 1538.8 Q398.297 1535.75 396.144 1534.03 Q394.015 1532.3 390.195 1532.3 L386.168 1532.3 L386.168 1528.45 L390.38 1528.45 Q393.83 1528.45 395.658 1527.09 Q397.487 1525.7 397.487 1523.11 Q397.487 1520.45 395.589 1519.03 Q393.714 1517.6 390.195 1517.6 Q388.274 1517.6 386.075 1518.01 Q383.876 1518.43 381.237 1519.31 L381.237 1515.14 Q383.899 1514.4 386.214 1514.03 Q388.552 1513.66 390.612 1513.66 Q395.936 1513.66 399.038 1516.09 Q402.14 1518.5 402.14 1522.62 Q402.14 1525.49 400.496 1527.48 Q398.853 1529.45 395.82 1530.21 Z" fill="#000000" fill-rule="nonzero" fill-opacity="1" /><path clip-path="url(#clip190)" d="M421.815 1517.37 Q418.204 1517.37 416.376 1520.93 Q414.57 1524.47 414.57 1531.6 Q414.57 1538.71 416.376 1542.27 Q418.204 1545.82 421.815 1545.82 Q425.45 1545.82 427.255 1542.27 Q429.084 1538.71 429.084 1531.6 Q429.084 1524.47 427.255 1520.93 Q425.45 1517.37 421.815 1517.37 M421.815 1513.66 Q427.626 1513.66 430.681 1518.27 Q433.76 1522.85 433.76 1531.6 Q433.76 1540.33 430.681 1544.94 Q427.626 1549.52 421.815 1549.52 Q416.005 1549.52 412.927 1544.94 Q409.871 1540.33 409.871 1531.6 Q409.871 1522.85 412.927 1518.27 Q416.005 1513.66 421.815 1513.66 Z" fill="#000000" fill-rule="nonzero" fill-opacity="1" /><path clip-path="url(#clip190)" d="M814.029 1517.37 Q810.418 1517.37 808.589 1520.93 Q806.783 1524.47 806.783 1531.6 Q806.783 1538.71 808.589 1542.27 Q810.418 1545.82 814.029 1545.82 Q817.663 1545.82 819.469 1542.27 Q821.297 1538.71 821.297 1531.6 Q821.297 1524.47 819.469 1520.93 Q817.663 1517.37 814.029 1517.37 M814.029 1513.66 Q819.839 1513.66 822.894 1518.27 Q825.973 1522.85 825.973 1531.6 Q825.973 1540.33 822.894 1544.94 Q819.839 1549.52 814.029 1549.52 Q808.219 1549.52 805.14 1544.94 Q802.084 1540.33 802.084 1531.6 Q802.084 1522.85 805.14 1518.27 Q808.219 1513.66 814.029 1513.66 Z" fill="#000000" fill-rule="nonzero" fill-opacity="1" /><path clip-path="url(#clip190)" d="M1229.08 1530.21 Q1232.43 1530.93 1234.31 1533.2 Q1236.21 1535.47 1236.21 1538.8 Q1236.21 1543.92 1232.69 1546.72 Q1229.17 1549.52 1222.69 1549.52 Q1220.51 1549.52 1218.2 1549.08 Q1215.91 1548.66 1213.45 1547.81 L1213.45 1543.29 Q1215.4 1544.43 1217.71 1545.01 Q1220.03 1545.58 1222.55 1545.58 Q1226.95 1545.58 1229.24 1543.85 Q1231.55 1542.11 1231.55 1538.8 Q1231.55 1535.75 1229.4 1534.03 Q1227.27 1532.3 1223.45 1532.3 L1219.42 1532.3 L1219.42 1528.45 L1223.64 1528.45 Q1227.09 1528.45 1228.92 1527.09 Q1230.74 1525.7 1230.74 1523.11 Q1230.74 1520.45 1228.85 1519.03 Q1226.97 1517.6 1223.45 1517.6 Q1221.53 1517.6 1219.33 1518.01 Q1217.13 1518.43 1214.49 1519.31 L1214.49 1515.14 Q1217.16 1514.4 1219.47 1514.03 Q1221.81 1513.66 1223.87 1513.66 Q1229.19 1513.66 1232.3 1516.09 Q1235.4 1518.5 1235.4 1522.62 Q1235.4 1525.49 1233.75 1527.48 Q1232.11 1529.45 1229.08 1530.21 Z" fill="#000000" fill-rule="nonzero" fill-opacity="1" /><path clip-path="url(#clip190)" d="M1255.07 1517.37 Q1251.46 1517.37 1249.63 1520.93 Q1247.83 1524.47 1247.83 1531.6 Q1247.83 1538.71 1249.63 1542.27 Q1251.46 1545.82 1255.07 1545.82 Q1258.71 1545.82 1260.51 1542.27 Q1262.34 1538.71 1262.34 1531.6 Q1262.34 1524.47 1260.51 1520.93 Q1258.71 1517.37 1255.07 1517.37 M1255.07 1513.66 Q1260.88 1513.66 1263.94 1518.27 Q1267.02 1522.85 1267.02 1531.6 Q1267.02 1540.33 1263.94 1544.94 Q1260.88 1549.52 1255.07 1549.52 Q1249.26 1549.52 1246.18 1544.94 Q1243.13 1540.33 1243.13 1531.6 Q1243.13 1522.85 1246.18 1518.27 Q1249.26 1513.66 1255.07 1513.66 Z" fill="#000000" fill-rule="nonzero" fill-opacity="1" /><path clip-path="url(#clip190)" d="M1651.85 1529.7 Q1648.7 1529.7 1646.85 1531.86 Q1645.02 1534.01 1645.02 1537.76 Q1645.02 1541.49 1646.85 1543.66 Q1648.7 1545.82 1651.85 1545.82 Q1654.99 1545.82 1656.82 1543.66 Q1658.67 1541.49 1658.67 1537.76 Q1658.67 1534.01 1656.82 1531.86 Q1654.99 1529.7 1651.85 1529.7 M1661.13 1515.05 L1661.13 1519.31 Q1659.37 1518.48 1657.56 1518.04 Q1655.78 1517.6 1654.02 1517.6 Q1649.39 1517.6 1646.94 1520.72 Q1644.51 1523.85 1644.16 1530.17 Q1645.53 1528.15 1647.59 1527.09 Q1649.65 1526 1652.12 1526 Q1657.33 1526 1660.34 1529.17 Q1663.37 1532.32 1663.37 1537.76 Q1663.37 1543.08 1660.23 1546.3 Q1657.08 1549.52 1651.85 1549.52 Q1645.85 1549.52 1642.68 1544.94 Q1639.51 1540.33 1639.51 1531.6 Q1639.51 1523.41 1643.4 1518.55 Q1647.29 1513.66 1653.84 1513.66 Q1655.6 1513.66 1657.38 1514.01 Q1659.18 1514.36 1661.13 1515.05 Z" fill="#000000" fill-rule="nonzero" fill-opacity="1" /><path clip-path="url(#clip190)" d="M1681.43 1517.37 Q1677.82 1517.37 1675.99 1520.93 Q1674.18 1524.47 1674.18 1531.6 Q1674.18 1538.71 1675.99 1542.27 Q1677.82 1545.82 1681.43 1545.82 Q1685.06 1545.82 1686.87 1542.27 Q1688.7 1538.71 1688.7 1531.6 Q1688.7 1524.47 1686.87 1520.93 Q1685.06 1517.37 1681.43 1517.37 M1681.43 1513.66 Q1687.24 1513.66 1690.3 1518.27 Q1693.37 1522.85 1693.37 1531.6 Q1693.37 1540.33 1690.3 1544.94 Q1687.24 1549.52 1681.43 1549.52 Q1675.62 1549.52 1672.54 1544.94 Q1669.49 1540.33 1669.49 1531.6 Q1669.49 1522.85 1672.54 1518.27 Q1675.62 1513.66 1681.43 1513.66 Z" fill="#000000" fill-rule="nonzero" fill-opacity="1" /><path clip-path="url(#clip190)" d="M2067.77 1548.13 L2067.77 1543.87 Q2069.53 1544.7 2071.34 1545.14 Q2073.15 1545.58 2074.88 1545.58 Q2079.51 1545.58 2081.94 1542.48 Q2084.4 1539.36 2084.74 1533.01 Q2083.4 1535.01 2081.34 1536.07 Q2079.28 1537.13 2076.78 1537.13 Q2071.59 1537.13 2068.56 1534.01 Q2065.55 1530.86 2065.55 1525.42 Q2065.55 1520.1 2068.7 1516.88 Q2071.85 1513.66 2077.08 1513.66 Q2083.08 1513.66 2086.22 1518.27 Q2089.4 1522.85 2089.4 1531.6 Q2089.4 1539.77 2085.51 1544.66 Q2081.64 1549.52 2075.09 1549.52 Q2073.33 1549.52 2071.52 1549.17 Q2069.72 1548.82 2067.77 1548.13 M2077.08 1533.48 Q2080.23 1533.48 2082.06 1531.32 Q2083.91 1529.17 2083.91 1525.42 Q2083.91 1521.7 2082.06 1519.54 Q2080.23 1517.37 2077.08 1517.37 Q2073.93 1517.37 2072.08 1519.54 Q2070.25 1521.7 2070.25 1525.42 Q2070.25 1529.17 2072.08 1531.32 Q2073.93 1533.48 2077.08 1533.48 Z" fill="#000000" fill-rule="nonzero" fill-opacity="1" /><path clip-path="url(#clip190)" d="M2107.8 1517.37 Q2104.19 1517.37 2102.36 1520.93 Q2100.55 1524.47 2100.55 1531.6 Q2100.55 1538.71 2102.36 1542.27 Q2104.19 1545.82 2107.8 1545.82 Q2111.43 1545.82 2113.24 1542.27 Q2115.07 1538.71 2115.07 1531.6 Q2115.07 1524.47 2113.24 1520.93 Q2111.43 1517.37 2107.8 1517.37 M2107.8 1513.66 Q2113.61 1513.66 2116.66 1518.27 Q2119.74 1522.85 2119.74 1531.6 Q2119.74 1540.33 2116.66 1544.94 Q2113.61 1549.52 2107.8 1549.52 Q2101.99 1549.52 2098.91 1544.94 Q2095.85 1540.33 2095.85 1531.6 Q2095.85 1522.85 2098.91 1518.27 Q2101.99 1513.66 2107.8 1513.66 Z" fill="#000000" fill-rule="nonzero" fill-opacity="1" /><polyline clip-path="url(#clip190)" style="stroke:#000000; stroke-linecap:round; stroke-linejoin:round; stroke-width:4; stroke-opacity:1; fill:none" points="177.871,1486.45 177.871,47.2441 "/>
<polyline clip-path="url(#clip190)" style="stroke:#000000; stroke-linecap:round; stroke-linejoin:round; stroke-width:4; stroke-opacity:1; fill:none" points="177.871,1481.23 196.769,1481.23 "/>
<polyline clip-path="url(#clip190)" style="stroke:#000000; stroke-linecap:round; stroke-linejoin:round; stroke-width:4; stroke-opacity:1; fill:none" points="177.871,1175.04 196.769,1175.04 "/>
<polyline clip-path="url(#clip190)" style="stroke:#000000; stroke-linecap:round; stroke-linejoin:round; stroke-width:4; stroke-opacity:1; fill:none" points="177.871,868.86 196.769,868.86 "/>
<polyline clip-path="url(#clip190)" style="stroke:#000000; stroke-linecap:round; stroke-linejoin:round; stroke-width:4; stroke-opacity:1; fill:none" points="177.871,562.676 196.769,562.676 "/>
<polyline clip-path="url(#clip190)" style="stroke:#000000; stroke-linecap:round; stroke-linejoin:round; stroke-width:4; stroke-opacity:1; fill:none" points="177.871,256.492 196.769,256.492 "/>
<path clip-path="url(#clip190)" d="M50.9921 1481.68 L80.6679 1481.68 L80.6679 1485.62 L50.9921 1485.62 L50.9921 1481.68 Z" fill="#000000" fill-rule="nonzero" fill-opacity="1" /><path clip-path="url(#clip190)" d="M94.7882 1494.57 L111.108 1494.57 L111.108 1498.51 L89.1632 1498.51 L89.1632 1494.57 Q91.8252 1491.82 96.4085 1487.19 Q101.015 1482.54 102.196 1481.19 Q104.441 1478.67 105.321 1476.93 Q106.223 1475.18 106.223 1473.49 Q106.223 1470.73 104.279 1469 Q102.358 1467.26 99.2558 1467.26 Q97.0567 1467.26 94.603 1468.02 Q92.1725 1468.79 89.3947 1470.34 L89.3947 1465.62 Q92.2188 1464.48 94.6724 1463.9 Q97.1261 1463.32 99.1632 1463.32 Q104.534 1463.32 107.728 1466.01 Q110.922 1468.69 110.922 1473.18 Q110.922 1475.31 110.112 1477.24 Q109.325 1479.13 107.219 1481.73 Q106.64 1482.4 103.538 1485.62 Q100.436 1488.81 94.7882 1494.57 Z" fill="#000000" fill-rule="nonzero" fill-opacity="1" /><path clip-path="url(#clip190)" d="M120.969 1463.95 L139.325 1463.95 L139.325 1467.88 L125.251 1467.88 L125.251 1476.36 Q126.27 1476.01 127.288 1475.85 Q128.307 1475.66 129.325 1475.66 Q135.112 1475.66 138.492 1478.83 Q141.871 1482 141.871 1487.42 Q141.871 1493 138.399 1496.1 Q134.927 1499.18 128.607 1499.18 Q126.432 1499.18 124.163 1498.81 Q121.918 1498.44 119.51 1497.7 L119.51 1493 Q121.594 1494.13 123.816 1494.69 Q126.038 1495.24 128.515 1495.24 Q132.519 1495.24 134.857 1493.14 Q137.195 1491.03 137.195 1487.42 Q137.195 1483.81 134.857 1481.7 Q132.519 1479.6 128.515 1479.6 Q126.64 1479.6 124.765 1480.01 Q122.913 1480.43 120.969 1481.31 L120.969 1463.95 Z" fill="#000000" fill-rule="nonzero" fill-opacity="1" /><path clip-path="url(#clip190)" d="M129.927 1160.84 Q126.316 1160.84 124.487 1164.41 Q122.682 1167.95 122.682 1175.08 Q122.682 1182.19 124.487 1185.75 Q126.316 1189.29 129.927 1189.29 Q133.561 1189.29 135.367 1185.75 Q137.195 1182.19 137.195 1175.08 Q137.195 1167.95 135.367 1164.41 Q133.561 1160.84 129.927 1160.84 M129.927 1157.14 Q135.737 1157.14 138.793 1161.75 Q141.871 1166.33 141.871 1175.08 Q141.871 1183.81 138.793 1188.41 Q135.737 1193 129.927 1193 Q124.117 1193 121.038 1188.41 Q117.983 1183.81 117.983 1175.08 Q117.983 1166.33 121.038 1161.75 Q124.117 1157.14 129.927 1157.14 Z" fill="#000000" fill-rule="nonzero" fill-opacity="1" /><path clip-path="url(#clip190)" d="M94.7882 882.205 L111.108 882.205 L111.108 886.14 L89.1632 886.14 L89.1632 882.205 Q91.8252 879.451 96.4085 874.821 Q101.015 870.168 102.196 868.826 Q104.441 866.302 105.321 864.566 Q106.223 862.807 106.223 861.117 Q106.223 858.363 104.279 856.627 Q102.358 854.89 99.2558 854.89 Q97.0567 854.89 94.603 855.654 Q92.1725 856.418 89.3947 857.969 L89.3947 853.247 Q92.2188 852.113 94.6724 851.534 Q97.1261 850.955 99.1632 850.955 Q104.534 850.955 107.728 853.64 Q110.922 856.326 110.922 860.816 Q110.922 862.946 110.112 864.867 Q109.325 866.765 107.219 869.358 Q106.64 870.029 103.538 873.247 Q100.436 876.441 94.7882 882.205 Z" fill="#000000" fill-rule="nonzero" fill-opacity="1" /><path clip-path="url(#clip190)" d="M120.969 851.58 L139.325 851.58 L139.325 855.515 L125.251 855.515 L125.251 863.988 Q126.27 863.64 127.288 863.478 Q128.307 863.293 129.325 863.293 Q135.112 863.293 138.492 866.465 Q141.871 869.636 141.871 875.052 Q141.871 880.631 138.399 883.733 Q134.927 886.812 128.607 886.812 Q126.432 886.812 124.163 886.441 Q121.918 886.071 119.51 885.33 L119.51 880.631 Q121.594 881.765 123.816 882.321 Q126.038 882.876 128.515 882.876 Q132.519 882.876 134.857 880.77 Q137.195 878.664 137.195 875.052 Q137.195 871.441 134.857 869.335 Q132.519 867.228 128.515 867.228 Q126.64 867.228 124.765 867.645 Q122.913 868.062 120.969 868.941 L120.969 851.58 Z" fill="#000000" fill-rule="nonzero" fill-opacity="1" /><path clip-path="url(#clip190)" d="M89.8114 545.396 L108.168 545.396 L108.168 549.331 L94.0937 549.331 L94.0937 557.803 Q95.1123 557.456 96.1308 557.294 Q97.1493 557.109 98.1678 557.109 Q103.955 557.109 107.334 560.28 Q110.714 563.452 110.714 568.868 Q110.714 574.447 107.242 577.549 Q103.77 580.627 97.4502 580.627 Q95.2743 580.627 93.0058 580.257 Q90.7604 579.887 88.353 579.146 L88.353 574.447 Q90.4364 575.581 92.6586 576.137 Q94.8808 576.692 97.3576 576.692 Q101.362 576.692 103.7 574.586 Q106.038 572.479 106.038 568.868 Q106.038 565.257 103.7 563.151 Q101.362 561.044 97.3576 561.044 Q95.4826 561.044 93.6076 561.461 Q91.7558 561.877 89.8114 562.757 L89.8114 545.396 Z" fill="#000000" fill-rule="nonzero" fill-opacity="1" /><path clip-path="url(#clip190)" d="M129.927 548.475 Q126.316 548.475 124.487 552.04 Q122.682 555.581 122.682 562.711 Q122.682 569.817 124.487 573.382 Q126.316 576.924 129.927 576.924 Q133.561 576.924 135.367 573.382 Q137.195 569.817 137.195 562.711 Q137.195 555.581 135.367 552.04 Q133.561 548.475 129.927 548.475 M129.927 544.771 Q135.737 544.771 138.793 549.378 Q141.871 553.961 141.871 562.711 Q141.871 571.438 138.793 576.044 Q135.737 580.627 129.927 580.627 Q124.117 580.627 121.038 576.044 Q117.983 571.438 117.983 562.711 Q117.983 553.961 121.038 549.378 Q124.117 544.771 129.927 544.771 Z" fill="#000000" fill-rule="nonzero" fill-opacity="1" /><path clip-path="url(#clip190)" d="M89.5799 239.212 L111.802 239.212 L111.802 241.203 L99.2558 273.772 L94.3715 273.772 L106.177 243.147 L89.5799 243.147 L89.5799 239.212 Z" fill="#000000" fill-rule="nonzero" fill-opacity="1" /><path clip-path="url(#clip190)" d="M120.969 239.212 L139.325 239.212 L139.325 243.147 L125.251 243.147 L125.251 251.619 Q126.27 251.272 127.288 251.11 Q128.307 250.925 129.325 250.925 Q135.112 250.925 138.492 254.096 Q141.871 257.267 141.871 262.684 Q141.871 268.263 138.399 271.364 Q134.927 274.443 128.607 274.443 Q126.432 274.443 124.163 274.073 Q121.918 273.702 119.51 272.962 L119.51 268.263 Q121.594 269.397 123.816 269.952 Q126.038 270.508 128.515 270.508 Q132.519 270.508 134.857 268.402 Q137.195 266.295 137.195 262.684 Q137.195 259.073 134.857 256.966 Q132.519 254.86 128.515 254.86 Q126.64 254.86 124.765 255.277 Q122.913 255.693 120.969 256.573 L120.969 239.212 Z" fill="#000000" fill-rule="nonzero" fill-opacity="1" /><polyline clip-path="url(#clip191)" style="stroke:#0000ff; stroke-linecap:round; stroke-linejoin:round; stroke-width:4; stroke-opacity:1; fill:none" points="239.425,714.377 269.435,720.606 272.453,716.557 282.456,714.839 289.659,714.071 311.723,715.477 335.121,719.561 361.803,722.198 388.537,724.793 419.244,729.713 448.171,730.366 473.393,730.524 508.758,731.546 530.869,736.868 553.721,741.009 587.643,744.456 613.335,746.434 635.054,750.924 663.215,757.538 686.623,764.825 709.3,772.436 731.827,779.278 758.741,786.299 781.499,794.993 807.059,800.741 837.05,808.433 859.542,808.594 892.965,810.67 917.751,818.503 944.134,825.605 974.236,835.173 998.871,843.754 1024.38,850.443 1043.52,860.476 1060.9,872.406 1068.27,878.158 1089.01,881.711 1106,883.815 1127.39,885.246 1152.31,888.679 1178.42,898.039 1205.53,907.587 1227.5,912.866 1252.31,916.647 1283.64,918.623 1312.17,919.947 1344.48,923.897 1372.48,928.785 1398.5,932.398 1423.35,934.887 1454.94,934.601 1479.12,933.874 1505.71,932.977 1531.43,930.285 1560.18,925.614 1588.04,925.595 1615.27,924 1640.23,924.392 1661.03,918.295 1679.57,915.78 1696.3,909.339 1713.27,902.952 1734.16,902.286 1756.56,899.826 1778.03,901.417 1796.61,904.891 1818.63,911.632 1838.75,922.717 1859.84,934.622 1875.23,945.508 1890.66,961.928 1901.13,976.203 1909,990.609 1917.89,1009.85 1928.8,1028.03 1941.47,1047.11 1951.62,1057.97 1968.9,1065.12 1983.27,1068.28 1993.5,1067.63 2013.92,1060.54 2029.9,1055.6 2050.56,1035.45 2063.36,1019.88 2067.62,999.322 2070.83,981.659 2071.13,960.997 2057.19,945.581 2039,937.147 2016.09,927.635 1987.5,929.559 1962.82,928.152 1941.76,924.355 1922.52,921.425 1900.41,919.352 1881.06,925.033 1859.54,931.777 1842.55,939.368 1820.13,942.323 1796.11,942.324 1769.7,938.383 1747.69,928.316 1725.13,917.719 1695.26,901.633 1669.7,884.066 1646.73,866.508 1631.83,851.571 1620.08,838.388 1603.4,824.696 1589.13,808.289 1577.77,792.879 1570.89,776.636 1571.06,760.702 1582.53,746.073 1596.5,733.094 1616.64,724.915 1635.18,726.071 1662.15,726.228 1681.72,737.373 1703.14,745.051 1718.6,749.933 1741.6,756.643 1763.38,768.623 1775.34,778.319 1792.31,789.116 1809.97,799.985 1830.97,807.843 1851.16,810.082 1872.44,811.094 1896.34,805.134 1917.33,801.205 1933.32,799.677 1951.99,806.085 1967.85,816.951 1983.08,831.619 1993.73,847.482 2001.84,867.4 2009.43,888.874 2013.49,909.039 2012.47,930.245 2012.42,941.376 2015.12,955.221 2025.08,973.368 2032,990.293 2043.13,1005.18 2054.55,1012.65 2067.53,1016.68 2085.12,1012.69 2103.58,1006.06 2117.31,996.971 2133.71,984.097 2143.43,974.551 2147.53,956.077 2139.12,939.323 2120.96,920.175 2106.42,903.027 2085.18,891.701 2057.39,886.628 2030.41,882.596 2011.67,880.459 1987.61,878.562 1967.09,876.427 1949.12,866.904 1933.93,860.65 1912.08,854.534 1896.37,854.089 1874.86,856.491 1855.1,851.157 1834.97,845.591 1815.81,843.955 1791.32,840.615 1773.1,836.108 1755.95,832.062 1734.68,830.223 1707.88,831.097 1681.68,836.885 1666.03,835.962 1661.11,828.817 1656.89,825.622 1649.36,824.332 1638.78,823.819 1630.53,822.98 1617.52,826.334 1603.46,832.46 1577.8,837.44 1556.83,841.024 1542.66,846.246 1533.72,854.928 1539.5,856.77 1552.04,854.5 1581.77,851.723 1603.69,836.194 1620.57,819.425 1628.05,804.151 1621.24,787.06 1605.89,769.203 1595.13,757.984 1584.75,736.885 1565.87,726.648 1545.33,736.966 1523.69,737.836 1494.77,732.676 1490.76,715.138 1486.25,696.214 1487.36,676.284 1491.43,659.51 1506.69,637.176 1514.22,618.103 1518.11,594.664 1501.51,582.497 1480.34,574.198 1470.17,571.523 1479.12,558.744 1497.9,548.86 1533.41,547.299 1571.97,533.211 1597.2,515.455 1616.71,492.853 1630.92,471.677 1650.6,462.772 1677.12,465.219 1700.71,470.868 1719.61,488.489 1746.97,501.802 1766.52,517.363 1775.95,537.934 1765.21,554.017 1747.67,570.834 1721.5,584.091 1687.64,590.122 1662.77,589.596 1629.24,575.005 1603.21,559.95 1593.54,538.818 1592.31,516.954 1608.97,501.743 1623.78,491.024 1646.48,477.691 1670.47,468.974 1692.71,454.279 1715.34,441.665 1735.36,440.096 1758.56,426.212 1761.26,411.609 1771.73,395.109 1784.35,389.852 1802.43,372.559 1795.64,359.143 1774.8,348.397 1770.74,346.732 1781.35,341.609 1804.68,335.884 1832.57,339.972 1857.41,341.836 1884.03,347.568 1907.6,365.375 1912.18,383.187 1908.53,394.919 1888.36,406.599 1872.98,428.902 1857.91,456.03 1848.69,487.678 1848.55,508.221 1814.32,512.108 1790.47,527.18 1759.43,533.915 1730.12,550.001 1712.67,574.85 1693.04,593.522 1665.53,588.279 1644.73,577.391 1617.66,568.227 1602.92,555.506 1577,539.033 1568.6,532.651 1576.23,510.931 1599.49,501.577 1633.66,496.463 1662.11,500.016 1696.15,506.232 1724.25,520.323 1732.88,541.136 1746.09,562.466 1761.88,567.554 1788.07,572.459 1811.94,582.807 1822.14,585.879 1846.66,577.782 1870.77,570.735 1889.16,561.358 1910.1,563.333 1929.39,577.4 1928.37,594.76 1928.51,615.94 1915.27,648.208 1895.74,673.037 1873.01,692.328 1850.73,722.145 1847.7,747.261 1814.69,759.927 1785.57,765.614 1756.8,779.313 1731.36,793.684 1715.48,812.475 1699.97,832.997 1673.95,856.215 1646.4,865.542 1620.79,856.687 1597.24,850.311 1565.31,847.241 1537.96,838.508 1518.11,817.996 1503.74,797.602 1474.22,774.717 1457.42,756.599 1431.94,738.832 1408.3,735.92 1378.04,741.789 1360.09,740.204 1334.69,731.862 1328.97,706.204 1313.2,697.635 1289.37,701.739 1271.75,709.4 1248.68,726.176 1241.31,732.339 1211.42,736.442 1188.24,742.184 1163.06,736.218 1142.98,717.763 1119.71,705.026 1084.99,700.044 1053.92,690.642 1031.19,686.035 1010.64,675.777 990.159,654.646 989.395,641.484 999.477,622.349 1015.14,601.302 1025.66,578.783 1032.01,548.751 1039.86,524.03 1024.69,503.419 1005.27,498.411 995.045,488.421 998.494,475.148 1024.03,474.061 1058.94,477.334 1100.04,475.459 1133.63,471.282 1161.45,453.975 1184.95,428.827 1210.09,409.74 1241.03,403.202 1279.34,405.02 1311.59,416.602 1341.99,432.15 1371.71,444.899 1398.26,457.052 1419.57,471.184 1454.54,479.532 1480.6,492.416 1506.99,514.627 1536.43,541.706 1563.51,557.411 1587.71,568.76 1606.33,579.354 1615.79,570.577 1635.92,560.49 1662.35,546.847 1684.75,536.713 1714.04,524.754 1746.47,524.194 1781.43,533.208 1809.14,558.196 1816.69,579.364 1813.24,611.213 1795.71,643.198 1793.53,670.392 1784.72,702.696 1785.18,735.906 1800.74,766.823 1831.08,791.737 1870.05,790.387 1892.25,792.138 1922.87,799.797 1942.34,821.225 1967.61,846.839 1988.58,878.936 1999.91,912.089 2004.89,933.965 2020.92,917.736 2056.24,921.47 2082.7,927.459 2095.15,942.138 2096.78,946.81 2098.75,951.305 2103.14,967.707 2105.24,973.293 2117.21,977.693 2133.48,979.293 2161.02,973.92 2189.05,982.706 2203.47,995.118 2216.52,1017.25 2217.82,1030.27 2220.76,1019.32 2225.66,1001.53 2224.99,973.888 2216.42,947.529 2201.13,924.179 2189.06,901.873 2189.21,881.359 2162.79,858.852 2156.28,828.228 2160.45,802.63 2178.08,791.219 2199.01,793.895 2223.13,802.586 2239.5,815.179 2251.02,835.591 2275.62,857.412 2290.48,878.376 2282.11,905.483 2261.63,927.047 2245.22,947.679 2214.7,959.893 2196.18,977.984 2169.99,990.706 2143.78,1013 2124.21,1034.88 2112.45,1058.68 2094.43,1081.45 2076.15,1104.25 2051.13,1121.13 2025.95,1132.22 1995.73,1148.71 1970,1166.65 1942.22,1174.57 1913.56,1193.57 1897,1210.26 1865.94,1224.13 1846.14,1237.7 1828.62,1258 1811.29,1285.79 1804.23,1305.59 1798.91,1325.45 1792.15,1350.01 1815.24,1371.35 1823.56,1385.24 1816.17,1409.33 1809.7,1435.45 1790.47,1439 1768.17,1437.26 1746.53,1419.23 1733.39,1393.54 1720.55,1371.43 1695.59,1348.74 1658.23,1322.82 1628.39,1314.94 1593.91,1312.93 1556.63,1320.25 1516.36,1330.33 1488.84,1332.22 1454.93,1321.24 1429.38,1308.13 1408.59,1283.82 1407.22,1250.86 1402.95,1211.52 1383.33,1184.31 1361.54,1162.9 1366,1132.42 1364.27,1105.27 1356.3,1080.33 1345.05,1051.93 1325.78,1028.55 1320.83,1001.72 1326.86,967.667 1336.06,934.884 1354.07,905.397 1370.59,875.156 1383.58,843.042 1409.7,821.327 1405.03,793.667 1389.49,769.059 1359.72,746.488 1327.98,743.639 1307.56,730.984 1299.08,705.607 1295.29,673.879 1308.12,645.805 1322.88,624.486 1343.11,615.138 1374.77,603.712 1410.77,598.547 1450.3,594.806 1488.57,594.697 1517.58,586.452 1539.86,560.574 1557.93,540.012 1585.29,526.532 1607.91,521.25 1610.11,506.436 1597.52,492.507 1575.01,477.817 1550.48,464.363 1522.55,439 1500.39,413.63 1486.16,387.571 1469.4,367.109 1466.46,349.095 1473.26,327.895 1490.33,318.767 1507.22,326.667 1536.33,331.074 1575.68,334.307 1610.64,342.483 1650.25,348.671 1684.46,352.905 1714.65,367.8 1738.83,374.136 1763.75,366.066 1787.16,355.354 1817.7,350.216 1849.23,349.48 1880,344.661 1902.91,359.099 1914.33,375.412 1919.59,370.57 1929.76,353.845 1946.74,336.865 1964.03,326.23 1988.4,311.751 2007.92,303.754 1999.6,303.959 1976.99,292.017 1966.76,275.393 1954.84,246.24 1957.52,217.898 1969.37,201.863 1997.66,190.984 2030.59,193.045 2055.46,198.059 2088.89,202.631 2123.56,214.362 2146.27,236.272 2150.96,264.736 2145,291.715 2134.04,300.758 2137,316.389 2141.41,339.366 2135.79,370.988 2107.56,388.065 2088.47,423.206 2062.33,444.972 2040.11,470.605 2032.23,504.843 2007.7,512.353 1973.01,513.716 1937.48,526.007 1905.94,539.5 1890.03,566.535 1878.04,597.367 1878.21,614.823 1904.61,619.222 1933.59,631.999 1968.98,646.46 2003.34,669.736 2030.69,685.21 2068.78,691.128 2103.31,691.275 2141.77,686.721 2170.31,692.166 2195.78,690.903 2207.82,677.43 2219.87,657.741 2235.84,637.018 2235.22,611.461 2231.39,592.95 2221.93,568.687 2196.51,547.681 2175.92,529.974 2151.27,515.041 2109.47,514.697 2084.47,522.876 2060.52,540.932 2042.93,560.069 2017.3,583.757 2013.13,613.4 2018.04,645.345 2021.44,675.548 2038.36,701.296 2052.1,726.53 2066.03,759.83 2080.51,790.346 2110.79,802.847 2141.36,820.041 2166.98,848.495 2186.25,871.815 2201.3,902.331 2208.83,927.025 2204.85,938.888 2172.69,940.427 2137.54,952.711 2109.7,952.373 2094.39,959.485 2074.78,963.005 2052.39,958.855 2022.89,944.091 1991.85,937.67 1956.34,940.044 1913.08,952.374 1874.97,965.969 1836.37,967 1793.96,974.954 1756.47,975.384 1717.39,976.824 1686.53,970.026 1651.88,975.016 1620.32,970.191 1587.88,962.961 1553.55,932.069 1526.19,916.677 1488.85,908.894 1456.18,894.17 1426.81,877.821 1395.46,856.99 1369.94,850.187 1343.19,862.785 1318.57,879.793 1290.41,895.142 1252.81,913.148 1215.89,921.822 1186.94,916.561 1158.74,893.987 1141.28,869.519 1124.13,839.894 1099.45,814.745 1086.51,784.192 1083.6,756.057 1085.42,733.36 1072.93,702.804 1050.24,685.64 1021.83,675.244 1002.67,653.114 994.506,621.997 991.527,598.739 981.042,570.793 988.956,543.704 1009.88,516.548 1022.01,500.148 1034.93,493.924 1045.04,479.864 1048.41,463.62 1055.27,440.283 1062.21,416.682 1067.83,388.918 1078.82,356.295 1080.01,332.696 1058.45,313.617 1039.26,299.02 1011.5,298.098 984.973,307.806 957.876,304.366 926.79,289.768 890.414,275.354 866.683,269.575 844.225,264.688 829.073,247.243 828.391,225.855 842.852,207.411 864.318,189.835 886.906,172.606 931.13,161.01 960.854,148.66 993.054,141.768 1022.24,152.902 1049.92,160.218 1083.49,155.133 1117.88,149.32 1137.91,129.241 1153.45,109.822 1166.71,87.9763 "/>
<polyline clip-path="url(#clip191)" style="stroke:#ff0000; stroke-linecap:round; stroke-linejoin:round; stroke-width:4; stroke-opacity:1; fill:none" points="241.193,714.654 271.61,721.022 274.224,712.167 295.379,713.466 298.76,714.164 325.795,719.834 342.687,723.374 371.471,723.129 396.006,725.137 426.437,731.506 452.72,727.611 473.874,728.897 516.196,731.494 527.988,740.238 552.537,742.235 594.874,744.831 612.661,745.419 632.11,752.633 665.965,759.712 685.428,766.925 708.287,774.85 731.998,779.81 762.486,786.191 781.111,796.368 809.085,799.087 842.144,809.154 858.255,803.104 899.81,808.665 917.611,821.818 944.746,827.501 977.848,837.568 997.368,844.794 1024.53,850.477 1038.97,862.933 1056.82,876.099 1060.22,876.809 1092.48,877.274 1106.07,880.128 1130.7,882.136 1157.89,887.831 1182.57,902.443 1208.94,911.101 1226.78,911.702 1254.83,914.433 1290.53,915.609 1315.18,917.629 1349.2,924.757 1373.04,929.754 1397.69,931.763 1422.35,933.784 1458.89,932.008 1476.75,932.596 1505.65,932.363 1531.97,928.432 1562.52,922.259 1589.77,927.954 1616.08,924.035 1640.76,926.056 1658.49,914.053 1676.34,914.641 1693.24,905.615 1712.73,900.263 1736.58,905.26 1759.47,900.618 1779.93,904.892 1796.96,908.456 1820.02,916.417 1838.05,929.607 1860.29,940.544 1872.33,949.35 1888.75,968.505 1896.56,979.577 1903.57,993.624 1915.79,1015.07 1929.64,1030.56 1942.68,1049.04 1952.13,1054.18 1976.05,1059.2 1986.31,1061.34 1993.97,1059.78 2021.93,1049.89 2032.98,1049.04 2054.69,1022.1 2060.53,1013.87 2059.3,991.591 2063.31,976.711 2062.1,954.457 2043.22,944.231 2026.14,940.654 2003.87,929.718 1976.75,936.613 1956.28,932.338 1940.02,925.798 1922.97,922.234 1898.28,920.214 1880.6,932.228 1857.69,936.858 1845.04,943.643 1816.93,940.899 1792.24,938.891 1764.97,933.184 1746.95,919.993 1723.91,912.032 1688.87,895.278 1668.3,878.426 1647.74,861.573 1636.58,849.84 1625.43,838.095 1604.06,824.231 1591.16,805.872 1580.83,791.2 1574.74,774.274 1578.84,759.491 1597.35,744.586 1607.43,734.176 1630.27,729.571 1643.85,732.4 1672.68,732.167 1686.4,747.526 1706.8,751.788 1717,753.907 1744.21,759.589 1765.58,773.417 1770.76,780.753 1792.95,791.641 1811.75,801.83 1835.57,806.803 1854.21,804.427 1875.45,805.725 1899.92,795.18 1917.75,795.78 1931.37,798.622 1952.79,812.473 1967.41,824.917 1981.24,840.324 1988.24,854.31 1997.06,874.96 2005.89,895.621 2008.68,911.898 2006.47,933.404 2009.08,937.09 2015.31,954.102 2030.98,976.233 2033.79,992.547 2048.45,1005.05 2058.71,1007.21 2072.37,1010.06 2092.68,1001.72 2108.74,995.645 2117.98,988.137 2135.65,976.111 2140.67,970.881 2140.21,945.651 2125.54,933.159 2108.25,916.992 2097.8,902.271 2074.72,894.31 2046.62,891.579 2022.74,886.595 2012.51,884.451 1984.42,881.732 1967.37,878.168 1950.14,862.026 1936.5,859.185 1909.24,853.49 1897.4,857.287 1871.12,861.206 1853.11,848.04 1832.66,843.778 1814.01,846.141 1786.77,840.459 1773.96,834.653 1756.94,831.089 1731.48,832.045 1701.8,835.254 1678.1,842.835 1669.54,834.776 1669.4,822.21 1661.78,823.753 1650.76,824.586 1636.32,824.709 1629.52,823.288 1612.63,832.29 1599.97,839.05 1567.7,838.585 1552.45,841.659 1543.17,849.13 1536.48,860.287 1551.73,857.201 1570.39,854.825 1600.9,848.652 1610.04,828.615 1624.35,815.939 1628.44,801.132 1618.93,783.496 1602.64,764.451 1594.07,756.405 1582.82,732.18 1563.26,724.966 1541.35,739.161 1520.15,737.862 1489.58,731.482 1491.13,713.049 1485.89,693.221 1488.26,671.861 1492.36,657.116 1509.94,632.719 1514.87,615.046 1518.05,590.796 1499.37,580.68 1476.47,572.805 1469.69,571.396 1481.4,555.168 1505.83,544.697 1544.73,546.571 1581.75,529.412 1600.21,514.605 1617.71,490.306 1630.19,471.188 1650.36,462.97 1678.26,465.665 1701.96,470.576 1721.61,490.159 1750.46,502.358 1767.57,518.328 1776.26,538.769 1764.62,554.985 1745.39,572.743 1716.78,585.456 1683.01,590.882 1661.84,589.596 1623.59,572.303 1602.33,558.549 1593.67,538.096 1592.62,516.136 1611.06,501.341 1624.47,491.715 1650.49,475.401 1674.06,467.894 1696.67,450.882 1717.64,439.749 1735.37,440.325 1761.34,424.036 1761.2,411.629 1773.62,392.548 1785.38,388.8 1805.37,368.212 1794.26,356.639 1768.82,345.187 1784.77,339.235 1815.03,333.148 1841.27,341.66 1862.37,342.946 1889.42,348.543 1912.48,368.763 1911.85,384.085 1908.64,395.781 1883.52,409.131 1869.51,434.079 1854.7,461.978 1845.83,494.238 1849.4,507.391 1808.88,511.384 1789.67,529.131 1755.93,534.544 1725.71,553.111 1711.62,578.169 1693.18,593.001 1666.04,587.355 1643.94,576.54 1614.25,567.244 1603.14,555.609 1572.53,536.81 1569.96,533.172 1577.32,506.742 1604.29,499.933 1641.41,495.23 1665.11,500.153 1702.37,507.894 1727.05,522.333 1732.35,542.064 1747.82,563.925 1761.39,566.742 1791.92,573.086 1814.04,583.913 1820.83,585.321 1852.01,576.258 1875.59,568.726 1892.37,559.786 1912.73,564.011 1933.27,580.704 1928.46,598.365 1929.62,620.386 1912.38,657.287 1892.34,678.046 1869.7,695.168 1846.41,727.771 1848.36,746.913 1808.68,760.52 1785.84,765.137 1756.34,780.875 1731.04,794.372 1715.13,812.976 1698.39,834.543 1669.81,859.92 1646.92,864.549 1620.51,855.89 1596.69,850.906 1561.82,846.766 1535.44,838.107 1516.56,815.364 1503.69,797.005 1467.84,770.734 1457.56,756.074 1430.31,737.875 1409.1,736.576 1375.24,742.014 1361.66,739.173 1331.94,729.853 1329.24,701.145 1312.28,697.605 1286.04,701.512 1269.15,710.49 1242.12,729.865 1241.29,732.817 1204.02,737.544 1184.54,742.872 1158.25,734.237 1138.71,714.519 1116.65,703.656 1078.53,698.83 1048.88,689.51 1031.95,685.97 1009.93,675.119 987.893,651.788 990.436,642.945 1000.57,620.092 1017.46,598.659 1027.57,575.842 1033.44,542.811 1039.32,522.26 1023.25,503.362 1006.36,499.847 995.38,488.237 999.585,473.576 1031.66,474.03 1069.65,478.831 1110.16,474.838 1136.31,470.956 1163.26,451.727 1188.48,425.959 1211.18,408.972 1241.51,402.885 1283.69,405.444 1312.43,417.606 1343.73,433.405 1372.5,445.579 1397.9,457.055 1419.1,470.772 1459.69,479.198 1480.9,492.927 1509.82,517.569 1541.34,545.873 1563.41,556.675 1585.5,567.489 1604.2,577.606 1613.44,570.184 1637.84,559.712 1667.28,544.072 1687.47,535.842 1719.45,523.852 1751.57,524.317 1788.05,534.997 1812.91,561.917 1815.66,578.022 1812.74,614.752 1792.85,647.991 1793.98,670.037 1784.24,705.456 1785.52,740.067 1802.84,768.689 1835.42,794.249 1872.68,789.51 1886.31,792.351 1923.76,800.153 1942.76,822.896 1971.21,850.759 1991.24,883.153 2001.06,913.441 2003.87,929.718 2018.12,917.005 2059.87,922.59 2083.77,927.574 2094.22,942.32 2096.84,946.007 2098.66,952.669 2104.1,972.657 2106.71,976.355 2123.8,979.919 2141.68,980.52 2173.02,971.346 2197.96,985.994 2205.83,997.078 2220.78,1022.22 2218.38,1031.16 2222.37,1016.26 2227.94,995.4 2224.83,966.472 2213.32,942.075 2197.59,919.969 2188.71,899.295 2190.08,880.765 2157.32,855.131 2155.06,823.349 2160.63,802.614 2177.45,793.612 2198.69,794.923 2225.17,803.557 2239.84,816.001 2252.13,837.336 2281.51,862.247 2291.2,879.932 2279.88,908.909 2259.88,929.828 2244.06,948.505 2211.96,960.642 2196.13,979.332 2167.43,992.191 2138.93,1017.69 2123.08,1036.4 2113.25,1059.55 2092.35,1083.54 2075.66,1105.28 2049.5,1121.9 2024.94,1132.55 1991.1,1150.72 1968.32,1168.08 1941.12,1175.02 1909.85,1196.93 1898.94,1210.48 1862.42,1224.98 1848.08,1237.81 1827.85,1258.93 1808.58,1289.78 1804.5,1304.79 1798.78,1325.83 1791.42,1352.9 1818.21,1374.46 1822.63,1384.94 1815.27,1412.04 1807.9,1439.18 1789.91,1438.57 1765.04,1436.53 1741.67,1415.66 1731.08,1387.93 1718.03,1369.26 1692.08,1344.71 1649.04,1316.55 1627.64,1315.23 1591.73,1314.03 1553.33,1321.83 1510.66,1331.93 1492.71,1331.32 1452.43,1319.66 1430.12,1308.59 1408.59,1281.8 1407.49,1246.64 1401.23,1204.08 1381.47,1184.08 1361.72,1164.08 1367.49,1130.48 1363.92,1104.43 1356.11,1080.67 1343.14,1049.52 1324.28,1026.63 1320.73,1000.65 1327.34,964.231 1336.5,931.53 1355.03,903.974 1370.98,872.755 1383.51,840.851 1410.53,821.414 1403.57,794.886 1388.98,769.914 1356.6,744.378 1327.79,744.623 1309.92,731.506 1299.61,704.341 1295.19,669.057 1309.45,643.95 1322.02,624.746 1342.28,616.491 1378.58,602.235 1415.76,597.52 1456.34,593.515 1491.87,594.691 1515.48,587.146 1541.45,558.328 1557.35,539.871 1585.96,527.183 1605.35,521.892 1609.43,507.208 1595.76,491.96 1571.95,474.605 1546.52,463.117 1515.86,431.948 1497.11,409.474 1485.96,385.493 1469.79,366.669 1467.13,350.662 1473.68,327.294 1490.46,318.427 1509.09,328.457 1543.67,332.536 1585.82,335.083 1615.41,344.305 1656.77,349.78 1684.61,352.462 1715.98,368.237 1736.27,372.438 1763.18,365.653 1787.5,355.242 1821.15,349.854 1853.19,350.307 1883.45,344.22 1903.92,360.815 1914.25,375.304 1919.24,370.16 1931.61,351.103 1950.73,333.454 1967.47,324.575 1993.34,308.335 2009.25,302.371 1998.31,303.191 1970.28,288.151 1964.13,271.483 1951.84,238.158 1959.03,211.948 1968.96,201.709 2000.76,189.829 2035.31,193.883 2055.57,198.072 2093.51,202.824 2129.09,216.308 2148,238.66 2151.04,266.988 2143.92,293.222 2135.58,297.668 2137.6,316.577 2141.42,342.04 2135.3,377.814 2103.44,389.755 2085.56,429.339 2059.66,445.628 2038.12,472.131 2031.94,508.053 2009.99,509.694 1969.49,513.699 1933.36,527.918 1904.79,540.619 1889.97,568.604 1877.71,600.263 1878.69,609.792 1905.05,618.389 1936.6,634.286 1975.77,648.665 2008.36,674.139 2030.56,684.991 2072.18,690.526 2104.38,690.992 2145,686.975 2168.81,691.935 2194.23,690.98 2205,677.642 2221.55,656.173 2238.07,634.703 2234.2,609.02 2231.35,592.89 2220.68,565.824 2190.67,544.072 2173.47,528.102 2148.69,513.65 2101.4,516.246 2085.43,522.248 2058.69,541.525 2042.94,559.982 2013.77,588.102 2013.37,616.013 2018.96,648.297 2021.95,676.969 2040.17,702.578 2051.58,726.791 2066.61,764.28 2080.66,792.204 2110.52,801.561 2141.42,820.508 2169.15,851.334 2185.63,870.44 2201.57,905.113 2207.04,925.076 2204.65,933.992 2170.73,939.466 2130.2,956.123 2109.7,951.836 2097.05,958.621 2074.15,963.263 2050.25,958.266 2015.11,941.487 1987.8,935.78 1950.45,940.544 1903.03,955.768 1870.88,967.905 1835.12,966.717 1789.3,976 1756.97,975.523 1716.99,976.6 1689.7,970.893 1652.32,975.645 1621.63,969.228 1587.54,962.087 1547.25,925.345 1527.63,918.095 1486.77,909.546 1455.21,893.514 1427.07,878.205 1393.8,855.547 1373.38,851.285 1344.6,864.096 1318.37,880.581 1288.72,896.38 1247.2,915.976 1213.23,921.438 1189.42,916.454 1157.05,890.808 1141.7,868.738 1122.09,836.368 1096.58,812.204 1087.18,782.014 1083.73,756.234 1086.23,734.837 1070.92,700.361 1049.72,686.558 1020.92,674.299 1002.28,651.665 993.803,618.683 992.084,599.614 979.397,568.91 990.364,543.166 1013.14,513.687 1019.89,502.652 1032.53,495.965 1044.34,479.774 1049.37,462.186 1056.92,435.83 1063.63,412.413 1068.63,382.456 1082.04,348.102 1079.48,332.095 1056.71,311.911 1039.01,298.966 1010.38,299.211 982.608,308.898 955.671,303.314 921.163,286.878 882.463,272.671 869.009,269.878 845.454,264.992 829.5,246.241 828.704,224.477 844.701,206.204 868.256,186.425 890.959,169.572 940.527,158.28 961.525,147.245 995.11,141.881 1023.68,153.957 1050.57,159.517 1087.53,154.851 1121.11,149.499 1137.85,128.36 1153.74,110.136 1167.1,88.3355 "/>
<polyline clip-path="url(#clip191)" style="stroke:#3da44d; stroke-linecap:round; stroke-linejoin:round; stroke-width:4; stroke-opacity:1; fill:none" points="257.4,722.98 267.852,720.489 279.388,717.671 296.096,715.78 313.383,717.287 332.863,717.398 354.004,720.656 376.898,722.659 402.443,727.145 428.426,728.428 454.714,729.373 480.371,730.239 506.686,732.517 531.838,737.828 559.125,742.47 584.223,746.469 610.361,749.826 635.466,754.108 662.154,760.387 687.217,766.881 711.39,774.304 735.926,781.84 760.939,790.64 786.831,794.21 812.863,800.957 840.419,807.734 867.444,810.999 893.687,818.556 920.138,823.997 945.59,829.392 970.289,834.682 992.725,842.652 1015.76,849.857 1037.09,857.872 1055.69,865.366 1076.68,872.001 1095.31,876.673 1114.54,882.741 1137.05,884.994 1159.33,890.919 1182.73,898.49 1207.54,904.181 1234.24,908.967 1263.03,911.513 1290.92,914.906 1317.48,917.781 1343.96,921.98 1371.38,926.581 1399.74,929.849 1427.85,929.738 1454.5,931.685 1479.68,931.535 1507.15,930.629 1533.36,926.949 1560.76,926.176 1586.99,924.522 1611.26,923.55 1633.87,919.35 1657,915.999 1678.04,913.526 1698.88,910.486 1718.81,906.721 1739.14,905.084 1759.53,907.177 1777.69,910.799 1797,913.85 1816.61,920.095 1833.18,929.051 1849.81,939.921 1867.71,951.733 1883.46,965.988 1898.29,980.893 1909.56,994.773 1920.64,1009.57 1932.13,1023.51 1945.93,1035.55 1956.35,1044.25 1969.6,1048.59 1984.21,1049.39 1999.89,1046.67 2014.58,1042.31 2026.15,1033.26 2037.3,1024.77 2045.47,1011.94 2051.69,996.432 2054.12,979.997 2051.85,964.242 2039.53,951.735 2024.27,941.863 2004.98,936.493 1984.49,931.782 1964.53,927.917 1943.44,927.173 1922.62,927.582 1902.15,926.411 1880.66,927.173 1859.43,930.906 1837.95,932.722 1816.29,932.06 1792.98,928.923 1767.43,924.125 1742.08,916.78 1716.92,907.403 1690.96,897.36 1670.93,882.492 1653.47,867.262 1636.98,853.218 1623.42,838.464 1610.22,825.535 1601.42,811.243 1593.99,795.778 1587.26,780.952 1592.67,767.536 1600.4,755.889 1610.73,746.203 1623.85,739.837 1642.41,737.019 1662.4,736.387 1682.39,740.163 1702.27,745.341 1722.07,750.587 1741.83,759.265 1757.8,769.175 1777.11,777.708 1797.09,785.998 1816.83,793.851 1838.19,797.794 1856.75,802.449 1878.6,804.637 1898.29,807.719 1916.56,810.589 1934.51,812.012 1949.18,819.724 1964.47,829.087 1977.68,841.673 1989.15,856.954 1996.96,873.696 2002.41,891.775 2008.37,907.451 2013.14,923.443 2018.22,939.447 2024.44,954.157 2032.76,968.619 2039.26,980.699 2049.82,988.401 2062.41,992.609 2075.74,994.797 2088.01,993.42 2101.91,988.639 2113.52,981.358 2122.31,972.282 2127.09,960.982 2125.71,947.745 2121.36,932.548 2108.06,918.923 2093.19,907.313 2074.31,897.387 2053.1,890.403 2032.36,884.934 2011.22,881.142 1990.86,876.505 1970.49,870.305 1951.78,863.884 1929.53,860.842 1908.74,857.61 1891.62,853.939 1872.04,852.719 1851.93,851.695 1831.49,850.7 1813.11,847.883 1793.68,842.437 1773.93,838.171 1754.59,833.18 1733.26,833.831 1713.31,835.825 1695.21,835.838 1681.04,832.942 1668.8,833.293 1657.21,832.124 1645.23,831.003 1632.49,829.559 1619.82,829.765 1605.43,830.939 1589.63,833.168 1575.17,839.764 1561.45,848.434 1548.07,840.679 1546.87,853.339 1563.21,849.345 1577.45,838.512 1592.26,849.931 1604.86,836.249 1623.06,826.029 1622.87,804.466 1615.94,784.073 1606.16,765.653 1602.77,747.951 1582.9,735.619 1558.12,730.833 1544.46,745.674 1523.7,734.917 1501.9,727.507 1495.35,710.016 1492.89,694.064 1491.51,675.195 1494.27,657.856 1501.24,636.257 1515.7,618.192 1518.09,593.884 1494.99,585.821 1470.77,577.697 1473.74,562.939 1490.16,552.83 1515.61,552.034 1543.84,546.002 1576.21,539.337 1595.88,518.138 1614.25,495.305 1625.72,470.726 1649.06,457.279 1676.16,461.884 1703.59,471.929 1724.25,486.82 1750,497.809 1772.42,513.672 1776.14,537.731 1765.96,560.011 1741.69,571.211 1717.29,585.894 1686.32,596.422 1653.67,591.408 1622.98,581.242 1595.13,569.315 1581.13,545.783 1587.63,522.291 1606.72,503.786 1634.12,496.131 1653.64,482.298 1669.78,464.244 1690.58,450.495 1710.99,442.439 1732.21,437.188 1748.25,423.169 1761.47,408.561 1784.01,400.2 1802.25,388.853 1801.5,370.102 1781.01,359.516 1767.13,347.153 1773.11,338.675 1794.42,341.057 1816.34,338.949 1841.61,336.227 1868.41,335.438 1895.25,345.606 1915.13,361.993 1915.42,381.264 1901.02,399.815 1884.76,417.165 1867.81,435.68 1857.38,460.372 1851.45,487.235 1844.46,512.612 1816.15,516.676 1788.01,527 1757.91,532.311 1735.19,551.254 1722.59,572.663 1699.82,592.288 1669.88,586.97 1643.97,579.513 1621.02,574.809 1599.31,562.91 1575.2,547.873 1569.53,527.558 1579.52,505.556 1606.17,497.782 1635.29,498.718 1664.01,499.544 1694.11,499.661 1711.56,519.006 1726.82,538.913 1744.45,555.647 1764.85,568.432 1787.14,576.954 1805.25,591.891 1829.94,596.104 1845.15,580.15 1866.75,568.166 1891.13,562.014 1918.6,561.376 1938.23,578.136 1930.83,602.744 1922.4,626.051 1906.91,650.672 1889.52,675.613 1871.71,699.009 1858.33,723.889 1837.4,743.627 1809.19,756.492 1779.09,760.471 1751,774.949 1731.03,793.35 1715.2,816.23 1701.89,840.767 1678.95,861.01 1650.16,867.214 1617.18,859.542 1590.82,850.387 1563.57,844.084 1538.6,836.088 1524.12,813.829 1506.51,793.631 1475.54,779.848 1453.34,760.122 1433.42,740.912 1405.5,742.226 1379.38,746.417 1358.31,743.268 1341.23,725.976 1333.65,703.712 1314.53,693.484 1292.96,701.983 1277.36,719.404 1254.76,728.369 1227.55,735.414 1202.82,739.947 1178.7,743.674 1162.52,727.262 1137.43,715.309 1112.27,706.364 1086.91,700.323 1059.04,697.094 1031.24,693.054 1009.05,679.383 996.143,656.255 993.129,634.955 994.944,614.22 1016.34,596.935 1030.19,572.904 1037.59,548.577 1042.35,523.847 1018.69,514.85 996.966,504.074 990.597,483.382 1011.64,468.476 1040.87,472.834 1074.66,479.72 1107.44,477.983 1140.49,472.619 1168.17,454.263 1184.77,428.315 1205.37,403.383 1241.67,398.119 1276.3,403.535 1308.9,415.572 1339.88,427.179 1372.36,442.271 1398.05,454.24 1424.31,474.169 1457.86,479.388 1484.77,496.089 1510.87,514.568 1529.09,538.206 1554.92,554.797 1577.79,571.276 1598.4,581.258 1613.66,566.226 1638.01,555.224 1657.99,537.711 1686.01,529.523 1719.57,523.544 1751.46,522.544 1784.93,534.841 1810.85,556.141 1823.24,582.515 1813.9,616.311 1797.05,644.719 1789.07,677.146 1777.22,708.524 1786.38,740.624 1803.34,769.881 1831.39,788.998 1863.14,790.25 1896.7,789.923 1929.95,799.688 1950.45,823.109 1970.2,848.658 1979.37,877.566 1985.09,905.371 2004.42,924.56 2026.41,919.567 2053.23,917.143 2077.54,918.64 2090.63,928.096 2093.64,943.16 2091.35,954.718 2095.05,967.467 2111.25,977.336 2129.18,976.191 2148.96,974.884 2171.04,974.119 2192.09,986.299 2206.26,1001.29 2215.92,1019.65 2217.94,1035.31 2224.04,1015.92 2221.48,991.395 2222.59,966.886 2209.69,945.336 2204.7,920.457 2191.74,897.55 2181.37,872.893 2161.04,851.814 2149.49,827.396 2152.45,805.85 2174.02,791.172 2199.99,797.205 2226.35,803.692 2245.77,820.918 2256.21,841.701 2279.39,858.308 2291.12,881.089 2282.91,909.052 2261.23,928.758 2236.77,945.269 2212.22,960.364 2188.18,978.79 2166.28,995.772 2143.07,1010.16 2125.37,1030.9 2111.15,1055.67 2094.01,1080.73 2078.27,1105 2053.56,1121.31 2025.73,1132.88 1997.09,1147.19 1972.36,1161.84 1943.44,1177.93 1919.89,1191.75 1899.2,1212.62 1870.31,1223.94 1849.01,1240.81 1827.67,1258.4 1811.95,1278.65 1799.41,1298.81 1790.67,1323.17 1800.34,1348.7 1820.48,1365.63 1831.25,1389.32 1824.36,1414.44 1812.94,1437.72 1781.44,1445.72 1754.49,1435.73 1741.56,1410.97 1724.64,1390.3 1710.01,1364.43 1687.63,1343.8 1658.76,1325.82 1627.41,1315.88 1588.07,1316.76 1552.54,1322.59 1516.78,1332.23 1480.94,1339.25 1449.36,1323.31 1417.08,1306.48 1403.98,1277.73 1403.59,1245.72 1395.01,1214.02 1371.38,1193.75 1368.27,1163.1 1367.91,1135.09 1368.3,1107.21 1361.91,1079.62 1342.07,1053.91 1327.15,1028.15 1326.47,996.825 1329.91,967.077 1338.03,934.816 1351.7,906.481 1364.82,875.047 1390.86,850.447 1416.06,824.286 1408.49,792.434 1389.93,765.131 1356.68,748.663 1322.64,748.014 1306.15,733.506 1297.25,703.257 1294.02,674.068 1303.9,646.066 1319.03,618.945 1349,616.876 1379.25,605.605 1413.73,599.301 1450.27,600.754 1486.77,594.78 1519.04,587.829 1534.02,562.02 1556.08,543.65 1585.21,535.706 1617.22,529.323 1617.39,506.343 1596.87,488.583 1570.73,474.546 1543.58,461.171 1523.49,437.602 1504.65,413.217 1482.98,391.02 1464.5,370.547 1456.7,343.13 1469.42,318.677 1497.02,316.516 1519.33,332.598 1551.07,335.196 1582.86,334.331 1613.52,340.727 1644.33,351.385 1676.2,353.898 1705.41,365.025 1733.84,373.501 1759.46,362.014 1787.65,353.511 1815.97,351.128 1846.93,351.623 1879.43,349.936 1901.69,365.71 1909.38,382.367 1914.73,365.521 1926.05,346.406 1946.39,334.074 1969.86,326.386 1990.89,317.738 2007.89,312.572 1986.37,305.908 1975.18,285.928 1961.04,264.693 1946.25,242.451 1957.53,218.784 1980.23,202.765 2005.44,195.695 2036.9,188.633 2063.25,196.924 2089.01,206.493 2117.89,214.903 2141.38,228.642 2147.3,250.604 2146.66,275.106 2136.81,297.812 2143.14,319.874 2141.51,344.266 2128.91,369.796 2103.21,390.739 2088.88,422.216 2066.25,449.056 2047.73,474.769 2037.75,503.404 2003.05,509.375 1967.52,512.31 1932.48,521.714 1906.51,541.715 1884.82,564.608 1870.12,590.411 1879.1,615.789 1913.56,617.932 1946.81,629.2 1979.78,645.236 2005.24,668.259 2029.35,691.002 2067.22,694.077 2101.87,689.896 2134.28,691.164 2167.28,695.729 2198.54,699.87 2208.04,675.937 2226.35,655.605 2238.81,634.452 2234.44,608.865 2232.6,585.42 2218.26,560.468 2195.82,542.65 2172.81,525.808 2142.97,515.586 2114.71,517.996 2085.93,526.41 2066.47,544.778 2036.85,558.649 2014.48,582.701 2012.43,612.706 2020.31,641.885 2019.75,674.656 2031.91,703.436 2051.73,730.499 2062.47,760.035 2085.8,786.345 2115.84,798.258 2146.01,817.806 2168.81,842.891 2192.13,864.802 2201.56,890.373 2205.96,915.926 2195.84,934.376 2166.32,937.995 2141.22,950.063 2117.12,958.314 2095.05,963.275 2067.29,967.108 2042.48,953.968 2016.22,934.842 1978.93,933.124 1946.64,946.215 1908.72,953.777 1873.74,965.705 1834.95,966.617 1799.62,973.242 1763.51,979.232 1726.84,975.237 1689.97,974.069 1651.58,984.436 1619.1,972.042 1583.31,961.575 1559.41,935.769 1524.91,921.245 1488.9,908.643 1457.4,894.244 1435.68,874.153 1406.99,860.687 1374.64,849.722 1347.33,865.355 1316.1,881.661 1283.48,897.892 1249.12,910.392 1215.31,921.001 1178.93,916.776 1154.62,891.635 1138.56,866.118 1123.84,838.561 1102.14,815.334 1083.33,787.605 1083,758.413 1084.55,732.564 1076.54,706.188 1048.66,688.696 1018.53,673.14 999.387,650.557 994.575,624.095 995.336,598.646 985.657,573.957 987.829,548.53 1004.19,527.39 1019.19,505.933 1030.47,494.852 1042.57,479.101 1051.84,458.046 1057.07,434.271 1066.5,410.582 1075.09,386.16 1081.53,359.045 1073.87,332.941 1063.13,311.159 1039.59,301.221 1010.78,305.198 979.529,312.772 948.824,305.402 918.485,292.619 897.929,274.112 869.581,275.063 845.058,264.374 828.194,246.778 827.806,221.455 850.311,203.69 871.405,183.35 896.829,167.21 931.046,160.257 959.864,147.427 988.622,146.29 1020.89,157.58 1056.24,157.747 1086.86,156.25 1118.19,151.566 1136.24,133.876 1155.25,117.071 1165.15,96.4866 "/>
<path clip-path="url(#clip190)" d="M250.367 1438.47 L793.155 1438.47 L793.155 1231.11 L250.367 1231.11  Z" fill="#ffffff" fill-rule="evenodd" fill-opacity="1"/>
<polyline clip-path="url(#clip190)" style="stroke:#000000; stroke-linecap:round; stroke-linejoin:round; stroke-width:4; stroke-opacity:1; fill:none" points="250.367,1438.47 793.155,1438.47 793.155,1231.11 250.367,1231.11 250.367,1438.47 "/>
<polyline clip-path="url(#clip190)" style="stroke:#0000ff; stroke-linecap:round; stroke-linejoin:round; stroke-width:4; stroke-opacity:1; fill:none" points="274.533,1282.95 419.525,1282.95 "/>
<path clip-path="url(#clip190)" d="M467.718 1286.21 L467.718 1288.29 L448.135 1288.29 Q448.413 1292.69 450.774 1295 Q453.158 1297.29 457.394 1297.29 Q459.848 1297.29 462.139 1296.69 Q464.454 1296.09 466.723 1294.89 L466.723 1298.91 Q464.431 1299.89 462.024 1300.4 Q459.616 1300.91 457.14 1300.91 Q450.936 1300.91 447.302 1297.29 Q443.691 1293.68 443.691 1287.53 Q443.691 1281.16 447.116 1277.43 Q450.565 1273.68 456.399 1273.68 Q461.63 1273.68 464.663 1277.06 Q467.718 1280.42 467.718 1286.21 M463.459 1284.96 Q463.413 1281.46 461.491 1279.38 Q459.593 1277.29 456.445 1277.29 Q452.88 1277.29 450.728 1279.31 Q448.598 1281.32 448.274 1284.98 L463.459 1284.96 Z" fill="#000000" fill-rule="nonzero" fill-opacity="1" /><path clip-path="url(#clip190)" d="M491.237 1275.07 L491.237 1279.1 Q489.431 1278.17 487.487 1277.71 Q485.542 1277.25 483.459 1277.25 Q480.288 1277.25 478.69 1278.22 Q477.116 1279.19 477.116 1281.14 Q477.116 1282.62 478.251 1283.48 Q479.385 1284.31 482.811 1285.07 L484.269 1285.4 Q488.806 1286.37 490.704 1288.15 Q492.625 1289.91 492.625 1293.08 Q492.625 1296.69 489.755 1298.8 Q486.908 1300.91 481.908 1300.91 Q479.825 1300.91 477.556 1300.49 Q475.311 1300.1 472.811 1299.29 L472.811 1294.89 Q475.172 1296.11 477.463 1296.74 Q479.755 1297.34 482 1297.34 Q485.01 1297.34 486.63 1296.32 Q488.25 1295.28 488.25 1293.41 Q488.25 1291.67 487.07 1290.74 Q485.912 1289.82 481.954 1288.96 L480.473 1288.61 Q476.514 1287.78 474.755 1286.07 Q472.996 1284.33 472.996 1281.32 Q472.996 1277.67 475.588 1275.67 Q478.181 1273.68 482.95 1273.68 Q485.311 1273.68 487.394 1274.03 Q489.477 1274.38 491.237 1275.07 Z" fill="#000000" fill-rule="nonzero" fill-opacity="1" /><path clip-path="url(#clip190)" d="M503.621 1266.95 L503.621 1274.31 L512.394 1274.31 L512.394 1277.62 L503.621 1277.62 L503.621 1291.69 Q503.621 1294.86 504.477 1295.77 Q505.357 1296.67 508.019 1296.67 L512.394 1296.67 L512.394 1300.23 L508.019 1300.23 Q503.088 1300.23 501.213 1298.41 Q499.338 1296.55 499.338 1291.69 L499.338 1277.62 L496.213 1277.62 L496.213 1274.31 L499.338 1274.31 L499.338 1266.95 L503.621 1266.95 Z" fill="#000000" fill-rule="nonzero" fill-opacity="1" /><path clip-path="url(#clip190)" d="M517.996 1274.31 L522.255 1274.31 L522.255 1300.23 L517.996 1300.23 L517.996 1274.31 M517.996 1264.22 L522.255 1264.22 L522.255 1269.61 L517.996 1269.61 L517.996 1264.22 Z" fill="#000000" fill-rule="nonzero" fill-opacity="1" /><path clip-path="url(#clip190)" d="M551.352 1279.29 Q552.949 1276.42 555.171 1275.05 Q557.394 1273.68 560.403 1273.68 Q564.454 1273.68 566.653 1276.53 Q568.852 1279.35 568.852 1284.59 L568.852 1300.23 L564.569 1300.23 L564.569 1284.73 Q564.569 1281 563.25 1279.19 Q561.931 1277.39 559.222 1277.39 Q555.912 1277.39 553.991 1279.59 Q552.07 1281.79 552.07 1285.58 L552.07 1300.23 L547.787 1300.23 L547.787 1284.73 Q547.787 1280.98 546.468 1279.19 Q545.148 1277.39 542.394 1277.39 Q539.13 1277.39 537.209 1279.61 Q535.287 1281.81 535.287 1285.58 L535.287 1300.23 L531.005 1300.23 L531.005 1274.31 L535.287 1274.31 L535.287 1278.34 Q536.746 1275.95 538.783 1274.82 Q540.82 1273.68 543.621 1273.68 Q546.445 1273.68 548.412 1275.12 Q550.403 1276.55 551.352 1279.29 Z" fill="#000000" fill-rule="nonzero" fill-opacity="1" /><path clip-path="url(#clip190)" d="M589.13 1287.2 Q583.968 1287.2 581.977 1288.38 Q579.986 1289.56 579.986 1292.41 Q579.986 1294.68 581.468 1296.02 Q582.972 1297.34 585.542 1297.34 Q589.083 1297.34 591.213 1294.84 Q593.366 1292.32 593.366 1288.15 L593.366 1287.2 L589.13 1287.2 M597.625 1285.44 L597.625 1300.23 L593.366 1300.23 L593.366 1296.3 Q591.907 1298.66 589.731 1299.79 Q587.555 1300.91 584.407 1300.91 Q580.426 1300.91 578.065 1298.68 Q575.727 1296.44 575.727 1292.69 Q575.727 1288.31 578.643 1286.09 Q581.583 1283.87 587.393 1283.87 L593.366 1283.87 L593.366 1283.45 Q593.366 1280.51 591.421 1278.92 Q589.5 1277.29 586.005 1277.29 Q583.782 1277.29 581.676 1277.83 Q579.569 1278.36 577.625 1279.42 L577.625 1275.49 Q579.963 1274.59 582.162 1274.15 Q584.361 1273.68 586.444 1273.68 Q592.069 1273.68 594.847 1276.6 Q597.625 1279.52 597.625 1285.44 Z" fill="#000000" fill-rule="nonzero" fill-opacity="1" /><path clip-path="url(#clip190)" d="M610.611 1266.95 L610.611 1274.31 L619.384 1274.31 L619.384 1277.62 L610.611 1277.62 L610.611 1291.69 Q610.611 1294.86 611.467 1295.77 Q612.347 1296.67 615.009 1296.67 L619.384 1296.67 L619.384 1300.23 L615.009 1300.23 Q610.078 1300.23 608.204 1298.41 Q606.329 1296.55 606.329 1291.69 L606.329 1277.62 L603.204 1277.62 L603.204 1274.31 L606.329 1274.31 L606.329 1266.95 L610.611 1266.95 Z" fill="#000000" fill-rule="nonzero" fill-opacity="1" /><path clip-path="url(#clip190)" d="M647.162 1286.21 L647.162 1288.29 L627.578 1288.29 Q627.856 1292.69 630.217 1295 Q632.602 1297.29 636.838 1297.29 Q639.291 1297.29 641.583 1296.69 Q643.898 1296.09 646.166 1294.89 L646.166 1298.91 Q643.875 1299.89 641.467 1300.4 Q639.06 1300.91 636.583 1300.91 Q630.379 1300.91 626.745 1297.29 Q623.134 1293.68 623.134 1287.53 Q623.134 1281.16 626.56 1277.43 Q630.009 1273.68 635.842 1273.68 Q641.074 1273.68 644.106 1277.06 Q647.162 1280.42 647.162 1286.21 M642.902 1284.96 Q642.856 1281.46 640.935 1279.38 Q639.037 1277.29 635.889 1277.29 Q632.324 1277.29 630.171 1279.31 Q628.041 1281.32 627.717 1284.98 L642.902 1284.96 Z" fill="#000000" fill-rule="nonzero" fill-opacity="1" /><polyline clip-path="url(#clip190)" style="stroke:#ff0000; stroke-linecap:round; stroke-linejoin:round; stroke-width:4; stroke-opacity:1; fill:none" points="274.533,1334.79 419.525,1334.79 "/>
<path clip-path="url(#clip190)" d="M464.038 1331.13 Q465.635 1328.26 467.857 1326.89 Q470.079 1325.52 473.088 1325.52 Q477.139 1325.52 479.338 1328.37 Q481.538 1331.19 481.538 1336.43 L481.538 1352.07 L477.255 1352.07 L477.255 1336.57 Q477.255 1332.84 475.936 1331.03 Q474.616 1329.23 471.908 1329.23 Q468.598 1329.23 466.676 1331.43 Q464.755 1333.63 464.755 1337.42 L464.755 1352.07 L460.473 1352.07 L460.473 1336.57 Q460.473 1332.82 459.153 1331.03 Q457.834 1329.23 455.079 1329.23 Q451.815 1329.23 449.894 1331.45 Q447.973 1333.65 447.973 1337.42 L447.973 1352.07 L443.691 1352.07 L443.691 1326.15 L447.973 1326.15 L447.973 1330.18 Q449.431 1327.79 451.468 1326.66 Q453.505 1325.52 456.306 1325.52 Q459.13 1325.52 461.098 1326.96 Q463.089 1328.39 464.038 1331.13 Z" fill="#000000" fill-rule="nonzero" fill-opacity="1" /><path clip-path="url(#clip190)" d="M512.209 1338.05 L512.209 1340.13 L492.625 1340.13 Q492.903 1344.53 495.264 1346.84 Q497.649 1349.13 501.885 1349.13 Q504.338 1349.13 506.63 1348.53 Q508.945 1347.93 511.213 1346.73 L511.213 1350.75 Q508.922 1351.73 506.514 1352.24 Q504.107 1352.75 501.63 1352.75 Q495.426 1352.75 491.792 1349.13 Q488.181 1345.52 488.181 1339.37 Q488.181 1333 491.607 1329.27 Q495.056 1325.52 500.889 1325.52 Q506.121 1325.52 509.153 1328.9 Q512.209 1332.26 512.209 1338.05 M507.949 1336.8 Q507.903 1333.3 505.982 1331.22 Q504.084 1329.13 500.936 1329.13 Q497.371 1329.13 495.218 1331.15 Q493.088 1333.16 492.764 1336.82 L507.949 1336.8 Z" fill="#000000" fill-rule="nonzero" fill-opacity="1" /><path clip-path="url(#clip190)" d="M530.982 1339.04 Q525.82 1339.04 523.829 1340.22 Q521.838 1341.4 521.838 1344.25 Q521.838 1346.52 523.32 1347.86 Q524.824 1349.18 527.394 1349.18 Q530.935 1349.18 533.065 1346.68 Q535.218 1344.16 535.218 1339.99 L535.218 1339.04 L530.982 1339.04 M539.477 1337.28 L539.477 1352.07 L535.218 1352.07 L535.218 1348.14 Q533.759 1350.5 531.584 1351.63 Q529.408 1352.75 526.26 1352.75 Q522.278 1352.75 519.917 1350.52 Q517.579 1348.28 517.579 1344.53 Q517.579 1340.15 520.496 1337.93 Q523.435 1335.71 529.246 1335.71 L535.218 1335.71 L535.218 1335.29 Q535.218 1332.35 533.273 1330.76 Q531.352 1329.13 527.857 1329.13 Q525.635 1329.13 523.528 1329.67 Q521.422 1330.2 519.477 1331.26 L519.477 1327.33 Q521.815 1326.43 524.014 1325.99 Q526.213 1325.52 528.297 1325.52 Q533.922 1325.52 536.699 1328.44 Q539.477 1331.36 539.477 1337.28 Z" fill="#000000" fill-rule="nonzero" fill-opacity="1" /><path clip-path="url(#clip190)" d="M564.778 1326.91 L564.778 1330.94 Q562.972 1330.01 561.028 1329.55 Q559.083 1329.09 557 1329.09 Q553.829 1329.09 552.232 1330.06 Q550.658 1331.03 550.658 1332.98 Q550.658 1334.46 551.792 1335.32 Q552.926 1336.15 556.352 1336.91 L557.81 1337.24 Q562.347 1338.21 564.245 1339.99 Q566.167 1341.75 566.167 1344.92 Q566.167 1348.53 563.296 1350.64 Q560.449 1352.75 555.449 1352.75 Q553.366 1352.75 551.097 1352.33 Q548.852 1351.94 546.352 1351.13 L546.352 1346.73 Q548.713 1347.95 551.005 1348.58 Q553.296 1349.18 555.542 1349.18 Q558.551 1349.18 560.171 1348.16 Q561.792 1347.12 561.792 1345.25 Q561.792 1343.51 560.611 1342.58 Q559.454 1341.66 555.495 1340.8 L554.014 1340.45 Q550.056 1339.62 548.296 1337.91 Q546.537 1336.17 546.537 1333.16 Q546.537 1329.51 549.13 1327.51 Q551.722 1325.52 556.491 1325.52 Q558.852 1325.52 560.935 1325.87 Q563.019 1326.22 564.778 1326.91 Z" fill="#000000" fill-rule="nonzero" fill-opacity="1" /><path clip-path="url(#clip190)" d="M572.509 1341.84 L572.509 1326.15 L576.768 1326.15 L576.768 1341.68 Q576.768 1345.36 578.204 1347.21 Q579.639 1349.04 582.509 1349.04 Q585.958 1349.04 587.949 1346.84 Q589.963 1344.64 589.963 1340.85 L589.963 1326.15 L594.222 1326.15 L594.222 1352.07 L589.963 1352.07 L589.963 1348.09 Q588.412 1350.45 586.352 1351.61 Q584.315 1352.75 581.606 1352.75 Q577.139 1352.75 574.824 1349.97 Q572.509 1347.19 572.509 1341.84 M583.227 1325.52 L583.227 1325.52 Z" fill="#000000" fill-rule="nonzero" fill-opacity="1" /><path clip-path="url(#clip190)" d="M618.018 1330.13 Q617.301 1329.71 616.444 1329.53 Q615.611 1329.32 614.592 1329.32 Q610.981 1329.32 609.037 1331.68 Q607.116 1334.02 607.116 1338.42 L607.116 1352.07 L602.833 1352.07 L602.833 1326.15 L607.116 1326.15 L607.116 1330.18 Q608.458 1327.82 610.611 1326.68 Q612.764 1325.52 615.842 1325.52 Q616.282 1325.52 616.815 1325.59 Q617.347 1325.64 617.995 1325.76 L618.018 1330.13 Z" fill="#000000" fill-rule="nonzero" fill-opacity="1" /><path clip-path="url(#clip190)" d="M643.62 1338.05 L643.62 1340.13 L624.037 1340.13 Q624.315 1344.53 626.676 1346.84 Q629.06 1349.13 633.296 1349.13 Q635.75 1349.13 638.041 1348.53 Q640.356 1347.93 642.625 1346.73 L642.625 1350.75 Q640.333 1351.73 637.926 1352.24 Q635.518 1352.75 633.041 1352.75 Q626.838 1352.75 623.203 1349.13 Q619.592 1345.52 619.592 1339.37 Q619.592 1333 623.018 1329.27 Q626.467 1325.52 632.301 1325.52 Q637.532 1325.52 640.564 1328.9 Q643.62 1332.26 643.62 1338.05 M639.361 1336.8 Q639.314 1333.3 637.393 1331.22 Q635.495 1329.13 632.347 1329.13 Q628.782 1329.13 626.629 1331.15 Q624.5 1333.16 624.176 1336.82 L639.361 1336.8 Z" fill="#000000" fill-rule="nonzero" fill-opacity="1" /><path clip-path="url(#clip190)" d="M670.796 1331.13 Q672.393 1328.26 674.615 1326.89 Q676.837 1325.52 679.847 1325.52 Q683.898 1325.52 686.097 1328.37 Q688.296 1331.19 688.296 1336.43 L688.296 1352.07 L684.013 1352.07 L684.013 1336.57 Q684.013 1332.84 682.694 1331.03 Q681.374 1329.23 678.666 1329.23 Q675.356 1329.23 673.435 1331.43 Q671.513 1333.63 671.513 1337.42 L671.513 1352.07 L667.231 1352.07 L667.231 1336.57 Q667.231 1332.82 665.912 1331.03 Q664.592 1329.23 661.837 1329.23 Q658.574 1329.23 656.652 1331.45 Q654.731 1333.65 654.731 1337.42 L654.731 1352.07 L650.449 1352.07 L650.449 1326.15 L654.731 1326.15 L654.731 1330.18 Q656.189 1327.79 658.226 1326.66 Q660.263 1325.52 663.064 1325.52 Q665.888 1325.52 667.856 1326.96 Q669.847 1328.39 670.796 1331.13 Z" fill="#000000" fill-rule="nonzero" fill-opacity="1" /><path clip-path="url(#clip190)" d="M718.967 1338.05 L718.967 1340.13 L699.384 1340.13 Q699.661 1344.53 702.022 1346.84 Q704.407 1349.13 708.643 1349.13 Q711.096 1349.13 713.388 1348.53 Q715.703 1347.93 717.971 1346.73 L717.971 1350.75 Q715.68 1351.73 713.272 1352.24 Q710.865 1352.75 708.388 1352.75 Q702.184 1352.75 698.55 1349.13 Q694.939 1345.52 694.939 1339.37 Q694.939 1333 698.365 1329.27 Q701.814 1325.52 707.647 1325.52 Q712.879 1325.52 715.911 1328.9 Q718.967 1332.26 718.967 1338.05 M714.708 1336.8 Q714.661 1333.3 712.74 1331.22 Q710.842 1329.13 707.694 1329.13 Q704.129 1329.13 701.976 1331.15 Q699.847 1333.16 699.522 1336.82 L714.708 1336.8 Z" fill="#000000" fill-rule="nonzero" fill-opacity="1" /><path clip-path="url(#clip190)" d="M747.508 1336.43 L747.508 1352.07 L743.249 1352.07 L743.249 1336.57 Q743.249 1332.88 741.814 1331.06 Q740.379 1329.23 737.508 1329.23 Q734.059 1329.23 732.069 1331.43 Q730.078 1333.63 730.078 1337.42 L730.078 1352.07 L725.795 1352.07 L725.795 1326.15 L730.078 1326.15 L730.078 1330.18 Q731.606 1327.84 733.666 1326.68 Q735.749 1325.52 738.457 1325.52 Q742.925 1325.52 745.217 1328.3 Q747.508 1331.06 747.508 1336.43 Z" fill="#000000" fill-rule="nonzero" fill-opacity="1" /><path clip-path="url(#clip190)" d="M760.217 1318.79 L760.217 1326.15 L768.99 1326.15 L768.99 1329.46 L760.217 1329.46 L760.217 1343.53 Q760.217 1346.7 761.073 1347.61 Q761.953 1348.51 764.615 1348.51 L768.99 1348.51 L768.99 1352.07 L764.615 1352.07 Q759.684 1352.07 757.809 1350.25 Q755.934 1348.39 755.934 1343.53 L755.934 1329.46 L752.809 1329.46 L752.809 1326.15 L755.934 1326.15 L755.934 1318.79 L760.217 1318.79 Z" fill="#000000" fill-rule="nonzero" fill-opacity="1" /><polyline clip-path="url(#clip190)" style="stroke:#3da44d; stroke-linecap:round; stroke-linejoin:round; stroke-width:4; stroke-opacity:1; fill:none" points="274.533,1386.63 419.525,1386.63 "/>
<path clip-path="url(#clip190)" d="M468.343 1377.99 L458.968 1390.6 L468.829 1403.91 L463.806 1403.91 L456.26 1393.73 L448.714 1403.91 L443.691 1403.91 L453.76 1390.35 L444.547 1377.99 L449.57 1377.99 L456.445 1387.22 L463.32 1377.99 L468.343 1377.99 Z" fill="#000000" fill-rule="nonzero" fill-opacity="1" /><path clip-path="url(#clip190)" d="M491.375 1378.75 L491.375 1382.78 Q489.57 1381.85 487.625 1381.39 Q485.681 1380.93 483.598 1380.93 Q480.426 1380.93 478.829 1381.9 Q477.255 1382.87 477.255 1384.82 Q477.255 1386.3 478.389 1387.16 Q479.524 1387.99 482.95 1388.75 L484.408 1389.08 Q488.945 1390.05 490.843 1391.83 Q492.764 1393.59 492.764 1396.76 Q492.764 1400.37 489.894 1402.48 Q487.047 1404.59 482.047 1404.59 Q479.963 1404.59 477.695 1404.17 Q475.45 1403.78 472.95 1402.97 L472.95 1398.57 Q475.311 1399.79 477.602 1400.42 Q479.894 1401.02 482.139 1401.02 Q485.149 1401.02 486.769 1400 Q488.389 1398.96 488.389 1397.09 Q488.389 1395.35 487.209 1394.42 Q486.051 1393.5 482.093 1392.64 L480.612 1392.29 Q476.653 1391.46 474.894 1389.75 Q473.135 1388.01 473.135 1385 Q473.135 1381.35 475.727 1379.35 Q478.32 1377.36 483.088 1377.36 Q485.45 1377.36 487.533 1377.71 Q489.616 1378.06 491.375 1378.75 Z" fill="#000000" fill-rule="nonzero" fill-opacity="1" /></svg>
