<?xml version="1.0" encoding="utf-8"?>
<svg xmlns="http://www.w3.org/2000/svg" xmlns:xlink="http://www.w3.org/1999/xlink" width="600" height="400" viewBox="0 0 2400 1600">
<defs>
  <clipPath id="clip960">
    <rect x="0" y="0" width="2400" height="1600"/>
  </clipPath>
</defs>
<path clip-path="url(#clip960)" d="M0 1600 L2400 1600 L2400 0 L0 0  Z" fill="#ffffff" fill-rule="evenodd" fill-opacity="1"/>
<defs>
  <clipPath id="clip961">
    <rect x="480" y="0" width="1681" height="1600"/>
  </clipPath>
</defs>
<path clip-path="url(#clip960)" d="M177.871 1486.45 L2352.76 1486.45 L2352.76 47.2441 L177.871 47.2441  Z" fill="#ffffff" fill-rule="evenodd" fill-opacity="1"/>
<defs>
  <clipPath id="clip962">
    <rect x="177" y="47" width="2176" height="1440"/>
  </clipPath>
</defs>
<polyline clip-path="url(#clip962)" style="stroke:#000000; stroke-linecap:round; stroke-linejoin:round; stroke-width:2; stroke-opacity:0.1; fill:none" points="385.801,1486.45 385.801,47.2441 "/>
<polyline clip-path="url(#clip962)" style="stroke:#000000; stroke-linecap:round; stroke-linejoin:round; stroke-width:2; stroke-opacity:0.1; fill:none" points="811.273,1486.45 811.273,47.2441 "/>
<polyline clip-path="url(#clip962)" style="stroke:#000000; stroke-linecap:round; stroke-linejoin:round; stroke-width:2; stroke-opacity:0.1; fill:none" points="1236.75,1486.45 1236.75,47.2441 "/>
<polyline clip-path="url(#clip962)" style="stroke:#000000; stroke-linecap:round; stroke-linejoin:round; stroke-width:2; stroke-opacity:0.1; fill:none" points="1662.22,1486.45 1662.22,47.2441 "/>
<polyline clip-path="url(#clip962)" style="stroke:#000000; stroke-linecap:round; stroke-linejoin:round; stroke-width:2; stroke-opacity:0.1; fill:none" points="2087.69,1486.45 2087.69,47.2441 "/>
<polyline clip-path="url(#clip962)" style="stroke:#000000; stroke-linecap:round; stroke-linejoin:round; stroke-width:2; stroke-opacity:0.1; fill:none" points="177.871,1482.99 2352.76,1482.99 "/>
<polyline clip-path="url(#clip962)" style="stroke:#000000; stroke-linecap:round; stroke-linejoin:round; stroke-width:2; stroke-opacity:0.1; fill:none" points="177.871,1176.85 2352.76,1176.85 "/>
<polyline clip-path="url(#clip962)" style="stroke:#000000; stroke-linecap:round; stroke-linejoin:round; stroke-width:2; stroke-opacity:0.1; fill:none" points="177.871,870.718 2352.76,870.718 "/>
<polyline clip-path="url(#clip962)" style="stroke:#000000; stroke-linecap:round; stroke-linejoin:round; stroke-width:2; stroke-opacity:0.1; fill:none" points="177.871,564.583 2352.76,564.583 "/>
<polyline clip-path="url(#clip962)" style="stroke:#000000; stroke-linecap:round; stroke-linejoin:round; stroke-width:2; stroke-opacity:0.1; fill:none" points="177.871,258.448 2352.76,258.448 "/>
<polyline clip-path="url(#clip960)" style="stroke:#000000; stroke-linecap:round; stroke-linejoin:round; stroke-width:4; stroke-opacity:1; fill:none" points="177.871,1486.45 2352.76,1486.45 "/>
<polyline clip-path="url(#clip960)" style="stroke:#000000; stroke-linecap:round; stroke-linejoin:round; stroke-width:4; stroke-opacity:1; fill:none" points="385.801,1486.45 385.801,1467.55 "/>
<polyline clip-path="url(#clip960)" style="stroke:#000000; stroke-linecap:round; stroke-linejoin:round; stroke-width:4; stroke-opacity:1; fill:none" points="811.273,1486.45 811.273,1467.55 "/>
<polyline clip-path="url(#clip960)" style="stroke:#000000; stroke-linecap:round; stroke-linejoin:round; stroke-width:4; stroke-opacity:1; fill:none" points="1236.75,1486.45 1236.75,1467.55 "/>
<polyline clip-path="url(#clip960)" style="stroke:#000000; stroke-linecap:round; stroke-linejoin:round; stroke-width:4; stroke-opacity:1; fill:none" points="1662.22,1486.45 1662.22,1467.55 "/>
<polyline clip-path="url(#clip960)" style="stroke:#000000; stroke-linecap:round; stroke-linejoin:round; stroke-width:4; stroke-opacity:1; fill:none" points="2087.69,1486.45 2087.69,1467.55 "/>
<path clip-path="url(#clip960)" d="M339.864 1532.02 L369.54 1532.02 L369.54 1535.95 L339.864 1535.95 L339.864 1532.02 Z" fill="#000000" fill-rule="nonzero" fill-opacity="1" /><path clip-path="url(#clip960)" d="M393.799 1530.21 Q397.155 1530.93 399.03 1533.2 Q400.928 1535.47 400.928 1538.8 Q400.928 1543.92 397.41 1546.72 Q393.891 1549.52 387.41 1549.52 Q385.234 1549.52 382.919 1549.08 Q380.628 1548.66 378.174 1547.81 L378.174 1543.29 Q380.118 1544.43 382.433 1545.01 Q384.748 1545.58 387.271 1545.58 Q391.669 1545.58 393.961 1543.85 Q396.276 1542.11 396.276 1538.8 Q396.276 1535.75 394.123 1534.03 Q391.993 1532.3 388.174 1532.3 L384.146 1532.3 L384.146 1528.45 L388.359 1528.45 Q391.808 1528.45 393.637 1527.09 Q395.465 1525.7 395.465 1523.11 Q395.465 1520.45 393.567 1519.03 Q391.692 1517.6 388.174 1517.6 Q386.253 1517.6 384.053 1518.01 Q381.854 1518.43 379.216 1519.31 L379.216 1515.14 Q381.878 1514.4 384.192 1514.03 Q386.53 1513.66 388.59 1513.66 Q393.915 1513.66 397.016 1516.09 Q400.118 1518.5 400.118 1522.62 Q400.118 1525.49 398.475 1527.48 Q396.831 1529.45 393.799 1530.21 Z" fill="#000000" fill-rule="nonzero" fill-opacity="1" /><path clip-path="url(#clip960)" d="M419.794 1517.37 Q416.183 1517.37 414.354 1520.93 Q412.549 1524.47 412.549 1531.6 Q412.549 1538.71 414.354 1542.27 Q416.183 1545.82 419.794 1545.82 Q423.428 1545.82 425.234 1542.27 Q427.062 1538.71 427.062 1531.6 Q427.062 1524.47 425.234 1520.93 Q423.428 1517.37 419.794 1517.37 M419.794 1513.66 Q425.604 1513.66 428.66 1518.27 Q431.738 1522.85 431.738 1531.6 Q431.738 1540.33 428.66 1544.94 Q425.604 1549.52 419.794 1549.52 Q413.984 1549.52 410.905 1544.94 Q407.85 1540.33 407.85 1531.6 Q407.85 1522.85 410.905 1518.27 Q413.984 1513.66 419.794 1513.66 Z" fill="#000000" fill-rule="nonzero" fill-opacity="1" /><path clip-path="url(#clip960)" d="M811.273 1517.37 Q807.662 1517.37 805.833 1520.93 Q804.028 1524.47 804.028 1531.6 Q804.028 1538.71 805.833 1542.27 Q807.662 1545.82 811.273 1545.82 Q814.907 1545.82 816.713 1542.27 Q818.542 1538.71 818.542 1531.6 Q818.542 1524.47 816.713 1520.93 Q814.907 1517.37 811.273 1517.37 M811.273 1513.66 Q817.083 1513.66 820.139 1518.27 Q823.217 1522.85 823.217 1531.6 Q823.217 1540.33 820.139 1544.94 Q817.083 1549.52 811.273 1549.52 Q805.463 1549.52 802.384 1544.94 Q799.329 1540.33 799.329 1531.6 Q799.329 1522.85 802.384 1518.27 Q805.463 1513.66 811.273 1513.66 Z" fill="#000000" fill-rule="nonzero" fill-opacity="1" /><path clip-path="url(#clip960)" d="M1225.59 1530.21 Q1228.94 1530.93 1230.82 1533.2 Q1232.72 1535.47 1232.72 1538.8 Q1232.72 1543.92 1229.2 1546.72 Q1225.68 1549.52 1219.2 1549.52 Q1217.02 1549.52 1214.71 1549.08 Q1212.42 1548.66 1209.96 1547.81 L1209.96 1543.29 Q1211.91 1544.43 1214.22 1545.01 Q1216.54 1545.58 1219.06 1545.58 Q1223.46 1545.58 1225.75 1543.85 Q1228.06 1542.11 1228.06 1538.8 Q1228.06 1535.75 1225.91 1534.03 Q1223.78 1532.3 1219.96 1532.3 L1215.93 1532.3 L1215.93 1528.45 L1220.15 1528.45 Q1223.6 1528.45 1225.43 1527.09 Q1227.25 1525.7 1227.25 1523.11 Q1227.25 1520.45 1225.36 1519.03 Q1223.48 1517.6 1219.96 1517.6 Q1218.04 1517.6 1215.84 1518.01 Q1213.64 1518.43 1211 1519.31 L1211 1515.14 Q1213.67 1514.4 1215.98 1514.03 Q1218.32 1513.66 1220.38 1513.66 Q1225.7 1513.66 1228.81 1516.09 Q1231.91 1518.5 1231.91 1522.62 Q1231.91 1525.49 1230.26 1527.48 Q1228.62 1529.45 1225.59 1530.21 Z" fill="#000000" fill-rule="nonzero" fill-opacity="1" /><path clip-path="url(#clip960)" d="M1251.58 1517.37 Q1247.97 1517.37 1246.14 1520.93 Q1244.34 1524.47 1244.34 1531.6 Q1244.34 1538.71 1246.14 1542.27 Q1247.97 1545.82 1251.58 1545.82 Q1255.22 1545.82 1257.02 1542.27 Q1258.85 1538.71 1258.85 1531.6 Q1258.85 1524.47 1257.02 1520.93 Q1255.22 1517.37 1251.58 1517.37 M1251.58 1513.66 Q1257.39 1513.66 1260.45 1518.27 Q1263.53 1522.85 1263.53 1531.6 Q1263.53 1540.33 1260.45 1544.94 Q1257.39 1549.52 1251.58 1549.52 Q1245.77 1549.52 1242.69 1544.94 Q1239.64 1540.33 1239.64 1531.6 Q1239.64 1522.85 1242.69 1518.27 Q1245.77 1513.66 1251.58 1513.66 Z" fill="#000000" fill-rule="nonzero" fill-opacity="1" /><path clip-path="url(#clip960)" d="M1647.62 1529.7 Q1644.47 1529.7 1642.62 1531.86 Q1640.79 1534.01 1640.79 1537.76 Q1640.79 1541.49 1642.62 1543.66 Q1644.47 1545.82 1647.62 1545.82 Q1650.77 1545.82 1652.6 1543.66 Q1654.45 1541.49 1654.45 1537.76 Q1654.45 1534.01 1652.6 1531.86 Q1650.77 1529.7 1647.62 1529.7 M1656.9 1515.05 L1656.9 1519.31 Q1655.15 1518.48 1653.34 1518.04 Q1651.56 1517.6 1649.8 1517.6 Q1645.17 1517.6 1642.71 1520.72 Q1640.28 1523.85 1639.94 1530.17 Q1641.3 1528.15 1643.36 1527.09 Q1645.42 1526 1647.9 1526 Q1653.11 1526 1656.12 1529.17 Q1659.15 1532.32 1659.15 1537.76 Q1659.15 1543.08 1656 1546.3 Q1652.85 1549.52 1647.62 1549.52 Q1641.63 1549.52 1638.46 1544.94 Q1635.28 1540.33 1635.28 1531.6 Q1635.28 1523.41 1639.17 1518.55 Q1643.06 1513.66 1649.61 1513.66 Q1651.37 1513.66 1653.15 1514.01 Q1654.96 1514.36 1656.9 1515.05 Z" fill="#000000" fill-rule="nonzero" fill-opacity="1" /><path clip-path="url(#clip960)" d="M1677.21 1517.37 Q1673.59 1517.37 1671.77 1520.93 Q1669.96 1524.47 1669.96 1531.6 Q1669.96 1538.71 1671.77 1542.27 Q1673.59 1545.82 1677.21 1545.82 Q1680.84 1545.82 1682.65 1542.27 Q1684.47 1538.71 1684.47 1531.6 Q1684.47 1524.47 1682.65 1520.93 Q1680.84 1517.37 1677.21 1517.37 M1677.21 1513.66 Q1683.02 1513.66 1686.07 1518.27 Q1689.15 1522.85 1689.15 1531.6 Q1689.15 1540.33 1686.07 1544.94 Q1683.02 1549.52 1677.21 1549.52 Q1671.4 1549.52 1668.32 1544.94 Q1665.26 1540.33 1665.26 1531.6 Q1665.26 1522.85 1668.32 1518.27 Q1671.4 1513.66 1677.21 1513.66 Z" fill="#000000" fill-rule="nonzero" fill-opacity="1" /><path clip-path="url(#clip960)" d="M2062.82 1548.13 L2062.82 1543.87 Q2064.58 1544.7 2066.38 1545.14 Q2068.19 1545.58 2069.92 1545.58 Q2074.55 1545.58 2076.98 1542.48 Q2079.44 1539.36 2079.78 1533.01 Q2078.44 1535.01 2076.38 1536.07 Q2074.32 1537.13 2071.82 1537.13 Q2066.64 1537.13 2063.6 1534.01 Q2060.59 1530.86 2060.59 1525.42 Q2060.59 1520.1 2063.74 1516.88 Q2066.89 1513.66 2072.12 1513.66 Q2078.12 1513.66 2081.27 1518.27 Q2084.44 1522.85 2084.44 1531.6 Q2084.44 1539.77 2080.55 1544.66 Q2076.68 1549.52 2070.13 1549.52 Q2068.37 1549.52 2066.57 1549.17 Q2064.76 1548.82 2062.82 1548.13 M2072.12 1533.48 Q2075.27 1533.48 2077.1 1531.32 Q2078.95 1529.17 2078.95 1525.42 Q2078.95 1521.7 2077.1 1519.54 Q2075.27 1517.37 2072.12 1517.37 Q2068.97 1517.37 2067.12 1519.54 Q2065.29 1521.7 2065.29 1525.42 Q2065.29 1529.17 2067.12 1531.32 Q2068.97 1533.48 2072.12 1533.48 Z" fill="#000000" fill-rule="nonzero" fill-opacity="1" /><path clip-path="url(#clip960)" d="M2102.84 1517.37 Q2099.23 1517.37 2097.4 1520.93 Q2095.59 1524.47 2095.59 1531.6 Q2095.59 1538.71 2097.4 1542.27 Q2099.23 1545.82 2102.84 1545.82 Q2106.47 1545.82 2108.28 1542.27 Q2110.11 1538.71 2110.11 1531.6 Q2110.11 1524.47 2108.28 1520.93 Q2106.47 1517.37 2102.84 1517.37 M2102.84 1513.66 Q2108.65 1513.66 2111.7 1518.27 Q2114.78 1522.85 2114.78 1531.6 Q2114.78 1540.33 2111.7 1544.94 Q2108.65 1549.52 2102.84 1549.52 Q2097.03 1549.52 2093.95 1544.94 Q2090.89 1540.33 2090.89 1531.6 Q2090.89 1522.85 2093.95 1518.27 Q2097.03 1513.66 2102.84 1513.66 Z" fill="#000000" fill-rule="nonzero" fill-opacity="1" /><polyline clip-path="url(#clip960)" style="stroke:#000000; stroke-linecap:round; stroke-linejoin:round; stroke-width:4; stroke-opacity:1; fill:none" points="177.871,1486.45 177.871,47.2441 "/>
<polyline clip-path="url(#clip960)" style="stroke:#000000; stroke-linecap:round; stroke-linejoin:round; stroke-width:4; stroke-opacity:1; fill:none" points="177.871,1482.99 196.769,1482.99 "/>
<polyline clip-path="url(#clip960)" style="stroke:#000000; stroke-linecap:round; stroke-linejoin:round; stroke-width:4; stroke-opacity:1; fill:none" points="177.871,1176.85 196.769,1176.85 "/>
<polyline clip-path="url(#clip960)" style="stroke:#000000; stroke-linecap:round; stroke-linejoin:round; stroke-width:4; stroke-opacity:1; fill:none" points="177.871,870.718 196.769,870.718 "/>
<polyline clip-path="url(#clip960)" style="stroke:#000000; stroke-linecap:round; stroke-linejoin:round; stroke-width:4; stroke-opacity:1; fill:none" points="177.871,564.583 196.769,564.583 "/>
<polyline clip-path="url(#clip960)" style="stroke:#000000; stroke-linecap:round; stroke-linejoin:round; stroke-width:4; stroke-opacity:1; fill:none" points="177.871,258.448 196.769,258.448 "/>
<path clip-path="url(#clip960)" d="M50.9921 1483.44 L80.6679 1483.44 L80.6679 1487.37 L50.9921 1487.37 L50.9921 1483.44 Z" fill="#000000" fill-rule="nonzero" fill-opacity="1" /><path clip-path="url(#clip960)" d="M94.7882 1496.33 L111.108 1496.33 L111.108 1500.27 L89.1632 1500.27 L89.1632 1496.33 Q91.8252 1493.58 96.4085 1488.95 Q101.015 1484.3 102.196 1482.95 Q104.441 1480.43 105.321 1478.69 Q106.223 1476.93 106.223 1475.24 Q106.223 1472.49 104.279 1470.75 Q102.358 1469.02 99.2558 1469.02 Q97.0567 1469.02 94.603 1469.78 Q92.1725 1470.55 89.3947 1472.1 L89.3947 1467.37 Q92.2188 1466.24 94.6724 1465.66 Q97.1261 1465.08 99.1632 1465.08 Q104.534 1465.08 107.728 1467.77 Q110.922 1470.45 110.922 1474.94 Q110.922 1477.07 110.112 1478.99 Q109.325 1480.89 107.219 1483.48 Q106.64 1484.16 103.538 1487.37 Q100.436 1490.57 94.7882 1496.33 Z" fill="#000000" fill-rule="nonzero" fill-opacity="1" /><path clip-path="url(#clip960)" d="M120.969 1465.71 L139.325 1465.71 L139.325 1469.64 L125.251 1469.64 L125.251 1478.11 Q126.27 1477.77 127.288 1477.61 Q128.307 1477.42 129.325 1477.42 Q135.112 1477.42 138.492 1480.59 Q141.871 1483.76 141.871 1489.18 Q141.871 1494.76 138.399 1497.86 Q134.927 1500.94 128.607 1500.94 Q126.432 1500.94 124.163 1500.57 Q121.918 1500.2 119.51 1499.46 L119.51 1494.76 Q121.594 1495.89 123.816 1496.45 Q126.038 1497 128.515 1497 Q132.519 1497 134.857 1494.9 Q137.195 1492.79 137.195 1489.18 Q137.195 1485.57 134.857 1483.46 Q132.519 1481.36 128.515 1481.36 Q126.64 1481.36 124.765 1481.77 Q122.913 1482.19 120.969 1483.07 L120.969 1465.71 Z" fill="#000000" fill-rule="nonzero" fill-opacity="1" /><path clip-path="url(#clip960)" d="M129.927 1162.65 Q126.316 1162.65 124.487 1166.22 Q122.682 1169.76 122.682 1176.89 Q122.682 1183.99 124.487 1187.56 Q126.316 1191.1 129.927 1191.1 Q133.561 1191.1 135.367 1187.56 Q137.195 1183.99 137.195 1176.89 Q137.195 1169.76 135.367 1166.22 Q133.561 1162.65 129.927 1162.65 M129.927 1158.95 Q135.737 1158.95 138.793 1163.55 Q141.871 1168.14 141.871 1176.89 Q141.871 1185.61 138.793 1190.22 Q135.737 1194.8 129.927 1194.8 Q124.117 1194.8 121.038 1190.22 Q117.983 1185.61 117.983 1176.89 Q117.983 1168.14 121.038 1163.55 Q124.117 1158.95 129.927 1158.95 Z" fill="#000000" fill-rule="nonzero" fill-opacity="1" /><path clip-path="url(#clip960)" d="M94.7882 884.062 L111.108 884.062 L111.108 887.998 L89.1632 887.998 L89.1632 884.062 Q91.8252 881.308 96.4085 876.678 Q101.015 872.025 102.196 870.683 Q104.441 868.16 105.321 866.424 Q106.223 864.664 106.223 862.975 Q106.223 860.22 104.279 858.484 Q102.358 856.748 99.2558 856.748 Q97.0567 856.748 94.603 857.512 Q92.1725 858.276 89.3947 859.826 L89.3947 855.104 Q92.2188 853.97 94.6724 853.391 Q97.1261 852.813 99.1632 852.813 Q104.534 852.813 107.728 855.498 Q110.922 858.183 110.922 862.674 Q110.922 864.803 110.112 866.725 Q109.325 868.623 107.219 871.215 Q106.64 871.887 103.538 875.104 Q100.436 878.299 94.7882 884.062 Z" fill="#000000" fill-rule="nonzero" fill-opacity="1" /><path clip-path="url(#clip960)" d="M120.969 853.438 L139.325 853.438 L139.325 857.373 L125.251 857.373 L125.251 865.845 Q126.27 865.498 127.288 865.336 Q128.307 865.15 129.325 865.15 Q135.112 865.15 138.492 868.322 Q141.871 871.493 141.871 876.91 Q141.871 882.488 138.399 885.59 Q134.927 888.669 128.607 888.669 Q126.432 888.669 124.163 888.299 Q121.918 887.928 119.51 887.187 L119.51 882.488 Q121.594 883.623 123.816 884.178 Q126.038 884.734 128.515 884.734 Q132.519 884.734 134.857 882.627 Q137.195 880.521 137.195 876.91 Q137.195 873.299 134.857 871.192 Q132.519 869.086 128.515 869.086 Q126.64 869.086 124.765 869.502 Q122.913 869.919 120.969 870.799 L120.969 853.438 Z" fill="#000000" fill-rule="nonzero" fill-opacity="1" /><path clip-path="url(#clip960)" d="M89.8114 547.303 L108.168 547.303 L108.168 551.238 L94.0937 551.238 L94.0937 559.71 Q95.1123 559.363 96.1308 559.201 Q97.1493 559.016 98.1678 559.016 Q103.955 559.016 107.334 562.187 Q110.714 565.358 110.714 570.775 Q110.714 576.354 107.242 579.455 Q103.77 582.534 97.4502 582.534 Q95.2743 582.534 93.0058 582.164 Q90.7604 581.793 88.353 581.053 L88.353 576.354 Q90.4364 577.488 92.6586 578.043 Q94.8808 578.599 97.3576 578.599 Q101.362 578.599 103.7 576.492 Q106.038 574.386 106.038 570.775 Q106.038 567.164 103.7 565.057 Q101.362 562.951 97.3576 562.951 Q95.4826 562.951 93.6076 563.368 Q91.7558 563.784 89.8114 564.664 L89.8114 547.303 Z" fill="#000000" fill-rule="nonzero" fill-opacity="1" /><path clip-path="url(#clip960)" d="M129.927 550.381 Q126.316 550.381 124.487 553.946 Q122.682 557.488 122.682 564.618 Q122.682 571.724 124.487 575.289 Q126.316 578.83 129.927 578.83 Q133.561 578.83 135.367 575.289 Q137.195 571.724 137.195 564.618 Q137.195 557.488 135.367 553.946 Q133.561 550.381 129.927 550.381 M129.927 546.678 Q135.737 546.678 138.793 551.284 Q141.871 555.868 141.871 564.618 Q141.871 573.344 138.793 577.951 Q135.737 582.534 129.927 582.534 Q124.117 582.534 121.038 577.951 Q117.983 573.344 117.983 564.618 Q117.983 555.868 121.038 551.284 Q124.117 546.678 129.927 546.678 Z" fill="#000000" fill-rule="nonzero" fill-opacity="1" /><path clip-path="url(#clip960)" d="M89.5799 241.168 L111.802 241.168 L111.802 243.159 L99.2558 275.728 L94.3715 275.728 L106.177 245.103 L89.5799 245.103 L89.5799 241.168 Z" fill="#000000" fill-rule="nonzero" fill-opacity="1" /><path clip-path="url(#clip960)" d="M120.969 241.168 L139.325 241.168 L139.325 245.103 L125.251 245.103 L125.251 253.575 Q126.27 253.228 127.288 253.066 Q128.307 252.881 129.325 252.881 Q135.112 252.881 138.492 256.052 Q141.871 259.223 141.871 264.64 Q141.871 270.219 138.399 273.321 Q134.927 276.399 128.607 276.399 Q126.432 276.399 124.163 276.029 Q121.918 275.659 119.51 274.918 L119.51 270.219 Q121.594 271.353 123.816 271.909 Q126.038 272.464 128.515 272.464 Q132.519 272.464 134.857 270.358 Q137.195 268.251 137.195 264.64 Q137.195 261.029 134.857 258.923 Q132.519 256.816 128.515 256.816 Q126.64 256.816 124.765 257.233 Q122.913 257.649 120.969 258.529 L120.969 241.168 Z" fill="#000000" fill-rule="nonzero" fill-opacity="1" /><polyline clip-path="url(#clip962)" style="stroke:#0000ff; stroke-linecap:round; stroke-linejoin:round; stroke-width:4; stroke-opacity:1; fill:none" points="239.469,715.827 263.486,720.62 269.798,717.59 289.377,716.292 297.482,715.947 318.4,718.788 337.373,723.033 363.75,725.136 389.844,727.031 419.022,731.721 447.712,731.178 472.228,731.628 508.356,732.79 529.618,739.188 551.766,743.332 586.269,746.55 611.298,748.321 632.087,753.063 660.545,759.596 683.643,767.544 706.245,775.535 729.693,781.59 757.272,787.868 779.351,796.694 804.576,802.33 835.264,810.146 857.076,809.497 891.041,811.559 915.93,820.241 941.714,827.778 971.798,837.433 995.738,845.779 1021.22,852.648 1039.45,862.981 1056.58,875.006 1063.43,880.496 1084.67,883.095 1102.2,884.701 1124.18,886.006 1150.14,889.484 1176.6,899.743 1203.06,909.913 1224.93,914.861 1249.67,917.89 1281.74,919.701 1310.14,921.111 1342.1,925.646 1369.74,930.362 1395.23,933.828 1419.33,936.334 1450.98,935.788 1474.4,935.168 1500.77,934.103 1527.03,931.301 1555.98,926.387 1584.4,927.405 1611.71,925.84 1637.1,926.523 1657.39,919.687 1675.09,916.826 1691.14,909.888 1708.61,903.535 1729.65,903.736 1752.76,902.117 1774.45,904.099 1793.24,907.753 1814.42,914.718 1833.73,926.204 1854.9,938.82 1869.91,949.873 1885.29,966.521 1895.17,980.391 1902.01,994.707 1911.25,1013.94 1923.32,1030.92 1936.02,1049.06 1947.04,1059.05 1965.63,1065.36 1980.16,1068.38 1989.72,1067.42 2012.4,1060.09 2027.66,1054.74 2048.43,1032.95 2059.34,1018.77 2061.58,998.938 2063.13,981.015 2061.47,959.598 2048.34,944.568 2029.85,937.706 2005.63,930.03 1977.64,932.207 1953.69,931.544 1934.51,927.99 1917.25,924.853 1895.68,922.177 1875.87,928.443 1854.24,935.17 1838.64,942.731 1816.24,944.643 1791.43,943.787 1763.73,939.284 1741.31,928.407 1719.34,917.482 1689.35,901.914 1664.03,884.28 1641.82,866.024 1627.56,851.476 1616.58,838.768 1600.58,825.583 1586.65,809.396 1575.41,793.813 1567.74,777.108 1568.23,761.619 1581.23,746.999 1596.1,734.845 1616.71,727.503 1635.02,726.952 1661.41,728.002 1680.05,741.137 1701.34,750.149 1715.74,755.202 1737.24,761.215 1759.24,772.109 1770.97,781.217 1787.82,791.564 1806.05,802.295 1827.76,810.023 1848.13,810.919 1869.63,810.283 1893.13,803.306 1913.46,799.542 1928.99,799.453 1947.5,808.263 1963.81,820.172 1978.13,835.529 1987.09,852.42 1995.25,872.925 2003.18,894.036 2007.36,912.679 2006.28,933.112 2006.12,943.099 2009.63,956.556 2020.82,975.137 2028.23,992.523 2040.36,1007.26 2051.64,1013.62 2063.94,1016.72 2083.22,1011.29 2102.25,1004.16 2114.93,995.403 2130.26,982.462 2138.23,973.612 2141.06,954.222 2132.55,937.811 2113.87,920.909 2098.24,905.736 2076.12,894.373 2048.59,888.682 2021.64,884.783 2004.86,883.127 1981.63,881.672 1962.24,879.491 1944.67,868.973 1929.93,861.886 1908.13,855.615 1891.97,855.731 1869.55,858.767 1849.66,853.067 1829.29,847.739 1809.95,846.448 1785.55,842.914 1767.89,837.639 1751.69,833.453 1729.92,832.05 1702.44,834.472 1676.38,841.181 1661.47,839.357 1657.64,830.531 1652.99,827.612 1646.24,826.39 1635.31,825.808 1626.62,824.991 1612.53,829.314 1598.45,836.308 1572.7,840.328 1551.44,843.041 1537.15,848.652 1527.94,857.789 1537.3,859.025 1557.3,857.129 1588.53,852.394 1603.13,834.254 1618.8,819.302 1624.41,803.614 1615.97,786.886 1600.87,769.204 1590.21,758.507 1579.59,737.573 1561.34,727.682 1540.26,739.562 1518.17,739.7 1490.36,734.115 1487.48,715.49 1482.27,696.549 1484.2,675.814 1488.85,659.695 1504.19,638.087 1510.15,618.405 1513.88,595.782 1497.79,583.013 1474.95,575.139 1464.57,573.318 1475.8,560.051 1497.38,549.089 1532.7,548.8 1570.9,534.01 1596.12,517.034 1613.78,493.487 1626.39,472.441 1647.68,464.062 1673.41,467.287 1696.98,472.323 1715.89,490.369 1742.99,502.681 1761.92,519.793 1772.1,540.319 1760.2,557.501 1743.04,573.745 1716.94,585.538 1683.69,592.398 1656.96,590.999 1623.83,575.943 1598.29,560.982 1589.15,538.363 1588.81,516.87 1606.45,502.744 1621.21,492.981 1643.95,479.321 1668.1,471.246 1689.72,455.17 1711.53,442.34 1732.02,442.299 1754.87,427.917 1758.19,412.877 1768.7,396.026 1780.56,390.524 1797.46,373.542 1790.12,359.742 1768.62,349.355 1763.8,347.615 1776.55,342.862 1802.14,336.897 1831.97,341.812 1856.38,344.646 1883.21,349.952 1905.87,368.268 1908.08,386.643 1903.66,399.025 1881.87,409.326 1866.52,432.686 1852.57,460.07 1841.83,491.913 1844.52,511.711 1808.96,513.615 1786.26,529.932 1754.82,536.269 1724.44,552.846 1708.19,578.332 1688.96,596.063 1661.27,589.844 1638.74,578.106 1611.24,569.443 1597.51,556.55 1570.79,540.646 1563.47,532.899 1572.04,511.486 1595.81,503.067 1630.59,498.917 1659.46,501.686 1693.65,508.875 1721.4,523.78 1729.06,545.314 1743.5,565.811 1759.97,569.882 1785.71,574.055 1808.03,584.413 1818.01,587.978 1843.2,579.746 1867.33,571.925 1886.21,562.33 1906.35,565.531 1925.97,580.021 1924,599.591 1925.38,620.293 1911.52,651.632 1891.21,676.267 1866.92,696.159 1844.63,725.931 1843.37,750.941 1807.49,761.846 1780.07,767.284 1753.49,782.391 1727.53,795.952 1710.08,814.038 1694.76,835.777 1669.66,858.502 1641.82,866.965 1615.8,858.108 1592.49,852.315 1560.8,848.879 1532.41,840.941 1513.64,819.075 1499.7,798.394 1469.19,776.024 1452.95,756.618 1427.6,740.877 1403.46,737.756 1373.04,743.45 1355.16,740.719 1330.52,732.731 1326.01,706.513 1308.49,698.364 1284.71,702.671 1266.46,711.544 1243.23,728.462 1236.24,735.987 1206.1,738.92 1182.47,744.235 1157.06,737.38 1137.81,719.276 1115.42,706.698 1080.92,701.819 1049.08,692.306 1026.72,686.877 1005.85,676.997 987.34,655.613 986.608,642.337 996.075,623.243 1011.6,603.258 1023.58,580.658 1029.71,549.633 1036.45,524.593 1020.73,504.888 1001.06,500.338 991.189,489.227 996.395,476.156 1022.95,475.873 1058.56,479.579 1099.73,476.308 1132.26,472.836 1158.53,454.976 1182.56,430.421 1207.93,410.922 1237.85,403.994 1275.9,406.665 1308.12,419.009 1339.22,434.19 1368.04,447.45 1395.09,459.66 1417.21,473.994 1452.48,480.238 1477.46,494.876 1504.11,517.457 1533.41,544.858 1560.41,559.878 1583.49,571.192 1602.95,580.768 1611.27,571.32 1632.21,561.719 1658.69,548.553 1681.88,538.336 1710.92,527.14 1743.52,526.043 1779.59,536.173 1805.49,561.088 1813.28,582.578 1809.11,613.947 1790.29,645.82 1788.63,673.122 1780.16,705.477 1781.47,739.444 1797.13,769.551 1829.45,793.56 1868.58,790.8 1888.75,794.926 1919.19,801.485 1938.16,824.226 1963.16,849.973 1984.13,881.382 1995.79,913.595 2000.38,935.867 2016.22,917.348 2051.89,923.294 2079.35,929.771 2091.66,945.346 2092.66,949.214 2094.11,953.866 2098.4,970.479 2101.25,976.878 2114.08,980.068 2131.04,981.507 2159.52,975.098 2187.85,985.94 2200.66,999.249 2214.09,1021.03 2213,1034.98 2216.11,1019.53 2222.06,1000.68 2219.82,972.673 2209.52,947.9 2193.88,924.328 2183.78,901.79 2184.29,881.967 2156.69,859.987 2150.48,829.163 2155.38,804.394 2173.94,793.616 2194.69,796.268 2217.9,804.736 2234.21,816.851 2245.44,837.461 2270.54,860.103 2285.3,880.957 2275.35,907.963 2256.46,930.059 2238.76,950.409 2208.81,962.128 2191.23,981.612 2164.22,993.359 2136.88,1016.38 2118.2,1038.58 2107.98,1061.76 2088.61,1084.12 2071.06,1106.49 2045.55,1123 2020.42,1134.65 1988.8,1150.56 1964.65,1168.82 1936.55,1176.63 1907.63,1196.68 1893.2,1214.25 1860.99,1225.25 1842,1239.9 1823.73,1258.98 1806.43,1286.74 1798.75,1308.25 1794.6,1328.61 1787.35,1352.48 1809.85,1374.17 1819.94,1388.14 1812.68,1411.84 1804.21,1437.19 1783.98,1440.67 1761.3,1437.82 1741.16,1420.07 1728.67,1393.9 1714.23,1372.2 1690.84,1349.22 1651.44,1323.35 1622.05,1315.24 1588.33,1316.06 1551.69,1322.48 1510.68,1332.63 1484.41,1333.5 1450.92,1321.87 1424.38,1310.49 1406.19,1285.41 1403.76,1251.99 1399.46,1212.09 1378.28,1185.46 1355.77,1165.12 1362.28,1133.2 1360.56,1105.74 1352.09,1081.88 1340.72,1053.46 1321.94,1029.28 1316.82,1002.4 1322.94,969.524 1332.24,936.615 1349.96,907.458 1366.6,876.542 1378.85,843.838 1406.06,822.194 1400.03,795.726 1385.56,771.19 1356.29,748.391 1323.95,746.095 1303.99,732.233 1296.08,706.854 1291.63,674.786 1303.89,647.796 1318.69,626.246 1339.72,616.672 1370.8,606.662 1406.31,600.178 1446.71,596.025 1485.73,595.816 1513.54,588.224 1536.99,562.128 1554.41,540.739 1582.36,528.954 1604.24,522.608 1606.9,507.141 1592.14,494.178 1570.56,478.714 1545.22,466.33 1517.14,438.507 1495.53,413.636 1482.52,387.921 1464.73,368.446 1462.02,350.115 1469.23,329.434 1486.76,319.474 1504.56,329.309 1535.11,333.3 1573.44,335.917 1607.82,345.26 1647.66,350.667 1680.34,354.639 1710.83,369.772 1734.87,374.825 1760.24,367.62 1784.4,357.412 1814.13,351.866 1845.67,351.821 1875.92,345.961 1899.3,361.278 1911.32,378.535 1916.53,371.06 1925.96,354.228 1943.39,337.966 1961.38,326.936 1984.39,312.702 2003.57,304.157 1992.47,305.862 1969.94,293.317 1960.56,275.743 1949.9,246.773 1953.3,217.758 1964.72,200.991 1993.28,192.051 2026.96,195.304 2051.61,200.269 2084.96,204.523 2119.88,217.347 2142.45,239.671 2145.95,268.519 2139.84,295.056 2128.08,302.452 2133.67,319.123 2136.3,341.557 2131.53,373.872 2102.23,389.719 2084.03,424.572 2055.58,446.702 2033.39,473.55 2026.48,508.543 2001.44,513.3 1966.82,515.976 1931.28,528.553 1900.47,542.319 1884.95,569.357 1873.75,600.628 1874.89,616.715 1901.13,621.797 1929.5,634.677 1965.35,648.075 1999.32,672.09 2026.39,687.246 2065.1,692.555 2099.98,692.081 2137.67,689.898 2166.62,693.674 2192.38,692.442 2201.49,678.173 2215.21,658.723 2231.73,638.516 2230.62,613.543 2225.86,594.244 2215.8,569.891 2189.38,549.229 2169.06,530.547 2145.4,515.556 2103.18,517.325 2078.03,524.694 2054.11,542.093 2038.12,561.917 2012.9,586.428 2008.32,616.111 2013.65,648.251 2016.93,678.356 2035.51,704.222 2048.02,729.528 2060.89,762.804 2075.91,793.164 2107.02,803.909 2134.26,822.399 2161.64,850.28 2181.06,873.237 2195.17,905.018 2202.64,929.788 2199.18,940.491 2167.86,941.739 2132.07,955.141 2104.16,953.008 2089.56,961.71 2070.03,964.883 2047.12,959.854 2016.08,945.922 1986.8,937.726 1950.87,941.7 1905.85,954.723 1868.7,969.415 1831,968.625 1788.82,976.892 1751.92,978.177 1713.41,978.06 1681.92,972.679 1647.67,977.168 1616.7,971.212 1584.19,964.505 1549.59,932.643 1521.67,918.069 1484.38,911.873 1451.86,896.082 1423.05,879.903 1392,858.799 1366.25,851.788 1340.48,865.526 1315.22,881.544 1287.32,897.067 1249.95,914.958 1212.2,923.428 1183.6,918.452 1156.44,895.075 1138.63,870.966 1120.39,840.72 1095.05,815.1 1083.32,784.578 1081.09,756.903 1083.23,735.051 1069.48,705.322 1046.85,688.462 1018.53,676.432 999.772,654.774 991.296,623.55 988.826,600.805 978.129,573.581 986.218,546.253 1007.15,518.157 1019.04,501.983 1032.55,495.38 1042.31,480.912 1045.6,464.889 1052.68,441.226 1059.47,417.386 1064.12,388.775 1075.73,355.135 1075.41,332.193 1054.33,313.522 1034.88,300.235 1007.8,300.334 980.998,309.086 953.662,305.61 923.358,290.945 884.661,275.865 861.631,270.518 840.322,266.256 826.718,248.44 826.12,227.099 840.544,208.951 862.198,190.85 885.903,173.225 929.218,162.763 958.604,149.586 991.806,144.347 1021.45,154.746 1048.55,161.728 1082.21,157.635 1116.67,152.055 1135.48,129.857 1151.45,110.841 1164.74,89.8545 "/>
<polyline clip-path="url(#clip962)" style="stroke:#ff0000; stroke-linecap:round; stroke-linejoin:round; stroke-width:4; stroke-opacity:1; fill:none" points="239.425,716.536 269.789,722.903 272.399,714.05 293.516,715.348 296.892,716.046 323.881,721.716 340.744,725.255 369.477,725.01 393.97,727.018 424.349,733.386 450.586,729.491 471.704,730.777 513.953,733.373 525.725,742.116 550.232,744.112 592.495,746.709 610.252,747.296 629.667,754.509 663.464,761.587 682.894,768.799 705.713,776.722 729.384,781.681 759.819,788.061 778.412,798.237 806.338,800.956 839.34,811.021 855.423,804.972 896.906,810.531 914.677,823.683 941.765,829.365 974.81,839.431 994.297,846.655 1021.41,852.337 1035.82,864.791 1053.65,877.955 1057.04,878.665 1089.25,879.13 1102.81,881.983 1127.4,883.992 1154.54,889.686 1179.18,904.294 1205.5,912.952 1223.31,913.552 1251.31,916.283 1286.95,917.458 1311.56,919.479 1345.52,926.606 1369.32,931.602 1393.93,933.61 1418.55,935.63 1455.03,933.855 1472.85,934.443 1501.7,934.21 1527.98,930.279 1558.47,924.107 1585.67,929.802 1611.94,925.883 1636.58,927.904 1654.27,915.903 1672.1,916.491 1688.96,907.466 1708.42,902.115 1732.24,907.111 1755.08,902.47 1775.51,906.744 1792.51,910.307 1815.53,918.266 1833.53,931.455 1855.74,942.39 1867.75,951.194 1884.14,970.346 1891.94,981.416 1898.94,995.461 1911.13,1016.9 1924.96,1032.39 1937.98,1050.87 1947.41,1056 1971.29,1061.02 1981.53,1063.17 1989.18,1061.61 2017.09,1051.72 2028.12,1050.87 2049.79,1023.93 2055.62,1015.7 2054.4,993.429 2058.4,978.551 2057.2,956.301 2038.35,946.076 2021.3,942.5 1999.06,931.565 1971.99,938.459 1951.55,934.185 1935.33,927.646 1918.31,924.083 1893.66,922.063 1876,934.075 1853.14,938.704 1840.5,945.488 1812.45,942.745 1787.8,940.737 1760.57,935.03 1742.59,921.842 1719.58,913.883 1684.61,897.131 1664.07,880.281 1643.55,863.432 1632.41,851.7 1621.27,839.957 1599.94,826.095 1587.06,807.74 1576.75,793.07 1570.67,776.146 1574.77,761.366 1593.25,746.464 1603.3,736.055 1626.11,731.451 1639.67,734.279 1668.44,734.047 1682.14,749.402 1702.51,753.664 1712.69,755.782 1739.85,761.464 1761.18,775.289 1766.36,782.624 1788.51,793.51 1807.27,803.699 1831.06,808.67 1849.67,806.295 1870.87,807.593 1895.29,797.049 1913.09,797.649 1926.69,800.49 1948.08,814.34 1962.67,826.781 1976.47,842.186 1983.46,856.17 1992.27,876.816 2001.08,897.474 2003.87,913.748 2001.66,935.251 2004.27,938.937 2010.48,955.946 2026.12,978.073 2028.93,994.384 2043.57,1006.89 2053.81,1009.04 2067.45,1011.89 2087.72,1003.56 2103.76,997.482 2112.98,989.975 2130.62,977.95 2135.63,972.722 2135.17,947.496 2120.52,935.006 2103.26,918.842 2092.84,904.123 2069.79,896.164 2041.74,893.433 2017.9,888.449 2007.69,886.306 1979.65,883.587 1962.63,880.024 1945.43,863.885 1931.81,861.044 1904.59,855.35 1892.78,859.146 1866.54,863.064 1848.56,849.9 1828.15,845.639 1809.53,848.002 1782.34,842.321 1769.55,836.516 1752.56,832.953 1727.14,833.908 1697.52,837.116 1673.86,844.696 1665.31,836.639 1665.17,824.075 1657.57,825.618 1646.56,826.451 1632.15,826.573 1625.36,825.152 1608.49,834.153 1595.86,840.912 1563.65,840.447 1548.42,843.521 1539.16,850.99 1532.48,862.146 1547.71,859.06 1566.33,856.684 1596.79,850.513 1605.91,830.479 1620.19,817.805 1624.28,803.001 1614.79,785.367 1598.52,766.326 1589.97,758.28 1578.74,734.059 1559.21,726.846 1537.34,741.039 1516.18,739.741 1485.66,733.361 1487.21,714.932 1481.97,695.106 1484.34,673.75 1488.44,659.007 1505.98,634.614 1510.9,616.944 1514.08,592.698 1495.43,582.584 1472.57,574.71 1465.8,573.302 1477.49,557.076 1501.88,546.607 1540.72,548.48 1577.68,531.324 1596.1,516.52 1613.57,492.225 1626.02,473.11 1646.16,464.893 1674.02,467.587 1697.67,472.497 1717.29,492.078 1746.09,504.274 1763.17,520.242 1771.85,540.68 1760.23,556.893 1741.03,574.649 1712.47,587.359 1678.75,592.784 1657.62,591.498 1619.44,574.208 1598.21,560.456 1589.57,540.006 1588.53,518.05 1606.93,503.258 1620.32,493.633 1646.29,477.322 1669.82,469.816 1692.4,452.807 1713.33,441.676 1731.03,442.251 1756.96,425.965 1756.81,413.56 1769.21,394.482 1780.95,390.735 1800.91,370.15 1789.82,358.579 1764.42,347.129 1780.34,341.178 1810.55,335.092 1836.75,343.602 1857.81,344.888 1884.81,350.484 1907.83,370.702 1907.2,386.021 1904,397.715 1878.92,411.062 1864.94,436.006 1850.15,463.901 1841.3,496.156 1844.86,509.307 1804.41,513.299 1785.24,531.043 1751.55,536.455 1721.39,555.019 1707.32,580.073 1688.91,594.902 1661.82,589.257 1639.75,578.445 1610.11,569.15 1599.02,557.517 1568.47,538.721 1565.9,535.084 1573.25,508.658 1600.17,501.85 1637.23,497.147 1660.88,502.07 1698.08,509.809 1722.72,524.246 1728.01,543.974 1743.45,565.832 1757,568.648 1787.48,574.991 1809.56,585.816 1816.34,587.225 1847.47,578.163 1871.01,570.632 1887.76,561.693 1908.08,565.918 1928.59,582.608 1923.78,600.266 1924.95,622.283 1907.73,659.178 1887.73,679.934 1865.12,697.053 1841.88,729.651 1843.82,748.79 1804.21,762.395 1781.41,767.011 1751.96,782.747 1726.7,796.241 1710.82,814.842 1694.11,836.406 1665.58,861.778 1642.73,866.407 1616.37,857.75 1592.58,852.766 1557.78,848.627 1531.44,839.969 1512.59,817.23 1499.74,798.874 1463.96,772.608 1453.69,757.95 1426.49,739.753 1405.32,738.455 1371.52,743.892 1357.96,741.051 1328.29,731.732 1325.6,703.029 1308.66,699.49 1282.47,703.397 1265.61,712.372 1238.63,731.745 1237.79,734.696 1200.59,739.423 1181.15,744.749 1154.9,736.116 1135.4,716.401 1113.37,705.54 1075.32,700.715 1045.72,691.396 1028.82,687.857 1006.83,677.008 984.837,653.68 987.376,644.839 997.488,621.989 1014.35,600.56 1024.45,577.747 1030.31,544.721 1036.18,524.173 1020.14,505.278 1003.27,501.764 992.311,490.155 996.509,475.498 1028.53,475.951 1066.46,480.751 1106.89,476.759 1133,472.877 1159.9,453.652 1185.08,427.888 1207.74,410.903 1238.02,404.817 1280.13,407.376 1308.82,419.536 1340.06,435.333 1368.78,447.505 1394.14,458.979 1415.3,472.693 1455.82,481.118 1476.99,494.845 1505.87,519.483 1537.33,547.782 1559.37,558.583 1581.42,569.395 1600.08,579.51 1609.3,572.089 1633.67,561.619 1663.05,545.982 1683.21,537.753 1715.13,525.765 1747.2,526.23 1783.62,536.908 1808.44,563.824 1811.17,579.926 1808.27,616.65 1788.41,649.884 1789.53,671.926 1779.82,707.34 1781.09,741.945 1798.38,770.563 1830.9,796.119 1868.1,791.38 1881.7,794.221 1919.09,802.021 1938.06,824.761 1966.46,852.619 1986.45,885.008 1996.25,915.291 1999.06,931.565 2013.29,918.854 2054.97,924.438 2078.82,929.422 2089.26,944.165 2091.87,947.851 2093.69,954.513 2099.12,974.497 2101.73,978.195 2118.79,981.759 2136.63,982.359 2167.92,973.187 2192.82,987.833 2200.68,998.915 2215.6,1024.05 2213.2,1032.99 2217.19,1018.09 2222.75,997.237 2219.64,968.313 2208.15,943.921 2192.45,921.818 2183.59,901.147 2184.95,882.62 2152.25,856.991 2149.99,825.214 2155.55,804.482 2172.34,795.482 2193.55,796.792 2219.98,805.425 2234.63,817.866 2246.9,839.198 2276.23,864.105 2285.9,881.787 2274.6,910.76 2254.63,931.675 2238.84,950.349 2206.79,962.485 2190.99,981.171 2162.35,994.029 2133.9,1019.52 2118.07,1038.23 2108.25,1061.38 2087.39,1085.37 2070.73,1107.1 2044.62,1123.72 2020.1,1134.36 1986.31,1152.53 1963.58,1169.88 1936.42,1176.83 1905.2,1198.73 1894.31,1212.28 1857.86,1226.78 1843.54,1239.61 1823.34,1260.72 1804.11,1291.57 1800.04,1306.58 1794.33,1327.62 1786.98,1354.68 1813.73,1376.23 1818.14,1386.71 1810.79,1413.81 1803.43,1440.95 1785.48,1440.34 1760.64,1438.29 1737.31,1417.43 1726.75,1389.7 1713.71,1371.04 1687.82,1346.49 1644.84,1318.34 1623.48,1317.01 1587.63,1315.81 1549.3,1323.61 1506.71,1333.72 1488.78,1333.1 1448.57,1321.45 1426.31,1310.38 1404.81,1283.6 1403.71,1248.44 1397.46,1205.89 1377.73,1185.89 1358.02,1165.89 1363.78,1132.29 1360.22,1106.25 1352.42,1082.49 1339.47,1051.35 1320.65,1028.46 1317.1,1002.49 1323.7,966.072 1332.84,933.377 1351.34,905.825 1367.27,874.612 1379.77,842.712 1406.75,823.279 1399.8,796.755 1385.23,771.787 1352.91,746.255 1324.15,746.5 1306.31,733.386 1296.01,706.225 1291.6,670.946 1305.84,645.843 1318.39,626.642 1338.62,618.389 1374.85,604.135 1411.97,599.421 1452.47,595.417 1487.94,596.592 1511.51,589.049 1537.44,560.236 1553.31,541.782 1581.87,529.096 1601.23,523.806 1605.3,509.123 1591.66,493.878 1567.89,476.526 1542.5,465.04 1511.9,433.876 1493.18,411.405 1482.04,387.429 1465.9,368.608 1463.25,352.603 1469.79,329.239 1486.54,320.373 1505.13,330.402 1539.65,334.48 1581.73,337.027 1611.27,346.247 1652.56,351.721 1680.36,354.403 1711.67,370.175 1731.92,374.375 1758.78,367.591 1783.07,357.183 1816.66,351.795 1848.64,352.248 1878.85,346.162 1899.29,362.754 1909.6,377.241 1914.58,372.098 1926.93,353.044 1946.02,335.398 1962.73,326.52 1988.55,310.283 2004.44,304.319 1993.52,305.14 1965.54,290.102 1959.39,273.436 1947.13,240.117 1954.3,213.912 1964.22,203.674 1995.96,191.796 2030.45,195.85 2050.67,200.038 2088.55,204.789 2124.07,218.271 2142.94,240.619 2145.98,268.942 2138.87,295.172 2130.55,299.617 2132.56,318.524 2136.38,343.982 2130.26,379.751 2098.47,391.69 2080.61,431.267 2054.76,447.554 2033.26,474.053 2027.09,509.968 2005.18,511.609 1964.74,515.613 1928.68,529.83 1900.16,542.529 1885.36,570.51 1873.12,602.164 1874.1,611.691 1900.41,620.287 1931.91,636.182 1971.01,650.558 2003.54,676.028 2025.71,686.878 2067.25,692.412 2099.4,692.878 2139.95,688.861 2163.72,693.821 2189.09,692.866 2199.84,679.53 2216.37,658.064 2232.86,636.598 2229,610.919 2226.15,594.792 2215.5,567.73 2185.55,545.982 2168.37,530.014 2143.64,515.565 2096.43,518.161 2080.48,524.161 2053.79,543.435 2038.06,561.889 2008.95,590.004 2008.55,617.911 2014.12,650.19 2017.12,678.857 2035.3,704.462 2046.69,728.671 2061.69,766.154 2075.72,794.074 2105.53,803.429 2136.38,822.373 2164.06,853.194 2180.51,872.297 2196.43,906.964 2201.89,926.924 2199.5,935.839 2165.64,941.312 2125.17,957.966 2104.71,953.68 2092.09,960.464 2069.22,965.105 2045.37,960.109 2010.28,943.333 1983.02,937.626 1945.74,942.39 1898.4,957.611 1866.3,969.746 1830.6,968.558 1784.87,977.84 1752.59,977.363 1712.68,978.44 1685.43,972.734 1648.12,977.485 1617.49,971.069 1583.45,963.93 1543.23,927.193 1523.64,919.944 1482.85,911.397 1451.35,895.368 1423.26,880.061 1390.04,857.407 1369.66,853.145 1340.93,865.954 1314.75,882.436 1285.15,898.233 1243.69,917.826 1209.78,923.287 1186.01,918.303 1153.71,892.661 1138.38,870.595 1118.8,838.231 1093.33,814.07 1083.96,783.886 1080.51,758.109 1083.01,736.716 1067.72,702.245 1046.56,688.445 1017.81,676.187 999.204,653.558 990.737,620.581 989.021,601.515 976.356,570.816 987.305,545.076 1010.04,515.601 1016.78,504.568 1029.4,497.882 1041.18,481.694 1046.2,464.109 1053.75,437.757 1060.44,414.344 1065.44,384.392 1078.82,350.044 1076.27,334.039 1053.54,313.858 1035.87,300.915 1007.29,301.16 979.561,310.846 952.672,305.262 918.223,288.829 879.59,274.624 866.159,271.832 842.645,266.946 826.718,248.199 825.923,226.439 841.893,208.168 865.407,188.392 888.071,171.542 937.553,160.252 958.515,149.219 992.042,143.856 1020.56,155.93 1047.41,161.489 1084.3,156.824 1117.83,151.472 1134.53,130.337 1150.4,112.116 1163.73,90.3188 "/>
<polyline clip-path="url(#clip962)" style="stroke:#3da44d; stroke-linecap:round; stroke-linejoin:round; stroke-width:4; stroke-opacity:1; fill:none" points="242.588,720.625 257.111,718.729 274.077,717.538 291.379,717.511 309.311,717.588 327.451,717.658 349.454,720.889 372.292,724.793 396.926,727.457 422.528,729.124 448.095,733.243 475.54,737.607 502.651,737.564 529.518,740.35 555.943,743.17 582.343,746.531 608.874,751.673 634,756.233 658.118,763.259 682.448,771.045 708.313,778.084 733.235,784.573 758.318,789.278 783.898,795.757 809.107,801.16 833.888,805.042 859.997,811.856 887.832,817.067 916.122,823.904 942.579,831.995 968.141,838.928 993.457,844.986 1014.61,853.341 1033.58,860.346 1052.4,869.26 1069.64,876.935 1089.42,881.47 1109.22,885.435 1130.14,889.842 1152.47,895.463 1178.08,900.747 1203.93,905.237 1229.34,911.825 1255.59,914.248 1283.48,918.225 1311.09,921.034 1339.82,923.64 1367.12,927.24 1394.65,930.308 1421.92,930.897 1449.58,933.691 1477.53,933.962 1502.6,933.855 1530.67,932.064 1556.23,928.382 1581.79,924.265 1606.86,923.429 1631.29,922.544 1653.69,916.856 1674.44,913.872 1693.51,909.653 1713.99,906.495 1733.84,906.148 1754.53,906.54 1774.74,910.205 1794.03,915.775 1813.98,922.606 1834.03,932.08 1852.52,941.574 1868.33,955.484 1881.18,968.263 1892.41,981.338 1904.19,995.535 1915.71,1009.49 1926.53,1024.55 1937.34,1038.37 1950.3,1050.37 1964.86,1057.65 1979.09,1060.17 1993.47,1056.56 2009.08,1049 2024,1039.78 2038,1025.25 2050.54,1011.78 2055.39,996.412 2054.85,979.227 2050.59,963.125 2037.67,950.561 2021.97,940.424 2001.51,934.762 1979.34,933.057 1957.11,931.052 1935.42,928.518 1914.81,928.037 1894.13,928.665 1873.5,932.273 1852.93,935.388 1831.77,938.467 1808.81,938.145 1788.13,934.261 1763.11,930.292 1737.7,923.48 1714.9,912.187 1690.49,900.573 1669.65,884.093 1650.87,867.433 1633,852.168 1619.48,837.165 1605.68,824.482 1593.09,809.63 1582.68,792.265 1576.92,775.666 1580.4,758.62 1590.69,746.145 1608.64,739.351 1625.89,734.407 1645.48,734.283 1665.07,737.385 1683.34,743.804 1701.39,750.813 1719.48,758.265 1738.48,764.943 1756.16,774.51 1773.59,781.849 1790.18,791.332 1808.89,798.595 1828.78,802.521 1848.48,806.193 1870.07,807.865 1890.56,806.805 1909.37,807.37 1927.8,810.868 1945.71,818.865 1961.33,828.009 1973.37,843.754 1983.55,859.713 1991.16,877.182 1998.82,893.445 2002.83,910.599 2006.98,926.159 2010.18,942.796 2015.88,958.843 2023.9,973.845 2033.76,985.661 2044.24,994.287 2055.44,999.51 2068.36,1001.66 2082.75,999.672 2097.42,996.133 2109.48,986.693 2119.21,976.694 2124.75,964.447 2124.89,948.556 2114.19,934.119 2098.89,921.395 2083.63,909.804 2065,899.707 2043.86,893.703 2023.15,887.819 2003.45,883.068 1982.15,878.369 1962.87,874.427 1945.12,869.649 1927.2,865.113 1907.93,859.917 1888.59,855.82 1867.85,855.085 1846.16,851.859 1827.1,849.435 1807.11,846.858 1785.02,844.944 1764.22,841.909 1744.78,839.042 1724.72,836.154 1704.28,832.023 1691.56,839.337 1674.07,835.867 1666.58,832.829 1657.98,831.008 1645.08,828.21 1629.56,825.72 1615.88,831.93 1603.19,831.977 1585.62,833.026 1567.8,836.049 1549.45,836.92 1545.55,849.639 1539.44,852.082 1551.72,856.691 1572.1,859.801 1592.84,854 1604.87,837.854 1613.92,822.524 1618.58,804.215 1611.54,788.093 1599.7,768.889 1592.91,750.859 1578.81,737.546 1557.22,728.874 1538.23,743.096 1512.78,746.546 1490.13,736.86 1484.45,717.305 1487.97,696.777 1490.43,672.852 1500.41,651.027 1504.58,631.557 1517.66,617.763 1520,594.829 1497.22,590.857 1472.41,584.622 1460.21,566.505 1481.31,559.86 1507.66,554.296 1539.74,550.661 1566.75,533.051 1593.25,515.95 1609.14,491.994 1623.43,470.668 1645.3,455.587 1672.83,459.194 1694.66,476.494 1718.34,494.345 1740.43,503.822 1767.38,514.622 1776.77,539.081 1758.46,556.688 1737.2,575.188 1713.58,588.706 1683.41,589.686 1651.37,590.561 1620.29,582.126 1595.63,564.389 1579.01,542.011 1587.13,518.261 1607.84,506.594 1626.9,495.212 1643.69,478.538 1666.45,470.329 1688.44,459.628 1707.62,448.03 1730.55,441.375 1746.71,428.433 1757.03,411.04 1766.4,395.66 1787.68,395.022 1796.05,376.653 1780,363.142 1765.34,351.937 1767.3,347.546 1786.34,340.775 1808.93,338.063 1833.06,340.139 1859.86,341.537 1886.48,348.863 1907.83,365.8 1915.53,385.933 1905.65,403.441 1883.12,415.715 1867.5,437.669 1858.41,461.273 1851.68,486.175 1835.82,508.377 1805.73,509.823 1780.4,524.106 1752.58,537.733 1726.45,554.06 1714.45,578.094 1689.4,595.173 1660.04,591.475 1635.64,578.592 1612.21,566.527 1589.97,554.366 1566.22,546.608 1558.23,524.382 1578.45,506.834 1606.36,505.993 1633.49,500.443 1663.42,502.056 1690.3,510.717 1715.36,525.235 1726.34,544.098 1743.37,558.321 1765,567.826 1785.27,579.172 1802.02,594.605 1823.72,588.031 1844.33,579.268 1866.17,570.255 1886.94,559.005 1911.88,568.145 1927.88,584.753 1922.45,607.017 1917.5,630.049 1908.28,656.77 1887.85,678.979 1862.55,699.646 1845.52,726.558 1837.79,753.093 1807.31,756.854 1778.86,765.811 1751.19,778.503 1726.08,797.19 1711.9,818.665 1693.78,839.552 1674.17,862.944 1643.56,864.839 1618.18,852.792 1589.55,849.927 1560.66,846.87 1538.02,832.921 1520.73,811.838 1498.83,794.221 1474.78,783.341 1454.28,762.878 1433.23,741.906 1405.34,741.488 1379,748.761 1350.86,742.86 1329.02,729.226 1333.75,709.594 1312.67,698.113 1290.08,699.98 1271.19,710.583 1252.57,727.324 1231.22,739.66 1202.69,742.983 1176.95,751.152 1153.79,735.846 1135.29,717.997 1110.07,706.123 1084.17,698.374 1054.87,694.451 1029.68,687.85 1002.54,679.098 978.37,665.497 982.249,642.016 996.481,618.767 1016.86,598.895 1029.42,576.72 1033.74,551.807 1039.25,525.268 1020.49,508.807 993.992,508.314 979.405,488.678 1005.43,480.308 1034.78,478.772 1063.79,480.147 1097.19,476.256 1131.89,472.495 1158.87,450.819 1181.13,426.186 1209.35,407.655 1242.36,405.089 1274.69,410.233 1306.27,418.927 1337.12,432.114 1365.8,446.463 1394.92,459.936 1423.44,472.678 1452.74,483.311 1477.52,501.097 1504.27,519.302 1530.62,539.229 1555.36,555.918 1576.08,569.84 1593.58,582.956 1613.72,571.207 1637.18,561.437 1658.14,544.443 1686.46,534.73 1716.87,530.349 1749.83,527.656 1783.74,534.016 1805.92,556.369 1809.07,585.854 1808.8,618.605 1790.81,648.468 1788.03,679.262 1777.22,709.422 1774.4,740.597 1796.26,766.698 1823.55,786.392 1858.85,786.796 1890.06,794.644 1922.48,804.644 1944.15,826.643 1961.95,853.634 1977.65,882.101 1989.54,907.674 1996.48,934.083 2019.47,917.545 2047.43,918.571 2071.64,925.59 2082.64,937.83 2089.92,942.396 2093.59,953.53 2095.97,967.756 2103.07,981.377 2121.91,983.123 2142.75,984.006 2163.44,976.359 2190.24,986.127 2204.96,1002.85 2210.15,1021.64 2220.69,1040.88 2221.56,1019.2 2221.24,994.375 2214.7,971.524 2208.99,946.489 2197.21,922.342 2187.91,900.623 2173.02,879.272 2151.34,862.143 2147.69,835.56 2153.07,810.967 2168.9,793.424 2195.02,795.564 2215.69,806.317 2234.13,822.164 2248.75,844.047 2274.42,861.681 2291.2,885.365 2278.12,911.699 2258.28,930.944 2238.21,951.502 2211.91,964.518 2186.68,983.273 2157.3,993.864 2134.68,1013.76 2123.56,1038.95 2108.82,1063.93 2090.72,1086.35 2069.39,1107.5 2046.18,1124.97 2019.46,1139.12 1992.32,1151.74 1962.2,1162.84 1932.94,1173.41 1909.87,1189.18 1888.1,1208.19 1862.9,1224.65 1838.72,1239.63 1819.52,1258.97 1809.15,1282.77 1804.28,1307.84 1793.27,1330.84 1794.86,1352.8 1811.18,1370.55 1815.21,1392.56 1810.54,1416.59 1806.1,1439.54 1782.33,1445.72 1758.7,1435.73 1738.66,1415.88 1728.04,1389.28 1707.73,1366.33 1684.1,1344.37 1656.13,1324.62 1621.25,1317.67 1586.24,1319.93 1550.36,1326.07 1516.52,1336.97 1481.09,1331.21 1448.27,1322.04 1417.94,1308.48 1402.46,1278.86 1401.99,1246.75 1396.2,1216.09 1380.52,1188.63 1360.06,1164.98 1368.02,1134.6 1365.49,1106.35 1353.87,1078.15 1340.06,1051.62 1323.32,1026.62 1315.46,995.605 1320.91,962.654 1328.41,931.587 1342.24,900.515 1362.97,873.382 1379.41,843.125 1408.47,822.892 1406.03,792.644 1386.07,767.986 1357.92,752.248 1323.84,751.179 1299.54,733.234 1292.24,705.385 1294,676.209 1298.98,649.538 1318.91,628.924 1345.99,614.9 1375.95,605.419 1410.77,598.439 1446.37,598.317 1481.86,596.768 1510.85,584.233 1526.71,560.529 1552.12,544.843 1580.59,542.348 1601.52,528.078 1602.63,505.541 1583.75,492.571 1565.56,473.482 1537.4,463.369 1517.5,439.06 1494.92,416.695 1481.25,392.385 1457.89,376.558 1450.55,349.755 1463.51,325.367 1491.15,319.995 1515.49,332.042 1545,333.956 1576.92,337.226 1610.07,344.706 1643.02,351.373 1675.56,354.488 1701.83,368.86 1729.93,381.428 1760.81,366.492 1787.85,354.647 1817.53,352.03 1848.87,347.205 1876.55,345.283 1897.78,360.01 1904.63,381.329 1916.69,366.874 1929.27,350.286 1943.95,336.494 1963.26,325.681 1985.15,319.229 2001.89,308.196 1985.04,299.311 1967.69,285.12 1951.14,267.396 1943.65,241.249 1947.01,216.256 1969.69,199.467 1997.14,189.796 2028.85,195.918 2061.26,201.242 2091.92,205.449 2123.3,215.028 2146.06,235.669 2141.99,261.852 2135.28,283.548 2128.42,304.322 2138.94,327.373 2137.3,352.358 2124.91,377.566 2094.75,391.094 2082.29,421.349 2057.85,444.586 2037.5,471.48 2030.28,501.897 1997.76,509.988 1963.06,508.143 1932.07,525.515 1900.92,542.775 1877.49,566.164 1860.02,594.299 1876.63,618.814 1908.88,630.042 1941.17,638.484 1969.63,653.057 2000.24,672.379 2031.25,683.176 2063.81,694.12 2099.6,686.342 2133.35,688.188 2157.81,692.288 2185.3,693.567 2207.74,679.139 2219.83,657.256 2234.17,634.657 2227.78,613.16 2224.21,590.452 2209.83,569.529 2188.48,548.724 2169.6,525.062 2141.85,514.453 2108.87,516.832 2076.48,527.753 2048.97,542.922 2027.87,565.103 2008.55,588.258 2008.6,615.759 2015.6,645.193 2020.35,675.67 2030.5,706.077 2048.38,734.549 2060.31,764.202 2074.06,794.706 2110.12,805.023 2140.03,823.674 2160.87,849.226 2183.35,871.435 2201.05,895.817 2208.91,921.417 2197,944.98 2168.66,946.743 2137.14,949.985 2110.62,951.707 2090.39,966.667 2064.59,964.979 2035.76,953.873 2007.53,945.933 1973.64,938.047 1938.19,945.831 1901.28,954.468 1865.59,968.152 1827.36,967.729 1789.98,974.05 1751.81,973.524 1717.21,978.417 1682.61,974.215 1648.55,977.469 1614.25,969.57 1579.3,962.279 1555.23,935.305 1521.97,921.035 1482.76,918.174 1452.53,898.586 1424.31,877.733 1397.9,857.327 1365.49,845.31 1340.21,866.668 1313.71,885.302 1282.91,898.218 1251.97,913.641 1217.99,922.495 1184.83,910.784 1160.47,890.3 1135.94,868.147 1116.95,841.351 1098.5,814.28 1089.9,785.341 1089.25,758.604 1082.71,731.033 1071.41,704.78 1040.98,692.388 1012.98,677.816 999.539,655.056 996.88,626.909 984.872,601.558 979.307,573.583 986.442,546.443 1000.72,522.7 1015.82,506.804 1036.98,498.803 1038.73,478.354 1049.34,461.35 1053.53,436.202 1059.1,409.941 1072.03,384.99 1081.56,359.178 1079.7,332.33 1060.77,314.088 1037.6,298.498 1008.5,304.403 980.168,309.537 952.68,298.372 923.618,286.941 891.61,280.505 862.522,275.691 835.963,269.132 822.039,248.636 820.396,224.421 840.401,205.062 864.683,188.838 893.374,172.341 925.781,162.887 957.411,147.235 991.376,141.569 1020.56,153.95 1051.85,161.892 1084.8,161.204 1113.79,155.355 1135,135.398 1154,112.485 1164.92,87.9763 "/>
<path clip-path="url(#clip960)" d="M250.367 1438.47 L793.155 1438.47 L793.155 1231.11 L250.367 1231.11  Z" fill="#ffffff" fill-rule="evenodd" fill-opacity="1"/>
<polyline clip-path="url(#clip960)" style="stroke:#000000; stroke-linecap:round; stroke-linejoin:round; stroke-width:4; stroke-opacity:1; fill:none" points="250.367,1438.47 793.155,1438.47 793.155,1231.11 250.367,1231.11 250.367,1438.47 "/>
<polyline clip-path="url(#clip960)" style="stroke:#0000ff; stroke-linecap:round; stroke-linejoin:round; stroke-width:4; stroke-opacity:1; fill:none" points="274.533,1282.95 419.525,1282.95 "/>
<path clip-path="url(#clip960)" d="M467.718 1286.21 L467.718 1288.29 L448.135 1288.29 Q448.413 1292.69 450.774 1295 Q453.158 1297.29 457.394 1297.29 Q459.848 1297.29 462.139 1296.69 Q464.454 1296.09 466.723 1294.89 L466.723 1298.91 Q464.431 1299.89 462.024 1300.4 Q459.616 1300.91 457.14 1300.91 Q450.936 1300.91 447.302 1297.29 Q443.691 1293.68 443.691 1287.53 Q443.691 1281.16 447.116 1277.43 Q450.565 1273.68 456.399 1273.68 Q461.63 1273.68 464.663 1277.06 Q467.718 1280.42 467.718 1286.21 M463.459 1284.96 Q463.413 1281.46 461.491 1279.38 Q459.593 1277.29 456.445 1277.29 Q452.88 1277.29 450.728 1279.31 Q448.598 1281.32 448.274 1284.98 L463.459 1284.96 Z" fill="#000000" fill-rule="nonzero" fill-opacity="1" /><path clip-path="url(#clip960)" d="M491.237 1275.07 L491.237 1279.1 Q489.431 1278.17 487.487 1277.71 Q485.542 1277.25 483.459 1277.25 Q480.288 1277.25 478.69 1278.22 Q477.116 1279.19 477.116 1281.14 Q477.116 1282.62 478.251 1283.48 Q479.385 1284.31 482.811 1285.07 L484.269 1285.4 Q488.806 1286.37 490.704 1288.15 Q492.625 1289.91 492.625 1293.08 Q492.625 1296.69 489.755 1298.8 Q486.908 1300.91 481.908 1300.91 Q479.825 1300.91 477.556 1300.49 Q475.311 1300.1 472.811 1299.29 L472.811 1294.89 Q475.172 1296.11 477.463 1296.74 Q479.755 1297.34 482 1297.34 Q485.01 1297.34 486.63 1296.32 Q488.25 1295.28 488.25 1293.41 Q488.25 1291.67 487.07 1290.74 Q485.912 1289.82 481.954 1288.96 L480.473 1288.61 Q476.514 1287.78 474.755 1286.07 Q472.996 1284.33 472.996 1281.32 Q472.996 1277.67 475.588 1275.67 Q478.181 1273.68 482.95 1273.68 Q485.311 1273.68 487.394 1274.03 Q489.477 1274.38 491.237 1275.07 Z" fill="#000000" fill-rule="nonzero" fill-opacity="1" /><path clip-path="url(#clip960)" d="M503.621 1266.95 L503.621 1274.31 L512.394 1274.31 L512.394 1277.62 L503.621 1277.62 L503.621 1291.69 Q503.621 1294.86 504.477 1295.77 Q505.357 1296.67 508.019 1296.67 L512.394 1296.67 L512.394 1300.23 L508.019 1300.23 Q503.088 1300.23 501.213 1298.41 Q499.338 1296.55 499.338 1291.69 L499.338 1277.62 L496.213 1277.62 L496.213 1274.31 L499.338 1274.31 L499.338 1266.95 L503.621 1266.95 Z" fill="#000000" fill-rule="nonzero" fill-opacity="1" /><path clip-path="url(#clip960)" d="M517.996 1274.31 L522.255 1274.31 L522.255 1300.23 L517.996 1300.23 L517.996 1274.31 M517.996 1264.22 L522.255 1264.22 L522.255 1269.61 L517.996 1269.61 L517.996 1264.22 Z" fill="#000000" fill-rule="nonzero" fill-opacity="1" /><path clip-path="url(#clip960)" d="M551.352 1279.29 Q552.949 1276.42 555.171 1275.05 Q557.394 1273.68 560.403 1273.68 Q564.454 1273.68 566.653 1276.53 Q568.852 1279.35 568.852 1284.59 L568.852 1300.23 L564.569 1300.23 L564.569 1284.73 Q564.569 1281 563.25 1279.19 Q561.931 1277.39 559.222 1277.39 Q555.912 1277.39 553.991 1279.59 Q552.07 1281.79 552.07 1285.58 L552.07 1300.23 L547.787 1300.23 L547.787 1284.73 Q547.787 1280.98 546.468 1279.19 Q545.148 1277.39 542.394 1277.39 Q539.13 1277.39 537.209 1279.61 Q535.287 1281.81 535.287 1285.58 L535.287 1300.23 L531.005 1300.23 L531.005 1274.31 L535.287 1274.31 L535.287 1278.34 Q536.746 1275.95 538.783 1274.82 Q540.82 1273.68 543.621 1273.68 Q546.445 1273.68 548.412 1275.12 Q550.403 1276.55 551.352 1279.29 Z" fill="#000000" fill-rule="nonzero" fill-opacity="1" /><path clip-path="url(#clip960)" d="M589.13 1287.2 Q583.968 1287.2 581.977 1288.38 Q579.986 1289.56 579.986 1292.41 Q579.986 1294.68 581.468 1296.02 Q582.972 1297.34 585.542 1297.34 Q589.083 1297.34 591.213 1294.84 Q593.366 1292.32 593.366 1288.15 L593.366 1287.2 L589.13 1287.2 M597.625 1285.44 L597.625 1300.23 L593.366 1300.23 L593.366 1296.3 Q591.907 1298.66 589.731 1299.79 Q587.555 1300.91 584.407 1300.91 Q580.426 1300.91 578.065 1298.68 Q575.727 1296.44 575.727 1292.69 Q575.727 1288.31 578.643 1286.09 Q581.583 1283.87 587.393 1283.87 L593.366 1283.87 L593.366 1283.45 Q593.366 1280.51 591.421 1278.92 Q589.5 1277.29 586.005 1277.29 Q583.782 1277.29 581.676 1277.83 Q579.569 1278.36 577.625 1279.42 L577.625 1275.49 Q579.963 1274.59 582.162 1274.15 Q584.361 1273.68 586.444 1273.68 Q592.069 1273.68 594.847 1276.6 Q597.625 1279.52 597.625 1285.44 Z" fill="#000000" fill-rule="nonzero" fill-opacity="1" /><path clip-path="url(#clip960)" d="M610.611 1266.95 L610.611 1274.31 L619.384 1274.31 L619.384 1277.62 L610.611 1277.62 L610.611 1291.69 Q610.611 1294.86 611.467 1295.77 Q612.347 1296.67 615.009 1296.67 L619.384 1296.67 L619.384 1300.23 L615.009 1300.23 Q610.078 1300.23 608.204 1298.41 Q606.329 1296.55 606.329 1291.69 L606.329 1277.62 L603.204 1277.62 L603.204 1274.31 L606.329 1274.31 L606.329 1266.95 L610.611 1266.95 Z" fill="#000000" fill-rule="nonzero" fill-opacity="1" /><path clip-path="url(#clip960)" d="M647.162 1286.21 L647.162 1288.29 L627.578 1288.29 Q627.856 1292.69 630.217 1295 Q632.602 1297.29 636.838 1297.29 Q639.291 1297.29 641.583 1296.69 Q643.898 1296.09 646.166 1294.89 L646.166 1298.91 Q643.875 1299.89 641.467 1300.4 Q639.06 1300.91 636.583 1300.91 Q630.379 1300.91 626.745 1297.29 Q623.134 1293.68 623.134 1287.53 Q623.134 1281.16 626.56 1277.43 Q630.009 1273.68 635.842 1273.68 Q641.074 1273.68 644.106 1277.06 Q647.162 1280.42 647.162 1286.21 M642.902 1284.96 Q642.856 1281.46 640.935 1279.38 Q639.037 1277.29 635.889 1277.29 Q632.324 1277.29 630.171 1279.31 Q628.041 1281.32 627.717 1284.98 L642.902 1284.96 Z" fill="#000000" fill-rule="nonzero" fill-opacity="1" /><polyline clip-path="url(#clip960)" style="stroke:#ff0000; stroke-linecap:round; stroke-linejoin:round; stroke-width:4; stroke-opacity:1; fill:none" points="274.533,1334.79 419.525,1334.79 "/>
<path clip-path="url(#clip960)" d="M464.038 1331.13 Q465.635 1328.26 467.857 1326.89 Q470.079 1325.52 473.088 1325.52 Q477.139 1325.52 479.338 1328.37 Q481.538 1331.19 481.538 1336.43 L481.538 1352.07 L477.255 1352.07 L477.255 1336.57 Q477.255 1332.84 475.936 1331.03 Q474.616 1329.23 471.908 1329.23 Q468.598 1329.23 466.676 1331.43 Q464.755 1333.63 464.755 1337.42 L464.755 1352.07 L460.473 1352.07 L460.473 1336.57 Q460.473 1332.82 459.153 1331.03 Q457.834 1329.23 455.079 1329.23 Q451.815 1329.23 449.894 1331.45 Q447.973 1333.65 447.973 1337.42 L447.973 1352.07 L443.691 1352.07 L443.691 1326.15 L447.973 1326.15 L447.973 1330.18 Q449.431 1327.79 451.468 1326.66 Q453.505 1325.52 456.306 1325.52 Q459.13 1325.52 461.098 1326.96 Q463.089 1328.39 464.038 1331.13 Z" fill="#000000" fill-rule="nonzero" fill-opacity="1" /><path clip-path="url(#clip960)" d="M512.209 1338.05 L512.209 1340.13 L492.625 1340.13 Q492.903 1344.53 495.264 1346.84 Q497.649 1349.13 501.885 1349.13 Q504.338 1349.13 506.63 1348.53 Q508.945 1347.93 511.213 1346.73 L511.213 1350.75 Q508.922 1351.73 506.514 1352.24 Q504.107 1352.75 501.63 1352.75 Q495.426 1352.75 491.792 1349.13 Q488.181 1345.52 488.181 1339.37 Q488.181 1333 491.607 1329.27 Q495.056 1325.52 500.889 1325.52 Q506.121 1325.52 509.153 1328.9 Q512.209 1332.26 512.209 1338.05 M507.949 1336.8 Q507.903 1333.3 505.982 1331.22 Q504.084 1329.13 500.936 1329.13 Q497.371 1329.13 495.218 1331.15 Q493.088 1333.16 492.764 1336.82 L507.949 1336.8 Z" fill="#000000" fill-rule="nonzero" fill-opacity="1" /><path clip-path="url(#clip960)" d="M530.982 1339.04 Q525.82 1339.04 523.829 1340.22 Q521.838 1341.4 521.838 1344.25 Q521.838 1346.52 523.32 1347.86 Q524.824 1349.18 527.394 1349.18 Q530.935 1349.18 533.065 1346.68 Q535.218 1344.16 535.218 1339.99 L535.218 1339.04 L530.982 1339.04 M539.477 1337.28 L539.477 1352.07 L535.218 1352.07 L535.218 1348.14 Q533.759 1350.5 531.584 1351.63 Q529.408 1352.75 526.26 1352.75 Q522.278 1352.75 519.917 1350.52 Q517.579 1348.28 517.579 1344.53 Q517.579 1340.15 520.496 1337.93 Q523.435 1335.71 529.246 1335.71 L535.218 1335.71 L535.218 1335.29 Q535.218 1332.35 533.273 1330.76 Q531.352 1329.13 527.857 1329.13 Q525.635 1329.13 523.528 1329.67 Q521.422 1330.2 519.477 1331.26 L519.477 1327.33 Q521.815 1326.43 524.014 1325.99 Q526.213 1325.52 528.297 1325.52 Q533.922 1325.52 536.699 1328.44 Q539.477 1331.36 539.477 1337.28 Z" fill="#000000" fill-rule="nonzero" fill-opacity="1" /><path clip-path="url(#clip960)" d="M564.778 1326.91 L564.778 1330.94 Q562.972 1330.01 561.028 1329.55 Q559.083 1329.09 557 1329.09 Q553.829 1329.09 552.232 1330.06 Q550.658 1331.03 550.658 1332.98 Q550.658 1334.46 551.792 1335.32 Q552.926 1336.15 556.352 1336.91 L557.81 1337.24 Q562.347 1338.21 564.245 1339.99 Q566.167 1341.75 566.167 1344.92 Q566.167 1348.53 563.296 1350.64 Q560.449 1352.75 555.449 1352.75 Q553.366 1352.75 551.097 1352.33 Q548.852 1351.94 546.352 1351.13 L546.352 1346.73 Q548.713 1347.95 551.005 1348.58 Q553.296 1349.18 555.542 1349.18 Q558.551 1349.18 560.171 1348.16 Q561.792 1347.12 561.792 1345.25 Q561.792 1343.51 560.611 1342.58 Q559.454 1341.66 555.495 1340.8 L554.014 1340.45 Q550.056 1339.62 548.296 1337.91 Q546.537 1336.17 546.537 1333.16 Q546.537 1329.51 549.13 1327.51 Q551.722 1325.52 556.491 1325.52 Q558.852 1325.52 560.935 1325.87 Q563.019 1326.22 564.778 1326.91 Z" fill="#000000" fill-rule="nonzero" fill-opacity="1" /><path clip-path="url(#clip960)" d="M572.509 1341.84 L572.509 1326.15 L576.768 1326.15 L576.768 1341.68 Q576.768 1345.36 578.204 1347.21 Q579.639 1349.04 582.509 1349.04 Q585.958 1349.04 587.949 1346.84 Q589.963 1344.64 589.963 1340.85 L589.963 1326.15 L594.222 1326.15 L594.222 1352.07 L589.963 1352.07 L589.963 1348.09 Q588.412 1350.45 586.352 1351.61 Q584.315 1352.75 581.606 1352.75 Q577.139 1352.75 574.824 1349.97 Q572.509 1347.19 572.509 1341.84 M583.227 1325.52 L583.227 1325.52 Z" fill="#000000" fill-rule="nonzero" fill-opacity="1" /><path clip-path="url(#clip960)" d="M618.018 1330.13 Q617.301 1329.71 616.444 1329.53 Q615.611 1329.32 614.592 1329.32 Q610.981 1329.32 609.037 1331.68 Q607.116 1334.02 607.116 1338.42 L607.116 1352.07 L602.833 1352.07 L602.833 1326.15 L607.116 1326.15 L607.116 1330.18 Q608.458 1327.82 610.611 1326.68 Q612.764 1325.52 615.842 1325.52 Q616.282 1325.52 616.815 1325.59 Q617.347 1325.64 617.995 1325.76 L618.018 1330.13 Z" fill="#000000" fill-rule="nonzero" fill-opacity="1" /><path clip-path="url(#clip960)" d="M643.62 1338.05 L643.62 1340.13 L624.037 1340.13 Q624.315 1344.53 626.676 1346.84 Q629.06 1349.13 633.296 1349.13 Q635.75 1349.13 638.041 1348.53 Q640.356 1347.93 642.625 1346.73 L642.625 1350.75 Q640.333 1351.73 637.926 1352.24 Q635.518 1352.75 633.041 1352.75 Q626.838 1352.75 623.203 1349.13 Q619.592 1345.52 619.592 1339.37 Q619.592 1333 623.018 1329.27 Q626.467 1325.52 632.301 1325.52 Q637.532 1325.52 640.564 1328.9 Q643.62 1332.26 643.62 1338.05 M639.361 1336.8 Q639.314 1333.3 637.393 1331.22 Q635.495 1329.13 632.347 1329.13 Q628.782 1329.13 626.629 1331.15 Q624.5 1333.16 624.176 1336.82 L639.361 1336.8 Z" fill="#000000" fill-rule="nonzero" fill-opacity="1" /><path clip-path="url(#clip960)" d="M670.796 1331.13 Q672.393 1328.26 674.615 1326.89 Q676.837 1325.52 679.847 1325.52 Q683.898 1325.52 686.097 1328.37 Q688.296 1331.19 688.296 1336.43 L688.296 1352.07 L684.013 1352.07 L684.013 1336.57 Q684.013 1332.84 682.694 1331.03 Q681.374 1329.23 678.666 1329.23 Q675.356 1329.23 673.435 1331.43 Q671.513 1333.63 671.513 1337.42 L671.513 1352.07 L667.231 1352.07 L667.231 1336.57 Q667.231 1332.82 665.912 1331.03 Q664.592 1329.23 661.837 1329.23 Q658.574 1329.23 656.652 1331.45 Q654.731 1333.65 654.731 1337.42 L654.731 1352.07 L650.449 1352.07 L650.449 1326.15 L654.731 1326.15 L654.731 1330.18 Q656.189 1327.79 658.226 1326.66 Q660.263 1325.52 663.064 1325.52 Q665.888 1325.52 667.856 1326.96 Q669.847 1328.39 670.796 1331.13 Z" fill="#000000" fill-rule="nonzero" fill-opacity="1" /><path clip-path="url(#clip960)" d="M718.967 1338.05 L718.967 1340.13 L699.384 1340.13 Q699.661 1344.53 702.022 1346.84 Q704.407 1349.13 708.643 1349.13 Q711.096 1349.13 713.388 1348.53 Q715.703 1347.93 717.971 1346.73 L717.971 1350.75 Q715.68 1351.73 713.272 1352.24 Q710.865 1352.75 708.388 1352.75 Q702.184 1352.75 698.55 1349.13 Q694.939 1345.52 694.939 1339.37 Q694.939 1333 698.365 1329.27 Q701.814 1325.52 707.647 1325.52 Q712.879 1325.52 715.911 1328.9 Q718.967 1332.26 718.967 1338.05 M714.708 1336.8 Q714.661 1333.3 712.74 1331.22 Q710.842 1329.13 707.694 1329.13 Q704.129 1329.13 701.976 1331.15 Q699.847 1333.16 699.522 1336.82 L714.708 1336.8 Z" fill="#000000" fill-rule="nonzero" fill-opacity="1" /><path clip-path="url(#clip960)" d="M747.508 1336.43 L747.508 1352.07 L743.249 1352.07 L743.249 1336.57 Q743.249 1332.88 741.814 1331.06 Q740.379 1329.23 737.508 1329.23 Q734.059 1329.23 732.069 1331.43 Q730.078 1333.63 730.078 1337.42 L730.078 1352.07 L725.795 1352.07 L725.795 1326.15 L730.078 1326.15 L730.078 1330.18 Q731.606 1327.84 733.666 1326.68 Q735.749 1325.52 738.457 1325.52 Q742.925 1325.52 745.217 1328.3 Q747.508 1331.06 747.508 1336.43 Z" fill="#000000" fill-rule="nonzero" fill-opacity="1" /><path clip-path="url(#clip960)" d="M760.217 1318.79 L760.217 1326.15 L768.99 1326.15 L768.99 1329.46 L760.217 1329.46 L760.217 1343.53 Q760.217 1346.7 761.073 1347.61 Q761.953 1348.51 764.615 1348.51 L768.99 1348.51 L768.99 1352.07 L764.615 1352.07 Q759.684 1352.07 757.809 1350.25 Q755.934 1348.39 755.934 1343.53 L755.934 1329.46 L752.809 1329.46 L752.809 1326.15 L755.934 1326.15 L755.934 1318.79 L760.217 1318.79 Z" fill="#000000" fill-rule="nonzero" fill-opacity="1" /><polyline clip-path="url(#clip960)" style="stroke:#3da44d; stroke-linecap:round; stroke-linejoin:round; stroke-width:4; stroke-opacity:1; fill:none" points="274.533,1386.63 419.525,1386.63 "/>
<path clip-path="url(#clip960)" d="M468.343 1377.99 L458.968 1390.6 L468.829 1403.91 L463.806 1403.91 L456.26 1393.73 L448.714 1403.91 L443.691 1403.91 L453.76 1390.35 L444.547 1377.99 L449.57 1377.99 L456.445 1387.22 L463.32 1377.99 L468.343 1377.99 Z" fill="#000000" fill-rule="nonzero" fill-opacity="1" /><path clip-path="url(#clip960)" d="M491.375 1378.75 L491.375 1382.78 Q489.57 1381.85 487.625 1381.39 Q485.681 1380.93 483.598 1380.93 Q480.426 1380.93 478.829 1381.9 Q477.255 1382.87 477.255 1384.82 Q477.255 1386.3 478.389 1387.16 Q479.524 1387.99 482.95 1388.75 L484.408 1389.08 Q488.945 1390.05 490.843 1391.83 Q492.764 1393.59 492.764 1396.76 Q492.764 1400.37 489.894 1402.48 Q487.047 1404.59 482.047 1404.59 Q479.963 1404.59 477.695 1404.17 Q475.45 1403.78 472.95 1402.97 L472.95 1398.57 Q475.311 1399.79 477.602 1400.42 Q479.894 1401.02 482.139 1401.02 Q485.149 1401.02 486.769 1400 Q488.389 1398.96 488.389 1397.09 Q488.389 1395.35 487.209 1394.42 Q486.051 1393.5 482.093 1392.64 L480.612 1392.29 Q476.653 1391.46 474.894 1389.75 Q473.135 1388.01 473.135 1385 Q473.135 1381.35 475.727 1379.35 Q478.32 1377.36 483.088 1377.36 Q485.45 1377.36 487.533 1377.71 Q489.616 1378.06 491.375 1378.75 Z" fill="#000000" fill-rule="nonzero" fill-opacity="1" /></svg>
