<?xml version="1.0" encoding="utf-8"?>
<svg xmlns="http://www.w3.org/2000/svg" xmlns:xlink="http://www.w3.org/1999/xlink" width="600" height="400" viewBox="0 0 2400 1600">
<defs>
  <clipPath id="clip050">
    <rect x="0" y="0" width="2400" height="1600"/>
  </clipPath>
</defs>
<path clip-path="url(#clip050)" d="M0 1600 L2400 1600 L2400 0 L0 0  Z" fill="#ffffff" fill-rule="evenodd" fill-opacity="1"/>
<defs>
  <clipPath id="clip051">
    <rect x="480" y="0" width="1681" height="1600"/>
  </clipPath>
</defs>
<path clip-path="url(#clip050)" d="M193.936 1486.45 L1152.76 1486.45 L1152.76 47.2441 L193.936 47.2441  Z" fill="#ffffff" fill-rule="evenodd" fill-opacity="1"/>
<defs>
  <clipPath id="clip052">
    <rect x="193" y="47" width="960" height="1440"/>
  </clipPath>
</defs>
<polyline clip-path="url(#clip052)" style="stroke:#000000; stroke-linecap:round; stroke-linejoin:round; stroke-width:2; stroke-opacity:0.1; fill:none" points="209.622,1486.45 209.622,47.2441 "/>
<polyline clip-path="url(#clip052)" style="stroke:#000000; stroke-linecap:round; stroke-linejoin:round; stroke-width:2; stroke-opacity:0.1; fill:none" points="438.622,1486.45 438.622,47.2441 "/>
<polyline clip-path="url(#clip052)" style="stroke:#000000; stroke-linecap:round; stroke-linejoin:round; stroke-width:2; stroke-opacity:0.1; fill:none" points="667.621,1486.45 667.621,47.2441 "/>
<polyline clip-path="url(#clip052)" style="stroke:#000000; stroke-linecap:round; stroke-linejoin:round; stroke-width:2; stroke-opacity:0.1; fill:none" points="896.62,1486.45 896.62,47.2441 "/>
<polyline clip-path="url(#clip052)" style="stroke:#000000; stroke-linecap:round; stroke-linejoin:round; stroke-width:2; stroke-opacity:0.1; fill:none" points="1125.62,1486.45 1125.62,47.2441 "/>
<polyline clip-path="url(#clip052)" style="stroke:#000000; stroke-linecap:round; stroke-linejoin:round; stroke-width:2; stroke-opacity:0.1; fill:none" points="193.936,1271.9 1152.76,1271.9 "/>
<polyline clip-path="url(#clip052)" style="stroke:#000000; stroke-linecap:round; stroke-linejoin:round; stroke-width:2; stroke-opacity:0.1; fill:none" points="193.936,941.678 1152.76,941.678 "/>
<polyline clip-path="url(#clip052)" style="stroke:#000000; stroke-linecap:round; stroke-linejoin:round; stroke-width:2; stroke-opacity:0.1; fill:none" points="193.936,611.461 1152.76,611.461 "/>
<polyline clip-path="url(#clip052)" style="stroke:#000000; stroke-linecap:round; stroke-linejoin:round; stroke-width:2; stroke-opacity:0.1; fill:none" points="193.936,281.243 1152.76,281.243 "/>
<polyline clip-path="url(#clip050)" style="stroke:#000000; stroke-linecap:round; stroke-linejoin:round; stroke-width:4; stroke-opacity:1; fill:none" points="193.936,1486.45 1152.76,1486.45 "/>
<polyline clip-path="url(#clip050)" style="stroke:#000000; stroke-linecap:round; stroke-linejoin:round; stroke-width:4; stroke-opacity:1; fill:none" points="209.622,1486.45 209.622,1467.55 "/>
<polyline clip-path="url(#clip050)" style="stroke:#000000; stroke-linecap:round; stroke-linejoin:round; stroke-width:4; stroke-opacity:1; fill:none" points="438.622,1486.45 438.622,1467.55 "/>
<polyline clip-path="url(#clip050)" style="stroke:#000000; stroke-linecap:round; stroke-linejoin:round; stroke-width:4; stroke-opacity:1; fill:none" points="667.621,1486.45 667.621,1467.55 "/>
<polyline clip-path="url(#clip050)" style="stroke:#000000; stroke-linecap:round; stroke-linejoin:round; stroke-width:4; stroke-opacity:1; fill:none" points="896.62,1486.45 896.62,1467.55 "/>
<polyline clip-path="url(#clip050)" style="stroke:#000000; stroke-linecap:round; stroke-linejoin:round; stroke-width:4; stroke-opacity:1; fill:none" points="1125.62,1486.45 1125.62,1467.55 "/>
<path clip-path="url(#clip050)" d="M209.622 1517.37 Q206.011 1517.37 204.183 1520.93 Q202.377 1524.47 202.377 1531.6 Q202.377 1538.71 204.183 1542.27 Q206.011 1545.82 209.622 1545.82 Q213.257 1545.82 215.062 1542.27 Q216.891 1538.71 216.891 1531.6 Q216.891 1524.47 215.062 1520.93 Q213.257 1517.37 209.622 1517.37 M209.622 1513.66 Q215.433 1513.66 218.488 1518.27 Q221.567 1522.85 221.567 1531.6 Q221.567 1540.33 218.488 1544.94 Q215.433 1549.52 209.622 1549.52 Q203.812 1549.52 200.734 1544.94 Q197.678 1540.33 197.678 1531.6 Q197.678 1522.85 200.734 1518.27 Q203.812 1513.66 209.622 1513.66 Z" fill="#000000" fill-rule="nonzero" fill-opacity="1" /><path clip-path="url(#clip050)" d="M417.395 1544.91 L433.714 1544.91 L433.714 1548.85 L411.77 1548.85 L411.77 1544.91 Q414.432 1542.16 419.015 1537.53 Q423.622 1532.88 424.802 1531.53 Q427.048 1529.01 427.927 1527.27 Q428.83 1525.51 428.83 1523.82 Q428.83 1521.07 426.886 1519.33 Q424.964 1517.6 421.863 1517.6 Q419.663 1517.6 417.21 1518.36 Q414.779 1519.13 412.001 1520.68 L412.001 1515.95 Q414.826 1514.82 417.279 1514.24 Q419.733 1513.66 421.77 1513.66 Q427.14 1513.66 430.335 1516.35 Q433.529 1519.03 433.529 1523.52 Q433.529 1525.65 432.719 1527.57 Q431.932 1529.47 429.825 1532.07 Q429.247 1532.74 426.145 1535.95 Q423.043 1539.15 417.395 1544.91 Z" fill="#000000" fill-rule="nonzero" fill-opacity="1" /><path clip-path="url(#clip050)" d="M453.529 1517.37 Q449.918 1517.37 448.089 1520.93 Q446.284 1524.47 446.284 1531.6 Q446.284 1538.71 448.089 1542.27 Q449.918 1545.82 453.529 1545.82 Q457.163 1545.82 458.969 1542.27 Q460.798 1538.71 460.798 1531.6 Q460.798 1524.47 458.969 1520.93 Q457.163 1517.37 453.529 1517.37 M453.529 1513.66 Q459.339 1513.66 462.395 1518.27 Q465.473 1522.85 465.473 1531.6 Q465.473 1540.33 462.395 1544.94 Q459.339 1549.52 453.529 1549.52 Q447.719 1549.52 444.64 1544.94 Q441.585 1540.33 441.585 1531.6 Q441.585 1522.85 444.64 1518.27 Q447.719 1513.66 453.529 1513.66 Z" fill="#000000" fill-rule="nonzero" fill-opacity="1" /><path clip-path="url(#clip050)" d="M655.792 1518.36 L643.987 1536.81 L655.792 1536.81 L655.792 1518.36 M654.565 1514.29 L660.445 1514.29 L660.445 1536.81 L665.376 1536.81 L665.376 1540.7 L660.445 1540.7 L660.445 1548.85 L655.792 1548.85 L655.792 1540.7 L640.191 1540.7 L640.191 1536.19 L654.565 1514.29 Z" fill="#000000" fill-rule="nonzero" fill-opacity="1" /><path clip-path="url(#clip050)" d="M683.107 1517.37 Q679.496 1517.37 677.667 1520.93 Q675.862 1524.47 675.862 1531.6 Q675.862 1538.71 677.667 1542.27 Q679.496 1545.82 683.107 1545.82 Q686.741 1545.82 688.547 1542.27 Q690.375 1538.71 690.375 1531.6 Q690.375 1524.47 688.547 1520.93 Q686.741 1517.37 683.107 1517.37 M683.107 1513.66 Q688.917 1513.66 691.973 1518.27 Q695.051 1522.85 695.051 1531.6 Q695.051 1540.33 691.973 1544.94 Q688.917 1549.52 683.107 1549.52 Q677.297 1549.52 674.218 1544.94 Q671.163 1540.33 671.163 1531.6 Q671.163 1522.85 674.218 1518.27 Q677.297 1513.66 683.107 1513.66 Z" fill="#000000" fill-rule="nonzero" fill-opacity="1" /><path clip-path="url(#clip050)" d="M882.025 1529.7 Q878.877 1529.7 877.025 1531.86 Q875.197 1534.01 875.197 1537.76 Q875.197 1541.49 877.025 1543.66 Q878.877 1545.82 882.025 1545.82 Q885.174 1545.82 887.002 1543.66 Q888.854 1541.49 888.854 1537.76 Q888.854 1534.01 887.002 1531.86 Q885.174 1529.7 882.025 1529.7 M891.308 1515.05 L891.308 1519.31 Q889.549 1518.48 887.743 1518.04 Q885.961 1517.6 884.201 1517.6 Q879.572 1517.6 877.118 1520.72 Q874.687 1523.85 874.34 1530.17 Q875.706 1528.15 877.766 1527.09 Q879.826 1526 882.303 1526 Q887.511 1526 890.521 1529.17 Q893.553 1532.32 893.553 1537.76 Q893.553 1543.08 890.405 1546.3 Q887.257 1549.52 882.025 1549.52 Q876.03 1549.52 872.859 1544.94 Q869.688 1540.33 869.688 1531.6 Q869.688 1523.41 873.576 1518.55 Q877.465 1513.66 884.016 1513.66 Q885.775 1513.66 887.558 1514.01 Q889.363 1514.36 891.308 1515.05 Z" fill="#000000" fill-rule="nonzero" fill-opacity="1" /><path clip-path="url(#clip050)" d="M911.609 1517.37 Q907.997 1517.37 906.169 1520.93 Q904.363 1524.47 904.363 1531.6 Q904.363 1538.71 906.169 1542.27 Q907.997 1545.82 911.609 1545.82 Q915.243 1545.82 917.048 1542.27 Q918.877 1538.71 918.877 1531.6 Q918.877 1524.47 917.048 1520.93 Q915.243 1517.37 911.609 1517.37 M911.609 1513.66 Q917.419 1513.66 920.474 1518.27 Q923.553 1522.85 923.553 1531.6 Q923.553 1540.33 920.474 1544.94 Q917.419 1549.52 911.609 1549.52 Q905.798 1549.52 902.72 1544.94 Q899.664 1540.33 899.664 1531.6 Q899.664 1522.85 902.72 1518.27 Q905.798 1513.66 911.609 1513.66 Z" fill="#000000" fill-rule="nonzero" fill-opacity="1" /><path clip-path="url(#clip050)" d="M1110.49 1532.44 Q1107.16 1532.44 1105.24 1534.22 Q1103.34 1536 1103.34 1539.13 Q1103.34 1542.25 1105.24 1544.03 Q1107.16 1545.82 1110.49 1545.82 Q1113.83 1545.82 1115.75 1544.03 Q1117.67 1542.23 1117.67 1539.13 Q1117.67 1536 1115.75 1534.22 Q1113.85 1532.44 1110.49 1532.44 M1105.82 1530.45 Q1102.81 1529.7 1101.12 1527.64 Q1099.45 1525.58 1099.45 1522.62 Q1099.45 1518.48 1102.39 1516.07 Q1105.35 1513.66 1110.49 1513.66 Q1115.65 1513.66 1118.59 1516.07 Q1121.53 1518.48 1121.53 1522.62 Q1121.53 1525.58 1119.84 1527.64 Q1118.18 1529.7 1115.19 1530.45 Q1118.57 1531.23 1120.45 1533.52 Q1122.34 1535.82 1122.34 1539.13 Q1122.34 1544.15 1119.27 1546.83 Q1116.21 1549.52 1110.49 1549.52 Q1104.77 1549.52 1101.7 1546.83 Q1098.64 1544.15 1098.64 1539.13 Q1098.64 1535.82 1100.54 1533.52 Q1102.44 1531.23 1105.82 1530.45 M1104.1 1523.06 Q1104.1 1525.75 1105.77 1527.25 Q1107.46 1528.76 1110.49 1528.76 Q1113.5 1528.76 1115.19 1527.25 Q1116.9 1525.75 1116.9 1523.06 Q1116.9 1520.38 1115.19 1518.87 Q1113.5 1517.37 1110.49 1517.37 Q1107.46 1517.37 1105.77 1518.87 Q1104.1 1520.38 1104.1 1523.06 Z" fill="#000000" fill-rule="nonzero" fill-opacity="1" /><path clip-path="url(#clip050)" d="M1140.65 1517.37 Q1137.04 1517.37 1135.21 1520.93 Q1133.41 1524.47 1133.41 1531.6 Q1133.41 1538.71 1135.21 1542.27 Q1137.04 1545.82 1140.65 1545.82 Q1144.29 1545.82 1146.09 1542.27 Q1147.92 1538.71 1147.92 1531.6 Q1147.92 1524.47 1146.09 1520.93 Q1144.29 1517.37 1140.65 1517.37 M1140.65 1513.66 Q1146.46 1513.66 1149.52 1518.27 Q1152.6 1522.85 1152.6 1531.6 Q1152.6 1540.33 1149.52 1544.94 Q1146.46 1549.52 1140.65 1549.52 Q1134.84 1549.52 1131.77 1544.94 Q1128.71 1540.33 1128.71 1531.6 Q1128.71 1522.85 1131.77 1518.27 Q1134.84 1513.66 1140.65 1513.66 Z" fill="#000000" fill-rule="nonzero" fill-opacity="1" /><polyline clip-path="url(#clip050)" style="stroke:#000000; stroke-linecap:round; stroke-linejoin:round; stroke-width:4; stroke-opacity:1; fill:none" points="193.936,1486.45 193.936,47.2441 "/>
<polyline clip-path="url(#clip050)" style="stroke:#000000; stroke-linecap:round; stroke-linejoin:round; stroke-width:4; stroke-opacity:1; fill:none" points="193.936,1271.9 212.834,1271.9 "/>
<polyline clip-path="url(#clip050)" style="stroke:#000000; stroke-linecap:round; stroke-linejoin:round; stroke-width:4; stroke-opacity:1; fill:none" points="193.936,941.678 212.834,941.678 "/>
<polyline clip-path="url(#clip050)" style="stroke:#000000; stroke-linecap:round; stroke-linejoin:round; stroke-width:4; stroke-opacity:1; fill:none" points="193.936,611.461 212.834,611.461 "/>
<polyline clip-path="url(#clip050)" style="stroke:#000000; stroke-linecap:round; stroke-linejoin:round; stroke-width:4; stroke-opacity:1; fill:none" points="193.936,281.243 212.834,281.243 "/>
<path clip-path="url(#clip050)" d="M50.9921 1272.35 L80.6679 1272.35 L80.6679 1276.28 L50.9921 1276.28 L50.9921 1272.35 Z" fill="#000000" fill-rule="nonzero" fill-opacity="1" /><path clip-path="url(#clip050)" d="M91.5706 1285.24 L99.2095 1285.24 L99.2095 1258.87 L90.8993 1260.54 L90.8993 1256.28 L99.1632 1254.62 L103.839 1254.62 L103.839 1285.24 L111.478 1285.24 L111.478 1289.18 L91.5706 1289.18 L91.5706 1285.24 Z" fill="#000000" fill-rule="nonzero" fill-opacity="1" /><path clip-path="url(#clip050)" d="M120.922 1283.3 L125.807 1283.3 L125.807 1289.18 L120.922 1289.18 L120.922 1283.3 Z" fill="#000000" fill-rule="nonzero" fill-opacity="1" /><path clip-path="url(#clip050)" d="M145.992 1257.69 Q142.381 1257.69 140.552 1261.26 Q138.746 1264.8 138.746 1271.93 Q138.746 1279.04 140.552 1282.6 Q142.381 1286.14 145.992 1286.14 Q149.626 1286.14 151.431 1282.6 Q153.26 1279.04 153.26 1271.93 Q153.26 1264.8 151.431 1261.26 Q149.626 1257.69 145.992 1257.69 M145.992 1253.99 Q151.802 1253.99 154.857 1258.6 Q157.936 1263.18 157.936 1271.93 Q157.936 1280.66 154.857 1285.26 Q151.802 1289.85 145.992 1289.85 Q140.181 1289.85 137.103 1285.26 Q134.047 1280.66 134.047 1271.93 Q134.047 1263.18 137.103 1258.6 Q140.181 1253.99 145.992 1253.99 Z" fill="#000000" fill-rule="nonzero" fill-opacity="1" /><path clip-path="url(#clip050)" d="M51.9875 942.129 L81.6633 942.129 L81.6633 946.065 L51.9875 946.065 L51.9875 942.129 Z" fill="#000000" fill-rule="nonzero" fill-opacity="1" /><path clip-path="url(#clip050)" d="M101.756 927.477 Q98.1447 927.477 96.316 931.042 Q94.5104 934.583 94.5104 941.713 Q94.5104 948.819 96.316 952.384 Q98.1447 955.926 101.756 955.926 Q105.39 955.926 107.196 952.384 Q109.024 948.819 109.024 941.713 Q109.024 934.583 107.196 931.042 Q105.39 927.477 101.756 927.477 M101.756 923.773 Q107.566 923.773 110.621 928.38 Q113.7 932.963 113.7 941.713 Q113.7 950.44 110.621 955.046 Q107.566 959.629 101.756 959.629 Q95.9456 959.629 92.8669 955.046 Q89.8114 950.44 89.8114 941.713 Q89.8114 932.963 92.8669 928.38 Q95.9456 923.773 101.756 923.773 Z" fill="#000000" fill-rule="nonzero" fill-opacity="1" /><path clip-path="url(#clip050)" d="M121.918 953.078 L126.802 953.078 L126.802 958.958 L121.918 958.958 L121.918 953.078 Z" fill="#000000" fill-rule="nonzero" fill-opacity="1" /><path clip-path="url(#clip050)" d="M137.033 924.398 L155.39 924.398 L155.39 928.333 L141.316 928.333 L141.316 936.805 Q142.334 936.458 143.353 936.296 Q144.371 936.111 145.39 936.111 Q151.177 936.111 154.556 939.282 Q157.936 942.454 157.936 947.87 Q157.936 953.449 154.464 956.551 Q150.992 959.629 144.672 959.629 Q142.496 959.629 140.228 959.259 Q137.982 958.889 135.575 958.148 L135.575 953.449 Q137.658 954.583 139.881 955.139 Q142.103 955.694 144.58 955.694 Q148.584 955.694 150.922 953.588 Q153.26 951.481 153.26 947.87 Q153.26 944.259 150.922 942.153 Q148.584 940.046 144.58 940.046 Q142.705 940.046 140.83 940.463 Q138.978 940.879 137.033 941.759 L137.033 924.398 Z" fill="#000000" fill-rule="nonzero" fill-opacity="1" /><path clip-path="url(#clip050)" d="M100.76 597.259 Q97.1493 597.259 95.3206 600.824 Q93.515 604.366 93.515 611.495 Q93.515 618.602 95.3206 622.167 Q97.1493 625.708 100.76 625.708 Q104.395 625.708 106.2 622.167 Q108.029 618.602 108.029 611.495 Q108.029 604.366 106.2 600.824 Q104.395 597.259 100.76 597.259 M100.76 593.556 Q106.571 593.556 109.626 598.162 Q112.705 602.745 112.705 611.495 Q112.705 620.222 109.626 624.829 Q106.571 629.412 100.76 629.412 Q94.9502 629.412 91.8715 624.829 Q88.816 620.222 88.816 611.495 Q88.816 602.745 91.8715 598.162 Q94.9502 593.556 100.76 593.556 Z" fill="#000000" fill-rule="nonzero" fill-opacity="1" /><path clip-path="url(#clip050)" d="M120.922 622.861 L125.807 622.861 L125.807 628.741 L120.922 628.741 L120.922 622.861 Z" fill="#000000" fill-rule="nonzero" fill-opacity="1" /><path clip-path="url(#clip050)" d="M145.992 597.259 Q142.381 597.259 140.552 600.824 Q138.746 604.366 138.746 611.495 Q138.746 618.602 140.552 622.167 Q142.381 625.708 145.992 625.708 Q149.626 625.708 151.431 622.167 Q153.26 618.602 153.26 611.495 Q153.26 604.366 151.431 600.824 Q149.626 597.259 145.992 597.259 M145.992 593.556 Q151.802 593.556 154.857 598.162 Q157.936 602.745 157.936 611.495 Q157.936 620.222 154.857 624.829 Q151.802 629.412 145.992 629.412 Q140.181 629.412 137.103 624.829 Q134.047 620.222 134.047 611.495 Q134.047 602.745 137.103 598.162 Q140.181 593.556 145.992 593.556 Z" fill="#000000" fill-rule="nonzero" fill-opacity="1" /><path clip-path="url(#clip050)" d="M101.756 267.042 Q98.1447 267.042 96.316 270.607 Q94.5104 274.148 94.5104 281.278 Q94.5104 288.384 96.316 291.949 Q98.1447 295.491 101.756 295.491 Q105.39 295.491 107.196 291.949 Q109.024 288.384 109.024 281.278 Q109.024 274.148 107.196 270.607 Q105.39 267.042 101.756 267.042 M101.756 263.338 Q107.566 263.338 110.621 267.945 Q113.7 272.528 113.7 281.278 Q113.7 290.005 110.621 294.611 Q107.566 299.195 101.756 299.195 Q95.9456 299.195 92.8669 294.611 Q89.8114 290.005 89.8114 281.278 Q89.8114 272.528 92.8669 267.945 Q95.9456 263.338 101.756 263.338 Z" fill="#000000" fill-rule="nonzero" fill-opacity="1" /><path clip-path="url(#clip050)" d="M121.918 292.644 L126.802 292.644 L126.802 298.523 L121.918 298.523 L121.918 292.644 Z" fill="#000000" fill-rule="nonzero" fill-opacity="1" /><path clip-path="url(#clip050)" d="M137.033 263.963 L155.39 263.963 L155.39 267.898 L141.316 267.898 L141.316 276.371 Q142.334 276.023 143.353 275.861 Q144.371 275.676 145.39 275.676 Q151.177 275.676 154.556 278.847 Q157.936 282.019 157.936 287.435 Q157.936 293.014 154.464 296.116 Q150.992 299.195 144.672 299.195 Q142.496 299.195 140.228 298.824 Q137.982 298.454 135.575 297.713 L135.575 293.014 Q137.658 294.148 139.881 294.704 Q142.103 295.259 144.58 295.259 Q148.584 295.259 150.922 293.153 Q153.26 291.046 153.26 287.435 Q153.26 283.824 150.922 281.718 Q148.584 279.611 144.58 279.611 Q142.705 279.611 140.83 280.028 Q138.978 280.445 137.033 281.324 L137.033 263.963 Z" fill="#000000" fill-rule="nonzero" fill-opacity="1" /><polyline clip-path="url(#clip052)" style="stroke:#009af9; stroke-linecap:round; stroke-linejoin:round; stroke-width:4; stroke-opacity:1; fill:none" points="221.072,565.395 232.522,577.239 243.972,572.835 255.422,670.034 266.872,821.288 278.322,839.502 289.772,965.252 301.222,945.522 312.672,1001.96 324.122,953.796 335.572,1048.62 347.022,1144.86 358.472,1154.59 369.922,1306.42 381.372,1369.97 392.822,1365.19 404.272,1389.72 415.722,1445.72 427.172,1442.19 438.622,1417.75 450.072,1368.71 461.522,1346.5 472.972,1182.87 484.422,1119.19 495.872,1062.39 507.321,908.297 518.771,845.361 530.221,748.666 541.671,654.642 553.121,641.712 564.571,600.1 576.021,527.757 587.471,472.82 598.921,434.277 610.371,338.958 621.821,311.864 633.271,389.135 644.721,451.441 656.171,439.641 667.621,549.2 679.071,464.338 690.521,449.97 701.971,468.49 713.421,520 724.871,560.332 736.321,503.976 747.771,559.492 759.221,542.064 770.671,581.32 782.121,633.759 793.571,671.966 805.021,546.936 816.47,584.329 827.92,692.07 839.37,713.937 850.82,833.699 862.27,796.918 873.72,746.59 885.17,624.933 896.62,592.843 908.07,534.657 919.52,481.883 930.97,284.899 942.42,191.983 953.87,297.78 965.32,414.937 976.77,314.266 988.22,337.967 999.67,326.481 1011.12,413.241 1022.57,437.214 1034.02,362.588 1045.47,468.067 1056.92,480.752 1068.37,382.957 1079.82,427.194 1091.27,441.236 1102.72,567.029 1114.17,632.166 1125.62,607.449 "/>
<polyline clip-path="url(#clip052)" style="stroke:#e26f46; stroke-linecap:round; stroke-linejoin:round; stroke-width:4; stroke-opacity:1; fill:none" points="221.072,590.377 232.522,601.571 243.972,596.743 255.422,696.235 266.872,842.962 278.322,855.642 289.772,973.347 301.222,956.421 312.672,1016.51 324.122,961.659 335.572,1046.61 347.022,1145.02 358.472,1148.98 369.922,1294.12 381.372,1351.5 392.822,1343.19 404.272,1380.52 415.722,1436.07 427.172,1430.77 438.622,1407.82 450.072,1359.77 461.522,1336.81 472.972,1174.66 484.422,1109.56 495.872,1056.83 507.321,892.81 518.771,822.454 530.221,717.906 541.671,622.971 553.121,608.35 564.571,568.272 576.021,500.145 587.471,454.003 598.921,421.909 610.371,312.742 621.821,287.683 633.271,376.763 644.721,436.774 656.171,429.631 667.621,538.312 679.071,456.826 690.521,433.473 701.971,455.824 713.421,505.506 724.871,540.693 736.321,483.37 747.771,547.64 759.221,528.801 770.671,574.404 782.121,630.651 793.571,666.693 805.021,542.887 816.47,590.513 827.92,695.247 839.37,719.94 850.82,849.189 862.27,819.183 873.72,779.205 885.17,658.053 896.62,633.532 908.07,583.645 919.52,508.071 930.97,308.743 942.42,223.056 953.87,329.608 965.32,445.053 976.77,341.768 988.22,357.225 999.67,341.259 1011.12,427.892 1022.57,453.644 1034.02,382.07 1045.47,485.436 1056.92,485.299 1068.37,389.246 1079.82,435.212 1091.27,441.509 1102.72,572.482 1114.17,651.048 1125.62,626.397 "/>
<polyline clip-path="url(#clip052)" style="stroke:#3da44d; stroke-linecap:round; stroke-linejoin:round; stroke-width:4; stroke-opacity:1; fill:none" points="221.072,541.106 232.522,573.926 243.972,569.561 255.422,723.584 266.872,922.937 278.322,926.684 289.772,972.318 301.222,876.303 312.672,934.808 324.122,863.098 335.572,858.657 347.022,1063.46 358.472,994.039 369.922,1127.47 381.372,1164.73 392.822,1193.82 404.272,1173.52 415.722,1265.2 427.172,1277.12 438.622,1226.96 450.072,1214.31 461.522,1279.36 472.972,1122.4 484.422,1068.35 495.872,1070.24 507.321,871.072 518.771,742.775 530.221,727.974 541.671,709.325 553.121,717.567 564.571,650.898 576.021,586.596 587.471,566.651 598.921,525.763 610.371,508.23 621.821,529.663 633.271,688.636 644.721,635.437 656.171,655.013 667.621,732.422 679.071,728.42 690.521,658.082 701.971,623.994 713.421,689.833 724.871,615.811 736.321,560.929 747.771,633.709 759.221,655.942 770.671,659.538 782.121,694.144 793.571,639.469 805.021,506.81 816.47,467.566 827.92,577.852 839.37,512.239 850.82,712.823 862.27,726.47 873.72,657.958 885.17,606.883 896.62,557.115 908.07,422.045 919.52,443.3 930.97,201.172 942.42,87.9763 953.87,267.481 965.32,450.295 976.77,389.635 988.22,335.468 999.67,286.053 1011.12,407.089 1022.57,370.776 1034.02,328.455 1045.47,526.896 1056.92,541.909 1068.37,552.172 1079.82,648.317 1091.27,643.217 1102.72,720.114 1114.17,839.177 1125.62,878.761 "/>
<path clip-path="url(#clip050)" d="M225.897 302.578 L683.443 302.578 L683.443 95.2176 L225.897 95.2176  Z" fill="#ffffff" fill-rule="evenodd" fill-opacity="1"/>
<polyline clip-path="url(#clip050)" style="stroke:#000000; stroke-linecap:round; stroke-linejoin:round; stroke-width:4; stroke-opacity:1; fill:none" points="225.897,302.578 683.443,302.578 683.443,95.2176 225.897,95.2176 225.897,302.578 "/>
<polyline clip-path="url(#clip050)" style="stroke:#009af9; stroke-linecap:round; stroke-linejoin:round; stroke-width:4; stroke-opacity:1; fill:none" points="236.55,147.058 300.472,147.058 "/>
<path clip-path="url(#clip050)" d="M311.125 129.778 L315.801 129.778 L315.801 144.384 L331.31 129.778 L337.329 129.778 L320.176 145.889 L338.556 164.338 L332.398 164.338 L315.801 147.694 L315.801 164.338 L311.125 164.338 L311.125 129.778 Z" fill="#000000" fill-rule="nonzero" fill-opacity="1" /><path clip-path="url(#clip050)" d="M352.977 151.305 Q347.815 151.305 345.824 152.486 Q343.833 153.666 343.833 156.514 Q343.833 158.782 345.315 160.125 Q346.819 161.444 349.389 161.444 Q352.93 161.444 355.06 158.944 Q357.213 156.421 357.213 152.254 L357.213 151.305 L352.977 151.305 M361.472 149.546 L361.472 164.338 L357.213 164.338 L357.213 160.402 Q355.754 162.763 353.579 163.898 Q351.403 165.009 348.255 165.009 Q344.273 165.009 341.912 162.787 Q339.574 160.541 339.574 156.791 Q339.574 152.416 342.491 150.194 Q345.43 147.972 351.241 147.972 L357.213 147.972 L357.213 147.555 Q357.213 144.615 355.268 143.018 Q353.347 141.398 349.852 141.398 Q347.63 141.398 345.523 141.93 Q343.417 142.463 341.472 143.527 L341.472 139.592 Q343.81 138.69 346.009 138.25 Q348.208 137.787 350.292 137.787 Q355.917 137.787 358.694 140.703 Q361.472 143.62 361.472 149.546 Z" fill="#000000" fill-rule="nonzero" fill-opacity="1" /><path clip-path="url(#clip050)" d="M370.245 128.319 L374.504 128.319 L374.504 164.338 L370.245 164.338 L370.245 128.319 Z" fill="#000000" fill-rule="nonzero" fill-opacity="1" /><path clip-path="url(#clip050)" d="M403.601 143.389 Q405.199 140.518 407.421 139.153 Q409.643 137.787 412.652 137.787 Q416.703 137.787 418.902 140.634 Q421.101 143.458 421.101 148.689 L421.101 164.338 L416.819 164.338 L416.819 148.828 Q416.819 145.102 415.5 143.296 Q414.18 141.49 411.472 141.49 Q408.162 141.49 406.24 143.69 Q404.319 145.889 404.319 149.685 L404.319 164.338 L400.037 164.338 L400.037 148.828 Q400.037 145.078 398.717 143.296 Q397.398 141.49 394.643 141.49 Q391.379 141.49 389.458 143.713 Q387.537 145.912 387.537 149.685 L387.537 164.338 L383.254 164.338 L383.254 138.412 L387.537 138.412 L387.537 142.44 Q388.995 140.055 391.032 138.921 Q393.069 137.787 395.87 137.787 Q398.694 137.787 400.662 139.222 Q402.652 140.657 403.601 143.389 Z" fill="#000000" fill-rule="nonzero" fill-opacity="1" /><path clip-path="url(#clip050)" d="M441.379 151.305 Q436.217 151.305 434.226 152.486 Q432.236 153.666 432.236 156.514 Q432.236 158.782 433.717 160.125 Q435.222 161.444 437.791 161.444 Q441.333 161.444 443.462 158.944 Q445.615 156.421 445.615 152.254 L445.615 151.305 L441.379 151.305 M449.874 149.546 L449.874 164.338 L445.615 164.338 L445.615 160.402 Q444.157 162.763 441.981 163.898 Q439.805 165.009 436.657 165.009 Q432.675 165.009 430.314 162.787 Q427.976 160.541 427.976 156.791 Q427.976 152.416 430.893 150.194 Q433.833 147.972 439.643 147.972 L445.615 147.972 L445.615 147.555 Q445.615 144.615 443.671 143.018 Q441.749 141.398 438.254 141.398 Q436.032 141.398 433.925 141.93 Q431.819 142.463 429.874 143.527 L429.874 139.592 Q432.212 138.69 434.411 138.25 Q436.611 137.787 438.694 137.787 Q444.319 137.787 447.097 140.703 Q449.874 143.62 449.874 149.546 Z" fill="#000000" fill-rule="nonzero" fill-opacity="1" /><path clip-path="url(#clip050)" d="M480.198 148.689 L480.198 164.338 L475.939 164.338 L475.939 148.828 Q475.939 145.148 474.504 143.319 Q473.069 141.49 470.198 141.49 Q466.749 141.49 464.759 143.69 Q462.768 145.889 462.768 149.685 L462.768 164.338 L458.485 164.338 L458.485 138.412 L462.768 138.412 L462.768 142.44 Q464.296 140.102 466.356 138.944 Q468.439 137.787 471.147 137.787 Q475.615 137.787 477.907 140.565 Q480.198 143.319 480.198 148.689 Z" fill="#000000" fill-rule="nonzero" fill-opacity="1" /><path clip-path="url(#clip050)" d="M520.291 139.176 L520.291 143.203 Q518.485 142.277 516.541 141.815 Q514.596 141.352 512.513 141.352 Q509.342 141.352 507.744 142.324 Q506.17 143.296 506.17 145.24 Q506.17 146.722 507.305 147.578 Q508.439 148.412 511.865 149.176 L513.323 149.5 Q517.86 150.472 519.758 152.254 Q521.68 154.014 521.68 157.185 Q521.68 160.796 518.809 162.902 Q515.962 165.009 510.962 165.009 Q508.879 165.009 506.61 164.592 Q504.365 164.199 501.865 163.388 L501.865 158.99 Q504.226 160.217 506.518 160.842 Q508.809 161.444 511.055 161.444 Q514.064 161.444 515.684 160.426 Q517.305 159.384 517.305 157.509 Q517.305 155.773 516.124 154.847 Q514.967 153.921 511.008 153.064 L509.527 152.717 Q505.568 151.884 503.809 150.171 Q502.05 148.435 502.05 145.426 Q502.05 141.768 504.643 139.778 Q507.235 137.787 512.004 137.787 Q514.365 137.787 516.448 138.134 Q518.531 138.481 520.291 139.176 Z" fill="#000000" fill-rule="nonzero" fill-opacity="1" /><path clip-path="url(#clip050)" d="M548.647 143.389 Q550.244 140.518 552.466 139.153 Q554.689 137.787 557.698 137.787 Q561.749 137.787 563.948 140.634 Q566.147 143.458 566.147 148.689 L566.147 164.338 L561.864 164.338 L561.864 148.828 Q561.864 145.102 560.545 143.296 Q559.226 141.49 556.517 141.49 Q553.207 141.49 551.286 143.69 Q549.365 145.889 549.365 149.685 L549.365 164.338 L545.082 164.338 L545.082 148.828 Q545.082 145.078 543.763 143.296 Q542.443 141.49 539.689 141.49 Q536.425 141.49 534.504 143.713 Q532.582 145.912 532.582 149.685 L532.582 164.338 L528.3 164.338 L528.3 138.412 L532.582 138.412 L532.582 142.44 Q534.041 140.055 536.078 138.921 Q538.115 137.787 540.916 137.787 Q543.74 137.787 545.707 139.222 Q547.698 140.657 548.647 143.389 Z" fill="#000000" fill-rule="nonzero" fill-opacity="1" /><path clip-path="url(#clip050)" d="M584.688 141.398 Q581.263 141.398 579.272 144.083 Q577.281 146.745 577.281 151.398 Q577.281 156.051 579.249 158.736 Q581.239 161.398 584.688 161.398 Q588.091 161.398 590.082 158.713 Q592.073 156.027 592.073 151.398 Q592.073 146.791 590.082 144.106 Q588.091 141.398 584.688 141.398 M584.688 137.787 Q590.244 137.787 593.415 141.398 Q596.587 145.009 596.587 151.398 Q596.587 157.764 593.415 161.398 Q590.244 165.009 584.688 165.009 Q579.11 165.009 575.938 161.398 Q572.79 157.764 572.79 151.398 Q572.79 145.009 575.938 141.398 Q579.11 137.787 584.688 137.787 Z" fill="#000000" fill-rule="nonzero" fill-opacity="1" /><path clip-path="url(#clip050)" d="M613.693 141.398 Q610.267 141.398 608.276 144.083 Q606.286 146.745 606.286 151.398 Q606.286 156.051 608.253 158.736 Q610.244 161.398 613.693 161.398 Q617.096 161.398 619.086 158.713 Q621.077 156.027 621.077 151.398 Q621.077 146.791 619.086 144.106 Q617.096 141.398 613.693 141.398 M613.693 137.787 Q619.248 137.787 622.42 141.398 Q625.591 145.009 625.591 151.398 Q625.591 157.764 622.42 161.398 Q619.248 165.009 613.693 165.009 Q608.114 165.009 604.943 161.398 Q601.795 157.764 601.795 151.398 Q601.795 145.009 604.943 141.398 Q608.114 137.787 613.693 137.787 Z" fill="#000000" fill-rule="nonzero" fill-opacity="1" /><path clip-path="url(#clip050)" d="M636.864 131.051 L636.864 138.412 L645.637 138.412 L645.637 141.722 L636.864 141.722 L636.864 155.796 Q636.864 158.967 637.721 159.87 Q638.6 160.773 641.262 160.773 L645.637 160.773 L645.637 164.338 L641.262 164.338 Q636.332 164.338 634.457 162.509 Q632.582 160.657 632.582 155.796 L632.582 141.722 L629.457 141.722 L629.457 138.412 L632.582 138.412 L632.582 131.051 L636.864 131.051 Z" fill="#000000" fill-rule="nonzero" fill-opacity="1" /><path clip-path="url(#clip050)" d="M672.79 148.689 L672.79 164.338 L668.531 164.338 L668.531 148.828 Q668.531 145.148 667.095 143.319 Q665.66 141.49 662.79 141.49 Q659.341 141.49 657.35 143.69 Q655.359 145.889 655.359 149.685 L655.359 164.338 L651.077 164.338 L651.077 128.319 L655.359 128.319 L655.359 142.44 Q656.887 140.102 658.947 138.944 Q661.031 137.787 663.739 137.787 Q668.207 137.787 670.498 140.565 Q672.79 143.319 672.79 148.689 Z" fill="#000000" fill-rule="nonzero" fill-opacity="1" /><polyline clip-path="url(#clip050)" style="stroke:#e26f46; stroke-linecap:round; stroke-linejoin:round; stroke-width:4; stroke-opacity:1; fill:none" points="236.55,198.898 300.472,198.898 "/>
<path clip-path="url(#clip050)" d="M315.407 212.289 L315.407 226.039 L311.125 226.039 L311.125 190.252 L315.407 190.252 L315.407 194.187 Q316.75 191.872 318.787 190.761 Q320.847 189.627 323.694 189.627 Q328.417 189.627 331.356 193.377 Q334.319 197.127 334.319 203.238 Q334.319 209.349 331.356 213.099 Q328.417 216.849 323.694 216.849 Q320.847 216.849 318.787 215.738 Q316.75 214.603 315.407 212.289 M329.898 203.238 Q329.898 198.539 327.954 195.877 Q326.032 193.192 322.653 193.192 Q319.273 193.192 317.329 195.877 Q315.407 198.539 315.407 203.238 Q315.407 207.937 317.329 210.622 Q319.273 213.284 322.653 213.284 Q326.032 213.284 327.954 210.622 Q329.898 207.937 329.898 203.238 Z" fill="#000000" fill-rule="nonzero" fill-opacity="1" /><path clip-path="url(#clip050)" d="M354.504 180.159 L354.504 183.701 L350.43 183.701 Q348.139 183.701 347.236 184.627 Q346.356 185.553 346.356 187.96 L346.356 190.252 L353.37 190.252 L353.37 193.562 L346.356 193.562 L346.356 216.178 L342.074 216.178 L342.074 193.562 L338 193.562 L338 190.252 L342.074 190.252 L342.074 188.446 Q342.074 184.118 344.088 182.15 Q346.102 180.159 350.477 180.159 L354.504 180.159 Z" fill="#000000" fill-rule="nonzero" fill-opacity="1" /><path clip-path="url(#clip050)" d="M389.666 191.016 L389.666 195.043 Q387.861 194.117 385.916 193.655 Q383.972 193.192 381.889 193.192 Q378.717 193.192 377.12 194.164 Q375.546 195.136 375.546 197.08 Q375.546 198.562 376.68 199.418 Q377.815 200.252 381.24 201.016 L382.699 201.34 Q387.236 202.312 389.134 204.094 Q391.055 205.854 391.055 209.025 Q391.055 212.636 388.185 214.742 Q385.338 216.849 380.338 216.849 Q378.254 216.849 375.986 216.432 Q373.741 216.039 371.241 215.228 L371.241 210.83 Q373.602 212.057 375.893 212.682 Q378.185 213.284 380.43 213.284 Q383.44 213.284 385.06 212.266 Q386.68 211.224 386.68 209.349 Q386.68 207.613 385.5 206.687 Q384.342 205.761 380.384 204.904 L378.903 204.557 Q374.944 203.724 373.185 202.011 Q371.426 200.275 371.426 197.266 Q371.426 193.608 374.018 191.618 Q376.611 189.627 381.379 189.627 Q383.74 189.627 385.824 189.974 Q387.907 190.321 389.666 191.016 Z" fill="#000000" fill-rule="nonzero" fill-opacity="1" /><path clip-path="url(#clip050)" d="M418.023 195.229 Q419.62 192.358 421.842 190.993 Q424.064 189.627 427.074 189.627 Q431.124 189.627 433.324 192.474 Q435.523 195.298 435.523 200.529 L435.523 216.178 L431.24 216.178 L431.24 200.668 Q431.24 196.942 429.921 195.136 Q428.601 193.33 425.893 193.33 Q422.583 193.33 420.662 195.53 Q418.74 197.729 418.74 201.525 L418.74 216.178 L414.458 216.178 L414.458 200.668 Q414.458 196.918 413.138 195.136 Q411.819 193.33 409.064 193.33 Q405.801 193.33 403.879 195.553 Q401.958 197.752 401.958 201.525 L401.958 216.178 L397.676 216.178 L397.676 190.252 L401.958 190.252 L401.958 194.28 Q403.416 191.895 405.453 190.761 Q407.49 189.627 410.291 189.627 Q413.115 189.627 415.083 191.062 Q417.074 192.497 418.023 195.229 Z" fill="#000000" fill-rule="nonzero" fill-opacity="1" /><path clip-path="url(#clip050)" d="M454.064 193.238 Q450.638 193.238 448.648 195.923 Q446.657 198.585 446.657 203.238 Q446.657 207.891 448.624 210.576 Q450.615 213.238 454.064 213.238 Q457.467 213.238 459.458 210.553 Q461.448 207.867 461.448 203.238 Q461.448 198.631 459.458 195.946 Q457.467 193.238 454.064 193.238 M454.064 189.627 Q459.62 189.627 462.791 193.238 Q465.962 196.849 465.962 203.238 Q465.962 209.604 462.791 213.238 Q459.62 216.849 454.064 216.849 Q448.485 216.849 445.314 213.238 Q442.166 209.604 442.166 203.238 Q442.166 196.849 445.314 193.238 Q448.485 189.627 454.064 189.627 Z" fill="#000000" fill-rule="nonzero" fill-opacity="1" /><path clip-path="url(#clip050)" d="M483.069 193.238 Q479.643 193.238 477.652 195.923 Q475.661 198.585 475.661 203.238 Q475.661 207.891 477.629 210.576 Q479.62 213.238 483.069 213.238 Q486.471 213.238 488.462 210.553 Q490.453 207.867 490.453 203.238 Q490.453 198.631 488.462 195.946 Q486.471 193.238 483.069 193.238 M483.069 189.627 Q488.624 189.627 491.795 193.238 Q494.967 196.849 494.967 203.238 Q494.967 209.604 491.795 213.238 Q488.624 216.849 483.069 216.849 Q477.49 216.849 474.319 213.238 Q471.171 209.604 471.171 203.238 Q471.171 196.849 474.319 193.238 Q477.49 189.627 483.069 189.627 Z" fill="#000000" fill-rule="nonzero" fill-opacity="1" /><path clip-path="url(#clip050)" d="M506.24 182.891 L506.24 190.252 L515.013 190.252 L515.013 193.562 L506.24 193.562 L506.24 207.636 Q506.24 210.807 507.096 211.71 Q507.976 212.613 510.638 212.613 L515.013 212.613 L515.013 216.178 L510.638 216.178 Q505.707 216.178 503.832 214.349 Q501.957 212.497 501.957 207.636 L501.957 193.562 L498.832 193.562 L498.832 190.252 L501.957 190.252 L501.957 182.891 L506.24 182.891 Z" fill="#000000" fill-rule="nonzero" fill-opacity="1" /><path clip-path="url(#clip050)" d="M542.166 200.529 L542.166 216.178 L537.906 216.178 L537.906 200.668 Q537.906 196.988 536.471 195.159 Q535.036 193.33 532.166 193.33 Q528.717 193.33 526.726 195.53 Q524.735 197.729 524.735 201.525 L524.735 216.178 L520.453 216.178 L520.453 180.159 L524.735 180.159 L524.735 194.28 Q526.263 191.942 528.323 190.784 Q530.406 189.627 533.115 189.627 Q537.582 189.627 539.874 192.405 Q542.166 195.159 542.166 200.529 Z" fill="#000000" fill-rule="nonzero" fill-opacity="1" /><polyline clip-path="url(#clip050)" style="stroke:#3da44d; stroke-linecap:round; stroke-linejoin:round; stroke-width:4; stroke-opacity:1; fill:none" points="236.55,250.738 300.472,250.738 "/>
<path clip-path="url(#clip050)" d="M318.532 234.731 L318.532 242.092 L327.306 242.092 L327.306 245.402 L318.532 245.402 L318.532 259.476 Q318.532 262.647 319.389 263.55 Q320.269 264.453 322.931 264.453 L327.306 264.453 L327.306 268.018 L322.931 268.018 Q318 268.018 316.125 266.189 Q314.25 264.337 314.25 259.476 L314.25 245.402 L311.125 245.402 L311.125 242.092 L314.25 242.092 L314.25 234.731 L318.532 234.731 Z" fill="#000000" fill-rule="nonzero" fill-opacity="1" /><path clip-path="url(#clip050)" d="M347.93 246.073 Q347.213 245.657 346.356 245.471 Q345.523 245.263 344.505 245.263 Q340.893 245.263 338.949 247.624 Q337.028 249.962 337.028 254.36 L337.028 268.018 L332.745 268.018 L332.745 242.092 L337.028 242.092 L337.028 246.12 Q338.37 243.758 340.523 242.624 Q342.676 241.467 345.755 241.467 Q346.194 241.467 346.727 241.536 Q347.259 241.583 347.907 241.698 L347.93 246.073 Z" fill="#000000" fill-rule="nonzero" fill-opacity="1" /><path clip-path="url(#clip050)" d="M351.958 257.786 L351.958 242.092 L356.217 242.092 L356.217 257.624 Q356.217 261.305 357.653 263.156 Q359.088 264.985 361.958 264.985 Q365.407 264.985 367.398 262.786 Q369.412 260.587 369.412 256.791 L369.412 242.092 L373.671 242.092 L373.671 268.018 L369.412 268.018 L369.412 264.036 Q367.861 266.397 365.801 267.555 Q363.764 268.689 361.055 268.689 Q356.588 268.689 354.273 265.911 Q351.958 263.133 351.958 257.786 M362.676 241.467 L362.676 241.467 Z" fill="#000000" fill-rule="nonzero" fill-opacity="1" /><path clip-path="url(#clip050)" d="M404.62 253.99 L404.62 256.073 L385.037 256.073 Q385.315 260.471 387.676 262.786 Q390.06 265.078 394.296 265.078 Q396.75 265.078 399.041 264.476 Q401.356 263.874 403.625 262.67 L403.625 266.698 Q401.333 267.67 398.926 268.18 Q396.518 268.689 394.041 268.689 Q387.838 268.689 384.203 265.078 Q380.592 261.467 380.592 255.309 Q380.592 248.944 384.018 245.217 Q387.467 241.467 393.301 241.467 Q398.532 241.467 401.564 244.846 Q404.62 248.203 404.62 253.99 M400.361 252.74 Q400.314 249.245 398.393 247.161 Q396.495 245.078 393.347 245.078 Q389.782 245.078 387.629 247.092 Q385.5 249.106 385.176 252.763 L400.361 252.74 Z" fill="#000000" fill-rule="nonzero" fill-opacity="1" /><path clip-path="url(#clip050)" d="M1393.94 1486.45 L2352.76 1486.45 L2352.76 47.2441 L1393.94 47.2441  Z" fill="#ffffff" fill-rule="evenodd" fill-opacity="1"/>
<defs>
  <clipPath id="clip053">
    <rect x="1393" y="47" width="960" height="1440"/>
  </clipPath>
</defs>
<polyline clip-path="url(#clip053)" style="stroke:#000000; stroke-linecap:round; stroke-linejoin:round; stroke-width:2; stroke-opacity:0.1; fill:none" points="1409.62,1486.45 1409.62,47.2441 "/>
<polyline clip-path="url(#clip053)" style="stroke:#000000; stroke-linecap:round; stroke-linejoin:round; stroke-width:2; stroke-opacity:0.1; fill:none" points="1638.62,1486.45 1638.62,47.2441 "/>
<polyline clip-path="url(#clip053)" style="stroke:#000000; stroke-linecap:round; stroke-linejoin:round; stroke-width:2; stroke-opacity:0.1; fill:none" points="1867.62,1486.45 1867.62,47.2441 "/>
<polyline clip-path="url(#clip053)" style="stroke:#000000; stroke-linecap:round; stroke-linejoin:round; stroke-width:2; stroke-opacity:0.1; fill:none" points="2096.62,1486.45 2096.62,47.2441 "/>
<polyline clip-path="url(#clip053)" style="stroke:#000000; stroke-linecap:round; stroke-linejoin:round; stroke-width:2; stroke-opacity:0.1; fill:none" points="2325.62,1486.45 2325.62,47.2441 "/>
<polyline clip-path="url(#clip053)" style="stroke:#000000; stroke-linecap:round; stroke-linejoin:round; stroke-width:2; stroke-opacity:0.1; fill:none" points="1393.94,1415.59 2352.76,1415.59 "/>
<polyline clip-path="url(#clip053)" style="stroke:#000000; stroke-linecap:round; stroke-linejoin:round; stroke-width:2; stroke-opacity:0.1; fill:none" points="1393.94,1098.41 2352.76,1098.41 "/>
<polyline clip-path="url(#clip053)" style="stroke:#000000; stroke-linecap:round; stroke-linejoin:round; stroke-width:2; stroke-opacity:0.1; fill:none" points="1393.94,781.236 2352.76,781.236 "/>
<polyline clip-path="url(#clip053)" style="stroke:#000000; stroke-linecap:round; stroke-linejoin:round; stroke-width:2; stroke-opacity:0.1; fill:none" points="1393.94,464.062 2352.76,464.062 "/>
<polyline clip-path="url(#clip053)" style="stroke:#000000; stroke-linecap:round; stroke-linejoin:round; stroke-width:2; stroke-opacity:0.1; fill:none" points="1393.94,146.887 2352.76,146.887 "/>
<polyline clip-path="url(#clip050)" style="stroke:#000000; stroke-linecap:round; stroke-linejoin:round; stroke-width:4; stroke-opacity:1; fill:none" points="1393.94,1486.45 2352.76,1486.45 "/>
<polyline clip-path="url(#clip050)" style="stroke:#000000; stroke-linecap:round; stroke-linejoin:round; stroke-width:4; stroke-opacity:1; fill:none" points="1409.62,1486.45 1409.62,1467.55 "/>
<polyline clip-path="url(#clip050)" style="stroke:#000000; stroke-linecap:round; stroke-linejoin:round; stroke-width:4; stroke-opacity:1; fill:none" points="1638.62,1486.45 1638.62,1467.55 "/>
<polyline clip-path="url(#clip050)" style="stroke:#000000; stroke-linecap:round; stroke-linejoin:round; stroke-width:4; stroke-opacity:1; fill:none" points="1867.62,1486.45 1867.62,1467.55 "/>
<polyline clip-path="url(#clip050)" style="stroke:#000000; stroke-linecap:round; stroke-linejoin:round; stroke-width:4; stroke-opacity:1; fill:none" points="2096.62,1486.45 2096.62,1467.55 "/>
<polyline clip-path="url(#clip050)" style="stroke:#000000; stroke-linecap:round; stroke-linejoin:round; stroke-width:4; stroke-opacity:1; fill:none" points="2325.62,1486.45 2325.62,1467.55 "/>
<path clip-path="url(#clip050)" d="M1409.62 1517.37 Q1406.01 1517.37 1404.18 1520.93 Q1402.38 1524.47 1402.38 1531.6 Q1402.38 1538.71 1404.18 1542.27 Q1406.01 1545.82 1409.62 1545.82 Q1413.26 1545.82 1415.06 1542.27 Q1416.89 1538.71 1416.89 1531.6 Q1416.89 1524.47 1415.06 1520.93 Q1413.26 1517.37 1409.62 1517.37 M1409.62 1513.66 Q1415.43 1513.66 1418.49 1518.27 Q1421.57 1522.85 1421.57 1531.6 Q1421.57 1540.33 1418.49 1544.94 Q1415.43 1549.52 1409.62 1549.52 Q1403.81 1549.52 1400.73 1544.94 Q1397.68 1540.33 1397.68 1531.6 Q1397.68 1522.85 1400.73 1518.27 Q1403.81 1513.66 1409.62 1513.66 Z" fill="#000000" fill-rule="nonzero" fill-opacity="1" /><path clip-path="url(#clip050)" d="M1617.39 1544.91 L1633.71 1544.91 L1633.71 1548.85 L1611.77 1548.85 L1611.77 1544.91 Q1614.43 1542.16 1619.02 1537.53 Q1623.62 1532.88 1624.8 1531.53 Q1627.05 1529.01 1627.93 1527.27 Q1628.83 1525.51 1628.83 1523.82 Q1628.83 1521.07 1626.89 1519.33 Q1624.96 1517.6 1621.86 1517.6 Q1619.66 1517.6 1617.21 1518.36 Q1614.78 1519.13 1612 1520.68 L1612 1515.95 Q1614.83 1514.82 1617.28 1514.24 Q1619.73 1513.66 1621.77 1513.66 Q1627.14 1513.66 1630.33 1516.35 Q1633.53 1519.03 1633.53 1523.52 Q1633.53 1525.65 1632.72 1527.57 Q1631.93 1529.47 1629.83 1532.07 Q1629.25 1532.74 1626.14 1535.95 Q1623.04 1539.15 1617.39 1544.91 Z" fill="#000000" fill-rule="nonzero" fill-opacity="1" /><path clip-path="url(#clip050)" d="M1653.53 1517.37 Q1649.92 1517.37 1648.09 1520.93 Q1646.28 1524.47 1646.28 1531.6 Q1646.28 1538.71 1648.09 1542.27 Q1649.92 1545.82 1653.53 1545.82 Q1657.16 1545.82 1658.97 1542.27 Q1660.8 1538.71 1660.8 1531.6 Q1660.8 1524.47 1658.97 1520.93 Q1657.16 1517.37 1653.53 1517.37 M1653.53 1513.66 Q1659.34 1513.66 1662.39 1518.27 Q1665.47 1522.85 1665.47 1531.6 Q1665.47 1540.33 1662.39 1544.94 Q1659.34 1549.52 1653.53 1549.52 Q1647.72 1549.52 1644.64 1544.94 Q1641.58 1540.33 1641.58 1531.6 Q1641.58 1522.85 1644.64 1518.27 Q1647.72 1513.66 1653.53 1513.66 Z" fill="#000000" fill-rule="nonzero" fill-opacity="1" /><path clip-path="url(#clip050)" d="M1855.79 1518.36 L1843.99 1536.81 L1855.79 1536.81 L1855.79 1518.36 M1854.57 1514.29 L1860.45 1514.29 L1860.45 1536.81 L1865.38 1536.81 L1865.38 1540.7 L1860.45 1540.7 L1860.45 1548.85 L1855.79 1548.85 L1855.79 1540.7 L1840.19 1540.7 L1840.19 1536.19 L1854.57 1514.29 Z" fill="#000000" fill-rule="nonzero" fill-opacity="1" /><path clip-path="url(#clip050)" d="M1883.11 1517.37 Q1879.5 1517.37 1877.67 1520.93 Q1875.86 1524.47 1875.86 1531.6 Q1875.86 1538.71 1877.67 1542.27 Q1879.5 1545.82 1883.11 1545.82 Q1886.74 1545.82 1888.55 1542.27 Q1890.38 1538.71 1890.38 1531.6 Q1890.38 1524.47 1888.55 1520.93 Q1886.74 1517.37 1883.11 1517.37 M1883.11 1513.66 Q1888.92 1513.66 1891.97 1518.27 Q1895.05 1522.85 1895.05 1531.6 Q1895.05 1540.33 1891.97 1544.94 Q1888.92 1549.52 1883.11 1549.52 Q1877.3 1549.52 1874.22 1544.94 Q1871.16 1540.33 1871.16 1531.6 Q1871.16 1522.85 1874.22 1518.27 Q1877.3 1513.66 1883.11 1513.66 Z" fill="#000000" fill-rule="nonzero" fill-opacity="1" /><path clip-path="url(#clip050)" d="M2082.03 1529.7 Q2078.88 1529.7 2077.03 1531.86 Q2075.2 1534.01 2075.2 1537.76 Q2075.2 1541.49 2077.03 1543.66 Q2078.88 1545.82 2082.03 1545.82 Q2085.17 1545.82 2087 1543.66 Q2088.85 1541.49 2088.85 1537.76 Q2088.85 1534.01 2087 1531.86 Q2085.17 1529.7 2082.03 1529.7 M2091.31 1515.05 L2091.31 1519.31 Q2089.55 1518.48 2087.74 1518.04 Q2085.96 1517.6 2084.2 1517.6 Q2079.57 1517.6 2077.12 1520.72 Q2074.69 1523.85 2074.34 1530.17 Q2075.71 1528.15 2077.77 1527.09 Q2079.83 1526 2082.3 1526 Q2087.51 1526 2090.52 1529.17 Q2093.55 1532.32 2093.55 1537.76 Q2093.55 1543.08 2090.4 1546.3 Q2087.26 1549.52 2082.03 1549.52 Q2076.03 1549.52 2072.86 1544.94 Q2069.69 1540.33 2069.69 1531.6 Q2069.69 1523.41 2073.58 1518.55 Q2077.47 1513.66 2084.02 1513.66 Q2085.78 1513.66 2087.56 1514.01 Q2089.36 1514.36 2091.31 1515.05 Z" fill="#000000" fill-rule="nonzero" fill-opacity="1" /><path clip-path="url(#clip050)" d="M2111.61 1517.37 Q2108 1517.37 2106.17 1520.93 Q2104.36 1524.47 2104.36 1531.6 Q2104.36 1538.71 2106.17 1542.27 Q2108 1545.82 2111.61 1545.82 Q2115.24 1545.82 2117.05 1542.27 Q2118.88 1538.71 2118.88 1531.6 Q2118.88 1524.47 2117.05 1520.93 Q2115.24 1517.37 2111.61 1517.37 M2111.61 1513.66 Q2117.42 1513.66 2120.47 1518.27 Q2123.55 1522.85 2123.55 1531.6 Q2123.55 1540.33 2120.47 1544.94 Q2117.42 1549.52 2111.61 1549.52 Q2105.8 1549.52 2102.72 1544.94 Q2099.66 1540.33 2099.66 1531.6 Q2099.66 1522.85 2102.72 1518.27 Q2105.8 1513.66 2111.61 1513.66 Z" fill="#000000" fill-rule="nonzero" fill-opacity="1" /><path clip-path="url(#clip050)" d="M2310.49 1532.44 Q2307.16 1532.44 2305.24 1534.22 Q2303.34 1536 2303.34 1539.13 Q2303.34 1542.25 2305.24 1544.03 Q2307.16 1545.82 2310.49 1545.82 Q2313.83 1545.82 2315.75 1544.03 Q2317.67 1542.23 2317.67 1539.13 Q2317.67 1536 2315.75 1534.22 Q2313.85 1532.44 2310.49 1532.44 M2305.82 1530.45 Q2302.81 1529.7 2301.12 1527.64 Q2299.45 1525.58 2299.45 1522.62 Q2299.45 1518.48 2302.39 1516.07 Q2305.35 1513.66 2310.49 1513.66 Q2315.65 1513.66 2318.59 1516.07 Q2321.53 1518.48 2321.53 1522.62 Q2321.53 1525.58 2319.84 1527.64 Q2318.18 1529.7 2315.19 1530.45 Q2318.57 1531.23 2320.45 1533.52 Q2322.34 1535.82 2322.34 1539.13 Q2322.34 1544.15 2319.27 1546.83 Q2316.21 1549.52 2310.49 1549.52 Q2304.77 1549.52 2301.7 1546.83 Q2298.64 1544.15 2298.64 1539.13 Q2298.64 1535.82 2300.54 1533.52 Q2302.44 1531.23 2305.82 1530.45 M2304.1 1523.06 Q2304.1 1525.75 2305.77 1527.25 Q2307.46 1528.76 2310.49 1528.76 Q2313.5 1528.76 2315.19 1527.25 Q2316.9 1525.75 2316.9 1523.06 Q2316.9 1520.38 2315.19 1518.87 Q2313.5 1517.37 2310.49 1517.37 Q2307.46 1517.37 2305.77 1518.87 Q2304.1 1520.38 2304.1 1523.06 Z" fill="#000000" fill-rule="nonzero" fill-opacity="1" /><path clip-path="url(#clip050)" d="M2340.65 1517.37 Q2337.04 1517.37 2335.21 1520.93 Q2333.41 1524.47 2333.41 1531.6 Q2333.41 1538.71 2335.21 1542.27 Q2337.04 1545.82 2340.65 1545.82 Q2344.29 1545.82 2346.09 1542.27 Q2347.92 1538.71 2347.92 1531.6 Q2347.92 1524.47 2346.09 1520.93 Q2344.29 1517.37 2340.65 1517.37 M2340.65 1513.66 Q2346.46 1513.66 2349.52 1518.27 Q2352.6 1522.85 2352.6 1531.6 Q2352.6 1540.33 2349.52 1544.94 Q2346.46 1549.52 2340.65 1549.52 Q2334.84 1549.52 2331.77 1544.94 Q2328.71 1540.33 2328.71 1531.6 Q2328.71 1522.85 2331.77 1518.27 Q2334.84 1513.66 2340.65 1513.66 Z" fill="#000000" fill-rule="nonzero" fill-opacity="1" /><polyline clip-path="url(#clip050)" style="stroke:#000000; stroke-linecap:round; stroke-linejoin:round; stroke-width:4; stroke-opacity:1; fill:none" points="1393.94,1486.45 1393.94,47.2441 "/>
<polyline clip-path="url(#clip050)" style="stroke:#000000; stroke-linecap:round; stroke-linejoin:round; stroke-width:4; stroke-opacity:1; fill:none" points="1393.94,1415.59 1412.83,1415.59 "/>
<polyline clip-path="url(#clip050)" style="stroke:#000000; stroke-linecap:round; stroke-linejoin:round; stroke-width:4; stroke-opacity:1; fill:none" points="1393.94,1098.41 1412.83,1098.41 "/>
<polyline clip-path="url(#clip050)" style="stroke:#000000; stroke-linecap:round; stroke-linejoin:round; stroke-width:4; stroke-opacity:1; fill:none" points="1393.94,781.236 1412.83,781.236 "/>
<polyline clip-path="url(#clip050)" style="stroke:#000000; stroke-linecap:round; stroke-linejoin:round; stroke-width:4; stroke-opacity:1; fill:none" points="1393.94,464.062 1412.83,464.062 "/>
<polyline clip-path="url(#clip050)" style="stroke:#000000; stroke-linecap:round; stroke-linejoin:round; stroke-width:4; stroke-opacity:1; fill:none" points="1393.94,146.887 1412.83,146.887 "/>
<path clip-path="url(#clip050)" d="M1250.99 1416.04 L1280.67 1416.04 L1280.67 1419.97 L1250.99 1419.97 L1250.99 1416.04 Z" fill="#000000" fill-rule="nonzero" fill-opacity="1" /><path clip-path="url(#clip050)" d="M1291.57 1428.93 L1299.21 1428.93 L1299.21 1402.56 L1290.9 1404.23 L1290.9 1399.97 L1299.16 1398.31 L1303.84 1398.31 L1303.84 1428.93 L1311.48 1428.93 L1311.48 1432.87 L1291.57 1432.87 L1291.57 1428.93 Z" fill="#000000" fill-rule="nonzero" fill-opacity="1" /><path clip-path="url(#clip050)" d="M1320.92 1426.99 L1325.81 1426.99 L1325.81 1432.87 L1320.92 1432.87 L1320.92 1426.99 Z" fill="#000000" fill-rule="nonzero" fill-opacity="1" /><path clip-path="url(#clip050)" d="M1345.99 1401.38 Q1342.38 1401.38 1340.55 1404.95 Q1338.75 1408.49 1338.75 1415.62 Q1338.75 1422.73 1340.55 1426.29 Q1342.38 1429.83 1345.99 1429.83 Q1349.63 1429.83 1351.43 1426.29 Q1353.26 1422.73 1353.26 1415.62 Q1353.26 1408.49 1351.43 1404.95 Q1349.63 1401.38 1345.99 1401.38 M1345.99 1397.68 Q1351.8 1397.68 1354.86 1402.29 Q1357.94 1406.87 1357.94 1415.62 Q1357.94 1424.35 1354.86 1428.95 Q1351.8 1433.54 1345.99 1433.54 Q1340.18 1433.54 1337.1 1428.95 Q1334.05 1424.35 1334.05 1415.62 Q1334.05 1406.87 1337.1 1402.29 Q1340.18 1397.68 1345.99 1397.68 Z" fill="#000000" fill-rule="nonzero" fill-opacity="1" /><path clip-path="url(#clip050)" d="M1251.99 1098.86 L1281.66 1098.86 L1281.66 1102.8 L1251.99 1102.8 L1251.99 1098.86 Z" fill="#000000" fill-rule="nonzero" fill-opacity="1" /><path clip-path="url(#clip050)" d="M1301.76 1084.21 Q1298.14 1084.21 1296.32 1087.77 Q1294.51 1091.32 1294.51 1098.45 Q1294.51 1105.55 1296.32 1109.12 Q1298.14 1112.66 1301.76 1112.66 Q1305.39 1112.66 1307.2 1109.12 Q1309.02 1105.55 1309.02 1098.45 Q1309.02 1091.32 1307.2 1087.77 Q1305.39 1084.21 1301.76 1084.21 M1301.76 1080.51 Q1307.57 1080.51 1310.62 1085.11 Q1313.7 1089.7 1313.7 1098.45 Q1313.7 1107.17 1310.62 1111.78 Q1307.57 1116.36 1301.76 1116.36 Q1295.95 1116.36 1292.87 1111.78 Q1289.81 1107.17 1289.81 1098.45 Q1289.81 1089.7 1292.87 1085.11 Q1295.95 1080.51 1301.76 1080.51 Z" fill="#000000" fill-rule="nonzero" fill-opacity="1" /><path clip-path="url(#clip050)" d="M1321.92 1109.81 L1326.8 1109.81 L1326.8 1115.69 L1321.92 1115.69 L1321.92 1109.81 Z" fill="#000000" fill-rule="nonzero" fill-opacity="1" /><path clip-path="url(#clip050)" d="M1337.03 1081.13 L1355.39 1081.13 L1355.39 1085.07 L1341.32 1085.07 L1341.32 1093.54 Q1342.33 1093.19 1343.35 1093.03 Q1344.37 1092.84 1345.39 1092.84 Q1351.18 1092.84 1354.56 1096.02 Q1357.94 1099.19 1357.94 1104.6 Q1357.94 1110.18 1354.46 1113.28 Q1350.99 1116.36 1344.67 1116.36 Q1342.5 1116.36 1340.23 1115.99 Q1337.98 1115.62 1335.58 1114.88 L1335.58 1110.18 Q1337.66 1111.32 1339.88 1111.87 Q1342.1 1112.43 1344.58 1112.43 Q1348.58 1112.43 1350.92 1110.32 Q1353.26 1108.21 1353.26 1104.6 Q1353.26 1100.99 1350.92 1098.89 Q1348.58 1096.78 1344.58 1096.78 Q1342.7 1096.78 1340.83 1097.2 Q1338.98 1097.61 1337.03 1098.49 L1337.03 1081.13 Z" fill="#000000" fill-rule="nonzero" fill-opacity="1" /><path clip-path="url(#clip050)" d="M1300.76 767.035 Q1297.15 767.035 1295.32 770.6 Q1293.52 774.141 1293.52 781.271 Q1293.52 788.377 1295.32 791.942 Q1297.15 795.484 1300.76 795.484 Q1304.39 795.484 1306.2 791.942 Q1308.03 788.377 1308.03 781.271 Q1308.03 774.141 1306.2 770.6 Q1304.39 767.035 1300.76 767.035 M1300.76 763.331 Q1306.57 763.331 1309.63 767.938 Q1312.7 772.521 1312.7 781.271 Q1312.7 789.998 1309.63 794.604 Q1306.57 799.188 1300.76 799.188 Q1294.95 799.188 1291.87 794.604 Q1288.82 789.998 1288.82 781.271 Q1288.82 772.521 1291.87 767.938 Q1294.95 763.331 1300.76 763.331 Z" fill="#000000" fill-rule="nonzero" fill-opacity="1" /><path clip-path="url(#clip050)" d="M1320.92 792.637 L1325.81 792.637 L1325.81 798.516 L1320.92 798.516 L1320.92 792.637 Z" fill="#000000" fill-rule="nonzero" fill-opacity="1" /><path clip-path="url(#clip050)" d="M1345.99 767.035 Q1342.38 767.035 1340.55 770.6 Q1338.75 774.141 1338.75 781.271 Q1338.75 788.377 1340.55 791.942 Q1342.38 795.484 1345.99 795.484 Q1349.63 795.484 1351.43 791.942 Q1353.26 788.377 1353.26 781.271 Q1353.26 774.141 1351.43 770.6 Q1349.63 767.035 1345.99 767.035 M1345.99 763.331 Q1351.8 763.331 1354.86 767.938 Q1357.94 772.521 1357.94 781.271 Q1357.94 789.998 1354.86 794.604 Q1351.8 799.188 1345.99 799.188 Q1340.18 799.188 1337.1 794.604 Q1334.05 789.998 1334.05 781.271 Q1334.05 772.521 1337.1 767.938 Q1340.18 763.331 1345.99 763.331 Z" fill="#000000" fill-rule="nonzero" fill-opacity="1" /><path clip-path="url(#clip050)" d="M1301.76 449.86 Q1298.14 449.86 1296.32 453.425 Q1294.51 456.967 1294.51 464.096 Q1294.51 471.203 1296.32 474.768 Q1298.14 478.309 1301.76 478.309 Q1305.39 478.309 1307.2 474.768 Q1309.02 471.203 1309.02 464.096 Q1309.02 456.967 1307.2 453.425 Q1305.39 449.86 1301.76 449.86 M1301.76 446.157 Q1307.57 446.157 1310.62 450.763 Q1313.7 455.346 1313.7 464.096 Q1313.7 472.823 1310.62 477.43 Q1307.57 482.013 1301.76 482.013 Q1295.95 482.013 1292.87 477.43 Q1289.81 472.823 1289.81 464.096 Q1289.81 455.346 1292.87 450.763 Q1295.95 446.157 1301.76 446.157 Z" fill="#000000" fill-rule="nonzero" fill-opacity="1" /><path clip-path="url(#clip050)" d="M1321.92 475.462 L1326.8 475.462 L1326.8 481.342 L1321.92 481.342 L1321.92 475.462 Z" fill="#000000" fill-rule="nonzero" fill-opacity="1" /><path clip-path="url(#clip050)" d="M1337.03 446.782 L1355.39 446.782 L1355.39 450.717 L1341.32 450.717 L1341.32 459.189 Q1342.33 458.842 1343.35 458.68 Q1344.37 458.495 1345.39 458.495 Q1351.18 458.495 1354.56 461.666 Q1357.94 464.837 1357.94 470.254 Q1357.94 475.832 1354.46 478.934 Q1350.99 482.013 1344.67 482.013 Q1342.5 482.013 1340.23 481.643 Q1337.98 481.272 1335.58 480.531 L1335.58 475.832 Q1337.66 476.967 1339.88 477.522 Q1342.1 478.078 1344.58 478.078 Q1348.58 478.078 1350.92 475.971 Q1353.26 473.865 1353.26 470.254 Q1353.26 466.643 1350.92 464.536 Q1348.58 462.43 1344.58 462.43 Q1342.7 462.43 1340.83 462.846 Q1338.98 463.263 1337.03 464.143 L1337.03 446.782 Z" fill="#000000" fill-rule="nonzero" fill-opacity="1" /><path clip-path="url(#clip050)" d="M1291.57 160.232 L1299.21 160.232 L1299.21 133.866 L1290.9 135.533 L1290.9 131.274 L1299.16 129.607 L1303.84 129.607 L1303.84 160.232 L1311.48 160.232 L1311.48 164.167 L1291.57 164.167 L1291.57 160.232 Z" fill="#000000" fill-rule="nonzero" fill-opacity="1" /><path clip-path="url(#clip050)" d="M1320.92 158.287 L1325.81 158.287 L1325.81 164.167 L1320.92 164.167 L1320.92 158.287 Z" fill="#000000" fill-rule="nonzero" fill-opacity="1" /><path clip-path="url(#clip050)" d="M1345.99 132.686 Q1342.38 132.686 1340.55 136.25 Q1338.75 139.792 1338.75 146.922 Q1338.75 154.028 1340.55 157.593 Q1342.38 161.135 1345.99 161.135 Q1349.63 161.135 1351.43 157.593 Q1353.26 154.028 1353.26 146.922 Q1353.26 139.792 1351.43 136.25 Q1349.63 132.686 1345.99 132.686 M1345.99 128.982 Q1351.8 128.982 1354.86 133.588 Q1357.94 138.172 1357.94 146.922 Q1357.94 155.649 1354.86 160.255 Q1351.8 164.838 1345.99 164.838 Q1340.18 164.838 1337.1 160.255 Q1334.05 155.649 1334.05 146.922 Q1334.05 138.172 1337.1 133.588 Q1340.18 128.982 1345.99 128.982 Z" fill="#000000" fill-rule="nonzero" fill-opacity="1" /><polyline clip-path="url(#clip053)" style="stroke:#009af9; stroke-linecap:round; stroke-linejoin:round; stroke-width:4; stroke-opacity:1; fill:none" points="1421.07,87.9763 1432.52,120.856 1443.97,157.753 1455.42,160.183 1466.87,138.889 1478.32,155.926 1489.77,185.816 1501.22,212.568 1512.67,273.681 1524.12,314.861 1535.57,351.183 1547.02,426.502 1558.47,475.581 1569.92,535.495 1581.37,599.964 1592.82,654.152 1604.27,722.33 1615.72,821.086 1627.17,930.981 1638.62,1016.45 1650.07,1168.78 1661.52,1302.72 1672.97,1364.39 1684.42,1373.32 1695.87,1410.12 1707.32,1416.16 1718.77,1389.61 1730.22,1381.38 1741.67,1354.43 1753.12,1340.52 1764.57,1304.85 1776.02,1284.34 1787.47,1274.01 1798.92,1217.06 1810.37,1179.8 1821.82,1168.23 1833.27,1113.99 1844.72,1058.76 1856.17,1035.42 1867.62,1031.93 1879.07,1050.8 1890.52,1054.67 1901.97,1080.55 1913.42,1068.66 1924.87,1033.33 1936.32,964.565 1947.77,962.52 1959.22,962.817 1970.67,954.978 1982.12,944.814 1993.57,924.29 2005.02,872.002 2016.47,877.619 2027.92,904.863 2039.37,957.055 2050.82,980.722 2062.27,1013.19 2073.72,1068.99 2085.17,1135.89 2096.62,1134.68 2108.07,1088.24 2119.52,1042.73 2130.97,987.537 2142.42,962.016 2153.87,905.373 2165.32,830.249 2176.77,775.235 2188.22,733.045 2199.67,692.576 2211.12,652.7 2222.57,639.595 2234.02,662.129 2245.47,651.42 2256.92,686.576 2268.37,673.737 2279.82,630.164 2291.27,608.185 2302.72,585.734 2314.17,566.189 2325.62,543.251 "/>
<polyline clip-path="url(#clip053)" style="stroke:#e26f46; stroke-linecap:round; stroke-linejoin:round; stroke-width:4; stroke-opacity:1; fill:none" points="1421.07,93.669 1432.52,110.702 1443.97,157.196 1455.42,168.147 1466.87,143.478 1478.32,168.054 1489.77,195.643 1501.22,217.027 1512.67,275.742 1524.12,319.223 1535.57,355.038 1547.02,430.402 1558.47,475.572 1569.92,541.197 1581.37,597.479 1592.82,655.862 1604.27,719.392 1615.72,816.92 1627.17,936.171 1638.62,1016.47 1650.07,1171.56 1661.52,1306.54 1672.97,1372.65 1684.42,1386.42 1695.87,1424.69 1707.32,1430.25 1718.77,1403.48 1730.22,1378.48 1741.67,1354.99 1753.12,1338.25 1764.57,1295.99 1776.02,1283.38 1787.47,1276.62 1798.92,1212.2 1810.37,1180.89 1821.82,1171.92 1833.27,1112.11 1844.72,1050 1856.17,1033.25 1867.62,1034.41 1879.07,1049.26 1890.52,1054.41 1901.97,1076.21 1913.42,1067.83 1924.87,1041.13 1936.32,967.724 1947.77,963.755 1959.22,960.105 1970.67,959.042 1982.12,951.757 1993.57,928.438 2005.02,873.737 2016.47,884.602 2027.92,906.612 2039.37,954.449 2050.82,969.881 2062.27,1002.78 2073.72,1058.41 2085.17,1121.6 2096.62,1125.76 2108.07,1081.48 2119.52,1035.33 2130.97,976.817 2142.42,949.313 2153.87,889.064 2165.32,820.647 2176.77,774.66 2188.22,726.751 2199.67,686.132 2211.12,648.494 2222.57,639.423 2234.02,666.237 2245.47,650.421 2256.92,697.446 2268.37,674.075 2279.82,635.214 2291.27,619.295 2302.72,603.1 2314.17,563.641 2325.62,551.102 "/>
<polyline clip-path="url(#clip053)" style="stroke:#3da44d; stroke-linecap:round; stroke-linejoin:round; stroke-width:4; stroke-opacity:1; fill:none" points="1421.07,89.6632 1432.52,193.152 1443.97,164.816 1455.42,174.314 1466.87,167.017 1478.32,206.044 1489.77,225.742 1501.22,217.523 1512.67,245.09 1524.12,264.937 1535.57,363.4 1547.02,414.126 1558.47,323.182 1569.92,373.693 1581.37,554.984 1592.82,572.724 1604.27,628.92 1615.72,717.4 1627.17,821.903 1638.62,942.577 1650.07,1171.54 1661.52,1229.15 1672.97,1304.21 1684.42,1433.43 1695.87,1432.61 1707.32,1445.72 1718.77,1438.54 1730.22,1381.24 1741.67,1345.45 1753.12,1329.4 1764.57,1254.56 1776.02,1239.65 1787.47,1336.61 1798.92,1173.27 1810.37,1112.07 1821.82,1106.26 1833.27,1158.75 1844.72,1112.45 1856.17,1034.89 1867.62,1098.71 1879.07,1105.45 1890.52,1092.56 1901.97,1163.88 1913.42,1141.85 1924.87,1079.22 1936.32,979.048 1947.77,1021.14 1959.22,1034.2 1970.67,998.814 1982.12,1063.88 1993.57,1032.3 2005.02,937.96 2016.47,886.986 2027.92,914.772 2039.37,984.931 2050.82,993.169 2062.27,1049.14 2073.72,1055.89 2085.17,1096.51 2096.62,1055.17 2108.07,905.704 2119.52,910.882 2130.97,919.882 2142.42,880.599 2153.87,859.957 2165.32,820.991 2176.77,798.395 2188.22,792.358 2199.67,717.614 2211.12,700.562 2222.57,621.92 2234.02,689.266 2245.47,698.664 2256.92,714.225 2268.37,752.081 2279.82,633.98 2291.27,574.653 2302.72,479.92 2314.17,489.316 2325.62,538.948 "/>
<path clip-path="url(#clip050)" d="M1863.25 302.578 L2320.8 302.578 L2320.8 95.2176 L1863.25 95.2176  Z" fill="#ffffff" fill-rule="evenodd" fill-opacity="1"/>
<polyline clip-path="url(#clip050)" style="stroke:#000000; stroke-linecap:round; stroke-linejoin:round; stroke-width:4; stroke-opacity:1; fill:none" points="1863.25,302.578 2320.8,302.578 2320.8,95.2176 1863.25,95.2176 1863.25,302.578 "/>
<polyline clip-path="url(#clip050)" style="stroke:#009af9; stroke-linecap:round; stroke-linejoin:round; stroke-width:4; stroke-opacity:1; fill:none" points="1873.9,147.058 1937.82,147.058 "/>
<path clip-path="url(#clip050)" d="M1948.48 129.778 L1953.15 129.778 L1953.15 144.384 L1968.66 129.778 L1974.68 129.778 L1957.53 145.889 L1975.91 164.338 L1969.75 164.338 L1953.15 147.694 L1953.15 164.338 L1948.48 164.338 L1948.48 129.778 Z" fill="#000000" fill-rule="nonzero" fill-opacity="1" /><path clip-path="url(#clip050)" d="M1990.33 151.305 Q1985.17 151.305 1983.18 152.486 Q1981.19 153.666 1981.19 156.514 Q1981.19 158.782 1982.67 160.125 Q1984.17 161.444 1986.74 161.444 Q1990.28 161.444 1992.41 158.944 Q1994.56 156.421 1994.56 152.254 L1994.56 151.305 L1990.33 151.305 M1998.82 149.546 L1998.82 164.338 L1994.56 164.338 L1994.56 160.402 Q1993.11 162.763 1990.93 163.898 Q1988.75 165.009 1985.61 165.009 Q1981.62 165.009 1979.26 162.787 Q1976.93 160.541 1976.93 156.791 Q1976.93 152.416 1979.84 150.194 Q1982.78 147.972 1988.59 147.972 L1994.56 147.972 L1994.56 147.555 Q1994.56 144.615 1992.62 143.018 Q1990.7 141.398 1987.2 141.398 Q1984.98 141.398 1982.87 141.93 Q1980.77 142.463 1978.82 143.527 L1978.82 139.592 Q1981.16 138.69 1983.36 138.25 Q1985.56 137.787 1987.64 137.787 Q1993.27 137.787 1996.05 140.703 Q1998.82 143.62 1998.82 149.546 Z" fill="#000000" fill-rule="nonzero" fill-opacity="1" /><path clip-path="url(#clip050)" d="M2007.6 128.319 L2011.86 128.319 L2011.86 164.338 L2007.6 164.338 L2007.6 128.319 Z" fill="#000000" fill-rule="nonzero" fill-opacity="1" /><path clip-path="url(#clip050)" d="M2040.95 143.389 Q2042.55 140.518 2044.77 139.153 Q2046.99 137.787 2050 137.787 Q2054.06 137.787 2056.25 140.634 Q2058.45 143.458 2058.45 148.689 L2058.45 164.338 L2054.17 164.338 L2054.17 148.828 Q2054.17 145.102 2052.85 143.296 Q2051.53 141.49 2048.82 141.49 Q2045.51 141.49 2043.59 143.69 Q2041.67 145.889 2041.67 149.685 L2041.67 164.338 L2037.39 164.338 L2037.39 148.828 Q2037.39 145.078 2036.07 143.296 Q2034.75 141.49 2032 141.49 Q2028.73 141.49 2026.81 143.713 Q2024.89 145.912 2024.89 149.685 L2024.89 164.338 L2020.61 164.338 L2020.61 138.412 L2024.89 138.412 L2024.89 142.44 Q2026.35 140.055 2028.38 138.921 Q2030.42 137.787 2033.22 137.787 Q2036.05 137.787 2038.01 139.222 Q2040 140.657 2040.95 143.389 Z" fill="#000000" fill-rule="nonzero" fill-opacity="1" /><path clip-path="url(#clip050)" d="M2078.73 151.305 Q2073.57 151.305 2071.58 152.486 Q2069.59 153.666 2069.59 156.514 Q2069.59 158.782 2071.07 160.125 Q2072.57 161.444 2075.14 161.444 Q2078.68 161.444 2080.81 158.944 Q2082.97 156.421 2082.97 152.254 L2082.97 151.305 L2078.73 151.305 M2087.23 149.546 L2087.23 164.338 L2082.97 164.338 L2082.97 160.402 Q2081.51 162.763 2079.33 163.898 Q2077.16 165.009 2074.01 165.009 Q2070.03 165.009 2067.67 162.787 Q2065.33 160.541 2065.33 156.791 Q2065.33 152.416 2068.24 150.194 Q2071.18 147.972 2076.99 147.972 L2082.97 147.972 L2082.97 147.555 Q2082.97 144.615 2081.02 143.018 Q2079.1 141.398 2075.61 141.398 Q2073.38 141.398 2071.28 141.93 Q2069.17 142.463 2067.23 143.527 L2067.23 139.592 Q2069.56 138.69 2071.76 138.25 Q2073.96 137.787 2076.05 137.787 Q2081.67 137.787 2084.45 140.703 Q2087.23 143.62 2087.23 149.546 Z" fill="#000000" fill-rule="nonzero" fill-opacity="1" /><path clip-path="url(#clip050)" d="M2117.55 148.689 L2117.55 164.338 L2113.29 164.338 L2113.29 148.828 Q2113.29 145.148 2111.86 143.319 Q2110.42 141.49 2107.55 141.49 Q2104.1 141.49 2102.11 143.69 Q2100.12 145.889 2100.12 149.685 L2100.12 164.338 L2095.84 164.338 L2095.84 138.412 L2100.12 138.412 L2100.12 142.44 Q2101.65 140.102 2103.71 138.944 Q2105.79 137.787 2108.5 137.787 Q2112.97 137.787 2115.26 140.565 Q2117.55 143.319 2117.55 148.689 Z" fill="#000000" fill-rule="nonzero" fill-opacity="1" /><path clip-path="url(#clip050)" d="M2157.64 139.176 L2157.64 143.203 Q2155.84 142.277 2153.89 141.815 Q2151.95 141.352 2149.86 141.352 Q2146.69 141.352 2145.1 142.324 Q2143.52 143.296 2143.52 145.24 Q2143.52 146.722 2144.66 147.578 Q2145.79 148.412 2149.22 149.176 L2150.67 149.5 Q2155.21 150.472 2157.11 152.254 Q2159.03 154.014 2159.03 157.185 Q2159.03 160.796 2156.16 162.902 Q2153.31 165.009 2148.31 165.009 Q2146.23 165.009 2143.96 164.592 Q2141.72 164.199 2139.22 163.388 L2139.22 158.99 Q2141.58 160.217 2143.87 160.842 Q2146.16 161.444 2148.41 161.444 Q2151.42 161.444 2153.04 160.426 Q2154.66 159.384 2154.66 157.509 Q2154.66 155.773 2153.48 154.847 Q2152.32 153.921 2148.36 153.064 L2146.88 152.717 Q2142.92 151.884 2141.16 150.171 Q2139.4 148.435 2139.4 145.426 Q2139.4 141.768 2141.99 139.778 Q2144.59 137.787 2149.36 137.787 Q2151.72 137.787 2153.8 138.134 Q2155.88 138.481 2157.64 139.176 Z" fill="#000000" fill-rule="nonzero" fill-opacity="1" /><path clip-path="url(#clip050)" d="M2186 143.389 Q2187.6 140.518 2189.82 139.153 Q2192.04 137.787 2195.05 137.787 Q2199.1 137.787 2201.3 140.634 Q2203.5 143.458 2203.5 148.689 L2203.5 164.338 L2199.22 164.338 L2199.22 148.828 Q2199.22 145.102 2197.9 143.296 Q2196.58 141.49 2193.87 141.49 Q2190.56 141.49 2188.64 143.69 Q2186.72 145.889 2186.72 149.685 L2186.72 164.338 L2182.43 164.338 L2182.43 148.828 Q2182.43 145.078 2181.11 143.296 Q2179.8 141.49 2177.04 141.49 Q2173.78 141.49 2171.86 143.713 Q2169.93 145.912 2169.93 149.685 L2169.93 164.338 L2165.65 164.338 L2165.65 138.412 L2169.93 138.412 L2169.93 142.44 Q2171.39 140.055 2173.43 138.921 Q2175.47 137.787 2178.27 137.787 Q2181.09 137.787 2183.06 139.222 Q2185.05 140.657 2186 143.389 Z" fill="#000000" fill-rule="nonzero" fill-opacity="1" /><path clip-path="url(#clip050)" d="M2222.04 141.398 Q2218.61 141.398 2216.62 144.083 Q2214.63 146.745 2214.63 151.398 Q2214.63 156.051 2216.6 158.736 Q2218.59 161.398 2222.04 161.398 Q2225.44 161.398 2227.43 158.713 Q2229.42 156.027 2229.42 151.398 Q2229.42 146.791 2227.43 144.106 Q2225.44 141.398 2222.04 141.398 M2222.04 137.787 Q2227.6 137.787 2230.77 141.398 Q2233.94 145.009 2233.94 151.398 Q2233.94 157.764 2230.77 161.398 Q2227.6 165.009 2222.04 165.009 Q2216.46 165.009 2213.29 161.398 Q2210.14 157.764 2210.14 151.398 Q2210.14 145.009 2213.29 141.398 Q2216.46 137.787 2222.04 137.787 Z" fill="#000000" fill-rule="nonzero" fill-opacity="1" /><path clip-path="url(#clip050)" d="M2251.04 141.398 Q2247.62 141.398 2245.63 144.083 Q2243.64 146.745 2243.64 151.398 Q2243.64 156.051 2245.6 158.736 Q2247.6 161.398 2251.04 161.398 Q2254.45 161.398 2256.44 158.713 Q2258.43 156.027 2258.43 151.398 Q2258.43 146.791 2256.44 144.106 Q2254.45 141.398 2251.04 141.398 M2251.04 137.787 Q2256.6 137.787 2259.77 141.398 Q2262.94 145.009 2262.94 151.398 Q2262.94 157.764 2259.77 161.398 Q2256.6 165.009 2251.04 165.009 Q2245.47 165.009 2242.29 161.398 Q2239.15 157.764 2239.15 151.398 Q2239.15 145.009 2242.29 141.398 Q2245.47 137.787 2251.04 137.787 Z" fill="#000000" fill-rule="nonzero" fill-opacity="1" /><path clip-path="url(#clip050)" d="M2274.22 131.051 L2274.22 138.412 L2282.99 138.412 L2282.99 141.722 L2274.22 141.722 L2274.22 155.796 Q2274.22 158.967 2275.07 159.87 Q2275.95 160.773 2278.61 160.773 L2282.99 160.773 L2282.99 164.338 L2278.61 164.338 Q2273.68 164.338 2271.81 162.509 Q2269.93 160.657 2269.93 155.796 L2269.93 141.722 L2266.81 141.722 L2266.81 138.412 L2269.93 138.412 L2269.93 131.051 L2274.22 131.051 Z" fill="#000000" fill-rule="nonzero" fill-opacity="1" /><path clip-path="url(#clip050)" d="M2310.14 148.689 L2310.14 164.338 L2305.88 164.338 L2305.88 148.828 Q2305.88 145.148 2304.45 143.319 Q2303.01 141.49 2300.14 141.49 Q2296.69 141.49 2294.7 143.69 Q2292.71 145.889 2292.71 149.685 L2292.71 164.338 L2288.43 164.338 L2288.43 128.319 L2292.71 128.319 L2292.71 142.44 Q2294.24 140.102 2296.3 138.944 Q2298.38 137.787 2301.09 137.787 Q2305.56 137.787 2307.85 140.565 Q2310.14 143.319 2310.14 148.689 Z" fill="#000000" fill-rule="nonzero" fill-opacity="1" /><polyline clip-path="url(#clip050)" style="stroke:#e26f46; stroke-linecap:round; stroke-linejoin:round; stroke-width:4; stroke-opacity:1; fill:none" points="1873.9,198.898 1937.82,198.898 "/>
<path clip-path="url(#clip050)" d="M1952.76 212.289 L1952.76 226.039 L1948.48 226.039 L1948.48 190.252 L1952.76 190.252 L1952.76 194.187 Q1954.1 191.872 1956.14 190.761 Q1958.2 189.627 1961.05 189.627 Q1965.77 189.627 1968.71 193.377 Q1971.67 197.127 1971.67 203.238 Q1971.67 209.349 1968.71 213.099 Q1965.77 216.849 1961.05 216.849 Q1958.2 216.849 1956.14 215.738 Q1954.1 214.603 1952.76 212.289 M1967.25 203.238 Q1967.25 198.539 1965.31 195.877 Q1963.38 193.192 1960 193.192 Q1956.63 193.192 1954.68 195.877 Q1952.76 198.539 1952.76 203.238 Q1952.76 207.937 1954.68 210.622 Q1956.63 213.284 1960 213.284 Q1963.38 213.284 1965.31 210.622 Q1967.25 207.937 1967.25 203.238 Z" fill="#000000" fill-rule="nonzero" fill-opacity="1" /><path clip-path="url(#clip050)" d="M1991.86 180.159 L1991.86 183.701 L1987.78 183.701 Q1985.49 183.701 1984.59 184.627 Q1983.71 185.553 1983.71 187.96 L1983.71 190.252 L1990.72 190.252 L1990.72 193.562 L1983.71 193.562 L1983.71 216.178 L1979.43 216.178 L1979.43 193.562 L1975.35 193.562 L1975.35 190.252 L1979.43 190.252 L1979.43 188.446 Q1979.43 184.118 1981.44 182.15 Q1983.45 180.159 1987.83 180.159 L1991.86 180.159 Z" fill="#000000" fill-rule="nonzero" fill-opacity="1" /><path clip-path="url(#clip050)" d="M2027.02 191.016 L2027.02 195.043 Q2025.21 194.117 2023.27 193.655 Q2021.32 193.192 2019.24 193.192 Q2016.07 193.192 2014.47 194.164 Q2012.9 195.136 2012.9 197.08 Q2012.9 198.562 2014.03 199.418 Q2015.17 200.252 2018.59 201.016 L2020.05 201.34 Q2024.59 202.312 2026.49 204.094 Q2028.41 205.854 2028.41 209.025 Q2028.41 212.636 2025.54 214.742 Q2022.69 216.849 2017.69 216.849 Q2015.61 216.849 2013.34 216.432 Q2011.09 216.039 2008.59 215.228 L2008.59 210.83 Q2010.95 212.057 2013.25 212.682 Q2015.54 213.284 2017.78 213.284 Q2020.79 213.284 2022.41 212.266 Q2024.03 211.224 2024.03 209.349 Q2024.03 207.613 2022.85 206.687 Q2021.69 205.761 2017.74 204.904 L2016.25 204.557 Q2012.3 203.724 2010.54 202.011 Q2008.78 200.275 2008.78 197.266 Q2008.78 193.608 2011.37 191.618 Q2013.96 189.627 2018.73 189.627 Q2021.09 189.627 2023.18 189.974 Q2025.26 190.321 2027.02 191.016 Z" fill="#000000" fill-rule="nonzero" fill-opacity="1" /><path clip-path="url(#clip050)" d="M2055.37 195.229 Q2056.97 192.358 2059.19 190.993 Q2061.42 189.627 2064.43 189.627 Q2068.48 189.627 2070.68 192.474 Q2072.87 195.298 2072.87 200.529 L2072.87 216.178 L2068.59 216.178 L2068.59 200.668 Q2068.59 196.942 2067.27 195.136 Q2065.95 193.33 2063.24 193.33 Q2059.93 193.33 2058.01 195.53 Q2056.09 197.729 2056.09 201.525 L2056.09 216.178 L2051.81 216.178 L2051.81 200.668 Q2051.81 196.918 2050.49 195.136 Q2049.17 193.33 2046.42 193.33 Q2043.15 193.33 2041.23 195.553 Q2039.31 197.752 2039.31 201.525 L2039.31 216.178 L2035.03 216.178 L2035.03 190.252 L2039.31 190.252 L2039.31 194.28 Q2040.77 191.895 2042.81 190.761 Q2044.84 189.627 2047.64 189.627 Q2050.47 189.627 2052.43 191.062 Q2054.43 192.497 2055.37 195.229 Z" fill="#000000" fill-rule="nonzero" fill-opacity="1" /><path clip-path="url(#clip050)" d="M2091.42 193.238 Q2087.99 193.238 2086 195.923 Q2084.01 198.585 2084.01 203.238 Q2084.01 207.891 2085.98 210.576 Q2087.97 213.238 2091.42 213.238 Q2094.82 213.238 2096.81 210.553 Q2098.8 207.867 2098.8 203.238 Q2098.8 198.631 2096.81 195.946 Q2094.82 193.238 2091.42 193.238 M2091.42 189.627 Q2096.97 189.627 2100.14 193.238 Q2103.31 196.849 2103.31 203.238 Q2103.31 209.604 2100.14 213.238 Q2096.97 216.849 2091.42 216.849 Q2085.84 216.849 2082.67 213.238 Q2079.52 209.604 2079.52 203.238 Q2079.52 196.849 2082.67 193.238 Q2085.84 189.627 2091.42 189.627 Z" fill="#000000" fill-rule="nonzero" fill-opacity="1" /><path clip-path="url(#clip050)" d="M2120.42 193.238 Q2116.99 193.238 2115 195.923 Q2113.01 198.585 2113.01 203.238 Q2113.01 207.891 2114.98 210.576 Q2116.97 213.238 2120.42 213.238 Q2123.82 213.238 2125.81 210.553 Q2127.8 207.867 2127.8 203.238 Q2127.8 198.631 2125.81 195.946 Q2123.82 193.238 2120.42 193.238 M2120.42 189.627 Q2125.98 189.627 2129.15 193.238 Q2132.32 196.849 2132.32 203.238 Q2132.32 209.604 2129.15 213.238 Q2125.98 216.849 2120.42 216.849 Q2114.84 216.849 2111.67 213.238 Q2108.52 209.604 2108.52 203.238 Q2108.52 196.849 2111.67 193.238 Q2114.84 189.627 2120.42 189.627 Z" fill="#000000" fill-rule="nonzero" fill-opacity="1" /><path clip-path="url(#clip050)" d="M2143.59 182.891 L2143.59 190.252 L2152.36 190.252 L2152.36 193.562 L2143.59 193.562 L2143.59 207.636 Q2143.59 210.807 2144.45 211.71 Q2145.33 212.613 2147.99 212.613 L2152.36 212.613 L2152.36 216.178 L2147.99 216.178 Q2143.06 216.178 2141.18 214.349 Q2139.31 212.497 2139.31 207.636 L2139.31 193.562 L2136.18 193.562 L2136.18 190.252 L2139.31 190.252 L2139.31 182.891 L2143.59 182.891 Z" fill="#000000" fill-rule="nonzero" fill-opacity="1" /><path clip-path="url(#clip050)" d="M2179.52 200.529 L2179.52 216.178 L2175.26 216.178 L2175.26 200.668 Q2175.26 196.988 2173.82 195.159 Q2172.39 193.33 2169.52 193.33 Q2166.07 193.33 2164.08 195.53 Q2162.09 197.729 2162.09 201.525 L2162.09 216.178 L2157.8 216.178 L2157.8 180.159 L2162.09 180.159 L2162.09 194.28 Q2163.61 191.942 2165.67 190.784 Q2167.76 189.627 2170.47 189.627 Q2174.93 189.627 2177.23 192.405 Q2179.52 195.159 2179.52 200.529 Z" fill="#000000" fill-rule="nonzero" fill-opacity="1" /><polyline clip-path="url(#clip050)" style="stroke:#3da44d; stroke-linecap:round; stroke-linejoin:round; stroke-width:4; stroke-opacity:1; fill:none" points="1873.9,250.738 1937.82,250.738 "/>
<path clip-path="url(#clip050)" d="M1955.88 234.731 L1955.88 242.092 L1964.66 242.092 L1964.66 245.402 L1955.88 245.402 L1955.88 259.476 Q1955.88 262.647 1956.74 263.55 Q1957.62 264.453 1960.28 264.453 L1964.66 264.453 L1964.66 268.018 L1960.28 268.018 Q1955.35 268.018 1953.48 266.189 Q1951.6 264.337 1951.6 259.476 L1951.6 245.402 L1948.48 245.402 L1948.48 242.092 L1951.6 242.092 L1951.6 234.731 L1955.88 234.731 Z" fill="#000000" fill-rule="nonzero" fill-opacity="1" /><path clip-path="url(#clip050)" d="M1985.28 246.073 Q1984.56 245.657 1983.71 245.471 Q1982.87 245.263 1981.86 245.263 Q1978.25 245.263 1976.3 247.624 Q1974.38 249.962 1974.38 254.36 L1974.38 268.018 L1970.1 268.018 L1970.1 242.092 L1974.38 242.092 L1974.38 246.12 Q1975.72 243.758 1977.87 242.624 Q1980.03 241.467 1983.11 241.467 Q1983.55 241.467 1984.08 241.536 Q1984.61 241.583 1985.26 241.698 L1985.28 246.073 Z" fill="#000000" fill-rule="nonzero" fill-opacity="1" /><path clip-path="url(#clip050)" d="M1989.31 257.786 L1989.31 242.092 L1993.57 242.092 L1993.57 257.624 Q1993.57 261.305 1995 263.156 Q1996.44 264.985 1999.31 264.985 Q2002.76 264.985 2004.75 262.786 Q2006.76 260.587 2006.76 256.791 L2006.76 242.092 L2011.02 242.092 L2011.02 268.018 L2006.76 268.018 L2006.76 264.036 Q2005.21 266.397 2003.15 267.555 Q2001.12 268.689 1998.41 268.689 Q1993.94 268.689 1991.62 265.911 Q1989.31 263.133 1989.31 257.786 M2000.03 241.467 L2000.03 241.467 Z" fill="#000000" fill-rule="nonzero" fill-opacity="1" /><path clip-path="url(#clip050)" d="M2041.97 253.99 L2041.97 256.073 L2022.39 256.073 Q2022.67 260.471 2025.03 262.786 Q2027.41 265.078 2031.65 265.078 Q2034.1 265.078 2036.39 264.476 Q2038.71 263.874 2040.98 262.67 L2040.98 266.698 Q2038.68 267.67 2036.28 268.18 Q2033.87 268.689 2031.39 268.689 Q2025.19 268.689 2021.56 265.078 Q2017.94 261.467 2017.94 255.309 Q2017.94 248.944 2021.37 245.217 Q2024.82 241.467 2030.65 241.467 Q2035.88 241.467 2038.92 244.846 Q2041.97 248.203 2041.97 253.99 M2037.71 252.74 Q2037.67 249.245 2035.75 247.161 Q2033.85 245.078 2030.7 245.078 Q2027.13 245.078 2024.98 247.092 Q2022.85 249.106 2022.53 252.763 L2037.71 252.74 Z" fill="#000000" fill-rule="nonzero" fill-opacity="1" /></svg>
