<?xml version="1.0" encoding="utf-8"?>
<svg xmlns="http://www.w3.org/2000/svg" xmlns:xlink="http://www.w3.org/1999/xlink" width="600" height="400" viewBox="0 0 2400 1600">
<defs>
  <clipPath id="clip550">
    <rect x="0" y="0" width="2400" height="1600"/>
  </clipPath>
</defs>
<path clip-path="url(#clip550)" d="M0 1600 L2400 1600 L2400 0 L0 0  Z" fill="#ffffff" fill-rule="evenodd" fill-opacity="1"/>
<defs>
  <clipPath id="clip551">
    <rect x="1409" y="47" width="945" height="1440"/>
  </clipPath>
</defs>
<path clip-path="url(#clip550)" d="M193.936 1486.45 L1137.67 1486.45 L1137.67 47.2441 L193.936 47.2441  Z" fill="#ffffff" fill-rule="evenodd" fill-opacity="1"/>
<defs>
  <clipPath id="clip552">
    <rect x="193" y="47" width="945" height="1440"/>
  </clipPath>
</defs>
<polyline clip-path="url(#clip552)" style="stroke:#000000; stroke-linecap:round; stroke-linejoin:round; stroke-width:2; stroke-opacity:0.1; fill:none" points="209.376,1486.45 209.376,47.2441 "/>
<polyline clip-path="url(#clip552)" style="stroke:#000000; stroke-linecap:round; stroke-linejoin:round; stroke-width:2; stroke-opacity:0.1; fill:none" points="434.773,1486.45 434.773,47.2441 "/>
<polyline clip-path="url(#clip552)" style="stroke:#000000; stroke-linecap:round; stroke-linejoin:round; stroke-width:2; stroke-opacity:0.1; fill:none" points="660.171,1486.45 660.171,47.2441 "/>
<polyline clip-path="url(#clip552)" style="stroke:#000000; stroke-linecap:round; stroke-linejoin:round; stroke-width:2; stroke-opacity:0.1; fill:none" points="885.568,1486.45 885.568,47.2441 "/>
<polyline clip-path="url(#clip552)" style="stroke:#000000; stroke-linecap:round; stroke-linejoin:round; stroke-width:2; stroke-opacity:0.1; fill:none" points="1110.97,1486.45 1110.97,47.2441 "/>
<polyline clip-path="url(#clip552)" style="stroke:#000000; stroke-linecap:round; stroke-linejoin:round; stroke-width:2; stroke-opacity:0.1; fill:none" points="193.936,1465.77 1137.67,1465.77 "/>
<polyline clip-path="url(#clip552)" style="stroke:#000000; stroke-linecap:round; stroke-linejoin:round; stroke-width:2; stroke-opacity:0.1; fill:none" points="193.936,1108.29 1137.67,1108.29 "/>
<polyline clip-path="url(#clip552)" style="stroke:#000000; stroke-linecap:round; stroke-linejoin:round; stroke-width:2; stroke-opacity:0.1; fill:none" points="193.936,750.806 1137.67,750.806 "/>
<polyline clip-path="url(#clip552)" style="stroke:#000000; stroke-linecap:round; stroke-linejoin:round; stroke-width:2; stroke-opacity:0.1; fill:none" points="193.936,393.326 1137.67,393.326 "/>
<polyline clip-path="url(#clip550)" style="stroke:#000000; stroke-linecap:round; stroke-linejoin:round; stroke-width:4; stroke-opacity:1; fill:none" points="193.936,1486.45 1137.67,1486.45 "/>
<polyline clip-path="url(#clip550)" style="stroke:#000000; stroke-linecap:round; stroke-linejoin:round; stroke-width:4; stroke-opacity:1; fill:none" points="209.376,1486.45 209.376,1467.55 "/>
<polyline clip-path="url(#clip550)" style="stroke:#000000; stroke-linecap:round; stroke-linejoin:round; stroke-width:4; stroke-opacity:1; fill:none" points="434.773,1486.45 434.773,1467.55 "/>
<polyline clip-path="url(#clip550)" style="stroke:#000000; stroke-linecap:round; stroke-linejoin:round; stroke-width:4; stroke-opacity:1; fill:none" points="660.171,1486.45 660.171,1467.55 "/>
<polyline clip-path="url(#clip550)" style="stroke:#000000; stroke-linecap:round; stroke-linejoin:round; stroke-width:4; stroke-opacity:1; fill:none" points="885.568,1486.45 885.568,1467.55 "/>
<polyline clip-path="url(#clip550)" style="stroke:#000000; stroke-linecap:round; stroke-linejoin:round; stroke-width:4; stroke-opacity:1; fill:none" points="1110.97,1486.45 1110.97,1467.55 "/>
<path clip-path="url(#clip550)" d="M209.376 1517.37 Q205.765 1517.37 203.936 1520.93 Q202.13 1524.47 202.13 1531.6 Q202.13 1538.71 203.936 1542.27 Q205.765 1545.82 209.376 1545.82 Q213.01 1545.82 214.816 1542.27 Q216.644 1538.71 216.644 1531.6 Q216.644 1524.47 214.816 1520.93 Q213.01 1517.37 209.376 1517.37 M209.376 1513.66 Q215.186 1513.66 218.241 1518.27 Q221.32 1522.85 221.32 1531.6 Q221.32 1540.33 218.241 1544.94 Q215.186 1549.52 209.376 1549.52 Q203.566 1549.52 200.487 1544.94 Q197.431 1540.33 197.431 1531.6 Q197.431 1522.85 200.487 1518.27 Q203.566 1513.66 209.376 1513.66 Z" fill="#000000" fill-rule="nonzero" fill-opacity="1" /><path clip-path="url(#clip550)" d="M413.546 1544.91 L429.866 1544.91 L429.866 1548.85 L407.921 1548.85 L407.921 1544.91 Q410.583 1542.16 415.167 1537.53 Q419.773 1532.88 420.954 1531.53 Q423.199 1529.01 424.079 1527.27 Q424.982 1525.51 424.982 1523.82 Q424.982 1521.07 423.037 1519.33 Q421.116 1517.6 418.014 1517.6 Q415.815 1517.6 413.361 1518.36 Q410.931 1519.13 408.153 1520.68 L408.153 1515.95 Q410.977 1514.82 413.431 1514.24 Q415.884 1513.66 417.921 1513.66 Q423.292 1513.66 426.486 1516.35 Q429.681 1519.03 429.681 1523.52 Q429.681 1525.65 428.87 1527.57 Q428.083 1529.47 425.977 1532.07 Q425.398 1532.74 422.296 1535.95 Q419.195 1539.15 413.546 1544.91 Z" fill="#000000" fill-rule="nonzero" fill-opacity="1" /><path clip-path="url(#clip550)" d="M449.68 1517.37 Q446.069 1517.37 444.241 1520.93 Q442.435 1524.47 442.435 1531.6 Q442.435 1538.71 444.241 1542.27 Q446.069 1545.82 449.68 1545.82 Q453.315 1545.82 455.12 1542.27 Q456.949 1538.71 456.949 1531.6 Q456.949 1524.47 455.12 1520.93 Q453.315 1517.37 449.68 1517.37 M449.68 1513.66 Q455.491 1513.66 458.546 1518.27 Q461.625 1522.85 461.625 1531.6 Q461.625 1540.33 458.546 1544.94 Q455.491 1549.52 449.68 1549.52 Q443.87 1549.52 440.792 1544.94 Q437.736 1540.33 437.736 1531.6 Q437.736 1522.85 440.792 1518.27 Q443.87 1513.66 449.68 1513.66 Z" fill="#000000" fill-rule="nonzero" fill-opacity="1" /><path clip-path="url(#clip550)" d="M648.342 1518.36 L636.536 1536.81 L648.342 1536.81 L648.342 1518.36 M647.115 1514.29 L652.995 1514.29 L652.995 1536.81 L657.925 1536.81 L657.925 1540.7 L652.995 1540.7 L652.995 1548.85 L648.342 1548.85 L648.342 1540.7 L632.74 1540.7 L632.74 1536.19 L647.115 1514.29 Z" fill="#000000" fill-rule="nonzero" fill-opacity="1" /><path clip-path="url(#clip550)" d="M675.657 1517.37 Q672.045 1517.37 670.217 1520.93 Q668.411 1524.47 668.411 1531.6 Q668.411 1538.71 670.217 1542.27 Q672.045 1545.82 675.657 1545.82 Q679.291 1545.82 681.096 1542.27 Q682.925 1538.71 682.925 1531.6 Q682.925 1524.47 681.096 1520.93 Q679.291 1517.37 675.657 1517.37 M675.657 1513.66 Q681.467 1513.66 684.522 1518.27 Q687.601 1522.85 687.601 1531.6 Q687.601 1540.33 684.522 1544.94 Q681.467 1549.52 675.657 1549.52 Q669.846 1549.52 666.768 1544.94 Q663.712 1540.33 663.712 1531.6 Q663.712 1522.85 666.768 1518.27 Q669.846 1513.66 675.657 1513.66 Z" fill="#000000" fill-rule="nonzero" fill-opacity="1" /><path clip-path="url(#clip550)" d="M870.973 1529.7 Q867.825 1529.7 865.973 1531.86 Q864.144 1534.01 864.144 1537.76 Q864.144 1541.49 865.973 1543.66 Q867.825 1545.82 870.973 1545.82 Q874.121 1545.82 875.95 1543.66 Q877.802 1541.49 877.802 1537.76 Q877.802 1534.01 875.95 1531.86 Q874.121 1529.7 870.973 1529.7 M880.255 1515.05 L880.255 1519.31 Q878.496 1518.48 876.691 1518.04 Q874.908 1517.6 873.149 1517.6 Q868.519 1517.6 866.066 1520.72 Q863.635 1523.85 863.288 1530.17 Q864.654 1528.15 866.714 1527.09 Q868.774 1526 871.251 1526 Q876.459 1526 879.468 1529.17 Q882.501 1532.32 882.501 1537.76 Q882.501 1543.08 879.353 1546.3 Q876.205 1549.52 870.973 1549.52 Q864.978 1549.52 861.807 1544.94 Q858.635 1540.33 858.635 1531.6 Q858.635 1523.41 862.524 1518.55 Q866.413 1513.66 872.964 1513.66 Q874.723 1513.66 876.506 1514.01 Q878.311 1514.36 880.255 1515.05 Z" fill="#000000" fill-rule="nonzero" fill-opacity="1" /><path clip-path="url(#clip550)" d="M900.556 1517.37 Q896.945 1517.37 895.117 1520.93 Q893.311 1524.47 893.311 1531.6 Q893.311 1538.71 895.117 1542.27 Q896.945 1545.82 900.556 1545.82 Q904.191 1545.82 905.996 1542.27 Q907.825 1538.71 907.825 1531.6 Q907.825 1524.47 905.996 1520.93 Q904.191 1517.37 900.556 1517.37 M900.556 1513.66 Q906.366 1513.66 909.422 1518.27 Q912.501 1522.85 912.501 1531.6 Q912.501 1540.33 909.422 1544.94 Q906.366 1549.52 900.556 1549.52 Q894.746 1549.52 891.667 1544.94 Q888.612 1540.33 888.612 1531.6 Q888.612 1522.85 891.667 1518.27 Q894.746 1513.66 900.556 1513.66 Z" fill="#000000" fill-rule="nonzero" fill-opacity="1" /><path clip-path="url(#clip550)" d="M1095.84 1532.44 Q1092.5 1532.44 1090.58 1534.22 Q1088.69 1536 1088.69 1539.13 Q1088.69 1542.25 1090.58 1544.03 Q1092.5 1545.82 1095.84 1545.82 Q1099.17 1545.82 1101.09 1544.03 Q1103.01 1542.23 1103.01 1539.13 Q1103.01 1536 1101.09 1534.22 Q1099.19 1532.44 1095.84 1532.44 M1091.16 1530.45 Q1088.15 1529.7 1086.46 1527.64 Q1084.8 1525.58 1084.8 1522.62 Q1084.8 1518.48 1087.74 1516.07 Q1090.7 1513.66 1095.84 1513.66 Q1101 1513.66 1103.94 1516.07 Q1106.88 1518.48 1106.88 1522.62 Q1106.88 1525.58 1105.19 1527.64 Q1103.52 1529.7 1100.54 1530.45 Q1103.92 1531.23 1105.79 1533.52 Q1107.69 1535.82 1107.69 1539.13 Q1107.69 1544.15 1104.61 1546.83 Q1101.56 1549.52 1095.84 1549.52 Q1090.12 1549.52 1087.04 1546.83 Q1083.99 1544.15 1083.99 1539.13 Q1083.99 1535.82 1085.88 1533.52 Q1087.78 1531.23 1091.16 1530.45 M1089.45 1523.06 Q1089.45 1525.75 1091.12 1527.25 Q1092.81 1528.76 1095.84 1528.76 Q1098.85 1528.76 1100.54 1527.25 Q1102.25 1525.75 1102.25 1523.06 Q1102.25 1520.38 1100.54 1518.87 Q1098.85 1517.37 1095.84 1517.37 Q1092.81 1517.37 1091.12 1518.87 Q1089.45 1520.38 1089.45 1523.06 Z" fill="#000000" fill-rule="nonzero" fill-opacity="1" /><path clip-path="url(#clip550)" d="M1126 1517.37 Q1122.39 1517.37 1120.56 1520.93 Q1118.75 1524.47 1118.75 1531.6 Q1118.75 1538.71 1120.56 1542.27 Q1122.39 1545.82 1126 1545.82 Q1129.63 1545.82 1131.44 1542.27 Q1133.27 1538.71 1133.27 1531.6 Q1133.27 1524.47 1131.44 1520.93 Q1129.63 1517.37 1126 1517.37 M1126 1513.66 Q1131.81 1513.66 1134.87 1518.27 Q1137.94 1522.85 1137.94 1531.6 Q1137.94 1540.33 1134.87 1544.94 Q1131.81 1549.52 1126 1549.52 Q1120.19 1549.52 1117.11 1544.94 Q1114.06 1540.33 1114.06 1531.6 Q1114.06 1522.85 1117.11 1518.27 Q1120.19 1513.66 1126 1513.66 Z" fill="#000000" fill-rule="nonzero" fill-opacity="1" /><polyline clip-path="url(#clip550)" style="stroke:#000000; stroke-linecap:round; stroke-linejoin:round; stroke-width:4; stroke-opacity:1; fill:none" points="193.936,1486.45 193.936,47.2441 "/>
<polyline clip-path="url(#clip550)" style="stroke:#000000; stroke-linecap:round; stroke-linejoin:round; stroke-width:4; stroke-opacity:1; fill:none" points="193.936,1465.77 212.834,1465.77 "/>
<polyline clip-path="url(#clip550)" style="stroke:#000000; stroke-linecap:round; stroke-linejoin:round; stroke-width:4; stroke-opacity:1; fill:none" points="193.936,1108.29 212.834,1108.29 "/>
<polyline clip-path="url(#clip550)" style="stroke:#000000; stroke-linecap:round; stroke-linejoin:round; stroke-width:4; stroke-opacity:1; fill:none" points="193.936,750.806 212.834,750.806 "/>
<polyline clip-path="url(#clip550)" style="stroke:#000000; stroke-linecap:round; stroke-linejoin:round; stroke-width:4; stroke-opacity:1; fill:none" points="193.936,393.326 212.834,393.326 "/>
<path clip-path="url(#clip550)" d="M50.9921 1466.22 L80.6679 1466.22 L80.6679 1470.15 L50.9921 1470.15 L50.9921 1466.22 Z" fill="#000000" fill-rule="nonzero" fill-opacity="1" /><path clip-path="url(#clip550)" d="M91.5706 1479.11 L99.2095 1479.11 L99.2095 1452.74 L90.8993 1454.41 L90.8993 1450.15 L99.1632 1448.49 L103.839 1448.49 L103.839 1479.11 L111.478 1479.11 L111.478 1483.05 L91.5706 1483.05 L91.5706 1479.11 Z" fill="#000000" fill-rule="nonzero" fill-opacity="1" /><path clip-path="url(#clip550)" d="M120.922 1477.17 L125.807 1477.17 L125.807 1483.05 L120.922 1483.05 L120.922 1477.17 Z" fill="#000000" fill-rule="nonzero" fill-opacity="1" /><path clip-path="url(#clip550)" d="M145.992 1451.56 Q142.381 1451.56 140.552 1455.13 Q138.746 1458.67 138.746 1465.8 Q138.746 1472.91 140.552 1476.47 Q142.381 1480.01 145.992 1480.01 Q149.626 1480.01 151.431 1476.47 Q153.26 1472.91 153.26 1465.8 Q153.26 1458.67 151.431 1455.13 Q149.626 1451.56 145.992 1451.56 M145.992 1447.86 Q151.802 1447.86 154.857 1452.47 Q157.936 1457.05 157.936 1465.8 Q157.936 1474.53 154.857 1479.13 Q151.802 1483.72 145.992 1483.72 Q140.181 1483.72 137.103 1479.13 Q134.047 1474.53 134.047 1465.8 Q134.047 1457.05 137.103 1452.47 Q140.181 1447.86 145.992 1447.86 Z" fill="#000000" fill-rule="nonzero" fill-opacity="1" /><path clip-path="url(#clip550)" d="M51.9875 1108.74 L81.6633 1108.74 L81.6633 1112.67 L51.9875 1112.67 L51.9875 1108.74 Z" fill="#000000" fill-rule="nonzero" fill-opacity="1" /><path clip-path="url(#clip550)" d="M101.756 1094.08 Q98.1447 1094.08 96.316 1097.65 Q94.5104 1101.19 94.5104 1108.32 Q94.5104 1115.43 96.316 1118.99 Q98.1447 1122.53 101.756 1122.53 Q105.39 1122.53 107.196 1118.99 Q109.024 1115.43 109.024 1108.32 Q109.024 1101.19 107.196 1097.65 Q105.39 1094.08 101.756 1094.08 M101.756 1090.38 Q107.566 1090.38 110.621 1094.99 Q113.7 1099.57 113.7 1108.32 Q113.7 1117.05 110.621 1121.65 Q107.566 1126.24 101.756 1126.24 Q95.9456 1126.24 92.8669 1121.65 Q89.8114 1117.05 89.8114 1108.32 Q89.8114 1099.57 92.8669 1094.99 Q95.9456 1090.38 101.756 1090.38 Z" fill="#000000" fill-rule="nonzero" fill-opacity="1" /><path clip-path="url(#clip550)" d="M121.918 1119.69 L126.802 1119.69 L126.802 1125.57 L121.918 1125.57 L121.918 1119.69 Z" fill="#000000" fill-rule="nonzero" fill-opacity="1" /><path clip-path="url(#clip550)" d="M137.033 1091.01 L155.39 1091.01 L155.39 1094.94 L141.316 1094.94 L141.316 1103.41 Q142.334 1103.07 143.353 1102.9 Q144.371 1102.72 145.39 1102.72 Q151.177 1102.72 154.556 1105.89 Q157.936 1109.06 157.936 1114.48 Q157.936 1120.06 154.464 1123.16 Q150.992 1126.24 144.672 1126.24 Q142.496 1126.24 140.228 1125.87 Q137.982 1125.5 135.575 1124.76 L135.575 1120.06 Q137.658 1121.19 139.881 1121.75 Q142.103 1122.3 144.58 1122.3 Q148.584 1122.3 150.922 1120.2 Q153.26 1118.09 153.26 1114.48 Q153.26 1110.87 150.922 1108.76 Q148.584 1106.65 144.58 1106.65 Q142.705 1106.65 140.83 1107.07 Q138.978 1107.49 137.033 1108.37 L137.033 1091.01 Z" fill="#000000" fill-rule="nonzero" fill-opacity="1" /><path clip-path="url(#clip550)" d="M100.76 736.605 Q97.1493 736.605 95.3206 740.169 Q93.515 743.711 93.515 750.841 Q93.515 757.947 95.3206 761.512 Q97.1493 765.053 100.76 765.053 Q104.395 765.053 106.2 761.512 Q108.029 757.947 108.029 750.841 Q108.029 743.711 106.2 740.169 Q104.395 736.605 100.76 736.605 M100.76 732.901 Q106.571 732.901 109.626 737.507 Q112.705 742.091 112.705 750.841 Q112.705 759.567 109.626 764.174 Q106.571 768.757 100.76 768.757 Q94.9502 768.757 91.8715 764.174 Q88.816 759.567 88.816 750.841 Q88.816 742.091 91.8715 737.507 Q94.9502 732.901 100.76 732.901 Z" fill="#000000" fill-rule="nonzero" fill-opacity="1" /><path clip-path="url(#clip550)" d="M120.922 762.206 L125.807 762.206 L125.807 768.086 L120.922 768.086 L120.922 762.206 Z" fill="#000000" fill-rule="nonzero" fill-opacity="1" /><path clip-path="url(#clip550)" d="M145.992 736.605 Q142.381 736.605 140.552 740.169 Q138.746 743.711 138.746 750.841 Q138.746 757.947 140.552 761.512 Q142.381 765.053 145.992 765.053 Q149.626 765.053 151.431 761.512 Q153.26 757.947 153.26 750.841 Q153.26 743.711 151.431 740.169 Q149.626 736.605 145.992 736.605 M145.992 732.901 Q151.802 732.901 154.857 737.507 Q157.936 742.091 157.936 750.841 Q157.936 759.567 154.857 764.174 Q151.802 768.757 145.992 768.757 Q140.181 768.757 137.103 764.174 Q134.047 759.567 134.047 750.841 Q134.047 742.091 137.103 737.507 Q140.181 732.901 145.992 732.901 Z" fill="#000000" fill-rule="nonzero" fill-opacity="1" /><path clip-path="url(#clip550)" d="M101.756 379.125 Q98.1447 379.125 96.316 382.689 Q94.5104 386.231 94.5104 393.361 Q94.5104 400.467 96.316 404.032 Q98.1447 407.574 101.756 407.574 Q105.39 407.574 107.196 404.032 Q109.024 400.467 109.024 393.361 Q109.024 386.231 107.196 382.689 Q105.39 379.125 101.756 379.125 M101.756 375.421 Q107.566 375.421 110.621 380.027 Q113.7 384.611 113.7 393.361 Q113.7 402.088 110.621 406.694 Q107.566 411.277 101.756 411.277 Q95.9456 411.277 92.8669 406.694 Q89.8114 402.088 89.8114 393.361 Q89.8114 384.611 92.8669 380.027 Q95.9456 375.421 101.756 375.421 Z" fill="#000000" fill-rule="nonzero" fill-opacity="1" /><path clip-path="url(#clip550)" d="M121.918 404.726 L126.802 404.726 L126.802 410.606 L121.918 410.606 L121.918 404.726 Z" fill="#000000" fill-rule="nonzero" fill-opacity="1" /><path clip-path="url(#clip550)" d="M137.033 376.046 L155.39 376.046 L155.39 379.981 L141.316 379.981 L141.316 388.453 Q142.334 388.106 143.353 387.944 Q144.371 387.759 145.39 387.759 Q151.177 387.759 154.556 390.93 Q157.936 394.101 157.936 399.518 Q157.936 405.097 154.464 408.199 Q150.992 411.277 144.672 411.277 Q142.496 411.277 140.228 410.907 Q137.982 410.537 135.575 409.796 L135.575 405.097 Q137.658 406.231 139.881 406.787 Q142.103 407.342 144.58 407.342 Q148.584 407.342 150.922 405.236 Q153.26 403.129 153.26 399.518 Q153.26 395.907 150.922 393.801 Q148.584 391.694 144.58 391.694 Q142.705 391.694 140.83 392.111 Q138.978 392.527 137.033 393.407 L137.033 376.046 Z" fill="#000000" fill-rule="nonzero" fill-opacity="1" /><polyline clip-path="url(#clip552)" style="stroke:#009af9; stroke-linecap:round; stroke-linejoin:round; stroke-width:4; stroke-opacity:1; fill:none" points="220.646,801.145 231.915,894.653 243.185,778.744 254.455,667.085 265.725,633.981 276.995,621.564 288.265,615.089 299.535,552.808 310.805,614.476 322.074,531.131 333.344,520.736 344.614,553.231 355.884,467.411 367.154,502.764 378.424,407.611 389.694,392.132 400.964,298.876 412.233,254.612 423.503,113.909 434.773,168.438 446.043,282.011 457.313,374.081 468.583,311.089 479.853,349.851 491.122,366.853 502.392,490.365 513.662,461.746 524.932,459.828 536.202,490.447 547.472,600.809 558.742,604.438 570.012,730.096 581.281,794.345 592.551,995.334 603.821,927.734 615.091,1023.76 626.361,1072.66 637.631,1107.84 648.901,1071.4 660.171,1088.74 671.44,1125.96 682.71,1033.89 693.98,963.735 705.25,981.087 716.52,1114.17 727.79,1177.12 739.06,1186.35 750.33,1154.29 761.599,1155.52 772.869,1077.49 784.139,945.104 795.409,827.667 806.679,746.088 817.949,715.422 829.219,720.827 840.488,720.803 851.758,774.376 863.028,734.009 874.298,630.978 885.568,520.173 896.838,505.193 908.108,451.726 919.378,463.069 930.647,575.62 941.917,739.669 953.187,710.79 964.457,759.038 975.727,742.159 986.997,753.974 998.267,797.086 1009.54,846.328 1020.81,876.02 1032.08,720.91 1043.35,700.708 1054.62,757.007 1065.89,728.743 1077.16,486.993 1088.43,514.516 1099.7,627.946 1110.97,594.531 "/>
<polyline clip-path="url(#clip552)" style="stroke:#e26f46; stroke-linecap:round; stroke-linejoin:round; stroke-width:4; stroke-opacity:1; fill:none" points="220.646,781.252 231.915,861.904 243.185,741.85 254.455,636.45 265.725,601.047 276.995,597.744 288.265,599.905 299.535,533.78 310.805,611.641 322.074,526.538 333.344,513.067 344.614,540.339 355.884,461.077 367.154,500.855 378.424,401.963 389.694,384.47 400.964,293.646 412.233,239.504 423.503,87.9763 434.773,149.347 446.043,262.166 457.313,343.553 468.583,275.365 479.853,324.207 491.122,349.581 502.392,475.675 513.662,441.363 524.932,445.457 536.202,464.339 547.472,569.867 558.742,577.876 570.012,705.394 581.281,784.598 592.551,993.39 603.821,926.103 615.091,1024.05 626.361,1074.45 637.631,1107.88 648.901,1069.8 660.171,1091.35 671.44,1124.69 682.71,1033.71 693.98,961.654 705.25,982.019 716.52,1124.87 727.79,1177.96 739.06,1171.54 750.33,1135.5 761.599,1134.66 772.869,1061.07 784.139,933.698 795.409,815.486 806.679,732.436 817.949,701.56 829.219,703.328 840.488,698.973 851.758,740.806 863.028,680.588 874.298,575.083 885.568,462.432 896.838,447.072 908.108,398.845 919.378,400.079 930.647,521.451 941.917,687.643 953.187,662.986 964.457,711.774 975.727,711.855 986.997,726.919 998.267,763.102 1009.54,814.214 1020.81,859.754 1032.08,711.34 1043.35,690.404 1054.62,740.983 1065.89,701.69 1077.16,466.64 1088.43,498.697 1099.7,612.092 1110.97,587.843 "/>
<polyline clip-path="url(#clip552)" style="stroke:#3da44d; stroke-linecap:round; stroke-linejoin:round; stroke-width:4; stroke-opacity:1; fill:none" points="220.646,615.015 231.915,836.08 243.185,560.575 254.455,537.283 265.725,579.295 276.995,566.175 288.265,590.84 299.535,557.068 310.805,602.359 322.074,569.38 333.344,476.641 344.614,463.86 355.884,411.207 367.154,419.328 378.424,392.095 389.694,477.009 400.964,431.818 412.233,391.594 423.503,246.003 434.773,336.295 446.043,417.26 457.313,528.278 468.583,469.197 479.853,536.506 491.122,628.392 502.392,739.355 513.662,742.051 524.932,660.86 536.202,754.153 547.472,751.48 558.742,705.914 570.012,787.075 581.281,928.799 592.551,1111.82 603.821,971.843 615.091,1078.59 626.361,1118.75 637.631,1053.99 648.901,974.949 660.171,1123.27 671.44,1205.24 682.71,1065.01 693.98,1034.25 705.25,1038.16 716.52,1189.12 727.79,1377.29 739.06,1445.72 750.33,1297.54 761.599,1305.48 772.869,1198.32 784.139,1051.74 795.409,1013.48 806.679,1068.22 817.949,964.985 829.219,951.025 840.488,859.912 851.758,859.012 863.028,761.853 874.298,610.75 885.568,467.938 896.838,600.608 908.108,435.109 919.378,334.72 930.647,394.446 941.917,616.022 953.187,568.407 964.457,593.339 975.727,624.448 986.997,506.865 998.267,580.377 1009.54,721.108 1020.81,790.715 1032.08,508.316 1043.35,507.183 1054.62,647.113 1065.89,656.68 1077.16,613.183 1088.43,643.629 1099.7,752.733 1110.97,670.076 "/>
<path clip-path="url(#clip550)" d="M650.178 1438.47 L1106.22 1438.47 L1106.22 1231.11 L650.178 1231.11  Z" fill="#ffffff" fill-rule="evenodd" fill-opacity="1"/>
<polyline clip-path="url(#clip550)" style="stroke:#000000; stroke-linecap:round; stroke-linejoin:round; stroke-width:4; stroke-opacity:1; fill:none" points="650.178,1438.47 1106.22,1438.47 1106.22,1231.11 650.178,1231.11 650.178,1438.47 "/>
<polyline clip-path="url(#clip550)" style="stroke:#009af9; stroke-linecap:round; stroke-linejoin:round; stroke-width:4; stroke-opacity:1; fill:none" points="660.664,1282.95 723.58,1282.95 "/>
<path clip-path="url(#clip550)" d="M734.066 1265.67 L738.742 1265.67 L738.742 1280.28 L754.251 1265.67 L760.27 1265.67 L743.117 1281.79 L761.497 1300.23 L755.339 1300.23 L738.742 1283.59 L738.742 1300.23 L734.066 1300.23 L734.066 1265.67 Z" fill="#000000" fill-rule="nonzero" fill-opacity="1" /><path clip-path="url(#clip550)" d="M775.918 1287.2 Q770.756 1287.2 768.765 1288.38 Q766.774 1289.56 766.774 1292.41 Q766.774 1294.68 768.256 1296.02 Q769.761 1297.34 772.33 1297.34 Q775.872 1297.34 778.001 1294.84 Q780.154 1292.32 780.154 1288.15 L780.154 1287.2 L775.918 1287.2 M784.413 1285.44 L784.413 1300.23 L780.154 1300.23 L780.154 1296.3 Q778.696 1298.66 776.52 1299.79 Q774.344 1300.91 771.196 1300.91 Q767.214 1300.91 764.853 1298.68 Q762.515 1296.44 762.515 1292.69 Q762.515 1288.31 765.432 1286.09 Q768.372 1283.87 774.182 1283.87 L780.154 1283.87 L780.154 1283.45 Q780.154 1280.51 778.21 1278.92 Q776.288 1277.29 772.793 1277.29 Q770.571 1277.29 768.464 1277.83 Q766.358 1278.36 764.413 1279.42 L764.413 1275.49 Q766.751 1274.59 768.95 1274.15 Q771.149 1273.68 773.233 1273.68 Q778.858 1273.68 781.635 1276.6 Q784.413 1279.52 784.413 1285.44 Z" fill="#000000" fill-rule="nonzero" fill-opacity="1" /><path clip-path="url(#clip550)" d="M793.186 1264.22 L797.446 1264.22 L797.446 1300.23 L793.186 1300.23 L793.186 1264.22 Z" fill="#000000" fill-rule="nonzero" fill-opacity="1" /><path clip-path="url(#clip550)" d="M826.543 1279.29 Q828.14 1276.42 830.362 1275.05 Q832.584 1273.68 835.594 1273.68 Q839.644 1273.68 841.843 1276.53 Q844.043 1279.35 844.043 1284.59 L844.043 1300.23 L839.76 1300.23 L839.76 1284.73 Q839.76 1281 838.441 1279.19 Q837.121 1277.39 834.413 1277.39 Q831.103 1277.39 829.182 1279.59 Q827.26 1281.79 827.26 1285.58 L827.26 1300.23 L822.978 1300.23 L822.978 1284.73 Q822.978 1280.98 821.658 1279.19 Q820.339 1277.39 817.584 1277.39 Q814.32 1277.39 812.399 1279.61 Q810.478 1281.81 810.478 1285.58 L810.478 1300.23 L806.196 1300.23 L806.196 1274.31 L810.478 1274.31 L810.478 1278.34 Q811.936 1275.95 813.973 1274.82 Q816.01 1273.68 818.811 1273.68 Q821.635 1273.68 823.603 1275.12 Q825.594 1276.55 826.543 1279.29 Z" fill="#000000" fill-rule="nonzero" fill-opacity="1" /><path clip-path="url(#clip550)" d="M864.32 1287.2 Q859.158 1287.2 857.167 1288.38 Q855.177 1289.56 855.177 1292.41 Q855.177 1294.68 856.658 1296.02 Q858.163 1297.34 860.732 1297.34 Q864.274 1297.34 866.404 1294.84 Q868.556 1292.32 868.556 1288.15 L868.556 1287.2 L864.32 1287.2 M872.816 1285.44 L872.816 1300.23 L868.556 1300.23 L868.556 1296.3 Q867.098 1298.66 864.922 1299.79 Q862.746 1300.91 859.598 1300.91 Q855.617 1300.91 853.255 1298.68 Q850.918 1296.44 850.918 1292.69 Q850.918 1288.31 853.834 1286.09 Q856.774 1283.87 862.584 1283.87 L868.556 1283.87 L868.556 1283.45 Q868.556 1280.51 866.612 1278.92 Q864.691 1277.29 861.195 1277.29 Q858.973 1277.29 856.867 1277.83 Q854.76 1278.36 852.816 1279.42 L852.816 1275.49 Q855.154 1274.59 857.353 1274.15 Q859.552 1273.68 861.635 1273.68 Q867.26 1273.68 870.038 1276.6 Q872.816 1279.52 872.816 1285.44 Z" fill="#000000" fill-rule="nonzero" fill-opacity="1" /><path clip-path="url(#clip550)" d="M903.139 1284.59 L903.139 1300.23 L898.88 1300.23 L898.88 1284.73 Q898.88 1281.04 897.445 1279.22 Q896.01 1277.39 893.14 1277.39 Q889.69 1277.39 887.7 1279.59 Q885.709 1281.79 885.709 1285.58 L885.709 1300.23 L881.427 1300.23 L881.427 1274.31 L885.709 1274.31 L885.709 1278.34 Q887.237 1276 889.297 1274.84 Q891.38 1273.68 894.089 1273.68 Q898.556 1273.68 900.848 1276.46 Q903.139 1279.22 903.139 1284.59 Z" fill="#000000" fill-rule="nonzero" fill-opacity="1" /><path clip-path="url(#clip550)" d="M943.232 1275.07 L943.232 1279.1 Q941.426 1278.17 939.482 1277.71 Q937.537 1277.25 935.454 1277.25 Q932.283 1277.25 930.686 1278.22 Q929.112 1279.19 929.112 1281.14 Q929.112 1282.62 930.246 1283.48 Q931.38 1284.31 934.806 1285.07 L936.264 1285.4 Q940.801 1286.37 942.699 1288.15 Q944.621 1289.91 944.621 1293.08 Q944.621 1296.69 941.75 1298.8 Q938.903 1300.91 933.903 1300.91 Q931.82 1300.91 929.551 1300.49 Q927.306 1300.1 924.806 1299.29 L924.806 1294.89 Q927.167 1296.11 929.459 1296.74 Q931.75 1297.34 933.996 1297.34 Q937.005 1297.34 938.625 1296.32 Q940.246 1295.28 940.246 1293.41 Q940.246 1291.67 939.065 1290.74 Q937.908 1289.82 933.949 1288.96 L932.468 1288.61 Q928.51 1287.78 926.75 1286.07 Q924.991 1284.33 924.991 1281.32 Q924.991 1277.67 927.584 1275.67 Q930.176 1273.68 934.945 1273.68 Q937.306 1273.68 939.389 1274.03 Q941.473 1274.38 943.232 1275.07 Z" fill="#000000" fill-rule="nonzero" fill-opacity="1" /><path clip-path="url(#clip550)" d="M971.588 1279.29 Q973.185 1276.42 975.408 1275.05 Q977.63 1273.68 980.639 1273.68 Q984.69 1273.68 986.889 1276.53 Q989.088 1279.35 989.088 1284.59 L989.088 1300.23 L984.806 1300.23 L984.806 1284.73 Q984.806 1281 983.486 1279.19 Q982.167 1277.39 979.458 1277.39 Q976.148 1277.39 974.227 1279.59 Q972.306 1281.79 972.306 1285.58 L972.306 1300.23 L968.023 1300.23 L968.023 1284.73 Q968.023 1280.98 966.704 1279.19 Q965.384 1277.39 962.63 1277.39 Q959.366 1277.39 957.445 1279.61 Q955.523 1281.81 955.523 1285.58 L955.523 1300.23 L951.241 1300.23 L951.241 1274.31 L955.523 1274.31 L955.523 1278.34 Q956.982 1275.95 959.019 1274.82 Q961.056 1273.68 963.857 1273.68 Q966.681 1273.68 968.648 1275.12 Q970.639 1276.55 971.588 1279.29 Z" fill="#000000" fill-rule="nonzero" fill-opacity="1" /><path clip-path="url(#clip550)" d="M1007.63 1277.29 Q1004.2 1277.29 1002.21 1279.98 Q1000.22 1282.64 1000.22 1287.29 Q1000.22 1291.95 1002.19 1294.63 Q1004.18 1297.29 1007.63 1297.29 Q1011.03 1297.29 1013.02 1294.61 Q1015.01 1291.92 1015.01 1287.29 Q1015.01 1282.69 1013.02 1280 Q1011.03 1277.29 1007.63 1277.29 M1007.63 1273.68 Q1013.19 1273.68 1016.36 1277.29 Q1019.53 1280.91 1019.53 1287.29 Q1019.53 1293.66 1016.36 1297.29 Q1013.19 1300.91 1007.63 1300.91 Q1002.05 1300.91 998.88 1297.29 Q995.732 1293.66 995.732 1287.29 Q995.732 1280.91 998.88 1277.29 Q1002.05 1273.68 1007.63 1273.68 Z" fill="#000000" fill-rule="nonzero" fill-opacity="1" /><path clip-path="url(#clip550)" d="M1036.63 1277.29 Q1033.21 1277.29 1031.22 1279.98 Q1029.23 1282.64 1029.23 1287.29 Q1029.23 1291.95 1031.19 1294.63 Q1033.19 1297.29 1036.63 1297.29 Q1040.04 1297.29 1042.03 1294.61 Q1044.02 1291.92 1044.02 1287.29 Q1044.02 1282.69 1042.03 1280 Q1040.04 1277.29 1036.63 1277.29 M1036.63 1273.68 Q1042.19 1273.68 1045.36 1277.29 Q1048.53 1280.91 1048.53 1287.29 Q1048.53 1293.66 1045.36 1297.29 Q1042.19 1300.91 1036.63 1300.91 Q1031.06 1300.91 1027.88 1297.29 Q1024.74 1293.66 1024.74 1287.29 Q1024.74 1280.91 1027.88 1277.29 Q1031.06 1273.68 1036.63 1273.68 Z" fill="#000000" fill-rule="nonzero" fill-opacity="1" /><path clip-path="url(#clip550)" d="M1059.81 1266.95 L1059.81 1274.31 L1068.58 1274.31 L1068.58 1277.62 L1059.81 1277.62 L1059.81 1291.69 Q1059.81 1294.86 1060.66 1295.77 Q1061.54 1296.67 1064.2 1296.67 L1068.58 1296.67 L1068.58 1300.23 L1064.2 1300.23 Q1059.27 1300.23 1057.4 1298.41 Q1055.52 1296.55 1055.52 1291.69 L1055.52 1277.62 L1052.4 1277.62 L1052.4 1274.31 L1055.52 1274.31 L1055.52 1266.95 L1059.81 1266.95 Z" fill="#000000" fill-rule="nonzero" fill-opacity="1" /><path clip-path="url(#clip550)" d="M1095.73 1284.59 L1095.73 1300.23 L1091.47 1300.23 L1091.47 1284.73 Q1091.47 1281.04 1090.04 1279.22 Q1088.6 1277.39 1085.73 1277.39 Q1082.28 1277.39 1080.29 1279.59 Q1078.3 1281.79 1078.3 1285.58 L1078.3 1300.23 L1074.02 1300.23 L1074.02 1264.22 L1078.3 1264.22 L1078.3 1278.34 Q1079.83 1276 1081.89 1274.84 Q1083.97 1273.68 1086.68 1273.68 Q1091.15 1273.68 1093.44 1276.46 Q1095.73 1279.22 1095.73 1284.59 Z" fill="#000000" fill-rule="nonzero" fill-opacity="1" /><polyline clip-path="url(#clip550)" style="stroke:#e26f46; stroke-linecap:round; stroke-linejoin:round; stroke-width:4; stroke-opacity:1; fill:none" points="660.664,1334.79 723.58,1334.79 "/>
<path clip-path="url(#clip550)" d="M738.349 1348.19 L738.349 1361.94 L734.066 1361.94 L734.066 1326.15 L738.349 1326.15 L738.349 1330.08 Q739.691 1327.77 741.728 1326.66 Q743.788 1325.52 746.636 1325.52 Q751.358 1325.52 754.298 1329.27 Q757.261 1333.02 757.261 1339.13 Q757.261 1345.25 754.298 1349 Q751.358 1352.75 746.636 1352.75 Q743.788 1352.75 741.728 1351.63 Q739.691 1350.5 738.349 1348.19 M752.839 1339.13 Q752.839 1334.44 750.895 1331.77 Q748.974 1329.09 745.594 1329.09 Q742.214 1329.09 740.27 1331.77 Q738.349 1334.44 738.349 1339.13 Q738.349 1343.83 740.27 1346.52 Q742.214 1349.18 745.594 1349.18 Q748.974 1349.18 750.895 1346.52 Q752.839 1343.83 752.839 1339.13 Z" fill="#000000" fill-rule="nonzero" fill-opacity="1" /><path clip-path="url(#clip550)" d="M777.446 1316.06 L777.446 1319.6 L773.372 1319.6 Q771.08 1319.6 770.177 1320.52 Q769.298 1321.45 769.298 1323.86 L769.298 1326.15 L776.311 1326.15 L776.311 1329.46 L769.298 1329.46 L769.298 1352.07 L765.015 1352.07 L765.015 1329.46 L760.941 1329.46 L760.941 1326.15 L765.015 1326.15 L765.015 1324.34 Q765.015 1320.01 767.029 1318.05 Q769.043 1316.06 773.418 1316.06 L777.446 1316.06 Z" fill="#000000" fill-rule="nonzero" fill-opacity="1" /><path clip-path="url(#clip550)" d="M812.608 1326.91 L812.608 1330.94 Q810.802 1330.01 808.858 1329.55 Q806.913 1329.09 804.83 1329.09 Q801.659 1329.09 800.061 1330.06 Q798.487 1331.03 798.487 1332.98 Q798.487 1334.46 799.621 1335.32 Q800.756 1336.15 804.182 1336.91 L805.64 1337.24 Q810.177 1338.21 812.075 1339.99 Q813.996 1341.75 813.996 1344.92 Q813.996 1348.53 811.126 1350.64 Q808.279 1352.75 803.279 1352.75 Q801.196 1352.75 798.927 1352.33 Q796.682 1351.94 794.182 1351.13 L794.182 1346.73 Q796.543 1347.95 798.834 1348.58 Q801.126 1349.18 803.371 1349.18 Q806.381 1349.18 808.001 1348.16 Q809.621 1347.12 809.621 1345.25 Q809.621 1343.51 808.441 1342.58 Q807.283 1341.66 803.325 1340.8 L801.844 1340.45 Q797.885 1339.62 796.126 1337.91 Q794.367 1336.17 794.367 1333.16 Q794.367 1329.51 796.959 1327.51 Q799.552 1325.52 804.321 1325.52 Q806.682 1325.52 808.765 1325.87 Q810.848 1326.22 812.608 1326.91 Z" fill="#000000" fill-rule="nonzero" fill-opacity="1" /><path clip-path="url(#clip550)" d="M840.964 1331.13 Q842.561 1328.26 844.783 1326.89 Q847.005 1325.52 850.015 1325.52 Q854.066 1325.52 856.265 1328.37 Q858.464 1331.19 858.464 1336.43 L858.464 1352.07 L854.181 1352.07 L854.181 1336.57 Q854.181 1332.84 852.862 1331.03 Q851.543 1329.23 848.834 1329.23 Q845.524 1329.23 843.603 1331.43 Q841.681 1333.63 841.681 1337.42 L841.681 1352.07 L837.399 1352.07 L837.399 1336.57 Q837.399 1332.82 836.08 1331.03 Q834.76 1329.23 832.006 1329.23 Q828.742 1329.23 826.82 1331.45 Q824.899 1333.65 824.899 1337.42 L824.899 1352.07 L820.617 1352.07 L820.617 1326.15 L824.899 1326.15 L824.899 1330.18 Q826.357 1327.79 828.394 1326.66 Q830.432 1325.52 833.232 1325.52 Q836.056 1325.52 838.024 1326.96 Q840.015 1328.39 840.964 1331.13 Z" fill="#000000" fill-rule="nonzero" fill-opacity="1" /><path clip-path="url(#clip550)" d="M877.005 1329.13 Q873.579 1329.13 871.589 1331.82 Q869.598 1334.48 869.598 1339.13 Q869.598 1343.79 871.566 1346.47 Q873.556 1349.13 877.005 1349.13 Q880.408 1349.13 882.399 1346.45 Q884.39 1343.76 884.39 1339.13 Q884.39 1334.53 882.399 1331.84 Q880.408 1329.13 877.005 1329.13 M877.005 1325.52 Q882.561 1325.52 885.732 1329.13 Q888.903 1332.75 888.903 1339.13 Q888.903 1345.5 885.732 1349.13 Q882.561 1352.75 877.005 1352.75 Q871.427 1352.75 868.255 1349.13 Q865.107 1345.5 865.107 1339.13 Q865.107 1332.75 868.255 1329.13 Q871.427 1325.52 877.005 1325.52 Z" fill="#000000" fill-rule="nonzero" fill-opacity="1" /><path clip-path="url(#clip550)" d="M906.01 1329.13 Q902.584 1329.13 900.593 1331.82 Q898.602 1334.48 898.602 1339.13 Q898.602 1343.79 900.57 1346.47 Q902.561 1349.13 906.01 1349.13 Q909.413 1349.13 911.403 1346.45 Q913.394 1343.76 913.394 1339.13 Q913.394 1334.53 911.403 1331.84 Q909.413 1329.13 906.01 1329.13 M906.01 1325.52 Q911.565 1325.52 914.737 1329.13 Q917.908 1332.75 917.908 1339.13 Q917.908 1345.5 914.737 1349.13 Q911.565 1352.75 906.01 1352.75 Q900.431 1352.75 897.26 1349.13 Q894.112 1345.5 894.112 1339.13 Q894.112 1332.75 897.26 1329.13 Q900.431 1325.52 906.01 1325.52 Z" fill="#000000" fill-rule="nonzero" fill-opacity="1" /><path clip-path="url(#clip550)" d="M929.181 1318.79 L929.181 1326.15 L937.954 1326.15 L937.954 1329.46 L929.181 1329.46 L929.181 1343.53 Q929.181 1346.7 930.037 1347.61 Q930.917 1348.51 933.579 1348.51 L937.954 1348.51 L937.954 1352.07 L933.579 1352.07 Q928.649 1352.07 926.774 1350.25 Q924.899 1348.39 924.899 1343.53 L924.899 1329.46 L921.774 1329.46 L921.774 1326.15 L924.899 1326.15 L924.899 1318.79 L929.181 1318.79 Z" fill="#000000" fill-rule="nonzero" fill-opacity="1" /><path clip-path="url(#clip550)" d="M965.107 1336.43 L965.107 1352.07 L960.847 1352.07 L960.847 1336.57 Q960.847 1332.88 959.412 1331.06 Q957.977 1329.23 955.107 1329.23 Q951.658 1329.23 949.667 1331.43 Q947.676 1333.63 947.676 1337.42 L947.676 1352.07 L943.394 1352.07 L943.394 1316.06 L947.676 1316.06 L947.676 1330.18 Q949.204 1327.84 951.264 1326.68 Q953.348 1325.52 956.056 1325.52 Q960.523 1325.52 962.815 1328.3 Q965.107 1331.06 965.107 1336.43 Z" fill="#000000" fill-rule="nonzero" fill-opacity="1" /><polyline clip-path="url(#clip550)" style="stroke:#3da44d; stroke-linecap:round; stroke-linejoin:round; stroke-width:4; stroke-opacity:1; fill:none" points="660.664,1386.63 723.58,1386.63 "/>
<path clip-path="url(#clip550)" d="M741.474 1370.63 L741.474 1377.99 L750.247 1377.99 L750.247 1381.3 L741.474 1381.3 L741.474 1395.37 Q741.474 1398.54 742.33 1399.45 Q743.21 1400.35 745.872 1400.35 L750.247 1400.35 L750.247 1403.91 L745.872 1403.91 Q740.941 1403.91 739.066 1402.09 Q737.191 1400.23 737.191 1395.37 L737.191 1381.3 L734.066 1381.3 L734.066 1377.99 L737.191 1377.99 L737.191 1370.63 L741.474 1370.63 Z" fill="#000000" fill-rule="nonzero" fill-opacity="1" /><path clip-path="url(#clip550)" d="M770.872 1381.97 Q770.154 1381.55 769.298 1381.37 Q768.464 1381.16 767.446 1381.16 Q763.835 1381.16 761.89 1383.52 Q759.969 1385.86 759.969 1390.26 L759.969 1403.91 L755.687 1403.91 L755.687 1377.99 L759.969 1377.99 L759.969 1382.02 Q761.312 1379.66 763.464 1378.52 Q765.617 1377.36 768.696 1377.36 Q769.136 1377.36 769.668 1377.43 Q770.2 1377.48 770.848 1377.6 L770.872 1381.97 Z" fill="#000000" fill-rule="nonzero" fill-opacity="1" /><path clip-path="url(#clip550)" d="M774.899 1393.68 L774.899 1377.99 L779.159 1377.99 L779.159 1393.52 Q779.159 1397.2 780.594 1399.05 Q782.029 1400.88 784.899 1400.88 Q788.348 1400.88 790.339 1398.68 Q792.353 1396.48 792.353 1392.69 L792.353 1377.99 L796.612 1377.99 L796.612 1403.91 L792.353 1403.91 L792.353 1399.93 Q790.802 1402.29 788.742 1403.45 Q786.705 1404.59 783.997 1404.59 Q779.529 1404.59 777.214 1401.81 Q774.899 1399.03 774.899 1393.68 M785.617 1377.36 L785.617 1377.36 Z" fill="#000000" fill-rule="nonzero" fill-opacity="1" /><path clip-path="url(#clip550)" d="M827.561 1389.89 L827.561 1391.97 L807.978 1391.97 Q808.256 1396.37 810.617 1398.68 Q813.001 1400.97 817.237 1400.97 Q819.691 1400.97 821.982 1400.37 Q824.297 1399.77 826.566 1398.57 L826.566 1402.59 Q824.274 1403.57 821.867 1404.08 Q819.459 1404.59 816.983 1404.59 Q810.779 1404.59 807.145 1400.97 Q803.534 1397.36 803.534 1391.21 Q803.534 1384.84 806.959 1381.11 Q810.408 1377.36 816.242 1377.36 Q821.473 1377.36 824.506 1380.74 Q827.561 1384.1 827.561 1389.89 M823.302 1388.64 Q823.256 1385.14 821.334 1383.06 Q819.436 1380.97 816.288 1380.97 Q812.723 1380.97 810.571 1382.99 Q808.441 1385 808.117 1388.66 L823.302 1388.64 Z" fill="#000000" fill-rule="nonzero" fill-opacity="1" /><path clip-path="url(#clip550)" d="M1409.02 1486.45 L2352.76 1486.45 L2352.76 47.2441 L1409.02 47.2441  Z" fill="#ffffff" fill-rule="evenodd" fill-opacity="1"/>
<polyline clip-path="url(#clip551)" style="stroke:#000000; stroke-linecap:round; stroke-linejoin:round; stroke-width:2; stroke-opacity:0.1; fill:none" points="1424.46,1486.45 1424.46,47.2441 "/>
<polyline clip-path="url(#clip551)" style="stroke:#000000; stroke-linecap:round; stroke-linejoin:round; stroke-width:2; stroke-opacity:0.1; fill:none" points="1649.85,1486.45 1649.85,47.2441 "/>
<polyline clip-path="url(#clip551)" style="stroke:#000000; stroke-linecap:round; stroke-linejoin:round; stroke-width:2; stroke-opacity:0.1; fill:none" points="1875.25,1486.45 1875.25,47.2441 "/>
<polyline clip-path="url(#clip551)" style="stroke:#000000; stroke-linecap:round; stroke-linejoin:round; stroke-width:2; stroke-opacity:0.1; fill:none" points="2100.65,1486.45 2100.65,47.2441 "/>
<polyline clip-path="url(#clip551)" style="stroke:#000000; stroke-linecap:round; stroke-linejoin:round; stroke-width:2; stroke-opacity:0.1; fill:none" points="2326.05,1486.45 2326.05,47.2441 "/>
<polyline clip-path="url(#clip551)" style="stroke:#000000; stroke-linecap:round; stroke-linejoin:round; stroke-width:2; stroke-opacity:0.1; fill:none" points="1409.02,1304.36 2352.76,1304.36 "/>
<polyline clip-path="url(#clip551)" style="stroke:#000000; stroke-linecap:round; stroke-linejoin:round; stroke-width:2; stroke-opacity:0.1; fill:none" points="1409.02,1101.93 2352.76,1101.93 "/>
<polyline clip-path="url(#clip551)" style="stroke:#000000; stroke-linecap:round; stroke-linejoin:round; stroke-width:2; stroke-opacity:0.1; fill:none" points="1409.02,899.487 2352.76,899.487 "/>
<polyline clip-path="url(#clip551)" style="stroke:#000000; stroke-linecap:round; stroke-linejoin:round; stroke-width:2; stroke-opacity:0.1; fill:none" points="1409.02,697.048 2352.76,697.048 "/>
<polyline clip-path="url(#clip551)" style="stroke:#000000; stroke-linecap:round; stroke-linejoin:round; stroke-width:2; stroke-opacity:0.1; fill:none" points="1409.02,494.61 2352.76,494.61 "/>
<polyline clip-path="url(#clip551)" style="stroke:#000000; stroke-linecap:round; stroke-linejoin:round; stroke-width:2; stroke-opacity:0.1; fill:none" points="1409.02,292.171 2352.76,292.171 "/>
<polyline clip-path="url(#clip551)" style="stroke:#000000; stroke-linecap:round; stroke-linejoin:round; stroke-width:2; stroke-opacity:0.1; fill:none" points="1409.02,89.7324 2352.76,89.7324 "/>
<polyline clip-path="url(#clip550)" style="stroke:#000000; stroke-linecap:round; stroke-linejoin:round; stroke-width:4; stroke-opacity:1; fill:none" points="1409.02,1486.45 2352.76,1486.45 "/>
<polyline clip-path="url(#clip550)" style="stroke:#000000; stroke-linecap:round; stroke-linejoin:round; stroke-width:4; stroke-opacity:1; fill:none" points="1424.46,1486.45 1424.46,1467.55 "/>
<polyline clip-path="url(#clip550)" style="stroke:#000000; stroke-linecap:round; stroke-linejoin:round; stroke-width:4; stroke-opacity:1; fill:none" points="1649.85,1486.45 1649.85,1467.55 "/>
<polyline clip-path="url(#clip550)" style="stroke:#000000; stroke-linecap:round; stroke-linejoin:round; stroke-width:4; stroke-opacity:1; fill:none" points="1875.25,1486.45 1875.25,1467.55 "/>
<polyline clip-path="url(#clip550)" style="stroke:#000000; stroke-linecap:round; stroke-linejoin:round; stroke-width:4; stroke-opacity:1; fill:none" points="2100.65,1486.45 2100.65,1467.55 "/>
<polyline clip-path="url(#clip550)" style="stroke:#000000; stroke-linecap:round; stroke-linejoin:round; stroke-width:4; stroke-opacity:1; fill:none" points="2326.05,1486.45 2326.05,1467.55 "/>
<path clip-path="url(#clip550)" d="M1424.46 1517.37 Q1420.85 1517.37 1419.02 1520.93 Q1417.21 1524.47 1417.21 1531.6 Q1417.21 1538.71 1419.02 1542.27 Q1420.85 1545.82 1424.46 1545.82 Q1428.09 1545.82 1429.9 1542.27 Q1431.73 1538.71 1431.73 1531.6 Q1431.73 1524.47 1429.9 1520.93 Q1428.09 1517.37 1424.46 1517.37 M1424.46 1513.66 Q1430.27 1513.66 1433.32 1518.27 Q1436.4 1522.85 1436.4 1531.6 Q1436.4 1540.33 1433.32 1544.94 Q1430.27 1549.52 1424.46 1549.52 Q1418.65 1549.52 1415.57 1544.94 Q1412.51 1540.33 1412.51 1531.6 Q1412.51 1522.85 1415.57 1518.27 Q1418.65 1513.66 1424.46 1513.66 Z" fill="#000000" fill-rule="nonzero" fill-opacity="1" /><path clip-path="url(#clip550)" d="M1628.63 1544.91 L1644.95 1544.91 L1644.95 1548.85 L1623 1548.85 L1623 1544.91 Q1625.66 1542.16 1630.25 1537.53 Q1634.85 1532.88 1636.03 1531.53 Q1638.28 1529.01 1639.16 1527.27 Q1640.06 1525.51 1640.06 1523.82 Q1640.06 1521.07 1638.12 1519.33 Q1636.2 1517.6 1633.09 1517.6 Q1630.9 1517.6 1628.44 1518.36 Q1626.01 1519.13 1623.23 1520.68 L1623.23 1515.95 Q1626.06 1514.82 1628.51 1514.24 Q1630.97 1513.66 1633 1513.66 Q1638.37 1513.66 1641.57 1516.35 Q1644.76 1519.03 1644.76 1523.52 Q1644.76 1525.65 1643.95 1527.57 Q1643.16 1529.47 1641.06 1532.07 Q1640.48 1532.74 1637.38 1535.95 Q1634.28 1539.15 1628.63 1544.91 Z" fill="#000000" fill-rule="nonzero" fill-opacity="1" /><path clip-path="url(#clip550)" d="M1664.76 1517.37 Q1661.15 1517.37 1659.32 1520.93 Q1657.52 1524.47 1657.52 1531.6 Q1657.52 1538.71 1659.32 1542.27 Q1661.15 1545.82 1664.76 1545.82 Q1668.4 1545.82 1670.2 1542.27 Q1672.03 1538.71 1672.03 1531.6 Q1672.03 1524.47 1670.2 1520.93 Q1668.4 1517.37 1664.76 1517.37 M1664.76 1513.66 Q1670.57 1513.66 1673.63 1518.27 Q1676.71 1522.85 1676.71 1531.6 Q1676.71 1540.33 1673.63 1544.94 Q1670.57 1549.52 1664.76 1549.52 Q1658.95 1549.52 1655.87 1544.94 Q1652.82 1540.33 1652.82 1531.6 Q1652.82 1522.85 1655.87 1518.27 Q1658.95 1513.66 1664.76 1513.66 Z" fill="#000000" fill-rule="nonzero" fill-opacity="1" /><path clip-path="url(#clip550)" d="M1863.42 1518.36 L1851.62 1536.81 L1863.42 1536.81 L1863.42 1518.36 M1862.2 1514.29 L1868.08 1514.29 L1868.08 1536.81 L1873.01 1536.81 L1873.01 1540.7 L1868.08 1540.7 L1868.08 1548.85 L1863.42 1548.85 L1863.42 1540.7 L1847.82 1540.7 L1847.82 1536.19 L1862.2 1514.29 Z" fill="#000000" fill-rule="nonzero" fill-opacity="1" /><path clip-path="url(#clip550)" d="M1890.74 1517.37 Q1887.13 1517.37 1885.3 1520.93 Q1883.49 1524.47 1883.49 1531.6 Q1883.49 1538.71 1885.3 1542.27 Q1887.13 1545.82 1890.74 1545.82 Q1894.37 1545.82 1896.18 1542.27 Q1898.01 1538.71 1898.01 1531.6 Q1898.01 1524.47 1896.18 1520.93 Q1894.37 1517.37 1890.74 1517.37 M1890.74 1513.66 Q1896.55 1513.66 1899.6 1518.27 Q1902.68 1522.85 1902.68 1531.6 Q1902.68 1540.33 1899.6 1544.94 Q1896.55 1549.52 1890.74 1549.52 Q1884.93 1549.52 1881.85 1544.94 Q1878.79 1540.33 1878.79 1531.6 Q1878.79 1522.85 1881.85 1518.27 Q1884.93 1513.66 1890.74 1513.66 Z" fill="#000000" fill-rule="nonzero" fill-opacity="1" /><path clip-path="url(#clip550)" d="M2086.05 1529.7 Q2082.91 1529.7 2081.05 1531.86 Q2079.23 1534.01 2079.23 1537.76 Q2079.23 1541.49 2081.05 1543.66 Q2082.91 1545.82 2086.05 1545.82 Q2089.2 1545.82 2091.03 1543.66 Q2092.88 1541.49 2092.88 1537.76 Q2092.88 1534.01 2091.03 1531.86 Q2089.2 1529.7 2086.05 1529.7 M2095.34 1515.05 L2095.34 1519.31 Q2093.58 1518.48 2091.77 1518.04 Q2089.99 1517.6 2088.23 1517.6 Q2083.6 1517.6 2081.15 1520.72 Q2078.72 1523.85 2078.37 1530.17 Q2079.73 1528.15 2081.79 1527.09 Q2083.86 1526 2086.33 1526 Q2091.54 1526 2094.55 1529.17 Q2097.58 1532.32 2097.58 1537.76 Q2097.58 1543.08 2094.43 1546.3 Q2091.29 1549.52 2086.05 1549.52 Q2080.06 1549.52 2076.89 1544.94 Q2073.72 1540.33 2073.72 1531.6 Q2073.72 1523.41 2077.61 1518.55 Q2081.49 1513.66 2088.04 1513.66 Q2089.8 1513.66 2091.59 1514.01 Q2093.39 1514.36 2095.34 1515.05 Z" fill="#000000" fill-rule="nonzero" fill-opacity="1" /><path clip-path="url(#clip550)" d="M2115.64 1517.37 Q2112.03 1517.37 2110.2 1520.93 Q2108.39 1524.47 2108.39 1531.6 Q2108.39 1538.71 2110.2 1542.27 Q2112.03 1545.82 2115.64 1545.82 Q2119.27 1545.82 2121.08 1542.27 Q2122.91 1538.71 2122.91 1531.6 Q2122.91 1524.47 2121.08 1520.93 Q2119.27 1517.37 2115.64 1517.37 M2115.64 1513.66 Q2121.45 1513.66 2124.5 1518.27 Q2127.58 1522.85 2127.58 1531.6 Q2127.58 1540.33 2124.5 1544.94 Q2121.45 1549.52 2115.64 1549.52 Q2109.83 1549.52 2106.75 1544.94 Q2103.69 1540.33 2103.69 1531.6 Q2103.69 1522.85 2106.75 1518.27 Q2109.83 1513.66 2115.64 1513.66 Z" fill="#000000" fill-rule="nonzero" fill-opacity="1" /><path clip-path="url(#clip550)" d="M2310.92 1532.44 Q2307.59 1532.44 2305.66 1534.22 Q2303.77 1536 2303.77 1539.13 Q2303.77 1542.25 2305.66 1544.03 Q2307.59 1545.82 2310.92 1545.82 Q2314.25 1545.82 2316.17 1544.03 Q2318.09 1542.23 2318.09 1539.13 Q2318.09 1536 2316.17 1534.22 Q2314.28 1532.44 2310.92 1532.44 M2306.24 1530.45 Q2303.23 1529.7 2301.54 1527.64 Q2299.88 1525.58 2299.88 1522.62 Q2299.88 1518.48 2302.82 1516.07 Q2305.78 1513.66 2310.92 1513.66 Q2316.08 1513.66 2319.02 1516.07 Q2321.96 1518.48 2321.96 1522.62 Q2321.96 1525.58 2320.27 1527.64 Q2318.6 1529.7 2315.62 1530.45 Q2319 1531.23 2320.87 1533.52 Q2322.77 1535.82 2322.77 1539.13 Q2322.77 1544.15 2319.69 1546.83 Q2316.64 1549.52 2310.92 1549.52 Q2305.2 1549.52 2302.12 1546.83 Q2299.07 1544.15 2299.07 1539.13 Q2299.07 1535.82 2300.97 1533.52 Q2302.86 1531.23 2306.24 1530.45 M2304.53 1523.06 Q2304.53 1525.75 2306.2 1527.25 Q2307.89 1528.76 2310.92 1528.76 Q2313.93 1528.76 2315.62 1527.25 Q2317.33 1525.75 2317.33 1523.06 Q2317.33 1520.38 2315.62 1518.87 Q2313.93 1517.37 2310.92 1517.37 Q2307.89 1517.37 2306.2 1518.87 Q2304.53 1520.38 2304.53 1523.06 Z" fill="#000000" fill-rule="nonzero" fill-opacity="1" /><path clip-path="url(#clip550)" d="M2341.08 1517.37 Q2337.47 1517.37 2335.64 1520.93 Q2333.84 1524.47 2333.84 1531.6 Q2333.84 1538.71 2335.64 1542.27 Q2337.47 1545.82 2341.08 1545.82 Q2344.72 1545.82 2346.52 1542.27 Q2348.35 1538.71 2348.35 1531.6 Q2348.35 1524.47 2346.52 1520.93 Q2344.72 1517.37 2341.08 1517.37 M2341.08 1513.66 Q2346.89 1513.66 2349.95 1518.27 Q2353.03 1522.85 2353.03 1531.6 Q2353.03 1540.33 2349.95 1544.94 Q2346.89 1549.52 2341.08 1549.52 Q2335.27 1549.52 2332.19 1544.94 Q2329.14 1540.33 2329.14 1531.6 Q2329.14 1522.85 2332.19 1518.27 Q2335.27 1513.66 2341.08 1513.66 Z" fill="#000000" fill-rule="nonzero" fill-opacity="1" /><polyline clip-path="url(#clip550)" style="stroke:#000000; stroke-linecap:round; stroke-linejoin:round; stroke-width:4; stroke-opacity:1; fill:none" points="1409.02,1486.45 1409.02,47.2441 "/>
<polyline clip-path="url(#clip550)" style="stroke:#000000; stroke-linecap:round; stroke-linejoin:round; stroke-width:4; stroke-opacity:1; fill:none" points="1409.02,1304.36 1427.91,1304.36 "/>
<polyline clip-path="url(#clip550)" style="stroke:#000000; stroke-linecap:round; stroke-linejoin:round; stroke-width:4; stroke-opacity:1; fill:none" points="1409.02,1101.93 1427.91,1101.93 "/>
<polyline clip-path="url(#clip550)" style="stroke:#000000; stroke-linecap:round; stroke-linejoin:round; stroke-width:4; stroke-opacity:1; fill:none" points="1409.02,899.487 1427.91,899.487 "/>
<polyline clip-path="url(#clip550)" style="stroke:#000000; stroke-linecap:round; stroke-linejoin:round; stroke-width:4; stroke-opacity:1; fill:none" points="1409.02,697.048 1427.91,697.048 "/>
<polyline clip-path="url(#clip550)" style="stroke:#000000; stroke-linecap:round; stroke-linejoin:round; stroke-width:4; stroke-opacity:1; fill:none" points="1409.02,494.61 1427.91,494.61 "/>
<polyline clip-path="url(#clip550)" style="stroke:#000000; stroke-linecap:round; stroke-linejoin:round; stroke-width:4; stroke-opacity:1; fill:none" points="1409.02,292.171 1427.91,292.171 "/>
<polyline clip-path="url(#clip550)" style="stroke:#000000; stroke-linecap:round; stroke-linejoin:round; stroke-width:4; stroke-opacity:1; fill:none" points="1409.02,89.7324 1427.91,89.7324 "/>
<path clip-path="url(#clip550)" d="M1236.91 1304.82 L1266.58 1304.82 L1266.58 1308.75 L1236.91 1308.75 L1236.91 1304.82 Z" fill="#000000" fill-rule="nonzero" fill-opacity="1" /><path clip-path="url(#clip550)" d="M1286.67 1290.16 Q1283.06 1290.16 1281.24 1293.73 Q1279.43 1297.27 1279.43 1304.4 Q1279.43 1311.51 1281.24 1315.07 Q1283.06 1318.61 1286.67 1318.61 Q1290.31 1318.61 1292.11 1315.07 Q1293.94 1311.51 1293.94 1304.4 Q1293.94 1297.27 1292.11 1293.73 Q1290.31 1290.16 1286.67 1290.16 M1286.67 1286.46 Q1292.48 1286.46 1295.54 1291.07 Q1298.62 1295.65 1298.62 1304.4 Q1298.62 1313.13 1295.54 1317.73 Q1292.48 1322.32 1286.67 1322.32 Q1280.86 1322.32 1277.79 1317.73 Q1274.73 1313.13 1274.73 1304.4 Q1274.73 1295.65 1277.79 1291.07 Q1280.86 1286.46 1286.67 1286.46 Z" fill="#000000" fill-rule="nonzero" fill-opacity="1" /><path clip-path="url(#clip550)" d="M1306.84 1315.76 L1311.72 1315.76 L1311.72 1321.64 L1306.84 1321.64 L1306.84 1315.76 Z" fill="#000000" fill-rule="nonzero" fill-opacity="1" /><path clip-path="url(#clip550)" d="M1320.73 1287.08 L1342.95 1287.08 L1342.95 1289.07 L1330.4 1321.64 L1325.52 1321.64 L1337.32 1291.02 L1320.73 1291.02 L1320.73 1287.08 Z" fill="#000000" fill-rule="nonzero" fill-opacity="1" /><path clip-path="url(#clip550)" d="M1352.11 1287.08 L1370.47 1287.08 L1370.47 1291.02 L1356.4 1291.02 L1356.4 1299.49 Q1357.42 1299.14 1358.43 1298.98 Q1359.45 1298.8 1360.47 1298.8 Q1366.26 1298.8 1369.64 1301.97 Q1373.02 1305.14 1373.02 1310.56 Q1373.02 1316.13 1369.54 1319.24 Q1366.07 1322.32 1359.75 1322.32 Q1357.58 1322.32 1355.31 1321.94 Q1353.06 1321.57 1350.66 1320.83 L1350.66 1316.13 Q1352.74 1317.27 1354.96 1317.82 Q1357.18 1318.38 1359.66 1318.38 Q1363.67 1318.38 1366 1316.27 Q1368.34 1314.17 1368.34 1310.56 Q1368.34 1306.94 1366 1304.84 Q1363.67 1302.73 1359.66 1302.73 Q1357.79 1302.73 1355.91 1303.15 Q1354.06 1303.57 1352.11 1304.44 L1352.11 1287.08 Z" fill="#000000" fill-rule="nonzero" fill-opacity="1" /><path clip-path="url(#clip550)" d="M1235.91 1102.38 L1265.59 1102.38 L1265.59 1106.31 L1235.91 1106.31 L1235.91 1102.38 Z" fill="#000000" fill-rule="nonzero" fill-opacity="1" /><path clip-path="url(#clip550)" d="M1285.68 1087.72 Q1282.07 1087.72 1280.24 1091.29 Q1278.43 1094.83 1278.43 1101.96 Q1278.43 1109.07 1280.24 1112.63 Q1282.07 1116.17 1285.68 1116.17 Q1289.31 1116.17 1291.12 1112.63 Q1292.95 1109.07 1292.95 1101.96 Q1292.95 1094.83 1291.12 1091.29 Q1289.31 1087.72 1285.68 1087.72 M1285.68 1084.02 Q1291.49 1084.02 1294.55 1088.63 Q1297.62 1093.21 1297.62 1101.96 Q1297.62 1110.69 1294.55 1115.29 Q1291.49 1119.88 1285.68 1119.88 Q1279.87 1119.88 1276.79 1115.29 Q1273.74 1110.69 1273.74 1101.96 Q1273.74 1093.21 1276.79 1088.63 Q1279.87 1084.02 1285.68 1084.02 Z" fill="#000000" fill-rule="nonzero" fill-opacity="1" /><path clip-path="url(#clip550)" d="M1305.84 1113.33 L1310.73 1113.33 L1310.73 1119.21 L1305.84 1119.21 L1305.84 1113.33 Z" fill="#000000" fill-rule="nonzero" fill-opacity="1" /><path clip-path="url(#clip550)" d="M1320.96 1084.65 L1339.31 1084.65 L1339.31 1088.58 L1325.24 1088.58 L1325.24 1097.05 Q1326.26 1096.71 1327.28 1096.54 Q1328.29 1096.36 1329.31 1096.36 Q1335.1 1096.36 1338.48 1099.53 Q1341.86 1102.7 1341.86 1108.12 Q1341.86 1113.7 1338.39 1116.8 Q1334.92 1119.88 1328.6 1119.88 Q1326.42 1119.88 1324.15 1119.51 Q1321.91 1119.14 1319.5 1118.4 L1319.5 1113.7 Q1321.58 1114.83 1323.8 1115.39 Q1326.03 1115.94 1328.5 1115.94 Q1332.51 1115.94 1334.85 1113.83 Q1337.18 1111.73 1337.18 1108.12 Q1337.18 1104.51 1334.85 1102.4 Q1332.51 1100.29 1328.5 1100.29 Q1326.63 1100.29 1324.75 1100.71 Q1322.9 1101.13 1320.96 1102.01 L1320.96 1084.65 Z" fill="#000000" fill-rule="nonzero" fill-opacity="1" /><path clip-path="url(#clip550)" d="M1361.07 1087.72 Q1357.46 1087.72 1355.63 1091.29 Q1353.83 1094.83 1353.83 1101.96 Q1353.83 1109.07 1355.63 1112.63 Q1357.46 1116.17 1361.07 1116.17 Q1364.71 1116.17 1366.51 1112.63 Q1368.34 1109.07 1368.34 1101.96 Q1368.34 1094.83 1366.51 1091.29 Q1364.71 1087.72 1361.07 1087.72 M1361.07 1084.02 Q1366.88 1084.02 1369.94 1088.63 Q1373.02 1093.21 1373.02 1101.96 Q1373.02 1110.69 1369.94 1115.29 Q1366.88 1119.88 1361.07 1119.88 Q1355.26 1119.88 1352.18 1115.29 Q1349.13 1110.69 1349.13 1101.96 Q1349.13 1093.21 1352.18 1088.63 Q1355.26 1084.02 1361.07 1084.02 Z" fill="#000000" fill-rule="nonzero" fill-opacity="1" /><path clip-path="url(#clip550)" d="M1236.91 899.938 L1266.58 899.938 L1266.58 903.873 L1236.91 903.873 L1236.91 899.938 Z" fill="#000000" fill-rule="nonzero" fill-opacity="1" /><path clip-path="url(#clip550)" d="M1286.67 885.285 Q1283.06 885.285 1281.24 888.85 Q1279.43 892.392 1279.43 899.521 Q1279.43 906.628 1281.24 910.193 Q1283.06 913.734 1286.67 913.734 Q1290.31 913.734 1292.11 910.193 Q1293.94 906.628 1293.94 899.521 Q1293.94 892.392 1292.11 888.85 Q1290.31 885.285 1286.67 885.285 M1286.67 881.582 Q1292.48 881.582 1295.54 886.188 Q1298.62 890.771 1298.62 899.521 Q1298.62 908.248 1295.54 912.855 Q1292.48 917.438 1286.67 917.438 Q1280.86 917.438 1277.79 912.855 Q1274.73 908.248 1274.73 899.521 Q1274.73 890.771 1277.79 886.188 Q1280.86 881.582 1286.67 881.582 Z" fill="#000000" fill-rule="nonzero" fill-opacity="1" /><path clip-path="url(#clip550)" d="M1306.84 910.887 L1311.72 910.887 L1311.72 916.767 L1306.84 916.767 L1306.84 910.887 Z" fill="#000000" fill-rule="nonzero" fill-opacity="1" /><path clip-path="url(#clip550)" d="M1325.93 912.832 L1342.25 912.832 L1342.25 916.767 L1320.31 916.767 L1320.31 912.832 Q1322.97 910.077 1327.55 905.447 Q1332.16 900.795 1333.34 899.452 Q1335.59 896.929 1336.47 895.193 Q1337.37 893.434 1337.37 891.744 Q1337.37 888.989 1335.42 887.253 Q1333.5 885.517 1330.4 885.517 Q1328.2 885.517 1325.75 886.281 Q1323.32 887.045 1320.54 888.596 L1320.54 883.873 Q1323.36 882.739 1325.82 882.16 Q1328.27 881.582 1330.31 881.582 Q1335.68 881.582 1338.87 884.267 Q1342.07 886.952 1342.07 891.443 Q1342.07 893.572 1341.26 895.494 Q1340.47 897.392 1338.36 899.984 Q1337.79 900.656 1334.68 903.873 Q1331.58 907.068 1325.93 912.832 Z" fill="#000000" fill-rule="nonzero" fill-opacity="1" /><path clip-path="url(#clip550)" d="M1352.11 882.207 L1370.47 882.207 L1370.47 886.142 L1356.4 886.142 L1356.4 894.614 Q1357.42 894.267 1358.43 894.105 Q1359.45 893.92 1360.47 893.92 Q1366.26 893.92 1369.64 897.091 Q1373.02 900.262 1373.02 905.679 Q1373.02 911.257 1369.54 914.359 Q1366.07 917.438 1359.75 917.438 Q1357.58 917.438 1355.31 917.068 Q1353.06 916.697 1350.66 915.957 L1350.66 911.257 Q1352.74 912.392 1354.96 912.947 Q1357.18 913.503 1359.66 913.503 Q1363.67 913.503 1366 911.396 Q1368.34 909.29 1368.34 905.679 Q1368.34 902.068 1366 899.961 Q1363.67 897.855 1359.66 897.855 Q1357.79 897.855 1355.91 898.271 Q1354.06 898.688 1352.11 899.568 L1352.11 882.207 Z" fill="#000000" fill-rule="nonzero" fill-opacity="1" /><path clip-path="url(#clip550)" d="M1285.68 682.847 Q1282.07 682.847 1280.24 686.412 Q1278.43 689.953 1278.43 697.083 Q1278.43 704.189 1280.24 707.754 Q1282.07 711.296 1285.68 711.296 Q1289.31 711.296 1291.12 707.754 Q1292.95 704.189 1292.95 697.083 Q1292.95 689.953 1291.12 686.412 Q1289.31 682.847 1285.68 682.847 M1285.68 679.143 Q1291.49 679.143 1294.55 683.75 Q1297.62 688.333 1297.62 697.083 Q1297.62 705.81 1294.55 710.416 Q1291.49 714.999 1285.68 714.999 Q1279.87 714.999 1276.79 710.416 Q1273.74 705.81 1273.74 697.083 Q1273.74 688.333 1276.79 683.75 Q1279.87 679.143 1285.68 679.143 Z" fill="#000000" fill-rule="nonzero" fill-opacity="1" /><path clip-path="url(#clip550)" d="M1305.84 708.449 L1310.73 708.449 L1310.73 714.328 L1305.84 714.328 L1305.84 708.449 Z" fill="#000000" fill-rule="nonzero" fill-opacity="1" /><path clip-path="url(#clip550)" d="M1330.91 682.847 Q1327.3 682.847 1325.47 686.412 Q1323.67 689.953 1323.67 697.083 Q1323.67 704.189 1325.47 707.754 Q1327.3 711.296 1330.91 711.296 Q1334.54 711.296 1336.35 707.754 Q1338.18 704.189 1338.18 697.083 Q1338.18 689.953 1336.35 686.412 Q1334.54 682.847 1330.91 682.847 M1330.91 679.143 Q1336.72 679.143 1339.78 683.75 Q1342.86 688.333 1342.86 697.083 Q1342.86 705.81 1339.78 710.416 Q1336.72 714.999 1330.91 714.999 Q1325.1 714.999 1322.02 710.416 Q1318.97 705.81 1318.97 697.083 Q1318.97 688.333 1322.02 683.75 Q1325.1 679.143 1330.91 679.143 Z" fill="#000000" fill-rule="nonzero" fill-opacity="1" /><path clip-path="url(#clip550)" d="M1361.07 682.847 Q1357.46 682.847 1355.63 686.412 Q1353.83 689.953 1353.83 697.083 Q1353.83 704.189 1355.63 707.754 Q1357.46 711.296 1361.07 711.296 Q1364.71 711.296 1366.51 707.754 Q1368.34 704.189 1368.34 697.083 Q1368.34 689.953 1366.51 686.412 Q1364.71 682.847 1361.07 682.847 M1361.07 679.143 Q1366.88 679.143 1369.94 683.75 Q1373.02 688.333 1373.02 697.083 Q1373.02 705.81 1369.94 710.416 Q1366.88 714.999 1361.07 714.999 Q1355.26 714.999 1352.18 710.416 Q1349.13 705.81 1349.13 697.083 Q1349.13 688.333 1352.18 683.75 Q1355.26 679.143 1361.07 679.143 Z" fill="#000000" fill-rule="nonzero" fill-opacity="1" /><path clip-path="url(#clip550)" d="M1286.67 480.408 Q1283.06 480.408 1281.24 483.973 Q1279.43 487.515 1279.43 494.644 Q1279.43 501.751 1281.24 505.316 Q1283.06 508.857 1286.67 508.857 Q1290.31 508.857 1292.11 505.316 Q1293.94 501.751 1293.94 494.644 Q1293.94 487.515 1292.11 483.973 Q1290.31 480.408 1286.67 480.408 M1286.67 476.705 Q1292.48 476.705 1295.54 481.311 Q1298.62 485.894 1298.62 494.644 Q1298.62 503.371 1295.54 507.978 Q1292.48 512.561 1286.67 512.561 Q1280.86 512.561 1277.79 507.978 Q1274.73 503.371 1274.73 494.644 Q1274.73 485.894 1277.79 481.311 Q1280.86 476.705 1286.67 476.705 Z" fill="#000000" fill-rule="nonzero" fill-opacity="1" /><path clip-path="url(#clip550)" d="M1306.84 506.01 L1311.72 506.01 L1311.72 511.89 L1306.84 511.89 L1306.84 506.01 Z" fill="#000000" fill-rule="nonzero" fill-opacity="1" /><path clip-path="url(#clip550)" d="M1325.93 507.954 L1342.25 507.954 L1342.25 511.89 L1320.31 511.89 L1320.31 507.954 Q1322.97 505.2 1327.55 500.57 Q1332.16 495.917 1333.34 494.575 Q1335.59 492.052 1336.47 490.316 Q1337.37 488.556 1337.37 486.867 Q1337.37 484.112 1335.42 482.376 Q1333.5 480.64 1330.4 480.64 Q1328.2 480.64 1325.75 481.404 Q1323.32 482.167 1320.54 483.718 L1320.54 478.996 Q1323.36 477.862 1325.82 477.283 Q1328.27 476.705 1330.31 476.705 Q1335.68 476.705 1338.87 479.39 Q1342.07 482.075 1342.07 486.566 Q1342.07 488.695 1341.26 490.617 Q1340.47 492.515 1338.36 495.107 Q1337.79 495.779 1334.68 498.996 Q1331.58 502.191 1325.93 507.954 Z" fill="#000000" fill-rule="nonzero" fill-opacity="1" /><path clip-path="url(#clip550)" d="M1352.11 477.33 L1370.47 477.33 L1370.47 481.265 L1356.4 481.265 L1356.4 489.737 Q1357.42 489.39 1358.43 489.228 Q1359.45 489.042 1360.47 489.042 Q1366.26 489.042 1369.64 492.214 Q1373.02 495.385 1373.02 500.802 Q1373.02 506.38 1369.54 509.482 Q1366.07 512.561 1359.75 512.561 Q1357.58 512.561 1355.31 512.19 Q1353.06 511.82 1350.66 511.079 L1350.66 506.38 Q1352.74 507.515 1354.96 508.07 Q1357.18 508.626 1359.66 508.626 Q1363.67 508.626 1366 506.519 Q1368.34 504.413 1368.34 500.802 Q1368.34 497.191 1366 495.084 Q1363.67 492.978 1359.66 492.978 Q1357.79 492.978 1355.91 493.394 Q1354.06 493.811 1352.11 494.691 L1352.11 477.33 Z" fill="#000000" fill-rule="nonzero" fill-opacity="1" /><path clip-path="url(#clip550)" d="M1285.68 277.97 Q1282.07 277.97 1280.24 281.534 Q1278.43 285.076 1278.43 292.206 Q1278.43 299.312 1280.24 302.877 Q1282.07 306.419 1285.68 306.419 Q1289.31 306.419 1291.12 302.877 Q1292.95 299.312 1292.95 292.206 Q1292.95 285.076 1291.12 281.534 Q1289.31 277.97 1285.68 277.97 M1285.68 274.266 Q1291.49 274.266 1294.55 278.872 Q1297.62 283.456 1297.62 292.206 Q1297.62 300.932 1294.55 305.539 Q1291.49 310.122 1285.68 310.122 Q1279.87 310.122 1276.79 305.539 Q1273.74 300.932 1273.74 292.206 Q1273.74 283.456 1276.79 278.872 Q1279.87 274.266 1285.68 274.266 Z" fill="#000000" fill-rule="nonzero" fill-opacity="1" /><path clip-path="url(#clip550)" d="M1305.84 303.571 L1310.73 303.571 L1310.73 309.451 L1305.84 309.451 L1305.84 303.571 Z" fill="#000000" fill-rule="nonzero" fill-opacity="1" /><path clip-path="url(#clip550)" d="M1320.96 274.891 L1339.31 274.891 L1339.31 278.826 L1325.24 278.826 L1325.24 287.298 Q1326.26 286.951 1327.28 286.789 Q1328.29 286.604 1329.31 286.604 Q1335.1 286.604 1338.48 289.775 Q1341.86 292.946 1341.86 298.363 Q1341.86 303.942 1338.39 307.044 Q1334.92 310.122 1328.6 310.122 Q1326.42 310.122 1324.15 309.752 Q1321.91 309.382 1319.5 308.641 L1319.5 303.942 Q1321.58 305.076 1323.8 305.632 Q1326.03 306.187 1328.5 306.187 Q1332.51 306.187 1334.85 304.081 Q1337.18 301.974 1337.18 298.363 Q1337.18 294.752 1334.85 292.645 Q1332.51 290.539 1328.5 290.539 Q1326.63 290.539 1324.75 290.956 Q1322.9 291.372 1320.96 292.252 L1320.96 274.891 Z" fill="#000000" fill-rule="nonzero" fill-opacity="1" /><path clip-path="url(#clip550)" d="M1361.07 277.97 Q1357.46 277.97 1355.63 281.534 Q1353.83 285.076 1353.83 292.206 Q1353.83 299.312 1355.63 302.877 Q1357.46 306.419 1361.07 306.419 Q1364.71 306.419 1366.51 302.877 Q1368.34 299.312 1368.34 292.206 Q1368.34 285.076 1366.51 281.534 Q1364.71 277.97 1361.07 277.97 M1361.07 274.266 Q1366.88 274.266 1369.94 278.872 Q1373.02 283.456 1373.02 292.206 Q1373.02 300.932 1369.94 305.539 Q1366.88 310.122 1361.07 310.122 Q1355.26 310.122 1352.18 305.539 Q1349.13 300.932 1349.13 292.206 Q1349.13 283.456 1352.18 278.872 Q1355.26 274.266 1361.07 274.266 Z" fill="#000000" fill-rule="nonzero" fill-opacity="1" /><path clip-path="url(#clip550)" d="M1286.67 75.531 Q1283.06 75.531 1281.24 79.0958 Q1279.43 82.6375 1279.43 89.7671 Q1279.43 96.8735 1281.24 100.438 Q1283.06 103.98 1286.67 103.98 Q1290.31 103.98 1292.11 100.438 Q1293.94 96.8735 1293.94 89.7671 Q1293.94 82.6375 1292.11 79.0958 Q1290.31 75.531 1286.67 75.531 M1286.67 71.8274 Q1292.48 71.8274 1295.54 76.4338 Q1298.62 81.0171 1298.62 89.7671 Q1298.62 98.4939 1295.54 103.1 Q1292.48 107.684 1286.67 107.684 Q1280.86 107.684 1277.79 103.1 Q1274.73 98.4939 1274.73 89.7671 Q1274.73 81.0171 1277.79 76.4338 Q1280.86 71.8274 1286.67 71.8274 Z" fill="#000000" fill-rule="nonzero" fill-opacity="1" /><path clip-path="url(#clip550)" d="M1306.84 101.133 L1311.72 101.133 L1311.72 107.012 L1306.84 107.012 L1306.84 101.133 Z" fill="#000000" fill-rule="nonzero" fill-opacity="1" /><path clip-path="url(#clip550)" d="M1320.73 72.4524 L1342.95 72.4524 L1342.95 74.4431 L1330.4 107.012 L1325.52 107.012 L1337.32 76.3875 L1320.73 76.3875 L1320.73 72.4524 Z" fill="#000000" fill-rule="nonzero" fill-opacity="1" /><path clip-path="url(#clip550)" d="M1352.11 72.4524 L1370.47 72.4524 L1370.47 76.3875 L1356.4 76.3875 L1356.4 84.8597 Q1357.42 84.5125 1358.43 84.3504 Q1359.45 84.1653 1360.47 84.1653 Q1366.26 84.1653 1369.64 87.3365 Q1373.02 90.5078 1373.02 95.9245 Q1373.02 101.503 1369.54 104.605 Q1366.07 107.684 1359.75 107.684 Q1357.58 107.684 1355.31 107.313 Q1353.06 106.943 1350.66 106.202 L1350.66 101.503 Q1352.74 102.637 1354.96 103.193 Q1357.18 103.748 1359.66 103.748 Q1363.67 103.748 1366 101.642 Q1368.34 99.5355 1368.34 95.9245 Q1368.34 92.3134 1366 90.2069 Q1363.67 88.1004 1359.66 88.1004 Q1357.79 88.1004 1355.91 88.5171 Q1354.06 88.9338 1352.11 89.8134 L1352.11 72.4524 Z" fill="#000000" fill-rule="nonzero" fill-opacity="1" /><polyline clip-path="url(#clip551)" style="stroke:#009af9; stroke-linecap:round; stroke-linejoin:round; stroke-width:4; stroke-opacity:1; fill:none" points="1435.73,1382.86 1447,1385.07 1458.27,1432.37 1469.54,1398.82 1480.81,1320.67 1492.08,1289.05 1503.35,1213.96 1514.62,1174.09 1525.89,1143.5 1537.16,1107.96 1548.43,1052.93 1559.7,1015.27 1570.96,968.719 1582.23,917.607 1593.5,876.994 1604.77,874.267 1616.04,860.923 1627.31,752.642 1638.58,658.919 1649.85,602.503 1661.12,538.962 1672.39,485.52 1683.66,452.581 1694.93,421.543 1706.2,351.125 1717.47,337.589 1728.74,302.313 1740.01,239.818 1751.28,215.012 1762.55,172.307 1773.82,157.475 1785.09,149.607 1796.36,123.734 1807.63,140.042 1818.9,219.75 1830.17,336.364 1841.44,429.18 1852.71,549.336 1863.98,631.732 1875.25,672.948 1886.52,726.142 1897.79,745.916 1909.06,791.098 1920.33,819.044 1931.6,886.829 1942.87,933.654 1954.14,1068.05 1965.41,1146.77 1976.68,1233.46 1987.95,1293.61 1999.22,1296.78 2010.49,1300.94 2021.76,1247.4 2033.03,1219.77 2044.3,1210.64 2055.57,1241.93 2066.84,1242.34 2078.11,1183.67 2089.38,1159.49 2100.65,1146.53 2111.92,1090 2123.19,986.738 2134.46,947.732 2145.73,891.654 2157,891.332 2168.27,942.384 2179.54,987.926 2190.81,1022.89 2202.08,1058.29 2213.35,1036.91 2224.62,1017.63 2235.89,975.683 2247.16,935.426 2258.43,895.561 2269.7,906.809 2280.97,867.263 2292.24,823.059 2303.51,770.852 2314.78,743.675 2326.05,686.562 "/>
<polyline clip-path="url(#clip551)" style="stroke:#e26f46; stroke-linecap:round; stroke-linejoin:round; stroke-width:4; stroke-opacity:1; fill:none" points="1435.73,1400.51 1447,1403.62 1458.27,1445.72 1469.54,1415.38 1480.81,1342.5 1492.08,1308.71 1503.35,1235.09 1514.62,1184.17 1525.89,1148.22 1537.16,1119.39 1548.43,1060.16 1559.7,1019.01 1570.96,963.674 1582.23,907.804 1593.5,869.437 1604.77,862.04 1616.04,859.028 1627.31,748.578 1638.58,661.036 1649.85,600.504 1661.12,524.359 1672.39,479.062 1683.66,446.476 1694.93,414.189 1706.2,341.66 1717.47,332.388 1728.74,295.665 1740.01,247.804 1751.28,200.975 1762.55,161.267 1773.82,162.612 1785.09,151.395 1796.36,134.58 1807.63,134.059 1818.9,217.891 1830.17,338.891 1841.44,429.919 1852.71,532.457 1863.98,617.378 1875.25,670.442 1886.52,727.593 1897.79,760.212 1909.06,802.567 1920.33,822.856 1931.6,888.07 1942.87,944.424 1954.14,1090.66 1965.41,1168.06 1976.68,1259.1 1987.95,1295.86 1999.22,1299.32 2010.49,1294.86 2021.76,1235.83 2033.03,1221.17 2044.3,1210.93 2055.57,1244.14 2066.84,1258.44 2078.11,1189.25 2089.38,1168.8 2100.65,1157.47 2111.92,1079.1 2123.19,978.092 2134.46,945.375 2145.73,887.825 2157,896.127 2168.27,960.058 2179.54,1001.09 2190.81,1022.35 2202.08,1057.7 2213.35,1030.03 2224.62,1015.61 2235.89,963.656 2247.16,931.056 2258.43,890.002 2269.7,912.641 2280.97,878.456 2292.24,829.348 2303.51,772.36 2314.78,743.331 2326.05,681.317 "/>
<polyline clip-path="url(#clip551)" style="stroke:#3da44d; stroke-linecap:round; stroke-linejoin:round; stroke-width:4; stroke-opacity:1; fill:none" points="1435.73,1348.75 1447,1399.79 1458.27,1388.57 1469.54,1325.5 1480.81,1301.59 1492.08,1273.48 1503.35,1233.8 1514.62,1210.14 1525.89,1149.83 1537.16,1207.32 1548.43,1116.94 1559.7,1031.02 1570.96,987.03 1582.23,907.653 1593.5,780.646 1604.77,821.633 1616.04,796.793 1627.31,713.021 1638.58,584.512 1649.85,605.936 1661.12,532.883 1672.39,495.517 1683.66,458.384 1694.93,563.144 1706.2,429.12 1717.47,440.601 1728.74,477.955 1740.01,367.601 1751.28,256.671 1762.55,163.156 1773.82,193.301 1785.09,87.9763 1796.36,111.109 1807.63,124.492 1818.9,300.239 1830.17,386.037 1841.44,467.33 1852.71,586.277 1863.98,647.264 1875.25,648.955 1886.52,674.803 1897.79,728.523 1909.06,752.04 1920.33,723.716 1931.6,742.181 1942.87,821.061 1954.14,963.105 1965.41,989.023 1976.68,1220.68 1987.95,1161.76 1999.22,1235.57 2010.49,1223.19 2021.76,1096.44 2033.03,1104.47 2044.3,1219.69 2055.57,1183.79 2066.84,1218.76 2078.11,1202.13 2089.38,1176.76 2100.65,1174.07 2111.92,1021.9 2123.19,1076.44 2134.46,1112.3 2145.73,966.847 2157,854.263 2168.27,923.865 2179.54,951.781 2190.81,878.334 2202.08,872.774 2213.35,908.054 2224.62,919.714 2235.89,878.209 2247.16,765.371 2258.43,822.088 2269.7,824.557 2280.97,766.043 2292.24,807.806 2303.51,699.446 2314.78,776.311 2326.05,665.716 "/>
<path clip-path="url(#clip550)" d="M1865.26 302.578 L2321.3 302.578 L2321.3 95.2176 L1865.26 95.2176  Z" fill="#ffffff" fill-rule="evenodd" fill-opacity="1"/>
<polyline clip-path="url(#clip550)" style="stroke:#000000; stroke-linecap:round; stroke-linejoin:round; stroke-width:4; stroke-opacity:1; fill:none" points="1865.26,302.578 2321.3,302.578 2321.3,95.2176 1865.26,95.2176 1865.26,302.578 "/>
<polyline clip-path="url(#clip550)" style="stroke:#009af9; stroke-linecap:round; stroke-linejoin:round; stroke-width:4; stroke-opacity:1; fill:none" points="1875.75,147.058 1938.66,147.058 "/>
<path clip-path="url(#clip550)" d="M1949.15 129.778 L1953.82 129.778 L1953.82 144.384 L1969.33 129.778 L1975.35 129.778 L1958.2 145.889 L1976.58 164.338 L1970.42 164.338 L1953.82 147.694 L1953.82 164.338 L1949.15 164.338 L1949.15 129.778 Z" fill="#000000" fill-rule="nonzero" fill-opacity="1" /><path clip-path="url(#clip550)" d="M1991 151.305 Q1985.84 151.305 1983.85 152.486 Q1981.86 153.666 1981.86 156.514 Q1981.86 158.782 1983.34 160.125 Q1984.84 161.444 1987.41 161.444 Q1990.95 161.444 1993.08 158.944 Q1995.23 156.421 1995.23 152.254 L1995.23 151.305 L1991 151.305 M1999.49 149.546 L1999.49 164.338 L1995.23 164.338 L1995.23 160.402 Q1993.78 162.763 1991.6 163.898 Q1989.42 165.009 1986.28 165.009 Q1982.3 165.009 1979.93 162.787 Q1977.6 160.541 1977.6 156.791 Q1977.6 152.416 1980.51 150.194 Q1983.45 147.972 1989.26 147.972 L1995.23 147.972 L1995.23 147.555 Q1995.23 144.615 1993.29 143.018 Q1991.37 141.398 1987.87 141.398 Q1985.65 141.398 1983.55 141.93 Q1981.44 142.463 1979.49 143.527 L1979.49 139.592 Q1981.83 138.69 1984.03 138.25 Q1986.23 137.787 1988.31 137.787 Q1993.94 137.787 1996.72 140.703 Q1999.49 143.62 1999.49 149.546 Z" fill="#000000" fill-rule="nonzero" fill-opacity="1" /><path clip-path="url(#clip550)" d="M2008.27 128.319 L2012.53 128.319 L2012.53 164.338 L2008.27 164.338 L2008.27 128.319 Z" fill="#000000" fill-rule="nonzero" fill-opacity="1" /><path clip-path="url(#clip550)" d="M2041.62 143.389 Q2043.22 140.518 2045.44 139.153 Q2047.67 137.787 2050.67 137.787 Q2054.73 137.787 2056.92 140.634 Q2059.12 143.458 2059.12 148.689 L2059.12 164.338 L2054.84 164.338 L2054.84 148.828 Q2054.84 145.102 2053.52 143.296 Q2052.2 141.49 2049.49 141.49 Q2046.18 141.49 2044.26 143.69 Q2042.34 145.889 2042.34 149.685 L2042.34 164.338 L2038.06 164.338 L2038.06 148.828 Q2038.06 145.078 2036.74 143.296 Q2035.42 141.49 2032.67 141.49 Q2029.4 141.49 2027.48 143.713 Q2025.56 145.912 2025.56 149.685 L2025.56 164.338 L2021.28 164.338 L2021.28 138.412 L2025.56 138.412 L2025.56 142.44 Q2027.02 140.055 2029.05 138.921 Q2031.09 137.787 2033.89 137.787 Q2036.72 137.787 2038.68 139.222 Q2040.67 140.657 2041.62 143.389 Z" fill="#000000" fill-rule="nonzero" fill-opacity="1" /><path clip-path="url(#clip550)" d="M2079.4 151.305 Q2074.24 151.305 2072.25 152.486 Q2070.26 153.666 2070.26 156.514 Q2070.26 158.782 2071.74 160.125 Q2073.24 161.444 2075.81 161.444 Q2079.35 161.444 2081.48 158.944 Q2083.64 156.421 2083.64 152.254 L2083.64 151.305 L2079.4 151.305 M2087.9 149.546 L2087.9 164.338 L2083.64 164.338 L2083.64 160.402 Q2082.18 162.763 2080 163.898 Q2077.83 165.009 2074.68 165.009 Q2070.7 165.009 2068.34 162.787 Q2066 160.541 2066 156.791 Q2066 152.416 2068.92 150.194 Q2071.85 147.972 2077.67 147.972 L2083.64 147.972 L2083.64 147.555 Q2083.64 144.615 2081.69 143.018 Q2079.77 141.398 2076.28 141.398 Q2074.05 141.398 2071.95 141.93 Q2069.84 142.463 2067.9 143.527 L2067.9 139.592 Q2070.23 138.69 2072.43 138.25 Q2074.63 137.787 2076.72 137.787 Q2082.34 137.787 2085.12 140.703 Q2087.9 143.62 2087.9 149.546 Z" fill="#000000" fill-rule="nonzero" fill-opacity="1" /><path clip-path="url(#clip550)" d="M2118.22 148.689 L2118.22 164.338 L2113.96 164.338 L2113.96 148.828 Q2113.96 145.148 2112.53 143.319 Q2111.09 141.49 2108.22 141.49 Q2104.77 141.49 2102.78 143.69 Q2100.79 145.889 2100.79 149.685 L2100.79 164.338 L2096.51 164.338 L2096.51 138.412 L2100.79 138.412 L2100.79 142.44 Q2102.32 140.102 2104.38 138.944 Q2106.46 137.787 2109.17 137.787 Q2113.64 137.787 2115.93 140.565 Q2118.22 143.319 2118.22 148.689 Z" fill="#000000" fill-rule="nonzero" fill-opacity="1" /><path clip-path="url(#clip550)" d="M2158.31 139.176 L2158.31 143.203 Q2156.51 142.277 2154.56 141.815 Q2152.62 141.352 2150.54 141.352 Q2147.36 141.352 2145.77 142.324 Q2144.19 143.296 2144.19 145.24 Q2144.19 146.722 2145.33 147.578 Q2146.46 148.412 2149.89 149.176 L2151.35 149.5 Q2155.88 150.472 2157.78 152.254 Q2159.7 154.014 2159.7 157.185 Q2159.7 160.796 2156.83 162.902 Q2153.98 165.009 2148.98 165.009 Q2146.9 165.009 2144.63 164.592 Q2142.39 164.199 2139.89 163.388 L2139.89 158.99 Q2142.25 160.217 2144.54 160.842 Q2146.83 161.444 2149.08 161.444 Q2152.09 161.444 2153.71 160.426 Q2155.33 159.384 2155.33 157.509 Q2155.33 155.773 2154.15 154.847 Q2152.99 153.921 2149.03 153.064 L2147.55 152.717 Q2143.59 151.884 2141.83 150.171 Q2140.07 148.435 2140.07 145.426 Q2140.07 141.768 2142.66 139.778 Q2145.26 137.787 2150.03 137.787 Q2152.39 137.787 2154.47 138.134 Q2156.55 138.481 2158.31 139.176 Z" fill="#000000" fill-rule="nonzero" fill-opacity="1" /><path clip-path="url(#clip550)" d="M2186.67 143.389 Q2188.27 140.518 2190.49 139.153 Q2192.71 137.787 2195.72 137.787 Q2199.77 137.787 2201.97 140.634 Q2204.17 143.458 2204.17 148.689 L2204.17 164.338 L2199.89 164.338 L2199.89 148.828 Q2199.89 145.102 2198.57 143.296 Q2197.25 141.49 2194.54 141.49 Q2191.23 141.49 2189.31 143.69 Q2187.39 145.889 2187.39 149.685 L2187.39 164.338 L2183.1 164.338 L2183.1 148.828 Q2183.1 145.078 2181.78 143.296 Q2180.47 141.49 2177.71 141.49 Q2174.45 141.49 2172.53 143.713 Q2170.6 145.912 2170.6 149.685 L2170.6 164.338 L2166.32 164.338 L2166.32 138.412 L2170.6 138.412 L2170.6 142.44 Q2172.06 140.055 2174.1 138.921 Q2176.14 137.787 2178.94 137.787 Q2181.76 137.787 2183.73 139.222 Q2185.72 140.657 2186.67 143.389 Z" fill="#000000" fill-rule="nonzero" fill-opacity="1" /><path clip-path="url(#clip550)" d="M2222.71 141.398 Q2219.28 141.398 2217.29 144.083 Q2215.3 146.745 2215.3 151.398 Q2215.3 156.051 2217.27 158.736 Q2219.26 161.398 2222.71 161.398 Q2226.11 161.398 2228.1 158.713 Q2230.09 156.027 2230.09 151.398 Q2230.09 146.791 2228.1 144.106 Q2226.11 141.398 2222.71 141.398 M2222.71 137.787 Q2228.27 137.787 2231.44 141.398 Q2234.61 145.009 2234.61 151.398 Q2234.61 157.764 2231.44 161.398 Q2228.27 165.009 2222.71 165.009 Q2217.13 165.009 2213.96 161.398 Q2210.81 157.764 2210.81 151.398 Q2210.81 145.009 2213.96 141.398 Q2217.13 137.787 2222.71 137.787 Z" fill="#000000" fill-rule="nonzero" fill-opacity="1" /><path clip-path="url(#clip550)" d="M2251.72 141.398 Q2248.29 141.398 2246.3 144.083 Q2244.31 146.745 2244.31 151.398 Q2244.31 156.051 2246.28 158.736 Q2248.27 161.398 2251.72 161.398 Q2255.12 161.398 2257.11 158.713 Q2259.1 156.027 2259.1 151.398 Q2259.1 146.791 2257.11 144.106 Q2255.12 141.398 2251.72 141.398 M2251.72 137.787 Q2257.27 137.787 2260.44 141.398 Q2263.61 145.009 2263.61 151.398 Q2263.61 157.764 2260.44 161.398 Q2257.27 165.009 2251.72 165.009 Q2246.14 165.009 2242.97 161.398 Q2239.82 157.764 2239.82 151.398 Q2239.82 145.009 2242.97 141.398 Q2246.14 137.787 2251.72 137.787 Z" fill="#000000" fill-rule="nonzero" fill-opacity="1" /><path clip-path="url(#clip550)" d="M2274.89 131.051 L2274.89 138.412 L2283.66 138.412 L2283.66 141.722 L2274.89 141.722 L2274.89 155.796 Q2274.89 158.967 2275.74 159.87 Q2276.62 160.773 2279.28 160.773 L2283.66 160.773 L2283.66 164.338 L2279.28 164.338 Q2274.35 164.338 2272.48 162.509 Q2270.6 160.657 2270.6 155.796 L2270.6 141.722 L2267.48 141.722 L2267.48 138.412 L2270.6 138.412 L2270.6 131.051 L2274.89 131.051 Z" fill="#000000" fill-rule="nonzero" fill-opacity="1" /><path clip-path="url(#clip550)" d="M2310.81 148.689 L2310.81 164.338 L2306.55 164.338 L2306.55 148.828 Q2306.55 145.148 2305.12 143.319 Q2303.68 141.49 2300.81 141.49 Q2297.36 141.49 2295.37 143.69 Q2293.38 145.889 2293.38 149.685 L2293.38 164.338 L2289.1 164.338 L2289.1 128.319 L2293.38 128.319 L2293.38 142.44 Q2294.91 140.102 2296.97 138.944 Q2299.05 137.787 2301.76 137.787 Q2306.23 137.787 2308.52 140.565 Q2310.81 143.319 2310.81 148.689 Z" fill="#000000" fill-rule="nonzero" fill-opacity="1" /><polyline clip-path="url(#clip550)" style="stroke:#e26f46; stroke-linecap:round; stroke-linejoin:round; stroke-width:4; stroke-opacity:1; fill:none" points="1875.75,198.898 1938.66,198.898 "/>
<path clip-path="url(#clip550)" d="M1953.43 212.289 L1953.43 226.039 L1949.15 226.039 L1949.15 190.252 L1953.43 190.252 L1953.43 194.187 Q1954.77 191.872 1956.81 190.761 Q1958.87 189.627 1961.72 189.627 Q1966.44 189.627 1969.38 193.377 Q1972.34 197.127 1972.34 203.238 Q1972.34 209.349 1969.38 213.099 Q1966.44 216.849 1961.72 216.849 Q1958.87 216.849 1956.81 215.738 Q1954.77 214.603 1953.43 212.289 M1967.92 203.238 Q1967.92 198.539 1965.98 195.877 Q1964.05 193.192 1960.67 193.192 Q1957.3 193.192 1955.35 195.877 Q1953.43 198.539 1953.43 203.238 Q1953.43 207.937 1955.35 210.622 Q1957.3 213.284 1960.67 213.284 Q1964.05 213.284 1965.98 210.622 Q1967.92 207.937 1967.92 203.238 Z" fill="#000000" fill-rule="nonzero" fill-opacity="1" /><path clip-path="url(#clip550)" d="M1992.53 180.159 L1992.53 183.701 L1988.45 183.701 Q1986.16 183.701 1985.26 184.627 Q1984.38 185.553 1984.38 187.96 L1984.38 190.252 L1991.39 190.252 L1991.39 193.562 L1984.38 193.562 L1984.38 216.178 L1980.1 216.178 L1980.1 193.562 L1976.02 193.562 L1976.02 190.252 L1980.1 190.252 L1980.1 188.446 Q1980.1 184.118 1982.11 182.15 Q1984.12 180.159 1988.5 180.159 L1992.53 180.159 Z" fill="#000000" fill-rule="nonzero" fill-opacity="1" /><path clip-path="url(#clip550)" d="M2027.69 191.016 L2027.69 195.043 Q2025.88 194.117 2023.94 193.655 Q2021.99 193.192 2019.91 193.192 Q2016.74 193.192 2015.14 194.164 Q2013.57 195.136 2013.57 197.08 Q2013.57 198.562 2014.7 199.418 Q2015.84 200.252 2019.26 201.016 L2020.72 201.34 Q2025.26 202.312 2027.16 204.094 Q2029.08 205.854 2029.08 209.025 Q2029.08 212.636 2026.21 214.742 Q2023.36 216.849 2018.36 216.849 Q2016.28 216.849 2014.01 216.432 Q2011.76 216.039 2009.26 215.228 L2009.26 210.83 Q2011.62 212.057 2013.92 212.682 Q2016.21 213.284 2018.45 213.284 Q2021.46 213.284 2023.08 212.266 Q2024.7 211.224 2024.7 209.349 Q2024.7 207.613 2023.52 206.687 Q2022.36 205.761 2018.41 204.904 L2016.92 204.557 Q2012.97 203.724 2011.21 202.011 Q2009.45 200.275 2009.45 197.266 Q2009.45 193.608 2012.04 191.618 Q2014.63 189.627 2019.4 189.627 Q2021.76 189.627 2023.85 189.974 Q2025.93 190.321 2027.69 191.016 Z" fill="#000000" fill-rule="nonzero" fill-opacity="1" /><path clip-path="url(#clip550)" d="M2056.04 195.229 Q2057.64 192.358 2059.86 190.993 Q2062.09 189.627 2065.1 189.627 Q2069.15 189.627 2071.35 192.474 Q2073.54 195.298 2073.54 200.529 L2073.54 216.178 L2069.26 216.178 L2069.26 200.668 Q2069.26 196.942 2067.94 195.136 Q2066.62 193.33 2063.92 193.33 Q2060.6 193.33 2058.68 195.53 Q2056.76 197.729 2056.76 201.525 L2056.76 216.178 L2052.48 216.178 L2052.48 200.668 Q2052.48 196.918 2051.16 195.136 Q2049.84 193.33 2047.09 193.33 Q2043.82 193.33 2041.9 195.553 Q2039.98 197.752 2039.98 201.525 L2039.98 216.178 L2035.7 216.178 L2035.7 190.252 L2039.98 190.252 L2039.98 194.28 Q2041.44 191.895 2043.48 190.761 Q2045.51 189.627 2048.31 189.627 Q2051.14 189.627 2053.1 191.062 Q2055.1 192.497 2056.04 195.229 Z" fill="#000000" fill-rule="nonzero" fill-opacity="1" /><path clip-path="url(#clip550)" d="M2092.09 193.238 Q2088.66 193.238 2086.67 195.923 Q2084.68 198.585 2084.68 203.238 Q2084.68 207.891 2086.65 210.576 Q2088.64 213.238 2092.09 213.238 Q2095.49 213.238 2097.48 210.553 Q2099.47 207.867 2099.47 203.238 Q2099.47 198.631 2097.48 195.946 Q2095.49 193.238 2092.09 193.238 M2092.09 189.627 Q2097.64 189.627 2100.81 193.238 Q2103.98 196.849 2103.98 203.238 Q2103.98 209.604 2100.81 213.238 Q2097.64 216.849 2092.09 216.849 Q2086.51 216.849 2083.34 213.238 Q2080.19 209.604 2080.19 203.238 Q2080.19 196.849 2083.34 193.238 Q2086.51 189.627 2092.09 189.627 Z" fill="#000000" fill-rule="nonzero" fill-opacity="1" /><path clip-path="url(#clip550)" d="M2121.09 193.238 Q2117.66 193.238 2115.67 195.923 Q2113.68 198.585 2113.68 203.238 Q2113.68 207.891 2115.65 210.576 Q2117.64 213.238 2121.09 213.238 Q2124.49 213.238 2126.48 210.553 Q2128.47 207.867 2128.47 203.238 Q2128.47 198.631 2126.48 195.946 Q2124.49 193.238 2121.09 193.238 M2121.09 189.627 Q2126.65 189.627 2129.82 193.238 Q2132.99 196.849 2132.99 203.238 Q2132.99 209.604 2129.82 213.238 Q2126.65 216.849 2121.09 216.849 Q2115.51 216.849 2112.34 213.238 Q2109.19 209.604 2109.19 203.238 Q2109.19 196.849 2112.34 193.238 Q2115.51 189.627 2121.09 189.627 Z" fill="#000000" fill-rule="nonzero" fill-opacity="1" /><path clip-path="url(#clip550)" d="M2144.26 182.891 L2144.26 190.252 L2153.04 190.252 L2153.04 193.562 L2144.26 193.562 L2144.26 207.636 Q2144.26 210.807 2145.12 211.71 Q2146 212.613 2148.66 212.613 L2153.04 212.613 L2153.04 216.178 L2148.66 216.178 Q2143.73 216.178 2141.85 214.349 Q2139.98 212.497 2139.98 207.636 L2139.98 193.562 L2136.85 193.562 L2136.85 190.252 L2139.98 190.252 L2139.98 182.891 L2144.26 182.891 Z" fill="#000000" fill-rule="nonzero" fill-opacity="1" /><path clip-path="url(#clip550)" d="M2180.19 200.529 L2180.19 216.178 L2175.93 216.178 L2175.93 200.668 Q2175.93 196.988 2174.49 195.159 Q2173.06 193.33 2170.19 193.33 Q2166.74 193.33 2164.75 195.53 Q2162.76 197.729 2162.76 201.525 L2162.76 216.178 L2158.47 216.178 L2158.47 180.159 L2162.76 180.159 L2162.76 194.28 Q2164.28 191.942 2166.35 190.784 Q2168.43 189.627 2171.14 189.627 Q2175.6 189.627 2177.9 192.405 Q2180.19 195.159 2180.19 200.529 Z" fill="#000000" fill-rule="nonzero" fill-opacity="1" /><polyline clip-path="url(#clip550)" style="stroke:#3da44d; stroke-linecap:round; stroke-linejoin:round; stroke-width:4; stroke-opacity:1; fill:none" points="1875.75,250.738 1938.66,250.738 "/>
<path clip-path="url(#clip550)" d="M1956.55 234.731 L1956.55 242.092 L1965.33 242.092 L1965.33 245.402 L1956.55 245.402 L1956.55 259.476 Q1956.55 262.647 1957.41 263.55 Q1958.29 264.453 1960.95 264.453 L1965.33 264.453 L1965.33 268.018 L1960.95 268.018 Q1956.02 268.018 1954.15 266.189 Q1952.27 264.337 1952.27 259.476 L1952.27 245.402 L1949.15 245.402 L1949.15 242.092 L1952.27 242.092 L1952.27 234.731 L1956.55 234.731 Z" fill="#000000" fill-rule="nonzero" fill-opacity="1" /><path clip-path="url(#clip550)" d="M1985.95 246.073 Q1985.23 245.657 1984.38 245.471 Q1983.55 245.263 1982.53 245.263 Q1978.92 245.263 1976.97 247.624 Q1975.05 249.962 1975.05 254.36 L1975.05 268.018 L1970.77 268.018 L1970.77 242.092 L1975.05 242.092 L1975.05 246.12 Q1976.39 243.758 1978.55 242.624 Q1980.7 241.467 1983.78 241.467 Q1984.22 241.467 1984.75 241.536 Q1985.28 241.583 1985.93 241.698 L1985.95 246.073 Z" fill="#000000" fill-rule="nonzero" fill-opacity="1" /><path clip-path="url(#clip550)" d="M1989.98 257.786 L1989.98 242.092 L1994.24 242.092 L1994.24 257.624 Q1994.24 261.305 1995.67 263.156 Q1997.11 264.985 1999.98 264.985 Q2003.43 264.985 2005.42 262.786 Q2007.43 260.587 2007.43 256.791 L2007.43 242.092 L2011.69 242.092 L2011.69 268.018 L2007.43 268.018 L2007.43 264.036 Q2005.88 266.397 2003.82 267.555 Q2001.79 268.689 1999.08 268.689 Q1994.61 268.689 1992.3 265.911 Q1989.98 263.133 1989.98 257.786 M2000.7 241.467 L2000.7 241.467 Z" fill="#000000" fill-rule="nonzero" fill-opacity="1" /><path clip-path="url(#clip550)" d="M2042.64 253.99 L2042.64 256.073 L2023.06 256.073 Q2023.34 260.471 2025.7 262.786 Q2028.08 265.078 2032.32 265.078 Q2034.77 265.078 2037.06 264.476 Q2039.38 263.874 2041.65 262.67 L2041.65 266.698 Q2039.36 267.67 2036.95 268.18 Q2034.54 268.689 2032.06 268.689 Q2025.86 268.689 2022.23 265.078 Q2018.61 261.467 2018.61 255.309 Q2018.61 248.944 2022.04 245.217 Q2025.49 241.467 2031.32 241.467 Q2036.55 241.467 2039.59 244.846 Q2042.64 248.203 2042.64 253.99 M2038.38 252.74 Q2038.34 249.245 2036.42 247.161 Q2034.52 245.078 2031.37 245.078 Q2027.8 245.078 2025.65 247.092 Q2023.52 249.106 2023.2 252.763 L2038.38 252.74 Z" fill="#000000" fill-rule="nonzero" fill-opacity="1" /></svg>
