<?xml version="1.0" encoding="utf-8"?>
<svg xmlns="http://www.w3.org/2000/svg" xmlns:xlink="http://www.w3.org/1999/xlink" width="600" height="400" viewBox="0 0 2400 1600">
<defs>
  <clipPath id="clip440">
    <rect x="0" y="0" width="2400" height="1600"/>
  </clipPath>
</defs>
<path clip-path="url(#clip440)" d="M0 1600 L2400 1600 L2400 0 L0 0  Z" fill="#ffffff" fill-rule="evenodd" fill-opacity="1"/>
<defs>
  <clipPath id="clip441">
    <rect x="480" y="0" width="1681" height="1600"/>
  </clipPath>
</defs>
<path clip-path="url(#clip440)" d="M147.709 1486.45 L1152.76 1486.45 L1152.76 47.2441 L147.709 47.2441  Z" fill="#ffffff" fill-rule="evenodd" fill-opacity="1"/>
<defs>
  <clipPath id="clip442">
    <rect x="147" y="47" width="1006" height="1440"/>
  </clipPath>
</defs>
<polyline clip-path="url(#clip442)" style="stroke:#000000; stroke-linecap:round; stroke-linejoin:round; stroke-width:2; stroke-opacity:0.1; fill:none" points="164.152,1486.45 164.152,47.2441 "/>
<polyline clip-path="url(#clip442)" style="stroke:#000000; stroke-linecap:round; stroke-linejoin:round; stroke-width:2; stroke-opacity:0.1; fill:none" points="404.192,1486.45 404.192,47.2441 "/>
<polyline clip-path="url(#clip442)" style="stroke:#000000; stroke-linecap:round; stroke-linejoin:round; stroke-width:2; stroke-opacity:0.1; fill:none" points="644.232,1486.45 644.232,47.2441 "/>
<polyline clip-path="url(#clip442)" style="stroke:#000000; stroke-linecap:round; stroke-linejoin:round; stroke-width:2; stroke-opacity:0.1; fill:none" points="884.271,1486.45 884.271,47.2441 "/>
<polyline clip-path="url(#clip442)" style="stroke:#000000; stroke-linecap:round; stroke-linejoin:round; stroke-width:2; stroke-opacity:0.1; fill:none" points="1124.31,1486.45 1124.31,47.2441 "/>
<polyline clip-path="url(#clip442)" style="stroke:#000000; stroke-linecap:round; stroke-linejoin:round; stroke-width:2; stroke-opacity:0.1; fill:none" points="147.709,1275.61 1152.76,1275.61 "/>
<polyline clip-path="url(#clip442)" style="stroke:#000000; stroke-linecap:round; stroke-linejoin:round; stroke-width:2; stroke-opacity:0.1; fill:none" points="147.709,888.192 1152.76,888.192 "/>
<polyline clip-path="url(#clip442)" style="stroke:#000000; stroke-linecap:round; stroke-linejoin:round; stroke-width:2; stroke-opacity:0.1; fill:none" points="147.709,500.776 1152.76,500.776 "/>
<polyline clip-path="url(#clip442)" style="stroke:#000000; stroke-linecap:round; stroke-linejoin:round; stroke-width:2; stroke-opacity:0.1; fill:none" points="147.709,113.36 1152.76,113.36 "/>
<polyline clip-path="url(#clip440)" style="stroke:#000000; stroke-linecap:round; stroke-linejoin:round; stroke-width:4; stroke-opacity:1; fill:none" points="147.709,1486.45 1152.76,1486.45 "/>
<polyline clip-path="url(#clip440)" style="stroke:#000000; stroke-linecap:round; stroke-linejoin:round; stroke-width:4; stroke-opacity:1; fill:none" points="164.152,1486.45 164.152,1467.55 "/>
<polyline clip-path="url(#clip440)" style="stroke:#000000; stroke-linecap:round; stroke-linejoin:round; stroke-width:4; stroke-opacity:1; fill:none" points="404.192,1486.45 404.192,1467.55 "/>
<polyline clip-path="url(#clip440)" style="stroke:#000000; stroke-linecap:round; stroke-linejoin:round; stroke-width:4; stroke-opacity:1; fill:none" points="644.232,1486.45 644.232,1467.55 "/>
<polyline clip-path="url(#clip440)" style="stroke:#000000; stroke-linecap:round; stroke-linejoin:round; stroke-width:4; stroke-opacity:1; fill:none" points="884.271,1486.45 884.271,1467.55 "/>
<polyline clip-path="url(#clip440)" style="stroke:#000000; stroke-linecap:round; stroke-linejoin:round; stroke-width:4; stroke-opacity:1; fill:none" points="1124.31,1486.45 1124.31,1467.55 "/>
<path clip-path="url(#clip440)" d="M164.152 1517.37 Q160.541 1517.37 158.712 1520.93 Q156.907 1524.47 156.907 1531.6 Q156.907 1538.71 158.712 1542.27 Q160.541 1545.82 164.152 1545.82 Q167.786 1545.82 169.592 1542.27 Q171.421 1538.71 171.421 1531.6 Q171.421 1524.47 169.592 1520.93 Q167.786 1517.37 164.152 1517.37 M164.152 1513.66 Q169.962 1513.66 173.018 1518.27 Q176.096 1522.85 176.096 1531.6 Q176.096 1540.33 173.018 1544.94 Q169.962 1549.52 164.152 1549.52 Q158.342 1549.52 155.263 1544.94 Q152.208 1540.33 152.208 1531.6 Q152.208 1522.85 155.263 1518.27 Q158.342 1513.66 164.152 1513.66 Z" fill="#000000" fill-rule="nonzero" fill-opacity="1" /><path clip-path="url(#clip440)" d="M382.965 1544.91 L399.285 1544.91 L399.285 1548.85 L377.34 1548.85 L377.34 1544.91 Q380.002 1542.16 384.586 1537.53 Q389.192 1532.88 390.373 1531.53 Q392.618 1529.01 393.497 1527.27 Q394.4 1525.51 394.4 1523.82 Q394.4 1521.07 392.456 1519.33 Q390.535 1517.6 387.433 1517.6 Q385.234 1517.6 382.78 1518.36 Q380.349 1519.13 377.572 1520.68 L377.572 1515.95 Q380.396 1514.82 382.849 1514.24 Q385.303 1513.66 387.34 1513.66 Q392.71 1513.66 395.905 1516.35 Q399.099 1519.03 399.099 1523.52 Q399.099 1525.65 398.289 1527.57 Q397.502 1529.47 395.396 1532.07 Q394.817 1532.74 391.715 1535.95 Q388.613 1539.15 382.965 1544.91 Z" fill="#000000" fill-rule="nonzero" fill-opacity="1" /><path clip-path="url(#clip440)" d="M419.099 1517.37 Q415.488 1517.37 413.659 1520.93 Q411.854 1524.47 411.854 1531.6 Q411.854 1538.71 413.659 1542.27 Q415.488 1545.82 419.099 1545.82 Q422.733 1545.82 424.539 1542.27 Q426.368 1538.71 426.368 1531.6 Q426.368 1524.47 424.539 1520.93 Q422.733 1517.37 419.099 1517.37 M419.099 1513.66 Q424.909 1513.66 427.965 1518.27 Q431.044 1522.85 431.044 1531.6 Q431.044 1540.33 427.965 1544.94 Q424.909 1549.52 419.099 1549.52 Q413.289 1549.52 410.21 1544.94 Q407.155 1540.33 407.155 1531.6 Q407.155 1522.85 410.21 1518.27 Q413.289 1513.66 419.099 1513.66 Z" fill="#000000" fill-rule="nonzero" fill-opacity="1" /><path clip-path="url(#clip440)" d="M632.403 1518.36 L620.598 1536.81 L632.403 1536.81 L632.403 1518.36 M631.176 1514.29 L637.056 1514.29 L637.056 1536.81 L641.986 1536.81 L641.986 1540.7 L637.056 1540.7 L637.056 1548.85 L632.403 1548.85 L632.403 1540.7 L616.801 1540.7 L616.801 1536.19 L631.176 1514.29 Z" fill="#000000" fill-rule="nonzero" fill-opacity="1" /><path clip-path="url(#clip440)" d="M659.718 1517.37 Q656.107 1517.37 654.278 1520.93 Q652.472 1524.47 652.472 1531.6 Q652.472 1538.71 654.278 1542.27 Q656.107 1545.82 659.718 1545.82 Q663.352 1545.82 665.157 1542.27 Q666.986 1538.71 666.986 1531.6 Q666.986 1524.47 665.157 1520.93 Q663.352 1517.37 659.718 1517.37 M659.718 1513.66 Q665.528 1513.66 668.583 1518.27 Q671.662 1522.85 671.662 1531.6 Q671.662 1540.33 668.583 1544.94 Q665.528 1549.52 659.718 1549.52 Q653.908 1549.52 650.829 1544.94 Q647.773 1540.33 647.773 1531.6 Q647.773 1522.85 650.829 1518.27 Q653.908 1513.66 659.718 1513.66 Z" fill="#000000" fill-rule="nonzero" fill-opacity="1" /><path clip-path="url(#clip440)" d="M869.677 1529.7 Q866.528 1529.7 864.677 1531.86 Q862.848 1534.01 862.848 1537.76 Q862.848 1541.49 864.677 1543.66 Q866.528 1545.82 869.677 1545.82 Q872.825 1545.82 874.653 1543.66 Q876.505 1541.49 876.505 1537.76 Q876.505 1534.01 874.653 1531.86 Q872.825 1529.7 869.677 1529.7 M878.959 1515.05 L878.959 1519.31 Q877.2 1518.48 875.394 1518.04 Q873.612 1517.6 871.853 1517.6 Q867.223 1517.6 864.769 1520.72 Q862.339 1523.85 861.991 1530.17 Q863.357 1528.15 865.417 1527.09 Q867.478 1526 869.954 1526 Q875.163 1526 878.172 1529.17 Q881.204 1532.32 881.204 1537.76 Q881.204 1543.08 878.056 1546.3 Q874.908 1549.52 869.677 1549.52 Q863.681 1549.52 860.51 1544.94 Q857.339 1540.33 857.339 1531.6 Q857.339 1523.41 861.228 1518.55 Q865.116 1513.66 871.667 1513.66 Q873.427 1513.66 875.209 1514.01 Q877.015 1514.36 878.959 1515.05 Z" fill="#000000" fill-rule="nonzero" fill-opacity="1" /><path clip-path="url(#clip440)" d="M899.26 1517.37 Q895.649 1517.37 893.82 1520.93 Q892.014 1524.47 892.014 1531.6 Q892.014 1538.71 893.82 1542.27 Q895.649 1545.82 899.26 1545.82 Q902.894 1545.82 904.7 1542.27 Q906.528 1538.71 906.528 1531.6 Q906.528 1524.47 904.7 1520.93 Q902.894 1517.37 899.26 1517.37 M899.26 1513.66 Q905.07 1513.66 908.125 1518.27 Q911.204 1522.85 911.204 1531.6 Q911.204 1540.33 908.125 1544.94 Q905.07 1549.52 899.26 1549.52 Q893.45 1549.52 890.371 1544.94 Q887.315 1540.33 887.315 1531.6 Q887.315 1522.85 890.371 1518.27 Q893.45 1513.66 899.26 1513.66 Z" fill="#000000" fill-rule="nonzero" fill-opacity="1" /><path clip-path="url(#clip440)" d="M1109.18 1532.44 Q1105.85 1532.44 1103.93 1534.22 Q1102.03 1536 1102.03 1539.13 Q1102.03 1542.25 1103.93 1544.03 Q1105.85 1545.82 1109.18 1545.82 Q1112.52 1545.82 1114.44 1544.03 Q1116.36 1542.23 1116.36 1539.13 Q1116.36 1536 1114.44 1534.22 Q1112.54 1532.44 1109.18 1532.44 M1104.51 1530.45 Q1101.5 1529.7 1099.81 1527.64 Q1098.14 1525.58 1098.14 1522.62 Q1098.14 1518.48 1101.08 1516.07 Q1104.05 1513.66 1109.18 1513.66 Q1114.35 1513.66 1117.29 1516.07 Q1120.23 1518.48 1120.23 1522.62 Q1120.23 1525.58 1118.54 1527.64 Q1116.87 1529.7 1113.88 1530.45 Q1117.26 1531.23 1119.14 1533.52 Q1121.04 1535.82 1121.04 1539.13 Q1121.04 1544.15 1117.96 1546.83 Q1114.9 1549.52 1109.18 1549.52 Q1103.47 1549.52 1100.39 1546.83 Q1097.33 1544.15 1097.33 1539.13 Q1097.33 1535.82 1099.23 1533.52 Q1101.13 1531.23 1104.51 1530.45 M1102.8 1523.06 Q1102.8 1525.75 1104.46 1527.25 Q1106.15 1528.76 1109.18 1528.76 Q1112.19 1528.76 1113.88 1527.25 Q1115.6 1525.75 1115.6 1523.06 Q1115.6 1520.38 1113.88 1518.87 Q1112.19 1517.37 1109.18 1517.37 Q1106.15 1517.37 1104.46 1518.87 Q1102.8 1520.38 1102.8 1523.06 Z" fill="#000000" fill-rule="nonzero" fill-opacity="1" /><path clip-path="url(#clip440)" d="M1139.35 1517.37 Q1135.73 1517.37 1133.91 1520.93 Q1132.1 1524.47 1132.1 1531.6 Q1132.1 1538.71 1133.91 1542.27 Q1135.73 1545.82 1139.35 1545.82 Q1142.98 1545.82 1144.79 1542.27 Q1146.61 1538.71 1146.61 1531.6 Q1146.61 1524.47 1144.79 1520.93 Q1142.98 1517.37 1139.35 1517.37 M1139.35 1513.66 Q1145.16 1513.66 1148.21 1518.27 Q1151.29 1522.85 1151.29 1531.6 Q1151.29 1540.33 1148.21 1544.94 Q1145.16 1549.52 1139.35 1549.52 Q1133.54 1549.52 1130.46 1544.94 Q1127.4 1540.33 1127.4 1531.6 Q1127.4 1522.85 1130.46 1518.27 Q1133.54 1513.66 1139.35 1513.66 Z" fill="#000000" fill-rule="nonzero" fill-opacity="1" /><polyline clip-path="url(#clip440)" style="stroke:#000000; stroke-linecap:round; stroke-linejoin:round; stroke-width:4; stroke-opacity:1; fill:none" points="147.709,1486.45 147.709,47.2441 "/>
<polyline clip-path="url(#clip440)" style="stroke:#000000; stroke-linecap:round; stroke-linejoin:round; stroke-width:4; stroke-opacity:1; fill:none" points="147.709,1275.61 166.607,1275.61 "/>
<polyline clip-path="url(#clip440)" style="stroke:#000000; stroke-linecap:round; stroke-linejoin:round; stroke-width:4; stroke-opacity:1; fill:none" points="147.709,888.192 166.607,888.192 "/>
<polyline clip-path="url(#clip440)" style="stroke:#000000; stroke-linecap:round; stroke-linejoin:round; stroke-width:4; stroke-opacity:1; fill:none" points="147.709,500.776 166.607,500.776 "/>
<polyline clip-path="url(#clip440)" style="stroke:#000000; stroke-linecap:round; stroke-linejoin:round; stroke-width:4; stroke-opacity:1; fill:none" points="147.709,113.36 166.607,113.36 "/>
<path clip-path="url(#clip440)" d="M50.9921 1276.06 L80.6679 1276.06 L80.6679 1279.99 L50.9921 1279.99 L50.9921 1276.06 Z" fill="#000000" fill-rule="nonzero" fill-opacity="1" /><path clip-path="url(#clip440)" d="M90.8067 1258.33 L109.163 1258.33 L109.163 1262.26 L95.0891 1262.26 L95.0891 1270.73 Q96.1076 1270.39 97.1261 1270.23 Q98.1447 1270.04 99.1632 1270.04 Q104.95 1270.04 108.33 1273.21 Q111.709 1276.38 111.709 1281.8 Q111.709 1287.38 108.237 1290.48 Q104.765 1293.56 98.4456 1293.56 Q96.2697 1293.56 94.0012 1293.19 Q91.7558 1292.82 89.3484 1292.08 L89.3484 1287.38 Q91.4317 1288.51 93.6539 1289.07 Q95.8761 1289.62 98.353 1289.62 Q102.358 1289.62 104.696 1287.52 Q107.033 1285.41 107.033 1281.8 Q107.033 1278.19 104.696 1276.08 Q102.358 1273.98 98.353 1273.98 Q96.478 1273.98 94.603 1274.39 Q92.7512 1274.81 90.8067 1275.69 L90.8067 1258.33 Z" fill="#000000" fill-rule="nonzero" fill-opacity="1" /><path clip-path="url(#clip440)" d="M99.765 873.99 Q96.1539 873.99 94.3252 877.555 Q92.5197 881.097 92.5197 888.226 Q92.5197 895.333 94.3252 898.898 Q96.1539 902.439 99.765 902.439 Q103.399 902.439 105.205 898.898 Q107.033 895.333 107.033 888.226 Q107.033 881.097 105.205 877.555 Q103.399 873.99 99.765 873.99 M99.765 870.287 Q105.575 870.287 108.631 874.893 Q111.709 879.476 111.709 888.226 Q111.709 896.953 108.631 901.56 Q105.575 906.143 99.765 906.143 Q93.9549 906.143 90.8762 901.56 Q87.8206 896.953 87.8206 888.226 Q87.8206 879.476 90.8762 874.893 Q93.9549 870.287 99.765 870.287 Z" fill="#000000" fill-rule="nonzero" fill-opacity="1" /><path clip-path="url(#clip440)" d="M90.8067 483.496 L109.163 483.496 L109.163 487.431 L95.0891 487.431 L95.0891 495.903 Q96.1076 495.556 97.1261 495.394 Q98.1447 495.209 99.1632 495.209 Q104.95 495.209 108.33 498.38 Q111.709 501.551 111.709 506.968 Q111.709 512.547 108.237 515.648 Q104.765 518.727 98.4456 518.727 Q96.2697 518.727 94.0012 518.357 Q91.7558 517.986 89.3484 517.246 L89.3484 512.547 Q91.4317 513.681 93.6539 514.236 Q95.8761 514.792 98.353 514.792 Q102.358 514.792 104.696 512.685 Q107.033 510.579 107.033 506.968 Q107.033 503.357 104.696 501.25 Q102.358 499.144 98.353 499.144 Q96.478 499.144 94.603 499.561 Q92.7512 499.977 90.8067 500.857 L90.8067 483.496 Z" fill="#000000" fill-rule="nonzero" fill-opacity="1" /><path clip-path="url(#clip440)" d="M60.4134 126.705 L68.0522 126.705 L68.0522 100.339 L59.7421 102.006 L59.7421 97.7466 L68.0059 96.0799 L72.6818 96.0799 L72.6818 126.705 L80.3207 126.705 L80.3207 130.64 L60.4134 130.64 L60.4134 126.705 Z" fill="#000000" fill-rule="nonzero" fill-opacity="1" /><path clip-path="url(#clip440)" d="M99.765 99.1586 Q96.1539 99.1586 94.3252 102.723 Q92.5197 106.265 92.5197 113.395 Q92.5197 120.501 94.3252 124.066 Q96.1539 127.608 99.765 127.608 Q103.399 127.608 105.205 124.066 Q107.033 120.501 107.033 113.395 Q107.033 106.265 105.205 102.723 Q103.399 99.1586 99.765 99.1586 M99.765 95.4549 Q105.575 95.4549 108.631 100.061 Q111.709 104.645 111.709 113.395 Q111.709 122.121 108.631 126.728 Q105.575 131.311 99.765 131.311 Q93.9549 131.311 90.8762 126.728 Q87.8206 122.121 87.8206 113.395 Q87.8206 104.645 90.8762 100.061 Q93.9549 95.4549 99.765 95.4549 Z" fill="#000000" fill-rule="nonzero" fill-opacity="1" /><polyline clip-path="url(#clip442)" style="stroke:#009af9; stroke-linecap:round; stroke-linejoin:round; stroke-width:4; stroke-opacity:1; fill:none" points="176.154,982.191 188.156,1008.95 200.158,1011.73 212.16,1039.62 224.162,1062.7 236.164,1096.13 248.166,1107.44 260.168,1124.42 272.17,1141.28 284.172,1163.18 296.174,1177.91 308.176,1185.28 320.178,1161.16 332.18,1145.25 344.182,1124.74 356.184,1106.38 368.186,1089.49 380.188,1071.64 392.19,1057.16 404.192,1036.49 416.194,1005.05 428.196,956.601 440.198,916.949 452.2,875.614 464.202,823.25 476.204,778.799 488.206,757.105 500.208,723.384 512.21,703.708 524.212,668.694 536.214,657.683 548.216,641.056 560.218,630.12 572.22,623.31 584.222,615.132 596.224,626.834 608.226,655.218 620.228,660.65 632.23,661.526 644.232,659.998 656.234,668.702 668.236,669.162 680.238,693.962 692.24,698.475 704.242,714.731 716.244,735.605 728.246,742.907 740.248,737.443 752.25,740.981 764.252,721.624 776.254,702.2 788.256,680.664 800.258,651.801 812.259,634.928 824.261,596.676 836.263,557.184 848.265,530.932 860.267,506.585 872.269,478.309 884.271,448.745 896.273,432.696 908.275,412.352 920.277,387.935 932.279,381.329 944.281,392.437 956.283,426.156 968.285,455.528 980.287,469.654 992.289,518.05 1004.29,570.337 1016.29,645.602 1028.3,734.856 1040.3,828.646 1052.3,910.763 1064.3,995.112 1076.3,1086 1088.31,1156.85 1100.31,1238.19 1112.31,1303.73 1124.31,1367.9 "/>
<polyline clip-path="url(#clip442)" style="stroke:#e26f46; stroke-linecap:round; stroke-linejoin:round; stroke-width:4; stroke-opacity:1; fill:none" points="176.154,991.137 188.156,1007.02 200.158,1017.73 212.16,1063.22 224.162,1092.39 236.164,1127.76 248.166,1149.32 260.168,1171.56 272.17,1195.37 284.172,1218.54 296.174,1225.98 308.176,1224.06 320.178,1208.55 332.18,1171.66 344.182,1147.32 356.184,1133.37 368.186,1109.92 380.188,1097.28 392.19,1086.97 404.192,1065.81 416.194,1029.21 428.196,963.237 440.198,925.846 452.2,889.672 464.202,842.554 476.204,784.208 488.206,763.756 500.208,726.659 512.21,710.336 524.212,672.982 536.214,660.886 548.216,637.252 560.218,616.164 572.22,612.03 584.222,592.584 596.224,611.469 608.226,652.104 620.228,660.027 632.23,657.087 644.232,662.271 656.234,672.034 668.236,667.878 680.238,694.67 692.24,692.828 704.242,705.91 716.244,720.425 728.246,737.418 740.248,731.118 752.25,731.388 764.252,718.273 776.254,688.292 788.256,660.159 800.258,628.956 812.259,614.398 824.261,578.564 836.263,528.008 848.265,524.857 860.267,504.93 872.269,483.376 884.271,471.435 896.273,451.661 908.275,427.375 920.277,403.09 932.279,399.241 944.281,402.991 956.283,445.555 968.285,475.254 980.287,503.715 992.289,569.665 1004.29,641.825 1016.29,718.988 1028.3,817.148 1040.3,904.97 1052.3,1000.01 1064.3,1082.18 1076.3,1172.42 1088.31,1244 1100.31,1329 1112.31,1379.02 1124.31,1445.72 "/>
<polyline clip-path="url(#clip442)" style="stroke:#3da44d; stroke-linecap:round; stroke-linejoin:round; stroke-width:4; stroke-opacity:1; fill:none" points="176.154,921.868 188.156,1046.55 200.158,1147.49 212.16,1258.84 224.162,1230.98 236.164,1187.32 248.166,1290.67 260.168,1194.69 272.17,1279.33 284.172,1356.68 296.174,1238.28 308.176,1080.66 320.178,1068.35 332.18,1160.61 344.182,1056.16 356.184,1083.99 368.186,1206.75 380.188,1189.46 392.19,1224.89 404.192,1313.57 416.194,1402.68 428.196,1339.5 440.198,1341.35 452.2,1274.69 464.202,1145.72 476.204,1198.22 488.206,1093.21 500.208,1061.45 512.21,1059.79 524.212,1011.58 536.214,1007.27 548.216,892.43 560.218,930.789 572.22,760.429 584.222,729.062 596.224,733.469 608.226,826.756 620.228,817.04 632.23,558.4 644.232,573.226 656.234,601.465 668.236,642.607 680.238,577.686 692.24,593.628 704.242,657.475 716.244,663.315 728.246,731.606 740.248,647.061 752.25,657.773 764.252,614.692 776.254,580.514 788.256,693.497 800.258,664.47 812.259,752.926 824.261,583.058 836.263,556.56 848.265,509.486 860.267,435.431 872.269,450.335 884.271,414.73 896.273,346.641 908.275,251.292 920.277,235.207 932.279,121.782 944.281,87.9763 956.283,180.787 968.285,364.984 980.287,520.13 992.289,535.623 1004.29,528.86 1016.29,604.035 1028.3,802.304 1040.3,832.957 1052.3,853.458 1064.3,867.753 1076.3,923.594 1088.31,1105.89 1100.31,1202.34 1112.31,1102.24 1124.31,1299.34 "/>
<path clip-path="url(#clip440)" d="M181.211 302.578 L643.38 302.578 L643.38 95.2176 L181.211 95.2176  Z" fill="#ffffff" fill-rule="evenodd" fill-opacity="1"/>
<polyline clip-path="url(#clip440)" style="stroke:#000000; stroke-linecap:round; stroke-linejoin:round; stroke-width:4; stroke-opacity:1; fill:none" points="181.211,302.578 643.38,302.578 643.38,95.2176 181.211,95.2176 181.211,302.578 "/>
<polyline clip-path="url(#clip440)" style="stroke:#009af9; stroke-linecap:round; stroke-linejoin:round; stroke-width:4; stroke-opacity:1; fill:none" points="192.378,147.058 259.381,147.058 "/>
<path clip-path="url(#clip440)" d="M270.548 129.778 L275.224 129.778 L275.224 144.384 L290.733 129.778 L296.752 129.778 L279.599 145.889 L297.979 164.338 L291.821 164.338 L275.224 147.694 L275.224 164.338 L270.548 164.338 L270.548 129.778 Z" fill="#000000" fill-rule="nonzero" fill-opacity="1" /><path clip-path="url(#clip440)" d="M312.4 151.305 Q307.238 151.305 305.247 152.486 Q303.257 153.666 303.257 156.514 Q303.257 158.782 304.738 160.125 Q306.243 161.444 308.812 161.444 Q312.354 161.444 314.483 158.944 Q316.636 156.421 316.636 152.254 L316.636 151.305 L312.4 151.305 M320.895 149.546 L320.895 164.338 L316.636 164.338 L316.636 160.402 Q315.178 162.763 313.002 163.898 Q310.826 165.009 307.678 165.009 Q303.696 165.009 301.335 162.787 Q298.997 160.541 298.997 156.791 Q298.997 152.416 301.914 150.194 Q304.854 147.972 310.664 147.972 L316.636 147.972 L316.636 147.555 Q316.636 144.615 314.692 143.018 Q312.77 141.398 309.275 141.398 Q307.053 141.398 304.946 141.93 Q302.84 142.463 300.895 143.527 L300.895 139.592 Q303.233 138.69 305.432 138.25 Q307.632 137.787 309.715 137.787 Q315.34 137.787 318.118 140.703 Q320.895 143.62 320.895 149.546 Z" fill="#000000" fill-rule="nonzero" fill-opacity="1" /><path clip-path="url(#clip440)" d="M329.668 128.319 L333.928 128.319 L333.928 164.338 L329.668 164.338 L329.668 128.319 Z" fill="#000000" fill-rule="nonzero" fill-opacity="1" /><path clip-path="url(#clip440)" d="M363.025 143.389 Q364.622 140.518 366.844 139.153 Q369.066 137.787 372.076 137.787 Q376.127 137.787 378.326 140.634 Q380.525 143.458 380.525 148.689 L380.525 164.338 L376.242 164.338 L376.242 148.828 Q376.242 145.102 374.923 143.296 Q373.603 141.49 370.895 141.49 Q367.585 141.49 365.664 143.69 Q363.742 145.889 363.742 149.685 L363.742 164.338 L359.46 164.338 L359.46 148.828 Q359.46 145.078 358.141 143.296 Q356.821 141.49 354.066 141.49 Q350.803 141.49 348.881 143.713 Q346.96 145.912 346.96 149.685 L346.96 164.338 L342.678 164.338 L342.678 138.412 L346.96 138.412 L346.96 142.44 Q348.418 140.055 350.455 138.921 Q352.492 137.787 355.293 137.787 Q358.117 137.787 360.085 139.222 Q362.076 140.657 363.025 143.389 Z" fill="#000000" fill-rule="nonzero" fill-opacity="1" /><path clip-path="url(#clip440)" d="M400.802 151.305 Q395.64 151.305 393.65 152.486 Q391.659 153.666 391.659 156.514 Q391.659 158.782 393.14 160.125 Q394.645 161.444 397.214 161.444 Q400.756 161.444 402.886 158.944 Q405.038 156.421 405.038 152.254 L405.038 151.305 L400.802 151.305 M409.298 149.546 L409.298 164.338 L405.038 164.338 L405.038 160.402 Q403.58 162.763 401.404 163.898 Q399.228 165.009 396.08 165.009 Q392.099 165.009 389.738 162.787 Q387.4 160.541 387.4 156.791 Q387.4 152.416 390.316 150.194 Q393.256 147.972 399.066 147.972 L405.038 147.972 L405.038 147.555 Q405.038 144.615 403.094 143.018 Q401.173 141.398 397.677 141.398 Q395.455 141.398 393.349 141.93 Q391.242 142.463 389.298 143.527 L389.298 139.592 Q391.636 138.69 393.835 138.25 Q396.034 137.787 398.117 137.787 Q403.742 137.787 406.52 140.703 Q409.298 143.62 409.298 149.546 Z" fill="#000000" fill-rule="nonzero" fill-opacity="1" /><path clip-path="url(#clip440)" d="M439.622 148.689 L439.622 164.338 L435.362 164.338 L435.362 148.828 Q435.362 145.148 433.927 143.319 Q432.492 141.49 429.622 141.49 Q426.173 141.49 424.182 143.69 Q422.191 145.889 422.191 149.685 L422.191 164.338 L417.909 164.338 L417.909 138.412 L422.191 138.412 L422.191 142.44 Q423.719 140.102 425.779 138.944 Q427.862 137.787 430.571 137.787 Q435.038 137.787 437.33 140.565 Q439.622 143.319 439.622 148.689 Z" fill="#000000" fill-rule="nonzero" fill-opacity="1" /><path clip-path="url(#clip440)" d="M479.714 139.176 L479.714 143.203 Q477.908 142.277 475.964 141.815 Q474.02 141.352 471.936 141.352 Q468.765 141.352 467.168 142.324 Q465.594 143.296 465.594 145.24 Q465.594 146.722 466.728 147.578 Q467.862 148.412 471.288 149.176 L472.746 149.5 Q477.283 150.472 479.182 152.254 Q481.103 154.014 481.103 157.185 Q481.103 160.796 478.232 162.902 Q475.385 165.009 470.385 165.009 Q468.302 165.009 466.033 164.592 Q463.788 164.199 461.288 163.388 L461.288 158.99 Q463.649 160.217 465.941 160.842 Q468.233 161.444 470.478 161.444 Q473.487 161.444 475.108 160.426 Q476.728 159.384 476.728 157.509 Q476.728 155.773 475.547 154.847 Q474.39 153.921 470.432 153.064 L468.95 152.717 Q464.992 151.884 463.233 150.171 Q461.473 148.435 461.473 145.426 Q461.473 141.768 464.066 139.778 Q466.658 137.787 471.427 137.787 Q473.788 137.787 475.871 138.134 Q477.955 138.481 479.714 139.176 Z" fill="#000000" fill-rule="nonzero" fill-opacity="1" /><path clip-path="url(#clip440)" d="M508.07 143.389 Q509.668 140.518 511.89 139.153 Q514.112 137.787 517.121 137.787 Q521.172 137.787 523.371 140.634 Q525.57 143.458 525.57 148.689 L525.57 164.338 L521.288 164.338 L521.288 148.828 Q521.288 145.102 519.968 143.296 Q518.649 141.49 515.941 141.49 Q512.63 141.49 510.709 143.69 Q508.788 145.889 508.788 149.685 L508.788 164.338 L504.505 164.338 L504.505 148.828 Q504.505 145.078 503.186 143.296 Q501.867 141.49 499.112 141.49 Q495.848 141.49 493.927 143.713 Q492.006 145.912 492.006 149.685 L492.006 164.338 L487.723 164.338 L487.723 138.412 L492.006 138.412 L492.006 142.44 Q493.464 140.055 495.501 138.921 Q497.538 137.787 500.339 137.787 Q503.163 137.787 505.13 139.222 Q507.121 140.657 508.07 143.389 Z" fill="#000000" fill-rule="nonzero" fill-opacity="1" /><path clip-path="url(#clip440)" d="M544.112 141.398 Q540.686 141.398 538.695 144.083 Q536.704 146.745 536.704 151.398 Q536.704 156.051 538.672 158.736 Q540.663 161.398 544.112 161.398 Q547.515 161.398 549.505 158.713 Q551.496 156.027 551.496 151.398 Q551.496 146.791 549.505 144.106 Q547.515 141.398 544.112 141.398 M544.112 137.787 Q549.667 137.787 552.839 141.398 Q556.01 145.009 556.01 151.398 Q556.01 157.764 552.839 161.398 Q549.667 165.009 544.112 165.009 Q538.533 165.009 535.362 161.398 Q532.214 157.764 532.214 151.398 Q532.214 145.009 535.362 141.398 Q538.533 137.787 544.112 137.787 Z" fill="#000000" fill-rule="nonzero" fill-opacity="1" /><path clip-path="url(#clip440)" d="M573.116 141.398 Q569.69 141.398 567.7 144.083 Q565.709 146.745 565.709 151.398 Q565.709 156.051 567.676 158.736 Q569.667 161.398 573.116 161.398 Q576.519 161.398 578.51 158.713 Q580.5 156.027 580.5 151.398 Q580.5 146.791 578.51 144.106 Q576.519 141.398 573.116 141.398 M573.116 137.787 Q578.672 137.787 581.843 141.398 Q585.014 145.009 585.014 151.398 Q585.014 157.764 581.843 161.398 Q578.672 165.009 573.116 165.009 Q567.538 165.009 564.366 161.398 Q561.218 157.764 561.218 151.398 Q561.218 145.009 564.366 141.398 Q567.538 137.787 573.116 137.787 Z" fill="#000000" fill-rule="nonzero" fill-opacity="1" /><path clip-path="url(#clip440)" d="M596.287 131.051 L596.287 138.412 L605.061 138.412 L605.061 141.722 L596.287 141.722 L596.287 155.796 Q596.287 158.967 597.144 159.87 Q598.024 160.773 600.686 160.773 L605.061 160.773 L605.061 164.338 L600.686 164.338 Q595.755 164.338 593.88 162.509 Q592.005 160.657 592.005 155.796 L592.005 141.722 L588.88 141.722 L588.88 138.412 L592.005 138.412 L592.005 131.051 L596.287 131.051 Z" fill="#000000" fill-rule="nonzero" fill-opacity="1" /><path clip-path="url(#clip440)" d="M632.213 148.689 L632.213 164.338 L627.954 164.338 L627.954 148.828 Q627.954 145.148 626.519 143.319 Q625.084 141.49 622.213 141.49 Q618.764 141.49 616.773 143.69 Q614.783 145.889 614.783 149.685 L614.783 164.338 L610.5 164.338 L610.5 128.319 L614.783 128.319 L614.783 142.44 Q616.31 140.102 618.371 138.944 Q620.454 137.787 623.162 137.787 Q627.63 137.787 629.921 140.565 Q632.213 143.319 632.213 148.689 Z" fill="#000000" fill-rule="nonzero" fill-opacity="1" /><polyline clip-path="url(#clip440)" style="stroke:#e26f46; stroke-linecap:round; stroke-linejoin:round; stroke-width:4; stroke-opacity:1; fill:none" points="192.378,198.898 259.381,198.898 "/>
<path clip-path="url(#clip440)" d="M274.831 212.289 L274.831 226.039 L270.548 226.039 L270.548 190.252 L274.831 190.252 L274.831 194.187 Q276.173 191.872 278.21 190.761 Q280.271 189.627 283.118 189.627 Q287.84 189.627 290.78 193.377 Q293.743 197.127 293.743 203.238 Q293.743 209.349 290.78 213.099 Q287.84 216.849 283.118 216.849 Q280.271 216.849 278.21 215.738 Q276.173 214.603 274.831 212.289 M289.321 203.238 Q289.321 198.539 287.377 195.877 Q285.456 193.192 282.076 193.192 Q278.697 193.192 276.752 195.877 Q274.831 198.539 274.831 203.238 Q274.831 207.937 276.752 210.622 Q278.697 213.284 282.076 213.284 Q285.456 213.284 287.377 210.622 Q289.321 207.937 289.321 203.238 Z" fill="#000000" fill-rule="nonzero" fill-opacity="1" /><path clip-path="url(#clip440)" d="M313.928 180.159 L313.928 183.701 L309.854 183.701 Q307.562 183.701 306.659 184.627 Q305.78 185.553 305.78 187.96 L305.78 190.252 L312.794 190.252 L312.794 193.562 L305.78 193.562 L305.78 216.178 L301.497 216.178 L301.497 193.562 L297.423 193.562 L297.423 190.252 L301.497 190.252 L301.497 188.446 Q301.497 184.118 303.511 182.15 Q305.525 180.159 309.9 180.159 L313.928 180.159 Z" fill="#000000" fill-rule="nonzero" fill-opacity="1" /><path clip-path="url(#clip440)" d="M349.09 191.016 L349.09 195.043 Q347.284 194.117 345.34 193.655 Q343.395 193.192 341.312 193.192 Q338.141 193.192 336.543 194.164 Q334.969 195.136 334.969 197.08 Q334.969 198.562 336.104 199.418 Q337.238 200.252 340.664 201.016 L342.122 201.34 Q346.659 202.312 348.557 204.094 Q350.479 205.854 350.479 209.025 Q350.479 212.636 347.608 214.742 Q344.761 216.849 339.761 216.849 Q337.678 216.849 335.409 216.432 Q333.164 216.039 330.664 215.228 L330.664 210.83 Q333.025 212.057 335.317 212.682 Q337.608 213.284 339.854 213.284 Q342.863 213.284 344.483 212.266 Q346.104 211.224 346.104 209.349 Q346.104 207.613 344.923 206.687 Q343.766 205.761 339.807 204.904 L338.326 204.557 Q334.368 203.724 332.608 202.011 Q330.849 200.275 330.849 197.266 Q330.849 193.608 333.442 191.618 Q336.034 189.627 340.803 189.627 Q343.164 189.627 345.247 189.974 Q347.33 190.321 349.09 191.016 Z" fill="#000000" fill-rule="nonzero" fill-opacity="1" /><path clip-path="url(#clip440)" d="M377.446 195.229 Q379.043 192.358 381.265 190.993 Q383.488 189.627 386.497 189.627 Q390.548 189.627 392.747 192.474 Q394.946 195.298 394.946 200.529 L394.946 216.178 L390.664 216.178 L390.664 200.668 Q390.664 196.942 389.344 195.136 Q388.025 193.33 385.316 193.33 Q382.006 193.33 380.085 195.53 Q378.164 197.729 378.164 201.525 L378.164 216.178 L373.881 216.178 L373.881 200.668 Q373.881 196.918 372.562 195.136 Q371.242 193.33 368.488 193.33 Q365.224 193.33 363.303 195.553 Q361.381 197.752 361.381 201.525 L361.381 216.178 L357.099 216.178 L357.099 190.252 L361.381 190.252 L361.381 194.28 Q362.84 191.895 364.877 190.761 Q366.914 189.627 369.715 189.627 Q372.539 189.627 374.506 191.062 Q376.497 192.497 377.446 195.229 Z" fill="#000000" fill-rule="nonzero" fill-opacity="1" /><path clip-path="url(#clip440)" d="M413.487 193.238 Q410.062 193.238 408.071 195.923 Q406.08 198.585 406.08 203.238 Q406.08 207.891 408.048 210.576 Q410.038 213.238 413.487 213.238 Q416.89 213.238 418.881 210.553 Q420.872 207.867 420.872 203.238 Q420.872 198.631 418.881 195.946 Q416.89 193.238 413.487 193.238 M413.487 189.627 Q419.043 189.627 422.214 193.238 Q425.386 196.849 425.386 203.238 Q425.386 209.604 422.214 213.238 Q419.043 216.849 413.487 216.849 Q407.909 216.849 404.738 213.238 Q401.589 209.604 401.589 203.238 Q401.589 196.849 404.738 193.238 Q407.909 189.627 413.487 189.627 Z" fill="#000000" fill-rule="nonzero" fill-opacity="1" /><path clip-path="url(#clip440)" d="M442.492 193.238 Q439.066 193.238 437.075 195.923 Q435.085 198.585 435.085 203.238 Q435.085 207.891 437.052 210.576 Q439.043 213.238 442.492 213.238 Q445.895 213.238 447.885 210.553 Q449.876 207.867 449.876 203.238 Q449.876 198.631 447.885 195.946 Q445.895 193.238 442.492 193.238 M442.492 189.627 Q448.047 189.627 451.219 193.238 Q454.39 196.849 454.39 203.238 Q454.39 209.604 451.219 213.238 Q448.047 216.849 442.492 216.849 Q436.913 216.849 433.742 213.238 Q430.594 209.604 430.594 203.238 Q430.594 196.849 433.742 193.238 Q436.913 189.627 442.492 189.627 Z" fill="#000000" fill-rule="nonzero" fill-opacity="1" /><path clip-path="url(#clip440)" d="M465.663 182.891 L465.663 190.252 L474.436 190.252 L474.436 193.562 L465.663 193.562 L465.663 207.636 Q465.663 210.807 466.52 211.71 Q467.399 212.613 470.061 212.613 L474.436 212.613 L474.436 216.178 L470.061 216.178 Q465.131 216.178 463.256 214.349 Q461.381 212.497 461.381 207.636 L461.381 193.562 L458.256 193.562 L458.256 190.252 L461.381 190.252 L461.381 182.891 L465.663 182.891 Z" fill="#000000" fill-rule="nonzero" fill-opacity="1" /><path clip-path="url(#clip440)" d="M501.589 200.529 L501.589 216.178 L497.33 216.178 L497.33 200.668 Q497.33 196.988 495.894 195.159 Q494.459 193.33 491.589 193.33 Q488.14 193.33 486.149 195.53 Q484.158 197.729 484.158 201.525 L484.158 216.178 L479.876 216.178 L479.876 180.159 L484.158 180.159 L484.158 194.28 Q485.686 191.942 487.746 190.784 Q489.83 189.627 492.538 189.627 Q497.006 189.627 499.297 192.405 Q501.589 195.159 501.589 200.529 Z" fill="#000000" fill-rule="nonzero" fill-opacity="1" /><polyline clip-path="url(#clip440)" style="stroke:#3da44d; stroke-linecap:round; stroke-linejoin:round; stroke-width:4; stroke-opacity:1; fill:none" points="192.378,250.738 259.381,250.738 "/>
<path clip-path="url(#clip440)" d="M277.956 234.731 L277.956 242.092 L286.729 242.092 L286.729 245.402 L277.956 245.402 L277.956 259.476 Q277.956 262.647 278.812 263.55 Q279.692 264.453 282.354 264.453 L286.729 264.453 L286.729 268.018 L282.354 268.018 Q277.423 268.018 275.548 266.189 Q273.673 264.337 273.673 259.476 L273.673 245.402 L270.548 245.402 L270.548 242.092 L273.673 242.092 L273.673 234.731 L277.956 234.731 Z" fill="#000000" fill-rule="nonzero" fill-opacity="1" /><path clip-path="url(#clip440)" d="M307.354 246.073 Q306.636 245.657 305.78 245.471 Q304.946 245.263 303.928 245.263 Q300.317 245.263 298.372 247.624 Q296.451 249.962 296.451 254.36 L296.451 268.018 L292.169 268.018 L292.169 242.092 L296.451 242.092 L296.451 246.12 Q297.794 243.758 299.946 242.624 Q302.099 241.467 305.178 241.467 Q305.618 241.467 306.15 241.536 Q306.682 241.583 307.331 241.698 L307.354 246.073 Z" fill="#000000" fill-rule="nonzero" fill-opacity="1" /><path clip-path="url(#clip440)" d="M311.382 257.786 L311.382 242.092 L315.641 242.092 L315.641 257.624 Q315.641 261.305 317.076 263.156 Q318.511 264.985 321.381 264.985 Q324.831 264.985 326.821 262.786 Q328.835 260.587 328.835 256.791 L328.835 242.092 L333.094 242.092 L333.094 268.018 L328.835 268.018 L328.835 264.036 Q327.284 266.397 325.224 267.555 Q323.187 268.689 320.479 268.689 Q316.011 268.689 313.696 265.911 Q311.382 263.133 311.382 257.786 M322.099 241.467 L322.099 241.467 Z" fill="#000000" fill-rule="nonzero" fill-opacity="1" /><path clip-path="url(#clip440)" d="M364.043 253.99 L364.043 256.073 L344.46 256.073 Q344.738 260.471 347.099 262.786 Q349.483 265.078 353.719 265.078 Q356.173 265.078 358.465 264.476 Q360.779 263.874 363.048 262.67 L363.048 266.698 Q360.756 267.67 358.349 268.18 Q355.941 268.689 353.465 268.689 Q347.261 268.689 343.627 265.078 Q340.016 261.467 340.016 255.309 Q340.016 248.944 343.442 245.217 Q346.891 241.467 352.724 241.467 Q357.955 241.467 360.988 244.846 Q364.043 248.203 364.043 253.99 M359.784 252.74 Q359.738 249.245 357.816 247.161 Q355.918 245.078 352.77 245.078 Q349.205 245.078 347.053 247.092 Q344.923 249.106 344.599 252.763 L359.784 252.74 Z" fill="#000000" fill-rule="nonzero" fill-opacity="1" /><path clip-path="url(#clip440)" d="M1347.71 1486.45 L2352.76 1486.45 L2352.76 47.2441 L1347.71 47.2441  Z" fill="#ffffff" fill-rule="evenodd" fill-opacity="1"/>
<defs>
  <clipPath id="clip443">
    <rect x="1347" y="47" width="1006" height="1440"/>
  </clipPath>
</defs>
<polyline clip-path="url(#clip443)" style="stroke:#000000; stroke-linecap:round; stroke-linejoin:round; stroke-width:2; stroke-opacity:0.1; fill:none" points="1364.15,1486.45 1364.15,47.2441 "/>
<polyline clip-path="url(#clip443)" style="stroke:#000000; stroke-linecap:round; stroke-linejoin:round; stroke-width:2; stroke-opacity:0.1; fill:none" points="1604.19,1486.45 1604.19,47.2441 "/>
<polyline clip-path="url(#clip443)" style="stroke:#000000; stroke-linecap:round; stroke-linejoin:round; stroke-width:2; stroke-opacity:0.1; fill:none" points="1844.23,1486.45 1844.23,47.2441 "/>
<polyline clip-path="url(#clip443)" style="stroke:#000000; stroke-linecap:round; stroke-linejoin:round; stroke-width:2; stroke-opacity:0.1; fill:none" points="2084.27,1486.45 2084.27,47.2441 "/>
<polyline clip-path="url(#clip443)" style="stroke:#000000; stroke-linecap:round; stroke-linejoin:round; stroke-width:2; stroke-opacity:0.1; fill:none" points="2324.31,1486.45 2324.31,47.2441 "/>
<polyline clip-path="url(#clip443)" style="stroke:#000000; stroke-linecap:round; stroke-linejoin:round; stroke-width:2; stroke-opacity:0.1; fill:none" points="1347.71,1370.29 2352.76,1370.29 "/>
<polyline clip-path="url(#clip443)" style="stroke:#000000; stroke-linecap:round; stroke-linejoin:round; stroke-width:2; stroke-opacity:0.1; fill:none" points="1347.71,1007.13 2352.76,1007.13 "/>
<polyline clip-path="url(#clip443)" style="stroke:#000000; stroke-linecap:round; stroke-linejoin:round; stroke-width:2; stroke-opacity:0.1; fill:none" points="1347.71,643.961 2352.76,643.961 "/>
<polyline clip-path="url(#clip443)" style="stroke:#000000; stroke-linecap:round; stroke-linejoin:round; stroke-width:2; stroke-opacity:0.1; fill:none" points="1347.71,280.794 2352.76,280.794 "/>
<polyline clip-path="url(#clip440)" style="stroke:#000000; stroke-linecap:round; stroke-linejoin:round; stroke-width:4; stroke-opacity:1; fill:none" points="1347.71,1486.45 2352.76,1486.45 "/>
<polyline clip-path="url(#clip440)" style="stroke:#000000; stroke-linecap:round; stroke-linejoin:round; stroke-width:4; stroke-opacity:1; fill:none" points="1364.15,1486.45 1364.15,1467.55 "/>
<polyline clip-path="url(#clip440)" style="stroke:#000000; stroke-linecap:round; stroke-linejoin:round; stroke-width:4; stroke-opacity:1; fill:none" points="1604.19,1486.45 1604.19,1467.55 "/>
<polyline clip-path="url(#clip440)" style="stroke:#000000; stroke-linecap:round; stroke-linejoin:round; stroke-width:4; stroke-opacity:1; fill:none" points="1844.23,1486.45 1844.23,1467.55 "/>
<polyline clip-path="url(#clip440)" style="stroke:#000000; stroke-linecap:round; stroke-linejoin:round; stroke-width:4; stroke-opacity:1; fill:none" points="2084.27,1486.45 2084.27,1467.55 "/>
<polyline clip-path="url(#clip440)" style="stroke:#000000; stroke-linecap:round; stroke-linejoin:round; stroke-width:4; stroke-opacity:1; fill:none" points="2324.31,1486.45 2324.31,1467.55 "/>
<path clip-path="url(#clip440)" d="M1364.15 1517.37 Q1360.54 1517.37 1358.71 1520.93 Q1356.91 1524.47 1356.91 1531.6 Q1356.91 1538.71 1358.71 1542.27 Q1360.54 1545.82 1364.15 1545.82 Q1367.79 1545.82 1369.59 1542.27 Q1371.42 1538.71 1371.42 1531.6 Q1371.42 1524.47 1369.59 1520.93 Q1367.79 1517.37 1364.15 1517.37 M1364.15 1513.66 Q1369.96 1513.66 1373.02 1518.27 Q1376.1 1522.85 1376.1 1531.6 Q1376.1 1540.33 1373.02 1544.94 Q1369.96 1549.52 1364.15 1549.52 Q1358.34 1549.52 1355.26 1544.94 Q1352.21 1540.33 1352.21 1531.6 Q1352.21 1522.85 1355.26 1518.27 Q1358.34 1513.66 1364.15 1513.66 Z" fill="#000000" fill-rule="nonzero" fill-opacity="1" /><path clip-path="url(#clip440)" d="M1582.97 1544.91 L1599.28 1544.91 L1599.28 1548.85 L1577.34 1548.85 L1577.34 1544.91 Q1580 1542.16 1584.59 1537.53 Q1589.19 1532.88 1590.37 1531.53 Q1592.62 1529.01 1593.5 1527.27 Q1594.4 1525.51 1594.4 1523.82 Q1594.4 1521.07 1592.46 1519.33 Q1590.53 1517.6 1587.43 1517.6 Q1585.23 1517.6 1582.78 1518.36 Q1580.35 1519.13 1577.57 1520.68 L1577.57 1515.95 Q1580.4 1514.82 1582.85 1514.24 Q1585.3 1513.66 1587.34 1513.66 Q1592.71 1513.66 1595.9 1516.35 Q1599.1 1519.03 1599.1 1523.52 Q1599.1 1525.65 1598.29 1527.57 Q1597.5 1529.47 1595.4 1532.07 Q1594.82 1532.74 1591.72 1535.95 Q1588.61 1539.15 1582.97 1544.91 Z" fill="#000000" fill-rule="nonzero" fill-opacity="1" /><path clip-path="url(#clip440)" d="M1619.1 1517.37 Q1615.49 1517.37 1613.66 1520.93 Q1611.85 1524.47 1611.85 1531.6 Q1611.85 1538.71 1613.66 1542.27 Q1615.49 1545.82 1619.1 1545.82 Q1622.73 1545.82 1624.54 1542.27 Q1626.37 1538.71 1626.37 1531.6 Q1626.37 1524.47 1624.54 1520.93 Q1622.73 1517.37 1619.1 1517.37 M1619.1 1513.66 Q1624.91 1513.66 1627.96 1518.27 Q1631.04 1522.85 1631.04 1531.6 Q1631.04 1540.33 1627.96 1544.94 Q1624.91 1549.52 1619.1 1549.52 Q1613.29 1549.52 1610.21 1544.94 Q1607.15 1540.33 1607.15 1531.6 Q1607.15 1522.85 1610.21 1518.27 Q1613.29 1513.66 1619.1 1513.66 Z" fill="#000000" fill-rule="nonzero" fill-opacity="1" /><path clip-path="url(#clip440)" d="M1832.4 1518.36 L1820.6 1536.81 L1832.4 1536.81 L1832.4 1518.36 M1831.18 1514.29 L1837.06 1514.29 L1837.06 1536.81 L1841.99 1536.81 L1841.99 1540.7 L1837.06 1540.7 L1837.06 1548.85 L1832.4 1548.85 L1832.4 1540.7 L1816.8 1540.7 L1816.8 1536.19 L1831.18 1514.29 Z" fill="#000000" fill-rule="nonzero" fill-opacity="1" /><path clip-path="url(#clip440)" d="M1859.72 1517.37 Q1856.11 1517.37 1854.28 1520.93 Q1852.47 1524.47 1852.47 1531.6 Q1852.47 1538.71 1854.28 1542.27 Q1856.11 1545.82 1859.72 1545.82 Q1863.35 1545.82 1865.16 1542.27 Q1866.99 1538.71 1866.99 1531.6 Q1866.99 1524.47 1865.16 1520.93 Q1863.35 1517.37 1859.72 1517.37 M1859.72 1513.66 Q1865.53 1513.66 1868.58 1518.27 Q1871.66 1522.85 1871.66 1531.6 Q1871.66 1540.33 1868.58 1544.94 Q1865.53 1549.52 1859.72 1549.52 Q1853.91 1549.52 1850.83 1544.94 Q1847.77 1540.33 1847.77 1531.6 Q1847.77 1522.85 1850.83 1518.27 Q1853.91 1513.66 1859.72 1513.66 Z" fill="#000000" fill-rule="nonzero" fill-opacity="1" /><path clip-path="url(#clip440)" d="M2069.68 1529.7 Q2066.53 1529.7 2064.68 1531.86 Q2062.85 1534.01 2062.85 1537.76 Q2062.85 1541.49 2064.68 1543.66 Q2066.53 1545.82 2069.68 1545.82 Q2072.82 1545.82 2074.65 1543.66 Q2076.51 1541.49 2076.51 1537.76 Q2076.51 1534.01 2074.65 1531.86 Q2072.82 1529.7 2069.68 1529.7 M2078.96 1515.05 L2078.96 1519.31 Q2077.2 1518.48 2075.39 1518.04 Q2073.61 1517.6 2071.85 1517.6 Q2067.22 1517.6 2064.77 1520.72 Q2062.34 1523.85 2061.99 1530.17 Q2063.36 1528.15 2065.42 1527.09 Q2067.48 1526 2069.95 1526 Q2075.16 1526 2078.17 1529.17 Q2081.2 1532.32 2081.2 1537.76 Q2081.2 1543.08 2078.06 1546.3 Q2074.91 1549.52 2069.68 1549.52 Q2063.68 1549.52 2060.51 1544.94 Q2057.34 1540.33 2057.34 1531.6 Q2057.34 1523.41 2061.23 1518.55 Q2065.12 1513.66 2071.67 1513.66 Q2073.43 1513.66 2075.21 1514.01 Q2077.01 1514.36 2078.96 1515.05 Z" fill="#000000" fill-rule="nonzero" fill-opacity="1" /><path clip-path="url(#clip440)" d="M2099.26 1517.37 Q2095.65 1517.37 2093.82 1520.93 Q2092.01 1524.47 2092.01 1531.6 Q2092.01 1538.71 2093.82 1542.27 Q2095.65 1545.82 2099.26 1545.82 Q2102.89 1545.82 2104.7 1542.27 Q2106.53 1538.71 2106.53 1531.6 Q2106.53 1524.47 2104.7 1520.93 Q2102.89 1517.37 2099.26 1517.37 M2099.26 1513.66 Q2105.07 1513.66 2108.13 1518.27 Q2111.2 1522.85 2111.2 1531.6 Q2111.2 1540.33 2108.13 1544.94 Q2105.07 1549.52 2099.26 1549.52 Q2093.45 1549.52 2090.37 1544.94 Q2087.32 1540.33 2087.32 1531.6 Q2087.32 1522.85 2090.37 1518.27 Q2093.45 1513.66 2099.26 1513.66 Z" fill="#000000" fill-rule="nonzero" fill-opacity="1" /><path clip-path="url(#clip440)" d="M2309.18 1532.44 Q2305.85 1532.44 2303.93 1534.22 Q2302.03 1536 2302.03 1539.13 Q2302.03 1542.25 2303.93 1544.03 Q2305.85 1545.82 2309.18 1545.82 Q2312.52 1545.82 2314.44 1544.03 Q2316.36 1542.23 2316.36 1539.13 Q2316.36 1536 2314.44 1534.22 Q2312.54 1532.44 2309.18 1532.44 M2304.51 1530.45 Q2301.5 1529.7 2299.81 1527.64 Q2298.14 1525.58 2298.14 1522.62 Q2298.14 1518.48 2301.08 1516.07 Q2304.05 1513.66 2309.18 1513.66 Q2314.35 1513.66 2317.29 1516.07 Q2320.23 1518.48 2320.23 1522.62 Q2320.23 1525.58 2318.54 1527.64 Q2316.87 1529.7 2313.88 1530.45 Q2317.26 1531.23 2319.14 1533.52 Q2321.04 1535.82 2321.04 1539.13 Q2321.04 1544.15 2317.96 1546.83 Q2314.9 1549.52 2309.18 1549.52 Q2303.47 1549.52 2300.39 1546.83 Q2297.33 1544.15 2297.33 1539.13 Q2297.33 1535.82 2299.23 1533.52 Q2301.13 1531.23 2304.51 1530.45 M2302.8 1523.06 Q2302.8 1525.75 2304.46 1527.25 Q2306.15 1528.76 2309.18 1528.76 Q2312.19 1528.76 2313.88 1527.25 Q2315.6 1525.75 2315.6 1523.06 Q2315.6 1520.38 2313.88 1518.87 Q2312.19 1517.37 2309.18 1517.37 Q2306.15 1517.37 2304.46 1518.87 Q2302.8 1520.38 2302.8 1523.06 Z" fill="#000000" fill-rule="nonzero" fill-opacity="1" /><path clip-path="url(#clip440)" d="M2339.35 1517.37 Q2335.73 1517.37 2333.91 1520.93 Q2332.1 1524.47 2332.1 1531.6 Q2332.1 1538.71 2333.91 1542.27 Q2335.73 1545.82 2339.35 1545.82 Q2342.98 1545.82 2344.79 1542.27 Q2346.61 1538.71 2346.61 1531.6 Q2346.61 1524.47 2344.79 1520.93 Q2342.98 1517.37 2339.35 1517.37 M2339.35 1513.66 Q2345.16 1513.66 2348.21 1518.27 Q2351.29 1522.85 2351.29 1531.6 Q2351.29 1540.33 2348.21 1544.94 Q2345.16 1549.52 2339.35 1549.52 Q2333.54 1549.52 2330.46 1544.94 Q2327.4 1540.33 2327.4 1531.6 Q2327.4 1522.85 2330.46 1518.27 Q2333.54 1513.66 2339.35 1513.66 Z" fill="#000000" fill-rule="nonzero" fill-opacity="1" /><polyline clip-path="url(#clip440)" style="stroke:#000000; stroke-linecap:round; stroke-linejoin:round; stroke-width:4; stroke-opacity:1; fill:none" points="1347.71,1486.45 1347.71,47.2441 "/>
<polyline clip-path="url(#clip440)" style="stroke:#000000; stroke-linecap:round; stroke-linejoin:round; stroke-width:4; stroke-opacity:1; fill:none" points="1347.71,1370.29 1366.61,1370.29 "/>
<polyline clip-path="url(#clip440)" style="stroke:#000000; stroke-linecap:round; stroke-linejoin:round; stroke-width:4; stroke-opacity:1; fill:none" points="1347.71,1007.13 1366.61,1007.13 "/>
<polyline clip-path="url(#clip440)" style="stroke:#000000; stroke-linecap:round; stroke-linejoin:round; stroke-width:4; stroke-opacity:1; fill:none" points="1347.71,643.961 1366.61,643.961 "/>
<polyline clip-path="url(#clip440)" style="stroke:#000000; stroke-linecap:round; stroke-linejoin:round; stroke-width:4; stroke-opacity:1; fill:none" points="1347.71,280.794 1366.61,280.794 "/>
<path clip-path="url(#clip440)" d="M1250.99 1370.75 L1280.67 1370.75 L1280.67 1374.68 L1250.99 1374.68 L1250.99 1370.75 Z" fill="#000000" fill-rule="nonzero" fill-opacity="1" /><path clip-path="url(#clip440)" d="M1290.81 1353.01 L1309.16 1353.01 L1309.16 1356.95 L1295.09 1356.95 L1295.09 1365.42 Q1296.11 1365.07 1297.13 1364.91 Q1298.14 1364.73 1299.16 1364.73 Q1304.95 1364.73 1308.33 1367.9 Q1311.71 1371.07 1311.71 1376.49 Q1311.71 1382.06 1308.24 1385.17 Q1304.76 1388.25 1298.45 1388.25 Q1296.27 1388.25 1294 1387.87 Q1291.76 1387.5 1289.35 1386.76 L1289.35 1382.06 Q1291.43 1383.2 1293.65 1383.75 Q1295.88 1384.31 1298.35 1384.31 Q1302.36 1384.31 1304.7 1382.2 Q1307.03 1380.1 1307.03 1376.49 Q1307.03 1372.87 1304.7 1370.77 Q1302.36 1368.66 1298.35 1368.66 Q1296.48 1368.66 1294.6 1369.08 Q1292.75 1369.5 1290.81 1370.37 L1290.81 1353.01 Z" fill="#000000" fill-rule="nonzero" fill-opacity="1" /><path clip-path="url(#clip440)" d="M1299.77 992.926 Q1296.15 992.926 1294.33 996.491 Q1292.52 1000.03 1292.52 1007.16 Q1292.52 1014.27 1294.33 1017.83 Q1296.15 1021.37 1299.77 1021.37 Q1303.4 1021.37 1305.2 1017.83 Q1307.03 1014.27 1307.03 1007.16 Q1307.03 1000.03 1305.2 996.491 Q1303.4 992.926 1299.77 992.926 M1299.77 989.222 Q1305.58 989.222 1308.63 993.829 Q1311.71 998.412 1311.71 1007.16 Q1311.71 1015.89 1308.63 1020.5 Q1305.58 1025.08 1299.77 1025.08 Q1293.95 1025.08 1290.88 1020.5 Q1287.82 1015.89 1287.82 1007.16 Q1287.82 998.412 1290.88 993.829 Q1293.95 989.222 1299.77 989.222 Z" fill="#000000" fill-rule="nonzero" fill-opacity="1" /><path clip-path="url(#clip440)" d="M1290.81 626.681 L1309.16 626.681 L1309.16 630.616 L1295.09 630.616 L1295.09 639.088 Q1296.11 638.741 1297.13 638.579 Q1298.14 638.393 1299.16 638.393 Q1304.95 638.393 1308.33 641.565 Q1311.71 644.736 1311.71 650.153 Q1311.71 655.731 1308.24 658.833 Q1304.76 661.912 1298.45 661.912 Q1296.27 661.912 1294 661.541 Q1291.76 661.171 1289.35 660.43 L1289.35 655.731 Q1291.43 656.866 1293.65 657.421 Q1295.88 657.977 1298.35 657.977 Q1302.36 657.977 1304.7 655.87 Q1307.03 653.764 1307.03 650.153 Q1307.03 646.542 1304.7 644.435 Q1302.36 642.329 1298.35 642.329 Q1296.48 642.329 1294.6 642.745 Q1292.75 643.162 1290.81 644.042 L1290.81 626.681 Z" fill="#000000" fill-rule="nonzero" fill-opacity="1" /><path clip-path="url(#clip440)" d="M1260.41 294.139 L1268.05 294.139 L1268.05 267.773 L1259.74 269.44 L1259.74 265.181 L1268.01 263.514 L1272.68 263.514 L1272.68 294.139 L1280.32 294.139 L1280.32 298.074 L1260.41 298.074 L1260.41 294.139 Z" fill="#000000" fill-rule="nonzero" fill-opacity="1" /><path clip-path="url(#clip440)" d="M1299.77 266.593 Q1296.15 266.593 1294.33 270.157 Q1292.52 273.699 1292.52 280.829 Q1292.52 287.935 1294.33 291.5 Q1296.15 295.042 1299.77 295.042 Q1303.4 295.042 1305.2 291.5 Q1307.03 287.935 1307.03 280.829 Q1307.03 273.699 1305.2 270.157 Q1303.4 266.593 1299.77 266.593 M1299.77 262.889 Q1305.58 262.889 1308.63 267.495 Q1311.71 272.079 1311.71 280.829 Q1311.71 289.555 1308.63 294.162 Q1305.58 298.745 1299.77 298.745 Q1293.95 298.745 1290.88 294.162 Q1287.82 289.555 1287.82 280.829 Q1287.82 272.079 1290.88 267.495 Q1293.95 262.889 1299.77 262.889 Z" fill="#000000" fill-rule="nonzero" fill-opacity="1" /><polyline clip-path="url(#clip443)" style="stroke:#009af9; stroke-linecap:round; stroke-linejoin:round; stroke-width:4; stroke-opacity:1; fill:none" points="1376.15,894.549 1388.16,946.307 1400.16,958.828 1412.16,943.125 1424.16,903.372 1436.16,956.019 1448.17,972.382 1460.17,930.684 1472.17,963.476 1484.17,991.823 1496.17,1090.17 1508.18,1183.84 1520.18,1276.59 1532.18,1232.18 1544.18,1256.14 1556.18,1311.91 1568.19,1252.07 1580.19,1263.65 1592.19,1337.62 1604.19,1372.9 1616.19,1414.59 1628.2,1436.37 1640.2,1438.72 1652.2,1417.85 1664.2,1424.21 1676.2,1344.35 1688.21,1314.33 1700.21,1322.75 1712.21,1355.28 1724.21,1319.04 1736.21,1260.27 1748.22,1270.59 1760.22,1174.69 1772.22,1149.77 1784.22,1088.23 1796.22,1024.81 1808.23,980.664 1820.23,1051.31 1832.23,1087.75 1844.23,1042.2 1856.23,1063.3 1868.24,1029.72 1880.24,1006.57 1892.24,990.782 1904.24,924.288 1916.24,905.527 1928.25,935.464 1940.25,997.158 1952.25,1044.14 1964.25,1076.49 1976.25,1092.06 1988.26,1029.68 2000.26,1034.83 2012.26,1067.38 2024.26,1068.69 2036.26,1058.87 2048.27,1026.93 2060.27,1034.05 2072.27,970.492 2084.27,891.083 2096.27,884.331 2108.28,863.63 2120.28,842.825 2132.28,721.79 2144.28,632.502 2156.28,557.152 2168.29,502.917 2180.29,482.02 2192.29,370.711 2204.29,261.338 2216.29,232.247 2228.3,121.402 2240.3,154.885 2252.3,192.353 2264.3,172.269 2276.3,170.828 2288.31,172.844 2300.31,247.663 2312.31,343.959 2324.31,396.405 "/>
<polyline clip-path="url(#clip443)" style="stroke:#e26f46; stroke-linecap:round; stroke-linejoin:round; stroke-width:4; stroke-opacity:1; fill:none" points="1376.15,897.944 1388.16,942.79 1400.16,960.471 1412.16,942.427 1424.16,903.235 1436.16,946.929 1448.17,965.05 1460.17,922.646 1472.17,953.122 1484.17,987.387 1496.17,1083.66 1508.18,1182.19 1520.18,1280.89 1532.18,1230.24 1544.18,1258.26 1556.18,1307.98 1568.19,1242.15 1580.19,1260.12 1592.19,1334.95 1604.19,1373.51 1616.19,1410.04 1628.2,1433.9 1640.2,1435.01 1652.2,1417.87 1664.2,1433.19 1676.2,1342.97 1688.21,1315.21 1700.21,1334.53 1712.21,1365.68 1724.21,1316.29 1736.21,1254.35 1748.22,1279.05 1760.22,1164.84 1772.22,1145.14 1784.22,1093.11 1796.22,1027.79 1808.23,979.134 1820.23,1050.51 1832.23,1085.12 1844.23,1045.15 1856.23,1073.44 1868.24,1039.21 1880.24,1004.24 1892.24,987.444 1904.24,923.247 1916.24,912.322 1928.25,937.032 1940.25,998.974 1952.25,1045.1 1964.25,1075.65 1976.25,1096.18 1988.26,1034.35 2000.26,1043.55 2012.26,1070.81 2024.26,1061.66 2036.26,1064.12 2048.27,1029.59 2060.27,1031.01 2072.27,978.941 2084.27,902.426 2096.27,891.292 2108.28,861.675 2120.28,846.024 2132.28,721.326 2144.28,631.224 2156.28,557.16 2168.29,496.531 2180.29,464.269 2192.29,356.806 2204.29,266.659 2216.29,228.893 2228.3,108.043 2240.3,156.083 2252.3,187.505 2264.3,168.242 2276.3,168.947 2288.31,181.091 2300.31,253.077 2312.31,352.862 2324.31,405.842 "/>
<polyline clip-path="url(#clip443)" style="stroke:#3da44d; stroke-linecap:round; stroke-linejoin:round; stroke-width:4; stroke-opacity:1; fill:none" points="1376.15,992.486 1388.16,1025.79 1400.16,1052.99 1412.16,949.847 1424.16,989.467 1436.16,917.036 1448.17,976.073 1460.17,818.242 1472.17,932.966 1484.17,984.172 1496.17,1086.32 1508.18,1121.93 1520.18,1225.98 1532.18,1226.22 1544.18,1204.85 1556.18,1278.1 1568.19,1139.08 1580.19,1307.66 1592.19,1443.46 1604.19,1374.25 1616.19,1324.46 1628.2,1386.18 1640.2,1445.72 1652.2,1425.57 1664.2,1408.39 1676.2,1374.94 1688.21,1342.34 1700.21,1240.11 1712.21,1323.35 1724.21,1339.77 1736.21,1341.2 1748.22,1380.98 1760.22,1202.99 1772.22,1195.29 1784.22,1124.84 1796.22,975.767 1808.23,970.706 1820.23,1107.84 1832.23,1080.02 1844.23,1027.9 1856.23,1079.08 1868.24,1065.7 1880.24,1018.34 1892.24,901.749 1904.24,887.809 1916.24,942.656 1928.25,915.114 1940.25,1061.79 1952.25,1062.41 1964.25,1108.94 1976.25,1056.71 1988.26,1034.39 2000.26,1026.08 2012.26,1086.06 2024.26,1049.95 2036.26,1116.22 2048.27,1073.82 2060.27,1012.21 2072.27,889.959 2084.27,934.796 2096.27,937.46 2108.28,856.753 2120.28,829.355 2132.28,738.923 2144.28,668.961 2156.28,586.189 2168.29,486.813 2180.29,477.729 2192.29,431.541 2204.29,232.366 2216.29,217.647 2228.3,89.4201 2240.3,138.962 2252.3,197.471 2264.3,87.9763 2276.3,119.711 2288.31,196.737 2300.31,259.606 2312.31,371.422 2324.31,452.507 "/>
<path clip-path="url(#clip440)" d="M1381.21 302.578 L1843.38 302.578 L1843.38 95.2176 L1381.21 95.2176  Z" fill="#ffffff" fill-rule="evenodd" fill-opacity="1"/>
<polyline clip-path="url(#clip440)" style="stroke:#000000; stroke-linecap:round; stroke-linejoin:round; stroke-width:4; stroke-opacity:1; fill:none" points="1381.21,302.578 1843.38,302.578 1843.38,95.2176 1381.21,95.2176 1381.21,302.578 "/>
<polyline clip-path="url(#clip440)" style="stroke:#009af9; stroke-linecap:round; stroke-linejoin:round; stroke-width:4; stroke-opacity:1; fill:none" points="1392.38,147.058 1459.38,147.058 "/>
<path clip-path="url(#clip440)" d="M1470.55 129.778 L1475.22 129.778 L1475.22 144.384 L1490.73 129.778 L1496.75 129.778 L1479.6 145.889 L1497.98 164.338 L1491.82 164.338 L1475.22 147.694 L1475.22 164.338 L1470.55 164.338 L1470.55 129.778 Z" fill="#000000" fill-rule="nonzero" fill-opacity="1" /><path clip-path="url(#clip440)" d="M1512.4 151.305 Q1507.24 151.305 1505.25 152.486 Q1503.26 153.666 1503.26 156.514 Q1503.26 158.782 1504.74 160.125 Q1506.24 161.444 1508.81 161.444 Q1512.35 161.444 1514.48 158.944 Q1516.64 156.421 1516.64 152.254 L1516.64 151.305 L1512.4 151.305 M1520.9 149.546 L1520.9 164.338 L1516.64 164.338 L1516.64 160.402 Q1515.18 162.763 1513 163.898 Q1510.83 165.009 1507.68 165.009 Q1503.7 165.009 1501.34 162.787 Q1499 160.541 1499 156.791 Q1499 152.416 1501.91 150.194 Q1504.85 147.972 1510.66 147.972 L1516.64 147.972 L1516.64 147.555 Q1516.64 144.615 1514.69 143.018 Q1512.77 141.398 1509.28 141.398 Q1507.05 141.398 1504.95 141.93 Q1502.84 142.463 1500.9 143.527 L1500.9 139.592 Q1503.23 138.69 1505.43 138.25 Q1507.63 137.787 1509.71 137.787 Q1515.34 137.787 1518.12 140.703 Q1520.9 143.62 1520.9 149.546 Z" fill="#000000" fill-rule="nonzero" fill-opacity="1" /><path clip-path="url(#clip440)" d="M1529.67 128.319 L1533.93 128.319 L1533.93 164.338 L1529.67 164.338 L1529.67 128.319 Z" fill="#000000" fill-rule="nonzero" fill-opacity="1" /><path clip-path="url(#clip440)" d="M1563.02 143.389 Q1564.62 140.518 1566.84 139.153 Q1569.07 137.787 1572.08 137.787 Q1576.13 137.787 1578.33 140.634 Q1580.52 143.458 1580.52 148.689 L1580.52 164.338 L1576.24 164.338 L1576.24 148.828 Q1576.24 145.102 1574.92 143.296 Q1573.6 141.49 1570.9 141.49 Q1567.58 141.49 1565.66 143.69 Q1563.74 145.889 1563.74 149.685 L1563.74 164.338 L1559.46 164.338 L1559.46 148.828 Q1559.46 145.078 1558.14 143.296 Q1556.82 141.49 1554.07 141.49 Q1550.8 141.49 1548.88 143.713 Q1546.96 145.912 1546.96 149.685 L1546.96 164.338 L1542.68 164.338 L1542.68 138.412 L1546.96 138.412 L1546.96 142.44 Q1548.42 140.055 1550.46 138.921 Q1552.49 137.787 1555.29 137.787 Q1558.12 137.787 1560.08 139.222 Q1562.08 140.657 1563.02 143.389 Z" fill="#000000" fill-rule="nonzero" fill-opacity="1" /><path clip-path="url(#clip440)" d="M1600.8 151.305 Q1595.64 151.305 1593.65 152.486 Q1591.66 153.666 1591.66 156.514 Q1591.66 158.782 1593.14 160.125 Q1594.64 161.444 1597.21 161.444 Q1600.76 161.444 1602.89 158.944 Q1605.04 156.421 1605.04 152.254 L1605.04 151.305 L1600.8 151.305 M1609.3 149.546 L1609.3 164.338 L1605.04 164.338 L1605.04 160.402 Q1603.58 162.763 1601.4 163.898 Q1599.23 165.009 1596.08 165.009 Q1592.1 165.009 1589.74 162.787 Q1587.4 160.541 1587.4 156.791 Q1587.4 152.416 1590.32 150.194 Q1593.26 147.972 1599.07 147.972 L1605.04 147.972 L1605.04 147.555 Q1605.04 144.615 1603.09 143.018 Q1601.17 141.398 1597.68 141.398 Q1595.46 141.398 1593.35 141.93 Q1591.24 142.463 1589.3 143.527 L1589.3 139.592 Q1591.64 138.69 1593.83 138.25 Q1596.03 137.787 1598.12 137.787 Q1603.74 137.787 1606.52 140.703 Q1609.3 143.62 1609.3 149.546 Z" fill="#000000" fill-rule="nonzero" fill-opacity="1" /><path clip-path="url(#clip440)" d="M1639.62 148.689 L1639.62 164.338 L1635.36 164.338 L1635.36 148.828 Q1635.36 145.148 1633.93 143.319 Q1632.49 141.49 1629.62 141.49 Q1626.17 141.49 1624.18 143.69 Q1622.19 145.889 1622.19 149.685 L1622.19 164.338 L1617.91 164.338 L1617.91 138.412 L1622.19 138.412 L1622.19 142.44 Q1623.72 140.102 1625.78 138.944 Q1627.86 137.787 1630.57 137.787 Q1635.04 137.787 1637.33 140.565 Q1639.62 143.319 1639.62 148.689 Z" fill="#000000" fill-rule="nonzero" fill-opacity="1" /><path clip-path="url(#clip440)" d="M1679.71 139.176 L1679.71 143.203 Q1677.91 142.277 1675.96 141.815 Q1674.02 141.352 1671.94 141.352 Q1668.76 141.352 1667.17 142.324 Q1665.59 143.296 1665.59 145.24 Q1665.59 146.722 1666.73 147.578 Q1667.86 148.412 1671.29 149.176 L1672.75 149.5 Q1677.28 150.472 1679.18 152.254 Q1681.1 154.014 1681.1 157.185 Q1681.1 160.796 1678.23 162.902 Q1675.39 165.009 1670.39 165.009 Q1668.3 165.009 1666.03 164.592 Q1663.79 164.199 1661.29 163.388 L1661.29 158.99 Q1663.65 160.217 1665.94 160.842 Q1668.23 161.444 1670.48 161.444 Q1673.49 161.444 1675.11 160.426 Q1676.73 159.384 1676.73 157.509 Q1676.73 155.773 1675.55 154.847 Q1674.39 153.921 1670.43 153.064 L1668.95 152.717 Q1664.99 151.884 1663.23 150.171 Q1661.47 148.435 1661.47 145.426 Q1661.47 141.768 1664.07 139.778 Q1666.66 137.787 1671.43 137.787 Q1673.79 137.787 1675.87 138.134 Q1677.95 138.481 1679.71 139.176 Z" fill="#000000" fill-rule="nonzero" fill-opacity="1" /><path clip-path="url(#clip440)" d="M1708.07 143.389 Q1709.67 140.518 1711.89 139.153 Q1714.11 137.787 1717.12 137.787 Q1721.17 137.787 1723.37 140.634 Q1725.57 143.458 1725.57 148.689 L1725.57 164.338 L1721.29 164.338 L1721.29 148.828 Q1721.29 145.102 1719.97 143.296 Q1718.65 141.49 1715.94 141.49 Q1712.63 141.49 1710.71 143.69 Q1708.79 145.889 1708.79 149.685 L1708.79 164.338 L1704.51 164.338 L1704.51 148.828 Q1704.51 145.078 1703.19 143.296 Q1701.87 141.49 1699.11 141.49 Q1695.85 141.49 1693.93 143.713 Q1692.01 145.912 1692.01 149.685 L1692.01 164.338 L1687.72 164.338 L1687.72 138.412 L1692.01 138.412 L1692.01 142.44 Q1693.46 140.055 1695.5 138.921 Q1697.54 137.787 1700.34 137.787 Q1703.16 137.787 1705.13 139.222 Q1707.12 140.657 1708.07 143.389 Z" fill="#000000" fill-rule="nonzero" fill-opacity="1" /><path clip-path="url(#clip440)" d="M1744.11 141.398 Q1740.69 141.398 1738.7 144.083 Q1736.7 146.745 1736.7 151.398 Q1736.7 156.051 1738.67 158.736 Q1740.66 161.398 1744.11 161.398 Q1747.51 161.398 1749.51 158.713 Q1751.5 156.027 1751.5 151.398 Q1751.5 146.791 1749.51 144.106 Q1747.51 141.398 1744.11 141.398 M1744.11 137.787 Q1749.67 137.787 1752.84 141.398 Q1756.01 145.009 1756.01 151.398 Q1756.01 157.764 1752.84 161.398 Q1749.67 165.009 1744.11 165.009 Q1738.53 165.009 1735.36 161.398 Q1732.21 157.764 1732.21 151.398 Q1732.21 145.009 1735.36 141.398 Q1738.53 137.787 1744.11 137.787 Z" fill="#000000" fill-rule="nonzero" fill-opacity="1" /><path clip-path="url(#clip440)" d="M1773.12 141.398 Q1769.69 141.398 1767.7 144.083 Q1765.71 146.745 1765.71 151.398 Q1765.71 156.051 1767.68 158.736 Q1769.67 161.398 1773.12 161.398 Q1776.52 161.398 1778.51 158.713 Q1780.5 156.027 1780.5 151.398 Q1780.5 146.791 1778.51 144.106 Q1776.52 141.398 1773.12 141.398 M1773.12 137.787 Q1778.67 137.787 1781.84 141.398 Q1785.01 145.009 1785.01 151.398 Q1785.01 157.764 1781.84 161.398 Q1778.67 165.009 1773.12 165.009 Q1767.54 165.009 1764.37 161.398 Q1761.22 157.764 1761.22 151.398 Q1761.22 145.009 1764.37 141.398 Q1767.54 137.787 1773.12 137.787 Z" fill="#000000" fill-rule="nonzero" fill-opacity="1" /><path clip-path="url(#clip440)" d="M1796.29 131.051 L1796.29 138.412 L1805.06 138.412 L1805.06 141.722 L1796.29 141.722 L1796.29 155.796 Q1796.29 158.967 1797.14 159.87 Q1798.02 160.773 1800.69 160.773 L1805.06 160.773 L1805.06 164.338 L1800.69 164.338 Q1795.76 164.338 1793.88 162.509 Q1792.01 160.657 1792.01 155.796 L1792.01 141.722 L1788.88 141.722 L1788.88 138.412 L1792.01 138.412 L1792.01 131.051 L1796.29 131.051 Z" fill="#000000" fill-rule="nonzero" fill-opacity="1" /><path clip-path="url(#clip440)" d="M1832.21 148.689 L1832.21 164.338 L1827.95 164.338 L1827.95 148.828 Q1827.95 145.148 1826.52 143.319 Q1825.08 141.49 1822.21 141.49 Q1818.76 141.49 1816.77 143.69 Q1814.78 145.889 1814.78 149.685 L1814.78 164.338 L1810.5 164.338 L1810.5 128.319 L1814.78 128.319 L1814.78 142.44 Q1816.31 140.102 1818.37 138.944 Q1820.45 137.787 1823.16 137.787 Q1827.63 137.787 1829.92 140.565 Q1832.21 143.319 1832.21 148.689 Z" fill="#000000" fill-rule="nonzero" fill-opacity="1" /><polyline clip-path="url(#clip440)" style="stroke:#e26f46; stroke-linecap:round; stroke-linejoin:round; stroke-width:4; stroke-opacity:1; fill:none" points="1392.38,198.898 1459.38,198.898 "/>
<path clip-path="url(#clip440)" d="M1474.83 212.289 L1474.83 226.039 L1470.55 226.039 L1470.55 190.252 L1474.83 190.252 L1474.83 194.187 Q1476.17 191.872 1478.21 190.761 Q1480.27 189.627 1483.12 189.627 Q1487.84 189.627 1490.78 193.377 Q1493.74 197.127 1493.74 203.238 Q1493.74 209.349 1490.78 213.099 Q1487.84 216.849 1483.12 216.849 Q1480.27 216.849 1478.21 215.738 Q1476.17 214.603 1474.83 212.289 M1489.32 203.238 Q1489.32 198.539 1487.38 195.877 Q1485.46 193.192 1482.08 193.192 Q1478.7 193.192 1476.75 195.877 Q1474.83 198.539 1474.83 203.238 Q1474.83 207.937 1476.75 210.622 Q1478.7 213.284 1482.08 213.284 Q1485.46 213.284 1487.38 210.622 Q1489.32 207.937 1489.32 203.238 Z" fill="#000000" fill-rule="nonzero" fill-opacity="1" /><path clip-path="url(#clip440)" d="M1513.93 180.159 L1513.93 183.701 L1509.85 183.701 Q1507.56 183.701 1506.66 184.627 Q1505.78 185.553 1505.78 187.96 L1505.78 190.252 L1512.79 190.252 L1512.79 193.562 L1505.78 193.562 L1505.78 216.178 L1501.5 216.178 L1501.5 193.562 L1497.42 193.562 L1497.42 190.252 L1501.5 190.252 L1501.5 188.446 Q1501.5 184.118 1503.51 182.15 Q1505.53 180.159 1509.9 180.159 L1513.93 180.159 Z" fill="#000000" fill-rule="nonzero" fill-opacity="1" /><path clip-path="url(#clip440)" d="M1549.09 191.016 L1549.09 195.043 Q1547.28 194.117 1545.34 193.655 Q1543.4 193.192 1541.31 193.192 Q1538.14 193.192 1536.54 194.164 Q1534.97 195.136 1534.97 197.08 Q1534.97 198.562 1536.1 199.418 Q1537.24 200.252 1540.66 201.016 L1542.12 201.34 Q1546.66 202.312 1548.56 204.094 Q1550.48 205.854 1550.48 209.025 Q1550.48 212.636 1547.61 214.742 Q1544.76 216.849 1539.76 216.849 Q1537.68 216.849 1535.41 216.432 Q1533.16 216.039 1530.66 215.228 L1530.66 210.83 Q1533.02 212.057 1535.32 212.682 Q1537.61 213.284 1539.85 213.284 Q1542.86 213.284 1544.48 212.266 Q1546.1 211.224 1546.1 209.349 Q1546.1 207.613 1544.92 206.687 Q1543.77 205.761 1539.81 204.904 L1538.33 204.557 Q1534.37 203.724 1532.61 202.011 Q1530.85 200.275 1530.85 197.266 Q1530.85 193.608 1533.44 191.618 Q1536.03 189.627 1540.8 189.627 Q1543.16 189.627 1545.25 189.974 Q1547.33 190.321 1549.09 191.016 Z" fill="#000000" fill-rule="nonzero" fill-opacity="1" /><path clip-path="url(#clip440)" d="M1577.45 195.229 Q1579.04 192.358 1581.27 190.993 Q1583.49 189.627 1586.5 189.627 Q1590.55 189.627 1592.75 192.474 Q1594.95 195.298 1594.95 200.529 L1594.95 216.178 L1590.66 216.178 L1590.66 200.668 Q1590.66 196.942 1589.34 195.136 Q1588.02 193.33 1585.32 193.33 Q1582.01 193.33 1580.08 195.53 Q1578.16 197.729 1578.16 201.525 L1578.16 216.178 L1573.88 216.178 L1573.88 200.668 Q1573.88 196.918 1572.56 195.136 Q1571.24 193.33 1568.49 193.33 Q1565.22 193.33 1563.3 195.553 Q1561.38 197.752 1561.38 201.525 L1561.38 216.178 L1557.1 216.178 L1557.1 190.252 L1561.38 190.252 L1561.38 194.28 Q1562.84 191.895 1564.88 190.761 Q1566.91 189.627 1569.71 189.627 Q1572.54 189.627 1574.51 191.062 Q1576.5 192.497 1577.45 195.229 Z" fill="#000000" fill-rule="nonzero" fill-opacity="1" /><path clip-path="url(#clip440)" d="M1613.49 193.238 Q1610.06 193.238 1608.07 195.923 Q1606.08 198.585 1606.08 203.238 Q1606.08 207.891 1608.05 210.576 Q1610.04 213.238 1613.49 213.238 Q1616.89 213.238 1618.88 210.553 Q1620.87 207.867 1620.87 203.238 Q1620.87 198.631 1618.88 195.946 Q1616.89 193.238 1613.49 193.238 M1613.49 189.627 Q1619.04 189.627 1622.21 193.238 Q1625.39 196.849 1625.39 203.238 Q1625.39 209.604 1622.21 213.238 Q1619.04 216.849 1613.49 216.849 Q1607.91 216.849 1604.74 213.238 Q1601.59 209.604 1601.59 203.238 Q1601.59 196.849 1604.74 193.238 Q1607.91 189.627 1613.49 189.627 Z" fill="#000000" fill-rule="nonzero" fill-opacity="1" /><path clip-path="url(#clip440)" d="M1642.49 193.238 Q1639.07 193.238 1637.08 195.923 Q1635.08 198.585 1635.08 203.238 Q1635.08 207.891 1637.05 210.576 Q1639.04 213.238 1642.49 213.238 Q1645.89 213.238 1647.89 210.553 Q1649.88 207.867 1649.88 203.238 Q1649.88 198.631 1647.89 195.946 Q1645.89 193.238 1642.49 193.238 M1642.49 189.627 Q1648.05 189.627 1651.22 193.238 Q1654.39 196.849 1654.39 203.238 Q1654.39 209.604 1651.22 213.238 Q1648.05 216.849 1642.49 216.849 Q1636.91 216.849 1633.74 213.238 Q1630.59 209.604 1630.59 203.238 Q1630.59 196.849 1633.74 193.238 Q1636.91 189.627 1642.49 189.627 Z" fill="#000000" fill-rule="nonzero" fill-opacity="1" /><path clip-path="url(#clip440)" d="M1665.66 182.891 L1665.66 190.252 L1674.44 190.252 L1674.44 193.562 L1665.66 193.562 L1665.66 207.636 Q1665.66 210.807 1666.52 211.71 Q1667.4 212.613 1670.06 212.613 L1674.44 212.613 L1674.44 216.178 L1670.06 216.178 Q1665.13 216.178 1663.26 214.349 Q1661.38 212.497 1661.38 207.636 L1661.38 193.562 L1658.26 193.562 L1658.26 190.252 L1661.38 190.252 L1661.38 182.891 L1665.66 182.891 Z" fill="#000000" fill-rule="nonzero" fill-opacity="1" /><path clip-path="url(#clip440)" d="M1701.59 200.529 L1701.59 216.178 L1697.33 216.178 L1697.33 200.668 Q1697.33 196.988 1695.89 195.159 Q1694.46 193.33 1691.59 193.33 Q1688.14 193.33 1686.15 195.53 Q1684.16 197.729 1684.16 201.525 L1684.16 216.178 L1679.88 216.178 L1679.88 180.159 L1684.16 180.159 L1684.16 194.28 Q1685.69 191.942 1687.75 190.784 Q1689.83 189.627 1692.54 189.627 Q1697.01 189.627 1699.3 192.405 Q1701.59 195.159 1701.59 200.529 Z" fill="#000000" fill-rule="nonzero" fill-opacity="1" /><polyline clip-path="url(#clip440)" style="stroke:#3da44d; stroke-linecap:round; stroke-linejoin:round; stroke-width:4; stroke-opacity:1; fill:none" points="1392.38,250.738 1459.38,250.738 "/>
<path clip-path="url(#clip440)" d="M1477.96 234.731 L1477.96 242.092 L1486.73 242.092 L1486.73 245.402 L1477.96 245.402 L1477.96 259.476 Q1477.96 262.647 1478.81 263.55 Q1479.69 264.453 1482.35 264.453 L1486.73 264.453 L1486.73 268.018 L1482.35 268.018 Q1477.42 268.018 1475.55 266.189 Q1473.67 264.337 1473.67 259.476 L1473.67 245.402 L1470.55 245.402 L1470.55 242.092 L1473.67 242.092 L1473.67 234.731 L1477.96 234.731 Z" fill="#000000" fill-rule="nonzero" fill-opacity="1" /><path clip-path="url(#clip440)" d="M1507.35 246.073 Q1506.64 245.657 1505.78 245.471 Q1504.95 245.263 1503.93 245.263 Q1500.32 245.263 1498.37 247.624 Q1496.45 249.962 1496.45 254.36 L1496.45 268.018 L1492.17 268.018 L1492.17 242.092 L1496.45 242.092 L1496.45 246.12 Q1497.79 243.758 1499.95 242.624 Q1502.1 241.467 1505.18 241.467 Q1505.62 241.467 1506.15 241.536 Q1506.68 241.583 1507.33 241.698 L1507.35 246.073 Z" fill="#000000" fill-rule="nonzero" fill-opacity="1" /><path clip-path="url(#clip440)" d="M1511.38 257.786 L1511.38 242.092 L1515.64 242.092 L1515.64 257.624 Q1515.64 261.305 1517.08 263.156 Q1518.51 264.985 1521.38 264.985 Q1524.83 264.985 1526.82 262.786 Q1528.84 260.587 1528.84 256.791 L1528.84 242.092 L1533.09 242.092 L1533.09 268.018 L1528.84 268.018 L1528.84 264.036 Q1527.28 266.397 1525.22 267.555 Q1523.19 268.689 1520.48 268.689 Q1516.01 268.689 1513.7 265.911 Q1511.38 263.133 1511.38 257.786 M1522.1 241.467 L1522.1 241.467 Z" fill="#000000" fill-rule="nonzero" fill-opacity="1" /><path clip-path="url(#clip440)" d="M1564.04 253.99 L1564.04 256.073 L1544.46 256.073 Q1544.74 260.471 1547.1 262.786 Q1549.48 265.078 1553.72 265.078 Q1556.17 265.078 1558.46 264.476 Q1560.78 263.874 1563.05 262.67 L1563.05 266.698 Q1560.76 267.67 1558.35 268.18 Q1555.94 268.689 1553.46 268.689 Q1547.26 268.689 1543.63 265.078 Q1540.02 261.467 1540.02 255.309 Q1540.02 248.944 1543.44 245.217 Q1546.89 241.467 1552.72 241.467 Q1557.96 241.467 1560.99 244.846 Q1564.04 248.203 1564.04 253.99 M1559.78 252.74 Q1559.74 249.245 1557.82 247.161 Q1555.92 245.078 1552.77 245.078 Q1549.21 245.078 1547.05 247.092 Q1544.92 249.106 1544.6 252.763 L1559.78 252.74 Z" fill="#000000" fill-rule="nonzero" fill-opacity="1" /></svg>
