<?xml version="1.0" encoding="utf-8"?>
<svg xmlns="http://www.w3.org/2000/svg" xmlns:xlink="http://www.w3.org/1999/xlink" width="600" height="400" viewBox="0 0 2400 1600">
<defs>
  <clipPath id="clip380">
    <rect x="0" y="0" width="2400" height="1600"/>
  </clipPath>
</defs>
<path clip-path="url(#clip380)" d="M0 1600 L2400 1600 L2400 0 L0 0  Z" fill="#ffffff" fill-rule="evenodd" fill-opacity="1"/>
<defs>
  <clipPath id="clip381">
    <rect x="480" y="0" width="1681" height="1600"/>
  </clipPath>
</defs>
<path clip-path="url(#clip380)" d="M178.867 1486.45 L2352.76 1486.45 L2352.76 47.2441 L178.867 47.2441  Z" fill="#ffffff" fill-rule="evenodd" fill-opacity="1"/>
<defs>
  <clipPath id="clip382">
    <rect x="178" y="47" width="2175" height="1440"/>
  </clipPath>
</defs>
<polyline clip-path="url(#clip382)" style="stroke:#000000; stroke-linecap:round; stroke-linejoin:round; stroke-width:2; stroke-opacity:0.1; fill:none" points="214.432,1486.45 214.432,47.2441 "/>
<polyline clip-path="url(#clip382)" style="stroke:#000000; stroke-linecap:round; stroke-linejoin:round; stroke-width:2; stroke-opacity:0.1; fill:none" points="733.632,1486.45 733.632,47.2441 "/>
<polyline clip-path="url(#clip382)" style="stroke:#000000; stroke-linecap:round; stroke-linejoin:round; stroke-width:2; stroke-opacity:0.1; fill:none" points="1252.83,1486.45 1252.83,47.2441 "/>
<polyline clip-path="url(#clip382)" style="stroke:#000000; stroke-linecap:round; stroke-linejoin:round; stroke-width:2; stroke-opacity:0.1; fill:none" points="1772.03,1486.45 1772.03,47.2441 "/>
<polyline clip-path="url(#clip382)" style="stroke:#000000; stroke-linecap:round; stroke-linejoin:round; stroke-width:2; stroke-opacity:0.1; fill:none" points="2291.23,1486.45 2291.23,47.2441 "/>
<polyline clip-path="url(#clip382)" style="stroke:#000000; stroke-linecap:round; stroke-linejoin:round; stroke-width:2; stroke-opacity:0.1; fill:none" points="178.867,1312.07 2352.76,1312.07 "/>
<polyline clip-path="url(#clip382)" style="stroke:#000000; stroke-linecap:round; stroke-linejoin:round; stroke-width:2; stroke-opacity:0.1; fill:none" points="178.867,1056.46 2352.76,1056.46 "/>
<polyline clip-path="url(#clip382)" style="stroke:#000000; stroke-linecap:round; stroke-linejoin:round; stroke-width:2; stroke-opacity:0.1; fill:none" points="178.867,800.839 2352.76,800.839 "/>
<polyline clip-path="url(#clip382)" style="stroke:#000000; stroke-linecap:round; stroke-linejoin:round; stroke-width:2; stroke-opacity:0.1; fill:none" points="178.867,545.222 2352.76,545.222 "/>
<polyline clip-path="url(#clip382)" style="stroke:#000000; stroke-linecap:round; stroke-linejoin:round; stroke-width:2; stroke-opacity:0.1; fill:none" points="178.867,289.605 2352.76,289.605 "/>
<polyline clip-path="url(#clip380)" style="stroke:#000000; stroke-linecap:round; stroke-linejoin:round; stroke-width:4; stroke-opacity:1; fill:none" points="178.867,1486.45 2352.76,1486.45 "/>
<polyline clip-path="url(#clip380)" style="stroke:#000000; stroke-linecap:round; stroke-linejoin:round; stroke-width:4; stroke-opacity:1; fill:none" points="214.432,1486.45 214.432,1467.55 "/>
<polyline clip-path="url(#clip380)" style="stroke:#000000; stroke-linecap:round; stroke-linejoin:round; stroke-width:4; stroke-opacity:1; fill:none" points="733.632,1486.45 733.632,1467.55 "/>
<polyline clip-path="url(#clip380)" style="stroke:#000000; stroke-linecap:round; stroke-linejoin:round; stroke-width:4; stroke-opacity:1; fill:none" points="1252.83,1486.45 1252.83,1467.55 "/>
<polyline clip-path="url(#clip380)" style="stroke:#000000; stroke-linecap:round; stroke-linejoin:round; stroke-width:4; stroke-opacity:1; fill:none" points="1772.03,1486.45 1772.03,1467.55 "/>
<polyline clip-path="url(#clip380)" style="stroke:#000000; stroke-linecap:round; stroke-linejoin:round; stroke-width:4; stroke-opacity:1; fill:none" points="2291.23,1486.45 2291.23,1467.55 "/>
<path clip-path="url(#clip380)" d="M214.432 1517.37 Q210.821 1517.37 208.992 1520.93 Q207.186 1524.47 207.186 1531.6 Q207.186 1538.71 208.992 1542.27 Q210.821 1545.82 214.432 1545.82 Q218.066 1545.82 219.872 1542.27 Q221.7 1538.71 221.7 1531.6 Q221.7 1524.47 219.872 1520.93 Q218.066 1517.37 214.432 1517.37 M214.432 1513.66 Q220.242 1513.66 223.298 1518.27 Q226.376 1522.85 226.376 1531.6 Q226.376 1540.33 223.298 1544.94 Q220.242 1549.52 214.432 1549.52 Q208.622 1549.52 205.543 1544.94 Q202.487 1540.33 202.487 1531.6 Q202.487 1522.85 205.543 1518.27 Q208.622 1513.66 214.432 1513.66 Z" fill="#000000" fill-rule="nonzero" fill-opacity="1" /><path clip-path="url(#clip380)" d="M712.405 1544.91 L728.724 1544.91 L728.724 1548.85 L706.78 1548.85 L706.78 1544.91 Q709.442 1542.16 714.025 1537.53 Q718.632 1532.88 719.812 1531.53 Q722.058 1529.01 722.937 1527.27 Q723.84 1525.51 723.84 1523.82 Q723.84 1521.07 721.895 1519.33 Q719.974 1517.6 716.872 1517.6 Q714.673 1517.6 712.22 1518.36 Q709.789 1519.13 707.011 1520.68 L707.011 1515.95 Q709.835 1514.82 712.289 1514.24 Q714.743 1513.66 716.78 1513.66 Q722.15 1513.66 725.345 1516.35 Q728.539 1519.03 728.539 1523.52 Q728.539 1525.65 727.729 1527.57 Q726.942 1529.47 724.835 1532.07 Q724.257 1532.74 721.155 1535.95 Q718.053 1539.15 712.405 1544.91 Z" fill="#000000" fill-rule="nonzero" fill-opacity="1" /><path clip-path="url(#clip380)" d="M748.539 1517.37 Q744.928 1517.37 743.099 1520.93 Q741.294 1524.47 741.294 1531.6 Q741.294 1538.71 743.099 1542.27 Q744.928 1545.82 748.539 1545.82 Q752.173 1545.82 753.979 1542.27 Q755.807 1538.71 755.807 1531.6 Q755.807 1524.47 753.979 1520.93 Q752.173 1517.37 748.539 1517.37 M748.539 1513.66 Q754.349 1513.66 757.405 1518.27 Q760.483 1522.85 760.483 1531.6 Q760.483 1540.33 757.405 1544.94 Q754.349 1549.52 748.539 1549.52 Q742.729 1549.52 739.65 1544.94 Q736.594 1540.33 736.594 1531.6 Q736.594 1522.85 739.65 1518.27 Q742.729 1513.66 748.539 1513.66 Z" fill="#000000" fill-rule="nonzero" fill-opacity="1" /><path clip-path="url(#clip380)" d="M1241 1518.36 L1229.2 1536.81 L1241 1536.81 L1241 1518.36 M1239.78 1514.29 L1245.66 1514.29 L1245.66 1536.81 L1250.59 1536.81 L1250.59 1540.7 L1245.66 1540.7 L1245.66 1548.85 L1241 1548.85 L1241 1540.7 L1225.4 1540.7 L1225.4 1536.19 L1239.78 1514.29 Z" fill="#000000" fill-rule="nonzero" fill-opacity="1" /><path clip-path="url(#clip380)" d="M1268.32 1517.37 Q1264.71 1517.37 1262.88 1520.93 Q1261.07 1524.47 1261.07 1531.6 Q1261.07 1538.71 1262.88 1542.27 Q1264.71 1545.82 1268.32 1545.82 Q1271.95 1545.82 1273.76 1542.27 Q1275.59 1538.71 1275.59 1531.6 Q1275.59 1524.47 1273.76 1520.93 Q1271.95 1517.37 1268.32 1517.37 M1268.32 1513.66 Q1274.13 1513.66 1277.18 1518.27 Q1280.26 1522.85 1280.26 1531.6 Q1280.26 1540.33 1277.18 1544.94 Q1274.13 1549.52 1268.32 1549.52 Q1262.51 1549.52 1259.43 1544.94 Q1256.37 1540.33 1256.37 1531.6 Q1256.37 1522.85 1259.43 1518.27 Q1262.51 1513.66 1268.32 1513.66 Z" fill="#000000" fill-rule="nonzero" fill-opacity="1" /><path clip-path="url(#clip380)" d="M1757.44 1529.7 Q1754.29 1529.7 1752.44 1531.86 Q1750.61 1534.01 1750.61 1537.76 Q1750.61 1541.49 1752.44 1543.66 Q1754.29 1545.82 1757.44 1545.82 Q1760.58 1545.82 1762.41 1543.66 Q1764.26 1541.49 1764.26 1537.76 Q1764.26 1534.01 1762.41 1531.86 Q1760.58 1529.7 1757.44 1529.7 M1766.72 1515.05 L1766.72 1519.31 Q1764.96 1518.48 1763.15 1518.04 Q1761.37 1517.6 1759.61 1517.6 Q1754.98 1517.6 1752.53 1520.72 Q1750.1 1523.85 1749.75 1530.17 Q1751.12 1528.15 1753.18 1527.09 Q1755.24 1526 1757.71 1526 Q1762.92 1526 1765.93 1529.17 Q1768.96 1532.32 1768.96 1537.76 Q1768.96 1543.08 1765.82 1546.3 Q1762.67 1549.52 1757.44 1549.52 Q1751.44 1549.52 1748.27 1544.94 Q1745.1 1540.33 1745.1 1531.6 Q1745.1 1523.41 1748.99 1518.55 Q1752.88 1513.66 1759.43 1513.66 Q1761.19 1513.66 1762.97 1514.01 Q1764.77 1514.36 1766.72 1515.05 Z" fill="#000000" fill-rule="nonzero" fill-opacity="1" /><path clip-path="url(#clip380)" d="M1787.02 1517.37 Q1783.41 1517.37 1781.58 1520.93 Q1779.77 1524.47 1779.77 1531.6 Q1779.77 1538.71 1781.58 1542.27 Q1783.41 1545.82 1787.02 1545.82 Q1790.65 1545.82 1792.46 1542.27 Q1794.29 1538.71 1794.29 1531.6 Q1794.29 1524.47 1792.46 1520.93 Q1790.65 1517.37 1787.02 1517.37 M1787.02 1513.66 Q1792.83 1513.66 1795.89 1518.27 Q1798.96 1522.85 1798.96 1531.6 Q1798.96 1540.33 1795.89 1544.94 Q1792.83 1549.52 1787.02 1549.52 Q1781.21 1549.52 1778.13 1544.94 Q1775.07 1540.33 1775.07 1531.6 Q1775.07 1522.85 1778.13 1518.27 Q1781.21 1513.66 1787.02 1513.66 Z" fill="#000000" fill-rule="nonzero" fill-opacity="1" /><path clip-path="url(#clip380)" d="M2276.1 1532.44 Q2272.77 1532.44 2270.85 1534.22 Q2268.95 1536 2268.95 1539.13 Q2268.95 1542.25 2270.85 1544.03 Q2272.77 1545.82 2276.1 1545.82 Q2279.44 1545.82 2281.36 1544.03 Q2283.28 1542.23 2283.28 1539.13 Q2283.28 1536 2281.36 1534.22 Q2279.46 1532.44 2276.1 1532.44 M2271.43 1530.45 Q2268.42 1529.7 2266.73 1527.64 Q2265.06 1525.58 2265.06 1522.62 Q2265.06 1518.48 2268 1516.07 Q2270.96 1513.66 2276.1 1513.66 Q2281.27 1513.66 2284.21 1516.07 Q2287.15 1518.48 2287.15 1522.62 Q2287.15 1525.58 2285.46 1527.64 Q2283.79 1529.7 2280.8 1530.45 Q2284.18 1531.23 2286.06 1533.52 Q2287.96 1535.82 2287.96 1539.13 Q2287.96 1544.15 2284.88 1546.83 Q2281.82 1549.52 2276.1 1549.52 Q2270.39 1549.52 2267.31 1546.83 Q2264.25 1544.15 2264.25 1539.13 Q2264.25 1535.82 2266.15 1533.52 Q2268.05 1531.23 2271.43 1530.45 M2269.71 1523.06 Q2269.71 1525.75 2271.38 1527.25 Q2273.07 1528.76 2276.1 1528.76 Q2279.11 1528.76 2280.8 1527.25 Q2282.52 1525.75 2282.52 1523.06 Q2282.52 1520.38 2280.8 1518.87 Q2279.11 1517.37 2276.1 1517.37 Q2273.07 1517.37 2271.38 1518.87 Q2269.71 1520.38 2269.71 1523.06 Z" fill="#000000" fill-rule="nonzero" fill-opacity="1" /><path clip-path="url(#clip380)" d="M2306.27 1517.37 Q2302.65 1517.37 2300.83 1520.93 Q2299.02 1524.47 2299.02 1531.6 Q2299.02 1538.71 2300.83 1542.27 Q2302.65 1545.82 2306.27 1545.82 Q2309.9 1545.82 2311.71 1542.27 Q2313.53 1538.71 2313.53 1531.6 Q2313.53 1524.47 2311.71 1520.93 Q2309.9 1517.37 2306.27 1517.37 M2306.27 1513.66 Q2312.08 1513.66 2315.13 1518.27 Q2318.21 1522.85 2318.21 1531.6 Q2318.21 1540.33 2315.13 1544.94 Q2312.08 1549.52 2306.27 1549.52 Q2300.46 1549.52 2297.38 1544.94 Q2294.32 1540.33 2294.32 1531.6 Q2294.32 1522.85 2297.38 1518.27 Q2300.46 1513.66 2306.27 1513.66 Z" fill="#000000" fill-rule="nonzero" fill-opacity="1" /><polyline clip-path="url(#clip380)" style="stroke:#000000; stroke-linecap:round; stroke-linejoin:round; stroke-width:4; stroke-opacity:1; fill:none" points="178.867,1486.45 178.867,47.2441 "/>
<polyline clip-path="url(#clip380)" style="stroke:#000000; stroke-linecap:round; stroke-linejoin:round; stroke-width:4; stroke-opacity:1; fill:none" points="178.867,1312.07 197.764,1312.07 "/>
<polyline clip-path="url(#clip380)" style="stroke:#000000; stroke-linecap:round; stroke-linejoin:round; stroke-width:4; stroke-opacity:1; fill:none" points="178.867,1056.46 197.764,1056.46 "/>
<polyline clip-path="url(#clip380)" style="stroke:#000000; stroke-linecap:round; stroke-linejoin:round; stroke-width:4; stroke-opacity:1; fill:none" points="178.867,800.839 197.764,800.839 "/>
<polyline clip-path="url(#clip380)" style="stroke:#000000; stroke-linecap:round; stroke-linejoin:round; stroke-width:4; stroke-opacity:1; fill:none" points="178.867,545.222 197.764,545.222 "/>
<polyline clip-path="url(#clip380)" style="stroke:#000000; stroke-linecap:round; stroke-linejoin:round; stroke-width:4; stroke-opacity:1; fill:none" points="178.867,289.605 197.764,289.605 "/>
<path clip-path="url(#clip380)" d="M50.9921 1312.52 L80.6679 1312.52 L80.6679 1316.46 L50.9921 1316.46 L50.9921 1312.52 Z" fill="#000000" fill-rule="nonzero" fill-opacity="1" /><path clip-path="url(#clip380)" d="M91.5706 1325.42 L99.2095 1325.42 L99.2095 1299.05 L90.8993 1300.72 L90.8993 1296.46 L99.1632 1294.79 L103.839 1294.79 L103.839 1325.42 L111.478 1325.42 L111.478 1329.35 L91.5706 1329.35 L91.5706 1325.42 Z" fill="#000000" fill-rule="nonzero" fill-opacity="1" /><path clip-path="url(#clip380)" d="M130.922 1297.87 Q127.311 1297.87 125.482 1301.44 Q123.677 1304.98 123.677 1312.11 Q123.677 1319.21 125.482 1322.78 Q127.311 1326.32 130.922 1326.32 Q134.556 1326.32 136.362 1322.78 Q138.191 1319.21 138.191 1312.11 Q138.191 1304.98 136.362 1301.44 Q134.556 1297.87 130.922 1297.87 M130.922 1294.17 Q136.732 1294.17 139.788 1298.77 Q142.867 1303.36 142.867 1312.11 Q142.867 1320.83 139.788 1325.44 Q136.732 1330.02 130.922 1330.02 Q125.112 1330.02 122.033 1325.44 Q118.978 1320.83 118.978 1312.11 Q118.978 1303.36 122.033 1298.77 Q125.112 1294.17 130.922 1294.17 Z" fill="#000000" fill-rule="nonzero" fill-opacity="1" /><path clip-path="url(#clip380)" d="M82.1494 1056.91 L111.825 1056.91 L111.825 1060.84 L82.1494 1060.84 L82.1494 1056.91 Z" fill="#000000" fill-rule="nonzero" fill-opacity="1" /><path clip-path="url(#clip380)" d="M121.964 1039.18 L140.32 1039.18 L140.32 1043.11 L126.246 1043.11 L126.246 1051.58 Q127.265 1051.24 128.283 1051.07 Q129.302 1050.89 130.32 1050.89 Q136.107 1050.89 139.487 1054.06 Q142.867 1057.23 142.867 1062.65 Q142.867 1068.23 139.394 1071.33 Q135.922 1074.41 129.603 1074.41 Q127.427 1074.41 125.158 1074.04 Q122.913 1073.67 120.506 1072.93 L120.506 1068.23 Q122.589 1069.36 124.811 1069.92 Q127.033 1070.47 129.51 1070.47 Q133.515 1070.47 135.853 1068.37 Q138.191 1066.26 138.191 1062.65 Q138.191 1059.04 135.853 1056.93 Q133.515 1054.82 129.51 1054.82 Q127.635 1054.82 125.76 1055.24 Q123.908 1055.66 121.964 1056.54 L121.964 1039.18 Z" fill="#000000" fill-rule="nonzero" fill-opacity="1" /><path clip-path="url(#clip380)" d="M130.922 786.637 Q127.311 786.637 125.482 790.202 Q123.677 793.744 123.677 800.873 Q123.677 807.98 125.482 811.545 Q127.311 815.086 130.922 815.086 Q134.556 815.086 136.362 811.545 Q138.191 807.98 138.191 800.873 Q138.191 793.744 136.362 790.202 Q134.556 786.637 130.922 786.637 M130.922 782.934 Q136.732 782.934 139.788 787.54 Q142.867 792.123 142.867 800.873 Q142.867 809.6 139.788 814.207 Q136.732 818.79 130.922 818.79 Q125.112 818.79 122.033 814.207 Q118.978 809.6 118.978 800.873 Q118.978 792.123 122.033 787.54 Q125.112 782.934 130.922 782.934 Z" fill="#000000" fill-rule="nonzero" fill-opacity="1" /><path clip-path="url(#clip380)" d="M121.964 527.942 L140.32 527.942 L140.32 531.877 L126.246 531.877 L126.246 540.349 Q127.265 540.002 128.283 539.84 Q129.302 539.655 130.32 539.655 Q136.107 539.655 139.487 542.826 Q142.867 545.997 142.867 551.414 Q142.867 556.992 139.394 560.094 Q135.922 563.173 129.603 563.173 Q127.427 563.173 125.158 562.803 Q122.913 562.432 120.506 561.691 L120.506 556.992 Q122.589 558.127 124.811 558.682 Q127.033 559.238 129.51 559.238 Q133.515 559.238 135.853 557.131 Q138.191 555.025 138.191 551.414 Q138.191 547.803 135.853 545.696 Q133.515 543.59 129.51 543.59 Q127.635 543.59 125.76 544.006 Q123.908 544.423 121.964 545.303 L121.964 527.942 Z" fill="#000000" fill-rule="nonzero" fill-opacity="1" /><path clip-path="url(#clip380)" d="M91.5706 302.949 L99.2095 302.949 L99.2095 276.584 L90.8993 278.25 L90.8993 273.991 L99.1632 272.325 L103.839 272.325 L103.839 302.949 L111.478 302.949 L111.478 306.885 L91.5706 306.885 L91.5706 302.949 Z" fill="#000000" fill-rule="nonzero" fill-opacity="1" /><path clip-path="url(#clip380)" d="M130.922 275.403 Q127.311 275.403 125.482 278.968 Q123.677 282.51 123.677 289.639 Q123.677 296.746 125.482 300.31 Q127.311 303.852 130.922 303.852 Q134.556 303.852 136.362 300.31 Q138.191 296.746 138.191 289.639 Q138.191 282.51 136.362 278.968 Q134.556 275.403 130.922 275.403 M130.922 271.7 Q136.732 271.7 139.788 276.306 Q142.867 280.889 142.867 289.639 Q142.867 298.366 139.788 302.972 Q136.732 307.556 130.922 307.556 Q125.112 307.556 122.033 302.972 Q118.978 298.366 118.978 289.639 Q118.978 280.889 122.033 276.306 Q125.112 271.7 130.922 271.7 Z" fill="#000000" fill-rule="nonzero" fill-opacity="1" /><path clip-path="url(#clip382)" d="M240.392 1073.7 L266.352 1106.29 L292.312 1099.23 L318.272 1137.63 L344.232 1138.28 L370.192 1173.87 L396.152 1188.93 L422.112 1212.44 L448.072 1224.51 L474.032 1224.13 L499.992 1218.46 L525.952 1226.15 L551.912 1195.12 L577.872 1178.74 L603.832 1187.82 L629.792 1188.19 L655.752 1171.59 L681.712 1157.46 L707.672 1139.15 L733.632 1122.84 L759.592 1087.13 L785.552 1058.93 L811.512 1039.91 L837.471 1021.2 L863.431 998.664 L889.391 962.49 L915.351 972.044 L941.311 944.893 L967.271 914.562 L993.231 874.184 L1019.19 874.642 L1045.15 855.651 L1071.11 856.932 L1097.07 837.608 L1123.03 839.576 L1148.99 859.146 L1174.95 879.655 L1200.91 867.3 L1226.87 867.997 L1252.83 878.89 L1278.79 890.88 L1304.75 901.324 L1330.71 919.563 L1356.67 912.26 L1382.63 924.245 L1408.59 917.502 L1434.55 913.091 L1460.51 893.321 L1486.47 902.855 L1512.43 891.448 L1538.39 884.759 L1564.35 869.951 L1590.31 846.863 L1616.27 843.332 L1642.23 820.384 L1668.19 775.196 L1694.15 769.715 L1720.11 759.534 L1746.07 766.158 L1772.03 751.071 L1797.99 731.812 L1823.95 697.619 L1849.91 682.984 L1875.87 673.163 L1901.83 676.302 L1927.79 696.853 L1953.75 735.216 L1979.71 761.569 L2005.67 802.507 L2031.63 841.922 L2057.59 899.529 L2083.55 967.57 L2109.51 1031.96 L2135.47 1096.11 L2161.43 1168.61 L2187.39 1239.05 L2213.35 1300.21 L2239.31 1361.04 L2265.27 1394.82 L2291.23 1445.72 L2291.23 891.671 L2265.27 854.553 L2239.31 822.337 L2213.35 770.996 L2187.39 737.702 L2161.43 689.054 L2135.47 653.124 L2109.51 591.857 L2083.55 540.358 L2057.59 478.867 L2031.63 434.65 L2005.67 378.842 L1979.71 332.753 L1953.75 321.549 L1927.79 320.721 L1901.83 285.104 L1875.87 283.294 L1849.91 278.553 L1823.95 295.965 L1797.99 293.82 L1772.03 300.654 L1746.07 301.325 L1720.11 336.392 L1694.15 352.506 L1668.19 351.182 L1642.23 372.708 L1616.27 397.048 L1590.31 412.727 L1564.35 430.815 L1538.39 453.131 L1512.43 486.005 L1486.47 491.904 L1460.51 501.081 L1434.55 489.626 L1408.59 462.791 L1382.63 436.894 L1356.67 431.616 L1330.71 426.743 L1304.75 409.627 L1278.79 425.556 L1252.83 424.663 L1226.87 428.714 L1200.91 433.29 L1174.95 410.481 L1148.99 377.367 L1123.03 372.017 L1097.07 399.647 L1071.11 385.777 L1045.15 414.886 L1019.19 427.083 L993.231 443.502 L967.271 452.417 L941.311 443.626 L915.351 465.428 L889.391 501.971 L863.431 542.79 L837.471 582.434 L811.512 611.458 L785.552 641.781 L759.592 700.63 L733.632 713.225 L707.672 724.835 L681.712 720.129 L655.752 722.672 L629.792 737.016 L603.832 755.8 L577.872 797.006 L551.912 829.303 L525.952 818.737 L499.992 828.961 L474.032 813.478 L448.072 782.518 L422.112 763.178 L396.152 757.327 L370.192 743.943 L344.232 732.863 L318.272 695.01 L292.312 673.386 L266.352 652.201 L240.392 663.822  Z" fill="#009af9" fill-rule="evenodd" fill-opacity="0.5"/>
<polyline clip-path="url(#clip382)" style="stroke:#009af9; stroke-linecap:round; stroke-linejoin:round; stroke-width:4; stroke-opacity:1; fill:none" points="240.392,868.762 266.352,879.243 292.312,886.31 318.272,916.321 344.232,935.572 370.192,958.907 396.152,973.128 422.112,987.808 448.072,1003.51 474.032,1018.8 499.992,1023.71 525.952,1022.44 551.912,1012.21 577.872,987.872 603.832,971.811 629.792,962.605 655.752,947.133 681.712,938.797 707.672,931.995 733.632,918.03 759.592,893.881 785.552,850.354 811.512,825.683 837.471,801.816 863.431,770.727 889.391,732.23 915.351,718.736 941.311,694.26 967.271,683.49 993.231,658.843 1019.19,650.862 1045.15,635.269 1071.11,621.355 1097.07,618.627 1123.03,605.797 1148.99,618.257 1174.95,645.068 1200.91,650.295 1226.87,648.356 1252.83,651.776 1278.79,658.218 1304.75,655.476 1330.71,673.153 1356.67,671.938 1382.63,680.569 1408.59,690.146 1434.55,701.358 1460.51,697.201 1486.47,697.379 1512.43,688.727 1538.39,668.945 1564.35,650.383 1590.31,629.795 1616.27,620.19 1642.23,596.546 1668.19,563.189 1694.15,561.111 1720.11,547.963 1746.07,533.741 1772.03,525.863 1797.99,512.816 1823.95,496.792 1849.91,480.769 1875.87,478.229 1901.83,480.703 1927.79,508.787 1953.75,528.382 1979.71,547.161 2005.67,590.675 2031.63,638.286 2057.59,689.198 2083.55,753.964 2109.51,811.909 2135.47,874.617 2161.43,928.832 2187.39,988.373 2213.35,1035.6 2239.31,1091.69 2265.27,1124.68 2291.23,1168.69 "/>
<path clip-path="url(#clip382)" d="M240.392 796.414 L266.352 823.168 L292.312 834.756 L318.272 825.053 L344.232 796.023 L370.192 829.178 L396.152 847.856 L422.112 806.324 L448.072 836.2 L474.032 854.455 L499.992 921.042 L525.952 987.948 L551.912 1063.27 L577.872 1022.33 L603.832 1035.93 L629.792 1082.77 L655.752 1041.07 L681.712 1048.19 L707.672 1099.98 L733.632 1128.84 L759.592 1155.8 L785.552 1170.35 L811.512 1165 L837.471 1152.73 L863.431 1170.67 L889.391 1099.47 L915.351 1078.83 L941.311 1091.73 L967.271 1125.59 L993.231 1087.03 L1019.19 1044.3 L1045.15 1061.85 L1071.11 977.096 L1097.07 960.524 L1123.03 929.529 L1148.99 885.355 L1174.95 855.018 L1200.91 903.201 L1226.87 925.573 L1252.83 899.453 L1278.79 910.2 L1304.75 897.594 L1330.71 869.407 L1356.67 855.811 L1382.63 813.185 L1408.59 797.066 L1434.55 818.614 L1460.51 863.318 L1486.47 890.181 L1512.43 916.976 L1538.39 937.268 L1564.35 888.847 L1590.31 903.949 L1616.27 928.837 L1642.23 908.603 L1668.19 918.612 L1694.15 890.812 L1720.11 878.632 L1746.07 845.687 L1772.03 794.885 L1797.99 792.055 L1823.95 779.869 L1849.91 750.628 L1875.87 674.386 L1901.83 608.048 L1927.79 555.885 L1953.75 518.628 L1979.71 486.066 L2005.67 414.878 L2031.63 351.472 L2057.59 330.446 L2083.55 248.049 L2109.51 274.895 L2135.47 293.617 L2161.43 277.689 L2187.39 290.079 L2213.35 289.05 L2239.31 334.467 L2265.27 414.804 L2291.23 466.195 L2291.23 289.045 L2265.27 265.857 L2239.31 205.724 L2213.35 149.806 L2187.39 131.682 L2161.43 143.079 L2135.47 154.268 L2109.51 128.757 L2083.55 87.9763 L2057.59 175.702 L2031.63 207.839 L2005.67 271.334 L1979.71 351.423 L1953.75 364.276 L1927.79 412.368 L1901.83 464.466 L1875.87 524.965 L1849.91 624.263 L1823.95 617.054 L1797.99 646.561 L1772.03 659.403 L1746.07 716.313 L1720.11 756.671 L1694.15 742.487 L1668.19 763.291 L1642.23 769.838 L1616.27 762.493 L1590.31 749.001 L1564.35 751.147 L1538.39 789.766 L1512.43 781.158 L1486.47 764.958 L1460.51 726.883 L1434.55 684.39 L1408.59 671.154 L1382.63 670.413 L1356.67 718.158 L1330.71 728.207 L1304.75 749.24 L1278.79 784.831 L1252.83 755.743 L1226.87 785.902 L1200.91 759.543 L1174.95 707.253 L1148.99 745.406 L1123.03 793.182 L1097.07 835.436 L1071.11 846.599 L1045.15 922.614 L1019.19 905.403 L993.231 949.853 L967.271 980.826 L941.311 970.832 L915.351 956.54 L889.391 974.976 L863.431 1030.78 L837.471 1027.16 L811.512 1039.02 L785.552 1032.1 L759.592 1013.06 L733.632 988.59 L707.672 963.185 L681.712 909.628 L655.752 891.447 L629.792 942.417 L603.832 919.268 L577.872 893.431 L551.912 923.779 L525.952 860.165 L499.992 788.377 L474.032 719.434 L448.072 689.454 L422.112 676.429 L396.152 694.59 L370.192 687.758 L344.232 659.404 L318.272 685.545 L292.312 701.243 L266.352 687.942 L240.392 651.565  Z" fill="#e26f46" fill-rule="evenodd" fill-opacity="0.5"/>
<polyline clip-path="url(#clip382)" style="stroke:#e26f46; stroke-linecap:round; stroke-linejoin:round; stroke-width:4; stroke-opacity:1; fill:none" points="240.392,723.99 266.352,755.555 292.312,767.999 318.272,755.299 344.232,727.713 370.192,758.468 396.152,771.223 422.112,741.376 448.072,762.827 474.032,786.945 499.992,854.71 525.952,924.056 551.912,993.525 577.872,957.881 603.832,977.6 629.792,1012.59 655.752,966.261 681.712,978.909 707.672,1031.58 733.632,1058.72 759.592,1084.43 785.552,1101.23 811.512,1102.01 837.471,1089.94 863.431,1100.73 889.391,1037.22 915.351,1017.69 941.311,1031.28 967.271,1053.21 993.231,1018.44 1019.19,974.85 1045.15,992.234 1071.11,911.847 1097.07,897.98 1123.03,861.356 1148.99,815.38 1174.95,781.136 1200.91,831.372 1226.87,855.738 1252.83,827.598 1278.79,847.515 1304.75,823.417 1330.71,798.807 1356.67,786.984 1382.63,741.799 1408.59,734.11 1434.55,751.502 1460.51,795.1 1486.47,827.569 1512.43,849.067 1538.39,863.517 1564.35,819.997 1590.31,826.475 1616.27,845.665 1642.23,839.22 1668.19,840.951 1694.15,816.65 1720.11,817.651 1746.07,781 1772.03,727.144 1797.99,719.308 1823.95,698.462 1849.91,687.445 1875.87,599.676 1901.83,536.257 1927.79,484.127 1953.75,441.452 1979.71,418.745 2005.67,343.106 2031.63,279.656 2057.59,253.074 2083.55,168.013 2109.51,201.826 2135.47,223.943 2161.43,210.384 2187.39,210.88 2213.35,219.428 2239.31,270.096 2265.27,340.33 2291.23,377.62 "/>
<polyline clip-path="url(#clip382)" style="stroke:#3da44d; stroke-linecap:round; stroke-linejoin:round; stroke-width:4; stroke-opacity:1; fill:none" stroke-dasharray="16, 10" points="240.392,823.058 266.352,905.321 292.312,971.922 318.272,1045.39 344.232,1027.01 370.192,998.204 396.152,1066.4 422.112,1003.07 448.072,1058.91 474.032,1109.95 499.992,1031.82 525.952,927.832 551.912,919.709 577.872,980.583 603.832,911.663 629.792,930.024 655.752,1011.02 681.712,999.614 707.672,1023 733.632,1081.5 759.592,1140.3 785.552,1098.61 811.512,1099.83 837.471,1055.85 863.431,970.755 889.391,1005.4 915.351,936.109 941.311,915.157 967.271,914.06 993.231,882.252 1019.19,879.406 1045.15,803.635 1071.11,828.944 1097.07,716.541 1123.03,695.845 1148.99,698.753 1174.95,760.304 1200.91,753.893 1226.87,583.242 1252.83,593.024 1278.79,611.656 1304.75,638.802 1330.71,595.967 1356.67,606.485 1382.63,648.612 1408.59,652.465 1434.55,697.524 1460.51,641.741 1486.47,648.808 1512.43,620.384 1538.39,597.833 1564.35,672.379 1590.31,653.227 1616.27,711.59 1642.23,599.511 1668.19,582.028 1694.15,550.969 1720.11,502.107 1746.07,511.941 1772.03,488.448 1797.99,443.523 1823.95,380.612 1849.91,369.999 1875.87,295.162 1901.83,272.856 1927.79,334.093 1953.75,455.626 1979.71,557.992 2005.67,568.214 2031.63,563.752 2057.59,613.352 2083.55,744.17 2109.51,764.395 2135.47,777.921 2161.43,787.353 2187.39,824.197 2213.35,944.478 2239.31,1008.11 2265.27,942.07 2291.23,1072.11 "/>
<polyline clip-path="url(#clip382)" style="stroke:#c271d2; stroke-linecap:round; stroke-linejoin:round; stroke-width:4; stroke-opacity:1; fill:none" stroke-dasharray="16, 10" points="240.392,790.534 266.352,813.972 292.312,833.116 318.272,760.522 344.232,788.409 370.192,737.428 396.152,778.981 422.112,667.89 448.072,748.64 474.032,784.681 499.992,856.579 525.952,881.644 551.912,954.879 577.872,955.046 603.832,940.006 629.792,991.564 655.752,893.714 681.712,1012.37 707.672,1107.95 733.632,1059.24 759.592,1024.19 785.552,1067.64 811.512,1109.54 837.471,1095.37 863.431,1083.27 889.391,1059.73 915.351,1036.78 941.311,964.824 967.271,1023.42 993.231,1034.97 1019.19,1035.97 1045.15,1063.98 1071.11,938.697 1097.07,933.276 1123.03,883.693 1148.99,778.766 1174.95,775.203 1200.91,871.73 1226.87,852.145 1252.83,815.459 1278.79,851.485 1304.75,842.067 1330.71,808.734 1356.67,726.668 1382.63,716.856 1408.59,755.46 1434.55,736.075 1460.51,839.315 1486.47,839.749 1512.43,872.504 1538.39,835.739 1564.35,820.025 1590.31,814.177 1616.27,856.399 1642.23,830.98 1668.19,877.625 1694.15,847.78 1720.11,804.42 1746.07,718.369 1772.03,749.928 1797.99,751.803 1823.95,694.997 1849.91,675.713 1875.87,612.061 1901.83,562.818 1927.79,504.559 1953.75,434.612 1979.71,428.219 2005.67,395.709 2031.63,255.519 2057.59,245.158 2083.55,154.905 2109.51,189.775 2135.47,230.957 2161.43,153.889 2187.39,176.225 2213.35,230.441 2239.31,274.691 2265.27,353.394 2291.23,410.466 "/>
<path clip-path="url(#clip380)" d="M251.33 354.418 L708.486 354.418 L708.486 95.2176 L251.33 95.2176  Z" fill="#ffffff" fill-rule="evenodd" fill-opacity="1"/>
<polyline clip-path="url(#clip380)" style="stroke:#000000; stroke-linecap:round; stroke-linejoin:round; stroke-width:4; stroke-opacity:1; fill:none" points="251.33,354.418 708.486,354.418 708.486,95.2176 251.33,95.2176 251.33,354.418 "/>
<polyline clip-path="url(#clip380)" style="stroke:#009af9; stroke-linecap:round; stroke-linejoin:round; stroke-width:4; stroke-opacity:1; fill:none" points="275.484,147.058 420.41,147.058 "/>
<path clip-path="url(#clip380)" d="M449.24 133.62 L449.24 146.606 L455.12 146.606 Q458.384 146.606 460.166 144.916 Q461.948 143.227 461.948 140.102 Q461.948 137 460.166 135.31 Q458.384 133.62 455.12 133.62 L449.24 133.62 M444.564 129.778 L455.12 129.778 Q460.93 129.778 463.893 132.416 Q466.879 135.032 466.879 140.102 Q466.879 145.217 463.893 147.833 Q460.93 150.449 455.12 150.449 L449.24 150.449 L449.24 164.338 L444.564 164.338 L444.564 129.778 Z" fill="#000000" fill-rule="nonzero" fill-opacity="1" /><path clip-path="url(#clip380)" d="M473.152 129.778 L493.013 129.778 L493.013 133.713 L477.828 133.713 L477.828 143.898 L491.532 143.898 L491.532 147.833 L477.828 147.833 L477.828 164.338 L473.152 164.338 L473.152 129.778 Z" fill="#000000" fill-rule="nonzero" fill-opacity="1" /><path clip-path="url(#clip380)" d="M531.832 139.176 L531.832 143.203 Q530.027 142.277 528.082 141.815 Q526.138 141.352 524.055 141.352 Q520.883 141.352 519.286 142.324 Q517.712 143.296 517.712 145.24 Q517.712 146.722 518.846 147.578 Q519.98 148.412 523.406 149.176 L524.865 149.5 Q529.402 150.472 531.3 152.254 Q533.221 154.014 533.221 157.185 Q533.221 160.796 530.351 162.902 Q527.504 165.009 522.504 165.009 Q520.42 165.009 518.152 164.592 Q515.906 164.199 513.406 163.388 L513.406 158.99 Q515.768 160.217 518.059 160.842 Q520.351 161.444 522.596 161.444 Q525.605 161.444 527.226 160.426 Q528.846 159.384 528.846 157.509 Q528.846 155.773 527.666 154.847 Q526.508 153.921 522.55 153.064 L521.068 152.717 Q517.11 151.884 515.351 150.171 Q513.592 148.435 513.592 145.426 Q513.592 141.768 516.184 139.778 Q518.777 137.787 523.545 137.787 Q525.906 137.787 527.99 138.134 Q530.073 138.481 531.832 139.176 Z" fill="#000000" fill-rule="nonzero" fill-opacity="1" /><path clip-path="url(#clip380)" d="M560.189 143.389 Q561.786 140.518 564.008 139.153 Q566.23 137.787 569.239 137.787 Q573.29 137.787 575.489 140.634 Q577.688 143.458 577.688 148.689 L577.688 164.338 L573.406 164.338 L573.406 148.828 Q573.406 145.102 572.087 143.296 Q570.767 141.49 568.059 141.49 Q564.749 141.49 562.827 143.69 Q560.906 145.889 560.906 149.685 L560.906 164.338 L556.624 164.338 L556.624 148.828 Q556.624 145.078 555.304 143.296 Q553.985 141.49 551.23 141.49 Q547.966 141.49 546.045 143.713 Q544.124 145.912 544.124 149.685 L544.124 164.338 L539.841 164.338 L539.841 138.412 L544.124 138.412 L544.124 142.44 Q545.582 140.055 547.619 138.921 Q549.656 137.787 552.457 137.787 Q555.281 137.787 557.249 139.222 Q559.24 140.657 560.189 143.389 Z" fill="#000000" fill-rule="nonzero" fill-opacity="1" /><path clip-path="url(#clip380)" d="M596.23 141.398 Q592.804 141.398 590.813 144.083 Q588.823 146.745 588.823 151.398 Q588.823 156.051 590.79 158.736 Q592.781 161.398 596.23 161.398 Q599.633 161.398 601.624 158.713 Q603.614 156.027 603.614 151.398 Q603.614 146.791 601.624 144.106 Q599.633 141.398 596.23 141.398 M596.23 137.787 Q601.786 137.787 604.957 141.398 Q608.128 145.009 608.128 151.398 Q608.128 157.764 604.957 161.398 Q601.786 165.009 596.23 165.009 Q590.651 165.009 587.48 161.398 Q584.332 157.764 584.332 151.398 Q584.332 145.009 587.48 141.398 Q590.651 137.787 596.23 137.787 Z" fill="#000000" fill-rule="nonzero" fill-opacity="1" /><path clip-path="url(#clip380)" d="M625.235 141.398 Q621.809 141.398 619.818 144.083 Q617.827 146.745 617.827 151.398 Q617.827 156.051 619.795 158.736 Q621.785 161.398 625.235 161.398 Q628.637 161.398 630.628 158.713 Q632.619 156.027 632.619 151.398 Q632.619 146.791 630.628 144.106 Q628.637 141.398 625.235 141.398 M625.235 137.787 Q630.79 137.787 633.961 141.398 Q637.133 145.009 637.133 151.398 Q637.133 157.764 633.961 161.398 Q630.79 165.009 625.235 165.009 Q619.656 165.009 616.485 161.398 Q613.336 157.764 613.336 151.398 Q613.336 145.009 616.485 141.398 Q619.656 137.787 625.235 137.787 Z" fill="#000000" fill-rule="nonzero" fill-opacity="1" /><path clip-path="url(#clip380)" d="M648.406 131.051 L648.406 138.412 L657.179 138.412 L657.179 141.722 L648.406 141.722 L648.406 155.796 Q648.406 158.967 649.262 159.87 Q650.142 160.773 652.804 160.773 L657.179 160.773 L657.179 164.338 L652.804 164.338 Q647.873 164.338 645.998 162.509 Q644.123 160.657 644.123 155.796 L644.123 141.722 L640.998 141.722 L640.998 138.412 L644.123 138.412 L644.123 131.051 L648.406 131.051 Z" fill="#000000" fill-rule="nonzero" fill-opacity="1" /><path clip-path="url(#clip380)" d="M684.331 148.689 L684.331 164.338 L680.072 164.338 L680.072 148.828 Q680.072 145.148 678.637 143.319 Q677.202 141.49 674.331 141.49 Q670.882 141.49 668.892 143.69 Q666.901 145.889 666.901 149.685 L666.901 164.338 L662.619 164.338 L662.619 128.319 L666.901 128.319 L666.901 142.44 Q668.429 140.102 670.489 138.944 Q672.572 137.787 675.281 137.787 Q679.748 137.787 682.04 140.565 Q684.331 143.319 684.331 148.689 Z" fill="#000000" fill-rule="nonzero" fill-opacity="1" /><polyline clip-path="url(#clip380)" style="stroke:#e26f46; stroke-linecap:round; stroke-linejoin:round; stroke-width:4; stroke-opacity:1; fill:none" points="275.484,198.898 420.41,198.898 "/>
<path clip-path="url(#clip380)" d="M449.24 185.46 L449.24 198.446 L455.12 198.446 Q458.384 198.446 460.166 196.756 Q461.948 195.067 461.948 191.942 Q461.948 188.84 460.166 187.15 Q458.384 185.46 455.12 185.46 L449.24 185.46 M444.564 181.618 L455.12 181.618 Q460.93 181.618 463.893 184.256 Q466.879 186.872 466.879 191.942 Q466.879 197.057 463.893 199.673 Q460.93 202.289 455.12 202.289 L449.24 202.289 L449.24 216.178 L444.564 216.178 L444.564 181.618 Z" fill="#000000" fill-rule="nonzero" fill-opacity="1" /><path clip-path="url(#clip380)" d="M473.152 181.618 L493.013 181.618 L493.013 185.553 L477.828 185.553 L477.828 195.738 L491.532 195.738 L491.532 199.673 L477.828 199.673 L477.828 216.178 L473.152 216.178 L473.152 181.618 Z" fill="#000000" fill-rule="nonzero" fill-opacity="1" /><path clip-path="url(#clip380)" d="M531.832 191.016 L531.832 195.043 Q530.027 194.117 528.082 193.655 Q526.138 193.192 524.055 193.192 Q520.883 193.192 519.286 194.164 Q517.712 195.136 517.712 197.08 Q517.712 198.562 518.846 199.418 Q519.98 200.252 523.406 201.016 L524.865 201.34 Q529.402 202.312 531.3 204.094 Q533.221 205.854 533.221 209.025 Q533.221 212.636 530.351 214.742 Q527.504 216.849 522.504 216.849 Q520.42 216.849 518.152 216.432 Q515.906 216.039 513.406 215.228 L513.406 210.83 Q515.768 212.057 518.059 212.682 Q520.351 213.284 522.596 213.284 Q525.605 213.284 527.226 212.266 Q528.846 211.224 528.846 209.349 Q528.846 207.613 527.666 206.687 Q526.508 205.761 522.55 204.904 L521.068 204.557 Q517.11 203.724 515.351 202.011 Q513.592 200.275 513.592 197.266 Q513.592 193.608 516.184 191.618 Q518.777 189.627 523.545 189.627 Q525.906 189.627 527.99 189.974 Q530.073 190.321 531.832 191.016 Z" fill="#000000" fill-rule="nonzero" fill-opacity="1" /><path clip-path="url(#clip380)" d="M560.189 195.229 Q561.786 192.358 564.008 190.993 Q566.23 189.627 569.239 189.627 Q573.29 189.627 575.489 192.474 Q577.688 195.298 577.688 200.529 L577.688 216.178 L573.406 216.178 L573.406 200.668 Q573.406 196.942 572.087 195.136 Q570.767 193.33 568.059 193.33 Q564.749 193.33 562.827 195.53 Q560.906 197.729 560.906 201.525 L560.906 216.178 L556.624 216.178 L556.624 200.668 Q556.624 196.918 555.304 195.136 Q553.985 193.33 551.23 193.33 Q547.966 193.33 546.045 195.553 Q544.124 197.752 544.124 201.525 L544.124 216.178 L539.841 216.178 L539.841 190.252 L544.124 190.252 L544.124 194.28 Q545.582 191.895 547.619 190.761 Q549.656 189.627 552.457 189.627 Q555.281 189.627 557.249 191.062 Q559.24 192.497 560.189 195.229 Z" fill="#000000" fill-rule="nonzero" fill-opacity="1" /><path clip-path="url(#clip380)" d="M596.23 193.238 Q592.804 193.238 590.813 195.923 Q588.823 198.585 588.823 203.238 Q588.823 207.891 590.79 210.576 Q592.781 213.238 596.23 213.238 Q599.633 213.238 601.624 210.553 Q603.614 207.867 603.614 203.238 Q603.614 198.631 601.624 195.946 Q599.633 193.238 596.23 193.238 M596.23 189.627 Q601.786 189.627 604.957 193.238 Q608.128 196.849 608.128 203.238 Q608.128 209.604 604.957 213.238 Q601.786 216.849 596.23 216.849 Q590.651 216.849 587.48 213.238 Q584.332 209.604 584.332 203.238 Q584.332 196.849 587.48 193.238 Q590.651 189.627 596.23 189.627 Z" fill="#000000" fill-rule="nonzero" fill-opacity="1" /><path clip-path="url(#clip380)" d="M625.235 193.238 Q621.809 193.238 619.818 195.923 Q617.827 198.585 617.827 203.238 Q617.827 207.891 619.795 210.576 Q621.785 213.238 625.235 213.238 Q628.637 213.238 630.628 210.553 Q632.619 207.867 632.619 203.238 Q632.619 198.631 630.628 195.946 Q628.637 193.238 625.235 193.238 M625.235 189.627 Q630.79 189.627 633.961 193.238 Q637.133 196.849 637.133 203.238 Q637.133 209.604 633.961 213.238 Q630.79 216.849 625.235 216.849 Q619.656 216.849 616.485 213.238 Q613.336 209.604 613.336 203.238 Q613.336 196.849 616.485 193.238 Q619.656 189.627 625.235 189.627 Z" fill="#000000" fill-rule="nonzero" fill-opacity="1" /><path clip-path="url(#clip380)" d="M648.406 182.891 L648.406 190.252 L657.179 190.252 L657.179 193.562 L648.406 193.562 L648.406 207.636 Q648.406 210.807 649.262 211.71 Q650.142 212.613 652.804 212.613 L657.179 212.613 L657.179 216.178 L652.804 216.178 Q647.873 216.178 645.998 214.349 Q644.123 212.497 644.123 207.636 L644.123 193.562 L640.998 193.562 L640.998 190.252 L644.123 190.252 L644.123 182.891 L648.406 182.891 Z" fill="#000000" fill-rule="nonzero" fill-opacity="1" /><path clip-path="url(#clip380)" d="M684.331 200.529 L684.331 216.178 L680.072 216.178 L680.072 200.668 Q680.072 196.988 678.637 195.159 Q677.202 193.33 674.331 193.33 Q670.882 193.33 668.892 195.53 Q666.901 197.729 666.901 201.525 L666.901 216.178 L662.619 216.178 L662.619 180.159 L666.901 180.159 L666.901 194.28 Q668.429 191.942 670.489 190.784 Q672.572 189.627 675.281 189.627 Q679.748 189.627 682.04 192.405 Q684.331 195.159 684.331 200.529 Z" fill="#000000" fill-rule="nonzero" fill-opacity="1" /><polyline clip-path="url(#clip380)" style="stroke:#3da44d; stroke-linecap:round; stroke-linejoin:round; stroke-width:4; stroke-opacity:1; fill:none" stroke-dasharray="16, 10" points="275.484,250.738 420.41,250.738 "/>
<path clip-path="url(#clip380)" d="M444.564 233.458 L473.8 233.458 L473.8 237.393 L461.532 237.393 L461.532 268.018 L456.833 268.018 L456.833 237.393 L444.564 237.393 L444.564 233.458 Z" fill="#000000" fill-rule="nonzero" fill-opacity="1" /><path clip-path="url(#clip380)" d="M486.184 246.073 Q485.467 245.657 484.61 245.471 Q483.777 245.263 482.758 245.263 Q479.147 245.263 477.203 247.624 Q475.282 249.962 475.282 254.36 L475.282 268.018 L470.999 268.018 L470.999 242.092 L475.282 242.092 L475.282 246.12 Q476.624 243.758 478.777 242.624 Q480.93 241.467 484.008 241.467 Q484.448 241.467 484.981 241.536 Q485.513 241.583 486.161 241.698 L486.184 246.073 Z" fill="#000000" fill-rule="nonzero" fill-opacity="1" /><path clip-path="url(#clip380)" d="M490.212 257.786 L490.212 242.092 L494.471 242.092 L494.471 257.624 Q494.471 261.305 495.907 263.156 Q497.342 264.985 500.212 264.985 Q503.661 264.985 505.652 262.786 Q507.666 260.587 507.666 256.791 L507.666 242.092 L511.925 242.092 L511.925 268.018 L507.666 268.018 L507.666 264.036 Q506.115 266.397 504.055 267.555 Q502.018 268.689 499.309 268.689 Q494.842 268.689 492.527 265.911 Q490.212 263.133 490.212 257.786 M500.93 241.467 L500.93 241.467 Z" fill="#000000" fill-rule="nonzero" fill-opacity="1" /><path clip-path="url(#clip380)" d="M542.874 253.99 L542.874 256.073 L523.291 256.073 Q523.568 260.471 525.93 262.786 Q528.314 265.078 532.55 265.078 Q535.004 265.078 537.295 264.476 Q539.61 263.874 541.879 262.67 L541.879 266.698 Q539.587 267.67 537.179 268.18 Q534.772 268.689 532.295 268.689 Q526.092 268.689 522.457 265.078 Q518.846 261.467 518.846 255.309 Q518.846 248.944 522.272 245.217 Q525.721 241.467 531.554 241.467 Q536.786 241.467 539.818 244.846 Q542.874 248.203 542.874 253.99 M538.615 252.74 Q538.568 249.245 536.647 247.161 Q534.749 245.078 531.601 245.078 Q528.036 245.078 525.883 247.092 Q523.754 249.106 523.43 252.763 L538.615 252.74 Z" fill="#000000" fill-rule="nonzero" fill-opacity="1" /><polyline clip-path="url(#clip380)" style="stroke:#c271d2; stroke-linecap:round; stroke-linejoin:round; stroke-width:4; stroke-opacity:1; fill:none" stroke-dasharray="16, 10" points="275.484,302.578 420.41,302.578 "/>
<path clip-path="url(#clip380)" d="M444.564 285.298 L473.8 285.298 L473.8 289.233 L461.532 289.233 L461.532 319.858 L456.833 319.858 L456.833 289.233 L444.564 289.233 L444.564 285.298 Z" fill="#000000" fill-rule="nonzero" fill-opacity="1" /><path clip-path="url(#clip380)" d="M486.184 297.913 Q485.467 297.497 484.61 297.311 Q483.777 297.103 482.758 297.103 Q479.147 297.103 477.203 299.464 Q475.282 301.802 475.282 306.2 L475.282 319.858 L470.999 319.858 L470.999 293.932 L475.282 293.932 L475.282 297.96 Q476.624 295.598 478.777 294.464 Q480.93 293.307 484.008 293.307 Q484.448 293.307 484.981 293.376 Q485.513 293.423 486.161 293.538 L486.184 297.913 Z" fill="#000000" fill-rule="nonzero" fill-opacity="1" /><path clip-path="url(#clip380)" d="M490.212 309.626 L490.212 293.932 L494.471 293.932 L494.471 309.464 Q494.471 313.145 495.907 314.996 Q497.342 316.825 500.212 316.825 Q503.661 316.825 505.652 314.626 Q507.666 312.427 507.666 308.631 L507.666 293.932 L511.925 293.932 L511.925 319.858 L507.666 319.858 L507.666 315.876 Q506.115 318.237 504.055 319.395 Q502.018 320.529 499.309 320.529 Q494.842 320.529 492.527 317.751 Q490.212 314.973 490.212 309.626 M500.93 293.307 L500.93 293.307 Z" fill="#000000" fill-rule="nonzero" fill-opacity="1" /><path clip-path="url(#clip380)" d="M542.874 305.83 L542.874 307.913 L523.291 307.913 Q523.568 312.311 525.93 314.626 Q528.314 316.918 532.55 316.918 Q535.004 316.918 537.295 316.316 Q539.61 315.714 541.879 314.51 L541.879 318.538 Q539.587 319.51 537.179 320.02 Q534.772 320.529 532.295 320.529 Q526.092 320.529 522.457 316.918 Q518.846 313.307 518.846 307.149 Q518.846 300.784 522.272 297.057 Q525.721 293.307 531.554 293.307 Q536.786 293.307 539.818 296.686 Q542.874 300.043 542.874 305.83 M538.615 304.58 Q538.568 301.085 536.647 299.001 Q534.749 296.918 531.601 296.918 Q528.036 296.918 525.883 298.932 Q523.754 300.946 523.43 304.603 L538.615 304.58 Z" fill="#000000" fill-rule="nonzero" fill-opacity="1" /></svg>
