<?xml version="1.0" encoding="utf-8"?>
<svg xmlns="http://www.w3.org/2000/svg" xmlns:xlink="http://www.w3.org/1999/xlink" width="600" height="400" viewBox="0 0 2400 1600">
<defs>
  <clipPath id="clip980">
    <rect x="0" y="0" width="2400" height="1600"/>
  </clipPath>
</defs>
<path clip-path="url(#clip980)" d="M0 1600 L2400 1600 L2400 0 L0 0  Z" fill="#ffffff" fill-rule="evenodd" fill-opacity="1"/>
<defs>
  <clipPath id="clip981">
    <rect x="177" y="47" width="2176" height="1440"/>
  </clipPath>
</defs>
<path clip-path="url(#clip980)" d="M177.871 1486.45 L2352.76 1486.45 L2352.76 47.2441 L177.871 47.2441  Z" fill="#ffffff" fill-rule="evenodd" fill-opacity="1"/>
<polyline clip-path="url(#clip981)" style="stroke:#000000; stroke-linecap:round; stroke-linejoin:round; stroke-width:2; stroke-opacity:0.1; fill:none" points="386.625,1486.45 386.625,47.2441 "/>
<polyline clip-path="url(#clip981)" style="stroke:#000000; stroke-linecap:round; stroke-linejoin:round; stroke-width:2; stroke-opacity:0.1; fill:none" points="813.099,1486.45 813.099,47.2441 "/>
<polyline clip-path="url(#clip981)" style="stroke:#000000; stroke-linecap:round; stroke-linejoin:round; stroke-width:2; stroke-opacity:0.1; fill:none" points="1239.57,1486.45 1239.57,47.2441 "/>
<polyline clip-path="url(#clip981)" style="stroke:#000000; stroke-linecap:round; stroke-linejoin:round; stroke-width:2; stroke-opacity:0.1; fill:none" points="1666.05,1486.45 1666.05,47.2441 "/>
<polyline clip-path="url(#clip981)" style="stroke:#000000; stroke-linecap:round; stroke-linejoin:round; stroke-width:2; stroke-opacity:0.1; fill:none" points="2092.52,1486.45 2092.52,47.2441 "/>
<polyline clip-path="url(#clip981)" style="stroke:#000000; stroke-linecap:round; stroke-linejoin:round; stroke-width:2; stroke-opacity:0.1; fill:none" points="177.871,1477.56 2352.76,1477.56 "/>
<polyline clip-path="url(#clip981)" style="stroke:#000000; stroke-linecap:round; stroke-linejoin:round; stroke-width:2; stroke-opacity:0.1; fill:none" points="177.871,1172.19 2352.76,1172.19 "/>
<polyline clip-path="url(#clip981)" style="stroke:#000000; stroke-linecap:round; stroke-linejoin:round; stroke-width:2; stroke-opacity:0.1; fill:none" points="177.871,866.824 2352.76,866.824 "/>
<polyline clip-path="url(#clip981)" style="stroke:#000000; stroke-linecap:round; stroke-linejoin:round; stroke-width:2; stroke-opacity:0.1; fill:none" points="177.871,561.455 2352.76,561.455 "/>
<polyline clip-path="url(#clip981)" style="stroke:#000000; stroke-linecap:round; stroke-linejoin:round; stroke-width:2; stroke-opacity:0.1; fill:none" points="177.871,256.085 2352.76,256.085 "/>
<polyline clip-path="url(#clip980)" style="stroke:#000000; stroke-linecap:round; stroke-linejoin:round; stroke-width:4; stroke-opacity:1; fill:none" points="177.871,1486.45 2352.76,1486.45 "/>
<polyline clip-path="url(#clip980)" style="stroke:#000000; stroke-linecap:round; stroke-linejoin:round; stroke-width:4; stroke-opacity:1; fill:none" points="386.625,1486.45 386.625,1467.55 "/>
<polyline clip-path="url(#clip980)" style="stroke:#000000; stroke-linecap:round; stroke-linejoin:round; stroke-width:4; stroke-opacity:1; fill:none" points="813.099,1486.45 813.099,1467.55 "/>
<polyline clip-path="url(#clip980)" style="stroke:#000000; stroke-linecap:round; stroke-linejoin:round; stroke-width:4; stroke-opacity:1; fill:none" points="1239.57,1486.45 1239.57,1467.55 "/>
<polyline clip-path="url(#clip980)" style="stroke:#000000; stroke-linecap:round; stroke-linejoin:round; stroke-width:4; stroke-opacity:1; fill:none" points="1666.05,1486.45 1666.05,1467.55 "/>
<polyline clip-path="url(#clip980)" style="stroke:#000000; stroke-linecap:round; stroke-linejoin:round; stroke-width:4; stroke-opacity:1; fill:none" points="2092.52,1486.45 2092.52,1467.55 "/>
<path clip-path="url(#clip980)" d="M340.688 1532.02 L370.363 1532.02 L370.363 1535.95 L340.688 1535.95 L340.688 1532.02 Z" fill="#000000" fill-rule="nonzero" fill-opacity="1" /><path clip-path="url(#clip980)" d="M394.623 1530.21 Q397.979 1530.93 399.854 1533.2 Q401.752 1535.47 401.752 1538.8 Q401.752 1543.92 398.234 1546.72 Q394.715 1549.52 388.234 1549.52 Q386.058 1549.52 383.743 1549.08 Q381.451 1548.66 378.998 1547.81 L378.998 1543.29 Q380.942 1544.43 383.257 1545.01 Q385.572 1545.58 388.095 1545.58 Q392.493 1545.58 394.785 1543.85 Q397.099 1542.11 397.099 1538.8 Q397.099 1535.75 394.947 1534.03 Q392.817 1532.3 388.998 1532.3 L384.97 1532.3 L384.97 1528.45 L389.183 1528.45 Q392.632 1528.45 394.461 1527.09 Q396.289 1525.7 396.289 1523.11 Q396.289 1520.45 394.391 1519.03 Q392.516 1517.6 388.998 1517.6 Q387.076 1517.6 384.877 1518.01 Q382.678 1518.43 380.039 1519.31 L380.039 1515.14 Q382.701 1514.4 385.016 1514.03 Q387.354 1513.66 389.414 1513.66 Q394.738 1513.66 397.84 1516.09 Q400.942 1518.5 400.942 1522.62 Q400.942 1525.49 399.299 1527.48 Q397.655 1529.45 394.623 1530.21 Z" fill="#000000" fill-rule="nonzero" fill-opacity="1" /><path clip-path="url(#clip980)" d="M420.618 1517.37 Q417.007 1517.37 415.178 1520.93 Q413.373 1524.47 413.373 1531.6 Q413.373 1538.71 415.178 1542.27 Q417.007 1545.82 420.618 1545.82 Q424.252 1545.82 426.058 1542.27 Q427.886 1538.71 427.886 1531.6 Q427.886 1524.47 426.058 1520.93 Q424.252 1517.37 420.618 1517.37 M420.618 1513.66 Q426.428 1513.66 429.484 1518.27 Q432.562 1522.85 432.562 1531.6 Q432.562 1540.33 429.484 1544.94 Q426.428 1549.52 420.618 1549.52 Q414.808 1549.52 411.729 1544.94 Q408.673 1540.33 408.673 1531.6 Q408.673 1522.85 411.729 1518.27 Q414.808 1513.66 420.618 1513.66 Z" fill="#000000" fill-rule="nonzero" fill-opacity="1" /><path clip-path="url(#clip980)" d="M813.099 1517.37 Q809.488 1517.37 807.66 1520.93 Q805.854 1524.47 805.854 1531.6 Q805.854 1538.71 807.66 1542.27 Q809.488 1545.82 813.099 1545.82 Q816.734 1545.82 818.539 1542.27 Q820.368 1538.71 820.368 1531.6 Q820.368 1524.47 818.539 1520.93 Q816.734 1517.37 813.099 1517.37 M813.099 1513.66 Q818.909 1513.66 821.965 1518.27 Q825.044 1522.85 825.044 1531.6 Q825.044 1540.33 821.965 1544.94 Q818.909 1549.52 813.099 1549.52 Q807.289 1549.52 804.21 1544.94 Q801.155 1540.33 801.155 1531.6 Q801.155 1522.85 804.21 1518.27 Q807.289 1513.66 813.099 1513.66 Z" fill="#000000" fill-rule="nonzero" fill-opacity="1" /><path clip-path="url(#clip980)" d="M1228.42 1530.21 Q1231.77 1530.93 1233.65 1533.2 Q1235.55 1535.47 1235.55 1538.8 Q1235.55 1543.92 1232.03 1546.72 Q1228.51 1549.52 1222.03 1549.52 Q1219.85 1549.52 1217.54 1549.08 Q1215.25 1548.66 1212.79 1547.81 L1212.79 1543.29 Q1214.74 1544.43 1217.05 1545.01 Q1219.37 1545.58 1221.89 1545.58 Q1226.29 1545.58 1228.58 1543.85 Q1230.89 1542.11 1230.89 1538.8 Q1230.89 1535.75 1228.74 1534.03 Q1226.61 1532.3 1222.79 1532.3 L1218.76 1532.3 L1218.76 1528.45 L1222.98 1528.45 Q1226.43 1528.45 1228.25 1527.09 Q1230.08 1525.7 1230.08 1523.11 Q1230.08 1520.45 1228.18 1519.03 Q1226.31 1517.6 1222.79 1517.6 Q1220.87 1517.6 1218.67 1518.01 Q1216.47 1518.43 1213.83 1519.31 L1213.83 1515.14 Q1216.5 1514.4 1218.81 1514.03 Q1221.15 1513.66 1223.21 1513.66 Q1228.53 1513.66 1231.63 1516.09 Q1234.74 1518.5 1234.74 1522.62 Q1234.74 1525.49 1233.09 1527.48 Q1231.45 1529.45 1228.42 1530.21 Z" fill="#000000" fill-rule="nonzero" fill-opacity="1" /><path clip-path="url(#clip980)" d="M1254.41 1517.37 Q1250.8 1517.37 1248.97 1520.93 Q1247.17 1524.47 1247.17 1531.6 Q1247.17 1538.71 1248.97 1542.27 Q1250.8 1545.82 1254.41 1545.82 Q1258.05 1545.82 1259.85 1542.27 Q1261.68 1538.71 1261.68 1531.6 Q1261.68 1524.47 1259.85 1520.93 Q1258.05 1517.37 1254.41 1517.37 M1254.41 1513.66 Q1260.22 1513.66 1263.28 1518.27 Q1266.36 1522.85 1266.36 1531.6 Q1266.36 1540.33 1263.28 1544.94 Q1260.22 1549.52 1254.41 1549.52 Q1248.6 1549.52 1245.52 1544.94 Q1242.47 1540.33 1242.47 1531.6 Q1242.47 1522.85 1245.52 1518.27 Q1248.6 1513.66 1254.41 1513.66 Z" fill="#000000" fill-rule="nonzero" fill-opacity="1" /><path clip-path="url(#clip980)" d="M1651.45 1529.7 Q1648.31 1529.7 1646.45 1531.86 Q1644.62 1534.01 1644.62 1537.76 Q1644.62 1541.49 1646.45 1543.66 Q1648.31 1545.82 1651.45 1545.82 Q1654.6 1545.82 1656.43 1543.66 Q1658.28 1541.49 1658.28 1537.76 Q1658.28 1534.01 1656.43 1531.86 Q1654.6 1529.7 1651.45 1529.7 M1660.74 1515.05 L1660.74 1519.31 Q1658.98 1518.48 1657.17 1518.04 Q1655.39 1517.6 1653.63 1517.6 Q1649 1517.6 1646.55 1520.72 Q1644.12 1523.85 1643.77 1530.17 Q1645.13 1528.15 1647.19 1527.09 Q1649.25 1526 1651.73 1526 Q1656.94 1526 1659.95 1529.17 Q1662.98 1532.32 1662.98 1537.76 Q1662.98 1543.08 1659.83 1546.3 Q1656.68 1549.52 1651.45 1549.52 Q1645.46 1549.52 1642.29 1544.94 Q1639.12 1540.33 1639.12 1531.6 Q1639.12 1523.41 1643 1518.55 Q1646.89 1513.66 1653.44 1513.66 Q1655.2 1513.66 1656.99 1514.01 Q1658.79 1514.36 1660.74 1515.05 Z" fill="#000000" fill-rule="nonzero" fill-opacity="1" /><path clip-path="url(#clip980)" d="M1681.04 1517.37 Q1677.43 1517.37 1675.6 1520.93 Q1673.79 1524.47 1673.79 1531.6 Q1673.79 1538.71 1675.6 1542.27 Q1677.43 1545.82 1681.04 1545.82 Q1684.67 1545.82 1686.48 1542.27 Q1688.3 1538.71 1688.3 1531.6 Q1688.3 1524.47 1686.48 1520.93 Q1684.67 1517.37 1681.04 1517.37 M1681.04 1513.66 Q1686.85 1513.66 1689.9 1518.27 Q1692.98 1522.85 1692.98 1531.6 Q1692.98 1540.33 1689.9 1544.94 Q1686.85 1549.52 1681.04 1549.52 Q1675.23 1549.52 1672.15 1544.94 Q1669.09 1540.33 1669.09 1531.6 Q1669.09 1522.85 1672.15 1518.27 Q1675.23 1513.66 1681.04 1513.66 Z" fill="#000000" fill-rule="nonzero" fill-opacity="1" /><path clip-path="url(#clip980)" d="M2067.65 1548.13 L2067.65 1543.87 Q2069.41 1544.7 2071.21 1545.14 Q2073.02 1545.58 2074.76 1545.58 Q2079.39 1545.58 2081.82 1542.48 Q2084.27 1539.36 2084.62 1533.01 Q2083.27 1535.01 2081.21 1536.07 Q2079.15 1537.13 2076.65 1537.13 Q2071.47 1537.13 2068.44 1534.01 Q2065.43 1530.86 2065.43 1525.42 Q2065.43 1520.1 2068.58 1516.88 Q2071.72 1513.66 2076.96 1513.66 Q2082.95 1513.66 2086.1 1518.27 Q2089.27 1522.85 2089.27 1531.6 Q2089.27 1539.77 2085.38 1544.66 Q2081.52 1549.52 2074.96 1549.52 Q2073.21 1549.52 2071.4 1549.17 Q2069.59 1548.82 2067.65 1548.13 M2076.96 1533.48 Q2080.1 1533.48 2081.93 1531.32 Q2083.78 1529.17 2083.78 1525.42 Q2083.78 1521.7 2081.93 1519.54 Q2080.1 1517.37 2076.96 1517.37 Q2073.81 1517.37 2071.96 1519.54 Q2070.13 1521.7 2070.13 1525.42 Q2070.13 1529.17 2071.96 1531.32 Q2073.81 1533.48 2076.96 1533.48 Z" fill="#000000" fill-rule="nonzero" fill-opacity="1" /><path clip-path="url(#clip980)" d="M2107.67 1517.37 Q2104.06 1517.37 2102.23 1520.93 Q2100.43 1524.47 2100.43 1531.6 Q2100.43 1538.71 2102.23 1542.27 Q2104.06 1545.82 2107.67 1545.82 Q2111.31 1545.82 2113.11 1542.27 Q2114.94 1538.71 2114.94 1531.6 Q2114.94 1524.47 2113.11 1520.93 Q2111.31 1517.37 2107.67 1517.37 M2107.67 1513.66 Q2113.48 1513.66 2116.54 1518.27 Q2119.62 1522.85 2119.62 1531.6 Q2119.62 1540.33 2116.54 1544.94 Q2113.48 1549.52 2107.67 1549.52 Q2101.86 1549.52 2098.78 1544.94 Q2095.73 1540.33 2095.73 1531.6 Q2095.73 1522.85 2098.78 1518.27 Q2101.86 1513.66 2107.67 1513.66 Z" fill="#000000" fill-rule="nonzero" fill-opacity="1" /><polyline clip-path="url(#clip980)" style="stroke:#000000; stroke-linecap:round; stroke-linejoin:round; stroke-width:4; stroke-opacity:1; fill:none" points="177.871,1486.45 177.871,47.2441 "/>
<polyline clip-path="url(#clip980)" style="stroke:#000000; stroke-linecap:round; stroke-linejoin:round; stroke-width:4; stroke-opacity:1; fill:none" points="177.871,1477.56 196.769,1477.56 "/>
<polyline clip-path="url(#clip980)" style="stroke:#000000; stroke-linecap:round; stroke-linejoin:round; stroke-width:4; stroke-opacity:1; fill:none" points="177.871,1172.19 196.769,1172.19 "/>
<polyline clip-path="url(#clip980)" style="stroke:#000000; stroke-linecap:round; stroke-linejoin:round; stroke-width:4; stroke-opacity:1; fill:none" points="177.871,866.824 196.769,866.824 "/>
<polyline clip-path="url(#clip980)" style="stroke:#000000; stroke-linecap:round; stroke-linejoin:round; stroke-width:4; stroke-opacity:1; fill:none" points="177.871,561.455 196.769,561.455 "/>
<polyline clip-path="url(#clip980)" style="stroke:#000000; stroke-linecap:round; stroke-linejoin:round; stroke-width:4; stroke-opacity:1; fill:none" points="177.871,256.085 196.769,256.085 "/>
<path clip-path="url(#clip980)" d="M50.9921 1478.01 L80.6679 1478.01 L80.6679 1481.95 L50.9921 1481.95 L50.9921 1478.01 Z" fill="#000000" fill-rule="nonzero" fill-opacity="1" /><path clip-path="url(#clip980)" d="M94.7882 1490.91 L111.108 1490.91 L111.108 1494.84 L89.1632 1494.84 L89.1632 1490.91 Q91.8252 1488.15 96.4085 1483.52 Q101.015 1478.87 102.196 1477.53 Q104.441 1475.01 105.321 1473.27 Q106.223 1471.51 106.223 1469.82 Q106.223 1467.07 104.279 1465.33 Q102.358 1463.59 99.2558 1463.59 Q97.0567 1463.59 94.603 1464.36 Q92.1725 1465.12 89.3947 1466.67 L89.3947 1461.95 Q92.2188 1460.82 94.6724 1460.24 Q97.1261 1459.66 99.1632 1459.66 Q104.534 1459.66 107.728 1462.34 Q110.922 1465.03 110.922 1469.52 Q110.922 1471.65 110.112 1473.57 Q109.325 1475.47 107.219 1478.06 Q106.64 1478.73 103.538 1481.95 Q100.436 1485.14 94.7882 1490.91 Z" fill="#000000" fill-rule="nonzero" fill-opacity="1" /><path clip-path="url(#clip980)" d="M120.969 1460.28 L139.325 1460.28 L139.325 1464.22 L125.251 1464.22 L125.251 1472.69 Q126.27 1472.34 127.288 1472.18 Q128.307 1472 129.325 1472 Q135.112 1472 138.492 1475.17 Q141.871 1478.34 141.871 1483.76 Q141.871 1489.33 138.399 1492.44 Q134.927 1495.51 128.607 1495.51 Q126.432 1495.51 124.163 1495.14 Q121.918 1494.77 119.51 1494.03 L119.51 1489.33 Q121.594 1490.47 123.816 1491.02 Q126.038 1491.58 128.515 1491.58 Q132.519 1491.58 134.857 1489.47 Q137.195 1487.37 137.195 1483.76 Q137.195 1480.14 134.857 1478.04 Q132.519 1475.93 128.515 1475.93 Q126.64 1475.93 124.765 1476.35 Q122.913 1476.76 120.969 1477.64 L120.969 1460.28 Z" fill="#000000" fill-rule="nonzero" fill-opacity="1" /><path clip-path="url(#clip980)" d="M129.927 1157.99 Q126.316 1157.99 124.487 1161.56 Q122.682 1165.1 122.682 1172.23 Q122.682 1179.33 124.487 1182.9 Q126.316 1186.44 129.927 1186.44 Q133.561 1186.44 135.367 1182.9 Q137.195 1179.33 137.195 1172.23 Q137.195 1165.1 135.367 1161.56 Q133.561 1157.99 129.927 1157.99 M129.927 1154.29 Q135.737 1154.29 138.793 1158.9 Q141.871 1163.48 141.871 1172.23 Q141.871 1180.96 138.793 1185.56 Q135.737 1190.14 129.927 1190.14 Q124.117 1190.14 121.038 1185.56 Q117.983 1180.96 117.983 1172.23 Q117.983 1163.48 121.038 1158.9 Q124.117 1154.29 129.927 1154.29 Z" fill="#000000" fill-rule="nonzero" fill-opacity="1" /><path clip-path="url(#clip980)" d="M94.7882 880.169 L111.108 880.169 L111.108 884.104 L89.1632 884.104 L89.1632 880.169 Q91.8252 877.414 96.4085 872.785 Q101.015 868.132 102.196 866.79 Q104.441 864.266 105.321 862.53 Q106.223 860.771 106.223 859.081 Q106.223 856.327 104.279 854.59 Q102.358 852.854 99.2558 852.854 Q97.0567 852.854 94.603 853.618 Q92.1725 854.382 89.3947 855.933 L89.3947 851.211 Q92.2188 850.077 94.6724 849.498 Q97.1261 848.919 99.1632 848.919 Q104.534 848.919 107.728 851.604 Q110.922 854.29 110.922 858.78 Q110.922 860.91 110.112 862.831 Q109.325 864.729 107.219 867.322 Q106.64 867.993 103.538 871.211 Q100.436 874.405 94.7882 880.169 Z" fill="#000000" fill-rule="nonzero" fill-opacity="1" /><path clip-path="url(#clip980)" d="M120.969 849.544 L139.325 849.544 L139.325 853.479 L125.251 853.479 L125.251 861.952 Q126.27 861.604 127.288 861.442 Q128.307 861.257 129.325 861.257 Q135.112 861.257 138.492 864.428 Q141.871 867.6 141.871 873.016 Q141.871 878.595 138.399 881.697 Q134.927 884.776 128.607 884.776 Q126.432 884.776 124.163 884.405 Q121.918 884.035 119.51 883.294 L119.51 878.595 Q121.594 879.729 123.816 880.285 Q126.038 880.84 128.515 880.84 Q132.519 880.84 134.857 878.734 Q137.195 876.627 137.195 873.016 Q137.195 869.405 134.857 867.299 Q132.519 865.192 128.515 865.192 Q126.64 865.192 124.765 865.609 Q122.913 866.026 120.969 866.905 L120.969 849.544 Z" fill="#000000" fill-rule="nonzero" fill-opacity="1" /><path clip-path="url(#clip980)" d="M89.8114 544.175 L108.168 544.175 L108.168 548.11 L94.0937 548.11 L94.0937 556.582 Q95.1123 556.235 96.1308 556.073 Q97.1493 555.888 98.1678 555.888 Q103.955 555.888 107.334 559.059 Q110.714 562.23 110.714 567.647 Q110.714 573.226 107.242 576.327 Q103.77 579.406 97.4502 579.406 Q95.2743 579.406 93.0058 579.036 Q90.7604 578.665 88.353 577.925 L88.353 573.226 Q90.4364 574.36 92.6586 574.915 Q94.8808 575.471 97.3576 575.471 Q101.362 575.471 103.7 573.364 Q106.038 571.258 106.038 567.647 Q106.038 564.036 103.7 561.929 Q101.362 559.823 97.3576 559.823 Q95.4826 559.823 93.6076 560.24 Q91.7558 560.656 89.8114 561.536 L89.8114 544.175 Z" fill="#000000" fill-rule="nonzero" fill-opacity="1" /><path clip-path="url(#clip980)" d="M129.927 547.253 Q126.316 547.253 124.487 550.818 Q122.682 554.36 122.682 561.49 Q122.682 568.596 124.487 572.161 Q126.316 575.702 129.927 575.702 Q133.561 575.702 135.367 572.161 Q137.195 568.596 137.195 561.49 Q137.195 554.36 135.367 550.818 Q133.561 547.253 129.927 547.253 M129.927 543.55 Q135.737 543.55 138.793 548.156 Q141.871 552.74 141.871 561.49 Q141.871 570.216 138.793 574.823 Q135.737 579.406 129.927 579.406 Q124.117 579.406 121.038 574.823 Q117.983 570.216 117.983 561.49 Q117.983 552.74 121.038 548.156 Q124.117 543.55 129.927 543.55 Z" fill="#000000" fill-rule="nonzero" fill-opacity="1" /><path clip-path="url(#clip980)" d="M89.5799 238.805 L111.802 238.805 L111.802 240.796 L99.2558 273.365 L94.3715 273.365 L106.177 242.741 L89.5799 242.741 L89.5799 238.805 Z" fill="#000000" fill-rule="nonzero" fill-opacity="1" /><path clip-path="url(#clip980)" d="M120.969 238.805 L139.325 238.805 L139.325 242.741 L125.251 242.741 L125.251 251.213 Q126.27 250.866 127.288 250.703 Q128.307 250.518 129.325 250.518 Q135.112 250.518 138.492 253.69 Q141.871 256.861 141.871 262.277 Q141.871 267.856 138.399 270.958 Q134.927 274.037 128.607 274.037 Q126.432 274.037 124.163 273.666 Q121.918 273.296 119.51 272.555 L119.51 267.856 Q121.594 268.99 123.816 269.546 Q126.038 270.102 128.515 270.102 Q132.519 270.102 134.857 267.995 Q137.195 265.889 137.195 262.277 Q137.195 258.666 134.857 256.56 Q132.519 254.453 128.515 254.453 Q126.64 254.453 124.765 254.87 Q122.913 255.287 120.969 256.166 L120.969 238.805 Z" fill="#000000" fill-rule="nonzero" fill-opacity="1" /><polyline clip-path="url(#clip981)" style="stroke:#0000ff; stroke-linecap:round; stroke-linejoin:round; stroke-width:4; stroke-opacity:1; fill:none" points="239.425,714.87 268.299,719.398 271.513,714.621 283.289,713.338 289.997,712.646 310.868,714.213 333.814,717.883 361.183,720.996 387.731,723.949 417.84,728.515 446.631,728.877 471.281,728.883 507.095,729.965 529.992,735.518 552.819,739.682 587.224,743.504 612.82,745.193 633.914,749.555 662.427,756.155 686.003,763.172 708.471,771.277 731.261,777.74 758.743,784.144 781.071,792.481 806.607,798.075 836.541,805.617 859.139,806.093 892.27,807.953 917.423,815.723 943.535,822.905 973.466,832.317 998.134,840.983 1023.54,849.085 1042.34,858.969 1059.88,870.809 1066.88,876.59 1087.89,879.683 1104.97,881.792 1126.4,883.128 1151.85,886.311 1177.33,895.728 1203.95,905.84 1226.47,910.953 1251.88,914.268 1282.93,916.211 1312.08,917.559 1344.19,922.097 1371.97,926.982 1397.72,930.169 1422.55,932.59 1453.99,932.305 1478.07,932.161 1504.22,931.677 1530.8,929.151 1559.41,924.261 1587.11,924.336 1614.64,922.586 1640.78,922.783 1661.09,916.349 1679.36,912.657 1696.26,906.073 1713.35,899.707 1733.76,899.405 1755.81,897.3 1777.22,899.021 1796.69,902.058 1818.04,908.807 1837.65,920.233 1859,932.46 1875.09,943.352 1890.99,959.403 1901.55,973.631 1909.48,988.102 1918.49,1007.19 1929.13,1025.28 1941.25,1044.07 1951.09,1054.94 1968.54,1062.61 1983.54,1065.39 1994.03,1064.56 2014.89,1059.03 2030.93,1054.42 2050.24,1034.51 2062.41,1017.19 2066.8,996.262 2069.58,978.304 2069.36,957.065 2057.98,941.497 2040.21,935.085 2017.37,926.414 1987,930.68 1961.09,928.478 1941.09,923.733 1921.58,920.965 1899.13,918.343 1880.09,923.689 1858.57,929.333 1842.03,936.566 1819.38,939.607 1795.31,939.678 1769.06,937.064 1746.83,926.645 1724.04,916.016 1694.6,900.075 1669.07,882.128 1646.71,864.158 1631.14,849.063 1619.45,835.739 1603.19,821.984 1589.19,806.029 1578.09,790.672 1570.34,774.324 1569.66,759.26 1582.06,744.127 1595.93,731.487 1617.4,723.445 1635.75,723.412 1662.5,723.793 1682.45,736.161 1703.2,744.306 1716.9,750.115 1738.02,756.174 1760.75,767.272 1774.21,776.265 1791.6,786.886 1809.85,798.15 1831.57,805.995 1851.8,808.101 1872.19,808.749 1895.55,802.043 1916.2,797.502 1932.43,796.338 1951.58,803.453 1968.25,814.92 1983.47,829.864 1993.09,846.126 2001.7,865.884 2009.41,886.941 2013.41,906.364 2012.67,927 2011.95,938.588 2014.5,952.385 2024.73,970.711 2031.82,987.92 2043.47,1003.09 2054.12,1010.4 2066.83,1014.24 2084.27,1010.44 2103.2,1003.5 2116.98,994.224 2133.74,981.507 2143.66,972.597 2148.21,954.792 2139.88,937.666 2124.37,918.764 2109.01,902.122 2085.73,891.003 2057.13,885.425 2030.64,880.703 2012.33,877.599 1987.37,876.005 1967.3,874.383 1949,865.437 1933.77,859.04 1912.09,852.53 1896.19,851.812 1874.07,853.741 1853.86,848.904 1833.96,844.191 1814.67,842.852 1790.16,839.207 1772.66,834.6 1755.61,830.781 1733.96,829.04 1707.56,829.939 1681.17,835.234 1665.56,833.969 1660.6,826.866 1656.41,823.919 1649.91,822.346 1639.28,821.626 1630.9,820.96 1617.65,824.994 1603.65,830.778 1578.36,834.82 1557.08,838.514 1542.08,844.319 1532.41,853.063 1538.39,854.841 1550.05,852.924 1577.4,850.625 1602.5,834.055 1620.03,817.677 1626.58,801.161 1620.28,784.8 1606.44,766.596 1594.92,756.596 1584.74,735.401 1566.41,725.208 1546.08,735.506 1524.45,736.24 1496.35,730.712 1490.8,713.632 1486.1,695.041 1487.66,674.768 1491.6,658.15 1505.57,635.597 1513.31,616.067 1517.16,593.052 1500.89,580.172 1478.69,572.339 1470.13,571.132 1478.52,558.194 1497.81,546.688 1533.55,545.638 1571.9,532.054 1597.74,515.895 1615.79,492.052 1629.37,470.644 1650.04,460.322 1676.27,463.427 1699.76,469.646 1719.3,487.355 1745.77,499.503 1765.97,515.715 1775.22,535.985 1765.42,553.263 1747.55,569.584 1721.24,582.037 1687.83,588.107 1662.05,588.744 1628.14,573.807 1603.43,558.075 1593.26,537.138 1592.77,515.669 1608.35,500.493 1623.74,490.928 1646.79,476.629 1670.46,467.594 1692.99,452.271 1714.85,439.92 1734.7,439.236 1757.74,425.788 1761.24,411.897 1771.93,394.813 1783.63,388.987 1800.63,371.737 1794.57,358.605 1774.19,347.985 1770.07,345.729 1780.8,342.014 1804.27,335.713 1831.43,339.597 1855.87,342.389 1882.93,347.251 1907.1,363.952 1911.86,382.311 1908.44,394.747 1888.18,405.895 1873.12,427.654 1857.88,454.132 1847.63,485.682 1849.03,506.591 1814.82,510.966 1792.21,525.486 1760.04,532.473 1729.34,549.242 1712.44,574.611 1692.69,591.609 1666.22,586.969 1644.38,576.043 1616.57,566.387 1602.28,554.416 1575.22,537.847 1568.05,531.257 1575.38,510.528 1598.37,500.285 1632.61,494.715 1661.34,498.751 1695.38,505.864 1724.06,519.127 1733.2,541.01 1747.18,561.902 1761.95,566.857 1787.77,571.416 1810.86,580.73 1820.47,584.504 1846.15,576.53 1871.29,568.54 1890.19,559.545 1909.55,562.16 1929.12,576.345 1928.86,593.732 1930.03,614.898 1917.39,647.118 1896.98,671.202 1873.63,690.853 1850.72,719.912 1847.09,745.966 1812.24,759.301 1784.22,764.015 1757.05,778.441 1731.75,792.094 1714.49,810.291 1699.27,831.237 1674.34,854.599 1647.03,863.274 1620.1,855.226 1596.55,848.911 1564.4,845.069 1536.47,837.65 1517.42,815.921 1503.41,795.69 1473.85,773.155 1457.01,753.962 1431.66,737.006 1407.76,733.6 1377.53,739.405 1358.99,737.841 1334.06,729.516 1329.4,703.588 1313.69,695.721 1289.3,699.798 1271.15,707.764 1246.72,724.136 1240.49,730.599 1210.18,735.129 1187.55,740.043 1162.07,734.581 1142.02,717.643 1119.5,704.524 1085.62,698.372 1052.66,689.607 1030.11,684.489 1010.28,674.301 989.51,653.646 988.958,640.982 998.375,620.4 1014.67,600.908 1025.95,577.633 1031.63,547.141 1038.89,523.263 1023.72,503.011 1005.3,498.532 994.058,487.383 997.982,473.919 1024.01,472.91 1057.86,476.077 1099.78,474.589 1133.26,470.492 1159.98,452.438 1184.46,428.793 1209.85,409.276 1240.63,401.199 1278.99,404.312 1310.34,416.274 1341.4,430.684 1371.14,444.793 1397.63,456.531 1419.1,470.796 1454.5,477.965 1479.96,491.202 1506.62,512.931 1536.36,540.259 1563.12,556.351 1586.45,568 1606.61,577.067 1614.9,568.648 1635.13,559.022 1661.12,545.727 1684.33,535.601 1714.34,524.998 1747.49,523.334 1782.48,531.772 1809.79,556.876 1817.22,578.389 1813.08,610.003 1795.56,641.733 1792.97,668.915 1784.67,700.277 1783.76,734.855 1800.54,765.227 1831.12,789.605 1870.52,788.402 1892.65,791.795 1924.41,798.054 1943.71,820.245 1967.93,845.667 1988.79,877.437 2000.42,909.726 2005.3,930.743 2021.61,914.795 2056.89,918.893 2082.31,924.715 2095,940.009 2097.4,945.27 2097.36,950.043 2102.12,964.984 2105.35,971.17 2117.7,975.044 2133.86,977.035 2162.67,970.881 2190.24,980.408 2203.79,992.638 2217.6,1013.61 2218.26,1026.58 2220.83,1016.59 2225.82,1000.15 2226.46,973.202 2216.23,946.813 2201.72,923.147 2190.42,899.843 2189.52,879.377 2163.94,858.294 2156.57,827.149 2159.79,801.836 2178.08,790.601 2199.38,792.614 2222.8,801.02 2237.87,812.972 2249.67,831.978 2275.07,854.563 2289.49,875.313 2282.04,903.525 2262.5,925.143 2244.72,945.428 2215.42,957.25 2196.41,976.147 2170.21,989.698 2143.65,1011.47 2124.44,1032.56 2112.82,1056.6 2094.28,1079.72 2075.96,1101.52 2051.03,1117.69 2025.71,1129.16 1994.99,1146 1970.66,1164.16 1942.2,1172.44 1912.75,1191.99 1896.59,1209.1 1865.32,1220.96 1847.06,1235.39 1828.97,1255.13 1811.63,1283.13 1803.21,1302.86 1798.19,1322.44 1790.94,1347.58 1813.85,1368.11 1823.06,1382.52 1816.3,1405.57 1808.95,1431.19 1790.04,1436.37 1767.22,1433.98 1745.29,1416.55 1733.52,1390.58 1719.94,1368.85 1696.04,1344.97 1657.31,1319.63 1626.92,1311.08 1591.71,1310.36 1555.86,1317.49 1515.53,1327.15 1488.59,1328.23 1454.34,1317.48 1429.39,1305.53 1409.19,1280.99 1406.49,1247.75 1401.87,1207.89 1382.36,1181 1359.67,1160.55 1365.56,1129.14 1363.67,1101.65 1355.78,1076.98 1344.13,1049.07 1324.98,1024.99 1319.61,998.868 1325.5,965.851 1335.46,932.821 1353.23,903.279 1369.46,873.004 1382.55,841.253 1409.63,819.838 1404.41,792.152 1389.15,767.533 1359.56,745.781 1326.94,741.647 1307,728.94 1298.9,703.586 1294.54,672.039 1307.37,644.734 1321.88,622.967 1342.46,614.705 1374.75,603.005 1410.9,596.421 1450.35,593.337 1488.65,593.137 1516,585.643 1539.61,560.592 1556.36,538.383 1584.05,525.032 1607.45,519.571 1610.62,504.908 1597.08,491.037 1574.92,476.046 1549.64,464.091 1522.59,437.553 1499.66,412.379 1486.6,386.004 1469.45,365.825 1465.02,348.139 1471.78,326.623 1489.69,317.342 1506.86,326.359 1536.55,331.024 1575.53,334.135 1609.27,342.228 1650.16,348.869 1684.62,351.351 1714.56,366.083 1738.9,372.97 1763.47,365.749 1786.98,354.555 1817.89,348.701 1849.76,348.961 1880.74,344.859 1903.38,358.562 1914.87,374.662 1918.2,370.409 1928.19,354.215 1945.82,338.297 1963.98,325.9 1988.62,311.014 2007.52,302.817 1998.45,303.306 1975.7,291.924 1965.96,275.149 1954.36,246.963 1957.87,217.592 1968.86,201.022 1996.44,190.837 2029.68,193.299 2054.91,198.202 2088.97,202.506 2123.9,213.798 2146.83,235.541 2151.6,264.528 2144.81,291.824 2133.09,299.945 2137.24,316.167 2141.5,338.426 2137.08,370.587 2109.23,386.788 2090.59,419.94 2063.15,442.734 2040.32,468.96 2031.98,503.415 2007.73,511.592 1972.09,512.822 1937.18,525.368 1905.46,539.342 1889.55,565.528 1877.67,596.321 1877.79,613.078 1903.63,618.389 1933.23,630.999 1969.97,645.032 2003.21,669.285 2030.89,684.222 2069.46,688.458 2104.35,689.214 2142.62,685.893 2171.84,689.255 2197.11,689.229 2208.2,675.742 2221.76,656.11 2236.51,635.887 2235.43,610.525 2231.59,592.068 2222.23,567.853 2195.66,547.543 2174.93,528.893 2150.75,513.37 2109.13,514.188 2084.6,521.173 2060.78,538.878 2042.7,558.078 2017.48,583.322 2012.34,612.141 2018.07,643.568 2021.43,673.761 2039.54,699.777 2051.76,725.331 2064.29,758.591 2078.95,789.361 2110.25,801.32 2140.52,818 2166.28,846.202 2186.9,869.524 2200.67,901.333 2207.52,925.58 2204.76,936.754 2172.99,938.33 2137.13,950.622 2109.34,949.597 2094.74,956.791 2074.87,960.998 2052.42,956.289 2020.51,942.815 1991.11,934.332 1956.03,937.058 1912.43,949.805 1875.42,963.988 1836.42,964.822 1794.03,972.789 1757.81,973.739 1718.85,974.821 1687.3,968.564 1652.96,972.75 1621.02,967.282 1587.47,960.31 1554.23,929.915 1526.64,914.142 1488.81,907.205 1456.22,892.126 1426.86,876 1395.27,855.163 1368.99,846.539 1342.47,861.298 1318.16,877.655 1289.79,893.277 1251.94,911.169 1214.7,918.924 1185.81,914.575 1157.77,890.963 1140.24,867.31 1123.27,837.379 1098.32,811.91 1086.55,781.339 1081.98,753.814 1084.65,730.84 1072.48,701.463 1049.86,684.31 1022.01,672.948 1002.18,650.784 994.455,621.299 990.889,597.773 980.468,569.84 988.033,543.462 1009.22,516.363 1020.75,499.181 1033.15,493.308 1043.9,478.615 1047.48,462.92 1053.76,439.592 1061.97,416.049 1067.08,387.475 1078.74,353.857 1079.15,330.806 1058.18,311.739 1037.68,298.417 1010.9,297.725 983.496,307.871 956.674,303.874 925.9,288.895 887.84,274.341 864.833,268.477 842.365,264.101 829.08,246.465 827.727,225.417 841.858,207.898 863.627,189.247 887.017,171.67 930.401,159.691 959.055,147.839 992.587,142.404 1023.42,153.172 1049.48,159.968 1083.26,155.363 1117.5,149.801 1136.41,129.859 1152.91,110.498 1165.89,88.7339 "/>
<polyline clip-path="url(#clip981)" style="stroke:#ff0000; stroke-linecap:round; stroke-linejoin:round; stroke-width:4; stroke-opacity:1; fill:none" points="239.904,713.028 270.34,719.38 272.955,710.548 294.123,711.843 297.506,712.539 324.559,718.195 341.461,721.725 370.263,721.481 394.813,723.484 425.264,729.836 451.563,725.951 472.73,727.234 515.079,729.823 526.878,738.545 551.443,740.536 593.806,743.125 611.604,743.711 631.066,750.906 664.942,757.966 684.418,765.161 707.291,773.064 731.017,778.011 761.524,784.374 780.161,794.525 808.152,797.237 841.232,807.277 857.353,801.243 898.934,806.789 916.747,819.907 943.899,825.575 977.022,835.615 996.554,842.822 1023.74,848.49 1038.18,860.912 1056.05,874.043 1059.45,874.752 1091.73,875.216 1105.32,878.062 1129.97,880.065 1157.18,885.745 1181.87,900.317 1208.26,908.953 1226.11,909.552 1254.17,912.275 1289.9,913.448 1314.56,915.463 1348.61,922.572 1372.46,927.556 1397.13,929.559 1421.81,931.575 1458.37,929.804 1476.24,930.39 1505.15,930.158 1531.5,926.237 1562.06,920.081 1589.33,925.761 1615.65,921.852 1640.35,923.867 1658.09,911.897 1675.96,912.483 1692.86,903.481 1712.36,898.143 1736.23,903.127 1759.13,898.497 1779.6,902.76 1796.65,906.315 1819.72,914.254 1837.76,927.41 1860.02,938.317 1872.06,947.1 1888.5,966.204 1896.32,977.246 1903.32,991.256 1915.55,1012.64 1929.41,1028.1 1942.46,1046.53 1951.91,1051.65 1975.85,1056.65 1986.12,1058.79 1993.78,1057.24 2021.76,1047.37 2032.82,1046.53 2054.54,1019.66 2060.38,1011.45 2059.16,989.229 2063.17,974.388 2061.96,952.193 2043.07,941.994 2025.98,938.427 2003.69,927.519 1976.55,934.396 1956.06,930.133 1939.8,923.611 1922.74,920.056 1898.04,918.041 1880.34,930.023 1857.42,934.641 1844.76,941.408 1816.64,938.672 1791.93,936.668 1764.63,930.976 1746.61,917.821 1723.55,909.881 1688.49,893.172 1667.91,876.364 1647.34,859.556 1636.17,847.855 1625.01,836.141 1603.63,822.314 1590.72,804.004 1580.38,789.37 1574.28,772.49 1578.39,757.746 1596.92,742.881 1607,732.498 1629.85,727.906 1643.44,730.727 1672.29,730.495 1686.02,745.812 1706.44,750.063 1716.64,752.176 1743.87,757.844 1765.25,771.634 1770.43,778.951 1792.64,789.81 1811.45,799.973 1835.29,804.932 1853.94,802.562 1875.19,803.857 1899.67,793.34 1917.51,793.939 1931.14,796.772 1952.58,810.587 1967.21,822.998 1981.04,838.364 1988.05,852.313 1996.88,872.907 2005.71,893.514 2008.51,909.747 2006.29,931.196 2008.9,934.873 2015.13,951.839 2030.81,973.911 2033.63,990.181 2048.3,1002.65 2058.56,1004.8 2072.24,1007.65 2092.55,999.33 2108.63,993.272 2117.87,985.784 2135.55,973.789 2140.57,968.573 2140.12,943.411 2125.43,930.952 2108.13,914.828 2097.68,900.146 2074.58,892.207 2046.46,889.483 2022.57,884.511 2012.33,882.374 1984.23,879.662 1967.17,876.107 1949.92,860.008 1936.28,857.175 1909,851.495 1897.15,855.281 1870.86,859.19 1852.83,846.059 1832.37,841.808 1813.71,844.166 1786.46,838.498 1773.63,832.708 1756.6,829.154 1731.13,830.107 1701.43,833.307 1677.72,840.868 1669.15,832.831 1669,820.298 1661.39,821.837 1650.35,822.668 1635.91,822.79 1629.1,821.373 1612.2,830.351 1599.53,837.093 1567.25,836.629 1551.98,839.695 1542.7,847.146 1536,858.274 1551.27,855.196 1569.93,852.826 1600.47,846.67 1609.61,826.686 1623.93,814.044 1628.02,799.277 1618.51,781.687 1602.2,762.693 1593.63,754.668 1582.37,730.507 1562.8,723.313 1540.88,737.47 1519.67,736.175 1489.08,729.811 1490.62,711.428 1485.38,691.652 1487.75,670.35 1491.86,655.643 1509.45,631.311 1514.38,613.685 1517.56,589.5 1498.87,579.411 1475.95,571.556 1469.17,570.152 1480.89,553.967 1505.34,543.524 1544.26,545.392 1581.31,528.279 1599.77,513.512 1617.29,489.278 1629.77,470.21 1649.96,462.014 1677.88,464.702 1701.59,469.6 1721.25,489.131 1750.12,501.297 1767.24,517.225 1775.94,537.612 1764.29,553.784 1745.05,571.495 1716.41,584.174 1682.62,589.585 1661.44,588.303 1623.17,571.056 1601.89,557.338 1593.23,536.94 1592.18,515.039 1610.63,500.283 1624.05,490.682 1650.08,474.412 1673.67,466.925 1696.3,449.958 1717.28,438.855 1735.02,439.429 1761.01,423.184 1760.87,410.81 1773.29,391.779 1785.06,388.042 1805.06,367.509 1793.95,355.966 1768.49,344.545 1784.45,338.608 1814.73,332.538 1840.99,341.027 1862.1,342.31 1889.17,347.892 1912.24,368.058 1911.61,383.339 1908.4,395.004 1883.27,408.318 1869.25,433.2 1854.42,461.025 1845.55,493.199 1849.12,506.317 1808.58,510.299 1789.36,527.999 1755.59,533.397 1725.36,551.915 1711.25,576.907 1692.8,591.699 1665.65,586.068 1643.53,575.282 1613.82,566.011 1602.7,554.407 1572.08,535.657 1569.51,532.029 1576.87,505.67 1603.85,498.879 1641,494.188 1664.71,499.098 1702,506.818 1726.69,521.219 1732,540.897 1747.48,562.701 1761.05,565.51 1791.6,571.837 1813.74,582.635 1820.53,584.04 1851.73,575.001 1875.33,567.489 1892.12,558.572 1912.49,562.786 1933.05,579.435 1928.23,597.049 1929.4,619.011 1912.14,655.814 1892.09,676.518 1869.43,693.594 1846.13,726.11 1848.08,745.202 1808.38,758.772 1785.52,763.377 1756.01,779.073 1730.69,792.534 1714.77,811.088 1698.02,832.598 1669.42,857.907 1646.52,862.525 1620.09,853.889 1596.25,848.917 1561.36,844.789 1534.96,836.153 1516.07,813.47 1503.19,795.16 1467.33,768.959 1457.03,754.338 1429.77,736.187 1408.54,734.892 1374.67,740.316 1361.08,737.482 1331.34,728.187 1328.64,699.555 1311.66,696.025 1285.41,699.922 1268.5,708.875 1241.46,728.199 1240.63,731.142 1203.34,735.857 1183.85,741.171 1157.53,732.559 1137.99,712.894 1115.91,702.059 1077.77,697.246 1048.1,687.951 1031.16,684.421 1009.12,673.599 987.072,650.33 989.617,641.51 999.753,618.718 1016.66,597.342 1026.78,574.586 1032.65,541.642 1038.53,521.146 1022.46,502.299 1005.55,498.793 994.564,487.213 998.772,472.592 1030.87,473.044 1068.88,477.832 1109.41,473.85 1135.59,469.978 1162.55,450.801 1187.79,425.101 1210.5,408.159 1240.85,402.089 1283.06,404.642 1311.82,416.771 1343.14,432.528 1371.92,444.669 1397.34,456.115 1418.55,469.795 1459.17,478.199 1480.39,491.892 1509.33,516.468 1540.86,544.696 1562.95,555.47 1585.06,566.255 1603.77,576.345 1613.01,568.942 1637.43,558.499 1666.89,542.901 1687.09,534.692 1719.09,522.734 1751.23,523.198 1787.74,533.849 1812.61,560.697 1815.36,576.76 1812.44,613.392 1792.54,646.543 1793.66,668.53 1783.93,703.855 1785.2,738.374 1802.53,766.92 1835.13,792.412 1872.42,787.685 1886.05,790.519 1923.52,798.299 1942.55,820.982 1971.01,848.771 1991.05,881.079 2000.87,911.286 2003.69,927.519 2017.95,914.841 2059.73,920.41 2083.64,925.382 2094.1,940.088 2096.72,943.765 2098.54,950.41 2103.98,970.344 2106.6,974.033 2123.7,977.588 2141.58,978.186 2172.94,969.037 2197.9,983.646 2205.78,994.701 2220.73,1019.78 2218.33,1028.69 2222.33,1013.83 2227.9,993.027 2224.79,964.176 2213.27,939.844 2197.53,917.796 2188.65,897.178 2190.01,878.697 2157.23,853.131 2154.97,821.434 2160.55,800.754 2177.38,791.777 2198.63,793.084 2225.13,801.695 2239.81,814.105 2252.11,835.383 2281.51,860.228 2291.2,877.866 2279.87,906.767 2259.86,927.629 2244.03,946.257 2211.91,958.362 2196.07,977.002 2167.35,989.827 2138.84,1015.26 2122.97,1033.92 2113.14,1057.01 2092.22,1080.94 2075.52,1102.62 2049.35,1119.19 2024.77,1129.81 1990.91,1147.94 1968.12,1165.24 1940.9,1172.17 1909.61,1194.02 1898.69,1207.53 1862.16,1221.99 1847.8,1234.79 1827.55,1255.85 1808.28,1286.62 1804.2,1301.6 1798.47,1322.58 1791.1,1349.58 1817.92,1371.07 1822.34,1381.53 1814.97,1408.56 1807.59,1435.63 1789.6,1435.02 1764.71,1432.98 1741.32,1412.17 1730.73,1384.51 1717.67,1365.9 1691.71,1341.4 1648.63,1313.32 1627.22,1312 1591.29,1310.81 1552.86,1318.59 1510.17,1328.66 1492.2,1328.05 1451.9,1316.43 1429.58,1305.38 1408.03,1278.67 1406.94,1243.6 1400.67,1201.15 1380.89,1181.21 1361.13,1161.26 1366.9,1127.74 1363.34,1101.76 1355.52,1078.07 1342.54,1047 1323.67,1024.17 1320.12,998.267 1326.73,961.941 1335.9,929.327 1354.44,901.844 1370.4,870.709 1382.94,838.889 1409.98,819.504 1403.01,793.047 1388.41,768.141 1356.02,742.673 1327.19,742.918 1309.3,729.836 1298.98,702.743 1294.56,667.552 1308.83,642.512 1321.41,623.359 1341.69,615.127 1378.01,600.909 1415.21,596.206 1455.81,592.212 1491.36,593.384 1514.99,585.86 1540.98,557.119 1556.88,538.711 1585.52,526.056 1604.92,520.78 1609,506.134 1595.32,490.927 1571.5,473.618 1546.05,462.161 1515.37,431.074 1496.61,408.66 1485.45,384.744 1469.27,365.97 1466.61,350.005 1473.17,326.699 1489.96,317.856 1508.59,327.859 1543.19,331.927 1585.37,334.468 1614.98,343.665 1656.37,349.125 1684.23,351.8 1715.62,367.533 1735.92,371.723 1762.84,364.956 1787.18,354.573 1820.86,349.199 1852.91,349.651 1883.19,343.58 1903.68,360.131 1914.01,374.581 1919,369.451 1931.39,350.445 1950.52,332.843 1967.27,323.987 1993.15,307.791 2009.08,301.842 1998.13,302.66 1970.08,287.661 1963.93,271.036 1951.63,237.8 1958.82,211.66 1968.76,201.449 2000.57,189.6 2035.15,193.643 2055.42,197.821 2093.39,202.56 2128.99,216.009 2147.91,238.301 2150.95,266.553 2143.83,292.718 2135.48,297.151 2137.5,316.011 2141.33,341.406 2135.2,377.085 2103.33,388.994 2085.43,428.473 2059.51,444.718 2037.96,471.151 2031.78,506.977 2009.81,508.614 1969.29,512.608 1933.13,526.789 1904.55,539.456 1889.72,567.367 1877.45,598.942 1878.43,608.445 1904.8,617.02 1936.38,632.875 1975.57,647.215 2008.18,672.621 2030.4,683.444 2072.04,688.965 2104.26,689.429 2144.91,685.423 2168.73,690.37 2194.17,689.417 2204.94,676.115 2221.5,654.702 2238.04,633.29 2234.17,607.676 2231.31,591.589 2220.64,564.594 2190.61,542.901 2173.4,526.972 2148.6,512.559 2101.28,515.149 2085.3,521.134 2058.55,540.36 2042.78,558.768 2013.6,586.813 2013.2,614.65 2018.78,646.848 2021.78,675.443 2040.01,700.984 2051.42,725.133 2066.46,762.522 2080.52,790.372 2110.41,799.704 2141.33,818.6 2169.07,849.345 2185.56,868.4 2201.52,902.98 2206.99,922.89 2204.6,931.782 2170.65,937.242 2130.09,953.855 2109.58,949.579 2096.93,956.346 2074.01,960.976 2050.1,955.992 2014.93,939.258 1987.61,933.566 1950.24,938.317 1902.78,953.5 1870.61,965.605 1834.83,964.42 1788.99,973.679 1756.63,973.203 1716.63,974.278 1689.32,968.586 1651.92,973.325 1621.21,966.924 1587.09,959.803 1546.78,923.159 1527.15,915.928 1486.26,907.402 1454.69,891.413 1426.53,876.144 1393.23,853.547 1372.8,849.296 1344,862.073 1317.76,878.514 1288.09,894.271 1246.54,913.814 1212.55,919.262 1188.72,914.291 1156.34,888.713 1140.97,866.702 1121.35,834.418 1095.82,810.319 1086.43,780.209 1082.97,754.497 1085.47,733.158 1070.15,698.773 1048.94,685.007 1020.12,672.78 1001.47,650.207 992.986,617.313 991.266,598.295 978.571,567.672 989.546,541.997 1012.33,512.596 1019.09,501.59 1031.74,494.921 1043.55,478.773 1048.58,461.233 1056.15,434.946 1062.86,411.592 1067.86,381.714 1081.28,347.452 1078.72,331.487 1055.93,311.357 1038.22,298.446 1009.58,298.691 981.784,308.352 954.831,302.782 920.301,286.39 881.577,272.221 868.115,269.436 844.545,264.562 828.58,245.862 827.784,224.156 843.791,205.932 867.361,186.205 890.078,169.397 939.677,158.135 960.688,147.13 994.294,141.78 1022.88,153.823 1049.79,159.369 1086.77,154.715 1120.37,149.377 1137.12,128.294 1153.03,110.119 1166.39,88.3765 "/>
<polyline clip-path="url(#clip981)" style="stroke:#3da44d; stroke-linecap:round; stroke-linejoin:round; stroke-width:4; stroke-opacity:1; fill:none" points="258.107,715.113 268.845,715.228 282.213,716.079 296.606,714.174 313.449,713.646 331.86,716.207 350.637,721.312 373.125,723.301 397.119,726.517 422.359,727.569 449.282,727.076 475.458,727.433 502.448,730.573 530.364,735.348 557.408,736.553 583.104,740.437 608.6,745.361 633.761,751.794 659.344,757.597 683.267,762.679 708.656,769.973 732.849,776.55 759.658,782.882 786.799,790.417 812.396,797.312 839.738,804.368 864.441,809.706 891.651,812.859 918.461,820.294 945.905,826.705 968.381,834.95 992.105,841.756 1014.86,847.839 1035.36,856.446 1054.6,865.001 1073.5,870.946 1092.34,876.448 1114.28,879.982 1137.07,884.739 1160.02,891.424 1184.56,896.489 1210.58,901.755 1234.82,905.257 1260.26,912.16 1286.24,916.301 1313.86,919.17 1341.74,923.435 1369.73,925.716 1395.99,926.687 1423.69,929.111 1451.21,930.288 1478.56,929.608 1506.02,931.04 1532.37,927.562 1560.12,926.261 1586.27,923.091 1610.32,919.771 1634.04,917.61 1655.9,913.754 1678.01,911.396 1698.93,907.164 1718.44,905.918 1737.84,905.822 1756.9,905.536 1776.47,908.794 1796,914.727 1817.04,921.717 1836.54,929.996 1854.07,939.261 1870.72,949.028 1883.9,962.689 1896.55,977.58 1907.97,992.456 1920.48,1007.85 1932.36,1020.55 1943.92,1033.02 1959.11,1041.42 1973.48,1047.57 1988.02,1050.52 2002.33,1045.11 2013.77,1037.61 2026.9,1029.81 2038.45,1018.12 2046.17,1006.33 2050.82,990.979 2050.72,976.095 2047.98,962.023 2037.76,948.668 2025.27,937.449 2006.56,929.096 1985.5,923.73 1963.78,922.047 1941.88,920.571 1919.18,920.062 1898.42,920.394 1878.97,922.414 1860.15,925.205 1838.85,927.644 1816.1,927.836 1792.94,925.805 1768.49,920.418 1743.67,912.792 1718.24,905.19 1693.31,894.08 1671.88,879.452 1654.28,862.824 1638.87,847.891 1623.67,834.443 1608.94,819.991 1599.18,804.164 1591.63,787.857 1588.9,772.629 1593.45,758.619 1600.2,745.463 1612.54,736.593 1629.45,729.658 1648.95,728.543 1668.57,732.071 1686.46,736.324 1704.01,744.339 1723.27,751.834 1742.81,759.567 1761.58,768.396 1780.23,777.19 1797.63,786.533 1815.48,793.789 1835.37,798.974 1854.28,803.154 1872.42,805.211 1892.91,806.231 1911.52,806.049 1930.17,808.684 1947.67,817.475 1964.53,826.894 1978.85,838.681 1988.74,853.315 1995.75,870.891 2002.1,888.875 2009.82,905.141 2014.05,922.601 2017.35,938.15 2022.01,952.322 2030.03,965.609 2039.33,977.071 2049.88,986.575 2060.02,993.093 2073.55,995.289 2087.72,994.219 2102.77,989.487 2116.84,983.583 2126.67,971.691 2131.91,959.515 2129.47,947.002 2122.33,934.209 2110.95,920.365 2096.79,906.956 2077.02,895.811 2054.75,888.611 2032.82,883.35 2011.54,878.561 1988.65,875.595 1968.83,871.4 1948.59,867.276 1930.51,864.078 1910.91,858.649 1891.23,855.07 1872.02,850.601 1852.01,847.534 1830.83,843.809 1811.37,841.348 1791.19,839.426 1771.06,836.408 1751,834.099 1730.35,832.768 1710.27,831.479 1693.21,831.179 1678.9,830.061 1666.57,828.904 1653.8,827.304 1640.39,828.485 1625.86,829.748 1609.58,832.574 1591.42,835.549 1574.07,838.359 1580.1,840.789 1561.27,841.001 1548.43,845.981 1554.63,845.808 1564.22,839.042 1582.64,836.385 1600.91,838.721 1612.91,829.965 1621.84,815.238 1629.46,800.608 1619.33,781.458 1610.32,761.601 1598.77,743.779 1585.78,726.473 1564.57,726.524 1540.44,733.23 1515.52,735.01 1493.9,729.664 1490.83,710.547 1489.26,689.984 1482.88,670.89 1491.53,650.701 1510.83,636.195 1519.07,620.479 1511.78,597.748 1498.68,588.369 1473.73,579.52 1471.92,561.827 1493.41,553.5 1522.07,555.126 1552.06,541.563 1584.45,535.913 1598.82,509.191 1604.64,482.977 1626.2,463.086 1651.65,451.861 1678.71,456.147 1703.59,467.229 1724.18,485.82 1751.84,499.011 1770.3,517.241 1767.22,538.847 1761.1,560.231 1748.06,579.818 1717,587.407 1685.83,586.75 1655.16,593.358 1627.77,581.744 1604.86,562.153 1598.85,534.044 1588.48,509.905 1612.14,496.38 1628.51,482.1 1653.89,476.876 1676.24,462.682 1697.81,447.006 1719.64,437.689 1737.95,440.017 1759.21,427.322 1763.57,413.231 1775.81,401.128 1786.65,384.549 1798.36,369.867 1779.03,362.784 1766.93,347.389 1775.81,335.213 1789.64,327.33 1814.44,333.938 1839.97,340.641 1866.75,340.783 1893.05,347.633 1915.51,360.704 1912.49,381.871 1893.01,390.807 1880.56,411.519 1874.51,437.256 1861.63,461.577 1857.76,490.803 1839.39,505.991 1810.21,511.279 1782.22,516.275 1754.34,530.408 1731.14,548.694 1718.1,573.382 1694.3,589.409 1666.96,583.437 1639.57,578.585 1616.96,566.076 1594.16,559.006 1576.91,543.895 1569.59,527.085 1584.53,508.247 1610.42,502.337 1638.89,499.768 1669.89,503.91 1700.74,505.138 1727.76,516.921 1729.97,540.668 1741.22,558.211 1757.74,567.597 1781.97,575.457 1803.56,587.155 1827.04,583.614 1849.35,575.681 1866.37,562.712 1887.04,550.908 1910.01,556.567 1918.83,577.825 1924.38,601.779 1927.51,625.489 1918.03,651.614 1894.8,675.063 1870.08,696.134 1855.12,722.898 1842.8,746.758 1810.48,752.859 1780.17,755.812 1759.1,775.843 1734.35,791.186 1714.44,813.519 1701.27,839.883 1679.43,857.984 1648.13,863.451 1623.11,851.752 1591.87,849.944 1562.14,855.104 1536.33,835.464 1519.86,813.218 1495.18,795.091 1478.45,769.972 1464.63,744.699 1438.75,730.396 1410.82,742.07 1384.06,744.51 1362.8,739.889 1344.86,722.885 1331.62,703.136 1311.88,689.692 1287.81,699.161 1276.63,716.912 1253.57,728.4 1230.32,737.025 1202.88,733.761 1177.07,737.918 1153.41,732.908 1133.09,717.036 1117.98,705.823 1094.19,692.49 1063.29,686.142 1035.94,675.238 1015.3,661.963 988.827,652.884 991.651,632.052 1006.93,617.072 1024.82,598.779 1031.3,575.861 1049.44,554.857 1051.21,532.341 1026.1,518.232 1004.4,511.596 985.957,492.682 1011.64,485.365 1041.62,475.583 1073.13,472.937 1106.11,473.99 1140.35,470.45 1161.03,444.823 1171.96,414.544 1210.9,403.148 1252.45,411.153 1287.42,394.925 1304.65,419.497 1336.67,431.767 1367.29,444.862 1396.85,455.253 1429.2,463.774 1454.73,482.479 1481.11,495.335 1509.92,510.58 1537.17,529.469 1557.89,548.144 1570.39,567.907 1590.67,574.704 1611.43,566.367 1638.33,557.648 1668.51,544.287 1690.97,527.104 1721.82,510.47 1755.8,513.404 1789.5,530.902 1815.47,556.073 1819.91,587.447 1814.82,617.422 1802.29,645.535 1785.71,671.957 1784.75,702.883 1793.18,733.814 1801.74,759.51 1822.4,782.689 1854.23,786.196 1891.04,789.99 1921.31,802.312 1942.08,823.331 1969.77,841.045 1979.1,867.07 1992.15,895.681 1996.98,921.964 2027.36,918.86 2047.56,923.466 2071.12,928.583 2095.04,939.737 2083.7,957.469 2085.83,946.186 2099.6,965.629 2108.04,986.236 2132.2,983.177 2152.32,975.931 2173.25,968.359 2191.67,982.152 2205.99,997.268 2215.62,1010.66 2227.07,1028.33 2222.23,1013.54 2212.97,990.295 2219.93,963.935 2218.95,933.447 2209.87,903.762 2179.35,896.958 2167.65,870.695 2169.76,845.453 2148.05,827.281 2153.69,803.427 2174.8,791.36 2200.33,790.681 2226.78,793.915 2236.71,813.86 2257.32,835.201 2279.23,851.832 2285.52,879.61 2280.46,903.886 2265.28,926.912 2247.48,950.533 2215.03,960.712 2194.85,980.503 2167.65,989.69 2148.66,1013 2128.65,1037.56 2118.39,1063.57 2095.86,1081.78 2076.16,1100.3 2052.56,1120.11 2022.97,1131.25 1997.97,1146.9 1974.48,1162.5 1948.94,1176.4 1916.23,1185.23 1888.67,1203.29 1860.19,1215.88 1838.64,1232.53 1824.01,1255.23 1808.39,1276.74 1798.34,1300.86 1802.34,1324.09 1804.55,1348.24 1825.27,1366.87 1819.85,1392.03 1813.48,1409.15 1818.93,1430.62 1796.61,1445.72 1765.56,1439.75 1752.95,1410.74 1734.4,1383.06 1714.81,1359.15 1684.46,1344.32 1653.39,1326.33 1623.96,1306.99 1585.87,1302.37 1555.26,1320.44 1522.67,1328.91 1487.95,1327.54 1457.3,1317.7 1426.44,1305.4 1412.46,1275.23 1414.9,1243.23 1404.56,1211.09 1382.19,1186.05 1365.45,1157.09 1377.33,1126.01 1360.7,1107.31 1357.5,1080.15 1343.3,1051.38 1320.36,1027.77 1314.85,995.61 1319.86,962.442 1334.01,932.347 1348.79,900.476 1366.15,869.259 1391.68,843.691 1413.58,818.951 1408.71,789.746 1394.13,762.254 1362.8,748.315 1328.99,749.669 1306.91,726.12 1297.15,699.066 1294.12,669.835 1302.48,641.248 1323.06,617.973 1354.81,614.234 1385.72,603.968 1417.64,595.577 1452.68,596.877 1487.22,599.672 1512.57,581.923 1532.91,560.299 1554.22,540.335 1586.62,538.302 1613.42,527.18 1612.9,501.469 1591.23,489.938 1568.12,475.695 1541.86,458.576 1520.11,438.185 1497.51,416.655 1480.03,394.873 1467.92,370.736 1465.24,346.172 1468.11,321.883 1496.23,318.979 1522.39,325.328 1552.99,331.011 1585.53,335.717 1615.47,342.867 1647.41,347.192 1677.94,350.299 1701.59,370.94 1731.61,379.582 1762.78,367.653 1791.24,355.776 1818.9,344.768 1850.24,346.345 1883.19,340.817 1901.05,359.086 1905.11,376.712 1913.69,361.01 1929.37,345.815 1947.2,334.302 1967.83,323.383 1992.39,323.267 2013.5,313.565 1992.89,301.65 1970.22,289.793 1957.74,266.002 1948.99,236.642 1944.19,209.428 1970.13,194.724 2001.69,191.053 2030.32,194.619 2059.11,202.928 2088.23,201.193 2118.14,210.38 2132.54,234.735 2152.07,258.468 2151.24,284.668 2133.47,303.312 2144.18,329.291 2144.41,355.62 2130.12,379.054 2102.49,396.097 2079.19,417.317 2059.28,441.62 2049.03,468.343 2037.73,496.922 2005.36,508.472 1969.06,506.376 1939.2,521.273 1915.31,544.212 1887.61,560.456 1873.82,588.999 1877.97,616.998 1912.1,621.059 1944.34,631.638 1972.34,650.831 2000.08,669.717 2030.95,686.225 2067.65,689.054 2102.21,686.566 2134.9,687.88 2162.51,695.559 2190.88,691.453 2209.8,672.224 2223.9,652.914 2231.02,630.568 2226.75,608.672 2237.08,585.673 2221.76,562.062 2201.69,542.164 2178.67,522.115 2145.92,509.817 2114.98,511.98 2086.65,525.342 2061.36,542.091 2036.64,558.393 2015.47,582.035 2012.82,611.44 2018.72,641.79 2024.38,671.188 2043.71,696.813 2047.82,730.068 2060.59,759.376 2077.7,786.561 2113.41,801.501 2146.24,817.989 2169.25,840.645 2188.64,863.749 2201.65,892.049 2220.43,913.55 2202.21,934.539 2172.72,943.9 2146.76,950.328 2120.44,948.4 2096.28,951.427 2070.27,951.579 2045.78,940.831 2013.8,935.783 1977.82,928.914 1942.86,938.32 1906.85,950.683 1873.12,962.534 1835.74,970.627 1797.58,973.802 1756.69,973.779 1718.61,972.84 1683.68,970.528 1647.24,973.746 1610.31,969.799 1577.98,954.956 1550.62,931.607 1523.79,910.813 1488.5,906.473 1455.76,894.884 1429.91,872.802 1405.46,851.967 1370.78,846.382 1346.4,867.073 1318.13,883.833 1288.56,899.668 1253.23,912.101 1217.34,922.446 1182.94,912.694 1156.89,891.738 1142.19,863.496 1118.25,841.618 1097.67,815.078 1084.78,784.17 1079.81,755.39 1086.8,727.16 1076.45,700.382 1050.52,685.33 1022.1,671.109 997.689,651.105 994.78,623.398 990.246,596.458 979.731,572.197 983.913,544.922 998.142,522.454 1021.94,512.105 1034.36,496.388 1036.84,472.056 1052.21,458.849 1052.63,432.626 1057.2,406.532 1066.84,380.717 1071.24,352.476 1082.04,327.597 1069.51,305.582 1038.96,304.788 1009.56,306.421 978.992,311.357 952.816,296.055 925.994,279.868 895.606,276.474 866.812,272.686 839.402,267.026 825.41,244.777 829.367,219.665 844.086,199.651 864.645,180.964 896.701,169.368 929.842,160.987 958.852,142.882 992.776,143.652 1021.98,150.637 1052,160.098 1085.52,162.373 1119.29,155.791 1131.02,132.918 1150.33,110.415 1163.86,87.9763 "/>
<path clip-path="url(#clip980)" d="M250.367 1438.47 L793.155 1438.47 L793.155 1231.11 L250.367 1231.11  Z" fill="#ffffff" fill-rule="evenodd" fill-opacity="1"/>
<polyline clip-path="url(#clip980)" style="stroke:#000000; stroke-linecap:round; stroke-linejoin:round; stroke-width:4; stroke-opacity:1; fill:none" points="250.367,1438.47 793.155,1438.47 793.155,1231.11 250.367,1231.11 250.367,1438.47 "/>
<polyline clip-path="url(#clip980)" style="stroke:#0000ff; stroke-linecap:round; stroke-linejoin:round; stroke-width:4; stroke-opacity:1; fill:none" points="274.533,1282.95 419.525,1282.95 "/>
<path clip-path="url(#clip980)" d="M467.718 1286.21 L467.718 1288.29 L448.135 1288.29 Q448.413 1292.69 450.774 1295 Q453.158 1297.29 457.394 1297.29 Q459.848 1297.29 462.139 1296.69 Q464.454 1296.09 466.723 1294.89 L466.723 1298.91 Q464.431 1299.89 462.024 1300.4 Q459.616 1300.91 457.14 1300.91 Q450.936 1300.91 447.302 1297.29 Q443.691 1293.68 443.691 1287.53 Q443.691 1281.16 447.116 1277.43 Q450.565 1273.68 456.399 1273.68 Q461.63 1273.68 464.663 1277.06 Q467.718 1280.42 467.718 1286.21 M463.459 1284.96 Q463.413 1281.46 461.491 1279.38 Q459.593 1277.29 456.445 1277.29 Q452.88 1277.29 450.728 1279.31 Q448.598 1281.32 448.274 1284.98 L463.459 1284.96 Z" fill="#000000" fill-rule="nonzero" fill-opacity="1" /><path clip-path="url(#clip980)" d="M491.237 1275.07 L491.237 1279.1 Q489.431 1278.17 487.487 1277.71 Q485.542 1277.25 483.459 1277.25 Q480.288 1277.25 478.69 1278.22 Q477.116 1279.19 477.116 1281.14 Q477.116 1282.62 478.251 1283.48 Q479.385 1284.31 482.811 1285.07 L484.269 1285.4 Q488.806 1286.37 490.704 1288.15 Q492.625 1289.91 492.625 1293.08 Q492.625 1296.69 489.755 1298.8 Q486.908 1300.91 481.908 1300.91 Q479.825 1300.91 477.556 1300.49 Q475.311 1300.1 472.811 1299.29 L472.811 1294.89 Q475.172 1296.11 477.463 1296.74 Q479.755 1297.34 482 1297.34 Q485.01 1297.34 486.63 1296.32 Q488.25 1295.28 488.25 1293.41 Q488.25 1291.67 487.07 1290.74 Q485.912 1289.82 481.954 1288.96 L480.473 1288.61 Q476.514 1287.78 474.755 1286.07 Q472.996 1284.33 472.996 1281.32 Q472.996 1277.67 475.588 1275.67 Q478.181 1273.68 482.95 1273.68 Q485.311 1273.68 487.394 1274.03 Q489.477 1274.38 491.237 1275.07 Z" fill="#000000" fill-rule="nonzero" fill-opacity="1" /><path clip-path="url(#clip980)" d="M503.621 1266.95 L503.621 1274.31 L512.394 1274.31 L512.394 1277.62 L503.621 1277.62 L503.621 1291.69 Q503.621 1294.86 504.477 1295.77 Q505.357 1296.67 508.019 1296.67 L512.394 1296.67 L512.394 1300.23 L508.019 1300.23 Q503.088 1300.23 501.213 1298.41 Q499.338 1296.55 499.338 1291.69 L499.338 1277.62 L496.213 1277.62 L496.213 1274.31 L499.338 1274.31 L499.338 1266.95 L503.621 1266.95 Z" fill="#000000" fill-rule="nonzero" fill-opacity="1" /><path clip-path="url(#clip980)" d="M517.996 1274.31 L522.255 1274.31 L522.255 1300.23 L517.996 1300.23 L517.996 1274.31 M517.996 1264.22 L522.255 1264.22 L522.255 1269.61 L517.996 1269.61 L517.996 1264.22 Z" fill="#000000" fill-rule="nonzero" fill-opacity="1" /><path clip-path="url(#clip980)" d="M551.352 1279.29 Q552.949 1276.42 555.171 1275.05 Q557.394 1273.68 560.403 1273.68 Q564.454 1273.68 566.653 1276.53 Q568.852 1279.35 568.852 1284.59 L568.852 1300.23 L564.569 1300.23 L564.569 1284.73 Q564.569 1281 563.25 1279.19 Q561.931 1277.39 559.222 1277.39 Q555.912 1277.39 553.991 1279.59 Q552.07 1281.79 552.07 1285.58 L552.07 1300.23 L547.787 1300.23 L547.787 1284.73 Q547.787 1280.98 546.468 1279.19 Q545.148 1277.39 542.394 1277.39 Q539.13 1277.39 537.209 1279.61 Q535.287 1281.81 535.287 1285.58 L535.287 1300.23 L531.005 1300.23 L531.005 1274.31 L535.287 1274.31 L535.287 1278.34 Q536.746 1275.95 538.783 1274.82 Q540.82 1273.68 543.621 1273.68 Q546.445 1273.68 548.412 1275.12 Q550.403 1276.55 551.352 1279.29 Z" fill="#000000" fill-rule="nonzero" fill-opacity="1" /><path clip-path="url(#clip980)" d="M589.13 1287.2 Q583.968 1287.2 581.977 1288.38 Q579.986 1289.56 579.986 1292.41 Q579.986 1294.68 581.468 1296.02 Q582.972 1297.34 585.542 1297.34 Q589.083 1297.34 591.213 1294.84 Q593.366 1292.32 593.366 1288.15 L593.366 1287.2 L589.13 1287.2 M597.625 1285.44 L597.625 1300.23 L593.366 1300.23 L593.366 1296.3 Q591.907 1298.66 589.731 1299.79 Q587.555 1300.91 584.407 1300.91 Q580.426 1300.91 578.065 1298.68 Q575.727 1296.44 575.727 1292.69 Q575.727 1288.31 578.643 1286.09 Q581.583 1283.87 587.393 1283.87 L593.366 1283.87 L593.366 1283.45 Q593.366 1280.51 591.421 1278.92 Q589.5 1277.29 586.005 1277.29 Q583.782 1277.29 581.676 1277.83 Q579.569 1278.36 577.625 1279.42 L577.625 1275.49 Q579.963 1274.59 582.162 1274.15 Q584.361 1273.68 586.444 1273.68 Q592.069 1273.68 594.847 1276.6 Q597.625 1279.52 597.625 1285.44 Z" fill="#000000" fill-rule="nonzero" fill-opacity="1" /><path clip-path="url(#clip980)" d="M610.611 1266.95 L610.611 1274.31 L619.384 1274.31 L619.384 1277.62 L610.611 1277.62 L610.611 1291.69 Q610.611 1294.86 611.467 1295.77 Q612.347 1296.67 615.009 1296.67 L619.384 1296.67 L619.384 1300.23 L615.009 1300.23 Q610.078 1300.23 608.204 1298.41 Q606.329 1296.55 606.329 1291.69 L606.329 1277.62 L603.204 1277.62 L603.204 1274.31 L606.329 1274.31 L606.329 1266.95 L610.611 1266.95 Z" fill="#000000" fill-rule="nonzero" fill-opacity="1" /><path clip-path="url(#clip980)" d="M647.162 1286.21 L647.162 1288.29 L627.578 1288.29 Q627.856 1292.69 630.217 1295 Q632.602 1297.29 636.838 1297.29 Q639.291 1297.29 641.583 1296.69 Q643.898 1296.09 646.166 1294.89 L646.166 1298.91 Q643.875 1299.89 641.467 1300.4 Q639.06 1300.91 636.583 1300.91 Q630.379 1300.91 626.745 1297.29 Q623.134 1293.68 623.134 1287.53 Q623.134 1281.16 626.56 1277.43 Q630.009 1273.68 635.842 1273.68 Q641.074 1273.68 644.106 1277.06 Q647.162 1280.42 647.162 1286.21 M642.902 1284.96 Q642.856 1281.46 640.935 1279.38 Q639.037 1277.29 635.889 1277.29 Q632.324 1277.29 630.171 1279.31 Q628.041 1281.32 627.717 1284.98 L642.902 1284.96 Z" fill="#000000" fill-rule="nonzero" fill-opacity="1" /><polyline clip-path="url(#clip980)" style="stroke:#ff0000; stroke-linecap:round; stroke-linejoin:round; stroke-width:4; stroke-opacity:1; fill:none" points="274.533,1334.79 419.525,1334.79 "/>
<path clip-path="url(#clip980)" d="M464.038 1331.13 Q465.635 1328.26 467.857 1326.89 Q470.079 1325.52 473.088 1325.52 Q477.139 1325.52 479.338 1328.37 Q481.538 1331.19 481.538 1336.43 L481.538 1352.07 L477.255 1352.07 L477.255 1336.57 Q477.255 1332.84 475.936 1331.03 Q474.616 1329.23 471.908 1329.23 Q468.598 1329.23 466.676 1331.43 Q464.755 1333.63 464.755 1337.42 L464.755 1352.07 L460.473 1352.07 L460.473 1336.57 Q460.473 1332.82 459.153 1331.03 Q457.834 1329.23 455.079 1329.23 Q451.815 1329.23 449.894 1331.45 Q447.973 1333.65 447.973 1337.42 L447.973 1352.07 L443.691 1352.07 L443.691 1326.15 L447.973 1326.15 L447.973 1330.18 Q449.431 1327.79 451.468 1326.66 Q453.505 1325.52 456.306 1325.52 Q459.13 1325.52 461.098 1326.96 Q463.089 1328.39 464.038 1331.13 Z" fill="#000000" fill-rule="nonzero" fill-opacity="1" /><path clip-path="url(#clip980)" d="M512.209 1338.05 L512.209 1340.13 L492.625 1340.13 Q492.903 1344.53 495.264 1346.84 Q497.649 1349.13 501.885 1349.13 Q504.338 1349.13 506.63 1348.53 Q508.945 1347.93 511.213 1346.73 L511.213 1350.75 Q508.922 1351.73 506.514 1352.24 Q504.107 1352.75 501.63 1352.75 Q495.426 1352.75 491.792 1349.13 Q488.181 1345.52 488.181 1339.37 Q488.181 1333 491.607 1329.27 Q495.056 1325.52 500.889 1325.52 Q506.121 1325.52 509.153 1328.9 Q512.209 1332.26 512.209 1338.05 M507.949 1336.8 Q507.903 1333.3 505.982 1331.22 Q504.084 1329.13 500.936 1329.13 Q497.371 1329.13 495.218 1331.15 Q493.088 1333.16 492.764 1336.82 L507.949 1336.8 Z" fill="#000000" fill-rule="nonzero" fill-opacity="1" /><path clip-path="url(#clip980)" d="M530.982 1339.04 Q525.82 1339.04 523.829 1340.22 Q521.838 1341.4 521.838 1344.25 Q521.838 1346.52 523.32 1347.86 Q524.824 1349.18 527.394 1349.18 Q530.935 1349.18 533.065 1346.68 Q535.218 1344.16 535.218 1339.99 L535.218 1339.04 L530.982 1339.04 M539.477 1337.28 L539.477 1352.07 L535.218 1352.07 L535.218 1348.14 Q533.759 1350.5 531.584 1351.63 Q529.408 1352.75 526.26 1352.75 Q522.278 1352.75 519.917 1350.52 Q517.579 1348.28 517.579 1344.53 Q517.579 1340.15 520.496 1337.93 Q523.435 1335.71 529.246 1335.71 L535.218 1335.71 L535.218 1335.29 Q535.218 1332.35 533.273 1330.76 Q531.352 1329.13 527.857 1329.13 Q525.635 1329.13 523.528 1329.67 Q521.422 1330.2 519.477 1331.26 L519.477 1327.33 Q521.815 1326.43 524.014 1325.99 Q526.213 1325.52 528.297 1325.52 Q533.922 1325.52 536.699 1328.44 Q539.477 1331.36 539.477 1337.28 Z" fill="#000000" fill-rule="nonzero" fill-opacity="1" /><path clip-path="url(#clip980)" d="M564.778 1326.91 L564.778 1330.94 Q562.972 1330.01 561.028 1329.55 Q559.083 1329.09 557 1329.09 Q553.829 1329.09 552.232 1330.06 Q550.658 1331.03 550.658 1332.98 Q550.658 1334.46 551.792 1335.32 Q552.926 1336.15 556.352 1336.91 L557.81 1337.24 Q562.347 1338.21 564.245 1339.99 Q566.167 1341.75 566.167 1344.92 Q566.167 1348.53 563.296 1350.64 Q560.449 1352.75 555.449 1352.75 Q553.366 1352.75 551.097 1352.33 Q548.852 1351.94 546.352 1351.13 L546.352 1346.73 Q548.713 1347.95 551.005 1348.58 Q553.296 1349.18 555.542 1349.18 Q558.551 1349.18 560.171 1348.16 Q561.792 1347.12 561.792 1345.25 Q561.792 1343.51 560.611 1342.58 Q559.454 1341.66 555.495 1340.8 L554.014 1340.45 Q550.056 1339.62 548.296 1337.91 Q546.537 1336.17 546.537 1333.16 Q546.537 1329.51 549.13 1327.51 Q551.722 1325.52 556.491 1325.52 Q558.852 1325.52 560.935 1325.87 Q563.019 1326.22 564.778 1326.91 Z" fill="#000000" fill-rule="nonzero" fill-opacity="1" /><path clip-path="url(#clip980)" d="M572.509 1341.84 L572.509 1326.15 L576.768 1326.15 L576.768 1341.68 Q576.768 1345.36 578.204 1347.21 Q579.639 1349.04 582.509 1349.04 Q585.958 1349.04 587.949 1346.84 Q589.963 1344.64 589.963 1340.85 L589.963 1326.15 L594.222 1326.15 L594.222 1352.07 L589.963 1352.07 L589.963 1348.09 Q588.412 1350.45 586.352 1351.61 Q584.315 1352.75 581.606 1352.75 Q577.139 1352.75 574.824 1349.97 Q572.509 1347.19 572.509 1341.84 M583.227 1325.52 L583.227 1325.52 Z" fill="#000000" fill-rule="nonzero" fill-opacity="1" /><path clip-path="url(#clip980)" d="M618.018 1330.13 Q617.301 1329.71 616.444 1329.53 Q615.611 1329.32 614.592 1329.32 Q610.981 1329.32 609.037 1331.68 Q607.116 1334.02 607.116 1338.42 L607.116 1352.07 L602.833 1352.07 L602.833 1326.15 L607.116 1326.15 L607.116 1330.18 Q608.458 1327.82 610.611 1326.68 Q612.764 1325.52 615.842 1325.52 Q616.282 1325.52 616.815 1325.59 Q617.347 1325.64 617.995 1325.76 L618.018 1330.13 Z" fill="#000000" fill-rule="nonzero" fill-opacity="1" /><path clip-path="url(#clip980)" d="M643.62 1338.05 L643.62 1340.13 L624.037 1340.13 Q624.315 1344.53 626.676 1346.84 Q629.06 1349.13 633.296 1349.13 Q635.75 1349.13 638.041 1348.53 Q640.356 1347.93 642.625 1346.73 L642.625 1350.75 Q640.333 1351.73 637.926 1352.24 Q635.518 1352.75 633.041 1352.75 Q626.838 1352.75 623.203 1349.13 Q619.592 1345.52 619.592 1339.37 Q619.592 1333 623.018 1329.27 Q626.467 1325.52 632.301 1325.52 Q637.532 1325.52 640.564 1328.9 Q643.62 1332.26 643.62 1338.05 M639.361 1336.8 Q639.314 1333.3 637.393 1331.22 Q635.495 1329.13 632.347 1329.13 Q628.782 1329.13 626.629 1331.15 Q624.5 1333.16 624.176 1336.82 L639.361 1336.8 Z" fill="#000000" fill-rule="nonzero" fill-opacity="1" /><path clip-path="url(#clip980)" d="M670.796 1331.13 Q672.393 1328.26 674.615 1326.89 Q676.837 1325.52 679.847 1325.52 Q683.898 1325.52 686.097 1328.37 Q688.296 1331.19 688.296 1336.43 L688.296 1352.07 L684.013 1352.07 L684.013 1336.57 Q684.013 1332.84 682.694 1331.03 Q681.374 1329.23 678.666 1329.23 Q675.356 1329.23 673.435 1331.43 Q671.513 1333.63 671.513 1337.42 L671.513 1352.07 L667.231 1352.07 L667.231 1336.57 Q667.231 1332.82 665.912 1331.03 Q664.592 1329.23 661.837 1329.23 Q658.574 1329.23 656.652 1331.45 Q654.731 1333.65 654.731 1337.42 L654.731 1352.07 L650.449 1352.07 L650.449 1326.15 L654.731 1326.15 L654.731 1330.18 Q656.189 1327.79 658.226 1326.66 Q660.263 1325.52 663.064 1325.52 Q665.888 1325.52 667.856 1326.96 Q669.847 1328.39 670.796 1331.13 Z" fill="#000000" fill-rule="nonzero" fill-opacity="1" /><path clip-path="url(#clip980)" d="M718.967 1338.05 L718.967 1340.13 L699.384 1340.13 Q699.661 1344.53 702.022 1346.84 Q704.407 1349.13 708.643 1349.13 Q711.096 1349.13 713.388 1348.53 Q715.703 1347.93 717.971 1346.73 L717.971 1350.75 Q715.68 1351.73 713.272 1352.24 Q710.865 1352.75 708.388 1352.75 Q702.184 1352.75 698.55 1349.13 Q694.939 1345.52 694.939 1339.37 Q694.939 1333 698.365 1329.27 Q701.814 1325.52 707.647 1325.52 Q712.879 1325.52 715.911 1328.9 Q718.967 1332.26 718.967 1338.05 M714.708 1336.8 Q714.661 1333.3 712.74 1331.22 Q710.842 1329.13 707.694 1329.13 Q704.129 1329.13 701.976 1331.15 Q699.847 1333.16 699.522 1336.82 L714.708 1336.8 Z" fill="#000000" fill-rule="nonzero" fill-opacity="1" /><path clip-path="url(#clip980)" d="M747.508 1336.43 L747.508 1352.07 L743.249 1352.07 L743.249 1336.57 Q743.249 1332.88 741.814 1331.06 Q740.379 1329.23 737.508 1329.23 Q734.059 1329.23 732.069 1331.43 Q730.078 1333.63 730.078 1337.42 L730.078 1352.07 L725.795 1352.07 L725.795 1326.15 L730.078 1326.15 L730.078 1330.18 Q731.606 1327.84 733.666 1326.68 Q735.749 1325.52 738.457 1325.52 Q742.925 1325.52 745.217 1328.3 Q747.508 1331.06 747.508 1336.43 Z" fill="#000000" fill-rule="nonzero" fill-opacity="1" /><path clip-path="url(#clip980)" d="M760.217 1318.79 L760.217 1326.15 L768.99 1326.15 L768.99 1329.46 L760.217 1329.46 L760.217 1343.53 Q760.217 1346.7 761.073 1347.61 Q761.953 1348.51 764.615 1348.51 L768.99 1348.51 L768.99 1352.07 L764.615 1352.07 Q759.684 1352.07 757.809 1350.25 Q755.934 1348.39 755.934 1343.53 L755.934 1329.46 L752.809 1329.46 L752.809 1326.15 L755.934 1326.15 L755.934 1318.79 L760.217 1318.79 Z" fill="#000000" fill-rule="nonzero" fill-opacity="1" /><polyline clip-path="url(#clip980)" style="stroke:#3da44d; stroke-linecap:round; stroke-linejoin:round; stroke-width:4; stroke-opacity:1; fill:none" points="274.533,1386.63 419.525,1386.63 "/>
<path clip-path="url(#clip980)" d="M468.343 1377.99 L458.968 1390.6 L468.829 1403.91 L463.806 1403.91 L456.26 1393.73 L448.714 1403.91 L443.691 1403.91 L453.76 1390.35 L444.547 1377.99 L449.57 1377.99 L456.445 1387.22 L463.32 1377.99 L468.343 1377.99 Z" fill="#000000" fill-rule="nonzero" fill-opacity="1" /><path clip-path="url(#clip980)" d="M491.375 1378.75 L491.375 1382.78 Q489.57 1381.85 487.625 1381.39 Q485.681 1380.93 483.598 1380.93 Q480.426 1380.93 478.829 1381.9 Q477.255 1382.87 477.255 1384.82 Q477.255 1386.3 478.389 1387.16 Q479.524 1387.99 482.95 1388.75 L484.408 1389.08 Q488.945 1390.05 490.843 1391.83 Q492.764 1393.59 492.764 1396.76 Q492.764 1400.37 489.894 1402.48 Q487.047 1404.59 482.047 1404.59 Q479.963 1404.59 477.695 1404.17 Q475.45 1403.78 472.95 1402.97 L472.95 1398.57 Q475.311 1399.79 477.602 1400.42 Q479.894 1401.02 482.139 1401.02 Q485.149 1401.02 486.769 1400 Q488.389 1398.96 488.389 1397.09 Q488.389 1395.35 487.209 1394.42 Q486.051 1393.5 482.093 1392.64 L480.612 1392.29 Q476.653 1391.46 474.894 1389.75 Q473.135 1388.01 473.135 1385 Q473.135 1381.35 475.727 1379.35 Q478.32 1377.36 483.088 1377.36 Q485.45 1377.36 487.533 1377.71 Q489.616 1378.06 491.375 1378.75 Z" fill="#000000" fill-rule="nonzero" fill-opacity="1" /></svg>
