<?xml version="1.0" encoding="utf-8"?>
<svg xmlns="http://www.w3.org/2000/svg" xmlns:xlink="http://www.w3.org/1999/xlink" width="600" height="400" viewBox="0 0 2400 1600">
<defs>
  <clipPath id="clip690">
    <rect x="0" y="0" width="2400" height="1600"/>
  </clipPath>
</defs>
<path clip-path="url(#clip690)" d="M0 1600 L2400 1600 L2400 0 L0 0  Z" fill="#ffffff" fill-rule="evenodd" fill-opacity="1"/>
<defs>
  <clipPath id="clip691">
    <rect x="177" y="47" width="2176" height="1440"/>
  </clipPath>
</defs>
<path clip-path="url(#clip690)" d="M177.871 1486.45 L2352.76 1486.45 L2352.76 47.2441 L177.871 47.2441  Z" fill="#ffffff" fill-rule="evenodd" fill-opacity="1"/>
<polyline clip-path="url(#clip691)" style="stroke:#000000; stroke-linecap:round; stroke-linejoin:round; stroke-width:2; stroke-opacity:0.1; fill:none" points="386.18,1486.45 386.18,47.2441 "/>
<polyline clip-path="url(#clip691)" style="stroke:#000000; stroke-linecap:round; stroke-linejoin:round; stroke-width:2; stroke-opacity:0.1; fill:none" points="812.754,1486.45 812.754,47.2441 "/>
<polyline clip-path="url(#clip691)" style="stroke:#000000; stroke-linecap:round; stroke-linejoin:round; stroke-width:2; stroke-opacity:0.1; fill:none" points="1239.33,1486.45 1239.33,47.2441 "/>
<polyline clip-path="url(#clip691)" style="stroke:#000000; stroke-linecap:round; stroke-linejoin:round; stroke-width:2; stroke-opacity:0.1; fill:none" points="1665.9,1486.45 1665.9,47.2441 "/>
<polyline clip-path="url(#clip691)" style="stroke:#000000; stroke-linecap:round; stroke-linejoin:round; stroke-width:2; stroke-opacity:0.1; fill:none" points="2092.48,1486.45 2092.48,47.2441 "/>
<polyline clip-path="url(#clip691)" style="stroke:#000000; stroke-linecap:round; stroke-linejoin:round; stroke-width:2; stroke-opacity:0.1; fill:none" points="177.871,1480.6 2352.76,1480.6 "/>
<polyline clip-path="url(#clip691)" style="stroke:#000000; stroke-linecap:round; stroke-linejoin:round; stroke-width:2; stroke-opacity:0.1; fill:none" points="177.871,1174.88 2352.76,1174.88 "/>
<polyline clip-path="url(#clip691)" style="stroke:#000000; stroke-linecap:round; stroke-linejoin:round; stroke-width:2; stroke-opacity:0.1; fill:none" points="177.871,869.163 2352.76,869.163 "/>
<polyline clip-path="url(#clip691)" style="stroke:#000000; stroke-linecap:round; stroke-linejoin:round; stroke-width:2; stroke-opacity:0.1; fill:none" points="177.871,563.446 2352.76,563.446 "/>
<polyline clip-path="url(#clip691)" style="stroke:#000000; stroke-linecap:round; stroke-linejoin:round; stroke-width:2; stroke-opacity:0.1; fill:none" points="177.871,257.73 2352.76,257.73 "/>
<polyline clip-path="url(#clip690)" style="stroke:#000000; stroke-linecap:round; stroke-linejoin:round; stroke-width:4; stroke-opacity:1; fill:none" points="177.871,1486.45 2352.76,1486.45 "/>
<polyline clip-path="url(#clip690)" style="stroke:#000000; stroke-linecap:round; stroke-linejoin:round; stroke-width:4; stroke-opacity:1; fill:none" points="386.18,1486.45 386.18,1467.55 "/>
<polyline clip-path="url(#clip690)" style="stroke:#000000; stroke-linecap:round; stroke-linejoin:round; stroke-width:4; stroke-opacity:1; fill:none" points="812.754,1486.45 812.754,1467.55 "/>
<polyline clip-path="url(#clip690)" style="stroke:#000000; stroke-linecap:round; stroke-linejoin:round; stroke-width:4; stroke-opacity:1; fill:none" points="1239.33,1486.45 1239.33,1467.55 "/>
<polyline clip-path="url(#clip690)" style="stroke:#000000; stroke-linecap:round; stroke-linejoin:round; stroke-width:4; stroke-opacity:1; fill:none" points="1665.9,1486.45 1665.9,1467.55 "/>
<polyline clip-path="url(#clip690)" style="stroke:#000000; stroke-linecap:round; stroke-linejoin:round; stroke-width:4; stroke-opacity:1; fill:none" points="2092.48,1486.45 2092.48,1467.55 "/>
<path clip-path="url(#clip690)" d="M340.243 1532.02 L369.919 1532.02 L369.919 1535.95 L340.243 1535.95 L340.243 1532.02 Z" fill="#000000" fill-rule="nonzero" fill-opacity="1" /><path clip-path="url(#clip690)" d="M394.178 1530.21 Q397.534 1530.93 399.409 1533.2 Q401.307 1535.47 401.307 1538.8 Q401.307 1543.92 397.789 1546.72 Q394.27 1549.52 387.789 1549.52 Q385.613 1549.52 383.298 1549.08 Q381.007 1548.66 378.553 1547.81 L378.553 1543.29 Q380.497 1544.43 382.812 1545.01 Q385.127 1545.58 387.65 1545.58 Q392.048 1545.58 394.34 1543.85 Q396.655 1542.11 396.655 1538.8 Q396.655 1535.75 394.502 1534.03 Q392.372 1532.3 388.553 1532.3 L384.525 1532.3 L384.525 1528.45 L388.738 1528.45 Q392.187 1528.45 394.016 1527.09 Q395.845 1525.7 395.845 1523.11 Q395.845 1520.45 393.946 1519.03 Q392.071 1517.6 388.553 1517.6 Q386.632 1517.6 384.433 1518.01 Q382.234 1518.43 379.595 1519.31 L379.595 1515.14 Q382.257 1514.4 384.571 1514.03 Q386.909 1513.66 388.97 1513.66 Q394.294 1513.66 397.395 1516.09 Q400.497 1518.5 400.497 1522.62 Q400.497 1525.49 398.854 1527.48 Q397.21 1529.45 394.178 1530.21 Z" fill="#000000" fill-rule="nonzero" fill-opacity="1" /><path clip-path="url(#clip690)" d="M420.173 1517.37 Q416.562 1517.37 414.733 1520.93 Q412.928 1524.47 412.928 1531.6 Q412.928 1538.71 414.733 1542.27 Q416.562 1545.82 420.173 1545.82 Q423.807 1545.82 425.613 1542.27 Q427.442 1538.71 427.442 1531.6 Q427.442 1524.47 425.613 1520.93 Q423.807 1517.37 420.173 1517.37 M420.173 1513.66 Q425.983 1513.66 429.039 1518.27 Q432.118 1522.85 432.118 1531.6 Q432.118 1540.33 429.039 1544.94 Q425.983 1549.52 420.173 1549.52 Q414.363 1549.52 411.284 1544.94 Q408.229 1540.33 408.229 1531.6 Q408.229 1522.85 411.284 1518.27 Q414.363 1513.66 420.173 1513.66 Z" fill="#000000" fill-rule="nonzero" fill-opacity="1" /><path clip-path="url(#clip690)" d="M812.754 1517.37 Q809.143 1517.37 807.314 1520.93 Q805.509 1524.47 805.509 1531.6 Q805.509 1538.71 807.314 1542.27 Q809.143 1545.82 812.754 1545.82 Q816.388 1545.82 818.194 1542.27 Q820.023 1538.71 820.023 1531.6 Q820.023 1524.47 818.194 1520.93 Q816.388 1517.37 812.754 1517.37 M812.754 1513.66 Q818.564 1513.66 821.62 1518.27 Q824.699 1522.85 824.699 1531.6 Q824.699 1540.33 821.62 1544.94 Q818.564 1549.52 812.754 1549.52 Q806.944 1549.52 803.865 1544.94 Q800.81 1540.33 800.81 1531.6 Q800.81 1522.85 803.865 1518.27 Q806.944 1513.66 812.754 1513.66 Z" fill="#000000" fill-rule="nonzero" fill-opacity="1" /><path clip-path="url(#clip690)" d="M1228.17 1530.21 Q1231.53 1530.93 1233.4 1533.2 Q1235.3 1535.47 1235.3 1538.8 Q1235.3 1543.92 1231.78 1546.72 Q1228.26 1549.52 1221.78 1549.52 Q1219.61 1549.52 1217.29 1549.08 Q1215 1548.66 1212.55 1547.81 L1212.55 1543.29 Q1214.49 1544.43 1216.81 1545.01 Q1219.12 1545.58 1221.64 1545.58 Q1226.04 1545.58 1228.33 1543.85 Q1230.65 1542.11 1230.65 1538.8 Q1230.65 1535.75 1228.49 1534.03 Q1226.37 1532.3 1222.55 1532.3 L1218.52 1532.3 L1218.52 1528.45 L1222.73 1528.45 Q1226.18 1528.45 1228.01 1527.09 Q1229.84 1525.7 1229.84 1523.11 Q1229.84 1520.45 1227.94 1519.03 Q1226.06 1517.6 1222.55 1517.6 Q1220.62 1517.6 1218.43 1518.01 Q1216.23 1518.43 1213.59 1519.31 L1213.59 1515.14 Q1216.25 1514.4 1218.56 1514.03 Q1220.9 1513.66 1222.96 1513.66 Q1228.29 1513.66 1231.39 1516.09 Q1234.49 1518.5 1234.49 1522.62 Q1234.49 1525.49 1232.85 1527.48 Q1231.2 1529.45 1228.17 1530.21 Z" fill="#000000" fill-rule="nonzero" fill-opacity="1" /><path clip-path="url(#clip690)" d="M1254.17 1517.37 Q1250.55 1517.37 1248.73 1520.93 Q1246.92 1524.47 1246.92 1531.6 Q1246.92 1538.71 1248.73 1542.27 Q1250.55 1545.82 1254.17 1545.82 Q1257.8 1545.82 1259.61 1542.27 Q1261.43 1538.71 1261.43 1531.6 Q1261.43 1524.47 1259.61 1520.93 Q1257.8 1517.37 1254.17 1517.37 M1254.17 1513.66 Q1259.98 1513.66 1263.03 1518.27 Q1266.11 1522.85 1266.11 1531.6 Q1266.11 1540.33 1263.03 1544.94 Q1259.98 1549.52 1254.17 1549.52 Q1248.36 1549.52 1245.28 1544.94 Q1242.22 1540.33 1242.22 1531.6 Q1242.22 1522.85 1245.28 1518.27 Q1248.36 1513.66 1254.17 1513.66 Z" fill="#000000" fill-rule="nonzero" fill-opacity="1" /><path clip-path="url(#clip690)" d="M1651.31 1529.7 Q1648.16 1529.7 1646.31 1531.86 Q1644.48 1534.01 1644.48 1537.76 Q1644.48 1541.49 1646.31 1543.66 Q1648.16 1545.82 1651.31 1545.82 Q1654.46 1545.82 1656.28 1543.66 Q1658.14 1541.49 1658.14 1537.76 Q1658.14 1534.01 1656.28 1531.86 Q1654.46 1529.7 1651.31 1529.7 M1660.59 1515.05 L1660.59 1519.31 Q1658.83 1518.48 1657.02 1518.04 Q1655.24 1517.6 1653.48 1517.6 Q1648.85 1517.6 1646.4 1520.72 Q1643.97 1523.85 1643.62 1530.17 Q1644.99 1528.15 1647.05 1527.09 Q1649.11 1526 1651.59 1526 Q1656.79 1526 1659.8 1529.17 Q1662.83 1532.32 1662.83 1537.76 Q1662.83 1543.08 1659.69 1546.3 Q1656.54 1549.52 1651.31 1549.52 Q1645.31 1549.52 1642.14 1544.94 Q1638.97 1540.33 1638.97 1531.6 Q1638.97 1523.41 1642.86 1518.55 Q1646.75 1513.66 1653.3 1513.66 Q1655.06 1513.66 1656.84 1514.01 Q1658.65 1514.36 1660.59 1515.05 Z" fill="#000000" fill-rule="nonzero" fill-opacity="1" /><path clip-path="url(#clip690)" d="M1680.89 1517.37 Q1677.28 1517.37 1675.45 1520.93 Q1673.65 1524.47 1673.65 1531.6 Q1673.65 1538.71 1675.45 1542.27 Q1677.28 1545.82 1680.89 1545.82 Q1684.52 1545.82 1686.33 1542.27 Q1688.16 1538.71 1688.16 1531.6 Q1688.16 1524.47 1686.33 1520.93 Q1684.52 1517.37 1680.89 1517.37 M1680.89 1513.66 Q1686.7 1513.66 1689.76 1518.27 Q1692.83 1522.85 1692.83 1531.6 Q1692.83 1540.33 1689.76 1544.94 Q1686.7 1549.52 1680.89 1549.52 Q1675.08 1549.52 1672 1544.94 Q1668.95 1540.33 1668.95 1531.6 Q1668.95 1522.85 1672 1518.27 Q1675.08 1513.66 1680.89 1513.66 Z" fill="#000000" fill-rule="nonzero" fill-opacity="1" /><path clip-path="url(#clip690)" d="M2067.6 1548.13 L2067.6 1543.87 Q2069.36 1544.7 2071.17 1545.14 Q2072.97 1545.58 2074.71 1545.58 Q2079.34 1545.58 2081.77 1542.48 Q2084.22 1539.36 2084.57 1533.01 Q2083.23 1535.01 2081.17 1536.07 Q2079.11 1537.13 2076.61 1537.13 Q2071.42 1537.13 2068.39 1534.01 Q2065.38 1530.86 2065.38 1525.42 Q2065.38 1520.1 2068.53 1516.88 Q2071.68 1513.66 2076.91 1513.66 Q2082.9 1513.66 2086.05 1518.27 Q2089.22 1522.85 2089.22 1531.6 Q2089.22 1539.77 2085.33 1544.66 Q2081.47 1549.52 2074.92 1549.52 Q2073.16 1549.52 2071.35 1549.17 Q2069.55 1548.82 2067.6 1548.13 M2076.91 1533.48 Q2080.06 1533.48 2081.89 1531.32 Q2083.74 1529.17 2083.74 1525.42 Q2083.74 1521.7 2081.89 1519.54 Q2080.06 1517.37 2076.91 1517.37 Q2073.76 1517.37 2071.91 1519.54 Q2070.08 1521.7 2070.08 1525.42 Q2070.08 1529.17 2071.91 1531.32 Q2073.76 1533.48 2076.91 1533.48 Z" fill="#000000" fill-rule="nonzero" fill-opacity="1" /><path clip-path="url(#clip690)" d="M2107.63 1517.37 Q2104.02 1517.37 2102.19 1520.93 Q2100.38 1524.47 2100.38 1531.6 Q2100.38 1538.71 2102.19 1542.27 Q2104.02 1545.82 2107.63 1545.82 Q2111.26 1545.82 2113.07 1542.27 Q2114.89 1538.71 2114.89 1531.6 Q2114.89 1524.47 2113.07 1520.93 Q2111.26 1517.37 2107.63 1517.37 M2107.63 1513.66 Q2113.44 1513.66 2116.49 1518.27 Q2119.57 1522.85 2119.57 1531.6 Q2119.57 1540.33 2116.49 1544.94 Q2113.44 1549.52 2107.63 1549.52 Q2101.82 1549.52 2098.74 1544.94 Q2095.68 1540.33 2095.68 1531.6 Q2095.68 1522.85 2098.74 1518.27 Q2101.82 1513.66 2107.63 1513.66 Z" fill="#000000" fill-rule="nonzero" fill-opacity="1" /><polyline clip-path="url(#clip690)" style="stroke:#000000; stroke-linecap:round; stroke-linejoin:round; stroke-width:4; stroke-opacity:1; fill:none" points="177.871,1486.45 177.871,47.2441 "/>
<polyline clip-path="url(#clip690)" style="stroke:#000000; stroke-linecap:round; stroke-linejoin:round; stroke-width:4; stroke-opacity:1; fill:none" points="177.871,1480.6 196.769,1480.6 "/>
<polyline clip-path="url(#clip690)" style="stroke:#000000; stroke-linecap:round; stroke-linejoin:round; stroke-width:4; stroke-opacity:1; fill:none" points="177.871,1174.88 196.769,1174.88 "/>
<polyline clip-path="url(#clip690)" style="stroke:#000000; stroke-linecap:round; stroke-linejoin:round; stroke-width:4; stroke-opacity:1; fill:none" points="177.871,869.163 196.769,869.163 "/>
<polyline clip-path="url(#clip690)" style="stroke:#000000; stroke-linecap:round; stroke-linejoin:round; stroke-width:4; stroke-opacity:1; fill:none" points="177.871,563.446 196.769,563.446 "/>
<polyline clip-path="url(#clip690)" style="stroke:#000000; stroke-linecap:round; stroke-linejoin:round; stroke-width:4; stroke-opacity:1; fill:none" points="177.871,257.73 196.769,257.73 "/>
<path clip-path="url(#clip690)" d="M50.9921 1481.05 L80.6679 1481.05 L80.6679 1484.98 L50.9921 1484.98 L50.9921 1481.05 Z" fill="#000000" fill-rule="nonzero" fill-opacity="1" /><path clip-path="url(#clip690)" d="M94.7882 1493.94 L111.108 1493.94 L111.108 1497.88 L89.1632 1497.88 L89.1632 1493.94 Q91.8252 1491.19 96.4085 1486.56 Q101.015 1481.9 102.196 1480.56 Q104.441 1478.04 105.321 1476.3 Q106.223 1474.54 106.223 1472.85 Q106.223 1470.1 104.279 1468.36 Q102.358 1466.63 99.2558 1466.63 Q97.0567 1466.63 94.603 1467.39 Q92.1725 1468.15 89.3947 1469.71 L89.3947 1464.98 Q92.2188 1463.85 94.6724 1463.27 Q97.1261 1462.69 99.1632 1462.69 Q104.534 1462.69 107.728 1465.38 Q110.922 1468.06 110.922 1472.55 Q110.922 1474.68 110.112 1476.6 Q109.325 1478.5 107.219 1481.09 Q106.64 1481.77 103.538 1484.98 Q100.436 1488.18 94.7882 1493.94 Z" fill="#000000" fill-rule="nonzero" fill-opacity="1" /><path clip-path="url(#clip690)" d="M120.969 1463.32 L139.325 1463.32 L139.325 1467.25 L125.251 1467.25 L125.251 1475.72 Q126.27 1475.38 127.288 1475.21 Q128.307 1475.03 129.325 1475.03 Q135.112 1475.03 138.492 1478.2 Q141.871 1481.37 141.871 1486.79 Q141.871 1492.37 138.399 1495.47 Q134.927 1498.55 128.607 1498.55 Q126.432 1498.55 124.163 1498.18 Q121.918 1497.81 119.51 1497.07 L119.51 1492.37 Q121.594 1493.5 123.816 1494.06 Q126.038 1494.61 128.515 1494.61 Q132.519 1494.61 134.857 1492.51 Q137.195 1490.4 137.195 1486.79 Q137.195 1483.18 134.857 1481.07 Q132.519 1478.96 128.515 1478.96 Q126.64 1478.96 124.765 1479.38 Q122.913 1479.8 120.969 1480.68 L120.969 1463.32 Z" fill="#000000" fill-rule="nonzero" fill-opacity="1" /><path clip-path="url(#clip690)" d="M129.927 1160.68 Q126.316 1160.68 124.487 1164.24 Q122.682 1167.78 122.682 1174.91 Q122.682 1182.02 124.487 1185.59 Q126.316 1189.13 129.927 1189.13 Q133.561 1189.13 135.367 1185.59 Q137.195 1182.02 137.195 1174.91 Q137.195 1167.78 135.367 1164.24 Q133.561 1160.68 129.927 1160.68 M129.927 1156.97 Q135.737 1156.97 138.793 1161.58 Q141.871 1166.16 141.871 1174.91 Q141.871 1183.64 138.793 1188.25 Q135.737 1192.83 129.927 1192.83 Q124.117 1192.83 121.038 1188.25 Q117.983 1183.64 117.983 1174.91 Q117.983 1166.16 121.038 1161.58 Q124.117 1156.97 129.927 1156.97 Z" fill="#000000" fill-rule="nonzero" fill-opacity="1" /><path clip-path="url(#clip690)" d="M94.7882 882.508 L111.108 882.508 L111.108 886.443 L89.1632 886.443 L89.1632 882.508 Q91.8252 879.753 96.4085 875.124 Q101.015 870.471 102.196 869.128 Q104.441 866.605 105.321 864.869 Q106.223 863.11 106.223 861.42 Q106.223 858.665 104.279 856.929 Q102.358 855.193 99.2558 855.193 Q97.0567 855.193 94.603 855.957 Q92.1725 856.721 89.3947 858.272 L89.3947 853.55 Q92.2188 852.415 94.6724 851.837 Q97.1261 851.258 99.1632 851.258 Q104.534 851.258 107.728 853.943 Q110.922 856.628 110.922 861.119 Q110.922 863.249 110.112 865.17 Q109.325 867.068 107.219 869.661 Q106.64 870.332 103.538 873.55 Q100.436 876.744 94.7882 882.508 Z" fill="#000000" fill-rule="nonzero" fill-opacity="1" /><path clip-path="url(#clip690)" d="M120.969 851.883 L139.325 851.883 L139.325 855.818 L125.251 855.818 L125.251 864.29 Q126.27 863.943 127.288 863.781 Q128.307 863.596 129.325 863.596 Q135.112 863.596 138.492 866.767 Q141.871 869.939 141.871 875.355 Q141.871 880.934 138.399 884.036 Q134.927 887.114 128.607 887.114 Q126.432 887.114 124.163 886.744 Q121.918 886.374 119.51 885.633 L119.51 880.934 Q121.594 882.068 123.816 882.624 Q126.038 883.179 128.515 883.179 Q132.519 883.179 134.857 881.073 Q137.195 878.966 137.195 875.355 Q137.195 871.744 134.857 869.638 Q132.519 867.531 128.515 867.531 Q126.64 867.531 124.765 867.948 Q122.913 868.364 120.969 869.244 L120.969 851.883 Z" fill="#000000" fill-rule="nonzero" fill-opacity="1" /><path clip-path="url(#clip690)" d="M89.8114 546.166 L108.168 546.166 L108.168 550.101 L94.0937 550.101 L94.0937 558.574 Q95.1123 558.226 96.1308 558.064 Q97.1493 557.879 98.1678 557.879 Q103.955 557.879 107.334 561.05 Q110.714 564.222 110.714 569.638 Q110.714 575.217 107.242 578.319 Q103.77 581.398 97.4502 581.398 Q95.2743 581.398 93.0058 581.027 Q90.7604 580.657 88.353 579.916 L88.353 575.217 Q90.4364 576.351 92.6586 576.907 Q94.8808 577.462 97.3576 577.462 Q101.362 577.462 103.7 575.356 Q106.038 573.249 106.038 569.638 Q106.038 566.027 103.7 563.921 Q101.362 561.814 97.3576 561.814 Q95.4826 561.814 93.6076 562.231 Q91.7558 562.648 89.8114 563.527 L89.8114 546.166 Z" fill="#000000" fill-rule="nonzero" fill-opacity="1" /><path clip-path="url(#clip690)" d="M129.927 549.245 Q126.316 549.245 124.487 552.81 Q122.682 556.351 122.682 563.481 Q122.682 570.587 124.487 574.152 Q126.316 577.694 129.927 577.694 Q133.561 577.694 135.367 574.152 Q137.195 570.587 137.195 563.481 Q137.195 556.351 135.367 552.81 Q133.561 549.245 129.927 549.245 M129.927 545.541 Q135.737 545.541 138.793 550.148 Q141.871 554.731 141.871 563.481 Q141.871 572.208 138.793 576.814 Q135.737 581.398 129.927 581.398 Q124.117 581.398 121.038 576.814 Q117.983 572.208 117.983 563.481 Q117.983 554.731 121.038 550.148 Q124.117 545.541 129.927 545.541 Z" fill="#000000" fill-rule="nonzero" fill-opacity="1" /><path clip-path="url(#clip690)" d="M89.5799 240.45 L111.802 240.45 L111.802 242.44 L99.2558 275.01 L94.3715 275.01 L106.177 244.385 L89.5799 244.385 L89.5799 240.45 Z" fill="#000000" fill-rule="nonzero" fill-opacity="1" /><path clip-path="url(#clip690)" d="M120.969 240.45 L139.325 240.45 L139.325 244.385 L125.251 244.385 L125.251 252.857 Q126.27 252.51 127.288 252.348 Q128.307 252.162 129.325 252.162 Q135.112 252.162 138.492 255.334 Q141.871 258.505 141.871 263.922 Q141.871 269.5 138.399 272.602 Q134.927 275.681 128.607 275.681 Q126.432 275.681 124.163 275.31 Q121.918 274.94 119.51 274.199 L119.51 269.5 Q121.594 270.635 123.816 271.19 Q126.038 271.746 128.515 271.746 Q132.519 271.746 134.857 269.639 Q137.195 267.533 137.195 263.922 Q137.195 260.311 134.857 258.204 Q132.519 256.098 128.515 256.098 Q126.64 256.098 124.765 256.514 Q122.913 256.931 120.969 257.811 L120.969 240.45 Z" fill="#000000" fill-rule="nonzero" fill-opacity="1" /><polyline clip-path="url(#clip691)" style="stroke:#0000ff; stroke-linecap:round; stroke-linejoin:round; stroke-width:4; stroke-opacity:1; fill:none" points="239.783,715.19 267.655,720.662 271.549,716.274 282.175,714.812 289.304,714.462 313.724,717.321 335.593,721.487 362.135,723.983 388.59,726.05 418.434,730.048 446.507,730.571 471.022,730.806 506.744,732.044 529.616,737.532 552.807,741.78 586.798,745.514 611.942,747.269 633.975,751.959 662.405,757.801 685.508,764.991 707.901,772.928 730.125,779.549 757.667,786.053 780.666,794.355 805.721,800.211 835.935,808.492 858.796,808.553 891.862,810.823 917.146,818.647 943.303,826.083 973.716,835.343 998.212,843.867 1023.32,850.769 1042,860.569 1059.47,872.591 1066.77,878.582 1087.25,881.738 1104.62,883.881 1125.83,885.338 1151.25,888.49 1177.19,897.347 1203.96,907.299 1226.05,913.024 1251.32,916.914 1283.62,918.425 1312.35,919.605 1344.28,923.88 1372.13,928.67 1397.65,932.065 1422.63,934.505 1454.32,934.615 1477.99,934.601 1504.3,934.401 1530.46,931.174 1558.89,925.652 1587.09,925.639 1614.52,923.635 1640.12,924.234 1660.53,918.433 1678.63,915.147 1695.72,909.168 1713.32,903.045 1733.66,902.758 1755.85,900.713 1776.98,901.99 1796.02,904.934 1817.11,911.36 1837.25,922.674 1858.67,935.179 1874.47,946.333 1890.45,962.297 1901.03,976.514 1908.58,990.269 1917.88,1009.76 1929.1,1028.01 1941.14,1046.94 1951.58,1057.64 1969.39,1064.26 1983.58,1067.25 1993.67,1066.54 2015.24,1060.98 2031.34,1055.86 2051,1035.97 2062.79,1020.14 2066.85,999.843 2069.07,981.24 2068.04,959.343 2055.56,943.4 2037.99,935.668 2013.86,925.913 1985.49,929.23 1961.39,928.414 1941.2,924.544 1922.06,921.937 1899.41,919.702 1879.75,925.266 1858.38,931.981 1842.37,940.104 1820.05,942.939 1796.46,942.752 1769.37,938.461 1746.46,928.251 1723.04,918.076 1693.45,902.421 1668.97,884.723 1646.78,866.702 1631.4,851.683 1619.86,838.797 1603.26,825.147 1588.75,808.875 1577.09,792.964 1569.1,776.339 1568.79,761.409 1581.21,745.826 1594.75,732.944 1617.3,726.119 1636.66,726.379 1663.18,726.576 1682.7,738.202 1702.54,745.447 1717.13,751.609 1739.11,758.26 1761.64,769.249 1773.76,778.456 1791.41,789.348 1809.53,800.426 1831.11,808.47 1851.4,810.515 1872.59,811.499 1896.38,805.036 1916.65,800.417 1932.77,798.967 1951.06,805.334 1967.64,816.676 1983.04,832.151 1993.07,848.397 2001.99,867.785 2009.86,889.354 2013.85,908.769 2013.38,929.626 2013.14,940.975 2015.51,954.678 2024.35,972.774 2031.17,990.547 2042.72,1005.7 2053.89,1012.88 2066.73,1016.47 2083.74,1012.59 2101.97,1006.24 2116.28,997.943 2133.71,986.264 2143.99,976.168 2148.29,956.294 2138.58,939.807 2120.05,922.014 2105.36,904.262 2084.86,891.945 2057.37,886.941 2029.79,882.399 2012.73,881.04 1988.41,879.045 1967.95,876.412 1949.6,867.566 1934.45,860.971 1912.14,854.509 1896.22,853.613 1873.97,855.785 1853.59,850.884 1833.27,845.595 1813.85,843.941 1789.98,840.846 1772,836.56 1755.09,832.102 1733.57,830.626 1706.85,831.546 1681.26,837.123 1665.69,836.4 1660.79,829.53 1655.66,826.103 1649.16,824.309 1638.46,823.56 1629.91,823.214 1617.04,827.359 1603.57,833.677 1577.64,837.85 1556.5,841.511 1541.73,847.31 1532.17,856.012 1538.03,857.839 1551.76,855.772 1580.87,852.009 1602.84,834.963 1619.15,819.801 1626.38,804.109 1619.64,787.077 1605.36,769.215 1595.34,757.732 1583.68,737.363 1565.57,726.855 1544.51,737.412 1523.21,737.662 1493.91,733.194 1489.75,716.248 1485.81,697.077 1487.17,676.853 1491.76,660.27 1505.34,638.559 1513.32,618.622 1516.87,595.465 1500.82,582.304 1479.17,574.726 1469.77,572.746 1478.29,560.193 1498.32,549.64 1531.91,547.367 1571.09,533.786 1597.08,516.738 1615.56,493.083 1630.75,472.16 1650.98,462.849 1676.33,466.169 1699.9,471.078 1718.51,489.328 1746.23,501.541 1766.64,517.793 1775.68,538.152 1765.24,555.527 1746.79,571.598 1720.62,584.223 1688.08,591.014 1662.53,589.647 1628.3,575.689 1602.74,560.08 1591.93,539.324 1591.44,517.515 1609.14,502.798 1623.34,492.036 1646.79,478.128 1671.63,469.23 1693.83,454.362 1715.51,441.146 1734.71,440.647 1757.95,427.184 1761.63,413.676 1771.42,396.223 1783.51,390.457 1801.23,373.57 1794.96,360.615 1773.8,349.99 1769.54,347.124 1780.2,343.395 1803.5,337.214 1832.41,340.85 1857.94,343.663 1884.38,348.501 1908.2,366.57 1912.16,383.582 1908.08,396.626 1887.68,408.032 1872.23,430.145 1857.58,456.618 1847.5,488.929 1849.19,509.517 1814.81,512.556 1791.52,527.734 1759.67,535.009 1729.81,551.013 1712.07,575.442 1692.52,594.374 1665.81,589.317 1643.99,578.147 1616.68,569.121 1602.3,555.681 1575.83,540.382 1567.8,533.355 1575.03,511.885 1598.31,502.178 1631.85,496.874 1660.63,500.057 1696.37,507.869 1725.46,521.311 1733.96,543.002 1746.59,564.661 1761.94,567.847 1788.86,573.277 1811.68,583.203 1821.04,586.605 1846.54,579.285 1871.36,570.929 1889.86,561.573 1909.48,564.212 1928.53,579.024 1928.34,596.147 1929.08,616.552 1916.8,648.718 1896.02,674.494 1872.31,694.53 1848.98,723.46 1847.91,749.183 1811.93,760.257 1784.66,764.85 1757.64,779.785 1731.71,794.518 1713.88,813.062 1698.29,833.841 1673.81,856.428 1646.39,865.285 1618.79,857.634 1595.27,851.036 1564.29,847.829 1537.03,839.089 1517.95,818.497 1504.1,798.677 1473.62,776.289 1456.79,756.728 1432.35,739.35 1407.33,736.363 1377.04,741.851 1359.23,739.388 1333.08,730.671 1328.49,705.199 1312.5,697.42 1288.82,701.85 1271.12,710.528 1246.11,726.571 1240.63,733.258 1210.24,736.847 1187.43,742.199 1162.53,736.059 1140.83,719.051 1118.69,705.687 1084.55,699.48 1052.68,690.772 1030.31,686.607 1009.43,675.813 989.095,655.085 988.534,641.912 998.39,622.855 1014.49,602.147 1025.09,579.309 1031.15,549.283 1037.1,524.398 1023.3,504.338 1005.6,499.825 993.92,488.226 998.982,475.76 1023.35,475.474 1059.18,478.105 1099.9,476.666 1133.28,472.366 1160.52,454.687 1184.16,430.349 1208.99,410.82 1239.41,403.221 1278.57,405.38 1311.06,416.882 1341.03,433.2 1369.78,446.491 1397.21,457.622 1418.65,472.122 1454.84,480.083 1481.15,493.676 1506.49,516.167 1536.39,543.127 1562.83,559.061 1587.56,569.255 1605.82,579.136 1614.64,571.363 1634.74,561.116 1661.41,547.33 1684.68,537.729 1713.8,526.327 1746.09,524.768 1781.59,533.793 1809.15,558.5 1816.74,579.943 1813.6,611.264 1796.59,643.464 1793.15,670.539 1785.61,702.833 1784.4,736.579 1800.05,767.055 1831.31,792.469 1870.8,791.072 1893.18,793.716 1923.34,800.773 1943.21,822.447 1968.2,848.138 1988.46,880.281 2000.93,912.761 2005.69,933.869 2020.8,917.406 2056.14,920.755 2082.52,927.696 2094.52,943.103 2095.71,946.483 2097.16,950.738 2101.89,967.106 2105.3,973.715 2117.95,977.331 2133.92,979.12 2161.7,974.006 2189.4,982.855 2203.13,995.282 2217.14,1017.21 2218.57,1029.66 2220.26,1019.11 2225.24,1001.67 2225.46,974.919 2215.77,948.784 2200.91,924.635 2189.77,902.315 2189.07,882.327 2162.3,859.824 2155.06,828.838 2160.37,803.919 2178.13,792.305 2198.82,794.488 2222.59,802.825 2238.5,815.085 2250.36,834.523 2275.75,857.525 2290.62,878.209 2282,905.381 2262.73,927.647 2245.22,947.49 2216.47,959.866 2196.86,978.531 2169.09,991.213 2142.75,1013.75 2123.69,1035.37 2112.9,1058.74 2094.69,1081.13 2077.84,1103.81 2052.09,1121.11 2026.26,1132.71 1994.84,1148.62 1969.91,1166.45 1941.15,1175.03 1912.82,1194.52 1897.72,1211.56 1865.01,1223.78 1846.48,1238.07 1828.87,1257.41 1810.38,1286 1803.37,1306.08 1797.95,1325.94 1792.43,1350.65 1814.69,1371.08 1823.6,1384.93 1816.29,1409.51 1808.28,1434.69 1789.93,1438.74 1767.08,1436.52 1745.64,1419.45 1732.77,1393.19 1719.3,1371.26 1695.24,1348.25 1658.08,1322.42 1626.84,1313.88 1591.89,1313.78 1555.72,1320.64 1514.62,1330.35 1487.75,1331.31 1454.4,1320.51 1427.76,1308.34 1407.89,1283.69 1405.94,1250.48 1401.48,1210.55 1381,1183.67 1360.5,1162.59 1364.97,1132.2 1363.09,1105.43 1356.12,1080.97 1344.56,1052.61 1325.63,1028.46 1320.08,1001.78 1325.18,968.261 1334.55,935.057 1352.22,905.786 1369.06,875.744 1381.57,843.413 1408.24,821.703 1404.05,793.706 1388.42,769.664 1359.66,746.704 1327.2,744.684 1306.73,731.438 1298.01,706.508 1294.44,673.622 1306.99,646.53 1320.77,625.122 1341.84,616.405 1374.19,604.948 1409.49,598.334 1450.27,594.718 1488.79,594.973 1517.11,587.465 1539.23,560.981 1557.15,539.975 1584.64,528.221 1606.74,521.599 1610.87,506.934 1596.93,493.256 1574.89,477.649 1549.87,465.745 1521.09,439.77 1499.53,413.362 1485.84,387.403 1469.4,367.293 1465.37,349.331 1472.53,328.592 1489.16,319.196 1505.99,328.097 1536.52,333.216 1576.6,335.622 1610.9,344.566 1650.86,350.294 1683.67,353.352 1713.8,368.32 1738.62,373.68 1764.62,367.258 1786.53,356.32 1817.57,351.219 1848.95,351.537 1879.52,346.841 1903.18,359.74 1914.16,376.299 1918.52,371.75 1928.16,355.859 1945.82,338.98 1963.72,327.955 1987.26,313.391 2006.44,304.605 1998.57,305.114 1976.92,293.01 1966.21,276.666 1954.49,248.068 1957.36,218.529 1968.29,202.852 1997.36,192.338 2030.12,193.725 2054.74,199.162 2088.46,203.421 2123.49,215.401 2145.62,238.147 2151.42,266.716 2144.31,293.464 2132.42,301.034 2136.62,318.402 2140.98,339.766 2136.61,371.486 2107.97,388.098 2089.33,422.367 2062.5,444.499 2039.77,470.575 2031.31,504.602 2007.36,513.087 1972.52,515.123 1937.3,527.29 1905.99,541.168 1888.8,567.513 1878.41,597.969 1878.62,614.376 1904.32,619.898 1933.37,632.657 1968.58,646.798 2001.17,669.962 2029.48,685.697 2068.57,690.418 2103.83,692.094 2143.07,688.224 2171.79,692.217 2197.01,690.672 2207.9,677.398 2220.63,658.027 2236.91,637.42 2236.02,612.074 2230.85,593.662 2220.69,569.967 2195.55,548.64 2174.95,530.521 2150.89,515.455 2109.78,516.155 2083.33,522.286 2059.63,541.016 2042.61,559.69 2017.97,583.752 2012.89,613.754 2018.41,646.219 2021.67,676.892 2039,702.634 2051.4,727.95 2063.96,761.083 2079.5,790.811 2110.09,803.407 2139.52,820.077 2166.39,847.876 2186.21,871.292 2200.78,903.056 2207.55,927.666 2204.71,938.937 2172.71,941.118 2135.67,953.569 2109.79,952.587 2094.72,958.386 2074.62,963.639 2052.99,959.152 2022.37,944.704 1991.86,937.114 1956.39,939.987 1912.64,951.982 1875.44,966.641 1837.27,967.604 1794.15,975.355 1757.01,976.042 1718.43,976.775 1686.57,971.245 1652.32,975.235 1620.1,970.376 1588.09,962.908 1553.85,932.005 1525.9,917.361 1488.36,909.245 1455.48,894.284 1426.26,878.484 1396.02,857.652 1368.88,849.56 1342.68,863.47 1318.74,879.902 1290.27,895.601 1252.51,912.617 1214.91,921.246 1185.28,916.867 1158.01,894.012 1141.47,869.614 1122.73,840.003 1097.92,815.097 1086.32,784.291 1081.62,756.092 1084.5,733.859 1072.81,704.371 1050.21,686.173 1021.58,674.942 1001.28,653.594 994.129,622.464 990.829,599.071 978.438,571.494 987.319,545.247 1008.58,517.535 1020.79,501.253 1033,495.201 1043.17,480.738 1048.06,464.274 1054.73,441.688 1060.99,418.352 1066.69,389.55 1077.87,356.53 1078.75,333.318 1058.5,314.53 1038.33,300.369 1010.89,300.045 982.951,308.487 956.162,305.494 924.994,291.497 888.26,276.761 865.062,269.258 843.056,265.862 827.605,248.776 826.713,227.053 841.668,208.949 863.251,190.411 885.84,173.383 928.348,161.323 958.62,149.772 992.625,143.482 1022.98,154.676 1050.13,161.966 1083.56,157.627 1118.17,151.218 1137.93,129.961 1153.48,111.597 1165.84,90.8673 "/>
<polyline clip-path="url(#clip691)" style="stroke:#ff0000; stroke-linecap:round; stroke-linejoin:round; stroke-width:4; stroke-opacity:1; fill:none" points="239.425,715.192 269.868,721.551 272.484,712.709 293.656,714.006 297.041,714.703 324.1,720.365 341.006,723.899 369.814,723.654 394.37,725.66 424.828,732.019 451.133,728.13 472.306,729.414 514.664,732.006 526.466,740.738 551.037,742.731 593.41,745.323 611.212,745.91 630.678,753.113 664.562,760.181 684.043,767.384 706.921,775.296 730.653,780.248 761.167,786.62 779.808,796.782 807.806,799.496 840.894,809.548 857.018,803.507 898.609,809.059 916.426,822.193 943.584,827.867 976.715,837.919 996.252,845.134 1023.44,850.808 1037.89,863.244 1055.76,876.39 1059.16,877.099 1091.45,877.564 1105.04,880.413 1129.7,882.419 1156.91,888.105 1181.61,902.694 1208,911.34 1225.86,911.939 1253.93,914.666 1289.66,915.84 1314.33,917.858 1348.39,924.975 1372.25,929.964 1396.92,931.97 1421.6,933.987 1458.17,932.214 1476.05,932.801 1504.97,932.569 1531.32,928.643 1561.89,922.48 1589.16,928.166 1615.5,924.253 1640.19,926.271 1657.94,914.287 1675.81,914.874 1692.72,905.861 1712.23,900.517 1736.1,905.507 1759.01,900.872 1779.48,905.14 1796.53,908.698 1819.61,916.647 1837.65,929.817 1859.92,940.737 1871.97,949.53 1888.4,968.656 1896.22,979.71 1903.23,993.737 1915.46,1015.15 1929.33,1030.62 1942.38,1049.07 1951.83,1054.2 1975.78,1059.21 1986.05,1061.35 1993.71,1059.8 2021.69,1049.92 2032.76,1049.07 2054.48,1022.17 2060.33,1013.95 2059.1,991.707 2063.11,976.849 2061.9,954.629 2043.01,944.418 2025.92,940.848 2003.62,929.927 1976.48,936.812 1955.99,932.544 1939.72,926.014 1922.66,922.456 1897.94,920.438 1880.24,932.434 1857.32,937.057 1844.65,943.831 1816.53,941.092 1791.81,939.087 1764.51,933.388 1746.48,920.218 1723.42,912.269 1688.35,895.54 1667.76,878.714 1647.19,861.887 1636.01,850.172 1624.85,838.445 1603.47,824.602 1590.55,806.271 1580.22,791.621 1574.12,774.721 1578.23,759.961 1596.75,745.079 1606.84,734.684 1629.7,730.086 1643.29,732.911 1672.14,732.679 1685.88,748.014 1706.3,752.269 1716.51,754.385 1743.74,760.059 1765.12,773.865 1770.31,781.19 1792.52,792.061 1811.34,802.236 1835.18,807.2 1853.84,804.828 1875.09,806.124 1899.58,795.595 1917.42,796.195 1931.06,799.032 1952.5,812.862 1967.13,825.287 1980.97,840.67 1987.98,854.635 1996.81,875.253 2005.64,895.883 2008.44,912.135 2006.22,933.608 2008.84,937.289 2015.07,954.275 2030.75,976.372 2033.57,992.66 2048.24,1005.15 2058.51,1007.3 2072.19,1010.15 2092.5,1001.82 2108.59,995.754 2117.83,988.258 2135.52,976.25 2140.54,971.028 2140.08,945.837 2125.39,933.364 2108.09,917.222 2097.64,902.523 2074.53,894.574 2046.41,891.847 2022.5,886.87 2012.27,884.73 1984.15,882.015 1967.09,878.457 1949.84,862.339 1936.19,859.502 1908.91,853.816 1897.06,857.607 1870.76,861.52 1852.73,848.374 1832.27,844.119 1813.6,846.479 1786.34,840.805 1773.51,835.008 1756.48,831.45 1731,832.404 1701.29,835.608 1677.58,843.177 1669,835.131 1668.86,822.584 1661.24,824.125 1650.2,824.956 1635.76,825.079 1628.95,823.66 1612.04,832.648 1599.37,839.398 1567.08,838.934 1551.81,842.003 1542.52,849.463 1535.83,860.603 1551.1,857.521 1569.77,855.149 1600.31,848.986 1609.45,828.98 1623.77,816.323 1627.87,801.539 1618.35,783.929 1602.04,764.914 1593.47,756.879 1582.21,732.691 1562.63,725.488 1540.7,739.661 1519.49,738.365 1488.89,731.994 1490.44,713.59 1485.19,693.792 1487.57,672.465 1491.68,657.742 1509.26,633.382 1514.2,615.736 1517.38,591.523 1498.69,581.422 1475.76,573.559 1468.98,572.153 1480.7,555.95 1505.15,545.495 1544.09,547.366 1581.14,530.233 1599.61,515.449 1617.13,491.187 1629.61,472.098 1649.81,463.893 1677.73,466.583 1701.45,471.487 1721.11,491.04 1749.99,503.22 1767.11,519.166 1775.82,539.576 1764.17,555.767 1744.92,573.498 1716.28,586.192 1682.48,591.609 1661.3,590.325 1623.02,573.058 1601.73,559.325 1593.07,538.903 1592.02,516.977 1610.48,502.205 1623.9,492.593 1649.93,476.305 1673.52,468.809 1696.16,451.823 1717.15,440.707 1734.89,441.282 1760.89,425.018 1760.74,412.63 1773.17,393.578 1784.94,389.836 1804.95,369.279 1793.83,357.723 1768.37,346.29 1784.33,340.346 1814.62,334.269 1840.88,342.768 1862,344.052 1889.07,349.64 1912.15,369.83 1911.52,385.128 1908.31,396.806 1883.17,410.135 1869.15,435.045 1854.32,462.902 1845.45,495.112 1849.02,508.246 1808.46,512.233 1789.24,529.952 1755.47,535.357 1725.22,553.896 1711.12,578.916 1692.66,593.724 1665.5,588.087 1643.38,577.289 1613.66,568.008 1602.54,556.39 1571.91,537.619 1569.34,533.987 1576.71,507.598 1603.69,500.799 1640.85,496.103 1664.57,501.019 1701.86,508.747 1726.56,523.165 1731.86,542.865 1747.35,564.694 1760.93,567.506 1791.49,573.841 1813.62,584.651 1820.42,586.057 1851.63,577.008 1875.24,569.487 1892.03,560.56 1912.4,564.779 1932.97,581.447 1928.15,599.081 1929.31,621.068 1912.05,657.913 1892,678.64 1869.34,695.736 1846.03,728.289 1847.98,747.402 1808.26,760.988 1785.4,765.598 1755.88,781.312 1730.56,794.788 1714.63,813.364 1697.88,834.898 1669.27,860.236 1646.36,864.859 1619.93,856.213 1596.09,851.236 1561.19,847.103 1534.79,838.457 1515.89,815.748 1503.01,797.417 1467.13,771.187 1456.84,756.549 1429.57,738.377 1408.34,737.081 1374.45,742.511 1360.86,739.674 1331.11,730.368 1328.41,701.704 1311.43,698.17 1285.17,702.071 1268.26,711.034 1241.22,730.38 1240.38,733.327 1203.08,738.047 1183.59,743.367 1157.27,734.746 1137.72,715.057 1115.64,704.211 1077.49,699.392 1047.81,690.086 1030.86,686.552 1008.82,675.718 986.768,652.422 989.313,643.593 999.451,620.774 1016.36,599.374 1026.48,576.592 1032.35,543.611 1038.24,523.092 1022.16,504.223 1005.25,500.713 994.261,489.12 998.47,474.483 1030.58,474.935 1068.6,479.729 1109.14,475.742 1135.32,471.866 1162.29,452.667 1187.53,426.938 1210.25,409.976 1240.61,403.899 1282.82,406.455 1311.59,418.598 1342.91,434.373 1371.71,446.528 1397.13,457.986 1418.35,471.682 1458.97,480.096 1480.2,493.804 1509.15,518.408 1540.69,546.669 1562.78,557.454 1584.9,568.252 1603.61,578.353 1612.85,570.942 1637.28,560.487 1666.74,544.871 1686.95,536.653 1718.95,524.681 1751.1,525.146 1787.62,535.81 1812.5,562.688 1815.25,578.769 1812.33,615.443 1792.42,648.631 1793.55,670.643 1783.81,706.008 1785.09,740.566 1802.42,769.145 1835.02,794.666 1872.32,789.934 1885.96,792.771 1923.44,800.56 1942.46,823.269 1970.93,851.089 1990.98,883.434 2000.81,913.675 2003.62,929.927 2017.88,917.234 2059.67,922.81 2083.59,927.787 2094.05,942.511 2096.67,946.191 2098.49,952.844 2103.94,972.801 2106.55,976.494 2123.66,980.053 2141.55,980.652 2172.91,971.493 2197.88,986.118 2205.76,997.185 2220.72,1022.29 2218.32,1031.22 2222.31,1016.34 2227.88,995.51 2224.77,966.626 2213.25,942.266 2197.51,920.193 2188.63,899.551 2189.99,881.049 2157.2,855.455 2154.94,823.721 2160.51,803.018 2177.35,794.03 2198.61,795.339 2225.11,803.96 2239.8,816.384 2252.1,837.686 2281.51,862.56 2291.2,880.218 2279.87,909.151 2259.85,930.037 2244.02,948.686 2211.89,960.805 2196.05,979.466 2167.33,992.306 2138.8,1017.77 2122.93,1036.45 2113.09,1059.56 2092.18,1083.52 2075.47,1105.23 2049.29,1121.82 2024.71,1132.45 1990.84,1150.59 1968.04,1167.92 1940.81,1174.86 1909.52,1196.73 1898.6,1210.26 1862.05,1224.74 1847.69,1237.55 1827.45,1258.63 1808.16,1289.44 1804.08,1304.43 1798.35,1325.44 1790.99,1352.46 1817.81,1373.99 1822.23,1384.45 1814.86,1411.52 1807.48,1438.62 1789.48,1438 1764.58,1435.96 1741.19,1415.12 1730.6,1387.44 1717.53,1368.8 1691.57,1344.28 1648.48,1316.17 1627.07,1314.85 1591.12,1313.65 1552.69,1321.44 1509.99,1331.53 1492.02,1330.92 1451.71,1319.28 1429.38,1308.22 1407.82,1281.48 1406.73,1246.37 1400.46,1203.87 1380.68,1183.9 1360.92,1163.94 1366.69,1130.38 1363.12,1104.37 1355.3,1080.65 1342.32,1049.55 1323.45,1026.69 1319.89,1000.76 1326.51,964.388 1335.68,931.737 1354.22,904.223 1370.19,873.052 1382.73,841.196 1409.77,821.789 1402.81,795.302 1388.2,770.368 1355.8,744.871 1326.96,745.115 1309.07,732.019 1298.75,704.895 1294.33,669.665 1308.6,644.596 1321.19,625.421 1341.46,617.179 1377.79,602.945 1415.01,598.237 1455.62,594.238 1491.18,595.412 1514.81,587.879 1540.8,559.105 1556.71,540.677 1585.35,528.008 1604.76,522.725 1608.84,508.063 1595.16,492.838 1571.33,475.51 1545.88,464.039 1515.19,432.917 1496.42,410.478 1485.26,386.534 1469.08,367.739 1466.42,351.756 1472.98,328.423 1489.77,319.57 1508.41,329.585 1543.02,333.657 1585.21,336.201 1614.83,345.409 1656.22,350.875 1684.09,353.553 1715.48,369.304 1735.79,373.498 1762.72,366.724 1787.06,356.329 1820.75,350.949 1852.81,351.401 1883.1,345.324 1903.59,361.893 1913.93,376.36 1918.92,371.224 1931.3,352.196 1950.44,334.575 1967.19,325.709 1993.08,309.494 2009.01,303.538 1998.06,304.357 1970.01,289.341 1963.85,272.697 1951.55,239.423 1958.75,213.254 1968.68,203.031 2000.51,191.169 2035.09,195.217 2055.36,199.399 2093.34,204.144 2128.95,217.607 2147.87,239.925 2150.92,268.21 2143.79,294.403 2135.45,298.842 2137.47,317.723 2141.29,343.147 2135.16,378.867 2103.28,390.79 2085.38,430.313 2059.46,446.577 2037.9,473.04 2031.72,508.906 2009.75,510.545 1969.21,514.544 1933.05,528.741 1904.46,541.422 1889.63,569.365 1877.35,600.976 1878.34,610.49 1904.71,619.075 1936.29,634.947 1975.5,649.304 2008.11,674.739 2030.34,685.574 2071.99,691.101 2104.22,691.566 2144.87,687.555 2168.7,692.508 2194.14,691.554 2204.92,678.237 2221.49,656.8 2238.02,635.363 2234.16,609.72 2231.3,593.614 2220.62,566.589 2190.59,544.871 2173.37,528.925 2148.57,514.495 2101.23,517.087 2085.25,523.079 2058.49,542.327 2042.72,560.756 2013.53,588.833 2013.13,616.702 2018.72,648.937 2021.72,677.564 2039.95,703.134 2051.37,727.31 2066.41,764.742 2080.48,792.624 2110.36,801.967 2141.29,820.884 2169.05,851.664 2185.54,870.741 2201.49,905.36 2206.97,925.293 2204.58,934.195 2170.62,939.661 2130.06,956.292 2109.54,952.012 2096.88,958.787 2073.96,963.422 2050.05,958.432 2014.87,941.679 1987.54,935.981 1950.16,940.737 1902.69,955.938 1870.52,968.056 1834.73,966.87 1788.87,976.139 1756.51,975.663 1716.49,976.739 1689.18,971.04 1651.77,975.785 1621.05,969.377 1586.93,962.248 1546.6,925.562 1526.97,918.322 1486.07,909.787 1454.49,893.779 1426.32,878.494 1393.02,855.87 1372.59,851.615 1343.78,864.406 1317.53,880.866 1287.86,896.641 1246.3,916.207 1212.3,921.661 1188.47,916.684 1156.08,891.077 1140.7,869.041 1121.08,836.72 1095.54,812.593 1086.15,782.45 1082.69,756.708 1085.19,735.345 1069.86,700.921 1048.65,687.139 1019.83,674.898 1001.17,652.3 992.683,619.368 990.963,600.328 978.265,569.671 989.242,543.966 1012.04,514.532 1018.79,503.514 1031.44,496.837 1043.26,480.67 1048.29,463.11 1055.86,436.794 1062.57,413.413 1067.58,383.501 1081,349.2 1078.44,333.217 1055.65,313.064 1037.93,300.139 1009.28,300.383 981.478,310.056 954.519,304.48 919.981,288.069 881.248,273.884 867.782,271.095 844.207,266.216 828.239,247.494 827.443,225.764 843.453,207.519 867.029,187.769 889.751,170.943 939.361,159.668 960.377,148.65 993.991,143.294 1022.59,155.351 1049.5,160.903 1086.49,156.244 1120.1,150.9 1136.85,129.793 1152.76,111.597 1166.13,89.8299 "/>
<polyline clip-path="url(#clip691)" style="stroke:#3da44d; stroke-linecap:round; stroke-linejoin:round; stroke-width:4; stroke-opacity:1; fill:none" points="250.056,721.699 261.937,718.445 277.677,716.667 293.49,717.017 310.239,717.845 330.782,721.428 349.968,723.281 373.905,723.565 397.012,724.668 421.448,726.972 447.974,729.773 475.309,732.033 502.645,735.934 529.384,737.41 554.742,737.975 582.369,742.885 608.768,747.865 634.165,755.277 660.803,761.084 685.771,765.454 709.412,771.862 732.766,778.955 758.243,786.153 785.215,791.943 810.848,799.656 837.363,806.346 862.588,810.769 890.236,814.901 918.166,821.294 943.031,828.673 968.718,837.117 992.525,844.504 1015.87,850.189 1035.73,859.284 1055.3,866.47 1072.86,874.924 1093.23,878.792 1113.88,882.715 1135.96,886.972 1160.12,893.494 1184.4,900.534 1209.32,904.758 1234.12,910.282 1259.98,914.669 1287.7,918.538 1316.37,919.451 1343.62,922.234 1370.28,927.318 1397.53,929.976 1424.93,931.13 1452.57,931.587 1479.62,929.476 1506.24,929.989 1533.19,927.845 1559.86,928.09 1584.58,926.884 1610.33,924.941 1632.93,924.645 1653.57,922.313 1674.17,918.094 1694.81,913.115 1714.88,909.078 1734.95,906.157 1755.57,905.413 1776.74,907.857 1796.87,912.37 1818.28,920.635 1836.26,931.228 1853.42,943.071 1869.36,955.039 1883.13,967.214 1896.9,980.81 1907.03,994.613 1919,1008.43 1929.91,1022.43 1941.75,1035.72 1956.5,1042.77 1970.85,1049.86 1985.03,1051.44 2000.97,1049.04 2016.31,1042.1 2030.6,1033.32 2042.44,1022.62 2049.51,1009.28 2054.7,996.459 2055.02,982.311 2049.37,967.032 2036.45,954.474 2018.91,944.353 1999.92,934.516 1979.96,929.233 1959.27,929.871 1939.16,929.956 1919.4,929.358 1899.57,929.935 1880.13,929.713 1859.4,930.995 1837.81,930.721 1813.88,932.233 1789.92,931.493 1766.95,928.43 1743.48,919.245 1719.37,908.986 1696.48,896.471 1675.06,882.621 1655.5,869.182 1639.9,853.234 1625.22,839.021 1614.1,823.59 1605.38,809.699 1598.04,795.84 1597.24,779.135 1599.84,764.57 1606.1,751.957 1617.97,742.683 1631.06,735.231 1650.53,733.328 1669.28,736.064 1688.06,740.401 1706.53,749.112 1724.68,756.541 1742.5,762.219 1760.83,771.237 1779.18,781.193 1796.22,789.082 1814.4,796.655 1834.68,801.595 1854.68,805.123 1875.47,806.635 1896.02,807.377 1916.93,809.264 1935.39,813.081 1952.45,820.224 1967.27,832.101 1980.39,844.14 1990.07,860.081 1997.84,876.539 2003.26,892.131 2009.16,907.559 2015.73,924.517 2021.13,940.555 2024.74,955.367 2032.3,969.262 2040.53,980.724 2051.19,988.557 2063.71,994.924 2076.89,999.481 2091.13,996.572 2103.55,992.29 2114.91,984.561 2124.02,974.258 2131.15,961.849 2132.77,945.807 2123.03,929.073 2108.68,914.914 2092.27,905.347 2071.98,897.103 2051.36,891.902 2030.02,884.132 2008.18,880.37 1987.58,877.528 1967.29,872.493 1949.16,866.579 1930.55,861.318 1911.13,856.426 1892.27,854.194 1871.98,850.835 1851.76,850.005 1830.89,847.052 1810.83,846.144 1788.92,842.299 1769.63,839.235 1750.94,835.002 1730.22,833.651 1710.27,832.276 1692,832.924 1676.91,832.243 1664.82,830.971 1654.6,829.327 1644.67,830.091 1633.94,831.093 1623.74,831.789 1608.51,833.416 1594.03,836.752 1578.52,840.65 1563.5,845.619 1551.86,848.895 1545.82,856.229 1561.98,851.233 1575.71,855.215 1594.39,847.848 1611.59,835.081 1626.27,820.651 1636.39,804.386 1621.64,787.031 1607.02,772.045 1598.04,756.574 1589.88,735.261 1568.71,728.007 1544.99,737.459 1515.59,738.679 1490.04,733.018 1482.33,712.736 1484.22,691.484 1491.69,670.63 1497.44,649.51 1511.26,632.391 1521.09,610.935 1519.76,591.25 1492.59,589.22 1470.06,582.219 1464.32,565.708 1486.27,550.959 1512.85,545.792 1539.35,537.301 1568.97,529.929 1597.51,520.061 1609.83,497.042 1626,475.936 1646.81,457.001 1677.12,456.27 1701.61,471.298 1722.94,489.029 1747.9,501.866 1772.04,515.279 1787.75,538.486 1765.31,556.622 1741.62,569.094 1716.44,581.458 1690.42,597.61 1658.31,593.517 1635.78,576.38 1610.67,566.879 1594.07,544.893 1589.63,520.123 1608.41,506.169 1628.75,493.777 1648.68,481.407 1673.75,472.278 1697.03,459.728 1713.73,446.841 1739.12,447.389 1754.48,428.903 1763.53,412.387 1776.87,398.786 1793.79,384.612 1801.01,365.978 1787.42,351.078 1762.08,347.91 1769.86,343.95 1788.08,343.727 1812.69,343.064 1836.51,341.693 1863.06,339.065 1887.45,348.336 1914.12,361.799 1914.7,382.971 1905.38,406.812 1886.11,414.9 1870.38,434.778 1853.57,456.225 1853.84,483.955 1844.13,507.998 1813.96,516.221 1785.48,528.44 1754.02,534.084 1730.83,552 1712.21,575.97 1689.64,592.444 1664.62,589.23 1643.48,574.758 1619.34,567.075 1597.2,556.814 1575.7,543.772 1563.99,522.348 1582.36,505.856 1605.96,502.928 1635.84,499.22 1664.62,496.828 1694.83,502.484 1717.49,518.945 1725.73,541.147 1737.83,562.107 1763.58,568.877 1785.74,582.545 1807.08,585.782 1826.55,588.902 1845.22,574.023 1870.35,570.513 1891.74,561.914 1915.32,567.734 1933.98,584.144 1925.41,603.315 1921.89,625.378 1909.11,650.599 1887.52,673.238 1865.56,694.373 1852.23,722.857 1838.86,745.277 1812.73,756.147 1787.01,764.858 1757.65,776.186 1736.18,798.212 1711.78,816.971 1698.32,840.402 1674.15,858.473 1646.28,863.947 1619.23,854.624 1591.38,849.15 1563.26,844.127 1535.3,837.783 1514.84,818.789 1500.25,795.867 1474.54,778.088 1463.79,755.945 1436.92,740.785 1409.8,743.453 1384.11,749.904 1355.92,743.825 1341.41,723.285 1332.54,704.851 1307.69,696.215 1282.25,701.096 1264.95,711.501 1252.4,727.781 1233.32,740.806 1206.96,741.481 1181,745.098 1157.52,733.02 1134.42,721.446 1111.37,708.114 1085.28,696.273 1058.23,695.58 1026.02,690.096 995.539,680.767 992.408,656.642 1000.58,637.83 1004.51,617.194 1018.37,597.842 1027.94,576.869 1036.8,554.082 1041.13,529.127 1022.78,513.478 997.738,508.619 988.269,488.236 1011.3,480.948 1039.15,478.614 1068.91,476.818 1100.28,475.563 1133,467.031 1163.36,450.669 1182.9,425.998 1210.68,411.646 1242.87,403.056 1277.76,409.269 1310.73,416.453 1338.28,430.244 1364.07,441.901 1392,449.622 1418.51,470.184 1453.05,478.135 1479.59,500.276 1503.33,521.996 1530.84,538.919 1558.23,545.961 1576.69,565.93 1600.62,578.839 1619.54,570.646 1643.12,560.034 1666.28,543.574 1692.46,534.072 1722.43,527.812 1755.78,524.204 1786.55,537.102 1808.45,554.012 1809.95,583.213 1808.3,613.478 1797.36,645.809 1788.3,677.14 1777.92,708.667 1789.29,738.374 1798.5,769.754 1828.3,790.021 1864.59,788.678 1895.86,785.022 1925.42,804.009 1949.33,824.421 1969.69,845.389 1985.55,873.503 1987.26,905.276 2004.74,925.756 2024.79,907.795 2054.43,914.404 2080.9,923.686 2098.94,937.405 2096.12,950.447 2103.43,955.863 2093.42,966.486 2104.54,978.011 2127.91,979.499 2150.8,977.792 2174.79,978.752 2194.14,991.337 2205.62,1006.87 2219.14,1019.13 2220.88,1028.44 2223.38,1009.88 2221.21,990.222 2225.37,967.245 2211.14,945.552 2197.68,923.994 2192.03,901.459 2184.82,875.869 2161.29,857.624 2152.79,831.207 2155.32,803.44 2174.33,787.85 2199.78,793.994 2227.86,803.89 2243.92,819.542 2257.59,841.241 2279.97,859.013 2281.89,882.419 2278.58,907.636 2261.19,932.235 2239.72,949.987 2215.78,963.079 2190.61,975.96 2164.34,992.526 2143.23,1012.89 2124.18,1034.97 2103.44,1056.28 2094.43,1085.02 2081.25,1110.19 2053.94,1128.45 2020.01,1128.28 1994.52,1148.04 1965.46,1162.39 1936.19,1173.82 1915.65,1191.84 1899.07,1218.06 1866.33,1220.12 1842.97,1237.55 1826.46,1258.88 1810.19,1281.33 1802.34,1303.23 1793.68,1325.49 1798.46,1348.65 1812.36,1369.68 1823.91,1391.22 1814.18,1413.34 1811.43,1435.38 1784.62,1445.72 1758.89,1437.22 1740.95,1414.29 1738.39,1385.83 1713.47,1364.3 1686.19,1343.83 1657.15,1322.13 1624.04,1305.62 1589.13,1312.28 1554.71,1323.7 1522.13,1334.36 1487.22,1336.21 1453.99,1323.58 1429.16,1304.35 1415.97,1277.52 1409.12,1247.67 1399.24,1218.08 1383.03,1189.03 1371.75,1162.31 1371.51,1134.74 1364.95,1107.33 1356.31,1079 1341.77,1049.63 1320.46,1025.23 1314.35,992.184 1324.97,960.064 1339.29,930.372 1355.43,903.017 1372.46,876.114 1384.14,847.146 1402.57,820.326 1403.56,789.696 1393.27,761.157 1362.2,748.975 1329.03,747.715 1303.13,730.838 1291.52,704.517 1297.44,677.963 1306.7,651.039 1322.46,628.592 1347.28,610.468 1379.61,599.526 1415.59,603.322 1447.75,600.274 1484.05,596.787 1509.95,583.065 1532.57,564.762 1558.31,548.576 1584.79,535.107 1606.78,525.01 1605.78,501.169 1594.74,482.652 1573.92,473.616 1544.38,459.495 1518.8,442.036 1500.83,417.789 1496.37,394.325 1476.21,375.489 1472.95,355.221 1465.13,335.979 1490.36,327.831 1515.65,337.383 1544.9,332.062 1579.57,338.374 1611.62,346.401 1645.02,349.345 1676.84,356.061 1708.01,363.286 1734.92,375.844 1762.76,368.467 1792.63,357.639 1817.22,348.848 1846.22,350.075 1876.87,350.609 1895.92,362.711 1912.86,374.886 1931.48,365.08 1937.73,349.998 1952.44,334.786 1968.55,319.783 1989.08,312.162 2001.82,302.295 1990.28,301.598 1966.93,288.761 1950.83,267.535 1948.2,240.354 1952.93,214.518 1970.13,190.673 2001.69,194.294 2030.9,197.73 2062.48,197.514 2093.69,202.153 2125.05,216.84 2150.63,234.048 2152.92,262.871 2146.44,286.56 2129.04,297.634 2132.51,323.475 2138.77,352.067 2138,380.93 2112.01,400.698 2090.6,425.191 2061.26,444.873 2043.5,470.879 2036.02,503.237 2006.34,521.79 1971.84,518.762 1937.06,527.21 1904.04,540.624 1884.75,564.504 1876.09,589.707 1883.56,611.333 1917.34,620.449 1949.32,636.538 1978.98,653.789 2006.31,669.083 2036.04,684.849 2067,691.211 2099.99,693.774 2132.77,692.125 2160.34,697.769 2190.07,703.236 2212.04,685.159 2222.57,660.051 2236.56,635.91 2240.29,609.623 2234.78,584.229 2217.34,563.25 2202.25,541.023 2173.72,524.597 2142.04,513.477 2106.24,511.373 2075.66,525.689 2056.35,547.917 2033.94,567.59 2013.75,592.275 2015.25,622.19 2020.27,650.311 2025.33,679.341 2037.9,705.98 2050.58,733.26 2063.15,761.431 2075.07,791.452 2103.04,807.151 2133.56,822.583 2158.34,844.463 2183.29,864.302 2197.29,890.331 2213.22,915.047 2199.59,935.77 2174.69,941.506 2146.74,952.04 2119.18,960.535 2098.83,967.841 2073.41,959.142 2046.61,951.161 2016.06,936.802 1979.66,934.796 1945.95,943.448 1908.4,952.973 1871.91,967.714 1832.35,962.759 1793.08,968.803 1758.47,978.094 1722.02,977.323 1691.79,973.608 1653.61,970.611 1618.81,966.54 1584.35,961.389 1555.27,939.208 1524.5,922.765 1490.2,915.999 1460.4,899.521 1432.68,884.721 1408.87,859.251 1373.23,851.501 1339.5,860.962 1312.57,883.016 1282.15,896.229 1252.51,917.372 1214.52,924.897 1183.92,911.985 1158.85,890.445 1139.16,866.812 1118.89,839.222 1091.75,818.454 1088.37,787.146 1087.87,758.41 1097.33,729.874 1076.48,702.904 1049.11,687.484 1019.06,675.343 1001.63,650.088 995.98,621.605 987.808,596.623 981.846,569.413 993.529,550.472 1001.61,526.955 1017.66,509.202 1027.05,492.77 1039.16,475.143 1053.49,457.503 1058.57,433.28 1069.27,408.875 1072.1,382.324 1078.84,358.131 1073.95,333.116 1062.62,309.809 1039.76,293.378 1012.24,299.454 982.358,305.364 954.027,297.292 926.656,288.491 897.592,281.723 868.243,276.782 842.793,269.103 823.007,249.773 826.428,222.407 844.422,200.487 870.167,186.497 898.893,174.93 926.165,157.42 957.003,147.47 987.592,144.447 1019.69,145.545 1047.44,162.331 1081.9,157.33 1114.9,153.73 1133.38,133.346 1154.73,111.633 1168.65,87.9763 "/>
<path clip-path="url(#clip690)" d="M250.367 1438.47 L793.155 1438.47 L793.155 1231.11 L250.367 1231.11  Z" fill="#ffffff" fill-rule="evenodd" fill-opacity="1"/>
<polyline clip-path="url(#clip690)" style="stroke:#000000; stroke-linecap:round; stroke-linejoin:round; stroke-width:4; stroke-opacity:1; fill:none" points="250.367,1438.47 793.155,1438.47 793.155,1231.11 250.367,1231.11 250.367,1438.47 "/>
<polyline clip-path="url(#clip690)" style="stroke:#0000ff; stroke-linecap:round; stroke-linejoin:round; stroke-width:4; stroke-opacity:1; fill:none" points="274.533,1282.95 419.525,1282.95 "/>
<path clip-path="url(#clip690)" d="M467.718 1286.21 L467.718 1288.29 L448.135 1288.29 Q448.413 1292.69 450.774 1295 Q453.158 1297.29 457.394 1297.29 Q459.848 1297.29 462.139 1296.69 Q464.454 1296.09 466.723 1294.89 L466.723 1298.91 Q464.431 1299.89 462.024 1300.4 Q459.616 1300.91 457.14 1300.91 Q450.936 1300.91 447.302 1297.29 Q443.691 1293.68 443.691 1287.53 Q443.691 1281.16 447.116 1277.43 Q450.565 1273.68 456.399 1273.68 Q461.63 1273.68 464.663 1277.06 Q467.718 1280.42 467.718 1286.21 M463.459 1284.96 Q463.413 1281.46 461.491 1279.38 Q459.593 1277.29 456.445 1277.29 Q452.88 1277.29 450.728 1279.31 Q448.598 1281.32 448.274 1284.98 L463.459 1284.96 Z" fill="#000000" fill-rule="nonzero" fill-opacity="1" /><path clip-path="url(#clip690)" d="M491.237 1275.07 L491.237 1279.1 Q489.431 1278.17 487.487 1277.71 Q485.542 1277.25 483.459 1277.25 Q480.288 1277.25 478.69 1278.22 Q477.116 1279.19 477.116 1281.14 Q477.116 1282.62 478.251 1283.48 Q479.385 1284.31 482.811 1285.07 L484.269 1285.4 Q488.806 1286.37 490.704 1288.15 Q492.625 1289.91 492.625 1293.08 Q492.625 1296.69 489.755 1298.8 Q486.908 1300.91 481.908 1300.91 Q479.825 1300.91 477.556 1300.49 Q475.311 1300.1 472.811 1299.29 L472.811 1294.89 Q475.172 1296.11 477.463 1296.74 Q479.755 1297.34 482 1297.34 Q485.01 1297.34 486.63 1296.32 Q488.25 1295.28 488.25 1293.41 Q488.25 1291.67 487.07 1290.74 Q485.912 1289.82 481.954 1288.96 L480.473 1288.61 Q476.514 1287.78 474.755 1286.07 Q472.996 1284.33 472.996 1281.32 Q472.996 1277.67 475.588 1275.67 Q478.181 1273.68 482.95 1273.68 Q485.311 1273.68 487.394 1274.03 Q489.477 1274.38 491.237 1275.07 Z" fill="#000000" fill-rule="nonzero" fill-opacity="1" /><path clip-path="url(#clip690)" d="M503.621 1266.95 L503.621 1274.31 L512.394 1274.31 L512.394 1277.62 L503.621 1277.62 L503.621 1291.69 Q503.621 1294.86 504.477 1295.77 Q505.357 1296.67 508.019 1296.67 L512.394 1296.67 L512.394 1300.23 L508.019 1300.23 Q503.088 1300.23 501.213 1298.41 Q499.338 1296.55 499.338 1291.69 L499.338 1277.62 L496.213 1277.62 L496.213 1274.31 L499.338 1274.31 L499.338 1266.95 L503.621 1266.95 Z" fill="#000000" fill-rule="nonzero" fill-opacity="1" /><path clip-path="url(#clip690)" d="M517.996 1274.31 L522.255 1274.31 L522.255 1300.23 L517.996 1300.23 L517.996 1274.31 M517.996 1264.22 L522.255 1264.22 L522.255 1269.61 L517.996 1269.61 L517.996 1264.22 Z" fill="#000000" fill-rule="nonzero" fill-opacity="1" /><path clip-path="url(#clip690)" d="M551.352 1279.29 Q552.949 1276.42 555.171 1275.05 Q557.394 1273.68 560.403 1273.68 Q564.454 1273.68 566.653 1276.53 Q568.852 1279.35 568.852 1284.59 L568.852 1300.23 L564.569 1300.23 L564.569 1284.73 Q564.569 1281 563.25 1279.19 Q561.931 1277.39 559.222 1277.39 Q555.912 1277.39 553.991 1279.59 Q552.07 1281.79 552.07 1285.58 L552.07 1300.23 L547.787 1300.23 L547.787 1284.73 Q547.787 1280.98 546.468 1279.19 Q545.148 1277.39 542.394 1277.39 Q539.13 1277.39 537.209 1279.61 Q535.287 1281.81 535.287 1285.58 L535.287 1300.23 L531.005 1300.23 L531.005 1274.31 L535.287 1274.31 L535.287 1278.34 Q536.746 1275.95 538.783 1274.82 Q540.82 1273.68 543.621 1273.68 Q546.445 1273.68 548.412 1275.12 Q550.403 1276.55 551.352 1279.29 Z" fill="#000000" fill-rule="nonzero" fill-opacity="1" /><path clip-path="url(#clip690)" d="M589.13 1287.2 Q583.968 1287.2 581.977 1288.38 Q579.986 1289.56 579.986 1292.41 Q579.986 1294.68 581.468 1296.02 Q582.972 1297.34 585.542 1297.34 Q589.083 1297.34 591.213 1294.84 Q593.366 1292.32 593.366 1288.15 L593.366 1287.2 L589.13 1287.2 M597.625 1285.44 L597.625 1300.23 L593.366 1300.23 L593.366 1296.3 Q591.907 1298.66 589.731 1299.79 Q587.555 1300.91 584.407 1300.91 Q580.426 1300.91 578.065 1298.68 Q575.727 1296.44 575.727 1292.69 Q575.727 1288.31 578.643 1286.09 Q581.583 1283.87 587.393 1283.87 L593.366 1283.87 L593.366 1283.45 Q593.366 1280.51 591.421 1278.92 Q589.5 1277.29 586.005 1277.29 Q583.782 1277.29 581.676 1277.83 Q579.569 1278.36 577.625 1279.42 L577.625 1275.49 Q579.963 1274.59 582.162 1274.15 Q584.361 1273.68 586.444 1273.68 Q592.069 1273.68 594.847 1276.6 Q597.625 1279.52 597.625 1285.44 Z" fill="#000000" fill-rule="nonzero" fill-opacity="1" /><path clip-path="url(#clip690)" d="M610.611 1266.95 L610.611 1274.31 L619.384 1274.31 L619.384 1277.62 L610.611 1277.62 L610.611 1291.69 Q610.611 1294.86 611.467 1295.77 Q612.347 1296.67 615.009 1296.67 L619.384 1296.67 L619.384 1300.23 L615.009 1300.23 Q610.078 1300.23 608.204 1298.41 Q606.329 1296.55 606.329 1291.69 L606.329 1277.62 L603.204 1277.62 L603.204 1274.31 L606.329 1274.31 L606.329 1266.95 L610.611 1266.95 Z" fill="#000000" fill-rule="nonzero" fill-opacity="1" /><path clip-path="url(#clip690)" d="M647.162 1286.21 L647.162 1288.29 L627.578 1288.29 Q627.856 1292.69 630.217 1295 Q632.602 1297.29 636.838 1297.29 Q639.291 1297.29 641.583 1296.69 Q643.898 1296.09 646.166 1294.89 L646.166 1298.91 Q643.875 1299.89 641.467 1300.4 Q639.06 1300.91 636.583 1300.91 Q630.379 1300.91 626.745 1297.29 Q623.134 1293.68 623.134 1287.53 Q623.134 1281.16 626.56 1277.43 Q630.009 1273.68 635.842 1273.68 Q641.074 1273.68 644.106 1277.06 Q647.162 1280.42 647.162 1286.21 M642.902 1284.96 Q642.856 1281.46 640.935 1279.38 Q639.037 1277.29 635.889 1277.29 Q632.324 1277.29 630.171 1279.31 Q628.041 1281.32 627.717 1284.98 L642.902 1284.96 Z" fill="#000000" fill-rule="nonzero" fill-opacity="1" /><polyline clip-path="url(#clip690)" style="stroke:#ff0000; stroke-linecap:round; stroke-linejoin:round; stroke-width:4; stroke-opacity:1; fill:none" points="274.533,1334.79 419.525,1334.79 "/>
<path clip-path="url(#clip690)" d="M464.038 1331.13 Q465.635 1328.26 467.857 1326.89 Q470.079 1325.52 473.088 1325.52 Q477.139 1325.52 479.338 1328.37 Q481.538 1331.19 481.538 1336.43 L481.538 1352.07 L477.255 1352.07 L477.255 1336.57 Q477.255 1332.84 475.936 1331.03 Q474.616 1329.23 471.908 1329.23 Q468.598 1329.23 466.676 1331.43 Q464.755 1333.63 464.755 1337.42 L464.755 1352.07 L460.473 1352.07 L460.473 1336.57 Q460.473 1332.82 459.153 1331.03 Q457.834 1329.23 455.079 1329.23 Q451.815 1329.23 449.894 1331.45 Q447.973 1333.65 447.973 1337.42 L447.973 1352.07 L443.691 1352.07 L443.691 1326.15 L447.973 1326.15 L447.973 1330.18 Q449.431 1327.79 451.468 1326.66 Q453.505 1325.52 456.306 1325.52 Q459.13 1325.52 461.098 1326.96 Q463.089 1328.39 464.038 1331.13 Z" fill="#000000" fill-rule="nonzero" fill-opacity="1" /><path clip-path="url(#clip690)" d="M512.209 1338.05 L512.209 1340.13 L492.625 1340.13 Q492.903 1344.53 495.264 1346.84 Q497.649 1349.13 501.885 1349.13 Q504.338 1349.13 506.63 1348.53 Q508.945 1347.93 511.213 1346.73 L511.213 1350.75 Q508.922 1351.73 506.514 1352.24 Q504.107 1352.75 501.63 1352.75 Q495.426 1352.75 491.792 1349.13 Q488.181 1345.52 488.181 1339.37 Q488.181 1333 491.607 1329.27 Q495.056 1325.52 500.889 1325.52 Q506.121 1325.52 509.153 1328.9 Q512.209 1332.26 512.209 1338.05 M507.949 1336.8 Q507.903 1333.3 505.982 1331.22 Q504.084 1329.13 500.936 1329.13 Q497.371 1329.13 495.218 1331.15 Q493.088 1333.16 492.764 1336.82 L507.949 1336.8 Z" fill="#000000" fill-rule="nonzero" fill-opacity="1" /><path clip-path="url(#clip690)" d="M530.982 1339.04 Q525.82 1339.04 523.829 1340.22 Q521.838 1341.4 521.838 1344.25 Q521.838 1346.52 523.32 1347.86 Q524.824 1349.18 527.394 1349.18 Q530.935 1349.18 533.065 1346.68 Q535.218 1344.16 535.218 1339.99 L535.218 1339.04 L530.982 1339.04 M539.477 1337.28 L539.477 1352.07 L535.218 1352.07 L535.218 1348.14 Q533.759 1350.5 531.584 1351.63 Q529.408 1352.75 526.26 1352.75 Q522.278 1352.75 519.917 1350.52 Q517.579 1348.28 517.579 1344.53 Q517.579 1340.15 520.496 1337.93 Q523.435 1335.71 529.246 1335.71 L535.218 1335.71 L535.218 1335.29 Q535.218 1332.35 533.273 1330.76 Q531.352 1329.13 527.857 1329.13 Q525.635 1329.13 523.528 1329.67 Q521.422 1330.2 519.477 1331.26 L519.477 1327.33 Q521.815 1326.43 524.014 1325.99 Q526.213 1325.52 528.297 1325.52 Q533.922 1325.52 536.699 1328.44 Q539.477 1331.36 539.477 1337.28 Z" fill="#000000" fill-rule="nonzero" fill-opacity="1" /><path clip-path="url(#clip690)" d="M564.778 1326.91 L564.778 1330.94 Q562.972 1330.01 561.028 1329.55 Q559.083 1329.09 557 1329.09 Q553.829 1329.09 552.232 1330.06 Q550.658 1331.03 550.658 1332.98 Q550.658 1334.46 551.792 1335.32 Q552.926 1336.15 556.352 1336.91 L557.81 1337.24 Q562.347 1338.21 564.245 1339.99 Q566.167 1341.75 566.167 1344.92 Q566.167 1348.53 563.296 1350.64 Q560.449 1352.75 555.449 1352.75 Q553.366 1352.75 551.097 1352.33 Q548.852 1351.94 546.352 1351.13 L546.352 1346.73 Q548.713 1347.95 551.005 1348.58 Q553.296 1349.18 555.542 1349.18 Q558.551 1349.18 560.171 1348.16 Q561.792 1347.12 561.792 1345.25 Q561.792 1343.51 560.611 1342.58 Q559.454 1341.66 555.495 1340.8 L554.014 1340.45 Q550.056 1339.62 548.296 1337.91 Q546.537 1336.17 546.537 1333.16 Q546.537 1329.51 549.13 1327.51 Q551.722 1325.52 556.491 1325.52 Q558.852 1325.52 560.935 1325.87 Q563.019 1326.22 564.778 1326.91 Z" fill="#000000" fill-rule="nonzero" fill-opacity="1" /><path clip-path="url(#clip690)" d="M572.509 1341.84 L572.509 1326.15 L576.768 1326.15 L576.768 1341.68 Q576.768 1345.36 578.204 1347.21 Q579.639 1349.04 582.509 1349.04 Q585.958 1349.04 587.949 1346.84 Q589.963 1344.64 589.963 1340.85 L589.963 1326.15 L594.222 1326.15 L594.222 1352.07 L589.963 1352.07 L589.963 1348.09 Q588.412 1350.45 586.352 1351.61 Q584.315 1352.75 581.606 1352.75 Q577.139 1352.75 574.824 1349.97 Q572.509 1347.19 572.509 1341.84 M583.227 1325.52 L583.227 1325.52 Z" fill="#000000" fill-rule="nonzero" fill-opacity="1" /><path clip-path="url(#clip690)" d="M618.018 1330.13 Q617.301 1329.71 616.444 1329.53 Q615.611 1329.32 614.592 1329.32 Q610.981 1329.32 609.037 1331.68 Q607.116 1334.02 607.116 1338.42 L607.116 1352.07 L602.833 1352.07 L602.833 1326.15 L607.116 1326.15 L607.116 1330.18 Q608.458 1327.82 610.611 1326.68 Q612.764 1325.52 615.842 1325.52 Q616.282 1325.52 616.815 1325.59 Q617.347 1325.64 617.995 1325.76 L618.018 1330.13 Z" fill="#000000" fill-rule="nonzero" fill-opacity="1" /><path clip-path="url(#clip690)" d="M643.62 1338.05 L643.62 1340.13 L624.037 1340.13 Q624.315 1344.53 626.676 1346.84 Q629.06 1349.13 633.296 1349.13 Q635.75 1349.13 638.041 1348.53 Q640.356 1347.93 642.625 1346.73 L642.625 1350.75 Q640.333 1351.73 637.926 1352.24 Q635.518 1352.75 633.041 1352.75 Q626.838 1352.75 623.203 1349.13 Q619.592 1345.52 619.592 1339.37 Q619.592 1333 623.018 1329.27 Q626.467 1325.52 632.301 1325.52 Q637.532 1325.52 640.564 1328.9 Q643.62 1332.26 643.62 1338.05 M639.361 1336.8 Q639.314 1333.3 637.393 1331.22 Q635.495 1329.13 632.347 1329.13 Q628.782 1329.13 626.629 1331.15 Q624.5 1333.16 624.176 1336.82 L639.361 1336.8 Z" fill="#000000" fill-rule="nonzero" fill-opacity="1" /><path clip-path="url(#clip690)" d="M670.796 1331.13 Q672.393 1328.26 674.615 1326.89 Q676.837 1325.52 679.847 1325.52 Q683.898 1325.52 686.097 1328.37 Q688.296 1331.19 688.296 1336.43 L688.296 1352.07 L684.013 1352.07 L684.013 1336.57 Q684.013 1332.84 682.694 1331.03 Q681.374 1329.23 678.666 1329.23 Q675.356 1329.23 673.435 1331.43 Q671.513 1333.63 671.513 1337.42 L671.513 1352.07 L667.231 1352.07 L667.231 1336.57 Q667.231 1332.82 665.912 1331.03 Q664.592 1329.23 661.837 1329.23 Q658.574 1329.23 656.652 1331.45 Q654.731 1333.65 654.731 1337.42 L654.731 1352.07 L650.449 1352.07 L650.449 1326.15 L654.731 1326.15 L654.731 1330.18 Q656.189 1327.79 658.226 1326.66 Q660.263 1325.52 663.064 1325.52 Q665.888 1325.52 667.856 1326.96 Q669.847 1328.39 670.796 1331.13 Z" fill="#000000" fill-rule="nonzero" fill-opacity="1" /><path clip-path="url(#clip690)" d="M718.967 1338.05 L718.967 1340.13 L699.384 1340.13 Q699.661 1344.53 702.022 1346.84 Q704.407 1349.13 708.643 1349.13 Q711.096 1349.13 713.388 1348.53 Q715.703 1347.93 717.971 1346.73 L717.971 1350.75 Q715.68 1351.73 713.272 1352.24 Q710.865 1352.75 708.388 1352.75 Q702.184 1352.75 698.55 1349.13 Q694.939 1345.52 694.939 1339.37 Q694.939 1333 698.365 1329.27 Q701.814 1325.52 707.647 1325.52 Q712.879 1325.52 715.911 1328.9 Q718.967 1332.26 718.967 1338.05 M714.708 1336.8 Q714.661 1333.3 712.74 1331.22 Q710.842 1329.13 707.694 1329.13 Q704.129 1329.13 701.976 1331.15 Q699.847 1333.16 699.522 1336.82 L714.708 1336.8 Z" fill="#000000" fill-rule="nonzero" fill-opacity="1" /><path clip-path="url(#clip690)" d="M747.508 1336.43 L747.508 1352.07 L743.249 1352.07 L743.249 1336.57 Q743.249 1332.88 741.814 1331.06 Q740.379 1329.23 737.508 1329.23 Q734.059 1329.23 732.069 1331.43 Q730.078 1333.63 730.078 1337.42 L730.078 1352.07 L725.795 1352.07 L725.795 1326.15 L730.078 1326.15 L730.078 1330.18 Q731.606 1327.84 733.666 1326.68 Q735.749 1325.52 738.457 1325.52 Q742.925 1325.52 745.217 1328.3 Q747.508 1331.06 747.508 1336.43 Z" fill="#000000" fill-rule="nonzero" fill-opacity="1" /><path clip-path="url(#clip690)" d="M760.217 1318.79 L760.217 1326.15 L768.99 1326.15 L768.99 1329.46 L760.217 1329.46 L760.217 1343.53 Q760.217 1346.7 761.073 1347.61 Q761.953 1348.51 764.615 1348.51 L768.99 1348.51 L768.99 1352.07 L764.615 1352.07 Q759.684 1352.07 757.809 1350.25 Q755.934 1348.39 755.934 1343.53 L755.934 1329.46 L752.809 1329.46 L752.809 1326.15 L755.934 1326.15 L755.934 1318.79 L760.217 1318.79 Z" fill="#000000" fill-rule="nonzero" fill-opacity="1" /><polyline clip-path="url(#clip690)" style="stroke:#3da44d; stroke-linecap:round; stroke-linejoin:round; stroke-width:4; stroke-opacity:1; fill:none" points="274.533,1386.63 419.525,1386.63 "/>
<path clip-path="url(#clip690)" d="M468.343 1377.99 L458.968 1390.6 L468.829 1403.91 L463.806 1403.91 L456.26 1393.73 L448.714 1403.91 L443.691 1403.91 L453.76 1390.35 L444.547 1377.99 L449.57 1377.99 L456.445 1387.22 L463.32 1377.99 L468.343 1377.99 Z" fill="#000000" fill-rule="nonzero" fill-opacity="1" /><path clip-path="url(#clip690)" d="M491.375 1378.75 L491.375 1382.78 Q489.57 1381.85 487.625 1381.39 Q485.681 1380.93 483.598 1380.93 Q480.426 1380.93 478.829 1381.9 Q477.255 1382.87 477.255 1384.82 Q477.255 1386.3 478.389 1387.16 Q479.524 1387.99 482.95 1388.75 L484.408 1389.08 Q488.945 1390.05 490.843 1391.83 Q492.764 1393.59 492.764 1396.76 Q492.764 1400.37 489.894 1402.48 Q487.047 1404.59 482.047 1404.59 Q479.963 1404.59 477.695 1404.17 Q475.45 1403.78 472.95 1402.97 L472.95 1398.57 Q475.311 1399.79 477.602 1400.42 Q479.894 1401.02 482.139 1401.02 Q485.149 1401.02 486.769 1400 Q488.389 1398.96 488.389 1397.09 Q488.389 1395.35 487.209 1394.42 Q486.051 1393.5 482.093 1392.64 L480.612 1392.29 Q476.653 1391.46 474.894 1389.75 Q473.135 1388.01 473.135 1385 Q473.135 1381.35 475.727 1379.35 Q478.32 1377.36 483.088 1377.36 Q485.45 1377.36 487.533 1377.71 Q489.616 1378.06 491.375 1378.75 Z" fill="#000000" fill-rule="nonzero" fill-opacity="1" /></svg>
