<?xml version="1.0" encoding="utf-8"?>
<svg xmlns="http://www.w3.org/2000/svg" xmlns:xlink="http://www.w3.org/1999/xlink" width="600" height="400" viewBox="0 0 2400 1600">
<defs>
  <clipPath id="clip570">
    <rect x="0" y="0" width="2400" height="1600"/>
  </clipPath>
</defs>
<path clip-path="url(#clip570)" d="M0 1600 L2400 1600 L2400 0 L0 0  Z" fill="#ffffff" fill-rule="evenodd" fill-opacity="1"/>
<defs>
  <clipPath id="clip571">
    <rect x="147" y="47" width="2206" height="1440"/>
  </clipPath>
</defs>
<path clip-path="url(#clip570)" d="M147.478 1486.45 L2352.76 1486.45 L2352.76 47.2441 L147.478 47.2441  Z" fill="#ffffff" fill-rule="evenodd" fill-opacity="1"/>
<polyline clip-path="url(#clip571)" style="stroke:#000000; stroke-linecap:round; stroke-linejoin:round; stroke-width:2; stroke-opacity:0.1; fill:none" points="183.557,1486.45 183.557,47.2441 "/>
<polyline clip-path="url(#clip571)" style="stroke:#000000; stroke-linecap:round; stroke-linejoin:round; stroke-width:2; stroke-opacity:0.1; fill:none" points="710.253,1486.45 710.253,47.2441 "/>
<polyline clip-path="url(#clip571)" style="stroke:#000000; stroke-linecap:round; stroke-linejoin:round; stroke-width:2; stroke-opacity:0.1; fill:none" points="1236.95,1486.45 1236.95,47.2441 "/>
<polyline clip-path="url(#clip571)" style="stroke:#000000; stroke-linecap:round; stroke-linejoin:round; stroke-width:2; stroke-opacity:0.1; fill:none" points="1763.65,1486.45 1763.65,47.2441 "/>
<polyline clip-path="url(#clip571)" style="stroke:#000000; stroke-linecap:round; stroke-linejoin:round; stroke-width:2; stroke-opacity:0.1; fill:none" points="2290.34,1486.45 2290.34,47.2441 "/>
<polyline clip-path="url(#clip571)" style="stroke:#000000; stroke-linecap:round; stroke-linejoin:round; stroke-width:2; stroke-opacity:0.1; fill:none" points="147.478,1473.39 2352.76,1473.39 "/>
<polyline clip-path="url(#clip571)" style="stroke:#000000; stroke-linecap:round; stroke-linejoin:round; stroke-width:2; stroke-opacity:0.1; fill:none" points="147.478,1095.58 2352.76,1095.58 "/>
<polyline clip-path="url(#clip571)" style="stroke:#000000; stroke-linecap:round; stroke-linejoin:round; stroke-width:2; stroke-opacity:0.1; fill:none" points="147.478,717.766 2352.76,717.766 "/>
<polyline clip-path="url(#clip571)" style="stroke:#000000; stroke-linecap:round; stroke-linejoin:round; stroke-width:2; stroke-opacity:0.1; fill:none" points="147.478,339.952 2352.76,339.952 "/>
<polyline clip-path="url(#clip570)" style="stroke:#000000; stroke-linecap:round; stroke-linejoin:round; stroke-width:4; stroke-opacity:1; fill:none" points="147.478,1486.45 2352.76,1486.45 "/>
<polyline clip-path="url(#clip570)" style="stroke:#000000; stroke-linecap:round; stroke-linejoin:round; stroke-width:4; stroke-opacity:1; fill:none" points="183.557,1486.45 183.557,1467.55 "/>
<polyline clip-path="url(#clip570)" style="stroke:#000000; stroke-linecap:round; stroke-linejoin:round; stroke-width:4; stroke-opacity:1; fill:none" points="710.253,1486.45 710.253,1467.55 "/>
<polyline clip-path="url(#clip570)" style="stroke:#000000; stroke-linecap:round; stroke-linejoin:round; stroke-width:4; stroke-opacity:1; fill:none" points="1236.95,1486.45 1236.95,1467.55 "/>
<polyline clip-path="url(#clip570)" style="stroke:#000000; stroke-linecap:round; stroke-linejoin:round; stroke-width:4; stroke-opacity:1; fill:none" points="1763.65,1486.45 1763.65,1467.55 "/>
<polyline clip-path="url(#clip570)" style="stroke:#000000; stroke-linecap:round; stroke-linejoin:round; stroke-width:4; stroke-opacity:1; fill:none" points="2290.34,1486.45 2290.34,1467.55 "/>
<path clip-path="url(#clip570)" d="M183.557 1517.37 Q179.946 1517.37 178.117 1520.93 Q176.311 1524.47 176.311 1531.6 Q176.311 1538.71 178.117 1542.27 Q179.946 1545.82 183.557 1545.82 Q187.191 1545.82 188.996 1542.27 Q190.825 1538.71 190.825 1531.6 Q190.825 1524.47 188.996 1520.93 Q187.191 1517.37 183.557 1517.37 M183.557 1513.66 Q189.367 1513.66 192.422 1518.27 Q195.501 1522.85 195.501 1531.6 Q195.501 1540.33 192.422 1544.94 Q189.367 1549.52 183.557 1549.52 Q177.746 1549.52 174.668 1544.94 Q171.612 1540.33 171.612 1531.6 Q171.612 1522.85 174.668 1518.27 Q177.746 1513.66 183.557 1513.66 Z" fill="#000000" fill-rule="nonzero" fill-opacity="1" /><path clip-path="url(#clip570)" d="M689.026 1544.91 L705.346 1544.91 L705.346 1548.85 L683.401 1548.85 L683.401 1544.91 Q686.063 1542.16 690.647 1537.53 Q695.253 1532.88 696.434 1531.53 Q698.679 1529.01 699.559 1527.27 Q700.461 1525.51 700.461 1523.82 Q700.461 1521.07 698.517 1519.33 Q696.596 1517.6 693.494 1517.6 Q691.295 1517.6 688.841 1518.36 Q686.411 1519.13 683.633 1520.68 L683.633 1515.95 Q686.457 1514.82 688.911 1514.24 Q691.364 1513.66 693.401 1513.66 Q698.772 1513.66 701.966 1516.35 Q705.16 1519.03 705.16 1523.52 Q705.16 1525.65 704.35 1527.57 Q703.563 1529.47 701.457 1532.07 Q700.878 1532.74 697.776 1535.95 Q694.674 1539.15 689.026 1544.91 Z" fill="#000000" fill-rule="nonzero" fill-opacity="1" /><path clip-path="url(#clip570)" d="M725.16 1517.37 Q721.549 1517.37 719.721 1520.93 Q717.915 1524.47 717.915 1531.6 Q717.915 1538.71 719.721 1542.27 Q721.549 1545.82 725.16 1545.82 Q728.795 1545.82 730.6 1542.27 Q732.429 1538.71 732.429 1531.6 Q732.429 1524.47 730.6 1520.93 Q728.795 1517.37 725.16 1517.37 M725.16 1513.66 Q730.971 1513.66 734.026 1518.27 Q737.105 1522.85 737.105 1531.6 Q737.105 1540.33 734.026 1544.94 Q730.971 1549.52 725.16 1549.52 Q719.35 1549.52 716.272 1544.94 Q713.216 1540.33 713.216 1531.6 Q713.216 1522.85 716.272 1518.27 Q719.35 1513.66 725.16 1513.66 Z" fill="#000000" fill-rule="nonzero" fill-opacity="1" /><path clip-path="url(#clip570)" d="M1225.12 1518.36 L1213.32 1536.81 L1225.12 1536.81 L1225.12 1518.36 M1223.89 1514.29 L1229.77 1514.29 L1229.77 1536.81 L1234.7 1536.81 L1234.7 1540.7 L1229.77 1540.7 L1229.77 1548.85 L1225.12 1548.85 L1225.12 1540.7 L1209.52 1540.7 L1209.52 1536.19 L1223.89 1514.29 Z" fill="#000000" fill-rule="nonzero" fill-opacity="1" /><path clip-path="url(#clip570)" d="M1252.44 1517.37 Q1248.82 1517.37 1247 1520.93 Q1245.19 1524.47 1245.19 1531.6 Q1245.19 1538.71 1247 1542.27 Q1248.82 1545.82 1252.44 1545.82 Q1256.07 1545.82 1257.88 1542.27 Q1259.7 1538.71 1259.7 1531.6 Q1259.7 1524.47 1257.88 1520.93 Q1256.07 1517.37 1252.44 1517.37 M1252.44 1513.66 Q1258.25 1513.66 1261.3 1518.27 Q1264.38 1522.85 1264.38 1531.6 Q1264.38 1540.33 1261.3 1544.94 Q1258.25 1549.52 1252.44 1549.52 Q1246.63 1549.52 1243.55 1544.94 Q1240.49 1540.33 1240.49 1531.6 Q1240.49 1522.85 1243.55 1518.27 Q1246.63 1513.66 1252.44 1513.66 Z" fill="#000000" fill-rule="nonzero" fill-opacity="1" /><path clip-path="url(#clip570)" d="M1749.05 1529.7 Q1745.9 1529.7 1744.05 1531.86 Q1742.22 1534.01 1742.22 1537.76 Q1742.22 1541.49 1744.05 1543.66 Q1745.9 1545.82 1749.05 1545.82 Q1752.2 1545.82 1754.03 1543.66 Q1755.88 1541.49 1755.88 1537.76 Q1755.88 1534.01 1754.03 1531.86 Q1752.2 1529.7 1749.05 1529.7 M1758.33 1515.05 L1758.33 1519.31 Q1756.57 1518.48 1754.77 1518.04 Q1752.99 1517.6 1751.23 1517.6 Q1746.6 1517.6 1744.14 1520.72 Q1741.71 1523.85 1741.37 1530.17 Q1742.73 1528.15 1744.79 1527.09 Q1746.85 1526 1749.33 1526 Q1754.54 1526 1757.55 1529.17 Q1760.58 1532.32 1760.58 1537.76 Q1760.58 1543.08 1757.43 1546.3 Q1754.28 1549.52 1749.05 1549.52 Q1743.06 1549.52 1739.88 1544.94 Q1736.71 1540.33 1736.71 1531.6 Q1736.71 1523.41 1740.6 1518.55 Q1744.49 1513.66 1751.04 1513.66 Q1752.8 1513.66 1754.58 1514.01 Q1756.39 1514.36 1758.33 1515.05 Z" fill="#000000" fill-rule="nonzero" fill-opacity="1" /><path clip-path="url(#clip570)" d="M1778.63 1517.37 Q1775.02 1517.37 1773.19 1520.93 Q1771.39 1524.47 1771.39 1531.6 Q1771.39 1538.71 1773.19 1542.27 Q1775.02 1545.82 1778.63 1545.82 Q1782.27 1545.82 1784.07 1542.27 Q1785.9 1538.71 1785.9 1531.6 Q1785.9 1524.47 1784.07 1520.93 Q1782.27 1517.37 1778.63 1517.37 M1778.63 1513.66 Q1784.44 1513.66 1787.5 1518.27 Q1790.58 1522.85 1790.58 1531.6 Q1790.58 1540.33 1787.5 1544.94 Q1784.44 1549.52 1778.63 1549.52 Q1772.82 1549.52 1769.75 1544.94 Q1766.69 1540.33 1766.69 1531.6 Q1766.69 1522.85 1769.75 1518.27 Q1772.82 1513.66 1778.63 1513.66 Z" fill="#000000" fill-rule="nonzero" fill-opacity="1" /><path clip-path="url(#clip570)" d="M2275.22 1532.44 Q2271.88 1532.44 2269.96 1534.22 Q2268.06 1536 2268.06 1539.13 Q2268.06 1542.25 2269.96 1544.03 Q2271.88 1545.82 2275.22 1545.82 Q2278.55 1545.82 2280.47 1544.03 Q2282.39 1542.23 2282.39 1539.13 Q2282.39 1536 2280.47 1534.22 Q2278.57 1532.44 2275.22 1532.44 M2270.54 1530.45 Q2267.53 1529.7 2265.84 1527.64 Q2264.17 1525.58 2264.17 1522.62 Q2264.17 1518.48 2267.11 1516.07 Q2270.08 1513.66 2275.22 1513.66 Q2280.38 1513.66 2283.32 1516.07 Q2286.26 1518.48 2286.26 1522.62 Q2286.26 1525.58 2284.57 1527.64 Q2282.9 1529.7 2279.91 1530.45 Q2283.29 1531.23 2285.17 1533.52 Q2287.07 1535.82 2287.07 1539.13 Q2287.07 1544.15 2283.99 1546.83 Q2280.93 1549.52 2275.22 1549.52 Q2269.5 1549.52 2266.42 1546.83 Q2263.36 1544.15 2263.36 1539.13 Q2263.36 1535.82 2265.26 1533.52 Q2267.16 1531.23 2270.54 1530.45 M2268.83 1523.06 Q2268.83 1525.75 2270.49 1527.25 Q2272.18 1528.76 2275.22 1528.76 Q2278.22 1528.76 2279.91 1527.25 Q2281.63 1525.75 2281.63 1523.06 Q2281.63 1520.38 2279.91 1518.87 Q2278.22 1517.37 2275.22 1517.37 Q2272.18 1517.37 2270.49 1518.87 Q2268.83 1520.38 2268.83 1523.06 Z" fill="#000000" fill-rule="nonzero" fill-opacity="1" /><path clip-path="url(#clip570)" d="M2305.38 1517.37 Q2301.77 1517.37 2299.94 1520.93 Q2298.13 1524.47 2298.13 1531.6 Q2298.13 1538.71 2299.94 1542.27 Q2301.77 1545.82 2305.38 1545.82 Q2309.01 1545.82 2310.82 1542.27 Q2312.65 1538.71 2312.65 1531.6 Q2312.65 1524.47 2310.82 1520.93 Q2309.01 1517.37 2305.38 1517.37 M2305.38 1513.66 Q2311.19 1513.66 2314.24 1518.27 Q2317.32 1522.85 2317.32 1531.6 Q2317.32 1540.33 2314.24 1544.94 Q2311.19 1549.52 2305.38 1549.52 Q2299.57 1549.52 2296.49 1544.94 Q2293.43 1540.33 2293.43 1531.6 Q2293.43 1522.85 2296.49 1518.27 Q2299.57 1513.66 2305.38 1513.66 Z" fill="#000000" fill-rule="nonzero" fill-opacity="1" /><polyline clip-path="url(#clip570)" style="stroke:#000000; stroke-linecap:round; stroke-linejoin:round; stroke-width:4; stroke-opacity:1; fill:none" points="147.478,1486.45 147.478,47.2441 "/>
<polyline clip-path="url(#clip570)" style="stroke:#000000; stroke-linecap:round; stroke-linejoin:round; stroke-width:4; stroke-opacity:1; fill:none" points="147.478,1473.39 166.376,1473.39 "/>
<polyline clip-path="url(#clip570)" style="stroke:#000000; stroke-linecap:round; stroke-linejoin:round; stroke-width:4; stroke-opacity:1; fill:none" points="147.478,1095.58 166.376,1095.58 "/>
<polyline clip-path="url(#clip570)" style="stroke:#000000; stroke-linecap:round; stroke-linejoin:round; stroke-width:4; stroke-opacity:1; fill:none" points="147.478,717.766 166.376,717.766 "/>
<polyline clip-path="url(#clip570)" style="stroke:#000000; stroke-linecap:round; stroke-linejoin:round; stroke-width:4; stroke-opacity:1; fill:none" points="147.478,339.952 166.376,339.952 "/>
<path clip-path="url(#clip570)" d="M51.3625 1473.85 L81.0383 1473.85 L81.0383 1477.78 L51.3625 1477.78 L51.3625 1473.85 Z" fill="#000000" fill-rule="nonzero" fill-opacity="1" /><path clip-path="url(#clip570)" d="M95.1586 1486.74 L111.478 1486.74 L111.478 1490.67 L89.5336 1490.67 L89.5336 1486.74 Q92.1956 1483.98 96.7789 1479.35 Q101.385 1474.7 102.566 1473.36 Q104.811 1470.84 105.691 1469.1 Q106.594 1467.34 106.594 1465.65 Q106.594 1462.9 104.649 1461.16 Q102.728 1459.42 99.6261 1459.42 Q97.4271 1459.42 94.9734 1460.19 Q92.5428 1460.95 89.7651 1462.5 L89.7651 1457.78 Q92.5891 1456.65 95.0428 1456.07 Q97.4965 1455.49 99.5335 1455.49 Q104.904 1455.49 108.098 1458.17 Q111.293 1460.86 111.293 1465.35 Q111.293 1467.48 110.483 1469.4 Q109.696 1471.3 107.589 1473.89 Q107.01 1474.56 103.909 1477.78 Q100.807 1480.97 95.1586 1486.74 Z" fill="#000000" fill-rule="nonzero" fill-opacity="1" /><path clip-path="url(#clip570)" d="M50.9921 1096.03 L80.6679 1096.03 L80.6679 1099.97 L50.9921 1099.97 L50.9921 1096.03 Z" fill="#000000" fill-rule="nonzero" fill-opacity="1" /><path clip-path="url(#clip570)" d="M91.5706 1108.92 L99.2095 1108.92 L99.2095 1082.56 L90.8993 1084.23 L90.8993 1079.97 L99.1632 1078.3 L103.839 1078.3 L103.839 1108.92 L111.478 1108.92 L111.478 1112.86 L91.5706 1112.86 L91.5706 1108.92 Z" fill="#000000" fill-rule="nonzero" fill-opacity="1" /><path clip-path="url(#clip570)" d="M99.5335 703.564 Q95.9224 703.564 94.0937 707.129 Q92.2882 710.671 92.2882 717.8 Q92.2882 724.907 94.0937 728.472 Q95.9224 732.013 99.5335 732.013 Q103.168 732.013 104.973 728.472 Q106.802 724.907 106.802 717.8 Q106.802 710.671 104.973 707.129 Q103.168 703.564 99.5335 703.564 M99.5335 699.861 Q105.344 699.861 108.399 704.467 Q111.478 709.05 111.478 717.8 Q111.478 726.527 108.399 731.134 Q105.344 735.717 99.5335 735.717 Q93.7234 735.717 90.6447 731.134 Q87.5892 726.527 87.5892 717.8 Q87.5892 709.05 90.6447 704.467 Q93.7234 699.861 99.5335 699.861 Z" fill="#000000" fill-rule="nonzero" fill-opacity="1" /><path clip-path="url(#clip570)" d="M91.5706 353.296 L99.2095 353.296 L99.2095 326.931 L90.8993 328.597 L90.8993 324.338 L99.1632 322.672 L103.839 322.672 L103.839 353.296 L111.478 353.296 L111.478 357.232 L91.5706 357.232 L91.5706 353.296 Z" fill="#000000" fill-rule="nonzero" fill-opacity="1" /><path clip-path="url(#clip571)" d="M209.891 661.133 L236.226 625.208 L262.561 570.527 L288.896 640.339 L315.231 584.249 L341.566 554.07 L367.9 563.493 L394.235 585.561 L420.57 594.413 L446.905 571.288 L473.24 616.722 L499.574 587.46 L525.909 606.574 L552.244 606.256 L578.579 566.509 L604.914 581.512 L631.249 522.401 L657.583 520.383 L683.918 496.693 L710.253 507.64 L736.588 473.317 L762.923 533.971 L789.258 624.051 L815.592 712.725 L841.927 723.653 L868.262 789.446 L894.597 830.53 L920.932 923.722 L947.266 926.802 L973.601 947.707 L999.936 957.333 L1026.27 1002.96 L1052.61 995.574 L1078.94 1052.22 L1105.28 1073.42 L1131.61 1158.37 L1157.95 1089.71 L1184.28 1111.96 L1210.61 1102.62 L1236.95 1097.11 L1263.28 1044.52 L1289.62 1011.3 L1315.95 998.442 L1342.29 922.593 L1368.62 834.354 L1394.96 806.181 L1421.29 874.53 L1447.63 899.697 L1473.96 895.003 L1500.3 889.135 L1526.63 928.635 L1552.97 920.862 L1579.3 883.978 L1605.64 838.379 L1631.97 831.017 L1658.31 854.889 L1684.64 891.678 L1710.98 950.325 L1737.31 1030.2 L1763.65 1070.13 L1789.98 1043.31 L1816.32 1028.78 L1842.65 1054.58 L1868.99 1060.89 L1895.32 1096.25 L1921.65 1175.96 L1947.99 1281.77 L1974.32 1275.01 L2000.66 1320.9 L2026.99 1336.33 L2053.33 1348.06 L2079.66 1385.58 L2106 1437.18 L2132.33 1445.72 L2158.67 1370.63 L2185 1340.13 L2211.34 1346.75 L2237.67 1311.63 L2264.01 1179.57 L2290.34 1155.69 L2290.34 638.415 L2264.01 661.864 L2237.67 829.072 L2211.34 872.839 L2185 859.027 L2158.67 895.328 L2132.33 996.687 L2106 977.267 L2079.66 980.284 L2053.33 960.225 L2026.99 949.884 L2000.66 960.105 L1974.32 937.558 L1947.99 946.654 L1921.65 862.511 L1895.32 794.364 L1868.99 764.112 L1842.65 760.074 L1816.32 725.002 L1789.98 736.617 L1763.65 735.684 L1737.31 724.237 L1710.98 655.136 L1684.64 636.022 L1658.31 593.688 L1631.97 588.011 L1605.64 607.088 L1579.3 626.52 L1552.97 680.406 L1526.63 711.536 L1500.3 713.344 L1473.96 694.168 L1447.63 679.024 L1421.29 662.449 L1394.96 624.951 L1368.62 619.973 L1342.29 680.83 L1315.95 764.822 L1289.62 773.228 L1263.28 784.209 L1236.95 832.645 L1210.61 819.803 L1184.28 808.866 L1157.95 776.42 L1131.61 820.344 L1105.28 715.916 L1078.94 685.819 L1052.61 618.96 L1026.27 607.549 L999.936 548.4 L973.601 537.48 L947.266 534.296 L920.932 520.101 L894.597 423.203 L868.262 384.429 L841.927 332.711 L815.592 342.322 L789.258 269.743 L762.923 185.042 L736.588 131.37 L710.253 191.344 L683.918 209.333 L657.583 254.309 L631.249 241.523 L604.914 268.46 L578.579 243.183 L552.244 288.604 L525.909 250.289 L499.574 246.286 L473.24 281.662 L446.905 233.826 L420.57 249.775 L394.235 228.377 L367.9 207.584 L341.566 189.147 L315.231 216.364 L288.896 219.269 L262.561 132.128 L236.226 176.425 L209.891 177.973  Z" fill="#009af9" fill-rule="evenodd" fill-opacity="0.5"/>
<polyline clip-path="url(#clip571)" style="stroke:#009af9; stroke-linecap:round; stroke-linejoin:round; stroke-width:4; stroke-opacity:1; fill:none" points="209.891,419.553 236.226,400.816 262.561,351.328 288.896,429.804 315.231,400.307 341.566,371.609 367.9,385.539 394.235,406.969 420.57,422.094 446.905,402.557 473.24,449.192 499.574,416.873 525.909,428.431 552.244,447.43 578.579,404.846 604.914,424.986 631.249,381.962 657.583,387.346 683.918,353.013 710.253,349.492 736.588,302.344 762.923,359.507 789.258,446.897 815.592,527.523 841.927,528.182 868.262,586.937 894.597,626.867 920.932,721.912 947.266,730.549 973.601,742.594 999.936,752.867 1026.27,805.256 1052.61,807.267 1078.94,869.018 1105.28,894.666 1131.61,989.359 1157.95,933.063 1184.28,960.415 1210.61,961.212 1236.95,964.875 1263.28,914.362 1289.62,892.264 1315.95,881.632 1342.29,801.712 1368.62,727.163 1394.96,715.566 1421.29,768.489 1447.63,789.36 1473.96,794.586 1500.3,801.24 1526.63,820.086 1552.97,800.634 1579.3,755.249 1605.64,722.733 1631.97,709.514 1658.31,724.289 1684.64,763.85 1710.98,802.73 1737.31,877.219 1763.65,902.905 1789.98,889.966 1816.32,876.89 1842.65,907.325 1868.99,912.501 1895.32,945.306 1921.65,1019.23 1947.99,1114.21 1974.32,1106.28 2000.66,1140.5 2026.99,1143.11 2053.33,1154.14 2079.66,1182.93 2106,1207.22 2132.33,1221.2 2158.67,1132.98 2185,1099.58 2211.34,1109.8 2237.67,1070.35 2264.01,920.719 2290.34,897.051 "/>
<path clip-path="url(#clip571)" d="M209.891 1098.63 L236.226 1019.65 L262.561 987.246 L288.896 967.989 L315.231 948.304 L341.566 897.767 L367.9 876.075 L394.235 837.742 L420.57 818.077 L446.905 792.199 L473.24 808.292 L499.574 810.282 L525.909 801.764 L552.244 767.044 L578.579 760.867 L604.914 723.781 L631.249 665.396 L657.583 609.657 L683.918 559.689 L710.253 507.172 L736.588 453.494 L762.923 396.959 L789.258 358.41 L815.592 296.468 L841.927 267.05 L868.262 240.367 L894.597 260.741 L920.932 279.005 L947.266 317.206 L973.601 363.843 L999.936 412.647 L1026.27 406.429 L1052.61 422.551 L1078.94 434.82 L1105.28 464.413 L1131.61 493.977 L1157.95 540.295 L1184.28 606.961 L1210.61 662.116 L1236.95 723.687 L1263.28 794.141 L1289.62 812.561 L1315.95 850.436 L1342.29 863.197 L1368.62 861.883 L1394.96 778.372 L1421.29 757.583 L1447.63 739.223 L1473.96 715.107 L1500.3 707.342 L1526.63 699.516 L1552.97 693.269 L1579.3 654.985 L1605.64 614.759 L1631.97 582.866 L1658.31 535.339 L1684.64 539.682 L1710.98 529.226 L1737.31 517.736 L1763.65 517.322 L1789.98 553.321 L1816.32 539.525 L1842.65 537.219 L1868.99 581.945 L1895.32 627.201 L1921.65 656.851 L1947.99 685.609 L1974.32 721.291 L2000.66 759.619 L2026.99 797.286 L2053.33 830.326 L2079.66 883.339 L2106 913.203 L2132.33 936.645 L2158.67 956.835 L2185 997.115 L2211.34 1037.44 L2237.67 1069.58 L2264.01 1101.98 L2290.34 1111.54 L2290.34 911.543 L2264.01 923.269 L2237.67 914.784 L2211.34 880.375 L2185 847.882 L2158.67 800.463 L2132.33 754.022 L2106 732.668 L2079.66 715.383 L2053.33 682.59 L2026.99 643.4 L2000.66 609.365 L1974.32 564.281 L1947.99 521.663 L1921.65 502.689 L1895.32 454.92 L1868.99 415.557 L1842.65 373.404 L1816.32 376.253 L1789.98 388.578 L1763.65 356.084 L1737.31 342.698 L1710.98 371.884 L1684.64 361.966 L1658.31 399.389 L1631.97 414.956 L1605.64 451.305 L1579.3 502.868 L1552.97 534.577 L1526.63 526.228 L1500.3 540.174 L1473.96 539.929 L1447.63 581.148 L1421.29 621.875 L1394.96 683.931 L1368.62 709.908 L1342.29 726.689 L1315.95 693.22 L1289.62 669.111 L1263.28 641.285 L1236.95 590.454 L1210.61 519.442 L1184.28 453.661 L1157.95 387.367 L1131.61 327.824 L1105.28 291.899 L1078.94 282.446 L1052.61 266.087 L1026.27 258.98 L999.936 256.633 L973.601 207.066 L947.266 158.043 L920.932 137.285 L894.597 114.016 L868.262 87.9763 L841.927 119.267 L815.592 136.621 L789.258 185.633 L762.923 254.623 L736.588 304.562 L710.253 366.114 L683.918 411.036 L657.583 464.455 L631.249 507.993 L604.914 564.692 L578.579 600.195 L552.244 637.765 L525.909 637.712 L499.574 650.228 L473.24 657.794 L446.905 663.902 L420.57 689.393 L394.235 682.416 L367.9 726.931 L341.566 744.402 L315.231 769.579 L288.896 798.743 L262.561 825.146 L236.226 875.027 L209.891 923.386  Z" fill="#e26f46" fill-rule="evenodd" fill-opacity="0.5"/>
<polyline clip-path="url(#clip571)" style="stroke:#e26f46; stroke-linecap:round; stroke-linejoin:round; stroke-width:4; stroke-opacity:1; fill:none" points="209.891,1011.01 236.226,947.337 262.561,906.196 288.896,883.366 315.231,858.941 341.566,821.085 367.9,801.503 394.235,760.079 420.57,753.735 446.905,728.05 473.24,733.043 499.574,730.255 525.909,719.738 552.244,702.404 578.579,680.531 604.914,644.237 631.249,586.695 657.583,537.056 683.918,485.362 710.253,436.643 736.588,379.028 762.923,325.791 789.258,272.022 815.592,216.544 841.927,193.158 868.262,164.171 894.597,187.378 920.932,208.145 947.266,237.625 973.601,285.454 999.936,334.64 1026.27,332.704 1052.61,344.319 1078.94,358.633 1105.28,378.156 1131.61,410.9 1157.95,463.831 1184.28,530.311 1210.61,590.779 1236.95,657.071 1263.28,717.713 1289.62,740.836 1315.95,771.828 1342.29,794.943 1368.62,785.895 1394.96,731.152 1421.29,689.729 1447.63,660.186 1473.96,627.518 1500.3,623.758 1526.63,612.872 1552.97,613.923 1579.3,578.927 1605.64,533.032 1631.97,498.911 1658.31,467.364 1684.64,450.824 1710.98,450.555 1737.31,430.217 1763.65,436.703 1789.98,470.949 1816.32,457.889 1842.65,455.311 1868.99,498.751 1895.32,541.061 1921.65,579.77 1947.99,603.636 1974.32,642.786 2000.66,684.492 2026.99,720.343 2053.33,756.458 2079.66,799.361 2106,822.935 2132.33,845.334 2158.67,878.649 2185,922.499 2211.34,958.905 2237.67,992.182 2264.01,1012.62 2290.34,1011.54 "/>
<polyline clip-path="url(#clip571)" style="stroke:#3da44d; stroke-linecap:round; stroke-linejoin:round; stroke-width:4; stroke-opacity:1; fill:none" stroke-dasharray="16, 10" points="209.891,646.008 236.226,604.038 262.561,514.758 288.896,594.08 315.231,554.741 341.566,473.191 367.9,485.912 394.235,431.164 420.57,406.734 446.905,394.732 473.24,369.093 499.574,293.279 525.909,279.894 552.244,309.33 578.579,292.082 604.914,326.8 631.249,299.711 657.583,301.08 683.918,285.779 710.253,265.243 736.588,196.523 762.923,259.128 789.258,406.208 815.592,491.265 841.927,497.089 868.262,537.109 894.597,584.722 920.932,678.944 947.266,738.285 973.601,798.482 999.936,852.751 1026.27,865.241 1052.61,842.591 1078.94,915.014 1105.28,922.013 1131.61,1036.47 1157.95,978.357 1184.28,1095.5 1210.61,1053.28 1236.95,986.153 1263.28,833.857 1289.62,847.338 1315.95,748.495 1342.29,628.36 1368.62,589.171 1394.96,566.699 1421.29,587.221 1447.63,657.919 1473.96,630.748 1500.3,607.688 1526.63,699.65 1552.97,618.138 1579.3,687.986 1605.64,636.506 1631.97,616.849 1658.31,698.764 1684.64,751.12 1710.98,780.211 1737.31,875.582 1763.65,909.553 1789.98,940.393 1816.32,931.433 1842.65,1022.93 1868.99,953.363 1895.32,978.468 1921.65,1043.5 1947.99,1157.97 1974.32,1192.02 2000.66,1200.41 2026.99,1175.08 2053.33,1196.39 2079.66,1181.58 2106,1197.62 2132.33,1227.88 2158.67,1138.36 2185,1134.96 2211.34,1182.13 2237.67,1142.71 2264.01,943.7 2290.34,883.845 "/>
<polyline clip-path="url(#clip571)" style="stroke:#c271d2; stroke-linecap:round; stroke-linejoin:round; stroke-width:4; stroke-opacity:1; fill:none" stroke-dasharray="16, 10" points="209.891,1021.84 236.226,994.339 262.561,953.827 288.896,930.076 315.231,904.094 341.566,880.538 367.9,893.952 394.235,838.949 420.57,861.191 446.905,789.972 473.24,800.404 499.574,751.506 525.909,758.52 552.244,713.224 578.579,691.517 604.914,647.895 631.249,595.527 657.583,549.451 683.918,493.932 710.253,438.089 736.588,367.704 762.923,285.265 789.258,249.098 815.592,146.304 841.927,161.108 868.262,194.571 894.597,159.936 920.932,197.301 947.266,279.308 973.601,250.035 999.936,340.112 1026.27,403.474 1052.61,368.63 1078.94,349.223 1105.28,363.223 1131.61,342.679 1157.95,465.543 1184.28,486.241 1210.61,538.772 1236.95,653.893 1263.28,734.472 1289.62,753.498 1315.95,838.49 1342.29,798.994 1368.62,781.106 1394.96,686.045 1421.29,635.231 1447.63,651.268 1473.96,610.762 1500.3,601.76 1526.63,601.757 1552.97,610.192 1579.3,593.74 1605.64,526.441 1631.97,513.832 1658.31,426.634 1684.64,438.929 1710.98,393.502 1737.31,417.244 1763.65,452.549 1789.98,455.671 1816.32,400.791 1842.65,477.293 1868.99,536.407 1895.32,596.579 1921.65,589.613 1947.99,597.979 1974.32,657.453 2000.66,721.263 2026.99,760.874 2053.33,790.047 2079.66,842.812 2106,804.631 2132.33,780.249 2158.67,897.6 2185,974.861 2211.34,998.877 2237.67,1029.68 2264.01,1026.92 2290.34,1020.62 "/>
<path clip-path="url(#clip570)" d="M220.987 1438.47 L681.282 1438.47 L681.282 1179.27 L220.987 1179.27  Z" fill="#ffffff" fill-rule="evenodd" fill-opacity="1"/>
<polyline clip-path="url(#clip570)" style="stroke:#000000; stroke-linecap:round; stroke-linejoin:round; stroke-width:4; stroke-opacity:1; fill:none" points="220.987,1438.47 681.282,1438.47 681.282,1179.27 220.987,1179.27 220.987,1438.47 "/>
<polyline clip-path="url(#clip570)" style="stroke:#009af9; stroke-linecap:round; stroke-linejoin:round; stroke-width:4; stroke-opacity:1; fill:none" points="245.49,1231.11 392.509,1231.11 "/>
<path clip-path="url(#clip570)" d="M421.688 1217.68 L421.688 1230.66 L427.567 1230.66 Q430.831 1230.66 432.614 1228.97 Q434.396 1227.28 434.396 1224.16 Q434.396 1221.06 432.614 1219.37 Q430.831 1217.68 427.567 1217.68 L421.688 1217.68 M417.012 1213.83 L427.567 1213.83 Q433.378 1213.83 436.34 1216.47 Q439.327 1219.09 439.327 1224.16 Q439.327 1229.27 436.34 1231.89 Q433.378 1234.51 427.567 1234.51 L421.688 1234.51 L421.688 1248.39 L417.012 1248.39 L417.012 1213.83 Z" fill="#000000" fill-rule="nonzero" fill-opacity="1" /><path clip-path="url(#clip570)" d="M445.6 1213.83 L465.461 1213.83 L465.461 1217.77 L450.276 1217.77 L450.276 1227.95 L463.979 1227.95 L463.979 1231.89 L450.276 1231.89 L450.276 1248.39 L445.6 1248.39 L445.6 1213.83 Z" fill="#000000" fill-rule="nonzero" fill-opacity="1" /><path clip-path="url(#clip570)" d="M504.28 1223.23 L504.28 1227.26 Q502.474 1226.33 500.53 1225.87 Q498.586 1225.41 496.502 1225.41 Q493.331 1225.41 491.734 1226.38 Q490.16 1227.35 490.16 1229.3 Q490.16 1230.78 491.294 1231.64 Q492.428 1232.47 495.854 1233.23 L497.312 1233.56 Q501.849 1234.53 503.748 1236.31 Q505.669 1238.07 505.669 1241.24 Q505.669 1244.85 502.798 1246.96 Q499.951 1249.07 494.951 1249.07 Q492.868 1249.07 490.599 1248.65 Q488.354 1248.26 485.854 1247.45 L485.854 1243.05 Q488.215 1244.27 490.507 1244.9 Q492.799 1245.5 495.044 1245.5 Q498.053 1245.5 499.673 1244.48 Q501.294 1243.44 501.294 1241.57 Q501.294 1239.83 500.113 1238.9 Q498.956 1237.98 494.998 1237.12 L493.516 1236.77 Q489.558 1235.94 487.799 1234.23 Q486.039 1232.49 486.039 1229.48 Q486.039 1225.83 488.632 1223.83 Q491.224 1221.84 495.993 1221.84 Q498.354 1221.84 500.437 1222.19 Q502.521 1222.54 504.28 1223.23 Z" fill="#000000" fill-rule="nonzero" fill-opacity="1" /><path clip-path="url(#clip570)" d="M532.636 1227.45 Q534.233 1224.58 536.456 1223.21 Q538.678 1221.84 541.687 1221.84 Q545.738 1221.84 547.937 1224.69 Q550.136 1227.51 550.136 1232.75 L550.136 1248.39 L545.854 1248.39 L545.854 1232.89 Q545.854 1229.16 544.534 1227.35 Q543.215 1225.55 540.507 1225.55 Q537.196 1225.55 535.275 1227.75 Q533.354 1229.95 533.354 1233.74 L533.354 1248.39 L529.071 1248.39 L529.071 1232.89 Q529.071 1229.14 527.752 1227.35 Q526.433 1225.55 523.678 1225.55 Q520.414 1225.55 518.493 1227.77 Q516.572 1229.97 516.572 1233.74 L516.572 1248.39 L512.289 1248.39 L512.289 1222.47 L516.572 1222.47 L516.572 1226.5 Q518.03 1224.11 520.067 1222.98 Q522.104 1221.84 524.905 1221.84 Q527.729 1221.84 529.696 1223.28 Q531.687 1224.71 532.636 1227.45 Z" fill="#000000" fill-rule="nonzero" fill-opacity="1" /><path clip-path="url(#clip570)" d="M568.678 1225.45 Q565.252 1225.45 563.261 1228.14 Q561.27 1230.8 561.27 1235.45 Q561.27 1240.11 563.238 1242.79 Q565.229 1245.45 568.678 1245.45 Q572.081 1245.45 574.071 1242.77 Q576.062 1240.08 576.062 1235.45 Q576.062 1230.85 574.071 1228.16 Q572.081 1225.45 568.678 1225.45 M568.678 1221.84 Q574.233 1221.84 577.405 1225.45 Q580.576 1229.07 580.576 1235.45 Q580.576 1241.82 577.405 1245.45 Q574.233 1249.07 568.678 1249.07 Q563.099 1249.07 559.928 1245.45 Q556.78 1241.82 556.78 1235.45 Q556.78 1229.07 559.928 1225.45 Q563.099 1221.84 568.678 1221.84 Z" fill="#000000" fill-rule="nonzero" fill-opacity="1" /><path clip-path="url(#clip570)" d="M597.682 1225.45 Q594.256 1225.45 592.266 1228.14 Q590.275 1230.8 590.275 1235.45 Q590.275 1240.11 592.242 1242.79 Q594.233 1245.45 597.682 1245.45 Q601.085 1245.45 603.076 1242.77 Q605.066 1240.08 605.066 1235.45 Q605.066 1230.85 603.076 1228.16 Q601.085 1225.45 597.682 1225.45 M597.682 1221.84 Q603.238 1221.84 606.409 1225.45 Q609.58 1229.07 609.58 1235.45 Q609.58 1241.82 606.409 1245.45 Q603.238 1249.07 597.682 1249.07 Q592.104 1249.07 588.932 1245.45 Q585.784 1241.82 585.784 1235.45 Q585.784 1229.07 588.932 1225.45 Q592.104 1221.84 597.682 1221.84 Z" fill="#000000" fill-rule="nonzero" fill-opacity="1" /><path clip-path="url(#clip570)" d="M620.853 1215.11 L620.853 1222.47 L629.626 1222.47 L629.626 1225.78 L620.853 1225.78 L620.853 1239.85 Q620.853 1243.02 621.71 1243.93 Q622.589 1244.83 625.252 1244.83 L629.626 1244.83 L629.626 1248.39 L625.252 1248.39 Q620.321 1248.39 618.446 1246.57 Q616.571 1244.71 616.571 1239.85 L616.571 1225.78 L613.446 1225.78 L613.446 1222.47 L616.571 1222.47 L616.571 1215.11 L620.853 1215.11 Z" fill="#000000" fill-rule="nonzero" fill-opacity="1" /><path clip-path="url(#clip570)" d="M656.779 1232.75 L656.779 1248.39 L652.52 1248.39 L652.52 1232.89 Q652.52 1229.2 651.085 1227.38 Q649.65 1225.55 646.779 1225.55 Q643.33 1225.55 641.339 1227.75 Q639.349 1229.95 639.349 1233.74 L639.349 1248.39 L635.066 1248.39 L635.066 1212.38 L639.349 1212.38 L639.349 1226.5 Q640.876 1224.16 642.937 1223 Q645.02 1221.84 647.728 1221.84 Q652.196 1221.84 654.487 1224.62 Q656.779 1227.38 656.779 1232.75 Z" fill="#000000" fill-rule="nonzero" fill-opacity="1" /><polyline clip-path="url(#clip570)" style="stroke:#e26f46; stroke-linecap:round; stroke-linejoin:round; stroke-width:4; stroke-opacity:1; fill:none" points="245.49,1282.95 392.509,1282.95 "/>
<path clip-path="url(#clip570)" d="M421.688 1269.52 L421.688 1282.5 L427.567 1282.5 Q430.831 1282.5 432.614 1280.81 Q434.396 1279.12 434.396 1276 Q434.396 1272.9 432.614 1271.21 Q430.831 1269.52 427.567 1269.52 L421.688 1269.52 M417.012 1265.67 L427.567 1265.67 Q433.378 1265.67 436.34 1268.31 Q439.327 1270.93 439.327 1276 Q439.327 1281.11 436.34 1283.73 Q433.378 1286.35 427.567 1286.35 L421.688 1286.35 L421.688 1300.23 L417.012 1300.23 L417.012 1265.67 Z" fill="#000000" fill-rule="nonzero" fill-opacity="1" /><path clip-path="url(#clip570)" d="M445.6 1265.67 L465.461 1265.67 L465.461 1269.61 L450.276 1269.61 L450.276 1279.79 L463.979 1279.79 L463.979 1283.73 L450.276 1283.73 L450.276 1300.23 L445.6 1300.23 L445.6 1265.67 Z" fill="#000000" fill-rule="nonzero" fill-opacity="1" /><path clip-path="url(#clip570)" d="M504.28 1275.07 L504.28 1279.1 Q502.474 1278.17 500.53 1277.71 Q498.586 1277.25 496.502 1277.25 Q493.331 1277.25 491.734 1278.22 Q490.16 1279.19 490.16 1281.14 Q490.16 1282.62 491.294 1283.48 Q492.428 1284.31 495.854 1285.07 L497.312 1285.4 Q501.849 1286.37 503.748 1288.15 Q505.669 1289.91 505.669 1293.08 Q505.669 1296.69 502.798 1298.8 Q499.951 1300.91 494.951 1300.91 Q492.868 1300.91 490.599 1300.49 Q488.354 1300.1 485.854 1299.29 L485.854 1294.89 Q488.215 1296.11 490.507 1296.74 Q492.799 1297.34 495.044 1297.34 Q498.053 1297.34 499.673 1296.32 Q501.294 1295.28 501.294 1293.41 Q501.294 1291.67 500.113 1290.74 Q498.956 1289.82 494.998 1288.96 L493.516 1288.61 Q489.558 1287.78 487.799 1286.07 Q486.039 1284.33 486.039 1281.32 Q486.039 1277.67 488.632 1275.67 Q491.224 1273.68 495.993 1273.68 Q498.354 1273.68 500.437 1274.03 Q502.521 1274.38 504.28 1275.07 Z" fill="#000000" fill-rule="nonzero" fill-opacity="1" /><path clip-path="url(#clip570)" d="M532.636 1279.29 Q534.233 1276.42 536.456 1275.05 Q538.678 1273.68 541.687 1273.68 Q545.738 1273.68 547.937 1276.53 Q550.136 1279.35 550.136 1284.59 L550.136 1300.23 L545.854 1300.23 L545.854 1284.73 Q545.854 1281 544.534 1279.19 Q543.215 1277.39 540.507 1277.39 Q537.196 1277.39 535.275 1279.59 Q533.354 1281.79 533.354 1285.58 L533.354 1300.23 L529.071 1300.23 L529.071 1284.73 Q529.071 1280.98 527.752 1279.19 Q526.433 1277.39 523.678 1277.39 Q520.414 1277.39 518.493 1279.61 Q516.572 1281.81 516.572 1285.58 L516.572 1300.23 L512.289 1300.23 L512.289 1274.31 L516.572 1274.31 L516.572 1278.34 Q518.03 1275.95 520.067 1274.82 Q522.104 1273.68 524.905 1273.68 Q527.729 1273.68 529.696 1275.12 Q531.687 1276.55 532.636 1279.29 Z" fill="#000000" fill-rule="nonzero" fill-opacity="1" /><path clip-path="url(#clip570)" d="M568.678 1277.29 Q565.252 1277.29 563.261 1279.98 Q561.27 1282.64 561.27 1287.29 Q561.27 1291.95 563.238 1294.63 Q565.229 1297.29 568.678 1297.29 Q572.081 1297.29 574.071 1294.61 Q576.062 1291.92 576.062 1287.29 Q576.062 1282.69 574.071 1280 Q572.081 1277.29 568.678 1277.29 M568.678 1273.68 Q574.233 1273.68 577.405 1277.29 Q580.576 1280.91 580.576 1287.29 Q580.576 1293.66 577.405 1297.29 Q574.233 1300.91 568.678 1300.91 Q563.099 1300.91 559.928 1297.29 Q556.78 1293.66 556.78 1287.29 Q556.78 1280.91 559.928 1277.29 Q563.099 1273.68 568.678 1273.68 Z" fill="#000000" fill-rule="nonzero" fill-opacity="1" /><path clip-path="url(#clip570)" d="M597.682 1277.29 Q594.256 1277.29 592.266 1279.98 Q590.275 1282.64 590.275 1287.29 Q590.275 1291.95 592.242 1294.63 Q594.233 1297.29 597.682 1297.29 Q601.085 1297.29 603.076 1294.61 Q605.066 1291.92 605.066 1287.29 Q605.066 1282.69 603.076 1280 Q601.085 1277.29 597.682 1277.29 M597.682 1273.68 Q603.238 1273.68 606.409 1277.29 Q609.58 1280.91 609.58 1287.29 Q609.58 1293.66 606.409 1297.29 Q603.238 1300.91 597.682 1300.91 Q592.104 1300.91 588.932 1297.29 Q585.784 1293.66 585.784 1287.29 Q585.784 1280.91 588.932 1277.29 Q592.104 1273.68 597.682 1273.68 Z" fill="#000000" fill-rule="nonzero" fill-opacity="1" /><path clip-path="url(#clip570)" d="M620.853 1266.95 L620.853 1274.31 L629.626 1274.31 L629.626 1277.62 L620.853 1277.62 L620.853 1291.69 Q620.853 1294.86 621.71 1295.77 Q622.589 1296.67 625.252 1296.67 L629.626 1296.67 L629.626 1300.23 L625.252 1300.23 Q620.321 1300.23 618.446 1298.41 Q616.571 1296.55 616.571 1291.69 L616.571 1277.62 L613.446 1277.62 L613.446 1274.31 L616.571 1274.31 L616.571 1266.95 L620.853 1266.95 Z" fill="#000000" fill-rule="nonzero" fill-opacity="1" /><path clip-path="url(#clip570)" d="M656.779 1284.59 L656.779 1300.23 L652.52 1300.23 L652.52 1284.73 Q652.52 1281.04 651.085 1279.22 Q649.65 1277.39 646.779 1277.39 Q643.33 1277.39 641.339 1279.59 Q639.349 1281.79 639.349 1285.58 L639.349 1300.23 L635.066 1300.23 L635.066 1264.22 L639.349 1264.22 L639.349 1278.34 Q640.876 1276 642.937 1274.84 Q645.02 1273.68 647.728 1273.68 Q652.196 1273.68 654.487 1276.46 Q656.779 1279.22 656.779 1284.59 Z" fill="#000000" fill-rule="nonzero" fill-opacity="1" /><polyline clip-path="url(#clip570)" style="stroke:#3da44d; stroke-linecap:round; stroke-linejoin:round; stroke-width:4; stroke-opacity:1; fill:none" stroke-dasharray="16, 10" points="245.49,1334.79 392.509,1334.79 "/>
<path clip-path="url(#clip570)" d="M417.012 1317.51 L446.248 1317.51 L446.248 1321.45 L433.979 1321.45 L433.979 1352.07 L429.28 1352.07 L429.28 1321.45 L417.012 1321.45 L417.012 1317.51 Z" fill="#000000" fill-rule="nonzero" fill-opacity="1" /><path clip-path="url(#clip570)" d="M458.632 1330.13 Q457.914 1329.71 457.058 1329.53 Q456.225 1329.32 455.206 1329.32 Q451.595 1329.32 449.651 1331.68 Q447.729 1334.02 447.729 1338.42 L447.729 1352.07 L443.447 1352.07 L443.447 1326.15 L447.729 1326.15 L447.729 1330.18 Q449.072 1327.82 451.225 1326.68 Q453.377 1325.52 456.456 1325.52 Q456.896 1325.52 457.428 1325.59 Q457.961 1325.64 458.609 1325.76 L458.632 1330.13 Z" fill="#000000" fill-rule="nonzero" fill-opacity="1" /><path clip-path="url(#clip570)" d="M462.66 1341.84 L462.66 1326.15 L466.919 1326.15 L466.919 1341.68 Q466.919 1345.36 468.354 1347.21 Q469.789 1349.04 472.66 1349.04 Q476.109 1349.04 478.1 1346.84 Q480.113 1344.64 480.113 1340.85 L480.113 1326.15 L484.373 1326.15 L484.373 1352.07 L480.113 1352.07 L480.113 1348.09 Q478.562 1350.45 476.502 1351.61 Q474.465 1352.75 471.757 1352.75 Q467.289 1352.75 464.975 1349.97 Q462.66 1347.19 462.66 1341.84 M473.377 1325.52 L473.377 1325.52 Z" fill="#000000" fill-rule="nonzero" fill-opacity="1" /><path clip-path="url(#clip570)" d="M515.322 1338.05 L515.322 1340.13 L495.738 1340.13 Q496.016 1344.53 498.377 1346.84 Q500.761 1349.13 504.998 1349.13 Q507.451 1349.13 509.743 1348.53 Q512.058 1347.93 514.326 1346.73 L514.326 1350.75 Q512.035 1351.73 509.627 1352.24 Q507.22 1352.75 504.743 1352.75 Q498.539 1352.75 494.905 1349.13 Q491.294 1345.52 491.294 1339.37 Q491.294 1333 494.72 1329.27 Q498.169 1325.52 504.002 1325.52 Q509.234 1325.52 512.266 1328.9 Q515.322 1332.26 515.322 1338.05 M511.062 1336.8 Q511.016 1333.3 509.095 1331.22 Q507.197 1329.13 504.048 1329.13 Q500.484 1329.13 498.331 1331.15 Q496.201 1333.16 495.877 1336.82 L511.062 1336.8 Z" fill="#000000" fill-rule="nonzero" fill-opacity="1" /><polyline clip-path="url(#clip570)" style="stroke:#c271d2; stroke-linecap:round; stroke-linejoin:round; stroke-width:4; stroke-opacity:1; fill:none" stroke-dasharray="16, 10" points="245.49,1386.63 392.509,1386.63 "/>
<path clip-path="url(#clip570)" d="M417.012 1369.35 L446.248 1369.35 L446.248 1373.29 L433.979 1373.29 L433.979 1403.91 L429.28 1403.91 L429.28 1373.29 L417.012 1373.29 L417.012 1369.35 Z" fill="#000000" fill-rule="nonzero" fill-opacity="1" /><path clip-path="url(#clip570)" d="M458.632 1381.97 Q457.914 1381.55 457.058 1381.37 Q456.225 1381.16 455.206 1381.16 Q451.595 1381.16 449.651 1383.52 Q447.729 1385.86 447.729 1390.26 L447.729 1403.91 L443.447 1403.91 L443.447 1377.99 L447.729 1377.99 L447.729 1382.02 Q449.072 1379.66 451.225 1378.52 Q453.377 1377.36 456.456 1377.36 Q456.896 1377.36 457.428 1377.43 Q457.961 1377.48 458.609 1377.6 L458.632 1381.97 Z" fill="#000000" fill-rule="nonzero" fill-opacity="1" /><path clip-path="url(#clip570)" d="M462.66 1393.68 L462.66 1377.99 L466.919 1377.99 L466.919 1393.52 Q466.919 1397.2 468.354 1399.05 Q469.789 1400.88 472.66 1400.88 Q476.109 1400.88 478.1 1398.68 Q480.113 1396.48 480.113 1392.69 L480.113 1377.99 L484.373 1377.99 L484.373 1403.91 L480.113 1403.91 L480.113 1399.93 Q478.562 1402.29 476.502 1403.45 Q474.465 1404.59 471.757 1404.59 Q467.289 1404.59 464.975 1401.81 Q462.66 1399.03 462.66 1393.68 M473.377 1377.36 L473.377 1377.36 Z" fill="#000000" fill-rule="nonzero" fill-opacity="1" /><path clip-path="url(#clip570)" d="M515.322 1389.89 L515.322 1391.97 L495.738 1391.97 Q496.016 1396.37 498.377 1398.68 Q500.761 1400.97 504.998 1400.97 Q507.451 1400.97 509.743 1400.37 Q512.058 1399.77 514.326 1398.57 L514.326 1402.59 Q512.035 1403.57 509.627 1404.08 Q507.22 1404.59 504.743 1404.59 Q498.539 1404.59 494.905 1400.97 Q491.294 1397.36 491.294 1391.21 Q491.294 1384.84 494.72 1381.11 Q498.169 1377.36 504.002 1377.36 Q509.234 1377.36 512.266 1380.74 Q515.322 1384.1 515.322 1389.89 M511.062 1388.64 Q511.016 1385.14 509.095 1383.06 Q507.197 1380.97 504.048 1380.97 Q500.484 1380.97 498.331 1382.99 Q496.201 1385 495.877 1388.66 L511.062 1388.64 Z" fill="#000000" fill-rule="nonzero" fill-opacity="1" /></svg>
