<?xml version="1.0" encoding="utf-8"?>
<svg xmlns="http://www.w3.org/2000/svg" xmlns:xlink="http://www.w3.org/1999/xlink" width="600" height="400" viewBox="0 0 2400 1600">
<defs>
  <clipPath id="clip660">
    <rect x="0" y="0" width="2400" height="1600"/>
  </clipPath>
</defs>
<path clip-path="url(#clip660)" d="M0 1600 L2400 1600 L2400 0 L0 0  Z" fill="#ffffff" fill-rule="evenodd" fill-opacity="1"/>
<defs>
  <clipPath id="clip661">
    <rect x="480" y="0" width="1681" height="1600"/>
  </clipPath>
</defs>
<path clip-path="url(#clip660)" d="M193.936 1486.45 L2352.76 1486.45 L2352.76 47.2441 L193.936 47.2441  Z" fill="#ffffff" fill-rule="evenodd" fill-opacity="1"/>
<defs>
  <clipPath id="clip662">
    <rect x="193" y="47" width="2160" height="1440"/>
  </clipPath>
</defs>
<polyline clip-path="url(#clip662)" style="stroke:#000000; stroke-linecap:round; stroke-linejoin:round; stroke-width:2; stroke-opacity:0.1; fill:none" points="229.255,1486.45 229.255,47.2441 "/>
<polyline clip-path="url(#clip662)" style="stroke:#000000; stroke-linecap:round; stroke-linejoin:round; stroke-width:2; stroke-opacity:0.1; fill:none" points="744.855,1486.45 744.855,47.2441 "/>
<polyline clip-path="url(#clip662)" style="stroke:#000000; stroke-linecap:round; stroke-linejoin:round; stroke-width:2; stroke-opacity:0.1; fill:none" points="1260.46,1486.45 1260.46,47.2441 "/>
<polyline clip-path="url(#clip662)" style="stroke:#000000; stroke-linecap:round; stroke-linejoin:round; stroke-width:2; stroke-opacity:0.1; fill:none" points="1776.06,1486.45 1776.06,47.2441 "/>
<polyline clip-path="url(#clip662)" style="stroke:#000000; stroke-linecap:round; stroke-linejoin:round; stroke-width:2; stroke-opacity:0.1; fill:none" points="2291.66,1486.45 2291.66,47.2441 "/>
<polyline clip-path="url(#clip662)" style="stroke:#000000; stroke-linecap:round; stroke-linejoin:round; stroke-width:2; stroke-opacity:0.1; fill:none" points="193.936,1281.16 2352.76,1281.16 "/>
<polyline clip-path="url(#clip662)" style="stroke:#000000; stroke-linecap:round; stroke-linejoin:round; stroke-width:2; stroke-opacity:0.1; fill:none" points="193.936,1042.84 2352.76,1042.84 "/>
<polyline clip-path="url(#clip662)" style="stroke:#000000; stroke-linecap:round; stroke-linejoin:round; stroke-width:2; stroke-opacity:0.1; fill:none" points="193.936,804.517 2352.76,804.517 "/>
<polyline clip-path="url(#clip662)" style="stroke:#000000; stroke-linecap:round; stroke-linejoin:round; stroke-width:2; stroke-opacity:0.1; fill:none" points="193.936,566.195 2352.76,566.195 "/>
<polyline clip-path="url(#clip662)" style="stroke:#000000; stroke-linecap:round; stroke-linejoin:round; stroke-width:2; stroke-opacity:0.1; fill:none" points="193.936,327.873 2352.76,327.873 "/>
<polyline clip-path="url(#clip662)" style="stroke:#000000; stroke-linecap:round; stroke-linejoin:round; stroke-width:2; stroke-opacity:0.1; fill:none" points="193.936,89.5517 2352.76,89.5517 "/>
<polyline clip-path="url(#clip660)" style="stroke:#000000; stroke-linecap:round; stroke-linejoin:round; stroke-width:4; stroke-opacity:1; fill:none" points="193.936,1486.45 2352.76,1486.45 "/>
<polyline clip-path="url(#clip660)" style="stroke:#000000; stroke-linecap:round; stroke-linejoin:round; stroke-width:4; stroke-opacity:1; fill:none" points="229.255,1486.45 229.255,1467.55 "/>
<polyline clip-path="url(#clip660)" style="stroke:#000000; stroke-linecap:round; stroke-linejoin:round; stroke-width:4; stroke-opacity:1; fill:none" points="744.855,1486.45 744.855,1467.55 "/>
<polyline clip-path="url(#clip660)" style="stroke:#000000; stroke-linecap:round; stroke-linejoin:round; stroke-width:4; stroke-opacity:1; fill:none" points="1260.46,1486.45 1260.46,1467.55 "/>
<polyline clip-path="url(#clip660)" style="stroke:#000000; stroke-linecap:round; stroke-linejoin:round; stroke-width:4; stroke-opacity:1; fill:none" points="1776.06,1486.45 1776.06,1467.55 "/>
<polyline clip-path="url(#clip660)" style="stroke:#000000; stroke-linecap:round; stroke-linejoin:round; stroke-width:4; stroke-opacity:1; fill:none" points="2291.66,1486.45 2291.66,1467.55 "/>
<path clip-path="url(#clip660)" d="M229.255 1517.37 Q225.644 1517.37 223.815 1520.93 Q222.009 1524.47 222.009 1531.6 Q222.009 1538.71 223.815 1542.27 Q225.644 1545.82 229.255 1545.82 Q232.889 1545.82 234.694 1542.27 Q236.523 1538.71 236.523 1531.6 Q236.523 1524.47 234.694 1520.93 Q232.889 1517.37 229.255 1517.37 M229.255 1513.66 Q235.065 1513.66 238.12 1518.27 Q241.199 1522.85 241.199 1531.6 Q241.199 1540.33 238.12 1544.94 Q235.065 1549.52 229.255 1549.52 Q223.444 1549.52 220.366 1544.94 Q217.31 1540.33 217.31 1531.6 Q217.31 1522.85 220.366 1518.27 Q223.444 1513.66 229.255 1513.66 Z" fill="#000000" fill-rule="nonzero" fill-opacity="1" /><path clip-path="url(#clip660)" d="M723.629 1544.91 L739.948 1544.91 L739.948 1548.85 L718.004 1548.85 L718.004 1544.91 Q720.666 1542.16 725.249 1537.53 Q729.855 1532.88 731.036 1531.53 Q733.281 1529.01 734.161 1527.27 Q735.064 1525.51 735.064 1523.82 Q735.064 1521.07 733.119 1519.33 Q731.198 1517.6 728.096 1517.6 Q725.897 1517.6 723.443 1518.36 Q721.013 1519.13 718.235 1520.68 L718.235 1515.95 Q721.059 1514.82 723.513 1514.24 Q725.967 1513.66 728.004 1513.66 Q733.374 1513.66 736.568 1516.35 Q739.763 1519.03 739.763 1523.52 Q739.763 1525.65 738.953 1527.57 Q738.166 1529.47 736.059 1532.07 Q735.48 1532.74 732.379 1535.95 Q729.277 1539.15 723.629 1544.91 Z" fill="#000000" fill-rule="nonzero" fill-opacity="1" /><path clip-path="url(#clip660)" d="M759.763 1517.37 Q756.152 1517.37 754.323 1520.93 Q752.517 1524.47 752.517 1531.6 Q752.517 1538.71 754.323 1542.27 Q756.152 1545.82 759.763 1545.82 Q763.397 1545.82 765.202 1542.27 Q767.031 1538.71 767.031 1531.6 Q767.031 1524.47 765.202 1520.93 Q763.397 1517.37 759.763 1517.37 M759.763 1513.66 Q765.573 1513.66 768.628 1518.27 Q771.707 1522.85 771.707 1531.6 Q771.707 1540.33 768.628 1544.94 Q765.573 1549.52 759.763 1549.52 Q753.952 1549.52 750.874 1544.94 Q747.818 1540.33 747.818 1531.6 Q747.818 1522.85 750.874 1518.27 Q753.952 1513.66 759.763 1513.66 Z" fill="#000000" fill-rule="nonzero" fill-opacity="1" /><path clip-path="url(#clip660)" d="M1248.63 1518.36 L1236.82 1536.81 L1248.63 1536.81 L1248.63 1518.36 M1247.4 1514.29 L1253.28 1514.29 L1253.28 1536.81 L1258.21 1536.81 L1258.21 1540.7 L1253.28 1540.7 L1253.28 1548.85 L1248.63 1548.85 L1248.63 1540.7 L1233.03 1540.7 L1233.03 1536.19 L1247.4 1514.29 Z" fill="#000000" fill-rule="nonzero" fill-opacity="1" /><path clip-path="url(#clip660)" d="M1275.94 1517.37 Q1272.33 1517.37 1270.5 1520.93 Q1268.7 1524.47 1268.7 1531.6 Q1268.7 1538.71 1270.5 1542.27 Q1272.33 1545.82 1275.94 1545.82 Q1279.58 1545.82 1281.38 1542.27 Q1283.21 1538.71 1283.21 1531.6 Q1283.21 1524.47 1281.38 1520.93 Q1279.58 1517.37 1275.94 1517.37 M1275.94 1513.66 Q1281.75 1513.66 1284.81 1518.27 Q1287.89 1522.85 1287.89 1531.6 Q1287.89 1540.33 1284.81 1544.94 Q1281.75 1549.52 1275.94 1549.52 Q1270.13 1549.52 1267.05 1544.94 Q1264 1540.33 1264 1531.6 Q1264 1522.85 1267.05 1518.27 Q1270.13 1513.66 1275.94 1513.66 Z" fill="#000000" fill-rule="nonzero" fill-opacity="1" /><path clip-path="url(#clip660)" d="M1761.46 1529.7 Q1758.31 1529.7 1756.46 1531.86 Q1754.63 1534.01 1754.63 1537.76 Q1754.63 1541.49 1756.46 1543.66 Q1758.31 1545.82 1761.46 1545.82 Q1764.61 1545.82 1766.44 1543.66 Q1768.29 1541.49 1768.29 1537.76 Q1768.29 1534.01 1766.44 1531.86 Q1764.61 1529.7 1761.46 1529.7 M1770.74 1515.05 L1770.74 1519.31 Q1768.98 1518.48 1767.18 1518.04 Q1765.4 1517.6 1763.64 1517.6 Q1759.01 1517.6 1756.55 1520.72 Q1754.12 1523.85 1753.78 1530.17 Q1755.14 1528.15 1757.2 1527.09 Q1759.26 1526 1761.74 1526 Q1766.95 1526 1769.96 1529.17 Q1772.99 1532.32 1772.99 1537.76 Q1772.99 1543.08 1769.84 1546.3 Q1766.69 1549.52 1761.46 1549.52 Q1755.47 1549.52 1752.3 1544.94 Q1749.12 1540.33 1749.12 1531.6 Q1749.12 1523.41 1753.01 1518.55 Q1756.9 1513.66 1763.45 1513.66 Q1765.21 1513.66 1766.99 1514.01 Q1768.8 1514.36 1770.74 1515.05 Z" fill="#000000" fill-rule="nonzero" fill-opacity="1" /><path clip-path="url(#clip660)" d="M1791.04 1517.37 Q1787.43 1517.37 1785.61 1520.93 Q1783.8 1524.47 1783.8 1531.6 Q1783.8 1538.71 1785.61 1542.27 Q1787.43 1545.82 1791.04 1545.82 Q1794.68 1545.82 1796.48 1542.27 Q1798.31 1538.71 1798.31 1531.6 Q1798.31 1524.47 1796.48 1520.93 Q1794.68 1517.37 1791.04 1517.37 M1791.04 1513.66 Q1796.86 1513.66 1799.91 1518.27 Q1802.99 1522.85 1802.99 1531.6 Q1802.99 1540.33 1799.91 1544.94 Q1796.86 1549.52 1791.04 1549.52 Q1785.23 1549.52 1782.16 1544.94 Q1779.1 1540.33 1779.1 1531.6 Q1779.1 1522.85 1782.16 1518.27 Q1785.23 1513.66 1791.04 1513.66 Z" fill="#000000" fill-rule="nonzero" fill-opacity="1" /><path clip-path="url(#clip660)" d="M2276.53 1532.44 Q2273.2 1532.44 2271.28 1534.22 Q2269.38 1536 2269.38 1539.13 Q2269.38 1542.25 2271.28 1544.03 Q2273.2 1545.82 2276.53 1545.82 Q2279.86 1545.82 2281.78 1544.03 Q2283.71 1542.23 2283.71 1539.13 Q2283.71 1536 2281.78 1534.22 Q2279.89 1532.44 2276.53 1532.44 M2271.85 1530.45 Q2268.84 1529.7 2267.16 1527.64 Q2265.49 1525.58 2265.49 1522.62 Q2265.49 1518.48 2268.43 1516.07 Q2271.39 1513.66 2276.53 1513.66 Q2281.69 1513.66 2284.63 1516.07 Q2287.57 1518.48 2287.57 1522.62 Q2287.57 1525.58 2285.88 1527.64 Q2284.22 1529.7 2281.23 1530.45 Q2284.61 1531.23 2286.48 1533.52 Q2288.38 1535.82 2288.38 1539.13 Q2288.38 1544.15 2285.3 1546.83 Q2282.25 1549.52 2276.53 1549.52 Q2270.81 1549.52 2267.73 1546.83 Q2264.68 1544.15 2264.68 1539.13 Q2264.68 1535.82 2266.58 1533.52 Q2268.47 1531.23 2271.85 1530.45 M2270.14 1523.06 Q2270.14 1525.75 2271.81 1527.25 Q2273.5 1528.76 2276.53 1528.76 Q2279.54 1528.76 2281.23 1527.25 Q2282.94 1525.75 2282.94 1523.06 Q2282.94 1520.38 2281.23 1518.87 Q2279.54 1517.37 2276.53 1517.37 Q2273.5 1517.37 2271.81 1518.87 Q2270.14 1520.38 2270.14 1523.06 Z" fill="#000000" fill-rule="nonzero" fill-opacity="1" /><path clip-path="url(#clip660)" d="M2306.69 1517.37 Q2303.08 1517.37 2301.25 1520.93 Q2299.45 1524.47 2299.45 1531.6 Q2299.45 1538.71 2301.25 1542.27 Q2303.08 1545.82 2306.69 1545.82 Q2310.33 1545.82 2312.13 1542.27 Q2313.96 1538.71 2313.96 1531.6 Q2313.96 1524.47 2312.13 1520.93 Q2310.33 1517.37 2306.69 1517.37 M2306.69 1513.66 Q2312.5 1513.66 2315.56 1518.27 Q2318.64 1522.85 2318.64 1531.6 Q2318.64 1540.33 2315.56 1544.94 Q2312.5 1549.52 2306.69 1549.52 Q2300.88 1549.52 2297.8 1544.94 Q2294.75 1540.33 2294.75 1531.6 Q2294.75 1522.85 2297.8 1518.27 Q2300.88 1513.66 2306.69 1513.66 Z" fill="#000000" fill-rule="nonzero" fill-opacity="1" /><polyline clip-path="url(#clip660)" style="stroke:#000000; stroke-linecap:round; stroke-linejoin:round; stroke-width:4; stroke-opacity:1; fill:none" points="193.936,1486.45 193.936,47.2441 "/>
<polyline clip-path="url(#clip660)" style="stroke:#000000; stroke-linecap:round; stroke-linejoin:round; stroke-width:4; stroke-opacity:1; fill:none" points="193.936,1281.16 212.834,1281.16 "/>
<polyline clip-path="url(#clip660)" style="stroke:#000000; stroke-linecap:round; stroke-linejoin:round; stroke-width:4; stroke-opacity:1; fill:none" points="193.936,1042.84 212.834,1042.84 "/>
<polyline clip-path="url(#clip660)" style="stroke:#000000; stroke-linecap:round; stroke-linejoin:round; stroke-width:4; stroke-opacity:1; fill:none" points="193.936,804.517 212.834,804.517 "/>
<polyline clip-path="url(#clip660)" style="stroke:#000000; stroke-linecap:round; stroke-linejoin:round; stroke-width:4; stroke-opacity:1; fill:none" points="193.936,566.195 212.834,566.195 "/>
<polyline clip-path="url(#clip660)" style="stroke:#000000; stroke-linecap:round; stroke-linejoin:round; stroke-width:4; stroke-opacity:1; fill:none" points="193.936,327.873 212.834,327.873 "/>
<polyline clip-path="url(#clip660)" style="stroke:#000000; stroke-linecap:round; stroke-linejoin:round; stroke-width:4; stroke-opacity:1; fill:none" points="193.936,89.5517 212.834,89.5517 "/>
<path clip-path="url(#clip660)" d="M50.9921 1281.61 L80.6679 1281.61 L80.6679 1285.55 L50.9921 1285.55 L50.9921 1281.61 Z" fill="#000000" fill-rule="nonzero" fill-opacity="1" /><path clip-path="url(#clip660)" d="M91.5706 1294.5 L99.2095 1294.5 L99.2095 1268.14 L90.8993 1269.81 L90.8993 1265.55 L99.1632 1263.88 L103.839 1263.88 L103.839 1294.5 L111.478 1294.5 L111.478 1298.44 L91.5706 1298.44 L91.5706 1294.5 Z" fill="#000000" fill-rule="nonzero" fill-opacity="1" /><path clip-path="url(#clip660)" d="M120.922 1292.56 L125.807 1292.56 L125.807 1298.44 L120.922 1298.44 L120.922 1292.56 Z" fill="#000000" fill-rule="nonzero" fill-opacity="1" /><path clip-path="url(#clip660)" d="M145.992 1266.96 Q142.381 1266.96 140.552 1270.52 Q138.746 1274.06 138.746 1281.19 Q138.746 1288.3 140.552 1291.87 Q142.381 1295.41 145.992 1295.41 Q149.626 1295.41 151.431 1291.87 Q153.26 1288.3 153.26 1281.19 Q153.26 1274.06 151.431 1270.52 Q149.626 1266.96 145.992 1266.96 M145.992 1263.25 Q151.802 1263.25 154.857 1267.86 Q157.936 1272.44 157.936 1281.19 Q157.936 1289.92 154.857 1294.53 Q151.802 1299.11 145.992 1299.11 Q140.181 1299.11 137.103 1294.53 Q134.047 1289.92 134.047 1281.19 Q134.047 1272.44 137.103 1267.86 Q140.181 1263.25 145.992 1263.25 Z" fill="#000000" fill-rule="nonzero" fill-opacity="1" /><path clip-path="url(#clip660)" d="M51.9875 1043.29 L81.6633 1043.29 L81.6633 1047.22 L51.9875 1047.22 L51.9875 1043.29 Z" fill="#000000" fill-rule="nonzero" fill-opacity="1" /><path clip-path="url(#clip660)" d="M101.756 1028.64 Q98.1447 1028.64 96.316 1032.2 Q94.5104 1035.74 94.5104 1042.87 Q94.5104 1049.98 96.316 1053.54 Q98.1447 1057.09 101.756 1057.09 Q105.39 1057.09 107.196 1053.54 Q109.024 1049.98 109.024 1042.87 Q109.024 1035.74 107.196 1032.2 Q105.39 1028.64 101.756 1028.64 M101.756 1024.93 Q107.566 1024.93 110.621 1029.54 Q113.7 1034.12 113.7 1042.87 Q113.7 1051.6 110.621 1056.21 Q107.566 1060.79 101.756 1060.79 Q95.9456 1060.79 92.8669 1056.21 Q89.8114 1051.6 89.8114 1042.87 Q89.8114 1034.12 92.8669 1029.54 Q95.9456 1024.93 101.756 1024.93 Z" fill="#000000" fill-rule="nonzero" fill-opacity="1" /><path clip-path="url(#clip660)" d="M121.918 1054.24 L126.802 1054.24 L126.802 1060.12 L121.918 1060.12 L121.918 1054.24 Z" fill="#000000" fill-rule="nonzero" fill-opacity="1" /><path clip-path="url(#clip660)" d="M137.033 1025.56 L155.39 1025.56 L155.39 1029.49 L141.316 1029.49 L141.316 1037.97 Q142.334 1037.62 143.353 1037.46 Q144.371 1037.27 145.39 1037.27 Q151.177 1037.27 154.556 1040.44 Q157.936 1043.61 157.936 1049.03 Q157.936 1054.61 154.464 1057.71 Q150.992 1060.79 144.672 1060.79 Q142.496 1060.79 140.228 1060.42 Q137.982 1060.05 135.575 1059.31 L135.575 1054.61 Q137.658 1055.74 139.881 1056.3 Q142.103 1056.85 144.58 1056.85 Q148.584 1056.85 150.922 1054.75 Q153.26 1052.64 153.26 1049.03 Q153.26 1045.42 150.922 1043.31 Q148.584 1041.21 144.58 1041.21 Q142.705 1041.21 140.83 1041.62 Q138.978 1042.04 137.033 1042.92 L137.033 1025.56 Z" fill="#000000" fill-rule="nonzero" fill-opacity="1" /><path clip-path="url(#clip660)" d="M100.76 790.315 Q97.1493 790.315 95.3206 793.88 Q93.515 797.422 93.515 804.551 Q93.515 811.658 95.3206 815.223 Q97.1493 818.764 100.76 818.764 Q104.395 818.764 106.2 815.223 Q108.029 811.658 108.029 804.551 Q108.029 797.422 106.2 793.88 Q104.395 790.315 100.76 790.315 M100.76 786.612 Q106.571 786.612 109.626 791.218 Q112.705 795.801 112.705 804.551 Q112.705 813.278 109.626 817.885 Q106.571 822.468 100.76 822.468 Q94.9502 822.468 91.8715 817.885 Q88.816 813.278 88.816 804.551 Q88.816 795.801 91.8715 791.218 Q94.9502 786.612 100.76 786.612 Z" fill="#000000" fill-rule="nonzero" fill-opacity="1" /><path clip-path="url(#clip660)" d="M120.922 815.917 L125.807 815.917 L125.807 821.797 L120.922 821.797 L120.922 815.917 Z" fill="#000000" fill-rule="nonzero" fill-opacity="1" /><path clip-path="url(#clip660)" d="M145.992 790.315 Q142.381 790.315 140.552 793.88 Q138.746 797.422 138.746 804.551 Q138.746 811.658 140.552 815.223 Q142.381 818.764 145.992 818.764 Q149.626 818.764 151.431 815.223 Q153.26 811.658 153.26 804.551 Q153.26 797.422 151.431 793.88 Q149.626 790.315 145.992 790.315 M145.992 786.612 Q151.802 786.612 154.857 791.218 Q157.936 795.801 157.936 804.551 Q157.936 813.278 154.857 817.885 Q151.802 822.468 145.992 822.468 Q140.181 822.468 137.103 817.885 Q134.047 813.278 134.047 804.551 Q134.047 795.801 137.103 791.218 Q140.181 786.612 145.992 786.612 Z" fill="#000000" fill-rule="nonzero" fill-opacity="1" /><path clip-path="url(#clip660)" d="M101.756 551.994 Q98.1447 551.994 96.316 555.558 Q94.5104 559.1 94.5104 566.23 Q94.5104 573.336 96.316 576.901 Q98.1447 580.443 101.756 580.443 Q105.39 580.443 107.196 576.901 Q109.024 573.336 109.024 566.23 Q109.024 559.1 107.196 555.558 Q105.39 551.994 101.756 551.994 M101.756 548.29 Q107.566 548.29 110.621 552.896 Q113.7 557.48 113.7 566.23 Q113.7 574.956 110.621 579.563 Q107.566 584.146 101.756 584.146 Q95.9456 584.146 92.8669 579.563 Q89.8114 574.956 89.8114 566.23 Q89.8114 557.48 92.8669 552.896 Q95.9456 548.29 101.756 548.29 Z" fill="#000000" fill-rule="nonzero" fill-opacity="1" /><path clip-path="url(#clip660)" d="M121.918 577.595 L126.802 577.595 L126.802 583.475 L121.918 583.475 L121.918 577.595 Z" fill="#000000" fill-rule="nonzero" fill-opacity="1" /><path clip-path="url(#clip660)" d="M137.033 548.915 L155.39 548.915 L155.39 552.85 L141.316 552.85 L141.316 561.322 Q142.334 560.975 143.353 560.813 Q144.371 560.628 145.39 560.628 Q151.177 560.628 154.556 563.799 Q157.936 566.97 157.936 572.387 Q157.936 577.966 154.464 581.068 Q150.992 584.146 144.672 584.146 Q142.496 584.146 140.228 583.776 Q137.982 583.405 135.575 582.665 L135.575 577.966 Q137.658 579.1 139.881 579.656 Q142.103 580.211 144.58 580.211 Q148.584 580.211 150.922 578.105 Q153.26 575.998 153.26 572.387 Q153.26 568.776 150.922 566.669 Q148.584 564.563 144.58 564.563 Q142.705 564.563 140.83 564.98 Q138.978 565.396 137.033 566.276 L137.033 548.915 Z" fill="#000000" fill-rule="nonzero" fill-opacity="1" /><path clip-path="url(#clip660)" d="M91.5706 341.218 L99.2095 341.218 L99.2095 314.853 L90.8993 316.519 L90.8993 312.26 L99.1632 310.593 L103.839 310.593 L103.839 341.218 L111.478 341.218 L111.478 345.153 L91.5706 345.153 L91.5706 341.218 Z" fill="#000000" fill-rule="nonzero" fill-opacity="1" /><path clip-path="url(#clip660)" d="M120.922 339.274 L125.807 339.274 L125.807 345.153 L120.922 345.153 L120.922 339.274 Z" fill="#000000" fill-rule="nonzero" fill-opacity="1" /><path clip-path="url(#clip660)" d="M145.992 313.672 Q142.381 313.672 140.552 317.237 Q138.746 320.778 138.746 327.908 Q138.746 335.014 140.552 338.579 Q142.381 342.121 145.992 342.121 Q149.626 342.121 151.431 338.579 Q153.26 335.014 153.26 327.908 Q153.26 320.778 151.431 317.237 Q149.626 313.672 145.992 313.672 M145.992 309.968 Q151.802 309.968 154.857 314.575 Q157.936 319.158 157.936 327.908 Q157.936 336.635 154.857 341.241 Q151.802 345.825 145.992 345.825 Q140.181 345.825 137.103 341.241 Q134.047 336.635 134.047 327.908 Q134.047 319.158 137.103 314.575 Q140.181 309.968 145.992 309.968 Z" fill="#000000" fill-rule="nonzero" fill-opacity="1" /><path clip-path="url(#clip660)" d="M92.566 102.897 L100.205 102.897 L100.205 76.5309 L91.8947 78.1976 L91.8947 73.9383 L100.159 72.2717 L104.834 72.2717 L104.834 102.897 L112.473 102.897 L112.473 106.832 L92.566 106.832 L92.566 102.897 Z" fill="#000000" fill-rule="nonzero" fill-opacity="1" /><path clip-path="url(#clip660)" d="M121.918 100.952 L126.802 100.952 L126.802 106.832 L121.918 106.832 L121.918 100.952 Z" fill="#000000" fill-rule="nonzero" fill-opacity="1" /><path clip-path="url(#clip660)" d="M137.033 72.2717 L155.39 72.2717 L155.39 76.2068 L141.316 76.2068 L141.316 84.679 Q142.334 84.3318 143.353 84.1698 Q144.371 83.9846 145.39 83.9846 Q151.177 83.9846 154.556 87.1559 Q157.936 90.3271 157.936 95.7438 Q157.936 101.322 154.464 104.424 Q150.992 107.503 144.672 107.503 Q142.496 107.503 140.228 107.133 Q137.982 106.762 135.575 106.022 L135.575 101.322 Q137.658 102.457 139.881 103.012 Q142.103 103.568 144.58 103.568 Q148.584 103.568 150.922 101.461 Q153.26 99.3549 153.26 95.7438 Q153.26 92.1327 150.922 90.0262 Q148.584 87.9197 144.58 87.9197 Q142.705 87.9197 140.83 88.3364 Q138.978 88.7531 137.033 89.6327 L137.033 72.2717 Z" fill="#000000" fill-rule="nonzero" fill-opacity="1" /><path clip-path="url(#clip662)" d="M255.035 948.541 L280.815 897.34 L306.595 918.069 L332.375 915.946 L358.155 935.153 L383.935 872.959 L409.715 836.838 L435.495 838.833 L461.275 859.856 L487.055 814.009 L512.835 741.022 L538.615 791.55 L564.395 694.682 L590.175 638.003 L615.955 639.958 L641.735 638.052 L667.515 665.128 L693.295 668.422 L719.075 717.862 L744.855 752.89 L770.635 809.094 L796.415 908.426 L822.195 895.145 L847.975 939.256 L873.755 1098.91 L899.535 1109.36 L925.316 1063.99 L951.096 1058.93 L976.876 1035.43 L1002.66 1036.35 L1028.44 1016.44 L1054.22 1017.83 L1080 1044.3 L1105.78 1017.8 L1131.56 1018.5 L1157.34 918.347 L1183.12 903.199 L1208.9 982.202 L1234.68 1009.47 L1260.46 1008.48 L1286.24 1070.58 L1312.02 1133.66 L1337.8 1216.7 L1363.58 1305.72 L1389.36 1287.43 L1415.14 1344.92 L1440.92 1362.42 L1466.7 1379.45 L1492.48 1445.72 L1518.26 1422.29 L1544.04 1430.05 L1569.82 1363.97 L1595.6 1336.31 L1621.38 1201.82 L1647.16 1186.77 L1672.94 1097.53 L1698.72 1095.86 L1724.5 1099.65 L1750.28 1068.85 L1776.06 1057.84 L1801.84 978.633 L1827.62 1040.88 L1853.4 942.079 L1879.18 926.325 L1904.96 908.253 L1930.74 897.904 L1956.52 944.796 L1982.3 897.56 L2008.08 914.604 L2033.86 877.441 L2059.64 898.745 L2085.42 1055.02 L2111.2 1074.39 L2136.98 969.702 L2162.76 850.196 L2188.54 754.196 L2214.32 791.036 L2240.1 818.482 L2265.88 710.873 L2291.66 687.202 L2291.66 169.196 L2265.88 211.214 L2240.1 309.963 L2214.32 283.929 L2188.54 265.158 L2162.76 370.123 L2136.98 494.281 L2111.2 565.061 L2085.42 554.893 L2059.64 395.638 L2033.86 397.75 L2008.08 397.954 L1982.3 356.669 L1956.52 405.907 L1930.74 398.148 L1904.96 408.125 L1879.18 407.604 L1853.4 446.294 L1827.62 550.577 L1801.84 523.277 L1776.06 623.115 L1750.28 636.392 L1724.5 695.128 L1698.72 703.407 L1672.94 737.211 L1647.16 789.929 L1621.38 813.987 L1595.6 907.661 L1569.82 894.695 L1544.04 955.316 L1518.26 938.236 L1492.48 980.106 L1466.7 913.539 L1440.92 933.591 L1415.14 931.752 L1389.36 873.358 L1363.58 891.335 L1337.8 782.836 L1312.02 717.845 L1286.24 679.134 L1260.46 609.56 L1234.68 615.196 L1208.9 605.767 L1183.12 510.369 L1157.34 515.24 L1131.56 609.715 L1105.78 597.323 L1080 637.435 L1054.22 612.96 L1028.44 622.59 L1002.66 628.022 L976.876 599.262 L951.096 614.674 L925.316 578.652 L899.535 617.771 L873.755 599.082 L847.975 447.786 L822.195 397.911 L796.415 426.527 L770.635 368.861 L744.855 335.297 L719.075 304.478 L693.295 265.746 L667.515 242.773 L641.735 221.051 L615.955 210.383 L590.175 217.858 L564.395 240.032 L538.615 319.263 L512.835 267.889 L487.055 315.746 L461.275 304.255 L435.495 270.452 L409.715 194.263 L383.935 159.317 L358.155 178.759 L332.375 152.051 L306.595 130.928 L280.815 87.9763 L255.035 90.922  Z" fill="#009af9" fill-rule="evenodd" fill-opacity="0.5"/>
<polyline clip-path="url(#clip662)" style="stroke:#009af9; stroke-linecap:round; stroke-linejoin:round; stroke-width:4; stroke-opacity:1; fill:none" points="255.035,519.731 280.815,492.658 306.595,524.498 332.375,533.998 358.155,556.956 383.935,516.138 409.715,515.551 435.495,554.642 461.275,582.055 487.055,564.878 512.835,504.456 538.615,555.406 564.395,467.357 590.175,427.93 615.955,425.17 641.735,429.551 667.515,453.951 693.295,467.084 719.075,511.17 744.855,544.093 770.635,588.978 796.415,667.476 822.195,646.528 847.975,693.521 873.755,848.998 899.535,863.567 925.316,821.322 951.096,836.804 976.876,817.348 1002.66,832.185 1028.44,819.516 1054.22,815.395 1080,840.869 1105.78,807.56 1131.56,814.105 1157.34,716.793 1183.12,706.784 1208.9,793.985 1234.68,812.334 1260.46,809.019 1286.24,874.859 1312.02,925.753 1337.8,999.767 1363.58,1098.53 1389.36,1080.39 1415.14,1138.33 1440.92,1148.01 1466.7,1146.49 1492.48,1212.91 1518.26,1180.26 1544.04,1192.68 1569.82,1129.33 1595.6,1121.99 1621.38,1007.9 1647.16,988.349 1672.94,917.369 1698.72,899.635 1724.5,897.389 1750.28,852.619 1776.06,840.479 1801.84,750.955 1827.62,795.728 1853.4,694.186 1879.18,666.964 1904.96,658.189 1930.74,648.026 1956.52,675.351 1982.3,627.115 2008.08,656.279 2033.86,637.595 2059.64,647.191 2085.42,804.957 2111.2,819.727 2136.98,731.992 2162.76,610.159 2188.54,509.677 2214.32,537.482 2240.1,564.223 2265.88,461.044 2291.66,428.199 "/>
<path clip-path="url(#clip662)" d="M255.035 1040.79 L280.815 951.479 L306.595 879.927 L332.375 872.021 L358.155 899.389 L383.935 901.457 L409.715 890.343 L435.495 841.626 L461.275 830.442 L487.055 804.472 L512.835 778.764 L538.615 744.243 L564.395 707.324 L590.175 683.059 L615.955 649.244 L641.735 618.786 L667.515 615.65 L693.295 588.025 L719.075 571.739 L744.855 545.177 L770.635 560.39 L796.415 568.773 L822.195 563.454 L847.975 567.656 L873.755 555.537 L899.535 576.169 L925.316 605.177 L951.096 638.145 L976.876 667.859 L1002.66 711.849 L1028.44 686.051 L1054.22 679.875 L1080 651.914 L1105.78 613.518 L1131.56 640.287 L1157.34 658.284 L1183.12 647.707 L1208.9 626.08 L1234.68 610.663 L1260.46 573.888 L1286.24 570.455 L1312.02 593.075 L1337.8 585.934 L1363.58 608.815 L1389.36 647.883 L1415.14 705.814 L1440.92 745.456 L1466.7 806.099 L1492.48 847.993 L1518.26 854.629 L1544.04 875.897 L1569.82 893.066 L1595.6 905.393 L1621.38 940.708 L1647.16 924.225 L1672.94 939.469 L1698.72 939.076 L1724.5 937.345 L1750.28 970.282 L1776.06 995.139 L1801.84 1029.23 L1827.62 1007.16 L1853.4 1001.74 L1879.18 977.449 L1904.96 955.185 L1930.74 942.566 L1956.52 925.036 L1982.3 896.837 L2008.08 886.054 L2033.86 832.455 L2059.64 829.889 L2085.42 832.714 L2111.2 864.547 L2136.98 888.353 L2162.76 905.574 L2188.54 881.184 L2214.32 851.288 L2240.1 811.337 L2265.88 764.504 L2291.66 709.436 L2291.66 476.777 L2265.88 563.177 L2240.1 620.248 L2214.32 683.722 L2188.54 704.109 L2162.76 732.517 L2136.98 716.44 L2111.2 702.861 L2085.42 656.721 L2059.64 651.68 L2033.86 648.457 L2008.08 685.974 L1982.3 715.923 L1956.52 746.186 L1930.74 771.732 L1904.96 764.788 L1879.18 775.571 L1853.4 795.027 L1827.62 801.372 L1801.84 827.864 L1776.06 807.357 L1750.28 772.69 L1724.5 753.454 L1698.72 757.976 L1672.94 740.232 L1647.16 737.215 L1621.38 730.531 L1595.6 717.293 L1569.82 690.133 L1544.04 683.361 L1518.26 652.383 L1492.48 644.322 L1466.7 621.443 L1440.92 563.884 L1415.14 534.629 L1389.36 461.797 L1363.58 423.222 L1337.8 381.15 L1312.02 391.423 L1286.24 384.786 L1260.46 388.725 L1234.68 425.868 L1208.9 449.637 L1183.12 486.277 L1157.34 485.379 L1131.56 460.013 L1105.78 441.222 L1080 481.242 L1054.22 516.345 L1028.44 525.944 L1002.66 515.816 L976.876 473.951 L951.096 443.339 L925.316 405.004 L899.535 384.712 L873.755 371.189 L847.975 365.301 L822.195 375.822 L796.415 370.626 L770.635 367.953 L744.855 347.097 L719.075 369.207 L693.295 404.926 L667.515 417.224 L641.735 445.965 L615.955 471.886 L590.175 486.94 L564.395 496.557 L538.615 540.187 L512.835 587.849 L487.055 607.28 L461.275 633.193 L435.495 660.045 L409.715 685.459 L383.935 728.341 L358.155 705.889 L332.375 669.19 L306.595 670.805 L280.815 731.614 L255.035 786.718  Z" fill="#e26f46" fill-rule="evenodd" fill-opacity="0.5"/>
<polyline clip-path="url(#clip662)" style="stroke:#e26f46; stroke-linecap:round; stroke-linejoin:round; stroke-width:4; stroke-opacity:1; fill:none" points="255.035,913.753 280.815,841.547 306.595,775.366 332.375,770.606 358.155,802.639 383.935,814.899 409.715,787.901 435.495,750.836 461.275,731.818 487.055,705.876 512.835,683.306 538.615,642.215 564.395,601.941 590.175,585 615.955,560.565 641.735,532.375 667.515,516.437 693.295,496.475 719.075,470.473 744.855,446.137 770.635,464.171 796.415,469.7 822.195,469.638 847.975,466.479 873.755,463.363 899.535,480.44 925.316,505.09 951.096,540.742 976.876,570.905 1002.66,613.832 1028.44,605.998 1054.22,598.11 1080,566.578 1105.78,527.37 1131.56,550.15 1157.34,571.831 1183.12,566.992 1208.9,537.858 1234.68,518.266 1260.46,481.306 1286.24,477.621 1312.02,492.249 1337.8,483.542 1363.58,516.018 1389.36,554.84 1415.14,620.222 1440.92,654.67 1466.7,713.771 1492.48,746.158 1518.26,753.506 1544.04,779.629 1569.82,791.6 1595.6,811.343 1621.38,835.62 1647.16,830.72 1672.94,839.85 1698.72,848.526 1724.5,845.399 1750.28,871.486 1776.06,901.248 1801.84,928.547 1827.62,904.265 1853.4,898.382 1879.18,876.51 1904.96,859.986 1930.74,857.149 1956.52,835.611 1982.3,806.38 2008.08,786.014 2033.86,740.456 2059.64,740.784 2085.42,744.718 2111.2,783.704 2136.98,802.397 2162.76,819.045 2188.54,792.647 2214.32,767.505 2240.1,715.793 2265.88,663.84 2291.66,593.107 "/>
<polyline clip-path="url(#clip662)" style="stroke:#3da44d; stroke-linecap:round; stroke-linejoin:round; stroke-width:4; stroke-opacity:1; fill:none" stroke-dasharray="16, 10" points="255.035,767.614 280.815,581.306 306.595,643.548 332.375,632.717 358.155,605.466 383.935,539.547 409.715,630.585 435.495,686.523 461.275,793.308 487.055,735.121 512.835,640.127 538.615,725.175 564.395,631.99 590.175,515.648 615.955,453.359 641.735,432.284 667.515,437.068 693.295,434.17 719.075,432.646 744.855,457.125 770.635,546.455 796.415,628.231 822.195,535.486 847.975,574.252 873.755,774.466 899.535,735.607 925.316,673.683 951.096,688.747 976.876,679.395 1002.66,704.094 1028.44,708.348 1054.22,645.888 1080,631.571 1105.78,691.271 1131.56,647.196 1157.34,586.241 1183.12,539.036 1208.9,580.409 1234.68,644.831 1260.46,608.587 1286.24,666.41 1312.02,721.73 1337.8,821.505 1363.58,906.22 1389.36,927.017 1415.14,1100.83 1440.92,1077.25 1466.7,1088.13 1492.48,1164.47 1518.26,1126.97 1544.04,1148.45 1569.82,1111.03 1595.6,1195.92 1621.38,1085.35 1647.16,1054.42 1672.94,917.884 1698.72,910.405 1724.5,908.252 1750.28,870.483 1776.06,922.122 1801.84,765.275 1827.62,784.898 1853.4,692.594 1879.18,639.239 1904.96,657.844 1930.74,640.635 1956.52,717.763 1982.3,674.701 2008.08,688.226 2033.86,592.794 2059.64,537.853 2085.42,660.255 2111.2,678.029 2136.98,618.525 2162.76,464.673 2188.54,365.686 2214.32,361.341 2240.1,463.865 2265.88,353.817 2291.66,273.151 "/>
<polyline clip-path="url(#clip662)" style="stroke:#c271d2; stroke-linecap:round; stroke-linejoin:round; stroke-width:4; stroke-opacity:1; fill:none" stroke-dasharray="16, 10" points="255.035,887.095 280.815,791.421 306.595,733.011 332.375,811.745 358.155,809.969 383.935,791.371 409.715,704.449 435.495,709.754 461.275,752.932 487.055,731.457 512.835,701.134 538.615,703.878 564.395,669.315 590.175,609.643 615.955,595.187 641.735,530.729 667.515,529.985 693.295,530.248 719.075,415.95 744.855,388.869 770.635,392.867 796.415,348.845 822.195,401.13 847.975,405.233 873.755,418.85 899.535,475.492 925.316,511.01 951.096,490.622 976.876,512.538 1002.66,635.38 1028.44,614.079 1054.22,628.135 1080,593.667 1105.78,483.534 1131.56,527.644 1157.34,588.83 1183.12,620.969 1208.9,550.258 1234.68,505.064 1260.46,477.481 1286.24,420.637 1312.02,422.205 1337.8,419.449 1363.58,467.829 1389.36,532.552 1415.14,571.408 1440.92,559.812 1466.7,666.904 1492.48,683.296 1518.26,725.404 1544.04,738.243 1569.82,820.237 1595.6,826.197 1621.38,847.262 1647.16,901.443 1672.94,921.657 1698.72,818.665 1724.5,854.445 1750.28,907.095 1776.06,925.532 1801.84,987.527 1827.62,890.085 1853.4,968.481 1879.18,908.071 1904.96,906.108 1930.74,920.208 1956.52,855.143 1982.3,800.573 2008.08,839.24 2033.86,762.176 2059.64,757.195 2085.42,711.322 2111.2,739.591 2136.98,772.889 2162.76,814.836 2188.54,801.086 2214.32,724.116 2240.1,671.566 2265.88,686.506 2291.66,532.38 "/>
<path clip-path="url(#clip660)" d="M265.897 354.418 L721.546 354.418 L721.546 95.2176 L265.897 95.2176  Z" fill="#ffffff" fill-rule="evenodd" fill-opacity="1"/>
<polyline clip-path="url(#clip660)" style="stroke:#000000; stroke-linecap:round; stroke-linejoin:round; stroke-width:4; stroke-opacity:1; fill:none" points="265.897,354.418 721.546,354.418 721.546,95.2176 265.897,95.2176 265.897,354.418 "/>
<polyline clip-path="url(#clip660)" style="stroke:#009af9; stroke-linecap:round; stroke-linejoin:round; stroke-width:4; stroke-opacity:1; fill:none" points="289.884,147.058 433.805,147.058 "/>
<path clip-path="url(#clip660)" d="M462.468 133.62 L462.468 146.606 L468.347 146.606 Q471.611 146.606 473.394 144.916 Q475.176 143.227 475.176 140.102 Q475.176 137 473.394 135.31 Q471.611 133.62 468.347 133.62 L462.468 133.62 M457.792 129.778 L468.347 129.778 Q474.157 129.778 477.12 132.416 Q480.106 135.032 480.106 140.102 Q480.106 145.217 477.12 147.833 Q474.157 150.449 468.347 150.449 L462.468 150.449 L462.468 164.338 L457.792 164.338 L457.792 129.778 Z" fill="#000000" fill-rule="nonzero" fill-opacity="1" /><path clip-path="url(#clip660)" d="M486.38 129.778 L506.241 129.778 L506.241 133.713 L491.055 133.713 L491.055 143.898 L504.759 143.898 L504.759 147.833 L491.055 147.833 L491.055 164.338 L486.38 164.338 L486.38 129.778 Z" fill="#000000" fill-rule="nonzero" fill-opacity="1" /><path clip-path="url(#clip660)" d="M545.06 139.176 L545.06 143.203 Q543.254 142.277 541.31 141.815 Q539.365 141.352 537.282 141.352 Q534.111 141.352 532.514 142.324 Q530.94 143.296 530.94 145.24 Q530.94 146.722 532.074 147.578 Q533.208 148.412 536.634 149.176 L538.092 149.5 Q542.629 150.472 544.527 152.254 Q546.449 154.014 546.449 157.185 Q546.449 160.796 543.578 162.902 Q540.731 165.009 535.731 165.009 Q533.648 165.009 531.379 164.592 Q529.134 164.199 526.634 163.388 L526.634 158.99 Q528.995 160.217 531.287 160.842 Q533.578 161.444 535.824 161.444 Q538.833 161.444 540.453 160.426 Q542.074 159.384 542.074 157.509 Q542.074 155.773 540.893 154.847 Q539.736 153.921 535.777 153.064 L534.296 152.717 Q530.338 151.884 528.578 150.171 Q526.819 148.435 526.819 145.426 Q526.819 141.768 529.412 139.778 Q532.004 137.787 536.773 137.787 Q539.134 137.787 541.217 138.134 Q543.301 138.481 545.06 139.176 Z" fill="#000000" fill-rule="nonzero" fill-opacity="1" /><path clip-path="url(#clip660)" d="M573.416 143.389 Q575.013 140.518 577.236 139.153 Q579.458 137.787 582.467 137.787 Q586.518 137.787 588.717 140.634 Q590.916 143.458 590.916 148.689 L590.916 164.338 L586.634 164.338 L586.634 148.828 Q586.634 145.102 585.314 143.296 Q583.995 141.49 581.286 141.49 Q577.976 141.49 576.055 143.69 Q574.134 145.889 574.134 149.685 L574.134 164.338 L569.851 164.338 L569.851 148.828 Q569.851 145.078 568.532 143.296 Q567.212 141.49 564.458 141.49 Q561.194 141.49 559.273 143.713 Q557.351 145.912 557.351 149.685 L557.351 164.338 L553.069 164.338 L553.069 138.412 L557.351 138.412 L557.351 142.44 Q558.81 140.055 560.847 138.921 Q562.884 137.787 565.685 137.787 Q568.509 137.787 570.476 139.222 Q572.467 140.657 573.416 143.389 Z" fill="#000000" fill-rule="nonzero" fill-opacity="1" /><path clip-path="url(#clip660)" d="M609.458 141.398 Q606.032 141.398 604.041 144.083 Q602.05 146.745 602.05 151.398 Q602.05 156.051 604.018 158.736 Q606.009 161.398 609.458 161.398 Q612.86 161.398 614.851 158.713 Q616.842 156.027 616.842 151.398 Q616.842 146.791 614.851 144.106 Q612.86 141.398 609.458 141.398 M609.458 137.787 Q615.013 137.787 618.184 141.398 Q621.356 145.009 621.356 151.398 Q621.356 157.764 618.184 161.398 Q615.013 165.009 609.458 165.009 Q603.879 165.009 600.708 161.398 Q597.56 157.764 597.56 151.398 Q597.56 145.009 600.708 141.398 Q603.879 137.787 609.458 137.787 Z" fill="#000000" fill-rule="nonzero" fill-opacity="1" /><path clip-path="url(#clip660)" d="M638.462 141.398 Q635.036 141.398 633.045 144.083 Q631.055 146.745 631.055 151.398 Q631.055 156.051 633.022 158.736 Q635.013 161.398 638.462 161.398 Q641.865 161.398 643.856 158.713 Q645.846 156.027 645.846 151.398 Q645.846 146.791 643.856 144.106 Q641.865 141.398 638.462 141.398 M638.462 137.787 Q644.018 137.787 647.189 141.398 Q650.36 145.009 650.36 151.398 Q650.36 157.764 647.189 161.398 Q644.018 165.009 638.462 165.009 Q632.883 165.009 629.712 161.398 Q626.564 157.764 626.564 151.398 Q626.564 145.009 629.712 141.398 Q632.883 137.787 638.462 137.787 Z" fill="#000000" fill-rule="nonzero" fill-opacity="1" /><path clip-path="url(#clip660)" d="M661.633 131.051 L661.633 138.412 L670.406 138.412 L670.406 141.722 L661.633 141.722 L661.633 155.796 Q661.633 158.967 662.49 159.87 Q663.369 160.773 666.031 160.773 L670.406 160.773 L670.406 164.338 L666.031 164.338 Q661.101 164.338 659.226 162.509 Q657.351 160.657 657.351 155.796 L657.351 141.722 L654.226 141.722 L654.226 138.412 L657.351 138.412 L657.351 131.051 L661.633 131.051 Z" fill="#000000" fill-rule="nonzero" fill-opacity="1" /><path clip-path="url(#clip660)" d="M697.559 148.689 L697.559 164.338 L693.3 164.338 L693.3 148.828 Q693.3 145.148 691.865 143.319 Q690.429 141.49 687.559 141.49 Q684.11 141.49 682.119 143.69 Q680.129 145.889 680.129 149.685 L680.129 164.338 L675.846 164.338 L675.846 128.319 L680.129 128.319 L680.129 142.44 Q681.656 140.102 683.716 138.944 Q685.8 137.787 688.508 137.787 Q692.976 137.787 695.267 140.565 Q697.559 143.319 697.559 148.689 Z" fill="#000000" fill-rule="nonzero" fill-opacity="1" /><polyline clip-path="url(#clip660)" style="stroke:#e26f46; stroke-linecap:round; stroke-linejoin:round; stroke-width:4; stroke-opacity:1; fill:none" points="289.884,198.898 433.805,198.898 "/>
<path clip-path="url(#clip660)" d="M462.468 185.46 L462.468 198.446 L468.347 198.446 Q471.611 198.446 473.394 196.756 Q475.176 195.067 475.176 191.942 Q475.176 188.84 473.394 187.15 Q471.611 185.46 468.347 185.46 L462.468 185.46 M457.792 181.618 L468.347 181.618 Q474.157 181.618 477.12 184.256 Q480.106 186.872 480.106 191.942 Q480.106 197.057 477.12 199.673 Q474.157 202.289 468.347 202.289 L462.468 202.289 L462.468 216.178 L457.792 216.178 L457.792 181.618 Z" fill="#000000" fill-rule="nonzero" fill-opacity="1" /><path clip-path="url(#clip660)" d="M486.38 181.618 L506.241 181.618 L506.241 185.553 L491.055 185.553 L491.055 195.738 L504.759 195.738 L504.759 199.673 L491.055 199.673 L491.055 216.178 L486.38 216.178 L486.38 181.618 Z" fill="#000000" fill-rule="nonzero" fill-opacity="1" /><path clip-path="url(#clip660)" d="M545.06 191.016 L545.06 195.043 Q543.254 194.117 541.31 193.655 Q539.365 193.192 537.282 193.192 Q534.111 193.192 532.514 194.164 Q530.94 195.136 530.94 197.08 Q530.94 198.562 532.074 199.418 Q533.208 200.252 536.634 201.016 L538.092 201.34 Q542.629 202.312 544.527 204.094 Q546.449 205.854 546.449 209.025 Q546.449 212.636 543.578 214.742 Q540.731 216.849 535.731 216.849 Q533.648 216.849 531.379 216.432 Q529.134 216.039 526.634 215.228 L526.634 210.83 Q528.995 212.057 531.287 212.682 Q533.578 213.284 535.824 213.284 Q538.833 213.284 540.453 212.266 Q542.074 211.224 542.074 209.349 Q542.074 207.613 540.893 206.687 Q539.736 205.761 535.777 204.904 L534.296 204.557 Q530.338 203.724 528.578 202.011 Q526.819 200.275 526.819 197.266 Q526.819 193.608 529.412 191.618 Q532.004 189.627 536.773 189.627 Q539.134 189.627 541.217 189.974 Q543.301 190.321 545.06 191.016 Z" fill="#000000" fill-rule="nonzero" fill-opacity="1" /><path clip-path="url(#clip660)" d="M573.416 195.229 Q575.013 192.358 577.236 190.993 Q579.458 189.627 582.467 189.627 Q586.518 189.627 588.717 192.474 Q590.916 195.298 590.916 200.529 L590.916 216.178 L586.634 216.178 L586.634 200.668 Q586.634 196.942 585.314 195.136 Q583.995 193.33 581.286 193.33 Q577.976 193.33 576.055 195.53 Q574.134 197.729 574.134 201.525 L574.134 216.178 L569.851 216.178 L569.851 200.668 Q569.851 196.918 568.532 195.136 Q567.212 193.33 564.458 193.33 Q561.194 193.33 559.273 195.553 Q557.351 197.752 557.351 201.525 L557.351 216.178 L553.069 216.178 L553.069 190.252 L557.351 190.252 L557.351 194.28 Q558.81 191.895 560.847 190.761 Q562.884 189.627 565.685 189.627 Q568.509 189.627 570.476 191.062 Q572.467 192.497 573.416 195.229 Z" fill="#000000" fill-rule="nonzero" fill-opacity="1" /><path clip-path="url(#clip660)" d="M609.458 193.238 Q606.032 193.238 604.041 195.923 Q602.05 198.585 602.05 203.238 Q602.05 207.891 604.018 210.576 Q606.009 213.238 609.458 213.238 Q612.86 213.238 614.851 210.553 Q616.842 207.867 616.842 203.238 Q616.842 198.631 614.851 195.946 Q612.86 193.238 609.458 193.238 M609.458 189.627 Q615.013 189.627 618.184 193.238 Q621.356 196.849 621.356 203.238 Q621.356 209.604 618.184 213.238 Q615.013 216.849 609.458 216.849 Q603.879 216.849 600.708 213.238 Q597.56 209.604 597.56 203.238 Q597.56 196.849 600.708 193.238 Q603.879 189.627 609.458 189.627 Z" fill="#000000" fill-rule="nonzero" fill-opacity="1" /><path clip-path="url(#clip660)" d="M638.462 193.238 Q635.036 193.238 633.045 195.923 Q631.055 198.585 631.055 203.238 Q631.055 207.891 633.022 210.576 Q635.013 213.238 638.462 213.238 Q641.865 213.238 643.856 210.553 Q645.846 207.867 645.846 203.238 Q645.846 198.631 643.856 195.946 Q641.865 193.238 638.462 193.238 M638.462 189.627 Q644.018 189.627 647.189 193.238 Q650.36 196.849 650.36 203.238 Q650.36 209.604 647.189 213.238 Q644.018 216.849 638.462 216.849 Q632.883 216.849 629.712 213.238 Q626.564 209.604 626.564 203.238 Q626.564 196.849 629.712 193.238 Q632.883 189.627 638.462 189.627 Z" fill="#000000" fill-rule="nonzero" fill-opacity="1" /><path clip-path="url(#clip660)" d="M661.633 182.891 L661.633 190.252 L670.406 190.252 L670.406 193.562 L661.633 193.562 L661.633 207.636 Q661.633 210.807 662.49 211.71 Q663.369 212.613 666.031 212.613 L670.406 212.613 L670.406 216.178 L666.031 216.178 Q661.101 216.178 659.226 214.349 Q657.351 212.497 657.351 207.636 L657.351 193.562 L654.226 193.562 L654.226 190.252 L657.351 190.252 L657.351 182.891 L661.633 182.891 Z" fill="#000000" fill-rule="nonzero" fill-opacity="1" /><path clip-path="url(#clip660)" d="M697.559 200.529 L697.559 216.178 L693.3 216.178 L693.3 200.668 Q693.3 196.988 691.865 195.159 Q690.429 193.33 687.559 193.33 Q684.11 193.33 682.119 195.53 Q680.129 197.729 680.129 201.525 L680.129 216.178 L675.846 216.178 L675.846 180.159 L680.129 180.159 L680.129 194.28 Q681.656 191.942 683.716 190.784 Q685.8 189.627 688.508 189.627 Q692.976 189.627 695.267 192.405 Q697.559 195.159 697.559 200.529 Z" fill="#000000" fill-rule="nonzero" fill-opacity="1" /><polyline clip-path="url(#clip660)" style="stroke:#3da44d; stroke-linecap:round; stroke-linejoin:round; stroke-width:4; stroke-opacity:1; fill:none" stroke-dasharray="16, 10" points="289.884,250.738 433.805,250.738 "/>
<path clip-path="url(#clip660)" d="M457.792 233.458 L487.028 233.458 L487.028 237.393 L474.759 237.393 L474.759 268.018 L470.06 268.018 L470.06 237.393 L457.792 237.393 L457.792 233.458 Z" fill="#000000" fill-rule="nonzero" fill-opacity="1" /><path clip-path="url(#clip660)" d="M499.412 246.073 Q498.694 245.657 497.838 245.471 Q497.005 245.263 495.986 245.263 Q492.375 245.263 490.43 247.624 Q488.509 249.962 488.509 254.36 L488.509 268.018 L484.227 268.018 L484.227 242.092 L488.509 242.092 L488.509 246.12 Q489.852 243.758 492.005 242.624 Q494.157 241.467 497.236 241.467 Q497.676 241.467 498.208 241.536 Q498.741 241.583 499.389 241.698 L499.412 246.073 Z" fill="#000000" fill-rule="nonzero" fill-opacity="1" /><path clip-path="url(#clip660)" d="M503.44 257.786 L503.44 242.092 L507.699 242.092 L507.699 257.624 Q507.699 261.305 509.134 263.156 Q510.569 264.985 513.44 264.985 Q516.889 264.985 518.879 262.786 Q520.893 260.587 520.893 256.791 L520.893 242.092 L525.153 242.092 L525.153 268.018 L520.893 268.018 L520.893 264.036 Q519.342 266.397 517.282 267.555 Q515.245 268.689 512.537 268.689 Q508.069 268.689 505.754 265.911 Q503.44 263.133 503.44 257.786 M514.157 241.467 L514.157 241.467 Z" fill="#000000" fill-rule="nonzero" fill-opacity="1" /><path clip-path="url(#clip660)" d="M556.101 253.99 L556.101 256.073 L536.518 256.073 Q536.796 260.471 539.157 262.786 Q541.541 265.078 545.777 265.078 Q548.231 265.078 550.523 264.476 Q552.838 263.874 555.106 262.67 L555.106 266.698 Q552.814 267.67 550.407 268.18 Q548 268.689 545.523 268.689 Q539.319 268.689 535.685 265.078 Q532.074 261.467 532.074 255.309 Q532.074 248.944 535.5 245.217 Q538.949 241.467 544.782 241.467 Q550.013 241.467 553.046 244.846 Q556.101 248.203 556.101 253.99 M551.842 252.74 Q551.796 249.245 549.875 247.161 Q547.976 245.078 544.828 245.078 Q541.264 245.078 539.111 247.092 Q536.981 249.106 536.657 252.763 L551.842 252.74 Z" fill="#000000" fill-rule="nonzero" fill-opacity="1" /><polyline clip-path="url(#clip660)" style="stroke:#c271d2; stroke-linecap:round; stroke-linejoin:round; stroke-width:4; stroke-opacity:1; fill:none" stroke-dasharray="16, 10" points="289.884,302.578 433.805,302.578 "/>
<path clip-path="url(#clip660)" d="M457.792 285.298 L487.028 285.298 L487.028 289.233 L474.759 289.233 L474.759 319.858 L470.06 319.858 L470.06 289.233 L457.792 289.233 L457.792 285.298 Z" fill="#000000" fill-rule="nonzero" fill-opacity="1" /><path clip-path="url(#clip660)" d="M499.412 297.913 Q498.694 297.497 497.838 297.311 Q497.005 297.103 495.986 297.103 Q492.375 297.103 490.43 299.464 Q488.509 301.802 488.509 306.2 L488.509 319.858 L484.227 319.858 L484.227 293.932 L488.509 293.932 L488.509 297.96 Q489.852 295.598 492.005 294.464 Q494.157 293.307 497.236 293.307 Q497.676 293.307 498.208 293.376 Q498.741 293.423 499.389 293.538 L499.412 297.913 Z" fill="#000000" fill-rule="nonzero" fill-opacity="1" /><path clip-path="url(#clip660)" d="M503.44 309.626 L503.44 293.932 L507.699 293.932 L507.699 309.464 Q507.699 313.145 509.134 314.996 Q510.569 316.825 513.44 316.825 Q516.889 316.825 518.879 314.626 Q520.893 312.427 520.893 308.631 L520.893 293.932 L525.153 293.932 L525.153 319.858 L520.893 319.858 L520.893 315.876 Q519.342 318.237 517.282 319.395 Q515.245 320.529 512.537 320.529 Q508.069 320.529 505.754 317.751 Q503.44 314.973 503.44 309.626 M514.157 293.307 L514.157 293.307 Z" fill="#000000" fill-rule="nonzero" fill-opacity="1" /><path clip-path="url(#clip660)" d="M556.101 305.83 L556.101 307.913 L536.518 307.913 Q536.796 312.311 539.157 314.626 Q541.541 316.918 545.777 316.918 Q548.231 316.918 550.523 316.316 Q552.838 315.714 555.106 314.51 L555.106 318.538 Q552.814 319.51 550.407 320.02 Q548 320.529 545.523 320.529 Q539.319 320.529 535.685 316.918 Q532.074 313.307 532.074 307.149 Q532.074 300.784 535.5 297.057 Q538.949 293.307 544.782 293.307 Q550.013 293.307 553.046 296.686 Q556.101 300.043 556.101 305.83 M551.842 304.58 Q551.796 301.085 549.875 299.001 Q547.976 296.918 544.828 296.918 Q541.264 296.918 539.111 298.932 Q536.981 300.946 536.657 304.603 L551.842 304.58 Z" fill="#000000" fill-rule="nonzero" fill-opacity="1" /></svg>
