<?xml version="1.0" encoding="utf-8"?>
<svg xmlns="http://www.w3.org/2000/svg" xmlns:xlink="http://www.w3.org/1999/xlink" width="600" height="400" viewBox="0 0 2400 1600">
<defs>
  <clipPath id="clip210">
    <rect x="0" y="0" width="2400" height="1600"/>
  </clipPath>
</defs>
<path clip-path="url(#clip210)" d="M0 1600 L2400 1600 L2400 0 L0 0  Z" fill="#ffffff" fill-rule="evenodd" fill-opacity="1"/>
<defs>
  <clipPath id="clip211">
    <rect x="480" y="0" width="1681" height="1600"/>
  </clipPath>
</defs>
<path clip-path="url(#clip210)" d="M147.709 1486.45 L2352.76 1486.45 L2352.76 47.2441 L147.709 47.2441  Z" fill="#ffffff" fill-rule="evenodd" fill-opacity="1"/>
<defs>
  <clipPath id="clip212">
    <rect x="147" y="47" width="2206" height="1440"/>
  </clipPath>
</defs>
<polyline clip-path="url(#clip212)" style="stroke:#000000; stroke-linecap:round; stroke-linejoin:round; stroke-width:2; stroke-opacity:0.1; fill:none" points="183.784,1486.45 183.784,47.2441 "/>
<polyline clip-path="url(#clip212)" style="stroke:#000000; stroke-linecap:round; stroke-linejoin:round; stroke-width:2; stroke-opacity:0.1; fill:none" points="710.425,1486.45 710.425,47.2441 "/>
<polyline clip-path="url(#clip212)" style="stroke:#000000; stroke-linecap:round; stroke-linejoin:round; stroke-width:2; stroke-opacity:0.1; fill:none" points="1237.07,1486.45 1237.07,47.2441 "/>
<polyline clip-path="url(#clip212)" style="stroke:#000000; stroke-linecap:round; stroke-linejoin:round; stroke-width:2; stroke-opacity:0.1; fill:none" points="1763.71,1486.45 1763.71,47.2441 "/>
<polyline clip-path="url(#clip212)" style="stroke:#000000; stroke-linecap:round; stroke-linejoin:round; stroke-width:2; stroke-opacity:0.1; fill:none" points="2290.35,1486.45 2290.35,47.2441 "/>
<polyline clip-path="url(#clip210)" style="stroke:#000000; stroke-linecap:round; stroke-linejoin:round; stroke-width:4; stroke-opacity:1; fill:none" points="147.709,1486.45 2352.76,1486.45 "/>
<polyline clip-path="url(#clip210)" style="stroke:#000000; stroke-linecap:round; stroke-linejoin:round; stroke-width:4; stroke-opacity:1; fill:none" points="183.784,1486.45 183.784,1467.55 "/>
<polyline clip-path="url(#clip210)" style="stroke:#000000; stroke-linecap:round; stroke-linejoin:round; stroke-width:4; stroke-opacity:1; fill:none" points="710.425,1486.45 710.425,1467.55 "/>
<polyline clip-path="url(#clip210)" style="stroke:#000000; stroke-linecap:round; stroke-linejoin:round; stroke-width:4; stroke-opacity:1; fill:none" points="1237.07,1486.45 1237.07,1467.55 "/>
<polyline clip-path="url(#clip210)" style="stroke:#000000; stroke-linecap:round; stroke-linejoin:round; stroke-width:4; stroke-opacity:1; fill:none" points="1763.71,1486.45 1763.71,1467.55 "/>
<polyline clip-path="url(#clip210)" style="stroke:#000000; stroke-linecap:round; stroke-linejoin:round; stroke-width:4; stroke-opacity:1; fill:none" points="2290.35,1486.45 2290.35,1467.55 "/>
<path clip-path="url(#clip210)" d="M183.784 1517.37 Q180.173 1517.37 178.345 1520.93 Q176.539 1524.47 176.539 1531.6 Q176.539 1538.71 178.345 1542.27 Q180.173 1545.82 183.784 1545.82 Q187.419 1545.82 189.224 1542.27 Q191.053 1538.71 191.053 1531.6 Q191.053 1524.47 189.224 1520.93 Q187.419 1517.37 183.784 1517.37 M183.784 1513.66 Q189.594 1513.66 192.65 1518.27 Q195.729 1522.85 195.729 1531.6 Q195.729 1540.33 192.65 1544.94 Q189.594 1549.52 183.784 1549.52 Q177.974 1549.52 174.895 1544.94 Q171.84 1540.33 171.84 1531.6 Q171.84 1522.85 174.895 1518.27 Q177.974 1513.66 183.784 1513.66 Z" fill="#000000" fill-rule="nonzero" fill-opacity="1" /><path clip-path="url(#clip210)" d="M689.199 1544.91 L705.518 1544.91 L705.518 1548.85 L683.574 1548.85 L683.574 1544.91 Q686.236 1542.16 690.819 1537.53 Q695.426 1532.88 696.606 1531.53 Q698.851 1529.01 699.731 1527.27 Q700.634 1525.51 700.634 1523.82 Q700.634 1521.07 698.689 1519.33 Q696.768 1517.6 693.666 1517.6 Q691.467 1517.6 689.014 1518.36 Q686.583 1519.13 683.805 1520.68 L683.805 1515.95 Q686.629 1514.82 689.083 1514.24 Q691.537 1513.66 693.574 1513.66 Q698.944 1513.66 702.138 1516.35 Q705.333 1519.03 705.333 1523.52 Q705.333 1525.65 704.523 1527.57 Q703.736 1529.47 701.629 1532.07 Q701.051 1532.74 697.949 1535.95 Q694.847 1539.15 689.199 1544.91 Z" fill="#000000" fill-rule="nonzero" fill-opacity="1" /><path clip-path="url(#clip210)" d="M725.333 1517.37 Q721.722 1517.37 719.893 1520.93 Q718.087 1524.47 718.087 1531.6 Q718.087 1538.71 719.893 1542.27 Q721.722 1545.82 725.333 1545.82 Q728.967 1545.82 730.773 1542.27 Q732.601 1538.71 732.601 1531.6 Q732.601 1524.47 730.773 1520.93 Q728.967 1517.37 725.333 1517.37 M725.333 1513.66 Q731.143 1513.66 734.198 1518.27 Q737.277 1522.85 737.277 1531.6 Q737.277 1540.33 734.198 1544.94 Q731.143 1549.52 725.333 1549.52 Q719.523 1549.52 716.444 1544.94 Q713.388 1540.33 713.388 1531.6 Q713.388 1522.85 716.444 1518.27 Q719.523 1513.66 725.333 1513.66 Z" fill="#000000" fill-rule="nonzero" fill-opacity="1" /><path clip-path="url(#clip210)" d="M1225.24 1518.36 L1213.43 1536.81 L1225.24 1536.81 L1225.24 1518.36 M1224.01 1514.29 L1229.89 1514.29 L1229.89 1536.81 L1234.82 1536.81 L1234.82 1540.7 L1229.89 1540.7 L1229.89 1548.85 L1225.24 1548.85 L1225.24 1540.7 L1209.64 1540.7 L1209.64 1536.19 L1224.01 1514.29 Z" fill="#000000" fill-rule="nonzero" fill-opacity="1" /><path clip-path="url(#clip210)" d="M1252.55 1517.37 Q1248.94 1517.37 1247.11 1520.93 Q1245.31 1524.47 1245.31 1531.6 Q1245.31 1538.71 1247.11 1542.27 Q1248.94 1545.82 1252.55 1545.82 Q1256.19 1545.82 1257.99 1542.27 Q1259.82 1538.71 1259.82 1531.6 Q1259.82 1524.47 1257.99 1520.93 Q1256.19 1517.37 1252.55 1517.37 M1252.55 1513.66 Q1258.36 1513.66 1261.42 1518.27 Q1264.5 1522.85 1264.5 1531.6 Q1264.5 1540.33 1261.42 1544.94 Q1258.36 1549.52 1252.55 1549.52 Q1246.74 1549.52 1243.66 1544.94 Q1240.61 1540.33 1240.61 1531.6 Q1240.61 1522.85 1243.66 1518.27 Q1246.74 1513.66 1252.55 1513.66 Z" fill="#000000" fill-rule="nonzero" fill-opacity="1" /><path clip-path="url(#clip210)" d="M1749.11 1529.7 Q1745.96 1529.7 1744.11 1531.86 Q1742.28 1534.01 1742.28 1537.76 Q1742.28 1541.49 1744.11 1543.66 Q1745.96 1545.82 1749.11 1545.82 Q1752.26 1545.82 1754.09 1543.66 Q1755.94 1541.49 1755.94 1537.76 Q1755.94 1534.01 1754.09 1531.86 Q1752.26 1529.7 1749.11 1529.7 M1758.4 1515.05 L1758.4 1519.31 Q1756.64 1518.48 1754.83 1518.04 Q1753.05 1517.6 1751.29 1517.6 Q1746.66 1517.6 1744.21 1520.72 Q1741.78 1523.85 1741.43 1530.17 Q1742.79 1528.15 1744.85 1527.09 Q1746.91 1526 1749.39 1526 Q1754.6 1526 1757.61 1529.17 Q1760.64 1532.32 1760.64 1537.76 Q1760.64 1543.08 1757.49 1546.3 Q1754.34 1549.52 1749.11 1549.52 Q1743.12 1549.52 1739.95 1544.94 Q1736.78 1540.33 1736.78 1531.6 Q1736.78 1523.41 1740.66 1518.55 Q1744.55 1513.66 1751.1 1513.66 Q1752.86 1513.66 1754.65 1514.01 Q1756.45 1514.36 1758.4 1515.05 Z" fill="#000000" fill-rule="nonzero" fill-opacity="1" /><path clip-path="url(#clip210)" d="M1778.7 1517.37 Q1775.09 1517.37 1773.26 1520.93 Q1771.45 1524.47 1771.45 1531.6 Q1771.45 1538.71 1773.26 1542.27 Q1775.09 1545.82 1778.7 1545.82 Q1782.33 1545.82 1784.14 1542.27 Q1785.96 1538.71 1785.96 1531.6 Q1785.96 1524.47 1784.14 1520.93 Q1782.33 1517.37 1778.7 1517.37 M1778.7 1513.66 Q1784.51 1513.66 1787.56 1518.27 Q1790.64 1522.85 1790.64 1531.6 Q1790.64 1540.33 1787.56 1544.94 Q1784.51 1549.52 1778.7 1549.52 Q1772.89 1549.52 1769.81 1544.94 Q1766.75 1540.33 1766.75 1531.6 Q1766.75 1522.85 1769.81 1518.27 Q1772.89 1513.66 1778.7 1513.66 Z" fill="#000000" fill-rule="nonzero" fill-opacity="1" /><path clip-path="url(#clip210)" d="M2275.22 1532.44 Q2271.89 1532.44 2269.97 1534.22 Q2268.07 1536 2268.07 1539.13 Q2268.07 1542.25 2269.97 1544.03 Q2271.89 1545.82 2275.22 1545.82 Q2278.56 1545.82 2280.48 1544.03 Q2282.4 1542.23 2282.4 1539.13 Q2282.4 1536 2280.48 1534.22 Q2278.58 1532.44 2275.22 1532.44 M2270.55 1530.45 Q2267.54 1529.7 2265.85 1527.64 Q2264.18 1525.58 2264.18 1522.62 Q2264.18 1518.48 2267.12 1516.07 Q2270.08 1513.66 2275.22 1513.66 Q2280.38 1513.66 2283.32 1516.07 Q2286.26 1518.48 2286.26 1522.62 Q2286.26 1525.58 2284.57 1527.64 Q2282.91 1529.7 2279.92 1530.45 Q2283.3 1531.23 2285.18 1533.52 Q2287.07 1535.82 2287.07 1539.13 Q2287.07 1544.15 2283.99 1546.83 Q2280.94 1549.52 2275.22 1549.52 Q2269.5 1549.52 2266.43 1546.83 Q2263.37 1544.15 2263.37 1539.13 Q2263.37 1535.82 2265.27 1533.52 Q2267.17 1531.23 2270.55 1530.45 M2268.83 1523.06 Q2268.83 1525.75 2270.5 1527.25 Q2272.19 1528.76 2275.22 1528.76 Q2278.23 1528.76 2279.92 1527.25 Q2281.63 1525.75 2281.63 1523.06 Q2281.63 1520.38 2279.92 1518.87 Q2278.23 1517.37 2275.22 1517.37 Q2272.19 1517.37 2270.5 1518.87 Q2268.83 1520.38 2268.83 1523.06 Z" fill="#000000" fill-rule="nonzero" fill-opacity="1" /><path clip-path="url(#clip210)" d="M2305.38 1517.37 Q2301.77 1517.37 2299.94 1520.93 Q2298.14 1524.47 2298.14 1531.6 Q2298.14 1538.71 2299.94 1542.27 Q2301.77 1545.82 2305.38 1545.82 Q2309.02 1545.82 2310.82 1542.27 Q2312.65 1538.71 2312.65 1531.6 Q2312.65 1524.47 2310.82 1520.93 Q2309.02 1517.37 2305.38 1517.37 M2305.38 1513.66 Q2311.19 1513.66 2314.25 1518.27 Q2317.33 1522.85 2317.33 1531.6 Q2317.33 1540.33 2314.25 1544.94 Q2311.19 1549.52 2305.38 1549.52 Q2299.57 1549.52 2296.49 1544.94 Q2293.44 1540.33 2293.44 1531.6 Q2293.44 1522.85 2296.49 1518.27 Q2299.57 1513.66 2305.38 1513.66 Z" fill="#000000" fill-rule="nonzero" fill-opacity="1" /><polyline clip-path="url(#clip212)" style="stroke:#000000; stroke-linecap:round; stroke-linejoin:round; stroke-width:2; stroke-opacity:0.1; fill:none" points="147.709,1183.61 2352.76,1183.61 "/>
<polyline clip-path="url(#clip212)" style="stroke:#000000; stroke-linecap:round; stroke-linejoin:round; stroke-width:2; stroke-opacity:0.1; fill:none" points="147.709,829.445 2352.76,829.445 "/>
<polyline clip-path="url(#clip212)" style="stroke:#000000; stroke-linecap:round; stroke-linejoin:round; stroke-width:2; stroke-opacity:0.1; fill:none" points="147.709,475.285 2352.76,475.285 "/>
<polyline clip-path="url(#clip212)" style="stroke:#000000; stroke-linecap:round; stroke-linejoin:round; stroke-width:2; stroke-opacity:0.1; fill:none" points="147.709,121.124 2352.76,121.124 "/>
<polyline clip-path="url(#clip210)" style="stroke:#000000; stroke-linecap:round; stroke-linejoin:round; stroke-width:4; stroke-opacity:1; fill:none" points="147.709,1486.45 147.709,47.2441 "/>
<polyline clip-path="url(#clip210)" style="stroke:#000000; stroke-linecap:round; stroke-linejoin:round; stroke-width:4; stroke-opacity:1; fill:none" points="147.709,1183.61 166.607,1183.61 "/>
<polyline clip-path="url(#clip210)" style="stroke:#000000; stroke-linecap:round; stroke-linejoin:round; stroke-width:4; stroke-opacity:1; fill:none" points="147.709,829.445 166.607,829.445 "/>
<polyline clip-path="url(#clip210)" style="stroke:#000000; stroke-linecap:round; stroke-linejoin:round; stroke-width:4; stroke-opacity:1; fill:none" points="147.709,475.285 166.607,475.285 "/>
<polyline clip-path="url(#clip210)" style="stroke:#000000; stroke-linecap:round; stroke-linejoin:round; stroke-width:4; stroke-opacity:1; fill:none" points="147.709,121.124 166.607,121.124 "/>
<path clip-path="url(#clip210)" d="M50.9921 1184.06 L80.6679 1184.06 L80.6679 1187.99 L50.9921 1187.99 L50.9921 1184.06 Z" fill="#000000" fill-rule="nonzero" fill-opacity="1" /><path clip-path="url(#clip210)" d="M90.8067 1166.33 L109.163 1166.33 L109.163 1170.26 L95.0891 1170.26 L95.0891 1178.73 Q96.1076 1178.39 97.1261 1178.22 Q98.1447 1178.04 99.1632 1178.04 Q104.95 1178.04 108.33 1181.21 Q111.709 1184.38 111.709 1189.8 Q111.709 1195.38 108.237 1198.48 Q104.765 1201.56 98.4456 1201.56 Q96.2697 1201.56 94.0012 1201.19 Q91.7558 1200.82 89.3484 1200.08 L89.3484 1195.38 Q91.4317 1196.51 93.6539 1197.07 Q95.8761 1197.62 98.353 1197.62 Q102.358 1197.62 104.696 1195.52 Q107.033 1193.41 107.033 1189.8 Q107.033 1186.19 104.696 1184.08 Q102.358 1181.97 98.353 1181.97 Q96.478 1181.97 94.603 1182.39 Q92.7512 1182.81 90.8067 1183.69 L90.8067 1166.33 Z" fill="#000000" fill-rule="nonzero" fill-opacity="1" /><path clip-path="url(#clip210)" d="M99.765 815.244 Q96.1539 815.244 94.3252 818.809 Q92.5197 822.35 92.5197 829.48 Q92.5197 836.587 94.3252 840.151 Q96.1539 843.693 99.765 843.693 Q103.399 843.693 105.205 840.151 Q107.033 836.587 107.033 829.48 Q107.033 822.35 105.205 818.809 Q103.399 815.244 99.765 815.244 M99.765 811.54 Q105.575 811.54 108.631 816.147 Q111.709 820.73 111.709 829.48 Q111.709 838.207 108.631 842.813 Q105.575 847.397 99.765 847.397 Q93.9549 847.397 90.8762 842.813 Q87.8206 838.207 87.8206 829.48 Q87.8206 820.73 90.8762 816.147 Q93.9549 811.54 99.765 811.54 Z" fill="#000000" fill-rule="nonzero" fill-opacity="1" /><path clip-path="url(#clip210)" d="M90.8067 458.005 L109.163 458.005 L109.163 461.94 L95.0891 461.94 L95.0891 470.412 Q96.1076 470.065 97.1261 469.903 Q98.1447 469.718 99.1632 469.718 Q104.95 469.718 108.33 472.889 Q111.709 476.06 111.709 481.477 Q111.709 487.056 108.237 490.158 Q104.765 493.236 98.4456 493.236 Q96.2697 493.236 94.0012 492.866 Q91.7558 492.495 89.3484 491.755 L89.3484 487.056 Q91.4317 488.19 93.6539 488.745 Q95.8761 489.301 98.353 489.301 Q102.358 489.301 104.696 487.195 Q107.033 485.088 107.033 481.477 Q107.033 477.866 104.696 475.759 Q102.358 473.653 98.353 473.653 Q96.478 473.653 94.603 474.07 Q92.7512 474.486 90.8067 475.366 L90.8067 458.005 Z" fill="#000000" fill-rule="nonzero" fill-opacity="1" /><path clip-path="url(#clip210)" d="M60.4134 134.469 L68.0522 134.469 L68.0522 108.104 L59.7421 109.77 L59.7421 105.511 L68.0059 103.844 L72.6818 103.844 L72.6818 134.469 L80.3207 134.469 L80.3207 138.404 L60.4134 138.404 L60.4134 134.469 Z" fill="#000000" fill-rule="nonzero" fill-opacity="1" /><path clip-path="url(#clip210)" d="M99.765 106.923 Q96.1539 106.923 94.3252 110.488 Q92.5197 114.03 92.5197 121.159 Q92.5197 128.266 94.3252 131.83 Q96.1539 135.372 99.765 135.372 Q103.399 135.372 105.205 131.83 Q107.033 128.266 107.033 121.159 Q107.033 114.03 105.205 110.488 Q103.399 106.923 99.765 106.923 M99.765 103.219 Q105.575 103.219 108.631 107.826 Q111.709 112.409 111.709 121.159 Q111.709 129.886 108.631 134.492 Q105.575 139.076 99.765 139.076 Q93.9549 139.076 90.8762 134.492 Q87.8206 129.886 87.8206 121.159 Q87.8206 112.409 90.8762 107.826 Q93.9549 103.219 99.765 103.219 Z" fill="#000000" fill-rule="nonzero" fill-opacity="1" /><path clip-path="url(#clip212)" d="M210.116 1074.37 L236.448 1106.55 L262.78 1098.43 L289.113 1107.58 L315.445 1096.5 L341.777 1112.85 L368.109 1109.63 L394.441 1137.75 L420.773 1141.6 L447.105 1181.85 L473.437 1182.93 L499.769 1192.74 L526.101 1191.83 L552.433 1226.54 L578.765 1258.81 L605.097 1318.52 L631.429 1337.67 L657.761 1353.49 L684.093 1346.57 L710.425 1403.71 L736.758 1408.3 L763.09 1411.39 L789.422 1431 L815.754 1407.06 L842.086 1418.75 L868.418 1394.68 L894.75 1378.73 L921.082 1375.3 L947.414 1357.46 L973.746 1316.22 L1000.08 1294.65 L1026.41 1265.72 L1052.74 1235.14 L1079.07 1210.61 L1105.41 1152.44 L1131.74 1090.68 L1158.07 1054.92 L1184.4 1003.77 L1210.73 962.166 L1237.07 919.57 L1263.4 871.525 L1289.73 853.154 L1316.06 854.649 L1342.39 824.956 L1368.73 827.177 L1395.06 788.292 L1421.39 771.714 L1447.72 750.773 L1474.06 720.596 L1500.39 694.478 L1526.72 707.185 L1553.05 692.149 L1579.38 711.789 L1605.72 707.441 L1632.05 742.988 L1658.38 805.802 L1684.71 846.942 L1711.04 909.328 L1737.38 966.579 L1763.71 995.696 L1790.04 1035.04 L1816.37 1089.84 L1842.7 1113.08 L1869.04 1122.19 L1895.37 1157.37 L1921.7 1212.76 L1948.03 1262.31 L1974.36 1314.07 L2000.7 1354.16 L2027.03 1366.98 L2053.36 1393.19 L2079.69 1370.62 L2106.02 1353.01 L2132.36 1368.39 L2158.69 1380.32 L2185.02 1384.64 L2211.35 1382.37 L2237.68 1354.32 L2264.02 1359.97 L2290.35 1316.97 L2290.35 554.023 L2264.02 604.232 L2237.68 670.706 L2211.35 717.387 L2185.02 755.981 L2158.69 818.988 L2132.36 834.98 L2106.02 842.128 L2079.69 872.661 L2053.36 864.766 L2027.03 852.574 L2000.7 819.489 L1974.36 755.726 L1948.03 729.958 L1921.7 695.111 L1895.37 649.556 L1869.04 619.27 L1842.7 586.865 L1816.37 558.944 L1790.04 517.178 L1763.71 509.733 L1737.38 456.879 L1711.04 398.232 L1684.71 366.945 L1658.38 309.462 L1632.05 227.174 L1605.72 163.281 L1579.38 104.707 L1553.05 111.109 L1526.72 98.0508 L1500.39 96.3457 L1474.06 93.575 L1447.72 87.9763 L1421.39 112.326 L1395.06 143.974 L1368.73 172.151 L1342.39 220.77 L1316.06 237.577 L1289.73 298.059 L1263.4 337.004 L1237.07 349.886 L1210.73 354.388 L1184.4 394.484 L1158.07 433.836 L1131.74 482.319 L1105.41 541.191 L1079.07 573.069 L1052.74 615.472 L1026.41 623.438 L1000.08 657.028 L973.746 677.459 L947.414 705.822 L921.082 679.641 L894.75 717.143 L868.418 719.938 L842.086 697.698 L815.754 710.384 L789.422 717.535 L763.09 739.133 L736.758 700.201 L710.425 708.481 L684.093 680.116 L657.761 689.345 L631.429 679.365 L605.097 651.528 L578.765 644.719 L552.433 626.432 L526.101 615.837 L499.769 608.231 L473.437 585.669 L447.105 570.434 L420.773 598.148 L394.441 594.372 L368.109 600.348 L341.777 599.328 L315.445 602.881 L289.113 603.392 L262.78 581.646 L236.448 599.963 L210.116 577.474  Z" fill="#009af9" fill-rule="evenodd" fill-opacity="0.5"/>
<polyline clip-path="url(#clip212)" style="stroke:#009af9; stroke-linecap:round; stroke-linejoin:round; stroke-width:4; stroke-opacity:1; fill:none" points="210.116,825.921 236.448,853.256 262.78,840.036 289.113,855.487 315.445,849.693 341.777,856.09 368.109,854.989 394.441,866.059 420.773,869.872 447.105,876.141 473.437,884.302 499.769,900.486 526.101,903.835 552.433,926.487 578.765,951.762 605.097,985.022 631.429,1008.52 657.761,1021.42 684.093,1013.34 710.425,1056.1 736.758,1054.25 763.09,1075.26 789.422,1074.27 815.754,1058.72 842.086,1058.22 868.418,1057.31 894.75,1047.94 921.082,1027.47 947.414,1031.64 973.746,996.841 1000.08,975.84 1026.41,944.578 1052.74,925.305 1079.07,891.838 1105.41,846.815 1131.74,786.499 1158.07,744.378 1184.4,699.127 1210.73,658.277 1237.07,634.728 1263.4,604.264 1289.73,575.607 1316.06,546.113 1342.39,522.863 1368.73,499.664 1395.06,466.133 1421.39,442.02 1447.72,419.375 1474.06,407.085 1500.39,395.412 1526.72,402.618 1553.05,401.629 1579.38,408.248 1605.72,435.361 1632.05,485.081 1658.38,557.632 1684.71,606.944 1711.04,653.78 1737.38,711.729 1763.71,752.715 1790.04,776.111 1816.37,824.391 1842.7,849.975 1869.04,870.728 1895.37,903.465 1921.7,953.937 1948.03,996.134 1974.36,1034.9 2000.7,1086.83 2027.03,1109.78 2053.36,1128.98 2079.69,1121.64 2106.02,1097.57 2132.36,1101.68 2158.69,1099.65 2185.02,1070.31 2211.35,1049.88 2237.68,1012.51 2264.02,982.099 2290.35,935.498 "/>
<path clip-path="url(#clip212)" d="M210.116 970.864 L236.448 996.316 L262.78 1006.71 L289.113 953.201 L315.445 967.737 L341.777 908.628 L368.109 909.07 L394.441 932.445 L420.773 959.147 L447.105 942.806 L473.437 896.31 L499.769 853.565 L526.101 847.199 L552.433 821.728 L578.765 839.244 L605.097 862.598 L631.429 916.245 L657.761 950.081 L684.093 975.945 L710.425 932.097 L736.758 1004.44 L763.09 1100.51 L789.422 1047.85 L815.754 1021.09 L842.086 1055.35 L868.418 1133.17 L894.75 1197.83 L921.082 1221.32 L947.414 1212.38 L973.746 1227.63 L1000.08 1268.55 L1026.41 1339.97 L1052.74 1261.91 L1079.07 1354.43 L1105.41 1436.08 L1131.74 1445.72 L1158.07 1443.01 L1184.4 1422.13 L1210.73 1335.07 L1237.07 1306.44 L1263.4 1280.9 L1289.73 1239.79 L1316.06 1247.6 L1342.39 1227.04 L1368.73 1177.11 L1395.06 1174.28 L1421.39 1139.03 L1447.72 1079.45 L1474.06 960.737 L1500.39 998.266 L1526.72 953.129 L1553.05 862.804 L1579.38 825.096 L1605.72 730.601 L1632.05 603.647 L1658.38 522.355 L1684.71 500.915 L1711.04 583.675 L1737.38 578.569 L1763.71 665.56 L1790.04 667.733 L1816.37 699.274 L1842.7 702.782 L1869.04 652.482 L1895.37 651.925 L1921.7 610.663 L1948.03 622.268 L1974.36 650.128 L2000.7 701.922 L2027.03 795.631 L2053.36 836.043 L2079.69 933.079 L2106.02 1010.43 L2132.36 1011.76 L2158.69 1065.25 L2185.02 1109.13 L2211.35 1157.92 L2237.68 1240.34 L2264.02 1229.15 L2290.35 1204.36 L2290.35 970.602 L2264.02 1035.2 L2237.68 1046.22 L2211.35 1005.75 L2185.02 903.823 L2158.69 875.822 L2132.36 818.01 L2106.02 794.792 L2079.69 737.2 L2053.36 652.647 L2027.03 618.07 L2000.7 523.797 L1974.36 463.717 L1948.03 447.704 L1921.7 433.572 L1895.37 467.931 L1869.04 446.68 L1842.7 502.152 L1816.37 472.931 L1790.04 454.925 L1763.71 473.047 L1737.38 434.952 L1711.04 387.157 L1684.71 330.292 L1658.38 318.077 L1632.05 405.078 L1605.72 528.493 L1579.38 647.416 L1553.05 681.243 L1526.72 776.858 L1500.39 815.217 L1474.06 751.564 L1447.72 875.093 L1421.39 968.41 L1395.06 960.168 L1368.73 993.366 L1342.39 1034.58 L1316.06 1056.87 L1289.73 1065.26 L1263.4 1093.98 L1237.07 1118.57 L1210.73 1162.68 L1184.4 1234.11 L1158.07 1267.41 L1131.74 1251.26 L1105.41 1241.16 L1079.07 1174.8 L1052.74 1062.04 L1026.41 1124.06 L1000.08 1079.74 L973.746 1037.55 L947.414 1017.5 L921.082 1004.6 L894.75 987.735 L868.418 953.78 L842.086 878.818 L815.754 831.467 L789.422 862.083 L763.09 860.059 L736.758 781.501 L710.425 734.811 L684.093 778.355 L657.761 748.278 L631.429 699.149 L605.097 671.743 L578.765 636.396 L552.433 628.069 L526.101 665.725 L499.769 679.089 L473.437 705.343 L447.105 733.12 L420.773 769.871 L394.441 741.831 L368.109 717.139 L341.777 726.963 L315.445 772.475 L289.113 764.17 L262.78 790.026 L236.448 790.673 L210.116 755.14  Z" fill="#e26f46" fill-rule="evenodd" fill-opacity="0.5"/>
<polyline clip-path="url(#clip212)" style="stroke:#e26f46; stroke-linecap:round; stroke-linejoin:round; stroke-width:4; stroke-opacity:1; fill:none" points="210.116,863.002 236.448,893.495 262.78,898.367 289.113,858.685 315.445,870.106 341.777,817.796 368.109,813.104 394.441,837.138 420.773,864.509 447.105,837.963 473.437,800.826 499.769,766.327 526.101,756.462 552.433,724.899 578.765,737.82 605.097,767.17 631.429,807.697 657.761,849.18 684.093,877.15 710.425,833.454 736.758,892.969 763.09,980.284 789.422,954.969 815.754,926.279 842.086,967.083 868.418,1043.47 894.75,1092.78 921.082,1112.96 947.414,1114.94 973.746,1132.59 1000.08,1174.14 1026.41,1232.02 1052.74,1161.97 1079.07,1264.62 1105.41,1338.62 1131.74,1348.49 1158.07,1355.21 1184.4,1328.12 1210.73,1248.87 1237.07,1212.51 1263.4,1187.44 1289.73,1152.53 1316.06,1152.23 1342.39,1130.81 1368.73,1085.24 1395.06,1067.22 1421.39,1053.72 1447.72,977.274 1474.06,856.15 1500.39,906.742 1526.72,864.993 1553.05,772.023 1579.38,736.256 1605.72,629.547 1632.05,504.363 1658.38,420.216 1684.71,415.604 1711.04,485.416 1737.38,506.76 1763.71,569.303 1790.04,561.329 1816.37,586.103 1842.7,602.467 1869.04,549.581 1895.37,559.928 1921.7,522.118 1948.03,534.986 1974.36,556.922 2000.7,612.86 2027.03,706.85 2053.36,744.345 2079.69,835.139 2106.02,902.609 2132.36,914.882 2158.69,970.536 2185.02,1006.48 2211.35,1081.84 2237.68,1143.28 2264.02,1132.17 2290.35,1087.48 "/>
<polyline clip-path="url(#clip212)" style="stroke:#3da44d; stroke-linecap:round; stroke-linejoin:round; stroke-width:4; stroke-opacity:1; fill:none" stroke-dasharray="16, 10" points="210.116,810.319 236.448,725.832 262.78,705.103 289.113,817.66 315.445,863.147 341.777,830.812 368.109,802.545 394.441,812.409 420.773,907.574 447.105,864.514 473.437,882.197 499.769,822.639 526.101,907.09 552.433,947.005 578.765,976.703 605.097,1116.15 631.429,1147.58 657.761,1118.25 684.093,936.894 710.425,952.616 736.758,934.216 763.09,859.757 789.422,912.59 815.754,935.765 842.086,994.819 868.418,963.869 894.75,963.181 921.082,953.81 947.414,1030.02 973.746,966.634 1000.08,778.32 1026.41,746.045 1052.74,794.266 1079.07,871.851 1105.41,780.483 1131.74,714.445 1158.07,713.546 1184.4,676.915 1210.73,636.71 1237.07,590.317 1263.4,539.085 1289.73,510.573 1316.06,456.975 1342.39,457.212 1368.73,528.594 1395.06,511.925 1421.39,449.734 1447.72,355.925 1474.06,336.485 1500.39,378.286 1526.72,369.763 1553.05,346.185 1579.38,402.58 1605.72,433.844 1632.05,458.305 1658.38,534.829 1684.71,691.94 1711.04,662.567 1737.38,779.886 1763.71,776.82 1790.04,903.939 1816.37,1035 1842.7,1031.37 1869.04,1075.32 1895.37,1027.23 1921.7,1026.17 1948.03,1006.59 1974.36,1081.17 2000.7,1107.61 2027.03,1127.21 2053.36,1166.25 2079.69,1213.99 2106.02,1214.16 2132.36,1251.73 2158.69,1186.44 2185.02,1201.17 2211.35,1136.12 2237.68,1094.04 2264.02,1069.02 2290.35,1078.51 "/>
<polyline clip-path="url(#clip212)" style="stroke:#c271d2; stroke-linecap:round; stroke-linejoin:round; stroke-width:4; stroke-opacity:1; fill:none" stroke-dasharray="16, 10" points="210.116,834.66 236.448,904.599 262.78,897.627 289.113,798.325 315.445,868.311 341.777,889.219 368.109,814.51 394.441,755.224 420.773,876.197 447.105,870.818 473.437,736.004 499.769,721.413 526.101,710.897 552.433,762.228 578.765,771.299 605.097,748.602 631.429,828.44 657.761,815.572 684.093,808.36 710.425,842.309 736.758,942.249 763.09,1038.18 789.422,1028.19 815.754,875.122 842.086,966.298 868.418,1134.32 894.75,1090.98 921.082,1171.3 947.414,1229.73 973.746,1238.8 1000.08,1107.58 1026.41,1127.38 1052.74,1094.11 1079.07,1267.17 1105.41,1402.97 1131.74,1390.89 1158.07,1344.52 1184.4,1233.03 1210.73,1199.44 1237.07,1204.6 1263.4,1136.96 1289.73,1096.97 1316.06,1143.04 1342.39,1037.35 1368.73,1050.19 1395.06,1090.36 1421.39,1082.36 1447.72,988.204 1474.06,832.87 1500.39,972.146 1526.72,884.877 1553.05,742.259 1579.38,665.267 1605.72,588.546 1632.05,427.873 1658.38,343.247 1684.71,314.315 1711.04,455.418 1737.38,566.024 1763.71,582.478 1790.04,568.346 1816.37,581.171 1842.7,589.48 1869.04,537.144 1895.37,548.012 1921.7,578.751 1948.03,627.025 1974.36,596.314 2000.7,656.056 2027.03,672.463 2053.36,714.979 2079.69,857.741 2106.02,921.605 2132.36,955.085 2158.69,977.581 2185.02,936.388 2211.35,1115 2237.68,1162.71 2264.02,1189.6 2290.35,1044.7 "/>
<path clip-path="url(#clip210)" d="M1818.98 354.418 L2279.25 354.418 L2279.25 95.2176 L1818.98 95.2176  Z" fill="#ffffff" fill-rule="evenodd" fill-opacity="1"/>
<polyline clip-path="url(#clip210)" style="stroke:#000000; stroke-linecap:round; stroke-linejoin:round; stroke-width:4; stroke-opacity:1; fill:none" points="1818.98,354.418 2279.25,354.418 2279.25,95.2176 1818.98,95.2176 1818.98,354.418 "/>
<polyline clip-path="url(#clip210)" style="stroke:#009af9; stroke-linecap:round; stroke-linejoin:round; stroke-width:4; stroke-opacity:1; fill:none" points="1843.48,147.058 1990.49,147.058 "/>
<path clip-path="url(#clip210)" d="M2019.66 133.62 L2019.66 146.606 L2025.54 146.606 Q2028.81 146.606 2030.59 144.916 Q2032.37 143.227 2032.37 140.102 Q2032.37 137 2030.59 135.31 Q2028.81 133.62 2025.54 133.62 L2019.66 133.62 M2014.99 129.778 L2025.54 129.778 Q2031.35 129.778 2034.32 132.416 Q2037.3 135.032 2037.3 140.102 Q2037.3 145.217 2034.32 147.833 Q2031.35 150.449 2025.54 150.449 L2019.66 150.449 L2019.66 164.338 L2014.99 164.338 L2014.99 129.778 Z" fill="#000000" fill-rule="nonzero" fill-opacity="1" /><path clip-path="url(#clip210)" d="M2043.57 129.778 L2063.44 129.778 L2063.44 133.713 L2048.25 133.713 L2048.25 143.898 L2061.95 143.898 L2061.95 147.833 L2048.25 147.833 L2048.25 164.338 L2043.57 164.338 L2043.57 129.778 Z" fill="#000000" fill-rule="nonzero" fill-opacity="1" /><path clip-path="url(#clip210)" d="M2102.25 139.176 L2102.25 143.203 Q2100.45 142.277 2098.5 141.815 Q2096.56 141.352 2094.48 141.352 Q2091.31 141.352 2089.71 142.324 Q2088.13 143.296 2088.13 145.24 Q2088.13 146.722 2089.27 147.578 Q2090.4 148.412 2093.83 149.176 L2095.29 149.5 Q2099.82 150.472 2101.72 152.254 Q2103.64 154.014 2103.64 157.185 Q2103.64 160.796 2100.77 162.902 Q2097.93 165.009 2092.93 165.009 Q2090.84 165.009 2088.57 164.592 Q2086.33 164.199 2083.83 163.388 L2083.83 158.99 Q2086.19 160.217 2088.48 160.842 Q2090.77 161.444 2093.02 161.444 Q2096.03 161.444 2097.65 160.426 Q2099.27 159.384 2099.27 157.509 Q2099.27 155.773 2098.09 154.847 Q2096.93 153.921 2092.97 153.064 L2091.49 152.717 Q2087.53 151.884 2085.77 150.171 Q2084.01 148.435 2084.01 145.426 Q2084.01 141.768 2086.61 139.778 Q2089.2 137.787 2093.97 137.787 Q2096.33 137.787 2098.41 138.134 Q2100.5 138.481 2102.25 139.176 Z" fill="#000000" fill-rule="nonzero" fill-opacity="1" /><path clip-path="url(#clip210)" d="M2130.61 143.389 Q2132.21 140.518 2134.43 139.153 Q2136.65 137.787 2139.66 137.787 Q2143.71 137.787 2145.91 140.634 Q2148.11 143.458 2148.11 148.689 L2148.11 164.338 L2143.83 164.338 L2143.83 148.828 Q2143.83 145.102 2142.51 143.296 Q2141.19 141.49 2138.48 141.49 Q2135.17 141.49 2133.25 143.69 Q2131.33 145.889 2131.33 149.685 L2131.33 164.338 L2127.05 164.338 L2127.05 148.828 Q2127.05 145.078 2125.73 143.296 Q2124.41 141.49 2121.65 141.49 Q2118.39 141.49 2116.47 143.713 Q2114.55 145.912 2114.55 149.685 L2114.55 164.338 L2110.26 164.338 L2110.26 138.412 L2114.55 138.412 L2114.55 142.44 Q2116 140.055 2118.04 138.921 Q2120.08 137.787 2122.88 137.787 Q2125.7 137.787 2127.67 139.222 Q2129.66 140.657 2130.61 143.389 Z" fill="#000000" fill-rule="nonzero" fill-opacity="1" /><path clip-path="url(#clip210)" d="M2166.65 141.398 Q2163.23 141.398 2161.24 144.083 Q2159.25 146.745 2159.25 151.398 Q2159.25 156.051 2161.21 158.736 Q2163.2 161.398 2166.65 161.398 Q2170.06 161.398 2172.05 158.713 Q2174.04 156.027 2174.04 151.398 Q2174.04 146.791 2172.05 144.106 Q2170.06 141.398 2166.65 141.398 M2166.65 137.787 Q2172.21 137.787 2175.38 141.398 Q2178.55 145.009 2178.55 151.398 Q2178.55 157.764 2175.38 161.398 Q2172.21 165.009 2166.65 165.009 Q2161.07 165.009 2157.9 161.398 Q2154.75 157.764 2154.75 151.398 Q2154.75 145.009 2157.9 141.398 Q2161.07 137.787 2166.65 137.787 Z" fill="#000000" fill-rule="nonzero" fill-opacity="1" /><path clip-path="url(#clip210)" d="M2195.66 141.398 Q2192.23 141.398 2190.24 144.083 Q2188.25 146.745 2188.25 151.398 Q2188.25 156.051 2190.22 158.736 Q2192.21 161.398 2195.66 161.398 Q2199.06 161.398 2201.05 158.713 Q2203.04 156.027 2203.04 151.398 Q2203.04 146.791 2201.05 144.106 Q2199.06 141.398 2195.66 141.398 M2195.66 137.787 Q2201.21 137.787 2204.38 141.398 Q2207.56 145.009 2207.56 151.398 Q2207.56 157.764 2204.38 161.398 Q2201.21 165.009 2195.66 165.009 Q2190.08 165.009 2186.91 161.398 Q2183.76 157.764 2183.76 151.398 Q2183.76 145.009 2186.91 141.398 Q2190.08 137.787 2195.66 137.787 Z" fill="#000000" fill-rule="nonzero" fill-opacity="1" /><path clip-path="url(#clip210)" d="M2218.83 131.051 L2218.83 138.412 L2227.6 138.412 L2227.6 141.722 L2218.83 141.722 L2218.83 155.796 Q2218.83 158.967 2219.68 159.87 Q2220.56 160.773 2223.23 160.773 L2227.6 160.773 L2227.6 164.338 L2223.23 164.338 Q2218.3 164.338 2216.42 162.509 Q2214.55 160.657 2214.55 155.796 L2214.55 141.722 L2211.42 141.722 L2211.42 138.412 L2214.55 138.412 L2214.55 131.051 L2218.83 131.051 Z" fill="#000000" fill-rule="nonzero" fill-opacity="1" /><path clip-path="url(#clip210)" d="M2254.75 148.689 L2254.75 164.338 L2250.49 164.338 L2250.49 148.828 Q2250.49 145.148 2249.06 143.319 Q2247.62 141.49 2244.75 141.49 Q2241.3 141.49 2239.31 143.69 Q2237.32 145.889 2237.32 149.685 L2237.32 164.338 L2233.04 164.338 L2233.04 128.319 L2237.32 128.319 L2237.32 142.44 Q2238.85 140.102 2240.91 138.944 Q2242.99 137.787 2245.7 137.787 Q2250.17 137.787 2252.46 140.565 Q2254.75 143.319 2254.75 148.689 Z" fill="#000000" fill-rule="nonzero" fill-opacity="1" /><polyline clip-path="url(#clip210)" style="stroke:#e26f46; stroke-linecap:round; stroke-linejoin:round; stroke-width:4; stroke-opacity:1; fill:none" points="1843.48,198.898 1990.49,198.898 "/>
<path clip-path="url(#clip210)" d="M2019.66 185.46 L2019.66 198.446 L2025.54 198.446 Q2028.81 198.446 2030.59 196.756 Q2032.37 195.067 2032.37 191.942 Q2032.37 188.84 2030.59 187.15 Q2028.81 185.46 2025.54 185.46 L2019.66 185.46 M2014.99 181.618 L2025.54 181.618 Q2031.35 181.618 2034.32 184.256 Q2037.3 186.872 2037.3 191.942 Q2037.3 197.057 2034.32 199.673 Q2031.35 202.289 2025.54 202.289 L2019.66 202.289 L2019.66 216.178 L2014.99 216.178 L2014.99 181.618 Z" fill="#000000" fill-rule="nonzero" fill-opacity="1" /><path clip-path="url(#clip210)" d="M2043.57 181.618 L2063.44 181.618 L2063.44 185.553 L2048.25 185.553 L2048.25 195.738 L2061.95 195.738 L2061.95 199.673 L2048.25 199.673 L2048.25 216.178 L2043.57 216.178 L2043.57 181.618 Z" fill="#000000" fill-rule="nonzero" fill-opacity="1" /><path clip-path="url(#clip210)" d="M2102.25 191.016 L2102.25 195.043 Q2100.45 194.117 2098.5 193.655 Q2096.56 193.192 2094.48 193.192 Q2091.31 193.192 2089.71 194.164 Q2088.13 195.136 2088.13 197.08 Q2088.13 198.562 2089.27 199.418 Q2090.4 200.252 2093.83 201.016 L2095.29 201.34 Q2099.82 202.312 2101.72 204.094 Q2103.64 205.854 2103.64 209.025 Q2103.64 212.636 2100.77 214.742 Q2097.93 216.849 2092.93 216.849 Q2090.84 216.849 2088.57 216.432 Q2086.33 216.039 2083.83 215.228 L2083.83 210.83 Q2086.19 212.057 2088.48 212.682 Q2090.77 213.284 2093.02 213.284 Q2096.03 213.284 2097.65 212.266 Q2099.27 211.224 2099.27 209.349 Q2099.27 207.613 2098.09 206.687 Q2096.93 205.761 2092.97 204.904 L2091.49 204.557 Q2087.53 203.724 2085.77 202.011 Q2084.01 200.275 2084.01 197.266 Q2084.01 193.608 2086.61 191.618 Q2089.2 189.627 2093.97 189.627 Q2096.33 189.627 2098.41 189.974 Q2100.5 190.321 2102.25 191.016 Z" fill="#000000" fill-rule="nonzero" fill-opacity="1" /><path clip-path="url(#clip210)" d="M2130.61 195.229 Q2132.21 192.358 2134.43 190.993 Q2136.65 189.627 2139.66 189.627 Q2143.71 189.627 2145.91 192.474 Q2148.11 195.298 2148.11 200.529 L2148.11 216.178 L2143.83 216.178 L2143.83 200.668 Q2143.83 196.942 2142.51 195.136 Q2141.19 193.33 2138.48 193.33 Q2135.17 193.33 2133.25 195.53 Q2131.33 197.729 2131.33 201.525 L2131.33 216.178 L2127.05 216.178 L2127.05 200.668 Q2127.05 196.918 2125.73 195.136 Q2124.41 193.33 2121.65 193.33 Q2118.39 193.33 2116.47 195.553 Q2114.55 197.752 2114.55 201.525 L2114.55 216.178 L2110.26 216.178 L2110.26 190.252 L2114.55 190.252 L2114.55 194.28 Q2116 191.895 2118.04 190.761 Q2120.08 189.627 2122.88 189.627 Q2125.7 189.627 2127.67 191.062 Q2129.66 192.497 2130.61 195.229 Z" fill="#000000" fill-rule="nonzero" fill-opacity="1" /><path clip-path="url(#clip210)" d="M2166.65 193.238 Q2163.23 193.238 2161.24 195.923 Q2159.25 198.585 2159.25 203.238 Q2159.25 207.891 2161.21 210.576 Q2163.2 213.238 2166.65 213.238 Q2170.06 213.238 2172.05 210.553 Q2174.04 207.867 2174.04 203.238 Q2174.04 198.631 2172.05 195.946 Q2170.06 193.238 2166.65 193.238 M2166.65 189.627 Q2172.21 189.627 2175.38 193.238 Q2178.55 196.849 2178.55 203.238 Q2178.55 209.604 2175.38 213.238 Q2172.21 216.849 2166.65 216.849 Q2161.07 216.849 2157.9 213.238 Q2154.75 209.604 2154.75 203.238 Q2154.75 196.849 2157.9 193.238 Q2161.07 189.627 2166.65 189.627 Z" fill="#000000" fill-rule="nonzero" fill-opacity="1" /><path clip-path="url(#clip210)" d="M2195.66 193.238 Q2192.23 193.238 2190.24 195.923 Q2188.25 198.585 2188.25 203.238 Q2188.25 207.891 2190.22 210.576 Q2192.21 213.238 2195.66 213.238 Q2199.06 213.238 2201.05 210.553 Q2203.04 207.867 2203.04 203.238 Q2203.04 198.631 2201.05 195.946 Q2199.06 193.238 2195.66 193.238 M2195.66 189.627 Q2201.21 189.627 2204.38 193.238 Q2207.56 196.849 2207.56 203.238 Q2207.56 209.604 2204.38 213.238 Q2201.21 216.849 2195.66 216.849 Q2190.08 216.849 2186.91 213.238 Q2183.76 209.604 2183.76 203.238 Q2183.76 196.849 2186.91 193.238 Q2190.08 189.627 2195.66 189.627 Z" fill="#000000" fill-rule="nonzero" fill-opacity="1" /><path clip-path="url(#clip210)" d="M2218.83 182.891 L2218.83 190.252 L2227.6 190.252 L2227.6 193.562 L2218.83 193.562 L2218.83 207.636 Q2218.83 210.807 2219.68 211.71 Q2220.56 212.613 2223.23 212.613 L2227.6 212.613 L2227.6 216.178 L2223.23 216.178 Q2218.3 216.178 2216.42 214.349 Q2214.55 212.497 2214.55 207.636 L2214.55 193.562 L2211.42 193.562 L2211.42 190.252 L2214.55 190.252 L2214.55 182.891 L2218.83 182.891 Z" fill="#000000" fill-rule="nonzero" fill-opacity="1" /><path clip-path="url(#clip210)" d="M2254.75 200.529 L2254.75 216.178 L2250.49 216.178 L2250.49 200.668 Q2250.49 196.988 2249.06 195.159 Q2247.62 193.33 2244.75 193.33 Q2241.3 193.33 2239.31 195.53 Q2237.32 197.729 2237.32 201.525 L2237.32 216.178 L2233.04 216.178 L2233.04 180.159 L2237.32 180.159 L2237.32 194.28 Q2238.85 191.942 2240.91 190.784 Q2242.99 189.627 2245.7 189.627 Q2250.17 189.627 2252.46 192.405 Q2254.75 195.159 2254.75 200.529 Z" fill="#000000" fill-rule="nonzero" fill-opacity="1" /><polyline clip-path="url(#clip210)" style="stroke:#3da44d; stroke-linecap:round; stroke-linejoin:round; stroke-width:4; stroke-opacity:1; fill:none" stroke-dasharray="16, 10" points="1843.48,250.738 1990.49,250.738 "/>
<path clip-path="url(#clip210)" d="M2014.99 233.458 L2044.22 233.458 L2044.22 237.393 L2031.95 237.393 L2031.95 268.018 L2027.26 268.018 L2027.26 237.393 L2014.99 237.393 L2014.99 233.458 Z" fill="#000000" fill-rule="nonzero" fill-opacity="1" /><path clip-path="url(#clip210)" d="M2056.61 246.073 Q2055.89 245.657 2055.03 245.471 Q2054.2 245.263 2053.18 245.263 Q2049.57 245.263 2047.63 247.624 Q2045.7 249.962 2045.7 254.36 L2045.7 268.018 L2041.42 268.018 L2041.42 242.092 L2045.7 242.092 L2045.7 246.12 Q2047.05 243.758 2049.2 242.624 Q2051.35 241.467 2054.43 241.467 Q2054.87 241.467 2055.4 241.536 Q2055.94 241.583 2056.58 241.698 L2056.61 246.073 Z" fill="#000000" fill-rule="nonzero" fill-opacity="1" /><path clip-path="url(#clip210)" d="M2060.63 257.786 L2060.63 242.092 L2064.89 242.092 L2064.89 257.624 Q2064.89 261.305 2066.33 263.156 Q2067.76 264.985 2070.63 264.985 Q2074.08 264.985 2076.07 262.786 Q2078.09 260.587 2078.09 256.791 L2078.09 242.092 L2082.35 242.092 L2082.35 268.018 L2078.09 268.018 L2078.09 264.036 Q2076.54 266.397 2074.48 267.555 Q2072.44 268.689 2069.73 268.689 Q2065.26 268.689 2062.95 265.911 Q2060.63 263.133 2060.63 257.786 M2071.35 241.467 L2071.35 241.467 Z" fill="#000000" fill-rule="nonzero" fill-opacity="1" /><path clip-path="url(#clip210)" d="M2113.3 253.99 L2113.3 256.073 L2093.71 256.073 Q2093.99 260.471 2096.35 262.786 Q2098.74 265.078 2102.97 265.078 Q2105.43 265.078 2107.72 264.476 Q2110.03 263.874 2112.3 262.67 L2112.3 266.698 Q2110.01 267.67 2107.6 268.18 Q2105.19 268.689 2102.72 268.689 Q2096.51 268.689 2092.88 265.078 Q2089.27 261.467 2089.27 255.309 Q2089.27 248.944 2092.69 245.217 Q2096.14 241.467 2101.98 241.467 Q2107.21 241.467 2110.24 244.846 Q2113.3 248.203 2113.3 253.99 M2109.04 252.74 Q2108.99 249.245 2107.07 247.161 Q2105.17 245.078 2102.02 245.078 Q2098.46 245.078 2096.31 247.092 Q2094.18 249.106 2093.85 252.763 L2109.04 252.74 Z" fill="#000000" fill-rule="nonzero" fill-opacity="1" /><polyline clip-path="url(#clip210)" style="stroke:#c271d2; stroke-linecap:round; stroke-linejoin:round; stroke-width:4; stroke-opacity:1; fill:none" stroke-dasharray="16, 10" points="1843.48,302.578 1990.49,302.578 "/>
<path clip-path="url(#clip210)" d="M2014.99 285.298 L2044.22 285.298 L2044.22 289.233 L2031.95 289.233 L2031.95 319.858 L2027.26 319.858 L2027.26 289.233 L2014.99 289.233 L2014.99 285.298 Z" fill="#000000" fill-rule="nonzero" fill-opacity="1" /><path clip-path="url(#clip210)" d="M2056.61 297.913 Q2055.89 297.497 2055.03 297.311 Q2054.2 297.103 2053.18 297.103 Q2049.57 297.103 2047.63 299.464 Q2045.7 301.802 2045.7 306.2 L2045.7 319.858 L2041.42 319.858 L2041.42 293.932 L2045.7 293.932 L2045.7 297.96 Q2047.05 295.598 2049.2 294.464 Q2051.35 293.307 2054.43 293.307 Q2054.87 293.307 2055.4 293.376 Q2055.94 293.423 2056.58 293.538 L2056.61 297.913 Z" fill="#000000" fill-rule="nonzero" fill-opacity="1" /><path clip-path="url(#clip210)" d="M2060.63 309.626 L2060.63 293.932 L2064.89 293.932 L2064.89 309.464 Q2064.89 313.145 2066.33 314.996 Q2067.76 316.825 2070.63 316.825 Q2074.08 316.825 2076.07 314.626 Q2078.09 312.427 2078.09 308.631 L2078.09 293.932 L2082.35 293.932 L2082.35 319.858 L2078.09 319.858 L2078.09 315.876 Q2076.54 318.237 2074.48 319.395 Q2072.44 320.529 2069.73 320.529 Q2065.26 320.529 2062.95 317.751 Q2060.63 314.973 2060.63 309.626 M2071.35 293.307 L2071.35 293.307 Z" fill="#000000" fill-rule="nonzero" fill-opacity="1" /><path clip-path="url(#clip210)" d="M2113.3 305.83 L2113.3 307.913 L2093.71 307.913 Q2093.99 312.311 2096.35 314.626 Q2098.74 316.918 2102.97 316.918 Q2105.43 316.918 2107.72 316.316 Q2110.03 315.714 2112.3 314.51 L2112.3 318.538 Q2110.01 319.51 2107.6 320.02 Q2105.19 320.529 2102.72 320.529 Q2096.51 320.529 2092.88 316.918 Q2089.27 313.307 2089.27 307.149 Q2089.27 300.784 2092.69 297.057 Q2096.14 293.307 2101.98 293.307 Q2107.21 293.307 2110.24 296.686 Q2113.3 300.043 2113.3 305.83 M2109.04 304.58 Q2108.99 301.085 2107.07 299.001 Q2105.17 296.918 2102.02 296.918 Q2098.46 296.918 2096.31 298.932 Q2094.18 300.946 2093.85 304.603 L2109.04 304.58 Z" fill="#000000" fill-rule="nonzero" fill-opacity="1" /></svg>
