<?xml version="1.0" encoding="utf-8"?>
<svg xmlns="http://www.w3.org/2000/svg" xmlns:xlink="http://www.w3.org/1999/xlink" width="600" height="400" viewBox="0 0 2400 1600">
<defs>
  <clipPath id="clip090">
    <rect x="0" y="0" width="2400" height="1600"/>
  </clipPath>
</defs>
<path clip-path="url(#clip090)" d="M0 1600 L2400 1600 L2400 0 L0 0  Z" fill="#ffffff" fill-rule="evenodd" fill-opacity="1"/>
<defs>
  <clipPath id="clip091">
    <rect x="177" y="47" width="2176" height="1440"/>
  </clipPath>
</defs>
<path clip-path="url(#clip090)" d="M177.871 1486.45 L2352.76 1486.45 L2352.76 47.2441 L177.871 47.2441  Z" fill="#ffffff" fill-rule="evenodd" fill-opacity="1"/>
<polyline clip-path="url(#clip091)" style="stroke:#000000; stroke-linecap:round; stroke-linejoin:round; stroke-width:2; stroke-opacity:0.1; fill:none" points="386.171,1486.45 386.171,47.2441 "/>
<polyline clip-path="url(#clip091)" style="stroke:#000000; stroke-linecap:round; stroke-linejoin:round; stroke-width:2; stroke-opacity:0.1; fill:none" points="812.716,1486.45 812.716,47.2441 "/>
<polyline clip-path="url(#clip091)" style="stroke:#000000; stroke-linecap:round; stroke-linejoin:round; stroke-width:2; stroke-opacity:0.1; fill:none" points="1239.26,1486.45 1239.26,47.2441 "/>
<polyline clip-path="url(#clip091)" style="stroke:#000000; stroke-linecap:round; stroke-linejoin:round; stroke-width:2; stroke-opacity:0.1; fill:none" points="1665.81,1486.45 1665.81,47.2441 "/>
<polyline clip-path="url(#clip091)" style="stroke:#000000; stroke-linecap:round; stroke-linejoin:round; stroke-width:2; stroke-opacity:0.1; fill:none" points="2092.35,1486.45 2092.35,47.2441 "/>
<polyline clip-path="url(#clip091)" style="stroke:#000000; stroke-linecap:round; stroke-linejoin:round; stroke-width:2; stroke-opacity:0.1; fill:none" points="177.871,1480.66 2352.76,1480.66 "/>
<polyline clip-path="url(#clip091)" style="stroke:#000000; stroke-linecap:round; stroke-linejoin:round; stroke-width:2; stroke-opacity:0.1; fill:none" points="177.871,1174.52 2352.76,1174.52 "/>
<polyline clip-path="url(#clip091)" style="stroke:#000000; stroke-linecap:round; stroke-linejoin:round; stroke-width:2; stroke-opacity:0.1; fill:none" points="177.871,868.381 2352.76,868.381 "/>
<polyline clip-path="url(#clip091)" style="stroke:#000000; stroke-linecap:round; stroke-linejoin:round; stroke-width:2; stroke-opacity:0.1; fill:none" points="177.871,562.244 2352.76,562.244 "/>
<polyline clip-path="url(#clip091)" style="stroke:#000000; stroke-linecap:round; stroke-linejoin:round; stroke-width:2; stroke-opacity:0.1; fill:none" points="177.871,256.107 2352.76,256.107 "/>
<polyline clip-path="url(#clip090)" style="stroke:#000000; stroke-linecap:round; stroke-linejoin:round; stroke-width:4; stroke-opacity:1; fill:none" points="177.871,1486.45 2352.76,1486.45 "/>
<polyline clip-path="url(#clip090)" style="stroke:#000000; stroke-linecap:round; stroke-linejoin:round; stroke-width:4; stroke-opacity:1; fill:none" points="386.171,1486.45 386.171,1467.55 "/>
<polyline clip-path="url(#clip090)" style="stroke:#000000; stroke-linecap:round; stroke-linejoin:round; stroke-width:4; stroke-opacity:1; fill:none" points="812.716,1486.45 812.716,1467.55 "/>
<polyline clip-path="url(#clip090)" style="stroke:#000000; stroke-linecap:round; stroke-linejoin:round; stroke-width:4; stroke-opacity:1; fill:none" points="1239.26,1486.45 1239.26,1467.55 "/>
<polyline clip-path="url(#clip090)" style="stroke:#000000; stroke-linecap:round; stroke-linejoin:round; stroke-width:4; stroke-opacity:1; fill:none" points="1665.81,1486.45 1665.81,1467.55 "/>
<polyline clip-path="url(#clip090)" style="stroke:#000000; stroke-linecap:round; stroke-linejoin:round; stroke-width:4; stroke-opacity:1; fill:none" points="2092.35,1486.45 2092.35,1467.55 "/>
<path clip-path="url(#clip090)" d="M340.233 1532.02 L369.909 1532.02 L369.909 1535.95 L340.233 1535.95 L340.233 1532.02 Z" fill="#000000" fill-rule="nonzero" fill-opacity="1" /><path clip-path="url(#clip090)" d="M394.168 1530.21 Q397.525 1530.93 399.4 1533.2 Q401.298 1535.47 401.298 1538.8 Q401.298 1543.92 397.779 1546.72 Q394.261 1549.52 387.779 1549.52 Q385.603 1549.52 383.289 1549.08 Q380.997 1548.66 378.543 1547.81 L378.543 1543.29 Q380.488 1544.43 382.803 1545.01 Q385.117 1545.58 387.64 1545.58 Q392.039 1545.58 394.33 1543.85 Q396.645 1542.11 396.645 1538.8 Q396.645 1535.75 394.492 1534.03 Q392.363 1532.3 388.543 1532.3 L384.515 1532.3 L384.515 1528.45 L388.728 1528.45 Q392.177 1528.45 394.006 1527.09 Q395.835 1525.7 395.835 1523.11 Q395.835 1520.45 393.937 1519.03 Q392.062 1517.6 388.543 1517.6 Q386.622 1517.6 384.423 1518.01 Q382.224 1518.43 379.585 1519.31 L379.585 1515.14 Q382.247 1514.4 384.562 1514.03 Q386.9 1513.66 388.96 1513.66 Q394.284 1513.66 397.386 1516.09 Q400.488 1518.5 400.488 1522.62 Q400.488 1525.49 398.844 1527.48 Q397.201 1529.45 394.168 1530.21 Z" fill="#000000" fill-rule="nonzero" fill-opacity="1" /><path clip-path="url(#clip090)" d="M420.163 1517.37 Q416.552 1517.37 414.724 1520.93 Q412.918 1524.47 412.918 1531.6 Q412.918 1538.71 414.724 1542.27 Q416.552 1545.82 420.163 1545.82 Q423.798 1545.82 425.603 1542.27 Q427.432 1538.71 427.432 1531.6 Q427.432 1524.47 425.603 1520.93 Q423.798 1517.37 420.163 1517.37 M420.163 1513.66 Q425.974 1513.66 429.029 1518.27 Q432.108 1522.85 432.108 1531.6 Q432.108 1540.33 429.029 1544.94 Q425.974 1549.52 420.163 1549.52 Q414.353 1549.52 411.275 1544.94 Q408.219 1540.33 408.219 1531.6 Q408.219 1522.85 411.275 1518.27 Q414.353 1513.66 420.163 1513.66 Z" fill="#000000" fill-rule="nonzero" fill-opacity="1" /><path clip-path="url(#clip090)" d="M812.716 1517.37 Q809.105 1517.37 807.277 1520.93 Q805.471 1524.47 805.471 1531.6 Q805.471 1538.71 807.277 1542.27 Q809.105 1545.82 812.716 1545.82 Q816.351 1545.82 818.156 1542.27 Q819.985 1538.71 819.985 1531.6 Q819.985 1524.47 818.156 1520.93 Q816.351 1517.37 812.716 1517.37 M812.716 1513.66 Q818.527 1513.66 821.582 1518.27 Q824.661 1522.85 824.661 1531.6 Q824.661 1540.33 821.582 1544.94 Q818.527 1549.52 812.716 1549.52 Q806.906 1549.52 803.828 1544.94 Q800.772 1540.33 800.772 1531.6 Q800.772 1522.85 803.828 1518.27 Q806.906 1513.66 812.716 1513.66 Z" fill="#000000" fill-rule="nonzero" fill-opacity="1" /><path clip-path="url(#clip090)" d="M1228.1 1530.21 Q1231.46 1530.93 1233.34 1533.2 Q1235.23 1535.47 1235.23 1538.8 Q1235.23 1543.92 1231.72 1546.72 Q1228.2 1549.52 1221.72 1549.52 Q1219.54 1549.52 1217.23 1549.08 Q1214.93 1548.66 1212.48 1547.81 L1212.48 1543.29 Q1214.42 1544.43 1216.74 1545.01 Q1219.05 1545.58 1221.58 1545.58 Q1225.98 1545.58 1228.27 1543.85 Q1230.58 1542.11 1230.58 1538.8 Q1230.58 1535.75 1228.43 1534.03 Q1226.3 1532.3 1222.48 1532.3 L1218.45 1532.3 L1218.45 1528.45 L1222.67 1528.45 Q1226.11 1528.45 1227.94 1527.09 Q1229.77 1525.7 1229.77 1523.11 Q1229.77 1520.45 1227.87 1519.03 Q1226 1517.6 1222.48 1517.6 Q1220.56 1517.6 1218.36 1518.01 Q1216.16 1518.43 1213.52 1519.31 L1213.52 1515.14 Q1216.18 1514.4 1218.5 1514.03 Q1220.84 1513.66 1222.9 1513.66 Q1228.22 1513.66 1231.32 1516.09 Q1234.42 1518.5 1234.42 1522.62 Q1234.42 1525.49 1232.78 1527.48 Q1231.14 1529.45 1228.1 1530.21 Z" fill="#000000" fill-rule="nonzero" fill-opacity="1" /><path clip-path="url(#clip090)" d="M1254.1 1517.37 Q1250.49 1517.37 1248.66 1520.93 Q1246.85 1524.47 1246.85 1531.6 Q1246.85 1538.71 1248.66 1542.27 Q1250.49 1545.82 1254.1 1545.82 Q1257.73 1545.82 1259.54 1542.27 Q1261.37 1538.71 1261.37 1531.6 Q1261.37 1524.47 1259.54 1520.93 Q1257.73 1517.37 1254.1 1517.37 M1254.1 1513.66 Q1259.91 1513.66 1262.97 1518.27 Q1266.04 1522.85 1266.04 1531.6 Q1266.04 1540.33 1262.97 1544.94 Q1259.91 1549.52 1254.1 1549.52 Q1248.29 1549.52 1245.21 1544.94 Q1242.16 1540.33 1242.16 1531.6 Q1242.16 1522.85 1245.21 1518.27 Q1248.29 1513.66 1254.1 1513.66 Z" fill="#000000" fill-rule="nonzero" fill-opacity="1" /><path clip-path="url(#clip090)" d="M1651.21 1529.7 Q1648.07 1529.7 1646.21 1531.86 Q1644.38 1534.01 1644.38 1537.76 Q1644.38 1541.49 1646.21 1543.66 Q1648.07 1545.82 1651.21 1545.82 Q1654.36 1545.82 1656.19 1543.66 Q1658.04 1541.49 1658.04 1537.76 Q1658.04 1534.01 1656.19 1531.86 Q1654.36 1529.7 1651.21 1529.7 M1660.5 1515.05 L1660.5 1519.31 Q1658.74 1518.48 1656.93 1518.04 Q1655.15 1517.6 1653.39 1517.6 Q1648.76 1517.6 1646.31 1520.72 Q1643.88 1523.85 1643.53 1530.17 Q1644.89 1528.15 1646.95 1527.09 Q1649.01 1526 1651.49 1526 Q1656.7 1526 1659.71 1529.17 Q1662.74 1532.32 1662.74 1537.76 Q1662.74 1543.08 1659.59 1546.3 Q1656.44 1549.52 1651.21 1549.52 Q1645.22 1549.52 1642.05 1544.94 Q1638.88 1540.33 1638.88 1531.6 Q1638.88 1523.41 1642.76 1518.55 Q1646.65 1513.66 1653.2 1513.66 Q1654.96 1513.66 1656.75 1514.01 Q1658.55 1514.36 1660.5 1515.05 Z" fill="#000000" fill-rule="nonzero" fill-opacity="1" /><path clip-path="url(#clip090)" d="M1680.8 1517.37 Q1677.19 1517.37 1675.36 1520.93 Q1673.55 1524.47 1673.55 1531.6 Q1673.55 1538.71 1675.36 1542.27 Q1677.19 1545.82 1680.8 1545.82 Q1684.43 1545.82 1686.24 1542.27 Q1688.06 1538.71 1688.06 1531.6 Q1688.06 1524.47 1686.24 1520.93 Q1684.43 1517.37 1680.8 1517.37 M1680.8 1513.66 Q1686.61 1513.66 1689.66 1518.27 Q1692.74 1522.85 1692.74 1531.6 Q1692.74 1540.33 1689.66 1544.94 Q1686.61 1549.52 1680.8 1549.52 Q1674.99 1549.52 1671.91 1544.94 Q1668.85 1540.33 1668.85 1531.6 Q1668.85 1522.85 1671.91 1518.27 Q1674.99 1513.66 1680.8 1513.66 Z" fill="#000000" fill-rule="nonzero" fill-opacity="1" /><path clip-path="url(#clip090)" d="M2067.48 1548.13 L2067.48 1543.87 Q2069.24 1544.7 2071.05 1545.14 Q2072.85 1545.58 2074.59 1545.58 Q2079.22 1545.58 2081.65 1542.48 Q2084.1 1539.36 2084.45 1533.01 Q2083.11 1535.01 2081.05 1536.07 Q2078.99 1537.13 2076.49 1537.13 Q2071.3 1537.13 2068.27 1534.01 Q2065.26 1530.86 2065.26 1525.42 Q2065.26 1520.1 2068.41 1516.88 Q2071.56 1513.66 2076.79 1513.66 Q2082.78 1513.66 2085.93 1518.27 Q2089.1 1522.85 2089.1 1531.6 Q2089.1 1539.77 2085.21 1544.66 Q2081.35 1549.52 2074.8 1549.52 Q2073.04 1549.52 2071.23 1549.17 Q2069.43 1548.82 2067.48 1548.13 M2076.79 1533.48 Q2079.93 1533.48 2081.76 1531.32 Q2083.62 1529.17 2083.62 1525.42 Q2083.62 1521.7 2081.76 1519.54 Q2079.93 1517.37 2076.79 1517.37 Q2073.64 1517.37 2071.79 1519.54 Q2069.96 1521.7 2069.96 1525.42 Q2069.96 1529.17 2071.79 1531.32 Q2073.64 1533.48 2076.79 1533.48 Z" fill="#000000" fill-rule="nonzero" fill-opacity="1" /><path clip-path="url(#clip090)" d="M2107.5 1517.37 Q2103.89 1517.37 2102.06 1520.93 Q2100.26 1524.47 2100.26 1531.6 Q2100.26 1538.71 2102.06 1542.27 Q2103.89 1545.82 2107.5 1545.82 Q2111.14 1545.82 2112.94 1542.27 Q2114.77 1538.71 2114.77 1531.6 Q2114.77 1524.47 2112.94 1520.93 Q2111.14 1517.37 2107.5 1517.37 M2107.5 1513.66 Q2113.31 1513.66 2116.37 1518.27 Q2119.45 1522.85 2119.45 1531.6 Q2119.45 1540.33 2116.37 1544.94 Q2113.31 1549.52 2107.5 1549.52 Q2101.69 1549.52 2098.62 1544.94 Q2095.56 1540.33 2095.56 1531.6 Q2095.56 1522.85 2098.62 1518.27 Q2101.69 1513.66 2107.5 1513.66 Z" fill="#000000" fill-rule="nonzero" fill-opacity="1" /><polyline clip-path="url(#clip090)" style="stroke:#000000; stroke-linecap:round; stroke-linejoin:round; stroke-width:4; stroke-opacity:1; fill:none" points="177.871,1486.45 177.871,47.2441 "/>
<polyline clip-path="url(#clip090)" style="stroke:#000000; stroke-linecap:round; stroke-linejoin:round; stroke-width:4; stroke-opacity:1; fill:none" points="177.871,1480.66 196.769,1480.66 "/>
<polyline clip-path="url(#clip090)" style="stroke:#000000; stroke-linecap:round; stroke-linejoin:round; stroke-width:4; stroke-opacity:1; fill:none" points="177.871,1174.52 196.769,1174.52 "/>
<polyline clip-path="url(#clip090)" style="stroke:#000000; stroke-linecap:round; stroke-linejoin:round; stroke-width:4; stroke-opacity:1; fill:none" points="177.871,868.381 196.769,868.381 "/>
<polyline clip-path="url(#clip090)" style="stroke:#000000; stroke-linecap:round; stroke-linejoin:round; stroke-width:4; stroke-opacity:1; fill:none" points="177.871,562.244 196.769,562.244 "/>
<polyline clip-path="url(#clip090)" style="stroke:#000000; stroke-linecap:round; stroke-linejoin:round; stroke-width:4; stroke-opacity:1; fill:none" points="177.871,256.107 196.769,256.107 "/>
<path clip-path="url(#clip090)" d="M50.9921 1481.11 L80.6679 1481.11 L80.6679 1485.04 L50.9921 1485.04 L50.9921 1481.11 Z" fill="#000000" fill-rule="nonzero" fill-opacity="1" /><path clip-path="url(#clip090)" d="M94.7882 1494 L111.108 1494 L111.108 1497.94 L89.1632 1497.94 L89.1632 1494 Q91.8252 1491.25 96.4085 1486.62 Q101.015 1481.96 102.196 1480.62 Q104.441 1478.1 105.321 1476.36 Q106.223 1474.6 106.223 1472.91 Q106.223 1470.16 104.279 1468.42 Q102.358 1466.69 99.2558 1466.69 Q97.0567 1466.69 94.603 1467.45 Q92.1725 1468.21 89.3947 1469.76 L89.3947 1465.04 Q92.2188 1463.91 94.6724 1463.33 Q97.1261 1462.75 99.1632 1462.75 Q104.534 1462.75 107.728 1465.44 Q110.922 1468.12 110.922 1472.61 Q110.922 1474.74 110.112 1476.66 Q109.325 1478.56 107.219 1481.15 Q106.64 1481.82 103.538 1485.04 Q100.436 1488.24 94.7882 1494 Z" fill="#000000" fill-rule="nonzero" fill-opacity="1" /><path clip-path="url(#clip090)" d="M120.969 1463.38 L139.325 1463.38 L139.325 1467.31 L125.251 1467.31 L125.251 1475.78 Q126.27 1475.44 127.288 1475.27 Q128.307 1475.09 129.325 1475.09 Q135.112 1475.09 138.492 1478.26 Q141.871 1481.43 141.871 1486.85 Q141.871 1492.43 138.399 1495.53 Q134.927 1498.61 128.607 1498.61 Q126.432 1498.61 124.163 1498.24 Q121.918 1497.87 119.51 1497.13 L119.51 1492.43 Q121.594 1493.56 123.816 1494.12 Q126.038 1494.67 128.515 1494.67 Q132.519 1494.67 134.857 1492.56 Q137.195 1490.46 137.195 1486.85 Q137.195 1483.24 134.857 1481.13 Q132.519 1479.02 128.515 1479.02 Q126.64 1479.02 124.765 1479.44 Q122.913 1479.86 120.969 1480.74 L120.969 1463.38 Z" fill="#000000" fill-rule="nonzero" fill-opacity="1" /><path clip-path="url(#clip090)" d="M129.927 1160.32 Q126.316 1160.32 124.487 1163.88 Q122.682 1167.42 122.682 1174.55 Q122.682 1181.66 124.487 1185.22 Q126.316 1188.77 129.927 1188.77 Q133.561 1188.77 135.367 1185.22 Q137.195 1181.66 137.195 1174.55 Q137.195 1167.42 135.367 1163.88 Q133.561 1160.32 129.927 1160.32 M129.927 1156.61 Q135.737 1156.61 138.793 1161.22 Q141.871 1165.8 141.871 1174.55 Q141.871 1183.28 138.793 1187.89 Q135.737 1192.47 129.927 1192.47 Q124.117 1192.47 121.038 1187.89 Q117.983 1183.28 117.983 1174.55 Q117.983 1165.8 121.038 1161.22 Q124.117 1156.61 129.927 1156.61 Z" fill="#000000" fill-rule="nonzero" fill-opacity="1" /><path clip-path="url(#clip090)" d="M94.7882 881.726 L111.108 881.726 L111.108 885.661 L89.1632 885.661 L89.1632 881.726 Q91.8252 878.971 96.4085 874.342 Q101.015 869.689 102.196 868.346 Q104.441 865.823 105.321 864.087 Q106.223 862.328 106.223 860.638 Q106.223 857.883 104.279 856.147 Q102.358 854.411 99.2558 854.411 Q97.0567 854.411 94.603 855.175 Q92.1725 855.939 89.3947 857.49 L89.3947 852.768 Q92.2188 851.633 94.6724 851.055 Q97.1261 850.476 99.1632 850.476 Q104.534 850.476 107.728 853.161 Q110.922 855.846 110.922 860.337 Q110.922 862.467 110.112 864.388 Q109.325 866.286 107.219 868.879 Q106.64 869.55 103.538 872.768 Q100.436 875.962 94.7882 881.726 Z" fill="#000000" fill-rule="nonzero" fill-opacity="1" /><path clip-path="url(#clip090)" d="M120.969 851.101 L139.325 851.101 L139.325 855.036 L125.251 855.036 L125.251 863.508 Q126.27 863.161 127.288 862.999 Q128.307 862.814 129.325 862.814 Q135.112 862.814 138.492 865.985 Q141.871 869.156 141.871 874.573 Q141.871 880.152 138.399 883.254 Q134.927 886.332 128.607 886.332 Q126.432 886.332 124.163 885.962 Q121.918 885.592 119.51 884.851 L119.51 880.152 Q121.594 881.286 123.816 881.842 Q126.038 882.397 128.515 882.397 Q132.519 882.397 134.857 880.291 Q137.195 878.184 137.195 874.573 Q137.195 870.962 134.857 868.856 Q132.519 866.749 128.515 866.749 Q126.64 866.749 124.765 867.166 Q122.913 867.582 120.969 868.462 L120.969 851.101 Z" fill="#000000" fill-rule="nonzero" fill-opacity="1" /><path clip-path="url(#clip090)" d="M89.8114 544.964 L108.168 544.964 L108.168 548.899 L94.0937 548.899 L94.0937 557.371 Q95.1123 557.024 96.1308 556.862 Q97.1493 556.677 98.1678 556.677 Q103.955 556.677 107.334 559.848 Q110.714 563.019 110.714 568.436 Q110.714 574.015 107.242 577.116 Q103.77 580.195 97.4502 580.195 Q95.2743 580.195 93.0058 579.825 Q90.7604 579.454 88.353 578.714 L88.353 574.015 Q90.4364 575.149 92.6586 575.704 Q94.8808 576.26 97.3576 576.26 Q101.362 576.26 103.7 574.154 Q106.038 572.047 106.038 568.436 Q106.038 564.825 103.7 562.718 Q101.362 560.612 97.3576 560.612 Q95.4826 560.612 93.6076 561.029 Q91.7558 561.445 89.8114 562.325 L89.8114 544.964 Z" fill="#000000" fill-rule="nonzero" fill-opacity="1" /><path clip-path="url(#clip090)" d="M129.927 548.043 Q126.316 548.043 124.487 551.607 Q122.682 555.149 122.682 562.279 Q122.682 569.385 124.487 572.95 Q126.316 576.491 129.927 576.491 Q133.561 576.491 135.367 572.95 Q137.195 569.385 137.195 562.279 Q137.195 555.149 135.367 551.607 Q133.561 548.043 129.927 548.043 M129.927 544.339 Q135.737 544.339 138.793 548.945 Q141.871 553.529 141.871 562.279 Q141.871 571.005 138.793 575.612 Q135.737 580.195 129.927 580.195 Q124.117 580.195 121.038 575.612 Q117.983 571.005 117.983 562.279 Q117.983 553.529 121.038 548.945 Q124.117 544.339 129.927 544.339 Z" fill="#000000" fill-rule="nonzero" fill-opacity="1" /><path clip-path="url(#clip090)" d="M89.5799 238.827 L111.802 238.827 L111.802 240.818 L99.2558 273.387 L94.3715 273.387 L106.177 242.762 L89.5799 242.762 L89.5799 238.827 Z" fill="#000000" fill-rule="nonzero" fill-opacity="1" /><path clip-path="url(#clip090)" d="M120.969 238.827 L139.325 238.827 L139.325 242.762 L125.251 242.762 L125.251 251.234 Q126.27 250.887 127.288 250.725 Q128.307 250.54 129.325 250.54 Q135.112 250.54 138.492 253.711 Q141.871 256.882 141.871 262.299 Q141.871 267.878 138.399 270.979 Q134.927 274.058 128.607 274.058 Q126.432 274.058 124.163 273.688 Q121.918 273.317 119.51 272.577 L119.51 267.878 Q121.594 269.012 123.816 269.567 Q126.038 270.123 128.515 270.123 Q132.519 270.123 134.857 268.016 Q137.195 265.91 137.195 262.299 Q137.195 258.688 134.857 256.581 Q132.519 254.475 128.515 254.475 Q126.64 254.475 124.765 254.892 Q122.913 255.308 120.969 256.188 L120.969 238.827 Z" fill="#000000" fill-rule="nonzero" fill-opacity="1" /><polyline clip-path="url(#clip091)" style="stroke:#0000ff; stroke-linecap:round; stroke-linejoin:round; stroke-width:4; stroke-opacity:1; fill:none" points="240.522,714.977 267.324,718.99 270.346,715.241 281.697,714.112 289.046,714.024 312.046,716.201 334.126,720.429 360.354,721.876 386.998,724.034 417.885,729.051 446.546,729.501 471.208,729.987 507.229,731.317 529.27,736.806 552.343,740.217 586.391,743.688 612.159,745.34 633.966,749.997 661.996,756.814 685.411,763.966 707.89,771.536 730.267,778.379 757.392,785.269 780.421,794.07 806.129,799.537 835.66,807.531 857.732,807.652 890.962,809.567 916.252,817.52 942.498,824.978 972.784,834.332 997.356,842.888 1023.24,849.921 1042.05,860.232 1059.53,872.436 1067.52,878.078 1087.71,881.424 1104.76,882.967 1126.1,884.401 1151.99,887.524 1177.33,896.951 1203.85,906.839 1225.55,912.187 1251.01,915.886 1282.73,918.086 1311.7,919.801 1344.07,923.975 1371.96,928.595 1397.81,931.729 1422.24,933.939 1454.33,933.914 1478.21,934.296 1504.64,933.958 1531.15,930.84 1559.52,925.208 1587.5,925.245 1614.42,923.444 1639.92,924.082 1660.4,918.37 1678.75,915.982 1695.85,909.229 1713.39,902.232 1733.51,901.016 1755.97,898.699 1777.38,899.807 1796.39,903.387 1817.71,910.511 1837.43,921.885 1858.8,934.269 1874.48,945.674 1889.86,961.981 1900.1,975.873 1907.29,990.411 1917.24,1009.4 1928.84,1027.3 1941.54,1046.2 1952.09,1057.06 1969.7,1064.12 1983.79,1066.98 1993.56,1066.69 2014.57,1061.09 2030.57,1055.71 2051.35,1036.3 2063.74,1021.77 2067.86,1001.47 2070.07,982.135 2068.96,959.596 2056.53,944.4 2038.91,936.108 2013.33,927.262 1985.18,928.525 1960.26,926.915 1939.89,923.245 1922.33,920.644 1900.25,918.731 1880.3,924.793 1859,931.408 1842.8,939.092 1820.21,942.257 1796.18,942.178 1768.98,937.986 1746.6,928.08 1724.14,917.358 1694.3,902.03 1668.41,884.564 1646.24,866.41 1631,851.204 1619.32,837.625 1603.39,823.743 1589.48,807.653 1577.74,792.418 1569.74,775.74 1569.09,760.087 1580.58,744.673 1594.3,731.794 1615.78,723.778 1634.77,722.527 1661.92,724.028 1682.3,735.833 1703.65,743.371 1718.14,749.607 1739.8,757.36 1762.27,769.01 1774.71,778.375 1791.83,789.033 1809.87,799.493 1831.02,807.621 1851.04,809.387 1872.02,809.748 1895.42,803.323 1916.07,799.072 1933.04,797.941 1951.56,805.022 1967.81,815.998 1983.14,831.347 1992.99,846.847 2001.22,867.064 2008.61,889.236 2012.95,908.288 2012.52,929.179 2012.8,940.275 2015.28,954.409 2024.76,972.982 2031.76,989.993 2042.68,1004.95 2053.84,1012.35 2066.44,1016.03 2083.99,1011.8 2103.11,1005.24 2116.87,996.827 2133.06,985.089 2143,975.677 2146.27,956.363 2137.62,939.303 2122.13,921.09 2108.46,904.36 2084.68,893.733 2054.44,890.251 2026.83,885.77 2010.8,882.702 1986.9,879.964 1966.91,877.276 1948.66,867.583 1933.24,860.868 1911.84,853.915 1896.23,852.791 1874.95,854.928 1854.7,849.469 1834.15,844.588 1814.84,843.515 1790.45,840.278 1772.58,835.961 1755.7,831.661 1733.98,829.983 1707.53,830.963 1681.47,836.101 1665.46,835.514 1660.43,828.17 1655.9,824.994 1649.18,823.833 1638.09,823.063 1629.61,822.602 1616.74,826.53 1602.65,832.699 1577.88,836.748 1557.13,840.525 1542.5,846.387 1532.46,855.193 1537.7,856.836 1551.5,854.559 1585.58,849.995 1605.42,833.253 1621.13,817.71 1626.67,802.211 1619.39,785.457 1605.43,767.74 1594.58,757.706 1583.71,736.617 1565.54,726.315 1544.43,736.528 1523.03,737.442 1495.01,732.512 1490.45,715.499 1485.93,696.248 1486.43,675.097 1490.59,659.057 1505.96,636.812 1513.51,616.236 1516.93,593.558 1500.15,581.919 1478.48,573.065 1470.08,571.206 1478.89,558.809 1498.61,547.845 1532.05,545.662 1571.02,532.405 1597.72,516.056 1615.6,492.414 1629.53,471.291 1649.79,460.777 1675.97,464.755 1699.44,470.351 1718.97,487.582 1746.3,500.142 1766.07,516.901 1775.88,537.263 1765.62,554.084 1747.91,570.165 1720.88,582.792 1688.26,589.585 1662.45,589.124 1629.93,574.702 1604.14,559.176 1592.17,539.223 1591.59,516.535 1608.66,501.136 1623.56,491.671 1645.65,477.07 1670.3,468.933 1692.9,453.366 1714.93,440.605 1734.3,439.146 1757.64,425.489 1760.67,411.703 1770.44,395.003 1782.85,389.659 1800.28,372.689 1795.33,359.451 1774.3,347.753 1769.85,346.224 1780.69,342.235 1803.52,335.547 1830.59,339.541 1855.61,342.669 1883.47,347.141 1907.59,364.803 1911.44,382.678 1908.07,394.964 1887.61,406.258 1872.13,427.943 1857.4,455.331 1846.68,487.364 1848.22,508.031 1813.55,512.263 1791.33,527.36 1759.49,533.905 1729.4,549.506 1712.33,574.223 1693.29,592.668 1666.47,588.143 1644.3,577.087 1616.9,567.7 1602.14,555.335 1575.98,538.452 1567.24,531.874 1574.43,509.851 1598.81,500.941 1633.01,495.364 1661.2,498.711 1696.39,506.611 1724.09,520.295 1733.71,541.995 1746.75,563.154 1762.29,567.219 1788.12,572.29 1810.6,582.268 1820.73,584.894 1845.46,578.499 1869.72,570.342 1888.84,560.426 1910.18,562.982 1929.58,577.608 1928.32,594.964 1928.28,616.002 1916.14,647.069 1896.33,672.537 1872.15,692.367 1850.52,722.069 1846.69,746.596 1812.67,759.64 1784.79,764.786 1758.07,779.515 1732.04,793.633 1713.79,811.763 1698.04,832.783 1672.6,855.457 1646.71,864.67 1620.16,856.734 1595.95,851.075 1564.27,846.212 1535.47,838.55 1517.04,816.738 1503.21,796.428 1473.54,774.539 1456.17,755.632 1432.33,737.859 1407.44,735.065 1377.09,741.431 1359.54,739.125 1333.95,730.329 1327.92,705.447 1312.59,696.491 1289.14,700.45 1271.64,709.109 1247.42,725.642 1241.56,732.504 1210.68,736.956 1187.09,741.322 1162.33,734.402 1140.84,718.018 1118.85,704.569 1084.72,698.967 1052.26,690.799 1030.74,685.654 1009.65,675.256 990.073,654.409 988.158,642.02 997.245,622.551 1013,601.849 1024.17,578.337 1032.12,548.319 1037.15,524.383 1023.45,503.462 1005.63,498.429 994.31,488.567 998.364,474.957 1022.75,473.853 1058.18,476.367 1099.9,474.129 1132.34,470.589 1160.05,453.595 1184.66,429.141 1208.9,409.556 1239.49,401.948 1278.28,404.578 1310.69,416.169 1340.98,431.729 1370.2,444.853 1397.15,456.22 1418.64,471.142 1454.47,477.989 1480.18,491.932 1505.7,514.158 1536.33,540.946 1563.48,557.134 1586.37,568.317 1605.18,578.835 1614.45,569.708 1634.89,560.161 1661.44,546.468 1684.35,536.078 1714.69,525.177 1747.06,523.362 1781.65,532.392 1808.87,557.174 1816.57,578.911 1812.55,610.879 1795.65,642.217 1793.27,669.304 1784.5,701.698 1784.73,736.069 1800.29,766.808 1830.62,791.897 1869.82,789.965 1892.17,792.024 1923.57,798.808 1943.16,821.365 1968.45,846.51 1988.34,877.478 2000.06,910.589 2004.72,933.456 2020.05,916.639 2055.7,920.771 2083.02,926.713 2094.77,941.515 2096.14,946.214 2096.88,950.495 2102.24,966.758 2105.53,972.82 2117.62,976.615 2133.48,979.201 2162.1,973.122 2190.41,982.095 2203.14,994.481 2216.9,1015.57 2218.51,1028.79 2221.31,1017.73 2225.28,1001.28 2225.06,973.338 2216.08,946.364 2200.35,923.238 2188.67,900.926 2188.92,881.195 2163.1,858.951 2155.5,827.12 2159.77,802.508 2178.09,791.302 2198.58,793.633 2221.82,801.401 2238.12,814.692 2250.09,834 2275.4,856.363 2290.51,877.639 2281.4,904.986 2262.02,926.416 2246.11,947.156 2215.22,959.285 2197.26,977.658 2169.73,991.389 2142.54,1013.23 2123.46,1035.01 2112.26,1058.81 2092.55,1080.94 2076.12,1103.96 2051.44,1120.44 2025.2,1131.67 1994.67,1148 1969.5,1165.73 1941.44,1175.1 1912.57,1194.08 1897.23,1211.41 1865.61,1222.88 1846.79,1236.79 1829.3,1256.53 1810.74,1284.46 1803.09,1305.26 1798.01,1325.59 1791.49,1349.9 1813.49,1370.88 1822.54,1384.91 1815.81,1408.46 1808.3,1434.17 1790.27,1437.93 1767.88,1435.81 1745.13,1418.4 1731.97,1392.53 1719.14,1370.72 1695.31,1347.14 1656.65,1321.63 1626.48,1314.34 1592.58,1312.8 1555.81,1319.85 1515.2,1329.87 1488.32,1331.03 1453.2,1320.58 1428.24,1307.87 1408.89,1284 1406.49,1250.69 1401.42,1210.65 1381.16,1184.27 1360.08,1163.15 1364.99,1131.97 1363.5,1104.71 1356.15,1080.47 1343.04,1052 1324.81,1026.69 1319.71,1000.71 1325.38,967.94 1335.19,934.639 1352.58,905.033 1369.75,874.637 1381.83,842.73 1408.22,821.247 1404.02,793.687 1388.94,768.836 1359.32,746.673 1328.13,743.225 1307.83,730.687 1297.8,705.422 1294.13,673.783 1306.41,645.233 1321.31,623.547 1343.08,615.032 1374.81,602.82 1410.33,597.81 1449.9,592.744 1488.21,593.364 1517.08,586.322 1539.79,560.488 1556.83,538.908 1584.73,526.799 1605.96,520.485 1610.31,506.133 1597.67,492.76 1576.15,477.055 1549.95,464.453 1521.62,437.826 1498.95,412.291 1486.17,386.665 1469.51,366.727 1464.84,349.056 1471.86,327.146 1489.13,317.19 1506.82,327.085 1536.84,331.221 1576.55,333.961 1610.09,342.587 1649.61,348.11 1683.53,352.305 1714.59,366.741 1738.71,372.542 1764.41,366.1 1786.54,355.108 1816.84,349.438 1847.85,349.546 1879.76,344.05 1903.6,359.504 1914.54,375.819 1919.07,370.173 1929.61,354.409 1946.44,337.402 1964.66,326.217 1987.83,311.774 2006.83,303.119 1998,303.611 1975.9,291.892 1965.64,275.074 1955.44,245.984 1958.8,216.876 1967.62,201.284 1996.28,191.097 2029.46,192.387 2054.89,198.032 2087.37,202.48 2123.23,213.751 2146.9,236.046 2151.57,264.807 2144.4,291.957 2133.85,299.987 2135.55,315.583 2139.34,338.358 2136.32,370.09 2108.32,388.272 2089.31,421.769 2061.87,444.005 2039.18,470.423 2031.06,504.781 2007.22,513.064 1971.83,513.729 1936.41,525.632 1905.06,539.356 1888.76,566.152 1877.28,596.301 1877.67,612.933 1903.89,619.118 1932.91,631.771 1969.17,645.277 2002.31,668.89 2030.7,684.578 2068.88,690.582 2103.04,690.911 2140.39,687.03 2169.96,690.588 2196.38,690.599 2207.17,676.422 2220.03,656.265 2236.03,635.918 2234.68,610.68 2231.76,592.703 2222.58,568.316 2195.91,548.126 2175.77,529.688 2151.04,514.938 2109.65,515.459 2084.06,521.654 2059.69,538.979 2042.77,558.549 2017.83,583.498 2012.86,613.337 2018.13,645.011 2021.08,674.843 2037.6,701.171 2051.45,725.959 2065.35,759.445 2079.06,790.094 2109.99,802.229 2139.94,818.876 2165.89,846.761 2185.99,869.449 2200.44,901.342 2207.79,927.331 2204.77,938.708 2172.76,940.05 2135.98,953.392 2109.65,951.307 2094.38,958.055 2074.86,963.088 2052.35,958.121 2022.25,944.225 1991.93,936.151 1955.4,939.571 1912.68,952.202 1875.12,965.95 1837.1,967.222 1793.58,974.429 1756.85,975.626 1717.44,976.82 1686.26,970.473 1651.38,974.519 1619.78,968.942 1587.72,961.726 1553.1,932.372 1526.14,916.627 1487.95,908.505 1455.01,893.798 1425.88,877.843 1395.25,856.679 1369.01,848.914 1342.4,862.458 1318.33,879.787 1289.11,895.363 1251.6,913.208 1214.19,921.618 1185.57,916.394 1158,893.86 1139.97,869.114 1123.06,838.43 1097.66,813.597 1085.83,782.716 1082.2,754.78 1085.38,732.075 1072.15,702.526 1049.07,685.022 1020.69,674.175 1000.7,652.101 993.455,621.991 990.855,598.638 980.023,570.821 987.934,544.626 1008.82,517.214 1020.58,500.772 1034.18,493.428 1043.23,479.453 1047.72,463.174 1054.71,439.91 1062.26,416.339 1067.42,387.603 1078.07,354.526 1079.38,331.183 1058.47,311.994 1038.04,298.165 1010.74,297.56 984.393,307.323 956.158,303.348 925.321,288.248 887.148,274.588 865.055,268.564 843.07,264.642 828.393,246.81 827.241,225.6 841.404,207.297 863.051,189.37 886.259,171.743 929.292,161.264 958.309,147.883 992.41,141.45 1022.27,152.497 1049.15,158.997 1083.38,155.19 1117.48,149.672 1137.11,128.646 1152.33,109.488 1165.71,88.5252 "/>
<polyline clip-path="url(#clip091)" style="stroke:#ff0000; stroke-linecap:round; stroke-linejoin:round; stroke-width:4; stroke-opacity:1; fill:none" points="239.425,714.198 269.866,720.566 272.482,711.712 293.653,713.01 297.037,713.708 324.094,719.378 340.999,722.917 369.805,722.672 394.36,724.68 424.816,731.048 451.119,727.154 472.29,728.44 514.646,731.036 526.447,739.779 551.016,741.775 593.387,744.371 611.188,744.959 630.652,752.171 664.534,759.249 684.013,766.462 706.89,774.385 730.621,779.344 761.133,785.724 779.773,795.9 807.768,798.618 840.854,808.684 856.978,802.635 898.566,808.194 916.381,821.346 943.538,827.028 976.666,837.094 996.202,844.319 1023.39,850.001 1037.83,862.454 1055.71,875.618 1059.1,876.328 1091.39,876.794 1104.99,879.647 1129.64,881.655 1156.85,887.349 1181.55,901.958 1207.94,910.616 1225.8,911.216 1253.86,913.946 1289.59,915.122 1314.26,917.143 1348.32,924.269 1372.17,929.266 1396.84,931.274 1421.53,933.294 1458.09,931.519 1475.97,932.106 1504.89,931.874 1531.23,927.943 1561.8,921.771 1589.07,927.465 1615.4,923.547 1640.1,925.567 1657.85,913.567 1675.72,914.155 1692.62,905.13 1712.13,899.778 1736,904.775 1758.91,900.134 1779.38,904.407 1796.43,907.971 1819.51,915.93 1837.55,929.119 1859.82,940.054 1871.86,948.858 1888.29,968.01 1896.11,979.08 1903.12,993.126 1915.35,1014.57 1929.21,1030.06 1942.27,1048.54 1951.72,1053.67 1975.67,1058.69 1985.93,1060.83 1993.59,1059.28 2021.58,1049.38 2032.64,1048.54 2054.36,1021.6 2060.21,1013.37 2058.98,991.093 2062.99,976.215 2061.78,953.965 2042.89,943.74 2025.8,940.164 2003.5,929.229 1976.36,936.123 1955.87,931.849 1939.61,925.31 1922.55,921.747 1897.83,919.726 1880.13,931.739 1857.21,936.368 1844.54,943.152 1816.42,940.409 1791.71,938.401 1764.41,932.694 1746.38,919.506 1723.32,911.546 1688.26,894.795 1667.67,877.945 1647.1,861.095 1635.92,849.364 1624.76,837.62 1603.38,823.758 1590.47,805.402 1580.13,790.732 1574.03,773.809 1578.14,759.029 1596.66,744.126 1606.75,733.717 1629.61,729.113 1643.2,731.942 1672.05,731.709 1685.78,747.065 1706.2,751.326 1716.41,753.445 1743.64,759.127 1765.02,772.952 1770.21,780.287 1792.42,791.173 1811.23,801.361 1835.08,806.333 1853.73,803.957 1874.99,805.256 1899.47,794.712 1917.31,795.312 1930.95,798.153 1952.39,812.003 1967.02,824.444 1980.85,839.849 1987.86,853.833 1996.69,874.479 2005.52,895.137 2008.32,911.412 2006.11,932.915 2008.72,936.601 2014.95,953.61 2030.63,975.737 2033.45,992.048 2048.12,1004.55 2058.39,1006.71 2072.06,1009.56 2092.38,1001.22 2108.46,995.146 2117.7,987.64 2135.39,975.615 2140.41,970.386 2139.96,945.16 2125.27,932.67 2107.97,916.506 2097.51,901.787 2074.41,893.827 2046.29,891.096 2022.39,886.112 2012.15,883.969 1984.04,881.251 1966.98,877.688 1949.73,861.548 1936.08,858.707 1908.8,853.013 1896.95,856.809 1870.65,860.728 1852.62,847.564 1832.16,843.302 1813.49,845.666 1786.24,839.984 1773.41,834.179 1756.38,830.616 1730.9,831.571 1701.2,834.779 1677.48,842.359 1668.91,834.302 1668.77,821.738 1661.14,823.281 1650.11,824.114 1635.67,824.236 1628.85,822.816 1611.95,831.816 1599.28,838.575 1566.99,838.11 1551.72,841.184 1542.44,848.654 1535.74,859.809 1551.01,856.723 1569.68,854.348 1600.22,848.176 1609.36,828.142 1623.68,815.468 1627.77,800.663 1618.26,783.03 1601.95,763.988 1593.38,755.943 1582.12,731.721 1562.54,724.509 1540.62,738.701 1519.4,737.403 1488.81,731.023 1490.36,712.594 1485.11,692.769 1487.48,671.412 1491.59,656.669 1509.18,632.276 1514.11,614.606 1517.3,590.36 1498.6,580.245 1475.68,572.371 1468.9,570.963 1480.62,554.737 1505.07,544.268 1544,546.141 1581.05,528.985 1599.52,514.18 1617.04,489.885 1629.52,470.77 1649.71,462.553 1677.64,465.247 1701.35,470.158 1721.02,489.738 1749.89,501.935 1767.01,517.903 1775.71,538.341 1764.07,554.554 1744.82,572.31 1716.18,585.02 1682.39,590.445 1661.2,589.159 1622.93,571.869 1601.64,558.117 1592.98,537.667 1591.93,515.711 1610.39,500.918 1623.81,491.294 1649.84,474.983 1673.43,467.476 1696.06,450.467 1717.05,439.336 1734.79,439.911 1760.79,423.625 1760.64,411.22 1773.07,392.142 1784.84,388.395 1804.85,367.81 1793.73,356.238 1768.26,344.789 1784.23,338.837 1814.52,332.751 1840.78,341.262 1861.89,342.548 1888.96,348.144 1912.04,368.361 1911.41,383.68 1908.2,395.375 1883.06,408.722 1869.04,433.666 1854.21,461.562 1845.34,493.816 1848.91,506.968 1808.36,510.96 1789.14,528.704 1755.37,534.116 1725.13,552.68 1711.02,577.734 1692.57,592.564 1665.41,586.919 1643.29,576.106 1613.57,566.811 1602.45,555.178 1571.83,536.381 1569.25,532.745 1576.62,506.319 1603.6,499.51 1640.76,494.808 1664.47,499.731 1701.77,507.47 1726.46,521.907 1731.77,541.635 1747.25,563.493 1760.83,566.309 1791.38,572.653 1813.52,583.478 1820.32,584.886 1851.53,575.824 1875.13,568.293 1891.92,559.354 1912.29,563.579 1932.85,580.269 1928.03,597.927 1929.2,619.945 1911.94,656.84 1891.89,677.596 1869.23,694.716 1845.92,727.313 1847.87,746.453 1808.16,760.057 1785.3,764.674 1755.78,780.409 1730.46,793.904 1714.53,812.505 1697.78,834.069 1669.18,859.442 1646.27,864.071 1619.84,855.413 1596,850.429 1561.11,846.29 1534.7,837.633 1515.81,814.893 1502.92,796.537 1467.05,770.27 1456.76,755.612 1429.49,737.416 1408.26,736.118 1374.38,741.555 1360.79,738.714 1331.04,729.395 1328.34,700.691 1311.36,697.152 1285.1,701.059 1268.2,710.035 1241.15,729.407 1240.31,732.358 1203.02,737.085 1183.53,742.412 1157.21,733.779 1137.66,714.063 1115.58,703.202 1077.43,698.377 1047.76,689.058 1030.81,685.519 1008.77,674.67 986.719,651.342 989.264,642.501 999.401,619.651 1016.31,598.221 1026.43,575.408 1032.3,542.382 1038.19,521.834 1022.11,502.939 1005.2,499.425 994.212,487.816 998.42,473.158 1030.52,473.611 1068.54,478.411 1109.08,474.419 1135.26,470.537 1162.23,451.312 1187.47,425.548 1210.19,408.563 1240.54,402.477 1282.76,405.036 1311.52,417.196 1342.84,432.993 1371.63,445.165 1397.06,456.639 1418.27,470.354 1458.89,478.779 1480.12,492.506 1509.07,517.144 1540.6,545.443 1562.7,556.244 1584.81,567.056 1603.52,577.171 1612.76,569.75 1637.19,559.28 1666.65,543.643 1686.85,535.414 1718.86,523.426 1751,523.891 1787.52,534.569 1812.4,561.485 1815.14,577.587 1812.23,614.312 1792.32,647.546 1793.44,669.588 1783.71,705.002 1784.98,739.607 1802.32,768.225 1834.92,793.782 1872.21,789.042 1885.85,791.883 1923.33,799.684 1942.35,822.424 1970.82,850.282 1990.86,882.671 2000.69,912.955 2003.5,929.229 2017.77,916.518 2059.55,922.102 2083.47,927.086 2093.93,941.829 2096.55,945.515 2098.37,952.177 2103.81,972.161 2106.43,975.86 2123.53,979.423 2141.42,980.023 2172.79,970.851 2197.75,985.497 2205.63,996.579 2220.59,1021.72 2218.18,1030.66 2222.18,1015.76 2227.75,994.901 2224.64,965.978 2213.12,941.584 2197.38,919.481 2188.5,898.811 2189.86,880.284 2157.07,854.654 2154.81,822.877 2160.39,802.145 2177.22,793.145 2198.48,794.455 2224.98,803.088 2239.67,815.529 2251.97,836.861 2281.37,861.768 2291.07,879.451 2279.74,908.424 2259.72,929.339 2243.89,948.013 2211.76,960.149 2195.92,978.835 2167.2,991.693 2138.68,1017.19 2122.81,1035.9 2112.97,1059.04 2092.06,1083.03 2075.35,1104.77 2049.17,1121.38 2024.59,1132.03 1990.72,1150.2 1967.93,1167.55 1940.7,1174.49 1909.41,1196.4 1898.49,1209.94 1861.95,1224.44 1847.59,1237.28 1827.34,1258.39 1808.06,1289.23 1803.98,1304.25 1798.25,1325.28 1790.89,1352.35 1817.7,1373.9 1822.12,1384.38 1814.76,1411.48 1807.38,1438.62 1789.38,1438 1764.48,1435.96 1741.09,1415.09 1730.5,1387.37 1717.43,1368.71 1691.47,1344.15 1648.39,1316 1626.98,1314.68 1591.03,1313.48 1552.6,1321.28 1509.91,1331.38 1491.93,1330.77 1451.63,1319.11 1429.3,1308.04 1407.75,1281.26 1406.65,1246.11 1400.38,1203.55 1380.61,1183.56 1360.84,1163.56 1366.61,1129.96 1363.05,1103.91 1355.23,1080.15 1342.24,1049.01 1323.38,1026.13 1319.82,1000.15 1326.43,963.737 1335.6,931.041 1354.15,903.489 1370.11,872.275 1382.65,840.376 1409.7,820.942 1402.73,794.418 1388.13,769.45 1355.72,743.918 1326.89,744.163 1309,731.048 1298.68,703.887 1294.26,668.608 1308.53,643.505 1321.12,624.304 1341.39,616.051 1377.72,601.797 1414.93,597.082 1455.54,593.078 1491.09,594.254 1514.73,586.71 1540.72,557.897 1556.63,539.443 1585.26,526.756 1604.67,521.466 1608.75,506.784 1595.07,491.538 1571.24,474.187 1545.79,462.7 1515.11,431.536 1496.34,409.065 1485.18,385.088 1469,366.267 1466.34,350.262 1472.9,326.898 1489.69,318.032 1508.33,328.061 1542.93,332.139 1585.12,334.686 1614.74,343.907 1656.13,349.381 1683.99,352.062 1715.39,367.835 1735.69,372.035 1762.62,365.251 1786.96,354.842 1820.64,349.454 1852.71,349.907 1882.99,343.821 1903.48,360.414 1913.82,374.9 1918.81,369.757 1931.19,350.703 1950.33,333.057 1967.08,324.179 1992.97,307.942 2008.89,301.978 1997.94,302.799 1969.89,287.761 1963.74,271.095 1951.44,237.775 1958.63,211.57 1968.57,201.333 2000.39,189.455 2034.97,193.508 2055.24,197.696 2093.22,202.447 2128.82,215.929 2147.75,238.277 2150.79,266.601 2143.67,292.831 2135.32,297.276 2137.34,316.183 2141.16,341.641 2135.04,377.411 2103.16,389.35 2085.26,428.927 2059.34,445.214 2037.78,471.713 2031.6,507.629 2009.63,509.27 1969.1,513.274 1932.94,527.491 1904.35,540.19 1889.52,568.171 1877.25,599.825 1878.23,609.352 1904.6,617.949 1936.18,633.843 1975.38,648.219 2008,673.69 2030.22,684.54 2071.87,690.074 2104.1,690.54 2144.75,686.523 2168.58,691.483 2194.01,690.528 2204.79,677.192 2221.36,655.726 2237.89,634.26 2234.02,608.581 2231.17,592.453 2220.49,565.391 2190.46,543.643 2173.24,527.675 2148.44,513.225 2101.11,515.821 2085.13,521.822 2058.37,541.096 2042.6,559.55 2013.41,587.666 2013.02,615.573 2018.6,647.852 2021.6,676.519 2039.83,702.124 2051.25,726.333 2066.29,763.817 2080.35,791.737 2110.24,801.092 2141.16,820.036 2168.92,850.858 2185.41,869.961 2201.36,904.628 2206.84,924.588 2204.45,933.502 2170.5,938.976 2129.93,955.63 2109.42,951.344 2096.76,958.128 2073.84,962.769 2049.93,957.773 2014.75,940.997 1987.42,935.29 1950.04,940.054 1902.58,955.275 1870.41,967.41 1834.62,966.222 1788.77,975.504 1756.41,975.027 1716.4,976.105 1689.08,970.398 1651.68,975.149 1620.96,968.733 1586.84,961.594 1546.52,924.857 1526.88,917.608 1485.99,909.06 1454.41,893.031 1426.25,877.724 1392.95,855.07 1372.52,850.809 1343.71,863.617 1317.46,880.1 1287.79,895.897 1246.23,915.489 1212.23,920.951 1188.4,915.967 1156.01,890.325 1140.64,868.259 1121.02,835.894 1095.49,811.733 1086.09,781.548 1082.63,755.772 1085.14,734.379 1069.81,699.908 1048.6,686.107 1019.78,673.849 1001.12,651.22 992.633,618.242 990.913,599.176 978.216,568.477 989.193,542.737 1011.98,513.262 1018.74,502.229 1031.39,495.543 1043.21,479.354 1048.24,461.77 1055.8,435.417 1062.52,412.004 1067.52,382.052 1080.94,347.703 1078.38,331.698 1055.59,311.518 1037.88,298.574 1009.23,298.819 981.429,308.505 954.472,302.921 919.936,286.488 881.205,272.283 867.741,269.491 844.167,264.605 828.2,245.857 827.404,224.097 843.413,205.827 866.987,186.05 889.708,169.201 939.315,157.91 960.33,146.877 993.941,141.514 1022.53,153.588 1049.45,159.147 1086.43,154.482 1120.04,149.13 1136.79,127.995 1152.7,109.773 1166.07,87.9763 "/>
<polyline clip-path="url(#clip091)" style="stroke:#3da44d; stroke-linecap:round; stroke-linejoin:round; stroke-width:4; stroke-opacity:1; fill:none" points="253.329,716.895 265.005,717.77 278.466,715.276 296.07,714.516 314.123,715.683 332.431,716.922 352.569,718.414 374.865,719.604 399.141,720.742 424.707,725.433 451.614,729.62 478.385,733.267 505.14,735.015 530.732,738.856 556.868,742.708 583.386,746.115 607.383,750.662 633.107,754.801 658.132,761.318 684.434,767.216 710.328,773.472 734.42,778.881 759.438,786.36 783.882,793.067 810.128,800.35 837.673,806.655 863.704,811.293 889.461,814.785 915.217,820.511 941.857,826.599 967.876,835.7 993.297,842.864 1015.52,851.27 1036.39,860.022 1055.46,866.886 1072.84,872.657 1091.93,877.695 1112.85,880.807 1134.74,886.351 1157.16,892.925 1179,899.366 1204.94,903.429 1229.98,908.296 1258.69,911.229 1285.24,917.099 1314.17,919.396 1342.39,923.71 1370.65,926.005 1398.34,928.798 1425.3,928.732 1451.72,930.001 1478.17,930.698 1505.31,930.539 1532.25,928.29 1558.21,927.504 1583.61,924.451 1609.92,922.815 1632.58,919.135 1655.05,916.619 1675.53,914.412 1696.06,911.458 1715.69,907.928 1736.32,907.051 1756.54,907.498 1776,910.407 1797.1,915.481 1815.38,922.447 1833.36,930.529 1851.75,941.167 1868.27,952.643 1882.06,964.345 1894.65,978.433 1906.65,993.413 1919.26,1010.47 1932.1,1023.6 1943.59,1035.06 1955.99,1043.57 1968.47,1048.82 1982.56,1052.05 1998.09,1050.04 2012.78,1044.7 2026.9,1035.86 2039.91,1025.69 2048.64,1011.86 2053.06,997.725 2051.83,982.801 2047.98,967.314 2037,953.189 2021.34,943.975 2005.29,934.145 1982.99,929.366 1959.95,926.123 1937.95,923.337 1918.25,923.508 1898.17,925.901 1877.05,925.65 1857.35,929.565 1835.9,929.754 1813.78,929.737 1791.25,929.35 1768.61,924.008 1744.71,915.74 1720.17,907.022 1696.46,896.481 1677.15,881.801 1659.19,866.915 1640.68,852.979 1624.8,837.785 1613.5,821.234 1604.27,804.962 1599.58,789.249 1597.32,775.479 1596.57,761.014 1604.41,749.781 1613.73,740.966 1628.21,737.651 1645.39,736.418 1665.37,737.024 1683.75,740.713 1703.38,746.962 1722.72,755.721 1742.44,762.307 1761.29,769.996 1779.35,777.377 1796.24,786.78 1816.54,794.925 1835.1,800.421 1854.93,802.213 1874.36,804.892 1893.85,806.048 1913.12,807.984 1931.86,812.338 1949.96,818.469 1966,827.413 1977.27,839.977 1986.09,854.145 1994.73,871.215 2000.94,888.703 2007.85,905.498 2013.21,922.398 2019.11,938.419 2025.17,954.31 2032.73,969.198 2040.82,983.188 2049.9,996.02 2063.02,999.715 2075.54,1000.09 2088.28,996.646 2098.97,988.894 2107.24,980.568 2115.58,970.135 2118.78,958.044 2119.85,946.957 2118.9,934.665 2109.3,920.092 2092.6,908.557 2074.64,897.944 2053.28,889.801 2031,884.509 2009.84,879.403 1989.16,876.298 1968.19,873.071 1949.51,866.852 1932.15,861.832 1914.4,858.926 1894.01,856.228 1872.05,851.14 1852.51,845.973 1832.18,844.498 1811.59,842.972 1790.24,840.963 1771.82,838.624 1752.64,835.333 1731.75,833.923 1711.76,833.301 1694.64,832.865 1679.74,832.552 1666.9,830.518 1655.94,828.105 1643.46,828.567 1629.74,829.161 1617.19,829.093 1603.57,832.735 1587.31,834.075 1569.03,835.694 1548.49,839.985 1532.81,855.339 1541.24,855.984 1562.08,862.042 1589.87,859.482 1597.75,844.785 1613.22,835.203 1623.49,819.049 1631.72,800.059 1621.25,783.888 1609.42,767.083 1597.5,752.225 1587.52,736.318 1565.83,734.15 1542.91,733.955 1519.85,738.242 1493.34,733.57 1482.99,713.273 1477.43,694.222 1481.39,673.215 1492.99,655.875 1509.36,638.268 1516.35,615.178 1513.1,593.048 1496.07,572.374 1471.88,568.825 1458.66,573.149 1484.14,563.14 1512.62,547.756 1543.83,541.491 1572.32,532.248 1597.85,514.766 1616.61,495.533 1622.95,471.817 1648.52,460.184 1675.37,463.117 1701.79,470.579 1719.73,489.329 1745.18,501.122 1767.05,513.133 1778.23,536.35 1764.38,556.508 1740.78,571.488 1714.22,587.15 1681.57,590.925 1652.46,586.7 1623.87,576.045 1598.73,565.825 1589.42,542.637 1587.06,519.225 1608.81,502.651 1626.84,488.409 1649.54,479.851 1668.16,462.534 1687.49,452.232 1710.61,443.712 1732.67,440.687 1749.07,429.364 1757.89,416.83 1768.74,398.851 1783.87,385.681 1794.41,370.043 1780.84,358.989 1766.89,349.449 1774.2,337.944 1793.11,333.822 1816.58,332.641 1843.39,336.974 1870.96,335.762 1896.92,347.96 1915.91,362.196 1916.06,382.698 1903.67,396.797 1886.09,413.303 1877.31,436.516 1865.92,460.949 1860.38,486.476 1846.02,506.285 1817.43,513.428 1792.31,524.592 1760.77,536.41 1737.09,555.863 1722.13,578.598 1697.15,592.232 1669.72,584.569 1645.33,574.74 1620.26,566.589 1594.24,554.49 1569.14,546.835 1563.98,521.905 1578.13,502.354 1603.57,498.21 1635.25,495.786 1666.71,493.546 1694.46,500.408 1714.06,517.337 1730.51,536.239 1746.46,555.348 1763.02,557.197 1776.72,569.789 1799.46,581.532 1826.61,584.523 1851.68,579 1873.29,568.446 1895.65,560.921 1919.22,565.404 1929.9,584.46 1927.11,607.327 1925.75,629.373 1920.14,655.708 1898.04,676.7 1876.96,700.982 1857.68,721.276 1841.98,742.42 1813,756.114 1784.19,767.366 1754.98,776.3 1727.32,791.658 1711.51,813.53 1700.72,838.539 1676.79,855.656 1650.03,862.861 1624.57,854.165 1595.53,852.598 1563.93,844.975 1538.39,831.844 1517.18,813.761 1502.06,790.435 1478.6,769.959 1460.44,749.66 1435.23,739.463 1406.19,743.082 1381.68,750.172 1354.3,743.883 1339.58,727.966 1335.12,706.154 1311.88,695.973 1288.47,702.32 1269.53,713.785 1248.6,728.357 1227.68,732.262 1206.81,747.925 1179.31,745.066 1162,727.942 1138.96,711.513 1113.31,704.79 1087.11,700.935 1058.48,699.643 1032.96,688.873 1009.01,677.726 987.876,662.137 989.738,639.823 1004.17,620.832 1015.14,601.289 1026.87,576.862 1029.98,550.624 1043.28,530.336 1023.89,513.42 1000.49,503.894 983.756,484.716 1010.81,474.495 1040.93,471.479 1072.39,477.71 1104.27,474.2 1137.59,466.174 1163.73,446.659 1184.26,421.568 1208.03,403.647 1243.08,403.726 1279,406.232 1309.89,419.201 1337.56,430.966 1369.81,441.866 1396.85,451.006 1424.82,467.669 1454.89,478.384 1478.5,498.528 1505.83,518.271 1530.99,538.688 1559.98,548.232 1572.99,566.057 1591.4,580.683 1610.73,571.48 1638.08,558.814 1665.19,545.272 1693.27,532.931 1723.4,523.41 1756.95,519.677 1786.93,533.4 1812.24,554.66 1818.03,582.117 1813.85,613.299 1799.67,642.791 1790.32,671.225 1782.99,705.424 1781.66,740.293 1802.56,770.136 1828.34,795.431 1860,790.957 1893.85,789.334 1926.19,801.315 1952.39,821.392 1968.66,850.599 1989.12,876.243 1985.91,903.595 1998.89,927.12 2022.63,917.165 2047.53,916.031 2071.62,917.334 2086.26,926.696 2087.39,939.726 2093.41,952.622 2095.96,965.772 2105.85,977.492 2122.19,975.18 2143.12,973.544 2167.89,971.696 2187.11,982.793 2200.51,999.846 2210.08,1018.21 2216.25,1030.85 2226.64,1012.32 2225.61,992.307 2223.54,968.469 2210.38,948.152 2203.18,923.484 2191.63,899.973 2177.22,877.794 2158.17,853.841 2156.67,825.736 2150.27,797.966 2170.97,781.111 2200.84,788.615 2225.14,800.768 2238.75,820.105 2260.22,836.246 2284.53,852.967 2291.2,878.526 2284.14,906.472 2263.52,926.718 2244.1,946.907 2220.73,964.339 2201.7,983.208 2169.06,992.786 2146.8,1011.71 2130.58,1036.11 2115,1060.79 2094.86,1083.33 2073.95,1104.11 2049.73,1117.08 2027.18,1131.56 1997.71,1146.44 1969.57,1163.4 1945.28,1176.8 1918.29,1194.31 1895.01,1210.8 1868.53,1222.6 1846.57,1238.99 1831.06,1259.86 1818.01,1283.32 1803.44,1303.14 1792.78,1323.83 1791.15,1348.98 1812.59,1365.91 1823.4,1389.13 1823.75,1411.75 1811.89,1433.33 1784.06,1445.72 1758.63,1431.36 1739.35,1415.69 1729.21,1390.56 1714.86,1364.93 1691.17,1340.2 1659.76,1321.8 1625.01,1311.03 1589.18,1313.85 1553.36,1318.26 1520.94,1331.06 1486.74,1333.13 1454.69,1325.14 1427.43,1306.58 1409.59,1279.26 1406.69,1248.8 1398.53,1217.61 1383.11,1189.82 1365.23,1165.96 1362.93,1137 1361.32,1106.7 1349.15,1080.35 1337.94,1053.65 1327.53,1024.52 1327.23,995.33 1320.87,964.976 1332.7,934.173 1346.62,902.463 1368.73,872.125 1391.55,846.298 1415.88,824.11 1409.76,794.312 1392.76,768.39 1364.05,753.742 1329.91,747.584 1304.35,730.782 1290.23,704.811 1290,673.655 1300.26,645.26 1320.85,621.629 1348.68,604.298 1382.01,609.957 1416.55,609.676 1450.82,602.723 1485.22,602.371 1509.58,583.4 1528.58,561.613 1553,542.092 1581.64,535.514 1611.13,534.743 1615.59,505.942 1592.26,492.268 1567.41,474.669 1541.47,456.789 1523.36,434.275 1503.88,414.263 1489.67,390.598 1468.12,370.057 1462.49,346.145 1468.76,320.657 1496.16,319.198 1521.09,325.71 1551.12,329.997 1582.83,333.77 1614.42,343.535 1646.41,347.172 1677.97,357.579 1706.25,371.332 1735.6,379.51 1761.33,364.485 1789.93,357.195 1819.12,345.071 1850.17,342.34 1881.1,346.21 1902.42,363.128 1911.31,381.154 1920.27,367.131 1932.72,346.225 1946.85,328.483 1970.02,315.237 1995.32,309.102 2012.76,304.022 1990.85,305.634 1963.45,291.304 1950.22,267.567 1946.34,241.581 1947.29,215.689 1970.48,198.009 2003.67,190.243 2032.8,198.496 2063.89,198.221 2097.3,198.096 2126.99,213.366 2141.3,235.39 2145.08,262.624 2149.22,288.526 2127.1,302.703 2151.01,320.221 2159.84,348.165 2139.99,374.699 2115.85,398.844 2088.34,420.135 2065.16,442.842 2047.53,469.647 2034.66,499.212 1999.82,504.726 1966.29,507.79 1939.04,524.841 1904.88,533.48 1884.74,559.131 1867.93,587.123 1882.42,611.013 1914.89,622.228 1944.73,633.27 1977.96,644.836 2001.84,670.603 2036.57,679.031 2069.3,689.875 2104.41,694.005 2137.08,685.605 2166.34,691.006 2194.76,693.964 2217.56,678.171 2230.76,659.963 2242,635.173 2241.6,608.785 2236.41,583.221 2224.87,557.031 2195.04,540.083 2170.18,521.377 2142.62,508.117 2111.81,512.079 2086.08,524.793 2060.34,538.007 2041.43,561.113 2021.42,584.658 2013.51,614.373 2019.41,644.355 2025.47,672.42 2042.99,700.369 2049.9,730.382 2056.57,762.497 2075.77,789.7 2109.24,803.944 2135.63,823.022 2157.7,844.643 2181.3,866.949 2201.32,891.062 2215.15,915.345 2202.41,940.727 2172.19,943.564 2145.33,949.331 2116.88,951.654 2093.52,966.274 2067.47,968.544 2047.19,950.763 2015.76,941.197 1980.06,938.718 1943.95,937.988 1911.28,953.508 1874.41,962.401 1836.16,971.151 1797.43,976.752 1760.13,979.894 1725.35,981.854 1689.45,978.543 1651.25,976.225 1614.92,970.619 1584.47,953.065 1556.34,932.781 1524.63,919.749 1486.29,911.519 1456.53,894.576 1430.88,873.11 1403.6,852.336 1366.68,848.762 1340.9,868.502 1314.11,887.125 1278.91,900.062 1248.4,918.217 1216.75,930.636 1182.98,918.288 1158.95,899.348 1137.8,871.952 1121.59,842.68 1096.83,816.387 1088.87,784.48 1093.05,757.601 1083.89,730.304 1074.45,703.267 1045.39,688.702 1019.97,673.186 1004.48,650.166 991.663,624.947 982.428,598.764 978.061,570.82 984.41,543.947 999.931,521.156 1020.11,507.519 1030.49,494.066 1041.94,478.376 1051.2,458.425 1055.35,433.899 1067.56,411.597 1075.17,385.284 1081.29,357.727 1080.37,331.583 1065.4,308.795 1039.78,303.524 1009.42,302.338 978.616,304.891 950.596,297.096 924.861,282.523 893.622,279.157 863.983,279.922 840.36,267.876 826.531,243.617 827.346,218.937 845.764,198.291 870.148,185.841 897.85,168.821 927.694,154.016 958.102,143.675 991.027,145.164 1020.2,158.925 1053.77,163.625 1086.36,160.741 1115.6,152.863 1136.48,132.933 1150.62,109.184 1160.04,91.0056 "/>
<path clip-path="url(#clip090)" d="M250.367 1438.47 L793.155 1438.47 L793.155 1231.11 L250.367 1231.11  Z" fill="#ffffff" fill-rule="evenodd" fill-opacity="1"/>
<polyline clip-path="url(#clip090)" style="stroke:#000000; stroke-linecap:round; stroke-linejoin:round; stroke-width:4; stroke-opacity:1; fill:none" points="250.367,1438.47 793.155,1438.47 793.155,1231.11 250.367,1231.11 250.367,1438.47 "/>
<polyline clip-path="url(#clip090)" style="stroke:#0000ff; stroke-linecap:round; stroke-linejoin:round; stroke-width:4; stroke-opacity:1; fill:none" points="274.533,1282.95 419.525,1282.95 "/>
<path clip-path="url(#clip090)" d="M467.718 1286.21 L467.718 1288.29 L448.135 1288.29 Q448.413 1292.69 450.774 1295 Q453.158 1297.29 457.394 1297.29 Q459.848 1297.29 462.139 1296.69 Q464.454 1296.09 466.723 1294.89 L466.723 1298.91 Q464.431 1299.89 462.024 1300.4 Q459.616 1300.91 457.14 1300.91 Q450.936 1300.91 447.302 1297.29 Q443.691 1293.68 443.691 1287.53 Q443.691 1281.16 447.116 1277.43 Q450.565 1273.68 456.399 1273.68 Q461.63 1273.68 464.663 1277.06 Q467.718 1280.42 467.718 1286.21 M463.459 1284.96 Q463.413 1281.46 461.491 1279.38 Q459.593 1277.29 456.445 1277.29 Q452.88 1277.29 450.728 1279.31 Q448.598 1281.32 448.274 1284.98 L463.459 1284.96 Z" fill="#000000" fill-rule="nonzero" fill-opacity="1" /><path clip-path="url(#clip090)" d="M491.237 1275.07 L491.237 1279.1 Q489.431 1278.17 487.487 1277.71 Q485.542 1277.25 483.459 1277.25 Q480.288 1277.25 478.69 1278.22 Q477.116 1279.19 477.116 1281.14 Q477.116 1282.62 478.251 1283.48 Q479.385 1284.31 482.811 1285.07 L484.269 1285.4 Q488.806 1286.37 490.704 1288.15 Q492.625 1289.91 492.625 1293.08 Q492.625 1296.69 489.755 1298.8 Q486.908 1300.91 481.908 1300.91 Q479.825 1300.91 477.556 1300.49 Q475.311 1300.1 472.811 1299.29 L472.811 1294.89 Q475.172 1296.11 477.463 1296.74 Q479.755 1297.34 482 1297.34 Q485.01 1297.34 486.63 1296.32 Q488.25 1295.28 488.25 1293.41 Q488.25 1291.67 487.07 1290.74 Q485.912 1289.82 481.954 1288.96 L480.473 1288.61 Q476.514 1287.78 474.755 1286.07 Q472.996 1284.33 472.996 1281.32 Q472.996 1277.67 475.588 1275.67 Q478.181 1273.68 482.95 1273.68 Q485.311 1273.68 487.394 1274.03 Q489.477 1274.38 491.237 1275.07 Z" fill="#000000" fill-rule="nonzero" fill-opacity="1" /><path clip-path="url(#clip090)" d="M503.621 1266.95 L503.621 1274.31 L512.394 1274.31 L512.394 1277.62 L503.621 1277.62 L503.621 1291.69 Q503.621 1294.86 504.477 1295.77 Q505.357 1296.67 508.019 1296.67 L512.394 1296.67 L512.394 1300.23 L508.019 1300.23 Q503.088 1300.23 501.213 1298.41 Q499.338 1296.55 499.338 1291.69 L499.338 1277.62 L496.213 1277.62 L496.213 1274.31 L499.338 1274.31 L499.338 1266.95 L503.621 1266.95 Z" fill="#000000" fill-rule="nonzero" fill-opacity="1" /><path clip-path="url(#clip090)" d="M517.996 1274.31 L522.255 1274.31 L522.255 1300.23 L517.996 1300.23 L517.996 1274.31 M517.996 1264.22 L522.255 1264.22 L522.255 1269.61 L517.996 1269.61 L517.996 1264.22 Z" fill="#000000" fill-rule="nonzero" fill-opacity="1" /><path clip-path="url(#clip090)" d="M551.352 1279.29 Q552.949 1276.42 555.171 1275.05 Q557.394 1273.68 560.403 1273.68 Q564.454 1273.68 566.653 1276.53 Q568.852 1279.35 568.852 1284.59 L568.852 1300.23 L564.569 1300.23 L564.569 1284.73 Q564.569 1281 563.25 1279.19 Q561.931 1277.39 559.222 1277.39 Q555.912 1277.39 553.991 1279.59 Q552.07 1281.79 552.07 1285.58 L552.07 1300.23 L547.787 1300.23 L547.787 1284.73 Q547.787 1280.98 546.468 1279.19 Q545.148 1277.39 542.394 1277.39 Q539.13 1277.39 537.209 1279.61 Q535.287 1281.81 535.287 1285.58 L535.287 1300.23 L531.005 1300.23 L531.005 1274.31 L535.287 1274.31 L535.287 1278.34 Q536.746 1275.95 538.783 1274.82 Q540.82 1273.68 543.621 1273.68 Q546.445 1273.68 548.412 1275.12 Q550.403 1276.55 551.352 1279.29 Z" fill="#000000" fill-rule="nonzero" fill-opacity="1" /><path clip-path="url(#clip090)" d="M589.13 1287.2 Q583.968 1287.2 581.977 1288.38 Q579.986 1289.56 579.986 1292.41 Q579.986 1294.68 581.468 1296.02 Q582.972 1297.34 585.542 1297.34 Q589.083 1297.34 591.213 1294.84 Q593.366 1292.32 593.366 1288.15 L593.366 1287.2 L589.13 1287.2 M597.625 1285.44 L597.625 1300.23 L593.366 1300.23 L593.366 1296.3 Q591.907 1298.66 589.731 1299.79 Q587.555 1300.91 584.407 1300.91 Q580.426 1300.91 578.065 1298.68 Q575.727 1296.44 575.727 1292.69 Q575.727 1288.31 578.643 1286.09 Q581.583 1283.87 587.393 1283.87 L593.366 1283.87 L593.366 1283.45 Q593.366 1280.51 591.421 1278.92 Q589.5 1277.29 586.005 1277.29 Q583.782 1277.29 581.676 1277.83 Q579.569 1278.36 577.625 1279.42 L577.625 1275.49 Q579.963 1274.59 582.162 1274.15 Q584.361 1273.68 586.444 1273.68 Q592.069 1273.68 594.847 1276.6 Q597.625 1279.52 597.625 1285.44 Z" fill="#000000" fill-rule="nonzero" fill-opacity="1" /><path clip-path="url(#clip090)" d="M610.611 1266.95 L610.611 1274.31 L619.384 1274.31 L619.384 1277.62 L610.611 1277.62 L610.611 1291.69 Q610.611 1294.86 611.467 1295.77 Q612.347 1296.67 615.009 1296.67 L619.384 1296.67 L619.384 1300.23 L615.009 1300.23 Q610.078 1300.23 608.204 1298.41 Q606.329 1296.55 606.329 1291.69 L606.329 1277.62 L603.204 1277.62 L603.204 1274.31 L606.329 1274.31 L606.329 1266.95 L610.611 1266.95 Z" fill="#000000" fill-rule="nonzero" fill-opacity="1" /><path clip-path="url(#clip090)" d="M647.162 1286.21 L647.162 1288.29 L627.578 1288.29 Q627.856 1292.69 630.217 1295 Q632.602 1297.29 636.838 1297.29 Q639.291 1297.29 641.583 1296.69 Q643.898 1296.09 646.166 1294.89 L646.166 1298.91 Q643.875 1299.89 641.467 1300.4 Q639.06 1300.91 636.583 1300.91 Q630.379 1300.91 626.745 1297.29 Q623.134 1293.68 623.134 1287.53 Q623.134 1281.16 626.56 1277.43 Q630.009 1273.68 635.842 1273.68 Q641.074 1273.68 644.106 1277.06 Q647.162 1280.42 647.162 1286.21 M642.902 1284.96 Q642.856 1281.46 640.935 1279.38 Q639.037 1277.29 635.889 1277.29 Q632.324 1277.29 630.171 1279.31 Q628.041 1281.32 627.717 1284.98 L642.902 1284.96 Z" fill="#000000" fill-rule="nonzero" fill-opacity="1" /><polyline clip-path="url(#clip090)" style="stroke:#ff0000; stroke-linecap:round; stroke-linejoin:round; stroke-width:4; stroke-opacity:1; fill:none" points="274.533,1334.79 419.525,1334.79 "/>
<path clip-path="url(#clip090)" d="M464.038 1331.13 Q465.635 1328.26 467.857 1326.89 Q470.079 1325.52 473.088 1325.52 Q477.139 1325.52 479.338 1328.37 Q481.538 1331.19 481.538 1336.43 L481.538 1352.07 L477.255 1352.07 L477.255 1336.57 Q477.255 1332.84 475.936 1331.03 Q474.616 1329.23 471.908 1329.23 Q468.598 1329.23 466.676 1331.43 Q464.755 1333.63 464.755 1337.42 L464.755 1352.07 L460.473 1352.07 L460.473 1336.57 Q460.473 1332.82 459.153 1331.03 Q457.834 1329.23 455.079 1329.23 Q451.815 1329.23 449.894 1331.45 Q447.973 1333.65 447.973 1337.42 L447.973 1352.07 L443.691 1352.07 L443.691 1326.15 L447.973 1326.15 L447.973 1330.18 Q449.431 1327.79 451.468 1326.66 Q453.505 1325.52 456.306 1325.52 Q459.13 1325.52 461.098 1326.96 Q463.089 1328.39 464.038 1331.13 Z" fill="#000000" fill-rule="nonzero" fill-opacity="1" /><path clip-path="url(#clip090)" d="M512.209 1338.05 L512.209 1340.13 L492.625 1340.13 Q492.903 1344.53 495.264 1346.84 Q497.649 1349.13 501.885 1349.13 Q504.338 1349.13 506.63 1348.53 Q508.945 1347.93 511.213 1346.73 L511.213 1350.75 Q508.922 1351.73 506.514 1352.24 Q504.107 1352.75 501.63 1352.75 Q495.426 1352.75 491.792 1349.13 Q488.181 1345.52 488.181 1339.37 Q488.181 1333 491.607 1329.27 Q495.056 1325.52 500.889 1325.52 Q506.121 1325.52 509.153 1328.9 Q512.209 1332.26 512.209 1338.05 M507.949 1336.8 Q507.903 1333.3 505.982 1331.22 Q504.084 1329.13 500.936 1329.13 Q497.371 1329.13 495.218 1331.15 Q493.088 1333.16 492.764 1336.82 L507.949 1336.8 Z" fill="#000000" fill-rule="nonzero" fill-opacity="1" /><path clip-path="url(#clip090)" d="M530.982 1339.04 Q525.82 1339.04 523.829 1340.22 Q521.838 1341.4 521.838 1344.25 Q521.838 1346.52 523.32 1347.86 Q524.824 1349.18 527.394 1349.18 Q530.935 1349.18 533.065 1346.68 Q535.218 1344.16 535.218 1339.99 L535.218 1339.04 L530.982 1339.04 M539.477 1337.28 L539.477 1352.07 L535.218 1352.07 L535.218 1348.14 Q533.759 1350.5 531.584 1351.63 Q529.408 1352.75 526.26 1352.75 Q522.278 1352.75 519.917 1350.52 Q517.579 1348.28 517.579 1344.53 Q517.579 1340.15 520.496 1337.93 Q523.435 1335.71 529.246 1335.71 L535.218 1335.71 L535.218 1335.29 Q535.218 1332.35 533.273 1330.76 Q531.352 1329.13 527.857 1329.13 Q525.635 1329.13 523.528 1329.67 Q521.422 1330.2 519.477 1331.26 L519.477 1327.33 Q521.815 1326.43 524.014 1325.99 Q526.213 1325.52 528.297 1325.52 Q533.922 1325.52 536.699 1328.44 Q539.477 1331.36 539.477 1337.28 Z" fill="#000000" fill-rule="nonzero" fill-opacity="1" /><path clip-path="url(#clip090)" d="M564.778 1326.91 L564.778 1330.94 Q562.972 1330.01 561.028 1329.55 Q559.083 1329.09 557 1329.09 Q553.829 1329.09 552.232 1330.06 Q550.658 1331.03 550.658 1332.98 Q550.658 1334.46 551.792 1335.32 Q552.926 1336.15 556.352 1336.91 L557.81 1337.24 Q562.347 1338.21 564.245 1339.99 Q566.167 1341.75 566.167 1344.92 Q566.167 1348.53 563.296 1350.64 Q560.449 1352.75 555.449 1352.75 Q553.366 1352.75 551.097 1352.33 Q548.852 1351.94 546.352 1351.13 L546.352 1346.73 Q548.713 1347.95 551.005 1348.58 Q553.296 1349.18 555.542 1349.18 Q558.551 1349.18 560.171 1348.16 Q561.792 1347.12 561.792 1345.25 Q561.792 1343.51 560.611 1342.58 Q559.454 1341.66 555.495 1340.8 L554.014 1340.45 Q550.056 1339.62 548.296 1337.91 Q546.537 1336.17 546.537 1333.16 Q546.537 1329.51 549.13 1327.51 Q551.722 1325.52 556.491 1325.52 Q558.852 1325.52 560.935 1325.87 Q563.019 1326.22 564.778 1326.91 Z" fill="#000000" fill-rule="nonzero" fill-opacity="1" /><path clip-path="url(#clip090)" d="M572.509 1341.84 L572.509 1326.15 L576.768 1326.15 L576.768 1341.68 Q576.768 1345.36 578.204 1347.21 Q579.639 1349.04 582.509 1349.04 Q585.958 1349.04 587.949 1346.84 Q589.963 1344.64 589.963 1340.85 L589.963 1326.15 L594.222 1326.15 L594.222 1352.07 L589.963 1352.07 L589.963 1348.09 Q588.412 1350.45 586.352 1351.61 Q584.315 1352.75 581.606 1352.75 Q577.139 1352.75 574.824 1349.97 Q572.509 1347.19 572.509 1341.84 M583.227 1325.52 L583.227 1325.52 Z" fill="#000000" fill-rule="nonzero" fill-opacity="1" /><path clip-path="url(#clip090)" d="M618.018 1330.13 Q617.301 1329.71 616.444 1329.53 Q615.611 1329.32 614.592 1329.32 Q610.981 1329.32 609.037 1331.68 Q607.116 1334.02 607.116 1338.42 L607.116 1352.07 L602.833 1352.07 L602.833 1326.15 L607.116 1326.15 L607.116 1330.18 Q608.458 1327.82 610.611 1326.68 Q612.764 1325.52 615.842 1325.52 Q616.282 1325.52 616.815 1325.59 Q617.347 1325.64 617.995 1325.76 L618.018 1330.13 Z" fill="#000000" fill-rule="nonzero" fill-opacity="1" /><path clip-path="url(#clip090)" d="M643.62 1338.05 L643.62 1340.13 L624.037 1340.13 Q624.315 1344.53 626.676 1346.84 Q629.06 1349.13 633.296 1349.13 Q635.75 1349.13 638.041 1348.53 Q640.356 1347.93 642.625 1346.73 L642.625 1350.75 Q640.333 1351.73 637.926 1352.24 Q635.518 1352.75 633.041 1352.75 Q626.838 1352.75 623.203 1349.13 Q619.592 1345.52 619.592 1339.37 Q619.592 1333 623.018 1329.27 Q626.467 1325.52 632.301 1325.52 Q637.532 1325.52 640.564 1328.9 Q643.62 1332.26 643.62 1338.05 M639.361 1336.8 Q639.314 1333.3 637.393 1331.22 Q635.495 1329.13 632.347 1329.13 Q628.782 1329.13 626.629 1331.15 Q624.5 1333.16 624.176 1336.82 L639.361 1336.8 Z" fill="#000000" fill-rule="nonzero" fill-opacity="1" /><path clip-path="url(#clip090)" d="M670.796 1331.13 Q672.393 1328.26 674.615 1326.89 Q676.837 1325.52 679.847 1325.52 Q683.898 1325.52 686.097 1328.37 Q688.296 1331.19 688.296 1336.43 L688.296 1352.07 L684.013 1352.07 L684.013 1336.57 Q684.013 1332.84 682.694 1331.03 Q681.374 1329.23 678.666 1329.23 Q675.356 1329.23 673.435 1331.43 Q671.513 1333.63 671.513 1337.42 L671.513 1352.07 L667.231 1352.07 L667.231 1336.57 Q667.231 1332.82 665.912 1331.03 Q664.592 1329.23 661.837 1329.23 Q658.574 1329.23 656.652 1331.45 Q654.731 1333.65 654.731 1337.42 L654.731 1352.07 L650.449 1352.07 L650.449 1326.15 L654.731 1326.15 L654.731 1330.18 Q656.189 1327.79 658.226 1326.66 Q660.263 1325.52 663.064 1325.52 Q665.888 1325.52 667.856 1326.96 Q669.847 1328.39 670.796 1331.13 Z" fill="#000000" fill-rule="nonzero" fill-opacity="1" /><path clip-path="url(#clip090)" d="M718.967 1338.05 L718.967 1340.13 L699.384 1340.13 Q699.661 1344.53 702.022 1346.84 Q704.407 1349.13 708.643 1349.13 Q711.096 1349.13 713.388 1348.53 Q715.703 1347.93 717.971 1346.73 L717.971 1350.75 Q715.68 1351.73 713.272 1352.24 Q710.865 1352.75 708.388 1352.75 Q702.184 1352.75 698.55 1349.13 Q694.939 1345.52 694.939 1339.37 Q694.939 1333 698.365 1329.27 Q701.814 1325.52 707.647 1325.52 Q712.879 1325.52 715.911 1328.9 Q718.967 1332.26 718.967 1338.05 M714.708 1336.8 Q714.661 1333.3 712.74 1331.22 Q710.842 1329.13 707.694 1329.13 Q704.129 1329.13 701.976 1331.15 Q699.847 1333.16 699.522 1336.82 L714.708 1336.8 Z" fill="#000000" fill-rule="nonzero" fill-opacity="1" /><path clip-path="url(#clip090)" d="M747.508 1336.43 L747.508 1352.07 L743.249 1352.07 L743.249 1336.57 Q743.249 1332.88 741.814 1331.06 Q740.379 1329.23 737.508 1329.23 Q734.059 1329.23 732.069 1331.43 Q730.078 1333.63 730.078 1337.42 L730.078 1352.07 L725.795 1352.07 L725.795 1326.15 L730.078 1326.15 L730.078 1330.18 Q731.606 1327.84 733.666 1326.68 Q735.749 1325.52 738.457 1325.52 Q742.925 1325.52 745.217 1328.3 Q747.508 1331.06 747.508 1336.43 Z" fill="#000000" fill-rule="nonzero" fill-opacity="1" /><path clip-path="url(#clip090)" d="M760.217 1318.79 L760.217 1326.15 L768.99 1326.15 L768.99 1329.46 L760.217 1329.46 L760.217 1343.53 Q760.217 1346.7 761.073 1347.61 Q761.953 1348.51 764.615 1348.51 L768.99 1348.51 L768.99 1352.07 L764.615 1352.07 Q759.684 1352.07 757.809 1350.25 Q755.934 1348.39 755.934 1343.53 L755.934 1329.46 L752.809 1329.46 L752.809 1326.15 L755.934 1326.15 L755.934 1318.79 L760.217 1318.79 Z" fill="#000000" fill-rule="nonzero" fill-opacity="1" /><polyline clip-path="url(#clip090)" style="stroke:#3da44d; stroke-linecap:round; stroke-linejoin:round; stroke-width:4; stroke-opacity:1; fill:none" points="274.533,1386.63 419.525,1386.63 "/>
<path clip-path="url(#clip090)" d="M468.343 1377.99 L458.968 1390.6 L468.829 1403.91 L463.806 1403.91 L456.26 1393.73 L448.714 1403.91 L443.691 1403.91 L453.76 1390.35 L444.547 1377.99 L449.57 1377.99 L456.445 1387.22 L463.32 1377.99 L468.343 1377.99 Z" fill="#000000" fill-rule="nonzero" fill-opacity="1" /><path clip-path="url(#clip090)" d="M491.375 1378.75 L491.375 1382.78 Q489.57 1381.85 487.625 1381.39 Q485.681 1380.93 483.598 1380.93 Q480.426 1380.93 478.829 1381.9 Q477.255 1382.87 477.255 1384.82 Q477.255 1386.3 478.389 1387.16 Q479.524 1387.99 482.95 1388.75 L484.408 1389.08 Q488.945 1390.05 490.843 1391.83 Q492.764 1393.59 492.764 1396.76 Q492.764 1400.37 489.894 1402.48 Q487.047 1404.59 482.047 1404.59 Q479.963 1404.59 477.695 1404.17 Q475.45 1403.78 472.95 1402.97 L472.95 1398.57 Q475.311 1399.79 477.602 1400.42 Q479.894 1401.02 482.139 1401.02 Q485.149 1401.02 486.769 1400 Q488.389 1398.96 488.389 1397.09 Q488.389 1395.35 487.209 1394.42 Q486.051 1393.5 482.093 1392.64 L480.612 1392.29 Q476.653 1391.46 474.894 1389.75 Q473.135 1388.01 473.135 1385 Q473.135 1381.35 475.727 1379.35 Q478.32 1377.36 483.088 1377.36 Q485.45 1377.36 487.533 1377.71 Q489.616 1378.06 491.375 1378.75 Z" fill="#000000" fill-rule="nonzero" fill-opacity="1" /></svg>
