<?xml version="1.0" encoding="utf-8"?>
<svg xmlns="http://www.w3.org/2000/svg" xmlns:xlink="http://www.w3.org/1999/xlink" width="600" height="400" viewBox="0 0 2400 1600">
<defs>
  <clipPath id="clip130">
    <rect x="0" y="0" width="2400" height="1600"/>
  </clipPath>
</defs>
<path clip-path="url(#clip130)" d="M0 1600 L2400 1600 L2400 0 L0 0  Z" fill="#ffffff" fill-rule="evenodd" fill-opacity="1"/>
<defs>
  <clipPath id="clip131">
    <rect x="239" y="123" width="2115" height="1288"/>
  </clipPath>
</defs>
<path clip-path="url(#clip130)" d="M239.19 1410.9 L2352.76 1410.9 L2352.76 123.472 L239.19 123.472  Z" fill="#ffffff" fill-rule="evenodd" fill-opacity="1"/>
<polyline clip-path="url(#clip131)" style="stroke:#000000; stroke-linecap:round; stroke-linejoin:round; stroke-width:2; stroke-opacity:0.1; fill:none" points="1096.58,1410.9 1096.58,123.472 "/>
<polyline clip-path="url(#clip131)" style="stroke:#000000; stroke-linecap:round; stroke-linejoin:round; stroke-width:2; stroke-opacity:0.1; fill:none" points="2093.55,1410.9 2093.55,123.472 "/>
<polyline clip-path="url(#clip131)" style="stroke:#000000; stroke-linecap:round; stroke-linejoin:round; stroke-width:2; stroke-opacity:0.1; fill:none" points="239.19,1214.27 2352.76,1214.27 "/>
<polyline clip-path="url(#clip131)" style="stroke:#000000; stroke-linecap:round; stroke-linejoin:round; stroke-width:2; stroke-opacity:0.1; fill:none" points="239.19,950.731 2352.76,950.731 "/>
<polyline clip-path="url(#clip131)" style="stroke:#000000; stroke-linecap:round; stroke-linejoin:round; stroke-width:2; stroke-opacity:0.1; fill:none" points="239.19,687.189 2352.76,687.189 "/>
<polyline clip-path="url(#clip131)" style="stroke:#000000; stroke-linecap:round; stroke-linejoin:round; stroke-width:2; stroke-opacity:0.1; fill:none" points="239.19,423.646 2352.76,423.646 "/>
<polyline clip-path="url(#clip131)" style="stroke:#000000; stroke-linecap:round; stroke-linejoin:round; stroke-width:2; stroke-opacity:0.1; fill:none" points="239.19,160.104 2352.76,160.104 "/>
<polyline clip-path="url(#clip130)" style="stroke:#000000; stroke-linecap:round; stroke-linejoin:round; stroke-width:4; stroke-opacity:1; fill:none" points="239.19,1410.9 2352.76,1410.9 "/>
<polyline clip-path="url(#clip130)" style="stroke:#000000; stroke-linecap:round; stroke-linejoin:round; stroke-width:4; stroke-opacity:1; fill:none" points="1096.58,1410.9 1096.58,1392 "/>
<polyline clip-path="url(#clip130)" style="stroke:#000000; stroke-linecap:round; stroke-linejoin:round; stroke-width:4; stroke-opacity:1; fill:none" points="2093.55,1410.9 2093.55,1392 "/>
<path clip-path="url(#clip130)" d="M1061.56 1485.02 L1069.2 1485.02 L1069.2 1458.66 L1060.89 1460.32 L1060.89 1456.06 L1069.16 1454.4 L1073.83 1454.4 L1073.83 1485.02 L1081.47 1485.02 L1081.47 1488.96 L1061.56 1488.96 L1061.56 1485.02 Z" fill="#000000" fill-rule="nonzero" fill-opacity="1" /><path clip-path="url(#clip130)" d="M1100.91 1457.48 Q1097.3 1457.48 1095.47 1461.04 Q1093.67 1464.58 1093.67 1471.71 Q1093.67 1478.82 1095.47 1482.38 Q1097.3 1485.92 1100.91 1485.92 Q1104.55 1485.92 1106.35 1482.38 Q1108.18 1478.82 1108.18 1471.71 Q1108.18 1464.58 1106.35 1461.04 Q1104.55 1457.48 1100.91 1457.48 M1100.91 1453.77 Q1106.72 1453.77 1109.78 1458.38 Q1112.86 1462.96 1112.86 1471.71 Q1112.86 1480.44 1109.78 1485.04 Q1106.72 1489.63 1100.91 1489.63 Q1095.1 1489.63 1092.03 1485.04 Q1088.97 1480.44 1088.97 1471.71 Q1088.97 1462.96 1092.03 1458.38 Q1095.1 1453.77 1100.91 1453.77 Z" fill="#000000" fill-rule="nonzero" fill-opacity="1" /><path clip-path="url(#clip130)" d="M1122.56 1435.97 Q1119.63 1435.97 1118.14 1438.86 Q1116.68 1441.74 1116.68 1447.53 Q1116.68 1453.31 1118.14 1456.2 Q1119.63 1459.08 1122.56 1459.08 Q1125.52 1459.08 1126.98 1456.2 Q1128.47 1453.31 1128.47 1447.53 Q1128.47 1441.74 1126.98 1438.86 Q1125.52 1435.97 1122.56 1435.97 M1122.56 1432.96 Q1127.28 1432.96 1129.77 1436.7 Q1132.27 1440.43 1132.27 1447.53 Q1132.27 1454.62 1129.77 1458.37 Q1127.28 1462.09 1122.56 1462.09 Q1117.84 1462.09 1115.34 1458.37 Q1112.86 1454.62 1112.86 1447.53 Q1112.86 1440.43 1115.34 1436.7 Q1117.84 1432.96 1122.56 1432.96 Z" fill="#000000" fill-rule="nonzero" fill-opacity="1" /><path clip-path="url(#clip130)" d="M2059.87 1485.02 L2067.51 1485.02 L2067.51 1458.66 L2059.2 1460.32 L2059.2 1456.06 L2067.47 1454.4 L2072.14 1454.4 L2072.14 1485.02 L2079.78 1485.02 L2079.78 1488.96 L2059.87 1488.96 L2059.87 1485.02 Z" fill="#000000" fill-rule="nonzero" fill-opacity="1" /><path clip-path="url(#clip130)" d="M2099.22 1457.48 Q2095.61 1457.48 2093.78 1461.04 Q2091.98 1464.58 2091.98 1471.71 Q2091.98 1478.82 2093.78 1482.38 Q2095.61 1485.92 2099.22 1485.92 Q2102.86 1485.92 2104.66 1482.38 Q2106.49 1478.82 2106.49 1471.71 Q2106.49 1464.58 2104.66 1461.04 Q2102.86 1457.48 2099.22 1457.48 M2099.22 1453.77 Q2105.03 1453.77 2108.09 1458.38 Q2111.17 1462.96 2111.17 1471.71 Q2111.17 1480.44 2108.09 1485.04 Q2105.03 1489.63 2099.22 1489.63 Q2093.41 1489.63 2090.34 1485.04 Q2087.28 1480.44 2087.28 1471.71 Q2087.28 1462.96 2090.34 1458.38 Q2093.41 1453.77 2099.22 1453.77 Z" fill="#000000" fill-rule="nonzero" fill-opacity="1" /><path clip-path="url(#clip130)" d="M2111.71 1458.35 L2117.92 1458.35 L2117.92 1436.93 L2111.17 1438.28 L2111.17 1434.82 L2117.88 1433.47 L2121.68 1433.47 L2121.68 1458.35 L2127.89 1458.35 L2127.89 1461.55 L2111.71 1461.55 L2111.71 1458.35 Z" fill="#000000" fill-rule="nonzero" fill-opacity="1" /><path clip-path="url(#clip130)" d="M733.834 1531.95 L733.834 1568.9 L741.6 1568.9 Q751.435 1568.9 755.986 1564.45 Q760.569 1559.99 760.569 1550.38 Q760.569 1540.83 755.986 1536.4 Q751.435 1531.95 741.6 1531.95 L733.834 1531.95 M727.404 1526.67 L740.613 1526.67 Q754.427 1526.67 760.888 1532.43 Q767.349 1538.16 767.349 1550.38 Q767.349 1562.66 760.856 1568.42 Q754.363 1574.19 740.613 1574.19 L727.404 1574.19 L727.404 1526.67 Z" fill="#000000" fill-rule="nonzero" fill-opacity="1" /><path clip-path="url(#clip130)" d="M792.175 1577.5 Q789.693 1583.86 787.337 1585.8 Q784.982 1587.74 781.035 1587.74 L776.356 1587.74 L776.356 1582.84 L779.794 1582.84 Q782.213 1582.84 783.55 1581.7 Q784.886 1580.55 786.51 1576.29 L787.56 1573.61 L773.142 1538.54 L779.348 1538.54 L790.488 1566.42 L801.628 1538.54 L807.835 1538.54 L792.175 1577.5 Z" fill="#000000" fill-rule="nonzero" fill-opacity="1" /><path clip-path="url(#clip130)" d="M845.552 1552.67 L845.552 1574.19 L839.695 1574.19 L839.695 1552.86 Q839.695 1547.8 837.722 1545.29 Q835.748 1542.77 831.802 1542.77 Q827.059 1542.77 824.322 1545.79 Q821.585 1548.82 821.585 1554.04 L821.585 1574.19 L815.696 1574.19 L815.696 1538.54 L821.585 1538.54 L821.585 1544.08 Q823.685 1540.86 826.518 1539.27 Q829.383 1537.68 833.107 1537.68 Q839.25 1537.68 842.401 1541.5 Q845.552 1545.29 845.552 1552.67 Z" fill="#000000" fill-rule="nonzero" fill-opacity="1" /><path clip-path="url(#clip130)" d="M873.433 1556.27 Q866.336 1556.27 863.598 1557.89 Q860.861 1559.51 860.861 1563.43 Q860.861 1566.55 862.898 1568.39 Q864.967 1570.21 868.5 1570.21 Q873.37 1570.21 876.298 1566.77 Q879.258 1563.3 879.258 1557.57 L879.258 1556.27 L873.433 1556.27 M885.115 1553.85 L885.115 1574.19 L879.258 1574.19 L879.258 1568.77 Q877.253 1572.02 874.261 1573.58 Q871.269 1575.11 866.94 1575.11 Q861.466 1575.11 858.219 1572.05 Q855.005 1568.97 855.005 1563.81 Q855.005 1557.79 859.015 1554.74 Q863.057 1551.68 871.046 1551.68 L879.258 1551.68 L879.258 1551.11 Q879.258 1547.07 876.584 1544.87 Q873.943 1542.64 869.137 1542.64 Q866.081 1542.64 863.185 1543.38 Q860.288 1544.11 857.615 1545.57 L857.615 1540.16 Q860.829 1538.92 863.853 1538.31 Q866.877 1537.68 869.741 1537.68 Q877.476 1537.68 881.295 1541.69 Q885.115 1545.7 885.115 1553.85 Z" fill="#000000" fill-rule="nonzero" fill-opacity="1" /><path clip-path="url(#clip130)" d="M924.932 1545.38 Q927.128 1541.43 930.184 1539.56 Q933.239 1537.68 937.377 1537.68 Q942.947 1537.68 945.971 1541.59 Q948.994 1545.48 948.994 1552.67 L948.994 1574.19 L943.106 1574.19 L943.106 1552.86 Q943.106 1547.74 941.292 1545.25 Q939.478 1542.77 935.754 1542.77 Q931.202 1542.77 928.56 1545.79 Q925.919 1548.82 925.919 1554.04 L925.919 1574.19 L920.03 1574.19 L920.03 1552.86 Q920.03 1547.7 918.216 1545.25 Q916.402 1542.77 912.614 1542.77 Q908.127 1542.77 905.485 1545.83 Q902.843 1548.85 902.843 1554.04 L902.843 1574.19 L896.955 1574.19 L896.955 1538.54 L902.843 1538.54 L902.843 1544.08 Q904.848 1540.8 907.649 1539.24 Q910.45 1537.68 914.301 1537.68 Q918.184 1537.68 920.89 1539.65 Q923.627 1541.62 924.932 1545.38 Z" fill="#000000" fill-rule="nonzero" fill-opacity="1" /><path clip-path="url(#clip130)" d="M960.675 1538.54 L966.532 1538.54 L966.532 1574.19 L960.675 1574.19 L960.675 1538.54 M960.675 1524.66 L966.532 1524.66 L966.532 1532.08 L960.675 1532.08 L960.675 1524.66 Z" fill="#000000" fill-rule="nonzero" fill-opacity="1" /><path clip-path="url(#clip130)" d="M1004.44 1539.91 L1004.44 1545.38 Q1001.96 1544.01 999.443 1543.34 Q996.96 1542.64 994.414 1542.64 Q988.716 1542.64 985.565 1546.27 Q982.414 1549.87 982.414 1556.39 Q982.414 1562.92 985.565 1566.55 Q988.716 1570.14 994.414 1570.14 Q996.96 1570.14 999.443 1569.47 Q1001.96 1568.77 1004.44 1567.41 L1004.44 1572.82 Q1001.99 1573.96 999.347 1574.54 Q996.737 1575.11 993.777 1575.11 Q985.725 1575.11 980.982 1570.05 Q976.24 1564.99 976.24 1556.39 Q976.24 1547.67 981.014 1542.68 Q985.82 1537.68 994.159 1537.68 Q996.865 1537.68 999.443 1538.25 Q1002.02 1538.79 1004.44 1539.91 Z" fill="#000000" fill-rule="nonzero" fill-opacity="1" /><path clip-path="url(#clip130)" d="M1037.35 1539.59 L1037.35 1545.13 Q1034.87 1543.85 1032.19 1543.22 Q1029.52 1542.58 1026.66 1542.58 Q1022.3 1542.58 1020.1 1543.92 Q1017.93 1545.25 1017.93 1547.93 Q1017.93 1549.96 1019.49 1551.14 Q1021.05 1552.29 1025.76 1553.34 L1027.77 1553.78 Q1034.01 1555.12 1036.62 1557.57 Q1039.26 1559.99 1039.26 1564.35 Q1039.26 1569.32 1035.31 1572.21 Q1031.4 1575.11 1024.52 1575.11 Q1021.66 1575.11 1018.54 1574.54 Q1015.45 1573.99 1012.01 1572.88 L1012.01 1566.83 Q1015.26 1568.52 1018.41 1569.38 Q1021.56 1570.21 1024.65 1570.21 Q1028.79 1570.21 1031.02 1568.81 Q1033.24 1567.37 1033.24 1564.8 Q1033.24 1562.41 1031.62 1561.14 Q1030.03 1559.86 1024.59 1558.68 L1022.55 1558.21 Q1017.11 1557.06 1014.69 1554.71 Q1012.27 1552.32 1012.27 1548.18 Q1012.27 1543.15 1015.83 1540.42 Q1019.4 1537.68 1025.96 1537.68 Q1029.2 1537.68 1032.07 1538.16 Q1034.93 1538.63 1037.35 1539.59 Z" fill="#000000" fill-rule="nonzero" fill-opacity="1" /><path clip-path="url(#clip130)" d="M1098.94 1552.67 L1098.94 1574.19 L1093.08 1574.19 L1093.08 1552.86 Q1093.08 1547.8 1091.11 1545.29 Q1089.14 1542.77 1085.19 1542.77 Q1080.45 1542.77 1077.71 1545.79 Q1074.97 1548.82 1074.97 1554.04 L1074.97 1574.19 L1069.08 1574.19 L1069.08 1538.54 L1074.97 1538.54 L1074.97 1544.08 Q1077.07 1540.86 1079.91 1539.27 Q1082.77 1537.68 1086.49 1537.68 Q1092.64 1537.68 1095.79 1541.5 Q1098.94 1545.29 1098.94 1552.67 Z" fill="#000000" fill-rule="nonzero" fill-opacity="1" /><path clip-path="url(#clip130)" d="M1124.43 1542.64 Q1119.72 1542.64 1116.99 1546.34 Q1114.25 1550 1114.25 1556.39 Q1114.25 1562.79 1116.95 1566.48 Q1119.69 1570.14 1124.43 1570.14 Q1129.11 1570.14 1131.85 1566.45 Q1134.59 1562.76 1134.59 1556.39 Q1134.59 1550.06 1131.85 1546.37 Q1129.11 1542.64 1124.43 1542.64 M1124.43 1537.68 Q1132.07 1537.68 1136.43 1542.64 Q1140.79 1547.61 1140.79 1556.39 Q1140.79 1565.15 1136.43 1570.14 Q1132.07 1575.11 1124.43 1575.11 Q1116.76 1575.11 1112.4 1570.14 Q1108.07 1565.15 1108.07 1556.39 Q1108.07 1547.61 1112.4 1542.64 Q1116.76 1537.68 1124.43 1537.68 Z" fill="#000000" fill-rule="nonzero" fill-opacity="1" /><path clip-path="url(#clip130)" d="M1150.5 1538.54 L1156.36 1538.54 L1156.36 1574.19 L1150.5 1574.19 L1150.5 1538.54 M1150.5 1524.66 L1156.36 1524.66 L1156.36 1532.08 L1150.5 1532.08 L1150.5 1524.66 Z" fill="#000000" fill-rule="nonzero" fill-opacity="1" /><path clip-path="url(#clip130)" d="M1191.34 1539.59 L1191.34 1545.13 Q1188.85 1543.85 1186.18 1543.22 Q1183.51 1542.58 1180.64 1542.58 Q1176.28 1542.58 1174.09 1543.92 Q1171.92 1545.25 1171.92 1547.93 Q1171.92 1549.96 1173.48 1551.14 Q1175.04 1552.29 1179.75 1553.34 L1181.76 1553.78 Q1187.99 1555.12 1190.6 1557.57 Q1193.25 1559.99 1193.25 1564.35 Q1193.25 1569.32 1189.3 1572.21 Q1185.38 1575.11 1178.51 1575.11 Q1175.65 1575.11 1172.53 1574.54 Q1169.44 1573.99 1166 1572.88 L1166 1566.83 Q1169.25 1568.52 1172.4 1569.38 Q1175.55 1570.21 1178.64 1570.21 Q1182.77 1570.21 1185 1568.81 Q1187.23 1567.37 1187.23 1564.8 Q1187.23 1562.41 1185.61 1561.14 Q1184.02 1559.86 1178.57 1558.68 L1176.54 1558.21 Q1171.09 1557.06 1168.67 1554.71 Q1166.26 1552.32 1166.26 1548.18 Q1166.26 1543.15 1169.82 1540.42 Q1173.39 1537.68 1179.94 1537.68 Q1183.19 1537.68 1186.05 1538.16 Q1188.92 1538.63 1191.34 1539.59 Z" fill="#000000" fill-rule="nonzero" fill-opacity="1" /><path clip-path="url(#clip130)" d="M1233.06 1554.9 L1233.06 1557.76 L1206.14 1557.76 Q1206.52 1563.81 1209.77 1566.99 Q1213.04 1570.14 1218.87 1570.14 Q1222.24 1570.14 1225.39 1569.32 Q1228.58 1568.49 1231.7 1566.83 L1231.7 1572.37 Q1228.54 1573.71 1225.23 1574.41 Q1221.92 1575.11 1218.52 1575.11 Q1209.99 1575.11 1204.99 1570.14 Q1200.03 1565.18 1200.03 1556.71 Q1200.03 1547.96 1204.74 1542.83 Q1209.48 1537.68 1217.5 1537.68 Q1224.69 1537.68 1228.86 1542.33 Q1233.06 1546.94 1233.06 1554.9 M1227.21 1553.18 Q1227.14 1548.37 1224.5 1545.51 Q1221.89 1542.64 1217.56 1542.64 Q1212.66 1542.64 1209.7 1545.41 Q1206.77 1548.18 1206.33 1553.21 L1227.21 1553.18 Z" fill="#000000" fill-rule="nonzero" fill-opacity="1" /><path clip-path="url(#clip130)" d="M1286.12 1539.59 L1286.12 1545.13 Q1283.64 1543.85 1280.97 1543.22 Q1278.29 1542.58 1275.43 1542.58 Q1271.07 1542.58 1268.87 1543.92 Q1266.71 1545.25 1266.71 1547.93 Q1266.71 1549.96 1268.27 1551.14 Q1269.83 1552.29 1274.54 1553.34 L1276.54 1553.78 Q1282.78 1555.12 1285.39 1557.57 Q1288.03 1559.99 1288.03 1564.35 Q1288.03 1569.32 1284.09 1572.21 Q1280.17 1575.11 1273.3 1575.11 Q1270.43 1575.11 1267.31 1574.54 Q1264.22 1573.99 1260.79 1572.88 L1260.79 1566.83 Q1264.03 1568.52 1267.18 1569.38 Q1270.34 1570.21 1273.42 1570.21 Q1277.56 1570.21 1279.79 1568.81 Q1282.02 1567.37 1282.02 1564.8 Q1282.02 1562.41 1280.39 1561.14 Q1278.8 1559.86 1273.36 1558.68 L1271.32 1558.21 Q1265.88 1557.06 1263.46 1554.71 Q1261.04 1552.32 1261.04 1548.18 Q1261.04 1543.15 1264.61 1540.42 Q1268.17 1537.68 1274.73 1537.68 Q1277.97 1537.68 1280.84 1538.16 Q1283.7 1538.63 1286.12 1539.59 Z" fill="#000000" fill-rule="nonzero" fill-opacity="1" /><path clip-path="url(#clip130)" d="M1303.15 1528.42 L1303.15 1538.54 L1315.21 1538.54 L1315.21 1543.09 L1303.15 1543.09 L1303.15 1562.44 Q1303.15 1566.8 1304.33 1568.04 Q1305.54 1569.28 1309.2 1569.28 L1315.21 1569.28 L1315.21 1574.19 L1309.2 1574.19 Q1302.42 1574.19 1299.84 1571.67 Q1297.26 1569.12 1297.26 1562.44 L1297.26 1543.09 L1292.97 1543.09 L1292.97 1538.54 L1297.26 1538.54 L1297.26 1528.42 L1303.15 1528.42 Z" fill="#000000" fill-rule="nonzero" fill-opacity="1" /><path clip-path="url(#clip130)" d="M1339.12 1556.27 Q1332.02 1556.27 1329.28 1557.89 Q1326.54 1559.51 1326.54 1563.43 Q1326.54 1566.55 1328.58 1568.39 Q1330.65 1570.21 1334.18 1570.21 Q1339.05 1570.21 1341.98 1566.77 Q1344.94 1563.3 1344.94 1557.57 L1344.94 1556.27 L1339.12 1556.27 M1350.8 1553.85 L1350.8 1574.19 L1344.94 1574.19 L1344.94 1568.77 Q1342.94 1572.02 1339.94 1573.58 Q1336.95 1575.11 1332.62 1575.11 Q1327.15 1575.11 1323.9 1572.05 Q1320.69 1568.97 1320.69 1563.81 Q1320.69 1557.79 1324.7 1554.74 Q1328.74 1551.68 1336.73 1551.68 L1344.94 1551.68 L1344.94 1551.11 Q1344.94 1547.07 1342.27 1544.87 Q1339.63 1542.64 1334.82 1542.64 Q1331.76 1542.64 1328.87 1543.38 Q1325.97 1544.11 1323.3 1545.57 L1323.3 1540.16 Q1326.51 1538.92 1329.54 1538.31 Q1332.56 1537.68 1335.42 1537.68 Q1343.16 1537.68 1346.98 1541.69 Q1350.8 1545.7 1350.8 1553.85 Z" fill="#000000" fill-rule="nonzero" fill-opacity="1" /><path clip-path="url(#clip130)" d="M1392.49 1552.67 L1392.49 1574.19 L1386.64 1574.19 L1386.64 1552.86 Q1386.64 1547.8 1384.66 1545.29 Q1382.69 1542.77 1378.74 1542.77 Q1374 1542.77 1371.26 1545.79 Q1368.53 1548.82 1368.53 1554.04 L1368.53 1574.19 L1362.64 1574.19 L1362.64 1538.54 L1368.53 1538.54 L1368.53 1544.08 Q1370.63 1540.86 1373.46 1539.27 Q1376.32 1537.68 1380.05 1537.68 Q1386.19 1537.68 1389.34 1541.5 Q1392.49 1545.29 1392.49 1552.67 Z" fill="#000000" fill-rule="nonzero" fill-opacity="1" /><path clip-path="url(#clip130)" d="M1427.63 1543.95 L1427.63 1524.66 L1433.49 1524.66 L1433.49 1574.19 L1427.63 1574.19 L1427.63 1568.84 Q1425.79 1572.02 1422.95 1573.58 Q1420.15 1575.11 1416.21 1575.11 Q1409.74 1575.11 1405.67 1569.95 Q1401.63 1564.8 1401.63 1556.39 Q1401.63 1547.99 1405.67 1542.83 Q1409.74 1537.68 1416.21 1537.68 Q1420.15 1537.68 1422.95 1539.24 Q1425.79 1540.77 1427.63 1543.95 M1407.68 1556.39 Q1407.68 1562.85 1410.32 1566.55 Q1412.99 1570.21 1417.64 1570.21 Q1422.28 1570.21 1424.96 1566.55 Q1427.63 1562.85 1427.63 1556.39 Q1427.63 1549.93 1424.96 1546.27 Q1422.28 1542.58 1417.64 1542.58 Q1412.99 1542.58 1410.32 1546.27 Q1407.68 1549.93 1407.68 1556.39 Z" fill="#000000" fill-rule="nonzero" fill-opacity="1" /><path clip-path="url(#clip130)" d="M1461.75 1556.27 Q1454.65 1556.27 1451.92 1557.89 Q1449.18 1559.51 1449.18 1563.43 Q1449.18 1566.55 1451.22 1568.39 Q1453.29 1570.21 1456.82 1570.21 Q1461.69 1570.21 1464.62 1566.77 Q1467.58 1563.3 1467.58 1557.57 L1467.58 1556.27 L1461.75 1556.27 M1473.43 1553.85 L1473.43 1574.19 L1467.58 1574.19 L1467.58 1568.77 Q1465.57 1572.02 1462.58 1573.58 Q1459.59 1575.11 1455.26 1575.11 Q1449.78 1575.11 1446.54 1572.05 Q1443.32 1568.97 1443.32 1563.81 Q1443.32 1557.79 1447.33 1554.74 Q1451.38 1551.68 1459.36 1551.68 L1467.58 1551.68 L1467.58 1551.11 Q1467.58 1547.07 1464.9 1544.87 Q1462.26 1542.64 1457.46 1542.64 Q1454.4 1542.64 1451.5 1543.38 Q1448.61 1544.11 1445.93 1545.57 L1445.93 1540.16 Q1449.15 1538.92 1452.17 1538.31 Q1455.2 1537.68 1458.06 1537.68 Q1465.79 1537.68 1469.61 1541.69 Q1473.43 1545.7 1473.43 1553.85 Z" fill="#000000" fill-rule="nonzero" fill-opacity="1" /><path clip-path="url(#clip130)" d="M1506.15 1544.01 Q1505.17 1543.44 1503.99 1543.18 Q1502.84 1542.9 1501.44 1542.9 Q1496.48 1542.9 1493.8 1546.14 Q1491.16 1549.36 1491.16 1555.41 L1491.16 1574.19 L1485.27 1574.19 L1485.27 1538.54 L1491.16 1538.54 L1491.16 1544.08 Q1493.01 1540.83 1495.97 1539.27 Q1498.93 1537.68 1503.16 1537.68 Q1503.77 1537.68 1504.5 1537.77 Q1505.23 1537.84 1506.12 1538 L1506.15 1544.01 Z" fill="#000000" fill-rule="nonzero" fill-opacity="1" /><path clip-path="url(#clip130)" d="M1534.61 1543.95 L1534.61 1524.66 L1540.46 1524.66 L1540.46 1574.19 L1534.61 1574.19 L1534.61 1568.84 Q1532.76 1572.02 1529.93 1573.58 Q1527.13 1575.11 1523.18 1575.11 Q1516.72 1575.11 1512.65 1569.95 Q1508.6 1564.8 1508.6 1556.39 Q1508.6 1547.99 1512.65 1542.83 Q1516.72 1537.68 1523.18 1537.68 Q1527.13 1537.68 1529.93 1539.24 Q1532.76 1540.77 1534.61 1543.95 M1514.65 1556.39 Q1514.65 1562.85 1517.29 1566.55 Q1519.97 1570.21 1524.61 1570.21 Q1529.26 1570.21 1531.93 1566.55 Q1534.61 1562.85 1534.61 1556.39 Q1534.61 1549.93 1531.93 1546.27 Q1529.26 1542.58 1524.61 1542.58 Q1519.97 1542.58 1517.29 1546.27 Q1514.65 1549.93 1514.65 1556.39 Z" fill="#000000" fill-rule="nonzero" fill-opacity="1" /><path clip-path="url(#clip130)" d="M1596.71 1543.95 L1596.71 1524.66 L1602.56 1524.66 L1602.56 1574.19 L1596.71 1574.19 L1596.71 1568.84 Q1594.86 1572.02 1592.03 1573.58 Q1589.23 1575.11 1585.28 1575.11 Q1578.82 1575.11 1574.74 1569.95 Q1570.7 1564.8 1570.7 1556.39 Q1570.7 1547.99 1574.74 1542.83 Q1578.82 1537.68 1585.28 1537.68 Q1589.23 1537.68 1592.03 1539.24 Q1594.86 1540.77 1596.71 1543.95 M1576.75 1556.39 Q1576.75 1562.85 1579.39 1566.55 Q1582.06 1570.21 1586.71 1570.21 Q1591.36 1570.21 1594.03 1566.55 Q1596.71 1562.85 1596.71 1556.39 Q1596.71 1549.93 1594.03 1546.27 Q1591.36 1542.58 1586.71 1542.58 Q1582.06 1542.58 1579.39 1546.27 Q1576.75 1549.93 1576.75 1556.39 Z" fill="#000000" fill-rule="nonzero" fill-opacity="1" /><path clip-path="url(#clip130)" d="M1645.12 1554.9 L1645.12 1557.76 L1618.19 1557.76 Q1618.57 1563.81 1621.82 1566.99 Q1625.1 1570.14 1630.92 1570.14 Q1634.29 1570.14 1637.45 1569.32 Q1640.63 1568.49 1643.75 1566.83 L1643.75 1572.37 Q1640.6 1573.71 1637.29 1574.41 Q1633.98 1575.11 1630.57 1575.11 Q1622.04 1575.11 1617.04 1570.14 Q1612.08 1565.18 1612.08 1556.71 Q1612.08 1547.96 1616.79 1542.83 Q1621.53 1537.68 1629.55 1537.68 Q1636.75 1537.68 1640.91 1542.33 Q1645.12 1546.94 1645.12 1554.9 M1639.26 1553.18 Q1639.2 1548.37 1636.55 1545.51 Q1633.94 1542.64 1629.62 1542.64 Q1624.71 1542.64 1621.75 1545.41 Q1618.83 1548.18 1618.38 1553.21 L1639.26 1553.18 Z" fill="#000000" fill-rule="nonzero" fill-opacity="1" /><path clip-path="url(#clip130)" d="M1650.53 1538.54 L1656.73 1538.54 L1667.87 1568.46 L1679.01 1538.54 L1685.22 1538.54 L1671.85 1574.19 L1663.9 1574.19 L1650.53 1538.54 Z" fill="#000000" fill-rule="nonzero" fill-opacity="1" /><path clip-path="url(#clip130)" d="M1693.3 1538.54 L1699.16 1538.54 L1699.16 1574.19 L1693.3 1574.19 L1693.3 1538.54 M1693.3 1524.66 L1699.16 1524.66 L1699.16 1532.08 L1693.3 1532.08 L1693.3 1524.66 Z" fill="#000000" fill-rule="nonzero" fill-opacity="1" /><path clip-path="url(#clip130)" d="M1727.62 1556.27 Q1720.52 1556.27 1717.78 1557.89 Q1715.04 1559.51 1715.04 1563.43 Q1715.04 1566.55 1717.08 1568.39 Q1719.15 1570.21 1722.68 1570.21 Q1727.55 1570.21 1730.48 1566.77 Q1733.44 1563.3 1733.44 1557.57 L1733.44 1556.27 L1727.62 1556.27 M1739.3 1553.85 L1739.3 1574.19 L1733.44 1574.19 L1733.44 1568.77 Q1731.44 1572.02 1728.44 1573.58 Q1725.45 1575.11 1721.12 1575.11 Q1715.65 1575.11 1712.4 1572.05 Q1709.19 1568.97 1709.19 1563.81 Q1709.19 1557.79 1713.2 1554.74 Q1717.24 1551.68 1725.23 1551.68 L1733.44 1551.68 L1733.44 1551.11 Q1733.44 1547.07 1730.77 1544.87 Q1728.13 1542.64 1723.32 1542.64 Q1720.26 1542.64 1717.37 1543.38 Q1714.47 1544.11 1711.8 1545.57 L1711.8 1540.16 Q1715.01 1538.92 1718.04 1538.31 Q1721.06 1537.68 1723.92 1537.68 Q1731.66 1537.68 1735.48 1541.69 Q1739.3 1545.7 1739.3 1553.85 Z" fill="#000000" fill-rule="nonzero" fill-opacity="1" /><path clip-path="url(#clip130)" d="M1757.15 1528.42 L1757.15 1538.54 L1769.22 1538.54 L1769.22 1543.09 L1757.15 1543.09 L1757.15 1562.44 Q1757.15 1566.8 1758.33 1568.04 Q1759.54 1569.28 1763.2 1569.28 L1769.22 1569.28 L1769.22 1574.19 L1763.2 1574.19 Q1756.42 1574.19 1753.84 1571.67 Q1751.26 1569.12 1751.26 1562.44 L1751.26 1543.09 L1746.97 1543.09 L1746.97 1538.54 L1751.26 1538.54 L1751.26 1528.42 L1757.15 1528.42 Z" fill="#000000" fill-rule="nonzero" fill-opacity="1" /><path clip-path="url(#clip130)" d="M1776.92 1538.54 L1782.77 1538.54 L1782.77 1574.19 L1776.92 1574.19 L1776.92 1538.54 M1776.92 1524.66 L1782.77 1524.66 L1782.77 1532.08 L1776.92 1532.08 L1776.92 1524.66 Z" fill="#000000" fill-rule="nonzero" fill-opacity="1" /><path clip-path="url(#clip130)" d="M1808.84 1542.64 Q1804.13 1542.64 1801.39 1546.34 Q1798.66 1550 1798.66 1556.39 Q1798.66 1562.79 1801.36 1566.48 Q1804.1 1570.14 1808.84 1570.14 Q1813.52 1570.14 1816.26 1566.45 Q1819 1562.76 1819 1556.39 Q1819 1550.06 1816.26 1546.37 Q1813.52 1542.64 1808.84 1542.64 M1808.84 1537.68 Q1816.48 1537.68 1820.84 1542.64 Q1825.2 1547.61 1825.2 1556.39 Q1825.2 1565.15 1820.84 1570.14 Q1816.48 1575.11 1808.84 1575.11 Q1801.17 1575.11 1796.81 1570.14 Q1792.48 1565.15 1792.48 1556.39 Q1792.48 1547.61 1796.81 1542.64 Q1801.17 1537.68 1808.84 1537.68 Z" fill="#000000" fill-rule="nonzero" fill-opacity="1" /><path clip-path="url(#clip130)" d="M1864.54 1552.67 L1864.54 1574.19 L1858.69 1574.19 L1858.69 1552.86 Q1858.69 1547.8 1856.71 1545.29 Q1854.74 1542.77 1850.79 1542.77 Q1846.05 1542.77 1843.31 1545.79 Q1840.58 1548.82 1840.58 1554.04 L1840.58 1574.19 L1834.69 1574.19 L1834.69 1538.54 L1840.58 1538.54 L1840.58 1544.08 Q1842.68 1540.86 1845.51 1539.27 Q1848.37 1537.68 1852.1 1537.68 Q1858.24 1537.68 1861.39 1541.5 Q1864.54 1545.29 1864.54 1552.67 Z" fill="#000000" fill-rule="nonzero" fill-opacity="1" /><polyline clip-path="url(#clip130)" style="stroke:#000000; stroke-linecap:round; stroke-linejoin:round; stroke-width:4; stroke-opacity:1; fill:none" points="239.19,1410.9 239.19,123.472 "/>
<polyline clip-path="url(#clip130)" style="stroke:#000000; stroke-linecap:round; stroke-linejoin:round; stroke-width:4; stroke-opacity:1; fill:none" points="239.19,1214.27 258.088,1214.27 "/>
<polyline clip-path="url(#clip130)" style="stroke:#000000; stroke-linecap:round; stroke-linejoin:round; stroke-width:4; stroke-opacity:1; fill:none" points="239.19,950.731 258.088,950.731 "/>
<polyline clip-path="url(#clip130)" style="stroke:#000000; stroke-linecap:round; stroke-linejoin:round; stroke-width:4; stroke-opacity:1; fill:none" points="239.19,687.189 258.088,687.189 "/>
<polyline clip-path="url(#clip130)" style="stroke:#000000; stroke-linecap:round; stroke-linejoin:round; stroke-width:4; stroke-opacity:1; fill:none" points="239.19,423.646 258.088,423.646 "/>
<polyline clip-path="url(#clip130)" style="stroke:#000000; stroke-linecap:round; stroke-linejoin:round; stroke-width:4; stroke-opacity:1; fill:none" points="239.19,160.104 258.088,160.104 "/>
<path clip-path="url(#clip130)" d="M50.9921 1214.72 L80.6679 1214.72 L80.6679 1218.66 L50.9921 1218.66 L50.9921 1214.72 Z" fill="#000000" fill-rule="nonzero" fill-opacity="1" /><path clip-path="url(#clip130)" d="M90.8067 1196.99 L109.163 1196.99 L109.163 1200.93 L95.0891 1200.93 L95.0891 1209.4 Q96.1076 1209.05 97.1261 1208.89 Q98.1447 1208.71 99.1632 1208.71 Q104.95 1208.71 108.33 1211.88 Q111.709 1215.05 111.709 1220.47 Q111.709 1226.04 108.237 1229.15 Q104.765 1232.22 98.4456 1232.22 Q96.2697 1232.22 94.0012 1231.85 Q91.7558 1231.48 89.3484 1230.74 L89.3484 1226.04 Q91.4317 1227.18 93.6539 1227.73 Q95.8761 1228.29 98.353 1228.29 Q102.358 1228.29 104.696 1226.18 Q107.033 1224.08 107.033 1220.47 Q107.033 1216.85 104.696 1214.75 Q102.358 1212.64 98.353 1212.64 Q96.478 1212.64 94.603 1213.06 Q92.7512 1213.47 90.8067 1214.35 L90.8067 1196.99 Z" fill="#000000" fill-rule="nonzero" fill-opacity="1" /><path clip-path="url(#clip130)" d="M130.922 1200.07 Q127.311 1200.07 125.482 1203.64 Q123.677 1207.18 123.677 1214.31 Q123.677 1221.41 125.482 1224.98 Q127.311 1228.52 130.922 1228.52 Q134.556 1228.52 136.362 1224.98 Q138.191 1221.41 138.191 1214.31 Q138.191 1207.18 136.362 1203.64 Q134.556 1200.07 130.922 1200.07 M130.922 1196.37 Q136.732 1196.37 139.788 1200.97 Q142.867 1205.56 142.867 1214.31 Q142.867 1223.03 139.788 1227.64 Q136.732 1232.22 130.922 1232.22 Q125.112 1232.22 122.033 1227.64 Q118.978 1223.03 118.978 1214.31 Q118.978 1205.56 122.033 1200.97 Q125.112 1196.37 130.922 1196.37 Z" fill="#000000" fill-rule="nonzero" fill-opacity="1" /><path clip-path="url(#clip130)" d="M161.084 1200.07 Q157.473 1200.07 155.644 1203.64 Q153.839 1207.18 153.839 1214.31 Q153.839 1221.41 155.644 1224.98 Q157.473 1228.52 161.084 1228.52 Q164.718 1228.52 166.524 1224.98 Q168.353 1221.41 168.353 1214.31 Q168.353 1207.18 166.524 1203.64 Q164.718 1200.07 161.084 1200.07 M161.084 1196.37 Q166.894 1196.37 169.95 1200.97 Q173.029 1205.56 173.029 1214.31 Q173.029 1223.03 169.95 1227.64 Q166.894 1232.22 161.084 1232.22 Q155.274 1232.22 152.195 1227.64 Q149.14 1223.03 149.14 1214.31 Q149.14 1205.56 152.195 1200.97 Q155.274 1196.37 161.084 1196.37 Z" fill="#000000" fill-rule="nonzero" fill-opacity="1" /><path clip-path="url(#clip130)" d="M191.246 1200.07 Q187.635 1200.07 185.806 1203.64 Q184.001 1207.18 184.001 1214.31 Q184.001 1221.41 185.806 1224.98 Q187.635 1228.52 191.246 1228.52 Q194.88 1228.52 196.686 1224.98 Q198.514 1221.41 198.514 1214.31 Q198.514 1207.18 196.686 1203.64 Q194.88 1200.07 191.246 1200.07 M191.246 1196.37 Q197.056 1196.37 200.112 1200.97 Q203.19 1205.56 203.19 1214.31 Q203.19 1223.03 200.112 1227.64 Q197.056 1232.22 191.246 1232.22 Q185.436 1232.22 182.357 1227.64 Q179.302 1223.03 179.302 1214.31 Q179.302 1205.56 182.357 1200.97 Q185.436 1196.37 191.246 1196.37 Z" fill="#000000" fill-rule="nonzero" fill-opacity="1" /><path clip-path="url(#clip130)" d="M50.9921 951.182 L80.6679 951.182 L80.6679 955.117 L50.9921 955.117 L50.9921 951.182 Z" fill="#000000" fill-rule="nonzero" fill-opacity="1" /><path clip-path="url(#clip130)" d="M103.608 937.525 L91.8021 955.974 L103.608 955.974 L103.608 937.525 M102.381 933.451 L108.26 933.451 L108.26 955.974 L113.191 955.974 L113.191 959.863 L108.26 959.863 L108.26 968.011 L103.608 968.011 L103.608 959.863 L88.0058 959.863 L88.0058 955.349 L102.381 933.451 Z" fill="#000000" fill-rule="nonzero" fill-opacity="1" /><path clip-path="url(#clip130)" d="M130.922 936.53 Q127.311 936.53 125.482 940.094 Q123.677 943.636 123.677 950.766 Q123.677 957.872 125.482 961.437 Q127.311 964.978 130.922 964.978 Q134.556 964.978 136.362 961.437 Q138.191 957.872 138.191 950.766 Q138.191 943.636 136.362 940.094 Q134.556 936.53 130.922 936.53 M130.922 932.826 Q136.732 932.826 139.788 937.432 Q142.867 942.016 142.867 950.766 Q142.867 959.492 139.788 964.099 Q136.732 968.682 130.922 968.682 Q125.112 968.682 122.033 964.099 Q118.978 959.492 118.978 950.766 Q118.978 942.016 122.033 937.432 Q125.112 932.826 130.922 932.826 Z" fill="#000000" fill-rule="nonzero" fill-opacity="1" /><path clip-path="url(#clip130)" d="M161.084 936.53 Q157.473 936.53 155.644 940.094 Q153.839 943.636 153.839 950.766 Q153.839 957.872 155.644 961.437 Q157.473 964.978 161.084 964.978 Q164.718 964.978 166.524 961.437 Q168.353 957.872 168.353 950.766 Q168.353 943.636 166.524 940.094 Q164.718 936.53 161.084 936.53 M161.084 932.826 Q166.894 932.826 169.95 937.432 Q173.029 942.016 173.029 950.766 Q173.029 959.492 169.95 964.099 Q166.894 968.682 161.084 968.682 Q155.274 968.682 152.195 964.099 Q149.14 959.492 149.14 950.766 Q149.14 942.016 152.195 937.432 Q155.274 932.826 161.084 932.826 Z" fill="#000000" fill-rule="nonzero" fill-opacity="1" /><path clip-path="url(#clip130)" d="M191.246 936.53 Q187.635 936.53 185.806 940.094 Q184.001 943.636 184.001 950.766 Q184.001 957.872 185.806 961.437 Q187.635 964.978 191.246 964.978 Q194.88 964.978 196.686 961.437 Q198.514 957.872 198.514 950.766 Q198.514 943.636 196.686 940.094 Q194.88 936.53 191.246 936.53 M191.246 932.826 Q197.056 932.826 200.112 937.432 Q203.19 942.016 203.19 950.766 Q203.19 959.492 200.112 964.099 Q197.056 968.682 191.246 968.682 Q185.436 968.682 182.357 964.099 Q179.302 959.492 179.302 950.766 Q179.302 942.016 182.357 937.432 Q185.436 932.826 191.246 932.826 Z" fill="#000000" fill-rule="nonzero" fill-opacity="1" /><path clip-path="url(#clip130)" d="M50.9921 687.64 L80.6679 687.64 L80.6679 691.575 L50.9921 691.575 L50.9921 687.64 Z" fill="#000000" fill-rule="nonzero" fill-opacity="1" /><path clip-path="url(#clip130)" d="M104.927 685.835 Q108.283 686.552 110.158 688.821 Q112.057 691.089 112.057 694.422 Q112.057 699.538 108.538 702.339 Q105.02 705.14 98.5382 705.14 Q96.3623 705.14 94.0475 704.7 Q91.7558 704.283 89.3021 703.427 L89.3021 698.913 Q91.2465 700.047 93.5613 700.626 Q95.8761 701.205 98.3993 701.205 Q102.797 701.205 105.089 699.469 Q107.404 697.733 107.404 694.422 Q107.404 691.367 105.251 689.654 Q103.121 687.918 99.3021 687.918 L95.2743 687.918 L95.2743 684.075 L99.4872 684.075 Q102.936 684.075 104.765 682.71 Q106.594 681.321 106.594 678.728 Q106.594 676.066 104.696 674.654 Q102.821 673.219 99.3021 673.219 Q97.3808 673.219 95.1817 673.635 Q92.9826 674.052 90.3438 674.932 L90.3438 670.765 Q93.0058 670.024 95.3206 669.654 Q97.6585 669.284 99.7187 669.284 Q105.043 669.284 108.145 671.714 Q111.246 674.122 111.246 678.242 Q111.246 681.112 109.603 683.103 Q107.959 685.071 104.927 685.835 Z" fill="#000000" fill-rule="nonzero" fill-opacity="1" /><path clip-path="url(#clip130)" d="M130.922 672.987 Q127.311 672.987 125.482 676.552 Q123.677 680.094 123.677 687.223 Q123.677 694.33 125.482 697.895 Q127.311 701.436 130.922 701.436 Q134.556 701.436 136.362 697.895 Q138.191 694.33 138.191 687.223 Q138.191 680.094 136.362 676.552 Q134.556 672.987 130.922 672.987 M130.922 669.284 Q136.732 669.284 139.788 673.89 Q142.867 678.473 142.867 687.223 Q142.867 695.95 139.788 700.557 Q136.732 705.14 130.922 705.14 Q125.112 705.14 122.033 700.557 Q118.978 695.95 118.978 687.223 Q118.978 678.473 122.033 673.89 Q125.112 669.284 130.922 669.284 Z" fill="#000000" fill-rule="nonzero" fill-opacity="1" /><path clip-path="url(#clip130)" d="M161.084 672.987 Q157.473 672.987 155.644 676.552 Q153.839 680.094 153.839 687.223 Q153.839 694.33 155.644 697.895 Q157.473 701.436 161.084 701.436 Q164.718 701.436 166.524 697.895 Q168.353 694.33 168.353 687.223 Q168.353 680.094 166.524 676.552 Q164.718 672.987 161.084 672.987 M161.084 669.284 Q166.894 669.284 169.95 673.89 Q173.029 678.473 173.029 687.223 Q173.029 695.95 169.95 700.557 Q166.894 705.14 161.084 705.14 Q155.274 705.14 152.195 700.557 Q149.14 695.95 149.14 687.223 Q149.14 678.473 152.195 673.89 Q155.274 669.284 161.084 669.284 Z" fill="#000000" fill-rule="nonzero" fill-opacity="1" /><path clip-path="url(#clip130)" d="M191.246 672.987 Q187.635 672.987 185.806 676.552 Q184.001 680.094 184.001 687.223 Q184.001 694.33 185.806 697.895 Q187.635 701.436 191.246 701.436 Q194.88 701.436 196.686 697.895 Q198.514 694.33 198.514 687.223 Q198.514 680.094 196.686 676.552 Q194.88 672.987 191.246 672.987 M191.246 669.284 Q197.056 669.284 200.112 673.89 Q203.19 678.473 203.19 687.223 Q203.19 695.95 200.112 700.557 Q197.056 705.14 191.246 705.14 Q185.436 705.14 182.357 700.557 Q179.302 695.95 179.302 687.223 Q179.302 678.473 182.357 673.89 Q185.436 669.284 191.246 669.284 Z" fill="#000000" fill-rule="nonzero" fill-opacity="1" /><path clip-path="url(#clip130)" d="M50.9921 424.098 L80.6679 424.098 L80.6679 428.033 L50.9921 428.033 L50.9921 424.098 Z" fill="#000000" fill-rule="nonzero" fill-opacity="1" /><path clip-path="url(#clip130)" d="M94.7882 436.991 L111.108 436.991 L111.108 440.926 L89.1632 440.926 L89.1632 436.991 Q91.8252 434.237 96.4085 429.607 Q101.015 424.954 102.196 423.612 Q104.441 421.089 105.321 419.353 Q106.223 417.593 106.223 415.903 Q106.223 413.149 104.279 411.413 Q102.358 409.677 99.2558 409.677 Q97.0567 409.677 94.603 410.441 Q92.1725 411.204 89.3947 412.755 L89.3947 408.033 Q92.2188 406.899 94.6724 406.32 Q97.1261 405.741 99.1632 405.741 Q104.534 405.741 107.728 408.427 Q110.922 411.112 110.922 415.603 Q110.922 417.732 110.112 419.653 Q109.325 421.552 107.219 424.144 Q106.64 424.815 103.538 428.033 Q100.436 431.227 94.7882 436.991 Z" fill="#000000" fill-rule="nonzero" fill-opacity="1" /><path clip-path="url(#clip130)" d="M130.922 409.445 Q127.311 409.445 125.482 413.01 Q123.677 416.552 123.677 423.681 Q123.677 430.788 125.482 434.352 Q127.311 437.894 130.922 437.894 Q134.556 437.894 136.362 434.352 Q138.191 430.788 138.191 423.681 Q138.191 416.552 136.362 413.01 Q134.556 409.445 130.922 409.445 M130.922 405.741 Q136.732 405.741 139.788 410.348 Q142.867 414.931 142.867 423.681 Q142.867 432.408 139.788 437.014 Q136.732 441.598 130.922 441.598 Q125.112 441.598 122.033 437.014 Q118.978 432.408 118.978 423.681 Q118.978 414.931 122.033 410.348 Q125.112 405.741 130.922 405.741 Z" fill="#000000" fill-rule="nonzero" fill-opacity="1" /><path clip-path="url(#clip130)" d="M161.084 409.445 Q157.473 409.445 155.644 413.01 Q153.839 416.552 153.839 423.681 Q153.839 430.788 155.644 434.352 Q157.473 437.894 161.084 437.894 Q164.718 437.894 166.524 434.352 Q168.353 430.788 168.353 423.681 Q168.353 416.552 166.524 413.01 Q164.718 409.445 161.084 409.445 M161.084 405.741 Q166.894 405.741 169.95 410.348 Q173.029 414.931 173.029 423.681 Q173.029 432.408 169.95 437.014 Q166.894 441.598 161.084 441.598 Q155.274 441.598 152.195 437.014 Q149.14 432.408 149.14 423.681 Q149.14 414.931 152.195 410.348 Q155.274 405.741 161.084 405.741 Z" fill="#000000" fill-rule="nonzero" fill-opacity="1" /><path clip-path="url(#clip130)" d="M191.246 409.445 Q187.635 409.445 185.806 413.01 Q184.001 416.552 184.001 423.681 Q184.001 430.788 185.806 434.352 Q187.635 437.894 191.246 437.894 Q194.88 437.894 196.686 434.352 Q198.514 430.788 198.514 423.681 Q198.514 416.552 196.686 413.01 Q194.88 409.445 191.246 409.445 M191.246 405.741 Q197.056 405.741 200.112 410.348 Q203.19 414.931 203.19 423.681 Q203.19 432.408 200.112 437.014 Q197.056 441.598 191.246 441.598 Q185.436 441.598 182.357 437.014 Q179.302 432.408 179.302 423.681 Q179.302 414.931 182.357 410.348 Q185.436 405.741 191.246 405.741 Z" fill="#000000" fill-rule="nonzero" fill-opacity="1" /><path clip-path="url(#clip130)" d="M50.9921 160.556 L80.6679 160.556 L80.6679 164.491 L50.9921 164.491 L50.9921 160.556 Z" fill="#000000" fill-rule="nonzero" fill-opacity="1" /><path clip-path="url(#clip130)" d="M91.5706 173.449 L99.2095 173.449 L99.2095 147.084 L90.8993 148.75 L90.8993 144.491 L99.1632 142.824 L103.839 142.824 L103.839 173.449 L111.478 173.449 L111.478 177.384 L91.5706 177.384 L91.5706 173.449 Z" fill="#000000" fill-rule="nonzero" fill-opacity="1" /><path clip-path="url(#clip130)" d="M130.922 145.903 Q127.311 145.903 125.482 149.468 Q123.677 153.009 123.677 160.139 Q123.677 167.245 125.482 170.81 Q127.311 174.352 130.922 174.352 Q134.556 174.352 136.362 170.81 Q138.191 167.245 138.191 160.139 Q138.191 153.009 136.362 149.468 Q134.556 145.903 130.922 145.903 M130.922 142.199 Q136.732 142.199 139.788 146.806 Q142.867 151.389 142.867 160.139 Q142.867 168.866 139.788 173.472 Q136.732 178.056 130.922 178.056 Q125.112 178.056 122.033 173.472 Q118.978 168.866 118.978 160.139 Q118.978 151.389 122.033 146.806 Q125.112 142.199 130.922 142.199 Z" fill="#000000" fill-rule="nonzero" fill-opacity="1" /><path clip-path="url(#clip130)" d="M161.084 145.903 Q157.473 145.903 155.644 149.468 Q153.839 153.009 153.839 160.139 Q153.839 167.245 155.644 170.81 Q157.473 174.352 161.084 174.352 Q164.718 174.352 166.524 170.81 Q168.353 167.245 168.353 160.139 Q168.353 153.009 166.524 149.468 Q164.718 145.903 161.084 145.903 M161.084 142.199 Q166.894 142.199 169.95 146.806 Q173.029 151.389 173.029 160.139 Q173.029 168.866 169.95 173.472 Q166.894 178.056 161.084 178.056 Q155.274 178.056 152.195 173.472 Q149.14 168.866 149.14 160.139 Q149.14 151.389 152.195 146.806 Q155.274 142.199 161.084 142.199 Z" fill="#000000" fill-rule="nonzero" fill-opacity="1" /><path clip-path="url(#clip130)" d="M191.246 145.903 Q187.635 145.903 185.806 149.468 Q184.001 153.009 184.001 160.139 Q184.001 167.245 185.806 170.81 Q187.635 174.352 191.246 174.352 Q194.88 174.352 196.686 170.81 Q198.514 167.245 198.514 160.139 Q198.514 153.009 196.686 149.468 Q194.88 145.903 191.246 145.903 M191.246 142.199 Q197.056 142.199 200.112 146.806 Q203.19 151.389 203.19 160.139 Q203.19 168.866 200.112 173.472 Q197.056 178.056 191.246 178.056 Q185.436 178.056 182.357 173.472 Q179.302 168.866 179.302 160.139 Q179.302 151.389 182.357 146.806 Q185.436 142.199 191.246 142.199 Z" fill="#000000" fill-rule="nonzero" fill-opacity="1" /><path clip-path="url(#clip130)" d="M1017.21 12.096 L1025.39 12.096 L1025.39 65.6895 L1054.84 65.6895 L1054.84 72.576 L1017.21 72.576 L1017.21 12.096 Z" fill="#000000" fill-rule="nonzero" fill-opacity="1" /><path clip-path="url(#clip130)" d="M1079.23 32.4315 Q1073.23 32.4315 1069.75 37.1306 Q1066.27 41.7891 1066.27 49.9314 Q1066.27 58.0738 1069.71 62.7728 Q1073.19 67.4314 1079.23 67.4314 Q1085.18 67.4314 1088.67 62.7323 Q1092.15 58.0333 1092.15 49.9314 Q1092.15 41.8701 1088.67 37.1711 Q1085.18 32.4315 1079.23 32.4315 M1079.23 26.1121 Q1088.95 26.1121 1094.5 32.4315 Q1100.05 38.7509 1100.05 49.9314 Q1100.05 61.0714 1094.5 67.4314 Q1088.95 73.7508 1079.23 73.7508 Q1069.47 73.7508 1063.92 67.4314 Q1058.41 61.0714 1058.41 49.9314 Q1058.41 38.7509 1063.92 32.4315 Q1069.47 26.1121 1079.23 26.1121 Z" fill="#000000" fill-rule="nonzero" fill-opacity="1" /><path clip-path="url(#clip130)" d="M1142.26 49.3643 Q1142.26 41.2625 1138.9 36.8065 Q1135.58 32.3505 1129.54 32.3505 Q1123.55 32.3505 1120.18 36.8065 Q1116.86 41.2625 1116.86 49.3643 Q1116.86 57.4256 1120.18 61.8816 Q1123.55 66.3376 1129.54 66.3376 Q1135.58 66.3376 1138.9 61.8816 Q1142.26 57.4256 1142.26 49.3643 M1149.72 66.9452 Q1149.72 78.5308 1144.57 84.1616 Q1139.43 89.8329 1128.81 89.8329 Q1124.88 89.8329 1121.4 89.2252 Q1117.92 88.6581 1114.63 87.4428 L1114.63 80.1917 Q1117.92 81.9741 1121.12 82.8248 Q1124.32 83.6755 1127.64 83.6755 Q1134.97 83.6755 1138.62 79.8271 Q1142.26 76.0193 1142.26 68.282 L1142.26 64.5957 Q1139.95 68.6061 1136.35 70.5911 Q1132.74 72.576 1127.72 72.576 Q1119.37 72.576 1114.27 66.2161 Q1109.17 59.8562 1109.17 49.3643 Q1109.17 38.832 1114.27 32.472 Q1119.37 26.1121 1127.72 26.1121 Q1132.74 26.1121 1136.35 28.0971 Q1139.95 30.082 1142.26 34.0924 L1142.26 27.2059 L1149.72 27.2059 L1149.72 66.9452 Z" fill="#000000" fill-rule="nonzero" fill-opacity="1" /><path clip-path="url(#clip130)" d="M1161.3 46.5287 L1183.14 46.5287 L1183.14 53.1722 L1161.3 53.1722 L1161.3 46.5287 Z" fill="#000000" fill-rule="nonzero" fill-opacity="1" /><path clip-path="url(#clip130)" d="M1195 9.54393 L1202.46 9.54393 L1202.46 72.576 L1195 72.576 L1195 9.54393 Z" fill="#000000" fill-rule="nonzero" fill-opacity="1" /><path clip-path="url(#clip130)" d="M1218.05 27.2059 L1225.51 27.2059 L1225.51 72.576 L1218.05 72.576 L1218.05 27.2059 M1218.05 9.54393 L1225.51 9.54393 L1225.51 18.9825 L1218.05 18.9825 L1218.05 9.54393 Z" fill="#000000" fill-rule="nonzero" fill-opacity="1" /><path clip-path="url(#clip130)" d="M1240.82 9.54393 L1248.31 9.54393 L1248.31 46.7717 L1270.55 27.2059 L1280.07 27.2059 L1256.01 48.4326 L1281.09 72.576 L1271.36 72.576 L1248.31 50.4176 L1248.31 72.576 L1240.82 72.576 L1240.82 9.54393 Z" fill="#000000" fill-rule="nonzero" fill-opacity="1" /><path clip-path="url(#clip130)" d="M1325 48.0275 L1325 51.6733 L1290.73 51.6733 Q1291.21 59.3701 1295.35 63.421 Q1299.52 67.4314 1306.93 67.4314 Q1311.22 67.4314 1315.24 66.3781 Q1319.29 65.3249 1323.26 63.2184 L1323.26 70.267 Q1319.25 71.9684 1315.03 72.8596 Q1310.82 73.7508 1306.49 73.7508 Q1295.63 73.7508 1289.27 67.4314 Q1282.95 61.1119 1282.95 50.3365 Q1282.95 39.1965 1288.94 32.6746 Q1294.98 26.1121 1305.19 26.1121 Q1314.34 26.1121 1319.65 32.0264 Q1325 37.9003 1325 48.0275 M1317.54 45.84 Q1317.46 39.7232 1314.1 36.0774 Q1310.78 32.4315 1305.27 32.4315 Q1299.03 32.4315 1295.26 35.9558 Q1291.54 39.4801 1290.97 45.8805 L1317.54 45.84 Z" fill="#000000" fill-rule="nonzero" fill-opacity="1" /><path clip-path="url(#clip130)" d="M1337.23 9.54393 L1344.69 9.54393 L1344.69 72.576 L1337.23 72.576 L1337.23 9.54393 Z" fill="#000000" fill-rule="nonzero" fill-opacity="1" /><path clip-path="url(#clip130)" d="M1360.28 27.2059 L1367.73 27.2059 L1367.73 72.576 L1360.28 72.576 L1360.28 27.2059 M1360.28 9.54393 L1367.73 9.54393 L1367.73 18.9825 L1360.28 18.9825 L1360.28 9.54393 Z" fill="#000000" fill-rule="nonzero" fill-opacity="1" /><path clip-path="url(#clip130)" d="M1421.04 45.1919 L1421.04 72.576 L1413.59 72.576 L1413.59 45.4349 Q1413.59 38.994 1411.08 35.7938 Q1408.57 32.5936 1403.54 32.5936 Q1397.51 32.5936 1394.03 36.4419 Q1390.54 40.2903 1390.54 46.9338 L1390.54 72.576 L1383.05 72.576 L1383.05 9.54393 L1390.54 9.54393 L1390.54 34.2544 Q1393.22 30.163 1396.82 28.1376 Q1400.47 26.1121 1405.21 26.1121 Q1413.02 26.1121 1417.03 30.9732 Q1421.04 35.7938 1421.04 45.1919 Z" fill="#000000" fill-rule="nonzero" fill-opacity="1" /><path clip-path="url(#clip130)" d="M1453.49 32.4315 Q1447.5 32.4315 1444.01 37.1306 Q1440.53 41.7891 1440.53 49.9314 Q1440.53 58.0738 1443.97 62.7728 Q1447.46 67.4314 1453.49 67.4314 Q1459.45 67.4314 1462.93 62.7323 Q1466.41 58.0333 1466.41 49.9314 Q1466.41 41.8701 1462.93 37.1711 Q1459.45 32.4315 1453.49 32.4315 M1453.49 26.1121 Q1463.21 26.1121 1468.76 32.4315 Q1474.31 38.7509 1474.31 49.9314 Q1474.31 61.0714 1468.76 67.4314 Q1463.21 73.7508 1453.49 73.7508 Q1443.73 73.7508 1438.18 67.4314 Q1432.67 61.0714 1432.67 49.9314 Q1432.67 38.7509 1438.18 32.4315 Q1443.73 26.1121 1453.49 26.1121 Z" fill="#000000" fill-rule="nonzero" fill-opacity="1" /><path clip-path="url(#clip130)" d="M1504.25 32.4315 Q1498.26 32.4315 1494.77 37.1306 Q1491.29 41.7891 1491.29 49.9314 Q1491.29 58.0738 1494.73 62.7728 Q1498.21 67.4314 1504.25 67.4314 Q1510.21 67.4314 1513.69 62.7323 Q1517.17 58.0333 1517.17 49.9314 Q1517.17 41.8701 1513.69 37.1711 Q1510.21 32.4315 1504.25 32.4315 M1504.25 26.1121 Q1513.97 26.1121 1519.52 32.4315 Q1525.07 38.7509 1525.07 49.9314 Q1525.07 61.0714 1519.52 67.4314 Q1513.97 73.7508 1504.25 73.7508 Q1494.49 73.7508 1488.94 67.4314 Q1483.43 61.0714 1483.43 49.9314 Q1483.43 38.7509 1488.94 32.4315 Q1494.49 26.1121 1504.25 26.1121 Z" fill="#000000" fill-rule="nonzero" fill-opacity="1" /><path clip-path="url(#clip130)" d="M1567.28 34.0924 L1567.28 9.54393 L1574.74 9.54393 L1574.74 72.576 L1567.28 72.576 L1567.28 65.7705 Q1564.93 69.8214 1561.33 71.8063 Q1557.76 73.7508 1552.74 73.7508 Q1544.52 73.7508 1539.33 67.1883 Q1534.19 60.6258 1534.19 49.9314 Q1534.19 39.2371 1539.33 32.6746 Q1544.52 26.1121 1552.74 26.1121 Q1557.76 26.1121 1561.33 28.0971 Q1564.93 30.0415 1567.28 34.0924 M1541.88 49.9314 Q1541.88 58.1548 1545.25 62.8538 Q1548.65 67.5124 1554.56 67.5124 Q1560.48 67.5124 1563.88 62.8538 Q1567.28 58.1548 1567.28 49.9314 Q1567.28 41.7081 1563.88 37.0496 Q1560.48 32.3505 1554.56 32.3505 Q1548.65 32.3505 1545.25 37.0496 Q1541.88 41.7081 1541.88 49.9314 Z" fill="#000000" fill-rule="nonzero" fill-opacity="1" /><polyline clip-path="url(#clip131)" style="stroke:#009af9; stroke-linecap:round; stroke-linejoin:round; stroke-width:4; stroke-opacity:1; fill:none" points="299.008,685.459 332.804,602.714 366.599,471.117 400.395,437.444 434.19,439.862 467.985,377.736 501.781,364.914 535.576,315.813 569.372,301.518 603.167,287.094 636.962,271.875 670.758,255.958 704.553,240.737 738.349,240.929 772.144,225.077 805.94,219.203 839.735,215.834 873.53,212.318 907.326,206.468 941.121,206.542 974.917,203.713 1008.71,202.793 1042.51,202.133 1076.3,200.655 1110.1,201.27 1143.89,202.052 1177.69,202.364 1211.48,203.9 1245.28,206.285 1279.08,209.039 1312.87,212.019 1346.67,215.319 1380.46,219.732 1414.26,223.795 1448.05,229.138 1481.85,235.144 1515.64,240.878 1549.44,249.177 1583.23,255.667 1617.03,263.176 1650.83,273.879 1684.62,280.971 1718.42,290.553 1752.21,299.513 1786.01,309.897 1819.8,320.253 1853.6,330.085 1887.39,341.057 1921.19,351.194 1954.98,361.467 1988.78,374.398 2022.57,385.541 2056.37,396.755 2090.17,410.017 2123.96,420.65 2157.76,433.303 2191.55,445.813 2225.35,456.052 2259.14,468.677 2292.94,481.596 "/>
<polyline clip-path="url(#clip131)" style="stroke:#008000; stroke-linecap:round; stroke-linejoin:round; stroke-width:4; stroke-opacity:1; fill:none" points="299.008,599.804 332.804,568.766 366.599,491.231 400.395,469.791 434.19,425.033 467.985,397.026 501.781,349.708 535.576,326.278 569.372,323.541 603.167,280.829 636.962,289.138 670.758,266.231 704.553,257.201 738.349,245.571 772.144,240.788 805.94,221.543 839.735,217.999 873.53,214.775 907.326,207.456 941.121,205.339 974.917,203.242 1008.71,202.173 1042.51,201.239 1076.3,200.971 1110.1,200.445 1143.89,202.404 1177.69,202.582 1211.48,203.183 1245.28,205.854 1279.08,208.205 1312.87,211.879 1346.67,214.596 1380.46,219.24 1414.26,223.614 1448.05,229.065 1481.85,234.822 1515.64,241.511 1549.44,248.438 1583.23,255.31 1617.03,263.811 1650.83,272.198 1684.62,281.38 1718.42,290.292 1752.21,299.56 1786.01,309.911 1819.8,319.668 1853.6,330.934 1887.39,341.45 1921.19,351.178 1954.98,363.208 1988.78,375.307 2022.57,387.637 2056.37,398.753 2090.17,409.611 2123.96,422.411 2157.76,434.399 2191.55,447.026 2225.35,459.914 2259.14,473.637 2292.94,483.444 "/>
<polyline clip-path="url(#clip131)" style="stroke:#0000ff; stroke-linecap:round; stroke-linejoin:round; stroke-width:4; stroke-opacity:1; fill:none" stroke-dasharray="16, 10" points="1076.3,2698.32 1076.3,-1163.95 "/>
<polyline clip-path="url(#clip131)" style="stroke:#ff0000; stroke-linecap:round; stroke-linejoin:round; stroke-width:4; stroke-opacity:1; fill:none" points="299.008,341.935 332.804,328.261 366.599,315.406 400.395,303.365 434.19,292.127 467.985,281.678 501.781,272.001 535.576,263.075 569.372,254.874 603.167,247.369 636.962,240.533 670.758,234.333 704.553,228.741 738.349,223.726 772.144,219.26 805.94,215.319 839.735,211.878 873.53,208.918 907.326,206.423 941.121,204.378 974.917,202.775 1008.71,201.607 1042.51,200.872 1076.3,200.572 1110.1,200.713 1143.89,201.303 1177.69,202.354 1211.48,203.881 1245.28,205.899 1279.08,208.425 1312.87,211.474 1346.67,215.062 1380.46,219.198 1414.26,223.891 1448.05,229.142 1481.85,234.949 1515.64,241.302 1549.44,248.187 1583.23,255.584 1617.03,263.47 1650.83,271.815 1684.62,280.589 1718.42,289.761 1752.21,299.297 1786.01,309.163 1819.8,319.328 1853.6,329.762 1887.39,340.434 1921.19,351.318 1954.98,362.389 1988.78,373.625 2022.57,385.004 2056.37,396.51 2090.17,408.124 2123.96,419.834 2157.76,431.626 2191.55,443.49 2225.35,455.415 2259.14,467.393 2292.94,479.417 "/>
<polyline clip-path="url(#clip131)" style="stroke:#ff0000; stroke-linecap:round; stroke-linejoin:round; stroke-width:4; stroke-opacity:1; fill:none" stroke-dasharray="16, 10" points="1076.3,2698.32 1076.3,-1163.95 "/>
<polyline clip-path="url(#clip131)" style="stroke:#800080; stroke-linecap:round; stroke-linejoin:round; stroke-width:4; stroke-opacity:1; fill:none" points="299.008,1374.46 332.804,1194.92 366.599,1039.25 400.395,904.501 434.19,788.066 467.985,687.646 501.781,601.214 535.576,526.987 569.372,463.398 603.167,409.072 636.962,362.806 670.758,323.547 704.553,290.379 738.349,262.504 772.144,239.228 805.94,219.95 839.735,204.149 873.53,191.376 907.326,181.24 941.121,173.407 974.917,167.589 1008.71,163.536 1042.51,161.037 1076.3,159.909 1110.1,159.997 1143.89,161.169 1177.69,163.313 1211.48,166.333 1245.28,170.151 1279.08,174.697 1312.87,179.914 1346.67,185.751 1380.46,192.165 1414.26,199.117 1448.05,206.571 1481.85,214.494 1515.64,222.853 1549.44,231.619 1583.23,240.761 1617.03,250.25 1650.83,260.056 1684.62,270.153 1718.42,280.511 1752.21,291.107 1786.01,301.915 1819.8,312.913 1853.6,324.079 1887.39,335.393 1921.19,346.838 1954.98,358.399 1988.78,370.059 2022.57,381.807 2056.37,393.632 2090.17,405.523 2123.96,417.47 2157.76,429.468 2191.55,441.508 2225.35,453.585 2259.14,465.694 2292.94,477.83 "/>
<polyline clip-path="url(#clip131)" style="stroke:#800080; stroke-linecap:round; stroke-linejoin:round; stroke-width:4; stroke-opacity:1; fill:none" stroke-dasharray="16, 10" points="1076.3,2698.32 1076.3,-1163.95 "/>
<path clip-path="url(#clip130)" d="M1235.65 425.586 L2282.3 425.586 L2282.3 166.386 L1235.65 166.386  Z" fill="#ffffff" fill-rule="evenodd" fill-opacity="1"/>
<polyline clip-path="url(#clip130)" style="stroke:#000000; stroke-linecap:round; stroke-linejoin:round; stroke-width:4; stroke-opacity:1; fill:none" points="1235.65,425.586 2282.3,425.586 2282.3,166.386 1235.65,166.386 1235.65,425.586 "/>
<polyline clip-path="url(#clip130)" style="stroke:#009af9; stroke-linecap:round; stroke-linejoin:round; stroke-width:4; stroke-opacity:1; fill:none" points="1259.13,218.226 1400.04,218.226 "/>
<path clip-path="url(#clip130)" d="M1428.2 204.789 L1428.2 217.775 L1434.08 217.775 Q1437.34 217.775 1439.12 216.085 Q1440.91 214.395 1440.91 211.27 Q1440.91 208.168 1439.12 206.479 Q1437.34 204.789 1434.08 204.789 L1428.2 204.789 M1423.52 200.946 L1434.08 200.946 Q1439.89 200.946 1442.85 203.585 Q1445.84 206.201 1445.84 211.27 Q1445.84 216.386 1442.85 219.002 Q1439.89 221.617 1434.08 221.617 L1428.2 221.617 L1428.2 235.506 L1423.52 235.506 L1423.52 200.946 Z" fill="#000000" fill-rule="nonzero" fill-opacity="1" /><path clip-path="url(#clip130)" d="M1452.11 200.946 L1471.97 200.946 L1471.97 204.881 L1456.79 204.881 L1456.79 215.067 L1470.49 215.067 L1470.49 219.002 L1456.79 219.002 L1456.79 235.506 L1452.11 235.506 L1452.11 200.946 Z" fill="#000000" fill-rule="nonzero" fill-opacity="1" /><polyline clip-path="url(#clip130)" style="stroke:#008000; stroke-linecap:round; stroke-linejoin:round; stroke-width:4; stroke-opacity:1; fill:none" points="1259.13,270.066 1400.04,270.066 "/>
<path clip-path="url(#clip130)" d="M1439.36 257.393 L1433.01 274.592 L1445.72 274.592 L1439.36 257.393 M1436.72 252.786 L1442.02 252.786 L1455.19 287.346 L1450.33 287.346 L1447.18 278.481 L1431.6 278.481 L1428.45 287.346 L1423.52 287.346 L1436.72 252.786 Z" fill="#000000" fill-rule="nonzero" fill-opacity="1" /><path clip-path="url(#clip130)" d="M1459.7 252.786 L1464.4 252.786 L1464.4 273.782 Q1464.4 279.337 1466.42 281.791 Q1468.43 284.221 1472.94 284.221 Q1477.43 284.221 1479.45 281.791 Q1481.46 279.337 1481.46 273.782 L1481.46 252.786 L1486.16 252.786 L1486.16 274.36 Q1486.16 281.119 1482.81 284.569 Q1479.47 288.018 1472.94 288.018 Q1466.39 288.018 1463.04 284.569 Q1459.7 281.119 1459.7 274.36 L1459.7 252.786 Z" fill="#000000" fill-rule="nonzero" fill-opacity="1" /><path clip-path="url(#clip130)" d="M1493.27 252.786 L1498.29 252.786 L1506.88 265.633 L1515.51 252.786 L1520.54 252.786 L1509.43 269.383 L1521.28 287.346 L1516.25 287.346 L1506.53 272.647 L1496.74 287.346 L1491.69 287.346 L1504.03 268.897 L1493.27 252.786 Z" fill="#000000" fill-rule="nonzero" fill-opacity="1" /><path clip-path="url(#clip130)" d="M1547.16 256.629 L1547.16 269.615 L1553.04 269.615 Q1556.3 269.615 1558.08 267.925 Q1559.87 266.235 1559.87 263.11 Q1559.87 260.008 1558.08 258.319 Q1556.3 256.629 1553.04 256.629 L1547.16 256.629 M1542.48 252.786 L1553.04 252.786 Q1558.85 252.786 1561.81 255.425 Q1564.8 258.041 1564.8 263.11 Q1564.8 268.226 1561.81 270.842 Q1558.85 273.457 1553.04 273.457 L1547.16 273.457 L1547.16 287.346 L1542.48 287.346 L1542.48 252.786 Z" fill="#000000" fill-rule="nonzero" fill-opacity="1" /><path clip-path="url(#clip130)" d="M1571.07 252.786 L1590.93 252.786 L1590.93 256.721 L1575.74 256.721 L1575.74 266.907 L1589.45 266.907 L1589.45 270.842 L1575.74 270.842 L1575.74 287.346 L1571.07 287.346 L1571.07 252.786 Z" fill="#000000" fill-rule="nonzero" fill-opacity="1" /><polyline clip-path="url(#clip130)" style="stroke:#ff0000; stroke-linecap:round; stroke-linejoin:round; stroke-width:4; stroke-opacity:1; fill:none" points="1259.13,321.906 1400.04,321.906 "/>
<path clip-path="url(#clip130)" d="M1423.52 304.626 L1428.2 304.626 L1428.2 319.233 L1443.71 304.626 L1449.73 304.626 L1432.57 320.737 L1450.95 339.186 L1444.8 339.186 L1428.2 322.543 L1428.2 339.186 L1423.52 339.186 L1423.52 304.626 Z" fill="#000000" fill-rule="nonzero" fill-opacity="1" /><path clip-path="url(#clip130)" d="M1465.37 326.154 Q1460.21 326.154 1458.22 327.334 Q1456.23 328.515 1456.23 331.362 Q1456.23 333.631 1457.71 334.973 Q1459.22 336.293 1461.79 336.293 Q1465.33 336.293 1467.46 333.793 Q1469.61 331.27 1469.61 327.103 L1469.61 326.154 L1465.37 326.154 M1473.87 324.395 L1473.87 339.186 L1469.61 339.186 L1469.61 335.251 Q1468.15 337.612 1465.98 338.746 Q1463.8 339.858 1460.65 339.858 Q1456.67 339.858 1454.31 337.635 Q1451.97 335.39 1451.97 331.64 Q1451.97 327.265 1454.89 325.043 Q1457.83 322.821 1463.64 322.821 L1469.61 322.821 L1469.61 322.404 Q1469.61 319.464 1467.67 317.867 Q1465.75 316.247 1462.25 316.247 Q1460.03 316.247 1457.92 316.779 Q1455.81 317.311 1453.87 318.376 L1453.87 314.441 Q1456.21 313.538 1458.41 313.098 Q1460.61 312.635 1462.69 312.635 Q1468.31 312.635 1471.09 315.552 Q1473.87 318.469 1473.87 324.395 Z" fill="#000000" fill-rule="nonzero" fill-opacity="1" /><path clip-path="url(#clip130)" d="M1482.64 303.168 L1486.9 303.168 L1486.9 339.186 L1482.64 339.186 L1482.64 303.168 Z" fill="#000000" fill-rule="nonzero" fill-opacity="1" /><path clip-path="url(#clip130)" d="M1516 318.237 Q1517.6 315.367 1519.82 314.001 Q1522.04 312.635 1525.05 312.635 Q1529.1 312.635 1531.3 315.483 Q1533.5 318.307 1533.5 323.538 L1533.5 339.186 L1529.22 339.186 L1529.22 323.677 Q1529.22 319.95 1527.9 318.145 Q1526.58 316.339 1523.87 316.339 Q1520.56 316.339 1518.64 318.538 Q1516.72 320.737 1516.72 324.534 L1516.72 339.186 L1512.43 339.186 L1512.43 323.677 Q1512.43 319.927 1511.12 318.145 Q1509.8 316.339 1507.04 316.339 Q1503.78 316.339 1501.86 318.561 Q1499.93 320.76 1499.93 324.534 L1499.93 339.186 L1495.65 339.186 L1495.65 313.26 L1499.93 313.26 L1499.93 317.288 Q1501.39 314.904 1503.43 313.77 Q1505.47 312.635 1508.27 312.635 Q1511.09 312.635 1513.06 314.071 Q1515.05 315.506 1516 318.237 Z" fill="#000000" fill-rule="nonzero" fill-opacity="1" /><path clip-path="url(#clip130)" d="M1553.78 326.154 Q1548.62 326.154 1546.62 327.334 Q1544.63 328.515 1544.63 331.362 Q1544.63 333.631 1546.12 334.973 Q1547.62 336.293 1550.19 336.293 Q1553.73 336.293 1555.86 333.793 Q1558.01 331.27 1558.01 327.103 L1558.01 326.154 L1553.78 326.154 M1562.27 324.395 L1562.27 339.186 L1558.01 339.186 L1558.01 335.251 Q1556.55 337.612 1554.38 338.746 Q1552.2 339.858 1549.05 339.858 Q1545.07 339.858 1542.71 337.635 Q1540.37 335.39 1540.37 331.64 Q1540.37 327.265 1543.29 325.043 Q1546.23 322.821 1552.04 322.821 L1558.01 322.821 L1558.01 322.404 Q1558.01 319.464 1556.07 317.867 Q1554.15 316.247 1550.65 316.247 Q1548.43 316.247 1546.32 316.779 Q1544.22 317.311 1542.27 318.376 L1542.27 314.441 Q1544.61 313.538 1546.81 313.098 Q1549.01 312.635 1551.09 312.635 Q1556.72 312.635 1559.49 315.552 Q1562.27 318.469 1562.27 324.395 Z" fill="#000000" fill-rule="nonzero" fill-opacity="1" /><path clip-path="url(#clip130)" d="M1592.6 323.538 L1592.6 339.186 L1588.34 339.186 L1588.34 323.677 Q1588.34 319.997 1586.9 318.168 Q1585.47 316.339 1582.6 316.339 Q1579.15 316.339 1577.16 318.538 Q1575.17 320.737 1575.17 324.534 L1575.17 339.186 L1570.88 339.186 L1570.88 313.26 L1575.17 313.26 L1575.17 317.288 Q1576.69 314.95 1578.75 313.793 Q1580.84 312.635 1583.55 312.635 Q1588.01 312.635 1590.3 315.413 Q1592.6 318.168 1592.6 323.538 Z" fill="#000000" fill-rule="nonzero" fill-opacity="1" /><polyline clip-path="url(#clip130)" style="stroke:#800080; stroke-linecap:round; stroke-linejoin:round; stroke-width:4; stroke-opacity:1; fill:none" points="1259.13,373.746 1400.04,373.746 "/>
<path clip-path="url(#clip130)" d="M1423.52 356.466 L1428.2 356.466 L1428.2 371.073 L1443.71 356.466 L1449.73 356.466 L1432.57 372.577 L1450.95 391.026 L1444.8 391.026 L1428.2 374.383 L1428.2 391.026 L1423.52 391.026 L1423.52 356.466 Z" fill="#000000" fill-rule="nonzero" fill-opacity="1" /><path clip-path="url(#clip130)" d="M1465.37 377.994 Q1460.21 377.994 1458.22 379.174 Q1456.23 380.355 1456.23 383.202 Q1456.23 385.471 1457.71 386.813 Q1459.22 388.133 1461.79 388.133 Q1465.33 388.133 1467.46 385.633 Q1469.61 383.11 1469.61 378.943 L1469.61 377.994 L1465.37 377.994 M1473.87 376.235 L1473.87 391.026 L1469.61 391.026 L1469.61 387.091 Q1468.15 389.452 1465.98 390.586 Q1463.8 391.698 1460.65 391.698 Q1456.67 391.698 1454.31 389.475 Q1451.97 387.23 1451.97 383.48 Q1451.97 379.105 1454.89 376.883 Q1457.83 374.661 1463.64 374.661 L1469.61 374.661 L1469.61 374.244 Q1469.61 371.304 1467.67 369.707 Q1465.75 368.087 1462.25 368.087 Q1460.03 368.087 1457.92 368.619 Q1455.81 369.151 1453.87 370.216 L1453.87 366.281 Q1456.21 365.378 1458.41 364.938 Q1460.61 364.475 1462.69 364.475 Q1468.31 364.475 1471.09 367.392 Q1473.87 370.309 1473.87 376.235 Z" fill="#000000" fill-rule="nonzero" fill-opacity="1" /><path clip-path="url(#clip130)" d="M1482.64 355.008 L1486.9 355.008 L1486.9 391.026 L1482.64 391.026 L1482.64 355.008 Z" fill="#000000" fill-rule="nonzero" fill-opacity="1" /><path clip-path="url(#clip130)" d="M1516 370.077 Q1517.6 367.207 1519.82 365.841 Q1522.04 364.475 1525.05 364.475 Q1529.1 364.475 1531.3 367.323 Q1533.5 370.147 1533.5 375.378 L1533.5 391.026 L1529.22 391.026 L1529.22 375.517 Q1529.22 371.79 1527.9 369.985 Q1526.58 368.179 1523.87 368.179 Q1520.56 368.179 1518.64 370.378 Q1516.72 372.577 1516.72 376.374 L1516.72 391.026 L1512.43 391.026 L1512.43 375.517 Q1512.43 371.767 1511.12 369.985 Q1509.8 368.179 1507.04 368.179 Q1503.78 368.179 1501.86 370.401 Q1499.93 372.6 1499.93 376.374 L1499.93 391.026 L1495.65 391.026 L1495.65 365.1 L1499.93 365.1 L1499.93 369.128 Q1501.39 366.744 1503.43 365.61 Q1505.47 364.475 1508.27 364.475 Q1511.09 364.475 1513.06 365.911 Q1515.05 367.346 1516 370.077 Z" fill="#000000" fill-rule="nonzero" fill-opacity="1" /><path clip-path="url(#clip130)" d="M1553.78 377.994 Q1548.62 377.994 1546.62 379.174 Q1544.63 380.355 1544.63 383.202 Q1544.63 385.471 1546.12 386.813 Q1547.62 388.133 1550.19 388.133 Q1553.73 388.133 1555.86 385.633 Q1558.01 383.11 1558.01 378.943 L1558.01 377.994 L1553.78 377.994 M1562.27 376.235 L1562.27 391.026 L1558.01 391.026 L1558.01 387.091 Q1556.55 389.452 1554.38 390.586 Q1552.2 391.698 1549.05 391.698 Q1545.07 391.698 1542.71 389.475 Q1540.37 387.23 1540.37 383.48 Q1540.37 379.105 1543.29 376.883 Q1546.23 374.661 1552.04 374.661 L1558.01 374.661 L1558.01 374.244 Q1558.01 371.304 1556.07 369.707 Q1554.15 368.087 1550.65 368.087 Q1548.43 368.087 1546.32 368.619 Q1544.22 369.151 1542.27 370.216 L1542.27 366.281 Q1544.61 365.378 1546.81 364.938 Q1549.01 364.475 1551.09 364.475 Q1556.72 364.475 1559.49 367.392 Q1562.27 370.309 1562.27 376.235 Z" fill="#000000" fill-rule="nonzero" fill-opacity="1" /><path clip-path="url(#clip130)" d="M1592.6 375.378 L1592.6 391.026 L1588.34 391.026 L1588.34 375.517 Q1588.34 371.837 1586.9 370.008 Q1585.47 368.179 1582.6 368.179 Q1579.15 368.179 1577.16 370.378 Q1575.17 372.577 1575.17 376.374 L1575.17 391.026 L1570.88 391.026 L1570.88 365.1 L1575.17 365.1 L1575.17 369.128 Q1576.69 366.79 1578.75 365.633 Q1580.84 364.475 1583.55 364.475 Q1588.01 364.475 1590.3 367.253 Q1592.6 370.008 1592.6 375.378 Z" fill="#000000" fill-rule="nonzero" fill-opacity="1" /><path clip-path="url(#clip130)" d="M1613.68 365.1 L1617.94 365.1 L1623.27 385.332 L1628.57 365.1 L1633.59 365.1 L1638.92 385.332 L1644.22 365.1 L1648.48 365.1 L1641.69 391.026 L1636.67 391.026 L1631.09 369.776 L1625.49 391.026 L1620.47 391.026 L1613.68 365.1 Z" fill="#000000" fill-rule="nonzero" fill-opacity="1" /><path clip-path="url(#clip130)" d="M1654.93 365.1 L1659.19 365.1 L1659.19 391.026 L1654.93 391.026 L1654.93 365.1 M1654.93 355.008 L1659.19 355.008 L1659.19 360.401 L1654.93 360.401 L1654.93 355.008 Z" fill="#000000" fill-rule="nonzero" fill-opacity="1" /><path clip-path="url(#clip130)" d="M1672.32 357.739 L1672.32 365.1 L1681.09 365.1 L1681.09 368.411 L1672.32 368.411 L1672.32 382.485 Q1672.32 385.656 1673.17 386.559 Q1674.05 387.461 1676.72 387.461 L1681.09 387.461 L1681.09 391.026 L1676.72 391.026 Q1671.79 391.026 1669.91 389.198 Q1668.04 387.346 1668.04 382.485 L1668.04 368.411 L1664.91 368.411 L1664.91 365.1 L1668.04 365.1 L1668.04 357.739 L1672.32 357.739 Z" fill="#000000" fill-rule="nonzero" fill-opacity="1" /><path clip-path="url(#clip130)" d="M1708.24 375.378 L1708.24 391.026 L1703.98 391.026 L1703.98 375.517 Q1703.98 371.837 1702.55 370.008 Q1701.11 368.179 1698.24 368.179 Q1694.79 368.179 1692.8 370.378 Q1690.81 372.577 1690.81 376.374 L1690.81 391.026 L1686.53 391.026 L1686.53 355.008 L1690.81 355.008 L1690.81 369.128 Q1692.34 366.79 1694.4 365.633 Q1696.48 364.475 1699.19 364.475 Q1703.66 364.475 1705.95 367.253 Q1708.24 370.008 1708.24 375.378 Z" fill="#000000" fill-rule="nonzero" fill-opacity="1" /><path clip-path="url(#clip130)" d="M1731.65 355.008 L1735.93 355.008 L1735.93 376.281 L1748.64 365.1 L1754.08 365.1 L1740.33 377.23 L1754.66 391.026 L1749.1 391.026 L1735.93 378.364 L1735.93 391.026 L1731.65 391.026 L1731.65 355.008 Z" fill="#000000" fill-rule="nonzero" fill-opacity="1" /><path clip-path="url(#clip130)" d="M1780.81 375.378 L1780.81 391.026 L1776.55 391.026 L1776.55 375.517 Q1776.55 371.837 1775.12 370.008 Q1773.68 368.179 1770.81 368.179 Q1767.36 368.179 1765.37 370.378 Q1763.38 372.577 1763.38 376.374 L1763.38 391.026 L1759.1 391.026 L1759.1 365.1 L1763.38 365.1 L1763.38 369.128 Q1764.91 366.79 1766.97 365.633 Q1769.05 364.475 1771.76 364.475 Q1776.23 364.475 1778.52 367.253 Q1780.81 370.008 1780.81 375.378 Z" fill="#000000" fill-rule="nonzero" fill-opacity="1" /><path clip-path="url(#clip130)" d="M1799.35 368.087 Q1795.93 368.087 1793.94 370.772 Q1791.95 373.434 1791.95 378.087 Q1791.95 382.739 1793.91 385.424 Q1795.91 388.086 1799.35 388.086 Q1802.76 388.086 1804.75 385.401 Q1806.74 382.716 1806.74 378.087 Q1806.74 373.48 1804.75 370.795 Q1802.76 368.087 1799.35 368.087 M1799.35 364.475 Q1804.91 364.475 1808.08 368.087 Q1811.25 371.698 1811.25 378.087 Q1811.25 384.452 1808.08 388.086 Q1804.91 391.698 1799.35 391.698 Q1793.78 391.698 1790.6 388.086 Q1787.46 384.452 1787.46 378.087 Q1787.46 371.698 1790.6 368.087 Q1793.78 364.475 1799.35 364.475 Z" fill="#000000" fill-rule="nonzero" fill-opacity="1" /><path clip-path="url(#clip130)" d="M1815.84 365.1 L1820.1 365.1 L1825.42 385.332 L1830.72 365.1 L1835.74 365.1 L1841.07 385.332 L1846.37 365.1 L1850.63 365.1 L1843.85 391.026 L1838.82 391.026 L1833.24 369.776 L1827.64 391.026 L1822.62 391.026 L1815.84 365.1 Z" fill="#000000" fill-rule="nonzero" fill-opacity="1" /><path clip-path="url(#clip130)" d="M1878.64 375.378 L1878.64 391.026 L1874.38 391.026 L1874.38 375.517 Q1874.38 371.837 1872.94 370.008 Q1871.51 368.179 1868.64 368.179 Q1865.19 368.179 1863.2 370.378 Q1861.21 372.577 1861.21 376.374 L1861.21 391.026 L1856.92 391.026 L1856.92 365.1 L1861.21 365.1 L1861.21 369.128 Q1862.73 366.79 1864.79 365.633 Q1866.88 364.475 1869.59 364.475 Q1874.05 364.475 1876.34 367.253 Q1878.64 370.008 1878.64 375.378 Z" fill="#000000" fill-rule="nonzero" fill-opacity="1" /><path clip-path="url(#clip130)" d="M1918.73 365.864 L1918.73 369.892 Q1916.92 368.966 1914.98 368.503 Q1913.03 368.04 1910.95 368.04 Q1907.78 368.04 1906.18 369.013 Q1904.61 369.985 1904.61 371.929 Q1904.61 373.411 1905.74 374.267 Q1906.88 375.1 1910.3 375.864 L1911.76 376.188 Q1916.3 377.161 1918.2 378.943 Q1920.12 380.702 1920.12 383.874 Q1920.12 387.485 1917.25 389.591 Q1914.4 391.698 1909.4 391.698 Q1907.32 391.698 1905.05 391.281 Q1902.8 390.887 1900.3 390.077 L1900.3 385.679 Q1902.66 386.906 1904.96 387.531 Q1907.25 388.133 1909.49 388.133 Q1912.5 388.133 1914.12 387.114 Q1915.74 386.073 1915.74 384.198 Q1915.74 382.462 1914.56 381.536 Q1913.4 380.61 1909.45 379.753 L1907.97 379.406 Q1904.01 378.573 1902.25 376.86 Q1900.49 375.124 1900.49 372.114 Q1900.49 368.457 1903.08 366.466 Q1905.67 364.475 1910.44 364.475 Q1912.8 364.475 1914.89 364.823 Q1916.97 365.17 1918.73 365.864 Z" fill="#000000" fill-rule="nonzero" fill-opacity="1" /><path clip-path="url(#clip130)" d="M1931.11 357.739 L1931.11 365.1 L1939.89 365.1 L1939.89 368.411 L1931.11 368.411 L1931.11 382.485 Q1931.11 385.656 1931.97 386.559 Q1932.85 387.461 1935.51 387.461 L1939.89 387.461 L1939.89 391.026 L1935.51 391.026 Q1930.58 391.026 1928.71 389.198 Q1926.83 387.346 1926.83 382.485 L1926.83 368.411 L1923.71 368.411 L1923.71 365.1 L1926.83 365.1 L1926.83 357.739 L1931.11 357.739 Z" fill="#000000" fill-rule="nonzero" fill-opacity="1" /><path clip-path="url(#clip130)" d="M1957.27 377.994 Q1952.11 377.994 1950.12 379.174 Q1948.13 380.355 1948.13 383.202 Q1948.13 385.471 1949.61 386.813 Q1951.11 388.133 1953.68 388.133 Q1957.22 388.133 1959.35 385.633 Q1961.51 383.11 1961.51 378.943 L1961.51 377.994 L1957.27 377.994 M1965.77 376.235 L1965.77 391.026 L1961.51 391.026 L1961.51 387.091 Q1960.05 389.452 1957.87 390.586 Q1955.7 391.698 1952.55 391.698 Q1948.57 391.698 1946.21 389.475 Q1943.87 387.23 1943.87 383.48 Q1943.87 379.105 1946.78 376.883 Q1949.72 374.661 1955.53 374.661 L1961.51 374.661 L1961.51 374.244 Q1961.51 371.304 1959.56 369.707 Q1957.64 368.087 1954.15 368.087 Q1951.92 368.087 1949.82 368.619 Q1947.71 369.151 1945.77 370.216 L1945.77 366.281 Q1948.1 365.378 1950.3 364.938 Q1952.5 364.475 1954.59 364.475 Q1960.21 364.475 1962.99 367.392 Q1965.77 370.309 1965.77 376.235 Z" fill="#000000" fill-rule="nonzero" fill-opacity="1" /><path clip-path="url(#clip130)" d="M1978.75 357.739 L1978.75 365.1 L1987.52 365.1 L1987.52 368.411 L1978.75 368.411 L1978.75 382.485 Q1978.75 385.656 1979.61 386.559 Q1980.49 387.461 1983.15 387.461 L1987.52 387.461 L1987.52 391.026 L1983.15 391.026 Q1978.22 391.026 1976.34 389.198 Q1974.47 387.346 1974.47 382.485 L1974.47 368.411 L1971.34 368.411 L1971.34 365.1 L1974.47 365.1 L1974.47 357.739 L1978.75 357.739 Z" fill="#000000" fill-rule="nonzero" fill-opacity="1" /><path clip-path="url(#clip130)" d="M2015.3 376.999 L2015.3 379.082 L1995.72 379.082 Q1996 383.48 1998.36 385.795 Q2000.74 388.086 2004.98 388.086 Q2007.43 388.086 2009.72 387.485 Q2012.04 386.883 2014.31 385.679 L2014.31 389.707 Q2012.02 390.679 2009.61 391.188 Q2007.2 391.698 2004.72 391.698 Q1998.52 391.698 1994.89 388.086 Q1991.27 384.475 1991.27 378.318 Q1991.27 371.952 1994.7 368.225 Q1998.15 364.475 2003.98 364.475 Q2009.21 364.475 2012.25 367.855 Q2015.3 371.212 2015.3 376.999 M2011.04 375.749 Q2011 372.253 2009.08 370.17 Q2007.18 368.087 2004.03 368.087 Q2000.46 368.087 1998.31 370.1 Q1996.18 372.114 1995.86 375.772 L2011.04 375.749 Z" fill="#000000" fill-rule="nonzero" fill-opacity="1" /><path clip-path="url(#clip130)" d="M2053.89 365.864 L2053.89 369.892 Q2052.08 368.966 2050.14 368.503 Q2048.2 368.04 2046.11 368.04 Q2042.94 368.04 2041.34 369.013 Q2039.77 369.985 2039.77 371.929 Q2039.77 373.411 2040.9 374.267 Q2042.04 375.1 2045.46 375.864 L2046.92 376.188 Q2051.46 377.161 2053.36 378.943 Q2055.28 380.702 2055.28 383.874 Q2055.28 387.485 2052.41 389.591 Q2049.56 391.698 2044.56 391.698 Q2042.48 391.698 2040.21 391.281 Q2037.96 390.887 2035.46 390.077 L2035.46 385.679 Q2037.83 386.906 2040.12 387.531 Q2042.41 388.133 2044.65 388.133 Q2047.66 388.133 2049.28 387.114 Q2050.9 386.073 2050.9 384.198 Q2050.9 382.462 2049.72 381.536 Q2048.57 380.61 2044.61 379.753 L2043.13 379.406 Q2039.17 378.573 2037.41 376.86 Q2035.65 375.124 2035.65 372.114 Q2035.65 368.457 2038.24 366.466 Q2040.83 364.475 2045.6 364.475 Q2047.96 364.475 2050.05 364.823 Q2052.13 365.17 2053.89 365.864 Z" fill="#000000" fill-rule="nonzero" fill-opacity="1" /><path clip-path="url(#clip130)" d="M2084.24 376.999 L2084.24 379.082 L2064.65 379.082 Q2064.93 383.48 2067.29 385.795 Q2069.68 388.086 2073.91 388.086 Q2076.37 388.086 2078.66 387.485 Q2080.97 386.883 2083.24 385.679 L2083.24 389.707 Q2080.95 390.679 2078.54 391.188 Q2076.14 391.698 2073.66 391.698 Q2067.45 391.698 2063.82 388.086 Q2060.21 384.475 2060.21 378.318 Q2060.21 371.952 2063.64 368.225 Q2067.08 364.475 2072.92 364.475 Q2078.15 364.475 2081.18 367.855 Q2084.24 371.212 2084.24 376.999 M2079.98 375.749 Q2079.93 372.253 2078.01 370.17 Q2076.11 368.087 2072.96 368.087 Q2069.4 368.087 2067.25 370.1 Q2065.12 372.114 2064.79 375.772 L2079.98 375.749 Z" fill="#000000" fill-rule="nonzero" fill-opacity="1" /><path clip-path="url(#clip130)" d="M2093.77 378.087 Q2093.77 382.786 2095.7 385.471 Q2097.64 388.133 2101.02 388.133 Q2104.4 388.133 2106.34 385.471 Q2108.29 382.786 2108.29 378.087 Q2108.29 373.387 2106.34 370.725 Q2104.4 368.04 2101.02 368.04 Q2097.64 368.04 2095.7 370.725 Q2093.77 373.387 2093.77 378.087 M2108.29 387.137 Q2106.95 389.452 2104.89 390.586 Q2102.85 391.698 2099.98 391.698 Q2095.28 391.698 2092.32 387.948 Q2089.38 384.198 2089.38 378.087 Q2089.38 371.975 2092.32 368.225 Q2095.28 364.475 2099.98 364.475 Q2102.85 364.475 2104.89 365.61 Q2106.95 366.721 2108.29 369.036 L2108.29 365.1 L2112.55 365.1 L2112.55 400.887 L2108.29 400.887 L2108.29 387.137 Z" fill="#000000" fill-rule="nonzero" fill-opacity="1" /><path clip-path="url(#clip130)" d="M2120.88 380.795 L2120.88 365.1 L2125.14 365.1 L2125.14 380.633 Q2125.14 384.313 2126.57 386.165 Q2128.01 387.994 2130.88 387.994 Q2134.33 387.994 2136.32 385.795 Q2138.33 383.596 2138.33 379.799 L2138.33 365.1 L2142.59 365.1 L2142.59 391.026 L2138.33 391.026 L2138.33 387.045 Q2136.78 389.406 2134.72 390.563 Q2132.69 391.698 2129.98 391.698 Q2125.51 391.698 2123.2 388.92 Q2120.88 386.142 2120.88 380.795 M2131.6 364.475 L2131.6 364.475 Z" fill="#000000" fill-rule="nonzero" fill-opacity="1" /><path clip-path="url(#clip130)" d="M2173.54 376.999 L2173.54 379.082 L2153.96 379.082 Q2154.24 383.48 2156.6 385.795 Q2158.98 388.086 2163.22 388.086 Q2165.67 388.086 2167.96 387.485 Q2170.28 386.883 2172.55 385.679 L2172.55 389.707 Q2170.26 390.679 2167.85 391.188 Q2165.44 391.698 2162.96 391.698 Q2156.76 391.698 2153.13 388.086 Q2149.51 384.475 2149.51 378.318 Q2149.51 371.952 2152.94 368.225 Q2156.39 364.475 2162.22 364.475 Q2167.45 364.475 2170.49 367.855 Q2173.54 371.212 2173.54 376.999 M2169.28 375.749 Q2169.24 372.253 2167.32 370.17 Q2165.42 368.087 2162.27 368.087 Q2158.7 368.087 2156.55 370.1 Q2154.42 372.114 2154.1 375.772 L2169.28 375.749 Z" fill="#000000" fill-rule="nonzero" fill-opacity="1" /><path clip-path="url(#clip130)" d="M2202.08 375.378 L2202.08 391.026 L2197.82 391.026 L2197.82 375.517 Q2197.82 371.837 2196.39 370.008 Q2194.95 368.179 2192.08 368.179 Q2188.63 368.179 2186.64 370.378 Q2184.65 372.577 2184.65 376.374 L2184.65 391.026 L2180.37 391.026 L2180.37 365.1 L2184.65 365.1 L2184.65 369.128 Q2186.18 366.79 2188.24 365.633 Q2190.32 364.475 2193.03 364.475 Q2197.5 364.475 2199.79 367.253 Q2202.08 370.008 2202.08 375.378 Z" fill="#000000" fill-rule="nonzero" fill-opacity="1" /><path clip-path="url(#clip130)" d="M2229.24 366.096 L2229.24 370.077 Q2227.43 369.082 2225.6 368.596 Q2223.8 368.087 2221.94 368.087 Q2217.8 368.087 2215.51 370.725 Q2213.22 373.341 2213.22 378.087 Q2213.22 382.832 2215.51 385.471 Q2217.8 388.086 2221.94 388.086 Q2223.8 388.086 2225.6 387.6 Q2227.43 387.091 2229.24 386.096 L2229.24 390.031 Q2227.45 390.864 2225.53 391.281 Q2223.63 391.698 2221.48 391.698 Q2215.63 391.698 2212.18 388.017 Q2208.73 384.336 2208.73 378.087 Q2208.73 371.744 2212.2 368.11 Q2215.69 364.475 2221.76 364.475 Q2223.73 364.475 2225.6 364.892 Q2227.48 365.286 2229.24 366.096 Z" fill="#000000" fill-rule="nonzero" fill-opacity="1" /><path clip-path="url(#clip130)" d="M2258.82 376.999 L2258.82 379.082 L2239.24 379.082 Q2239.51 383.48 2241.88 385.795 Q2244.26 388.086 2248.5 388.086 Q2250.95 388.086 2253.24 387.485 Q2255.56 386.883 2257.82 385.679 L2257.82 389.707 Q2255.53 390.679 2253.13 391.188 Q2250.72 391.698 2248.24 391.698 Q2242.04 391.698 2238.4 388.086 Q2234.79 384.475 2234.79 378.318 Q2234.79 371.952 2238.22 368.225 Q2241.67 364.475 2247.5 364.475 Q2252.73 364.475 2255.76 367.855 Q2258.82 371.212 2258.82 376.999 M2254.56 375.749 Q2254.51 372.253 2252.59 370.17 Q2250.69 368.087 2247.55 368.087 Q2243.98 368.087 2241.83 370.1 Q2239.7 372.114 2239.38 375.772 L2254.56 375.749 Z" fill="#000000" fill-rule="nonzero" fill-opacity="1" /></svg>
