<?xml version="1.0" encoding="utf-8"?>
<svg xmlns="http://www.w3.org/2000/svg" xmlns:xlink="http://www.w3.org/1999/xlink" width="600" height="400" viewBox="0 0 2400 1600">
<defs>
  <clipPath id="clip600">
    <rect x="0" y="0" width="2400" height="1600"/>
  </clipPath>
</defs>
<path clip-path="url(#clip600)" d="M0 1600 L2400 1600 L2400 0 L0 0  Z" fill="#ffffff" fill-rule="evenodd" fill-opacity="1"/>
<defs>
  <clipPath id="clip601">
    <rect x="239" y="123" width="2115" height="1288"/>
  </clipPath>
</defs>
<path clip-path="url(#clip600)" d="M239.19 1410.9 L2352.76 1410.9 L2352.76 123.472 L239.19 123.472  Z" fill="#ffffff" fill-rule="evenodd" fill-opacity="1"/>
<polyline clip-path="url(#clip601)" style="stroke:#000000; stroke-linecap:round; stroke-linejoin:round; stroke-width:2; stroke-opacity:0.1; fill:none" points="1096.58,1410.9 1096.58,123.472 "/>
<polyline clip-path="url(#clip601)" style="stroke:#000000; stroke-linecap:round; stroke-linejoin:round; stroke-width:2; stroke-opacity:0.1; fill:none" points="2093.55,1410.9 2093.55,123.472 "/>
<polyline clip-path="url(#clip601)" style="stroke:#000000; stroke-linecap:round; stroke-linejoin:round; stroke-width:2; stroke-opacity:0.1; fill:none" points="239.19,1255.73 2352.76,1255.73 "/>
<polyline clip-path="url(#clip601)" style="stroke:#000000; stroke-linecap:round; stroke-linejoin:round; stroke-width:2; stroke-opacity:0.1; fill:none" points="239.19,1037.33 2352.76,1037.33 "/>
<polyline clip-path="url(#clip601)" style="stroke:#000000; stroke-linecap:round; stroke-linejoin:round; stroke-width:2; stroke-opacity:0.1; fill:none" points="239.19,818.925 2352.76,818.925 "/>
<polyline clip-path="url(#clip601)" style="stroke:#000000; stroke-linecap:round; stroke-linejoin:round; stroke-width:2; stroke-opacity:0.1; fill:none" points="239.19,600.521 2352.76,600.521 "/>
<polyline clip-path="url(#clip601)" style="stroke:#000000; stroke-linecap:round; stroke-linejoin:round; stroke-width:2; stroke-opacity:0.1; fill:none" points="239.19,382.116 2352.76,382.116 "/>
<polyline clip-path="url(#clip601)" style="stroke:#000000; stroke-linecap:round; stroke-linejoin:round; stroke-width:2; stroke-opacity:0.1; fill:none" points="239.19,163.712 2352.76,163.712 "/>
<polyline clip-path="url(#clip600)" style="stroke:#000000; stroke-linecap:round; stroke-linejoin:round; stroke-width:4; stroke-opacity:1; fill:none" points="239.19,1410.9 2352.76,1410.9 "/>
<polyline clip-path="url(#clip600)" style="stroke:#000000; stroke-linecap:round; stroke-linejoin:round; stroke-width:4; stroke-opacity:1; fill:none" points="1096.58,1410.9 1096.58,1392 "/>
<polyline clip-path="url(#clip600)" style="stroke:#000000; stroke-linecap:round; stroke-linejoin:round; stroke-width:4; stroke-opacity:1; fill:none" points="2093.55,1410.9 2093.55,1392 "/>
<path clip-path="url(#clip600)" d="M1061.56 1485.02 L1069.2 1485.02 L1069.2 1458.66 L1060.89 1460.32 L1060.89 1456.06 L1069.16 1454.4 L1073.83 1454.4 L1073.83 1485.02 L1081.47 1485.02 L1081.47 1488.96 L1061.56 1488.96 L1061.56 1485.02 Z" fill="#000000" fill-rule="nonzero" fill-opacity="1" /><path clip-path="url(#clip600)" d="M1100.91 1457.48 Q1097.3 1457.48 1095.47 1461.04 Q1093.67 1464.58 1093.67 1471.71 Q1093.67 1478.82 1095.47 1482.38 Q1097.3 1485.92 1100.91 1485.92 Q1104.55 1485.92 1106.35 1482.38 Q1108.18 1478.82 1108.18 1471.71 Q1108.18 1464.58 1106.35 1461.04 Q1104.55 1457.48 1100.91 1457.48 M1100.91 1453.77 Q1106.72 1453.77 1109.78 1458.38 Q1112.86 1462.96 1112.86 1471.71 Q1112.86 1480.44 1109.78 1485.04 Q1106.72 1489.63 1100.91 1489.63 Q1095.1 1489.63 1092.03 1485.04 Q1088.97 1480.44 1088.97 1471.71 Q1088.97 1462.96 1092.03 1458.38 Q1095.1 1453.77 1100.91 1453.77 Z" fill="#000000" fill-rule="nonzero" fill-opacity="1" /><path clip-path="url(#clip600)" d="M1122.56 1435.97 Q1119.63 1435.97 1118.14 1438.86 Q1116.68 1441.74 1116.68 1447.53 Q1116.68 1453.31 1118.14 1456.2 Q1119.63 1459.08 1122.56 1459.08 Q1125.52 1459.08 1126.98 1456.2 Q1128.47 1453.31 1128.47 1447.53 Q1128.47 1441.74 1126.98 1438.86 Q1125.52 1435.97 1122.56 1435.97 M1122.56 1432.96 Q1127.28 1432.96 1129.77 1436.7 Q1132.27 1440.43 1132.27 1447.53 Q1132.27 1454.62 1129.77 1458.37 Q1127.28 1462.09 1122.56 1462.09 Q1117.84 1462.09 1115.34 1458.37 Q1112.86 1454.62 1112.86 1447.53 Q1112.86 1440.43 1115.34 1436.7 Q1117.84 1432.96 1122.56 1432.96 Z" fill="#000000" fill-rule="nonzero" fill-opacity="1" /><path clip-path="url(#clip600)" d="M2059.87 1485.02 L2067.51 1485.02 L2067.51 1458.66 L2059.2 1460.32 L2059.2 1456.06 L2067.47 1454.4 L2072.14 1454.4 L2072.14 1485.02 L2079.78 1485.02 L2079.78 1488.96 L2059.87 1488.96 L2059.87 1485.02 Z" fill="#000000" fill-rule="nonzero" fill-opacity="1" /><path clip-path="url(#clip600)" d="M2099.22 1457.48 Q2095.61 1457.48 2093.78 1461.04 Q2091.98 1464.58 2091.98 1471.71 Q2091.98 1478.82 2093.78 1482.38 Q2095.61 1485.92 2099.22 1485.92 Q2102.86 1485.92 2104.66 1482.38 Q2106.49 1478.82 2106.49 1471.71 Q2106.49 1464.58 2104.66 1461.04 Q2102.86 1457.48 2099.22 1457.48 M2099.22 1453.77 Q2105.03 1453.77 2108.09 1458.38 Q2111.17 1462.96 2111.17 1471.71 Q2111.17 1480.44 2108.09 1485.04 Q2105.03 1489.63 2099.22 1489.63 Q2093.41 1489.63 2090.34 1485.04 Q2087.28 1480.44 2087.28 1471.71 Q2087.28 1462.96 2090.34 1458.38 Q2093.41 1453.77 2099.22 1453.77 Z" fill="#000000" fill-rule="nonzero" fill-opacity="1" /><path clip-path="url(#clip600)" d="M2111.71 1458.35 L2117.92 1458.35 L2117.92 1436.93 L2111.17 1438.28 L2111.17 1434.82 L2117.88 1433.47 L2121.68 1433.47 L2121.68 1458.35 L2127.89 1458.35 L2127.89 1461.55 L2111.71 1461.55 L2111.71 1458.35 Z" fill="#000000" fill-rule="nonzero" fill-opacity="1" /><path clip-path="url(#clip600)" d="M733.834 1531.95 L733.834 1568.9 L741.6 1568.9 Q751.435 1568.9 755.986 1564.45 Q760.569 1559.99 760.569 1550.38 Q760.569 1540.83 755.986 1536.4 Q751.435 1531.95 741.6 1531.95 L733.834 1531.95 M727.404 1526.67 L740.613 1526.67 Q754.427 1526.67 760.888 1532.43 Q767.349 1538.16 767.349 1550.38 Q767.349 1562.66 760.856 1568.42 Q754.363 1574.19 740.613 1574.19 L727.404 1574.19 L727.404 1526.67 Z" fill="#000000" fill-rule="nonzero" fill-opacity="1" /><path clip-path="url(#clip600)" d="M792.175 1577.5 Q789.693 1583.86 787.337 1585.8 Q784.982 1587.74 781.035 1587.74 L776.356 1587.74 L776.356 1582.84 L779.794 1582.84 Q782.213 1582.84 783.55 1581.7 Q784.886 1580.55 786.51 1576.29 L787.56 1573.61 L773.142 1538.54 L779.348 1538.54 L790.488 1566.42 L801.628 1538.54 L807.835 1538.54 L792.175 1577.5 Z" fill="#000000" fill-rule="nonzero" fill-opacity="1" /><path clip-path="url(#clip600)" d="M845.552 1552.67 L845.552 1574.19 L839.695 1574.19 L839.695 1552.86 Q839.695 1547.8 837.722 1545.29 Q835.748 1542.77 831.802 1542.77 Q827.059 1542.77 824.322 1545.79 Q821.585 1548.82 821.585 1554.04 L821.585 1574.19 L815.696 1574.19 L815.696 1538.54 L821.585 1538.54 L821.585 1544.08 Q823.685 1540.86 826.518 1539.27 Q829.383 1537.68 833.107 1537.68 Q839.25 1537.68 842.401 1541.5 Q845.552 1545.29 845.552 1552.67 Z" fill="#000000" fill-rule="nonzero" fill-opacity="1" /><path clip-path="url(#clip600)" d="M873.433 1556.27 Q866.336 1556.27 863.598 1557.89 Q860.861 1559.51 860.861 1563.43 Q860.861 1566.55 862.898 1568.39 Q864.967 1570.21 868.5 1570.21 Q873.37 1570.21 876.298 1566.77 Q879.258 1563.3 879.258 1557.57 L879.258 1556.27 L873.433 1556.27 M885.115 1553.85 L885.115 1574.19 L879.258 1574.19 L879.258 1568.77 Q877.253 1572.02 874.261 1573.58 Q871.269 1575.11 866.94 1575.11 Q861.466 1575.11 858.219 1572.05 Q855.005 1568.97 855.005 1563.81 Q855.005 1557.79 859.015 1554.74 Q863.057 1551.68 871.046 1551.68 L879.258 1551.68 L879.258 1551.11 Q879.258 1547.07 876.584 1544.87 Q873.943 1542.64 869.137 1542.64 Q866.081 1542.64 863.185 1543.38 Q860.288 1544.11 857.615 1545.57 L857.615 1540.16 Q860.829 1538.92 863.853 1538.31 Q866.877 1537.68 869.741 1537.68 Q877.476 1537.68 881.295 1541.69 Q885.115 1545.7 885.115 1553.85 Z" fill="#000000" fill-rule="nonzero" fill-opacity="1" /><path clip-path="url(#clip600)" d="M924.932 1545.38 Q927.128 1541.43 930.184 1539.56 Q933.239 1537.68 937.377 1537.68 Q942.947 1537.68 945.971 1541.59 Q948.994 1545.48 948.994 1552.67 L948.994 1574.19 L943.106 1574.19 L943.106 1552.86 Q943.106 1547.74 941.292 1545.25 Q939.478 1542.77 935.754 1542.77 Q931.202 1542.77 928.56 1545.79 Q925.919 1548.82 925.919 1554.04 L925.919 1574.19 L920.03 1574.19 L920.03 1552.86 Q920.03 1547.7 918.216 1545.25 Q916.402 1542.77 912.614 1542.77 Q908.127 1542.77 905.485 1545.83 Q902.843 1548.85 902.843 1554.04 L902.843 1574.19 L896.955 1574.19 L896.955 1538.54 L902.843 1538.54 L902.843 1544.08 Q904.848 1540.8 907.649 1539.24 Q910.45 1537.68 914.301 1537.68 Q918.184 1537.68 920.89 1539.65 Q923.627 1541.62 924.932 1545.38 Z" fill="#000000" fill-rule="nonzero" fill-opacity="1" /><path clip-path="url(#clip600)" d="M960.675 1538.54 L966.532 1538.54 L966.532 1574.19 L960.675 1574.19 L960.675 1538.54 M960.675 1524.66 L966.532 1524.66 L966.532 1532.08 L960.675 1532.08 L960.675 1524.66 Z" fill="#000000" fill-rule="nonzero" fill-opacity="1" /><path clip-path="url(#clip600)" d="M1004.44 1539.91 L1004.44 1545.38 Q1001.96 1544.01 999.443 1543.34 Q996.96 1542.64 994.414 1542.64 Q988.716 1542.64 985.565 1546.27 Q982.414 1549.87 982.414 1556.39 Q982.414 1562.92 985.565 1566.55 Q988.716 1570.14 994.414 1570.14 Q996.96 1570.14 999.443 1569.47 Q1001.96 1568.77 1004.44 1567.41 L1004.44 1572.82 Q1001.99 1573.96 999.347 1574.54 Q996.737 1575.11 993.777 1575.11 Q985.725 1575.11 980.982 1570.05 Q976.24 1564.99 976.24 1556.39 Q976.24 1547.67 981.014 1542.68 Q985.82 1537.68 994.159 1537.68 Q996.865 1537.68 999.443 1538.25 Q1002.02 1538.79 1004.44 1539.91 Z" fill="#000000" fill-rule="nonzero" fill-opacity="1" /><path clip-path="url(#clip600)" d="M1037.35 1539.59 L1037.35 1545.13 Q1034.87 1543.85 1032.19 1543.22 Q1029.52 1542.58 1026.66 1542.58 Q1022.3 1542.58 1020.1 1543.92 Q1017.93 1545.25 1017.93 1547.93 Q1017.93 1549.96 1019.49 1551.14 Q1021.05 1552.29 1025.76 1553.34 L1027.77 1553.78 Q1034.01 1555.12 1036.62 1557.57 Q1039.26 1559.99 1039.26 1564.35 Q1039.26 1569.32 1035.31 1572.21 Q1031.4 1575.11 1024.52 1575.11 Q1021.66 1575.11 1018.54 1574.54 Q1015.45 1573.99 1012.01 1572.88 L1012.01 1566.83 Q1015.26 1568.52 1018.41 1569.38 Q1021.56 1570.21 1024.65 1570.21 Q1028.79 1570.21 1031.02 1568.81 Q1033.24 1567.37 1033.24 1564.8 Q1033.24 1562.41 1031.62 1561.14 Q1030.03 1559.86 1024.59 1558.68 L1022.55 1558.21 Q1017.11 1557.06 1014.69 1554.71 Q1012.27 1552.32 1012.27 1548.18 Q1012.27 1543.15 1015.83 1540.42 Q1019.4 1537.68 1025.96 1537.68 Q1029.2 1537.68 1032.07 1538.16 Q1034.93 1538.63 1037.35 1539.59 Z" fill="#000000" fill-rule="nonzero" fill-opacity="1" /><path clip-path="url(#clip600)" d="M1098.94 1552.67 L1098.94 1574.19 L1093.08 1574.19 L1093.08 1552.86 Q1093.08 1547.8 1091.11 1545.29 Q1089.14 1542.77 1085.19 1542.77 Q1080.45 1542.77 1077.71 1545.79 Q1074.97 1548.82 1074.97 1554.04 L1074.97 1574.19 L1069.08 1574.19 L1069.08 1538.54 L1074.97 1538.54 L1074.97 1544.08 Q1077.07 1540.86 1079.91 1539.27 Q1082.77 1537.68 1086.49 1537.68 Q1092.64 1537.68 1095.79 1541.5 Q1098.94 1545.29 1098.94 1552.67 Z" fill="#000000" fill-rule="nonzero" fill-opacity="1" /><path clip-path="url(#clip600)" d="M1124.43 1542.64 Q1119.72 1542.64 1116.99 1546.34 Q1114.25 1550 1114.25 1556.39 Q1114.25 1562.79 1116.95 1566.48 Q1119.69 1570.14 1124.43 1570.14 Q1129.11 1570.14 1131.85 1566.45 Q1134.59 1562.76 1134.59 1556.39 Q1134.59 1550.06 1131.85 1546.37 Q1129.11 1542.64 1124.43 1542.64 M1124.43 1537.68 Q1132.07 1537.68 1136.43 1542.64 Q1140.79 1547.61 1140.79 1556.39 Q1140.79 1565.15 1136.43 1570.14 Q1132.07 1575.11 1124.43 1575.11 Q1116.76 1575.11 1112.4 1570.14 Q1108.07 1565.15 1108.07 1556.39 Q1108.07 1547.61 1112.4 1542.64 Q1116.76 1537.68 1124.43 1537.68 Z" fill="#000000" fill-rule="nonzero" fill-opacity="1" /><path clip-path="url(#clip600)" d="M1150.5 1538.54 L1156.36 1538.54 L1156.36 1574.19 L1150.5 1574.19 L1150.5 1538.54 M1150.5 1524.66 L1156.36 1524.66 L1156.36 1532.08 L1150.5 1532.08 L1150.5 1524.66 Z" fill="#000000" fill-rule="nonzero" fill-opacity="1" /><path clip-path="url(#clip600)" d="M1191.34 1539.59 L1191.34 1545.13 Q1188.85 1543.85 1186.18 1543.22 Q1183.51 1542.58 1180.64 1542.58 Q1176.28 1542.58 1174.09 1543.92 Q1171.92 1545.25 1171.92 1547.93 Q1171.92 1549.96 1173.48 1551.14 Q1175.04 1552.29 1179.75 1553.34 L1181.76 1553.78 Q1187.99 1555.12 1190.6 1557.57 Q1193.25 1559.99 1193.25 1564.35 Q1193.25 1569.32 1189.3 1572.21 Q1185.38 1575.11 1178.51 1575.11 Q1175.65 1575.11 1172.53 1574.54 Q1169.44 1573.99 1166 1572.88 L1166 1566.83 Q1169.25 1568.52 1172.4 1569.38 Q1175.55 1570.21 1178.64 1570.21 Q1182.77 1570.21 1185 1568.81 Q1187.23 1567.37 1187.23 1564.8 Q1187.23 1562.41 1185.61 1561.14 Q1184.02 1559.86 1178.57 1558.68 L1176.54 1558.21 Q1171.09 1557.06 1168.67 1554.71 Q1166.26 1552.32 1166.26 1548.18 Q1166.26 1543.15 1169.82 1540.42 Q1173.39 1537.68 1179.94 1537.68 Q1183.19 1537.68 1186.05 1538.16 Q1188.92 1538.63 1191.34 1539.59 Z" fill="#000000" fill-rule="nonzero" fill-opacity="1" /><path clip-path="url(#clip600)" d="M1233.06 1554.9 L1233.06 1557.76 L1206.14 1557.76 Q1206.52 1563.81 1209.77 1566.99 Q1213.04 1570.14 1218.87 1570.14 Q1222.24 1570.14 1225.39 1569.32 Q1228.58 1568.49 1231.7 1566.83 L1231.7 1572.37 Q1228.54 1573.71 1225.23 1574.41 Q1221.92 1575.11 1218.52 1575.11 Q1209.99 1575.11 1204.99 1570.14 Q1200.03 1565.18 1200.03 1556.71 Q1200.03 1547.96 1204.74 1542.83 Q1209.48 1537.68 1217.5 1537.68 Q1224.69 1537.68 1228.86 1542.33 Q1233.06 1546.94 1233.06 1554.9 M1227.21 1553.18 Q1227.14 1548.37 1224.5 1545.51 Q1221.89 1542.64 1217.56 1542.64 Q1212.66 1542.64 1209.7 1545.41 Q1206.77 1548.18 1206.33 1553.21 L1227.21 1553.18 Z" fill="#000000" fill-rule="nonzero" fill-opacity="1" /><path clip-path="url(#clip600)" d="M1286.12 1539.59 L1286.12 1545.13 Q1283.64 1543.85 1280.97 1543.22 Q1278.29 1542.58 1275.43 1542.58 Q1271.07 1542.58 1268.87 1543.92 Q1266.71 1545.25 1266.71 1547.93 Q1266.71 1549.96 1268.27 1551.14 Q1269.83 1552.29 1274.54 1553.34 L1276.54 1553.78 Q1282.78 1555.12 1285.39 1557.57 Q1288.03 1559.99 1288.03 1564.35 Q1288.03 1569.32 1284.09 1572.21 Q1280.17 1575.11 1273.3 1575.11 Q1270.43 1575.11 1267.31 1574.54 Q1264.22 1573.99 1260.79 1572.88 L1260.79 1566.83 Q1264.03 1568.52 1267.18 1569.38 Q1270.34 1570.21 1273.42 1570.21 Q1277.56 1570.21 1279.79 1568.81 Q1282.02 1567.37 1282.02 1564.8 Q1282.02 1562.41 1280.39 1561.14 Q1278.8 1559.86 1273.36 1558.68 L1271.32 1558.21 Q1265.88 1557.06 1263.46 1554.71 Q1261.04 1552.32 1261.04 1548.18 Q1261.04 1543.15 1264.61 1540.42 Q1268.17 1537.68 1274.73 1537.68 Q1277.97 1537.68 1280.84 1538.16 Q1283.7 1538.63 1286.12 1539.59 Z" fill="#000000" fill-rule="nonzero" fill-opacity="1" /><path clip-path="url(#clip600)" d="M1303.15 1528.42 L1303.15 1538.54 L1315.21 1538.54 L1315.21 1543.09 L1303.15 1543.09 L1303.15 1562.44 Q1303.15 1566.8 1304.33 1568.04 Q1305.54 1569.28 1309.2 1569.28 L1315.21 1569.28 L1315.21 1574.19 L1309.2 1574.19 Q1302.42 1574.19 1299.84 1571.67 Q1297.26 1569.12 1297.26 1562.44 L1297.26 1543.09 L1292.97 1543.09 L1292.97 1538.54 L1297.26 1538.54 L1297.26 1528.42 L1303.15 1528.42 Z" fill="#000000" fill-rule="nonzero" fill-opacity="1" /><path clip-path="url(#clip600)" d="M1339.12 1556.27 Q1332.02 1556.27 1329.28 1557.89 Q1326.54 1559.51 1326.54 1563.43 Q1326.54 1566.55 1328.58 1568.39 Q1330.65 1570.21 1334.18 1570.21 Q1339.05 1570.21 1341.98 1566.77 Q1344.94 1563.3 1344.94 1557.57 L1344.94 1556.27 L1339.12 1556.27 M1350.8 1553.85 L1350.8 1574.19 L1344.94 1574.19 L1344.94 1568.77 Q1342.94 1572.02 1339.94 1573.58 Q1336.95 1575.11 1332.62 1575.11 Q1327.15 1575.11 1323.9 1572.05 Q1320.69 1568.97 1320.69 1563.81 Q1320.69 1557.79 1324.7 1554.74 Q1328.74 1551.68 1336.73 1551.68 L1344.94 1551.68 L1344.94 1551.11 Q1344.94 1547.07 1342.27 1544.87 Q1339.63 1542.64 1334.82 1542.64 Q1331.76 1542.64 1328.87 1543.38 Q1325.97 1544.11 1323.3 1545.57 L1323.3 1540.16 Q1326.51 1538.92 1329.54 1538.31 Q1332.56 1537.68 1335.42 1537.68 Q1343.16 1537.68 1346.98 1541.69 Q1350.8 1545.7 1350.8 1553.85 Z" fill="#000000" fill-rule="nonzero" fill-opacity="1" /><path clip-path="url(#clip600)" d="M1392.49 1552.67 L1392.49 1574.19 L1386.64 1574.19 L1386.64 1552.86 Q1386.64 1547.8 1384.66 1545.29 Q1382.69 1542.77 1378.74 1542.77 Q1374 1542.77 1371.26 1545.79 Q1368.53 1548.82 1368.53 1554.04 L1368.53 1574.19 L1362.64 1574.19 L1362.64 1538.54 L1368.53 1538.54 L1368.53 1544.08 Q1370.63 1540.86 1373.46 1539.27 Q1376.32 1537.68 1380.05 1537.68 Q1386.19 1537.68 1389.34 1541.5 Q1392.49 1545.29 1392.49 1552.67 Z" fill="#000000" fill-rule="nonzero" fill-opacity="1" /><path clip-path="url(#clip600)" d="M1427.63 1543.95 L1427.63 1524.66 L1433.49 1524.66 L1433.49 1574.19 L1427.63 1574.19 L1427.63 1568.84 Q1425.79 1572.02 1422.95 1573.58 Q1420.15 1575.11 1416.21 1575.11 Q1409.74 1575.11 1405.67 1569.95 Q1401.63 1564.8 1401.63 1556.39 Q1401.63 1547.99 1405.67 1542.83 Q1409.74 1537.68 1416.21 1537.68 Q1420.15 1537.68 1422.95 1539.24 Q1425.79 1540.77 1427.63 1543.95 M1407.68 1556.39 Q1407.68 1562.85 1410.32 1566.55 Q1412.99 1570.21 1417.64 1570.21 Q1422.28 1570.21 1424.96 1566.55 Q1427.63 1562.85 1427.63 1556.39 Q1427.63 1549.93 1424.96 1546.27 Q1422.28 1542.58 1417.64 1542.58 Q1412.99 1542.58 1410.32 1546.27 Q1407.68 1549.93 1407.68 1556.39 Z" fill="#000000" fill-rule="nonzero" fill-opacity="1" /><path clip-path="url(#clip600)" d="M1461.75 1556.27 Q1454.65 1556.27 1451.92 1557.89 Q1449.18 1559.51 1449.18 1563.43 Q1449.18 1566.55 1451.22 1568.39 Q1453.29 1570.21 1456.82 1570.21 Q1461.69 1570.21 1464.62 1566.77 Q1467.58 1563.3 1467.58 1557.57 L1467.58 1556.27 L1461.75 1556.27 M1473.43 1553.85 L1473.43 1574.19 L1467.58 1574.19 L1467.58 1568.77 Q1465.57 1572.02 1462.58 1573.58 Q1459.59 1575.11 1455.26 1575.11 Q1449.78 1575.11 1446.54 1572.05 Q1443.32 1568.97 1443.32 1563.81 Q1443.32 1557.79 1447.33 1554.74 Q1451.38 1551.68 1459.36 1551.68 L1467.58 1551.68 L1467.58 1551.11 Q1467.58 1547.07 1464.9 1544.87 Q1462.26 1542.64 1457.46 1542.64 Q1454.4 1542.64 1451.5 1543.38 Q1448.61 1544.11 1445.93 1545.57 L1445.93 1540.16 Q1449.15 1538.92 1452.17 1538.31 Q1455.2 1537.68 1458.06 1537.68 Q1465.79 1537.68 1469.61 1541.69 Q1473.43 1545.7 1473.43 1553.85 Z" fill="#000000" fill-rule="nonzero" fill-opacity="1" /><path clip-path="url(#clip600)" d="M1506.15 1544.01 Q1505.17 1543.44 1503.99 1543.18 Q1502.84 1542.9 1501.44 1542.9 Q1496.48 1542.9 1493.8 1546.14 Q1491.16 1549.36 1491.16 1555.41 L1491.16 1574.19 L1485.27 1574.19 L1485.27 1538.54 L1491.16 1538.54 L1491.16 1544.08 Q1493.01 1540.83 1495.97 1539.27 Q1498.93 1537.68 1503.16 1537.68 Q1503.77 1537.68 1504.5 1537.77 Q1505.23 1537.84 1506.12 1538 L1506.15 1544.01 Z" fill="#000000" fill-rule="nonzero" fill-opacity="1" /><path clip-path="url(#clip600)" d="M1534.61 1543.95 L1534.61 1524.66 L1540.46 1524.66 L1540.46 1574.19 L1534.61 1574.19 L1534.61 1568.84 Q1532.76 1572.02 1529.93 1573.58 Q1527.13 1575.11 1523.18 1575.11 Q1516.72 1575.11 1512.65 1569.95 Q1508.6 1564.8 1508.6 1556.39 Q1508.6 1547.99 1512.65 1542.83 Q1516.72 1537.68 1523.18 1537.68 Q1527.13 1537.68 1529.93 1539.24 Q1532.76 1540.77 1534.61 1543.95 M1514.65 1556.39 Q1514.65 1562.85 1517.29 1566.55 Q1519.97 1570.21 1524.61 1570.21 Q1529.26 1570.21 1531.93 1566.55 Q1534.61 1562.85 1534.61 1556.39 Q1534.61 1549.93 1531.93 1546.27 Q1529.26 1542.58 1524.61 1542.58 Q1519.97 1542.58 1517.29 1546.27 Q1514.65 1549.93 1514.65 1556.39 Z" fill="#000000" fill-rule="nonzero" fill-opacity="1" /><path clip-path="url(#clip600)" d="M1596.71 1543.95 L1596.71 1524.66 L1602.56 1524.66 L1602.56 1574.19 L1596.71 1574.19 L1596.71 1568.84 Q1594.86 1572.02 1592.03 1573.58 Q1589.23 1575.11 1585.28 1575.11 Q1578.82 1575.11 1574.74 1569.95 Q1570.7 1564.8 1570.7 1556.39 Q1570.7 1547.99 1574.74 1542.83 Q1578.82 1537.68 1585.28 1537.68 Q1589.23 1537.68 1592.03 1539.24 Q1594.86 1540.77 1596.71 1543.95 M1576.75 1556.39 Q1576.75 1562.85 1579.39 1566.55 Q1582.06 1570.21 1586.71 1570.21 Q1591.36 1570.21 1594.03 1566.55 Q1596.71 1562.85 1596.71 1556.39 Q1596.71 1549.93 1594.03 1546.27 Q1591.36 1542.58 1586.71 1542.58 Q1582.06 1542.58 1579.39 1546.27 Q1576.75 1549.93 1576.75 1556.39 Z" fill="#000000" fill-rule="nonzero" fill-opacity="1" /><path clip-path="url(#clip600)" d="M1645.12 1554.9 L1645.12 1557.76 L1618.19 1557.76 Q1618.57 1563.81 1621.82 1566.99 Q1625.1 1570.14 1630.92 1570.14 Q1634.29 1570.14 1637.45 1569.32 Q1640.63 1568.49 1643.75 1566.83 L1643.75 1572.37 Q1640.6 1573.71 1637.29 1574.41 Q1633.98 1575.11 1630.57 1575.11 Q1622.04 1575.11 1617.04 1570.14 Q1612.08 1565.18 1612.08 1556.71 Q1612.08 1547.96 1616.79 1542.83 Q1621.53 1537.68 1629.55 1537.68 Q1636.75 1537.68 1640.91 1542.33 Q1645.12 1546.94 1645.12 1554.9 M1639.26 1553.18 Q1639.2 1548.37 1636.55 1545.51 Q1633.94 1542.64 1629.62 1542.64 Q1624.71 1542.64 1621.75 1545.41 Q1618.83 1548.18 1618.38 1553.21 L1639.26 1553.18 Z" fill="#000000" fill-rule="nonzero" fill-opacity="1" /><path clip-path="url(#clip600)" d="M1650.53 1538.54 L1656.73 1538.54 L1667.87 1568.46 L1679.01 1538.54 L1685.22 1538.54 L1671.85 1574.19 L1663.9 1574.19 L1650.53 1538.54 Z" fill="#000000" fill-rule="nonzero" fill-opacity="1" /><path clip-path="url(#clip600)" d="M1693.3 1538.54 L1699.16 1538.54 L1699.16 1574.19 L1693.3 1574.19 L1693.3 1538.54 M1693.3 1524.66 L1699.16 1524.66 L1699.16 1532.08 L1693.3 1532.08 L1693.3 1524.66 Z" fill="#000000" fill-rule="nonzero" fill-opacity="1" /><path clip-path="url(#clip600)" d="M1727.62 1556.27 Q1720.52 1556.27 1717.78 1557.89 Q1715.04 1559.51 1715.04 1563.43 Q1715.04 1566.55 1717.08 1568.39 Q1719.15 1570.21 1722.68 1570.21 Q1727.55 1570.21 1730.48 1566.77 Q1733.44 1563.3 1733.44 1557.57 L1733.44 1556.27 L1727.62 1556.27 M1739.3 1553.85 L1739.3 1574.19 L1733.44 1574.19 L1733.44 1568.77 Q1731.44 1572.02 1728.44 1573.58 Q1725.45 1575.11 1721.12 1575.11 Q1715.65 1575.11 1712.4 1572.05 Q1709.19 1568.97 1709.19 1563.81 Q1709.19 1557.79 1713.2 1554.74 Q1717.24 1551.68 1725.23 1551.68 L1733.44 1551.68 L1733.44 1551.11 Q1733.44 1547.07 1730.77 1544.87 Q1728.13 1542.64 1723.32 1542.64 Q1720.26 1542.64 1717.37 1543.38 Q1714.47 1544.11 1711.8 1545.57 L1711.8 1540.16 Q1715.01 1538.92 1718.04 1538.31 Q1721.06 1537.68 1723.92 1537.68 Q1731.66 1537.68 1735.48 1541.69 Q1739.3 1545.7 1739.3 1553.85 Z" fill="#000000" fill-rule="nonzero" fill-opacity="1" /><path clip-path="url(#clip600)" d="M1757.15 1528.42 L1757.15 1538.54 L1769.22 1538.54 L1769.22 1543.09 L1757.15 1543.09 L1757.15 1562.44 Q1757.15 1566.8 1758.33 1568.04 Q1759.54 1569.28 1763.2 1569.28 L1769.22 1569.28 L1769.22 1574.19 L1763.2 1574.19 Q1756.42 1574.19 1753.84 1571.67 Q1751.26 1569.12 1751.26 1562.44 L1751.26 1543.09 L1746.97 1543.09 L1746.97 1538.54 L1751.26 1538.54 L1751.26 1528.42 L1757.15 1528.42 Z" fill="#000000" fill-rule="nonzero" fill-opacity="1" /><path clip-path="url(#clip600)" d="M1776.92 1538.54 L1782.77 1538.54 L1782.77 1574.19 L1776.92 1574.19 L1776.92 1538.54 M1776.92 1524.66 L1782.77 1524.66 L1782.77 1532.08 L1776.92 1532.08 L1776.92 1524.66 Z" fill="#000000" fill-rule="nonzero" fill-opacity="1" /><path clip-path="url(#clip600)" d="M1808.84 1542.64 Q1804.13 1542.64 1801.39 1546.34 Q1798.66 1550 1798.66 1556.39 Q1798.66 1562.79 1801.36 1566.48 Q1804.1 1570.14 1808.84 1570.14 Q1813.52 1570.14 1816.26 1566.45 Q1819 1562.76 1819 1556.39 Q1819 1550.06 1816.26 1546.37 Q1813.52 1542.64 1808.84 1542.64 M1808.84 1537.68 Q1816.48 1537.68 1820.84 1542.64 Q1825.2 1547.61 1825.2 1556.39 Q1825.2 1565.15 1820.84 1570.14 Q1816.48 1575.11 1808.84 1575.11 Q1801.17 1575.11 1796.81 1570.14 Q1792.48 1565.15 1792.48 1556.39 Q1792.48 1547.61 1796.81 1542.64 Q1801.17 1537.68 1808.84 1537.68 Z" fill="#000000" fill-rule="nonzero" fill-opacity="1" /><path clip-path="url(#clip600)" d="M1864.54 1552.67 L1864.54 1574.19 L1858.69 1574.19 L1858.69 1552.86 Q1858.69 1547.8 1856.71 1545.29 Q1854.74 1542.77 1850.79 1542.77 Q1846.05 1542.77 1843.31 1545.79 Q1840.58 1548.82 1840.58 1554.04 L1840.58 1574.19 L1834.69 1574.19 L1834.69 1538.54 L1840.58 1538.54 L1840.58 1544.08 Q1842.68 1540.86 1845.51 1539.27 Q1848.37 1537.68 1852.1 1537.68 Q1858.24 1537.68 1861.39 1541.5 Q1864.54 1545.29 1864.54 1552.67 Z" fill="#000000" fill-rule="nonzero" fill-opacity="1" /><polyline clip-path="url(#clip600)" style="stroke:#000000; stroke-linecap:round; stroke-linejoin:round; stroke-width:4; stroke-opacity:1; fill:none" points="239.19,1410.9 239.19,123.472 "/>
<polyline clip-path="url(#clip600)" style="stroke:#000000; stroke-linecap:round; stroke-linejoin:round; stroke-width:4; stroke-opacity:1; fill:none" points="239.19,1255.73 258.088,1255.73 "/>
<polyline clip-path="url(#clip600)" style="stroke:#000000; stroke-linecap:round; stroke-linejoin:round; stroke-width:4; stroke-opacity:1; fill:none" points="239.19,1037.33 258.088,1037.33 "/>
<polyline clip-path="url(#clip600)" style="stroke:#000000; stroke-linecap:round; stroke-linejoin:round; stroke-width:4; stroke-opacity:1; fill:none" points="239.19,818.925 258.088,818.925 "/>
<polyline clip-path="url(#clip600)" style="stroke:#000000; stroke-linecap:round; stroke-linejoin:round; stroke-width:4; stroke-opacity:1; fill:none" points="239.19,600.521 258.088,600.521 "/>
<polyline clip-path="url(#clip600)" style="stroke:#000000; stroke-linecap:round; stroke-linejoin:round; stroke-width:4; stroke-opacity:1; fill:none" points="239.19,382.116 258.088,382.116 "/>
<polyline clip-path="url(#clip600)" style="stroke:#000000; stroke-linecap:round; stroke-linejoin:round; stroke-width:4; stroke-opacity:1; fill:none" points="239.19,163.712 258.088,163.712 "/>
<path clip-path="url(#clip600)" d="M50.9921 1256.18 L80.6679 1256.18 L80.6679 1260.12 L50.9921 1260.12 L50.9921 1256.18 Z" fill="#000000" fill-rule="nonzero" fill-opacity="1" /><path clip-path="url(#clip600)" d="M101.339 1253.87 Q98.1909 1253.87 96.3391 1256.02 Q94.5104 1258.18 94.5104 1261.93 Q94.5104 1265.65 96.3391 1267.83 Q98.1909 1269.98 101.339 1269.98 Q104.487 1269.98 106.316 1267.83 Q108.168 1265.65 108.168 1261.93 Q108.168 1258.18 106.316 1256.02 Q104.487 1253.87 101.339 1253.87 M110.621 1239.22 L110.621 1243.48 Q108.862 1242.64 107.057 1242.2 Q105.274 1241.76 103.515 1241.76 Q98.8854 1241.76 96.4317 1244.89 Q94.0012 1248.01 93.6539 1254.33 Q95.0197 1252.32 97.0798 1251.25 Q99.14 1250.17 101.617 1250.17 Q106.825 1250.17 109.834 1253.34 Q112.867 1256.49 112.867 1261.93 Q112.867 1267.25 109.719 1270.47 Q106.571 1273.68 101.339 1273.68 Q95.3437 1273.68 92.1725 1269.1 Q89.0012 1264.49 89.0012 1255.77 Q89.0012 1247.57 92.89 1242.71 Q96.7789 1237.83 103.33 1237.83 Q105.089 1237.83 106.871 1238.18 Q108.677 1238.52 110.621 1239.22 Z" fill="#000000" fill-rule="nonzero" fill-opacity="1" /><path clip-path="url(#clip600)" d="M130.922 1241.53 Q127.311 1241.53 125.482 1245.1 Q123.677 1248.64 123.677 1255.77 Q123.677 1262.87 125.482 1266.44 Q127.311 1269.98 130.922 1269.98 Q134.556 1269.98 136.362 1266.44 Q138.191 1262.87 138.191 1255.77 Q138.191 1248.64 136.362 1245.1 Q134.556 1241.53 130.922 1241.53 M130.922 1237.83 Q136.732 1237.83 139.788 1242.43 Q142.867 1247.02 142.867 1255.77 Q142.867 1264.49 139.788 1269.1 Q136.732 1273.68 130.922 1273.68 Q125.112 1273.68 122.033 1269.1 Q118.978 1264.49 118.978 1255.77 Q118.978 1247.02 122.033 1242.43 Q125.112 1237.83 130.922 1237.83 Z" fill="#000000" fill-rule="nonzero" fill-opacity="1" /><path clip-path="url(#clip600)" d="M161.084 1241.53 Q157.473 1241.53 155.644 1245.1 Q153.839 1248.64 153.839 1255.77 Q153.839 1262.87 155.644 1266.44 Q157.473 1269.98 161.084 1269.98 Q164.718 1269.98 166.524 1266.44 Q168.353 1262.87 168.353 1255.77 Q168.353 1248.64 166.524 1245.1 Q164.718 1241.53 161.084 1241.53 M161.084 1237.83 Q166.894 1237.83 169.95 1242.43 Q173.029 1247.02 173.029 1255.77 Q173.029 1264.49 169.95 1269.1 Q166.894 1273.68 161.084 1273.68 Q155.274 1273.68 152.195 1269.1 Q149.14 1264.49 149.14 1255.77 Q149.14 1247.02 152.195 1242.43 Q155.274 1237.83 161.084 1237.83 Z" fill="#000000" fill-rule="nonzero" fill-opacity="1" /><path clip-path="url(#clip600)" d="M191.246 1241.53 Q187.635 1241.53 185.806 1245.1 Q184.001 1248.64 184.001 1255.77 Q184.001 1262.87 185.806 1266.44 Q187.635 1269.98 191.246 1269.98 Q194.88 1269.98 196.686 1266.44 Q198.514 1262.87 198.514 1255.77 Q198.514 1248.64 196.686 1245.1 Q194.88 1241.53 191.246 1241.53 M191.246 1237.83 Q197.056 1237.83 200.112 1242.43 Q203.19 1247.02 203.19 1255.77 Q203.19 1264.49 200.112 1269.1 Q197.056 1273.68 191.246 1273.68 Q185.436 1273.68 182.357 1269.1 Q179.302 1264.49 179.302 1255.77 Q179.302 1247.02 182.357 1242.43 Q185.436 1237.83 191.246 1237.83 Z" fill="#000000" fill-rule="nonzero" fill-opacity="1" /><path clip-path="url(#clip600)" d="M50.9921 1037.78 L80.6679 1037.78 L80.6679 1041.72 L50.9921 1041.72 L50.9921 1037.78 Z" fill="#000000" fill-rule="nonzero" fill-opacity="1" /><path clip-path="url(#clip600)" d="M90.8067 1020.05 L109.163 1020.05 L109.163 1023.98 L95.0891 1023.98 L95.0891 1032.46 Q96.1076 1032.11 97.1261 1031.95 Q98.1447 1031.76 99.1632 1031.76 Q104.95 1031.76 108.33 1034.93 Q111.709 1038.1 111.709 1043.52 Q111.709 1049.1 108.237 1052.2 Q104.765 1055.28 98.4456 1055.28 Q96.2697 1055.28 94.0012 1054.91 Q91.7558 1054.54 89.3484 1053.8 L89.3484 1049.1 Q91.4317 1050.23 93.6539 1050.79 Q95.8761 1051.35 98.353 1051.35 Q102.358 1051.35 104.696 1049.24 Q107.033 1047.13 107.033 1043.52 Q107.033 1039.91 104.696 1037.8 Q102.358 1035.7 98.353 1035.7 Q96.478 1035.7 94.603 1036.11 Q92.7512 1036.53 90.8067 1037.41 L90.8067 1020.05 Z" fill="#000000" fill-rule="nonzero" fill-opacity="1" /><path clip-path="url(#clip600)" d="M130.922 1023.13 Q127.311 1023.13 125.482 1026.69 Q123.677 1030.23 123.677 1037.36 Q123.677 1044.47 125.482 1048.04 Q127.311 1051.58 130.922 1051.58 Q134.556 1051.58 136.362 1048.04 Q138.191 1044.47 138.191 1037.36 Q138.191 1030.23 136.362 1026.69 Q134.556 1023.13 130.922 1023.13 M130.922 1019.42 Q136.732 1019.42 139.788 1024.03 Q142.867 1028.61 142.867 1037.36 Q142.867 1046.09 139.788 1050.7 Q136.732 1055.28 130.922 1055.28 Q125.112 1055.28 122.033 1050.7 Q118.978 1046.09 118.978 1037.36 Q118.978 1028.61 122.033 1024.03 Q125.112 1019.42 130.922 1019.42 Z" fill="#000000" fill-rule="nonzero" fill-opacity="1" /><path clip-path="url(#clip600)" d="M161.084 1023.13 Q157.473 1023.13 155.644 1026.69 Q153.839 1030.23 153.839 1037.36 Q153.839 1044.47 155.644 1048.04 Q157.473 1051.58 161.084 1051.58 Q164.718 1051.58 166.524 1048.04 Q168.353 1044.47 168.353 1037.36 Q168.353 1030.23 166.524 1026.69 Q164.718 1023.13 161.084 1023.13 M161.084 1019.42 Q166.894 1019.42 169.95 1024.03 Q173.029 1028.61 173.029 1037.36 Q173.029 1046.09 169.95 1050.7 Q166.894 1055.28 161.084 1055.28 Q155.274 1055.28 152.195 1050.7 Q149.14 1046.09 149.14 1037.36 Q149.14 1028.61 152.195 1024.03 Q155.274 1019.42 161.084 1019.42 Z" fill="#000000" fill-rule="nonzero" fill-opacity="1" /><path clip-path="url(#clip600)" d="M191.246 1023.13 Q187.635 1023.13 185.806 1026.69 Q184.001 1030.23 184.001 1037.36 Q184.001 1044.47 185.806 1048.04 Q187.635 1051.58 191.246 1051.58 Q194.88 1051.58 196.686 1048.04 Q198.514 1044.47 198.514 1037.36 Q198.514 1030.23 196.686 1026.69 Q194.88 1023.13 191.246 1023.13 M191.246 1019.42 Q197.056 1019.42 200.112 1024.03 Q203.19 1028.61 203.19 1037.36 Q203.19 1046.09 200.112 1050.7 Q197.056 1055.28 191.246 1055.28 Q185.436 1055.28 182.357 1050.7 Q179.302 1046.09 179.302 1037.36 Q179.302 1028.61 182.357 1024.03 Q185.436 1019.42 191.246 1019.42 Z" fill="#000000" fill-rule="nonzero" fill-opacity="1" /><path clip-path="url(#clip600)" d="M50.9921 819.376 L80.6679 819.376 L80.6679 823.311 L50.9921 823.311 L50.9921 819.376 Z" fill="#000000" fill-rule="nonzero" fill-opacity="1" /><path clip-path="url(#clip600)" d="M103.608 805.719 L91.8021 824.168 L103.608 824.168 L103.608 805.719 M102.381 801.645 L108.26 801.645 L108.26 824.168 L113.191 824.168 L113.191 828.057 L108.26 828.057 L108.26 836.205 L103.608 836.205 L103.608 828.057 L88.0058 828.057 L88.0058 823.543 L102.381 801.645 Z" fill="#000000" fill-rule="nonzero" fill-opacity="1" /><path clip-path="url(#clip600)" d="M130.922 804.724 Q127.311 804.724 125.482 808.288 Q123.677 811.83 123.677 818.96 Q123.677 826.066 125.482 829.631 Q127.311 833.172 130.922 833.172 Q134.556 833.172 136.362 829.631 Q138.191 826.066 138.191 818.96 Q138.191 811.83 136.362 808.288 Q134.556 804.724 130.922 804.724 M130.922 801.02 Q136.732 801.02 139.788 805.626 Q142.867 810.21 142.867 818.96 Q142.867 827.686 139.788 832.293 Q136.732 836.876 130.922 836.876 Q125.112 836.876 122.033 832.293 Q118.978 827.686 118.978 818.96 Q118.978 810.21 122.033 805.626 Q125.112 801.02 130.922 801.02 Z" fill="#000000" fill-rule="nonzero" fill-opacity="1" /><path clip-path="url(#clip600)" d="M161.084 804.724 Q157.473 804.724 155.644 808.288 Q153.839 811.83 153.839 818.96 Q153.839 826.066 155.644 829.631 Q157.473 833.172 161.084 833.172 Q164.718 833.172 166.524 829.631 Q168.353 826.066 168.353 818.96 Q168.353 811.83 166.524 808.288 Q164.718 804.724 161.084 804.724 M161.084 801.02 Q166.894 801.02 169.95 805.626 Q173.029 810.21 173.029 818.96 Q173.029 827.686 169.95 832.293 Q166.894 836.876 161.084 836.876 Q155.274 836.876 152.195 832.293 Q149.14 827.686 149.14 818.96 Q149.14 810.21 152.195 805.626 Q155.274 801.02 161.084 801.02 Z" fill="#000000" fill-rule="nonzero" fill-opacity="1" /><path clip-path="url(#clip600)" d="M191.246 804.724 Q187.635 804.724 185.806 808.288 Q184.001 811.83 184.001 818.96 Q184.001 826.066 185.806 829.631 Q187.635 833.172 191.246 833.172 Q194.88 833.172 196.686 829.631 Q198.514 826.066 198.514 818.96 Q198.514 811.83 196.686 808.288 Q194.88 804.724 191.246 804.724 M191.246 801.02 Q197.056 801.02 200.112 805.626 Q203.19 810.21 203.19 818.96 Q203.19 827.686 200.112 832.293 Q197.056 836.876 191.246 836.876 Q185.436 836.876 182.357 832.293 Q179.302 827.686 179.302 818.96 Q179.302 810.21 182.357 805.626 Q185.436 801.02 191.246 801.02 Z" fill="#000000" fill-rule="nonzero" fill-opacity="1" /><path clip-path="url(#clip600)" d="M50.9921 600.972 L80.6679 600.972 L80.6679 604.907 L50.9921 604.907 L50.9921 600.972 Z" fill="#000000" fill-rule="nonzero" fill-opacity="1" /><path clip-path="url(#clip600)" d="M104.927 599.166 Q108.283 599.884 110.158 602.153 Q112.057 604.421 112.057 607.754 Q112.057 612.87 108.538 615.671 Q105.02 618.472 98.5382 618.472 Q96.3623 618.472 94.0475 618.032 Q91.7558 617.615 89.3021 616.759 L89.3021 612.245 Q91.2465 613.379 93.5613 613.958 Q95.8761 614.537 98.3993 614.537 Q102.797 614.537 105.089 612.801 Q107.404 611.065 107.404 607.754 Q107.404 604.699 105.251 602.986 Q103.121 601.25 99.3021 601.25 L95.2743 601.25 L95.2743 597.407 L99.4872 597.407 Q102.936 597.407 104.765 596.041 Q106.594 594.653 106.594 592.06 Q106.594 589.398 104.696 587.986 Q102.821 586.551 99.3021 586.551 Q97.3808 586.551 95.1817 586.967 Q92.9826 587.384 90.3438 588.264 L90.3438 584.097 Q93.0058 583.356 95.3206 582.986 Q97.6585 582.616 99.7187 582.616 Q105.043 582.616 108.145 585.046 Q111.246 587.454 111.246 591.574 Q111.246 594.444 109.603 596.435 Q107.959 598.403 104.927 599.166 Z" fill="#000000" fill-rule="nonzero" fill-opacity="1" /><path clip-path="url(#clip600)" d="M130.922 586.319 Q127.311 586.319 125.482 589.884 Q123.677 593.426 123.677 600.555 Q123.677 607.662 125.482 611.227 Q127.311 614.768 130.922 614.768 Q134.556 614.768 136.362 611.227 Q138.191 607.662 138.191 600.555 Q138.191 593.426 136.362 589.884 Q134.556 586.319 130.922 586.319 M130.922 582.616 Q136.732 582.616 139.788 587.222 Q142.867 591.805 142.867 600.555 Q142.867 609.282 139.788 613.889 Q136.732 618.472 130.922 618.472 Q125.112 618.472 122.033 613.889 Q118.978 609.282 118.978 600.555 Q118.978 591.805 122.033 587.222 Q125.112 582.616 130.922 582.616 Z" fill="#000000" fill-rule="nonzero" fill-opacity="1" /><path clip-path="url(#clip600)" d="M161.084 586.319 Q157.473 586.319 155.644 589.884 Q153.839 593.426 153.839 600.555 Q153.839 607.662 155.644 611.227 Q157.473 614.768 161.084 614.768 Q164.718 614.768 166.524 611.227 Q168.353 607.662 168.353 600.555 Q168.353 593.426 166.524 589.884 Q164.718 586.319 161.084 586.319 M161.084 582.616 Q166.894 582.616 169.95 587.222 Q173.029 591.805 173.029 600.555 Q173.029 609.282 169.95 613.889 Q166.894 618.472 161.084 618.472 Q155.274 618.472 152.195 613.889 Q149.14 609.282 149.14 600.555 Q149.14 591.805 152.195 587.222 Q155.274 582.616 161.084 582.616 Z" fill="#000000" fill-rule="nonzero" fill-opacity="1" /><path clip-path="url(#clip600)" d="M191.246 586.319 Q187.635 586.319 185.806 589.884 Q184.001 593.426 184.001 600.555 Q184.001 607.662 185.806 611.227 Q187.635 614.768 191.246 614.768 Q194.88 614.768 196.686 611.227 Q198.514 607.662 198.514 600.555 Q198.514 593.426 196.686 589.884 Q194.88 586.319 191.246 586.319 M191.246 582.616 Q197.056 582.616 200.112 587.222 Q203.19 591.805 203.19 600.555 Q203.19 609.282 200.112 613.889 Q197.056 618.472 191.246 618.472 Q185.436 618.472 182.357 613.889 Q179.302 609.282 179.302 600.555 Q179.302 591.805 182.357 587.222 Q185.436 582.616 191.246 582.616 Z" fill="#000000" fill-rule="nonzero" fill-opacity="1" /><path clip-path="url(#clip600)" d="M50.9921 382.568 L80.6679 382.568 L80.6679 386.503 L50.9921 386.503 L50.9921 382.568 Z" fill="#000000" fill-rule="nonzero" fill-opacity="1" /><path clip-path="url(#clip600)" d="M94.7882 395.461 L111.108 395.461 L111.108 399.396 L89.1632 399.396 L89.1632 395.461 Q91.8252 392.707 96.4085 388.077 Q101.015 383.424 102.196 382.082 Q104.441 379.559 105.321 377.822 Q106.223 376.063 106.223 374.373 Q106.223 371.619 104.279 369.883 Q102.358 368.147 99.2558 368.147 Q97.0567 368.147 94.603 368.91 Q92.1725 369.674 89.3947 371.225 L89.3947 366.503 Q92.2188 365.369 94.6724 364.79 Q97.1261 364.211 99.1632 364.211 Q104.534 364.211 107.728 366.897 Q110.922 369.582 110.922 374.072 Q110.922 376.202 110.112 378.123 Q109.325 380.021 107.219 382.614 Q106.64 383.285 103.538 386.503 Q100.436 389.697 94.7882 395.461 Z" fill="#000000" fill-rule="nonzero" fill-opacity="1" /><path clip-path="url(#clip600)" d="M130.922 367.915 Q127.311 367.915 125.482 371.48 Q123.677 375.022 123.677 382.151 Q123.677 389.258 125.482 392.822 Q127.311 396.364 130.922 396.364 Q134.556 396.364 136.362 392.822 Q138.191 389.258 138.191 382.151 Q138.191 375.022 136.362 371.48 Q134.556 367.915 130.922 367.915 M130.922 364.211 Q136.732 364.211 139.788 368.818 Q142.867 373.401 142.867 382.151 Q142.867 390.878 139.788 395.484 Q136.732 400.068 130.922 400.068 Q125.112 400.068 122.033 395.484 Q118.978 390.878 118.978 382.151 Q118.978 373.401 122.033 368.818 Q125.112 364.211 130.922 364.211 Z" fill="#000000" fill-rule="nonzero" fill-opacity="1" /><path clip-path="url(#clip600)" d="M161.084 367.915 Q157.473 367.915 155.644 371.48 Q153.839 375.022 153.839 382.151 Q153.839 389.258 155.644 392.822 Q157.473 396.364 161.084 396.364 Q164.718 396.364 166.524 392.822 Q168.353 389.258 168.353 382.151 Q168.353 375.022 166.524 371.48 Q164.718 367.915 161.084 367.915 M161.084 364.211 Q166.894 364.211 169.95 368.818 Q173.029 373.401 173.029 382.151 Q173.029 390.878 169.95 395.484 Q166.894 400.068 161.084 400.068 Q155.274 400.068 152.195 395.484 Q149.14 390.878 149.14 382.151 Q149.14 373.401 152.195 368.818 Q155.274 364.211 161.084 364.211 Z" fill="#000000" fill-rule="nonzero" fill-opacity="1" /><path clip-path="url(#clip600)" d="M191.246 367.915 Q187.635 367.915 185.806 371.48 Q184.001 375.022 184.001 382.151 Q184.001 389.258 185.806 392.822 Q187.635 396.364 191.246 396.364 Q194.88 396.364 196.686 392.822 Q198.514 389.258 198.514 382.151 Q198.514 375.022 196.686 371.48 Q194.88 367.915 191.246 367.915 M191.246 364.211 Q197.056 364.211 200.112 368.818 Q203.19 373.401 203.19 382.151 Q203.19 390.878 200.112 395.484 Q197.056 400.068 191.246 400.068 Q185.436 400.068 182.357 395.484 Q179.302 390.878 179.302 382.151 Q179.302 373.401 182.357 368.818 Q185.436 364.211 191.246 364.211 Z" fill="#000000" fill-rule="nonzero" fill-opacity="1" /><path clip-path="url(#clip600)" d="M50.9921 164.164 L80.6679 164.164 L80.6679 168.099 L50.9921 168.099 L50.9921 164.164 Z" fill="#000000" fill-rule="nonzero" fill-opacity="1" /><path clip-path="url(#clip600)" d="M91.5706 177.057 L99.2095 177.057 L99.2095 150.691 L90.8993 152.358 L90.8993 148.099 L99.1632 146.432 L103.839 146.432 L103.839 177.057 L111.478 177.057 L111.478 180.992 L91.5706 180.992 L91.5706 177.057 Z" fill="#000000" fill-rule="nonzero" fill-opacity="1" /><path clip-path="url(#clip600)" d="M130.922 149.511 Q127.311 149.511 125.482 153.076 Q123.677 156.617 123.677 163.747 Q123.677 170.853 125.482 174.418 Q127.311 177.96 130.922 177.96 Q134.556 177.96 136.362 174.418 Q138.191 170.853 138.191 163.747 Q138.191 156.617 136.362 153.076 Q134.556 149.511 130.922 149.511 M130.922 145.807 Q136.732 145.807 139.788 150.414 Q142.867 154.997 142.867 163.747 Q142.867 172.474 139.788 177.08 Q136.732 181.663 130.922 181.663 Q125.112 181.663 122.033 177.08 Q118.978 172.474 118.978 163.747 Q118.978 154.997 122.033 150.414 Q125.112 145.807 130.922 145.807 Z" fill="#000000" fill-rule="nonzero" fill-opacity="1" /><path clip-path="url(#clip600)" d="M161.084 149.511 Q157.473 149.511 155.644 153.076 Q153.839 156.617 153.839 163.747 Q153.839 170.853 155.644 174.418 Q157.473 177.96 161.084 177.96 Q164.718 177.96 166.524 174.418 Q168.353 170.853 168.353 163.747 Q168.353 156.617 166.524 153.076 Q164.718 149.511 161.084 149.511 M161.084 145.807 Q166.894 145.807 169.95 150.414 Q173.029 154.997 173.029 163.747 Q173.029 172.474 169.95 177.08 Q166.894 181.663 161.084 181.663 Q155.274 181.663 152.195 177.08 Q149.14 172.474 149.14 163.747 Q149.14 154.997 152.195 150.414 Q155.274 145.807 161.084 145.807 Z" fill="#000000" fill-rule="nonzero" fill-opacity="1" /><path clip-path="url(#clip600)" d="M191.246 149.511 Q187.635 149.511 185.806 153.076 Q184.001 156.617 184.001 163.747 Q184.001 170.853 185.806 174.418 Q187.635 177.96 191.246 177.96 Q194.88 177.96 196.686 174.418 Q198.514 170.853 198.514 163.747 Q198.514 156.617 196.686 153.076 Q194.88 149.511 191.246 149.511 M191.246 145.807 Q197.056 145.807 200.112 150.414 Q203.19 154.997 203.19 163.747 Q203.19 172.474 200.112 177.08 Q197.056 181.663 191.246 181.663 Q185.436 181.663 182.357 177.08 Q179.302 172.474 179.302 163.747 Q179.302 154.997 182.357 150.414 Q185.436 145.807 191.246 145.807 Z" fill="#000000" fill-rule="nonzero" fill-opacity="1" /><path clip-path="url(#clip600)" d="M1017.21 12.096 L1025.39 12.096 L1025.39 65.6895 L1054.84 65.6895 L1054.84 72.576 L1017.21 72.576 L1017.21 12.096 Z" fill="#000000" fill-rule="nonzero" fill-opacity="1" /><path clip-path="url(#clip600)" d="M1079.23 32.4315 Q1073.23 32.4315 1069.75 37.1306 Q1066.27 41.7891 1066.27 49.9314 Q1066.27 58.0738 1069.71 62.7728 Q1073.19 67.4314 1079.23 67.4314 Q1085.18 67.4314 1088.67 62.7323 Q1092.15 58.0333 1092.15 49.9314 Q1092.15 41.8701 1088.67 37.1711 Q1085.18 32.4315 1079.23 32.4315 M1079.23 26.1121 Q1088.95 26.1121 1094.5 32.4315 Q1100.05 38.7509 1100.05 49.9314 Q1100.05 61.0714 1094.5 67.4314 Q1088.95 73.7508 1079.23 73.7508 Q1069.47 73.7508 1063.92 67.4314 Q1058.41 61.0714 1058.41 49.9314 Q1058.41 38.7509 1063.92 32.4315 Q1069.47 26.1121 1079.23 26.1121 Z" fill="#000000" fill-rule="nonzero" fill-opacity="1" /><path clip-path="url(#clip600)" d="M1142.26 49.3643 Q1142.26 41.2625 1138.9 36.8065 Q1135.58 32.3505 1129.54 32.3505 Q1123.55 32.3505 1120.18 36.8065 Q1116.86 41.2625 1116.86 49.3643 Q1116.86 57.4256 1120.18 61.8816 Q1123.55 66.3376 1129.54 66.3376 Q1135.58 66.3376 1138.9 61.8816 Q1142.26 57.4256 1142.26 49.3643 M1149.72 66.9452 Q1149.72 78.5308 1144.57 84.1616 Q1139.43 89.8329 1128.81 89.8329 Q1124.88 89.8329 1121.4 89.2252 Q1117.92 88.6581 1114.63 87.4428 L1114.63 80.1917 Q1117.92 81.9741 1121.12 82.8248 Q1124.32 83.6755 1127.64 83.6755 Q1134.97 83.6755 1138.62 79.8271 Q1142.26 76.0193 1142.26 68.282 L1142.26 64.5957 Q1139.95 68.6061 1136.35 70.5911 Q1132.74 72.576 1127.72 72.576 Q1119.37 72.576 1114.27 66.2161 Q1109.17 59.8562 1109.17 49.3643 Q1109.17 38.832 1114.27 32.472 Q1119.37 26.1121 1127.72 26.1121 Q1132.74 26.1121 1136.35 28.0971 Q1139.95 30.082 1142.26 34.0924 L1142.26 27.2059 L1149.72 27.2059 L1149.72 66.9452 Z" fill="#000000" fill-rule="nonzero" fill-opacity="1" /><path clip-path="url(#clip600)" d="M1161.3 46.5287 L1183.14 46.5287 L1183.14 53.1722 L1161.3 53.1722 L1161.3 46.5287 Z" fill="#000000" fill-rule="nonzero" fill-opacity="1" /><path clip-path="url(#clip600)" d="M1195 9.54393 L1202.46 9.54393 L1202.46 72.576 L1195 72.576 L1195 9.54393 Z" fill="#000000" fill-rule="nonzero" fill-opacity="1" /><path clip-path="url(#clip600)" d="M1218.05 27.2059 L1225.51 27.2059 L1225.51 72.576 L1218.05 72.576 L1218.05 27.2059 M1218.05 9.54393 L1225.51 9.54393 L1225.51 18.9825 L1218.05 18.9825 L1218.05 9.54393 Z" fill="#000000" fill-rule="nonzero" fill-opacity="1" /><path clip-path="url(#clip600)" d="M1240.82 9.54393 L1248.31 9.54393 L1248.31 46.7717 L1270.55 27.2059 L1280.07 27.2059 L1256.01 48.4326 L1281.09 72.576 L1271.36 72.576 L1248.31 50.4176 L1248.31 72.576 L1240.82 72.576 L1240.82 9.54393 Z" fill="#000000" fill-rule="nonzero" fill-opacity="1" /><path clip-path="url(#clip600)" d="M1325 48.0275 L1325 51.6733 L1290.73 51.6733 Q1291.21 59.3701 1295.35 63.421 Q1299.52 67.4314 1306.93 67.4314 Q1311.22 67.4314 1315.24 66.3781 Q1319.29 65.3249 1323.26 63.2184 L1323.26 70.267 Q1319.25 71.9684 1315.03 72.8596 Q1310.82 73.7508 1306.49 73.7508 Q1295.63 73.7508 1289.27 67.4314 Q1282.95 61.1119 1282.95 50.3365 Q1282.95 39.1965 1288.94 32.6746 Q1294.98 26.1121 1305.19 26.1121 Q1314.34 26.1121 1319.65 32.0264 Q1325 37.9003 1325 48.0275 M1317.54 45.84 Q1317.46 39.7232 1314.1 36.0774 Q1310.78 32.4315 1305.27 32.4315 Q1299.03 32.4315 1295.26 35.9558 Q1291.54 39.4801 1290.97 45.8805 L1317.54 45.84 Z" fill="#000000" fill-rule="nonzero" fill-opacity="1" /><path clip-path="url(#clip600)" d="M1337.23 9.54393 L1344.69 9.54393 L1344.69 72.576 L1337.23 72.576 L1337.23 9.54393 Z" fill="#000000" fill-rule="nonzero" fill-opacity="1" /><path clip-path="url(#clip600)" d="M1360.28 27.2059 L1367.73 27.2059 L1367.73 72.576 L1360.28 72.576 L1360.28 27.2059 M1360.28 9.54393 L1367.73 9.54393 L1367.73 18.9825 L1360.28 18.9825 L1360.28 9.54393 Z" fill="#000000" fill-rule="nonzero" fill-opacity="1" /><path clip-path="url(#clip600)" d="M1421.04 45.1919 L1421.04 72.576 L1413.59 72.576 L1413.59 45.4349 Q1413.59 38.994 1411.08 35.7938 Q1408.57 32.5936 1403.54 32.5936 Q1397.51 32.5936 1394.03 36.4419 Q1390.54 40.2903 1390.54 46.9338 L1390.54 72.576 L1383.05 72.576 L1383.05 9.54393 L1390.54 9.54393 L1390.54 34.2544 Q1393.22 30.163 1396.82 28.1376 Q1400.47 26.1121 1405.21 26.1121 Q1413.02 26.1121 1417.03 30.9732 Q1421.04 35.7938 1421.04 45.1919 Z" fill="#000000" fill-rule="nonzero" fill-opacity="1" /><path clip-path="url(#clip600)" d="M1453.49 32.4315 Q1447.5 32.4315 1444.01 37.1306 Q1440.53 41.7891 1440.53 49.9314 Q1440.53 58.0738 1443.97 62.7728 Q1447.46 67.4314 1453.49 67.4314 Q1459.45 67.4314 1462.93 62.7323 Q1466.41 58.0333 1466.41 49.9314 Q1466.41 41.8701 1462.93 37.1711 Q1459.45 32.4315 1453.49 32.4315 M1453.49 26.1121 Q1463.21 26.1121 1468.76 32.4315 Q1474.31 38.7509 1474.31 49.9314 Q1474.31 61.0714 1468.76 67.4314 Q1463.21 73.7508 1453.49 73.7508 Q1443.73 73.7508 1438.18 67.4314 Q1432.67 61.0714 1432.67 49.9314 Q1432.67 38.7509 1438.18 32.4315 Q1443.73 26.1121 1453.49 26.1121 Z" fill="#000000" fill-rule="nonzero" fill-opacity="1" /><path clip-path="url(#clip600)" d="M1504.25 32.4315 Q1498.26 32.4315 1494.77 37.1306 Q1491.29 41.7891 1491.29 49.9314 Q1491.29 58.0738 1494.73 62.7728 Q1498.21 67.4314 1504.25 67.4314 Q1510.21 67.4314 1513.69 62.7323 Q1517.17 58.0333 1517.17 49.9314 Q1517.17 41.8701 1513.69 37.1711 Q1510.21 32.4315 1504.25 32.4315 M1504.25 26.1121 Q1513.97 26.1121 1519.52 32.4315 Q1525.07 38.7509 1525.07 49.9314 Q1525.07 61.0714 1519.52 67.4314 Q1513.97 73.7508 1504.25 73.7508 Q1494.49 73.7508 1488.94 67.4314 Q1483.43 61.0714 1483.43 49.9314 Q1483.43 38.7509 1488.94 32.4315 Q1494.49 26.1121 1504.25 26.1121 Z" fill="#000000" fill-rule="nonzero" fill-opacity="1" /><path clip-path="url(#clip600)" d="M1567.28 34.0924 L1567.28 9.54393 L1574.74 9.54393 L1574.74 72.576 L1567.28 72.576 L1567.28 65.7705 Q1564.93 69.8214 1561.33 71.8063 Q1557.76 73.7508 1552.74 73.7508 Q1544.52 73.7508 1539.33 67.1883 Q1534.19 60.6258 1534.19 49.9314 Q1534.19 39.2371 1539.33 32.6746 Q1544.52 26.1121 1552.74 26.1121 Q1557.76 26.1121 1561.33 28.0971 Q1564.93 30.0415 1567.28 34.0924 M1541.88 49.9314 Q1541.88 58.1548 1545.25 62.8538 Q1548.65 67.5124 1554.56 67.5124 Q1560.48 67.5124 1563.88 62.8538 Q1567.28 58.1548 1567.28 49.9314 Q1567.28 41.7081 1563.88 37.0496 Q1560.48 32.3505 1554.56 32.3505 Q1548.65 32.3505 1545.25 37.0496 Q1541.88 41.7081 1541.88 49.9314 Z" fill="#000000" fill-rule="nonzero" fill-opacity="1" /><polyline clip-path="url(#clip601)" style="stroke:#009af9; stroke-linecap:round; stroke-linejoin:round; stroke-width:4; stroke-opacity:1; fill:none" points="299.008,880.184 332.804,898.816 366.599,591.708 400.395,544.534 434.19,453.937 467.985,350.822 501.781,333.242 535.576,296.485 569.372,291.64 603.167,270.934 636.962,252.926 670.758,239.762 704.553,238.626 738.349,224.735 772.144,219.143 805.94,214.001 839.735,207.709 873.53,206.396 907.326,203.732 941.121,200.561 974.917,199.349 1008.71,198.39 1042.51,197.007 1076.3,197.123 1110.1,196.184 1143.89,197.455 1177.69,196.916 1211.48,198.644 1245.28,200.259 1279.08,202.655 1312.87,204.712 1346.67,208.332 1380.46,211.25 1414.26,215.298 1448.05,219.924 1481.85,225.007 1515.64,230.061 1549.44,235.799 1583.23,242.716 1617.03,248.328 1650.83,256.543 1684.62,263.726 1718.42,270.948 1752.21,278.329 1786.01,286.857 1819.8,295.619 1853.6,304.215 1887.39,312.581 1921.19,322.6 1954.98,331.116 1988.78,340.664 2022.57,350.56 2056.37,360.954 2090.17,372.411 2123.96,379.018 2157.76,390.525 2191.55,399.569 2225.35,409.311 2259.14,419.474 2292.94,431.1 "/>
<polyline clip-path="url(#clip601)" style="stroke:#008000; stroke-linecap:round; stroke-linejoin:round; stroke-width:4; stroke-opacity:1; fill:none" points="299.008,875.675 332.804,650.205 366.599,590.395 400.395,430.601 434.19,407.774 467.985,389.058 501.781,303.387 535.576,307.879 569.372,280.313 603.167,267.693 636.962,257.243 670.758,242.344 704.553,235.141 738.349,225.422 772.144,219.92 805.94,217.085 839.735,211.162 873.53,205.743 907.326,204.202 941.121,201.515 974.917,199.085 1008.71,197.712 1042.51,196.85 1076.3,195.749 1110.1,195.836 1143.89,196.26 1177.69,197.06 1211.48,198.741 1245.28,200.071 1279.08,201.894 1312.87,204.217 1346.67,207.77 1380.46,211.331 1414.26,215.218 1448.05,219.598 1481.85,224.156 1515.64,229.835 1549.44,235.649 1583.23,242.153 1617.03,248.908 1650.83,255.918 1684.62,263.402 1718.42,270.786 1752.21,279.279 1786.01,287.238 1819.8,295.768 1853.6,304.16 1887.39,312.992 1921.19,322.792 1954.98,332.311 1988.78,342.128 2022.57,350.238 2056.37,359.978 2090.17,370.059 2123.96,380.896 2157.76,391.118 2191.55,401.145 2225.35,412.017 2259.14,422.491 2292.94,430.7 "/>
<polyline clip-path="url(#clip601)" style="stroke:#0000ff; stroke-linecap:round; stroke-linejoin:round; stroke-width:4; stroke-opacity:1; fill:none" stroke-dasharray="16, 10" points="1110.1,2698.32 1110.1,-1163.95 "/>
<polyline clip-path="url(#clip601)" style="stroke:#ff0000; stroke-linecap:round; stroke-linejoin:round; stroke-width:4; stroke-opacity:1; fill:none" points="299.008,341.942 332.804,326.422 366.599,312.342 400.395,299.551 434.19,287.917 467.985,277.325 501.781,267.672 535.576,258.871 569.372,250.847 603.167,243.534 636.962,236.877 670.758,230.827 704.553,225.345 738.349,220.396 772.144,215.952 805.94,211.99 839.735,208.49 873.53,205.438 907.326,202.82 941.121,200.63 974.917,198.859 1008.71,197.506 1042.51,196.569 1076.3,196.05 1110.1,195.95 1143.89,196.276 1177.69,197.033 1211.48,198.23 1245.28,199.875 1279.08,201.976 1312.87,204.542 1346.67,207.577 1380.46,211.088 1414.26,215.073 1448.05,219.531 1481.85,224.455 1515.64,229.834 1549.44,235.654 1583.23,241.895 1617.03,248.535 1650.83,255.55 1684.62,262.914 1718.42,270.6 1752.21,278.58 1786.01,286.826 1819.8,295.313 1853.6,304.016 1887.39,312.909 1921.19,321.973 1954.98,331.186 1988.78,340.531 2022.57,349.991 2056.37,359.551 2090.17,369.198 2123.96,378.922 2157.76,388.711 2191.55,398.556 2225.35,408.451 2259.14,418.389 2292.94,428.362 "/>
<polyline clip-path="url(#clip601)" style="stroke:#ff0000; stroke-linecap:round; stroke-linejoin:round; stroke-width:4; stroke-opacity:1; fill:none" stroke-dasharray="16, 10" points="1110.1,2698.32 1110.1,-1163.95 "/>
<polyline clip-path="url(#clip601)" style="stroke:#800080; stroke-linecap:round; stroke-linejoin:round; stroke-width:4; stroke-opacity:1; fill:none" points="299.008,1374.46 332.804,1174.17 366.599,1005.61 400.395,863.727 434.19,744.27 467.985,643.696 501.781,559.033 535.576,487.794 569.372,427.896 603.167,377.591 636.962,335.413 670.758,300.131 704.553,270.708 738.349,246.275 772.144,226.098 805.94,209.557 839.735,196.133 873.53,185.386 907.326,176.944 941.121,170.495 974.917,165.774 1008.71,162.557 1042.51,160.655 1076.3,159.909 1110.1,160.182 1143.89,161.362 1177.69,163.351 1211.48,166.068 1245.28,169.444 1279.08,173.42 1312.87,177.946 1346.67,182.979 1380.46,188.481 1414.26,194.42 1448.05,200.764 1481.85,207.485 1515.64,214.556 1549.44,221.953 1583.23,229.649 1617.03,237.622 1650.83,245.847 1684.62,254.301 1718.42,262.964 1752.21,271.814 1786.01,280.832 1819.8,290 1853.6,299.3 1887.39,308.718 1921.19,318.239 1954.98,327.85 1988.78,337.541 2022.57,347.3 2056.37,357.119 2090.17,366.991 2123.96,376.907 2157.76,386.863 2191.55,396.852 2225.35,406.87 2259.14,416.913 2292.94,426.978 "/>
<polyline clip-path="url(#clip601)" style="stroke:#800080; stroke-linecap:round; stroke-linejoin:round; stroke-width:4; stroke-opacity:1; fill:none" stroke-dasharray="16, 10" points="1076.3,2698.32 1076.3,-1163.95 "/>
<path clip-path="url(#clip600)" d="M1235.65 1367.98 L2282.3 1367.98 L2282.3 1108.78 L1235.65 1108.78  Z" fill="#ffffff" fill-rule="evenodd" fill-opacity="1"/>
<polyline clip-path="url(#clip600)" style="stroke:#000000; stroke-linecap:round; stroke-linejoin:round; stroke-width:4; stroke-opacity:1; fill:none" points="1235.65,1367.98 2282.3,1367.98 2282.3,1108.78 1235.65,1108.78 1235.65,1367.98 "/>
<polyline clip-path="url(#clip600)" style="stroke:#009af9; stroke-linecap:round; stroke-linejoin:round; stroke-width:4; stroke-opacity:1; fill:none" points="1259.13,1160.62 1400.04,1160.62 "/>
<path clip-path="url(#clip600)" d="M1428.2 1147.19 L1428.2 1160.17 L1434.08 1160.17 Q1437.34 1160.17 1439.12 1158.48 Q1440.91 1156.79 1440.91 1153.67 Q1440.91 1150.56 1439.12 1148.87 Q1437.34 1147.19 1434.08 1147.19 L1428.2 1147.19 M1423.52 1143.34 L1434.08 1143.34 Q1439.89 1143.34 1442.85 1145.98 Q1445.84 1148.6 1445.84 1153.67 Q1445.84 1158.78 1442.85 1161.4 Q1439.89 1164.01 1434.08 1164.01 L1428.2 1164.01 L1428.2 1177.9 L1423.52 1177.9 L1423.52 1143.34 Z" fill="#000000" fill-rule="nonzero" fill-opacity="1" /><path clip-path="url(#clip600)" d="M1452.11 1143.34 L1471.97 1143.34 L1471.97 1147.28 L1456.79 1147.28 L1456.79 1157.46 L1470.49 1157.46 L1470.49 1161.4 L1456.79 1161.4 L1456.79 1177.9 L1452.11 1177.9 L1452.11 1143.34 Z" fill="#000000" fill-rule="nonzero" fill-opacity="1" /><polyline clip-path="url(#clip600)" style="stroke:#008000; stroke-linecap:round; stroke-linejoin:round; stroke-width:4; stroke-opacity:1; fill:none" points="1259.13,1212.46 1400.04,1212.46 "/>
<path clip-path="url(#clip600)" d="M1439.36 1199.79 L1433.01 1216.99 L1445.72 1216.99 L1439.36 1199.79 M1436.72 1195.18 L1442.02 1195.18 L1455.19 1229.74 L1450.33 1229.74 L1447.18 1220.88 L1431.6 1220.88 L1428.45 1229.74 L1423.52 1229.74 L1436.72 1195.18 Z" fill="#000000" fill-rule="nonzero" fill-opacity="1" /><path clip-path="url(#clip600)" d="M1459.7 1195.18 L1464.4 1195.18 L1464.4 1216.18 Q1464.4 1221.73 1466.42 1224.19 Q1468.43 1226.62 1472.94 1226.62 Q1477.43 1226.62 1479.45 1224.19 Q1481.46 1221.73 1481.46 1216.18 L1481.46 1195.18 L1486.16 1195.18 L1486.16 1216.76 Q1486.16 1223.52 1482.81 1226.96 Q1479.47 1230.41 1472.94 1230.41 Q1466.39 1230.41 1463.04 1226.96 Q1459.7 1223.52 1459.7 1216.76 L1459.7 1195.18 Z" fill="#000000" fill-rule="nonzero" fill-opacity="1" /><path clip-path="url(#clip600)" d="M1493.27 1195.18 L1498.29 1195.18 L1506.88 1208.03 L1515.51 1195.18 L1520.54 1195.18 L1509.43 1211.78 L1521.28 1229.74 L1516.25 1229.74 L1506.53 1215.04 L1496.74 1229.74 L1491.69 1229.74 L1504.03 1211.29 L1493.27 1195.18 Z" fill="#000000" fill-rule="nonzero" fill-opacity="1" /><path clip-path="url(#clip600)" d="M1547.16 1199.03 L1547.16 1212.01 L1553.04 1212.01 Q1556.3 1212.01 1558.08 1210.32 Q1559.87 1208.63 1559.87 1205.51 Q1559.87 1202.4 1558.08 1200.71 Q1556.3 1199.03 1553.04 1199.03 L1547.16 1199.03 M1542.48 1195.18 L1553.04 1195.18 Q1558.85 1195.18 1561.81 1197.82 Q1564.8 1200.44 1564.8 1205.51 Q1564.8 1210.62 1561.81 1213.24 Q1558.85 1215.85 1553.04 1215.85 L1547.16 1215.85 L1547.16 1229.74 L1542.48 1229.74 L1542.48 1195.18 Z" fill="#000000" fill-rule="nonzero" fill-opacity="1" /><path clip-path="url(#clip600)" d="M1571.07 1195.18 L1590.93 1195.18 L1590.93 1199.12 L1575.74 1199.12 L1575.74 1209.3 L1589.45 1209.3 L1589.45 1213.24 L1575.74 1213.24 L1575.74 1229.74 L1571.07 1229.74 L1571.07 1195.18 Z" fill="#000000" fill-rule="nonzero" fill-opacity="1" /><polyline clip-path="url(#clip600)" style="stroke:#ff0000; stroke-linecap:round; stroke-linejoin:round; stroke-width:4; stroke-opacity:1; fill:none" points="1259.13,1264.3 1400.04,1264.3 "/>
<path clip-path="url(#clip600)" d="M1423.52 1247.02 L1428.2 1247.02 L1428.2 1261.63 L1443.71 1247.02 L1449.73 1247.02 L1432.57 1263.13 L1450.95 1281.58 L1444.8 1281.58 L1428.2 1264.94 L1428.2 1281.58 L1423.52 1281.58 L1423.52 1247.02 Z" fill="#000000" fill-rule="nonzero" fill-opacity="1" /><path clip-path="url(#clip600)" d="M1465.37 1268.55 Q1460.21 1268.55 1458.22 1269.73 Q1456.23 1270.91 1456.23 1273.76 Q1456.23 1276.03 1457.71 1277.37 Q1459.22 1278.69 1461.79 1278.69 Q1465.33 1278.69 1467.46 1276.19 Q1469.61 1273.67 1469.61 1269.5 L1469.61 1268.55 L1465.37 1268.55 M1473.87 1266.79 L1473.87 1281.58 L1469.61 1281.58 L1469.61 1277.65 Q1468.15 1280.01 1465.98 1281.14 Q1463.8 1282.25 1460.65 1282.25 Q1456.67 1282.25 1454.31 1280.03 Q1451.97 1277.79 1451.97 1274.04 Q1451.97 1269.66 1454.89 1267.44 Q1457.83 1265.22 1463.64 1265.22 L1469.61 1265.22 L1469.61 1264.8 Q1469.61 1261.86 1467.67 1260.26 Q1465.75 1258.64 1462.25 1258.64 Q1460.03 1258.64 1457.92 1259.18 Q1455.81 1259.71 1453.87 1260.77 L1453.87 1256.84 Q1456.21 1255.93 1458.41 1255.49 Q1460.61 1255.03 1462.69 1255.03 Q1468.31 1255.03 1471.09 1257.95 Q1473.87 1260.87 1473.87 1266.79 Z" fill="#000000" fill-rule="nonzero" fill-opacity="1" /><path clip-path="url(#clip600)" d="M1482.64 1245.56 L1486.9 1245.56 L1486.9 1281.58 L1482.64 1281.58 L1482.64 1245.56 Z" fill="#000000" fill-rule="nonzero" fill-opacity="1" /><path clip-path="url(#clip600)" d="M1516 1260.63 Q1517.6 1257.76 1519.82 1256.4 Q1522.04 1255.03 1525.05 1255.03 Q1529.1 1255.03 1531.3 1257.88 Q1533.5 1260.7 1533.5 1265.93 L1533.5 1281.58 L1529.22 1281.58 L1529.22 1266.07 Q1529.22 1262.35 1527.9 1260.54 Q1526.58 1258.74 1523.87 1258.74 Q1520.56 1258.74 1518.64 1260.93 Q1516.72 1263.13 1516.72 1266.93 L1516.72 1281.58 L1512.43 1281.58 L1512.43 1266.07 Q1512.43 1262.32 1511.12 1260.54 Q1509.8 1258.74 1507.04 1258.74 Q1503.78 1258.74 1501.86 1260.96 Q1499.93 1263.16 1499.93 1266.93 L1499.93 1281.58 L1495.65 1281.58 L1495.65 1255.66 L1499.93 1255.66 L1499.93 1259.68 Q1501.39 1257.3 1503.43 1256.17 Q1505.47 1255.03 1508.27 1255.03 Q1511.09 1255.03 1513.06 1256.47 Q1515.05 1257.9 1516 1260.63 Z" fill="#000000" fill-rule="nonzero" fill-opacity="1" /><path clip-path="url(#clip600)" d="M1553.78 1268.55 Q1548.62 1268.55 1546.62 1269.73 Q1544.63 1270.91 1544.63 1273.76 Q1544.63 1276.03 1546.12 1277.37 Q1547.62 1278.69 1550.19 1278.69 Q1553.73 1278.69 1555.86 1276.19 Q1558.01 1273.67 1558.01 1269.5 L1558.01 1268.55 L1553.78 1268.55 M1562.27 1266.79 L1562.27 1281.58 L1558.01 1281.58 L1558.01 1277.65 Q1556.55 1280.01 1554.38 1281.14 Q1552.2 1282.25 1549.05 1282.25 Q1545.07 1282.25 1542.71 1280.03 Q1540.37 1277.79 1540.37 1274.04 Q1540.37 1269.66 1543.29 1267.44 Q1546.23 1265.22 1552.04 1265.22 L1558.01 1265.22 L1558.01 1264.8 Q1558.01 1261.86 1556.07 1260.26 Q1554.15 1258.64 1550.65 1258.64 Q1548.43 1258.64 1546.32 1259.18 Q1544.22 1259.71 1542.27 1260.77 L1542.27 1256.84 Q1544.61 1255.93 1546.81 1255.49 Q1549.01 1255.03 1551.09 1255.03 Q1556.72 1255.03 1559.49 1257.95 Q1562.27 1260.87 1562.27 1266.79 Z" fill="#000000" fill-rule="nonzero" fill-opacity="1" /><path clip-path="url(#clip600)" d="M1592.6 1265.93 L1592.6 1281.58 L1588.34 1281.58 L1588.34 1266.07 Q1588.34 1262.39 1586.9 1260.56 Q1585.47 1258.74 1582.6 1258.74 Q1579.15 1258.74 1577.16 1260.93 Q1575.17 1263.13 1575.17 1266.93 L1575.17 1281.58 L1570.88 1281.58 L1570.88 1255.66 L1575.17 1255.66 L1575.17 1259.68 Q1576.69 1257.35 1578.75 1256.19 Q1580.84 1255.03 1583.55 1255.03 Q1588.01 1255.03 1590.3 1257.81 Q1592.6 1260.56 1592.6 1265.93 Z" fill="#000000" fill-rule="nonzero" fill-opacity="1" /><polyline clip-path="url(#clip600)" style="stroke:#800080; stroke-linecap:round; stroke-linejoin:round; stroke-width:4; stroke-opacity:1; fill:none" points="1259.13,1316.14 1400.04,1316.14 "/>
<path clip-path="url(#clip600)" d="M1423.52 1298.86 L1428.2 1298.86 L1428.2 1313.47 L1443.71 1298.86 L1449.73 1298.86 L1432.57 1314.97 L1450.95 1333.42 L1444.8 1333.42 L1428.2 1316.78 L1428.2 1333.42 L1423.52 1333.42 L1423.52 1298.86 Z" fill="#000000" fill-rule="nonzero" fill-opacity="1" /><path clip-path="url(#clip600)" d="M1465.37 1320.39 Q1460.21 1320.39 1458.22 1321.57 Q1456.23 1322.75 1456.23 1325.6 Q1456.23 1327.87 1457.71 1329.21 Q1459.22 1330.53 1461.79 1330.53 Q1465.33 1330.53 1467.46 1328.03 Q1469.61 1325.51 1469.61 1321.34 L1469.61 1320.39 L1465.37 1320.39 M1473.87 1318.63 L1473.87 1333.42 L1469.61 1333.42 L1469.61 1329.49 Q1468.15 1331.85 1465.98 1332.98 Q1463.8 1334.09 1460.65 1334.09 Q1456.67 1334.09 1454.31 1331.87 Q1451.97 1329.63 1451.97 1325.88 Q1451.97 1321.5 1454.89 1319.28 Q1457.83 1317.06 1463.64 1317.06 L1469.61 1317.06 L1469.61 1316.64 Q1469.61 1313.7 1467.67 1312.1 Q1465.75 1310.48 1462.25 1310.48 Q1460.03 1310.48 1457.92 1311.02 Q1455.81 1311.55 1453.87 1312.61 L1453.87 1308.68 Q1456.21 1307.77 1458.41 1307.33 Q1460.61 1306.87 1462.69 1306.87 Q1468.31 1306.87 1471.09 1309.79 Q1473.87 1312.71 1473.87 1318.63 Z" fill="#000000" fill-rule="nonzero" fill-opacity="1" /><path clip-path="url(#clip600)" d="M1482.64 1297.4 L1486.9 1297.4 L1486.9 1333.42 L1482.64 1333.42 L1482.64 1297.4 Z" fill="#000000" fill-rule="nonzero" fill-opacity="1" /><path clip-path="url(#clip600)" d="M1516 1312.47 Q1517.6 1309.6 1519.82 1308.24 Q1522.04 1306.87 1525.05 1306.87 Q1529.1 1306.87 1531.3 1309.72 Q1533.5 1312.54 1533.5 1317.77 L1533.5 1333.42 L1529.22 1333.42 L1529.22 1317.91 Q1529.22 1314.19 1527.9 1312.38 Q1526.58 1310.58 1523.87 1310.58 Q1520.56 1310.58 1518.64 1312.77 Q1516.72 1314.97 1516.72 1318.77 L1516.72 1333.42 L1512.43 1333.42 L1512.43 1317.91 Q1512.43 1314.16 1511.12 1312.38 Q1509.8 1310.58 1507.04 1310.58 Q1503.78 1310.58 1501.86 1312.8 Q1499.93 1315 1499.93 1318.77 L1499.93 1333.42 L1495.65 1333.42 L1495.65 1307.5 L1499.93 1307.5 L1499.93 1311.52 Q1501.39 1309.14 1503.43 1308.01 Q1505.47 1306.87 1508.27 1306.87 Q1511.09 1306.87 1513.06 1308.31 Q1515.05 1309.74 1516 1312.47 Z" fill="#000000" fill-rule="nonzero" fill-opacity="1" /><path clip-path="url(#clip600)" d="M1553.78 1320.39 Q1548.62 1320.39 1546.62 1321.57 Q1544.63 1322.75 1544.63 1325.6 Q1544.63 1327.87 1546.12 1329.21 Q1547.62 1330.53 1550.19 1330.53 Q1553.73 1330.53 1555.86 1328.03 Q1558.01 1325.51 1558.01 1321.34 L1558.01 1320.39 L1553.78 1320.39 M1562.27 1318.63 L1562.27 1333.42 L1558.01 1333.42 L1558.01 1329.49 Q1556.55 1331.85 1554.38 1332.98 Q1552.2 1334.09 1549.05 1334.09 Q1545.07 1334.09 1542.71 1331.87 Q1540.37 1329.63 1540.37 1325.88 Q1540.37 1321.5 1543.29 1319.28 Q1546.23 1317.06 1552.04 1317.06 L1558.01 1317.06 L1558.01 1316.64 Q1558.01 1313.7 1556.07 1312.1 Q1554.15 1310.48 1550.65 1310.48 Q1548.43 1310.48 1546.32 1311.02 Q1544.22 1311.55 1542.27 1312.61 L1542.27 1308.68 Q1544.61 1307.77 1546.81 1307.33 Q1549.01 1306.87 1551.09 1306.87 Q1556.72 1306.87 1559.49 1309.79 Q1562.27 1312.71 1562.27 1318.63 Z" fill="#000000" fill-rule="nonzero" fill-opacity="1" /><path clip-path="url(#clip600)" d="M1592.6 1317.77 L1592.6 1333.42 L1588.34 1333.42 L1588.34 1317.91 Q1588.34 1314.23 1586.9 1312.4 Q1585.47 1310.58 1582.6 1310.58 Q1579.15 1310.58 1577.16 1312.77 Q1575.17 1314.97 1575.17 1318.77 L1575.17 1333.42 L1570.88 1333.42 L1570.88 1307.5 L1575.17 1307.5 L1575.17 1311.52 Q1576.69 1309.19 1578.75 1308.03 Q1580.84 1306.87 1583.55 1306.87 Q1588.01 1306.87 1590.3 1309.65 Q1592.6 1312.4 1592.6 1317.77 Z" fill="#000000" fill-rule="nonzero" fill-opacity="1" /><path clip-path="url(#clip600)" d="M1613.68 1307.5 L1617.94 1307.5 L1623.27 1327.73 L1628.57 1307.5 L1633.59 1307.5 L1638.92 1327.73 L1644.22 1307.5 L1648.48 1307.5 L1641.69 1333.42 L1636.67 1333.42 L1631.09 1312.17 L1625.49 1333.42 L1620.47 1333.42 L1613.68 1307.5 Z" fill="#000000" fill-rule="nonzero" fill-opacity="1" /><path clip-path="url(#clip600)" d="M1654.93 1307.5 L1659.19 1307.5 L1659.19 1333.42 L1654.93 1333.42 L1654.93 1307.5 M1654.93 1297.4 L1659.19 1297.4 L1659.19 1302.8 L1654.93 1302.8 L1654.93 1297.4 Z" fill="#000000" fill-rule="nonzero" fill-opacity="1" /><path clip-path="url(#clip600)" d="M1672.32 1300.14 L1672.32 1307.5 L1681.09 1307.5 L1681.09 1310.81 L1672.32 1310.81 L1672.32 1324.88 Q1672.32 1328.05 1673.17 1328.95 Q1674.05 1329.86 1676.72 1329.86 L1681.09 1329.86 L1681.09 1333.42 L1676.72 1333.42 Q1671.79 1333.42 1669.91 1331.59 Q1668.04 1329.74 1668.04 1324.88 L1668.04 1310.81 L1664.91 1310.81 L1664.91 1307.5 L1668.04 1307.5 L1668.04 1300.14 L1672.32 1300.14 Z" fill="#000000" fill-rule="nonzero" fill-opacity="1" /><path clip-path="url(#clip600)" d="M1708.24 1317.77 L1708.24 1333.42 L1703.98 1333.42 L1703.98 1317.91 Q1703.98 1314.23 1702.55 1312.4 Q1701.11 1310.58 1698.24 1310.58 Q1694.79 1310.58 1692.8 1312.77 Q1690.81 1314.97 1690.81 1318.77 L1690.81 1333.42 L1686.53 1333.42 L1686.53 1297.4 L1690.81 1297.4 L1690.81 1311.52 Q1692.34 1309.19 1694.4 1308.03 Q1696.48 1306.87 1699.19 1306.87 Q1703.66 1306.87 1705.95 1309.65 Q1708.24 1312.4 1708.24 1317.77 Z" fill="#000000" fill-rule="nonzero" fill-opacity="1" /><path clip-path="url(#clip600)" d="M1731.65 1297.4 L1735.93 1297.4 L1735.93 1318.68 L1748.64 1307.5 L1754.08 1307.5 L1740.33 1319.63 L1754.66 1333.42 L1749.1 1333.42 L1735.93 1320.76 L1735.93 1333.42 L1731.65 1333.42 L1731.65 1297.4 Z" fill="#000000" fill-rule="nonzero" fill-opacity="1" /><path clip-path="url(#clip600)" d="M1780.81 1317.77 L1780.81 1333.42 L1776.55 1333.42 L1776.55 1317.91 Q1776.55 1314.23 1775.12 1312.4 Q1773.68 1310.58 1770.81 1310.58 Q1767.36 1310.58 1765.37 1312.77 Q1763.38 1314.97 1763.38 1318.77 L1763.38 1333.42 L1759.1 1333.42 L1759.1 1307.5 L1763.38 1307.5 L1763.38 1311.52 Q1764.91 1309.19 1766.97 1308.03 Q1769.05 1306.87 1771.76 1306.87 Q1776.23 1306.87 1778.52 1309.65 Q1780.81 1312.4 1780.81 1317.77 Z" fill="#000000" fill-rule="nonzero" fill-opacity="1" /><path clip-path="url(#clip600)" d="M1799.35 1310.48 Q1795.93 1310.48 1793.94 1313.17 Q1791.95 1315.83 1791.95 1320.48 Q1791.95 1325.14 1793.91 1327.82 Q1795.91 1330.48 1799.35 1330.48 Q1802.76 1330.48 1804.75 1327.8 Q1806.74 1325.11 1806.74 1320.48 Q1806.74 1315.88 1804.75 1313.19 Q1802.76 1310.48 1799.35 1310.48 M1799.35 1306.87 Q1804.91 1306.87 1808.08 1310.48 Q1811.25 1314.09 1811.25 1320.48 Q1811.25 1326.85 1808.08 1330.48 Q1804.91 1334.09 1799.35 1334.09 Q1793.78 1334.09 1790.6 1330.48 Q1787.46 1326.85 1787.46 1320.48 Q1787.46 1314.09 1790.6 1310.48 Q1793.78 1306.87 1799.35 1306.87 Z" fill="#000000" fill-rule="nonzero" fill-opacity="1" /><path clip-path="url(#clip600)" d="M1815.84 1307.5 L1820.1 1307.5 L1825.42 1327.73 L1830.72 1307.5 L1835.74 1307.5 L1841.07 1327.73 L1846.37 1307.5 L1850.63 1307.5 L1843.85 1333.42 L1838.82 1333.42 L1833.24 1312.17 L1827.64 1333.42 L1822.62 1333.42 L1815.84 1307.5 Z" fill="#000000" fill-rule="nonzero" fill-opacity="1" /><path clip-path="url(#clip600)" d="M1878.64 1317.77 L1878.64 1333.42 L1874.38 1333.42 L1874.38 1317.91 Q1874.38 1314.23 1872.94 1312.4 Q1871.51 1310.58 1868.64 1310.58 Q1865.19 1310.58 1863.2 1312.77 Q1861.21 1314.97 1861.21 1318.77 L1861.21 1333.42 L1856.92 1333.42 L1856.92 1307.5 L1861.21 1307.5 L1861.21 1311.52 Q1862.73 1309.19 1864.79 1308.03 Q1866.88 1306.87 1869.59 1306.87 Q1874.05 1306.87 1876.34 1309.65 Q1878.64 1312.4 1878.64 1317.77 Z" fill="#000000" fill-rule="nonzero" fill-opacity="1" /><path clip-path="url(#clip600)" d="M1918.73 1308.26 L1918.73 1312.29 Q1916.92 1311.36 1914.98 1310.9 Q1913.03 1310.44 1910.95 1310.44 Q1907.78 1310.44 1906.18 1311.41 Q1904.61 1312.38 1904.61 1314.33 Q1904.61 1315.81 1905.74 1316.66 Q1906.88 1317.5 1910.3 1318.26 L1911.76 1318.58 Q1916.3 1319.56 1918.2 1321.34 Q1920.12 1323.1 1920.12 1326.27 Q1920.12 1329.88 1917.25 1331.99 Q1914.4 1334.09 1909.4 1334.09 Q1907.32 1334.09 1905.05 1333.68 Q1902.8 1333.28 1900.3 1332.47 L1900.3 1328.08 Q1902.66 1329.3 1904.96 1329.93 Q1907.25 1330.53 1909.49 1330.53 Q1912.5 1330.53 1914.12 1329.51 Q1915.74 1328.47 1915.74 1326.59 Q1915.74 1324.86 1914.56 1323.93 Q1913.4 1323.01 1909.45 1322.15 L1907.97 1321.8 Q1904.01 1320.97 1902.25 1319.26 Q1900.49 1317.52 1900.49 1314.51 Q1900.49 1310.85 1903.08 1308.86 Q1905.67 1306.87 1910.44 1306.87 Q1912.8 1306.87 1914.89 1307.22 Q1916.97 1307.57 1918.73 1308.26 Z" fill="#000000" fill-rule="nonzero" fill-opacity="1" /><path clip-path="url(#clip600)" d="M1931.11 1300.14 L1931.11 1307.5 L1939.89 1307.5 L1939.89 1310.81 L1931.11 1310.81 L1931.11 1324.88 Q1931.11 1328.05 1931.97 1328.95 Q1932.85 1329.86 1935.51 1329.86 L1939.89 1329.86 L1939.89 1333.42 L1935.51 1333.42 Q1930.58 1333.42 1928.71 1331.59 Q1926.83 1329.74 1926.83 1324.88 L1926.83 1310.81 L1923.71 1310.81 L1923.71 1307.5 L1926.83 1307.5 L1926.83 1300.14 L1931.11 1300.14 Z" fill="#000000" fill-rule="nonzero" fill-opacity="1" /><path clip-path="url(#clip600)" d="M1957.27 1320.39 Q1952.11 1320.39 1950.12 1321.57 Q1948.13 1322.75 1948.13 1325.6 Q1948.13 1327.87 1949.61 1329.21 Q1951.11 1330.53 1953.68 1330.53 Q1957.22 1330.53 1959.35 1328.03 Q1961.51 1325.51 1961.51 1321.34 L1961.51 1320.39 L1957.27 1320.39 M1965.77 1318.63 L1965.77 1333.42 L1961.51 1333.42 L1961.51 1329.49 Q1960.05 1331.85 1957.87 1332.98 Q1955.7 1334.09 1952.55 1334.09 Q1948.57 1334.09 1946.21 1331.87 Q1943.87 1329.63 1943.87 1325.88 Q1943.87 1321.5 1946.78 1319.28 Q1949.72 1317.06 1955.53 1317.06 L1961.51 1317.06 L1961.51 1316.64 Q1961.51 1313.7 1959.56 1312.1 Q1957.64 1310.48 1954.15 1310.48 Q1951.92 1310.48 1949.82 1311.02 Q1947.71 1311.55 1945.77 1312.61 L1945.77 1308.68 Q1948.1 1307.77 1950.3 1307.33 Q1952.5 1306.87 1954.59 1306.87 Q1960.21 1306.87 1962.99 1309.79 Q1965.77 1312.71 1965.77 1318.63 Z" fill="#000000" fill-rule="nonzero" fill-opacity="1" /><path clip-path="url(#clip600)" d="M1978.75 1300.14 L1978.75 1307.5 L1987.52 1307.5 L1987.52 1310.81 L1978.75 1310.81 L1978.75 1324.88 Q1978.75 1328.05 1979.61 1328.95 Q1980.49 1329.86 1983.15 1329.86 L1987.52 1329.86 L1987.52 1333.42 L1983.15 1333.42 Q1978.22 1333.42 1976.34 1331.59 Q1974.47 1329.74 1974.47 1324.88 L1974.47 1310.81 L1971.34 1310.81 L1971.34 1307.5 L1974.47 1307.5 L1974.47 1300.14 L1978.75 1300.14 Z" fill="#000000" fill-rule="nonzero" fill-opacity="1" /><path clip-path="url(#clip600)" d="M2015.3 1319.39 L2015.3 1321.48 L1995.72 1321.48 Q1996 1325.88 1998.36 1328.19 Q2000.74 1330.48 2004.98 1330.48 Q2007.43 1330.48 2009.72 1329.88 Q2012.04 1329.28 2014.31 1328.08 L2014.31 1332.1 Q2012.02 1333.08 2009.61 1333.58 Q2007.2 1334.09 2004.72 1334.09 Q1998.52 1334.09 1994.89 1330.48 Q1991.27 1326.87 1991.27 1320.71 Q1991.27 1314.35 1994.7 1310.62 Q1998.15 1306.87 2003.98 1306.87 Q2009.21 1306.87 2012.25 1310.25 Q2015.3 1313.61 2015.3 1319.39 M2011.04 1318.14 Q2011 1314.65 2009.08 1312.57 Q2007.18 1310.48 2004.03 1310.48 Q2000.46 1310.48 1998.31 1312.5 Q1996.18 1314.51 1995.86 1318.17 L2011.04 1318.14 Z" fill="#000000" fill-rule="nonzero" fill-opacity="1" /><path clip-path="url(#clip600)" d="M2053.89 1308.26 L2053.89 1312.29 Q2052.08 1311.36 2050.14 1310.9 Q2048.2 1310.44 2046.11 1310.44 Q2042.94 1310.44 2041.34 1311.41 Q2039.77 1312.38 2039.77 1314.33 Q2039.77 1315.81 2040.9 1316.66 Q2042.04 1317.5 2045.46 1318.26 L2046.92 1318.58 Q2051.46 1319.56 2053.36 1321.34 Q2055.28 1323.1 2055.28 1326.27 Q2055.28 1329.88 2052.41 1331.99 Q2049.56 1334.09 2044.56 1334.09 Q2042.48 1334.09 2040.21 1333.68 Q2037.96 1333.28 2035.46 1332.47 L2035.46 1328.08 Q2037.83 1329.3 2040.12 1329.93 Q2042.41 1330.53 2044.65 1330.53 Q2047.66 1330.53 2049.28 1329.51 Q2050.9 1328.47 2050.9 1326.59 Q2050.9 1324.86 2049.72 1323.93 Q2048.57 1323.01 2044.61 1322.15 L2043.13 1321.8 Q2039.17 1320.97 2037.41 1319.26 Q2035.65 1317.52 2035.65 1314.51 Q2035.65 1310.85 2038.24 1308.86 Q2040.83 1306.87 2045.6 1306.87 Q2047.96 1306.87 2050.05 1307.22 Q2052.13 1307.57 2053.89 1308.26 Z" fill="#000000" fill-rule="nonzero" fill-opacity="1" /><path clip-path="url(#clip600)" d="M2084.24 1319.39 L2084.24 1321.48 L2064.65 1321.48 Q2064.93 1325.88 2067.29 1328.19 Q2069.68 1330.48 2073.91 1330.48 Q2076.37 1330.48 2078.66 1329.88 Q2080.97 1329.28 2083.24 1328.08 L2083.24 1332.1 Q2080.95 1333.08 2078.54 1333.58 Q2076.14 1334.09 2073.66 1334.09 Q2067.45 1334.09 2063.82 1330.48 Q2060.21 1326.87 2060.21 1320.71 Q2060.21 1314.35 2063.64 1310.62 Q2067.08 1306.87 2072.92 1306.87 Q2078.15 1306.87 2081.18 1310.25 Q2084.24 1313.61 2084.24 1319.39 M2079.98 1318.14 Q2079.93 1314.65 2078.01 1312.57 Q2076.11 1310.48 2072.96 1310.48 Q2069.4 1310.48 2067.25 1312.5 Q2065.12 1314.51 2064.79 1318.17 L2079.98 1318.14 Z" fill="#000000" fill-rule="nonzero" fill-opacity="1" /><path clip-path="url(#clip600)" d="M2093.77 1320.48 Q2093.77 1325.18 2095.7 1327.87 Q2097.64 1330.53 2101.02 1330.53 Q2104.4 1330.53 2106.34 1327.87 Q2108.29 1325.18 2108.29 1320.48 Q2108.29 1315.78 2106.34 1313.12 Q2104.4 1310.44 2101.02 1310.44 Q2097.64 1310.44 2095.7 1313.12 Q2093.77 1315.78 2093.77 1320.48 M2108.29 1329.53 Q2106.95 1331.85 2104.89 1332.98 Q2102.85 1334.09 2099.98 1334.09 Q2095.28 1334.09 2092.32 1330.34 Q2089.38 1326.59 2089.38 1320.48 Q2089.38 1314.37 2092.32 1310.62 Q2095.28 1306.87 2099.98 1306.87 Q2102.85 1306.87 2104.89 1308.01 Q2106.95 1309.12 2108.29 1311.43 L2108.29 1307.5 L2112.55 1307.5 L2112.55 1343.28 L2108.29 1343.28 L2108.29 1329.53 Z" fill="#000000" fill-rule="nonzero" fill-opacity="1" /><path clip-path="url(#clip600)" d="M2120.88 1323.19 L2120.88 1307.5 L2125.14 1307.5 L2125.14 1323.03 Q2125.14 1326.71 2126.57 1328.56 Q2128.01 1330.39 2130.88 1330.39 Q2134.33 1330.39 2136.32 1328.19 Q2138.33 1325.99 2138.33 1322.2 L2138.33 1307.5 L2142.59 1307.5 L2142.59 1333.42 L2138.33 1333.42 L2138.33 1329.44 Q2136.78 1331.8 2134.72 1332.96 Q2132.69 1334.09 2129.98 1334.09 Q2125.51 1334.09 2123.2 1331.32 Q2120.88 1328.54 2120.88 1323.19 M2131.6 1306.87 L2131.6 1306.87 Z" fill="#000000" fill-rule="nonzero" fill-opacity="1" /><path clip-path="url(#clip600)" d="M2173.54 1319.39 L2173.54 1321.48 L2153.96 1321.48 Q2154.24 1325.88 2156.6 1328.19 Q2158.98 1330.48 2163.22 1330.48 Q2165.67 1330.48 2167.96 1329.88 Q2170.28 1329.28 2172.55 1328.08 L2172.55 1332.1 Q2170.26 1333.08 2167.85 1333.58 Q2165.44 1334.09 2162.96 1334.09 Q2156.76 1334.09 2153.13 1330.48 Q2149.51 1326.87 2149.51 1320.71 Q2149.51 1314.35 2152.94 1310.62 Q2156.39 1306.87 2162.22 1306.87 Q2167.45 1306.87 2170.49 1310.25 Q2173.54 1313.61 2173.54 1319.39 M2169.28 1318.14 Q2169.24 1314.65 2167.32 1312.57 Q2165.42 1310.48 2162.27 1310.48 Q2158.7 1310.48 2156.55 1312.5 Q2154.42 1314.51 2154.1 1318.17 L2169.28 1318.14 Z" fill="#000000" fill-rule="nonzero" fill-opacity="1" /><path clip-path="url(#clip600)" d="M2202.08 1317.77 L2202.08 1333.42 L2197.82 1333.42 L2197.82 1317.91 Q2197.82 1314.23 2196.39 1312.4 Q2194.95 1310.58 2192.08 1310.58 Q2188.63 1310.58 2186.64 1312.77 Q2184.65 1314.97 2184.65 1318.77 L2184.65 1333.42 L2180.37 1333.42 L2180.37 1307.5 L2184.65 1307.5 L2184.65 1311.52 Q2186.18 1309.19 2188.24 1308.03 Q2190.32 1306.87 2193.03 1306.87 Q2197.5 1306.87 2199.79 1309.65 Q2202.08 1312.4 2202.08 1317.77 Z" fill="#000000" fill-rule="nonzero" fill-opacity="1" /><path clip-path="url(#clip600)" d="M2229.24 1308.49 L2229.24 1312.47 Q2227.43 1311.48 2225.6 1310.99 Q2223.8 1310.48 2221.94 1310.48 Q2217.8 1310.48 2215.51 1313.12 Q2213.22 1315.74 2213.22 1320.48 Q2213.22 1325.23 2215.51 1327.87 Q2217.8 1330.48 2221.94 1330.48 Q2223.8 1330.48 2225.6 1330 Q2227.43 1329.49 2229.24 1328.49 L2229.24 1332.43 Q2227.45 1333.26 2225.53 1333.68 Q2223.63 1334.09 2221.48 1334.09 Q2215.63 1334.09 2212.18 1330.41 Q2208.73 1326.73 2208.73 1320.48 Q2208.73 1314.14 2212.2 1310.51 Q2215.69 1306.87 2221.76 1306.87 Q2223.73 1306.87 2225.6 1307.29 Q2227.48 1307.68 2229.24 1308.49 Z" fill="#000000" fill-rule="nonzero" fill-opacity="1" /><path clip-path="url(#clip600)" d="M2258.82 1319.39 L2258.82 1321.48 L2239.24 1321.48 Q2239.51 1325.88 2241.88 1328.19 Q2244.26 1330.48 2248.5 1330.48 Q2250.95 1330.48 2253.24 1329.88 Q2255.56 1329.28 2257.82 1328.08 L2257.82 1332.1 Q2255.53 1333.08 2253.13 1333.58 Q2250.72 1334.09 2248.24 1334.09 Q2242.04 1334.09 2238.4 1330.48 Q2234.79 1326.87 2234.79 1320.71 Q2234.79 1314.35 2238.22 1310.62 Q2241.67 1306.87 2247.5 1306.87 Q2252.73 1306.87 2255.76 1310.25 Q2258.82 1313.61 2258.82 1319.39 M2254.56 1318.14 Q2254.51 1314.65 2252.59 1312.57 Q2250.69 1310.48 2247.55 1310.48 Q2243.98 1310.48 2241.83 1312.5 Q2239.7 1314.51 2239.38 1318.17 L2254.56 1318.14 Z" fill="#000000" fill-rule="nonzero" fill-opacity="1" /></svg>
