<?xml version="1.0" encoding="utf-8"?>
<svg xmlns="http://www.w3.org/2000/svg" xmlns:xlink="http://www.w3.org/1999/xlink" width="600" height="400" viewBox="0 0 2400 1600">
<defs>
  <clipPath id="clip860">
    <rect x="0" y="0" width="2400" height="1600"/>
  </clipPath>
</defs>
<path clip-path="url(#clip860)" d="M0 1600 L2400 1600 L2400 0 L0 0  Z" fill="#ffffff" fill-rule="evenodd" fill-opacity="1"/>
<defs>
  <clipPath id="clip861">
    <rect x="140" y="47" width="2213" height="1440"/>
  </clipPath>
</defs>
<path clip-path="url(#clip860)" d="M140.51 1486.45 L2352.76 1486.45 L2352.76 47.2441 L140.51 47.2441  Z" fill="#ffffff" fill-rule="evenodd" fill-opacity="1"/>
<polyline clip-path="url(#clip861)" style="stroke:#000000; stroke-linecap:round; stroke-linejoin:round; stroke-width:2; stroke-opacity:0.1; fill:none" points="352.436,1486.45 352.436,47.2441 "/>
<polyline clip-path="url(#clip861)" style="stroke:#000000; stroke-linecap:round; stroke-linejoin:round; stroke-width:2; stroke-opacity:0.1; fill:none" points="786.329,1486.45 786.329,47.2441 "/>
<polyline clip-path="url(#clip861)" style="stroke:#000000; stroke-linecap:round; stroke-linejoin:round; stroke-width:2; stroke-opacity:0.1; fill:none" points="1220.22,1486.45 1220.22,47.2441 "/>
<polyline clip-path="url(#clip861)" style="stroke:#000000; stroke-linecap:round; stroke-linejoin:round; stroke-width:2; stroke-opacity:0.1; fill:none" points="1654.12,1486.45 1654.12,47.2441 "/>
<polyline clip-path="url(#clip861)" style="stroke:#000000; stroke-linecap:round; stroke-linejoin:round; stroke-width:2; stroke-opacity:0.1; fill:none" points="2088.01,1486.45 2088.01,47.2441 "/>
<polyline clip-path="url(#clip861)" style="stroke:#000000; stroke-linecap:round; stroke-linejoin:round; stroke-width:2; stroke-opacity:0.1; fill:none" points="140.51,1180.25 2352.76,1180.25 "/>
<polyline clip-path="url(#clip861)" style="stroke:#000000; stroke-linecap:round; stroke-linejoin:round; stroke-width:2; stroke-opacity:0.1; fill:none" points="140.51,872.522 2352.76,872.522 "/>
<polyline clip-path="url(#clip861)" style="stroke:#000000; stroke-linecap:round; stroke-linejoin:round; stroke-width:2; stroke-opacity:0.1; fill:none" points="140.51,564.797 2352.76,564.797 "/>
<polyline clip-path="url(#clip861)" style="stroke:#000000; stroke-linecap:round; stroke-linejoin:round; stroke-width:2; stroke-opacity:0.1; fill:none" points="140.51,257.071 2352.76,257.071 "/>
<polyline clip-path="url(#clip860)" style="stroke:#000000; stroke-linecap:round; stroke-linejoin:round; stroke-width:4; stroke-opacity:1; fill:none" points="140.51,1486.45 2352.76,1486.45 "/>
<polyline clip-path="url(#clip860)" style="stroke:#000000; stroke-linecap:round; stroke-linejoin:round; stroke-width:4; stroke-opacity:1; fill:none" points="352.436,1486.45 352.436,1467.55 "/>
<polyline clip-path="url(#clip860)" style="stroke:#000000; stroke-linecap:round; stroke-linejoin:round; stroke-width:4; stroke-opacity:1; fill:none" points="786.329,1486.45 786.329,1467.55 "/>
<polyline clip-path="url(#clip860)" style="stroke:#000000; stroke-linecap:round; stroke-linejoin:round; stroke-width:4; stroke-opacity:1; fill:none" points="1220.22,1486.45 1220.22,1467.55 "/>
<polyline clip-path="url(#clip860)" style="stroke:#000000; stroke-linecap:round; stroke-linejoin:round; stroke-width:4; stroke-opacity:1; fill:none" points="1654.12,1486.45 1654.12,1467.55 "/>
<polyline clip-path="url(#clip860)" style="stroke:#000000; stroke-linecap:round; stroke-linejoin:round; stroke-width:4; stroke-opacity:1; fill:none" points="2088.01,1486.45 2088.01,1467.55 "/>
<path clip-path="url(#clip860)" d="M306.499 1532.02 L336.174 1532.02 L336.174 1535.95 L306.499 1535.95 L306.499 1532.02 Z" fill="#000000" fill-rule="nonzero" fill-opacity="1" /><path clip-path="url(#clip860)" d="M360.433 1530.21 Q363.79 1530.93 365.665 1533.2 Q367.563 1535.47 367.563 1538.8 Q367.563 1543.92 364.045 1546.72 Q360.526 1549.52 354.045 1549.52 Q351.869 1549.52 349.554 1549.08 Q347.262 1548.66 344.809 1547.81 L344.809 1543.29 Q346.753 1544.43 349.068 1545.01 Q351.383 1545.58 353.906 1545.58 Q358.304 1545.58 360.596 1543.85 Q362.91 1542.11 362.91 1538.8 Q362.91 1535.75 360.758 1534.03 Q358.628 1532.3 354.809 1532.3 L350.781 1532.3 L350.781 1528.45 L354.994 1528.45 Q358.443 1528.45 360.271 1527.09 Q362.1 1525.7 362.1 1523.11 Q362.1 1520.45 360.202 1519.03 Q358.327 1517.6 354.809 1517.6 Q352.887 1517.6 350.688 1518.01 Q348.489 1518.43 345.85 1519.31 L345.85 1515.14 Q348.512 1514.4 350.827 1514.03 Q353.165 1513.66 355.225 1513.66 Q360.549 1513.66 363.651 1516.09 Q366.753 1518.5 366.753 1522.62 Q366.753 1525.49 365.109 1527.48 Q363.466 1529.45 360.433 1530.21 Z" fill="#000000" fill-rule="nonzero" fill-opacity="1" /><path clip-path="url(#clip860)" d="M386.429 1517.37 Q382.818 1517.37 380.989 1520.93 Q379.183 1524.47 379.183 1531.6 Q379.183 1538.71 380.989 1542.27 Q382.818 1545.82 386.429 1545.82 Q390.063 1545.82 391.868 1542.27 Q393.697 1538.71 393.697 1531.6 Q393.697 1524.47 391.868 1520.93 Q390.063 1517.37 386.429 1517.37 M386.429 1513.66 Q392.239 1513.66 395.294 1518.27 Q398.373 1522.85 398.373 1531.6 Q398.373 1540.33 395.294 1544.94 Q392.239 1549.52 386.429 1549.52 Q380.619 1549.52 377.54 1544.94 Q374.484 1540.33 374.484 1531.6 Q374.484 1522.85 377.54 1518.27 Q380.619 1513.66 386.429 1513.66 Z" fill="#000000" fill-rule="nonzero" fill-opacity="1" /><path clip-path="url(#clip860)" d="M786.329 1517.37 Q782.718 1517.37 780.889 1520.93 Q779.084 1524.47 779.084 1531.6 Q779.084 1538.71 780.889 1542.27 Q782.718 1545.82 786.329 1545.82 Q789.963 1545.82 791.769 1542.27 Q793.598 1538.71 793.598 1531.6 Q793.598 1524.47 791.769 1520.93 Q789.963 1517.37 786.329 1517.37 M786.329 1513.66 Q792.139 1513.66 795.195 1518.27 Q798.273 1522.85 798.273 1531.6 Q798.273 1540.33 795.195 1544.94 Q792.139 1549.52 786.329 1549.52 Q780.519 1549.52 777.44 1544.94 Q774.385 1540.33 774.385 1531.6 Q774.385 1522.85 777.44 1518.27 Q780.519 1513.66 786.329 1513.66 Z" fill="#000000" fill-rule="nonzero" fill-opacity="1" /><path clip-path="url(#clip860)" d="M1209.06 1530.21 Q1212.42 1530.93 1214.3 1533.2 Q1216.19 1535.47 1216.19 1538.8 Q1216.19 1543.92 1212.68 1546.72 Q1209.16 1549.52 1202.68 1549.52 Q1200.5 1549.52 1198.19 1549.08 Q1195.89 1548.66 1193.44 1547.81 L1193.44 1543.29 Q1195.38 1544.43 1197.7 1545.01 Q1200.01 1545.58 1202.54 1545.58 Q1206.94 1545.58 1209.23 1543.85 Q1211.54 1542.11 1211.54 1538.8 Q1211.54 1535.75 1209.39 1534.03 Q1207.26 1532.3 1203.44 1532.3 L1199.41 1532.3 L1199.41 1528.45 L1203.63 1528.45 Q1207.07 1528.45 1208.9 1527.09 Q1210.73 1525.7 1210.73 1523.11 Q1210.73 1520.45 1208.83 1519.03 Q1206.96 1517.6 1203.44 1517.6 Q1201.52 1517.6 1199.32 1518.01 Q1197.12 1518.43 1194.48 1519.31 L1194.48 1515.14 Q1197.14 1514.4 1199.46 1514.03 Q1201.8 1513.66 1203.86 1513.66 Q1209.18 1513.66 1212.28 1516.09 Q1215.38 1518.5 1215.38 1522.62 Q1215.38 1525.49 1213.74 1527.48 Q1212.1 1529.45 1209.06 1530.21 Z" fill="#000000" fill-rule="nonzero" fill-opacity="1" /><path clip-path="url(#clip860)" d="M1235.06 1517.37 Q1231.45 1517.37 1229.62 1520.93 Q1227.81 1524.47 1227.81 1531.6 Q1227.81 1538.71 1229.62 1542.27 Q1231.45 1545.82 1235.06 1545.82 Q1238.69 1545.82 1240.5 1542.27 Q1242.33 1538.71 1242.33 1531.6 Q1242.33 1524.47 1240.5 1520.93 Q1238.69 1517.37 1235.06 1517.37 M1235.06 1513.66 Q1240.87 1513.66 1243.93 1518.27 Q1247 1522.85 1247 1531.6 Q1247 1540.33 1243.93 1544.94 Q1240.87 1549.52 1235.06 1549.52 Q1229.25 1549.52 1226.17 1544.94 Q1223.12 1540.33 1223.12 1531.6 Q1223.12 1522.85 1226.17 1518.27 Q1229.25 1513.66 1235.06 1513.66 Z" fill="#000000" fill-rule="nonzero" fill-opacity="1" /><path clip-path="url(#clip860)" d="M1639.52 1529.7 Q1636.37 1529.7 1634.52 1531.86 Q1632.69 1534.01 1632.69 1537.76 Q1632.69 1541.49 1634.52 1543.66 Q1636.37 1545.82 1639.52 1545.82 Q1642.67 1545.82 1644.5 1543.66 Q1646.35 1541.49 1646.35 1537.76 Q1646.35 1534.01 1644.5 1531.86 Q1642.67 1529.7 1639.52 1529.7 M1648.8 1515.05 L1648.8 1519.31 Q1647.04 1518.48 1645.24 1518.04 Q1643.46 1517.6 1641.7 1517.6 Q1637.07 1517.6 1634.61 1520.72 Q1632.18 1523.85 1631.84 1530.17 Q1633.2 1528.15 1635.26 1527.09 Q1637.32 1526 1639.8 1526 Q1645.01 1526 1648.02 1529.17 Q1651.05 1532.32 1651.05 1537.76 Q1651.05 1543.08 1647.9 1546.3 Q1644.75 1549.52 1639.52 1549.52 Q1633.53 1549.52 1630.35 1544.94 Q1627.18 1540.33 1627.18 1531.6 Q1627.18 1523.41 1631.07 1518.55 Q1634.96 1513.66 1641.51 1513.66 Q1643.27 1513.66 1645.05 1514.01 Q1646.86 1514.36 1648.8 1515.05 Z" fill="#000000" fill-rule="nonzero" fill-opacity="1" /><path clip-path="url(#clip860)" d="M1669.1 1517.37 Q1665.49 1517.37 1663.66 1520.93 Q1661.86 1524.47 1661.86 1531.6 Q1661.86 1538.71 1663.66 1542.27 Q1665.49 1545.82 1669.1 1545.82 Q1672.74 1545.82 1674.54 1542.27 Q1676.37 1538.71 1676.37 1531.6 Q1676.37 1524.47 1674.54 1520.93 Q1672.74 1517.37 1669.1 1517.37 M1669.1 1513.66 Q1674.91 1513.66 1677.97 1518.27 Q1681.05 1522.85 1681.05 1531.6 Q1681.05 1540.33 1677.97 1544.94 Q1674.91 1549.52 1669.1 1549.52 Q1663.29 1549.52 1660.22 1544.94 Q1657.16 1540.33 1657.16 1531.6 Q1657.16 1522.85 1660.22 1518.27 Q1663.29 1513.66 1669.1 1513.66 Z" fill="#000000" fill-rule="nonzero" fill-opacity="1" /><path clip-path="url(#clip860)" d="M2063.14 1548.13 L2063.14 1543.87 Q2064.9 1544.7 2066.7 1545.14 Q2068.51 1545.58 2070.24 1545.58 Q2074.87 1545.58 2077.3 1542.48 Q2079.76 1539.36 2080.1 1533.01 Q2078.76 1535.01 2076.7 1536.07 Q2074.64 1537.13 2072.14 1537.13 Q2066.96 1537.13 2063.92 1534.01 Q2060.91 1530.86 2060.91 1525.42 Q2060.91 1520.1 2064.06 1516.88 Q2067.21 1513.66 2072.44 1513.66 Q2078.44 1513.66 2081.59 1518.27 Q2084.76 1522.85 2084.76 1531.6 Q2084.76 1539.77 2080.87 1544.66 Q2077 1549.52 2070.45 1549.52 Q2068.69 1549.52 2066.89 1549.17 Q2065.08 1548.82 2063.14 1548.13 M2072.44 1533.48 Q2075.59 1533.48 2077.42 1531.32 Q2079.27 1529.17 2079.27 1525.42 Q2079.27 1521.7 2077.42 1519.54 Q2075.59 1517.37 2072.44 1517.37 Q2069.29 1517.37 2067.44 1519.54 Q2065.61 1521.7 2065.61 1525.42 Q2065.61 1529.17 2067.44 1531.32 Q2069.29 1533.48 2072.44 1533.48 Z" fill="#000000" fill-rule="nonzero" fill-opacity="1" /><path clip-path="url(#clip860)" d="M2103.16 1517.37 Q2099.55 1517.37 2097.72 1520.93 Q2095.91 1524.47 2095.91 1531.6 Q2095.91 1538.71 2097.72 1542.27 Q2099.55 1545.82 2103.16 1545.82 Q2106.79 1545.82 2108.6 1542.27 Q2110.43 1538.71 2110.43 1531.6 Q2110.43 1524.47 2108.6 1520.93 Q2106.79 1517.37 2103.16 1517.37 M2103.16 1513.66 Q2108.97 1513.66 2112.02 1518.27 Q2115.1 1522.85 2115.1 1531.6 Q2115.1 1540.33 2112.02 1544.94 Q2108.97 1549.52 2103.16 1549.52 Q2097.35 1549.52 2094.27 1544.94 Q2091.21 1540.33 2091.21 1531.6 Q2091.21 1522.85 2094.27 1518.27 Q2097.35 1513.66 2103.16 1513.66 Z" fill="#000000" fill-rule="nonzero" fill-opacity="1" /><polyline clip-path="url(#clip860)" style="stroke:#000000; stroke-linecap:round; stroke-linejoin:round; stroke-width:4; stroke-opacity:1; fill:none" points="140.51,1486.45 140.51,47.2441 "/>
<polyline clip-path="url(#clip860)" style="stroke:#000000; stroke-linecap:round; stroke-linejoin:round; stroke-width:4; stroke-opacity:1; fill:none" points="140.51,1180.25 159.408,1180.25 "/>
<polyline clip-path="url(#clip860)" style="stroke:#000000; stroke-linecap:round; stroke-linejoin:round; stroke-width:4; stroke-opacity:1; fill:none" points="140.51,872.522 159.408,872.522 "/>
<polyline clip-path="url(#clip860)" style="stroke:#000000; stroke-linecap:round; stroke-linejoin:round; stroke-width:4; stroke-opacity:1; fill:none" points="140.51,564.797 159.408,564.797 "/>
<polyline clip-path="url(#clip860)" style="stroke:#000000; stroke-linecap:round; stroke-linejoin:round; stroke-width:4; stroke-opacity:1; fill:none" points="140.51,257.071 159.408,257.071 "/>
<path clip-path="url(#clip860)" d="M92.566 1166.05 Q88.9549 1166.05 87.1262 1169.61 Q85.3206 1173.15 85.3206 1180.28 Q85.3206 1187.39 87.1262 1190.95 Q88.9549 1194.49 92.566 1194.49 Q96.2002 1194.49 98.0058 1190.95 Q99.8345 1187.39 99.8345 1180.28 Q99.8345 1173.15 98.0058 1169.61 Q96.2002 1166.05 92.566 1166.05 M92.566 1162.34 Q98.3761 1162.34 101.432 1166.95 Q104.51 1171.53 104.51 1180.28 Q104.51 1189.01 101.432 1193.62 Q98.3761 1198.2 92.566 1198.2 Q86.7558 1198.2 83.6771 1193.62 Q80.6216 1189.01 80.6216 1180.28 Q80.6216 1171.53 83.6771 1166.95 Q86.7558 1162.34 92.566 1162.34 Z" fill="#000000" fill-rule="nonzero" fill-opacity="1" /><path clip-path="url(#clip860)" d="M57.4273 885.867 L73.7466 885.867 L73.7466 889.802 L51.8023 889.802 L51.8023 885.867 Q54.4643 883.112 59.0476 878.482 Q63.6541 873.83 64.8346 872.487 Q67.08 869.964 67.9596 868.228 Q68.8624 866.469 68.8624 864.779 Q68.8624 862.024 66.918 860.288 Q64.9967 858.552 61.8948 858.552 Q59.6958 858.552 57.2421 859.316 Q54.8115 860.08 52.0338 861.631 L52.0338 856.909 Q54.8578 855.774 57.3115 855.196 Q59.7652 854.617 61.8023 854.617 Q67.1726 854.617 70.367 857.302 Q73.5614 859.987 73.5614 864.478 Q73.5614 866.608 72.7513 868.529 Q71.9642 870.427 69.8578 873.02 Q69.2791 873.691 66.1772 876.908 Q63.0754 880.103 57.4273 885.867 Z" fill="#000000" fill-rule="nonzero" fill-opacity="1" /><path clip-path="url(#clip860)" d="M83.6077 855.242 L101.964 855.242 L101.964 859.177 L87.8901 859.177 L87.8901 867.649 Q88.9086 867.302 89.9271 867.14 Q90.9456 866.955 91.9641 866.955 Q97.7511 866.955 101.131 870.126 Q104.51 873.297 104.51 878.714 Q104.51 884.293 101.038 887.394 Q97.566 890.473 91.2465 890.473 Q89.0706 890.473 86.8021 890.103 Q84.5568 889.732 82.1494 888.992 L82.1494 884.293 Q84.2327 885.427 86.4549 885.982 Q88.6771 886.538 91.1539 886.538 Q95.1586 886.538 97.4965 884.432 Q99.8345 882.325 99.8345 878.714 Q99.8345 875.103 97.4965 872.996 Q95.1586 870.89 91.1539 870.89 Q89.279 870.89 87.404 871.307 Q85.5521 871.723 83.6077 872.603 L83.6077 855.242 Z" fill="#000000" fill-rule="nonzero" fill-opacity="1" /><path clip-path="url(#clip860)" d="M52.4505 547.517 L70.8068 547.517 L70.8068 551.452 L56.7328 551.452 L56.7328 559.924 Q57.7513 559.577 58.7699 559.415 Q59.7884 559.229 60.8069 559.229 Q66.5939 559.229 69.9735 562.401 Q73.3531 565.572 73.3531 570.989 Q73.3531 576.567 69.8809 579.669 Q66.4087 582.748 60.0893 582.748 Q57.9134 582.748 55.6449 582.377 Q53.3995 582.007 50.9921 581.266 L50.9921 576.567 Q53.0754 577.702 55.2977 578.257 Q57.5199 578.813 59.9967 578.813 Q64.0013 578.813 66.3393 576.706 Q68.6772 574.6 68.6772 570.989 Q68.6772 567.378 66.3393 565.271 Q64.0013 563.165 59.9967 563.165 Q58.1217 563.165 56.2467 563.581 Q54.3949 563.998 52.4505 564.878 L52.4505 547.517 Z" fill="#000000" fill-rule="nonzero" fill-opacity="1" /><path clip-path="url(#clip860)" d="M92.566 550.595 Q88.9549 550.595 87.1262 554.16 Q85.3206 557.702 85.3206 564.831 Q85.3206 571.938 87.1262 575.502 Q88.9549 579.044 92.566 579.044 Q96.2002 579.044 98.0058 575.502 Q99.8345 571.938 99.8345 564.831 Q99.8345 557.702 98.0058 554.16 Q96.2002 550.595 92.566 550.595 M92.566 546.892 Q98.3761 546.892 101.432 551.498 Q104.51 556.081 104.51 564.831 Q104.51 573.558 101.432 578.164 Q98.3761 582.748 92.566 582.748 Q86.7558 582.748 83.6771 578.164 Q80.6216 573.558 80.6216 564.831 Q80.6216 556.081 83.6771 551.498 Q86.7558 546.892 92.566 546.892 Z" fill="#000000" fill-rule="nonzero" fill-opacity="1" /><path clip-path="url(#clip860)" d="M52.219 239.791 L74.4411 239.791 L74.4411 241.782 L61.8948 274.351 L57.0106 274.351 L68.8161 243.726 L52.219 243.726 L52.219 239.791 Z" fill="#000000" fill-rule="nonzero" fill-opacity="1" /><path clip-path="url(#clip860)" d="M83.6077 239.791 L101.964 239.791 L101.964 243.726 L87.8901 243.726 L87.8901 252.199 Q88.9086 251.851 89.9271 251.689 Q90.9456 251.504 91.9641 251.504 Q97.7511 251.504 101.131 254.675 Q104.51 257.847 104.51 263.263 Q104.51 268.842 101.038 271.944 Q97.566 275.022 91.2465 275.022 Q89.0706 275.022 86.8021 274.652 Q84.5568 274.282 82.1494 273.541 L82.1494 268.842 Q84.2327 269.976 86.4549 270.532 Q88.6771 271.087 91.1539 271.087 Q95.1586 271.087 97.4965 268.981 Q99.8345 266.874 99.8345 263.263 Q99.8345 259.652 97.4965 257.546 Q95.1586 255.439 91.1539 255.439 Q89.279 255.439 87.404 255.856 Q85.5521 256.273 83.6077 257.152 L83.6077 239.791 Z" fill="#000000" fill-rule="nonzero" fill-opacity="1" /><polyline clip-path="url(#clip861)" style="stroke:#0000ff; stroke-linecap:round; stroke-linejoin:round; stroke-width:4; stroke-opacity:1; fill:none" points="203.121,718.038 232.269,723.638 235.567,719.153 247.57,717.598 255.24,716.663 276.797,719.232 299.8,724.25 326.929,726.522 354.147,728.407 384.184,732.344 413.561,732.835 439.333,733.11 474.537,734.438 498.126,740.148 521.408,744.191 555.992,748.074 581.993,749.903 603.961,754.19 633.114,760.735 656.297,768.291 679.205,776.147 702.775,783.053 730.454,789.857 752.49,798.504 778.501,803.933 810.149,811.588 833.342,811.006 866.74,813.397 892.705,821.585 919.235,828.221 949.94,837.703 974.996,846.125 1000.96,853.797 1020.18,864.314 1037.82,876.846 1046.41,882.446 1066.62,885.425 1083.44,887.417 1104.78,888.865 1130.82,891.864 1156.83,901.384 1184.13,911.009 1206.67,916.278 1232.04,919.827 1264.48,921.631 1294.22,922.925 1326.41,927.099 1354.21,932.39 1380.56,935.977 1405.84,938.35 1438.07,938.474 1462.7,938.38 1490.07,937.92 1516.6,935.641 1545.77,930.219 1574.74,929.697 1602.57,927.889 1628.15,928.292 1649.06,922.397 1667.31,919.681 1684.27,913.225 1701.98,906.529 1722.58,905.717 1744.87,903.225 1767.34,904.574 1786.98,907.809 1809,914.233 1828.78,925.654 1850.15,938.698 1865.92,950.046 1881.66,966.52 1892.87,980.771 1900.83,995.394 1910.88,1014.05 1922.58,1032.08 1934.9,1051.02 1945.13,1062.2 1962.77,1069.68 1977.18,1072.68 1987.24,1071.67 2008.8,1065.32 2025.47,1059.92 2046.2,1040.88 2057.9,1025.57 2062.66,1004.98 2066.1,986.201 2064.71,963.781 2051.61,948.543 2033.47,940.136 2009.62,930.528 1978.42,933.622 1952.7,932.434 1933.17,929.586 1914.96,926.721 1892.8,924.101 1873.16,929.254 1851.36,935.882 1834.35,943.104 1811.04,946.088 1786.48,946.372 1759.08,941.996 1735.76,932.013 1713.11,921.264 1683.17,906.199 1657.49,888.804 1634.67,870.026 1618.92,854.658 1606.71,841.363 1590.41,827.403 1576.11,810.971 1564.68,795.538 1556.85,779.077 1556.47,763.81 1568.65,748.564 1581.91,734.875 1602.67,726.511 1623.01,727.567 1652.37,730.342 1671.64,744.36 1692.19,751.292 1705.58,755.279 1728.16,761.531 1750.91,772.989 1763.59,782.199 1781.34,793.128 1800.08,803.408 1822.3,811.366 1843.12,812.995 1864.13,813.348 1888.07,806.956 1908.86,803.028 1925.47,802.065 1944.69,809.243 1961.47,820.308 1976.9,834.796 1986.9,850.685 1995.86,871.104 2003.86,893.59 2007.58,913.502 2006.48,934.591 2006.67,945.244 2009.29,958.322 2018.67,977.121 2026.21,994.752 2038.09,1009.71 2049.4,1017.4 2062.54,1021.18 2080.03,1017.33 2099.04,1009.31 2112.22,1000.74 2129.24,988.374 2139.32,979.267 2143.45,960.166 2134.96,942.646 2118.37,923.979 2102.78,906.4 2081.26,894.197 2053.64,889.425 2025.79,885.035 2006.96,882.87 1981.19,881.24 1959.83,879.655 1941.01,870.785 1925.65,864.206 1904.21,857.552 1888.62,857.198 1866.68,860.043 1845.87,855.136 1824.86,849.89 1805.48,848.535 1781.14,844.75 1763.01,839.934 1745.77,835.606 1723.19,833.781 1695.92,835.292 1670.1,840.766 1653.9,839.583 1647.22,832.526 1642.8,829.423 1636.02,827.993 1625.68,827.073 1617.89,826.194 1604.19,830.279 1589.88,836.47 1563.82,840.58 1542.95,844.369 1527.55,849.979 1517.85,858.835 1524.45,859.918 1537.77,858.077 1569.75,853.549 1590.35,838.732 1606.17,823.719 1614.1,808.182 1607.82,791.571 1593.13,772.522 1582.64,760.533 1570.96,740.415 1552.42,729.663 1531.54,739.997 1509.31,741.287 1480.59,735.828 1476.05,718.068 1470.56,699.151 1471.94,678.297 1476.5,661.462 1491.02,638.872 1498.8,619.323 1502.43,596.031 1485.19,583.356 1463.44,575.7 1453.61,573.94 1463.19,561.325 1484.36,550.536 1519.37,548.758 1558.24,535.691 1583.39,518.919 1602.32,494.57 1617.51,473.113 1638.86,462.977 1665.31,467.105 1688.89,472.132 1708.34,489.46 1735.81,502.664 1756.78,519.473 1765.96,540.16 1755.47,556.636 1736.84,572.779 1710.61,586.198 1676.76,592.107 1650.22,592.639 1616.48,577.691 1591.88,561.869 1579.55,540.896 1578.17,518.529 1595.98,503.604 1611.28,493.848 1634.67,479.567 1659.5,470.535 1681.98,454.096 1703.4,442.332 1723.7,441.497 1746.97,427.762 1750.38,413.539 1761.23,396.04 1772.66,390.528 1790.53,373.663 1785.34,360.182 1764.25,349.121 1759.48,346.796 1770.35,343.438 1793.5,337.223 1822.15,341.666 1847.86,343.083 1875.86,348.37 1900.06,365.802 1904.41,384.305 1901.46,396.502 1881.17,407.637 1864.07,429.864 1848.84,457.211 1838.53,489.817 1840.62,510.487 1804.63,513.516 1781.77,529.614 1749.34,536.308 1718.77,552.283 1701.82,577.295 1681.36,595.196 1652.73,590.179 1630.9,578.551 1603.45,570.181 1588.96,557.171 1563.78,541.411 1555.11,534.928 1562.55,513.194 1586.1,502.934 1620.78,498.346 1649.03,501.636 1683.92,507.901 1712.18,522.503 1722.17,543.469 1736.86,564.257 1751.66,568.471 1778.17,574.418 1801.18,585.132 1811.75,588.243 1837.09,580.774 1861.59,572.087 1881.86,562.731 1902.49,565.061 1922.11,579.259 1921.64,597.5 1921.17,619.028 1908.14,651.255 1887.88,677.045 1863.39,696.389 1840.28,725.978 1838.47,750.939 1803,763.693 1775.36,769.163 1747.31,782.897 1720.62,796.3 1703.84,815.536 1688.05,836.357 1661.86,858.775 1635.74,868.607 1608.42,860.564 1583.44,855.143 1551.83,850.571 1523.29,841.976 1502.94,821.279 1488.98,800.507 1457.5,778.398 1440.39,759.577 1415.46,741.78 1390.68,738.877 1360.74,744.419 1342.51,742.243 1316.71,733.624 1310.38,707.695 1294.27,700.471 1270.48,704.035 1252.62,712.971 1228.19,729.174 1221.61,735.371 1191.52,739.534 1168.1,745.014 1141.21,738.607 1120.96,721.689 1098.33,708.098 1063.31,702.855 1030.62,694.089 1008.91,689.141 987.364,679.009 966.535,657.331 964.829,644.478 974.76,624.627 990.41,604.116 1002.12,581.326 1007.94,551.099 1016.1,526.597 1000.08,506.567 980.92,500.737 971.019,490.002 975.253,476.796 1000.96,476.283 1035.83,479.297 1075.39,477.962 1108.57,474.108 1138.02,456.333 1163.81,431.441 1189.66,411.539 1220.5,403.26 1260.15,405.986 1292.59,417.966 1323.92,433.078 1353.92,447.265 1381.39,459.069 1402.98,473.222 1439.6,479.953 1465.45,494.158 1492.09,517.132 1522.45,543.979 1549.45,559.351 1573.19,570.853 1593.18,581.715 1602.65,572.399 1623.15,562.265 1649.9,547.96 1673.03,539.164 1702.97,527.846 1735.95,526.56 1771.77,535.481 1798.69,560.453 1807.16,581.664 1803.67,613.31 1786.41,645.938 1783.98,673.183 1774.69,704.363 1774,738.578 1790.39,769.742 1822.78,795.299 1862.56,795.282 1885.13,795.486 1915.42,803.045 1935.94,825.412 1960.96,850.731 1983.09,882.21 1994.24,914.759 1999.13,937.152 2014.42,920.463 2050.79,925.298 2077.83,931.529 2089.96,946.19 2092.47,950.496 2092.73,955.117 2097.66,971.071 2100.57,977.419 2112.97,981.317 2129.68,983.642 2158.83,977.741 2187.56,987.504 2201.35,999.069 2215.07,1020.94 2215.46,1033.45 2217.9,1022.9 2223.04,1006.09 2223.01,978.445 2213.12,951.879 2197.82,927.546 2186.03,905.373 2186.39,884.551 2159.21,862.493 2151.65,831.262 2157.06,806.058 2174.77,795.393 2196.25,796.902 2220.73,805.724 2235.95,818.063 2248.99,837.671 2274.62,860.401 2289.33,881.901 2280.3,909.139 2260.67,930.716 2243.13,951.533 2212.43,962.914 2193.52,982.568 2166.45,995.68 2139.41,1017.56 2119.82,1039.71 2107.66,1064.02 2088.99,1086.38 2071.6,1108.47 2046.3,1126.84 2019.38,1137.93 1987.87,1154.04 1963.07,1171.33 1934.46,1180.18 1905.53,1199.32 1888.9,1216.48 1857.66,1229.01 1838.28,1243.24 1819.5,1263.16 1801.17,1291.58 1793.72,1312.06 1788.47,1332.1 1781.26,1356.54 1804.43,1377.85 1813.84,1392.21 1807.42,1415.09 1799.41,1440.83 1780.84,1445.57 1757.21,1443.87 1734.6,1426.21 1722.69,1399.79 1708.84,1377.47 1684.95,1354.31 1645.83,1328.28 1613.32,1321.26 1579.18,1320.74 1542.38,1326.48 1501.16,1336 1473.59,1337.83 1438.24,1327.13 1412.3,1314.71 1392.94,1289.81 1390.39,1255.93 1384.59,1217.23 1365.28,1189.92 1343.99,1168.4 1348.92,1137.4 1346.53,1109.86 1338.66,1084.93 1326.23,1056.4 1306.88,1031.63 1301.66,1005.5 1307.69,972.411 1317.26,938.925 1335.66,909.573 1351.24,879.437 1365.17,847.624 1392.75,825.473 1388.24,797.064 1372.63,772.204 1343.26,749.457 1310.23,746.851 1289.25,733.852 1280.11,708.381 1276.98,676.079 1288.31,648.976 1303.36,627.208 1325.49,617.9 1357.2,605.93 1393.68,600.174 1433.46,596.222 1472.42,597.549 1501.61,589.648 1524.6,563.187 1544.15,541.385 1571.62,528.521 1593.99,523.759 1597.31,508.87 1582.78,494.104 1562.17,478.444 1536.57,466.539 1507.68,440.535 1483.97,414.946 1470.52,388.438 1453.88,367.703 1448.98,350.054 1458.07,328.833 1474.84,318.78 1492.14,328.615 1523.08,333.259 1562.7,335.087 1598.44,343.998 1637.87,349.822 1671.14,352.924 1702.58,368.168 1727.58,374.307 1753.27,367.367 1776.64,356.347 1807.84,351.369 1840.25,351.03 1871.96,345.766 1895.97,359.894 1907.11,376.752 1911.31,371.879 1921.94,355.306 1940.07,338.406 1957.81,327.088 1981.21,311.907 2000.84,303.538 1991.68,304.324 1970.48,292.9 1960.13,276.835 1947.96,247.918 1951.83,218.338 1961.38,202.126 1990.91,191.018 2024.65,193.545 2049.09,198.904 2083.85,202.409 2118.98,214.437 2141.89,236.791 2147.58,265.736 2140.82,292.775 2129.18,300.272 2133.34,317.237 2138,339.984 2132.83,371.575 2103.77,389.384 2084.34,423.063 2056.57,446.052 2034.62,472.495 2026.77,506.397 2000.95,514.695 1965.09,515.837 1928.63,528.666 1897.57,541.793 1881.75,568.896 1870.36,600.549 1869.7,616.561 1896.2,622.164 1925.89,634.644 1962.01,649.081 1996.23,672.857 2024.41,687.826 2062.71,692.991 2098.94,694.398 2138.25,691.245 2167.76,695.032 2193.9,694.342 2205.17,678.793 2219.06,659.206 2234.17,639.553 2233.22,614.144 2229.44,595.64 2220.36,571.229 2193.38,550.142 2171.91,531.505 2147.95,516.194 2105.04,517.567 2079.06,524.026 2054.99,541.611 2037.5,561.662 2011.61,586.307 2007.7,616.106 2011.8,648.057 2016.65,678.131 2033.11,704.621 2046.47,729.368 2058.95,762.848 2074.74,793.152 2106.37,806.536 2136.96,822.792 2162.87,851.843 2182.81,874.246 2198.58,905.245 2205.39,930.199 2201.92,942.236 2170.16,944.591 2132.88,957.779 2105.43,956.503 2089.73,963.009 2069.71,967.32 2047.85,963.143 2015.67,948.963 1984.79,941.273 1948.92,943.852 1905.75,956.632 1867.3,970.129 1828.64,970.605 1784.44,978.843 1747.03,980.034 1707.74,980.229 1676.19,974.399 1640.81,979.55 1608.29,973.891 1575.58,966.208 1539.46,935.517 1511.47,920.601 1472.63,913.859 1439.09,898.044 1409.85,881.111 1379.01,860.598 1352.57,853.67 1325.2,866.567 1299.72,883.337 1271.32,899.468 1232.34,916.614 1195.2,924.95 1166.01,920.691 1137.42,897.316 1120.58,872.279 1102.28,842.883 1076.91,817.388 1065.33,787.519 1059.84,759.328 1062.78,737.137 1050.17,707.037 1027.9,689.142 999.532,677.109 978.806,655.374 969.758,624.342 967.65,599.96 956.338,572.009 964.657,546.229 987.125,519.639 997.881,502.879 1010.46,496.441 1020.44,481.785 1025.43,465.064 1032.29,441.772 1039.64,417.802 1044.61,389.203 1057.05,355.671 1057.2,332.506 1035.26,313.585 1015,299.718 987.126,299.78 960.513,308.733 932.975,304.909 900.448,290.837 862.291,276.827 839.345,269.485 816.944,264.769 801.908,247.257 800.787,226.735 814.884,208.752 837.399,188.781 861.795,171.692 904.778,160.447 934.592,148.446 968.58,142.367 999.096,152.761 1027.65,159.688 1062.35,155.664 1095.8,149.167 1116.28,129.073 1132.03,110.166 1145.51,87.9763 "/>
<polyline clip-path="url(#clip861)" style="stroke:#ff0000; stroke-linecap:round; stroke-linejoin:round; stroke-width:4; stroke-opacity:1; fill:none" points="203.162,717.539 234.128,723.94 236.789,715.04 258.324,716.345 261.767,717.047 289.29,722.746 306.487,726.303 335.789,726.057 360.767,728.076 391.747,734.476 418.503,730.562 440.039,731.854 483.124,734.464 495.129,743.253 520.121,745.259 563.221,747.868 581.329,748.459 601.129,755.709 635.595,762.824 655.409,770.074 678.68,778.038 702.819,783.023 733.857,789.436 752.818,799.665 781.296,802.397 814.952,812.515 831.353,806.435 873.657,812.023 891.78,825.243 919.404,830.954 953.103,841.072 972.975,848.335 1000.63,854.046 1015.32,866.564 1033.5,879.796 1036.96,880.51 1069.81,880.978 1083.63,883.846 1108.71,885.865 1136.39,891.589 1161.52,906.273 1188.36,914.976 1206.53,915.579 1235.08,918.324 1271.42,919.505 1296.52,921.536 1331.15,928.7 1355.42,933.722 1380.52,935.741 1405.62,937.772 1442.82,935.987 1461,936.578 1490.42,936.344 1517.22,932.393 1548.32,926.189 1576.06,931.913 1602.84,927.974 1627.97,930.005 1646.02,917.942 1664.2,918.533 1681.39,909.461 1701.24,904.082 1725.52,909.104 1748.82,904.439 1769.65,908.735 1786.99,912.317 1810.46,920.318 1828.82,933.575 1851.46,944.567 1863.71,953.417 1880.43,972.668 1888.39,983.795 1895.52,997.914 1907.96,1019.47 1922.06,1035.04 1935.34,1053.61 1944.95,1058.77 1969.31,1063.82 1979.75,1065.97 1987.55,1064.41 2016.01,1054.46 2027.26,1053.61 2049.36,1026.53 2055.31,1018.26 2054.06,995.87 2058.14,980.915 2056.91,958.55 2037.69,948.272 2020.31,944.677 1997.63,933.685 1970.02,940.615 1949.18,936.319 1932.63,929.746 1915.28,926.165 1890.14,924.134 1872.13,936.209 1848.82,940.861 1835.93,947.681 1807.32,944.923 1782.19,942.905 1754.42,937.169 1736.08,923.912 1712.62,915.911 1676.95,899.072 1656.01,882.135 1635.08,865.198 1623.71,853.406 1612.36,841.602 1590.61,827.668 1577.48,809.217 1566.96,794.47 1560.76,777.459 1564.94,762.602 1583.78,747.622 1594.04,737.16 1617.29,732.531 1631.12,735.375 1660.46,735.141 1674.44,750.576 1695.21,754.86 1705.59,756.989 1733.29,762.701 1755.04,776.598 1760.32,783.971 1782.91,794.914 1802.04,805.155 1826.3,810.152 1845.27,807.764 1866.9,809.069 1891.8,798.471 1909.95,799.074 1923.82,801.93 1945.63,815.851 1960.52,828.357 1974.59,843.842 1981.72,857.899 1990.7,878.652 1999.68,899.417 2002.53,915.776 2000.28,937.39 2002.94,941.095 2009.27,958.193 2025.22,980.435 2028.09,996.831 2043.01,1009.4 2053.46,1011.56 2067.37,1014.43 2088.04,1006.05 2104.4,999.945 2113.8,992.399 2131.79,980.312 2136.89,975.056 2136.43,949.699 2121.49,937.144 2103.89,920.896 2093.26,906.101 2069.76,898.1 2041.15,895.355 2016.84,890.345 2006.42,888.191 1977.83,885.459 1960.47,881.877 1942.93,865.653 1929.04,862.798 1901.29,857.074 1889.24,860.89 1862.49,864.829 1844.15,851.597 1823.33,847.313 1804.34,849.689 1776.62,843.977 1763.57,838.143 1746.25,834.561 1720.33,835.521 1690.11,838.746 1665.99,846.365 1657.27,838.266 1657.12,825.637 1649.37,827.188 1638.15,828.025 1623.45,828.148 1616.53,826.72 1599.33,835.767 1586.44,842.562 1553.6,842.094 1538.06,845.184 1528.62,852.692 1521.81,863.906 1537.34,860.804 1556.33,858.416 1587.4,852.212 1596.7,832.074 1611.26,819.335 1615.43,804.453 1605.75,786.728 1589.16,767.588 1580.44,759.5 1568.99,735.153 1549.07,727.903 1526.77,742.169 1505.19,740.865 1474.06,734.452 1475.64,715.927 1470.3,695.998 1472.72,674.531 1476.9,659.711 1494.79,635.192 1499.81,617.43 1503.05,593.058 1484.03,582.891 1460.71,574.976 1453.82,573.561 1465.73,557.251 1490.61,546.727 1530.21,548.61 1567.9,531.365 1586.69,516.484 1604.51,492.063 1617.21,472.848 1637.74,464.589 1666.15,467.297 1690.27,472.233 1710.28,491.915 1739.65,504.175 1757.06,520.226 1765.92,540.769 1754.07,557.066 1734.49,574.915 1705.36,587.691 1670.98,593.144 1649.43,591.852 1610.49,574.471 1588.84,560.648 1580.04,540.092 1578.97,518.022 1597.74,503.153 1611.39,493.478 1637.87,477.082 1661.87,469.537 1684.89,452.44 1706.24,441.251 1724.29,441.829 1750.73,425.458 1750.58,412.989 1763.23,393.812 1775.2,390.045 1795.55,369.354 1784.24,357.722 1758.34,346.213 1774.58,340.231 1805.39,334.113 1832.1,342.668 1853.58,343.96 1881.11,349.586 1904.59,369.908 1903.95,385.306 1900.68,397.062 1875.11,410.478 1860.85,435.552 1845.77,463.592 1836.74,496.014 1840.37,509.234 1799.12,513.246 1779.57,531.082 1745.22,536.523 1714.46,555.183 1700.11,580.367 1681.34,595.274 1653.71,589.599 1631.21,578.73 1600.98,569.388 1589.67,557.694 1558.51,538.8 1555.9,535.144 1563.39,508.581 1590.84,501.737 1628.63,497.011 1652.76,501.959 1690.69,509.738 1715.82,524.251 1721.21,544.08 1736.96,566.052 1750.77,568.883 1781.85,575.259 1804.37,586.14 1811.29,587.556 1843.03,578.447 1867.04,570.877 1884.12,561.892 1904.85,566.138 1925.76,582.915 1920.86,600.665 1922.04,622.797 1904.49,659.884 1884.09,680.747 1861.04,697.955 1837.33,730.722 1839.32,749.961 1798.92,763.636 1775.66,768.277 1745.64,784.094 1719.88,797.658 1703.68,816.356 1686.64,838.032 1657.54,863.536 1634.24,868.189 1607.36,859.487 1583.1,854.477 1547.61,850.316 1520.75,841.614 1501.53,818.756 1488.43,800.305 1451.94,773.902 1441.46,759.168 1413.72,740.877 1392.13,739.572 1357.67,745.037 1343.84,742.182 1313.58,732.815 1310.83,703.962 1293.56,700.405 1266.85,704.331 1249.65,713.354 1222.15,732.827 1221.29,735.793 1183.36,740.545 1163.53,745.899 1136.76,737.221 1116.87,717.404 1094.41,706.486 1055.6,701.636 1025.42,692.269 1008.18,688.711 985.761,677.806 963.329,654.357 965.917,645.47 976.23,622.501 993.426,600.96 1003.72,578.029 1009.7,544.831 1015.69,524.177 999.327,505.184 982.131,501.651 970.951,489.982 975.232,475.248 1007.89,475.704 1046.56,480.529 1087.8,476.516 1114.42,472.614 1141.86,453.289 1167.53,427.391 1190.65,410.318 1221.52,404.201 1264.46,406.773 1293.72,418.996 1325.59,434.875 1354.87,447.11 1380.73,458.644 1402.31,472.43 1443.63,480.898 1465.23,494.697 1494.67,519.462 1526.75,547.909 1549.23,558.765 1571.72,569.634 1590.75,579.801 1600.15,572.342 1625,561.818 1654.97,546.099 1675.52,537.827 1708.08,525.777 1740.78,526.245 1777.92,536.978 1803.23,564.033 1806.02,580.22 1803.06,617.134 1782.81,650.541 1783.95,672.697 1774.04,708.295 1775.35,743.08 1792.98,771.846 1826.14,797.535 1864.08,792.772 1877.95,795.627 1916.07,803.468 1935.42,826.326 1964.38,854.329 1984.77,886.886 1994.77,917.327 1997.63,933.685 2012.14,920.909 2054.64,926.521 2078.97,931.531 2089.61,946.351 2092.28,950.056 2094.13,956.752 2099.67,976.841 2102.33,980.558 2119.73,984.14 2137.92,984.743 2169.83,975.524 2195.22,990.245 2203.24,1001.38 2218.45,1026.66 2216.01,1035.64 2220.07,1020.66 2225.74,999.699 2222.57,970.625 2210.86,946.105 2194.85,923.887 2185.81,903.11 2187.2,884.486 2153.84,858.723 2151.55,826.782 2157.21,805.942 2174.34,796.895 2195.96,798.212 2222.92,806.89 2237.86,819.396 2250.37,840.838 2280.28,865.875 2290.15,883.649 2278.62,912.772 2258.25,933.796 2242.16,952.567 2209.47,964.766 2193.36,983.549 2164.14,996.474 2135.13,1022.1 2118.99,1040.91 2108.98,1064.17 2087.71,1088.29 2070.71,1110.14 2044.08,1126.84 2019.08,1137.53 1984.63,1155.8 1961.44,1173.24 1933.75,1180.22 1901.91,1202.24 1890.8,1215.86 1853.63,1230.43 1839.03,1243.33 1818.43,1264.55 1798.82,1295.56 1794.67,1310.65 1788.84,1331.8 1781.35,1359 1808.62,1380.66 1813.12,1391.2 1805.63,1418.44 1798.12,1445.72 1779.81,1445.1 1754.49,1443.04 1730.7,1422.07 1719.92,1394.2 1706.63,1375.44 1680.22,1350.76 1636.4,1322.47 1614.62,1321.14 1578.05,1319.93 1538.96,1327.77 1495.53,1337.93 1477.25,1337.31 1436.24,1325.59 1413.54,1314.46 1391.61,1287.54 1390.5,1252.21 1384.12,1209.43 1364,1189.33 1343.9,1169.23 1349.77,1135.45 1346.14,1109.27 1338.18,1085.39 1324.98,1054.09 1305.79,1031.09 1302.17,1004.98 1308.9,968.372 1318.22,935.507 1337.08,907.812 1353.33,876.436 1366.08,844.371 1393.59,824.837 1386.5,798.175 1371.65,773.077 1338.69,747.413 1309.36,747.659 1291.16,734.476 1280.66,707.175 1276.17,671.713 1290.69,646.479 1303.49,627.179 1324.11,618.882 1361.06,604.555 1398.91,599.816 1440.22,595.791 1476.39,596.972 1500.43,589.39 1526.87,560.427 1543.05,541.877 1572.18,529.125 1591.92,523.807 1596.08,509.049 1582.16,493.724 1557.92,476.282 1532.03,464.737 1500.82,433.41 1481.73,410.823 1470.38,386.722 1453.92,367.803 1451.21,351.715 1457.88,328.23 1474.96,319.318 1493.92,329.399 1529.13,333.498 1572.04,336.058 1602.16,345.327 1644.27,350.829 1672.61,353.525 1704.55,369.379 1725.2,373.601 1752.59,366.781 1777.36,356.319 1811.62,350.903 1844.23,351.358 1875.04,345.241 1895.88,361.919 1906.4,376.481 1911.47,371.311 1924.07,352.158 1943.54,334.421 1960.57,325.497 1986.91,309.175 2003.11,303.181 1991.97,304.005 1963.44,288.89 1957.18,272.137 1944.66,238.645 1951.98,212.303 1962.09,202.013 1994.46,190.073 2029.64,194.147 2050.26,198.357 2088.89,203.133 2125.11,216.685 2144.36,239.149 2147.45,267.62 2140.21,293.986 2131.72,298.454 2133.77,317.459 2137.66,343.05 2131.43,379.004 2099,391.006 2080.79,430.788 2054.43,447.159 2032.5,473.796 2026.21,509.898 2003.86,511.548 1962.63,515.573 1925.85,529.864 1896.76,542.628 1881.68,570.754 1869.2,602.573 1870.19,612.149 1897.02,620.79 1929.15,636.767 1969.02,651.218 2002.2,676.821 2024.81,687.727 2067.17,693.29 2099.96,693.758 2141.31,689.721 2165.55,694.706 2191.42,693.746 2202.38,680.341 2219.23,658.764 2236.05,637.186 2232.12,611.374 2229.21,595.163 2218.35,567.96 2187.8,546.099 2170.29,530.048 2145.07,515.524 2096.92,518.133 2080.66,524.164 2053.44,543.539 2037.4,562.089 2007.71,590.35 2007.3,618.402 2012.99,650.849 2016.04,679.664 2034.58,705.402 2046.2,729.737 2061.5,767.415 2075.8,795.48 2106.2,804.884 2137.66,823.926 2165.89,854.908 2182.67,874.11 2198.9,908.957 2204.47,929.02 2202.04,937.981 2167.5,943.483 2126.23,960.224 2105.36,955.915 2092.49,962.735 2069.18,967.4 2044.85,962.378 2009.07,945.514 1981.27,939.778 1943.25,944.567 1894.97,959.867 1862.24,972.065 1825.84,970.871 1779.19,980.201 1746.27,979.721 1705.58,980.804 1677.79,975.068 1639.74,979.844 1608.5,973.394 1573.79,966.218 1532.77,929.291 1512.8,922.004 1471.2,913.412 1439.08,897.3 1410.43,881.914 1376.55,859.142 1355.77,854.858 1326.47,867.734 1299.77,884.302 1269.58,900.18 1227.31,919.875 1192.73,925.364 1168.49,920.355 1135.54,894.58 1119.91,872.399 1099.95,839.866 1073.97,815.58 1064.41,785.239 1060.9,759.328 1063.44,737.824 1047.85,703.174 1026.27,689.302 996.955,676.981 977.98,654.234 969.345,621.086 967.595,601.92 954.68,571.062 965.845,545.188 989.03,515.56 995.9,504.47 1008.77,497.749 1020.79,481.477 1025.91,463.801 1033.6,437.312 1040.43,413.777 1045.52,383.669 1059.18,349.143 1056.57,333.055 1033.39,312.769 1015.37,299.759 986.224,300.005 957.948,309.741 930.526,304.129 895.395,287.61 855.998,273.331 842.301,270.525 818.321,265.614 802.079,246.769 801.269,224.895 817.555,206.53 841.535,186.651 864.647,169.714 915.109,158.365 936.485,147.275 970.676,141.883 999.761,154.02 1027.14,159.608 1064.76,154.919 1098.95,149.54 1115.99,128.294 1132.17,109.978 1145.77,88.0684 "/>
<path clip-path="url(#clip860)" d="M214.252 1438.47 L760.776 1438.47 L760.776 1282.95 L214.252 1282.95  Z" fill="#ffffff" fill-rule="evenodd" fill-opacity="1"/>
<polyline clip-path="url(#clip860)" style="stroke:#000000; stroke-linecap:round; stroke-linejoin:round; stroke-width:4; stroke-opacity:1; fill:none" points="214.252,1438.47 760.776,1438.47 760.776,1282.95 214.252,1282.95 214.252,1438.47 "/>
<polyline clip-path="url(#clip860)" style="stroke:#0000ff; stroke-linecap:round; stroke-linejoin:round; stroke-width:4; stroke-opacity:1; fill:none" points="238.832,1334.79 386.315,1334.79 "/>
<path clip-path="url(#clip860)" d="M434.924 1338.05 L434.924 1340.13 L415.34 1340.13 Q415.618 1344.53 417.979 1346.84 Q420.363 1349.13 424.6 1349.13 Q427.053 1349.13 429.345 1348.53 Q431.66 1347.93 433.928 1346.73 L433.928 1350.75 Q431.637 1351.73 429.229 1352.24 Q426.822 1352.75 424.345 1352.75 Q418.141 1352.75 414.507 1349.13 Q410.896 1345.52 410.896 1339.37 Q410.896 1333 414.322 1329.27 Q417.771 1325.52 423.604 1325.52 Q428.836 1325.52 431.868 1328.9 Q434.924 1332.26 434.924 1338.05 M430.664 1336.8 Q430.618 1333.3 428.697 1331.22 Q426.799 1329.13 423.65 1329.13 Q420.086 1329.13 417.933 1331.15 Q415.803 1333.16 415.479 1336.82 L430.664 1336.8 Z" fill="#000000" fill-rule="nonzero" fill-opacity="1" /><path clip-path="url(#clip860)" d="M458.442 1326.91 L458.442 1330.94 Q456.636 1330.01 454.692 1329.55 Q452.748 1329.09 450.664 1329.09 Q447.493 1329.09 445.896 1330.06 Q444.322 1331.03 444.322 1332.98 Q444.322 1334.46 445.456 1335.32 Q446.59 1336.15 450.016 1336.91 L451.474 1337.24 Q456.011 1338.21 457.91 1339.99 Q459.831 1341.75 459.831 1344.92 Q459.831 1348.53 456.96 1350.64 Q454.113 1352.75 449.113 1352.75 Q447.03 1352.75 444.761 1352.33 Q442.516 1351.94 440.016 1351.13 L440.016 1346.73 Q442.377 1347.95 444.669 1348.58 Q446.961 1349.18 449.206 1349.18 Q452.215 1349.18 453.836 1348.16 Q455.456 1347.12 455.456 1345.25 Q455.456 1343.51 454.275 1342.58 Q453.118 1341.66 449.16 1340.8 L447.678 1340.45 Q443.72 1339.62 441.961 1337.91 Q440.201 1336.17 440.201 1333.16 Q440.201 1329.51 442.794 1327.51 Q445.386 1325.52 450.155 1325.52 Q452.516 1325.52 454.599 1325.87 Q456.683 1326.22 458.442 1326.91 Z" fill="#000000" fill-rule="nonzero" fill-opacity="1" /><path clip-path="url(#clip860)" d="M470.826 1318.79 L470.826 1326.15 L479.599 1326.15 L479.599 1329.46 L470.826 1329.46 L470.826 1343.53 Q470.826 1346.7 471.683 1347.61 Q472.562 1348.51 475.224 1348.51 L479.599 1348.51 L479.599 1352.07 L475.224 1352.07 Q470.294 1352.07 468.419 1350.25 Q466.544 1348.39 466.544 1343.53 L466.544 1329.46 L463.419 1329.46 L463.419 1326.15 L466.544 1326.15 L466.544 1318.79 L470.826 1318.79 Z" fill="#000000" fill-rule="nonzero" fill-opacity="1" /><path clip-path="url(#clip860)" d="M485.201 1326.15 L489.46 1326.15 L489.46 1352.07 L485.201 1352.07 L485.201 1326.15 M485.201 1316.06 L489.46 1316.06 L489.46 1321.45 L485.201 1321.45 L485.201 1316.06 Z" fill="#000000" fill-rule="nonzero" fill-opacity="1" /><path clip-path="url(#clip860)" d="M518.557 1331.13 Q520.155 1328.26 522.377 1326.89 Q524.599 1325.52 527.608 1325.52 Q531.659 1325.52 533.858 1328.37 Q536.057 1331.19 536.057 1336.43 L536.057 1352.07 L531.775 1352.07 L531.775 1336.57 Q531.775 1332.84 530.455 1331.03 Q529.136 1329.23 526.428 1329.23 Q523.118 1329.23 521.196 1331.43 Q519.275 1333.63 519.275 1337.42 L519.275 1352.07 L514.993 1352.07 L514.993 1336.57 Q514.993 1332.82 513.673 1331.03 Q512.354 1329.23 509.599 1329.23 Q506.335 1329.23 504.414 1331.45 Q502.493 1333.65 502.493 1337.42 L502.493 1352.07 L498.21 1352.07 L498.21 1326.15 L502.493 1326.15 L502.493 1330.18 Q503.951 1327.79 505.988 1326.66 Q508.025 1325.52 510.826 1325.52 Q513.65 1325.52 515.618 1326.96 Q517.608 1328.39 518.557 1331.13 Z" fill="#000000" fill-rule="nonzero" fill-opacity="1" /><path clip-path="url(#clip860)" d="M556.335 1339.04 Q551.173 1339.04 549.182 1340.22 Q547.191 1341.4 547.191 1344.25 Q547.191 1346.52 548.673 1347.86 Q550.178 1349.18 552.747 1349.18 Q556.289 1349.18 558.418 1346.68 Q560.571 1344.16 560.571 1339.99 L560.571 1339.04 L556.335 1339.04 M564.83 1337.28 L564.83 1352.07 L560.571 1352.07 L560.571 1348.14 Q559.113 1350.5 556.937 1351.63 Q554.761 1352.75 551.613 1352.75 Q547.631 1352.75 545.27 1350.52 Q542.932 1348.28 542.932 1344.53 Q542.932 1340.15 545.849 1337.93 Q548.789 1335.71 554.599 1335.71 L560.571 1335.71 L560.571 1335.29 Q560.571 1332.35 558.627 1330.76 Q556.705 1329.13 553.21 1329.13 Q550.988 1329.13 548.881 1329.67 Q546.775 1330.2 544.83 1331.26 L544.83 1327.33 Q547.168 1326.43 549.367 1325.99 Q551.566 1325.52 553.65 1325.52 Q559.275 1325.52 562.053 1328.44 Q564.83 1331.36 564.83 1337.28 Z" fill="#000000" fill-rule="nonzero" fill-opacity="1" /><path clip-path="url(#clip860)" d="M577.816 1318.79 L577.816 1326.15 L586.589 1326.15 L586.589 1329.46 L577.816 1329.46 L577.816 1343.53 Q577.816 1346.7 578.673 1347.61 Q579.552 1348.51 582.214 1348.51 L586.589 1348.51 L586.589 1352.07 L582.214 1352.07 Q577.284 1352.07 575.409 1350.25 Q573.534 1348.39 573.534 1343.53 L573.534 1329.46 L570.409 1329.46 L570.409 1326.15 L573.534 1326.15 L573.534 1318.79 L577.816 1318.79 Z" fill="#000000" fill-rule="nonzero" fill-opacity="1" /><path clip-path="url(#clip860)" d="M614.367 1338.05 L614.367 1340.13 L594.784 1340.13 Q595.062 1344.53 597.423 1346.84 Q599.807 1349.13 604.043 1349.13 Q606.497 1349.13 608.788 1348.53 Q611.103 1347.93 613.372 1346.73 L613.372 1350.75 Q611.08 1351.73 608.673 1352.24 Q606.265 1352.75 603.788 1352.75 Q597.585 1352.75 593.95 1349.13 Q590.339 1345.52 590.339 1339.37 Q590.339 1333 593.765 1329.27 Q597.214 1325.52 603.048 1325.52 Q608.279 1325.52 611.312 1328.9 Q614.367 1332.26 614.367 1338.05 M610.108 1336.8 Q610.062 1333.3 608.14 1331.22 Q606.242 1329.13 603.094 1329.13 Q599.529 1329.13 597.376 1331.15 Q595.247 1333.16 594.923 1336.82 L610.108 1336.8 Z" fill="#000000" fill-rule="nonzero" fill-opacity="1" /><polyline clip-path="url(#clip860)" style="stroke:#ff0000; stroke-linecap:round; stroke-linejoin:round; stroke-width:4; stroke-opacity:1; fill:none" points="238.832,1386.63 386.315,1386.63 "/>
<path clip-path="url(#clip860)" d="M431.243 1382.97 Q432.84 1380.1 435.062 1378.73 Q437.285 1377.36 440.294 1377.36 Q444.345 1377.36 446.544 1380.21 Q448.743 1383.03 448.743 1388.27 L448.743 1403.91 L444.461 1403.91 L444.461 1388.41 Q444.461 1384.68 443.141 1382.87 Q441.822 1381.07 439.113 1381.07 Q435.803 1381.07 433.882 1383.27 Q431.961 1385.47 431.961 1389.26 L431.961 1403.91 L427.678 1403.91 L427.678 1388.41 Q427.678 1384.66 426.359 1382.87 Q425.039 1381.07 422.285 1381.07 Q419.021 1381.07 417.1 1383.29 Q415.178 1385.49 415.178 1389.26 L415.178 1403.91 L410.896 1403.91 L410.896 1377.99 L415.178 1377.99 L415.178 1382.02 Q416.637 1379.63 418.674 1378.5 Q420.711 1377.36 423.512 1377.36 Q426.336 1377.36 428.303 1378.8 Q430.294 1380.23 431.243 1382.97 Z" fill="#000000" fill-rule="nonzero" fill-opacity="1" /><path clip-path="url(#clip860)" d="M479.414 1389.89 L479.414 1391.97 L459.831 1391.97 Q460.109 1396.37 462.47 1398.68 Q464.854 1400.97 469.09 1400.97 Q471.544 1400.97 473.835 1400.37 Q476.15 1399.77 478.419 1398.57 L478.419 1402.59 Q476.127 1403.57 473.72 1404.08 Q471.312 1404.59 468.835 1404.59 Q462.632 1404.59 458.998 1400.97 Q455.386 1397.36 455.386 1391.21 Q455.386 1384.84 458.812 1381.11 Q462.261 1377.36 468.095 1377.36 Q473.326 1377.36 476.359 1380.74 Q479.414 1384.1 479.414 1389.89 M475.155 1388.64 Q475.109 1385.14 473.187 1383.06 Q471.289 1380.97 468.141 1380.97 Q464.576 1380.97 462.423 1382.99 Q460.294 1385 459.97 1388.66 L475.155 1388.64 Z" fill="#000000" fill-rule="nonzero" fill-opacity="1" /><path clip-path="url(#clip860)" d="M498.187 1390.88 Q493.025 1390.88 491.034 1392.06 Q489.044 1393.24 489.044 1396.09 Q489.044 1398.36 490.525 1399.7 Q492.03 1401.02 494.599 1401.02 Q498.141 1401.02 500.27 1398.52 Q502.423 1396 502.423 1391.83 L502.423 1390.88 L498.187 1390.88 M506.682 1389.12 L506.682 1403.91 L502.423 1403.91 L502.423 1399.98 Q500.965 1402.34 498.789 1403.47 Q496.613 1404.59 493.465 1404.59 Q489.483 1404.59 487.122 1402.36 Q484.784 1400.12 484.784 1396.37 Q484.784 1391.99 487.701 1389.77 Q490.641 1387.55 496.451 1387.55 L502.423 1387.55 L502.423 1387.13 Q502.423 1384.19 500.479 1382.6 Q498.557 1380.97 495.062 1380.97 Q492.84 1380.97 490.733 1381.51 Q488.627 1382.04 486.683 1383.1 L486.683 1379.17 Q489.021 1378.27 491.22 1377.83 Q493.419 1377.36 495.502 1377.36 Q501.127 1377.36 503.905 1380.28 Q506.682 1383.2 506.682 1389.12 Z" fill="#000000" fill-rule="nonzero" fill-opacity="1" /><path clip-path="url(#clip860)" d="M531.983 1378.75 L531.983 1382.78 Q530.178 1381.85 528.233 1381.39 Q526.289 1380.93 524.206 1380.93 Q521.034 1380.93 519.437 1381.9 Q517.863 1382.87 517.863 1384.82 Q517.863 1386.3 518.997 1387.16 Q520.131 1387.99 523.557 1388.75 L525.016 1389.08 Q529.553 1390.05 531.451 1391.83 Q533.372 1393.59 533.372 1396.76 Q533.372 1400.37 530.502 1402.48 Q527.655 1404.59 522.655 1404.59 Q520.571 1404.59 518.303 1404.17 Q516.057 1403.78 513.557 1402.97 L513.557 1398.57 Q515.919 1399.79 518.21 1400.42 Q520.502 1401.02 522.747 1401.02 Q525.756 1401.02 527.377 1400 Q528.997 1398.96 528.997 1397.09 Q528.997 1395.35 527.817 1394.42 Q526.659 1393.5 522.701 1392.64 L521.219 1392.29 Q517.261 1391.46 515.502 1389.75 Q513.743 1388.01 513.743 1385 Q513.743 1381.35 516.335 1379.35 Q518.928 1377.36 523.696 1377.36 Q526.057 1377.36 528.141 1377.71 Q530.224 1378.06 531.983 1378.75 Z" fill="#000000" fill-rule="nonzero" fill-opacity="1" /><path clip-path="url(#clip860)" d="M539.715 1393.68 L539.715 1377.99 L543.974 1377.99 L543.974 1393.52 Q543.974 1397.2 545.409 1399.05 Q546.844 1400.88 549.715 1400.88 Q553.164 1400.88 555.154 1398.68 Q557.168 1396.48 557.168 1392.69 L557.168 1377.99 L561.428 1377.99 L561.428 1403.91 L557.168 1403.91 L557.168 1399.93 Q555.617 1402.29 553.557 1403.45 Q551.52 1404.59 548.812 1404.59 Q544.344 1404.59 542.029 1401.81 Q539.715 1399.03 539.715 1393.68 M550.432 1377.36 L550.432 1377.36 Z" fill="#000000" fill-rule="nonzero" fill-opacity="1" /><path clip-path="url(#clip860)" d="M585.224 1381.97 Q584.506 1381.55 583.65 1381.37 Q582.816 1381.16 581.798 1381.16 Q578.187 1381.16 576.242 1383.52 Q574.321 1385.86 574.321 1390.26 L574.321 1403.91 L570.039 1403.91 L570.039 1377.99 L574.321 1377.99 L574.321 1382.02 Q575.664 1379.66 577.816 1378.52 Q579.969 1377.36 583.048 1377.36 Q583.488 1377.36 584.02 1377.43 Q584.552 1377.48 585.201 1377.6 L585.224 1381.97 Z" fill="#000000" fill-rule="nonzero" fill-opacity="1" /><path clip-path="url(#clip860)" d="M610.825 1389.89 L610.825 1391.97 L591.242 1391.97 Q591.52 1396.37 593.881 1398.68 Q596.265 1400.97 600.501 1400.97 Q602.955 1400.97 605.247 1400.37 Q607.562 1399.77 609.83 1398.57 L609.83 1402.59 Q607.538 1403.57 605.131 1404.08 Q602.724 1404.59 600.247 1404.59 Q594.043 1404.59 590.409 1400.97 Q586.798 1397.36 586.798 1391.21 Q586.798 1384.84 590.224 1381.11 Q593.673 1377.36 599.506 1377.36 Q604.737 1377.36 607.77 1380.74 Q610.825 1384.1 610.825 1389.89 M606.566 1388.64 Q606.52 1385.14 604.599 1383.06 Q602.7 1380.97 599.552 1380.97 Q595.988 1380.97 593.835 1382.99 Q591.705 1385 591.381 1388.66 L606.566 1388.64 Z" fill="#000000" fill-rule="nonzero" fill-opacity="1" /><path clip-path="url(#clip860)" d="M638.001 1382.97 Q639.598 1380.1 641.821 1378.73 Q644.043 1377.36 647.052 1377.36 Q651.103 1377.36 653.302 1380.21 Q655.501 1383.03 655.501 1388.27 L655.501 1403.91 L651.219 1403.91 L651.219 1388.41 Q651.219 1384.68 649.899 1382.87 Q648.58 1381.07 645.872 1381.07 Q642.561 1381.07 640.64 1383.27 Q638.719 1385.47 638.719 1389.26 L638.719 1403.91 L634.436 1403.91 L634.436 1388.41 Q634.436 1384.66 633.117 1382.87 Q631.798 1381.07 629.043 1381.07 Q625.779 1381.07 623.858 1383.29 Q621.936 1385.49 621.936 1389.26 L621.936 1403.91 L617.654 1403.91 L617.654 1377.99 L621.936 1377.99 L621.936 1382.02 Q623.395 1379.63 625.432 1378.5 Q627.469 1377.36 630.27 1377.36 Q633.094 1377.36 635.061 1378.8 Q637.052 1380.23 638.001 1382.97 Z" fill="#000000" fill-rule="nonzero" fill-opacity="1" /><path clip-path="url(#clip860)" d="M686.172 1389.89 L686.172 1391.97 L666.589 1391.97 Q666.867 1396.37 669.228 1398.68 Q671.612 1400.97 675.848 1400.97 Q678.302 1400.97 680.594 1400.37 Q682.908 1399.77 685.177 1398.57 L685.177 1402.59 Q682.885 1403.57 680.478 1404.08 Q678.07 1404.59 675.594 1404.59 Q669.39 1404.59 665.756 1400.97 Q662.145 1397.36 662.145 1391.21 Q662.145 1384.84 665.57 1381.11 Q669.02 1377.36 674.853 1377.36 Q680.084 1377.36 683.117 1380.74 Q686.172 1384.1 686.172 1389.89 M681.913 1388.64 Q681.867 1385.14 679.945 1383.06 Q678.047 1380.97 674.899 1380.97 Q671.334 1380.97 669.182 1382.99 Q667.052 1385 666.728 1388.66 L681.913 1388.64 Z" fill="#000000" fill-rule="nonzero" fill-opacity="1" /><path clip-path="url(#clip860)" d="M714.714 1388.27 L714.714 1403.91 L710.455 1403.91 L710.455 1388.41 Q710.455 1384.72 709.019 1382.9 Q707.584 1381.07 704.714 1381.07 Q701.265 1381.07 699.274 1383.27 Q697.283 1385.47 697.283 1389.26 L697.283 1403.91 L693.001 1403.91 L693.001 1377.99 L697.283 1377.99 L697.283 1382.02 Q698.811 1379.68 700.871 1378.52 Q702.955 1377.36 705.663 1377.36 Q710.13 1377.36 712.422 1380.14 Q714.714 1382.9 714.714 1388.27 Z" fill="#000000" fill-rule="nonzero" fill-opacity="1" /><path clip-path="url(#clip860)" d="M727.422 1370.63 L727.422 1377.99 L736.195 1377.99 L736.195 1381.3 L727.422 1381.3 L727.422 1395.37 Q727.422 1398.54 728.278 1399.45 Q729.158 1400.35 731.82 1400.35 L736.195 1400.35 L736.195 1403.91 L731.82 1403.91 Q726.89 1403.91 725.015 1402.09 Q723.14 1400.23 723.14 1395.37 L723.14 1381.3 L720.015 1381.3 L720.015 1377.99 L723.14 1377.99 L723.14 1370.63 L727.422 1370.63 Z" fill="#000000" fill-rule="nonzero" fill-opacity="1" /></svg>
