<?xml version="1.0" encoding="utf-8"?>
<svg xmlns="http://www.w3.org/2000/svg" xmlns:xlink="http://www.w3.org/1999/xlink" width="600" height="400" viewBox="0 0 2400 1600">
<defs>
  <clipPath id="clip890">
    <rect x="0" y="0" width="2400" height="1600"/>
  </clipPath>
</defs>
<path clip-path="url(#clip890)" d="M0 1600 L2400 1600 L2400 0 L0 0  Z" fill="#ffffff" fill-rule="evenodd" fill-opacity="1"/>
<defs>
  <clipPath id="clip891">
    <rect x="177" y="47" width="2176" height="1440"/>
  </clipPath>
</defs>
<path clip-path="url(#clip890)" d="M177.871 1486.45 L2352.76 1486.45 L2352.76 47.2441 L177.871 47.2441  Z" fill="#ffffff" fill-rule="evenodd" fill-opacity="1"/>
<polyline clip-path="url(#clip891)" style="stroke:#000000; stroke-linecap:round; stroke-linejoin:round; stroke-width:2; stroke-opacity:0.1; fill:none" points="385.795,1486.45 385.795,47.2441 "/>
<polyline clip-path="url(#clip891)" style="stroke:#000000; stroke-linecap:round; stroke-linejoin:round; stroke-width:2; stroke-opacity:0.1; fill:none" points="811.131,1486.45 811.131,47.2441 "/>
<polyline clip-path="url(#clip891)" style="stroke:#000000; stroke-linecap:round; stroke-linejoin:round; stroke-width:2; stroke-opacity:0.1; fill:none" points="1236.47,1486.45 1236.47,47.2441 "/>
<polyline clip-path="url(#clip891)" style="stroke:#000000; stroke-linecap:round; stroke-linejoin:round; stroke-width:2; stroke-opacity:0.1; fill:none" points="1661.8,1486.45 1661.8,47.2441 "/>
<polyline clip-path="url(#clip891)" style="stroke:#000000; stroke-linecap:round; stroke-linejoin:round; stroke-width:2; stroke-opacity:0.1; fill:none" points="2087.14,1486.45 2087.14,47.2441 "/>
<polyline clip-path="url(#clip891)" style="stroke:#000000; stroke-linecap:round; stroke-linejoin:round; stroke-width:2; stroke-opacity:0.1; fill:none" points="177.871,1482.09 2352.76,1482.09 "/>
<polyline clip-path="url(#clip891)" style="stroke:#000000; stroke-linecap:round; stroke-linejoin:round; stroke-width:2; stroke-opacity:0.1; fill:none" points="177.871,1175.66 2352.76,1175.66 "/>
<polyline clip-path="url(#clip891)" style="stroke:#000000; stroke-linecap:round; stroke-linejoin:round; stroke-width:2; stroke-opacity:0.1; fill:none" points="177.871,869.228 2352.76,869.228 "/>
<polyline clip-path="url(#clip891)" style="stroke:#000000; stroke-linecap:round; stroke-linejoin:round; stroke-width:2; stroke-opacity:0.1; fill:none" points="177.871,562.798 2352.76,562.798 "/>
<polyline clip-path="url(#clip891)" style="stroke:#000000; stroke-linecap:round; stroke-linejoin:round; stroke-width:2; stroke-opacity:0.1; fill:none" points="177.871,256.368 2352.76,256.368 "/>
<polyline clip-path="url(#clip890)" style="stroke:#000000; stroke-linecap:round; stroke-linejoin:round; stroke-width:4; stroke-opacity:1; fill:none" points="177.871,1486.45 2352.76,1486.45 "/>
<polyline clip-path="url(#clip890)" style="stroke:#000000; stroke-linecap:round; stroke-linejoin:round; stroke-width:4; stroke-opacity:1; fill:none" points="385.795,1486.45 385.795,1467.55 "/>
<polyline clip-path="url(#clip890)" style="stroke:#000000; stroke-linecap:round; stroke-linejoin:round; stroke-width:4; stroke-opacity:1; fill:none" points="811.131,1486.45 811.131,1467.55 "/>
<polyline clip-path="url(#clip890)" style="stroke:#000000; stroke-linecap:round; stroke-linejoin:round; stroke-width:4; stroke-opacity:1; fill:none" points="1236.47,1486.45 1236.47,1467.55 "/>
<polyline clip-path="url(#clip890)" style="stroke:#000000; stroke-linecap:round; stroke-linejoin:round; stroke-width:4; stroke-opacity:1; fill:none" points="1661.8,1486.45 1661.8,1467.55 "/>
<polyline clip-path="url(#clip890)" style="stroke:#000000; stroke-linecap:round; stroke-linejoin:round; stroke-width:4; stroke-opacity:1; fill:none" points="2087.14,1486.45 2087.14,1467.55 "/>
<path clip-path="url(#clip890)" d="M339.857 1532.02 L369.533 1532.02 L369.533 1535.95 L339.857 1535.95 L339.857 1532.02 Z" fill="#000000" fill-rule="nonzero" fill-opacity="1" /><path clip-path="url(#clip890)" d="M393.792 1530.21 Q397.149 1530.93 399.024 1533.2 Q400.922 1535.47 400.922 1538.8 Q400.922 1543.92 397.403 1546.72 Q393.885 1549.52 387.403 1549.52 Q385.228 1549.52 382.913 1549.08 Q380.621 1548.66 378.167 1547.81 L378.167 1543.29 Q380.112 1544.43 382.427 1545.01 Q384.741 1545.58 387.265 1545.58 Q391.663 1545.58 393.954 1543.85 Q396.269 1542.11 396.269 1538.8 Q396.269 1535.75 394.116 1534.03 Q391.987 1532.3 388.167 1532.3 L384.14 1532.3 L384.14 1528.45 L388.352 1528.45 Q391.802 1528.45 393.63 1527.09 Q395.459 1525.7 395.459 1523.11 Q395.459 1520.45 393.561 1519.03 Q391.686 1517.6 388.167 1517.6 Q386.246 1517.6 384.047 1518.01 Q381.848 1518.43 379.209 1519.31 L379.209 1515.14 Q381.871 1514.4 384.186 1514.03 Q386.524 1513.66 388.584 1513.66 Q393.908 1513.66 397.01 1516.09 Q400.112 1518.5 400.112 1522.62 Q400.112 1525.49 398.468 1527.48 Q396.825 1529.45 393.792 1530.21 Z" fill="#000000" fill-rule="nonzero" fill-opacity="1" /><path clip-path="url(#clip890)" d="M419.788 1517.37 Q416.176 1517.37 414.348 1520.93 Q412.542 1524.47 412.542 1531.6 Q412.542 1538.71 414.348 1542.27 Q416.176 1545.82 419.788 1545.82 Q423.422 1545.82 425.227 1542.27 Q427.056 1538.71 427.056 1531.6 Q427.056 1524.47 425.227 1520.93 Q423.422 1517.37 419.788 1517.37 M419.788 1513.66 Q425.598 1513.66 428.653 1518.27 Q431.732 1522.85 431.732 1531.6 Q431.732 1540.33 428.653 1544.94 Q425.598 1549.52 419.788 1549.52 Q413.977 1549.52 410.899 1544.94 Q407.843 1540.33 407.843 1531.6 Q407.843 1522.85 410.899 1518.27 Q413.977 1513.66 419.788 1513.66 Z" fill="#000000" fill-rule="nonzero" fill-opacity="1" /><path clip-path="url(#clip890)" d="M811.131 1517.37 Q807.52 1517.37 805.691 1520.93 Q803.885 1524.47 803.885 1531.6 Q803.885 1538.71 805.691 1542.27 Q807.52 1545.82 811.131 1545.82 Q814.765 1545.82 816.571 1542.27 Q818.399 1538.71 818.399 1531.6 Q818.399 1524.47 816.571 1520.93 Q814.765 1517.37 811.131 1517.37 M811.131 1513.66 Q816.941 1513.66 819.996 1518.27 Q823.075 1522.85 823.075 1531.6 Q823.075 1540.33 819.996 1544.94 Q816.941 1549.52 811.131 1549.52 Q805.321 1549.52 802.242 1544.94 Q799.186 1540.33 799.186 1531.6 Q799.186 1522.85 802.242 1518.27 Q805.321 1513.66 811.131 1513.66 Z" fill="#000000" fill-rule="nonzero" fill-opacity="1" /><path clip-path="url(#clip890)" d="M1225.31 1530.21 Q1228.67 1530.93 1230.54 1533.2 Q1232.44 1535.47 1232.44 1538.8 Q1232.44 1543.92 1228.92 1546.72 Q1225.4 1549.52 1218.92 1549.52 Q1216.74 1549.52 1214.43 1549.08 Q1212.14 1548.66 1209.68 1547.81 L1209.68 1543.29 Q1211.63 1544.43 1213.94 1545.01 Q1216.26 1545.58 1218.78 1545.58 Q1223.18 1545.58 1225.47 1543.85 Q1227.79 1542.11 1227.79 1538.8 Q1227.79 1535.75 1225.63 1534.03 Q1223.5 1532.3 1219.68 1532.3 L1215.66 1532.3 L1215.66 1528.45 L1219.87 1528.45 Q1223.32 1528.45 1225.15 1527.09 Q1226.98 1525.7 1226.98 1523.11 Q1226.98 1520.45 1225.08 1519.03 Q1223.2 1517.6 1219.68 1517.6 Q1217.76 1517.6 1215.56 1518.01 Q1213.37 1518.43 1210.73 1519.31 L1210.73 1515.14 Q1213.39 1514.4 1215.7 1514.03 Q1218.04 1513.66 1220.1 1513.66 Q1225.43 1513.66 1228.53 1516.09 Q1231.63 1518.5 1231.63 1522.62 Q1231.63 1525.49 1229.99 1527.48 Q1228.34 1529.45 1225.31 1530.21 Z" fill="#000000" fill-rule="nonzero" fill-opacity="1" /><path clip-path="url(#clip890)" d="M1251.3 1517.37 Q1247.69 1517.37 1245.87 1520.93 Q1244.06 1524.47 1244.06 1531.6 Q1244.06 1538.71 1245.87 1542.27 Q1247.69 1545.82 1251.3 1545.82 Q1254.94 1545.82 1256.74 1542.27 Q1258.57 1538.71 1258.57 1531.6 Q1258.57 1524.47 1256.74 1520.93 Q1254.94 1517.37 1251.3 1517.37 M1251.3 1513.66 Q1257.11 1513.66 1260.17 1518.27 Q1263.25 1522.85 1263.25 1531.6 Q1263.25 1540.33 1260.17 1544.94 Q1257.11 1549.52 1251.3 1549.52 Q1245.49 1549.52 1242.42 1544.94 Q1239.36 1540.33 1239.36 1531.6 Q1239.36 1522.85 1242.42 1518.27 Q1245.49 1513.66 1251.3 1513.66 Z" fill="#000000" fill-rule="nonzero" fill-opacity="1" /><path clip-path="url(#clip890)" d="M1647.21 1529.7 Q1644.06 1529.7 1642.21 1531.86 Q1640.38 1534.01 1640.38 1537.76 Q1640.38 1541.49 1642.21 1543.66 Q1644.06 1545.82 1647.21 1545.82 Q1650.36 1545.82 1652.19 1543.66 Q1654.04 1541.49 1654.04 1537.76 Q1654.04 1534.01 1652.19 1531.86 Q1650.36 1529.7 1647.21 1529.7 M1656.49 1515.05 L1656.49 1519.31 Q1654.73 1518.48 1652.93 1518.04 Q1651.14 1517.6 1649.38 1517.6 Q1644.75 1517.6 1642.3 1520.72 Q1639.87 1523.85 1639.52 1530.17 Q1640.89 1528.15 1642.95 1527.09 Q1645.01 1526 1647.49 1526 Q1652.69 1526 1655.7 1529.17 Q1658.74 1532.32 1658.74 1537.76 Q1658.74 1543.08 1655.59 1546.3 Q1652.44 1549.52 1647.21 1549.52 Q1641.21 1549.52 1638.04 1544.94 Q1634.87 1540.33 1634.87 1531.6 Q1634.87 1523.41 1638.76 1518.55 Q1642.65 1513.66 1649.2 1513.66 Q1650.96 1513.66 1652.74 1514.01 Q1654.55 1514.36 1656.49 1515.05 Z" fill="#000000" fill-rule="nonzero" fill-opacity="1" /><path clip-path="url(#clip890)" d="M1676.79 1517.37 Q1673.18 1517.37 1671.35 1520.93 Q1669.55 1524.47 1669.55 1531.6 Q1669.55 1538.71 1671.35 1542.27 Q1673.18 1545.82 1676.79 1545.82 Q1680.43 1545.82 1682.23 1542.27 Q1684.06 1538.71 1684.06 1531.6 Q1684.06 1524.47 1682.23 1520.93 Q1680.43 1517.37 1676.79 1517.37 M1676.79 1513.66 Q1682.6 1513.66 1685.66 1518.27 Q1688.74 1522.85 1688.74 1531.6 Q1688.74 1540.33 1685.66 1544.94 Q1682.6 1549.52 1676.79 1549.52 Q1670.98 1549.52 1667.9 1544.94 Q1664.85 1540.33 1664.85 1531.6 Q1664.85 1522.85 1667.9 1518.27 Q1670.98 1513.66 1676.79 1513.66 Z" fill="#000000" fill-rule="nonzero" fill-opacity="1" /><path clip-path="url(#clip890)" d="M2062.27 1548.13 L2062.27 1543.87 Q2064.03 1544.7 2065.83 1545.14 Q2067.64 1545.58 2069.37 1545.58 Q2074 1545.58 2076.43 1542.48 Q2078.89 1539.36 2079.23 1533.01 Q2077.89 1535.01 2075.83 1536.07 Q2073.77 1537.13 2071.27 1537.13 Q2066.09 1537.13 2063.05 1534.01 Q2060.04 1530.86 2060.04 1525.42 Q2060.04 1520.1 2063.19 1516.88 Q2066.34 1513.66 2071.57 1513.66 Q2077.57 1513.66 2080.72 1518.27 Q2083.89 1522.85 2083.89 1531.6 Q2083.89 1539.77 2080 1544.66 Q2076.13 1549.52 2069.58 1549.52 Q2067.82 1549.52 2066.02 1549.17 Q2064.21 1548.82 2062.27 1548.13 M2071.57 1533.48 Q2074.72 1533.48 2076.55 1531.32 Q2078.4 1529.17 2078.4 1525.42 Q2078.4 1521.7 2076.55 1519.54 Q2074.72 1517.37 2071.57 1517.37 Q2068.42 1517.37 2066.57 1519.54 Q2064.74 1521.7 2064.74 1525.42 Q2064.74 1529.17 2066.57 1531.32 Q2068.42 1533.48 2071.57 1533.48 Z" fill="#000000" fill-rule="nonzero" fill-opacity="1" /><path clip-path="url(#clip890)" d="M2102.29 1517.37 Q2098.68 1517.37 2096.85 1520.93 Q2095.04 1524.47 2095.04 1531.6 Q2095.04 1538.71 2096.85 1542.27 Q2098.68 1545.82 2102.29 1545.82 Q2105.92 1545.82 2107.73 1542.27 Q2109.56 1538.71 2109.56 1531.6 Q2109.56 1524.47 2107.73 1520.93 Q2105.92 1517.37 2102.29 1517.37 M2102.29 1513.66 Q2108.1 1513.66 2111.16 1518.27 Q2114.23 1522.85 2114.23 1531.6 Q2114.23 1540.33 2111.16 1544.94 Q2108.1 1549.52 2102.29 1549.52 Q2096.48 1549.52 2093.4 1544.94 Q2090.35 1540.33 2090.35 1531.6 Q2090.35 1522.85 2093.4 1518.27 Q2096.48 1513.66 2102.29 1513.66 Z" fill="#000000" fill-rule="nonzero" fill-opacity="1" /><polyline clip-path="url(#clip890)" style="stroke:#000000; stroke-linecap:round; stroke-linejoin:round; stroke-width:4; stroke-opacity:1; fill:none" points="177.871,1486.45 177.871,47.2441 "/>
<polyline clip-path="url(#clip890)" style="stroke:#000000; stroke-linecap:round; stroke-linejoin:round; stroke-width:4; stroke-opacity:1; fill:none" points="177.871,1482.09 196.769,1482.09 "/>
<polyline clip-path="url(#clip890)" style="stroke:#000000; stroke-linecap:round; stroke-linejoin:round; stroke-width:4; stroke-opacity:1; fill:none" points="177.871,1175.66 196.769,1175.66 "/>
<polyline clip-path="url(#clip890)" style="stroke:#000000; stroke-linecap:round; stroke-linejoin:round; stroke-width:4; stroke-opacity:1; fill:none" points="177.871,869.228 196.769,869.228 "/>
<polyline clip-path="url(#clip890)" style="stroke:#000000; stroke-linecap:round; stroke-linejoin:round; stroke-width:4; stroke-opacity:1; fill:none" points="177.871,562.798 196.769,562.798 "/>
<polyline clip-path="url(#clip890)" style="stroke:#000000; stroke-linecap:round; stroke-linejoin:round; stroke-width:4; stroke-opacity:1; fill:none" points="177.871,256.368 196.769,256.368 "/>
<path clip-path="url(#clip890)" d="M50.9921 1482.54 L80.6679 1482.54 L80.6679 1486.48 L50.9921 1486.48 L50.9921 1482.54 Z" fill="#000000" fill-rule="nonzero" fill-opacity="1" /><path clip-path="url(#clip890)" d="M94.7882 1495.43 L111.108 1495.43 L111.108 1499.37 L89.1632 1499.37 L89.1632 1495.43 Q91.8252 1492.68 96.4085 1488.05 Q101.015 1483.4 102.196 1482.05 Q104.441 1479.53 105.321 1477.8 Q106.223 1476.04 106.223 1474.35 Q106.223 1471.59 104.279 1469.86 Q102.358 1468.12 99.2558 1468.12 Q97.0567 1468.12 94.603 1468.88 Q92.1725 1469.65 89.3947 1471.2 L89.3947 1466.48 Q92.2188 1465.34 94.6724 1464.76 Q97.1261 1464.18 99.1632 1464.18 Q104.534 1464.18 107.728 1466.87 Q110.922 1469.55 110.922 1474.05 Q110.922 1476.18 110.112 1478.1 Q109.325 1479.99 107.219 1482.59 Q106.64 1483.26 103.538 1486.48 Q100.436 1489.67 94.7882 1495.43 Z" fill="#000000" fill-rule="nonzero" fill-opacity="1" /><path clip-path="url(#clip890)" d="M120.969 1464.81 L139.325 1464.81 L139.325 1468.74 L125.251 1468.74 L125.251 1477.22 Q126.27 1476.87 127.288 1476.71 Q128.307 1476.52 129.325 1476.52 Q135.112 1476.52 138.492 1479.69 Q141.871 1482.86 141.871 1488.28 Q141.871 1493.86 138.399 1496.96 Q134.927 1500.04 128.607 1500.04 Q126.432 1500.04 124.163 1499.67 Q121.918 1499.3 119.51 1498.56 L119.51 1493.86 Q121.594 1494.99 123.816 1495.55 Q126.038 1496.11 128.515 1496.11 Q132.519 1496.11 134.857 1494 Q137.195 1491.89 137.195 1488.28 Q137.195 1484.67 134.857 1482.56 Q132.519 1480.46 128.515 1480.46 Q126.64 1480.46 124.765 1480.87 Q122.913 1481.29 120.969 1482.17 L120.969 1464.81 Z" fill="#000000" fill-rule="nonzero" fill-opacity="1" /><path clip-path="url(#clip890)" d="M129.927 1161.46 Q126.316 1161.46 124.487 1165.02 Q122.682 1168.56 122.682 1175.69 Q122.682 1182.8 124.487 1186.36 Q126.316 1189.91 129.927 1189.91 Q133.561 1189.91 135.367 1186.36 Q137.195 1182.8 137.195 1175.69 Q137.195 1168.56 135.367 1165.02 Q133.561 1161.46 129.927 1161.46 M129.927 1157.75 Q135.737 1157.75 138.793 1162.36 Q141.871 1166.94 141.871 1175.69 Q141.871 1184.42 138.793 1189.03 Q135.737 1193.61 129.927 1193.61 Q124.117 1193.61 121.038 1189.03 Q117.983 1184.42 117.983 1175.69 Q117.983 1166.94 121.038 1162.36 Q124.117 1157.75 129.927 1157.75 Z" fill="#000000" fill-rule="nonzero" fill-opacity="1" /><path clip-path="url(#clip890)" d="M94.7882 882.573 L111.108 882.573 L111.108 886.508 L89.1632 886.508 L89.1632 882.573 Q91.8252 879.819 96.4085 875.189 Q101.015 870.536 102.196 869.194 Q104.441 866.671 105.321 864.934 Q106.223 863.175 106.223 861.485 Q106.223 858.731 104.279 856.995 Q102.358 855.259 99.2558 855.259 Q97.0567 855.259 94.603 856.022 Q92.1725 856.786 89.3947 858.337 L89.3947 853.615 Q92.2188 852.481 94.6724 851.902 Q97.1261 851.323 99.1632 851.323 Q104.534 851.323 107.728 854.009 Q110.922 856.694 110.922 861.185 Q110.922 863.314 110.112 865.235 Q109.325 867.134 107.219 869.726 Q106.64 870.397 103.538 873.615 Q100.436 876.809 94.7882 882.573 Z" fill="#000000" fill-rule="nonzero" fill-opacity="1" /><path clip-path="url(#clip890)" d="M120.969 851.948 L139.325 851.948 L139.325 855.884 L125.251 855.884 L125.251 864.356 Q126.27 864.009 127.288 863.847 Q128.307 863.661 129.325 863.661 Q135.112 863.661 138.492 866.833 Q141.871 870.004 141.871 875.421 Q141.871 880.999 138.399 884.101 Q134.927 887.18 128.607 887.18 Q126.432 887.18 124.163 886.809 Q121.918 886.439 119.51 885.698 L119.51 880.999 Q121.594 882.133 123.816 882.689 Q126.038 883.245 128.515 883.245 Q132.519 883.245 134.857 881.138 Q137.195 879.032 137.195 875.421 Q137.195 871.809 134.857 869.703 Q132.519 867.597 128.515 867.597 Q126.64 867.597 124.765 868.013 Q122.913 868.43 120.969 869.309 L120.969 851.948 Z" fill="#000000" fill-rule="nonzero" fill-opacity="1" /><path clip-path="url(#clip890)" d="M89.8114 545.518 L108.168 545.518 L108.168 549.453 L94.0937 549.453 L94.0937 557.925 Q95.1123 557.578 96.1308 557.416 Q97.1493 557.231 98.1678 557.231 Q103.955 557.231 107.334 560.402 Q110.714 563.573 110.714 568.99 Q110.714 574.569 107.242 577.671 Q103.77 580.749 97.4502 580.749 Q95.2743 580.749 93.0058 580.379 Q90.7604 580.009 88.353 579.268 L88.353 574.569 Q90.4364 575.703 92.6586 576.259 Q94.8808 576.814 97.3576 576.814 Q101.362 576.814 103.7 574.708 Q106.038 572.601 106.038 568.99 Q106.038 565.379 103.7 563.273 Q101.362 561.166 97.3576 561.166 Q95.4826 561.166 93.6076 561.583 Q91.7558 561.999 89.8114 562.879 L89.8114 545.518 Z" fill="#000000" fill-rule="nonzero" fill-opacity="1" /><path clip-path="url(#clip890)" d="M129.927 548.597 Q126.316 548.597 124.487 552.161 Q122.682 555.703 122.682 562.833 Q122.682 569.939 124.487 573.504 Q126.316 577.046 129.927 577.046 Q133.561 577.046 135.367 573.504 Q137.195 569.939 137.195 562.833 Q137.195 555.703 135.367 552.161 Q133.561 548.597 129.927 548.597 M129.927 544.893 Q135.737 544.893 138.793 549.499 Q141.871 554.083 141.871 562.833 Q141.871 571.56 138.793 576.166 Q135.737 580.749 129.927 580.749 Q124.117 580.749 121.038 576.166 Q117.983 571.56 117.983 562.833 Q117.983 554.083 121.038 549.499 Q124.117 544.893 129.927 544.893 Z" fill="#000000" fill-rule="nonzero" fill-opacity="1" /><path clip-path="url(#clip890)" d="M89.5799 239.088 L111.802 239.088 L111.802 241.078 L99.2558 273.648 L94.3715 273.648 L106.177 243.023 L89.5799 243.023 L89.5799 239.088 Z" fill="#000000" fill-rule="nonzero" fill-opacity="1" /><path clip-path="url(#clip890)" d="M120.969 239.088 L139.325 239.088 L139.325 243.023 L125.251 243.023 L125.251 251.495 Q126.27 251.148 127.288 250.986 Q128.307 250.8 129.325 250.8 Q135.112 250.8 138.492 253.972 Q141.871 257.143 141.871 262.56 Q141.871 268.138 138.399 271.24 Q134.927 274.319 128.607 274.319 Q126.432 274.319 124.163 273.948 Q121.918 273.578 119.51 272.837 L119.51 268.138 Q121.594 269.273 123.816 269.828 Q126.038 270.384 128.515 270.384 Q132.519 270.384 134.857 268.277 Q137.195 266.171 137.195 262.56 Q137.195 258.949 134.857 256.842 Q132.519 254.736 128.515 254.736 Q126.64 254.736 124.765 255.152 Q122.913 255.569 120.969 256.449 L120.969 239.088 Z" fill="#000000" fill-rule="nonzero" fill-opacity="1" /><polyline clip-path="url(#clip891)" style="stroke:#0000ff; stroke-linecap:round; stroke-linejoin:round; stroke-width:4; stroke-opacity:1; fill:none" points="239.425,715.394 267.997,720.971 271.23,716.505 282.997,714.957 290.516,714.025 311.647,716.584 334.197,721.581 360.791,723.843 387.472,725.72 416.917,729.64 445.714,730.129 470.978,730.403 505.487,731.726 528.611,737.412 551.435,741.438 585.336,745.304 610.824,747.125 632.36,751.394 660.938,757.912 683.663,765.436 706.12,773.26 729.224,780.136 756.358,786.911 777.959,795.522 803.457,800.928 834.481,808.551 857.217,807.972 889.956,810.353 915.409,818.506 941.416,825.114 971.515,834.556 996.077,842.943 1021.53,850.582 1040.37,861.055 1057.66,873.534 1066.09,879.111 1085.89,882.078 1102.39,884.061 1123.31,885.502 1148.82,888.489 1174.33,897.969 1201.09,907.554 1223.18,912.801 1248.05,916.334 1279.85,918.131 1309,919.419 1340.56,923.575 1367.81,928.845 1393.64,932.417 1418.43,934.78 1450.02,934.903 1474.16,934.809 1501,934.352 1527,932.082 1555.59,926.683 1583.99,926.163 1611.27,924.362 1636.35,924.764 1656.85,918.894 1674.74,916.189 1691.36,909.761 1708.72,903.092 1728.92,902.284 1750.77,899.803 1772.79,901.146 1792.05,904.368 1813.63,910.764 1833.02,922.137 1853.97,935.126 1869.43,946.426 1884.86,962.831 1895.85,977.022 1903.65,991.584 1913.5,1010.16 1924.98,1028.12 1937.05,1046.97 1947.08,1058.1 1964.37,1065.56 1978.49,1068.55 1988.36,1067.54 2009.49,1061.22 2025.83,1055.83 2046.15,1036.87 2057.62,1021.63 2062.29,1001.13 2065.67,982.429 2064.3,960.104 2051.46,944.93 2033.67,936.559 2010.3,926.991 1979.71,930.071 1954.5,928.889 1935.35,926.052 1917.51,923.199 1895.78,920.59 1876.53,925.722 1855.15,932.322 1838.48,939.514 1815.63,942.485 1791.56,942.768 1764.7,938.411 1741.84,928.469 1719.63,917.765 1690.28,902.764 1665.11,885.442 1642.74,866.743 1627.3,851.44 1615.33,838.201 1599.35,824.299 1585.33,807.936 1574.14,792.569 1566.45,776.177 1566.08,760.974 1578.02,745.792 1591.02,732.16 1611.37,723.832 1631.31,724.884 1660.09,727.646 1678.98,741.606 1699.13,748.509 1712.25,752.479 1734.39,758.704 1756.69,770.114 1769.12,779.286 1786.52,790.169 1804.89,800.406 1826.67,808.329 1847.08,809.952 1867.67,810.303 1891.14,803.939 1911.52,800.027 1927.81,799.068 1946.65,806.216 1963.1,817.234 1978.22,831.661 1988.02,847.483 1996.81,867.817 2004.65,890.208 2008.3,910.036 2007.22,931.036 2007.4,941.644 2009.97,954.668 2019.17,973.388 2026.56,990.945 2038.2,1005.84 2049.29,1013.5 2062.17,1017.26 2079.32,1013.43 2097.95,1005.44 2110.88,996.904 2127.55,984.593 2137.43,975.525 2141.49,956.504 2133.16,939.058 2116.9,920.469 2101.62,902.964 2080.52,890.812 2053.45,886.06 2026.15,881.689 2007.69,879.533 1982.43,877.91 1961.49,876.331 1943.04,867.499 1927.99,860.948 1906.97,854.322 1891.68,853.969 1870.17,856.803 1849.77,851.916 1829.18,846.692 1810.19,845.342 1786.32,841.573 1768.55,836.777 1751.65,832.468 1729.52,830.65 1702.78,832.156 1677.47,837.607 1661.59,836.428 1655.05,829.4 1650.71,826.311 1644.06,824.887 1633.92,823.971 1626.3,823.095 1612.86,827.163 1598.83,833.328 1573.29,837.421 1552.83,841.194 1537.74,846.781 1528.22,855.599 1534.69,856.677 1547.76,854.845 1579.1,850.335 1599.29,835.581 1614.8,820.631 1622.58,805.159 1616.42,788.619 1602.02,769.65 1591.74,757.711 1580.28,737.677 1562.11,726.971 1541.64,737.261 1519.85,738.546 1491.7,733.11 1487.25,715.425 1481.86,696.588 1483.22,675.821 1487.69,659.057 1501.93,636.561 1509.55,617.095 1513.11,593.901 1496.2,581.279 1474.89,573.655 1465.25,571.903 1474.64,559.341 1495.4,548.597 1529.72,546.827 1567.82,533.815 1592.47,517.113 1611.03,492.867 1625.92,471.5 1646.85,461.407 1672.78,465.518 1695.89,470.524 1714.96,487.779 1741.89,500.927 1762.44,517.666 1771.44,538.265 1761.16,554.672 1742.89,570.747 1717.18,584.11 1684,589.994 1657.99,590.523 1624.91,575.638 1600.8,559.883 1588.71,538.998 1587.36,516.725 1604.81,501.863 1619.81,492.148 1642.74,477.927 1667.08,468.933 1689.12,452.564 1710.11,440.849 1730.01,440.017 1752.83,426.34 1756.17,412.177 1766.81,394.752 1778.01,389.263 1795.53,372.469 1790.44,359.044 1769.76,348.03 1765.09,345.715 1775.75,342.371 1798.44,336.182 1826.52,340.606 1851.73,342.018 1879.17,347.282 1902.9,364.641 1907.16,383.066 1904.27,395.211 1884.38,406.3 1867.62,428.433 1852.69,455.665 1842.58,488.134 1844.63,508.717 1809.35,511.733 1786.94,527.763 1755.15,534.429 1725.18,550.337 1708.57,575.244 1688.51,593.069 1660.44,588.074 1639.05,576.495 1612.14,568.16 1597.93,555.205 1573.25,539.51 1564.75,533.055 1572.05,511.412 1595.13,501.196 1629.13,496.627 1656.82,499.904 1691.02,506.142 1718.73,520.682 1728.52,541.56 1742.91,562.261 1757.43,566.457 1783.41,572.379 1805.96,583.048 1816.33,586.146 1841.17,578.708 1865.19,570.058 1885.06,560.741 1905.28,563.062 1924.52,577.199 1924.05,595.364 1923.59,616.801 1910.81,648.892 1890.95,674.574 1866.95,693.837 1844.3,723.302 1842.52,748.157 1807.75,760.857 1780.66,766.304 1753.16,779.981 1726.99,793.327 1710.55,812.483 1695.07,833.216 1669.39,855.539 1643.79,865.33 1617.01,857.321 1592.52,851.923 1561.54,847.37 1533.56,838.811 1513.61,818.201 1499.93,797.517 1469.06,775.501 1452.29,756.759 1427.85,739.037 1403.56,736.146 1374.21,741.665 1356.34,739.498 1331.05,730.915 1324.84,705.095 1309.06,697.902 1285.73,701.45 1268.22,710.349 1244.28,726.484 1237.83,732.655 1208.33,736.8 1185.37,742.257 1159.01,735.877 1139.17,719.031 1116.98,705.497 1082.65,700.275 1050.61,691.547 1029.32,686.619 1008.2,676.53 987.783,654.943 986.11,642.145 995.846,622.377 1011.19,601.953 1022.66,579.258 1028.37,549.158 1036.37,524.759 1020.67,504.813 1001.88,499.008 992.178,488.318 996.329,475.168 1021.53,474.657 1055.71,477.658 1094.49,476.329 1127.02,472.491 1155.88,454.791 1181.17,430.003 1206.51,410.185 1236.74,401.941 1275.6,404.655 1307.41,416.585 1338.12,431.634 1367.53,445.761 1394.46,457.515 1415.62,471.609 1451.52,478.312 1476.85,492.457 1502.97,515.334 1532.74,542.068 1559.2,557.375 1582.47,568.829 1602.07,579.645 1611.35,570.369 1631.45,560.277 1657.67,546.032 1680.34,537.273 1709.7,526.003 1742.02,524.722 1777.14,533.606 1803.52,558.473 1811.83,579.594 1808.41,611.108 1791.49,643.598 1789.11,670.728 1780,701.777 1779.32,735.848 1795.39,766.881 1827.14,792.331 1866.13,792.314 1888.26,792.516 1917.96,800.044 1938.07,822.317 1962.6,847.529 1984.29,878.876 1995.22,911.288 2000.02,933.586 2015,916.968 2050.65,921.782 2077.16,927.987 2089.05,942.587 2091.51,946.874 2091.77,951.476 2096.6,967.363 2099.45,973.684 2111.61,977.566 2127.99,979.881 2156.57,974.005 2184.72,983.726 2198.25,995.243 2211.69,1017.02 2212.08,1029.48 2214.47,1018.98 2219.5,1002.24 2219.48,974.706 2209.78,948.252 2194.79,924.021 2183.22,901.941 2183.58,881.207 2156.94,859.242 2149.53,828.142 2154.83,803.044 2172.19,792.424 2193.25,793.927 2217.24,802.712 2232.16,814.999 2244.95,834.524 2270.07,857.158 2284.49,878.568 2275.64,905.691 2256.39,927.178 2239.2,947.907 2209.11,959.24 2190.57,978.811 2164.03,991.869 2137.52,1013.66 2118.32,1035.71 2106.4,1059.92 2088.1,1082.18 2071.05,1104.18 2046.26,1122.48 2019.86,1133.52 1988.98,1149.56 1964.67,1166.78 1936.62,1175.59 1908.26,1194.66 1891.95,1211.74 1861.33,1224.22 1842.34,1238.39 1823.92,1258.22 1805.95,1286.52 1798.66,1306.92 1793.51,1326.88 1786.44,1351.21 1809.16,1372.43 1818.38,1386.73 1812.09,1409.52 1804.23,1435.15 1786.03,1439.87 1762.86,1438.17 1740.7,1420.58 1729.02,1394.28 1715.45,1372.05 1692.02,1348.99 1653.68,1323.07 1621.82,1316.08 1588.34,1315.56 1552.27,1321.27 1511.86,1330.76 1484.84,1332.58 1450.18,1321.93 1424.76,1309.56 1405.78,1284.76 1403.27,1251.02 1397.59,1212.49 1378.67,1185.29 1357.79,1163.86 1362.63,1132.99 1360.29,1105.56 1352.57,1080.75 1340.38,1052.33 1321.42,1027.67 1316.3,1001.65 1322.21,968.698 1331.59,935.352 1349.63,906.124 1364.9,876.114 1378.55,844.436 1405.59,822.378 1401.17,794.088 1385.87,769.332 1357.07,746.681 1324.7,744.086 1304.13,731.142 1295.17,705.778 1292.11,673.612 1303.21,646.623 1317.96,624.947 1339.66,615.678 1370.74,603.758 1406.5,598.026 1445.5,594.091 1483.69,595.413 1512.3,587.545 1534.84,561.195 1554,539.485 1580.93,526.676 1602.87,521.934 1606.12,507.106 1591.87,492.403 1571.67,476.809 1546.57,464.954 1518.26,439.059 1495.01,413.578 1481.83,387.181 1465.51,366.534 1460.72,348.959 1469.63,327.828 1486.07,317.817 1503.03,327.61 1533.35,332.235 1572.19,334.056 1607.23,342.928 1645.88,348.728 1678.49,351.817 1709.32,366.997 1733.82,373.11 1759,366.199 1781.91,355.225 1812.49,350.269 1844.27,349.931 1875.35,344.689 1898.89,358.758 1909.8,375.545 1913.93,370.692 1924.34,354.189 1942.12,337.36 1959.5,326.09 1982.44,310.973 2001.69,302.639 1992.71,303.422 1971.93,292.046 1961.78,276.048 1949.86,247.253 1953.64,217.797 1963.01,201.654 1991.96,190.593 2025.03,193.109 2048.98,198.445 2083.07,201.935 2117.5,213.912 2139.96,236.173 2145.54,264.996 2138.91,291.922 2127.5,299.387 2131.58,316.28 2136.15,338.931 2131.07,370.389 2102.59,388.124 2083.55,421.661 2056.32,444.553 2034.8,470.885 2027.11,504.644 2001.8,512.908 1966.65,514.044 1930.9,526.819 1900.45,539.891 1884.95,566.88 1873.78,598.4 1873.13,614.344 1899.12,619.924 1928.21,632.351 1963.62,646.728 1997.17,670.403 2024.8,685.31 2062.34,690.453 2097.86,691.854 2136.39,688.715 2165.32,692.486 2190.94,691.799 2201.99,676.315 2215.61,656.811 2230.42,637.24 2229.48,611.938 2225.78,593.512 2216.88,569.203 2190.43,548.205 2169.38,529.646 2145.9,514.4 2103.83,515.767 2078.36,522.199 2054.77,539.71 2037.63,559.677 2012.25,584.218 2008.41,613.891 2012.44,645.709 2017.18,675.656 2033.33,702.034 2046.42,726.677 2058.65,760.016 2074.13,790.193 2105.14,803.52 2135.13,819.708 2160.53,848.636 2180.07,870.945 2195.53,901.814 2202.21,926.663 2198.81,938.649 2167.67,940.994 2131.13,954.126 2104.21,952.856 2088.83,959.334 2069.2,963.627 2047.78,959.469 2016.23,945.348 1985.96,937.69 1950.79,940.258 1908.47,952.985 1870.78,966.425 1832.88,966.899 1789.56,975.102 1752.88,976.288 1714.37,976.482 1683.44,970.677 1648.76,975.807 1616.88,970.171 1584.82,962.52 1549.41,931.959 1521.97,917.105 1483.89,910.391 1451.02,894.643 1422.36,877.782 1392.12,857.355 1366.2,850.456 1339.37,863.298 1314.39,879.998 1286.56,896.061 1248.35,913.135 1211.94,921.436 1183.33,917.195 1155.3,893.919 1138.79,868.986 1120.85,839.714 1095.98,814.326 1084.63,784.583 1079.25,756.511 1082.13,734.413 1069.77,704.44 1047.93,686.62 1020.13,674.638 999.812,652.994 990.942,622.093 988.876,597.814 977.787,569.98 985.942,544.308 1007.97,517.831 1018.51,501.141 1030.85,494.73 1040.62,480.136 1045.51,463.485 1052.24,440.291 1059.45,416.422 1064.32,387.944 1076.51,354.552 1076.66,331.485 1055.15,312.644 1035.29,298.835 1007.97,298.896 981.879,307.812 954.885,304.004 922.999,289.992 885.595,276.041 863.101,268.729 841.142,264.033 826.403,246.595 825.303,226.159 839.123,208.251 861.193,188.365 885.109,171.347 927.243,160.15 956.47,148.2 989.787,142.146 1019.7,152.496 1047.69,159.394 1081.71,155.387 1114.5,148.917 1134.57,128.908 1150.01,110.08 1163.22,87.9842 "/>
<polyline clip-path="url(#clip891)" style="stroke:#ff0000; stroke-linecap:round; stroke-linejoin:round; stroke-width:4; stroke-opacity:1; fill:none" points="239.465,714.898 269.82,721.272 272.428,712.41 293.539,713.709 296.914,714.408 323.894,720.083 340.752,723.625 369.476,723.38 393.961,725.39 424.33,731.764 450.559,727.866 471.67,729.153 513.906,731.751 525.674,740.503 550.173,742.501 592.423,745.1 610.174,745.688 629.583,752.907 663.369,759.992 682.793,767.212 705.605,775.142 729.268,780.106 759.693,786.492 778.281,796.678 806.197,799.399 839.189,809.475 855.267,803.419 896.737,808.984 914.502,822.148 941.581,827.836 974.616,837.911 994.096,845.143 1021.2,850.83 1035.61,863.296 1053.43,876.472 1056.82,877.183 1089.02,877.649 1102.57,880.505 1127.16,882.515 1154.29,888.215 1178.92,902.838 1205.23,911.504 1223.04,912.104 1251.03,914.838 1286.66,916.014 1311.26,918.037 1345.21,925.17 1369,930.171 1393.6,932.182 1418.21,934.204 1454.68,932.427 1472.5,933.015 1501.34,932.782 1527.61,928.848 1558.09,922.67 1585.29,928.37 1611.54,924.447 1636.17,926.47 1653.86,914.458 1671.69,915.046 1688.54,906.012 1707.99,900.656 1731.8,905.657 1754.64,901.011 1775.06,905.289 1792.06,908.856 1815.07,916.823 1833.06,930.024 1855.26,940.97 1867.27,949.783 1883.66,968.953 1891.46,980.034 1898.45,994.093 1910.64,1015.56 1924.46,1031.06 1937.48,1049.56 1946.91,1054.69 1970.78,1059.72 1981.02,1061.86 1988.66,1060.31 2016.56,1050.4 2027.59,1049.56 2049.26,1022.59 2055.08,1014.35 2053.86,992.058 2057.86,977.166 2056.66,954.894 2037.81,944.659 2020.77,941.08 1998.54,930.135 1971.48,937.035 1951.05,932.758 1934.83,926.212 1917.81,922.645 1893.17,920.623 1875.52,932.647 1852.67,937.281 1840.03,944.071 1811.99,941.325 1787.35,939.315 1760.13,933.603 1742.15,920.402 1719.15,912.435 1684.19,895.667 1663.66,878.801 1643.15,861.935 1632,850.193 1620.87,838.438 1599.55,824.563 1586.67,806.19 1576.37,791.505 1570.28,774.566 1574.38,759.771 1592.86,744.854 1602.91,734.436 1625.71,729.827 1639.26,732.659 1668.03,732.426 1681.72,747.796 1702.08,752.062 1712.26,754.182 1739.41,759.87 1760.74,773.708 1765.91,781.05 1788.06,791.947 1806.81,802.145 1830.59,807.121 1849.19,804.743 1870.39,806.042 1894.8,795.489 1912.6,796.09 1926.19,798.933 1947.57,812.796 1962.16,825.25 1975.96,840.669 1982.95,854.667 1991.75,875.333 2000.55,896.01 2003.35,912.3 2001.14,933.824 2003.75,937.513 2009.95,954.539 2025.59,976.687 2028.4,993.014 2043.03,1005.53 2053.27,1007.69 2066.91,1010.54 2087.17,1002.19 2103.2,996.115 2112.42,988.601 2130.06,976.565 2135.06,971.331 2134.61,946.081 2119.96,933.579 2102.71,917.399 2092.29,902.666 2069.25,894.699 2041.2,891.966 2017.37,886.977 2007.16,884.832 1979.13,882.111 1962.12,878.544 1944.92,862.389 1931.31,859.545 1904.1,853.846 1892.29,857.645 1866.06,861.568 1848.09,848.391 1827.68,844.126 1809.07,846.491 1781.89,840.804 1769.1,834.994 1752.12,831.427 1726.71,832.383 1697.09,835.595 1673.44,843.182 1664.89,835.117 1664.75,822.541 1657.15,824.085 1646.15,824.919 1631.75,825.041 1624.95,823.619 1608.1,832.628 1595.46,839.394 1563.27,838.929 1548.04,842.005 1538.78,849.482 1532.1,860.648 1547.33,857.56 1565.95,855.182 1596.4,849.004 1605.52,828.951 1619.79,816.265 1623.88,801.446 1614.39,783.796 1598.13,764.736 1589.58,756.683 1578.35,732.438 1558.83,725.218 1536.97,739.425 1515.81,738.125 1485.3,731.739 1486.85,713.292 1481.62,693.448 1483.98,672.071 1488.08,657.313 1505.62,632.897 1510.54,615.21 1513.72,590.941 1495.07,580.816 1472.22,572.935 1465.45,571.525 1477.14,555.284 1501.52,544.804 1540.34,546.68 1577.29,529.507 1595.71,514.688 1613.17,490.37 1625.62,471.237 1645.75,463.012 1673.6,465.709 1697.25,470.624 1716.86,490.223 1745.65,502.431 1762.72,518.415 1771.4,538.872 1759.79,555.1 1740.59,572.873 1712.04,585.596 1678.33,591.026 1657.21,589.739 1619.04,572.432 1597.82,558.667 1589.18,538.198 1588.13,516.221 1606.54,501.414 1619.92,491.78 1645.88,475.453 1669.4,467.939 1691.97,450.914 1712.9,439.772 1730.59,440.348 1756.51,424.046 1756.37,411.63 1768.76,392.533 1780.5,388.782 1800.45,368.178 1789.36,356.595 1763.97,345.134 1779.89,339.177 1810.09,333.085 1836.28,341.604 1857.33,342.891 1884.32,348.493 1907.34,368.729 1906.71,384.063 1903.51,395.769 1878.44,409.129 1864.46,434.097 1849.67,462.019 1840.83,494.305 1844.39,507.469 1803.95,511.465 1784.78,529.225 1751.11,534.643 1720.95,553.225 1706.89,578.303 1688.49,593.147 1661.41,587.496 1639.35,576.673 1609.71,567.37 1598.63,555.726 1568.09,536.911 1565.52,533.27 1572.87,506.819 1599.77,500.004 1636.82,495.297 1660.47,500.225 1697.66,507.971 1722.29,522.423 1727.57,542.169 1743.01,564.048 1756.55,566.867 1787.02,573.217 1809.1,584.052 1815.87,585.462 1846.99,576.391 1870.53,568.853 1887.27,559.905 1907.59,564.134 1928.09,580.841 1923.29,598.516 1924.45,620.554 1907.24,657.485 1887.25,678.261 1864.65,695.397 1841.41,728.025 1843.35,747.183 1803.75,760.801 1780.95,765.422 1751.52,781.173 1726.27,794.68 1710.39,813.299 1693.69,834.884 1665.16,860.281 1642.32,864.914 1615.97,856.248 1592.19,851.259 1557.4,847.116 1531.07,838.451 1512.23,815.689 1499.38,797.315 1463.61,771.024 1453.35,756.352 1426.15,738.137 1404.99,736.838 1371.2,742.28 1357.65,739.437 1327.99,730.109 1325.29,701.378 1308.36,697.836 1282.18,701.746 1265.32,710.73 1238.35,730.121 1237.52,733.075 1200.33,737.807 1180.89,743.138 1154.65,734.497 1135.15,714.763 1113.13,703.891 1075.09,699.061 1045.51,689.734 1028.61,686.191 1006.63,675.332 984.64,651.982 987.177,643.132 997.286,620.26 1014.14,598.81 1024.24,575.974 1030.09,542.917 1035.96,522.349 1019.93,503.436 1003.07,499.918 992.111,488.299 996.308,473.627 1028.32,474.08 1066.23,478.885 1106.65,474.889 1132.76,471.004 1159.65,451.76 1184.82,425.971 1207.47,408.97 1237.74,402.878 1279.84,405.44 1308.52,417.611 1339.75,433.423 1368.46,445.607 1393.81,457.092 1414.97,470.82 1455.47,479.253 1476.64,492.993 1505.51,517.655 1536.95,545.981 1558.99,556.792 1581.03,567.615 1599.69,577.74 1608.91,570.312 1633.26,559.832 1662.64,544.179 1682.79,535.942 1714.7,523.943 1746.76,524.408 1783.17,535.097 1807.98,562.038 1810.71,578.156 1807.81,614.916 1787.96,648.182 1789.08,670.245 1779.37,705.693 1780.64,740.332 1797.92,768.977 1830.43,794.557 1867.62,789.814 1881.22,792.658 1918.59,800.465 1937.56,823.227 1965.95,851.112 1985.94,883.533 1995.73,913.845 1998.54,930.135 2012.76,917.412 2054.43,923.001 2078.28,927.99 2088.71,942.747 2091.32,946.437 2093.14,953.105 2098.57,973.108 2101.18,976.81 2118.23,980.377 2136.07,980.978 2167.34,971.797 2192.24,986.456 2200.09,997.549 2215.01,1022.71 2212.61,1031.66 2216.6,1016.74 2222.16,995.87 2219.05,966.918 2207.57,942.502 2191.87,920.378 2183.01,899.688 2184.37,881.142 2151.68,855.488 2149.42,823.681 2154.98,802.929 2171.77,793.92 2192.96,795.232 2219.39,803.873 2234.04,816.326 2246.3,837.678 2275.62,862.61 2285.29,880.309 2273.99,909.31 2254.03,930.245 2238.25,948.937 2206.21,961.084 2190.41,979.789 2161.77,992.659 2133.33,1018.18 2117.51,1036.91 2107.7,1060.07 2086.84,1084.09 2070.18,1105.84 2044.08,1122.47 2019.57,1133.13 1985.8,1151.32 1963.07,1168.68 1935.92,1175.63 1904.71,1197.56 1893.82,1211.12 1857.39,1225.63 1843.07,1238.48 1822.88,1259.61 1803.65,1290.48 1799.58,1305.51 1793.87,1326.57 1786.53,1353.66 1813.27,1375.23 1817.67,1385.72 1810.33,1412.85 1802.97,1440.01 1785.02,1439.4 1760.2,1437.35 1736.87,1416.46 1726.31,1388.71 1713.28,1370.03 1687.39,1345.46 1644.44,1317.28 1623.08,1315.96 1587.24,1314.75 1548.92,1322.56 1506.34,1332.67 1488.42,1332.06 1448.23,1320.39 1425.97,1309.31 1404.47,1282.51 1403.38,1247.31 1397.13,1204.72 1377.41,1184.7 1357.7,1164.69 1363.46,1131.05 1359.9,1104.98 1352.1,1081.2 1339.16,1050.03 1320.34,1027.13 1316.8,1001.13 1323.39,964.675 1332.54,931.949 1351.02,904.37 1366.95,873.126 1379.45,841.196 1406.42,821.744 1399.47,795.195 1384.91,770.202 1352.6,744.646 1323.85,744.891 1306.01,731.764 1295.72,704.577 1291.31,669.264 1305.54,644.137 1318.09,624.918 1338.31,616.656 1374.53,602.389 1411.63,597.67 1452.13,593.662 1487.59,594.838 1511.15,587.288 1537.07,558.447 1552.93,539.975 1581.49,527.277 1600.84,521.981 1604.91,507.285 1591.27,492.025 1567.51,474.656 1542.13,463.159 1511.53,431.964 1492.82,409.472 1481.69,385.473 1465.55,366.633 1462.9,350.613 1469.44,327.227 1486.18,318.352 1504.77,328.391 1539.28,332.473 1581.34,335.022 1610.88,344.252 1652.15,349.731 1679.94,352.415 1711.24,368.202 1731.49,372.407 1758.34,365.616 1782.61,355.197 1816.2,349.804 1848.17,350.258 1878.37,344.166 1898.8,360.775 1909.11,375.275 1914.08,370.127 1926.43,351.055 1945.52,333.392 1962.22,324.505 1988.04,308.252 2003.92,302.283 1993,303.104 1965.03,288.052 1958.89,271.37 1946.62,238.018 1953.8,211.788 1963.71,201.541 1995.44,189.651 2029.92,193.709 2050.14,197.901 2088,202.656 2123.51,216.152 2142.38,238.521 2145.41,266.872 2138.31,293.127 2129.98,297.576 2132,316.501 2135.81,341.984 2129.7,377.788 2097.91,389.738 2080.06,429.354 2054.22,445.656 2032.72,472.18 2026.56,508.131 2004.65,509.773 1964.23,513.781 1928.18,528.012 1899.67,540.723 1884.88,568.73 1872.64,600.415 1873.62,609.952 1899.92,618.556 1931.41,634.466 1970.5,648.856 2003.02,674.351 2025.18,685.211 2066.71,690.751 2098.85,691.217 2139.38,687.196 2163.15,692.161 2188.51,691.205 2199.26,677.856 2215.78,656.37 2232.26,634.883 2228.41,609.179 2225.56,593.037 2214.91,565.948 2184.97,544.179 2167.8,528.196 2143.07,513.732 2095.87,516.331 2079.94,522.337 2053.25,541.63 2037.53,560.101 2008.42,588.244 2008.03,616.178 2013.6,648.488 2016.59,677.182 2034.77,702.812 2046.15,727.045 2061.15,764.564 2075.17,792.511 2104.98,801.875 2135.81,820.837 2163.49,851.688 2179.93,870.81 2195.84,905.51 2201.3,925.489 2198.92,934.412 2165.06,939.891 2124.61,956.561 2104.15,952.271 2091.53,959.062 2068.68,963.707 2044.83,958.706 2009.76,941.914 1982.51,936.202 1945.23,940.97 1897.91,956.206 1865.82,968.353 1830.14,967.164 1784.41,976.455 1752.14,975.977 1712.25,977.055 1685.01,971.343 1647.71,976.099 1617.09,969.676 1583.06,962.53 1542.85,925.759 1523.27,918.502 1482.5,909.947 1451.01,893.902 1422.92,878.581 1389.72,855.905 1369.34,851.639 1340.62,864.46 1314.45,880.959 1284.86,896.77 1243.41,916.382 1209.51,921.849 1185.75,916.86 1153.46,891.193 1138.13,869.106 1118.56,836.71 1093.1,812.527 1083.73,782.313 1080.28,756.511 1082.78,735.098 1067.5,700.594 1046.34,686.78 1017.6,674.51 999.002,651.859 990.538,618.85 988.822,599.766 976.161,569.037 987.107,543.272 1009.83,513.769 1016.57,502.725 1029.19,496.033 1040.97,479.829 1045.99,462.228 1053.53,435.85 1060.22,412.414 1065.21,382.433 1078.6,348.052 1076.04,332.031 1053.32,311.831 1035.65,298.876 1007.08,299.121 979.365,308.816 952.484,303.227 918.046,286.778 879.426,272.559 865.999,269.765 842.492,264.874 826.57,246.108 825.777,224.327 841.741,206.039 865.248,186.244 887.904,169.378 937.371,158.077 958.325,147.033 991.842,141.664 1020.35,153.75 1047.19,159.315 1084.07,154.645 1117.59,149.288 1134.29,128.133 1150.15,109.894 1163.48,88.0759 "/>
<polyline clip-path="url(#clip891)" style="stroke:#3da44d; stroke-linecap:round; stroke-linejoin:round; stroke-width:4; stroke-opacity:1; fill:none" points="243.014,720.487 259.585,718.683 276.701,716.246 292.632,717.264 307.391,715.863 326.797,716.532 348.83,719.928 373.617,724.672 398.563,724.261 423.922,729.144 449.359,729.307 475.973,732.401 504.472,734.731 530.989,738.496 556.504,740.608 583.762,745.519 609.155,751.095 634.193,757.353 659.012,763.388 683.154,768.918 707.724,774.854 732.208,782.638 756.198,788.578 781.855,794.683 808.119,802.581 835.017,808.774 862.351,812.763 888.65,816.978 914.392,823.182 941.832,828.825 966.159,836.805 988.882,844.741 1012.39,852.738 1032.9,860.655 1053.19,868.748 1072.13,873.767 1090.72,878.342 1110.61,883.586 1133.56,888.765 1157.55,893.393 1181.24,899.185 1205.64,906.177 1231.37,909.8 1258.13,914.137 1286,919.275 1313.84,923.486 1341.35,926.489 1368.73,929.388 1395.32,933.01 1422.41,934.537 1450.1,935.429 1476.71,936.792 1502.91,933.725 1528.83,931.597 1555.67,927.587 1582.56,925.508 1606.44,925.023 1631.05,922.884 1652.04,917.333 1672.9,916.176 1692.46,911.988 1711.8,909.866 1731.83,910.345 1751.91,908.615 1770.93,909.687 1792.91,912.971 1813.71,920.273 1831.67,930.423 1849.12,940.574 1863.18,952.955 1877.44,966.478 1890.73,979.378 1902.66,994.939 1915.06,1009.52 1927.82,1023.57 1940.41,1036.07 1952.71,1045.8 1967.85,1051.32 1982.34,1052.93 1997.3,1050.33 2010.47,1045.23 2023.52,1036.51 2034.16,1025.33 2043.44,1013.51 2047.84,1000.09 2051.33,984.922 2047.44,969.756 2035.91,957.433 2020.47,946.274 2001.9,938.878 1980.88,933.977 1960.42,929.334 1938.87,928.317 1918,928.466 1896.79,928.79 1875.18,932.385 1854.23,933.518 1832.06,935.303 1808.76,934.27 1784.66,932.546 1759.78,925.533 1735.87,917.117 1711.34,908.281 1690.19,893.997 1667.62,880.594 1650.06,867.308 1634.02,852.445 1618.93,838.922 1606.89,822.372 1596.68,806.852 1592.34,792.323 1588.74,778.014 1589.94,765.561 1600.84,756.292 1615.97,745.914 1631.27,737.204 1648.25,731.435 1666.65,732.921 1685.12,738.528 1704.06,745.211 1722.81,752.1 1739.29,760.424 1758.11,769.36 1776.12,778.155 1792.96,786.067 1811.43,793.865 1829.95,801.113 1848.55,805.278 1868.17,807.399 1886.5,808.041 1906.18,811.27 1924.74,814.592 1941.86,822.133 1955.52,831.772 1968.71,843.885 1976.23,859.43 1985.67,875.569 1992.99,891.478 1998.94,907.849 2004.03,924.81 2010.46,939.659 2015.79,954.594 2024.21,968.407 2034.04,980.431 2044.82,989.871 2055.57,996.515 2068.09,998.168 2080.52,997.167 2093.45,993.858 2105.72,987.906 2113.52,977.532 2118.95,966.682 2118.63,955.653 2113.14,938.696 2099.99,924.638 2083.85,911.193 2066.62,899.043 2046.88,890.017 2024.56,884.037 2004.91,881.305 1983.61,878.027 1962.98,872.434 1944.26,868.663 1925.33,863.751 1906.5,859.201 1885.68,856.711 1865.06,855.205 1844.35,852.398 1825.26,849.058 1805.26,844.996 1783.73,842.63 1764.78,838.511 1745.03,836.498 1724.6,835.766 1704.67,836.857 1688.14,836.968 1675.66,835.988 1664.48,831.237 1654.43,828.943 1643.05,828.309 1630.8,827.391 1619.49,829.437 1606.38,835.109 1588.9,838.172 1566.87,839.886 1545.86,841.456 1530.38,848.895 1537.16,856.329 1552.42,852.364 1572.53,855.935 1595.1,852.442 1609.97,838.7 1620.59,821.539 1625.73,804.131 1618.69,786.89 1605.74,772.004 1594.23,753.983 1584.6,735.67 1561.48,731.954 1539.37,738.632 1515.63,735.13 1494.11,729.576 1481.33,712.892 1474.42,694.493 1479.06,675.703 1490.02,658.511 1504.26,638.156 1513.96,616.462 1514.23,593.618 1492.1,582.477 1464.45,581.407 1466.44,569.563 1482.06,552.335 1507.71,546.488 1539.42,544.978 1569.78,535.812 1597.13,519.473 1602.92,492.17 1622.82,473.024 1644.12,456.019 1672.15,460.355 1693.4,474.463 1710.06,491.738 1737.39,499.719 1761.63,512.006 1771.98,536.234 1761.12,561.055 1737.05,574.529 1709.73,581.6 1678.99,587.694 1651.19,585.192 1620.67,581.486 1597.81,563.639 1588.89,541.037 1589.72,517.412 1604.91,503.14 1624.82,495.231 1645.15,480.565 1664.26,468.652 1682.92,449.389 1706.82,441.065 1729.11,437.71 1747.19,424.139 1756.97,410.231 1770.48,404.216 1781.48,391.929 1788.87,378.783 1777.76,363.998 1766.6,351.115 1774.24,340.966 1789.01,337.092 1812.35,336.949 1835.6,341.014 1861.13,343.709 1885.29,349.386 1902.21,363.764 1911.79,382.187 1895.81,401.243 1875.93,416.079 1865.19,438.702 1851.4,459.711 1851.5,487.302 1835.74,509.635 1807.47,512.914 1777.12,520.023 1754.53,538.361 1729.89,553.877 1718.04,578.015 1693.54,591.204 1667.03,585.435 1641.3,575.679 1613.7,568.954 1586.45,564.144 1567.54,546.673 1557.1,523.918 1575.97,503.044 1603.55,494.079 1633.69,489.597 1661.97,499.259 1690.61,504.72 1715.02,514.718 1729.09,537.339 1734.06,557.573 1751.59,574.381 1776.19,573.793 1800.26,582.376 1823.09,586.521 1846.05,585.051 1864.47,572.145 1883.78,556.782 1906.61,564.996 1917.15,584.135 1923.43,605.751 1920.09,631.641 1903.8,655.668 1880.35,672.785 1862.99,697.006 1849.82,720.393 1842.18,744.122 1812.6,756.671 1781.3,763.925 1755.63,782.137 1732.61,799.776 1712.54,814.269 1693.95,837.649 1672.08,858.411 1642.19,862.05 1615.64,854.425 1583.66,853.7 1553.11,855.277 1527.56,836.645 1513.01,812.861 1501.4,789.496 1478.42,772.552 1455.8,754.702 1430.95,744.433 1405.62,741.177 1378.81,748.624 1353.53,743.764 1332.91,729.376 1332.35,706.762 1311.39,692.354 1287.45,697.812 1271.77,713.334 1248.71,723.655 1233.18,738.215 1211.05,741.02 1186.14,739.026 1160.01,726.379 1134.74,713.227 1106.64,704.949 1080.32,700.574 1052.93,695.636 1025.42,690.346 1003.04,677.3 987.809,658.86 994.084,639.6 1002.22,619.209 1015.17,597.621 1024.07,574.725 1032.94,547.816 1033.58,525.344 1012.85,510.887 990.125,503.984 990.621,483.227 1011.9,481.348 1038.64,475.894 1071.68,481.106 1103.27,479.269 1131.79,465.345 1159.31,447.471 1182.66,427.24 1207.81,406.53 1242.64,403.734 1275.25,402.373 1308.97,415.086 1336.35,431.328 1364.39,442.037 1390.43,460.683 1420.17,472.962 1453.41,478.157 1479.93,496.364 1505.01,513.223 1525.21,536.127 1551.84,550.698 1567.49,571.699 1591.4,581.1 1607.47,565.886 1634.06,556.668 1662.17,542.007 1690.17,527.008 1721.8,517.764 1753.74,520.1 1785.48,534.392 1811.57,554.837 1812.71,583.113 1807.98,614.868 1796.25,644.872 1785.48,675.917 1777.52,707.309 1778.49,739.794 1794.62,769.124 1824.92,788.121 1857.75,782.593 1891.51,786.735 1919.83,802.51 1944.81,826.408 1962.32,851.466 1974.45,877.434 1984.42,901.052 1991.49,926.155 2020.98,918.252 2048.3,923.383 2074.29,925.484 2093.75,929.711 2085.66,940.28 2092.96,951.099 2093.37,973.813 2101.04,978.113 2120.92,978.418 2141.07,971.039 2164.09,969.942 2183.54,982.255 2196.16,1000.13 2204.53,1021.37 2212.93,1035.13 2218.41,1014.92 2220.27,992.528 2217.89,969.308 2206.31,947.618 2196.27,923.61 2186.79,897.561 2173.26,874.837 2151.13,855.307 2138.81,829.275 2144.27,802.117 2169.17,788.544 2193.85,797.877 2217.82,807.375 2237.85,819.768 2258.81,837.261 2280.94,855.629 2291.2,881.127 2275.48,905.203 2261.75,933.279 2233.88,948.905 2208.41,961.769 2184.12,978.311 2157.89,990.254 2137.47,1010.55 2123.27,1035.76 2113.58,1061.06 2090.85,1081.95 2072.34,1102.88 2045.91,1120.31 2018.32,1134.34 1987.78,1148.08 1964.79,1168.91 1937.57,1175.48 1914,1195 1894.63,1210.99 1864.73,1219.55 1839.46,1234.27 1817.92,1253.2 1810.47,1279.72 1798.11,1303.88 1787.79,1328.64 1789.79,1353.31 1811.16,1371.12 1825.21,1391.75 1823.53,1414.92 1812.73,1437.54 1782.61,1445.72 1752.41,1438.86 1732.87,1415.62 1724.96,1389.16 1708.22,1364.13 1686.71,1341.4 1658.82,1322.7 1622.14,1320.45 1587.26,1314.45 1553.65,1319.89 1518.66,1329.17 1485.5,1329.1 1450.39,1318.94 1421.06,1306.06 1414.63,1276.23 1410.19,1245.31 1397.03,1216.47 1373.3,1196.27 1361.65,1167.62 1367.9,1137.03 1362.7,1106.38 1347.11,1080.17 1335.86,1051.41 1327.53,1021.81 1315.64,994.155 1320.2,963.342 1336.24,933.963 1353.11,906.755 1368.52,879.064 1381.41,847.356 1401,820.903 1410.69,796.175 1384.2,773.619 1358.48,750.7 1327.18,750.294 1303.28,734.771 1285.56,710.646 1288.3,679.622 1301.31,653.003 1323.62,636.276 1344.39,615.346 1372.14,600.933 1409.82,596.728 1446.5,593.561 1481.06,595.283 1512.14,583.253 1533.96,562.301 1547.8,539.203 1577.04,534.287 1603.15,527.759 1607.45,506.457 1590.03,488.02 1566.22,474.643 1540.3,458.588 1514.88,445.649 1495.56,422.383 1481.64,395.631 1459.78,371.225 1451.67,347.973 1458.7,322.303 1485.45,319.117 1509.27,330.993 1543.36,332.219 1578.15,333.285 1609.85,343.049 1638.69,351.463 1671.3,355.513 1699.86,371.854 1730.83,370.725 1759.96,362.717 1783.51,351.632 1812.57,350.69 1838.19,350.019 1865.53,347.19 1887.09,357.989 1899.76,376.615 1917.35,369.378 1927.92,352.652 1942.17,338.456 1965.46,331.762 1988.62,328.151 2002.66,313.467 1990.2,298.042 1970.59,284.515 1953.5,266.244 1946.03,241.742 1950.86,215.797 1965.72,195.109 1994.77,189.085 2025.36,196.463 2054.86,204.301 2088.92,210.227 2119.68,219.452 2146.83,235.977 2153.63,263.237 2140.69,286.102 2118.07,298.831 2133.07,319.097 2135.32,347.793 2121.39,373.523 2095.54,389.659 2081.39,419.358 2059.57,445.131 2041.04,470.049 2031.38,498.575 1999.99,510.699 1965.9,516.63 1932.97,527.007 1900.71,541.273 1884.13,566.097 1869.36,590.278 1873.86,618.079 1905.65,626.554 1935.1,639.244 1969.2,647.077 1994.47,668.799 2026.55,683.087 2062.81,686.885 2096.74,686.422 2130.22,690.616 2158.75,697.51 2186.37,700.747 2199.95,680.89 2215.29,659.748 2227.84,638.781 2232.96,614.092 2226.1,588.283 2208.8,566.97 2192.02,545.998 2172.95,523.523 2144.69,517.515 2108.71,515.312 2077.2,523.886 2051.66,541.507 2028.72,562.669 2009.38,588.057 2003.59,617.283 2005.37,646.835 2013.35,679.294 2037.44,701.516 2045.32,730.859 2055.83,761.666 2077.74,788.761 2102.87,810.32 2129.61,832.093 2162.84,844.939 2182.71,869.184 2202.89,891.855 2209.76,916.747 2194.93,938.802 2170.04,945.32 2144.46,951.299 2116.41,955.823 2092.26,965.133 2065.19,967.588 2036.68,953.281 2007.02,940.566 1974.23,934.312 1939.67,946.509 1905.83,960.731 1869.06,967.594 1830.61,970.391 1792.23,977.644 1753.61,971.09 1715.11,972.001 1679.11,973.715 1643.82,980.807 1610.73,967.742 1580.18,953.221 1549.77,935.882 1523.14,917.343 1487.21,906.911 1458.79,884.614 1429.8,876.08 1399.84,860.3 1366.4,853.203 1337.96,867.557 1310.09,883.084 1280.4,901.559 1252.06,917.625 1215.81,924.897 1180.37,917.145 1156.93,893.477 1132.15,873.15 1118.53,842.788 1093.3,818.611 1089.55,788.406 1084.25,760.083 1084.11,729.667 1074.94,701.888 1044.89,688.839 1014.6,677.463 994.459,650.835 990.577,619.956 981.199,593.046 983.94,568.374 992.175,543.499 996.731,522.668 1014.24,506.985 1032.68,497.788 1046.51,479.074 1049.97,455.6 1057.45,433.597 1055.18,409.975 1061.73,384.831 1072.9,357.742 1073.93,332.746 1055.85,316.128 1035.97,296.97 1008.96,297.564 981.479,302.223 952.878,301.195 924.584,290.343 893.195,281.618 862.962,276.234 836.581,264.255 820.275,241.743 824.992,222.835 844.34,201.201 870.612,185.272 897.458,172.087 927.734,160.741 954.318,144.179 987.387,140.311 1019.32,150.765 1050.41,157.059 1083.53,155.532 1113.92,156.927 1136.11,134.377 1151.42,112.397 1157.87,87.9763 "/>
<path clip-path="url(#clip890)" d="M250.367 1438.47 L793.155 1438.47 L793.155 1231.11 L250.367 1231.11  Z" fill="#ffffff" fill-rule="evenodd" fill-opacity="1"/>
<polyline clip-path="url(#clip890)" style="stroke:#000000; stroke-linecap:round; stroke-linejoin:round; stroke-width:4; stroke-opacity:1; fill:none" points="250.367,1438.47 793.155,1438.47 793.155,1231.11 250.367,1231.11 250.367,1438.47 "/>
<polyline clip-path="url(#clip890)" style="stroke:#0000ff; stroke-linecap:round; stroke-linejoin:round; stroke-width:4; stroke-opacity:1; fill:none" points="274.533,1282.95 419.525,1282.95 "/>
<path clip-path="url(#clip890)" d="M467.718 1286.21 L467.718 1288.29 L448.135 1288.29 Q448.413 1292.69 450.774 1295 Q453.158 1297.29 457.394 1297.29 Q459.848 1297.29 462.139 1296.69 Q464.454 1296.09 466.723 1294.89 L466.723 1298.91 Q464.431 1299.89 462.024 1300.4 Q459.616 1300.91 457.14 1300.91 Q450.936 1300.91 447.302 1297.29 Q443.691 1293.68 443.691 1287.53 Q443.691 1281.16 447.116 1277.43 Q450.565 1273.68 456.399 1273.68 Q461.63 1273.68 464.663 1277.06 Q467.718 1280.42 467.718 1286.21 M463.459 1284.96 Q463.413 1281.46 461.491 1279.38 Q459.593 1277.29 456.445 1277.29 Q452.88 1277.29 450.728 1279.31 Q448.598 1281.32 448.274 1284.98 L463.459 1284.96 Z" fill="#000000" fill-rule="nonzero" fill-opacity="1" /><path clip-path="url(#clip890)" d="M491.237 1275.07 L491.237 1279.1 Q489.431 1278.17 487.487 1277.71 Q485.542 1277.25 483.459 1277.25 Q480.288 1277.25 478.69 1278.22 Q477.116 1279.19 477.116 1281.14 Q477.116 1282.62 478.251 1283.48 Q479.385 1284.31 482.811 1285.07 L484.269 1285.4 Q488.806 1286.37 490.704 1288.15 Q492.625 1289.91 492.625 1293.08 Q492.625 1296.69 489.755 1298.8 Q486.908 1300.91 481.908 1300.91 Q479.825 1300.91 477.556 1300.49 Q475.311 1300.1 472.811 1299.29 L472.811 1294.89 Q475.172 1296.11 477.463 1296.74 Q479.755 1297.34 482 1297.34 Q485.01 1297.34 486.63 1296.32 Q488.25 1295.28 488.25 1293.41 Q488.25 1291.67 487.07 1290.74 Q485.912 1289.82 481.954 1288.96 L480.473 1288.61 Q476.514 1287.78 474.755 1286.07 Q472.996 1284.33 472.996 1281.32 Q472.996 1277.67 475.588 1275.67 Q478.181 1273.68 482.95 1273.68 Q485.311 1273.68 487.394 1274.03 Q489.477 1274.38 491.237 1275.07 Z" fill="#000000" fill-rule="nonzero" fill-opacity="1" /><path clip-path="url(#clip890)" d="M503.621 1266.95 L503.621 1274.31 L512.394 1274.31 L512.394 1277.62 L503.621 1277.62 L503.621 1291.69 Q503.621 1294.86 504.477 1295.77 Q505.357 1296.67 508.019 1296.67 L512.394 1296.67 L512.394 1300.23 L508.019 1300.23 Q503.088 1300.23 501.213 1298.41 Q499.338 1296.55 499.338 1291.69 L499.338 1277.62 L496.213 1277.62 L496.213 1274.31 L499.338 1274.31 L499.338 1266.95 L503.621 1266.95 Z" fill="#000000" fill-rule="nonzero" fill-opacity="1" /><path clip-path="url(#clip890)" d="M517.996 1274.31 L522.255 1274.31 L522.255 1300.23 L517.996 1300.23 L517.996 1274.31 M517.996 1264.22 L522.255 1264.22 L522.255 1269.61 L517.996 1269.61 L517.996 1264.22 Z" fill="#000000" fill-rule="nonzero" fill-opacity="1" /><path clip-path="url(#clip890)" d="M551.352 1279.29 Q552.949 1276.42 555.171 1275.05 Q557.394 1273.68 560.403 1273.68 Q564.454 1273.68 566.653 1276.53 Q568.852 1279.35 568.852 1284.59 L568.852 1300.23 L564.569 1300.23 L564.569 1284.73 Q564.569 1281 563.25 1279.19 Q561.931 1277.39 559.222 1277.39 Q555.912 1277.39 553.991 1279.59 Q552.07 1281.79 552.07 1285.58 L552.07 1300.23 L547.787 1300.23 L547.787 1284.73 Q547.787 1280.98 546.468 1279.19 Q545.148 1277.39 542.394 1277.39 Q539.13 1277.39 537.209 1279.61 Q535.287 1281.81 535.287 1285.58 L535.287 1300.23 L531.005 1300.23 L531.005 1274.31 L535.287 1274.31 L535.287 1278.34 Q536.746 1275.95 538.783 1274.82 Q540.82 1273.68 543.621 1273.68 Q546.445 1273.68 548.412 1275.12 Q550.403 1276.55 551.352 1279.29 Z" fill="#000000" fill-rule="nonzero" fill-opacity="1" /><path clip-path="url(#clip890)" d="M589.13 1287.2 Q583.968 1287.2 581.977 1288.38 Q579.986 1289.56 579.986 1292.41 Q579.986 1294.68 581.468 1296.02 Q582.972 1297.34 585.542 1297.34 Q589.083 1297.34 591.213 1294.84 Q593.366 1292.32 593.366 1288.15 L593.366 1287.2 L589.13 1287.2 M597.625 1285.44 L597.625 1300.23 L593.366 1300.23 L593.366 1296.3 Q591.907 1298.66 589.731 1299.79 Q587.555 1300.91 584.407 1300.91 Q580.426 1300.91 578.065 1298.68 Q575.727 1296.44 575.727 1292.69 Q575.727 1288.31 578.643 1286.09 Q581.583 1283.87 587.393 1283.87 L593.366 1283.87 L593.366 1283.45 Q593.366 1280.51 591.421 1278.92 Q589.5 1277.29 586.005 1277.29 Q583.782 1277.29 581.676 1277.83 Q579.569 1278.36 577.625 1279.42 L577.625 1275.49 Q579.963 1274.59 582.162 1274.15 Q584.361 1273.68 586.444 1273.68 Q592.069 1273.68 594.847 1276.6 Q597.625 1279.52 597.625 1285.44 Z" fill="#000000" fill-rule="nonzero" fill-opacity="1" /><path clip-path="url(#clip890)" d="M610.611 1266.95 L610.611 1274.31 L619.384 1274.31 L619.384 1277.62 L610.611 1277.62 L610.611 1291.69 Q610.611 1294.86 611.467 1295.77 Q612.347 1296.67 615.009 1296.67 L619.384 1296.67 L619.384 1300.23 L615.009 1300.23 Q610.078 1300.23 608.204 1298.41 Q606.329 1296.55 606.329 1291.69 L606.329 1277.62 L603.204 1277.62 L603.204 1274.31 L606.329 1274.31 L606.329 1266.95 L610.611 1266.95 Z" fill="#000000" fill-rule="nonzero" fill-opacity="1" /><path clip-path="url(#clip890)" d="M647.162 1286.21 L647.162 1288.29 L627.578 1288.29 Q627.856 1292.69 630.217 1295 Q632.602 1297.29 636.838 1297.29 Q639.291 1297.29 641.583 1296.69 Q643.898 1296.09 646.166 1294.89 L646.166 1298.91 Q643.875 1299.89 641.467 1300.4 Q639.06 1300.91 636.583 1300.91 Q630.379 1300.91 626.745 1297.29 Q623.134 1293.68 623.134 1287.53 Q623.134 1281.16 626.56 1277.43 Q630.009 1273.68 635.842 1273.68 Q641.074 1273.68 644.106 1277.06 Q647.162 1280.42 647.162 1286.21 M642.902 1284.96 Q642.856 1281.46 640.935 1279.38 Q639.037 1277.29 635.889 1277.29 Q632.324 1277.29 630.171 1279.31 Q628.041 1281.32 627.717 1284.98 L642.902 1284.96 Z" fill="#000000" fill-rule="nonzero" fill-opacity="1" /><polyline clip-path="url(#clip890)" style="stroke:#ff0000; stroke-linecap:round; stroke-linejoin:round; stroke-width:4; stroke-opacity:1; fill:none" points="274.533,1334.79 419.525,1334.79 "/>
<path clip-path="url(#clip890)" d="M464.038 1331.13 Q465.635 1328.26 467.857 1326.89 Q470.079 1325.52 473.088 1325.52 Q477.139 1325.52 479.338 1328.37 Q481.538 1331.19 481.538 1336.43 L481.538 1352.07 L477.255 1352.07 L477.255 1336.57 Q477.255 1332.84 475.936 1331.03 Q474.616 1329.23 471.908 1329.23 Q468.598 1329.23 466.676 1331.43 Q464.755 1333.63 464.755 1337.42 L464.755 1352.07 L460.473 1352.07 L460.473 1336.57 Q460.473 1332.82 459.153 1331.03 Q457.834 1329.23 455.079 1329.23 Q451.815 1329.23 449.894 1331.45 Q447.973 1333.65 447.973 1337.42 L447.973 1352.07 L443.691 1352.07 L443.691 1326.15 L447.973 1326.15 L447.973 1330.18 Q449.431 1327.79 451.468 1326.66 Q453.505 1325.52 456.306 1325.52 Q459.13 1325.52 461.098 1326.96 Q463.089 1328.39 464.038 1331.13 Z" fill="#000000" fill-rule="nonzero" fill-opacity="1" /><path clip-path="url(#clip890)" d="M512.209 1338.05 L512.209 1340.13 L492.625 1340.13 Q492.903 1344.53 495.264 1346.84 Q497.649 1349.13 501.885 1349.13 Q504.338 1349.13 506.63 1348.53 Q508.945 1347.93 511.213 1346.73 L511.213 1350.75 Q508.922 1351.73 506.514 1352.24 Q504.107 1352.75 501.63 1352.75 Q495.426 1352.75 491.792 1349.13 Q488.181 1345.52 488.181 1339.37 Q488.181 1333 491.607 1329.27 Q495.056 1325.52 500.889 1325.52 Q506.121 1325.52 509.153 1328.9 Q512.209 1332.26 512.209 1338.05 M507.949 1336.8 Q507.903 1333.3 505.982 1331.22 Q504.084 1329.13 500.936 1329.13 Q497.371 1329.13 495.218 1331.15 Q493.088 1333.16 492.764 1336.82 L507.949 1336.8 Z" fill="#000000" fill-rule="nonzero" fill-opacity="1" /><path clip-path="url(#clip890)" d="M530.982 1339.04 Q525.82 1339.04 523.829 1340.22 Q521.838 1341.4 521.838 1344.25 Q521.838 1346.52 523.32 1347.86 Q524.824 1349.18 527.394 1349.18 Q530.935 1349.18 533.065 1346.68 Q535.218 1344.16 535.218 1339.99 L535.218 1339.04 L530.982 1339.04 M539.477 1337.28 L539.477 1352.07 L535.218 1352.07 L535.218 1348.14 Q533.759 1350.5 531.584 1351.63 Q529.408 1352.75 526.26 1352.75 Q522.278 1352.75 519.917 1350.52 Q517.579 1348.28 517.579 1344.53 Q517.579 1340.15 520.496 1337.93 Q523.435 1335.71 529.246 1335.71 L535.218 1335.71 L535.218 1335.29 Q535.218 1332.35 533.273 1330.76 Q531.352 1329.13 527.857 1329.13 Q525.635 1329.13 523.528 1329.67 Q521.422 1330.2 519.477 1331.26 L519.477 1327.33 Q521.815 1326.43 524.014 1325.99 Q526.213 1325.52 528.297 1325.52 Q533.922 1325.52 536.699 1328.44 Q539.477 1331.36 539.477 1337.28 Z" fill="#000000" fill-rule="nonzero" fill-opacity="1" /><path clip-path="url(#clip890)" d="M564.778 1326.91 L564.778 1330.94 Q562.972 1330.01 561.028 1329.55 Q559.083 1329.09 557 1329.09 Q553.829 1329.09 552.232 1330.06 Q550.658 1331.03 550.658 1332.98 Q550.658 1334.46 551.792 1335.32 Q552.926 1336.15 556.352 1336.91 L557.81 1337.24 Q562.347 1338.21 564.245 1339.99 Q566.167 1341.75 566.167 1344.92 Q566.167 1348.53 563.296 1350.64 Q560.449 1352.75 555.449 1352.75 Q553.366 1352.75 551.097 1352.33 Q548.852 1351.94 546.352 1351.13 L546.352 1346.73 Q548.713 1347.95 551.005 1348.58 Q553.296 1349.18 555.542 1349.18 Q558.551 1349.18 560.171 1348.16 Q561.792 1347.12 561.792 1345.25 Q561.792 1343.51 560.611 1342.58 Q559.454 1341.66 555.495 1340.8 L554.014 1340.45 Q550.056 1339.62 548.296 1337.91 Q546.537 1336.17 546.537 1333.16 Q546.537 1329.51 549.13 1327.51 Q551.722 1325.52 556.491 1325.52 Q558.852 1325.52 560.935 1325.87 Q563.019 1326.22 564.778 1326.91 Z" fill="#000000" fill-rule="nonzero" fill-opacity="1" /><path clip-path="url(#clip890)" d="M572.509 1341.84 L572.509 1326.15 L576.768 1326.15 L576.768 1341.68 Q576.768 1345.36 578.204 1347.21 Q579.639 1349.04 582.509 1349.04 Q585.958 1349.04 587.949 1346.84 Q589.963 1344.64 589.963 1340.85 L589.963 1326.15 L594.222 1326.15 L594.222 1352.07 L589.963 1352.07 L589.963 1348.09 Q588.412 1350.45 586.352 1351.61 Q584.315 1352.75 581.606 1352.75 Q577.139 1352.75 574.824 1349.97 Q572.509 1347.19 572.509 1341.84 M583.227 1325.52 L583.227 1325.52 Z" fill="#000000" fill-rule="nonzero" fill-opacity="1" /><path clip-path="url(#clip890)" d="M618.018 1330.13 Q617.301 1329.71 616.444 1329.53 Q615.611 1329.32 614.592 1329.32 Q610.981 1329.32 609.037 1331.68 Q607.116 1334.02 607.116 1338.42 L607.116 1352.07 L602.833 1352.07 L602.833 1326.15 L607.116 1326.15 L607.116 1330.18 Q608.458 1327.82 610.611 1326.68 Q612.764 1325.52 615.842 1325.52 Q616.282 1325.52 616.815 1325.59 Q617.347 1325.64 617.995 1325.76 L618.018 1330.13 Z" fill="#000000" fill-rule="nonzero" fill-opacity="1" /><path clip-path="url(#clip890)" d="M643.62 1338.05 L643.62 1340.13 L624.037 1340.13 Q624.315 1344.53 626.676 1346.84 Q629.06 1349.13 633.296 1349.13 Q635.75 1349.13 638.041 1348.53 Q640.356 1347.93 642.625 1346.73 L642.625 1350.75 Q640.333 1351.73 637.926 1352.24 Q635.518 1352.75 633.041 1352.75 Q626.838 1352.75 623.203 1349.13 Q619.592 1345.52 619.592 1339.37 Q619.592 1333 623.018 1329.27 Q626.467 1325.52 632.301 1325.52 Q637.532 1325.52 640.564 1328.9 Q643.62 1332.26 643.62 1338.05 M639.361 1336.8 Q639.314 1333.3 637.393 1331.22 Q635.495 1329.13 632.347 1329.13 Q628.782 1329.13 626.629 1331.15 Q624.5 1333.16 624.176 1336.82 L639.361 1336.8 Z" fill="#000000" fill-rule="nonzero" fill-opacity="1" /><path clip-path="url(#clip890)" d="M670.796 1331.13 Q672.393 1328.26 674.615 1326.89 Q676.837 1325.52 679.847 1325.52 Q683.898 1325.52 686.097 1328.37 Q688.296 1331.19 688.296 1336.43 L688.296 1352.07 L684.013 1352.07 L684.013 1336.57 Q684.013 1332.84 682.694 1331.03 Q681.374 1329.23 678.666 1329.23 Q675.356 1329.23 673.435 1331.43 Q671.513 1333.63 671.513 1337.42 L671.513 1352.07 L667.231 1352.07 L667.231 1336.57 Q667.231 1332.82 665.912 1331.03 Q664.592 1329.23 661.837 1329.23 Q658.574 1329.23 656.652 1331.45 Q654.731 1333.65 654.731 1337.42 L654.731 1352.07 L650.449 1352.07 L650.449 1326.15 L654.731 1326.15 L654.731 1330.18 Q656.189 1327.79 658.226 1326.66 Q660.263 1325.52 663.064 1325.52 Q665.888 1325.52 667.856 1326.96 Q669.847 1328.39 670.796 1331.13 Z" fill="#000000" fill-rule="nonzero" fill-opacity="1" /><path clip-path="url(#clip890)" d="M718.967 1338.05 L718.967 1340.13 L699.384 1340.13 Q699.661 1344.53 702.022 1346.84 Q704.407 1349.13 708.643 1349.13 Q711.096 1349.13 713.388 1348.53 Q715.703 1347.93 717.971 1346.73 L717.971 1350.75 Q715.68 1351.73 713.272 1352.24 Q710.865 1352.75 708.388 1352.75 Q702.184 1352.75 698.55 1349.13 Q694.939 1345.52 694.939 1339.37 Q694.939 1333 698.365 1329.27 Q701.814 1325.52 707.647 1325.52 Q712.879 1325.52 715.911 1328.9 Q718.967 1332.26 718.967 1338.05 M714.708 1336.8 Q714.661 1333.3 712.74 1331.22 Q710.842 1329.13 707.694 1329.13 Q704.129 1329.13 701.976 1331.15 Q699.847 1333.16 699.522 1336.82 L714.708 1336.8 Z" fill="#000000" fill-rule="nonzero" fill-opacity="1" /><path clip-path="url(#clip890)" d="M747.508 1336.43 L747.508 1352.07 L743.249 1352.07 L743.249 1336.57 Q743.249 1332.88 741.814 1331.06 Q740.379 1329.23 737.508 1329.23 Q734.059 1329.23 732.069 1331.43 Q730.078 1333.63 730.078 1337.42 L730.078 1352.07 L725.795 1352.07 L725.795 1326.15 L730.078 1326.15 L730.078 1330.18 Q731.606 1327.84 733.666 1326.68 Q735.749 1325.52 738.457 1325.52 Q742.925 1325.52 745.217 1328.3 Q747.508 1331.06 747.508 1336.43 Z" fill="#000000" fill-rule="nonzero" fill-opacity="1" /><path clip-path="url(#clip890)" d="M760.217 1318.79 L760.217 1326.15 L768.99 1326.15 L768.99 1329.46 L760.217 1329.46 L760.217 1343.53 Q760.217 1346.7 761.073 1347.61 Q761.953 1348.51 764.615 1348.51 L768.99 1348.51 L768.99 1352.07 L764.615 1352.07 Q759.684 1352.07 757.809 1350.25 Q755.934 1348.39 755.934 1343.53 L755.934 1329.46 L752.809 1329.46 L752.809 1326.15 L755.934 1326.15 L755.934 1318.79 L760.217 1318.79 Z" fill="#000000" fill-rule="nonzero" fill-opacity="1" /><polyline clip-path="url(#clip890)" style="stroke:#3da44d; stroke-linecap:round; stroke-linejoin:round; stroke-width:4; stroke-opacity:1; fill:none" points="274.533,1386.63 419.525,1386.63 "/>
<path clip-path="url(#clip890)" d="M468.343 1377.99 L458.968 1390.6 L468.829 1403.91 L463.806 1403.91 L456.26 1393.73 L448.714 1403.91 L443.691 1403.91 L453.76 1390.35 L444.547 1377.99 L449.57 1377.99 L456.445 1387.22 L463.32 1377.99 L468.343 1377.99 Z" fill="#000000" fill-rule="nonzero" fill-opacity="1" /><path clip-path="url(#clip890)" d="M491.375 1378.75 L491.375 1382.78 Q489.57 1381.85 487.625 1381.39 Q485.681 1380.93 483.598 1380.93 Q480.426 1380.93 478.829 1381.9 Q477.255 1382.87 477.255 1384.82 Q477.255 1386.3 478.389 1387.16 Q479.524 1387.99 482.95 1388.75 L484.408 1389.08 Q488.945 1390.05 490.843 1391.83 Q492.764 1393.59 492.764 1396.76 Q492.764 1400.37 489.894 1402.48 Q487.047 1404.59 482.047 1404.59 Q479.963 1404.59 477.695 1404.17 Q475.45 1403.78 472.95 1402.97 L472.95 1398.57 Q475.311 1399.79 477.602 1400.42 Q479.894 1401.02 482.139 1401.02 Q485.149 1401.02 486.769 1400 Q488.389 1398.96 488.389 1397.09 Q488.389 1395.35 487.209 1394.42 Q486.051 1393.5 482.093 1392.64 L480.612 1392.29 Q476.653 1391.46 474.894 1389.75 Q473.135 1388.01 473.135 1385 Q473.135 1381.35 475.727 1379.35 Q478.32 1377.36 483.088 1377.36 Q485.45 1377.36 487.533 1377.71 Q489.616 1378.06 491.375 1378.75 Z" fill="#000000" fill-rule="nonzero" fill-opacity="1" /></svg>
