<?xml version="1.0" encoding="utf-8"?>
<svg xmlns="http://www.w3.org/2000/svg" xmlns:xlink="http://www.w3.org/1999/xlink" width="600" height="400" viewBox="0 0 2400 1600">
<defs>
  <clipPath id="clip990">
    <rect x="0" y="0" width="2400" height="1600"/>
  </clipPath>
</defs>
<path clip-path="url(#clip990)" d="M0 1600 L2400 1600 L2400 0 L0 0  Z" fill="#ffffff" fill-rule="evenodd" fill-opacity="1"/>
<defs>
  <clipPath id="clip991">
    <rect x="480" y="0" width="1681" height="1600"/>
  </clipPath>
</defs>
<path clip-path="url(#clip990)" d="M140.51 1486.45 L2352.76 1486.45 L2352.76 47.2441 L140.51 47.2441  Z" fill="#ffffff" fill-rule="evenodd" fill-opacity="1"/>
<defs>
  <clipPath id="clip992">
    <rect x="140" y="47" width="2213" height="1440"/>
  </clipPath>
</defs>
<polyline clip-path="url(#clip992)" style="stroke:#000000; stroke-linecap:round; stroke-linejoin:round; stroke-width:2; stroke-opacity:0.1; fill:none" points="352.398,1486.45 352.398,47.2441 "/>
<polyline clip-path="url(#clip992)" style="stroke:#000000; stroke-linecap:round; stroke-linejoin:round; stroke-width:2; stroke-opacity:0.1; fill:none" points="786.3,1486.45 786.3,47.2441 "/>
<polyline clip-path="url(#clip992)" style="stroke:#000000; stroke-linecap:round; stroke-linejoin:round; stroke-width:2; stroke-opacity:0.1; fill:none" points="1220.2,1486.45 1220.2,47.2441 "/>
<polyline clip-path="url(#clip992)" style="stroke:#000000; stroke-linecap:round; stroke-linejoin:round; stroke-width:2; stroke-opacity:0.1; fill:none" points="1654.1,1486.45 1654.1,47.2441 "/>
<polyline clip-path="url(#clip992)" style="stroke:#000000; stroke-linecap:round; stroke-linejoin:round; stroke-width:2; stroke-opacity:0.1; fill:none" points="2088,1486.45 2088,47.2441 "/>
<polyline clip-path="url(#clip990)" style="stroke:#000000; stroke-linecap:round; stroke-linejoin:round; stroke-width:4; stroke-opacity:1; fill:none" points="140.51,1486.45 2352.76,1486.45 "/>
<polyline clip-path="url(#clip990)" style="stroke:#000000; stroke-linecap:round; stroke-linejoin:round; stroke-width:4; stroke-opacity:1; fill:none" points="352.398,1486.45 352.398,1467.55 "/>
<polyline clip-path="url(#clip990)" style="stroke:#000000; stroke-linecap:round; stroke-linejoin:round; stroke-width:4; stroke-opacity:1; fill:none" points="786.3,1486.45 786.3,1467.55 "/>
<polyline clip-path="url(#clip990)" style="stroke:#000000; stroke-linecap:round; stroke-linejoin:round; stroke-width:4; stroke-opacity:1; fill:none" points="1220.2,1486.45 1220.2,1467.55 "/>
<polyline clip-path="url(#clip990)" style="stroke:#000000; stroke-linecap:round; stroke-linejoin:round; stroke-width:4; stroke-opacity:1; fill:none" points="1654.1,1486.45 1654.1,1467.55 "/>
<polyline clip-path="url(#clip990)" style="stroke:#000000; stroke-linecap:round; stroke-linejoin:round; stroke-width:4; stroke-opacity:1; fill:none" points="2088,1486.45 2088,1467.55 "/>
<path clip-path="url(#clip990)" d="M306.46 1532.02 L336.136 1532.02 L336.136 1535.95 L306.46 1535.95 L306.46 1532.02 Z" fill="#000000" fill-rule="nonzero" fill-opacity="1" /><path clip-path="url(#clip990)" d="M360.395 1530.21 Q363.752 1530.93 365.627 1533.2 Q367.525 1535.47 367.525 1538.8 Q367.525 1543.92 364.006 1546.72 Q360.488 1549.52 354.007 1549.52 Q351.831 1549.52 349.516 1549.08 Q347.224 1548.66 344.77 1547.81 L344.77 1543.29 Q346.715 1544.43 349.03 1545.01 Q351.345 1545.58 353.868 1545.58 Q358.266 1545.58 360.557 1543.85 Q362.872 1542.11 362.872 1538.8 Q362.872 1535.75 360.719 1534.03 Q358.59 1532.3 354.77 1532.3 L350.743 1532.3 L350.743 1528.45 L354.956 1528.45 Q358.405 1528.45 360.233 1527.09 Q362.062 1525.7 362.062 1523.11 Q362.062 1520.45 360.164 1519.03 Q358.289 1517.6 354.77 1517.6 Q352.849 1517.6 350.65 1518.01 Q348.451 1518.43 345.812 1519.31 L345.812 1515.14 Q348.474 1514.4 350.789 1514.03 Q353.127 1513.66 355.187 1513.66 Q360.511 1513.66 363.613 1516.09 Q366.715 1518.5 366.715 1522.62 Q366.715 1525.49 365.071 1527.48 Q363.428 1529.45 360.395 1530.21 Z" fill="#000000" fill-rule="nonzero" fill-opacity="1" /><path clip-path="url(#clip990)" d="M386.391 1517.37 Q382.78 1517.37 380.951 1520.93 Q379.145 1524.47 379.145 1531.6 Q379.145 1538.71 380.951 1542.27 Q382.78 1545.82 386.391 1545.82 Q390.025 1545.82 391.83 1542.27 Q393.659 1538.71 393.659 1531.6 Q393.659 1524.47 391.83 1520.93 Q390.025 1517.37 386.391 1517.37 M386.391 1513.66 Q392.201 1513.66 395.256 1518.27 Q398.335 1522.85 398.335 1531.6 Q398.335 1540.33 395.256 1544.94 Q392.201 1549.52 386.391 1549.52 Q380.58 1549.52 377.502 1544.94 Q374.446 1540.33 374.446 1531.6 Q374.446 1522.85 377.502 1518.27 Q380.58 1513.66 386.391 1513.66 Z" fill="#000000" fill-rule="nonzero" fill-opacity="1" /><path clip-path="url(#clip990)" d="M786.3 1517.37 Q782.688 1517.37 780.86 1520.93 Q779.054 1524.47 779.054 1531.6 Q779.054 1538.71 780.86 1542.27 Q782.688 1545.82 786.3 1545.82 Q789.934 1545.82 791.739 1542.27 Q793.568 1538.71 793.568 1531.6 Q793.568 1524.47 791.739 1520.93 Q789.934 1517.37 786.3 1517.37 M786.3 1513.66 Q792.11 1513.66 795.165 1518.27 Q798.244 1522.85 798.244 1531.6 Q798.244 1540.33 795.165 1544.94 Q792.11 1549.52 786.3 1549.52 Q780.489 1549.52 777.411 1544.94 Q774.355 1540.33 774.355 1531.6 Q774.355 1522.85 777.411 1518.27 Q780.489 1513.66 786.3 1513.66 Z" fill="#000000" fill-rule="nonzero" fill-opacity="1" /><path clip-path="url(#clip990)" d="M1209.04 1530.21 Q1212.4 1530.93 1214.28 1533.2 Q1216.17 1535.47 1216.17 1538.8 Q1216.17 1543.92 1212.66 1546.72 Q1209.14 1549.52 1202.66 1549.52 Q1200.48 1549.52 1198.16 1549.08 Q1195.87 1548.66 1193.42 1547.81 L1193.42 1543.29 Q1195.36 1544.43 1197.68 1545.01 Q1199.99 1545.58 1202.52 1545.58 Q1206.91 1545.58 1209.21 1543.85 Q1211.52 1542.11 1211.52 1538.8 Q1211.52 1535.75 1209.37 1534.03 Q1207.24 1532.3 1203.42 1532.3 L1199.39 1532.3 L1199.39 1528.45 L1203.6 1528.45 Q1207.05 1528.45 1208.88 1527.09 Q1210.71 1525.7 1210.71 1523.11 Q1210.71 1520.45 1208.81 1519.03 Q1206.94 1517.6 1203.42 1517.6 Q1201.5 1517.6 1199.3 1518.01 Q1197.1 1518.43 1194.46 1519.31 L1194.46 1515.14 Q1197.12 1514.4 1199.44 1514.03 Q1201.78 1513.66 1203.84 1513.66 Q1209.16 1513.66 1212.26 1516.09 Q1215.36 1518.5 1215.36 1522.62 Q1215.36 1525.49 1213.72 1527.48 Q1212.08 1529.45 1209.04 1530.21 Z" fill="#000000" fill-rule="nonzero" fill-opacity="1" /><path clip-path="url(#clip990)" d="M1235.04 1517.37 Q1231.43 1517.37 1229.6 1520.93 Q1227.79 1524.47 1227.79 1531.6 Q1227.79 1538.71 1229.6 1542.27 Q1231.43 1545.82 1235.04 1545.82 Q1238.67 1545.82 1240.48 1542.27 Q1242.31 1538.71 1242.31 1531.6 Q1242.31 1524.47 1240.48 1520.93 Q1238.67 1517.37 1235.04 1517.37 M1235.04 1513.66 Q1240.85 1513.66 1243.9 1518.27 Q1246.98 1522.85 1246.98 1531.6 Q1246.98 1540.33 1243.9 1544.94 Q1240.85 1549.52 1235.04 1549.52 Q1229.23 1549.52 1226.15 1544.94 Q1223.09 1540.33 1223.09 1531.6 Q1223.09 1522.85 1226.15 1518.27 Q1229.23 1513.66 1235.04 1513.66 Z" fill="#000000" fill-rule="nonzero" fill-opacity="1" /><path clip-path="url(#clip990)" d="M1639.51 1529.7 Q1636.36 1529.7 1634.51 1531.86 Q1632.68 1534.01 1632.68 1537.76 Q1632.68 1541.49 1634.51 1543.66 Q1636.36 1545.82 1639.51 1545.82 Q1642.66 1545.82 1644.49 1543.66 Q1646.34 1541.49 1646.34 1537.76 Q1646.34 1534.01 1644.49 1531.86 Q1642.66 1529.7 1639.51 1529.7 M1648.79 1515.05 L1648.79 1519.31 Q1647.03 1518.48 1645.23 1518.04 Q1643.44 1517.6 1641.68 1517.6 Q1637.05 1517.6 1634.6 1520.72 Q1632.17 1523.85 1631.82 1530.17 Q1633.19 1528.15 1635.25 1527.09 Q1637.31 1526 1639.79 1526 Q1644.99 1526 1648 1529.17 Q1651.04 1532.32 1651.04 1537.76 Q1651.04 1543.08 1647.89 1546.3 Q1644.74 1549.52 1639.51 1549.52 Q1633.51 1549.52 1630.34 1544.94 Q1627.17 1540.33 1627.17 1531.6 Q1627.17 1523.41 1631.06 1518.55 Q1634.95 1513.66 1641.5 1513.66 Q1643.26 1513.66 1645.04 1514.01 Q1646.85 1514.36 1648.79 1515.05 Z" fill="#000000" fill-rule="nonzero" fill-opacity="1" /><path clip-path="url(#clip990)" d="M1669.09 1517.37 Q1665.48 1517.37 1663.65 1520.93 Q1661.85 1524.47 1661.85 1531.6 Q1661.85 1538.71 1663.65 1542.27 Q1665.48 1545.82 1669.09 1545.82 Q1672.73 1545.82 1674.53 1542.27 Q1676.36 1538.71 1676.36 1531.6 Q1676.36 1524.47 1674.53 1520.93 Q1672.73 1517.37 1669.09 1517.37 M1669.09 1513.66 Q1674.9 1513.66 1677.96 1518.27 Q1681.04 1522.85 1681.04 1531.6 Q1681.04 1540.33 1677.96 1544.94 Q1674.9 1549.52 1669.09 1549.52 Q1663.28 1549.52 1660.2 1544.94 Q1657.15 1540.33 1657.15 1531.6 Q1657.15 1522.85 1660.2 1518.27 Q1663.28 1513.66 1669.09 1513.66 Z" fill="#000000" fill-rule="nonzero" fill-opacity="1" /><path clip-path="url(#clip990)" d="M2063.13 1548.13 L2063.13 1543.87 Q2064.89 1544.7 2066.7 1545.14 Q2068.5 1545.58 2070.24 1545.58 Q2074.87 1545.58 2077.3 1542.48 Q2079.75 1539.36 2080.1 1533.01 Q2078.76 1535.01 2076.7 1536.07 Q2074.64 1537.13 2072.14 1537.13 Q2066.95 1537.13 2063.92 1534.01 Q2060.91 1530.86 2060.91 1525.42 Q2060.91 1520.1 2064.06 1516.88 Q2067.21 1513.66 2072.44 1513.66 Q2078.43 1513.66 2081.58 1518.27 Q2084.75 1522.85 2084.75 1531.6 Q2084.75 1539.77 2080.86 1544.66 Q2077 1549.52 2070.45 1549.52 Q2068.69 1549.52 2066.88 1549.17 Q2065.08 1548.82 2063.13 1548.13 M2072.44 1533.48 Q2075.59 1533.48 2077.41 1531.32 Q2079.27 1529.17 2079.27 1525.42 Q2079.27 1521.7 2077.41 1519.54 Q2075.59 1517.37 2072.44 1517.37 Q2069.29 1517.37 2067.44 1519.54 Q2065.61 1521.7 2065.61 1525.42 Q2065.61 1529.17 2067.44 1531.32 Q2069.29 1533.48 2072.44 1533.48 Z" fill="#000000" fill-rule="nonzero" fill-opacity="1" /><path clip-path="url(#clip990)" d="M2103.16 1517.37 Q2099.54 1517.37 2097.72 1520.93 Q2095.91 1524.47 2095.91 1531.6 Q2095.91 1538.71 2097.72 1542.27 Q2099.54 1545.82 2103.16 1545.82 Q2106.79 1545.82 2108.59 1542.27 Q2110.42 1538.71 2110.42 1531.6 Q2110.42 1524.47 2108.59 1520.93 Q2106.79 1517.37 2103.16 1517.37 M2103.16 1513.66 Q2108.97 1513.66 2112.02 1518.27 Q2115.1 1522.85 2115.1 1531.6 Q2115.1 1540.33 2112.02 1544.94 Q2108.97 1549.52 2103.16 1549.52 Q2097.35 1549.52 2094.27 1544.94 Q2091.21 1540.33 2091.21 1531.6 Q2091.21 1522.85 2094.27 1518.27 Q2097.35 1513.66 2103.16 1513.66 Z" fill="#000000" fill-rule="nonzero" fill-opacity="1" /><polyline clip-path="url(#clip992)" style="stroke:#000000; stroke-linecap:round; stroke-linejoin:round; stroke-width:2; stroke-opacity:0.1; fill:none" points="140.51,1179.82 2352.76,1179.82 "/>
<polyline clip-path="url(#clip992)" style="stroke:#000000; stroke-linecap:round; stroke-linejoin:round; stroke-width:2; stroke-opacity:0.1; fill:none" points="140.51,872.187 2352.76,872.187 "/>
<polyline clip-path="url(#clip992)" style="stroke:#000000; stroke-linecap:round; stroke-linejoin:round; stroke-width:2; stroke-opacity:0.1; fill:none" points="140.51,564.557 2352.76,564.557 "/>
<polyline clip-path="url(#clip992)" style="stroke:#000000; stroke-linecap:round; stroke-linejoin:round; stroke-width:2; stroke-opacity:0.1; fill:none" points="140.51,256.927 2352.76,256.927 "/>
<polyline clip-path="url(#clip990)" style="stroke:#000000; stroke-linecap:round; stroke-linejoin:round; stroke-width:4; stroke-opacity:1; fill:none" points="140.51,1486.45 140.51,47.2441 "/>
<polyline clip-path="url(#clip990)" style="stroke:#000000; stroke-linecap:round; stroke-linejoin:round; stroke-width:4; stroke-opacity:1; fill:none" points="140.51,1179.82 159.408,1179.82 "/>
<polyline clip-path="url(#clip990)" style="stroke:#000000; stroke-linecap:round; stroke-linejoin:round; stroke-width:4; stroke-opacity:1; fill:none" points="140.51,872.187 159.408,872.187 "/>
<polyline clip-path="url(#clip990)" style="stroke:#000000; stroke-linecap:round; stroke-linejoin:round; stroke-width:4; stroke-opacity:1; fill:none" points="140.51,564.557 159.408,564.557 "/>
<polyline clip-path="url(#clip990)" style="stroke:#000000; stroke-linecap:round; stroke-linejoin:round; stroke-width:4; stroke-opacity:1; fill:none" points="140.51,256.927 159.408,256.927 "/>
<path clip-path="url(#clip990)" d="M92.566 1165.62 Q88.9549 1165.62 87.1262 1169.18 Q85.3206 1172.72 85.3206 1179.85 Q85.3206 1186.96 87.1262 1190.52 Q88.9549 1194.06 92.566 1194.06 Q96.2002 1194.06 98.0058 1190.52 Q99.8345 1186.96 99.8345 1179.85 Q99.8345 1172.72 98.0058 1169.18 Q96.2002 1165.62 92.566 1165.62 M92.566 1161.91 Q98.3761 1161.91 101.432 1166.52 Q104.51 1171.1 104.51 1179.85 Q104.51 1188.58 101.432 1193.18 Q98.3761 1197.77 92.566 1197.77 Q86.7558 1197.77 83.6771 1193.18 Q80.6216 1188.58 80.6216 1179.85 Q80.6216 1171.1 83.6771 1166.52 Q86.7558 1161.91 92.566 1161.91 Z" fill="#000000" fill-rule="nonzero" fill-opacity="1" /><path clip-path="url(#clip990)" d="M57.4273 885.532 L73.7466 885.532 L73.7466 889.467 L51.8023 889.467 L51.8023 885.532 Q54.4643 882.777 59.0476 878.147 Q63.6541 873.495 64.8346 872.152 Q67.08 869.629 67.9596 867.893 Q68.8624 866.134 68.8624 864.444 Q68.8624 861.689 66.918 859.953 Q64.9967 858.217 61.8948 858.217 Q59.6958 858.217 57.2421 858.981 Q54.8115 859.745 52.0338 861.296 L52.0338 856.573 Q54.8578 855.439 57.3115 854.86 Q59.7652 854.282 61.8023 854.282 Q67.1726 854.282 70.367 856.967 Q73.5614 859.652 73.5614 864.143 Q73.5614 866.272 72.7513 868.194 Q71.9642 870.092 69.8578 872.684 Q69.2791 873.356 66.1772 876.573 Q63.0754 879.768 57.4273 885.532 Z" fill="#000000" fill-rule="nonzero" fill-opacity="1" /><path clip-path="url(#clip990)" d="M83.6077 854.907 L101.964 854.907 L101.964 858.842 L87.8901 858.842 L87.8901 867.314 Q88.9086 866.967 89.9271 866.805 Q90.9456 866.62 91.9641 866.62 Q97.7511 866.62 101.131 869.791 Q104.51 872.962 104.51 878.379 Q104.51 883.958 101.038 887.059 Q97.566 890.138 91.2465 890.138 Q89.0706 890.138 86.8021 889.768 Q84.5568 889.397 82.1494 888.657 L82.1494 883.958 Q84.2327 885.092 86.4549 885.647 Q88.6771 886.203 91.1539 886.203 Q95.1586 886.203 97.4965 884.096 Q99.8345 881.99 99.8345 878.379 Q99.8345 874.768 97.4965 872.661 Q95.1586 870.555 91.1539 870.555 Q89.279 870.555 87.404 870.972 Q85.5521 871.388 83.6077 872.268 L83.6077 854.907 Z" fill="#000000" fill-rule="nonzero" fill-opacity="1" /><path clip-path="url(#clip990)" d="M52.4505 547.277 L70.8068 547.277 L70.8068 551.212 L56.7328 551.212 L56.7328 559.684 Q57.7513 559.337 58.7699 559.175 Q59.7884 558.99 60.8069 558.99 Q66.5939 558.99 69.9735 562.161 Q73.3531 565.332 73.3531 570.749 Q73.3531 576.328 69.8809 579.429 Q66.4087 582.508 60.0893 582.508 Q57.9134 582.508 55.6449 582.138 Q53.3995 581.767 50.9921 581.027 L50.9921 576.328 Q53.0754 577.462 55.2977 578.017 Q57.5199 578.573 59.9967 578.573 Q64.0013 578.573 66.3393 576.466 Q68.6772 574.36 68.6772 570.749 Q68.6772 567.138 66.3393 565.031 Q64.0013 562.925 59.9967 562.925 Q58.1217 562.925 56.2467 563.341 Q54.3949 563.758 52.4505 564.638 L52.4505 547.277 Z" fill="#000000" fill-rule="nonzero" fill-opacity="1" /><path clip-path="url(#clip990)" d="M92.566 550.355 Q88.9549 550.355 87.1262 553.92 Q85.3206 557.462 85.3206 564.591 Q85.3206 571.698 87.1262 575.263 Q88.9549 578.804 92.566 578.804 Q96.2002 578.804 98.0058 575.263 Q99.8345 571.698 99.8345 564.591 Q99.8345 557.462 98.0058 553.92 Q96.2002 550.355 92.566 550.355 M92.566 546.652 Q98.3761 546.652 101.432 551.258 Q104.51 555.842 104.51 564.591 Q104.51 573.318 101.432 577.925 Q98.3761 582.508 92.566 582.508 Q86.7558 582.508 83.6771 577.925 Q80.6216 573.318 80.6216 564.591 Q80.6216 555.842 83.6771 551.258 Q86.7558 546.652 92.566 546.652 Z" fill="#000000" fill-rule="nonzero" fill-opacity="1" /><path clip-path="url(#clip990)" d="M52.219 239.647 L74.4411 239.647 L74.4411 241.637 L61.8948 274.207 L57.0106 274.207 L68.8161 243.582 L52.219 243.582 L52.219 239.647 Z" fill="#000000" fill-rule="nonzero" fill-opacity="1" /><path clip-path="url(#clip990)" d="M83.6077 239.647 L101.964 239.647 L101.964 243.582 L87.8901 243.582 L87.8901 252.054 Q88.9086 251.707 89.9271 251.545 Q90.9456 251.36 91.9641 251.36 Q97.7511 251.36 101.131 254.531 Q104.51 257.702 104.51 263.119 Q104.51 268.697 101.038 271.799 Q97.566 274.878 91.2465 274.878 Q89.0706 274.878 86.8021 274.508 Q84.5568 274.137 82.1494 273.397 L82.1494 268.697 Q84.2327 269.832 86.4549 270.387 Q88.6771 270.943 91.1539 270.943 Q95.1586 270.943 97.4965 268.836 Q99.8345 266.73 99.8345 263.119 Q99.8345 259.508 97.4965 257.401 Q95.1586 255.295 91.1539 255.295 Q89.279 255.295 87.404 255.711 Q85.5521 256.128 83.6077 257.008 L83.6077 239.647 Z" fill="#000000" fill-rule="nonzero" fill-opacity="1" /><polyline clip-path="url(#clip992)" style="stroke:#0000ff; stroke-linecap:round; stroke-linejoin:round; stroke-width:4; stroke-opacity:1; fill:none" points="203.359,717.282 228.667,721.872 232.717,718.185 247.96,716.015 258.961,716.023 282.926,718.951 303.028,723.586 329.268,726.023 355.569,728.131 386.004,732.776 415.555,732.203 440.773,732.329 476.035,733.402 499.36,739.503 522.591,743.979 556.627,747.594 582.842,749.571 604.122,754.583 632.58,761.032 656.325,768.346 679.119,776.112 702.507,782.476 730.608,788.803 753.889,797.695 780.194,802.861 811.285,810.948 833.605,810.343 867.464,812.572 893.068,821.594 919.369,829.502 950.278,838.923 975.102,847.643 1001.24,854.217 1019.95,864.73 1036.84,876.954 1044.38,881.912 1064.9,884.018 1082.53,885.864 1104.74,887.225 1131.3,891.052 1157.64,901.659 1185.75,912.067 1208.02,916.698 1233.5,920.051 1265.58,921.544 1294.53,922.733 1327.1,927.375 1355.32,932.2 1381.87,935.861 1406.96,938.399 1439.6,937.721 1463.94,937.06 1490.03,936.415 1516.44,933.587 1545.56,927.997 1574.04,929.3 1601.75,927.577 1628.25,928.166 1648.84,921.498 1667.54,918.563 1684.52,911.44 1702.2,905.038 1723.39,905.512 1746.44,903.952 1768.54,905.798 1787.48,909.452 1808.81,916.287 1828.85,927.953 1850.68,940.553 1866.42,951.556 1882.11,967.964 1892.56,981.99 1899.44,996.221 1908.53,1015.35 1920.6,1033.05 1933.59,1051.47 1944.92,1062.12 1964.18,1068.27 1979.11,1071.03 1989.34,1069.69 2010,1061.07 2026.74,1055.59 2048.08,1036.95 2059.51,1022.09 2061.94,1001.69 2063.49,983.804 2061.79,961.781 2048.48,946.199 2029.38,939.524 2004.82,930.027 1977.58,934.453 1953.49,933.262 1933.5,929.314 1915.11,926.033 1892.62,923.626 1872.27,929.827 1850.31,936.624 1833.53,944.568 1810.5,946.785 1785.58,945.655 1757.99,940.545 1735.53,929.813 1712.48,919.13 1681.92,903.507 1656.79,885.343 1633.75,867.09 1618.15,852.439 1607.28,839.876 1591.37,827.107 1577.23,811.175 1565.27,795.722 1557.55,779.197 1557.48,763.121 1572.72,748.158 1587.07,735.538 1608.96,730.106 1628.16,731.012 1653.66,731.584 1673.5,742.191 1694.2,750.352 1708.24,756.074 1730.21,762.237 1752.76,772.942 1764.79,782.207 1781.81,792.617 1800.58,803.555 1823.05,810.79 1843.96,812.576 1865.63,812.67 1889.75,804.62 1910.07,800.814 1926.24,800.055 1945.27,809.094 1961.68,822.1 1975.87,837.892 1986.14,853.762 1994.73,873.483 2002.54,894.974 2006.03,914.129 2005.22,934.991 2005.12,945.461 2008.12,959.009 2018.99,977.19 2026.73,994.738 2039.23,1009.51 2050.87,1016.88 2064.19,1020.04 2083.02,1014.42 2102.67,1006.61 2116.5,997.447 2132.7,985.005 2140.88,976.499 2142.33,956.755 2130.53,939.633 2112.93,924.468 2097.45,908.173 2076.25,895.979 2048.49,891.037 2020.97,886.582 2003.41,884.202 1980.06,882.861 1959.42,880.714 1941.15,869.803 1926.66,863.256 1904.59,857.142 1888.12,856.76 1866,859.637 1845.91,854.438 1824.63,848.909 1804.38,847.719 1780.05,844.198 1762.03,839.423 1744.72,835.057 1723.03,833.851 1695.59,835.661 1668.74,841.324 1652.47,839.821 1648.71,831.292 1644.68,828.445 1638.15,827.108 1627.12,826.396 1618.08,825.568 1603.96,830.139 1588.57,837.68 1562.19,842.026 1540.31,845.3 1525.65,850.91 1517.18,860.263 1525.49,861.642 1545.26,859.315 1576.7,854.547 1592.62,837.29 1609.09,821.635 1615.31,805.369 1606.31,788.861 1591.72,770.088 1580.95,759.668 1571.14,739.791 1551.49,728.689 1530.21,739.888 1507.3,740.759 1478.95,735.288 1475.16,716.234 1470.89,697.622 1472.51,676.89 1476.7,660.356 1491.93,638.185 1499.41,617.938 1502.55,595.527 1485.34,582.58 1463.53,575.735 1453.25,573.818 1464.03,560.361 1485.94,548.845 1521.54,548.463 1559.68,535.054 1585.11,517.623 1603.52,493.749 1617.53,472.428 1639.36,463.702 1665.54,467.852 1689.81,471.876 1709.08,489.808 1735.52,502.595 1755.16,519.053 1765.86,539.911 1754.59,557.118 1735.8,573.155 1708.81,586.362 1675.35,592.191 1648.45,591.722 1615.71,576.782 1589.27,561.001 1578.86,539.343 1578.59,517.274 1597.24,503.375 1612.06,492.68 1635.04,478.901 1659.49,469.954 1682.42,454.295 1704.81,441.479 1725.49,441.51 1748.04,427.94 1751.22,412.744 1761.68,395.587 1774.02,389.611 1792.84,372.252 1783.91,358.809 1762.09,348.21 1758.78,346.07 1771.72,341.896 1797.65,335.666 1826.54,340.747 1851.06,343.876 1878.75,349.399 1902.23,367.381 1904.08,385.389 1900.49,397.739 1878.75,408.16 1864.3,430.702 1849.19,457.86 1838.32,490.646 1840.13,511.968 1803.76,513.557 1780.43,529.258 1747.56,536.328 1718.24,553.068 1700.71,578.083 1681.22,596.151 1652.82,590.258 1630.97,578.107 1602.8,569.133 1587.64,556.731 1562.26,540.454 1553.44,533.382 1561.47,511.857 1586.39,502.996 1620.41,497.962 1649.46,501.623 1685.66,507.935 1715.03,521.971 1722.47,544.637 1736.41,564.954 1752.04,569.4 1778.66,574.59 1802.38,585.137 1812.83,587.605 1837.08,579.975 1862.74,571.623 1882.47,561.942 1903.96,565.392 1923.07,580.26 1921.24,598.853 1921.43,619.939 1906.34,651.06 1887.64,676.784 1862.83,696.48 1840.8,726.207 1839.07,751.307 1803.45,763.241 1774.71,767.925 1746.43,782.91 1720.36,797.781 1704.11,816.617 1687.05,837.711 1661.66,859.705 1634.05,868.174 1607.26,859.492 1583.56,854.154 1551.37,849.893 1522.1,841.671 1502.68,820.152 1489.15,800.156 1459.03,777.498 1440.64,758.601 1414.24,741.624 1389.69,739.105 1359.67,744.612 1341.53,741.991 1315.83,733.208 1310.94,708.06 1293.13,699.521 1268.62,703.15 1250.05,712.327 1226.09,729.306 1219.43,737.373 1188.69,739.473 1166.03,744.873 1141.15,738.127 1120.5,719.767 1096.31,707.343 1060.69,701.765 1028.62,692.913 1005.95,687.507 985.701,677.549 965.473,657.105 965.966,643.32 975.109,623.116 990.521,603.445 1001.87,580.655 1009,550.013 1015.39,524.878 999.802,505.081 980.5,500.136 969.443,489.304 975.008,475.485 1001.99,475.026 1037.07,479.602 1079.25,477.53 1112.59,472.785 1140.5,454.167 1165.05,429.167 1190.81,409.976 1222.01,403.32 1259.75,406.397 1292.76,417.378 1323.7,432.719 1354.62,447.048 1381.59,459.569 1403.17,472.852 1439.92,480.542 1466.22,494.663 1492.21,517.364 1522.53,543.455 1549.98,559.281 1574.12,570.352 1592.4,581.367 1603,571.206 1623.41,561.654 1649.9,548.388 1674.13,539.076 1703.01,527.417 1737.19,525.653 1774.53,534.887 1801.29,560.911 1808.04,582.177 1803.64,613.96 1785.05,645.62 1783.36,673.007 1774.88,705.206 1775.89,739.741 1792.49,770.646 1823.84,795.934 1863.73,792.903 1885.43,796.072 1916.96,802.416 1936.1,824.75 1960.01,850.253 1981.38,881.54 1993.48,914.481 1998.35,936.853 2014.51,919.877 2051.06,925.246 2079.04,930.932 2090.46,946.834 2093.17,950.341 2093.76,955.89 2098.04,971.978 2101.09,978.461 2114.79,982.391 2132.42,984.026 2161.29,977.842 2188.73,987.038 2203.28,1000.56 2216.47,1023.03 2215.95,1036.63 2218.94,1022.01 2224.26,1003.21 2223.33,974.981 2211.99,949.495 2196.08,926.025 2185.65,903.189 2186.45,883.394 2158.96,862.355 2152.53,831.511 2157.3,805.945 2176.12,794.419 2197.69,797.743 2220.6,805.875 2237.44,818.547 2248.78,838.057 2274.6,860.77 2289.56,882.591 2279.71,909.079 2260.47,931.585 2243.3,952.212 2212.54,963.505 2192.94,982.424 2165.07,995.38 2138.29,1018.61 2118.38,1040.04 2108.58,1064.16 2089.55,1086.79 2071.89,1108.62 2045.99,1125.02 2019.24,1137.47 1988.59,1153.42 1962.23,1171.13 1933.7,1180.34 1904.94,1200.33 1888.65,1217.9 1856.39,1230.18 1837.11,1243.96 1818.21,1263.23 1800.13,1291.34 1794.19,1312.75 1788.97,1332.91 1781.84,1356.61 1804.38,1377.36 1814.52,1392.27 1807.47,1415.51 1799.19,1441.25 1779.41,1445.72 1756.03,1442.98 1735,1423.86 1721.64,1397.12 1707.96,1375.66 1683.44,1353.22 1645.01,1327.94 1612.55,1319.68 1577.71,1319.48 1540.61,1327.14 1500.27,1335.74 1472.16,1337.75 1437.63,1326.38 1411.97,1313.93 1392.93,1288.82 1390.19,1255.81 1385.95,1214.69 1365.13,1188.02 1342.29,1167.91 1348.78,1136.73 1346.28,1108.76 1337.74,1083.91 1325.68,1055.55 1307.24,1031.36 1301.87,1004.5 1307.29,971.03 1317.86,938.487 1336.61,908.744 1352.56,877.096 1364.83,844.984 1392.71,824.358 1387.38,796.02 1371.78,772.387 1342.13,748.85 1308.49,746.971 1287.78,732.982 1280.72,707.742 1276.02,676.124 1289.17,648.164 1304.38,625.767 1326.12,617.11 1356.93,605.406 1393.9,599.991 1434.83,596.084 1474.16,596.742 1503.68,589.793 1525.32,562.668 1543.9,540.974 1572.33,528.346 1595.22,522.803 1597.45,506.632 1582.52,492.865 1560.58,477.941 1534.88,466.041 1507.57,439.939 1484.79,414.552 1470.86,387.815 1452.92,366.84 1450.61,348.584 1458.36,328.302 1475.26,318.658 1492.59,328.778 1522.1,332.542 1562.54,334.963 1598.51,345.158 1639.56,350.655 1672.9,353.676 1703.8,368.758 1728.96,374.447 1754.02,366.946 1776.96,356.217 1808.48,351.676 1840.91,351.663 1871.88,345.877 1895.26,359.972 1907.54,377.231 1913.43,371.222 1923.15,353.916 1939.34,336.877 1958.82,327.126 1983.31,312.468 2002.47,303.009 1991.15,304.437 1969.08,291.795 1958.06,274.828 1945.97,243.58 1951.69,214.064 1963.49,198.826 1991.18,190.256 2024.44,193.208 2050.28,198.361 2084.44,202.619 2119.73,214.239 2142.78,236.509 2146.98,265.603 2140.96,293.002 2129.31,301.328 2133.65,316.521 2137.42,338.665 2132.9,371.783 2102.81,388.728 2083.61,423.203 2055.88,446.121 2033.11,472.184 2026.72,507.138 1999.23,513.869 1964.46,515.405 1928.82,528.38 1897.89,541.699 1881.52,568.225 1869,599.623 1869.84,617.226 1897.94,621.477 1926.09,634.503 1961.73,648.543 1995.91,673.81 2025.66,688.108 2065.68,693.152 2101.13,694.103 2139.33,690.252 2168.49,694.6 2194.26,692.982 2205.03,679.416 2218.69,659.783 2234.38,639.037 2232.48,614.14 2229.02,594.646 2219.7,570.354 2192.87,549.343 2170.86,530.652 2146.27,515.964 2104.59,516.72 2078.26,524.573 2053.96,542.104 2037.57,561.903 2012.23,586.26 2007.33,616.227 2012.15,648.077 2015.69,678.793 2033.43,705.502 2047.85,729.547 2059.91,763.419 2074.75,793.586 2106.64,804.974 2136.08,822.738 2162.99,850.775 2183.56,874.326 2198,906.237 2206.2,931.292 2200.86,943.005 2169.42,944.248 2133.08,956.928 2104.81,955.768 2088.71,963.762 2069.11,967.464 2047.31,963.191 2016.25,948.503 1985.6,940.493 1949.05,943.378 1904.49,956.29 1865.77,970.91 1826.72,971.148 1783.11,978.998 1744.77,980.01 1705.91,981.23 1674.21,974.099 1639.64,979.73 1607.54,973.086 1574.47,966.473 1538.22,934.15 1510.32,919.996 1472.87,912.677 1439.98,897.559 1410.14,881.471 1378.42,859.488 1351.82,852.354 1325.9,866.671 1300.73,884.017 1271.1,899.908 1234.17,916.779 1195.52,924.53 1165.27,920.031 1137.5,896.443 1119.52,873.076 1101.88,842.366 1075.6,817.42 1064.94,786.539 1060.4,758.146 1063.04,734.808 1049.27,706.281 1026.61,688.476 997.685,676.527 978.504,655.032 970.016,623.184 967.282,600.21 956.294,572.362 965.265,545.772 986.427,518.678 997.075,502.145 1011.36,495.94 1021.6,481.141 1026.27,464.772 1032.19,441.146 1038.86,416.853 1044.38,388.089 1056.6,355.598 1057.37,332.045 1034.64,313.36 1014.41,299.765 987.494,299.508 960.132,308.779 932.608,304.043 899.744,289.717 859.482,275.132 837.467,268.517 815.961,264.723 802.266,246.954 800.831,226.083 815.561,208.372 837.684,189.167 862.312,171.526 905.583,160.148 937.103,148.233 969.697,141.691 999.756,153.142 1028.19,160.142 1061.68,155.388 1095.94,150.051 1115.62,129.317 1131.97,109.951 1145.58,88.1243 "/>
<polyline clip-path="url(#clip992)" style="stroke:#ff0000; stroke-linecap:round; stroke-linejoin:round; stroke-width:4; stroke-opacity:1; fill:none" points="203.121,717.252 234.087,723.651 236.748,714.754 258.284,716.058 261.727,716.76 289.251,722.457 306.448,726.013 335.75,725.767 360.729,727.785 391.709,734.184 418.467,730.271 440.003,731.563 483.089,734.172 495.094,742.958 520.086,744.963 563.187,747.572 581.295,748.163 601.096,755.41 635.562,762.523 655.377,769.771 678.648,777.732 702.788,782.716 733.826,789.127 752.788,799.352 781.266,802.084 814.923,812.199 831.324,806.12 873.629,811.707 891.752,824.922 919.377,830.632 953.077,840.747 972.95,848.007 1000.6,853.717 1015.3,866.231 1033.48,879.459 1036.94,880.173 1069.78,880.64 1083.61,883.508 1108.69,885.526 1136.37,891.248 1161.49,905.928 1188.34,914.627 1206.5,915.23 1235.06,917.974 1271.4,919.156 1296.5,921.186 1331.14,928.348 1355.41,933.368 1380.5,935.386 1405.61,937.417 1442.81,935.632 1460.99,936.223 1490.41,935.989 1517.21,932.039 1548.3,925.837 1576.04,931.559 1602.83,927.622 1627.95,929.652 1646,917.593 1664.18,918.184 1681.38,909.115 1701.22,903.737 1725.51,908.758 1748.81,904.094 1769.64,908.389 1786.98,911.969 1810.45,919.968 1828.81,933.221 1851.46,944.209 1863.71,953.057 1880.43,972.302 1888.38,983.426 1895.51,997.54 1907.95,1019.09 1922.05,1034.65 1935.33,1053.22 1944.95,1058.38 1969.3,1063.42 1979.75,1065.58 1987.54,1064.01 2016.01,1054.07 2027.26,1053.22 2049.36,1026.15 2055.3,1017.88 2054.06,995.497 2058.14,980.546 2056.91,958.188 2037.69,947.913 2020.3,944.32 1997.62,933.331 1970.01,940.259 1949.17,935.965 1932.62,929.394 1915.27,925.813 1890.13,923.782 1872.12,935.854 1848.81,940.505 1835.92,947.322 1807.31,944.566 1782.18,942.548 1754.41,936.814 1736.07,923.561 1712.61,915.563 1676.94,898.729 1656,881.797 1635.07,864.865 1623.7,853.077 1612.35,841.276 1590.59,827.347 1577.46,808.901 1566.95,794.159 1560.74,777.154 1564.92,762.301 1583.77,747.326 1594.02,736.866 1617.28,732.24 1631.11,735.082 1660.45,734.848 1674.42,750.279 1695.19,754.561 1705.58,756.69 1733.28,762.4 1755.03,776.292 1760.31,783.663 1782.9,794.602 1802.03,804.84 1826.29,809.836 1845.27,807.449 1866.89,808.753 1891.79,798.159 1909.95,798.762 1923.82,801.616 1945.63,815.534 1960.51,828.036 1974.58,843.516 1981.71,857.568 1990.7,878.315 1999.68,899.074 2002.53,915.427 2000.27,937.035 2002.93,940.739 2009.27,957.831 2025.22,980.066 2028.08,996.457 2043.01,1009.02 2053.45,1011.19 2067.37,1014.05 2088.03,1005.67 2104.39,999.57 2113.79,992.027 2131.79,979.943 2136.89,974.689 2136.43,949.34 2121.49,936.789 2103.89,920.546 2093.26,905.755 2069.75,897.757 2041.14,895.013 2016.83,890.005 2006.42,887.851 1977.82,885.12 1960.47,881.539 1942.92,865.32 1929.04,862.466 1901.28,856.744 1889.23,860.558 1862.48,864.496 1844.14,851.268 1823.32,846.986 1804.33,849.361 1776.61,843.651 1763.56,837.818 1746.23,834.238 1720.32,835.197 1690.1,838.421 1665.98,846.038 1657.26,837.941 1657.11,825.316 1649.36,826.867 1638.14,827.703 1623.44,827.827 1616.51,826.399 1599.32,835.443 1586.43,842.236 1553.58,841.768 1538.05,844.857 1528.6,852.363 1521.79,863.573 1537.33,860.472 1556.32,858.085 1587.38,851.883 1596.68,831.752 1611.25,819.016 1615.41,804.139 1605.74,786.42 1589.15,767.285 1580.43,759.2 1568.97,734.861 1549.06,727.613 1526.75,741.875 1505.17,740.57 1474.05,734.159 1475.62,715.64 1470.29,695.718 1472.7,674.258 1476.88,659.442 1494.77,634.93 1499.79,617.174 1503.03,592.809 1484.01,582.645 1460.7,574.733 1453.8,573.318 1465.72,557.014 1490.59,546.493 1530.2,548.375 1567.89,531.136 1586.67,516.259 1604.49,491.845 1617.19,472.637 1637.73,464.38 1666.14,467.087 1690.26,472.022 1710.26,491.698 1739.64,503.954 1757.05,520 1765.91,540.537 1754.06,556.829 1734.48,574.672 1705.35,587.444 1670.97,592.896 1649.42,591.604 1610.48,574.229 1588.83,560.41 1580.02,539.86 1578.95,517.797 1597.72,502.932 1611.38,493.26 1637.86,476.87 1661.86,469.327 1684.88,452.235 1706.23,441.049 1724.28,441.628 1750.72,425.262 1750.57,412.797 1763.21,393.625 1775.19,389.86 1795.54,369.175 1784.23,357.546 1758.33,346.041 1774.57,340.061 1805.38,333.945 1832.09,342.497 1853.57,343.789 1881.11,349.413 1904.58,369.728 1903.94,385.122 1900.67,396.874 1875.1,410.286 1860.84,435.352 1845.76,463.383 1836.73,495.795 1840.36,509.011 1799.11,513.023 1779.56,530.853 1745.21,536.292 1714.44,554.946 1700.1,580.123 1681.32,595.024 1653.7,589.352 1631.19,578.486 1600.96,569.147 1589.65,557.457 1558.5,538.568 1555.88,534.914 1563.37,508.359 1590.83,501.517 1628.62,496.792 1652.74,501.739 1690.68,509.516 1715.8,524.023 1721.2,543.847 1736.95,565.812 1750.76,568.642 1781.84,575.016 1804.36,585.894 1811.28,587.309 1843.02,578.203 1867.03,570.636 1884.11,561.653 1904.84,565.898 1925.75,582.67 1920.85,600.414 1922.04,622.539 1904.48,659.614 1884.09,680.472 1861.03,697.674 1837.33,730.431 1839.31,749.664 1798.91,763.335 1775.65,767.974 1745.63,783.786 1719.87,797.347 1703.67,816.038 1686.63,837.708 1657.53,863.204 1634.23,867.855 1607.34,859.156 1583.09,854.147 1547.59,849.988 1520.74,841.288 1501.51,818.438 1488.41,799.992 1451.92,773.598 1441.45,758.868 1413.71,740.583 1392.11,739.278 1357.65,744.742 1343.82,741.887 1313.56,732.523 1310.81,703.679 1293.55,700.123 1266.83,704.049 1249.63,713.068 1222.12,732.535 1221.27,735.501 1183.33,740.25 1163.5,745.603 1136.73,736.928 1116.85,717.117 1094.38,706.202 1055.58,701.354 1025.39,691.989 1008.15,688.433 985.735,677.531 963.303,654.089 965.891,645.205 976.204,622.244 993.401,600.709 1003.7,577.785 1009.67,544.598 1015.66,523.95 999.302,504.963 982.105,501.431 970.925,489.766 975.206,475.036 1007.86,475.492 1046.54,480.315 1087.77,476.304 1114.4,472.403 1141.84,453.084 1167.51,427.194 1190.62,410.126 1221.5,404.011 1264.44,406.583 1293.7,418.802 1325.57,434.675 1354.86,446.907 1380.72,458.437 1402.3,472.219 1443.62,480.684 1465.21,494.479 1494.66,519.237 1526.74,547.674 1549.21,558.527 1571.71,569.393 1590.74,579.557 1600.14,572.1 1624.99,561.579 1654.96,545.865 1675.51,537.596 1708.07,525.549 1740.77,526.017 1777.91,536.747 1803.22,563.794 1806.01,579.975 1803.05,616.878 1782.8,650.275 1783.94,672.424 1774.03,708.011 1775.34,742.785 1792.97,771.543 1826.13,797.223 1864.07,792.461 1877.94,795.316 1916.06,803.155 1935.42,826.005 1964.37,854 1984.77,886.547 1994.76,916.978 1997.62,933.331 2012.13,920.559 2054.64,926.17 2078.97,931.178 2089.61,945.993 2092.27,949.697 2094.12,956.391 2099.66,976.473 2102.32,980.19 2119.72,983.77 2137.92,984.373 2169.82,975.157 2195.22,989.874 2203.23,1001.01 2218.45,1026.27 2216.01,1035.26 2220.07,1020.28 2225.74,999.324 2222.57,970.259 2210.86,945.747 2194.85,923.536 2185.81,902.765 2187.19,884.147 2153.84,858.393 2151.54,826.461 2157.21,805.628 2174.34,796.584 2195.96,797.9 2222.92,806.575 2237.86,819.078 2250.37,840.513 2280.28,865.542 2290.15,883.311 2278.62,912.425 2258.25,933.442 2242.16,952.208 2209.47,964.402 2193.36,983.18 2164.14,996.1 2135.13,1021.72 2118.99,1040.52 2108.98,1063.78 2087.7,1087.88 2070.71,1109.73 2044.08,1126.42 2019.07,1137.12 1984.62,1155.38 1961.44,1172.82 1933.74,1179.79 1901.9,1201.81 1890.8,1215.42 1853.63,1229.99 1839.02,1242.88 1818.42,1264.1 1798.81,1295.09 1794.66,1310.18 1788.83,1331.32 1781.34,1358.51 1808.62,1380.17 1813.11,1390.7 1805.62,1417.93 1798.12,1445.2 1779.8,1444.59 1754.48,1442.53 1730.69,1421.56 1719.91,1393.71 1706.62,1374.95 1680.21,1350.28 1636.39,1321.99 1614.6,1320.66 1578.04,1319.46 1538.95,1327.29 1495.51,1337.45 1477.23,1336.83 1436.23,1325.12 1413.52,1313.99 1391.59,1287.08 1390.48,1251.75 1384.1,1208.99 1363.98,1188.9 1343.88,1168.8 1349.75,1135.04 1346.12,1108.87 1338.16,1084.99 1324.96,1053.7 1305.77,1030.7 1302.15,1004.6 1308.88,968.007 1318.21,935.152 1337.07,907.466 1353.31,876.1 1366.06,844.045 1393.57,824.516 1386.49,797.863 1371.63,772.773 1338.67,747.117 1309.34,747.363 1291.14,734.184 1280.64,706.891 1276.15,671.44 1290.67,646.214 1303.47,626.919 1324.09,618.626 1361.05,604.303 1398.9,599.565 1440.2,595.541 1476.38,596.723 1500.42,589.143 1526.85,560.188 1543.04,541.644 1572.17,528.896 1591.91,523.58 1596.06,508.826 1582.15,493.507 1557.91,476.07 1532.02,464.528 1500.81,433.211 1481.71,410.631 1470.36,386.537 1453.9,367.624 1451.2,351.541 1457.86,328.063 1474.95,319.154 1493.91,329.232 1529.11,333.33 1572.02,335.889 1602.15,345.155 1644.25,350.655 1672.6,353.35 1704.54,369.199 1725.19,373.42 1752.58,366.603 1777.35,356.144 1811.61,350.729 1844.22,351.185 1875.03,345.069 1895.87,361.742 1906.39,376.299 1911.46,371.131 1924.06,351.984 1943.53,334.253 1960.57,325.331 1986.91,309.015 2003.1,303.022 1991.97,303.846 1963.43,288.736 1957.17,271.988 1944.66,238.506 1951.98,212.173 1962.09,201.886 1994.46,189.949 2029.63,194.023 2050.26,198.231 2088.89,203.005 2125.1,216.553 2144.35,239.01 2147.45,267.472 2140.2,293.83 2131.71,298.297 2133.77,317.296 2137.66,342.879 2131.42,378.822 2099,390.82 2080.79,430.59 2054.42,446.956 2032.49,473.584 2026.2,509.676 2003.86,511.324 1962.62,515.348 1925.84,529.635 1896.76,542.395 1881.67,570.512 1869.19,602.321 1870.19,611.895 1897.02,620.533 1929.14,636.505 1969.01,650.952 2002.19,676.546 2024.8,687.449 2067.16,693.011 2099.95,693.478 2141.3,689.442 2165.54,694.426 2191.42,693.466 2202.38,680.066 2219.23,658.495 2236.05,636.924 2232.12,611.12 2229.21,594.914 2218.35,567.719 2187.8,545.865 2170.29,529.819 2145.06,515.299 2096.91,517.908 2080.66,523.937 2053.44,543.306 2037.4,561.85 2007.7,590.102 2007.3,618.146 2012.98,650.582 2016.03,679.389 2034.58,705.119 2046.19,729.446 2061.49,767.113 2075.8,795.169 2106.2,804.57 2137.66,823.606 2165.89,854.578 2182.67,873.774 2198.9,908.61 2204.46,928.668 2202.03,937.626 2167.5,943.126 2126.23,959.861 2105.36,955.555 2092.49,962.372 2069.17,967.035 2044.85,962.015 2009.06,945.157 1981.26,939.422 1943.24,944.209 1894.96,959.504 1862.23,971.699 1825.83,970.505 1779.18,979.833 1746.26,979.353 1705.56,980.436 1677.78,974.701 1639.73,979.476 1608.49,973.028 1573.77,965.854 1532.76,928.938 1512.78,921.654 1471.18,913.065 1439.06,896.957 1410.41,881.576 1376.54,858.811 1355.75,854.529 1326.45,867.4 1299.75,883.963 1269.56,899.837 1227.29,919.525 1192.71,925.013 1168.47,920.005 1135.52,894.238 1119.88,872.064 1099.92,839.541 1073.95,815.263 1064.39,784.931 1060.87,759.028 1063.42,737.531 1047.83,702.892 1026.25,689.024 996.93,676.706 977.954,653.966 969.319,620.828 967.569,601.669 954.653,570.82 965.819,544.955 989.004,515.336 995.874,504.249 1008.75,497.53 1020.77,481.263 1025.89,463.593 1033.58,437.112 1040.41,413.584 1045.5,383.486 1059.15,348.97 1056.55,332.887 1033.36,312.608 1015.34,299.601 986.198,299.847 957.922,309.581 930.5,303.969 895.368,287.456 855.97,273.182 842.273,270.376 818.293,265.467 802.05,246.627 801.24,224.761 817.526,206.402 841.506,186.529 864.619,169.597 915.082,158.251 936.458,147.164 970.65,141.775 999.736,153.908 1027.11,159.494 1064.73,154.806 1098.93,149.428 1115.96,128.19 1132.15,109.88 1145.74,87.9763 "/>
<path clip-path="url(#clip990)" d="M214.252 1438.47 L760.776 1438.47 L760.776 1282.95 L214.252 1282.95  Z" fill="#ffffff" fill-rule="evenodd" fill-opacity="1"/>
<polyline clip-path="url(#clip990)" style="stroke:#000000; stroke-linecap:round; stroke-linejoin:round; stroke-width:4; stroke-opacity:1; fill:none" points="214.252,1438.47 760.776,1438.47 760.776,1282.95 214.252,1282.95 214.252,1438.47 "/>
<polyline clip-path="url(#clip990)" style="stroke:#0000ff; stroke-linecap:round; stroke-linejoin:round; stroke-width:4; stroke-opacity:1; fill:none" points="238.832,1334.79 386.315,1334.79 "/>
<path clip-path="url(#clip990)" d="M434.924 1338.05 L434.924 1340.13 L415.34 1340.13 Q415.618 1344.53 417.979 1346.84 Q420.363 1349.13 424.6 1349.13 Q427.053 1349.13 429.345 1348.53 Q431.66 1347.93 433.928 1346.73 L433.928 1350.75 Q431.637 1351.73 429.229 1352.24 Q426.822 1352.75 424.345 1352.75 Q418.141 1352.75 414.507 1349.13 Q410.896 1345.52 410.896 1339.37 Q410.896 1333 414.322 1329.27 Q417.771 1325.52 423.604 1325.52 Q428.836 1325.52 431.868 1328.9 Q434.924 1332.26 434.924 1338.05 M430.664 1336.8 Q430.618 1333.3 428.697 1331.22 Q426.799 1329.13 423.65 1329.13 Q420.086 1329.13 417.933 1331.15 Q415.803 1333.16 415.479 1336.82 L430.664 1336.8 Z" fill="#000000" fill-rule="nonzero" fill-opacity="1" /><path clip-path="url(#clip990)" d="M458.442 1326.91 L458.442 1330.94 Q456.636 1330.01 454.692 1329.55 Q452.748 1329.09 450.664 1329.09 Q447.493 1329.09 445.896 1330.06 Q444.322 1331.03 444.322 1332.98 Q444.322 1334.46 445.456 1335.32 Q446.59 1336.15 450.016 1336.91 L451.474 1337.24 Q456.011 1338.21 457.91 1339.99 Q459.831 1341.75 459.831 1344.92 Q459.831 1348.53 456.96 1350.64 Q454.113 1352.75 449.113 1352.75 Q447.03 1352.75 444.761 1352.33 Q442.516 1351.94 440.016 1351.13 L440.016 1346.73 Q442.377 1347.95 444.669 1348.58 Q446.961 1349.18 449.206 1349.18 Q452.215 1349.18 453.836 1348.16 Q455.456 1347.12 455.456 1345.25 Q455.456 1343.51 454.275 1342.58 Q453.118 1341.66 449.16 1340.8 L447.678 1340.45 Q443.72 1339.62 441.961 1337.91 Q440.201 1336.17 440.201 1333.16 Q440.201 1329.51 442.794 1327.51 Q445.386 1325.52 450.155 1325.52 Q452.516 1325.52 454.599 1325.87 Q456.683 1326.22 458.442 1326.91 Z" fill="#000000" fill-rule="nonzero" fill-opacity="1" /><path clip-path="url(#clip990)" d="M470.826 1318.79 L470.826 1326.15 L479.599 1326.15 L479.599 1329.46 L470.826 1329.46 L470.826 1343.53 Q470.826 1346.7 471.683 1347.61 Q472.562 1348.51 475.224 1348.51 L479.599 1348.51 L479.599 1352.07 L475.224 1352.07 Q470.294 1352.07 468.419 1350.25 Q466.544 1348.39 466.544 1343.53 L466.544 1329.46 L463.419 1329.46 L463.419 1326.15 L466.544 1326.15 L466.544 1318.79 L470.826 1318.79 Z" fill="#000000" fill-rule="nonzero" fill-opacity="1" /><path clip-path="url(#clip990)" d="M485.201 1326.15 L489.46 1326.15 L489.46 1352.07 L485.201 1352.07 L485.201 1326.15 M485.201 1316.06 L489.46 1316.06 L489.46 1321.45 L485.201 1321.45 L485.201 1316.06 Z" fill="#000000" fill-rule="nonzero" fill-opacity="1" /><path clip-path="url(#clip990)" d="M518.557 1331.13 Q520.155 1328.26 522.377 1326.89 Q524.599 1325.52 527.608 1325.52 Q531.659 1325.52 533.858 1328.37 Q536.057 1331.19 536.057 1336.43 L536.057 1352.07 L531.775 1352.07 L531.775 1336.57 Q531.775 1332.84 530.455 1331.03 Q529.136 1329.23 526.428 1329.23 Q523.118 1329.23 521.196 1331.43 Q519.275 1333.63 519.275 1337.42 L519.275 1352.07 L514.993 1352.07 L514.993 1336.57 Q514.993 1332.82 513.673 1331.03 Q512.354 1329.23 509.599 1329.23 Q506.335 1329.23 504.414 1331.45 Q502.493 1333.65 502.493 1337.42 L502.493 1352.07 L498.21 1352.07 L498.21 1326.15 L502.493 1326.15 L502.493 1330.18 Q503.951 1327.79 505.988 1326.66 Q508.025 1325.52 510.826 1325.52 Q513.65 1325.52 515.618 1326.96 Q517.608 1328.39 518.557 1331.13 Z" fill="#000000" fill-rule="nonzero" fill-opacity="1" /><path clip-path="url(#clip990)" d="M556.335 1339.04 Q551.173 1339.04 549.182 1340.22 Q547.191 1341.4 547.191 1344.25 Q547.191 1346.52 548.673 1347.86 Q550.178 1349.18 552.747 1349.18 Q556.289 1349.18 558.418 1346.68 Q560.571 1344.16 560.571 1339.99 L560.571 1339.04 L556.335 1339.04 M564.83 1337.28 L564.83 1352.07 L560.571 1352.07 L560.571 1348.14 Q559.113 1350.5 556.937 1351.63 Q554.761 1352.75 551.613 1352.75 Q547.631 1352.75 545.27 1350.52 Q542.932 1348.28 542.932 1344.53 Q542.932 1340.15 545.849 1337.93 Q548.789 1335.71 554.599 1335.71 L560.571 1335.71 L560.571 1335.29 Q560.571 1332.35 558.627 1330.76 Q556.705 1329.13 553.21 1329.13 Q550.988 1329.13 548.881 1329.67 Q546.775 1330.2 544.83 1331.26 L544.83 1327.33 Q547.168 1326.43 549.367 1325.99 Q551.566 1325.52 553.65 1325.52 Q559.275 1325.52 562.053 1328.44 Q564.83 1331.36 564.83 1337.28 Z" fill="#000000" fill-rule="nonzero" fill-opacity="1" /><path clip-path="url(#clip990)" d="M577.816 1318.79 L577.816 1326.15 L586.589 1326.15 L586.589 1329.46 L577.816 1329.46 L577.816 1343.53 Q577.816 1346.7 578.673 1347.61 Q579.552 1348.51 582.214 1348.51 L586.589 1348.51 L586.589 1352.07 L582.214 1352.07 Q577.284 1352.07 575.409 1350.25 Q573.534 1348.39 573.534 1343.53 L573.534 1329.46 L570.409 1329.46 L570.409 1326.15 L573.534 1326.15 L573.534 1318.79 L577.816 1318.79 Z" fill="#000000" fill-rule="nonzero" fill-opacity="1" /><path clip-path="url(#clip990)" d="M614.367 1338.05 L614.367 1340.13 L594.784 1340.13 Q595.062 1344.53 597.423 1346.84 Q599.807 1349.13 604.043 1349.13 Q606.497 1349.13 608.788 1348.53 Q611.103 1347.93 613.372 1346.73 L613.372 1350.75 Q611.08 1351.73 608.673 1352.24 Q606.265 1352.75 603.788 1352.75 Q597.585 1352.75 593.95 1349.13 Q590.339 1345.52 590.339 1339.37 Q590.339 1333 593.765 1329.27 Q597.214 1325.52 603.048 1325.52 Q608.279 1325.52 611.312 1328.9 Q614.367 1332.26 614.367 1338.05 M610.108 1336.8 Q610.062 1333.3 608.14 1331.22 Q606.242 1329.13 603.094 1329.13 Q599.529 1329.13 597.376 1331.15 Q595.247 1333.16 594.923 1336.82 L610.108 1336.8 Z" fill="#000000" fill-rule="nonzero" fill-opacity="1" /><polyline clip-path="url(#clip990)" style="stroke:#ff0000; stroke-linecap:round; stroke-linejoin:round; stroke-width:4; stroke-opacity:1; fill:none" points="238.832,1386.63 386.315,1386.63 "/>
<path clip-path="url(#clip990)" d="M431.243 1382.97 Q432.84 1380.1 435.062 1378.73 Q437.285 1377.36 440.294 1377.36 Q444.345 1377.36 446.544 1380.21 Q448.743 1383.03 448.743 1388.27 L448.743 1403.91 L444.461 1403.91 L444.461 1388.41 Q444.461 1384.68 443.141 1382.87 Q441.822 1381.07 439.113 1381.07 Q435.803 1381.07 433.882 1383.27 Q431.961 1385.47 431.961 1389.26 L431.961 1403.91 L427.678 1403.91 L427.678 1388.41 Q427.678 1384.66 426.359 1382.87 Q425.039 1381.07 422.285 1381.07 Q419.021 1381.07 417.1 1383.29 Q415.178 1385.49 415.178 1389.26 L415.178 1403.91 L410.896 1403.91 L410.896 1377.99 L415.178 1377.99 L415.178 1382.02 Q416.637 1379.63 418.674 1378.5 Q420.711 1377.36 423.512 1377.36 Q426.336 1377.36 428.303 1378.8 Q430.294 1380.23 431.243 1382.97 Z" fill="#000000" fill-rule="nonzero" fill-opacity="1" /><path clip-path="url(#clip990)" d="M479.414 1389.89 L479.414 1391.97 L459.831 1391.97 Q460.109 1396.37 462.47 1398.68 Q464.854 1400.97 469.09 1400.97 Q471.544 1400.97 473.835 1400.37 Q476.15 1399.77 478.419 1398.57 L478.419 1402.59 Q476.127 1403.57 473.72 1404.08 Q471.312 1404.59 468.835 1404.59 Q462.632 1404.59 458.998 1400.97 Q455.386 1397.36 455.386 1391.21 Q455.386 1384.84 458.812 1381.11 Q462.261 1377.36 468.095 1377.36 Q473.326 1377.36 476.359 1380.74 Q479.414 1384.1 479.414 1389.89 M475.155 1388.64 Q475.109 1385.14 473.187 1383.06 Q471.289 1380.97 468.141 1380.97 Q464.576 1380.97 462.423 1382.99 Q460.294 1385 459.97 1388.66 L475.155 1388.64 Z" fill="#000000" fill-rule="nonzero" fill-opacity="1" /><path clip-path="url(#clip990)" d="M498.187 1390.88 Q493.025 1390.88 491.034 1392.06 Q489.044 1393.24 489.044 1396.09 Q489.044 1398.36 490.525 1399.7 Q492.03 1401.02 494.599 1401.02 Q498.141 1401.02 500.27 1398.52 Q502.423 1396 502.423 1391.83 L502.423 1390.88 L498.187 1390.88 M506.682 1389.12 L506.682 1403.91 L502.423 1403.91 L502.423 1399.98 Q500.965 1402.34 498.789 1403.47 Q496.613 1404.59 493.465 1404.59 Q489.483 1404.59 487.122 1402.36 Q484.784 1400.12 484.784 1396.37 Q484.784 1391.99 487.701 1389.77 Q490.641 1387.55 496.451 1387.55 L502.423 1387.55 L502.423 1387.13 Q502.423 1384.19 500.479 1382.6 Q498.557 1380.97 495.062 1380.97 Q492.84 1380.97 490.733 1381.51 Q488.627 1382.04 486.683 1383.1 L486.683 1379.17 Q489.021 1378.27 491.22 1377.83 Q493.419 1377.36 495.502 1377.36 Q501.127 1377.36 503.905 1380.28 Q506.682 1383.2 506.682 1389.12 Z" fill="#000000" fill-rule="nonzero" fill-opacity="1" /><path clip-path="url(#clip990)" d="M531.983 1378.75 L531.983 1382.78 Q530.178 1381.85 528.233 1381.39 Q526.289 1380.93 524.206 1380.93 Q521.034 1380.93 519.437 1381.9 Q517.863 1382.87 517.863 1384.82 Q517.863 1386.3 518.997 1387.16 Q520.131 1387.99 523.557 1388.75 L525.016 1389.08 Q529.553 1390.05 531.451 1391.83 Q533.372 1393.59 533.372 1396.76 Q533.372 1400.37 530.502 1402.48 Q527.655 1404.59 522.655 1404.59 Q520.571 1404.59 518.303 1404.17 Q516.057 1403.78 513.557 1402.97 L513.557 1398.57 Q515.919 1399.79 518.21 1400.42 Q520.502 1401.02 522.747 1401.02 Q525.756 1401.02 527.377 1400 Q528.997 1398.96 528.997 1397.09 Q528.997 1395.35 527.817 1394.42 Q526.659 1393.5 522.701 1392.64 L521.219 1392.29 Q517.261 1391.46 515.502 1389.75 Q513.743 1388.01 513.743 1385 Q513.743 1381.35 516.335 1379.35 Q518.928 1377.36 523.696 1377.36 Q526.057 1377.36 528.141 1377.71 Q530.224 1378.06 531.983 1378.75 Z" fill="#000000" fill-rule="nonzero" fill-opacity="1" /><path clip-path="url(#clip990)" d="M539.715 1393.68 L539.715 1377.99 L543.974 1377.99 L543.974 1393.52 Q543.974 1397.2 545.409 1399.05 Q546.844 1400.88 549.715 1400.88 Q553.164 1400.88 555.154 1398.68 Q557.168 1396.48 557.168 1392.69 L557.168 1377.99 L561.428 1377.99 L561.428 1403.91 L557.168 1403.91 L557.168 1399.93 Q555.617 1402.29 553.557 1403.45 Q551.52 1404.59 548.812 1404.59 Q544.344 1404.59 542.029 1401.81 Q539.715 1399.03 539.715 1393.68 M550.432 1377.36 L550.432 1377.36 Z" fill="#000000" fill-rule="nonzero" fill-opacity="1" /><path clip-path="url(#clip990)" d="M585.224 1381.97 Q584.506 1381.55 583.65 1381.37 Q582.816 1381.16 581.798 1381.16 Q578.187 1381.16 576.242 1383.52 Q574.321 1385.86 574.321 1390.26 L574.321 1403.91 L570.039 1403.91 L570.039 1377.99 L574.321 1377.99 L574.321 1382.02 Q575.664 1379.66 577.816 1378.52 Q579.969 1377.36 583.048 1377.36 Q583.488 1377.36 584.02 1377.43 Q584.552 1377.48 585.201 1377.6 L585.224 1381.97 Z" fill="#000000" fill-rule="nonzero" fill-opacity="1" /><path clip-path="url(#clip990)" d="M610.825 1389.89 L610.825 1391.97 L591.242 1391.97 Q591.52 1396.37 593.881 1398.68 Q596.265 1400.97 600.501 1400.97 Q602.955 1400.97 605.247 1400.37 Q607.562 1399.77 609.83 1398.57 L609.83 1402.59 Q607.538 1403.57 605.131 1404.08 Q602.724 1404.59 600.247 1404.59 Q594.043 1404.59 590.409 1400.97 Q586.798 1397.36 586.798 1391.21 Q586.798 1384.84 590.224 1381.11 Q593.673 1377.36 599.506 1377.36 Q604.737 1377.36 607.77 1380.74 Q610.825 1384.1 610.825 1389.89 M606.566 1388.64 Q606.52 1385.14 604.599 1383.06 Q602.7 1380.97 599.552 1380.97 Q595.988 1380.97 593.835 1382.99 Q591.705 1385 591.381 1388.66 L606.566 1388.64 Z" fill="#000000" fill-rule="nonzero" fill-opacity="1" /><path clip-path="url(#clip990)" d="M638.001 1382.97 Q639.598 1380.1 641.821 1378.73 Q644.043 1377.36 647.052 1377.36 Q651.103 1377.36 653.302 1380.21 Q655.501 1383.03 655.501 1388.27 L655.501 1403.91 L651.219 1403.91 L651.219 1388.41 Q651.219 1384.68 649.899 1382.87 Q648.58 1381.07 645.872 1381.07 Q642.561 1381.07 640.64 1383.27 Q638.719 1385.47 638.719 1389.26 L638.719 1403.91 L634.436 1403.91 L634.436 1388.41 Q634.436 1384.66 633.117 1382.87 Q631.798 1381.07 629.043 1381.07 Q625.779 1381.07 623.858 1383.29 Q621.936 1385.49 621.936 1389.26 L621.936 1403.91 L617.654 1403.91 L617.654 1377.99 L621.936 1377.99 L621.936 1382.02 Q623.395 1379.63 625.432 1378.5 Q627.469 1377.36 630.27 1377.36 Q633.094 1377.36 635.061 1378.8 Q637.052 1380.23 638.001 1382.97 Z" fill="#000000" fill-rule="nonzero" fill-opacity="1" /><path clip-path="url(#clip990)" d="M686.172 1389.89 L686.172 1391.97 L666.589 1391.97 Q666.867 1396.37 669.228 1398.68 Q671.612 1400.97 675.848 1400.97 Q678.302 1400.97 680.594 1400.37 Q682.908 1399.77 685.177 1398.57 L685.177 1402.59 Q682.885 1403.57 680.478 1404.08 Q678.07 1404.59 675.594 1404.59 Q669.39 1404.59 665.756 1400.97 Q662.145 1397.36 662.145 1391.21 Q662.145 1384.84 665.57 1381.11 Q669.02 1377.36 674.853 1377.36 Q680.084 1377.36 683.117 1380.74 Q686.172 1384.1 686.172 1389.89 M681.913 1388.64 Q681.867 1385.14 679.945 1383.06 Q678.047 1380.97 674.899 1380.97 Q671.334 1380.97 669.182 1382.99 Q667.052 1385 666.728 1388.66 L681.913 1388.64 Z" fill="#000000" fill-rule="nonzero" fill-opacity="1" /><path clip-path="url(#clip990)" d="M714.714 1388.27 L714.714 1403.91 L710.455 1403.91 L710.455 1388.41 Q710.455 1384.72 709.019 1382.9 Q707.584 1381.07 704.714 1381.07 Q701.265 1381.07 699.274 1383.27 Q697.283 1385.47 697.283 1389.26 L697.283 1403.91 L693.001 1403.91 L693.001 1377.99 L697.283 1377.99 L697.283 1382.02 Q698.811 1379.68 700.871 1378.52 Q702.955 1377.36 705.663 1377.36 Q710.13 1377.36 712.422 1380.14 Q714.714 1382.9 714.714 1388.27 Z" fill="#000000" fill-rule="nonzero" fill-opacity="1" /><path clip-path="url(#clip990)" d="M727.422 1370.63 L727.422 1377.99 L736.195 1377.99 L736.195 1381.3 L727.422 1381.3 L727.422 1395.37 Q727.422 1398.54 728.278 1399.45 Q729.158 1400.35 731.82 1400.35 L736.195 1400.35 L736.195 1403.91 L731.82 1403.91 Q726.89 1403.91 725.015 1402.09 Q723.14 1400.23 723.14 1395.37 L723.14 1381.3 L720.015 1381.3 L720.015 1377.99 L723.14 1377.99 L723.14 1370.63 L727.422 1370.63 Z" fill="#000000" fill-rule="nonzero" fill-opacity="1" /></svg>
