<?xml version="1.0" encoding="utf-8"?>
<svg xmlns="http://www.w3.org/2000/svg" xmlns:xlink="http://www.w3.org/1999/xlink" width="600" height="400" viewBox="0 0 2400 1600">
<defs>
  <clipPath id="clip1300">
    <rect x="0" y="0" width="2400" height="1600"/>
  </clipPath>
</defs>
<polygon clip-path="url(#clip1300)" points="
0,1600 2400,1600 2400,0 0,0 
  " fill="#ffffff" fill-rule="evenodd" fill-opacity="1"/>
<defs>
  <clipPath id="clip1301">
    <rect x="480" y="0" width="1681" height="1600"/>
  </clipPath>
</defs>
<polygon clip-path="url(#clip1300)" points="
139.026,1509.79 2321.26,1509.79 2321.26,47.2441 139.026,47.2441 
  " fill="#ffffff" fill-rule="evenodd" fill-opacity="1"/>
<defs>
  <clipPath id="clip1302">
    <rect x="139" y="47" width="2183" height="1464"/>
  </clipPath>
</defs>
<polyline clip-path="url(#clip1302)" style="stroke:#000000; stroke-width:2; stroke-opacity:0.1; fill:none" points="
  190.442,1509.79 190.442,47.2441 
  "/>
<polyline clip-path="url(#clip1302)" style="stroke:#000000; stroke-width:2; stroke-opacity:0.1; fill:none" points="
  707.706,1509.79 707.706,47.2441 
  "/>
<polyline clip-path="url(#clip1302)" style="stroke:#000000; stroke-width:2; stroke-opacity:0.1; fill:none" points="
  1224.97,1509.79 1224.97,47.2441 
  "/>
<polyline clip-path="url(#clip1302)" style="stroke:#000000; stroke-width:2; stroke-opacity:0.1; fill:none" points="
  1742.23,1509.79 1742.23,47.2441 
  "/>
<polyline clip-path="url(#clip1302)" style="stroke:#000000; stroke-width:2; stroke-opacity:0.1; fill:none" points="
  2259.5,1509.79 2259.5,47.2441 
  "/>
<polyline clip-path="url(#clip1302)" style="stroke:#000000; stroke-width:2; stroke-opacity:0.1; fill:none" points="
  139.026,1223.23 2321.26,1223.23 
  "/>
<polyline clip-path="url(#clip1302)" style="stroke:#000000; stroke-width:2; stroke-opacity:0.1; fill:none" points="
  139.026,876.578 2321.26,876.578 
  "/>
<polyline clip-path="url(#clip1302)" style="stroke:#000000; stroke-width:2; stroke-opacity:0.1; fill:none" points="
  139.026,529.927 2321.26,529.927 
  "/>
<polyline clip-path="url(#clip1302)" style="stroke:#000000; stroke-width:2; stroke-opacity:0.1; fill:none" points="
  139.026,183.276 2321.26,183.276 
  "/>
<polyline clip-path="url(#clip1300)" style="stroke:#000000; stroke-width:4; stroke-opacity:1; fill:none" points="
  139.026,1509.79 2321.26,1509.79 
  "/>
<polyline clip-path="url(#clip1300)" style="stroke:#000000; stroke-width:4; stroke-opacity:1; fill:none" points="
  139.026,1509.79 139.026,47.2441 
  "/>
<polyline clip-path="url(#clip1300)" style="stroke:#000000; stroke-width:4; stroke-opacity:1; fill:none" points="
  190.442,1509.79 190.442,1487.85 
  "/>
<polyline clip-path="url(#clip1300)" style="stroke:#000000; stroke-width:4; stroke-opacity:1; fill:none" points="
  707.706,1509.79 707.706,1487.85 
  "/>
<polyline clip-path="url(#clip1300)" style="stroke:#000000; stroke-width:4; stroke-opacity:1; fill:none" points="
  1224.97,1509.79 1224.97,1487.85 
  "/>
<polyline clip-path="url(#clip1300)" style="stroke:#000000; stroke-width:4; stroke-opacity:1; fill:none" points="
  1742.23,1509.79 1742.23,1487.85 
  "/>
<polyline clip-path="url(#clip1300)" style="stroke:#000000; stroke-width:4; stroke-opacity:1; fill:none" points="
  2259.5,1509.79 2259.5,1487.85 
  "/>
<polyline clip-path="url(#clip1300)" style="stroke:#000000; stroke-width:4; stroke-opacity:1; fill:none" points="
  139.026,1223.23 171.76,1223.23 
  "/>
<polyline clip-path="url(#clip1300)" style="stroke:#000000; stroke-width:4; stroke-opacity:1; fill:none" points="
  139.026,876.578 171.76,876.578 
  "/>
<polyline clip-path="url(#clip1300)" style="stroke:#000000; stroke-width:4; stroke-opacity:1; fill:none" points="
  139.026,529.927 171.76,529.927 
  "/>
<polyline clip-path="url(#clip1300)" style="stroke:#000000; stroke-width:4; stroke-opacity:1; fill:none" points="
  139.026,183.276 171.76,183.276 
  "/>
<g clip-path="url(#clip1300)">
<text style="fill:#000000; fill-opacity:1; font-family:Arial,Helvetica Neue,Helvetica,sans-serif; font-size:48px; text-anchor:middle;" transform="rotate(0, 190.442, 1563.79)" x="190.442" y="1563.79">0</text>
</g>
<g clip-path="url(#clip1300)">
<text style="fill:#000000; fill-opacity:1; font-family:Arial,Helvetica Neue,Helvetica,sans-serif; font-size:48px; text-anchor:middle;" transform="rotate(0, 707.706, 1563.79)" x="707.706" y="1563.79">50</text>
</g>
<g clip-path="url(#clip1300)">
<text style="fill:#000000; fill-opacity:1; font-family:Arial,Helvetica Neue,Helvetica,sans-serif; font-size:48px; text-anchor:middle;" transform="rotate(0, 1224.97, 1563.79)" x="1224.97" y="1563.79">100</text>
</g>
<g clip-path="url(#clip1300)">
<text style="fill:#000000; fill-opacity:1; font-family:Arial,Helvetica Neue,Helvetica,sans-serif; font-size:48px; text-anchor:middle;" transform="rotate(0, 1742.23, 1563.79)" x="1742.23" y="1563.79">150</text>
</g>
<g clip-path="url(#clip1300)">
<text style="fill:#000000; fill-opacity:1; font-family:Arial,Helvetica Neue,Helvetica,sans-serif; font-size:48px; text-anchor:middle;" transform="rotate(0, 2259.5, 1563.79)" x="2259.5" y="1563.79">200</text>
</g>
<g clip-path="url(#clip1300)">
<text style="fill:#000000; fill-opacity:1; font-family:Arial,Helvetica Neue,Helvetica,sans-serif; font-size:48px; text-anchor:end;" transform="rotate(0, 115.026, 1240.73)" x="115.026" y="1240.73">-5</text>
</g>
<g clip-path="url(#clip1300)">
<text style="fill:#000000; fill-opacity:1; font-family:Arial,Helvetica Neue,Helvetica,sans-serif; font-size:48px; text-anchor:end;" transform="rotate(0, 115.026, 894.078)" x="115.026" y="894.078">0</text>
</g>
<g clip-path="url(#clip1300)">
<text style="fill:#000000; fill-opacity:1; font-family:Arial,Helvetica Neue,Helvetica,sans-serif; font-size:48px; text-anchor:end;" transform="rotate(0, 115.026, 547.427)" x="115.026" y="547.427">5</text>
</g>
<g clip-path="url(#clip1300)">
<text style="fill:#000000; fill-opacity:1; font-family:Arial,Helvetica Neue,Helvetica,sans-serif; font-size:48px; text-anchor:end;" transform="rotate(0, 115.026, 200.776)" x="115.026" y="200.776">10</text>
</g>
<polygon clip-path="url(#clip1302)" points="
200.788,1185.72 211.133,1198.52 221.478,1184.98 231.823,1162.54 242.169,1189.78 252.514,1276.75 262.859,1282.97 273.205,1339.07 283.55,1381.84 293.895,1378.44 
  304.24,1386.89 314.586,1390.86 324.931,1357.04 335.276,1317.72 345.622,1323.13 355.967,1283.02 366.312,1200.11 376.657,1202.88 387.003,1305.4 397.348,1309.67 
  407.693,1369.56 418.039,1354.77 428.384,1373.15 438.729,1357 449.074,1340.33 459.42,1319.42 469.765,1285.42 480.11,1342.18 490.455,1357.53 500.801,1343.56 
  511.146,1307.1 521.491,1260.66 531.837,1195.61 542.182,1199.24 552.527,1156.68 562.872,1171.4 573.218,1147.72 583.563,1122.89 593.908,1096.13 604.254,987.067 
  614.599,968.428 624.944,987.502 635.289,957.672 645.635,978.235 655.98,978.114 666.325,967.197 676.671,963.732 687.016,947.564 697.361,942.287 707.706,925.061 
  718.052,1042.75 728.397,1036.6 738.742,1027.12 749.088,1050.56 759.433,1053.79 769.778,979.596 780.123,971.409 790.469,949.824 800.814,960.217 811.159,947.283 
  821.504,871.722 831.85,802.958 842.195,784.65 852.54,769.305 862.886,775.755 873.231,824.763 883.576,807.854 893.921,807.181 904.267,851.233 914.612,864.016 
  924.957,886.674 935.303,896.763 945.648,886.607 955.993,881.933 966.338,835.526 976.684,868.237 987.029,858.295 997.374,849.777 1007.72,833.505 1018.06,924.688 
  1028.41,988.052 1038.76,921.665 1049.1,941.489 1059.45,924.311 1069.79,964.651 1080.14,1072.41 1090.48,1045.65 1100.83,1063.12 1111.17,1077.41 1121.52,1057.56 
  1131.86,1103.71 1142.21,1020.46 1152.55,1089.75 1162.9,1129.96 1173.24,1066.38 1183.59,974.109 1193.93,916.28 1204.28,872.724 1214.63,960.823 1224.97,961.29 
  1235.32,953.022 1245.66,947.109 1256.01,945.147 1266.35,951.888 1276.7,1003.09 1287.04,1006.23 1297.39,1036.15 1307.73,1083.77 1318.08,1115.5 1328.42,1110.1 
  1338.77,1128.46 1349.11,1083.87 1359.46,1078.12 1369.8,1039.28 1380.15,1118.81 1390.49,1097.67 1400.84,1144.38 1411.19,1196.39 1421.53,1175.73 1431.88,1134.21 
  1442.22,1142.78 1452.57,1192.04 1462.91,1171.58 1473.26,1150.63 1483.6,1074.06 1493.95,1001.12 1504.29,942.386 1514.64,839.924 1524.98,763.47 1535.33,764.451 
  1545.67,854.657 1556.02,1033.44 1566.36,1108.05 1576.71,1182.01 1587.06,1203.4 1597.4,1200.29 1607.75,1105.22 1618.09,1108.47 1628.44,1098.48 1638.78,1126.34 
  1649.13,1119.95 1659.47,1139.27 1669.82,1093.8 1680.16,1150.69 1690.51,1128.82 1700.85,1082.94 1711.2,1007.32 1721.54,978.279 1731.89,1048.77 1742.23,1012.35 
  1752.58,999.591 1762.93,1023.42 1773.27,1059.09 1783.62,1039.52 1793.96,1011.51 1804.31,1024.19 1814.65,1080.42 1825,1077.43 1835.34,1188.55 1845.69,1219 
  1856.03,1167.58 1866.38,1065.3 1876.72,1089.85 1887.07,1123.82 1897.41,1076.63 1907.76,1005.61 1918.1,969.12 1928.45,918.137 1938.79,899.158 1949.14,890.629 
  1959.49,867.843 1969.83,988.781 1980.18,1036.76 1990.52,1049.28 2000.87,1042.48 2011.21,1045.68 2021.56,1018.91 2031.9,968.906 2042.25,931.393 2052.59,930.533 
  2062.94,863.267 2073.28,794.545 2083.63,815.615 2093.97,928.418 2104.32,918.288 2114.66,1008.21 2125.01,1138.95 2135.36,1138.33 2145.7,1230.38 2156.05,1302.74 
  2166.39,1259.94 2176.74,1221.19 2187.08,1242.78 2197.43,1256.77 2207.77,1273.18 2218.12,1261.71 2228.46,1273.6 2238.81,1227.15 2249.15,1216.57 2259.5,1290.05 
  2259.5,962.226 2249.15,967.81 2238.81,1008 2228.46,1049.44 2218.12,1064.04 2207.77,1037.21 2197.43,1026.92 2187.08,981.573 2176.74,991.237 2166.39,1034.3 
  2156.05,1041 2145.7,984.172 2135.36,918.023 2125.01,874.797 2114.66,791.315 2104.32,658.268 2093.97,645.819 2083.63,556.517 2073.28,552.687 2062.94,636.977 
  2052.59,670.121 2042.25,674.157 2031.9,740.77 2021.56,805.782 2011.21,788.1 2000.87,786.876 1990.52,797.822 1980.18,807.438 1969.83,766.158 1959.49,648.6 
  1949.14,640.869 1938.79,649.365 1928.45,708.076 1918.1,747.732 1907.76,778.832 1897.41,830.733 1887.07,915.136 1876.72,856.497 1866.38,834.839 1856.03,910.937 
  1845.69,973.664 1835.34,968.073 1825,915.558 1814.65,828.127 1804.31,778.027 1793.96,779.891 1783.62,829.24 1773.27,827.7 1762.93,785.305 1752.58,789.064 
  1742.23,794.208 1731.89,817.187 1721.54,759.309 1711.2,767.099 1700.85,841.969 1690.51,895.556 1680.16,884.296 1669.82,845.686 1659.47,918.18 1649.13,891.617 
  1638.78,854.955 1628.44,850.938 1618.09,842.25 1607.75,854.398 1597.4,957.85 1587.06,955.289 1576.71,917.361 1566.36,896.945 1556.02,810.581 1545.67,654.772 
  1535.33,551.466 1524.98,519.099 1514.64,610.824 1504.29,707.422 1493.95,736.928 1483.6,799.029 1473.26,887.123 1462.91,945.822 1452.57,905.464 1442.22,881.344 
  1431.88,899.395 1421.53,898.658 1411.19,934.331 1400.84,897.117 1390.49,858.242 1380.15,887.739 1369.8,861.77 1359.46,861.926 1349.11,840.191 1338.77,919.342 
  1328.42,853.419 1318.08,865.715 1307.73,839.002 1297.39,793.906 1287.04,744.372 1276.7,741.083 1266.35,736.868 1256.01,745.069 1245.66,724.621 1235.32,692.362 
  1224.97,718.864 1214.63,719.037 1204.28,652.631 1193.93,681.228 1183.59,760.285 1173.24,837.35 1162.9,884.927 1152.55,864.34 1142.21,831.255 1131.86,840.535 
  1121.52,801.269 1111.17,834.548 1100.83,794.042 1090.48,800.71 1080.14,824.552 1069.79,734.631 1059.45,686.343 1049.1,689.242 1038.76,723.899 1028.41,777.137 
  1018.06,726.11 1007.72,619.708 997.374,621.425 987.029,630.361 976.684,624.203 966.338,613.631 955.993,658.438 945.648,697.662 935.303,646.542 924.957,647.804 
  914.612,624.638 904.267,575.367 893.921,568.99 883.576,546.037 873.231,544.152 862.886,516.719 852.54,521.331 842.195,542.91 831.85,561.904 821.504,608.669 
  811.159,676.243 800.814,681.704 790.469,672.252 780.123,715.453 769.778,772.002 759.433,793.475 749.088,814.082 738.742,802.089 728.397,807.176 718.052,792.681 
  707.706,717.625 697.361,681.451 687.016,715.55 676.671,740.526 666.325,760.87 655.98,734.087 645.635,726.844 635.289,706.641 624.944,750.153 614.599,749.333 
  604.254,729.407 593.908,852.603 583.563,913.175 573.218,912.881 562.872,1015.77 552.527,948.539 542.182,947.947 531.837,959.555 521.491,1006.55 511.146,1056.34 
  500.801,1111.47 490.455,1104.79 480.11,1072.78 469.765,1028.23 459.42,1011.29 449.074,1060.48 438.729,1078.33 428.384,1140.74 418.039,1112.94 407.693,1125.48 
  397.348,1066.58 387.003,1063.8 376.657,991.423 366.312,960.87 355.967,1027.51 345.622,1092.85 335.276,1058.47 324.931,1141.43 314.586,1192.19 304.24,1171.35 
  293.895,1139.34 283.55,1149.7 273.205,1093.91 262.859,1041.73 252.514,1040.08 242.169,948.016 231.823,921.266 221.478,918.325 211.133,931.616 200.788,898.559 
  
  " fill="#009af9" fill-rule="evenodd" fill-opacity="0.5"/>
<polyline clip-path="url(#clip1302)" style="stroke:#009af9; stroke-width:4; stroke-opacity:1; fill:none" points="
  200.788,1042.14 211.133,1065.07 221.478,1051.65 231.823,1041.9 242.169,1068.9 252.514,1158.41 262.859,1162.35 273.205,1216.49 283.55,1265.77 293.895,1258.89 
  304.24,1279.12 314.586,1291.52 324.931,1249.24 335.276,1188.09 345.622,1207.99 355.967,1155.27 366.312,1080.49 376.657,1097.15 387.003,1184.6 397.348,1188.12 
  407.693,1247.52 418.039,1233.86 428.384,1256.95 438.729,1217.67 449.074,1200.41 459.42,1165.36 469.765,1156.83 480.11,1207.48 490.455,1231.16 500.801,1227.52 
  511.146,1181.72 521.491,1133.61 531.837,1077.58 542.182,1073.6 552.527,1052.61 562.872,1093.58 573.218,1030.3 583.563,1018.03 593.908,974.369 604.254,858.237 
  614.599,858.88 624.944,868.828 635.289,832.157 645.635,852.539 655.98,856.1 666.325,864.034 676.671,852.129 687.016,831.557 697.361,811.869 707.706,821.343 
  718.052,917.717 728.397,921.886 738.742,914.604 749.088,932.321 759.433,923.633 769.778,875.799 780.123,843.431 790.469,811.038 800.814,820.961 811.159,811.763 
  821.504,740.195 831.85,682.431 842.195,663.78 852.54,645.318 862.886,646.237 873.231,684.458 883.576,676.946 893.921,688.085 904.267,713.3 914.612,744.327 
  924.957,767.239 935.303,771.653 945.648,792.135 955.993,770.186 966.338,724.579 976.684,746.22 987.029,744.328 997.374,735.601 1007.72,726.607 1018.06,825.399 
  1028.41,882.595 1038.76,822.782 1049.1,815.365 1059.45,805.327 1069.79,849.641 1080.14,948.48 1090.48,923.182 1100.83,928.584 1111.17,955.977 1121.52,929.415 
  1131.86,972.124 1142.21,925.855 1152.55,977.043 1162.9,1007.44 1173.24,951.867 1183.59,867.197 1193.93,798.754 1204.28,762.677 1214.63,839.93 1224.97,840.077 
  1235.32,822.692 1245.66,835.865 1256.01,845.108 1266.35,844.378 1276.7,872.086 1287.04,875.3 1297.39,915.027 1307.73,961.388 1318.08,990.607 1328.42,981.757 
  1338.77,1023.9 1349.11,962.032 1359.46,970.021 1369.8,950.523 1380.15,1003.27 1390.49,977.956 1400.84,1020.75 1411.19,1065.36 1421.53,1037.2 1431.88,1016.8 
  1442.22,1012.06 1452.57,1048.75 1462.91,1058.7 1473.26,1018.87 1483.6,936.545 1493.95,869.022 1504.29,824.904 1514.64,725.374 1524.98,641.284 1535.33,657.959 
  1545.67,754.715 1556.02,922.011 1566.36,1002.5 1576.71,1049.68 1587.06,1079.34 1597.4,1079.07 1607.75,979.807 1618.09,975.361 1628.44,974.709 1638.78,990.649 
  1649.13,1005.78 1659.47,1028.73 1669.82,969.742 1680.16,1017.49 1690.51,1012.19 1700.85,962.455 1711.2,887.208 1721.54,868.794 1731.89,932.976 1742.23,903.279 
  1752.58,894.328 1762.93,904.361 1773.27,943.396 1783.62,934.382 1793.96,895.7 1804.31,901.11 1814.65,954.271 1825,996.492 1835.34,1078.31 1845.69,1096.33 
  1856.03,1039.26 1866.38,950.072 1876.72,973.175 1887.07,1019.48 1897.41,953.68 1907.76,892.221 1918.1,858.426 1928.45,813.106 1938.79,774.262 1949.14,765.749 
  1959.49,758.221 1969.83,877.47 1980.18,922.099 1990.52,923.552 2000.87,914.68 2011.21,916.891 2021.56,912.348 2031.9,854.838 2042.25,802.775 2052.59,800.327 
  2062.94,750.122 2073.28,673.616 2083.63,686.066 2093.97,787.119 2104.32,788.278 2114.66,899.765 2125.01,1006.87 2135.36,1028.18 2145.7,1107.28 2156.05,1171.87 
  2166.39,1147.12 2176.74,1106.21 2187.08,1112.18 2197.43,1141.84 2207.77,1155.19 2218.12,1162.88 2228.46,1161.52 2238.81,1117.57 2249.15,1092.19 2259.5,1126.14 
  
  "/>
<polygon clip-path="url(#clip1302)" points="
200.788,921.09 211.133,857.93 221.478,819.629 231.823,769.674 242.169,776.182 252.514,720.517 262.859,610.703 273.205,544.753 283.55,554.665 293.895,586.875 
  304.24,575.562 314.586,595.943 324.931,549.659 335.276,504.467 345.622,460.341 355.967,418.745 366.312,409.39 376.657,449.223 387.003,540.075 397.348,560.313 
  407.693,669.548 418.039,692.302 428.384,709.04 438.729,608.359 449.074,510.008 459.42,377.763 469.765,384.669 480.11,389.885 490.455,460.748 500.801,550.011 
  511.146,609.369 521.491,682.136 531.837,687.805 542.182,766.985 552.527,842.35 562.872,938.848 573.218,905.361 583.563,916.431 593.908,894.812 604.254,762.992 
  614.599,788.66 624.944,911.825 635.289,993.148 645.635,1031.58 655.98,1093.93 666.325,1100.72 676.671,1076.93 687.016,1000.52 697.361,953.666 707.706,942.289 
  718.052,939.457 728.397,948.306 738.742,957.867 749.088,1001.25 759.433,1006.14 769.778,994.314 780.123,1058.98 790.469,1065.77 800.814,1116.12 811.159,1138.5 
  821.504,1139.14 831.85,1184.77 842.195,1155.8 852.54,1131.58 862.886,1051.88 873.231,1041.7 883.576,1056.94 893.921,1101.44 904.267,1180.64 914.612,1260.42 
  924.957,1277.82 935.303,1316.01 945.648,1374.64 955.993,1391.88 966.338,1349.82 976.684,1303.12 987.029,1304.17 997.374,1251.59 1007.72,1164.32 1018.06,1212.62 
  1028.41,1261.7 1038.76,1148.25 1049.1,1075.38 1059.45,1010.29 1069.79,977.602 1080.14,1070.58 1090.48,1035.68 1100.83,1001.69 1111.17,953.655 1121.52,918.344 
  1131.86,920.269 1142.21,869.025 1152.55,915.611 1162.9,1008.55 1173.24,993.455 1183.59,946.137 1193.93,928.812 1204.28,904.14 1214.63,951.573 1224.97,966.936 
  1235.32,956.639 1245.66,955.084 1256.01,905.025 1266.35,938.261 1276.7,979.804 1287.04,882.878 1297.39,814.609 1307.73,733.527 1318.08,711.992 1328.42,684.407 
  1338.77,684.255 1349.11,612.124 1359.46,567.052 1369.8,445.34 1380.15,364.167 1390.49,338.379 1400.84,427.377 1411.19,514.671 1421.53,527.667 1431.88,492.078 
  1442.22,559.011 1452.57,610.427 1462.91,739.925 1473.26,875.711 1483.6,969.134 1493.95,961.045 1504.29,958.848 1514.64,966.049 1524.98,882.569 1535.33,818.105 
  1545.67,822.61 1556.02,882.565 1566.36,915.142 1576.71,963.175 1587.06,936.469 1597.4,953.873 1607.75,836.267 1618.09,854.994 1628.44,907.896 1638.78,895.66 
  1649.13,914.501 1659.47,956.032 1669.82,946.308 1680.16,943.74 1690.51,950.349 1700.85,904.54 1711.2,849.692 1721.54,878.257 1731.89,885.803 1742.23,916.265 
  1752.58,970.559 1762.93,1040.78 1773.27,1126.63 1783.62,1137.93 1793.96,1125.39 1804.31,1079.53 1814.65,1109.32 1825,977.78 1835.34,948.281 1845.69,872.909 
  1856.03,833.845 1866.38,774.598 1876.72,804.413 1887.07,894.555 1897.41,914.358 1907.76,915.993 1918.1,961.46 1928.45,959.822 1938.79,952.586 1949.14,927.431 
  1959.49,923.926 1969.83,1059.32 1980.18,1102.39 1990.52,1083.9 2000.87,1019.97 2011.21,1012.68 2021.56,1022.32 2031.9,1024.8 2042.25,1016.26 2052.59,1025.74 
  2062.94,917.298 2073.28,838.67 2083.63,849.344 2093.97,857.435 2104.32,802.628 2114.66,764.515 2125.01,777.684 2135.36,749.937 2145.7,797.082 2156.05,859.698 
  2166.39,910.566 2176.74,894.648 2187.08,898.542 2197.43,981.3 2207.77,968.41 2218.12,963.692 2228.46,980.592 2238.81,959.029 2249.15,992.843 2259.5,986.316 
  2259.5,689.248 2249.15,708.259 2238.81,718.458 2228.46,737.35 2218.12,736.734 2207.77,726.805 2197.43,712.657 2187.08,674.869 2176.74,660.8 2166.39,648.086 
  2156.05,620.441 2145.7,566.582 2135.36,516.184 2125.01,571.76 2114.66,529.616 2104.32,532.761 2093.97,610.934 2083.63,607.885 2073.28,610.47 2062.94,699.203 
  2052.59,795.418 2042.25,821.049 2031.9,809.606 2021.56,787.383 2011.21,794.201 2000.87,804.552 1990.52,846.025 1980.18,859.814 1969.83,848.268 1959.49,691.992 
  1949.14,717.982 1938.79,753.548 1928.45,730.816 1918.1,722.098 1907.76,679.012 1897.41,658.243 1887.07,660.217 1876.72,598.846 1866.38,548.853 1856.03,595.253 
  1845.69,677.102 1835.34,750.441 1825,795.825 1814.65,863.843 1804.31,848.919 1793.96,894.569 1783.62,931.757 1773.27,905.674 1762.93,816.99 1752.58,718.453 
  1742.23,707.912 1731.89,647.553 1721.54,652.35 1711.2,631.642 1700.85,660.297 1690.51,705.491 1680.16,726.267 1669.82,723.565 1659.47,733.337 1649.13,667.543 
  1638.78,686.244 1628.44,673.159 1618.09,637.677 1607.75,623.592 1597.4,738.32 1587.06,714.394 1576.71,806.471 1566.36,716.1 1556.02,656.828 1545.67,584.951 
  1535.33,588.623 1524.98,643.689 1514.64,691.017 1504.29,725.569 1493.95,731.945 1483.6,730.952 1473.26,662.935 1462.91,508.366 1452.57,395.546 1442.22,335.743 
  1431.88,258.331 1421.53,282.622 1411.19,284.356 1400.84,188.75 1390.49,88.6369 1380.15,156.513 1369.8,235.263 1359.46,355.241 1349.11,374.229 1338.77,402.688 
  1328.42,416.661 1318.08,486.729 1307.73,479.509 1297.39,546.269 1287.04,649.376 1276.7,763.269 1266.35,723.655 1256.01,716.981 1245.66,725.009 1235.32,732.657 
  1224.97,738.933 1214.63,701.292 1204.28,661.153 1193.93,684.065 1183.59,694.438 1173.24,743.645 1162.9,745.293 1152.55,684.384 1142.21,639.43 1131.86,671.373 
  1121.52,664.012 1111.17,705.307 1100.83,745.19 1090.48,747.678 1080.14,801.427 1069.79,763.964 1059.45,775.386 1049.1,837.201 1038.76,918.545 1028.41,1027.84 
  1018.06,995.891 1007.72,918.716 997.374,1018.32 987.029,1070.81 976.684,1051.41 966.338,1076.65 955.993,1166.19 945.648,1167.2 935.303,1084.23 924.957,1028.74 
  914.612,958.372 904.267,928.745 893.921,884.912 883.576,811.536 873.231,790.304 862.886,825.21 852.54,926.625 842.195,939.147 831.85,898.256 821.504,893.052 
  811.159,879.459 800.814,889.631 790.469,853.64 780.123,829.735 769.778,802.75 759.433,787.556 749.088,765.672 738.742,728.765 728.397,749.955 718.052,739.606 
  707.706,707.589 697.361,755.05 687.016,780.548 676.671,846.705 666.325,867.561 655.98,886.44 645.635,789.873 635.289,697.539 624.944,656.097 614.599,555.408 
  604.254,562.129 593.908,669.636 583.563,686.703 573.218,681.623 562.872,761.485 552.527,621.977 542.182,572.102 531.837,466.002 521.491,422.424 511.146,376.255 
  500.801,318.966 490.455,252.674 480.11,179.84 469.765,155.669 459.42,144.758 449.074,258.979 438.729,367.018 428.384,461.66 418.039,455.585 407.693,433.04 
  397.348,324.904 387.003,314.866 376.657,273.178 366.312,226.903 355.967,213.083 345.622,244.081 335.276,289.468 324.931,320.43 314.586,351.141 304.24,367.268 
  293.895,338.39 283.55,355.733 273.205,328.267 262.859,406.684 252.514,484.229 242.169,523.522 231.823,513.79 221.478,560.432 211.133,599.718 200.788,668.732 
  
  " fill="#e26f46" fill-rule="evenodd" fill-opacity="0.5"/>
<polyline clip-path="url(#clip1302)" style="stroke:#e26f46; stroke-width:4; stroke-opacity:1; fill:none" points="
  200.788,794.911 211.133,728.824 221.478,690.03 231.823,641.732 242.169,649.852 252.514,602.373 262.859,508.694 273.205,436.51 283.55,455.199 293.895,462.633 
  304.24,471.415 314.586,473.542 324.931,435.044 335.276,396.967 345.622,352.211 355.967,315.914 366.312,318.147 376.657,361.2 387.003,427.47 397.348,442.608 
  407.693,551.294 418.039,573.944 428.384,585.35 438.729,487.689 449.074,384.494 459.42,261.261 469.765,270.169 480.11,284.863 490.455,356.711 500.801,434.488 
  511.146,492.812 521.491,552.28 531.837,576.903 542.182,669.544 552.527,732.164 562.872,850.166 573.218,793.492 583.563,801.567 593.908,782.224 604.254,662.561 
  614.599,672.034 624.944,783.961 635.289,845.343 645.635,910.725 655.98,990.185 666.325,984.141 676.671,961.819 687.016,890.534 697.361,854.358 707.706,824.939 
  718.052,839.531 728.397,849.13 738.742,843.316 749.088,883.461 759.433,896.849 769.778,898.532 780.123,944.355 790.469,959.706 800.814,1002.88 811.159,1008.98 
  821.504,1016.1 831.85,1041.51 842.195,1047.47 852.54,1029.1 862.886,938.544 873.231,916.004 883.576,934.24 893.921,993.177 904.267,1054.69 914.612,1109.4 
  924.957,1153.28 935.303,1200.12 945.648,1270.92 955.993,1279.04 966.338,1213.23 976.684,1177.27 987.029,1187.49 997.374,1134.95 1007.72,1041.52 1018.06,1104.25 
  1028.41,1144.77 1038.76,1033.4 1049.1,956.288 1059.45,892.838 1069.79,870.783 1080.14,936.002 1090.48,891.68 1100.83,873.442 1111.17,829.481 1121.52,791.178 
  1131.86,795.821 1142.21,754.227 1152.55,799.998 1162.9,876.923 1173.24,868.55 1183.59,820.288 1193.93,806.438 1204.28,782.647 1214.63,826.432 1224.97,852.934 
  1235.32,844.648 1245.66,840.047 1256.01,811.003 1266.35,830.958 1276.7,871.536 1287.04,766.127 1297.39,680.439 1307.73,606.518 1318.08,599.36 1328.42,550.534 
  1338.77,543.471 1349.11,493.177 1359.46,461.147 1369.8,340.301 1380.15,260.34 1390.49,213.508 1400.84,308.064 1411.19,399.514 1421.53,405.145 1431.88,375.205 
  1442.22,447.377 1452.57,502.987 1462.91,624.145 1473.26,769.323 1483.6,850.043 1493.95,846.495 1504.29,842.209 1514.64,828.533 1524.98,763.129 1535.33,703.364 
  1545.67,703.781 1556.02,769.697 1566.36,815.621 1576.71,884.823 1587.06,825.432 1597.4,846.097 1607.75,729.929 1618.09,746.336 1628.44,790.528 1638.78,790.952 
  1649.13,791.022 1659.47,844.684 1669.82,834.937 1680.16,835.003 1690.51,827.92 1700.85,782.419 1711.2,740.667 1721.54,765.303 1731.89,766.678 1742.23,812.089 
  1752.58,844.506 1762.93,928.887 1773.27,1016.15 1783.62,1034.85 1793.96,1009.98 1804.31,964.222 1814.65,986.581 1825,886.803 1835.34,849.361 1845.69,775.005 
  1856.03,714.549 1866.38,661.725 1876.72,701.63 1887.07,777.386 1897.41,786.301 1907.76,797.503 1918.1,841.779 1928.45,845.319 1938.79,853.067 1949.14,822.706 
  1959.49,807.959 1969.83,953.797 1980.18,981.1 1990.52,964.962 2000.87,912.263 2011.21,903.439 2021.56,904.853 2031.9,917.202 2042.25,918.655 2052.59,910.577 
  2062.94,808.25 2073.28,724.57 2083.63,728.615 2093.97,734.184 2104.32,667.694 2114.66,647.065 2125.01,674.722 2135.36,633.061 2145.7,681.832 2156.05,740.07 
  2166.39,779.326 2176.74,777.724 2187.08,786.706 2197.43,846.978 2207.77,847.607 2218.12,850.213 2228.46,858.971 2238.81,838.744 2249.15,850.551 2259.5,837.782 
  
  "/>
<polyline clip-path="url(#clip1302)" style="stroke:#3da44d; stroke-width:4; stroke-opacity:1; fill:none" stroke-dasharray="16, 10" points="
  200.788,968.471 211.133,1125.13 221.478,1123.39 231.823,1078.42 242.169,990.24 252.514,1063.85 262.859,1179.72 273.205,1099.49 283.55,1094.35 293.895,1468.4 
  304.24,1301.02 314.586,1308.83 324.931,1255.29 335.276,1192.55 345.622,1096.22 355.967,1348.08 366.312,1193.49 376.657,1120.4 387.003,1193.05 397.348,1392.19 
  407.693,1250.95 418.039,1267.69 428.384,1390.08 438.729,1331.81 449.074,1315.13 459.42,1328.58 469.765,1168.03 480.11,1129.27 490.455,1227.57 500.801,1413.55 
  511.146,1309.45 521.491,1282.45 531.837,1218.87 542.182,1065.81 552.527,976.895 562.872,996.521 573.218,1169.83 583.563,1062.88 593.908,928.873 604.254,888.841 
  614.599,724.123 624.944,835.874 635.289,870.971 645.635,808.731 655.98,940.326 666.325,953.554 676.671,1045.88 687.016,1000.31 697.361,940.723 707.706,954.086 
  718.052,850.929 728.397,812.382 738.742,923.241 749.088,890.461 759.433,880.365 769.778,1076.7 780.123,862.378 790.469,979.212 800.814,755.556 811.159,858.885 
  821.504,950.698 831.85,819.776 842.195,598.43 852.54,682.319 862.886,675.831 873.231,564.214 883.576,641.344 893.921,516.968 904.267,670.335 914.612,788.122 
  924.957,848.295 935.303,704.636 945.648,744.207 955.993,853.224 966.338,812.29 976.684,720.933 987.029,836.511 997.374,693.415 1007.72,628.753 1018.06,716.457 
  1028.41,996.14 1038.76,1049.17 1049.1,828.861 1059.45,880.611 1069.79,816.08 1080.14,854.962 1090.48,1030.88 1100.83,848.738 1111.17,859.859 1121.52,861.132 
  1131.86,814.976 1142.21,1001.41 1152.55,741.821 1162.9,996.44 1173.24,1068.78 1183.59,1034.23 1193.93,784.889 1204.28,753.822 1214.63,629.312 1224.97,673.878 
  1235.32,761.338 1245.66,766.141 1256.01,821.229 1266.35,682.703 1276.7,932.201 1287.04,882.152 1297.39,934.646 1307.73,937.22 1318.08,992.514 1328.42,1018.07 
  1338.77,992.923 1349.11,1124.39 1359.46,1023.2 1369.8,1200.02 1380.15,899.939 1390.49,1027.7 1400.84,1007.93 1411.19,1162.92 1421.53,1087.39 1431.88,975.313 
  1442.22,1008.77 1452.57,988.196 1462.91,1072.56 1473.26,1128.05 1483.6,1172.04 1493.95,1028.17 1504.29,938.026 1514.64,787.066 1524.98,694.031 1535.33,632.709 
  1545.67,593.12 1556.02,842.892 1566.36,884.839 1576.71,1048.25 1587.06,1105 1597.4,1163.86 1607.75,1092.62 1618.09,803.978 1628.44,872.609 1638.78,904.643 
  1649.13,881.671 1659.47,987.734 1669.82,1055.78 1680.16,916.417 1690.51,1083.53 1700.85,1088.4 1711.2,1072.99 1721.54,820.416 1731.89,826.718 1742.23,940.062 
  1752.58,998.903 1762.93,865.37 1773.27,946.557 1783.62,1043.67 1793.96,1014.78 1804.31,945.293 1814.65,946.258 1825,1064.83 1835.34,1040.02 1845.69,1122.47 
  1856.03,1262.48 1866.38,1268.52 1876.72,960.197 1887.07,1017.79 1897.41,1274.07 1907.76,981.058 1918.1,834.152 1928.45,946.825 1938.79,740.023 1949.14,601.878 
  1959.49,670.713 1969.83,748.146 1980.18,989.142 1990.52,866.383 2000.87,1091.91 2011.21,969.249 2021.56,925.353 2031.9,969.224 2042.25,870.101 2052.59,713.066 
  2062.94,897.786 2073.28,787.799 2083.63,480.599 2093.97,634.259 2104.32,659.905 2114.66,703.91 2125.01,916.995 2135.36,1112.11 2145.7,934.204 2156.05,1057.17 
  2166.39,1321.38 2176.74,1293.54 2187.08,1125.45 2197.43,1165.07 2207.77,1220.52 2218.12,1114.52 2228.46,1093.44 2238.81,1292.46 2249.15,1108.08 2259.5,990.253 
  
  "/>
<polyline clip-path="url(#clip1302)" style="stroke:#c271d2; stroke-width:4; stroke-opacity:1; fill:none" stroke-dasharray="16, 10" points="
  200.788,658.732 211.133,743.88 221.478,579.771 231.823,594.43 242.169,686.174 252.514,683.59 262.859,715.41 273.205,333.594 283.55,427.358 293.895,521.217 
  304.24,382.39 314.586,557.358 324.931,660.758 335.276,504.683 345.622,259.855 355.967,353.922 366.312,295.661 376.657,145.51 387.003,336.862 397.348,161.42 
  407.693,329.666 418.039,641.727 428.384,670.931 438.729,606.046 449.074,473.175 459.42,243.301 469.765,224.424 480.11,112.647 490.455,165.243 500.801,367.65 
  511.146,358.001 521.491,485.133 531.837,485.666 542.182,528.53 552.527,562.327 562.872,621.108 573.218,1069.44 583.563,872.249 593.908,909.678 604.254,873.604 
  614.599,522.099 624.944,694.186 635.289,852.644 645.635,1048.24 655.98,878.882 666.325,936.177 676.671,923.843 687.016,906.005 697.361,680.447 707.706,723.669 
  718.052,656.366 728.397,820.489 738.742,864.573 749.088,767.332 759.433,995.985 769.778,934.88 780.123,787.031 790.469,1084.74 800.814,951.514 811.159,1060.99 
  821.504,1081.85 831.85,1028.45 842.195,1028.21 852.54,954.802 862.886,1069.19 873.231,989.499 883.576,973.647 893.921,891.202 904.267,929.747 914.612,1045.73 
  924.957,960.711 935.303,1021.71 945.648,1165.35 955.993,1323.76 966.338,1093.6 976.684,1135.63 987.029,1246.82 997.374,1210.83 1007.72,1099.45 1018.06,938.503 
  1028.41,1127.01 1038.76,1218.7 1049.1,904.395 1059.45,906.816 1069.79,726.57 1080.14,771.515 1090.48,1073.5 1100.83,762.901 1111.17,914.41 1121.52,778.075 
  1131.86,803.047 1142.21,1018.62 1152.55,781.319 1162.9,851.644 1173.24,841.603 1183.59,866.703 1193.93,728.95 1204.28,833.831 1214.63,810.69 1224.97,962.154 
  1235.32,938.977 1245.66,885.297 1256.01,713.591 1266.35,668.222 1276.7,922.427 1287.04,878.329 1297.39,738.182 1307.73,563.773 1318.08,520.657 1328.42,513.722 
  1338.77,512.129 1349.11,746.872 1359.46,411.427 1369.8,354.894 1380.15,155.561 1390.49,223.673 1400.84,128.541 1411.19,293.775 1421.53,455.94 1431.88,274.871 
  1442.22,244.339 1452.57,306.157 1462.91,260.342 1473.26,701.608 1483.6,899.087 1493.95,895.54 1504.29,981.839 1514.64,977.915 1524.98,780.412 1535.33,663.859 
  1545.67,482.202 1556.02,708.149 1566.36,653.61 1576.71,614.53 1587.06,943.849 1597.4,818.076 1607.75,1006.56 1618.09,693.676 1628.44,867.164 1638.78,959.73 
  1649.13,904.02 1659.47,876.142 1669.82,943.006 1680.16,893.718 1690.51,811.64 1700.85,820.139 1711.2,858.665 1721.54,626.941 1731.89,582.079 1742.23,780.688 
  1752.58,721.776 1762.93,830.631 1773.27,777.911 1783.62,1024.54 1793.96,961.685 1804.31,966.665 1814.65,995.646 1825,1184.17 1835.34,864.493 1845.69,776.47 
  1856.03,800.255 1866.38,740.316 1876.72,434.662 1887.07,637.02 1897.41,895.905 1907.76,740.18 1918.1,702.276 1928.45,880.195 1938.79,1053.93 1949.14,1031.79 
  1959.49,800.362 1969.83,620.953 1980.18,995.346 1990.52,956.255 2000.87,909.794 2011.21,876.489 2021.56,781.387 2031.9,907.013 2042.25,1013.36 2052.59,974.698 
  2062.94,1054.14 2073.28,780.894 2083.63,578.425 2093.97,663.051 2104.32,712.093 2114.66,473.54 2125.01,562.221 2135.36,746.947 2145.7,594.039 2156.05,604.557 
  2166.39,784.553 2176.74,629.214 2187.08,632.43 2197.43,739.228 2207.77,782.987 2218.12,808.484 2228.46,827.842 2238.81,975.026 2249.15,856.629 2259.5,721.399 
  
  "/>
<polygon clip-path="url(#clip1300)" points="
1776.53,433.164 2249.26,433.164 2249.26,130.764 1776.53,130.764 
  " fill="#ffffff" fill-rule="evenodd" fill-opacity="1"/>
<polyline clip-path="url(#clip1300)" style="stroke:#000000; stroke-width:4; stroke-opacity:1; fill:none" points="
  1776.53,433.164 2249.26,433.164 2249.26,130.764 1776.53,130.764 1776.53,433.164 
  "/>
<polyline clip-path="url(#clip1300)" style="stroke:#009af9; stroke-width:4; stroke-opacity:1; fill:none" points="
  1800.53,191.244 1944.53,191.244 
  "/>
<g clip-path="url(#clip1300)">
<text style="fill:#000000; fill-opacity:1; font-family:Arial,Helvetica Neue,Helvetica,sans-serif; font-size:48px; text-anchor:start;" transform="rotate(0, 1968.53, 208.744)" x="1968.53" y="208.744">PF smooth</text>
</g>
<polyline clip-path="url(#clip1300)" style="stroke:#e26f46; stroke-width:4; stroke-opacity:1; fill:none" points="
  1800.53,251.724 1944.53,251.724 
  "/>
<g clip-path="url(#clip1300)">
<text style="fill:#000000; fill-opacity:1; font-family:Arial,Helvetica Neue,Helvetica,sans-serif; font-size:48px; text-anchor:start;" transform="rotate(0, 1968.53, 269.224)" x="1968.53" y="269.224">PF smooth</text>
</g>
<polyline clip-path="url(#clip1300)" style="stroke:#3da44d; stroke-width:4; stroke-opacity:1; fill:none" stroke-dasharray="16, 10" points="
  1800.53,312.204 1944.53,312.204 
  "/>
<g clip-path="url(#clip1300)">
<text style="fill:#000000; fill-opacity:1; font-family:Arial,Helvetica Neue,Helvetica,sans-serif; font-size:48px; text-anchor:start;" transform="rotate(0, 1968.53, 329.704)" x="1968.53" y="329.704">True</text>
</g>
<polyline clip-path="url(#clip1300)" style="stroke:#c271d2; stroke-width:4; stroke-opacity:1; fill:none" stroke-dasharray="16, 10" points="
  1800.53,372.684 1944.53,372.684 
  "/>
<g clip-path="url(#clip1300)">
<text style="fill:#000000; fill-opacity:1; font-family:Arial,Helvetica Neue,Helvetica,sans-serif; font-size:48px; text-anchor:start;" transform="rotate(0, 1968.53, 390.184)" x="1968.53" y="390.184">True</text>
</g>
</svg>
