<?xml version="1.0" encoding="utf-8"?>
<svg xmlns="http://www.w3.org/2000/svg" xmlns:xlink="http://www.w3.org/1999/xlink" width="600" height="400" viewBox="0 0 2400 1600">
<defs>
  <clipPath id="clip070">
    <rect x="0" y="0" width="2400" height="1600"/>
  </clipPath>
</defs>
<path clip-path="url(#clip070)" d="M0 1600 L2400 1600 L2400 0 L0 0  Z" fill="#ffffff" fill-rule="evenodd" fill-opacity="1"/>
<defs>
  <clipPath id="clip071">
    <rect x="480" y="0" width="1681" height="1600"/>
  </clipPath>
</defs>
<path clip-path="url(#clip070)" d="M239.19 1410.9 L2352.76 1410.9 L2352.76 123.472 L239.19 123.472  Z" fill="#ffffff" fill-rule="evenodd" fill-opacity="1"/>
<defs>
  <clipPath id="clip072">
    <rect x="239" y="123" width="2115" height="1288"/>
  </clipPath>
</defs>
<polyline clip-path="url(#clip072)" style="stroke:#000000; stroke-linecap:round; stroke-linejoin:round; stroke-width:2; stroke-opacity:0.1; fill:none" points="1096.58,1410.9 1096.58,123.472 "/>
<polyline clip-path="url(#clip072)" style="stroke:#000000; stroke-linecap:round; stroke-linejoin:round; stroke-width:2; stroke-opacity:0.1; fill:none" points="2093.55,1410.9 2093.55,123.472 "/>
<polyline clip-path="url(#clip072)" style="stroke:#000000; stroke-linecap:round; stroke-linejoin:round; stroke-width:2; stroke-opacity:0.1; fill:none" points="239.19,1359.9 2352.76,1359.9 "/>
<polyline clip-path="url(#clip072)" style="stroke:#000000; stroke-linecap:round; stroke-linejoin:round; stroke-width:2; stroke-opacity:0.1; fill:none" points="239.19,1148.1 2352.76,1148.1 "/>
<polyline clip-path="url(#clip072)" style="stroke:#000000; stroke-linecap:round; stroke-linejoin:round; stroke-width:2; stroke-opacity:0.1; fill:none" points="239.19,936.305 2352.76,936.305 "/>
<polyline clip-path="url(#clip072)" style="stroke:#000000; stroke-linecap:round; stroke-linejoin:round; stroke-width:2; stroke-opacity:0.1; fill:none" points="239.19,724.508 2352.76,724.508 "/>
<polyline clip-path="url(#clip072)" style="stroke:#000000; stroke-linecap:round; stroke-linejoin:round; stroke-width:2; stroke-opacity:0.1; fill:none" points="239.19,512.71 2352.76,512.71 "/>
<polyline clip-path="url(#clip072)" style="stroke:#000000; stroke-linecap:round; stroke-linejoin:round; stroke-width:2; stroke-opacity:0.1; fill:none" points="239.19,300.912 2352.76,300.912 "/>
<polyline clip-path="url(#clip070)" style="stroke:#000000; stroke-linecap:round; stroke-linejoin:round; stroke-width:4; stroke-opacity:1; fill:none" points="239.19,1410.9 2352.76,1410.9 "/>
<polyline clip-path="url(#clip070)" style="stroke:#000000; stroke-linecap:round; stroke-linejoin:round; stroke-width:4; stroke-opacity:1; fill:none" points="1096.58,1410.9 1096.58,1392 "/>
<polyline clip-path="url(#clip070)" style="stroke:#000000; stroke-linecap:round; stroke-linejoin:round; stroke-width:4; stroke-opacity:1; fill:none" points="2093.55,1410.9 2093.55,1392 "/>
<path clip-path="url(#clip070)" d="M1061.56 1485.02 L1069.2 1485.02 L1069.2 1458.66 L1060.89 1460.32 L1060.89 1456.06 L1069.16 1454.4 L1073.83 1454.4 L1073.83 1485.02 L1081.47 1485.02 L1081.47 1488.96 L1061.56 1488.96 L1061.56 1485.02 Z" fill="#000000" fill-rule="nonzero" fill-opacity="1" /><path clip-path="url(#clip070)" d="M1100.91 1457.48 Q1097.3 1457.48 1095.47 1461.04 Q1093.67 1464.58 1093.67 1471.71 Q1093.67 1478.82 1095.47 1482.38 Q1097.3 1485.92 1100.91 1485.92 Q1104.55 1485.92 1106.35 1482.38 Q1108.18 1478.82 1108.18 1471.71 Q1108.18 1464.58 1106.35 1461.04 Q1104.55 1457.48 1100.91 1457.48 M1100.91 1453.77 Q1106.72 1453.77 1109.78 1458.38 Q1112.86 1462.96 1112.86 1471.71 Q1112.86 1480.44 1109.78 1485.04 Q1106.72 1489.63 1100.91 1489.63 Q1095.1 1489.63 1092.03 1485.04 Q1088.97 1480.44 1088.97 1471.71 Q1088.97 1462.96 1092.03 1458.38 Q1095.1 1453.77 1100.91 1453.77 Z" fill="#000000" fill-rule="nonzero" fill-opacity="1" /><path clip-path="url(#clip070)" d="M1122.56 1435.97 Q1119.63 1435.97 1118.14 1438.86 Q1116.68 1441.74 1116.68 1447.53 Q1116.68 1453.31 1118.14 1456.2 Q1119.63 1459.08 1122.56 1459.08 Q1125.52 1459.08 1126.98 1456.2 Q1128.47 1453.31 1128.47 1447.53 Q1128.47 1441.74 1126.98 1438.86 Q1125.52 1435.97 1122.56 1435.97 M1122.56 1432.96 Q1127.28 1432.96 1129.77 1436.7 Q1132.27 1440.43 1132.27 1447.53 Q1132.27 1454.62 1129.77 1458.37 Q1127.28 1462.09 1122.56 1462.09 Q1117.84 1462.09 1115.34 1458.37 Q1112.86 1454.62 1112.86 1447.53 Q1112.86 1440.43 1115.34 1436.7 Q1117.84 1432.96 1122.56 1432.96 Z" fill="#000000" fill-rule="nonzero" fill-opacity="1" /><path clip-path="url(#clip070)" d="M2059.87 1485.02 L2067.51 1485.02 L2067.51 1458.66 L2059.2 1460.32 L2059.2 1456.06 L2067.47 1454.4 L2072.14 1454.4 L2072.14 1485.02 L2079.78 1485.02 L2079.78 1488.96 L2059.87 1488.96 L2059.87 1485.02 Z" fill="#000000" fill-rule="nonzero" fill-opacity="1" /><path clip-path="url(#clip070)" d="M2099.22 1457.48 Q2095.61 1457.48 2093.78 1461.04 Q2091.98 1464.58 2091.98 1471.71 Q2091.98 1478.82 2093.78 1482.38 Q2095.61 1485.92 2099.22 1485.92 Q2102.86 1485.92 2104.66 1482.38 Q2106.49 1478.82 2106.49 1471.71 Q2106.49 1464.58 2104.66 1461.04 Q2102.86 1457.48 2099.22 1457.48 M2099.22 1453.77 Q2105.03 1453.77 2108.09 1458.38 Q2111.17 1462.96 2111.17 1471.71 Q2111.17 1480.44 2108.09 1485.04 Q2105.03 1489.63 2099.22 1489.63 Q2093.41 1489.63 2090.34 1485.04 Q2087.28 1480.44 2087.28 1471.71 Q2087.28 1462.96 2090.34 1458.38 Q2093.41 1453.77 2099.22 1453.77 Z" fill="#000000" fill-rule="nonzero" fill-opacity="1" /><path clip-path="url(#clip070)" d="M2111.71 1458.35 L2117.92 1458.35 L2117.92 1436.93 L2111.17 1438.28 L2111.17 1434.82 L2117.88 1433.47 L2121.68 1433.47 L2121.68 1458.35 L2127.89 1458.35 L2127.89 1461.55 L2111.71 1461.55 L2111.71 1458.35 Z" fill="#000000" fill-rule="nonzero" fill-opacity="1" /><path clip-path="url(#clip070)" d="M733.834 1531.95 L733.834 1568.9 L741.6 1568.9 Q751.435 1568.9 755.986 1564.45 Q760.569 1559.99 760.569 1550.38 Q760.569 1540.83 755.986 1536.4 Q751.435 1531.95 741.6 1531.95 L733.834 1531.95 M727.404 1526.67 L740.613 1526.67 Q754.427 1526.67 760.888 1532.43 Q767.349 1538.16 767.349 1550.38 Q767.349 1562.66 760.856 1568.42 Q754.363 1574.19 740.613 1574.19 L727.404 1574.19 L727.404 1526.67 Z" fill="#000000" fill-rule="nonzero" fill-opacity="1" /><path clip-path="url(#clip070)" d="M792.175 1577.5 Q789.693 1583.86 787.337 1585.8 Q784.982 1587.74 781.035 1587.74 L776.356 1587.74 L776.356 1582.84 L779.794 1582.84 Q782.213 1582.84 783.55 1581.7 Q784.886 1580.55 786.51 1576.29 L787.56 1573.61 L773.142 1538.54 L779.348 1538.54 L790.488 1566.42 L801.628 1538.54 L807.835 1538.54 L792.175 1577.5 Z" fill="#000000" fill-rule="nonzero" fill-opacity="1" /><path clip-path="url(#clip070)" d="M845.552 1552.67 L845.552 1574.19 L839.695 1574.19 L839.695 1552.86 Q839.695 1547.8 837.722 1545.29 Q835.748 1542.77 831.802 1542.77 Q827.059 1542.77 824.322 1545.79 Q821.585 1548.82 821.585 1554.04 L821.585 1574.19 L815.696 1574.19 L815.696 1538.54 L821.585 1538.54 L821.585 1544.08 Q823.685 1540.86 826.518 1539.27 Q829.383 1537.68 833.107 1537.68 Q839.25 1537.68 842.401 1541.5 Q845.552 1545.29 845.552 1552.67 Z" fill="#000000" fill-rule="nonzero" fill-opacity="1" /><path clip-path="url(#clip070)" d="M873.433 1556.27 Q866.336 1556.27 863.598 1557.89 Q860.861 1559.51 860.861 1563.43 Q860.861 1566.55 862.898 1568.39 Q864.967 1570.21 868.5 1570.21 Q873.37 1570.21 876.298 1566.77 Q879.258 1563.3 879.258 1557.57 L879.258 1556.27 L873.433 1556.27 M885.115 1553.85 L885.115 1574.19 L879.258 1574.19 L879.258 1568.77 Q877.253 1572.02 874.261 1573.58 Q871.269 1575.11 866.94 1575.11 Q861.466 1575.11 858.219 1572.05 Q855.005 1568.97 855.005 1563.81 Q855.005 1557.79 859.015 1554.74 Q863.057 1551.68 871.046 1551.68 L879.258 1551.68 L879.258 1551.11 Q879.258 1547.07 876.584 1544.87 Q873.943 1542.64 869.137 1542.64 Q866.081 1542.64 863.185 1543.38 Q860.288 1544.11 857.615 1545.57 L857.615 1540.16 Q860.829 1538.92 863.853 1538.31 Q866.877 1537.68 869.741 1537.68 Q877.476 1537.68 881.295 1541.69 Q885.115 1545.7 885.115 1553.85 Z" fill="#000000" fill-rule="nonzero" fill-opacity="1" /><path clip-path="url(#clip070)" d="M924.932 1545.38 Q927.128 1541.43 930.184 1539.56 Q933.239 1537.68 937.377 1537.68 Q942.947 1537.68 945.971 1541.59 Q948.994 1545.48 948.994 1552.67 L948.994 1574.19 L943.106 1574.19 L943.106 1552.86 Q943.106 1547.74 941.292 1545.25 Q939.478 1542.77 935.754 1542.77 Q931.202 1542.77 928.56 1545.79 Q925.919 1548.82 925.919 1554.04 L925.919 1574.19 L920.03 1574.19 L920.03 1552.86 Q920.03 1547.7 918.216 1545.25 Q916.402 1542.77 912.614 1542.77 Q908.127 1542.77 905.485 1545.83 Q902.843 1548.85 902.843 1554.04 L902.843 1574.19 L896.955 1574.19 L896.955 1538.54 L902.843 1538.54 L902.843 1544.08 Q904.848 1540.8 907.649 1539.24 Q910.45 1537.68 914.301 1537.68 Q918.184 1537.68 920.89 1539.65 Q923.627 1541.62 924.932 1545.38 Z" fill="#000000" fill-rule="nonzero" fill-opacity="1" /><path clip-path="url(#clip070)" d="M960.675 1538.54 L966.532 1538.54 L966.532 1574.19 L960.675 1574.19 L960.675 1538.54 M960.675 1524.66 L966.532 1524.66 L966.532 1532.08 L960.675 1532.08 L960.675 1524.66 Z" fill="#000000" fill-rule="nonzero" fill-opacity="1" /><path clip-path="url(#clip070)" d="M1004.44 1539.91 L1004.44 1545.38 Q1001.96 1544.01 999.443 1543.34 Q996.96 1542.64 994.414 1542.64 Q988.716 1542.64 985.565 1546.27 Q982.414 1549.87 982.414 1556.39 Q982.414 1562.92 985.565 1566.55 Q988.716 1570.14 994.414 1570.14 Q996.96 1570.14 999.443 1569.47 Q1001.96 1568.77 1004.44 1567.41 L1004.44 1572.82 Q1001.99 1573.96 999.347 1574.54 Q996.737 1575.11 993.777 1575.11 Q985.725 1575.11 980.982 1570.05 Q976.24 1564.99 976.24 1556.39 Q976.24 1547.67 981.014 1542.68 Q985.82 1537.68 994.159 1537.68 Q996.865 1537.68 999.443 1538.25 Q1002.02 1538.79 1004.44 1539.91 Z" fill="#000000" fill-rule="nonzero" fill-opacity="1" /><path clip-path="url(#clip070)" d="M1037.35 1539.59 L1037.35 1545.13 Q1034.87 1543.85 1032.19 1543.22 Q1029.52 1542.58 1026.66 1542.58 Q1022.3 1542.58 1020.1 1543.92 Q1017.93 1545.25 1017.93 1547.93 Q1017.93 1549.96 1019.49 1551.14 Q1021.05 1552.29 1025.76 1553.34 L1027.77 1553.78 Q1034.01 1555.12 1036.62 1557.57 Q1039.26 1559.99 1039.26 1564.35 Q1039.26 1569.32 1035.31 1572.21 Q1031.4 1575.11 1024.52 1575.11 Q1021.66 1575.11 1018.54 1574.54 Q1015.45 1573.99 1012.01 1572.88 L1012.01 1566.83 Q1015.26 1568.52 1018.41 1569.38 Q1021.56 1570.21 1024.65 1570.21 Q1028.79 1570.21 1031.02 1568.81 Q1033.24 1567.37 1033.24 1564.8 Q1033.24 1562.41 1031.62 1561.14 Q1030.03 1559.86 1024.59 1558.68 L1022.55 1558.21 Q1017.11 1557.06 1014.69 1554.71 Q1012.27 1552.32 1012.27 1548.18 Q1012.27 1543.15 1015.83 1540.42 Q1019.4 1537.68 1025.96 1537.68 Q1029.2 1537.68 1032.07 1538.16 Q1034.93 1538.63 1037.35 1539.59 Z" fill="#000000" fill-rule="nonzero" fill-opacity="1" /><path clip-path="url(#clip070)" d="M1098.94 1552.67 L1098.94 1574.19 L1093.08 1574.19 L1093.08 1552.86 Q1093.08 1547.8 1091.11 1545.29 Q1089.14 1542.77 1085.19 1542.77 Q1080.45 1542.77 1077.71 1545.79 Q1074.97 1548.82 1074.97 1554.04 L1074.97 1574.19 L1069.08 1574.19 L1069.08 1538.54 L1074.97 1538.54 L1074.97 1544.08 Q1077.07 1540.86 1079.91 1539.27 Q1082.77 1537.68 1086.49 1537.68 Q1092.64 1537.68 1095.79 1541.5 Q1098.94 1545.29 1098.94 1552.67 Z" fill="#000000" fill-rule="nonzero" fill-opacity="1" /><path clip-path="url(#clip070)" d="M1124.43 1542.64 Q1119.72 1542.64 1116.99 1546.34 Q1114.25 1550 1114.25 1556.39 Q1114.25 1562.79 1116.95 1566.48 Q1119.69 1570.14 1124.43 1570.14 Q1129.11 1570.14 1131.85 1566.45 Q1134.59 1562.76 1134.59 1556.39 Q1134.59 1550.06 1131.85 1546.37 Q1129.11 1542.64 1124.43 1542.64 M1124.43 1537.68 Q1132.07 1537.68 1136.43 1542.64 Q1140.79 1547.61 1140.79 1556.39 Q1140.79 1565.15 1136.43 1570.14 Q1132.07 1575.11 1124.43 1575.11 Q1116.76 1575.11 1112.4 1570.14 Q1108.07 1565.15 1108.07 1556.39 Q1108.07 1547.61 1112.4 1542.64 Q1116.76 1537.68 1124.43 1537.68 Z" fill="#000000" fill-rule="nonzero" fill-opacity="1" /><path clip-path="url(#clip070)" d="M1150.5 1538.54 L1156.36 1538.54 L1156.36 1574.19 L1150.5 1574.19 L1150.5 1538.54 M1150.5 1524.66 L1156.36 1524.66 L1156.36 1532.08 L1150.5 1532.08 L1150.5 1524.66 Z" fill="#000000" fill-rule="nonzero" fill-opacity="1" /><path clip-path="url(#clip070)" d="M1191.34 1539.59 L1191.34 1545.13 Q1188.85 1543.85 1186.18 1543.22 Q1183.51 1542.58 1180.64 1542.58 Q1176.28 1542.58 1174.09 1543.92 Q1171.92 1545.25 1171.92 1547.93 Q1171.92 1549.96 1173.48 1551.14 Q1175.04 1552.29 1179.75 1553.34 L1181.76 1553.78 Q1187.99 1555.12 1190.6 1557.57 Q1193.25 1559.99 1193.25 1564.35 Q1193.25 1569.32 1189.3 1572.21 Q1185.38 1575.11 1178.51 1575.11 Q1175.65 1575.11 1172.53 1574.54 Q1169.44 1573.99 1166 1572.88 L1166 1566.83 Q1169.25 1568.52 1172.4 1569.38 Q1175.55 1570.21 1178.64 1570.21 Q1182.77 1570.21 1185 1568.81 Q1187.23 1567.37 1187.23 1564.8 Q1187.23 1562.41 1185.61 1561.14 Q1184.02 1559.86 1178.57 1558.68 L1176.54 1558.21 Q1171.09 1557.06 1168.67 1554.71 Q1166.26 1552.32 1166.26 1548.18 Q1166.26 1543.15 1169.82 1540.42 Q1173.39 1537.68 1179.94 1537.68 Q1183.19 1537.68 1186.05 1538.16 Q1188.92 1538.63 1191.34 1539.59 Z" fill="#000000" fill-rule="nonzero" fill-opacity="1" /><path clip-path="url(#clip070)" d="M1233.06 1554.9 L1233.06 1557.76 L1206.14 1557.76 Q1206.52 1563.81 1209.77 1566.99 Q1213.04 1570.14 1218.87 1570.14 Q1222.24 1570.14 1225.39 1569.32 Q1228.58 1568.49 1231.7 1566.83 L1231.7 1572.37 Q1228.54 1573.71 1225.23 1574.41 Q1221.92 1575.11 1218.52 1575.11 Q1209.99 1575.11 1204.99 1570.14 Q1200.03 1565.18 1200.03 1556.71 Q1200.03 1547.96 1204.74 1542.83 Q1209.48 1537.68 1217.5 1537.68 Q1224.69 1537.68 1228.86 1542.33 Q1233.06 1546.94 1233.06 1554.9 M1227.21 1553.18 Q1227.14 1548.37 1224.5 1545.51 Q1221.89 1542.64 1217.56 1542.64 Q1212.66 1542.64 1209.7 1545.41 Q1206.77 1548.18 1206.33 1553.21 L1227.21 1553.18 Z" fill="#000000" fill-rule="nonzero" fill-opacity="1" /><path clip-path="url(#clip070)" d="M1286.12 1539.59 L1286.12 1545.13 Q1283.64 1543.85 1280.97 1543.22 Q1278.29 1542.58 1275.43 1542.58 Q1271.07 1542.58 1268.87 1543.92 Q1266.71 1545.25 1266.71 1547.93 Q1266.71 1549.96 1268.27 1551.14 Q1269.83 1552.29 1274.54 1553.34 L1276.54 1553.78 Q1282.78 1555.12 1285.39 1557.57 Q1288.03 1559.99 1288.03 1564.35 Q1288.03 1569.32 1284.09 1572.21 Q1280.17 1575.11 1273.3 1575.11 Q1270.43 1575.11 1267.31 1574.54 Q1264.22 1573.99 1260.79 1572.88 L1260.79 1566.83 Q1264.03 1568.52 1267.18 1569.38 Q1270.34 1570.21 1273.42 1570.21 Q1277.56 1570.21 1279.79 1568.81 Q1282.02 1567.37 1282.02 1564.8 Q1282.02 1562.41 1280.39 1561.14 Q1278.8 1559.86 1273.36 1558.68 L1271.32 1558.21 Q1265.88 1557.06 1263.46 1554.71 Q1261.04 1552.32 1261.04 1548.18 Q1261.04 1543.15 1264.61 1540.42 Q1268.17 1537.68 1274.73 1537.68 Q1277.97 1537.68 1280.84 1538.16 Q1283.7 1538.63 1286.12 1539.59 Z" fill="#000000" fill-rule="nonzero" fill-opacity="1" /><path clip-path="url(#clip070)" d="M1303.15 1528.42 L1303.15 1538.54 L1315.21 1538.54 L1315.21 1543.09 L1303.15 1543.09 L1303.15 1562.44 Q1303.15 1566.8 1304.33 1568.04 Q1305.54 1569.28 1309.2 1569.28 L1315.21 1569.28 L1315.21 1574.19 L1309.2 1574.19 Q1302.42 1574.19 1299.84 1571.67 Q1297.26 1569.12 1297.26 1562.44 L1297.26 1543.09 L1292.97 1543.09 L1292.97 1538.54 L1297.26 1538.54 L1297.26 1528.42 L1303.15 1528.42 Z" fill="#000000" fill-rule="nonzero" fill-opacity="1" /><path clip-path="url(#clip070)" d="M1339.12 1556.27 Q1332.02 1556.27 1329.28 1557.89 Q1326.54 1559.51 1326.54 1563.43 Q1326.54 1566.55 1328.58 1568.39 Q1330.65 1570.21 1334.18 1570.21 Q1339.05 1570.21 1341.98 1566.77 Q1344.94 1563.3 1344.94 1557.57 L1344.94 1556.27 L1339.12 1556.27 M1350.8 1553.85 L1350.8 1574.19 L1344.94 1574.19 L1344.94 1568.77 Q1342.94 1572.02 1339.94 1573.58 Q1336.95 1575.11 1332.62 1575.11 Q1327.15 1575.11 1323.9 1572.05 Q1320.69 1568.97 1320.69 1563.81 Q1320.69 1557.79 1324.7 1554.74 Q1328.74 1551.68 1336.73 1551.68 L1344.94 1551.68 L1344.94 1551.11 Q1344.94 1547.07 1342.27 1544.87 Q1339.63 1542.64 1334.82 1542.64 Q1331.76 1542.64 1328.87 1543.38 Q1325.97 1544.11 1323.3 1545.57 L1323.3 1540.16 Q1326.51 1538.92 1329.54 1538.31 Q1332.56 1537.68 1335.42 1537.68 Q1343.16 1537.68 1346.98 1541.69 Q1350.8 1545.7 1350.8 1553.85 Z" fill="#000000" fill-rule="nonzero" fill-opacity="1" /><path clip-path="url(#clip070)" d="M1392.49 1552.67 L1392.49 1574.19 L1386.64 1574.19 L1386.64 1552.86 Q1386.64 1547.8 1384.66 1545.29 Q1382.69 1542.77 1378.74 1542.77 Q1374 1542.77 1371.26 1545.79 Q1368.53 1548.82 1368.53 1554.04 L1368.53 1574.19 L1362.64 1574.19 L1362.64 1538.54 L1368.53 1538.54 L1368.53 1544.08 Q1370.63 1540.86 1373.46 1539.27 Q1376.32 1537.68 1380.05 1537.68 Q1386.19 1537.68 1389.34 1541.5 Q1392.49 1545.29 1392.49 1552.67 Z" fill="#000000" fill-rule="nonzero" fill-opacity="1" /><path clip-path="url(#clip070)" d="M1427.63 1543.95 L1427.63 1524.66 L1433.49 1524.66 L1433.49 1574.19 L1427.63 1574.19 L1427.63 1568.84 Q1425.79 1572.02 1422.95 1573.58 Q1420.15 1575.11 1416.21 1575.11 Q1409.74 1575.11 1405.67 1569.95 Q1401.63 1564.8 1401.63 1556.39 Q1401.63 1547.99 1405.67 1542.83 Q1409.74 1537.68 1416.21 1537.68 Q1420.15 1537.68 1422.95 1539.24 Q1425.79 1540.77 1427.63 1543.95 M1407.68 1556.39 Q1407.68 1562.85 1410.32 1566.55 Q1412.99 1570.21 1417.64 1570.21 Q1422.28 1570.21 1424.96 1566.55 Q1427.63 1562.85 1427.63 1556.39 Q1427.63 1549.93 1424.96 1546.27 Q1422.28 1542.58 1417.64 1542.58 Q1412.99 1542.58 1410.32 1546.27 Q1407.68 1549.93 1407.68 1556.39 Z" fill="#000000" fill-rule="nonzero" fill-opacity="1" /><path clip-path="url(#clip070)" d="M1461.75 1556.27 Q1454.65 1556.27 1451.92 1557.89 Q1449.18 1559.51 1449.18 1563.43 Q1449.18 1566.55 1451.22 1568.39 Q1453.29 1570.21 1456.82 1570.21 Q1461.69 1570.21 1464.62 1566.77 Q1467.58 1563.3 1467.58 1557.57 L1467.58 1556.27 L1461.75 1556.27 M1473.43 1553.85 L1473.43 1574.19 L1467.58 1574.19 L1467.58 1568.77 Q1465.57 1572.02 1462.58 1573.58 Q1459.59 1575.11 1455.26 1575.11 Q1449.78 1575.11 1446.54 1572.05 Q1443.32 1568.97 1443.32 1563.81 Q1443.32 1557.79 1447.33 1554.74 Q1451.38 1551.68 1459.36 1551.68 L1467.58 1551.68 L1467.58 1551.11 Q1467.58 1547.07 1464.9 1544.87 Q1462.26 1542.64 1457.46 1542.64 Q1454.4 1542.64 1451.5 1543.38 Q1448.61 1544.11 1445.93 1545.57 L1445.93 1540.16 Q1449.15 1538.92 1452.17 1538.31 Q1455.2 1537.68 1458.06 1537.68 Q1465.79 1537.68 1469.61 1541.69 Q1473.43 1545.7 1473.43 1553.85 Z" fill="#000000" fill-rule="nonzero" fill-opacity="1" /><path clip-path="url(#clip070)" d="M1506.15 1544.01 Q1505.17 1543.44 1503.99 1543.18 Q1502.84 1542.9 1501.44 1542.9 Q1496.48 1542.9 1493.8 1546.14 Q1491.16 1549.36 1491.16 1555.41 L1491.16 1574.19 L1485.27 1574.19 L1485.27 1538.54 L1491.16 1538.54 L1491.16 1544.08 Q1493.01 1540.83 1495.97 1539.27 Q1498.93 1537.68 1503.16 1537.68 Q1503.77 1537.68 1504.5 1537.77 Q1505.23 1537.84 1506.12 1538 L1506.15 1544.01 Z" fill="#000000" fill-rule="nonzero" fill-opacity="1" /><path clip-path="url(#clip070)" d="M1534.61 1543.95 L1534.61 1524.66 L1540.46 1524.66 L1540.46 1574.19 L1534.61 1574.19 L1534.61 1568.84 Q1532.76 1572.02 1529.93 1573.58 Q1527.13 1575.11 1523.18 1575.11 Q1516.72 1575.11 1512.65 1569.95 Q1508.6 1564.8 1508.6 1556.39 Q1508.6 1547.99 1512.65 1542.83 Q1516.72 1537.68 1523.18 1537.68 Q1527.13 1537.68 1529.93 1539.24 Q1532.76 1540.77 1534.61 1543.95 M1514.65 1556.39 Q1514.65 1562.85 1517.29 1566.55 Q1519.97 1570.21 1524.61 1570.21 Q1529.26 1570.21 1531.93 1566.55 Q1534.61 1562.85 1534.61 1556.39 Q1534.61 1549.93 1531.93 1546.27 Q1529.26 1542.58 1524.61 1542.58 Q1519.97 1542.58 1517.29 1546.27 Q1514.65 1549.93 1514.65 1556.39 Z" fill="#000000" fill-rule="nonzero" fill-opacity="1" /><path clip-path="url(#clip070)" d="M1596.71 1543.95 L1596.71 1524.66 L1602.56 1524.66 L1602.56 1574.19 L1596.71 1574.19 L1596.71 1568.84 Q1594.86 1572.02 1592.03 1573.58 Q1589.23 1575.11 1585.28 1575.11 Q1578.82 1575.11 1574.74 1569.95 Q1570.7 1564.8 1570.7 1556.39 Q1570.7 1547.99 1574.74 1542.83 Q1578.82 1537.68 1585.28 1537.68 Q1589.23 1537.68 1592.03 1539.24 Q1594.86 1540.77 1596.71 1543.95 M1576.75 1556.39 Q1576.75 1562.85 1579.39 1566.55 Q1582.06 1570.21 1586.71 1570.21 Q1591.36 1570.21 1594.03 1566.55 Q1596.71 1562.85 1596.71 1556.39 Q1596.71 1549.93 1594.03 1546.27 Q1591.36 1542.58 1586.71 1542.58 Q1582.06 1542.58 1579.39 1546.27 Q1576.75 1549.93 1576.75 1556.39 Z" fill="#000000" fill-rule="nonzero" fill-opacity="1" /><path clip-path="url(#clip070)" d="M1645.12 1554.9 L1645.12 1557.76 L1618.19 1557.76 Q1618.57 1563.81 1621.82 1566.99 Q1625.1 1570.14 1630.92 1570.14 Q1634.29 1570.14 1637.45 1569.32 Q1640.63 1568.49 1643.75 1566.83 L1643.75 1572.37 Q1640.6 1573.71 1637.29 1574.41 Q1633.98 1575.11 1630.57 1575.11 Q1622.04 1575.11 1617.04 1570.14 Q1612.08 1565.18 1612.08 1556.71 Q1612.08 1547.96 1616.79 1542.83 Q1621.53 1537.68 1629.55 1537.68 Q1636.75 1537.68 1640.91 1542.33 Q1645.12 1546.94 1645.12 1554.9 M1639.26 1553.18 Q1639.2 1548.37 1636.55 1545.51 Q1633.94 1542.64 1629.62 1542.64 Q1624.71 1542.64 1621.75 1545.41 Q1618.83 1548.18 1618.38 1553.21 L1639.26 1553.18 Z" fill="#000000" fill-rule="nonzero" fill-opacity="1" /><path clip-path="url(#clip070)" d="M1650.53 1538.54 L1656.73 1538.54 L1667.87 1568.46 L1679.01 1538.54 L1685.22 1538.54 L1671.85 1574.19 L1663.9 1574.19 L1650.53 1538.54 Z" fill="#000000" fill-rule="nonzero" fill-opacity="1" /><path clip-path="url(#clip070)" d="M1693.3 1538.54 L1699.16 1538.54 L1699.16 1574.19 L1693.3 1574.19 L1693.3 1538.54 M1693.3 1524.66 L1699.16 1524.66 L1699.16 1532.08 L1693.3 1532.08 L1693.3 1524.66 Z" fill="#000000" fill-rule="nonzero" fill-opacity="1" /><path clip-path="url(#clip070)" d="M1727.62 1556.27 Q1720.52 1556.27 1717.78 1557.89 Q1715.04 1559.51 1715.04 1563.43 Q1715.04 1566.55 1717.08 1568.39 Q1719.15 1570.21 1722.68 1570.21 Q1727.55 1570.21 1730.48 1566.77 Q1733.44 1563.3 1733.44 1557.57 L1733.44 1556.27 L1727.62 1556.27 M1739.3 1553.85 L1739.3 1574.19 L1733.44 1574.19 L1733.44 1568.77 Q1731.44 1572.02 1728.44 1573.58 Q1725.45 1575.11 1721.12 1575.11 Q1715.65 1575.11 1712.4 1572.05 Q1709.19 1568.97 1709.19 1563.81 Q1709.19 1557.79 1713.2 1554.74 Q1717.24 1551.68 1725.23 1551.68 L1733.44 1551.68 L1733.44 1551.11 Q1733.44 1547.07 1730.77 1544.87 Q1728.13 1542.64 1723.32 1542.64 Q1720.26 1542.64 1717.37 1543.38 Q1714.47 1544.11 1711.8 1545.57 L1711.8 1540.16 Q1715.01 1538.92 1718.04 1538.31 Q1721.06 1537.68 1723.92 1537.68 Q1731.66 1537.68 1735.48 1541.69 Q1739.3 1545.7 1739.3 1553.85 Z" fill="#000000" fill-rule="nonzero" fill-opacity="1" /><path clip-path="url(#clip070)" d="M1757.15 1528.42 L1757.15 1538.54 L1769.22 1538.54 L1769.22 1543.09 L1757.15 1543.09 L1757.15 1562.44 Q1757.15 1566.8 1758.33 1568.04 Q1759.54 1569.28 1763.2 1569.28 L1769.22 1569.28 L1769.22 1574.19 L1763.2 1574.19 Q1756.42 1574.19 1753.84 1571.67 Q1751.26 1569.12 1751.26 1562.44 L1751.26 1543.09 L1746.97 1543.09 L1746.97 1538.54 L1751.26 1538.54 L1751.26 1528.42 L1757.15 1528.42 Z" fill="#000000" fill-rule="nonzero" fill-opacity="1" /><path clip-path="url(#clip070)" d="M1776.92 1538.54 L1782.77 1538.54 L1782.77 1574.19 L1776.92 1574.19 L1776.92 1538.54 M1776.92 1524.66 L1782.77 1524.66 L1782.77 1532.08 L1776.92 1532.08 L1776.92 1524.66 Z" fill="#000000" fill-rule="nonzero" fill-opacity="1" /><path clip-path="url(#clip070)" d="M1808.84 1542.64 Q1804.13 1542.64 1801.39 1546.34 Q1798.66 1550 1798.66 1556.39 Q1798.66 1562.79 1801.36 1566.48 Q1804.1 1570.14 1808.84 1570.14 Q1813.52 1570.14 1816.26 1566.45 Q1819 1562.76 1819 1556.39 Q1819 1550.06 1816.26 1546.37 Q1813.52 1542.64 1808.84 1542.64 M1808.84 1537.68 Q1816.48 1537.68 1820.84 1542.64 Q1825.2 1547.61 1825.2 1556.39 Q1825.2 1565.15 1820.84 1570.14 Q1816.48 1575.11 1808.84 1575.11 Q1801.17 1575.11 1796.81 1570.14 Q1792.48 1565.15 1792.48 1556.39 Q1792.48 1547.61 1796.81 1542.64 Q1801.17 1537.68 1808.84 1537.68 Z" fill="#000000" fill-rule="nonzero" fill-opacity="1" /><path clip-path="url(#clip070)" d="M1864.54 1552.67 L1864.54 1574.19 L1858.69 1574.19 L1858.69 1552.86 Q1858.69 1547.8 1856.71 1545.29 Q1854.74 1542.77 1850.79 1542.77 Q1846.05 1542.77 1843.31 1545.79 Q1840.58 1548.82 1840.58 1554.04 L1840.58 1574.19 L1834.69 1574.19 L1834.69 1538.54 L1840.58 1538.54 L1840.58 1544.08 Q1842.68 1540.86 1845.51 1539.27 Q1848.37 1537.68 1852.1 1537.68 Q1858.24 1537.68 1861.39 1541.5 Q1864.54 1545.29 1864.54 1552.67 Z" fill="#000000" fill-rule="nonzero" fill-opacity="1" /><polyline clip-path="url(#clip070)" style="stroke:#000000; stroke-linecap:round; stroke-linejoin:round; stroke-width:4; stroke-opacity:1; fill:none" points="239.19,1410.9 239.19,123.472 "/>
<polyline clip-path="url(#clip070)" style="stroke:#000000; stroke-linecap:round; stroke-linejoin:round; stroke-width:4; stroke-opacity:1; fill:none" points="239.19,1359.9 258.088,1359.9 "/>
<polyline clip-path="url(#clip070)" style="stroke:#000000; stroke-linecap:round; stroke-linejoin:round; stroke-width:4; stroke-opacity:1; fill:none" points="239.19,1148.1 258.088,1148.1 "/>
<polyline clip-path="url(#clip070)" style="stroke:#000000; stroke-linecap:round; stroke-linejoin:round; stroke-width:4; stroke-opacity:1; fill:none" points="239.19,936.305 258.088,936.305 "/>
<polyline clip-path="url(#clip070)" style="stroke:#000000; stroke-linecap:round; stroke-linejoin:round; stroke-width:4; stroke-opacity:1; fill:none" points="239.19,724.508 258.088,724.508 "/>
<polyline clip-path="url(#clip070)" style="stroke:#000000; stroke-linecap:round; stroke-linejoin:round; stroke-width:4; stroke-opacity:1; fill:none" points="239.19,512.71 258.088,512.71 "/>
<polyline clip-path="url(#clip070)" style="stroke:#000000; stroke-linecap:round; stroke-linejoin:round; stroke-width:4; stroke-opacity:1; fill:none" points="239.19,300.912 258.088,300.912 "/>
<path clip-path="url(#clip070)" d="M50.9921 1360.35 L80.6679 1360.35 L80.6679 1364.29 L50.9921 1364.29 L50.9921 1360.35 Z" fill="#000000" fill-rule="nonzero" fill-opacity="1" /><path clip-path="url(#clip070)" d="M103.608 1346.7 L91.8021 1365.14 L103.608 1365.14 L103.608 1346.7 M102.381 1342.62 L108.26 1342.62 L108.26 1365.14 L113.191 1365.14 L113.191 1369.03 L108.26 1369.03 L108.26 1377.18 L103.608 1377.18 L103.608 1369.03 L88.0058 1369.03 L88.0058 1364.52 L102.381 1342.62 Z" fill="#000000" fill-rule="nonzero" fill-opacity="1" /><path clip-path="url(#clip070)" d="M130.922 1345.7 Q127.311 1345.7 125.482 1349.26 Q123.677 1352.81 123.677 1359.94 Q123.677 1367.04 125.482 1370.61 Q127.311 1374.15 130.922 1374.15 Q134.556 1374.15 136.362 1370.61 Q138.191 1367.04 138.191 1359.94 Q138.191 1352.81 136.362 1349.26 Q134.556 1345.7 130.922 1345.7 M130.922 1342 Q136.732 1342 139.788 1346.6 Q142.867 1351.19 142.867 1359.94 Q142.867 1368.66 139.788 1373.27 Q136.732 1377.85 130.922 1377.85 Q125.112 1377.85 122.033 1373.27 Q118.978 1368.66 118.978 1359.94 Q118.978 1351.19 122.033 1346.6 Q125.112 1342 130.922 1342 Z" fill="#000000" fill-rule="nonzero" fill-opacity="1" /><path clip-path="url(#clip070)" d="M161.084 1345.7 Q157.473 1345.7 155.644 1349.26 Q153.839 1352.81 153.839 1359.94 Q153.839 1367.04 155.644 1370.61 Q157.473 1374.15 161.084 1374.15 Q164.718 1374.15 166.524 1370.61 Q168.353 1367.04 168.353 1359.94 Q168.353 1352.81 166.524 1349.26 Q164.718 1345.7 161.084 1345.7 M161.084 1342 Q166.894 1342 169.95 1346.6 Q173.029 1351.19 173.029 1359.94 Q173.029 1368.66 169.95 1373.27 Q166.894 1377.85 161.084 1377.85 Q155.274 1377.85 152.195 1373.27 Q149.14 1368.66 149.14 1359.94 Q149.14 1351.19 152.195 1346.6 Q155.274 1342 161.084 1342 Z" fill="#000000" fill-rule="nonzero" fill-opacity="1" /><path clip-path="url(#clip070)" d="M191.246 1345.7 Q187.635 1345.7 185.806 1349.26 Q184.001 1352.81 184.001 1359.94 Q184.001 1367.04 185.806 1370.61 Q187.635 1374.15 191.246 1374.15 Q194.88 1374.15 196.686 1370.61 Q198.514 1367.04 198.514 1359.94 Q198.514 1352.81 196.686 1349.26 Q194.88 1345.7 191.246 1345.7 M191.246 1342 Q197.056 1342 200.112 1346.6 Q203.19 1351.19 203.19 1359.94 Q203.19 1368.66 200.112 1373.27 Q197.056 1377.85 191.246 1377.85 Q185.436 1377.85 182.357 1373.27 Q179.302 1368.66 179.302 1359.94 Q179.302 1351.19 182.357 1346.6 Q185.436 1342 191.246 1342 Z" fill="#000000" fill-rule="nonzero" fill-opacity="1" /><path clip-path="url(#clip070)" d="M50.9921 1148.55 L80.6679 1148.55 L80.6679 1152.49 L50.9921 1152.49 L50.9921 1148.55 Z" fill="#000000" fill-rule="nonzero" fill-opacity="1" /><path clip-path="url(#clip070)" d="M104.927 1146.75 Q108.283 1147.47 110.158 1149.74 Q112.057 1152 112.057 1155.34 Q112.057 1160.45 108.538 1163.25 Q105.02 1166.05 98.5382 1166.05 Q96.3623 1166.05 94.0475 1165.61 Q91.7558 1165.2 89.3021 1164.34 L89.3021 1159.83 Q91.2465 1160.96 93.5613 1161.54 Q95.8761 1162.12 98.3993 1162.12 Q102.797 1162.12 105.089 1160.38 Q107.404 1158.65 107.404 1155.34 Q107.404 1152.28 105.251 1150.57 Q103.121 1148.83 99.3021 1148.83 L95.2743 1148.83 L95.2743 1144.99 L99.4872 1144.99 Q102.936 1144.99 104.765 1143.62 Q106.594 1142.24 106.594 1139.64 Q106.594 1136.98 104.696 1135.57 Q102.821 1134.13 99.3021 1134.13 Q97.3808 1134.13 95.1817 1134.55 Q92.9826 1134.97 90.3438 1135.85 L90.3438 1131.68 Q93.0058 1130.94 95.3206 1130.57 Q97.6585 1130.2 99.7187 1130.2 Q105.043 1130.2 108.145 1132.63 Q111.246 1135.04 111.246 1139.16 Q111.246 1142.03 109.603 1144.02 Q107.959 1145.99 104.927 1146.75 Z" fill="#000000" fill-rule="nonzero" fill-opacity="1" /><path clip-path="url(#clip070)" d="M120.969 1130.82 L139.325 1130.82 L139.325 1134.76 L125.251 1134.76 L125.251 1143.23 Q126.27 1142.88 127.288 1142.72 Q128.307 1142.54 129.325 1142.54 Q135.112 1142.54 138.492 1145.71 Q141.871 1148.88 141.871 1154.3 Q141.871 1159.87 138.399 1162.98 Q134.927 1166.05 128.607 1166.05 Q126.432 1166.05 124.163 1165.68 Q121.918 1165.31 119.51 1164.57 L119.51 1159.87 Q121.594 1161.01 123.816 1161.56 Q126.038 1162.12 128.515 1162.12 Q132.519 1162.12 134.857 1160.01 Q137.195 1157.91 137.195 1154.3 Q137.195 1150.68 134.857 1148.58 Q132.519 1146.47 128.515 1146.47 Q126.64 1146.47 124.765 1146.89 Q122.913 1147.3 120.969 1148.18 L120.969 1130.82 Z" fill="#000000" fill-rule="nonzero" fill-opacity="1" /><path clip-path="url(#clip070)" d="M161.084 1133.9 Q157.473 1133.9 155.644 1137.47 Q153.839 1141.01 153.839 1148.14 Q153.839 1155.24 155.644 1158.81 Q157.473 1162.35 161.084 1162.35 Q164.718 1162.35 166.524 1158.81 Q168.353 1155.24 168.353 1148.14 Q168.353 1141.01 166.524 1137.47 Q164.718 1133.9 161.084 1133.9 M161.084 1130.2 Q166.894 1130.2 169.95 1134.8 Q173.029 1139.39 173.029 1148.14 Q173.029 1156.86 169.95 1161.47 Q166.894 1166.05 161.084 1166.05 Q155.274 1166.05 152.195 1161.47 Q149.14 1156.86 149.14 1148.14 Q149.14 1139.39 152.195 1134.8 Q155.274 1130.2 161.084 1130.2 Z" fill="#000000" fill-rule="nonzero" fill-opacity="1" /><path clip-path="url(#clip070)" d="M191.246 1133.9 Q187.635 1133.9 185.806 1137.47 Q184.001 1141.01 184.001 1148.14 Q184.001 1155.24 185.806 1158.81 Q187.635 1162.35 191.246 1162.35 Q194.88 1162.35 196.686 1158.81 Q198.514 1155.24 198.514 1148.14 Q198.514 1141.01 196.686 1137.47 Q194.88 1133.9 191.246 1133.9 M191.246 1130.2 Q197.056 1130.2 200.112 1134.8 Q203.19 1139.39 203.19 1148.14 Q203.19 1156.86 200.112 1161.47 Q197.056 1166.05 191.246 1166.05 Q185.436 1166.05 182.357 1161.47 Q179.302 1156.86 179.302 1148.14 Q179.302 1139.39 182.357 1134.8 Q185.436 1130.2 191.246 1130.2 Z" fill="#000000" fill-rule="nonzero" fill-opacity="1" /><path clip-path="url(#clip070)" d="M50.9921 936.757 L80.6679 936.757 L80.6679 940.692 L50.9921 940.692 L50.9921 936.757 Z" fill="#000000" fill-rule="nonzero" fill-opacity="1" /><path clip-path="url(#clip070)" d="M104.927 934.951 Q108.283 935.669 110.158 937.937 Q112.057 940.206 112.057 943.539 Q112.057 948.655 108.538 951.456 Q105.02 954.257 98.5382 954.257 Q96.3623 954.257 94.0475 953.817 Q91.7558 953.4 89.3021 952.544 L89.3021 948.03 Q91.2465 949.164 93.5613 949.743 Q95.8761 950.322 98.3993 950.322 Q102.797 950.322 105.089 948.586 Q107.404 946.849 107.404 943.539 Q107.404 940.484 105.251 938.771 Q103.121 937.035 99.3021 937.035 L95.2743 937.035 L95.2743 933.192 L99.4872 933.192 Q102.936 933.192 104.765 931.826 Q106.594 930.437 106.594 927.845 Q106.594 925.183 104.696 923.771 Q102.821 922.336 99.3021 922.336 Q97.3808 922.336 95.1817 922.752 Q92.9826 923.169 90.3438 924.049 L90.3438 919.882 Q93.0058 919.141 95.3206 918.771 Q97.6585 918.4 99.7187 918.4 Q105.043 918.4 108.145 920.831 Q111.246 923.238 111.246 927.359 Q111.246 930.229 109.603 932.22 Q107.959 934.187 104.927 934.951 Z" fill="#000000" fill-rule="nonzero" fill-opacity="1" /><path clip-path="url(#clip070)" d="M130.922 922.104 Q127.311 922.104 125.482 925.669 Q123.677 929.211 123.677 936.34 Q123.677 943.447 125.482 947.011 Q127.311 950.553 130.922 950.553 Q134.556 950.553 136.362 947.011 Q138.191 943.447 138.191 936.34 Q138.191 929.211 136.362 925.669 Q134.556 922.104 130.922 922.104 M130.922 918.4 Q136.732 918.4 139.788 923.007 Q142.867 927.59 142.867 936.34 Q142.867 945.067 139.788 949.673 Q136.732 954.257 130.922 954.257 Q125.112 954.257 122.033 949.673 Q118.978 945.067 118.978 936.34 Q118.978 927.59 122.033 923.007 Q125.112 918.4 130.922 918.4 Z" fill="#000000" fill-rule="nonzero" fill-opacity="1" /><path clip-path="url(#clip070)" d="M161.084 922.104 Q157.473 922.104 155.644 925.669 Q153.839 929.211 153.839 936.34 Q153.839 943.447 155.644 947.011 Q157.473 950.553 161.084 950.553 Q164.718 950.553 166.524 947.011 Q168.353 943.447 168.353 936.34 Q168.353 929.211 166.524 925.669 Q164.718 922.104 161.084 922.104 M161.084 918.4 Q166.894 918.4 169.95 923.007 Q173.029 927.59 173.029 936.34 Q173.029 945.067 169.95 949.673 Q166.894 954.257 161.084 954.257 Q155.274 954.257 152.195 949.673 Q149.14 945.067 149.14 936.34 Q149.14 927.59 152.195 923.007 Q155.274 918.4 161.084 918.4 Z" fill="#000000" fill-rule="nonzero" fill-opacity="1" /><path clip-path="url(#clip070)" d="M191.246 922.104 Q187.635 922.104 185.806 925.669 Q184.001 929.211 184.001 936.34 Q184.001 943.447 185.806 947.011 Q187.635 950.553 191.246 950.553 Q194.88 950.553 196.686 947.011 Q198.514 943.447 198.514 936.34 Q198.514 929.211 196.686 925.669 Q194.88 922.104 191.246 922.104 M191.246 918.4 Q197.056 918.4 200.112 923.007 Q203.19 927.59 203.19 936.34 Q203.19 945.067 200.112 949.673 Q197.056 954.257 191.246 954.257 Q185.436 954.257 182.357 949.673 Q179.302 945.067 179.302 936.34 Q179.302 927.59 182.357 923.007 Q185.436 918.4 191.246 918.4 Z" fill="#000000" fill-rule="nonzero" fill-opacity="1" /><path clip-path="url(#clip070)" d="M50.9921 724.959 L80.6679 724.959 L80.6679 728.894 L50.9921 728.894 L50.9921 724.959 Z" fill="#000000" fill-rule="nonzero" fill-opacity="1" /><path clip-path="url(#clip070)" d="M94.7882 737.853 L111.108 737.853 L111.108 741.788 L89.1632 741.788 L89.1632 737.853 Q91.8252 735.098 96.4085 730.468 Q101.015 725.816 102.196 724.473 Q104.441 721.95 105.321 720.214 Q106.223 718.455 106.223 716.765 Q106.223 714.01 104.279 712.274 Q102.358 710.538 99.2558 710.538 Q97.0567 710.538 94.603 711.302 Q92.1725 712.066 89.3947 713.617 L89.3947 708.894 Q92.2188 707.76 94.6724 707.181 Q97.1261 706.603 99.1632 706.603 Q104.534 706.603 107.728 709.288 Q110.922 711.973 110.922 716.464 Q110.922 718.593 110.112 720.515 Q109.325 722.413 107.219 725.005 Q106.64 725.677 103.538 728.894 Q100.436 732.089 94.7882 737.853 Z" fill="#000000" fill-rule="nonzero" fill-opacity="1" /><path clip-path="url(#clip070)" d="M120.969 707.228 L139.325 707.228 L139.325 711.163 L125.251 711.163 L125.251 719.635 Q126.27 719.288 127.288 719.126 Q128.307 718.941 129.325 718.941 Q135.112 718.941 138.492 722.112 Q141.871 725.283 141.871 730.7 Q141.871 736.279 138.399 739.38 Q134.927 742.459 128.607 742.459 Q126.432 742.459 124.163 742.089 Q121.918 741.718 119.51 740.978 L119.51 736.279 Q121.594 737.413 123.816 737.968 Q126.038 738.524 128.515 738.524 Q132.519 738.524 134.857 736.417 Q137.195 734.311 137.195 730.7 Q137.195 727.089 134.857 724.982 Q132.519 722.876 128.515 722.876 Q126.64 722.876 124.765 723.292 Q122.913 723.709 120.969 724.589 L120.969 707.228 Z" fill="#000000" fill-rule="nonzero" fill-opacity="1" /><path clip-path="url(#clip070)" d="M161.084 710.306 Q157.473 710.306 155.644 713.871 Q153.839 717.413 153.839 724.542 Q153.839 731.649 155.644 735.214 Q157.473 738.755 161.084 738.755 Q164.718 738.755 166.524 735.214 Q168.353 731.649 168.353 724.542 Q168.353 717.413 166.524 713.871 Q164.718 710.306 161.084 710.306 M161.084 706.603 Q166.894 706.603 169.95 711.209 Q173.029 715.793 173.029 724.542 Q173.029 733.269 169.95 737.876 Q166.894 742.459 161.084 742.459 Q155.274 742.459 152.195 737.876 Q149.14 733.269 149.14 724.542 Q149.14 715.793 152.195 711.209 Q155.274 706.603 161.084 706.603 Z" fill="#000000" fill-rule="nonzero" fill-opacity="1" /><path clip-path="url(#clip070)" d="M191.246 710.306 Q187.635 710.306 185.806 713.871 Q184.001 717.413 184.001 724.542 Q184.001 731.649 185.806 735.214 Q187.635 738.755 191.246 738.755 Q194.88 738.755 196.686 735.214 Q198.514 731.649 198.514 724.542 Q198.514 717.413 196.686 713.871 Q194.88 710.306 191.246 710.306 M191.246 706.603 Q197.056 706.603 200.112 711.209 Q203.19 715.793 203.19 724.542 Q203.19 733.269 200.112 737.876 Q197.056 742.459 191.246 742.459 Q185.436 742.459 182.357 737.876 Q179.302 733.269 179.302 724.542 Q179.302 715.793 182.357 711.209 Q185.436 706.603 191.246 706.603 Z" fill="#000000" fill-rule="nonzero" fill-opacity="1" /><path clip-path="url(#clip070)" d="M50.9921 513.161 L80.6679 513.161 L80.6679 517.097 L50.9921 517.097 L50.9921 513.161 Z" fill="#000000" fill-rule="nonzero" fill-opacity="1" /><path clip-path="url(#clip070)" d="M94.7882 526.055 L111.108 526.055 L111.108 529.99 L89.1632 529.99 L89.1632 526.055 Q91.8252 523.3 96.4085 518.671 Q101.015 514.018 102.196 512.675 Q104.441 510.152 105.321 508.416 Q106.223 506.657 106.223 504.967 Q106.223 502.212 104.279 500.476 Q102.358 498.74 99.2558 498.74 Q97.0567 498.74 94.603 499.504 Q92.1725 500.268 89.3947 501.819 L89.3947 497.097 Q92.2188 495.962 94.6724 495.384 Q97.1261 494.805 99.1632 494.805 Q104.534 494.805 107.728 497.49 Q110.922 500.175 110.922 504.666 Q110.922 506.796 110.112 508.717 Q109.325 510.615 107.219 513.208 Q106.64 513.879 103.538 517.097 Q100.436 520.291 94.7882 526.055 Z" fill="#000000" fill-rule="nonzero" fill-opacity="1" /><path clip-path="url(#clip070)" d="M130.922 498.509 Q127.311 498.509 125.482 502.073 Q123.677 505.615 123.677 512.745 Q123.677 519.851 125.482 523.416 Q127.311 526.958 130.922 526.958 Q134.556 526.958 136.362 523.416 Q138.191 519.851 138.191 512.745 Q138.191 505.615 136.362 502.073 Q134.556 498.509 130.922 498.509 M130.922 494.805 Q136.732 494.805 139.788 499.411 Q142.867 503.995 142.867 512.745 Q142.867 521.472 139.788 526.078 Q136.732 530.661 130.922 530.661 Q125.112 530.661 122.033 526.078 Q118.978 521.472 118.978 512.745 Q118.978 503.995 122.033 499.411 Q125.112 494.805 130.922 494.805 Z" fill="#000000" fill-rule="nonzero" fill-opacity="1" /><path clip-path="url(#clip070)" d="M161.084 498.509 Q157.473 498.509 155.644 502.073 Q153.839 505.615 153.839 512.745 Q153.839 519.851 155.644 523.416 Q157.473 526.958 161.084 526.958 Q164.718 526.958 166.524 523.416 Q168.353 519.851 168.353 512.745 Q168.353 505.615 166.524 502.073 Q164.718 498.509 161.084 498.509 M161.084 494.805 Q166.894 494.805 169.95 499.411 Q173.029 503.995 173.029 512.745 Q173.029 521.472 169.95 526.078 Q166.894 530.661 161.084 530.661 Q155.274 530.661 152.195 526.078 Q149.14 521.472 149.14 512.745 Q149.14 503.995 152.195 499.411 Q155.274 494.805 161.084 494.805 Z" fill="#000000" fill-rule="nonzero" fill-opacity="1" /><path clip-path="url(#clip070)" d="M191.246 498.509 Q187.635 498.509 185.806 502.073 Q184.001 505.615 184.001 512.745 Q184.001 519.851 185.806 523.416 Q187.635 526.958 191.246 526.958 Q194.88 526.958 196.686 523.416 Q198.514 519.851 198.514 512.745 Q198.514 505.615 196.686 502.073 Q194.88 498.509 191.246 498.509 M191.246 494.805 Q197.056 494.805 200.112 499.411 Q203.19 503.995 203.19 512.745 Q203.19 521.472 200.112 526.078 Q197.056 530.661 191.246 530.661 Q185.436 530.661 182.357 526.078 Q179.302 521.472 179.302 512.745 Q179.302 503.995 182.357 499.411 Q185.436 494.805 191.246 494.805 Z" fill="#000000" fill-rule="nonzero" fill-opacity="1" /><path clip-path="url(#clip070)" d="M50.9921 301.364 L80.6679 301.364 L80.6679 305.299 L50.9921 305.299 L50.9921 301.364 Z" fill="#000000" fill-rule="nonzero" fill-opacity="1" /><path clip-path="url(#clip070)" d="M91.5706 314.257 L99.2095 314.257 L99.2095 287.891 L90.8993 289.558 L90.8993 285.299 L99.1632 283.632 L103.839 283.632 L103.839 314.257 L111.478 314.257 L111.478 318.192 L91.5706 318.192 L91.5706 314.257 Z" fill="#000000" fill-rule="nonzero" fill-opacity="1" /><path clip-path="url(#clip070)" d="M120.969 283.632 L139.325 283.632 L139.325 287.567 L125.251 287.567 L125.251 296.04 Q126.27 295.692 127.288 295.53 Q128.307 295.345 129.325 295.345 Q135.112 295.345 138.492 298.516 Q141.871 301.688 141.871 307.104 Q141.871 312.683 138.399 315.785 Q134.927 318.864 128.607 318.864 Q126.432 318.864 124.163 318.493 Q121.918 318.123 119.51 317.382 L119.51 312.683 Q121.594 313.817 123.816 314.373 Q126.038 314.928 128.515 314.928 Q132.519 314.928 134.857 312.822 Q137.195 310.715 137.195 307.104 Q137.195 303.493 134.857 301.387 Q132.519 299.28 128.515 299.28 Q126.64 299.28 124.765 299.697 Q122.913 300.114 120.969 300.993 L120.969 283.632 Z" fill="#000000" fill-rule="nonzero" fill-opacity="1" /><path clip-path="url(#clip070)" d="M161.084 286.711 Q157.473 286.711 155.644 290.276 Q153.839 293.817 153.839 300.947 Q153.839 308.053 155.644 311.618 Q157.473 315.16 161.084 315.16 Q164.718 315.16 166.524 311.618 Q168.353 308.053 168.353 300.947 Q168.353 293.817 166.524 290.276 Q164.718 286.711 161.084 286.711 M161.084 283.007 Q166.894 283.007 169.95 287.614 Q173.029 292.197 173.029 300.947 Q173.029 309.674 169.95 314.28 Q166.894 318.864 161.084 318.864 Q155.274 318.864 152.195 314.28 Q149.14 309.674 149.14 300.947 Q149.14 292.197 152.195 287.614 Q155.274 283.007 161.084 283.007 Z" fill="#000000" fill-rule="nonzero" fill-opacity="1" /><path clip-path="url(#clip070)" d="M191.246 286.711 Q187.635 286.711 185.806 290.276 Q184.001 293.817 184.001 300.947 Q184.001 308.053 185.806 311.618 Q187.635 315.16 191.246 315.16 Q194.88 315.16 196.686 311.618 Q198.514 308.053 198.514 300.947 Q198.514 293.817 196.686 290.276 Q194.88 286.711 191.246 286.711 M191.246 283.007 Q197.056 283.007 200.112 287.614 Q203.19 292.197 203.19 300.947 Q203.19 309.674 200.112 314.28 Q197.056 318.864 191.246 318.864 Q185.436 318.864 182.357 314.28 Q179.302 309.674 179.302 300.947 Q179.302 292.197 182.357 287.614 Q185.436 283.007 191.246 283.007 Z" fill="#000000" fill-rule="nonzero" fill-opacity="1" /><path clip-path="url(#clip070)" d="M1017.21 12.096 L1025.39 12.096 L1025.39 65.6895 L1054.84 65.6895 L1054.84 72.576 L1017.21 72.576 L1017.21 12.096 Z" fill="#000000" fill-rule="nonzero" fill-opacity="1" /><path clip-path="url(#clip070)" d="M1079.23 32.4315 Q1073.23 32.4315 1069.75 37.1306 Q1066.27 41.7891 1066.27 49.9314 Q1066.27 58.0738 1069.71 62.7728 Q1073.19 67.4314 1079.23 67.4314 Q1085.18 67.4314 1088.67 62.7323 Q1092.15 58.0333 1092.15 49.9314 Q1092.15 41.8701 1088.67 37.1711 Q1085.18 32.4315 1079.23 32.4315 M1079.23 26.1121 Q1088.95 26.1121 1094.5 32.4315 Q1100.05 38.7509 1100.05 49.9314 Q1100.05 61.0714 1094.5 67.4314 Q1088.95 73.7508 1079.23 73.7508 Q1069.47 73.7508 1063.92 67.4314 Q1058.41 61.0714 1058.41 49.9314 Q1058.41 38.7509 1063.92 32.4315 Q1069.47 26.1121 1079.23 26.1121 Z" fill="#000000" fill-rule="nonzero" fill-opacity="1" /><path clip-path="url(#clip070)" d="M1142.26 49.3643 Q1142.26 41.2625 1138.9 36.8065 Q1135.58 32.3505 1129.54 32.3505 Q1123.55 32.3505 1120.18 36.8065 Q1116.86 41.2625 1116.86 49.3643 Q1116.86 57.4256 1120.18 61.8816 Q1123.55 66.3376 1129.54 66.3376 Q1135.58 66.3376 1138.9 61.8816 Q1142.26 57.4256 1142.26 49.3643 M1149.72 66.9452 Q1149.72 78.5308 1144.57 84.1616 Q1139.43 89.8329 1128.81 89.8329 Q1124.88 89.8329 1121.4 89.2252 Q1117.92 88.6581 1114.63 87.4428 L1114.63 80.1917 Q1117.92 81.9741 1121.12 82.8248 Q1124.32 83.6755 1127.64 83.6755 Q1134.97 83.6755 1138.62 79.8271 Q1142.26 76.0193 1142.26 68.282 L1142.26 64.5957 Q1139.95 68.6061 1136.35 70.5911 Q1132.74 72.576 1127.72 72.576 Q1119.37 72.576 1114.27 66.2161 Q1109.17 59.8562 1109.17 49.3643 Q1109.17 38.832 1114.27 32.472 Q1119.37 26.1121 1127.72 26.1121 Q1132.74 26.1121 1136.35 28.0971 Q1139.95 30.082 1142.26 34.0924 L1142.26 27.2059 L1149.72 27.2059 L1149.72 66.9452 Z" fill="#000000" fill-rule="nonzero" fill-opacity="1" /><path clip-path="url(#clip070)" d="M1161.3 46.5287 L1183.14 46.5287 L1183.14 53.1722 L1161.3 53.1722 L1161.3 46.5287 Z" fill="#000000" fill-rule="nonzero" fill-opacity="1" /><path clip-path="url(#clip070)" d="M1195 9.54393 L1202.46 9.54393 L1202.46 72.576 L1195 72.576 L1195 9.54393 Z" fill="#000000" fill-rule="nonzero" fill-opacity="1" /><path clip-path="url(#clip070)" d="M1218.05 27.2059 L1225.51 27.2059 L1225.51 72.576 L1218.05 72.576 L1218.05 27.2059 M1218.05 9.54393 L1225.51 9.54393 L1225.51 18.9825 L1218.05 18.9825 L1218.05 9.54393 Z" fill="#000000" fill-rule="nonzero" fill-opacity="1" /><path clip-path="url(#clip070)" d="M1240.82 9.54393 L1248.31 9.54393 L1248.31 46.7717 L1270.55 27.2059 L1280.07 27.2059 L1256.01 48.4326 L1281.09 72.576 L1271.36 72.576 L1248.31 50.4176 L1248.31 72.576 L1240.82 72.576 L1240.82 9.54393 Z" fill="#000000" fill-rule="nonzero" fill-opacity="1" /><path clip-path="url(#clip070)" d="M1325 48.0275 L1325 51.6733 L1290.73 51.6733 Q1291.21 59.3701 1295.35 63.421 Q1299.52 67.4314 1306.93 67.4314 Q1311.22 67.4314 1315.24 66.3781 Q1319.29 65.3249 1323.26 63.2184 L1323.26 70.267 Q1319.25 71.9684 1315.03 72.8596 Q1310.82 73.7508 1306.49 73.7508 Q1295.63 73.7508 1289.27 67.4314 Q1282.95 61.1119 1282.95 50.3365 Q1282.95 39.1965 1288.94 32.6746 Q1294.98 26.1121 1305.19 26.1121 Q1314.34 26.1121 1319.65 32.0264 Q1325 37.9003 1325 48.0275 M1317.54 45.84 Q1317.46 39.7232 1314.1 36.0774 Q1310.78 32.4315 1305.27 32.4315 Q1299.03 32.4315 1295.26 35.9558 Q1291.54 39.4801 1290.97 45.8805 L1317.54 45.84 Z" fill="#000000" fill-rule="nonzero" fill-opacity="1" /><path clip-path="url(#clip070)" d="M1337.23 9.54393 L1344.69 9.54393 L1344.69 72.576 L1337.23 72.576 L1337.23 9.54393 Z" fill="#000000" fill-rule="nonzero" fill-opacity="1" /><path clip-path="url(#clip070)" d="M1360.28 27.2059 L1367.73 27.2059 L1367.73 72.576 L1360.28 72.576 L1360.28 27.2059 M1360.28 9.54393 L1367.73 9.54393 L1367.73 18.9825 L1360.28 18.9825 L1360.28 9.54393 Z" fill="#000000" fill-rule="nonzero" fill-opacity="1" /><path clip-path="url(#clip070)" d="M1421.04 45.1919 L1421.04 72.576 L1413.59 72.576 L1413.59 45.4349 Q1413.59 38.994 1411.08 35.7938 Q1408.57 32.5936 1403.54 32.5936 Q1397.51 32.5936 1394.03 36.4419 Q1390.54 40.2903 1390.54 46.9338 L1390.54 72.576 L1383.05 72.576 L1383.05 9.54393 L1390.54 9.54393 L1390.54 34.2544 Q1393.22 30.163 1396.82 28.1376 Q1400.47 26.1121 1405.21 26.1121 Q1413.02 26.1121 1417.03 30.9732 Q1421.04 35.7938 1421.04 45.1919 Z" fill="#000000" fill-rule="nonzero" fill-opacity="1" /><path clip-path="url(#clip070)" d="M1453.49 32.4315 Q1447.5 32.4315 1444.01 37.1306 Q1440.53 41.7891 1440.53 49.9314 Q1440.53 58.0738 1443.97 62.7728 Q1447.46 67.4314 1453.49 67.4314 Q1459.45 67.4314 1462.93 62.7323 Q1466.41 58.0333 1466.41 49.9314 Q1466.41 41.8701 1462.93 37.1711 Q1459.45 32.4315 1453.49 32.4315 M1453.49 26.1121 Q1463.21 26.1121 1468.76 32.4315 Q1474.31 38.7509 1474.31 49.9314 Q1474.31 61.0714 1468.76 67.4314 Q1463.21 73.7508 1453.49 73.7508 Q1443.73 73.7508 1438.18 67.4314 Q1432.67 61.0714 1432.67 49.9314 Q1432.67 38.7509 1438.18 32.4315 Q1443.73 26.1121 1453.49 26.1121 Z" fill="#000000" fill-rule="nonzero" fill-opacity="1" /><path clip-path="url(#clip070)" d="M1504.25 32.4315 Q1498.26 32.4315 1494.77 37.1306 Q1491.29 41.7891 1491.29 49.9314 Q1491.29 58.0738 1494.73 62.7728 Q1498.21 67.4314 1504.25 67.4314 Q1510.21 67.4314 1513.69 62.7323 Q1517.17 58.0333 1517.17 49.9314 Q1517.17 41.8701 1513.69 37.1711 Q1510.21 32.4315 1504.25 32.4315 M1504.25 26.1121 Q1513.97 26.1121 1519.52 32.4315 Q1525.07 38.7509 1525.07 49.9314 Q1525.07 61.0714 1519.52 67.4314 Q1513.97 73.7508 1504.25 73.7508 Q1494.49 73.7508 1488.94 67.4314 Q1483.43 61.0714 1483.43 49.9314 Q1483.43 38.7509 1488.94 32.4315 Q1494.49 26.1121 1504.25 26.1121 Z" fill="#000000" fill-rule="nonzero" fill-opacity="1" /><path clip-path="url(#clip070)" d="M1567.28 34.0924 L1567.28 9.54393 L1574.74 9.54393 L1574.74 72.576 L1567.28 72.576 L1567.28 65.7705 Q1564.93 69.8214 1561.33 71.8063 Q1557.76 73.7508 1552.74 73.7508 Q1544.52 73.7508 1539.33 67.1883 Q1534.19 60.6258 1534.19 49.9314 Q1534.19 39.2371 1539.33 32.6746 Q1544.52 26.1121 1552.74 26.1121 Q1557.76 26.1121 1561.33 28.0971 Q1564.93 30.0415 1567.28 34.0924 M1541.88 49.9314 Q1541.88 58.1548 1545.25 62.8538 Q1548.65 67.5124 1554.56 67.5124 Q1560.48 67.5124 1563.88 62.8538 Q1567.28 58.1548 1567.28 49.9314 Q1567.28 41.7081 1563.88 37.0496 Q1560.48 32.3505 1554.56 32.3505 Q1548.65 32.3505 1545.25 37.0496 Q1541.88 41.7081 1541.88 49.9314 Z" fill="#000000" fill-rule="nonzero" fill-opacity="1" /><polyline clip-path="url(#clip072)" style="stroke:#009af9; stroke-linecap:round; stroke-linejoin:round; stroke-width:4; stroke-opacity:1; fill:none" points="299.008,1374.46 332.804,901.229 366.599,675.349 400.395,532.294 434.19,362.5 467.985,340.702 501.781,326.263 535.576,281.839 569.372,263.66 603.167,247.393 636.962,234.59 670.758,221.483 704.553,207.497 738.349,203.333 772.144,192.083 805.94,181.596 839.735,181.253 873.53,174.283 907.326,171.983 941.121,167.258 974.917,163.79 1008.71,162.435 1042.51,160.439 1076.3,160.393 1110.1,161.007 1143.89,161.584 1177.69,162.928 1211.48,164.967 1245.28,167.511 1279.08,171.565 1312.87,176.905 1346.67,181.202 1380.46,187.671 1414.26,193.872 1448.05,202.893 1481.85,213.495 1515.64,223.096 1549.44,232.371 1583.23,243.905 1617.03,258.121 1650.83,272.232 1684.62,285.917 1718.42,299.053 1752.21,315.079 1786.01,328.92 1819.8,346.376 1853.6,363.36 1887.39,380.473 1921.19,398.736 1954.98,415.279 1988.78,434.054 2022.57,452.339 2056.37,470.698 2090.17,487.12 2123.96,508.31 2157.76,526.631 2191.55,547.279 2225.35,567.707 2259.14,589.646 2292.94,608.07 "/>
<polyline clip-path="url(#clip072)" style="stroke:#0000ff; stroke-linecap:round; stroke-linejoin:round; stroke-width:4; stroke-opacity:1; fill:none" stroke-dasharray="16, 10" points="1076.3,2698.32 1076.3,-1163.95 "/>
<polyline clip-path="url(#clip072)" style="stroke:#ff0000; stroke-linecap:round; stroke-linejoin:round; stroke-width:4; stroke-opacity:1; fill:none" points="299.008,356.902 332.804,337.795 366.599,320.008 400.395,303.476 434.19,288.138 467.985,273.933 501.781,260.804 535.576,248.694 569.372,237.549 603.167,227.316 636.962,217.947 670.758,209.394 704.553,201.615 738.349,194.572 772.144,188.232 805.94,182.566 839.735,177.551 873.53,173.169 907.326,169.409 941.121,166.264 974.917,163.734 1008.71,161.824 1042.51,160.544 1076.3,159.909 1110.1,159.939 1143.89,160.658 1177.69,162.093 1211.48,164.276 1245.28,167.237 1279.08,171.007 1312.87,175.617 1346.67,181.093 1380.46,187.456 1414.26,194.719 1448.05,202.889 1481.85,211.963 1515.64,221.928 1549.44,232.762 1583.23,244.435 1617.03,256.907 1650.83,270.135 1684.62,284.069 1718.42,298.657 1752.21,313.845 1786.01,329.58 1819.8,345.808 1853.6,362.479 1887.39,379.546 1921.19,396.964 1954.98,414.692 1988.78,432.693 2022.57,450.933 2056.37,469.381 2090.17,488.012 2123.96,506.8 2157.76,525.725 2191.55,544.769 2225.35,563.915 2259.14,583.149 2292.94,602.46 "/>
<polyline clip-path="url(#clip072)" style="stroke:#ff0000; stroke-linecap:round; stroke-linejoin:round; stroke-width:4; stroke-opacity:1; fill:none" stroke-dasharray="16, 10" points="1076.3,2698.32 1076.3,-1163.95 "/>
<path clip-path="url(#clip070)" d="M1901.87 321.906 L2282.3 321.906 L2282.3 166.386 L1901.87 166.386  Z" fill="#ffffff" fill-rule="evenodd" fill-opacity="1"/>
<polyline clip-path="url(#clip070)" style="stroke:#000000; stroke-linecap:round; stroke-linejoin:round; stroke-width:4; stroke-opacity:1; fill:none" points="1901.87,321.906 2282.3,321.906 2282.3,166.386 1901.87,166.386 1901.87,321.906 "/>
<polyline clip-path="url(#clip070)" style="stroke:#009af9; stroke-linecap:round; stroke-linejoin:round; stroke-width:4; stroke-opacity:1; fill:none" points="1925.36,218.226 2066.26,218.226 "/>
<path clip-path="url(#clip070)" d="M2094.42 204.789 L2094.42 217.775 L2100.3 217.775 Q2103.57 217.775 2105.35 216.085 Q2107.13 214.395 2107.13 211.27 Q2107.13 208.168 2105.35 206.479 Q2103.57 204.789 2100.3 204.789 L2094.42 204.789 M2089.75 200.946 L2100.3 200.946 Q2106.11 200.946 2109.08 203.585 Q2112.06 206.201 2112.06 211.27 Q2112.06 216.386 2109.08 219.002 Q2106.11 221.617 2100.3 221.617 L2094.42 221.617 L2094.42 235.506 L2089.75 235.506 L2089.75 200.946 Z" fill="#000000" fill-rule="nonzero" fill-opacity="1" /><path clip-path="url(#clip070)" d="M2118.33 200.946 L2138.2 200.946 L2138.2 204.881 L2123.01 204.881 L2123.01 215.067 L2136.71 215.067 L2136.71 219.002 L2123.01 219.002 L2123.01 235.506 L2118.33 235.506 L2118.33 200.946 Z" fill="#000000" fill-rule="nonzero" fill-opacity="1" /><polyline clip-path="url(#clip070)" style="stroke:#ff0000; stroke-linecap:round; stroke-linejoin:round; stroke-width:4; stroke-opacity:1; fill:none" points="1925.36,270.066 2066.26,270.066 "/>
<path clip-path="url(#clip070)" d="M2089.75 252.786 L2094.42 252.786 L2094.42 267.393 L2109.93 252.786 L2115.95 252.786 L2098.8 268.897 L2117.18 287.346 L2111.02 287.346 L2094.42 270.703 L2094.42 287.346 L2089.75 287.346 L2089.75 252.786 Z" fill="#000000" fill-rule="nonzero" fill-opacity="1" /><path clip-path="url(#clip070)" d="M2131.6 274.314 Q2126.44 274.314 2124.45 275.494 Q2122.45 276.675 2122.45 279.522 Q2122.45 281.791 2123.94 283.133 Q2125.44 284.453 2128.01 284.453 Q2131.55 284.453 2133.68 281.953 Q2135.83 279.43 2135.83 275.263 L2135.83 274.314 L2131.6 274.314 M2140.09 272.555 L2140.09 287.346 L2135.83 287.346 L2135.83 283.411 Q2134.38 285.772 2132.2 286.906 Q2130.02 288.018 2126.88 288.018 Q2122.89 288.018 2120.53 285.795 Q2118.2 283.55 2118.2 279.8 Q2118.2 275.425 2121.11 273.203 Q2124.05 270.981 2129.86 270.981 L2135.83 270.981 L2135.83 270.564 Q2135.83 267.624 2133.89 266.027 Q2131.97 264.407 2128.47 264.407 Q2126.25 264.407 2124.14 264.939 Q2122.04 265.471 2120.09 266.536 L2120.09 262.601 Q2122.43 261.698 2124.63 261.258 Q2126.83 260.795 2128.91 260.795 Q2134.54 260.795 2137.32 263.712 Q2140.09 266.629 2140.09 272.555 Z" fill="#000000" fill-rule="nonzero" fill-opacity="1" /><path clip-path="url(#clip070)" d="M2148.87 251.328 L2153.13 251.328 L2153.13 287.346 L2148.87 287.346 L2148.87 251.328 Z" fill="#000000" fill-rule="nonzero" fill-opacity="1" /><path clip-path="url(#clip070)" d="M2182.22 266.397 Q2183.82 263.527 2186.04 262.161 Q2188.26 260.795 2191.27 260.795 Q2195.32 260.795 2197.52 263.643 Q2199.72 266.467 2199.72 271.698 L2199.72 287.346 L2195.44 287.346 L2195.44 271.837 Q2195.44 268.11 2194.12 266.305 Q2192.8 264.499 2190.09 264.499 Q2186.78 264.499 2184.86 266.698 Q2182.94 268.897 2182.94 272.694 L2182.94 287.346 L2178.66 287.346 L2178.66 271.837 Q2178.66 268.087 2177.34 266.305 Q2176.02 264.499 2173.26 264.499 Q2170 264.499 2168.08 266.721 Q2166.16 268.92 2166.16 272.694 L2166.16 287.346 L2161.88 287.346 L2161.88 261.42 L2166.16 261.42 L2166.16 265.448 Q2167.62 263.064 2169.65 261.93 Q2171.69 260.795 2174.49 260.795 Q2177.32 260.795 2179.28 262.231 Q2181.27 263.666 2182.22 266.397 Z" fill="#000000" fill-rule="nonzero" fill-opacity="1" /><path clip-path="url(#clip070)" d="M2220 274.314 Q2214.84 274.314 2212.85 275.494 Q2210.86 276.675 2210.86 279.522 Q2210.86 281.791 2212.34 283.133 Q2213.84 284.453 2216.41 284.453 Q2219.95 284.453 2222.08 281.953 Q2224.24 279.43 2224.24 275.263 L2224.24 274.314 L2220 274.314 M2228.5 272.555 L2228.5 287.346 L2224.24 287.346 L2224.24 283.411 Q2222.78 285.772 2220.6 286.906 Q2218.43 288.018 2215.28 288.018 Q2211.3 288.018 2208.94 285.795 Q2206.6 283.55 2206.6 279.8 Q2206.6 275.425 2209.51 273.203 Q2212.45 270.981 2218.26 270.981 L2224.24 270.981 L2224.24 270.564 Q2224.24 267.624 2222.29 266.027 Q2220.37 264.407 2216.88 264.407 Q2214.65 264.407 2212.55 264.939 Q2210.44 265.471 2208.5 266.536 L2208.5 262.601 Q2210.83 261.698 2213.03 261.258 Q2215.23 260.795 2217.32 260.795 Q2222.94 260.795 2225.72 263.712 Q2228.5 266.629 2228.5 272.555 Z" fill="#000000" fill-rule="nonzero" fill-opacity="1" /><path clip-path="url(#clip070)" d="M2258.82 271.698 L2258.82 287.346 L2254.56 287.346 L2254.56 271.837 Q2254.56 268.157 2253.13 266.328 Q2251.69 264.499 2248.82 264.499 Q2245.37 264.499 2243.38 266.698 Q2241.39 268.897 2241.39 272.694 L2241.39 287.346 L2237.11 287.346 L2237.11 261.42 L2241.39 261.42 L2241.39 265.448 Q2242.92 263.11 2244.98 261.953 Q2247.06 260.795 2249.77 260.795 Q2254.24 260.795 2256.53 263.573 Q2258.82 266.328 2258.82 271.698 Z" fill="#000000" fill-rule="nonzero" fill-opacity="1" /></svg>
