<?xml version="1.0" encoding="utf-8"?>
<svg xmlns="http://www.w3.org/2000/svg" xmlns:xlink="http://www.w3.org/1999/xlink" width="600" height="400" viewBox="0 0 2400 1600">
<defs>
  <clipPath id="clip660">
    <rect x="0" y="0" width="2400" height="1600"/>
  </clipPath>
</defs>
<path clip-path="url(#clip660)" d="M0 1600 L2400 1600 L2400 0 L0 0  Z" fill="#ffffff" fill-rule="evenodd" fill-opacity="1"/>
<defs>
  <clipPath id="clip661">
    <rect x="480" y="0" width="1681" height="1600"/>
  </clipPath>
</defs>
<path clip-path="url(#clip660)" d="M239.19 1410.9 L2352.76 1410.9 L2352.76 123.472 L239.19 123.472  Z" fill="#ffffff" fill-rule="evenodd" fill-opacity="1"/>
<defs>
  <clipPath id="clip662">
    <rect x="239" y="123" width="2115" height="1288"/>
  </clipPath>
</defs>
<polyline clip-path="url(#clip662)" style="stroke:#000000; stroke-linecap:round; stroke-linejoin:round; stroke-width:2; stroke-opacity:0.1; fill:none" points="1096.58,1410.9 1096.58,123.472 "/>
<polyline clip-path="url(#clip662)" style="stroke:#000000; stroke-linecap:round; stroke-linejoin:round; stroke-width:2; stroke-opacity:0.1; fill:none" points="2093.55,1410.9 2093.55,123.472 "/>
<polyline clip-path="url(#clip662)" style="stroke:#000000; stroke-linecap:round; stroke-linejoin:round; stroke-width:2; stroke-opacity:0.1; fill:none" points="239.19,1406.07 2352.76,1406.07 "/>
<polyline clip-path="url(#clip662)" style="stroke:#000000; stroke-linecap:round; stroke-linejoin:round; stroke-width:2; stroke-opacity:0.1; fill:none" points="239.19,1141.8 2352.76,1141.8 "/>
<polyline clip-path="url(#clip662)" style="stroke:#000000; stroke-linecap:round; stroke-linejoin:round; stroke-width:2; stroke-opacity:0.1; fill:none" points="239.19,877.524 2352.76,877.524 "/>
<polyline clip-path="url(#clip662)" style="stroke:#000000; stroke-linecap:round; stroke-linejoin:round; stroke-width:2; stroke-opacity:0.1; fill:none" points="239.19,613.249 2352.76,613.249 "/>
<polyline clip-path="url(#clip662)" style="stroke:#000000; stroke-linecap:round; stroke-linejoin:round; stroke-width:2; stroke-opacity:0.1; fill:none" points="239.19,348.974 2352.76,348.974 "/>
<polyline clip-path="url(#clip660)" style="stroke:#000000; stroke-linecap:round; stroke-linejoin:round; stroke-width:4; stroke-opacity:1; fill:none" points="239.19,1410.9 2352.76,1410.9 "/>
<polyline clip-path="url(#clip660)" style="stroke:#000000; stroke-linecap:round; stroke-linejoin:round; stroke-width:4; stroke-opacity:1; fill:none" points="1096.58,1410.9 1096.58,1392 "/>
<polyline clip-path="url(#clip660)" style="stroke:#000000; stroke-linecap:round; stroke-linejoin:round; stroke-width:4; stroke-opacity:1; fill:none" points="2093.55,1410.9 2093.55,1392 "/>
<path clip-path="url(#clip660)" d="M1061.56 1485.02 L1069.2 1485.02 L1069.2 1458.66 L1060.89 1460.32 L1060.89 1456.06 L1069.16 1454.4 L1073.83 1454.4 L1073.83 1485.02 L1081.47 1485.02 L1081.47 1488.96 L1061.56 1488.96 L1061.56 1485.02 Z" fill="#000000" fill-rule="nonzero" fill-opacity="1" /><path clip-path="url(#clip660)" d="M1100.91 1457.48 Q1097.3 1457.48 1095.47 1461.04 Q1093.67 1464.58 1093.67 1471.71 Q1093.67 1478.82 1095.47 1482.38 Q1097.3 1485.92 1100.91 1485.92 Q1104.55 1485.92 1106.35 1482.38 Q1108.18 1478.82 1108.18 1471.71 Q1108.18 1464.58 1106.35 1461.04 Q1104.55 1457.48 1100.91 1457.48 M1100.91 1453.77 Q1106.72 1453.77 1109.78 1458.38 Q1112.86 1462.96 1112.86 1471.71 Q1112.86 1480.44 1109.78 1485.04 Q1106.72 1489.63 1100.91 1489.63 Q1095.1 1489.63 1092.03 1485.04 Q1088.97 1480.44 1088.97 1471.71 Q1088.97 1462.96 1092.03 1458.38 Q1095.1 1453.77 1100.91 1453.77 Z" fill="#000000" fill-rule="nonzero" fill-opacity="1" /><path clip-path="url(#clip660)" d="M1122.56 1435.97 Q1119.63 1435.97 1118.14 1438.86 Q1116.68 1441.74 1116.68 1447.53 Q1116.68 1453.31 1118.14 1456.2 Q1119.63 1459.08 1122.56 1459.08 Q1125.52 1459.08 1126.98 1456.2 Q1128.47 1453.31 1128.47 1447.53 Q1128.47 1441.74 1126.98 1438.86 Q1125.52 1435.97 1122.56 1435.97 M1122.56 1432.96 Q1127.28 1432.96 1129.77 1436.7 Q1132.27 1440.43 1132.27 1447.53 Q1132.27 1454.62 1129.77 1458.37 Q1127.28 1462.09 1122.56 1462.09 Q1117.84 1462.09 1115.34 1458.37 Q1112.86 1454.62 1112.86 1447.53 Q1112.86 1440.43 1115.34 1436.7 Q1117.84 1432.96 1122.56 1432.96 Z" fill="#000000" fill-rule="nonzero" fill-opacity="1" /><path clip-path="url(#clip660)" d="M2059.87 1485.02 L2067.51 1485.02 L2067.51 1458.66 L2059.2 1460.32 L2059.2 1456.06 L2067.47 1454.4 L2072.14 1454.4 L2072.14 1485.02 L2079.78 1485.02 L2079.78 1488.96 L2059.87 1488.96 L2059.87 1485.02 Z" fill="#000000" fill-rule="nonzero" fill-opacity="1" /><path clip-path="url(#clip660)" d="M2099.22 1457.48 Q2095.61 1457.48 2093.78 1461.04 Q2091.98 1464.58 2091.98 1471.71 Q2091.98 1478.82 2093.78 1482.38 Q2095.61 1485.92 2099.22 1485.92 Q2102.86 1485.92 2104.66 1482.38 Q2106.49 1478.82 2106.49 1471.71 Q2106.49 1464.58 2104.66 1461.04 Q2102.86 1457.48 2099.22 1457.48 M2099.22 1453.77 Q2105.03 1453.77 2108.09 1458.38 Q2111.17 1462.96 2111.17 1471.71 Q2111.17 1480.44 2108.09 1485.04 Q2105.03 1489.63 2099.22 1489.63 Q2093.41 1489.63 2090.34 1485.04 Q2087.28 1480.44 2087.28 1471.71 Q2087.28 1462.96 2090.34 1458.38 Q2093.41 1453.77 2099.22 1453.77 Z" fill="#000000" fill-rule="nonzero" fill-opacity="1" /><path clip-path="url(#clip660)" d="M2111.71 1458.35 L2117.92 1458.35 L2117.92 1436.93 L2111.17 1438.28 L2111.17 1434.82 L2117.88 1433.47 L2121.68 1433.47 L2121.68 1458.35 L2127.89 1458.35 L2127.89 1461.55 L2111.71 1461.55 L2111.71 1458.35 Z" fill="#000000" fill-rule="nonzero" fill-opacity="1" /><path clip-path="url(#clip660)" d="M733.834 1531.95 L733.834 1568.9 L741.6 1568.9 Q751.435 1568.9 755.986 1564.45 Q760.569 1559.99 760.569 1550.38 Q760.569 1540.83 755.986 1536.4 Q751.435 1531.95 741.6 1531.95 L733.834 1531.95 M727.404 1526.67 L740.613 1526.67 Q754.427 1526.67 760.888 1532.43 Q767.349 1538.16 767.349 1550.38 Q767.349 1562.66 760.856 1568.42 Q754.363 1574.19 740.613 1574.19 L727.404 1574.19 L727.404 1526.67 Z" fill="#000000" fill-rule="nonzero" fill-opacity="1" /><path clip-path="url(#clip660)" d="M792.175 1577.5 Q789.693 1583.86 787.337 1585.8 Q784.982 1587.74 781.035 1587.74 L776.356 1587.74 L776.356 1582.84 L779.794 1582.84 Q782.213 1582.84 783.55 1581.7 Q784.886 1580.55 786.51 1576.29 L787.56 1573.61 L773.142 1538.54 L779.348 1538.54 L790.488 1566.42 L801.628 1538.54 L807.835 1538.54 L792.175 1577.5 Z" fill="#000000" fill-rule="nonzero" fill-opacity="1" /><path clip-path="url(#clip660)" d="M845.552 1552.67 L845.552 1574.19 L839.695 1574.19 L839.695 1552.86 Q839.695 1547.8 837.722 1545.29 Q835.748 1542.77 831.802 1542.77 Q827.059 1542.77 824.322 1545.79 Q821.585 1548.82 821.585 1554.04 L821.585 1574.19 L815.696 1574.19 L815.696 1538.54 L821.585 1538.54 L821.585 1544.08 Q823.685 1540.86 826.518 1539.27 Q829.383 1537.68 833.107 1537.68 Q839.25 1537.68 842.401 1541.5 Q845.552 1545.29 845.552 1552.67 Z" fill="#000000" fill-rule="nonzero" fill-opacity="1" /><path clip-path="url(#clip660)" d="M873.433 1556.27 Q866.336 1556.27 863.598 1557.89 Q860.861 1559.51 860.861 1563.43 Q860.861 1566.55 862.898 1568.39 Q864.967 1570.21 868.5 1570.21 Q873.37 1570.21 876.298 1566.77 Q879.258 1563.3 879.258 1557.57 L879.258 1556.27 L873.433 1556.27 M885.115 1553.85 L885.115 1574.19 L879.258 1574.19 L879.258 1568.77 Q877.253 1572.02 874.261 1573.58 Q871.269 1575.11 866.94 1575.11 Q861.466 1575.11 858.219 1572.05 Q855.005 1568.97 855.005 1563.81 Q855.005 1557.79 859.015 1554.74 Q863.057 1551.68 871.046 1551.68 L879.258 1551.68 L879.258 1551.11 Q879.258 1547.07 876.584 1544.87 Q873.943 1542.64 869.137 1542.64 Q866.081 1542.64 863.185 1543.38 Q860.288 1544.11 857.615 1545.57 L857.615 1540.16 Q860.829 1538.92 863.853 1538.31 Q866.877 1537.68 869.741 1537.68 Q877.476 1537.68 881.295 1541.69 Q885.115 1545.7 885.115 1553.85 Z" fill="#000000" fill-rule="nonzero" fill-opacity="1" /><path clip-path="url(#clip660)" d="M924.932 1545.38 Q927.128 1541.43 930.184 1539.56 Q933.239 1537.68 937.377 1537.68 Q942.947 1537.68 945.971 1541.59 Q948.994 1545.48 948.994 1552.67 L948.994 1574.19 L943.106 1574.19 L943.106 1552.86 Q943.106 1547.74 941.292 1545.25 Q939.478 1542.77 935.754 1542.77 Q931.202 1542.77 928.56 1545.79 Q925.919 1548.82 925.919 1554.04 L925.919 1574.19 L920.03 1574.19 L920.03 1552.86 Q920.03 1547.7 918.216 1545.25 Q916.402 1542.77 912.614 1542.77 Q908.127 1542.77 905.485 1545.83 Q902.843 1548.85 902.843 1554.04 L902.843 1574.19 L896.955 1574.19 L896.955 1538.54 L902.843 1538.54 L902.843 1544.08 Q904.848 1540.8 907.649 1539.24 Q910.45 1537.68 914.301 1537.68 Q918.184 1537.68 920.89 1539.65 Q923.627 1541.62 924.932 1545.38 Z" fill="#000000" fill-rule="nonzero" fill-opacity="1" /><path clip-path="url(#clip660)" d="M960.675 1538.54 L966.532 1538.54 L966.532 1574.19 L960.675 1574.19 L960.675 1538.54 M960.675 1524.66 L966.532 1524.66 L966.532 1532.08 L960.675 1532.08 L960.675 1524.66 Z" fill="#000000" fill-rule="nonzero" fill-opacity="1" /><path clip-path="url(#clip660)" d="M1004.44 1539.91 L1004.44 1545.38 Q1001.96 1544.01 999.443 1543.34 Q996.96 1542.64 994.414 1542.64 Q988.716 1542.64 985.565 1546.27 Q982.414 1549.87 982.414 1556.39 Q982.414 1562.92 985.565 1566.55 Q988.716 1570.14 994.414 1570.14 Q996.96 1570.14 999.443 1569.47 Q1001.96 1568.77 1004.44 1567.41 L1004.44 1572.82 Q1001.99 1573.96 999.347 1574.54 Q996.737 1575.11 993.777 1575.11 Q985.725 1575.11 980.982 1570.05 Q976.24 1564.99 976.24 1556.39 Q976.24 1547.67 981.014 1542.68 Q985.82 1537.68 994.159 1537.68 Q996.865 1537.68 999.443 1538.25 Q1002.02 1538.79 1004.44 1539.91 Z" fill="#000000" fill-rule="nonzero" fill-opacity="1" /><path clip-path="url(#clip660)" d="M1037.35 1539.59 L1037.35 1545.13 Q1034.87 1543.85 1032.19 1543.22 Q1029.52 1542.58 1026.66 1542.58 Q1022.3 1542.58 1020.1 1543.92 Q1017.93 1545.25 1017.93 1547.93 Q1017.93 1549.96 1019.49 1551.14 Q1021.05 1552.29 1025.76 1553.34 L1027.77 1553.78 Q1034.01 1555.12 1036.62 1557.57 Q1039.26 1559.99 1039.26 1564.35 Q1039.26 1569.32 1035.31 1572.21 Q1031.4 1575.11 1024.52 1575.11 Q1021.66 1575.11 1018.54 1574.54 Q1015.45 1573.99 1012.01 1572.88 L1012.01 1566.83 Q1015.26 1568.52 1018.41 1569.38 Q1021.56 1570.21 1024.65 1570.21 Q1028.79 1570.21 1031.02 1568.81 Q1033.24 1567.37 1033.24 1564.8 Q1033.24 1562.41 1031.62 1561.14 Q1030.03 1559.86 1024.59 1558.68 L1022.55 1558.21 Q1017.11 1557.06 1014.69 1554.71 Q1012.27 1552.32 1012.27 1548.18 Q1012.27 1543.15 1015.83 1540.42 Q1019.4 1537.68 1025.96 1537.68 Q1029.2 1537.68 1032.07 1538.16 Q1034.93 1538.63 1037.35 1539.59 Z" fill="#000000" fill-rule="nonzero" fill-opacity="1" /><path clip-path="url(#clip660)" d="M1098.94 1552.67 L1098.94 1574.19 L1093.08 1574.19 L1093.08 1552.86 Q1093.08 1547.8 1091.11 1545.29 Q1089.14 1542.77 1085.19 1542.77 Q1080.45 1542.77 1077.71 1545.79 Q1074.97 1548.82 1074.97 1554.04 L1074.97 1574.19 L1069.08 1574.19 L1069.08 1538.54 L1074.97 1538.54 L1074.97 1544.08 Q1077.07 1540.86 1079.91 1539.27 Q1082.77 1537.68 1086.49 1537.68 Q1092.64 1537.68 1095.79 1541.5 Q1098.94 1545.29 1098.94 1552.67 Z" fill="#000000" fill-rule="nonzero" fill-opacity="1" /><path clip-path="url(#clip660)" d="M1124.43 1542.64 Q1119.72 1542.64 1116.99 1546.34 Q1114.25 1550 1114.25 1556.39 Q1114.25 1562.79 1116.95 1566.48 Q1119.69 1570.14 1124.43 1570.14 Q1129.11 1570.14 1131.85 1566.45 Q1134.59 1562.76 1134.59 1556.39 Q1134.59 1550.06 1131.85 1546.37 Q1129.11 1542.64 1124.43 1542.64 M1124.43 1537.68 Q1132.07 1537.68 1136.43 1542.64 Q1140.79 1547.61 1140.79 1556.39 Q1140.79 1565.15 1136.43 1570.14 Q1132.07 1575.11 1124.43 1575.11 Q1116.76 1575.11 1112.4 1570.14 Q1108.07 1565.15 1108.07 1556.39 Q1108.07 1547.61 1112.4 1542.64 Q1116.76 1537.68 1124.43 1537.68 Z" fill="#000000" fill-rule="nonzero" fill-opacity="1" /><path clip-path="url(#clip660)" d="M1150.5 1538.54 L1156.36 1538.54 L1156.36 1574.19 L1150.5 1574.19 L1150.5 1538.54 M1150.5 1524.66 L1156.36 1524.66 L1156.36 1532.08 L1150.5 1532.08 L1150.5 1524.66 Z" fill="#000000" fill-rule="nonzero" fill-opacity="1" /><path clip-path="url(#clip660)" d="M1191.34 1539.59 L1191.34 1545.13 Q1188.85 1543.85 1186.18 1543.22 Q1183.51 1542.58 1180.64 1542.58 Q1176.28 1542.58 1174.09 1543.92 Q1171.92 1545.25 1171.92 1547.93 Q1171.92 1549.96 1173.48 1551.14 Q1175.04 1552.29 1179.75 1553.34 L1181.76 1553.78 Q1187.99 1555.12 1190.6 1557.57 Q1193.25 1559.99 1193.25 1564.35 Q1193.25 1569.32 1189.3 1572.21 Q1185.38 1575.11 1178.51 1575.11 Q1175.65 1575.11 1172.53 1574.54 Q1169.44 1573.99 1166 1572.88 L1166 1566.83 Q1169.25 1568.52 1172.4 1569.38 Q1175.55 1570.21 1178.64 1570.21 Q1182.77 1570.21 1185 1568.81 Q1187.23 1567.37 1187.23 1564.8 Q1187.23 1562.41 1185.61 1561.14 Q1184.02 1559.86 1178.57 1558.68 L1176.54 1558.21 Q1171.09 1557.06 1168.67 1554.71 Q1166.26 1552.32 1166.26 1548.18 Q1166.26 1543.15 1169.82 1540.42 Q1173.39 1537.68 1179.94 1537.68 Q1183.19 1537.68 1186.05 1538.16 Q1188.92 1538.63 1191.34 1539.59 Z" fill="#000000" fill-rule="nonzero" fill-opacity="1" /><path clip-path="url(#clip660)" d="M1233.06 1554.9 L1233.06 1557.76 L1206.14 1557.76 Q1206.52 1563.81 1209.77 1566.99 Q1213.04 1570.14 1218.87 1570.14 Q1222.24 1570.14 1225.39 1569.32 Q1228.58 1568.49 1231.7 1566.83 L1231.7 1572.37 Q1228.54 1573.71 1225.23 1574.41 Q1221.92 1575.11 1218.52 1575.11 Q1209.99 1575.11 1204.99 1570.14 Q1200.03 1565.18 1200.03 1556.71 Q1200.03 1547.96 1204.74 1542.83 Q1209.48 1537.68 1217.5 1537.68 Q1224.69 1537.68 1228.86 1542.33 Q1233.06 1546.94 1233.06 1554.9 M1227.21 1553.18 Q1227.14 1548.37 1224.5 1545.51 Q1221.89 1542.64 1217.56 1542.64 Q1212.66 1542.64 1209.7 1545.41 Q1206.77 1548.18 1206.33 1553.21 L1227.21 1553.18 Z" fill="#000000" fill-rule="nonzero" fill-opacity="1" /><path clip-path="url(#clip660)" d="M1286.12 1539.59 L1286.12 1545.13 Q1283.64 1543.85 1280.97 1543.22 Q1278.29 1542.58 1275.43 1542.58 Q1271.07 1542.58 1268.87 1543.92 Q1266.71 1545.25 1266.71 1547.93 Q1266.71 1549.96 1268.27 1551.14 Q1269.83 1552.29 1274.54 1553.34 L1276.54 1553.78 Q1282.78 1555.12 1285.39 1557.57 Q1288.03 1559.99 1288.03 1564.35 Q1288.03 1569.32 1284.09 1572.21 Q1280.17 1575.11 1273.3 1575.11 Q1270.43 1575.11 1267.31 1574.54 Q1264.22 1573.99 1260.79 1572.88 L1260.79 1566.83 Q1264.03 1568.52 1267.18 1569.38 Q1270.34 1570.21 1273.42 1570.21 Q1277.56 1570.21 1279.79 1568.81 Q1282.02 1567.37 1282.02 1564.8 Q1282.02 1562.41 1280.39 1561.14 Q1278.8 1559.86 1273.36 1558.68 L1271.32 1558.21 Q1265.88 1557.06 1263.46 1554.71 Q1261.04 1552.32 1261.04 1548.18 Q1261.04 1543.15 1264.61 1540.42 Q1268.17 1537.68 1274.73 1537.68 Q1277.97 1537.68 1280.84 1538.16 Q1283.7 1538.63 1286.12 1539.59 Z" fill="#000000" fill-rule="nonzero" fill-opacity="1" /><path clip-path="url(#clip660)" d="M1303.15 1528.42 L1303.15 1538.54 L1315.21 1538.54 L1315.21 1543.09 L1303.15 1543.09 L1303.15 1562.44 Q1303.15 1566.8 1304.33 1568.04 Q1305.54 1569.28 1309.2 1569.28 L1315.21 1569.28 L1315.21 1574.19 L1309.2 1574.19 Q1302.42 1574.19 1299.84 1571.67 Q1297.26 1569.12 1297.26 1562.44 L1297.26 1543.09 L1292.97 1543.09 L1292.97 1538.54 L1297.26 1538.54 L1297.26 1528.42 L1303.15 1528.42 Z" fill="#000000" fill-rule="nonzero" fill-opacity="1" /><path clip-path="url(#clip660)" d="M1339.12 1556.27 Q1332.02 1556.27 1329.28 1557.89 Q1326.54 1559.51 1326.54 1563.43 Q1326.54 1566.55 1328.58 1568.39 Q1330.65 1570.21 1334.18 1570.21 Q1339.05 1570.21 1341.98 1566.77 Q1344.94 1563.3 1344.94 1557.57 L1344.94 1556.27 L1339.12 1556.27 M1350.8 1553.85 L1350.8 1574.19 L1344.94 1574.19 L1344.94 1568.77 Q1342.94 1572.02 1339.94 1573.58 Q1336.95 1575.11 1332.62 1575.11 Q1327.15 1575.11 1323.9 1572.05 Q1320.69 1568.97 1320.69 1563.81 Q1320.69 1557.79 1324.7 1554.74 Q1328.74 1551.68 1336.73 1551.68 L1344.94 1551.68 L1344.94 1551.11 Q1344.94 1547.07 1342.27 1544.87 Q1339.63 1542.64 1334.82 1542.64 Q1331.76 1542.64 1328.87 1543.38 Q1325.97 1544.11 1323.3 1545.57 L1323.3 1540.16 Q1326.51 1538.92 1329.54 1538.31 Q1332.56 1537.68 1335.42 1537.68 Q1343.16 1537.68 1346.98 1541.69 Q1350.8 1545.7 1350.8 1553.85 Z" fill="#000000" fill-rule="nonzero" fill-opacity="1" /><path clip-path="url(#clip660)" d="M1392.49 1552.67 L1392.49 1574.19 L1386.64 1574.19 L1386.64 1552.86 Q1386.64 1547.8 1384.66 1545.29 Q1382.69 1542.77 1378.74 1542.77 Q1374 1542.77 1371.26 1545.79 Q1368.53 1548.82 1368.53 1554.04 L1368.53 1574.19 L1362.64 1574.19 L1362.64 1538.54 L1368.53 1538.54 L1368.53 1544.08 Q1370.63 1540.86 1373.46 1539.27 Q1376.32 1537.68 1380.05 1537.68 Q1386.19 1537.68 1389.34 1541.5 Q1392.49 1545.29 1392.49 1552.67 Z" fill="#000000" fill-rule="nonzero" fill-opacity="1" /><path clip-path="url(#clip660)" d="M1427.63 1543.95 L1427.63 1524.66 L1433.49 1524.66 L1433.49 1574.19 L1427.63 1574.19 L1427.63 1568.84 Q1425.79 1572.02 1422.95 1573.58 Q1420.15 1575.11 1416.21 1575.11 Q1409.74 1575.11 1405.67 1569.95 Q1401.63 1564.8 1401.63 1556.39 Q1401.63 1547.99 1405.67 1542.83 Q1409.74 1537.68 1416.21 1537.68 Q1420.15 1537.68 1422.95 1539.24 Q1425.79 1540.77 1427.63 1543.95 M1407.68 1556.39 Q1407.68 1562.85 1410.32 1566.55 Q1412.99 1570.21 1417.64 1570.21 Q1422.28 1570.21 1424.96 1566.55 Q1427.63 1562.85 1427.63 1556.39 Q1427.63 1549.93 1424.96 1546.27 Q1422.28 1542.58 1417.64 1542.58 Q1412.99 1542.58 1410.32 1546.27 Q1407.68 1549.93 1407.68 1556.39 Z" fill="#000000" fill-rule="nonzero" fill-opacity="1" /><path clip-path="url(#clip660)" d="M1461.75 1556.27 Q1454.65 1556.27 1451.92 1557.89 Q1449.18 1559.51 1449.18 1563.43 Q1449.18 1566.55 1451.22 1568.39 Q1453.29 1570.21 1456.82 1570.21 Q1461.69 1570.21 1464.62 1566.77 Q1467.58 1563.3 1467.58 1557.57 L1467.58 1556.27 L1461.75 1556.27 M1473.43 1553.85 L1473.43 1574.19 L1467.58 1574.19 L1467.58 1568.77 Q1465.57 1572.02 1462.58 1573.58 Q1459.59 1575.11 1455.26 1575.11 Q1449.78 1575.11 1446.54 1572.05 Q1443.32 1568.97 1443.32 1563.81 Q1443.32 1557.79 1447.33 1554.74 Q1451.38 1551.68 1459.36 1551.68 L1467.58 1551.68 L1467.58 1551.11 Q1467.58 1547.07 1464.9 1544.87 Q1462.26 1542.64 1457.46 1542.64 Q1454.4 1542.64 1451.5 1543.38 Q1448.61 1544.11 1445.93 1545.57 L1445.93 1540.16 Q1449.15 1538.92 1452.17 1538.31 Q1455.2 1537.68 1458.06 1537.68 Q1465.79 1537.68 1469.61 1541.69 Q1473.43 1545.7 1473.43 1553.85 Z" fill="#000000" fill-rule="nonzero" fill-opacity="1" /><path clip-path="url(#clip660)" d="M1506.15 1544.01 Q1505.17 1543.44 1503.99 1543.18 Q1502.84 1542.9 1501.44 1542.9 Q1496.48 1542.9 1493.8 1546.14 Q1491.16 1549.36 1491.16 1555.41 L1491.16 1574.19 L1485.27 1574.19 L1485.27 1538.54 L1491.16 1538.54 L1491.16 1544.08 Q1493.01 1540.83 1495.97 1539.27 Q1498.93 1537.68 1503.16 1537.68 Q1503.77 1537.68 1504.5 1537.77 Q1505.23 1537.84 1506.12 1538 L1506.15 1544.01 Z" fill="#000000" fill-rule="nonzero" fill-opacity="1" /><path clip-path="url(#clip660)" d="M1534.61 1543.95 L1534.61 1524.66 L1540.46 1524.66 L1540.46 1574.19 L1534.61 1574.19 L1534.61 1568.84 Q1532.76 1572.02 1529.93 1573.58 Q1527.13 1575.11 1523.18 1575.11 Q1516.72 1575.11 1512.65 1569.95 Q1508.6 1564.8 1508.6 1556.39 Q1508.6 1547.99 1512.65 1542.83 Q1516.72 1537.68 1523.18 1537.68 Q1527.13 1537.68 1529.93 1539.24 Q1532.76 1540.77 1534.61 1543.95 M1514.65 1556.39 Q1514.65 1562.85 1517.29 1566.55 Q1519.97 1570.21 1524.61 1570.21 Q1529.26 1570.21 1531.93 1566.55 Q1534.61 1562.85 1534.61 1556.39 Q1534.61 1549.93 1531.93 1546.27 Q1529.26 1542.58 1524.61 1542.58 Q1519.97 1542.58 1517.29 1546.27 Q1514.65 1549.93 1514.65 1556.39 Z" fill="#000000" fill-rule="nonzero" fill-opacity="1" /><path clip-path="url(#clip660)" d="M1596.71 1543.95 L1596.71 1524.66 L1602.56 1524.66 L1602.56 1574.19 L1596.71 1574.19 L1596.71 1568.84 Q1594.86 1572.02 1592.03 1573.58 Q1589.23 1575.11 1585.28 1575.11 Q1578.82 1575.11 1574.74 1569.95 Q1570.7 1564.8 1570.7 1556.39 Q1570.7 1547.99 1574.74 1542.83 Q1578.82 1537.68 1585.28 1537.68 Q1589.23 1537.68 1592.03 1539.24 Q1594.86 1540.77 1596.71 1543.95 M1576.75 1556.39 Q1576.75 1562.85 1579.39 1566.55 Q1582.06 1570.21 1586.71 1570.21 Q1591.36 1570.21 1594.03 1566.55 Q1596.71 1562.85 1596.71 1556.39 Q1596.71 1549.93 1594.03 1546.27 Q1591.36 1542.58 1586.71 1542.58 Q1582.06 1542.58 1579.39 1546.27 Q1576.75 1549.93 1576.75 1556.39 Z" fill="#000000" fill-rule="nonzero" fill-opacity="1" /><path clip-path="url(#clip660)" d="M1645.12 1554.9 L1645.12 1557.76 L1618.19 1557.76 Q1618.57 1563.81 1621.82 1566.99 Q1625.1 1570.14 1630.92 1570.14 Q1634.29 1570.14 1637.45 1569.32 Q1640.63 1568.49 1643.75 1566.83 L1643.75 1572.37 Q1640.6 1573.71 1637.29 1574.41 Q1633.98 1575.11 1630.57 1575.11 Q1622.04 1575.11 1617.04 1570.14 Q1612.08 1565.18 1612.08 1556.71 Q1612.08 1547.96 1616.79 1542.83 Q1621.53 1537.68 1629.55 1537.68 Q1636.75 1537.68 1640.91 1542.33 Q1645.12 1546.94 1645.12 1554.9 M1639.26 1553.18 Q1639.2 1548.37 1636.55 1545.51 Q1633.94 1542.64 1629.62 1542.64 Q1624.71 1542.64 1621.75 1545.41 Q1618.83 1548.18 1618.38 1553.21 L1639.26 1553.18 Z" fill="#000000" fill-rule="nonzero" fill-opacity="1" /><path clip-path="url(#clip660)" d="M1650.53 1538.54 L1656.73 1538.54 L1667.87 1568.46 L1679.01 1538.54 L1685.22 1538.54 L1671.85 1574.19 L1663.9 1574.19 L1650.53 1538.54 Z" fill="#000000" fill-rule="nonzero" fill-opacity="1" /><path clip-path="url(#clip660)" d="M1693.3 1538.54 L1699.16 1538.54 L1699.16 1574.19 L1693.3 1574.19 L1693.3 1538.54 M1693.3 1524.66 L1699.16 1524.66 L1699.16 1532.08 L1693.3 1532.08 L1693.3 1524.66 Z" fill="#000000" fill-rule="nonzero" fill-opacity="1" /><path clip-path="url(#clip660)" d="M1727.62 1556.27 Q1720.52 1556.27 1717.78 1557.89 Q1715.04 1559.51 1715.04 1563.43 Q1715.04 1566.55 1717.08 1568.39 Q1719.15 1570.21 1722.68 1570.21 Q1727.55 1570.21 1730.48 1566.77 Q1733.44 1563.3 1733.44 1557.57 L1733.44 1556.27 L1727.62 1556.27 M1739.3 1553.85 L1739.3 1574.19 L1733.44 1574.19 L1733.44 1568.77 Q1731.44 1572.02 1728.44 1573.58 Q1725.45 1575.11 1721.12 1575.11 Q1715.65 1575.11 1712.4 1572.05 Q1709.19 1568.97 1709.19 1563.81 Q1709.19 1557.79 1713.2 1554.74 Q1717.24 1551.68 1725.23 1551.68 L1733.44 1551.68 L1733.44 1551.11 Q1733.44 1547.07 1730.77 1544.87 Q1728.13 1542.64 1723.32 1542.64 Q1720.26 1542.64 1717.37 1543.38 Q1714.47 1544.11 1711.8 1545.57 L1711.8 1540.16 Q1715.01 1538.92 1718.04 1538.31 Q1721.06 1537.68 1723.92 1537.68 Q1731.66 1537.68 1735.48 1541.69 Q1739.3 1545.7 1739.3 1553.85 Z" fill="#000000" fill-rule="nonzero" fill-opacity="1" /><path clip-path="url(#clip660)" d="M1757.15 1528.42 L1757.15 1538.54 L1769.22 1538.54 L1769.22 1543.09 L1757.15 1543.09 L1757.15 1562.44 Q1757.15 1566.8 1758.33 1568.04 Q1759.54 1569.28 1763.2 1569.28 L1769.22 1569.28 L1769.22 1574.19 L1763.2 1574.19 Q1756.42 1574.19 1753.84 1571.67 Q1751.26 1569.12 1751.26 1562.44 L1751.26 1543.09 L1746.97 1543.09 L1746.97 1538.54 L1751.26 1538.54 L1751.26 1528.42 L1757.15 1528.42 Z" fill="#000000" fill-rule="nonzero" fill-opacity="1" /><path clip-path="url(#clip660)" d="M1776.92 1538.54 L1782.77 1538.54 L1782.77 1574.19 L1776.92 1574.19 L1776.92 1538.54 M1776.92 1524.66 L1782.77 1524.66 L1782.77 1532.08 L1776.92 1532.08 L1776.92 1524.66 Z" fill="#000000" fill-rule="nonzero" fill-opacity="1" /><path clip-path="url(#clip660)" d="M1808.84 1542.64 Q1804.13 1542.64 1801.39 1546.34 Q1798.66 1550 1798.66 1556.39 Q1798.66 1562.79 1801.36 1566.48 Q1804.1 1570.14 1808.84 1570.14 Q1813.52 1570.14 1816.26 1566.45 Q1819 1562.76 1819 1556.39 Q1819 1550.06 1816.26 1546.37 Q1813.52 1542.64 1808.84 1542.64 M1808.84 1537.68 Q1816.48 1537.68 1820.84 1542.64 Q1825.2 1547.61 1825.2 1556.39 Q1825.2 1565.15 1820.84 1570.14 Q1816.48 1575.11 1808.84 1575.11 Q1801.17 1575.11 1796.81 1570.14 Q1792.48 1565.15 1792.48 1556.39 Q1792.48 1547.61 1796.81 1542.64 Q1801.17 1537.68 1808.84 1537.68 Z" fill="#000000" fill-rule="nonzero" fill-opacity="1" /><path clip-path="url(#clip660)" d="M1864.54 1552.67 L1864.54 1574.19 L1858.69 1574.19 L1858.69 1552.86 Q1858.69 1547.8 1856.71 1545.29 Q1854.74 1542.77 1850.79 1542.77 Q1846.05 1542.77 1843.31 1545.79 Q1840.58 1548.82 1840.58 1554.04 L1840.58 1574.19 L1834.69 1574.19 L1834.69 1538.54 L1840.58 1538.54 L1840.58 1544.08 Q1842.68 1540.86 1845.51 1539.27 Q1848.37 1537.68 1852.1 1537.68 Q1858.24 1537.68 1861.39 1541.5 Q1864.54 1545.29 1864.54 1552.67 Z" fill="#000000" fill-rule="nonzero" fill-opacity="1" /><polyline clip-path="url(#clip660)" style="stroke:#000000; stroke-linecap:round; stroke-linejoin:round; stroke-width:4; stroke-opacity:1; fill:none" points="239.19,1410.9 239.19,123.472 "/>
<polyline clip-path="url(#clip660)" style="stroke:#000000; stroke-linecap:round; stroke-linejoin:round; stroke-width:4; stroke-opacity:1; fill:none" points="239.19,1406.07 258.088,1406.07 "/>
<polyline clip-path="url(#clip660)" style="stroke:#000000; stroke-linecap:round; stroke-linejoin:round; stroke-width:4; stroke-opacity:1; fill:none" points="239.19,1141.8 258.088,1141.8 "/>
<polyline clip-path="url(#clip660)" style="stroke:#000000; stroke-linecap:round; stroke-linejoin:round; stroke-width:4; stroke-opacity:1; fill:none" points="239.19,877.524 258.088,877.524 "/>
<polyline clip-path="url(#clip660)" style="stroke:#000000; stroke-linecap:round; stroke-linejoin:round; stroke-width:4; stroke-opacity:1; fill:none" points="239.19,613.249 258.088,613.249 "/>
<polyline clip-path="url(#clip660)" style="stroke:#000000; stroke-linecap:round; stroke-linejoin:round; stroke-width:4; stroke-opacity:1; fill:none" points="239.19,348.974 258.088,348.974 "/>
<path clip-path="url(#clip660)" d="M50.9921 1406.53 L80.6679 1406.53 L80.6679 1410.46 L50.9921 1410.46 L50.9921 1406.53 Z" fill="#000000" fill-rule="nonzero" fill-opacity="1" /><path clip-path="url(#clip660)" d="M104.927 1404.72 Q108.283 1405.44 110.158 1407.71 Q112.057 1409.97 112.057 1413.31 Q112.057 1418.42 108.538 1421.22 Q105.02 1424.03 98.5382 1424.03 Q96.3623 1424.03 94.0475 1423.59 Q91.7558 1423.17 89.3021 1422.31 L89.3021 1417.8 Q91.2465 1418.93 93.5613 1419.51 Q95.8761 1420.09 98.3993 1420.09 Q102.797 1420.09 105.089 1418.35 Q107.404 1416.62 107.404 1413.31 Q107.404 1410.25 105.251 1408.54 Q103.121 1406.8 99.3021 1406.8 L95.2743 1406.8 L95.2743 1402.96 L99.4872 1402.96 Q102.936 1402.96 104.765 1401.6 Q106.594 1400.21 106.594 1397.61 Q106.594 1394.95 104.696 1393.54 Q102.821 1392.1 99.3021 1392.1 Q97.3808 1392.1 95.1817 1392.52 Q92.9826 1392.94 90.3438 1393.82 L90.3438 1389.65 Q93.0058 1388.91 95.3206 1388.54 Q97.6585 1388.17 99.7187 1388.17 Q105.043 1388.17 108.145 1390.6 Q111.246 1393.01 111.246 1397.13 Q111.246 1400 109.603 1401.99 Q107.959 1403.96 104.927 1404.72 Z" fill="#000000" fill-rule="nonzero" fill-opacity="1" /><path clip-path="url(#clip660)" d="M120.969 1388.79 L139.325 1388.79 L139.325 1392.73 L125.251 1392.73 L125.251 1401.2 Q126.27 1400.85 127.288 1400.69 Q128.307 1400.51 129.325 1400.51 Q135.112 1400.51 138.492 1403.68 Q141.871 1406.85 141.871 1412.27 Q141.871 1417.85 138.399 1420.95 Q134.927 1424.03 128.607 1424.03 Q126.432 1424.03 124.163 1423.66 Q121.918 1423.28 119.51 1422.54 L119.51 1417.85 Q121.594 1418.98 123.816 1419.53 Q126.038 1420.09 128.515 1420.09 Q132.519 1420.09 134.857 1417.98 Q137.195 1415.88 137.195 1412.27 Q137.195 1408.66 134.857 1406.55 Q132.519 1404.44 128.515 1404.44 Q126.64 1404.44 124.765 1404.86 Q122.913 1405.28 120.969 1406.16 L120.969 1388.79 Z" fill="#000000" fill-rule="nonzero" fill-opacity="1" /><path clip-path="url(#clip660)" d="M161.084 1391.87 Q157.473 1391.87 155.644 1395.44 Q153.839 1398.98 153.839 1406.11 Q153.839 1413.22 155.644 1416.78 Q157.473 1420.32 161.084 1420.32 Q164.718 1420.32 166.524 1416.78 Q168.353 1413.22 168.353 1406.11 Q168.353 1398.98 166.524 1395.44 Q164.718 1391.87 161.084 1391.87 M161.084 1388.17 Q166.894 1388.17 169.95 1392.78 Q173.029 1397.36 173.029 1406.11 Q173.029 1414.84 169.95 1419.44 Q166.894 1424.03 161.084 1424.03 Q155.274 1424.03 152.195 1419.44 Q149.14 1414.84 149.14 1406.11 Q149.14 1397.36 152.195 1392.78 Q155.274 1388.17 161.084 1388.17 Z" fill="#000000" fill-rule="nonzero" fill-opacity="1" /><path clip-path="url(#clip660)" d="M191.246 1391.87 Q187.635 1391.87 185.806 1395.44 Q184.001 1398.98 184.001 1406.11 Q184.001 1413.22 185.806 1416.78 Q187.635 1420.32 191.246 1420.32 Q194.88 1420.32 196.686 1416.78 Q198.514 1413.22 198.514 1406.11 Q198.514 1398.98 196.686 1395.44 Q194.88 1391.87 191.246 1391.87 M191.246 1388.17 Q197.056 1388.17 200.112 1392.78 Q203.19 1397.36 203.19 1406.11 Q203.19 1414.84 200.112 1419.44 Q197.056 1424.03 191.246 1424.03 Q185.436 1424.03 182.357 1419.44 Q179.302 1414.84 179.302 1406.11 Q179.302 1397.36 182.357 1392.78 Q185.436 1388.17 191.246 1388.17 Z" fill="#000000" fill-rule="nonzero" fill-opacity="1" /><path clip-path="url(#clip660)" d="M50.9921 1142.25 L80.6679 1142.25 L80.6679 1146.19 L50.9921 1146.19 L50.9921 1142.25 Z" fill="#000000" fill-rule="nonzero" fill-opacity="1" /><path clip-path="url(#clip660)" d="M104.927 1140.45 Q108.283 1141.16 110.158 1143.43 Q112.057 1145.7 112.057 1149.03 Q112.057 1154.15 108.538 1156.95 Q105.02 1159.75 98.5382 1159.75 Q96.3623 1159.75 94.0475 1159.31 Q91.7558 1158.89 89.3021 1158.04 L89.3021 1153.52 Q91.2465 1154.66 93.5613 1155.24 Q95.8761 1155.82 98.3993 1155.82 Q102.797 1155.82 105.089 1154.08 Q107.404 1152.34 107.404 1149.03 Q107.404 1145.98 105.251 1144.26 Q103.121 1142.53 99.3021 1142.53 L95.2743 1142.53 L95.2743 1138.69 L99.4872 1138.69 Q102.936 1138.69 104.765 1137.32 Q106.594 1135.93 106.594 1133.34 Q106.594 1130.68 104.696 1129.26 Q102.821 1127.83 99.3021 1127.83 Q97.3808 1127.83 95.1817 1128.25 Q92.9826 1128.66 90.3438 1129.54 L90.3438 1125.38 Q93.0058 1124.64 95.3206 1124.26 Q97.6585 1123.89 99.7187 1123.89 Q105.043 1123.89 108.145 1126.32 Q111.246 1128.73 111.246 1132.85 Q111.246 1135.72 109.603 1137.71 Q107.959 1139.68 104.927 1140.45 Z" fill="#000000" fill-rule="nonzero" fill-opacity="1" /><path clip-path="url(#clip660)" d="M130.922 1127.6 Q127.311 1127.6 125.482 1131.16 Q123.677 1134.7 123.677 1141.83 Q123.677 1148.94 125.482 1152.51 Q127.311 1156.05 130.922 1156.05 Q134.556 1156.05 136.362 1152.51 Q138.191 1148.94 138.191 1141.83 Q138.191 1134.7 136.362 1131.16 Q134.556 1127.6 130.922 1127.6 M130.922 1123.89 Q136.732 1123.89 139.788 1128.5 Q142.867 1133.08 142.867 1141.83 Q142.867 1150.56 139.788 1155.17 Q136.732 1159.75 130.922 1159.75 Q125.112 1159.75 122.033 1155.17 Q118.978 1150.56 118.978 1141.83 Q118.978 1133.08 122.033 1128.5 Q125.112 1123.89 130.922 1123.89 Z" fill="#000000" fill-rule="nonzero" fill-opacity="1" /><path clip-path="url(#clip660)" d="M161.084 1127.6 Q157.473 1127.6 155.644 1131.16 Q153.839 1134.7 153.839 1141.83 Q153.839 1148.94 155.644 1152.51 Q157.473 1156.05 161.084 1156.05 Q164.718 1156.05 166.524 1152.51 Q168.353 1148.94 168.353 1141.83 Q168.353 1134.7 166.524 1131.16 Q164.718 1127.6 161.084 1127.6 M161.084 1123.89 Q166.894 1123.89 169.95 1128.5 Q173.029 1133.08 173.029 1141.83 Q173.029 1150.56 169.95 1155.17 Q166.894 1159.75 161.084 1159.75 Q155.274 1159.75 152.195 1155.17 Q149.14 1150.56 149.14 1141.83 Q149.14 1133.08 152.195 1128.5 Q155.274 1123.89 161.084 1123.89 Z" fill="#000000" fill-rule="nonzero" fill-opacity="1" /><path clip-path="url(#clip660)" d="M191.246 1127.6 Q187.635 1127.6 185.806 1131.16 Q184.001 1134.7 184.001 1141.83 Q184.001 1148.94 185.806 1152.51 Q187.635 1156.05 191.246 1156.05 Q194.88 1156.05 196.686 1152.51 Q198.514 1148.94 198.514 1141.83 Q198.514 1134.7 196.686 1131.16 Q194.88 1127.6 191.246 1127.6 M191.246 1123.89 Q197.056 1123.89 200.112 1128.5 Q203.19 1133.08 203.19 1141.83 Q203.19 1150.56 200.112 1155.17 Q197.056 1159.75 191.246 1159.75 Q185.436 1159.75 182.357 1155.17 Q179.302 1150.56 179.302 1141.83 Q179.302 1133.08 182.357 1128.5 Q185.436 1123.89 191.246 1123.89 Z" fill="#000000" fill-rule="nonzero" fill-opacity="1" /><path clip-path="url(#clip660)" d="M50.9921 877.976 L80.6679 877.976 L80.6679 881.911 L50.9921 881.911 L50.9921 877.976 Z" fill="#000000" fill-rule="nonzero" fill-opacity="1" /><path clip-path="url(#clip660)" d="M94.7882 890.869 L111.108 890.869 L111.108 894.804 L89.1632 894.804 L89.1632 890.869 Q91.8252 888.115 96.4085 883.485 Q101.015 878.832 102.196 877.49 Q104.441 874.967 105.321 873.23 Q106.223 871.471 106.223 869.781 Q106.223 867.027 104.279 865.291 Q102.358 863.555 99.2558 863.555 Q97.0567 863.555 94.603 864.318 Q92.1725 865.082 89.3947 866.633 L89.3947 861.911 Q92.2188 860.777 94.6724 860.198 Q97.1261 859.619 99.1632 859.619 Q104.534 859.619 107.728 862.305 Q110.922 864.99 110.922 869.48 Q110.922 871.61 110.112 873.531 Q109.325 875.43 107.219 878.022 Q106.64 878.693 103.538 881.911 Q100.436 885.105 94.7882 890.869 Z" fill="#000000" fill-rule="nonzero" fill-opacity="1" /><path clip-path="url(#clip660)" d="M120.969 860.244 L139.325 860.244 L139.325 864.18 L125.251 864.18 L125.251 872.652 Q126.27 872.305 127.288 872.143 Q128.307 871.957 129.325 871.957 Q135.112 871.957 138.492 875.129 Q141.871 878.3 141.871 883.717 Q141.871 889.295 138.399 892.397 Q134.927 895.476 128.607 895.476 Q126.432 895.476 124.163 895.105 Q121.918 894.735 119.51 893.994 L119.51 889.295 Q121.594 890.429 123.816 890.985 Q126.038 891.541 128.515 891.541 Q132.519 891.541 134.857 889.434 Q137.195 887.328 137.195 883.717 Q137.195 880.105 134.857 877.999 Q132.519 875.893 128.515 875.893 Q126.64 875.893 124.765 876.309 Q122.913 876.726 120.969 877.605 L120.969 860.244 Z" fill="#000000" fill-rule="nonzero" fill-opacity="1" /><path clip-path="url(#clip660)" d="M161.084 863.323 Q157.473 863.323 155.644 866.888 Q153.839 870.43 153.839 877.559 Q153.839 884.666 155.644 888.23 Q157.473 891.772 161.084 891.772 Q164.718 891.772 166.524 888.23 Q168.353 884.666 168.353 877.559 Q168.353 870.43 166.524 866.888 Q164.718 863.323 161.084 863.323 M161.084 859.619 Q166.894 859.619 169.95 864.226 Q173.029 868.809 173.029 877.559 Q173.029 886.286 169.95 890.892 Q166.894 895.476 161.084 895.476 Q155.274 895.476 152.195 890.892 Q149.14 886.286 149.14 877.559 Q149.14 868.809 152.195 864.226 Q155.274 859.619 161.084 859.619 Z" fill="#000000" fill-rule="nonzero" fill-opacity="1" /><path clip-path="url(#clip660)" d="M191.246 863.323 Q187.635 863.323 185.806 866.888 Q184.001 870.43 184.001 877.559 Q184.001 884.666 185.806 888.23 Q187.635 891.772 191.246 891.772 Q194.88 891.772 196.686 888.23 Q198.514 884.666 198.514 877.559 Q198.514 870.43 196.686 866.888 Q194.88 863.323 191.246 863.323 M191.246 859.619 Q197.056 859.619 200.112 864.226 Q203.19 868.809 203.19 877.559 Q203.19 886.286 200.112 890.892 Q197.056 895.476 191.246 895.476 Q185.436 895.476 182.357 890.892 Q179.302 886.286 179.302 877.559 Q179.302 868.809 182.357 864.226 Q185.436 859.619 191.246 859.619 Z" fill="#000000" fill-rule="nonzero" fill-opacity="1" /><path clip-path="url(#clip660)" d="M50.9921 613.701 L80.6679 613.701 L80.6679 617.636 L50.9921 617.636 L50.9921 613.701 Z" fill="#000000" fill-rule="nonzero" fill-opacity="1" /><path clip-path="url(#clip660)" d="M94.7882 626.594 L111.108 626.594 L111.108 630.529 L89.1632 630.529 L89.1632 626.594 Q91.8252 623.84 96.4085 619.21 Q101.015 614.557 102.196 613.215 Q104.441 610.692 105.321 608.956 Q106.223 607.196 106.223 605.506 Q106.223 602.752 104.279 601.016 Q102.358 599.28 99.2558 599.28 Q97.0567 599.28 94.603 600.044 Q92.1725 600.807 89.3947 602.358 L89.3947 597.636 Q92.2188 596.502 94.6724 595.923 Q97.1261 595.344 99.1632 595.344 Q104.534 595.344 107.728 598.03 Q110.922 600.715 110.922 605.206 Q110.922 607.335 110.112 609.256 Q109.325 611.155 107.219 613.747 Q106.64 614.418 103.538 617.636 Q100.436 620.83 94.7882 626.594 Z" fill="#000000" fill-rule="nonzero" fill-opacity="1" /><path clip-path="url(#clip660)" d="M130.922 599.048 Q127.311 599.048 125.482 602.613 Q123.677 606.155 123.677 613.284 Q123.677 620.391 125.482 623.955 Q127.311 627.497 130.922 627.497 Q134.556 627.497 136.362 623.955 Q138.191 620.391 138.191 613.284 Q138.191 606.155 136.362 602.613 Q134.556 599.048 130.922 599.048 M130.922 595.344 Q136.732 595.344 139.788 599.951 Q142.867 604.534 142.867 613.284 Q142.867 622.011 139.788 626.617 Q136.732 631.201 130.922 631.201 Q125.112 631.201 122.033 626.617 Q118.978 622.011 118.978 613.284 Q118.978 604.534 122.033 599.951 Q125.112 595.344 130.922 595.344 Z" fill="#000000" fill-rule="nonzero" fill-opacity="1" /><path clip-path="url(#clip660)" d="M161.084 599.048 Q157.473 599.048 155.644 602.613 Q153.839 606.155 153.839 613.284 Q153.839 620.391 155.644 623.955 Q157.473 627.497 161.084 627.497 Q164.718 627.497 166.524 623.955 Q168.353 620.391 168.353 613.284 Q168.353 606.155 166.524 602.613 Q164.718 599.048 161.084 599.048 M161.084 595.344 Q166.894 595.344 169.95 599.951 Q173.029 604.534 173.029 613.284 Q173.029 622.011 169.95 626.617 Q166.894 631.201 161.084 631.201 Q155.274 631.201 152.195 626.617 Q149.14 622.011 149.14 613.284 Q149.14 604.534 152.195 599.951 Q155.274 595.344 161.084 595.344 Z" fill="#000000" fill-rule="nonzero" fill-opacity="1" /><path clip-path="url(#clip660)" d="M191.246 599.048 Q187.635 599.048 185.806 602.613 Q184.001 606.155 184.001 613.284 Q184.001 620.391 185.806 623.955 Q187.635 627.497 191.246 627.497 Q194.88 627.497 196.686 623.955 Q198.514 620.391 198.514 613.284 Q198.514 606.155 196.686 602.613 Q194.88 599.048 191.246 599.048 M191.246 595.344 Q197.056 595.344 200.112 599.951 Q203.19 604.534 203.19 613.284 Q203.19 622.011 200.112 626.617 Q197.056 631.201 191.246 631.201 Q185.436 631.201 182.357 626.617 Q179.302 622.011 179.302 613.284 Q179.302 604.534 182.357 599.951 Q185.436 595.344 191.246 595.344 Z" fill="#000000" fill-rule="nonzero" fill-opacity="1" /><path clip-path="url(#clip660)" d="M50.9921 349.426 L80.6679 349.426 L80.6679 353.361 L50.9921 353.361 L50.9921 349.426 Z" fill="#000000" fill-rule="nonzero" fill-opacity="1" /><path clip-path="url(#clip660)" d="M91.5706 362.319 L99.2095 362.319 L99.2095 335.954 L90.8993 337.62 L90.8993 333.361 L99.1632 331.694 L103.839 331.694 L103.839 362.319 L111.478 362.319 L111.478 366.254 L91.5706 366.254 L91.5706 362.319 Z" fill="#000000" fill-rule="nonzero" fill-opacity="1" /><path clip-path="url(#clip660)" d="M120.969 331.694 L139.325 331.694 L139.325 335.63 L125.251 335.63 L125.251 344.102 Q126.27 343.755 127.288 343.593 Q128.307 343.407 129.325 343.407 Q135.112 343.407 138.492 346.579 Q141.871 349.75 141.871 355.167 Q141.871 360.745 138.399 363.847 Q134.927 366.926 128.607 366.926 Q126.432 366.926 124.163 366.555 Q121.918 366.185 119.51 365.444 L119.51 360.745 Q121.594 361.88 123.816 362.435 Q126.038 362.991 128.515 362.991 Q132.519 362.991 134.857 360.884 Q137.195 358.778 137.195 355.167 Q137.195 351.555 134.857 349.449 Q132.519 347.343 128.515 347.343 Q126.64 347.343 124.765 347.759 Q122.913 348.176 120.969 349.056 L120.969 331.694 Z" fill="#000000" fill-rule="nonzero" fill-opacity="1" /><path clip-path="url(#clip660)" d="M161.084 334.773 Q157.473 334.773 155.644 338.338 Q153.839 341.88 153.839 349.009 Q153.839 356.116 155.644 359.68 Q157.473 363.222 161.084 363.222 Q164.718 363.222 166.524 359.68 Q168.353 356.116 168.353 349.009 Q168.353 341.88 166.524 338.338 Q164.718 334.773 161.084 334.773 M161.084 331.069 Q166.894 331.069 169.95 335.676 Q173.029 340.259 173.029 349.009 Q173.029 357.736 169.95 362.342 Q166.894 366.926 161.084 366.926 Q155.274 366.926 152.195 362.342 Q149.14 357.736 149.14 349.009 Q149.14 340.259 152.195 335.676 Q155.274 331.069 161.084 331.069 Z" fill="#000000" fill-rule="nonzero" fill-opacity="1" /><path clip-path="url(#clip660)" d="M191.246 334.773 Q187.635 334.773 185.806 338.338 Q184.001 341.88 184.001 349.009 Q184.001 356.116 185.806 359.68 Q187.635 363.222 191.246 363.222 Q194.88 363.222 196.686 359.68 Q198.514 356.116 198.514 349.009 Q198.514 341.88 196.686 338.338 Q194.88 334.773 191.246 334.773 M191.246 331.069 Q197.056 331.069 200.112 335.676 Q203.19 340.259 203.19 349.009 Q203.19 357.736 200.112 362.342 Q197.056 366.926 191.246 366.926 Q185.436 366.926 182.357 362.342 Q179.302 357.736 179.302 349.009 Q179.302 340.259 182.357 335.676 Q185.436 331.069 191.246 331.069 Z" fill="#000000" fill-rule="nonzero" fill-opacity="1" /><path clip-path="url(#clip660)" d="M1017.21 12.096 L1025.39 12.096 L1025.39 65.6895 L1054.84 65.6895 L1054.84 72.576 L1017.21 72.576 L1017.21 12.096 Z" fill="#000000" fill-rule="nonzero" fill-opacity="1" /><path clip-path="url(#clip660)" d="M1079.23 32.4315 Q1073.23 32.4315 1069.75 37.1306 Q1066.27 41.7891 1066.27 49.9314 Q1066.27 58.0738 1069.71 62.7728 Q1073.19 67.4314 1079.23 67.4314 Q1085.18 67.4314 1088.67 62.7323 Q1092.15 58.0333 1092.15 49.9314 Q1092.15 41.8701 1088.67 37.1711 Q1085.18 32.4315 1079.23 32.4315 M1079.23 26.1121 Q1088.95 26.1121 1094.5 32.4315 Q1100.05 38.7509 1100.05 49.9314 Q1100.05 61.0714 1094.5 67.4314 Q1088.95 73.7508 1079.23 73.7508 Q1069.47 73.7508 1063.92 67.4314 Q1058.41 61.0714 1058.41 49.9314 Q1058.41 38.7509 1063.92 32.4315 Q1069.47 26.1121 1079.23 26.1121 Z" fill="#000000" fill-rule="nonzero" fill-opacity="1" /><path clip-path="url(#clip660)" d="M1142.26 49.3643 Q1142.26 41.2625 1138.9 36.8065 Q1135.58 32.3505 1129.54 32.3505 Q1123.55 32.3505 1120.18 36.8065 Q1116.86 41.2625 1116.86 49.3643 Q1116.86 57.4256 1120.18 61.8816 Q1123.55 66.3376 1129.54 66.3376 Q1135.58 66.3376 1138.9 61.8816 Q1142.26 57.4256 1142.26 49.3643 M1149.72 66.9452 Q1149.72 78.5308 1144.57 84.1616 Q1139.43 89.8329 1128.81 89.8329 Q1124.88 89.8329 1121.4 89.2252 Q1117.92 88.6581 1114.63 87.4428 L1114.63 80.1917 Q1117.92 81.9741 1121.12 82.8248 Q1124.32 83.6755 1127.64 83.6755 Q1134.97 83.6755 1138.62 79.8271 Q1142.26 76.0193 1142.26 68.282 L1142.26 64.5957 Q1139.95 68.6061 1136.35 70.5911 Q1132.74 72.576 1127.72 72.576 Q1119.37 72.576 1114.27 66.2161 Q1109.17 59.8562 1109.17 49.3643 Q1109.17 38.832 1114.27 32.472 Q1119.37 26.1121 1127.72 26.1121 Q1132.74 26.1121 1136.35 28.0971 Q1139.95 30.082 1142.26 34.0924 L1142.26 27.2059 L1149.72 27.2059 L1149.72 66.9452 Z" fill="#000000" fill-rule="nonzero" fill-opacity="1" /><path clip-path="url(#clip660)" d="M1161.3 46.5287 L1183.14 46.5287 L1183.14 53.1722 L1161.3 53.1722 L1161.3 46.5287 Z" fill="#000000" fill-rule="nonzero" fill-opacity="1" /><path clip-path="url(#clip660)" d="M1195 9.54393 L1202.46 9.54393 L1202.46 72.576 L1195 72.576 L1195 9.54393 Z" fill="#000000" fill-rule="nonzero" fill-opacity="1" /><path clip-path="url(#clip660)" d="M1218.05 27.2059 L1225.51 27.2059 L1225.51 72.576 L1218.05 72.576 L1218.05 27.2059 M1218.05 9.54393 L1225.51 9.54393 L1225.51 18.9825 L1218.05 18.9825 L1218.05 9.54393 Z" fill="#000000" fill-rule="nonzero" fill-opacity="1" /><path clip-path="url(#clip660)" d="M1240.82 9.54393 L1248.31 9.54393 L1248.31 46.7717 L1270.55 27.2059 L1280.07 27.2059 L1256.01 48.4326 L1281.09 72.576 L1271.36 72.576 L1248.31 50.4176 L1248.31 72.576 L1240.82 72.576 L1240.82 9.54393 Z" fill="#000000" fill-rule="nonzero" fill-opacity="1" /><path clip-path="url(#clip660)" d="M1325 48.0275 L1325 51.6733 L1290.73 51.6733 Q1291.21 59.3701 1295.35 63.421 Q1299.52 67.4314 1306.93 67.4314 Q1311.22 67.4314 1315.24 66.3781 Q1319.29 65.3249 1323.26 63.2184 L1323.26 70.267 Q1319.25 71.9684 1315.03 72.8596 Q1310.82 73.7508 1306.49 73.7508 Q1295.63 73.7508 1289.27 67.4314 Q1282.95 61.1119 1282.95 50.3365 Q1282.95 39.1965 1288.94 32.6746 Q1294.98 26.1121 1305.19 26.1121 Q1314.34 26.1121 1319.65 32.0264 Q1325 37.9003 1325 48.0275 M1317.54 45.84 Q1317.46 39.7232 1314.1 36.0774 Q1310.78 32.4315 1305.27 32.4315 Q1299.03 32.4315 1295.26 35.9558 Q1291.54 39.4801 1290.97 45.8805 L1317.54 45.84 Z" fill="#000000" fill-rule="nonzero" fill-opacity="1" /><path clip-path="url(#clip660)" d="M1337.23 9.54393 L1344.69 9.54393 L1344.69 72.576 L1337.23 72.576 L1337.23 9.54393 Z" fill="#000000" fill-rule="nonzero" fill-opacity="1" /><path clip-path="url(#clip660)" d="M1360.28 27.2059 L1367.73 27.2059 L1367.73 72.576 L1360.28 72.576 L1360.28 27.2059 M1360.28 9.54393 L1367.73 9.54393 L1367.73 18.9825 L1360.28 18.9825 L1360.28 9.54393 Z" fill="#000000" fill-rule="nonzero" fill-opacity="1" /><path clip-path="url(#clip660)" d="M1421.04 45.1919 L1421.04 72.576 L1413.59 72.576 L1413.59 45.4349 Q1413.59 38.994 1411.08 35.7938 Q1408.57 32.5936 1403.54 32.5936 Q1397.51 32.5936 1394.03 36.4419 Q1390.54 40.2903 1390.54 46.9338 L1390.54 72.576 L1383.05 72.576 L1383.05 9.54393 L1390.54 9.54393 L1390.54 34.2544 Q1393.22 30.163 1396.82 28.1376 Q1400.47 26.1121 1405.21 26.1121 Q1413.02 26.1121 1417.03 30.9732 Q1421.04 35.7938 1421.04 45.1919 Z" fill="#000000" fill-rule="nonzero" fill-opacity="1" /><path clip-path="url(#clip660)" d="M1453.49 32.4315 Q1447.5 32.4315 1444.01 37.1306 Q1440.53 41.7891 1440.53 49.9314 Q1440.53 58.0738 1443.97 62.7728 Q1447.46 67.4314 1453.49 67.4314 Q1459.45 67.4314 1462.93 62.7323 Q1466.41 58.0333 1466.41 49.9314 Q1466.41 41.8701 1462.93 37.1711 Q1459.45 32.4315 1453.49 32.4315 M1453.49 26.1121 Q1463.21 26.1121 1468.76 32.4315 Q1474.31 38.7509 1474.31 49.9314 Q1474.31 61.0714 1468.76 67.4314 Q1463.21 73.7508 1453.49 73.7508 Q1443.73 73.7508 1438.18 67.4314 Q1432.67 61.0714 1432.67 49.9314 Q1432.67 38.7509 1438.18 32.4315 Q1443.73 26.1121 1453.49 26.1121 Z" fill="#000000" fill-rule="nonzero" fill-opacity="1" /><path clip-path="url(#clip660)" d="M1504.25 32.4315 Q1498.26 32.4315 1494.77 37.1306 Q1491.29 41.7891 1491.29 49.9314 Q1491.29 58.0738 1494.73 62.7728 Q1498.21 67.4314 1504.25 67.4314 Q1510.21 67.4314 1513.69 62.7323 Q1517.17 58.0333 1517.17 49.9314 Q1517.17 41.8701 1513.69 37.1711 Q1510.21 32.4315 1504.25 32.4315 M1504.25 26.1121 Q1513.97 26.1121 1519.52 32.4315 Q1525.07 38.7509 1525.07 49.9314 Q1525.07 61.0714 1519.52 67.4314 Q1513.97 73.7508 1504.25 73.7508 Q1494.49 73.7508 1488.94 67.4314 Q1483.43 61.0714 1483.43 49.9314 Q1483.43 38.7509 1488.94 32.4315 Q1494.49 26.1121 1504.25 26.1121 Z" fill="#000000" fill-rule="nonzero" fill-opacity="1" /><path clip-path="url(#clip660)" d="M1567.28 34.0924 L1567.28 9.54393 L1574.74 9.54393 L1574.74 72.576 L1567.28 72.576 L1567.28 65.7705 Q1564.93 69.8214 1561.33 71.8063 Q1557.76 73.7508 1552.74 73.7508 Q1544.52 73.7508 1539.33 67.1883 Q1534.19 60.6258 1534.19 49.9314 Q1534.19 39.2371 1539.33 32.6746 Q1544.52 26.1121 1552.74 26.1121 Q1557.76 26.1121 1561.33 28.0971 Q1564.93 30.0415 1567.28 34.0924 M1541.88 49.9314 Q1541.88 58.1548 1545.25 62.8538 Q1548.65 67.5124 1554.56 67.5124 Q1560.48 67.5124 1563.88 62.8538 Q1567.28 58.1548 1567.28 49.9314 Q1567.28 41.7081 1563.88 37.0496 Q1560.48 32.3505 1554.56 32.3505 Q1548.65 32.3505 1545.25 37.0496 Q1541.88 41.7081 1541.88 49.9314 Z" fill="#000000" fill-rule="nonzero" fill-opacity="1" /><polyline clip-path="url(#clip662)" style="stroke:#009af9; stroke-linecap:round; stroke-linejoin:round; stroke-width:4; stroke-opacity:1; fill:none" points="299.008,1374.46 332.804,938.103 366.599,638.96 400.395,578.855 434.19,534.429 467.985,450.94 501.781,381.219 535.576,359.179 569.372,313.325 603.167,286.663 636.962,277.779 670.758,253.926 704.553,243.002 738.349,219.742 772.144,207.997 805.94,195.548 839.735,191.197 873.53,176.564 907.326,174.223 941.121,172.557 974.917,168.468 1008.71,164.229 1042.51,160.938 1076.3,161.341 1110.1,161.74 1143.89,162.457 1177.69,162.982 1211.48,166.94 1245.28,170.958 1279.08,176.382 1312.87,183.741 1346.67,190.861 1380.46,198.461 1414.26,207.327 1448.05,219.69 1481.85,231.84 1515.64,245.883 1549.44,260.37 1583.23,272.152 1617.03,291.055 1650.83,309.515 1684.62,328.855 1718.42,341.925 1752.21,362.084 1786.01,381.897 1819.8,404.124 1853.6,425.754 1887.39,445.001 1921.19,469.114 1954.98,490.368 1988.78,515.964 2022.57,537.249 2056.37,560.632 2090.17,583.893 2123.96,604.116 2157.76,631.913 2191.55,656.221 2225.35,682.169 2259.14,706.626 2292.94,727.448 "/>
<polyline clip-path="url(#clip662)" style="stroke:#008000; stroke-linecap:round; stroke-linejoin:round; stroke-width:4; stroke-opacity:1; fill:none" points="299.008,896.02 332.804,849.633 366.599,686.626 400.395,547.742 434.19,502.246 467.985,488.464 501.781,402.083 535.576,353.804 569.372,330.992 603.167,293.912 636.962,275.416 670.758,268.32 704.553,236.806 738.349,222.635 772.144,206.981 805.94,197.651 839.735,186.737 873.53,185.103 907.326,176.568 941.121,170.539 974.917,165.324 1008.71,165.383 1042.51,161.247 1076.3,161.333 1110.1,160.798 1143.89,161.186 1177.69,164.132 1211.48,167.522 1245.28,171.353 1279.08,176.853 1312.87,183.018 1346.67,189.68 1380.46,198.482 1414.26,208.256 1448.05,220.048 1481.85,231.078 1515.64,245.079 1549.44,259.623 1583.23,272.972 1617.03,290.553 1650.83,306.974 1684.62,326.296 1718.42,344.306 1752.21,363.577 1786.01,382.316 1819.8,403.485 1853.6,424.653 1887.39,446.999 1921.19,468.039 1954.98,492.918 1988.78,515.878 2022.57,534.853 2056.37,560.893 2090.17,588.656 2123.96,611.28 2157.76,636.704 2191.55,656.509 2225.35,681.091 2259.14,706.952 2292.94,733.42 "/>
<polyline clip-path="url(#clip662)" style="stroke:#0000ff; stroke-linecap:round; stroke-linejoin:round; stroke-width:4; stroke-opacity:1; fill:none" stroke-dasharray="16, 10" points="1042.51,2698.32 1042.51,-1163.95 "/>
<polyline clip-path="url(#clip662)" style="stroke:#ff0000; stroke-linecap:round; stroke-linejoin:round; stroke-width:4; stroke-opacity:1; fill:none" points="299.008,464.261 332.804,435.221 366.599,408.089 400.395,382.756 434.19,359.128 467.985,337.13 501.781,316.694 535.576,297.759 569.372,280.268 603.167,264.167 636.962,249.404 670.758,235.927 704.553,223.687 738.349,212.638 772.144,202.735 805.94,193.937 839.735,186.205 873.53,179.508 907.326,173.818 941.121,169.112 974.917,165.374 1008.71,162.595 1042.51,160.772 1076.3,159.909 1110.1,160.014 1143.89,161.104 1177.69,163.199 1211.48,166.322 1245.28,170.498 1279.08,175.753 1312.87,182.11 1346.67,189.588 1380.46,198.201 1414.26,207.953 1448.05,218.838 1481.85,230.844 1515.64,243.944 1549.44,258.102 1583.23,273.273 1617.03,289.406 1650.83,306.441 1684.62,324.314 1718.42,342.96 1752.21,362.313 1786.01,382.308 1819.8,402.88 1853.6,423.969 1887.39,445.518 1921.19,467.475 1954.98,489.791 1988.78,512.423 2022.57,535.331 2056.37,558.479 2090.17,581.838 2123.96,605.379 2157.76,629.077 2191.55,652.912 2225.35,676.864 2259.14,700.918 2292.94,725.059 "/>
<polyline clip-path="url(#clip662)" style="stroke:#ff0000; stroke-linecap:round; stroke-linejoin:round; stroke-width:4; stroke-opacity:1; fill:none" stroke-dasharray="16, 10" points="1076.3,2698.32 1076.3,-1163.95 "/>
<path clip-path="url(#clip660)" d="M1901.87 373.746 L2282.3 373.746 L2282.3 166.386 L1901.87 166.386  Z" fill="#ffffff" fill-rule="evenodd" fill-opacity="1"/>
<polyline clip-path="url(#clip660)" style="stroke:#000000; stroke-linecap:round; stroke-linejoin:round; stroke-width:4; stroke-opacity:1; fill:none" points="1901.87,373.746 2282.3,373.746 2282.3,166.386 1901.87,166.386 1901.87,373.746 "/>
<polyline clip-path="url(#clip660)" style="stroke:#009af9; stroke-linecap:round; stroke-linejoin:round; stroke-width:4; stroke-opacity:1; fill:none" points="1925.36,218.226 2066.26,218.226 "/>
<path clip-path="url(#clip660)" d="M2094.42 204.789 L2094.42 217.775 L2100.3 217.775 Q2103.57 217.775 2105.35 216.085 Q2107.13 214.395 2107.13 211.27 Q2107.13 208.168 2105.35 206.479 Q2103.57 204.789 2100.3 204.789 L2094.42 204.789 M2089.75 200.946 L2100.3 200.946 Q2106.11 200.946 2109.08 203.585 Q2112.06 206.201 2112.06 211.27 Q2112.06 216.386 2109.08 219.002 Q2106.11 221.617 2100.3 221.617 L2094.42 221.617 L2094.42 235.506 L2089.75 235.506 L2089.75 200.946 Z" fill="#000000" fill-rule="nonzero" fill-opacity="1" /><path clip-path="url(#clip660)" d="M2118.33 200.946 L2138.2 200.946 L2138.2 204.881 L2123.01 204.881 L2123.01 215.067 L2136.71 215.067 L2136.71 219.002 L2123.01 219.002 L2123.01 235.506 L2118.33 235.506 L2118.33 200.946 Z" fill="#000000" fill-rule="nonzero" fill-opacity="1" /><polyline clip-path="url(#clip660)" style="stroke:#008000; stroke-linecap:round; stroke-linejoin:round; stroke-width:4; stroke-opacity:1; fill:none" points="1925.36,270.066 2066.26,270.066 "/>
<path clip-path="url(#clip660)" d="M2105.58 257.393 L2099.24 274.592 L2111.95 274.592 L2105.58 257.393 M2102.94 252.786 L2108.24 252.786 L2121.41 287.346 L2116.55 287.346 L2113.4 278.481 L2097.83 278.481 L2094.68 287.346 L2089.75 287.346 L2102.94 252.786 Z" fill="#000000" fill-rule="nonzero" fill-opacity="1" /><path clip-path="url(#clip660)" d="M2125.93 252.786 L2130.63 252.786 L2130.63 273.782 Q2130.63 279.337 2132.64 281.791 Q2134.65 284.221 2139.17 284.221 Q2143.66 284.221 2145.67 281.791 Q2147.69 279.337 2147.69 273.782 L2147.69 252.786 L2152.39 252.786 L2152.39 274.36 Q2152.39 281.119 2149.03 284.569 Q2145.7 288.018 2139.17 288.018 Q2132.62 288.018 2129.26 284.569 Q2125.93 281.119 2125.93 274.36 L2125.93 252.786 Z" fill="#000000" fill-rule="nonzero" fill-opacity="1" /><path clip-path="url(#clip660)" d="M2159.49 252.786 L2164.51 252.786 L2173.1 265.633 L2181.74 252.786 L2186.76 252.786 L2175.65 269.383 L2187.5 287.346 L2182.48 287.346 L2172.76 272.647 L2162.96 287.346 L2157.92 287.346 L2170.26 268.897 L2159.49 252.786 Z" fill="#000000" fill-rule="nonzero" fill-opacity="1" /><path clip-path="url(#clip660)" d="M2213.38 256.629 L2213.38 269.615 L2219.26 269.615 Q2222.52 269.615 2224.31 267.925 Q2226.09 266.235 2226.09 263.11 Q2226.09 260.008 2224.31 258.319 Q2222.52 256.629 2219.26 256.629 L2213.38 256.629 M2208.7 252.786 L2219.26 252.786 Q2225.07 252.786 2228.03 255.425 Q2231.02 258.041 2231.02 263.11 Q2231.02 268.226 2228.03 270.842 Q2225.07 273.457 2219.26 273.457 L2213.38 273.457 L2213.38 287.346 L2208.7 287.346 L2208.7 252.786 Z" fill="#000000" fill-rule="nonzero" fill-opacity="1" /><path clip-path="url(#clip660)" d="M2237.29 252.786 L2257.15 252.786 L2257.15 256.721 L2241.97 256.721 L2241.97 266.907 L2255.67 266.907 L2255.67 270.842 L2241.97 270.842 L2241.97 287.346 L2237.29 287.346 L2237.29 252.786 Z" fill="#000000" fill-rule="nonzero" fill-opacity="1" /><polyline clip-path="url(#clip660)" style="stroke:#ff0000; stroke-linecap:round; stroke-linejoin:round; stroke-width:4; stroke-opacity:1; fill:none" points="1925.36,321.906 2066.26,321.906 "/>
<path clip-path="url(#clip660)" d="M2089.75 304.626 L2094.42 304.626 L2094.42 319.233 L2109.93 304.626 L2115.95 304.626 L2098.8 320.737 L2117.18 339.186 L2111.02 339.186 L2094.42 322.543 L2094.42 339.186 L2089.75 339.186 L2089.75 304.626 Z" fill="#000000" fill-rule="nonzero" fill-opacity="1" /><path clip-path="url(#clip660)" d="M2131.6 326.154 Q2126.44 326.154 2124.45 327.334 Q2122.45 328.515 2122.45 331.362 Q2122.45 333.631 2123.94 334.973 Q2125.44 336.293 2128.01 336.293 Q2131.55 336.293 2133.68 333.793 Q2135.83 331.27 2135.83 327.103 L2135.83 326.154 L2131.6 326.154 M2140.09 324.395 L2140.09 339.186 L2135.83 339.186 L2135.83 335.251 Q2134.38 337.612 2132.2 338.746 Q2130.02 339.858 2126.88 339.858 Q2122.89 339.858 2120.53 337.635 Q2118.2 335.39 2118.2 331.64 Q2118.2 327.265 2121.11 325.043 Q2124.05 322.821 2129.86 322.821 L2135.83 322.821 L2135.83 322.404 Q2135.83 319.464 2133.89 317.867 Q2131.97 316.247 2128.47 316.247 Q2126.25 316.247 2124.14 316.779 Q2122.04 317.311 2120.09 318.376 L2120.09 314.441 Q2122.43 313.538 2124.63 313.098 Q2126.83 312.635 2128.91 312.635 Q2134.54 312.635 2137.32 315.552 Q2140.09 318.469 2140.09 324.395 Z" fill="#000000" fill-rule="nonzero" fill-opacity="1" /><path clip-path="url(#clip660)" d="M2148.87 303.168 L2153.13 303.168 L2153.13 339.186 L2148.87 339.186 L2148.87 303.168 Z" fill="#000000" fill-rule="nonzero" fill-opacity="1" /><path clip-path="url(#clip660)" d="M2182.22 318.237 Q2183.82 315.367 2186.04 314.001 Q2188.26 312.635 2191.27 312.635 Q2195.32 312.635 2197.52 315.483 Q2199.72 318.307 2199.72 323.538 L2199.72 339.186 L2195.44 339.186 L2195.44 323.677 Q2195.44 319.95 2194.12 318.145 Q2192.8 316.339 2190.09 316.339 Q2186.78 316.339 2184.86 318.538 Q2182.94 320.737 2182.94 324.534 L2182.94 339.186 L2178.66 339.186 L2178.66 323.677 Q2178.66 319.927 2177.34 318.145 Q2176.02 316.339 2173.26 316.339 Q2170 316.339 2168.08 318.561 Q2166.16 320.76 2166.16 324.534 L2166.16 339.186 L2161.88 339.186 L2161.88 313.26 L2166.16 313.26 L2166.16 317.288 Q2167.62 314.904 2169.65 313.77 Q2171.69 312.635 2174.49 312.635 Q2177.32 312.635 2179.28 314.071 Q2181.27 315.506 2182.22 318.237 Z" fill="#000000" fill-rule="nonzero" fill-opacity="1" /><path clip-path="url(#clip660)" d="M2220 326.154 Q2214.84 326.154 2212.85 327.334 Q2210.86 328.515 2210.86 331.362 Q2210.86 333.631 2212.34 334.973 Q2213.84 336.293 2216.41 336.293 Q2219.95 336.293 2222.08 333.793 Q2224.24 331.27 2224.24 327.103 L2224.24 326.154 L2220 326.154 M2228.5 324.395 L2228.5 339.186 L2224.24 339.186 L2224.24 335.251 Q2222.78 337.612 2220.6 338.746 Q2218.43 339.858 2215.28 339.858 Q2211.3 339.858 2208.94 337.635 Q2206.6 335.39 2206.6 331.64 Q2206.6 327.265 2209.51 325.043 Q2212.45 322.821 2218.26 322.821 L2224.24 322.821 L2224.24 322.404 Q2224.24 319.464 2222.29 317.867 Q2220.37 316.247 2216.88 316.247 Q2214.65 316.247 2212.55 316.779 Q2210.44 317.311 2208.5 318.376 L2208.5 314.441 Q2210.83 313.538 2213.03 313.098 Q2215.23 312.635 2217.32 312.635 Q2222.94 312.635 2225.72 315.552 Q2228.5 318.469 2228.5 324.395 Z" fill="#000000" fill-rule="nonzero" fill-opacity="1" /><path clip-path="url(#clip660)" d="M2258.82 323.538 L2258.82 339.186 L2254.56 339.186 L2254.56 323.677 Q2254.56 319.997 2253.13 318.168 Q2251.69 316.339 2248.82 316.339 Q2245.37 316.339 2243.38 318.538 Q2241.39 320.737 2241.39 324.534 L2241.39 339.186 L2237.11 339.186 L2237.11 313.26 L2241.39 313.26 L2241.39 317.288 Q2242.92 314.95 2244.98 313.793 Q2247.06 312.635 2249.77 312.635 Q2254.24 312.635 2256.53 315.413 Q2258.82 318.168 2258.82 323.538 Z" fill="#000000" fill-rule="nonzero" fill-opacity="1" /></svg>
