<?xml version="1.0" encoding="utf-8"?>
<svg xmlns="http://www.w3.org/2000/svg" xmlns:xlink="http://www.w3.org/1999/xlink" width="600" height="400" viewBox="0 0 2400 1600">
<defs>
  <clipPath id="clip950">
    <rect x="0" y="0" width="2400" height="1600"/>
  </clipPath>
</defs>
<path clip-path="url(#clip950)" d="M0 1600 L2400 1600 L2400 0 L0 0  Z" fill="#ffffff" fill-rule="evenodd" fill-opacity="1"/>
<defs>
  <clipPath id="clip951">
    <rect x="480" y="0" width="1681" height="1600"/>
  </clipPath>
</defs>
<path clip-path="url(#clip950)" d="M177.871 1486.45 L2352.76 1486.45 L2352.76 47.2441 L177.871 47.2441  Z" fill="#ffffff" fill-rule="evenodd" fill-opacity="1"/>
<defs>
  <clipPath id="clip952">
    <rect x="177" y="47" width="2176" height="1440"/>
  </clipPath>
</defs>
<polyline clip-path="url(#clip952)" style="stroke:#000000; stroke-linecap:round; stroke-linejoin:round; stroke-width:2; stroke-opacity:0.1; fill:none" points="386.18,1486.45 386.18,47.2441 "/>
<polyline clip-path="url(#clip952)" style="stroke:#000000; stroke-linecap:round; stroke-linejoin:round; stroke-width:2; stroke-opacity:0.1; fill:none" points="812.754,1486.45 812.754,47.2441 "/>
<polyline clip-path="url(#clip952)" style="stroke:#000000; stroke-linecap:round; stroke-linejoin:round; stroke-width:2; stroke-opacity:0.1; fill:none" points="1239.33,1486.45 1239.33,47.2441 "/>
<polyline clip-path="url(#clip952)" style="stroke:#000000; stroke-linecap:round; stroke-linejoin:round; stroke-width:2; stroke-opacity:0.1; fill:none" points="1665.9,1486.45 1665.9,47.2441 "/>
<polyline clip-path="url(#clip952)" style="stroke:#000000; stroke-linecap:round; stroke-linejoin:round; stroke-width:2; stroke-opacity:0.1; fill:none" points="2092.48,1486.45 2092.48,47.2441 "/>
<polyline clip-path="url(#clip952)" style="stroke:#000000; stroke-linecap:round; stroke-linejoin:round; stroke-width:2; stroke-opacity:0.1; fill:none" points="177.871,1483.29 2352.76,1483.29 "/>
<polyline clip-path="url(#clip952)" style="stroke:#000000; stroke-linecap:round; stroke-linejoin:round; stroke-width:2; stroke-opacity:0.1; fill:none" points="177.871,1176.58 2352.76,1176.58 "/>
<polyline clip-path="url(#clip952)" style="stroke:#000000; stroke-linecap:round; stroke-linejoin:round; stroke-width:2; stroke-opacity:0.1; fill:none" points="177.871,869.859 2352.76,869.859 "/>
<polyline clip-path="url(#clip952)" style="stroke:#000000; stroke-linecap:round; stroke-linejoin:round; stroke-width:2; stroke-opacity:0.1; fill:none" points="177.871,563.142 2352.76,563.142 "/>
<polyline clip-path="url(#clip952)" style="stroke:#000000; stroke-linecap:round; stroke-linejoin:round; stroke-width:2; stroke-opacity:0.1; fill:none" points="177.871,256.425 2352.76,256.425 "/>
<polyline clip-path="url(#clip950)" style="stroke:#000000; stroke-linecap:round; stroke-linejoin:round; stroke-width:4; stroke-opacity:1; fill:none" points="177.871,1486.45 2352.76,1486.45 "/>
<polyline clip-path="url(#clip950)" style="stroke:#000000; stroke-linecap:round; stroke-linejoin:round; stroke-width:4; stroke-opacity:1; fill:none" points="386.18,1486.45 386.18,1467.55 "/>
<polyline clip-path="url(#clip950)" style="stroke:#000000; stroke-linecap:round; stroke-linejoin:round; stroke-width:4; stroke-opacity:1; fill:none" points="812.754,1486.45 812.754,1467.55 "/>
<polyline clip-path="url(#clip950)" style="stroke:#000000; stroke-linecap:round; stroke-linejoin:round; stroke-width:4; stroke-opacity:1; fill:none" points="1239.33,1486.45 1239.33,1467.55 "/>
<polyline clip-path="url(#clip950)" style="stroke:#000000; stroke-linecap:round; stroke-linejoin:round; stroke-width:4; stroke-opacity:1; fill:none" points="1665.9,1486.45 1665.9,1467.55 "/>
<polyline clip-path="url(#clip950)" style="stroke:#000000; stroke-linecap:round; stroke-linejoin:round; stroke-width:4; stroke-opacity:1; fill:none" points="2092.48,1486.45 2092.48,1467.55 "/>
<path clip-path="url(#clip950)" d="M340.243 1532.02 L369.919 1532.02 L369.919 1535.95 L340.243 1535.95 L340.243 1532.02 Z" fill="#000000" fill-rule="nonzero" fill-opacity="1" /><path clip-path="url(#clip950)" d="M394.178 1530.21 Q397.534 1530.93 399.409 1533.2 Q401.307 1535.47 401.307 1538.8 Q401.307 1543.92 397.789 1546.72 Q394.27 1549.52 387.789 1549.52 Q385.613 1549.52 383.298 1549.08 Q381.007 1548.66 378.553 1547.81 L378.553 1543.29 Q380.497 1544.43 382.812 1545.01 Q385.127 1545.58 387.65 1545.58 Q392.048 1545.58 394.34 1543.85 Q396.655 1542.11 396.655 1538.8 Q396.655 1535.75 394.502 1534.03 Q392.372 1532.3 388.553 1532.3 L384.525 1532.3 L384.525 1528.45 L388.738 1528.45 Q392.187 1528.45 394.016 1527.09 Q395.845 1525.7 395.845 1523.11 Q395.845 1520.45 393.946 1519.03 Q392.071 1517.6 388.553 1517.6 Q386.632 1517.6 384.433 1518.01 Q382.234 1518.43 379.595 1519.31 L379.595 1515.14 Q382.257 1514.4 384.571 1514.03 Q386.909 1513.66 388.97 1513.66 Q394.294 1513.66 397.395 1516.09 Q400.497 1518.5 400.497 1522.62 Q400.497 1525.49 398.854 1527.48 Q397.21 1529.45 394.178 1530.21 Z" fill="#000000" fill-rule="nonzero" fill-opacity="1" /><path clip-path="url(#clip950)" d="M420.173 1517.37 Q416.562 1517.37 414.733 1520.93 Q412.928 1524.47 412.928 1531.6 Q412.928 1538.71 414.733 1542.27 Q416.562 1545.82 420.173 1545.82 Q423.807 1545.82 425.613 1542.27 Q427.442 1538.71 427.442 1531.6 Q427.442 1524.47 425.613 1520.93 Q423.807 1517.37 420.173 1517.37 M420.173 1513.66 Q425.983 1513.66 429.039 1518.27 Q432.118 1522.85 432.118 1531.6 Q432.118 1540.33 429.039 1544.94 Q425.983 1549.52 420.173 1549.52 Q414.363 1549.52 411.284 1544.94 Q408.229 1540.33 408.229 1531.6 Q408.229 1522.85 411.284 1518.27 Q414.363 1513.66 420.173 1513.66 Z" fill="#000000" fill-rule="nonzero" fill-opacity="1" /><path clip-path="url(#clip950)" d="M812.754 1517.37 Q809.143 1517.37 807.314 1520.93 Q805.509 1524.47 805.509 1531.6 Q805.509 1538.71 807.314 1542.27 Q809.143 1545.82 812.754 1545.82 Q816.388 1545.82 818.194 1542.27 Q820.023 1538.71 820.023 1531.6 Q820.023 1524.47 818.194 1520.93 Q816.388 1517.37 812.754 1517.37 M812.754 1513.66 Q818.564 1513.66 821.62 1518.27 Q824.699 1522.85 824.699 1531.6 Q824.699 1540.33 821.62 1544.94 Q818.564 1549.52 812.754 1549.52 Q806.944 1549.52 803.865 1544.94 Q800.81 1540.33 800.81 1531.6 Q800.81 1522.85 803.865 1518.27 Q806.944 1513.66 812.754 1513.66 Z" fill="#000000" fill-rule="nonzero" fill-opacity="1" /><path clip-path="url(#clip950)" d="M1228.17 1530.21 Q1231.53 1530.93 1233.4 1533.2 Q1235.3 1535.47 1235.3 1538.8 Q1235.3 1543.92 1231.78 1546.72 Q1228.26 1549.52 1221.78 1549.52 Q1219.61 1549.52 1217.29 1549.08 Q1215 1548.66 1212.55 1547.81 L1212.55 1543.29 Q1214.49 1544.43 1216.81 1545.01 Q1219.12 1545.58 1221.64 1545.58 Q1226.04 1545.58 1228.33 1543.85 Q1230.65 1542.11 1230.65 1538.8 Q1230.65 1535.75 1228.49 1534.03 Q1226.37 1532.3 1222.55 1532.3 L1218.52 1532.3 L1218.52 1528.45 L1222.73 1528.45 Q1226.18 1528.45 1228.01 1527.09 Q1229.84 1525.7 1229.84 1523.11 Q1229.84 1520.45 1227.94 1519.03 Q1226.06 1517.6 1222.55 1517.6 Q1220.62 1517.6 1218.43 1518.01 Q1216.23 1518.43 1213.59 1519.31 L1213.59 1515.14 Q1216.25 1514.4 1218.56 1514.03 Q1220.9 1513.66 1222.96 1513.66 Q1228.29 1513.66 1231.39 1516.09 Q1234.49 1518.5 1234.49 1522.62 Q1234.49 1525.49 1232.85 1527.48 Q1231.2 1529.45 1228.17 1530.21 Z" fill="#000000" fill-rule="nonzero" fill-opacity="1" /><path clip-path="url(#clip950)" d="M1254.17 1517.37 Q1250.55 1517.37 1248.73 1520.93 Q1246.92 1524.47 1246.92 1531.6 Q1246.92 1538.71 1248.73 1542.27 Q1250.55 1545.82 1254.17 1545.82 Q1257.8 1545.82 1259.61 1542.27 Q1261.43 1538.71 1261.43 1531.6 Q1261.43 1524.47 1259.61 1520.93 Q1257.8 1517.37 1254.17 1517.37 M1254.17 1513.66 Q1259.98 1513.66 1263.03 1518.27 Q1266.11 1522.85 1266.11 1531.6 Q1266.11 1540.33 1263.03 1544.94 Q1259.98 1549.52 1254.17 1549.52 Q1248.36 1549.52 1245.28 1544.94 Q1242.22 1540.33 1242.22 1531.6 Q1242.22 1522.85 1245.28 1518.27 Q1248.36 1513.66 1254.17 1513.66 Z" fill="#000000" fill-rule="nonzero" fill-opacity="1" /><path clip-path="url(#clip950)" d="M1651.31 1529.7 Q1648.16 1529.7 1646.31 1531.86 Q1644.48 1534.01 1644.48 1537.76 Q1644.48 1541.49 1646.31 1543.66 Q1648.16 1545.82 1651.31 1545.82 Q1654.46 1545.82 1656.28 1543.66 Q1658.14 1541.49 1658.14 1537.76 Q1658.14 1534.01 1656.28 1531.86 Q1654.46 1529.7 1651.31 1529.7 M1660.59 1515.05 L1660.59 1519.31 Q1658.83 1518.48 1657.02 1518.04 Q1655.24 1517.6 1653.48 1517.6 Q1648.85 1517.6 1646.4 1520.72 Q1643.97 1523.85 1643.62 1530.17 Q1644.99 1528.15 1647.05 1527.09 Q1649.11 1526 1651.59 1526 Q1656.79 1526 1659.8 1529.17 Q1662.83 1532.32 1662.83 1537.76 Q1662.83 1543.08 1659.69 1546.3 Q1656.54 1549.52 1651.31 1549.52 Q1645.31 1549.52 1642.14 1544.94 Q1638.97 1540.33 1638.97 1531.6 Q1638.97 1523.41 1642.86 1518.55 Q1646.75 1513.66 1653.3 1513.66 Q1655.06 1513.66 1656.84 1514.01 Q1658.65 1514.36 1660.59 1515.05 Z" fill="#000000" fill-rule="nonzero" fill-opacity="1" /><path clip-path="url(#clip950)" d="M1680.89 1517.37 Q1677.28 1517.37 1675.45 1520.93 Q1673.65 1524.47 1673.65 1531.6 Q1673.65 1538.71 1675.45 1542.27 Q1677.28 1545.82 1680.89 1545.82 Q1684.52 1545.82 1686.33 1542.27 Q1688.16 1538.71 1688.16 1531.6 Q1688.16 1524.47 1686.33 1520.93 Q1684.52 1517.37 1680.89 1517.37 M1680.89 1513.66 Q1686.7 1513.66 1689.76 1518.27 Q1692.83 1522.85 1692.83 1531.6 Q1692.83 1540.33 1689.76 1544.94 Q1686.7 1549.52 1680.89 1549.52 Q1675.08 1549.52 1672 1544.94 Q1668.95 1540.33 1668.95 1531.6 Q1668.95 1522.85 1672 1518.27 Q1675.08 1513.66 1680.89 1513.66 Z" fill="#000000" fill-rule="nonzero" fill-opacity="1" /><path clip-path="url(#clip950)" d="M2067.6 1548.13 L2067.6 1543.87 Q2069.36 1544.7 2071.17 1545.14 Q2072.97 1545.58 2074.71 1545.58 Q2079.34 1545.58 2081.77 1542.48 Q2084.22 1539.36 2084.57 1533.01 Q2083.23 1535.01 2081.17 1536.07 Q2079.11 1537.13 2076.61 1537.13 Q2071.42 1537.13 2068.39 1534.01 Q2065.38 1530.86 2065.38 1525.42 Q2065.38 1520.1 2068.53 1516.88 Q2071.68 1513.66 2076.91 1513.66 Q2082.9 1513.66 2086.05 1518.27 Q2089.22 1522.85 2089.22 1531.6 Q2089.22 1539.77 2085.33 1544.66 Q2081.47 1549.52 2074.92 1549.52 Q2073.16 1549.52 2071.35 1549.17 Q2069.55 1548.82 2067.6 1548.13 M2076.91 1533.48 Q2080.06 1533.48 2081.89 1531.32 Q2083.74 1529.17 2083.74 1525.42 Q2083.74 1521.7 2081.89 1519.54 Q2080.06 1517.37 2076.91 1517.37 Q2073.76 1517.37 2071.91 1519.54 Q2070.08 1521.7 2070.08 1525.42 Q2070.08 1529.17 2071.91 1531.32 Q2073.76 1533.48 2076.91 1533.48 Z" fill="#000000" fill-rule="nonzero" fill-opacity="1" /><path clip-path="url(#clip950)" d="M2107.63 1517.37 Q2104.02 1517.37 2102.19 1520.93 Q2100.38 1524.47 2100.38 1531.6 Q2100.38 1538.71 2102.19 1542.27 Q2104.02 1545.82 2107.63 1545.82 Q2111.26 1545.82 2113.07 1542.27 Q2114.89 1538.71 2114.89 1531.6 Q2114.89 1524.47 2113.07 1520.93 Q2111.26 1517.37 2107.63 1517.37 M2107.63 1513.66 Q2113.44 1513.66 2116.49 1518.27 Q2119.57 1522.85 2119.57 1531.6 Q2119.57 1540.33 2116.49 1544.94 Q2113.44 1549.52 2107.63 1549.52 Q2101.82 1549.52 2098.74 1544.94 Q2095.68 1540.33 2095.68 1531.6 Q2095.68 1522.85 2098.74 1518.27 Q2101.82 1513.66 2107.63 1513.66 Z" fill="#000000" fill-rule="nonzero" fill-opacity="1" /><polyline clip-path="url(#clip950)" style="stroke:#000000; stroke-linecap:round; stroke-linejoin:round; stroke-width:4; stroke-opacity:1; fill:none" points="177.871,1486.45 177.871,47.2441 "/>
<polyline clip-path="url(#clip950)" style="stroke:#000000; stroke-linecap:round; stroke-linejoin:round; stroke-width:4; stroke-opacity:1; fill:none" points="177.871,1483.29 196.769,1483.29 "/>
<polyline clip-path="url(#clip950)" style="stroke:#000000; stroke-linecap:round; stroke-linejoin:round; stroke-width:4; stroke-opacity:1; fill:none" points="177.871,1176.58 196.769,1176.58 "/>
<polyline clip-path="url(#clip950)" style="stroke:#000000; stroke-linecap:round; stroke-linejoin:round; stroke-width:4; stroke-opacity:1; fill:none" points="177.871,869.859 196.769,869.859 "/>
<polyline clip-path="url(#clip950)" style="stroke:#000000; stroke-linecap:round; stroke-linejoin:round; stroke-width:4; stroke-opacity:1; fill:none" points="177.871,563.142 196.769,563.142 "/>
<polyline clip-path="url(#clip950)" style="stroke:#000000; stroke-linecap:round; stroke-linejoin:round; stroke-width:4; stroke-opacity:1; fill:none" points="177.871,256.425 196.769,256.425 "/>
<path clip-path="url(#clip950)" d="M50.9921 1483.74 L80.6679 1483.74 L80.6679 1487.68 L50.9921 1487.68 L50.9921 1483.74 Z" fill="#000000" fill-rule="nonzero" fill-opacity="1" /><path clip-path="url(#clip950)" d="M94.7882 1496.64 L111.108 1496.64 L111.108 1500.57 L89.1632 1500.57 L89.1632 1496.64 Q91.8252 1493.88 96.4085 1489.25 Q101.015 1484.6 102.196 1483.26 Q104.441 1480.73 105.321 1479 Q106.223 1477.24 106.223 1475.55 Q106.223 1472.8 104.279 1471.06 Q102.358 1469.32 99.2558 1469.32 Q97.0567 1469.32 94.603 1470.09 Q92.1725 1470.85 89.3947 1472.4 L89.3947 1467.68 Q92.2188 1466.55 94.6724 1465.97 Q97.1261 1465.39 99.1632 1465.39 Q104.534 1465.39 107.728 1468.07 Q110.922 1470.76 110.922 1475.25 Q110.922 1477.38 110.112 1479.3 Q109.325 1481.2 107.219 1483.79 Q106.64 1484.46 103.538 1487.68 Q100.436 1490.87 94.7882 1496.64 Z" fill="#000000" fill-rule="nonzero" fill-opacity="1" /><path clip-path="url(#clip950)" d="M120.969 1466.01 L139.325 1466.01 L139.325 1469.95 L125.251 1469.95 L125.251 1478.42 Q126.27 1478.07 127.288 1477.91 Q128.307 1477.73 129.325 1477.73 Q135.112 1477.73 138.492 1480.9 Q141.871 1484.07 141.871 1489.48 Q141.871 1495.06 138.399 1498.17 Q134.927 1501.24 128.607 1501.24 Q126.432 1501.24 124.163 1500.87 Q121.918 1500.5 119.51 1499.76 L119.51 1495.06 Q121.594 1496.2 123.816 1496.75 Q126.038 1497.31 128.515 1497.31 Q132.519 1497.31 134.857 1495.2 Q137.195 1493.1 137.195 1489.48 Q137.195 1485.87 134.857 1483.77 Q132.519 1481.66 128.515 1481.66 Q126.64 1481.66 124.765 1482.08 Q122.913 1482.49 120.969 1483.37 L120.969 1466.01 Z" fill="#000000" fill-rule="nonzero" fill-opacity="1" /><path clip-path="url(#clip950)" d="M129.927 1162.37 Q126.316 1162.37 124.487 1165.94 Q122.682 1169.48 122.682 1176.61 Q122.682 1183.72 124.487 1187.28 Q126.316 1190.82 129.927 1190.82 Q133.561 1190.82 135.367 1187.28 Q137.195 1183.72 137.195 1176.61 Q137.195 1169.48 135.367 1165.94 Q133.561 1162.37 129.927 1162.37 M129.927 1158.67 Q135.737 1158.67 138.793 1163.28 Q141.871 1167.86 141.871 1176.61 Q141.871 1185.34 138.793 1189.94 Q135.737 1194.53 129.927 1194.53 Q124.117 1194.53 121.038 1189.94 Q117.983 1185.34 117.983 1176.61 Q117.983 1167.86 121.038 1163.28 Q124.117 1158.67 129.927 1158.67 Z" fill="#000000" fill-rule="nonzero" fill-opacity="1" /><path clip-path="url(#clip950)" d="M94.7882 883.204 L111.108 883.204 L111.108 887.139 L89.1632 887.139 L89.1632 883.204 Q91.8252 880.449 96.4085 875.82 Q101.015 871.167 102.196 869.824 Q104.441 867.301 105.321 865.565 Q106.223 863.806 106.223 862.116 Q106.223 859.361 104.279 857.625 Q102.358 855.889 99.2558 855.889 Q97.0567 855.889 94.603 856.653 Q92.1725 857.417 89.3947 858.968 L89.3947 854.246 Q92.2188 853.111 94.6724 852.533 Q97.1261 851.954 99.1632 851.954 Q104.534 851.954 107.728 854.639 Q110.922 857.324 110.922 861.815 Q110.922 863.945 110.112 865.866 Q109.325 867.764 107.219 870.357 Q106.64 871.028 103.538 874.246 Q100.436 877.44 94.7882 883.204 Z" fill="#000000" fill-rule="nonzero" fill-opacity="1" /><path clip-path="url(#clip950)" d="M120.969 852.579 L139.325 852.579 L139.325 856.514 L125.251 856.514 L125.251 864.986 Q126.27 864.639 127.288 864.477 Q128.307 864.292 129.325 864.292 Q135.112 864.292 138.492 867.463 Q141.871 870.634 141.871 876.051 Q141.871 881.63 138.399 884.732 Q134.927 887.81 128.607 887.81 Q126.432 887.81 124.163 887.44 Q121.918 887.07 119.51 886.329 L119.51 881.63 Q121.594 882.764 123.816 883.32 Q126.038 883.875 128.515 883.875 Q132.519 883.875 134.857 881.769 Q137.195 879.662 137.195 876.051 Q137.195 872.44 134.857 870.334 Q132.519 868.227 128.515 868.227 Q126.64 868.227 124.765 868.644 Q122.913 869.06 120.969 869.94 L120.969 852.579 Z" fill="#000000" fill-rule="nonzero" fill-opacity="1" /><path clip-path="url(#clip950)" d="M89.8114 545.862 L108.168 545.862 L108.168 549.797 L94.0937 549.797 L94.0937 558.269 Q95.1123 557.922 96.1308 557.76 Q97.1493 557.575 98.1678 557.575 Q103.955 557.575 107.334 560.746 Q110.714 563.918 110.714 569.334 Q110.714 574.913 107.242 578.015 Q103.77 581.093 97.4502 581.093 Q95.2743 581.093 93.0058 580.723 Q90.7604 580.353 88.353 579.612 L88.353 574.913 Q90.4364 576.047 92.6586 576.603 Q94.8808 577.158 97.3576 577.158 Q101.362 577.158 103.7 575.052 Q106.038 572.945 106.038 569.334 Q106.038 565.723 103.7 563.617 Q101.362 561.51 97.3576 561.51 Q95.4826 561.51 93.6076 561.927 Q91.7558 562.343 89.8114 563.223 L89.8114 545.862 Z" fill="#000000" fill-rule="nonzero" fill-opacity="1" /><path clip-path="url(#clip950)" d="M129.927 548.941 Q126.316 548.941 124.487 552.506 Q122.682 556.047 122.682 563.177 Q122.682 570.283 124.487 573.848 Q126.316 577.39 129.927 577.39 Q133.561 577.39 135.367 573.848 Q137.195 570.283 137.195 563.177 Q137.195 556.047 135.367 552.506 Q133.561 548.941 129.927 548.941 M129.927 545.237 Q135.737 545.237 138.793 549.844 Q141.871 554.427 141.871 563.177 Q141.871 571.904 138.793 576.51 Q135.737 581.093 129.927 581.093 Q124.117 581.093 121.038 576.51 Q117.983 571.904 117.983 563.177 Q117.983 554.427 121.038 549.844 Q124.117 545.237 129.927 545.237 Z" fill="#000000" fill-rule="nonzero" fill-opacity="1" /><path clip-path="url(#clip950)" d="M89.5799 239.145 L111.802 239.145 L111.802 241.136 L99.2558 273.705 L94.3715 273.705 L106.177 243.08 L89.5799 243.08 L89.5799 239.145 Z" fill="#000000" fill-rule="nonzero" fill-opacity="1" /><path clip-path="url(#clip950)" d="M120.969 239.145 L139.325 239.145 L139.325 243.08 L125.251 243.08 L125.251 251.553 Q126.27 251.205 127.288 251.043 Q128.307 250.858 129.325 250.858 Q135.112 250.858 138.492 254.029 Q141.871 257.201 141.871 262.617 Q141.871 268.196 138.399 271.298 Q134.927 274.376 128.607 274.376 Q126.432 274.376 124.163 274.006 Q121.918 273.636 119.51 272.895 L119.51 268.196 Q121.594 269.33 123.816 269.886 Q126.038 270.441 128.515 270.441 Q132.519 270.441 134.857 268.335 Q137.195 266.228 137.195 262.617 Q137.195 259.006 134.857 256.9 Q132.519 254.793 128.515 254.793 Q126.64 254.793 124.765 255.21 Q122.913 255.627 120.969 256.506 L120.969 239.145 Z" fill="#000000" fill-rule="nonzero" fill-opacity="1" /><polyline clip-path="url(#clip952)" style="stroke:#0000ff; stroke-linecap:round; stroke-linejoin:round; stroke-width:4; stroke-opacity:1; fill:none" points="239.459,715.293 267.407,721.784 270.66,716.25 281.076,714.48 287.922,714.467 311.904,717.306 333.951,721.174 361.715,723.344 387.886,725.277 417.209,730.558 446.467,730.683 471.493,731.102 506.444,732.321 528.781,737.391 551.968,741.398 586.217,745.331 611.76,747.344 633.341,752.187 661.981,758.594 685.072,765.769 708.028,773.702 730.738,780.833 757.843,787.167 780.135,795.238 805.74,800.803 836.222,808.366 858.777,809.002 891.977,810.951 917.192,818.668 943.44,826.329 973.002,835.838 997.556,844.108 1023.3,851.573 1042.29,861.768 1059.23,874.172 1067.49,879.558 1087.17,882.055 1103.95,884.126 1125.82,885.972 1151.61,889.13 1177.51,898.034 1204.56,908.147 1226.27,913.469 1251.31,917.083 1283.47,918.915 1311.69,920.384 1343.68,924.394 1372.22,929.511 1397.68,933.141 1422.38,935.807 1454.04,935.613 1477.86,935.401 1504.63,934.645 1531.41,931.71 1560.24,926.573 1588.08,927.144 1614.93,925.413 1640.05,925.598 1660.02,919.359 1678.75,916.348 1695.72,909.794 1713.07,903.886 1733.95,903.128 1756.57,900.816 1777.63,902.43 1796.73,905.495 1818.64,911.86 1838.1,923.137 1859.05,936.09 1874.65,947.635 1890.56,963.801 1900.02,977.657 1907.56,991.891 1917.35,1011.1 1928.73,1029.04 1941.14,1047.54 1951.26,1058.51 1969.2,1065.62 1983.32,1068.15 1993.71,1067.4 2015.02,1061.85 2031.45,1056.77 2052.52,1036.51 2064.18,1021.92 2068.59,1002.14 2071.38,983.471 2070.5,962.183 2057.86,946.115 2038.85,937.768 2013.52,928.714 1984.25,929.63 1960.41,928.169 1941.31,924.867 1923.72,922.036 1900.97,920.367 1881.38,926.14 1859.76,932.81 1843.15,940.597 1820.49,943.789 1796.16,943.409 1769.74,939.562 1746.97,929.982 1724.13,918.919 1694.2,903.33 1668.58,886.024 1645.5,867.447 1630.12,851.991 1618.9,838.702 1603.41,825.061 1589.23,808.616 1577.52,793.19 1569.77,776.991 1569.2,761.581 1580.74,746.689 1593.92,734.629 1616.83,727.496 1636.53,727.437 1663.13,727.06 1682.21,738.652 1702.63,747.075 1717.3,752.559 1740.2,758.566 1762.64,769.771 1774.6,778.842 1791.65,789.709 1809.91,800.712 1830.75,808.883 1850.55,810.648 1871.37,811.109 1895.34,804.1 1916.01,799.914 1932.53,798.978 1951,806.261 1967.63,817.908 1983,833.422 1993.24,849.489 2001.79,868.533 2009.3,889.627 2013.42,908.637 2012.88,930.206 2012.6,941.787 2015.32,955.92 2025.2,974.635 2031.7,992.164 2042.98,1006.96 2053.65,1014.06 2066.44,1017.99 2083.76,1015.09 2101.69,1007.92 2115.21,998.573 2132.67,986.284 2142.42,977.007 2146.42,956.634 2138.42,938.726 2120.97,922.501 2105.67,907.538 2085.6,895.591 2058.67,888.828 2031.19,883.625 2012.73,881.126 1988.28,879.034 1967.63,876.655 1948.95,867.407 1933.68,861.367 1912.39,854.836 1896.68,854.207 1875.16,856.702 1854.91,851.589 1834.55,846.511 1814.95,845.461 1790.71,842.002 1772.98,837.548 1755.58,833.462 1733.92,831.868 1706.89,833.156 1681.09,838.931 1665.5,837.568 1660.41,830.229 1655.69,827.164 1648.7,825.638 1638.3,824.9 1629.75,824.294 1616.77,827.992 1603.08,833.609 1577.58,837.351 1556.87,841.283 1542,847.288 1532.15,855.803 1538.51,857 1551.17,855.518 1583.78,851.857 1604.24,835.446 1619.74,820.474 1626.23,804.448 1619.21,788.037 1605.38,769.793 1595.77,758.464 1584.03,737.841 1566.17,727.797 1545.77,738.095 1523.58,738.954 1494.84,733.808 1490.9,716.044 1486.52,697.643 1487.3,676.556 1489.94,659.501 1506.56,637.316 1513.26,617.367 1516.72,595.167 1500.84,582.103 1478.86,574.01 1469.17,572.33 1478.78,559.746 1498.39,548.568 1533.77,546.82 1572.84,533.495 1598.05,516.506 1615.97,492.766 1629.4,471.769 1650.36,462.877 1676.9,465.206 1700.07,470.345 1718.64,488.137 1747.11,501.535 1766.5,517.698 1777.06,538.406 1764.94,554.728 1748.1,571.053 1721.47,584.338 1688.28,590.187 1662.47,590.978 1629.45,575.808 1604.16,560.068 1592.18,539.038 1591.62,517.025 1608.44,503.054 1623.11,492.95 1645.16,477.837 1670.48,469.149 1693.07,453.527 1715.23,441.251 1735.3,439.279 1757.41,426.507 1760.62,412.692 1772.63,394.986 1784.32,389.774 1801.83,372.41 1794.92,359.151 1773.57,348.524 1769.62,346.367 1780.29,342.326 1803.89,335.98 1832.35,339.466 1856.7,342.549 1883.94,347.659 1907.21,365.444 1911.97,383.791 1908.57,395.188 1887.77,407.254 1871.99,429.054 1857.2,456.377 1847.38,487.859 1848.99,509.7 1814.18,512.72 1791,527.656 1759.82,534.484 1728.94,551.528 1711.56,576.808 1691.99,594.164 1665.86,589.008 1643.98,577.296 1616.4,568.373 1601.99,555.779 1575.86,539.142 1568.06,532.377 1574.67,510.273 1599.11,501.592 1633.11,496.594 1661.81,499.7 1696.37,507.029 1724.25,521.25 1733.52,542.261 1747.22,563.404 1762.36,567.697 1787.8,572.905 1811.11,582.625 1820.6,586.122 1846.05,578.542 1870.35,570.818 1889.04,562.198 1908.12,563.819 1928.95,577.765 1928.33,595.45 1928.74,615.937 1916.27,648.436 1894.58,673.396 1871.75,693.277 1850.25,723.337 1847.4,748.47 1812.37,761.157 1785.08,766.651 1757.16,781.1 1730.74,794.775 1713.69,813.339 1698.65,834.087 1672.25,856.878 1646.29,865.998 1619.42,858.677 1596.18,851.615 1564.81,848.651 1536.19,840.375 1517.8,818.254 1503.15,798.462 1473.08,775.979 1457,756.506 1431.5,739.724 1406.38,736.391 1376.92,741.59 1359.87,740.38 1334.22,731.517 1329.18,705.568 1312.37,699.048 1288.52,702.149 1270.39,709.77 1246.73,726.238 1240.49,733.401 1210.12,736.849 1187.01,742.349 1162.03,735.989 1140.63,718.475 1118.05,705.976 1084.66,699.728 1052.49,691.046 1030.42,686.309 1009.56,675.846 989.254,655.273 988.07,642.315 997.954,622.352 1013.92,602.263 1025.38,580.174 1031.64,549.431 1038.08,524.914 1024.67,504.507 1005,499.624 994.205,489.131 997.448,475.755 1022.99,474.685 1058.14,477.977 1098.65,476.346 1132.08,471.899 1160.56,453.796 1184.17,428.918 1209.6,409.247 1239.94,402.387 1278.01,404.833 1310.02,417.137 1341.33,432.87 1370.81,445.483 1396.91,457.963 1419.78,471.63 1454.68,477.908 1478.92,492.442 1505.62,516.092 1535.7,542.518 1562.67,557.57 1587.42,569.104 1606.81,579.636 1615.48,570.436 1635.39,561.121 1662.22,547.629 1684.08,537.517 1712.89,526.77 1745.66,524.394 1781.42,533.039 1807.9,557.956 1816.78,579.024 1811.92,610.587 1795.33,643.01 1792.97,670.36 1785,703.055 1784.31,736.935 1801.37,767.645 1832.05,793.918 1870.65,791.762 1892.37,793.202 1923.05,799.863 1942,822.762 1968.49,848.127 1989.19,880.323 2000.71,912.883 2004.55,935.018 2020.05,917.83 2055.66,921.875 2083.1,928.071 2095.56,943.085 2097.07,948.144 2097.73,952.012 2102.43,967.336 2105.42,974.332 2117.55,978.39 2133.22,979.932 2162.86,974.732 2189.92,984.121 2202.88,996.603 2216.6,1018.15 2218.84,1030.87 2220.95,1020.09 2225.6,1002.73 2225.78,976.83 2216.13,950.358 2200.08,925.955 2189.99,903.161 2190.01,883.139 2163.38,859.916 2155.67,828.499 2159.99,804.423 2177.89,793.432 2198.5,795.075 2222.16,802.806 2238.17,815.489 2250.09,835.352 2275.47,858.291 2290.07,878.944 2282.05,905.494 2262.76,927.79 2244.91,948.293 2215.37,960.907 2196.63,979.917 2170.83,992.321 2142.72,1014.92 2123.63,1036.74 2112,1059.82 2092.85,1083.1 2076.2,1104.87 2052.04,1122.12 2025.44,1134.43 1994.7,1150.51 1969.42,1168.33 1941.3,1176.32 1913.32,1195.52 1897.72,1213.71 1865.61,1225.38 1846.32,1239.83 1827.04,1259.34 1810.14,1286.88 1803.1,1307.54 1799.19,1328.76 1791.48,1352.72 1814.06,1373.95 1823.22,1388.2 1815.89,1411.78 1809.07,1438.06 1789.96,1441.27 1766.99,1438.95 1745.22,1421.59 1733.14,1395.23 1718.88,1372.91 1696.07,1350.13 1657.86,1325.02 1627.27,1316.15 1592.52,1314.94 1555.76,1322.22 1516.06,1332.54 1488.48,1333.9 1453.69,1322.97 1428.29,1310.26 1408.86,1285.98 1405.66,1252.7 1401.68,1213.51 1381.46,1186.27 1360.95,1165.31 1365.52,1134.14 1362.83,1105.78 1355.13,1081.32 1344.37,1053.34 1325.09,1029.27 1319.64,1002.93 1325.37,969.831 1334.84,936.427 1352.38,906.968 1368.93,876.194 1381.17,843.492 1407.64,822.543 1404.58,794.618 1389.37,770.407 1359.44,748.005 1327.04,744.936 1307.56,731.356 1298.73,706.353 1294.35,674.146 1307.17,646.932 1321.24,625.215 1342.36,616.258 1373.18,604.087 1409.53,598.736 1449.57,594.61 1488.4,595.252 1516.74,586.99 1539.72,561.681 1557.67,540.248 1584.67,526.981 1606.58,521.303 1610.17,507.308 1596.67,492.398 1575.99,476.816 1550.07,464.624 1521.62,439.203 1498.73,414.471 1486.26,387.452 1469.08,366.765 1464.47,349.075 1472.07,327.69 1489.47,318.478 1506.31,327.6 1536.44,332.127 1575.42,334.721 1609.62,344.01 1648.73,350.418 1682.2,352.305 1713.33,366.913 1737.91,374.105 1763.22,367.05 1785.81,355.125 1816.72,350.012 1849.49,350.53 1880.27,344.871 1903.62,358.916 1914.36,375.823 1919.24,370.131 1929.08,353.023 1946.4,336.411 1964.2,326.047 1988,311.893 2007.36,301.825 1997.84,303.378 1976.34,291.728 1966.64,275.246 1954.63,246.95 1957.81,217.564 1968.8,201.257 1996.91,190.437 2029.98,193.13 2053.93,197.729 2087.95,201.877 2122.51,214.202 2146.03,236.224 2151.16,264.515 2144.5,291.245 2133.07,300.572 2137.05,316.277 2140.78,338.251 2136.6,371.316 2107.97,387.739 2089.42,422.216 2062.81,443.947 2039.82,470.046 2031.53,504.369 2007.05,512.666 1972.16,514.532 1936.75,526.655 1906.31,539.566 1890.04,566.398 1878.12,596.78 1877.48,614.961 1904.05,619.682 1933.39,633.656 1969.78,647.008 2002.72,670.007 2030.91,685.605 2069.13,691.745 2103.79,691.877 2142.24,688.414 2170.81,691.93 2195.85,692.719 2206.97,678.108 2221.12,658.217 2237.06,637.486 2235.05,611.874 2230.93,592.993 2221.86,568.943 2196.44,549.024 2174.72,530.252 2150.25,514.601 2109.27,516.243 2084.5,522.362 2060.55,539.423 2042.99,559.732 2018.33,585.462 2013.09,614.777 2017.42,646.229 2021.58,675.813 2038.56,701.62 2051.26,726.877 2064.66,760.337 2078.83,790.87 2109.79,803.139 2140.08,821.006 2166.92,848.831 2185.9,873.083 2200.86,904.144 2208.29,928.971 2204.38,939.534 2172.89,941.328 2136.38,955.142 2109.54,953.279 2094.5,961.322 2075.03,964.316 2052.13,960.344 2021.38,946.83 1992.56,937.184 1956.92,940.695 1911.67,954.175 1874.09,967.605 1836.4,968.403 1792.47,976.024 1755.76,976.418 1717.36,978.523 1687.18,972.474 1652.14,976.421 1620.54,971.547 1587.25,963.653 1553.57,933.251 1525.55,918.638 1487.31,911.014 1454.54,895.456 1425.52,879.147 1394.21,857.851 1369.38,849.767 1342.46,864.635 1318.03,880.917 1289.99,896.809 1252.37,914.859 1215,922.515 1186.01,917.903 1158.97,894.358 1141.46,870.998 1123.69,841.468 1097.66,815.492 1086.92,784.646 1082.67,756.429 1085.14,733.248 1072.07,703.34 1048.53,685.911 1019.64,674.831 1000.65,654.025 993.418,623.343 991.032,599.585 979.479,571.654 988.307,544.84 1009.02,518.075 1020.8,500.299 1034.15,494.366 1044,479.912 1046.73,463.928 1054.51,441.541 1061.49,417.876 1066.62,388.543 1077.89,355.287 1080.13,332.061 1059.27,312.899 1038.62,299.612 1010.88,299.292 983.767,308.165 955.726,303.876 924.727,289.329 887.79,275.45 865.077,268.482 842.726,264.851 827.748,247.867 826.677,225.94 841.86,207.777 863.6,188.399 886.025,170.995 927.913,160.839 957.143,148.543 990.86,141.965 1021.8,152.13 1050.74,159.327 1084.63,155.381 1118.18,149.47 1137.5,128.612 1153.18,109.699 1165.67,88.7991 "/>
<polyline clip-path="url(#clip952)" style="stroke:#ff0000; stroke-linecap:round; stroke-linejoin:round; stroke-width:4; stroke-opacity:1; fill:none" points="239.425,715.384 269.868,721.764 272.484,712.894 293.656,714.194 297.041,714.893 324.1,720.574 341.006,724.119 369.814,723.874 394.37,725.886 424.828,732.266 451.133,728.364 472.306,729.653 514.664,732.254 526.466,741.013 551.037,743.013 593.41,745.614 611.212,746.203 630.678,753.429 664.562,760.521 684.043,767.747 706.921,775.685 730.653,780.653 761.167,787.045 779.808,797.241 807.806,799.964 840.894,810.049 857.018,803.988 898.609,809.558 916.426,822.735 943.584,828.428 976.715,838.513 996.252,845.751 1023.44,851.444 1037.89,863.921 1055.76,877.11 1059.16,877.821 1091.45,878.288 1105.04,881.146 1129.7,883.158 1156.91,888.863 1181.61,903.5 1208,912.174 1225.86,912.775 1253.93,915.511 1289.66,916.689 1314.33,918.713 1348.39,925.853 1372.25,930.859 1396.92,932.871 1421.6,934.895 1458.17,933.116 1476.05,933.705 1504.97,933.472 1531.32,929.534 1561.89,923.35 1589.16,929.055 1615.5,925.129 1640.19,927.154 1657.94,915.13 1675.81,915.719 1692.72,906.677 1712.23,901.316 1736.1,906.321 1759.01,901.672 1779.48,905.953 1796.53,909.524 1819.61,917.498 1837.65,930.712 1859.92,941.668 1871.97,950.489 1888.4,969.677 1896.22,980.768 1903.23,994.84 1915.46,1016.32 1929.33,1031.84 1942.38,1050.36 1951.83,1055.5 1975.78,1060.53 1986.05,1062.67 1993.71,1061.12 2021.69,1051.2 2032.76,1050.36 2054.48,1023.36 2060.33,1015.12 2059.1,992.803 2063.11,977.897 2061.9,955.605 2043.01,945.36 2025.92,941.778 2003.62,930.822 1976.48,937.729 1955.99,933.448 1939.72,926.896 1922.66,923.326 1897.94,921.302 1880.24,933.337 1857.32,937.975 1844.65,944.772 1816.53,942.023 1791.81,940.011 1764.51,934.294 1746.48,921.081 1723.42,913.106 1688.35,896.323 1667.76,879.441 1647.19,862.559 1636.01,850.806 1624.85,839.04 1603.47,825.152 1590.55,806.761 1580.22,792.063 1574.12,775.108 1578.23,760.3 1596.75,745.369 1606.84,734.94 1629.7,730.327 1643.29,733.161 1672.14,732.928 1685.88,748.313 1706.3,752.583 1716.51,754.705 1743.74,760.398 1765.12,774.249 1770.31,781.598 1792.52,792.505 1811.34,802.713 1835.18,807.694 1853.84,805.313 1875.09,806.614 1899.58,796.051 1917.42,796.652 1931.06,799.498 1952.5,813.374 1967.13,825.839 1980.97,841.273 1987.98,855.284 1996.81,875.969 2005.64,896.666 2008.44,912.971 2006.22,934.515 2008.84,938.208 2015.07,955.249 2030.75,977.418 2033.57,993.76 2048.24,1006.29 2058.51,1008.45 2072.19,1011.3 2092.5,1002.95 2108.59,996.864 2117.83,989.344 2135.52,977.296 2140.54,972.057 2140.08,946.784 2125.39,934.27 2108.09,918.075 2097.64,903.328 2074.53,895.353 2046.41,892.617 2022.5,887.624 2012.27,885.477 1984.15,882.753 1967.09,879.183 1949.84,863.013 1936.19,860.167 1908.91,854.462 1897.06,858.265 1870.76,862.191 1852.73,849.002 1832.27,844.733 1813.6,847.101 1786.34,841.408 1773.51,835.593 1756.48,832.022 1731,832.979 1701.29,836.194 1677.58,843.788 1669,835.715 1668.86,823.128 1661.24,824.673 1650.2,825.508 1635.76,825.63 1628.95,824.207 1612.04,833.225 1599.37,839.997 1567.08,839.531 1551.81,842.61 1542.52,850.094 1535.83,861.271 1551.1,858.179 1569.77,855.799 1600.31,849.616 1609.45,829.544 1623.77,816.846 1627.87,802.013 1618.35,784.346 1602.04,765.269 1593.47,757.208 1582.21,732.941 1562.63,725.714 1540.7,739.934 1519.49,738.633 1488.89,732.241 1490.44,713.777 1485.19,693.914 1487.57,672.517 1491.68,657.746 1509.26,633.307 1514.2,615.603 1517.38,591.311 1498.69,581.177 1475.76,573.288 1468.98,571.877 1480.7,555.621 1505.15,545.132 1544.09,547.009 1581.14,529.82 1599.61,514.988 1617.13,490.646 1629.61,471.495 1649.81,463.263 1677.73,465.962 1701.45,470.882 1721.11,490.499 1749.99,502.719 1767.11,518.717 1775.82,539.194 1764.17,555.437 1744.92,573.227 1716.28,585.962 1682.48,591.397 1661.3,590.109 1623.02,572.785 1601.73,559.008 1593.07,538.519 1592.02,516.521 1610.48,501.701 1623.9,492.057 1649.93,475.715 1673.52,468.195 1696.16,451.154 1717.15,440.001 1734.89,440.578 1760.89,424.261 1760.74,411.833 1773.17,392.718 1784.94,388.964 1804.95,368.34 1793.83,356.746 1768.37,345.275 1784.33,339.312 1814.62,333.215 1840.88,341.742 1862,343.03 1889.07,348.637 1912.15,368.892 1911.52,384.24 1908.31,395.957 1883.17,409.33 1869.15,434.321 1854.32,462.269 1845.45,494.585 1849.02,507.761 1808.46,511.761 1789.24,529.538 1755.47,534.961 1725.22,553.56 1711.12,578.662 1692.66,593.519 1665.5,587.863 1643.38,577.03 1613.66,567.718 1602.54,556.063 1571.91,537.231 1569.34,533.587 1576.71,507.111 1603.69,500.29 1640.85,495.578 1664.57,500.51 1701.86,508.264 1726.56,522.729 1731.86,542.494 1747.35,564.393 1760.93,567.215 1791.49,573.57 1813.62,584.416 1820.42,585.827 1851.63,576.748 1875.24,569.203 1892.03,560.247 1912.4,564.479 1932.97,581.202 1928.15,598.893 1929.31,620.952 1912.05,657.918 1892,678.713 1869.34,695.865 1846.03,728.524 1847.98,747.7 1808.26,761.33 1785.4,765.956 1755.88,781.721 1730.56,795.241 1714.63,813.877 1697.88,835.482 1669.27,860.903 1646.36,865.54 1619.93,856.866 1596.09,851.873 1561.19,847.726 1534.79,839.052 1515.89,816.269 1503.01,797.879 1467.13,771.562 1456.84,756.877 1429.57,738.645 1408.34,737.345 1374.45,742.792 1360.86,739.946 1331.11,730.61 1328.41,701.852 1311.43,698.306 1285.17,702.22 1268.26,711.213 1241.22,730.622 1240.38,733.579 1203.08,738.314 1183.59,743.651 1157.27,735.002 1137.72,715.249 1115.64,704.367 1077.49,699.533 1047.81,690.196 1030.86,686.651 1008.82,675.781 986.768,652.409 989.313,643.551 999.451,620.658 1016.36,599.187 1026.48,576.331 1032.35,543.242 1038.24,522.655 1022.16,503.725 1005.25,500.204 994.261,488.573 998.47,473.887 1030.58,474.341 1068.6,479.151 1109.14,475.151 1135.32,471.262 1162.29,452 1187.53,426.187 1210.25,409.17 1240.61,403.073 1282.82,405.637 1311.59,417.82 1342.91,433.646 1371.71,445.841 1397.13,457.337 1418.35,471.078 1458.97,479.519 1480.2,493.272 1509.15,517.957 1540.69,546.309 1562.78,557.13 1584.9,567.964 1603.61,578.098 1612.85,570.663 1637.28,560.173 1666.74,544.506 1686.95,536.261 1718.95,524.25 1751.1,524.717 1787.62,535.415 1812.5,562.381 1815.25,578.515 1812.33,615.308 1792.42,648.606 1793.55,670.689 1783.81,706.17 1785.09,740.842 1802.42,769.513 1835.02,795.118 1872.32,790.37 1885.96,793.217 1923.44,801.032 1942.46,823.815 1970.93,851.726 1990.98,884.177 2000.81,914.517 2003.62,930.822 2017.88,918.087 2059.67,923.682 2083.59,928.675 2094.05,943.446 2096.67,947.139 2098.49,953.814 2103.94,973.836 2106.55,977.541 2123.66,981.111 2141.55,981.712 2172.91,972.523 2197.88,987.197 2205.76,998.3 2220.72,1023.49 2218.32,1032.44 2222.31,1017.51 2227.88,996.619 2224.77,967.64 2213.25,943.201 2197.51,921.056 2188.63,900.347 2189.99,881.784 2157.2,856.106 2154.94,824.269 2160.51,803.498 2177.35,794.48 2198.61,795.793 2225.11,804.442 2239.8,816.907 2252.1,838.279 2281.51,863.234 2291.2,880.95 2279.87,909.978 2259.85,930.932 2244.02,949.642 2211.89,961.8 2196.05,980.522 2167.33,993.405 2138.8,1018.95 2122.93,1037.69 2113.09,1060.88 2092.18,1084.92 2075.47,1106.69 2049.29,1123.34 2024.71,1134 1990.84,1152.21 1968.04,1169.59 1940.81,1176.55 1909.52,1198.5 1898.6,1212.07 1862.05,1226.6 1847.69,1239.45 1827.45,1260.6 1808.16,1291.51 1804.08,1306.55 1798.35,1327.63 1790.99,1354.74 1817.81,1376.33 1822.23,1386.84 1814.86,1413.99 1807.48,1441.17 1789.48,1440.56 1764.58,1438.51 1741.19,1417.61 1730.6,1389.83 1717.53,1371.13 1691.57,1346.53 1648.48,1318.33 1627.07,1317 1591.12,1315.8 1552.69,1323.62 1509.99,1333.74 1492.02,1333.12 1451.71,1321.44 1429.38,1310.35 1407.82,1283.52 1406.73,1248.3 1400.46,1205.66 1380.68,1185.63 1360.92,1165.6 1366.69,1131.93 1363.12,1105.83 1355.3,1082.03 1342.32,1050.83 1323.45,1027.9 1319.89,1001.88 1326.51,965.395 1335.68,932.638 1354.22,905.033 1370.19,873.76 1382.73,841.801 1409.77,822.33 1402.81,795.756 1388.2,770.74 1355.8,745.16 1326.96,745.406 1309.07,732.266 1298.75,705.054 1294.33,669.708 1308.6,644.557 1321.19,625.32 1341.46,617.051 1377.79,602.77 1415.01,598.046 1455.62,594.035 1491.18,595.212 1514.81,587.655 1540.8,558.787 1556.71,540.298 1585.35,527.587 1604.76,522.287 1608.84,507.577 1595.16,492.303 1571.33,474.918 1545.88,463.41 1515.19,432.186 1496.42,409.673 1485.26,385.651 1469.08,366.794 1466.42,350.759 1472.98,327.35 1489.77,318.468 1508.41,328.516 1543.02,332.601 1585.21,335.153 1614.83,344.392 1656.22,349.876 1684.09,352.563 1715.48,368.365 1735.79,372.573 1762.72,365.776 1787.06,355.348 1820.75,349.949 1852.81,350.403 1883.1,344.306 1903.59,360.93 1913.93,375.444 1918.92,370.291 1931.3,351.201 1950.44,333.522 1967.19,324.627 1993.08,308.358 2009.01,302.384 1998.06,303.206 1970.01,288.14 1963.85,271.442 1951.55,238.059 1958.75,211.804 1968.68,201.547 2000.51,189.647 2035.09,193.708 2055.36,197.904 2093.34,202.664 2128.95,216.172 2147.87,238.562 2150.92,266.939 2143.79,293.219 2135.45,297.672 2137.47,316.615 2141.29,342.122 2135.16,377.959 2103.28,389.921 2085.38,429.573 2059.46,445.89 2037.9,472.44 2031.72,508.424 2009.75,510.068 1969.21,514.08 1933.05,528.324 1904.46,541.046 1889.63,569.08 1877.35,600.795 1878.34,610.34 1904.71,618.952 1936.29,634.877 1975.5,649.28 2008.11,674.799 2030.34,685.669 2071.99,691.215 2104.22,691.681 2144.87,687.657 2168.7,692.626 2194.14,691.669 2204.92,678.308 2221.49,656.801 2238.02,635.294 2234.16,609.567 2231.3,593.409 2220.62,566.295 2190.59,544.506 2173.37,528.508 2148.57,514.031 2101.23,516.632 2085.25,522.643 2058.49,541.954 2042.72,560.443 2013.53,588.612 2013.13,616.572 2018.72,648.912 2021.72,677.633 2039.95,703.287 2051.37,727.542 2066.41,765.097 2080.48,793.069 2110.36,802.443 2141.29,821.422 2169.05,852.302 2185.54,871.442 2201.49,906.174 2206.97,926.172 2204.58,935.104 2170.62,940.588 2130.06,957.273 2109.54,952.979 2096.88,959.776 2073.96,964.426 2050.05,959.42 2014.87,942.612 1987.54,936.895 1950.16,941.668 1902.69,956.917 1870.52,969.076 1834.73,967.886 1788.87,977.185 1756.51,976.707 1716.49,977.787 1689.18,972.069 1651.77,976.83 1621.05,970.401 1586.93,963.248 1546.6,926.442 1526.97,919.179 1486.07,910.616 1454.49,894.556 1426.32,879.22 1393.02,856.523 1372.59,852.253 1343.78,865.086 1317.53,881.6 1287.86,897.427 1246.3,917.057 1212.3,922.528 1188.47,917.535 1156.08,891.844 1140.7,869.736 1121.08,837.31 1095.54,813.104 1086.15,782.862 1082.69,757.036 1085.19,735.603 1069.86,701.067 1048.65,687.24 1019.83,674.959 1001.17,652.286 992.683,619.247 990.963,600.144 978.265,569.387 989.242,543.598 1012.04,514.067 1018.79,503.013 1031.44,496.315 1043.26,480.095 1048.29,462.478 1055.86,436.075 1062.57,412.618 1067.58,382.609 1081,348.195 1078.44,332.16 1055.65,311.941 1037.93,298.973 1009.28,299.218 981.478,308.923 954.519,303.328 919.981,286.864 881.248,272.632 867.782,269.835 844.207,264.94 828.239,246.156 827.443,224.355 843.453,206.05 867.029,186.236 889.751,169.354 939.361,158.043 960.377,146.989 993.991,141.615 1022.59,153.712 1049.5,159.282 1086.49,154.607 1120.1,149.246 1136.85,128.07 1152.76,109.815 1166.13,87.9763 "/>
<polyline clip-path="url(#clip952)" style="stroke:#3da44d; stroke-linecap:round; stroke-linejoin:round; stroke-width:4; stroke-opacity:1; fill:none" points="258.951,717.885 269.364,717.874 282.037,719.158 295.785,718.318 312.991,719.602 331.155,723.728 351.527,724.113 374.396,726.095 399.369,727.547 425.843,728.906 452.517,728.828 478.034,731.878 505.877,734.316 531.369,739.356 560.053,742.908 587.23,744.146 613.534,748.993 636.238,755.617 659.752,761.431 683.817,766.974 707.759,773.534 733.355,780.787 759.883,787.99 786.359,794.484 812.826,798.579 838.341,804.789 865.375,811.884 892.957,816.271 918.25,823.564 943.867,829.226 968.117,838.042 991.63,846.469 1014,853.49 1034.08,861.498 1052.81,869.429 1070.29,876.852 1089.35,882.006 1110.68,886.78 1134.26,888.83 1159.54,891.894 1184.15,897.088 1207.36,904.328 1233.15,908.539 1259.53,911.522 1288.2,913.523 1317.83,919.143 1346.9,925.054 1375.15,927.956 1402.33,930.833 1426.61,931.57 1451.58,932.749 1479.27,932.82 1506.46,931.938 1534.08,930.721 1561,927.759 1585.59,925.931 1609.92,924.756 1633.43,920.881 1655.62,917.703 1675.88,915.765 1695.79,911.668 1715.36,909.961 1736.13,910.925 1756.63,910.565 1777.33,913.348 1797.15,919.077 1816.25,925.619 1836.5,932.502 1854.78,942.166 1868.7,954.236 1882.22,968.748 1895.28,980.863 1906.78,995.675 1918,1010.55 1930.25,1024.35 1944.82,1035.57 1958.3,1045.33 1971.12,1051.03 1985.64,1053.45 2000.7,1051.76 2015.98,1046.67 2029.97,1039.01 2042.82,1027.83 2052.57,1013.52 2057.11,996.878 2056.01,978.377 2049.33,963.395 2037.81,950.008 2021.67,938.241 2002.47,930.655 1982.9,927.298 1961.39,926.246 1941.45,924.978 1919.87,925.608 1899.49,926.552 1878.21,927.893 1856.78,930.928 1837.05,933.737 1815.45,934.499 1790.98,931.398 1767.58,928.519 1744.33,919.521 1721.25,910.44 1697.79,895.806 1676.04,880.97 1654.7,867.731 1638.2,853.907 1623.47,840.258 1610.6,825.442 1599.91,811.202 1591.23,797.356 1585.06,782.182 1586.31,768.934 1595.44,757.807 1608.86,746.9 1627.75,740.139 1648.15,736.081 1667.44,738.739 1686.28,743.04 1703.86,748.588 1721.89,755.166 1740.06,761.967 1758.46,769.254 1776.48,778.381 1794.28,787.826 1813.59,793.16 1833.37,798.259 1855.41,801.134 1876.59,805.641 1897.15,807.845 1916.55,809.392 1933.85,812.745 1948.39,822.17 1962.23,834.295 1973.51,847.369 1986.11,859.543 1996.17,874.033 2004.05,890.872 2009.37,908.494 2014.3,924.147 2018.57,939.257 2024.23,955.65 2031.62,970.516 2039,985.055 2049.36,996.72 2061.61,1002.36 2074.87,1002.94 2087.78,1001.52 2102.26,997.64 2114.36,990.273 2124.48,980.18 2131.03,969.78 2129.08,953.728 2121.99,936.537 2108.97,923.213 2090.13,911.856 2071.21,901.874 2049.03,894.26 2029.17,889.214 2010.17,884.419 1990.78,879.343 1971.09,873.556 1950.85,870.185 1931.42,864.599 1910.58,860.693 1891.07,858.395 1870.79,854.142 1850.85,851.518 1830.57,848.679 1809.43,845.124 1790.18,841.212 1772.03,837.808 1751.19,835.756 1731.17,833.969 1711.26,833.865 1693.38,834.883 1677.65,834.602 1665.54,833.167 1655.39,830.729 1643.37,830.335 1631.46,830.083 1617.72,830.052 1603.88,832.347 1589.25,834.675 1572.22,837.855 1554.32,840.934 1548.61,851.356 1552.64,853.945 1559.98,850.327 1573.04,846.783 1590.51,847.358 1606.03,836.474 1620.27,823.159 1623.59,802.825 1622.04,783.795 1610.68,766.591 1595.84,752.046 1586.59,736.441 1562.53,730.696 1544.02,745.289 1520.14,741.892 1500.39,733.554 1490.77,715.857 1483.17,700.161 1489.65,681.516 1495.44,660.607 1513.36,642.939 1518.84,620.66 1517.72,594.077 1492.29,594.951 1472.02,583.529 1472.35,564.269 1493.53,554.877 1522.01,548.886 1549.14,549.415 1578.6,537.164 1598.74,519.569 1609.34,496.903 1623.72,476.592 1648.86,463.288 1674.59,454.018 1696.43,472.652 1720.89,487.015 1747.29,501.963 1770.87,514.295 1785.88,536.169 1771.48,561.319 1745.06,572.058 1717.08,586.043 1685.33,593.15 1653.18,592.868 1628.78,578.369 1605.27,561.453 1585.51,542.375 1591.44,518.695 1604.99,501.286 1628.55,488.664 1648.18,476.06 1671.06,468.949 1692.02,460.669 1715.23,452.314 1734.61,443.902 1747.98,426.305 1754.74,409.152 1772.8,398.401 1787.49,389.351 1800.58,375.536 1787.35,364.359 1771.6,354.694 1772.57,345.811 1788.41,340.567 1809.05,335.625 1835.18,336.782 1860.57,340.503 1887.86,347.45 1911.16,361.322 1916.92,384.273 1904.01,399.545 1879.75,411.748 1868.52,434.675 1860.44,460.837 1849.56,483.854 1836.97,502.634 1811.97,517.681 1785.26,533.107 1757.53,540.028 1732.55,555.316 1720.32,582.139 1696.7,593.311 1672.31,589.14 1647.72,584.887 1621.76,575.68 1593.35,564.884 1569.49,550.227 1559.07,526.836 1583.12,516.648 1607.55,503.029 1637.28,497.846 1665.86,496.56 1697.59,504.878 1721.39,519.393 1725.8,542.355 1739.77,561.849 1757.2,571.175 1780.46,579.27 1799.99,580.556 1821.44,580.552 1846.81,579.242 1866.51,567.597 1893.5,563.675 1910.09,573.036 1931.14,584.892 1932.17,606.694 1925.47,632.774 1910.76,657.188 1885.65,673.018 1867.91,695.344 1857.91,723.007 1843.63,750.357 1811.89,760.336 1783.76,767.882 1761.08,784.669 1732.24,793.829 1710.16,811.894 1699.71,837.967 1682.99,861.915 1649.52,862.737 1619.25,856.129 1590.19,850.119 1559.13,845.666 1534.25,839.045 1520.63,816.588 1505.27,794.917 1476.35,781.042 1454.53,764.794 1437.19,744.505 1406.64,743.917 1379.14,739.298 1353.82,744.889 1340.97,727.542 1334.81,706.241 1314.46,700.367 1290.31,706.274 1268.12,714.731 1251.43,732.232 1229.2,738.69 1204.93,745.45 1177.89,749.478 1153.66,733.608 1140.04,714.127 1112.77,702.888 1083.42,696.173 1053.54,696.514 1024.54,685.173 993.502,679.9 988.283,656.337 983.816,632.617 999.177,617.331 1017.6,596.837 1035.85,573.504 1038.58,549.282 1029.6,525.783 1013.07,511.194 988.925,502.376 992.42,481.833 1007.66,463.609 1035.41,483.028 1069.92,470.868 1106.36,473.027 1143.85,475.509 1167.02,452.275 1187,428.465 1204.96,401.208 1239.94,400.609 1275.08,404.346 1311.71,413.339 1338.83,435.482 1372.5,444.254 1401.51,454.807 1427.37,471.19 1459.26,484.628 1484.87,498.877 1511.07,517.718 1527.98,541.3 1551.68,562.438 1573.08,573.088 1598.83,580.237 1620.13,568.778 1640.41,553.708 1665.11,545.785 1691.82,532.308 1724.32,523.197 1759.25,524.327 1787.39,541.464 1809.62,561.717 1812.62,589.948 1816.77,619.86 1796.26,644.699 1791.51,675.2 1789.51,708.502 1788.47,739.825 1800.25,767.599 1829.07,785.131 1864.06,786.018 1895.27,795.948 1927.33,803.8 1947.97,827.554 1967.4,854.054 1991.05,875.803 1992.68,904.62 1998.99,930.829 2024.51,920.102 2049.71,917.455 2069.55,919.59 2081.69,932.433 2088.59,941.399 2093.52,954.807 2100.7,967.03 2109.22,975.06 2125.59,980.324 2149.09,976.164 2173.56,971.578 2195.41,981.679 2208.74,999.222 2220.89,1017.8 2222.62,1030.53 2221.09,1012.32 2218.62,992.743 2224.76,971.27 2219.87,945.608 2205.43,922.64 2192.11,900.372 2176.88,879.779 2155.9,858.821 2146.24,831.637 2155.59,810.353 2178.09,799.29 2205.31,789.94 2228.45,805.404 2248.12,816.927 2260.44,838.068 2284.75,856.831 2285.23,884.549 2282.86,908.97 2262.32,930.356 2243.1,952.062 2213.4,963.961 2189.45,978.523 2166.69,997.04 2143.69,1015.68 2126.24,1038.04 2108.65,1060.73 2094.28,1086.45 2078.06,1111.47 2051.33,1127.91 2020.12,1132.79 1993.34,1149.65 1964.45,1163.9 1942.05,1179.35 1916.95,1195.24 1888.69,1205.54 1866,1223.54 1848.07,1240.84 1830.06,1259.55 1820.87,1284.32 1807.72,1307.16 1793.84,1328.94 1795.87,1354.6 1820.02,1368.89 1827.84,1391.48 1828.49,1415.15 1809.79,1433.81 1783.14,1445.72 1759.21,1434.23 1743.96,1412.52 1729.7,1389.58 1719.46,1362.8 1691.3,1342.86 1662.64,1321.67 1625.83,1314.79 1587.82,1316.98 1554.4,1330.74 1517.35,1338.27 1489.1,1322.96 1450.99,1329.16 1426.45,1305.52 1412.34,1277.02 1411.53,1245.07 1405.38,1214.44 1381.26,1193.16 1363.99,1169.75 1362.19,1137.38 1367.77,1105.86 1352.52,1076.54 1338.15,1047.76 1321.94,1020.54 1312.34,994.262 1327.38,965.284 1333.23,933.136 1352.62,904.484 1370.84,874.941 1388.99,847.212 1412.31,821.062 1409.91,789.309 1389.64,763.853 1360.09,748.634 1324.67,752.593 1297.72,731.438 1286.41,702.52 1290.52,674.004 1297.96,646.742 1319.7,626.502 1347.09,614.233 1378.41,602.738 1413.21,592.586 1449.92,597.217 1484.91,596.912 1515.78,586.113 1531.03,562.332 1554.77,545.915 1584.3,537.497 1610.81,525.462 1616.82,501.369 1594.22,484.576 1566.18,476.496 1544.1,456.066 1521.4,433.704 1498.43,409.663 1488.91,384.581 1474.47,363.326 1459.7,343.474 1469.18,332.074 1489.35,327.175 1515.88,330.77 1549.01,328.217 1581.06,328.881 1614.77,338.495 1648.24,347.282 1679.7,350.601 1703.36,368.501 1732.84,374.506 1765.26,367.373 1790.18,354.44 1818.03,343.949 1848.68,341.976 1879.23,350.119 1891.87,362.813 1910.58,377.073 1916.15,363.884 1936.73,352.12 1952.32,335.794 1969.34,321.399 1991.2,319.057 2006.09,306.219 1981.74,304.091 1967.95,284.701 1957.67,264.255 1951.58,238.501 1953.79,213.125 1975.04,192.808 2004.52,184.797 2034.82,192.731 2065.41,196.056 2096.44,201.833 2127.12,213.628 2152.55,234.546 2156.22,260.629 2141.9,280.105 2133.19,298.418 2138.85,324.377 2138.09,351.452 2132.67,380.078 2104.28,398.382 2092.45,427.146 2065.32,448.892 2046.59,476.062 2029.05,503.299 1997.48,509.657 1963.05,513.856 1930.79,519.956 1901.81,536.394 1882.5,561.615 1871.91,588.527 1882.79,613.046 1907.17,623.224 1939.86,632.459 1968.55,652.984 1999.57,669.844 2029.91,691.166 2066.42,684.452 2100.84,685.94 2134.52,689.793 2161.88,697.75 2190.15,692.975 2210.74,677.516 2227.38,657.914 2230.98,638.047 2230.4,615.53 2233.72,588.865 2219.78,563.414 2194.32,547.391 2174.47,522.204 2143.41,508.332 2109.99,513.468 2078.92,524.759 2058.42,545.065 2037.21,561.482 2019.65,587.472 2017.54,617.055 2019.36,645.51 2025.15,675.663 2037.69,704.587 2053.39,732.823 2068.29,759.613 2088.22,783.842 2116.65,800.655 2138.85,826.208 2162.3,846.834 2182.14,870.627 2192.95,897.386 2212.54,921.442 2203.61,946.093 2174.43,945.464 2144.74,948.368 2119.79,954.359 2093.63,960.826 2067.42,955.837 2038.09,951.112 2009.93,942.962 1980.11,942.661 1945.39,950.984 1907.07,956.891 1873.76,968.925 1836.56,968.971 1798.84,975.296 1760.96,971.555 1723.03,972.72 1687.84,975.206 1651.84,976.737 1618.94,973.983 1583.32,962.169 1554.69,939.299 1520.58,926.235 1487.91,909.516 1456.35,894.625 1432.36,874.895 1402.19,857.952 1371.53,846.4 1344.73,863.321 1316.65,879.667 1287.13,898.148 1253.85,914.521 1220.22,924.081 1186.56,918.064 1159.89,895.201 1139.19,868.694 1123,839.926 1101.29,816.451 1089.29,788.867 1085.98,760.012 1086.43,730.518 1074.54,703.571 1051.5,684.007 1024.49,671.002 999.862,650.989 990.678,624.479 990.508,596.275 974.534,571.012 980.092,545.105 994.228,521.617 1014.85,510.614 1035.2,496.891 1043.28,476.104 1050.44,456.711 1057.38,435.304 1070.99,409.859 1077.23,384.04 1082.5,358.045 1083.52,332.395 1065.94,309.312 1041.28,299.489 1013.18,303.434 984.002,311.056 951.351,306.268 923.958,289.929 894.516,278.597 866.665,277.158 839.359,270.094 829.471,249.721 827.665,223.927 849.726,207.336 870.662,188.021 893.691,167.796 925.503,153.507 956.848,147.032 988.745,150.413 1018.14,159.139 1050.99,157.347 1082.7,161.529 1113.74,156.564 1135.96,136.27 1149.11,109.29 1164.78,91.7671 "/>
<path clip-path="url(#clip950)" d="M250.367 1438.47 L793.155 1438.47 L793.155 1231.11 L250.367 1231.11  Z" fill="#ffffff" fill-rule="evenodd" fill-opacity="1"/>
<polyline clip-path="url(#clip950)" style="stroke:#000000; stroke-linecap:round; stroke-linejoin:round; stroke-width:4; stroke-opacity:1; fill:none" points="250.367,1438.47 793.155,1438.47 793.155,1231.11 250.367,1231.11 250.367,1438.47 "/>
<polyline clip-path="url(#clip950)" style="stroke:#0000ff; stroke-linecap:round; stroke-linejoin:round; stroke-width:4; stroke-opacity:1; fill:none" points="274.533,1282.95 419.525,1282.95 "/>
<path clip-path="url(#clip950)" d="M467.718 1286.21 L467.718 1288.29 L448.135 1288.29 Q448.413 1292.69 450.774 1295 Q453.158 1297.29 457.394 1297.29 Q459.848 1297.29 462.139 1296.69 Q464.454 1296.09 466.723 1294.89 L466.723 1298.91 Q464.431 1299.89 462.024 1300.4 Q459.616 1300.91 457.14 1300.91 Q450.936 1300.91 447.302 1297.29 Q443.691 1293.68 443.691 1287.53 Q443.691 1281.16 447.116 1277.43 Q450.565 1273.68 456.399 1273.68 Q461.63 1273.68 464.663 1277.06 Q467.718 1280.42 467.718 1286.21 M463.459 1284.96 Q463.413 1281.46 461.491 1279.38 Q459.593 1277.29 456.445 1277.29 Q452.88 1277.29 450.728 1279.31 Q448.598 1281.32 448.274 1284.98 L463.459 1284.96 Z" fill="#000000" fill-rule="nonzero" fill-opacity="1" /><path clip-path="url(#clip950)" d="M491.237 1275.07 L491.237 1279.1 Q489.431 1278.17 487.487 1277.71 Q485.542 1277.25 483.459 1277.25 Q480.288 1277.25 478.69 1278.22 Q477.116 1279.19 477.116 1281.14 Q477.116 1282.62 478.251 1283.48 Q479.385 1284.31 482.811 1285.07 L484.269 1285.4 Q488.806 1286.37 490.704 1288.15 Q492.625 1289.91 492.625 1293.08 Q492.625 1296.69 489.755 1298.8 Q486.908 1300.91 481.908 1300.91 Q479.825 1300.91 477.556 1300.49 Q475.311 1300.1 472.811 1299.29 L472.811 1294.89 Q475.172 1296.11 477.463 1296.74 Q479.755 1297.34 482 1297.34 Q485.01 1297.34 486.63 1296.32 Q488.25 1295.28 488.25 1293.41 Q488.25 1291.67 487.07 1290.74 Q485.912 1289.82 481.954 1288.96 L480.473 1288.61 Q476.514 1287.78 474.755 1286.07 Q472.996 1284.33 472.996 1281.32 Q472.996 1277.67 475.588 1275.67 Q478.181 1273.68 482.95 1273.68 Q485.311 1273.68 487.394 1274.03 Q489.477 1274.38 491.237 1275.07 Z" fill="#000000" fill-rule="nonzero" fill-opacity="1" /><path clip-path="url(#clip950)" d="M503.621 1266.95 L503.621 1274.31 L512.394 1274.31 L512.394 1277.62 L503.621 1277.62 L503.621 1291.69 Q503.621 1294.86 504.477 1295.77 Q505.357 1296.67 508.019 1296.67 L512.394 1296.67 L512.394 1300.23 L508.019 1300.23 Q503.088 1300.23 501.213 1298.41 Q499.338 1296.55 499.338 1291.69 L499.338 1277.62 L496.213 1277.62 L496.213 1274.31 L499.338 1274.31 L499.338 1266.95 L503.621 1266.95 Z" fill="#000000" fill-rule="nonzero" fill-opacity="1" /><path clip-path="url(#clip950)" d="M517.996 1274.31 L522.255 1274.31 L522.255 1300.23 L517.996 1300.23 L517.996 1274.31 M517.996 1264.22 L522.255 1264.22 L522.255 1269.61 L517.996 1269.61 L517.996 1264.22 Z" fill="#000000" fill-rule="nonzero" fill-opacity="1" /><path clip-path="url(#clip950)" d="M551.352 1279.29 Q552.949 1276.42 555.171 1275.05 Q557.394 1273.68 560.403 1273.68 Q564.454 1273.68 566.653 1276.53 Q568.852 1279.35 568.852 1284.59 L568.852 1300.23 L564.569 1300.23 L564.569 1284.73 Q564.569 1281 563.25 1279.19 Q561.931 1277.39 559.222 1277.39 Q555.912 1277.39 553.991 1279.59 Q552.07 1281.79 552.07 1285.58 L552.07 1300.23 L547.787 1300.23 L547.787 1284.73 Q547.787 1280.98 546.468 1279.19 Q545.148 1277.39 542.394 1277.39 Q539.13 1277.39 537.209 1279.61 Q535.287 1281.81 535.287 1285.58 L535.287 1300.23 L531.005 1300.23 L531.005 1274.31 L535.287 1274.31 L535.287 1278.34 Q536.746 1275.95 538.783 1274.82 Q540.82 1273.68 543.621 1273.68 Q546.445 1273.68 548.412 1275.12 Q550.403 1276.55 551.352 1279.29 Z" fill="#000000" fill-rule="nonzero" fill-opacity="1" /><path clip-path="url(#clip950)" d="M589.13 1287.2 Q583.968 1287.2 581.977 1288.38 Q579.986 1289.56 579.986 1292.41 Q579.986 1294.68 581.468 1296.02 Q582.972 1297.34 585.542 1297.34 Q589.083 1297.34 591.213 1294.84 Q593.366 1292.32 593.366 1288.15 L593.366 1287.2 L589.13 1287.2 M597.625 1285.44 L597.625 1300.23 L593.366 1300.23 L593.366 1296.3 Q591.907 1298.66 589.731 1299.79 Q587.555 1300.91 584.407 1300.91 Q580.426 1300.91 578.065 1298.68 Q575.727 1296.44 575.727 1292.69 Q575.727 1288.31 578.643 1286.09 Q581.583 1283.87 587.393 1283.87 L593.366 1283.87 L593.366 1283.45 Q593.366 1280.51 591.421 1278.92 Q589.5 1277.29 586.005 1277.29 Q583.782 1277.29 581.676 1277.83 Q579.569 1278.36 577.625 1279.42 L577.625 1275.49 Q579.963 1274.59 582.162 1274.15 Q584.361 1273.68 586.444 1273.68 Q592.069 1273.68 594.847 1276.6 Q597.625 1279.52 597.625 1285.44 Z" fill="#000000" fill-rule="nonzero" fill-opacity="1" /><path clip-path="url(#clip950)" d="M610.611 1266.95 L610.611 1274.31 L619.384 1274.31 L619.384 1277.62 L610.611 1277.62 L610.611 1291.69 Q610.611 1294.86 611.467 1295.77 Q612.347 1296.67 615.009 1296.67 L619.384 1296.67 L619.384 1300.23 L615.009 1300.23 Q610.078 1300.23 608.204 1298.41 Q606.329 1296.55 606.329 1291.69 L606.329 1277.62 L603.204 1277.62 L603.204 1274.31 L606.329 1274.31 L606.329 1266.95 L610.611 1266.95 Z" fill="#000000" fill-rule="nonzero" fill-opacity="1" /><path clip-path="url(#clip950)" d="M647.162 1286.21 L647.162 1288.29 L627.578 1288.29 Q627.856 1292.69 630.217 1295 Q632.602 1297.29 636.838 1297.29 Q639.291 1297.29 641.583 1296.69 Q643.898 1296.09 646.166 1294.89 L646.166 1298.91 Q643.875 1299.89 641.467 1300.4 Q639.06 1300.91 636.583 1300.91 Q630.379 1300.91 626.745 1297.29 Q623.134 1293.68 623.134 1287.53 Q623.134 1281.16 626.56 1277.43 Q630.009 1273.68 635.842 1273.68 Q641.074 1273.68 644.106 1277.06 Q647.162 1280.42 647.162 1286.21 M642.902 1284.96 Q642.856 1281.46 640.935 1279.38 Q639.037 1277.29 635.889 1277.29 Q632.324 1277.29 630.171 1279.31 Q628.041 1281.32 627.717 1284.98 L642.902 1284.96 Z" fill="#000000" fill-rule="nonzero" fill-opacity="1" /><polyline clip-path="url(#clip950)" style="stroke:#ff0000; stroke-linecap:round; stroke-linejoin:round; stroke-width:4; stroke-opacity:1; fill:none" points="274.533,1334.79 419.525,1334.79 "/>
<path clip-path="url(#clip950)" d="M464.038 1331.13 Q465.635 1328.26 467.857 1326.89 Q470.079 1325.52 473.088 1325.52 Q477.139 1325.52 479.338 1328.37 Q481.538 1331.19 481.538 1336.43 L481.538 1352.07 L477.255 1352.07 L477.255 1336.57 Q477.255 1332.84 475.936 1331.03 Q474.616 1329.23 471.908 1329.23 Q468.598 1329.23 466.676 1331.43 Q464.755 1333.63 464.755 1337.42 L464.755 1352.07 L460.473 1352.07 L460.473 1336.57 Q460.473 1332.82 459.153 1331.03 Q457.834 1329.23 455.079 1329.23 Q451.815 1329.23 449.894 1331.45 Q447.973 1333.65 447.973 1337.42 L447.973 1352.07 L443.691 1352.07 L443.691 1326.15 L447.973 1326.15 L447.973 1330.18 Q449.431 1327.79 451.468 1326.66 Q453.505 1325.52 456.306 1325.52 Q459.13 1325.52 461.098 1326.96 Q463.089 1328.39 464.038 1331.13 Z" fill="#000000" fill-rule="nonzero" fill-opacity="1" /><path clip-path="url(#clip950)" d="M512.209 1338.05 L512.209 1340.13 L492.625 1340.13 Q492.903 1344.53 495.264 1346.84 Q497.649 1349.13 501.885 1349.13 Q504.338 1349.13 506.63 1348.53 Q508.945 1347.93 511.213 1346.73 L511.213 1350.75 Q508.922 1351.73 506.514 1352.24 Q504.107 1352.75 501.63 1352.75 Q495.426 1352.75 491.792 1349.13 Q488.181 1345.52 488.181 1339.37 Q488.181 1333 491.607 1329.27 Q495.056 1325.52 500.889 1325.52 Q506.121 1325.52 509.153 1328.9 Q512.209 1332.26 512.209 1338.05 M507.949 1336.8 Q507.903 1333.3 505.982 1331.22 Q504.084 1329.13 500.936 1329.13 Q497.371 1329.13 495.218 1331.15 Q493.088 1333.16 492.764 1336.82 L507.949 1336.8 Z" fill="#000000" fill-rule="nonzero" fill-opacity="1" /><path clip-path="url(#clip950)" d="M530.982 1339.04 Q525.82 1339.04 523.829 1340.22 Q521.838 1341.4 521.838 1344.25 Q521.838 1346.52 523.32 1347.86 Q524.824 1349.18 527.394 1349.18 Q530.935 1349.18 533.065 1346.68 Q535.218 1344.16 535.218 1339.99 L535.218 1339.04 L530.982 1339.04 M539.477 1337.28 L539.477 1352.07 L535.218 1352.07 L535.218 1348.14 Q533.759 1350.5 531.584 1351.63 Q529.408 1352.75 526.26 1352.75 Q522.278 1352.75 519.917 1350.52 Q517.579 1348.28 517.579 1344.53 Q517.579 1340.15 520.496 1337.93 Q523.435 1335.71 529.246 1335.71 L535.218 1335.71 L535.218 1335.29 Q535.218 1332.35 533.273 1330.76 Q531.352 1329.13 527.857 1329.13 Q525.635 1329.13 523.528 1329.67 Q521.422 1330.2 519.477 1331.26 L519.477 1327.33 Q521.815 1326.43 524.014 1325.99 Q526.213 1325.52 528.297 1325.52 Q533.922 1325.52 536.699 1328.44 Q539.477 1331.36 539.477 1337.28 Z" fill="#000000" fill-rule="nonzero" fill-opacity="1" /><path clip-path="url(#clip950)" d="M564.778 1326.91 L564.778 1330.94 Q562.972 1330.01 561.028 1329.55 Q559.083 1329.09 557 1329.09 Q553.829 1329.09 552.232 1330.06 Q550.658 1331.03 550.658 1332.98 Q550.658 1334.46 551.792 1335.32 Q552.926 1336.15 556.352 1336.91 L557.81 1337.24 Q562.347 1338.21 564.245 1339.99 Q566.167 1341.75 566.167 1344.92 Q566.167 1348.53 563.296 1350.64 Q560.449 1352.75 555.449 1352.75 Q553.366 1352.75 551.097 1352.33 Q548.852 1351.94 546.352 1351.13 L546.352 1346.73 Q548.713 1347.95 551.005 1348.58 Q553.296 1349.18 555.542 1349.18 Q558.551 1349.18 560.171 1348.16 Q561.792 1347.12 561.792 1345.25 Q561.792 1343.51 560.611 1342.58 Q559.454 1341.66 555.495 1340.8 L554.014 1340.45 Q550.056 1339.62 548.296 1337.91 Q546.537 1336.17 546.537 1333.16 Q546.537 1329.51 549.13 1327.51 Q551.722 1325.52 556.491 1325.52 Q558.852 1325.52 560.935 1325.87 Q563.019 1326.22 564.778 1326.91 Z" fill="#000000" fill-rule="nonzero" fill-opacity="1" /><path clip-path="url(#clip950)" d="M572.509 1341.84 L572.509 1326.15 L576.768 1326.15 L576.768 1341.68 Q576.768 1345.36 578.204 1347.21 Q579.639 1349.04 582.509 1349.04 Q585.958 1349.04 587.949 1346.84 Q589.963 1344.64 589.963 1340.85 L589.963 1326.15 L594.222 1326.15 L594.222 1352.07 L589.963 1352.07 L589.963 1348.09 Q588.412 1350.45 586.352 1351.61 Q584.315 1352.75 581.606 1352.75 Q577.139 1352.75 574.824 1349.97 Q572.509 1347.19 572.509 1341.84 M583.227 1325.52 L583.227 1325.52 Z" fill="#000000" fill-rule="nonzero" fill-opacity="1" /><path clip-path="url(#clip950)" d="M618.018 1330.13 Q617.301 1329.71 616.444 1329.53 Q615.611 1329.32 614.592 1329.32 Q610.981 1329.32 609.037 1331.68 Q607.116 1334.02 607.116 1338.42 L607.116 1352.07 L602.833 1352.07 L602.833 1326.15 L607.116 1326.15 L607.116 1330.18 Q608.458 1327.82 610.611 1326.68 Q612.764 1325.52 615.842 1325.52 Q616.282 1325.52 616.815 1325.59 Q617.347 1325.64 617.995 1325.76 L618.018 1330.13 Z" fill="#000000" fill-rule="nonzero" fill-opacity="1" /><path clip-path="url(#clip950)" d="M643.62 1338.05 L643.62 1340.13 L624.037 1340.13 Q624.315 1344.53 626.676 1346.84 Q629.06 1349.13 633.296 1349.13 Q635.75 1349.13 638.041 1348.53 Q640.356 1347.93 642.625 1346.73 L642.625 1350.75 Q640.333 1351.73 637.926 1352.24 Q635.518 1352.75 633.041 1352.75 Q626.838 1352.75 623.203 1349.13 Q619.592 1345.52 619.592 1339.37 Q619.592 1333 623.018 1329.27 Q626.467 1325.52 632.301 1325.52 Q637.532 1325.52 640.564 1328.9 Q643.62 1332.26 643.62 1338.05 M639.361 1336.8 Q639.314 1333.3 637.393 1331.22 Q635.495 1329.13 632.347 1329.13 Q628.782 1329.13 626.629 1331.15 Q624.5 1333.16 624.176 1336.82 L639.361 1336.8 Z" fill="#000000" fill-rule="nonzero" fill-opacity="1" /><path clip-path="url(#clip950)" d="M670.796 1331.13 Q672.393 1328.26 674.615 1326.89 Q676.837 1325.52 679.847 1325.52 Q683.898 1325.52 686.097 1328.37 Q688.296 1331.19 688.296 1336.43 L688.296 1352.07 L684.013 1352.07 L684.013 1336.57 Q684.013 1332.84 682.694 1331.03 Q681.374 1329.23 678.666 1329.23 Q675.356 1329.23 673.435 1331.43 Q671.513 1333.63 671.513 1337.42 L671.513 1352.07 L667.231 1352.07 L667.231 1336.57 Q667.231 1332.82 665.912 1331.03 Q664.592 1329.23 661.837 1329.23 Q658.574 1329.23 656.652 1331.45 Q654.731 1333.65 654.731 1337.42 L654.731 1352.07 L650.449 1352.07 L650.449 1326.15 L654.731 1326.15 L654.731 1330.18 Q656.189 1327.79 658.226 1326.66 Q660.263 1325.52 663.064 1325.52 Q665.888 1325.52 667.856 1326.96 Q669.847 1328.39 670.796 1331.13 Z" fill="#000000" fill-rule="nonzero" fill-opacity="1" /><path clip-path="url(#clip950)" d="M718.967 1338.05 L718.967 1340.13 L699.384 1340.13 Q699.661 1344.53 702.022 1346.84 Q704.407 1349.13 708.643 1349.13 Q711.096 1349.13 713.388 1348.53 Q715.703 1347.93 717.971 1346.73 L717.971 1350.75 Q715.68 1351.73 713.272 1352.24 Q710.865 1352.75 708.388 1352.75 Q702.184 1352.75 698.55 1349.13 Q694.939 1345.52 694.939 1339.37 Q694.939 1333 698.365 1329.27 Q701.814 1325.52 707.647 1325.52 Q712.879 1325.52 715.911 1328.9 Q718.967 1332.26 718.967 1338.05 M714.708 1336.8 Q714.661 1333.3 712.74 1331.22 Q710.842 1329.13 707.694 1329.13 Q704.129 1329.13 701.976 1331.15 Q699.847 1333.16 699.522 1336.82 L714.708 1336.8 Z" fill="#000000" fill-rule="nonzero" fill-opacity="1" /><path clip-path="url(#clip950)" d="M747.508 1336.43 L747.508 1352.07 L743.249 1352.07 L743.249 1336.57 Q743.249 1332.88 741.814 1331.06 Q740.379 1329.23 737.508 1329.23 Q734.059 1329.23 732.069 1331.43 Q730.078 1333.63 730.078 1337.42 L730.078 1352.07 L725.795 1352.07 L725.795 1326.15 L730.078 1326.15 L730.078 1330.18 Q731.606 1327.84 733.666 1326.68 Q735.749 1325.52 738.457 1325.52 Q742.925 1325.52 745.217 1328.3 Q747.508 1331.06 747.508 1336.43 Z" fill="#000000" fill-rule="nonzero" fill-opacity="1" /><path clip-path="url(#clip950)" d="M760.217 1318.79 L760.217 1326.15 L768.99 1326.15 L768.99 1329.46 L760.217 1329.46 L760.217 1343.53 Q760.217 1346.7 761.073 1347.61 Q761.953 1348.51 764.615 1348.51 L768.99 1348.51 L768.99 1352.07 L764.615 1352.07 Q759.684 1352.07 757.809 1350.25 Q755.934 1348.39 755.934 1343.53 L755.934 1329.46 L752.809 1329.46 L752.809 1326.15 L755.934 1326.15 L755.934 1318.79 L760.217 1318.79 Z" fill="#000000" fill-rule="nonzero" fill-opacity="1" /><polyline clip-path="url(#clip950)" style="stroke:#3da44d; stroke-linecap:round; stroke-linejoin:round; stroke-width:4; stroke-opacity:1; fill:none" points="274.533,1386.63 419.525,1386.63 "/>
<path clip-path="url(#clip950)" d="M468.343 1377.99 L458.968 1390.6 L468.829 1403.91 L463.806 1403.91 L456.26 1393.73 L448.714 1403.91 L443.691 1403.91 L453.76 1390.35 L444.547 1377.99 L449.57 1377.99 L456.445 1387.22 L463.32 1377.99 L468.343 1377.99 Z" fill="#000000" fill-rule="nonzero" fill-opacity="1" /><path clip-path="url(#clip950)" d="M491.375 1378.75 L491.375 1382.78 Q489.57 1381.85 487.625 1381.39 Q485.681 1380.93 483.598 1380.93 Q480.426 1380.93 478.829 1381.9 Q477.255 1382.87 477.255 1384.82 Q477.255 1386.3 478.389 1387.16 Q479.524 1387.99 482.95 1388.75 L484.408 1389.08 Q488.945 1390.05 490.843 1391.83 Q492.764 1393.59 492.764 1396.76 Q492.764 1400.37 489.894 1402.48 Q487.047 1404.59 482.047 1404.59 Q479.963 1404.59 477.695 1404.17 Q475.45 1403.78 472.95 1402.97 L472.95 1398.57 Q475.311 1399.79 477.602 1400.42 Q479.894 1401.02 482.139 1401.02 Q485.149 1401.02 486.769 1400 Q488.389 1398.96 488.389 1397.09 Q488.389 1395.35 487.209 1394.42 Q486.051 1393.5 482.093 1392.64 L480.612 1392.29 Q476.653 1391.46 474.894 1389.75 Q473.135 1388.01 473.135 1385 Q473.135 1381.35 475.727 1379.35 Q478.32 1377.36 483.088 1377.36 Q485.45 1377.36 487.533 1377.71 Q489.616 1378.06 491.375 1378.75 Z" fill="#000000" fill-rule="nonzero" fill-opacity="1" /></svg>
