<?xml version="1.0" encoding="utf-8"?>
<svg xmlns="http://www.w3.org/2000/svg" xmlns:xlink="http://www.w3.org/1999/xlink" width="600" height="400" viewBox="0 0 2400 1600">
<defs>
  <clipPath id="clip370">
    <rect x="0" y="0" width="2400" height="1600"/>
  </clipPath>
</defs>
<path clip-path="url(#clip370)" d="M0 1600 L2400 1600 L2400 0 L0 0  Z" fill="#ffffff" fill-rule="evenodd" fill-opacity="1"/>
<defs>
  <clipPath id="clip371">
    <rect x="147" y="47" width="2206" height="1440"/>
  </clipPath>
</defs>
<path clip-path="url(#clip370)" d="M147.478 1486.45 L2352.76 1486.45 L2352.76 47.2441 L147.478 47.2441  Z" fill="#ffffff" fill-rule="evenodd" fill-opacity="1"/>
<polyline clip-path="url(#clip371)" style="stroke:#000000; stroke-linecap:round; stroke-linejoin:round; stroke-width:2; stroke-opacity:0.1; fill:none" points="183.557,1486.45 183.557,47.2441 "/>
<polyline clip-path="url(#clip371)" style="stroke:#000000; stroke-linecap:round; stroke-linejoin:round; stroke-width:2; stroke-opacity:0.1; fill:none" points="710.253,1486.45 710.253,47.2441 "/>
<polyline clip-path="url(#clip371)" style="stroke:#000000; stroke-linecap:round; stroke-linejoin:round; stroke-width:2; stroke-opacity:0.1; fill:none" points="1236.95,1486.45 1236.95,47.2441 "/>
<polyline clip-path="url(#clip371)" style="stroke:#000000; stroke-linecap:round; stroke-linejoin:round; stroke-width:2; stroke-opacity:0.1; fill:none" points="1763.65,1486.45 1763.65,47.2441 "/>
<polyline clip-path="url(#clip371)" style="stroke:#000000; stroke-linecap:round; stroke-linejoin:round; stroke-width:2; stroke-opacity:0.1; fill:none" points="2290.34,1486.45 2290.34,47.2441 "/>
<polyline clip-path="url(#clip371)" style="stroke:#000000; stroke-linecap:round; stroke-linejoin:round; stroke-width:2; stroke-opacity:0.1; fill:none" points="147.478,1470.43 2352.76,1470.43 "/>
<polyline clip-path="url(#clip371)" style="stroke:#000000; stroke-linecap:round; stroke-linejoin:round; stroke-width:2; stroke-opacity:0.1; fill:none" points="147.478,1083.9 2352.76,1083.9 "/>
<polyline clip-path="url(#clip371)" style="stroke:#000000; stroke-linecap:round; stroke-linejoin:round; stroke-width:2; stroke-opacity:0.1; fill:none" points="147.478,697.363 2352.76,697.363 "/>
<polyline clip-path="url(#clip371)" style="stroke:#000000; stroke-linecap:round; stroke-linejoin:round; stroke-width:2; stroke-opacity:0.1; fill:none" points="147.478,310.828 2352.76,310.828 "/>
<polyline clip-path="url(#clip370)" style="stroke:#000000; stroke-linecap:round; stroke-linejoin:round; stroke-width:4; stroke-opacity:1; fill:none" points="147.478,1486.45 2352.76,1486.45 "/>
<polyline clip-path="url(#clip370)" style="stroke:#000000; stroke-linecap:round; stroke-linejoin:round; stroke-width:4; stroke-opacity:1; fill:none" points="183.557,1486.45 183.557,1467.55 "/>
<polyline clip-path="url(#clip370)" style="stroke:#000000; stroke-linecap:round; stroke-linejoin:round; stroke-width:4; stroke-opacity:1; fill:none" points="710.253,1486.45 710.253,1467.55 "/>
<polyline clip-path="url(#clip370)" style="stroke:#000000; stroke-linecap:round; stroke-linejoin:round; stroke-width:4; stroke-opacity:1; fill:none" points="1236.95,1486.45 1236.95,1467.55 "/>
<polyline clip-path="url(#clip370)" style="stroke:#000000; stroke-linecap:round; stroke-linejoin:round; stroke-width:4; stroke-opacity:1; fill:none" points="1763.65,1486.45 1763.65,1467.55 "/>
<polyline clip-path="url(#clip370)" style="stroke:#000000; stroke-linecap:round; stroke-linejoin:round; stroke-width:4; stroke-opacity:1; fill:none" points="2290.34,1486.45 2290.34,1467.55 "/>
<path clip-path="url(#clip370)" d="M183.557 1517.37 Q179.946 1517.37 178.117 1520.93 Q176.311 1524.47 176.311 1531.6 Q176.311 1538.71 178.117 1542.27 Q179.946 1545.82 183.557 1545.82 Q187.191 1545.82 188.996 1542.27 Q190.825 1538.71 190.825 1531.6 Q190.825 1524.47 188.996 1520.93 Q187.191 1517.37 183.557 1517.37 M183.557 1513.66 Q189.367 1513.66 192.422 1518.27 Q195.501 1522.85 195.501 1531.6 Q195.501 1540.33 192.422 1544.94 Q189.367 1549.52 183.557 1549.52 Q177.746 1549.52 174.668 1544.94 Q171.612 1540.33 171.612 1531.6 Q171.612 1522.85 174.668 1518.27 Q177.746 1513.66 183.557 1513.66 Z" fill="#000000" fill-rule="nonzero" fill-opacity="1" /><path clip-path="url(#clip370)" d="M689.026 1544.91 L705.346 1544.91 L705.346 1548.85 L683.401 1548.85 L683.401 1544.91 Q686.063 1542.16 690.647 1537.53 Q695.253 1532.88 696.434 1531.53 Q698.679 1529.01 699.559 1527.27 Q700.461 1525.51 700.461 1523.82 Q700.461 1521.07 698.517 1519.33 Q696.596 1517.6 693.494 1517.6 Q691.295 1517.6 688.841 1518.36 Q686.411 1519.13 683.633 1520.68 L683.633 1515.95 Q686.457 1514.82 688.911 1514.24 Q691.364 1513.66 693.401 1513.66 Q698.772 1513.66 701.966 1516.35 Q705.16 1519.03 705.16 1523.52 Q705.16 1525.65 704.35 1527.57 Q703.563 1529.47 701.457 1532.07 Q700.878 1532.74 697.776 1535.95 Q694.674 1539.15 689.026 1544.91 Z" fill="#000000" fill-rule="nonzero" fill-opacity="1" /><path clip-path="url(#clip370)" d="M725.16 1517.37 Q721.549 1517.37 719.721 1520.93 Q717.915 1524.47 717.915 1531.6 Q717.915 1538.71 719.721 1542.27 Q721.549 1545.82 725.16 1545.82 Q728.795 1545.82 730.6 1542.27 Q732.429 1538.71 732.429 1531.6 Q732.429 1524.47 730.6 1520.93 Q728.795 1517.37 725.16 1517.37 M725.16 1513.66 Q730.971 1513.66 734.026 1518.27 Q737.105 1522.85 737.105 1531.6 Q737.105 1540.33 734.026 1544.94 Q730.971 1549.52 725.16 1549.52 Q719.35 1549.52 716.272 1544.94 Q713.216 1540.33 713.216 1531.6 Q713.216 1522.85 716.272 1518.27 Q719.35 1513.66 725.16 1513.66 Z" fill="#000000" fill-rule="nonzero" fill-opacity="1" /><path clip-path="url(#clip370)" d="M1225.12 1518.36 L1213.32 1536.81 L1225.12 1536.81 L1225.12 1518.36 M1223.89 1514.29 L1229.77 1514.29 L1229.77 1536.81 L1234.7 1536.81 L1234.7 1540.7 L1229.77 1540.7 L1229.77 1548.85 L1225.12 1548.85 L1225.12 1540.7 L1209.52 1540.7 L1209.52 1536.19 L1223.89 1514.29 Z" fill="#000000" fill-rule="nonzero" fill-opacity="1" /><path clip-path="url(#clip370)" d="M1252.44 1517.37 Q1248.82 1517.37 1247 1520.93 Q1245.19 1524.47 1245.19 1531.6 Q1245.19 1538.71 1247 1542.27 Q1248.82 1545.82 1252.44 1545.82 Q1256.07 1545.82 1257.88 1542.27 Q1259.7 1538.71 1259.7 1531.6 Q1259.7 1524.47 1257.88 1520.93 Q1256.07 1517.37 1252.44 1517.37 M1252.44 1513.66 Q1258.25 1513.66 1261.3 1518.27 Q1264.38 1522.85 1264.38 1531.6 Q1264.38 1540.33 1261.3 1544.94 Q1258.25 1549.52 1252.44 1549.52 Q1246.63 1549.52 1243.55 1544.94 Q1240.49 1540.33 1240.49 1531.6 Q1240.49 1522.85 1243.55 1518.27 Q1246.63 1513.66 1252.44 1513.66 Z" fill="#000000" fill-rule="nonzero" fill-opacity="1" /><path clip-path="url(#clip370)" d="M1749.05 1529.7 Q1745.9 1529.7 1744.05 1531.86 Q1742.22 1534.01 1742.22 1537.76 Q1742.22 1541.49 1744.05 1543.66 Q1745.9 1545.82 1749.05 1545.82 Q1752.2 1545.82 1754.03 1543.66 Q1755.88 1541.49 1755.88 1537.76 Q1755.88 1534.01 1754.03 1531.86 Q1752.2 1529.7 1749.05 1529.7 M1758.33 1515.05 L1758.33 1519.31 Q1756.57 1518.48 1754.77 1518.04 Q1752.99 1517.6 1751.23 1517.6 Q1746.6 1517.6 1744.14 1520.72 Q1741.71 1523.85 1741.37 1530.17 Q1742.73 1528.15 1744.79 1527.09 Q1746.85 1526 1749.33 1526 Q1754.54 1526 1757.55 1529.17 Q1760.58 1532.32 1760.58 1537.76 Q1760.58 1543.08 1757.43 1546.3 Q1754.28 1549.52 1749.05 1549.52 Q1743.06 1549.52 1739.88 1544.94 Q1736.71 1540.33 1736.71 1531.6 Q1736.71 1523.41 1740.6 1518.55 Q1744.49 1513.66 1751.04 1513.66 Q1752.8 1513.66 1754.58 1514.01 Q1756.39 1514.36 1758.33 1515.05 Z" fill="#000000" fill-rule="nonzero" fill-opacity="1" /><path clip-path="url(#clip370)" d="M1778.63 1517.37 Q1775.02 1517.37 1773.19 1520.93 Q1771.39 1524.47 1771.39 1531.6 Q1771.39 1538.71 1773.19 1542.27 Q1775.02 1545.82 1778.63 1545.82 Q1782.27 1545.82 1784.07 1542.27 Q1785.9 1538.71 1785.9 1531.6 Q1785.9 1524.47 1784.07 1520.93 Q1782.27 1517.37 1778.63 1517.37 M1778.63 1513.66 Q1784.44 1513.66 1787.5 1518.27 Q1790.58 1522.85 1790.58 1531.6 Q1790.58 1540.33 1787.5 1544.94 Q1784.44 1549.52 1778.63 1549.52 Q1772.82 1549.52 1769.75 1544.94 Q1766.69 1540.33 1766.69 1531.6 Q1766.69 1522.85 1769.75 1518.27 Q1772.82 1513.66 1778.63 1513.66 Z" fill="#000000" fill-rule="nonzero" fill-opacity="1" /><path clip-path="url(#clip370)" d="M2275.22 1532.44 Q2271.88 1532.44 2269.96 1534.22 Q2268.06 1536 2268.06 1539.13 Q2268.06 1542.25 2269.96 1544.03 Q2271.88 1545.82 2275.22 1545.82 Q2278.55 1545.82 2280.47 1544.03 Q2282.39 1542.23 2282.39 1539.13 Q2282.39 1536 2280.47 1534.22 Q2278.57 1532.44 2275.22 1532.44 M2270.54 1530.45 Q2267.53 1529.7 2265.84 1527.64 Q2264.17 1525.58 2264.17 1522.62 Q2264.17 1518.48 2267.11 1516.07 Q2270.08 1513.66 2275.22 1513.66 Q2280.38 1513.66 2283.32 1516.07 Q2286.26 1518.48 2286.26 1522.62 Q2286.26 1525.58 2284.57 1527.64 Q2282.9 1529.7 2279.91 1530.45 Q2283.29 1531.23 2285.17 1533.52 Q2287.07 1535.82 2287.07 1539.13 Q2287.07 1544.15 2283.99 1546.83 Q2280.93 1549.52 2275.22 1549.52 Q2269.5 1549.52 2266.42 1546.83 Q2263.36 1544.15 2263.36 1539.13 Q2263.36 1535.82 2265.26 1533.52 Q2267.16 1531.23 2270.54 1530.45 M2268.83 1523.06 Q2268.83 1525.75 2270.49 1527.25 Q2272.18 1528.76 2275.22 1528.76 Q2278.22 1528.76 2279.91 1527.25 Q2281.63 1525.75 2281.63 1523.06 Q2281.63 1520.38 2279.91 1518.87 Q2278.22 1517.37 2275.22 1517.37 Q2272.18 1517.37 2270.49 1518.87 Q2268.83 1520.38 2268.83 1523.06 Z" fill="#000000" fill-rule="nonzero" fill-opacity="1" /><path clip-path="url(#clip370)" d="M2305.38 1517.37 Q2301.77 1517.37 2299.94 1520.93 Q2298.13 1524.47 2298.13 1531.6 Q2298.13 1538.71 2299.94 1542.27 Q2301.77 1545.82 2305.38 1545.82 Q2309.01 1545.82 2310.82 1542.27 Q2312.65 1538.71 2312.65 1531.6 Q2312.65 1524.47 2310.82 1520.93 Q2309.01 1517.37 2305.38 1517.37 M2305.38 1513.66 Q2311.19 1513.66 2314.24 1518.27 Q2317.32 1522.85 2317.32 1531.6 Q2317.32 1540.33 2314.24 1544.94 Q2311.19 1549.52 2305.38 1549.52 Q2299.57 1549.52 2296.49 1544.94 Q2293.43 1540.33 2293.43 1531.6 Q2293.43 1522.85 2296.49 1518.27 Q2299.57 1513.66 2305.38 1513.66 Z" fill="#000000" fill-rule="nonzero" fill-opacity="1" /><polyline clip-path="url(#clip370)" style="stroke:#000000; stroke-linecap:round; stroke-linejoin:round; stroke-width:4; stroke-opacity:1; fill:none" points="147.478,1486.45 147.478,47.2441 "/>
<polyline clip-path="url(#clip370)" style="stroke:#000000; stroke-linecap:round; stroke-linejoin:round; stroke-width:4; stroke-opacity:1; fill:none" points="147.478,1470.43 166.376,1470.43 "/>
<polyline clip-path="url(#clip370)" style="stroke:#000000; stroke-linecap:round; stroke-linejoin:round; stroke-width:4; stroke-opacity:1; fill:none" points="147.478,1083.9 166.376,1083.9 "/>
<polyline clip-path="url(#clip370)" style="stroke:#000000; stroke-linecap:round; stroke-linejoin:round; stroke-width:4; stroke-opacity:1; fill:none" points="147.478,697.363 166.376,697.363 "/>
<polyline clip-path="url(#clip370)" style="stroke:#000000; stroke-linecap:round; stroke-linejoin:round; stroke-width:4; stroke-opacity:1; fill:none" points="147.478,310.828 166.376,310.828 "/>
<path clip-path="url(#clip370)" d="M51.3625 1470.89 L81.0383 1470.89 L81.0383 1474.82 L51.3625 1474.82 L51.3625 1470.89 Z" fill="#000000" fill-rule="nonzero" fill-opacity="1" /><path clip-path="url(#clip370)" d="M95.1586 1483.78 L111.478 1483.78 L111.478 1487.71 L89.5336 1487.71 L89.5336 1483.78 Q92.1956 1481.02 96.7789 1476.4 Q101.385 1471.74 102.566 1470.4 Q104.811 1467.88 105.691 1466.14 Q106.594 1464.38 106.594 1462.69 Q106.594 1459.94 104.649 1458.2 Q102.728 1456.46 99.6261 1456.46 Q97.4271 1456.46 94.9734 1457.23 Q92.5428 1457.99 89.7651 1459.54 L89.7651 1454.82 Q92.5891 1453.69 95.0428 1453.11 Q97.4965 1452.53 99.5335 1452.53 Q104.904 1452.53 108.098 1455.21 Q111.293 1457.9 111.293 1462.39 Q111.293 1464.52 110.483 1466.44 Q109.696 1468.34 107.589 1470.93 Q107.01 1471.6 103.909 1474.82 Q100.807 1478.02 95.1586 1483.78 Z" fill="#000000" fill-rule="nonzero" fill-opacity="1" /><path clip-path="url(#clip370)" d="M50.9921 1084.35 L80.6679 1084.35 L80.6679 1088.29 L50.9921 1088.29 L50.9921 1084.35 Z" fill="#000000" fill-rule="nonzero" fill-opacity="1" /><path clip-path="url(#clip370)" d="M91.5706 1097.24 L99.2095 1097.24 L99.2095 1070.88 L90.8993 1072.54 L90.8993 1068.29 L99.1632 1066.62 L103.839 1066.62 L103.839 1097.24 L111.478 1097.24 L111.478 1101.18 L91.5706 1101.18 L91.5706 1097.24 Z" fill="#000000" fill-rule="nonzero" fill-opacity="1" /><path clip-path="url(#clip370)" d="M99.5335 683.162 Q95.9224 683.162 94.0937 686.727 Q92.2882 690.268 92.2882 697.398 Q92.2882 704.504 94.0937 708.069 Q95.9224 711.611 99.5335 711.611 Q103.168 711.611 104.973 708.069 Q106.802 704.504 106.802 697.398 Q106.802 690.268 104.973 686.727 Q103.168 683.162 99.5335 683.162 M99.5335 679.458 Q105.344 679.458 108.399 684.065 Q111.478 688.648 111.478 697.398 Q111.478 706.125 108.399 710.731 Q105.344 715.315 99.5335 715.315 Q93.7234 715.315 90.6447 710.731 Q87.5892 706.125 87.5892 697.398 Q87.5892 688.648 90.6447 684.065 Q93.7234 679.458 99.5335 679.458 Z" fill="#000000" fill-rule="nonzero" fill-opacity="1" /><path clip-path="url(#clip370)" d="M91.5706 324.173 L99.2095 324.173 L99.2095 297.807 L90.8993 299.474 L90.8993 295.214 L99.1632 293.548 L103.839 293.548 L103.839 324.173 L111.478 324.173 L111.478 328.108 L91.5706 328.108 L91.5706 324.173 Z" fill="#000000" fill-rule="nonzero" fill-opacity="1" /><path clip-path="url(#clip371)" d="M209.891 831.446 L236.226 824.168 L262.561 760.712 L288.896 671.42 L315.231 691.084 L341.566 631.268 L367.9 556.796 L394.235 526.635 L420.57 515.535 L446.905 512.966 L473.24 478.095 L499.574 520.413 L525.909 494.343 L552.244 505.703 L578.579 557.754 L604.914 521.264 L631.249 557.584 L657.583 534.599 L683.918 529.243 L710.253 515.212 L736.588 519.973 L762.923 465.856 L789.258 531.353 L815.592 615.321 L841.927 684.401 L868.262 661.759 L894.597 704.713 L920.932 719.876 L947.266 806.949 L973.601 782.681 L999.936 778.9 L1026.27 796.849 L1052.61 836.962 L1078.94 803.811 L1105.28 840.212 L1131.61 856.633 L1157.95 945.901 L1184.28 911.602 L1210.61 958.341 L1236.95 987.288 L1263.28 1018.47 L1289.62 1020.06 L1315.95 1041.51 L1342.29 1107.93 L1368.62 1099.02 L1394.96 1092.77 L1421.29 1139.44 L1447.63 1249.34 L1473.96 1331.5 L1500.3 1383.14 L1526.63 1411.3 L1552.97 1445.72 L1579.3 1433.18 L1605.64 1381.14 L1631.97 1324.2 L1658.31 1300.61 L1684.64 1279.09 L1710.98 1291.29 L1737.31 1293.1 L1763.65 1320.17 L1789.98 1292.9 L1816.32 1220.82 L1842.65 1156.9 L1868.99 1132.56 L1895.32 1063.35 L1921.65 1034.44 L1947.99 1057.17 L1974.32 1112.68 L2000.66 1040.67 L2026.99 1023.16 L2053.33 989.433 L2079.66 977.619 L2106 970.286 L2132.33 988.866 L2158.67 979.346 L2185 898.969 L2211.34 853.486 L2237.67 867.884 L2264.01 832.398 L2290.34 683.099 L2290.34 190.528 L2264.01 356.277 L2237.67 403.458 L2211.34 416.986 L2185 427.914 L2158.67 560.016 L2132.33 565.314 L2106 573.981 L2079.66 570.865 L2053.33 602.801 L2026.99 656.804 L2000.66 672.379 L1974.32 729.483 L1947.99 688.179 L1921.65 676.762 L1895.32 710.884 L1868.99 757.237 L1842.65 764.997 L1816.32 830.969 L1789.98 891.246 L1763.65 929.355 L1737.31 916.074 L1710.98 926.941 L1684.64 938.114 L1658.31 960.903 L1631.97 1009.77 L1605.64 1050.04 L1579.3 1093.4 L1552.97 1099.79 L1526.63 1060.35 L1500.3 1037.23 L1473.96 997.63 L1447.63 921.131 L1421.29 821.784 L1394.96 785.278 L1368.62 784.734 L1342.29 788.7 L1315.95 729.848 L1289.62 683.026 L1263.28 680.181 L1236.95 645.036 L1210.61 616.421 L1184.28 571.717 L1157.95 624.003 L1131.61 531.885 L1105.28 517.14 L1078.94 463.644 L1052.61 476.926 L1026.27 434.537 L999.936 448.163 L973.601 454.983 L947.266 449.971 L920.932 389.854 L894.597 351.163 L868.262 299.741 L841.927 296.536 L815.592 221.344 L789.258 132.723 L762.923 87.9763 L736.588 133.823 L710.253 136.521 L683.918 168.023 L657.583 168.954 L631.249 219.977 L604.914 190.813 L578.579 200.296 L552.244 156.955 L525.909 143.751 L499.574 167.812 L473.24 109.765 L446.905 117.877 L420.57 104.674 L394.235 99.6221 L367.9 101.711 L341.566 136.262 L315.231 193.678 L288.896 115.349 L262.561 165.312 L236.226 185.201 L209.891 157.329  Z" fill="#009af9" fill-rule="evenodd" fill-opacity="0.5"/>
<polyline clip-path="url(#clip371)" style="stroke:#009af9; stroke-linecap:round; stroke-linejoin:round; stroke-width:4; stroke-opacity:1; fill:none" points="209.891,494.387 236.226,504.685 262.561,463.012 288.896,393.385 315.231,442.381 341.566,383.765 367.9,329.254 394.235,313.129 420.57,310.105 446.905,315.421 473.24,293.93 499.574,344.113 525.909,319.047 552.244,331.329 578.579,379.025 604.914,356.039 631.249,388.781 657.583,351.777 683.918,348.633 710.253,325.867 736.588,326.898 762.923,276.916 789.258,332.038 815.592,418.332 841.927,490.469 868.262,480.75 894.597,527.938 920.932,554.865 947.266,628.46 973.601,618.832 999.936,613.532 1026.27,615.693 1052.61,656.944 1078.94,633.727 1105.28,678.676 1131.61,694.259 1157.95,784.952 1184.28,741.659 1210.61,787.381 1236.95,816.162 1263.28,849.323 1289.62,851.545 1315.95,885.677 1342.29,948.313 1368.62,941.878 1394.96,939.025 1421.29,980.611 1447.63,1085.24 1473.96,1164.57 1500.3,1210.18 1526.63,1235.82 1552.97,1272.75 1579.3,1263.29 1605.64,1215.59 1631.97,1166.99 1658.31,1130.76 1684.64,1108.6 1710.98,1109.11 1737.31,1104.58 1763.65,1124.76 1789.98,1092.07 1816.32,1025.89 1842.65,960.948 1868.99,944.898 1895.32,887.117 1921.65,855.602 1947.99,872.673 1974.32,921.08 2000.66,856.524 2026.99,839.98 2053.33,796.117 2079.66,774.242 2106,772.134 2132.33,777.09 2158.67,769.681 2185,663.442 2211.34,635.236 2237.67,635.671 2264.01,594.338 2290.34,436.813 "/>
<path clip-path="url(#clip371)" d="M209.891 1190.47 L236.226 1142.41 L262.561 1134.96 L288.896 1128.84 L315.231 1096.34 L341.566 1084.98 L367.9 1048.86 L394.235 1011.72 L420.57 981.161 L446.905 922.817 L473.24 850.363 L499.574 795.931 L525.909 761.148 L552.244 718.778 L578.579 690.231 L604.914 677.059 L631.249 679.763 L657.583 646.295 L683.918 609.545 L710.253 561.157 L736.588 503.916 L762.923 468.104 L789.258 429.693 L815.592 420.629 L841.927 391.911 L868.262 375.024 L894.597 341.022 L920.932 356.161 L947.266 369.034 L973.601 392.576 L999.936 413.927 L1026.27 419.089 L1052.61 425.132 L1078.94 428.43 L1105.28 426.802 L1131.61 417.648 L1157.95 395.79 L1184.28 399.23 L1210.61 401.987 L1236.95 397.665 L1263.28 385.938 L1289.62 388.412 L1315.95 391.864 L1342.29 383.915 L1368.62 385.353 L1394.96 412.63 L1421.29 457.396 L1447.63 488.987 L1473.96 508.558 L1500.3 552.954 L1526.63 631.322 L1552.97 709.251 L1579.3 800.346 L1605.64 849.868 L1631.97 919.193 L1658.31 977.547 L1684.64 1016.35 L1710.98 1053.51 L1737.31 1080.54 L1763.65 1086.88 L1789.98 1105.69 L1816.32 1107.51 L1842.65 1131.6 L1868.99 1185.73 L1895.32 1237.38 L1921.65 1265.65 L1947.99 1269.26 L1974.32 1266.38 L2000.66 1291.31 L2026.99 1299.4 L2053.33 1300.76 L2079.66 1290.74 L2106 1273.68 L2132.33 1248.87 L2158.67 1248.11 L2185 1222.56 L2211.34 1211.74 L2237.67 1222.1 L2264.01 1217.61 L2290.34 1212.79 L2290.34 1025.52 L2264.01 1042.31 L2237.67 1057.96 L2211.34 1052.06 L2185 1052.4 L2158.67 1086.23 L2132.33 1103.16 L2106 1122.63 L2079.66 1141.47 L2053.33 1148.95 L2026.99 1160.72 L2000.66 1163.75 L1974.32 1137.35 L1947.99 1114.48 L1921.65 1098.08 L1895.32 1047.64 L1868.99 1014.67 L1842.65 970.259 L1816.32 949.592 L1789.98 944.19 L1763.65 944.524 L1737.31 904.085 L1710.98 885.977 L1684.64 865.226 L1658.31 834.678 L1631.97 773.744 L1605.64 713.589 L1579.3 629.25 L1552.97 573.913 L1526.63 484.177 L1500.3 413.984 L1473.96 365.105 L1447.63 343.24 L1421.29 312.52 L1394.96 271.58 L1368.62 229.936 L1342.29 211.21 L1315.95 219.992 L1289.62 219.076 L1263.28 243.092 L1236.95 256.714 L1210.61 251.873 L1184.28 224.979 L1157.95 249.921 L1131.61 266.421 L1105.28 282.905 L1078.94 292.009 L1052.61 282.531 L1026.27 254.401 L999.936 265.784 L973.601 253.949 L947.266 213.905 L920.932 193.692 L894.597 187.042 L868.262 188.616 L841.927 222.627 L815.592 243.388 L789.258 260.668 L762.923 287.662 L736.588 340.996 L710.253 397.625 L683.918 448.012 L657.583 503.425 L631.249 530.414 L604.914 511.921 L578.579 519.275 L552.244 562.384 L525.909 612.005 L499.574 646.652 L473.24 687.888 L446.905 739.782 L420.57 792.734 L394.235 837.63 L367.9 884.582 L341.566 922.659 L315.231 940.511 L288.896 947.102 L262.561 970.252 L236.226 982.622 L209.891 997.087  Z" fill="#e26f46" fill-rule="evenodd" fill-opacity="0.5"/>
<polyline clip-path="url(#clip371)" style="stroke:#e26f46; stroke-linecap:round; stroke-linejoin:round; stroke-width:4; stroke-opacity:1; fill:none" points="209.891,1093.78 236.226,1062.51 262.561,1052.61 288.896,1037.97 315.231,1018.43 341.566,1003.82 367.9,966.723 394.235,924.675 420.57,886.947 446.905,831.3 473.24,769.126 499.574,721.291 525.909,686.576 552.244,640.581 578.579,604.753 604.914,594.49 631.249,605.089 657.583,574.86 683.918,528.779 710.253,479.391 736.588,422.456 762.923,377.883 789.258,345.181 815.592,332.009 841.927,307.269 868.262,281.82 894.597,264.032 920.932,274.926 947.266,291.469 973.601,323.263 999.936,339.855 1026.27,336.745 1052.61,353.832 1078.94,360.22 1105.28,354.854 1131.61,342.035 1157.95,322.856 1184.28,312.104 1210.61,326.93 1236.95,327.189 1263.28,314.515 1289.62,303.744 1315.95,305.928 1342.29,297.563 1368.62,307.644 1394.96,342.105 1421.29,384.958 1447.63,416.114 1473.96,436.832 1500.3,483.469 1526.63,557.75 1552.97,641.582 1579.3,714.798 1605.64,781.729 1631.97,846.468 1658.31,906.113 1684.64,940.79 1710.98,969.741 1737.31,992.311 1763.65,1015.7 1789.98,1024.94 1816.32,1028.55 1842.65,1050.93 1868.99,1100.2 1895.32,1142.51 1921.65,1181.87 1947.99,1191.87 1974.32,1201.86 2000.66,1227.53 2026.99,1230.06 2053.33,1224.86 2079.66,1216.11 2106,1198.16 2132.33,1176.01 2158.67,1167.17 2185,1137.48 2211.34,1131.9 2237.67,1140.03 2264.01,1129.96 2290.34,1119.15 "/>
<polyline clip-path="url(#clip371)" style="stroke:#3da44d; stroke-linecap:round; stroke-linejoin:round; stroke-width:4; stroke-opacity:1; fill:none" stroke-dasharray="16, 10" points="209.891,623.949 236.226,605.458 262.561,577.045 288.896,476.04 315.231,495.498 341.566,422.018 367.9,288.53 394.235,276.514 420.57,249.75 446.905,195.168 473.24,232.651 499.574,277.039 525.909,221.214 552.244,232.022 578.579,257.338 604.914,203.015 631.249,226.853 657.583,177.582 683.918,212.978 710.253,205.262 736.588,151.59 762.923,146.882 789.258,257.202 815.592,375.289 841.927,474.463 868.262,462.061 894.597,530.963 920.932,574.117 947.266,661.646 973.601,617.28 999.936,575.691 1026.27,586.933 1052.61,677.513 1078.94,682.591 1105.28,770.365 1131.61,763.463 1157.95,838.178 1184.28,722.044 1210.61,737.897 1236.95,843.983 1263.28,849.767 1289.62,866.15 1315.95,982.783 1342.29,990.488 1368.62,957.287 1394.96,984.146 1421.29,1021.01 1447.63,1126.77 1473.96,1157.44 1500.3,1196.23 1526.63,1131.01 1552.97,1123.81 1579.3,1128.14 1605.64,1083.57 1631.97,1092.58 1658.31,1101.1 1684.64,1079.85 1710.98,1091.71 1737.31,1081.24 1763.65,1125.87 1789.98,1139.07 1816.32,1125.77 1842.65,1058.71 1868.99,1011.51 1895.32,1000.16 1921.65,978.324 1947.99,1035.8 1974.32,1061.64 2000.66,972.498 2026.99,975.146 2053.33,982.451 2079.66,921.358 2106,868.534 2132.33,897.573 2158.67,841.704 2185,758.952 2211.34,703.209 2237.67,719.59 2264.01,625.274 2290.34,466.627 "/>
<polyline clip-path="url(#clip371)" style="stroke:#c271d2; stroke-linecap:round; stroke-linejoin:round; stroke-width:4; stroke-opacity:1; fill:none" stroke-dasharray="16, 10" points="209.891,1008.45 236.226,969.039 262.561,1011.23 288.896,976.596 315.231,997.97 341.566,1017.3 367.9,943.638 394.235,839.443 420.57,821.09 446.905,892.199 473.24,810.916 499.574,683.883 525.909,648.037 552.244,647.403 578.579,634.348 604.914,572.089 631.249,591.216 657.583,534.458 683.918,454.032 710.253,432.582 736.588,412.057 762.923,351.554 789.258,312.734 815.592,283.62 841.927,271.787 868.262,224.484 894.597,259.147 920.932,296.137 947.266,335.414 973.601,344.21 999.936,292.72 1026.27,282.398 1052.61,288.824 1078.94,362.189 1105.28,394.676 1131.61,308.458 1157.95,300.948 1184.28,303.053 1210.61,356.375 1236.95,331.194 1263.28,310.793 1289.62,344.22 1315.95,271.062 1342.29,284.963 1368.62,305.962 1394.96,348.9 1421.29,409.417 1447.63,437.971 1473.96,424.122 1500.3,487.524 1526.63,565.082 1552.97,650.588 1579.3,738.851 1605.64,752.274 1631.97,817.052 1658.31,875.767 1684.64,947.832 1710.98,942.78 1737.31,987.698 1763.65,981.831 1789.98,994.04 1816.32,965.773 1842.65,988.53 1868.99,1072.77 1895.32,1095.6 1921.65,1148.97 1947.99,1163.96 1974.32,1180.94 2000.66,1219.14 2026.99,1175.62 2053.33,1228.08 2079.66,1203.61 2106,1183.11 2132.33,1152.84 2158.67,1075.71 2185,1080.71 2211.34,1075.68 2237.67,1058.18 2264.01,1054.37 2290.34,1055.43 "/>
<path clip-path="url(#clip370)" d="M1818.95 354.418 L2279.25 354.418 L2279.25 95.2176 L1818.95 95.2176  Z" fill="#ffffff" fill-rule="evenodd" fill-opacity="1"/>
<polyline clip-path="url(#clip370)" style="stroke:#000000; stroke-linecap:round; stroke-linejoin:round; stroke-width:4; stroke-opacity:1; fill:none" points="1818.95,354.418 2279.25,354.418 2279.25,95.2176 1818.95,95.2176 1818.95,354.418 "/>
<polyline clip-path="url(#clip370)" style="stroke:#009af9; stroke-linecap:round; stroke-linejoin:round; stroke-width:4; stroke-opacity:1; fill:none" points="1843.45,147.058 1990.47,147.058 "/>
<path clip-path="url(#clip370)" d="M2019.65 133.62 L2019.65 146.606 L2025.53 146.606 Q2028.8 146.606 2030.58 144.916 Q2032.36 143.227 2032.36 140.102 Q2032.36 137 2030.58 135.31 Q2028.8 133.62 2025.53 133.62 L2019.65 133.62 M2014.98 129.778 L2025.53 129.778 Q2031.34 129.778 2034.3 132.416 Q2037.29 135.032 2037.29 140.102 Q2037.29 145.217 2034.3 147.833 Q2031.34 150.449 2025.53 150.449 L2019.65 150.449 L2019.65 164.338 L2014.98 164.338 L2014.98 129.778 Z" fill="#000000" fill-rule="nonzero" fill-opacity="1" /><path clip-path="url(#clip370)" d="M2043.56 129.778 L2063.43 129.778 L2063.43 133.713 L2048.24 133.713 L2048.24 143.898 L2061.94 143.898 L2061.94 147.833 L2048.24 147.833 L2048.24 164.338 L2043.56 164.338 L2043.56 129.778 Z" fill="#000000" fill-rule="nonzero" fill-opacity="1" /><path clip-path="url(#clip370)" d="M2102.24 139.176 L2102.24 143.203 Q2100.44 142.277 2098.49 141.815 Q2096.55 141.352 2094.47 141.352 Q2091.3 141.352 2089.7 142.324 Q2088.12 143.296 2088.12 145.24 Q2088.12 146.722 2089.26 147.578 Q2090.39 148.412 2093.82 149.176 L2095.28 149.5 Q2099.81 150.472 2101.71 152.254 Q2103.63 154.014 2103.63 157.185 Q2103.63 160.796 2100.76 162.902 Q2097.92 165.009 2092.92 165.009 Q2090.83 165.009 2088.56 164.592 Q2086.32 164.199 2083.82 163.388 L2083.82 158.99 Q2086.18 160.217 2088.47 160.842 Q2090.76 161.444 2093.01 161.444 Q2096.02 161.444 2097.64 160.426 Q2099.26 159.384 2099.26 157.509 Q2099.26 155.773 2098.08 154.847 Q2096.92 153.921 2092.96 153.064 L2091.48 152.717 Q2087.52 151.884 2085.76 150.171 Q2084 148.435 2084 145.426 Q2084 141.768 2086.6 139.778 Q2089.19 137.787 2093.96 137.787 Q2096.32 137.787 2098.4 138.134 Q2100.49 138.481 2102.24 139.176 Z" fill="#000000" fill-rule="nonzero" fill-opacity="1" /><path clip-path="url(#clip370)" d="M2130.6 143.389 Q2132.2 140.518 2134.42 139.153 Q2136.64 137.787 2139.65 137.787 Q2143.7 137.787 2145.9 140.634 Q2148.1 143.458 2148.1 148.689 L2148.1 164.338 L2143.82 164.338 L2143.82 148.828 Q2143.82 145.102 2142.5 143.296 Q2141.18 141.49 2138.47 141.49 Q2135.16 141.49 2133.24 143.69 Q2131.32 145.889 2131.32 149.685 L2131.32 164.338 L2127.04 164.338 L2127.04 148.828 Q2127.04 145.078 2125.72 143.296 Q2124.4 141.49 2121.64 141.49 Q2118.38 141.49 2116.46 143.713 Q2114.54 145.912 2114.54 149.685 L2114.54 164.338 L2110.25 164.338 L2110.25 138.412 L2114.54 138.412 L2114.54 142.44 Q2115.99 140.055 2118.03 138.921 Q2120.07 137.787 2122.87 137.787 Q2125.69 137.787 2127.66 139.222 Q2129.65 140.657 2130.6 143.389 Z" fill="#000000" fill-rule="nonzero" fill-opacity="1" /><path clip-path="url(#clip370)" d="M2166.64 141.398 Q2163.22 141.398 2161.23 144.083 Q2159.23 146.745 2159.23 151.398 Q2159.23 156.051 2161.2 158.736 Q2163.19 161.398 2166.64 161.398 Q2170.04 161.398 2172.04 158.713 Q2174.03 156.027 2174.03 151.398 Q2174.03 146.791 2172.04 144.106 Q2170.04 141.398 2166.64 141.398 M2166.64 137.787 Q2172.2 137.787 2175.37 141.398 Q2178.54 145.009 2178.54 151.398 Q2178.54 157.764 2175.37 161.398 Q2172.2 165.009 2166.64 165.009 Q2161.06 165.009 2157.89 161.398 Q2154.74 157.764 2154.74 151.398 Q2154.74 145.009 2157.89 141.398 Q2161.06 137.787 2166.64 137.787 Z" fill="#000000" fill-rule="nonzero" fill-opacity="1" /><path clip-path="url(#clip370)" d="M2195.65 141.398 Q2192.22 141.398 2190.23 144.083 Q2188.24 146.745 2188.24 151.398 Q2188.24 156.051 2190.21 158.736 Q2192.2 161.398 2195.65 161.398 Q2199.05 161.398 2201.04 158.713 Q2203.03 156.027 2203.03 151.398 Q2203.03 146.791 2201.04 144.106 Q2199.05 141.398 2195.65 141.398 M2195.65 137.787 Q2201.2 137.787 2204.37 141.398 Q2207.54 145.009 2207.54 151.398 Q2207.54 157.764 2204.37 161.398 Q2201.2 165.009 2195.65 165.009 Q2190.07 165.009 2186.9 161.398 Q2183.75 157.764 2183.75 151.398 Q2183.75 145.009 2186.9 141.398 Q2190.07 137.787 2195.65 137.787 Z" fill="#000000" fill-rule="nonzero" fill-opacity="1" /><path clip-path="url(#clip370)" d="M2218.82 131.051 L2218.82 138.412 L2227.59 138.412 L2227.59 141.722 L2218.82 141.722 L2218.82 155.796 Q2218.82 158.967 2219.67 159.87 Q2220.55 160.773 2223.22 160.773 L2227.59 160.773 L2227.59 164.338 L2223.22 164.338 Q2218.29 164.338 2216.41 162.509 Q2214.54 160.657 2214.54 155.796 L2214.54 141.722 L2211.41 141.722 L2211.41 138.412 L2214.54 138.412 L2214.54 131.051 L2218.82 131.051 Z" fill="#000000" fill-rule="nonzero" fill-opacity="1" /><path clip-path="url(#clip370)" d="M2254.74 148.689 L2254.74 164.338 L2250.48 164.338 L2250.48 148.828 Q2250.48 145.148 2249.05 143.319 Q2247.61 141.49 2244.74 141.49 Q2241.29 141.49 2239.3 143.69 Q2237.31 145.889 2237.31 149.685 L2237.31 164.338 L2233.03 164.338 L2233.03 128.319 L2237.31 128.319 L2237.31 142.44 Q2238.84 140.102 2240.9 138.944 Q2242.98 137.787 2245.69 137.787 Q2250.16 137.787 2252.45 140.565 Q2254.74 143.319 2254.74 148.689 Z" fill="#000000" fill-rule="nonzero" fill-opacity="1" /><polyline clip-path="url(#clip370)" style="stroke:#e26f46; stroke-linecap:round; stroke-linejoin:round; stroke-width:4; stroke-opacity:1; fill:none" points="1843.45,198.898 1990.47,198.898 "/>
<path clip-path="url(#clip370)" d="M2019.65 185.46 L2019.65 198.446 L2025.53 198.446 Q2028.8 198.446 2030.58 196.756 Q2032.36 195.067 2032.36 191.942 Q2032.36 188.84 2030.58 187.15 Q2028.8 185.46 2025.53 185.46 L2019.65 185.46 M2014.98 181.618 L2025.53 181.618 Q2031.34 181.618 2034.3 184.256 Q2037.29 186.872 2037.29 191.942 Q2037.29 197.057 2034.3 199.673 Q2031.34 202.289 2025.53 202.289 L2019.65 202.289 L2019.65 216.178 L2014.98 216.178 L2014.98 181.618 Z" fill="#000000" fill-rule="nonzero" fill-opacity="1" /><path clip-path="url(#clip370)" d="M2043.56 181.618 L2063.43 181.618 L2063.43 185.553 L2048.24 185.553 L2048.24 195.738 L2061.94 195.738 L2061.94 199.673 L2048.24 199.673 L2048.24 216.178 L2043.56 216.178 L2043.56 181.618 Z" fill="#000000" fill-rule="nonzero" fill-opacity="1" /><path clip-path="url(#clip370)" d="M2102.24 191.016 L2102.24 195.043 Q2100.44 194.117 2098.49 193.655 Q2096.55 193.192 2094.47 193.192 Q2091.3 193.192 2089.7 194.164 Q2088.12 195.136 2088.12 197.08 Q2088.12 198.562 2089.26 199.418 Q2090.39 200.252 2093.82 201.016 L2095.28 201.34 Q2099.81 202.312 2101.71 204.094 Q2103.63 205.854 2103.63 209.025 Q2103.63 212.636 2100.76 214.742 Q2097.92 216.849 2092.92 216.849 Q2090.83 216.849 2088.56 216.432 Q2086.32 216.039 2083.82 215.228 L2083.82 210.83 Q2086.18 212.057 2088.47 212.682 Q2090.76 213.284 2093.01 213.284 Q2096.02 213.284 2097.64 212.266 Q2099.26 211.224 2099.26 209.349 Q2099.26 207.613 2098.08 206.687 Q2096.92 205.761 2092.96 204.904 L2091.48 204.557 Q2087.52 203.724 2085.76 202.011 Q2084 200.275 2084 197.266 Q2084 193.608 2086.6 191.618 Q2089.19 189.627 2093.96 189.627 Q2096.32 189.627 2098.4 189.974 Q2100.49 190.321 2102.24 191.016 Z" fill="#000000" fill-rule="nonzero" fill-opacity="1" /><path clip-path="url(#clip370)" d="M2130.6 195.229 Q2132.2 192.358 2134.42 190.993 Q2136.64 189.627 2139.65 189.627 Q2143.7 189.627 2145.9 192.474 Q2148.1 195.298 2148.1 200.529 L2148.1 216.178 L2143.82 216.178 L2143.82 200.668 Q2143.82 196.942 2142.5 195.136 Q2141.18 193.33 2138.47 193.33 Q2135.16 193.33 2133.24 195.53 Q2131.32 197.729 2131.32 201.525 L2131.32 216.178 L2127.04 216.178 L2127.04 200.668 Q2127.04 196.918 2125.72 195.136 Q2124.4 193.33 2121.64 193.33 Q2118.38 193.33 2116.46 195.553 Q2114.54 197.752 2114.54 201.525 L2114.54 216.178 L2110.25 216.178 L2110.25 190.252 L2114.54 190.252 L2114.54 194.28 Q2115.99 191.895 2118.03 190.761 Q2120.07 189.627 2122.87 189.627 Q2125.69 189.627 2127.66 191.062 Q2129.65 192.497 2130.6 195.229 Z" fill="#000000" fill-rule="nonzero" fill-opacity="1" /><path clip-path="url(#clip370)" d="M2166.64 193.238 Q2163.22 193.238 2161.23 195.923 Q2159.23 198.585 2159.23 203.238 Q2159.23 207.891 2161.2 210.576 Q2163.19 213.238 2166.64 213.238 Q2170.04 213.238 2172.04 210.553 Q2174.03 207.867 2174.03 203.238 Q2174.03 198.631 2172.04 195.946 Q2170.04 193.238 2166.64 193.238 M2166.64 189.627 Q2172.2 189.627 2175.37 193.238 Q2178.54 196.849 2178.54 203.238 Q2178.54 209.604 2175.37 213.238 Q2172.2 216.849 2166.64 216.849 Q2161.06 216.849 2157.89 213.238 Q2154.74 209.604 2154.74 203.238 Q2154.74 196.849 2157.89 193.238 Q2161.06 189.627 2166.64 189.627 Z" fill="#000000" fill-rule="nonzero" fill-opacity="1" /><path clip-path="url(#clip370)" d="M2195.65 193.238 Q2192.22 193.238 2190.23 195.923 Q2188.24 198.585 2188.24 203.238 Q2188.24 207.891 2190.21 210.576 Q2192.2 213.238 2195.65 213.238 Q2199.05 213.238 2201.04 210.553 Q2203.03 207.867 2203.03 203.238 Q2203.03 198.631 2201.04 195.946 Q2199.05 193.238 2195.65 193.238 M2195.65 189.627 Q2201.2 189.627 2204.37 193.238 Q2207.54 196.849 2207.54 203.238 Q2207.54 209.604 2204.37 213.238 Q2201.2 216.849 2195.65 216.849 Q2190.07 216.849 2186.9 213.238 Q2183.75 209.604 2183.75 203.238 Q2183.75 196.849 2186.9 193.238 Q2190.07 189.627 2195.65 189.627 Z" fill="#000000" fill-rule="nonzero" fill-opacity="1" /><path clip-path="url(#clip370)" d="M2218.82 182.891 L2218.82 190.252 L2227.59 190.252 L2227.59 193.562 L2218.82 193.562 L2218.82 207.636 Q2218.82 210.807 2219.67 211.71 Q2220.55 212.613 2223.22 212.613 L2227.59 212.613 L2227.59 216.178 L2223.22 216.178 Q2218.29 216.178 2216.41 214.349 Q2214.54 212.497 2214.54 207.636 L2214.54 193.562 L2211.41 193.562 L2211.41 190.252 L2214.54 190.252 L2214.54 182.891 L2218.82 182.891 Z" fill="#000000" fill-rule="nonzero" fill-opacity="1" /><path clip-path="url(#clip370)" d="M2254.74 200.529 L2254.74 216.178 L2250.48 216.178 L2250.48 200.668 Q2250.48 196.988 2249.05 195.159 Q2247.61 193.33 2244.74 193.33 Q2241.29 193.33 2239.3 195.53 Q2237.31 197.729 2237.31 201.525 L2237.31 216.178 L2233.03 216.178 L2233.03 180.159 L2237.31 180.159 L2237.31 194.28 Q2238.84 191.942 2240.9 190.784 Q2242.98 189.627 2245.69 189.627 Q2250.16 189.627 2252.45 192.405 Q2254.74 195.159 2254.74 200.529 Z" fill="#000000" fill-rule="nonzero" fill-opacity="1" /><polyline clip-path="url(#clip370)" style="stroke:#3da44d; stroke-linecap:round; stroke-linejoin:round; stroke-width:4; stroke-opacity:1; fill:none" stroke-dasharray="16, 10" points="1843.45,250.738 1990.47,250.738 "/>
<path clip-path="url(#clip370)" d="M2014.98 233.458 L2044.21 233.458 L2044.21 237.393 L2031.94 237.393 L2031.94 268.018 L2027.24 268.018 L2027.24 237.393 L2014.98 237.393 L2014.98 233.458 Z" fill="#000000" fill-rule="nonzero" fill-opacity="1" /><path clip-path="url(#clip370)" d="M2056.6 246.073 Q2055.88 245.657 2055.02 245.471 Q2054.19 245.263 2053.17 245.263 Q2049.56 245.263 2047.62 247.624 Q2045.69 249.962 2045.69 254.36 L2045.69 268.018 L2041.41 268.018 L2041.41 242.092 L2045.69 242.092 L2045.69 246.12 Q2047.04 243.758 2049.19 242.624 Q2051.34 241.467 2054.42 241.467 Q2054.86 241.467 2055.39 241.536 Q2055.93 241.583 2056.57 241.698 L2056.6 246.073 Z" fill="#000000" fill-rule="nonzero" fill-opacity="1" /><path clip-path="url(#clip370)" d="M2060.62 257.786 L2060.62 242.092 L2064.88 242.092 L2064.88 257.624 Q2064.88 261.305 2066.32 263.156 Q2067.75 264.985 2070.62 264.985 Q2074.07 264.985 2076.06 262.786 Q2078.08 260.587 2078.08 256.791 L2078.08 242.092 L2082.34 242.092 L2082.34 268.018 L2078.08 268.018 L2078.08 264.036 Q2076.53 266.397 2074.47 267.555 Q2072.43 268.689 2069.72 268.689 Q2065.25 268.689 2062.94 265.911 Q2060.62 263.133 2060.62 257.786 M2071.34 241.467 L2071.34 241.467 Z" fill="#000000" fill-rule="nonzero" fill-opacity="1" /><path clip-path="url(#clip370)" d="M2113.29 253.99 L2113.29 256.073 L2093.7 256.073 Q2093.98 260.471 2096.34 262.786 Q2098.73 265.078 2102.96 265.078 Q2105.42 265.078 2107.71 264.476 Q2110.02 263.874 2112.29 262.67 L2112.29 266.698 Q2110 267.67 2107.59 268.18 Q2105.18 268.689 2102.71 268.689 Q2096.5 268.689 2092.87 265.078 Q2089.26 261.467 2089.26 255.309 Q2089.26 248.944 2092.68 245.217 Q2096.13 241.467 2101.97 241.467 Q2107.2 241.467 2110.23 244.846 Q2113.29 248.203 2113.29 253.99 M2109.03 252.74 Q2108.98 249.245 2107.06 247.161 Q2105.16 245.078 2102.01 245.078 Q2098.45 245.078 2096.3 247.092 Q2094.17 249.106 2093.84 252.763 L2109.03 252.74 Z" fill="#000000" fill-rule="nonzero" fill-opacity="1" /><polyline clip-path="url(#clip370)" style="stroke:#c271d2; stroke-linecap:round; stroke-linejoin:round; stroke-width:4; stroke-opacity:1; fill:none" stroke-dasharray="16, 10" points="1843.45,302.578 1990.47,302.578 "/>
<path clip-path="url(#clip370)" d="M2014.98 285.298 L2044.21 285.298 L2044.21 289.233 L2031.94 289.233 L2031.94 319.858 L2027.24 319.858 L2027.24 289.233 L2014.98 289.233 L2014.98 285.298 Z" fill="#000000" fill-rule="nonzero" fill-opacity="1" /><path clip-path="url(#clip370)" d="M2056.6 297.913 Q2055.88 297.497 2055.02 297.311 Q2054.19 297.103 2053.17 297.103 Q2049.56 297.103 2047.62 299.464 Q2045.69 301.802 2045.69 306.2 L2045.69 319.858 L2041.41 319.858 L2041.41 293.932 L2045.69 293.932 L2045.69 297.96 Q2047.04 295.598 2049.19 294.464 Q2051.34 293.307 2054.42 293.307 Q2054.86 293.307 2055.39 293.376 Q2055.93 293.423 2056.57 293.538 L2056.6 297.913 Z" fill="#000000" fill-rule="nonzero" fill-opacity="1" /><path clip-path="url(#clip370)" d="M2060.62 309.626 L2060.62 293.932 L2064.88 293.932 L2064.88 309.464 Q2064.88 313.145 2066.32 314.996 Q2067.75 316.825 2070.62 316.825 Q2074.07 316.825 2076.06 314.626 Q2078.08 312.427 2078.08 308.631 L2078.08 293.932 L2082.34 293.932 L2082.34 319.858 L2078.08 319.858 L2078.08 315.876 Q2076.53 318.237 2074.47 319.395 Q2072.43 320.529 2069.72 320.529 Q2065.25 320.529 2062.94 317.751 Q2060.62 314.973 2060.62 309.626 M2071.34 293.307 L2071.34 293.307 Z" fill="#000000" fill-rule="nonzero" fill-opacity="1" /><path clip-path="url(#clip370)" d="M2113.29 305.83 L2113.29 307.913 L2093.7 307.913 Q2093.98 312.311 2096.34 314.626 Q2098.73 316.918 2102.96 316.918 Q2105.42 316.918 2107.71 316.316 Q2110.02 315.714 2112.29 314.51 L2112.29 318.538 Q2110 319.51 2107.59 320.02 Q2105.18 320.529 2102.71 320.529 Q2096.5 320.529 2092.87 316.918 Q2089.26 313.307 2089.26 307.149 Q2089.26 300.784 2092.68 297.057 Q2096.13 293.307 2101.97 293.307 Q2107.2 293.307 2110.23 296.686 Q2113.29 300.043 2113.29 305.83 M2109.03 304.58 Q2108.98 301.085 2107.06 299.001 Q2105.16 296.918 2102.01 296.918 Q2098.45 296.918 2096.3 298.932 Q2094.17 300.946 2093.84 304.603 L2109.03 304.58 Z" fill="#000000" fill-rule="nonzero" fill-opacity="1" /></svg>
