<?xml version="1.0" encoding="utf-8"?>
<svg xmlns="http://www.w3.org/2000/svg" xmlns:xlink="http://www.w3.org/1999/xlink" width="600" height="400" viewBox="0 0 2400 1600">
<defs>
  <clipPath id="clip400">
    <rect x="0" y="0" width="2400" height="1600"/>
  </clipPath>
</defs>
<path clip-path="url(#clip400)" d="M0 1600 L2400 1600 L2400 0 L0 0  Z" fill="#ffffff" fill-rule="evenodd" fill-opacity="1"/>
<defs>
  <clipPath id="clip401">
    <rect x="1393" y="47" width="960" height="1440"/>
  </clipPath>
</defs>
<path clip-path="url(#clip400)" d="M193.936 1486.45 L1152.76 1486.45 L1152.76 47.2441 L193.936 47.2441  Z" fill="#ffffff" fill-rule="evenodd" fill-opacity="1"/>
<defs>
  <clipPath id="clip402">
    <rect x="193" y="47" width="960" height="1440"/>
  </clipPath>
</defs>
<polyline clip-path="url(#clip402)" style="stroke:#000000; stroke-linecap:round; stroke-linejoin:round; stroke-width:2; stroke-opacity:0.1; fill:none" points="209.622,1486.45 209.622,47.2441 "/>
<polyline clip-path="url(#clip402)" style="stroke:#000000; stroke-linecap:round; stroke-linejoin:round; stroke-width:2; stroke-opacity:0.1; fill:none" points="438.622,1486.45 438.622,47.2441 "/>
<polyline clip-path="url(#clip402)" style="stroke:#000000; stroke-linecap:round; stroke-linejoin:round; stroke-width:2; stroke-opacity:0.1; fill:none" points="667.621,1486.45 667.621,47.2441 "/>
<polyline clip-path="url(#clip402)" style="stroke:#000000; stroke-linecap:round; stroke-linejoin:round; stroke-width:2; stroke-opacity:0.1; fill:none" points="896.62,1486.45 896.62,47.2441 "/>
<polyline clip-path="url(#clip402)" style="stroke:#000000; stroke-linecap:round; stroke-linejoin:round; stroke-width:2; stroke-opacity:0.1; fill:none" points="1125.62,1486.45 1125.62,47.2441 "/>
<polyline clip-path="url(#clip402)" style="stroke:#000000; stroke-linecap:round; stroke-linejoin:round; stroke-width:2; stroke-opacity:0.1; fill:none" points="193.936,1451.04 1152.76,1451.04 "/>
<polyline clip-path="url(#clip402)" style="stroke:#000000; stroke-linecap:round; stroke-linejoin:round; stroke-width:2; stroke-opacity:0.1; fill:none" points="193.936,1217.97 1152.76,1217.97 "/>
<polyline clip-path="url(#clip402)" style="stroke:#000000; stroke-linecap:round; stroke-linejoin:round; stroke-width:2; stroke-opacity:0.1; fill:none" points="193.936,984.897 1152.76,984.897 "/>
<polyline clip-path="url(#clip402)" style="stroke:#000000; stroke-linecap:round; stroke-linejoin:round; stroke-width:2; stroke-opacity:0.1; fill:none" points="193.936,751.827 1152.76,751.827 "/>
<polyline clip-path="url(#clip402)" style="stroke:#000000; stroke-linecap:round; stroke-linejoin:round; stroke-width:2; stroke-opacity:0.1; fill:none" points="193.936,518.756 1152.76,518.756 "/>
<polyline clip-path="url(#clip402)" style="stroke:#000000; stroke-linecap:round; stroke-linejoin:round; stroke-width:2; stroke-opacity:0.1; fill:none" points="193.936,285.686 1152.76,285.686 "/>
<polyline clip-path="url(#clip402)" style="stroke:#000000; stroke-linecap:round; stroke-linejoin:round; stroke-width:2; stroke-opacity:0.1; fill:none" points="193.936,52.615 1152.76,52.615 "/>
<polyline clip-path="url(#clip400)" style="stroke:#000000; stroke-linecap:round; stroke-linejoin:round; stroke-width:4; stroke-opacity:1; fill:none" points="193.936,1486.45 1152.76,1486.45 "/>
<polyline clip-path="url(#clip400)" style="stroke:#000000; stroke-linecap:round; stroke-linejoin:round; stroke-width:4; stroke-opacity:1; fill:none" points="209.622,1486.45 209.622,1467.55 "/>
<polyline clip-path="url(#clip400)" style="stroke:#000000; stroke-linecap:round; stroke-linejoin:round; stroke-width:4; stroke-opacity:1; fill:none" points="438.622,1486.45 438.622,1467.55 "/>
<polyline clip-path="url(#clip400)" style="stroke:#000000; stroke-linecap:round; stroke-linejoin:round; stroke-width:4; stroke-opacity:1; fill:none" points="667.621,1486.45 667.621,1467.55 "/>
<polyline clip-path="url(#clip400)" style="stroke:#000000; stroke-linecap:round; stroke-linejoin:round; stroke-width:4; stroke-opacity:1; fill:none" points="896.62,1486.45 896.62,1467.55 "/>
<polyline clip-path="url(#clip400)" style="stroke:#000000; stroke-linecap:round; stroke-linejoin:round; stroke-width:4; stroke-opacity:1; fill:none" points="1125.62,1486.45 1125.62,1467.55 "/>
<path clip-path="url(#clip400)" d="M209.622 1517.37 Q206.011 1517.37 204.183 1520.93 Q202.377 1524.47 202.377 1531.6 Q202.377 1538.71 204.183 1542.27 Q206.011 1545.82 209.622 1545.82 Q213.257 1545.82 215.062 1542.27 Q216.891 1538.71 216.891 1531.6 Q216.891 1524.47 215.062 1520.93 Q213.257 1517.37 209.622 1517.37 M209.622 1513.66 Q215.433 1513.66 218.488 1518.27 Q221.567 1522.85 221.567 1531.6 Q221.567 1540.33 218.488 1544.94 Q215.433 1549.52 209.622 1549.52 Q203.812 1549.52 200.734 1544.94 Q197.678 1540.33 197.678 1531.6 Q197.678 1522.85 200.734 1518.27 Q203.812 1513.66 209.622 1513.66 Z" fill="#000000" fill-rule="nonzero" fill-opacity="1" /><path clip-path="url(#clip400)" d="M417.395 1544.91 L433.714 1544.91 L433.714 1548.85 L411.77 1548.85 L411.77 1544.91 Q414.432 1542.16 419.015 1537.53 Q423.622 1532.88 424.802 1531.53 Q427.048 1529.01 427.927 1527.27 Q428.83 1525.51 428.83 1523.82 Q428.83 1521.07 426.886 1519.33 Q424.964 1517.6 421.863 1517.6 Q419.663 1517.6 417.21 1518.36 Q414.779 1519.13 412.001 1520.68 L412.001 1515.95 Q414.826 1514.82 417.279 1514.24 Q419.733 1513.66 421.77 1513.66 Q427.14 1513.66 430.335 1516.35 Q433.529 1519.03 433.529 1523.52 Q433.529 1525.65 432.719 1527.57 Q431.932 1529.47 429.825 1532.07 Q429.247 1532.74 426.145 1535.95 Q423.043 1539.15 417.395 1544.91 Z" fill="#000000" fill-rule="nonzero" fill-opacity="1" /><path clip-path="url(#clip400)" d="M453.529 1517.37 Q449.918 1517.37 448.089 1520.93 Q446.284 1524.47 446.284 1531.6 Q446.284 1538.71 448.089 1542.27 Q449.918 1545.82 453.529 1545.82 Q457.163 1545.82 458.969 1542.27 Q460.798 1538.71 460.798 1531.6 Q460.798 1524.47 458.969 1520.93 Q457.163 1517.37 453.529 1517.37 M453.529 1513.66 Q459.339 1513.66 462.395 1518.27 Q465.473 1522.85 465.473 1531.6 Q465.473 1540.33 462.395 1544.94 Q459.339 1549.52 453.529 1549.52 Q447.719 1549.52 444.64 1544.94 Q441.585 1540.33 441.585 1531.6 Q441.585 1522.85 444.64 1518.27 Q447.719 1513.66 453.529 1513.66 Z" fill="#000000" fill-rule="nonzero" fill-opacity="1" /><path clip-path="url(#clip400)" d="M655.792 1518.36 L643.987 1536.81 L655.792 1536.81 L655.792 1518.36 M654.565 1514.29 L660.445 1514.29 L660.445 1536.81 L665.376 1536.81 L665.376 1540.7 L660.445 1540.7 L660.445 1548.85 L655.792 1548.85 L655.792 1540.7 L640.191 1540.7 L640.191 1536.19 L654.565 1514.29 Z" fill="#000000" fill-rule="nonzero" fill-opacity="1" /><path clip-path="url(#clip400)" d="M683.107 1517.37 Q679.496 1517.37 677.667 1520.93 Q675.862 1524.47 675.862 1531.6 Q675.862 1538.71 677.667 1542.27 Q679.496 1545.82 683.107 1545.82 Q686.741 1545.82 688.547 1542.27 Q690.375 1538.71 690.375 1531.6 Q690.375 1524.47 688.547 1520.93 Q686.741 1517.37 683.107 1517.37 M683.107 1513.66 Q688.917 1513.66 691.973 1518.27 Q695.051 1522.85 695.051 1531.6 Q695.051 1540.33 691.973 1544.94 Q688.917 1549.52 683.107 1549.52 Q677.297 1549.52 674.218 1544.94 Q671.163 1540.33 671.163 1531.6 Q671.163 1522.85 674.218 1518.27 Q677.297 1513.66 683.107 1513.66 Z" fill="#000000" fill-rule="nonzero" fill-opacity="1" /><path clip-path="url(#clip400)" d="M882.025 1529.7 Q878.877 1529.7 877.025 1531.86 Q875.197 1534.01 875.197 1537.76 Q875.197 1541.49 877.025 1543.66 Q878.877 1545.82 882.025 1545.82 Q885.174 1545.82 887.002 1543.66 Q888.854 1541.49 888.854 1537.76 Q888.854 1534.01 887.002 1531.86 Q885.174 1529.7 882.025 1529.7 M891.308 1515.05 L891.308 1519.31 Q889.549 1518.48 887.743 1518.04 Q885.961 1517.6 884.201 1517.6 Q879.572 1517.6 877.118 1520.72 Q874.687 1523.85 874.34 1530.17 Q875.706 1528.15 877.766 1527.09 Q879.826 1526 882.303 1526 Q887.511 1526 890.521 1529.17 Q893.553 1532.32 893.553 1537.76 Q893.553 1543.08 890.405 1546.3 Q887.257 1549.52 882.025 1549.52 Q876.03 1549.52 872.859 1544.94 Q869.688 1540.33 869.688 1531.6 Q869.688 1523.41 873.576 1518.55 Q877.465 1513.66 884.016 1513.66 Q885.775 1513.66 887.558 1514.01 Q889.363 1514.36 891.308 1515.05 Z" fill="#000000" fill-rule="nonzero" fill-opacity="1" /><path clip-path="url(#clip400)" d="M911.609 1517.37 Q907.997 1517.37 906.169 1520.93 Q904.363 1524.47 904.363 1531.6 Q904.363 1538.71 906.169 1542.27 Q907.997 1545.82 911.609 1545.82 Q915.243 1545.82 917.048 1542.27 Q918.877 1538.71 918.877 1531.6 Q918.877 1524.47 917.048 1520.93 Q915.243 1517.37 911.609 1517.37 M911.609 1513.66 Q917.419 1513.66 920.474 1518.27 Q923.553 1522.85 923.553 1531.6 Q923.553 1540.33 920.474 1544.94 Q917.419 1549.52 911.609 1549.52 Q905.798 1549.52 902.72 1544.94 Q899.664 1540.33 899.664 1531.6 Q899.664 1522.85 902.72 1518.27 Q905.798 1513.66 911.609 1513.66 Z" fill="#000000" fill-rule="nonzero" fill-opacity="1" /><path clip-path="url(#clip400)" d="M1110.49 1532.44 Q1107.16 1532.44 1105.24 1534.22 Q1103.34 1536 1103.34 1539.13 Q1103.34 1542.25 1105.24 1544.03 Q1107.16 1545.82 1110.49 1545.82 Q1113.83 1545.82 1115.75 1544.03 Q1117.67 1542.23 1117.67 1539.13 Q1117.67 1536 1115.75 1534.22 Q1113.85 1532.44 1110.49 1532.44 M1105.82 1530.45 Q1102.81 1529.7 1101.12 1527.64 Q1099.45 1525.58 1099.45 1522.62 Q1099.45 1518.48 1102.39 1516.07 Q1105.35 1513.66 1110.49 1513.66 Q1115.65 1513.66 1118.59 1516.07 Q1121.53 1518.48 1121.53 1522.62 Q1121.53 1525.58 1119.84 1527.64 Q1118.18 1529.7 1115.19 1530.45 Q1118.57 1531.23 1120.45 1533.52 Q1122.34 1535.82 1122.34 1539.13 Q1122.34 1544.15 1119.27 1546.83 Q1116.21 1549.52 1110.49 1549.52 Q1104.77 1549.52 1101.7 1546.83 Q1098.64 1544.15 1098.64 1539.13 Q1098.64 1535.82 1100.54 1533.52 Q1102.44 1531.23 1105.82 1530.45 M1104.1 1523.06 Q1104.1 1525.75 1105.77 1527.25 Q1107.46 1528.76 1110.49 1528.76 Q1113.5 1528.76 1115.19 1527.25 Q1116.9 1525.75 1116.9 1523.06 Q1116.9 1520.38 1115.19 1518.87 Q1113.5 1517.37 1110.49 1517.37 Q1107.46 1517.37 1105.77 1518.87 Q1104.1 1520.38 1104.1 1523.06 Z" fill="#000000" fill-rule="nonzero" fill-opacity="1" /><path clip-path="url(#clip400)" d="M1140.65 1517.37 Q1137.04 1517.37 1135.21 1520.93 Q1133.41 1524.47 1133.41 1531.6 Q1133.41 1538.71 1135.21 1542.27 Q1137.04 1545.82 1140.65 1545.82 Q1144.29 1545.82 1146.09 1542.27 Q1147.92 1538.71 1147.92 1531.6 Q1147.92 1524.47 1146.09 1520.93 Q1144.29 1517.37 1140.65 1517.37 M1140.65 1513.66 Q1146.46 1513.66 1149.52 1518.27 Q1152.6 1522.85 1152.6 1531.6 Q1152.6 1540.33 1149.52 1544.94 Q1146.46 1549.52 1140.65 1549.52 Q1134.84 1549.52 1131.77 1544.94 Q1128.71 1540.33 1128.71 1531.6 Q1128.71 1522.85 1131.77 1518.27 Q1134.84 1513.66 1140.65 1513.66 Z" fill="#000000" fill-rule="nonzero" fill-opacity="1" /><polyline clip-path="url(#clip400)" style="stroke:#000000; stroke-linecap:round; stroke-linejoin:round; stroke-width:4; stroke-opacity:1; fill:none" points="193.936,1486.45 193.936,47.2441 "/>
<polyline clip-path="url(#clip400)" style="stroke:#000000; stroke-linecap:round; stroke-linejoin:round; stroke-width:4; stroke-opacity:1; fill:none" points="193.936,1451.04 212.834,1451.04 "/>
<polyline clip-path="url(#clip400)" style="stroke:#000000; stroke-linecap:round; stroke-linejoin:round; stroke-width:4; stroke-opacity:1; fill:none" points="193.936,1217.97 212.834,1217.97 "/>
<polyline clip-path="url(#clip400)" style="stroke:#000000; stroke-linecap:round; stroke-linejoin:round; stroke-width:4; stroke-opacity:1; fill:none" points="193.936,984.897 212.834,984.897 "/>
<polyline clip-path="url(#clip400)" style="stroke:#000000; stroke-linecap:round; stroke-linejoin:round; stroke-width:4; stroke-opacity:1; fill:none" points="193.936,751.827 212.834,751.827 "/>
<polyline clip-path="url(#clip400)" style="stroke:#000000; stroke-linecap:round; stroke-linejoin:round; stroke-width:4; stroke-opacity:1; fill:none" points="193.936,518.756 212.834,518.756 "/>
<polyline clip-path="url(#clip400)" style="stroke:#000000; stroke-linecap:round; stroke-linejoin:round; stroke-width:4; stroke-opacity:1; fill:none" points="193.936,285.686 212.834,285.686 "/>
<polyline clip-path="url(#clip400)" style="stroke:#000000; stroke-linecap:round; stroke-linejoin:round; stroke-width:4; stroke-opacity:1; fill:none" points="193.936,52.615 212.834,52.615 "/>
<path clip-path="url(#clip400)" d="M51.9875 1451.49 L81.6633 1451.49 L81.6633 1455.43 L51.9875 1455.43 L51.9875 1451.49 Z" fill="#000000" fill-rule="nonzero" fill-opacity="1" /><path clip-path="url(#clip400)" d="M92.566 1464.38 L100.205 1464.38 L100.205 1438.02 L91.8947 1439.68 L91.8947 1435.43 L100.159 1433.76 L104.834 1433.76 L104.834 1464.38 L112.473 1464.38 L112.473 1468.32 L92.566 1468.32 L92.566 1464.38 Z" fill="#000000" fill-rule="nonzero" fill-opacity="1" /><path clip-path="url(#clip400)" d="M121.918 1462.44 L126.802 1462.44 L126.802 1468.32 L121.918 1468.32 L121.918 1462.44 Z" fill="#000000" fill-rule="nonzero" fill-opacity="1" /><path clip-path="url(#clip400)" d="M137.033 1433.76 L155.39 1433.76 L155.39 1437.69 L141.316 1437.69 L141.316 1446.17 Q142.334 1445.82 143.353 1445.66 Q144.371 1445.47 145.39 1445.47 Q151.177 1445.47 154.556 1448.64 Q157.936 1451.81 157.936 1457.23 Q157.936 1462.81 154.464 1465.91 Q150.992 1468.99 144.672 1468.99 Q142.496 1468.99 140.228 1468.62 Q137.982 1468.25 135.575 1467.51 L135.575 1462.81 Q137.658 1463.94 139.881 1464.5 Q142.103 1465.05 144.58 1465.05 Q148.584 1465.05 150.922 1462.95 Q153.26 1460.84 153.26 1457.23 Q153.26 1453.62 150.922 1451.51 Q148.584 1449.41 144.58 1449.41 Q142.705 1449.41 140.83 1449.82 Q138.978 1450.24 137.033 1451.12 L137.033 1433.76 Z" fill="#000000" fill-rule="nonzero" fill-opacity="1" /><path clip-path="url(#clip400)" d="M50.9921 1218.42 L80.6679 1218.42 L80.6679 1222.35 L50.9921 1222.35 L50.9921 1218.42 Z" fill="#000000" fill-rule="nonzero" fill-opacity="1" /><path clip-path="url(#clip400)" d="M91.5706 1231.31 L99.2095 1231.31 L99.2095 1204.95 L90.8993 1206.61 L90.8993 1202.35 L99.1632 1200.69 L103.839 1200.69 L103.839 1231.31 L111.478 1231.31 L111.478 1235.25 L91.5706 1235.25 L91.5706 1231.31 Z" fill="#000000" fill-rule="nonzero" fill-opacity="1" /><path clip-path="url(#clip400)" d="M120.922 1229.37 L125.807 1229.37 L125.807 1235.25 L120.922 1235.25 L120.922 1229.37 Z" fill="#000000" fill-rule="nonzero" fill-opacity="1" /><path clip-path="url(#clip400)" d="M145.992 1203.77 Q142.381 1203.77 140.552 1207.33 Q138.746 1210.87 138.746 1218 Q138.746 1225.11 140.552 1228.67 Q142.381 1232.22 145.992 1232.22 Q149.626 1232.22 151.431 1228.67 Q153.26 1225.11 153.26 1218 Q153.26 1210.87 151.431 1207.33 Q149.626 1203.77 145.992 1203.77 M145.992 1200.06 Q151.802 1200.06 154.857 1204.67 Q157.936 1209.25 157.936 1218 Q157.936 1226.73 154.857 1231.34 Q151.802 1235.92 145.992 1235.92 Q140.181 1235.92 137.103 1231.34 Q134.047 1226.73 134.047 1218 Q134.047 1209.25 137.103 1204.67 Q140.181 1200.06 145.992 1200.06 Z" fill="#000000" fill-rule="nonzero" fill-opacity="1" /><path clip-path="url(#clip400)" d="M51.9875 985.349 L81.6633 985.349 L81.6633 989.284 L51.9875 989.284 L51.9875 985.349 Z" fill="#000000" fill-rule="nonzero" fill-opacity="1" /><path clip-path="url(#clip400)" d="M101.756 970.696 Q98.1447 970.696 96.316 974.261 Q94.5104 977.802 94.5104 984.932 Q94.5104 992.039 96.316 995.603 Q98.1447 999.145 101.756 999.145 Q105.39 999.145 107.196 995.603 Q109.024 992.039 109.024 984.932 Q109.024 977.802 107.196 974.261 Q105.39 970.696 101.756 970.696 M101.756 966.992 Q107.566 966.992 110.621 971.599 Q113.7 976.182 113.7 984.932 Q113.7 993.659 110.621 998.265 Q107.566 1002.85 101.756 1002.85 Q95.9456 1002.85 92.8669 998.265 Q89.8114 993.659 89.8114 984.932 Q89.8114 976.182 92.8669 971.599 Q95.9456 966.992 101.756 966.992 Z" fill="#000000" fill-rule="nonzero" fill-opacity="1" /><path clip-path="url(#clip400)" d="M121.918 996.298 L126.802 996.298 L126.802 1002.18 L121.918 1002.18 L121.918 996.298 Z" fill="#000000" fill-rule="nonzero" fill-opacity="1" /><path clip-path="url(#clip400)" d="M137.033 967.617 L155.39 967.617 L155.39 971.553 L141.316 971.553 L141.316 980.025 Q142.334 979.677 143.353 979.515 Q144.371 979.33 145.39 979.33 Q151.177 979.33 154.556 982.502 Q157.936 985.673 157.936 991.089 Q157.936 996.668 154.464 999.77 Q150.992 1002.85 144.672 1002.85 Q142.496 1002.85 140.228 1002.48 Q137.982 1002.11 135.575 1001.37 L135.575 996.668 Q137.658 997.802 139.881 998.358 Q142.103 998.913 144.58 998.913 Q148.584 998.913 150.922 996.807 Q153.26 994.701 153.26 991.089 Q153.26 987.478 150.922 985.372 Q148.584 983.265 144.58 983.265 Q142.705 983.265 140.83 983.682 Q138.978 984.099 137.033 984.978 L137.033 967.617 Z" fill="#000000" fill-rule="nonzero" fill-opacity="1" /><path clip-path="url(#clip400)" d="M100.76 737.625 Q97.1493 737.625 95.3206 741.19 Q93.515 744.732 93.515 751.862 Q93.515 758.968 95.3206 762.533 Q97.1493 766.074 100.76 766.074 Q104.395 766.074 106.2 762.533 Q108.029 758.968 108.029 751.862 Q108.029 744.732 106.2 741.19 Q104.395 737.625 100.76 737.625 M100.76 733.922 Q106.571 733.922 109.626 738.528 Q112.705 743.112 112.705 751.862 Q112.705 760.588 109.626 765.195 Q106.571 769.778 100.76 769.778 Q94.9502 769.778 91.8715 765.195 Q88.816 760.588 88.816 751.862 Q88.816 743.112 91.8715 738.528 Q94.9502 733.922 100.76 733.922 Z" fill="#000000" fill-rule="nonzero" fill-opacity="1" /><path clip-path="url(#clip400)" d="M120.922 763.227 L125.807 763.227 L125.807 769.107 L120.922 769.107 L120.922 763.227 Z" fill="#000000" fill-rule="nonzero" fill-opacity="1" /><path clip-path="url(#clip400)" d="M145.992 737.625 Q142.381 737.625 140.552 741.19 Q138.746 744.732 138.746 751.862 Q138.746 758.968 140.552 762.533 Q142.381 766.074 145.992 766.074 Q149.626 766.074 151.431 762.533 Q153.26 758.968 153.26 751.862 Q153.26 744.732 151.431 741.19 Q149.626 737.625 145.992 737.625 M145.992 733.922 Q151.802 733.922 154.857 738.528 Q157.936 743.112 157.936 751.862 Q157.936 760.588 154.857 765.195 Q151.802 769.778 145.992 769.778 Q140.181 769.778 137.103 765.195 Q134.047 760.588 134.047 751.862 Q134.047 743.112 137.103 738.528 Q140.181 733.922 145.992 733.922 Z" fill="#000000" fill-rule="nonzero" fill-opacity="1" /><path clip-path="url(#clip400)" d="M101.756 504.555 Q98.1447 504.555 96.316 508.12 Q94.5104 511.661 94.5104 518.791 Q94.5104 525.897 96.316 529.462 Q98.1447 533.004 101.756 533.004 Q105.39 533.004 107.196 529.462 Q109.024 525.897 109.024 518.791 Q109.024 511.661 107.196 508.12 Q105.39 504.555 101.756 504.555 M101.756 500.851 Q107.566 500.851 110.621 505.458 Q113.7 510.041 113.7 518.791 Q113.7 527.518 110.621 532.124 Q107.566 536.707 101.756 536.707 Q95.9456 536.707 92.8669 532.124 Q89.8114 527.518 89.8114 518.791 Q89.8114 510.041 92.8669 505.458 Q95.9456 500.851 101.756 500.851 Z" fill="#000000" fill-rule="nonzero" fill-opacity="1" /><path clip-path="url(#clip400)" d="M121.918 530.157 L126.802 530.157 L126.802 536.036 L121.918 536.036 L121.918 530.157 Z" fill="#000000" fill-rule="nonzero" fill-opacity="1" /><path clip-path="url(#clip400)" d="M137.033 501.476 L155.39 501.476 L155.39 505.411 L141.316 505.411 L141.316 513.884 Q142.334 513.536 143.353 513.374 Q144.371 513.189 145.39 513.189 Q151.177 513.189 154.556 516.36 Q157.936 519.532 157.936 524.948 Q157.936 530.527 154.464 533.629 Q150.992 536.707 144.672 536.707 Q142.496 536.707 140.228 536.337 Q137.982 535.967 135.575 535.226 L135.575 530.527 Q137.658 531.661 139.881 532.217 Q142.103 532.772 144.58 532.772 Q148.584 532.772 150.922 530.666 Q153.26 528.559 153.26 524.948 Q153.26 521.337 150.922 519.231 Q148.584 517.124 144.58 517.124 Q142.705 517.124 140.83 517.541 Q138.978 517.958 137.033 518.837 L137.033 501.476 Z" fill="#000000" fill-rule="nonzero" fill-opacity="1" /><path clip-path="url(#clip400)" d="M91.5706 299.03 L99.2095 299.03 L99.2095 272.665 L90.8993 274.331 L90.8993 270.072 L99.1632 268.406 L103.839 268.406 L103.839 299.03 L111.478 299.03 L111.478 302.966 L91.5706 302.966 L91.5706 299.03 Z" fill="#000000" fill-rule="nonzero" fill-opacity="1" /><path clip-path="url(#clip400)" d="M120.922 297.086 L125.807 297.086 L125.807 302.966 L120.922 302.966 L120.922 297.086 Z" fill="#000000" fill-rule="nonzero" fill-opacity="1" /><path clip-path="url(#clip400)" d="M145.992 271.484 Q142.381 271.484 140.552 275.049 Q138.746 278.591 138.746 285.72 Q138.746 292.827 140.552 296.392 Q142.381 299.933 145.992 299.933 Q149.626 299.933 151.431 296.392 Q153.26 292.827 153.26 285.72 Q153.26 278.591 151.431 275.049 Q149.626 271.484 145.992 271.484 M145.992 267.781 Q151.802 267.781 154.857 272.387 Q157.936 276.97 157.936 285.72 Q157.936 294.447 154.857 299.054 Q151.802 303.637 145.992 303.637 Q140.181 303.637 137.103 299.054 Q134.047 294.447 134.047 285.72 Q134.047 276.97 137.103 272.387 Q140.181 267.781 145.992 267.781 Z" fill="#000000" fill-rule="nonzero" fill-opacity="1" /><path clip-path="url(#clip400)" d="M92.566 65.9599 L100.205 65.9599 L100.205 39.5943 L91.8947 41.2609 L91.8947 37.0017 L100.159 35.335 L104.834 35.335 L104.834 65.9599 L112.473 65.9599 L112.473 69.895 L92.566 69.895 L92.566 65.9599 Z" fill="#000000" fill-rule="nonzero" fill-opacity="1" /><path clip-path="url(#clip400)" d="M121.918 64.0154 L126.802 64.0154 L126.802 69.895 L121.918 69.895 L121.918 64.0154 Z" fill="#000000" fill-rule="nonzero" fill-opacity="1" /><path clip-path="url(#clip400)" d="M137.033 35.335 L155.39 35.335 L155.39 39.2702 L141.316 39.2702 L141.316 47.7424 Q142.334 47.3951 143.353 47.2331 Q144.371 47.0479 145.39 47.0479 Q151.177 47.0479 154.556 50.2192 Q157.936 53.3905 157.936 58.8071 Q157.936 64.3858 154.464 67.4876 Q150.992 70.5663 144.672 70.5663 Q142.496 70.5663 140.228 70.1959 Q137.982 69.8256 135.575 69.0848 L135.575 64.3858 Q137.658 65.52 139.881 66.0756 Q142.103 66.6311 144.58 66.6311 Q148.584 66.6311 150.922 64.5247 Q153.26 62.4182 153.26 58.8071 Q153.26 55.196 150.922 53.0896 Q148.584 50.9831 144.58 50.9831 Q142.705 50.9831 140.83 51.3997 Q138.978 51.8164 137.033 52.696 L137.033 35.335 Z" fill="#000000" fill-rule="nonzero" fill-opacity="1" /><polyline clip-path="url(#clip402)" style="stroke:#009af9; stroke-linecap:round; stroke-linejoin:round; stroke-width:4; stroke-opacity:1; fill:none" points="221.072,503.741 232.522,520.297 243.972,473.604 255.422,388.684 266.872,453.788 278.322,385.824 289.772,324.373 301.222,313.712 312.672,315.28 324.122,320.997 335.572,293.734 347.022,352.814 358.472,320.803 369.922,337.499 381.372,383.549 392.822,350.694 404.272,389.269 415.722,337.953 427.172,342.949 438.622,306.799 450.072,307.261 461.522,242.996 472.972,305.078 484.422,404.631 495.872,487.33 507.321,468.895 518.771,518.446 530.221,548.089 541.671,638.258 553.121,620.829 564.571,610.958 576.021,617.638 587.471,671.925 598.921,650.736 610.371,707.104 621.821,723.632 633.271,831.679 644.721,772.603 656.171,829.946 667.621,865.706 679.071,905.55 690.521,912.253 701.971,961.95 713.421,1030.8 724.871,1019.78 736.321,1022.55 747.771,1078.82 759.221,1209.58 770.671,1297.15 782.121,1353.88 793.571,1384.13 805.021,1429.45 816.47,1416.35 827.92,1359.42 839.37,1301.88 850.82,1256.03 862.27,1233.28 873.72,1230 885.17,1224.18 896.62,1255.73 908.07,1225.33 919.52,1152.98 930.97,1074.2 942.42,1049.26 953.87,983.286 965.32,945.947 976.77,967.223 988.22,1020.18 999.67,948.896 1011.12,931.75 1022.57,878.633 1034.02,851.177 1045.47,849.026 1056.92,853.269 1068.37,845.083 1079.82,716.352 1091.27,674.324 1102.72,680.714 1114.17,630.428 1125.62,437.117 "/>
<polyline clip-path="url(#clip402)" style="stroke:#e26f46; stroke-linecap:round; stroke-linejoin:round; stroke-width:4; stroke-opacity:1; fill:none" points="221.072,507.049 232.522,519.467 243.972,469.212 255.422,385.245 266.872,444.332 278.322,373.644 289.772,307.906 301.222,288.46 312.672,284.814 324.122,291.225 335.572,265.308 347.022,325.826 358.472,295.598 369.922,310.409 381.372,367.927 392.822,340.208 404.272,379.693 415.722,335.068 427.172,331.277 438.622,303.822 450.072,305.065 461.522,244.79 472.972,311.264 484.422,415.33 495.872,502.323 507.321,490.603 518.771,547.509 530.221,579.981 541.671,668.733 553.121,657.123 564.571,650.73 576.021,653.337 587.471,703.084 598.921,675.085 610.371,729.291 621.821,748.083 633.271,857.454 644.721,805.245 656.171,860.383 667.621,895.091 679.071,935.082 690.521,937.762 701.971,978.922 713.421,1054.46 724.871,1046.7 736.321,1043.26 747.771,1093.41 759.221,1219.58 770.671,1315.25 782.121,1370.26 793.571,1401.18 805.021,1445.72 816.47,1434.3 827.92,1376.78 839.37,1318.17 850.82,1274.47 862.27,1247.76 873.72,1248.38 885.17,1242.91 896.62,1267.25 908.07,1227.83 919.52,1148.02 930.97,1069.7 942.42,1050.34 953.87,980.66 965.32,942.654 976.77,963.24 988.22,1021.62 999.67,943.766 1011.12,923.814 1022.57,870.919 1034.02,844.538 1045.47,841.996 1056.92,847.973 1068.37,839.038 1079.82,710.919 1091.27,676.904 1102.72,677.429 1114.17,627.583 1125.62,437.618 "/>
<polyline clip-path="url(#clip402)" style="stroke:#3da44d; stroke-linecap:round; stroke-linejoin:round; stroke-width:4; stroke-opacity:1; fill:none" points="221.072,663.293 232.522,640.994 243.972,606.729 255.422,484.923 266.872,508.388 278.322,419.775 289.772,258.796 301.222,244.305 312.672,212.029 324.122,146.207 335.572,191.409 347.022,244.938 358.472,177.616 369.922,190.65 381.372,221.18 392.822,155.67 404.272,184.416 415.722,124.998 427.172,167.684 438.622,158.378 450.072,93.6532 461.522,87.9763 472.972,221.016 484.422,363.423 495.872,483.021 507.321,468.065 518.771,551.156 530.221,603.198 541.671,708.754 553.121,655.251 564.571,605.096 576.021,618.654 587.471,727.889 598.921,734.012 610.371,839.863 621.821,831.539 633.271,921.641 644.721,781.59 656.171,800.708 667.621,928.643 679.071,935.618 690.521,955.375 701.971,1096.03 713.421,1105.32 724.871,1065.28 736.321,1097.67 747.771,1142.12 759.221,1269.67 770.671,1306.65 782.121,1353.44 793.571,1274.78 805.021,1266.09 816.47,1271.33 827.92,1217.57 839.37,1228.43 850.82,1238.72 862.27,1213.08 873.72,1227.39 885.17,1214.77 896.62,1268.59 908.07,1284.5 919.52,1268.46 930.97,1187.6 942.42,1130.67 953.87,1116.99 965.32,1090.65 976.77,1159.96 988.22,1191.13 999.67,1083.62 1011.12,1086.82 1022.57,1095.63 1034.02,1021.95 1045.47,958.249 1056.92,993.269 1068.37,925.894 1079.82,826.1 1091.27,758.876 1102.72,778.631 1114.17,664.89 1125.62,473.571 "/>
<path clip-path="url(#clip400)" d="M663.249 302.578 L1120.8 302.578 L1120.8 95.2176 L663.249 95.2176  Z" fill="#ffffff" fill-rule="evenodd" fill-opacity="1"/>
<polyline clip-path="url(#clip400)" style="stroke:#000000; stroke-linecap:round; stroke-linejoin:round; stroke-width:4; stroke-opacity:1; fill:none" points="663.249,302.578 1120.8,302.578 1120.8,95.2176 663.249,95.2176 663.249,302.578 "/>
<polyline clip-path="url(#clip400)" style="stroke:#009af9; stroke-linecap:round; stroke-linejoin:round; stroke-width:4; stroke-opacity:1; fill:none" points="673.902,147.058 737.823,147.058 "/>
<path clip-path="url(#clip400)" d="M748.477 129.778 L753.153 129.778 L753.153 144.384 L768.662 129.778 L774.681 129.778 L757.528 145.889 L775.907 164.338 L769.75 164.338 L753.153 147.694 L753.153 164.338 L748.477 164.338 L748.477 129.778 Z" fill="#000000" fill-rule="nonzero" fill-opacity="1" /><path clip-path="url(#clip400)" d="M790.329 151.305 Q785.167 151.305 783.176 152.486 Q781.185 153.666 781.185 156.514 Q781.185 158.782 782.667 160.125 Q784.171 161.444 786.741 161.444 Q790.282 161.444 792.412 158.944 Q794.565 156.421 794.565 152.254 L794.565 151.305 L790.329 151.305 M798.824 149.546 L798.824 164.338 L794.565 164.338 L794.565 160.402 Q793.106 162.763 790.93 163.898 Q788.755 165.009 785.606 165.009 Q781.625 165.009 779.264 162.787 Q776.926 160.541 776.926 156.791 Q776.926 152.416 779.843 150.194 Q782.782 147.972 788.592 147.972 L794.565 147.972 L794.565 147.555 Q794.565 144.615 792.62 143.018 Q790.699 141.398 787.204 141.398 Q784.981 141.398 782.875 141.93 Q780.768 142.463 778.824 143.527 L778.824 139.592 Q781.162 138.69 783.361 138.25 Q785.56 137.787 787.643 137.787 Q793.268 137.787 796.046 140.703 Q798.824 143.62 798.824 149.546 Z" fill="#000000" fill-rule="nonzero" fill-opacity="1" /><path clip-path="url(#clip400)" d="M807.597 128.319 L811.856 128.319 L811.856 164.338 L807.597 164.338 L807.597 128.319 Z" fill="#000000" fill-rule="nonzero" fill-opacity="1" /><path clip-path="url(#clip400)" d="M840.953 143.389 Q842.551 140.518 844.773 139.153 Q846.995 137.787 850.004 137.787 Q854.055 137.787 856.254 140.634 Q858.453 143.458 858.453 148.689 L858.453 164.338 L854.171 164.338 L854.171 148.828 Q854.171 145.102 852.851 143.296 Q851.532 141.49 848.824 141.49 Q845.513 141.49 843.592 143.69 Q841.671 145.889 841.671 149.685 L841.671 164.338 L837.389 164.338 L837.389 148.828 Q837.389 145.078 836.069 143.296 Q834.75 141.49 831.995 141.49 Q828.731 141.49 826.81 143.713 Q824.889 145.912 824.889 149.685 L824.889 164.338 L820.606 164.338 L820.606 138.412 L824.889 138.412 L824.889 142.44 Q826.347 140.055 828.384 138.921 Q830.421 137.787 833.222 137.787 Q836.046 137.787 838.014 139.222 Q840.004 140.657 840.953 143.389 Z" fill="#000000" fill-rule="nonzero" fill-opacity="1" /><path clip-path="url(#clip400)" d="M878.731 151.305 Q873.569 151.305 871.578 152.486 Q869.587 153.666 869.587 156.514 Q869.587 158.782 871.069 160.125 Q872.574 161.444 875.143 161.444 Q878.685 161.444 880.814 158.944 Q882.967 156.421 882.967 152.254 L882.967 151.305 L878.731 151.305 M887.226 149.546 L887.226 164.338 L882.967 164.338 L882.967 160.402 Q881.509 162.763 879.333 163.898 Q877.157 165.009 874.009 165.009 Q870.027 165.009 867.666 162.787 Q865.328 160.541 865.328 156.791 Q865.328 152.416 868.245 150.194 Q871.185 147.972 876.995 147.972 L882.967 147.972 L882.967 147.555 Q882.967 144.615 881.023 143.018 Q879.101 141.398 875.606 141.398 Q873.384 141.398 871.277 141.93 Q869.171 142.463 867.226 143.527 L867.226 139.592 Q869.564 138.69 871.763 138.25 Q873.962 137.787 876.046 137.787 Q881.671 137.787 884.448 140.703 Q887.226 143.62 887.226 149.546 Z" fill="#000000" fill-rule="nonzero" fill-opacity="1" /><path clip-path="url(#clip400)" d="M917.55 148.689 L917.55 164.338 L913.291 164.338 L913.291 148.828 Q913.291 145.148 911.856 143.319 Q910.421 141.49 907.55 141.49 Q904.101 141.49 902.11 143.69 Q900.12 145.889 900.12 149.685 L900.12 164.338 L895.837 164.338 L895.837 138.412 L900.12 138.412 L900.12 142.44 Q901.647 140.102 903.708 138.944 Q905.791 137.787 908.499 137.787 Q912.967 137.787 915.258 140.565 Q917.55 143.319 917.55 148.689 Z" fill="#000000" fill-rule="nonzero" fill-opacity="1" /><path clip-path="url(#clip400)" d="M957.643 139.176 L957.643 143.203 Q955.837 142.277 953.893 141.815 Q951.948 141.352 949.865 141.352 Q946.693 141.352 945.096 142.324 Q943.522 143.296 943.522 145.24 Q943.522 146.722 944.656 147.578 Q945.791 148.412 949.217 149.176 L950.675 149.5 Q955.212 150.472 957.11 152.254 Q959.031 154.014 959.031 157.185 Q959.031 160.796 956.161 162.902 Q953.314 165.009 948.314 165.009 Q946.231 165.009 943.962 164.592 Q941.717 164.199 939.217 163.388 L939.217 158.99 Q941.578 160.217 943.869 160.842 Q946.161 161.444 948.406 161.444 Q951.416 161.444 953.036 160.426 Q954.656 159.384 954.656 157.509 Q954.656 155.773 953.476 154.847 Q952.318 153.921 948.36 153.064 L946.879 152.717 Q942.92 151.884 941.161 150.171 Q939.402 148.435 939.402 145.426 Q939.402 141.768 941.994 139.778 Q944.587 137.787 949.356 137.787 Q951.717 137.787 953.8 138.134 Q955.883 138.481 957.643 139.176 Z" fill="#000000" fill-rule="nonzero" fill-opacity="1" /><path clip-path="url(#clip400)" d="M985.999 143.389 Q987.596 140.518 989.818 139.153 Q992.04 137.787 995.05 137.787 Q999.101 137.787 1001.3 140.634 Q1003.5 143.458 1003.5 148.689 L1003.5 164.338 L999.216 164.338 L999.216 148.828 Q999.216 145.102 997.897 143.296 Q996.577 141.49 993.869 141.49 Q990.559 141.49 988.638 143.69 Q986.716 145.889 986.716 149.685 L986.716 164.338 L982.434 164.338 L982.434 148.828 Q982.434 145.078 981.115 143.296 Q979.795 141.49 977.041 141.49 Q973.777 141.49 971.855 143.713 Q969.934 145.912 969.934 149.685 L969.934 164.338 L965.652 164.338 L965.652 138.412 L969.934 138.412 L969.934 142.44 Q971.392 140.055 973.429 138.921 Q975.466 137.787 978.267 137.787 Q981.091 137.787 983.059 139.222 Q985.05 140.657 985.999 143.389 Z" fill="#000000" fill-rule="nonzero" fill-opacity="1" /><path clip-path="url(#clip400)" d="M1022.04 141.398 Q1018.61 141.398 1016.62 144.083 Q1014.63 146.745 1014.63 151.398 Q1014.63 156.051 1016.6 158.736 Q1018.59 161.398 1022.04 161.398 Q1025.44 161.398 1027.43 158.713 Q1029.42 156.027 1029.42 151.398 Q1029.42 146.791 1027.43 144.106 Q1025.44 141.398 1022.04 141.398 M1022.04 137.787 Q1027.6 137.787 1030.77 141.398 Q1033.94 145.009 1033.94 151.398 Q1033.94 157.764 1030.77 161.398 Q1027.6 165.009 1022.04 165.009 Q1016.46 165.009 1013.29 161.398 Q1010.14 157.764 1010.14 151.398 Q1010.14 145.009 1013.29 141.398 Q1016.46 137.787 1022.04 137.787 Z" fill="#000000" fill-rule="nonzero" fill-opacity="1" /><path clip-path="url(#clip400)" d="M1051.04 141.398 Q1047.62 141.398 1045.63 144.083 Q1043.64 146.745 1043.64 151.398 Q1043.64 156.051 1045.6 158.736 Q1047.6 161.398 1051.04 161.398 Q1054.45 161.398 1056.44 158.713 Q1058.43 156.027 1058.43 151.398 Q1058.43 146.791 1056.44 144.106 Q1054.45 141.398 1051.04 141.398 M1051.04 137.787 Q1056.6 137.787 1059.77 141.398 Q1062.94 145.009 1062.94 151.398 Q1062.94 157.764 1059.77 161.398 Q1056.6 165.009 1051.04 165.009 Q1045.47 165.009 1042.29 161.398 Q1039.15 157.764 1039.15 151.398 Q1039.15 145.009 1042.29 141.398 Q1045.47 137.787 1051.04 137.787 Z" fill="#000000" fill-rule="nonzero" fill-opacity="1" /><path clip-path="url(#clip400)" d="M1074.22 131.051 L1074.22 138.412 L1082.99 138.412 L1082.99 141.722 L1074.22 141.722 L1074.22 155.796 Q1074.22 158.967 1075.07 159.87 Q1075.95 160.773 1078.61 160.773 L1082.99 160.773 L1082.99 164.338 L1078.61 164.338 Q1073.68 164.338 1071.81 162.509 Q1069.93 160.657 1069.93 155.796 L1069.93 141.722 L1066.81 141.722 L1066.81 138.412 L1069.93 138.412 L1069.93 131.051 L1074.22 131.051 Z" fill="#000000" fill-rule="nonzero" fill-opacity="1" /><path clip-path="url(#clip400)" d="M1110.14 148.689 L1110.14 164.338 L1105.88 164.338 L1105.88 148.828 Q1105.88 145.148 1104.45 143.319 Q1103.01 141.49 1100.14 141.49 Q1096.69 141.49 1094.7 143.69 Q1092.71 145.889 1092.71 149.685 L1092.71 164.338 L1088.43 164.338 L1088.43 128.319 L1092.71 128.319 L1092.71 142.44 Q1094.24 140.102 1096.3 138.944 Q1098.38 137.787 1101.09 137.787 Q1105.56 137.787 1107.85 140.565 Q1110.14 143.319 1110.14 148.689 Z" fill="#000000" fill-rule="nonzero" fill-opacity="1" /><polyline clip-path="url(#clip400)" style="stroke:#e26f46; stroke-linecap:round; stroke-linejoin:round; stroke-width:4; stroke-opacity:1; fill:none" points="673.902,198.898 737.823,198.898 "/>
<path clip-path="url(#clip400)" d="M752.759 212.289 L752.759 226.039 L748.477 226.039 L748.477 190.252 L752.759 190.252 L752.759 194.187 Q754.102 191.872 756.139 190.761 Q758.199 189.627 761.046 189.627 Q765.769 189.627 768.708 193.377 Q771.671 197.127 771.671 203.238 Q771.671 209.349 768.708 213.099 Q765.769 216.849 761.046 216.849 Q758.199 216.849 756.139 215.738 Q754.102 214.603 752.759 212.289 M767.25 203.238 Q767.25 198.539 765.306 195.877 Q763.384 193.192 760.005 193.192 Q756.625 193.192 754.681 195.877 Q752.759 198.539 752.759 203.238 Q752.759 207.937 754.681 210.622 Q756.625 213.284 760.005 213.284 Q763.384 213.284 765.306 210.622 Q767.25 207.937 767.25 203.238 Z" fill="#000000" fill-rule="nonzero" fill-opacity="1" /><path clip-path="url(#clip400)" d="M791.856 180.159 L791.856 183.701 L787.782 183.701 Q785.491 183.701 784.588 184.627 Q783.708 185.553 783.708 187.96 L783.708 190.252 L790.722 190.252 L790.722 193.562 L783.708 193.562 L783.708 216.178 L779.426 216.178 L779.426 193.562 L775.352 193.562 L775.352 190.252 L779.426 190.252 L779.426 188.446 Q779.426 184.118 781.44 182.15 Q783.454 180.159 787.829 180.159 L791.856 180.159 Z" fill="#000000" fill-rule="nonzero" fill-opacity="1" /><path clip-path="url(#clip400)" d="M827.018 191.016 L827.018 195.043 Q825.213 194.117 823.268 193.655 Q821.324 193.192 819.24 193.192 Q816.069 193.192 814.472 194.164 Q812.898 195.136 812.898 197.08 Q812.898 198.562 814.032 199.418 Q815.166 200.252 818.592 201.016 L820.051 201.34 Q824.588 202.312 826.486 204.094 Q828.407 205.854 828.407 209.025 Q828.407 212.636 825.537 214.742 Q822.69 216.849 817.69 216.849 Q815.606 216.849 813.338 216.432 Q811.092 216.039 808.592 215.228 L808.592 210.83 Q810.953 212.057 813.245 212.682 Q815.537 213.284 817.782 213.284 Q820.791 213.284 822.412 212.266 Q824.032 211.224 824.032 209.349 Q824.032 207.613 822.852 206.687 Q821.694 205.761 817.736 204.904 L816.254 204.557 Q812.296 203.724 810.537 202.011 Q808.778 200.275 808.778 197.266 Q808.778 193.608 811.37 191.618 Q813.963 189.627 818.731 189.627 Q821.092 189.627 823.176 189.974 Q825.259 190.321 827.018 191.016 Z" fill="#000000" fill-rule="nonzero" fill-opacity="1" /><path clip-path="url(#clip400)" d="M855.375 195.229 Q856.972 192.358 859.194 190.993 Q861.416 189.627 864.425 189.627 Q868.476 189.627 870.675 192.474 Q872.874 195.298 872.874 200.529 L872.874 216.178 L868.592 216.178 L868.592 200.668 Q868.592 196.942 867.273 195.136 Q865.953 193.33 863.245 193.33 Q859.935 193.33 858.013 195.53 Q856.092 197.729 856.092 201.525 L856.092 216.178 L851.81 216.178 L851.81 200.668 Q851.81 196.918 850.49 195.136 Q849.171 193.33 846.416 193.33 Q843.152 193.33 841.231 195.553 Q839.31 197.752 839.31 201.525 L839.31 216.178 L835.027 216.178 L835.027 190.252 L839.31 190.252 L839.31 194.28 Q840.768 191.895 842.805 190.761 Q844.842 189.627 847.643 189.627 Q850.467 189.627 852.435 191.062 Q854.425 192.497 855.375 195.229 Z" fill="#000000" fill-rule="nonzero" fill-opacity="1" /><path clip-path="url(#clip400)" d="M891.416 193.238 Q887.99 193.238 885.999 195.923 Q884.009 198.585 884.009 203.238 Q884.009 207.891 885.976 210.576 Q887.967 213.238 891.416 213.238 Q894.819 213.238 896.809 210.553 Q898.8 207.867 898.8 203.238 Q898.8 198.631 896.809 195.946 Q894.819 193.238 891.416 193.238 M891.416 189.627 Q896.972 189.627 900.143 193.238 Q903.314 196.849 903.314 203.238 Q903.314 209.604 900.143 213.238 Q896.972 216.849 891.416 216.849 Q885.837 216.849 882.666 213.238 Q879.518 209.604 879.518 203.238 Q879.518 196.849 882.666 193.238 Q885.837 189.627 891.416 189.627 Z" fill="#000000" fill-rule="nonzero" fill-opacity="1" /><path clip-path="url(#clip400)" d="M920.42 193.238 Q916.995 193.238 915.004 195.923 Q913.013 198.585 913.013 203.238 Q913.013 207.891 914.981 210.576 Q916.971 213.238 920.42 213.238 Q923.823 213.238 925.814 210.553 Q927.805 207.867 927.805 203.238 Q927.805 198.631 925.814 195.946 Q923.823 193.238 920.42 193.238 M920.42 189.627 Q925.976 189.627 929.147 193.238 Q932.319 196.849 932.319 203.238 Q932.319 209.604 929.147 213.238 Q925.976 216.849 920.42 216.849 Q914.842 216.849 911.671 213.238 Q908.522 209.604 908.522 203.238 Q908.522 196.849 911.671 193.238 Q914.842 189.627 920.42 189.627 Z" fill="#000000" fill-rule="nonzero" fill-opacity="1" /><path clip-path="url(#clip400)" d="M943.592 182.891 L943.592 190.252 L952.365 190.252 L952.365 193.562 L943.592 193.562 L943.592 207.636 Q943.592 210.807 944.448 211.71 Q945.328 212.613 947.99 212.613 L952.365 212.613 L952.365 216.178 L947.99 216.178 Q943.059 216.178 941.184 214.349 Q939.309 212.497 939.309 207.636 L939.309 193.562 L936.184 193.562 L936.184 190.252 L939.309 190.252 L939.309 182.891 L943.592 182.891 Z" fill="#000000" fill-rule="nonzero" fill-opacity="1" /><path clip-path="url(#clip400)" d="M979.517 200.529 L979.517 216.178 L975.258 216.178 L975.258 200.668 Q975.258 196.988 973.823 195.159 Q972.388 193.33 969.517 193.33 Q966.068 193.33 964.078 195.53 Q962.087 197.729 962.087 201.525 L962.087 216.178 L957.805 216.178 L957.805 180.159 L962.087 180.159 L962.087 194.28 Q963.615 191.942 965.675 190.784 Q967.758 189.627 970.467 189.627 Q974.934 189.627 977.226 192.405 Q979.517 195.159 979.517 200.529 Z" fill="#000000" fill-rule="nonzero" fill-opacity="1" /><polyline clip-path="url(#clip400)" style="stroke:#3da44d; stroke-linecap:round; stroke-linejoin:round; stroke-width:4; stroke-opacity:1; fill:none" points="673.902,250.738 737.823,250.738 "/>
<path clip-path="url(#clip400)" d="M755.884 234.731 L755.884 242.092 L764.657 242.092 L764.657 245.402 L755.884 245.402 L755.884 259.476 Q755.884 262.647 756.741 263.55 Q757.62 264.453 760.282 264.453 L764.657 264.453 L764.657 268.018 L760.282 268.018 Q755.352 268.018 753.477 266.189 Q751.602 264.337 751.602 259.476 L751.602 245.402 L748.477 245.402 L748.477 242.092 L751.602 242.092 L751.602 234.731 L755.884 234.731 Z" fill="#000000" fill-rule="nonzero" fill-opacity="1" /><path clip-path="url(#clip400)" d="M785.282 246.073 Q784.565 245.657 783.708 245.471 Q782.875 245.263 781.856 245.263 Q778.245 245.263 776.301 247.624 Q774.38 249.962 774.38 254.36 L774.38 268.018 L770.097 268.018 L770.097 242.092 L774.38 242.092 L774.38 246.12 Q775.722 243.758 777.875 242.624 Q780.028 241.467 783.106 241.467 Q783.546 241.467 784.079 241.536 Q784.611 241.583 785.259 241.698 L785.282 246.073 Z" fill="#000000" fill-rule="nonzero" fill-opacity="1" /><path clip-path="url(#clip400)" d="M789.31 257.786 L789.31 242.092 L793.569 242.092 L793.569 257.624 Q793.569 261.305 795.004 263.156 Q796.44 264.985 799.31 264.985 Q802.759 264.985 804.75 262.786 Q806.764 260.587 806.764 256.791 L806.764 242.092 L811.023 242.092 L811.023 268.018 L806.764 268.018 L806.764 264.036 Q805.213 266.397 803.153 267.555 Q801.116 268.689 798.407 268.689 Q793.94 268.689 791.625 265.911 Q789.31 263.133 789.31 257.786 M800.028 241.467 L800.028 241.467 Z" fill="#000000" fill-rule="nonzero" fill-opacity="1" /><path clip-path="url(#clip400)" d="M841.972 253.99 L841.972 256.073 L822.389 256.073 Q822.666 260.471 825.027 262.786 Q827.412 265.078 831.648 265.078 Q834.101 265.078 836.393 264.476 Q838.708 263.874 840.976 262.67 L840.976 266.698 Q838.685 267.67 836.277 268.18 Q833.87 268.689 831.393 268.689 Q825.19 268.689 821.555 265.078 Q817.944 261.467 817.944 255.309 Q817.944 248.944 821.37 245.217 Q824.819 241.467 830.652 241.467 Q835.884 241.467 838.916 244.846 Q841.972 248.203 841.972 253.99 M837.713 252.74 Q837.666 249.245 835.745 247.161 Q833.847 245.078 830.699 245.078 Q827.134 245.078 824.981 247.092 Q822.852 249.106 822.527 252.763 L837.713 252.74 Z" fill="#000000" fill-rule="nonzero" fill-opacity="1" /><path clip-path="url(#clip400)" d="M1393.94 1486.45 L2352.76 1486.45 L2352.76 47.2441 L1393.94 47.2441  Z" fill="#ffffff" fill-rule="evenodd" fill-opacity="1"/>
<polyline clip-path="url(#clip401)" style="stroke:#000000; stroke-linecap:round; stroke-linejoin:round; stroke-width:2; stroke-opacity:0.1; fill:none" points="1409.62,1486.45 1409.62,47.2441 "/>
<polyline clip-path="url(#clip401)" style="stroke:#000000; stroke-linecap:round; stroke-linejoin:round; stroke-width:2; stroke-opacity:0.1; fill:none" points="1638.62,1486.45 1638.62,47.2441 "/>
<polyline clip-path="url(#clip401)" style="stroke:#000000; stroke-linecap:round; stroke-linejoin:round; stroke-width:2; stroke-opacity:0.1; fill:none" points="1867.62,1486.45 1867.62,47.2441 "/>
<polyline clip-path="url(#clip401)" style="stroke:#000000; stroke-linecap:round; stroke-linejoin:round; stroke-width:2; stroke-opacity:0.1; fill:none" points="2096.62,1486.45 2096.62,47.2441 "/>
<polyline clip-path="url(#clip401)" style="stroke:#000000; stroke-linecap:round; stroke-linejoin:round; stroke-width:2; stroke-opacity:0.1; fill:none" points="2325.62,1486.45 2325.62,47.2441 "/>
<polyline clip-path="url(#clip401)" style="stroke:#000000; stroke-linecap:round; stroke-linejoin:round; stroke-width:2; stroke-opacity:0.1; fill:none" points="1393.94,1247.1 2352.76,1247.1 "/>
<polyline clip-path="url(#clip401)" style="stroke:#000000; stroke-linecap:round; stroke-linejoin:round; stroke-width:2; stroke-opacity:0.1; fill:none" points="1393.94,986.432 2352.76,986.432 "/>
<polyline clip-path="url(#clip401)" style="stroke:#000000; stroke-linecap:round; stroke-linejoin:round; stroke-width:2; stroke-opacity:0.1; fill:none" points="1393.94,725.765 2352.76,725.765 "/>
<polyline clip-path="url(#clip401)" style="stroke:#000000; stroke-linecap:round; stroke-linejoin:round; stroke-width:2; stroke-opacity:0.1; fill:none" points="1393.94,465.098 2352.76,465.098 "/>
<polyline clip-path="url(#clip401)" style="stroke:#000000; stroke-linecap:round; stroke-linejoin:round; stroke-width:2; stroke-opacity:0.1; fill:none" points="1393.94,204.431 2352.76,204.431 "/>
<polyline clip-path="url(#clip400)" style="stroke:#000000; stroke-linecap:round; stroke-linejoin:round; stroke-width:4; stroke-opacity:1; fill:none" points="1393.94,1486.45 2352.76,1486.45 "/>
<polyline clip-path="url(#clip400)" style="stroke:#000000; stroke-linecap:round; stroke-linejoin:round; stroke-width:4; stroke-opacity:1; fill:none" points="1409.62,1486.45 1409.62,1467.55 "/>
<polyline clip-path="url(#clip400)" style="stroke:#000000; stroke-linecap:round; stroke-linejoin:round; stroke-width:4; stroke-opacity:1; fill:none" points="1638.62,1486.45 1638.62,1467.55 "/>
<polyline clip-path="url(#clip400)" style="stroke:#000000; stroke-linecap:round; stroke-linejoin:round; stroke-width:4; stroke-opacity:1; fill:none" points="1867.62,1486.45 1867.62,1467.55 "/>
<polyline clip-path="url(#clip400)" style="stroke:#000000; stroke-linecap:round; stroke-linejoin:round; stroke-width:4; stroke-opacity:1; fill:none" points="2096.62,1486.45 2096.62,1467.55 "/>
<polyline clip-path="url(#clip400)" style="stroke:#000000; stroke-linecap:round; stroke-linejoin:round; stroke-width:4; stroke-opacity:1; fill:none" points="2325.62,1486.45 2325.62,1467.55 "/>
<path clip-path="url(#clip400)" d="M1409.62 1517.37 Q1406.01 1517.37 1404.18 1520.93 Q1402.38 1524.47 1402.38 1531.6 Q1402.38 1538.71 1404.18 1542.27 Q1406.01 1545.82 1409.62 1545.82 Q1413.26 1545.82 1415.06 1542.27 Q1416.89 1538.71 1416.89 1531.6 Q1416.89 1524.47 1415.06 1520.93 Q1413.26 1517.37 1409.62 1517.37 M1409.62 1513.66 Q1415.43 1513.66 1418.49 1518.27 Q1421.57 1522.85 1421.57 1531.6 Q1421.57 1540.33 1418.49 1544.94 Q1415.43 1549.52 1409.62 1549.52 Q1403.81 1549.52 1400.73 1544.94 Q1397.68 1540.33 1397.68 1531.6 Q1397.68 1522.85 1400.73 1518.27 Q1403.81 1513.66 1409.62 1513.66 Z" fill="#000000" fill-rule="nonzero" fill-opacity="1" /><path clip-path="url(#clip400)" d="M1617.39 1544.91 L1633.71 1544.91 L1633.71 1548.85 L1611.77 1548.85 L1611.77 1544.91 Q1614.43 1542.16 1619.02 1537.53 Q1623.62 1532.88 1624.8 1531.53 Q1627.05 1529.01 1627.93 1527.27 Q1628.83 1525.51 1628.83 1523.82 Q1628.83 1521.07 1626.89 1519.33 Q1624.96 1517.6 1621.86 1517.6 Q1619.66 1517.6 1617.21 1518.36 Q1614.78 1519.13 1612 1520.68 L1612 1515.95 Q1614.83 1514.82 1617.28 1514.24 Q1619.73 1513.66 1621.77 1513.66 Q1627.14 1513.66 1630.33 1516.35 Q1633.53 1519.03 1633.53 1523.52 Q1633.53 1525.65 1632.72 1527.57 Q1631.93 1529.47 1629.83 1532.07 Q1629.25 1532.74 1626.14 1535.95 Q1623.04 1539.15 1617.39 1544.91 Z" fill="#000000" fill-rule="nonzero" fill-opacity="1" /><path clip-path="url(#clip400)" d="M1653.53 1517.37 Q1649.92 1517.37 1648.09 1520.93 Q1646.28 1524.47 1646.28 1531.6 Q1646.28 1538.71 1648.09 1542.27 Q1649.92 1545.82 1653.53 1545.82 Q1657.16 1545.82 1658.97 1542.27 Q1660.8 1538.71 1660.8 1531.6 Q1660.8 1524.47 1658.97 1520.93 Q1657.16 1517.37 1653.53 1517.37 M1653.53 1513.66 Q1659.34 1513.66 1662.39 1518.27 Q1665.47 1522.85 1665.47 1531.6 Q1665.47 1540.33 1662.39 1544.94 Q1659.34 1549.52 1653.53 1549.52 Q1647.72 1549.52 1644.64 1544.94 Q1641.58 1540.33 1641.58 1531.6 Q1641.58 1522.85 1644.64 1518.27 Q1647.72 1513.66 1653.53 1513.66 Z" fill="#000000" fill-rule="nonzero" fill-opacity="1" /><path clip-path="url(#clip400)" d="M1855.79 1518.36 L1843.99 1536.81 L1855.79 1536.81 L1855.79 1518.36 M1854.57 1514.29 L1860.45 1514.29 L1860.45 1536.81 L1865.38 1536.81 L1865.38 1540.7 L1860.45 1540.7 L1860.45 1548.85 L1855.79 1548.85 L1855.79 1540.7 L1840.19 1540.7 L1840.19 1536.19 L1854.57 1514.29 Z" fill="#000000" fill-rule="nonzero" fill-opacity="1" /><path clip-path="url(#clip400)" d="M1883.11 1517.37 Q1879.5 1517.37 1877.67 1520.93 Q1875.86 1524.47 1875.86 1531.6 Q1875.86 1538.71 1877.67 1542.27 Q1879.5 1545.82 1883.11 1545.82 Q1886.74 1545.82 1888.55 1542.27 Q1890.38 1538.71 1890.38 1531.6 Q1890.38 1524.47 1888.55 1520.93 Q1886.74 1517.37 1883.11 1517.37 M1883.11 1513.66 Q1888.92 1513.66 1891.97 1518.27 Q1895.05 1522.85 1895.05 1531.6 Q1895.05 1540.33 1891.97 1544.94 Q1888.92 1549.52 1883.11 1549.52 Q1877.3 1549.52 1874.22 1544.94 Q1871.16 1540.33 1871.16 1531.6 Q1871.16 1522.85 1874.22 1518.27 Q1877.3 1513.66 1883.11 1513.66 Z" fill="#000000" fill-rule="nonzero" fill-opacity="1" /><path clip-path="url(#clip400)" d="M2082.03 1529.7 Q2078.88 1529.7 2077.03 1531.86 Q2075.2 1534.01 2075.2 1537.76 Q2075.2 1541.49 2077.03 1543.66 Q2078.88 1545.82 2082.03 1545.82 Q2085.17 1545.82 2087 1543.66 Q2088.85 1541.49 2088.85 1537.76 Q2088.85 1534.01 2087 1531.86 Q2085.17 1529.7 2082.03 1529.7 M2091.31 1515.05 L2091.31 1519.31 Q2089.55 1518.48 2087.74 1518.04 Q2085.96 1517.6 2084.2 1517.6 Q2079.57 1517.6 2077.12 1520.72 Q2074.69 1523.85 2074.34 1530.17 Q2075.71 1528.15 2077.77 1527.09 Q2079.83 1526 2082.3 1526 Q2087.51 1526 2090.52 1529.17 Q2093.55 1532.32 2093.55 1537.76 Q2093.55 1543.08 2090.4 1546.3 Q2087.26 1549.52 2082.03 1549.52 Q2076.03 1549.52 2072.86 1544.94 Q2069.69 1540.33 2069.69 1531.6 Q2069.69 1523.41 2073.58 1518.55 Q2077.47 1513.66 2084.02 1513.66 Q2085.78 1513.66 2087.56 1514.01 Q2089.36 1514.36 2091.31 1515.05 Z" fill="#000000" fill-rule="nonzero" fill-opacity="1" /><path clip-path="url(#clip400)" d="M2111.61 1517.37 Q2108 1517.37 2106.17 1520.93 Q2104.36 1524.47 2104.36 1531.6 Q2104.36 1538.71 2106.17 1542.27 Q2108 1545.82 2111.61 1545.82 Q2115.24 1545.82 2117.05 1542.27 Q2118.88 1538.71 2118.88 1531.6 Q2118.88 1524.47 2117.05 1520.93 Q2115.24 1517.37 2111.61 1517.37 M2111.61 1513.66 Q2117.42 1513.66 2120.47 1518.27 Q2123.55 1522.85 2123.55 1531.6 Q2123.55 1540.33 2120.47 1544.94 Q2117.42 1549.52 2111.61 1549.52 Q2105.8 1549.52 2102.72 1544.94 Q2099.66 1540.33 2099.66 1531.6 Q2099.66 1522.85 2102.72 1518.27 Q2105.8 1513.66 2111.61 1513.66 Z" fill="#000000" fill-rule="nonzero" fill-opacity="1" /><path clip-path="url(#clip400)" d="M2310.49 1532.44 Q2307.16 1532.44 2305.24 1534.22 Q2303.34 1536 2303.34 1539.13 Q2303.34 1542.25 2305.24 1544.03 Q2307.16 1545.82 2310.49 1545.82 Q2313.83 1545.82 2315.75 1544.03 Q2317.67 1542.23 2317.67 1539.13 Q2317.67 1536 2315.75 1534.22 Q2313.85 1532.44 2310.49 1532.44 M2305.82 1530.45 Q2302.81 1529.7 2301.12 1527.64 Q2299.45 1525.58 2299.45 1522.62 Q2299.45 1518.48 2302.39 1516.07 Q2305.35 1513.66 2310.49 1513.66 Q2315.65 1513.66 2318.59 1516.07 Q2321.53 1518.48 2321.53 1522.62 Q2321.53 1525.58 2319.84 1527.64 Q2318.18 1529.7 2315.19 1530.45 Q2318.57 1531.23 2320.45 1533.52 Q2322.34 1535.82 2322.34 1539.13 Q2322.34 1544.15 2319.27 1546.83 Q2316.21 1549.52 2310.49 1549.52 Q2304.77 1549.52 2301.7 1546.83 Q2298.64 1544.15 2298.64 1539.13 Q2298.64 1535.82 2300.54 1533.52 Q2302.44 1531.23 2305.82 1530.45 M2304.1 1523.06 Q2304.1 1525.75 2305.77 1527.25 Q2307.46 1528.76 2310.49 1528.76 Q2313.5 1528.76 2315.19 1527.25 Q2316.9 1525.75 2316.9 1523.06 Q2316.9 1520.38 2315.19 1518.87 Q2313.5 1517.37 2310.49 1517.37 Q2307.46 1517.37 2305.77 1518.87 Q2304.1 1520.38 2304.1 1523.06 Z" fill="#000000" fill-rule="nonzero" fill-opacity="1" /><path clip-path="url(#clip400)" d="M2340.65 1517.37 Q2337.04 1517.37 2335.21 1520.93 Q2333.41 1524.47 2333.41 1531.6 Q2333.41 1538.71 2335.21 1542.27 Q2337.04 1545.82 2340.65 1545.82 Q2344.29 1545.82 2346.09 1542.27 Q2347.92 1538.71 2347.92 1531.6 Q2347.92 1524.47 2346.09 1520.93 Q2344.29 1517.37 2340.65 1517.37 M2340.65 1513.66 Q2346.46 1513.66 2349.52 1518.27 Q2352.6 1522.85 2352.6 1531.6 Q2352.6 1540.33 2349.52 1544.94 Q2346.46 1549.52 2340.65 1549.52 Q2334.84 1549.52 2331.77 1544.94 Q2328.71 1540.33 2328.71 1531.6 Q2328.71 1522.85 2331.77 1518.27 Q2334.84 1513.66 2340.65 1513.66 Z" fill="#000000" fill-rule="nonzero" fill-opacity="1" /><polyline clip-path="url(#clip400)" style="stroke:#000000; stroke-linecap:round; stroke-linejoin:round; stroke-width:4; stroke-opacity:1; fill:none" points="1393.94,1486.45 1393.94,47.2441 "/>
<polyline clip-path="url(#clip400)" style="stroke:#000000; stroke-linecap:round; stroke-linejoin:round; stroke-width:4; stroke-opacity:1; fill:none" points="1393.94,1247.1 1412.83,1247.1 "/>
<polyline clip-path="url(#clip400)" style="stroke:#000000; stroke-linecap:round; stroke-linejoin:round; stroke-width:4; stroke-opacity:1; fill:none" points="1393.94,986.432 1412.83,986.432 "/>
<polyline clip-path="url(#clip400)" style="stroke:#000000; stroke-linecap:round; stroke-linejoin:round; stroke-width:4; stroke-opacity:1; fill:none" points="1393.94,725.765 1412.83,725.765 "/>
<polyline clip-path="url(#clip400)" style="stroke:#000000; stroke-linecap:round; stroke-linejoin:round; stroke-width:4; stroke-opacity:1; fill:none" points="1393.94,465.098 1412.83,465.098 "/>
<polyline clip-path="url(#clip400)" style="stroke:#000000; stroke-linecap:round; stroke-linejoin:round; stroke-width:4; stroke-opacity:1; fill:none" points="1393.94,204.431 1412.83,204.431 "/>
<path clip-path="url(#clip400)" d="M1250.99 1247.55 L1280.67 1247.55 L1280.67 1251.49 L1250.99 1251.49 L1250.99 1247.55 Z" fill="#000000" fill-rule="nonzero" fill-opacity="1" /><path clip-path="url(#clip400)" d="M1291.57 1260.44 L1299.21 1260.44 L1299.21 1234.08 L1290.9 1235.74 L1290.9 1231.49 L1299.16 1229.82 L1303.84 1229.82 L1303.84 1260.44 L1311.48 1260.44 L1311.48 1264.38 L1291.57 1264.38 L1291.57 1260.44 Z" fill="#000000" fill-rule="nonzero" fill-opacity="1" /><path clip-path="url(#clip400)" d="M1320.92 1258.5 L1325.81 1258.5 L1325.81 1264.38 L1320.92 1264.38 L1320.92 1258.5 Z" fill="#000000" fill-rule="nonzero" fill-opacity="1" /><path clip-path="url(#clip400)" d="M1345.99 1232.9 Q1342.38 1232.9 1340.55 1236.46 Q1338.75 1240 1338.75 1247.13 Q1338.75 1254.24 1340.55 1257.8 Q1342.38 1261.35 1345.99 1261.35 Q1349.63 1261.35 1351.43 1257.8 Q1353.26 1254.24 1353.26 1247.13 Q1353.26 1240 1351.43 1236.46 Q1349.63 1232.9 1345.99 1232.9 M1345.99 1229.19 Q1351.8 1229.19 1354.86 1233.8 Q1357.94 1238.38 1357.94 1247.13 Q1357.94 1255.86 1354.86 1260.47 Q1351.8 1265.05 1345.99 1265.05 Q1340.18 1265.05 1337.1 1260.47 Q1334.05 1255.86 1334.05 1247.13 Q1334.05 1238.38 1337.1 1233.8 Q1340.18 1229.19 1345.99 1229.19 Z" fill="#000000" fill-rule="nonzero" fill-opacity="1" /><path clip-path="url(#clip400)" d="M1251.99 986.883 L1281.66 986.883 L1281.66 990.818 L1251.99 990.818 L1251.99 986.883 Z" fill="#000000" fill-rule="nonzero" fill-opacity="1" /><path clip-path="url(#clip400)" d="M1301.76 972.231 Q1298.14 972.231 1296.32 975.795 Q1294.51 979.337 1294.51 986.467 Q1294.51 993.573 1296.32 997.138 Q1298.14 1000.68 1301.76 1000.68 Q1305.39 1000.68 1307.2 997.138 Q1309.02 993.573 1309.02 986.467 Q1309.02 979.337 1307.2 975.795 Q1305.39 972.231 1301.76 972.231 M1301.76 968.527 Q1307.57 968.527 1310.62 973.133 Q1313.7 977.717 1313.7 986.467 Q1313.7 995.193 1310.62 999.8 Q1307.57 1004.38 1301.76 1004.38 Q1295.95 1004.38 1292.87 999.8 Q1289.81 995.193 1289.81 986.467 Q1289.81 977.717 1292.87 973.133 Q1295.95 968.527 1301.76 968.527 Z" fill="#000000" fill-rule="nonzero" fill-opacity="1" /><path clip-path="url(#clip400)" d="M1321.92 997.832 L1326.8 997.832 L1326.8 1003.71 L1321.92 1003.71 L1321.92 997.832 Z" fill="#000000" fill-rule="nonzero" fill-opacity="1" /><path clip-path="url(#clip400)" d="M1337.03 969.152 L1355.39 969.152 L1355.39 973.087 L1341.32 973.087 L1341.32 981.559 Q1342.33 981.212 1343.35 981.05 Q1344.37 980.865 1345.39 980.865 Q1351.18 980.865 1354.56 984.036 Q1357.94 987.207 1357.94 992.624 Q1357.94 998.203 1354.46 1001.3 Q1350.99 1004.38 1344.67 1004.38 Q1342.5 1004.38 1340.23 1004.01 Q1337.98 1003.64 1335.58 1002.9 L1335.58 998.203 Q1337.66 999.337 1339.88 999.892 Q1342.1 1000.45 1344.58 1000.45 Q1348.58 1000.45 1350.92 998.341 Q1353.26 996.235 1353.26 992.624 Q1353.26 989.013 1350.92 986.906 Q1348.58 984.8 1344.58 984.8 Q1342.7 984.8 1340.83 985.217 Q1338.98 985.633 1337.03 986.513 L1337.03 969.152 Z" fill="#000000" fill-rule="nonzero" fill-opacity="1" /><path clip-path="url(#clip400)" d="M1300.76 711.564 Q1297.15 711.564 1295.32 715.128 Q1293.52 718.67 1293.52 725.8 Q1293.52 732.906 1295.32 736.471 Q1297.15 740.012 1300.76 740.012 Q1304.39 740.012 1306.2 736.471 Q1308.03 732.906 1308.03 725.8 Q1308.03 718.67 1306.2 715.128 Q1304.39 711.564 1300.76 711.564 M1300.76 707.86 Q1306.57 707.86 1309.63 712.466 Q1312.7 717.05 1312.7 725.8 Q1312.7 734.526 1309.63 739.133 Q1306.57 743.716 1300.76 743.716 Q1294.95 743.716 1291.87 739.133 Q1288.82 734.526 1288.82 725.8 Q1288.82 717.05 1291.87 712.466 Q1294.95 707.86 1300.76 707.86 Z" fill="#000000" fill-rule="nonzero" fill-opacity="1" /><path clip-path="url(#clip400)" d="M1320.92 737.165 L1325.81 737.165 L1325.81 743.045 L1320.92 743.045 L1320.92 737.165 Z" fill="#000000" fill-rule="nonzero" fill-opacity="1" /><path clip-path="url(#clip400)" d="M1345.99 711.564 Q1342.38 711.564 1340.55 715.128 Q1338.75 718.67 1338.75 725.8 Q1338.75 732.906 1340.55 736.471 Q1342.38 740.012 1345.99 740.012 Q1349.63 740.012 1351.43 736.471 Q1353.26 732.906 1353.26 725.8 Q1353.26 718.67 1351.43 715.128 Q1349.63 711.564 1345.99 711.564 M1345.99 707.86 Q1351.8 707.86 1354.86 712.466 Q1357.94 717.05 1357.94 725.8 Q1357.94 734.526 1354.86 739.133 Q1351.8 743.716 1345.99 743.716 Q1340.18 743.716 1337.1 739.133 Q1334.05 734.526 1334.05 725.8 Q1334.05 717.05 1337.1 712.466 Q1340.18 707.86 1345.99 707.86 Z" fill="#000000" fill-rule="nonzero" fill-opacity="1" /><path clip-path="url(#clip400)" d="M1301.76 450.897 Q1298.14 450.897 1296.32 454.461 Q1294.51 458.003 1294.51 465.133 Q1294.51 472.239 1296.32 475.804 Q1298.14 479.346 1301.76 479.346 Q1305.39 479.346 1307.2 475.804 Q1309.02 472.239 1309.02 465.133 Q1309.02 458.003 1307.2 454.461 Q1305.39 450.897 1301.76 450.897 M1301.76 447.193 Q1307.57 447.193 1310.62 451.799 Q1313.7 456.383 1313.7 465.133 Q1313.7 473.859 1310.62 478.466 Q1307.57 483.049 1301.76 483.049 Q1295.95 483.049 1292.87 478.466 Q1289.81 473.859 1289.81 465.133 Q1289.81 456.383 1292.87 451.799 Q1295.95 447.193 1301.76 447.193 Z" fill="#000000" fill-rule="nonzero" fill-opacity="1" /><path clip-path="url(#clip400)" d="M1321.92 476.498 L1326.8 476.498 L1326.8 482.378 L1321.92 482.378 L1321.92 476.498 Z" fill="#000000" fill-rule="nonzero" fill-opacity="1" /><path clip-path="url(#clip400)" d="M1337.03 447.818 L1355.39 447.818 L1355.39 451.753 L1341.32 451.753 L1341.32 460.225 Q1342.33 459.878 1343.35 459.716 Q1344.37 459.531 1345.39 459.531 Q1351.18 459.531 1354.56 462.702 Q1357.94 465.873 1357.94 471.29 Q1357.94 476.869 1354.46 479.971 Q1350.99 483.049 1344.67 483.049 Q1342.5 483.049 1340.23 482.679 Q1337.98 482.308 1335.58 481.568 L1335.58 476.869 Q1337.66 478.003 1339.88 478.559 Q1342.1 479.114 1344.58 479.114 Q1348.58 479.114 1350.92 477.008 Q1353.26 474.901 1353.26 471.29 Q1353.26 467.679 1350.92 465.572 Q1348.58 463.466 1344.58 463.466 Q1342.7 463.466 1340.83 463.883 Q1338.98 464.299 1337.03 465.179 L1337.03 447.818 Z" fill="#000000" fill-rule="nonzero" fill-opacity="1" /><path clip-path="url(#clip400)" d="M1291.57 217.776 L1299.21 217.776 L1299.21 191.41 L1290.9 193.077 L1290.9 188.818 L1299.16 187.151 L1303.84 187.151 L1303.84 217.776 L1311.48 217.776 L1311.48 221.711 L1291.57 221.711 L1291.57 217.776 Z" fill="#000000" fill-rule="nonzero" fill-opacity="1" /><path clip-path="url(#clip400)" d="M1320.92 215.831 L1325.81 215.831 L1325.81 221.711 L1320.92 221.711 L1320.92 215.831 Z" fill="#000000" fill-rule="nonzero" fill-opacity="1" /><path clip-path="url(#clip400)" d="M1345.99 190.23 Q1342.38 190.23 1340.55 193.794 Q1338.75 197.336 1338.75 204.466 Q1338.75 211.572 1340.55 215.137 Q1342.38 218.679 1345.99 218.679 Q1349.63 218.679 1351.43 215.137 Q1353.26 211.572 1353.26 204.466 Q1353.26 197.336 1351.43 193.794 Q1349.63 190.23 1345.99 190.23 M1345.99 186.526 Q1351.8 186.526 1354.86 191.132 Q1357.94 195.716 1357.94 204.466 Q1357.94 213.193 1354.86 217.799 Q1351.8 222.382 1345.99 222.382 Q1340.18 222.382 1337.1 217.799 Q1334.05 213.193 1334.05 204.466 Q1334.05 195.716 1337.1 191.132 Q1340.18 186.526 1345.99 186.526 Z" fill="#000000" fill-rule="nonzero" fill-opacity="1" /><polyline clip-path="url(#clip401)" style="stroke:#009af9; stroke-linecap:round; stroke-linejoin:round; stroke-width:4; stroke-opacity:1; fill:none" points="1421.07,1259.87 1432.52,1217.78 1443.97,1201.8 1455.42,1179.54 1466.87,1152.68 1478.32,1126.16 1489.77,1074.14 1501.22,1014.65 1512.67,974.459 1524.12,900.972 1535.57,821.797 1547.02,754.819 1558.47,703.818 1569.92,649.522 1581.37,597.212 1592.82,586.494 1604.27,593.032 1615.72,557.077 1627.17,493.858 1638.62,419.303 1650.07,345.619 1661.52,295.468 1672.97,248.308 1684.42,221.692 1695.87,199.635 1707.32,164.239 1718.77,140.555 1730.22,166.025 1741.67,191.429 1753.12,235.056 1764.57,245.121 1776.02,236.633 1787.47,254.743 1798.92,267.364 1810.37,261.782 1821.82,239.724 1833.27,222.504 1844.72,202.98 1856.17,229.102 1867.62,224.05 1879.07,209.55 1890.52,193.942 1901.97,194.95 1913.42,184.482 1924.87,196.709 1936.32,241.855 1947.77,298.916 1959.22,335.439 1970.67,370.504 1982.12,437.432 1993.57,540.518 2005.02,661.806 2016.47,759.497 2027.92,849.728 2039.37,936.881 2050.82,1007.7 2062.27,1057.57 2073.72,1089.01 2085.17,1119.9 2096.62,1140.91 2108.07,1148.41 2119.52,1157.22 2130.97,1196.83 2142.42,1264.91 2153.87,1326.03 2165.32,1375.9 2176.77,1392.37 2188.22,1399.93 2199.67,1440.58 2211.12,1445.72 2222.57,1440.84 2234.02,1429.26 2245.47,1406.81 2256.92,1384.33 2268.37,1368.53 2279.82,1333.42 2291.27,1329.05 2302.72,1325.92 2314.17,1319.09 2325.62,1302.04 "/>
<polyline clip-path="url(#clip401)" style="stroke:#e26f46; stroke-linecap:round; stroke-linejoin:round; stroke-width:4; stroke-opacity:1; fill:none" points="1421.07,1260.43 1432.52,1218.26 1443.97,1204.9 1455.42,1185.15 1466.87,1158.79 1478.32,1139.09 1489.77,1089.06 1501.22,1032.35 1512.67,981.463 1524.12,906.41 1535.57,822.553 1547.02,758.037 1558.47,711.216 1569.92,649.181 1581.37,600.858 1592.82,587.016 1604.27,601.311 1615.72,560.54 1627.17,498.389 1638.62,431.778 1650.07,354.988 1661.52,294.87 1672.97,250.764 1684.42,232.998 1695.87,199.631 1707.32,165.307 1718.77,141.316 1730.22,156.009 1741.67,178.321 1753.12,221.203 1764.57,243.581 1776.02,239.386 1787.47,262.432 1798.92,271.048 1810.37,263.811 1821.82,246.521 1833.27,220.653 1844.72,206.153 1856.17,226.149 1867.62,226.498 1879.07,209.404 1890.52,194.876 1901.97,197.822 1913.42,186.54 1924.87,200.137 1936.32,246.616 1947.77,304.412 1959.22,346.434 1970.67,374.377 1982.12,437.278 1993.57,537.463 2005.02,650.531 2016.47,749.28 2027.92,839.551 2039.37,926.868 2050.82,1007.31 2062.27,1054.08 2073.72,1093.13 2085.17,1123.57 2096.62,1155.12 2108.07,1167.58 2119.52,1172.45 2130.97,1202.63 2142.42,1269.09 2153.87,1326.15 2165.32,1379.23 2176.77,1392.73 2188.22,1406.2 2199.67,1440.81 2211.12,1444.23 2222.57,1437.22 2234.02,1425.41 2245.47,1401.2 2256.92,1371.34 2268.37,1359.41 2279.82,1319.36 2291.27,1311.84 2302.72,1322.8 2314.17,1309.22 2325.62,1294.65 "/>
<polyline clip-path="url(#clip401)" style="stroke:#3da44d; stroke-linecap:round; stroke-linejoin:round; stroke-width:4; stroke-opacity:1; fill:none" points="1421.07,1145.34 1432.52,1092.18 1443.97,1149.09 1455.42,1102.38 1466.87,1131.2 1478.32,1157.27 1489.77,1057.92 1501.22,917.392 1512.67,892.64 1524.12,988.547 1535.57,878.917 1547.02,707.583 1558.47,659.237 1569.92,658.382 1581.37,640.774 1592.82,556.803 1604.27,582.6 1615.72,506.048 1627.17,397.576 1638.62,368.645 1650.07,340.963 1661.52,259.36 1672.97,207.002 1684.42,167.734 1695.87,151.775 1707.32,87.9763 1718.77,134.727 1730.22,184.617 1741.67,237.591 1753.12,249.455 1764.57,180.008 1776.02,166.086 1787.47,174.754 1798.92,273.703 1810.37,317.52 1821.82,201.235 1833.27,191.106 1844.72,193.945 1856.17,265.862 1867.62,231.899 1879.07,204.385 1890.52,249.468 1901.97,150.798 1913.42,169.547 1924.87,197.868 1936.32,255.78 1947.77,337.402 1959.22,375.914 1970.67,357.235 1982.12,442.747 1993.57,547.353 2005.02,662.677 2016.47,781.721 2027.92,799.825 2039.37,887.193 2050.82,966.384 2062.27,1063.58 2073.72,1056.77 2085.17,1117.35 2096.62,1109.44 2108.07,1125.9 2119.52,1087.78 2130.97,1118.47 2142.42,1232.09 2153.87,1262.88 2165.32,1334.86 2176.77,1355.08 2188.22,1377.98 2199.67,1429.51 2211.12,1370.81 2222.57,1441.56 2234.02,1408.56 2245.47,1380.91 2256.92,1340.08 2268.37,1236.05 2279.82,1242.8 2291.27,1236.01 2302.72,1212.4 2314.17,1207.27 2325.62,1208.7 "/>
<path clip-path="url(#clip400)" d="M1863.25 302.578 L2320.8 302.578 L2320.8 95.2176 L1863.25 95.2176  Z" fill="#ffffff" fill-rule="evenodd" fill-opacity="1"/>
<polyline clip-path="url(#clip400)" style="stroke:#000000; stroke-linecap:round; stroke-linejoin:round; stroke-width:4; stroke-opacity:1; fill:none" points="1863.25,302.578 2320.8,302.578 2320.8,95.2176 1863.25,95.2176 1863.25,302.578 "/>
<polyline clip-path="url(#clip400)" style="stroke:#009af9; stroke-linecap:round; stroke-linejoin:round; stroke-width:4; stroke-opacity:1; fill:none" points="1873.9,147.058 1937.82,147.058 "/>
<path clip-path="url(#clip400)" d="M1948.48 129.778 L1953.15 129.778 L1953.15 144.384 L1968.66 129.778 L1974.68 129.778 L1957.53 145.889 L1975.91 164.338 L1969.75 164.338 L1953.15 147.694 L1953.15 164.338 L1948.48 164.338 L1948.48 129.778 Z" fill="#000000" fill-rule="nonzero" fill-opacity="1" /><path clip-path="url(#clip400)" d="M1990.33 151.305 Q1985.17 151.305 1983.18 152.486 Q1981.19 153.666 1981.19 156.514 Q1981.19 158.782 1982.67 160.125 Q1984.17 161.444 1986.74 161.444 Q1990.28 161.444 1992.41 158.944 Q1994.56 156.421 1994.56 152.254 L1994.56 151.305 L1990.33 151.305 M1998.82 149.546 L1998.82 164.338 L1994.56 164.338 L1994.56 160.402 Q1993.11 162.763 1990.93 163.898 Q1988.75 165.009 1985.61 165.009 Q1981.62 165.009 1979.26 162.787 Q1976.93 160.541 1976.93 156.791 Q1976.93 152.416 1979.84 150.194 Q1982.78 147.972 1988.59 147.972 L1994.56 147.972 L1994.56 147.555 Q1994.56 144.615 1992.62 143.018 Q1990.7 141.398 1987.2 141.398 Q1984.98 141.398 1982.87 141.93 Q1980.77 142.463 1978.82 143.527 L1978.82 139.592 Q1981.16 138.69 1983.36 138.25 Q1985.56 137.787 1987.64 137.787 Q1993.27 137.787 1996.05 140.703 Q1998.82 143.62 1998.82 149.546 Z" fill="#000000" fill-rule="nonzero" fill-opacity="1" /><path clip-path="url(#clip400)" d="M2007.6 128.319 L2011.86 128.319 L2011.86 164.338 L2007.6 164.338 L2007.6 128.319 Z" fill="#000000" fill-rule="nonzero" fill-opacity="1" /><path clip-path="url(#clip400)" d="M2040.95 143.389 Q2042.55 140.518 2044.77 139.153 Q2046.99 137.787 2050 137.787 Q2054.06 137.787 2056.25 140.634 Q2058.45 143.458 2058.45 148.689 L2058.45 164.338 L2054.17 164.338 L2054.17 148.828 Q2054.17 145.102 2052.85 143.296 Q2051.53 141.49 2048.82 141.49 Q2045.51 141.49 2043.59 143.69 Q2041.67 145.889 2041.67 149.685 L2041.67 164.338 L2037.39 164.338 L2037.39 148.828 Q2037.39 145.078 2036.07 143.296 Q2034.75 141.49 2032 141.49 Q2028.73 141.49 2026.81 143.713 Q2024.89 145.912 2024.89 149.685 L2024.89 164.338 L2020.61 164.338 L2020.61 138.412 L2024.89 138.412 L2024.89 142.44 Q2026.35 140.055 2028.38 138.921 Q2030.42 137.787 2033.22 137.787 Q2036.05 137.787 2038.01 139.222 Q2040 140.657 2040.95 143.389 Z" fill="#000000" fill-rule="nonzero" fill-opacity="1" /><path clip-path="url(#clip400)" d="M2078.73 151.305 Q2073.57 151.305 2071.58 152.486 Q2069.59 153.666 2069.59 156.514 Q2069.59 158.782 2071.07 160.125 Q2072.57 161.444 2075.14 161.444 Q2078.68 161.444 2080.81 158.944 Q2082.97 156.421 2082.97 152.254 L2082.97 151.305 L2078.73 151.305 M2087.23 149.546 L2087.23 164.338 L2082.97 164.338 L2082.97 160.402 Q2081.51 162.763 2079.33 163.898 Q2077.16 165.009 2074.01 165.009 Q2070.03 165.009 2067.67 162.787 Q2065.33 160.541 2065.33 156.791 Q2065.33 152.416 2068.24 150.194 Q2071.18 147.972 2076.99 147.972 L2082.97 147.972 L2082.97 147.555 Q2082.97 144.615 2081.02 143.018 Q2079.1 141.398 2075.61 141.398 Q2073.38 141.398 2071.28 141.93 Q2069.17 142.463 2067.23 143.527 L2067.23 139.592 Q2069.56 138.69 2071.76 138.25 Q2073.96 137.787 2076.05 137.787 Q2081.67 137.787 2084.45 140.703 Q2087.23 143.62 2087.23 149.546 Z" fill="#000000" fill-rule="nonzero" fill-opacity="1" /><path clip-path="url(#clip400)" d="M2117.55 148.689 L2117.55 164.338 L2113.29 164.338 L2113.29 148.828 Q2113.29 145.148 2111.86 143.319 Q2110.42 141.49 2107.55 141.49 Q2104.1 141.49 2102.11 143.69 Q2100.12 145.889 2100.12 149.685 L2100.12 164.338 L2095.84 164.338 L2095.84 138.412 L2100.12 138.412 L2100.12 142.44 Q2101.65 140.102 2103.71 138.944 Q2105.79 137.787 2108.5 137.787 Q2112.97 137.787 2115.26 140.565 Q2117.55 143.319 2117.55 148.689 Z" fill="#000000" fill-rule="nonzero" fill-opacity="1" /><path clip-path="url(#clip400)" d="M2157.64 139.176 L2157.64 143.203 Q2155.84 142.277 2153.89 141.815 Q2151.95 141.352 2149.86 141.352 Q2146.69 141.352 2145.1 142.324 Q2143.52 143.296 2143.52 145.24 Q2143.52 146.722 2144.66 147.578 Q2145.79 148.412 2149.22 149.176 L2150.67 149.5 Q2155.21 150.472 2157.11 152.254 Q2159.03 154.014 2159.03 157.185 Q2159.03 160.796 2156.16 162.902 Q2153.31 165.009 2148.31 165.009 Q2146.23 165.009 2143.96 164.592 Q2141.72 164.199 2139.22 163.388 L2139.22 158.99 Q2141.58 160.217 2143.87 160.842 Q2146.16 161.444 2148.41 161.444 Q2151.42 161.444 2153.04 160.426 Q2154.66 159.384 2154.66 157.509 Q2154.66 155.773 2153.48 154.847 Q2152.32 153.921 2148.36 153.064 L2146.88 152.717 Q2142.92 151.884 2141.16 150.171 Q2139.4 148.435 2139.4 145.426 Q2139.4 141.768 2141.99 139.778 Q2144.59 137.787 2149.36 137.787 Q2151.72 137.787 2153.8 138.134 Q2155.88 138.481 2157.64 139.176 Z" fill="#000000" fill-rule="nonzero" fill-opacity="1" /><path clip-path="url(#clip400)" d="M2186 143.389 Q2187.6 140.518 2189.82 139.153 Q2192.04 137.787 2195.05 137.787 Q2199.1 137.787 2201.3 140.634 Q2203.5 143.458 2203.5 148.689 L2203.5 164.338 L2199.22 164.338 L2199.22 148.828 Q2199.22 145.102 2197.9 143.296 Q2196.58 141.49 2193.87 141.49 Q2190.56 141.49 2188.64 143.69 Q2186.72 145.889 2186.72 149.685 L2186.72 164.338 L2182.43 164.338 L2182.43 148.828 Q2182.43 145.078 2181.11 143.296 Q2179.8 141.49 2177.04 141.49 Q2173.78 141.49 2171.86 143.713 Q2169.93 145.912 2169.93 149.685 L2169.93 164.338 L2165.65 164.338 L2165.65 138.412 L2169.93 138.412 L2169.93 142.44 Q2171.39 140.055 2173.43 138.921 Q2175.47 137.787 2178.27 137.787 Q2181.09 137.787 2183.06 139.222 Q2185.05 140.657 2186 143.389 Z" fill="#000000" fill-rule="nonzero" fill-opacity="1" /><path clip-path="url(#clip400)" d="M2222.04 141.398 Q2218.61 141.398 2216.62 144.083 Q2214.63 146.745 2214.63 151.398 Q2214.63 156.051 2216.6 158.736 Q2218.59 161.398 2222.04 161.398 Q2225.44 161.398 2227.43 158.713 Q2229.42 156.027 2229.42 151.398 Q2229.42 146.791 2227.43 144.106 Q2225.44 141.398 2222.04 141.398 M2222.04 137.787 Q2227.6 137.787 2230.77 141.398 Q2233.94 145.009 2233.94 151.398 Q2233.94 157.764 2230.77 161.398 Q2227.6 165.009 2222.04 165.009 Q2216.46 165.009 2213.29 161.398 Q2210.14 157.764 2210.14 151.398 Q2210.14 145.009 2213.29 141.398 Q2216.46 137.787 2222.04 137.787 Z" fill="#000000" fill-rule="nonzero" fill-opacity="1" /><path clip-path="url(#clip400)" d="M2251.04 141.398 Q2247.62 141.398 2245.63 144.083 Q2243.64 146.745 2243.64 151.398 Q2243.64 156.051 2245.6 158.736 Q2247.6 161.398 2251.04 161.398 Q2254.45 161.398 2256.44 158.713 Q2258.43 156.027 2258.43 151.398 Q2258.43 146.791 2256.44 144.106 Q2254.45 141.398 2251.04 141.398 M2251.04 137.787 Q2256.6 137.787 2259.77 141.398 Q2262.94 145.009 2262.94 151.398 Q2262.94 157.764 2259.77 161.398 Q2256.6 165.009 2251.04 165.009 Q2245.47 165.009 2242.29 161.398 Q2239.15 157.764 2239.15 151.398 Q2239.15 145.009 2242.29 141.398 Q2245.47 137.787 2251.04 137.787 Z" fill="#000000" fill-rule="nonzero" fill-opacity="1" /><path clip-path="url(#clip400)" d="M2274.22 131.051 L2274.22 138.412 L2282.99 138.412 L2282.99 141.722 L2274.22 141.722 L2274.22 155.796 Q2274.22 158.967 2275.07 159.87 Q2275.95 160.773 2278.61 160.773 L2282.99 160.773 L2282.99 164.338 L2278.61 164.338 Q2273.68 164.338 2271.81 162.509 Q2269.93 160.657 2269.93 155.796 L2269.93 141.722 L2266.81 141.722 L2266.81 138.412 L2269.93 138.412 L2269.93 131.051 L2274.22 131.051 Z" fill="#000000" fill-rule="nonzero" fill-opacity="1" /><path clip-path="url(#clip400)" d="M2310.14 148.689 L2310.14 164.338 L2305.88 164.338 L2305.88 148.828 Q2305.88 145.148 2304.45 143.319 Q2303.01 141.49 2300.14 141.49 Q2296.69 141.49 2294.7 143.69 Q2292.71 145.889 2292.71 149.685 L2292.71 164.338 L2288.43 164.338 L2288.43 128.319 L2292.71 128.319 L2292.71 142.44 Q2294.24 140.102 2296.3 138.944 Q2298.38 137.787 2301.09 137.787 Q2305.56 137.787 2307.85 140.565 Q2310.14 143.319 2310.14 148.689 Z" fill="#000000" fill-rule="nonzero" fill-opacity="1" /><polyline clip-path="url(#clip400)" style="stroke:#e26f46; stroke-linecap:round; stroke-linejoin:round; stroke-width:4; stroke-opacity:1; fill:none" points="1873.9,198.898 1937.82,198.898 "/>
<path clip-path="url(#clip400)" d="M1952.76 212.289 L1952.76 226.039 L1948.48 226.039 L1948.48 190.252 L1952.76 190.252 L1952.76 194.187 Q1954.1 191.872 1956.14 190.761 Q1958.2 189.627 1961.05 189.627 Q1965.77 189.627 1968.71 193.377 Q1971.67 197.127 1971.67 203.238 Q1971.67 209.349 1968.71 213.099 Q1965.77 216.849 1961.05 216.849 Q1958.2 216.849 1956.14 215.738 Q1954.1 214.603 1952.76 212.289 M1967.25 203.238 Q1967.25 198.539 1965.31 195.877 Q1963.38 193.192 1960 193.192 Q1956.63 193.192 1954.68 195.877 Q1952.76 198.539 1952.76 203.238 Q1952.76 207.937 1954.68 210.622 Q1956.63 213.284 1960 213.284 Q1963.38 213.284 1965.31 210.622 Q1967.25 207.937 1967.25 203.238 Z" fill="#000000" fill-rule="nonzero" fill-opacity="1" /><path clip-path="url(#clip400)" d="M1991.86 180.159 L1991.86 183.701 L1987.78 183.701 Q1985.49 183.701 1984.59 184.627 Q1983.71 185.553 1983.71 187.96 L1983.71 190.252 L1990.72 190.252 L1990.72 193.562 L1983.71 193.562 L1983.71 216.178 L1979.43 216.178 L1979.43 193.562 L1975.35 193.562 L1975.35 190.252 L1979.43 190.252 L1979.43 188.446 Q1979.43 184.118 1981.44 182.15 Q1983.45 180.159 1987.83 180.159 L1991.86 180.159 Z" fill="#000000" fill-rule="nonzero" fill-opacity="1" /><path clip-path="url(#clip400)" d="M2027.02 191.016 L2027.02 195.043 Q2025.21 194.117 2023.27 193.655 Q2021.32 193.192 2019.24 193.192 Q2016.07 193.192 2014.47 194.164 Q2012.9 195.136 2012.9 197.08 Q2012.9 198.562 2014.03 199.418 Q2015.17 200.252 2018.59 201.016 L2020.05 201.34 Q2024.59 202.312 2026.49 204.094 Q2028.41 205.854 2028.41 209.025 Q2028.41 212.636 2025.54 214.742 Q2022.69 216.849 2017.69 216.849 Q2015.61 216.849 2013.34 216.432 Q2011.09 216.039 2008.59 215.228 L2008.59 210.83 Q2010.95 212.057 2013.25 212.682 Q2015.54 213.284 2017.78 213.284 Q2020.79 213.284 2022.41 212.266 Q2024.03 211.224 2024.03 209.349 Q2024.03 207.613 2022.85 206.687 Q2021.69 205.761 2017.74 204.904 L2016.25 204.557 Q2012.3 203.724 2010.54 202.011 Q2008.78 200.275 2008.78 197.266 Q2008.78 193.608 2011.37 191.618 Q2013.96 189.627 2018.73 189.627 Q2021.09 189.627 2023.18 189.974 Q2025.26 190.321 2027.02 191.016 Z" fill="#000000" fill-rule="nonzero" fill-opacity="1" /><path clip-path="url(#clip400)" d="M2055.37 195.229 Q2056.97 192.358 2059.19 190.993 Q2061.42 189.627 2064.43 189.627 Q2068.48 189.627 2070.68 192.474 Q2072.87 195.298 2072.87 200.529 L2072.87 216.178 L2068.59 216.178 L2068.59 200.668 Q2068.59 196.942 2067.27 195.136 Q2065.95 193.33 2063.24 193.33 Q2059.93 193.33 2058.01 195.53 Q2056.09 197.729 2056.09 201.525 L2056.09 216.178 L2051.81 216.178 L2051.81 200.668 Q2051.81 196.918 2050.49 195.136 Q2049.17 193.33 2046.42 193.33 Q2043.15 193.33 2041.23 195.553 Q2039.31 197.752 2039.31 201.525 L2039.31 216.178 L2035.03 216.178 L2035.03 190.252 L2039.31 190.252 L2039.31 194.28 Q2040.77 191.895 2042.81 190.761 Q2044.84 189.627 2047.64 189.627 Q2050.47 189.627 2052.43 191.062 Q2054.43 192.497 2055.37 195.229 Z" fill="#000000" fill-rule="nonzero" fill-opacity="1" /><path clip-path="url(#clip400)" d="M2091.42 193.238 Q2087.99 193.238 2086 195.923 Q2084.01 198.585 2084.01 203.238 Q2084.01 207.891 2085.98 210.576 Q2087.97 213.238 2091.42 213.238 Q2094.82 213.238 2096.81 210.553 Q2098.8 207.867 2098.8 203.238 Q2098.8 198.631 2096.81 195.946 Q2094.82 193.238 2091.42 193.238 M2091.42 189.627 Q2096.97 189.627 2100.14 193.238 Q2103.31 196.849 2103.31 203.238 Q2103.31 209.604 2100.14 213.238 Q2096.97 216.849 2091.42 216.849 Q2085.84 216.849 2082.67 213.238 Q2079.52 209.604 2079.52 203.238 Q2079.52 196.849 2082.67 193.238 Q2085.84 189.627 2091.42 189.627 Z" fill="#000000" fill-rule="nonzero" fill-opacity="1" /><path clip-path="url(#clip400)" d="M2120.42 193.238 Q2116.99 193.238 2115 195.923 Q2113.01 198.585 2113.01 203.238 Q2113.01 207.891 2114.98 210.576 Q2116.97 213.238 2120.42 213.238 Q2123.82 213.238 2125.81 210.553 Q2127.8 207.867 2127.8 203.238 Q2127.8 198.631 2125.81 195.946 Q2123.82 193.238 2120.42 193.238 M2120.42 189.627 Q2125.98 189.627 2129.15 193.238 Q2132.32 196.849 2132.32 203.238 Q2132.32 209.604 2129.15 213.238 Q2125.98 216.849 2120.42 216.849 Q2114.84 216.849 2111.67 213.238 Q2108.52 209.604 2108.52 203.238 Q2108.52 196.849 2111.67 193.238 Q2114.84 189.627 2120.42 189.627 Z" fill="#000000" fill-rule="nonzero" fill-opacity="1" /><path clip-path="url(#clip400)" d="M2143.59 182.891 L2143.59 190.252 L2152.36 190.252 L2152.36 193.562 L2143.59 193.562 L2143.59 207.636 Q2143.59 210.807 2144.45 211.71 Q2145.33 212.613 2147.99 212.613 L2152.36 212.613 L2152.36 216.178 L2147.99 216.178 Q2143.06 216.178 2141.18 214.349 Q2139.31 212.497 2139.31 207.636 L2139.31 193.562 L2136.18 193.562 L2136.18 190.252 L2139.31 190.252 L2139.31 182.891 L2143.59 182.891 Z" fill="#000000" fill-rule="nonzero" fill-opacity="1" /><path clip-path="url(#clip400)" d="M2179.52 200.529 L2179.52 216.178 L2175.26 216.178 L2175.26 200.668 Q2175.26 196.988 2173.82 195.159 Q2172.39 193.33 2169.52 193.33 Q2166.07 193.33 2164.08 195.53 Q2162.09 197.729 2162.09 201.525 L2162.09 216.178 L2157.8 216.178 L2157.8 180.159 L2162.09 180.159 L2162.09 194.28 Q2163.61 191.942 2165.67 190.784 Q2167.76 189.627 2170.47 189.627 Q2174.93 189.627 2177.23 192.405 Q2179.52 195.159 2179.52 200.529 Z" fill="#000000" fill-rule="nonzero" fill-opacity="1" /><polyline clip-path="url(#clip400)" style="stroke:#3da44d; stroke-linecap:round; stroke-linejoin:round; stroke-width:4; stroke-opacity:1; fill:none" points="1873.9,250.738 1937.82,250.738 "/>
<path clip-path="url(#clip400)" d="M1955.88 234.731 L1955.88 242.092 L1964.66 242.092 L1964.66 245.402 L1955.88 245.402 L1955.88 259.476 Q1955.88 262.647 1956.74 263.55 Q1957.62 264.453 1960.28 264.453 L1964.66 264.453 L1964.66 268.018 L1960.28 268.018 Q1955.35 268.018 1953.48 266.189 Q1951.6 264.337 1951.6 259.476 L1951.6 245.402 L1948.48 245.402 L1948.48 242.092 L1951.6 242.092 L1951.6 234.731 L1955.88 234.731 Z" fill="#000000" fill-rule="nonzero" fill-opacity="1" /><path clip-path="url(#clip400)" d="M1985.28 246.073 Q1984.56 245.657 1983.71 245.471 Q1982.87 245.263 1981.86 245.263 Q1978.25 245.263 1976.3 247.624 Q1974.38 249.962 1974.38 254.36 L1974.38 268.018 L1970.1 268.018 L1970.1 242.092 L1974.38 242.092 L1974.38 246.12 Q1975.72 243.758 1977.87 242.624 Q1980.03 241.467 1983.11 241.467 Q1983.55 241.467 1984.08 241.536 Q1984.61 241.583 1985.26 241.698 L1985.28 246.073 Z" fill="#000000" fill-rule="nonzero" fill-opacity="1" /><path clip-path="url(#clip400)" d="M1989.31 257.786 L1989.31 242.092 L1993.57 242.092 L1993.57 257.624 Q1993.57 261.305 1995 263.156 Q1996.44 264.985 1999.31 264.985 Q2002.76 264.985 2004.75 262.786 Q2006.76 260.587 2006.76 256.791 L2006.76 242.092 L2011.02 242.092 L2011.02 268.018 L2006.76 268.018 L2006.76 264.036 Q2005.21 266.397 2003.15 267.555 Q2001.12 268.689 1998.41 268.689 Q1993.94 268.689 1991.62 265.911 Q1989.31 263.133 1989.31 257.786 M2000.03 241.467 L2000.03 241.467 Z" fill="#000000" fill-rule="nonzero" fill-opacity="1" /><path clip-path="url(#clip400)" d="M2041.97 253.99 L2041.97 256.073 L2022.39 256.073 Q2022.67 260.471 2025.03 262.786 Q2027.41 265.078 2031.65 265.078 Q2034.1 265.078 2036.39 264.476 Q2038.71 263.874 2040.98 262.67 L2040.98 266.698 Q2038.68 267.67 2036.28 268.18 Q2033.87 268.689 2031.39 268.689 Q2025.19 268.689 2021.56 265.078 Q2017.94 261.467 2017.94 255.309 Q2017.94 248.944 2021.37 245.217 Q2024.82 241.467 2030.65 241.467 Q2035.88 241.467 2038.92 244.846 Q2041.97 248.203 2041.97 253.99 M2037.71 252.74 Q2037.67 249.245 2035.75 247.161 Q2033.85 245.078 2030.7 245.078 Q2027.13 245.078 2024.98 247.092 Q2022.85 249.106 2022.53 252.763 L2037.71 252.74 Z" fill="#000000" fill-rule="nonzero" fill-opacity="1" /></svg>
