<?xml version="1.0" encoding="utf-8"?>
<svg xmlns="http://www.w3.org/2000/svg" xmlns:xlink="http://www.w3.org/1999/xlink" width="600" height="400" viewBox="0 0 2400 1600">
<defs>
  <clipPath id="clip870">
    <rect x="0" y="0" width="2400" height="1600"/>
  </clipPath>
</defs>
<path clip-path="url(#clip870)" d="M0 1600 L2400 1600 L2400 0 L0 0  Z" fill="#ffffff" fill-rule="evenodd" fill-opacity="1"/>
<defs>
  <clipPath id="clip871">
    <rect x="140" y="47" width="2213" height="1440"/>
  </clipPath>
</defs>
<path clip-path="url(#clip870)" d="M140.51 1486.45 L2352.76 1486.45 L2352.76 47.2441 L140.51 47.2441  Z" fill="#ffffff" fill-rule="evenodd" fill-opacity="1"/>
<polyline clip-path="url(#clip871)" style="stroke:#000000; stroke-linecap:round; stroke-linejoin:round; stroke-width:2; stroke-opacity:0.1; fill:none" points="352.653,1486.45 352.653,47.2441 "/>
<polyline clip-path="url(#clip871)" style="stroke:#000000; stroke-linecap:round; stroke-linejoin:round; stroke-width:2; stroke-opacity:0.1; fill:none" points="786.497,1486.45 786.497,47.2441 "/>
<polyline clip-path="url(#clip871)" style="stroke:#000000; stroke-linecap:round; stroke-linejoin:round; stroke-width:2; stroke-opacity:0.1; fill:none" points="1220.34,1486.45 1220.34,47.2441 "/>
<polyline clip-path="url(#clip871)" style="stroke:#000000; stroke-linecap:round; stroke-linejoin:round; stroke-width:2; stroke-opacity:0.1; fill:none" points="1654.19,1486.45 1654.19,47.2441 "/>
<polyline clip-path="url(#clip871)" style="stroke:#000000; stroke-linecap:round; stroke-linejoin:round; stroke-width:2; stroke-opacity:0.1; fill:none" points="2088.03,1486.45 2088.03,47.2441 "/>
<polyline clip-path="url(#clip871)" style="stroke:#000000; stroke-linecap:round; stroke-linejoin:round; stroke-width:2; stroke-opacity:0.1; fill:none" points="140.51,1179.79 2352.76,1179.79 "/>
<polyline clip-path="url(#clip871)" style="stroke:#000000; stroke-linecap:round; stroke-linejoin:round; stroke-width:2; stroke-opacity:0.1; fill:none" points="140.51,872.166 2352.76,872.166 "/>
<polyline clip-path="url(#clip871)" style="stroke:#000000; stroke-linecap:round; stroke-linejoin:round; stroke-width:2; stroke-opacity:0.1; fill:none" points="140.51,564.544 2352.76,564.544 "/>
<polyline clip-path="url(#clip871)" style="stroke:#000000; stroke-linecap:round; stroke-linejoin:round; stroke-width:2; stroke-opacity:0.1; fill:none" points="140.51,256.922 2352.76,256.922 "/>
<polyline clip-path="url(#clip870)" style="stroke:#000000; stroke-linecap:round; stroke-linejoin:round; stroke-width:4; stroke-opacity:1; fill:none" points="140.51,1486.45 2352.76,1486.45 "/>
<polyline clip-path="url(#clip870)" style="stroke:#000000; stroke-linecap:round; stroke-linejoin:round; stroke-width:4; stroke-opacity:1; fill:none" points="352.653,1486.45 352.653,1467.55 "/>
<polyline clip-path="url(#clip870)" style="stroke:#000000; stroke-linecap:round; stroke-linejoin:round; stroke-width:4; stroke-opacity:1; fill:none" points="786.497,1486.45 786.497,1467.55 "/>
<polyline clip-path="url(#clip870)" style="stroke:#000000; stroke-linecap:round; stroke-linejoin:round; stroke-width:4; stroke-opacity:1; fill:none" points="1220.34,1486.45 1220.34,1467.55 "/>
<polyline clip-path="url(#clip870)" style="stroke:#000000; stroke-linecap:round; stroke-linejoin:round; stroke-width:4; stroke-opacity:1; fill:none" points="1654.19,1486.45 1654.19,1467.55 "/>
<polyline clip-path="url(#clip870)" style="stroke:#000000; stroke-linecap:round; stroke-linejoin:round; stroke-width:4; stroke-opacity:1; fill:none" points="2088.03,1486.45 2088.03,1467.55 "/>
<path clip-path="url(#clip870)" d="M306.715 1532.02 L336.391 1532.02 L336.391 1535.95 L306.715 1535.95 L306.715 1532.02 Z" fill="#000000" fill-rule="nonzero" fill-opacity="1" /><path clip-path="url(#clip870)" d="M360.65 1530.21 Q364.007 1530.93 365.882 1533.2 Q367.78 1535.47 367.78 1538.8 Q367.78 1543.92 364.261 1546.72 Q360.743 1549.52 354.262 1549.52 Q352.086 1549.52 349.771 1549.08 Q347.479 1548.66 345.025 1547.81 L345.025 1543.29 Q346.97 1544.43 349.285 1545.01 Q351.599 1545.58 354.123 1545.58 Q358.521 1545.58 360.812 1543.85 Q363.127 1542.11 363.127 1538.8 Q363.127 1535.75 360.974 1534.03 Q358.845 1532.3 355.025 1532.3 L350.998 1532.3 L350.998 1528.45 L355.211 1528.45 Q358.66 1528.45 360.488 1527.09 Q362.317 1525.7 362.317 1523.11 Q362.317 1520.45 360.419 1519.03 Q358.544 1517.6 355.025 1517.6 Q353.104 1517.6 350.905 1518.01 Q348.706 1518.43 346.067 1519.31 L346.067 1515.14 Q348.729 1514.4 351.044 1514.03 Q353.382 1513.66 355.442 1513.66 Q360.766 1513.66 363.868 1516.09 Q366.97 1518.5 366.97 1522.62 Q366.97 1525.49 365.326 1527.48 Q363.683 1529.45 360.65 1530.21 Z" fill="#000000" fill-rule="nonzero" fill-opacity="1" /><path clip-path="url(#clip870)" d="M386.646 1517.37 Q383.034 1517.37 381.206 1520.93 Q379.4 1524.47 379.4 1531.6 Q379.4 1538.71 381.206 1542.27 Q383.034 1545.82 386.646 1545.82 Q390.28 1545.82 392.085 1542.27 Q393.914 1538.71 393.914 1531.6 Q393.914 1524.47 392.085 1520.93 Q390.28 1517.37 386.646 1517.37 M386.646 1513.66 Q392.456 1513.66 395.511 1518.27 Q398.59 1522.85 398.59 1531.6 Q398.59 1540.33 395.511 1544.94 Q392.456 1549.52 386.646 1549.52 Q380.835 1549.52 377.757 1544.94 Q374.701 1540.33 374.701 1531.6 Q374.701 1522.85 377.757 1518.27 Q380.835 1513.66 386.646 1513.66 Z" fill="#000000" fill-rule="nonzero" fill-opacity="1" /><path clip-path="url(#clip870)" d="M786.497 1517.37 Q782.886 1517.37 781.058 1520.93 Q779.252 1524.47 779.252 1531.6 Q779.252 1538.71 781.058 1542.27 Q782.886 1545.82 786.497 1545.82 Q790.132 1545.82 791.937 1542.27 Q793.766 1538.71 793.766 1531.6 Q793.766 1524.47 791.937 1520.93 Q790.132 1517.37 786.497 1517.37 M786.497 1513.66 Q792.308 1513.66 795.363 1518.27 Q798.442 1522.85 798.442 1531.6 Q798.442 1540.33 795.363 1544.94 Q792.308 1549.52 786.497 1549.52 Q780.687 1549.52 777.609 1544.94 Q774.553 1540.33 774.553 1531.6 Q774.553 1522.85 777.609 1518.27 Q780.687 1513.66 786.497 1513.66 Z" fill="#000000" fill-rule="nonzero" fill-opacity="1" /><path clip-path="url(#clip870)" d="M1209.18 1530.21 Q1212.54 1530.93 1214.42 1533.2 Q1216.31 1535.47 1216.31 1538.8 Q1216.31 1543.92 1212.8 1546.72 Q1209.28 1549.52 1202.8 1549.52 Q1200.62 1549.52 1198.31 1549.08 Q1196.01 1548.66 1193.56 1547.81 L1193.56 1543.29 Q1195.5 1544.43 1197.82 1545.01 Q1200.13 1545.58 1202.66 1545.58 Q1207.06 1545.58 1209.35 1543.85 Q1211.66 1542.11 1211.66 1538.8 Q1211.66 1535.75 1209.51 1534.03 Q1207.38 1532.3 1203.56 1532.3 L1199.53 1532.3 L1199.53 1528.45 L1203.74 1528.45 Q1207.19 1528.45 1209.02 1527.09 Q1210.85 1525.7 1210.85 1523.11 Q1210.85 1520.45 1208.95 1519.03 Q1207.08 1517.6 1203.56 1517.6 Q1201.64 1517.6 1199.44 1518.01 Q1197.24 1518.43 1194.6 1519.31 L1194.6 1515.14 Q1197.26 1514.4 1199.58 1514.03 Q1201.92 1513.66 1203.98 1513.66 Q1209.3 1513.66 1212.4 1516.09 Q1215.5 1518.5 1215.5 1522.62 Q1215.5 1525.49 1213.86 1527.48 Q1212.22 1529.45 1209.18 1530.21 Z" fill="#000000" fill-rule="nonzero" fill-opacity="1" /><path clip-path="url(#clip870)" d="M1235.18 1517.37 Q1231.57 1517.37 1229.74 1520.93 Q1227.93 1524.47 1227.93 1531.6 Q1227.93 1538.71 1229.74 1542.27 Q1231.57 1545.82 1235.18 1545.82 Q1238.81 1545.82 1240.62 1542.27 Q1242.45 1538.71 1242.45 1531.6 Q1242.45 1524.47 1240.62 1520.93 Q1238.81 1517.37 1235.18 1517.37 M1235.18 1513.66 Q1240.99 1513.66 1244.05 1518.27 Q1247.12 1522.85 1247.12 1531.6 Q1247.12 1540.33 1244.05 1544.94 Q1240.99 1549.52 1235.18 1549.52 Q1229.37 1549.52 1226.29 1544.94 Q1223.24 1540.33 1223.24 1531.6 Q1223.24 1522.85 1226.29 1518.27 Q1229.37 1513.66 1235.18 1513.66 Z" fill="#000000" fill-rule="nonzero" fill-opacity="1" /><path clip-path="url(#clip870)" d="M1639.59 1529.7 Q1636.44 1529.7 1634.59 1531.86 Q1632.76 1534.01 1632.76 1537.76 Q1632.76 1541.49 1634.59 1543.66 Q1636.44 1545.82 1639.59 1545.82 Q1642.74 1545.82 1644.57 1543.66 Q1646.42 1541.49 1646.42 1537.76 Q1646.42 1534.01 1644.57 1531.86 Q1642.74 1529.7 1639.59 1529.7 M1648.87 1515.05 L1648.87 1519.31 Q1647.12 1518.48 1645.31 1518.04 Q1643.53 1517.6 1641.77 1517.6 Q1637.14 1517.6 1634.68 1520.72 Q1632.25 1523.85 1631.91 1530.17 Q1633.27 1528.15 1635.33 1527.09 Q1637.39 1526 1639.87 1526 Q1645.08 1526 1648.09 1529.17 Q1651.12 1532.32 1651.12 1537.76 Q1651.12 1543.08 1647.97 1546.3 Q1644.82 1549.52 1639.59 1549.52 Q1633.6 1549.52 1630.43 1544.94 Q1627.25 1540.33 1627.25 1531.6 Q1627.25 1523.41 1631.14 1518.55 Q1635.03 1513.66 1641.58 1513.66 Q1643.34 1513.66 1645.12 1514.01 Q1646.93 1514.36 1648.87 1515.05 Z" fill="#000000" fill-rule="nonzero" fill-opacity="1" /><path clip-path="url(#clip870)" d="M1669.18 1517.37 Q1665.56 1517.37 1663.74 1520.93 Q1661.93 1524.47 1661.93 1531.6 Q1661.93 1538.71 1663.74 1542.27 Q1665.56 1545.82 1669.18 1545.82 Q1672.81 1545.82 1674.61 1542.27 Q1676.44 1538.71 1676.44 1531.6 Q1676.44 1524.47 1674.61 1520.93 Q1672.81 1517.37 1669.18 1517.37 M1669.18 1513.66 Q1674.99 1513.66 1678.04 1518.27 Q1681.12 1522.85 1681.12 1531.6 Q1681.12 1540.33 1678.04 1544.94 Q1674.99 1549.52 1669.18 1549.52 Q1663.36 1549.52 1660.29 1544.94 Q1657.23 1540.33 1657.23 1531.6 Q1657.23 1522.85 1660.29 1518.27 Q1663.36 1513.66 1669.18 1513.66 Z" fill="#000000" fill-rule="nonzero" fill-opacity="1" /><path clip-path="url(#clip870)" d="M2063.16 1548.13 L2063.16 1543.87 Q2064.92 1544.7 2066.72 1545.14 Q2068.53 1545.58 2070.27 1545.58 Q2074.89 1545.58 2077.33 1542.48 Q2079.78 1539.36 2080.13 1533.01 Q2078.78 1535.01 2076.72 1536.07 Q2074.66 1537.13 2072.16 1537.13 Q2066.98 1537.13 2063.95 1534.01 Q2060.94 1530.86 2060.94 1525.42 Q2060.94 1520.1 2064.08 1516.88 Q2067.23 1513.66 2072.46 1513.66 Q2078.46 1513.66 2081.61 1518.27 Q2084.78 1522.85 2084.78 1531.6 Q2084.78 1539.77 2080.89 1544.66 Q2077.02 1549.52 2070.47 1549.52 Q2068.71 1549.52 2066.91 1549.17 Q2065.1 1548.82 2063.16 1548.13 M2072.46 1533.48 Q2075.61 1533.48 2077.44 1531.32 Q2079.29 1529.17 2079.29 1525.42 Q2079.29 1521.7 2077.44 1519.54 Q2075.61 1517.37 2072.46 1517.37 Q2069.32 1517.37 2067.46 1519.54 Q2065.64 1521.7 2065.64 1525.42 Q2065.64 1529.17 2067.46 1531.32 Q2069.32 1533.48 2072.46 1533.48 Z" fill="#000000" fill-rule="nonzero" fill-opacity="1" /><path clip-path="url(#clip870)" d="M2103.18 1517.37 Q2099.57 1517.37 2097.74 1520.93 Q2095.94 1524.47 2095.94 1531.6 Q2095.94 1538.71 2097.74 1542.27 Q2099.57 1545.82 2103.18 1545.82 Q2106.82 1545.82 2108.62 1542.27 Q2110.45 1538.71 2110.45 1531.6 Q2110.45 1524.47 2108.62 1520.93 Q2106.82 1517.37 2103.18 1517.37 M2103.18 1513.66 Q2108.99 1513.66 2112.05 1518.27 Q2115.13 1522.85 2115.13 1531.6 Q2115.13 1540.33 2112.05 1544.94 Q2108.99 1549.52 2103.18 1549.52 Q2097.37 1549.52 2094.29 1544.94 Q2091.24 1540.33 2091.24 1531.6 Q2091.24 1522.85 2094.29 1518.27 Q2097.37 1513.66 2103.18 1513.66 Z" fill="#000000" fill-rule="nonzero" fill-opacity="1" /><polyline clip-path="url(#clip870)" style="stroke:#000000; stroke-linecap:round; stroke-linejoin:round; stroke-width:4; stroke-opacity:1; fill:none" points="140.51,1486.45 140.51,47.2441 "/>
<polyline clip-path="url(#clip870)" style="stroke:#000000; stroke-linecap:round; stroke-linejoin:round; stroke-width:4; stroke-opacity:1; fill:none" points="140.51,1179.79 159.408,1179.79 "/>
<polyline clip-path="url(#clip870)" style="stroke:#000000; stroke-linecap:round; stroke-linejoin:round; stroke-width:4; stroke-opacity:1; fill:none" points="140.51,872.166 159.408,872.166 "/>
<polyline clip-path="url(#clip870)" style="stroke:#000000; stroke-linecap:round; stroke-linejoin:round; stroke-width:4; stroke-opacity:1; fill:none" points="140.51,564.544 159.408,564.544 "/>
<polyline clip-path="url(#clip870)" style="stroke:#000000; stroke-linecap:round; stroke-linejoin:round; stroke-width:4; stroke-opacity:1; fill:none" points="140.51,256.922 159.408,256.922 "/>
<path clip-path="url(#clip870)" d="M92.566 1165.59 Q88.9549 1165.59 87.1262 1169.15 Q85.3206 1172.69 85.3206 1179.82 Q85.3206 1186.93 87.1262 1190.49 Q88.9549 1194.04 92.566 1194.04 Q96.2002 1194.04 98.0058 1190.49 Q99.8345 1186.93 99.8345 1179.82 Q99.8345 1172.69 98.0058 1169.15 Q96.2002 1165.59 92.566 1165.59 M92.566 1161.88 Q98.3761 1161.88 101.432 1166.49 Q104.51 1171.07 104.51 1179.82 Q104.51 1188.55 101.432 1193.16 Q98.3761 1197.74 92.566 1197.74 Q86.7558 1197.74 83.6771 1193.16 Q80.6216 1188.55 80.6216 1179.82 Q80.6216 1171.07 83.6771 1166.49 Q86.7558 1161.88 92.566 1161.88 Z" fill="#000000" fill-rule="nonzero" fill-opacity="1" /><path clip-path="url(#clip870)" d="M57.4273 885.511 L73.7466 885.511 L73.7466 889.446 L51.8023 889.446 L51.8023 885.511 Q54.4643 882.756 59.0476 878.127 Q63.6541 873.474 64.8346 872.131 Q67.08 869.608 67.9596 867.872 Q68.8624 866.113 68.8624 864.423 Q68.8624 861.668 66.918 859.932 Q64.9967 858.196 61.8948 858.196 Q59.6958 858.196 57.2421 858.96 Q54.8115 859.724 52.0338 861.275 L52.0338 856.553 Q54.8578 855.418 57.3115 854.84 Q59.7652 854.261 61.8023 854.261 Q67.1726 854.261 70.367 856.946 Q73.5614 859.631 73.5614 864.122 Q73.5614 866.252 72.7513 868.173 Q71.9642 870.071 69.8578 872.664 Q69.2791 873.335 66.1772 876.553 Q63.0754 879.747 57.4273 885.511 Z" fill="#000000" fill-rule="nonzero" fill-opacity="1" /><path clip-path="url(#clip870)" d="M83.6077 854.886 L101.964 854.886 L101.964 858.821 L87.8901 858.821 L87.8901 867.293 Q88.9086 866.946 89.9271 866.784 Q90.9456 866.599 91.9641 866.599 Q97.7511 866.599 101.131 869.77 Q104.51 872.941 104.51 878.358 Q104.51 883.937 101.038 887.039 Q97.566 890.117 91.2465 890.117 Q89.0706 890.117 86.8021 889.747 Q84.5568 889.377 82.1494 888.636 L82.1494 883.937 Q84.2327 885.071 86.4549 885.627 Q88.6771 886.182 91.1539 886.182 Q95.1586 886.182 97.4965 884.076 Q99.8345 881.969 99.8345 878.358 Q99.8345 874.747 97.4965 872.641 Q95.1586 870.534 91.1539 870.534 Q89.279 870.534 87.404 870.951 Q85.5521 871.367 83.6077 872.247 L83.6077 854.886 Z" fill="#000000" fill-rule="nonzero" fill-opacity="1" /><path clip-path="url(#clip870)" d="M52.4505 547.264 L70.8068 547.264 L70.8068 551.199 L56.7328 551.199 L56.7328 559.671 Q57.7513 559.324 58.7699 559.162 Q59.7884 558.977 60.8069 558.977 Q66.5939 558.977 69.9735 562.148 Q73.3531 565.32 73.3531 570.736 Q73.3531 576.315 69.8809 579.417 Q66.4087 582.495 60.0893 582.495 Q57.9134 582.495 55.6449 582.125 Q53.3995 581.755 50.9921 581.014 L50.9921 576.315 Q53.0754 577.449 55.2977 578.005 Q57.5199 578.56 59.9967 578.56 Q64.0013 578.56 66.3393 576.454 Q68.6772 574.347 68.6772 570.736 Q68.6772 567.125 66.3393 565.019 Q64.0013 562.912 59.9967 562.912 Q58.1217 562.912 56.2467 563.329 Q54.3949 563.745 52.4505 564.625 L52.4505 547.264 Z" fill="#000000" fill-rule="nonzero" fill-opacity="1" /><path clip-path="url(#clip870)" d="M92.566 550.343 Q88.9549 550.343 87.1262 553.908 Q85.3206 557.449 85.3206 564.579 Q85.3206 571.685 87.1262 575.25 Q88.9549 578.792 92.566 578.792 Q96.2002 578.792 98.0058 575.25 Q99.8345 571.685 99.8345 564.579 Q99.8345 557.449 98.0058 553.908 Q96.2002 550.343 92.566 550.343 M92.566 546.639 Q98.3761 546.639 101.432 551.246 Q104.51 555.829 104.51 564.579 Q104.51 573.306 101.432 577.912 Q98.3761 582.495 92.566 582.495 Q86.7558 582.495 83.6771 577.912 Q80.6216 573.306 80.6216 564.579 Q80.6216 555.829 83.6771 551.246 Q86.7558 546.639 92.566 546.639 Z" fill="#000000" fill-rule="nonzero" fill-opacity="1" /><path clip-path="url(#clip870)" d="M52.219 239.642 L74.4411 239.642 L74.4411 241.633 L61.8948 274.202 L57.0106 274.202 L68.8161 243.577 L52.219 243.577 L52.219 239.642 Z" fill="#000000" fill-rule="nonzero" fill-opacity="1" /><path clip-path="url(#clip870)" d="M83.6077 239.642 L101.964 239.642 L101.964 243.577 L87.8901 243.577 L87.8901 252.05 Q88.9086 251.702 89.9271 251.54 Q90.9456 251.355 91.9641 251.355 Q97.7511 251.355 101.131 254.526 Q104.51 257.698 104.51 263.114 Q104.51 268.693 101.038 271.795 Q97.566 274.874 91.2465 274.874 Q89.0706 274.874 86.8021 274.503 Q84.5568 274.133 82.1494 273.392 L82.1494 268.693 Q84.2327 269.827 86.4549 270.383 Q88.6771 270.938 91.1539 270.938 Q95.1586 270.938 97.4965 268.832 Q99.8345 266.725 99.8345 263.114 Q99.8345 259.503 97.4965 257.397 Q95.1586 255.29 91.1539 255.29 Q89.279 255.29 87.404 255.707 Q85.5521 256.124 83.6077 257.003 L83.6077 239.642 Z" fill="#000000" fill-rule="nonzero" fill-opacity="1" /><polyline clip-path="url(#clip871)" style="stroke:#0000ff; stroke-linecap:round; stroke-linejoin:round; stroke-width:4; stroke-opacity:1; fill:none" points="203.121,717.501 231.684,722.983 236.04,717.703 246.08,716.827 253.404,717.078 278.02,718.17 301.12,721.523 327.809,724.246 354.546,727.015 385.033,732.687 414.256,732.971 439.866,733.1 475.588,734.517 498.966,740.197 522.328,744.649 557.05,748.311 582.521,749.726 604.036,754.174 632.543,760.034 656.542,767.138 679.739,775.097 702.969,782.112 730.282,789.077 753.413,797.73 779.379,803.099 810.096,810.735 833.194,810.537 867.283,812.779 892.483,820.829 918.849,828.696 949.687,838.346 974.7,847.101 1000.61,854.385 1019.72,864.438 1036.87,876.16 1046.16,881.775 1065.76,885.107 1082.66,887.53 1104.4,888.392 1130.13,891.07 1156.63,900.188 1184.09,910.237 1206.3,915.652 1232.5,919.599 1264.81,921.244 1294.17,922.08 1326.8,926.416 1354.93,931.47 1380.92,935.067 1406.43,938.096 1437.88,938.114 1462.95,938.055 1489.97,937.421 1516.58,934.576 1545.92,929.382 1574.01,929.297 1601.5,927.597 1628.29,928.427 1649.4,921.719 1667.64,918.263 1684.75,911.928 1702.71,905.276 1723.38,904.873 1746.09,902.881 1768.03,904.575 1787.48,907.875 1809.36,914.297 1829.43,925.16 1850.38,937.933 1866.63,949.321 1882.69,965.855 1893.25,980.117 1900.84,994.685 1910.33,1013.79 1921.71,1032.07 1934.03,1050.71 1945.24,1061.6 1962.62,1068.83 1976.93,1071.82 1987.23,1071.33 2007.7,1064.85 2024.45,1059.4 2045.1,1039.34 2058.45,1024.69 2064.4,1003.75 2066.59,984.955 2065.43,964.041 2052.38,948.348 2032.64,941 2008.08,931.273 1978.57,934.805 1954.17,932.382 1934.21,928.008 1916.35,925.35 1893.64,923.061 1873.29,928.628 1850.28,935.385 1833.52,943.003 1810.81,945.849 1786.77,945.816 1759.2,941.769 1736.18,931.86 1713.92,921.159 1682.88,904.921 1657.28,887.583 1634.3,869.219 1618.19,854.051 1606.11,840.844 1590.15,827.411 1575.97,811.095 1564.32,795.343 1556.65,778.505 1556.67,762.917 1567.69,747.586 1581.41,734.97 1602.84,727.683 1622.27,728.133 1648.17,727.288 1668.82,740 1691.08,749.169 1706.7,754.004 1729.15,760.648 1751.54,772.549 1764.13,781.472 1782.24,791.929 1800.74,802.838 1822.11,810.688 1842.71,812.593 1863.86,813.49 1888.18,806.849 1909.34,802.482 1925.89,801.832 1944.5,808.658 1961.36,819.468 1976.8,834.188 1986.9,850.475 1995.51,870.763 2003.2,893.265 2007.2,913.154 2005.9,934.431 2006.59,945.134 2009.54,958.544 2019.2,977.238 2026.81,994.802 2037.96,1009.65 2048.56,1016.69 2061.37,1020.52 2080.48,1016.65 2099.95,1009.89 2114.09,1001.33 2130.94,989.512 2140.54,979.948 2144.72,960.198 2136.13,942.325 2117.75,922.076 2103.1,905.028 2080.27,895.093 2051.99,890.742 2023.76,886.168 2005.3,883.836 1980.65,882.134 1960.64,880.176 1941.47,870.967 1925.91,864.567 1904.63,857.843 1888.55,856.752 1866.73,858.715 1846.02,853.302 1824.83,848.555 1805.37,847.47 1780.76,844.445 1762.86,840.259 1745.45,835.759 1723.07,833.359 1696.91,834.75 1670.51,840.493 1654.25,839.608 1648.84,832.625 1643.32,829.205 1636.37,827.645 1625.72,826.949 1617.1,826.071 1603.68,829.907 1590.11,836.074 1564.52,840.454 1542.61,843.941 1527.74,849.364 1517.98,857.861 1524.4,859.838 1538.44,858.077 1567.74,854.963 1589.53,838.962 1606.33,823.492 1614.49,807.77 1607.72,790.592 1593.3,771.202 1582.48,760.47 1571.76,739.19 1552.47,728.821 1531.59,739.049 1510.06,740.605 1481.22,735.939 1475.58,718.487 1470.93,698.578 1473.42,677.502 1476.58,661.564 1491.76,639.646 1499.54,620.316 1502.23,597.433 1486.01,584.181 1464.58,575.363 1454.49,573.029 1464.42,561.009 1483.83,550.225 1518.58,549.062 1558.32,535.18 1584.07,518.048 1603.17,493.909 1617.31,472.724 1638.97,462.925 1664.79,466.29 1688.61,471.216 1708.62,489.163 1736.1,502.663 1756.06,519.1 1766.58,538.901 1754.3,556.242 1736.61,572.732 1709.89,585.264 1677.02,591.443 1651.73,591.789 1617.96,577.762 1592.31,561.602 1579.26,540.566 1578.42,518.712 1595.55,503.31 1611.02,493.296 1634.12,478.893 1658.79,469.929 1681.4,454.617 1704.08,442.641 1723.8,440.822 1746.71,427.436 1750.9,413.485 1761.27,396.181 1773.72,390.604 1791.47,373.456 1784.75,360.036 1764.46,348.546 1759.9,347.738 1770.36,343.232 1793.75,336.892 1822.16,342.008 1848.1,343.523 1875.76,348.524 1900.18,366.221 1904.08,383.82 1900.31,396.353 1879.28,408.04 1863.35,430.36 1848.76,457.734 1838,489.705 1840.73,510.241 1805.7,514.032 1781.38,528.942 1749.2,535.863 1718.76,552.132 1701.2,578.013 1680.59,595.967 1653.02,590.958 1631.35,579.025 1603.62,569.845 1589.17,557.357 1562.36,541.184 1554.6,533.989 1561.9,512.058 1585.63,503.505 1620.79,497.429 1649.48,501.564 1684.74,508.439 1713.5,522.345 1721.93,543.88 1736.43,564.62 1751.82,569.744 1778.59,574.538 1802.06,585.185 1812.01,587.472 1837.65,580.271 1862.61,571.6 1882.24,562.985 1902.78,564.966 1922.4,579.388 1920.77,597.466 1921.5,618.608 1908.46,650.908 1888.31,676.344 1864,695.655 1840.91,725.009 1838.73,750.453 1803.69,762.969 1775.49,768.704 1747.29,781.78 1721.26,796.054 1704.41,815.852 1687.74,836.841 1661.27,859.503 1633.74,869.067 1606.83,860.278 1584.44,854.234 1552.45,850.39 1523.25,841.935 1502.83,820.813 1489.19,800.938 1458.33,778.352 1441.1,758.927 1415.51,741.849 1391.45,738.579 1360.16,744.359 1342.51,742.272 1316.58,732.986 1310.96,707.009 1293.91,699.608 1269.85,702.913 1252.43,711.985 1227.91,728.704 1221.74,734.633 1190.41,738.84 1167.65,744.031 1142.37,737.435 1120.79,720.761 1097.88,707.319 1063.18,702.311 1030.64,693.967 1008.11,688.494 986.746,678.259 965.771,657.496 964.464,644.96 974.048,625.175 990.262,604.394 1002.59,581.091 1008.88,550.621 1015.29,526.138 1001.59,505.978 982.484,500.868 970.902,491.096 975.257,476.897 1000.79,475.716 1036.71,479.462 1079.35,476.274 1112.67,472.559 1140.87,454.814 1164.16,430.155 1189.78,411.187 1220.44,403.786 1259.44,405.855 1291.18,418.282 1323.44,432.856 1353.12,446.617 1380.7,459.309 1402.65,473.075 1439.12,479.791 1464.91,493.763 1491.66,515.893 1522.44,543.447 1549.91,559.893 1573.97,570.862 1594.24,580.784 1601.95,572.186 1623.23,562.321 1651.43,549.072 1674.71,538.025 1704.3,527.037 1737.47,525.952 1772.35,535.414 1799.28,559.694 1806.67,581.683 1803.37,613.333 1785.3,645.013 1782.61,671.963 1775.37,704.226 1775.67,739.053 1792.46,769.041 1822.86,795.364 1862.74,794.22 1884.59,796.663 1915.83,803.746 1935.66,824.968 1961.07,850.67 1980.82,882.572 1993.82,914.686 1998.72,938.366 2014.32,921.854 2050.69,925.414 2078.62,931.228 2091.35,946.742 2092.58,950.187 2093.84,954.425 2098.05,970.264 2101.16,977.313 2113.5,981.263 2129.7,983.784 2157.55,978.301 2186.63,986.619 2201.11,998.755 2214.16,1020.51 2215.17,1033.1 2218.7,1022.42 2223.39,1005.79 2223,978.922 2214.05,952.782 2198.38,929.277 2186.42,906.084 2187.11,884.667 2159.08,862.569 2151.4,831.317 2156.76,806.442 2173.86,794.93 2196.33,796.641 2220.5,805.566 2236.64,818.69 2248.45,837.638 2273.61,859.917 2288.81,880.835 2280.01,908.67 2260.68,931.183 2243.08,950.355 2213.63,962.725 2193.93,981.093 2167,995.531 2139.02,1018.04 2119.05,1039.14 2108.06,1063.74 2089.19,1086.53 2071.44,1109.21 2045.64,1125.38 2019.56,1136.83 1989.55,1153.37 1963.41,1171.3 1935.43,1179.97 1905.71,1198.7 1889.63,1216.15 1856.15,1228.65 1837.37,1243.5 1820.18,1262.94 1802.35,1290.32 1794.29,1310.57 1789.1,1330.96 1781.73,1356.39 1804.36,1377.63 1813.86,1391.74 1805.9,1415.34 1798.87,1441.2 1780.64,1445.72 1757.49,1443.31 1734.69,1426.27 1722.87,1399.52 1708.75,1377.81 1684.63,1354.19 1646.81,1327.19 1614.51,1319.73 1578.57,1319.05 1541.4,1325.84 1500.35,1336.23 1473.14,1337.48 1437.35,1325.77 1412.19,1313.01 1392.67,1288.83 1389.83,1256.02 1385.59,1216.55 1364.96,1189.86 1343.96,1167.58 1348.93,1135.6 1346.61,1108.21 1337.36,1084.08 1325.25,1055.8 1307.16,1032.11 1302.85,1006.37 1307.14,972.462 1317.07,937.942 1337.12,909.342 1352.93,878.321 1365.51,846.428 1393.04,824.596 1388.18,796.58 1373.07,772.382 1342.48,749.798 1309.41,745.815 1289.66,732.84 1280.69,707.152 1275.65,675.873 1288.63,648.343 1303.41,626.326 1325.05,617.015 1357.2,605.935 1393.71,600.073 1434.52,596.461 1473.21,596.926 1501.79,588.386 1526.23,562.919 1543.78,541.138 1572.08,528.414 1594.55,522.471 1598.27,508.835 1583.59,493.351 1562.2,478.661 1536.32,465.895 1506.28,438.619 1483.65,412.71 1471.03,387.152 1454.36,366.935 1449.04,349.048 1456.88,328.121 1474.81,318.644 1492.83,327.753 1522.47,332.346 1562.89,335.552 1597.55,343.687 1636.98,349.989 1671,353.422 1702.77,368.161 1727.31,374.704 1753.47,367.169 1777.09,355.546 1808.36,351.045 1841.34,351.061 1871.92,345.831 1895.69,360.81 1907.12,376.365 1911.92,371.696 1921.26,354.861 1939.26,338.277 1957.67,326.844 1981.65,311.952 2001.53,303.537 1991.95,304.768 1969.34,293.197 1959.95,276.292 1947.36,246.477 1950.83,217.741 1962.23,201.798 1991.18,190.694 2024.36,192.535 2048.92,197.587 2083.55,203.016 2119.56,213.964 2142.46,237.461 2147.85,265.886 2141.36,293.036 2129.08,300.819 2133.37,317.466 2137.6,339.457 2132.32,371.369 2103.62,388.425 2084.44,422.797 2057.94,445.431 2034.18,470.913 2026.31,505.136 2002.23,513.842 1966.57,516.248 1930.06,526.706 1898.07,540.619 1881.52,567.994 1869.42,598.769 1869.33,615.928 1896.37,621.232 1925.31,635.1 1962.87,648.934 1997.5,672.119 2024.99,687.868 2063.9,692.549 2099.18,693.151 2138.81,689.801 2168.03,694.175 2194.26,693.862 2205.02,679.441 2218.13,659.375 2233.93,639.174 2233.01,613.49 2229.42,595.615 2219.48,570.81 2193.15,549.503 2170.37,531.312 2146.73,515.63 2104.79,517.175 2079.63,524.073 2054.75,540.996 2037.84,560.726 2011.82,586.406 2007.04,615.364 2011.62,646.092 2016.46,676.853 2033.32,702.965 2044.79,728.744 2059.42,763.005 2075.12,793.974 2107.2,805.671 2137.28,822.935 2164.22,851.205 2182.9,873.768 2197.8,904.983 2204.27,929.953 2202.88,942.139 2170.66,943.829 2134.31,957.419 2106.17,956.283 2089.27,962.648 2068.87,966.464 2046.8,962.687 2015.44,948.704 1985.26,940.099 1948.16,943.214 1903.67,956.862 1866.07,970.684 1828.41,970.859 1784.57,979.442 1745.96,978.99 1706.76,980.614 1674.83,975.525 1639.17,978.55 1606.99,973.546 1574.55,966.628 1539.33,936.076 1511.68,920.513 1473.57,912.398 1440.51,897.106 1409.98,881.938 1378.8,860.804 1353.06,852.021 1326.06,865.04 1302.41,883 1272.04,898.077 1234.3,916.248 1195.94,924.694 1166.75,921.015 1138.54,898.251 1120.64,873.675 1101.94,842.537 1075.8,817.003 1065.41,786.52 1060.65,758.411 1062.64,735.622 1049.23,704.807 1026.15,688.003 997.375,676.628 977.748,655.693 969.745,624.634 968.082,600.587 955.532,573.33 965.064,546.803 986.635,519.321 997.907,502.546 1011.04,495.107 1020.51,481.33 1026.01,465.202 1032.3,441.574 1039.33,417.183 1044.3,388.7 1056.08,355.46 1056.8,332.112 1035.64,313.241 1016.01,299.456 988.701,299.855 961.652,308.441 933.692,304.763 902.022,289.972 863.501,276.194 839.716,269.344 817.308,265.243 802.494,247.432 801.238,226.383 815.344,208.426 837.735,189.471 861.824,172.404 904.545,160.416 934.537,148.306 968.393,142.134 999.417,152.883 1027.67,160.043 1061.61,155.021 1096.04,149.723 1117.02,128.28 1133.22,109.583 1146.06,88.3151 "/>
<polyline clip-path="url(#clip871)" style="stroke:#ff0000; stroke-linecap:round; stroke-linejoin:round; stroke-width:4; stroke-opacity:1; fill:none" points="203.396,717.235 234.358,723.634 237.019,714.737 258.552,716.042 261.994,716.743 289.514,722.44 306.709,725.996 336.008,725.75 360.983,727.768 391.959,734.167 418.713,730.254 440.246,731.546 483.327,734.154 495.33,742.94 520.319,744.946 563.414,747.555 581.52,748.145 601.318,755.393 635.78,762.505 655.592,769.753 678.861,777.714 702.997,782.697 734.031,789.108 752.99,799.333 781.465,802.065 815.117,812.18 831.516,806.101 873.816,811.688 891.936,824.903 919.558,830.612 953.253,840.727 973.123,847.987 1000.77,853.696 1015.47,866.21 1033.64,879.438 1037.1,880.152 1069.94,880.619 1083.77,883.486 1108.84,885.504 1136.52,891.226 1161.64,905.906 1188.48,914.605 1206.65,915.208 1235.19,917.952 1271.54,919.134 1296.63,921.164 1331.26,928.325 1355.53,933.346 1380.62,935.364 1405.72,937.394 1442.92,935.61 1461.1,936.201 1490.51,935.967 1517.31,932.017 1548.4,925.815 1576.14,931.537 1602.92,927.599 1628.04,929.63 1646.09,917.571 1664.27,918.162 1681.46,909.093 1701.3,903.716 1725.58,908.736 1748.88,904.073 1769.71,908.367 1787.04,911.948 1810.52,919.946 1828.87,933.198 1851.51,944.186 1863.76,953.034 1880.48,972.278 1888.43,983.402 1895.56,997.516 1908,1019.06 1922.1,1034.63 1935.38,1053.2 1944.99,1058.35 1969.35,1063.4 1979.79,1065.55 1987.58,1063.99 2016.04,1054.04 2027.29,1053.2 2049.39,1026.12 2055.33,1017.86 2054.09,995.473 2058.17,980.523 2056.94,958.165 2037.72,947.89 2020.34,944.297 1997.66,933.309 1970.05,940.237 1949.22,935.942 1932.67,929.371 1915.32,925.791 1890.18,923.76 1872.18,935.831 1848.87,940.483 1835.98,947.3 1807.38,944.543 1782.24,942.525 1754.48,936.791 1736.14,923.539 1712.68,915.541 1677.02,898.708 1656.08,881.776 1635.16,864.845 1623.79,853.057 1612.44,841.256 1590.69,827.327 1577.56,808.882 1567.04,794.141 1560.84,777.135 1565.02,762.283 1583.86,747.308 1594.11,736.849 1617.37,732.223 1631.19,735.065 1660.54,734.831 1674.51,750.262 1695.27,754.544 1705.66,756.672 1733.35,762.382 1755.1,776.274 1760.38,783.645 1782.97,794.584 1802.1,804.821 1826.35,809.817 1845.32,807.43 1866.94,808.734 1891.85,798.14 1910,798.743 1923.86,801.598 1945.67,815.514 1960.55,828.016 1974.62,843.496 1981.75,857.548 1990.73,878.294 1999.72,899.052 2002.56,915.405 2000.31,937.013 2002.97,940.716 2009.3,957.808 2025.25,980.043 2028.12,996.433 2043.04,1009 2053.48,1011.16 2067.39,1014.03 2088.06,1005.65 2104.42,999.546 2113.82,992.003 2131.81,979.92 2136.91,974.666 2136.45,949.318 2121.51,936.767 2103.91,920.524 2093.28,905.734 2069.78,897.736 2041.18,894.992 2016.87,889.983 2006.45,887.83 1977.86,885.098 1960.51,881.518 1942.97,865.3 1929.09,862.445 1901.33,856.723 1889.29,860.538 1862.53,864.475 1844.2,851.248 1823.39,846.966 1804.4,849.34 1776.68,843.631 1763.63,837.798 1746.31,834.218 1720.39,835.178 1690.18,838.401 1666.06,846.018 1657.34,837.922 1657.19,825.297 1649.44,826.847 1638.22,827.684 1623.53,827.807 1616.6,826.38 1599.41,835.424 1586.52,842.216 1553.68,841.748 1538.15,844.837 1528.7,852.343 1521.89,863.553 1537.42,860.452 1556.41,858.065 1587.48,851.863 1596.77,831.732 1611.34,818.997 1615.5,804.12 1605.83,786.401 1589.24,767.267 1580.52,759.183 1569.07,734.844 1549.15,727.596 1526.85,741.857 1505.28,740.553 1474.16,734.142 1475.73,715.623 1470.4,695.702 1472.81,674.242 1476.99,659.427 1494.88,634.916 1499.9,617.16 1503.14,592.796 1484.12,582.632 1460.81,574.72 1453.91,573.305 1465.83,557.001 1490.7,546.481 1530.3,548.363 1567.98,531.124 1586.77,516.247 1604.58,491.835 1617.28,472.627 1637.82,464.37 1666.22,467.077 1690.34,472.011 1710.34,491.687 1739.71,503.943 1757.12,519.988 1765.97,540.525 1754.13,556.817 1734.55,574.659 1705.42,587.431 1671.05,592.882 1649.5,591.59 1610.57,574.216 1588.92,560.397 1580.11,539.848 1579.04,517.786 1597.82,502.921 1611.47,493.25 1637.95,476.86 1661.94,469.317 1684.96,452.225 1706.31,441.04 1724.35,441.618 1750.79,425.253 1750.64,412.788 1763.28,393.617 1775.26,389.852 1795.61,369.167 1784.3,357.539 1758.4,346.034 1774.64,340.054 1805.44,333.938 1832.15,342.49 1853.63,343.782 1881.16,349.406 1904.63,369.721 1903.99,385.114 1900.73,396.866 1875.16,410.278 1860.9,435.343 1845.82,463.373 1836.79,495.784 1840.42,509 1799.18,513.011 1779.63,530.841 1745.28,536.28 1714.52,554.934 1700.17,580.11 1681.4,595.011 1653.78,589.338 1631.28,578.473 1601.06,569.134 1589.75,557.444 1558.6,538.556 1555.98,534.902 1563.47,508.348 1590.92,501.506 1628.71,496.781 1652.83,501.728 1690.76,509.504 1715.88,524.012 1721.27,543.835 1737.02,565.799 1750.83,568.629 1781.91,575.003 1804.43,585.881 1811.34,587.296 1843.08,578.19 1867.09,570.623 1884.17,561.64 1904.89,565.885 1925.8,582.657 1920.9,600.401 1922.09,622.525 1904.53,659.599 1884.14,680.456 1861.09,697.658 1837.38,730.414 1839.37,749.646 1798.98,763.317 1775.72,767.956 1745.7,783.768 1719.94,797.328 1703.75,816.019 1686.71,837.688 1657.61,863.183 1634.32,867.835 1607.43,859.135 1583.18,854.127 1547.69,849.968 1520.84,841.268 1501.62,818.418 1488.52,799.973 1452.03,773.579 1441.56,758.85 1413.82,740.565 1392.23,739.261 1357.77,744.724 1343.94,741.87 1313.69,732.506 1310.94,703.663 1293.68,700.107 1266.97,704.032 1249.77,713.052 1222.27,732.518 1221.41,735.483 1183.48,740.233 1163.65,745.586 1136.88,736.911 1117,717.1 1094.54,706.186 1055.74,701.337 1025.56,691.973 1008.32,688.417 985.907,677.515 963.477,654.074 966.066,645.19 976.377,622.229 993.571,600.696 1003.87,577.772 1009.84,544.586 1015.83,523.938 999.472,504.952 982.277,501.42 971.098,489.755 975.379,475.026 1008.03,475.481 1046.7,480.305 1087.93,476.294 1114.56,472.393 1141.99,453.074 1167.66,427.185 1190.77,410.118 1221.64,404.002 1264.58,406.574 1293.84,418.793 1325.69,434.666 1354.98,446.897 1380.84,458.427 1402.41,472.208 1443.73,480.674 1465.32,494.468 1494.76,519.225 1526.84,547.662 1549.31,558.515 1571.8,569.38 1590.83,579.544 1600.23,572.087 1625.08,561.566 1655.04,545.853 1675.59,537.584 1708.14,525.538 1740.84,526.005 1777.98,536.735 1803.28,563.781 1806.08,579.962 1803.11,616.864 1782.87,650.26 1784.01,672.409 1774.1,707.994 1775.4,742.768 1793.03,771.524 1826.19,797.205 1864.12,792.443 1877.99,795.297 1916.11,803.136 1935.46,825.986 1964.41,853.979 1984.81,886.526 1994.8,916.956 1997.66,933.309 2012.17,920.536 2054.67,926.147 2078.99,931.156 2089.64,945.971 2092.3,949.674 2094.15,956.368 2099.69,976.45 2102.35,980.166 2119.75,983.747 2137.94,984.35 2169.84,975.133 2195.23,989.85 2203.25,1000.99 2218.46,1026.25 2216.02,1035.23 2220.08,1020.26 2225.75,999.3 2222.58,970.236 2210.87,945.725 2194.86,923.514 2185.82,902.744 2187.21,884.126 2153.86,858.372 2151.56,826.441 2157.23,805.609 2174.35,796.565 2195.97,797.881 2222.93,806.556 2237.87,819.058 2250.38,840.493 2280.28,865.521 2290.15,883.29 2278.62,912.403 2258.26,933.42 2242.16,952.185 2209.48,964.379 2193.37,983.156 2164.16,996.076 2135.15,1021.69 2119.01,1040.5 2109,1063.75 2087.73,1087.86 2070.74,1109.7 2044.11,1126.4 2019.11,1137.09 1984.66,1155.35 1961.48,1172.79 1933.79,1179.76 1901.96,1201.78 1890.85,1215.39 1853.68,1229.95 1839.08,1242.85 1818.48,1264.06 1798.87,1295.06 1794.72,1310.15 1788.9,1331.29 1781.4,1358.48 1808.68,1380.14 1813.18,1390.67 1805.69,1417.9 1798.18,1445.17 1779.87,1444.55 1754.55,1442.5 1730.76,1421.53 1719.99,1393.67 1706.7,1374.92 1680.29,1350.25 1636.47,1321.96 1614.69,1320.63 1578.13,1319.42 1539.04,1327.26 1495.62,1337.41 1477.34,1336.8 1436.34,1325.08 1413.63,1313.96 1391.71,1287.05 1390.6,1251.72 1384.22,1208.96 1364.1,1188.87 1344,1168.78 1349.87,1135.01 1346.24,1108.84 1338.29,1084.97 1325.09,1053.68 1305.9,1030.68 1302.28,1004.58 1309.01,967.984 1318.33,935.13 1337.19,907.444 1353.43,876.079 1366.19,844.025 1393.69,824.497 1386.61,797.845 1371.75,772.755 1338.8,747.099 1309.47,747.345 1291.28,734.167 1280.78,706.875 1276.28,671.424 1290.8,646.199 1303.6,626.905 1324.22,618.612 1361.17,604.289 1399.01,599.551 1440.32,595.528 1476.48,596.709 1500.52,589.129 1526.95,560.176 1543.14,541.632 1572.26,528.885 1592,523.569 1596.15,508.815 1582.24,493.496 1558,476.06 1532.12,464.518 1500.91,433.202 1481.82,410.622 1470.47,386.529 1454.01,367.617 1451.31,351.534 1457.97,328.057 1475.05,319.148 1494.01,329.226 1529.21,333.323 1572.12,335.883 1602.24,345.148 1644.34,350.648 1672.68,353.343 1704.61,369.192 1725.26,373.412 1752.66,366.596 1777.41,356.136 1811.67,350.722 1844.28,351.178 1875.09,345.062 1895.92,361.735 1906.44,376.292 1911.51,371.124 1924.11,351.977 1943.58,334.246 1960.61,325.325 1986.95,309.009 2003.14,303.016 1992.01,303.841 1963.47,288.73 1957.21,271.983 1944.7,238.502 1952.02,212.169 1962.13,201.883 1994.49,189.947 2029.66,194.02 2050.29,198.228 2088.91,203.002 2125.13,216.55 2144.37,239.006 2147.47,267.467 2140.22,293.825 2131.73,298.291 2133.79,317.29 2137.68,342.872 2131.44,378.814 2099.02,390.812 2080.82,430.581 2054.45,446.946 2032.53,473.574 2026.24,509.664 2003.89,511.313 1962.66,515.337 1925.89,529.623 1896.81,542.383 1881.72,570.5 1869.24,602.308 1870.24,611.881 1897.07,620.519 1929.19,636.491 1969.06,650.937 2002.23,676.531 2024.83,687.433 2067.19,692.995 2099.98,693.462 2141.32,689.426 2165.56,694.41 2191.43,693.45 2202.39,680.05 2219.24,658.48 2236.06,636.909 2232.13,611.106 2229.22,594.9 2218.36,567.706 2187.82,545.853 2170.3,529.807 2145.08,515.288 2096.94,517.896 2080.68,523.926 2053.47,543.294 2037.43,561.837 2007.74,590.089 2007.34,618.132 2013.02,650.567 2016.07,679.373 2034.61,705.103 2046.22,729.429 2061.52,767.095 2075.83,795.15 2106.22,804.551 2137.68,823.586 2165.91,854.558 2182.68,873.753 2198.91,908.588 2204.48,928.645 2202.05,937.603 2167.51,943.104 2126.25,959.838 2105.39,955.532 2092.51,962.348 2069.2,967.012 2044.88,961.992 2009.1,945.134 1981.31,939.4 1943.29,944.186 1895.01,959.481 1862.29,971.676 1825.89,970.482 1779.25,979.809 1746.34,979.329 1705.64,980.412 1677.86,974.678 1639.81,979.452 1608.58,973.004 1573.87,965.831 1532.85,928.916 1512.88,921.632 1471.29,913.043 1439.17,896.936 1410.53,881.555 1376.66,858.791 1355.88,854.508 1326.58,867.379 1299.88,883.942 1269.7,899.815 1227.43,919.503 1192.85,924.991 1168.61,919.983 1135.67,894.216 1120.04,872.043 1100.08,839.521 1074.11,815.244 1064.55,784.912 1061.03,759.01 1063.58,737.514 1047.99,702.876 1026.41,689.008 997.1,676.691 978.127,653.951 969.493,620.814 967.743,601.656 954.829,570.807 965.993,544.942 989.175,515.325 996.044,504.238 1008.92,497.519 1020.93,481.252 1026.05,463.583 1033.75,437.103 1040.57,413.576 1045.66,383.478 1059.31,348.963 1056.71,332.88 1033.53,312.602 1015.51,299.596 986.37,299.842 958.097,309.575 930.678,303.964 895.551,287.451 856.158,273.177 842.463,270.371 818.486,265.462 802.246,246.623 801.436,224.757 817.72,206.398 841.697,186.526 864.806,169.595 915.262,158.249 936.637,147.163 970.824,141.773 999.906,153.906 1027.28,159.492 1064.9,154.804 1099.08,149.427 1116.12,128.189 1132.3,109.879 1145.89,87.9763 "/>
<path clip-path="url(#clip870)" d="M214.252 1438.47 L760.776 1438.47 L760.776 1282.95 L214.252 1282.95  Z" fill="#ffffff" fill-rule="evenodd" fill-opacity="1"/>
<polyline clip-path="url(#clip870)" style="stroke:#000000; stroke-linecap:round; stroke-linejoin:round; stroke-width:4; stroke-opacity:1; fill:none" points="214.252,1438.47 760.776,1438.47 760.776,1282.95 214.252,1282.95 214.252,1438.47 "/>
<polyline clip-path="url(#clip870)" style="stroke:#0000ff; stroke-linecap:round; stroke-linejoin:round; stroke-width:4; stroke-opacity:1; fill:none" points="238.832,1334.79 386.315,1334.79 "/>
<path clip-path="url(#clip870)" d="M434.924 1338.05 L434.924 1340.13 L415.34 1340.13 Q415.618 1344.53 417.979 1346.84 Q420.363 1349.13 424.6 1349.13 Q427.053 1349.13 429.345 1348.53 Q431.66 1347.93 433.928 1346.73 L433.928 1350.75 Q431.637 1351.73 429.229 1352.24 Q426.822 1352.75 424.345 1352.75 Q418.141 1352.75 414.507 1349.13 Q410.896 1345.52 410.896 1339.37 Q410.896 1333 414.322 1329.27 Q417.771 1325.52 423.604 1325.52 Q428.836 1325.52 431.868 1328.9 Q434.924 1332.26 434.924 1338.05 M430.664 1336.8 Q430.618 1333.3 428.697 1331.22 Q426.799 1329.13 423.65 1329.13 Q420.086 1329.13 417.933 1331.15 Q415.803 1333.16 415.479 1336.82 L430.664 1336.8 Z" fill="#000000" fill-rule="nonzero" fill-opacity="1" /><path clip-path="url(#clip870)" d="M458.442 1326.91 L458.442 1330.94 Q456.636 1330.01 454.692 1329.55 Q452.748 1329.09 450.664 1329.09 Q447.493 1329.09 445.896 1330.06 Q444.322 1331.03 444.322 1332.98 Q444.322 1334.46 445.456 1335.32 Q446.59 1336.15 450.016 1336.91 L451.474 1337.24 Q456.011 1338.21 457.91 1339.99 Q459.831 1341.75 459.831 1344.92 Q459.831 1348.53 456.96 1350.64 Q454.113 1352.75 449.113 1352.75 Q447.03 1352.75 444.761 1352.33 Q442.516 1351.94 440.016 1351.13 L440.016 1346.73 Q442.377 1347.95 444.669 1348.58 Q446.961 1349.18 449.206 1349.18 Q452.215 1349.18 453.836 1348.16 Q455.456 1347.12 455.456 1345.25 Q455.456 1343.51 454.275 1342.58 Q453.118 1341.66 449.16 1340.8 L447.678 1340.45 Q443.72 1339.62 441.961 1337.91 Q440.201 1336.17 440.201 1333.16 Q440.201 1329.51 442.794 1327.51 Q445.386 1325.52 450.155 1325.52 Q452.516 1325.52 454.599 1325.87 Q456.683 1326.22 458.442 1326.91 Z" fill="#000000" fill-rule="nonzero" fill-opacity="1" /><path clip-path="url(#clip870)" d="M470.826 1318.79 L470.826 1326.15 L479.599 1326.15 L479.599 1329.46 L470.826 1329.46 L470.826 1343.53 Q470.826 1346.7 471.683 1347.61 Q472.562 1348.51 475.224 1348.51 L479.599 1348.51 L479.599 1352.07 L475.224 1352.07 Q470.294 1352.07 468.419 1350.25 Q466.544 1348.39 466.544 1343.53 L466.544 1329.46 L463.419 1329.46 L463.419 1326.15 L466.544 1326.15 L466.544 1318.79 L470.826 1318.79 Z" fill="#000000" fill-rule="nonzero" fill-opacity="1" /><path clip-path="url(#clip870)" d="M485.201 1326.15 L489.46 1326.15 L489.46 1352.07 L485.201 1352.07 L485.201 1326.15 M485.201 1316.06 L489.46 1316.06 L489.46 1321.45 L485.201 1321.45 L485.201 1316.06 Z" fill="#000000" fill-rule="nonzero" fill-opacity="1" /><path clip-path="url(#clip870)" d="M518.557 1331.13 Q520.155 1328.26 522.377 1326.89 Q524.599 1325.52 527.608 1325.52 Q531.659 1325.52 533.858 1328.37 Q536.057 1331.19 536.057 1336.43 L536.057 1352.07 L531.775 1352.07 L531.775 1336.57 Q531.775 1332.84 530.455 1331.03 Q529.136 1329.23 526.428 1329.23 Q523.118 1329.23 521.196 1331.43 Q519.275 1333.63 519.275 1337.42 L519.275 1352.07 L514.993 1352.07 L514.993 1336.57 Q514.993 1332.82 513.673 1331.03 Q512.354 1329.23 509.599 1329.23 Q506.335 1329.23 504.414 1331.45 Q502.493 1333.65 502.493 1337.42 L502.493 1352.07 L498.21 1352.07 L498.21 1326.15 L502.493 1326.15 L502.493 1330.18 Q503.951 1327.79 505.988 1326.66 Q508.025 1325.52 510.826 1325.52 Q513.65 1325.52 515.618 1326.96 Q517.608 1328.39 518.557 1331.13 Z" fill="#000000" fill-rule="nonzero" fill-opacity="1" /><path clip-path="url(#clip870)" d="M556.335 1339.04 Q551.173 1339.04 549.182 1340.22 Q547.191 1341.4 547.191 1344.25 Q547.191 1346.52 548.673 1347.86 Q550.178 1349.18 552.747 1349.18 Q556.289 1349.18 558.418 1346.68 Q560.571 1344.16 560.571 1339.99 L560.571 1339.04 L556.335 1339.04 M564.83 1337.28 L564.83 1352.07 L560.571 1352.07 L560.571 1348.14 Q559.113 1350.5 556.937 1351.63 Q554.761 1352.75 551.613 1352.75 Q547.631 1352.75 545.27 1350.52 Q542.932 1348.28 542.932 1344.53 Q542.932 1340.15 545.849 1337.93 Q548.789 1335.71 554.599 1335.71 L560.571 1335.71 L560.571 1335.29 Q560.571 1332.35 558.627 1330.76 Q556.705 1329.13 553.21 1329.13 Q550.988 1329.13 548.881 1329.67 Q546.775 1330.2 544.83 1331.26 L544.83 1327.33 Q547.168 1326.43 549.367 1325.99 Q551.566 1325.52 553.65 1325.52 Q559.275 1325.52 562.053 1328.44 Q564.83 1331.36 564.83 1337.28 Z" fill="#000000" fill-rule="nonzero" fill-opacity="1" /><path clip-path="url(#clip870)" d="M577.816 1318.79 L577.816 1326.15 L586.589 1326.15 L586.589 1329.46 L577.816 1329.46 L577.816 1343.53 Q577.816 1346.7 578.673 1347.61 Q579.552 1348.51 582.214 1348.51 L586.589 1348.51 L586.589 1352.07 L582.214 1352.07 Q577.284 1352.07 575.409 1350.25 Q573.534 1348.39 573.534 1343.53 L573.534 1329.46 L570.409 1329.46 L570.409 1326.15 L573.534 1326.15 L573.534 1318.79 L577.816 1318.79 Z" fill="#000000" fill-rule="nonzero" fill-opacity="1" /><path clip-path="url(#clip870)" d="M614.367 1338.05 L614.367 1340.13 L594.784 1340.13 Q595.062 1344.53 597.423 1346.84 Q599.807 1349.13 604.043 1349.13 Q606.497 1349.13 608.788 1348.53 Q611.103 1347.93 613.372 1346.73 L613.372 1350.75 Q611.08 1351.73 608.673 1352.24 Q606.265 1352.75 603.788 1352.75 Q597.585 1352.75 593.95 1349.13 Q590.339 1345.52 590.339 1339.37 Q590.339 1333 593.765 1329.27 Q597.214 1325.52 603.048 1325.52 Q608.279 1325.52 611.312 1328.9 Q614.367 1332.26 614.367 1338.05 M610.108 1336.8 Q610.062 1333.3 608.14 1331.22 Q606.242 1329.13 603.094 1329.13 Q599.529 1329.13 597.376 1331.15 Q595.247 1333.16 594.923 1336.82 L610.108 1336.8 Z" fill="#000000" fill-rule="nonzero" fill-opacity="1" /><polyline clip-path="url(#clip870)" style="stroke:#ff0000; stroke-linecap:round; stroke-linejoin:round; stroke-width:4; stroke-opacity:1; fill:none" points="238.832,1386.63 386.315,1386.63 "/>
<path clip-path="url(#clip870)" d="M431.243 1382.97 Q432.84 1380.1 435.062 1378.73 Q437.285 1377.36 440.294 1377.36 Q444.345 1377.36 446.544 1380.21 Q448.743 1383.03 448.743 1388.27 L448.743 1403.91 L444.461 1403.91 L444.461 1388.41 Q444.461 1384.68 443.141 1382.87 Q441.822 1381.07 439.113 1381.07 Q435.803 1381.07 433.882 1383.27 Q431.961 1385.47 431.961 1389.26 L431.961 1403.91 L427.678 1403.91 L427.678 1388.41 Q427.678 1384.66 426.359 1382.87 Q425.039 1381.07 422.285 1381.07 Q419.021 1381.07 417.1 1383.29 Q415.178 1385.49 415.178 1389.26 L415.178 1403.91 L410.896 1403.91 L410.896 1377.99 L415.178 1377.99 L415.178 1382.02 Q416.637 1379.63 418.674 1378.5 Q420.711 1377.36 423.512 1377.36 Q426.336 1377.36 428.303 1378.8 Q430.294 1380.23 431.243 1382.97 Z" fill="#000000" fill-rule="nonzero" fill-opacity="1" /><path clip-path="url(#clip870)" d="M479.414 1389.89 L479.414 1391.97 L459.831 1391.97 Q460.109 1396.37 462.47 1398.68 Q464.854 1400.97 469.09 1400.97 Q471.544 1400.97 473.835 1400.37 Q476.15 1399.77 478.419 1398.57 L478.419 1402.59 Q476.127 1403.57 473.72 1404.08 Q471.312 1404.59 468.835 1404.59 Q462.632 1404.59 458.998 1400.97 Q455.386 1397.36 455.386 1391.21 Q455.386 1384.84 458.812 1381.11 Q462.261 1377.36 468.095 1377.36 Q473.326 1377.36 476.359 1380.74 Q479.414 1384.1 479.414 1389.89 M475.155 1388.64 Q475.109 1385.14 473.187 1383.06 Q471.289 1380.97 468.141 1380.97 Q464.576 1380.97 462.423 1382.99 Q460.294 1385 459.97 1388.66 L475.155 1388.64 Z" fill="#000000" fill-rule="nonzero" fill-opacity="1" /><path clip-path="url(#clip870)" d="M498.187 1390.88 Q493.025 1390.88 491.034 1392.06 Q489.044 1393.24 489.044 1396.09 Q489.044 1398.36 490.525 1399.7 Q492.03 1401.02 494.599 1401.02 Q498.141 1401.02 500.27 1398.52 Q502.423 1396 502.423 1391.83 L502.423 1390.88 L498.187 1390.88 M506.682 1389.12 L506.682 1403.91 L502.423 1403.91 L502.423 1399.98 Q500.965 1402.34 498.789 1403.47 Q496.613 1404.59 493.465 1404.59 Q489.483 1404.59 487.122 1402.36 Q484.784 1400.12 484.784 1396.37 Q484.784 1391.99 487.701 1389.77 Q490.641 1387.55 496.451 1387.55 L502.423 1387.55 L502.423 1387.13 Q502.423 1384.19 500.479 1382.6 Q498.557 1380.97 495.062 1380.97 Q492.84 1380.97 490.733 1381.51 Q488.627 1382.04 486.683 1383.1 L486.683 1379.17 Q489.021 1378.27 491.22 1377.83 Q493.419 1377.36 495.502 1377.36 Q501.127 1377.36 503.905 1380.28 Q506.682 1383.2 506.682 1389.12 Z" fill="#000000" fill-rule="nonzero" fill-opacity="1" /><path clip-path="url(#clip870)" d="M531.983 1378.75 L531.983 1382.78 Q530.178 1381.85 528.233 1381.39 Q526.289 1380.93 524.206 1380.93 Q521.034 1380.93 519.437 1381.9 Q517.863 1382.87 517.863 1384.82 Q517.863 1386.3 518.997 1387.16 Q520.131 1387.99 523.557 1388.75 L525.016 1389.08 Q529.553 1390.05 531.451 1391.83 Q533.372 1393.59 533.372 1396.76 Q533.372 1400.37 530.502 1402.48 Q527.655 1404.59 522.655 1404.59 Q520.571 1404.59 518.303 1404.17 Q516.057 1403.78 513.557 1402.97 L513.557 1398.57 Q515.919 1399.79 518.21 1400.42 Q520.502 1401.02 522.747 1401.02 Q525.756 1401.02 527.377 1400 Q528.997 1398.96 528.997 1397.09 Q528.997 1395.35 527.817 1394.42 Q526.659 1393.5 522.701 1392.64 L521.219 1392.29 Q517.261 1391.46 515.502 1389.75 Q513.743 1388.01 513.743 1385 Q513.743 1381.35 516.335 1379.35 Q518.928 1377.36 523.696 1377.36 Q526.057 1377.36 528.141 1377.71 Q530.224 1378.06 531.983 1378.75 Z" fill="#000000" fill-rule="nonzero" fill-opacity="1" /><path clip-path="url(#clip870)" d="M539.715 1393.68 L539.715 1377.99 L543.974 1377.99 L543.974 1393.52 Q543.974 1397.2 545.409 1399.05 Q546.844 1400.88 549.715 1400.88 Q553.164 1400.88 555.154 1398.68 Q557.168 1396.48 557.168 1392.69 L557.168 1377.99 L561.428 1377.99 L561.428 1403.91 L557.168 1403.91 L557.168 1399.93 Q555.617 1402.29 553.557 1403.45 Q551.52 1404.59 548.812 1404.59 Q544.344 1404.59 542.029 1401.81 Q539.715 1399.03 539.715 1393.68 M550.432 1377.36 L550.432 1377.36 Z" fill="#000000" fill-rule="nonzero" fill-opacity="1" /><path clip-path="url(#clip870)" d="M585.224 1381.97 Q584.506 1381.55 583.65 1381.37 Q582.816 1381.16 581.798 1381.16 Q578.187 1381.16 576.242 1383.52 Q574.321 1385.86 574.321 1390.26 L574.321 1403.91 L570.039 1403.91 L570.039 1377.99 L574.321 1377.99 L574.321 1382.02 Q575.664 1379.66 577.816 1378.52 Q579.969 1377.36 583.048 1377.36 Q583.488 1377.36 584.02 1377.43 Q584.552 1377.48 585.201 1377.6 L585.224 1381.97 Z" fill="#000000" fill-rule="nonzero" fill-opacity="1" /><path clip-path="url(#clip870)" d="M610.825 1389.89 L610.825 1391.97 L591.242 1391.97 Q591.52 1396.37 593.881 1398.68 Q596.265 1400.97 600.501 1400.97 Q602.955 1400.97 605.247 1400.37 Q607.562 1399.77 609.83 1398.57 L609.83 1402.59 Q607.538 1403.57 605.131 1404.08 Q602.724 1404.59 600.247 1404.59 Q594.043 1404.59 590.409 1400.97 Q586.798 1397.36 586.798 1391.21 Q586.798 1384.84 590.224 1381.11 Q593.673 1377.36 599.506 1377.36 Q604.737 1377.36 607.77 1380.74 Q610.825 1384.1 610.825 1389.89 M606.566 1388.64 Q606.52 1385.14 604.599 1383.06 Q602.7 1380.97 599.552 1380.97 Q595.988 1380.97 593.835 1382.99 Q591.705 1385 591.381 1388.66 L606.566 1388.64 Z" fill="#000000" fill-rule="nonzero" fill-opacity="1" /><path clip-path="url(#clip870)" d="M638.001 1382.97 Q639.598 1380.1 641.821 1378.73 Q644.043 1377.36 647.052 1377.36 Q651.103 1377.36 653.302 1380.21 Q655.501 1383.03 655.501 1388.27 L655.501 1403.91 L651.219 1403.91 L651.219 1388.41 Q651.219 1384.68 649.899 1382.87 Q648.58 1381.07 645.872 1381.07 Q642.561 1381.07 640.64 1383.27 Q638.719 1385.47 638.719 1389.26 L638.719 1403.91 L634.436 1403.91 L634.436 1388.41 Q634.436 1384.66 633.117 1382.87 Q631.798 1381.07 629.043 1381.07 Q625.779 1381.07 623.858 1383.29 Q621.936 1385.49 621.936 1389.26 L621.936 1403.91 L617.654 1403.91 L617.654 1377.99 L621.936 1377.99 L621.936 1382.02 Q623.395 1379.63 625.432 1378.5 Q627.469 1377.36 630.27 1377.36 Q633.094 1377.36 635.061 1378.8 Q637.052 1380.23 638.001 1382.97 Z" fill="#000000" fill-rule="nonzero" fill-opacity="1" /><path clip-path="url(#clip870)" d="M686.172 1389.89 L686.172 1391.97 L666.589 1391.97 Q666.867 1396.37 669.228 1398.68 Q671.612 1400.97 675.848 1400.97 Q678.302 1400.97 680.594 1400.37 Q682.908 1399.77 685.177 1398.57 L685.177 1402.59 Q682.885 1403.57 680.478 1404.08 Q678.07 1404.59 675.594 1404.59 Q669.39 1404.59 665.756 1400.97 Q662.145 1397.36 662.145 1391.21 Q662.145 1384.84 665.57 1381.11 Q669.02 1377.36 674.853 1377.36 Q680.084 1377.36 683.117 1380.74 Q686.172 1384.1 686.172 1389.89 M681.913 1388.64 Q681.867 1385.14 679.945 1383.06 Q678.047 1380.97 674.899 1380.97 Q671.334 1380.97 669.182 1382.99 Q667.052 1385 666.728 1388.66 L681.913 1388.64 Z" fill="#000000" fill-rule="nonzero" fill-opacity="1" /><path clip-path="url(#clip870)" d="M714.714 1388.27 L714.714 1403.91 L710.455 1403.91 L710.455 1388.41 Q710.455 1384.72 709.019 1382.9 Q707.584 1381.07 704.714 1381.07 Q701.265 1381.07 699.274 1383.27 Q697.283 1385.47 697.283 1389.26 L697.283 1403.91 L693.001 1403.91 L693.001 1377.99 L697.283 1377.99 L697.283 1382.02 Q698.811 1379.68 700.871 1378.52 Q702.955 1377.36 705.663 1377.36 Q710.13 1377.36 712.422 1380.14 Q714.714 1382.9 714.714 1388.27 Z" fill="#000000" fill-rule="nonzero" fill-opacity="1" /><path clip-path="url(#clip870)" d="M727.422 1370.63 L727.422 1377.99 L736.195 1377.99 L736.195 1381.3 L727.422 1381.3 L727.422 1395.37 Q727.422 1398.54 728.278 1399.45 Q729.158 1400.35 731.82 1400.35 L736.195 1400.35 L736.195 1403.91 L731.82 1403.91 Q726.89 1403.91 725.015 1402.09 Q723.14 1400.23 723.14 1395.37 L723.14 1381.3 L720.015 1381.3 L720.015 1377.99 L723.14 1377.99 L723.14 1370.63 L727.422 1370.63 Z" fill="#000000" fill-rule="nonzero" fill-opacity="1" /></svg>
