<?xml version="1.0" encoding="utf-8"?>
<svg xmlns="http://www.w3.org/2000/svg" xmlns:xlink="http://www.w3.org/1999/xlink" width="600" height="400" viewBox="0 0 2400 1600">
<defs>
  <clipPath id="clip310">
    <rect x="0" y="0" width="2400" height="1600"/>
  </clipPath>
</defs>
<path clip-path="url(#clip310)" d="M0 1600 L2400 1600 L2400 0 L0 0  Z" fill="#ffffff" fill-rule="evenodd" fill-opacity="1"/>
<defs>
  <clipPath id="clip311">
    <rect x="480" y="0" width="1681" height="1600"/>
  </clipPath>
</defs>
<path clip-path="url(#clip310)" d="M140.51 1486.45 L2352.76 1486.45 L2352.76 47.2441 L140.51 47.2441  Z" fill="#ffffff" fill-rule="evenodd" fill-opacity="1"/>
<defs>
  <clipPath id="clip312">
    <rect x="140" y="47" width="2213" height="1440"/>
  </clipPath>
</defs>
<polyline clip-path="url(#clip312)" style="stroke:#000000; stroke-linecap:round; stroke-linejoin:round; stroke-width:2; stroke-opacity:0.1; fill:none" points="352.728,1486.45 352.728,47.2441 "/>
<polyline clip-path="url(#clip312)" style="stroke:#000000; stroke-linecap:round; stroke-linejoin:round; stroke-width:2; stroke-opacity:0.1; fill:none" points="786.556,1486.45 786.556,47.2441 "/>
<polyline clip-path="url(#clip312)" style="stroke:#000000; stroke-linecap:round; stroke-linejoin:round; stroke-width:2; stroke-opacity:0.1; fill:none" points="1220.38,1486.45 1220.38,47.2441 "/>
<polyline clip-path="url(#clip312)" style="stroke:#000000; stroke-linecap:round; stroke-linejoin:round; stroke-width:2; stroke-opacity:0.1; fill:none" points="1654.21,1486.45 1654.21,47.2441 "/>
<polyline clip-path="url(#clip312)" style="stroke:#000000; stroke-linecap:round; stroke-linejoin:round; stroke-width:2; stroke-opacity:0.1; fill:none" points="2088.04,1486.45 2088.04,47.2441 "/>
<polyline clip-path="url(#clip312)" style="stroke:#000000; stroke-linecap:round; stroke-linejoin:round; stroke-width:2; stroke-opacity:0.1; fill:none" points="140.51,1180.23 2352.76,1180.23 "/>
<polyline clip-path="url(#clip312)" style="stroke:#000000; stroke-linecap:round; stroke-linejoin:round; stroke-width:2; stroke-opacity:0.1; fill:none" points="140.51,872.483 2352.76,872.483 "/>
<polyline clip-path="url(#clip312)" style="stroke:#000000; stroke-linecap:round; stroke-linejoin:round; stroke-width:2; stroke-opacity:0.1; fill:none" points="140.51,564.737 2352.76,564.737 "/>
<polyline clip-path="url(#clip312)" style="stroke:#000000; stroke-linecap:round; stroke-linejoin:round; stroke-width:2; stroke-opacity:0.1; fill:none" points="140.51,256.991 2352.76,256.991 "/>
<polyline clip-path="url(#clip310)" style="stroke:#000000; stroke-linecap:round; stroke-linejoin:round; stroke-width:4; stroke-opacity:1; fill:none" points="140.51,1486.45 2352.76,1486.45 "/>
<polyline clip-path="url(#clip310)" style="stroke:#000000; stroke-linecap:round; stroke-linejoin:round; stroke-width:4; stroke-opacity:1; fill:none" points="352.728,1486.45 352.728,1467.55 "/>
<polyline clip-path="url(#clip310)" style="stroke:#000000; stroke-linecap:round; stroke-linejoin:round; stroke-width:4; stroke-opacity:1; fill:none" points="786.556,1486.45 786.556,1467.55 "/>
<polyline clip-path="url(#clip310)" style="stroke:#000000; stroke-linecap:round; stroke-linejoin:round; stroke-width:4; stroke-opacity:1; fill:none" points="1220.38,1486.45 1220.38,1467.55 "/>
<polyline clip-path="url(#clip310)" style="stroke:#000000; stroke-linecap:round; stroke-linejoin:round; stroke-width:4; stroke-opacity:1; fill:none" points="1654.21,1486.45 1654.21,1467.55 "/>
<polyline clip-path="url(#clip310)" style="stroke:#000000; stroke-linecap:round; stroke-linejoin:round; stroke-width:4; stroke-opacity:1; fill:none" points="2088.04,1486.45 2088.04,1467.55 "/>
<path clip-path="url(#clip310)" d="M306.791 1532.02 L336.466 1532.02 L336.466 1535.95 L306.791 1535.95 L306.791 1532.02 Z" fill="#000000" fill-rule="nonzero" fill-opacity="1" /><path clip-path="url(#clip310)" d="M360.725 1530.21 Q364.082 1530.93 365.957 1533.2 Q367.855 1535.47 367.855 1538.8 Q367.855 1543.92 364.337 1546.72 Q360.818 1549.52 354.337 1549.52 Q352.161 1549.52 349.846 1549.08 Q347.554 1548.66 345.101 1547.81 L345.101 1543.29 Q347.045 1544.43 349.36 1545.01 Q351.675 1545.58 354.198 1545.58 Q358.596 1545.58 360.887 1543.85 Q363.202 1542.11 363.202 1538.8 Q363.202 1535.75 361.049 1534.03 Q358.92 1532.3 355.1 1532.3 L351.073 1532.3 L351.073 1528.45 L355.286 1528.45 Q358.735 1528.45 360.563 1527.09 Q362.392 1525.7 362.392 1523.11 Q362.392 1520.45 360.494 1519.03 Q358.619 1517.6 355.1 1517.6 Q353.179 1517.6 350.98 1518.01 Q348.781 1518.43 346.142 1519.31 L346.142 1515.14 Q348.804 1514.4 351.119 1514.03 Q353.457 1513.66 355.517 1513.66 Q360.841 1513.66 363.943 1516.09 Q367.045 1518.5 367.045 1522.62 Q367.045 1525.49 365.401 1527.48 Q363.758 1529.45 360.725 1530.21 Z" fill="#000000" fill-rule="nonzero" fill-opacity="1" /><path clip-path="url(#clip310)" d="M386.721 1517.37 Q383.11 1517.37 381.281 1520.93 Q379.475 1524.47 379.475 1531.6 Q379.475 1538.71 381.281 1542.27 Q383.11 1545.82 386.721 1545.82 Q390.355 1545.82 392.16 1542.27 Q393.989 1538.71 393.989 1531.6 Q393.989 1524.47 392.16 1520.93 Q390.355 1517.37 386.721 1517.37 M386.721 1513.66 Q392.531 1513.66 395.586 1518.27 Q398.665 1522.85 398.665 1531.6 Q398.665 1540.33 395.586 1544.94 Q392.531 1549.52 386.721 1549.52 Q380.911 1549.52 377.832 1544.94 Q374.776 1540.33 374.776 1531.6 Q374.776 1522.85 377.832 1518.27 Q380.911 1513.66 386.721 1513.66 Z" fill="#000000" fill-rule="nonzero" fill-opacity="1" /><path clip-path="url(#clip310)" d="M786.556 1517.37 Q782.945 1517.37 781.116 1520.93 Q779.31 1524.47 779.31 1531.6 Q779.31 1538.71 781.116 1542.27 Q782.945 1545.82 786.556 1545.82 Q790.19 1545.82 791.995 1542.27 Q793.824 1538.71 793.824 1531.6 Q793.824 1524.47 791.995 1520.93 Q790.19 1517.37 786.556 1517.37 M786.556 1513.66 Q792.366 1513.66 795.421 1518.27 Q798.5 1522.85 798.5 1531.6 Q798.5 1540.33 795.421 1544.94 Q792.366 1549.52 786.556 1549.52 Q780.745 1549.52 777.667 1544.94 Q774.611 1540.33 774.611 1531.6 Q774.611 1522.85 777.667 1518.27 Q780.745 1513.66 786.556 1513.66 Z" fill="#000000" fill-rule="nonzero" fill-opacity="1" /><path clip-path="url(#clip310)" d="M1209.23 1530.21 Q1212.58 1530.93 1214.46 1533.2 Q1216.36 1535.47 1216.36 1538.8 Q1216.36 1543.92 1212.84 1546.72 Q1209.32 1549.52 1202.84 1549.52 Q1200.66 1549.52 1198.35 1549.08 Q1196.05 1548.66 1193.6 1547.81 L1193.6 1543.29 Q1195.55 1544.43 1197.86 1545.01 Q1200.18 1545.58 1202.7 1545.58 Q1207.1 1545.58 1209.39 1543.85 Q1211.7 1542.11 1211.7 1538.8 Q1211.7 1535.75 1209.55 1534.03 Q1207.42 1532.3 1203.6 1532.3 L1199.57 1532.3 L1199.57 1528.45 L1203.79 1528.45 Q1207.24 1528.45 1209.06 1527.09 Q1210.89 1525.7 1210.89 1523.11 Q1210.89 1520.45 1208.99 1519.03 Q1207.12 1517.6 1203.6 1517.6 Q1201.68 1517.6 1199.48 1518.01 Q1197.28 1518.43 1194.64 1519.31 L1194.64 1515.14 Q1197.3 1514.4 1199.62 1514.03 Q1201.96 1513.66 1204.02 1513.66 Q1209.34 1513.66 1212.44 1516.09 Q1215.55 1518.5 1215.55 1522.62 Q1215.55 1525.49 1213.9 1527.48 Q1212.26 1529.45 1209.23 1530.21 Z" fill="#000000" fill-rule="nonzero" fill-opacity="1" /><path clip-path="url(#clip310)" d="M1235.22 1517.37 Q1231.61 1517.37 1229.78 1520.93 Q1227.98 1524.47 1227.98 1531.6 Q1227.98 1538.71 1229.78 1542.27 Q1231.61 1545.82 1235.22 1545.82 Q1238.86 1545.82 1240.66 1542.27 Q1242.49 1538.71 1242.49 1531.6 Q1242.49 1524.47 1240.66 1520.93 Q1238.86 1517.37 1235.22 1517.37 M1235.22 1513.66 Q1241.03 1513.66 1244.09 1518.27 Q1247.17 1522.85 1247.17 1531.6 Q1247.17 1540.33 1244.09 1544.94 Q1241.03 1549.52 1235.22 1549.52 Q1229.41 1549.52 1226.33 1544.94 Q1223.28 1540.33 1223.28 1531.6 Q1223.28 1522.85 1226.33 1518.27 Q1229.41 1513.66 1235.22 1513.66 Z" fill="#000000" fill-rule="nonzero" fill-opacity="1" /><path clip-path="url(#clip310)" d="M1639.62 1529.7 Q1636.47 1529.7 1634.62 1531.86 Q1632.79 1534.01 1632.79 1537.76 Q1632.79 1541.49 1634.62 1543.66 Q1636.47 1545.82 1639.62 1545.82 Q1642.76 1545.82 1644.59 1543.66 Q1646.45 1541.49 1646.45 1537.76 Q1646.45 1534.01 1644.59 1531.86 Q1642.76 1529.7 1639.62 1529.7 M1648.9 1515.05 L1648.9 1519.31 Q1647.14 1518.48 1645.33 1518.04 Q1643.55 1517.6 1641.79 1517.6 Q1637.16 1517.6 1634.71 1520.72 Q1632.28 1523.85 1631.93 1530.17 Q1633.3 1528.15 1635.36 1527.09 Q1637.42 1526 1639.89 1526 Q1645.1 1526 1648.11 1529.17 Q1651.14 1532.32 1651.14 1537.76 Q1651.14 1543.08 1648 1546.3 Q1644.85 1549.52 1639.62 1549.52 Q1633.62 1549.52 1630.45 1544.94 Q1627.28 1540.33 1627.28 1531.6 Q1627.28 1523.41 1631.17 1518.55 Q1635.06 1513.66 1641.61 1513.66 Q1643.37 1513.66 1645.15 1514.01 Q1646.95 1514.36 1648.9 1515.05 Z" fill="#000000" fill-rule="nonzero" fill-opacity="1" /><path clip-path="url(#clip310)" d="M1669.2 1517.37 Q1665.59 1517.37 1663.76 1520.93 Q1661.95 1524.47 1661.95 1531.6 Q1661.95 1538.71 1663.76 1542.27 Q1665.59 1545.82 1669.2 1545.82 Q1672.83 1545.82 1674.64 1542.27 Q1676.47 1538.71 1676.47 1531.6 Q1676.47 1524.47 1674.64 1520.93 Q1672.83 1517.37 1669.2 1517.37 M1669.2 1513.66 Q1675.01 1513.66 1678.07 1518.27 Q1681.14 1522.85 1681.14 1531.6 Q1681.14 1540.33 1678.07 1544.94 Q1675.01 1549.52 1669.2 1549.52 Q1663.39 1549.52 1660.31 1544.94 Q1657.26 1540.33 1657.26 1531.6 Q1657.26 1522.85 1660.31 1518.27 Q1663.39 1513.66 1669.2 1513.66 Z" fill="#000000" fill-rule="nonzero" fill-opacity="1" /><path clip-path="url(#clip310)" d="M2063.17 1548.13 L2063.17 1543.87 Q2064.93 1544.7 2066.73 1545.14 Q2068.54 1545.58 2070.27 1545.58 Q2074.9 1545.58 2077.33 1542.48 Q2079.79 1539.36 2080.13 1533.01 Q2078.79 1535.01 2076.73 1536.07 Q2074.67 1537.13 2072.17 1537.13 Q2066.99 1537.13 2063.95 1534.01 Q2060.94 1530.86 2060.94 1525.42 Q2060.94 1520.1 2064.09 1516.88 Q2067.24 1513.66 2072.47 1513.66 Q2078.47 1513.66 2081.62 1518.27 Q2084.79 1522.85 2084.79 1531.6 Q2084.79 1539.77 2080.9 1544.66 Q2077.03 1549.52 2070.48 1549.52 Q2068.72 1549.52 2066.92 1549.17 Q2065.11 1548.82 2063.17 1548.13 M2072.47 1533.48 Q2075.62 1533.48 2077.45 1531.32 Q2079.3 1529.17 2079.3 1525.42 Q2079.3 1521.7 2077.45 1519.54 Q2075.62 1517.37 2072.47 1517.37 Q2069.32 1517.37 2067.47 1519.54 Q2065.64 1521.7 2065.64 1525.42 Q2065.64 1529.17 2067.47 1531.32 Q2069.32 1533.48 2072.47 1533.48 Z" fill="#000000" fill-rule="nonzero" fill-opacity="1" /><path clip-path="url(#clip310)" d="M2103.19 1517.37 Q2099.58 1517.37 2097.75 1520.93 Q2095.94 1524.47 2095.94 1531.6 Q2095.94 1538.71 2097.75 1542.27 Q2099.58 1545.82 2103.19 1545.82 Q2106.82 1545.82 2108.63 1542.27 Q2110.46 1538.71 2110.46 1531.6 Q2110.46 1524.47 2108.63 1520.93 Q2106.82 1517.37 2103.19 1517.37 M2103.19 1513.66 Q2109 1513.66 2112.06 1518.27 Q2115.13 1522.85 2115.13 1531.6 Q2115.13 1540.33 2112.06 1544.94 Q2109 1549.52 2103.19 1549.52 Q2097.38 1549.52 2094.3 1544.94 Q2091.25 1540.33 2091.25 1531.6 Q2091.25 1522.85 2094.3 1518.27 Q2097.38 1513.66 2103.19 1513.66 Z" fill="#000000" fill-rule="nonzero" fill-opacity="1" /><polyline clip-path="url(#clip310)" style="stroke:#000000; stroke-linecap:round; stroke-linejoin:round; stroke-width:4; stroke-opacity:1; fill:none" points="140.51,1486.45 140.51,47.2441 "/>
<polyline clip-path="url(#clip310)" style="stroke:#000000; stroke-linecap:round; stroke-linejoin:round; stroke-width:4; stroke-opacity:1; fill:none" points="140.51,1180.23 159.408,1180.23 "/>
<polyline clip-path="url(#clip310)" style="stroke:#000000; stroke-linecap:round; stroke-linejoin:round; stroke-width:4; stroke-opacity:1; fill:none" points="140.51,872.483 159.408,872.483 "/>
<polyline clip-path="url(#clip310)" style="stroke:#000000; stroke-linecap:round; stroke-linejoin:round; stroke-width:4; stroke-opacity:1; fill:none" points="140.51,564.737 159.408,564.737 "/>
<polyline clip-path="url(#clip310)" style="stroke:#000000; stroke-linecap:round; stroke-linejoin:round; stroke-width:4; stroke-opacity:1; fill:none" points="140.51,256.991 159.408,256.991 "/>
<path clip-path="url(#clip310)" d="M92.566 1166.03 Q88.9549 1166.03 87.1262 1169.59 Q85.3206 1173.13 85.3206 1180.26 Q85.3206 1187.37 87.1262 1190.94 Q88.9549 1194.48 92.566 1194.48 Q96.2002 1194.48 98.0058 1190.94 Q99.8345 1187.37 99.8345 1180.26 Q99.8345 1173.13 98.0058 1169.59 Q96.2002 1166.03 92.566 1166.03 M92.566 1162.32 Q98.3761 1162.32 101.432 1166.93 Q104.51 1171.51 104.51 1180.26 Q104.51 1188.99 101.432 1193.6 Q98.3761 1198.18 92.566 1198.18 Q86.7558 1198.18 83.6771 1193.6 Q80.6216 1188.99 80.6216 1180.26 Q80.6216 1171.51 83.6771 1166.93 Q86.7558 1162.32 92.566 1162.32 Z" fill="#000000" fill-rule="nonzero" fill-opacity="1" /><path clip-path="url(#clip310)" d="M57.4273 885.828 L73.7466 885.828 L73.7466 889.763 L51.8023 889.763 L51.8023 885.828 Q54.4643 883.073 59.0476 878.444 Q63.6541 873.791 64.8346 872.448 Q67.08 869.925 67.9596 868.189 Q68.8624 866.43 68.8624 864.74 Q68.8624 861.985 66.918 860.249 Q64.9967 858.513 61.8948 858.513 Q59.6958 858.513 57.2421 859.277 Q54.8115 860.041 52.0338 861.592 L52.0338 856.87 Q54.8578 855.735 57.3115 855.157 Q59.7652 854.578 61.8023 854.578 Q67.1726 854.578 70.367 857.263 Q73.5614 859.948 73.5614 864.439 Q73.5614 866.569 72.7513 868.49 Q71.9642 870.388 69.8578 872.981 Q69.2791 873.652 66.1772 876.87 Q63.0754 880.064 57.4273 885.828 Z" fill="#000000" fill-rule="nonzero" fill-opacity="1" /><path clip-path="url(#clip310)" d="M83.6077 855.203 L101.964 855.203 L101.964 859.138 L87.8901 859.138 L87.8901 867.61 Q88.9086 867.263 89.9271 867.101 Q90.9456 866.916 91.9641 866.916 Q97.7511 866.916 101.131 870.087 Q104.51 873.258 104.51 878.675 Q104.51 884.254 101.038 887.356 Q97.566 890.434 91.2465 890.434 Q89.0706 890.434 86.8021 890.064 Q84.5568 889.694 82.1494 888.953 L82.1494 884.254 Q84.2327 885.388 86.4549 885.944 Q88.6771 886.499 91.1539 886.499 Q95.1586 886.499 97.4965 884.393 Q99.8345 882.286 99.8345 878.675 Q99.8345 875.064 97.4965 872.957 Q95.1586 870.851 91.1539 870.851 Q89.279 870.851 87.404 871.268 Q85.5521 871.684 83.6077 872.564 L83.6077 855.203 Z" fill="#000000" fill-rule="nonzero" fill-opacity="1" /><path clip-path="url(#clip310)" d="M52.4505 547.457 L70.8068 547.457 L70.8068 551.392 L56.7328 551.392 L56.7328 559.864 Q57.7513 559.517 58.7699 559.355 Q59.7884 559.17 60.8069 559.17 Q66.5939 559.17 69.9735 562.341 Q73.3531 565.512 73.3531 570.929 Q73.3531 576.507 69.8809 579.609 Q66.4087 582.688 60.0893 582.688 Q57.9134 582.688 55.6449 582.318 Q53.3995 581.947 50.9921 581.207 L50.9921 576.507 Q53.0754 577.642 55.2977 578.197 Q57.5199 578.753 59.9967 578.753 Q64.0013 578.753 66.3393 576.646 Q68.6772 574.54 68.6772 570.929 Q68.6772 567.318 66.3393 565.211 Q64.0013 563.105 59.9967 563.105 Q58.1217 563.105 56.2467 563.521 Q54.3949 563.938 52.4505 564.818 L52.4505 547.457 Z" fill="#000000" fill-rule="nonzero" fill-opacity="1" /><path clip-path="url(#clip310)" d="M92.566 550.535 Q88.9549 550.535 87.1262 554.1 Q85.3206 557.642 85.3206 564.771 Q85.3206 571.878 87.1262 575.443 Q88.9549 578.984 92.566 578.984 Q96.2002 578.984 98.0058 575.443 Q99.8345 571.878 99.8345 564.771 Q99.8345 557.642 98.0058 554.1 Q96.2002 550.535 92.566 550.535 M92.566 546.832 Q98.3761 546.832 101.432 551.438 Q104.51 556.021 104.51 564.771 Q104.51 573.498 101.432 578.105 Q98.3761 582.688 92.566 582.688 Q86.7558 582.688 83.6771 578.105 Q80.6216 573.498 80.6216 564.771 Q80.6216 556.021 83.6771 551.438 Q86.7558 546.832 92.566 546.832 Z" fill="#000000" fill-rule="nonzero" fill-opacity="1" /><path clip-path="url(#clip310)" d="M52.219 239.711 L74.4411 239.711 L74.4411 241.701 L61.8948 274.271 L57.0106 274.271 L68.8161 243.646 L52.219 243.646 L52.219 239.711 Z" fill="#000000" fill-rule="nonzero" fill-opacity="1" /><path clip-path="url(#clip310)" d="M83.6077 239.711 L101.964 239.711 L101.964 243.646 L87.8901 243.646 L87.8901 252.118 Q88.9086 251.771 89.9271 251.609 Q90.9456 251.423 91.9641 251.423 Q97.7511 251.423 101.131 254.595 Q104.51 257.766 104.51 263.183 Q104.51 268.761 101.038 271.863 Q97.566 274.942 91.2465 274.942 Q89.0706 274.942 86.8021 274.571 Q84.5568 274.201 82.1494 273.46 L82.1494 268.761 Q84.2327 269.896 86.4549 270.451 Q88.6771 271.007 91.1539 271.007 Q95.1586 271.007 97.4965 268.9 Q99.8345 266.794 99.8345 263.183 Q99.8345 259.572 97.4965 257.465 Q95.1586 255.359 91.1539 255.359 Q89.279 255.359 87.404 255.775 Q85.5521 256.192 83.6077 257.072 L83.6077 239.711 Z" fill="#000000" fill-rule="nonzero" fill-opacity="1" /><polyline clip-path="url(#clip312)" style="stroke:#0000ff; stroke-linecap:round; stroke-linejoin:round; stroke-width:4; stroke-opacity:1; fill:none" points="203.121,717.03 232.164,724.354 235.798,718.924 247.14,718.256 253.897,717.787 275.305,720.445 299.697,723.771 327.16,725.767 354.158,727.758 385.169,732.341 414.913,732.358 440.017,732.304 475.53,734.072 498.559,740.019 521.671,744.059 556.676,747.354 583.046,749.494 604.541,754.335 633.163,760.741 656.77,768.157 679.991,775.855 702.984,782.354 730.592,788.936 753.332,797.69 779.024,803.427 810.173,811.705 833.135,811.924 866.697,814.166 892.377,821.986 919.24,828.736 949.545,838.206 974.172,847.06 1000.45,854.137 1020.09,864.03 1038.21,875.895 1046.59,881.624 1066.93,884.481 1084.03,886.331 1105.51,888.519 1131.07,892.038 1156.76,901.438 1184.01,911.613 1205.89,916.872 1232.33,920.426 1264.42,922.202 1293.92,923.65 1326.1,927.611 1354.85,932.442 1381.58,936.076 1406.78,938.75 1438.53,938.46 1463.06,937.982 1490.16,937.564 1516.68,934.789 1546.25,929.745 1574.89,930.437 1602.52,928.747 1628.56,928.846 1649.57,921.79 1668.08,918.366 1684.6,911.905 1701.86,906.145 1722.82,905.631 1745.2,903.521 1767.16,905.469 1786.82,908.71 1808.47,914.993 1828.75,926.197 1850.34,938.454 1866.55,949.736 1882.28,965.722 1892.98,980.286 1900.74,995.32 1910.28,1014.57 1921.73,1032.81 1933.87,1051.62 1943.8,1062.67 1961.35,1070.12 1976.26,1073.07 1986.72,1072.4 2008.54,1065.72 2025.06,1060.62 2045.88,1041.32 2058.7,1026.31 2062,1005 2066.18,986.38 2065.4,963.52 2050.06,947.539 2030.22,941.147 2006,932.462 1977.89,936.95 1953.98,933.995 1933.9,929.148 1915.21,926.126 1892.48,923.582 1872.43,929.197 1850.31,935.604 1833.48,943.138 1810.23,945.982 1785.36,946.472 1758.81,942.521 1736.14,932.218 1712.77,922.071 1682.8,906.561 1657.49,888.71 1634.92,869.59 1619.53,854.061 1607.03,841.017 1590.3,827.53 1576.1,811.09 1565,795.455 1557.19,779.608 1556.51,764.109 1568.33,748.64 1580.84,736.273 1603.41,729.39 1624.13,729.425 1652.04,730.778 1671.45,743.158 1692.5,750.489 1706.64,754.863 1728.55,761.285 1751.23,772.253 1763.39,781.699 1780.96,792.51 1799.29,803.452 1821.34,811.439 1842.55,813.184 1863.99,813.845 1888.09,807.126 1909.52,802.922 1926.2,801.482 1945.18,808.086 1961.92,819.328 1976.51,835.15 1987.09,851.211 1995.89,870.668 2003.38,892.747 2006.87,912.926 2006.34,934.366 2007.01,945.414 2009.98,959.172 2019.39,977.321 2026.59,994.55 2037.97,1009.83 2049.15,1017.24 2062.68,1021.16 2080.09,1016.68 2098.88,1008.85 2113.37,1000.65 2130.16,990.102 2139.78,980.622 2143.97,961.038 2134.48,943.837 2114.62,926.442 2098.88,909.765 2076.33,898.358 2048.76,894.683 2022.57,889.373 2006.65,885.86 1982.25,882.71 1961.96,879.944 1943.65,870.485 1927.65,864.098 1904.77,857.598 1888.15,856.609 1865.99,858.547 1845.87,854.599 1825.32,849.799 1806,848.647 1781.65,844.904 1763.38,839.967 1745.96,835.64 1723.9,833.744 1696.52,834.816 1669.82,841.01 1653.59,840.568 1648.96,833.708 1643.92,830.506 1637.02,828.851 1626.24,827.689 1617.5,826.291 1604.63,830.137 1590.35,836.698 1564.29,840.96 1542.8,844.571 1528.19,850.428 1517.75,859.248 1524.52,860.549 1537.87,858.906 1568.9,856.043 1588.62,839.127 1607.36,823.94 1614.3,807.806 1607.4,790.384 1592.81,771.952 1581.76,761.14 1571.66,739.907 1552.68,729.581 1531.92,738.88 1508.88,740.677 1479.7,735.163 1476.36,717.624 1471.02,698.66 1473.33,678.183 1476.75,662.007 1491.66,640.142 1499.18,620.041 1502.54,597.085 1486.49,584.141 1464.25,576.21 1454.64,573.04 1463.66,560.597 1484.32,550.087 1519.78,547.613 1558.35,534.303 1585.36,519.318 1603.59,495.26 1617.28,472.876 1638.27,463.872 1664.89,466.25 1689.13,471.796 1707.96,489.067 1735.04,502.225 1755.59,519.035 1765.46,538.903 1755.52,556.254 1736.85,572.925 1710.46,585.831 1676.27,592.439 1650.55,592.405 1616.67,577.497 1591.68,562.036 1580.81,541.159 1578.38,519.018 1595.33,503.826 1611.13,494.104 1634.66,479.254 1658.67,470.764 1681.96,455.41 1703.9,442.439 1724.13,441.696 1747.04,428.076 1751.08,413.989 1760.68,396.553 1773.66,391.356 1791.6,373.406 1785.78,359.955 1763.58,348.994 1759.16,347.084 1770.66,342.934 1793.33,336.636 1821.81,340.821 1847.07,343.251 1875.6,348.719 1901.12,366.705 1904.86,384.262 1901.65,396.514 1880.43,407.938 1863.93,430.342 1848.42,457.687 1838.9,489.206 1839.57,509.704 1805.04,513.697 1781.71,529.25 1749.71,536.043 1718.39,552.168 1700.97,576.659 1682.42,595.699 1653.74,591.317 1631.87,579.316 1603.43,569.574 1588.02,557.69 1563.2,540.862 1555.54,533.975 1562.56,511.685 1585.96,502.478 1620.69,498.265 1649.66,500.708 1683.42,508.131 1713.02,522.66 1721.88,544.514 1737.1,565.108 1751.96,570.206 1778.2,575.237 1801.17,584.579 1811.66,587.461 1837.34,580.154 1862.45,571.753 1881.31,562.841 1902.19,565.069 1922.13,579.463 1921.36,597.435 1921.37,617.878 1909.09,650.078 1887.8,675.725 1863.67,695.847 1841.29,724.902 1838.57,749.53 1804.23,762.948 1776.87,768.309 1748.58,782.953 1720.85,797.174 1702.59,816.415 1686.27,837.49 1661.35,860.571 1633.81,869.111 1607.41,860.333 1583.23,854.611 1551.3,850.611 1523.05,841.909 1503.26,821.624 1489.58,801.195 1458.86,778.28 1440.83,759.113 1416.07,742.202 1391.71,738.727 1360.12,744.4 1342.03,742.573 1316.19,733.814 1310.19,708.493 1295.15,699.888 1270.83,703.137 1252.86,712.026 1227.84,729.062 1221.49,735.682 1190.91,740.2 1167.03,744.747 1140.96,738.937 1121.56,720.747 1097.38,708.115 1062.53,702.621 1031.18,694.196 1006.99,688.486 985.548,677.867 966.075,657.146 965.729,645.066 975.378,625.984 991.487,605.307 1003.36,581.418 1008.5,550.478 1015.85,525.364 1000.97,505.271 981.679,501.68 970.407,490.469 975.132,476.953 1000.56,475.878 1037.23,479.993 1077.54,476.936 1110.82,472.899 1138.91,455.679 1164.06,430.848 1188.94,411.016 1220.96,403.531 1259.85,405.704 1292.85,418.057 1324.06,434.698 1354.6,447.018 1381.53,458.068 1403.31,473.034 1439.21,479.874 1465.34,494.626 1492.31,516.697 1521.93,543.592 1550.12,559.074 1574.38,570.839 1592.92,581.132 1602.31,572.224 1623.1,562.438 1650.28,548.797 1673.82,538.703 1703.55,528.002 1735.6,526.048 1772,535.246 1799.3,559.891 1807.77,581.169 1803.79,613.253 1786.93,645.488 1783.12,672.709 1775.42,704.97 1775.02,738.931 1791.8,769.396 1823.06,794.882 1862.63,793.801 1884.56,796.443 1915.85,802.406 1934.47,824.633 1959.75,849.936 1982.02,880.804 1994.55,913.7 1998.58,936.805 2014.82,921.534 2050.96,925.311 2079.4,931.272 2091.4,946.656 2092.97,950.453 2093.41,954.636 2097.05,970.737 2100.47,977.182 2113.3,982.133 2130.06,983.959 2159.55,978.841 2187.73,987.402 2201.47,999.048 2215.21,1021.36 2215.71,1035.12 2218.89,1023.05 2223.31,1005.96 2222.26,979.736 2213.38,953.18 2198.92,928.162 2187.39,906.033 2187.46,885.831 2160.45,863.602 2151.76,832.332 2156.77,807.342 2174.75,795.204 2195.82,796.845 2219.36,805.227 2236.08,818.652 2248.45,838.357 2274.77,861.302 2289.34,881.609 2280.7,908.388 2261.28,930.566 2242.66,951.068 2212.61,963.189 2193.28,982.443 2166.04,995.942 2139.32,1018.54 2119.86,1039.89 2108.31,1064.22 2089.81,1087.18 2072.11,1109.57 2046.64,1126.3 2020.15,1137.32 1989.19,1152.51 1963.58,1170.92 1934.34,1180.15 1905.38,1199.67 1888.6,1217.27 1857.05,1229.51 1837.25,1243.27 1819.46,1263.28 1800.36,1291.64 1795.1,1311.83 1788.71,1332.06 1782.26,1356.81 1804.57,1378.05 1814.16,1391.88 1807.67,1414.78 1799.49,1441.85 1779.26,1445.71 1756.24,1443.03 1735.48,1425.55 1722.25,1398.87 1707.64,1377.51 1683.65,1354.1 1645.22,1328.54 1614.08,1320.49 1579.8,1319.67 1542.94,1326.99 1500.49,1336.39 1473.62,1337.39 1439.68,1326.38 1413.26,1315 1392.87,1289.26 1390.81,1255.51 1385,1215.69 1364.62,1188.87 1342.88,1167.52 1348.01,1135.92 1345.58,1108.82 1338.77,1084.49 1326.63,1056.72 1307.44,1031.94 1302.41,1004.78 1307.78,972.408 1317.13,939.668 1336.14,909.941 1353.13,878.436 1365.27,846.042 1393.63,824.696 1389.19,796.868 1373.1,772.859 1341.99,749.872 1309.66,746.927 1289.1,733.753 1280.7,708.515 1275.79,677.375 1288.27,649.158 1303.91,626.501 1325.66,616.548 1358.46,605.121 1394.03,600.898 1433.8,596.692 1473.19,597.574 1502.47,588.831 1525.19,562.617 1543.83,541.561 1571.49,528.245 1594.76,522.646 1598.28,507.959 1583.8,493.861 1562.08,478.628 1536.5,465.831 1508.08,438.584 1484.17,413.21 1470.84,387.043 1454.13,366.456 1449.77,349.333 1456.93,328.912 1474.56,318.429 1492.26,328.752 1522.73,333.162 1561.44,335.743 1595.97,344.07 1637.22,349.604 1671.59,353.422 1703.24,367.897 1728.22,374.553 1752.76,366.742 1776.46,356.529 1808.39,350.968 1841.21,351.237 1872.62,346.546 1895.08,360.607 1907.72,376.693 1912.88,371.328 1922.29,355.44 1939.56,338.332 1957.61,327.358 1982.13,312.553 2000.35,304.192 1991.93,303.929 1969.75,292.299 1959.48,276.131 1947.64,246.116 1950.72,218.345 1961.56,202.18 1989.64,191.187 2024.24,193.226 2049.28,198.321 2083.79,202.361 2119.55,214.542 2142.79,236.314 2147.38,264.58 2141.41,292.399 2129.88,301.91 2133.17,318.121 2137.22,340.13 2132.92,371.738 2104.89,388.622 2085.6,422.838 2056.61,445.072 2034.42,471.337 2026.37,507.234 2000.59,514.213 1964.68,515.927 1929.45,527.953 1898.73,541.863 1881.95,568.918 1869.55,599.335 1869.2,616.433 1896.3,621.998 1926.26,634.74 1963.1,648.804 1996.78,673.407 2025.15,687.991 2063.72,692.969 2099.06,694.402 2138.01,691.042 2168.23,693.608 2193.79,693.528 2204.72,678.582 2218.39,659.772 2234.18,639.228 2233.09,614.698 2229.44,595.524 2219.7,571.006 2193.08,550.202 2171.67,530.702 2146.88,516.301 2104.46,517.806 2079.7,524.244 2055.03,541.976 2036.9,560.922 2011.79,585.926 2006.77,615.561 2011.37,647.513 2015.57,677.739 2033.56,704.026 2046.65,729.394 2060.41,762.627 2074.6,792.772 2105.48,805.763 2136.76,822.446 2164.16,850.254 2184.03,874.729 2197.7,907.142 2204.98,931.692 2202.83,942.849 2170.62,944.626 2133.63,957.309 2105.73,955.934 2090.15,963.33 2069.43,967.343 2046.24,963.031 2016.34,948.728 1986.21,940.465 1949.29,943.964 1904.58,956.458 1866.78,970.649 1828.07,971.249 1784.77,979.341 1746.81,980.168 1707.36,980.457 1675.54,974.635 1640.38,979.797 1607.57,973.86 1574.29,965.927 1539.74,936.163 1511.58,921.177 1473.95,913.479 1440.56,897.776 1409.47,881.749 1377.8,860.281 1351.92,852.851 1325.24,867.634 1300.33,883.756 1271.83,899.416 1232.91,916.79 1195.66,925.508 1166.3,921.103 1137.37,897.356 1120.28,872.443 1101.97,842.455 1077.09,817.404 1065.43,787.534 1060.62,759.829 1063.98,736.5 1050.71,706.5 1026.3,689.469 997.752,677.59 978.26,654.96 969.67,624.001 967.531,600.586 956.28,573.429 963.675,546.043 985.941,519.397 997.35,502.291 1011,496.459 1020.78,482.004 1025.68,465.404 1031.85,441.318 1038.88,417.759 1044.73,389.274 1056.73,355.908 1056.89,331.665 1035.44,313.151 1015.43,299.097 988.44,299.077 961.053,309.052 933.292,305.46 901.036,290.247 862.686,275.309 841.001,269.316 817.811,264.925 802.282,247.409 800.997,225.751 816.483,207.691 837.658,189.914 860.944,173.086 903.47,162.185 933.936,148.424 967.998,141.943 998.361,152.572 1027.29,159.307 1062.22,155.308 1097.41,149.907 1116.63,128.667 1132.09,108.999 1146.21,88.2237 "/>
<polyline clip-path="url(#clip312)" style="stroke:#ff0000; stroke-linecap:round; stroke-linejoin:round; stroke-width:4; stroke-opacity:1; fill:none" points="203.477,717.49 234.437,723.891 237.098,714.991 258.631,716.296 262.072,716.997 289.591,722.697 306.785,726.254 336.083,726.008 361.057,728.027 392.033,734.428 418.785,730.513 440.318,731.806 483.397,734.416 495.399,743.205 520.388,745.211 563.481,747.821 581.586,748.412 601.383,755.662 635.844,762.778 655.655,770.028 678.923,777.993 703.058,782.978 734.091,789.391 753.05,799.621 781.523,802.354 815.174,812.472 831.573,806.391 873.871,811.98 891.99,825.201 919.611,830.913 953.305,841.031 973.174,848.294 1000.82,854.006 1015.52,866.525 1033.69,879.758 1037.15,880.472 1069.99,880.94 1083.81,883.808 1108.89,885.827 1136.57,891.551 1161.69,906.237 1188.53,914.94 1206.69,915.543 1235.23,918.288 1271.58,919.47 1296.66,921.501 1331.3,928.665 1355.56,933.688 1380.65,935.706 1405.76,937.737 1442.95,935.953 1461.13,936.543 1490.54,936.31 1517.34,932.358 1548.43,926.154 1576.17,931.878 1602.95,927.939 1628.07,929.97 1646.11,917.906 1664.29,918.497 1681.48,909.425 1701.33,904.045 1725.6,909.068 1748.9,904.402 1769.73,908.699 1787.06,912.281 1810.53,920.282 1828.88,933.54 1851.53,944.532 1863.78,953.383 1880.5,972.636 1888.45,983.764 1895.58,997.883 1908.02,1019.44 1922.11,1035.01 1935.39,1053.59 1945.01,1058.74 1969.36,1063.79 1979.8,1065.94 1987.59,1064.38 2016.05,1054.43 2027.3,1053.59 2049.4,1026.5 2055.34,1018.23 2054.1,995.84 2058.18,980.883 2056.95,958.516 2037.73,948.238 2020.35,944.643 1997.67,933.651 1970.07,940.581 1949.23,936.285 1932.69,929.711 1915.33,926.129 1890.2,924.098 1872.2,936.174 1848.88,940.827 1836,947.647 1807.4,944.889 1782.26,942.871 1754.5,937.134 1736.16,923.877 1712.71,915.875 1677.05,899.035 1656.11,882.097 1635.18,865.159 1623.81,853.366 1612.46,841.561 1590.71,827.626 1577.58,809.173 1567.07,794.426 1560.87,777.414 1565.05,762.556 1583.89,747.575 1594.14,737.112 1617.39,732.483 1631.22,735.327 1660.56,735.093 1674.53,750.529 1695.29,754.813 1705.68,756.943 1733.37,762.654 1755.12,776.552 1760.4,783.926 1782.99,794.869 1802.12,805.111 1826.37,810.109 1845.34,807.721 1866.96,809.026 1891.86,798.427 1910.01,799.03 1923.88,801.886 1945.69,815.808 1960.57,828.315 1974.64,843.801 1981.77,857.859 1990.75,878.613 1999.73,899.38 2002.58,915.74 2000.32,937.356 2002.98,941.061 2009.31,958.16 2025.26,980.403 2028.13,996.8 2043.05,1009.37 2053.49,1011.54 2067.4,1014.4 2088.07,1006.02 2104.42,999.915 2113.82,992.369 2131.81,980.28 2136.92,975.024 2136.45,949.666 2121.52,937.11 2103.92,920.861 2093.29,906.064 2069.79,898.063 2041.19,895.318 2016.88,890.308 2006.47,888.153 1977.88,885.421 1960.52,881.838 1942.98,865.614 1929.1,862.758 1901.35,857.034 1889.3,860.85 1862.55,864.789 1844.21,851.556 1823.4,847.272 1804.42,849.648 1776.7,843.936 1763.65,838.102 1746.33,834.519 1720.41,835.48 1690.2,838.705 1666.08,846.325 1657.36,838.225 1657.22,825.595 1649.47,827.146 1638.25,827.983 1623.55,828.106 1616.63,826.678 1599.43,835.726 1586.55,842.521 1553.71,842.053 1538.18,845.143 1528.73,852.652 1521.92,863.866 1537.45,860.764 1556.44,858.376 1587.5,852.172 1596.8,832.033 1611.36,819.292 1615.53,804.409 1605.85,786.683 1589.27,767.541 1580.55,759.454 1569.09,735.105 1549.18,727.855 1526.88,742.122 1505.31,740.817 1474.19,734.403 1475.76,715.877 1470.43,695.947 1472.84,674.479 1477.02,659.658 1494.91,635.137 1499.93,617.374 1503.17,593 1484.15,582.832 1460.84,574.917 1453.94,573.501 1465.86,557.191 1490.73,546.666 1530.32,548.549 1568.01,531.303 1586.79,516.421 1604.61,491.998 1617.31,472.782 1637.84,464.522 1666.24,467.23 1690.36,472.167 1710.36,491.85 1739.73,504.111 1757.14,520.163 1765.99,540.708 1754.15,557.006 1734.57,574.855 1705.45,587.633 1671.07,593.086 1649.53,591.794 1610.6,574.412 1588.95,560.588 1580.14,540.031 1579.07,517.959 1597.84,503.089 1611.49,493.413 1637.97,477.017 1661.96,469.471 1684.98,452.372 1706.33,441.183 1724.38,441.761 1750.81,425.389 1750.67,412.919 1763.3,393.741 1775.28,389.974 1795.62,369.281 1784.32,357.648 1758.42,346.138 1774.66,340.156 1805.46,334.038 1832.17,342.593 1853.64,343.886 1881.18,349.511 1904.65,369.835 1904.01,385.235 1900.74,396.99 1875.17,410.408 1860.92,435.483 1845.83,463.525 1836.81,495.949 1840.44,509.17 1799.2,513.183 1779.65,531.02 1745.3,536.461 1714.54,555.123 1700.2,580.309 1681.43,595.216 1653.81,589.541 1631.31,578.671 1601.08,569.328 1589.77,557.634 1558.62,538.738 1556.01,535.082 1563.5,508.518 1590.94,501.673 1628.73,496.946 1652.85,501.895 1690.78,509.675 1715.9,524.188 1721.3,544.019 1737.04,565.992 1750.85,568.824 1781.93,575.2 1804.45,586.082 1811.36,587.498 1843.1,578.388 1867.11,570.818 1884.18,561.832 1904.91,566.079 1925.82,582.857 1920.91,600.608 1922.1,622.741 1904.54,659.83 1884.15,680.696 1861.1,697.905 1837.4,730.673 1839.38,749.914 1798.99,763.59 1775.74,768.231 1745.72,784.049 1719.97,797.614 1703.77,816.313 1686.73,837.991 1657.64,863.497 1634.34,868.15 1607.46,859.447 1583.21,854.437 1547.72,850.276 1520.87,841.573 1501.65,818.714 1488.55,800.261 1452.06,773.856 1441.59,759.122 1413.86,740.829 1392.27,739.524 1357.81,744.99 1343.98,742.134 1313.73,732.766 1310.98,703.912 1293.71,700.354 1267.01,704.281 1249.81,713.304 1222.31,732.778 1221.45,735.745 1183.52,740.497 1163.7,745.852 1136.93,737.173 1117.05,717.354 1094.59,706.435 1055.79,701.585 1025.61,692.218 1008.37,688.66 985.957,677.753 963.528,654.303 966.117,645.415 976.428,622.445 993.622,600.903 1003.92,577.97 1009.89,544.77 1015.88,524.114 999.522,505.12 982.328,501.587 971.149,489.917 975.43,475.183 1008.08,475.638 1046.75,480.464 1087.98,476.45 1114.6,472.548 1142.03,453.222 1167.7,427.322 1190.81,410.248 1221.68,404.13 1264.62,406.703 1293.87,418.927 1325.73,434.806 1355.01,447.042 1380.87,458.577 1402.45,472.364 1443.76,480.833 1465.35,494.632 1494.79,519.4 1526.87,547.848 1549.34,558.705 1571.83,569.574 1590.86,579.742 1600.26,572.283 1625.1,561.758 1655.06,546.038 1675.61,537.766 1708.17,525.715 1740.86,526.182 1778,536.916 1803.3,563.974 1806.09,580.161 1803.13,617.078 1782.88,650.487 1784.03,672.645 1774.12,708.245 1775.42,743.033 1793.05,771.801 1826.21,797.491 1864.14,792.727 1878.01,795.583 1916.13,803.425 1935.48,826.284 1964.43,854.289 1984.82,886.849 1994.81,917.291 1997.67,933.651 2012.18,920.873 2054.68,926.486 2079,931.496 2089.64,946.317 2092.31,950.023 2094.16,956.719 2099.69,976.809 2102.36,980.526 2119.75,984.109 2137.94,984.712 2169.84,975.492 2195.24,990.214 2203.25,1001.35 2218.46,1026.63 2216.02,1035.61 2220.08,1020.63 2225.75,999.668 2222.58,970.592 2210.87,946.071 2194.86,923.852 2185.82,903.073 2187.21,884.448 2153.87,858.684 2151.57,826.74 2157.23,805.899 2174.36,796.851 2195.98,798.168 2222.93,806.847 2237.87,819.354 2250.38,840.797 2280.28,865.836 2290.15,883.611 2278.62,912.736 2258.26,933.761 2242.16,952.534 2209.48,964.733 2193.37,983.518 2164.16,996.443 2135.15,1022.07 2119.01,1040.88 2109.01,1064.15 2087.74,1088.26 2070.74,1110.11 2044.12,1126.82 2019.12,1137.51 1984.67,1155.78 1961.49,1173.22 1933.8,1180.2 1901.97,1202.23 1890.86,1215.84 1853.7,1230.42 1839.09,1243.32 1818.5,1264.54 1798.89,1295.55 1794.74,1310.64 1788.91,1331.79 1781.42,1358.99 1808.7,1380.66 1813.19,1391.2 1805.7,1418.44 1798.2,1445.72 1779.89,1445.1 1754.57,1443.04 1730.78,1422.07 1720.01,1394.2 1706.72,1375.44 1680.31,1350.76 1636.5,1322.46 1614.72,1321.13 1578.16,1319.92 1539.07,1327.76 1495.65,1337.92 1477.37,1337.3 1436.37,1325.58 1413.67,1314.46 1391.75,1287.53 1390.63,1252.19 1384.25,1209.42 1364.14,1189.31 1344.04,1169.21 1349.91,1135.43 1346.28,1109.25 1338.33,1085.37 1325.12,1054.07 1305.93,1031.06 1302.32,1004.95 1309.04,968.34 1318.37,935.472 1337.23,907.775 1353.47,876.397 1366.22,844.33 1393.73,824.795 1386.64,798.131 1371.79,773.032 1338.83,747.366 1309.51,747.612 1291.31,734.428 1280.82,707.125 1276.32,671.66 1290.84,646.425 1303.64,627.123 1324.26,618.826 1361.2,604.498 1399.05,599.758 1440.35,595.733 1476.52,596.915 1500.55,589.332 1526.98,560.367 1543.17,541.816 1572.29,529.063 1592.03,523.745 1596.18,508.985 1582.27,493.66 1558.03,476.217 1532.15,464.67 1500.94,433.341 1481.85,410.753 1470.5,386.65 1454.04,367.73 1451.34,351.641 1458.01,328.154 1475.08,319.241 1494.04,329.323 1529.24,333.422 1572.15,335.983 1602.27,345.252 1644.36,350.755 1672.71,353.45 1704.64,369.306 1725.29,373.528 1752.68,366.708 1777.43,356.245 1811.69,350.828 1844.3,351.284 1875.1,345.166 1895.94,361.846 1906.45,376.408 1911.53,371.238 1924.12,352.084 1943.59,334.346 1960.62,325.421 1986.96,309.098 2003.15,303.103 1992.02,303.928 1963.49,288.811 1957.23,272.058 1944.72,238.563 1952.03,212.22 1962.14,201.929 1994.51,189.988 2029.67,194.063 2050.3,198.273 2088.92,203.049 2125.13,216.602 2144.38,239.067 2147.47,267.54 2140.23,293.908 2131.74,298.376 2133.79,317.383 2137.68,342.975 2131.45,378.932 2099.03,390.934 2080.82,430.719 2054.46,447.092 2032.54,473.73 2026.25,509.835 2003.91,511.484 1962.68,515.51 1925.9,529.801 1896.82,542.567 1881.74,570.695 1869.26,602.516 1870.26,612.093 1897.08,620.734 1929.2,636.712 1969.07,651.164 2002.24,676.769 2024.84,687.675 2067.2,693.239 2099.98,693.707 2141.33,689.669 2165.56,694.655 2191.43,693.695 2202.4,680.289 2219.24,658.71 2236.06,637.131 2232.13,611.317 2229.22,595.105 2218.36,567.9 2187.82,546.038 2170.31,529.986 2145.09,515.46 2096.95,518.07 2080.69,524.102 2053.48,543.478 2037.44,562.029 2007.75,590.292 2007.35,618.346 2013.03,650.795 2016.08,679.612 2034.62,705.352 2046.23,729.689 2061.53,767.369 2075.83,795.436 2106.23,804.84 2137.68,823.884 2165.91,854.868 2182.69,874.071 2198.91,908.92 2204.48,928.985 2202.05,937.947 2167.52,943.449 2126.26,960.191 2105.39,955.882 2092.52,962.702 2069.21,967.367 2044.89,962.345 2009.11,945.48 1981.32,939.744 1943.3,944.532 1895.03,959.834 1862.3,972.033 1825.91,970.839 1779.27,980.17 1746.36,979.689 1705.66,980.773 1677.88,975.036 1639.84,979.813 1608.6,973.362 1573.9,966.186 1532.88,929.256 1512.91,921.969 1471.32,913.376 1439.21,897.263 1410.56,881.875 1376.69,859.102 1355.91,854.818 1326.61,867.694 1299.92,884.263 1269.74,900.143 1227.47,919.839 1192.89,925.329 1168.66,920.319 1135.71,894.542 1120.08,872.36 1100.13,839.825 1074.15,815.538 1064.6,785.194 1061.08,759.282 1063.63,737.776 1048.04,703.124 1026.46,689.251 997.15,676.929 978.177,654.18 969.544,621.03 967.794,601.863 954.881,571.002 966.045,545.127 989.226,515.497 996.095,504.406 1008.96,497.685 1020.98,481.411 1026.1,463.734 1033.79,437.244 1040.62,413.707 1045.71,383.597 1059.36,349.068 1056.76,332.979 1033.58,312.693 1015.56,299.681 986.42,299.927 958.149,309.664 930.731,304.051 895.606,287.531 856.214,273.252 842.519,270.445 818.543,265.534 802.304,246.687 801.494,224.813 817.777,206.446 841.753,186.566 864.862,169.628 915.316,158.278 936.689,147.187 970.875,141.795 999.956,153.932 1027.33,159.521 1064.94,154.831 1099.13,149.452 1116.16,128.205 1132.35,109.888 1145.94,87.9763 "/>
<path clip-path="url(#clip310)" d="M214.252 1438.47 L760.776 1438.47 L760.776 1282.95 L214.252 1282.95  Z" fill="#ffffff" fill-rule="evenodd" fill-opacity="1"/>
<polyline clip-path="url(#clip310)" style="stroke:#000000; stroke-linecap:round; stroke-linejoin:round; stroke-width:4; stroke-opacity:1; fill:none" points="214.252,1438.47 760.776,1438.47 760.776,1282.95 214.252,1282.95 214.252,1438.47 "/>
<polyline clip-path="url(#clip310)" style="stroke:#0000ff; stroke-linecap:round; stroke-linejoin:round; stroke-width:4; stroke-opacity:1; fill:none" points="238.832,1334.79 386.315,1334.79 "/>
<path clip-path="url(#clip310)" d="M434.924 1338.05 L434.924 1340.13 L415.34 1340.13 Q415.618 1344.53 417.979 1346.84 Q420.363 1349.13 424.6 1349.13 Q427.053 1349.13 429.345 1348.53 Q431.66 1347.93 433.928 1346.73 L433.928 1350.75 Q431.637 1351.73 429.229 1352.24 Q426.822 1352.75 424.345 1352.75 Q418.141 1352.75 414.507 1349.13 Q410.896 1345.52 410.896 1339.37 Q410.896 1333 414.322 1329.27 Q417.771 1325.52 423.604 1325.52 Q428.836 1325.52 431.868 1328.9 Q434.924 1332.26 434.924 1338.05 M430.664 1336.8 Q430.618 1333.3 428.697 1331.22 Q426.799 1329.13 423.65 1329.13 Q420.086 1329.13 417.933 1331.15 Q415.803 1333.16 415.479 1336.82 L430.664 1336.8 Z" fill="#000000" fill-rule="nonzero" fill-opacity="1" /><path clip-path="url(#clip310)" d="M458.442 1326.91 L458.442 1330.94 Q456.636 1330.01 454.692 1329.55 Q452.748 1329.09 450.664 1329.09 Q447.493 1329.09 445.896 1330.06 Q444.322 1331.03 444.322 1332.98 Q444.322 1334.46 445.456 1335.32 Q446.59 1336.15 450.016 1336.91 L451.474 1337.24 Q456.011 1338.21 457.91 1339.99 Q459.831 1341.75 459.831 1344.92 Q459.831 1348.53 456.96 1350.64 Q454.113 1352.75 449.113 1352.75 Q447.03 1352.75 444.761 1352.33 Q442.516 1351.94 440.016 1351.13 L440.016 1346.73 Q442.377 1347.95 444.669 1348.58 Q446.961 1349.18 449.206 1349.18 Q452.215 1349.18 453.836 1348.16 Q455.456 1347.12 455.456 1345.25 Q455.456 1343.51 454.275 1342.58 Q453.118 1341.66 449.16 1340.8 L447.678 1340.45 Q443.72 1339.62 441.961 1337.91 Q440.201 1336.17 440.201 1333.16 Q440.201 1329.51 442.794 1327.51 Q445.386 1325.52 450.155 1325.52 Q452.516 1325.52 454.599 1325.87 Q456.683 1326.22 458.442 1326.91 Z" fill="#000000" fill-rule="nonzero" fill-opacity="1" /><path clip-path="url(#clip310)" d="M470.826 1318.79 L470.826 1326.15 L479.599 1326.15 L479.599 1329.46 L470.826 1329.46 L470.826 1343.53 Q470.826 1346.7 471.683 1347.61 Q472.562 1348.51 475.224 1348.51 L479.599 1348.51 L479.599 1352.07 L475.224 1352.07 Q470.294 1352.07 468.419 1350.25 Q466.544 1348.39 466.544 1343.53 L466.544 1329.46 L463.419 1329.46 L463.419 1326.15 L466.544 1326.15 L466.544 1318.79 L470.826 1318.79 Z" fill="#000000" fill-rule="nonzero" fill-opacity="1" /><path clip-path="url(#clip310)" d="M485.201 1326.15 L489.46 1326.15 L489.46 1352.07 L485.201 1352.07 L485.201 1326.15 M485.201 1316.06 L489.46 1316.06 L489.46 1321.45 L485.201 1321.45 L485.201 1316.06 Z" fill="#000000" fill-rule="nonzero" fill-opacity="1" /><path clip-path="url(#clip310)" d="M518.557 1331.13 Q520.155 1328.26 522.377 1326.89 Q524.599 1325.52 527.608 1325.52 Q531.659 1325.52 533.858 1328.37 Q536.057 1331.19 536.057 1336.43 L536.057 1352.07 L531.775 1352.07 L531.775 1336.57 Q531.775 1332.84 530.455 1331.03 Q529.136 1329.23 526.428 1329.23 Q523.118 1329.23 521.196 1331.43 Q519.275 1333.63 519.275 1337.42 L519.275 1352.07 L514.993 1352.07 L514.993 1336.57 Q514.993 1332.82 513.673 1331.03 Q512.354 1329.23 509.599 1329.23 Q506.335 1329.23 504.414 1331.45 Q502.493 1333.65 502.493 1337.42 L502.493 1352.07 L498.21 1352.07 L498.21 1326.15 L502.493 1326.15 L502.493 1330.18 Q503.951 1327.79 505.988 1326.66 Q508.025 1325.52 510.826 1325.52 Q513.65 1325.52 515.618 1326.96 Q517.608 1328.39 518.557 1331.13 Z" fill="#000000" fill-rule="nonzero" fill-opacity="1" /><path clip-path="url(#clip310)" d="M556.335 1339.04 Q551.173 1339.04 549.182 1340.22 Q547.191 1341.4 547.191 1344.25 Q547.191 1346.52 548.673 1347.86 Q550.178 1349.18 552.747 1349.18 Q556.289 1349.18 558.418 1346.68 Q560.571 1344.16 560.571 1339.99 L560.571 1339.04 L556.335 1339.04 M564.83 1337.28 L564.83 1352.07 L560.571 1352.07 L560.571 1348.14 Q559.113 1350.5 556.937 1351.63 Q554.761 1352.75 551.613 1352.75 Q547.631 1352.75 545.27 1350.52 Q542.932 1348.28 542.932 1344.53 Q542.932 1340.15 545.849 1337.93 Q548.789 1335.71 554.599 1335.71 L560.571 1335.71 L560.571 1335.29 Q560.571 1332.35 558.627 1330.76 Q556.705 1329.13 553.21 1329.13 Q550.988 1329.13 548.881 1329.67 Q546.775 1330.2 544.83 1331.26 L544.83 1327.33 Q547.168 1326.43 549.367 1325.99 Q551.566 1325.52 553.65 1325.52 Q559.275 1325.52 562.053 1328.44 Q564.83 1331.36 564.83 1337.28 Z" fill="#000000" fill-rule="nonzero" fill-opacity="1" /><path clip-path="url(#clip310)" d="M577.816 1318.79 L577.816 1326.15 L586.589 1326.15 L586.589 1329.46 L577.816 1329.46 L577.816 1343.53 Q577.816 1346.7 578.673 1347.61 Q579.552 1348.51 582.214 1348.51 L586.589 1348.51 L586.589 1352.07 L582.214 1352.07 Q577.284 1352.07 575.409 1350.25 Q573.534 1348.39 573.534 1343.53 L573.534 1329.46 L570.409 1329.46 L570.409 1326.15 L573.534 1326.15 L573.534 1318.79 L577.816 1318.79 Z" fill="#000000" fill-rule="nonzero" fill-opacity="1" /><path clip-path="url(#clip310)" d="M614.367 1338.05 L614.367 1340.13 L594.784 1340.13 Q595.062 1344.53 597.423 1346.84 Q599.807 1349.13 604.043 1349.13 Q606.497 1349.13 608.788 1348.53 Q611.103 1347.93 613.372 1346.73 L613.372 1350.75 Q611.08 1351.73 608.673 1352.24 Q606.265 1352.75 603.788 1352.75 Q597.585 1352.75 593.95 1349.13 Q590.339 1345.52 590.339 1339.37 Q590.339 1333 593.765 1329.27 Q597.214 1325.52 603.048 1325.52 Q608.279 1325.52 611.312 1328.9 Q614.367 1332.26 614.367 1338.05 M610.108 1336.8 Q610.062 1333.3 608.14 1331.22 Q606.242 1329.13 603.094 1329.13 Q599.529 1329.13 597.376 1331.15 Q595.247 1333.16 594.923 1336.82 L610.108 1336.8 Z" fill="#000000" fill-rule="nonzero" fill-opacity="1" /><polyline clip-path="url(#clip310)" style="stroke:#ff0000; stroke-linecap:round; stroke-linejoin:round; stroke-width:4; stroke-opacity:1; fill:none" points="238.832,1386.63 386.315,1386.63 "/>
<path clip-path="url(#clip310)" d="M431.243 1382.97 Q432.84 1380.1 435.062 1378.73 Q437.285 1377.36 440.294 1377.36 Q444.345 1377.36 446.544 1380.21 Q448.743 1383.03 448.743 1388.27 L448.743 1403.91 L444.461 1403.91 L444.461 1388.41 Q444.461 1384.68 443.141 1382.87 Q441.822 1381.07 439.113 1381.07 Q435.803 1381.07 433.882 1383.27 Q431.961 1385.47 431.961 1389.26 L431.961 1403.91 L427.678 1403.91 L427.678 1388.41 Q427.678 1384.66 426.359 1382.87 Q425.039 1381.07 422.285 1381.07 Q419.021 1381.07 417.1 1383.29 Q415.178 1385.49 415.178 1389.26 L415.178 1403.91 L410.896 1403.91 L410.896 1377.99 L415.178 1377.99 L415.178 1382.02 Q416.637 1379.63 418.674 1378.5 Q420.711 1377.36 423.512 1377.36 Q426.336 1377.36 428.303 1378.8 Q430.294 1380.23 431.243 1382.97 Z" fill="#000000" fill-rule="nonzero" fill-opacity="1" /><path clip-path="url(#clip310)" d="M479.414 1389.89 L479.414 1391.97 L459.831 1391.97 Q460.109 1396.37 462.47 1398.68 Q464.854 1400.97 469.09 1400.97 Q471.544 1400.97 473.835 1400.37 Q476.15 1399.77 478.419 1398.57 L478.419 1402.59 Q476.127 1403.57 473.72 1404.08 Q471.312 1404.59 468.835 1404.59 Q462.632 1404.59 458.998 1400.97 Q455.386 1397.36 455.386 1391.21 Q455.386 1384.84 458.812 1381.11 Q462.261 1377.36 468.095 1377.36 Q473.326 1377.36 476.359 1380.74 Q479.414 1384.1 479.414 1389.89 M475.155 1388.64 Q475.109 1385.14 473.187 1383.06 Q471.289 1380.97 468.141 1380.97 Q464.576 1380.97 462.423 1382.99 Q460.294 1385 459.97 1388.66 L475.155 1388.64 Z" fill="#000000" fill-rule="nonzero" fill-opacity="1" /><path clip-path="url(#clip310)" d="M498.187 1390.88 Q493.025 1390.88 491.034 1392.06 Q489.044 1393.24 489.044 1396.09 Q489.044 1398.36 490.525 1399.7 Q492.03 1401.02 494.599 1401.02 Q498.141 1401.02 500.27 1398.52 Q502.423 1396 502.423 1391.83 L502.423 1390.88 L498.187 1390.88 M506.682 1389.12 L506.682 1403.91 L502.423 1403.91 L502.423 1399.98 Q500.965 1402.34 498.789 1403.47 Q496.613 1404.59 493.465 1404.59 Q489.483 1404.59 487.122 1402.36 Q484.784 1400.12 484.784 1396.37 Q484.784 1391.99 487.701 1389.77 Q490.641 1387.55 496.451 1387.55 L502.423 1387.55 L502.423 1387.13 Q502.423 1384.19 500.479 1382.6 Q498.557 1380.97 495.062 1380.97 Q492.84 1380.97 490.733 1381.51 Q488.627 1382.04 486.683 1383.1 L486.683 1379.17 Q489.021 1378.27 491.22 1377.83 Q493.419 1377.36 495.502 1377.36 Q501.127 1377.36 503.905 1380.28 Q506.682 1383.2 506.682 1389.12 Z" fill="#000000" fill-rule="nonzero" fill-opacity="1" /><path clip-path="url(#clip310)" d="M531.983 1378.75 L531.983 1382.78 Q530.178 1381.85 528.233 1381.39 Q526.289 1380.93 524.206 1380.93 Q521.034 1380.93 519.437 1381.9 Q517.863 1382.87 517.863 1384.82 Q517.863 1386.3 518.997 1387.16 Q520.131 1387.99 523.557 1388.75 L525.016 1389.08 Q529.553 1390.05 531.451 1391.83 Q533.372 1393.59 533.372 1396.76 Q533.372 1400.37 530.502 1402.48 Q527.655 1404.59 522.655 1404.59 Q520.571 1404.59 518.303 1404.17 Q516.057 1403.78 513.557 1402.97 L513.557 1398.57 Q515.919 1399.79 518.21 1400.42 Q520.502 1401.02 522.747 1401.02 Q525.756 1401.02 527.377 1400 Q528.997 1398.96 528.997 1397.09 Q528.997 1395.35 527.817 1394.42 Q526.659 1393.5 522.701 1392.64 L521.219 1392.29 Q517.261 1391.46 515.502 1389.75 Q513.743 1388.01 513.743 1385 Q513.743 1381.35 516.335 1379.35 Q518.928 1377.36 523.696 1377.36 Q526.057 1377.36 528.141 1377.71 Q530.224 1378.06 531.983 1378.75 Z" fill="#000000" fill-rule="nonzero" fill-opacity="1" /><path clip-path="url(#clip310)" d="M539.715 1393.68 L539.715 1377.99 L543.974 1377.99 L543.974 1393.52 Q543.974 1397.2 545.409 1399.05 Q546.844 1400.88 549.715 1400.88 Q553.164 1400.88 555.154 1398.68 Q557.168 1396.48 557.168 1392.69 L557.168 1377.99 L561.428 1377.99 L561.428 1403.91 L557.168 1403.91 L557.168 1399.93 Q555.617 1402.29 553.557 1403.45 Q551.52 1404.59 548.812 1404.59 Q544.344 1404.59 542.029 1401.81 Q539.715 1399.03 539.715 1393.68 M550.432 1377.36 L550.432 1377.36 Z" fill="#000000" fill-rule="nonzero" fill-opacity="1" /><path clip-path="url(#clip310)" d="M585.224 1381.97 Q584.506 1381.55 583.65 1381.37 Q582.816 1381.16 581.798 1381.16 Q578.187 1381.16 576.242 1383.52 Q574.321 1385.86 574.321 1390.26 L574.321 1403.91 L570.039 1403.91 L570.039 1377.99 L574.321 1377.99 L574.321 1382.02 Q575.664 1379.66 577.816 1378.52 Q579.969 1377.36 583.048 1377.36 Q583.488 1377.36 584.02 1377.43 Q584.552 1377.48 585.201 1377.6 L585.224 1381.97 Z" fill="#000000" fill-rule="nonzero" fill-opacity="1" /><path clip-path="url(#clip310)" d="M610.825 1389.89 L610.825 1391.97 L591.242 1391.97 Q591.52 1396.37 593.881 1398.68 Q596.265 1400.97 600.501 1400.97 Q602.955 1400.97 605.247 1400.37 Q607.562 1399.77 609.83 1398.57 L609.83 1402.59 Q607.538 1403.57 605.131 1404.08 Q602.724 1404.59 600.247 1404.59 Q594.043 1404.59 590.409 1400.97 Q586.798 1397.36 586.798 1391.21 Q586.798 1384.84 590.224 1381.11 Q593.673 1377.36 599.506 1377.36 Q604.737 1377.36 607.77 1380.74 Q610.825 1384.1 610.825 1389.89 M606.566 1388.64 Q606.52 1385.14 604.599 1383.06 Q602.7 1380.97 599.552 1380.97 Q595.988 1380.97 593.835 1382.99 Q591.705 1385 591.381 1388.66 L606.566 1388.64 Z" fill="#000000" fill-rule="nonzero" fill-opacity="1" /><path clip-path="url(#clip310)" d="M638.001 1382.97 Q639.598 1380.1 641.821 1378.73 Q644.043 1377.36 647.052 1377.36 Q651.103 1377.36 653.302 1380.21 Q655.501 1383.03 655.501 1388.27 L655.501 1403.91 L651.219 1403.91 L651.219 1388.41 Q651.219 1384.68 649.899 1382.87 Q648.58 1381.07 645.872 1381.07 Q642.561 1381.07 640.64 1383.27 Q638.719 1385.47 638.719 1389.26 L638.719 1403.91 L634.436 1403.91 L634.436 1388.41 Q634.436 1384.66 633.117 1382.87 Q631.798 1381.07 629.043 1381.07 Q625.779 1381.07 623.858 1383.29 Q621.936 1385.49 621.936 1389.26 L621.936 1403.91 L617.654 1403.91 L617.654 1377.99 L621.936 1377.99 L621.936 1382.02 Q623.395 1379.63 625.432 1378.5 Q627.469 1377.36 630.27 1377.36 Q633.094 1377.36 635.061 1378.8 Q637.052 1380.23 638.001 1382.97 Z" fill="#000000" fill-rule="nonzero" fill-opacity="1" /><path clip-path="url(#clip310)" d="M686.172 1389.89 L686.172 1391.97 L666.589 1391.97 Q666.867 1396.37 669.228 1398.68 Q671.612 1400.97 675.848 1400.97 Q678.302 1400.97 680.594 1400.37 Q682.908 1399.77 685.177 1398.57 L685.177 1402.59 Q682.885 1403.57 680.478 1404.08 Q678.07 1404.59 675.594 1404.59 Q669.39 1404.59 665.756 1400.97 Q662.145 1397.36 662.145 1391.21 Q662.145 1384.84 665.57 1381.11 Q669.02 1377.36 674.853 1377.36 Q680.084 1377.36 683.117 1380.74 Q686.172 1384.1 686.172 1389.89 M681.913 1388.64 Q681.867 1385.14 679.945 1383.06 Q678.047 1380.97 674.899 1380.97 Q671.334 1380.97 669.182 1382.99 Q667.052 1385 666.728 1388.66 L681.913 1388.64 Z" fill="#000000" fill-rule="nonzero" fill-opacity="1" /><path clip-path="url(#clip310)" d="M714.714 1388.27 L714.714 1403.91 L710.455 1403.91 L710.455 1388.41 Q710.455 1384.72 709.019 1382.9 Q707.584 1381.07 704.714 1381.07 Q701.265 1381.07 699.274 1383.27 Q697.283 1385.47 697.283 1389.26 L697.283 1403.91 L693.001 1403.91 L693.001 1377.99 L697.283 1377.99 L697.283 1382.02 Q698.811 1379.68 700.871 1378.52 Q702.955 1377.36 705.663 1377.36 Q710.13 1377.36 712.422 1380.14 Q714.714 1382.9 714.714 1388.27 Z" fill="#000000" fill-rule="nonzero" fill-opacity="1" /><path clip-path="url(#clip310)" d="M727.422 1370.63 L727.422 1377.99 L736.195 1377.99 L736.195 1381.3 L727.422 1381.3 L727.422 1395.37 Q727.422 1398.54 728.278 1399.45 Q729.158 1400.35 731.82 1400.35 L736.195 1400.35 L736.195 1403.91 L731.82 1403.91 Q726.89 1403.91 725.015 1402.09 Q723.14 1400.23 723.14 1395.37 L723.14 1381.3 L720.015 1381.3 L720.015 1377.99 L723.14 1377.99 L723.14 1370.63 L727.422 1370.63 Z" fill="#000000" fill-rule="nonzero" fill-opacity="1" /></svg>
