<?xml version="1.0" encoding="utf-8"?>
<svg xmlns="http://www.w3.org/2000/svg" xmlns:xlink="http://www.w3.org/1999/xlink" width="600" height="400" viewBox="0 0 2400 1600">
<defs>
  <clipPath id="clip340">
    <rect x="0" y="0" width="2400" height="1600"/>
  </clipPath>
</defs>
<path clip-path="url(#clip340)" d="M0 1600 L2400 1600 L2400 0 L0 0  Z" fill="#ffffff" fill-rule="evenodd" fill-opacity="1"/>
<defs>
  <clipPath id="clip341">
    <rect x="480" y="0" width="1681" height="1600"/>
  </clipPath>
</defs>
<path clip-path="url(#clip340)" d="M193.936 1486.45 L1152.51 1486.45 L1152.51 47.2441 L193.936 47.2441  Z" fill="#ffffff" fill-rule="evenodd" fill-opacity="1"/>
<defs>
  <clipPath id="clip342">
    <rect x="193" y="47" width="960" height="1440"/>
  </clipPath>
</defs>
<polyline clip-path="url(#clip342)" style="stroke:#000000; stroke-linecap:round; stroke-linejoin:round; stroke-width:2; stroke-opacity:0.1; fill:none" points="209.618,1486.45 209.618,47.2441 "/>
<polyline clip-path="url(#clip342)" style="stroke:#000000; stroke-linecap:round; stroke-linejoin:round; stroke-width:2; stroke-opacity:0.1; fill:none" points="438.56,1486.45 438.56,47.2441 "/>
<polyline clip-path="url(#clip342)" style="stroke:#000000; stroke-linecap:round; stroke-linejoin:round; stroke-width:2; stroke-opacity:0.1; fill:none" points="667.501,1486.45 667.501,47.2441 "/>
<polyline clip-path="url(#clip342)" style="stroke:#000000; stroke-linecap:round; stroke-linejoin:round; stroke-width:2; stroke-opacity:0.1; fill:none" points="896.442,1486.45 896.442,47.2441 "/>
<polyline clip-path="url(#clip342)" style="stroke:#000000; stroke-linecap:round; stroke-linejoin:round; stroke-width:2; stroke-opacity:0.1; fill:none" points="1125.38,1486.45 1125.38,47.2441 "/>
<polyline clip-path="url(#clip342)" style="stroke:#000000; stroke-linecap:round; stroke-linejoin:round; stroke-width:2; stroke-opacity:0.1; fill:none" points="193.936,1474.38 1152.51,1474.38 "/>
<polyline clip-path="url(#clip342)" style="stroke:#000000; stroke-linecap:round; stroke-linejoin:round; stroke-width:2; stroke-opacity:0.1; fill:none" points="193.936,1062.08 1152.51,1062.08 "/>
<polyline clip-path="url(#clip342)" style="stroke:#000000; stroke-linecap:round; stroke-linejoin:round; stroke-width:2; stroke-opacity:0.1; fill:none" points="193.936,649.781 1152.51,649.781 "/>
<polyline clip-path="url(#clip342)" style="stroke:#000000; stroke-linecap:round; stroke-linejoin:round; stroke-width:2; stroke-opacity:0.1; fill:none" points="193.936,237.481 1152.51,237.481 "/>
<polyline clip-path="url(#clip340)" style="stroke:#000000; stroke-linecap:round; stroke-linejoin:round; stroke-width:4; stroke-opacity:1; fill:none" points="193.936,1486.45 1152.51,1486.45 "/>
<polyline clip-path="url(#clip340)" style="stroke:#000000; stroke-linecap:round; stroke-linejoin:round; stroke-width:4; stroke-opacity:1; fill:none" points="209.618,1486.45 209.618,1467.55 "/>
<polyline clip-path="url(#clip340)" style="stroke:#000000; stroke-linecap:round; stroke-linejoin:round; stroke-width:4; stroke-opacity:1; fill:none" points="438.56,1486.45 438.56,1467.55 "/>
<polyline clip-path="url(#clip340)" style="stroke:#000000; stroke-linecap:round; stroke-linejoin:round; stroke-width:4; stroke-opacity:1; fill:none" points="667.501,1486.45 667.501,1467.55 "/>
<polyline clip-path="url(#clip340)" style="stroke:#000000; stroke-linecap:round; stroke-linejoin:round; stroke-width:4; stroke-opacity:1; fill:none" points="896.442,1486.45 896.442,1467.55 "/>
<polyline clip-path="url(#clip340)" style="stroke:#000000; stroke-linecap:round; stroke-linejoin:round; stroke-width:4; stroke-opacity:1; fill:none" points="1125.38,1486.45 1125.38,1467.55 "/>
<path clip-path="url(#clip340)" d="M209.618 1517.37 Q206.007 1517.37 204.179 1520.93 Q202.373 1524.47 202.373 1531.6 Q202.373 1538.71 204.179 1542.27 Q206.007 1545.82 209.618 1545.82 Q213.253 1545.82 215.058 1542.27 Q216.887 1538.71 216.887 1531.6 Q216.887 1524.47 215.058 1520.93 Q213.253 1517.37 209.618 1517.37 M209.618 1513.66 Q215.429 1513.66 218.484 1518.27 Q221.563 1522.85 221.563 1531.6 Q221.563 1540.33 218.484 1544.94 Q215.429 1549.52 209.618 1549.52 Q203.808 1549.52 200.73 1544.94 Q197.674 1540.33 197.674 1531.6 Q197.674 1522.85 200.73 1518.27 Q203.808 1513.66 209.618 1513.66 Z" fill="#000000" fill-rule="nonzero" fill-opacity="1" /><path clip-path="url(#clip340)" d="M417.333 1544.91 L433.652 1544.91 L433.652 1548.85 L411.708 1548.85 L411.708 1544.91 Q414.37 1542.16 418.953 1537.53 Q423.56 1532.88 424.74 1531.53 Q426.986 1529.01 427.865 1527.27 Q428.768 1525.51 428.768 1523.82 Q428.768 1521.07 426.824 1519.33 Q424.902 1517.6 421.801 1517.6 Q419.601 1517.6 417.148 1518.36 Q414.717 1519.13 411.939 1520.68 L411.939 1515.95 Q414.764 1514.82 417.217 1514.24 Q419.671 1513.66 421.708 1513.66 Q427.078 1513.66 430.273 1516.35 Q433.467 1519.03 433.467 1523.52 Q433.467 1525.65 432.657 1527.57 Q431.87 1529.47 429.763 1532.07 Q429.185 1532.74 426.083 1535.95 Q422.981 1539.15 417.333 1544.91 Z" fill="#000000" fill-rule="nonzero" fill-opacity="1" /><path clip-path="url(#clip340)" d="M453.467 1517.37 Q449.856 1517.37 448.027 1520.93 Q446.222 1524.47 446.222 1531.6 Q446.222 1538.71 448.027 1542.27 Q449.856 1545.82 453.467 1545.82 Q457.101 1545.82 458.907 1542.27 Q460.735 1538.71 460.735 1531.6 Q460.735 1524.47 458.907 1520.93 Q457.101 1517.37 453.467 1517.37 M453.467 1513.66 Q459.277 1513.66 462.333 1518.27 Q465.411 1522.85 465.411 1531.6 Q465.411 1540.33 462.333 1544.94 Q459.277 1549.52 453.467 1549.52 Q447.657 1549.52 444.578 1544.94 Q441.523 1540.33 441.523 1531.6 Q441.523 1522.85 444.578 1518.27 Q447.657 1513.66 453.467 1513.66 Z" fill="#000000" fill-rule="nonzero" fill-opacity="1" /><path clip-path="url(#clip340)" d="M655.672 1518.36 L643.867 1536.81 L655.672 1536.81 L655.672 1518.36 M654.445 1514.29 L660.325 1514.29 L660.325 1536.81 L665.256 1536.81 L665.256 1540.7 L660.325 1540.7 L660.325 1548.85 L655.672 1548.85 L655.672 1540.7 L640.07 1540.7 L640.07 1536.19 L654.445 1514.29 Z" fill="#000000" fill-rule="nonzero" fill-opacity="1" /><path clip-path="url(#clip340)" d="M682.987 1517.37 Q679.376 1517.37 677.547 1520.93 Q675.742 1524.47 675.742 1531.6 Q675.742 1538.71 677.547 1542.27 Q679.376 1545.82 682.987 1545.82 Q686.621 1545.82 688.427 1542.27 Q690.255 1538.71 690.255 1531.6 Q690.255 1524.47 688.427 1520.93 Q686.621 1517.37 682.987 1517.37 M682.987 1513.66 Q688.797 1513.66 691.853 1518.27 Q694.931 1522.85 694.931 1531.6 Q694.931 1540.33 691.853 1544.94 Q688.797 1549.52 682.987 1549.52 Q677.177 1549.52 674.098 1544.94 Q671.043 1540.33 671.043 1531.6 Q671.043 1522.85 674.098 1518.27 Q677.177 1513.66 682.987 1513.66 Z" fill="#000000" fill-rule="nonzero" fill-opacity="1" /><path clip-path="url(#clip340)" d="M881.847 1529.7 Q878.699 1529.7 876.847 1531.86 Q875.019 1534.01 875.019 1537.76 Q875.019 1541.49 876.847 1543.66 Q878.699 1545.82 881.847 1545.82 Q884.995 1545.82 886.824 1543.66 Q888.676 1541.49 888.676 1537.76 Q888.676 1534.01 886.824 1531.86 Q884.995 1529.7 881.847 1529.7 M891.13 1515.05 L891.13 1519.31 Q889.37 1518.48 887.565 1518.04 Q885.782 1517.6 884.023 1517.6 Q879.394 1517.6 876.94 1520.72 Q874.509 1523.85 874.162 1530.17 Q875.528 1528.15 877.588 1527.09 Q879.648 1526 882.125 1526 Q887.333 1526 890.343 1529.17 Q893.375 1532.32 893.375 1537.76 Q893.375 1543.08 890.227 1546.3 Q887.079 1549.52 881.847 1549.52 Q875.852 1549.52 872.681 1544.94 Q869.509 1540.33 869.509 1531.6 Q869.509 1523.41 873.398 1518.55 Q877.287 1513.66 883.838 1513.66 Q885.597 1513.66 887.38 1514.01 Q889.185 1514.36 891.13 1515.05 Z" fill="#000000" fill-rule="nonzero" fill-opacity="1" /><path clip-path="url(#clip340)" d="M911.43 1517.37 Q907.819 1517.37 905.991 1520.93 Q904.185 1524.47 904.185 1531.6 Q904.185 1538.71 905.991 1542.27 Q907.819 1545.82 911.43 1545.82 Q915.065 1545.82 916.87 1542.27 Q918.699 1538.71 918.699 1531.6 Q918.699 1524.47 916.87 1520.93 Q915.065 1517.37 911.43 1517.37 M911.43 1513.66 Q917.241 1513.66 920.296 1518.27 Q923.375 1522.85 923.375 1531.6 Q923.375 1540.33 920.296 1544.94 Q917.241 1549.52 911.43 1549.52 Q905.62 1549.52 902.542 1544.94 Q899.486 1540.33 899.486 1531.6 Q899.486 1522.85 902.542 1518.27 Q905.62 1513.66 911.43 1513.66 Z" fill="#000000" fill-rule="nonzero" fill-opacity="1" /><path clip-path="url(#clip340)" d="M1110.26 1532.44 Q1106.92 1532.44 1105 1534.22 Q1103.1 1536 1103.1 1539.13 Q1103.1 1542.25 1105 1544.03 Q1106.92 1545.82 1110.26 1545.82 Q1113.59 1545.82 1115.51 1544.03 Q1117.43 1542.23 1117.43 1539.13 Q1117.43 1536 1115.51 1534.22 Q1113.61 1532.44 1110.26 1532.44 M1105.58 1530.45 Q1102.57 1529.7 1100.88 1527.64 Q1099.21 1525.58 1099.21 1522.62 Q1099.21 1518.48 1102.15 1516.07 Q1105.12 1513.66 1110.26 1513.66 Q1115.42 1513.66 1118.36 1516.07 Q1121.3 1518.48 1121.3 1522.62 Q1121.3 1525.58 1119.61 1527.64 Q1117.94 1529.7 1114.96 1530.45 Q1118.33 1531.23 1120.21 1533.52 Q1122.11 1535.82 1122.11 1539.13 Q1122.11 1544.15 1119.03 1546.83 Q1115.97 1549.52 1110.26 1549.52 Q1104.54 1549.52 1101.46 1546.83 Q1098.4 1544.15 1098.4 1539.13 Q1098.4 1535.82 1100.3 1533.52 Q1102.2 1531.23 1105.58 1530.45 M1103.87 1523.06 Q1103.87 1525.75 1105.53 1527.25 Q1107.22 1528.76 1110.26 1528.76 Q1113.27 1528.76 1114.96 1527.25 Q1116.67 1525.75 1116.67 1523.06 Q1116.67 1520.38 1114.96 1518.87 Q1113.27 1517.37 1110.26 1517.37 Q1107.22 1517.37 1105.53 1518.87 Q1103.87 1520.38 1103.87 1523.06 Z" fill="#000000" fill-rule="nonzero" fill-opacity="1" /><path clip-path="url(#clip340)" d="M1140.42 1517.37 Q1136.81 1517.37 1134.98 1520.93 Q1133.17 1524.47 1133.17 1531.6 Q1133.17 1538.71 1134.98 1542.27 Q1136.81 1545.82 1140.42 1545.82 Q1144.05 1545.82 1145.86 1542.27 Q1147.69 1538.71 1147.69 1531.6 Q1147.69 1524.47 1145.86 1520.93 Q1144.05 1517.37 1140.42 1517.37 M1140.42 1513.66 Q1146.23 1513.66 1149.28 1518.27 Q1152.36 1522.85 1152.36 1531.6 Q1152.36 1540.33 1149.28 1544.94 Q1146.23 1549.52 1140.42 1549.52 Q1134.61 1549.52 1131.53 1544.94 Q1128.47 1540.33 1128.47 1531.6 Q1128.47 1522.85 1131.53 1518.27 Q1134.61 1513.66 1140.42 1513.66 Z" fill="#000000" fill-rule="nonzero" fill-opacity="1" /><polyline clip-path="url(#clip340)" style="stroke:#000000; stroke-linecap:round; stroke-linejoin:round; stroke-width:4; stroke-opacity:1; fill:none" points="193.936,1486.45 193.936,47.2441 "/>
<polyline clip-path="url(#clip340)" style="stroke:#000000; stroke-linecap:round; stroke-linejoin:round; stroke-width:4; stroke-opacity:1; fill:none" points="193.936,1474.38 212.834,1474.38 "/>
<polyline clip-path="url(#clip340)" style="stroke:#000000; stroke-linecap:round; stroke-linejoin:round; stroke-width:4; stroke-opacity:1; fill:none" points="193.936,1062.08 212.834,1062.08 "/>
<polyline clip-path="url(#clip340)" style="stroke:#000000; stroke-linecap:round; stroke-linejoin:round; stroke-width:4; stroke-opacity:1; fill:none" points="193.936,649.781 212.834,649.781 "/>
<polyline clip-path="url(#clip340)" style="stroke:#000000; stroke-linecap:round; stroke-linejoin:round; stroke-width:4; stroke-opacity:1; fill:none" points="193.936,237.481 212.834,237.481 "/>
<path clip-path="url(#clip340)" d="M50.9921 1474.83 L80.6679 1474.83 L80.6679 1478.77 L50.9921 1478.77 L50.9921 1474.83 Z" fill="#000000" fill-rule="nonzero" fill-opacity="1" /><path clip-path="url(#clip340)" d="M91.5706 1487.72 L99.2095 1487.72 L99.2095 1461.36 L90.8993 1463.03 L90.8993 1458.77 L99.1632 1457.1 L103.839 1457.1 L103.839 1487.72 L111.478 1487.72 L111.478 1491.66 L91.5706 1491.66 L91.5706 1487.72 Z" fill="#000000" fill-rule="nonzero" fill-opacity="1" /><path clip-path="url(#clip340)" d="M120.922 1485.78 L125.807 1485.78 L125.807 1491.66 L120.922 1491.66 L120.922 1485.78 Z" fill="#000000" fill-rule="nonzero" fill-opacity="1" /><path clip-path="url(#clip340)" d="M145.992 1460.18 Q142.381 1460.18 140.552 1463.74 Q138.746 1467.28 138.746 1474.41 Q138.746 1481.52 140.552 1485.09 Q142.381 1488.63 145.992 1488.63 Q149.626 1488.63 151.431 1485.09 Q153.26 1481.52 153.26 1474.41 Q153.26 1467.28 151.431 1463.74 Q149.626 1460.18 145.992 1460.18 M145.992 1456.47 Q151.802 1456.47 154.857 1461.08 Q157.936 1465.66 157.936 1474.41 Q157.936 1483.14 154.857 1487.75 Q151.802 1492.33 145.992 1492.33 Q140.181 1492.33 137.103 1487.75 Q134.047 1483.14 134.047 1474.41 Q134.047 1465.66 137.103 1461.08 Q140.181 1456.47 145.992 1456.47 Z" fill="#000000" fill-rule="nonzero" fill-opacity="1" /><path clip-path="url(#clip340)" d="M51.9875 1062.53 L81.6633 1062.53 L81.6633 1066.47 L51.9875 1066.47 L51.9875 1062.53 Z" fill="#000000" fill-rule="nonzero" fill-opacity="1" /><path clip-path="url(#clip340)" d="M101.756 1047.88 Q98.1447 1047.88 96.316 1051.44 Q94.5104 1054.99 94.5104 1062.11 Q94.5104 1069.22 96.316 1072.79 Q98.1447 1076.33 101.756 1076.33 Q105.39 1076.33 107.196 1072.79 Q109.024 1069.22 109.024 1062.11 Q109.024 1054.99 107.196 1051.44 Q105.39 1047.88 101.756 1047.88 M101.756 1044.18 Q107.566 1044.18 110.621 1048.78 Q113.7 1053.36 113.7 1062.11 Q113.7 1070.84 110.621 1075.45 Q107.566 1080.03 101.756 1080.03 Q95.9456 1080.03 92.8669 1075.45 Q89.8114 1070.84 89.8114 1062.11 Q89.8114 1053.36 92.8669 1048.78 Q95.9456 1044.18 101.756 1044.18 Z" fill="#000000" fill-rule="nonzero" fill-opacity="1" /><path clip-path="url(#clip340)" d="M121.918 1073.48 L126.802 1073.48 L126.802 1079.36 L121.918 1079.36 L121.918 1073.48 Z" fill="#000000" fill-rule="nonzero" fill-opacity="1" /><path clip-path="url(#clip340)" d="M137.033 1044.8 L155.39 1044.8 L155.39 1048.74 L141.316 1048.74 L141.316 1057.21 Q142.334 1056.86 143.353 1056.7 Q144.371 1056.51 145.39 1056.51 Q151.177 1056.51 154.556 1059.68 Q157.936 1062.86 157.936 1068.27 Q157.936 1073.85 154.464 1076.95 Q150.992 1080.03 144.672 1080.03 Q142.496 1080.03 140.228 1079.66 Q137.982 1079.29 135.575 1078.55 L135.575 1073.85 Q137.658 1074.99 139.881 1075.54 Q142.103 1076.1 144.58 1076.1 Q148.584 1076.1 150.922 1073.99 Q153.26 1071.88 153.26 1068.27 Q153.26 1064.66 150.922 1062.55 Q148.584 1060.45 144.58 1060.45 Q142.705 1060.45 140.83 1060.86 Q138.978 1061.28 137.033 1062.16 L137.033 1044.8 Z" fill="#000000" fill-rule="nonzero" fill-opacity="1" /><path clip-path="url(#clip340)" d="M100.76 635.579 Q97.1493 635.579 95.3206 639.144 Q93.515 642.686 93.515 649.815 Q93.515 656.922 95.3206 660.487 Q97.1493 664.028 100.76 664.028 Q104.395 664.028 106.2 660.487 Q108.029 656.922 108.029 649.815 Q108.029 642.686 106.2 639.144 Q104.395 635.579 100.76 635.579 M100.76 631.876 Q106.571 631.876 109.626 636.482 Q112.705 641.066 112.705 649.815 Q112.705 658.542 109.626 663.149 Q106.571 667.732 100.76 667.732 Q94.9502 667.732 91.8715 663.149 Q88.816 658.542 88.816 649.815 Q88.816 641.066 91.8715 636.482 Q94.9502 631.876 100.76 631.876 Z" fill="#000000" fill-rule="nonzero" fill-opacity="1" /><path clip-path="url(#clip340)" d="M120.922 661.181 L125.807 661.181 L125.807 667.061 L120.922 667.061 L120.922 661.181 Z" fill="#000000" fill-rule="nonzero" fill-opacity="1" /><path clip-path="url(#clip340)" d="M145.992 635.579 Q142.381 635.579 140.552 639.144 Q138.746 642.686 138.746 649.815 Q138.746 656.922 140.552 660.487 Q142.381 664.028 145.992 664.028 Q149.626 664.028 151.431 660.487 Q153.26 656.922 153.26 649.815 Q153.26 642.686 151.431 639.144 Q149.626 635.579 145.992 635.579 M145.992 631.876 Q151.802 631.876 154.857 636.482 Q157.936 641.066 157.936 649.815 Q157.936 658.542 154.857 663.149 Q151.802 667.732 145.992 667.732 Q140.181 667.732 137.103 663.149 Q134.047 658.542 134.047 649.815 Q134.047 641.066 137.103 636.482 Q140.181 631.876 145.992 631.876 Z" fill="#000000" fill-rule="nonzero" fill-opacity="1" /><path clip-path="url(#clip340)" d="M101.756 223.28 Q98.1447 223.28 96.316 226.845 Q94.5104 230.387 94.5104 237.516 Q94.5104 244.623 96.316 248.187 Q98.1447 251.729 101.756 251.729 Q105.39 251.729 107.196 248.187 Q109.024 244.623 109.024 237.516 Q109.024 230.387 107.196 226.845 Q105.39 223.28 101.756 223.28 M101.756 219.576 Q107.566 219.576 110.621 224.183 Q113.7 228.766 113.7 237.516 Q113.7 246.243 110.621 250.849 Q107.566 255.433 101.756 255.433 Q95.9456 255.433 92.8669 250.849 Q89.8114 246.243 89.8114 237.516 Q89.8114 228.766 92.8669 224.183 Q95.9456 219.576 101.756 219.576 Z" fill="#000000" fill-rule="nonzero" fill-opacity="1" /><path clip-path="url(#clip340)" d="M121.918 248.882 L126.802 248.882 L126.802 254.761 L121.918 254.761 L121.918 248.882 Z" fill="#000000" fill-rule="nonzero" fill-opacity="1" /><path clip-path="url(#clip340)" d="M137.033 220.201 L155.39 220.201 L155.39 224.137 L141.316 224.137 L141.316 232.609 Q142.334 232.262 143.353 232.1 Q144.371 231.914 145.39 231.914 Q151.177 231.914 154.556 235.086 Q157.936 238.257 157.936 243.674 Q157.936 249.252 154.464 252.354 Q150.992 255.433 144.672 255.433 Q142.496 255.433 140.228 255.062 Q137.982 254.692 135.575 253.951 L135.575 249.252 Q137.658 250.386 139.881 250.942 Q142.103 251.498 144.58 251.498 Q148.584 251.498 150.922 249.391 Q153.26 247.285 153.26 243.674 Q153.26 240.062 150.922 237.956 Q148.584 235.849 144.58 235.849 Q142.705 235.849 140.83 236.266 Q138.978 236.683 137.033 237.562 L137.033 220.201 Z" fill="#000000" fill-rule="nonzero" fill-opacity="1" /><polyline clip-path="url(#clip342)" style="stroke:#009af9; stroke-linecap:round; stroke-linejoin:round; stroke-width:4; stroke-opacity:1; fill:none" points="221.066,760.84 232.513,814.94 243.96,873.224 255.407,880.82 266.854,928.883 278.301,864.381 289.748,811.006 301.195,853.904 312.642,794.319 324.089,792.301 335.536,680.503 346.983,500.746 358.43,297.244 369.877,307.492 381.324,282.378 392.771,329.881 404.219,347.447 415.666,418.409 427.113,394.773 438.56,455.244 450.007,481.905 461.454,493.331 472.901,555.366 484.348,697.019 495.795,707.351 507.242,730.902 518.689,786.17 530.136,786.692 541.583,764.572 553.03,834.824 564.477,784.487 575.924,706.16 587.371,696.336 598.819,682.82 610.266,717.837 621.713,788.001 633.16,886.709 644.607,956.533 656.054,981.824 667.501,1054.88 678.948,1040.57 690.395,1031.88 701.842,1025.53 713.289,896.192 724.736,878.04 736.183,811.782 747.63,967.709 759.077,912.642 770.524,975.044 781.971,945.835 793.419,763.525 804.866,576.392 816.313,518.203 827.76,624.389 839.207,521.386 850.654,351.894 862.101,360.363 873.548,322 884.995,224.033 896.442,223.021 907.889,206.808 919.336,245.313 930.783,153.313 942.23,204.964 953.677,168.27 965.124,197.352 976.572,282.661 988.019,278.112 999.466,370.815 1010.91,342.95 1022.36,481.098 1033.81,559.867 1045.25,632.163 1056.7,644.322 1068.15,728.79 1079.6,743.659 1091.04,906.814 1102.49,1132.01 1113.94,1085.83 1125.38,1116.24 "/>
<polyline clip-path="url(#clip342)" style="stroke:#e26f46; stroke-linecap:round; stroke-linejoin:round; stroke-width:4; stroke-opacity:1; fill:none" points="221.066,762.988 232.513,810.992 243.96,878.876 255.407,892.765 266.854,934.039 278.301,875.018 289.748,826.874 301.195,876.358 312.642,831.642 324.089,830.578 335.536,720.284 346.983,546.667 358.43,354.905 369.877,373.952 381.324,353.387 392.771,390.737 404.219,407.223 415.666,482.53 427.113,481.717 438.56,537.257 450.007,573.632 461.454,581.485 472.901,637.719 484.348,770.303 495.795,793.092 507.242,825.989 518.689,877.792 530.136,898.099 541.583,879.385 553.03,950.753 564.477,892.086 575.924,811.715 587.371,793.963 598.819,777.111 610.266,796.285 621.713,862.45 633.16,943.708 644.607,998.091 656.054,999.401 667.501,1054.23 678.948,1034.15 690.395,1017.71 701.842,1014.24 713.289,868.369 724.736,842.517 736.183,772.13 747.63,924.265 759.077,858.861 770.524,895.819 781.971,849.353 793.419,662.267 804.866,471.801 816.313,416.531 827.76,508.031 839.207,408.337 850.654,243.053 862.101,257.861 873.548,216.201 884.995,124.668 896.442,128.495 907.889,117.134 919.336,172.368 930.783,87.9763 942.23,148.608 953.677,116.925 965.124,152.038 976.572,241.021 988.019,248.979 999.466,345.495 1010.91,318.355 1022.36,455.748 1033.81,533.156 1045.25,615.645 1056.7,625.619 1068.15,728.131 1079.6,739.797 1091.04,912.766 1102.49,1150.64 1113.94,1106.99 1125.38,1137.18 "/>
<polyline clip-path="url(#clip342)" style="stroke:#3da44d; stroke-linecap:round; stroke-linejoin:round; stroke-width:4; stroke-opacity:1; fill:none" points="221.066,931.034 232.513,969.902 243.96,988.122 255.407,1059.84 266.854,1106.95 278.301,1046.37 289.748,913.48 301.195,915.302 312.642,964.507 324.089,936.608 335.536,776.554 346.983,516.278 358.43,300.334 369.877,374.295 381.324,310.489 392.771,334.215 404.219,422.516 415.666,419.021 427.113,390.471 438.56,370.104 450.007,442.38 461.454,412.747 472.901,529.64 484.348,739.02 495.795,717.041 507.242,735.679 518.689,894.732 530.136,916.412 541.583,702.428 553.03,866.617 564.477,769.553 575.924,841.806 587.371,738.208 598.819,919.07 610.266,823.133 621.713,781.913 633.16,941.397 644.607,1054.55 656.054,983.256 667.501,1113.27 678.948,1045.52 690.395,1027.94 701.842,1030.48 713.289,832.637 724.736,846.677 736.183,689.746 747.63,1029.16 759.077,932.516 770.524,904.724 781.971,875.975 793.419,642.076 804.866,484.8 816.313,367.636 827.76,418.607 839.207,246.724 850.654,187.473 862.101,264.903 873.548,182.672 884.995,236.906 896.442,306.116 907.889,302.963 919.336,398.613 930.783,293.62 942.23,431.002 953.677,410.84 965.124,446.205 976.572,573.318 988.019,489.31 999.466,585.809 1010.91,609.16 1022.36,906.571 1033.81,887.855 1045.25,968.6 1056.7,891.571 1068.15,999.973 1079.6,1096.81 1091.04,1241.58 1102.49,1445.72 1113.94,1273.92 1125.38,1207.99 "/>
<path clip-path="url(#clip340)" d="M225.889 1438.47 L683.411 1438.47 L683.411 1231.11 L225.889 1231.11  Z" fill="#ffffff" fill-rule="evenodd" fill-opacity="1"/>
<polyline clip-path="url(#clip340)" style="stroke:#000000; stroke-linecap:round; stroke-linejoin:round; stroke-width:4; stroke-opacity:1; fill:none" points="225.889,1438.47 683.411,1438.47 683.411,1231.11 225.889,1231.11 225.889,1438.47 "/>
<polyline clip-path="url(#clip340)" style="stroke:#009af9; stroke-linecap:round; stroke-linejoin:round; stroke-width:4; stroke-opacity:1; fill:none" points="236.539,1282.95 300.445,1282.95 "/>
<path clip-path="url(#clip340)" d="M311.095 1265.67 L315.771 1265.67 L315.771 1280.28 L331.28 1265.67 L337.299 1265.67 L320.146 1281.79 L338.526 1300.23 L332.368 1300.23 L315.771 1283.59 L315.771 1300.23 L311.095 1300.23 L311.095 1265.67 Z" fill="#000000" fill-rule="nonzero" fill-opacity="1" /><path clip-path="url(#clip340)" d="M352.947 1287.2 Q347.785 1287.2 345.794 1288.38 Q343.804 1289.56 343.804 1292.41 Q343.804 1294.68 345.285 1296.02 Q346.79 1297.34 349.359 1297.34 Q352.901 1297.34 355.03 1294.84 Q357.183 1292.32 357.183 1288.15 L357.183 1287.2 L352.947 1287.2 M361.442 1285.44 L361.442 1300.23 L357.183 1300.23 L357.183 1296.3 Q355.725 1298.66 353.549 1299.79 Q351.373 1300.91 348.225 1300.91 Q344.243 1300.91 341.882 1298.68 Q339.544 1296.44 339.544 1292.69 Q339.544 1288.31 342.461 1286.09 Q345.401 1283.87 351.211 1283.87 L357.183 1283.87 L357.183 1283.45 Q357.183 1280.51 355.239 1278.92 Q353.317 1277.29 349.822 1277.29 Q347.6 1277.29 345.493 1277.83 Q343.387 1278.36 341.442 1279.42 L341.442 1275.49 Q343.78 1274.59 345.979 1274.15 Q348.179 1273.68 350.262 1273.68 Q355.887 1273.68 358.665 1276.6 Q361.442 1279.52 361.442 1285.44 Z" fill="#000000" fill-rule="nonzero" fill-opacity="1" /><path clip-path="url(#clip340)" d="M370.215 1264.22 L374.475 1264.22 L374.475 1300.23 L370.215 1300.23 L370.215 1264.22 Z" fill="#000000" fill-rule="nonzero" fill-opacity="1" /><path clip-path="url(#clip340)" d="M403.572 1279.29 Q405.169 1276.42 407.391 1275.05 Q409.613 1273.68 412.623 1273.68 Q416.674 1273.68 418.873 1276.53 Q421.072 1279.35 421.072 1284.59 L421.072 1300.23 L416.789 1300.23 L416.789 1284.73 Q416.789 1281 415.47 1279.19 Q414.15 1277.39 411.442 1277.39 Q408.132 1277.39 406.211 1279.59 Q404.289 1281.79 404.289 1285.58 L404.289 1300.23 L400.007 1300.23 L400.007 1284.73 Q400.007 1280.98 398.688 1279.19 Q397.368 1277.39 394.613 1277.39 Q391.35 1277.39 389.428 1279.61 Q387.507 1281.81 387.507 1285.58 L387.507 1300.23 L383.225 1300.23 L383.225 1274.31 L387.507 1274.31 L387.507 1278.34 Q388.965 1275.95 391.002 1274.82 Q393.039 1273.68 395.84 1273.68 Q398.664 1273.68 400.632 1275.12 Q402.623 1276.55 403.572 1279.29 Z" fill="#000000" fill-rule="nonzero" fill-opacity="1" /><path clip-path="url(#clip340)" d="M441.349 1287.2 Q436.187 1287.2 434.197 1288.38 Q432.206 1289.56 432.206 1292.41 Q432.206 1294.68 433.687 1296.02 Q435.192 1297.34 437.761 1297.34 Q441.303 1297.34 443.433 1294.84 Q445.585 1292.32 445.585 1288.15 L445.585 1287.2 L441.349 1287.2 M449.845 1285.44 L449.845 1300.23 L445.585 1300.23 L445.585 1296.3 Q444.127 1298.66 441.951 1299.79 Q439.775 1300.91 436.627 1300.91 Q432.646 1300.91 430.285 1298.68 Q427.947 1296.44 427.947 1292.69 Q427.947 1288.31 430.863 1286.09 Q433.803 1283.87 439.613 1283.87 L445.585 1283.87 L445.585 1283.45 Q445.585 1280.51 443.641 1278.92 Q441.72 1277.29 438.224 1277.29 Q436.002 1277.29 433.896 1277.83 Q431.789 1278.36 429.845 1279.42 L429.845 1275.49 Q432.183 1274.59 434.382 1274.15 Q436.581 1273.68 438.664 1273.68 Q444.289 1273.68 447.067 1276.6 Q449.845 1279.52 449.845 1285.44 Z" fill="#000000" fill-rule="nonzero" fill-opacity="1" /><path clip-path="url(#clip340)" d="M480.169 1284.59 L480.169 1300.23 L475.909 1300.23 L475.909 1284.73 Q475.909 1281.04 474.474 1279.22 Q473.039 1277.39 470.169 1277.39 Q466.72 1277.39 464.729 1279.59 Q462.738 1281.79 462.738 1285.58 L462.738 1300.23 L458.456 1300.23 L458.456 1274.31 L462.738 1274.31 L462.738 1278.34 Q464.266 1276 466.326 1274.84 Q468.409 1273.68 471.118 1273.68 Q475.585 1273.68 477.877 1276.46 Q480.169 1279.22 480.169 1284.59 Z" fill="#000000" fill-rule="nonzero" fill-opacity="1" /><path clip-path="url(#clip340)" d="M520.261 1275.07 L520.261 1279.1 Q518.455 1278.17 516.511 1277.71 Q514.567 1277.25 512.483 1277.25 Q509.312 1277.25 507.715 1278.22 Q506.141 1279.19 506.141 1281.14 Q506.141 1282.62 507.275 1283.48 Q508.409 1284.31 511.835 1285.07 L513.293 1285.4 Q517.83 1286.37 519.729 1288.15 Q521.65 1289.91 521.65 1293.08 Q521.65 1296.69 518.779 1298.8 Q515.932 1300.91 510.932 1300.91 Q508.849 1300.91 506.58 1300.49 Q504.335 1300.1 501.835 1299.29 L501.835 1294.89 Q504.196 1296.11 506.488 1296.74 Q508.78 1297.34 511.025 1297.34 Q514.034 1297.34 515.654 1296.32 Q517.275 1295.28 517.275 1293.41 Q517.275 1291.67 516.094 1290.74 Q514.937 1289.82 510.979 1288.96 L509.497 1288.61 Q505.539 1287.78 503.78 1286.07 Q502.02 1284.33 502.02 1281.32 Q502.02 1277.67 504.613 1275.67 Q507.205 1273.68 511.974 1273.68 Q514.335 1273.68 516.418 1274.03 Q518.502 1274.38 520.261 1275.07 Z" fill="#000000" fill-rule="nonzero" fill-opacity="1" /><path clip-path="url(#clip340)" d="M548.617 1279.29 Q550.214 1276.42 552.437 1275.05 Q554.659 1273.68 557.668 1273.68 Q561.719 1273.68 563.918 1276.53 Q566.117 1279.35 566.117 1284.59 L566.117 1300.23 L561.835 1300.23 L561.835 1284.73 Q561.835 1281 560.515 1279.19 Q559.196 1277.39 556.488 1277.39 Q553.177 1277.39 551.256 1279.59 Q549.335 1281.79 549.335 1285.58 L549.335 1300.23 L545.052 1300.23 L545.052 1284.73 Q545.052 1280.98 543.733 1279.19 Q542.414 1277.39 539.659 1277.39 Q536.395 1277.39 534.474 1279.61 Q532.553 1281.81 532.553 1285.58 L532.553 1300.23 L528.27 1300.23 L528.27 1274.31 L532.553 1274.31 L532.553 1278.34 Q534.011 1275.95 536.048 1274.82 Q538.085 1273.68 540.886 1273.68 Q543.71 1273.68 545.677 1275.12 Q547.668 1276.55 548.617 1279.29 Z" fill="#000000" fill-rule="nonzero" fill-opacity="1" /><path clip-path="url(#clip340)" d="M584.659 1277.29 Q581.233 1277.29 579.242 1279.98 Q577.251 1282.64 577.251 1287.29 Q577.251 1291.95 579.219 1294.63 Q581.21 1297.29 584.659 1297.29 Q588.061 1297.29 590.052 1294.61 Q592.043 1291.92 592.043 1287.29 Q592.043 1282.69 590.052 1280 Q588.061 1277.29 584.659 1277.29 M584.659 1273.68 Q590.214 1273.68 593.386 1277.29 Q596.557 1280.91 596.557 1287.29 Q596.557 1293.66 593.386 1297.29 Q590.214 1300.91 584.659 1300.91 Q579.08 1300.91 575.909 1297.29 Q572.761 1293.66 572.761 1287.29 Q572.761 1280.91 575.909 1277.29 Q579.08 1273.68 584.659 1273.68 Z" fill="#000000" fill-rule="nonzero" fill-opacity="1" /><path clip-path="url(#clip340)" d="M613.663 1277.29 Q610.237 1277.29 608.247 1279.98 Q606.256 1282.64 606.256 1287.29 Q606.256 1291.95 608.223 1294.63 Q610.214 1297.29 613.663 1297.29 Q617.066 1297.29 619.057 1294.61 Q621.047 1291.92 621.047 1287.29 Q621.047 1282.69 619.057 1280 Q617.066 1277.29 613.663 1277.29 M613.663 1273.68 Q619.219 1273.68 622.39 1277.29 Q625.561 1280.91 625.561 1287.29 Q625.561 1293.66 622.39 1297.29 Q619.219 1300.91 613.663 1300.91 Q608.085 1300.91 604.913 1297.29 Q601.765 1293.66 601.765 1287.29 Q601.765 1280.91 604.913 1277.29 Q608.085 1273.68 613.663 1273.68 Z" fill="#000000" fill-rule="nonzero" fill-opacity="1" /><path clip-path="url(#clip340)" d="M636.834 1266.95 L636.834 1274.31 L645.607 1274.31 L645.607 1277.62 L636.834 1277.62 L636.834 1291.69 Q636.834 1294.86 637.691 1295.77 Q638.57 1296.67 641.233 1296.67 L645.607 1296.67 L645.607 1300.23 L641.233 1300.23 Q636.302 1300.23 634.427 1298.41 Q632.552 1296.55 632.552 1291.69 L632.552 1277.62 L629.427 1277.62 L629.427 1274.31 L632.552 1274.31 L632.552 1266.95 L636.834 1266.95 Z" fill="#000000" fill-rule="nonzero" fill-opacity="1" /><path clip-path="url(#clip340)" d="M672.76 1284.59 L672.76 1300.23 L668.501 1300.23 L668.501 1284.73 Q668.501 1281.04 667.066 1279.22 Q665.631 1277.39 662.76 1277.39 Q659.311 1277.39 657.32 1279.59 Q655.33 1281.79 655.33 1285.58 L655.33 1300.23 L651.047 1300.23 L651.047 1264.22 L655.33 1264.22 L655.33 1278.34 Q656.857 1276 658.918 1274.84 Q661.001 1273.68 663.709 1273.68 Q668.177 1273.68 670.468 1276.46 Q672.76 1279.22 672.76 1284.59 Z" fill="#000000" fill-rule="nonzero" fill-opacity="1" /><polyline clip-path="url(#clip340)" style="stroke:#e26f46; stroke-linecap:round; stroke-linejoin:round; stroke-width:4; stroke-opacity:1; fill:none" points="236.539,1334.79 300.445,1334.79 "/>
<path clip-path="url(#clip340)" d="M315.378 1348.19 L315.378 1361.94 L311.095 1361.94 L311.095 1326.15 L315.378 1326.15 L315.378 1330.08 Q316.72 1327.77 318.757 1326.66 Q320.818 1325.52 323.665 1325.52 Q328.387 1325.52 331.327 1329.27 Q334.29 1333.02 334.29 1339.13 Q334.29 1345.25 331.327 1349 Q328.387 1352.75 323.665 1352.75 Q320.818 1352.75 318.757 1351.63 Q316.72 1350.5 315.378 1348.19 M329.868 1339.13 Q329.868 1334.44 327.924 1331.77 Q326.003 1329.09 322.623 1329.09 Q319.243 1329.09 317.299 1331.77 Q315.378 1334.44 315.378 1339.13 Q315.378 1343.83 317.299 1346.52 Q319.243 1349.18 322.623 1349.18 Q326.003 1349.18 327.924 1346.52 Q329.868 1343.83 329.868 1339.13 Z" fill="#000000" fill-rule="nonzero" fill-opacity="1" /><path clip-path="url(#clip340)" d="M354.475 1316.06 L354.475 1319.6 L350.401 1319.6 Q348.109 1319.6 347.206 1320.52 Q346.327 1321.45 346.327 1323.86 L346.327 1326.15 L353.341 1326.15 L353.341 1329.46 L346.327 1329.46 L346.327 1352.07 L342.044 1352.07 L342.044 1329.46 L337.97 1329.46 L337.97 1326.15 L342.044 1326.15 L342.044 1324.34 Q342.044 1320.01 344.058 1318.05 Q346.072 1316.06 350.447 1316.06 L354.475 1316.06 Z" fill="#000000" fill-rule="nonzero" fill-opacity="1" /><path clip-path="url(#clip340)" d="M389.637 1326.91 L389.637 1330.94 Q387.831 1330.01 385.887 1329.55 Q383.942 1329.09 381.859 1329.09 Q378.688 1329.09 377.09 1330.06 Q375.516 1331.03 375.516 1332.98 Q375.516 1334.46 376.651 1335.32 Q377.785 1336.15 381.211 1336.91 L382.669 1337.24 Q387.206 1338.21 389.104 1339.99 Q391.026 1341.75 391.026 1344.92 Q391.026 1348.53 388.155 1350.64 Q385.308 1352.75 380.308 1352.75 Q378.225 1352.75 375.956 1352.33 Q373.711 1351.94 371.211 1351.13 L371.211 1346.73 Q373.572 1347.95 375.864 1348.58 Q378.155 1349.18 380.401 1349.18 Q383.41 1349.18 385.03 1348.16 Q386.651 1347.12 386.651 1345.25 Q386.651 1343.51 385.47 1342.58 Q384.313 1341.66 380.354 1340.8 L378.873 1340.45 Q374.914 1339.62 373.155 1337.91 Q371.396 1336.17 371.396 1333.16 Q371.396 1329.51 373.989 1327.51 Q376.581 1325.52 381.35 1325.52 Q383.711 1325.52 385.794 1325.87 Q387.877 1326.22 389.637 1326.91 Z" fill="#000000" fill-rule="nonzero" fill-opacity="1" /><path clip-path="url(#clip340)" d="M417.993 1331.13 Q419.59 1328.26 421.812 1326.89 Q424.035 1325.52 427.044 1325.52 Q431.095 1325.52 433.294 1328.37 Q435.493 1331.19 435.493 1336.43 L435.493 1352.07 L431.21 1352.07 L431.21 1336.57 Q431.21 1332.84 429.891 1331.03 Q428.572 1329.23 425.863 1329.23 Q422.553 1329.23 420.632 1331.43 Q418.711 1333.63 418.711 1337.42 L418.711 1352.07 L414.428 1352.07 L414.428 1336.57 Q414.428 1332.82 413.109 1331.03 Q411.789 1329.23 409.035 1329.23 Q405.771 1329.23 403.85 1331.45 Q401.928 1333.65 401.928 1337.42 L401.928 1352.07 L397.646 1352.07 L397.646 1326.15 L401.928 1326.15 L401.928 1330.18 Q403.387 1327.79 405.424 1326.66 Q407.461 1325.52 410.262 1325.52 Q413.086 1325.52 415.053 1326.96 Q417.044 1328.39 417.993 1331.13 Z" fill="#000000" fill-rule="nonzero" fill-opacity="1" /><path clip-path="url(#clip340)" d="M454.034 1329.13 Q450.609 1329.13 448.618 1331.82 Q446.627 1334.48 446.627 1339.13 Q446.627 1343.79 448.595 1346.47 Q450.585 1349.13 454.034 1349.13 Q457.437 1349.13 459.428 1346.45 Q461.419 1343.76 461.419 1339.13 Q461.419 1334.53 459.428 1331.84 Q457.437 1329.13 454.034 1329.13 M454.034 1325.52 Q459.59 1325.52 462.761 1329.13 Q465.933 1332.75 465.933 1339.13 Q465.933 1345.5 462.761 1349.13 Q459.59 1352.75 454.034 1352.75 Q448.456 1352.75 445.284 1349.13 Q442.136 1345.5 442.136 1339.13 Q442.136 1332.75 445.284 1329.13 Q448.456 1325.52 454.034 1325.52 Z" fill="#000000" fill-rule="nonzero" fill-opacity="1" /><path clip-path="url(#clip340)" d="M483.039 1329.13 Q479.613 1329.13 477.622 1331.82 Q475.632 1334.48 475.632 1339.13 Q475.632 1343.79 477.599 1346.47 Q479.59 1349.13 483.039 1349.13 Q486.442 1349.13 488.432 1346.45 Q490.423 1343.76 490.423 1339.13 Q490.423 1334.53 488.432 1331.84 Q486.442 1329.13 483.039 1329.13 M483.039 1325.52 Q488.594 1325.52 491.766 1329.13 Q494.937 1332.75 494.937 1339.13 Q494.937 1345.5 491.766 1349.13 Q488.594 1352.75 483.039 1352.75 Q477.46 1352.75 474.289 1349.13 Q471.141 1345.5 471.141 1339.13 Q471.141 1332.75 474.289 1329.13 Q477.46 1325.52 483.039 1325.52 Z" fill="#000000" fill-rule="nonzero" fill-opacity="1" /><path clip-path="url(#clip340)" d="M506.21 1318.79 L506.21 1326.15 L514.983 1326.15 L514.983 1329.46 L506.21 1329.46 L506.21 1343.53 Q506.21 1346.7 507.067 1347.61 Q507.946 1348.51 510.608 1348.51 L514.983 1348.51 L514.983 1352.07 L510.608 1352.07 Q505.678 1352.07 503.803 1350.25 Q501.928 1348.39 501.928 1343.53 L501.928 1329.46 L498.803 1329.46 L498.803 1326.15 L501.928 1326.15 L501.928 1318.79 L506.21 1318.79 Z" fill="#000000" fill-rule="nonzero" fill-opacity="1" /><path clip-path="url(#clip340)" d="M542.136 1336.43 L542.136 1352.07 L537.877 1352.07 L537.877 1336.57 Q537.877 1332.88 536.441 1331.06 Q535.006 1329.23 532.136 1329.23 Q528.687 1329.23 526.696 1331.43 Q524.705 1333.63 524.705 1337.42 L524.705 1352.07 L520.423 1352.07 L520.423 1316.06 L524.705 1316.06 L524.705 1330.18 Q526.233 1327.84 528.293 1326.68 Q530.377 1325.52 533.085 1325.52 Q537.553 1325.52 539.844 1328.3 Q542.136 1331.06 542.136 1336.43 Z" fill="#000000" fill-rule="nonzero" fill-opacity="1" /><polyline clip-path="url(#clip340)" style="stroke:#3da44d; stroke-linecap:round; stroke-linejoin:round; stroke-width:4; stroke-opacity:1; fill:none" points="236.539,1386.63 300.445,1386.63 "/>
<path clip-path="url(#clip340)" d="M318.503 1370.63 L318.503 1377.99 L327.276 1377.99 L327.276 1381.3 L318.503 1381.3 L318.503 1395.37 Q318.503 1398.54 319.359 1399.45 Q320.239 1400.35 322.901 1400.35 L327.276 1400.35 L327.276 1403.91 L322.901 1403.91 Q317.97 1403.91 316.095 1402.09 Q314.22 1400.23 314.22 1395.37 L314.22 1381.3 L311.095 1381.3 L311.095 1377.99 L314.22 1377.99 L314.22 1370.63 L318.503 1370.63 Z" fill="#000000" fill-rule="nonzero" fill-opacity="1" /><path clip-path="url(#clip340)" d="M347.901 1381.97 Q347.183 1381.55 346.327 1381.37 Q345.493 1381.16 344.475 1381.16 Q340.864 1381.16 338.919 1383.52 Q336.998 1385.86 336.998 1390.26 L336.998 1403.91 L332.716 1403.91 L332.716 1377.99 L336.998 1377.99 L336.998 1382.02 Q338.341 1379.66 340.493 1378.52 Q342.646 1377.36 345.725 1377.36 Q346.165 1377.36 346.697 1377.43 Q347.229 1377.48 347.878 1377.6 L347.901 1381.97 Z" fill="#000000" fill-rule="nonzero" fill-opacity="1" /><path clip-path="url(#clip340)" d="M351.929 1393.68 L351.929 1377.99 L356.188 1377.99 L356.188 1393.52 Q356.188 1397.2 357.623 1399.05 Q359.058 1400.88 361.928 1400.88 Q365.378 1400.88 367.368 1398.68 Q369.382 1396.48 369.382 1392.69 L369.382 1377.99 L373.641 1377.99 L373.641 1403.91 L369.382 1403.91 L369.382 1399.93 Q367.831 1402.29 365.771 1403.45 Q363.734 1404.59 361.026 1404.59 Q356.558 1404.59 354.243 1401.81 Q351.929 1399.03 351.929 1393.68 M362.646 1377.36 L362.646 1377.36 Z" fill="#000000" fill-rule="nonzero" fill-opacity="1" /><path clip-path="url(#clip340)" d="M404.59 1389.89 L404.59 1391.97 L385.007 1391.97 Q385.285 1396.37 387.646 1398.68 Q390.03 1400.97 394.266 1400.97 Q396.72 1400.97 399.012 1400.37 Q401.326 1399.77 403.595 1398.57 L403.595 1402.59 Q401.303 1403.57 398.896 1404.08 Q396.488 1404.59 394.012 1404.59 Q387.808 1404.59 384.174 1400.97 Q380.563 1397.36 380.563 1391.21 Q380.563 1384.84 383.989 1381.11 Q387.438 1377.36 393.271 1377.36 Q398.502 1377.36 401.535 1380.74 Q404.59 1384.1 404.59 1389.89 M400.331 1388.64 Q400.285 1385.14 398.363 1383.06 Q396.465 1380.97 393.317 1380.97 Q389.752 1380.97 387.6 1382.99 Q385.47 1385 385.146 1388.66 L400.331 1388.64 Z" fill="#000000" fill-rule="nonzero" fill-opacity="1" /><path clip-path="url(#clip340)" d="M1394.18 1486.45 L2352.76 1486.45 L2352.76 47.2441 L1394.18 47.2441  Z" fill="#ffffff" fill-rule="evenodd" fill-opacity="1"/>
<defs>
  <clipPath id="clip343">
    <rect x="1394" y="47" width="960" height="1440"/>
  </clipPath>
</defs>
<polyline clip-path="url(#clip343)" style="stroke:#000000; stroke-linecap:round; stroke-linejoin:round; stroke-width:2; stroke-opacity:0.1; fill:none" points="1409.86,1486.45 1409.86,47.2441 "/>
<polyline clip-path="url(#clip343)" style="stroke:#000000; stroke-linecap:round; stroke-linejoin:round; stroke-width:2; stroke-opacity:0.1; fill:none" points="1638.8,1486.45 1638.8,47.2441 "/>
<polyline clip-path="url(#clip343)" style="stroke:#000000; stroke-linecap:round; stroke-linejoin:round; stroke-width:2; stroke-opacity:0.1; fill:none" points="1867.74,1486.45 1867.74,47.2441 "/>
<polyline clip-path="url(#clip343)" style="stroke:#000000; stroke-linecap:round; stroke-linejoin:round; stroke-width:2; stroke-opacity:0.1; fill:none" points="2096.69,1486.45 2096.69,47.2441 "/>
<polyline clip-path="url(#clip343)" style="stroke:#000000; stroke-linecap:round; stroke-linejoin:round; stroke-width:2; stroke-opacity:0.1; fill:none" points="2325.63,1486.45 2325.63,47.2441 "/>
<polyline clip-path="url(#clip343)" style="stroke:#000000; stroke-linecap:round; stroke-linejoin:round; stroke-width:2; stroke-opacity:0.1; fill:none" points="1394.18,1383.31 2352.76,1383.31 "/>
<polyline clip-path="url(#clip343)" style="stroke:#000000; stroke-linecap:round; stroke-linejoin:round; stroke-width:2; stroke-opacity:0.1; fill:none" points="1394.18,1187.41 2352.76,1187.41 "/>
<polyline clip-path="url(#clip343)" style="stroke:#000000; stroke-linecap:round; stroke-linejoin:round; stroke-width:2; stroke-opacity:0.1; fill:none" points="1394.18,991.497 2352.76,991.497 "/>
<polyline clip-path="url(#clip343)" style="stroke:#000000; stroke-linecap:round; stroke-linejoin:round; stroke-width:2; stroke-opacity:0.1; fill:none" points="1394.18,795.588 2352.76,795.588 "/>
<polyline clip-path="url(#clip343)" style="stroke:#000000; stroke-linecap:round; stroke-linejoin:round; stroke-width:2; stroke-opacity:0.1; fill:none" points="1394.18,599.68 2352.76,599.68 "/>
<polyline clip-path="url(#clip343)" style="stroke:#000000; stroke-linecap:round; stroke-linejoin:round; stroke-width:2; stroke-opacity:0.1; fill:none" points="1394.18,403.771 2352.76,403.771 "/>
<polyline clip-path="url(#clip343)" style="stroke:#000000; stroke-linecap:round; stroke-linejoin:round; stroke-width:2; stroke-opacity:0.1; fill:none" points="1394.18,207.863 2352.76,207.863 "/>
<polyline clip-path="url(#clip340)" style="stroke:#000000; stroke-linecap:round; stroke-linejoin:round; stroke-width:4; stroke-opacity:1; fill:none" points="1394.18,1486.45 2352.76,1486.45 "/>
<polyline clip-path="url(#clip340)" style="stroke:#000000; stroke-linecap:round; stroke-linejoin:round; stroke-width:4; stroke-opacity:1; fill:none" points="1409.86,1486.45 1409.86,1467.55 "/>
<polyline clip-path="url(#clip340)" style="stroke:#000000; stroke-linecap:round; stroke-linejoin:round; stroke-width:4; stroke-opacity:1; fill:none" points="1638.8,1486.45 1638.8,1467.55 "/>
<polyline clip-path="url(#clip340)" style="stroke:#000000; stroke-linecap:round; stroke-linejoin:round; stroke-width:4; stroke-opacity:1; fill:none" points="1867.74,1486.45 1867.74,1467.55 "/>
<polyline clip-path="url(#clip340)" style="stroke:#000000; stroke-linecap:round; stroke-linejoin:round; stroke-width:4; stroke-opacity:1; fill:none" points="2096.69,1486.45 2096.69,1467.55 "/>
<polyline clip-path="url(#clip340)" style="stroke:#000000; stroke-linecap:round; stroke-linejoin:round; stroke-width:4; stroke-opacity:1; fill:none" points="2325.63,1486.45 2325.63,1467.55 "/>
<path clip-path="url(#clip340)" d="M1409.86 1517.37 Q1406.25 1517.37 1404.42 1520.93 Q1402.62 1524.47 1402.62 1531.6 Q1402.62 1538.71 1404.42 1542.27 Q1406.25 1545.82 1409.86 1545.82 Q1413.5 1545.82 1415.3 1542.27 Q1417.13 1538.71 1417.13 1531.6 Q1417.13 1524.47 1415.3 1520.93 Q1413.5 1517.37 1409.86 1517.37 M1409.86 1513.66 Q1415.67 1513.66 1418.73 1518.27 Q1421.81 1522.85 1421.81 1531.6 Q1421.81 1540.33 1418.73 1544.94 Q1415.67 1549.52 1409.86 1549.52 Q1404.05 1549.52 1400.97 1544.94 Q1397.92 1540.33 1397.92 1531.6 Q1397.92 1522.85 1400.97 1518.27 Q1404.05 1513.66 1409.86 1513.66 Z" fill="#000000" fill-rule="nonzero" fill-opacity="1" /><path clip-path="url(#clip340)" d="M1617.58 1544.91 L1633.9 1544.91 L1633.9 1548.85 L1611.95 1548.85 L1611.95 1544.91 Q1614.61 1542.16 1619.2 1537.53 Q1623.8 1532.88 1624.98 1531.53 Q1627.23 1529.01 1628.11 1527.27 Q1629.01 1525.51 1629.01 1523.82 Q1629.01 1521.07 1627.07 1519.33 Q1625.15 1517.6 1622.04 1517.6 Q1619.84 1517.6 1617.39 1518.36 Q1614.96 1519.13 1612.18 1520.68 L1612.18 1515.95 Q1615.01 1514.82 1617.46 1514.24 Q1619.91 1513.66 1621.95 1513.66 Q1627.32 1513.66 1630.52 1516.35 Q1633.71 1519.03 1633.71 1523.52 Q1633.71 1525.65 1632.9 1527.57 Q1632.11 1529.47 1630.01 1532.07 Q1629.43 1532.74 1626.33 1535.95 Q1623.22 1539.15 1617.58 1544.91 Z" fill="#000000" fill-rule="nonzero" fill-opacity="1" /><path clip-path="url(#clip340)" d="M1653.71 1517.37 Q1650.1 1517.37 1648.27 1520.93 Q1646.46 1524.47 1646.46 1531.6 Q1646.46 1538.71 1648.27 1542.27 Q1650.1 1545.82 1653.71 1545.82 Q1657.34 1545.82 1659.15 1542.27 Q1660.98 1538.71 1660.98 1531.6 Q1660.98 1524.47 1659.15 1520.93 Q1657.34 1517.37 1653.71 1517.37 M1653.71 1513.66 Q1659.52 1513.66 1662.58 1518.27 Q1665.65 1522.85 1665.65 1531.6 Q1665.65 1540.33 1662.58 1544.94 Q1659.52 1549.52 1653.71 1549.52 Q1647.9 1549.52 1644.82 1544.94 Q1641.77 1540.33 1641.77 1531.6 Q1641.77 1522.85 1644.82 1518.27 Q1647.9 1513.66 1653.71 1513.66 Z" fill="#000000" fill-rule="nonzero" fill-opacity="1" /><path clip-path="url(#clip340)" d="M1855.92 1518.36 L1844.11 1536.81 L1855.92 1536.81 L1855.92 1518.36 M1854.69 1514.29 L1860.57 1514.29 L1860.57 1536.81 L1865.5 1536.81 L1865.5 1540.7 L1860.57 1540.7 L1860.57 1548.85 L1855.92 1548.85 L1855.92 1540.7 L1840.31 1540.7 L1840.31 1536.19 L1854.69 1514.29 Z" fill="#000000" fill-rule="nonzero" fill-opacity="1" /><path clip-path="url(#clip340)" d="M1883.23 1517.37 Q1879.62 1517.37 1877.79 1520.93 Q1875.98 1524.47 1875.98 1531.6 Q1875.98 1538.71 1877.79 1542.27 Q1879.62 1545.82 1883.23 1545.82 Q1886.86 1545.82 1888.67 1542.27 Q1890.5 1538.71 1890.5 1531.6 Q1890.5 1524.47 1888.67 1520.93 Q1886.86 1517.37 1883.23 1517.37 M1883.23 1513.66 Q1889.04 1513.66 1892.1 1518.27 Q1895.17 1522.85 1895.17 1531.6 Q1895.17 1540.33 1892.1 1544.94 Q1889.04 1549.52 1883.23 1549.52 Q1877.42 1549.52 1874.34 1544.94 Q1871.29 1540.33 1871.29 1531.6 Q1871.29 1522.85 1874.34 1518.27 Q1877.42 1513.66 1883.23 1513.66 Z" fill="#000000" fill-rule="nonzero" fill-opacity="1" /><path clip-path="url(#clip340)" d="M2082.09 1529.7 Q2078.94 1529.7 2077.09 1531.86 Q2075.26 1534.01 2075.26 1537.76 Q2075.26 1541.49 2077.09 1543.66 Q2078.94 1545.82 2082.09 1545.82 Q2085.24 1545.82 2087.07 1543.66 Q2088.92 1541.49 2088.92 1537.76 Q2088.92 1534.01 2087.07 1531.86 Q2085.24 1529.7 2082.09 1529.7 M2091.37 1515.05 L2091.37 1519.31 Q2089.61 1518.48 2087.81 1518.04 Q2086.03 1517.6 2084.27 1517.6 Q2079.64 1517.6 2077.18 1520.72 Q2074.75 1523.85 2074.41 1530.17 Q2075.77 1528.15 2077.83 1527.09 Q2079.89 1526 2082.37 1526 Q2087.58 1526 2090.59 1529.17 Q2093.62 1532.32 2093.62 1537.76 Q2093.62 1543.08 2090.47 1546.3 Q2087.32 1549.52 2082.09 1549.52 Q2076.09 1549.52 2072.92 1544.94 Q2069.75 1540.33 2069.75 1531.6 Q2069.75 1523.41 2073.64 1518.55 Q2077.53 1513.66 2084.08 1513.66 Q2085.84 1513.66 2087.62 1514.01 Q2089.43 1514.36 2091.37 1515.05 Z" fill="#000000" fill-rule="nonzero" fill-opacity="1" /><path clip-path="url(#clip340)" d="M2111.67 1517.37 Q2108.06 1517.37 2106.23 1520.93 Q2104.43 1524.47 2104.43 1531.6 Q2104.43 1538.71 2106.23 1542.27 Q2108.06 1545.82 2111.67 1545.82 Q2115.31 1545.82 2117.11 1542.27 Q2118.94 1538.71 2118.94 1531.6 Q2118.94 1524.47 2117.11 1520.93 Q2115.31 1517.37 2111.67 1517.37 M2111.67 1513.66 Q2117.48 1513.66 2120.54 1518.27 Q2123.62 1522.85 2123.62 1531.6 Q2123.62 1540.33 2120.54 1544.94 Q2117.48 1549.52 2111.67 1549.52 Q2105.86 1549.52 2102.78 1544.94 Q2099.73 1540.33 2099.73 1531.6 Q2099.73 1522.85 2102.78 1518.27 Q2105.86 1513.66 2111.67 1513.66 Z" fill="#000000" fill-rule="nonzero" fill-opacity="1" /><path clip-path="url(#clip340)" d="M2310.5 1532.44 Q2307.17 1532.44 2305.24 1534.22 Q2303.35 1536 2303.35 1539.13 Q2303.35 1542.25 2305.24 1544.03 Q2307.17 1545.82 2310.5 1545.82 Q2313.83 1545.82 2315.75 1544.03 Q2317.68 1542.23 2317.68 1539.13 Q2317.68 1536 2315.75 1534.22 Q2313.86 1532.44 2310.5 1532.44 M2305.82 1530.45 Q2302.81 1529.7 2301.12 1527.64 Q2299.46 1525.58 2299.46 1522.62 Q2299.46 1518.48 2302.4 1516.07 Q2305.36 1513.66 2310.5 1513.66 Q2315.66 1513.66 2318.6 1516.07 Q2321.54 1518.48 2321.54 1522.62 Q2321.54 1525.58 2319.85 1527.64 Q2318.18 1529.7 2315.2 1530.45 Q2318.58 1531.23 2320.45 1533.52 Q2322.35 1535.82 2322.35 1539.13 Q2322.35 1544.15 2319.27 1546.83 Q2316.22 1549.52 2310.5 1549.52 Q2304.78 1549.52 2301.7 1546.83 Q2298.65 1544.15 2298.65 1539.13 Q2298.65 1535.82 2300.55 1533.52 Q2302.44 1531.23 2305.82 1530.45 M2304.11 1523.06 Q2304.11 1525.75 2305.78 1527.25 Q2307.47 1528.76 2310.5 1528.76 Q2313.51 1528.76 2315.2 1527.25 Q2316.91 1525.75 2316.91 1523.06 Q2316.91 1520.38 2315.2 1518.87 Q2313.51 1517.37 2310.5 1517.37 Q2307.47 1517.37 2305.78 1518.87 Q2304.11 1520.38 2304.11 1523.06 Z" fill="#000000" fill-rule="nonzero" fill-opacity="1" /><path clip-path="url(#clip340)" d="M2340.66 1517.37 Q2337.05 1517.37 2335.22 1520.93 Q2333.42 1524.47 2333.42 1531.6 Q2333.42 1538.71 2335.22 1542.27 Q2337.05 1545.82 2340.66 1545.82 Q2344.3 1545.82 2346.1 1542.27 Q2347.93 1538.71 2347.93 1531.6 Q2347.93 1524.47 2346.1 1520.93 Q2344.3 1517.37 2340.66 1517.37 M2340.66 1513.66 Q2346.47 1513.66 2349.53 1518.27 Q2352.61 1522.85 2352.61 1531.6 Q2352.61 1540.33 2349.53 1544.94 Q2346.47 1549.52 2340.66 1549.52 Q2334.85 1549.52 2331.77 1544.94 Q2328.72 1540.33 2328.72 1531.6 Q2328.72 1522.85 2331.77 1518.27 Q2334.85 1513.66 2340.66 1513.66 Z" fill="#000000" fill-rule="nonzero" fill-opacity="1" /><polyline clip-path="url(#clip340)" style="stroke:#000000; stroke-linecap:round; stroke-linejoin:round; stroke-width:4; stroke-opacity:1; fill:none" points="1394.18,1486.45 1394.18,47.2441 "/>
<polyline clip-path="url(#clip340)" style="stroke:#000000; stroke-linecap:round; stroke-linejoin:round; stroke-width:4; stroke-opacity:1; fill:none" points="1394.18,1383.31 1413.08,1383.31 "/>
<polyline clip-path="url(#clip340)" style="stroke:#000000; stroke-linecap:round; stroke-linejoin:round; stroke-width:4; stroke-opacity:1; fill:none" points="1394.18,1187.41 1413.08,1187.41 "/>
<polyline clip-path="url(#clip340)" style="stroke:#000000; stroke-linecap:round; stroke-linejoin:round; stroke-width:4; stroke-opacity:1; fill:none" points="1394.18,991.497 1413.08,991.497 "/>
<polyline clip-path="url(#clip340)" style="stroke:#000000; stroke-linecap:round; stroke-linejoin:round; stroke-width:4; stroke-opacity:1; fill:none" points="1394.18,795.588 1413.08,795.588 "/>
<polyline clip-path="url(#clip340)" style="stroke:#000000; stroke-linecap:round; stroke-linejoin:round; stroke-width:4; stroke-opacity:1; fill:none" points="1394.18,599.68 1413.08,599.68 "/>
<polyline clip-path="url(#clip340)" style="stroke:#000000; stroke-linecap:round; stroke-linejoin:round; stroke-width:4; stroke-opacity:1; fill:none" points="1394.18,403.771 1413.08,403.771 "/>
<polyline clip-path="url(#clip340)" style="stroke:#000000; stroke-linecap:round; stroke-linejoin:round; stroke-width:4; stroke-opacity:1; fill:none" points="1394.18,207.863 1413.08,207.863 "/>
<path clip-path="url(#clip340)" d="M1250.75 1383.77 L1280.42 1383.77 L1280.42 1387.7 L1250.75 1387.7 L1250.75 1383.77 Z" fill="#000000" fill-rule="nonzero" fill-opacity="1" /><path clip-path="url(#clip340)" d="M1300.52 1369.11 Q1296.91 1369.11 1295.08 1372.68 Q1293.27 1376.22 1293.27 1383.35 Q1293.27 1390.46 1295.08 1394.02 Q1296.91 1397.56 1300.52 1397.56 Q1304.15 1397.56 1305.96 1394.02 Q1307.79 1390.46 1307.79 1383.35 Q1307.79 1376.22 1305.96 1372.68 Q1304.15 1369.11 1300.52 1369.11 M1300.52 1365.41 Q1306.33 1365.41 1309.38 1370.02 Q1312.46 1374.6 1312.46 1383.35 Q1312.46 1392.08 1309.38 1396.68 Q1306.33 1401.27 1300.52 1401.27 Q1294.71 1401.27 1291.63 1396.68 Q1288.57 1392.08 1288.57 1383.35 Q1288.57 1374.6 1291.63 1370.02 Q1294.71 1365.41 1300.52 1365.41 Z" fill="#000000" fill-rule="nonzero" fill-opacity="1" /><path clip-path="url(#clip340)" d="M1320.68 1394.71 L1325.56 1394.71 L1325.56 1400.59 L1320.68 1400.59 L1320.68 1394.71 Z" fill="#000000" fill-rule="nonzero" fill-opacity="1" /><path clip-path="url(#clip340)" d="M1348.6 1370.11 L1336.79 1388.56 L1348.6 1388.56 L1348.6 1370.11 M1347.37 1366.03 L1353.25 1366.03 L1353.25 1388.56 L1358.18 1388.56 L1358.18 1392.45 L1353.25 1392.45 L1353.25 1400.59 L1348.6 1400.59 L1348.6 1392.45 L1332.99 1392.45 L1332.99 1387.93 L1347.37 1366.03 Z" fill="#000000" fill-rule="nonzero" fill-opacity="1" /><path clip-path="url(#clip340)" d="M1252.83 1187.86 L1282.51 1187.86 L1282.51 1191.79 L1252.83 1191.79 L1252.83 1187.86 Z" fill="#000000" fill-rule="nonzero" fill-opacity="1" /><path clip-path="url(#clip340)" d="M1302.6 1173.2 Q1298.99 1173.2 1297.16 1176.77 Q1295.36 1180.31 1295.36 1187.44 Q1295.36 1194.55 1297.16 1198.11 Q1298.99 1201.65 1302.6 1201.65 Q1306.23 1201.65 1308.04 1198.11 Q1309.87 1194.55 1309.87 1187.44 Q1309.87 1180.31 1308.04 1176.77 Q1306.23 1173.2 1302.6 1173.2 M1302.6 1169.5 Q1308.41 1169.5 1311.47 1174.11 Q1314.55 1178.69 1314.55 1187.44 Q1314.55 1196.17 1311.47 1200.77 Q1308.41 1205.36 1302.6 1205.36 Q1296.79 1205.36 1293.71 1200.77 Q1290.66 1196.17 1290.66 1187.44 Q1290.66 1178.69 1293.71 1174.11 Q1296.79 1169.5 1302.6 1169.5 Z" fill="#000000" fill-rule="nonzero" fill-opacity="1" /><path clip-path="url(#clip340)" d="M1322.76 1198.81 L1327.65 1198.81 L1327.65 1204.69 L1322.76 1204.69 L1322.76 1198.81 Z" fill="#000000" fill-rule="nonzero" fill-opacity="1" /><path clip-path="url(#clip340)" d="M1341.86 1200.75 L1358.18 1200.75 L1358.18 1204.69 L1336.23 1204.69 L1336.23 1200.75 Q1338.9 1198 1343.48 1193.37 Q1348.09 1188.71 1349.27 1187.37 Q1351.51 1184.85 1352.39 1183.11 Q1353.29 1181.35 1353.29 1179.66 Q1353.29 1176.91 1351.35 1175.17 Q1349.43 1173.44 1346.33 1173.44 Q1344.13 1173.44 1341.67 1174.2 Q1339.24 1174.96 1336.47 1176.51 L1336.47 1171.79 Q1339.29 1170.66 1341.74 1170.08 Q1344.2 1169.5 1346.23 1169.5 Q1351.61 1169.5 1354.8 1172.19 Q1357.99 1174.87 1357.99 1179.36 Q1357.99 1181.49 1357.18 1183.41 Q1356.4 1185.31 1354.29 1187.9 Q1353.71 1188.57 1350.61 1191.79 Q1347.51 1194.99 1341.86 1200.75 Z" fill="#000000" fill-rule="nonzero" fill-opacity="1" /><path clip-path="url(#clip340)" d="M1301 977.296 Q1297.39 977.296 1295.56 980.86 Q1293.76 984.402 1293.76 991.532 Q1293.76 998.638 1295.56 1002.2 Q1297.39 1005.74 1301 1005.74 Q1304.64 1005.74 1306.44 1002.2 Q1308.27 998.638 1308.27 991.532 Q1308.27 984.402 1306.44 980.86 Q1304.64 977.296 1301 977.296 M1301 973.592 Q1306.81 973.592 1309.87 978.198 Q1312.95 982.782 1312.95 991.532 Q1312.95 1000.26 1309.87 1004.86 Q1306.81 1009.45 1301 1009.45 Q1295.19 1009.45 1292.11 1004.86 Q1289.06 1000.26 1289.06 991.532 Q1289.06 982.782 1292.11 978.198 Q1295.19 973.592 1301 973.592 Z" fill="#000000" fill-rule="nonzero" fill-opacity="1" /><path clip-path="url(#clip340)" d="M1321.17 1002.9 L1326.05 1002.9 L1326.05 1008.78 L1321.17 1008.78 L1321.17 1002.9 Z" fill="#000000" fill-rule="nonzero" fill-opacity="1" /><path clip-path="url(#clip340)" d="M1346.23 977.296 Q1342.62 977.296 1340.79 980.86 Q1338.99 984.402 1338.99 991.532 Q1338.99 998.638 1340.79 1002.2 Q1342.62 1005.74 1346.23 1005.74 Q1349.87 1005.74 1351.67 1002.2 Q1353.5 998.638 1353.5 991.532 Q1353.5 984.402 1351.67 980.86 Q1349.87 977.296 1346.23 977.296 M1346.23 973.592 Q1352.04 973.592 1355.1 978.198 Q1358.18 982.782 1358.18 991.532 Q1358.18 1000.26 1355.1 1004.86 Q1352.04 1009.45 1346.23 1009.45 Q1340.42 1009.45 1337.35 1004.86 Q1334.29 1000.26 1334.29 991.532 Q1334.29 982.782 1337.35 978.198 Q1340.42 973.592 1346.23 973.592 Z" fill="#000000" fill-rule="nonzero" fill-opacity="1" /><path clip-path="url(#clip340)" d="M1302.6 781.387 Q1298.99 781.387 1297.16 784.952 Q1295.36 788.494 1295.36 795.623 Q1295.36 802.73 1297.16 806.294 Q1298.99 809.836 1302.6 809.836 Q1306.23 809.836 1308.04 806.294 Q1309.87 802.73 1309.87 795.623 Q1309.87 788.494 1308.04 784.952 Q1306.23 781.387 1302.6 781.387 M1302.6 777.683 Q1308.41 777.683 1311.47 782.29 Q1314.55 786.873 1314.55 795.623 Q1314.55 804.35 1311.47 808.956 Q1308.41 813.54 1302.6 813.54 Q1296.79 813.54 1293.71 808.956 Q1290.66 804.35 1290.66 795.623 Q1290.66 786.873 1293.71 782.29 Q1296.79 777.683 1302.6 777.683 Z" fill="#000000" fill-rule="nonzero" fill-opacity="1" /><path clip-path="url(#clip340)" d="M1322.76 806.989 L1327.65 806.989 L1327.65 812.868 L1322.76 812.868 L1322.76 806.989 Z" fill="#000000" fill-rule="nonzero" fill-opacity="1" /><path clip-path="url(#clip340)" d="M1341.86 808.933 L1358.18 808.933 L1358.18 812.868 L1336.23 812.868 L1336.23 808.933 Q1338.9 806.179 1343.48 801.549 Q1348.09 796.896 1349.27 795.554 Q1351.51 793.031 1352.39 791.294 Q1353.29 789.535 1353.29 787.845 Q1353.29 785.091 1351.35 783.355 Q1349.43 781.619 1346.33 781.619 Q1344.13 781.619 1341.67 782.382 Q1339.24 783.146 1336.47 784.697 L1336.47 779.975 Q1339.29 778.841 1341.74 778.262 Q1344.2 777.683 1346.23 777.683 Q1351.61 777.683 1354.8 780.369 Q1357.99 783.054 1357.99 787.544 Q1357.99 789.674 1357.18 791.595 Q1356.4 793.494 1354.29 796.086 Q1353.71 796.757 1350.61 799.975 Q1347.51 803.169 1341.86 808.933 Z" fill="#000000" fill-rule="nonzero" fill-opacity="1" /><path clip-path="url(#clip340)" d="M1300.52 585.479 Q1296.91 585.479 1295.08 589.043 Q1293.27 592.585 1293.27 599.715 Q1293.27 606.821 1295.08 610.386 Q1296.91 613.927 1300.52 613.927 Q1304.15 613.927 1305.96 610.386 Q1307.79 606.821 1307.79 599.715 Q1307.79 592.585 1305.96 589.043 Q1304.15 585.479 1300.52 585.479 M1300.52 581.775 Q1306.33 581.775 1309.38 586.381 Q1312.46 590.965 1312.46 599.715 Q1312.46 608.441 1309.38 613.048 Q1306.33 617.631 1300.52 617.631 Q1294.71 617.631 1291.63 613.048 Q1288.57 608.441 1288.57 599.715 Q1288.57 590.965 1291.63 586.381 Q1294.71 581.775 1300.52 581.775 Z" fill="#000000" fill-rule="nonzero" fill-opacity="1" /><path clip-path="url(#clip340)" d="M1320.68 611.08 L1325.56 611.08 L1325.56 616.96 L1320.68 616.96 L1320.68 611.08 Z" fill="#000000" fill-rule="nonzero" fill-opacity="1" /><path clip-path="url(#clip340)" d="M1348.6 586.474 L1336.79 604.923 L1348.6 604.923 L1348.6 586.474 M1347.37 582.4 L1353.25 582.4 L1353.25 604.923 L1358.18 604.923 L1358.18 608.812 L1353.25 608.812 L1353.25 616.96 L1348.6 616.96 L1348.6 608.812 L1332.99 608.812 L1332.99 604.298 L1347.37 582.4 Z" fill="#000000" fill-rule="nonzero" fill-opacity="1" /><path clip-path="url(#clip340)" d="M1300.84 389.57 Q1297.23 389.57 1295.4 393.135 Q1293.6 396.676 1293.6 403.806 Q1293.6 410.912 1295.4 414.477 Q1297.23 418.019 1300.84 418.019 Q1304.48 418.019 1306.28 414.477 Q1308.11 410.912 1308.11 403.806 Q1308.11 396.676 1306.28 393.135 Q1304.48 389.57 1300.84 389.57 M1300.84 385.866 Q1306.65 385.866 1309.71 390.473 Q1312.79 395.056 1312.79 403.806 Q1312.79 412.533 1309.71 417.139 Q1306.65 421.723 1300.84 421.723 Q1295.03 421.723 1291.95 417.139 Q1288.9 412.533 1288.9 403.806 Q1288.9 395.056 1291.95 390.473 Q1295.03 385.866 1300.84 385.866 Z" fill="#000000" fill-rule="nonzero" fill-opacity="1" /><path clip-path="url(#clip340)" d="M1321 415.172 L1325.89 415.172 L1325.89 421.051 L1321 421.051 L1321 415.172 Z" fill="#000000" fill-rule="nonzero" fill-opacity="1" /><path clip-path="url(#clip340)" d="M1346.65 401.908 Q1343.5 401.908 1341.65 404.061 Q1339.82 406.213 1339.82 409.963 Q1339.82 413.69 1341.65 415.866 Q1343.5 418.019 1346.65 418.019 Q1349.8 418.019 1351.63 415.866 Q1353.48 413.69 1353.48 409.963 Q1353.48 406.213 1351.63 404.061 Q1349.8 401.908 1346.65 401.908 M1355.93 387.255 L1355.93 391.514 Q1354.17 390.681 1352.37 390.241 Q1350.59 389.801 1348.83 389.801 Q1344.2 389.801 1341.74 392.926 Q1339.31 396.051 1338.97 402.371 Q1340.33 400.357 1342.39 399.292 Q1344.45 398.204 1346.93 398.204 Q1352.14 398.204 1355.15 401.375 Q1358.18 404.524 1358.18 409.963 Q1358.18 415.287 1355.03 418.505 Q1351.88 421.723 1346.65 421.723 Q1340.66 421.723 1337.48 417.139 Q1334.31 412.533 1334.31 403.806 Q1334.31 395.612 1338.2 390.751 Q1342.09 385.866 1348.64 385.866 Q1350.4 385.866 1352.18 386.214 Q1353.99 386.561 1355.93 387.255 Z" fill="#000000" fill-rule="nonzero" fill-opacity="1" /><path clip-path="url(#clip340)" d="M1301.1 193.661 Q1297.48 193.661 1295.66 197.226 Q1293.85 200.768 1293.85 207.897 Q1293.85 215.004 1295.66 218.569 Q1297.48 222.11 1301.1 222.11 Q1304.73 222.11 1306.54 218.569 Q1308.36 215.004 1308.36 207.897 Q1308.36 200.768 1306.54 197.226 Q1304.73 193.661 1301.1 193.661 M1301.1 189.958 Q1306.91 189.958 1309.96 194.564 Q1313.04 199.148 1313.04 207.897 Q1313.04 216.624 1309.96 221.231 Q1306.91 225.814 1301.1 225.814 Q1295.29 225.814 1292.21 221.231 Q1289.15 216.624 1289.15 207.897 Q1289.15 199.148 1292.21 194.564 Q1295.29 189.958 1301.1 189.958 Z" fill="#000000" fill-rule="nonzero" fill-opacity="1" /><path clip-path="url(#clip340)" d="M1321.26 219.263 L1326.14 219.263 L1326.14 225.143 L1321.26 225.143 L1321.26 219.263 Z" fill="#000000" fill-rule="nonzero" fill-opacity="1" /><path clip-path="url(#clip340)" d="M1346.33 208.731 Q1342.99 208.731 1341.07 210.513 Q1339.17 212.296 1339.17 215.421 Q1339.17 218.546 1341.07 220.328 Q1342.99 222.11 1346.33 222.11 Q1349.66 222.11 1351.58 220.328 Q1353.5 218.522 1353.5 215.421 Q1353.5 212.296 1351.58 210.513 Q1349.68 208.731 1346.33 208.731 M1341.65 206.74 Q1338.64 205.999 1336.95 203.939 Q1335.29 201.879 1335.29 198.916 Q1335.29 194.773 1338.23 192.365 Q1341.19 189.958 1346.33 189.958 Q1351.49 189.958 1354.43 192.365 Q1357.37 194.773 1357.37 198.916 Q1357.37 201.879 1355.68 203.939 Q1354.01 205.999 1351.03 206.74 Q1354.41 207.527 1356.28 209.819 Q1358.18 212.11 1358.18 215.421 Q1358.18 220.444 1355.1 223.129 Q1352.04 225.814 1346.33 225.814 Q1340.61 225.814 1337.53 223.129 Q1334.48 220.444 1334.48 215.421 Q1334.48 212.11 1336.37 209.819 Q1338.27 207.527 1341.65 206.74 M1339.94 199.356 Q1339.94 202.041 1341.61 203.546 Q1343.29 205.05 1346.33 205.05 Q1349.34 205.05 1351.03 203.546 Q1352.74 202.041 1352.74 199.356 Q1352.74 196.671 1351.03 195.166 Q1349.34 193.661 1346.33 193.661 Q1343.29 193.661 1341.61 195.166 Q1339.94 196.671 1339.94 199.356 Z" fill="#000000" fill-rule="nonzero" fill-opacity="1" /><polyline clip-path="url(#clip343)" style="stroke:#009af9; stroke-linecap:round; stroke-linejoin:round; stroke-width:4; stroke-opacity:1; fill:none" points="1421.31,160.739 1432.76,177.101 1444.2,242.951 1455.65,295.706 1467.1,353.989 1478.54,478.879 1489.99,579.966 1501.44,623.839 1512.89,661.641 1524.33,746.705 1535.78,821.907 1547.23,846.446 1558.67,824.038 1570.12,724.198 1581.57,595.084 1593.01,518.076 1604.46,526.533 1615.91,485.09 1627.36,465.361 1638.8,459.884 1650.25,465.507 1661.7,536.231 1673.14,570.992 1684.59,548.463 1696.04,578.904 1707.49,586.545 1718.93,616.056 1730.38,679.538 1741.83,711.582 1753.27,698.967 1764.72,695.942 1776.17,698.942 1787.61,706.922 1799.06,657.604 1810.51,563.44 1821.96,535.462 1833.4,502.294 1844.85,495.218 1856.3,566.115 1867.74,646.913 1879.19,662.881 1890.64,631.503 1902.09,590.941 1913.53,637.021 1924.98,648.059 1936.43,698.515 1947.87,735.812 1959.32,843.171 1970.77,971.769 1982.21,1052 1993.66,1209.99 2005.11,1263.84 2016.56,1292.75 2028,1228.77 2039.45,1181.69 2050.9,1123.39 2062.34,1089.85 2073.79,1035.55 2085.24,960.741 2096.69,871.092 2108.13,765.224 2119.58,736.811 2131.03,700.792 2142.47,625.279 2153.92,539.944 2165.37,535.286 2176.81,519.129 2188.26,485.503 2199.71,419.944 2211.16,361.252 2222.6,330.314 2234.05,331.993 2245.5,292.681 2256.94,225.747 2268.39,248.36 2279.84,291.114 2291.29,337.35 2302.73,373.38 2314.18,448.525 2325.63,536.438 "/>
<polyline clip-path="url(#clip343)" style="stroke:#e26f46; stroke-linecap:round; stroke-linejoin:round; stroke-width:4; stroke-opacity:1; fill:none" points="1421.31,155.033 1432.76,156.796 1444.2,209.676 1455.65,283.667 1467.1,322.972 1478.54,456.473 1489.99,543.539 1501.44,608.939 1512.89,664.105 1524.33,751.048 1535.78,826.106 1547.23,850.136 1558.67,835.803 1570.12,728.477 1581.57,600.226 1593.01,528.502 1604.46,531.911 1615.91,482.304 1627.36,471.053 1638.8,455.694 1650.25,463.153 1661.7,531.254 1673.14,571.801 1684.59,559.799 1696.04,578.145 1707.49,584.863 1718.93,605.683 1730.38,672.853 1741.83,710.747 1753.27,697.968 1764.72,717.442 1776.17,710.039 1787.61,722.366 1799.06,676.662 1810.51,581.658 1821.96,568.865 1833.4,540.182 1844.85,529.368 1856.3,609.731 1867.74,687.467 1879.19,697.918 1890.64,657.071 1902.09,606.163 1913.53,646.139 1924.98,652.45 1936.43,707.557 1947.87,746.909 1959.32,845.653 1970.77,986.499 1982.21,1055.23 1993.66,1212.4 2005.11,1263.94 2016.56,1287.12 2028,1233.46 2039.45,1182.79 2050.9,1115.27 2062.34,1085.93 2073.79,1042.64 2085.24,946.265 2096.69,862.378 2108.13,768.238 2119.58,738.314 2131.03,695.762 2142.47,618.639 2153.92,540.048 2165.37,551.099 2176.81,541.806 2188.26,512.094 2199.71,449.42 2211.16,381.139 2222.6,335.431 2234.05,334.541 2245.5,304.818 2256.94,251.837 2268.39,255.007 2279.84,291.244 2291.29,337.879 2302.73,375.183 2314.18,445.531 2325.63,532.227 "/>
<polyline clip-path="url(#clip343)" style="stroke:#3da44d; stroke-linecap:round; stroke-linejoin:round; stroke-width:4; stroke-opacity:1; fill:none" points="1421.31,201.198 1432.76,87.9763 1444.2,150.185 1455.65,224.941 1467.1,441.276 1478.54,560.489 1489.99,501.421 1501.44,613.216 1512.89,595.565 1524.33,725.601 1535.78,785.464 1547.23,857.208 1558.67,897.384 1570.12,755.819 1581.57,499.357 1593.01,562.977 1604.46,492.047 1615.91,456.609 1627.36,470.135 1638.8,378.399 1650.25,515.829 1661.7,631.283 1673.14,544.753 1684.59,592.032 1696.04,649.49 1707.49,579.061 1718.93,652.076 1730.38,829.409 1741.83,837.57 1753.27,820.353 1764.72,756.85 1776.17,811.262 1787.61,799.46 1799.06,708.294 1810.51,562.034 1821.96,610.917 1833.4,513.521 1844.85,402.085 1856.3,619.385 1867.74,622.427 1879.19,713.543 1890.64,791.869 1902.09,584.577 1913.53,587.533 1924.98,650.609 1936.43,680.681 1947.87,610.408 1959.32,827.521 1970.77,1082.44 1982.21,1187.19 1993.66,1342.58 2005.11,1445.72 2016.56,1383.72 2028,1398.79 2039.45,1284.76 2050.9,1138.26 2062.34,978.557 2073.79,878.568 2085.24,892.796 2096.69,723.401 2108.13,704.387 2119.58,620.17 2131.03,578.198 2142.47,600.732 2153.92,331.868 2165.37,390.908 2176.81,370.635 2188.26,332.905 2199.71,286.372 2211.16,156.221 2222.6,254.929 2234.05,263.673 2245.5,252.234 2256.94,206.036 2268.39,238.201 2279.84,326.683 2291.29,418.852 2302.73,398.452 2314.18,588.097 2325.63,486.418 "/>
<path clip-path="url(#clip340)" d="M1863.28 1438.47 L2320.8 1438.47 L2320.8 1231.11 L1863.28 1231.11  Z" fill="#ffffff" fill-rule="evenodd" fill-opacity="1"/>
<polyline clip-path="url(#clip340)" style="stroke:#000000; stroke-linecap:round; stroke-linejoin:round; stroke-width:4; stroke-opacity:1; fill:none" points="1863.28,1438.47 2320.8,1438.47 2320.8,1231.11 1863.28,1231.11 1863.28,1438.47 "/>
<polyline clip-path="url(#clip340)" style="stroke:#009af9; stroke-linecap:round; stroke-linejoin:round; stroke-width:4; stroke-opacity:1; fill:none" points="1873.93,1282.95 1937.84,1282.95 "/>
<path clip-path="url(#clip340)" d="M1948.49 1265.67 L1953.16 1265.67 L1953.16 1280.28 L1968.67 1265.67 L1974.69 1265.67 L1957.54 1281.79 L1975.92 1300.23 L1969.76 1300.23 L1953.16 1283.59 L1953.16 1300.23 L1948.49 1300.23 L1948.49 1265.67 Z" fill="#000000" fill-rule="nonzero" fill-opacity="1" /><path clip-path="url(#clip340)" d="M1990.34 1287.2 Q1985.18 1287.2 1983.19 1288.38 Q1981.2 1289.56 1981.2 1292.41 Q1981.2 1294.68 1982.68 1296.02 Q1984.18 1297.34 1986.75 1297.34 Q1990.29 1297.34 1992.42 1294.84 Q1994.58 1292.32 1994.58 1288.15 L1994.58 1287.2 L1990.34 1287.2 M1998.83 1285.44 L1998.83 1300.23 L1994.58 1300.23 L1994.58 1296.3 Q1993.12 1298.66 1990.94 1299.79 Q1988.77 1300.91 1985.62 1300.91 Q1981.64 1300.91 1979.27 1298.68 Q1976.94 1296.44 1976.94 1292.69 Q1976.94 1288.31 1979.85 1286.09 Q1982.79 1283.87 1988.6 1283.87 L1994.58 1283.87 L1994.58 1283.45 Q1994.58 1280.51 1992.63 1278.92 Q1990.71 1277.29 1987.21 1277.29 Q1984.99 1277.29 1982.89 1277.83 Q1980.78 1278.36 1978.83 1279.42 L1978.83 1275.49 Q1981.17 1274.59 1983.37 1274.15 Q1985.57 1273.68 1987.65 1273.68 Q1993.28 1273.68 1996.06 1276.6 Q1998.83 1279.52 1998.83 1285.44 Z" fill="#000000" fill-rule="nonzero" fill-opacity="1" /><path clip-path="url(#clip340)" d="M2007.61 1264.22 L2011.87 1264.22 L2011.87 1300.23 L2007.61 1300.23 L2007.61 1264.22 Z" fill="#000000" fill-rule="nonzero" fill-opacity="1" /><path clip-path="url(#clip340)" d="M2040.96 1279.29 Q2042.56 1276.42 2044.78 1275.05 Q2047.01 1273.68 2050.01 1273.68 Q2054.07 1273.68 2056.26 1276.53 Q2058.46 1279.35 2058.46 1284.59 L2058.46 1300.23 L2054.18 1300.23 L2054.18 1284.73 Q2054.18 1281 2052.86 1279.19 Q2051.54 1277.39 2048.83 1277.39 Q2045.52 1277.39 2043.6 1279.59 Q2041.68 1281.79 2041.68 1285.58 L2041.68 1300.23 L2037.4 1300.23 L2037.4 1284.73 Q2037.4 1280.98 2036.08 1279.19 Q2034.76 1277.39 2032.01 1277.39 Q2028.74 1277.39 2026.82 1279.61 Q2024.9 1281.81 2024.9 1285.58 L2024.9 1300.23 L2020.62 1300.23 L2020.62 1274.31 L2024.9 1274.31 L2024.9 1278.34 Q2026.36 1275.95 2028.39 1274.82 Q2030.43 1273.68 2033.23 1273.68 Q2036.06 1273.68 2038.02 1275.12 Q2040.02 1276.55 2040.96 1279.29 Z" fill="#000000" fill-rule="nonzero" fill-opacity="1" /><path clip-path="url(#clip340)" d="M2078.74 1287.2 Q2073.58 1287.2 2071.59 1288.38 Q2069.6 1289.56 2069.6 1292.41 Q2069.6 1294.68 2071.08 1296.02 Q2072.58 1297.34 2075.15 1297.34 Q2078.7 1297.34 2080.83 1294.84 Q2082.98 1292.32 2082.98 1288.15 L2082.98 1287.2 L2078.74 1287.2 M2087.24 1285.44 L2087.24 1300.23 L2082.98 1300.23 L2082.98 1296.3 Q2081.52 1298.66 2079.34 1299.79 Q2077.17 1300.91 2074.02 1300.91 Q2070.04 1300.91 2067.68 1298.68 Q2065.34 1296.44 2065.34 1292.69 Q2065.34 1288.31 2068.26 1286.09 Q2071.2 1283.87 2077.01 1283.87 L2082.98 1283.87 L2082.98 1283.45 Q2082.98 1280.51 2081.03 1278.92 Q2079.11 1277.29 2075.62 1277.29 Q2073.39 1277.29 2071.29 1277.83 Q2069.18 1278.36 2067.24 1279.42 L2067.24 1275.49 Q2069.58 1274.59 2071.77 1274.15 Q2073.97 1273.68 2076.06 1273.68 Q2081.68 1273.68 2084.46 1276.6 Q2087.24 1279.52 2087.24 1285.44 Z" fill="#000000" fill-rule="nonzero" fill-opacity="1" /><path clip-path="url(#clip340)" d="M2117.56 1284.59 L2117.56 1300.23 L2113.3 1300.23 L2113.3 1284.73 Q2113.3 1281.04 2111.87 1279.22 Q2110.43 1277.39 2107.56 1277.39 Q2104.11 1277.39 2102.12 1279.59 Q2100.13 1281.79 2100.13 1285.58 L2100.13 1300.23 L2095.85 1300.23 L2095.85 1274.31 L2100.13 1274.31 L2100.13 1278.34 Q2101.66 1276 2103.72 1274.84 Q2105.8 1273.68 2108.51 1273.68 Q2112.98 1273.68 2115.27 1276.46 Q2117.56 1279.22 2117.56 1284.59 Z" fill="#000000" fill-rule="nonzero" fill-opacity="1" /><path clip-path="url(#clip340)" d="M2157.65 1275.07 L2157.65 1279.1 Q2155.85 1278.17 2153.9 1277.71 Q2151.96 1277.25 2149.88 1277.25 Q2146.7 1277.25 2145.11 1278.22 Q2143.53 1279.19 2143.53 1281.14 Q2143.53 1282.62 2144.67 1283.48 Q2145.8 1284.31 2149.23 1285.07 L2150.69 1285.4 Q2155.22 1286.37 2157.12 1288.15 Q2159.04 1289.91 2159.04 1293.08 Q2159.04 1296.69 2156.17 1298.8 Q2153.32 1300.91 2148.32 1300.91 Q2146.24 1300.91 2143.97 1300.49 Q2141.73 1300.1 2139.23 1299.29 L2139.23 1294.89 Q2141.59 1296.11 2143.88 1296.74 Q2146.17 1297.34 2148.42 1297.34 Q2151.43 1297.34 2153.05 1296.32 Q2154.67 1295.28 2154.67 1293.41 Q2154.67 1291.67 2153.49 1290.74 Q2152.33 1289.82 2148.37 1288.96 L2146.89 1288.61 Q2142.93 1287.78 2141.17 1286.07 Q2139.41 1284.33 2139.41 1281.32 Q2139.41 1277.67 2142.01 1275.67 Q2144.6 1273.68 2149.37 1273.68 Q2151.73 1273.68 2153.81 1274.03 Q2155.89 1274.38 2157.65 1275.07 Z" fill="#000000" fill-rule="nonzero" fill-opacity="1" /><path clip-path="url(#clip340)" d="M2186.01 1279.29 Q2187.61 1276.42 2189.83 1275.05 Q2192.05 1273.68 2195.06 1273.68 Q2199.11 1273.68 2201.31 1276.53 Q2203.51 1279.35 2203.51 1284.59 L2203.51 1300.23 L2199.23 1300.23 L2199.23 1284.73 Q2199.23 1281 2197.91 1279.19 Q2196.59 1277.39 2193.88 1277.39 Q2190.57 1277.39 2188.65 1279.59 Q2186.73 1281.79 2186.73 1285.58 L2186.73 1300.23 L2182.44 1300.23 L2182.44 1284.73 Q2182.44 1280.98 2181.13 1279.19 Q2179.81 1277.39 2177.05 1277.39 Q2173.79 1277.39 2171.87 1279.61 Q2169.94 1281.81 2169.94 1285.58 L2169.94 1300.23 L2165.66 1300.23 L2165.66 1274.31 L2169.94 1274.31 L2169.94 1278.34 Q2171.4 1275.95 2173.44 1274.82 Q2175.48 1273.68 2178.28 1273.68 Q2181.1 1273.68 2183.07 1275.12 Q2185.06 1276.55 2186.01 1279.29 Z" fill="#000000" fill-rule="nonzero" fill-opacity="1" /><path clip-path="url(#clip340)" d="M2222.05 1277.29 Q2218.63 1277.29 2216.63 1279.98 Q2214.64 1282.64 2214.64 1287.29 Q2214.64 1291.95 2216.61 1294.63 Q2218.6 1297.29 2222.05 1297.29 Q2225.45 1297.29 2227.44 1294.61 Q2229.44 1291.92 2229.44 1287.29 Q2229.44 1282.69 2227.44 1280 Q2225.45 1277.29 2222.05 1277.29 M2222.05 1273.68 Q2227.61 1273.68 2230.78 1277.29 Q2233.95 1280.91 2233.95 1287.29 Q2233.95 1293.66 2230.78 1297.29 Q2227.61 1300.91 2222.05 1300.91 Q2216.47 1300.91 2213.3 1297.29 Q2210.15 1293.66 2210.15 1287.29 Q2210.15 1280.91 2213.3 1277.29 Q2216.47 1273.68 2222.05 1273.68 Z" fill="#000000" fill-rule="nonzero" fill-opacity="1" /><path clip-path="url(#clip340)" d="M2251.06 1277.29 Q2247.63 1277.29 2245.64 1279.98 Q2243.65 1282.64 2243.65 1287.29 Q2243.65 1291.95 2245.62 1294.63 Q2247.61 1297.29 2251.06 1297.29 Q2254.46 1297.29 2256.45 1294.61 Q2258.44 1291.92 2258.44 1287.29 Q2258.44 1282.69 2256.45 1280 Q2254.46 1277.29 2251.06 1277.29 M2251.06 1273.68 Q2256.61 1273.68 2259.78 1277.29 Q2262.95 1280.91 2262.95 1287.29 Q2262.95 1293.66 2259.78 1297.29 Q2256.61 1300.91 2251.06 1300.91 Q2245.48 1300.91 2242.31 1297.29 Q2239.16 1293.66 2239.16 1287.29 Q2239.16 1280.91 2242.31 1277.29 Q2245.48 1273.68 2251.06 1273.68 Z" fill="#000000" fill-rule="nonzero" fill-opacity="1" /><path clip-path="url(#clip340)" d="M2274.23 1266.95 L2274.23 1274.31 L2283 1274.31 L2283 1277.62 L2274.23 1277.62 L2274.23 1291.69 Q2274.23 1294.86 2275.08 1295.77 Q2275.96 1296.67 2278.62 1296.67 L2283 1296.67 L2283 1300.23 L2278.62 1300.23 Q2273.69 1300.23 2271.82 1298.41 Q2269.94 1296.55 2269.94 1291.69 L2269.94 1277.62 L2266.82 1277.62 L2266.82 1274.31 L2269.94 1274.31 L2269.94 1266.95 L2274.23 1266.95 Z" fill="#000000" fill-rule="nonzero" fill-opacity="1" /><path clip-path="url(#clip340)" d="M2310.15 1284.59 L2310.15 1300.23 L2305.89 1300.23 L2305.89 1284.73 Q2305.89 1281.04 2304.46 1279.22 Q2303.02 1277.39 2300.15 1277.39 Q2296.7 1277.39 2294.71 1279.59 Q2292.72 1281.79 2292.72 1285.58 L2292.72 1300.23 L2288.44 1300.23 L2288.44 1264.22 L2292.72 1264.22 L2292.72 1278.34 Q2294.25 1276 2296.31 1274.84 Q2298.39 1273.68 2301.1 1273.68 Q2305.57 1273.68 2307.86 1276.46 Q2310.15 1279.22 2310.15 1284.59 Z" fill="#000000" fill-rule="nonzero" fill-opacity="1" /><polyline clip-path="url(#clip340)" style="stroke:#e26f46; stroke-linecap:round; stroke-linejoin:round; stroke-width:4; stroke-opacity:1; fill:none" points="1873.93,1334.79 1937.84,1334.79 "/>
<path clip-path="url(#clip340)" d="M1952.77 1348.19 L1952.77 1361.94 L1948.49 1361.94 L1948.49 1326.15 L1952.77 1326.15 L1952.77 1330.08 Q1954.11 1327.77 1956.15 1326.66 Q1958.21 1325.52 1961.06 1325.52 Q1965.78 1325.52 1968.72 1329.27 Q1971.68 1333.02 1971.68 1339.13 Q1971.68 1345.25 1968.72 1349 Q1965.78 1352.75 1961.06 1352.75 Q1958.21 1352.75 1956.15 1351.63 Q1954.11 1350.5 1952.77 1348.19 M1967.26 1339.13 Q1967.26 1334.44 1965.32 1331.77 Q1963.4 1329.09 1960.02 1329.09 Q1956.64 1329.09 1954.69 1331.77 Q1952.77 1334.44 1952.77 1339.13 Q1952.77 1343.83 1954.69 1346.52 Q1956.64 1349.18 1960.02 1349.18 Q1963.4 1349.18 1965.32 1346.52 Q1967.26 1343.83 1967.26 1339.13 Z" fill="#000000" fill-rule="nonzero" fill-opacity="1" /><path clip-path="url(#clip340)" d="M1991.87 1316.06 L1991.87 1319.6 L1987.79 1319.6 Q1985.5 1319.6 1984.6 1320.52 Q1983.72 1321.45 1983.72 1323.86 L1983.72 1326.15 L1990.73 1326.15 L1990.73 1329.46 L1983.72 1329.46 L1983.72 1352.07 L1979.44 1352.07 L1979.44 1329.46 L1975.36 1329.46 L1975.36 1326.15 L1979.44 1326.15 L1979.44 1324.34 Q1979.44 1320.01 1981.45 1318.05 Q1983.46 1316.06 1987.84 1316.06 L1991.87 1316.06 Z" fill="#000000" fill-rule="nonzero" fill-opacity="1" /><path clip-path="url(#clip340)" d="M2027.03 1326.91 L2027.03 1330.94 Q2025.22 1330.01 2023.28 1329.55 Q2021.33 1329.09 2019.25 1329.09 Q2016.08 1329.09 2014.48 1330.06 Q2012.91 1331.03 2012.91 1332.98 Q2012.91 1334.46 2014.04 1335.32 Q2015.18 1336.15 2018.6 1336.91 L2020.06 1337.24 Q2024.6 1338.21 2026.5 1339.99 Q2028.42 1341.75 2028.42 1344.92 Q2028.42 1348.53 2025.55 1350.64 Q2022.7 1352.75 2017.7 1352.75 Q2015.62 1352.75 2013.35 1352.33 Q2011.1 1351.94 2008.6 1351.13 L2008.6 1346.73 Q2010.96 1347.95 2013.26 1348.58 Q2015.55 1349.18 2017.79 1349.18 Q2020.8 1349.18 2022.42 1348.16 Q2024.04 1347.12 2024.04 1345.25 Q2024.04 1343.51 2022.86 1342.58 Q2021.7 1341.66 2017.75 1340.8 L2016.27 1340.45 Q2012.31 1339.62 2010.55 1337.91 Q2008.79 1336.17 2008.79 1333.16 Q2008.79 1329.51 2011.38 1327.51 Q2013.97 1325.52 2018.74 1325.52 Q2021.1 1325.52 2023.19 1325.87 Q2025.27 1326.22 2027.03 1326.91 Z" fill="#000000" fill-rule="nonzero" fill-opacity="1" /><path clip-path="url(#clip340)" d="M2055.39 1331.13 Q2056.98 1328.26 2059.2 1326.89 Q2061.43 1325.52 2064.44 1325.52 Q2068.49 1325.52 2070.69 1328.37 Q2072.89 1331.19 2072.89 1336.43 L2072.89 1352.07 L2068.6 1352.07 L2068.6 1336.57 Q2068.6 1332.84 2067.28 1331.03 Q2065.96 1329.23 2063.26 1329.23 Q2059.95 1329.23 2058.02 1331.43 Q2056.1 1333.63 2056.1 1337.42 L2056.1 1352.07 L2051.82 1352.07 L2051.82 1336.57 Q2051.82 1332.82 2050.5 1331.03 Q2049.18 1329.23 2046.43 1329.23 Q2043.16 1329.23 2041.24 1331.45 Q2039.32 1333.65 2039.32 1337.42 L2039.32 1352.07 L2035.04 1352.07 L2035.04 1326.15 L2039.32 1326.15 L2039.32 1330.18 Q2040.78 1327.79 2042.82 1326.66 Q2044.85 1325.52 2047.65 1325.52 Q2050.48 1325.52 2052.45 1326.96 Q2054.44 1328.39 2055.39 1331.13 Z" fill="#000000" fill-rule="nonzero" fill-opacity="1" /><path clip-path="url(#clip340)" d="M2091.43 1329.13 Q2088 1329.13 2086.01 1331.82 Q2084.02 1334.48 2084.02 1339.13 Q2084.02 1343.79 2085.99 1346.47 Q2087.98 1349.13 2091.43 1349.13 Q2094.83 1349.13 2096.82 1346.45 Q2098.81 1343.76 2098.81 1339.13 Q2098.81 1334.53 2096.82 1331.84 Q2094.83 1329.13 2091.43 1329.13 M2091.43 1325.52 Q2096.98 1325.52 2100.15 1329.13 Q2103.32 1332.75 2103.32 1339.13 Q2103.32 1345.5 2100.15 1349.13 Q2096.98 1352.75 2091.43 1352.75 Q2085.85 1352.75 2082.68 1349.13 Q2079.53 1345.5 2079.53 1339.13 Q2079.53 1332.75 2082.68 1329.13 Q2085.85 1325.52 2091.43 1325.52 Z" fill="#000000" fill-rule="nonzero" fill-opacity="1" /><path clip-path="url(#clip340)" d="M2120.43 1329.13 Q2117.01 1329.13 2115.01 1331.82 Q2113.02 1334.48 2113.02 1339.13 Q2113.02 1343.79 2114.99 1346.47 Q2116.98 1349.13 2120.43 1349.13 Q2123.83 1349.13 2125.82 1346.45 Q2127.82 1343.76 2127.82 1339.13 Q2127.82 1334.53 2125.82 1331.84 Q2123.83 1329.13 2120.43 1329.13 M2120.43 1325.52 Q2125.99 1325.52 2129.16 1329.13 Q2132.33 1332.75 2132.33 1339.13 Q2132.33 1345.5 2129.16 1349.13 Q2125.99 1352.75 2120.43 1352.75 Q2114.85 1352.75 2111.68 1349.13 Q2108.53 1345.5 2108.53 1339.13 Q2108.53 1332.75 2111.68 1329.13 Q2114.85 1325.52 2120.43 1325.52 Z" fill="#000000" fill-rule="nonzero" fill-opacity="1" /><path clip-path="url(#clip340)" d="M2143.6 1318.79 L2143.6 1326.15 L2152.38 1326.15 L2152.38 1329.46 L2143.6 1329.46 L2143.6 1343.53 Q2143.6 1346.7 2144.46 1347.61 Q2145.34 1348.51 2148 1348.51 L2152.38 1348.51 L2152.38 1352.07 L2148 1352.07 Q2143.07 1352.07 2141.2 1350.25 Q2139.32 1348.39 2139.32 1343.53 L2139.32 1329.46 L2136.2 1329.46 L2136.2 1326.15 L2139.32 1326.15 L2139.32 1318.79 L2143.6 1318.79 Z" fill="#000000" fill-rule="nonzero" fill-opacity="1" /><path clip-path="url(#clip340)" d="M2179.53 1336.43 L2179.53 1352.07 L2175.27 1352.07 L2175.27 1336.57 Q2175.27 1332.88 2173.83 1331.06 Q2172.4 1329.23 2169.53 1329.23 Q2166.08 1329.23 2164.09 1331.43 Q2162.1 1333.63 2162.1 1337.42 L2162.1 1352.07 L2157.82 1352.07 L2157.82 1316.06 L2162.1 1316.06 L2162.1 1330.18 Q2163.63 1327.84 2165.69 1326.68 Q2167.77 1325.52 2170.48 1325.52 Q2174.94 1325.52 2177.24 1328.3 Q2179.53 1331.06 2179.53 1336.43 Z" fill="#000000" fill-rule="nonzero" fill-opacity="1" /><polyline clip-path="url(#clip340)" style="stroke:#3da44d; stroke-linecap:round; stroke-linejoin:round; stroke-width:4; stroke-opacity:1; fill:none" points="1873.93,1386.63 1937.84,1386.63 "/>
<path clip-path="url(#clip340)" d="M1955.9 1370.63 L1955.9 1377.99 L1964.67 1377.99 L1964.67 1381.3 L1955.9 1381.3 L1955.9 1395.37 Q1955.9 1398.54 1956.75 1399.45 Q1957.63 1400.35 1960.29 1400.35 L1964.67 1400.35 L1964.67 1403.91 L1960.29 1403.91 Q1955.36 1403.91 1953.49 1402.09 Q1951.61 1400.23 1951.61 1395.37 L1951.61 1381.3 L1948.49 1381.3 L1948.49 1377.99 L1951.61 1377.99 L1951.61 1370.63 L1955.9 1370.63 Z" fill="#000000" fill-rule="nonzero" fill-opacity="1" /><path clip-path="url(#clip340)" d="M1985.29 1381.97 Q1984.58 1381.55 1983.72 1381.37 Q1982.89 1381.16 1981.87 1381.16 Q1978.26 1381.16 1976.31 1383.52 Q1974.39 1385.86 1974.39 1390.26 L1974.39 1403.91 L1970.11 1403.91 L1970.11 1377.99 L1974.39 1377.99 L1974.39 1382.02 Q1975.73 1379.66 1977.89 1378.52 Q1980.04 1377.36 1983.12 1377.36 Q1983.56 1377.36 1984.09 1377.43 Q1984.62 1377.48 1985.27 1377.6 L1985.29 1381.97 Z" fill="#000000" fill-rule="nonzero" fill-opacity="1" /><path clip-path="url(#clip340)" d="M1989.32 1393.68 L1989.32 1377.99 L1993.58 1377.99 L1993.58 1393.52 Q1993.58 1397.2 1995.02 1399.05 Q1996.45 1400.88 1999.32 1400.88 Q2002.77 1400.88 2004.76 1398.68 Q2006.77 1396.48 2006.77 1392.69 L2006.77 1377.99 L2011.03 1377.99 L2011.03 1403.91 L2006.77 1403.91 L2006.77 1399.93 Q2005.22 1402.29 2003.16 1403.45 Q2001.13 1404.59 1998.42 1404.59 Q1993.95 1404.59 1991.64 1401.81 Q1989.32 1399.03 1989.32 1393.68 M2000.04 1377.36 L2000.04 1377.36 Z" fill="#000000" fill-rule="nonzero" fill-opacity="1" /><path clip-path="url(#clip340)" d="M2041.98 1389.89 L2041.98 1391.97 L2022.4 1391.97 Q2022.68 1396.37 2025.04 1398.68 Q2027.42 1400.97 2031.66 1400.97 Q2034.11 1400.97 2036.4 1400.37 Q2038.72 1399.77 2040.99 1398.57 L2040.99 1402.59 Q2038.7 1403.57 2036.29 1404.08 Q2033.88 1404.59 2031.4 1404.59 Q2025.2 1404.59 2021.57 1400.97 Q2017.95 1397.36 2017.95 1391.21 Q2017.95 1384.84 2021.38 1381.11 Q2024.83 1377.36 2030.66 1377.36 Q2035.89 1377.36 2038.93 1380.74 Q2041.98 1384.1 2041.98 1389.89 M2037.72 1388.64 Q2037.68 1385.14 2035.76 1383.06 Q2033.86 1380.97 2030.71 1380.97 Q2027.14 1380.97 2024.99 1382.99 Q2022.86 1385 2022.54 1388.66 L2037.72 1388.64 Z" fill="#000000" fill-rule="nonzero" fill-opacity="1" /></svg>
