<?xml version="1.0" encoding="utf-8"?>
<svg xmlns="http://www.w3.org/2000/svg" xmlns:xlink="http://www.w3.org/1999/xlink" width="600" height="400" viewBox="0 0 2400 1600">
<defs>
  <clipPath id="clip210">
    <rect x="0" y="0" width="2400" height="1600"/>
  </clipPath>
</defs>
<path clip-path="url(#clip210)" d="M0 1600 L2400 1600 L2400 0 L0 0  Z" fill="#ffffff" fill-rule="evenodd" fill-opacity="1"/>
<defs>
  <clipPath id="clip211">
    <rect x="480" y="0" width="1681" height="1600"/>
  </clipPath>
</defs>
<path clip-path="url(#clip210)" d="M239.19 1410.9 L2352.76 1410.9 L2352.76 123.472 L239.19 123.472  Z" fill="#ffffff" fill-rule="evenodd" fill-opacity="1"/>
<defs>
  <clipPath id="clip212">
    <rect x="239" y="123" width="2115" height="1288"/>
  </clipPath>
</defs>
<polyline clip-path="url(#clip212)" style="stroke:#000000; stroke-linecap:round; stroke-linejoin:round; stroke-width:2; stroke-opacity:0.1; fill:none" points="1096.58,1410.9 1096.58,123.472 "/>
<polyline clip-path="url(#clip212)" style="stroke:#000000; stroke-linecap:round; stroke-linejoin:round; stroke-width:2; stroke-opacity:0.1; fill:none" points="2093.55,1410.9 2093.55,123.472 "/>
<polyline clip-path="url(#clip210)" style="stroke:#000000; stroke-linecap:round; stroke-linejoin:round; stroke-width:4; stroke-opacity:1; fill:none" points="239.19,1410.9 2352.76,1410.9 "/>
<polyline clip-path="url(#clip210)" style="stroke:#000000; stroke-linecap:round; stroke-linejoin:round; stroke-width:4; stroke-opacity:1; fill:none" points="1096.58,1410.9 1096.58,1392 "/>
<polyline clip-path="url(#clip210)" style="stroke:#000000; stroke-linecap:round; stroke-linejoin:round; stroke-width:4; stroke-opacity:1; fill:none" points="2093.55,1410.9 2093.55,1392 "/>
<path clip-path="url(#clip210)" d="M1061.56 1485.02 L1069.2 1485.02 L1069.2 1458.66 L1060.89 1460.32 L1060.89 1456.06 L1069.16 1454.4 L1073.83 1454.4 L1073.83 1485.02 L1081.47 1485.02 L1081.47 1488.96 L1061.56 1488.96 L1061.56 1485.02 Z" fill="#000000" fill-rule="nonzero" fill-opacity="1" /><path clip-path="url(#clip210)" d="M1100.91 1457.48 Q1097.3 1457.48 1095.47 1461.04 Q1093.67 1464.58 1093.67 1471.71 Q1093.67 1478.82 1095.47 1482.38 Q1097.3 1485.92 1100.91 1485.92 Q1104.55 1485.92 1106.35 1482.38 Q1108.18 1478.82 1108.18 1471.71 Q1108.18 1464.58 1106.35 1461.04 Q1104.55 1457.48 1100.91 1457.48 M1100.91 1453.77 Q1106.72 1453.77 1109.78 1458.38 Q1112.86 1462.96 1112.86 1471.71 Q1112.86 1480.44 1109.78 1485.04 Q1106.72 1489.63 1100.91 1489.63 Q1095.1 1489.63 1092.03 1485.04 Q1088.97 1480.44 1088.97 1471.71 Q1088.97 1462.96 1092.03 1458.38 Q1095.1 1453.77 1100.91 1453.77 Z" fill="#000000" fill-rule="nonzero" fill-opacity="1" /><path clip-path="url(#clip210)" d="M1122.56 1435.97 Q1119.63 1435.97 1118.14 1438.86 Q1116.68 1441.74 1116.68 1447.53 Q1116.68 1453.31 1118.14 1456.2 Q1119.63 1459.08 1122.56 1459.08 Q1125.52 1459.08 1126.98 1456.2 Q1128.47 1453.31 1128.47 1447.53 Q1128.47 1441.74 1126.98 1438.86 Q1125.52 1435.97 1122.56 1435.97 M1122.56 1432.96 Q1127.28 1432.96 1129.77 1436.7 Q1132.27 1440.43 1132.27 1447.53 Q1132.27 1454.62 1129.77 1458.37 Q1127.28 1462.09 1122.56 1462.09 Q1117.84 1462.09 1115.34 1458.37 Q1112.86 1454.62 1112.86 1447.53 Q1112.86 1440.43 1115.34 1436.7 Q1117.84 1432.96 1122.56 1432.96 Z" fill="#000000" fill-rule="nonzero" fill-opacity="1" /><path clip-path="url(#clip210)" d="M2059.87 1485.02 L2067.51 1485.02 L2067.51 1458.66 L2059.2 1460.32 L2059.2 1456.06 L2067.47 1454.4 L2072.14 1454.4 L2072.14 1485.02 L2079.78 1485.02 L2079.78 1488.96 L2059.87 1488.96 L2059.87 1485.02 Z" fill="#000000" fill-rule="nonzero" fill-opacity="1" /><path clip-path="url(#clip210)" d="M2099.22 1457.48 Q2095.61 1457.48 2093.78 1461.04 Q2091.98 1464.58 2091.98 1471.71 Q2091.98 1478.82 2093.78 1482.38 Q2095.61 1485.92 2099.22 1485.92 Q2102.86 1485.92 2104.66 1482.38 Q2106.49 1478.82 2106.49 1471.71 Q2106.49 1464.58 2104.66 1461.04 Q2102.86 1457.48 2099.22 1457.48 M2099.22 1453.77 Q2105.03 1453.77 2108.09 1458.38 Q2111.17 1462.96 2111.17 1471.71 Q2111.17 1480.44 2108.09 1485.04 Q2105.03 1489.63 2099.22 1489.63 Q2093.41 1489.63 2090.34 1485.04 Q2087.28 1480.44 2087.28 1471.71 Q2087.28 1462.96 2090.34 1458.38 Q2093.41 1453.77 2099.22 1453.77 Z" fill="#000000" fill-rule="nonzero" fill-opacity="1" /><path clip-path="url(#clip210)" d="M2111.71 1458.35 L2117.92 1458.35 L2117.92 1436.93 L2111.17 1438.28 L2111.17 1434.82 L2117.88 1433.47 L2121.68 1433.47 L2121.68 1458.35 L2127.89 1458.35 L2127.89 1461.55 L2111.71 1461.55 L2111.71 1458.35 Z" fill="#000000" fill-rule="nonzero" fill-opacity="1" /><path clip-path="url(#clip210)" d="M733.834 1531.95 L733.834 1568.9 L741.6 1568.9 Q751.435 1568.9 755.986 1564.45 Q760.569 1559.99 760.569 1550.38 Q760.569 1540.83 755.986 1536.4 Q751.435 1531.95 741.6 1531.95 L733.834 1531.95 M727.404 1526.67 L740.613 1526.67 Q754.427 1526.67 760.888 1532.43 Q767.349 1538.16 767.349 1550.38 Q767.349 1562.66 760.856 1568.42 Q754.363 1574.19 740.613 1574.19 L727.404 1574.19 L727.404 1526.67 Z" fill="#000000" fill-rule="nonzero" fill-opacity="1" /><path clip-path="url(#clip210)" d="M792.175 1577.5 Q789.693 1583.86 787.337 1585.8 Q784.982 1587.74 781.035 1587.74 L776.356 1587.74 L776.356 1582.84 L779.794 1582.84 Q782.213 1582.84 783.55 1581.7 Q784.886 1580.55 786.51 1576.29 L787.56 1573.61 L773.142 1538.54 L779.348 1538.54 L790.488 1566.42 L801.628 1538.54 L807.835 1538.54 L792.175 1577.5 Z" fill="#000000" fill-rule="nonzero" fill-opacity="1" /><path clip-path="url(#clip210)" d="M845.552 1552.67 L845.552 1574.19 L839.695 1574.19 L839.695 1552.86 Q839.695 1547.8 837.722 1545.29 Q835.748 1542.77 831.802 1542.77 Q827.059 1542.77 824.322 1545.79 Q821.585 1548.82 821.585 1554.04 L821.585 1574.19 L815.696 1574.19 L815.696 1538.54 L821.585 1538.54 L821.585 1544.08 Q823.685 1540.86 826.518 1539.27 Q829.383 1537.68 833.107 1537.68 Q839.25 1537.68 842.401 1541.5 Q845.552 1545.29 845.552 1552.67 Z" fill="#000000" fill-rule="nonzero" fill-opacity="1" /><path clip-path="url(#clip210)" d="M873.433 1556.27 Q866.336 1556.27 863.598 1557.89 Q860.861 1559.51 860.861 1563.43 Q860.861 1566.55 862.898 1568.39 Q864.967 1570.21 868.5 1570.21 Q873.37 1570.21 876.298 1566.77 Q879.258 1563.3 879.258 1557.57 L879.258 1556.27 L873.433 1556.27 M885.115 1553.85 L885.115 1574.19 L879.258 1574.19 L879.258 1568.77 Q877.253 1572.02 874.261 1573.58 Q871.269 1575.11 866.94 1575.11 Q861.466 1575.11 858.219 1572.05 Q855.005 1568.97 855.005 1563.81 Q855.005 1557.79 859.015 1554.74 Q863.057 1551.68 871.046 1551.68 L879.258 1551.68 L879.258 1551.11 Q879.258 1547.07 876.584 1544.87 Q873.943 1542.64 869.137 1542.64 Q866.081 1542.64 863.185 1543.38 Q860.288 1544.11 857.615 1545.57 L857.615 1540.16 Q860.829 1538.92 863.853 1538.31 Q866.877 1537.68 869.741 1537.68 Q877.476 1537.68 881.295 1541.69 Q885.115 1545.7 885.115 1553.85 Z" fill="#000000" fill-rule="nonzero" fill-opacity="1" /><path clip-path="url(#clip210)" d="M924.932 1545.38 Q927.128 1541.43 930.184 1539.56 Q933.239 1537.68 937.377 1537.68 Q942.947 1537.68 945.971 1541.59 Q948.994 1545.48 948.994 1552.67 L948.994 1574.19 L943.106 1574.19 L943.106 1552.86 Q943.106 1547.74 941.292 1545.25 Q939.478 1542.77 935.754 1542.77 Q931.202 1542.77 928.56 1545.79 Q925.919 1548.82 925.919 1554.04 L925.919 1574.19 L920.03 1574.19 L920.03 1552.86 Q920.03 1547.7 918.216 1545.25 Q916.402 1542.77 912.614 1542.77 Q908.127 1542.77 905.485 1545.83 Q902.843 1548.85 902.843 1554.04 L902.843 1574.19 L896.955 1574.19 L896.955 1538.54 L902.843 1538.54 L902.843 1544.08 Q904.848 1540.8 907.649 1539.24 Q910.45 1537.68 914.301 1537.68 Q918.184 1537.68 920.89 1539.65 Q923.627 1541.62 924.932 1545.38 Z" fill="#000000" fill-rule="nonzero" fill-opacity="1" /><path clip-path="url(#clip210)" d="M960.675 1538.54 L966.532 1538.54 L966.532 1574.19 L960.675 1574.19 L960.675 1538.54 M960.675 1524.66 L966.532 1524.66 L966.532 1532.08 L960.675 1532.08 L960.675 1524.66 Z" fill="#000000" fill-rule="nonzero" fill-opacity="1" /><path clip-path="url(#clip210)" d="M1004.44 1539.91 L1004.44 1545.38 Q1001.96 1544.01 999.443 1543.34 Q996.96 1542.64 994.414 1542.64 Q988.716 1542.64 985.565 1546.27 Q982.414 1549.87 982.414 1556.39 Q982.414 1562.92 985.565 1566.55 Q988.716 1570.14 994.414 1570.14 Q996.96 1570.14 999.443 1569.47 Q1001.96 1568.77 1004.44 1567.41 L1004.44 1572.82 Q1001.99 1573.96 999.347 1574.54 Q996.737 1575.11 993.777 1575.11 Q985.725 1575.11 980.982 1570.05 Q976.24 1564.99 976.24 1556.39 Q976.24 1547.67 981.014 1542.68 Q985.82 1537.68 994.159 1537.68 Q996.865 1537.68 999.443 1538.25 Q1002.02 1538.79 1004.44 1539.91 Z" fill="#000000" fill-rule="nonzero" fill-opacity="1" /><path clip-path="url(#clip210)" d="M1037.35 1539.59 L1037.35 1545.13 Q1034.87 1543.85 1032.19 1543.22 Q1029.52 1542.58 1026.66 1542.58 Q1022.3 1542.58 1020.1 1543.92 Q1017.93 1545.25 1017.93 1547.93 Q1017.93 1549.96 1019.49 1551.14 Q1021.05 1552.29 1025.76 1553.34 L1027.77 1553.78 Q1034.01 1555.12 1036.62 1557.57 Q1039.26 1559.99 1039.26 1564.35 Q1039.26 1569.32 1035.31 1572.21 Q1031.4 1575.11 1024.52 1575.11 Q1021.66 1575.11 1018.54 1574.54 Q1015.45 1573.99 1012.01 1572.88 L1012.01 1566.83 Q1015.26 1568.52 1018.41 1569.38 Q1021.56 1570.21 1024.65 1570.21 Q1028.79 1570.21 1031.02 1568.81 Q1033.24 1567.37 1033.24 1564.8 Q1033.24 1562.41 1031.62 1561.14 Q1030.03 1559.86 1024.59 1558.68 L1022.55 1558.21 Q1017.11 1557.06 1014.69 1554.71 Q1012.27 1552.32 1012.27 1548.18 Q1012.27 1543.15 1015.83 1540.42 Q1019.4 1537.68 1025.96 1537.68 Q1029.2 1537.68 1032.07 1538.16 Q1034.93 1538.63 1037.35 1539.59 Z" fill="#000000" fill-rule="nonzero" fill-opacity="1" /><path clip-path="url(#clip210)" d="M1098.94 1552.67 L1098.94 1574.19 L1093.08 1574.19 L1093.08 1552.86 Q1093.08 1547.8 1091.11 1545.29 Q1089.14 1542.77 1085.19 1542.77 Q1080.45 1542.77 1077.71 1545.79 Q1074.97 1548.82 1074.97 1554.04 L1074.97 1574.19 L1069.08 1574.19 L1069.08 1538.54 L1074.97 1538.54 L1074.97 1544.08 Q1077.07 1540.86 1079.91 1539.27 Q1082.77 1537.68 1086.49 1537.68 Q1092.64 1537.68 1095.79 1541.5 Q1098.94 1545.29 1098.94 1552.67 Z" fill="#000000" fill-rule="nonzero" fill-opacity="1" /><path clip-path="url(#clip210)" d="M1124.43 1542.64 Q1119.72 1542.64 1116.99 1546.34 Q1114.25 1550 1114.25 1556.39 Q1114.25 1562.79 1116.95 1566.48 Q1119.69 1570.14 1124.43 1570.14 Q1129.11 1570.14 1131.85 1566.45 Q1134.59 1562.76 1134.59 1556.39 Q1134.59 1550.06 1131.85 1546.37 Q1129.11 1542.64 1124.43 1542.64 M1124.43 1537.68 Q1132.07 1537.68 1136.43 1542.64 Q1140.79 1547.61 1140.79 1556.39 Q1140.79 1565.15 1136.43 1570.14 Q1132.07 1575.11 1124.43 1575.11 Q1116.76 1575.11 1112.4 1570.14 Q1108.07 1565.15 1108.07 1556.39 Q1108.07 1547.61 1112.4 1542.64 Q1116.76 1537.68 1124.43 1537.68 Z" fill="#000000" fill-rule="nonzero" fill-opacity="1" /><path clip-path="url(#clip210)" d="M1150.5 1538.54 L1156.36 1538.54 L1156.36 1574.19 L1150.5 1574.19 L1150.5 1538.54 M1150.5 1524.66 L1156.36 1524.66 L1156.36 1532.08 L1150.5 1532.08 L1150.5 1524.66 Z" fill="#000000" fill-rule="nonzero" fill-opacity="1" /><path clip-path="url(#clip210)" d="M1191.34 1539.59 L1191.34 1545.13 Q1188.85 1543.85 1186.18 1543.22 Q1183.51 1542.58 1180.64 1542.58 Q1176.28 1542.58 1174.09 1543.92 Q1171.92 1545.25 1171.92 1547.93 Q1171.92 1549.96 1173.48 1551.14 Q1175.04 1552.29 1179.75 1553.34 L1181.76 1553.78 Q1187.99 1555.12 1190.6 1557.57 Q1193.25 1559.99 1193.25 1564.35 Q1193.25 1569.32 1189.3 1572.21 Q1185.38 1575.11 1178.51 1575.11 Q1175.65 1575.11 1172.53 1574.54 Q1169.44 1573.99 1166 1572.88 L1166 1566.83 Q1169.25 1568.52 1172.4 1569.38 Q1175.55 1570.21 1178.64 1570.21 Q1182.77 1570.21 1185 1568.81 Q1187.23 1567.37 1187.23 1564.8 Q1187.23 1562.41 1185.61 1561.14 Q1184.02 1559.86 1178.57 1558.68 L1176.54 1558.21 Q1171.09 1557.06 1168.67 1554.71 Q1166.26 1552.32 1166.26 1548.18 Q1166.26 1543.15 1169.82 1540.42 Q1173.39 1537.68 1179.94 1537.68 Q1183.19 1537.68 1186.05 1538.16 Q1188.92 1538.63 1191.34 1539.59 Z" fill="#000000" fill-rule="nonzero" fill-opacity="1" /><path clip-path="url(#clip210)" d="M1233.06 1554.9 L1233.06 1557.76 L1206.14 1557.76 Q1206.52 1563.81 1209.77 1566.99 Q1213.04 1570.14 1218.87 1570.14 Q1222.24 1570.14 1225.39 1569.32 Q1228.58 1568.49 1231.7 1566.83 L1231.7 1572.37 Q1228.54 1573.71 1225.23 1574.41 Q1221.92 1575.11 1218.52 1575.11 Q1209.99 1575.11 1204.99 1570.14 Q1200.03 1565.18 1200.03 1556.71 Q1200.03 1547.96 1204.74 1542.83 Q1209.48 1537.68 1217.5 1537.68 Q1224.69 1537.68 1228.86 1542.33 Q1233.06 1546.94 1233.06 1554.9 M1227.21 1553.18 Q1227.14 1548.37 1224.5 1545.51 Q1221.89 1542.64 1217.56 1542.64 Q1212.66 1542.64 1209.7 1545.41 Q1206.77 1548.18 1206.33 1553.21 L1227.21 1553.18 Z" fill="#000000" fill-rule="nonzero" fill-opacity="1" /><path clip-path="url(#clip210)" d="M1286.12 1539.59 L1286.12 1545.13 Q1283.64 1543.85 1280.97 1543.22 Q1278.29 1542.58 1275.43 1542.58 Q1271.07 1542.58 1268.87 1543.92 Q1266.71 1545.25 1266.71 1547.93 Q1266.71 1549.96 1268.27 1551.14 Q1269.83 1552.29 1274.54 1553.34 L1276.54 1553.78 Q1282.78 1555.12 1285.39 1557.57 Q1288.03 1559.99 1288.03 1564.35 Q1288.03 1569.32 1284.09 1572.21 Q1280.17 1575.11 1273.3 1575.11 Q1270.43 1575.11 1267.31 1574.54 Q1264.22 1573.99 1260.79 1572.88 L1260.79 1566.83 Q1264.03 1568.52 1267.18 1569.38 Q1270.34 1570.21 1273.42 1570.21 Q1277.56 1570.21 1279.79 1568.81 Q1282.02 1567.37 1282.02 1564.8 Q1282.02 1562.41 1280.39 1561.14 Q1278.8 1559.86 1273.36 1558.68 L1271.32 1558.21 Q1265.88 1557.06 1263.46 1554.71 Q1261.04 1552.32 1261.04 1548.18 Q1261.04 1543.15 1264.61 1540.42 Q1268.17 1537.68 1274.73 1537.68 Q1277.97 1537.68 1280.84 1538.16 Q1283.7 1538.63 1286.12 1539.59 Z" fill="#000000" fill-rule="nonzero" fill-opacity="1" /><path clip-path="url(#clip210)" d="M1303.15 1528.42 L1303.15 1538.54 L1315.21 1538.54 L1315.21 1543.09 L1303.15 1543.09 L1303.15 1562.44 Q1303.15 1566.8 1304.33 1568.04 Q1305.54 1569.28 1309.2 1569.28 L1315.21 1569.28 L1315.21 1574.19 L1309.2 1574.19 Q1302.42 1574.19 1299.84 1571.67 Q1297.26 1569.12 1297.26 1562.44 L1297.26 1543.09 L1292.97 1543.09 L1292.97 1538.54 L1297.26 1538.54 L1297.26 1528.42 L1303.15 1528.42 Z" fill="#000000" fill-rule="nonzero" fill-opacity="1" /><path clip-path="url(#clip210)" d="M1339.12 1556.27 Q1332.02 1556.27 1329.28 1557.89 Q1326.54 1559.51 1326.54 1563.43 Q1326.54 1566.55 1328.58 1568.39 Q1330.65 1570.21 1334.18 1570.21 Q1339.05 1570.21 1341.98 1566.77 Q1344.94 1563.3 1344.94 1557.57 L1344.94 1556.27 L1339.12 1556.27 M1350.8 1553.85 L1350.8 1574.19 L1344.94 1574.19 L1344.94 1568.77 Q1342.94 1572.02 1339.94 1573.58 Q1336.95 1575.11 1332.62 1575.11 Q1327.15 1575.11 1323.9 1572.05 Q1320.69 1568.97 1320.69 1563.81 Q1320.69 1557.79 1324.7 1554.74 Q1328.74 1551.68 1336.73 1551.68 L1344.94 1551.68 L1344.94 1551.11 Q1344.94 1547.07 1342.27 1544.87 Q1339.63 1542.64 1334.82 1542.64 Q1331.76 1542.64 1328.87 1543.38 Q1325.97 1544.11 1323.3 1545.57 L1323.3 1540.16 Q1326.51 1538.92 1329.54 1538.31 Q1332.56 1537.68 1335.42 1537.68 Q1343.16 1537.68 1346.98 1541.69 Q1350.8 1545.7 1350.8 1553.85 Z" fill="#000000" fill-rule="nonzero" fill-opacity="1" /><path clip-path="url(#clip210)" d="M1392.49 1552.67 L1392.49 1574.19 L1386.64 1574.19 L1386.64 1552.86 Q1386.64 1547.8 1384.66 1545.29 Q1382.69 1542.77 1378.74 1542.77 Q1374 1542.77 1371.26 1545.79 Q1368.53 1548.82 1368.53 1554.04 L1368.53 1574.19 L1362.64 1574.19 L1362.64 1538.54 L1368.53 1538.54 L1368.53 1544.08 Q1370.63 1540.86 1373.46 1539.27 Q1376.32 1537.68 1380.05 1537.68 Q1386.19 1537.68 1389.34 1541.5 Q1392.49 1545.29 1392.49 1552.67 Z" fill="#000000" fill-rule="nonzero" fill-opacity="1" /><path clip-path="url(#clip210)" d="M1427.63 1543.95 L1427.63 1524.66 L1433.49 1524.66 L1433.49 1574.19 L1427.63 1574.19 L1427.63 1568.84 Q1425.79 1572.02 1422.95 1573.58 Q1420.15 1575.11 1416.21 1575.11 Q1409.74 1575.11 1405.67 1569.95 Q1401.63 1564.8 1401.63 1556.39 Q1401.63 1547.99 1405.67 1542.83 Q1409.74 1537.68 1416.21 1537.68 Q1420.15 1537.68 1422.95 1539.24 Q1425.79 1540.77 1427.63 1543.95 M1407.68 1556.39 Q1407.68 1562.85 1410.32 1566.55 Q1412.99 1570.21 1417.64 1570.21 Q1422.28 1570.21 1424.96 1566.55 Q1427.63 1562.85 1427.63 1556.39 Q1427.63 1549.93 1424.96 1546.27 Q1422.28 1542.58 1417.64 1542.58 Q1412.99 1542.58 1410.32 1546.27 Q1407.68 1549.93 1407.68 1556.39 Z" fill="#000000" fill-rule="nonzero" fill-opacity="1" /><path clip-path="url(#clip210)" d="M1461.75 1556.27 Q1454.65 1556.27 1451.92 1557.89 Q1449.18 1559.51 1449.18 1563.43 Q1449.18 1566.55 1451.22 1568.39 Q1453.29 1570.21 1456.82 1570.21 Q1461.69 1570.21 1464.62 1566.77 Q1467.58 1563.3 1467.58 1557.57 L1467.58 1556.27 L1461.75 1556.27 M1473.43 1553.85 L1473.43 1574.19 L1467.58 1574.19 L1467.58 1568.77 Q1465.57 1572.02 1462.58 1573.58 Q1459.59 1575.11 1455.26 1575.11 Q1449.78 1575.11 1446.54 1572.05 Q1443.32 1568.97 1443.32 1563.81 Q1443.32 1557.79 1447.33 1554.74 Q1451.38 1551.68 1459.36 1551.68 L1467.58 1551.68 L1467.58 1551.11 Q1467.58 1547.07 1464.9 1544.87 Q1462.26 1542.64 1457.46 1542.64 Q1454.4 1542.64 1451.5 1543.38 Q1448.61 1544.11 1445.93 1545.57 L1445.93 1540.16 Q1449.15 1538.92 1452.17 1538.31 Q1455.2 1537.68 1458.06 1537.68 Q1465.79 1537.68 1469.61 1541.69 Q1473.43 1545.7 1473.43 1553.85 Z" fill="#000000" fill-rule="nonzero" fill-opacity="1" /><path clip-path="url(#clip210)" d="M1506.15 1544.01 Q1505.17 1543.44 1503.99 1543.18 Q1502.84 1542.9 1501.44 1542.9 Q1496.48 1542.9 1493.8 1546.14 Q1491.16 1549.36 1491.16 1555.41 L1491.16 1574.19 L1485.27 1574.19 L1485.27 1538.54 L1491.16 1538.54 L1491.16 1544.08 Q1493.01 1540.83 1495.97 1539.27 Q1498.93 1537.68 1503.16 1537.68 Q1503.77 1537.68 1504.5 1537.77 Q1505.23 1537.84 1506.12 1538 L1506.15 1544.01 Z" fill="#000000" fill-rule="nonzero" fill-opacity="1" /><path clip-path="url(#clip210)" d="M1534.61 1543.95 L1534.61 1524.66 L1540.46 1524.66 L1540.46 1574.19 L1534.61 1574.19 L1534.61 1568.84 Q1532.76 1572.02 1529.93 1573.58 Q1527.13 1575.11 1523.18 1575.11 Q1516.72 1575.11 1512.65 1569.95 Q1508.6 1564.8 1508.6 1556.39 Q1508.6 1547.99 1512.65 1542.83 Q1516.72 1537.68 1523.18 1537.68 Q1527.13 1537.68 1529.93 1539.24 Q1532.76 1540.77 1534.61 1543.95 M1514.65 1556.39 Q1514.65 1562.85 1517.29 1566.55 Q1519.97 1570.21 1524.61 1570.21 Q1529.26 1570.21 1531.93 1566.55 Q1534.61 1562.85 1534.61 1556.39 Q1534.61 1549.93 1531.93 1546.27 Q1529.26 1542.58 1524.61 1542.58 Q1519.97 1542.58 1517.29 1546.27 Q1514.65 1549.93 1514.65 1556.39 Z" fill="#000000" fill-rule="nonzero" fill-opacity="1" /><path clip-path="url(#clip210)" d="M1596.71 1543.95 L1596.71 1524.66 L1602.56 1524.66 L1602.56 1574.19 L1596.71 1574.19 L1596.71 1568.84 Q1594.86 1572.02 1592.03 1573.58 Q1589.23 1575.11 1585.28 1575.11 Q1578.82 1575.11 1574.74 1569.95 Q1570.7 1564.8 1570.7 1556.39 Q1570.7 1547.99 1574.74 1542.83 Q1578.82 1537.68 1585.28 1537.68 Q1589.23 1537.68 1592.03 1539.24 Q1594.86 1540.77 1596.71 1543.95 M1576.75 1556.39 Q1576.75 1562.85 1579.39 1566.55 Q1582.06 1570.21 1586.71 1570.21 Q1591.36 1570.21 1594.03 1566.55 Q1596.71 1562.85 1596.71 1556.39 Q1596.71 1549.93 1594.03 1546.27 Q1591.36 1542.58 1586.71 1542.58 Q1582.06 1542.58 1579.39 1546.27 Q1576.75 1549.93 1576.75 1556.39 Z" fill="#000000" fill-rule="nonzero" fill-opacity="1" /><path clip-path="url(#clip210)" d="M1645.12 1554.9 L1645.12 1557.76 L1618.19 1557.76 Q1618.57 1563.81 1621.82 1566.99 Q1625.1 1570.14 1630.92 1570.14 Q1634.29 1570.14 1637.45 1569.32 Q1640.63 1568.49 1643.75 1566.83 L1643.75 1572.37 Q1640.6 1573.71 1637.29 1574.41 Q1633.98 1575.11 1630.57 1575.11 Q1622.04 1575.11 1617.04 1570.14 Q1612.08 1565.18 1612.08 1556.71 Q1612.08 1547.96 1616.79 1542.83 Q1621.53 1537.68 1629.55 1537.68 Q1636.75 1537.68 1640.91 1542.33 Q1645.12 1546.94 1645.12 1554.9 M1639.26 1553.18 Q1639.2 1548.37 1636.55 1545.51 Q1633.94 1542.64 1629.62 1542.64 Q1624.71 1542.64 1621.75 1545.41 Q1618.83 1548.18 1618.38 1553.21 L1639.26 1553.18 Z" fill="#000000" fill-rule="nonzero" fill-opacity="1" /><path clip-path="url(#clip210)" d="M1650.53 1538.54 L1656.73 1538.54 L1667.87 1568.46 L1679.01 1538.54 L1685.22 1538.54 L1671.85 1574.19 L1663.9 1574.19 L1650.53 1538.54 Z" fill="#000000" fill-rule="nonzero" fill-opacity="1" /><path clip-path="url(#clip210)" d="M1693.3 1538.54 L1699.16 1538.54 L1699.16 1574.19 L1693.3 1574.19 L1693.3 1538.54 M1693.3 1524.66 L1699.16 1524.66 L1699.16 1532.08 L1693.3 1532.08 L1693.3 1524.66 Z" fill="#000000" fill-rule="nonzero" fill-opacity="1" /><path clip-path="url(#clip210)" d="M1727.62 1556.27 Q1720.52 1556.27 1717.78 1557.89 Q1715.04 1559.51 1715.04 1563.43 Q1715.04 1566.55 1717.08 1568.39 Q1719.15 1570.21 1722.68 1570.21 Q1727.55 1570.21 1730.48 1566.77 Q1733.44 1563.3 1733.44 1557.57 L1733.44 1556.27 L1727.62 1556.27 M1739.3 1553.85 L1739.3 1574.19 L1733.44 1574.19 L1733.44 1568.77 Q1731.44 1572.02 1728.44 1573.58 Q1725.45 1575.11 1721.12 1575.11 Q1715.65 1575.11 1712.4 1572.05 Q1709.19 1568.97 1709.19 1563.81 Q1709.19 1557.79 1713.2 1554.74 Q1717.24 1551.68 1725.23 1551.68 L1733.44 1551.68 L1733.44 1551.11 Q1733.44 1547.07 1730.77 1544.87 Q1728.13 1542.64 1723.32 1542.64 Q1720.26 1542.64 1717.37 1543.38 Q1714.47 1544.11 1711.8 1545.57 L1711.8 1540.16 Q1715.01 1538.92 1718.04 1538.31 Q1721.06 1537.68 1723.92 1537.68 Q1731.66 1537.68 1735.48 1541.69 Q1739.3 1545.7 1739.3 1553.85 Z" fill="#000000" fill-rule="nonzero" fill-opacity="1" /><path clip-path="url(#clip210)" d="M1757.15 1528.42 L1757.15 1538.54 L1769.22 1538.54 L1769.22 1543.09 L1757.15 1543.09 L1757.15 1562.44 Q1757.15 1566.8 1758.33 1568.04 Q1759.54 1569.28 1763.2 1569.28 L1769.22 1569.28 L1769.22 1574.19 L1763.2 1574.19 Q1756.42 1574.19 1753.84 1571.67 Q1751.26 1569.12 1751.26 1562.44 L1751.26 1543.09 L1746.97 1543.09 L1746.97 1538.54 L1751.26 1538.54 L1751.26 1528.42 L1757.15 1528.42 Z" fill="#000000" fill-rule="nonzero" fill-opacity="1" /><path clip-path="url(#clip210)" d="M1776.92 1538.54 L1782.77 1538.54 L1782.77 1574.19 L1776.92 1574.19 L1776.92 1538.54 M1776.92 1524.66 L1782.77 1524.66 L1782.77 1532.08 L1776.92 1532.08 L1776.92 1524.66 Z" fill="#000000" fill-rule="nonzero" fill-opacity="1" /><path clip-path="url(#clip210)" d="M1808.84 1542.64 Q1804.13 1542.64 1801.39 1546.34 Q1798.66 1550 1798.66 1556.39 Q1798.66 1562.79 1801.36 1566.48 Q1804.1 1570.14 1808.84 1570.14 Q1813.52 1570.14 1816.26 1566.45 Q1819 1562.76 1819 1556.39 Q1819 1550.06 1816.26 1546.37 Q1813.52 1542.64 1808.84 1542.64 M1808.84 1537.68 Q1816.48 1537.68 1820.84 1542.64 Q1825.2 1547.61 1825.2 1556.39 Q1825.2 1565.15 1820.84 1570.14 Q1816.48 1575.11 1808.84 1575.11 Q1801.17 1575.11 1796.81 1570.14 Q1792.48 1565.15 1792.48 1556.39 Q1792.48 1547.61 1796.81 1542.64 Q1801.17 1537.68 1808.84 1537.68 Z" fill="#000000" fill-rule="nonzero" fill-opacity="1" /><path clip-path="url(#clip210)" d="M1864.54 1552.67 L1864.54 1574.19 L1858.69 1574.19 L1858.69 1552.86 Q1858.69 1547.8 1856.71 1545.29 Q1854.74 1542.77 1850.79 1542.77 Q1846.05 1542.77 1843.31 1545.79 Q1840.58 1548.82 1840.58 1554.04 L1840.58 1574.19 L1834.69 1574.19 L1834.69 1538.54 L1840.58 1538.54 L1840.58 1544.08 Q1842.68 1540.86 1845.51 1539.27 Q1848.37 1537.68 1852.1 1537.68 Q1858.24 1537.68 1861.39 1541.5 Q1864.54 1545.29 1864.54 1552.67 Z" fill="#000000" fill-rule="nonzero" fill-opacity="1" /><polyline clip-path="url(#clip212)" style="stroke:#000000; stroke-linecap:round; stroke-linejoin:round; stroke-width:2; stroke-opacity:0.1; fill:none" points="239.19,1233.81 2352.76,1233.81 "/>
<polyline clip-path="url(#clip212)" style="stroke:#000000; stroke-linecap:round; stroke-linejoin:round; stroke-width:2; stroke-opacity:0.1; fill:none" points="239.19,957.094 2352.76,957.094 "/>
<polyline clip-path="url(#clip212)" style="stroke:#000000; stroke-linecap:round; stroke-linejoin:round; stroke-width:2; stroke-opacity:0.1; fill:none" points="239.19,680.374 2352.76,680.374 "/>
<polyline clip-path="url(#clip212)" style="stroke:#000000; stroke-linecap:round; stroke-linejoin:round; stroke-width:2; stroke-opacity:0.1; fill:none" points="239.19,403.653 2352.76,403.653 "/>
<polyline clip-path="url(#clip212)" style="stroke:#000000; stroke-linecap:round; stroke-linejoin:round; stroke-width:2; stroke-opacity:0.1; fill:none" points="239.19,126.933 2352.76,126.933 "/>
<polyline clip-path="url(#clip210)" style="stroke:#000000; stroke-linecap:round; stroke-linejoin:round; stroke-width:4; stroke-opacity:1; fill:none" points="239.19,1410.9 239.19,123.472 "/>
<polyline clip-path="url(#clip210)" style="stroke:#000000; stroke-linecap:round; stroke-linejoin:round; stroke-width:4; stroke-opacity:1; fill:none" points="239.19,1233.81 258.088,1233.81 "/>
<polyline clip-path="url(#clip210)" style="stroke:#000000; stroke-linecap:round; stroke-linejoin:round; stroke-width:4; stroke-opacity:1; fill:none" points="239.19,957.094 258.088,957.094 "/>
<polyline clip-path="url(#clip210)" style="stroke:#000000; stroke-linecap:round; stroke-linejoin:round; stroke-width:4; stroke-opacity:1; fill:none" points="239.19,680.374 258.088,680.374 "/>
<polyline clip-path="url(#clip210)" style="stroke:#000000; stroke-linecap:round; stroke-linejoin:round; stroke-width:4; stroke-opacity:1; fill:none" points="239.19,403.653 258.088,403.653 "/>
<polyline clip-path="url(#clip210)" style="stroke:#000000; stroke-linecap:round; stroke-linejoin:round; stroke-width:4; stroke-opacity:1; fill:none" points="239.19,126.933 258.088,126.933 "/>
<path clip-path="url(#clip210)" d="M50.9921 1234.27 L80.6679 1234.27 L80.6679 1238.2 L50.9921 1238.2 L50.9921 1234.27 Z" fill="#000000" fill-rule="nonzero" fill-opacity="1" /><path clip-path="url(#clip210)" d="M90.8067 1216.53 L109.163 1216.53 L109.163 1220.47 L95.0891 1220.47 L95.0891 1228.94 Q96.1076 1228.59 97.1261 1228.43 Q98.1447 1228.25 99.1632 1228.25 Q104.95 1228.25 108.33 1231.42 Q111.709 1234.59 111.709 1240.01 Q111.709 1245.59 108.237 1248.69 Q104.765 1251.77 98.4456 1251.77 Q96.2697 1251.77 94.0012 1251.4 Q91.7558 1251.02 89.3484 1250.28 L89.3484 1245.59 Q91.4317 1246.72 93.6539 1247.27 Q95.8761 1247.83 98.353 1247.83 Q102.358 1247.83 104.696 1245.72 Q107.033 1243.62 107.033 1240.01 Q107.033 1236.4 104.696 1234.29 Q102.358 1232.18 98.353 1232.18 Q96.478 1232.18 94.603 1232.6 Q92.7512 1233.02 90.8067 1233.9 L90.8067 1216.53 Z" fill="#000000" fill-rule="nonzero" fill-opacity="1" /><path clip-path="url(#clip210)" d="M130.922 1219.61 Q127.311 1219.61 125.482 1223.18 Q123.677 1226.72 123.677 1233.85 Q123.677 1240.96 125.482 1244.52 Q127.311 1248.06 130.922 1248.06 Q134.556 1248.06 136.362 1244.52 Q138.191 1240.96 138.191 1233.85 Q138.191 1226.72 136.362 1223.18 Q134.556 1219.61 130.922 1219.61 M130.922 1215.91 Q136.732 1215.91 139.788 1220.52 Q142.867 1225.1 142.867 1233.85 Q142.867 1242.58 139.788 1247.18 Q136.732 1251.77 130.922 1251.77 Q125.112 1251.77 122.033 1247.18 Q118.978 1242.58 118.978 1233.85 Q118.978 1225.1 122.033 1220.52 Q125.112 1215.91 130.922 1215.91 Z" fill="#000000" fill-rule="nonzero" fill-opacity="1" /><path clip-path="url(#clip210)" d="M161.084 1219.61 Q157.473 1219.61 155.644 1223.18 Q153.839 1226.72 153.839 1233.85 Q153.839 1240.96 155.644 1244.52 Q157.473 1248.06 161.084 1248.06 Q164.718 1248.06 166.524 1244.52 Q168.353 1240.96 168.353 1233.85 Q168.353 1226.72 166.524 1223.18 Q164.718 1219.61 161.084 1219.61 M161.084 1215.91 Q166.894 1215.91 169.95 1220.52 Q173.029 1225.1 173.029 1233.85 Q173.029 1242.58 169.95 1247.18 Q166.894 1251.77 161.084 1251.77 Q155.274 1251.77 152.195 1247.18 Q149.14 1242.58 149.14 1233.85 Q149.14 1225.1 152.195 1220.52 Q155.274 1215.91 161.084 1215.91 Z" fill="#000000" fill-rule="nonzero" fill-opacity="1" /><path clip-path="url(#clip210)" d="M191.246 1219.61 Q187.635 1219.61 185.806 1223.18 Q184.001 1226.72 184.001 1233.85 Q184.001 1240.96 185.806 1244.52 Q187.635 1248.06 191.246 1248.06 Q194.88 1248.06 196.686 1244.52 Q198.514 1240.96 198.514 1233.85 Q198.514 1226.72 196.686 1223.18 Q194.88 1219.61 191.246 1219.61 M191.246 1215.91 Q197.056 1215.91 200.112 1220.52 Q203.19 1225.1 203.19 1233.85 Q203.19 1242.58 200.112 1247.18 Q197.056 1251.77 191.246 1251.77 Q185.436 1251.77 182.357 1247.18 Q179.302 1242.58 179.302 1233.85 Q179.302 1225.1 182.357 1220.52 Q185.436 1215.91 191.246 1215.91 Z" fill="#000000" fill-rule="nonzero" fill-opacity="1" /><path clip-path="url(#clip210)" d="M50.9921 957.545 L80.6679 957.545 L80.6679 961.48 L50.9921 961.48 L50.9921 957.545 Z" fill="#000000" fill-rule="nonzero" fill-opacity="1" /><path clip-path="url(#clip210)" d="M103.608 943.888 L91.8021 962.337 L103.608 962.337 L103.608 943.888 M102.381 939.814 L108.26 939.814 L108.26 962.337 L113.191 962.337 L113.191 966.226 L108.26 966.226 L108.26 974.374 L103.608 974.374 L103.608 966.226 L88.0058 966.226 L88.0058 961.712 L102.381 939.814 Z" fill="#000000" fill-rule="nonzero" fill-opacity="1" /><path clip-path="url(#clip210)" d="M130.922 942.893 Q127.311 942.893 125.482 946.457 Q123.677 949.999 123.677 957.129 Q123.677 964.235 125.482 967.8 Q127.311 971.342 130.922 971.342 Q134.556 971.342 136.362 967.8 Q138.191 964.235 138.191 957.129 Q138.191 949.999 136.362 946.457 Q134.556 942.893 130.922 942.893 M130.922 939.189 Q136.732 939.189 139.788 943.795 Q142.867 948.379 142.867 957.129 Q142.867 965.855 139.788 970.462 Q136.732 975.045 130.922 975.045 Q125.112 975.045 122.033 970.462 Q118.978 965.855 118.978 957.129 Q118.978 948.379 122.033 943.795 Q125.112 939.189 130.922 939.189 Z" fill="#000000" fill-rule="nonzero" fill-opacity="1" /><path clip-path="url(#clip210)" d="M161.084 942.893 Q157.473 942.893 155.644 946.457 Q153.839 949.999 153.839 957.129 Q153.839 964.235 155.644 967.8 Q157.473 971.342 161.084 971.342 Q164.718 971.342 166.524 967.8 Q168.353 964.235 168.353 957.129 Q168.353 949.999 166.524 946.457 Q164.718 942.893 161.084 942.893 M161.084 939.189 Q166.894 939.189 169.95 943.795 Q173.029 948.379 173.029 957.129 Q173.029 965.855 169.95 970.462 Q166.894 975.045 161.084 975.045 Q155.274 975.045 152.195 970.462 Q149.14 965.855 149.14 957.129 Q149.14 948.379 152.195 943.795 Q155.274 939.189 161.084 939.189 Z" fill="#000000" fill-rule="nonzero" fill-opacity="1" /><path clip-path="url(#clip210)" d="M191.246 942.893 Q187.635 942.893 185.806 946.457 Q184.001 949.999 184.001 957.129 Q184.001 964.235 185.806 967.8 Q187.635 971.342 191.246 971.342 Q194.88 971.342 196.686 967.8 Q198.514 964.235 198.514 957.129 Q198.514 949.999 196.686 946.457 Q194.88 942.893 191.246 942.893 M191.246 939.189 Q197.056 939.189 200.112 943.795 Q203.19 948.379 203.19 957.129 Q203.19 965.855 200.112 970.462 Q197.056 975.045 191.246 975.045 Q185.436 975.045 182.357 970.462 Q179.302 965.855 179.302 957.129 Q179.302 948.379 182.357 943.795 Q185.436 939.189 191.246 939.189 Z" fill="#000000" fill-rule="nonzero" fill-opacity="1" /><path clip-path="url(#clip210)" d="M50.9921 680.825 L80.6679 680.825 L80.6679 684.76 L50.9921 684.76 L50.9921 680.825 Z" fill="#000000" fill-rule="nonzero" fill-opacity="1" /><path clip-path="url(#clip210)" d="M104.927 679.019 Q108.283 679.737 110.158 682.005 Q112.057 684.274 112.057 687.607 Q112.057 692.723 108.538 695.524 Q105.02 698.325 98.5382 698.325 Q96.3623 698.325 94.0475 697.885 Q91.7558 697.468 89.3021 696.612 L89.3021 692.098 Q91.2465 693.232 93.5613 693.811 Q95.8761 694.39 98.3993 694.39 Q102.797 694.39 105.089 692.654 Q107.404 690.917 107.404 687.607 Q107.404 684.552 105.251 682.839 Q103.121 681.103 99.3021 681.103 L95.2743 681.103 L95.2743 677.26 L99.4872 677.26 Q102.936 677.26 104.765 675.894 Q106.594 674.505 106.594 671.913 Q106.594 669.251 104.696 667.839 Q102.821 666.404 99.3021 666.404 Q97.3808 666.404 95.1817 666.82 Q92.9826 667.237 90.3438 668.117 L90.3438 663.95 Q93.0058 663.209 95.3206 662.839 Q97.6585 662.469 99.7187 662.469 Q105.043 662.469 108.145 664.899 Q111.246 667.306 111.246 671.427 Q111.246 674.297 109.603 676.288 Q107.959 678.255 104.927 679.019 Z" fill="#000000" fill-rule="nonzero" fill-opacity="1" /><path clip-path="url(#clip210)" d="M130.922 666.172 Q127.311 666.172 125.482 669.737 Q123.677 673.279 123.677 680.408 Q123.677 687.515 125.482 691.079 Q127.311 694.621 130.922 694.621 Q134.556 694.621 136.362 691.079 Q138.191 687.515 138.191 680.408 Q138.191 673.279 136.362 669.737 Q134.556 666.172 130.922 666.172 M130.922 662.469 Q136.732 662.469 139.788 667.075 Q142.867 671.658 142.867 680.408 Q142.867 689.135 139.788 693.741 Q136.732 698.325 130.922 698.325 Q125.112 698.325 122.033 693.741 Q118.978 689.135 118.978 680.408 Q118.978 671.658 122.033 667.075 Q125.112 662.469 130.922 662.469 Z" fill="#000000" fill-rule="nonzero" fill-opacity="1" /><path clip-path="url(#clip210)" d="M161.084 666.172 Q157.473 666.172 155.644 669.737 Q153.839 673.279 153.839 680.408 Q153.839 687.515 155.644 691.079 Q157.473 694.621 161.084 694.621 Q164.718 694.621 166.524 691.079 Q168.353 687.515 168.353 680.408 Q168.353 673.279 166.524 669.737 Q164.718 666.172 161.084 666.172 M161.084 662.469 Q166.894 662.469 169.95 667.075 Q173.029 671.658 173.029 680.408 Q173.029 689.135 169.95 693.741 Q166.894 698.325 161.084 698.325 Q155.274 698.325 152.195 693.741 Q149.14 689.135 149.14 680.408 Q149.14 671.658 152.195 667.075 Q155.274 662.469 161.084 662.469 Z" fill="#000000" fill-rule="nonzero" fill-opacity="1" /><path clip-path="url(#clip210)" d="M191.246 666.172 Q187.635 666.172 185.806 669.737 Q184.001 673.279 184.001 680.408 Q184.001 687.515 185.806 691.079 Q187.635 694.621 191.246 694.621 Q194.88 694.621 196.686 691.079 Q198.514 687.515 198.514 680.408 Q198.514 673.279 196.686 669.737 Q194.88 666.172 191.246 666.172 M191.246 662.469 Q197.056 662.469 200.112 667.075 Q203.19 671.658 203.19 680.408 Q203.19 689.135 200.112 693.741 Q197.056 698.325 191.246 698.325 Q185.436 698.325 182.357 693.741 Q179.302 689.135 179.302 680.408 Q179.302 671.658 182.357 667.075 Q185.436 662.469 191.246 662.469 Z" fill="#000000" fill-rule="nonzero" fill-opacity="1" /><path clip-path="url(#clip210)" d="M50.9921 404.104 L80.6679 404.104 L80.6679 408.04 L50.9921 408.04 L50.9921 404.104 Z" fill="#000000" fill-rule="nonzero" fill-opacity="1" /><path clip-path="url(#clip210)" d="M94.7882 416.998 L111.108 416.998 L111.108 420.933 L89.1632 420.933 L89.1632 416.998 Q91.8252 414.243 96.4085 409.614 Q101.015 404.961 102.196 403.618 Q104.441 401.095 105.321 399.359 Q106.223 397.6 106.223 395.91 Q106.223 393.155 104.279 391.419 Q102.358 389.683 99.2558 389.683 Q97.0567 389.683 94.603 390.447 Q92.1725 391.211 89.3947 392.762 L89.3947 388.04 Q92.2188 386.905 94.6724 386.327 Q97.1261 385.748 99.1632 385.748 Q104.534 385.748 107.728 388.433 Q110.922 391.118 110.922 395.609 Q110.922 397.739 110.112 399.66 Q109.325 401.558 107.219 404.151 Q106.64 404.822 103.538 408.04 Q100.436 411.234 94.7882 416.998 Z" fill="#000000" fill-rule="nonzero" fill-opacity="1" /><path clip-path="url(#clip210)" d="M130.922 389.452 Q127.311 389.452 125.482 393.017 Q123.677 396.558 123.677 403.688 Q123.677 410.794 125.482 414.359 Q127.311 417.901 130.922 417.901 Q134.556 417.901 136.362 414.359 Q138.191 410.794 138.191 403.688 Q138.191 396.558 136.362 393.017 Q134.556 389.452 130.922 389.452 M130.922 385.748 Q136.732 385.748 139.788 390.355 Q142.867 394.938 142.867 403.688 Q142.867 412.415 139.788 417.021 Q136.732 421.604 130.922 421.604 Q125.112 421.604 122.033 417.021 Q118.978 412.415 118.978 403.688 Q118.978 394.938 122.033 390.355 Q125.112 385.748 130.922 385.748 Z" fill="#000000" fill-rule="nonzero" fill-opacity="1" /><path clip-path="url(#clip210)" d="M161.084 389.452 Q157.473 389.452 155.644 393.017 Q153.839 396.558 153.839 403.688 Q153.839 410.794 155.644 414.359 Q157.473 417.901 161.084 417.901 Q164.718 417.901 166.524 414.359 Q168.353 410.794 168.353 403.688 Q168.353 396.558 166.524 393.017 Q164.718 389.452 161.084 389.452 M161.084 385.748 Q166.894 385.748 169.95 390.355 Q173.029 394.938 173.029 403.688 Q173.029 412.415 169.95 417.021 Q166.894 421.604 161.084 421.604 Q155.274 421.604 152.195 417.021 Q149.14 412.415 149.14 403.688 Q149.14 394.938 152.195 390.355 Q155.274 385.748 161.084 385.748 Z" fill="#000000" fill-rule="nonzero" fill-opacity="1" /><path clip-path="url(#clip210)" d="M191.246 389.452 Q187.635 389.452 185.806 393.017 Q184.001 396.558 184.001 403.688 Q184.001 410.794 185.806 414.359 Q187.635 417.901 191.246 417.901 Q194.88 417.901 196.686 414.359 Q198.514 410.794 198.514 403.688 Q198.514 396.558 196.686 393.017 Q194.88 389.452 191.246 389.452 M191.246 385.748 Q197.056 385.748 200.112 390.355 Q203.19 394.938 203.19 403.688 Q203.19 412.415 200.112 417.021 Q197.056 421.604 191.246 421.604 Q185.436 421.604 182.357 417.021 Q179.302 412.415 179.302 403.688 Q179.302 394.938 182.357 390.355 Q185.436 385.748 191.246 385.748 Z" fill="#000000" fill-rule="nonzero" fill-opacity="1" /><path clip-path="url(#clip210)" d="M50.9921 127.384 L80.6679 127.384 L80.6679 131.319 L50.9921 131.319 L50.9921 127.384 Z" fill="#000000" fill-rule="nonzero" fill-opacity="1" /><path clip-path="url(#clip210)" d="M91.5706 140.277 L99.2095 140.277 L99.2095 113.912 L90.8993 115.579 L90.8993 111.319 L99.1632 109.653 L103.839 109.653 L103.839 140.277 L111.478 140.277 L111.478 144.213 L91.5706 144.213 L91.5706 140.277 Z" fill="#000000" fill-rule="nonzero" fill-opacity="1" /><path clip-path="url(#clip210)" d="M130.922 112.731 Q127.311 112.731 125.482 116.296 Q123.677 119.838 123.677 126.967 Q123.677 134.074 125.482 137.639 Q127.311 141.18 130.922 141.18 Q134.556 141.18 136.362 137.639 Q138.191 134.074 138.191 126.967 Q138.191 119.838 136.362 116.296 Q134.556 112.731 130.922 112.731 M130.922 109.028 Q136.732 109.028 139.788 113.634 Q142.867 118.217 142.867 126.967 Q142.867 135.694 139.788 140.301 Q136.732 144.884 130.922 144.884 Q125.112 144.884 122.033 140.301 Q118.978 135.694 118.978 126.967 Q118.978 118.217 122.033 113.634 Q125.112 109.028 130.922 109.028 Z" fill="#000000" fill-rule="nonzero" fill-opacity="1" /><path clip-path="url(#clip210)" d="M161.084 112.731 Q157.473 112.731 155.644 116.296 Q153.839 119.838 153.839 126.967 Q153.839 134.074 155.644 137.639 Q157.473 141.18 161.084 141.18 Q164.718 141.18 166.524 137.639 Q168.353 134.074 168.353 126.967 Q168.353 119.838 166.524 116.296 Q164.718 112.731 161.084 112.731 M161.084 109.028 Q166.894 109.028 169.95 113.634 Q173.029 118.217 173.029 126.967 Q173.029 135.694 169.95 140.301 Q166.894 144.884 161.084 144.884 Q155.274 144.884 152.195 140.301 Q149.14 135.694 149.14 126.967 Q149.14 118.217 152.195 113.634 Q155.274 109.028 161.084 109.028 Z" fill="#000000" fill-rule="nonzero" fill-opacity="1" /><path clip-path="url(#clip210)" d="M191.246 112.731 Q187.635 112.731 185.806 116.296 Q184.001 119.838 184.001 126.967 Q184.001 134.074 185.806 137.639 Q187.635 141.18 191.246 141.18 Q194.88 141.18 196.686 137.639 Q198.514 134.074 198.514 126.967 Q198.514 119.838 196.686 116.296 Q194.88 112.731 191.246 112.731 M191.246 109.028 Q197.056 109.028 200.112 113.634 Q203.19 118.217 203.19 126.967 Q203.19 135.694 200.112 140.301 Q197.056 144.884 191.246 144.884 Q185.436 144.884 182.357 140.301 Q179.302 135.694 179.302 126.967 Q179.302 118.217 182.357 113.634 Q185.436 109.028 191.246 109.028 Z" fill="#000000" fill-rule="nonzero" fill-opacity="1" /><path clip-path="url(#clip210)" d="M1017.21 12.096 L1025.39 12.096 L1025.39 65.6895 L1054.84 65.6895 L1054.84 72.576 L1017.21 72.576 L1017.21 12.096 Z" fill="#000000" fill-rule="nonzero" fill-opacity="1" /><path clip-path="url(#clip210)" d="M1079.23 32.4315 Q1073.23 32.4315 1069.75 37.1306 Q1066.27 41.7891 1066.27 49.9314 Q1066.27 58.0738 1069.71 62.7728 Q1073.19 67.4314 1079.23 67.4314 Q1085.18 67.4314 1088.67 62.7323 Q1092.15 58.0333 1092.15 49.9314 Q1092.15 41.8701 1088.67 37.1711 Q1085.18 32.4315 1079.23 32.4315 M1079.23 26.1121 Q1088.95 26.1121 1094.5 32.4315 Q1100.05 38.7509 1100.05 49.9314 Q1100.05 61.0714 1094.5 67.4314 Q1088.95 73.7508 1079.23 73.7508 Q1069.47 73.7508 1063.92 67.4314 Q1058.41 61.0714 1058.41 49.9314 Q1058.41 38.7509 1063.92 32.4315 Q1069.47 26.1121 1079.23 26.1121 Z" fill="#000000" fill-rule="nonzero" fill-opacity="1" /><path clip-path="url(#clip210)" d="M1142.26 49.3643 Q1142.26 41.2625 1138.9 36.8065 Q1135.58 32.3505 1129.54 32.3505 Q1123.55 32.3505 1120.18 36.8065 Q1116.86 41.2625 1116.86 49.3643 Q1116.86 57.4256 1120.18 61.8816 Q1123.55 66.3376 1129.54 66.3376 Q1135.58 66.3376 1138.9 61.8816 Q1142.26 57.4256 1142.26 49.3643 M1149.72 66.9452 Q1149.72 78.5308 1144.57 84.1616 Q1139.43 89.8329 1128.81 89.8329 Q1124.88 89.8329 1121.4 89.2252 Q1117.92 88.6581 1114.63 87.4428 L1114.63 80.1917 Q1117.92 81.9741 1121.12 82.8248 Q1124.32 83.6755 1127.64 83.6755 Q1134.97 83.6755 1138.62 79.8271 Q1142.26 76.0193 1142.26 68.282 L1142.26 64.5957 Q1139.95 68.6061 1136.35 70.5911 Q1132.74 72.576 1127.72 72.576 Q1119.37 72.576 1114.27 66.2161 Q1109.17 59.8562 1109.17 49.3643 Q1109.17 38.832 1114.27 32.472 Q1119.37 26.1121 1127.72 26.1121 Q1132.74 26.1121 1136.35 28.0971 Q1139.95 30.082 1142.26 34.0924 L1142.26 27.2059 L1149.72 27.2059 L1149.72 66.9452 Z" fill="#000000" fill-rule="nonzero" fill-opacity="1" /><path clip-path="url(#clip210)" d="M1161.3 46.5287 L1183.14 46.5287 L1183.14 53.1722 L1161.3 53.1722 L1161.3 46.5287 Z" fill="#000000" fill-rule="nonzero" fill-opacity="1" /><path clip-path="url(#clip210)" d="M1195 9.54393 L1202.46 9.54393 L1202.46 72.576 L1195 72.576 L1195 9.54393 Z" fill="#000000" fill-rule="nonzero" fill-opacity="1" /><path clip-path="url(#clip210)" d="M1218.05 27.2059 L1225.51 27.2059 L1225.51 72.576 L1218.05 72.576 L1218.05 27.2059 M1218.05 9.54393 L1225.51 9.54393 L1225.51 18.9825 L1218.05 18.9825 L1218.05 9.54393 Z" fill="#000000" fill-rule="nonzero" fill-opacity="1" /><path clip-path="url(#clip210)" d="M1240.82 9.54393 L1248.31 9.54393 L1248.31 46.7717 L1270.55 27.2059 L1280.07 27.2059 L1256.01 48.4326 L1281.09 72.576 L1271.36 72.576 L1248.31 50.4176 L1248.31 72.576 L1240.82 72.576 L1240.82 9.54393 Z" fill="#000000" fill-rule="nonzero" fill-opacity="1" /><path clip-path="url(#clip210)" d="M1325 48.0275 L1325 51.6733 L1290.73 51.6733 Q1291.21 59.3701 1295.35 63.421 Q1299.52 67.4314 1306.93 67.4314 Q1311.22 67.4314 1315.24 66.3781 Q1319.29 65.3249 1323.26 63.2184 L1323.26 70.267 Q1319.25 71.9684 1315.03 72.8596 Q1310.82 73.7508 1306.49 73.7508 Q1295.63 73.7508 1289.27 67.4314 Q1282.95 61.1119 1282.95 50.3365 Q1282.95 39.1965 1288.94 32.6746 Q1294.98 26.1121 1305.19 26.1121 Q1314.34 26.1121 1319.65 32.0264 Q1325 37.9003 1325 48.0275 M1317.54 45.84 Q1317.46 39.7232 1314.1 36.0774 Q1310.78 32.4315 1305.27 32.4315 Q1299.03 32.4315 1295.26 35.9558 Q1291.54 39.4801 1290.97 45.8805 L1317.54 45.84 Z" fill="#000000" fill-rule="nonzero" fill-opacity="1" /><path clip-path="url(#clip210)" d="M1337.23 9.54393 L1344.69 9.54393 L1344.69 72.576 L1337.23 72.576 L1337.23 9.54393 Z" fill="#000000" fill-rule="nonzero" fill-opacity="1" /><path clip-path="url(#clip210)" d="M1360.28 27.2059 L1367.73 27.2059 L1367.73 72.576 L1360.28 72.576 L1360.28 27.2059 M1360.28 9.54393 L1367.73 9.54393 L1367.73 18.9825 L1360.28 18.9825 L1360.28 9.54393 Z" fill="#000000" fill-rule="nonzero" fill-opacity="1" /><path clip-path="url(#clip210)" d="M1421.04 45.1919 L1421.04 72.576 L1413.59 72.576 L1413.59 45.4349 Q1413.59 38.994 1411.08 35.7938 Q1408.57 32.5936 1403.54 32.5936 Q1397.51 32.5936 1394.03 36.4419 Q1390.54 40.2903 1390.54 46.9338 L1390.54 72.576 L1383.05 72.576 L1383.05 9.54393 L1390.54 9.54393 L1390.54 34.2544 Q1393.22 30.163 1396.82 28.1376 Q1400.47 26.1121 1405.21 26.1121 Q1413.02 26.1121 1417.03 30.9732 Q1421.04 35.7938 1421.04 45.1919 Z" fill="#000000" fill-rule="nonzero" fill-opacity="1" /><path clip-path="url(#clip210)" d="M1453.49 32.4315 Q1447.5 32.4315 1444.01 37.1306 Q1440.53 41.7891 1440.53 49.9314 Q1440.53 58.0738 1443.97 62.7728 Q1447.46 67.4314 1453.49 67.4314 Q1459.45 67.4314 1462.93 62.7323 Q1466.41 58.0333 1466.41 49.9314 Q1466.41 41.8701 1462.93 37.1711 Q1459.45 32.4315 1453.49 32.4315 M1453.49 26.1121 Q1463.21 26.1121 1468.76 32.4315 Q1474.31 38.7509 1474.31 49.9314 Q1474.31 61.0714 1468.76 67.4314 Q1463.21 73.7508 1453.49 73.7508 Q1443.73 73.7508 1438.18 67.4314 Q1432.67 61.0714 1432.67 49.9314 Q1432.67 38.7509 1438.18 32.4315 Q1443.73 26.1121 1453.49 26.1121 Z" fill="#000000" fill-rule="nonzero" fill-opacity="1" /><path clip-path="url(#clip210)" d="M1504.25 32.4315 Q1498.26 32.4315 1494.77 37.1306 Q1491.29 41.7891 1491.29 49.9314 Q1491.29 58.0738 1494.73 62.7728 Q1498.21 67.4314 1504.25 67.4314 Q1510.21 67.4314 1513.69 62.7323 Q1517.17 58.0333 1517.17 49.9314 Q1517.17 41.8701 1513.69 37.1711 Q1510.21 32.4315 1504.25 32.4315 M1504.25 26.1121 Q1513.97 26.1121 1519.52 32.4315 Q1525.07 38.7509 1525.07 49.9314 Q1525.07 61.0714 1519.52 67.4314 Q1513.97 73.7508 1504.25 73.7508 Q1494.49 73.7508 1488.94 67.4314 Q1483.43 61.0714 1483.43 49.9314 Q1483.43 38.7509 1488.94 32.4315 Q1494.49 26.1121 1504.25 26.1121 Z" fill="#000000" fill-rule="nonzero" fill-opacity="1" /><path clip-path="url(#clip210)" d="M1567.28 34.0924 L1567.28 9.54393 L1574.74 9.54393 L1574.74 72.576 L1567.28 72.576 L1567.28 65.7705 Q1564.93 69.8214 1561.33 71.8063 Q1557.76 73.7508 1552.74 73.7508 Q1544.52 73.7508 1539.33 67.1883 Q1534.19 60.6258 1534.19 49.9314 Q1534.19 39.2371 1539.33 32.6746 Q1544.52 26.1121 1552.74 26.1121 Q1557.76 26.1121 1561.33 28.0971 Q1564.93 30.0415 1567.28 34.0924 M1541.88 49.9314 Q1541.88 58.1548 1545.25 62.8538 Q1548.65 67.5124 1554.56 67.5124 Q1560.48 67.5124 1563.88 62.8538 Q1567.28 58.1548 1567.28 49.9314 Q1567.28 41.7081 1563.88 37.0496 Q1560.48 32.3505 1554.56 32.3505 Q1548.65 32.3505 1545.25 37.0496 Q1541.88 41.7081 1541.88 49.9314 Z" fill="#000000" fill-rule="nonzero" fill-opacity="1" /><polyline clip-path="url(#clip212)" style="stroke:#009af9; stroke-linecap:round; stroke-linejoin:round; stroke-width:4; stroke-opacity:1; fill:none" points="299.008,1374.46 332.804,1305.44 366.599,1167.73 400.395,1020.17 434.19,926.154 467.985,867.182 501.781,830.459 535.576,814.887 569.372,798.195 603.167,785.378 636.962,775.736 670.758,766.283 704.553,759.366 738.349,753.568 772.144,749.532 805.94,744.876 839.735,741.814 873.53,739.726 907.326,738.199 941.121,737.299 974.917,736.227 1008.71,736.847 1042.51,737.775 1076.3,739.593 1110.1,741.524 1143.89,744.536 1177.69,748.012 1211.48,752.301 1245.28,757.344 1279.08,762.904 1312.87,769.124 1346.67,775.882 1380.46,783.178 1414.26,791.434 1448.05,799.714 1481.85,808.526 1515.64,818.238 1549.44,827.94 1583.23,838.047 1617.03,848.325 1650.83,859.443 1684.62,870.253 1718.42,882.539 1752.21,893.684 1786.01,905.303 1819.8,917.3 1853.6,928.664 1887.39,942.819 1921.19,953.825 1954.98,965.373 1988.78,978.341 2022.57,990.934 2056.37,1003.99 2090.17,1017.42 2123.96,1030.74 2157.76,1043.03 2191.55,1055.45 2225.35,1068.55 2259.14,1082.64 2292.94,1095.31 "/>
<polyline clip-path="url(#clip212)" style="stroke:#0000ff; stroke-linecap:round; stroke-linejoin:round; stroke-width:4; stroke-opacity:1; fill:none" stroke-dasharray="16, 10" points="974.917,2698.32 974.917,-1163.95 "/>
<polyline clip-path="url(#clip212)" style="stroke:#ff0000; stroke-linecap:round; stroke-linejoin:round; stroke-width:4; stroke-opacity:1; fill:none" points="299.008,312.774 332.804,297.882 366.599,283.94 400.395,270.917 434.19,258.782 467.985,247.502 501.781,237.046 535.576,227.38 569.372,218.474 603.167,210.298 636.962,202.823 670.758,196.023 704.553,189.873 738.349,184.35 772.144,179.434 805.94,175.104 839.735,171.343 873.53,168.135 907.326,165.467 941.121,163.326 974.917,161.705 1008.71,160.596 1042.51,159.998 1076.3,159.909 1110.1,160.332 1143.89,161.273 1177.69,162.74 1211.48,164.743 1245.28,167.291 1279.08,170.397 1312.87,174.069 1346.67,178.317 1380.46,183.144 1414.26,188.552 1448.05,194.538 1481.85,201.091 1515.64,208.199 1549.44,215.842 1583.23,223.997 1617.03,232.637 1650.83,241.73 1684.62,251.246 1718.42,261.149 1752.21,271.408 1786.01,281.988 1819.8,292.857 1853.6,303.985 1887.39,315.343 1921.19,326.905 1954.98,338.646 1988.78,350.546 2022.57,362.583 2056.37,374.74 2090.17,387.002 2123.96,399.355 2157.76,411.787 2191.55,424.286 2225.35,436.845 2259.14,449.454 2292.94,462.106 "/>
<polyline clip-path="url(#clip212)" style="stroke:#ff0000; stroke-linecap:round; stroke-linejoin:round; stroke-width:4; stroke-opacity:1; fill:none" stroke-dasharray="16, 10" points="1076.3,2698.32 1076.3,-1163.95 "/>
<path clip-path="url(#clip210)" d="M1901.87 321.906 L2282.3 321.906 L2282.3 166.386 L1901.87 166.386  Z" fill="#ffffff" fill-rule="evenodd" fill-opacity="1"/>
<polyline clip-path="url(#clip210)" style="stroke:#000000; stroke-linecap:round; stroke-linejoin:round; stroke-width:4; stroke-opacity:1; fill:none" points="1901.87,321.906 2282.3,321.906 2282.3,166.386 1901.87,166.386 1901.87,321.906 "/>
<polyline clip-path="url(#clip210)" style="stroke:#009af9; stroke-linecap:round; stroke-linejoin:round; stroke-width:4; stroke-opacity:1; fill:none" points="1925.36,218.226 2066.26,218.226 "/>
<path clip-path="url(#clip210)" d="M2094.42 204.789 L2094.42 217.775 L2100.3 217.775 Q2103.57 217.775 2105.35 216.085 Q2107.13 214.395 2107.13 211.27 Q2107.13 208.168 2105.35 206.479 Q2103.57 204.789 2100.3 204.789 L2094.42 204.789 M2089.75 200.946 L2100.3 200.946 Q2106.11 200.946 2109.08 203.585 Q2112.06 206.201 2112.06 211.27 Q2112.06 216.386 2109.08 219.002 Q2106.11 221.617 2100.3 221.617 L2094.42 221.617 L2094.42 235.506 L2089.75 235.506 L2089.75 200.946 Z" fill="#000000" fill-rule="nonzero" fill-opacity="1" /><path clip-path="url(#clip210)" d="M2118.33 200.946 L2138.2 200.946 L2138.2 204.881 L2123.01 204.881 L2123.01 215.067 L2136.71 215.067 L2136.71 219.002 L2123.01 219.002 L2123.01 235.506 L2118.33 235.506 L2118.33 200.946 Z" fill="#000000" fill-rule="nonzero" fill-opacity="1" /><polyline clip-path="url(#clip210)" style="stroke:#ff0000; stroke-linecap:round; stroke-linejoin:round; stroke-width:4; stroke-opacity:1; fill:none" points="1925.36,270.066 2066.26,270.066 "/>
<path clip-path="url(#clip210)" d="M2089.75 252.786 L2094.42 252.786 L2094.42 267.393 L2109.93 252.786 L2115.95 252.786 L2098.8 268.897 L2117.18 287.346 L2111.02 287.346 L2094.42 270.703 L2094.42 287.346 L2089.75 287.346 L2089.75 252.786 Z" fill="#000000" fill-rule="nonzero" fill-opacity="1" /><path clip-path="url(#clip210)" d="M2131.6 274.314 Q2126.44 274.314 2124.45 275.494 Q2122.45 276.675 2122.45 279.522 Q2122.45 281.791 2123.94 283.133 Q2125.44 284.453 2128.01 284.453 Q2131.55 284.453 2133.68 281.953 Q2135.83 279.43 2135.83 275.263 L2135.83 274.314 L2131.6 274.314 M2140.09 272.555 L2140.09 287.346 L2135.83 287.346 L2135.83 283.411 Q2134.38 285.772 2132.2 286.906 Q2130.02 288.018 2126.88 288.018 Q2122.89 288.018 2120.53 285.795 Q2118.2 283.55 2118.2 279.8 Q2118.2 275.425 2121.11 273.203 Q2124.05 270.981 2129.86 270.981 L2135.83 270.981 L2135.83 270.564 Q2135.83 267.624 2133.89 266.027 Q2131.97 264.407 2128.47 264.407 Q2126.25 264.407 2124.14 264.939 Q2122.04 265.471 2120.09 266.536 L2120.09 262.601 Q2122.43 261.698 2124.63 261.258 Q2126.83 260.795 2128.91 260.795 Q2134.54 260.795 2137.32 263.712 Q2140.09 266.629 2140.09 272.555 Z" fill="#000000" fill-rule="nonzero" fill-opacity="1" /><path clip-path="url(#clip210)" d="M2148.87 251.328 L2153.13 251.328 L2153.13 287.346 L2148.87 287.346 L2148.87 251.328 Z" fill="#000000" fill-rule="nonzero" fill-opacity="1" /><path clip-path="url(#clip210)" d="M2182.22 266.397 Q2183.82 263.527 2186.04 262.161 Q2188.26 260.795 2191.27 260.795 Q2195.32 260.795 2197.52 263.643 Q2199.72 266.467 2199.72 271.698 L2199.72 287.346 L2195.44 287.346 L2195.44 271.837 Q2195.44 268.11 2194.12 266.305 Q2192.8 264.499 2190.09 264.499 Q2186.78 264.499 2184.86 266.698 Q2182.94 268.897 2182.94 272.694 L2182.94 287.346 L2178.66 287.346 L2178.66 271.837 Q2178.66 268.087 2177.34 266.305 Q2176.02 264.499 2173.26 264.499 Q2170 264.499 2168.08 266.721 Q2166.16 268.92 2166.16 272.694 L2166.16 287.346 L2161.88 287.346 L2161.88 261.42 L2166.16 261.42 L2166.16 265.448 Q2167.62 263.064 2169.65 261.93 Q2171.69 260.795 2174.49 260.795 Q2177.32 260.795 2179.28 262.231 Q2181.27 263.666 2182.22 266.397 Z" fill="#000000" fill-rule="nonzero" fill-opacity="1" /><path clip-path="url(#clip210)" d="M2220 274.314 Q2214.84 274.314 2212.85 275.494 Q2210.86 276.675 2210.86 279.522 Q2210.86 281.791 2212.34 283.133 Q2213.84 284.453 2216.41 284.453 Q2219.95 284.453 2222.08 281.953 Q2224.24 279.43 2224.24 275.263 L2224.24 274.314 L2220 274.314 M2228.5 272.555 L2228.5 287.346 L2224.24 287.346 L2224.24 283.411 Q2222.78 285.772 2220.6 286.906 Q2218.43 288.018 2215.28 288.018 Q2211.3 288.018 2208.94 285.795 Q2206.6 283.55 2206.6 279.8 Q2206.6 275.425 2209.51 273.203 Q2212.45 270.981 2218.26 270.981 L2224.24 270.981 L2224.24 270.564 Q2224.24 267.624 2222.29 266.027 Q2220.37 264.407 2216.88 264.407 Q2214.65 264.407 2212.55 264.939 Q2210.44 265.471 2208.5 266.536 L2208.5 262.601 Q2210.83 261.698 2213.03 261.258 Q2215.23 260.795 2217.32 260.795 Q2222.94 260.795 2225.72 263.712 Q2228.5 266.629 2228.5 272.555 Z" fill="#000000" fill-rule="nonzero" fill-opacity="1" /><path clip-path="url(#clip210)" d="M2258.82 271.698 L2258.82 287.346 L2254.56 287.346 L2254.56 271.837 Q2254.56 268.157 2253.13 266.328 Q2251.69 264.499 2248.82 264.499 Q2245.37 264.499 2243.38 266.698 Q2241.39 268.897 2241.39 272.694 L2241.39 287.346 L2237.11 287.346 L2237.11 261.42 L2241.39 261.42 L2241.39 265.448 Q2242.92 263.11 2244.98 261.953 Q2247.06 260.795 2249.77 260.795 Q2254.24 260.795 2256.53 263.573 Q2258.82 266.328 2258.82 271.698 Z" fill="#000000" fill-rule="nonzero" fill-opacity="1" /></svg>
