<?xml version="1.0" encoding="utf-8"?>
<svg xmlns="http://www.w3.org/2000/svg" xmlns:xlink="http://www.w3.org/1999/xlink" width="600" height="400" viewBox="0 0 2400 1600">
<defs>
  <clipPath id="clip610">
    <rect x="0" y="0" width="2400" height="1600"/>
  </clipPath>
</defs>
<path clip-path="url(#clip610)" d="M0 1600 L2400 1600 L2400 0 L0 0  Z" fill="#ffffff" fill-rule="evenodd" fill-opacity="1"/>
<defs>
  <clipPath id="clip611">
    <rect x="480" y="0" width="1681" height="1600"/>
  </clipPath>
</defs>
<path clip-path="url(#clip610)" d="M193.936 1486.45 L2352.76 1486.45 L2352.76 47.2441 L193.936 47.2441  Z" fill="#ffffff" fill-rule="evenodd" fill-opacity="1"/>
<defs>
  <clipPath id="clip612">
    <rect x="193" y="47" width="2160" height="1440"/>
  </clipPath>
</defs>
<polyline clip-path="url(#clip612)" style="stroke:#000000; stroke-linecap:round; stroke-linejoin:round; stroke-width:2; stroke-opacity:0.1; fill:none" points="229.255,1486.45 229.255,47.2441 "/>
<polyline clip-path="url(#clip612)" style="stroke:#000000; stroke-linecap:round; stroke-linejoin:round; stroke-width:2; stroke-opacity:0.1; fill:none" points="744.855,1486.45 744.855,47.2441 "/>
<polyline clip-path="url(#clip612)" style="stroke:#000000; stroke-linecap:round; stroke-linejoin:round; stroke-width:2; stroke-opacity:0.1; fill:none" points="1260.46,1486.45 1260.46,47.2441 "/>
<polyline clip-path="url(#clip612)" style="stroke:#000000; stroke-linecap:round; stroke-linejoin:round; stroke-width:2; stroke-opacity:0.1; fill:none" points="1776.06,1486.45 1776.06,47.2441 "/>
<polyline clip-path="url(#clip612)" style="stroke:#000000; stroke-linecap:round; stroke-linejoin:round; stroke-width:2; stroke-opacity:0.1; fill:none" points="2291.66,1486.45 2291.66,47.2441 "/>
<polyline clip-path="url(#clip612)" style="stroke:#000000; stroke-linecap:round; stroke-linejoin:round; stroke-width:2; stroke-opacity:0.1; fill:none" points="193.936,1259.88 2352.76,1259.88 "/>
<polyline clip-path="url(#clip612)" style="stroke:#000000; stroke-linecap:round; stroke-linejoin:round; stroke-width:2; stroke-opacity:0.1; fill:none" points="193.936,977.599 2352.76,977.599 "/>
<polyline clip-path="url(#clip612)" style="stroke:#000000; stroke-linecap:round; stroke-linejoin:round; stroke-width:2; stroke-opacity:0.1; fill:none" points="193.936,695.322 2352.76,695.322 "/>
<polyline clip-path="url(#clip612)" style="stroke:#000000; stroke-linecap:round; stroke-linejoin:round; stroke-width:2; stroke-opacity:0.1; fill:none" points="193.936,413.045 2352.76,413.045 "/>
<polyline clip-path="url(#clip612)" style="stroke:#000000; stroke-linecap:round; stroke-linejoin:round; stroke-width:2; stroke-opacity:0.1; fill:none" points="193.936,130.768 2352.76,130.768 "/>
<polyline clip-path="url(#clip610)" style="stroke:#000000; stroke-linecap:round; stroke-linejoin:round; stroke-width:4; stroke-opacity:1; fill:none" points="193.936,1486.45 2352.76,1486.45 "/>
<polyline clip-path="url(#clip610)" style="stroke:#000000; stroke-linecap:round; stroke-linejoin:round; stroke-width:4; stroke-opacity:1; fill:none" points="229.255,1486.45 229.255,1467.55 "/>
<polyline clip-path="url(#clip610)" style="stroke:#000000; stroke-linecap:round; stroke-linejoin:round; stroke-width:4; stroke-opacity:1; fill:none" points="744.855,1486.45 744.855,1467.55 "/>
<polyline clip-path="url(#clip610)" style="stroke:#000000; stroke-linecap:round; stroke-linejoin:round; stroke-width:4; stroke-opacity:1; fill:none" points="1260.46,1486.45 1260.46,1467.55 "/>
<polyline clip-path="url(#clip610)" style="stroke:#000000; stroke-linecap:round; stroke-linejoin:round; stroke-width:4; stroke-opacity:1; fill:none" points="1776.06,1486.45 1776.06,1467.55 "/>
<polyline clip-path="url(#clip610)" style="stroke:#000000; stroke-linecap:round; stroke-linejoin:round; stroke-width:4; stroke-opacity:1; fill:none" points="2291.66,1486.45 2291.66,1467.55 "/>
<path clip-path="url(#clip610)" d="M229.255 1517.37 Q225.644 1517.37 223.815 1520.93 Q222.009 1524.47 222.009 1531.6 Q222.009 1538.71 223.815 1542.27 Q225.644 1545.82 229.255 1545.82 Q232.889 1545.82 234.694 1542.27 Q236.523 1538.71 236.523 1531.6 Q236.523 1524.47 234.694 1520.93 Q232.889 1517.37 229.255 1517.37 M229.255 1513.66 Q235.065 1513.66 238.12 1518.27 Q241.199 1522.85 241.199 1531.6 Q241.199 1540.33 238.12 1544.94 Q235.065 1549.52 229.255 1549.52 Q223.444 1549.52 220.366 1544.94 Q217.31 1540.33 217.31 1531.6 Q217.31 1522.85 220.366 1518.27 Q223.444 1513.66 229.255 1513.66 Z" fill="#000000" fill-rule="nonzero" fill-opacity="1" /><path clip-path="url(#clip610)" d="M723.629 1544.91 L739.948 1544.91 L739.948 1548.85 L718.004 1548.85 L718.004 1544.91 Q720.666 1542.16 725.249 1537.53 Q729.855 1532.88 731.036 1531.53 Q733.281 1529.01 734.161 1527.27 Q735.064 1525.51 735.064 1523.82 Q735.064 1521.07 733.119 1519.33 Q731.198 1517.6 728.096 1517.6 Q725.897 1517.6 723.443 1518.36 Q721.013 1519.13 718.235 1520.68 L718.235 1515.95 Q721.059 1514.82 723.513 1514.24 Q725.967 1513.66 728.004 1513.66 Q733.374 1513.66 736.568 1516.35 Q739.763 1519.03 739.763 1523.52 Q739.763 1525.65 738.953 1527.57 Q738.166 1529.47 736.059 1532.07 Q735.48 1532.74 732.379 1535.95 Q729.277 1539.15 723.629 1544.91 Z" fill="#000000" fill-rule="nonzero" fill-opacity="1" /><path clip-path="url(#clip610)" d="M759.763 1517.37 Q756.152 1517.37 754.323 1520.93 Q752.517 1524.47 752.517 1531.6 Q752.517 1538.71 754.323 1542.27 Q756.152 1545.82 759.763 1545.82 Q763.397 1545.82 765.202 1542.27 Q767.031 1538.71 767.031 1531.6 Q767.031 1524.47 765.202 1520.93 Q763.397 1517.37 759.763 1517.37 M759.763 1513.66 Q765.573 1513.66 768.628 1518.27 Q771.707 1522.85 771.707 1531.6 Q771.707 1540.33 768.628 1544.94 Q765.573 1549.52 759.763 1549.52 Q753.952 1549.52 750.874 1544.94 Q747.818 1540.33 747.818 1531.6 Q747.818 1522.85 750.874 1518.27 Q753.952 1513.66 759.763 1513.66 Z" fill="#000000" fill-rule="nonzero" fill-opacity="1" /><path clip-path="url(#clip610)" d="M1248.63 1518.36 L1236.82 1536.81 L1248.63 1536.81 L1248.63 1518.36 M1247.4 1514.29 L1253.28 1514.29 L1253.28 1536.81 L1258.21 1536.81 L1258.21 1540.7 L1253.28 1540.7 L1253.28 1548.85 L1248.63 1548.85 L1248.63 1540.7 L1233.03 1540.7 L1233.03 1536.19 L1247.4 1514.29 Z" fill="#000000" fill-rule="nonzero" fill-opacity="1" /><path clip-path="url(#clip610)" d="M1275.94 1517.37 Q1272.33 1517.37 1270.5 1520.93 Q1268.7 1524.47 1268.7 1531.6 Q1268.7 1538.71 1270.5 1542.27 Q1272.33 1545.82 1275.94 1545.82 Q1279.58 1545.82 1281.38 1542.27 Q1283.21 1538.71 1283.21 1531.6 Q1283.21 1524.47 1281.38 1520.93 Q1279.58 1517.37 1275.94 1517.37 M1275.94 1513.66 Q1281.75 1513.66 1284.81 1518.27 Q1287.89 1522.85 1287.89 1531.6 Q1287.89 1540.33 1284.81 1544.94 Q1281.75 1549.52 1275.94 1549.52 Q1270.13 1549.52 1267.05 1544.94 Q1264 1540.33 1264 1531.6 Q1264 1522.85 1267.05 1518.27 Q1270.13 1513.66 1275.94 1513.66 Z" fill="#000000" fill-rule="nonzero" fill-opacity="1" /><path clip-path="url(#clip610)" d="M1761.46 1529.7 Q1758.31 1529.7 1756.46 1531.86 Q1754.63 1534.01 1754.63 1537.76 Q1754.63 1541.49 1756.46 1543.66 Q1758.31 1545.82 1761.46 1545.82 Q1764.61 1545.82 1766.44 1543.66 Q1768.29 1541.49 1768.29 1537.76 Q1768.29 1534.01 1766.44 1531.86 Q1764.61 1529.7 1761.46 1529.7 M1770.74 1515.05 L1770.74 1519.31 Q1768.98 1518.48 1767.18 1518.04 Q1765.4 1517.6 1763.64 1517.6 Q1759.01 1517.6 1756.55 1520.72 Q1754.12 1523.85 1753.78 1530.17 Q1755.14 1528.15 1757.2 1527.09 Q1759.26 1526 1761.74 1526 Q1766.95 1526 1769.96 1529.17 Q1772.99 1532.32 1772.99 1537.76 Q1772.99 1543.08 1769.84 1546.3 Q1766.69 1549.52 1761.46 1549.52 Q1755.47 1549.52 1752.3 1544.94 Q1749.12 1540.33 1749.12 1531.6 Q1749.12 1523.41 1753.01 1518.55 Q1756.9 1513.66 1763.45 1513.66 Q1765.21 1513.66 1766.99 1514.01 Q1768.8 1514.36 1770.74 1515.05 Z" fill="#000000" fill-rule="nonzero" fill-opacity="1" /><path clip-path="url(#clip610)" d="M1791.04 1517.37 Q1787.43 1517.37 1785.61 1520.93 Q1783.8 1524.47 1783.8 1531.6 Q1783.8 1538.71 1785.61 1542.27 Q1787.43 1545.82 1791.04 1545.82 Q1794.68 1545.82 1796.48 1542.27 Q1798.31 1538.71 1798.31 1531.6 Q1798.31 1524.47 1796.48 1520.93 Q1794.68 1517.37 1791.04 1517.37 M1791.04 1513.66 Q1796.86 1513.66 1799.91 1518.27 Q1802.99 1522.85 1802.99 1531.6 Q1802.99 1540.33 1799.91 1544.94 Q1796.86 1549.52 1791.04 1549.52 Q1785.23 1549.52 1782.16 1544.94 Q1779.1 1540.33 1779.1 1531.6 Q1779.1 1522.85 1782.16 1518.27 Q1785.23 1513.66 1791.04 1513.66 Z" fill="#000000" fill-rule="nonzero" fill-opacity="1" /><path clip-path="url(#clip610)" d="M2276.53 1532.44 Q2273.2 1532.44 2271.28 1534.22 Q2269.38 1536 2269.38 1539.13 Q2269.38 1542.25 2271.28 1544.03 Q2273.2 1545.82 2276.53 1545.82 Q2279.86 1545.82 2281.78 1544.03 Q2283.71 1542.23 2283.71 1539.13 Q2283.71 1536 2281.78 1534.22 Q2279.89 1532.44 2276.53 1532.44 M2271.85 1530.45 Q2268.84 1529.7 2267.16 1527.64 Q2265.49 1525.58 2265.49 1522.62 Q2265.49 1518.48 2268.43 1516.07 Q2271.39 1513.66 2276.53 1513.66 Q2281.69 1513.66 2284.63 1516.07 Q2287.57 1518.48 2287.57 1522.62 Q2287.57 1525.58 2285.88 1527.64 Q2284.22 1529.7 2281.23 1530.45 Q2284.61 1531.23 2286.48 1533.52 Q2288.38 1535.82 2288.38 1539.13 Q2288.38 1544.15 2285.3 1546.83 Q2282.25 1549.52 2276.53 1549.52 Q2270.81 1549.52 2267.73 1546.83 Q2264.68 1544.15 2264.68 1539.13 Q2264.68 1535.82 2266.58 1533.52 Q2268.47 1531.23 2271.85 1530.45 M2270.14 1523.06 Q2270.14 1525.75 2271.81 1527.25 Q2273.5 1528.76 2276.53 1528.76 Q2279.54 1528.76 2281.23 1527.25 Q2282.94 1525.75 2282.94 1523.06 Q2282.94 1520.38 2281.23 1518.87 Q2279.54 1517.37 2276.53 1517.37 Q2273.5 1517.37 2271.81 1518.87 Q2270.14 1520.38 2270.14 1523.06 Z" fill="#000000" fill-rule="nonzero" fill-opacity="1" /><path clip-path="url(#clip610)" d="M2306.69 1517.37 Q2303.08 1517.37 2301.25 1520.93 Q2299.45 1524.47 2299.45 1531.6 Q2299.45 1538.71 2301.25 1542.27 Q2303.08 1545.82 2306.69 1545.82 Q2310.33 1545.82 2312.13 1542.27 Q2313.96 1538.71 2313.96 1531.6 Q2313.96 1524.47 2312.13 1520.93 Q2310.33 1517.37 2306.69 1517.37 M2306.69 1513.66 Q2312.5 1513.66 2315.56 1518.27 Q2318.64 1522.85 2318.64 1531.6 Q2318.64 1540.33 2315.56 1544.94 Q2312.5 1549.52 2306.69 1549.52 Q2300.88 1549.52 2297.8 1544.94 Q2294.75 1540.33 2294.75 1531.6 Q2294.75 1522.85 2297.8 1518.27 Q2300.88 1513.66 2306.69 1513.66 Z" fill="#000000" fill-rule="nonzero" fill-opacity="1" /><polyline clip-path="url(#clip610)" style="stroke:#000000; stroke-linecap:round; stroke-linejoin:round; stroke-width:4; stroke-opacity:1; fill:none" points="193.936,1486.45 193.936,47.2441 "/>
<polyline clip-path="url(#clip610)" style="stroke:#000000; stroke-linecap:round; stroke-linejoin:round; stroke-width:4; stroke-opacity:1; fill:none" points="193.936,1259.88 212.834,1259.88 "/>
<polyline clip-path="url(#clip610)" style="stroke:#000000; stroke-linecap:round; stroke-linejoin:round; stroke-width:4; stroke-opacity:1; fill:none" points="193.936,977.599 212.834,977.599 "/>
<polyline clip-path="url(#clip610)" style="stroke:#000000; stroke-linecap:round; stroke-linejoin:round; stroke-width:4; stroke-opacity:1; fill:none" points="193.936,695.322 212.834,695.322 "/>
<polyline clip-path="url(#clip610)" style="stroke:#000000; stroke-linecap:round; stroke-linejoin:round; stroke-width:4; stroke-opacity:1; fill:none" points="193.936,413.045 212.834,413.045 "/>
<polyline clip-path="url(#clip610)" style="stroke:#000000; stroke-linecap:round; stroke-linejoin:round; stroke-width:4; stroke-opacity:1; fill:none" points="193.936,130.768 212.834,130.768 "/>
<path clip-path="url(#clip610)" d="M50.9921 1260.33 L80.6679 1260.33 L80.6679 1264.26 L50.9921 1264.26 L50.9921 1260.33 Z" fill="#000000" fill-rule="nonzero" fill-opacity="1" /><path clip-path="url(#clip610)" d="M91.5706 1273.22 L99.2095 1273.22 L99.2095 1246.85 L90.8993 1248.52 L90.8993 1244.26 L99.1632 1242.6 L103.839 1242.6 L103.839 1273.22 L111.478 1273.22 L111.478 1277.16 L91.5706 1277.16 L91.5706 1273.22 Z" fill="#000000" fill-rule="nonzero" fill-opacity="1" /><path clip-path="url(#clip610)" d="M120.922 1271.28 L125.807 1271.28 L125.807 1277.16 L120.922 1277.16 L120.922 1271.28 Z" fill="#000000" fill-rule="nonzero" fill-opacity="1" /><path clip-path="url(#clip610)" d="M145.992 1245.67 Q142.381 1245.67 140.552 1249.24 Q138.746 1252.78 138.746 1259.91 Q138.746 1267.02 140.552 1270.58 Q142.381 1274.12 145.992 1274.12 Q149.626 1274.12 151.431 1270.58 Q153.26 1267.02 153.26 1259.91 Q153.26 1252.78 151.431 1249.24 Q149.626 1245.67 145.992 1245.67 M145.992 1241.97 Q151.802 1241.97 154.857 1246.58 Q157.936 1251.16 157.936 1259.91 Q157.936 1268.64 154.857 1273.24 Q151.802 1277.83 145.992 1277.83 Q140.181 1277.83 137.103 1273.24 Q134.047 1268.64 134.047 1259.91 Q134.047 1251.16 137.103 1246.58 Q140.181 1241.97 145.992 1241.97 Z" fill="#000000" fill-rule="nonzero" fill-opacity="1" /><path clip-path="url(#clip610)" d="M51.9875 978.05 L81.6633 978.05 L81.6633 981.985 L51.9875 981.985 L51.9875 978.05 Z" fill="#000000" fill-rule="nonzero" fill-opacity="1" /><path clip-path="url(#clip610)" d="M101.756 963.397 Q98.1447 963.397 96.316 966.962 Q94.5104 970.504 94.5104 977.633 Q94.5104 984.74 96.316 988.305 Q98.1447 991.846 101.756 991.846 Q105.39 991.846 107.196 988.305 Q109.024 984.74 109.024 977.633 Q109.024 970.504 107.196 966.962 Q105.39 963.397 101.756 963.397 M101.756 959.694 Q107.566 959.694 110.621 964.3 Q113.7 968.883 113.7 977.633 Q113.7 986.36 110.621 990.967 Q107.566 995.55 101.756 995.55 Q95.9456 995.55 92.8669 990.967 Q89.8114 986.36 89.8114 977.633 Q89.8114 968.883 92.8669 964.3 Q95.9456 959.694 101.756 959.694 Z" fill="#000000" fill-rule="nonzero" fill-opacity="1" /><path clip-path="url(#clip610)" d="M121.918 988.999 L126.802 988.999 L126.802 994.879 L121.918 994.879 L121.918 988.999 Z" fill="#000000" fill-rule="nonzero" fill-opacity="1" /><path clip-path="url(#clip610)" d="M137.033 960.319 L155.39 960.319 L155.39 964.254 L141.316 964.254 L141.316 972.726 Q142.334 972.379 143.353 972.217 Q144.371 972.032 145.39 972.032 Q151.177 972.032 154.556 975.203 Q157.936 978.374 157.936 983.791 Q157.936 989.369 154.464 992.471 Q150.992 995.55 144.672 995.55 Q142.496 995.55 140.228 995.18 Q137.982 994.809 135.575 994.068 L135.575 989.369 Q137.658 990.504 139.881 991.059 Q142.103 991.615 144.58 991.615 Q148.584 991.615 150.922 989.508 Q153.26 987.402 153.26 983.791 Q153.26 980.18 150.922 978.073 Q148.584 975.967 144.58 975.967 Q142.705 975.967 140.83 976.383 Q138.978 976.8 137.033 977.68 L137.033 960.319 Z" fill="#000000" fill-rule="nonzero" fill-opacity="1" /><path clip-path="url(#clip610)" d="M100.76 681.12 Q97.1493 681.12 95.3206 684.685 Q93.515 688.227 93.515 695.356 Q93.515 702.463 95.3206 706.028 Q97.1493 709.569 100.76 709.569 Q104.395 709.569 106.2 706.028 Q108.029 702.463 108.029 695.356 Q108.029 688.227 106.2 684.685 Q104.395 681.12 100.76 681.12 M100.76 677.417 Q106.571 677.417 109.626 682.023 Q112.705 686.606 112.705 695.356 Q112.705 704.083 109.626 708.69 Q106.571 713.273 100.76 713.273 Q94.9502 713.273 91.8715 708.69 Q88.816 704.083 88.816 695.356 Q88.816 686.606 91.8715 682.023 Q94.9502 677.417 100.76 677.417 Z" fill="#000000" fill-rule="nonzero" fill-opacity="1" /><path clip-path="url(#clip610)" d="M120.922 706.722 L125.807 706.722 L125.807 712.602 L120.922 712.602 L120.922 706.722 Z" fill="#000000" fill-rule="nonzero" fill-opacity="1" /><path clip-path="url(#clip610)" d="M145.992 681.12 Q142.381 681.12 140.552 684.685 Q138.746 688.227 138.746 695.356 Q138.746 702.463 140.552 706.028 Q142.381 709.569 145.992 709.569 Q149.626 709.569 151.431 706.028 Q153.26 702.463 153.26 695.356 Q153.26 688.227 151.431 684.685 Q149.626 681.12 145.992 681.12 M145.992 677.417 Q151.802 677.417 154.857 682.023 Q157.936 686.606 157.936 695.356 Q157.936 704.083 154.857 708.69 Q151.802 713.273 145.992 713.273 Q140.181 713.273 137.103 708.69 Q134.047 704.083 134.047 695.356 Q134.047 686.606 137.103 682.023 Q140.181 677.417 145.992 677.417 Z" fill="#000000" fill-rule="nonzero" fill-opacity="1" /><path clip-path="url(#clip610)" d="M101.756 398.843 Q98.1447 398.843 96.316 402.408 Q94.5104 405.95 94.5104 413.079 Q94.5104 420.186 96.316 423.751 Q98.1447 427.292 101.756 427.292 Q105.39 427.292 107.196 423.751 Q109.024 420.186 109.024 413.079 Q109.024 405.95 107.196 402.408 Q105.39 398.843 101.756 398.843 M101.756 395.14 Q107.566 395.14 110.621 399.746 Q113.7 404.329 113.7 413.079 Q113.7 421.806 110.621 426.413 Q107.566 430.996 101.756 430.996 Q95.9456 430.996 92.8669 426.413 Q89.8114 421.806 89.8114 413.079 Q89.8114 404.329 92.8669 399.746 Q95.9456 395.14 101.756 395.14 Z" fill="#000000" fill-rule="nonzero" fill-opacity="1" /><path clip-path="url(#clip610)" d="M121.918 424.445 L126.802 424.445 L126.802 430.325 L121.918 430.325 L121.918 424.445 Z" fill="#000000" fill-rule="nonzero" fill-opacity="1" /><path clip-path="url(#clip610)" d="M137.033 395.765 L155.39 395.765 L155.39 399.7 L141.316 399.7 L141.316 408.172 Q142.334 407.825 143.353 407.663 Q144.371 407.478 145.39 407.478 Q151.177 407.478 154.556 410.649 Q157.936 413.82 157.936 419.237 Q157.936 424.815 154.464 427.917 Q150.992 430.996 144.672 430.996 Q142.496 430.996 140.228 430.626 Q137.982 430.255 135.575 429.514 L135.575 424.815 Q137.658 425.95 139.881 426.505 Q142.103 427.061 144.58 427.061 Q148.584 427.061 150.922 424.954 Q153.26 422.848 153.26 419.237 Q153.26 415.626 150.922 413.519 Q148.584 411.413 144.58 411.413 Q142.705 411.413 140.83 411.829 Q138.978 412.246 137.033 413.126 L137.033 395.765 Z" fill="#000000" fill-rule="nonzero" fill-opacity="1" /><path clip-path="url(#clip610)" d="M91.5706 144.112 L99.2095 144.112 L99.2095 117.747 L90.8993 119.414 L90.8993 115.154 L99.1632 113.488 L103.839 113.488 L103.839 144.112 L111.478 144.112 L111.478 148.048 L91.5706 148.048 L91.5706 144.112 Z" fill="#000000" fill-rule="nonzero" fill-opacity="1" /><path clip-path="url(#clip610)" d="M120.922 142.168 L125.807 142.168 L125.807 148.048 L120.922 148.048 L120.922 142.168 Z" fill="#000000" fill-rule="nonzero" fill-opacity="1" /><path clip-path="url(#clip610)" d="M145.992 116.566 Q142.381 116.566 140.552 120.131 Q138.746 123.673 138.746 130.802 Q138.746 137.909 140.552 141.474 Q142.381 145.015 145.992 145.015 Q149.626 145.015 151.431 141.474 Q153.26 137.909 153.26 130.802 Q153.26 123.673 151.431 120.131 Q149.626 116.566 145.992 116.566 M145.992 112.863 Q151.802 112.863 154.857 117.469 Q157.936 122.052 157.936 130.802 Q157.936 139.529 154.857 144.136 Q151.802 148.719 145.992 148.719 Q140.181 148.719 137.103 144.136 Q134.047 139.529 134.047 130.802 Q134.047 122.052 137.103 117.469 Q140.181 112.863 145.992 112.863 Z" fill="#000000" fill-rule="nonzero" fill-opacity="1" /><path clip-path="url(#clip612)" d="M255.035 896.763 L280.815 978.089 L306.595 886.53 L332.375 844.219 L358.155 867.089 L383.935 858.327 L409.715 891.788 L435.495 848.219 L461.275 859.423 L487.055 913.332 L512.835 967.045 L538.615 935.882 L564.395 877.19 L590.175 943.911 L615.955 827.061 L641.735 744.763 L667.515 712.063 L693.295 677.228 L719.075 665.405 L744.855 642.247 L770.635 658.579 L796.415 689.93 L822.195 701.911 L847.975 769.33 L873.755 718.231 L899.535 774.267 L925.316 958.61 L951.096 960.217 L976.876 893.08 L1002.66 902.491 L1028.44 866.786 L1054.22 883.499 L1080 870.931 L1105.78 850.51 L1131.56 858.401 L1157.34 836.673 L1183.12 843.869 L1208.9 729.895 L1234.68 734.058 L1260.46 868.06 L1286.24 916.429 L1312.02 916.147 L1337.8 1020.66 L1363.58 1088.35 L1389.36 1170.53 L1415.14 1279.41 L1440.92 1240.85 L1466.7 1289.13 L1492.48 1309.93 L1518.26 1310.25 L1544.04 1405.32 L1569.82 1381.05 L1595.6 1445.72 L1621.38 1378.28 L1647.16 1414.77 L1672.94 1264.68 L1698.72 1236.82 L1724.5 1182.7 L1750.28 1168.98 L1776.06 1191.94 L1801.84 1146.18 L1827.62 1115.32 L1853.4 992.004 L1879.18 1021.43 L1904.96 890.283 L1930.74 826.997 L1956.52 801.735 L1982.3 775.213 L2008.08 805.266 L2033.86 768.422 L2059.64 802.927 L2085.42 818.979 L2111.2 818.686 L2136.98 1008.74 L2162.76 1085.62 L2188.54 1011.22 L2214.32 893.793 L2240.1 779.728 L2265.88 833.166 L2291.66 864.023 L2291.66 154.831 L2265.88 120.619 L2240.1 107.386 L2214.32 212.116 L2188.54 348.662 L2162.76 435.287 L2136.98 455.186 L2111.2 267.154 L2085.42 253.981 L2059.64 285.341 L2033.86 229.972 L2008.08 261.216 L1982.3 240.251 L1956.52 266.097 L1930.74 298.357 L1904.96 318.878 L1879.18 446.698 L1853.4 418.049 L1827.62 525.865 L1801.84 546.441 L1776.06 590.569 L1750.28 590.726 L1724.5 624.738 L1698.72 725.726 L1672.94 741.584 L1647.16 867.576 L1621.38 884.87 L1595.6 934.566 L1569.82 906.148 L1544.04 929.401 L1518.26 831.989 L1492.48 831.031 L1466.7 815.735 L1440.92 724.269 L1415.14 738.026 L1389.36 635.332 L1363.58 567.652 L1337.8 512.607 L1312.02 434.49 L1286.24 404.054 L1260.46 350.066 L1234.68 243.107 L1208.9 259.055 L1183.12 359.236 L1157.34 345.172 L1131.56 392.929 L1105.78 332.615 L1080 340.691 L1054.22 356.103 L1028.44 343.965 L1002.66 377.652 L976.876 368.17 L951.096 412.619 L925.316 391.119 L899.535 217.727 L873.755 202.435 L847.975 267.501 L822.195 220.088 L796.415 207.355 L770.635 206.205 L744.855 170.029 L719.075 173.285 L693.295 192.23 L667.515 185.348 L641.735 199.323 L615.955 261.11 L590.175 371.168 L564.395 277.56 L538.615 358.566 L512.835 362.813 L487.055 313.072 L461.275 280.444 L435.495 244.46 L409.715 252.43 L383.935 219.729 L358.155 208.865 L332.375 145.118 L306.595 161.543 L280.815 210.289 L255.035 87.9763  Z" fill="#009af9" fill-rule="evenodd" fill-opacity="0.5"/>
<polyline clip-path="url(#clip612)" style="stroke:#009af9; stroke-linecap:round; stroke-linejoin:round; stroke-width:4; stroke-opacity:1; fill:none" points="255.035,492.37 280.815,594.189 306.595,524.036 332.375,494.668 358.155,537.977 383.935,539.028 409.715,572.109 435.495,546.34 461.275,569.934 487.055,613.202 512.835,664.929 538.615,647.224 564.395,577.375 590.175,657.54 615.955,544.085 641.735,472.043 667.515,448.705 693.295,434.729 719.075,419.345 744.855,406.138 770.635,432.392 796.415,448.643 822.195,461 847.975,518.416 873.755,460.333 899.535,495.997 925.316,674.864 951.096,686.418 976.876,630.625 1002.66,640.071 1028.44,605.375 1054.22,619.801 1080,605.811 1105.78,591.562 1131.56,625.665 1157.34,590.923 1183.12,601.553 1208.9,494.475 1234.68,488.582 1260.46,609.063 1286.24,660.241 1312.02,675.318 1337.8,766.633 1363.58,828 1389.36,902.932 1415.14,1008.72 1440.92,982.559 1466.7,1052.43 1492.48,1070.48 1518.26,1071.12 1544.04,1167.36 1569.82,1143.6 1595.6,1190.14 1621.38,1131.57 1647.16,1141.17 1672.94,1003.13 1698.72,981.271 1724.5,903.719 1750.28,879.852 1776.06,891.256 1801.84,846.309 1827.62,820.594 1853.4,705.027 1879.18,734.063 1904.96,604.581 1930.74,562.677 1956.52,533.916 1982.3,507.732 2008.08,533.241 2033.86,499.197 2059.64,544.134 2085.42,536.48 2111.2,542.92 2136.98,731.965 2162.76,760.456 2188.54,679.939 2214.32,552.955 2240.1,443.557 2265.88,476.893 2291.66,509.427 "/>
<path clip-path="url(#clip612)" d="M255.035 890.118 L280.815 837.468 L306.595 782.07 L332.375 730.653 L358.155 695.963 L383.935 682.665 L409.715 655.228 L435.495 633.814 L461.275 639.197 L487.055 629.785 L512.835 663.975 L538.615 655.408 L564.395 640.711 L590.175 647.499 L615.955 652.665 L641.735 663.457 L667.515 677.088 L693.295 674.518 L719.075 665.71 L744.855 658.917 L770.635 680.853 L796.415 690.861 L822.195 722.35 L847.975 706.843 L873.755 666.519 L899.535 592.484 L925.316 551.211 L951.096 594.691 L976.876 631.229 L1002.66 653.32 L1028.44 677.424 L1054.22 649.322 L1080 688.163 L1105.78 677.07 L1131.56 632.175 L1157.34 595.25 L1183.12 546.047 L1208.9 530.758 L1234.68 483.818 L1260.46 427.303 L1286.24 406.299 L1312.02 420.87 L1337.8 465.57 L1363.58 522.873 L1389.36 555.1 L1415.14 625.886 L1440.92 676.441 L1466.7 693.605 L1492.48 723.173 L1518.26 711.601 L1544.04 751.96 L1569.82 756.515 L1595.6 786.814 L1621.38 811.998 L1647.16 816.481 L1672.94 881.624 L1698.72 929.589 L1724.5 936.75 L1750.28 995.335 L1776.06 993.578 L1801.84 1058.24 L1827.62 1074.53 L1853.4 1093.29 L1879.18 1109.27 L1904.96 1106.57 L1930.74 1095.36 L1956.52 1048.83 L1982.3 1018.03 L2008.08 943.302 L2033.86 884.98 L2059.64 848.669 L2085.42 859.752 L2111.2 829.326 L2136.98 806.603 L2162.76 815.5 L2188.54 834.805 L2214.32 856.243 L2240.1 857.097 L2265.88 856.393 L2291.66 859.663 L2291.66 575.796 L2265.88 579.655 L2240.1 601.079 L2214.32 620.318 L2188.54 634.921 L2162.76 611.442 L2136.98 582.234 L2111.2 585.122 L2085.42 607.372 L2059.64 578.771 L2033.86 631.26 L2008.08 689.169 L1982.3 769.884 L1956.52 815.652 L1930.74 876.33 L1904.96 877.575 L1879.18 879.721 L1853.4 830.558 L1827.62 845.403 L1801.84 812.431 L1776.06 745.111 L1750.28 727.423 L1724.5 713.732 L1698.72 704.684 L1672.94 655.526 L1647.16 582.146 L1621.38 566.142 L1595.6 575.417 L1569.82 534.122 L1544.04 527.735 L1518.26 488.708 L1492.48 486.537 L1466.7 482.742 L1440.92 468.281 L1415.14 397.216 L1389.36 315.597 L1363.58 269.813 L1337.8 237.379 L1312.02 208.952 L1286.24 200.505 L1260.46 214.505 L1234.68 256.959 L1208.9 290.28 L1183.12 333.285 L1157.34 352.615 L1131.56 377.406 L1105.78 411.238 L1080 456.14 L1054.22 430.678 L1028.44 443.184 L1002.66 453.572 L976.876 403.502 L951.096 367.63 L925.316 352.609 L899.535 376.295 L873.755 419.064 L847.975 465.71 L822.195 471.294 L796.415 448.526 L770.635 433.958 L744.855 457.313 L719.075 457.678 L693.295 481.952 L667.515 453.982 L641.735 414.087 L615.955 423.893 L590.175 417.753 L564.395 404.29 L538.615 431.195 L512.835 428.859 L487.055 420.562 L461.275 447.748 L435.495 434.254 L409.715 439.826 L383.935 475.617 L358.155 495.263 L332.375 515.943 L306.595 540.196 L280.815 556.943 L255.035 600.036  Z" fill="#e26f46" fill-rule="evenodd" fill-opacity="0.5"/>
<polyline clip-path="url(#clip612)" style="stroke:#e26f46; stroke-linecap:round; stroke-linejoin:round; stroke-width:4; stroke-opacity:1; fill:none" points="255.035,745.077 280.815,697.205 306.595,661.133 332.375,623.298 358.155,595.613 383.935,579.141 409.715,547.527 435.495,534.034 461.275,543.472 487.055,525.174 512.835,546.417 538.615,543.302 564.395,522.501 590.175,532.626 615.955,538.279 641.735,538.772 667.515,565.535 693.295,578.235 719.075,561.694 744.855,558.115 770.635,557.405 796.415,569.693 822.195,596.822 847.975,586.276 873.755,542.792 899.535,484.389 925.316,451.91 951.096,481.161 976.876,517.366 1002.66,553.446 1028.44,560.304 1054.22,540 1080,572.151 1105.78,544.154 1131.56,504.79 1157.34,473.932 1183.12,439.666 1208.9,410.519 1234.68,370.389 1260.46,320.904 1286.24,303.402 1312.02,314.911 1337.8,351.475 1363.58,396.343 1389.36,435.348 1415.14,511.551 1440.92,572.361 1466.7,588.174 1492.48,604.855 1518.26,600.154 1544.04,639.847 1569.82,645.318 1595.6,681.115 1621.38,689.07 1647.16,699.314 1672.94,768.575 1698.72,817.137 1724.5,825.241 1750.28,861.379 1776.06,869.344 1801.84,935.335 1827.62,959.964 1853.4,961.925 1879.18,994.498 1904.96,992.073 1930.74,985.844 1956.52,932.241 1982.3,893.959 2008.08,816.235 2033.86,758.12 2059.64,713.72 2085.42,733.562 2111.2,707.224 2136.98,694.419 2162.76,713.471 2188.54,734.863 2214.32,738.28 2240.1,729.088 2265.88,718.024 2291.66,717.729 "/>
<polyline clip-path="url(#clip612)" style="stroke:#3da44d; stroke-linecap:round; stroke-linejoin:round; stroke-width:4; stroke-opacity:1; fill:none" stroke-dasharray="16, 10" points="255.035,651.613 280.815,736.898 306.595,696.906 332.375,701.029 358.155,688.415 383.935,735.835 409.715,699.801 435.495,726.033 461.275,750.546 487.055,761.425 512.835,766.422 538.615,779.728 564.395,757.984 590.175,861.48 615.955,628.382 641.735,629.079 667.515,584.675 693.295,516.77 719.075,541.218 744.855,464.628 770.635,478.997 796.415,416.212 822.195,426.469 847.975,485 873.755,435.014 899.535,436.521 925.316,579.015 951.096,642.436 976.876,594.407 1002.66,573.25 1028.44,544.105 1054.22,588.094 1080,682.514 1105.78,683.247 1131.56,700.494 1157.34,659.956 1183.12,619.97 1208.9,573.382 1234.68,560.139 1260.46,705.374 1286.24,756.596 1312.02,760.994 1337.8,878.927 1363.58,940.105 1389.36,974.35 1415.14,1056.64 1440.92,1032.04 1466.7,1147.03 1492.48,1149.58 1518.26,1076.83 1544.04,1109.5 1569.82,993.882 1595.6,959.651 1621.38,885.931 1647.16,947.488 1672.94,832.598 1698.72,804.209 1724.5,768.558 1750.28,761.823 1776.06,834.091 1801.84,758.314 1827.62,581.015 1853.4,452.097 1879.18,505.391 1904.96,468.084 1930.74,401.228 1956.52,383.705 1982.3,426.452 2008.08,474.793 2033.86,272.339 2059.64,302.731 2085.42,338.584 2111.2,274.054 2136.98,584.56 2162.76,590.969 2188.54,526.498 2214.32,477.014 2240.1,400.659 2265.88,448.022 2291.66,512.5 "/>
<polyline clip-path="url(#clip612)" style="stroke:#c271d2; stroke-linecap:round; stroke-linejoin:round; stroke-width:4; stroke-opacity:1; fill:none" stroke-dasharray="16, 10" points="255.035,793.13 280.815,660.122 306.595,677.361 332.375,653.865 358.155,643.087 383.935,600.985 409.715,630.297 435.495,625.464 461.275,661.304 487.055,574.22 512.835,520.308 538.615,543.054 564.395,587.093 590.175,608.941 615.955,538.946 641.735,615.903 667.515,650.383 693.295,659.139 719.075,624.937 744.855,608.785 770.635,584.996 796.415,589.306 822.195,651.265 847.975,641.233 873.755,724.559 899.535,612.251 925.316,533.384 951.096,589.925 976.876,556.11 1002.66,587.536 1028.44,535.811 1054.22,531.254 1080,505.422 1105.78,545.617 1131.56,480.615 1157.34,526.946 1183.12,426.615 1208.9,434.546 1234.68,416.187 1260.46,328.862 1286.24,311.844 1312.02,279.137 1337.8,349.282 1363.58,388.725 1389.36,403.448 1415.14,487.947 1440.92,473.176 1466.7,483.077 1492.48,523.762 1518.26,572.101 1544.04,617.836 1569.82,693.156 1595.6,689.584 1621.38,672.264 1647.16,674.556 1672.94,683.475 1698.72,769.651 1724.5,836.312 1750.28,861.973 1776.06,860.857 1801.84,894.924 1827.62,930.93 1853.4,957.095 1879.18,968.705 1904.96,984.433 1930.74,985.788 1956.52,892.854 1982.3,822.365 2008.08,832.62 2033.86,754.965 2059.64,779.109 2085.42,722.674 2111.2,683.344 2136.98,702.904 2162.76,560.761 2188.54,686.864 2214.32,712.484 2240.1,746.811 2265.88,738.397 2291.66,755.277 "/>
<path clip-path="url(#clip610)" d="M265.897 354.418 L721.546 354.418 L721.546 95.2176 L265.897 95.2176  Z" fill="#ffffff" fill-rule="evenodd" fill-opacity="1"/>
<polyline clip-path="url(#clip610)" style="stroke:#000000; stroke-linecap:round; stroke-linejoin:round; stroke-width:4; stroke-opacity:1; fill:none" points="265.897,354.418 721.546,354.418 721.546,95.2176 265.897,95.2176 265.897,354.418 "/>
<polyline clip-path="url(#clip610)" style="stroke:#009af9; stroke-linecap:round; stroke-linejoin:round; stroke-width:4; stroke-opacity:1; fill:none" points="289.884,147.058 433.805,147.058 "/>
<path clip-path="url(#clip610)" d="M462.468 133.62 L462.468 146.606 L468.347 146.606 Q471.611 146.606 473.394 144.916 Q475.176 143.227 475.176 140.102 Q475.176 137 473.394 135.31 Q471.611 133.62 468.347 133.62 L462.468 133.62 M457.792 129.778 L468.347 129.778 Q474.157 129.778 477.12 132.416 Q480.106 135.032 480.106 140.102 Q480.106 145.217 477.12 147.833 Q474.157 150.449 468.347 150.449 L462.468 150.449 L462.468 164.338 L457.792 164.338 L457.792 129.778 Z" fill="#000000" fill-rule="nonzero" fill-opacity="1" /><path clip-path="url(#clip610)" d="M486.38 129.778 L506.241 129.778 L506.241 133.713 L491.055 133.713 L491.055 143.898 L504.759 143.898 L504.759 147.833 L491.055 147.833 L491.055 164.338 L486.38 164.338 L486.38 129.778 Z" fill="#000000" fill-rule="nonzero" fill-opacity="1" /><path clip-path="url(#clip610)" d="M545.06 139.176 L545.06 143.203 Q543.254 142.277 541.31 141.815 Q539.365 141.352 537.282 141.352 Q534.111 141.352 532.514 142.324 Q530.94 143.296 530.94 145.24 Q530.94 146.722 532.074 147.578 Q533.208 148.412 536.634 149.176 L538.092 149.5 Q542.629 150.472 544.527 152.254 Q546.449 154.014 546.449 157.185 Q546.449 160.796 543.578 162.902 Q540.731 165.009 535.731 165.009 Q533.648 165.009 531.379 164.592 Q529.134 164.199 526.634 163.388 L526.634 158.99 Q528.995 160.217 531.287 160.842 Q533.578 161.444 535.824 161.444 Q538.833 161.444 540.453 160.426 Q542.074 159.384 542.074 157.509 Q542.074 155.773 540.893 154.847 Q539.736 153.921 535.777 153.064 L534.296 152.717 Q530.338 151.884 528.578 150.171 Q526.819 148.435 526.819 145.426 Q526.819 141.768 529.412 139.778 Q532.004 137.787 536.773 137.787 Q539.134 137.787 541.217 138.134 Q543.301 138.481 545.06 139.176 Z" fill="#000000" fill-rule="nonzero" fill-opacity="1" /><path clip-path="url(#clip610)" d="M573.416 143.389 Q575.013 140.518 577.236 139.153 Q579.458 137.787 582.467 137.787 Q586.518 137.787 588.717 140.634 Q590.916 143.458 590.916 148.689 L590.916 164.338 L586.634 164.338 L586.634 148.828 Q586.634 145.102 585.314 143.296 Q583.995 141.49 581.286 141.49 Q577.976 141.49 576.055 143.69 Q574.134 145.889 574.134 149.685 L574.134 164.338 L569.851 164.338 L569.851 148.828 Q569.851 145.078 568.532 143.296 Q567.212 141.49 564.458 141.49 Q561.194 141.49 559.273 143.713 Q557.351 145.912 557.351 149.685 L557.351 164.338 L553.069 164.338 L553.069 138.412 L557.351 138.412 L557.351 142.44 Q558.81 140.055 560.847 138.921 Q562.884 137.787 565.685 137.787 Q568.509 137.787 570.476 139.222 Q572.467 140.657 573.416 143.389 Z" fill="#000000" fill-rule="nonzero" fill-opacity="1" /><path clip-path="url(#clip610)" d="M609.458 141.398 Q606.032 141.398 604.041 144.083 Q602.05 146.745 602.05 151.398 Q602.05 156.051 604.018 158.736 Q606.009 161.398 609.458 161.398 Q612.86 161.398 614.851 158.713 Q616.842 156.027 616.842 151.398 Q616.842 146.791 614.851 144.106 Q612.86 141.398 609.458 141.398 M609.458 137.787 Q615.013 137.787 618.184 141.398 Q621.356 145.009 621.356 151.398 Q621.356 157.764 618.184 161.398 Q615.013 165.009 609.458 165.009 Q603.879 165.009 600.708 161.398 Q597.56 157.764 597.56 151.398 Q597.56 145.009 600.708 141.398 Q603.879 137.787 609.458 137.787 Z" fill="#000000" fill-rule="nonzero" fill-opacity="1" /><path clip-path="url(#clip610)" d="M638.462 141.398 Q635.036 141.398 633.045 144.083 Q631.055 146.745 631.055 151.398 Q631.055 156.051 633.022 158.736 Q635.013 161.398 638.462 161.398 Q641.865 161.398 643.856 158.713 Q645.846 156.027 645.846 151.398 Q645.846 146.791 643.856 144.106 Q641.865 141.398 638.462 141.398 M638.462 137.787 Q644.018 137.787 647.189 141.398 Q650.36 145.009 650.36 151.398 Q650.36 157.764 647.189 161.398 Q644.018 165.009 638.462 165.009 Q632.883 165.009 629.712 161.398 Q626.564 157.764 626.564 151.398 Q626.564 145.009 629.712 141.398 Q632.883 137.787 638.462 137.787 Z" fill="#000000" fill-rule="nonzero" fill-opacity="1" /><path clip-path="url(#clip610)" d="M661.633 131.051 L661.633 138.412 L670.406 138.412 L670.406 141.722 L661.633 141.722 L661.633 155.796 Q661.633 158.967 662.49 159.87 Q663.369 160.773 666.031 160.773 L670.406 160.773 L670.406 164.338 L666.031 164.338 Q661.101 164.338 659.226 162.509 Q657.351 160.657 657.351 155.796 L657.351 141.722 L654.226 141.722 L654.226 138.412 L657.351 138.412 L657.351 131.051 L661.633 131.051 Z" fill="#000000" fill-rule="nonzero" fill-opacity="1" /><path clip-path="url(#clip610)" d="M697.559 148.689 L697.559 164.338 L693.3 164.338 L693.3 148.828 Q693.3 145.148 691.865 143.319 Q690.429 141.49 687.559 141.49 Q684.11 141.49 682.119 143.69 Q680.129 145.889 680.129 149.685 L680.129 164.338 L675.846 164.338 L675.846 128.319 L680.129 128.319 L680.129 142.44 Q681.656 140.102 683.716 138.944 Q685.8 137.787 688.508 137.787 Q692.976 137.787 695.267 140.565 Q697.559 143.319 697.559 148.689 Z" fill="#000000" fill-rule="nonzero" fill-opacity="1" /><polyline clip-path="url(#clip610)" style="stroke:#e26f46; stroke-linecap:round; stroke-linejoin:round; stroke-width:4; stroke-opacity:1; fill:none" points="289.884,198.898 433.805,198.898 "/>
<path clip-path="url(#clip610)" d="M462.468 185.46 L462.468 198.446 L468.347 198.446 Q471.611 198.446 473.394 196.756 Q475.176 195.067 475.176 191.942 Q475.176 188.84 473.394 187.15 Q471.611 185.46 468.347 185.46 L462.468 185.46 M457.792 181.618 L468.347 181.618 Q474.157 181.618 477.12 184.256 Q480.106 186.872 480.106 191.942 Q480.106 197.057 477.12 199.673 Q474.157 202.289 468.347 202.289 L462.468 202.289 L462.468 216.178 L457.792 216.178 L457.792 181.618 Z" fill="#000000" fill-rule="nonzero" fill-opacity="1" /><path clip-path="url(#clip610)" d="M486.38 181.618 L506.241 181.618 L506.241 185.553 L491.055 185.553 L491.055 195.738 L504.759 195.738 L504.759 199.673 L491.055 199.673 L491.055 216.178 L486.38 216.178 L486.38 181.618 Z" fill="#000000" fill-rule="nonzero" fill-opacity="1" /><path clip-path="url(#clip610)" d="M545.06 191.016 L545.06 195.043 Q543.254 194.117 541.31 193.655 Q539.365 193.192 537.282 193.192 Q534.111 193.192 532.514 194.164 Q530.94 195.136 530.94 197.08 Q530.94 198.562 532.074 199.418 Q533.208 200.252 536.634 201.016 L538.092 201.34 Q542.629 202.312 544.527 204.094 Q546.449 205.854 546.449 209.025 Q546.449 212.636 543.578 214.742 Q540.731 216.849 535.731 216.849 Q533.648 216.849 531.379 216.432 Q529.134 216.039 526.634 215.228 L526.634 210.83 Q528.995 212.057 531.287 212.682 Q533.578 213.284 535.824 213.284 Q538.833 213.284 540.453 212.266 Q542.074 211.224 542.074 209.349 Q542.074 207.613 540.893 206.687 Q539.736 205.761 535.777 204.904 L534.296 204.557 Q530.338 203.724 528.578 202.011 Q526.819 200.275 526.819 197.266 Q526.819 193.608 529.412 191.618 Q532.004 189.627 536.773 189.627 Q539.134 189.627 541.217 189.974 Q543.301 190.321 545.06 191.016 Z" fill="#000000" fill-rule="nonzero" fill-opacity="1" /><path clip-path="url(#clip610)" d="M573.416 195.229 Q575.013 192.358 577.236 190.993 Q579.458 189.627 582.467 189.627 Q586.518 189.627 588.717 192.474 Q590.916 195.298 590.916 200.529 L590.916 216.178 L586.634 216.178 L586.634 200.668 Q586.634 196.942 585.314 195.136 Q583.995 193.33 581.286 193.33 Q577.976 193.33 576.055 195.53 Q574.134 197.729 574.134 201.525 L574.134 216.178 L569.851 216.178 L569.851 200.668 Q569.851 196.918 568.532 195.136 Q567.212 193.33 564.458 193.33 Q561.194 193.33 559.273 195.553 Q557.351 197.752 557.351 201.525 L557.351 216.178 L553.069 216.178 L553.069 190.252 L557.351 190.252 L557.351 194.28 Q558.81 191.895 560.847 190.761 Q562.884 189.627 565.685 189.627 Q568.509 189.627 570.476 191.062 Q572.467 192.497 573.416 195.229 Z" fill="#000000" fill-rule="nonzero" fill-opacity="1" /><path clip-path="url(#clip610)" d="M609.458 193.238 Q606.032 193.238 604.041 195.923 Q602.05 198.585 602.05 203.238 Q602.05 207.891 604.018 210.576 Q606.009 213.238 609.458 213.238 Q612.86 213.238 614.851 210.553 Q616.842 207.867 616.842 203.238 Q616.842 198.631 614.851 195.946 Q612.86 193.238 609.458 193.238 M609.458 189.627 Q615.013 189.627 618.184 193.238 Q621.356 196.849 621.356 203.238 Q621.356 209.604 618.184 213.238 Q615.013 216.849 609.458 216.849 Q603.879 216.849 600.708 213.238 Q597.56 209.604 597.56 203.238 Q597.56 196.849 600.708 193.238 Q603.879 189.627 609.458 189.627 Z" fill="#000000" fill-rule="nonzero" fill-opacity="1" /><path clip-path="url(#clip610)" d="M638.462 193.238 Q635.036 193.238 633.045 195.923 Q631.055 198.585 631.055 203.238 Q631.055 207.891 633.022 210.576 Q635.013 213.238 638.462 213.238 Q641.865 213.238 643.856 210.553 Q645.846 207.867 645.846 203.238 Q645.846 198.631 643.856 195.946 Q641.865 193.238 638.462 193.238 M638.462 189.627 Q644.018 189.627 647.189 193.238 Q650.36 196.849 650.36 203.238 Q650.36 209.604 647.189 213.238 Q644.018 216.849 638.462 216.849 Q632.883 216.849 629.712 213.238 Q626.564 209.604 626.564 203.238 Q626.564 196.849 629.712 193.238 Q632.883 189.627 638.462 189.627 Z" fill="#000000" fill-rule="nonzero" fill-opacity="1" /><path clip-path="url(#clip610)" d="M661.633 182.891 L661.633 190.252 L670.406 190.252 L670.406 193.562 L661.633 193.562 L661.633 207.636 Q661.633 210.807 662.49 211.71 Q663.369 212.613 666.031 212.613 L670.406 212.613 L670.406 216.178 L666.031 216.178 Q661.101 216.178 659.226 214.349 Q657.351 212.497 657.351 207.636 L657.351 193.562 L654.226 193.562 L654.226 190.252 L657.351 190.252 L657.351 182.891 L661.633 182.891 Z" fill="#000000" fill-rule="nonzero" fill-opacity="1" /><path clip-path="url(#clip610)" d="M697.559 200.529 L697.559 216.178 L693.3 216.178 L693.3 200.668 Q693.3 196.988 691.865 195.159 Q690.429 193.33 687.559 193.33 Q684.11 193.33 682.119 195.53 Q680.129 197.729 680.129 201.525 L680.129 216.178 L675.846 216.178 L675.846 180.159 L680.129 180.159 L680.129 194.28 Q681.656 191.942 683.716 190.784 Q685.8 189.627 688.508 189.627 Q692.976 189.627 695.267 192.405 Q697.559 195.159 697.559 200.529 Z" fill="#000000" fill-rule="nonzero" fill-opacity="1" /><polyline clip-path="url(#clip610)" style="stroke:#3da44d; stroke-linecap:round; stroke-linejoin:round; stroke-width:4; stroke-opacity:1; fill:none" stroke-dasharray="16, 10" points="289.884,250.738 433.805,250.738 "/>
<path clip-path="url(#clip610)" d="M457.792 233.458 L487.028 233.458 L487.028 237.393 L474.759 237.393 L474.759 268.018 L470.06 268.018 L470.06 237.393 L457.792 237.393 L457.792 233.458 Z" fill="#000000" fill-rule="nonzero" fill-opacity="1" /><path clip-path="url(#clip610)" d="M499.412 246.073 Q498.694 245.657 497.838 245.471 Q497.005 245.263 495.986 245.263 Q492.375 245.263 490.43 247.624 Q488.509 249.962 488.509 254.36 L488.509 268.018 L484.227 268.018 L484.227 242.092 L488.509 242.092 L488.509 246.12 Q489.852 243.758 492.005 242.624 Q494.157 241.467 497.236 241.467 Q497.676 241.467 498.208 241.536 Q498.741 241.583 499.389 241.698 L499.412 246.073 Z" fill="#000000" fill-rule="nonzero" fill-opacity="1" /><path clip-path="url(#clip610)" d="M503.44 257.786 L503.44 242.092 L507.699 242.092 L507.699 257.624 Q507.699 261.305 509.134 263.156 Q510.569 264.985 513.44 264.985 Q516.889 264.985 518.879 262.786 Q520.893 260.587 520.893 256.791 L520.893 242.092 L525.153 242.092 L525.153 268.018 L520.893 268.018 L520.893 264.036 Q519.342 266.397 517.282 267.555 Q515.245 268.689 512.537 268.689 Q508.069 268.689 505.754 265.911 Q503.44 263.133 503.44 257.786 M514.157 241.467 L514.157 241.467 Z" fill="#000000" fill-rule="nonzero" fill-opacity="1" /><path clip-path="url(#clip610)" d="M556.101 253.99 L556.101 256.073 L536.518 256.073 Q536.796 260.471 539.157 262.786 Q541.541 265.078 545.777 265.078 Q548.231 265.078 550.523 264.476 Q552.838 263.874 555.106 262.67 L555.106 266.698 Q552.814 267.67 550.407 268.18 Q548 268.689 545.523 268.689 Q539.319 268.689 535.685 265.078 Q532.074 261.467 532.074 255.309 Q532.074 248.944 535.5 245.217 Q538.949 241.467 544.782 241.467 Q550.013 241.467 553.046 244.846 Q556.101 248.203 556.101 253.99 M551.842 252.74 Q551.796 249.245 549.875 247.161 Q547.976 245.078 544.828 245.078 Q541.264 245.078 539.111 247.092 Q536.981 249.106 536.657 252.763 L551.842 252.74 Z" fill="#000000" fill-rule="nonzero" fill-opacity="1" /><polyline clip-path="url(#clip610)" style="stroke:#c271d2; stroke-linecap:round; stroke-linejoin:round; stroke-width:4; stroke-opacity:1; fill:none" stroke-dasharray="16, 10" points="289.884,302.578 433.805,302.578 "/>
<path clip-path="url(#clip610)" d="M457.792 285.298 L487.028 285.298 L487.028 289.233 L474.759 289.233 L474.759 319.858 L470.06 319.858 L470.06 289.233 L457.792 289.233 L457.792 285.298 Z" fill="#000000" fill-rule="nonzero" fill-opacity="1" /><path clip-path="url(#clip610)" d="M499.412 297.913 Q498.694 297.497 497.838 297.311 Q497.005 297.103 495.986 297.103 Q492.375 297.103 490.43 299.464 Q488.509 301.802 488.509 306.2 L488.509 319.858 L484.227 319.858 L484.227 293.932 L488.509 293.932 L488.509 297.96 Q489.852 295.598 492.005 294.464 Q494.157 293.307 497.236 293.307 Q497.676 293.307 498.208 293.376 Q498.741 293.423 499.389 293.538 L499.412 297.913 Z" fill="#000000" fill-rule="nonzero" fill-opacity="1" /><path clip-path="url(#clip610)" d="M503.44 309.626 L503.44 293.932 L507.699 293.932 L507.699 309.464 Q507.699 313.145 509.134 314.996 Q510.569 316.825 513.44 316.825 Q516.889 316.825 518.879 314.626 Q520.893 312.427 520.893 308.631 L520.893 293.932 L525.153 293.932 L525.153 319.858 L520.893 319.858 L520.893 315.876 Q519.342 318.237 517.282 319.395 Q515.245 320.529 512.537 320.529 Q508.069 320.529 505.754 317.751 Q503.44 314.973 503.44 309.626 M514.157 293.307 L514.157 293.307 Z" fill="#000000" fill-rule="nonzero" fill-opacity="1" /><path clip-path="url(#clip610)" d="M556.101 305.83 L556.101 307.913 L536.518 307.913 Q536.796 312.311 539.157 314.626 Q541.541 316.918 545.777 316.918 Q548.231 316.918 550.523 316.316 Q552.838 315.714 555.106 314.51 L555.106 318.538 Q552.814 319.51 550.407 320.02 Q548 320.529 545.523 320.529 Q539.319 320.529 535.685 316.918 Q532.074 313.307 532.074 307.149 Q532.074 300.784 535.5 297.057 Q538.949 293.307 544.782 293.307 Q550.013 293.307 553.046 296.686 Q556.101 300.043 556.101 305.83 M551.842 304.58 Q551.796 301.085 549.875 299.001 Q547.976 296.918 544.828 296.918 Q541.264 296.918 539.111 298.932 Q536.981 300.946 536.657 304.603 L551.842 304.58 Z" fill="#000000" fill-rule="nonzero" fill-opacity="1" /></svg>
