<?xml version="1.0" encoding="utf-8"?>
<svg xmlns="http://www.w3.org/2000/svg" xmlns:xlink="http://www.w3.org/1999/xlink" width="600" height="400" viewBox="0 0 2400 1600">
<defs>
  <clipPath id="clip620">
    <rect x="0" y="0" width="2400" height="1600"/>
  </clipPath>
</defs>
<path clip-path="url(#clip620)" d="M0 1600 L2400 1600 L2400 0 L0 0  Z" fill="#ffffff" fill-rule="evenodd" fill-opacity="1"/>
<defs>
  <clipPath id="clip621">
    <rect x="480" y="0" width="1681" height="1600"/>
  </clipPath>
</defs>
<path clip-path="url(#clip620)" d="M140.51 1486.45 L2352.76 1486.45 L2352.76 47.2441 L140.51 47.2441  Z" fill="#ffffff" fill-rule="evenodd" fill-opacity="1"/>
<defs>
  <clipPath id="clip622">
    <rect x="140" y="47" width="2213" height="1440"/>
  </clipPath>
</defs>
<polyline clip-path="url(#clip622)" style="stroke:#000000; stroke-linecap:round; stroke-linejoin:round; stroke-width:2; stroke-opacity:0.1; fill:none" points="353.349,1486.45 353.349,47.2441 "/>
<polyline clip-path="url(#clip622)" style="stroke:#000000; stroke-linecap:round; stroke-linejoin:round; stroke-width:2; stroke-opacity:0.1; fill:none" points="787.038,1486.45 787.038,47.2441 "/>
<polyline clip-path="url(#clip622)" style="stroke:#000000; stroke-linecap:round; stroke-linejoin:round; stroke-width:2; stroke-opacity:0.1; fill:none" points="1220.73,1486.45 1220.73,47.2441 "/>
<polyline clip-path="url(#clip622)" style="stroke:#000000; stroke-linecap:round; stroke-linejoin:round; stroke-width:2; stroke-opacity:0.1; fill:none" points="1654.42,1486.45 1654.42,47.2441 "/>
<polyline clip-path="url(#clip622)" style="stroke:#000000; stroke-linecap:round; stroke-linejoin:round; stroke-width:2; stroke-opacity:0.1; fill:none" points="2088.1,1486.45 2088.1,47.2441 "/>
<polyline clip-path="url(#clip622)" style="stroke:#000000; stroke-linecap:round; stroke-linejoin:round; stroke-width:2; stroke-opacity:0.1; fill:none" points="140.51,1180.23 2352.76,1180.23 "/>
<polyline clip-path="url(#clip622)" style="stroke:#000000; stroke-linecap:round; stroke-linejoin:round; stroke-width:2; stroke-opacity:0.1; fill:none" points="140.51,872.483 2352.76,872.483 "/>
<polyline clip-path="url(#clip622)" style="stroke:#000000; stroke-linecap:round; stroke-linejoin:round; stroke-width:2; stroke-opacity:0.1; fill:none" points="140.51,564.737 2352.76,564.737 "/>
<polyline clip-path="url(#clip622)" style="stroke:#000000; stroke-linecap:round; stroke-linejoin:round; stroke-width:2; stroke-opacity:0.1; fill:none" points="140.51,256.991 2352.76,256.991 "/>
<polyline clip-path="url(#clip620)" style="stroke:#000000; stroke-linecap:round; stroke-linejoin:round; stroke-width:4; stroke-opacity:1; fill:none" points="140.51,1486.45 2352.76,1486.45 "/>
<polyline clip-path="url(#clip620)" style="stroke:#000000; stroke-linecap:round; stroke-linejoin:round; stroke-width:4; stroke-opacity:1; fill:none" points="353.349,1486.45 353.349,1467.55 "/>
<polyline clip-path="url(#clip620)" style="stroke:#000000; stroke-linecap:round; stroke-linejoin:round; stroke-width:4; stroke-opacity:1; fill:none" points="787.038,1486.45 787.038,1467.55 "/>
<polyline clip-path="url(#clip620)" style="stroke:#000000; stroke-linecap:round; stroke-linejoin:round; stroke-width:4; stroke-opacity:1; fill:none" points="1220.73,1486.45 1220.73,1467.55 "/>
<polyline clip-path="url(#clip620)" style="stroke:#000000; stroke-linecap:round; stroke-linejoin:round; stroke-width:4; stroke-opacity:1; fill:none" points="1654.42,1486.45 1654.42,1467.55 "/>
<polyline clip-path="url(#clip620)" style="stroke:#000000; stroke-linecap:round; stroke-linejoin:round; stroke-width:4; stroke-opacity:1; fill:none" points="2088.1,1486.45 2088.1,1467.55 "/>
<path clip-path="url(#clip620)" d="M307.412 1532.02 L337.087 1532.02 L337.087 1535.95 L307.412 1535.95 L307.412 1532.02 Z" fill="#000000" fill-rule="nonzero" fill-opacity="1" /><path clip-path="url(#clip620)" d="M361.347 1530.21 Q364.703 1530.93 366.578 1533.2 Q368.476 1535.47 368.476 1538.8 Q368.476 1543.92 364.958 1546.72 Q361.439 1549.52 354.958 1549.52 Q352.782 1549.52 350.467 1549.08 Q348.175 1548.66 345.722 1547.81 L345.722 1543.29 Q347.666 1544.43 349.981 1545.01 Q352.296 1545.58 354.819 1545.58 Q359.217 1545.58 361.509 1543.85 Q363.823 1542.11 363.823 1538.8 Q363.823 1535.75 361.671 1534.03 Q359.541 1532.3 355.722 1532.3 L351.694 1532.3 L351.694 1528.45 L355.907 1528.45 Q359.356 1528.45 361.185 1527.09 Q363.013 1525.7 363.013 1523.11 Q363.013 1520.45 361.115 1519.03 Q359.24 1517.6 355.722 1517.6 Q353.8 1517.6 351.601 1518.01 Q349.402 1518.43 346.763 1519.31 L346.763 1515.14 Q349.425 1514.4 351.74 1514.03 Q354.078 1513.66 356.138 1513.66 Q361.462 1513.66 364.564 1516.09 Q367.666 1518.5 367.666 1522.62 Q367.666 1525.49 366.023 1527.48 Q364.379 1529.45 361.347 1530.21 Z" fill="#000000" fill-rule="nonzero" fill-opacity="1" /><path clip-path="url(#clip620)" d="M387.342 1517.37 Q383.731 1517.37 381.902 1520.93 Q380.097 1524.47 380.097 1531.6 Q380.097 1538.71 381.902 1542.27 Q383.731 1545.82 387.342 1545.82 Q390.976 1545.82 392.782 1542.27 Q394.61 1538.71 394.61 1531.6 Q394.61 1524.47 392.782 1520.93 Q390.976 1517.37 387.342 1517.37 M387.342 1513.66 Q393.152 1513.66 396.208 1518.27 Q399.286 1522.85 399.286 1531.6 Q399.286 1540.33 396.208 1544.94 Q393.152 1549.52 387.342 1549.52 Q381.532 1549.52 378.453 1544.94 Q375.397 1540.33 375.397 1531.6 Q375.397 1522.85 378.453 1518.27 Q381.532 1513.66 387.342 1513.66 Z" fill="#000000" fill-rule="nonzero" fill-opacity="1" /><path clip-path="url(#clip620)" d="M787.038 1517.37 Q783.427 1517.37 781.598 1520.93 Q779.792 1524.47 779.792 1531.6 Q779.792 1538.71 781.598 1542.27 Q783.427 1545.82 787.038 1545.82 Q790.672 1545.82 792.478 1542.27 Q794.306 1538.71 794.306 1531.6 Q794.306 1524.47 792.478 1520.93 Q790.672 1517.37 787.038 1517.37 M787.038 1513.66 Q792.848 1513.66 795.903 1518.27 Q798.982 1522.85 798.982 1531.6 Q798.982 1540.33 795.903 1544.94 Q792.848 1549.52 787.038 1549.52 Q781.228 1549.52 778.149 1544.94 Q775.093 1540.33 775.093 1531.6 Q775.093 1522.85 778.149 1518.27 Q781.228 1513.66 787.038 1513.66 Z" fill="#000000" fill-rule="nonzero" fill-opacity="1" /><path clip-path="url(#clip620)" d="M1209.57 1530.21 Q1212.93 1530.93 1214.8 1533.2 Q1216.7 1535.47 1216.7 1538.8 Q1216.7 1543.92 1213.18 1546.72 Q1209.66 1549.52 1203.18 1549.52 Q1201 1549.52 1198.69 1549.08 Q1196.4 1548.66 1193.94 1547.81 L1193.94 1543.29 Q1195.89 1544.43 1198.2 1545.01 Q1200.52 1545.58 1203.04 1545.58 Q1207.44 1545.58 1209.73 1543.85 Q1212.05 1542.11 1212.05 1538.8 Q1212.05 1535.75 1209.89 1534.03 Q1207.76 1532.3 1203.94 1532.3 L1199.92 1532.3 L1199.92 1528.45 L1204.13 1528.45 Q1207.58 1528.45 1209.41 1527.09 Q1211.24 1525.7 1211.24 1523.11 Q1211.24 1520.45 1209.34 1519.03 Q1207.46 1517.6 1203.94 1517.6 Q1202.02 1517.6 1199.82 1518.01 Q1197.62 1518.43 1194.99 1519.31 L1194.99 1515.14 Q1197.65 1514.4 1199.96 1514.03 Q1202.3 1513.66 1204.36 1513.66 Q1209.68 1513.66 1212.79 1516.09 Q1215.89 1518.5 1215.89 1522.62 Q1215.89 1525.49 1214.25 1527.48 Q1212.6 1529.45 1209.57 1530.21 Z" fill="#000000" fill-rule="nonzero" fill-opacity="1" /><path clip-path="url(#clip620)" d="M1235.56 1517.37 Q1231.95 1517.37 1230.12 1520.93 Q1228.32 1524.47 1228.32 1531.6 Q1228.32 1538.71 1230.12 1542.27 Q1231.95 1545.82 1235.56 1545.82 Q1239.2 1545.82 1241 1542.27 Q1242.83 1538.71 1242.83 1531.6 Q1242.83 1524.47 1241 1520.93 Q1239.2 1517.37 1235.56 1517.37 M1235.56 1513.66 Q1241.37 1513.66 1244.43 1518.27 Q1247.51 1522.85 1247.51 1531.6 Q1247.51 1540.33 1244.43 1544.94 Q1241.37 1549.52 1235.56 1549.52 Q1229.75 1549.52 1226.68 1544.94 Q1223.62 1540.33 1223.62 1531.6 Q1223.62 1522.85 1226.68 1518.27 Q1229.75 1513.66 1235.56 1513.66 Z" fill="#000000" fill-rule="nonzero" fill-opacity="1" /><path clip-path="url(#clip620)" d="M1639.82 1529.7 Q1636.67 1529.7 1634.82 1531.86 Q1632.99 1534.01 1632.99 1537.76 Q1632.99 1541.49 1634.82 1543.66 Q1636.67 1545.82 1639.82 1545.82 Q1642.97 1545.82 1644.8 1543.66 Q1646.65 1541.49 1646.65 1537.76 Q1646.65 1534.01 1644.8 1531.86 Q1642.97 1529.7 1639.82 1529.7 M1649.1 1515.05 L1649.1 1519.31 Q1647.34 1518.48 1645.54 1518.04 Q1643.76 1517.6 1642 1517.6 Q1637.37 1517.6 1634.91 1520.72 Q1632.48 1523.85 1632.14 1530.17 Q1633.5 1528.15 1635.56 1527.09 Q1637.62 1526 1640.1 1526 Q1645.31 1526 1648.32 1529.17 Q1651.35 1532.32 1651.35 1537.76 Q1651.35 1543.08 1648.2 1546.3 Q1645.05 1549.52 1639.82 1549.52 Q1633.83 1549.52 1630.65 1544.94 Q1627.48 1540.33 1627.48 1531.6 Q1627.48 1523.41 1631.37 1518.55 Q1635.26 1513.66 1641.81 1513.66 Q1643.57 1513.66 1645.35 1514.01 Q1647.16 1514.36 1649.1 1515.05 Z" fill="#000000" fill-rule="nonzero" fill-opacity="1" /><path clip-path="url(#clip620)" d="M1669.4 1517.37 Q1665.79 1517.37 1663.96 1520.93 Q1662.16 1524.47 1662.16 1531.6 Q1662.16 1538.71 1663.96 1542.27 Q1665.79 1545.82 1669.4 1545.82 Q1673.04 1545.82 1674.84 1542.27 Q1676.67 1538.71 1676.67 1531.6 Q1676.67 1524.47 1674.84 1520.93 Q1673.04 1517.37 1669.4 1517.37 M1669.4 1513.66 Q1675.21 1513.66 1678.27 1518.27 Q1681.35 1522.85 1681.35 1531.6 Q1681.35 1540.33 1678.27 1544.94 Q1675.21 1549.52 1669.4 1549.52 Q1663.59 1549.52 1660.51 1544.94 Q1657.46 1540.33 1657.46 1531.6 Q1657.46 1522.85 1660.51 1518.27 Q1663.59 1513.66 1669.4 1513.66 Z" fill="#000000" fill-rule="nonzero" fill-opacity="1" /><path clip-path="url(#clip620)" d="M2063.23 1548.13 L2063.23 1543.87 Q2064.99 1544.7 2066.8 1545.14 Q2068.6 1545.58 2070.34 1545.58 Q2074.97 1545.58 2077.4 1542.48 Q2079.85 1539.36 2080.2 1533.01 Q2078.86 1535.01 2076.8 1536.07 Q2074.74 1537.13 2072.24 1537.13 Q2067.05 1537.13 2064.02 1534.01 Q2061.01 1530.86 2061.01 1525.42 Q2061.01 1520.1 2064.16 1516.88 Q2067.31 1513.66 2072.54 1513.66 Q2078.53 1513.66 2081.68 1518.27 Q2084.85 1522.85 2084.85 1531.6 Q2084.85 1539.77 2080.96 1544.66 Q2077.1 1549.52 2070.55 1549.52 Q2068.79 1549.52 2066.98 1549.17 Q2065.18 1548.82 2063.23 1548.13 M2072.54 1533.48 Q2075.69 1533.48 2077.51 1531.32 Q2079.37 1529.17 2079.37 1525.42 Q2079.37 1521.7 2077.51 1519.54 Q2075.69 1517.37 2072.54 1517.37 Q2069.39 1517.37 2067.54 1519.54 Q2065.71 1521.7 2065.71 1525.42 Q2065.71 1529.17 2067.54 1531.32 Q2069.39 1533.48 2072.54 1533.48 Z" fill="#000000" fill-rule="nonzero" fill-opacity="1" /><path clip-path="url(#clip620)" d="M2103.25 1517.37 Q2099.64 1517.37 2097.81 1520.93 Q2096.01 1524.47 2096.01 1531.6 Q2096.01 1538.71 2097.81 1542.27 Q2099.64 1545.82 2103.25 1545.82 Q2106.89 1545.82 2108.69 1542.27 Q2110.52 1538.71 2110.52 1531.6 Q2110.52 1524.47 2108.69 1520.93 Q2106.89 1517.37 2103.25 1517.37 M2103.25 1513.66 Q2109.06 1513.66 2112.12 1518.27 Q2115.2 1522.85 2115.2 1531.6 Q2115.2 1540.33 2112.12 1544.94 Q2109.06 1549.52 2103.25 1549.52 Q2097.44 1549.52 2094.37 1544.94 Q2091.31 1540.33 2091.31 1531.6 Q2091.31 1522.85 2094.37 1518.27 Q2097.44 1513.66 2103.25 1513.66 Z" fill="#000000" fill-rule="nonzero" fill-opacity="1" /><polyline clip-path="url(#clip620)" style="stroke:#000000; stroke-linecap:round; stroke-linejoin:round; stroke-width:4; stroke-opacity:1; fill:none" points="140.51,1486.45 140.51,47.2441 "/>
<polyline clip-path="url(#clip620)" style="stroke:#000000; stroke-linecap:round; stroke-linejoin:round; stroke-width:4; stroke-opacity:1; fill:none" points="140.51,1180.23 159.408,1180.23 "/>
<polyline clip-path="url(#clip620)" style="stroke:#000000; stroke-linecap:round; stroke-linejoin:round; stroke-width:4; stroke-opacity:1; fill:none" points="140.51,872.483 159.408,872.483 "/>
<polyline clip-path="url(#clip620)" style="stroke:#000000; stroke-linecap:round; stroke-linejoin:round; stroke-width:4; stroke-opacity:1; fill:none" points="140.51,564.737 159.408,564.737 "/>
<polyline clip-path="url(#clip620)" style="stroke:#000000; stroke-linecap:round; stroke-linejoin:round; stroke-width:4; stroke-opacity:1; fill:none" points="140.51,256.991 159.408,256.991 "/>
<path clip-path="url(#clip620)" d="M92.566 1166.03 Q88.9549 1166.03 87.1262 1169.59 Q85.3206 1173.13 85.3206 1180.26 Q85.3206 1187.37 87.1262 1190.94 Q88.9549 1194.48 92.566 1194.48 Q96.2002 1194.48 98.0058 1190.94 Q99.8345 1187.37 99.8345 1180.26 Q99.8345 1173.13 98.0058 1169.59 Q96.2002 1166.03 92.566 1166.03 M92.566 1162.32 Q98.3761 1162.32 101.432 1166.93 Q104.51 1171.51 104.51 1180.26 Q104.51 1188.99 101.432 1193.6 Q98.3761 1198.18 92.566 1198.18 Q86.7558 1198.18 83.6771 1193.6 Q80.6216 1188.99 80.6216 1180.26 Q80.6216 1171.51 83.6771 1166.93 Q86.7558 1162.32 92.566 1162.32 Z" fill="#000000" fill-rule="nonzero" fill-opacity="1" /><path clip-path="url(#clip620)" d="M57.4273 885.828 L73.7466 885.828 L73.7466 889.763 L51.8023 889.763 L51.8023 885.828 Q54.4643 883.073 59.0476 878.444 Q63.6541 873.791 64.8346 872.448 Q67.08 869.925 67.9596 868.189 Q68.8624 866.43 68.8624 864.74 Q68.8624 861.985 66.918 860.249 Q64.9967 858.513 61.8948 858.513 Q59.6958 858.513 57.2421 859.277 Q54.8115 860.041 52.0338 861.592 L52.0338 856.87 Q54.8578 855.735 57.3115 855.157 Q59.7652 854.578 61.8023 854.578 Q67.1726 854.578 70.367 857.263 Q73.5614 859.948 73.5614 864.439 Q73.5614 866.569 72.7513 868.49 Q71.9642 870.388 69.8578 872.981 Q69.2791 873.652 66.1772 876.87 Q63.0754 880.064 57.4273 885.828 Z" fill="#000000" fill-rule="nonzero" fill-opacity="1" /><path clip-path="url(#clip620)" d="M83.6077 855.203 L101.964 855.203 L101.964 859.138 L87.8901 859.138 L87.8901 867.61 Q88.9086 867.263 89.9271 867.101 Q90.9456 866.916 91.9641 866.916 Q97.7511 866.916 101.131 870.087 Q104.51 873.258 104.51 878.675 Q104.51 884.254 101.038 887.356 Q97.566 890.434 91.2465 890.434 Q89.0706 890.434 86.8021 890.064 Q84.5568 889.694 82.1494 888.953 L82.1494 884.254 Q84.2327 885.388 86.4549 885.944 Q88.6771 886.499 91.1539 886.499 Q95.1586 886.499 97.4965 884.393 Q99.8345 882.286 99.8345 878.675 Q99.8345 875.064 97.4965 872.957 Q95.1586 870.851 91.1539 870.851 Q89.279 870.851 87.404 871.268 Q85.5521 871.684 83.6077 872.564 L83.6077 855.203 Z" fill="#000000" fill-rule="nonzero" fill-opacity="1" /><path clip-path="url(#clip620)" d="M52.4505 547.457 L70.8068 547.457 L70.8068 551.392 L56.7328 551.392 L56.7328 559.864 Q57.7513 559.517 58.7699 559.355 Q59.7884 559.17 60.8069 559.17 Q66.5939 559.17 69.9735 562.341 Q73.3531 565.512 73.3531 570.929 Q73.3531 576.507 69.8809 579.609 Q66.4087 582.688 60.0893 582.688 Q57.9134 582.688 55.6449 582.318 Q53.3995 581.947 50.9921 581.207 L50.9921 576.507 Q53.0754 577.642 55.2977 578.197 Q57.5199 578.753 59.9967 578.753 Q64.0013 578.753 66.3393 576.646 Q68.6772 574.54 68.6772 570.929 Q68.6772 567.318 66.3393 565.211 Q64.0013 563.105 59.9967 563.105 Q58.1217 563.105 56.2467 563.521 Q54.3949 563.938 52.4505 564.818 L52.4505 547.457 Z" fill="#000000" fill-rule="nonzero" fill-opacity="1" /><path clip-path="url(#clip620)" d="M92.566 550.535 Q88.9549 550.535 87.1262 554.1 Q85.3206 557.642 85.3206 564.771 Q85.3206 571.878 87.1262 575.443 Q88.9549 578.984 92.566 578.984 Q96.2002 578.984 98.0058 575.443 Q99.8345 571.878 99.8345 564.771 Q99.8345 557.642 98.0058 554.1 Q96.2002 550.535 92.566 550.535 M92.566 546.832 Q98.3761 546.832 101.432 551.438 Q104.51 556.021 104.51 564.771 Q104.51 573.498 101.432 578.105 Q98.3761 582.688 92.566 582.688 Q86.7558 582.688 83.6771 578.105 Q80.6216 573.498 80.6216 564.771 Q80.6216 556.021 83.6771 551.438 Q86.7558 546.832 92.566 546.832 Z" fill="#000000" fill-rule="nonzero" fill-opacity="1" /><path clip-path="url(#clip620)" d="M52.219 239.711 L74.4411 239.711 L74.4411 241.701 L61.8948 274.271 L57.0106 274.271 L68.8161 243.646 L52.219 243.646 L52.219 239.711 Z" fill="#000000" fill-rule="nonzero" fill-opacity="1" /><path clip-path="url(#clip620)" d="M83.6077 239.711 L101.964 239.711 L101.964 243.646 L87.8901 243.646 L87.8901 252.118 Q88.9086 251.771 89.9271 251.609 Q90.9456 251.423 91.9641 251.423 Q97.7511 251.423 101.131 254.595 Q104.51 257.766 104.51 263.183 Q104.51 268.761 101.038 271.863 Q97.566 274.942 91.2465 274.942 Q89.0706 274.942 86.8021 274.571 Q84.5568 274.201 82.1494 273.46 L82.1494 268.761 Q84.2327 269.896 86.4549 270.451 Q88.6771 271.007 91.1539 271.007 Q95.1586 271.007 97.4965 268.9 Q99.8345 266.794 99.8345 263.183 Q99.8345 259.572 97.4965 257.465 Q95.1586 255.359 91.1539 255.359 Q89.279 255.359 87.404 255.775 Q85.5521 256.192 83.6077 257.072 L83.6077 239.711 Z" fill="#000000" fill-rule="nonzero" fill-opacity="1" /><polyline clip-path="url(#clip622)" style="stroke:#0000ff; stroke-linecap:round; stroke-linejoin:round; stroke-width:4; stroke-opacity:1; fill:none" points="203.121,717.099 231.652,723.236 236.486,718.613 248.6,717.544 255.151,717.289 277.622,719.588 299.792,723.075 327.871,725.463 355.039,727.247 385.244,731.897 414.693,732.277 440.315,732.809 476.176,734.205 499.314,739.375 522.699,743.534 557.641,747.052 583.055,749.183 604.595,753.959 633.48,760.396 657.461,767.635 680.572,775.822 703.609,782.637 730.941,789.588 753.553,798.121 779.264,803.48 810.059,810.981 833.368,811.503 867.713,813.886 893.714,821.559 919.788,829.12 950.315,838.452 974.866,846.763 1001.05,854.077 1020.43,864.156 1037.79,876.322 1045.99,882.176 1066.79,885.062 1084.04,886.767 1105.79,888.744 1131.49,891.648 1157.3,901.336 1184.07,911.356 1206.69,916.904 1232.76,920.242 1264.82,921.996 1293.92,923.564 1326.77,927.848 1355.59,932.51 1382.28,936.123 1407.94,938.576 1439.33,938.549 1463.53,938.478 1490.49,937.991 1517.08,934.924 1546.1,929.746 1574.82,930.017 1602.46,928.046 1628.56,928.461 1649.12,922.07 1667.69,919.081 1684.72,912.366 1702.81,905.96 1723.55,905.853 1745.98,903.682 1767.85,905.089 1787.31,908.321 1808.73,914.94 1828.77,926.385 1850.04,938.702 1866.27,949.937 1882.33,966.262 1892.77,980.517 1900.85,995.258 1910.63,1014.39 1922.38,1032.26 1935.18,1051.18 1945.5,1062.18 1962.79,1069.15 1977.11,1073.21 1987.21,1072.47 2008.57,1065.28 2025.34,1059.19 2046.87,1039.56 2060.05,1024.34 2063.99,1004.59 2066.77,985.703 2066.18,964.368 2052.89,948.325 2032.2,940.253 2008.95,929.892 1979.32,932.942 1955.05,932.604 1934.93,927.668 1915.53,924.493 1892.93,923.059 1872.77,930.05 1850.37,936.381 1833.62,943.595 1810.92,946.71 1786.29,946.256 1758.91,941.949 1736.13,932.156 1712.81,921.142 1682.95,905.775 1657.15,887.859 1634.09,869.353 1618.56,854.476 1606.65,841.334 1590.51,827.898 1576.71,811.848 1565.06,796.356 1556.97,779.553 1557.08,763.879 1568.84,748.811 1583.37,735.93 1604.38,728.565 1623.1,727.531 1650.55,728.578 1671.12,741.392 1692.14,748.659 1706.52,753.934 1729.22,760.35 1751.93,771.671 1764.34,780.981 1782.86,791.813 1800.9,802.775 1822.4,810.895 1843.03,812.752 1864.53,813.712 1888.25,807.474 1908.86,803.354 1925.88,802.112 1945.43,809.045 1961.92,820.088 1977.36,835.618 1987.42,851.781 1995.4,871.565 2003.11,893.386 2007.54,912.45 2007.58,933.597 2007.42,944.459 2009.94,958.081 2019.69,976.92 2026.92,994.817 2038.04,1010.06 2048.95,1017.11 2061.48,1021.14 2077.55,1017.75 2096.77,1010.3 2113.31,1000.45 2131.38,988.071 2140.25,979.413 2143.69,959.935 2134.12,941.548 2117.17,923.679 2101.18,907.377 2078.18,897.411 2050.51,893.2 2023.7,886.99 2006.06,884.113 1981.41,882.369 1960.78,880.928 1941.97,871.642 1926.39,864.9 1904.92,858.231 1888.92,857.23 1866.58,859.332 1846.44,854.365 1825.3,849.028 1805.27,847.575 1780.69,844.427 1762.7,839.767 1745.5,835.192 1724.28,833.204 1697.39,834.61 1670.89,840.549 1654.82,839.514 1648.97,832.469 1644.48,829.097 1637.25,827.407 1626.72,826.459 1618.93,825.79 1605.39,829.807 1591.16,835.915 1564.98,840.348 1543.42,844.268 1527.58,849.996 1517.93,858.928 1524.58,860.266 1539.3,858.729 1571.14,854.919 1590.51,838.637 1606.51,823.489 1613.17,807.121 1607.75,789.862 1592.99,771.639 1582.16,761.075 1571.41,739.561 1553.02,729.325 1531.63,739.858 1509.81,741.3 1480.92,736.024 1475.76,718.466 1471.74,699.575 1472.36,678.898 1475.83,662.94 1491.4,640.54 1499,619.761 1503.42,596.509 1486.58,583.954 1465.12,576.245 1455.02,573.627 1464.33,561.15 1484.18,550.559 1519.51,548.741 1558.09,535.267 1583.93,518.785 1603.52,495.249 1617.23,473.52 1638.86,463.336 1664.68,466.562 1689.56,471.926 1709.2,490.031 1735.82,503.062 1755.96,519.438 1765.89,539.669 1754.61,556.847 1737,572.694 1710.46,585.394 1677.2,592.678 1650.99,591.691 1616.53,577.877 1590.97,561.783 1579.98,540.928 1578.46,518.805 1596.4,503.535 1611.75,493.553 1634.54,479.257 1658.11,471.184 1681.4,454.913 1703.52,442.827 1723.45,441.524 1747.33,428.229 1750.8,413.384 1761.91,395.959 1774.21,390.058 1791.06,372.839 1785.26,359.799 1764.11,349.55 1760.82,347.31 1771.46,342.978 1793.68,337.417 1822.79,341.147 1848.54,343.769 1875.86,348.2 1900.27,366.222 1904.77,384.105 1900.88,396.553 1879.64,407.797 1864.05,430.716 1849.53,457.954 1838.66,489.609 1839.94,510.174 1805.09,513.734 1781.72,529.422 1749.21,536.279 1718.92,552.115 1701.89,577.77 1682.17,595.291 1654.58,590.99 1632.62,579.76 1604.38,569.869 1588.41,556.903 1562.19,540.368 1554.67,533.309 1561.88,511.531 1585.06,502.703 1620.42,497.914 1650.66,501.733 1685.68,508.585 1713.86,522.369 1722.47,543.822 1736.66,565.351 1752.03,569.657 1779.09,574.354 1801.27,584.37 1812.38,587.541 1838.03,580.294 1862.16,572.376 1881.13,563.034 1902.79,565.56 1922.18,579.74 1920.95,597.931 1921.81,619.089 1909.22,650.485 1888.88,676.274 1864.12,696.354 1841.04,725.695 1838.45,750.186 1803.62,762.963 1775.92,769.01 1747.27,782.924 1721.01,796.749 1703.76,815.478 1687.37,837.278 1661.74,860.434 1634.26,869.184 1607.52,860.227 1583.65,854.308 1551.96,850.634 1522.61,841.973 1502.97,821.112 1488.82,801.131 1458.13,777.598 1441.33,757.938 1416.3,741.28 1391.54,738.333 1359.38,744.101 1342.16,741.796 1315.46,732.961 1311.26,706.881 1295.64,700.285 1271.05,703.714 1253.28,712.505 1227.05,728.894 1221.54,735.652 1190.66,740.194 1166.96,745.245 1141.07,738.099 1120.36,721.039 1097.46,708.745 1063.42,702.593 1030.46,693.869 1008.53,688.813 986.666,679.026 966.448,657.958 966.336,644.707 975.583,624.536 991.497,603.103 1002.7,580.531 1009.63,550.809 1015.24,525.95 1000.67,506.007 981.433,501.023 971.559,489.959 976.153,477.016 1001.5,476.339 1037.48,478.927 1078.14,476.973 1111.75,473.217 1139.36,455.223 1164.32,430.912 1190.05,411.14 1221.02,403.479 1260.59,405.845 1292.78,418.346 1324.59,434.131 1355.36,447.168 1382.22,458.655 1404.07,472.916 1441.32,479.996 1465.63,493.862 1492.07,516.655 1521.84,544.104 1549.05,560.845 1574.46,570.773 1594.53,581.045 1602.82,572.251 1624.82,561.98 1651.48,548.734 1674.35,538.925 1702.91,527.807 1735.59,525.912 1771.48,534.346 1799.34,559.216 1806.48,581.15 1803.73,613.081 1785.76,645.062 1782.8,672.861 1774.96,704.874 1775.73,739.437 1792.01,769.979 1822.91,795.175 1861.82,793.878 1883.96,796.334 1915.16,802.961 1935.47,824.996 1960.13,850.959 1981.87,882.287 1994.4,915.188 1999.39,938.023 2014.31,920.788 2051.42,925.222 2078.83,930.844 2091.34,946.041 2092.95,951.076 2093.06,955.373 2097.41,970.366 2100.98,976.926 2113.46,981.574 2129.91,983.579 2159.41,977.267 2187.59,986.794 2200.96,999.323 2215.19,1020.93 2215.4,1034.19 2218.98,1022.75 2223.5,1006.41 2222.69,979.272 2213.79,952.283 2198.15,927.931 2186.81,905.362 2187.16,884.609 2159.07,861.99 2152.09,831.26 2157.18,806.861 2173.94,795.62 2195.26,796.982 2219.83,805.158 2236.2,818.276 2248.32,837.986 2274.56,860.424 2288.41,882.578 2280.28,910.187 2260.24,931.535 2243.65,951.483 2212.75,963.431 2193.45,982.336 2166.27,996.574 2139.67,1018.47 2119.23,1039.75 2108.47,1063.71 2089.14,1087.15 2071.1,1109.27 2045.73,1126.24 2020.53,1137.03 1989.09,1153.32 1963.25,1171.84 1933.94,1180.12 1905.21,1199.47 1890.32,1216.29 1857.59,1229.12 1838.11,1243.8 1820.07,1263.21 1801.75,1291.7 1794.17,1311.83 1788.83,1332.03 1782.48,1356.22 1803.76,1377.57 1813.87,1392.44 1807.62,1415.65 1800.36,1441.54 1780.09,1445.44 1757.65,1443.61 1734.48,1425.83 1721.37,1399.93 1708.68,1377.95 1685.09,1354.34 1646.8,1329.87 1615.6,1320.72 1580.4,1319.44 1542.58,1326.54 1501.5,1336.64 1473.81,1338.04 1438.5,1327.23 1412.7,1314.12 1393.03,1289.25 1390.03,1255.77 1385.81,1215.73 1365.55,1189.62 1342.8,1168.71 1348.07,1137.34 1346.67,1108.93 1338.97,1084.11 1326.13,1055.74 1307.1,1031.85 1302.35,1005.36 1309.08,972.7 1318.33,939.38 1336.38,909.875 1353.45,878.98 1366.02,846.099 1393.18,824.777 1387.88,796.81 1372.75,771.972 1342.51,749.379 1309.26,746.671 1289.36,733.611 1281.09,707.901 1277.14,676.137 1290.16,649.059 1303.24,626.383 1325.68,617.778 1358.01,606.641 1393.27,600.083 1433.91,595.901 1473.74,596.559 1502.5,588.645 1525.29,563.064 1543.63,541.273 1572.53,528.24 1594.95,522.574 1597.5,507.321 1584.14,493.594 1562.93,478.379 1536.79,466.947 1508.42,439.471 1485.68,413.806 1470.05,388.436 1454.54,367.447 1450.58,348.893 1457.55,328.534 1475.38,319.397 1491.92,328.365 1522.29,332.298 1562.16,335.378 1597.46,343.103 1637.78,349.49 1671.07,353.067 1703.34,368.526 1727.47,374.408 1753.04,367.717 1777.46,356.591 1809.09,351.094 1841.34,351.049 1873.14,345.757 1896.43,360.144 1907.83,376.934 1911.79,371.817 1922.7,355.616 1939.34,338.341 1957.22,326.986 1981.37,312.272 2001.87,304.561 1991.78,304.261 1970.18,292.383 1959.76,276.226 1947.68,247.436 1950.7,217.604 1962.63,201.458 1990.5,191.402 2023.84,192.793 2049.93,197.548 2084.99,201.522 2119.85,214.207 2142.94,237.156 2147.99,265.826 2141.43,292.533 2129.67,301.034 2132.53,317.558 2136.74,340.044 2132.74,371.394 2104.5,388.434 2084.99,423.139 2057.61,445.267 2034.56,471.732 2026.5,506.726 2001.72,514.18 1965.03,515.847 1930.09,527.995 1898.15,541.317 1881.25,568.738 1869.17,599.714 1869.77,616.644 1896.64,622.384 1926.28,634.897 1962.4,648.582 1996.88,672.327 2024.91,688.613 2063.44,693.467 2099.03,693.943 2137.99,690.157 2167.42,694.194 2193.72,694.542 2205.19,678.98 2218.91,659.824 2234.66,639.271 2232.78,614.132 2229.92,595.122 2219.84,572.184 2193.39,550.503 2171.67,531.864 2146.68,516.475 2104.76,517.91 2078.48,524.106 2055.05,542.006 2037.72,561.963 2012.29,586.519 2007.44,615.626 2011.9,647.564 2015.85,677.928 2033.69,704.061 2046.53,729.756 2059.51,763.004 2074.77,793.577 2105.9,805.73 2136.32,822.937 2163.56,851.152 2183.08,873.862 2197.63,905.433 2205.56,930.27 2202.37,942.423 2170.06,944.617 2132.72,958.534 2104.49,957.038 2090.52,963.234 2070.09,967.757 2046.76,962.989 2016.16,948.76 1986.09,940.844 1949.2,943.752 1906.33,955.764 1867.79,970.018 1828.41,971.445 1784.09,979.231 1746.29,979.931 1707.08,980.616 1676.19,975.23 1640.3,978.872 1608.29,974.117 1574.55,966.295 1539.96,935.391 1511.41,921.156 1473.54,913.196 1440.38,897.889 1411.14,881.896 1379.37,860.435 1353,853.446 1325.19,866.676 1300.36,884.253 1272.74,899.968 1234.52,916.971 1196.58,925.517 1166.65,921.069 1138.05,897.633 1120.1,872.844 1101.87,843.502 1076.68,817.429 1064.83,787.066 1061.21,759.096 1063.62,736.18 1049.53,706.155 1026.73,688.703 999.006,677.079 979.533,655.13 970.715,623.902 967.461,600.082 956.392,572.258 965.634,545.269 987.047,518.732 999.034,502.257 1011.09,495.973 1021.44,482.367 1026.18,466.076 1032.51,442.342 1039.52,418.039 1044.91,389.394 1055.93,356.67 1057.7,332.943 1037.01,313.903 1017.49,299.662 989.343,299.626 961.494,309.155 933.576,304.786 901.111,289.932 863.728,274.29 839.314,269.484 816.958,265.08 802.246,247.745 801.541,226.198 815.985,208.22 838.275,189.105 862.946,171.289 906.237,160.232 936.488,147.717 970.009,141.469 1000.54,152.861 1028.15,159.598 1062.6,155.911 1096.61,150.128 1116.7,129.107 1132.96,110.23 1146.34,89.088 "/>
<polyline clip-path="url(#clip622)" style="stroke:#ff0000; stroke-linecap:round; stroke-linejoin:round; stroke-width:4; stroke-opacity:1; fill:none" points="204.146,717.49 235.097,723.891 237.756,714.991 259.282,716.296 262.722,716.997 290.233,722.697 307.421,726.254 336.71,726.008 361.676,728.027 392.641,734.428 419.385,730.513 440.911,731.806 483.976,734.416 495.975,743.205 520.955,745.211 564.035,747.821 582.134,748.412 601.925,755.662 636.374,762.778 656.179,770.028 679.44,777.993 703.567,782.978 734.59,789.391 753.543,799.621 782.007,802.354 815.647,812.472 832.04,806.391 874.325,811.98 892.439,825.201 920.05,830.913 953.733,841.031 973.596,848.294 1001.24,854.006 1015.92,866.525 1034.1,879.758 1037.55,880.472 1070.38,880.94 1084.2,883.808 1109.27,885.827 1136.94,891.551 1162.05,906.237 1188.88,914.94 1207.04,915.543 1235.57,918.288 1271.9,919.47 1296.98,921.501 1331.61,928.665 1355.86,933.688 1380.95,935.706 1406.04,937.737 1443.22,935.953 1461.39,936.543 1490.8,936.31 1517.59,932.358 1548.67,926.154 1576.39,931.878 1603.17,927.939 1628.28,929.97 1646.32,917.906 1664.49,918.497 1681.68,909.425 1701.51,904.045 1725.79,909.068 1749.08,904.402 1769.89,908.699 1787.23,912.281 1810.69,920.282 1829.03,933.54 1851.67,944.532 1863.92,953.383 1880.63,972.636 1888.58,983.764 1895.71,997.883 1908.14,1019.44 1922.23,1035.01 1935.5,1053.59 1945.12,1058.74 1969.46,1063.79 1979.9,1065.94 1987.69,1064.38 2016.14,1054.43 2027.39,1053.59 2049.48,1026.5 2055.42,1018.23 2054.18,995.84 2058.25,980.883 2057.02,958.516 2037.81,948.238 2020.43,944.643 1997.77,933.651 1970.17,940.581 1949.34,936.285 1932.8,929.711 1915.45,926.129 1890.33,924.098 1872.33,936.174 1849.03,940.827 1836.15,947.647 1807.55,944.889 1782.43,942.871 1754.67,937.134 1736.34,923.877 1712.89,915.875 1677.24,899.035 1656.31,882.097 1635.39,865.159 1624.03,853.366 1612.68,841.561 1590.94,827.626 1577.81,809.173 1567.3,794.426 1561.1,777.414 1565.28,762.556 1584.11,747.575 1594.36,737.112 1617.61,732.483 1631.43,735.327 1660.76,735.093 1674.73,750.529 1695.49,754.813 1705.87,756.943 1733.55,762.654 1755.29,776.552 1760.57,783.926 1783.15,794.869 1802.27,805.111 1826.52,810.109 1845.48,807.721 1867.1,809.026 1891.99,798.427 1910.13,799.03 1924,801.886 1945.8,815.808 1960.67,828.315 1974.74,843.801 1981.86,857.859 1990.84,878.613 1999.82,899.38 2002.67,915.74 2000.41,937.356 2003.07,941.061 2009.4,958.16 2025.35,980.403 2028.21,996.8 2043.13,1009.37 2053.57,1011.54 2067.47,1014.4 2088.13,1006.02 2104.48,999.915 2113.88,992.369 2131.86,980.28 2136.97,975.024 2136.5,949.666 2121.57,937.11 2103.98,920.861 2093.35,906.064 2069.86,898.063 2041.27,895.318 2016.96,890.308 2006.56,888.153 1977.98,885.421 1960.63,881.838 1943.09,865.614 1929.21,862.758 1901.47,857.034 1889.43,860.85 1862.69,864.789 1844.36,851.556 1823.55,847.272 1804.57,849.648 1776.86,843.936 1763.82,838.102 1746.5,834.519 1720.6,835.48 1690.4,838.705 1666.28,846.325 1657.57,838.225 1657.42,825.595 1649.67,827.146 1638.46,827.983 1623.77,828.106 1616.84,826.678 1599.65,835.726 1586.77,842.521 1553.94,842.053 1538.42,845.143 1528.98,852.652 1522.17,863.866 1537.7,860.764 1556.68,858.376 1587.73,852.172 1597.02,832.033 1611.58,819.292 1615.74,804.409 1606.07,786.683 1589.49,767.541 1580.77,759.454 1569.33,735.105 1549.42,727.855 1527.13,742.122 1505.56,740.817 1474.45,734.403 1476.02,715.877 1470.69,695.947 1473.1,674.479 1477.28,659.658 1495.16,635.137 1500.18,617.374 1503.42,593 1484.41,582.832 1461.11,574.917 1454.21,573.501 1466.12,557.191 1490.99,546.666 1530.57,548.549 1568.24,531.303 1587.02,516.421 1604.83,491.998 1617.52,472.782 1638.05,464.522 1666.44,467.23 1690.56,472.167 1710.55,491.85 1739.91,504.111 1757.32,520.163 1766.16,540.708 1754.32,557.006 1734.75,574.855 1705.63,587.633 1671.27,593.086 1649.73,591.794 1610.82,574.412 1589.17,560.588 1580.37,540.031 1579.3,517.959 1598.06,503.089 1611.71,493.413 1638.18,477.017 1662.16,469.471 1685.18,452.372 1706.52,441.183 1724.56,441.761 1750.98,425.389 1750.84,412.919 1763.47,393.741 1775.44,389.974 1795.78,369.281 1784.48,357.648 1758.59,346.138 1774.82,340.156 1805.61,334.038 1832.31,342.593 1853.78,343.886 1881.31,349.511 1904.77,369.835 1904.13,385.235 1900.87,396.99 1875.31,410.408 1861.05,435.483 1845.98,463.525 1836.95,495.949 1840.58,509.17 1799.35,513.183 1779.81,531.02 1745.48,536.461 1714.73,555.123 1700.39,580.309 1681.62,595.216 1654.01,589.541 1631.52,578.671 1601.3,569.328 1590,557.634 1558.86,538.738 1556.24,535.082 1563.73,508.518 1591.17,501.673 1628.94,496.946 1653.06,501.895 1690.98,509.675 1716.09,524.188 1721.48,544.019 1737.22,565.992 1751.03,568.824 1782.09,575.2 1804.6,586.082 1811.51,587.498 1843.24,578.388 1867.24,570.818 1884.31,561.832 1905.03,566.079 1925.93,582.857 1921.03,600.608 1922.22,622.741 1904.67,659.83 1884.28,680.696 1861.24,697.905 1837.55,730.673 1839.53,749.914 1799.15,763.59 1775.91,768.231 1745.89,784.049 1720.15,797.614 1703.96,816.313 1686.93,837.991 1657.84,863.497 1634.55,868.15 1607.68,859.447 1583.43,854.437 1547.96,850.276 1521.11,841.573 1501.9,818.714 1488.8,800.261 1452.33,773.856 1441.86,759.122 1414.14,740.829 1392.55,739.524 1358.1,744.99 1344.28,742.134 1314.04,732.766 1311.3,703.912 1294.03,700.354 1267.33,704.281 1250.15,713.304 1222.65,732.778 1221.8,735.745 1183.88,740.497 1164.06,745.852 1137.3,737.173 1117.42,717.354 1094.97,706.435 1056.18,701.585 1026.01,692.218 1008.78,688.66 986.376,677.753 963.954,654.303 966.542,645.415 976.849,622.445 994.037,600.903 1004.33,577.97 1010.3,544.77 1016.29,524.114 999.936,505.12 982.747,501.587 971.572,489.917 975.851,475.183 1008.49,475.638 1047.15,480.464 1088.36,476.45 1114.98,472.548 1142.4,453.222 1168.06,427.322 1191.16,410.248 1222.03,404.13 1264.95,406.703 1294.19,418.927 1326.04,434.806 1355.31,447.042 1381.16,458.577 1402.73,472.364 1444.03,480.833 1465.62,494.632 1495.05,519.4 1527.11,547.848 1549.58,558.705 1572.06,569.574 1591.08,579.742 1600.48,572.283 1625.31,561.758 1655.27,546.038 1675.81,537.766 1708.35,525.715 1741.04,526.182 1778.16,536.916 1803.46,563.974 1806.25,580.161 1803.29,617.078 1783.05,650.487 1784.19,672.645 1774.29,708.245 1775.59,743.033 1793.21,771.801 1826.36,797.491 1864.28,792.727 1878.14,795.583 1916.25,803.425 1935.59,826.284 1964.53,854.289 1984.92,886.849 1994.9,917.291 1997.77,933.651 2012.27,920.873 2054.75,926.486 2079.07,931.496 2089.71,946.317 2092.37,950.023 2094.22,956.719 2099.76,976.809 2102.42,980.526 2119.81,984.109 2137.99,984.712 2169.88,975.492 2195.27,990.214 2203.28,1001.35 2218.49,1026.63 2216.04,1035.61 2220.1,1020.63 2225.77,999.668 2222.61,970.592 2210.9,946.071 2194.89,923.852 2185.86,903.073 2187.25,884.448 2153.91,858.684 2151.61,826.74 2157.28,805.899 2174.39,796.851 2196.01,798.168 2222.95,806.847 2237.89,819.354 2250.39,840.797 2280.29,865.836 2290.15,883.611 2278.62,912.736 2258.27,933.761 2242.18,952.534 2209.51,964.733 2193.4,983.518 2164.2,996.443 2135.2,1022.07 2119.07,1040.88 2109.07,1064.15 2087.8,1088.26 2070.81,1110.11 2044.2,1126.82 2019.21,1137.51 1984.77,1155.78 1961.6,1173.22 1933.91,1180.2 1902.09,1202.23 1890.99,1215.84 1853.84,1230.42 1839.24,1243.32 1818.65,1264.54 1799.05,1295.55 1794.9,1310.64 1789.08,1331.79 1781.59,1358.99 1808.85,1380.66 1813.35,1391.2 1805.86,1418.44 1798.36,1445.72 1780.05,1445.1 1754.74,1443.04 1730.96,1422.07 1720.19,1394.2 1706.91,1375.44 1680.51,1350.76 1636.71,1322.46 1614.94,1321.13 1578.39,1319.92 1539.31,1327.76 1495.9,1337.92 1477.63,1337.3 1436.65,1325.58 1413.95,1314.46 1392.03,1287.53 1390.92,1252.19 1384.55,1209.42 1364.44,1189.31 1344.34,1169.21 1350.21,1135.43 1346.58,1109.25 1338.63,1085.37 1325.43,1054.07 1306.25,1031.06 1302.64,1004.95 1309.36,968.34 1318.68,935.472 1337.53,907.775 1353.77,876.397 1366.52,844.33 1394.01,824.795 1386.93,798.131 1372.08,773.032 1339.14,747.366 1309.82,747.612 1291.63,734.428 1281.14,707.125 1276.64,671.66 1291.16,646.425 1303.95,627.123 1324.57,618.826 1361.5,604.498 1399.33,599.758 1440.62,595.733 1476.78,596.915 1500.8,589.332 1527.23,560.367 1543.41,541.816 1572.52,529.063 1592.25,523.745 1596.4,508.985 1582.5,493.66 1558.27,476.217 1532.39,464.67 1501.19,433.341 1482.11,410.753 1470.76,386.65 1454.31,367.73 1451.61,351.641 1458.27,328.154 1475.35,319.241 1494.3,329.323 1529.48,333.422 1572.38,335.983 1602.49,345.252 1644.57,350.755 1672.9,353.45 1704.82,369.306 1725.47,373.528 1752.85,366.708 1777.6,356.245 1811.84,350.828 1844.44,351.284 1875.24,345.166 1896.07,361.846 1906.58,376.408 1911.65,371.238 1924.24,352.084 1943.7,334.346 1960.73,325.421 1987.05,309.098 2003.25,303.103 1992.11,303.928 1963.59,288.811 1957.33,272.058 1944.83,238.563 1952.14,212.22 1962.25,201.929 1994.6,189.988 2029.76,194.063 2050.37,198.273 2088.99,203.049 2125.18,216.602 2144.43,239.067 2147.52,267.54 2140.28,293.908 2131.79,298.376 2133.84,317.383 2137.73,342.975 2131.5,378.932 2099.09,390.934 2080.89,430.719 2054.54,447.092 2032.62,473.73 2026.33,509.835 2004,511.484 1962.78,515.51 1926.02,529.801 1896.95,542.567 1881.87,570.695 1869.39,602.516 1870.39,612.093 1897.21,620.734 1929.32,636.712 1969.17,651.164 2002.33,676.769 2024.93,687.675 2067.27,693.239 2100.04,693.707 2141.38,689.669 2165.6,694.655 2191.47,693.695 2202.42,680.289 2219.27,658.71 2236.08,637.131 2232.15,611.317 2229.24,595.105 2218.38,567.9 2187.85,546.038 2170.35,529.986 2145.13,515.46 2097.01,518.07 2080.76,524.102 2053.55,543.478 2037.52,562.029 2007.84,590.292 2007.44,618.346 2013.12,650.795 2016.17,679.612 2034.7,705.352 2046.31,729.689 2061.61,767.369 2075.9,795.436 2106.29,804.84 2137.73,823.884 2165.95,854.868 2182.72,874.071 2198.94,908.92 2204.51,928.985 2202.08,937.947 2167.56,943.449 2126.31,960.191 2105.45,955.882 2092.59,962.702 2069.28,967.367 2044.97,962.345 2009.2,945.48 1981.42,939.744 1943.41,944.532 1895.16,959.834 1862.44,972.033 1826.05,970.839 1779.43,980.17 1746.53,979.689 1705.85,980.773 1678.08,975.036 1640.05,979.813 1608.82,973.362 1574.13,966.186 1533.13,929.256 1513.16,921.969 1471.59,913.376 1439.48,897.263 1410.84,881.875 1376.98,859.102 1356.21,854.818 1326.92,867.694 1300.24,884.263 1270.07,900.143 1227.81,919.839 1193.25,925.329 1169.02,920.319 1136.08,894.542 1120.46,872.36 1100.51,839.825 1074.54,815.538 1064.99,785.194 1061.48,759.282 1064.02,737.776 1048.44,703.124 1026.87,689.251 997.565,676.929 978.598,654.18 969.968,621.03 968.218,601.863 955.309,571.002 966.469,545.127 989.643,515.497 996.509,504.406 1009.38,497.685 1021.39,481.411 1026.51,463.734 1034.2,437.244 1041.02,413.707 1046.11,383.597 1059.76,349.068 1057.15,332.979 1033.98,312.693 1015.97,299.681 986.838,299.927 958.576,309.664 931.167,304.051 896.053,287.531 856.674,273.252 842.984,270.445 819.015,265.534 802.781,246.687 801.971,224.813 818.249,206.446 842.217,186.566 865.319,169.628 915.757,158.278 937.123,147.187 971.298,141.795 1000.37,153.932 1027.74,159.521 1065.34,154.831 1099.51,149.452 1116.54,128.205 1132.72,109.888 1146.31,87.9763 "/>
<path clip-path="url(#clip620)" d="M214.252 1438.47 L760.776 1438.47 L760.776 1282.95 L214.252 1282.95  Z" fill="#ffffff" fill-rule="evenodd" fill-opacity="1"/>
<polyline clip-path="url(#clip620)" style="stroke:#000000; stroke-linecap:round; stroke-linejoin:round; stroke-width:4; stroke-opacity:1; fill:none" points="214.252,1438.47 760.776,1438.47 760.776,1282.95 214.252,1282.95 214.252,1438.47 "/>
<polyline clip-path="url(#clip620)" style="stroke:#0000ff; stroke-linecap:round; stroke-linejoin:round; stroke-width:4; stroke-opacity:1; fill:none" points="238.832,1334.79 386.315,1334.79 "/>
<path clip-path="url(#clip620)" d="M434.924 1338.05 L434.924 1340.13 L415.34 1340.13 Q415.618 1344.53 417.979 1346.84 Q420.363 1349.13 424.6 1349.13 Q427.053 1349.13 429.345 1348.53 Q431.66 1347.93 433.928 1346.73 L433.928 1350.75 Q431.637 1351.73 429.229 1352.24 Q426.822 1352.75 424.345 1352.75 Q418.141 1352.75 414.507 1349.13 Q410.896 1345.52 410.896 1339.37 Q410.896 1333 414.322 1329.27 Q417.771 1325.52 423.604 1325.52 Q428.836 1325.52 431.868 1328.9 Q434.924 1332.26 434.924 1338.05 M430.664 1336.8 Q430.618 1333.3 428.697 1331.22 Q426.799 1329.13 423.65 1329.13 Q420.086 1329.13 417.933 1331.15 Q415.803 1333.16 415.479 1336.82 L430.664 1336.8 Z" fill="#000000" fill-rule="nonzero" fill-opacity="1" /><path clip-path="url(#clip620)" d="M458.442 1326.91 L458.442 1330.94 Q456.636 1330.01 454.692 1329.55 Q452.748 1329.09 450.664 1329.09 Q447.493 1329.09 445.896 1330.06 Q444.322 1331.03 444.322 1332.98 Q444.322 1334.46 445.456 1335.32 Q446.59 1336.15 450.016 1336.91 L451.474 1337.24 Q456.011 1338.21 457.91 1339.99 Q459.831 1341.75 459.831 1344.92 Q459.831 1348.53 456.96 1350.64 Q454.113 1352.75 449.113 1352.75 Q447.03 1352.75 444.761 1352.33 Q442.516 1351.94 440.016 1351.13 L440.016 1346.73 Q442.377 1347.95 444.669 1348.58 Q446.961 1349.18 449.206 1349.18 Q452.215 1349.18 453.836 1348.16 Q455.456 1347.12 455.456 1345.25 Q455.456 1343.51 454.275 1342.58 Q453.118 1341.66 449.16 1340.8 L447.678 1340.45 Q443.72 1339.62 441.961 1337.91 Q440.201 1336.17 440.201 1333.16 Q440.201 1329.51 442.794 1327.51 Q445.386 1325.52 450.155 1325.52 Q452.516 1325.52 454.599 1325.87 Q456.683 1326.22 458.442 1326.91 Z" fill="#000000" fill-rule="nonzero" fill-opacity="1" /><path clip-path="url(#clip620)" d="M470.826 1318.79 L470.826 1326.15 L479.599 1326.15 L479.599 1329.46 L470.826 1329.46 L470.826 1343.53 Q470.826 1346.7 471.683 1347.61 Q472.562 1348.51 475.224 1348.51 L479.599 1348.51 L479.599 1352.07 L475.224 1352.07 Q470.294 1352.07 468.419 1350.25 Q466.544 1348.39 466.544 1343.53 L466.544 1329.46 L463.419 1329.46 L463.419 1326.15 L466.544 1326.15 L466.544 1318.79 L470.826 1318.79 Z" fill="#000000" fill-rule="nonzero" fill-opacity="1" /><path clip-path="url(#clip620)" d="M485.201 1326.15 L489.46 1326.15 L489.46 1352.07 L485.201 1352.07 L485.201 1326.15 M485.201 1316.06 L489.46 1316.06 L489.46 1321.45 L485.201 1321.45 L485.201 1316.06 Z" fill="#000000" fill-rule="nonzero" fill-opacity="1" /><path clip-path="url(#clip620)" d="M518.557 1331.13 Q520.155 1328.26 522.377 1326.89 Q524.599 1325.52 527.608 1325.52 Q531.659 1325.52 533.858 1328.37 Q536.057 1331.19 536.057 1336.43 L536.057 1352.07 L531.775 1352.07 L531.775 1336.57 Q531.775 1332.84 530.455 1331.03 Q529.136 1329.23 526.428 1329.23 Q523.118 1329.23 521.196 1331.43 Q519.275 1333.63 519.275 1337.42 L519.275 1352.07 L514.993 1352.07 L514.993 1336.57 Q514.993 1332.82 513.673 1331.03 Q512.354 1329.23 509.599 1329.23 Q506.335 1329.23 504.414 1331.45 Q502.493 1333.65 502.493 1337.42 L502.493 1352.07 L498.21 1352.07 L498.21 1326.15 L502.493 1326.15 L502.493 1330.18 Q503.951 1327.79 505.988 1326.66 Q508.025 1325.52 510.826 1325.52 Q513.65 1325.52 515.618 1326.96 Q517.608 1328.39 518.557 1331.13 Z" fill="#000000" fill-rule="nonzero" fill-opacity="1" /><path clip-path="url(#clip620)" d="M556.335 1339.04 Q551.173 1339.04 549.182 1340.22 Q547.191 1341.4 547.191 1344.25 Q547.191 1346.52 548.673 1347.86 Q550.178 1349.18 552.747 1349.18 Q556.289 1349.18 558.418 1346.68 Q560.571 1344.16 560.571 1339.99 L560.571 1339.04 L556.335 1339.04 M564.83 1337.28 L564.83 1352.07 L560.571 1352.07 L560.571 1348.14 Q559.113 1350.5 556.937 1351.63 Q554.761 1352.75 551.613 1352.75 Q547.631 1352.75 545.27 1350.52 Q542.932 1348.28 542.932 1344.53 Q542.932 1340.15 545.849 1337.93 Q548.789 1335.71 554.599 1335.71 L560.571 1335.71 L560.571 1335.29 Q560.571 1332.35 558.627 1330.76 Q556.705 1329.13 553.21 1329.13 Q550.988 1329.13 548.881 1329.67 Q546.775 1330.2 544.83 1331.26 L544.83 1327.33 Q547.168 1326.43 549.367 1325.99 Q551.566 1325.52 553.65 1325.52 Q559.275 1325.52 562.053 1328.44 Q564.83 1331.36 564.83 1337.28 Z" fill="#000000" fill-rule="nonzero" fill-opacity="1" /><path clip-path="url(#clip620)" d="M577.816 1318.79 L577.816 1326.15 L586.589 1326.15 L586.589 1329.46 L577.816 1329.46 L577.816 1343.53 Q577.816 1346.7 578.673 1347.61 Q579.552 1348.51 582.214 1348.51 L586.589 1348.51 L586.589 1352.07 L582.214 1352.07 Q577.284 1352.07 575.409 1350.25 Q573.534 1348.39 573.534 1343.53 L573.534 1329.46 L570.409 1329.46 L570.409 1326.15 L573.534 1326.15 L573.534 1318.79 L577.816 1318.79 Z" fill="#000000" fill-rule="nonzero" fill-opacity="1" /><path clip-path="url(#clip620)" d="M614.367 1338.05 L614.367 1340.13 L594.784 1340.13 Q595.062 1344.53 597.423 1346.84 Q599.807 1349.13 604.043 1349.13 Q606.497 1349.13 608.788 1348.53 Q611.103 1347.93 613.372 1346.73 L613.372 1350.75 Q611.08 1351.73 608.673 1352.24 Q606.265 1352.75 603.788 1352.75 Q597.585 1352.75 593.95 1349.13 Q590.339 1345.52 590.339 1339.37 Q590.339 1333 593.765 1329.27 Q597.214 1325.52 603.048 1325.52 Q608.279 1325.52 611.312 1328.9 Q614.367 1332.26 614.367 1338.05 M610.108 1336.8 Q610.062 1333.3 608.14 1331.22 Q606.242 1329.13 603.094 1329.13 Q599.529 1329.13 597.376 1331.15 Q595.247 1333.16 594.923 1336.82 L610.108 1336.8 Z" fill="#000000" fill-rule="nonzero" fill-opacity="1" /><polyline clip-path="url(#clip620)" style="stroke:#ff0000; stroke-linecap:round; stroke-linejoin:round; stroke-width:4; stroke-opacity:1; fill:none" points="238.832,1386.63 386.315,1386.63 "/>
<path clip-path="url(#clip620)" d="M431.243 1382.97 Q432.84 1380.1 435.062 1378.73 Q437.285 1377.36 440.294 1377.36 Q444.345 1377.36 446.544 1380.21 Q448.743 1383.03 448.743 1388.27 L448.743 1403.91 L444.461 1403.91 L444.461 1388.41 Q444.461 1384.68 443.141 1382.87 Q441.822 1381.07 439.113 1381.07 Q435.803 1381.07 433.882 1383.27 Q431.961 1385.47 431.961 1389.26 L431.961 1403.91 L427.678 1403.91 L427.678 1388.41 Q427.678 1384.66 426.359 1382.87 Q425.039 1381.07 422.285 1381.07 Q419.021 1381.07 417.1 1383.29 Q415.178 1385.49 415.178 1389.26 L415.178 1403.91 L410.896 1403.91 L410.896 1377.99 L415.178 1377.99 L415.178 1382.02 Q416.637 1379.63 418.674 1378.5 Q420.711 1377.36 423.512 1377.36 Q426.336 1377.36 428.303 1378.8 Q430.294 1380.23 431.243 1382.97 Z" fill="#000000" fill-rule="nonzero" fill-opacity="1" /><path clip-path="url(#clip620)" d="M479.414 1389.89 L479.414 1391.97 L459.831 1391.97 Q460.109 1396.37 462.47 1398.68 Q464.854 1400.97 469.09 1400.97 Q471.544 1400.97 473.835 1400.37 Q476.15 1399.77 478.419 1398.57 L478.419 1402.59 Q476.127 1403.57 473.72 1404.08 Q471.312 1404.59 468.835 1404.59 Q462.632 1404.59 458.998 1400.97 Q455.386 1397.36 455.386 1391.21 Q455.386 1384.84 458.812 1381.11 Q462.261 1377.36 468.095 1377.36 Q473.326 1377.36 476.359 1380.74 Q479.414 1384.1 479.414 1389.89 M475.155 1388.64 Q475.109 1385.14 473.187 1383.06 Q471.289 1380.97 468.141 1380.97 Q464.576 1380.97 462.423 1382.99 Q460.294 1385 459.97 1388.66 L475.155 1388.64 Z" fill="#000000" fill-rule="nonzero" fill-opacity="1" /><path clip-path="url(#clip620)" d="M498.187 1390.88 Q493.025 1390.88 491.034 1392.06 Q489.044 1393.24 489.044 1396.09 Q489.044 1398.36 490.525 1399.7 Q492.03 1401.02 494.599 1401.02 Q498.141 1401.02 500.27 1398.52 Q502.423 1396 502.423 1391.83 L502.423 1390.88 L498.187 1390.88 M506.682 1389.12 L506.682 1403.91 L502.423 1403.91 L502.423 1399.98 Q500.965 1402.34 498.789 1403.47 Q496.613 1404.59 493.465 1404.59 Q489.483 1404.59 487.122 1402.36 Q484.784 1400.12 484.784 1396.37 Q484.784 1391.99 487.701 1389.77 Q490.641 1387.55 496.451 1387.55 L502.423 1387.55 L502.423 1387.13 Q502.423 1384.19 500.479 1382.6 Q498.557 1380.97 495.062 1380.97 Q492.84 1380.97 490.733 1381.51 Q488.627 1382.04 486.683 1383.1 L486.683 1379.17 Q489.021 1378.27 491.22 1377.83 Q493.419 1377.36 495.502 1377.36 Q501.127 1377.36 503.905 1380.28 Q506.682 1383.2 506.682 1389.12 Z" fill="#000000" fill-rule="nonzero" fill-opacity="1" /><path clip-path="url(#clip620)" d="M531.983 1378.75 L531.983 1382.78 Q530.178 1381.85 528.233 1381.39 Q526.289 1380.93 524.206 1380.93 Q521.034 1380.93 519.437 1381.9 Q517.863 1382.87 517.863 1384.82 Q517.863 1386.3 518.997 1387.16 Q520.131 1387.99 523.557 1388.75 L525.016 1389.08 Q529.553 1390.05 531.451 1391.83 Q533.372 1393.59 533.372 1396.76 Q533.372 1400.37 530.502 1402.48 Q527.655 1404.59 522.655 1404.59 Q520.571 1404.59 518.303 1404.17 Q516.057 1403.78 513.557 1402.97 L513.557 1398.57 Q515.919 1399.79 518.21 1400.42 Q520.502 1401.02 522.747 1401.02 Q525.756 1401.02 527.377 1400 Q528.997 1398.96 528.997 1397.09 Q528.997 1395.35 527.817 1394.42 Q526.659 1393.5 522.701 1392.64 L521.219 1392.29 Q517.261 1391.46 515.502 1389.75 Q513.743 1388.01 513.743 1385 Q513.743 1381.35 516.335 1379.35 Q518.928 1377.36 523.696 1377.36 Q526.057 1377.36 528.141 1377.71 Q530.224 1378.06 531.983 1378.75 Z" fill="#000000" fill-rule="nonzero" fill-opacity="1" /><path clip-path="url(#clip620)" d="M539.715 1393.68 L539.715 1377.99 L543.974 1377.99 L543.974 1393.52 Q543.974 1397.2 545.409 1399.05 Q546.844 1400.88 549.715 1400.88 Q553.164 1400.88 555.154 1398.68 Q557.168 1396.48 557.168 1392.69 L557.168 1377.99 L561.428 1377.99 L561.428 1403.91 L557.168 1403.91 L557.168 1399.93 Q555.617 1402.29 553.557 1403.45 Q551.52 1404.59 548.812 1404.59 Q544.344 1404.59 542.029 1401.81 Q539.715 1399.03 539.715 1393.68 M550.432 1377.36 L550.432 1377.36 Z" fill="#000000" fill-rule="nonzero" fill-opacity="1" /><path clip-path="url(#clip620)" d="M585.224 1381.97 Q584.506 1381.55 583.65 1381.37 Q582.816 1381.16 581.798 1381.16 Q578.187 1381.16 576.242 1383.52 Q574.321 1385.86 574.321 1390.26 L574.321 1403.91 L570.039 1403.91 L570.039 1377.99 L574.321 1377.99 L574.321 1382.02 Q575.664 1379.66 577.816 1378.52 Q579.969 1377.36 583.048 1377.36 Q583.488 1377.36 584.02 1377.43 Q584.552 1377.48 585.201 1377.6 L585.224 1381.97 Z" fill="#000000" fill-rule="nonzero" fill-opacity="1" /><path clip-path="url(#clip620)" d="M610.825 1389.89 L610.825 1391.97 L591.242 1391.97 Q591.52 1396.37 593.881 1398.68 Q596.265 1400.97 600.501 1400.97 Q602.955 1400.97 605.247 1400.37 Q607.562 1399.77 609.83 1398.57 L609.83 1402.59 Q607.538 1403.57 605.131 1404.08 Q602.724 1404.59 600.247 1404.59 Q594.043 1404.59 590.409 1400.97 Q586.798 1397.36 586.798 1391.21 Q586.798 1384.84 590.224 1381.11 Q593.673 1377.36 599.506 1377.36 Q604.737 1377.36 607.77 1380.74 Q610.825 1384.1 610.825 1389.89 M606.566 1388.64 Q606.52 1385.14 604.599 1383.06 Q602.7 1380.97 599.552 1380.97 Q595.988 1380.97 593.835 1382.99 Q591.705 1385 591.381 1388.66 L606.566 1388.64 Z" fill="#000000" fill-rule="nonzero" fill-opacity="1" /><path clip-path="url(#clip620)" d="M638.001 1382.97 Q639.598 1380.1 641.821 1378.73 Q644.043 1377.36 647.052 1377.36 Q651.103 1377.36 653.302 1380.21 Q655.501 1383.03 655.501 1388.27 L655.501 1403.91 L651.219 1403.91 L651.219 1388.41 Q651.219 1384.68 649.899 1382.87 Q648.58 1381.07 645.872 1381.07 Q642.561 1381.07 640.64 1383.27 Q638.719 1385.47 638.719 1389.26 L638.719 1403.91 L634.436 1403.91 L634.436 1388.41 Q634.436 1384.66 633.117 1382.87 Q631.798 1381.07 629.043 1381.07 Q625.779 1381.07 623.858 1383.29 Q621.936 1385.49 621.936 1389.26 L621.936 1403.91 L617.654 1403.91 L617.654 1377.99 L621.936 1377.99 L621.936 1382.02 Q623.395 1379.63 625.432 1378.5 Q627.469 1377.36 630.27 1377.36 Q633.094 1377.36 635.061 1378.8 Q637.052 1380.23 638.001 1382.97 Z" fill="#000000" fill-rule="nonzero" fill-opacity="1" /><path clip-path="url(#clip620)" d="M686.172 1389.89 L686.172 1391.97 L666.589 1391.97 Q666.867 1396.37 669.228 1398.68 Q671.612 1400.97 675.848 1400.97 Q678.302 1400.97 680.594 1400.37 Q682.908 1399.77 685.177 1398.57 L685.177 1402.59 Q682.885 1403.57 680.478 1404.08 Q678.07 1404.59 675.594 1404.59 Q669.39 1404.59 665.756 1400.97 Q662.145 1397.36 662.145 1391.21 Q662.145 1384.84 665.57 1381.11 Q669.02 1377.36 674.853 1377.36 Q680.084 1377.36 683.117 1380.74 Q686.172 1384.1 686.172 1389.89 M681.913 1388.64 Q681.867 1385.14 679.945 1383.06 Q678.047 1380.97 674.899 1380.97 Q671.334 1380.97 669.182 1382.99 Q667.052 1385 666.728 1388.66 L681.913 1388.64 Z" fill="#000000" fill-rule="nonzero" fill-opacity="1" /><path clip-path="url(#clip620)" d="M714.714 1388.27 L714.714 1403.91 L710.455 1403.91 L710.455 1388.41 Q710.455 1384.72 709.019 1382.9 Q707.584 1381.07 704.714 1381.07 Q701.265 1381.07 699.274 1383.27 Q697.283 1385.47 697.283 1389.26 L697.283 1403.91 L693.001 1403.91 L693.001 1377.99 L697.283 1377.99 L697.283 1382.02 Q698.811 1379.68 700.871 1378.52 Q702.955 1377.36 705.663 1377.36 Q710.13 1377.36 712.422 1380.14 Q714.714 1382.9 714.714 1388.27 Z" fill="#000000" fill-rule="nonzero" fill-opacity="1" /><path clip-path="url(#clip620)" d="M727.422 1370.63 L727.422 1377.99 L736.195 1377.99 L736.195 1381.3 L727.422 1381.3 L727.422 1395.37 Q727.422 1398.54 728.278 1399.45 Q729.158 1400.35 731.82 1400.35 L736.195 1400.35 L736.195 1403.91 L731.82 1403.91 Q726.89 1403.91 725.015 1402.09 Q723.14 1400.23 723.14 1395.37 L723.14 1381.3 L720.015 1381.3 L720.015 1377.99 L723.14 1377.99 L723.14 1370.63 L727.422 1370.63 Z" fill="#000000" fill-rule="nonzero" fill-opacity="1" /></svg>
