<?xml version="1.0" encoding="utf-8"?>
<svg xmlns="http://www.w3.org/2000/svg" xmlns:xlink="http://www.w3.org/1999/xlink" width="600" height="400" viewBox="0 0 2400 1600">
<defs>
  <clipPath id="clip030">
    <rect x="0" y="0" width="2400" height="1600"/>
  </clipPath>
</defs>
<path clip-path="url(#clip030)" d="M0 1600 L2400 1600 L2400 0 L0 0  Z" fill="#ffffff" fill-rule="evenodd" fill-opacity="1"/>
<defs>
  <clipPath id="clip031">
    <rect x="480" y="0" width="1681" height="1600"/>
  </clipPath>
</defs>
<path clip-path="url(#clip030)" d="M140.51 1486.45 L2352.76 1486.45 L2352.76 47.2441 L140.51 47.2441  Z" fill="#ffffff" fill-rule="evenodd" fill-opacity="1"/>
<defs>
  <clipPath id="clip032">
    <rect x="140" y="47" width="2213" height="1440"/>
  </clipPath>
</defs>
<polyline clip-path="url(#clip032)" style="stroke:#000000; stroke-linecap:round; stroke-linejoin:round; stroke-width:2; stroke-opacity:0.1; fill:none" points="352.948,1486.45 352.948,47.2441 "/>
<polyline clip-path="url(#clip032)" style="stroke:#000000; stroke-linecap:round; stroke-linejoin:round; stroke-width:2; stroke-opacity:0.1; fill:none" points="786.727,1486.45 786.727,47.2441 "/>
<polyline clip-path="url(#clip032)" style="stroke:#000000; stroke-linecap:round; stroke-linejoin:round; stroke-width:2; stroke-opacity:0.1; fill:none" points="1220.51,1486.45 1220.51,47.2441 "/>
<polyline clip-path="url(#clip032)" style="stroke:#000000; stroke-linecap:round; stroke-linejoin:round; stroke-width:2; stroke-opacity:0.1; fill:none" points="1654.28,1486.45 1654.28,47.2441 "/>
<polyline clip-path="url(#clip032)" style="stroke:#000000; stroke-linecap:round; stroke-linejoin:round; stroke-width:2; stroke-opacity:0.1; fill:none" points="2088.06,1486.45 2088.06,47.2441 "/>
<polyline clip-path="url(#clip030)" style="stroke:#000000; stroke-linecap:round; stroke-linejoin:round; stroke-width:4; stroke-opacity:1; fill:none" points="140.51,1486.45 2352.76,1486.45 "/>
<polyline clip-path="url(#clip030)" style="stroke:#000000; stroke-linecap:round; stroke-linejoin:round; stroke-width:4; stroke-opacity:1; fill:none" points="352.948,1486.45 352.948,1467.55 "/>
<polyline clip-path="url(#clip030)" style="stroke:#000000; stroke-linecap:round; stroke-linejoin:round; stroke-width:4; stroke-opacity:1; fill:none" points="786.727,1486.45 786.727,1467.55 "/>
<polyline clip-path="url(#clip030)" style="stroke:#000000; stroke-linecap:round; stroke-linejoin:round; stroke-width:4; stroke-opacity:1; fill:none" points="1220.51,1486.45 1220.51,1467.55 "/>
<polyline clip-path="url(#clip030)" style="stroke:#000000; stroke-linecap:round; stroke-linejoin:round; stroke-width:4; stroke-opacity:1; fill:none" points="1654.28,1486.45 1654.28,1467.55 "/>
<polyline clip-path="url(#clip030)" style="stroke:#000000; stroke-linecap:round; stroke-linejoin:round; stroke-width:4; stroke-opacity:1; fill:none" points="2088.06,1486.45 2088.06,1467.55 "/>
<path clip-path="url(#clip030)" d="M307.011 1532.02 L336.687 1532.02 L336.687 1535.95 L307.011 1535.95 L307.011 1532.02 Z" fill="#000000" fill-rule="nonzero" fill-opacity="1" /><path clip-path="url(#clip030)" d="M360.946 1530.21 Q364.302 1530.93 366.177 1533.2 Q368.075 1535.47 368.075 1538.8 Q368.075 1543.92 364.557 1546.72 Q361.038 1549.52 354.557 1549.52 Q352.381 1549.52 350.066 1549.08 Q347.775 1548.66 345.321 1547.81 L345.321 1543.29 Q347.265 1544.43 349.58 1545.01 Q351.895 1545.58 354.418 1545.58 Q358.816 1545.58 361.108 1543.85 Q363.423 1542.11 363.423 1538.8 Q363.423 1535.75 361.27 1534.03 Q359.14 1532.3 355.321 1532.3 L351.293 1532.3 L351.293 1528.45 L355.506 1528.45 Q358.955 1528.45 360.784 1527.09 Q362.613 1525.7 362.613 1523.11 Q362.613 1520.45 360.714 1519.03 Q358.839 1517.6 355.321 1517.6 Q353.4 1517.6 351.201 1518.01 Q349.001 1518.43 346.363 1519.31 L346.363 1515.14 Q349.025 1514.4 351.339 1514.03 Q353.677 1513.66 355.738 1513.66 Q361.062 1513.66 364.163 1516.09 Q367.265 1518.5 367.265 1522.62 Q367.265 1525.49 365.622 1527.48 Q363.978 1529.45 360.946 1530.21 Z" fill="#000000" fill-rule="nonzero" fill-opacity="1" /><path clip-path="url(#clip030)" d="M386.941 1517.37 Q383.33 1517.37 381.501 1520.93 Q379.696 1524.47 379.696 1531.6 Q379.696 1538.71 381.501 1542.27 Q383.33 1545.82 386.941 1545.82 Q390.575 1545.82 392.381 1542.27 Q394.21 1538.71 394.21 1531.6 Q394.21 1524.47 392.381 1520.93 Q390.575 1517.37 386.941 1517.37 M386.941 1513.66 Q392.751 1513.66 395.807 1518.27 Q398.885 1522.85 398.885 1531.6 Q398.885 1540.33 395.807 1544.94 Q392.751 1549.52 386.941 1549.52 Q381.131 1549.52 378.052 1544.94 Q374.997 1540.33 374.997 1531.6 Q374.997 1522.85 378.052 1518.27 Q381.131 1513.66 386.941 1513.66 Z" fill="#000000" fill-rule="nonzero" fill-opacity="1" /><path clip-path="url(#clip030)" d="M786.727 1517.37 Q783.116 1517.37 781.287 1520.93 Q779.481 1524.47 779.481 1531.6 Q779.481 1538.71 781.287 1542.27 Q783.116 1545.82 786.727 1545.82 Q790.361 1545.82 792.167 1542.27 Q793.995 1538.71 793.995 1531.6 Q793.995 1524.47 792.167 1520.93 Q790.361 1517.37 786.727 1517.37 M786.727 1513.66 Q792.537 1513.66 795.592 1518.27 Q798.671 1522.85 798.671 1531.6 Q798.671 1540.33 795.592 1544.94 Q792.537 1549.52 786.727 1549.52 Q780.917 1549.52 777.838 1544.94 Q774.782 1540.33 774.782 1531.6 Q774.782 1522.85 777.838 1518.27 Q780.917 1513.66 786.727 1513.66 Z" fill="#000000" fill-rule="nonzero" fill-opacity="1" /><path clip-path="url(#clip030)" d="M1209.35 1530.21 Q1212.7 1530.93 1214.58 1533.2 Q1216.48 1535.47 1216.48 1538.8 Q1216.48 1543.92 1212.96 1546.72 Q1209.44 1549.52 1202.96 1549.52 Q1200.78 1549.52 1198.47 1549.08 Q1196.18 1548.66 1193.72 1547.81 L1193.72 1543.29 Q1195.67 1544.43 1197.98 1545.01 Q1200.3 1545.58 1202.82 1545.58 Q1207.22 1545.58 1209.51 1543.85 Q1211.82 1542.11 1211.82 1538.8 Q1211.82 1535.75 1209.67 1534.03 Q1207.54 1532.3 1203.72 1532.3 L1199.7 1532.3 L1199.7 1528.45 L1203.91 1528.45 Q1207.36 1528.45 1209.19 1527.09 Q1211.01 1525.7 1211.01 1523.11 Q1211.01 1520.45 1209.12 1519.03 Q1207.24 1517.6 1203.72 1517.6 Q1201.8 1517.6 1199.6 1518.01 Q1197.4 1518.43 1194.76 1519.31 L1194.76 1515.14 Q1197.43 1514.4 1199.74 1514.03 Q1202.08 1513.66 1204.14 1513.66 Q1209.46 1513.66 1212.57 1516.09 Q1215.67 1518.5 1215.67 1522.62 Q1215.67 1525.49 1214.02 1527.48 Q1212.38 1529.45 1209.35 1530.21 Z" fill="#000000" fill-rule="nonzero" fill-opacity="1" /><path clip-path="url(#clip030)" d="M1235.34 1517.37 Q1231.73 1517.37 1229.9 1520.93 Q1228.1 1524.47 1228.1 1531.6 Q1228.1 1538.71 1229.9 1542.27 Q1231.73 1545.82 1235.34 1545.82 Q1238.98 1545.82 1240.78 1542.27 Q1242.61 1538.71 1242.61 1531.6 Q1242.61 1524.47 1240.78 1520.93 Q1238.98 1517.37 1235.34 1517.37 M1235.34 1513.66 Q1241.15 1513.66 1244.21 1518.27 Q1247.29 1522.85 1247.29 1531.6 Q1247.29 1540.33 1244.21 1544.94 Q1241.15 1549.52 1235.34 1549.52 Q1229.53 1549.52 1226.45 1544.94 Q1223.4 1540.33 1223.4 1531.6 Q1223.4 1522.85 1226.45 1518.27 Q1229.53 1513.66 1235.34 1513.66 Z" fill="#000000" fill-rule="nonzero" fill-opacity="1" /><path clip-path="url(#clip030)" d="M1639.69 1529.7 Q1636.54 1529.7 1634.69 1531.86 Q1632.86 1534.01 1632.86 1537.76 Q1632.86 1541.49 1634.69 1543.66 Q1636.54 1545.82 1639.69 1545.82 Q1642.84 1545.82 1644.67 1543.66 Q1646.52 1541.49 1646.52 1537.76 Q1646.52 1534.01 1644.67 1531.86 Q1642.84 1529.7 1639.69 1529.7 M1648.97 1515.05 L1648.97 1519.31 Q1647.21 1518.48 1645.41 1518.04 Q1643.62 1517.6 1641.86 1517.6 Q1637.24 1517.6 1634.78 1520.72 Q1632.35 1523.85 1632 1530.17 Q1633.37 1528.15 1635.43 1527.09 Q1637.49 1526 1639.97 1526 Q1645.17 1526 1648.18 1529.17 Q1651.22 1532.32 1651.22 1537.76 Q1651.22 1543.08 1648.07 1546.3 Q1644.92 1549.52 1639.69 1549.52 Q1633.69 1549.52 1630.52 1544.94 Q1627.35 1540.33 1627.35 1531.6 Q1627.35 1523.41 1631.24 1518.55 Q1635.13 1513.66 1641.68 1513.66 Q1643.44 1513.66 1645.22 1514.01 Q1647.03 1514.36 1648.97 1515.05 Z" fill="#000000" fill-rule="nonzero" fill-opacity="1" /><path clip-path="url(#clip030)" d="M1669.27 1517.37 Q1665.66 1517.37 1663.83 1520.93 Q1662.03 1524.47 1662.03 1531.6 Q1662.03 1538.71 1663.83 1542.27 Q1665.66 1545.82 1669.27 1545.82 Q1672.91 1545.82 1674.71 1542.27 Q1676.54 1538.71 1676.54 1531.6 Q1676.54 1524.47 1674.71 1520.93 Q1672.91 1517.37 1669.27 1517.37 M1669.27 1513.66 Q1675.08 1513.66 1678.14 1518.27 Q1681.22 1522.85 1681.22 1531.6 Q1681.22 1540.33 1678.14 1544.94 Q1675.08 1549.52 1669.27 1549.52 Q1663.46 1549.52 1660.38 1544.94 Q1657.33 1540.33 1657.33 1531.6 Q1657.33 1522.85 1660.38 1518.27 Q1663.46 1513.66 1669.27 1513.66 Z" fill="#000000" fill-rule="nonzero" fill-opacity="1" /><path clip-path="url(#clip030)" d="M2063.19 1548.13 L2063.19 1543.87 Q2064.95 1544.7 2066.75 1545.14 Q2068.56 1545.58 2070.3 1545.58 Q2074.93 1545.58 2077.36 1542.48 Q2079.81 1539.36 2080.16 1533.01 Q2078.81 1535.01 2076.75 1536.07 Q2074.69 1537.13 2072.19 1537.13 Q2067.01 1537.13 2063.98 1534.01 Q2060.97 1530.86 2060.97 1525.42 Q2060.97 1520.1 2064.12 1516.88 Q2067.26 1513.66 2072.5 1513.66 Q2078.49 1513.66 2081.64 1518.27 Q2084.81 1522.85 2084.81 1531.6 Q2084.81 1539.77 2080.92 1544.66 Q2077.06 1549.52 2070.5 1549.52 Q2068.75 1549.52 2066.94 1549.17 Q2065.13 1548.82 2063.19 1548.13 M2072.5 1533.48 Q2075.64 1533.48 2077.47 1531.32 Q2079.32 1529.17 2079.32 1525.42 Q2079.32 1521.7 2077.47 1519.54 Q2075.64 1517.37 2072.5 1517.37 Q2069.35 1517.37 2067.5 1519.54 Q2065.67 1521.7 2065.67 1525.42 Q2065.67 1529.17 2067.5 1531.32 Q2069.35 1533.48 2072.5 1533.48 Z" fill="#000000" fill-rule="nonzero" fill-opacity="1" /><path clip-path="url(#clip030)" d="M2103.21 1517.37 Q2099.6 1517.37 2097.77 1520.93 Q2095.97 1524.47 2095.97 1531.6 Q2095.97 1538.71 2097.77 1542.27 Q2099.6 1545.82 2103.21 1545.82 Q2106.85 1545.82 2108.65 1542.27 Q2110.48 1538.71 2110.48 1531.6 Q2110.48 1524.47 2108.65 1520.93 Q2106.85 1517.37 2103.21 1517.37 M2103.21 1513.66 Q2109.02 1513.66 2112.08 1518.27 Q2115.16 1522.85 2115.16 1531.6 Q2115.16 1540.33 2112.08 1544.94 Q2109.02 1549.52 2103.21 1549.52 Q2097.4 1549.52 2094.32 1544.94 Q2091.27 1540.33 2091.27 1531.6 Q2091.27 1522.85 2094.32 1518.27 Q2097.4 1513.66 2103.21 1513.66 Z" fill="#000000" fill-rule="nonzero" fill-opacity="1" /><polyline clip-path="url(#clip032)" style="stroke:#000000; stroke-linecap:round; stroke-linejoin:round; stroke-width:2; stroke-opacity:0.1; fill:none" points="140.51,1180.13 2352.76,1180.13 "/>
<polyline clip-path="url(#clip032)" style="stroke:#000000; stroke-linecap:round; stroke-linejoin:round; stroke-width:2; stroke-opacity:0.1; fill:none" points="140.51,872.409 2352.76,872.409 "/>
<polyline clip-path="url(#clip032)" style="stroke:#000000; stroke-linecap:round; stroke-linejoin:round; stroke-width:2; stroke-opacity:0.1; fill:none" points="140.51,564.692 2352.76,564.692 "/>
<polyline clip-path="url(#clip032)" style="stroke:#000000; stroke-linecap:round; stroke-linejoin:round; stroke-width:2; stroke-opacity:0.1; fill:none" points="140.51,256.975 2352.76,256.975 "/>
<polyline clip-path="url(#clip030)" style="stroke:#000000; stroke-linecap:round; stroke-linejoin:round; stroke-width:4; stroke-opacity:1; fill:none" points="140.51,1486.45 140.51,47.2441 "/>
<polyline clip-path="url(#clip030)" style="stroke:#000000; stroke-linecap:round; stroke-linejoin:round; stroke-width:4; stroke-opacity:1; fill:none" points="140.51,1180.13 159.408,1180.13 "/>
<polyline clip-path="url(#clip030)" style="stroke:#000000; stroke-linecap:round; stroke-linejoin:round; stroke-width:4; stroke-opacity:1; fill:none" points="140.51,872.409 159.408,872.409 "/>
<polyline clip-path="url(#clip030)" style="stroke:#000000; stroke-linecap:round; stroke-linejoin:round; stroke-width:4; stroke-opacity:1; fill:none" points="140.51,564.692 159.408,564.692 "/>
<polyline clip-path="url(#clip030)" style="stroke:#000000; stroke-linecap:round; stroke-linejoin:round; stroke-width:4; stroke-opacity:1; fill:none" points="140.51,256.975 159.408,256.975 "/>
<path clip-path="url(#clip030)" d="M92.566 1165.92 Q88.9549 1165.92 87.1262 1169.49 Q85.3206 1173.03 85.3206 1180.16 Q85.3206 1187.27 87.1262 1190.83 Q88.9549 1194.37 92.566 1194.37 Q96.2002 1194.37 98.0058 1190.83 Q99.8345 1187.27 99.8345 1180.16 Q99.8345 1173.03 98.0058 1169.49 Q96.2002 1165.92 92.566 1165.92 M92.566 1162.22 Q98.3761 1162.22 101.432 1166.83 Q104.51 1171.41 104.51 1180.16 Q104.51 1188.89 101.432 1193.49 Q98.3761 1198.08 92.566 1198.08 Q86.7558 1198.08 83.6771 1193.49 Q80.6216 1188.89 80.6216 1180.16 Q80.6216 1171.41 83.6771 1166.83 Q86.7558 1162.22 92.566 1162.22 Z" fill="#000000" fill-rule="nonzero" fill-opacity="1" /><path clip-path="url(#clip030)" d="M57.4273 885.754 L73.7466 885.754 L73.7466 889.689 L51.8023 889.689 L51.8023 885.754 Q54.4643 882.999 59.0476 878.37 Q63.6541 873.717 64.8346 872.374 Q67.08 869.851 67.9596 868.115 Q68.8624 866.356 68.8624 864.666 Q68.8624 861.911 66.918 860.175 Q64.9967 858.439 61.8948 858.439 Q59.6958 858.439 57.2421 859.203 Q54.8115 859.967 52.0338 861.518 L52.0338 856.796 Q54.8578 855.661 57.3115 855.083 Q59.7652 854.504 61.8023 854.504 Q67.1726 854.504 70.367 857.189 Q73.5614 859.874 73.5614 864.365 Q73.5614 866.495 72.7513 868.416 Q71.9642 870.314 69.8578 872.907 Q69.2791 873.578 66.1772 876.796 Q63.0754 879.99 57.4273 885.754 Z" fill="#000000" fill-rule="nonzero" fill-opacity="1" /><path clip-path="url(#clip030)" d="M83.6077 855.129 L101.964 855.129 L101.964 859.064 L87.8901 859.064 L87.8901 867.536 Q88.9086 867.189 89.9271 867.027 Q90.9456 866.842 91.9641 866.842 Q97.7511 866.842 101.131 870.013 Q104.51 873.184 104.51 878.601 Q104.51 884.18 101.038 887.282 Q97.566 890.36 91.2465 890.36 Q89.0706 890.36 86.8021 889.99 Q84.5568 889.62 82.1494 888.879 L82.1494 884.18 Q84.2327 885.314 86.4549 885.87 Q88.6771 886.425 91.1539 886.425 Q95.1586 886.425 97.4965 884.319 Q99.8345 882.212 99.8345 878.601 Q99.8345 874.99 97.4965 872.884 Q95.1586 870.777 91.1539 870.777 Q89.279 870.777 87.404 871.194 Q85.5521 871.61 83.6077 872.49 L83.6077 855.129 Z" fill="#000000" fill-rule="nonzero" fill-opacity="1" /><path clip-path="url(#clip030)" d="M52.4505 547.412 L70.8068 547.412 L70.8068 551.347 L56.7328 551.347 L56.7328 559.819 Q57.7513 559.472 58.7699 559.31 Q59.7884 559.125 60.8069 559.125 Q66.5939 559.125 69.9735 562.296 Q73.3531 565.467 73.3531 570.884 Q73.3531 576.463 69.8809 579.564 Q66.4087 582.643 60.0893 582.643 Q57.9134 582.643 55.6449 582.273 Q53.3995 581.902 50.9921 581.162 L50.9921 576.463 Q53.0754 577.597 55.2977 578.152 Q57.5199 578.708 59.9967 578.708 Q64.0013 578.708 66.3393 576.601 Q68.6772 574.495 68.6772 570.884 Q68.6772 567.273 66.3393 565.166 Q64.0013 563.06 59.9967 563.06 Q58.1217 563.06 56.2467 563.477 Q54.3949 563.893 52.4505 564.773 L52.4505 547.412 Z" fill="#000000" fill-rule="nonzero" fill-opacity="1" /><path clip-path="url(#clip030)" d="M92.566 550.49 Q88.9549 550.49 87.1262 554.055 Q85.3206 557.597 85.3206 564.727 Q85.3206 571.833 87.1262 575.398 Q88.9549 578.939 92.566 578.939 Q96.2002 578.939 98.0058 575.398 Q99.8345 571.833 99.8345 564.727 Q99.8345 557.597 98.0058 554.055 Q96.2002 550.49 92.566 550.49 M92.566 546.787 Q98.3761 546.787 101.432 551.393 Q104.51 555.977 104.51 564.727 Q104.51 573.453 101.432 578.06 Q98.3761 582.643 92.566 582.643 Q86.7558 582.643 83.6771 578.06 Q80.6216 573.453 80.6216 564.727 Q80.6216 555.977 83.6771 551.393 Q86.7558 546.787 92.566 546.787 Z" fill="#000000" fill-rule="nonzero" fill-opacity="1" /><path clip-path="url(#clip030)" d="M52.219 239.695 L74.4411 239.695 L74.4411 241.685 L61.8948 274.255 L57.0106 274.255 L68.8161 243.63 L52.219 243.63 L52.219 239.695 Z" fill="#000000" fill-rule="nonzero" fill-opacity="1" /><path clip-path="url(#clip030)" d="M83.6077 239.695 L101.964 239.695 L101.964 243.63 L87.8901 243.63 L87.8901 252.102 Q88.9086 251.755 89.9271 251.593 Q90.9456 251.407 91.9641 251.407 Q97.7511 251.407 101.131 254.579 Q104.51 257.75 104.51 263.167 Q104.51 268.745 101.038 271.847 Q97.566 274.926 91.2465 274.926 Q89.0706 274.926 86.8021 274.556 Q84.5568 274.185 82.1494 273.444 L82.1494 268.745 Q84.2327 269.88 86.4549 270.435 Q88.6771 270.991 91.1539 270.991 Q95.1586 270.991 97.4965 268.884 Q99.8345 266.778 99.8345 263.167 Q99.8345 259.556 97.4965 257.449 Q95.1586 255.343 91.1539 255.343 Q89.279 255.343 87.404 255.759 Q85.5521 256.176 83.6077 257.056 L83.6077 239.695 Z" fill="#000000" fill-rule="nonzero" fill-opacity="1" /><polyline clip-path="url(#clip032)" style="stroke:#0000ff; stroke-linecap:round; stroke-linejoin:round; stroke-width:4; stroke-opacity:1; fill:none" points="203.121,717.836 230.647,722.908 236.247,720.006 250.738,717.77 259.616,717.204 284.196,719.794 303.895,724.119 330.086,725.758 356.768,727.953 386.885,732.891 415.945,732.496 441.162,732.675 476.964,734.173 499.562,740.335 522.475,744.938 557.085,748.235 583.039,749.71 604.533,754.54 633.47,760.973 657.104,768.361 680.536,776.817 703.694,783.347 731.618,789.656 754.512,798.464 780.398,803.794 811.122,811.76 834.173,811.013 868.281,813.127 894.158,821.583 920.211,829.348 950.286,839.143 974.92,847.532 1001.19,854.46 1019.85,864.494 1037,876.751 1044.78,882.382 1065.65,884.479 1083.1,886.395 1105.26,887.703 1131.67,891.071 1158.4,901.904 1186.62,912.416 1208.83,917.046 1233.89,920.211 1266.77,921.246 1295.39,922.636 1327.77,927.691 1355.37,932.952 1381.64,936.361 1406.87,938.704 1438.77,938.3 1462.81,937.962 1489.85,937.363 1516.78,934.391 1546.2,928.834 1574.96,929.335 1602.77,927.666 1628.74,928.352 1649.54,921.817 1667.9,918.512 1684.28,911.591 1702.19,905.027 1723.28,905.056 1746.32,903.376 1768.31,905.63 1787.49,909.109 1809.39,916.159 1829.25,927.948 1850.76,940.617 1866.52,951.854 1882.02,968.432 1892.5,982.415 1899.5,996.344 1908.91,1015.37 1920.85,1033.1 1933.69,1051.87 1944.68,1062.42 1964.09,1068.58 1979.25,1071.1 1989.1,1069.95 2011.15,1062.58 2028.02,1057.67 2048.04,1036.53 2059.5,1020.96 2061.5,1001.05 2062.93,982.949 2061.4,961.468 2047.18,946.499 2028.19,939.8 2005.87,930.89 1977.29,932.438 1951.2,932.218 1930.83,929.804 1912.97,927.104 1891.79,924.307 1872.75,930.783 1850.96,937.425 1834.21,945.022 1810.72,946.887 1785.59,945.41 1757.97,940.567 1734.65,929.804 1712.11,919.229 1682.13,904.433 1656.43,886.338 1633.9,867.343 1618.48,852.507 1607.55,839.7 1591.57,826.93 1576.91,810.705 1564.68,795.17 1556.87,778.733 1557.21,763.314 1571.48,747.289 1584.65,734.598 1607.05,727.662 1626.37,726.572 1651.94,728.681 1673.91,743.231 1695.58,751.074 1710.29,756.242 1731.25,762.209 1752.97,773.328 1765.16,782.384 1782.65,792.898 1800.59,803.67 1822.35,811.007 1843.75,812.099 1865.79,812.136 1889.44,804.67 1910,800.298 1926.31,800.172 1945.39,808.194 1961.83,821.006 1976.41,837.486 1986.2,853.09 1994.91,873.144 2002.48,895.36 2006.68,914.692 2005.69,935.342 2005.61,945.185 2008.82,958.484 2019.31,977.047 2026.65,995.049 2039.28,1010.14 2050.76,1017.35 2063.7,1020.41 2081.71,1015.34 2101.56,1008.47 2113.97,999.393 2130.03,986.707 2140.09,977.217 2142.61,957.403 2131.25,940.637 2114.76,922.745 2098.5,906.245 2076.21,895.016 2048.69,889.386 2020.87,886.053 2003.19,884.223 1979.98,882.52 1959.82,880.687 1941.54,870.547 1926.87,863.991 1904.91,857.591 1888.71,857.272 1866.06,860.252 1845.2,854.724 1824.47,848.802 1805.11,847.763 1780.34,844.263 1762.31,839.123 1745.48,834.797 1723.7,833.429 1696.05,835.362 1668.87,841.455 1652.91,840.059 1648.76,831.724 1645.1,828.729 1638.44,827.717 1627.15,827.161 1617.69,826.467 1603.73,830.877 1589.36,837.734 1563.49,841.675 1541.66,845.776 1526.45,851.247 1517.41,860.333 1525.82,862.118 1543.57,859.265 1577.03,854.677 1592.3,835.752 1609.86,821.123 1615.51,805.336 1607.3,787.912 1591.33,769.884 1580.56,759.883 1571.02,738.959 1551.65,729.399 1529.9,739.973 1508.28,740.19 1479.04,735.294 1475.55,716.954 1471.03,697.339 1472.68,676.485 1476.72,660.9 1491.78,639.303 1499.45,618.723 1502.93,595.154 1484.52,583.153 1463.08,575.579 1453.22,573.388 1464.01,560.532 1485.22,549.502 1519.26,547.827 1558.54,534.834 1586.28,517.538 1604.9,493.006 1618.54,471.113 1640.16,463.144 1665.91,467.023 1689.8,472.035 1708.94,489.376 1736.43,502.461 1756.52,518.956 1766.63,540.524 1754.48,556.905 1735.47,573.174 1709.46,586.204 1675.22,591.749 1649.15,591.602 1615.75,577.199 1589.4,561.181 1579.56,539.251 1578.43,517.496 1596.71,502.663 1612.78,493.321 1635.32,478.842 1659.96,469.83 1682.52,453.91 1705.06,441.659 1725.9,441.273 1747.98,427.321 1751.29,412.762 1761.48,395.395 1774.86,390.147 1791.36,373.194 1785.58,358.62 1763.19,348.781 1759.06,346.296 1771.33,341.915 1797.42,336.261 1825.16,341.692 1849.78,343.755 1876.75,348.795 1901.28,367.479 1904.75,386.663 1901.37,399.335 1879.12,408.956 1863.5,431.118 1848.16,458.12 1838.92,490.111 1840.29,511.65 1804.42,513.103 1780.03,529.533 1748.58,536.315 1717.75,553.243 1701.03,578.747 1680.33,595.809 1653.83,590.821 1631.69,578.784 1603.42,569.63 1588.13,556.214 1562.8,540.906 1553.6,533.296 1562.55,511.28 1586.67,503.593 1621.32,497.821 1650.66,501.386 1685.33,508.633 1713.83,523.025 1722.6,544.512 1737.38,565.32 1753.66,570.619 1779.4,575.627 1803.06,584.83 1812.74,588.041 1838.67,580.647 1863.01,572.024 1882.92,562.123 1903.65,565.501 1923.06,579.791 1921.67,598.542 1921.95,619.293 1908.62,653.198 1886.91,679.105 1862.1,697.488 1839.84,726.665 1839.05,751.708 1802.47,762.923 1773.84,767.677 1746.59,783.054 1720.19,797.581 1703,816.771 1687.08,836.701 1661.15,860.826 1633.83,868.831 1607.32,860.106 1583.14,853.792 1551.26,850.843 1523.17,841.676 1502.42,820.214 1488.34,799.7 1458.3,777.995 1440.63,758.519 1415.02,741.192 1389.5,738.86 1360.02,744.508 1341.18,741.407 1315.76,732.774 1311.64,706.704 1294.81,699.1 1269.99,703.422 1250.68,712.306 1224.98,729.799 1219.97,737.119 1189.84,739.566 1166.87,746.011 1140.28,738.787 1119.23,720.484 1096.44,707.082 1062.12,702.177 1029.51,692.461 1006.48,688.182 985.429,677.575 966.334,656.599 965.472,643.062 975.388,623.677 992.179,603.784 1003.38,580.911 1008.88,549.543 1015.52,525.06 1000.35,505.032 980.733,500.76 970.636,489.894 975.658,476.61 1001.59,475.444 1036.93,479.19 1077.97,477.947 1113.22,473.326 1140.34,454.669 1164.98,430.005 1189.87,410.829 1221.88,404.109 1260.42,406.59 1292.76,417.959 1323.99,434.205 1354.81,446.713 1382.17,458.999 1404.22,473.466 1439.58,481.029 1464.49,494.686 1491.08,517.067 1521.53,543.433 1549.81,559.007 1574.43,570.817 1593.65,581.296 1603.09,571.194 1624.17,561.736 1650.24,548.394 1673.18,538.531 1703.5,527.275 1737.33,525.978 1773.59,535.806 1799.92,560.386 1807.21,582.706 1804.55,613.668 1785.65,646.993 1782.88,674.022 1775.29,705.836 1774.61,740.139 1792.02,770.977 1823.77,795.809 1863.52,793.4 1884.05,796.179 1915.16,802.324 1934.51,824.942 1960.93,850.888 1982.36,882.673 1993.63,915.84 1999.91,938.205 2015.1,918.312 2051.18,924.931 2079.34,931.342 2090.77,947.837 2093.1,950.734 2094.03,955.767 2098.68,971.745 2101.04,978.269 2114.8,981.986 2131.94,983.345 2160.52,978.167 2189.03,987.596 2202.85,1000.88 2215.78,1022.42 2215.92,1036.37 2219.47,1022.5 2224.43,1003.62 2222.24,975.295 2212.58,949.044 2196.07,925.731 2185.46,903.685 2187.08,883.74 2158.64,862.924 2152.81,831.3 2156.4,805.834 2176.55,794.844 2197.69,797.382 2221.6,805.81 2237.67,818.398 2249.66,838.225 2275.39,861.103 2289.68,882.488 2279.53,909.261 2260.95,931.822 2242.94,951.908 2212.68,963.799 2193.45,982.943 2165.19,996.446 2137.46,1019.23 2118.84,1040.48 2109.13,1064.35 2089.21,1087.19 2070.97,1109.62 2045.23,1126.63 2018.92,1137.74 1988.82,1153.59 1963.32,1171.4 1934.15,1180.54 1904.47,1200.44 1888.53,1218.26 1855.45,1229.51 1837.2,1244.61 1819.76,1264.23 1801.56,1291.36 1794.15,1312.22 1788.32,1333.05 1782.38,1357.03 1804.91,1377.99 1814.27,1392.87 1806.83,1416.08 1799.4,1442.52 1778.95,1445.72 1755.78,1443.16 1734.31,1424.6 1722,1398.09 1707.98,1376.13 1683.23,1353.99 1644.65,1327.83 1612.6,1319.63 1578.41,1319.4 1542.25,1326.23 1501.61,1336.02 1473.45,1338.48 1438.38,1326.55 1411.95,1313.67 1392.94,1288.76 1389.95,1255.33 1384.71,1214.58 1364.05,1187.84 1342.3,1167.72 1348.75,1135.79 1346.2,1107.63 1338.93,1083.29 1326.54,1055.44 1307.07,1031.37 1302.32,1005.26 1308.88,972.105 1318.07,938.734 1336.67,910.074 1352.55,878.965 1365.65,846.644 1392.74,824.498 1387.69,796.321 1372.2,772.491 1342.21,750.193 1309.3,747.209 1289.15,733.829 1281.36,708.657 1277.91,676.513 1289.77,648.564 1303.88,626.326 1326.39,617.816 1356.9,606.019 1393.51,600.797 1433.8,596.362 1473.05,596.603 1503.69,588.762 1525.86,562.41 1543.63,541.314 1571.49,529.202 1594.57,522.728 1596.94,507.169 1581.89,493.681 1562.04,478.698 1536.34,467.09 1507.25,440.338 1484.81,413.724 1470.78,387.206 1453.03,366.463 1450.48,348.355 1457.81,328.03 1474.91,318.803 1492.59,328.5 1522.53,331.972 1563.63,335.53 1598.5,344.861 1639.66,349.79 1673.43,353.439 1704.13,368.681 1728.38,374.095 1753.27,367.143 1776.7,355.956 1808.41,350.987 1841.27,351.786 1873.18,345.891 1896.13,361.031 1908.9,377.723 1913.03,370.583 1923.44,354.268 1939.72,337.633 1957.61,326.791 1982.27,310.828 2002.37,303.141 1992.03,304.246 1968.77,292.214 1958.85,274.91 1947.55,244.979 1951.62,215.74 1962.69,199.379 1991.4,190.861 2025.09,193.522 2051.03,198.279 2084.3,202.669 2119.91,215.063 2142.49,237.499 2148.01,266.44 2141.39,293.204 2129.48,302.055 2133.86,318.013 2136.84,340.256 2131.4,372.103 2103.18,389.531 2084.3,424.421 2055.78,445.782 2033.21,472.218 2026.71,506.907 2000.16,514.142 1964.5,515.647 1928.35,528.227 1897.56,542.341 1881.67,569.65 1870.52,600.691 1869.58,617.785 1896.5,621.568 1925.81,635.54 1963.64,648.9 1996.44,673.146 2026.6,687.894 2064.59,693.757 2100.69,693.113 2139.36,689.296 2168.35,694.477 2194.76,694.181 2205.14,678.663 2217.89,658.863 2234.25,639.213 2232.27,613.931 2229.02,594.824 2219.92,570.492 2192.5,549.592 2171.6,530.166 2145.67,516.055 2103.71,517.585 2077.56,524.54 2054.75,542.46 2038.06,561.999 2011.73,586.119 2007.05,616.724 2012.42,648.859 2016.28,678.668 2033.83,704.536 2046.2,729.731 2060.09,762.815 2074.32,793.654 2106.2,805.603 2136.52,822.85 2163.29,851.575 2183.99,875.265 2198.31,907.419 2205.52,931.911 2201.52,944.026 2169.28,944.82 2134.28,957.316 2105.47,956.033 2089.35,964.056 2069.34,966.65 2047.19,962.518 2016.21,948.642 1984.99,940.512 1948.13,943.631 1904.63,957.499 1865.31,970.863 1826.71,971.378 1783.96,979.143 1746.31,980.108 1707.01,981.279 1675.04,975.651 1640.2,979.079 1607.84,973.345 1574.62,966.653 1539.56,935.986 1510.98,920.761 1473.66,913.475 1440.38,898.211 1410.93,881.599 1379.13,861.54 1352.42,853.015 1325.46,866.287 1300.49,883.663 1270.83,899.438 1232.86,916.918 1195.15,925.336 1166.18,919.936 1138,896.541 1119.74,871.816 1101.93,842.145 1076.01,816.516 1064.69,785.967 1060.63,758.09 1063.4,735.076 1050.17,705.599 1025.94,688.551 997.911,677.474 978.79,656.271 970.288,625.065 967.761,600.652 955.297,573.097 965.2,546.187 987.568,518.63 998.425,502.274 1010.46,495.22 1021.35,480.336 1026.7,463.854 1032.94,441.347 1040.15,417.2 1045.39,388.082 1057.5,356.055 1057.1,331.212 1034.81,313.08 1015.71,299.212 988.223,299.343 961.13,308.508 932.55,304.844 900.061,289.703 861.673,275.963 839.013,268.94 817.964,264.949 802.061,248.207 801.24,226.706 816.255,208.14 838.868,189.465 862.638,171.475 906.702,159.867 936.949,147.4 970.082,141.75 1000.34,153.896 1028.19,160.003 1062.66,154.643 1097.38,149.807 1117.14,128.432 1133.55,109.151 1145.63,88.4843 "/>
<polyline clip-path="url(#clip032)" style="stroke:#ff0000; stroke-linecap:round; stroke-linejoin:round; stroke-width:4; stroke-opacity:1; fill:none" points="203.714,717.43 234.671,723.831 237.332,714.932 258.862,716.236 262.303,716.938 289.819,722.637 307.011,726.194 336.306,725.948 361.277,727.967 392.249,734.367 418.998,730.453 440.528,731.745 483.602,734.355 495.604,743.143 520.589,745.149 563.678,747.759 581.781,748.35 601.576,755.6 636.032,762.714 655.841,769.964 679.106,777.928 703.239,782.913 734.268,789.325 753.225,799.554 781.695,802.286 815.342,812.404 831.738,806.324 874.032,811.912 892.149,825.131 919.767,830.843 953.457,840.96 973.324,848.222 1000.97,853.934 1015.66,866.452 1033.84,879.683 1037.29,880.397 1070.13,880.865 1083.95,883.733 1109.02,885.752 1136.7,891.475 1161.82,906.159 1188.65,914.862 1206.81,915.465 1235.35,918.21 1271.69,919.391 1296.78,921.422 1331.41,928.586 1355.67,933.608 1380.76,935.626 1405.86,937.657 1443.05,935.873 1461.22,936.463 1490.63,936.23 1517.43,932.278 1548.51,926.075 1576.25,931.798 1603.03,927.86 1628.14,929.891 1646.19,917.828 1664.36,918.419 1681.55,909.347 1701.39,903.969 1725.67,908.99 1748.96,904.325 1769.78,908.621 1787.12,912.203 1810.59,920.204 1828.94,933.46 1851.58,944.452 1863.83,953.302 1880.54,972.553 1888.5,983.68 1895.62,997.798 1908.06,1019.35 1922.16,1034.92 1935.43,1053.49 1945.05,1058.65 1969.39,1063.7 1979.83,1065.85 1987.63,1064.29 2016.08,1054.34 2027.33,1053.49 2049.43,1026.42 2055.37,1018.14 2054.13,995.754 2058.2,980.799 2056.97,958.434 2037.76,948.157 2020.38,944.563 1997.71,933.571 1970.1,940.501 1949.27,936.205 1932.73,929.632 1915.38,926.05 1890.24,924.019 1872.24,936.094 1848.93,940.747 1836.05,947.566 1807.45,944.809 1782.32,942.79 1754.56,937.054 1736.22,923.798 1712.77,915.797 1677.11,898.959 1656.18,882.022 1635.26,865.085 1623.89,853.294 1612.54,841.49 1590.79,827.556 1577.66,809.105 1567.15,794.36 1560.95,777.349 1565.13,762.492 1583.97,747.513 1594.22,737.05 1617.47,732.422 1631.29,735.266 1660.63,735.032 1674.6,750.467 1695.36,754.75 1705.74,756.88 1733.43,762.591 1755.18,776.487 1760.46,783.86 1783.04,794.803 1802.17,805.044 1826.42,810.041 1845.39,807.653 1867.01,808.958 1891.91,798.36 1910.05,798.963 1923.92,801.819 1945.73,815.74 1960.6,828.245 1974.67,843.73 1981.8,857.786 1990.78,878.539 1999.76,899.304 2002.61,915.662 2000.35,937.276 2003.01,940.981 2009.35,958.077 2025.29,980.319 2028.16,996.714 2043.08,1009.28 2053.52,1011.45 2067.43,1014.32 2088.09,1005.93 2104.44,999.829 2113.84,992.283 2131.83,980.196 2136.93,974.94 2136.47,949.585 2121.54,937.03 2103.94,920.782 2093.31,905.987 2069.81,897.986 2041.21,895.242 2016.91,890.232 2006.5,888.078 1977.91,885.345 1960.56,881.764 1943.02,865.541 1929.14,862.685 1901.39,856.962 1889.35,860.777 1862.6,864.716 1844.26,851.484 1823.46,847.201 1804.47,849.576 1776.75,843.865 1763.71,838.031 1746.39,834.449 1720.48,835.409 1690.27,838.634 1666.15,846.253 1657.44,838.154 1657.29,825.525 1649.54,827.076 1638.32,827.913 1623.63,828.036 1616.7,826.608 1599.51,835.655 1586.63,842.45 1553.79,841.982 1538.26,845.071 1528.82,852.58 1522.01,863.793 1537.54,860.691 1556.52,858.303 1587.58,852.1 1596.88,831.963 1611.44,819.223 1615.61,804.342 1605.93,786.617 1589.35,767.477 1580.63,759.391 1569.18,735.044 1549.27,727.794 1526.97,742.06 1505.4,740.755 1474.28,734.342 1475.86,715.818 1470.52,695.89 1472.94,674.424 1477.11,659.604 1495,635.085 1500.02,617.324 1503.26,592.953 1484.24,582.786 1460.93,574.871 1454.04,573.456 1465.95,557.147 1490.82,546.623 1530.41,548.506 1568.09,531.261 1586.87,516.38 1604.69,491.96 1617.38,472.746 1637.92,464.487 1666.31,467.195 1690.43,472.13 1710.43,491.812 1739.8,504.072 1757.2,520.122 1766.05,540.665 1754.21,556.962 1734.63,574.81 1705.51,587.586 1671.14,593.039 1649.6,591.746 1610.67,574.366 1589.03,560.544 1580.22,539.988 1579.15,517.919 1597.92,503.05 1611.57,493.375 1638.05,476.98 1662.03,469.435 1685.05,452.338 1706.39,441.149 1724.44,441.728 1750.87,425.357 1750.73,412.889 1763.36,393.712 1775.34,389.945 1795.68,369.254 1784.37,357.623 1758.48,346.114 1774.72,340.132 1805.51,334.015 1832.22,342.569 1853.69,343.862 1881.22,349.487 1904.69,369.808 1904.05,385.206 1900.79,396.961 1875.22,410.378 1860.96,435.451 1845.88,463.49 1836.86,495.911 1840.49,509.13 1799.25,513.143 1779.7,530.978 1745.36,536.419 1714.61,555.079 1700.26,580.262 1681.5,595.168 1653.88,589.494 1631.38,578.625 1601.16,569.283 1589.85,557.59 1558.71,538.696 1556.09,535.04 1563.58,508.478 1591.02,501.634 1628.81,496.908 1652.92,501.856 1690.85,509.635 1715.97,524.147 1721.36,543.976 1737.11,565.947 1750.92,568.778 1781.99,575.154 1804.5,586.035 1811.41,587.451 1843.15,578.342 1867.15,570.772 1884.23,561.787 1904.95,566.033 1925.86,582.81 1920.96,600.559 1922.14,622.69 1904.59,659.776 1884.2,680.64 1861.15,697.847 1837.45,730.613 1839.43,749.851 1799.05,763.526 1775.8,768.167 1745.78,783.983 1720.03,797.548 1703.84,816.244 1686.8,837.92 1657.71,863.424 1634.42,868.076 1607.54,859.374 1583.29,854.364 1547.81,850.204 1520.95,841.502 1501.74,818.645 1488.64,800.194 1452.16,773.792 1441.69,759.058 1413.96,740.768 1392.37,739.463 1357.91,744.928 1344.09,742.072 1313.84,732.705 1311.09,703.854 1293.83,700.297 1267.12,704.223 1249.93,713.245 1222.43,732.718 1221.58,735.684 1183.65,740.435 1163.82,745.79 1137.06,737.112 1117.18,717.295 1094.72,706.377 1055.93,701.527 1025.75,692.161 1008.52,688.603 986.106,677.698 963.679,654.25 966.268,645.363 976.577,622.395 993.769,600.855 1004.06,577.924 1010.04,544.727 1016.02,524.073 999.669,505.081 982.477,501.548 971.299,489.88 975.579,475.146 1008.23,475.602 1046.89,480.427 1088.12,476.414 1114.74,472.512 1142.16,453.187 1167.83,427.29 1190.94,410.218 1221.81,404.1 1264.74,406.673 1293.99,418.895 1325.84,434.774 1355.12,447.008 1380.97,458.542 1402.55,472.327 1443.86,480.796 1465.45,494.594 1494.88,519.359 1526.96,547.804 1549.43,558.661 1571.91,569.529 1590.94,579.696 1600.34,572.237 1625.18,561.713 1655.14,545.995 1675.68,537.723 1708.23,525.673 1740.92,526.141 1778.06,536.874 1803.36,563.929 1806.15,580.115 1803.19,617.028 1782.94,650.434 1784.08,672.59 1774.18,708.186 1775.48,742.971 1793.11,771.736 1826.26,797.424 1864.19,792.661 1878.06,795.517 1916.17,803.357 1935.52,826.215 1964.46,854.217 1984.85,886.773 1994.84,917.213 1997.71,933.571 2012.21,920.794 2054.7,926.407 2079.03,931.417 2089.67,946.237 2092.33,949.941 2094.18,956.637 2099.72,976.725 2102.38,980.442 2119.77,984.024 2137.96,984.627 2169.86,975.408 2195.25,990.129 2203.26,1001.27 2218.47,1026.54 2216.03,1035.52 2220.09,1020.54 2225.76,999.582 2222.59,970.509 2210.88,945.99 2194.87,923.773 2185.84,902.996 2187.22,884.373 2153.88,858.611 2151.58,826.67 2157.25,805.831 2174.37,796.784 2195.99,798.101 2222.94,806.779 2237.87,819.285 2250.38,840.726 2280.28,865.762 2290.15,883.536 2278.62,912.658 2258.26,933.682 2242.17,952.452 2209.49,964.65 2193.38,983.433 2164.18,996.358 2135.17,1021.98 2119.03,1040.79 2109.03,1064.06 2087.76,1088.17 2070.77,1110.02 2044.15,1126.72 2019.15,1137.42 1984.71,1155.68 1961.53,1173.12 1933.84,1180.1 1902.01,1202.12 1890.91,1215.74 1853.75,1230.31 1839.15,1243.21 1818.56,1264.43 1798.95,1295.43 1794.8,1310.52 1788.97,1331.67 1781.48,1358.87 1808.75,1380.54 1813.25,1391.07 1805.76,1418.31 1798.25,1445.59 1779.95,1444.97 1754.63,1442.92 1730.85,1421.94 1720.07,1394.08 1706.79,1375.32 1680.38,1350.64 1636.57,1322.34 1614.8,1321.01 1578.24,1319.81 1539.16,1327.65 1495.74,1337.8 1477.46,1337.19 1436.47,1325.47 1413.77,1314.34 1391.85,1287.42 1390.73,1252.08 1384.36,1209.31 1364.24,1189.21 1344.15,1169.11 1350.02,1135.33 1346.39,1109.15 1338.44,1085.28 1325.23,1053.97 1306.05,1030.97 1302.43,1004.86 1309.16,968.257 1318.48,935.393 1337.34,907.698 1353.57,876.323 1366.33,844.259 1393.83,824.725 1386.74,798.065 1371.89,772.967 1338.94,747.304 1309.62,747.55 1291.43,734.367 1280.93,707.066 1276.43,671.605 1290.95,646.372 1303.75,627.072 1324.37,618.776 1361.31,604.449 1399.15,599.71 1440.45,595.685 1476.61,596.867 1500.64,589.285 1527.07,560.322 1543.25,541.773 1572.37,529.021 1592.11,523.704 1596.26,508.946 1582.35,493.621 1558.12,476.18 1532.23,464.634 1501.03,433.309 1481.94,410.722 1470.59,386.622 1454.14,367.704 1451.43,351.616 1458.1,328.131 1475.18,319.22 1494.13,329.3 1529.33,333.399 1572.23,335.959 1602.35,345.228 1644.44,350.73 1672.78,353.425 1704.7,369.279 1725.35,373.501 1752.74,366.682 1777.49,356.22 1811.75,350.804 1844.35,351.259 1875.15,345.142 1895.99,361.82 1906.5,376.381 1911.57,371.212 1924.17,352.059 1943.63,334.322 1960.66,325.399 1986.99,309.077 2003.19,303.083 1992.05,303.908 1963.52,288.793 1957.26,272.04 1944.76,238.548 1952.07,212.208 1962.18,201.918 1994.54,189.978 2029.7,194.053 2050.32,198.262 2088.94,203.038 2125.15,216.59 2144.4,239.053 2147.49,267.523 2140.25,293.888 2131.76,298.356 2133.81,317.361 2137.7,342.951 2131.47,378.904 2099.05,390.905 2080.85,430.687 2054.49,447.058 2032.57,473.694 2026.28,509.795 2003.94,511.444 1962.71,515.469 1925.94,529.76 1896.87,542.524 1881.79,570.649 1869.31,602.467 1870.31,612.043 1897.13,620.684 1929.24,636.661 1969.11,651.111 2002.28,676.713 2024.88,687.619 2067.23,693.182 2100.01,693.65 2141.34,689.613 2165.58,694.598 2191.45,693.638 2202.41,680.233 2219.25,658.656 2236.07,637.079 2232.13,611.268 2229.23,595.057 2218.37,567.855 2187.83,545.995 2170.32,529.944 2145.1,515.42 2096.97,518.03 2080.72,524.061 2053.5,543.435 2037.47,561.984 2007.78,590.245 2007.38,618.296 2013.06,650.742 2016.11,679.556 2034.65,705.294 2046.26,729.628 2061.56,767.305 2075.86,795.369 2106.25,804.773 2137.7,823.814 2165.93,854.795 2182.7,873.997 2198.92,908.843 2204.49,928.906 2202.06,937.867 2167.53,943.369 2126.28,960.108 2105.41,955.8 2092.54,962.619 2069.24,967.284 2044.92,962.262 2009.14,945.4 1981.35,939.664 1943.34,944.452 1895.07,959.751 1862.35,971.949 1825.96,970.755 1779.33,980.085 1746.42,979.605 1705.73,980.689 1677.95,974.953 1639.91,979.728 1608.68,973.279 1573.98,966.103 1532.97,929.177 1513,921.89 1471.42,913.298 1439.3,897.186 1410.66,881.801 1376.8,859.029 1356.02,854.746 1326.72,867.621 1300.03,884.188 1269.85,900.067 1227.59,919.761 1193.02,925.25 1168.78,920.241 1135.85,894.466 1120.22,872.286 1100.26,839.754 1074.29,815.469 1064.74,785.128 1061.22,759.218 1063.77,737.715 1048.18,703.066 1026.61,689.194 997.297,676.873 978.327,654.127 969.695,620.979 967.945,601.815 955.033,570.957 966.195,545.084 989.374,515.457 996.242,504.367 1009.11,497.646 1021.13,481.374 1026.24,463.699 1033.94,437.211 1040.76,413.676 1045.85,383.569 1059.5,349.044 1056.9,332.956 1033.72,312.671 1015.7,299.661 986.568,299.907 958.301,309.643 930.886,304.031 895.764,287.512 856.377,273.234 842.684,270.428 818.711,265.517 802.473,246.672 801.663,224.8 817.944,206.435 841.918,186.557 865.024,169.62 915.472,158.271 936.843,147.181 971.025,141.79 1000.1,153.926 1027.47,159.514 1065.08,154.825 1099.26,149.446 1116.3,128.201 1132.48,109.886 1146.07,87.9763 "/>
<path clip-path="url(#clip030)" d="M214.252 1438.47 L760.776 1438.47 L760.776 1282.95 L214.252 1282.95  Z" fill="#ffffff" fill-rule="evenodd" fill-opacity="1"/>
<polyline clip-path="url(#clip030)" style="stroke:#000000; stroke-linecap:round; stroke-linejoin:round; stroke-width:4; stroke-opacity:1; fill:none" points="214.252,1438.47 760.776,1438.47 760.776,1282.95 214.252,1282.95 214.252,1438.47 "/>
<polyline clip-path="url(#clip030)" style="stroke:#0000ff; stroke-linecap:round; stroke-linejoin:round; stroke-width:4; stroke-opacity:1; fill:none" points="238.832,1334.79 386.315,1334.79 "/>
<path clip-path="url(#clip030)" d="M434.924 1338.05 L434.924 1340.13 L415.34 1340.13 Q415.618 1344.53 417.979 1346.84 Q420.363 1349.13 424.6 1349.13 Q427.053 1349.13 429.345 1348.53 Q431.66 1347.93 433.928 1346.73 L433.928 1350.75 Q431.637 1351.73 429.229 1352.24 Q426.822 1352.75 424.345 1352.75 Q418.141 1352.75 414.507 1349.13 Q410.896 1345.52 410.896 1339.37 Q410.896 1333 414.322 1329.27 Q417.771 1325.52 423.604 1325.52 Q428.836 1325.52 431.868 1328.9 Q434.924 1332.26 434.924 1338.05 M430.664 1336.8 Q430.618 1333.3 428.697 1331.22 Q426.799 1329.13 423.65 1329.13 Q420.086 1329.13 417.933 1331.15 Q415.803 1333.16 415.479 1336.82 L430.664 1336.8 Z" fill="#000000" fill-rule="nonzero" fill-opacity="1" /><path clip-path="url(#clip030)" d="M458.442 1326.91 L458.442 1330.94 Q456.636 1330.01 454.692 1329.55 Q452.748 1329.09 450.664 1329.09 Q447.493 1329.09 445.896 1330.06 Q444.322 1331.03 444.322 1332.98 Q444.322 1334.46 445.456 1335.32 Q446.59 1336.15 450.016 1336.91 L451.474 1337.24 Q456.011 1338.21 457.91 1339.99 Q459.831 1341.75 459.831 1344.92 Q459.831 1348.53 456.96 1350.64 Q454.113 1352.75 449.113 1352.75 Q447.03 1352.75 444.761 1352.33 Q442.516 1351.94 440.016 1351.13 L440.016 1346.73 Q442.377 1347.95 444.669 1348.58 Q446.961 1349.18 449.206 1349.18 Q452.215 1349.18 453.836 1348.16 Q455.456 1347.12 455.456 1345.25 Q455.456 1343.51 454.275 1342.58 Q453.118 1341.66 449.16 1340.8 L447.678 1340.45 Q443.72 1339.62 441.961 1337.91 Q440.201 1336.17 440.201 1333.16 Q440.201 1329.51 442.794 1327.51 Q445.386 1325.52 450.155 1325.52 Q452.516 1325.52 454.599 1325.87 Q456.683 1326.22 458.442 1326.91 Z" fill="#000000" fill-rule="nonzero" fill-opacity="1" /><path clip-path="url(#clip030)" d="M470.826 1318.79 L470.826 1326.15 L479.599 1326.15 L479.599 1329.46 L470.826 1329.46 L470.826 1343.53 Q470.826 1346.7 471.683 1347.61 Q472.562 1348.51 475.224 1348.51 L479.599 1348.51 L479.599 1352.07 L475.224 1352.07 Q470.294 1352.07 468.419 1350.25 Q466.544 1348.39 466.544 1343.53 L466.544 1329.46 L463.419 1329.46 L463.419 1326.15 L466.544 1326.15 L466.544 1318.79 L470.826 1318.79 Z" fill="#000000" fill-rule="nonzero" fill-opacity="1" /><path clip-path="url(#clip030)" d="M485.201 1326.15 L489.46 1326.15 L489.46 1352.07 L485.201 1352.07 L485.201 1326.15 M485.201 1316.06 L489.46 1316.06 L489.46 1321.45 L485.201 1321.45 L485.201 1316.06 Z" fill="#000000" fill-rule="nonzero" fill-opacity="1" /><path clip-path="url(#clip030)" d="M518.557 1331.13 Q520.155 1328.26 522.377 1326.89 Q524.599 1325.52 527.608 1325.52 Q531.659 1325.52 533.858 1328.37 Q536.057 1331.19 536.057 1336.43 L536.057 1352.07 L531.775 1352.07 L531.775 1336.57 Q531.775 1332.84 530.455 1331.03 Q529.136 1329.23 526.428 1329.23 Q523.118 1329.23 521.196 1331.43 Q519.275 1333.63 519.275 1337.42 L519.275 1352.07 L514.993 1352.07 L514.993 1336.57 Q514.993 1332.82 513.673 1331.03 Q512.354 1329.23 509.599 1329.23 Q506.335 1329.23 504.414 1331.45 Q502.493 1333.65 502.493 1337.42 L502.493 1352.07 L498.21 1352.07 L498.21 1326.15 L502.493 1326.15 L502.493 1330.18 Q503.951 1327.79 505.988 1326.66 Q508.025 1325.52 510.826 1325.52 Q513.65 1325.52 515.618 1326.96 Q517.608 1328.39 518.557 1331.13 Z" fill="#000000" fill-rule="nonzero" fill-opacity="1" /><path clip-path="url(#clip030)" d="M556.335 1339.04 Q551.173 1339.04 549.182 1340.22 Q547.191 1341.4 547.191 1344.25 Q547.191 1346.52 548.673 1347.86 Q550.178 1349.18 552.747 1349.18 Q556.289 1349.18 558.418 1346.68 Q560.571 1344.16 560.571 1339.99 L560.571 1339.04 L556.335 1339.04 M564.83 1337.28 L564.83 1352.07 L560.571 1352.07 L560.571 1348.14 Q559.113 1350.5 556.937 1351.63 Q554.761 1352.75 551.613 1352.75 Q547.631 1352.75 545.27 1350.52 Q542.932 1348.28 542.932 1344.53 Q542.932 1340.15 545.849 1337.93 Q548.789 1335.71 554.599 1335.71 L560.571 1335.71 L560.571 1335.29 Q560.571 1332.35 558.627 1330.76 Q556.705 1329.13 553.21 1329.13 Q550.988 1329.13 548.881 1329.67 Q546.775 1330.2 544.83 1331.26 L544.83 1327.33 Q547.168 1326.43 549.367 1325.99 Q551.566 1325.52 553.65 1325.52 Q559.275 1325.52 562.053 1328.44 Q564.83 1331.36 564.83 1337.28 Z" fill="#000000" fill-rule="nonzero" fill-opacity="1" /><path clip-path="url(#clip030)" d="M577.816 1318.79 L577.816 1326.15 L586.589 1326.15 L586.589 1329.46 L577.816 1329.46 L577.816 1343.53 Q577.816 1346.7 578.673 1347.61 Q579.552 1348.51 582.214 1348.51 L586.589 1348.51 L586.589 1352.07 L582.214 1352.07 Q577.284 1352.07 575.409 1350.25 Q573.534 1348.39 573.534 1343.53 L573.534 1329.46 L570.409 1329.46 L570.409 1326.15 L573.534 1326.15 L573.534 1318.79 L577.816 1318.79 Z" fill="#000000" fill-rule="nonzero" fill-opacity="1" /><path clip-path="url(#clip030)" d="M614.367 1338.05 L614.367 1340.13 L594.784 1340.13 Q595.062 1344.53 597.423 1346.84 Q599.807 1349.13 604.043 1349.13 Q606.497 1349.13 608.788 1348.53 Q611.103 1347.93 613.372 1346.73 L613.372 1350.75 Q611.08 1351.73 608.673 1352.24 Q606.265 1352.75 603.788 1352.75 Q597.585 1352.75 593.95 1349.13 Q590.339 1345.52 590.339 1339.37 Q590.339 1333 593.765 1329.27 Q597.214 1325.52 603.048 1325.52 Q608.279 1325.52 611.312 1328.9 Q614.367 1332.26 614.367 1338.05 M610.108 1336.8 Q610.062 1333.3 608.14 1331.22 Q606.242 1329.13 603.094 1329.13 Q599.529 1329.13 597.376 1331.15 Q595.247 1333.16 594.923 1336.82 L610.108 1336.8 Z" fill="#000000" fill-rule="nonzero" fill-opacity="1" /><polyline clip-path="url(#clip030)" style="stroke:#ff0000; stroke-linecap:round; stroke-linejoin:round; stroke-width:4; stroke-opacity:1; fill:none" points="238.832,1386.63 386.315,1386.63 "/>
<path clip-path="url(#clip030)" d="M431.243 1382.97 Q432.84 1380.1 435.062 1378.73 Q437.285 1377.36 440.294 1377.36 Q444.345 1377.36 446.544 1380.21 Q448.743 1383.03 448.743 1388.27 L448.743 1403.91 L444.461 1403.91 L444.461 1388.41 Q444.461 1384.68 443.141 1382.87 Q441.822 1381.07 439.113 1381.07 Q435.803 1381.07 433.882 1383.27 Q431.961 1385.47 431.961 1389.26 L431.961 1403.91 L427.678 1403.91 L427.678 1388.41 Q427.678 1384.66 426.359 1382.87 Q425.039 1381.07 422.285 1381.07 Q419.021 1381.07 417.1 1383.29 Q415.178 1385.49 415.178 1389.26 L415.178 1403.91 L410.896 1403.91 L410.896 1377.99 L415.178 1377.99 L415.178 1382.02 Q416.637 1379.63 418.674 1378.5 Q420.711 1377.36 423.512 1377.36 Q426.336 1377.36 428.303 1378.8 Q430.294 1380.23 431.243 1382.97 Z" fill="#000000" fill-rule="nonzero" fill-opacity="1" /><path clip-path="url(#clip030)" d="M479.414 1389.89 L479.414 1391.97 L459.831 1391.97 Q460.109 1396.37 462.47 1398.68 Q464.854 1400.97 469.09 1400.97 Q471.544 1400.97 473.835 1400.37 Q476.15 1399.77 478.419 1398.57 L478.419 1402.59 Q476.127 1403.57 473.72 1404.08 Q471.312 1404.59 468.835 1404.59 Q462.632 1404.59 458.998 1400.97 Q455.386 1397.36 455.386 1391.21 Q455.386 1384.84 458.812 1381.11 Q462.261 1377.36 468.095 1377.36 Q473.326 1377.36 476.359 1380.74 Q479.414 1384.1 479.414 1389.89 M475.155 1388.64 Q475.109 1385.14 473.187 1383.06 Q471.289 1380.97 468.141 1380.97 Q464.576 1380.97 462.423 1382.99 Q460.294 1385 459.97 1388.66 L475.155 1388.64 Z" fill="#000000" fill-rule="nonzero" fill-opacity="1" /><path clip-path="url(#clip030)" d="M498.187 1390.88 Q493.025 1390.88 491.034 1392.06 Q489.044 1393.24 489.044 1396.09 Q489.044 1398.36 490.525 1399.7 Q492.03 1401.02 494.599 1401.02 Q498.141 1401.02 500.27 1398.52 Q502.423 1396 502.423 1391.83 L502.423 1390.88 L498.187 1390.88 M506.682 1389.12 L506.682 1403.91 L502.423 1403.91 L502.423 1399.98 Q500.965 1402.34 498.789 1403.47 Q496.613 1404.59 493.465 1404.59 Q489.483 1404.59 487.122 1402.36 Q484.784 1400.12 484.784 1396.37 Q484.784 1391.99 487.701 1389.77 Q490.641 1387.55 496.451 1387.55 L502.423 1387.55 L502.423 1387.13 Q502.423 1384.19 500.479 1382.6 Q498.557 1380.97 495.062 1380.97 Q492.84 1380.97 490.733 1381.51 Q488.627 1382.04 486.683 1383.1 L486.683 1379.17 Q489.021 1378.27 491.22 1377.83 Q493.419 1377.36 495.502 1377.36 Q501.127 1377.36 503.905 1380.28 Q506.682 1383.2 506.682 1389.12 Z" fill="#000000" fill-rule="nonzero" fill-opacity="1" /><path clip-path="url(#clip030)" d="M531.983 1378.75 L531.983 1382.78 Q530.178 1381.85 528.233 1381.39 Q526.289 1380.93 524.206 1380.93 Q521.034 1380.93 519.437 1381.9 Q517.863 1382.87 517.863 1384.82 Q517.863 1386.3 518.997 1387.16 Q520.131 1387.99 523.557 1388.75 L525.016 1389.08 Q529.553 1390.05 531.451 1391.83 Q533.372 1393.59 533.372 1396.76 Q533.372 1400.37 530.502 1402.48 Q527.655 1404.59 522.655 1404.59 Q520.571 1404.59 518.303 1404.17 Q516.057 1403.78 513.557 1402.97 L513.557 1398.57 Q515.919 1399.79 518.21 1400.42 Q520.502 1401.02 522.747 1401.02 Q525.756 1401.02 527.377 1400 Q528.997 1398.96 528.997 1397.09 Q528.997 1395.35 527.817 1394.42 Q526.659 1393.5 522.701 1392.64 L521.219 1392.29 Q517.261 1391.46 515.502 1389.75 Q513.743 1388.01 513.743 1385 Q513.743 1381.35 516.335 1379.35 Q518.928 1377.36 523.696 1377.36 Q526.057 1377.36 528.141 1377.71 Q530.224 1378.06 531.983 1378.75 Z" fill="#000000" fill-rule="nonzero" fill-opacity="1" /><path clip-path="url(#clip030)" d="M539.715 1393.68 L539.715 1377.99 L543.974 1377.99 L543.974 1393.52 Q543.974 1397.2 545.409 1399.05 Q546.844 1400.88 549.715 1400.88 Q553.164 1400.88 555.154 1398.68 Q557.168 1396.48 557.168 1392.69 L557.168 1377.99 L561.428 1377.99 L561.428 1403.91 L557.168 1403.91 L557.168 1399.93 Q555.617 1402.29 553.557 1403.45 Q551.52 1404.59 548.812 1404.59 Q544.344 1404.59 542.029 1401.81 Q539.715 1399.03 539.715 1393.68 M550.432 1377.36 L550.432 1377.36 Z" fill="#000000" fill-rule="nonzero" fill-opacity="1" /><path clip-path="url(#clip030)" d="M585.224 1381.97 Q584.506 1381.55 583.65 1381.37 Q582.816 1381.16 581.798 1381.16 Q578.187 1381.16 576.242 1383.52 Q574.321 1385.86 574.321 1390.26 L574.321 1403.91 L570.039 1403.91 L570.039 1377.99 L574.321 1377.99 L574.321 1382.02 Q575.664 1379.66 577.816 1378.52 Q579.969 1377.36 583.048 1377.36 Q583.488 1377.36 584.02 1377.43 Q584.552 1377.48 585.201 1377.6 L585.224 1381.97 Z" fill="#000000" fill-rule="nonzero" fill-opacity="1" /><path clip-path="url(#clip030)" d="M610.825 1389.89 L610.825 1391.97 L591.242 1391.97 Q591.52 1396.37 593.881 1398.68 Q596.265 1400.97 600.501 1400.97 Q602.955 1400.97 605.247 1400.37 Q607.562 1399.77 609.83 1398.57 L609.83 1402.59 Q607.538 1403.57 605.131 1404.08 Q602.724 1404.59 600.247 1404.59 Q594.043 1404.59 590.409 1400.97 Q586.798 1397.36 586.798 1391.21 Q586.798 1384.84 590.224 1381.11 Q593.673 1377.36 599.506 1377.36 Q604.737 1377.36 607.77 1380.74 Q610.825 1384.1 610.825 1389.89 M606.566 1388.64 Q606.52 1385.14 604.599 1383.06 Q602.7 1380.97 599.552 1380.97 Q595.988 1380.97 593.835 1382.99 Q591.705 1385 591.381 1388.66 L606.566 1388.64 Z" fill="#000000" fill-rule="nonzero" fill-opacity="1" /><path clip-path="url(#clip030)" d="M638.001 1382.97 Q639.598 1380.1 641.821 1378.73 Q644.043 1377.36 647.052 1377.36 Q651.103 1377.36 653.302 1380.21 Q655.501 1383.03 655.501 1388.27 L655.501 1403.91 L651.219 1403.91 L651.219 1388.41 Q651.219 1384.68 649.899 1382.87 Q648.58 1381.07 645.872 1381.07 Q642.561 1381.07 640.64 1383.27 Q638.719 1385.47 638.719 1389.26 L638.719 1403.91 L634.436 1403.91 L634.436 1388.41 Q634.436 1384.66 633.117 1382.87 Q631.798 1381.07 629.043 1381.07 Q625.779 1381.07 623.858 1383.29 Q621.936 1385.49 621.936 1389.26 L621.936 1403.91 L617.654 1403.91 L617.654 1377.99 L621.936 1377.99 L621.936 1382.02 Q623.395 1379.63 625.432 1378.5 Q627.469 1377.36 630.27 1377.36 Q633.094 1377.36 635.061 1378.8 Q637.052 1380.23 638.001 1382.97 Z" fill="#000000" fill-rule="nonzero" fill-opacity="1" /><path clip-path="url(#clip030)" d="M686.172 1389.89 L686.172 1391.97 L666.589 1391.97 Q666.867 1396.37 669.228 1398.68 Q671.612 1400.97 675.848 1400.97 Q678.302 1400.97 680.594 1400.37 Q682.908 1399.77 685.177 1398.57 L685.177 1402.59 Q682.885 1403.57 680.478 1404.08 Q678.07 1404.59 675.594 1404.59 Q669.39 1404.59 665.756 1400.97 Q662.145 1397.36 662.145 1391.21 Q662.145 1384.84 665.57 1381.11 Q669.02 1377.36 674.853 1377.36 Q680.084 1377.36 683.117 1380.74 Q686.172 1384.1 686.172 1389.89 M681.913 1388.64 Q681.867 1385.14 679.945 1383.06 Q678.047 1380.97 674.899 1380.97 Q671.334 1380.97 669.182 1382.99 Q667.052 1385 666.728 1388.66 L681.913 1388.64 Z" fill="#000000" fill-rule="nonzero" fill-opacity="1" /><path clip-path="url(#clip030)" d="M714.714 1388.27 L714.714 1403.91 L710.455 1403.91 L710.455 1388.41 Q710.455 1384.72 709.019 1382.9 Q707.584 1381.07 704.714 1381.07 Q701.265 1381.07 699.274 1383.27 Q697.283 1385.47 697.283 1389.26 L697.283 1403.91 L693.001 1403.91 L693.001 1377.99 L697.283 1377.99 L697.283 1382.02 Q698.811 1379.68 700.871 1378.52 Q702.955 1377.36 705.663 1377.36 Q710.13 1377.36 712.422 1380.14 Q714.714 1382.9 714.714 1388.27 Z" fill="#000000" fill-rule="nonzero" fill-opacity="1" /><path clip-path="url(#clip030)" d="M727.422 1370.63 L727.422 1377.99 L736.195 1377.99 L736.195 1381.3 L727.422 1381.3 L727.422 1395.37 Q727.422 1398.54 728.278 1399.45 Q729.158 1400.35 731.82 1400.35 L736.195 1400.35 L736.195 1403.91 L731.82 1403.91 Q726.89 1403.91 725.015 1402.09 Q723.14 1400.23 723.14 1395.37 L723.14 1381.3 L720.015 1381.3 L720.015 1377.99 L723.14 1377.99 L723.14 1370.63 L727.422 1370.63 Z" fill="#000000" fill-rule="nonzero" fill-opacity="1" /></svg>
