<?xml version="1.0" encoding="utf-8"?>
<svg xmlns="http://www.w3.org/2000/svg" xmlns:xlink="http://www.w3.org/1999/xlink" width="600" height="400" viewBox="0 0 2400 1600">
<defs>
  <clipPath id="clip590">
    <rect x="0" y="0" width="2400" height="1600"/>
  </clipPath>
</defs>
<path clip-path="url(#clip590)" d="M0 1600 L2400 1600 L2400 0 L0 0  Z" fill="#ffffff" fill-rule="evenodd" fill-opacity="1"/>
<defs>
  <clipPath id="clip591">
    <rect x="239" y="123" width="2115" height="1288"/>
  </clipPath>
</defs>
<path clip-path="url(#clip590)" d="M239.19 1410.9 L2352.76 1410.9 L2352.76 123.472 L239.19 123.472  Z" fill="#ffffff" fill-rule="evenodd" fill-opacity="1"/>
<polyline clip-path="url(#clip591)" style="stroke:#000000; stroke-linecap:round; stroke-linejoin:round; stroke-width:2; stroke-opacity:0.1; fill:none" points="1096.58,1410.9 1096.58,123.472 "/>
<polyline clip-path="url(#clip591)" style="stroke:#000000; stroke-linecap:round; stroke-linejoin:round; stroke-width:2; stroke-opacity:0.1; fill:none" points="2093.55,1410.9 2093.55,123.472 "/>
<polyline clip-path="url(#clip591)" style="stroke:#000000; stroke-linecap:round; stroke-linejoin:round; stroke-width:2; stroke-opacity:0.1; fill:none" points="239.19,1285.92 2352.76,1285.92 "/>
<polyline clip-path="url(#clip591)" style="stroke:#000000; stroke-linecap:round; stroke-linejoin:round; stroke-width:2; stroke-opacity:0.1; fill:none" points="239.19,1077.77 2352.76,1077.77 "/>
<polyline clip-path="url(#clip591)" style="stroke:#000000; stroke-linecap:round; stroke-linejoin:round; stroke-width:2; stroke-opacity:0.1; fill:none" points="239.19,869.618 2352.76,869.618 "/>
<polyline clip-path="url(#clip591)" style="stroke:#000000; stroke-linecap:round; stroke-linejoin:round; stroke-width:2; stroke-opacity:0.1; fill:none" points="239.19,661.466 2352.76,661.466 "/>
<polyline clip-path="url(#clip591)" style="stroke:#000000; stroke-linecap:round; stroke-linejoin:round; stroke-width:2; stroke-opacity:0.1; fill:none" points="239.19,453.315 2352.76,453.315 "/>
<polyline clip-path="url(#clip591)" style="stroke:#000000; stroke-linecap:round; stroke-linejoin:round; stroke-width:2; stroke-opacity:0.1; fill:none" points="239.19,245.163 2352.76,245.163 "/>
<polyline clip-path="url(#clip590)" style="stroke:#000000; stroke-linecap:round; stroke-linejoin:round; stroke-width:4; stroke-opacity:1; fill:none" points="239.19,1410.9 2352.76,1410.9 "/>
<polyline clip-path="url(#clip590)" style="stroke:#000000; stroke-linecap:round; stroke-linejoin:round; stroke-width:4; stroke-opacity:1; fill:none" points="1096.58,1410.9 1096.58,1392 "/>
<polyline clip-path="url(#clip590)" style="stroke:#000000; stroke-linecap:round; stroke-linejoin:round; stroke-width:4; stroke-opacity:1; fill:none" points="2093.55,1410.9 2093.55,1392 "/>
<path clip-path="url(#clip590)" d="M1061.56 1485.02 L1069.2 1485.02 L1069.2 1458.66 L1060.89 1460.32 L1060.89 1456.06 L1069.16 1454.4 L1073.83 1454.4 L1073.83 1485.02 L1081.47 1485.02 L1081.47 1488.96 L1061.56 1488.96 L1061.56 1485.02 Z" fill="#000000" fill-rule="nonzero" fill-opacity="1" /><path clip-path="url(#clip590)" d="M1100.91 1457.48 Q1097.3 1457.48 1095.47 1461.04 Q1093.67 1464.58 1093.67 1471.71 Q1093.67 1478.82 1095.47 1482.38 Q1097.3 1485.92 1100.91 1485.92 Q1104.55 1485.92 1106.35 1482.38 Q1108.18 1478.82 1108.18 1471.71 Q1108.18 1464.58 1106.35 1461.04 Q1104.55 1457.48 1100.91 1457.48 M1100.91 1453.77 Q1106.72 1453.77 1109.78 1458.38 Q1112.86 1462.96 1112.86 1471.71 Q1112.86 1480.44 1109.78 1485.04 Q1106.72 1489.63 1100.91 1489.63 Q1095.1 1489.63 1092.03 1485.04 Q1088.97 1480.44 1088.97 1471.71 Q1088.97 1462.96 1092.03 1458.38 Q1095.1 1453.77 1100.91 1453.77 Z" fill="#000000" fill-rule="nonzero" fill-opacity="1" /><path clip-path="url(#clip590)" d="M1122.56 1435.97 Q1119.63 1435.97 1118.14 1438.86 Q1116.68 1441.74 1116.68 1447.53 Q1116.68 1453.31 1118.14 1456.2 Q1119.63 1459.08 1122.56 1459.08 Q1125.52 1459.08 1126.98 1456.2 Q1128.47 1453.31 1128.47 1447.53 Q1128.47 1441.74 1126.98 1438.86 Q1125.52 1435.97 1122.56 1435.97 M1122.56 1432.96 Q1127.28 1432.96 1129.77 1436.7 Q1132.27 1440.43 1132.27 1447.53 Q1132.27 1454.62 1129.77 1458.37 Q1127.28 1462.09 1122.56 1462.09 Q1117.84 1462.09 1115.34 1458.37 Q1112.86 1454.62 1112.86 1447.53 Q1112.86 1440.43 1115.34 1436.7 Q1117.84 1432.96 1122.56 1432.96 Z" fill="#000000" fill-rule="nonzero" fill-opacity="1" /><path clip-path="url(#clip590)" d="M2059.87 1485.02 L2067.51 1485.02 L2067.51 1458.66 L2059.2 1460.32 L2059.2 1456.06 L2067.47 1454.4 L2072.14 1454.4 L2072.14 1485.02 L2079.78 1485.02 L2079.78 1488.96 L2059.87 1488.96 L2059.87 1485.02 Z" fill="#000000" fill-rule="nonzero" fill-opacity="1" /><path clip-path="url(#clip590)" d="M2099.22 1457.48 Q2095.61 1457.48 2093.78 1461.04 Q2091.98 1464.58 2091.98 1471.71 Q2091.98 1478.82 2093.78 1482.38 Q2095.61 1485.92 2099.22 1485.92 Q2102.86 1485.92 2104.66 1482.38 Q2106.49 1478.82 2106.49 1471.71 Q2106.49 1464.58 2104.66 1461.04 Q2102.86 1457.48 2099.22 1457.48 M2099.22 1453.77 Q2105.03 1453.77 2108.09 1458.38 Q2111.17 1462.96 2111.17 1471.71 Q2111.17 1480.44 2108.09 1485.04 Q2105.03 1489.63 2099.22 1489.63 Q2093.41 1489.63 2090.34 1485.04 Q2087.28 1480.44 2087.28 1471.71 Q2087.28 1462.96 2090.34 1458.38 Q2093.41 1453.77 2099.22 1453.77 Z" fill="#000000" fill-rule="nonzero" fill-opacity="1" /><path clip-path="url(#clip590)" d="M2111.71 1458.35 L2117.92 1458.35 L2117.92 1436.93 L2111.17 1438.28 L2111.17 1434.82 L2117.88 1433.47 L2121.68 1433.47 L2121.68 1458.35 L2127.89 1458.35 L2127.89 1461.55 L2111.71 1461.55 L2111.71 1458.35 Z" fill="#000000" fill-rule="nonzero" fill-opacity="1" /><path clip-path="url(#clip590)" d="M733.834 1531.95 L733.834 1568.9 L741.6 1568.9 Q751.435 1568.9 755.986 1564.45 Q760.569 1559.99 760.569 1550.38 Q760.569 1540.83 755.986 1536.4 Q751.435 1531.95 741.6 1531.95 L733.834 1531.95 M727.404 1526.67 L740.613 1526.67 Q754.427 1526.67 760.888 1532.43 Q767.349 1538.16 767.349 1550.38 Q767.349 1562.66 760.856 1568.42 Q754.363 1574.19 740.613 1574.19 L727.404 1574.19 L727.404 1526.67 Z" fill="#000000" fill-rule="nonzero" fill-opacity="1" /><path clip-path="url(#clip590)" d="M792.175 1577.5 Q789.693 1583.86 787.337 1585.8 Q784.982 1587.74 781.035 1587.74 L776.356 1587.74 L776.356 1582.84 L779.794 1582.84 Q782.213 1582.84 783.55 1581.7 Q784.886 1580.55 786.51 1576.29 L787.56 1573.61 L773.142 1538.54 L779.348 1538.54 L790.488 1566.42 L801.628 1538.54 L807.835 1538.54 L792.175 1577.5 Z" fill="#000000" fill-rule="nonzero" fill-opacity="1" /><path clip-path="url(#clip590)" d="M845.552 1552.67 L845.552 1574.19 L839.695 1574.19 L839.695 1552.86 Q839.695 1547.8 837.722 1545.29 Q835.748 1542.77 831.802 1542.77 Q827.059 1542.77 824.322 1545.79 Q821.585 1548.82 821.585 1554.04 L821.585 1574.19 L815.696 1574.19 L815.696 1538.54 L821.585 1538.54 L821.585 1544.08 Q823.685 1540.86 826.518 1539.27 Q829.383 1537.68 833.107 1537.68 Q839.25 1537.68 842.401 1541.5 Q845.552 1545.29 845.552 1552.67 Z" fill="#000000" fill-rule="nonzero" fill-opacity="1" /><path clip-path="url(#clip590)" d="M873.433 1556.27 Q866.336 1556.27 863.598 1557.89 Q860.861 1559.51 860.861 1563.43 Q860.861 1566.55 862.898 1568.39 Q864.967 1570.21 868.5 1570.21 Q873.37 1570.21 876.298 1566.77 Q879.258 1563.3 879.258 1557.57 L879.258 1556.27 L873.433 1556.27 M885.115 1553.85 L885.115 1574.19 L879.258 1574.19 L879.258 1568.77 Q877.253 1572.02 874.261 1573.58 Q871.269 1575.11 866.94 1575.11 Q861.466 1575.11 858.219 1572.05 Q855.005 1568.97 855.005 1563.81 Q855.005 1557.79 859.015 1554.74 Q863.057 1551.68 871.046 1551.68 L879.258 1551.68 L879.258 1551.11 Q879.258 1547.07 876.584 1544.87 Q873.943 1542.64 869.137 1542.64 Q866.081 1542.64 863.185 1543.38 Q860.288 1544.11 857.615 1545.57 L857.615 1540.16 Q860.829 1538.92 863.853 1538.31 Q866.877 1537.68 869.741 1537.68 Q877.476 1537.68 881.295 1541.69 Q885.115 1545.7 885.115 1553.85 Z" fill="#000000" fill-rule="nonzero" fill-opacity="1" /><path clip-path="url(#clip590)" d="M924.932 1545.38 Q927.128 1541.43 930.184 1539.56 Q933.239 1537.68 937.377 1537.68 Q942.947 1537.68 945.971 1541.59 Q948.994 1545.48 948.994 1552.67 L948.994 1574.19 L943.106 1574.19 L943.106 1552.86 Q943.106 1547.74 941.292 1545.25 Q939.478 1542.77 935.754 1542.77 Q931.202 1542.77 928.56 1545.79 Q925.919 1548.82 925.919 1554.04 L925.919 1574.19 L920.03 1574.19 L920.03 1552.86 Q920.03 1547.7 918.216 1545.25 Q916.402 1542.77 912.614 1542.77 Q908.127 1542.77 905.485 1545.83 Q902.843 1548.85 902.843 1554.04 L902.843 1574.19 L896.955 1574.19 L896.955 1538.54 L902.843 1538.54 L902.843 1544.08 Q904.848 1540.8 907.649 1539.24 Q910.45 1537.68 914.301 1537.68 Q918.184 1537.68 920.89 1539.65 Q923.627 1541.62 924.932 1545.38 Z" fill="#000000" fill-rule="nonzero" fill-opacity="1" /><path clip-path="url(#clip590)" d="M960.675 1538.54 L966.532 1538.54 L966.532 1574.19 L960.675 1574.19 L960.675 1538.54 M960.675 1524.66 L966.532 1524.66 L966.532 1532.08 L960.675 1532.08 L960.675 1524.66 Z" fill="#000000" fill-rule="nonzero" fill-opacity="1" /><path clip-path="url(#clip590)" d="M1004.44 1539.91 L1004.44 1545.38 Q1001.96 1544.01 999.443 1543.34 Q996.96 1542.64 994.414 1542.64 Q988.716 1542.64 985.565 1546.27 Q982.414 1549.87 982.414 1556.39 Q982.414 1562.92 985.565 1566.55 Q988.716 1570.14 994.414 1570.14 Q996.96 1570.14 999.443 1569.47 Q1001.96 1568.77 1004.44 1567.41 L1004.44 1572.82 Q1001.99 1573.96 999.347 1574.54 Q996.737 1575.11 993.777 1575.11 Q985.725 1575.11 980.982 1570.05 Q976.24 1564.99 976.24 1556.39 Q976.24 1547.67 981.014 1542.68 Q985.82 1537.68 994.159 1537.68 Q996.865 1537.68 999.443 1538.25 Q1002.02 1538.79 1004.44 1539.91 Z" fill="#000000" fill-rule="nonzero" fill-opacity="1" /><path clip-path="url(#clip590)" d="M1037.35 1539.59 L1037.35 1545.13 Q1034.87 1543.85 1032.19 1543.22 Q1029.52 1542.58 1026.66 1542.58 Q1022.3 1542.58 1020.1 1543.92 Q1017.93 1545.25 1017.93 1547.93 Q1017.93 1549.96 1019.49 1551.14 Q1021.05 1552.29 1025.76 1553.34 L1027.77 1553.78 Q1034.01 1555.12 1036.62 1557.57 Q1039.26 1559.99 1039.26 1564.35 Q1039.26 1569.32 1035.31 1572.21 Q1031.4 1575.11 1024.52 1575.11 Q1021.66 1575.11 1018.54 1574.54 Q1015.45 1573.99 1012.01 1572.88 L1012.01 1566.83 Q1015.26 1568.52 1018.41 1569.38 Q1021.56 1570.21 1024.65 1570.21 Q1028.79 1570.21 1031.02 1568.81 Q1033.24 1567.37 1033.24 1564.8 Q1033.24 1562.41 1031.62 1561.14 Q1030.03 1559.86 1024.59 1558.68 L1022.55 1558.21 Q1017.11 1557.06 1014.69 1554.71 Q1012.27 1552.32 1012.27 1548.18 Q1012.27 1543.15 1015.83 1540.42 Q1019.4 1537.68 1025.96 1537.68 Q1029.2 1537.68 1032.07 1538.16 Q1034.93 1538.63 1037.35 1539.59 Z" fill="#000000" fill-rule="nonzero" fill-opacity="1" /><path clip-path="url(#clip590)" d="M1098.94 1552.67 L1098.94 1574.19 L1093.08 1574.19 L1093.08 1552.86 Q1093.08 1547.8 1091.11 1545.29 Q1089.14 1542.77 1085.19 1542.77 Q1080.45 1542.77 1077.71 1545.79 Q1074.97 1548.82 1074.97 1554.04 L1074.97 1574.19 L1069.08 1574.19 L1069.08 1538.54 L1074.97 1538.54 L1074.97 1544.08 Q1077.07 1540.86 1079.91 1539.27 Q1082.77 1537.68 1086.49 1537.68 Q1092.64 1537.68 1095.79 1541.5 Q1098.94 1545.29 1098.94 1552.67 Z" fill="#000000" fill-rule="nonzero" fill-opacity="1" /><path clip-path="url(#clip590)" d="M1124.43 1542.64 Q1119.72 1542.64 1116.99 1546.34 Q1114.25 1550 1114.25 1556.39 Q1114.25 1562.79 1116.95 1566.48 Q1119.69 1570.14 1124.43 1570.14 Q1129.11 1570.14 1131.85 1566.45 Q1134.59 1562.76 1134.59 1556.39 Q1134.59 1550.06 1131.85 1546.37 Q1129.11 1542.64 1124.43 1542.64 M1124.43 1537.68 Q1132.07 1537.68 1136.43 1542.64 Q1140.79 1547.61 1140.79 1556.39 Q1140.79 1565.15 1136.43 1570.14 Q1132.07 1575.11 1124.43 1575.11 Q1116.76 1575.11 1112.4 1570.14 Q1108.07 1565.15 1108.07 1556.39 Q1108.07 1547.61 1112.4 1542.64 Q1116.76 1537.68 1124.43 1537.68 Z" fill="#000000" fill-rule="nonzero" fill-opacity="1" /><path clip-path="url(#clip590)" d="M1150.5 1538.54 L1156.36 1538.54 L1156.36 1574.19 L1150.5 1574.19 L1150.5 1538.54 M1150.5 1524.66 L1156.36 1524.66 L1156.36 1532.08 L1150.5 1532.08 L1150.5 1524.66 Z" fill="#000000" fill-rule="nonzero" fill-opacity="1" /><path clip-path="url(#clip590)" d="M1191.34 1539.59 L1191.34 1545.13 Q1188.85 1543.85 1186.18 1543.22 Q1183.51 1542.58 1180.64 1542.58 Q1176.28 1542.58 1174.09 1543.92 Q1171.92 1545.25 1171.92 1547.93 Q1171.92 1549.96 1173.48 1551.14 Q1175.04 1552.29 1179.75 1553.34 L1181.76 1553.78 Q1187.99 1555.12 1190.6 1557.57 Q1193.25 1559.99 1193.25 1564.35 Q1193.25 1569.32 1189.3 1572.21 Q1185.38 1575.11 1178.51 1575.11 Q1175.65 1575.11 1172.53 1574.54 Q1169.44 1573.99 1166 1572.88 L1166 1566.83 Q1169.25 1568.52 1172.4 1569.38 Q1175.55 1570.21 1178.64 1570.21 Q1182.77 1570.21 1185 1568.81 Q1187.23 1567.37 1187.23 1564.8 Q1187.23 1562.41 1185.61 1561.14 Q1184.02 1559.86 1178.57 1558.68 L1176.54 1558.21 Q1171.09 1557.06 1168.67 1554.71 Q1166.26 1552.32 1166.26 1548.18 Q1166.26 1543.15 1169.82 1540.42 Q1173.39 1537.68 1179.94 1537.68 Q1183.19 1537.68 1186.05 1538.16 Q1188.92 1538.63 1191.34 1539.59 Z" fill="#000000" fill-rule="nonzero" fill-opacity="1" /><path clip-path="url(#clip590)" d="M1233.06 1554.9 L1233.06 1557.76 L1206.14 1557.76 Q1206.52 1563.81 1209.77 1566.99 Q1213.04 1570.14 1218.87 1570.14 Q1222.24 1570.14 1225.39 1569.32 Q1228.58 1568.49 1231.7 1566.83 L1231.7 1572.37 Q1228.54 1573.71 1225.23 1574.41 Q1221.92 1575.11 1218.52 1575.11 Q1209.99 1575.11 1204.99 1570.14 Q1200.03 1565.18 1200.03 1556.71 Q1200.03 1547.96 1204.74 1542.83 Q1209.48 1537.68 1217.5 1537.68 Q1224.69 1537.68 1228.86 1542.33 Q1233.06 1546.94 1233.06 1554.9 M1227.21 1553.18 Q1227.14 1548.37 1224.5 1545.51 Q1221.89 1542.64 1217.56 1542.64 Q1212.66 1542.64 1209.7 1545.41 Q1206.77 1548.18 1206.33 1553.21 L1227.21 1553.18 Z" fill="#000000" fill-rule="nonzero" fill-opacity="1" /><path clip-path="url(#clip590)" d="M1286.12 1539.59 L1286.12 1545.13 Q1283.64 1543.85 1280.97 1543.22 Q1278.29 1542.58 1275.43 1542.58 Q1271.07 1542.58 1268.87 1543.92 Q1266.71 1545.25 1266.71 1547.93 Q1266.71 1549.96 1268.27 1551.14 Q1269.83 1552.29 1274.54 1553.34 L1276.54 1553.78 Q1282.78 1555.12 1285.39 1557.57 Q1288.03 1559.99 1288.03 1564.35 Q1288.03 1569.32 1284.09 1572.21 Q1280.17 1575.11 1273.3 1575.11 Q1270.43 1575.11 1267.31 1574.54 Q1264.22 1573.99 1260.79 1572.88 L1260.79 1566.83 Q1264.03 1568.52 1267.18 1569.38 Q1270.34 1570.21 1273.42 1570.21 Q1277.56 1570.21 1279.79 1568.81 Q1282.02 1567.37 1282.02 1564.8 Q1282.02 1562.41 1280.39 1561.14 Q1278.8 1559.86 1273.36 1558.68 L1271.32 1558.21 Q1265.88 1557.06 1263.46 1554.71 Q1261.04 1552.32 1261.04 1548.18 Q1261.04 1543.15 1264.61 1540.42 Q1268.17 1537.68 1274.73 1537.68 Q1277.97 1537.68 1280.84 1538.16 Q1283.7 1538.63 1286.12 1539.59 Z" fill="#000000" fill-rule="nonzero" fill-opacity="1" /><path clip-path="url(#clip590)" d="M1303.15 1528.42 L1303.15 1538.54 L1315.21 1538.54 L1315.21 1543.09 L1303.15 1543.09 L1303.15 1562.44 Q1303.15 1566.8 1304.33 1568.04 Q1305.54 1569.28 1309.2 1569.28 L1315.21 1569.28 L1315.21 1574.19 L1309.2 1574.19 Q1302.42 1574.19 1299.84 1571.67 Q1297.26 1569.12 1297.26 1562.44 L1297.26 1543.09 L1292.97 1543.09 L1292.97 1538.54 L1297.26 1538.54 L1297.26 1528.42 L1303.15 1528.42 Z" fill="#000000" fill-rule="nonzero" fill-opacity="1" /><path clip-path="url(#clip590)" d="M1339.12 1556.27 Q1332.02 1556.27 1329.28 1557.89 Q1326.54 1559.51 1326.54 1563.43 Q1326.54 1566.55 1328.58 1568.39 Q1330.65 1570.21 1334.18 1570.21 Q1339.05 1570.21 1341.98 1566.77 Q1344.94 1563.3 1344.94 1557.57 L1344.94 1556.27 L1339.12 1556.27 M1350.8 1553.85 L1350.8 1574.19 L1344.94 1574.19 L1344.94 1568.77 Q1342.94 1572.02 1339.94 1573.58 Q1336.95 1575.11 1332.62 1575.11 Q1327.15 1575.11 1323.9 1572.05 Q1320.69 1568.97 1320.69 1563.81 Q1320.69 1557.79 1324.7 1554.74 Q1328.74 1551.68 1336.73 1551.68 L1344.94 1551.68 L1344.94 1551.11 Q1344.94 1547.07 1342.27 1544.87 Q1339.63 1542.64 1334.82 1542.64 Q1331.76 1542.64 1328.87 1543.38 Q1325.97 1544.11 1323.3 1545.57 L1323.3 1540.16 Q1326.51 1538.92 1329.54 1538.31 Q1332.56 1537.68 1335.42 1537.68 Q1343.16 1537.68 1346.98 1541.69 Q1350.8 1545.7 1350.8 1553.85 Z" fill="#000000" fill-rule="nonzero" fill-opacity="1" /><path clip-path="url(#clip590)" d="M1392.49 1552.67 L1392.49 1574.19 L1386.64 1574.19 L1386.64 1552.86 Q1386.64 1547.8 1384.66 1545.29 Q1382.69 1542.77 1378.74 1542.77 Q1374 1542.77 1371.26 1545.79 Q1368.53 1548.82 1368.53 1554.04 L1368.53 1574.19 L1362.64 1574.19 L1362.64 1538.54 L1368.53 1538.54 L1368.53 1544.08 Q1370.63 1540.86 1373.46 1539.27 Q1376.32 1537.68 1380.05 1537.68 Q1386.19 1537.68 1389.34 1541.5 Q1392.49 1545.29 1392.49 1552.67 Z" fill="#000000" fill-rule="nonzero" fill-opacity="1" /><path clip-path="url(#clip590)" d="M1427.63 1543.95 L1427.63 1524.66 L1433.49 1524.66 L1433.49 1574.19 L1427.63 1574.19 L1427.63 1568.84 Q1425.79 1572.02 1422.95 1573.58 Q1420.15 1575.11 1416.21 1575.11 Q1409.74 1575.11 1405.67 1569.95 Q1401.63 1564.8 1401.63 1556.39 Q1401.63 1547.99 1405.67 1542.83 Q1409.74 1537.68 1416.21 1537.68 Q1420.15 1537.68 1422.95 1539.24 Q1425.79 1540.77 1427.63 1543.95 M1407.68 1556.39 Q1407.68 1562.85 1410.32 1566.55 Q1412.99 1570.21 1417.64 1570.21 Q1422.28 1570.21 1424.96 1566.55 Q1427.63 1562.85 1427.63 1556.39 Q1427.63 1549.93 1424.96 1546.27 Q1422.28 1542.58 1417.64 1542.58 Q1412.99 1542.58 1410.32 1546.27 Q1407.68 1549.93 1407.68 1556.39 Z" fill="#000000" fill-rule="nonzero" fill-opacity="1" /><path clip-path="url(#clip590)" d="M1461.75 1556.27 Q1454.65 1556.27 1451.92 1557.89 Q1449.18 1559.51 1449.18 1563.43 Q1449.18 1566.55 1451.22 1568.39 Q1453.29 1570.21 1456.82 1570.21 Q1461.69 1570.21 1464.62 1566.77 Q1467.58 1563.3 1467.58 1557.57 L1467.58 1556.27 L1461.75 1556.27 M1473.43 1553.85 L1473.43 1574.19 L1467.58 1574.19 L1467.58 1568.77 Q1465.57 1572.02 1462.58 1573.58 Q1459.59 1575.11 1455.26 1575.11 Q1449.78 1575.11 1446.54 1572.05 Q1443.32 1568.97 1443.32 1563.81 Q1443.32 1557.79 1447.33 1554.74 Q1451.38 1551.68 1459.36 1551.68 L1467.58 1551.68 L1467.58 1551.11 Q1467.58 1547.07 1464.9 1544.87 Q1462.26 1542.64 1457.46 1542.64 Q1454.4 1542.64 1451.5 1543.38 Q1448.61 1544.11 1445.93 1545.57 L1445.93 1540.16 Q1449.15 1538.92 1452.17 1538.31 Q1455.2 1537.68 1458.06 1537.68 Q1465.79 1537.68 1469.61 1541.69 Q1473.43 1545.7 1473.43 1553.85 Z" fill="#000000" fill-rule="nonzero" fill-opacity="1" /><path clip-path="url(#clip590)" d="M1506.15 1544.01 Q1505.17 1543.44 1503.99 1543.18 Q1502.84 1542.9 1501.44 1542.9 Q1496.48 1542.9 1493.8 1546.14 Q1491.16 1549.36 1491.16 1555.41 L1491.16 1574.19 L1485.27 1574.19 L1485.27 1538.54 L1491.16 1538.54 L1491.16 1544.08 Q1493.01 1540.83 1495.97 1539.27 Q1498.93 1537.68 1503.16 1537.68 Q1503.77 1537.68 1504.5 1537.77 Q1505.23 1537.84 1506.12 1538 L1506.15 1544.01 Z" fill="#000000" fill-rule="nonzero" fill-opacity="1" /><path clip-path="url(#clip590)" d="M1534.61 1543.95 L1534.61 1524.66 L1540.46 1524.66 L1540.46 1574.19 L1534.61 1574.19 L1534.61 1568.84 Q1532.76 1572.02 1529.93 1573.58 Q1527.13 1575.11 1523.18 1575.11 Q1516.72 1575.11 1512.65 1569.95 Q1508.6 1564.8 1508.6 1556.39 Q1508.6 1547.99 1512.65 1542.83 Q1516.72 1537.68 1523.18 1537.68 Q1527.13 1537.68 1529.93 1539.24 Q1532.76 1540.77 1534.61 1543.95 M1514.65 1556.39 Q1514.65 1562.85 1517.29 1566.55 Q1519.97 1570.21 1524.61 1570.21 Q1529.26 1570.21 1531.93 1566.55 Q1534.61 1562.85 1534.61 1556.39 Q1534.61 1549.93 1531.93 1546.27 Q1529.26 1542.58 1524.61 1542.58 Q1519.97 1542.58 1517.29 1546.27 Q1514.65 1549.93 1514.65 1556.39 Z" fill="#000000" fill-rule="nonzero" fill-opacity="1" /><path clip-path="url(#clip590)" d="M1596.71 1543.95 L1596.71 1524.66 L1602.56 1524.66 L1602.56 1574.19 L1596.71 1574.19 L1596.71 1568.84 Q1594.86 1572.02 1592.03 1573.58 Q1589.23 1575.11 1585.28 1575.11 Q1578.82 1575.11 1574.74 1569.95 Q1570.7 1564.8 1570.7 1556.39 Q1570.7 1547.99 1574.74 1542.83 Q1578.82 1537.68 1585.28 1537.68 Q1589.23 1537.68 1592.03 1539.24 Q1594.86 1540.77 1596.71 1543.95 M1576.75 1556.39 Q1576.75 1562.85 1579.39 1566.55 Q1582.06 1570.21 1586.71 1570.21 Q1591.36 1570.21 1594.03 1566.55 Q1596.71 1562.85 1596.71 1556.39 Q1596.71 1549.93 1594.03 1546.27 Q1591.36 1542.58 1586.71 1542.58 Q1582.06 1542.58 1579.39 1546.27 Q1576.75 1549.93 1576.75 1556.39 Z" fill="#000000" fill-rule="nonzero" fill-opacity="1" /><path clip-path="url(#clip590)" d="M1645.12 1554.9 L1645.12 1557.76 L1618.19 1557.76 Q1618.57 1563.81 1621.82 1566.99 Q1625.1 1570.14 1630.92 1570.14 Q1634.29 1570.14 1637.45 1569.32 Q1640.63 1568.49 1643.75 1566.83 L1643.75 1572.37 Q1640.6 1573.71 1637.29 1574.41 Q1633.98 1575.11 1630.57 1575.11 Q1622.04 1575.11 1617.04 1570.14 Q1612.08 1565.18 1612.08 1556.71 Q1612.08 1547.96 1616.79 1542.83 Q1621.53 1537.68 1629.55 1537.68 Q1636.75 1537.68 1640.91 1542.33 Q1645.12 1546.94 1645.12 1554.9 M1639.26 1553.18 Q1639.2 1548.37 1636.55 1545.51 Q1633.94 1542.64 1629.62 1542.64 Q1624.71 1542.64 1621.75 1545.41 Q1618.83 1548.18 1618.38 1553.21 L1639.26 1553.18 Z" fill="#000000" fill-rule="nonzero" fill-opacity="1" /><path clip-path="url(#clip590)" d="M1650.53 1538.54 L1656.73 1538.54 L1667.87 1568.46 L1679.01 1538.54 L1685.22 1538.54 L1671.85 1574.19 L1663.9 1574.19 L1650.53 1538.54 Z" fill="#000000" fill-rule="nonzero" fill-opacity="1" /><path clip-path="url(#clip590)" d="M1693.3 1538.54 L1699.16 1538.54 L1699.16 1574.19 L1693.3 1574.19 L1693.3 1538.54 M1693.3 1524.66 L1699.16 1524.66 L1699.16 1532.08 L1693.3 1532.08 L1693.3 1524.66 Z" fill="#000000" fill-rule="nonzero" fill-opacity="1" /><path clip-path="url(#clip590)" d="M1727.62 1556.27 Q1720.52 1556.27 1717.78 1557.89 Q1715.04 1559.51 1715.04 1563.43 Q1715.04 1566.55 1717.08 1568.39 Q1719.15 1570.21 1722.68 1570.21 Q1727.55 1570.21 1730.48 1566.77 Q1733.44 1563.3 1733.44 1557.57 L1733.44 1556.27 L1727.62 1556.27 M1739.3 1553.85 L1739.3 1574.19 L1733.44 1574.19 L1733.44 1568.77 Q1731.44 1572.02 1728.44 1573.58 Q1725.45 1575.11 1721.12 1575.11 Q1715.65 1575.11 1712.4 1572.05 Q1709.19 1568.97 1709.19 1563.81 Q1709.19 1557.79 1713.2 1554.74 Q1717.24 1551.68 1725.23 1551.68 L1733.44 1551.68 L1733.44 1551.11 Q1733.44 1547.07 1730.77 1544.87 Q1728.13 1542.64 1723.32 1542.64 Q1720.26 1542.64 1717.37 1543.38 Q1714.47 1544.11 1711.8 1545.57 L1711.8 1540.16 Q1715.01 1538.92 1718.04 1538.31 Q1721.06 1537.68 1723.92 1537.68 Q1731.66 1537.68 1735.48 1541.69 Q1739.3 1545.7 1739.3 1553.85 Z" fill="#000000" fill-rule="nonzero" fill-opacity="1" /><path clip-path="url(#clip590)" d="M1757.15 1528.42 L1757.15 1538.54 L1769.22 1538.54 L1769.22 1543.09 L1757.15 1543.09 L1757.15 1562.44 Q1757.15 1566.8 1758.33 1568.04 Q1759.54 1569.28 1763.2 1569.28 L1769.22 1569.28 L1769.22 1574.19 L1763.2 1574.19 Q1756.42 1574.19 1753.84 1571.67 Q1751.26 1569.12 1751.26 1562.44 L1751.26 1543.09 L1746.97 1543.09 L1746.97 1538.54 L1751.26 1538.54 L1751.26 1528.42 L1757.15 1528.42 Z" fill="#000000" fill-rule="nonzero" fill-opacity="1" /><path clip-path="url(#clip590)" d="M1776.92 1538.54 L1782.77 1538.54 L1782.77 1574.19 L1776.92 1574.19 L1776.92 1538.54 M1776.92 1524.66 L1782.77 1524.66 L1782.77 1532.08 L1776.92 1532.08 L1776.92 1524.66 Z" fill="#000000" fill-rule="nonzero" fill-opacity="1" /><path clip-path="url(#clip590)" d="M1808.84 1542.64 Q1804.13 1542.64 1801.39 1546.34 Q1798.66 1550 1798.66 1556.39 Q1798.66 1562.79 1801.36 1566.48 Q1804.1 1570.14 1808.84 1570.14 Q1813.52 1570.14 1816.26 1566.45 Q1819 1562.76 1819 1556.39 Q1819 1550.06 1816.26 1546.37 Q1813.52 1542.64 1808.84 1542.64 M1808.84 1537.68 Q1816.48 1537.68 1820.84 1542.64 Q1825.2 1547.61 1825.2 1556.39 Q1825.2 1565.15 1820.84 1570.14 Q1816.48 1575.11 1808.84 1575.11 Q1801.17 1575.11 1796.81 1570.14 Q1792.48 1565.15 1792.48 1556.39 Q1792.48 1547.61 1796.81 1542.64 Q1801.17 1537.68 1808.84 1537.68 Z" fill="#000000" fill-rule="nonzero" fill-opacity="1" /><path clip-path="url(#clip590)" d="M1864.54 1552.67 L1864.54 1574.19 L1858.69 1574.19 L1858.69 1552.86 Q1858.69 1547.8 1856.71 1545.29 Q1854.74 1542.77 1850.79 1542.77 Q1846.05 1542.77 1843.31 1545.79 Q1840.58 1548.82 1840.58 1554.04 L1840.58 1574.19 L1834.69 1574.19 L1834.69 1538.54 L1840.58 1538.54 L1840.58 1544.08 Q1842.68 1540.86 1845.51 1539.27 Q1848.37 1537.68 1852.1 1537.68 Q1858.24 1537.68 1861.39 1541.5 Q1864.54 1545.29 1864.54 1552.67 Z" fill="#000000" fill-rule="nonzero" fill-opacity="1" /><polyline clip-path="url(#clip590)" style="stroke:#000000; stroke-linecap:round; stroke-linejoin:round; stroke-width:4; stroke-opacity:1; fill:none" points="239.19,1410.9 239.19,123.472 "/>
<polyline clip-path="url(#clip590)" style="stroke:#000000; stroke-linecap:round; stroke-linejoin:round; stroke-width:4; stroke-opacity:1; fill:none" points="239.19,1285.92 258.088,1285.92 "/>
<polyline clip-path="url(#clip590)" style="stroke:#000000; stroke-linecap:round; stroke-linejoin:round; stroke-width:4; stroke-opacity:1; fill:none" points="239.19,1077.77 258.088,1077.77 "/>
<polyline clip-path="url(#clip590)" style="stroke:#000000; stroke-linecap:round; stroke-linejoin:round; stroke-width:4; stroke-opacity:1; fill:none" points="239.19,869.618 258.088,869.618 "/>
<polyline clip-path="url(#clip590)" style="stroke:#000000; stroke-linecap:round; stroke-linejoin:round; stroke-width:4; stroke-opacity:1; fill:none" points="239.19,661.466 258.088,661.466 "/>
<polyline clip-path="url(#clip590)" style="stroke:#000000; stroke-linecap:round; stroke-linejoin:round; stroke-width:4; stroke-opacity:1; fill:none" points="239.19,453.315 258.088,453.315 "/>
<polyline clip-path="url(#clip590)" style="stroke:#000000; stroke-linecap:round; stroke-linejoin:round; stroke-width:4; stroke-opacity:1; fill:none" points="239.19,245.163 258.088,245.163 "/>
<path clip-path="url(#clip590)" d="M50.9921 1286.37 L80.6679 1286.37 L80.6679 1290.31 L50.9921 1290.31 L50.9921 1286.37 Z" fill="#000000" fill-rule="nonzero" fill-opacity="1" /><path clip-path="url(#clip590)" d="M94.7882 1299.27 L111.108 1299.27 L111.108 1303.2 L89.1632 1303.2 L89.1632 1299.27 Q91.8252 1296.51 96.4085 1291.88 Q101.015 1287.23 102.196 1285.89 Q104.441 1283.36 105.321 1281.63 Q106.223 1279.87 106.223 1278.18 Q106.223 1275.42 104.279 1273.69 Q102.358 1271.95 99.2558 1271.95 Q97.0567 1271.95 94.603 1272.71 Q92.1725 1273.48 89.3947 1275.03 L89.3947 1270.31 Q92.2188 1269.17 94.6724 1268.59 Q97.1261 1268.02 99.1632 1268.02 Q104.534 1268.02 107.728 1270.7 Q110.922 1273.39 110.922 1277.88 Q110.922 1280.01 110.112 1281.93 Q109.325 1283.83 107.219 1286.42 Q106.64 1287.09 103.538 1290.31 Q100.436 1293.5 94.7882 1299.27 Z" fill="#000000" fill-rule="nonzero" fill-opacity="1" /><path clip-path="url(#clip590)" d="M124.95 1299.27 L141.269 1299.27 L141.269 1303.2 L119.325 1303.2 L119.325 1299.27 Q121.987 1296.51 126.57 1291.88 Q131.177 1287.23 132.357 1285.89 Q134.603 1283.36 135.482 1281.63 Q136.385 1279.87 136.385 1278.18 Q136.385 1275.42 134.441 1273.69 Q132.519 1271.95 129.418 1271.95 Q127.219 1271.95 124.765 1272.71 Q122.334 1273.48 119.557 1275.03 L119.557 1270.31 Q122.381 1269.17 124.834 1268.59 Q127.288 1268.02 129.325 1268.02 Q134.695 1268.02 137.89 1270.7 Q141.084 1273.39 141.084 1277.88 Q141.084 1280.01 140.274 1281.93 Q139.487 1283.83 137.381 1286.42 Q136.802 1287.09 133.7 1290.31 Q130.598 1293.5 124.95 1299.27 Z" fill="#000000" fill-rule="nonzero" fill-opacity="1" /><path clip-path="url(#clip590)" d="M161.084 1271.72 Q157.473 1271.72 155.644 1275.28 Q153.839 1278.83 153.839 1285.96 Q153.839 1293.06 155.644 1296.63 Q157.473 1300.17 161.084 1300.17 Q164.718 1300.17 166.524 1296.63 Q168.353 1293.06 168.353 1285.96 Q168.353 1278.83 166.524 1275.28 Q164.718 1271.72 161.084 1271.72 M161.084 1268.02 Q166.894 1268.02 169.95 1272.62 Q173.029 1277.21 173.029 1285.96 Q173.029 1294.68 169.95 1299.29 Q166.894 1303.87 161.084 1303.87 Q155.274 1303.87 152.195 1299.29 Q149.14 1294.68 149.14 1285.96 Q149.14 1277.21 152.195 1272.62 Q155.274 1268.02 161.084 1268.02 Z" fill="#000000" fill-rule="nonzero" fill-opacity="1" /><path clip-path="url(#clip590)" d="M191.246 1271.72 Q187.635 1271.72 185.806 1275.28 Q184.001 1278.83 184.001 1285.96 Q184.001 1293.06 185.806 1296.63 Q187.635 1300.17 191.246 1300.17 Q194.88 1300.17 196.686 1296.63 Q198.514 1293.06 198.514 1285.96 Q198.514 1278.83 196.686 1275.28 Q194.88 1271.72 191.246 1271.72 M191.246 1268.02 Q197.056 1268.02 200.112 1272.62 Q203.19 1277.21 203.19 1285.96 Q203.19 1294.68 200.112 1299.29 Q197.056 1303.87 191.246 1303.87 Q185.436 1303.87 182.357 1299.29 Q179.302 1294.68 179.302 1285.96 Q179.302 1277.21 182.357 1272.62 Q185.436 1268.02 191.246 1268.02 Z" fill="#000000" fill-rule="nonzero" fill-opacity="1" /><path clip-path="url(#clip590)" d="M50.9921 1078.22 L80.6679 1078.22 L80.6679 1082.16 L50.9921 1082.16 L50.9921 1078.22 Z" fill="#000000" fill-rule="nonzero" fill-opacity="1" /><path clip-path="url(#clip590)" d="M94.7882 1091.11 L111.108 1091.11 L111.108 1095.05 L89.1632 1095.05 L89.1632 1091.11 Q91.8252 1088.36 96.4085 1083.73 Q101.015 1079.08 102.196 1077.73 Q104.441 1075.21 105.321 1073.48 Q106.223 1071.72 106.223 1070.03 Q106.223 1067.27 104.279 1065.54 Q102.358 1063.8 99.2558 1063.8 Q97.0567 1063.8 94.603 1064.56 Q92.1725 1065.33 89.3947 1066.88 L89.3947 1062.16 Q92.2188 1061.02 94.6724 1060.44 Q97.1261 1059.86 99.1632 1059.86 Q104.534 1059.86 107.728 1062.55 Q110.922 1065.23 110.922 1069.73 Q110.922 1071.86 110.112 1073.78 Q109.325 1075.67 107.219 1078.27 Q106.64 1078.94 103.538 1082.16 Q100.436 1085.35 94.7882 1091.11 Z" fill="#000000" fill-rule="nonzero" fill-opacity="1" /><path clip-path="url(#clip590)" d="M130.922 1063.57 Q127.311 1063.57 125.482 1067.13 Q123.677 1070.67 123.677 1077.8 Q123.677 1084.91 125.482 1088.48 Q127.311 1092.02 130.922 1092.02 Q134.556 1092.02 136.362 1088.48 Q138.191 1084.91 138.191 1077.8 Q138.191 1070.67 136.362 1067.13 Q134.556 1063.57 130.922 1063.57 M130.922 1059.86 Q136.732 1059.86 139.788 1064.47 Q142.867 1069.05 142.867 1077.8 Q142.867 1086.53 139.788 1091.14 Q136.732 1095.72 130.922 1095.72 Q125.112 1095.72 122.033 1091.14 Q118.978 1086.53 118.978 1077.8 Q118.978 1069.05 122.033 1064.47 Q125.112 1059.86 130.922 1059.86 Z" fill="#000000" fill-rule="nonzero" fill-opacity="1" /><path clip-path="url(#clip590)" d="M161.084 1063.57 Q157.473 1063.57 155.644 1067.13 Q153.839 1070.67 153.839 1077.8 Q153.839 1084.91 155.644 1088.48 Q157.473 1092.02 161.084 1092.02 Q164.718 1092.02 166.524 1088.48 Q168.353 1084.91 168.353 1077.8 Q168.353 1070.67 166.524 1067.13 Q164.718 1063.57 161.084 1063.57 M161.084 1059.86 Q166.894 1059.86 169.95 1064.47 Q173.029 1069.05 173.029 1077.8 Q173.029 1086.53 169.95 1091.14 Q166.894 1095.72 161.084 1095.72 Q155.274 1095.72 152.195 1091.14 Q149.14 1086.53 149.14 1077.8 Q149.14 1069.05 152.195 1064.47 Q155.274 1059.86 161.084 1059.86 Z" fill="#000000" fill-rule="nonzero" fill-opacity="1" /><path clip-path="url(#clip590)" d="M191.246 1063.57 Q187.635 1063.57 185.806 1067.13 Q184.001 1070.67 184.001 1077.8 Q184.001 1084.91 185.806 1088.48 Q187.635 1092.02 191.246 1092.02 Q194.88 1092.02 196.686 1088.48 Q198.514 1084.91 198.514 1077.8 Q198.514 1070.67 196.686 1067.13 Q194.88 1063.57 191.246 1063.57 M191.246 1059.86 Q197.056 1059.86 200.112 1064.47 Q203.19 1069.05 203.19 1077.8 Q203.19 1086.53 200.112 1091.14 Q197.056 1095.72 191.246 1095.72 Q185.436 1095.72 182.357 1091.14 Q179.302 1086.53 179.302 1077.8 Q179.302 1069.05 182.357 1064.47 Q185.436 1059.86 191.246 1059.86 Z" fill="#000000" fill-rule="nonzero" fill-opacity="1" /><path clip-path="url(#clip590)" d="M50.9921 870.069 L80.6679 870.069 L80.6679 874.004 L50.9921 874.004 L50.9921 870.069 Z" fill="#000000" fill-rule="nonzero" fill-opacity="1" /><path clip-path="url(#clip590)" d="M91.5706 882.963 L99.2095 882.963 L99.2095 856.597 L90.8993 858.264 L90.8993 854.005 L99.1632 852.338 L103.839 852.338 L103.839 882.963 L111.478 882.963 L111.478 886.898 L91.5706 886.898 L91.5706 882.963 Z" fill="#000000" fill-rule="nonzero" fill-opacity="1" /><path clip-path="url(#clip590)" d="M130.922 870.486 Q127.589 870.486 125.668 872.268 Q123.77 874.051 123.77 877.176 Q123.77 880.301 125.668 882.083 Q127.589 883.866 130.922 883.866 Q134.256 883.866 136.177 882.083 Q138.098 880.278 138.098 877.176 Q138.098 874.051 136.177 872.268 Q134.279 870.486 130.922 870.486 M126.246 868.495 Q123.237 867.754 121.547 865.694 Q119.881 863.634 119.881 860.671 Q119.881 856.528 122.82 854.12 Q125.783 851.713 130.922 851.713 Q136.084 851.713 139.024 854.12 Q141.964 856.528 141.964 860.671 Q141.964 863.634 140.274 865.694 Q138.607 867.754 135.621 868.495 Q139.001 869.282 140.876 871.574 Q142.774 873.866 142.774 877.176 Q142.774 882.199 139.695 884.884 Q136.64 887.569 130.922 887.569 Q125.205 887.569 122.126 884.884 Q119.07 882.199 119.07 877.176 Q119.07 873.866 120.969 871.574 Q122.867 869.282 126.246 868.495 M124.533 861.111 Q124.533 863.796 126.2 865.301 Q127.89 866.805 130.922 866.805 Q133.931 866.805 135.621 865.301 Q137.334 863.796 137.334 861.111 Q137.334 858.426 135.621 856.921 Q133.931 855.417 130.922 855.417 Q127.89 855.417 126.2 856.921 Q124.533 858.426 124.533 861.111 Z" fill="#000000" fill-rule="nonzero" fill-opacity="1" /><path clip-path="url(#clip590)" d="M161.084 855.417 Q157.473 855.417 155.644 858.981 Q153.839 862.523 153.839 869.653 Q153.839 876.759 155.644 880.324 Q157.473 883.866 161.084 883.866 Q164.718 883.866 166.524 880.324 Q168.353 876.759 168.353 869.653 Q168.353 862.523 166.524 858.981 Q164.718 855.417 161.084 855.417 M161.084 851.713 Q166.894 851.713 169.95 856.319 Q173.029 860.903 173.029 869.653 Q173.029 878.379 169.95 882.986 Q166.894 887.569 161.084 887.569 Q155.274 887.569 152.195 882.986 Q149.14 878.379 149.14 869.653 Q149.14 860.903 152.195 856.319 Q155.274 851.713 161.084 851.713 Z" fill="#000000" fill-rule="nonzero" fill-opacity="1" /><path clip-path="url(#clip590)" d="M191.246 855.417 Q187.635 855.417 185.806 858.981 Q184.001 862.523 184.001 869.653 Q184.001 876.759 185.806 880.324 Q187.635 883.866 191.246 883.866 Q194.88 883.866 196.686 880.324 Q198.514 876.759 198.514 869.653 Q198.514 862.523 196.686 858.981 Q194.88 855.417 191.246 855.417 M191.246 851.713 Q197.056 851.713 200.112 856.319 Q203.19 860.903 203.19 869.653 Q203.19 878.379 200.112 882.986 Q197.056 887.569 191.246 887.569 Q185.436 887.569 182.357 882.986 Q179.302 878.379 179.302 869.653 Q179.302 860.903 182.357 856.319 Q185.436 851.713 191.246 851.713 Z" fill="#000000" fill-rule="nonzero" fill-opacity="1" /><path clip-path="url(#clip590)" d="M50.9921 661.918 L80.6679 661.918 L80.6679 665.853 L50.9921 665.853 L50.9921 661.918 Z" fill="#000000" fill-rule="nonzero" fill-opacity="1" /><path clip-path="url(#clip590)" d="M91.5706 674.811 L99.2095 674.811 L99.2095 648.446 L90.8993 650.112 L90.8993 645.853 L99.1632 644.186 L103.839 644.186 L103.839 674.811 L111.478 674.811 L111.478 678.746 L91.5706 678.746 L91.5706 674.811 Z" fill="#000000" fill-rule="nonzero" fill-opacity="1" /><path clip-path="url(#clip590)" d="M131.501 659.603 Q128.353 659.603 126.501 661.756 Q124.672 663.909 124.672 667.659 Q124.672 671.385 126.501 673.561 Q128.353 675.714 131.501 675.714 Q134.649 675.714 136.478 673.561 Q138.33 671.385 138.33 667.659 Q138.33 663.909 136.478 661.756 Q134.649 659.603 131.501 659.603 M140.783 644.95 L140.783 649.21 Q139.024 648.376 137.219 647.936 Q135.436 647.497 133.677 647.497 Q129.047 647.497 126.594 650.622 Q124.163 653.747 123.816 660.066 Q125.182 658.052 127.242 656.987 Q129.302 655.899 131.779 655.899 Q136.987 655.899 139.996 659.071 Q143.029 662.219 143.029 667.659 Q143.029 672.983 139.881 676.2 Q136.732 679.418 131.501 679.418 Q125.506 679.418 122.334 674.834 Q119.163 670.228 119.163 661.501 Q119.163 653.307 123.052 648.446 Q126.941 643.561 133.492 643.561 Q135.251 643.561 137.033 643.909 Q138.839 644.256 140.783 644.95 Z" fill="#000000" fill-rule="nonzero" fill-opacity="1" /><path clip-path="url(#clip590)" d="M161.084 647.265 Q157.473 647.265 155.644 650.83 Q153.839 654.372 153.839 661.501 Q153.839 668.608 155.644 672.172 Q157.473 675.714 161.084 675.714 Q164.718 675.714 166.524 672.172 Q168.353 668.608 168.353 661.501 Q168.353 654.372 166.524 650.83 Q164.718 647.265 161.084 647.265 M161.084 643.561 Q166.894 643.561 169.95 648.168 Q173.029 652.751 173.029 661.501 Q173.029 670.228 169.95 674.834 Q166.894 679.418 161.084 679.418 Q155.274 679.418 152.195 674.834 Q149.14 670.228 149.14 661.501 Q149.14 652.751 152.195 648.168 Q155.274 643.561 161.084 643.561 Z" fill="#000000" fill-rule="nonzero" fill-opacity="1" /><path clip-path="url(#clip590)" d="M191.246 647.265 Q187.635 647.265 185.806 650.83 Q184.001 654.372 184.001 661.501 Q184.001 668.608 185.806 672.172 Q187.635 675.714 191.246 675.714 Q194.88 675.714 196.686 672.172 Q198.514 668.608 198.514 661.501 Q198.514 654.372 196.686 650.83 Q194.88 647.265 191.246 647.265 M191.246 643.561 Q197.056 643.561 200.112 648.168 Q203.19 652.751 203.19 661.501 Q203.19 670.228 200.112 674.834 Q197.056 679.418 191.246 679.418 Q185.436 679.418 182.357 674.834 Q179.302 670.228 179.302 661.501 Q179.302 652.751 182.357 648.168 Q185.436 643.561 191.246 643.561 Z" fill="#000000" fill-rule="nonzero" fill-opacity="1" /><path clip-path="url(#clip590)" d="M50.9921 453.766 L80.6679 453.766 L80.6679 457.701 L50.9921 457.701 L50.9921 453.766 Z" fill="#000000" fill-rule="nonzero" fill-opacity="1" /><path clip-path="url(#clip590)" d="M91.5706 466.66 L99.2095 466.66 L99.2095 440.294 L90.8993 441.961 L90.8993 437.702 L99.1632 436.035 L103.839 436.035 L103.839 466.66 L111.478 466.66 L111.478 470.595 L91.5706 470.595 L91.5706 466.66 Z" fill="#000000" fill-rule="nonzero" fill-opacity="1" /><path clip-path="url(#clip590)" d="M133.769 440.109 L121.964 458.558 L133.769 458.558 L133.769 440.109 M132.543 436.035 L138.422 436.035 L138.422 458.558 L143.353 458.558 L143.353 462.447 L138.422 462.447 L138.422 470.595 L133.769 470.595 L133.769 462.447 L118.168 462.447 L118.168 457.933 L132.543 436.035 Z" fill="#000000" fill-rule="nonzero" fill-opacity="1" /><path clip-path="url(#clip590)" d="M161.084 439.114 Q157.473 439.114 155.644 442.678 Q153.839 446.22 153.839 453.35 Q153.839 460.456 155.644 464.021 Q157.473 467.563 161.084 467.563 Q164.718 467.563 166.524 464.021 Q168.353 460.456 168.353 453.35 Q168.353 446.22 166.524 442.678 Q164.718 439.114 161.084 439.114 M161.084 435.41 Q166.894 435.41 169.95 440.016 Q173.029 444.6 173.029 453.35 Q173.029 462.076 169.95 466.683 Q166.894 471.266 161.084 471.266 Q155.274 471.266 152.195 466.683 Q149.14 462.076 149.14 453.35 Q149.14 444.6 152.195 440.016 Q155.274 435.41 161.084 435.41 Z" fill="#000000" fill-rule="nonzero" fill-opacity="1" /><path clip-path="url(#clip590)" d="M191.246 439.114 Q187.635 439.114 185.806 442.678 Q184.001 446.22 184.001 453.35 Q184.001 460.456 185.806 464.021 Q187.635 467.563 191.246 467.563 Q194.88 467.563 196.686 464.021 Q198.514 460.456 198.514 453.35 Q198.514 446.22 196.686 442.678 Q194.88 439.114 191.246 439.114 M191.246 435.41 Q197.056 435.41 200.112 440.016 Q203.19 444.6 203.19 453.35 Q203.19 462.076 200.112 466.683 Q197.056 471.266 191.246 471.266 Q185.436 471.266 182.357 466.683 Q179.302 462.076 179.302 453.35 Q179.302 444.6 182.357 440.016 Q185.436 435.41 191.246 435.41 Z" fill="#000000" fill-rule="nonzero" fill-opacity="1" /><path clip-path="url(#clip590)" d="M50.9921 245.615 L80.6679 245.615 L80.6679 249.55 L50.9921 249.55 L50.9921 245.615 Z" fill="#000000" fill-rule="nonzero" fill-opacity="1" /><path clip-path="url(#clip590)" d="M91.5706 258.508 L99.2095 258.508 L99.2095 232.143 L90.8993 233.809 L90.8993 229.55 L99.1632 227.883 L103.839 227.883 L103.839 258.508 L111.478 258.508 L111.478 262.443 L91.5706 262.443 L91.5706 258.508 Z" fill="#000000" fill-rule="nonzero" fill-opacity="1" /><path clip-path="url(#clip590)" d="M124.95 258.508 L141.269 258.508 L141.269 262.443 L119.325 262.443 L119.325 258.508 Q121.987 255.754 126.57 251.124 Q131.177 246.471 132.357 245.129 Q134.603 242.606 135.482 240.869 Q136.385 239.11 136.385 237.42 Q136.385 234.666 134.441 232.93 Q132.519 231.194 129.418 231.194 Q127.219 231.194 124.765 231.957 Q122.334 232.721 119.557 234.272 L119.557 229.55 Q122.381 228.416 124.834 227.837 Q127.288 227.258 129.325 227.258 Q134.695 227.258 137.89 229.944 Q141.084 232.629 141.084 237.119 Q141.084 239.249 140.274 241.17 Q139.487 243.069 137.381 245.661 Q136.802 246.332 133.7 249.55 Q130.598 252.744 124.95 258.508 Z" fill="#000000" fill-rule="nonzero" fill-opacity="1" /><path clip-path="url(#clip590)" d="M161.084 230.962 Q157.473 230.962 155.644 234.527 Q153.839 238.069 153.839 245.198 Q153.839 252.305 155.644 255.869 Q157.473 259.411 161.084 259.411 Q164.718 259.411 166.524 255.869 Q168.353 252.305 168.353 245.198 Q168.353 238.069 166.524 234.527 Q164.718 230.962 161.084 230.962 M161.084 227.258 Q166.894 227.258 169.95 231.865 Q173.029 236.448 173.029 245.198 Q173.029 253.925 169.95 258.531 Q166.894 263.115 161.084 263.115 Q155.274 263.115 152.195 258.531 Q149.14 253.925 149.14 245.198 Q149.14 236.448 152.195 231.865 Q155.274 227.258 161.084 227.258 Z" fill="#000000" fill-rule="nonzero" fill-opacity="1" /><path clip-path="url(#clip590)" d="M191.246 230.962 Q187.635 230.962 185.806 234.527 Q184.001 238.069 184.001 245.198 Q184.001 252.305 185.806 255.869 Q187.635 259.411 191.246 259.411 Q194.88 259.411 196.686 255.869 Q198.514 252.305 198.514 245.198 Q198.514 238.069 196.686 234.527 Q194.88 230.962 191.246 230.962 M191.246 227.258 Q197.056 227.258 200.112 231.865 Q203.19 236.448 203.19 245.198 Q203.19 253.925 200.112 258.531 Q197.056 263.115 191.246 263.115 Q185.436 263.115 182.357 258.531 Q179.302 253.925 179.302 245.198 Q179.302 236.448 182.357 231.865 Q185.436 227.258 191.246 227.258 Z" fill="#000000" fill-rule="nonzero" fill-opacity="1" /><path clip-path="url(#clip590)" d="M1017.21 12.096 L1025.39 12.096 L1025.39 65.6895 L1054.84 65.6895 L1054.84 72.576 L1017.21 72.576 L1017.21 12.096 Z" fill="#000000" fill-rule="nonzero" fill-opacity="1" /><path clip-path="url(#clip590)" d="M1079.23 32.4315 Q1073.23 32.4315 1069.75 37.1306 Q1066.27 41.7891 1066.27 49.9314 Q1066.27 58.0738 1069.71 62.7728 Q1073.19 67.4314 1079.23 67.4314 Q1085.18 67.4314 1088.67 62.7323 Q1092.15 58.0333 1092.15 49.9314 Q1092.15 41.8701 1088.67 37.1711 Q1085.18 32.4315 1079.23 32.4315 M1079.23 26.1121 Q1088.95 26.1121 1094.5 32.4315 Q1100.05 38.7509 1100.05 49.9314 Q1100.05 61.0714 1094.5 67.4314 Q1088.95 73.7508 1079.23 73.7508 Q1069.47 73.7508 1063.92 67.4314 Q1058.41 61.0714 1058.41 49.9314 Q1058.41 38.7509 1063.92 32.4315 Q1069.47 26.1121 1079.23 26.1121 Z" fill="#000000" fill-rule="nonzero" fill-opacity="1" /><path clip-path="url(#clip590)" d="M1142.26 49.3643 Q1142.26 41.2625 1138.9 36.8065 Q1135.58 32.3505 1129.54 32.3505 Q1123.55 32.3505 1120.18 36.8065 Q1116.86 41.2625 1116.86 49.3643 Q1116.86 57.4256 1120.18 61.8816 Q1123.55 66.3376 1129.54 66.3376 Q1135.58 66.3376 1138.9 61.8816 Q1142.26 57.4256 1142.26 49.3643 M1149.72 66.9452 Q1149.72 78.5308 1144.57 84.1616 Q1139.43 89.8329 1128.81 89.8329 Q1124.88 89.8329 1121.4 89.2252 Q1117.92 88.6581 1114.63 87.4428 L1114.63 80.1917 Q1117.92 81.9741 1121.12 82.8248 Q1124.32 83.6755 1127.64 83.6755 Q1134.97 83.6755 1138.62 79.8271 Q1142.26 76.0193 1142.26 68.282 L1142.26 64.5957 Q1139.95 68.6061 1136.35 70.5911 Q1132.74 72.576 1127.72 72.576 Q1119.37 72.576 1114.27 66.2161 Q1109.17 59.8562 1109.17 49.3643 Q1109.17 38.832 1114.27 32.472 Q1119.37 26.1121 1127.72 26.1121 Q1132.74 26.1121 1136.35 28.0971 Q1139.95 30.082 1142.26 34.0924 L1142.26 27.2059 L1149.72 27.2059 L1149.72 66.9452 Z" fill="#000000" fill-rule="nonzero" fill-opacity="1" /><path clip-path="url(#clip590)" d="M1161.3 46.5287 L1183.14 46.5287 L1183.14 53.1722 L1161.3 53.1722 L1161.3 46.5287 Z" fill="#000000" fill-rule="nonzero" fill-opacity="1" /><path clip-path="url(#clip590)" d="M1195 9.54393 L1202.46 9.54393 L1202.46 72.576 L1195 72.576 L1195 9.54393 Z" fill="#000000" fill-rule="nonzero" fill-opacity="1" /><path clip-path="url(#clip590)" d="M1218.05 27.2059 L1225.51 27.2059 L1225.51 72.576 L1218.05 72.576 L1218.05 27.2059 M1218.05 9.54393 L1225.51 9.54393 L1225.51 18.9825 L1218.05 18.9825 L1218.05 9.54393 Z" fill="#000000" fill-rule="nonzero" fill-opacity="1" /><path clip-path="url(#clip590)" d="M1240.82 9.54393 L1248.31 9.54393 L1248.31 46.7717 L1270.55 27.2059 L1280.07 27.2059 L1256.01 48.4326 L1281.09 72.576 L1271.36 72.576 L1248.31 50.4176 L1248.31 72.576 L1240.82 72.576 L1240.82 9.54393 Z" fill="#000000" fill-rule="nonzero" fill-opacity="1" /><path clip-path="url(#clip590)" d="M1325 48.0275 L1325 51.6733 L1290.73 51.6733 Q1291.21 59.3701 1295.35 63.421 Q1299.52 67.4314 1306.93 67.4314 Q1311.22 67.4314 1315.24 66.3781 Q1319.29 65.3249 1323.26 63.2184 L1323.26 70.267 Q1319.25 71.9684 1315.03 72.8596 Q1310.82 73.7508 1306.49 73.7508 Q1295.63 73.7508 1289.27 67.4314 Q1282.95 61.1119 1282.95 50.3365 Q1282.95 39.1965 1288.94 32.6746 Q1294.98 26.1121 1305.19 26.1121 Q1314.34 26.1121 1319.65 32.0264 Q1325 37.9003 1325 48.0275 M1317.54 45.84 Q1317.46 39.7232 1314.1 36.0774 Q1310.78 32.4315 1305.27 32.4315 Q1299.03 32.4315 1295.26 35.9558 Q1291.54 39.4801 1290.97 45.8805 L1317.54 45.84 Z" fill="#000000" fill-rule="nonzero" fill-opacity="1" /><path clip-path="url(#clip590)" d="M1337.23 9.54393 L1344.69 9.54393 L1344.69 72.576 L1337.23 72.576 L1337.23 9.54393 Z" fill="#000000" fill-rule="nonzero" fill-opacity="1" /><path clip-path="url(#clip590)" d="M1360.28 27.2059 L1367.73 27.2059 L1367.73 72.576 L1360.28 72.576 L1360.28 27.2059 M1360.28 9.54393 L1367.73 9.54393 L1367.73 18.9825 L1360.28 18.9825 L1360.28 9.54393 Z" fill="#000000" fill-rule="nonzero" fill-opacity="1" /><path clip-path="url(#clip590)" d="M1421.04 45.1919 L1421.04 72.576 L1413.59 72.576 L1413.59 45.4349 Q1413.59 38.994 1411.08 35.7938 Q1408.57 32.5936 1403.54 32.5936 Q1397.51 32.5936 1394.03 36.4419 Q1390.54 40.2903 1390.54 46.9338 L1390.54 72.576 L1383.05 72.576 L1383.05 9.54393 L1390.54 9.54393 L1390.54 34.2544 Q1393.22 30.163 1396.82 28.1376 Q1400.47 26.1121 1405.21 26.1121 Q1413.02 26.1121 1417.03 30.9732 Q1421.04 35.7938 1421.04 45.1919 Z" fill="#000000" fill-rule="nonzero" fill-opacity="1" /><path clip-path="url(#clip590)" d="M1453.49 32.4315 Q1447.5 32.4315 1444.01 37.1306 Q1440.53 41.7891 1440.53 49.9314 Q1440.53 58.0738 1443.97 62.7728 Q1447.46 67.4314 1453.49 67.4314 Q1459.45 67.4314 1462.93 62.7323 Q1466.41 58.0333 1466.41 49.9314 Q1466.41 41.8701 1462.93 37.1711 Q1459.45 32.4315 1453.49 32.4315 M1453.49 26.1121 Q1463.21 26.1121 1468.76 32.4315 Q1474.31 38.7509 1474.31 49.9314 Q1474.31 61.0714 1468.76 67.4314 Q1463.21 73.7508 1453.49 73.7508 Q1443.73 73.7508 1438.18 67.4314 Q1432.67 61.0714 1432.67 49.9314 Q1432.67 38.7509 1438.18 32.4315 Q1443.73 26.1121 1453.49 26.1121 Z" fill="#000000" fill-rule="nonzero" fill-opacity="1" /><path clip-path="url(#clip590)" d="M1504.25 32.4315 Q1498.26 32.4315 1494.77 37.1306 Q1491.29 41.7891 1491.29 49.9314 Q1491.29 58.0738 1494.73 62.7728 Q1498.21 67.4314 1504.25 67.4314 Q1510.21 67.4314 1513.69 62.7323 Q1517.17 58.0333 1517.17 49.9314 Q1517.17 41.8701 1513.69 37.1711 Q1510.21 32.4315 1504.25 32.4315 M1504.25 26.1121 Q1513.97 26.1121 1519.52 32.4315 Q1525.07 38.7509 1525.07 49.9314 Q1525.07 61.0714 1519.52 67.4314 Q1513.97 73.7508 1504.25 73.7508 Q1494.49 73.7508 1488.94 67.4314 Q1483.43 61.0714 1483.43 49.9314 Q1483.43 38.7509 1488.94 32.4315 Q1494.49 26.1121 1504.25 26.1121 Z" fill="#000000" fill-rule="nonzero" fill-opacity="1" /><path clip-path="url(#clip590)" d="M1567.28 34.0924 L1567.28 9.54393 L1574.74 9.54393 L1574.74 72.576 L1567.28 72.576 L1567.28 65.7705 Q1564.93 69.8214 1561.33 71.8063 Q1557.76 73.7508 1552.74 73.7508 Q1544.52 73.7508 1539.33 67.1883 Q1534.19 60.6258 1534.19 49.9314 Q1534.19 39.2371 1539.33 32.6746 Q1544.52 26.1121 1552.74 26.1121 Q1557.76 26.1121 1561.33 28.0971 Q1564.93 30.0415 1567.28 34.0924 M1541.88 49.9314 Q1541.88 58.1548 1545.25 62.8538 Q1548.65 67.5124 1554.56 67.5124 Q1560.48 67.5124 1563.88 62.8538 Q1567.28 58.1548 1567.28 49.9314 Q1567.28 41.7081 1563.88 37.0496 Q1560.48 32.3505 1554.56 32.3505 Q1548.65 32.3505 1545.25 37.0496 Q1541.88 41.7081 1541.88 49.9314 Z" fill="#000000" fill-rule="nonzero" fill-opacity="1" /><polyline clip-path="url(#clip591)" style="stroke:#009af9; stroke-linecap:round; stroke-linejoin:round; stroke-width:4; stroke-opacity:1; fill:none" points="299.008,1374.46 332.804,1185.52 366.599,984.848 400.395,733.488 434.19,621.901 467.985,570.547 501.781,492.399 535.576,466.488 569.372,412.521 603.167,329.968 636.962,338.161 670.758,291.866 704.553,268.227 738.349,252.694 772.144,234.779 805.94,216.091 839.735,200.308 873.53,194.964 907.326,177.221 941.121,171.029 974.917,166.091 1008.71,164.302 1042.51,161.639 1076.3,160.304 1110.1,165.325 1143.89,169.246 1177.69,171.573 1211.48,179.368 1245.28,191.43 1279.08,201.643 1312.87,213.438 1346.67,233.324 1380.46,251.291 1414.26,270.157 1448.05,294.384 1481.85,319.203 1515.64,344.343 1549.44,373.029 1583.23,405.087 1617.03,438.973 1650.83,474.821 1684.62,507.085 1718.42,548.475 1752.21,581.833 1786.01,621.147 1819.8,662.493 1853.6,704.798 1887.39,745.26 1921.19,792.272 1954.98,835.7 1988.78,879.108 2022.57,927.203 2056.37,976.28 2090.17,1011.72 2123.96,1067.48 2157.76,1110.16 2191.55,1162.32 2225.35,1210.75 2259.14,1258.48 2292.94,1306.24 "/>
<polyline clip-path="url(#clip591)" style="stroke:#008000; stroke-linecap:round; stroke-linejoin:round; stroke-width:4; stroke-opacity:1; fill:none" points="299.008,1057.16 332.804,1182.68 366.599,846.068 400.395,730.9 434.19,674.916 467.985,605.066 501.781,512.38 535.576,436.373 569.372,399.142 603.167,371.744 636.962,354.707 670.758,301.14 704.553,271.457 738.349,251.615 772.144,236.959 805.94,218.353 839.735,198.692 873.53,194.338 907.326,178.979 941.121,171.468 974.917,167.698 1008.71,162.042 1042.51,160.039 1076.3,159.909 1110.1,162.596 1143.89,166.017 1177.69,170.161 1211.48,177.119 1245.28,189.54 1279.08,203.842 1312.87,214.397 1346.67,232.12 1380.46,248.905 1414.26,268.136 1448.05,294.083 1481.85,315.573 1515.64,345.714 1549.44,374.973 1583.23,402.648 1617.03,435.845 1650.83,472.912 1684.62,503.693 1718.42,544.393 1752.21,582.037 1786.01,623.725 1819.8,666.177 1853.6,707.387 1887.39,745.018 1921.19,792.919 1954.98,837.701 1988.78,883.603 2022.57,927.498 2056.37,977.636 2090.17,1021.13 2123.96,1071.29 2157.76,1118.16 2191.55,1168.62 2225.35,1215.28 2259.14,1262.49 2292.94,1323.04 "/>
<polyline clip-path="url(#clip591)" style="stroke:#0000ff; stroke-linecap:round; stroke-linejoin:round; stroke-width:4; stroke-opacity:1; fill:none" stroke-dasharray="16, 10" points="1076.3,2698.32 1076.3,-1163.95 "/>
<path clip-path="url(#clip590)" d="M1903.54 321.906 L2282.3 321.906 L2282.3 166.386 L1903.54 166.386  Z" fill="#ffffff" fill-rule="evenodd" fill-opacity="1"/>
<polyline clip-path="url(#clip590)" style="stroke:#000000; stroke-linecap:round; stroke-linejoin:round; stroke-width:4; stroke-opacity:1; fill:none" points="1903.54,321.906 2282.3,321.906 2282.3,166.386 1903.54,166.386 1903.54,321.906 "/>
<polyline clip-path="url(#clip590)" style="stroke:#009af9; stroke-linecap:round; stroke-linejoin:round; stroke-width:4; stroke-opacity:1; fill:none" points="1927.02,218.226 2067.93,218.226 "/>
<path clip-path="url(#clip590)" d="M2096.09 204.789 L2096.09 217.775 L2101.97 217.775 Q2105.23 217.775 2107.01 216.085 Q2108.8 214.395 2108.8 211.27 Q2108.8 208.168 2107.01 206.479 Q2105.23 204.789 2101.97 204.789 L2096.09 204.789 M2091.41 200.946 L2101.97 200.946 Q2107.78 200.946 2110.74 203.585 Q2113.73 206.201 2113.73 211.27 Q2113.73 216.386 2110.74 219.002 Q2107.78 221.617 2101.97 221.617 L2096.09 221.617 L2096.09 235.506 L2091.41 235.506 L2091.41 200.946 Z" fill="#000000" fill-rule="nonzero" fill-opacity="1" /><path clip-path="url(#clip590)" d="M2120 200.946 L2139.86 200.946 L2139.86 204.881 L2124.68 204.881 L2124.68 215.067 L2138.38 215.067 L2138.38 219.002 L2124.68 219.002 L2124.68 235.506 L2120 235.506 L2120 200.946 Z" fill="#000000" fill-rule="nonzero" fill-opacity="1" /><polyline clip-path="url(#clip590)" style="stroke:#008000; stroke-linecap:round; stroke-linejoin:round; stroke-width:4; stroke-opacity:1; fill:none" points="1927.02,270.066 2067.93,270.066 "/>
<path clip-path="url(#clip590)" d="M2107.25 257.393 L2100.9 274.592 L2113.61 274.592 L2107.25 257.393 M2104.61 252.786 L2109.91 252.786 L2123.08 287.346 L2118.22 287.346 L2115.07 278.481 L2099.49 278.481 L2096.34 287.346 L2091.41 287.346 L2104.61 252.786 Z" fill="#000000" fill-rule="nonzero" fill-opacity="1" /><path clip-path="url(#clip590)" d="M2127.59 252.786 L2132.29 252.786 L2132.29 273.782 Q2132.29 279.337 2134.31 281.791 Q2136.32 284.221 2140.83 284.221 Q2145.32 284.221 2147.34 281.791 Q2149.35 279.337 2149.35 273.782 L2149.35 252.786 L2154.05 252.786 L2154.05 274.36 Q2154.05 281.119 2150.7 284.569 Q2147.36 288.018 2140.83 288.018 Q2134.28 288.018 2130.93 284.569 Q2127.59 281.119 2127.59 274.36 L2127.59 252.786 Z" fill="#000000" fill-rule="nonzero" fill-opacity="1" /><path clip-path="url(#clip590)" d="M2161.16 252.786 L2166.18 252.786 L2174.77 265.633 L2183.4 252.786 L2188.43 252.786 L2177.32 269.383 L2189.17 287.346 L2184.14 287.346 L2174.42 272.647 L2164.63 287.346 L2159.58 287.346 L2171.92 268.897 L2161.16 252.786 Z" fill="#000000" fill-rule="nonzero" fill-opacity="1" /><path clip-path="url(#clip590)" d="M2215.05 256.629 L2215.05 269.615 L2220.93 269.615 Q2224.19 269.615 2225.97 267.925 Q2227.76 266.235 2227.76 263.11 Q2227.76 260.008 2225.97 258.319 Q2224.19 256.629 2220.93 256.629 L2215.05 256.629 M2210.37 252.786 L2220.93 252.786 Q2226.74 252.786 2229.7 255.425 Q2232.69 258.041 2232.69 263.11 Q2232.69 268.226 2229.7 270.842 Q2226.74 273.457 2220.93 273.457 L2215.05 273.457 L2215.05 287.346 L2210.37 287.346 L2210.37 252.786 Z" fill="#000000" fill-rule="nonzero" fill-opacity="1" /><path clip-path="url(#clip590)" d="M2238.96 252.786 L2258.82 252.786 L2258.82 256.721 L2243.63 256.721 L2243.63 266.907 L2257.34 266.907 L2257.34 270.842 L2243.63 270.842 L2243.63 287.346 L2238.96 287.346 L2238.96 252.786 Z" fill="#000000" fill-rule="nonzero" fill-opacity="1" /></svg>
