<?xml version="1.0" encoding="utf-8"?>
<svg xmlns="http://www.w3.org/2000/svg" xmlns:xlink="http://www.w3.org/1999/xlink" width="600" height="400" viewBox="0 0 2400 1600">
<defs>
  <clipPath id="clip390">
    <rect x="0" y="0" width="2400" height="1600"/>
  </clipPath>
</defs>
<path clip-path="url(#clip390)" d="M0 1600 L2400 1600 L2400 0 L0 0  Z" fill="#ffffff" fill-rule="evenodd" fill-opacity="1"/>
<defs>
  <clipPath id="clip391">
    <rect x="480" y="0" width="1681" height="1600"/>
  </clipPath>
</defs>
<path clip-path="url(#clip390)" d="M239.19 1410.9 L2352.76 1410.9 L2352.76 123.472 L239.19 123.472  Z" fill="#ffffff" fill-rule="evenodd" fill-opacity="1"/>
<defs>
  <clipPath id="clip392">
    <rect x="239" y="123" width="2115" height="1288"/>
  </clipPath>
</defs>
<polyline clip-path="url(#clip392)" style="stroke:#000000; stroke-linecap:round; stroke-linejoin:round; stroke-width:2; stroke-opacity:0.1; fill:none" points="1096.58,1410.9 1096.58,123.472 "/>
<polyline clip-path="url(#clip392)" style="stroke:#000000; stroke-linecap:round; stroke-linejoin:round; stroke-width:2; stroke-opacity:0.1; fill:none" points="2093.55,1410.9 2093.55,123.472 "/>
<polyline clip-path="url(#clip390)" style="stroke:#000000; stroke-linecap:round; stroke-linejoin:round; stroke-width:4; stroke-opacity:1; fill:none" points="239.19,1410.9 2352.76,1410.9 "/>
<polyline clip-path="url(#clip390)" style="stroke:#000000; stroke-linecap:round; stroke-linejoin:round; stroke-width:4; stroke-opacity:1; fill:none" points="1096.58,1410.9 1096.58,1392 "/>
<polyline clip-path="url(#clip390)" style="stroke:#000000; stroke-linecap:round; stroke-linejoin:round; stroke-width:4; stroke-opacity:1; fill:none" points="2093.55,1410.9 2093.55,1392 "/>
<path clip-path="url(#clip390)" d="M1061.56 1485.02 L1069.2 1485.02 L1069.2 1458.66 L1060.89 1460.32 L1060.89 1456.06 L1069.16 1454.4 L1073.83 1454.4 L1073.83 1485.02 L1081.47 1485.02 L1081.47 1488.96 L1061.56 1488.96 L1061.56 1485.02 Z" fill="#000000" fill-rule="nonzero" fill-opacity="1" /><path clip-path="url(#clip390)" d="M1100.91 1457.48 Q1097.3 1457.48 1095.47 1461.04 Q1093.67 1464.58 1093.67 1471.71 Q1093.67 1478.82 1095.47 1482.38 Q1097.3 1485.92 1100.91 1485.92 Q1104.55 1485.92 1106.35 1482.38 Q1108.18 1478.82 1108.18 1471.71 Q1108.18 1464.58 1106.35 1461.04 Q1104.55 1457.48 1100.91 1457.48 M1100.91 1453.77 Q1106.72 1453.77 1109.78 1458.38 Q1112.86 1462.96 1112.86 1471.71 Q1112.86 1480.44 1109.78 1485.04 Q1106.72 1489.63 1100.91 1489.63 Q1095.1 1489.63 1092.03 1485.04 Q1088.97 1480.44 1088.97 1471.71 Q1088.97 1462.96 1092.03 1458.38 Q1095.1 1453.77 1100.91 1453.77 Z" fill="#000000" fill-rule="nonzero" fill-opacity="1" /><path clip-path="url(#clip390)" d="M1122.56 1435.97 Q1119.63 1435.97 1118.14 1438.86 Q1116.68 1441.74 1116.68 1447.53 Q1116.68 1453.31 1118.14 1456.2 Q1119.63 1459.08 1122.56 1459.08 Q1125.52 1459.08 1126.98 1456.2 Q1128.47 1453.31 1128.47 1447.53 Q1128.47 1441.74 1126.98 1438.86 Q1125.52 1435.97 1122.56 1435.97 M1122.56 1432.96 Q1127.28 1432.96 1129.77 1436.7 Q1132.27 1440.43 1132.27 1447.53 Q1132.27 1454.62 1129.77 1458.37 Q1127.28 1462.09 1122.56 1462.09 Q1117.84 1462.09 1115.34 1458.37 Q1112.86 1454.62 1112.86 1447.53 Q1112.86 1440.43 1115.34 1436.7 Q1117.84 1432.96 1122.56 1432.96 Z" fill="#000000" fill-rule="nonzero" fill-opacity="1" /><path clip-path="url(#clip390)" d="M2059.87 1485.02 L2067.51 1485.02 L2067.51 1458.66 L2059.2 1460.32 L2059.2 1456.06 L2067.47 1454.4 L2072.14 1454.4 L2072.14 1485.02 L2079.78 1485.02 L2079.78 1488.96 L2059.87 1488.96 L2059.87 1485.02 Z" fill="#000000" fill-rule="nonzero" fill-opacity="1" /><path clip-path="url(#clip390)" d="M2099.22 1457.48 Q2095.61 1457.48 2093.78 1461.04 Q2091.98 1464.58 2091.98 1471.71 Q2091.98 1478.82 2093.78 1482.38 Q2095.61 1485.92 2099.22 1485.92 Q2102.86 1485.92 2104.66 1482.38 Q2106.49 1478.82 2106.49 1471.71 Q2106.49 1464.58 2104.66 1461.04 Q2102.86 1457.48 2099.22 1457.48 M2099.22 1453.77 Q2105.03 1453.77 2108.09 1458.38 Q2111.17 1462.96 2111.17 1471.71 Q2111.17 1480.44 2108.09 1485.04 Q2105.03 1489.63 2099.22 1489.63 Q2093.41 1489.63 2090.34 1485.04 Q2087.28 1480.44 2087.28 1471.71 Q2087.28 1462.96 2090.34 1458.38 Q2093.41 1453.77 2099.22 1453.77 Z" fill="#000000" fill-rule="nonzero" fill-opacity="1" /><path clip-path="url(#clip390)" d="M2111.71 1458.35 L2117.92 1458.35 L2117.92 1436.93 L2111.17 1438.28 L2111.17 1434.82 L2117.88 1433.47 L2121.68 1433.47 L2121.68 1458.35 L2127.89 1458.35 L2127.89 1461.55 L2111.71 1461.55 L2111.71 1458.35 Z" fill="#000000" fill-rule="nonzero" fill-opacity="1" /><path clip-path="url(#clip390)" d="M733.834 1531.95 L733.834 1568.9 L741.6 1568.9 Q751.435 1568.9 755.986 1564.45 Q760.569 1559.99 760.569 1550.38 Q760.569 1540.83 755.986 1536.4 Q751.435 1531.95 741.6 1531.95 L733.834 1531.95 M727.404 1526.67 L740.613 1526.67 Q754.427 1526.67 760.888 1532.43 Q767.349 1538.16 767.349 1550.38 Q767.349 1562.66 760.856 1568.42 Q754.363 1574.19 740.613 1574.19 L727.404 1574.19 L727.404 1526.67 Z" fill="#000000" fill-rule="nonzero" fill-opacity="1" /><path clip-path="url(#clip390)" d="M792.175 1577.5 Q789.693 1583.86 787.337 1585.8 Q784.982 1587.74 781.035 1587.74 L776.356 1587.74 L776.356 1582.84 L779.794 1582.84 Q782.213 1582.84 783.55 1581.7 Q784.886 1580.55 786.51 1576.29 L787.56 1573.61 L773.142 1538.54 L779.348 1538.54 L790.488 1566.42 L801.628 1538.54 L807.835 1538.54 L792.175 1577.5 Z" fill="#000000" fill-rule="nonzero" fill-opacity="1" /><path clip-path="url(#clip390)" d="M845.552 1552.67 L845.552 1574.19 L839.695 1574.19 L839.695 1552.86 Q839.695 1547.8 837.722 1545.29 Q835.748 1542.77 831.802 1542.77 Q827.059 1542.77 824.322 1545.79 Q821.585 1548.82 821.585 1554.04 L821.585 1574.19 L815.696 1574.19 L815.696 1538.54 L821.585 1538.54 L821.585 1544.08 Q823.685 1540.86 826.518 1539.27 Q829.383 1537.68 833.107 1537.68 Q839.25 1537.68 842.401 1541.5 Q845.552 1545.29 845.552 1552.67 Z" fill="#000000" fill-rule="nonzero" fill-opacity="1" /><path clip-path="url(#clip390)" d="M873.433 1556.27 Q866.336 1556.27 863.598 1557.89 Q860.861 1559.51 860.861 1563.43 Q860.861 1566.55 862.898 1568.39 Q864.967 1570.21 868.5 1570.21 Q873.37 1570.21 876.298 1566.77 Q879.258 1563.3 879.258 1557.57 L879.258 1556.27 L873.433 1556.27 M885.115 1553.85 L885.115 1574.19 L879.258 1574.19 L879.258 1568.77 Q877.253 1572.02 874.261 1573.58 Q871.269 1575.11 866.94 1575.11 Q861.466 1575.11 858.219 1572.05 Q855.005 1568.97 855.005 1563.81 Q855.005 1557.79 859.015 1554.74 Q863.057 1551.68 871.046 1551.68 L879.258 1551.68 L879.258 1551.11 Q879.258 1547.07 876.584 1544.87 Q873.943 1542.64 869.137 1542.64 Q866.081 1542.64 863.185 1543.38 Q860.288 1544.11 857.615 1545.57 L857.615 1540.16 Q860.829 1538.92 863.853 1538.31 Q866.877 1537.68 869.741 1537.68 Q877.476 1537.68 881.295 1541.69 Q885.115 1545.7 885.115 1553.85 Z" fill="#000000" fill-rule="nonzero" fill-opacity="1" /><path clip-path="url(#clip390)" d="M924.932 1545.38 Q927.128 1541.43 930.184 1539.56 Q933.239 1537.68 937.377 1537.68 Q942.947 1537.68 945.971 1541.59 Q948.994 1545.48 948.994 1552.67 L948.994 1574.19 L943.106 1574.19 L943.106 1552.86 Q943.106 1547.74 941.292 1545.25 Q939.478 1542.77 935.754 1542.77 Q931.202 1542.77 928.56 1545.79 Q925.919 1548.82 925.919 1554.04 L925.919 1574.19 L920.03 1574.19 L920.03 1552.86 Q920.03 1547.7 918.216 1545.25 Q916.402 1542.77 912.614 1542.77 Q908.127 1542.77 905.485 1545.83 Q902.843 1548.85 902.843 1554.04 L902.843 1574.19 L896.955 1574.19 L896.955 1538.54 L902.843 1538.54 L902.843 1544.08 Q904.848 1540.8 907.649 1539.24 Q910.45 1537.68 914.301 1537.68 Q918.184 1537.68 920.89 1539.65 Q923.627 1541.62 924.932 1545.38 Z" fill="#000000" fill-rule="nonzero" fill-opacity="1" /><path clip-path="url(#clip390)" d="M960.675 1538.54 L966.532 1538.54 L966.532 1574.19 L960.675 1574.19 L960.675 1538.54 M960.675 1524.66 L966.532 1524.66 L966.532 1532.08 L960.675 1532.08 L960.675 1524.66 Z" fill="#000000" fill-rule="nonzero" fill-opacity="1" /><path clip-path="url(#clip390)" d="M1004.44 1539.91 L1004.44 1545.38 Q1001.96 1544.01 999.443 1543.34 Q996.96 1542.64 994.414 1542.64 Q988.716 1542.64 985.565 1546.27 Q982.414 1549.87 982.414 1556.39 Q982.414 1562.92 985.565 1566.55 Q988.716 1570.14 994.414 1570.14 Q996.96 1570.14 999.443 1569.47 Q1001.96 1568.77 1004.44 1567.41 L1004.44 1572.82 Q1001.99 1573.96 999.347 1574.54 Q996.737 1575.11 993.777 1575.11 Q985.725 1575.11 980.982 1570.05 Q976.24 1564.99 976.24 1556.39 Q976.24 1547.67 981.014 1542.68 Q985.82 1537.68 994.159 1537.68 Q996.865 1537.68 999.443 1538.25 Q1002.02 1538.79 1004.44 1539.91 Z" fill="#000000" fill-rule="nonzero" fill-opacity="1" /><path clip-path="url(#clip390)" d="M1037.35 1539.59 L1037.35 1545.13 Q1034.87 1543.85 1032.19 1543.22 Q1029.52 1542.58 1026.66 1542.58 Q1022.3 1542.58 1020.1 1543.92 Q1017.93 1545.25 1017.93 1547.93 Q1017.93 1549.96 1019.49 1551.14 Q1021.05 1552.29 1025.76 1553.34 L1027.77 1553.78 Q1034.01 1555.12 1036.62 1557.57 Q1039.26 1559.99 1039.26 1564.35 Q1039.26 1569.32 1035.31 1572.21 Q1031.4 1575.11 1024.52 1575.11 Q1021.66 1575.11 1018.54 1574.54 Q1015.45 1573.99 1012.01 1572.88 L1012.01 1566.83 Q1015.26 1568.52 1018.41 1569.38 Q1021.56 1570.21 1024.65 1570.21 Q1028.79 1570.21 1031.02 1568.81 Q1033.24 1567.37 1033.24 1564.8 Q1033.24 1562.41 1031.62 1561.14 Q1030.03 1559.86 1024.59 1558.68 L1022.55 1558.21 Q1017.11 1557.06 1014.69 1554.71 Q1012.27 1552.32 1012.27 1548.18 Q1012.27 1543.15 1015.83 1540.42 Q1019.4 1537.68 1025.96 1537.68 Q1029.2 1537.68 1032.07 1538.16 Q1034.93 1538.63 1037.35 1539.59 Z" fill="#000000" fill-rule="nonzero" fill-opacity="1" /><path clip-path="url(#clip390)" d="M1098.94 1552.67 L1098.94 1574.19 L1093.08 1574.19 L1093.08 1552.86 Q1093.08 1547.8 1091.11 1545.29 Q1089.14 1542.77 1085.19 1542.77 Q1080.45 1542.77 1077.71 1545.79 Q1074.97 1548.82 1074.97 1554.04 L1074.97 1574.19 L1069.08 1574.19 L1069.08 1538.54 L1074.97 1538.54 L1074.97 1544.08 Q1077.07 1540.86 1079.91 1539.27 Q1082.77 1537.68 1086.49 1537.68 Q1092.64 1537.68 1095.79 1541.5 Q1098.94 1545.29 1098.94 1552.67 Z" fill="#000000" fill-rule="nonzero" fill-opacity="1" /><path clip-path="url(#clip390)" d="M1124.43 1542.64 Q1119.72 1542.64 1116.99 1546.34 Q1114.25 1550 1114.25 1556.39 Q1114.25 1562.79 1116.95 1566.48 Q1119.69 1570.14 1124.43 1570.14 Q1129.11 1570.14 1131.85 1566.45 Q1134.59 1562.76 1134.59 1556.39 Q1134.59 1550.06 1131.85 1546.37 Q1129.11 1542.64 1124.43 1542.64 M1124.43 1537.68 Q1132.07 1537.68 1136.43 1542.64 Q1140.79 1547.61 1140.79 1556.39 Q1140.79 1565.15 1136.43 1570.14 Q1132.07 1575.11 1124.43 1575.11 Q1116.76 1575.11 1112.4 1570.14 Q1108.07 1565.15 1108.07 1556.39 Q1108.07 1547.61 1112.4 1542.64 Q1116.76 1537.68 1124.43 1537.68 Z" fill="#000000" fill-rule="nonzero" fill-opacity="1" /><path clip-path="url(#clip390)" d="M1150.5 1538.54 L1156.36 1538.54 L1156.36 1574.19 L1150.5 1574.19 L1150.5 1538.54 M1150.5 1524.66 L1156.36 1524.66 L1156.36 1532.08 L1150.5 1532.08 L1150.5 1524.66 Z" fill="#000000" fill-rule="nonzero" fill-opacity="1" /><path clip-path="url(#clip390)" d="M1191.34 1539.59 L1191.34 1545.13 Q1188.85 1543.85 1186.18 1543.22 Q1183.51 1542.58 1180.64 1542.58 Q1176.28 1542.58 1174.09 1543.92 Q1171.92 1545.25 1171.92 1547.93 Q1171.92 1549.96 1173.48 1551.14 Q1175.04 1552.29 1179.75 1553.34 L1181.76 1553.78 Q1187.99 1555.12 1190.6 1557.57 Q1193.25 1559.99 1193.25 1564.35 Q1193.25 1569.32 1189.3 1572.21 Q1185.38 1575.11 1178.51 1575.11 Q1175.65 1575.11 1172.53 1574.54 Q1169.44 1573.99 1166 1572.88 L1166 1566.83 Q1169.25 1568.52 1172.4 1569.38 Q1175.55 1570.21 1178.64 1570.21 Q1182.77 1570.21 1185 1568.81 Q1187.23 1567.37 1187.23 1564.8 Q1187.23 1562.41 1185.61 1561.14 Q1184.02 1559.86 1178.57 1558.68 L1176.54 1558.21 Q1171.09 1557.06 1168.67 1554.71 Q1166.26 1552.32 1166.26 1548.18 Q1166.26 1543.15 1169.82 1540.42 Q1173.39 1537.68 1179.94 1537.68 Q1183.19 1537.68 1186.05 1538.16 Q1188.92 1538.63 1191.34 1539.59 Z" fill="#000000" fill-rule="nonzero" fill-opacity="1" /><path clip-path="url(#clip390)" d="M1233.06 1554.9 L1233.06 1557.76 L1206.14 1557.76 Q1206.52 1563.81 1209.77 1566.99 Q1213.04 1570.14 1218.87 1570.14 Q1222.24 1570.14 1225.39 1569.32 Q1228.58 1568.49 1231.7 1566.83 L1231.7 1572.37 Q1228.54 1573.71 1225.23 1574.41 Q1221.92 1575.11 1218.52 1575.11 Q1209.99 1575.11 1204.99 1570.14 Q1200.03 1565.18 1200.03 1556.71 Q1200.03 1547.96 1204.74 1542.83 Q1209.48 1537.68 1217.5 1537.68 Q1224.69 1537.68 1228.86 1542.33 Q1233.06 1546.94 1233.06 1554.9 M1227.21 1553.18 Q1227.14 1548.37 1224.5 1545.51 Q1221.89 1542.64 1217.56 1542.64 Q1212.66 1542.64 1209.7 1545.41 Q1206.77 1548.18 1206.33 1553.21 L1227.21 1553.18 Z" fill="#000000" fill-rule="nonzero" fill-opacity="1" /><path clip-path="url(#clip390)" d="M1286.12 1539.59 L1286.12 1545.13 Q1283.64 1543.85 1280.97 1543.22 Q1278.29 1542.58 1275.43 1542.58 Q1271.07 1542.58 1268.87 1543.92 Q1266.71 1545.25 1266.71 1547.93 Q1266.71 1549.96 1268.27 1551.14 Q1269.83 1552.29 1274.54 1553.34 L1276.54 1553.78 Q1282.78 1555.12 1285.39 1557.57 Q1288.03 1559.99 1288.03 1564.35 Q1288.03 1569.32 1284.09 1572.21 Q1280.17 1575.11 1273.3 1575.11 Q1270.43 1575.11 1267.31 1574.54 Q1264.22 1573.99 1260.79 1572.88 L1260.79 1566.83 Q1264.03 1568.52 1267.18 1569.38 Q1270.34 1570.21 1273.42 1570.21 Q1277.56 1570.21 1279.79 1568.81 Q1282.02 1567.37 1282.02 1564.8 Q1282.02 1562.41 1280.39 1561.14 Q1278.8 1559.86 1273.36 1558.68 L1271.32 1558.21 Q1265.88 1557.06 1263.46 1554.71 Q1261.04 1552.32 1261.04 1548.18 Q1261.04 1543.15 1264.61 1540.42 Q1268.17 1537.68 1274.73 1537.68 Q1277.97 1537.68 1280.84 1538.16 Q1283.7 1538.63 1286.12 1539.59 Z" fill="#000000" fill-rule="nonzero" fill-opacity="1" /><path clip-path="url(#clip390)" d="M1303.15 1528.42 L1303.15 1538.54 L1315.21 1538.54 L1315.21 1543.09 L1303.15 1543.09 L1303.15 1562.44 Q1303.15 1566.8 1304.33 1568.04 Q1305.54 1569.28 1309.2 1569.28 L1315.21 1569.28 L1315.21 1574.19 L1309.2 1574.19 Q1302.42 1574.19 1299.84 1571.67 Q1297.26 1569.12 1297.26 1562.44 L1297.26 1543.09 L1292.97 1543.09 L1292.97 1538.54 L1297.26 1538.54 L1297.26 1528.42 L1303.15 1528.42 Z" fill="#000000" fill-rule="nonzero" fill-opacity="1" /><path clip-path="url(#clip390)" d="M1339.12 1556.27 Q1332.02 1556.27 1329.28 1557.89 Q1326.54 1559.51 1326.54 1563.43 Q1326.54 1566.55 1328.58 1568.39 Q1330.65 1570.21 1334.18 1570.21 Q1339.05 1570.21 1341.98 1566.77 Q1344.94 1563.3 1344.94 1557.57 L1344.94 1556.27 L1339.12 1556.27 M1350.8 1553.85 L1350.8 1574.19 L1344.94 1574.19 L1344.94 1568.77 Q1342.94 1572.02 1339.94 1573.58 Q1336.95 1575.11 1332.62 1575.11 Q1327.15 1575.11 1323.9 1572.05 Q1320.69 1568.97 1320.69 1563.81 Q1320.69 1557.79 1324.7 1554.74 Q1328.74 1551.68 1336.73 1551.68 L1344.94 1551.68 L1344.94 1551.11 Q1344.94 1547.07 1342.27 1544.87 Q1339.63 1542.64 1334.82 1542.64 Q1331.76 1542.64 1328.87 1543.38 Q1325.97 1544.11 1323.3 1545.57 L1323.3 1540.16 Q1326.51 1538.92 1329.54 1538.31 Q1332.56 1537.68 1335.42 1537.68 Q1343.16 1537.68 1346.98 1541.69 Q1350.8 1545.7 1350.8 1553.85 Z" fill="#000000" fill-rule="nonzero" fill-opacity="1" /><path clip-path="url(#clip390)" d="M1392.49 1552.67 L1392.49 1574.19 L1386.64 1574.19 L1386.64 1552.86 Q1386.64 1547.8 1384.66 1545.29 Q1382.69 1542.77 1378.74 1542.77 Q1374 1542.77 1371.26 1545.79 Q1368.53 1548.82 1368.53 1554.04 L1368.53 1574.19 L1362.64 1574.19 L1362.64 1538.54 L1368.53 1538.54 L1368.53 1544.08 Q1370.63 1540.86 1373.46 1539.27 Q1376.32 1537.68 1380.05 1537.68 Q1386.19 1537.68 1389.34 1541.5 Q1392.49 1545.29 1392.49 1552.67 Z" fill="#000000" fill-rule="nonzero" fill-opacity="1" /><path clip-path="url(#clip390)" d="M1427.63 1543.95 L1427.63 1524.66 L1433.49 1524.66 L1433.49 1574.19 L1427.63 1574.19 L1427.63 1568.84 Q1425.79 1572.02 1422.95 1573.58 Q1420.15 1575.11 1416.21 1575.11 Q1409.74 1575.11 1405.67 1569.95 Q1401.63 1564.8 1401.63 1556.39 Q1401.63 1547.99 1405.67 1542.83 Q1409.74 1537.68 1416.21 1537.68 Q1420.15 1537.68 1422.95 1539.24 Q1425.79 1540.77 1427.63 1543.95 M1407.68 1556.39 Q1407.68 1562.85 1410.32 1566.55 Q1412.99 1570.21 1417.64 1570.21 Q1422.28 1570.21 1424.96 1566.55 Q1427.63 1562.85 1427.63 1556.39 Q1427.63 1549.93 1424.96 1546.27 Q1422.28 1542.58 1417.64 1542.58 Q1412.99 1542.58 1410.32 1546.27 Q1407.68 1549.93 1407.68 1556.39 Z" fill="#000000" fill-rule="nonzero" fill-opacity="1" /><path clip-path="url(#clip390)" d="M1461.75 1556.27 Q1454.65 1556.27 1451.92 1557.89 Q1449.18 1559.51 1449.18 1563.43 Q1449.18 1566.55 1451.22 1568.39 Q1453.29 1570.21 1456.82 1570.21 Q1461.69 1570.21 1464.62 1566.77 Q1467.58 1563.3 1467.58 1557.57 L1467.58 1556.27 L1461.75 1556.27 M1473.43 1553.85 L1473.43 1574.19 L1467.58 1574.19 L1467.58 1568.77 Q1465.57 1572.02 1462.58 1573.58 Q1459.59 1575.11 1455.26 1575.11 Q1449.78 1575.11 1446.54 1572.05 Q1443.32 1568.97 1443.32 1563.81 Q1443.32 1557.79 1447.33 1554.74 Q1451.38 1551.68 1459.36 1551.68 L1467.58 1551.68 L1467.58 1551.11 Q1467.58 1547.07 1464.9 1544.87 Q1462.26 1542.64 1457.46 1542.64 Q1454.4 1542.64 1451.5 1543.38 Q1448.61 1544.11 1445.93 1545.57 L1445.93 1540.16 Q1449.15 1538.92 1452.17 1538.31 Q1455.2 1537.68 1458.06 1537.68 Q1465.79 1537.68 1469.61 1541.69 Q1473.43 1545.7 1473.43 1553.85 Z" fill="#000000" fill-rule="nonzero" fill-opacity="1" /><path clip-path="url(#clip390)" d="M1506.15 1544.01 Q1505.17 1543.44 1503.99 1543.18 Q1502.84 1542.9 1501.44 1542.9 Q1496.48 1542.9 1493.8 1546.14 Q1491.16 1549.36 1491.16 1555.41 L1491.16 1574.19 L1485.27 1574.19 L1485.27 1538.54 L1491.16 1538.54 L1491.16 1544.08 Q1493.01 1540.83 1495.97 1539.27 Q1498.93 1537.68 1503.16 1537.68 Q1503.77 1537.68 1504.5 1537.77 Q1505.23 1537.84 1506.12 1538 L1506.15 1544.01 Z" fill="#000000" fill-rule="nonzero" fill-opacity="1" /><path clip-path="url(#clip390)" d="M1534.61 1543.95 L1534.61 1524.66 L1540.46 1524.66 L1540.46 1574.19 L1534.61 1574.19 L1534.61 1568.84 Q1532.76 1572.02 1529.93 1573.58 Q1527.13 1575.11 1523.18 1575.11 Q1516.72 1575.11 1512.65 1569.95 Q1508.6 1564.8 1508.6 1556.39 Q1508.6 1547.99 1512.65 1542.83 Q1516.72 1537.68 1523.18 1537.68 Q1527.13 1537.68 1529.93 1539.24 Q1532.76 1540.77 1534.61 1543.95 M1514.65 1556.39 Q1514.65 1562.85 1517.29 1566.55 Q1519.97 1570.21 1524.61 1570.21 Q1529.26 1570.21 1531.93 1566.55 Q1534.61 1562.85 1534.61 1556.39 Q1534.61 1549.93 1531.93 1546.27 Q1529.26 1542.58 1524.61 1542.58 Q1519.97 1542.58 1517.29 1546.27 Q1514.65 1549.93 1514.65 1556.39 Z" fill="#000000" fill-rule="nonzero" fill-opacity="1" /><path clip-path="url(#clip390)" d="M1596.71 1543.95 L1596.71 1524.66 L1602.56 1524.66 L1602.56 1574.19 L1596.71 1574.19 L1596.71 1568.84 Q1594.86 1572.02 1592.03 1573.58 Q1589.23 1575.11 1585.28 1575.11 Q1578.82 1575.11 1574.74 1569.95 Q1570.7 1564.8 1570.7 1556.39 Q1570.7 1547.99 1574.74 1542.83 Q1578.82 1537.68 1585.28 1537.68 Q1589.23 1537.68 1592.03 1539.24 Q1594.86 1540.77 1596.71 1543.95 M1576.75 1556.39 Q1576.75 1562.85 1579.39 1566.55 Q1582.06 1570.21 1586.71 1570.21 Q1591.36 1570.21 1594.03 1566.55 Q1596.71 1562.85 1596.71 1556.39 Q1596.71 1549.93 1594.03 1546.27 Q1591.36 1542.58 1586.71 1542.58 Q1582.06 1542.58 1579.39 1546.27 Q1576.75 1549.93 1576.75 1556.39 Z" fill="#000000" fill-rule="nonzero" fill-opacity="1" /><path clip-path="url(#clip390)" d="M1645.12 1554.9 L1645.12 1557.76 L1618.19 1557.76 Q1618.57 1563.81 1621.82 1566.99 Q1625.1 1570.14 1630.92 1570.14 Q1634.29 1570.14 1637.45 1569.32 Q1640.63 1568.49 1643.75 1566.83 L1643.75 1572.37 Q1640.6 1573.71 1637.29 1574.41 Q1633.98 1575.11 1630.57 1575.11 Q1622.04 1575.11 1617.04 1570.14 Q1612.08 1565.18 1612.08 1556.71 Q1612.08 1547.96 1616.79 1542.83 Q1621.53 1537.68 1629.55 1537.68 Q1636.75 1537.68 1640.91 1542.33 Q1645.12 1546.94 1645.12 1554.9 M1639.26 1553.18 Q1639.2 1548.37 1636.55 1545.51 Q1633.94 1542.64 1629.62 1542.64 Q1624.71 1542.64 1621.75 1545.41 Q1618.83 1548.18 1618.38 1553.21 L1639.26 1553.18 Z" fill="#000000" fill-rule="nonzero" fill-opacity="1" /><path clip-path="url(#clip390)" d="M1650.53 1538.54 L1656.73 1538.54 L1667.87 1568.46 L1679.01 1538.54 L1685.22 1538.54 L1671.85 1574.19 L1663.9 1574.19 L1650.53 1538.54 Z" fill="#000000" fill-rule="nonzero" fill-opacity="1" /><path clip-path="url(#clip390)" d="M1693.3 1538.54 L1699.16 1538.54 L1699.16 1574.19 L1693.3 1574.19 L1693.3 1538.54 M1693.3 1524.66 L1699.16 1524.66 L1699.16 1532.08 L1693.3 1532.08 L1693.3 1524.66 Z" fill="#000000" fill-rule="nonzero" fill-opacity="1" /><path clip-path="url(#clip390)" d="M1727.62 1556.27 Q1720.52 1556.27 1717.78 1557.89 Q1715.04 1559.51 1715.04 1563.43 Q1715.04 1566.55 1717.08 1568.39 Q1719.15 1570.21 1722.68 1570.21 Q1727.55 1570.21 1730.48 1566.77 Q1733.44 1563.3 1733.44 1557.57 L1733.44 1556.27 L1727.62 1556.27 M1739.3 1553.85 L1739.3 1574.19 L1733.44 1574.19 L1733.44 1568.77 Q1731.44 1572.02 1728.44 1573.58 Q1725.45 1575.11 1721.12 1575.11 Q1715.65 1575.11 1712.4 1572.05 Q1709.19 1568.97 1709.19 1563.81 Q1709.19 1557.79 1713.2 1554.74 Q1717.24 1551.68 1725.23 1551.68 L1733.44 1551.68 L1733.44 1551.11 Q1733.44 1547.07 1730.77 1544.87 Q1728.13 1542.64 1723.32 1542.64 Q1720.26 1542.64 1717.37 1543.38 Q1714.47 1544.11 1711.8 1545.57 L1711.8 1540.16 Q1715.01 1538.92 1718.04 1538.31 Q1721.06 1537.68 1723.92 1537.68 Q1731.66 1537.68 1735.48 1541.69 Q1739.3 1545.7 1739.3 1553.85 Z" fill="#000000" fill-rule="nonzero" fill-opacity="1" /><path clip-path="url(#clip390)" d="M1757.15 1528.42 L1757.15 1538.54 L1769.22 1538.54 L1769.22 1543.09 L1757.15 1543.09 L1757.15 1562.44 Q1757.15 1566.8 1758.33 1568.04 Q1759.54 1569.28 1763.2 1569.28 L1769.22 1569.28 L1769.22 1574.19 L1763.2 1574.19 Q1756.42 1574.19 1753.84 1571.67 Q1751.26 1569.12 1751.26 1562.44 L1751.26 1543.09 L1746.97 1543.09 L1746.97 1538.54 L1751.26 1538.54 L1751.26 1528.42 L1757.15 1528.42 Z" fill="#000000" fill-rule="nonzero" fill-opacity="1" /><path clip-path="url(#clip390)" d="M1776.92 1538.54 L1782.77 1538.54 L1782.77 1574.19 L1776.92 1574.19 L1776.92 1538.54 M1776.92 1524.66 L1782.77 1524.66 L1782.77 1532.08 L1776.92 1532.08 L1776.92 1524.66 Z" fill="#000000" fill-rule="nonzero" fill-opacity="1" /><path clip-path="url(#clip390)" d="M1808.84 1542.64 Q1804.13 1542.64 1801.39 1546.34 Q1798.66 1550 1798.66 1556.39 Q1798.66 1562.79 1801.36 1566.48 Q1804.1 1570.14 1808.84 1570.14 Q1813.52 1570.14 1816.26 1566.45 Q1819 1562.76 1819 1556.39 Q1819 1550.06 1816.26 1546.37 Q1813.52 1542.64 1808.84 1542.64 M1808.84 1537.68 Q1816.48 1537.68 1820.84 1542.64 Q1825.2 1547.61 1825.2 1556.39 Q1825.2 1565.15 1820.84 1570.14 Q1816.48 1575.11 1808.84 1575.11 Q1801.17 1575.11 1796.81 1570.14 Q1792.48 1565.15 1792.48 1556.39 Q1792.48 1547.61 1796.81 1542.64 Q1801.17 1537.68 1808.84 1537.68 Z" fill="#000000" fill-rule="nonzero" fill-opacity="1" /><path clip-path="url(#clip390)" d="M1864.54 1552.67 L1864.54 1574.19 L1858.69 1574.19 L1858.69 1552.86 Q1858.69 1547.8 1856.71 1545.29 Q1854.74 1542.77 1850.79 1542.77 Q1846.05 1542.77 1843.31 1545.79 Q1840.58 1548.82 1840.58 1554.04 L1840.58 1574.19 L1834.69 1574.19 L1834.69 1538.54 L1840.58 1538.54 L1840.58 1544.08 Q1842.68 1540.86 1845.51 1539.27 Q1848.37 1537.68 1852.1 1537.68 Q1858.24 1537.68 1861.39 1541.5 Q1864.54 1545.29 1864.54 1552.67 Z" fill="#000000" fill-rule="nonzero" fill-opacity="1" /><polyline clip-path="url(#clip392)" style="stroke:#000000; stroke-linecap:round; stroke-linejoin:round; stroke-width:2; stroke-opacity:0.1; fill:none" points="239.19,1373.28 2352.76,1373.28 "/>
<polyline clip-path="url(#clip392)" style="stroke:#000000; stroke-linecap:round; stroke-linejoin:round; stroke-width:2; stroke-opacity:0.1; fill:none" points="239.19,1192.25 2352.76,1192.25 "/>
<polyline clip-path="url(#clip392)" style="stroke:#000000; stroke-linecap:round; stroke-linejoin:round; stroke-width:2; stroke-opacity:0.1; fill:none" points="239.19,1011.22 2352.76,1011.22 "/>
<polyline clip-path="url(#clip392)" style="stroke:#000000; stroke-linecap:round; stroke-linejoin:round; stroke-width:2; stroke-opacity:0.1; fill:none" points="239.19,830.185 2352.76,830.185 "/>
<polyline clip-path="url(#clip392)" style="stroke:#000000; stroke-linecap:round; stroke-linejoin:round; stroke-width:2; stroke-opacity:0.1; fill:none" points="239.19,649.154 2352.76,649.154 "/>
<polyline clip-path="url(#clip392)" style="stroke:#000000; stroke-linecap:round; stroke-linejoin:round; stroke-width:2; stroke-opacity:0.1; fill:none" points="239.19,468.123 2352.76,468.123 "/>
<polyline clip-path="url(#clip392)" style="stroke:#000000; stroke-linecap:round; stroke-linejoin:round; stroke-width:2; stroke-opacity:0.1; fill:none" points="239.19,287.092 2352.76,287.092 "/>
<polyline clip-path="url(#clip390)" style="stroke:#000000; stroke-linecap:round; stroke-linejoin:round; stroke-width:4; stroke-opacity:1; fill:none" points="239.19,1410.9 239.19,123.472 "/>
<polyline clip-path="url(#clip390)" style="stroke:#000000; stroke-linecap:round; stroke-linejoin:round; stroke-width:4; stroke-opacity:1; fill:none" points="239.19,1373.28 258.088,1373.28 "/>
<polyline clip-path="url(#clip390)" style="stroke:#000000; stroke-linecap:round; stroke-linejoin:round; stroke-width:4; stroke-opacity:1; fill:none" points="239.19,1192.25 258.088,1192.25 "/>
<polyline clip-path="url(#clip390)" style="stroke:#000000; stroke-linecap:round; stroke-linejoin:round; stroke-width:4; stroke-opacity:1; fill:none" points="239.19,1011.22 258.088,1011.22 "/>
<polyline clip-path="url(#clip390)" style="stroke:#000000; stroke-linecap:round; stroke-linejoin:round; stroke-width:4; stroke-opacity:1; fill:none" points="239.19,830.185 258.088,830.185 "/>
<polyline clip-path="url(#clip390)" style="stroke:#000000; stroke-linecap:round; stroke-linejoin:round; stroke-width:4; stroke-opacity:1; fill:none" points="239.19,649.154 258.088,649.154 "/>
<polyline clip-path="url(#clip390)" style="stroke:#000000; stroke-linecap:round; stroke-linejoin:round; stroke-width:4; stroke-opacity:1; fill:none" points="239.19,468.123 258.088,468.123 "/>
<polyline clip-path="url(#clip390)" style="stroke:#000000; stroke-linecap:round; stroke-linejoin:round; stroke-width:4; stroke-opacity:1; fill:none" points="239.19,287.092 258.088,287.092 "/>
<path clip-path="url(#clip390)" d="M50.9921 1373.73 L80.6679 1373.73 L80.6679 1377.66 L50.9921 1377.66 L50.9921 1373.73 Z" fill="#000000" fill-rule="nonzero" fill-opacity="1" /><path clip-path="url(#clip390)" d="M103.608 1360.07 L91.8021 1378.52 L103.608 1378.52 L103.608 1360.07 M102.381 1356 L108.26 1356 L108.26 1378.52 L113.191 1378.52 L113.191 1382.41 L108.26 1382.41 L108.26 1390.56 L103.608 1390.56 L103.608 1382.41 L88.0058 1382.41 L88.0058 1377.9 L102.381 1356 Z" fill="#000000" fill-rule="nonzero" fill-opacity="1" /><path clip-path="url(#clip390)" d="M120.969 1356 L139.325 1356 L139.325 1359.93 L125.251 1359.93 L125.251 1368.4 Q126.27 1368.06 127.288 1367.9 Q128.307 1367.71 129.325 1367.71 Q135.112 1367.71 138.492 1370.88 Q141.871 1374.05 141.871 1379.47 Q141.871 1385.05 138.399 1388.15 Q134.927 1391.23 128.607 1391.23 Q126.432 1391.23 124.163 1390.86 Q121.918 1390.49 119.51 1389.75 L119.51 1385.05 Q121.594 1386.18 123.816 1386.74 Q126.038 1387.29 128.515 1387.29 Q132.519 1387.29 134.857 1385.19 Q137.195 1383.08 137.195 1379.47 Q137.195 1375.86 134.857 1373.75 Q132.519 1371.65 128.515 1371.65 Q126.64 1371.65 124.765 1372.06 Q122.913 1372.48 120.969 1373.36 L120.969 1356 Z" fill="#000000" fill-rule="nonzero" fill-opacity="1" /><path clip-path="url(#clip390)" d="M161.084 1359.08 Q157.473 1359.08 155.644 1362.64 Q153.839 1366.18 153.839 1373.31 Q153.839 1380.42 155.644 1383.98 Q157.473 1387.52 161.084 1387.52 Q164.718 1387.52 166.524 1383.98 Q168.353 1380.42 168.353 1373.31 Q168.353 1366.18 166.524 1362.64 Q164.718 1359.08 161.084 1359.08 M161.084 1355.37 Q166.894 1355.37 169.95 1359.98 Q173.029 1364.56 173.029 1373.31 Q173.029 1382.04 169.95 1386.65 Q166.894 1391.23 161.084 1391.23 Q155.274 1391.23 152.195 1386.65 Q149.14 1382.04 149.14 1373.31 Q149.14 1364.56 152.195 1359.98 Q155.274 1355.37 161.084 1355.37 Z" fill="#000000" fill-rule="nonzero" fill-opacity="1" /><path clip-path="url(#clip390)" d="M191.246 1359.08 Q187.635 1359.08 185.806 1362.64 Q184.001 1366.18 184.001 1373.31 Q184.001 1380.42 185.806 1383.98 Q187.635 1387.52 191.246 1387.52 Q194.88 1387.52 196.686 1383.98 Q198.514 1380.42 198.514 1373.31 Q198.514 1366.18 196.686 1362.64 Q194.88 1359.08 191.246 1359.08 M191.246 1355.37 Q197.056 1355.37 200.112 1359.98 Q203.19 1364.56 203.19 1373.31 Q203.19 1382.04 200.112 1386.65 Q197.056 1391.23 191.246 1391.23 Q185.436 1391.23 182.357 1386.65 Q179.302 1382.04 179.302 1373.31 Q179.302 1364.56 182.357 1359.98 Q185.436 1355.37 191.246 1355.37 Z" fill="#000000" fill-rule="nonzero" fill-opacity="1" /><path clip-path="url(#clip390)" d="M50.9921 1192.7 L80.6679 1192.7 L80.6679 1196.63 L50.9921 1196.63 L50.9921 1192.7 Z" fill="#000000" fill-rule="nonzero" fill-opacity="1" /><path clip-path="url(#clip390)" d="M103.608 1179.04 L91.8021 1197.49 L103.608 1197.49 L103.608 1179.04 M102.381 1174.97 L108.26 1174.97 L108.26 1197.49 L113.191 1197.49 L113.191 1201.38 L108.26 1201.38 L108.26 1209.53 L103.608 1209.53 L103.608 1201.38 L88.0058 1201.38 L88.0058 1196.86 L102.381 1174.97 Z" fill="#000000" fill-rule="nonzero" fill-opacity="1" /><path clip-path="url(#clip390)" d="M130.922 1178.05 Q127.311 1178.05 125.482 1181.61 Q123.677 1185.15 123.677 1192.28 Q123.677 1199.39 125.482 1202.95 Q127.311 1206.49 130.922 1206.49 Q134.556 1206.49 136.362 1202.95 Q138.191 1199.39 138.191 1192.28 Q138.191 1185.15 136.362 1181.61 Q134.556 1178.05 130.922 1178.05 M130.922 1174.34 Q136.732 1174.34 139.788 1178.95 Q142.867 1183.53 142.867 1192.28 Q142.867 1201.01 139.788 1205.61 Q136.732 1210.2 130.922 1210.2 Q125.112 1210.2 122.033 1205.61 Q118.978 1201.01 118.978 1192.28 Q118.978 1183.53 122.033 1178.95 Q125.112 1174.34 130.922 1174.34 Z" fill="#000000" fill-rule="nonzero" fill-opacity="1" /><path clip-path="url(#clip390)" d="M161.084 1178.05 Q157.473 1178.05 155.644 1181.61 Q153.839 1185.15 153.839 1192.28 Q153.839 1199.39 155.644 1202.95 Q157.473 1206.49 161.084 1206.49 Q164.718 1206.49 166.524 1202.95 Q168.353 1199.39 168.353 1192.28 Q168.353 1185.15 166.524 1181.61 Q164.718 1178.05 161.084 1178.05 M161.084 1174.34 Q166.894 1174.34 169.95 1178.95 Q173.029 1183.53 173.029 1192.28 Q173.029 1201.01 169.95 1205.61 Q166.894 1210.2 161.084 1210.2 Q155.274 1210.2 152.195 1205.61 Q149.14 1201.01 149.14 1192.28 Q149.14 1183.53 152.195 1178.95 Q155.274 1174.34 161.084 1174.34 Z" fill="#000000" fill-rule="nonzero" fill-opacity="1" /><path clip-path="url(#clip390)" d="M191.246 1178.05 Q187.635 1178.05 185.806 1181.61 Q184.001 1185.15 184.001 1192.28 Q184.001 1199.39 185.806 1202.95 Q187.635 1206.49 191.246 1206.49 Q194.88 1206.49 196.686 1202.95 Q198.514 1199.39 198.514 1192.28 Q198.514 1185.15 196.686 1181.61 Q194.88 1178.05 191.246 1178.05 M191.246 1174.34 Q197.056 1174.34 200.112 1178.95 Q203.19 1183.53 203.19 1192.28 Q203.19 1201.01 200.112 1205.61 Q197.056 1210.2 191.246 1210.2 Q185.436 1210.2 182.357 1205.61 Q179.302 1201.01 179.302 1192.28 Q179.302 1183.53 182.357 1178.95 Q185.436 1174.34 191.246 1174.34 Z" fill="#000000" fill-rule="nonzero" fill-opacity="1" /><path clip-path="url(#clip390)" d="M50.9921 1011.67 L80.6679 1011.67 L80.6679 1015.6 L50.9921 1015.6 L50.9921 1011.67 Z" fill="#000000" fill-rule="nonzero" fill-opacity="1" /><path clip-path="url(#clip390)" d="M104.927 1009.86 Q108.283 1010.58 110.158 1012.85 Q112.057 1015.12 112.057 1018.45 Q112.057 1023.57 108.538 1026.37 Q105.02 1029.17 98.5382 1029.17 Q96.3623 1029.17 94.0475 1028.73 Q91.7558 1028.31 89.3021 1027.45 L89.3021 1022.94 Q91.2465 1024.07 93.5613 1024.65 Q95.8761 1025.23 98.3993 1025.23 Q102.797 1025.23 105.089 1023.5 Q107.404 1021.76 107.404 1018.45 Q107.404 1015.39 105.251 1013.68 Q103.121 1011.94 99.3021 1011.94 L95.2743 1011.94 L95.2743 1008.1 L99.4872 1008.1 Q102.936 1008.1 104.765 1006.74 Q106.594 1005.35 106.594 1002.76 Q106.594 1000.09 104.696 998.681 Q102.821 997.246 99.3021 997.246 Q97.3808 997.246 95.1817 997.662 Q92.9826 998.079 90.3438 998.959 L90.3438 994.792 Q93.0058 994.051 95.3206 993.681 Q97.6585 993.311 99.7187 993.311 Q105.043 993.311 108.145 995.741 Q111.246 998.149 111.246 1002.27 Q111.246 1005.14 109.603 1007.13 Q107.959 1009.1 104.927 1009.86 Z" fill="#000000" fill-rule="nonzero" fill-opacity="1" /><path clip-path="url(#clip390)" d="M120.969 993.936 L139.325 993.936 L139.325 997.871 L125.251 997.871 L125.251 1006.34 Q126.27 1006 127.288 1005.83 Q128.307 1005.65 129.325 1005.65 Q135.112 1005.65 138.492 1008.82 Q141.871 1011.99 141.871 1017.41 Q141.871 1022.99 138.399 1026.09 Q134.927 1029.17 128.607 1029.17 Q126.432 1029.17 124.163 1028.8 Q121.918 1028.43 119.51 1027.69 L119.51 1022.99 Q121.594 1024.12 123.816 1024.68 Q126.038 1025.23 128.515 1025.23 Q132.519 1025.23 134.857 1023.13 Q137.195 1021.02 137.195 1017.41 Q137.195 1013.8 134.857 1011.69 Q132.519 1009.58 128.515 1009.58 Q126.64 1009.58 124.765 1010 Q122.913 1010.42 120.969 1011.3 L120.969 993.936 Z" fill="#000000" fill-rule="nonzero" fill-opacity="1" /><path clip-path="url(#clip390)" d="M161.084 997.014 Q157.473 997.014 155.644 1000.58 Q153.839 1004.12 153.839 1011.25 Q153.839 1018.36 155.644 1021.92 Q157.473 1025.46 161.084 1025.46 Q164.718 1025.46 166.524 1021.92 Q168.353 1018.36 168.353 1011.25 Q168.353 1004.12 166.524 1000.58 Q164.718 997.014 161.084 997.014 M161.084 993.311 Q166.894 993.311 169.95 997.917 Q173.029 1002.5 173.029 1011.25 Q173.029 1019.98 169.95 1024.58 Q166.894 1029.17 161.084 1029.17 Q155.274 1029.17 152.195 1024.58 Q149.14 1019.98 149.14 1011.25 Q149.14 1002.5 152.195 997.917 Q155.274 993.311 161.084 993.311 Z" fill="#000000" fill-rule="nonzero" fill-opacity="1" /><path clip-path="url(#clip390)" d="M191.246 997.014 Q187.635 997.014 185.806 1000.58 Q184.001 1004.12 184.001 1011.25 Q184.001 1018.36 185.806 1021.92 Q187.635 1025.46 191.246 1025.46 Q194.88 1025.46 196.686 1021.92 Q198.514 1018.36 198.514 1011.25 Q198.514 1004.12 196.686 1000.58 Q194.88 997.014 191.246 997.014 M191.246 993.311 Q197.056 993.311 200.112 997.917 Q203.19 1002.5 203.19 1011.25 Q203.19 1019.98 200.112 1024.58 Q197.056 1029.17 191.246 1029.17 Q185.436 1029.17 182.357 1024.58 Q179.302 1019.98 179.302 1011.25 Q179.302 1002.5 182.357 997.917 Q185.436 993.311 191.246 993.311 Z" fill="#000000" fill-rule="nonzero" fill-opacity="1" /><path clip-path="url(#clip390)" d="M50.9921 830.636 L80.6679 830.636 L80.6679 834.571 L50.9921 834.571 L50.9921 830.636 Z" fill="#000000" fill-rule="nonzero" fill-opacity="1" /><path clip-path="url(#clip390)" d="M104.927 828.831 Q108.283 829.548 110.158 831.817 Q112.057 834.085 112.057 837.419 Q112.057 842.534 108.538 845.335 Q105.02 848.136 98.5382 848.136 Q96.3623 848.136 94.0475 847.696 Q91.7558 847.28 89.3021 846.423 L89.3021 841.909 Q91.2465 843.044 93.5613 843.622 Q95.8761 844.201 98.3993 844.201 Q102.797 844.201 105.089 842.465 Q107.404 840.729 107.404 837.419 Q107.404 834.363 105.251 832.65 Q103.121 830.914 99.3021 830.914 L95.2743 830.914 L95.2743 827.071 L99.4872 827.071 Q102.936 827.071 104.765 825.706 Q106.594 824.317 106.594 821.724 Q106.594 819.062 104.696 817.65 Q102.821 816.215 99.3021 816.215 Q97.3808 816.215 95.1817 816.632 Q92.9826 817.048 90.3438 817.928 L90.3438 813.761 Q93.0058 813.021 95.3206 812.65 Q97.6585 812.28 99.7187 812.28 Q105.043 812.28 108.145 814.71 Q111.246 817.118 111.246 821.238 Q111.246 824.108 109.603 826.099 Q107.959 828.067 104.927 828.831 Z" fill="#000000" fill-rule="nonzero" fill-opacity="1" /><path clip-path="url(#clip390)" d="M130.922 815.983 Q127.311 815.983 125.482 819.548 Q123.677 823.09 123.677 830.22 Q123.677 837.326 125.482 840.891 Q127.311 844.432 130.922 844.432 Q134.556 844.432 136.362 840.891 Q138.191 837.326 138.191 830.22 Q138.191 823.09 136.362 819.548 Q134.556 815.983 130.922 815.983 M130.922 812.28 Q136.732 812.28 139.788 816.886 Q142.867 821.47 142.867 830.22 Q142.867 838.946 139.788 843.553 Q136.732 848.136 130.922 848.136 Q125.112 848.136 122.033 843.553 Q118.978 838.946 118.978 830.22 Q118.978 821.47 122.033 816.886 Q125.112 812.28 130.922 812.28 Z" fill="#000000" fill-rule="nonzero" fill-opacity="1" /><path clip-path="url(#clip390)" d="M161.084 815.983 Q157.473 815.983 155.644 819.548 Q153.839 823.09 153.839 830.22 Q153.839 837.326 155.644 840.891 Q157.473 844.432 161.084 844.432 Q164.718 844.432 166.524 840.891 Q168.353 837.326 168.353 830.22 Q168.353 823.09 166.524 819.548 Q164.718 815.983 161.084 815.983 M161.084 812.28 Q166.894 812.28 169.95 816.886 Q173.029 821.47 173.029 830.22 Q173.029 838.946 169.95 843.553 Q166.894 848.136 161.084 848.136 Q155.274 848.136 152.195 843.553 Q149.14 838.946 149.14 830.22 Q149.14 821.47 152.195 816.886 Q155.274 812.28 161.084 812.28 Z" fill="#000000" fill-rule="nonzero" fill-opacity="1" /><path clip-path="url(#clip390)" d="M191.246 815.983 Q187.635 815.983 185.806 819.548 Q184.001 823.09 184.001 830.22 Q184.001 837.326 185.806 840.891 Q187.635 844.432 191.246 844.432 Q194.88 844.432 196.686 840.891 Q198.514 837.326 198.514 830.22 Q198.514 823.09 196.686 819.548 Q194.88 815.983 191.246 815.983 M191.246 812.28 Q197.056 812.28 200.112 816.886 Q203.19 821.47 203.19 830.22 Q203.19 838.946 200.112 843.553 Q197.056 848.136 191.246 848.136 Q185.436 848.136 182.357 843.553 Q179.302 838.946 179.302 830.22 Q179.302 821.47 182.357 816.886 Q185.436 812.28 191.246 812.28 Z" fill="#000000" fill-rule="nonzero" fill-opacity="1" /><path clip-path="url(#clip390)" d="M50.9921 649.605 L80.6679 649.605 L80.6679 653.541 L50.9921 653.541 L50.9921 649.605 Z" fill="#000000" fill-rule="nonzero" fill-opacity="1" /><path clip-path="url(#clip390)" d="M94.7882 662.499 L111.108 662.499 L111.108 666.434 L89.1632 666.434 L89.1632 662.499 Q91.8252 659.744 96.4085 655.115 Q101.015 650.462 102.196 649.119 Q104.441 646.596 105.321 644.86 Q106.223 643.101 106.223 641.411 Q106.223 638.656 104.279 636.92 Q102.358 635.184 99.2558 635.184 Q97.0567 635.184 94.603 635.948 Q92.1725 636.712 89.3947 638.263 L89.3947 633.541 Q92.2188 632.406 94.6724 631.828 Q97.1261 631.249 99.1632 631.249 Q104.534 631.249 107.728 633.934 Q110.922 636.619 110.922 641.11 Q110.922 643.24 110.112 645.161 Q109.325 647.059 107.219 649.652 Q106.64 650.323 103.538 653.541 Q100.436 656.735 94.7882 662.499 Z" fill="#000000" fill-rule="nonzero" fill-opacity="1" /><path clip-path="url(#clip390)" d="M120.969 631.874 L139.325 631.874 L139.325 635.809 L125.251 635.809 L125.251 644.281 Q126.27 643.934 127.288 643.772 Q128.307 643.587 129.325 643.587 Q135.112 643.587 138.492 646.758 Q141.871 649.929 141.871 655.346 Q141.871 660.925 138.399 664.027 Q134.927 667.105 128.607 667.105 Q126.432 667.105 124.163 666.735 Q121.918 666.365 119.51 665.624 L119.51 660.925 Q121.594 662.059 123.816 662.615 Q126.038 663.17 128.515 663.17 Q132.519 663.17 134.857 661.064 Q137.195 658.957 137.195 655.346 Q137.195 651.735 134.857 649.628 Q132.519 647.522 128.515 647.522 Q126.64 647.522 124.765 647.939 Q122.913 648.355 120.969 649.235 L120.969 631.874 Z" fill="#000000" fill-rule="nonzero" fill-opacity="1" /><path clip-path="url(#clip390)" d="M161.084 634.953 Q157.473 634.953 155.644 638.517 Q153.839 642.059 153.839 649.189 Q153.839 656.295 155.644 659.86 Q157.473 663.402 161.084 663.402 Q164.718 663.402 166.524 659.86 Q168.353 656.295 168.353 649.189 Q168.353 642.059 166.524 638.517 Q164.718 634.953 161.084 634.953 M161.084 631.249 Q166.894 631.249 169.95 635.855 Q173.029 640.439 173.029 649.189 Q173.029 657.915 169.95 662.522 Q166.894 667.105 161.084 667.105 Q155.274 667.105 152.195 662.522 Q149.14 657.915 149.14 649.189 Q149.14 640.439 152.195 635.855 Q155.274 631.249 161.084 631.249 Z" fill="#000000" fill-rule="nonzero" fill-opacity="1" /><path clip-path="url(#clip390)" d="M191.246 634.953 Q187.635 634.953 185.806 638.517 Q184.001 642.059 184.001 649.189 Q184.001 656.295 185.806 659.86 Q187.635 663.402 191.246 663.402 Q194.88 663.402 196.686 659.86 Q198.514 656.295 198.514 649.189 Q198.514 642.059 196.686 638.517 Q194.88 634.953 191.246 634.953 M191.246 631.249 Q197.056 631.249 200.112 635.855 Q203.19 640.439 203.19 649.189 Q203.19 657.915 200.112 662.522 Q197.056 667.105 191.246 667.105 Q185.436 667.105 182.357 662.522 Q179.302 657.915 179.302 649.189 Q179.302 640.439 182.357 635.855 Q185.436 631.249 191.246 631.249 Z" fill="#000000" fill-rule="nonzero" fill-opacity="1" /><path clip-path="url(#clip390)" d="M50.9921 468.575 L80.6679 468.575 L80.6679 472.51 L50.9921 472.51 L50.9921 468.575 Z" fill="#000000" fill-rule="nonzero" fill-opacity="1" /><path clip-path="url(#clip390)" d="M94.7882 481.468 L111.108 481.468 L111.108 485.403 L89.1632 485.403 L89.1632 481.468 Q91.8252 478.713 96.4085 474.084 Q101.015 469.431 102.196 468.088 Q104.441 465.565 105.321 463.829 Q106.223 462.07 106.223 460.38 Q106.223 457.625 104.279 455.889 Q102.358 454.153 99.2558 454.153 Q97.0567 454.153 94.603 454.917 Q92.1725 455.681 89.3947 457.232 L89.3947 452.51 Q92.2188 451.376 94.6724 450.797 Q97.1261 450.218 99.1632 450.218 Q104.534 450.218 107.728 452.903 Q110.922 455.588 110.922 460.079 Q110.922 462.209 110.112 464.13 Q109.325 466.028 107.219 468.621 Q106.64 469.292 103.538 472.51 Q100.436 475.704 94.7882 481.468 Z" fill="#000000" fill-rule="nonzero" fill-opacity="1" /><path clip-path="url(#clip390)" d="M130.922 453.922 Q127.311 453.922 125.482 457.487 Q123.677 461.028 123.677 468.158 Q123.677 475.264 125.482 478.829 Q127.311 482.371 130.922 482.371 Q134.556 482.371 136.362 478.829 Q138.191 475.264 138.191 468.158 Q138.191 461.028 136.362 457.487 Q134.556 453.922 130.922 453.922 M130.922 450.218 Q136.732 450.218 139.788 454.825 Q142.867 459.408 142.867 468.158 Q142.867 476.885 139.788 481.491 Q136.732 486.074 130.922 486.074 Q125.112 486.074 122.033 481.491 Q118.978 476.885 118.978 468.158 Q118.978 459.408 122.033 454.825 Q125.112 450.218 130.922 450.218 Z" fill="#000000" fill-rule="nonzero" fill-opacity="1" /><path clip-path="url(#clip390)" d="M161.084 453.922 Q157.473 453.922 155.644 457.487 Q153.839 461.028 153.839 468.158 Q153.839 475.264 155.644 478.829 Q157.473 482.371 161.084 482.371 Q164.718 482.371 166.524 478.829 Q168.353 475.264 168.353 468.158 Q168.353 461.028 166.524 457.487 Q164.718 453.922 161.084 453.922 M161.084 450.218 Q166.894 450.218 169.95 454.825 Q173.029 459.408 173.029 468.158 Q173.029 476.885 169.95 481.491 Q166.894 486.074 161.084 486.074 Q155.274 486.074 152.195 481.491 Q149.14 476.885 149.14 468.158 Q149.14 459.408 152.195 454.825 Q155.274 450.218 161.084 450.218 Z" fill="#000000" fill-rule="nonzero" fill-opacity="1" /><path clip-path="url(#clip390)" d="M191.246 453.922 Q187.635 453.922 185.806 457.487 Q184.001 461.028 184.001 468.158 Q184.001 475.264 185.806 478.829 Q187.635 482.371 191.246 482.371 Q194.88 482.371 196.686 478.829 Q198.514 475.264 198.514 468.158 Q198.514 461.028 196.686 457.487 Q194.88 453.922 191.246 453.922 M191.246 450.218 Q197.056 450.218 200.112 454.825 Q203.19 459.408 203.19 468.158 Q203.19 476.885 200.112 481.491 Q197.056 486.074 191.246 486.074 Q185.436 486.074 182.357 481.491 Q179.302 476.885 179.302 468.158 Q179.302 459.408 182.357 454.825 Q185.436 450.218 191.246 450.218 Z" fill="#000000" fill-rule="nonzero" fill-opacity="1" /><path clip-path="url(#clip390)" d="M50.9921 287.544 L80.6679 287.544 L80.6679 291.479 L50.9921 291.479 L50.9921 287.544 Z" fill="#000000" fill-rule="nonzero" fill-opacity="1" /><path clip-path="url(#clip390)" d="M91.5706 300.437 L99.2095 300.437 L99.2095 274.072 L90.8993 275.738 L90.8993 271.479 L99.1632 269.812 L103.839 269.812 L103.839 300.437 L111.478 300.437 L111.478 304.372 L91.5706 304.372 L91.5706 300.437 Z" fill="#000000" fill-rule="nonzero" fill-opacity="1" /><path clip-path="url(#clip390)" d="M120.969 269.812 L139.325 269.812 L139.325 273.747 L125.251 273.747 L125.251 282.22 Q126.27 281.872 127.288 281.71 Q128.307 281.525 129.325 281.525 Q135.112 281.525 138.492 284.696 Q141.871 287.868 141.871 293.284 Q141.871 298.863 138.399 301.965 Q134.927 305.044 128.607 305.044 Q126.432 305.044 124.163 304.673 Q121.918 304.303 119.51 303.562 L119.51 298.863 Q121.594 299.997 123.816 300.553 Q126.038 301.108 128.515 301.108 Q132.519 301.108 134.857 299.002 Q137.195 296.895 137.195 293.284 Q137.195 289.673 134.857 287.567 Q132.519 285.46 128.515 285.46 Q126.64 285.46 124.765 285.877 Q122.913 286.294 120.969 287.173 L120.969 269.812 Z" fill="#000000" fill-rule="nonzero" fill-opacity="1" /><path clip-path="url(#clip390)" d="M161.084 272.891 Q157.473 272.891 155.644 276.456 Q153.839 279.997 153.839 287.127 Q153.839 294.233 155.644 297.798 Q157.473 301.34 161.084 301.34 Q164.718 301.34 166.524 297.798 Q168.353 294.233 168.353 287.127 Q168.353 279.997 166.524 276.456 Q164.718 272.891 161.084 272.891 M161.084 269.187 Q166.894 269.187 169.95 273.794 Q173.029 278.377 173.029 287.127 Q173.029 295.854 169.95 300.46 Q166.894 305.044 161.084 305.044 Q155.274 305.044 152.195 300.46 Q149.14 295.854 149.14 287.127 Q149.14 278.377 152.195 273.794 Q155.274 269.187 161.084 269.187 Z" fill="#000000" fill-rule="nonzero" fill-opacity="1" /><path clip-path="url(#clip390)" d="M191.246 272.891 Q187.635 272.891 185.806 276.456 Q184.001 279.997 184.001 287.127 Q184.001 294.233 185.806 297.798 Q187.635 301.34 191.246 301.34 Q194.88 301.34 196.686 297.798 Q198.514 294.233 198.514 287.127 Q198.514 279.997 196.686 276.456 Q194.88 272.891 191.246 272.891 M191.246 269.187 Q197.056 269.187 200.112 273.794 Q203.19 278.377 203.19 287.127 Q203.19 295.854 200.112 300.46 Q197.056 305.044 191.246 305.044 Q185.436 305.044 182.357 300.46 Q179.302 295.854 179.302 287.127 Q179.302 278.377 182.357 273.794 Q185.436 269.187 191.246 269.187 Z" fill="#000000" fill-rule="nonzero" fill-opacity="1" /><path clip-path="url(#clip390)" d="M1017.21 12.096 L1025.39 12.096 L1025.39 65.6895 L1054.84 65.6895 L1054.84 72.576 L1017.21 72.576 L1017.21 12.096 Z" fill="#000000" fill-rule="nonzero" fill-opacity="1" /><path clip-path="url(#clip390)" d="M1079.23 32.4315 Q1073.23 32.4315 1069.75 37.1306 Q1066.27 41.7891 1066.27 49.9314 Q1066.27 58.0738 1069.71 62.7728 Q1073.19 67.4314 1079.23 67.4314 Q1085.18 67.4314 1088.67 62.7323 Q1092.15 58.0333 1092.15 49.9314 Q1092.15 41.8701 1088.67 37.1711 Q1085.18 32.4315 1079.23 32.4315 M1079.23 26.1121 Q1088.95 26.1121 1094.5 32.4315 Q1100.05 38.7509 1100.05 49.9314 Q1100.05 61.0714 1094.5 67.4314 Q1088.95 73.7508 1079.23 73.7508 Q1069.47 73.7508 1063.92 67.4314 Q1058.41 61.0714 1058.41 49.9314 Q1058.41 38.7509 1063.92 32.4315 Q1069.47 26.1121 1079.23 26.1121 Z" fill="#000000" fill-rule="nonzero" fill-opacity="1" /><path clip-path="url(#clip390)" d="M1142.26 49.3643 Q1142.26 41.2625 1138.9 36.8065 Q1135.58 32.3505 1129.54 32.3505 Q1123.55 32.3505 1120.18 36.8065 Q1116.86 41.2625 1116.86 49.3643 Q1116.86 57.4256 1120.18 61.8816 Q1123.55 66.3376 1129.54 66.3376 Q1135.58 66.3376 1138.9 61.8816 Q1142.26 57.4256 1142.26 49.3643 M1149.72 66.9452 Q1149.72 78.5308 1144.57 84.1616 Q1139.43 89.8329 1128.81 89.8329 Q1124.88 89.8329 1121.4 89.2252 Q1117.92 88.6581 1114.63 87.4428 L1114.63 80.1917 Q1117.92 81.9741 1121.12 82.8248 Q1124.32 83.6755 1127.64 83.6755 Q1134.97 83.6755 1138.62 79.8271 Q1142.26 76.0193 1142.26 68.282 L1142.26 64.5957 Q1139.95 68.6061 1136.35 70.5911 Q1132.74 72.576 1127.72 72.576 Q1119.37 72.576 1114.27 66.2161 Q1109.17 59.8562 1109.17 49.3643 Q1109.17 38.832 1114.27 32.472 Q1119.37 26.1121 1127.72 26.1121 Q1132.74 26.1121 1136.35 28.0971 Q1139.95 30.082 1142.26 34.0924 L1142.26 27.2059 L1149.72 27.2059 L1149.72 66.9452 Z" fill="#000000" fill-rule="nonzero" fill-opacity="1" /><path clip-path="url(#clip390)" d="M1161.3 46.5287 L1183.14 46.5287 L1183.14 53.1722 L1161.3 53.1722 L1161.3 46.5287 Z" fill="#000000" fill-rule="nonzero" fill-opacity="1" /><path clip-path="url(#clip390)" d="M1195 9.54393 L1202.46 9.54393 L1202.46 72.576 L1195 72.576 L1195 9.54393 Z" fill="#000000" fill-rule="nonzero" fill-opacity="1" /><path clip-path="url(#clip390)" d="M1218.05 27.2059 L1225.51 27.2059 L1225.51 72.576 L1218.05 72.576 L1218.05 27.2059 M1218.05 9.54393 L1225.51 9.54393 L1225.51 18.9825 L1218.05 18.9825 L1218.05 9.54393 Z" fill="#000000" fill-rule="nonzero" fill-opacity="1" /><path clip-path="url(#clip390)" d="M1240.82 9.54393 L1248.31 9.54393 L1248.31 46.7717 L1270.55 27.2059 L1280.07 27.2059 L1256.01 48.4326 L1281.09 72.576 L1271.36 72.576 L1248.31 50.4176 L1248.31 72.576 L1240.82 72.576 L1240.82 9.54393 Z" fill="#000000" fill-rule="nonzero" fill-opacity="1" /><path clip-path="url(#clip390)" d="M1325 48.0275 L1325 51.6733 L1290.73 51.6733 Q1291.21 59.3701 1295.35 63.421 Q1299.52 67.4314 1306.93 67.4314 Q1311.22 67.4314 1315.24 66.3781 Q1319.29 65.3249 1323.26 63.2184 L1323.26 70.267 Q1319.25 71.9684 1315.03 72.8596 Q1310.82 73.7508 1306.49 73.7508 Q1295.63 73.7508 1289.27 67.4314 Q1282.95 61.1119 1282.95 50.3365 Q1282.95 39.1965 1288.94 32.6746 Q1294.98 26.1121 1305.19 26.1121 Q1314.34 26.1121 1319.65 32.0264 Q1325 37.9003 1325 48.0275 M1317.54 45.84 Q1317.46 39.7232 1314.1 36.0774 Q1310.78 32.4315 1305.27 32.4315 Q1299.03 32.4315 1295.26 35.9558 Q1291.54 39.4801 1290.97 45.8805 L1317.54 45.84 Z" fill="#000000" fill-rule="nonzero" fill-opacity="1" /><path clip-path="url(#clip390)" d="M1337.23 9.54393 L1344.69 9.54393 L1344.69 72.576 L1337.23 72.576 L1337.23 9.54393 Z" fill="#000000" fill-rule="nonzero" fill-opacity="1" /><path clip-path="url(#clip390)" d="M1360.28 27.2059 L1367.73 27.2059 L1367.73 72.576 L1360.28 72.576 L1360.28 27.2059 M1360.28 9.54393 L1367.73 9.54393 L1367.73 18.9825 L1360.28 18.9825 L1360.28 9.54393 Z" fill="#000000" fill-rule="nonzero" fill-opacity="1" /><path clip-path="url(#clip390)" d="M1421.04 45.1919 L1421.04 72.576 L1413.59 72.576 L1413.59 45.4349 Q1413.59 38.994 1411.08 35.7938 Q1408.57 32.5936 1403.54 32.5936 Q1397.51 32.5936 1394.03 36.4419 Q1390.54 40.2903 1390.54 46.9338 L1390.54 72.576 L1383.05 72.576 L1383.05 9.54393 L1390.54 9.54393 L1390.54 34.2544 Q1393.22 30.163 1396.82 28.1376 Q1400.47 26.1121 1405.21 26.1121 Q1413.02 26.1121 1417.03 30.9732 Q1421.04 35.7938 1421.04 45.1919 Z" fill="#000000" fill-rule="nonzero" fill-opacity="1" /><path clip-path="url(#clip390)" d="M1453.49 32.4315 Q1447.5 32.4315 1444.01 37.1306 Q1440.53 41.7891 1440.53 49.9314 Q1440.53 58.0738 1443.97 62.7728 Q1447.46 67.4314 1453.49 67.4314 Q1459.45 67.4314 1462.93 62.7323 Q1466.41 58.0333 1466.41 49.9314 Q1466.41 41.8701 1462.93 37.1711 Q1459.45 32.4315 1453.49 32.4315 M1453.49 26.1121 Q1463.21 26.1121 1468.76 32.4315 Q1474.31 38.7509 1474.31 49.9314 Q1474.31 61.0714 1468.76 67.4314 Q1463.21 73.7508 1453.49 73.7508 Q1443.73 73.7508 1438.18 67.4314 Q1432.67 61.0714 1432.67 49.9314 Q1432.67 38.7509 1438.18 32.4315 Q1443.73 26.1121 1453.49 26.1121 Z" fill="#000000" fill-rule="nonzero" fill-opacity="1" /><path clip-path="url(#clip390)" d="M1504.25 32.4315 Q1498.26 32.4315 1494.77 37.1306 Q1491.29 41.7891 1491.29 49.9314 Q1491.29 58.0738 1494.73 62.7728 Q1498.21 67.4314 1504.25 67.4314 Q1510.21 67.4314 1513.69 62.7323 Q1517.17 58.0333 1517.17 49.9314 Q1517.17 41.8701 1513.69 37.1711 Q1510.21 32.4315 1504.25 32.4315 M1504.25 26.1121 Q1513.97 26.1121 1519.52 32.4315 Q1525.07 38.7509 1525.07 49.9314 Q1525.07 61.0714 1519.52 67.4314 Q1513.97 73.7508 1504.25 73.7508 Q1494.49 73.7508 1488.94 67.4314 Q1483.43 61.0714 1483.43 49.9314 Q1483.43 38.7509 1488.94 32.4315 Q1494.49 26.1121 1504.25 26.1121 Z" fill="#000000" fill-rule="nonzero" fill-opacity="1" /><path clip-path="url(#clip390)" d="M1567.28 34.0924 L1567.28 9.54393 L1574.74 9.54393 L1574.74 72.576 L1567.28 72.576 L1567.28 65.7705 Q1564.93 69.8214 1561.33 71.8063 Q1557.76 73.7508 1552.74 73.7508 Q1544.52 73.7508 1539.33 67.1883 Q1534.19 60.6258 1534.19 49.9314 Q1534.19 39.2371 1539.33 32.6746 Q1544.52 26.1121 1552.74 26.1121 Q1557.76 26.1121 1561.33 28.0971 Q1564.93 30.0415 1567.28 34.0924 M1541.88 49.9314 Q1541.88 58.1548 1545.25 62.8538 Q1548.65 67.5124 1554.56 67.5124 Q1560.48 67.5124 1563.88 62.8538 Q1567.28 58.1548 1567.28 49.9314 Q1567.28 41.7081 1563.88 37.0496 Q1560.48 32.3505 1554.56 32.3505 Q1548.65 32.3505 1545.25 37.0496 Q1541.88 41.7081 1541.88 49.9314 Z" fill="#000000" fill-rule="nonzero" fill-opacity="1" /><polyline clip-path="url(#clip392)" style="stroke:#009af9; stroke-linecap:round; stroke-linejoin:round; stroke-width:4; stroke-opacity:1; fill:none" points="299.008,1278.4 332.804,1212.29 366.599,1190.45 400.395,1136.03 434.19,1096.21 467.985,1072.98 501.781,1033.73 535.576,1020.33 569.372,1004.23 603.167,977.435 636.962,965.771 670.758,955.74 704.553,947.704 738.349,941.552 772.144,933.797 805.94,928.247 839.735,921.362 873.53,917.965 907.326,914.35 941.121,912.328 974.917,909.909 1008.71,909.474 1042.51,910.053 1076.3,911.395 1110.1,914.099 1143.89,917.197 1177.69,921.582 1211.48,926.473 1245.28,932.45 1279.08,939.703 1312.87,947.468 1346.67,956.376 1380.46,965.86 1414.26,975.589 1448.05,986.99 1481.85,998.632 1515.64,1010.65 1549.44,1023.53 1583.23,1037.69 1617.03,1050.8 1650.83,1065.44 1684.62,1078.85 1718.42,1095.14 1752.21,1108.82 1786.01,1125.31 1819.8,1140.78 1853.6,1156.64 1887.39,1172.19 1921.19,1187.33 1954.98,1203.82 1988.78,1221.57 2022.57,1236.17 2056.37,1254.03 2090.17,1270.42 2123.96,1287.31 2157.76,1306.47 2191.55,1320.85 2225.35,1339.42 2259.14,1352.6 2292.94,1374.46 "/>
<polyline clip-path="url(#clip392)" style="stroke:#0000ff; stroke-linecap:round; stroke-linejoin:round; stroke-width:4; stroke-opacity:1; fill:none" stroke-dasharray="16, 10" points="1008.71,2698.32 1008.71,-1163.95 "/>
<polyline clip-path="url(#clip392)" style="stroke:#ff0000; stroke-linecap:round; stroke-linejoin:round; stroke-width:4; stroke-opacity:1; fill:none" points="299.008,380.787 332.804,361.326 366.599,342.911 400.395,325.533 434.19,309.181 467.985,293.836 501.781,279.477 535.576,266.077 569.372,253.607 603.167,242.036 636.962,231.333 670.758,221.467 704.553,212.408 738.349,204.127 772.144,196.6 805.94,189.805 839.735,183.723 873.53,178.339 907.326,173.644 941.121,169.632 974.917,166.301 1008.71,163.655 1042.51,161.699 1076.3,160.446 1110.1,159.909 1143.89,160.103 1177.69,161.046 1211.48,162.757 1245.28,165.254 1279.08,168.551 1312.87,172.663 1346.67,177.598 1380.46,183.358 1414.26,189.942 1448.05,197.34 1481.85,205.536 1515.64,214.505 1549.44,224.218 1583.23,234.638 1617.03,245.727 1650.83,257.439 1684.62,269.728 1718.42,282.548 1752.21,295.851 1786.01,309.592 1819.8,323.725 1853.6,338.21 1887.39,353.006 1921.19,368.079 1954.98,383.394 1988.78,398.922 2022.57,414.637 2056.37,430.514 2090.17,446.532 2123.96,462.672 2157.76,478.919 2191.55,495.257 2225.35,511.675 2259.14,528.16 2292.94,544.705 "/>
<polyline clip-path="url(#clip392)" style="stroke:#ff0000; stroke-linecap:round; stroke-linejoin:round; stroke-width:4; stroke-opacity:1; fill:none" stroke-dasharray="16, 10" points="1110.1,2698.32 1110.1,-1163.95 "/>
<path clip-path="url(#clip390)" d="M1901.87 321.906 L2282.3 321.906 L2282.3 166.386 L1901.87 166.386  Z" fill="#ffffff" fill-rule="evenodd" fill-opacity="1"/>
<polyline clip-path="url(#clip390)" style="stroke:#000000; stroke-linecap:round; stroke-linejoin:round; stroke-width:4; stroke-opacity:1; fill:none" points="1901.87,321.906 2282.3,321.906 2282.3,166.386 1901.87,166.386 1901.87,321.906 "/>
<polyline clip-path="url(#clip390)" style="stroke:#009af9; stroke-linecap:round; stroke-linejoin:round; stroke-width:4; stroke-opacity:1; fill:none" points="1925.36,218.226 2066.26,218.226 "/>
<path clip-path="url(#clip390)" d="M2094.42 204.789 L2094.42 217.775 L2100.3 217.775 Q2103.57 217.775 2105.35 216.085 Q2107.13 214.395 2107.13 211.27 Q2107.13 208.168 2105.35 206.479 Q2103.57 204.789 2100.3 204.789 L2094.42 204.789 M2089.75 200.946 L2100.3 200.946 Q2106.11 200.946 2109.08 203.585 Q2112.06 206.201 2112.06 211.27 Q2112.06 216.386 2109.08 219.002 Q2106.11 221.617 2100.3 221.617 L2094.42 221.617 L2094.42 235.506 L2089.75 235.506 L2089.75 200.946 Z" fill="#000000" fill-rule="nonzero" fill-opacity="1" /><path clip-path="url(#clip390)" d="M2118.33 200.946 L2138.2 200.946 L2138.2 204.881 L2123.01 204.881 L2123.01 215.067 L2136.71 215.067 L2136.71 219.002 L2123.01 219.002 L2123.01 235.506 L2118.33 235.506 L2118.33 200.946 Z" fill="#000000" fill-rule="nonzero" fill-opacity="1" /><polyline clip-path="url(#clip390)" style="stroke:#ff0000; stroke-linecap:round; stroke-linejoin:round; stroke-width:4; stroke-opacity:1; fill:none" points="1925.36,270.066 2066.26,270.066 "/>
<path clip-path="url(#clip390)" d="M2089.75 252.786 L2094.42 252.786 L2094.42 267.393 L2109.93 252.786 L2115.95 252.786 L2098.8 268.897 L2117.18 287.346 L2111.02 287.346 L2094.42 270.703 L2094.42 287.346 L2089.75 287.346 L2089.75 252.786 Z" fill="#000000" fill-rule="nonzero" fill-opacity="1" /><path clip-path="url(#clip390)" d="M2131.6 274.314 Q2126.44 274.314 2124.45 275.494 Q2122.45 276.675 2122.45 279.522 Q2122.45 281.791 2123.94 283.133 Q2125.44 284.453 2128.01 284.453 Q2131.55 284.453 2133.68 281.953 Q2135.83 279.43 2135.83 275.263 L2135.83 274.314 L2131.6 274.314 M2140.09 272.555 L2140.09 287.346 L2135.83 287.346 L2135.83 283.411 Q2134.38 285.772 2132.2 286.906 Q2130.02 288.018 2126.88 288.018 Q2122.89 288.018 2120.53 285.795 Q2118.2 283.55 2118.2 279.8 Q2118.2 275.425 2121.11 273.203 Q2124.05 270.981 2129.86 270.981 L2135.83 270.981 L2135.83 270.564 Q2135.83 267.624 2133.89 266.027 Q2131.97 264.407 2128.47 264.407 Q2126.25 264.407 2124.14 264.939 Q2122.04 265.471 2120.09 266.536 L2120.09 262.601 Q2122.43 261.698 2124.63 261.258 Q2126.83 260.795 2128.91 260.795 Q2134.54 260.795 2137.32 263.712 Q2140.09 266.629 2140.09 272.555 Z" fill="#000000" fill-rule="nonzero" fill-opacity="1" /><path clip-path="url(#clip390)" d="M2148.87 251.328 L2153.13 251.328 L2153.13 287.346 L2148.87 287.346 L2148.87 251.328 Z" fill="#000000" fill-rule="nonzero" fill-opacity="1" /><path clip-path="url(#clip390)" d="M2182.22 266.397 Q2183.82 263.527 2186.04 262.161 Q2188.26 260.795 2191.27 260.795 Q2195.32 260.795 2197.52 263.643 Q2199.72 266.467 2199.72 271.698 L2199.72 287.346 L2195.44 287.346 L2195.44 271.837 Q2195.44 268.11 2194.12 266.305 Q2192.8 264.499 2190.09 264.499 Q2186.78 264.499 2184.86 266.698 Q2182.94 268.897 2182.94 272.694 L2182.94 287.346 L2178.66 287.346 L2178.66 271.837 Q2178.66 268.087 2177.34 266.305 Q2176.02 264.499 2173.26 264.499 Q2170 264.499 2168.08 266.721 Q2166.16 268.92 2166.16 272.694 L2166.16 287.346 L2161.88 287.346 L2161.88 261.42 L2166.16 261.42 L2166.16 265.448 Q2167.62 263.064 2169.65 261.93 Q2171.69 260.795 2174.49 260.795 Q2177.32 260.795 2179.28 262.231 Q2181.27 263.666 2182.22 266.397 Z" fill="#000000" fill-rule="nonzero" fill-opacity="1" /><path clip-path="url(#clip390)" d="M2220 274.314 Q2214.84 274.314 2212.85 275.494 Q2210.86 276.675 2210.86 279.522 Q2210.86 281.791 2212.34 283.133 Q2213.84 284.453 2216.41 284.453 Q2219.95 284.453 2222.08 281.953 Q2224.24 279.43 2224.24 275.263 L2224.24 274.314 L2220 274.314 M2228.5 272.555 L2228.5 287.346 L2224.24 287.346 L2224.24 283.411 Q2222.78 285.772 2220.6 286.906 Q2218.43 288.018 2215.28 288.018 Q2211.3 288.018 2208.94 285.795 Q2206.6 283.55 2206.6 279.8 Q2206.6 275.425 2209.51 273.203 Q2212.45 270.981 2218.26 270.981 L2224.24 270.981 L2224.24 270.564 Q2224.24 267.624 2222.29 266.027 Q2220.37 264.407 2216.88 264.407 Q2214.65 264.407 2212.55 264.939 Q2210.44 265.471 2208.5 266.536 L2208.5 262.601 Q2210.83 261.698 2213.03 261.258 Q2215.23 260.795 2217.32 260.795 Q2222.94 260.795 2225.72 263.712 Q2228.5 266.629 2228.5 272.555 Z" fill="#000000" fill-rule="nonzero" fill-opacity="1" /><path clip-path="url(#clip390)" d="M2258.82 271.698 L2258.82 287.346 L2254.56 287.346 L2254.56 271.837 Q2254.56 268.157 2253.13 266.328 Q2251.69 264.499 2248.82 264.499 Q2245.37 264.499 2243.38 266.698 Q2241.39 268.897 2241.39 272.694 L2241.39 287.346 L2237.11 287.346 L2237.11 261.42 L2241.39 261.42 L2241.39 265.448 Q2242.92 263.11 2244.98 261.953 Q2247.06 260.795 2249.77 260.795 Q2254.24 260.795 2256.53 263.573 Q2258.82 266.328 2258.82 271.698 Z" fill="#000000" fill-rule="nonzero" fill-opacity="1" /></svg>
