<?xml version="1.0" encoding="utf-8"?>
<svg xmlns="http://www.w3.org/2000/svg" xmlns:xlink="http://www.w3.org/1999/xlink" width="600" height="400" viewBox="0 0 2400 1600">
<defs>
  <clipPath id="clip010">
    <rect x="0" y="0" width="2400" height="1600"/>
  </clipPath>
</defs>
<path clip-path="url(#clip010)" d="M0 1600 L2400 1600 L2400 0 L0 0  Z" fill="#ffffff" fill-rule="evenodd" fill-opacity="1"/>
<defs>
  <clipPath id="clip011">
    <rect x="480" y="0" width="1681" height="1600"/>
  </clipPath>
</defs>
<path clip-path="url(#clip010)" d="M192.941 1486.45 L1152.26 1486.45 L1152.26 47.2441 L192.941 47.2441  Z" fill="#ffffff" fill-rule="evenodd" fill-opacity="1"/>
<defs>
  <clipPath id="clip012">
    <rect x="192" y="47" width="960" height="1440"/>
  </clipPath>
</defs>
<polyline clip-path="url(#clip012)" style="stroke:#000000; stroke-linecap:round; stroke-linejoin:round; stroke-width:2; stroke-opacity:0.1; fill:none" points="208.635,1486.45 208.635,47.2441 "/>
<polyline clip-path="url(#clip012)" style="stroke:#000000; stroke-linecap:round; stroke-linejoin:round; stroke-width:2; stroke-opacity:0.1; fill:none" points="437.753,1486.45 437.753,47.2441 "/>
<polyline clip-path="url(#clip012)" style="stroke:#000000; stroke-linecap:round; stroke-linejoin:round; stroke-width:2; stroke-opacity:0.1; fill:none" points="666.871,1486.45 666.871,47.2441 "/>
<polyline clip-path="url(#clip012)" style="stroke:#000000; stroke-linecap:round; stroke-linejoin:round; stroke-width:2; stroke-opacity:0.1; fill:none" points="895.99,1486.45 895.99,47.2441 "/>
<polyline clip-path="url(#clip012)" style="stroke:#000000; stroke-linecap:round; stroke-linejoin:round; stroke-width:2; stroke-opacity:0.1; fill:none" points="1125.11,1486.45 1125.11,47.2441 "/>
<polyline clip-path="url(#clip012)" style="stroke:#000000; stroke-linecap:round; stroke-linejoin:round; stroke-width:2; stroke-opacity:0.1; fill:none" points="192.941,1159.03 1152.26,1159.03 "/>
<polyline clip-path="url(#clip012)" style="stroke:#000000; stroke-linecap:round; stroke-linejoin:round; stroke-width:2; stroke-opacity:0.1; fill:none" points="192.941,796.927 1152.26,796.927 "/>
<polyline clip-path="url(#clip012)" style="stroke:#000000; stroke-linecap:round; stroke-linejoin:round; stroke-width:2; stroke-opacity:0.1; fill:none" points="192.941,434.825 1152.26,434.825 "/>
<polyline clip-path="url(#clip012)" style="stroke:#000000; stroke-linecap:round; stroke-linejoin:round; stroke-width:2; stroke-opacity:0.1; fill:none" points="192.941,72.7232 1152.26,72.7232 "/>
<polyline clip-path="url(#clip010)" style="stroke:#000000; stroke-linecap:round; stroke-linejoin:round; stroke-width:4; stroke-opacity:1; fill:none" points="192.941,1486.45 1152.26,1486.45 "/>
<polyline clip-path="url(#clip010)" style="stroke:#000000; stroke-linecap:round; stroke-linejoin:round; stroke-width:4; stroke-opacity:1; fill:none" points="208.635,1486.45 208.635,1467.55 "/>
<polyline clip-path="url(#clip010)" style="stroke:#000000; stroke-linecap:round; stroke-linejoin:round; stroke-width:4; stroke-opacity:1; fill:none" points="437.753,1486.45 437.753,1467.55 "/>
<polyline clip-path="url(#clip010)" style="stroke:#000000; stroke-linecap:round; stroke-linejoin:round; stroke-width:4; stroke-opacity:1; fill:none" points="666.871,1486.45 666.871,1467.55 "/>
<polyline clip-path="url(#clip010)" style="stroke:#000000; stroke-linecap:round; stroke-linejoin:round; stroke-width:4; stroke-opacity:1; fill:none" points="895.99,1486.45 895.99,1467.55 "/>
<polyline clip-path="url(#clip010)" style="stroke:#000000; stroke-linecap:round; stroke-linejoin:round; stroke-width:4; stroke-opacity:1; fill:none" points="1125.11,1486.45 1125.11,1467.55 "/>
<path clip-path="url(#clip010)" d="M208.635 1517.37 Q205.024 1517.37 203.195 1520.93 Q201.39 1524.47 201.39 1531.6 Q201.39 1538.71 203.195 1542.27 Q205.024 1545.82 208.635 1545.82 Q212.269 1545.82 214.075 1542.27 Q215.904 1538.71 215.904 1531.6 Q215.904 1524.47 214.075 1520.93 Q212.269 1517.37 208.635 1517.37 M208.635 1513.66 Q214.445 1513.66 217.501 1518.27 Q220.58 1522.85 220.58 1531.6 Q220.58 1540.33 217.501 1544.94 Q214.445 1549.52 208.635 1549.52 Q202.825 1549.52 199.746 1544.94 Q196.691 1540.33 196.691 1531.6 Q196.691 1522.85 199.746 1518.27 Q202.825 1513.66 208.635 1513.66 Z" fill="#000000" fill-rule="nonzero" fill-opacity="1" /><path clip-path="url(#clip010)" d="M416.527 1544.91 L432.846 1544.91 L432.846 1548.85 L410.902 1548.85 L410.902 1544.91 Q413.564 1542.16 418.147 1537.53 Q422.753 1532.88 423.934 1531.53 Q426.179 1529.01 427.059 1527.27 Q427.962 1525.51 427.962 1523.82 Q427.962 1521.07 426.017 1519.33 Q424.096 1517.6 420.994 1517.6 Q418.795 1517.6 416.341 1518.36 Q413.911 1519.13 411.133 1520.68 L411.133 1515.95 Q413.957 1514.82 416.411 1514.24 Q418.865 1513.66 420.902 1513.66 Q426.272 1513.66 429.466 1516.35 Q432.661 1519.03 432.661 1523.52 Q432.661 1525.65 431.851 1527.57 Q431.064 1529.47 428.957 1532.07 Q428.378 1532.74 425.277 1535.95 Q422.175 1539.15 416.527 1544.91 Z" fill="#000000" fill-rule="nonzero" fill-opacity="1" /><path clip-path="url(#clip010)" d="M452.661 1517.37 Q449.05 1517.37 447.221 1520.93 Q445.415 1524.47 445.415 1531.6 Q445.415 1538.71 447.221 1542.27 Q449.05 1545.82 452.661 1545.82 Q456.295 1545.82 458.1 1542.27 Q459.929 1538.71 459.929 1531.6 Q459.929 1524.47 458.1 1520.93 Q456.295 1517.37 452.661 1517.37 M452.661 1513.66 Q458.471 1513.66 461.526 1518.27 Q464.605 1522.85 464.605 1531.6 Q464.605 1540.33 461.526 1544.94 Q458.471 1549.52 452.661 1549.52 Q446.851 1549.52 443.772 1544.94 Q440.716 1540.33 440.716 1531.6 Q440.716 1522.85 443.772 1518.27 Q446.851 1513.66 452.661 1513.66 Z" fill="#000000" fill-rule="nonzero" fill-opacity="1" /><path clip-path="url(#clip010)" d="M655.043 1518.36 L643.237 1536.81 L655.043 1536.81 L655.043 1518.36 M653.816 1514.29 L659.696 1514.29 L659.696 1536.81 L664.626 1536.81 L664.626 1540.7 L659.696 1540.7 L659.696 1548.85 L655.043 1548.85 L655.043 1540.7 L639.441 1540.7 L639.441 1536.19 L653.816 1514.29 Z" fill="#000000" fill-rule="nonzero" fill-opacity="1" /><path clip-path="url(#clip010)" d="M682.358 1517.37 Q678.746 1517.37 676.918 1520.93 Q675.112 1524.47 675.112 1531.6 Q675.112 1538.71 676.918 1542.27 Q678.746 1545.82 682.358 1545.82 Q685.992 1545.82 687.797 1542.27 Q689.626 1538.71 689.626 1531.6 Q689.626 1524.47 687.797 1520.93 Q685.992 1517.37 682.358 1517.37 M682.358 1513.66 Q688.168 1513.66 691.223 1518.27 Q694.302 1522.85 694.302 1531.6 Q694.302 1540.33 691.223 1544.94 Q688.168 1549.52 682.358 1549.52 Q676.547 1549.52 673.469 1544.94 Q670.413 1540.33 670.413 1531.6 Q670.413 1522.85 673.469 1518.27 Q676.547 1513.66 682.358 1513.66 Z" fill="#000000" fill-rule="nonzero" fill-opacity="1" /><path clip-path="url(#clip010)" d="M881.395 1529.7 Q878.247 1529.7 876.395 1531.86 Q874.566 1534.01 874.566 1537.76 Q874.566 1541.49 876.395 1543.66 Q878.247 1545.82 881.395 1545.82 Q884.543 1545.82 886.372 1543.66 Q888.223 1541.49 888.223 1537.76 Q888.223 1534.01 886.372 1531.86 Q884.543 1529.7 881.395 1529.7 M890.677 1515.05 L890.677 1519.31 Q888.918 1518.48 887.112 1518.04 Q885.33 1517.6 883.571 1517.6 Q878.941 1517.6 876.487 1520.72 Q874.057 1523.85 873.71 1530.17 Q875.075 1528.15 877.136 1527.09 Q879.196 1526 881.673 1526 Q886.881 1526 889.89 1529.17 Q892.922 1532.32 892.922 1537.76 Q892.922 1543.08 889.774 1546.3 Q886.626 1549.52 881.395 1549.52 Q875.399 1549.52 872.228 1544.94 Q869.057 1540.33 869.057 1531.6 Q869.057 1523.41 872.946 1518.55 Q876.835 1513.66 883.386 1513.66 Q885.145 1513.66 886.927 1514.01 Q888.733 1514.36 890.677 1515.05 Z" fill="#000000" fill-rule="nonzero" fill-opacity="1" /><path clip-path="url(#clip010)" d="M910.978 1517.37 Q907.367 1517.37 905.538 1520.93 Q903.733 1524.47 903.733 1531.6 Q903.733 1538.71 905.538 1542.27 Q907.367 1545.82 910.978 1545.82 Q914.612 1545.82 916.418 1542.27 Q918.246 1538.71 918.246 1531.6 Q918.246 1524.47 916.418 1520.93 Q914.612 1517.37 910.978 1517.37 M910.978 1513.66 Q916.788 1513.66 919.844 1518.27 Q922.922 1522.85 922.922 1531.6 Q922.922 1540.33 919.844 1544.94 Q916.788 1549.52 910.978 1549.52 Q905.168 1549.52 902.089 1544.94 Q899.034 1540.33 899.034 1531.6 Q899.034 1522.85 902.089 1518.27 Q905.168 1513.66 910.978 1513.66 Z" fill="#000000" fill-rule="nonzero" fill-opacity="1" /><path clip-path="url(#clip010)" d="M1109.98 1532.44 Q1106.65 1532.44 1104.73 1534.22 Q1102.83 1536 1102.83 1539.13 Q1102.83 1542.25 1104.73 1544.03 Q1106.65 1545.82 1109.98 1545.82 Q1113.31 1545.82 1115.24 1544.03 Q1117.16 1542.23 1117.16 1539.13 Q1117.16 1536 1115.24 1534.22 Q1113.34 1532.44 1109.98 1532.44 M1105.3 1530.45 Q1102.3 1529.7 1100.61 1527.64 Q1098.94 1525.58 1098.94 1522.62 Q1098.94 1518.48 1101.88 1516.07 Q1104.84 1513.66 1109.98 1513.66 Q1115.14 1513.66 1118.08 1516.07 Q1121.02 1518.48 1121.02 1522.62 Q1121.02 1525.58 1119.33 1527.64 Q1117.67 1529.7 1114.68 1530.45 Q1118.06 1531.23 1119.93 1533.52 Q1121.83 1535.82 1121.83 1539.13 Q1121.83 1544.15 1118.75 1546.83 Q1115.7 1549.52 1109.98 1549.52 Q1104.26 1549.52 1101.18 1546.83 Q1098.13 1544.15 1098.13 1539.13 Q1098.13 1535.82 1100.03 1533.52 Q1101.92 1531.23 1105.3 1530.45 M1103.59 1523.06 Q1103.59 1525.75 1105.26 1527.25 Q1106.95 1528.76 1109.98 1528.76 Q1112.99 1528.76 1114.68 1527.25 Q1116.39 1525.75 1116.39 1523.06 Q1116.39 1520.38 1114.68 1518.87 Q1112.99 1517.37 1109.98 1517.37 Q1106.95 1517.37 1105.26 1518.87 Q1103.59 1520.38 1103.59 1523.06 Z" fill="#000000" fill-rule="nonzero" fill-opacity="1" /><path clip-path="url(#clip010)" d="M1140.14 1517.37 Q1136.53 1517.37 1134.7 1520.93 Q1132.9 1524.47 1132.9 1531.6 Q1132.9 1538.71 1134.7 1542.27 Q1136.53 1545.82 1140.14 1545.82 Q1143.78 1545.82 1145.58 1542.27 Q1147.41 1538.71 1147.41 1531.6 Q1147.41 1524.47 1145.58 1520.93 Q1143.78 1517.37 1140.14 1517.37 M1140.14 1513.66 Q1145.95 1513.66 1149.01 1518.27 Q1152.09 1522.85 1152.09 1531.6 Q1152.09 1540.33 1149.01 1544.94 Q1145.95 1549.52 1140.14 1549.52 Q1134.33 1549.52 1131.25 1544.94 Q1128.2 1540.33 1128.2 1531.6 Q1128.2 1522.85 1131.25 1518.27 Q1134.33 1513.66 1140.14 1513.66 Z" fill="#000000" fill-rule="nonzero" fill-opacity="1" /><polyline clip-path="url(#clip010)" style="stroke:#000000; stroke-linecap:round; stroke-linejoin:round; stroke-width:4; stroke-opacity:1; fill:none" points="192.941,1486.45 192.941,47.2441 "/>
<polyline clip-path="url(#clip010)" style="stroke:#000000; stroke-linecap:round; stroke-linejoin:round; stroke-width:4; stroke-opacity:1; fill:none" points="192.941,1159.03 211.838,1159.03 "/>
<polyline clip-path="url(#clip010)" style="stroke:#000000; stroke-linecap:round; stroke-linejoin:round; stroke-width:4; stroke-opacity:1; fill:none" points="192.941,796.927 211.838,796.927 "/>
<polyline clip-path="url(#clip010)" style="stroke:#000000; stroke-linecap:round; stroke-linejoin:round; stroke-width:4; stroke-opacity:1; fill:none" points="192.941,434.825 211.838,434.825 "/>
<polyline clip-path="url(#clip010)" style="stroke:#000000; stroke-linecap:round; stroke-linejoin:round; stroke-width:4; stroke-opacity:1; fill:none" points="192.941,72.7232 211.838,72.7232 "/>
<path clip-path="url(#clip010)" d="M50.9921 1159.48 L80.6679 1159.48 L80.6679 1163.42 L50.9921 1163.42 L50.9921 1159.48 Z" fill="#000000" fill-rule="nonzero" fill-opacity="1" /><path clip-path="url(#clip010)" d="M100.76 1144.83 Q97.1493 1144.83 95.3206 1148.39 Q93.515 1151.93 93.515 1159.06 Q93.515 1166.17 95.3206 1169.73 Q97.1493 1173.28 100.76 1173.28 Q104.395 1173.28 106.2 1169.73 Q108.029 1166.17 108.029 1159.06 Q108.029 1151.93 106.2 1148.39 Q104.395 1144.83 100.76 1144.83 M100.76 1141.12 Q106.571 1141.12 109.626 1145.73 Q112.705 1150.31 112.705 1159.06 Q112.705 1167.79 109.626 1172.4 Q106.571 1176.98 100.76 1176.98 Q94.9502 1176.98 91.8715 1172.4 Q88.816 1167.79 88.816 1159.06 Q88.816 1150.31 91.8715 1145.73 Q94.9502 1141.12 100.76 1141.12 Z" fill="#000000" fill-rule="nonzero" fill-opacity="1" /><path clip-path="url(#clip010)" d="M120.922 1170.43 L125.807 1170.43 L125.807 1176.31 L120.922 1176.31 L120.922 1170.43 Z" fill="#000000" fill-rule="nonzero" fill-opacity="1" /><path clip-path="url(#clip010)" d="M136.038 1141.75 L154.394 1141.75 L154.394 1145.68 L140.32 1145.68 L140.32 1154.16 Q141.339 1153.81 142.357 1153.65 Q143.376 1153.46 144.394 1153.46 Q150.181 1153.46 153.561 1156.63 Q156.941 1159.8 156.941 1165.22 Q156.941 1170.8 153.468 1173.9 Q149.996 1176.98 143.677 1176.98 Q141.501 1176.98 139.232 1176.61 Q136.987 1176.24 134.58 1175.5 L134.58 1170.8 Q136.663 1171.93 138.885 1172.49 Q141.107 1173.04 143.584 1173.04 Q147.589 1173.04 149.927 1170.94 Q152.265 1168.83 152.265 1165.22 Q152.265 1161.61 149.927 1159.5 Q147.589 1157.4 143.584 1157.4 Q141.709 1157.4 139.834 1157.81 Q137.982 1158.23 136.038 1159.11 L136.038 1141.75 Z" fill="#000000" fill-rule="nonzero" fill-opacity="1" /><path clip-path="url(#clip010)" d="M99.765 782.726 Q96.1539 782.726 94.3252 786.29 Q92.5197 789.832 92.5197 796.962 Q92.5197 804.068 94.3252 807.633 Q96.1539 811.174 99.765 811.174 Q103.399 811.174 105.205 807.633 Q107.033 804.068 107.033 796.962 Q107.033 789.832 105.205 786.29 Q103.399 782.726 99.765 782.726 M99.765 779.022 Q105.575 779.022 108.631 783.628 Q111.709 788.212 111.709 796.962 Q111.709 805.688 108.631 810.295 Q105.575 814.878 99.765 814.878 Q93.9549 814.878 90.8762 810.295 Q87.8206 805.688 87.8206 796.962 Q87.8206 788.212 90.8762 783.628 Q93.9549 779.022 99.765 779.022 Z" fill="#000000" fill-rule="nonzero" fill-opacity="1" /><path clip-path="url(#clip010)" d="M119.927 808.327 L124.811 808.327 L124.811 814.207 L119.927 814.207 L119.927 808.327 Z" fill="#000000" fill-rule="nonzero" fill-opacity="1" /><path clip-path="url(#clip010)" d="M144.996 782.726 Q141.385 782.726 139.556 786.29 Q137.751 789.832 137.751 796.962 Q137.751 804.068 139.556 807.633 Q141.385 811.174 144.996 811.174 Q148.63 811.174 150.436 807.633 Q152.265 804.068 152.265 796.962 Q152.265 789.832 150.436 786.29 Q148.63 782.726 144.996 782.726 M144.996 779.022 Q150.806 779.022 153.862 783.628 Q156.941 788.212 156.941 796.962 Q156.941 805.688 153.862 810.295 Q150.806 814.878 144.996 814.878 Q139.186 814.878 136.107 810.295 Q133.052 805.688 133.052 796.962 Q133.052 788.212 136.107 783.628 Q139.186 779.022 144.996 779.022 Z" fill="#000000" fill-rule="nonzero" fill-opacity="1" /><path clip-path="url(#clip010)" d="M100.76 420.624 Q97.1493 420.624 95.3206 424.189 Q93.515 427.73 93.515 434.86 Q93.515 441.966 95.3206 445.531 Q97.1493 449.073 100.76 449.073 Q104.395 449.073 106.2 445.531 Q108.029 441.966 108.029 434.86 Q108.029 427.73 106.2 424.189 Q104.395 420.624 100.76 420.624 M100.76 416.92 Q106.571 416.92 109.626 421.526 Q112.705 426.11 112.705 434.86 Q112.705 443.587 109.626 448.193 Q106.571 452.776 100.76 452.776 Q94.9502 452.776 91.8715 448.193 Q88.816 443.587 88.816 434.86 Q88.816 426.11 91.8715 421.526 Q94.9502 416.92 100.76 416.92 Z" fill="#000000" fill-rule="nonzero" fill-opacity="1" /><path clip-path="url(#clip010)" d="M120.922 446.225 L125.807 446.225 L125.807 452.105 L120.922 452.105 L120.922 446.225 Z" fill="#000000" fill-rule="nonzero" fill-opacity="1" /><path clip-path="url(#clip010)" d="M136.038 417.545 L154.394 417.545 L154.394 421.48 L140.32 421.48 L140.32 429.952 Q141.339 429.605 142.357 429.443 Q143.376 429.258 144.394 429.258 Q150.181 429.258 153.561 432.429 Q156.941 435.6 156.941 441.017 Q156.941 446.596 153.468 449.698 Q149.996 452.776 143.677 452.776 Q141.501 452.776 139.232 452.406 Q136.987 452.036 134.58 451.295 L134.58 446.596 Q136.663 447.73 138.885 448.286 Q141.107 448.841 143.584 448.841 Q147.589 448.841 149.927 446.735 Q152.265 444.628 152.265 441.017 Q152.265 437.406 149.927 435.3 Q147.589 433.193 143.584 433.193 Q141.709 433.193 139.834 433.61 Q137.982 434.026 136.038 434.906 L136.038 417.545 Z" fill="#000000" fill-rule="nonzero" fill-opacity="1" /><path clip-path="url(#clip010)" d="M90.5752 86.068 L98.2141 86.068 L98.2141 59.7024 L89.904 61.3691 L89.904 57.1098 L98.1678 55.4432 L102.844 55.4432 L102.844 86.068 L110.483 86.068 L110.483 90.0032 L90.5752 90.0032 L90.5752 86.068 Z" fill="#000000" fill-rule="nonzero" fill-opacity="1" /><path clip-path="url(#clip010)" d="M119.927 84.1236 L124.811 84.1236 L124.811 90.0032 L119.927 90.0032 L119.927 84.1236 Z" fill="#000000" fill-rule="nonzero" fill-opacity="1" /><path clip-path="url(#clip010)" d="M144.996 58.5219 Q141.385 58.5219 139.556 62.0867 Q137.751 65.6283 137.751 72.7579 Q137.751 79.8643 139.556 83.4291 Q141.385 86.9708 144.996 86.9708 Q148.63 86.9708 150.436 83.4291 Q152.265 79.8643 152.265 72.7579 Q152.265 65.6283 150.436 62.0867 Q148.63 58.5219 144.996 58.5219 M144.996 54.8182 Q150.806 54.8182 153.862 59.4246 Q156.941 64.0079 156.941 72.7579 Q156.941 81.4847 153.862 86.0912 Q150.806 90.6745 144.996 90.6745 Q139.186 90.6745 136.107 86.0912 Q133.052 81.4847 133.052 72.7579 Q133.052 64.0079 136.107 59.4246 Q139.186 54.8182 144.996 54.8182 Z" fill="#000000" fill-rule="nonzero" fill-opacity="1" /><polyline clip-path="url(#clip012)" style="stroke:#009af9; stroke-linecap:round; stroke-linejoin:round; stroke-width:4; stroke-opacity:1; fill:none" points="220.091,976.358 231.547,950.341 243.003,818.334 254.459,766.047 265.915,824.804 277.371,914.479 288.827,1111.62 300.282,1074.28 311.738,1031.91 323.194,1154.47 334.65,1147.96 346.106,1153.66 357.562,1110.9 369.018,1152.52 380.474,1205.91 391.93,1117.97 403.386,1169.64 414.842,1248.63 426.297,1204.88 437.753,1207.65 449.209,1139.38 460.665,1096.69 472.121,1154.66 483.577,1098.94 495.033,1044.49 506.489,883.766 517.945,626.843 529.401,611.949 540.857,585.203 552.312,524.034 563.768,494.294 575.224,465.56 586.68,490.653 598.136,559.451 609.592,557.501 621.048,479.197 632.504,511.288 643.96,510.605 655.416,390.365 666.871,353.696 678.327,196.062 689.783,141.837 701.239,91.9492 712.695,220.889 724.151,217.488 735.607,154.979 747.063,222.832 758.519,260.334 769.975,264.881 781.431,171.298 792.886,286.814 804.342,410.007 815.798,379.7 827.254,638.818 838.71,670.814 850.166,668.25 861.622,705.622 873.078,808.295 884.534,929.132 895.99,901.783 907.446,939.223 918.901,862.425 930.357,812.919 941.813,890.881 953.269,867.986 964.725,914.017 976.181,881.539 987.637,995.626 999.093,945.26 1010.55,980.336 1022,1036.74 1033.46,1085.75 1044.92,1149.05 1056.37,1182.76 1067.83,1214.17 1079.28,1234.92 1090.74,1270.86 1102.2,1357.13 1113.65,1405.38 1125.11,1406.17 "/>
<polyline clip-path="url(#clip012)" style="stroke:#e26f46; stroke-linecap:round; stroke-linejoin:round; stroke-width:4; stroke-opacity:1; fill:none" points="220.091,1026.64 231.547,988.144 243.003,856.137 254.459,797.3 265.915,851.245 277.371,930.197 288.827,1128.85 300.282,1093.15 311.738,1051.02 323.194,1181.36 334.65,1160.36 346.106,1165 357.562,1120.19 369.018,1170.74 380.474,1228.16 391.93,1141.83 403.386,1195.32 414.842,1275.73 426.297,1221.98 437.753,1232.28 449.209,1163.61 460.665,1128.45 472.121,1188.21 483.577,1132.01 495.033,1067.9 506.489,905.664 517.945,665.317 529.401,665.04 540.857,627.203 552.312,567.437 563.768,538.672 575.224,508.257 586.68,536.027 598.136,593.46 609.592,585.456 621.048,497.358 632.504,519.101 643.96,514.722 655.416,400.069 666.871,358.153 678.327,192.514 689.783,132.102 701.239,87.9763 712.695,214.371 724.151,212.353 735.607,148.843 747.063,223.881 758.519,262.306 769.975,269.975 781.431,183.034 792.886,309.164 804.342,432.294 815.798,398.691 827.254,659.272 838.71,691.799 850.166,697.227 861.622,722.582 873.078,832.294 884.534,955.527 895.99,936.103 907.446,981.169 918.901,898.44 930.357,854.358 941.813,918.858 953.269,903.959 964.725,953.612 976.181,916.634 987.637,1020.38 999.093,976.741 1010.55,1006.58 1022,1061.68 1033.46,1118.41 1044.92,1174.02 1056.37,1212.94 1067.83,1232.65 1079.28,1256.74 1090.74,1294.97 1102.2,1383.96 1113.65,1439.24 1125.11,1445.72 "/>
<polyline clip-path="url(#clip012)" style="stroke:#3da44d; stroke-linecap:round; stroke-linejoin:round; stroke-width:4; stroke-opacity:1; fill:none" points="220.091,484.224 231.547,677.035 243.003,665.124 254.459,589.681 265.915,691.69 277.371,781.083 288.827,1045.06 300.282,1067.13 311.738,1109.71 323.194,1192.11 334.65,1178.33 346.106,1223.45 357.562,1300.68 369.018,1282.04 380.474,1245.84 391.93,1145.39 403.386,1144.79 414.842,1217.07 426.297,1072.39 437.753,1097.72 449.209,1050.07 460.665,1098.34 472.121,1262.18 483.577,1361.04 495.033,1304.94 506.489,1249.22 517.945,957.184 529.401,936.869 540.857,825.953 552.312,961.12 563.768,853.033 575.224,708.372 586.68,758.346 598.136,872.703 609.592,805.211 621.048,699.656 632.504,686.44 643.96,690.538 655.416,591.176 666.871,577.133 678.327,459.052 689.783,516.406 701.239,417.194 712.695,635.646 724.151,669.606 735.607,731.694 747.063,806.857 758.519,783.062 769.975,732.84 781.431,539.574 792.886,594.116 804.342,532.063 815.798,511.49 827.254,561.788 838.71,646.571 850.166,575.036 861.622,508.961 873.078,681.475 884.534,766.047 895.99,690.991 907.446,739.1 918.901,732.622 930.357,746.847 941.813,842.247 953.269,884.878 964.725,951.977 976.181,844.809 987.637,909.514 999.093,796.047 1010.55,824.157 1022,944.471 1033.46,1042.41 1044.92,1160.72 1056.37,1135.83 1067.83,1066.88 1079.28,1067.32 1090.74,1187.36 1102.2,1368.33 1113.65,1437.23 1125.11,1380.71 "/>
<path clip-path="url(#clip010)" d="M662.684 302.578 L1120.28 302.578 L1120.28 95.2176 L662.684 95.2176  Z" fill="#ffffff" fill-rule="evenodd" fill-opacity="1"/>
<polyline clip-path="url(#clip010)" style="stroke:#000000; stroke-linecap:round; stroke-linejoin:round; stroke-width:4; stroke-opacity:1; fill:none" points="662.684,302.578 1120.28,302.578 1120.28,95.2176 662.684,95.2176 662.684,302.578 "/>
<polyline clip-path="url(#clip010)" style="stroke:#009af9; stroke-linecap:round; stroke-linejoin:round; stroke-width:4; stroke-opacity:1; fill:none" points="673.344,147.058 737.298,147.058 "/>
<path clip-path="url(#clip010)" d="M747.957 129.778 L752.633 129.778 L752.633 144.384 L768.142 129.778 L774.161 129.778 L757.008 145.889 L775.388 164.338 L769.23 164.338 L752.633 147.694 L752.633 164.338 L747.957 164.338 L747.957 129.778 Z" fill="#000000" fill-rule="nonzero" fill-opacity="1" /><path clip-path="url(#clip010)" d="M789.809 151.305 Q784.647 151.305 782.656 152.486 Q780.665 153.666 780.665 156.514 Q780.665 158.782 782.147 160.125 Q783.651 161.444 786.221 161.444 Q789.762 161.444 791.892 158.944 Q794.045 156.421 794.045 152.254 L794.045 151.305 L789.809 151.305 M798.304 149.546 L798.304 164.338 L794.045 164.338 L794.045 160.402 Q792.587 162.763 790.411 163.898 Q788.235 165.009 785.087 165.009 Q781.105 165.009 778.744 162.787 Q776.406 160.541 776.406 156.791 Q776.406 152.416 779.323 150.194 Q782.263 147.972 788.073 147.972 L794.045 147.972 L794.045 147.555 Q794.045 144.615 792.1 143.018 Q790.179 141.398 786.684 141.398 Q784.462 141.398 782.355 141.93 Q780.249 142.463 778.304 143.527 L778.304 139.592 Q780.642 138.69 782.841 138.25 Q785.04 137.787 787.124 137.787 Q792.749 137.787 795.526 140.703 Q798.304 143.62 798.304 149.546 Z" fill="#000000" fill-rule="nonzero" fill-opacity="1" /><path clip-path="url(#clip010)" d="M807.077 128.319 L811.336 128.319 L811.336 164.338 L807.077 164.338 L807.077 128.319 Z" fill="#000000" fill-rule="nonzero" fill-opacity="1" /><path clip-path="url(#clip010)" d="M840.434 143.389 Q842.031 140.518 844.253 139.153 Q846.475 137.787 849.484 137.787 Q853.535 137.787 855.734 140.634 Q857.933 143.458 857.933 148.689 L857.933 164.338 L853.651 164.338 L853.651 148.828 Q853.651 145.102 852.332 143.296 Q851.012 141.49 848.304 141.49 Q844.994 141.49 843.072 143.69 Q841.151 145.889 841.151 149.685 L841.151 164.338 L836.869 164.338 L836.869 148.828 Q836.869 145.078 835.549 143.296 Q834.23 141.49 831.475 141.49 Q828.211 141.49 826.29 143.713 Q824.369 145.912 824.369 149.685 L824.369 164.338 L820.086 164.338 L820.086 138.412 L824.369 138.412 L824.369 142.44 Q825.827 140.055 827.864 138.921 Q829.901 137.787 832.702 137.787 Q835.526 137.787 837.494 139.222 Q839.484 140.657 840.434 143.389 Z" fill="#000000" fill-rule="nonzero" fill-opacity="1" /><path clip-path="url(#clip010)" d="M878.211 151.305 Q873.049 151.305 871.058 152.486 Q869.068 153.666 869.068 156.514 Q869.068 158.782 870.549 160.125 Q872.054 161.444 874.623 161.444 Q878.165 161.444 880.294 158.944 Q882.447 156.421 882.447 152.254 L882.447 151.305 L878.211 151.305 M886.706 149.546 L886.706 164.338 L882.447 164.338 L882.447 160.402 Q880.989 162.763 878.813 163.898 Q876.637 165.009 873.489 165.009 Q869.507 165.009 867.146 162.787 Q864.808 160.541 864.808 156.791 Q864.808 152.416 867.725 150.194 Q870.665 147.972 876.475 147.972 L882.447 147.972 L882.447 147.555 Q882.447 144.615 880.503 143.018 Q878.581 141.398 875.086 141.398 Q872.864 141.398 870.757 141.93 Q868.651 142.463 866.707 143.527 L866.707 139.592 Q869.044 138.69 871.244 138.25 Q873.443 137.787 875.526 137.787 Q881.151 137.787 883.929 140.703 Q886.706 143.62 886.706 149.546 Z" fill="#000000" fill-rule="nonzero" fill-opacity="1" /><path clip-path="url(#clip010)" d="M917.03 148.689 L917.03 164.338 L912.771 164.338 L912.771 148.828 Q912.771 145.148 911.336 143.319 Q909.901 141.49 907.03 141.49 Q903.581 141.49 901.591 143.69 Q899.6 145.889 899.6 149.685 L899.6 164.338 L895.317 164.338 L895.317 138.412 L899.6 138.412 L899.6 142.44 Q901.128 140.102 903.188 138.944 Q905.271 137.787 907.979 137.787 Q912.447 137.787 914.739 140.565 Q917.03 143.319 917.03 148.689 Z" fill="#000000" fill-rule="nonzero" fill-opacity="1" /><path clip-path="url(#clip010)" d="M957.123 139.176 L957.123 143.203 Q955.317 142.277 953.373 141.815 Q951.428 141.352 949.345 141.352 Q946.174 141.352 944.576 142.324 Q943.002 143.296 943.002 145.24 Q943.002 146.722 944.137 147.578 Q945.271 148.412 948.697 149.176 L950.155 149.5 Q954.692 150.472 956.59 152.254 Q958.512 154.014 958.512 157.185 Q958.512 160.796 955.641 162.902 Q952.794 165.009 947.794 165.009 Q945.711 165.009 943.442 164.592 Q941.197 164.199 938.697 163.388 L938.697 158.99 Q941.058 160.217 943.35 160.842 Q945.641 161.444 947.887 161.444 Q950.896 161.444 952.516 160.426 Q954.137 159.384 954.137 157.509 Q954.137 155.773 952.956 154.847 Q951.799 153.921 947.84 153.064 L946.359 152.717 Q942.401 151.884 940.641 150.171 Q938.882 148.435 938.882 145.426 Q938.882 141.768 941.475 139.778 Q944.067 137.787 948.836 137.787 Q951.197 137.787 953.28 138.134 Q955.363 138.481 957.123 139.176 Z" fill="#000000" fill-rule="nonzero" fill-opacity="1" /><path clip-path="url(#clip010)" d="M985.479 143.389 Q987.076 140.518 989.298 139.153 Q991.521 137.787 994.53 137.787 Q998.581 137.787 1000.78 140.634 Q1002.98 143.458 1002.98 148.689 L1002.98 164.338 L998.697 164.338 L998.697 148.828 Q998.697 145.102 997.377 143.296 Q996.058 141.49 993.349 141.49 Q990.039 141.49 988.118 143.69 Q986.197 145.889 986.197 149.685 L986.197 164.338 L981.914 164.338 L981.914 148.828 Q981.914 145.078 980.595 143.296 Q979.275 141.49 976.521 141.49 Q973.257 141.49 971.336 143.713 Q969.414 145.912 969.414 149.685 L969.414 164.338 L965.132 164.338 L965.132 138.412 L969.414 138.412 L969.414 142.44 Q970.873 140.055 972.91 138.921 Q974.947 137.787 977.748 137.787 Q980.572 137.787 982.539 139.222 Q984.53 140.657 985.479 143.389 Z" fill="#000000" fill-rule="nonzero" fill-opacity="1" /><path clip-path="url(#clip010)" d="M1021.52 141.398 Q1018.09 141.398 1016.1 144.083 Q1014.11 146.745 1014.11 151.398 Q1014.11 156.051 1016.08 158.736 Q1018.07 161.398 1021.52 161.398 Q1024.92 161.398 1026.91 158.713 Q1028.9 156.027 1028.9 151.398 Q1028.9 146.791 1026.91 144.106 Q1024.92 141.398 1021.52 141.398 M1021.52 137.787 Q1027.08 137.787 1030.25 141.398 Q1033.42 145.009 1033.42 151.398 Q1033.42 157.764 1030.25 161.398 Q1027.08 165.009 1021.52 165.009 Q1015.94 165.009 1012.77 161.398 Q1009.62 157.764 1009.62 151.398 Q1009.62 145.009 1012.77 141.398 Q1015.94 137.787 1021.52 137.787 Z" fill="#000000" fill-rule="nonzero" fill-opacity="1" /><path clip-path="url(#clip010)" d="M1050.52 141.398 Q1047.1 141.398 1045.11 144.083 Q1043.12 146.745 1043.12 151.398 Q1043.12 156.051 1045.09 158.736 Q1047.08 161.398 1050.52 161.398 Q1053.93 161.398 1055.92 158.713 Q1057.91 156.027 1057.91 151.398 Q1057.91 146.791 1055.92 144.106 Q1053.93 141.398 1050.52 141.398 M1050.52 137.787 Q1056.08 137.787 1059.25 141.398 Q1062.42 145.009 1062.42 151.398 Q1062.42 157.764 1059.25 161.398 Q1056.08 165.009 1050.52 165.009 Q1044.95 165.009 1041.78 161.398 Q1038.63 157.764 1038.63 151.398 Q1038.63 145.009 1041.78 141.398 Q1044.95 137.787 1050.52 137.787 Z" fill="#000000" fill-rule="nonzero" fill-opacity="1" /><path clip-path="url(#clip010)" d="M1073.7 131.051 L1073.7 138.412 L1082.47 138.412 L1082.47 141.722 L1073.7 141.722 L1073.7 155.796 Q1073.7 158.967 1074.55 159.87 Q1075.43 160.773 1078.09 160.773 L1082.47 160.773 L1082.47 164.338 L1078.09 164.338 Q1073.16 164.338 1071.29 162.509 Q1069.41 160.657 1069.41 155.796 L1069.41 141.722 L1066.29 141.722 L1066.29 138.412 L1069.41 138.412 L1069.41 131.051 L1073.7 131.051 Z" fill="#000000" fill-rule="nonzero" fill-opacity="1" /><path clip-path="url(#clip010)" d="M1109.62 148.689 L1109.62 164.338 L1105.36 164.338 L1105.36 148.828 Q1105.36 145.148 1103.93 143.319 Q1102.49 141.49 1099.62 141.49 Q1096.17 141.49 1094.18 143.69 Q1092.19 145.889 1092.19 149.685 L1092.19 164.338 L1087.91 164.338 L1087.91 128.319 L1092.19 128.319 L1092.19 142.44 Q1093.72 140.102 1095.78 138.944 Q1097.86 137.787 1100.57 137.787 Q1105.04 137.787 1107.33 140.565 Q1109.62 143.319 1109.62 148.689 Z" fill="#000000" fill-rule="nonzero" fill-opacity="1" /><polyline clip-path="url(#clip010)" style="stroke:#e26f46; stroke-linecap:round; stroke-linejoin:round; stroke-width:4; stroke-opacity:1; fill:none" points="673.344,198.898 737.298,198.898 "/>
<path clip-path="url(#clip010)" d="M752.24 212.289 L752.24 226.039 L747.957 226.039 L747.957 190.252 L752.24 190.252 L752.24 194.187 Q753.582 191.872 755.619 190.761 Q757.679 189.627 760.527 189.627 Q765.249 189.627 768.189 193.377 Q771.151 197.127 771.151 203.238 Q771.151 209.349 768.189 213.099 Q765.249 216.849 760.527 216.849 Q757.679 216.849 755.619 215.738 Q753.582 214.603 752.24 212.289 M766.73 203.238 Q766.73 198.539 764.786 195.877 Q762.864 193.192 759.485 193.192 Q756.105 193.192 754.161 195.877 Q752.24 198.539 752.24 203.238 Q752.24 207.937 754.161 210.622 Q756.105 213.284 759.485 213.284 Q762.864 213.284 764.786 210.622 Q766.73 207.937 766.73 203.238 Z" fill="#000000" fill-rule="nonzero" fill-opacity="1" /><path clip-path="url(#clip010)" d="M791.337 180.159 L791.337 183.701 L787.263 183.701 Q784.971 183.701 784.068 184.627 Q783.188 185.553 783.188 187.96 L783.188 190.252 L790.202 190.252 L790.202 193.562 L783.188 193.562 L783.188 216.178 L778.906 216.178 L778.906 193.562 L774.832 193.562 L774.832 190.252 L778.906 190.252 L778.906 188.446 Q778.906 184.118 780.92 182.15 Q782.934 180.159 787.309 180.159 L791.337 180.159 Z" fill="#000000" fill-rule="nonzero" fill-opacity="1" /><path clip-path="url(#clip010)" d="M826.498 191.016 L826.498 195.043 Q824.693 194.117 822.748 193.655 Q820.804 193.192 818.721 193.192 Q815.549 193.192 813.952 194.164 Q812.378 195.136 812.378 197.08 Q812.378 198.562 813.512 199.418 Q814.647 200.252 818.073 201.016 L819.531 201.34 Q824.068 202.312 825.966 204.094 Q827.887 205.854 827.887 209.025 Q827.887 212.636 825.017 214.742 Q822.17 216.849 817.17 216.849 Q815.086 216.849 812.818 216.432 Q810.573 216.039 808.073 215.228 L808.073 210.83 Q810.434 212.057 812.725 212.682 Q815.017 213.284 817.262 213.284 Q820.272 213.284 821.892 212.266 Q823.512 211.224 823.512 209.349 Q823.512 207.613 822.332 206.687 Q821.174 205.761 817.216 204.904 L815.735 204.557 Q811.776 203.724 810.017 202.011 Q808.258 200.275 808.258 197.266 Q808.258 193.608 810.85 191.618 Q813.443 189.627 818.211 189.627 Q820.573 189.627 822.656 189.974 Q824.739 190.321 826.498 191.016 Z" fill="#000000" fill-rule="nonzero" fill-opacity="1" /><path clip-path="url(#clip010)" d="M854.855 195.229 Q856.452 192.358 858.674 190.993 Q860.896 189.627 863.906 189.627 Q867.957 189.627 870.156 192.474 Q872.355 195.298 872.355 200.529 L872.355 216.178 L868.072 216.178 L868.072 200.668 Q868.072 196.942 866.753 195.136 Q865.433 193.33 862.725 193.33 Q859.415 193.33 857.494 195.53 Q855.572 197.729 855.572 201.525 L855.572 216.178 L851.29 216.178 L851.29 200.668 Q851.29 196.918 849.97 195.136 Q848.651 193.33 845.896 193.33 Q842.633 193.33 840.711 195.553 Q838.79 197.752 838.79 201.525 L838.79 216.178 L834.508 216.178 L834.508 190.252 L838.79 190.252 L838.79 194.28 Q840.248 191.895 842.285 190.761 Q844.322 189.627 847.123 189.627 Q849.947 189.627 851.915 191.062 Q853.906 192.497 854.855 195.229 Z" fill="#000000" fill-rule="nonzero" fill-opacity="1" /><path clip-path="url(#clip010)" d="M890.896 193.238 Q887.47 193.238 885.48 195.923 Q883.489 198.585 883.489 203.238 Q883.489 207.891 885.456 210.576 Q887.447 213.238 890.896 213.238 Q894.299 213.238 896.29 210.553 Q898.28 207.867 898.28 203.238 Q898.28 198.631 896.29 195.946 Q894.299 193.238 890.896 193.238 M890.896 189.627 Q896.452 189.627 899.623 193.238 Q902.794 196.849 902.794 203.238 Q902.794 209.604 899.623 213.238 Q896.452 216.849 890.896 216.849 Q885.318 216.849 882.146 213.238 Q878.998 209.604 878.998 203.238 Q878.998 196.849 882.146 193.238 Q885.318 189.627 890.896 189.627 Z" fill="#000000" fill-rule="nonzero" fill-opacity="1" /><path clip-path="url(#clip010)" d="M919.901 193.238 Q916.475 193.238 914.484 195.923 Q912.493 198.585 912.493 203.238 Q912.493 207.891 914.461 210.576 Q916.452 213.238 919.901 213.238 Q923.303 213.238 925.294 210.553 Q927.285 207.867 927.285 203.238 Q927.285 198.631 925.294 195.946 Q923.303 193.238 919.901 193.238 M919.901 189.627 Q925.456 189.627 928.627 193.238 Q931.799 196.849 931.799 203.238 Q931.799 209.604 928.627 213.238 Q925.456 216.849 919.901 216.849 Q914.322 216.849 911.151 213.238 Q908.003 209.604 908.003 203.238 Q908.003 196.849 911.151 193.238 Q914.322 189.627 919.901 189.627 Z" fill="#000000" fill-rule="nonzero" fill-opacity="1" /><path clip-path="url(#clip010)" d="M943.072 182.891 L943.072 190.252 L951.845 190.252 L951.845 193.562 L943.072 193.562 L943.072 207.636 Q943.072 210.807 943.928 211.71 Q944.808 212.613 947.47 212.613 L951.845 212.613 L951.845 216.178 L947.47 216.178 Q942.539 216.178 940.664 214.349 Q938.789 212.497 938.789 207.636 L938.789 193.562 L935.664 193.562 L935.664 190.252 L938.789 190.252 L938.789 182.891 L943.072 182.891 Z" fill="#000000" fill-rule="nonzero" fill-opacity="1" /><path clip-path="url(#clip010)" d="M978.998 200.529 L978.998 216.178 L974.738 216.178 L974.738 200.668 Q974.738 196.988 973.303 195.159 Q971.868 193.33 968.998 193.33 Q965.549 193.33 963.558 195.53 Q961.567 197.729 961.567 201.525 L961.567 216.178 L957.285 216.178 L957.285 180.159 L961.567 180.159 L961.567 194.28 Q963.095 191.942 965.155 190.784 Q967.238 189.627 969.947 189.627 Q974.414 189.627 976.706 192.405 Q978.998 195.159 978.998 200.529 Z" fill="#000000" fill-rule="nonzero" fill-opacity="1" /><polyline clip-path="url(#clip010)" style="stroke:#3da44d; stroke-linecap:round; stroke-linejoin:round; stroke-width:4; stroke-opacity:1; fill:none" points="673.344,250.738 737.298,250.738 "/>
<path clip-path="url(#clip010)" d="M755.365 234.731 L755.365 242.092 L764.138 242.092 L764.138 245.402 L755.365 245.402 L755.365 259.476 Q755.365 262.647 756.221 263.55 Q757.101 264.453 759.763 264.453 L764.138 264.453 L764.138 268.018 L759.763 268.018 Q754.832 268.018 752.957 266.189 Q751.082 264.337 751.082 259.476 L751.082 245.402 L747.957 245.402 L747.957 242.092 L751.082 242.092 L751.082 234.731 L755.365 234.731 Z" fill="#000000" fill-rule="nonzero" fill-opacity="1" /><path clip-path="url(#clip010)" d="M784.763 246.073 Q784.045 245.657 783.188 245.471 Q782.355 245.263 781.337 245.263 Q777.726 245.263 775.781 247.624 Q773.86 249.962 773.86 254.36 L773.86 268.018 L769.577 268.018 L769.577 242.092 L773.86 242.092 L773.86 246.12 Q775.202 243.758 777.355 242.624 Q779.508 241.467 782.587 241.467 Q783.026 241.467 783.559 241.536 Q784.091 241.583 784.739 241.698 L784.763 246.073 Z" fill="#000000" fill-rule="nonzero" fill-opacity="1" /><path clip-path="url(#clip010)" d="M788.79 257.786 L788.79 242.092 L793.05 242.092 L793.05 257.624 Q793.05 261.305 794.485 263.156 Q795.92 264.985 798.79 264.985 Q802.239 264.985 804.23 262.786 Q806.244 260.587 806.244 256.791 L806.244 242.092 L810.503 242.092 L810.503 268.018 L806.244 268.018 L806.244 264.036 Q804.693 266.397 802.633 267.555 Q800.596 268.689 797.887 268.689 Q793.42 268.689 791.105 265.911 Q788.79 263.133 788.79 257.786 M799.508 241.467 L799.508 241.467 Z" fill="#000000" fill-rule="nonzero" fill-opacity="1" /><path clip-path="url(#clip010)" d="M841.452 253.99 L841.452 256.073 L821.869 256.073 Q822.147 260.471 824.508 262.786 Q826.892 265.078 831.128 265.078 Q833.582 265.078 835.873 264.476 Q838.188 263.874 840.457 262.67 L840.457 266.698 Q838.165 267.67 835.758 268.18 Q833.35 268.689 830.873 268.689 Q824.67 268.689 821.035 265.078 Q817.424 261.467 817.424 255.309 Q817.424 248.944 820.85 245.217 Q824.299 241.467 830.133 241.467 Q835.364 241.467 838.396 244.846 Q841.452 248.203 841.452 253.99 M837.193 252.74 Q837.146 249.245 835.225 247.161 Q833.327 245.078 830.179 245.078 Q826.614 245.078 824.461 247.092 Q822.332 249.106 822.008 252.763 L837.193 252.74 Z" fill="#000000" fill-rule="nonzero" fill-opacity="1" /><path clip-path="url(#clip010)" d="M1393.44 1486.45 L2352.76 1486.45 L2352.76 47.2441 L1393.44 47.2441  Z" fill="#ffffff" fill-rule="evenodd" fill-opacity="1"/>
<defs>
  <clipPath id="clip013">
    <rect x="1393" y="47" width="960" height="1440"/>
  </clipPath>
</defs>
<polyline clip-path="url(#clip013)" style="stroke:#000000; stroke-linecap:round; stroke-linejoin:round; stroke-width:2; stroke-opacity:0.1; fill:none" points="1409.13,1486.45 1409.13,47.2441 "/>
<polyline clip-path="url(#clip013)" style="stroke:#000000; stroke-linecap:round; stroke-linejoin:round; stroke-width:2; stroke-opacity:0.1; fill:none" points="1638.25,1486.45 1638.25,47.2441 "/>
<polyline clip-path="url(#clip013)" style="stroke:#000000; stroke-linecap:round; stroke-linejoin:round; stroke-width:2; stroke-opacity:0.1; fill:none" points="1867.37,1486.45 1867.37,47.2441 "/>
<polyline clip-path="url(#clip013)" style="stroke:#000000; stroke-linecap:round; stroke-linejoin:round; stroke-width:2; stroke-opacity:0.1; fill:none" points="2096.49,1486.45 2096.49,47.2441 "/>
<polyline clip-path="url(#clip013)" style="stroke:#000000; stroke-linecap:round; stroke-linejoin:round; stroke-width:2; stroke-opacity:0.1; fill:none" points="2325.61,1486.45 2325.61,47.2441 "/>
<polyline clip-path="url(#clip013)" style="stroke:#000000; stroke-linecap:round; stroke-linejoin:round; stroke-width:2; stroke-opacity:0.1; fill:none" points="1393.44,1454.56 2352.76,1454.56 "/>
<polyline clip-path="url(#clip013)" style="stroke:#000000; stroke-linecap:round; stroke-linejoin:round; stroke-width:2; stroke-opacity:0.1; fill:none" points="1393.44,1058.19 2352.76,1058.19 "/>
<polyline clip-path="url(#clip013)" style="stroke:#000000; stroke-linecap:round; stroke-linejoin:round; stroke-width:2; stroke-opacity:0.1; fill:none" points="1393.44,661.822 2352.76,661.822 "/>
<polyline clip-path="url(#clip013)" style="stroke:#000000; stroke-linecap:round; stroke-linejoin:round; stroke-width:2; stroke-opacity:0.1; fill:none" points="1393.44,265.455 2352.76,265.455 "/>
<polyline clip-path="url(#clip010)" style="stroke:#000000; stroke-linecap:round; stroke-linejoin:round; stroke-width:4; stroke-opacity:1; fill:none" points="1393.44,1486.45 2352.76,1486.45 "/>
<polyline clip-path="url(#clip010)" style="stroke:#000000; stroke-linecap:round; stroke-linejoin:round; stroke-width:4; stroke-opacity:1; fill:none" points="1409.13,1486.45 1409.13,1467.55 "/>
<polyline clip-path="url(#clip010)" style="stroke:#000000; stroke-linecap:round; stroke-linejoin:round; stroke-width:4; stroke-opacity:1; fill:none" points="1638.25,1486.45 1638.25,1467.55 "/>
<polyline clip-path="url(#clip010)" style="stroke:#000000; stroke-linecap:round; stroke-linejoin:round; stroke-width:4; stroke-opacity:1; fill:none" points="1867.37,1486.45 1867.37,1467.55 "/>
<polyline clip-path="url(#clip010)" style="stroke:#000000; stroke-linecap:round; stroke-linejoin:round; stroke-width:4; stroke-opacity:1; fill:none" points="2096.49,1486.45 2096.49,1467.55 "/>
<polyline clip-path="url(#clip010)" style="stroke:#000000; stroke-linecap:round; stroke-linejoin:round; stroke-width:4; stroke-opacity:1; fill:none" points="2325.61,1486.45 2325.61,1467.55 "/>
<path clip-path="url(#clip010)" d="M1409.13 1517.37 Q1405.52 1517.37 1403.69 1520.93 Q1401.89 1524.47 1401.89 1531.6 Q1401.89 1538.71 1403.69 1542.27 Q1405.52 1545.82 1409.13 1545.82 Q1412.77 1545.82 1414.57 1542.27 Q1416.4 1538.71 1416.4 1531.6 Q1416.4 1524.47 1414.57 1520.93 Q1412.77 1517.37 1409.13 1517.37 M1409.13 1513.66 Q1414.94 1513.66 1418 1518.27 Q1421.08 1522.85 1421.08 1531.6 Q1421.08 1540.33 1418 1544.94 Q1414.94 1549.52 1409.13 1549.52 Q1403.32 1549.52 1400.24 1544.94 Q1397.19 1540.33 1397.19 1531.6 Q1397.19 1522.85 1400.24 1518.27 Q1403.32 1513.66 1409.13 1513.66 Z" fill="#000000" fill-rule="nonzero" fill-opacity="1" /><path clip-path="url(#clip010)" d="M1617.02 1544.91 L1633.34 1544.91 L1633.34 1548.85 L1611.4 1548.85 L1611.4 1544.91 Q1614.06 1542.16 1618.64 1537.53 Q1623.25 1532.88 1624.43 1531.53 Q1626.68 1529.01 1627.56 1527.27 Q1628.46 1525.51 1628.46 1523.82 Q1628.46 1521.07 1626.51 1519.33 Q1624.59 1517.6 1621.49 1517.6 Q1619.29 1517.6 1616.84 1518.36 Q1614.41 1519.13 1611.63 1520.68 L1611.63 1515.95 Q1614.45 1514.82 1616.91 1514.24 Q1619.36 1513.66 1621.4 1513.66 Q1626.77 1513.66 1629.96 1516.35 Q1633.16 1519.03 1633.16 1523.52 Q1633.16 1525.65 1632.35 1527.57 Q1631.56 1529.47 1629.45 1532.07 Q1628.88 1532.74 1625.77 1535.95 Q1622.67 1539.15 1617.02 1544.91 Z" fill="#000000" fill-rule="nonzero" fill-opacity="1" /><path clip-path="url(#clip010)" d="M1653.16 1517.37 Q1649.55 1517.37 1647.72 1520.93 Q1645.91 1524.47 1645.91 1531.6 Q1645.91 1538.71 1647.72 1542.27 Q1649.55 1545.82 1653.16 1545.82 Q1656.79 1545.82 1658.6 1542.27 Q1660.43 1538.71 1660.43 1531.6 Q1660.43 1524.47 1658.6 1520.93 Q1656.79 1517.37 1653.16 1517.37 M1653.16 1513.66 Q1658.97 1513.66 1662.02 1518.27 Q1665.1 1522.85 1665.1 1531.6 Q1665.1 1540.33 1662.02 1544.94 Q1658.97 1549.52 1653.16 1549.52 Q1647.35 1549.52 1644.27 1544.94 Q1641.21 1540.33 1641.21 1531.6 Q1641.21 1522.85 1644.27 1518.27 Q1647.35 1513.66 1653.16 1513.66 Z" fill="#000000" fill-rule="nonzero" fill-opacity="1" /><path clip-path="url(#clip010)" d="M1855.54 1518.36 L1843.74 1536.81 L1855.54 1536.81 L1855.54 1518.36 M1854.31 1514.29 L1860.19 1514.29 L1860.19 1536.81 L1865.12 1536.81 L1865.12 1540.7 L1860.19 1540.7 L1860.19 1548.85 L1855.54 1548.85 L1855.54 1540.7 L1839.94 1540.7 L1839.94 1536.19 L1854.31 1514.29 Z" fill="#000000" fill-rule="nonzero" fill-opacity="1" /><path clip-path="url(#clip010)" d="M1882.86 1517.37 Q1879.24 1517.37 1877.42 1520.93 Q1875.61 1524.47 1875.61 1531.6 Q1875.61 1538.71 1877.42 1542.27 Q1879.24 1545.82 1882.86 1545.82 Q1886.49 1545.82 1888.29 1542.27 Q1890.12 1538.71 1890.12 1531.6 Q1890.12 1524.47 1888.29 1520.93 Q1886.49 1517.37 1882.86 1517.37 M1882.86 1513.66 Q1888.67 1513.66 1891.72 1518.27 Q1894.8 1522.85 1894.8 1531.6 Q1894.8 1540.33 1891.72 1544.94 Q1888.67 1549.52 1882.86 1549.52 Q1877.05 1549.52 1873.97 1544.94 Q1870.91 1540.33 1870.91 1531.6 Q1870.91 1522.85 1873.97 1518.27 Q1877.05 1513.66 1882.86 1513.66 Z" fill="#000000" fill-rule="nonzero" fill-opacity="1" /><path clip-path="url(#clip010)" d="M2081.89 1529.7 Q2078.74 1529.7 2076.89 1531.86 Q2075.06 1534.01 2075.06 1537.76 Q2075.06 1541.49 2076.89 1543.66 Q2078.74 1545.82 2081.89 1545.82 Q2085.04 1545.82 2086.87 1543.66 Q2088.72 1541.49 2088.72 1537.76 Q2088.72 1534.01 2086.87 1531.86 Q2085.04 1529.7 2081.89 1529.7 M2091.17 1515.05 L2091.17 1519.31 Q2089.42 1518.48 2087.61 1518.04 Q2085.83 1517.6 2084.07 1517.6 Q2079.44 1517.6 2076.99 1520.72 Q2074.55 1523.85 2074.21 1530.17 Q2075.57 1528.15 2077.63 1527.09 Q2079.69 1526 2082.17 1526 Q2087.38 1526 2090.39 1529.17 Q2093.42 1532.32 2093.42 1537.76 Q2093.42 1543.08 2090.27 1546.3 Q2087.12 1549.52 2081.89 1549.52 Q2075.9 1549.52 2072.73 1544.94 Q2069.55 1540.33 2069.55 1531.6 Q2069.55 1523.41 2073.44 1518.55 Q2077.33 1513.66 2083.88 1513.66 Q2085.64 1513.66 2087.42 1514.01 Q2089.23 1514.36 2091.17 1515.05 Z" fill="#000000" fill-rule="nonzero" fill-opacity="1" /><path clip-path="url(#clip010)" d="M2111.48 1517.37 Q2107.86 1517.37 2106.04 1520.93 Q2104.23 1524.47 2104.23 1531.6 Q2104.23 1538.71 2106.04 1542.27 Q2107.86 1545.82 2111.48 1545.82 Q2115.11 1545.82 2116.92 1542.27 Q2118.74 1538.71 2118.74 1531.6 Q2118.74 1524.47 2116.92 1520.93 Q2115.11 1517.37 2111.48 1517.37 M2111.48 1513.66 Q2117.29 1513.66 2120.34 1518.27 Q2123.42 1522.85 2123.42 1531.6 Q2123.42 1540.33 2120.34 1544.94 Q2117.29 1549.52 2111.48 1549.52 Q2105.67 1549.52 2102.59 1544.94 Q2099.53 1540.33 2099.53 1531.6 Q2099.53 1522.85 2102.59 1518.27 Q2105.67 1513.66 2111.48 1513.66 Z" fill="#000000" fill-rule="nonzero" fill-opacity="1" /><path clip-path="url(#clip010)" d="M2310.48 1532.44 Q2307.14 1532.44 2305.22 1534.22 Q2303.33 1536 2303.33 1539.13 Q2303.33 1542.25 2305.22 1544.03 Q2307.14 1545.82 2310.48 1545.82 Q2313.81 1545.82 2315.73 1544.03 Q2317.65 1542.23 2317.65 1539.13 Q2317.65 1536 2315.73 1534.22 Q2313.83 1532.44 2310.48 1532.44 M2305.8 1530.45 Q2302.79 1529.7 2301.1 1527.64 Q2299.44 1525.58 2299.44 1522.62 Q2299.44 1518.48 2302.38 1516.07 Q2305.34 1513.66 2310.48 1513.66 Q2315.64 1513.66 2318.58 1516.07 Q2321.52 1518.48 2321.52 1522.62 Q2321.52 1525.58 2319.83 1527.64 Q2318.16 1529.7 2315.18 1530.45 Q2318.56 1531.23 2320.43 1533.52 Q2322.33 1535.82 2322.33 1539.13 Q2322.33 1544.15 2319.25 1546.83 Q2316.2 1549.52 2310.48 1549.52 Q2304.76 1549.52 2301.68 1546.83 Q2298.63 1544.15 2298.63 1539.13 Q2298.63 1535.82 2300.52 1533.52 Q2302.42 1531.23 2305.8 1530.45 M2304.09 1523.06 Q2304.09 1525.75 2305.76 1527.25 Q2307.45 1528.76 2310.48 1528.76 Q2313.49 1528.76 2315.18 1527.25 Q2316.89 1525.75 2316.89 1523.06 Q2316.89 1520.38 2315.18 1518.87 Q2313.49 1517.37 2310.48 1517.37 Q2307.45 1517.37 2305.76 1518.87 Q2304.09 1520.38 2304.09 1523.06 Z" fill="#000000" fill-rule="nonzero" fill-opacity="1" /><path clip-path="url(#clip010)" d="M2340.64 1517.37 Q2337.03 1517.37 2335.2 1520.93 Q2333.39 1524.47 2333.39 1531.6 Q2333.39 1538.71 2335.2 1542.27 Q2337.03 1545.82 2340.64 1545.82 Q2344.27 1545.82 2346.08 1542.27 Q2347.91 1538.71 2347.91 1531.6 Q2347.91 1524.47 2346.08 1520.93 Q2344.27 1517.37 2340.64 1517.37 M2340.64 1513.66 Q2346.45 1513.66 2349.51 1518.27 Q2352.58 1522.85 2352.58 1531.6 Q2352.58 1540.33 2349.51 1544.94 Q2346.45 1549.52 2340.64 1549.52 Q2334.83 1549.52 2331.75 1544.94 Q2328.7 1540.33 2328.7 1531.6 Q2328.7 1522.85 2331.75 1518.27 Q2334.83 1513.66 2340.64 1513.66 Z" fill="#000000" fill-rule="nonzero" fill-opacity="1" /><polyline clip-path="url(#clip010)" style="stroke:#000000; stroke-linecap:round; stroke-linejoin:round; stroke-width:4; stroke-opacity:1; fill:none" points="1393.44,1486.45 1393.44,47.2441 "/>
<polyline clip-path="url(#clip010)" style="stroke:#000000; stroke-linecap:round; stroke-linejoin:round; stroke-width:4; stroke-opacity:1; fill:none" points="1393.44,1454.56 1412.34,1454.56 "/>
<polyline clip-path="url(#clip010)" style="stroke:#000000; stroke-linecap:round; stroke-linejoin:round; stroke-width:4; stroke-opacity:1; fill:none" points="1393.44,1058.19 1412.34,1058.19 "/>
<polyline clip-path="url(#clip010)" style="stroke:#000000; stroke-linecap:round; stroke-linejoin:round; stroke-width:4; stroke-opacity:1; fill:none" points="1393.44,661.822 1412.34,661.822 "/>
<polyline clip-path="url(#clip010)" style="stroke:#000000; stroke-linecap:round; stroke-linejoin:round; stroke-width:4; stroke-opacity:1; fill:none" points="1393.44,265.455 1412.34,265.455 "/>
<path clip-path="url(#clip010)" d="M1250.49 1455.01 L1280.17 1455.01 L1280.17 1458.94 L1250.49 1458.94 L1250.49 1455.01 Z" fill="#000000" fill-rule="nonzero" fill-opacity="1" /><path clip-path="url(#clip010)" d="M1291.07 1467.9 L1298.71 1467.9 L1298.71 1441.53 L1290.4 1443.2 L1290.4 1438.94 L1298.67 1437.28 L1303.34 1437.28 L1303.34 1467.9 L1310.98 1467.9 L1310.98 1471.84 L1291.07 1471.84 L1291.07 1467.9 Z" fill="#000000" fill-rule="nonzero" fill-opacity="1" /><path clip-path="url(#clip010)" d="M1320.42 1465.96 L1325.31 1465.96 L1325.31 1471.84 L1320.42 1471.84 L1320.42 1465.96 Z" fill="#000000" fill-rule="nonzero" fill-opacity="1" /><path clip-path="url(#clip010)" d="M1345.49 1440.35 Q1341.88 1440.35 1340.05 1443.92 Q1338.25 1447.46 1338.25 1454.59 Q1338.25 1461.7 1340.05 1465.26 Q1341.88 1468.8 1345.49 1468.8 Q1349.13 1468.8 1350.93 1465.26 Q1352.76 1461.7 1352.76 1454.59 Q1352.76 1447.46 1350.93 1443.92 Q1349.13 1440.35 1345.49 1440.35 M1345.49 1436.65 Q1351.3 1436.65 1354.36 1441.26 Q1357.44 1445.84 1357.44 1454.59 Q1357.44 1463.32 1354.36 1467.92 Q1351.3 1472.51 1345.49 1472.51 Q1339.68 1472.51 1336.61 1467.92 Q1333.55 1463.32 1333.55 1454.59 Q1333.55 1445.84 1336.61 1441.26 Q1339.68 1436.65 1345.49 1436.65 Z" fill="#000000" fill-rule="nonzero" fill-opacity="1" /><path clip-path="url(#clip010)" d="M1251.49 1058.64 L1281.17 1058.64 L1281.17 1062.58 L1251.49 1062.58 L1251.49 1058.64 Z" fill="#000000" fill-rule="nonzero" fill-opacity="1" /><path clip-path="url(#clip010)" d="M1301.26 1043.99 Q1297.65 1043.99 1295.82 1047.55 Q1294.01 1051.09 1294.01 1058.22 Q1294.01 1065.33 1295.82 1068.89 Q1297.65 1072.44 1301.26 1072.44 Q1304.89 1072.44 1306.7 1068.89 Q1308.53 1065.33 1308.53 1058.22 Q1308.53 1051.09 1306.7 1047.55 Q1304.89 1043.99 1301.26 1043.99 M1301.26 1040.28 Q1307.07 1040.28 1310.12 1044.89 Q1313.2 1049.47 1313.2 1058.22 Q1313.2 1066.95 1310.12 1071.56 Q1307.07 1076.14 1301.26 1076.14 Q1295.45 1076.14 1292.37 1071.56 Q1289.31 1066.95 1289.31 1058.22 Q1289.31 1049.47 1292.37 1044.89 Q1295.45 1040.28 1301.26 1040.28 Z" fill="#000000" fill-rule="nonzero" fill-opacity="1" /><path clip-path="url(#clip010)" d="M1321.42 1069.59 L1326.3 1069.59 L1326.3 1075.47 L1321.42 1075.47 L1321.42 1069.59 Z" fill="#000000" fill-rule="nonzero" fill-opacity="1" /><path clip-path="url(#clip010)" d="M1336.54 1040.91 L1354.89 1040.91 L1354.89 1044.84 L1340.82 1044.84 L1340.82 1053.32 Q1341.84 1052.97 1342.86 1052.81 Q1343.87 1052.62 1344.89 1052.62 Q1350.68 1052.62 1354.06 1055.79 Q1357.44 1058.96 1357.44 1064.38 Q1357.44 1069.96 1353.97 1073.06 Q1350.49 1076.14 1344.17 1076.14 Q1342 1076.14 1339.73 1075.77 Q1337.48 1075.4 1335.08 1074.66 L1335.08 1069.96 Q1337.16 1071.09 1339.38 1071.65 Q1341.61 1072.21 1344.08 1072.21 Q1348.09 1072.21 1350.42 1070.1 Q1352.76 1067.99 1352.76 1064.38 Q1352.76 1060.77 1350.42 1058.66 Q1348.09 1056.56 1344.08 1056.56 Q1342.21 1056.56 1340.33 1056.97 Q1338.48 1057.39 1336.54 1058.27 L1336.54 1040.91 Z" fill="#000000" fill-rule="nonzero" fill-opacity="1" /><path clip-path="url(#clip010)" d="M1300.26 647.621 Q1296.65 647.621 1294.82 651.186 Q1293.02 654.727 1293.02 661.857 Q1293.02 668.963 1294.82 672.528 Q1296.65 676.07 1300.26 676.07 Q1303.9 676.07 1305.7 672.528 Q1307.53 668.963 1307.53 661.857 Q1307.53 654.727 1305.7 651.186 Q1303.9 647.621 1300.26 647.621 M1300.26 643.917 Q1306.07 643.917 1309.13 648.524 Q1312.21 653.107 1312.21 661.857 Q1312.21 670.584 1309.13 675.19 Q1306.07 679.773 1300.26 679.773 Q1294.45 679.773 1291.37 675.19 Q1288.32 670.584 1288.32 661.857 Q1288.32 653.107 1291.37 648.524 Q1294.45 643.917 1300.26 643.917 Z" fill="#000000" fill-rule="nonzero" fill-opacity="1" /><path clip-path="url(#clip010)" d="M1320.42 673.223 L1325.31 673.223 L1325.31 679.102 L1320.42 679.102 L1320.42 673.223 Z" fill="#000000" fill-rule="nonzero" fill-opacity="1" /><path clip-path="url(#clip010)" d="M1345.49 647.621 Q1341.88 647.621 1340.05 651.186 Q1338.25 654.727 1338.25 661.857 Q1338.25 668.963 1340.05 672.528 Q1341.88 676.07 1345.49 676.07 Q1349.13 676.07 1350.93 672.528 Q1352.76 668.963 1352.76 661.857 Q1352.76 654.727 1350.93 651.186 Q1349.13 647.621 1345.49 647.621 M1345.49 643.917 Q1351.3 643.917 1354.36 648.524 Q1357.44 653.107 1357.44 661.857 Q1357.44 670.584 1354.36 675.19 Q1351.3 679.773 1345.49 679.773 Q1339.68 679.773 1336.61 675.19 Q1333.55 670.584 1333.55 661.857 Q1333.55 653.107 1336.61 648.524 Q1339.68 643.917 1345.49 643.917 Z" fill="#000000" fill-rule="nonzero" fill-opacity="1" /><path clip-path="url(#clip010)" d="M1301.26 251.254 Q1297.65 251.254 1295.82 254.819 Q1294.01 258.361 1294.01 265.49 Q1294.01 272.597 1295.82 276.161 Q1297.65 279.703 1301.26 279.703 Q1304.89 279.703 1306.7 276.161 Q1308.53 272.597 1308.53 265.49 Q1308.53 258.361 1306.7 254.819 Q1304.89 251.254 1301.26 251.254 M1301.26 247.55 Q1307.07 247.55 1310.12 252.157 Q1313.2 256.74 1313.2 265.49 Q1313.2 274.217 1310.12 278.823 Q1307.07 283.407 1301.26 283.407 Q1295.45 283.407 1292.37 278.823 Q1289.31 274.217 1289.31 265.49 Q1289.31 256.74 1292.37 252.157 Q1295.45 247.55 1301.26 247.55 Z" fill="#000000" fill-rule="nonzero" fill-opacity="1" /><path clip-path="url(#clip010)" d="M1321.42 276.856 L1326.3 276.856 L1326.3 282.735 L1321.42 282.735 L1321.42 276.856 Z" fill="#000000" fill-rule="nonzero" fill-opacity="1" /><path clip-path="url(#clip010)" d="M1336.54 248.175 L1354.89 248.175 L1354.89 252.111 L1340.82 252.111 L1340.82 260.583 Q1341.84 260.236 1342.86 260.074 Q1343.87 259.888 1344.89 259.888 Q1350.68 259.888 1354.06 263.06 Q1357.44 266.231 1357.44 271.648 Q1357.44 277.226 1353.97 280.328 Q1350.49 283.407 1344.17 283.407 Q1342 283.407 1339.73 283.036 Q1337.48 282.666 1335.08 281.925 L1335.08 277.226 Q1337.16 278.36 1339.38 278.916 Q1341.61 279.472 1344.08 279.472 Q1348.09 279.472 1350.42 277.365 Q1352.76 275.259 1352.76 271.648 Q1352.76 268.036 1350.42 265.93 Q1348.09 263.824 1344.08 263.824 Q1342.21 263.824 1340.33 264.24 Q1338.48 264.657 1336.54 265.536 L1336.54 248.175 Z" fill="#000000" fill-rule="nonzero" fill-opacity="1" /><polyline clip-path="url(#clip013)" style="stroke:#009af9; stroke-linecap:round; stroke-linejoin:round; stroke-width:4; stroke-opacity:1; fill:none" points="1420.59,762.582 1432.04,733.822 1443.5,696.055 1454.96,650.495 1466.41,616.753 1477.87,688.309 1489.32,727.267 1500.78,752.676 1512.24,744.101 1523.69,774.421 1535.15,775.579 1546.6,782.644 1558.06,815.804 1569.52,855.305 1580.97,915.719 1592.43,994.349 1603.88,1047.36 1615.34,1067.07 1626.8,1112.06 1638.25,1147.49 1649.71,1199.12 1661.16,1231.63 1672.62,1261.3 1684.07,1357.63 1695.53,1380.57 1706.99,1417.56 1718.44,1445.72 1729.9,1388.81 1741.35,1321.08 1752.81,1240.18 1764.27,1138 1775.72,1081.38 1787.18,1060.7 1798.63,1022.06 1810.09,1001.15 1821.55,993.156 1833,1023.46 1844.46,1099.25 1855.91,1116.26 1867.37,1087.3 1878.83,995.492 1890.28,899.856 1901.74,809.967 1913.19,701.815 1924.65,628.97 1936.1,551.013 1947.56,489.38 1959.02,473.521 1970.47,386.982 1981.93,289.046 1993.38,257.759 2004.84,169.371 2016.3,123.16 2027.75,129.287 2039.21,122.62 2050.66,181.04 2062.12,184.101 2073.58,146.32 2085.03,147.796 2096.49,107.323 2107.94,120.78 2119.4,137.301 2130.86,147.482 2142.31,162.347 2153.77,178.427 2165.22,227.886 2176.68,280.7 2188.13,311.401 2199.59,384.732 2211.05,402.164 2222.5,451.966 2233.96,461.871 2245.41,485.477 2256.87,556.274 2268.33,562.822 2279.78,545.473 2291.24,590.512 2302.69,635.119 2314.15,667.717 2325.61,707.982 "/>
<polyline clip-path="url(#clip013)" style="stroke:#e26f46; stroke-linecap:round; stroke-linejoin:round; stroke-width:4; stroke-opacity:1; fill:none" points="1420.59,767.613 1432.04,745.584 1443.5,705.294 1454.96,640.207 1466.41,621.553 1477.87,698.712 1489.32,730.084 1500.78,748.893 1512.24,745.215 1523.69,773.917 1535.15,780.539 1546.6,794.197 1558.06,822.238 1569.52,844.507 1580.97,905.827 1592.43,996.402 1603.88,1047.85 1615.34,1078.01 1626.8,1121.11 1638.25,1152.13 1649.71,1195.68 1661.16,1233.13 1672.62,1261.25 1684.07,1345.38 1695.53,1370.79 1706.99,1416.02 1718.44,1439.97 1729.9,1383.36 1741.35,1318.18 1752.81,1246.36 1764.27,1141.21 1775.72,1080.77 1787.18,1079.36 1798.63,1033.44 1810.09,1009.14 1821.55,1000.01 1833,1022.53 1844.46,1096.28 1855.91,1114.96 1867.37,1077.73 1878.83,988.413 1890.28,896.521 1901.74,800.891 1913.19,693.322 1924.65,632.326 1936.1,551.22 1947.56,490.576 1959.02,486.119 1970.47,391.091 1981.93,292.388 1993.38,262.987 2004.84,173.954 2016.3,126.929 2027.75,127.006 2039.21,129.746 2050.66,183.143 2062.12,191.759 2073.58,156.395 2085.03,149.907 2096.49,115.467 2107.94,131.507 2119.4,134.473 2130.86,144.471 2142.31,144.847 2153.77,166.208 2165.22,227.054 2176.68,295.828 2188.13,303.331 2199.59,381.523 2211.05,393.496 2222.5,449.489 2233.96,462.15 2245.41,480.648 2256.87,547.181 2268.33,566.976 2279.78,553.989 2291.24,593.406 2302.69,640.539 2314.15,667.332 2325.61,704.142 "/>
<polyline clip-path="url(#clip013)" style="stroke:#3da44d; stroke-linecap:round; stroke-linejoin:round; stroke-width:4; stroke-opacity:1; fill:none" points="1420.59,907.043 1432.04,738.24 1443.5,728.889 1454.96,636.887 1466.41,547.044 1477.87,677.774 1489.32,826.555 1500.78,812.045 1512.24,720.661 1523.69,785.491 1535.15,767.324 1546.6,854.544 1558.06,938.475 1569.52,883.805 1580.97,920.781 1592.43,1063.55 1603.88,1198.79 1615.34,1112.32 1626.8,1117.95 1638.25,1103.57 1649.71,1141.21 1661.16,1146.24 1672.62,1252.12 1684.07,1325.31 1695.53,1314.69 1706.99,1441.48 1718.44,1407.05 1729.9,1331.53 1741.35,1312.37 1752.81,1241.3 1764.27,1147.13 1775.72,1083.92 1787.18,1130.1 1798.63,1124.27 1810.09,1174.06 1821.55,1204.77 1833,1202.33 1844.46,1261.33 1855.91,1140.64 1867.37,1086.41 1878.83,1005.6 1890.28,930.776 1901.74,905.99 1913.19,756.456 1924.65,745.291 1936.1,703.334 1947.56,568.235 1959.02,663.711 1970.47,620.846 1981.93,485.526 1993.38,367.001 2004.84,180.79 2016.3,185.279 2027.75,165.164 2039.21,177.915 2050.66,87.9763 2062.12,358.914 2073.58,225.642 2085.03,261.451 2096.49,210.052 2107.94,228.481 2119.4,187.923 2130.86,243.292 2142.31,175.844 2153.77,223.001 2165.22,290.74 2176.68,299.742 2188.13,324.497 2199.59,318.063 2211.05,230.044 2222.5,365.441 2233.96,337.739 2245.41,423.627 2256.87,615.504 2268.33,560.881 2279.78,427.016 2291.24,431.604 2302.69,485.683 2314.15,429.788 2325.61,652.082 "/>
<path clip-path="url(#clip010)" d="M1425.42 302.578 L1883.01 302.578 L1883.01 95.2176 L1425.42 95.2176  Z" fill="#ffffff" fill-rule="evenodd" fill-opacity="1"/>
<polyline clip-path="url(#clip010)" style="stroke:#000000; stroke-linecap:round; stroke-linejoin:round; stroke-width:4; stroke-opacity:1; fill:none" points="1425.42,302.578 1883.01,302.578 1883.01,95.2176 1425.42,95.2176 1425.42,302.578 "/>
<polyline clip-path="url(#clip010)" style="stroke:#009af9; stroke-linecap:round; stroke-linejoin:round; stroke-width:4; stroke-opacity:1; fill:none" points="1436.07,147.058 1500.03,147.058 "/>
<path clip-path="url(#clip010)" d="M1510.69 129.778 L1515.36 129.778 L1515.36 144.384 L1530.87 129.778 L1536.89 129.778 L1519.74 145.889 L1538.12 164.338 L1531.96 164.338 L1515.36 147.694 L1515.36 164.338 L1510.69 164.338 L1510.69 129.778 Z" fill="#000000" fill-rule="nonzero" fill-opacity="1" /><path clip-path="url(#clip010)" d="M1552.54 151.305 Q1547.38 151.305 1545.39 152.486 Q1543.4 153.666 1543.4 156.514 Q1543.4 158.782 1544.88 160.125 Q1546.38 161.444 1548.95 161.444 Q1552.49 161.444 1554.62 158.944 Q1556.78 156.421 1556.78 152.254 L1556.78 151.305 L1552.54 151.305 M1561.04 149.546 L1561.04 164.338 L1556.78 164.338 L1556.78 160.402 Q1555.32 162.763 1553.14 163.898 Q1550.97 165.009 1547.82 165.009 Q1543.84 165.009 1541.48 162.787 Q1539.14 160.541 1539.14 156.791 Q1539.14 152.416 1542.05 150.194 Q1544.99 147.972 1550.8 147.972 L1556.78 147.972 L1556.78 147.555 Q1556.78 144.615 1554.83 143.018 Q1552.91 141.398 1549.41 141.398 Q1547.19 141.398 1545.09 141.93 Q1542.98 142.463 1541.04 143.527 L1541.04 139.592 Q1543.37 138.69 1545.57 138.25 Q1547.77 137.787 1549.85 137.787 Q1555.48 137.787 1558.26 140.703 Q1561.04 143.62 1561.04 149.546 Z" fill="#000000" fill-rule="nonzero" fill-opacity="1" /><path clip-path="url(#clip010)" d="M1569.81 128.319 L1574.07 128.319 L1574.07 164.338 L1569.81 164.338 L1569.81 128.319 Z" fill="#000000" fill-rule="nonzero" fill-opacity="1" /><path clip-path="url(#clip010)" d="M1603.16 143.389 Q1604.76 140.518 1606.98 139.153 Q1609.21 137.787 1612.22 137.787 Q1616.27 137.787 1618.47 140.634 Q1620.66 143.458 1620.66 148.689 L1620.66 164.338 L1616.38 164.338 L1616.38 148.828 Q1616.38 145.102 1615.06 143.296 Q1613.74 141.49 1611.03 141.49 Q1607.72 141.49 1605.8 143.69 Q1603.88 145.889 1603.88 149.685 L1603.88 164.338 L1599.6 164.338 L1599.6 148.828 Q1599.6 145.078 1598.28 143.296 Q1596.96 141.49 1594.21 141.49 Q1590.94 141.49 1589.02 143.713 Q1587.1 145.912 1587.1 149.685 L1587.1 164.338 L1582.82 164.338 L1582.82 138.412 L1587.1 138.412 L1587.1 142.44 Q1588.56 140.055 1590.6 138.921 Q1592.63 137.787 1595.43 137.787 Q1598.26 137.787 1600.22 139.222 Q1602.22 140.657 1603.16 143.389 Z" fill="#000000" fill-rule="nonzero" fill-opacity="1" /><path clip-path="url(#clip010)" d="M1640.94 151.305 Q1635.78 151.305 1633.79 152.486 Q1631.8 153.666 1631.8 156.514 Q1631.8 158.782 1633.28 160.125 Q1634.78 161.444 1637.35 161.444 Q1640.9 161.444 1643.03 158.944 Q1645.18 156.421 1645.18 152.254 L1645.18 151.305 L1640.94 151.305 M1649.44 149.546 L1649.44 164.338 L1645.18 164.338 L1645.18 160.402 Q1643.72 162.763 1641.54 163.898 Q1639.37 165.009 1636.22 165.009 Q1632.24 165.009 1629.88 162.787 Q1627.54 160.541 1627.54 156.791 Q1627.54 152.416 1630.46 150.194 Q1633.4 147.972 1639.21 147.972 L1645.18 147.972 L1645.18 147.555 Q1645.18 144.615 1643.23 143.018 Q1641.31 141.398 1637.82 141.398 Q1635.59 141.398 1633.49 141.93 Q1631.38 142.463 1629.44 143.527 L1629.44 139.592 Q1631.78 138.69 1633.97 138.25 Q1636.17 137.787 1638.26 137.787 Q1643.88 137.787 1646.66 140.703 Q1649.44 143.62 1649.44 149.546 Z" fill="#000000" fill-rule="nonzero" fill-opacity="1" /><path clip-path="url(#clip010)" d="M1679.76 148.689 L1679.76 164.338 L1675.5 164.338 L1675.5 148.828 Q1675.5 145.148 1674.07 143.319 Q1672.63 141.49 1669.76 141.49 Q1666.31 141.49 1664.32 143.69 Q1662.33 145.889 1662.33 149.685 L1662.33 164.338 L1658.05 164.338 L1658.05 138.412 L1662.33 138.412 L1662.33 142.44 Q1663.86 140.102 1665.92 138.944 Q1668 137.787 1670.71 137.787 Q1675.18 137.787 1677.47 140.565 Q1679.76 143.319 1679.76 148.689 Z" fill="#000000" fill-rule="nonzero" fill-opacity="1" /><path clip-path="url(#clip010)" d="M1719.85 139.176 L1719.85 143.203 Q1718.05 142.277 1716.1 141.815 Q1714.16 141.352 1712.08 141.352 Q1708.9 141.352 1707.31 142.324 Q1705.73 143.296 1705.73 145.24 Q1705.73 146.722 1706.87 147.578 Q1708 148.412 1711.43 149.176 L1712.89 149.5 Q1717.42 150.472 1719.32 152.254 Q1721.24 154.014 1721.24 157.185 Q1721.24 160.796 1718.37 162.902 Q1715.53 165.009 1710.53 165.009 Q1708.44 165.009 1706.17 164.592 Q1703.93 164.199 1701.43 163.388 L1701.43 158.99 Q1703.79 160.217 1706.08 160.842 Q1708.37 161.444 1710.62 161.444 Q1713.63 161.444 1715.25 160.426 Q1716.87 159.384 1716.87 157.509 Q1716.87 155.773 1715.69 154.847 Q1714.53 153.921 1710.57 153.064 L1709.09 152.717 Q1705.13 151.884 1703.37 150.171 Q1701.61 148.435 1701.61 145.426 Q1701.61 141.768 1704.21 139.778 Q1706.8 137.787 1711.57 137.787 Q1713.93 137.787 1716.01 138.134 Q1718.09 138.481 1719.85 139.176 Z" fill="#000000" fill-rule="nonzero" fill-opacity="1" /><path clip-path="url(#clip010)" d="M1748.21 143.389 Q1749.81 140.518 1752.03 139.153 Q1754.25 137.787 1757.26 137.787 Q1761.31 137.787 1763.51 140.634 Q1765.71 143.458 1765.71 148.689 L1765.71 164.338 L1761.43 164.338 L1761.43 148.828 Q1761.43 145.102 1760.11 143.296 Q1758.79 141.49 1756.08 141.49 Q1752.77 141.49 1750.85 143.69 Q1748.93 145.889 1748.93 149.685 L1748.93 164.338 L1744.65 164.338 L1744.65 148.828 Q1744.65 145.078 1743.33 143.296 Q1742.01 141.49 1739.25 141.49 Q1735.99 141.49 1734.07 143.713 Q1732.15 145.912 1732.15 149.685 L1732.15 164.338 L1727.86 164.338 L1727.86 138.412 L1732.15 138.412 L1732.15 142.44 Q1733.6 140.055 1735.64 138.921 Q1737.68 137.787 1740.48 137.787 Q1743.3 137.787 1745.27 139.222 Q1747.26 140.657 1748.21 143.389 Z" fill="#000000" fill-rule="nonzero" fill-opacity="1" /><path clip-path="url(#clip010)" d="M1784.25 141.398 Q1780.83 141.398 1778.83 144.083 Q1776.84 146.745 1776.84 151.398 Q1776.84 156.051 1778.81 158.736 Q1780.8 161.398 1784.25 161.398 Q1787.65 161.398 1789.65 158.713 Q1791.64 156.027 1791.64 151.398 Q1791.64 146.791 1789.65 144.106 Q1787.65 141.398 1784.25 141.398 M1784.25 137.787 Q1789.81 137.787 1792.98 141.398 Q1796.15 145.009 1796.15 151.398 Q1796.15 157.764 1792.98 161.398 Q1789.81 165.009 1784.25 165.009 Q1778.67 165.009 1775.5 161.398 Q1772.35 157.764 1772.35 151.398 Q1772.35 145.009 1775.5 141.398 Q1778.67 137.787 1784.25 137.787 Z" fill="#000000" fill-rule="nonzero" fill-opacity="1" /><path clip-path="url(#clip010)" d="M1813.26 141.398 Q1809.83 141.398 1807.84 144.083 Q1805.85 146.745 1805.85 151.398 Q1805.85 156.051 1807.82 158.736 Q1809.81 161.398 1813.26 161.398 Q1816.66 161.398 1818.65 158.713 Q1820.64 156.027 1820.64 151.398 Q1820.64 146.791 1818.65 144.106 Q1816.66 141.398 1813.26 141.398 M1813.26 137.787 Q1818.81 137.787 1821.98 141.398 Q1825.15 145.009 1825.15 151.398 Q1825.15 157.764 1821.98 161.398 Q1818.81 165.009 1813.26 165.009 Q1807.68 165.009 1804.51 161.398 Q1801.36 157.764 1801.36 151.398 Q1801.36 145.009 1804.51 141.398 Q1807.68 137.787 1813.26 137.787 Z" fill="#000000" fill-rule="nonzero" fill-opacity="1" /><path clip-path="url(#clip010)" d="M1836.43 131.051 L1836.43 138.412 L1845.2 138.412 L1845.2 141.722 L1836.43 141.722 L1836.43 155.796 Q1836.43 158.967 1837.28 159.87 Q1838.16 160.773 1840.83 160.773 L1845.2 160.773 L1845.2 164.338 L1840.83 164.338 Q1835.89 164.338 1834.02 162.509 Q1832.14 160.657 1832.14 155.796 L1832.14 141.722 L1829.02 141.722 L1829.02 138.412 L1832.14 138.412 L1832.14 131.051 L1836.43 131.051 Z" fill="#000000" fill-rule="nonzero" fill-opacity="1" /><path clip-path="url(#clip010)" d="M1872.35 148.689 L1872.35 164.338 L1868.09 164.338 L1868.09 148.828 Q1868.09 145.148 1866.66 143.319 Q1865.22 141.49 1862.35 141.49 Q1858.9 141.49 1856.91 143.69 Q1854.92 145.889 1854.92 149.685 L1854.92 164.338 L1850.64 164.338 L1850.64 128.319 L1854.92 128.319 L1854.92 142.44 Q1856.45 140.102 1858.51 138.944 Q1860.59 137.787 1863.3 137.787 Q1867.77 137.787 1870.06 140.565 Q1872.35 143.319 1872.35 148.689 Z" fill="#000000" fill-rule="nonzero" fill-opacity="1" /><polyline clip-path="url(#clip010)" style="stroke:#e26f46; stroke-linecap:round; stroke-linejoin:round; stroke-width:4; stroke-opacity:1; fill:none" points="1436.07,198.898 1500.03,198.898 "/>
<path clip-path="url(#clip010)" d="M1514.97 212.289 L1514.97 226.039 L1510.69 226.039 L1510.69 190.252 L1514.97 190.252 L1514.97 194.187 Q1516.31 191.872 1518.35 190.761 Q1520.41 189.627 1523.26 189.627 Q1527.98 189.627 1530.92 193.377 Q1533.88 197.127 1533.88 203.238 Q1533.88 209.349 1530.92 213.099 Q1527.98 216.849 1523.26 216.849 Q1520.41 216.849 1518.35 215.738 Q1516.31 214.603 1514.97 212.289 M1529.46 203.238 Q1529.46 198.539 1527.52 195.877 Q1525.6 193.192 1522.22 193.192 Q1518.84 193.192 1516.89 195.877 Q1514.97 198.539 1514.97 203.238 Q1514.97 207.937 1516.89 210.622 Q1518.84 213.284 1522.22 213.284 Q1525.6 213.284 1527.52 210.622 Q1529.46 207.937 1529.46 203.238 Z" fill="#000000" fill-rule="nonzero" fill-opacity="1" /><path clip-path="url(#clip010)" d="M1554.07 180.159 L1554.07 183.701 L1549.99 183.701 Q1547.7 183.701 1546.8 184.627 Q1545.92 185.553 1545.92 187.96 L1545.92 190.252 L1552.93 190.252 L1552.93 193.562 L1545.92 193.562 L1545.92 216.178 L1541.64 216.178 L1541.64 193.562 L1537.56 193.562 L1537.56 190.252 L1541.64 190.252 L1541.64 188.446 Q1541.64 184.118 1543.65 182.15 Q1545.66 180.159 1550.04 180.159 L1554.07 180.159 Z" fill="#000000" fill-rule="nonzero" fill-opacity="1" /><path clip-path="url(#clip010)" d="M1589.23 191.016 L1589.23 195.043 Q1587.42 194.117 1585.48 193.655 Q1583.54 193.192 1581.45 193.192 Q1578.28 193.192 1576.68 194.164 Q1575.11 195.136 1575.11 197.08 Q1575.11 198.562 1576.24 199.418 Q1577.38 200.252 1580.8 201.016 L1582.26 201.34 Q1586.8 202.312 1588.7 204.094 Q1590.62 205.854 1590.62 209.025 Q1590.62 212.636 1587.75 214.742 Q1584.9 216.849 1579.9 216.849 Q1577.82 216.849 1575.55 216.432 Q1573.3 216.039 1570.8 215.228 L1570.8 210.83 Q1573.16 212.057 1575.46 212.682 Q1577.75 213.284 1579.99 213.284 Q1583 213.284 1584.62 212.266 Q1586.24 211.224 1586.24 209.349 Q1586.24 207.613 1585.06 206.687 Q1583.91 205.761 1579.95 204.904 L1578.47 204.557 Q1574.51 203.724 1572.75 202.011 Q1570.99 200.275 1570.99 197.266 Q1570.99 193.608 1573.58 191.618 Q1576.17 189.627 1580.94 189.627 Q1583.3 189.627 1585.39 189.974 Q1587.47 190.321 1589.23 191.016 Z" fill="#000000" fill-rule="nonzero" fill-opacity="1" /><path clip-path="url(#clip010)" d="M1617.59 195.229 Q1619.18 192.358 1621.41 190.993 Q1623.63 189.627 1626.64 189.627 Q1630.69 189.627 1632.89 192.474 Q1635.09 195.298 1635.09 200.529 L1635.09 216.178 L1630.8 216.178 L1630.8 200.668 Q1630.8 196.942 1629.48 195.136 Q1628.16 193.33 1625.46 193.33 Q1622.15 193.33 1620.22 195.53 Q1618.3 197.729 1618.3 201.525 L1618.3 216.178 L1614.02 216.178 L1614.02 200.668 Q1614.02 196.918 1612.7 195.136 Q1611.38 193.33 1608.63 193.33 Q1605.36 193.33 1603.44 195.553 Q1601.52 197.752 1601.52 201.525 L1601.52 216.178 L1597.24 216.178 L1597.24 190.252 L1601.52 190.252 L1601.52 194.28 Q1602.98 191.895 1605.02 190.761 Q1607.05 189.627 1609.85 189.627 Q1612.68 189.627 1614.65 191.062 Q1616.64 192.497 1617.59 195.229 Z" fill="#000000" fill-rule="nonzero" fill-opacity="1" /><path clip-path="url(#clip010)" d="M1653.63 193.238 Q1650.2 193.238 1648.21 195.923 Q1646.22 198.585 1646.22 203.238 Q1646.22 207.891 1648.19 210.576 Q1650.18 213.238 1653.63 213.238 Q1657.03 213.238 1659.02 210.553 Q1661.01 207.867 1661.01 203.238 Q1661.01 198.631 1659.02 195.946 Q1657.03 193.238 1653.63 193.238 M1653.63 189.627 Q1659.18 189.627 1662.35 193.238 Q1665.53 196.849 1665.53 203.238 Q1665.53 209.604 1662.35 213.238 Q1659.18 216.849 1653.63 216.849 Q1648.05 216.849 1644.88 213.238 Q1641.73 209.604 1641.73 203.238 Q1641.73 196.849 1644.88 193.238 Q1648.05 189.627 1653.63 189.627 Z" fill="#000000" fill-rule="nonzero" fill-opacity="1" /><path clip-path="url(#clip010)" d="M1682.63 193.238 Q1679.21 193.238 1677.22 195.923 Q1675.22 198.585 1675.22 203.238 Q1675.22 207.891 1677.19 210.576 Q1679.18 213.238 1682.63 213.238 Q1686.03 213.238 1688.03 210.553 Q1690.02 207.867 1690.02 203.238 Q1690.02 198.631 1688.03 195.946 Q1686.03 193.238 1682.63 193.238 M1682.63 189.627 Q1688.19 189.627 1691.36 193.238 Q1694.53 196.849 1694.53 203.238 Q1694.53 209.604 1691.36 213.238 Q1688.19 216.849 1682.63 216.849 Q1677.05 216.849 1673.88 213.238 Q1670.73 209.604 1670.73 203.238 Q1670.73 196.849 1673.88 193.238 Q1677.05 189.627 1682.63 189.627 Z" fill="#000000" fill-rule="nonzero" fill-opacity="1" /><path clip-path="url(#clip010)" d="M1705.8 182.891 L1705.8 190.252 L1714.58 190.252 L1714.58 193.562 L1705.8 193.562 L1705.8 207.636 Q1705.8 210.807 1706.66 211.71 Q1707.54 212.613 1710.2 212.613 L1714.58 212.613 L1714.58 216.178 L1710.2 216.178 Q1705.27 216.178 1703.4 214.349 Q1701.52 212.497 1701.52 207.636 L1701.52 193.562 L1698.4 193.562 L1698.4 190.252 L1701.52 190.252 L1701.52 182.891 L1705.8 182.891 Z" fill="#000000" fill-rule="nonzero" fill-opacity="1" /><path clip-path="url(#clip010)" d="M1741.73 200.529 L1741.73 216.178 L1737.47 216.178 L1737.47 200.668 Q1737.47 196.988 1736.03 195.159 Q1734.6 193.33 1731.73 193.33 Q1728.28 193.33 1726.29 195.53 Q1724.3 197.729 1724.3 201.525 L1724.3 216.178 L1720.02 216.178 L1720.02 180.159 L1724.3 180.159 L1724.3 194.28 Q1725.83 191.942 1727.89 190.784 Q1729.97 189.627 1732.68 189.627 Q1737.15 189.627 1739.44 192.405 Q1741.73 195.159 1741.73 200.529 Z" fill="#000000" fill-rule="nonzero" fill-opacity="1" /><polyline clip-path="url(#clip010)" style="stroke:#3da44d; stroke-linecap:round; stroke-linejoin:round; stroke-width:4; stroke-opacity:1; fill:none" points="1436.07,250.738 1500.03,250.738 "/>
<path clip-path="url(#clip010)" d="M1518.1 234.731 L1518.1 242.092 L1526.87 242.092 L1526.87 245.402 L1518.1 245.402 L1518.1 259.476 Q1518.1 262.647 1518.95 263.55 Q1519.83 264.453 1522.49 264.453 L1526.87 264.453 L1526.87 268.018 L1522.49 268.018 Q1517.56 268.018 1515.69 266.189 Q1513.81 264.337 1513.81 259.476 L1513.81 245.402 L1510.69 245.402 L1510.69 242.092 L1513.81 242.092 L1513.81 234.731 L1518.1 234.731 Z" fill="#000000" fill-rule="nonzero" fill-opacity="1" /><path clip-path="url(#clip010)" d="M1547.49 246.073 Q1546.78 245.657 1545.92 245.471 Q1545.09 245.263 1544.07 245.263 Q1540.46 245.263 1538.51 247.624 Q1536.59 249.962 1536.59 254.36 L1536.59 268.018 L1532.31 268.018 L1532.31 242.092 L1536.59 242.092 L1536.59 246.12 Q1537.93 243.758 1540.09 242.624 Q1542.24 241.467 1545.32 241.467 Q1545.76 241.467 1546.29 241.536 Q1546.82 241.583 1547.47 241.698 L1547.49 246.073 Z" fill="#000000" fill-rule="nonzero" fill-opacity="1" /><path clip-path="url(#clip010)" d="M1551.52 257.786 L1551.52 242.092 L1555.78 242.092 L1555.78 257.624 Q1555.78 261.305 1557.22 263.156 Q1558.65 264.985 1561.52 264.985 Q1564.97 264.985 1566.96 262.786 Q1568.97 260.587 1568.97 256.791 L1568.97 242.092 L1573.23 242.092 L1573.23 268.018 L1568.97 268.018 L1568.97 264.036 Q1567.42 266.397 1565.36 267.555 Q1563.33 268.689 1560.62 268.689 Q1556.15 268.689 1553.84 265.911 Q1551.52 263.133 1551.52 257.786 M1562.24 241.467 L1562.24 241.467 Z" fill="#000000" fill-rule="nonzero" fill-opacity="1" /><path clip-path="url(#clip010)" d="M1604.18 253.99 L1604.18 256.073 L1584.6 256.073 Q1584.88 260.471 1587.24 262.786 Q1589.62 265.078 1593.86 265.078 Q1596.31 265.078 1598.6 264.476 Q1600.92 263.874 1603.19 262.67 L1603.19 266.698 Q1600.9 267.67 1598.49 268.18 Q1596.08 268.689 1593.6 268.689 Q1587.4 268.689 1583.77 265.078 Q1580.16 261.467 1580.16 255.309 Q1580.16 248.944 1583.58 245.217 Q1587.03 241.467 1592.86 241.467 Q1598.1 241.467 1601.13 244.846 Q1604.18 248.203 1604.18 253.99 M1599.92 252.74 Q1599.88 249.245 1597.96 247.161 Q1596.06 245.078 1592.91 245.078 Q1589.35 245.078 1587.19 247.092 Q1585.06 249.106 1584.74 252.763 L1599.92 252.74 Z" fill="#000000" fill-rule="nonzero" fill-opacity="1" /></svg>
