<?xml version="1.0" encoding="utf-8"?>
<svg xmlns="http://www.w3.org/2000/svg" xmlns:xlink="http://www.w3.org/1999/xlink" width="600" height="400" viewBox="0 0 2400 1600">
<defs>
  <clipPath id="clip280">
    <rect x="0" y="0" width="2400" height="1600"/>
  </clipPath>
</defs>
<path clip-path="url(#clip280)" d="M0 1600 L2400 1600 L2400 0 L0 0  Z" fill="#ffffff" fill-rule="evenodd" fill-opacity="1"/>
<defs>
  <clipPath id="clip281">
    <rect x="480" y="0" width="1681" height="1600"/>
  </clipPath>
</defs>
<path clip-path="url(#clip280)" d="M193.936 1486.45 L2352.76 1486.45 L2352.76 47.2441 L193.936 47.2441  Z" fill="#ffffff" fill-rule="evenodd" fill-opacity="1"/>
<defs>
  <clipPath id="clip282">
    <rect x="193" y="47" width="2160" height="1440"/>
  </clipPath>
</defs>
<polyline clip-path="url(#clip282)" style="stroke:#000000; stroke-linecap:round; stroke-linejoin:round; stroke-width:2; stroke-opacity:0.1; fill:none" points="229.255,1486.45 229.255,47.2441 "/>
<polyline clip-path="url(#clip282)" style="stroke:#000000; stroke-linecap:round; stroke-linejoin:round; stroke-width:2; stroke-opacity:0.1; fill:none" points="744.855,1486.45 744.855,47.2441 "/>
<polyline clip-path="url(#clip282)" style="stroke:#000000; stroke-linecap:round; stroke-linejoin:round; stroke-width:2; stroke-opacity:0.1; fill:none" points="1260.46,1486.45 1260.46,47.2441 "/>
<polyline clip-path="url(#clip282)" style="stroke:#000000; stroke-linecap:round; stroke-linejoin:round; stroke-width:2; stroke-opacity:0.1; fill:none" points="1776.06,1486.45 1776.06,47.2441 "/>
<polyline clip-path="url(#clip282)" style="stroke:#000000; stroke-linecap:round; stroke-linejoin:round; stroke-width:2; stroke-opacity:0.1; fill:none" points="2291.66,1486.45 2291.66,47.2441 "/>
<polyline clip-path="url(#clip282)" style="stroke:#000000; stroke-linecap:round; stroke-linejoin:round; stroke-width:2; stroke-opacity:0.1; fill:none" points="193.936,1438.63 2352.76,1438.63 "/>
<polyline clip-path="url(#clip282)" style="stroke:#000000; stroke-linecap:round; stroke-linejoin:round; stroke-width:2; stroke-opacity:0.1; fill:none" points="193.936,1150.1 2352.76,1150.1 "/>
<polyline clip-path="url(#clip282)" style="stroke:#000000; stroke-linecap:round; stroke-linejoin:round; stroke-width:2; stroke-opacity:0.1; fill:none" points="193.936,861.566 2352.76,861.566 "/>
<polyline clip-path="url(#clip282)" style="stroke:#000000; stroke-linecap:round; stroke-linejoin:round; stroke-width:2; stroke-opacity:0.1; fill:none" points="193.936,573.035 2352.76,573.035 "/>
<polyline clip-path="url(#clip282)" style="stroke:#000000; stroke-linecap:round; stroke-linejoin:round; stroke-width:2; stroke-opacity:0.1; fill:none" points="193.936,284.504 2352.76,284.504 "/>
<polyline clip-path="url(#clip280)" style="stroke:#000000; stroke-linecap:round; stroke-linejoin:round; stroke-width:4; stroke-opacity:1; fill:none" points="193.936,1486.45 2352.76,1486.45 "/>
<polyline clip-path="url(#clip280)" style="stroke:#000000; stroke-linecap:round; stroke-linejoin:round; stroke-width:4; stroke-opacity:1; fill:none" points="229.255,1486.45 229.255,1467.55 "/>
<polyline clip-path="url(#clip280)" style="stroke:#000000; stroke-linecap:round; stroke-linejoin:round; stroke-width:4; stroke-opacity:1; fill:none" points="744.855,1486.45 744.855,1467.55 "/>
<polyline clip-path="url(#clip280)" style="stroke:#000000; stroke-linecap:round; stroke-linejoin:round; stroke-width:4; stroke-opacity:1; fill:none" points="1260.46,1486.45 1260.46,1467.55 "/>
<polyline clip-path="url(#clip280)" style="stroke:#000000; stroke-linecap:round; stroke-linejoin:round; stroke-width:4; stroke-opacity:1; fill:none" points="1776.06,1486.45 1776.06,1467.55 "/>
<polyline clip-path="url(#clip280)" style="stroke:#000000; stroke-linecap:round; stroke-linejoin:round; stroke-width:4; stroke-opacity:1; fill:none" points="2291.66,1486.45 2291.66,1467.55 "/>
<path clip-path="url(#clip280)" d="M229.255 1517.37 Q225.644 1517.37 223.815 1520.93 Q222.009 1524.47 222.009 1531.6 Q222.009 1538.71 223.815 1542.27 Q225.644 1545.82 229.255 1545.82 Q232.889 1545.82 234.694 1542.27 Q236.523 1538.71 236.523 1531.6 Q236.523 1524.47 234.694 1520.93 Q232.889 1517.37 229.255 1517.37 M229.255 1513.66 Q235.065 1513.66 238.12 1518.27 Q241.199 1522.85 241.199 1531.6 Q241.199 1540.33 238.12 1544.94 Q235.065 1549.52 229.255 1549.52 Q223.444 1549.52 220.366 1544.94 Q217.31 1540.33 217.31 1531.6 Q217.31 1522.85 220.366 1518.27 Q223.444 1513.66 229.255 1513.66 Z" fill="#000000" fill-rule="nonzero" fill-opacity="1" /><path clip-path="url(#clip280)" d="M723.629 1544.91 L739.948 1544.91 L739.948 1548.85 L718.004 1548.85 L718.004 1544.91 Q720.666 1542.16 725.249 1537.53 Q729.855 1532.88 731.036 1531.53 Q733.281 1529.01 734.161 1527.27 Q735.064 1525.51 735.064 1523.82 Q735.064 1521.07 733.119 1519.33 Q731.198 1517.6 728.096 1517.6 Q725.897 1517.6 723.443 1518.36 Q721.013 1519.13 718.235 1520.68 L718.235 1515.95 Q721.059 1514.82 723.513 1514.24 Q725.967 1513.66 728.004 1513.66 Q733.374 1513.66 736.568 1516.35 Q739.763 1519.03 739.763 1523.52 Q739.763 1525.65 738.953 1527.57 Q738.166 1529.47 736.059 1532.07 Q735.48 1532.74 732.379 1535.95 Q729.277 1539.15 723.629 1544.91 Z" fill="#000000" fill-rule="nonzero" fill-opacity="1" /><path clip-path="url(#clip280)" d="M759.763 1517.37 Q756.152 1517.37 754.323 1520.93 Q752.517 1524.47 752.517 1531.6 Q752.517 1538.71 754.323 1542.27 Q756.152 1545.82 759.763 1545.82 Q763.397 1545.82 765.202 1542.27 Q767.031 1538.71 767.031 1531.6 Q767.031 1524.47 765.202 1520.93 Q763.397 1517.37 759.763 1517.37 M759.763 1513.66 Q765.573 1513.66 768.628 1518.27 Q771.707 1522.85 771.707 1531.6 Q771.707 1540.33 768.628 1544.94 Q765.573 1549.52 759.763 1549.52 Q753.952 1549.52 750.874 1544.94 Q747.818 1540.33 747.818 1531.6 Q747.818 1522.85 750.874 1518.27 Q753.952 1513.66 759.763 1513.66 Z" fill="#000000" fill-rule="nonzero" fill-opacity="1" /><path clip-path="url(#clip280)" d="M1248.63 1518.36 L1236.82 1536.81 L1248.63 1536.81 L1248.63 1518.36 M1247.4 1514.29 L1253.28 1514.29 L1253.28 1536.81 L1258.21 1536.81 L1258.21 1540.7 L1253.28 1540.7 L1253.28 1548.85 L1248.63 1548.85 L1248.63 1540.7 L1233.03 1540.7 L1233.03 1536.19 L1247.4 1514.29 Z" fill="#000000" fill-rule="nonzero" fill-opacity="1" /><path clip-path="url(#clip280)" d="M1275.94 1517.37 Q1272.33 1517.37 1270.5 1520.93 Q1268.7 1524.47 1268.7 1531.6 Q1268.7 1538.71 1270.5 1542.27 Q1272.33 1545.82 1275.94 1545.82 Q1279.58 1545.82 1281.38 1542.27 Q1283.21 1538.71 1283.21 1531.6 Q1283.21 1524.47 1281.38 1520.93 Q1279.58 1517.37 1275.94 1517.37 M1275.94 1513.66 Q1281.75 1513.66 1284.81 1518.27 Q1287.89 1522.85 1287.89 1531.6 Q1287.89 1540.33 1284.81 1544.94 Q1281.75 1549.52 1275.94 1549.52 Q1270.13 1549.52 1267.05 1544.94 Q1264 1540.33 1264 1531.6 Q1264 1522.85 1267.05 1518.27 Q1270.13 1513.66 1275.94 1513.66 Z" fill="#000000" fill-rule="nonzero" fill-opacity="1" /><path clip-path="url(#clip280)" d="M1761.46 1529.7 Q1758.31 1529.7 1756.46 1531.86 Q1754.63 1534.01 1754.63 1537.76 Q1754.63 1541.49 1756.46 1543.66 Q1758.31 1545.82 1761.46 1545.82 Q1764.61 1545.82 1766.44 1543.66 Q1768.29 1541.49 1768.29 1537.76 Q1768.29 1534.01 1766.44 1531.86 Q1764.61 1529.7 1761.46 1529.7 M1770.74 1515.05 L1770.74 1519.31 Q1768.98 1518.48 1767.18 1518.04 Q1765.4 1517.6 1763.64 1517.6 Q1759.01 1517.6 1756.55 1520.72 Q1754.12 1523.85 1753.78 1530.17 Q1755.14 1528.15 1757.2 1527.09 Q1759.26 1526 1761.74 1526 Q1766.95 1526 1769.96 1529.17 Q1772.99 1532.32 1772.99 1537.76 Q1772.99 1543.08 1769.84 1546.3 Q1766.69 1549.52 1761.46 1549.52 Q1755.47 1549.52 1752.3 1544.94 Q1749.12 1540.33 1749.12 1531.6 Q1749.12 1523.41 1753.01 1518.55 Q1756.9 1513.66 1763.45 1513.66 Q1765.21 1513.66 1766.99 1514.01 Q1768.8 1514.36 1770.74 1515.05 Z" fill="#000000" fill-rule="nonzero" fill-opacity="1" /><path clip-path="url(#clip280)" d="M1791.04 1517.37 Q1787.43 1517.37 1785.61 1520.93 Q1783.8 1524.47 1783.8 1531.6 Q1783.8 1538.71 1785.61 1542.27 Q1787.43 1545.82 1791.04 1545.82 Q1794.68 1545.82 1796.48 1542.27 Q1798.31 1538.71 1798.31 1531.6 Q1798.31 1524.47 1796.48 1520.93 Q1794.68 1517.37 1791.04 1517.37 M1791.04 1513.66 Q1796.86 1513.66 1799.91 1518.27 Q1802.99 1522.85 1802.99 1531.6 Q1802.99 1540.33 1799.91 1544.94 Q1796.86 1549.52 1791.04 1549.52 Q1785.23 1549.52 1782.16 1544.94 Q1779.1 1540.33 1779.1 1531.6 Q1779.1 1522.85 1782.16 1518.27 Q1785.23 1513.66 1791.04 1513.66 Z" fill="#000000" fill-rule="nonzero" fill-opacity="1" /><path clip-path="url(#clip280)" d="M2276.53 1532.44 Q2273.2 1532.44 2271.28 1534.22 Q2269.38 1536 2269.38 1539.13 Q2269.38 1542.25 2271.28 1544.03 Q2273.2 1545.82 2276.53 1545.82 Q2279.86 1545.82 2281.78 1544.03 Q2283.71 1542.23 2283.71 1539.13 Q2283.71 1536 2281.78 1534.22 Q2279.89 1532.44 2276.53 1532.44 M2271.85 1530.45 Q2268.84 1529.7 2267.16 1527.64 Q2265.49 1525.58 2265.49 1522.62 Q2265.49 1518.48 2268.43 1516.07 Q2271.39 1513.66 2276.53 1513.66 Q2281.69 1513.66 2284.63 1516.07 Q2287.57 1518.48 2287.57 1522.62 Q2287.57 1525.58 2285.88 1527.64 Q2284.22 1529.7 2281.23 1530.45 Q2284.61 1531.23 2286.48 1533.52 Q2288.38 1535.82 2288.38 1539.13 Q2288.38 1544.15 2285.3 1546.83 Q2282.25 1549.52 2276.53 1549.52 Q2270.81 1549.52 2267.73 1546.83 Q2264.68 1544.15 2264.68 1539.13 Q2264.68 1535.82 2266.58 1533.52 Q2268.47 1531.23 2271.85 1530.45 M2270.14 1523.06 Q2270.14 1525.75 2271.81 1527.25 Q2273.5 1528.76 2276.53 1528.76 Q2279.54 1528.76 2281.23 1527.25 Q2282.94 1525.75 2282.94 1523.06 Q2282.94 1520.38 2281.23 1518.87 Q2279.54 1517.37 2276.53 1517.37 Q2273.5 1517.37 2271.81 1518.87 Q2270.14 1520.38 2270.14 1523.06 Z" fill="#000000" fill-rule="nonzero" fill-opacity="1" /><path clip-path="url(#clip280)" d="M2306.69 1517.37 Q2303.08 1517.37 2301.25 1520.93 Q2299.45 1524.47 2299.45 1531.6 Q2299.45 1538.71 2301.25 1542.27 Q2303.08 1545.82 2306.69 1545.82 Q2310.33 1545.82 2312.13 1542.27 Q2313.96 1538.71 2313.96 1531.6 Q2313.96 1524.47 2312.13 1520.93 Q2310.33 1517.37 2306.69 1517.37 M2306.69 1513.66 Q2312.5 1513.66 2315.56 1518.27 Q2318.64 1522.85 2318.64 1531.6 Q2318.64 1540.33 2315.56 1544.94 Q2312.5 1549.52 2306.69 1549.52 Q2300.88 1549.52 2297.8 1544.94 Q2294.75 1540.33 2294.75 1531.6 Q2294.75 1522.85 2297.8 1518.27 Q2300.88 1513.66 2306.69 1513.66 Z" fill="#000000" fill-rule="nonzero" fill-opacity="1" /><polyline clip-path="url(#clip280)" style="stroke:#000000; stroke-linecap:round; stroke-linejoin:round; stroke-width:4; stroke-opacity:1; fill:none" points="193.936,1486.45 193.936,47.2441 "/>
<polyline clip-path="url(#clip280)" style="stroke:#000000; stroke-linecap:round; stroke-linejoin:round; stroke-width:4; stroke-opacity:1; fill:none" points="193.936,1438.63 212.834,1438.63 "/>
<polyline clip-path="url(#clip280)" style="stroke:#000000; stroke-linecap:round; stroke-linejoin:round; stroke-width:4; stroke-opacity:1; fill:none" points="193.936,1150.1 212.834,1150.1 "/>
<polyline clip-path="url(#clip280)" style="stroke:#000000; stroke-linecap:round; stroke-linejoin:round; stroke-width:4; stroke-opacity:1; fill:none" points="193.936,861.566 212.834,861.566 "/>
<polyline clip-path="url(#clip280)" style="stroke:#000000; stroke-linecap:round; stroke-linejoin:round; stroke-width:4; stroke-opacity:1; fill:none" points="193.936,573.035 212.834,573.035 "/>
<polyline clip-path="url(#clip280)" style="stroke:#000000; stroke-linecap:round; stroke-linejoin:round; stroke-width:4; stroke-opacity:1; fill:none" points="193.936,284.504 212.834,284.504 "/>
<path clip-path="url(#clip280)" d="M50.9921 1439.08 L80.6679 1439.08 L80.6679 1443.01 L50.9921 1443.01 L50.9921 1439.08 Z" fill="#000000" fill-rule="nonzero" fill-opacity="1" /><path clip-path="url(#clip280)" d="M91.5706 1451.97 L99.2095 1451.97 L99.2095 1425.61 L90.8993 1427.27 L90.8993 1423.01 L99.1632 1421.35 L103.839 1421.35 L103.839 1451.97 L111.478 1451.97 L111.478 1455.91 L91.5706 1455.91 L91.5706 1451.97 Z" fill="#000000" fill-rule="nonzero" fill-opacity="1" /><path clip-path="url(#clip280)" d="M120.922 1450.03 L125.807 1450.03 L125.807 1455.91 L120.922 1455.91 L120.922 1450.03 Z" fill="#000000" fill-rule="nonzero" fill-opacity="1" /><path clip-path="url(#clip280)" d="M145.992 1424.43 Q142.381 1424.43 140.552 1427.99 Q138.746 1431.53 138.746 1438.66 Q138.746 1445.77 140.552 1449.33 Q142.381 1452.88 145.992 1452.88 Q149.626 1452.88 151.431 1449.33 Q153.26 1445.77 153.26 1438.66 Q153.26 1431.53 151.431 1427.99 Q149.626 1424.43 145.992 1424.43 M145.992 1420.72 Q151.802 1420.72 154.857 1425.33 Q157.936 1429.91 157.936 1438.66 Q157.936 1447.39 154.857 1452 Q151.802 1456.58 145.992 1456.58 Q140.181 1456.58 137.103 1452 Q134.047 1447.39 134.047 1438.66 Q134.047 1429.91 137.103 1425.33 Q140.181 1420.72 145.992 1420.72 Z" fill="#000000" fill-rule="nonzero" fill-opacity="1" /><path clip-path="url(#clip280)" d="M51.9875 1150.55 L81.6633 1150.55 L81.6633 1154.48 L51.9875 1154.48 L51.9875 1150.55 Z" fill="#000000" fill-rule="nonzero" fill-opacity="1" /><path clip-path="url(#clip280)" d="M101.756 1135.9 Q98.1447 1135.9 96.316 1139.46 Q94.5104 1143 94.5104 1150.13 Q94.5104 1157.24 96.316 1160.8 Q98.1447 1164.34 101.756 1164.34 Q105.39 1164.34 107.196 1160.8 Q109.024 1157.24 109.024 1150.13 Q109.024 1143 107.196 1139.46 Q105.39 1135.9 101.756 1135.9 M101.756 1132.19 Q107.566 1132.19 110.621 1136.8 Q113.7 1141.38 113.7 1150.13 Q113.7 1158.86 110.621 1163.47 Q107.566 1168.05 101.756 1168.05 Q95.9456 1168.05 92.8669 1163.47 Q89.8114 1158.86 89.8114 1150.13 Q89.8114 1141.38 92.8669 1136.8 Q95.9456 1132.19 101.756 1132.19 Z" fill="#000000" fill-rule="nonzero" fill-opacity="1" /><path clip-path="url(#clip280)" d="M121.918 1161.5 L126.802 1161.5 L126.802 1167.38 L121.918 1167.38 L121.918 1161.5 Z" fill="#000000" fill-rule="nonzero" fill-opacity="1" /><path clip-path="url(#clip280)" d="M137.033 1132.82 L155.39 1132.82 L155.39 1136.75 L141.316 1136.75 L141.316 1145.22 Q142.334 1144.88 143.353 1144.72 Q144.371 1144.53 145.39 1144.53 Q151.177 1144.53 154.556 1147.7 Q157.936 1150.87 157.936 1156.29 Q157.936 1161.87 154.464 1164.97 Q150.992 1168.05 144.672 1168.05 Q142.496 1168.05 140.228 1167.68 Q137.982 1167.31 135.575 1166.57 L135.575 1161.87 Q137.658 1163 139.881 1163.56 Q142.103 1164.11 144.58 1164.11 Q148.584 1164.11 150.922 1162.01 Q153.26 1159.9 153.26 1156.29 Q153.26 1152.68 150.922 1150.57 Q148.584 1148.47 144.58 1148.47 Q142.705 1148.47 140.83 1148.88 Q138.978 1149.3 137.033 1150.18 L137.033 1132.82 Z" fill="#000000" fill-rule="nonzero" fill-opacity="1" /><path clip-path="url(#clip280)" d="M100.76 847.365 Q97.1493 847.365 95.3206 850.93 Q93.515 854.471 93.515 861.601 Q93.515 868.707 95.3206 872.272 Q97.1493 875.814 100.76 875.814 Q104.395 875.814 106.2 872.272 Q108.029 868.707 108.029 861.601 Q108.029 854.471 106.2 850.93 Q104.395 847.365 100.76 847.365 M100.76 843.661 Q106.571 843.661 109.626 848.268 Q112.705 852.851 112.705 861.601 Q112.705 870.328 109.626 874.934 Q106.571 879.517 100.76 879.517 Q94.9502 879.517 91.8715 874.934 Q88.816 870.328 88.816 861.601 Q88.816 852.851 91.8715 848.268 Q94.9502 843.661 100.76 843.661 Z" fill="#000000" fill-rule="nonzero" fill-opacity="1" /><path clip-path="url(#clip280)" d="M120.922 872.967 L125.807 872.967 L125.807 878.846 L120.922 878.846 L120.922 872.967 Z" fill="#000000" fill-rule="nonzero" fill-opacity="1" /><path clip-path="url(#clip280)" d="M145.992 847.365 Q142.381 847.365 140.552 850.93 Q138.746 854.471 138.746 861.601 Q138.746 868.707 140.552 872.272 Q142.381 875.814 145.992 875.814 Q149.626 875.814 151.431 872.272 Q153.26 868.707 153.26 861.601 Q153.26 854.471 151.431 850.93 Q149.626 847.365 145.992 847.365 M145.992 843.661 Q151.802 843.661 154.857 848.268 Q157.936 852.851 157.936 861.601 Q157.936 870.328 154.857 874.934 Q151.802 879.517 145.992 879.517 Q140.181 879.517 137.103 874.934 Q134.047 870.328 134.047 861.601 Q134.047 852.851 137.103 848.268 Q140.181 843.661 145.992 843.661 Z" fill="#000000" fill-rule="nonzero" fill-opacity="1" /><path clip-path="url(#clip280)" d="M101.756 558.834 Q98.1447 558.834 96.316 562.399 Q94.5104 565.94 94.5104 573.07 Q94.5104 580.176 96.316 583.741 Q98.1447 587.283 101.756 587.283 Q105.39 587.283 107.196 583.741 Q109.024 580.176 109.024 573.07 Q109.024 565.94 107.196 562.399 Q105.39 558.834 101.756 558.834 M101.756 555.13 Q107.566 555.13 110.621 559.737 Q113.7 564.32 113.7 573.07 Q113.7 581.797 110.621 586.403 Q107.566 590.986 101.756 590.986 Q95.9456 590.986 92.8669 586.403 Q89.8114 581.797 89.8114 573.07 Q89.8114 564.32 92.8669 559.737 Q95.9456 555.13 101.756 555.13 Z" fill="#000000" fill-rule="nonzero" fill-opacity="1" /><path clip-path="url(#clip280)" d="M121.918 584.436 L126.802 584.436 L126.802 590.315 L121.918 590.315 L121.918 584.436 Z" fill="#000000" fill-rule="nonzero" fill-opacity="1" /><path clip-path="url(#clip280)" d="M137.033 555.755 L155.39 555.755 L155.39 559.69 L141.316 559.69 L141.316 568.163 Q142.334 567.815 143.353 567.653 Q144.371 567.468 145.39 567.468 Q151.177 567.468 154.556 570.639 Q157.936 573.811 157.936 579.227 Q157.936 584.806 154.464 587.908 Q150.992 590.986 144.672 590.986 Q142.496 590.986 140.228 590.616 Q137.982 590.246 135.575 589.505 L135.575 584.806 Q137.658 585.94 139.881 586.496 Q142.103 587.051 144.58 587.051 Q148.584 587.051 150.922 584.945 Q153.26 582.838 153.26 579.227 Q153.26 575.616 150.922 573.51 Q148.584 571.403 144.58 571.403 Q142.705 571.403 140.83 571.82 Q138.978 572.237 137.033 573.116 L137.033 555.755 Z" fill="#000000" fill-rule="nonzero" fill-opacity="1" /><path clip-path="url(#clip280)" d="M91.5706 297.849 L99.2095 297.849 L99.2095 271.483 L90.8993 273.15 L90.8993 268.891 L99.1632 267.224 L103.839 267.224 L103.839 297.849 L111.478 297.849 L111.478 301.784 L91.5706 301.784 L91.5706 297.849 Z" fill="#000000" fill-rule="nonzero" fill-opacity="1" /><path clip-path="url(#clip280)" d="M120.922 295.905 L125.807 295.905 L125.807 301.784 L120.922 301.784 L120.922 295.905 Z" fill="#000000" fill-rule="nonzero" fill-opacity="1" /><path clip-path="url(#clip280)" d="M145.992 270.303 Q142.381 270.303 140.552 273.868 Q138.746 277.409 138.746 284.539 Q138.746 291.645 140.552 295.21 Q142.381 298.752 145.992 298.752 Q149.626 298.752 151.431 295.21 Q153.26 291.645 153.26 284.539 Q153.26 277.409 151.431 273.868 Q149.626 270.303 145.992 270.303 M145.992 266.599 Q151.802 266.599 154.857 271.206 Q157.936 275.789 157.936 284.539 Q157.936 293.266 154.857 297.872 Q151.802 302.455 145.992 302.455 Q140.181 302.455 137.103 297.872 Q134.047 293.266 134.047 284.539 Q134.047 275.789 137.103 271.206 Q140.181 266.599 145.992 266.599 Z" fill="#000000" fill-rule="nonzero" fill-opacity="1" /><path clip-path="url(#clip282)" d="M255.035 1147.68 L280.815 1135.29 L306.595 956.621 L332.375 960.346 L358.155 915.164 L383.935 970.612 L409.715 1062.41 L435.495 956.068 L461.275 881.73 L487.055 890.82 L512.835 885.116 L538.615 886.168 L564.395 826.859 L590.175 820.464 L615.955 853.864 L641.735 892.221 L667.515 846.509 L693.295 736.11 L719.075 762.771 L744.855 647.92 L770.635 587.386 L796.415 573.833 L822.195 567.886 L847.975 595.675 L873.755 619.162 L899.535 709.864 L925.316 779.54 L951.096 846.655 L976.876 949.993 L1002.66 976.474 L1028.44 1070.51 L1054.22 1282.86 L1080 1333.91 L1105.78 1303.65 L1131.56 1322.22 L1157.34 1323.07 L1183.12 1385.36 L1208.9 1398.58 L1234.68 1379.29 L1260.46 1383.73 L1286.24 1329.57 L1312.02 1297.27 L1337.8 1126.27 L1363.58 1095.79 L1389.36 1167.8 L1415.14 1191.1 L1440.92 1156.44 L1466.7 1197.47 L1492.48 1190.1 L1518.26 1233.02 L1544.04 1312.01 L1569.82 1276.91 L1595.6 1352.19 L1621.38 1346.11 L1647.16 1312.68 L1672.94 1387.95 L1698.72 1359.8 L1724.5 1394.17 L1750.28 1309.89 L1776.06 1282.71 L1801.84 1108.49 L1827.62 1083.99 L1853.4 999.191 L1879.18 965.739 L1904.96 959.916 L1930.74 920.52 L1956.52 944.684 L1982.3 847.048 L2008.08 931.893 L2033.86 886.438 L2059.64 921.698 L2085.42 954.84 L2111.2 986.069 L2136.98 1075.78 L2162.76 1067.35 L2188.54 1159.87 L2214.32 1173.27 L2240.1 1154.84 L2265.88 1358.9 L2291.66 1395.18 L2291.66 740.818 L2265.88 759.022 L2240.1 582.237 L2214.32 572.264 L2188.54 611.927 L2162.76 549.459 L2136.98 585.909 L2111.2 515.706 L2085.42 465.671 L2059.64 420.3 L2033.86 410.036 L2008.08 494.042 L1982.3 405.652 L1956.52 459.178 L1930.74 474.148 L1904.96 524.855 L1879.18 504.13 L1853.4 499.616 L1827.62 593.276 L1801.84 616.814 L1776.06 761.333 L1750.28 790.698 L1724.5 867.497 L1698.72 860.21 L1672.94 897.841 L1647.16 812.916 L1621.38 844.081 L1595.6 854.156 L1569.82 786.494 L1544.04 827.414 L1518.26 743.608 L1492.48 700.458 L1466.7 694.559 L1440.92 674.462 L1415.14 726.364 L1389.36 743.575 L1363.58 655.607 L1337.8 715.821 L1312.02 837.193 L1286.24 856.112 L1260.46 942.958 L1234.68 923.419 L1208.9 921.2 L1183.12 931.759 L1157.34 897.041 L1131.56 908.385 L1105.78 826.249 L1080 836.489 L1054.22 765.552 L1028.44 498.783 L1002.66 428.261 L976.876 428.211 L951.096 282.43 L925.316 218.436 L899.535 155.049 L873.755 93.8344 L847.975 89.9019 L822.195 99.8327 L796.415 87.9763 L770.635 102.164 L744.855 183.776 L719.075 303.196 L693.295 232.811 L667.515 321.381 L641.735 378.123 L615.955 334.191 L590.175 306.964 L564.395 325.667 L538.615 377.619 L512.835 355.065 L487.055 395.776 L461.275 369.755 L435.495 408.291 L409.715 465.164 L383.935 344.462 L358.155 242.496 L332.375 283.13 L306.595 220.054 L280.815 356.844 L255.035 332.154  Z" fill="#009af9" fill-rule="evenodd" fill-opacity="0.5"/>
<polyline clip-path="url(#clip282)" style="stroke:#009af9; stroke-linecap:round; stroke-linejoin:round; stroke-width:4; stroke-opacity:1; fill:none" points="255.035,739.915 280.815,746.068 306.595,588.337 332.375,621.738 358.155,578.83 383.935,657.537 409.715,763.787 435.495,682.179 461.275,625.742 487.055,643.298 512.835,620.091 538.615,631.893 564.395,576.263 590.175,563.714 615.955,594.027 641.735,635.172 667.515,583.945 693.295,484.46 719.075,532.984 744.855,415.848 770.635,344.775 796.415,330.905 822.195,333.859 847.975,342.789 873.755,356.498 899.535,432.457 925.316,498.988 951.096,564.543 976.876,689.102 1002.66,702.367 1028.44,784.647 1054.22,1024.2 1080,1085.2 1105.78,1064.95 1131.56,1115.3 1157.34,1110.05 1183.12,1158.56 1208.9,1159.89 1234.68,1151.36 1260.46,1163.34 1286.24,1092.84 1312.02,1067.23 1337.8,921.048 1363.58,875.699 1389.36,955.685 1415.14,958.732 1440.92,915.451 1466.7,946.015 1492.48,945.28 1518.26,988.312 1544.04,1069.71 1569.82,1031.7 1595.6,1103.18 1621.38,1095.09 1647.16,1062.8 1672.94,1142.9 1698.72,1110 1724.5,1130.83 1750.28,1050.3 1776.06,1022.02 1801.84,862.651 1827.62,838.633 1853.4,749.404 1879.18,734.935 1904.96,742.385 1930.74,697.334 1956.52,701.931 1982.3,626.35 2008.08,712.968 2033.86,648.237 2059.64,670.999 2085.42,710.255 2111.2,750.888 2136.98,830.845 2162.76,808.404 2188.54,885.898 2214.32,872.766 2240.1,868.541 2265.88,1058.96 2291.66,1068 "/>
<path clip-path="url(#clip282)" d="M255.035 1242.09 L280.815 1204.3 L306.595 1182.13 L332.375 1163.66 L358.155 1093.83 L383.935 1020.03 L409.715 1011.8 L435.495 1022.07 L461.275 1033.47 L487.055 1030.36 L512.835 1019.39 L538.615 945.816 L564.395 923.82 L590.175 942.022 L615.955 905.629 L641.735 879.134 L667.515 864.989 L693.295 858.305 L719.075 796.086 L744.855 763.599 L770.635 728.944 L796.415 718.595 L822.195 682.341 L847.975 615.928 L873.755 556.618 L899.535 508.519 L925.316 459.389 L951.096 431.352 L976.876 386.758 L1002.66 361.003 L1028.44 391.974 L1054.22 422.657 L1080 449.759 L1105.78 494.877 L1131.56 554.97 L1157.34 641.876 L1183.12 731.418 L1208.9 843.776 L1234.68 925.298 L1260.46 990.25 L1286.24 1040.59 L1312.02 1028.77 L1337.8 1041.23 L1363.58 1031.58 L1389.36 1012.62 L1415.14 992.898 L1440.92 1043.82 L1466.7 1017.91 L1492.48 1043.31 L1518.26 1023.57 L1544.04 1024.07 L1569.82 992.285 L1595.6 1013.95 L1621.38 1040.99 L1647.16 1053.29 L1672.94 1054.73 L1698.72 1063.09 L1724.5 1094.66 L1750.28 1119.16 L1776.06 1151.3 L1801.84 1152.79 L1827.62 1137.04 L1853.4 1117.29 L1879.18 1095.94 L1904.96 1077.86 L1930.74 1023.29 L1956.52 992.354 L1982.3 959.137 L2008.08 894.628 L2033.86 857.967 L2059.64 856.621 L2085.42 846.088 L2111.2 858.946 L2136.98 898.296 L2162.76 941.331 L2188.54 972.352 L2214.32 1020.94 L2240.1 1057.17 L2265.88 1095.85 L2291.66 1153.36 L2291.66 878.521 L2265.88 840.493 L2240.1 802.683 L2214.32 744.131 L2188.54 716.818 L2162.76 698.456 L2136.98 645.662 L2111.2 605.386 L2085.42 573.223 L2059.64 583.447 L2033.86 630.239 L2008.08 667.049 L1982.3 743.032 L1956.52 763.289 L1930.74 773.707 L1904.96 832.685 L1879.18 848.463 L1853.4 878.414 L1827.62 901.304 L1801.84 917.808 L1776.06 919.503 L1750.28 907.603 L1724.5 881.302 L1698.72 850.965 L1672.94 825.165 L1647.16 831.902 L1621.38 819.21 L1595.6 808.194 L1569.82 794.844 L1544.04 790.462 L1518.26 790.09 L1492.48 823.742 L1466.7 809.306 L1440.92 814.153 L1415.14 782.444 L1389.36 775.161 L1363.58 785.943 L1337.8 805.765 L1312.02 778.202 L1286.24 806.635 L1260.46 782.179 L1234.68 761.296 L1208.9 664.491 L1183.12 548.539 L1157.34 439.583 L1131.56 344.755 L1105.78 268.563 L1080 215.891 L1054.22 178.405 L1028.44 165.884 L1002.66 134.471 L976.876 139.594 L951.096 174.062 L925.316 219.065 L899.535 268.195 L873.755 307.941 L847.975 384.229 L822.195 451.378 L796.415 484.318 L770.635 498.515 L744.855 535.2 L719.075 579.072 L693.295 635.162 L667.515 651.754 L641.735 648.252 L615.955 672.393 L590.175 721.945 L564.395 661.149 L538.615 709.048 L512.835 780.961 L487.055 796.965 L461.275 811.609 L435.495 798.693 L409.715 749.319 L383.935 782.965 L358.155 860.169 L332.375 967.132 L306.595 993.242 L280.815 958.865 L255.035 938.829  Z" fill="#e26f46" fill-rule="evenodd" fill-opacity="0.5"/>
<polyline clip-path="url(#clip282)" style="stroke:#e26f46; stroke-linecap:round; stroke-linejoin:round; stroke-width:4; stroke-opacity:1; fill:none" points="255.035,1090.46 280.815,1081.58 306.595,1087.69 332.375,1065.39 358.155,977.002 383.935,901.498 409.715,880.559 435.495,910.382 461.275,922.538 487.055,913.661 512.835,900.175 538.615,827.432 564.395,792.484 590.175,831.984 615.955,789.011 641.735,763.693 667.515,758.371 693.295,746.734 719.075,687.579 744.855,649.399 770.635,613.729 796.415,601.456 822.195,566.859 847.975,500.079 873.755,432.279 899.535,388.357 925.316,339.227 951.096,302.707 976.876,263.176 1002.66,247.737 1028.44,278.929 1054.22,300.531 1080,332.825 1105.78,381.72 1131.56,449.862 1157.34,540.73 1183.12,639.978 1208.9,754.134 1234.68,843.297 1260.46,886.215 1286.24,923.612 1312.02,903.487 1337.8,923.495 1363.58,908.762 1389.36,893.89 1415.14,887.671 1440.92,928.989 1466.7,913.608 1492.48,933.526 1518.26,906.831 1544.04,907.266 1569.82,893.565 1595.6,911.074 1621.38,930.099 1647.16,942.596 1672.94,939.949 1698.72,957.027 1724.5,987.979 1750.28,1013.38 1776.06,1035.4 1801.84,1035.3 1827.62,1019.17 1853.4,997.85 1879.18,972.201 1904.96,955.272 1930.74,898.501 1956.52,877.821 1982.3,851.084 2008.08,780.838 2033.86,744.103 2059.64,720.034 2085.42,709.655 2111.2,732.166 2136.98,771.979 2162.76,819.893 2188.54,844.585 2214.32,882.535 2240.1,929.927 2265.88,968.169 2291.66,1015.94 "/>
<polyline clip-path="url(#clip282)" style="stroke:#3da44d; stroke-linecap:round; stroke-linejoin:round; stroke-width:4; stroke-opacity:1; fill:none" stroke-dasharray="16, 10" points="255.035,816.89 280.815,887.704 306.595,719.675 332.375,750.052 358.155,672.253 383.935,662.45 409.715,696.621 435.495,576.412 461.275,481.414 487.055,523.634 512.835,559.955 538.615,603.773 564.395,592.574 590.175,654.06 615.955,633.341 641.735,683.211 667.515,806.582 693.295,598.301 719.075,690.502 744.855,639.944 770.635,558.186 796.415,581.8 822.195,671.713 847.975,665.126 873.755,592.33 899.535,494.472 925.316,621.055 951.096,625.594 976.876,782.602 1002.66,817.84 1028.44,967.037 1054.22,1127.14 1080,1267.01 1105.78,1244.88 1131.56,1251.47 1157.34,1195.55 1183.12,1284.29 1208.9,1278.74 1234.68,1252.5 1260.46,1328.25 1286.24,1242.36 1312.02,1110.7 1337.8,1021.42 1363.58,954.771 1389.36,1071.95 1415.14,1148.71 1440.92,1124.58 1466.7,1158.05 1492.48,1188.17 1518.26,1306.46 1544.04,1374.92 1569.82,1258.57 1595.6,1421.44 1621.38,1291.09 1647.16,1246.8 1672.94,1245.24 1698.72,1290.07 1724.5,1290.61 1750.28,1196.48 1776.06,1169.83 1801.84,1110.2 1827.62,1050.49 1853.4,974.905 1879.18,911.715 1904.96,984.857 1930.74,998.19 1956.52,944.331 1982.3,881.057 2008.08,917.499 2033.86,897.273 2059.64,1004.11 2085.42,1005.49 2111.2,1008.36 2136.98,1046.03 2162.76,1123.46 2188.54,1242 2214.32,1226.87 2240.1,1213.97 2265.88,1445.72 2291.66,1399.88 "/>
<polyline clip-path="url(#clip282)" style="stroke:#c271d2; stroke-linecap:round; stroke-linejoin:round; stroke-width:4; stroke-opacity:1; fill:none" stroke-dasharray="16, 10" points="255.035,961.542 280.815,1049.54 306.595,1114.56 332.375,1105.34 358.155,1083.08 383.935,989.537 409.715,936.072 435.495,994.361 461.275,965.197 487.055,883.061 512.835,959.698 538.615,800.744 564.395,756.507 590.175,706.192 615.955,660.317 641.735,542.161 667.515,643.915 693.295,690.85 719.075,703.564 744.855,697.768 770.635,687.562 796.415,686.14 822.195,673.709 847.975,585.078 873.755,596.416 899.535,592.719 925.316,423.835 951.096,402.99 976.876,301.096 1002.66,262.353 1028.44,363.533 1054.22,359.147 1080,357.197 1105.78,340.604 1131.56,427.065 1157.34,626.542 1183.12,734.229 1208.9,714.862 1234.68,801.224 1260.46,910.216 1286.24,868.185 1312.02,882.377 1337.8,874.699 1363.58,923.949 1389.36,922.966 1415.14,891.019 1440.92,933.689 1466.7,842.915 1492.48,864.381 1518.26,873.081 1544.04,847.689 1569.82,845.7 1595.6,997.574 1621.38,1014.99 1647.16,1007.4 1672.94,1016 1698.72,1049.21 1724.5,1027.52 1750.28,990.613 1776.06,1015.49 1801.84,988.178 1827.62,965.392 1853.4,1003.17 1879.18,934.857 1904.96,941.806 1930.74,853.528 1956.52,774.41 1982.3,830.554 2008.08,722.785 2033.86,705.566 2059.64,696.02 2085.42,734.068 2111.2,731.09 2136.98,797.066 2162.76,849.353 2188.54,837.673 2214.32,884.771 2240.1,840.166 2265.88,981.7 2291.66,1063.51 "/>
<path clip-path="url(#clip280)" d="M1825.15 354.418 L2280.8 354.418 L2280.8 95.2176 L1825.15 95.2176  Z" fill="#ffffff" fill-rule="evenodd" fill-opacity="1"/>
<polyline clip-path="url(#clip280)" style="stroke:#000000; stroke-linecap:round; stroke-linejoin:round; stroke-width:4; stroke-opacity:1; fill:none" points="1825.15,354.418 2280.8,354.418 2280.8,95.2176 1825.15,95.2176 1825.15,354.418 "/>
<polyline clip-path="url(#clip280)" style="stroke:#009af9; stroke-linecap:round; stroke-linejoin:round; stroke-width:4; stroke-opacity:1; fill:none" points="1849.13,147.058 1993.05,147.058 "/>
<path clip-path="url(#clip280)" d="M2021.72 133.62 L2021.72 146.606 L2027.6 146.606 Q2030.86 146.606 2032.64 144.916 Q2034.43 143.227 2034.43 140.102 Q2034.43 137 2032.64 135.31 Q2030.86 133.62 2027.6 133.62 L2021.72 133.62 M2017.04 129.778 L2027.6 129.778 Q2033.41 129.778 2036.37 132.416 Q2039.36 135.032 2039.36 140.102 Q2039.36 145.217 2036.37 147.833 Q2033.41 150.449 2027.6 150.449 L2021.72 150.449 L2021.72 164.338 L2017.04 164.338 L2017.04 129.778 Z" fill="#000000" fill-rule="nonzero" fill-opacity="1" /><path clip-path="url(#clip280)" d="M2045.63 129.778 L2065.49 129.778 L2065.49 133.713 L2050.3 133.713 L2050.3 143.898 L2064.01 143.898 L2064.01 147.833 L2050.3 147.833 L2050.3 164.338 L2045.63 164.338 L2045.63 129.778 Z" fill="#000000" fill-rule="nonzero" fill-opacity="1" /><path clip-path="url(#clip280)" d="M2104.31 139.176 L2104.31 143.203 Q2102.5 142.277 2100.56 141.815 Q2098.61 141.352 2096.53 141.352 Q2093.36 141.352 2091.76 142.324 Q2090.19 143.296 2090.19 145.24 Q2090.19 146.722 2091.32 147.578 Q2092.46 148.412 2095.88 149.176 L2097.34 149.5 Q2101.88 150.472 2103.78 152.254 Q2105.7 154.014 2105.7 157.185 Q2105.7 160.796 2102.83 162.902 Q2099.98 165.009 2094.98 165.009 Q2092.9 165.009 2090.63 164.592 Q2088.38 164.199 2085.88 163.388 L2085.88 158.99 Q2088.24 160.217 2090.54 160.842 Q2092.83 161.444 2095.07 161.444 Q2098.08 161.444 2099.7 160.426 Q2101.32 159.384 2101.32 157.509 Q2101.32 155.773 2100.14 154.847 Q2098.99 153.921 2095.03 153.064 L2093.55 152.717 Q2089.59 151.884 2087.83 150.171 Q2086.07 148.435 2086.07 145.426 Q2086.07 141.768 2088.66 139.778 Q2091.25 137.787 2096.02 137.787 Q2098.38 137.787 2100.47 138.134 Q2102.55 138.481 2104.31 139.176 Z" fill="#000000" fill-rule="nonzero" fill-opacity="1" /><path clip-path="url(#clip280)" d="M2132.67 143.389 Q2134.26 140.518 2136.48 139.153 Q2138.71 137.787 2141.72 137.787 Q2145.77 137.787 2147.97 140.634 Q2150.17 143.458 2150.17 148.689 L2150.17 164.338 L2145.88 164.338 L2145.88 148.828 Q2145.88 145.102 2144.56 143.296 Q2143.24 141.49 2140.54 141.49 Q2137.23 141.49 2135.3 143.69 Q2133.38 145.889 2133.38 149.685 L2133.38 164.338 L2129.1 164.338 L2129.1 148.828 Q2129.1 145.078 2127.78 143.296 Q2126.46 141.49 2123.71 141.49 Q2120.44 141.49 2118.52 143.713 Q2116.6 145.912 2116.6 149.685 L2116.6 164.338 L2112.32 164.338 L2112.32 138.412 L2116.6 138.412 L2116.6 142.44 Q2118.06 140.055 2120.1 138.921 Q2122.13 137.787 2124.93 137.787 Q2127.76 137.787 2129.73 139.222 Q2131.72 140.657 2132.67 143.389 Z" fill="#000000" fill-rule="nonzero" fill-opacity="1" /><path clip-path="url(#clip280)" d="M2168.71 141.398 Q2165.28 141.398 2163.29 144.083 Q2161.3 146.745 2161.3 151.398 Q2161.3 156.051 2163.27 158.736 Q2165.26 161.398 2168.71 161.398 Q2172.11 161.398 2174.1 158.713 Q2176.09 156.027 2176.09 151.398 Q2176.09 146.791 2174.1 144.106 Q2172.11 141.398 2168.71 141.398 M2168.71 137.787 Q2174.26 137.787 2177.43 141.398 Q2180.61 145.009 2180.61 151.398 Q2180.61 157.764 2177.43 161.398 Q2174.26 165.009 2168.71 165.009 Q2163.13 165.009 2159.96 161.398 Q2156.81 157.764 2156.81 151.398 Q2156.81 145.009 2159.96 141.398 Q2163.13 137.787 2168.71 137.787 Z" fill="#000000" fill-rule="nonzero" fill-opacity="1" /><path clip-path="url(#clip280)" d="M2197.71 141.398 Q2194.29 141.398 2192.29 144.083 Q2190.3 146.745 2190.3 151.398 Q2190.3 156.051 2192.27 158.736 Q2194.26 161.398 2197.71 161.398 Q2201.11 161.398 2203.1 158.713 Q2205.1 156.027 2205.1 151.398 Q2205.1 146.791 2203.1 144.106 Q2201.11 141.398 2197.71 141.398 M2197.71 137.787 Q2203.27 137.787 2206.44 141.398 Q2209.61 145.009 2209.61 151.398 Q2209.61 157.764 2206.44 161.398 Q2203.27 165.009 2197.71 165.009 Q2192.13 165.009 2188.96 161.398 Q2185.81 157.764 2185.81 151.398 Q2185.81 145.009 2188.96 141.398 Q2192.13 137.787 2197.71 137.787 Z" fill="#000000" fill-rule="nonzero" fill-opacity="1" /><path clip-path="url(#clip280)" d="M2220.88 131.051 L2220.88 138.412 L2229.66 138.412 L2229.66 141.722 L2220.88 141.722 L2220.88 155.796 Q2220.88 158.967 2221.74 159.87 Q2222.62 160.773 2225.28 160.773 L2229.66 160.773 L2229.66 164.338 L2225.28 164.338 Q2220.35 164.338 2218.48 162.509 Q2216.6 160.657 2216.6 155.796 L2216.6 141.722 L2213.48 141.722 L2213.48 138.412 L2216.6 138.412 L2216.6 131.051 L2220.88 131.051 Z" fill="#000000" fill-rule="nonzero" fill-opacity="1" /><path clip-path="url(#clip280)" d="M2256.81 148.689 L2256.81 164.338 L2252.55 164.338 L2252.55 148.828 Q2252.55 145.148 2251.11 143.319 Q2249.68 141.49 2246.81 141.49 Q2243.36 141.49 2241.37 143.69 Q2239.38 145.889 2239.38 149.685 L2239.38 164.338 L2235.1 164.338 L2235.1 128.319 L2239.38 128.319 L2239.38 142.44 Q2240.91 140.102 2242.97 138.944 Q2245.05 137.787 2247.76 137.787 Q2252.23 137.787 2254.52 140.565 Q2256.81 143.319 2256.81 148.689 Z" fill="#000000" fill-rule="nonzero" fill-opacity="1" /><polyline clip-path="url(#clip280)" style="stroke:#e26f46; stroke-linecap:round; stroke-linejoin:round; stroke-width:4; stroke-opacity:1; fill:none" points="1849.13,198.898 1993.05,198.898 "/>
<path clip-path="url(#clip280)" d="M2021.72 185.46 L2021.72 198.446 L2027.6 198.446 Q2030.86 198.446 2032.64 196.756 Q2034.43 195.067 2034.43 191.942 Q2034.43 188.84 2032.64 187.15 Q2030.86 185.46 2027.6 185.46 L2021.72 185.46 M2017.04 181.618 L2027.6 181.618 Q2033.41 181.618 2036.37 184.256 Q2039.36 186.872 2039.36 191.942 Q2039.36 197.057 2036.37 199.673 Q2033.41 202.289 2027.6 202.289 L2021.72 202.289 L2021.72 216.178 L2017.04 216.178 L2017.04 181.618 Z" fill="#000000" fill-rule="nonzero" fill-opacity="1" /><path clip-path="url(#clip280)" d="M2045.63 181.618 L2065.49 181.618 L2065.49 185.553 L2050.3 185.553 L2050.3 195.738 L2064.01 195.738 L2064.01 199.673 L2050.3 199.673 L2050.3 216.178 L2045.63 216.178 L2045.63 181.618 Z" fill="#000000" fill-rule="nonzero" fill-opacity="1" /><path clip-path="url(#clip280)" d="M2104.31 191.016 L2104.31 195.043 Q2102.5 194.117 2100.56 193.655 Q2098.61 193.192 2096.53 193.192 Q2093.36 193.192 2091.76 194.164 Q2090.19 195.136 2090.19 197.08 Q2090.19 198.562 2091.32 199.418 Q2092.46 200.252 2095.88 201.016 L2097.34 201.34 Q2101.88 202.312 2103.78 204.094 Q2105.7 205.854 2105.7 209.025 Q2105.7 212.636 2102.83 214.742 Q2099.98 216.849 2094.98 216.849 Q2092.9 216.849 2090.63 216.432 Q2088.38 216.039 2085.88 215.228 L2085.88 210.83 Q2088.24 212.057 2090.54 212.682 Q2092.83 213.284 2095.07 213.284 Q2098.08 213.284 2099.7 212.266 Q2101.32 211.224 2101.32 209.349 Q2101.32 207.613 2100.14 206.687 Q2098.99 205.761 2095.03 204.904 L2093.55 204.557 Q2089.59 203.724 2087.83 202.011 Q2086.07 200.275 2086.07 197.266 Q2086.07 193.608 2088.66 191.618 Q2091.25 189.627 2096.02 189.627 Q2098.38 189.627 2100.47 189.974 Q2102.55 190.321 2104.31 191.016 Z" fill="#000000" fill-rule="nonzero" fill-opacity="1" /><path clip-path="url(#clip280)" d="M2132.67 195.229 Q2134.26 192.358 2136.48 190.993 Q2138.71 189.627 2141.72 189.627 Q2145.77 189.627 2147.97 192.474 Q2150.17 195.298 2150.17 200.529 L2150.17 216.178 L2145.88 216.178 L2145.88 200.668 Q2145.88 196.942 2144.56 195.136 Q2143.24 193.33 2140.54 193.33 Q2137.23 193.33 2135.3 195.53 Q2133.38 197.729 2133.38 201.525 L2133.38 216.178 L2129.1 216.178 L2129.1 200.668 Q2129.1 196.918 2127.78 195.136 Q2126.46 193.33 2123.71 193.33 Q2120.44 193.33 2118.52 195.553 Q2116.6 197.752 2116.6 201.525 L2116.6 216.178 L2112.32 216.178 L2112.32 190.252 L2116.6 190.252 L2116.6 194.28 Q2118.06 191.895 2120.1 190.761 Q2122.13 189.627 2124.93 189.627 Q2127.76 189.627 2129.73 191.062 Q2131.72 192.497 2132.67 195.229 Z" fill="#000000" fill-rule="nonzero" fill-opacity="1" /><path clip-path="url(#clip280)" d="M2168.71 193.238 Q2165.28 193.238 2163.29 195.923 Q2161.3 198.585 2161.3 203.238 Q2161.3 207.891 2163.27 210.576 Q2165.26 213.238 2168.71 213.238 Q2172.11 213.238 2174.1 210.553 Q2176.09 207.867 2176.09 203.238 Q2176.09 198.631 2174.1 195.946 Q2172.11 193.238 2168.71 193.238 M2168.71 189.627 Q2174.26 189.627 2177.43 193.238 Q2180.61 196.849 2180.61 203.238 Q2180.61 209.604 2177.43 213.238 Q2174.26 216.849 2168.71 216.849 Q2163.13 216.849 2159.96 213.238 Q2156.81 209.604 2156.81 203.238 Q2156.81 196.849 2159.96 193.238 Q2163.13 189.627 2168.71 189.627 Z" fill="#000000" fill-rule="nonzero" fill-opacity="1" /><path clip-path="url(#clip280)" d="M2197.71 193.238 Q2194.29 193.238 2192.29 195.923 Q2190.3 198.585 2190.3 203.238 Q2190.3 207.891 2192.27 210.576 Q2194.26 213.238 2197.71 213.238 Q2201.11 213.238 2203.1 210.553 Q2205.1 207.867 2205.1 203.238 Q2205.1 198.631 2203.1 195.946 Q2201.11 193.238 2197.71 193.238 M2197.71 189.627 Q2203.27 189.627 2206.44 193.238 Q2209.61 196.849 2209.61 203.238 Q2209.61 209.604 2206.44 213.238 Q2203.27 216.849 2197.71 216.849 Q2192.13 216.849 2188.96 213.238 Q2185.81 209.604 2185.81 203.238 Q2185.81 196.849 2188.96 193.238 Q2192.13 189.627 2197.71 189.627 Z" fill="#000000" fill-rule="nonzero" fill-opacity="1" /><path clip-path="url(#clip280)" d="M2220.88 182.891 L2220.88 190.252 L2229.66 190.252 L2229.66 193.562 L2220.88 193.562 L2220.88 207.636 Q2220.88 210.807 2221.74 211.71 Q2222.62 212.613 2225.28 212.613 L2229.66 212.613 L2229.66 216.178 L2225.28 216.178 Q2220.35 216.178 2218.48 214.349 Q2216.6 212.497 2216.6 207.636 L2216.6 193.562 L2213.48 193.562 L2213.48 190.252 L2216.6 190.252 L2216.6 182.891 L2220.88 182.891 Z" fill="#000000" fill-rule="nonzero" fill-opacity="1" /><path clip-path="url(#clip280)" d="M2256.81 200.529 L2256.81 216.178 L2252.55 216.178 L2252.55 200.668 Q2252.55 196.988 2251.11 195.159 Q2249.68 193.33 2246.81 193.33 Q2243.36 193.33 2241.37 195.53 Q2239.38 197.729 2239.38 201.525 L2239.38 216.178 L2235.1 216.178 L2235.1 180.159 L2239.38 180.159 L2239.38 194.28 Q2240.91 191.942 2242.97 190.784 Q2245.05 189.627 2247.76 189.627 Q2252.23 189.627 2254.52 192.405 Q2256.81 195.159 2256.81 200.529 Z" fill="#000000" fill-rule="nonzero" fill-opacity="1" /><polyline clip-path="url(#clip280)" style="stroke:#3da44d; stroke-linecap:round; stroke-linejoin:round; stroke-width:4; stroke-opacity:1; fill:none" stroke-dasharray="16, 10" points="1849.13,250.738 1993.05,250.738 "/>
<path clip-path="url(#clip280)" d="M2017.04 233.458 L2046.28 233.458 L2046.28 237.393 L2034.01 237.393 L2034.01 268.018 L2029.31 268.018 L2029.31 237.393 L2017.04 237.393 L2017.04 233.458 Z" fill="#000000" fill-rule="nonzero" fill-opacity="1" /><path clip-path="url(#clip280)" d="M2058.66 246.073 Q2057.94 245.657 2057.09 245.471 Q2056.25 245.263 2055.24 245.263 Q2051.62 245.263 2049.68 247.624 Q2047.76 249.962 2047.76 254.36 L2047.76 268.018 L2043.48 268.018 L2043.48 242.092 L2047.76 242.092 L2047.76 246.12 Q2049.1 243.758 2051.25 242.624 Q2053.41 241.467 2056.49 241.467 Q2056.93 241.467 2057.46 241.536 Q2057.99 241.583 2058.64 241.698 L2058.66 246.073 Z" fill="#000000" fill-rule="nonzero" fill-opacity="1" /><path clip-path="url(#clip280)" d="M2062.69 257.786 L2062.69 242.092 L2066.95 242.092 L2066.95 257.624 Q2066.95 261.305 2068.38 263.156 Q2069.82 264.985 2072.69 264.985 Q2076.14 264.985 2078.13 262.786 Q2080.14 260.587 2080.14 256.791 L2080.14 242.092 L2084.4 242.092 L2084.4 268.018 L2080.14 268.018 L2080.14 264.036 Q2078.59 266.397 2076.53 267.555 Q2074.49 268.689 2071.79 268.689 Q2067.32 268.689 2065 265.911 Q2062.69 263.133 2062.69 257.786 M2073.41 241.467 L2073.41 241.467 Z" fill="#000000" fill-rule="nonzero" fill-opacity="1" /><path clip-path="url(#clip280)" d="M2115.35 253.99 L2115.35 256.073 L2095.77 256.073 Q2096.05 260.471 2098.41 262.786 Q2100.79 265.078 2105.03 265.078 Q2107.48 265.078 2109.77 264.476 Q2112.09 263.874 2114.36 262.67 L2114.36 266.698 Q2112.06 267.67 2109.66 268.18 Q2107.25 268.689 2104.77 268.689 Q2098.57 268.689 2094.93 265.078 Q2091.32 261.467 2091.32 255.309 Q2091.32 248.944 2094.75 245.217 Q2098.2 241.467 2104.03 241.467 Q2109.26 241.467 2112.3 244.846 Q2115.35 248.203 2115.35 253.99 M2111.09 252.74 Q2111.05 249.245 2109.12 247.161 Q2107.23 245.078 2104.08 245.078 Q2100.51 245.078 2098.36 247.092 Q2096.23 249.106 2095.91 252.763 L2111.09 252.74 Z" fill="#000000" fill-rule="nonzero" fill-opacity="1" /><polyline clip-path="url(#clip280)" style="stroke:#c271d2; stroke-linecap:round; stroke-linejoin:round; stroke-width:4; stroke-opacity:1; fill:none" stroke-dasharray="16, 10" points="1849.13,302.578 1993.05,302.578 "/>
<path clip-path="url(#clip280)" d="M2017.04 285.298 L2046.28 285.298 L2046.28 289.233 L2034.01 289.233 L2034.01 319.858 L2029.31 319.858 L2029.31 289.233 L2017.04 289.233 L2017.04 285.298 Z" fill="#000000" fill-rule="nonzero" fill-opacity="1" /><path clip-path="url(#clip280)" d="M2058.66 297.913 Q2057.94 297.497 2057.09 297.311 Q2056.25 297.103 2055.24 297.103 Q2051.62 297.103 2049.68 299.464 Q2047.76 301.802 2047.76 306.2 L2047.76 319.858 L2043.48 319.858 L2043.48 293.932 L2047.76 293.932 L2047.76 297.96 Q2049.1 295.598 2051.25 294.464 Q2053.41 293.307 2056.49 293.307 Q2056.93 293.307 2057.46 293.376 Q2057.99 293.423 2058.64 293.538 L2058.66 297.913 Z" fill="#000000" fill-rule="nonzero" fill-opacity="1" /><path clip-path="url(#clip280)" d="M2062.69 309.626 L2062.69 293.932 L2066.95 293.932 L2066.95 309.464 Q2066.95 313.145 2068.38 314.996 Q2069.82 316.825 2072.69 316.825 Q2076.14 316.825 2078.13 314.626 Q2080.14 312.427 2080.14 308.631 L2080.14 293.932 L2084.4 293.932 L2084.4 319.858 L2080.14 319.858 L2080.14 315.876 Q2078.59 318.237 2076.53 319.395 Q2074.49 320.529 2071.79 320.529 Q2067.32 320.529 2065 317.751 Q2062.69 314.973 2062.69 309.626 M2073.41 293.307 L2073.41 293.307 Z" fill="#000000" fill-rule="nonzero" fill-opacity="1" /><path clip-path="url(#clip280)" d="M2115.35 305.83 L2115.35 307.913 L2095.77 307.913 Q2096.05 312.311 2098.41 314.626 Q2100.79 316.918 2105.03 316.918 Q2107.48 316.918 2109.77 316.316 Q2112.09 315.714 2114.36 314.51 L2114.36 318.538 Q2112.06 319.51 2109.66 320.02 Q2107.25 320.529 2104.77 320.529 Q2098.57 320.529 2094.93 316.918 Q2091.32 313.307 2091.32 307.149 Q2091.32 300.784 2094.75 297.057 Q2098.2 293.307 2104.03 293.307 Q2109.26 293.307 2112.3 296.686 Q2115.35 300.043 2115.35 305.83 M2111.09 304.58 Q2111.05 301.085 2109.12 299.001 Q2107.23 296.918 2104.08 296.918 Q2100.51 296.918 2098.36 298.932 Q2096.23 300.946 2095.91 304.603 L2111.09 304.58 Z" fill="#000000" fill-rule="nonzero" fill-opacity="1" /></svg>
