<?xml version="1.0" encoding="utf-8"?>
<svg xmlns="http://www.w3.org/2000/svg" xmlns:xlink="http://www.w3.org/1999/xlink" width="600" height="400" viewBox="0 0 2400 1600">
<defs>
  <clipPath id="clip860">
    <rect x="0" y="0" width="2400" height="1600"/>
  </clipPath>
</defs>
<path clip-path="url(#clip860)" d="M0 1600 L2400 1600 L2400 0 L0 0  Z" fill="#ffffff" fill-rule="evenodd" fill-opacity="1"/>
<defs>
  <clipPath id="clip861">
    <rect x="480" y="0" width="1681" height="1600"/>
  </clipPath>
</defs>
<path clip-path="url(#clip860)" d="M193.936 1486.45 L2352.76 1486.45 L2352.76 47.2441 L193.936 47.2441  Z" fill="#ffffff" fill-rule="evenodd" fill-opacity="1"/>
<defs>
  <clipPath id="clip862">
    <rect x="193" y="47" width="2160" height="1440"/>
  </clipPath>
</defs>
<polyline clip-path="url(#clip862)" style="stroke:#000000; stroke-linecap:round; stroke-linejoin:round; stroke-width:2; stroke-opacity:0.1; fill:none" points="229.255,1486.45 229.255,47.2441 "/>
<polyline clip-path="url(#clip862)" style="stroke:#000000; stroke-linecap:round; stroke-linejoin:round; stroke-width:2; stroke-opacity:0.1; fill:none" points="744.855,1486.45 744.855,47.2441 "/>
<polyline clip-path="url(#clip862)" style="stroke:#000000; stroke-linecap:round; stroke-linejoin:round; stroke-width:2; stroke-opacity:0.1; fill:none" points="1260.46,1486.45 1260.46,47.2441 "/>
<polyline clip-path="url(#clip862)" style="stroke:#000000; stroke-linecap:round; stroke-linejoin:round; stroke-width:2; stroke-opacity:0.1; fill:none" points="1776.06,1486.45 1776.06,47.2441 "/>
<polyline clip-path="url(#clip862)" style="stroke:#000000; stroke-linecap:round; stroke-linejoin:round; stroke-width:2; stroke-opacity:0.1; fill:none" points="2291.66,1486.45 2291.66,47.2441 "/>
<polyline clip-path="url(#clip862)" style="stroke:#000000; stroke-linecap:round; stroke-linejoin:round; stroke-width:2; stroke-opacity:0.1; fill:none" points="193.936,1397.7 2352.76,1397.7 "/>
<polyline clip-path="url(#clip862)" style="stroke:#000000; stroke-linecap:round; stroke-linejoin:round; stroke-width:2; stroke-opacity:0.1; fill:none" points="193.936,1175.93 2352.76,1175.93 "/>
<polyline clip-path="url(#clip862)" style="stroke:#000000; stroke-linecap:round; stroke-linejoin:round; stroke-width:2; stroke-opacity:0.1; fill:none" points="193.936,954.167 2352.76,954.167 "/>
<polyline clip-path="url(#clip862)" style="stroke:#000000; stroke-linecap:round; stroke-linejoin:round; stroke-width:2; stroke-opacity:0.1; fill:none" points="193.936,732.402 2352.76,732.402 "/>
<polyline clip-path="url(#clip862)" style="stroke:#000000; stroke-linecap:round; stroke-linejoin:round; stroke-width:2; stroke-opacity:0.1; fill:none" points="193.936,510.636 2352.76,510.636 "/>
<polyline clip-path="url(#clip862)" style="stroke:#000000; stroke-linecap:round; stroke-linejoin:round; stroke-width:2; stroke-opacity:0.1; fill:none" points="193.936,288.871 2352.76,288.871 "/>
<polyline clip-path="url(#clip862)" style="stroke:#000000; stroke-linecap:round; stroke-linejoin:round; stroke-width:2; stroke-opacity:0.1; fill:none" points="193.936,67.1055 2352.76,67.1055 "/>
<polyline clip-path="url(#clip860)" style="stroke:#000000; stroke-linecap:round; stroke-linejoin:round; stroke-width:4; stroke-opacity:1; fill:none" points="193.936,1486.45 2352.76,1486.45 "/>
<polyline clip-path="url(#clip860)" style="stroke:#000000; stroke-linecap:round; stroke-linejoin:round; stroke-width:4; stroke-opacity:1; fill:none" points="229.255,1486.45 229.255,1467.55 "/>
<polyline clip-path="url(#clip860)" style="stroke:#000000; stroke-linecap:round; stroke-linejoin:round; stroke-width:4; stroke-opacity:1; fill:none" points="744.855,1486.45 744.855,1467.55 "/>
<polyline clip-path="url(#clip860)" style="stroke:#000000; stroke-linecap:round; stroke-linejoin:round; stroke-width:4; stroke-opacity:1; fill:none" points="1260.46,1486.45 1260.46,1467.55 "/>
<polyline clip-path="url(#clip860)" style="stroke:#000000; stroke-linecap:round; stroke-linejoin:round; stroke-width:4; stroke-opacity:1; fill:none" points="1776.06,1486.45 1776.06,1467.55 "/>
<polyline clip-path="url(#clip860)" style="stroke:#000000; stroke-linecap:round; stroke-linejoin:round; stroke-width:4; stroke-opacity:1; fill:none" points="2291.66,1486.45 2291.66,1467.55 "/>
<path clip-path="url(#clip860)" d="M229.255 1517.37 Q225.644 1517.37 223.815 1520.93 Q222.009 1524.47 222.009 1531.6 Q222.009 1538.71 223.815 1542.27 Q225.644 1545.82 229.255 1545.82 Q232.889 1545.82 234.694 1542.27 Q236.523 1538.71 236.523 1531.6 Q236.523 1524.47 234.694 1520.93 Q232.889 1517.37 229.255 1517.37 M229.255 1513.66 Q235.065 1513.66 238.12 1518.27 Q241.199 1522.85 241.199 1531.6 Q241.199 1540.33 238.12 1544.94 Q235.065 1549.52 229.255 1549.52 Q223.444 1549.52 220.366 1544.94 Q217.31 1540.33 217.31 1531.6 Q217.31 1522.85 220.366 1518.27 Q223.444 1513.66 229.255 1513.66 Z" fill="#000000" fill-rule="nonzero" fill-opacity="1" /><path clip-path="url(#clip860)" d="M723.629 1544.91 L739.948 1544.91 L739.948 1548.85 L718.004 1548.85 L718.004 1544.91 Q720.666 1542.16 725.249 1537.53 Q729.855 1532.88 731.036 1531.53 Q733.281 1529.01 734.161 1527.27 Q735.064 1525.51 735.064 1523.82 Q735.064 1521.07 733.119 1519.33 Q731.198 1517.6 728.096 1517.6 Q725.897 1517.6 723.443 1518.36 Q721.013 1519.13 718.235 1520.68 L718.235 1515.95 Q721.059 1514.82 723.513 1514.24 Q725.967 1513.66 728.004 1513.66 Q733.374 1513.66 736.568 1516.35 Q739.763 1519.03 739.763 1523.52 Q739.763 1525.65 738.953 1527.57 Q738.166 1529.47 736.059 1532.07 Q735.48 1532.74 732.379 1535.95 Q729.277 1539.15 723.629 1544.91 Z" fill="#000000" fill-rule="nonzero" fill-opacity="1" /><path clip-path="url(#clip860)" d="M759.763 1517.37 Q756.152 1517.37 754.323 1520.93 Q752.517 1524.47 752.517 1531.6 Q752.517 1538.71 754.323 1542.27 Q756.152 1545.82 759.763 1545.82 Q763.397 1545.82 765.202 1542.27 Q767.031 1538.71 767.031 1531.6 Q767.031 1524.47 765.202 1520.93 Q763.397 1517.37 759.763 1517.37 M759.763 1513.66 Q765.573 1513.66 768.628 1518.27 Q771.707 1522.85 771.707 1531.6 Q771.707 1540.33 768.628 1544.94 Q765.573 1549.52 759.763 1549.52 Q753.952 1549.52 750.874 1544.94 Q747.818 1540.33 747.818 1531.6 Q747.818 1522.85 750.874 1518.27 Q753.952 1513.66 759.763 1513.66 Z" fill="#000000" fill-rule="nonzero" fill-opacity="1" /><path clip-path="url(#clip860)" d="M1248.63 1518.36 L1236.82 1536.81 L1248.63 1536.81 L1248.63 1518.36 M1247.4 1514.29 L1253.28 1514.29 L1253.28 1536.81 L1258.21 1536.81 L1258.21 1540.7 L1253.28 1540.7 L1253.28 1548.85 L1248.63 1548.85 L1248.63 1540.7 L1233.03 1540.7 L1233.03 1536.19 L1247.4 1514.29 Z" fill="#000000" fill-rule="nonzero" fill-opacity="1" /><path clip-path="url(#clip860)" d="M1275.94 1517.37 Q1272.33 1517.37 1270.5 1520.93 Q1268.7 1524.47 1268.7 1531.6 Q1268.7 1538.71 1270.5 1542.27 Q1272.33 1545.82 1275.94 1545.82 Q1279.58 1545.82 1281.38 1542.27 Q1283.21 1538.71 1283.21 1531.6 Q1283.21 1524.47 1281.38 1520.93 Q1279.58 1517.37 1275.94 1517.37 M1275.94 1513.66 Q1281.75 1513.66 1284.81 1518.27 Q1287.89 1522.85 1287.89 1531.6 Q1287.89 1540.33 1284.81 1544.94 Q1281.75 1549.52 1275.94 1549.52 Q1270.13 1549.52 1267.05 1544.94 Q1264 1540.33 1264 1531.6 Q1264 1522.85 1267.05 1518.27 Q1270.13 1513.66 1275.94 1513.66 Z" fill="#000000" fill-rule="nonzero" fill-opacity="1" /><path clip-path="url(#clip860)" d="M1761.46 1529.7 Q1758.31 1529.7 1756.46 1531.86 Q1754.63 1534.01 1754.63 1537.76 Q1754.63 1541.49 1756.46 1543.66 Q1758.31 1545.82 1761.46 1545.82 Q1764.61 1545.82 1766.44 1543.66 Q1768.29 1541.49 1768.29 1537.76 Q1768.29 1534.01 1766.44 1531.86 Q1764.61 1529.7 1761.46 1529.7 M1770.74 1515.05 L1770.74 1519.31 Q1768.98 1518.48 1767.18 1518.04 Q1765.4 1517.6 1763.64 1517.6 Q1759.01 1517.6 1756.55 1520.72 Q1754.12 1523.85 1753.78 1530.17 Q1755.14 1528.15 1757.2 1527.09 Q1759.26 1526 1761.74 1526 Q1766.95 1526 1769.96 1529.17 Q1772.99 1532.32 1772.99 1537.76 Q1772.99 1543.08 1769.84 1546.3 Q1766.69 1549.52 1761.46 1549.52 Q1755.47 1549.52 1752.3 1544.94 Q1749.12 1540.33 1749.12 1531.6 Q1749.12 1523.41 1753.01 1518.55 Q1756.9 1513.66 1763.45 1513.66 Q1765.21 1513.66 1766.99 1514.01 Q1768.8 1514.36 1770.74 1515.05 Z" fill="#000000" fill-rule="nonzero" fill-opacity="1" /><path clip-path="url(#clip860)" d="M1791.04 1517.37 Q1787.43 1517.37 1785.61 1520.93 Q1783.8 1524.47 1783.8 1531.6 Q1783.8 1538.71 1785.61 1542.27 Q1787.43 1545.82 1791.04 1545.82 Q1794.68 1545.82 1796.48 1542.27 Q1798.31 1538.71 1798.31 1531.6 Q1798.31 1524.47 1796.48 1520.93 Q1794.68 1517.37 1791.04 1517.37 M1791.04 1513.66 Q1796.86 1513.66 1799.91 1518.27 Q1802.99 1522.85 1802.99 1531.6 Q1802.99 1540.33 1799.91 1544.94 Q1796.86 1549.52 1791.04 1549.52 Q1785.23 1549.52 1782.16 1544.94 Q1779.1 1540.33 1779.1 1531.6 Q1779.1 1522.85 1782.16 1518.27 Q1785.23 1513.66 1791.04 1513.66 Z" fill="#000000" fill-rule="nonzero" fill-opacity="1" /><path clip-path="url(#clip860)" d="M2276.53 1532.44 Q2273.2 1532.44 2271.28 1534.22 Q2269.38 1536 2269.38 1539.13 Q2269.38 1542.25 2271.28 1544.03 Q2273.2 1545.82 2276.53 1545.82 Q2279.86 1545.82 2281.78 1544.03 Q2283.71 1542.23 2283.71 1539.13 Q2283.71 1536 2281.78 1534.22 Q2279.89 1532.44 2276.53 1532.44 M2271.85 1530.45 Q2268.84 1529.7 2267.16 1527.64 Q2265.49 1525.58 2265.49 1522.62 Q2265.49 1518.48 2268.43 1516.07 Q2271.39 1513.66 2276.53 1513.66 Q2281.69 1513.66 2284.63 1516.07 Q2287.57 1518.48 2287.57 1522.62 Q2287.57 1525.58 2285.88 1527.64 Q2284.22 1529.7 2281.23 1530.45 Q2284.61 1531.23 2286.48 1533.52 Q2288.38 1535.82 2288.38 1539.13 Q2288.38 1544.15 2285.3 1546.83 Q2282.25 1549.52 2276.53 1549.52 Q2270.81 1549.52 2267.73 1546.83 Q2264.68 1544.15 2264.68 1539.13 Q2264.68 1535.82 2266.58 1533.52 Q2268.47 1531.23 2271.85 1530.45 M2270.14 1523.06 Q2270.14 1525.75 2271.81 1527.25 Q2273.5 1528.76 2276.53 1528.76 Q2279.54 1528.76 2281.23 1527.25 Q2282.94 1525.75 2282.94 1523.06 Q2282.94 1520.38 2281.23 1518.87 Q2279.54 1517.37 2276.53 1517.37 Q2273.5 1517.37 2271.81 1518.87 Q2270.14 1520.38 2270.14 1523.06 Z" fill="#000000" fill-rule="nonzero" fill-opacity="1" /><path clip-path="url(#clip860)" d="M2306.69 1517.37 Q2303.08 1517.37 2301.25 1520.93 Q2299.45 1524.47 2299.45 1531.6 Q2299.45 1538.71 2301.25 1542.27 Q2303.08 1545.82 2306.69 1545.82 Q2310.33 1545.82 2312.13 1542.27 Q2313.96 1538.71 2313.96 1531.6 Q2313.96 1524.47 2312.13 1520.93 Q2310.33 1517.37 2306.69 1517.37 M2306.69 1513.66 Q2312.5 1513.66 2315.56 1518.27 Q2318.64 1522.85 2318.64 1531.6 Q2318.64 1540.33 2315.56 1544.94 Q2312.5 1549.52 2306.69 1549.52 Q2300.88 1549.52 2297.8 1544.94 Q2294.75 1540.33 2294.75 1531.6 Q2294.75 1522.85 2297.8 1518.27 Q2300.88 1513.66 2306.69 1513.66 Z" fill="#000000" fill-rule="nonzero" fill-opacity="1" /><polyline clip-path="url(#clip860)" style="stroke:#000000; stroke-linecap:round; stroke-linejoin:round; stroke-width:4; stroke-opacity:1; fill:none" points="193.936,1486.45 193.936,47.2441 "/>
<polyline clip-path="url(#clip860)" style="stroke:#000000; stroke-linecap:round; stroke-linejoin:round; stroke-width:4; stroke-opacity:1; fill:none" points="193.936,1397.7 212.834,1397.7 "/>
<polyline clip-path="url(#clip860)" style="stroke:#000000; stroke-linecap:round; stroke-linejoin:round; stroke-width:4; stroke-opacity:1; fill:none" points="193.936,1175.93 212.834,1175.93 "/>
<polyline clip-path="url(#clip860)" style="stroke:#000000; stroke-linecap:round; stroke-linejoin:round; stroke-width:4; stroke-opacity:1; fill:none" points="193.936,954.167 212.834,954.167 "/>
<polyline clip-path="url(#clip860)" style="stroke:#000000; stroke-linecap:round; stroke-linejoin:round; stroke-width:4; stroke-opacity:1; fill:none" points="193.936,732.402 212.834,732.402 "/>
<polyline clip-path="url(#clip860)" style="stroke:#000000; stroke-linecap:round; stroke-linejoin:round; stroke-width:4; stroke-opacity:1; fill:none" points="193.936,510.636 212.834,510.636 "/>
<polyline clip-path="url(#clip860)" style="stroke:#000000; stroke-linecap:round; stroke-linejoin:round; stroke-width:4; stroke-opacity:1; fill:none" points="193.936,288.871 212.834,288.871 "/>
<polyline clip-path="url(#clip860)" style="stroke:#000000; stroke-linecap:round; stroke-linejoin:round; stroke-width:4; stroke-opacity:1; fill:none" points="193.936,67.1055 212.834,67.1055 "/>
<path clip-path="url(#clip860)" d="M51.9875 1398.15 L81.6633 1398.15 L81.6633 1402.08 L51.9875 1402.08 L51.9875 1398.15 Z" fill="#000000" fill-rule="nonzero" fill-opacity="1" /><path clip-path="url(#clip860)" d="M92.566 1411.04 L100.205 1411.04 L100.205 1384.68 L91.8947 1386.34 L91.8947 1382.08 L100.159 1380.42 L104.834 1380.42 L104.834 1411.04 L112.473 1411.04 L112.473 1414.98 L92.566 1414.98 L92.566 1411.04 Z" fill="#000000" fill-rule="nonzero" fill-opacity="1" /><path clip-path="url(#clip860)" d="M121.918 1409.1 L126.802 1409.1 L126.802 1414.98 L121.918 1414.98 L121.918 1409.1 Z" fill="#000000" fill-rule="nonzero" fill-opacity="1" /><path clip-path="url(#clip860)" d="M137.033 1380.42 L155.39 1380.42 L155.39 1384.35 L141.316 1384.35 L141.316 1392.83 Q142.334 1392.48 143.353 1392.32 Q144.371 1392.13 145.39 1392.13 Q151.177 1392.13 154.556 1395.3 Q157.936 1398.47 157.936 1403.89 Q157.936 1409.47 154.464 1412.57 Q150.992 1415.65 144.672 1415.65 Q142.496 1415.65 140.228 1415.28 Q137.982 1414.91 135.575 1414.17 L135.575 1409.47 Q137.658 1410.6 139.881 1411.16 Q142.103 1411.71 144.58 1411.71 Q148.584 1411.71 150.922 1409.61 Q153.26 1407.5 153.26 1403.89 Q153.26 1400.28 150.922 1398.17 Q148.584 1396.07 144.58 1396.07 Q142.705 1396.07 140.83 1396.48 Q138.978 1396.9 137.033 1397.78 L137.033 1380.42 Z" fill="#000000" fill-rule="nonzero" fill-opacity="1" /><path clip-path="url(#clip860)" d="M50.9921 1176.38 L80.6679 1176.38 L80.6679 1180.32 L50.9921 1180.32 L50.9921 1176.38 Z" fill="#000000" fill-rule="nonzero" fill-opacity="1" /><path clip-path="url(#clip860)" d="M91.5706 1189.28 L99.2095 1189.28 L99.2095 1162.91 L90.8993 1164.58 L90.8993 1160.32 L99.1632 1158.65 L103.839 1158.65 L103.839 1189.28 L111.478 1189.28 L111.478 1193.21 L91.5706 1193.21 L91.5706 1189.28 Z" fill="#000000" fill-rule="nonzero" fill-opacity="1" /><path clip-path="url(#clip860)" d="M120.922 1187.33 L125.807 1187.33 L125.807 1193.21 L120.922 1193.21 L120.922 1187.33 Z" fill="#000000" fill-rule="nonzero" fill-opacity="1" /><path clip-path="url(#clip860)" d="M145.992 1161.73 Q142.381 1161.73 140.552 1165.3 Q138.746 1168.84 138.746 1175.97 Q138.746 1183.07 140.552 1186.64 Q142.381 1190.18 145.992 1190.18 Q149.626 1190.18 151.431 1186.64 Q153.26 1183.07 153.26 1175.97 Q153.26 1168.84 151.431 1165.3 Q149.626 1161.73 145.992 1161.73 M145.992 1158.03 Q151.802 1158.03 154.857 1162.63 Q157.936 1167.22 157.936 1175.97 Q157.936 1184.69 154.857 1189.3 Q151.802 1193.88 145.992 1193.88 Q140.181 1193.88 137.103 1189.3 Q134.047 1184.69 134.047 1175.97 Q134.047 1167.22 137.103 1162.63 Q140.181 1158.03 145.992 1158.03 Z" fill="#000000" fill-rule="nonzero" fill-opacity="1" /><path clip-path="url(#clip860)" d="M51.9875 954.619 L81.6633 954.619 L81.6633 958.554 L51.9875 958.554 L51.9875 954.619 Z" fill="#000000" fill-rule="nonzero" fill-opacity="1" /><path clip-path="url(#clip860)" d="M101.756 939.966 Q98.1447 939.966 96.316 943.531 Q94.5104 947.072 94.5104 954.202 Q94.5104 961.308 96.316 964.873 Q98.1447 968.415 101.756 968.415 Q105.39 968.415 107.196 964.873 Q109.024 961.308 109.024 954.202 Q109.024 947.072 107.196 943.531 Q105.39 939.966 101.756 939.966 M101.756 936.262 Q107.566 936.262 110.621 940.869 Q113.7 945.452 113.7 954.202 Q113.7 962.929 110.621 967.535 Q107.566 972.119 101.756 972.119 Q95.9456 972.119 92.8669 967.535 Q89.8114 962.929 89.8114 954.202 Q89.8114 945.452 92.8669 940.869 Q95.9456 936.262 101.756 936.262 Z" fill="#000000" fill-rule="nonzero" fill-opacity="1" /><path clip-path="url(#clip860)" d="M121.918 965.568 L126.802 965.568 L126.802 971.447 L121.918 971.447 L121.918 965.568 Z" fill="#000000" fill-rule="nonzero" fill-opacity="1" /><path clip-path="url(#clip860)" d="M137.033 936.887 L155.39 936.887 L155.39 940.822 L141.316 940.822 L141.316 949.295 Q142.334 948.947 143.353 948.785 Q144.371 948.6 145.39 948.6 Q151.177 948.6 154.556 951.771 Q157.936 954.943 157.936 960.359 Q157.936 965.938 154.464 969.04 Q150.992 972.119 144.672 972.119 Q142.496 972.119 140.228 971.748 Q137.982 971.378 135.575 970.637 L135.575 965.938 Q137.658 967.072 139.881 967.628 Q142.103 968.183 144.58 968.183 Q148.584 968.183 150.922 966.077 Q153.26 963.97 153.26 960.359 Q153.26 956.748 150.922 954.642 Q148.584 952.535 144.58 952.535 Q142.705 952.535 140.83 952.952 Q138.978 953.369 137.033 954.248 L137.033 936.887 Z" fill="#000000" fill-rule="nonzero" fill-opacity="1" /><path clip-path="url(#clip860)" d="M100.76 718.2 Q97.1493 718.2 95.3206 721.765 Q93.515 725.307 93.515 732.437 Q93.515 739.543 95.3206 743.108 Q97.1493 746.649 100.76 746.649 Q104.395 746.649 106.2 743.108 Q108.029 739.543 108.029 732.437 Q108.029 725.307 106.2 721.765 Q104.395 718.2 100.76 718.2 M100.76 714.497 Q106.571 714.497 109.626 719.103 Q112.705 723.687 112.705 732.437 Q112.705 741.163 109.626 745.77 Q106.571 750.353 100.76 750.353 Q94.9502 750.353 91.8715 745.77 Q88.816 741.163 88.816 732.437 Q88.816 723.687 91.8715 719.103 Q94.9502 714.497 100.76 714.497 Z" fill="#000000" fill-rule="nonzero" fill-opacity="1" /><path clip-path="url(#clip860)" d="M120.922 743.802 L125.807 743.802 L125.807 749.682 L120.922 749.682 L120.922 743.802 Z" fill="#000000" fill-rule="nonzero" fill-opacity="1" /><path clip-path="url(#clip860)" d="M145.992 718.2 Q142.381 718.2 140.552 721.765 Q138.746 725.307 138.746 732.437 Q138.746 739.543 140.552 743.108 Q142.381 746.649 145.992 746.649 Q149.626 746.649 151.431 743.108 Q153.26 739.543 153.26 732.437 Q153.26 725.307 151.431 721.765 Q149.626 718.2 145.992 718.2 M145.992 714.497 Q151.802 714.497 154.857 719.103 Q157.936 723.687 157.936 732.437 Q157.936 741.163 154.857 745.77 Q151.802 750.353 145.992 750.353 Q140.181 750.353 137.103 745.77 Q134.047 741.163 134.047 732.437 Q134.047 723.687 137.103 719.103 Q140.181 714.497 145.992 714.497 Z" fill="#000000" fill-rule="nonzero" fill-opacity="1" /><path clip-path="url(#clip860)" d="M101.756 496.435 Q98.1447 496.435 96.316 500 Q94.5104 503.541 94.5104 510.671 Q94.5104 517.778 96.316 521.342 Q98.1447 524.884 101.756 524.884 Q105.39 524.884 107.196 521.342 Q109.024 517.778 109.024 510.671 Q109.024 503.541 107.196 500 Q105.39 496.435 101.756 496.435 M101.756 492.731 Q107.566 492.731 110.621 497.338 Q113.7 501.921 113.7 510.671 Q113.7 519.398 110.621 524.004 Q107.566 528.588 101.756 528.588 Q95.9456 528.588 92.8669 524.004 Q89.8114 519.398 89.8114 510.671 Q89.8114 501.921 92.8669 497.338 Q95.9456 492.731 101.756 492.731 Z" fill="#000000" fill-rule="nonzero" fill-opacity="1" /><path clip-path="url(#clip860)" d="M121.918 522.037 L126.802 522.037 L126.802 527.916 L121.918 527.916 L121.918 522.037 Z" fill="#000000" fill-rule="nonzero" fill-opacity="1" /><path clip-path="url(#clip860)" d="M137.033 493.356 L155.39 493.356 L155.39 497.292 L141.316 497.292 L141.316 505.764 Q142.334 505.416 143.353 505.254 Q144.371 505.069 145.39 505.069 Q151.177 505.069 154.556 508.241 Q157.936 511.412 157.936 516.828 Q157.936 522.407 154.464 525.509 Q150.992 528.588 144.672 528.588 Q142.496 528.588 140.228 528.217 Q137.982 527.847 135.575 527.106 L135.575 522.407 Q137.658 523.541 139.881 524.097 Q142.103 524.652 144.58 524.652 Q148.584 524.652 150.922 522.546 Q153.26 520.44 153.26 516.828 Q153.26 513.217 150.922 511.111 Q148.584 509.004 144.58 509.004 Q142.705 509.004 140.83 509.421 Q138.978 509.838 137.033 510.717 L137.033 493.356 Z" fill="#000000" fill-rule="nonzero" fill-opacity="1" /><path clip-path="url(#clip860)" d="M91.5706 302.216 L99.2095 302.216 L99.2095 275.85 L90.8993 277.517 L90.8993 273.258 L99.1632 271.591 L103.839 271.591 L103.839 302.216 L111.478 302.216 L111.478 306.151 L91.5706 306.151 L91.5706 302.216 Z" fill="#000000" fill-rule="nonzero" fill-opacity="1" /><path clip-path="url(#clip860)" d="M120.922 300.271 L125.807 300.271 L125.807 306.151 L120.922 306.151 L120.922 300.271 Z" fill="#000000" fill-rule="nonzero" fill-opacity="1" /><path clip-path="url(#clip860)" d="M145.992 274.67 Q142.381 274.67 140.552 278.234 Q138.746 281.776 138.746 288.906 Q138.746 296.012 140.552 299.577 Q142.381 303.119 145.992 303.119 Q149.626 303.119 151.431 299.577 Q153.26 296.012 153.26 288.906 Q153.26 281.776 151.431 278.234 Q149.626 274.67 145.992 274.67 M145.992 270.966 Q151.802 270.966 154.857 275.572 Q157.936 280.156 157.936 288.906 Q157.936 297.632 154.857 302.239 Q151.802 306.822 145.992 306.822 Q140.181 306.822 137.103 302.239 Q134.047 297.632 134.047 288.906 Q134.047 280.156 137.103 275.572 Q140.181 270.966 145.992 270.966 Z" fill="#000000" fill-rule="nonzero" fill-opacity="1" /><path clip-path="url(#clip860)" d="M92.566 80.4503 L100.205 80.4503 L100.205 54.0847 L91.8947 55.7514 L91.8947 51.4921 L100.159 49.8255 L104.834 49.8255 L104.834 80.4503 L112.473 80.4503 L112.473 84.3855 L92.566 84.3855 L92.566 80.4503 Z" fill="#000000" fill-rule="nonzero" fill-opacity="1" /><path clip-path="url(#clip860)" d="M121.918 78.5059 L126.802 78.5059 L126.802 84.3855 L121.918 84.3855 L121.918 78.5059 Z" fill="#000000" fill-rule="nonzero" fill-opacity="1" /><path clip-path="url(#clip860)" d="M137.033 49.8255 L155.39 49.8255 L155.39 53.7606 L141.316 53.7606 L141.316 62.2328 Q142.334 61.8856 143.353 61.7236 Q144.371 61.5384 145.39 61.5384 Q151.177 61.5384 154.556 64.7097 Q157.936 67.8809 157.936 73.2976 Q157.936 78.8763 154.464 81.9781 Q150.992 85.0568 144.672 85.0568 Q142.496 85.0568 140.228 84.6864 Q137.982 84.316 135.575 83.5753 L135.575 78.8763 Q137.658 80.0105 139.881 80.5661 Q142.103 81.1216 144.58 81.1216 Q148.584 81.1216 150.922 79.0151 Q153.26 76.9087 153.26 73.2976 Q153.26 69.6865 150.922 67.58 Q148.584 65.4735 144.58 65.4735 Q142.705 65.4735 140.83 65.8902 Q138.978 66.3069 137.033 67.1865 L137.033 49.8255 Z" fill="#000000" fill-rule="nonzero" fill-opacity="1" /><path clip-path="url(#clip862)" d="M255.035 1108.1 L280.815 1084.39 L306.595 1103.31 L332.375 1153.55 L358.155 1067.94 L383.935 1012.48 L409.715 1019.83 L435.495 993.618 L461.275 1012.44 L487.055 980.479 L512.835 975.344 L538.615 1007.23 L564.395 1018.85 L590.175 999.036 L615.955 933.619 L641.735 974.282 L667.515 861.091 L693.295 785.826 L719.075 740.043 L744.855 694.562 L770.635 656.733 L796.415 628.904 L822.195 634.875 L847.975 615.421 L873.755 621.154 L899.535 668.794 L925.316 615.281 L951.096 641.892 L976.876 768.957 L1002.66 763.274 L1028.44 728.186 L1054.22 764.058 L1080 790.136 L1105.78 853.43 L1131.56 888.799 L1157.34 926.986 L1183.12 987.434 L1208.9 985.665 L1234.68 1026.78 L1260.46 953.634 L1286.24 963.129 L1312.02 1073.07 L1337.8 1110.69 L1363.58 1101.14 L1389.36 1169.52 L1415.14 1200.06 L1440.92 1231.73 L1466.7 1305.38 L1492.48 1270.04 L1518.26 1354.58 L1544.04 1368.45 L1569.82 1372.16 L1595.6 1431.93 L1621.38 1418.97 L1647.16 1445.72 L1672.94 1376.87 L1698.72 1356.39 L1724.5 1176.92 L1750.28 1126.69 L1776.06 1026.76 L1801.84 977.318 L1827.62 950.446 L1853.4 900.369 L1879.18 854.044 L1904.96 748.585 L1930.74 771.945 L1956.52 666.217 L1982.3 629.402 L2008.08 617.912 L2033.86 608.488 L2059.64 652.072 L2085.42 648.732 L2111.2 711.703 L2136.98 720.336 L2162.76 729.2 L2188.54 882.802 L2214.32 913.176 L2240.1 862.984 L2265.88 782.694 L2291.66 711.929 L2291.66 202.068 L2265.88 272.232 L2240.1 369.602 L2214.32 441.704 L2188.54 440.917 L2162.76 285.576 L2136.98 252.77 L2111.2 259.341 L2085.42 205.503 L2059.64 243.845 L2033.86 196.652 L2008.08 204.489 L1982.3 201.204 L1956.52 232.877 L1930.74 336.594 L1904.96 291.342 L1879.18 377.341 L1853.4 413.103 L1827.62 488.814 L1801.84 520.806 L1776.06 577.139 L1750.28 702.265 L1724.5 760.152 L1698.72 893.201 L1672.94 947.111 L1647.16 1015.74 L1621.38 991.827 L1595.6 1017.33 L1569.82 938.521 L1544.04 932.187 L1518.26 890.711 L1492.48 855.021 L1466.7 860.354 L1440.92 796.253 L1415.14 745.966 L1389.36 712.432 L1363.58 650.323 L1337.8 647.273 L1312.02 619.611 L1286.24 528.014 L1260.46 522.858 L1234.68 572.28 L1208.9 563.568 L1183.12 568.761 L1157.34 497.725 L1131.56 447.46 L1105.78 394.594 L1080 338.534 L1054.22 314.023 L1028.44 257.195 L1002.66 275.146 L976.876 253.605 L951.096 105.708 L925.316 87.9763 L899.535 151.381 L873.755 130.791 L847.975 150.786 L822.195 165.117 L796.415 174.163 L770.635 205.191 L744.855 218.923 L719.075 261.687 L693.295 298.37 L667.515 386.429 L641.735 496.159 L615.955 480.358 L590.175 569.653 L564.395 591.894 L538.615 562.6 L512.835 532.916 L487.055 534.919 L461.275 576.569 L435.495 572.259 L409.715 573.08 L383.935 562.271 L358.155 609.494 L332.375 677.557 L306.595 612.046 L280.815 555.306 L255.035 582.159  Z" fill="#009af9" fill-rule="evenodd" fill-opacity="0.5"/>
<polyline clip-path="url(#clip862)" style="stroke:#009af9; stroke-linecap:round; stroke-linejoin:round; stroke-width:4; stroke-opacity:1; fill:none" points="255.035,845.131 280.815,819.847 306.595,857.68 332.375,915.555 358.155,838.719 383.935,787.377 409.715,796.453 435.495,782.939 461.275,794.505 487.055,757.699 512.835,754.13 538.615,784.914 564.395,805.372 590.175,784.344 615.955,706.989 641.735,735.221 667.515,623.76 693.295,542.098 719.075,500.865 744.855,456.742 770.635,430.962 796.415,401.534 822.195,399.996 847.975,383.104 873.755,375.973 899.535,410.088 925.316,351.629 951.096,373.8 976.876,511.281 1002.66,519.21 1028.44,492.69 1054.22,539.04 1080,564.335 1105.78,624.012 1131.56,668.13 1157.34,712.355 1183.12,778.098 1208.9,774.617 1234.68,799.531 1260.46,738.246 1286.24,745.572 1312.02,846.341 1337.8,878.98 1363.58,875.731 1389.36,940.974 1415.14,973.015 1440.92,1013.99 1466.7,1082.87 1492.48,1062.53 1518.26,1122.64 1544.04,1150.32 1569.82,1155.34 1595.6,1224.63 1621.38,1205.4 1647.16,1230.73 1672.94,1161.99 1698.72,1124.79 1724.5,968.535 1750.28,914.476 1776.06,801.948 1801.84,749.062 1827.62,719.63 1853.4,656.736 1879.18,615.692 1904.96,519.963 1930.74,554.269 1956.52,449.547 1982.3,415.303 2008.08,411.2 2033.86,402.57 2059.64,447.959 2085.42,427.118 2111.2,485.522 2136.98,486.553 2162.76,507.388 2188.54,661.86 2214.32,677.44 2240.1,616.293 2265.88,527.463 2291.66,456.998 "/>
<path clip-path="url(#clip862)" d="M255.035 940.394 L280.815 927.801 L306.595 927.127 L332.375 866.995 L358.155 916.262 L383.935 900.831 L409.715 850.176 L435.495 861.859 L461.275 824.76 L487.055 836.423 L512.835 825.029 L538.615 822.578 L564.395 835.618 L590.175 882.685 L615.955 878.151 L641.735 905.887 L667.515 938.929 L693.295 938.351 L719.075 920.219 L744.855 916.837 L770.635 902.677 L796.415 866.016 L822.195 861.082 L847.975 871.097 L873.755 843.414 L899.535 757.596 L925.316 732.003 L951.096 679.461 L976.876 631.435 L1002.66 552.222 L1028.44 476.716 L1054.22 450.936 L1080 437.69 L1105.78 430.662 L1131.56 450.735 L1157.34 485.819 L1183.12 478.792 L1208.9 490.629 L1234.68 514.229 L1260.46 537.387 L1286.24 576.68 L1312.02 589.858 L1337.8 612.188 L1363.58 629.001 L1389.36 665.021 L1415.14 707.833 L1440.92 737.837 L1466.7 759.65 L1492.48 768.613 L1518.26 749.484 L1544.04 763.147 L1569.82 791.202 L1595.6 829.247 L1621.38 875.504 L1647.16 956.832 L1672.94 1025.08 L1698.72 1113.89 L1724.5 1161.25 L1750.28 1195.16 L1776.06 1220.25 L1801.84 1192.77 L1827.62 1139.01 L1853.4 1132.2 L1879.18 1116.97 L1904.96 1062.82 L1930.74 1057.19 L1956.52 1032.28 L1982.3 993.532 L2008.08 959.703 L2033.86 898.619 L2059.64 849.089 L2085.42 778.391 L2111.2 749.448 L2136.98 742.98 L2162.76 752.932 L2188.54 757.985 L2214.32 746.789 L2240.1 751.531 L2265.88 763.306 L2291.66 769.304 L2291.66 542.856 L2265.88 547.393 L2240.1 571.442 L2214.32 581.054 L2188.54 557.317 L2162.76 576.421 L2136.98 576.22 L2111.2 566.8 L2085.42 584.5 L2059.64 626.043 L2033.86 700.713 L2008.08 761.669 L1982.3 806.852 L1956.52 840.733 L1930.74 887.157 L1904.96 904.346 L1879.18 929.491 L1853.4 967.903 L1827.62 982.947 L1801.84 1014.79 L1776.06 1016.14 L1750.28 1035.46 L1724.5 1010.32 L1698.72 970.074 L1672.94 880.013 L1647.16 795.954 L1621.38 704.164 L1595.6 650.951 L1569.82 621.935 L1544.04 585.971 L1518.26 585.012 L1492.48 591.84 L1466.7 585.136 L1440.92 567.653 L1415.14 527.541 L1389.36 482.32 L1363.58 453.912 L1337.8 435.406 L1312.02 396.848 L1286.24 392.515 L1260.46 364.746 L1234.68 337.75 L1208.9 320.04 L1183.12 292.994 L1157.34 280.627 L1131.56 255.156 L1105.78 242.532 L1080 234.121 L1054.22 260.008 L1028.44 309.769 L1002.66 394.279 L976.876 446.18 L951.096 519.96 L925.316 561.111 L899.535 592.905 L873.755 652.066 L847.975 680.406 L822.195 678.633 L796.415 681.09 L770.635 714.355 L744.855 745.057 L719.075 757.821 L693.295 761.271 L667.515 729.009 L641.735 716.639 L615.955 688.324 L590.175 673.522 L564.395 646.395 L538.615 628.35 L512.835 623.813 L487.055 655.797 L461.275 652.003 L435.495 682.666 L409.715 693.683 L383.935 729.676 L358.155 747.931 L332.375 763.484 L306.595 772.504 L280.815 714.611 L255.035 673.739  Z" fill="#e26f46" fill-rule="evenodd" fill-opacity="0.5"/>
<polyline clip-path="url(#clip862)" style="stroke:#e26f46; stroke-linecap:round; stroke-linejoin:round; stroke-width:4; stroke-opacity:1; fill:none" points="255.035,807.067 280.815,821.206 306.595,849.815 332.375,815.24 358.155,832.097 383.935,815.254 409.715,771.93 435.495,772.262 461.275,738.382 487.055,746.11 512.835,724.421 538.615,725.464 564.395,741.007 590.175,778.104 615.955,783.238 641.735,811.263 667.515,833.969 693.295,849.811 719.075,839.02 744.855,830.947 770.635,808.516 796.415,773.553 822.195,769.858 847.975,775.751 873.755,747.74 899.535,675.25 925.316,646.557 951.096,599.71 976.876,538.808 1002.66,473.25 1028.44,393.243 1054.22,355.472 1080,335.906 1105.78,336.597 1131.56,352.945 1157.34,383.223 1183.12,385.893 1208.9,405.334 1234.68,425.989 1260.46,451.067 1286.24,484.597 1312.02,493.353 1337.8,523.797 1363.58,541.457 1389.36,573.67 1415.14,617.687 1440.92,652.745 1466.7,672.393 1492.48,680.227 1518.26,667.248 1544.04,674.559 1569.82,706.569 1595.6,740.099 1621.38,789.834 1647.16,876.393 1672.94,952.548 1698.72,1041.98 1724.5,1085.78 1750.28,1115.31 1776.06,1118.19 1801.84,1103.78 1827.62,1060.98 1853.4,1050.05 1879.18,1023.23 1904.96,983.585 1930.74,972.173 1956.52,936.509 1982.3,900.192 2008.08,860.686 2033.86,799.666 2059.64,737.566 2085.42,681.446 2111.2,658.124 2136.98,659.6 2162.76,664.677 2188.54,657.651 2214.32,663.922 2240.1,661.487 2265.88,655.349 2291.66,656.08 "/>
<polyline clip-path="url(#clip862)" style="stroke:#3da44d; stroke-linecap:round; stroke-linejoin:round; stroke-width:4; stroke-opacity:1; fill:none" stroke-dasharray="16, 10" points="255.035,698.063 280.815,708.954 306.595,777.2 332.375,812.811 358.155,681.672 383.935,613.604 409.715,690.082 435.495,643.521 461.275,614.46 487.055,649.498 512.835,667.476 538.615,761.345 564.395,815.59 590.175,684.829 615.955,581.6 641.735,622.986 667.515,579.487 693.295,547.831 719.075,497.759 744.855,490.807 770.635,422.493 796.415,274.224 822.195,368.844 847.975,431.09 873.755,362.357 899.535,477.839 925.316,476.359 951.096,523.058 976.876,730.618 1002.66,758.061 1028.44,645.934 1054.22,621.408 1080,579.518 1105.78,600.681 1131.56,618.817 1157.34,581.557 1183.12,649.361 1208.9,631.465 1234.68,655.469 1260.46,642.505 1286.24,643.594 1312.02,707.184 1337.8,703.278 1363.58,713.877 1389.36,755.32 1415.14,760.723 1440.92,792.656 1466.7,928.694 1492.48,839.725 1518.26,1023.6 1544.04,1017.54 1569.82,972.53 1595.6,938.347 1621.38,1025.52 1647.16,980.221 1672.94,913.275 1698.72,977.432 1724.5,779.003 1750.28,764.23 1776.06,725.972 1801.84,681.672 1827.62,659.654 1853.4,610.002 1879.18,618.935 1904.96,550.906 1930.74,570.145 1956.52,462.949 1982.3,511.643 2008.08,484.534 2033.86,440.532 2059.64,518.561 2085.42,562.421 2111.2,606.885 2136.98,597.553 2162.76,618.669 2188.54,747.521 2214.32,806.205 2240.1,906.002 2265.88,767.348 2291.66,637.696 "/>
<polyline clip-path="url(#clip862)" style="stroke:#c271d2; stroke-linecap:round; stroke-linejoin:round; stroke-width:4; stroke-opacity:1; fill:none" stroke-dasharray="16, 10" points="255.035,809.243 280.815,777.395 306.595,856.682 332.375,844.281 358.155,873.148 383.935,786.872 409.715,746.379 435.495,752.626 461.275,701.997 487.055,677.963 512.835,618.659 538.615,657.692 564.395,674.14 590.175,745.298 615.955,745.434 641.735,742.791 667.515,791.408 693.295,746.399 719.075,781.589 744.855,806.412 770.635,744.276 796.415,716.33 822.195,759.884 847.975,784.831 873.755,746.5 899.535,654.671 925.316,651.984 951.096,638.087 976.876,526.325 1002.66,456.336 1028.44,451.343 1054.22,418.067 1080,418.171 1105.78,402.787 1131.56,357.466 1157.34,356.561 1183.12,385.614 1208.9,456.957 1234.68,552.964 1260.46,578.417 1286.24,549.39 1312.02,615.853 1337.8,614.361 1363.58,598.636 1389.36,610.031 1415.14,657.971 1440.92,613.88 1466.7,676.935 1492.48,670.593 1518.26,673.315 1544.04,711.372 1569.82,782.056 1595.6,823.486 1621.38,804.726 1647.16,910.434 1672.94,957.772 1698.72,1001.08 1724.5,1072.96 1750.28,1049.35 1776.06,1048.06 1801.84,1023.16 1827.62,958.727 1853.4,975.199 1879.18,1040.87 1904.96,948.081 1930.74,976.695 1956.52,933.937 1982.3,902.234 2008.08,774.448 2033.86,728.112 2059.64,673.418 2085.42,667.011 2111.2,640.189 2136.98,603.257 2162.76,637.681 2188.54,643.043 2214.32,664.357 2240.1,648.682 2265.88,670.45 2291.66,667.604 "/>
<path clip-path="url(#clip860)" d="M265.897 354.418 L721.546 354.418 L721.546 95.2176 L265.897 95.2176  Z" fill="#ffffff" fill-rule="evenodd" fill-opacity="1"/>
<polyline clip-path="url(#clip860)" style="stroke:#000000; stroke-linecap:round; stroke-linejoin:round; stroke-width:4; stroke-opacity:1; fill:none" points="265.897,354.418 721.546,354.418 721.546,95.2176 265.897,95.2176 265.897,354.418 "/>
<polyline clip-path="url(#clip860)" style="stroke:#009af9; stroke-linecap:round; stroke-linejoin:round; stroke-width:4; stroke-opacity:1; fill:none" points="289.884,147.058 433.805,147.058 "/>
<path clip-path="url(#clip860)" d="M462.468 133.62 L462.468 146.606 L468.347 146.606 Q471.611 146.606 473.394 144.916 Q475.176 143.227 475.176 140.102 Q475.176 137 473.394 135.31 Q471.611 133.62 468.347 133.62 L462.468 133.62 M457.792 129.778 L468.347 129.778 Q474.157 129.778 477.12 132.416 Q480.106 135.032 480.106 140.102 Q480.106 145.217 477.12 147.833 Q474.157 150.449 468.347 150.449 L462.468 150.449 L462.468 164.338 L457.792 164.338 L457.792 129.778 Z" fill="#000000" fill-rule="nonzero" fill-opacity="1" /><path clip-path="url(#clip860)" d="M486.38 129.778 L506.241 129.778 L506.241 133.713 L491.055 133.713 L491.055 143.898 L504.759 143.898 L504.759 147.833 L491.055 147.833 L491.055 164.338 L486.38 164.338 L486.38 129.778 Z" fill="#000000" fill-rule="nonzero" fill-opacity="1" /><path clip-path="url(#clip860)" d="M545.06 139.176 L545.06 143.203 Q543.254 142.277 541.31 141.815 Q539.365 141.352 537.282 141.352 Q534.111 141.352 532.514 142.324 Q530.94 143.296 530.94 145.24 Q530.94 146.722 532.074 147.578 Q533.208 148.412 536.634 149.176 L538.092 149.5 Q542.629 150.472 544.527 152.254 Q546.449 154.014 546.449 157.185 Q546.449 160.796 543.578 162.902 Q540.731 165.009 535.731 165.009 Q533.648 165.009 531.379 164.592 Q529.134 164.199 526.634 163.388 L526.634 158.99 Q528.995 160.217 531.287 160.842 Q533.578 161.444 535.824 161.444 Q538.833 161.444 540.453 160.426 Q542.074 159.384 542.074 157.509 Q542.074 155.773 540.893 154.847 Q539.736 153.921 535.777 153.064 L534.296 152.717 Q530.338 151.884 528.578 150.171 Q526.819 148.435 526.819 145.426 Q526.819 141.768 529.412 139.778 Q532.004 137.787 536.773 137.787 Q539.134 137.787 541.217 138.134 Q543.301 138.481 545.06 139.176 Z" fill="#000000" fill-rule="nonzero" fill-opacity="1" /><path clip-path="url(#clip860)" d="M573.416 143.389 Q575.013 140.518 577.236 139.153 Q579.458 137.787 582.467 137.787 Q586.518 137.787 588.717 140.634 Q590.916 143.458 590.916 148.689 L590.916 164.338 L586.634 164.338 L586.634 148.828 Q586.634 145.102 585.314 143.296 Q583.995 141.49 581.286 141.49 Q577.976 141.49 576.055 143.69 Q574.134 145.889 574.134 149.685 L574.134 164.338 L569.851 164.338 L569.851 148.828 Q569.851 145.078 568.532 143.296 Q567.212 141.49 564.458 141.49 Q561.194 141.49 559.273 143.713 Q557.351 145.912 557.351 149.685 L557.351 164.338 L553.069 164.338 L553.069 138.412 L557.351 138.412 L557.351 142.44 Q558.81 140.055 560.847 138.921 Q562.884 137.787 565.685 137.787 Q568.509 137.787 570.476 139.222 Q572.467 140.657 573.416 143.389 Z" fill="#000000" fill-rule="nonzero" fill-opacity="1" /><path clip-path="url(#clip860)" d="M609.458 141.398 Q606.032 141.398 604.041 144.083 Q602.05 146.745 602.05 151.398 Q602.05 156.051 604.018 158.736 Q606.009 161.398 609.458 161.398 Q612.86 161.398 614.851 158.713 Q616.842 156.027 616.842 151.398 Q616.842 146.791 614.851 144.106 Q612.86 141.398 609.458 141.398 M609.458 137.787 Q615.013 137.787 618.184 141.398 Q621.356 145.009 621.356 151.398 Q621.356 157.764 618.184 161.398 Q615.013 165.009 609.458 165.009 Q603.879 165.009 600.708 161.398 Q597.56 157.764 597.56 151.398 Q597.56 145.009 600.708 141.398 Q603.879 137.787 609.458 137.787 Z" fill="#000000" fill-rule="nonzero" fill-opacity="1" /><path clip-path="url(#clip860)" d="M638.462 141.398 Q635.036 141.398 633.045 144.083 Q631.055 146.745 631.055 151.398 Q631.055 156.051 633.022 158.736 Q635.013 161.398 638.462 161.398 Q641.865 161.398 643.856 158.713 Q645.846 156.027 645.846 151.398 Q645.846 146.791 643.856 144.106 Q641.865 141.398 638.462 141.398 M638.462 137.787 Q644.018 137.787 647.189 141.398 Q650.36 145.009 650.36 151.398 Q650.36 157.764 647.189 161.398 Q644.018 165.009 638.462 165.009 Q632.883 165.009 629.712 161.398 Q626.564 157.764 626.564 151.398 Q626.564 145.009 629.712 141.398 Q632.883 137.787 638.462 137.787 Z" fill="#000000" fill-rule="nonzero" fill-opacity="1" /><path clip-path="url(#clip860)" d="M661.633 131.051 L661.633 138.412 L670.406 138.412 L670.406 141.722 L661.633 141.722 L661.633 155.796 Q661.633 158.967 662.49 159.87 Q663.369 160.773 666.031 160.773 L670.406 160.773 L670.406 164.338 L666.031 164.338 Q661.101 164.338 659.226 162.509 Q657.351 160.657 657.351 155.796 L657.351 141.722 L654.226 141.722 L654.226 138.412 L657.351 138.412 L657.351 131.051 L661.633 131.051 Z" fill="#000000" fill-rule="nonzero" fill-opacity="1" /><path clip-path="url(#clip860)" d="M697.559 148.689 L697.559 164.338 L693.3 164.338 L693.3 148.828 Q693.3 145.148 691.865 143.319 Q690.429 141.49 687.559 141.49 Q684.11 141.49 682.119 143.69 Q680.129 145.889 680.129 149.685 L680.129 164.338 L675.846 164.338 L675.846 128.319 L680.129 128.319 L680.129 142.44 Q681.656 140.102 683.716 138.944 Q685.8 137.787 688.508 137.787 Q692.976 137.787 695.267 140.565 Q697.559 143.319 697.559 148.689 Z" fill="#000000" fill-rule="nonzero" fill-opacity="1" /><polyline clip-path="url(#clip860)" style="stroke:#e26f46; stroke-linecap:round; stroke-linejoin:round; stroke-width:4; stroke-opacity:1; fill:none" points="289.884,198.898 433.805,198.898 "/>
<path clip-path="url(#clip860)" d="M462.468 185.46 L462.468 198.446 L468.347 198.446 Q471.611 198.446 473.394 196.756 Q475.176 195.067 475.176 191.942 Q475.176 188.84 473.394 187.15 Q471.611 185.46 468.347 185.46 L462.468 185.46 M457.792 181.618 L468.347 181.618 Q474.157 181.618 477.12 184.256 Q480.106 186.872 480.106 191.942 Q480.106 197.057 477.12 199.673 Q474.157 202.289 468.347 202.289 L462.468 202.289 L462.468 216.178 L457.792 216.178 L457.792 181.618 Z" fill="#000000" fill-rule="nonzero" fill-opacity="1" /><path clip-path="url(#clip860)" d="M486.38 181.618 L506.241 181.618 L506.241 185.553 L491.055 185.553 L491.055 195.738 L504.759 195.738 L504.759 199.673 L491.055 199.673 L491.055 216.178 L486.38 216.178 L486.38 181.618 Z" fill="#000000" fill-rule="nonzero" fill-opacity="1" /><path clip-path="url(#clip860)" d="M545.06 191.016 L545.06 195.043 Q543.254 194.117 541.31 193.655 Q539.365 193.192 537.282 193.192 Q534.111 193.192 532.514 194.164 Q530.94 195.136 530.94 197.08 Q530.94 198.562 532.074 199.418 Q533.208 200.252 536.634 201.016 L538.092 201.34 Q542.629 202.312 544.527 204.094 Q546.449 205.854 546.449 209.025 Q546.449 212.636 543.578 214.742 Q540.731 216.849 535.731 216.849 Q533.648 216.849 531.379 216.432 Q529.134 216.039 526.634 215.228 L526.634 210.83 Q528.995 212.057 531.287 212.682 Q533.578 213.284 535.824 213.284 Q538.833 213.284 540.453 212.266 Q542.074 211.224 542.074 209.349 Q542.074 207.613 540.893 206.687 Q539.736 205.761 535.777 204.904 L534.296 204.557 Q530.338 203.724 528.578 202.011 Q526.819 200.275 526.819 197.266 Q526.819 193.608 529.412 191.618 Q532.004 189.627 536.773 189.627 Q539.134 189.627 541.217 189.974 Q543.301 190.321 545.06 191.016 Z" fill="#000000" fill-rule="nonzero" fill-opacity="1" /><path clip-path="url(#clip860)" d="M573.416 195.229 Q575.013 192.358 577.236 190.993 Q579.458 189.627 582.467 189.627 Q586.518 189.627 588.717 192.474 Q590.916 195.298 590.916 200.529 L590.916 216.178 L586.634 216.178 L586.634 200.668 Q586.634 196.942 585.314 195.136 Q583.995 193.33 581.286 193.33 Q577.976 193.33 576.055 195.53 Q574.134 197.729 574.134 201.525 L574.134 216.178 L569.851 216.178 L569.851 200.668 Q569.851 196.918 568.532 195.136 Q567.212 193.33 564.458 193.33 Q561.194 193.33 559.273 195.553 Q557.351 197.752 557.351 201.525 L557.351 216.178 L553.069 216.178 L553.069 190.252 L557.351 190.252 L557.351 194.28 Q558.81 191.895 560.847 190.761 Q562.884 189.627 565.685 189.627 Q568.509 189.627 570.476 191.062 Q572.467 192.497 573.416 195.229 Z" fill="#000000" fill-rule="nonzero" fill-opacity="1" /><path clip-path="url(#clip860)" d="M609.458 193.238 Q606.032 193.238 604.041 195.923 Q602.05 198.585 602.05 203.238 Q602.05 207.891 604.018 210.576 Q606.009 213.238 609.458 213.238 Q612.86 213.238 614.851 210.553 Q616.842 207.867 616.842 203.238 Q616.842 198.631 614.851 195.946 Q612.86 193.238 609.458 193.238 M609.458 189.627 Q615.013 189.627 618.184 193.238 Q621.356 196.849 621.356 203.238 Q621.356 209.604 618.184 213.238 Q615.013 216.849 609.458 216.849 Q603.879 216.849 600.708 213.238 Q597.56 209.604 597.56 203.238 Q597.56 196.849 600.708 193.238 Q603.879 189.627 609.458 189.627 Z" fill="#000000" fill-rule="nonzero" fill-opacity="1" /><path clip-path="url(#clip860)" d="M638.462 193.238 Q635.036 193.238 633.045 195.923 Q631.055 198.585 631.055 203.238 Q631.055 207.891 633.022 210.576 Q635.013 213.238 638.462 213.238 Q641.865 213.238 643.856 210.553 Q645.846 207.867 645.846 203.238 Q645.846 198.631 643.856 195.946 Q641.865 193.238 638.462 193.238 M638.462 189.627 Q644.018 189.627 647.189 193.238 Q650.36 196.849 650.36 203.238 Q650.36 209.604 647.189 213.238 Q644.018 216.849 638.462 216.849 Q632.883 216.849 629.712 213.238 Q626.564 209.604 626.564 203.238 Q626.564 196.849 629.712 193.238 Q632.883 189.627 638.462 189.627 Z" fill="#000000" fill-rule="nonzero" fill-opacity="1" /><path clip-path="url(#clip860)" d="M661.633 182.891 L661.633 190.252 L670.406 190.252 L670.406 193.562 L661.633 193.562 L661.633 207.636 Q661.633 210.807 662.49 211.71 Q663.369 212.613 666.031 212.613 L670.406 212.613 L670.406 216.178 L666.031 216.178 Q661.101 216.178 659.226 214.349 Q657.351 212.497 657.351 207.636 L657.351 193.562 L654.226 193.562 L654.226 190.252 L657.351 190.252 L657.351 182.891 L661.633 182.891 Z" fill="#000000" fill-rule="nonzero" fill-opacity="1" /><path clip-path="url(#clip860)" d="M697.559 200.529 L697.559 216.178 L693.3 216.178 L693.3 200.668 Q693.3 196.988 691.865 195.159 Q690.429 193.33 687.559 193.33 Q684.11 193.33 682.119 195.53 Q680.129 197.729 680.129 201.525 L680.129 216.178 L675.846 216.178 L675.846 180.159 L680.129 180.159 L680.129 194.28 Q681.656 191.942 683.716 190.784 Q685.8 189.627 688.508 189.627 Q692.976 189.627 695.267 192.405 Q697.559 195.159 697.559 200.529 Z" fill="#000000" fill-rule="nonzero" fill-opacity="1" /><polyline clip-path="url(#clip860)" style="stroke:#3da44d; stroke-linecap:round; stroke-linejoin:round; stroke-width:4; stroke-opacity:1; fill:none" stroke-dasharray="16, 10" points="289.884,250.738 433.805,250.738 "/>
<path clip-path="url(#clip860)" d="M457.792 233.458 L487.028 233.458 L487.028 237.393 L474.759 237.393 L474.759 268.018 L470.06 268.018 L470.06 237.393 L457.792 237.393 L457.792 233.458 Z" fill="#000000" fill-rule="nonzero" fill-opacity="1" /><path clip-path="url(#clip860)" d="M499.412 246.073 Q498.694 245.657 497.838 245.471 Q497.005 245.263 495.986 245.263 Q492.375 245.263 490.43 247.624 Q488.509 249.962 488.509 254.36 L488.509 268.018 L484.227 268.018 L484.227 242.092 L488.509 242.092 L488.509 246.12 Q489.852 243.758 492.005 242.624 Q494.157 241.467 497.236 241.467 Q497.676 241.467 498.208 241.536 Q498.741 241.583 499.389 241.698 L499.412 246.073 Z" fill="#000000" fill-rule="nonzero" fill-opacity="1" /><path clip-path="url(#clip860)" d="M503.44 257.786 L503.44 242.092 L507.699 242.092 L507.699 257.624 Q507.699 261.305 509.134 263.156 Q510.569 264.985 513.44 264.985 Q516.889 264.985 518.879 262.786 Q520.893 260.587 520.893 256.791 L520.893 242.092 L525.153 242.092 L525.153 268.018 L520.893 268.018 L520.893 264.036 Q519.342 266.397 517.282 267.555 Q515.245 268.689 512.537 268.689 Q508.069 268.689 505.754 265.911 Q503.44 263.133 503.44 257.786 M514.157 241.467 L514.157 241.467 Z" fill="#000000" fill-rule="nonzero" fill-opacity="1" /><path clip-path="url(#clip860)" d="M556.101 253.99 L556.101 256.073 L536.518 256.073 Q536.796 260.471 539.157 262.786 Q541.541 265.078 545.777 265.078 Q548.231 265.078 550.523 264.476 Q552.838 263.874 555.106 262.67 L555.106 266.698 Q552.814 267.67 550.407 268.18 Q548 268.689 545.523 268.689 Q539.319 268.689 535.685 265.078 Q532.074 261.467 532.074 255.309 Q532.074 248.944 535.5 245.217 Q538.949 241.467 544.782 241.467 Q550.013 241.467 553.046 244.846 Q556.101 248.203 556.101 253.99 M551.842 252.74 Q551.796 249.245 549.875 247.161 Q547.976 245.078 544.828 245.078 Q541.264 245.078 539.111 247.092 Q536.981 249.106 536.657 252.763 L551.842 252.74 Z" fill="#000000" fill-rule="nonzero" fill-opacity="1" /><polyline clip-path="url(#clip860)" style="stroke:#c271d2; stroke-linecap:round; stroke-linejoin:round; stroke-width:4; stroke-opacity:1; fill:none" stroke-dasharray="16, 10" points="289.884,302.578 433.805,302.578 "/>
<path clip-path="url(#clip860)" d="M457.792 285.298 L487.028 285.298 L487.028 289.233 L474.759 289.233 L474.759 319.858 L470.06 319.858 L470.06 289.233 L457.792 289.233 L457.792 285.298 Z" fill="#000000" fill-rule="nonzero" fill-opacity="1" /><path clip-path="url(#clip860)" d="M499.412 297.913 Q498.694 297.497 497.838 297.311 Q497.005 297.103 495.986 297.103 Q492.375 297.103 490.43 299.464 Q488.509 301.802 488.509 306.2 L488.509 319.858 L484.227 319.858 L484.227 293.932 L488.509 293.932 L488.509 297.96 Q489.852 295.598 492.005 294.464 Q494.157 293.307 497.236 293.307 Q497.676 293.307 498.208 293.376 Q498.741 293.423 499.389 293.538 L499.412 297.913 Z" fill="#000000" fill-rule="nonzero" fill-opacity="1" /><path clip-path="url(#clip860)" d="M503.44 309.626 L503.44 293.932 L507.699 293.932 L507.699 309.464 Q507.699 313.145 509.134 314.996 Q510.569 316.825 513.44 316.825 Q516.889 316.825 518.879 314.626 Q520.893 312.427 520.893 308.631 L520.893 293.932 L525.153 293.932 L525.153 319.858 L520.893 319.858 L520.893 315.876 Q519.342 318.237 517.282 319.395 Q515.245 320.529 512.537 320.529 Q508.069 320.529 505.754 317.751 Q503.44 314.973 503.44 309.626 M514.157 293.307 L514.157 293.307 Z" fill="#000000" fill-rule="nonzero" fill-opacity="1" /><path clip-path="url(#clip860)" d="M556.101 305.83 L556.101 307.913 L536.518 307.913 Q536.796 312.311 539.157 314.626 Q541.541 316.918 545.777 316.918 Q548.231 316.918 550.523 316.316 Q552.838 315.714 555.106 314.51 L555.106 318.538 Q552.814 319.51 550.407 320.02 Q548 320.529 545.523 320.529 Q539.319 320.529 535.685 316.918 Q532.074 313.307 532.074 307.149 Q532.074 300.784 535.5 297.057 Q538.949 293.307 544.782 293.307 Q550.013 293.307 553.046 296.686 Q556.101 300.043 556.101 305.83 M551.842 304.58 Q551.796 301.085 549.875 299.001 Q547.976 296.918 544.828 296.918 Q541.264 296.918 539.111 298.932 Q536.981 300.946 536.657 304.603 L551.842 304.58 Z" fill="#000000" fill-rule="nonzero" fill-opacity="1" /></svg>
