<?xml version="1.0" encoding="utf-8"?>
<svg xmlns="http://www.w3.org/2000/svg" xmlns:xlink="http://www.w3.org/1999/xlink" width="600" height="400" viewBox="0 0 2400 1600">
<defs>
  <clipPath id="clip480">
    <rect x="0" y="0" width="2400" height="1600"/>
  </clipPath>
</defs>
<path clip-path="url(#clip480)" d="M0 1600 L2400 1600 L2400 0 L0 0  Z" fill="#ffffff" fill-rule="evenodd" fill-opacity="1"/>
<defs>
  <clipPath id="clip481">
    <rect x="177" y="47" width="2176" height="1440"/>
  </clipPath>
</defs>
<path clip-path="url(#clip480)" d="M177.871 1486.45 L2352.76 1486.45 L2352.76 47.2441 L177.871 47.2441  Z" fill="#ffffff" fill-rule="evenodd" fill-opacity="1"/>
<polyline clip-path="url(#clip481)" style="stroke:#000000; stroke-linecap:round; stroke-linejoin:round; stroke-width:2; stroke-opacity:0.1; fill:none" points="386.991,1486.45 386.991,47.2441 "/>
<polyline clip-path="url(#clip481)" style="stroke:#000000; stroke-linecap:round; stroke-linejoin:round; stroke-width:2; stroke-opacity:0.1; fill:none" points="813.383,1486.45 813.383,47.2441 "/>
<polyline clip-path="url(#clip481)" style="stroke:#000000; stroke-linecap:round; stroke-linejoin:round; stroke-width:2; stroke-opacity:0.1; fill:none" points="1239.78,1486.45 1239.78,47.2441 "/>
<polyline clip-path="url(#clip481)" style="stroke:#000000; stroke-linecap:round; stroke-linejoin:round; stroke-width:2; stroke-opacity:0.1; fill:none" points="1666.17,1486.45 1666.17,47.2441 "/>
<polyline clip-path="url(#clip481)" style="stroke:#000000; stroke-linecap:round; stroke-linejoin:round; stroke-width:2; stroke-opacity:0.1; fill:none" points="2092.56,1486.45 2092.56,47.2441 "/>
<polyline clip-path="url(#clip481)" style="stroke:#000000; stroke-linecap:round; stroke-linejoin:round; stroke-width:2; stroke-opacity:0.1; fill:none" points="177.871,1478.15 2352.76,1478.15 "/>
<polyline clip-path="url(#clip481)" style="stroke:#000000; stroke-linecap:round; stroke-linejoin:round; stroke-width:2; stroke-opacity:0.1; fill:none" points="177.871,1172.57 2352.76,1172.57 "/>
<polyline clip-path="url(#clip481)" style="stroke:#000000; stroke-linecap:round; stroke-linejoin:round; stroke-width:2; stroke-opacity:0.1; fill:none" points="177.871,867.003 2352.76,867.003 "/>
<polyline clip-path="url(#clip481)" style="stroke:#000000; stroke-linecap:round; stroke-linejoin:round; stroke-width:2; stroke-opacity:0.1; fill:none" points="177.871,561.432 2352.76,561.432 "/>
<polyline clip-path="url(#clip481)" style="stroke:#000000; stroke-linecap:round; stroke-linejoin:round; stroke-width:2; stroke-opacity:0.1; fill:none" points="177.871,255.861 2352.76,255.861 "/>
<polyline clip-path="url(#clip480)" style="stroke:#000000; stroke-linecap:round; stroke-linejoin:round; stroke-width:4; stroke-opacity:1; fill:none" points="177.871,1486.45 2352.76,1486.45 "/>
<polyline clip-path="url(#clip480)" style="stroke:#000000; stroke-linecap:round; stroke-linejoin:round; stroke-width:4; stroke-opacity:1; fill:none" points="386.991,1486.45 386.991,1467.55 "/>
<polyline clip-path="url(#clip480)" style="stroke:#000000; stroke-linecap:round; stroke-linejoin:round; stroke-width:4; stroke-opacity:1; fill:none" points="813.383,1486.45 813.383,1467.55 "/>
<polyline clip-path="url(#clip480)" style="stroke:#000000; stroke-linecap:round; stroke-linejoin:round; stroke-width:4; stroke-opacity:1; fill:none" points="1239.78,1486.45 1239.78,1467.55 "/>
<polyline clip-path="url(#clip480)" style="stroke:#000000; stroke-linecap:round; stroke-linejoin:round; stroke-width:4; stroke-opacity:1; fill:none" points="1666.17,1486.45 1666.17,1467.55 "/>
<polyline clip-path="url(#clip480)" style="stroke:#000000; stroke-linecap:round; stroke-linejoin:round; stroke-width:4; stroke-opacity:1; fill:none" points="2092.56,1486.45 2092.56,1467.55 "/>
<path clip-path="url(#clip480)" d="M341.053 1532.02 L370.729 1532.02 L370.729 1535.95 L341.053 1535.95 L341.053 1532.02 Z" fill="#000000" fill-rule="nonzero" fill-opacity="1" /><path clip-path="url(#clip480)" d="M394.988 1530.21 Q398.345 1530.93 400.22 1533.2 Q402.118 1535.47 402.118 1538.8 Q402.118 1543.92 398.599 1546.72 Q395.081 1549.52 388.599 1549.52 Q386.423 1549.52 384.109 1549.08 Q381.817 1548.66 379.363 1547.81 L379.363 1543.29 Q381.308 1544.43 383.623 1545.01 Q385.937 1545.58 388.461 1545.58 Q392.859 1545.58 395.15 1543.85 Q397.465 1542.11 397.465 1538.8 Q397.465 1535.75 395.312 1534.03 Q393.183 1532.3 389.363 1532.3 L385.336 1532.3 L385.336 1528.45 L389.548 1528.45 Q392.998 1528.45 394.826 1527.09 Q396.655 1525.7 396.655 1523.11 Q396.655 1520.45 394.757 1519.03 Q392.882 1517.6 389.363 1517.6 Q387.442 1517.6 385.243 1518.01 Q383.044 1518.43 380.405 1519.31 L380.405 1515.14 Q383.067 1514.4 385.382 1514.03 Q387.72 1513.66 389.78 1513.66 Q395.104 1513.66 398.206 1516.09 Q401.308 1518.5 401.308 1522.62 Q401.308 1525.49 399.664 1527.48 Q398.021 1529.45 394.988 1530.21 Z" fill="#000000" fill-rule="nonzero" fill-opacity="1" /><path clip-path="url(#clip480)" d="M420.983 1517.37 Q417.372 1517.37 415.544 1520.93 Q413.738 1524.47 413.738 1531.6 Q413.738 1538.71 415.544 1542.27 Q417.372 1545.82 420.983 1545.82 Q424.618 1545.82 426.423 1542.27 Q428.252 1538.71 428.252 1531.6 Q428.252 1524.47 426.423 1520.93 Q424.618 1517.37 420.983 1517.37 M420.983 1513.66 Q426.794 1513.66 429.849 1518.27 Q432.928 1522.85 432.928 1531.6 Q432.928 1540.33 429.849 1544.94 Q426.794 1549.52 420.983 1549.52 Q415.173 1549.52 412.095 1544.94 Q409.039 1540.33 409.039 1531.6 Q409.039 1522.85 412.095 1518.27 Q415.173 1513.66 420.983 1513.66 Z" fill="#000000" fill-rule="nonzero" fill-opacity="1" /><path clip-path="url(#clip480)" d="M813.383 1517.37 Q809.772 1517.37 807.943 1520.93 Q806.138 1524.47 806.138 1531.6 Q806.138 1538.71 807.943 1542.27 Q809.772 1545.82 813.383 1545.82 Q817.017 1545.82 818.823 1542.27 Q820.652 1538.71 820.652 1531.6 Q820.652 1524.47 818.823 1520.93 Q817.017 1517.37 813.383 1517.37 M813.383 1513.66 Q819.193 1513.66 822.249 1518.27 Q825.327 1522.85 825.327 1531.6 Q825.327 1540.33 822.249 1544.94 Q819.193 1549.52 813.383 1549.52 Q807.573 1549.52 804.494 1544.94 Q801.439 1540.33 801.439 1531.6 Q801.439 1522.85 804.494 1518.27 Q807.573 1513.66 813.383 1513.66 Z" fill="#000000" fill-rule="nonzero" fill-opacity="1" /><path clip-path="url(#clip480)" d="M1228.62 1530.21 Q1231.97 1530.93 1233.85 1533.2 Q1235.75 1535.47 1235.75 1538.8 Q1235.75 1543.92 1232.23 1546.72 Q1228.71 1549.52 1222.23 1549.52 Q1220.05 1549.52 1217.74 1549.08 Q1215.45 1548.66 1212.99 1547.81 L1212.99 1543.29 Q1214.94 1544.43 1217.25 1545.01 Q1219.57 1545.58 1222.09 1545.58 Q1226.49 1545.58 1228.78 1543.85 Q1231.1 1542.11 1231.1 1538.8 Q1231.1 1535.75 1228.94 1534.03 Q1226.81 1532.3 1222.99 1532.3 L1218.97 1532.3 L1218.97 1528.45 L1223.18 1528.45 Q1226.63 1528.45 1228.46 1527.09 Q1230.28 1525.7 1230.28 1523.11 Q1230.28 1520.45 1228.39 1519.03 Q1226.51 1517.6 1222.99 1517.6 Q1221.07 1517.6 1218.87 1518.01 Q1216.67 1518.43 1214.03 1519.31 L1214.03 1515.14 Q1216.7 1514.4 1219.01 1514.03 Q1221.35 1513.66 1223.41 1513.66 Q1228.73 1513.66 1231.84 1516.09 Q1234.94 1518.5 1234.94 1522.62 Q1234.94 1525.49 1233.29 1527.48 Q1231.65 1529.45 1228.62 1530.21 Z" fill="#000000" fill-rule="nonzero" fill-opacity="1" /><path clip-path="url(#clip480)" d="M1254.61 1517.37 Q1251 1517.37 1249.17 1520.93 Q1247.37 1524.47 1247.37 1531.6 Q1247.37 1538.71 1249.17 1542.27 Q1251 1545.82 1254.61 1545.82 Q1258.25 1545.82 1260.05 1542.27 Q1261.88 1538.71 1261.88 1531.6 Q1261.88 1524.47 1260.05 1520.93 Q1258.25 1517.37 1254.61 1517.37 M1254.61 1513.66 Q1260.42 1513.66 1263.48 1518.27 Q1266.56 1522.85 1266.56 1531.6 Q1266.56 1540.33 1263.48 1544.94 Q1260.42 1549.52 1254.61 1549.52 Q1248.8 1549.52 1245.72 1544.94 Q1242.67 1540.33 1242.67 1531.6 Q1242.67 1522.85 1245.72 1518.27 Q1248.8 1513.66 1254.61 1513.66 Z" fill="#000000" fill-rule="nonzero" fill-opacity="1" /><path clip-path="url(#clip480)" d="M1651.57 1529.7 Q1648.43 1529.7 1646.57 1531.86 Q1644.74 1534.01 1644.74 1537.76 Q1644.74 1541.49 1646.57 1543.66 Q1648.43 1545.82 1651.57 1545.82 Q1654.72 1545.82 1656.55 1543.66 Q1658.4 1541.49 1658.4 1537.76 Q1658.4 1534.01 1656.55 1531.86 Q1654.72 1529.7 1651.57 1529.7 M1660.86 1515.05 L1660.86 1519.31 Q1659.1 1518.48 1657.29 1518.04 Q1655.51 1517.6 1653.75 1517.6 Q1649.12 1517.6 1646.67 1520.72 Q1644.24 1523.85 1643.89 1530.17 Q1645.25 1528.15 1647.31 1527.09 Q1649.37 1526 1651.85 1526 Q1657.06 1526 1660.07 1529.17 Q1663.1 1532.32 1663.1 1537.76 Q1663.1 1543.08 1659.95 1546.3 Q1656.8 1549.52 1651.57 1549.52 Q1645.58 1549.52 1642.41 1544.94 Q1639.24 1540.33 1639.24 1531.6 Q1639.24 1523.41 1643.12 1518.55 Q1647.01 1513.66 1653.56 1513.66 Q1655.32 1513.66 1657.11 1514.01 Q1658.91 1514.36 1660.86 1515.05 Z" fill="#000000" fill-rule="nonzero" fill-opacity="1" /><path clip-path="url(#clip480)" d="M1681.16 1517.37 Q1677.55 1517.37 1675.72 1520.93 Q1673.91 1524.47 1673.91 1531.6 Q1673.91 1538.71 1675.72 1542.27 Q1677.55 1545.82 1681.16 1545.82 Q1684.79 1545.82 1686.6 1542.27 Q1688.42 1538.71 1688.42 1531.6 Q1688.42 1524.47 1686.6 1520.93 Q1684.79 1517.37 1681.16 1517.37 M1681.16 1513.66 Q1686.97 1513.66 1690.02 1518.27 Q1693.1 1522.85 1693.1 1531.6 Q1693.1 1540.33 1690.02 1544.94 Q1686.97 1549.52 1681.16 1549.52 Q1675.35 1549.52 1672.27 1544.94 Q1669.21 1540.33 1669.21 1531.6 Q1669.21 1522.85 1672.27 1518.27 Q1675.35 1513.66 1681.16 1513.66 Z" fill="#000000" fill-rule="nonzero" fill-opacity="1" /><path clip-path="url(#clip480)" d="M2067.69 1548.13 L2067.69 1543.87 Q2069.45 1544.7 2071.25 1545.14 Q2073.06 1545.58 2074.79 1545.58 Q2079.42 1545.58 2081.85 1542.48 Q2084.31 1539.36 2084.66 1533.01 Q2083.31 1535.01 2081.25 1536.07 Q2079.19 1537.13 2076.69 1537.13 Q2071.51 1537.13 2068.48 1534.01 Q2065.47 1530.86 2065.47 1525.42 Q2065.47 1520.1 2068.61 1516.88 Q2071.76 1513.66 2076.99 1513.66 Q2082.99 1513.66 2086.14 1518.27 Q2089.31 1522.85 2089.31 1531.6 Q2089.31 1539.77 2085.42 1544.66 Q2081.55 1549.52 2075 1549.52 Q2073.24 1549.52 2071.44 1549.17 Q2069.63 1548.82 2067.69 1548.13 M2076.99 1533.48 Q2080.14 1533.48 2081.97 1531.32 Q2083.82 1529.17 2083.82 1525.42 Q2083.82 1521.7 2081.97 1519.54 Q2080.14 1517.37 2076.99 1517.37 Q2073.85 1517.37 2071.99 1519.54 Q2070.16 1521.7 2070.16 1525.42 Q2070.16 1529.17 2071.99 1531.32 Q2073.85 1533.48 2076.99 1533.48 Z" fill="#000000" fill-rule="nonzero" fill-opacity="1" /><path clip-path="url(#clip480)" d="M2107.71 1517.37 Q2104.1 1517.37 2102.27 1520.93 Q2100.47 1524.47 2100.47 1531.6 Q2100.47 1538.71 2102.27 1542.27 Q2104.1 1545.82 2107.71 1545.82 Q2111.35 1545.82 2113.15 1542.27 Q2114.98 1538.71 2114.98 1531.6 Q2114.98 1524.47 2113.15 1520.93 Q2111.35 1517.37 2107.71 1517.37 M2107.71 1513.66 Q2113.52 1513.66 2116.58 1518.27 Q2119.66 1522.85 2119.66 1531.6 Q2119.66 1540.33 2116.58 1544.94 Q2113.52 1549.52 2107.71 1549.52 Q2101.9 1549.52 2098.82 1544.94 Q2095.77 1540.33 2095.77 1531.6 Q2095.77 1522.85 2098.82 1518.27 Q2101.9 1513.66 2107.71 1513.66 Z" fill="#000000" fill-rule="nonzero" fill-opacity="1" /><polyline clip-path="url(#clip480)" style="stroke:#000000; stroke-linecap:round; stroke-linejoin:round; stroke-width:4; stroke-opacity:1; fill:none" points="177.871,1486.45 177.871,47.2441 "/>
<polyline clip-path="url(#clip480)" style="stroke:#000000; stroke-linecap:round; stroke-linejoin:round; stroke-width:4; stroke-opacity:1; fill:none" points="177.871,1478.15 196.769,1478.15 "/>
<polyline clip-path="url(#clip480)" style="stroke:#000000; stroke-linecap:round; stroke-linejoin:round; stroke-width:4; stroke-opacity:1; fill:none" points="177.871,1172.57 196.769,1172.57 "/>
<polyline clip-path="url(#clip480)" style="stroke:#000000; stroke-linecap:round; stroke-linejoin:round; stroke-width:4; stroke-opacity:1; fill:none" points="177.871,867.003 196.769,867.003 "/>
<polyline clip-path="url(#clip480)" style="stroke:#000000; stroke-linecap:round; stroke-linejoin:round; stroke-width:4; stroke-opacity:1; fill:none" points="177.871,561.432 196.769,561.432 "/>
<polyline clip-path="url(#clip480)" style="stroke:#000000; stroke-linecap:round; stroke-linejoin:round; stroke-width:4; stroke-opacity:1; fill:none" points="177.871,255.861 196.769,255.861 "/>
<path clip-path="url(#clip480)" d="M50.9921 1478.6 L80.6679 1478.6 L80.6679 1482.53 L50.9921 1482.53 L50.9921 1478.6 Z" fill="#000000" fill-rule="nonzero" fill-opacity="1" /><path clip-path="url(#clip480)" d="M94.7882 1491.49 L111.108 1491.49 L111.108 1495.43 L89.1632 1495.43 L89.1632 1491.49 Q91.8252 1488.74 96.4085 1484.11 Q101.015 1479.45 102.196 1478.11 Q104.441 1475.59 105.321 1473.85 Q106.223 1472.09 106.223 1470.4 Q106.223 1467.65 104.279 1465.91 Q102.358 1464.18 99.2558 1464.18 Q97.0567 1464.18 94.603 1464.94 Q92.1725 1465.7 89.3947 1467.25 L89.3947 1462.53 Q92.2188 1461.4 94.6724 1460.82 Q97.1261 1460.24 99.1632 1460.24 Q104.534 1460.24 107.728 1462.93 Q110.922 1465.61 110.922 1470.1 Q110.922 1472.23 110.112 1474.15 Q109.325 1476.05 107.219 1478.64 Q106.64 1479.31 103.538 1482.53 Q100.436 1485.73 94.7882 1491.49 Z" fill="#000000" fill-rule="nonzero" fill-opacity="1" /><path clip-path="url(#clip480)" d="M120.969 1460.87 L139.325 1460.87 L139.325 1464.8 L125.251 1464.8 L125.251 1473.27 Q126.27 1472.93 127.288 1472.76 Q128.307 1472.58 129.325 1472.58 Q135.112 1472.58 138.492 1475.75 Q141.871 1478.92 141.871 1484.34 Q141.871 1489.92 138.399 1493.02 Q134.927 1496.1 128.607 1496.1 Q126.432 1496.1 124.163 1495.73 Q121.918 1495.36 119.51 1494.62 L119.51 1489.92 Q121.594 1491.05 123.816 1491.61 Q126.038 1492.16 128.515 1492.16 Q132.519 1492.16 134.857 1490.05 Q137.195 1487.95 137.195 1484.34 Q137.195 1480.73 134.857 1478.62 Q132.519 1476.51 128.515 1476.51 Q126.64 1476.51 124.765 1476.93 Q122.913 1477.35 120.969 1478.23 L120.969 1460.87 Z" fill="#000000" fill-rule="nonzero" fill-opacity="1" /><path clip-path="url(#clip480)" d="M129.927 1158.37 Q126.316 1158.37 124.487 1161.94 Q122.682 1165.48 122.682 1172.61 Q122.682 1179.72 124.487 1183.28 Q126.316 1186.82 129.927 1186.82 Q133.561 1186.82 135.367 1183.28 Q137.195 1179.72 137.195 1172.61 Q137.195 1165.48 135.367 1161.94 Q133.561 1158.37 129.927 1158.37 M129.927 1154.67 Q135.737 1154.67 138.793 1159.28 Q141.871 1163.86 141.871 1172.61 Q141.871 1181.34 138.793 1185.94 Q135.737 1190.53 129.927 1190.53 Q124.117 1190.53 121.038 1185.94 Q117.983 1181.34 117.983 1172.61 Q117.983 1163.86 121.038 1159.28 Q124.117 1154.67 129.927 1154.67 Z" fill="#000000" fill-rule="nonzero" fill-opacity="1" /><path clip-path="url(#clip480)" d="M94.7882 880.348 L111.108 880.348 L111.108 884.283 L89.1632 884.283 L89.1632 880.348 Q91.8252 877.593 96.4085 872.964 Q101.015 868.311 102.196 866.968 Q104.441 864.445 105.321 862.709 Q106.223 860.95 106.223 859.26 Q106.223 856.505 104.279 854.769 Q102.358 853.033 99.2558 853.033 Q97.0567 853.033 94.603 853.797 Q92.1725 854.561 89.3947 856.112 L89.3947 851.39 Q92.2188 850.255 94.6724 849.677 Q97.1261 849.098 99.1632 849.098 Q104.534 849.098 107.728 851.783 Q110.922 854.468 110.922 858.959 Q110.922 861.089 110.112 863.01 Q109.325 864.908 107.219 867.501 Q106.64 868.172 103.538 871.39 Q100.436 874.584 94.7882 880.348 Z" fill="#000000" fill-rule="nonzero" fill-opacity="1" /><path clip-path="url(#clip480)" d="M120.969 849.723 L139.325 849.723 L139.325 853.658 L125.251 853.658 L125.251 862.13 Q126.27 861.783 127.288 861.621 Q128.307 861.436 129.325 861.436 Q135.112 861.436 138.492 864.607 Q141.871 867.779 141.871 873.195 Q141.871 878.774 138.399 881.876 Q134.927 884.954 128.607 884.954 Q126.432 884.954 124.163 884.584 Q121.918 884.214 119.51 883.473 L119.51 878.774 Q121.594 879.908 123.816 880.464 Q126.038 881.019 128.515 881.019 Q132.519 881.019 134.857 878.913 Q137.195 876.806 137.195 873.195 Q137.195 869.584 134.857 867.478 Q132.519 865.371 128.515 865.371 Q126.64 865.371 124.765 865.788 Q122.913 866.204 120.969 867.084 L120.969 849.723 Z" fill="#000000" fill-rule="nonzero" fill-opacity="1" /><path clip-path="url(#clip480)" d="M89.8114 544.152 L108.168 544.152 L108.168 548.087 L94.0937 548.087 L94.0937 556.559 Q95.1123 556.212 96.1308 556.05 Q97.1493 555.865 98.1678 555.865 Q103.955 555.865 107.334 559.036 Q110.714 562.207 110.714 567.624 Q110.714 573.203 107.242 576.305 Q103.77 579.383 97.4502 579.383 Q95.2743 579.383 93.0058 579.013 Q90.7604 578.643 88.353 577.902 L88.353 573.203 Q90.4364 574.337 92.6586 574.893 Q94.8808 575.448 97.3576 575.448 Q101.362 575.448 103.7 573.342 Q106.038 571.235 106.038 567.624 Q106.038 564.013 103.7 561.907 Q101.362 559.8 97.3576 559.8 Q95.4826 559.8 93.6076 560.217 Q91.7558 560.633 89.8114 561.513 L89.8114 544.152 Z" fill="#000000" fill-rule="nonzero" fill-opacity="1" /><path clip-path="url(#clip480)" d="M129.927 547.231 Q126.316 547.231 124.487 550.795 Q122.682 554.337 122.682 561.467 Q122.682 568.573 124.487 572.138 Q126.316 575.68 129.927 575.68 Q133.561 575.68 135.367 572.138 Q137.195 568.573 137.195 561.467 Q137.195 554.337 135.367 550.795 Q133.561 547.231 129.927 547.231 M129.927 543.527 Q135.737 543.527 138.793 548.133 Q141.871 552.717 141.871 561.467 Q141.871 570.194 138.793 574.8 Q135.737 579.383 129.927 579.383 Q124.117 579.383 121.038 574.8 Q117.983 570.194 117.983 561.467 Q117.983 552.717 121.038 548.133 Q124.117 543.527 129.927 543.527 Z" fill="#000000" fill-rule="nonzero" fill-opacity="1" /><path clip-path="url(#clip480)" d="M89.5799 238.581 L111.802 238.581 L111.802 240.572 L99.2558 273.141 L94.3715 273.141 L106.177 242.516 L89.5799 242.516 L89.5799 238.581 Z" fill="#000000" fill-rule="nonzero" fill-opacity="1" /><path clip-path="url(#clip480)" d="M120.969 238.581 L139.325 238.581 L139.325 242.516 L125.251 242.516 L125.251 250.988 Q126.27 250.641 127.288 250.479 Q128.307 250.294 129.325 250.294 Q135.112 250.294 138.492 253.465 Q141.871 256.636 141.871 262.053 Q141.871 267.632 138.399 270.734 Q134.927 273.812 128.607 273.812 Q126.432 273.812 124.163 273.442 Q121.918 273.071 119.51 272.331 L119.51 267.632 Q121.594 268.766 123.816 269.322 Q126.038 269.877 128.515 269.877 Q132.519 269.877 134.857 267.771 Q137.195 265.664 137.195 262.053 Q137.195 258.442 134.857 256.335 Q132.519 254.229 128.515 254.229 Q126.64 254.229 124.765 254.646 Q122.913 255.062 120.969 255.942 L120.969 238.581 Z" fill="#000000" fill-rule="nonzero" fill-opacity="1" /><polyline clip-path="url(#clip481)" style="stroke:#0000ff; stroke-linecap:round; stroke-linejoin:round; stroke-width:4; stroke-opacity:1; fill:none" points="239.425,714.057 267.969,719.046 271.668,713.883 283.352,712.218 290.74,711.923 315.06,714.576 336.031,718.081 362.734,720.7 388.908,722.767 418.393,727.347 447.02,727.812 471.856,728.283 507.158,729.481 529.752,735.097 553.003,739.082 587.141,742.665 612.715,744.907 634.191,749.649 662.458,756.137 685.85,763.355 708.332,771.28 731.073,777.83 758.326,784.652 780.802,792.851 806.301,797.986 836.605,805.856 858.653,806.191 892.157,808.896 917.271,816.715 943.35,823.807 973.381,832.613 998.015,841.1 1023.79,848.448 1042.33,858.339 1060.23,870.31 1068.32,875.934 1088.42,879.04 1105.05,881.281 1126.09,882.794 1151.62,886.141 1177.96,895.897 1205.03,905.814 1226.99,910.945 1251.6,914.566 1283.53,916.657 1312.4,917.574 1344.61,921.327 1372.69,926.09 1398.76,929.743 1423.11,932.411 1454.65,932.661 1478.45,932.503 1504.51,931.766 1531.16,928.97 1559.82,923.738 1587.68,924.081 1615.45,922.12 1640.86,922.188 1661.71,916.084 1679.34,913.273 1695.45,906.802 1713.7,900.452 1734.1,899.793 1756.13,897.668 1777.72,899.214 1796.86,902.423 1817.74,909.077 1837.94,920.783 1859.17,933.274 1875.04,944.101 1890.75,960.433 1901.38,974.315 1908.7,988.365 1918.33,1007.33 1929.5,1025.65 1941.54,1044.67 1951.69,1055.19 1968.52,1063.05 1982.61,1066.66 1992.75,1065.76 2013.36,1058.7 2030.45,1053.17 2050.02,1035.07 2062.36,1019.32 2067.64,998.301 2070.06,978.856 2069.14,956.838 2055.65,942.244 2038.61,934.123 2014.59,925.643 1986.19,927.721 1960.26,927.508 1940.78,923.821 1922.77,920.938 1900.5,917.745 1880.75,922.839 1859.05,929.294 1842.78,936.975 1820.48,940.065 1796.31,940.389 1769.45,936.995 1747.48,927.169 1724.63,916.051 1694.8,900.117 1669.25,882.525 1646.11,863.725 1631.39,848.343 1619.83,835.277 1604,821.975 1589.81,806.324 1578.28,791.169 1569.9,774.435 1569.19,758.819 1581.03,744.367 1594.72,732.138 1614.97,724.928 1634.88,724.551 1662.44,725.94 1682.52,737.948 1703.41,745.969 1717.95,751.245 1739.63,757.199 1761.93,767.494 1774.21,776.615 1791.95,787.185 1810.02,798.068 1831.31,805.952 1851.13,807.996 1872.68,808.483 1895.61,802.204 1916.49,798.015 1933.15,796.955 1951.85,804.469 1967.85,815.616 1983.08,830.095 1993.44,845.889 2001.93,865.019 2009.75,886.502 2013.44,906.66 2013.28,927.896 2012.93,939.343 2015.52,953.127 2025.18,971.456 2032.66,989.019 2043.63,1003.64 2054.25,1010.73 2067.06,1014.39 2084.44,1010 2103.07,1004.42 2116.88,996.286 2134.45,984.054 2144.31,974.127 2148.4,955.21 2136.79,938.289 2118.47,919.221 2104.99,901.852 2082.82,891.775 2053.66,888.479 2028.04,883.995 2012.64,880.528 1987.5,878.336 1966.84,875.674 1948.92,864.767 1934.31,858.692 1912.67,852.505 1896.4,851.724 1874.33,854.119 1854.48,849.583 1834.01,844.487 1814.77,842.624 1790.37,838.681 1772.99,833.995 1755.77,829.857 1734.44,828.688 1707.75,829.791 1681.73,835.087 1665.73,834.131 1660.05,827.091 1655.68,823.921 1649.1,822.526 1638.58,821.721 1630.43,820.88 1617.23,824.746 1603.68,830.74 1578,834.976 1556.98,838.447 1541.65,843.858 1531.57,852.969 1538.18,854.893 1551.56,853.216 1584.07,849.725 1604.66,831.433 1621.37,816.393 1626.68,801.21 1620.18,785.463 1605.83,767.171 1595.76,756.208 1584.66,735.453 1565.4,724.761 1545.02,735.284 1523.79,736.832 1495.64,730.79 1491.48,714.105 1486.76,695.131 1488.1,674.862 1491.52,658.41 1506.36,635.865 1514.25,615.967 1516.88,592.946 1501.15,580.514 1479.19,573.577 1470.09,571.049 1479.79,558.533 1498.42,547.006 1533.23,545.06 1572.05,531.94 1597.54,515.547 1616.33,492.23 1629.96,471.04 1650.22,461.252 1677.22,463.715 1700.29,469.022 1718.8,486.779 1745.87,499.502 1765.73,515.32 1776.19,536.745 1765.77,553.161 1747.36,569.87 1721.24,582.3 1688.08,589.02 1661.99,588.422 1629.24,573.589 1604.12,558.451 1592.82,537.652 1591.47,515.338 1609.75,500.126 1624.68,489.901 1646.87,476.507 1670.78,467.49 1693.23,451.939 1715.37,439.62 1735.33,438.739 1758.44,425.27 1761.46,410.773 1770.82,393.629 1783.65,388.397 1800.26,371.097 1794.37,358.196 1773.98,347.411 1769.67,345.415 1779.91,341.68 1802.61,336.035 1831.34,340.002 1856.05,341.859 1882.35,346.484 1907.23,363.986 1911.47,381.856 1909.23,394.797 1887.53,405.494 1872.59,426.803 1858.01,454.005 1848.34,486.451 1848.32,507.306 1814.14,509.788 1791.53,525.837 1760.12,532.306 1729.16,548.444 1712.78,574.605 1693.85,591.837 1666.52,587.684 1644.17,575.913 1616.61,567.06 1602.13,554.046 1575.69,537.994 1567.59,532.097 1575.25,509.187 1599.41,500.173 1633.35,494.927 1661.71,498.884 1695.63,505.877 1724.2,519.716 1732.34,541.247 1746.71,561.52 1762.2,566.521 1788.71,571.798 1811.64,581.88 1820.5,584.024 1846.55,576.145 1870.76,569.109 1889.55,560.001 1909.41,562.465 1930.29,576.377 1928.55,594.231 1928.78,615.311 1916.04,647.651 1895.5,673.013 1871.53,692.445 1850.26,721.482 1847.43,746.382 1812.02,758.165 1784.93,763.586 1757.7,778.283 1731.93,792.105 1714.51,810.203 1698.39,831.78 1672.95,855.75 1646.24,862.719 1620.76,854.398 1596.56,849.705 1565.54,845.632 1537.76,837.194 1517.86,815.96 1503.88,795.226 1473.26,773.083 1456.57,753.654 1431.34,736.806 1407.35,734.011 1377.07,739.417 1358.92,737.806 1333.79,729.894 1328.47,704.377 1312.16,695.158 1289.69,699.031 1271.76,707.789 1247.45,724.602 1240.73,731.221 1211.69,735.705 1188.45,740.629 1162.36,733.737 1142.29,716.258 1119.99,703.921 1085.93,698.103 1052.9,689.567 1029.96,683.783 1010.03,673.669 989.861,653.881 989.083,641.481 997.867,621.966 1013.96,601.703 1025.16,577.463 1032.04,547.636 1038.17,522.804 1023.45,502.837 1005.8,497.496 994.664,488.144 998.817,474.638 1023.63,473.184 1058.2,477.211 1099.26,474.681 1133.27,470.778 1160.73,452.698 1185.46,428.531 1209.24,408.935 1239.69,402.148 1278.53,403.996 1311,415.645 1340.97,431.844 1371.03,444.244 1397,456.435 1419.75,469.93 1454.84,477.889 1479.92,492.046 1506.77,513.902 1536.93,540.414 1563.61,556.436 1586.68,567.587 1605.93,577.449 1615.68,568.753 1636.2,559.013 1662.39,544.97 1684.76,535.152 1714.35,524.391 1745.97,522.896 1780.3,532.698 1807.92,555.832 1817.09,577.58 1812.11,609.525 1795.61,642.044 1792.88,669.001 1784.33,700.506 1784.76,734.655 1799.9,765.301 1831.2,789.707 1870.51,789.953 1892.45,790.983 1923.35,797.899 1943.17,819.477 1968.27,846.113 1988.38,876.863 2000.37,908.889 2003.86,930.871 2020.08,916.063 2054.93,919.88 2083.18,924.793 2094.74,940.953 2097.32,944.8 2097.29,949.384 2102.86,965.612 2105.82,971.643 2117.94,975.359 2134.42,977.427 2162.81,972.185 2190.3,981.334 2203.3,993.31 2216.95,1014.91 2218.36,1028.36 2220.4,1016.68 2224.9,1000.02 2224.85,972.664 2215.77,946.424 2200.81,921.893 2189.9,899.428 2188.84,879.062 2161.08,856.765 2155.61,825.795 2159.76,801.536 2178.56,790.202 2198.55,792.209 2222.99,801.236 2239.06,813.444 2251.45,832.802 2275.63,855.934 2289.85,876.084 2281.49,903.283 2262.2,925.319 2244.8,945.418 2216.09,957.855 2197.43,975.346 2170.34,988.863 2143.01,1012.19 2123.24,1033.42 2112.95,1057.14 2093.04,1080.31 2075.33,1101.77 2050.17,1118.99 2025.78,1129.96 1995.4,1146.25 1970.74,1164.23 1941.82,1172.44 1912.59,1191.74 1896.81,1208.46 1866.03,1221.6 1847.15,1235.65 1828.37,1255.04 1810.95,1283.06 1803.45,1303.48 1798.6,1322.5 1791.77,1347.31 1813.99,1368.58 1823.15,1382.97 1816.15,1406.19 1808.76,1432.42 1790.58,1436.1 1767.09,1434.37 1745.26,1416.47 1733.01,1389.62 1719.79,1367.97 1695.9,1345.56 1658.06,1319.59 1626.02,1311.95 1592.19,1310.71 1556.58,1318.16 1515.96,1328.54 1489.17,1329.37 1454.88,1318.85 1428.68,1305.5 1409.8,1280.5 1407.09,1248.42 1402.2,1208.79 1382.88,1181.92 1361.22,1161.54 1366.03,1129.8 1362.97,1101.71 1355.21,1077.38 1342.85,1049.15 1324.43,1024.71 1318.92,999.078 1325.31,966.017 1334.8,933.217 1353.56,904.04 1370.69,872.724 1383.25,840.665 1409.32,818.667 1405.31,791.426 1388.84,767.454 1359.74,745.257 1327.41,742.467 1307.16,729.05 1298.44,704.164 1295.1,671.984 1307.69,644.921 1321.34,623.34 1342.38,613.808 1374.36,602.843 1410.95,596.389 1450.59,592.254 1488.29,592.635 1516.48,585.543 1539.2,559.794 1557.19,537.667 1585.23,526.359 1606.82,520.16 1611.69,505.1 1597.32,491.155 1575.23,476.495 1550.39,463.803 1522.08,437.697 1500.26,412.036 1486.37,386.044 1470.52,365.278 1466.18,347.567 1472.84,326.489 1489.39,317.496 1506.56,326.204 1536.64,330.784 1575.2,334.695 1609.88,342.733 1650.5,348.153 1684.38,351.82 1714.27,366.877 1738.09,373.508 1763.88,365.565 1786.94,355.268 1816.63,349.515 1849.14,349.67 1880.44,343.736 1902.87,358.516 1915.49,373.961 1919.48,369.368 1929.45,353.822 1946.08,336.563 1964.22,326.205 1988,310.42 2006.45,302.53 1997.95,302.897 1976.03,291.758 1966.6,274.971 1954.23,245.476 1958.41,216.198 1969.06,200.016 1996.63,190.001 2029.16,192.001 2054.45,196.936 2087.89,201.745 2124.23,214.129 2146.84,236.253 2151.69,265.21 2144.79,292.462 2133.13,300.245 2137.12,316.556 2141.09,338.642 2136.75,369.64 2107.93,385.955 2089.01,420.641 2062.45,443.075 2040.13,469.167 2031.75,503.49 2006.46,511.138 1971.4,512.794 1936.42,525.725 1905.35,539.123 1889.36,565.339 1878.1,596.808 1878.01,613.179 1904.27,618.484 1933.82,631.323 1969.75,645.32 2002.92,668.39 2031.02,682.99 2069.45,689.848 2104.43,689.964 2142.26,686.06 2170.79,690.121 2197.02,689.627 2208.21,675.558 2220.47,655.397 2235.76,634.952 2234.53,610.611 2231.8,591.406 2221.87,567.286 2196.01,547.001 2174.82,528.509 2150.03,512.924 2109.48,514.742 2084.21,520.242 2060.48,538.583 2043.35,558.192 2018.15,583.211 2013.25,611.956 2018.9,643.538 2021.66,674.416 2039.06,700.51 2051.21,725.541 2064.82,758.395 2079.05,788.937 2109.99,801.401 2139.74,817.223 2165.37,845.112 2185.11,868.647 2201.18,900.103 2208.02,925.122 2205.38,937.62 2173.11,938.8 2136.13,950.808 2109.41,950.209 2094.19,957.212 2074.19,961.112 2052.73,957.076 2022.63,942.019 1992.37,934.535 1955.93,937.603 1911.89,951.299 1874.66,964.811 1836.79,964.653 1794.57,973.565 1757.33,973.078 1718.52,974.721 1687.39,968.974 1652.01,972.588 1620.44,967.088 1587.79,960.048 1553.14,930.102 1525.61,915.357 1488.84,907.197 1455.56,892.725 1425.34,876.183 1394.75,855.385 1369.8,847.838 1343.41,861.008 1318.18,877.798 1289.86,893.057 1251.62,911.136 1214.9,919.454 1186.66,915.215 1158.72,891.768 1141.7,866.829 1122.38,837.276 1097.35,811.961 1086.27,781.421 1082.44,753.812 1085.17,731.676 1072.07,701.831 1049.76,684.41 1021.36,672.775 1002.14,651.693 994.044,620.721 991.102,596.608 979.873,568.906 988.59,542.275 1009.83,515.816 1021.42,498.995 1034.45,492.931 1043.91,479.166 1048.69,462.815 1055.57,439.299 1061.59,415.456 1067.8,387.287 1079.29,353.877 1079.24,330.431 1057.72,310.894 1038.03,297.602 1011.82,297.517 984.744,307.086 956.938,303.471 926.61,288.601 888.978,275.006 865.6,267.802 843.049,263.851 828.266,246.485 827.551,225.511 842.883,207.351 863.724,189.611 886.722,171.127 929.61,159.533 960.065,147.787 992.944,141.371 1023.16,152.589 1051.22,159.456 1084.4,156.094 1117.35,148.922 1137.26,129.142 1153.51,109.549 1165.63,87.9763 "/>
<polyline clip-path="url(#clip481)" style="stroke:#ff0000; stroke-linecap:round; stroke-linejoin:round; stroke-width:4; stroke-opacity:1; fill:none" points="240.297,713.105 270.728,719.461 273.343,710.624 294.506,711.92 297.889,712.616 324.936,718.276 341.836,721.808 370.631,721.563 395.177,723.568 425.622,729.924 451.916,726.037 473.079,727.32 515.42,729.912 527.217,738.639 551.777,740.631 594.132,743.222 611.927,743.809 631.385,751.008 665.254,758.073 684.726,765.272 707.595,773.181 731.317,778.131 761.818,784.499 780.451,794.656 808.437,797.37 841.511,807.417 857.628,801.379 899.202,806.928 917.011,820.055 944.158,825.727 977.274,835.774 996.803,842.985 1023.98,848.657 1038.42,861.087 1056.28,874.227 1059.68,874.936 1091.96,875.4 1105.55,878.248 1130.19,880.253 1157.4,885.936 1182.08,900.518 1208.46,909.16 1226.32,909.759 1254.37,912.484 1290.09,913.658 1314.75,915.674 1348.79,922.788 1372.64,927.775 1397.3,929.78 1421.97,931.796 1458.53,930.024 1476.39,930.611 1505.3,930.379 1531.64,926.455 1562.2,920.295 1589.46,925.978 1615.78,922.067 1640.47,924.084 1658.21,912.105 1676.07,912.692 1692.97,903.684 1712.47,898.342 1736.34,903.329 1759.24,898.697 1779.7,902.963 1796.74,906.52 1819.81,914.464 1837.85,927.628 1860.11,938.543 1872.14,947.332 1888.57,966.448 1896.39,977.498 1903.4,991.517 1915.62,1012.92 1929.48,1028.38 1942.53,1046.83 1951.98,1051.95 1975.91,1056.96 1986.18,1059.1 1993.84,1057.54 2021.81,1047.67 2032.87,1046.83 2054.58,1019.94 2060.42,1011.72 2059.2,989.488 2063.21,974.637 2062,952.429 2043.11,942.222 2026.03,938.653 2003.74,927.738 1976.61,934.62 1956.13,930.354 1939.87,923.827 1922.81,920.27 1898.11,918.253 1880.42,930.244 1857.5,934.864 1844.84,941.636 1816.73,938.898 1792.02,936.893 1764.74,931.197 1746.71,918.033 1723.66,910.089 1688.61,893.368 1668.03,876.549 1647.46,859.73 1636.29,848.021 1625.13,836.299 1603.76,822.463 1590.85,804.141 1580.52,789.498 1574.42,772.606 1578.53,757.853 1597.05,742.978 1607.13,732.588 1629.98,727.993 1643.57,730.816 1672.41,730.584 1686.14,745.911 1706.55,750.165 1716.75,752.279 1743.97,757.951 1765.35,771.75 1770.53,779.072 1792.74,789.938 1811.54,800.107 1835.37,805.07 1854.02,802.699 1875.27,803.994 1899.75,793.47 1917.58,794.069 1931.21,796.905 1952.65,810.729 1967.27,823.148 1981.1,838.524 1988.11,852.482 1996.93,873.09 2005.76,893.71 2008.56,909.954 2006.34,931.417 2008.96,935.097 2015.18,952.074 2030.86,974.161 2033.68,990.442 2048.34,1002.92 2058.61,1005.07 2072.28,1007.92 2092.59,999.596 2108.66,993.534 2117.9,986.041 2135.58,974.039 2140.6,968.819 2140.15,943.64 2125.46,931.173 2108.17,915.039 2097.72,900.347 2074.62,892.402 2046.51,889.676 2022.62,884.702 2012.38,882.563 1984.29,879.849 1967.23,876.292 1949.99,860.183 1936.34,857.347 1909.07,851.663 1897.23,855.452 1870.94,859.364 1852.91,846.224 1832.46,841.971 1813.8,844.33 1786.55,838.658 1773.73,832.865 1756.71,829.308 1731.24,830.261 1701.54,833.464 1677.84,841.03 1669.27,832.987 1669.12,820.446 1661.51,821.986 1650.48,822.818 1636.04,822.94 1629.23,821.522 1612.33,830.506 1599.67,837.253 1567.39,836.788 1552.12,839.856 1542.84,847.312 1536.15,858.447 1551.41,855.367 1570.07,852.996 1600.6,846.835 1609.74,826.839 1624.05,814.188 1628.15,799.411 1618.64,781.81 1602.34,762.803 1593.77,754.773 1582.51,730.596 1562.94,723.397 1541.02,737.563 1519.82,736.268 1489.23,729.899 1490.78,711.504 1485.53,691.715 1487.91,670.399 1492.02,655.682 1509.6,631.334 1514.53,613.697 1517.71,589.496 1499.02,579.4 1476.11,571.54 1469.33,570.135 1481.04,553.939 1505.49,543.489 1544.4,545.359 1581.44,528.235 1599.91,513.457 1617.42,489.207 1629.9,470.127 1650.08,461.926 1677.99,464.615 1701.7,469.516 1721.36,489.061 1750.22,501.235 1767.34,517.173 1776.04,537.573 1764.39,553.756 1745.15,571.479 1716.53,584.166 1682.74,589.581 1661.56,588.298 1623.3,571.039 1602.02,557.313 1593.37,536.901 1592.32,514.985 1610.77,500.22 1624.18,490.613 1650.21,474.332 1673.79,466.839 1696.41,449.862 1717.39,438.751 1735.13,439.326 1761.11,423.069 1760.97,410.688 1773.39,391.644 1785.16,387.904 1805.16,367.358 1794.04,355.807 1768.59,344.379 1784.55,338.438 1814.82,332.364 1841.07,340.859 1862.18,342.142 1889.24,347.728 1912.31,367.908 1911.68,383.199 1908.47,394.871 1883.34,408.194 1869.33,433.092 1854.51,460.936 1845.64,493.131 1849.2,506.258 1808.67,510.243 1789.45,527.954 1755.7,533.356 1725.47,551.886 1711.37,576.894 1692.92,591.696 1665.77,586.061 1643.65,575.268 1613.95,565.991 1602.83,554.379 1572.22,535.617 1569.65,531.987 1577.01,505.61 1603.99,498.814 1641.12,494.121 1664.83,499.034 1702.11,506.759 1726.8,521.17 1732.1,540.861 1747.58,562.679 1761.15,565.49 1791.7,571.821 1813.83,582.626 1820.62,584.032 1851.82,574.987 1875.41,567.47 1892.2,558.547 1912.57,562.764 1933.12,579.424 1928.3,597.049 1929.47,619.026 1912.21,655.853 1892.17,676.571 1869.51,693.659 1846.22,726.196 1848.17,745.3 1808.47,758.88 1785.61,763.488 1756.11,779.194 1730.79,792.664 1714.88,811.23 1698.13,832.755 1669.54,858.08 1646.64,862.701 1620.22,854.059 1596.38,849.084 1561.5,844.953 1535.11,836.312 1516.22,813.614 1503.34,795.292 1467.48,769.074 1457.19,754.443 1429.93,736.28 1408.71,734.984 1374.84,740.411 1361.25,737.575 1331.52,728.274 1328.82,699.623 1311.85,696.091 1285.6,699.99 1268.7,708.949 1241.67,728.286 1240.83,731.232 1203.55,735.95 1184.06,741.267 1157.75,732.65 1138.21,712.971 1116.14,702.129 1078,697.313 1048.34,688.012 1031.4,684.479 1009.37,673.65 987.323,650.365 989.867,641.541 1000,618.733 1016.9,597.343 1027.02,574.572 1032.89,541.607 1038.77,521.097 1022.7,502.237 1005.8,498.729 994.813,487.142 999.02,472.511 1031.11,472.963 1069.12,477.754 1109.64,473.77 1135.81,469.895 1162.77,450.705 1188,424.988 1210.71,408.035 1241.05,401.961 1283.25,404.515 1312.01,416.652 1343.32,432.42 1372.1,444.569 1397.51,456.022 1418.72,469.712 1459.33,478.121 1480.55,491.823 1509.48,516.415 1541.01,544.662 1563.09,555.443 1585.2,566.236 1603.9,576.332 1613.14,568.925 1637.56,558.474 1667.01,542.866 1687.2,534.652 1719.2,522.686 1751.33,523.15 1787.83,533.808 1812.7,560.674 1815.45,576.747 1812.53,613.404 1792.64,646.576 1793.76,668.577 1784.02,703.926 1785.3,738.468 1802.63,767.032 1835.22,792.542 1872.5,787.811 1886.13,790.647 1923.6,798.433 1942.61,821.131 1971.07,848.938 1991.11,881.267 2000.93,911.494 2003.74,927.738 2018,915.051 2059.77,920.625 2083.68,925.599 2094.14,940.316 2096.75,943.995 2098.57,950.644 2104.02,970.592 2106.63,974.283 2123.73,977.84 2141.61,978.439 2172.96,969.284 2197.92,983.902 2205.8,994.964 2220.75,1020.06 2218.35,1028.98 2222.34,1014.11 2227.91,993.289 2224.8,964.419 2213.29,940.071 2197.55,918.009 2188.67,897.377 2190.03,878.884 2157.26,853.301 2155,821.583 2160.57,800.89 2177.4,791.906 2198.65,793.214 2225.14,801.831 2239.82,814.249 2252.12,835.541 2281.51,860.403 2291.2,878.053 2279.87,906.972 2259.86,927.848 2244.04,946.488 2211.92,958.601 2196.09,977.253 2167.38,990.087 2138.87,1015.54 2123,1034.21 2113.17,1057.31 2092.26,1081.26 2075.56,1102.95 2049.4,1119.54 2024.82,1130.16 1990.97,1148.3 1968.18,1165.62 1940.96,1172.55 1909.68,1194.42 1898.77,1207.93 1862.24,1222.41 1847.88,1235.22 1827.64,1256.29 1808.37,1287.08 1804.29,1302.06 1798.56,1323.06 1791.2,1350.07 1818.01,1371.59 1822.43,1382.05 1815.06,1409.1 1807.69,1436.18 1789.69,1435.57 1764.81,1433.53 1741.43,1412.7 1730.84,1385.03 1717.78,1366.4 1691.82,1341.9 1648.76,1313.8 1627.35,1312.48 1591.42,1311.28 1553,1319.06 1510.32,1329.15 1492.36,1328.54 1452.06,1316.9 1429.75,1305.85 1408.2,1279.12 1407.11,1244.03 1400.84,1201.55 1381.07,1181.59 1361.31,1161.63 1367.08,1128.1 1363.51,1102.1 1355.7,1078.38 1342.72,1047.3 1323.86,1024.46 1320.31,998.533 1326.92,962.182 1336.08,929.547 1354.62,902.046 1370.58,870.89 1383.11,839.049 1410.15,819.652 1403.18,793.177 1388.59,768.255 1356.19,742.77 1327.37,743.015 1309.49,729.924 1299.17,702.814 1294.75,667.6 1309.02,642.543 1321.6,623.377 1341.87,615.139 1378.18,600.912 1415.38,596.206 1455.97,592.209 1491.52,593.383 1515.14,585.853 1541.12,557.093 1557.03,538.673 1585.65,526.01 1605.05,520.73 1609.13,506.075 1595.46,490.857 1571.64,473.538 1546.2,462.073 1515.52,430.965 1496.76,408.536 1485.61,384.604 1469.43,365.818 1466.77,349.842 1473.32,326.521 1490.11,317.672 1508.74,327.682 1543.34,331.753 1585.51,334.295 1615.11,343.499 1656.49,348.962 1684.35,351.639 1715.73,367.382 1736.03,371.575 1762.94,364.803 1787.28,354.414 1820.95,349.036 1853,349.488 1883.27,343.413 1903.75,359.975 1914.09,374.435 1919.08,369.301 1931.46,350.282 1950.59,332.669 1967.33,323.808 1993.21,307.6 2009.13,301.648 1998.19,302.467 1970.14,287.457 1963.99,270.822 1951.69,237.563 1958.89,211.406 1968.82,201.188 2000.63,189.332 2035.2,193.378 2055.46,197.558 2093.43,202.3 2129.02,215.758 2147.93,238.064 2150.98,266.336 2143.86,292.517 2135.51,296.954 2137.53,315.826 2141.35,341.237 2135.23,376.94 2103.36,388.858 2085.47,428.362 2059.56,444.618 2038.01,471.069 2031.83,506.918 2009.87,508.556 1969.35,512.553 1933.2,526.744 1904.62,539.419 1889.8,567.348 1877.53,598.944 1878.51,608.453 1904.88,617.034 1936.44,632.899 1975.63,647.249 2008.23,672.672 2030.45,683.502 2072.08,689.026 2104.3,689.491 2144.94,685.482 2168.76,690.432 2194.18,689.479 2204.96,676.168 2221.52,654.741 2238.05,633.315 2234.18,607.683 2231.32,591.586 2220.65,564.573 2190.63,542.866 2173.42,526.927 2148.63,512.504 2101.32,515.095 2085.34,521.084 2058.59,540.323 2042.83,558.743 2013.65,586.807 2013.25,614.662 2018.84,646.882 2021.84,675.496 2040.06,701.054 2051.47,725.218 2066.51,762.632 2080.56,790.5 2110.44,799.839 2141.35,818.747 2169.1,849.512 2185.59,868.58 2201.53,903.183 2207,923.106 2204.62,932.004 2170.68,937.468 2130.13,954.091 2109.62,949.813 2096.97,956.584 2074.06,961.217 2050.15,956.23 2014.99,939.485 1987.67,933.789 1950.3,938.543 1902.86,953.736 1870.69,965.849 1834.92,964.664 1789.08,973.929 1756.73,973.452 1716.74,974.527 1689.43,968.832 1652.04,973.574 1621.34,967.169 1587.23,960.043 1546.92,923.375 1527.29,916.139 1486.42,907.607 1454.85,891.608 1426.69,876.329 1393.4,853.717 1372.98,849.463 1344.18,862.248 1317.95,878.7 1288.28,894.468 1246.74,914.024 1212.76,919.476 1188.94,914.501 1156.56,888.906 1141.19,866.881 1121.58,834.576 1096.05,810.46 1086.66,780.331 1083.2,754.602 1085.71,733.249 1070.38,698.841 1049.18,685.066 1020.37,672.831 1001.72,650.243 993.235,617.327 991.516,598.296 978.823,567.653 989.796,541.961 1012.58,512.541 1019.33,501.528 1031.98,494.854 1043.79,478.696 1048.82,461.144 1056.38,434.84 1063.09,411.47 1068.1,381.573 1081.51,347.288 1078.95,331.313 1056.17,311.169 1038.46,298.25 1009.82,298.494 982.036,308.162 955.088,302.589 920.564,286.186 881.848,272.007 868.388,269.22 844.822,264.344 828.861,245.63 828.065,223.91 844.069,205.674 867.634,185.934 890.347,169.115 939.936,157.846 960.943,146.833 994.543,141.48 1023.13,153.531 1050.03,159.08 1087,154.424 1120.6,149.082 1137.34,127.986 1153.25,109.798 1166.61,88.0413 "/>
<polyline clip-path="url(#clip481)" style="stroke:#3da44d; stroke-linecap:round; stroke-linejoin:round; stroke-width:4; stroke-opacity:1; fill:none" points="254.188,721.03 266.745,717.117 279.812,715.329 294.608,716.019 310.742,717.705 329.304,717.691 351.753,719.15 375.744,721.415 402.006,723.445 429.165,725.389 453.819,728.824 478.985,731.291 504.646,733.541 531.853,737.314 558.837,740.27 585.896,743.3 610.951,747.012 636.542,751.912 661.549,759.075 685.721,765.625 709.393,769.15 733.262,774.563 758.631,781.894 782.708,791.214 810.545,797.503 838.994,803.665 866.816,810.135 894.104,815.111 919.561,820.674 945.214,829.058 969.599,835.182 993.579,840.716 1016.14,847.52 1036.37,856.419 1054.57,865.532 1072.97,872.985 1093.95,876.007 1114.85,882.133 1136.07,885.646 1157.82,889.28 1182.89,895.184 1207.69,901.605 1233.23,906.972 1258.58,911.608 1285.89,913.586 1314.11,918.202 1341.5,923.416 1369.85,926.003 1397.85,929.293 1425.54,930.725 1452.48,929.582 1479.3,928.096 1505.98,925.584 1532.22,926.095 1558.19,922.193 1584.34,923.592 1606.99,921.805 1631.46,919.261 1654.67,916.485 1676.8,913.57 1697.1,909.777 1718.26,906.113 1739.03,905.613 1759.32,907.788 1777.29,911.861 1797.75,915.357 1815.6,921.777 1835.05,928.898 1853.33,939.016 1867.91,951.806 1881.11,965.09 1895.25,979.496 1909,992.354 1922.1,1005.28 1932.45,1019.24 1943.51,1032.07 1955.63,1041.77 1970,1047.35 1984.84,1050.01 2001.42,1048.76 2018.11,1045.95 2031.51,1034.88 2040.28,1020.51 2048.45,1004.17 2051.49,988.33 2051.06,972.076 2043.21,955.799 2033.86,943.816 2018.45,936.182 2002.78,930.751 1983.49,928.493 1962.68,928.783 1939.6,925.556 1918.96,923.543 1898.08,923.256 1876.92,924.566 1857.64,925.878 1837.17,929.463 1814.14,926.678 1791.45,927.313 1766.89,923.599 1744.29,917.476 1720.17,907.746 1698.66,895.641 1677.82,882.895 1657.27,868.478 1639,852.942 1623.47,839.008 1610.79,824.575 1600.41,809.684 1592.85,794.303 1590.06,778.902 1592.22,763.797 1598.62,752.165 1607.71,742.206 1620.72,735.12 1641.57,734.054 1661.9,738.024 1682.82,740.984 1701.86,748.446 1720.5,755.226 1740.08,762.666 1758.07,770.664 1776.73,777.477 1794.81,785.481 1812.55,793.084 1833.87,798.206 1853.73,801.999 1874.9,804.433 1894.44,805.725 1914.57,808.042 1931.39,811.415 1949.42,817.475 1965.03,828.356 1978.81,841.227 1988.82,857.806 1997.11,873.929 2004.16,891.797 2008.13,907.325 2013,922.629 2016.51,937.863 2021.34,953.306 2030.59,966.543 2041.06,977.868 2050.26,987.098 2061.07,995.762 2073.02,998.758 2088.42,1002.35 2103.06,996.334 2115.94,987.586 2124.47,975.307 2127.91,961.395 2125.91,948.183 2116.66,933.65 2104.08,920.081 2089.41,907.174 2069.79,897.614 2049.87,889.171 2028.56,883.747 2006.9,879.274 1987.54,874.821 1968.98,869.195 1949.62,864.895 1931,859.461 1911.29,854.769 1893.02,851.642 1873.42,847.719 1855.51,844.611 1832.78,842.881 1811.74,841.893 1791.28,839.967 1771.01,839.112 1750.85,835.688 1730.73,834.026 1711.34,833.283 1692.96,833.021 1677.88,832.141 1667.19,828.807 1656.68,826.301 1646.55,826.897 1633.54,828.6 1619.13,830.719 1603.59,834.001 1589.99,840.234 1579.49,850.671 1556.3,847.829 1541.53,844.443 1551.28,854.476 1561.96,848.766 1572.07,842.943 1592.02,850.684 1610.81,838.19 1622.72,821.329 1623.54,804.342 1621.92,787.072 1612.12,766.894 1595.68,754.116 1580.39,736.073 1560.93,723.103 1539.68,730.529 1518.05,739.624 1490.79,736.021 1493.52,715.002 1489.46,691.22 1486.23,671.411 1492.1,654.542 1503.93,636.964 1512.04,619.395 1521.23,596.9 1502.49,585.316 1478.88,571.816 1468.55,568.836 1491.57,560.24 1519.37,553.119 1545.52,541.655 1573.1,531.885 1592.77,514.369 1604.36,491.199 1625.38,476.453 1645.04,455.834 1672.56,462.429 1697.37,475.935 1724.67,487.577 1751.75,502.767 1774.62,515.668 1770.53,534.681 1759.65,556.498 1742.33,576.368 1714.38,587.9 1683.21,597.146 1653.74,586.608 1635.04,566.223 1602.92,559.417 1582.83,541.194 1585.86,519.037 1603.09,502.938 1620.63,487.271 1640.97,466.873 1670.83,465.458 1695.8,465.494 1715.23,449.309 1732.47,431.305 1756.25,425.154 1753.41,410.665 1771.97,401.342 1794.57,388.85 1808.68,371.567 1793.26,357.269 1773.31,347.054 1768.51,341.344 1794.04,338.173 1817.76,335.927 1840.98,343.087 1868.65,340.398 1895.25,344.364 1911.32,359.848 1916.46,381.024 1899.99,394.297 1884.65,413.067 1875.4,434.481 1865.55,458.094 1855.12,482.026 1847.52,502.782 1818.07,510.035 1792.19,527.903 1760.04,532.18 1735.13,552.709 1721.47,572.983 1699.99,590.425 1669.45,593.776 1640.05,584.114 1624.79,561.85 1597.94,555.509 1576.17,540.027 1565.17,526.657 1584.13,510.55 1607.22,501.587 1634.95,495.168 1661.06,496.869 1686.84,506.547 1718.02,512.206 1731.44,535.127 1737.4,555.91 1760.32,567.56 1783.64,576.894 1804.4,577.622 1825.36,583.021 1850.66,578.857 1873.41,568.568 1897.96,557.584 1925.87,557.739 1940.33,576.849 1939.45,602.221 1927.55,626.808 1915.36,651.447 1898.16,674.3 1875.59,693.129 1858.14,718.856 1840.09,744.866 1809.85,757.51 1782.4,757.165 1758.68,778.8 1728.15,790.632 1714.84,812.622 1698.92,832.83 1680.63,850.641 1651.98,857.222 1623.39,858.068 1595.9,849.605 1566.31,845.228 1536.6,835.581 1513.76,816.15 1494.81,796.337 1476.44,777.119 1457.01,759.545 1438.38,741.715 1412.08,740.968 1385.89,741.953 1363.45,732.945 1343.37,721.296 1328.94,704.828 1317.29,700.138 1295.88,704.532 1273.18,710.686 1260.41,731.703 1241.23,732.005 1215.04,740.073 1189,734.936 1163.55,725.144 1137.71,713.874 1111.4,702.675 1083.59,700.093 1056.8,692.976 1028.42,687.978 1005.2,675.817 989.102,655.417 990.902,633.78 1002.68,613.769 1020.77,594.417 1030.93,573.408 1039.77,548.578 1036.83,526.007 1017.75,509.724 992.771,504.914 987.459,481.975 1011.7,475.537 1040.85,478.991 1071.01,478.335 1101.21,472.602 1131.82,465.456 1159.62,449 1184.51,429.105 1209.91,407.223 1245.86,399.343 1278.04,407.643 1310.68,415.248 1340.94,425.062 1368.98,438.881 1396.54,454.833 1426.21,466.713 1457.98,474.884 1480.7,498.75 1505.13,515.848 1528.28,535.13 1555.76,550.069 1575.19,568.727 1598.54,585.477 1618.16,569.819 1634.84,550.076 1662.5,539.782 1692.72,532.472 1722.19,523.898 1754.17,522.224 1787.42,533.926 1813.66,554.417 1818.93,582.616 1810.61,610.473 1796.87,640.088 1789.24,669.847 1784.14,702.482 1785.53,736.025 1797.03,764.639 1828.9,781.912 1862.47,783.066 1892.76,792.893 1925.86,796.549 1948.56,822.158 1971.46,845.892 1981.54,874.961 1990.84,900.416 1999.05,922.204 2022.37,913.901 2049.27,920.797 2070.82,926.1 2086.3,935.435 2099.06,936.618 2095.38,947.367 2090.96,965.152 2104.42,980.156 2126.24,983.28 2148.33,972.663 2171.48,969.552 2193.45,980.654 2204.48,998.604 2212.46,1017.74 2214.19,1025.63 2217.07,1007.57 2221.66,989.408 2225.42,963.706 2213.65,942.407 2205.41,918.743 2195.01,895.858 2185.07,870.495 2167.78,849.652 2153.02,825.173 2156.11,798.837 2176.38,788.003 2201.96,793.037 2228.56,801.129 2248.07,814.833 2256.84,839.471 2277.34,859.969 2287.52,883.406 2281.71,910.311 2265.77,929.684 2244.1,946.512 2210.31,954.518 2189.94,976.687 2160.31,991.35 2138.85,1011.86 2120.47,1034.85 2115.73,1063.63 2089.37,1079.53 2069.25,1099.8 2042.3,1113.37 2019.35,1132.22 1993.42,1145.14 1973.64,1166.72 1943.48,1175.9 1918.84,1190.65 1893.69,1207.15 1868.36,1218.52 1841.8,1231.65 1824.46,1252.94 1816.49,1277.5 1808.12,1302.14 1790.44,1321.67 1799.75,1345.27 1815.68,1364.15 1820.36,1386.4 1815.92,1409.73 1805.52,1434.71 1778.47,1445.72 1746.92,1439.57 1740.81,1410.82 1729.62,1383.12 1718.12,1357.7 1688.85,1338.57 1656.31,1322.99 1624.15,1309.56 1588.22,1314.18 1552.26,1319.67 1517.16,1328.32 1482.67,1330.2 1451.21,1316.94 1421.55,1298.55 1410.69,1271.51 1408.51,1241.75 1401.32,1209.06 1375.85,1189.26 1367.09,1160.69 1367.07,1131.54 1360.45,1105.79 1355.38,1078.23 1339.63,1051.99 1324.86,1025.93 1322.85,993.007 1318.75,960.115 1334.2,930.239 1351.48,899.388 1368.21,869.377 1389.99,846.049 1417.36,823.21 1413.63,789.815 1389.82,766.187 1358.13,758.543 1326.3,749.85 1303.67,728.014 1296.47,700.551 1290.57,671.193 1304.07,645.967 1322.92,624.657 1351.25,612.165 1381.53,606.022 1414.54,598.33 1447.89,596.427 1481.11,596.834 1513.39,587.516 1531.06,561.684 1555.07,544.85 1582.06,536.969 1605.42,524.144 1608.54,501.614 1590.21,483.351 1568.63,467.472 1542.99,453.11 1523.5,435.478 1510.09,412.482 1484.04,394.333 1466.81,372.011 1463.83,347.501 1467.18,322.449 1492.19,312.405 1518.28,327.422 1550.22,334.733 1581.62,338.473 1613.9,340.919 1645.34,348.927 1678.34,354.502 1706.63,369.281 1739.22,371.87 1766.56,365.728 1791.65,355.221 1819.73,345.533 1846.82,339.794 1874.86,343.623 1894.19,361.069 1906.95,375.931 1920.38,363.648 1931.24,345.752 1947.39,328.632 1974.17,325.505 1999.39,318.032 2011.79,308.772 1986.94,305.595 1972.26,285.733 1955.2,264.42 1950.36,240.817 1959.62,215.936 1971.3,194.153 2000.69,191.322 2030.25,190.729 2061.96,194.445 2096.49,197.252 2127.95,209.754 2151.46,230.91 2156.79,258.304 2150.29,283.957 2134.72,300.63 2145.78,323.061 2144,349.452 2130.02,374.677 2104.51,394.217 2084.13,419.516 2063.05,444.73 2050.96,472.597 2034.56,500.437 2004.17,513.18 1967.81,510.282 1936.46,526.413 1907.77,543.352 1885.33,566.082 1867.62,588.342 1881.05,613.678 1911.85,621.847 1938.37,638.35 1965.96,654.582 1997.51,669.056 2030.51,675.222 2062.32,681.249 2096.46,687.88 2131.94,686.462 2161.31,694.286 2189.12,695.64 2201.52,674.121 2222.5,660.418 2239.1,637.754 2233.74,612.089 2218.32,590.02 2208.52,566.038 2191.09,545.634 2178.12,522.362 2147.02,508.646 2112.42,510.953 2080.23,515.765 2061.52,537.032 2040.14,560.674 2018.51,585.214 2013.09,612.256 2015.34,644.2 2022.72,673.073 2036.12,702.396 2046.05,731.531 2063,760.297 2082.8,787.124 2115.92,800.302 2143.02,819.529 2165.67,843.479 2184.21,868.939 2199.77,892.97 2209.53,918.369 2198.92,937.943 2170.03,939.351 2142.26,941.829 2117.71,945.786 2098.75,953.245 2071.72,956.499 2042.77,953.801 2014.13,944.552 1981.8,937.962 1944.63,943.53 1909.57,955.429 1872.43,965.999 1832.8,969.004 1795.41,977.574 1757.57,974.058 1722.64,977.615 1687.97,972.885 1651.98,978.014 1616.13,969.858 1579.25,958.746 1557.06,932.899 1524.97,914.574 1487.92,909.332 1456.11,893.422 1430.67,871.664 1403.45,851.356 1369.56,846.861 1342.42,861.408 1317.31,886.147 1282.7,896.759 1253.64,914.926 1217.09,928.383 1183.88,912.676 1159.59,890.513 1142.41,864.424 1116.97,839.29 1094.09,814.542 1083.27,784.839 1089.59,752.939 1090.81,725.144 1073.02,701.98 1044.37,689.513 1019.84,672.021 1006.11,647.487 993.873,622.135 987.526,595.926 977.019,569.249 976.743,541.604 993.519,518.157 1019.54,506.783 1033.91,490.706 1038.07,473.748 1052.41,454.236 1060.77,430.169 1066.49,406.685 1069.31,382.712 1073.2,355.852 1071.47,330.228 1057.23,310.947 1036.46,300.46 1007.55,300.589 977.519,310.311 949.82,297.844 924.795,284.668 892.464,278.981 865.724,276.461 842.165,266.97 825.602,247.041 828.899,220.475 845.688,197.958 870.509,180.627 900.492,170.906 930.108,157.099 959.915,143.754 990.281,143.827 1022.26,151.845 1050.74,163.107 1085.51,161.613 1117.85,150.919 1138.76,130.411 1162.15,114.231 1172.14,89.51 "/>
<path clip-path="url(#clip480)" d="M250.367 1438.47 L793.155 1438.47 L793.155 1231.11 L250.367 1231.11  Z" fill="#ffffff" fill-rule="evenodd" fill-opacity="1"/>
<polyline clip-path="url(#clip480)" style="stroke:#000000; stroke-linecap:round; stroke-linejoin:round; stroke-width:4; stroke-opacity:1; fill:none" points="250.367,1438.47 793.155,1438.47 793.155,1231.11 250.367,1231.11 250.367,1438.47 "/>
<polyline clip-path="url(#clip480)" style="stroke:#0000ff; stroke-linecap:round; stroke-linejoin:round; stroke-width:4; stroke-opacity:1; fill:none" points="274.533,1282.95 419.525,1282.95 "/>
<path clip-path="url(#clip480)" d="M467.718 1286.21 L467.718 1288.29 L448.135 1288.29 Q448.413 1292.69 450.774 1295 Q453.158 1297.29 457.394 1297.29 Q459.848 1297.29 462.139 1296.69 Q464.454 1296.09 466.723 1294.89 L466.723 1298.91 Q464.431 1299.89 462.024 1300.4 Q459.616 1300.91 457.14 1300.91 Q450.936 1300.91 447.302 1297.29 Q443.691 1293.68 443.691 1287.53 Q443.691 1281.16 447.116 1277.43 Q450.565 1273.68 456.399 1273.68 Q461.63 1273.68 464.663 1277.06 Q467.718 1280.42 467.718 1286.21 M463.459 1284.96 Q463.413 1281.46 461.491 1279.38 Q459.593 1277.29 456.445 1277.29 Q452.88 1277.29 450.728 1279.31 Q448.598 1281.32 448.274 1284.98 L463.459 1284.96 Z" fill="#000000" fill-rule="nonzero" fill-opacity="1" /><path clip-path="url(#clip480)" d="M491.237 1275.07 L491.237 1279.1 Q489.431 1278.17 487.487 1277.71 Q485.542 1277.25 483.459 1277.25 Q480.288 1277.25 478.69 1278.22 Q477.116 1279.19 477.116 1281.14 Q477.116 1282.62 478.251 1283.48 Q479.385 1284.31 482.811 1285.07 L484.269 1285.4 Q488.806 1286.37 490.704 1288.15 Q492.625 1289.91 492.625 1293.08 Q492.625 1296.69 489.755 1298.8 Q486.908 1300.91 481.908 1300.91 Q479.825 1300.91 477.556 1300.49 Q475.311 1300.1 472.811 1299.29 L472.811 1294.89 Q475.172 1296.11 477.463 1296.74 Q479.755 1297.34 482 1297.34 Q485.01 1297.34 486.63 1296.32 Q488.25 1295.28 488.25 1293.41 Q488.25 1291.67 487.07 1290.74 Q485.912 1289.82 481.954 1288.96 L480.473 1288.61 Q476.514 1287.78 474.755 1286.07 Q472.996 1284.33 472.996 1281.32 Q472.996 1277.67 475.588 1275.67 Q478.181 1273.68 482.95 1273.68 Q485.311 1273.68 487.394 1274.03 Q489.477 1274.38 491.237 1275.07 Z" fill="#000000" fill-rule="nonzero" fill-opacity="1" /><path clip-path="url(#clip480)" d="M503.621 1266.95 L503.621 1274.31 L512.394 1274.31 L512.394 1277.62 L503.621 1277.62 L503.621 1291.69 Q503.621 1294.86 504.477 1295.77 Q505.357 1296.67 508.019 1296.67 L512.394 1296.67 L512.394 1300.23 L508.019 1300.23 Q503.088 1300.23 501.213 1298.41 Q499.338 1296.55 499.338 1291.69 L499.338 1277.62 L496.213 1277.62 L496.213 1274.31 L499.338 1274.31 L499.338 1266.95 L503.621 1266.95 Z" fill="#000000" fill-rule="nonzero" fill-opacity="1" /><path clip-path="url(#clip480)" d="M517.996 1274.31 L522.255 1274.31 L522.255 1300.23 L517.996 1300.23 L517.996 1274.31 M517.996 1264.22 L522.255 1264.22 L522.255 1269.61 L517.996 1269.61 L517.996 1264.22 Z" fill="#000000" fill-rule="nonzero" fill-opacity="1" /><path clip-path="url(#clip480)" d="M551.352 1279.29 Q552.949 1276.42 555.171 1275.05 Q557.394 1273.68 560.403 1273.68 Q564.454 1273.68 566.653 1276.53 Q568.852 1279.35 568.852 1284.59 L568.852 1300.23 L564.569 1300.23 L564.569 1284.73 Q564.569 1281 563.25 1279.19 Q561.931 1277.39 559.222 1277.39 Q555.912 1277.39 553.991 1279.59 Q552.07 1281.79 552.07 1285.58 L552.07 1300.23 L547.787 1300.23 L547.787 1284.73 Q547.787 1280.98 546.468 1279.19 Q545.148 1277.39 542.394 1277.39 Q539.13 1277.39 537.209 1279.61 Q535.287 1281.81 535.287 1285.58 L535.287 1300.23 L531.005 1300.23 L531.005 1274.31 L535.287 1274.31 L535.287 1278.34 Q536.746 1275.95 538.783 1274.82 Q540.82 1273.68 543.621 1273.68 Q546.445 1273.68 548.412 1275.12 Q550.403 1276.55 551.352 1279.29 Z" fill="#000000" fill-rule="nonzero" fill-opacity="1" /><path clip-path="url(#clip480)" d="M589.13 1287.2 Q583.968 1287.2 581.977 1288.38 Q579.986 1289.56 579.986 1292.41 Q579.986 1294.68 581.468 1296.02 Q582.972 1297.34 585.542 1297.34 Q589.083 1297.34 591.213 1294.84 Q593.366 1292.32 593.366 1288.15 L593.366 1287.2 L589.13 1287.2 M597.625 1285.44 L597.625 1300.23 L593.366 1300.23 L593.366 1296.3 Q591.907 1298.66 589.731 1299.79 Q587.555 1300.91 584.407 1300.91 Q580.426 1300.91 578.065 1298.68 Q575.727 1296.44 575.727 1292.69 Q575.727 1288.31 578.643 1286.09 Q581.583 1283.87 587.393 1283.87 L593.366 1283.87 L593.366 1283.45 Q593.366 1280.51 591.421 1278.92 Q589.5 1277.29 586.005 1277.29 Q583.782 1277.29 581.676 1277.83 Q579.569 1278.36 577.625 1279.42 L577.625 1275.49 Q579.963 1274.59 582.162 1274.15 Q584.361 1273.68 586.444 1273.68 Q592.069 1273.68 594.847 1276.6 Q597.625 1279.52 597.625 1285.44 Z" fill="#000000" fill-rule="nonzero" fill-opacity="1" /><path clip-path="url(#clip480)" d="M610.611 1266.95 L610.611 1274.31 L619.384 1274.31 L619.384 1277.62 L610.611 1277.62 L610.611 1291.69 Q610.611 1294.86 611.467 1295.77 Q612.347 1296.67 615.009 1296.67 L619.384 1296.67 L619.384 1300.23 L615.009 1300.23 Q610.078 1300.23 608.204 1298.41 Q606.329 1296.55 606.329 1291.69 L606.329 1277.62 L603.204 1277.62 L603.204 1274.31 L606.329 1274.31 L606.329 1266.95 L610.611 1266.95 Z" fill="#000000" fill-rule="nonzero" fill-opacity="1" /><path clip-path="url(#clip480)" d="M647.162 1286.21 L647.162 1288.29 L627.578 1288.29 Q627.856 1292.69 630.217 1295 Q632.602 1297.29 636.838 1297.29 Q639.291 1297.29 641.583 1296.69 Q643.898 1296.09 646.166 1294.89 L646.166 1298.91 Q643.875 1299.89 641.467 1300.4 Q639.06 1300.91 636.583 1300.91 Q630.379 1300.91 626.745 1297.29 Q623.134 1293.68 623.134 1287.53 Q623.134 1281.16 626.56 1277.43 Q630.009 1273.68 635.842 1273.68 Q641.074 1273.68 644.106 1277.06 Q647.162 1280.42 647.162 1286.21 M642.902 1284.96 Q642.856 1281.46 640.935 1279.38 Q639.037 1277.29 635.889 1277.29 Q632.324 1277.29 630.171 1279.31 Q628.041 1281.32 627.717 1284.98 L642.902 1284.96 Z" fill="#000000" fill-rule="nonzero" fill-opacity="1" /><polyline clip-path="url(#clip480)" style="stroke:#ff0000; stroke-linecap:round; stroke-linejoin:round; stroke-width:4; stroke-opacity:1; fill:none" points="274.533,1334.79 419.525,1334.79 "/>
<path clip-path="url(#clip480)" d="M464.038 1331.13 Q465.635 1328.26 467.857 1326.89 Q470.079 1325.52 473.088 1325.52 Q477.139 1325.52 479.338 1328.37 Q481.538 1331.19 481.538 1336.43 L481.538 1352.07 L477.255 1352.07 L477.255 1336.57 Q477.255 1332.84 475.936 1331.03 Q474.616 1329.23 471.908 1329.23 Q468.598 1329.23 466.676 1331.43 Q464.755 1333.63 464.755 1337.42 L464.755 1352.07 L460.473 1352.07 L460.473 1336.57 Q460.473 1332.82 459.153 1331.03 Q457.834 1329.23 455.079 1329.23 Q451.815 1329.23 449.894 1331.45 Q447.973 1333.65 447.973 1337.42 L447.973 1352.07 L443.691 1352.07 L443.691 1326.15 L447.973 1326.15 L447.973 1330.18 Q449.431 1327.79 451.468 1326.66 Q453.505 1325.52 456.306 1325.52 Q459.13 1325.52 461.098 1326.96 Q463.089 1328.39 464.038 1331.13 Z" fill="#000000" fill-rule="nonzero" fill-opacity="1" /><path clip-path="url(#clip480)" d="M512.209 1338.05 L512.209 1340.13 L492.625 1340.13 Q492.903 1344.53 495.264 1346.84 Q497.649 1349.13 501.885 1349.13 Q504.338 1349.13 506.63 1348.53 Q508.945 1347.93 511.213 1346.73 L511.213 1350.75 Q508.922 1351.73 506.514 1352.24 Q504.107 1352.75 501.63 1352.75 Q495.426 1352.75 491.792 1349.13 Q488.181 1345.52 488.181 1339.37 Q488.181 1333 491.607 1329.27 Q495.056 1325.52 500.889 1325.52 Q506.121 1325.52 509.153 1328.9 Q512.209 1332.26 512.209 1338.05 M507.949 1336.8 Q507.903 1333.3 505.982 1331.22 Q504.084 1329.13 500.936 1329.13 Q497.371 1329.13 495.218 1331.15 Q493.088 1333.16 492.764 1336.82 L507.949 1336.8 Z" fill="#000000" fill-rule="nonzero" fill-opacity="1" /><path clip-path="url(#clip480)" d="M530.982 1339.04 Q525.82 1339.04 523.829 1340.22 Q521.838 1341.4 521.838 1344.25 Q521.838 1346.52 523.32 1347.86 Q524.824 1349.18 527.394 1349.18 Q530.935 1349.18 533.065 1346.68 Q535.218 1344.16 535.218 1339.99 L535.218 1339.04 L530.982 1339.04 M539.477 1337.28 L539.477 1352.07 L535.218 1352.07 L535.218 1348.14 Q533.759 1350.5 531.584 1351.63 Q529.408 1352.75 526.26 1352.75 Q522.278 1352.75 519.917 1350.52 Q517.579 1348.28 517.579 1344.53 Q517.579 1340.15 520.496 1337.93 Q523.435 1335.71 529.246 1335.71 L535.218 1335.71 L535.218 1335.29 Q535.218 1332.35 533.273 1330.76 Q531.352 1329.13 527.857 1329.13 Q525.635 1329.13 523.528 1329.67 Q521.422 1330.2 519.477 1331.26 L519.477 1327.33 Q521.815 1326.43 524.014 1325.99 Q526.213 1325.52 528.297 1325.52 Q533.922 1325.52 536.699 1328.44 Q539.477 1331.36 539.477 1337.28 Z" fill="#000000" fill-rule="nonzero" fill-opacity="1" /><path clip-path="url(#clip480)" d="M564.778 1326.91 L564.778 1330.94 Q562.972 1330.01 561.028 1329.55 Q559.083 1329.09 557 1329.09 Q553.829 1329.09 552.232 1330.06 Q550.658 1331.03 550.658 1332.98 Q550.658 1334.46 551.792 1335.32 Q552.926 1336.15 556.352 1336.91 L557.81 1337.24 Q562.347 1338.21 564.245 1339.99 Q566.167 1341.75 566.167 1344.92 Q566.167 1348.53 563.296 1350.64 Q560.449 1352.75 555.449 1352.75 Q553.366 1352.75 551.097 1352.33 Q548.852 1351.94 546.352 1351.13 L546.352 1346.73 Q548.713 1347.95 551.005 1348.58 Q553.296 1349.18 555.542 1349.18 Q558.551 1349.18 560.171 1348.16 Q561.792 1347.12 561.792 1345.25 Q561.792 1343.51 560.611 1342.58 Q559.454 1341.66 555.495 1340.8 L554.014 1340.45 Q550.056 1339.62 548.296 1337.91 Q546.537 1336.17 546.537 1333.16 Q546.537 1329.51 549.13 1327.51 Q551.722 1325.52 556.491 1325.52 Q558.852 1325.52 560.935 1325.87 Q563.019 1326.22 564.778 1326.91 Z" fill="#000000" fill-rule="nonzero" fill-opacity="1" /><path clip-path="url(#clip480)" d="M572.509 1341.84 L572.509 1326.15 L576.768 1326.15 L576.768 1341.68 Q576.768 1345.36 578.204 1347.21 Q579.639 1349.04 582.509 1349.04 Q585.958 1349.04 587.949 1346.84 Q589.963 1344.64 589.963 1340.85 L589.963 1326.15 L594.222 1326.15 L594.222 1352.07 L589.963 1352.07 L589.963 1348.09 Q588.412 1350.45 586.352 1351.61 Q584.315 1352.75 581.606 1352.75 Q577.139 1352.75 574.824 1349.97 Q572.509 1347.19 572.509 1341.84 M583.227 1325.52 L583.227 1325.52 Z" fill="#000000" fill-rule="nonzero" fill-opacity="1" /><path clip-path="url(#clip480)" d="M618.018 1330.13 Q617.301 1329.71 616.444 1329.53 Q615.611 1329.32 614.592 1329.32 Q610.981 1329.32 609.037 1331.68 Q607.116 1334.02 607.116 1338.42 L607.116 1352.07 L602.833 1352.07 L602.833 1326.15 L607.116 1326.15 L607.116 1330.18 Q608.458 1327.82 610.611 1326.68 Q612.764 1325.52 615.842 1325.52 Q616.282 1325.52 616.815 1325.59 Q617.347 1325.64 617.995 1325.76 L618.018 1330.13 Z" fill="#000000" fill-rule="nonzero" fill-opacity="1" /><path clip-path="url(#clip480)" d="M643.62 1338.05 L643.62 1340.13 L624.037 1340.13 Q624.315 1344.53 626.676 1346.84 Q629.06 1349.13 633.296 1349.13 Q635.75 1349.13 638.041 1348.53 Q640.356 1347.93 642.625 1346.73 L642.625 1350.75 Q640.333 1351.73 637.926 1352.24 Q635.518 1352.75 633.041 1352.75 Q626.838 1352.75 623.203 1349.13 Q619.592 1345.52 619.592 1339.37 Q619.592 1333 623.018 1329.27 Q626.467 1325.52 632.301 1325.52 Q637.532 1325.52 640.564 1328.9 Q643.62 1332.26 643.62 1338.05 M639.361 1336.8 Q639.314 1333.3 637.393 1331.22 Q635.495 1329.13 632.347 1329.13 Q628.782 1329.13 626.629 1331.15 Q624.5 1333.16 624.176 1336.82 L639.361 1336.8 Z" fill="#000000" fill-rule="nonzero" fill-opacity="1" /><path clip-path="url(#clip480)" d="M670.796 1331.13 Q672.393 1328.26 674.615 1326.89 Q676.837 1325.52 679.847 1325.52 Q683.898 1325.52 686.097 1328.37 Q688.296 1331.19 688.296 1336.43 L688.296 1352.07 L684.013 1352.07 L684.013 1336.57 Q684.013 1332.84 682.694 1331.03 Q681.374 1329.23 678.666 1329.23 Q675.356 1329.23 673.435 1331.43 Q671.513 1333.63 671.513 1337.42 L671.513 1352.07 L667.231 1352.07 L667.231 1336.57 Q667.231 1332.82 665.912 1331.03 Q664.592 1329.23 661.837 1329.23 Q658.574 1329.23 656.652 1331.45 Q654.731 1333.65 654.731 1337.42 L654.731 1352.07 L650.449 1352.07 L650.449 1326.15 L654.731 1326.15 L654.731 1330.18 Q656.189 1327.79 658.226 1326.66 Q660.263 1325.52 663.064 1325.52 Q665.888 1325.52 667.856 1326.96 Q669.847 1328.39 670.796 1331.13 Z" fill="#000000" fill-rule="nonzero" fill-opacity="1" /><path clip-path="url(#clip480)" d="M718.967 1338.05 L718.967 1340.13 L699.384 1340.13 Q699.661 1344.53 702.022 1346.84 Q704.407 1349.13 708.643 1349.13 Q711.096 1349.13 713.388 1348.53 Q715.703 1347.93 717.971 1346.73 L717.971 1350.75 Q715.68 1351.73 713.272 1352.24 Q710.865 1352.75 708.388 1352.75 Q702.184 1352.75 698.55 1349.13 Q694.939 1345.52 694.939 1339.37 Q694.939 1333 698.365 1329.27 Q701.814 1325.52 707.647 1325.52 Q712.879 1325.52 715.911 1328.9 Q718.967 1332.26 718.967 1338.05 M714.708 1336.8 Q714.661 1333.3 712.74 1331.22 Q710.842 1329.13 707.694 1329.13 Q704.129 1329.13 701.976 1331.15 Q699.847 1333.16 699.522 1336.82 L714.708 1336.8 Z" fill="#000000" fill-rule="nonzero" fill-opacity="1" /><path clip-path="url(#clip480)" d="M747.508 1336.43 L747.508 1352.07 L743.249 1352.07 L743.249 1336.57 Q743.249 1332.88 741.814 1331.06 Q740.379 1329.23 737.508 1329.23 Q734.059 1329.23 732.069 1331.43 Q730.078 1333.63 730.078 1337.42 L730.078 1352.07 L725.795 1352.07 L725.795 1326.15 L730.078 1326.15 L730.078 1330.18 Q731.606 1327.84 733.666 1326.68 Q735.749 1325.52 738.457 1325.52 Q742.925 1325.52 745.217 1328.3 Q747.508 1331.06 747.508 1336.43 Z" fill="#000000" fill-rule="nonzero" fill-opacity="1" /><path clip-path="url(#clip480)" d="M760.217 1318.79 L760.217 1326.15 L768.99 1326.15 L768.99 1329.46 L760.217 1329.46 L760.217 1343.53 Q760.217 1346.7 761.073 1347.61 Q761.953 1348.51 764.615 1348.51 L768.99 1348.51 L768.99 1352.07 L764.615 1352.07 Q759.684 1352.07 757.809 1350.25 Q755.934 1348.39 755.934 1343.53 L755.934 1329.46 L752.809 1329.46 L752.809 1326.15 L755.934 1326.15 L755.934 1318.79 L760.217 1318.79 Z" fill="#000000" fill-rule="nonzero" fill-opacity="1" /><polyline clip-path="url(#clip480)" style="stroke:#3da44d; stroke-linecap:round; stroke-linejoin:round; stroke-width:4; stroke-opacity:1; fill:none" points="274.533,1386.63 419.525,1386.63 "/>
<path clip-path="url(#clip480)" d="M468.343 1377.99 L458.968 1390.6 L468.829 1403.91 L463.806 1403.91 L456.26 1393.73 L448.714 1403.91 L443.691 1403.91 L453.76 1390.35 L444.547 1377.99 L449.57 1377.99 L456.445 1387.22 L463.32 1377.99 L468.343 1377.99 Z" fill="#000000" fill-rule="nonzero" fill-opacity="1" /><path clip-path="url(#clip480)" d="M491.375 1378.75 L491.375 1382.78 Q489.57 1381.85 487.625 1381.39 Q485.681 1380.93 483.598 1380.93 Q480.426 1380.93 478.829 1381.9 Q477.255 1382.87 477.255 1384.82 Q477.255 1386.3 478.389 1387.16 Q479.524 1387.99 482.95 1388.75 L484.408 1389.08 Q488.945 1390.05 490.843 1391.83 Q492.764 1393.59 492.764 1396.76 Q492.764 1400.37 489.894 1402.48 Q487.047 1404.59 482.047 1404.59 Q479.963 1404.59 477.695 1404.17 Q475.45 1403.78 472.95 1402.97 L472.95 1398.57 Q475.311 1399.79 477.602 1400.42 Q479.894 1401.02 482.139 1401.02 Q485.149 1401.02 486.769 1400 Q488.389 1398.96 488.389 1397.09 Q488.389 1395.35 487.209 1394.42 Q486.051 1393.5 482.093 1392.64 L480.612 1392.29 Q476.653 1391.46 474.894 1389.75 Q473.135 1388.01 473.135 1385 Q473.135 1381.35 475.727 1379.35 Q478.32 1377.36 483.088 1377.36 Q485.45 1377.36 487.533 1377.71 Q489.616 1378.06 491.375 1378.75 Z" fill="#000000" fill-rule="nonzero" fill-opacity="1" /></svg>
