<?xml version="1.0" encoding="utf-8"?>
<svg xmlns="http://www.w3.org/2000/svg" xmlns:xlink="http://www.w3.org/1999/xlink" width="600" height="400" viewBox="0 0 2400 1600">
<defs>
  <clipPath id="clip380">
    <rect x="0" y="0" width="2400" height="1600"/>
  </clipPath>
</defs>
<path clip-path="url(#clip380)" d="M0 1600 L2400 1600 L2400 0 L0 0  Z" fill="#ffffff" fill-rule="evenodd" fill-opacity="1"/>
<defs>
  <clipPath id="clip381">
    <rect x="1393" y="47" width="960" height="1440"/>
  </clipPath>
</defs>
<path clip-path="url(#clip380)" d="M193.936 1486.45 L1152.76 1486.45 L1152.76 47.2441 L193.936 47.2441  Z" fill="#ffffff" fill-rule="evenodd" fill-opacity="1"/>
<defs>
  <clipPath id="clip382">
    <rect x="193" y="47" width="960" height="1440"/>
  </clipPath>
</defs>
<polyline clip-path="url(#clip382)" style="stroke:#000000; stroke-linecap:round; stroke-linejoin:round; stroke-width:2; stroke-opacity:0.1; fill:none" points="209.622,1486.45 209.622,47.2441 "/>
<polyline clip-path="url(#clip382)" style="stroke:#000000; stroke-linecap:round; stroke-linejoin:round; stroke-width:2; stroke-opacity:0.1; fill:none" points="438.622,1486.45 438.622,47.2441 "/>
<polyline clip-path="url(#clip382)" style="stroke:#000000; stroke-linecap:round; stroke-linejoin:round; stroke-width:2; stroke-opacity:0.1; fill:none" points="667.621,1486.45 667.621,47.2441 "/>
<polyline clip-path="url(#clip382)" style="stroke:#000000; stroke-linecap:round; stroke-linejoin:round; stroke-width:2; stroke-opacity:0.1; fill:none" points="896.62,1486.45 896.62,47.2441 "/>
<polyline clip-path="url(#clip382)" style="stroke:#000000; stroke-linecap:round; stroke-linejoin:round; stroke-width:2; stroke-opacity:0.1; fill:none" points="1125.62,1486.45 1125.62,47.2441 "/>
<polyline clip-path="url(#clip382)" style="stroke:#000000; stroke-linecap:round; stroke-linejoin:round; stroke-width:2; stroke-opacity:0.1; fill:none" points="193.936,1437.47 1152.76,1437.47 "/>
<polyline clip-path="url(#clip382)" style="stroke:#000000; stroke-linecap:round; stroke-linejoin:round; stroke-width:2; stroke-opacity:0.1; fill:none" points="193.936,1134.03 1152.76,1134.03 "/>
<polyline clip-path="url(#clip382)" style="stroke:#000000; stroke-linecap:round; stroke-linejoin:round; stroke-width:2; stroke-opacity:0.1; fill:none" points="193.936,830.605 1152.76,830.605 "/>
<polyline clip-path="url(#clip382)" style="stroke:#000000; stroke-linecap:round; stroke-linejoin:round; stroke-width:2; stroke-opacity:0.1; fill:none" points="193.936,527.174 1152.76,527.174 "/>
<polyline clip-path="url(#clip382)" style="stroke:#000000; stroke-linecap:round; stroke-linejoin:round; stroke-width:2; stroke-opacity:0.1; fill:none" points="193.936,223.744 1152.76,223.744 "/>
<polyline clip-path="url(#clip380)" style="stroke:#000000; stroke-linecap:round; stroke-linejoin:round; stroke-width:4; stroke-opacity:1; fill:none" points="193.936,1486.45 1152.76,1486.45 "/>
<polyline clip-path="url(#clip380)" style="stroke:#000000; stroke-linecap:round; stroke-linejoin:round; stroke-width:4; stroke-opacity:1; fill:none" points="209.622,1486.45 209.622,1467.55 "/>
<polyline clip-path="url(#clip380)" style="stroke:#000000; stroke-linecap:round; stroke-linejoin:round; stroke-width:4; stroke-opacity:1; fill:none" points="438.622,1486.45 438.622,1467.55 "/>
<polyline clip-path="url(#clip380)" style="stroke:#000000; stroke-linecap:round; stroke-linejoin:round; stroke-width:4; stroke-opacity:1; fill:none" points="667.621,1486.45 667.621,1467.55 "/>
<polyline clip-path="url(#clip380)" style="stroke:#000000; stroke-linecap:round; stroke-linejoin:round; stroke-width:4; stroke-opacity:1; fill:none" points="896.62,1486.45 896.62,1467.55 "/>
<polyline clip-path="url(#clip380)" style="stroke:#000000; stroke-linecap:round; stroke-linejoin:round; stroke-width:4; stroke-opacity:1; fill:none" points="1125.62,1486.45 1125.62,1467.55 "/>
<path clip-path="url(#clip380)" d="M209.622 1517.37 Q206.011 1517.37 204.183 1520.93 Q202.377 1524.47 202.377 1531.6 Q202.377 1538.71 204.183 1542.27 Q206.011 1545.82 209.622 1545.82 Q213.257 1545.82 215.062 1542.27 Q216.891 1538.71 216.891 1531.6 Q216.891 1524.47 215.062 1520.93 Q213.257 1517.37 209.622 1517.37 M209.622 1513.66 Q215.433 1513.66 218.488 1518.27 Q221.567 1522.85 221.567 1531.6 Q221.567 1540.33 218.488 1544.94 Q215.433 1549.52 209.622 1549.52 Q203.812 1549.52 200.734 1544.94 Q197.678 1540.33 197.678 1531.6 Q197.678 1522.85 200.734 1518.27 Q203.812 1513.66 209.622 1513.66 Z" fill="#000000" fill-rule="nonzero" fill-opacity="1" /><path clip-path="url(#clip380)" d="M417.395 1544.91 L433.714 1544.91 L433.714 1548.85 L411.77 1548.85 L411.77 1544.91 Q414.432 1542.16 419.015 1537.53 Q423.622 1532.88 424.802 1531.53 Q427.048 1529.01 427.927 1527.27 Q428.83 1525.51 428.83 1523.82 Q428.83 1521.07 426.886 1519.33 Q424.964 1517.6 421.863 1517.6 Q419.663 1517.6 417.21 1518.36 Q414.779 1519.13 412.001 1520.68 L412.001 1515.95 Q414.826 1514.82 417.279 1514.24 Q419.733 1513.66 421.77 1513.66 Q427.14 1513.66 430.335 1516.35 Q433.529 1519.03 433.529 1523.52 Q433.529 1525.65 432.719 1527.57 Q431.932 1529.47 429.825 1532.07 Q429.247 1532.74 426.145 1535.95 Q423.043 1539.15 417.395 1544.91 Z" fill="#000000" fill-rule="nonzero" fill-opacity="1" /><path clip-path="url(#clip380)" d="M453.529 1517.37 Q449.918 1517.37 448.089 1520.93 Q446.284 1524.47 446.284 1531.6 Q446.284 1538.71 448.089 1542.27 Q449.918 1545.82 453.529 1545.82 Q457.163 1545.82 458.969 1542.27 Q460.798 1538.71 460.798 1531.6 Q460.798 1524.47 458.969 1520.93 Q457.163 1517.37 453.529 1517.37 M453.529 1513.66 Q459.339 1513.66 462.395 1518.27 Q465.473 1522.85 465.473 1531.6 Q465.473 1540.33 462.395 1544.94 Q459.339 1549.52 453.529 1549.52 Q447.719 1549.52 444.64 1544.94 Q441.585 1540.33 441.585 1531.6 Q441.585 1522.85 444.64 1518.27 Q447.719 1513.66 453.529 1513.66 Z" fill="#000000" fill-rule="nonzero" fill-opacity="1" /><path clip-path="url(#clip380)" d="M655.792 1518.36 L643.987 1536.81 L655.792 1536.81 L655.792 1518.36 M654.565 1514.29 L660.445 1514.29 L660.445 1536.81 L665.376 1536.81 L665.376 1540.7 L660.445 1540.7 L660.445 1548.85 L655.792 1548.85 L655.792 1540.7 L640.191 1540.7 L640.191 1536.19 L654.565 1514.29 Z" fill="#000000" fill-rule="nonzero" fill-opacity="1" /><path clip-path="url(#clip380)" d="M683.107 1517.37 Q679.496 1517.37 677.667 1520.93 Q675.862 1524.47 675.862 1531.6 Q675.862 1538.71 677.667 1542.27 Q679.496 1545.82 683.107 1545.82 Q686.741 1545.82 688.547 1542.27 Q690.375 1538.71 690.375 1531.6 Q690.375 1524.47 688.547 1520.93 Q686.741 1517.37 683.107 1517.37 M683.107 1513.66 Q688.917 1513.66 691.973 1518.27 Q695.051 1522.85 695.051 1531.6 Q695.051 1540.33 691.973 1544.94 Q688.917 1549.52 683.107 1549.52 Q677.297 1549.52 674.218 1544.94 Q671.163 1540.33 671.163 1531.6 Q671.163 1522.85 674.218 1518.27 Q677.297 1513.66 683.107 1513.66 Z" fill="#000000" fill-rule="nonzero" fill-opacity="1" /><path clip-path="url(#clip380)" d="M882.025 1529.7 Q878.877 1529.7 877.025 1531.86 Q875.197 1534.01 875.197 1537.76 Q875.197 1541.49 877.025 1543.66 Q878.877 1545.82 882.025 1545.82 Q885.174 1545.82 887.002 1543.66 Q888.854 1541.49 888.854 1537.76 Q888.854 1534.01 887.002 1531.86 Q885.174 1529.7 882.025 1529.7 M891.308 1515.05 L891.308 1519.31 Q889.549 1518.48 887.743 1518.04 Q885.961 1517.6 884.201 1517.6 Q879.572 1517.6 877.118 1520.72 Q874.687 1523.85 874.34 1530.17 Q875.706 1528.15 877.766 1527.09 Q879.826 1526 882.303 1526 Q887.511 1526 890.521 1529.17 Q893.553 1532.32 893.553 1537.76 Q893.553 1543.08 890.405 1546.3 Q887.257 1549.52 882.025 1549.52 Q876.03 1549.52 872.859 1544.94 Q869.688 1540.33 869.688 1531.6 Q869.688 1523.41 873.576 1518.55 Q877.465 1513.66 884.016 1513.66 Q885.775 1513.66 887.558 1514.01 Q889.363 1514.36 891.308 1515.05 Z" fill="#000000" fill-rule="nonzero" fill-opacity="1" /><path clip-path="url(#clip380)" d="M911.609 1517.37 Q907.997 1517.37 906.169 1520.93 Q904.363 1524.47 904.363 1531.6 Q904.363 1538.71 906.169 1542.27 Q907.997 1545.82 911.609 1545.82 Q915.243 1545.82 917.048 1542.27 Q918.877 1538.71 918.877 1531.6 Q918.877 1524.47 917.048 1520.93 Q915.243 1517.37 911.609 1517.37 M911.609 1513.66 Q917.419 1513.66 920.474 1518.27 Q923.553 1522.85 923.553 1531.6 Q923.553 1540.33 920.474 1544.94 Q917.419 1549.52 911.609 1549.52 Q905.798 1549.52 902.72 1544.94 Q899.664 1540.33 899.664 1531.6 Q899.664 1522.85 902.72 1518.27 Q905.798 1513.66 911.609 1513.66 Z" fill="#000000" fill-rule="nonzero" fill-opacity="1" /><path clip-path="url(#clip380)" d="M1110.49 1532.44 Q1107.16 1532.44 1105.24 1534.22 Q1103.34 1536 1103.34 1539.13 Q1103.34 1542.25 1105.24 1544.03 Q1107.16 1545.82 1110.49 1545.82 Q1113.83 1545.82 1115.75 1544.03 Q1117.67 1542.23 1117.67 1539.13 Q1117.67 1536 1115.75 1534.22 Q1113.85 1532.44 1110.49 1532.44 M1105.82 1530.45 Q1102.81 1529.7 1101.12 1527.64 Q1099.45 1525.58 1099.45 1522.62 Q1099.45 1518.48 1102.39 1516.07 Q1105.35 1513.66 1110.49 1513.66 Q1115.65 1513.66 1118.59 1516.07 Q1121.53 1518.48 1121.53 1522.62 Q1121.53 1525.58 1119.84 1527.64 Q1118.18 1529.7 1115.19 1530.45 Q1118.57 1531.23 1120.45 1533.52 Q1122.34 1535.82 1122.34 1539.13 Q1122.34 1544.15 1119.27 1546.83 Q1116.21 1549.52 1110.49 1549.52 Q1104.77 1549.52 1101.7 1546.83 Q1098.64 1544.15 1098.64 1539.13 Q1098.64 1535.82 1100.54 1533.52 Q1102.44 1531.23 1105.82 1530.45 M1104.1 1523.06 Q1104.1 1525.75 1105.77 1527.25 Q1107.46 1528.76 1110.49 1528.76 Q1113.5 1528.76 1115.19 1527.25 Q1116.9 1525.75 1116.9 1523.06 Q1116.9 1520.38 1115.19 1518.87 Q1113.5 1517.37 1110.49 1517.37 Q1107.46 1517.37 1105.77 1518.87 Q1104.1 1520.38 1104.1 1523.06 Z" fill="#000000" fill-rule="nonzero" fill-opacity="1" /><path clip-path="url(#clip380)" d="M1140.65 1517.37 Q1137.04 1517.37 1135.21 1520.93 Q1133.41 1524.47 1133.41 1531.6 Q1133.41 1538.71 1135.21 1542.27 Q1137.04 1545.82 1140.65 1545.82 Q1144.29 1545.82 1146.09 1542.27 Q1147.92 1538.71 1147.92 1531.6 Q1147.92 1524.47 1146.09 1520.93 Q1144.29 1517.37 1140.65 1517.37 M1140.65 1513.66 Q1146.46 1513.66 1149.52 1518.27 Q1152.6 1522.85 1152.6 1531.6 Q1152.6 1540.33 1149.52 1544.94 Q1146.46 1549.52 1140.65 1549.52 Q1134.84 1549.52 1131.77 1544.94 Q1128.71 1540.33 1128.71 1531.6 Q1128.71 1522.85 1131.77 1518.27 Q1134.84 1513.66 1140.65 1513.66 Z" fill="#000000" fill-rule="nonzero" fill-opacity="1" /><polyline clip-path="url(#clip380)" style="stroke:#000000; stroke-linecap:round; stroke-linejoin:round; stroke-width:4; stroke-opacity:1; fill:none" points="193.936,1486.45 193.936,47.2441 "/>
<polyline clip-path="url(#clip380)" style="stroke:#000000; stroke-linecap:round; stroke-linejoin:round; stroke-width:4; stroke-opacity:1; fill:none" points="193.936,1437.47 212.834,1437.47 "/>
<polyline clip-path="url(#clip380)" style="stroke:#000000; stroke-linecap:round; stroke-linejoin:round; stroke-width:4; stroke-opacity:1; fill:none" points="193.936,1134.03 212.834,1134.03 "/>
<polyline clip-path="url(#clip380)" style="stroke:#000000; stroke-linecap:round; stroke-linejoin:round; stroke-width:4; stroke-opacity:1; fill:none" points="193.936,830.605 212.834,830.605 "/>
<polyline clip-path="url(#clip380)" style="stroke:#000000; stroke-linecap:round; stroke-linejoin:round; stroke-width:4; stroke-opacity:1; fill:none" points="193.936,527.174 212.834,527.174 "/>
<polyline clip-path="url(#clip380)" style="stroke:#000000; stroke-linecap:round; stroke-linejoin:round; stroke-width:4; stroke-opacity:1; fill:none" points="193.936,223.744 212.834,223.744 "/>
<path clip-path="url(#clip380)" d="M50.9921 1437.92 L80.6679 1437.92 L80.6679 1441.85 L50.9921 1441.85 L50.9921 1437.92 Z" fill="#000000" fill-rule="nonzero" fill-opacity="1" /><path clip-path="url(#clip380)" d="M91.5706 1450.81 L99.2095 1450.81 L99.2095 1424.44 L90.8993 1426.11 L90.8993 1421.85 L99.1632 1420.19 L103.839 1420.19 L103.839 1450.81 L111.478 1450.81 L111.478 1454.75 L91.5706 1454.75 L91.5706 1450.81 Z" fill="#000000" fill-rule="nonzero" fill-opacity="1" /><path clip-path="url(#clip380)" d="M120.922 1448.87 L125.807 1448.87 L125.807 1454.75 L120.922 1454.75 L120.922 1448.87 Z" fill="#000000" fill-rule="nonzero" fill-opacity="1" /><path clip-path="url(#clip380)" d="M145.992 1423.26 Q142.381 1423.26 140.552 1426.83 Q138.746 1430.37 138.746 1437.5 Q138.746 1444.61 140.552 1448.17 Q142.381 1451.71 145.992 1451.71 Q149.626 1451.71 151.431 1448.17 Q153.26 1444.61 153.26 1437.5 Q153.26 1430.37 151.431 1426.83 Q149.626 1423.26 145.992 1423.26 M145.992 1419.56 Q151.802 1419.56 154.857 1424.17 Q157.936 1428.75 157.936 1437.5 Q157.936 1446.23 154.857 1450.83 Q151.802 1455.42 145.992 1455.42 Q140.181 1455.42 137.103 1450.83 Q134.047 1446.23 134.047 1437.5 Q134.047 1428.75 137.103 1424.17 Q140.181 1419.56 145.992 1419.56 Z" fill="#000000" fill-rule="nonzero" fill-opacity="1" /><path clip-path="url(#clip380)" d="M51.9875 1134.49 L81.6633 1134.49 L81.6633 1138.42 L51.9875 1138.42 L51.9875 1134.49 Z" fill="#000000" fill-rule="nonzero" fill-opacity="1" /><path clip-path="url(#clip380)" d="M101.756 1119.83 Q98.1447 1119.83 96.316 1123.4 Q94.5104 1126.94 94.5104 1134.07 Q94.5104 1141.18 96.316 1144.74 Q98.1447 1148.28 101.756 1148.28 Q105.39 1148.28 107.196 1144.74 Q109.024 1141.18 109.024 1134.07 Q109.024 1126.94 107.196 1123.4 Q105.39 1119.83 101.756 1119.83 M101.756 1116.13 Q107.566 1116.13 110.621 1120.74 Q113.7 1125.32 113.7 1134.07 Q113.7 1142.8 110.621 1147.4 Q107.566 1151.99 101.756 1151.99 Q95.9456 1151.99 92.8669 1147.4 Q89.8114 1142.8 89.8114 1134.07 Q89.8114 1125.32 92.8669 1120.74 Q95.9456 1116.13 101.756 1116.13 Z" fill="#000000" fill-rule="nonzero" fill-opacity="1" /><path clip-path="url(#clip380)" d="M121.918 1145.44 L126.802 1145.44 L126.802 1151.31 L121.918 1151.31 L121.918 1145.44 Z" fill="#000000" fill-rule="nonzero" fill-opacity="1" /><path clip-path="url(#clip380)" d="M137.033 1116.75 L155.39 1116.75 L155.39 1120.69 L141.316 1120.69 L141.316 1129.16 Q142.334 1128.82 143.353 1128.65 Q144.371 1128.47 145.39 1128.47 Q151.177 1128.47 154.556 1131.64 Q157.936 1134.81 157.936 1140.23 Q157.936 1145.81 154.464 1148.91 Q150.992 1151.99 144.672 1151.99 Q142.496 1151.99 140.228 1151.62 Q137.982 1151.25 135.575 1150.5 L135.575 1145.81 Q137.658 1146.94 139.881 1147.5 Q142.103 1148.05 144.58 1148.05 Q148.584 1148.05 150.922 1145.94 Q153.26 1143.84 153.26 1140.23 Q153.26 1136.62 150.922 1134.51 Q148.584 1132.4 144.58 1132.4 Q142.705 1132.4 140.83 1132.82 Q138.978 1133.24 137.033 1134.12 L137.033 1116.75 Z" fill="#000000" fill-rule="nonzero" fill-opacity="1" /><path clip-path="url(#clip380)" d="M100.76 816.403 Q97.1493 816.403 95.3206 819.968 Q93.515 823.51 93.515 830.639 Q93.515 837.746 95.3206 841.311 Q97.1493 844.852 100.76 844.852 Q104.395 844.852 106.2 841.311 Q108.029 837.746 108.029 830.639 Q108.029 823.51 106.2 819.968 Q104.395 816.403 100.76 816.403 M100.76 812.7 Q106.571 812.7 109.626 817.306 Q112.705 821.89 112.705 830.639 Q112.705 839.366 109.626 843.973 Q106.571 848.556 100.76 848.556 Q94.9502 848.556 91.8715 843.973 Q88.816 839.366 88.816 830.639 Q88.816 821.89 91.8715 817.306 Q94.9502 812.7 100.76 812.7 Z" fill="#000000" fill-rule="nonzero" fill-opacity="1" /><path clip-path="url(#clip380)" d="M120.922 842.005 L125.807 842.005 L125.807 847.885 L120.922 847.885 L120.922 842.005 Z" fill="#000000" fill-rule="nonzero" fill-opacity="1" /><path clip-path="url(#clip380)" d="M145.992 816.403 Q142.381 816.403 140.552 819.968 Q138.746 823.51 138.746 830.639 Q138.746 837.746 140.552 841.311 Q142.381 844.852 145.992 844.852 Q149.626 844.852 151.431 841.311 Q153.26 837.746 153.26 830.639 Q153.26 823.51 151.431 819.968 Q149.626 816.403 145.992 816.403 M145.992 812.7 Q151.802 812.7 154.857 817.306 Q157.936 821.89 157.936 830.639 Q157.936 839.366 154.857 843.973 Q151.802 848.556 145.992 848.556 Q140.181 848.556 137.103 843.973 Q134.047 839.366 134.047 830.639 Q134.047 821.89 137.103 817.306 Q140.181 812.7 145.992 812.7 Z" fill="#000000" fill-rule="nonzero" fill-opacity="1" /><path clip-path="url(#clip380)" d="M101.756 512.973 Q98.1447 512.973 96.316 516.538 Q94.5104 520.08 94.5104 527.209 Q94.5104 534.316 96.316 537.88 Q98.1447 541.422 101.756 541.422 Q105.39 541.422 107.196 537.88 Q109.024 534.316 109.024 527.209 Q109.024 520.08 107.196 516.538 Q105.39 512.973 101.756 512.973 M101.756 509.269 Q107.566 509.269 110.621 513.876 Q113.7 518.459 113.7 527.209 Q113.7 535.936 110.621 540.542 Q107.566 545.126 101.756 545.126 Q95.9456 545.126 92.8669 540.542 Q89.8114 535.936 89.8114 527.209 Q89.8114 518.459 92.8669 513.876 Q95.9456 509.269 101.756 509.269 Z" fill="#000000" fill-rule="nonzero" fill-opacity="1" /><path clip-path="url(#clip380)" d="M121.918 538.575 L126.802 538.575 L126.802 544.454 L121.918 544.454 L121.918 538.575 Z" fill="#000000" fill-rule="nonzero" fill-opacity="1" /><path clip-path="url(#clip380)" d="M137.033 509.894 L155.39 509.894 L155.39 513.83 L141.316 513.83 L141.316 522.302 Q142.334 521.955 143.353 521.793 Q144.371 521.607 145.39 521.607 Q151.177 521.607 154.556 524.779 Q157.936 527.95 157.936 533.367 Q157.936 538.945 154.464 542.047 Q150.992 545.126 144.672 545.126 Q142.496 545.126 140.228 544.755 Q137.982 544.385 135.575 543.644 L135.575 538.945 Q137.658 540.08 139.881 540.635 Q142.103 541.191 144.58 541.191 Q148.584 541.191 150.922 539.084 Q153.26 536.978 153.26 533.367 Q153.26 529.755 150.922 527.649 Q148.584 525.543 144.58 525.543 Q142.705 525.543 140.83 525.959 Q138.978 526.376 137.033 527.256 L137.033 509.894 Z" fill="#000000" fill-rule="nonzero" fill-opacity="1" /><path clip-path="url(#clip380)" d="M91.5706 237.089 L99.2095 237.089 L99.2095 210.723 L90.8993 212.39 L90.8993 208.131 L99.1632 206.464 L103.839 206.464 L103.839 237.089 L111.478 237.089 L111.478 241.024 L91.5706 241.024 L91.5706 237.089 Z" fill="#000000" fill-rule="nonzero" fill-opacity="1" /><path clip-path="url(#clip380)" d="M120.922 235.145 L125.807 235.145 L125.807 241.024 L120.922 241.024 L120.922 235.145 Z" fill="#000000" fill-rule="nonzero" fill-opacity="1" /><path clip-path="url(#clip380)" d="M145.992 209.543 Q142.381 209.543 140.552 213.108 Q138.746 216.649 138.746 223.779 Q138.746 230.885 140.552 234.45 Q142.381 237.992 145.992 237.992 Q149.626 237.992 151.431 234.45 Q153.26 230.885 153.26 223.779 Q153.26 216.649 151.431 213.108 Q149.626 209.543 145.992 209.543 M145.992 205.839 Q151.802 205.839 154.857 210.446 Q157.936 215.029 157.936 223.779 Q157.936 232.506 154.857 237.112 Q151.802 241.696 145.992 241.696 Q140.181 241.696 137.103 237.112 Q134.047 232.506 134.047 223.779 Q134.047 215.029 137.103 210.446 Q140.181 205.839 145.992 205.839 Z" fill="#000000" fill-rule="nonzero" fill-opacity="1" /><polyline clip-path="url(#clip382)" style="stroke:#009af9; stroke-linecap:round; stroke-linejoin:round; stroke-width:4; stroke-opacity:1; fill:none" points="221.072,523.482 232.522,414.803 243.972,506.582 255.422,554.01 266.872,516.963 278.322,430.255 289.772,538.77 301.222,469.275 312.672,400.191 324.122,389.739 335.572,386.796 347.022,379.117 358.472,316.449 369.922,360.77 381.372,286.7 392.822,276.471 404.272,304.158 415.722,234.048 427.172,273.04 438.622,212.037 450.072,233.424 461.522,203.767 472.972,223.292 484.422,160.703 495.872,264.679 507.321,418.911 518.771,553.639 530.221,554.44 541.671,636.683 553.121,693.374 564.571,833.545 576.021,837.471 587.471,851.561 598.921,881.059 610.371,969.771 621.821,959.8 633.271,1047.9 644.721,1079.69 656.171,1225.53 667.621,1150.05 679.071,1224.96 690.521,1269.36 701.971,1310.35 713.421,1295.78 724.871,1325.65 736.321,1369.06 747.771,1297.7 759.221,1240.52 770.671,1252.84 782.121,1359.95 793.571,1407.81 805.021,1419.75 816.47,1410.22 827.92,1434.99 839.37,1396.22 850.82,1310.97 862.27,1233.38 873.72,1175.8 885.17,1148.08 896.62,1143.11 908.07,1132.09 919.52,1168.13 930.97,1120.57 942.42,1008.85 953.87,884.459 965.32,842.569 976.77,763.413 988.22,734.557 999.67,795.239 1011.12,903.662 1022.57,856.788 1034.02,886.659 1045.47,868.219 1056.92,880.631 1068.37,917.581 1079.82,949.773 1091.27,959.025 1102.72,807.224 1114.17,769.877 1125.62,800.778 "/>
<polyline clip-path="url(#clip382)" style="stroke:#e26f46; stroke-linecap:round; stroke-linejoin:round; stroke-width:4; stroke-opacity:1; fill:none" points="221.072,569.135 232.522,458.88 243.972,557.333 255.422,601.123 266.872,564.825 278.322,471.228 289.772,578.805 301.222,508.406 312.672,433.618 324.122,423.457 335.572,416.213 347.022,406.025 358.472,337.516 369.922,383.596 381.372,308.304 392.822,293.396 404.272,313.553 415.722,242.504 427.172,285.222 438.622,219.231 450.072,238.73 461.522,221.51 472.972,243.278 484.422,191.656 495.872,295.194 507.321,458.269 518.771,585.224 530.221,577.067 541.671,652.148 553.121,702.365 564.571,840.776 576.021,849.986 587.471,865.121 598.921,892.406 610.371,980.028 621.821,974.181 633.271,1071.24 644.721,1103.84 656.171,1251.76 667.621,1178.55 679.071,1245.61 690.521,1291.19 701.971,1327 713.421,1317.78 724.871,1355.12 736.321,1392.95 747.771,1321.08 759.221,1257.86 770.671,1272.01 782.121,1373.78 793.571,1412.89 805.021,1428.19 816.47,1421.42 827.92,1445.72 839.37,1413.18 850.82,1317.57 862.27,1247.78 873.72,1185.24 885.17,1163.57 896.62,1146.62 908.07,1129.09 919.52,1165.73 930.97,1123.16 942.42,1009.72 953.87,887.923 965.32,846.035 976.77,764.811 988.22,733.795 999.67,797.694 1011.12,901.939 1022.57,853.827 1034.02,882.977 1045.47,856.55 1056.92,878.401 1068.37,924.624 1079.82,963.649 1091.27,971.199 1102.72,823.153 1114.17,790.255 1125.62,826.694 "/>
<polyline clip-path="url(#clip382)" style="stroke:#3da44d; stroke-linecap:round; stroke-linejoin:round; stroke-width:4; stroke-opacity:1; fill:none" points="221.072,715.345 232.522,576.477 243.972,633.248 255.422,696.942 266.872,667.884 278.322,719.443 289.772,883.278 301.222,718.951 312.672,593.977 324.122,446.379 335.572,528.554 347.022,654.38 358.472,573.219 369.922,557.945 381.372,476.532 392.822,336.317 404.272,439.524 415.722,399.722 427.172,365.834 438.622,165.324 450.072,195.82 461.522,87.9763 472.972,172.803 484.422,165.839 495.872,211.508 507.321,326.069 518.771,421.138 530.221,398.372 541.671,451.262 553.121,592.942 564.571,751.3 576.021,784.391 587.471,867.166 598.921,915.542 610.371,1009.38 621.821,938.278 633.271,996.158 644.721,987.916 656.171,1085.2 667.621,1062.61 679.071,1108.48 690.521,1147.24 701.971,1188.27 713.421,1193.73 724.871,1274.52 736.321,1225.59 747.771,1159.69 759.221,1051.3 770.671,1086.59 782.121,1226.51 793.571,1313.94 805.021,1260.07 816.47,1267.47 827.92,1294.77 839.37,1177.99 850.82,1113.71 862.27,960.697 873.72,886.639 885.17,750.564 896.62,785.127 908.07,883.8 919.52,869.02 930.97,873.636 942.42,762.351 953.87,648.699 965.32,613.579 976.77,440.016 988.22,381.339 999.67,443.755 1011.12,588.408 1022.57,649.239 1034.02,705.87 1045.47,770.599 1056.92,857.314 1068.37,957.623 1079.82,939.198 1091.27,861.335 1102.72,712.805 1114.17,632.48 1125.62,763.127 "/>
<path clip-path="url(#clip380)" d="M225.897 1438.47 L683.443 1438.47 L683.443 1231.11 L225.897 1231.11  Z" fill="#ffffff" fill-rule="evenodd" fill-opacity="1"/>
<polyline clip-path="url(#clip380)" style="stroke:#000000; stroke-linecap:round; stroke-linejoin:round; stroke-width:4; stroke-opacity:1; fill:none" points="225.897,1438.47 683.443,1438.47 683.443,1231.11 225.897,1231.11 225.897,1438.47 "/>
<polyline clip-path="url(#clip380)" style="stroke:#009af9; stroke-linecap:round; stroke-linejoin:round; stroke-width:4; stroke-opacity:1; fill:none" points="236.55,1282.95 300.472,1282.95 "/>
<path clip-path="url(#clip380)" d="M311.125 1265.67 L315.801 1265.67 L315.801 1280.28 L331.31 1265.67 L337.329 1265.67 L320.176 1281.79 L338.556 1300.23 L332.398 1300.23 L315.801 1283.59 L315.801 1300.23 L311.125 1300.23 L311.125 1265.67 Z" fill="#000000" fill-rule="nonzero" fill-opacity="1" /><path clip-path="url(#clip380)" d="M352.977 1287.2 Q347.815 1287.2 345.824 1288.38 Q343.833 1289.56 343.833 1292.41 Q343.833 1294.68 345.315 1296.02 Q346.819 1297.34 349.389 1297.34 Q352.93 1297.34 355.06 1294.84 Q357.213 1292.32 357.213 1288.15 L357.213 1287.2 L352.977 1287.2 M361.472 1285.44 L361.472 1300.23 L357.213 1300.23 L357.213 1296.3 Q355.754 1298.66 353.579 1299.79 Q351.403 1300.91 348.255 1300.91 Q344.273 1300.91 341.912 1298.68 Q339.574 1296.44 339.574 1292.69 Q339.574 1288.31 342.491 1286.09 Q345.43 1283.87 351.241 1283.87 L357.213 1283.87 L357.213 1283.45 Q357.213 1280.51 355.268 1278.92 Q353.347 1277.29 349.852 1277.29 Q347.63 1277.29 345.523 1277.83 Q343.417 1278.36 341.472 1279.42 L341.472 1275.49 Q343.81 1274.59 346.009 1274.15 Q348.208 1273.68 350.292 1273.68 Q355.917 1273.68 358.694 1276.6 Q361.472 1279.52 361.472 1285.44 Z" fill="#000000" fill-rule="nonzero" fill-opacity="1" /><path clip-path="url(#clip380)" d="M370.245 1264.22 L374.504 1264.22 L374.504 1300.23 L370.245 1300.23 L370.245 1264.22 Z" fill="#000000" fill-rule="nonzero" fill-opacity="1" /><path clip-path="url(#clip380)" d="M403.601 1279.29 Q405.199 1276.42 407.421 1275.05 Q409.643 1273.68 412.652 1273.68 Q416.703 1273.68 418.902 1276.53 Q421.101 1279.35 421.101 1284.59 L421.101 1300.23 L416.819 1300.23 L416.819 1284.73 Q416.819 1281 415.5 1279.19 Q414.18 1277.39 411.472 1277.39 Q408.162 1277.39 406.24 1279.59 Q404.319 1281.79 404.319 1285.58 L404.319 1300.23 L400.037 1300.23 L400.037 1284.73 Q400.037 1280.98 398.717 1279.19 Q397.398 1277.39 394.643 1277.39 Q391.379 1277.39 389.458 1279.61 Q387.537 1281.81 387.537 1285.58 L387.537 1300.23 L383.254 1300.23 L383.254 1274.31 L387.537 1274.31 L387.537 1278.34 Q388.995 1275.95 391.032 1274.82 Q393.069 1273.68 395.87 1273.68 Q398.694 1273.68 400.662 1275.12 Q402.652 1276.55 403.601 1279.29 Z" fill="#000000" fill-rule="nonzero" fill-opacity="1" /><path clip-path="url(#clip380)" d="M441.379 1287.2 Q436.217 1287.2 434.226 1288.38 Q432.236 1289.56 432.236 1292.41 Q432.236 1294.68 433.717 1296.02 Q435.222 1297.34 437.791 1297.34 Q441.333 1297.34 443.462 1294.84 Q445.615 1292.32 445.615 1288.15 L445.615 1287.2 L441.379 1287.2 M449.874 1285.44 L449.874 1300.23 L445.615 1300.23 L445.615 1296.3 Q444.157 1298.66 441.981 1299.79 Q439.805 1300.91 436.657 1300.91 Q432.675 1300.91 430.314 1298.68 Q427.976 1296.44 427.976 1292.69 Q427.976 1288.31 430.893 1286.09 Q433.833 1283.87 439.643 1283.87 L445.615 1283.87 L445.615 1283.45 Q445.615 1280.51 443.671 1278.92 Q441.749 1277.29 438.254 1277.29 Q436.032 1277.29 433.925 1277.83 Q431.819 1278.36 429.874 1279.42 L429.874 1275.49 Q432.212 1274.59 434.411 1274.15 Q436.611 1273.68 438.694 1273.68 Q444.319 1273.68 447.097 1276.6 Q449.874 1279.52 449.874 1285.44 Z" fill="#000000" fill-rule="nonzero" fill-opacity="1" /><path clip-path="url(#clip380)" d="M480.198 1284.59 L480.198 1300.23 L475.939 1300.23 L475.939 1284.73 Q475.939 1281.04 474.504 1279.22 Q473.069 1277.39 470.198 1277.39 Q466.749 1277.39 464.759 1279.59 Q462.768 1281.79 462.768 1285.58 L462.768 1300.23 L458.485 1300.23 L458.485 1274.31 L462.768 1274.31 L462.768 1278.34 Q464.296 1276 466.356 1274.84 Q468.439 1273.68 471.147 1273.68 Q475.615 1273.68 477.907 1276.46 Q480.198 1279.22 480.198 1284.59 Z" fill="#000000" fill-rule="nonzero" fill-opacity="1" /><path clip-path="url(#clip380)" d="M520.291 1275.07 L520.291 1279.1 Q518.485 1278.17 516.541 1277.71 Q514.596 1277.25 512.513 1277.25 Q509.342 1277.25 507.744 1278.22 Q506.17 1279.19 506.17 1281.14 Q506.17 1282.62 507.305 1283.48 Q508.439 1284.31 511.865 1285.07 L513.323 1285.4 Q517.86 1286.37 519.758 1288.15 Q521.68 1289.91 521.68 1293.08 Q521.68 1296.69 518.809 1298.8 Q515.962 1300.91 510.962 1300.91 Q508.879 1300.91 506.61 1300.49 Q504.365 1300.1 501.865 1299.29 L501.865 1294.89 Q504.226 1296.11 506.518 1296.74 Q508.809 1297.34 511.055 1297.34 Q514.064 1297.34 515.684 1296.32 Q517.305 1295.28 517.305 1293.41 Q517.305 1291.67 516.124 1290.74 Q514.967 1289.82 511.008 1288.96 L509.527 1288.61 Q505.568 1287.78 503.809 1286.07 Q502.05 1284.33 502.05 1281.32 Q502.05 1277.67 504.643 1275.67 Q507.235 1273.68 512.004 1273.68 Q514.365 1273.68 516.448 1274.03 Q518.531 1274.38 520.291 1275.07 Z" fill="#000000" fill-rule="nonzero" fill-opacity="1" /><path clip-path="url(#clip380)" d="M548.647 1279.29 Q550.244 1276.42 552.466 1275.05 Q554.689 1273.68 557.698 1273.68 Q561.749 1273.68 563.948 1276.53 Q566.147 1279.35 566.147 1284.59 L566.147 1300.23 L561.864 1300.23 L561.864 1284.73 Q561.864 1281 560.545 1279.19 Q559.226 1277.39 556.517 1277.39 Q553.207 1277.39 551.286 1279.59 Q549.365 1281.79 549.365 1285.58 L549.365 1300.23 L545.082 1300.23 L545.082 1284.73 Q545.082 1280.98 543.763 1279.19 Q542.443 1277.39 539.689 1277.39 Q536.425 1277.39 534.504 1279.61 Q532.582 1281.81 532.582 1285.58 L532.582 1300.23 L528.3 1300.23 L528.3 1274.31 L532.582 1274.31 L532.582 1278.34 Q534.041 1275.95 536.078 1274.82 Q538.115 1273.68 540.916 1273.68 Q543.74 1273.68 545.707 1275.12 Q547.698 1276.55 548.647 1279.29 Z" fill="#000000" fill-rule="nonzero" fill-opacity="1" /><path clip-path="url(#clip380)" d="M584.688 1277.29 Q581.263 1277.29 579.272 1279.98 Q577.281 1282.64 577.281 1287.29 Q577.281 1291.95 579.249 1294.63 Q581.239 1297.29 584.688 1297.29 Q588.091 1297.29 590.082 1294.61 Q592.073 1291.92 592.073 1287.29 Q592.073 1282.69 590.082 1280 Q588.091 1277.29 584.688 1277.29 M584.688 1273.68 Q590.244 1273.68 593.415 1277.29 Q596.587 1280.91 596.587 1287.29 Q596.587 1293.66 593.415 1297.29 Q590.244 1300.91 584.688 1300.91 Q579.11 1300.91 575.938 1297.29 Q572.79 1293.66 572.79 1287.29 Q572.79 1280.91 575.938 1277.29 Q579.11 1273.68 584.688 1273.68 Z" fill="#000000" fill-rule="nonzero" fill-opacity="1" /><path clip-path="url(#clip380)" d="M613.693 1277.29 Q610.267 1277.29 608.276 1279.98 Q606.286 1282.64 606.286 1287.29 Q606.286 1291.95 608.253 1294.63 Q610.244 1297.29 613.693 1297.29 Q617.096 1297.29 619.086 1294.61 Q621.077 1291.92 621.077 1287.29 Q621.077 1282.69 619.086 1280 Q617.096 1277.29 613.693 1277.29 M613.693 1273.68 Q619.248 1273.68 622.42 1277.29 Q625.591 1280.91 625.591 1287.29 Q625.591 1293.66 622.42 1297.29 Q619.248 1300.91 613.693 1300.91 Q608.114 1300.91 604.943 1297.29 Q601.795 1293.66 601.795 1287.29 Q601.795 1280.91 604.943 1277.29 Q608.114 1273.68 613.693 1273.68 Z" fill="#000000" fill-rule="nonzero" fill-opacity="1" /><path clip-path="url(#clip380)" d="M636.864 1266.95 L636.864 1274.31 L645.637 1274.31 L645.637 1277.62 L636.864 1277.62 L636.864 1291.69 Q636.864 1294.86 637.721 1295.77 Q638.6 1296.67 641.262 1296.67 L645.637 1296.67 L645.637 1300.23 L641.262 1300.23 Q636.332 1300.23 634.457 1298.41 Q632.582 1296.55 632.582 1291.69 L632.582 1277.62 L629.457 1277.62 L629.457 1274.31 L632.582 1274.31 L632.582 1266.95 L636.864 1266.95 Z" fill="#000000" fill-rule="nonzero" fill-opacity="1" /><path clip-path="url(#clip380)" d="M672.79 1284.59 L672.79 1300.23 L668.531 1300.23 L668.531 1284.73 Q668.531 1281.04 667.095 1279.22 Q665.66 1277.39 662.79 1277.39 Q659.341 1277.39 657.35 1279.59 Q655.359 1281.79 655.359 1285.58 L655.359 1300.23 L651.077 1300.23 L651.077 1264.22 L655.359 1264.22 L655.359 1278.34 Q656.887 1276 658.947 1274.84 Q661.031 1273.68 663.739 1273.68 Q668.207 1273.68 670.498 1276.46 Q672.79 1279.22 672.79 1284.59 Z" fill="#000000" fill-rule="nonzero" fill-opacity="1" /><polyline clip-path="url(#clip380)" style="stroke:#e26f46; stroke-linecap:round; stroke-linejoin:round; stroke-width:4; stroke-opacity:1; fill:none" points="236.55,1334.79 300.472,1334.79 "/>
<path clip-path="url(#clip380)" d="M315.407 1348.19 L315.407 1361.94 L311.125 1361.94 L311.125 1326.15 L315.407 1326.15 L315.407 1330.08 Q316.75 1327.77 318.787 1326.66 Q320.847 1325.52 323.694 1325.52 Q328.417 1325.52 331.356 1329.27 Q334.319 1333.02 334.319 1339.13 Q334.319 1345.25 331.356 1349 Q328.417 1352.75 323.694 1352.75 Q320.847 1352.75 318.787 1351.63 Q316.75 1350.5 315.407 1348.19 M329.898 1339.13 Q329.898 1334.44 327.954 1331.77 Q326.032 1329.09 322.653 1329.09 Q319.273 1329.09 317.329 1331.77 Q315.407 1334.44 315.407 1339.13 Q315.407 1343.83 317.329 1346.52 Q319.273 1349.18 322.653 1349.18 Q326.032 1349.18 327.954 1346.52 Q329.898 1343.83 329.898 1339.13 Z" fill="#000000" fill-rule="nonzero" fill-opacity="1" /><path clip-path="url(#clip380)" d="M354.504 1316.06 L354.504 1319.6 L350.43 1319.6 Q348.139 1319.6 347.236 1320.52 Q346.356 1321.45 346.356 1323.86 L346.356 1326.15 L353.37 1326.15 L353.37 1329.46 L346.356 1329.46 L346.356 1352.07 L342.074 1352.07 L342.074 1329.46 L338 1329.46 L338 1326.15 L342.074 1326.15 L342.074 1324.34 Q342.074 1320.01 344.088 1318.05 Q346.102 1316.06 350.477 1316.06 L354.504 1316.06 Z" fill="#000000" fill-rule="nonzero" fill-opacity="1" /><path clip-path="url(#clip380)" d="M389.666 1326.91 L389.666 1330.94 Q387.861 1330.01 385.916 1329.55 Q383.972 1329.09 381.889 1329.09 Q378.717 1329.09 377.12 1330.06 Q375.546 1331.03 375.546 1332.98 Q375.546 1334.46 376.68 1335.32 Q377.815 1336.15 381.24 1336.91 L382.699 1337.24 Q387.236 1338.21 389.134 1339.99 Q391.055 1341.75 391.055 1344.92 Q391.055 1348.53 388.185 1350.64 Q385.338 1352.75 380.338 1352.75 Q378.254 1352.75 375.986 1352.33 Q373.741 1351.94 371.241 1351.13 L371.241 1346.73 Q373.602 1347.95 375.893 1348.58 Q378.185 1349.18 380.43 1349.18 Q383.44 1349.18 385.06 1348.16 Q386.68 1347.12 386.68 1345.25 Q386.68 1343.51 385.5 1342.58 Q384.342 1341.66 380.384 1340.8 L378.903 1340.45 Q374.944 1339.62 373.185 1337.91 Q371.426 1336.17 371.426 1333.16 Q371.426 1329.51 374.018 1327.51 Q376.611 1325.52 381.379 1325.52 Q383.74 1325.52 385.824 1325.87 Q387.907 1326.22 389.666 1326.91 Z" fill="#000000" fill-rule="nonzero" fill-opacity="1" /><path clip-path="url(#clip380)" d="M418.023 1331.13 Q419.62 1328.26 421.842 1326.89 Q424.064 1325.52 427.074 1325.52 Q431.124 1325.52 433.324 1328.37 Q435.523 1331.19 435.523 1336.43 L435.523 1352.07 L431.24 1352.07 L431.24 1336.57 Q431.24 1332.84 429.921 1331.03 Q428.601 1329.23 425.893 1329.23 Q422.583 1329.23 420.662 1331.43 Q418.74 1333.63 418.74 1337.42 L418.74 1352.07 L414.458 1352.07 L414.458 1336.57 Q414.458 1332.82 413.138 1331.03 Q411.819 1329.23 409.064 1329.23 Q405.801 1329.23 403.879 1331.45 Q401.958 1333.65 401.958 1337.42 L401.958 1352.07 L397.676 1352.07 L397.676 1326.15 L401.958 1326.15 L401.958 1330.18 Q403.416 1327.79 405.453 1326.66 Q407.49 1325.52 410.291 1325.52 Q413.115 1325.52 415.083 1326.96 Q417.074 1328.39 418.023 1331.13 Z" fill="#000000" fill-rule="nonzero" fill-opacity="1" /><path clip-path="url(#clip380)" d="M454.064 1329.13 Q450.638 1329.13 448.648 1331.82 Q446.657 1334.48 446.657 1339.13 Q446.657 1343.79 448.624 1346.47 Q450.615 1349.13 454.064 1349.13 Q457.467 1349.13 459.458 1346.45 Q461.448 1343.76 461.448 1339.13 Q461.448 1334.53 459.458 1331.84 Q457.467 1329.13 454.064 1329.13 M454.064 1325.52 Q459.62 1325.52 462.791 1329.13 Q465.962 1332.75 465.962 1339.13 Q465.962 1345.5 462.791 1349.13 Q459.62 1352.75 454.064 1352.75 Q448.485 1352.75 445.314 1349.13 Q442.166 1345.5 442.166 1339.13 Q442.166 1332.75 445.314 1329.13 Q448.485 1325.52 454.064 1325.52 Z" fill="#000000" fill-rule="nonzero" fill-opacity="1" /><path clip-path="url(#clip380)" d="M483.069 1329.13 Q479.643 1329.13 477.652 1331.82 Q475.661 1334.48 475.661 1339.13 Q475.661 1343.79 477.629 1346.47 Q479.62 1349.13 483.069 1349.13 Q486.471 1349.13 488.462 1346.45 Q490.453 1343.76 490.453 1339.13 Q490.453 1334.53 488.462 1331.84 Q486.471 1329.13 483.069 1329.13 M483.069 1325.52 Q488.624 1325.52 491.795 1329.13 Q494.967 1332.75 494.967 1339.13 Q494.967 1345.5 491.795 1349.13 Q488.624 1352.75 483.069 1352.75 Q477.49 1352.75 474.319 1349.13 Q471.171 1345.5 471.171 1339.13 Q471.171 1332.75 474.319 1329.13 Q477.49 1325.52 483.069 1325.52 Z" fill="#000000" fill-rule="nonzero" fill-opacity="1" /><path clip-path="url(#clip380)" d="M506.24 1318.79 L506.24 1326.15 L515.013 1326.15 L515.013 1329.46 L506.24 1329.46 L506.24 1343.53 Q506.24 1346.7 507.096 1347.61 Q507.976 1348.51 510.638 1348.51 L515.013 1348.51 L515.013 1352.07 L510.638 1352.07 Q505.707 1352.07 503.832 1350.25 Q501.957 1348.39 501.957 1343.53 L501.957 1329.46 L498.832 1329.46 L498.832 1326.15 L501.957 1326.15 L501.957 1318.79 L506.24 1318.79 Z" fill="#000000" fill-rule="nonzero" fill-opacity="1" /><path clip-path="url(#clip380)" d="M542.166 1336.43 L542.166 1352.07 L537.906 1352.07 L537.906 1336.57 Q537.906 1332.88 536.471 1331.06 Q535.036 1329.23 532.166 1329.23 Q528.717 1329.23 526.726 1331.43 Q524.735 1333.63 524.735 1337.42 L524.735 1352.07 L520.453 1352.07 L520.453 1316.06 L524.735 1316.06 L524.735 1330.18 Q526.263 1327.84 528.323 1326.68 Q530.406 1325.52 533.115 1325.52 Q537.582 1325.52 539.874 1328.3 Q542.166 1331.06 542.166 1336.43 Z" fill="#000000" fill-rule="nonzero" fill-opacity="1" /><polyline clip-path="url(#clip380)" style="stroke:#3da44d; stroke-linecap:round; stroke-linejoin:round; stroke-width:4; stroke-opacity:1; fill:none" points="236.55,1386.63 300.472,1386.63 "/>
<path clip-path="url(#clip380)" d="M318.532 1370.63 L318.532 1377.99 L327.306 1377.99 L327.306 1381.3 L318.532 1381.3 L318.532 1395.37 Q318.532 1398.54 319.389 1399.45 Q320.269 1400.35 322.931 1400.35 L327.306 1400.35 L327.306 1403.91 L322.931 1403.91 Q318 1403.91 316.125 1402.09 Q314.25 1400.23 314.25 1395.37 L314.25 1381.3 L311.125 1381.3 L311.125 1377.99 L314.25 1377.99 L314.25 1370.63 L318.532 1370.63 Z" fill="#000000" fill-rule="nonzero" fill-opacity="1" /><path clip-path="url(#clip380)" d="M347.93 1381.97 Q347.213 1381.55 346.356 1381.37 Q345.523 1381.16 344.505 1381.16 Q340.893 1381.16 338.949 1383.52 Q337.028 1385.86 337.028 1390.26 L337.028 1403.91 L332.745 1403.91 L332.745 1377.99 L337.028 1377.99 L337.028 1382.02 Q338.37 1379.66 340.523 1378.52 Q342.676 1377.36 345.755 1377.36 Q346.194 1377.36 346.727 1377.43 Q347.259 1377.48 347.907 1377.6 L347.93 1381.97 Z" fill="#000000" fill-rule="nonzero" fill-opacity="1" /><path clip-path="url(#clip380)" d="M351.958 1393.68 L351.958 1377.99 L356.217 1377.99 L356.217 1393.52 Q356.217 1397.2 357.653 1399.05 Q359.088 1400.88 361.958 1400.88 Q365.407 1400.88 367.398 1398.68 Q369.412 1396.48 369.412 1392.69 L369.412 1377.99 L373.671 1377.99 L373.671 1403.91 L369.412 1403.91 L369.412 1399.93 Q367.861 1402.29 365.801 1403.45 Q363.764 1404.59 361.055 1404.59 Q356.588 1404.59 354.273 1401.81 Q351.958 1399.03 351.958 1393.68 M362.676 1377.36 L362.676 1377.36 Z" fill="#000000" fill-rule="nonzero" fill-opacity="1" /><path clip-path="url(#clip380)" d="M404.62 1389.89 L404.62 1391.97 L385.037 1391.97 Q385.315 1396.37 387.676 1398.68 Q390.06 1400.97 394.296 1400.97 Q396.75 1400.97 399.041 1400.37 Q401.356 1399.77 403.625 1398.57 L403.625 1402.59 Q401.333 1403.57 398.926 1404.08 Q396.518 1404.59 394.041 1404.59 Q387.838 1404.59 384.203 1400.97 Q380.592 1397.36 380.592 1391.21 Q380.592 1384.84 384.018 1381.11 Q387.467 1377.36 393.301 1377.36 Q398.532 1377.36 401.564 1380.74 Q404.62 1384.1 404.62 1389.89 M400.361 1388.64 Q400.314 1385.14 398.393 1383.06 Q396.495 1380.97 393.347 1380.97 Q389.782 1380.97 387.629 1382.99 Q385.5 1385 385.176 1388.66 L400.361 1388.64 Z" fill="#000000" fill-rule="nonzero" fill-opacity="1" /><path clip-path="url(#clip380)" d="M1393.94 1486.45 L2352.76 1486.45 L2352.76 47.2441 L1393.94 47.2441  Z" fill="#ffffff" fill-rule="evenodd" fill-opacity="1"/>
<polyline clip-path="url(#clip381)" style="stroke:#000000; stroke-linecap:round; stroke-linejoin:round; stroke-width:2; stroke-opacity:0.1; fill:none" points="1409.62,1486.45 1409.62,47.2441 "/>
<polyline clip-path="url(#clip381)" style="stroke:#000000; stroke-linecap:round; stroke-linejoin:round; stroke-width:2; stroke-opacity:0.1; fill:none" points="1638.62,1486.45 1638.62,47.2441 "/>
<polyline clip-path="url(#clip381)" style="stroke:#000000; stroke-linecap:round; stroke-linejoin:round; stroke-width:2; stroke-opacity:0.1; fill:none" points="1867.62,1486.45 1867.62,47.2441 "/>
<polyline clip-path="url(#clip381)" style="stroke:#000000; stroke-linecap:round; stroke-linejoin:round; stroke-width:2; stroke-opacity:0.1; fill:none" points="2096.62,1486.45 2096.62,47.2441 "/>
<polyline clip-path="url(#clip381)" style="stroke:#000000; stroke-linecap:round; stroke-linejoin:round; stroke-width:2; stroke-opacity:0.1; fill:none" points="2325.62,1486.45 2325.62,47.2441 "/>
<polyline clip-path="url(#clip381)" style="stroke:#000000; stroke-linecap:round; stroke-linejoin:round; stroke-width:2; stroke-opacity:0.1; fill:none" points="1393.94,1380.42 2352.76,1380.42 "/>
<polyline clip-path="url(#clip381)" style="stroke:#000000; stroke-linecap:round; stroke-linejoin:round; stroke-width:2; stroke-opacity:0.1; fill:none" points="1393.94,1103.48 2352.76,1103.48 "/>
<polyline clip-path="url(#clip381)" style="stroke:#000000; stroke-linecap:round; stroke-linejoin:round; stroke-width:2; stroke-opacity:0.1; fill:none" points="1393.94,826.539 2352.76,826.539 "/>
<polyline clip-path="url(#clip381)" style="stroke:#000000; stroke-linecap:round; stroke-linejoin:round; stroke-width:2; stroke-opacity:0.1; fill:none" points="1393.94,549.599 2352.76,549.599 "/>
<polyline clip-path="url(#clip381)" style="stroke:#000000; stroke-linecap:round; stroke-linejoin:round; stroke-width:2; stroke-opacity:0.1; fill:none" points="1393.94,272.658 2352.76,272.658 "/>
<polyline clip-path="url(#clip380)" style="stroke:#000000; stroke-linecap:round; stroke-linejoin:round; stroke-width:4; stroke-opacity:1; fill:none" points="1393.94,1486.45 2352.76,1486.45 "/>
<polyline clip-path="url(#clip380)" style="stroke:#000000; stroke-linecap:round; stroke-linejoin:round; stroke-width:4; stroke-opacity:1; fill:none" points="1409.62,1486.45 1409.62,1467.55 "/>
<polyline clip-path="url(#clip380)" style="stroke:#000000; stroke-linecap:round; stroke-linejoin:round; stroke-width:4; stroke-opacity:1; fill:none" points="1638.62,1486.45 1638.62,1467.55 "/>
<polyline clip-path="url(#clip380)" style="stroke:#000000; stroke-linecap:round; stroke-linejoin:round; stroke-width:4; stroke-opacity:1; fill:none" points="1867.62,1486.45 1867.62,1467.55 "/>
<polyline clip-path="url(#clip380)" style="stroke:#000000; stroke-linecap:round; stroke-linejoin:round; stroke-width:4; stroke-opacity:1; fill:none" points="2096.62,1486.45 2096.62,1467.55 "/>
<polyline clip-path="url(#clip380)" style="stroke:#000000; stroke-linecap:round; stroke-linejoin:round; stroke-width:4; stroke-opacity:1; fill:none" points="2325.62,1486.45 2325.62,1467.55 "/>
<path clip-path="url(#clip380)" d="M1409.62 1517.37 Q1406.01 1517.37 1404.18 1520.93 Q1402.38 1524.47 1402.38 1531.6 Q1402.38 1538.71 1404.18 1542.27 Q1406.01 1545.82 1409.62 1545.82 Q1413.26 1545.82 1415.06 1542.27 Q1416.89 1538.71 1416.89 1531.6 Q1416.89 1524.47 1415.06 1520.93 Q1413.26 1517.37 1409.62 1517.37 M1409.62 1513.66 Q1415.43 1513.66 1418.49 1518.27 Q1421.57 1522.85 1421.57 1531.6 Q1421.57 1540.33 1418.49 1544.94 Q1415.43 1549.52 1409.62 1549.52 Q1403.81 1549.52 1400.73 1544.94 Q1397.68 1540.33 1397.68 1531.6 Q1397.68 1522.85 1400.73 1518.27 Q1403.81 1513.66 1409.62 1513.66 Z" fill="#000000" fill-rule="nonzero" fill-opacity="1" /><path clip-path="url(#clip380)" d="M1617.39 1544.91 L1633.71 1544.91 L1633.71 1548.85 L1611.77 1548.85 L1611.77 1544.91 Q1614.43 1542.16 1619.02 1537.53 Q1623.62 1532.88 1624.8 1531.53 Q1627.05 1529.01 1627.93 1527.27 Q1628.83 1525.51 1628.83 1523.82 Q1628.83 1521.07 1626.89 1519.33 Q1624.96 1517.6 1621.86 1517.6 Q1619.66 1517.6 1617.21 1518.36 Q1614.78 1519.13 1612 1520.68 L1612 1515.95 Q1614.83 1514.82 1617.28 1514.24 Q1619.73 1513.66 1621.77 1513.66 Q1627.14 1513.66 1630.33 1516.35 Q1633.53 1519.03 1633.53 1523.52 Q1633.53 1525.65 1632.72 1527.57 Q1631.93 1529.47 1629.83 1532.07 Q1629.25 1532.74 1626.14 1535.95 Q1623.04 1539.15 1617.39 1544.91 Z" fill="#000000" fill-rule="nonzero" fill-opacity="1" /><path clip-path="url(#clip380)" d="M1653.53 1517.37 Q1649.92 1517.37 1648.09 1520.93 Q1646.28 1524.47 1646.28 1531.6 Q1646.28 1538.71 1648.09 1542.27 Q1649.92 1545.82 1653.53 1545.82 Q1657.16 1545.82 1658.97 1542.27 Q1660.8 1538.71 1660.8 1531.6 Q1660.8 1524.47 1658.97 1520.93 Q1657.16 1517.37 1653.53 1517.37 M1653.53 1513.66 Q1659.34 1513.66 1662.39 1518.27 Q1665.47 1522.85 1665.47 1531.6 Q1665.47 1540.33 1662.39 1544.94 Q1659.34 1549.52 1653.53 1549.52 Q1647.72 1549.52 1644.64 1544.94 Q1641.58 1540.33 1641.58 1531.6 Q1641.58 1522.85 1644.64 1518.27 Q1647.72 1513.66 1653.53 1513.66 Z" fill="#000000" fill-rule="nonzero" fill-opacity="1" /><path clip-path="url(#clip380)" d="M1855.79 1518.36 L1843.99 1536.81 L1855.79 1536.81 L1855.79 1518.36 M1854.57 1514.29 L1860.45 1514.29 L1860.45 1536.81 L1865.38 1536.81 L1865.38 1540.7 L1860.45 1540.7 L1860.45 1548.85 L1855.79 1548.85 L1855.79 1540.7 L1840.19 1540.7 L1840.19 1536.19 L1854.57 1514.29 Z" fill="#000000" fill-rule="nonzero" fill-opacity="1" /><path clip-path="url(#clip380)" d="M1883.11 1517.37 Q1879.5 1517.37 1877.67 1520.93 Q1875.86 1524.47 1875.86 1531.6 Q1875.86 1538.71 1877.67 1542.27 Q1879.5 1545.82 1883.11 1545.82 Q1886.74 1545.82 1888.55 1542.27 Q1890.38 1538.71 1890.38 1531.6 Q1890.38 1524.47 1888.55 1520.93 Q1886.74 1517.37 1883.11 1517.37 M1883.11 1513.66 Q1888.92 1513.66 1891.97 1518.27 Q1895.05 1522.85 1895.05 1531.6 Q1895.05 1540.33 1891.97 1544.94 Q1888.92 1549.52 1883.11 1549.52 Q1877.3 1549.52 1874.22 1544.94 Q1871.16 1540.33 1871.16 1531.6 Q1871.16 1522.85 1874.22 1518.27 Q1877.3 1513.66 1883.11 1513.66 Z" fill="#000000" fill-rule="nonzero" fill-opacity="1" /><path clip-path="url(#clip380)" d="M2082.03 1529.7 Q2078.88 1529.7 2077.03 1531.86 Q2075.2 1534.01 2075.2 1537.76 Q2075.2 1541.49 2077.03 1543.66 Q2078.88 1545.82 2082.03 1545.82 Q2085.17 1545.82 2087 1543.66 Q2088.85 1541.49 2088.85 1537.76 Q2088.85 1534.01 2087 1531.86 Q2085.17 1529.7 2082.03 1529.7 M2091.31 1515.05 L2091.31 1519.31 Q2089.55 1518.48 2087.74 1518.04 Q2085.96 1517.6 2084.2 1517.6 Q2079.57 1517.6 2077.12 1520.72 Q2074.69 1523.85 2074.34 1530.17 Q2075.71 1528.15 2077.77 1527.09 Q2079.83 1526 2082.3 1526 Q2087.51 1526 2090.52 1529.17 Q2093.55 1532.32 2093.55 1537.76 Q2093.55 1543.08 2090.4 1546.3 Q2087.26 1549.52 2082.03 1549.52 Q2076.03 1549.52 2072.86 1544.94 Q2069.69 1540.33 2069.69 1531.6 Q2069.69 1523.41 2073.58 1518.55 Q2077.47 1513.66 2084.02 1513.66 Q2085.78 1513.66 2087.56 1514.01 Q2089.36 1514.36 2091.31 1515.05 Z" fill="#000000" fill-rule="nonzero" fill-opacity="1" /><path clip-path="url(#clip380)" d="M2111.61 1517.37 Q2108 1517.37 2106.17 1520.93 Q2104.36 1524.47 2104.36 1531.6 Q2104.36 1538.71 2106.17 1542.27 Q2108 1545.82 2111.61 1545.82 Q2115.24 1545.82 2117.05 1542.27 Q2118.88 1538.71 2118.88 1531.6 Q2118.88 1524.47 2117.05 1520.93 Q2115.24 1517.37 2111.61 1517.37 M2111.61 1513.66 Q2117.42 1513.66 2120.47 1518.27 Q2123.55 1522.85 2123.55 1531.6 Q2123.55 1540.33 2120.47 1544.94 Q2117.42 1549.52 2111.61 1549.52 Q2105.8 1549.52 2102.72 1544.94 Q2099.66 1540.33 2099.66 1531.6 Q2099.66 1522.85 2102.72 1518.27 Q2105.8 1513.66 2111.61 1513.66 Z" fill="#000000" fill-rule="nonzero" fill-opacity="1" /><path clip-path="url(#clip380)" d="M2310.49 1532.44 Q2307.16 1532.44 2305.24 1534.22 Q2303.34 1536 2303.34 1539.13 Q2303.34 1542.25 2305.24 1544.03 Q2307.16 1545.82 2310.49 1545.82 Q2313.83 1545.82 2315.75 1544.03 Q2317.67 1542.23 2317.67 1539.13 Q2317.67 1536 2315.75 1534.22 Q2313.85 1532.44 2310.49 1532.44 M2305.82 1530.45 Q2302.81 1529.7 2301.12 1527.64 Q2299.45 1525.58 2299.45 1522.62 Q2299.45 1518.48 2302.39 1516.07 Q2305.35 1513.66 2310.49 1513.66 Q2315.65 1513.66 2318.59 1516.07 Q2321.53 1518.48 2321.53 1522.62 Q2321.53 1525.58 2319.84 1527.64 Q2318.18 1529.7 2315.19 1530.45 Q2318.57 1531.23 2320.45 1533.52 Q2322.34 1535.82 2322.34 1539.13 Q2322.34 1544.15 2319.27 1546.83 Q2316.21 1549.52 2310.49 1549.52 Q2304.77 1549.52 2301.7 1546.83 Q2298.64 1544.15 2298.64 1539.13 Q2298.64 1535.82 2300.54 1533.52 Q2302.44 1531.23 2305.82 1530.45 M2304.1 1523.06 Q2304.1 1525.75 2305.77 1527.25 Q2307.46 1528.76 2310.49 1528.76 Q2313.5 1528.76 2315.19 1527.25 Q2316.9 1525.75 2316.9 1523.06 Q2316.9 1520.38 2315.19 1518.87 Q2313.5 1517.37 2310.49 1517.37 Q2307.46 1517.37 2305.77 1518.87 Q2304.1 1520.38 2304.1 1523.06 Z" fill="#000000" fill-rule="nonzero" fill-opacity="1" /><path clip-path="url(#clip380)" d="M2340.65 1517.37 Q2337.04 1517.37 2335.21 1520.93 Q2333.41 1524.47 2333.41 1531.6 Q2333.41 1538.71 2335.21 1542.27 Q2337.04 1545.82 2340.65 1545.82 Q2344.29 1545.82 2346.09 1542.27 Q2347.92 1538.71 2347.92 1531.6 Q2347.92 1524.47 2346.09 1520.93 Q2344.29 1517.37 2340.65 1517.37 M2340.65 1513.66 Q2346.46 1513.66 2349.52 1518.27 Q2352.6 1522.85 2352.6 1531.6 Q2352.6 1540.33 2349.52 1544.94 Q2346.46 1549.52 2340.65 1549.52 Q2334.84 1549.52 2331.77 1544.94 Q2328.71 1540.33 2328.71 1531.6 Q2328.71 1522.85 2331.77 1518.27 Q2334.84 1513.66 2340.65 1513.66 Z" fill="#000000" fill-rule="nonzero" fill-opacity="1" /><polyline clip-path="url(#clip380)" style="stroke:#000000; stroke-linecap:round; stroke-linejoin:round; stroke-width:4; stroke-opacity:1; fill:none" points="1393.94,1486.45 1393.94,47.2441 "/>
<polyline clip-path="url(#clip380)" style="stroke:#000000; stroke-linecap:round; stroke-linejoin:round; stroke-width:4; stroke-opacity:1; fill:none" points="1393.94,1380.42 1412.83,1380.42 "/>
<polyline clip-path="url(#clip380)" style="stroke:#000000; stroke-linecap:round; stroke-linejoin:round; stroke-width:4; stroke-opacity:1; fill:none" points="1393.94,1103.48 1412.83,1103.48 "/>
<polyline clip-path="url(#clip380)" style="stroke:#000000; stroke-linecap:round; stroke-linejoin:round; stroke-width:4; stroke-opacity:1; fill:none" points="1393.94,826.539 1412.83,826.539 "/>
<polyline clip-path="url(#clip380)" style="stroke:#000000; stroke-linecap:round; stroke-linejoin:round; stroke-width:4; stroke-opacity:1; fill:none" points="1393.94,549.599 1412.83,549.599 "/>
<polyline clip-path="url(#clip380)" style="stroke:#000000; stroke-linecap:round; stroke-linejoin:round; stroke-width:4; stroke-opacity:1; fill:none" points="1393.94,272.658 1412.83,272.658 "/>
<path clip-path="url(#clip380)" d="M1250.99 1380.87 L1280.67 1380.87 L1280.67 1384.81 L1250.99 1384.81 L1250.99 1380.87 Z" fill="#000000" fill-rule="nonzero" fill-opacity="1" /><path clip-path="url(#clip380)" d="M1291.57 1393.77 L1299.21 1393.77 L1299.21 1367.4 L1290.9 1369.07 L1290.9 1364.81 L1299.16 1363.14 L1303.84 1363.14 L1303.84 1393.77 L1311.48 1393.77 L1311.48 1397.7 L1291.57 1397.7 L1291.57 1393.77 Z" fill="#000000" fill-rule="nonzero" fill-opacity="1" /><path clip-path="url(#clip380)" d="M1320.92 1391.82 L1325.81 1391.82 L1325.81 1397.7 L1320.92 1397.7 L1320.92 1391.82 Z" fill="#000000" fill-rule="nonzero" fill-opacity="1" /><path clip-path="url(#clip380)" d="M1345.99 1366.22 Q1342.38 1366.22 1340.55 1369.78 Q1338.75 1373.33 1338.75 1380.46 Q1338.75 1387.56 1340.55 1391.13 Q1342.38 1394.67 1345.99 1394.67 Q1349.63 1394.67 1351.43 1391.13 Q1353.26 1387.56 1353.26 1380.46 Q1353.26 1373.33 1351.43 1369.78 Q1349.63 1366.22 1345.99 1366.22 M1345.99 1362.52 Q1351.8 1362.52 1354.86 1367.12 Q1357.94 1371.71 1357.94 1380.46 Q1357.94 1389.18 1354.86 1393.79 Q1351.8 1398.37 1345.99 1398.37 Q1340.18 1398.37 1337.1 1393.79 Q1334.05 1389.18 1334.05 1380.46 Q1334.05 1371.71 1337.1 1367.12 Q1340.18 1362.52 1345.99 1362.52 Z" fill="#000000" fill-rule="nonzero" fill-opacity="1" /><path clip-path="url(#clip380)" d="M1251.99 1103.93 L1281.66 1103.93 L1281.66 1107.87 L1251.99 1107.87 L1251.99 1103.93 Z" fill="#000000" fill-rule="nonzero" fill-opacity="1" /><path clip-path="url(#clip380)" d="M1301.76 1089.28 Q1298.14 1089.28 1296.32 1092.84 Q1294.51 1096.38 1294.51 1103.51 Q1294.51 1110.62 1296.32 1114.19 Q1298.14 1117.73 1301.76 1117.73 Q1305.39 1117.73 1307.2 1114.19 Q1309.02 1110.62 1309.02 1103.51 Q1309.02 1096.38 1307.2 1092.84 Q1305.39 1089.28 1301.76 1089.28 M1301.76 1085.57 Q1307.57 1085.57 1310.62 1090.18 Q1313.7 1094.76 1313.7 1103.51 Q1313.7 1112.24 1310.62 1116.85 Q1307.57 1121.43 1301.76 1121.43 Q1295.95 1121.43 1292.87 1116.85 Q1289.81 1112.24 1289.81 1103.51 Q1289.81 1094.76 1292.87 1090.18 Q1295.95 1085.57 1301.76 1085.57 Z" fill="#000000" fill-rule="nonzero" fill-opacity="1" /><path clip-path="url(#clip380)" d="M1321.92 1114.88 L1326.8 1114.88 L1326.8 1120.76 L1321.92 1120.76 L1321.92 1114.88 Z" fill="#000000" fill-rule="nonzero" fill-opacity="1" /><path clip-path="url(#clip380)" d="M1337.03 1086.2 L1355.39 1086.2 L1355.39 1090.13 L1341.32 1090.13 L1341.32 1098.61 Q1342.33 1098.26 1343.35 1098.1 Q1344.37 1097.91 1345.39 1097.91 Q1351.18 1097.91 1354.56 1101.08 Q1357.94 1104.26 1357.94 1109.67 Q1357.94 1115.25 1354.46 1118.35 Q1350.99 1121.43 1344.67 1121.43 Q1342.5 1121.43 1340.23 1121.06 Q1337.98 1120.69 1335.58 1119.95 L1335.58 1115.25 Q1337.66 1116.38 1339.88 1116.94 Q1342.1 1117.5 1344.58 1117.5 Q1348.58 1117.5 1350.92 1115.39 Q1353.26 1113.28 1353.26 1109.67 Q1353.26 1106.06 1350.92 1103.95 Q1348.58 1101.85 1344.58 1101.85 Q1342.7 1101.85 1340.83 1102.26 Q1338.98 1102.68 1337.03 1103.56 L1337.03 1086.2 Z" fill="#000000" fill-rule="nonzero" fill-opacity="1" /><path clip-path="url(#clip380)" d="M1300.76 812.338 Q1297.15 812.338 1295.32 815.903 Q1293.52 819.444 1293.52 826.574 Q1293.52 833.68 1295.32 837.245 Q1297.15 840.787 1300.76 840.787 Q1304.39 840.787 1306.2 837.245 Q1308.03 833.68 1308.03 826.574 Q1308.03 819.444 1306.2 815.903 Q1304.39 812.338 1300.76 812.338 M1300.76 808.634 Q1306.57 808.634 1309.63 813.241 Q1312.7 817.824 1312.7 826.574 Q1312.7 835.301 1309.63 839.907 Q1306.57 844.49 1300.76 844.49 Q1294.95 844.49 1291.87 839.907 Q1288.82 835.301 1288.82 826.574 Q1288.82 817.824 1291.87 813.241 Q1294.95 808.634 1300.76 808.634 Z" fill="#000000" fill-rule="nonzero" fill-opacity="1" /><path clip-path="url(#clip380)" d="M1320.92 837.94 L1325.81 837.94 L1325.81 843.819 L1320.92 843.819 L1320.92 837.94 Z" fill="#000000" fill-rule="nonzero" fill-opacity="1" /><path clip-path="url(#clip380)" d="M1345.99 812.338 Q1342.38 812.338 1340.55 815.903 Q1338.75 819.444 1338.75 826.574 Q1338.75 833.68 1340.55 837.245 Q1342.38 840.787 1345.99 840.787 Q1349.63 840.787 1351.43 837.245 Q1353.26 833.68 1353.26 826.574 Q1353.26 819.444 1351.43 815.903 Q1349.63 812.338 1345.99 812.338 M1345.99 808.634 Q1351.8 808.634 1354.86 813.241 Q1357.94 817.824 1357.94 826.574 Q1357.94 835.301 1354.86 839.907 Q1351.8 844.49 1345.99 844.49 Q1340.18 844.49 1337.1 839.907 Q1334.05 835.301 1334.05 826.574 Q1334.05 817.824 1337.1 813.241 Q1340.18 808.634 1345.99 808.634 Z" fill="#000000" fill-rule="nonzero" fill-opacity="1" /><path clip-path="url(#clip380)" d="M1301.76 535.397 Q1298.14 535.397 1296.32 538.962 Q1294.51 542.504 1294.51 549.633 Q1294.51 556.74 1296.32 560.304 Q1298.14 563.846 1301.76 563.846 Q1305.39 563.846 1307.2 560.304 Q1309.02 556.74 1309.02 549.633 Q1309.02 542.504 1307.2 538.962 Q1305.39 535.397 1301.76 535.397 M1301.76 531.694 Q1307.57 531.694 1310.62 536.3 Q1313.7 540.883 1313.7 549.633 Q1313.7 558.36 1310.62 562.967 Q1307.57 567.55 1301.76 567.55 Q1295.95 567.55 1292.87 562.967 Q1289.81 558.36 1289.81 549.633 Q1289.81 540.883 1292.87 536.3 Q1295.95 531.694 1301.76 531.694 Z" fill="#000000" fill-rule="nonzero" fill-opacity="1" /><path clip-path="url(#clip380)" d="M1321.92 560.999 L1326.8 560.999 L1326.8 566.879 L1321.92 566.879 L1321.92 560.999 Z" fill="#000000" fill-rule="nonzero" fill-opacity="1" /><path clip-path="url(#clip380)" d="M1337.03 532.319 L1355.39 532.319 L1355.39 536.254 L1341.32 536.254 L1341.32 544.726 Q1342.33 544.379 1343.35 544.217 Q1344.37 544.031 1345.39 544.031 Q1351.18 544.031 1354.56 547.203 Q1357.94 550.374 1357.94 555.791 Q1357.94 561.369 1354.46 564.471 Q1350.99 567.55 1344.67 567.55 Q1342.5 567.55 1340.23 567.179 Q1337.98 566.809 1335.58 566.068 L1335.58 561.369 Q1337.66 562.504 1339.88 563.059 Q1342.1 563.615 1344.58 563.615 Q1348.58 563.615 1350.92 561.508 Q1353.26 559.402 1353.26 555.791 Q1353.26 552.18 1350.92 550.073 Q1348.58 547.967 1344.58 547.967 Q1342.7 547.967 1340.83 548.383 Q1338.98 548.8 1337.03 549.68 L1337.03 532.319 Z" fill="#000000" fill-rule="nonzero" fill-opacity="1" /><path clip-path="url(#clip380)" d="M1291.57 286.003 L1299.21 286.003 L1299.21 259.637 L1290.9 261.304 L1290.9 257.045 L1299.16 255.378 L1303.84 255.378 L1303.84 286.003 L1311.48 286.003 L1311.48 289.938 L1291.57 289.938 L1291.57 286.003 Z" fill="#000000" fill-rule="nonzero" fill-opacity="1" /><path clip-path="url(#clip380)" d="M1320.92 284.058 L1325.81 284.058 L1325.81 289.938 L1320.92 289.938 L1320.92 284.058 Z" fill="#000000" fill-rule="nonzero" fill-opacity="1" /><path clip-path="url(#clip380)" d="M1345.99 258.457 Q1342.38 258.457 1340.55 262.021 Q1338.75 265.563 1338.75 272.693 Q1338.75 279.799 1340.55 283.364 Q1342.38 286.905 1345.99 286.905 Q1349.63 286.905 1351.43 283.364 Q1353.26 279.799 1353.26 272.693 Q1353.26 265.563 1351.43 262.021 Q1349.63 258.457 1345.99 258.457 M1345.99 254.753 Q1351.8 254.753 1354.86 259.359 Q1357.94 263.943 1357.94 272.693 Q1357.94 281.419 1354.86 286.026 Q1351.8 290.609 1345.99 290.609 Q1340.18 290.609 1337.1 286.026 Q1334.05 281.419 1334.05 272.693 Q1334.05 263.943 1337.1 259.359 Q1340.18 254.753 1345.99 254.753 Z" fill="#000000" fill-rule="nonzero" fill-opacity="1" /><polyline clip-path="url(#clip381)" style="stroke:#009af9; stroke-linecap:round; stroke-linejoin:round; stroke-width:4; stroke-opacity:1; fill:none" points="1421.07,1328.01 1432.52,1258.48 1443.97,1187 1455.42,1165.73 1466.87,1147.09 1478.32,1128.86 1489.77,1102.76 1501.22,1124.88 1512.67,1103.88 1524.12,1086.78 1535.57,1087.05 1547.02,1070.35 1558.47,1045.09 1569.92,972.358 1581.37,922.765 1592.82,858.248 1604.27,810.786 1615.72,741.909 1627.17,652.571 1638.62,547.433 1650.07,456.877 1661.52,371.8 1672.97,280.954 1684.42,217.905 1695.87,157.948 1707.32,127.631 1718.77,87.9763 1730.22,93.7139 1741.67,98.4533 1753.12,102.946 1764.57,122.332 1776.02,156.027 1787.47,193.643 1798.92,233.39 1810.37,250.865 1821.82,293.474 1833.27,310.061 1844.72,331.207 1856.17,342.517 1867.62,354.433 1879.07,388.503 1890.52,427.275 1901.97,475.28 1913.42,535.361 1924.87,589.597 1936.32,650.439 1947.77,706.607 1959.22,757.133 1970.67,822.26 1982.12,876.028 1993.57,919.463 2005.02,932.886 2016.47,963.065 2027.92,1014.03 2039.37,1054.8 2050.82,1088.5 2062.27,1136.12 2073.72,1182.42 2085.17,1235.9 2096.62,1262.55 2108.07,1297.05 2119.52,1301.61 2130.97,1323.24 2142.42,1374.29 2153.87,1380.21 2165.32,1340.39 2176.77,1334.15 2188.22,1304.04 2199.67,1250.45 2211.12,1239.82 2222.57,1216.19 2234.02,1209.11 2245.47,1212.64 2256.92,1202.5 2268.37,1245.27 2279.82,1269.92 2291.27,1264.83 2302.72,1253.97 2314.17,1210.74 2325.62,1202.5 "/>
<polyline clip-path="url(#clip381)" style="stroke:#e26f46; stroke-linecap:round; stroke-linejoin:round; stroke-width:4; stroke-opacity:1; fill:none" points="1421.07,1323.06 1432.52,1258.43 1443.97,1188.39 1455.42,1169.64 1466.87,1150.75 1478.32,1141.8 1489.77,1116.97 1501.22,1131.1 1512.67,1108.2 1524.12,1083.83 1535.57,1081.14 1547.02,1065.68 1558.47,1041.82 1569.92,966.874 1581.37,910.689 1592.82,848.894 1604.27,802.869 1615.72,729.397 1627.17,636.986 1638.62,524.069 1650.07,445.228 1661.52,364.141 1672.97,285.33 1684.42,218.588 1695.87,163.298 1707.32,134.694 1718.77,93.1343 1730.22,98.3307 1741.67,107.181 1753.12,103.307 1764.57,112.51 1776.02,153.185 1787.47,187.976 1798.92,223.165 1810.37,243.147 1821.82,293.314 1833.27,306.707 1844.72,335.062 1856.17,343.214 1867.62,349.015 1879.07,380.889 1890.52,417.411 1901.97,470.246 1913.42,528.727 1924.87,587.337 1936.32,651.217 1947.77,708.754 1959.22,761.487 1970.67,834.071 1982.12,890.46 1993.57,922.81 2005.02,935.567 2016.47,968.052 2027.92,1012.24 2039.37,1053.54 2050.82,1085.69 2062.27,1139.01 2073.72,1186.87 2085.17,1238.85 2096.62,1264.04 2108.07,1302.72 2119.52,1307.1 2130.97,1321.96 2142.42,1369.12 2153.87,1376.43 2165.32,1344.71 2176.77,1344.61 2188.22,1311.62 2199.67,1255.14 2211.12,1249.98 2222.57,1221.31 2234.02,1210.78 2245.47,1218.24 2256.92,1196.14 2268.37,1243.77 2279.82,1262.1 2291.27,1262.78 2302.72,1260.14 2314.17,1214.75 2325.62,1207.47 "/>
<polyline clip-path="url(#clip381)" style="stroke:#3da44d; stroke-linecap:round; stroke-linejoin:round; stroke-width:4; stroke-opacity:1; fill:none" points="1421.07,1272.31 1432.52,1229.55 1443.97,1223.19 1455.42,1130.04 1466.87,1096.82 1478.32,1127.08 1489.77,1056.51 1501.22,1097.14 1512.67,1133.35 1524.12,1071.98 1535.57,1117.67 1547.02,1083.42 1558.47,1085.92 1569.92,1032.23 1581.37,1042.89 1592.82,963.545 1604.27,868.369 1615.72,867.214 1627.17,689.454 1638.62,603.645 1650.07,497.346 1661.52,400.335 1672.97,309.622 1684.42,280.629 1695.87,217.577 1707.32,131.426 1718.77,115.672 1730.22,250.205 1741.67,192.3 1753.12,150.849 1764.57,118.807 1776.02,115.109 1787.47,197.182 1798.92,239.576 1810.37,235.004 1821.82,403.057 1833.27,333.632 1844.72,365.154 1856.17,336.431 1867.62,332.828 1879.07,365.481 1890.52,427.798 1901.97,474.804 1913.42,501.356 1924.87,581.198 1936.32,602.48 1947.77,732.987 1959.22,709.827 1970.67,752.643 1982.12,827.875 1993.57,894.574 2005.02,892.805 2016.47,916.073 2027.92,972.337 2039.37,1034.71 2050.82,1098.3 2062.27,1108.33 2073.72,1183.22 2085.17,1206.99 2096.62,1136.78 2108.07,1276.25 2119.52,1384.75 2130.97,1393.37 2142.42,1445.72 2153.87,1425.1 2165.32,1368.07 2176.77,1417.96 2188.22,1318.84 2199.67,1252.16 2211.12,1190.63 2222.57,1161.51 2234.02,1217.6 2245.47,1156.8 2256.92,1171.55 2268.37,1217.59 2279.82,1261.85 2291.27,1238.21 2302.72,1331.64 2314.17,1265.84 2325.62,1229.73 "/>
<path clip-path="url(#clip380)" d="M1863.25 302.578 L2320.8 302.578 L2320.8 95.2176 L1863.25 95.2176  Z" fill="#ffffff" fill-rule="evenodd" fill-opacity="1"/>
<polyline clip-path="url(#clip380)" style="stroke:#000000; stroke-linecap:round; stroke-linejoin:round; stroke-width:4; stroke-opacity:1; fill:none" points="1863.25,302.578 2320.8,302.578 2320.8,95.2176 1863.25,95.2176 1863.25,302.578 "/>
<polyline clip-path="url(#clip380)" style="stroke:#009af9; stroke-linecap:round; stroke-linejoin:round; stroke-width:4; stroke-opacity:1; fill:none" points="1873.9,147.058 1937.82,147.058 "/>
<path clip-path="url(#clip380)" d="M1948.48 129.778 L1953.15 129.778 L1953.15 144.384 L1968.66 129.778 L1974.68 129.778 L1957.53 145.889 L1975.91 164.338 L1969.75 164.338 L1953.15 147.694 L1953.15 164.338 L1948.48 164.338 L1948.48 129.778 Z" fill="#000000" fill-rule="nonzero" fill-opacity="1" /><path clip-path="url(#clip380)" d="M1990.33 151.305 Q1985.17 151.305 1983.18 152.486 Q1981.19 153.666 1981.19 156.514 Q1981.19 158.782 1982.67 160.125 Q1984.17 161.444 1986.74 161.444 Q1990.28 161.444 1992.41 158.944 Q1994.56 156.421 1994.56 152.254 L1994.56 151.305 L1990.33 151.305 M1998.82 149.546 L1998.82 164.338 L1994.56 164.338 L1994.56 160.402 Q1993.11 162.763 1990.93 163.898 Q1988.75 165.009 1985.61 165.009 Q1981.62 165.009 1979.26 162.787 Q1976.93 160.541 1976.93 156.791 Q1976.93 152.416 1979.84 150.194 Q1982.78 147.972 1988.59 147.972 L1994.56 147.972 L1994.56 147.555 Q1994.56 144.615 1992.62 143.018 Q1990.7 141.398 1987.2 141.398 Q1984.98 141.398 1982.87 141.93 Q1980.77 142.463 1978.82 143.527 L1978.82 139.592 Q1981.16 138.69 1983.36 138.25 Q1985.56 137.787 1987.64 137.787 Q1993.27 137.787 1996.05 140.703 Q1998.82 143.62 1998.82 149.546 Z" fill="#000000" fill-rule="nonzero" fill-opacity="1" /><path clip-path="url(#clip380)" d="M2007.6 128.319 L2011.86 128.319 L2011.86 164.338 L2007.6 164.338 L2007.6 128.319 Z" fill="#000000" fill-rule="nonzero" fill-opacity="1" /><path clip-path="url(#clip380)" d="M2040.95 143.389 Q2042.55 140.518 2044.77 139.153 Q2046.99 137.787 2050 137.787 Q2054.06 137.787 2056.25 140.634 Q2058.45 143.458 2058.45 148.689 L2058.45 164.338 L2054.17 164.338 L2054.17 148.828 Q2054.17 145.102 2052.85 143.296 Q2051.53 141.49 2048.82 141.49 Q2045.51 141.49 2043.59 143.69 Q2041.67 145.889 2041.67 149.685 L2041.67 164.338 L2037.39 164.338 L2037.39 148.828 Q2037.39 145.078 2036.07 143.296 Q2034.75 141.49 2032 141.49 Q2028.73 141.49 2026.81 143.713 Q2024.89 145.912 2024.89 149.685 L2024.89 164.338 L2020.61 164.338 L2020.61 138.412 L2024.89 138.412 L2024.89 142.44 Q2026.35 140.055 2028.38 138.921 Q2030.42 137.787 2033.22 137.787 Q2036.05 137.787 2038.01 139.222 Q2040 140.657 2040.95 143.389 Z" fill="#000000" fill-rule="nonzero" fill-opacity="1" /><path clip-path="url(#clip380)" d="M2078.73 151.305 Q2073.57 151.305 2071.58 152.486 Q2069.59 153.666 2069.59 156.514 Q2069.59 158.782 2071.07 160.125 Q2072.57 161.444 2075.14 161.444 Q2078.68 161.444 2080.81 158.944 Q2082.97 156.421 2082.97 152.254 L2082.97 151.305 L2078.73 151.305 M2087.23 149.546 L2087.23 164.338 L2082.97 164.338 L2082.97 160.402 Q2081.51 162.763 2079.33 163.898 Q2077.16 165.009 2074.01 165.009 Q2070.03 165.009 2067.67 162.787 Q2065.33 160.541 2065.33 156.791 Q2065.33 152.416 2068.24 150.194 Q2071.18 147.972 2076.99 147.972 L2082.97 147.972 L2082.97 147.555 Q2082.97 144.615 2081.02 143.018 Q2079.1 141.398 2075.61 141.398 Q2073.38 141.398 2071.28 141.93 Q2069.17 142.463 2067.23 143.527 L2067.23 139.592 Q2069.56 138.69 2071.76 138.25 Q2073.96 137.787 2076.05 137.787 Q2081.67 137.787 2084.45 140.703 Q2087.23 143.62 2087.23 149.546 Z" fill="#000000" fill-rule="nonzero" fill-opacity="1" /><path clip-path="url(#clip380)" d="M2117.55 148.689 L2117.55 164.338 L2113.29 164.338 L2113.29 148.828 Q2113.29 145.148 2111.86 143.319 Q2110.42 141.49 2107.55 141.49 Q2104.1 141.49 2102.11 143.69 Q2100.12 145.889 2100.12 149.685 L2100.12 164.338 L2095.84 164.338 L2095.84 138.412 L2100.12 138.412 L2100.12 142.44 Q2101.65 140.102 2103.71 138.944 Q2105.79 137.787 2108.5 137.787 Q2112.97 137.787 2115.26 140.565 Q2117.55 143.319 2117.55 148.689 Z" fill="#000000" fill-rule="nonzero" fill-opacity="1" /><path clip-path="url(#clip380)" d="M2157.64 139.176 L2157.64 143.203 Q2155.84 142.277 2153.89 141.815 Q2151.95 141.352 2149.86 141.352 Q2146.69 141.352 2145.1 142.324 Q2143.52 143.296 2143.52 145.24 Q2143.52 146.722 2144.66 147.578 Q2145.79 148.412 2149.22 149.176 L2150.67 149.5 Q2155.21 150.472 2157.11 152.254 Q2159.03 154.014 2159.03 157.185 Q2159.03 160.796 2156.16 162.902 Q2153.31 165.009 2148.31 165.009 Q2146.23 165.009 2143.96 164.592 Q2141.72 164.199 2139.22 163.388 L2139.22 158.99 Q2141.58 160.217 2143.87 160.842 Q2146.16 161.444 2148.41 161.444 Q2151.42 161.444 2153.04 160.426 Q2154.66 159.384 2154.66 157.509 Q2154.66 155.773 2153.48 154.847 Q2152.32 153.921 2148.36 153.064 L2146.88 152.717 Q2142.92 151.884 2141.16 150.171 Q2139.4 148.435 2139.4 145.426 Q2139.4 141.768 2141.99 139.778 Q2144.59 137.787 2149.36 137.787 Q2151.72 137.787 2153.8 138.134 Q2155.88 138.481 2157.64 139.176 Z" fill="#000000" fill-rule="nonzero" fill-opacity="1" /><path clip-path="url(#clip380)" d="M2186 143.389 Q2187.6 140.518 2189.82 139.153 Q2192.04 137.787 2195.05 137.787 Q2199.1 137.787 2201.3 140.634 Q2203.5 143.458 2203.5 148.689 L2203.5 164.338 L2199.22 164.338 L2199.22 148.828 Q2199.22 145.102 2197.9 143.296 Q2196.58 141.49 2193.87 141.49 Q2190.56 141.49 2188.64 143.69 Q2186.72 145.889 2186.72 149.685 L2186.72 164.338 L2182.43 164.338 L2182.43 148.828 Q2182.43 145.078 2181.11 143.296 Q2179.8 141.49 2177.04 141.49 Q2173.78 141.49 2171.86 143.713 Q2169.93 145.912 2169.93 149.685 L2169.93 164.338 L2165.65 164.338 L2165.65 138.412 L2169.93 138.412 L2169.93 142.44 Q2171.39 140.055 2173.43 138.921 Q2175.47 137.787 2178.27 137.787 Q2181.09 137.787 2183.06 139.222 Q2185.05 140.657 2186 143.389 Z" fill="#000000" fill-rule="nonzero" fill-opacity="1" /><path clip-path="url(#clip380)" d="M2222.04 141.398 Q2218.61 141.398 2216.62 144.083 Q2214.63 146.745 2214.63 151.398 Q2214.63 156.051 2216.6 158.736 Q2218.59 161.398 2222.04 161.398 Q2225.44 161.398 2227.43 158.713 Q2229.42 156.027 2229.42 151.398 Q2229.42 146.791 2227.43 144.106 Q2225.44 141.398 2222.04 141.398 M2222.04 137.787 Q2227.6 137.787 2230.77 141.398 Q2233.94 145.009 2233.94 151.398 Q2233.94 157.764 2230.77 161.398 Q2227.6 165.009 2222.04 165.009 Q2216.46 165.009 2213.29 161.398 Q2210.14 157.764 2210.14 151.398 Q2210.14 145.009 2213.29 141.398 Q2216.46 137.787 2222.04 137.787 Z" fill="#000000" fill-rule="nonzero" fill-opacity="1" /><path clip-path="url(#clip380)" d="M2251.04 141.398 Q2247.62 141.398 2245.63 144.083 Q2243.64 146.745 2243.64 151.398 Q2243.64 156.051 2245.6 158.736 Q2247.6 161.398 2251.04 161.398 Q2254.45 161.398 2256.44 158.713 Q2258.43 156.027 2258.43 151.398 Q2258.43 146.791 2256.44 144.106 Q2254.45 141.398 2251.04 141.398 M2251.04 137.787 Q2256.6 137.787 2259.77 141.398 Q2262.94 145.009 2262.94 151.398 Q2262.94 157.764 2259.77 161.398 Q2256.6 165.009 2251.04 165.009 Q2245.47 165.009 2242.29 161.398 Q2239.15 157.764 2239.15 151.398 Q2239.15 145.009 2242.29 141.398 Q2245.47 137.787 2251.04 137.787 Z" fill="#000000" fill-rule="nonzero" fill-opacity="1" /><path clip-path="url(#clip380)" d="M2274.22 131.051 L2274.22 138.412 L2282.99 138.412 L2282.99 141.722 L2274.22 141.722 L2274.22 155.796 Q2274.22 158.967 2275.07 159.87 Q2275.95 160.773 2278.61 160.773 L2282.99 160.773 L2282.99 164.338 L2278.61 164.338 Q2273.68 164.338 2271.81 162.509 Q2269.93 160.657 2269.93 155.796 L2269.93 141.722 L2266.81 141.722 L2266.81 138.412 L2269.93 138.412 L2269.93 131.051 L2274.22 131.051 Z" fill="#000000" fill-rule="nonzero" fill-opacity="1" /><path clip-path="url(#clip380)" d="M2310.14 148.689 L2310.14 164.338 L2305.88 164.338 L2305.88 148.828 Q2305.88 145.148 2304.45 143.319 Q2303.01 141.49 2300.14 141.49 Q2296.69 141.49 2294.7 143.69 Q2292.71 145.889 2292.71 149.685 L2292.71 164.338 L2288.43 164.338 L2288.43 128.319 L2292.71 128.319 L2292.71 142.44 Q2294.24 140.102 2296.3 138.944 Q2298.38 137.787 2301.09 137.787 Q2305.56 137.787 2307.85 140.565 Q2310.14 143.319 2310.14 148.689 Z" fill="#000000" fill-rule="nonzero" fill-opacity="1" /><polyline clip-path="url(#clip380)" style="stroke:#e26f46; stroke-linecap:round; stroke-linejoin:round; stroke-width:4; stroke-opacity:1; fill:none" points="1873.9,198.898 1937.82,198.898 "/>
<path clip-path="url(#clip380)" d="M1952.76 212.289 L1952.76 226.039 L1948.48 226.039 L1948.48 190.252 L1952.76 190.252 L1952.76 194.187 Q1954.1 191.872 1956.14 190.761 Q1958.2 189.627 1961.05 189.627 Q1965.77 189.627 1968.71 193.377 Q1971.67 197.127 1971.67 203.238 Q1971.67 209.349 1968.71 213.099 Q1965.77 216.849 1961.05 216.849 Q1958.2 216.849 1956.14 215.738 Q1954.1 214.603 1952.76 212.289 M1967.25 203.238 Q1967.25 198.539 1965.31 195.877 Q1963.38 193.192 1960 193.192 Q1956.63 193.192 1954.68 195.877 Q1952.76 198.539 1952.76 203.238 Q1952.76 207.937 1954.68 210.622 Q1956.63 213.284 1960 213.284 Q1963.38 213.284 1965.31 210.622 Q1967.25 207.937 1967.25 203.238 Z" fill="#000000" fill-rule="nonzero" fill-opacity="1" /><path clip-path="url(#clip380)" d="M1991.86 180.159 L1991.86 183.701 L1987.78 183.701 Q1985.49 183.701 1984.59 184.627 Q1983.71 185.553 1983.71 187.96 L1983.71 190.252 L1990.72 190.252 L1990.72 193.562 L1983.71 193.562 L1983.71 216.178 L1979.43 216.178 L1979.43 193.562 L1975.35 193.562 L1975.35 190.252 L1979.43 190.252 L1979.43 188.446 Q1979.43 184.118 1981.44 182.15 Q1983.45 180.159 1987.83 180.159 L1991.86 180.159 Z" fill="#000000" fill-rule="nonzero" fill-opacity="1" /><path clip-path="url(#clip380)" d="M2027.02 191.016 L2027.02 195.043 Q2025.21 194.117 2023.27 193.655 Q2021.32 193.192 2019.24 193.192 Q2016.07 193.192 2014.47 194.164 Q2012.9 195.136 2012.9 197.08 Q2012.9 198.562 2014.03 199.418 Q2015.17 200.252 2018.59 201.016 L2020.05 201.34 Q2024.59 202.312 2026.49 204.094 Q2028.41 205.854 2028.41 209.025 Q2028.41 212.636 2025.54 214.742 Q2022.69 216.849 2017.69 216.849 Q2015.61 216.849 2013.34 216.432 Q2011.09 216.039 2008.59 215.228 L2008.59 210.83 Q2010.95 212.057 2013.25 212.682 Q2015.54 213.284 2017.78 213.284 Q2020.79 213.284 2022.41 212.266 Q2024.03 211.224 2024.03 209.349 Q2024.03 207.613 2022.85 206.687 Q2021.69 205.761 2017.74 204.904 L2016.25 204.557 Q2012.3 203.724 2010.54 202.011 Q2008.78 200.275 2008.78 197.266 Q2008.78 193.608 2011.37 191.618 Q2013.96 189.627 2018.73 189.627 Q2021.09 189.627 2023.18 189.974 Q2025.26 190.321 2027.02 191.016 Z" fill="#000000" fill-rule="nonzero" fill-opacity="1" /><path clip-path="url(#clip380)" d="M2055.37 195.229 Q2056.97 192.358 2059.19 190.993 Q2061.42 189.627 2064.43 189.627 Q2068.48 189.627 2070.68 192.474 Q2072.87 195.298 2072.87 200.529 L2072.87 216.178 L2068.59 216.178 L2068.59 200.668 Q2068.59 196.942 2067.27 195.136 Q2065.95 193.33 2063.24 193.33 Q2059.93 193.33 2058.01 195.53 Q2056.09 197.729 2056.09 201.525 L2056.09 216.178 L2051.81 216.178 L2051.81 200.668 Q2051.81 196.918 2050.49 195.136 Q2049.17 193.33 2046.42 193.33 Q2043.15 193.33 2041.23 195.553 Q2039.31 197.752 2039.31 201.525 L2039.31 216.178 L2035.03 216.178 L2035.03 190.252 L2039.31 190.252 L2039.31 194.28 Q2040.77 191.895 2042.81 190.761 Q2044.84 189.627 2047.64 189.627 Q2050.47 189.627 2052.43 191.062 Q2054.43 192.497 2055.37 195.229 Z" fill="#000000" fill-rule="nonzero" fill-opacity="1" /><path clip-path="url(#clip380)" d="M2091.42 193.238 Q2087.99 193.238 2086 195.923 Q2084.01 198.585 2084.01 203.238 Q2084.01 207.891 2085.98 210.576 Q2087.97 213.238 2091.42 213.238 Q2094.82 213.238 2096.81 210.553 Q2098.8 207.867 2098.8 203.238 Q2098.8 198.631 2096.81 195.946 Q2094.82 193.238 2091.42 193.238 M2091.42 189.627 Q2096.97 189.627 2100.14 193.238 Q2103.31 196.849 2103.31 203.238 Q2103.31 209.604 2100.14 213.238 Q2096.97 216.849 2091.42 216.849 Q2085.84 216.849 2082.67 213.238 Q2079.52 209.604 2079.52 203.238 Q2079.52 196.849 2082.67 193.238 Q2085.84 189.627 2091.42 189.627 Z" fill="#000000" fill-rule="nonzero" fill-opacity="1" /><path clip-path="url(#clip380)" d="M2120.42 193.238 Q2116.99 193.238 2115 195.923 Q2113.01 198.585 2113.01 203.238 Q2113.01 207.891 2114.98 210.576 Q2116.97 213.238 2120.42 213.238 Q2123.82 213.238 2125.81 210.553 Q2127.8 207.867 2127.8 203.238 Q2127.8 198.631 2125.81 195.946 Q2123.82 193.238 2120.42 193.238 M2120.42 189.627 Q2125.98 189.627 2129.15 193.238 Q2132.32 196.849 2132.32 203.238 Q2132.32 209.604 2129.15 213.238 Q2125.98 216.849 2120.42 216.849 Q2114.84 216.849 2111.67 213.238 Q2108.52 209.604 2108.52 203.238 Q2108.52 196.849 2111.67 193.238 Q2114.84 189.627 2120.42 189.627 Z" fill="#000000" fill-rule="nonzero" fill-opacity="1" /><path clip-path="url(#clip380)" d="M2143.59 182.891 L2143.59 190.252 L2152.36 190.252 L2152.36 193.562 L2143.59 193.562 L2143.59 207.636 Q2143.59 210.807 2144.45 211.71 Q2145.33 212.613 2147.99 212.613 L2152.36 212.613 L2152.36 216.178 L2147.99 216.178 Q2143.06 216.178 2141.18 214.349 Q2139.31 212.497 2139.31 207.636 L2139.31 193.562 L2136.18 193.562 L2136.18 190.252 L2139.31 190.252 L2139.31 182.891 L2143.59 182.891 Z" fill="#000000" fill-rule="nonzero" fill-opacity="1" /><path clip-path="url(#clip380)" d="M2179.52 200.529 L2179.52 216.178 L2175.26 216.178 L2175.26 200.668 Q2175.26 196.988 2173.82 195.159 Q2172.39 193.33 2169.52 193.33 Q2166.07 193.33 2164.08 195.53 Q2162.09 197.729 2162.09 201.525 L2162.09 216.178 L2157.8 216.178 L2157.8 180.159 L2162.09 180.159 L2162.09 194.28 Q2163.61 191.942 2165.67 190.784 Q2167.76 189.627 2170.47 189.627 Q2174.93 189.627 2177.23 192.405 Q2179.52 195.159 2179.52 200.529 Z" fill="#000000" fill-rule="nonzero" fill-opacity="1" /><polyline clip-path="url(#clip380)" style="stroke:#3da44d; stroke-linecap:round; stroke-linejoin:round; stroke-width:4; stroke-opacity:1; fill:none" points="1873.9,250.738 1937.82,250.738 "/>
<path clip-path="url(#clip380)" d="M1955.88 234.731 L1955.88 242.092 L1964.66 242.092 L1964.66 245.402 L1955.88 245.402 L1955.88 259.476 Q1955.88 262.647 1956.74 263.55 Q1957.62 264.453 1960.28 264.453 L1964.66 264.453 L1964.66 268.018 L1960.28 268.018 Q1955.35 268.018 1953.48 266.189 Q1951.6 264.337 1951.6 259.476 L1951.6 245.402 L1948.48 245.402 L1948.48 242.092 L1951.6 242.092 L1951.6 234.731 L1955.88 234.731 Z" fill="#000000" fill-rule="nonzero" fill-opacity="1" /><path clip-path="url(#clip380)" d="M1985.28 246.073 Q1984.56 245.657 1983.71 245.471 Q1982.87 245.263 1981.86 245.263 Q1978.25 245.263 1976.3 247.624 Q1974.38 249.962 1974.38 254.36 L1974.38 268.018 L1970.1 268.018 L1970.1 242.092 L1974.38 242.092 L1974.38 246.12 Q1975.72 243.758 1977.87 242.624 Q1980.03 241.467 1983.11 241.467 Q1983.55 241.467 1984.08 241.536 Q1984.61 241.583 1985.26 241.698 L1985.28 246.073 Z" fill="#000000" fill-rule="nonzero" fill-opacity="1" /><path clip-path="url(#clip380)" d="M1989.31 257.786 L1989.31 242.092 L1993.57 242.092 L1993.57 257.624 Q1993.57 261.305 1995 263.156 Q1996.44 264.985 1999.31 264.985 Q2002.76 264.985 2004.75 262.786 Q2006.76 260.587 2006.76 256.791 L2006.76 242.092 L2011.02 242.092 L2011.02 268.018 L2006.76 268.018 L2006.76 264.036 Q2005.21 266.397 2003.15 267.555 Q2001.12 268.689 1998.41 268.689 Q1993.94 268.689 1991.62 265.911 Q1989.31 263.133 1989.31 257.786 M2000.03 241.467 L2000.03 241.467 Z" fill="#000000" fill-rule="nonzero" fill-opacity="1" /><path clip-path="url(#clip380)" d="M2041.97 253.99 L2041.97 256.073 L2022.39 256.073 Q2022.67 260.471 2025.03 262.786 Q2027.41 265.078 2031.65 265.078 Q2034.1 265.078 2036.39 264.476 Q2038.71 263.874 2040.98 262.67 L2040.98 266.698 Q2038.68 267.67 2036.28 268.18 Q2033.87 268.689 2031.39 268.689 Q2025.19 268.689 2021.56 265.078 Q2017.94 261.467 2017.94 255.309 Q2017.94 248.944 2021.37 245.217 Q2024.82 241.467 2030.65 241.467 Q2035.88 241.467 2038.92 244.846 Q2041.97 248.203 2041.97 253.99 M2037.71 252.74 Q2037.67 249.245 2035.75 247.161 Q2033.85 245.078 2030.7 245.078 Q2027.13 245.078 2024.98 247.092 Q2022.85 249.106 2022.53 252.763 L2037.71 252.74 Z" fill="#000000" fill-rule="nonzero" fill-opacity="1" /></svg>
