<?xml version="1.0" encoding="utf-8"?>
<svg xmlns="http://www.w3.org/2000/svg" xmlns:xlink="http://www.w3.org/1999/xlink" width="600" height="400" viewBox="0 0 2400 1600">
<defs>
  <clipPath id="clip850">
    <rect x="0" y="0" width="2400" height="1600"/>
  </clipPath>
</defs>
<path clip-path="url(#clip850)" d="M0 1600 L2400 1600 L2400 0 L0 0  Z" fill="#ffffff" fill-rule="evenodd" fill-opacity="1"/>
<defs>
  <clipPath id="clip851">
    <rect x="480" y="0" width="1681" height="1600"/>
  </clipPath>
</defs>
<path clip-path="url(#clip850)" d="M140.51 1486.45 L2352.76 1486.45 L2352.76 47.2441 L140.51 47.2441  Z" fill="#ffffff" fill-rule="evenodd" fill-opacity="1"/>
<defs>
  <clipPath id="clip852">
    <rect x="140" y="47" width="2213" height="1440"/>
  </clipPath>
</defs>
<polyline clip-path="url(#clip852)" style="stroke:#000000; stroke-linecap:round; stroke-linejoin:round; stroke-width:2; stroke-opacity:0.1; fill:none" points="352.791,1486.45 352.791,47.2441 "/>
<polyline clip-path="url(#clip852)" style="stroke:#000000; stroke-linecap:round; stroke-linejoin:round; stroke-width:2; stroke-opacity:0.1; fill:none" points="786.605,1486.45 786.605,47.2441 "/>
<polyline clip-path="url(#clip852)" style="stroke:#000000; stroke-linecap:round; stroke-linejoin:round; stroke-width:2; stroke-opacity:0.1; fill:none" points="1220.42,1486.45 1220.42,47.2441 "/>
<polyline clip-path="url(#clip852)" style="stroke:#000000; stroke-linecap:round; stroke-linejoin:round; stroke-width:2; stroke-opacity:0.1; fill:none" points="1654.23,1486.45 1654.23,47.2441 "/>
<polyline clip-path="url(#clip852)" style="stroke:#000000; stroke-linecap:round; stroke-linejoin:round; stroke-width:2; stroke-opacity:0.1; fill:none" points="2088.05,1486.45 2088.05,47.2441 "/>
<polyline clip-path="url(#clip850)" style="stroke:#000000; stroke-linecap:round; stroke-linejoin:round; stroke-width:4; stroke-opacity:1; fill:none" points="140.51,1486.45 2352.76,1486.45 "/>
<polyline clip-path="url(#clip850)" style="stroke:#000000; stroke-linecap:round; stroke-linejoin:round; stroke-width:4; stroke-opacity:1; fill:none" points="352.791,1486.45 352.791,1467.55 "/>
<polyline clip-path="url(#clip850)" style="stroke:#000000; stroke-linecap:round; stroke-linejoin:round; stroke-width:4; stroke-opacity:1; fill:none" points="786.605,1486.45 786.605,1467.55 "/>
<polyline clip-path="url(#clip850)" style="stroke:#000000; stroke-linecap:round; stroke-linejoin:round; stroke-width:4; stroke-opacity:1; fill:none" points="1220.42,1486.45 1220.42,1467.55 "/>
<polyline clip-path="url(#clip850)" style="stroke:#000000; stroke-linecap:round; stroke-linejoin:round; stroke-width:4; stroke-opacity:1; fill:none" points="1654.23,1486.45 1654.23,1467.55 "/>
<polyline clip-path="url(#clip850)" style="stroke:#000000; stroke-linecap:round; stroke-linejoin:round; stroke-width:4; stroke-opacity:1; fill:none" points="2088.05,1486.45 2088.05,1467.55 "/>
<path clip-path="url(#clip850)" d="M306.854 1532.02 L336.53 1532.02 L336.53 1535.95 L306.854 1535.95 L306.854 1532.02 Z" fill="#000000" fill-rule="nonzero" fill-opacity="1" /><path clip-path="url(#clip850)" d="M360.789 1530.21 Q364.145 1530.93 366.02 1533.2 Q367.918 1535.47 367.918 1538.8 Q367.918 1543.92 364.4 1546.72 Q360.881 1549.52 354.4 1549.52 Q352.224 1549.52 349.909 1549.08 Q347.618 1548.66 345.164 1547.81 L345.164 1543.29 Q347.108 1544.43 349.423 1545.01 Q351.738 1545.58 354.261 1545.58 Q358.659 1545.58 360.951 1543.85 Q363.266 1542.11 363.266 1538.8 Q363.266 1535.75 361.113 1534.03 Q358.983 1532.3 355.164 1532.3 L351.136 1532.3 L351.136 1528.45 L355.349 1528.45 Q358.798 1528.45 360.627 1527.09 Q362.455 1525.7 362.455 1523.11 Q362.455 1520.45 360.557 1519.03 Q358.682 1517.6 355.164 1517.6 Q353.242 1517.6 351.043 1518.01 Q348.844 1518.43 346.205 1519.31 L346.205 1515.14 Q348.868 1514.4 351.182 1514.03 Q353.52 1513.66 355.58 1513.66 Q360.904 1513.66 364.006 1516.09 Q367.108 1518.5 367.108 1522.62 Q367.108 1525.49 365.465 1527.48 Q363.821 1529.45 360.789 1530.21 Z" fill="#000000" fill-rule="nonzero" fill-opacity="1" /><path clip-path="url(#clip850)" d="M386.784 1517.37 Q383.173 1517.37 381.344 1520.93 Q379.539 1524.47 379.539 1531.6 Q379.539 1538.71 381.344 1542.27 Q383.173 1545.82 386.784 1545.82 Q390.418 1545.82 392.224 1542.27 Q394.052 1538.71 394.052 1531.6 Q394.052 1524.47 392.224 1520.93 Q390.418 1517.37 386.784 1517.37 M386.784 1513.66 Q392.594 1513.66 395.65 1518.27 Q398.728 1522.85 398.728 1531.6 Q398.728 1540.33 395.65 1544.94 Q392.594 1549.52 386.784 1549.52 Q380.974 1549.52 377.895 1544.94 Q374.84 1540.33 374.84 1531.6 Q374.84 1522.85 377.895 1518.27 Q380.974 1513.66 386.784 1513.66 Z" fill="#000000" fill-rule="nonzero" fill-opacity="1" /><path clip-path="url(#clip850)" d="M786.605 1517.37 Q782.994 1517.37 781.165 1520.93 Q779.359 1524.47 779.359 1531.6 Q779.359 1538.71 781.165 1542.27 Q782.994 1545.82 786.605 1545.82 Q790.239 1545.82 792.045 1542.27 Q793.873 1538.71 793.873 1531.6 Q793.873 1524.47 792.045 1520.93 Q790.239 1517.37 786.605 1517.37 M786.605 1513.66 Q792.415 1513.66 795.47 1518.27 Q798.549 1522.85 798.549 1531.6 Q798.549 1540.33 795.47 1544.94 Q792.415 1549.52 786.605 1549.52 Q780.795 1549.52 777.716 1544.94 Q774.66 1540.33 774.66 1531.6 Q774.66 1522.85 777.716 1518.27 Q780.795 1513.66 786.605 1513.66 Z" fill="#000000" fill-rule="nonzero" fill-opacity="1" /><path clip-path="url(#clip850)" d="M1209.26 1530.21 Q1212.62 1530.93 1214.49 1533.2 Q1216.39 1535.47 1216.39 1538.8 Q1216.39 1543.92 1212.87 1546.72 Q1209.35 1549.52 1202.87 1549.52 Q1200.7 1549.52 1198.38 1549.08 Q1196.09 1548.66 1193.64 1547.81 L1193.64 1543.29 Q1195.58 1544.43 1197.9 1545.01 Q1200.21 1545.58 1202.73 1545.58 Q1207.13 1545.58 1209.42 1543.85 Q1211.74 1542.11 1211.74 1538.8 Q1211.74 1535.75 1209.59 1534.03 Q1207.46 1532.3 1203.64 1532.3 L1199.61 1532.3 L1199.61 1528.45 L1203.82 1528.45 Q1207.27 1528.45 1209.1 1527.09 Q1210.93 1525.7 1210.93 1523.11 Q1210.93 1520.45 1209.03 1519.03 Q1207.15 1517.6 1203.64 1517.6 Q1201.71 1517.6 1199.52 1518.01 Q1197.32 1518.43 1194.68 1519.31 L1194.68 1515.14 Q1197.34 1514.4 1199.65 1514.03 Q1201.99 1513.66 1204.05 1513.66 Q1209.38 1513.66 1212.48 1516.09 Q1215.58 1518.5 1215.58 1522.62 Q1215.58 1525.49 1213.94 1527.48 Q1212.29 1529.45 1209.26 1530.21 Z" fill="#000000" fill-rule="nonzero" fill-opacity="1" /><path clip-path="url(#clip850)" d="M1235.26 1517.37 Q1231.65 1517.37 1229.82 1520.93 Q1228.01 1524.47 1228.01 1531.6 Q1228.01 1538.71 1229.82 1542.27 Q1231.65 1545.82 1235.26 1545.82 Q1238.89 1545.82 1240.7 1542.27 Q1242.52 1538.71 1242.52 1531.6 Q1242.52 1524.47 1240.7 1520.93 Q1238.89 1517.37 1235.26 1517.37 M1235.26 1513.66 Q1241.07 1513.66 1244.12 1518.27 Q1247.2 1522.85 1247.2 1531.6 Q1247.2 1540.33 1244.12 1544.94 Q1241.07 1549.52 1235.26 1549.52 Q1229.45 1549.52 1226.37 1544.94 Q1223.31 1540.33 1223.31 1531.6 Q1223.31 1522.85 1226.37 1518.27 Q1229.45 1513.66 1235.26 1513.66 Z" fill="#000000" fill-rule="nonzero" fill-opacity="1" /><path clip-path="url(#clip850)" d="M1639.64 1529.7 Q1636.49 1529.7 1634.64 1531.86 Q1632.81 1534.01 1632.81 1537.76 Q1632.81 1541.49 1634.64 1543.66 Q1636.49 1545.82 1639.64 1545.82 Q1642.79 1545.82 1644.61 1543.66 Q1646.47 1541.49 1646.47 1537.76 Q1646.47 1534.01 1644.61 1531.86 Q1642.79 1529.7 1639.64 1529.7 M1648.92 1515.05 L1648.92 1519.31 Q1647.16 1518.48 1645.35 1518.04 Q1643.57 1517.6 1641.81 1517.6 Q1637.18 1517.6 1634.73 1520.72 Q1632.3 1523.85 1631.95 1530.17 Q1633.32 1528.15 1635.38 1527.09 Q1637.44 1526 1639.92 1526 Q1645.12 1526 1648.13 1529.17 Q1651.17 1532.32 1651.17 1537.76 Q1651.17 1543.08 1648.02 1546.3 Q1644.87 1549.52 1639.64 1549.52 Q1633.64 1549.52 1630.47 1544.94 Q1627.3 1540.33 1627.3 1531.6 Q1627.3 1523.41 1631.19 1518.55 Q1635.08 1513.66 1641.63 1513.66 Q1643.39 1513.66 1645.17 1514.01 Q1646.98 1514.36 1648.92 1515.05 Z" fill="#000000" fill-rule="nonzero" fill-opacity="1" /><path clip-path="url(#clip850)" d="M1669.22 1517.37 Q1665.61 1517.37 1663.78 1520.93 Q1661.98 1524.47 1661.98 1531.6 Q1661.98 1538.71 1663.78 1542.27 Q1665.61 1545.82 1669.22 1545.82 Q1672.85 1545.82 1674.66 1542.27 Q1676.49 1538.71 1676.49 1531.6 Q1676.49 1524.47 1674.66 1520.93 Q1672.85 1517.37 1669.22 1517.37 M1669.22 1513.66 Q1675.03 1513.66 1678.09 1518.27 Q1681.16 1522.85 1681.16 1531.6 Q1681.16 1540.33 1678.09 1544.94 Q1675.03 1549.52 1669.22 1549.52 Q1663.41 1549.52 1660.33 1544.94 Q1657.28 1540.33 1657.28 1531.6 Q1657.28 1522.85 1660.33 1518.27 Q1663.41 1513.66 1669.22 1513.66 Z" fill="#000000" fill-rule="nonzero" fill-opacity="1" /><path clip-path="url(#clip850)" d="M2063.17 1548.13 L2063.17 1543.87 Q2064.93 1544.7 2066.74 1545.14 Q2068.54 1545.58 2070.28 1545.58 Q2074.91 1545.58 2077.34 1542.48 Q2079.79 1539.36 2080.14 1533.01 Q2078.8 1535.01 2076.74 1536.07 Q2074.68 1537.13 2072.18 1537.13 Q2066.99 1537.13 2063.96 1534.01 Q2060.95 1530.86 2060.95 1525.42 Q2060.95 1520.1 2064.1 1516.88 Q2067.25 1513.66 2072.48 1513.66 Q2078.47 1513.66 2081.62 1518.27 Q2084.79 1522.85 2084.79 1531.6 Q2084.79 1539.77 2080.9 1544.66 Q2077.04 1549.52 2070.49 1549.52 Q2068.73 1549.52 2066.92 1549.17 Q2065.12 1548.82 2063.17 1548.13 M2072.48 1533.48 Q2075.63 1533.48 2077.46 1531.32 Q2079.31 1529.17 2079.31 1525.42 Q2079.31 1521.7 2077.46 1519.54 Q2075.63 1517.37 2072.48 1517.37 Q2069.33 1517.37 2067.48 1519.54 Q2065.65 1521.7 2065.65 1525.42 Q2065.65 1529.17 2067.48 1531.32 Q2069.33 1533.48 2072.48 1533.48 Z" fill="#000000" fill-rule="nonzero" fill-opacity="1" /><path clip-path="url(#clip850)" d="M2103.2 1517.37 Q2099.59 1517.37 2097.76 1520.93 Q2095.95 1524.47 2095.95 1531.6 Q2095.95 1538.71 2097.76 1542.27 Q2099.59 1545.82 2103.2 1545.82 Q2106.83 1545.82 2108.64 1542.27 Q2110.46 1538.71 2110.46 1531.6 Q2110.46 1524.47 2108.64 1520.93 Q2106.83 1517.37 2103.2 1517.37 M2103.2 1513.66 Q2109.01 1513.66 2112.06 1518.27 Q2115.14 1522.85 2115.14 1531.6 Q2115.14 1540.33 2112.06 1544.94 Q2109.01 1549.52 2103.2 1549.52 Q2097.39 1549.52 2094.31 1544.94 Q2091.25 1540.33 2091.25 1531.6 Q2091.25 1522.85 2094.31 1518.27 Q2097.39 1513.66 2103.2 1513.66 Z" fill="#000000" fill-rule="nonzero" fill-opacity="1" /><polyline clip-path="url(#clip852)" style="stroke:#000000; stroke-linecap:round; stroke-linejoin:round; stroke-width:2; stroke-opacity:0.1; fill:none" points="140.51,1179.65 2352.76,1179.65 "/>
<polyline clip-path="url(#clip852)" style="stroke:#000000; stroke-linecap:round; stroke-linejoin:round; stroke-width:2; stroke-opacity:0.1; fill:none" points="140.51,872.065 2352.76,872.065 "/>
<polyline clip-path="url(#clip852)" style="stroke:#000000; stroke-linecap:round; stroke-linejoin:round; stroke-width:2; stroke-opacity:0.1; fill:none" points="140.51,564.483 2352.76,564.483 "/>
<polyline clip-path="url(#clip852)" style="stroke:#000000; stroke-linecap:round; stroke-linejoin:round; stroke-width:2; stroke-opacity:0.1; fill:none" points="140.51,256.9 2352.76,256.9 "/>
<polyline clip-path="url(#clip850)" style="stroke:#000000; stroke-linecap:round; stroke-linejoin:round; stroke-width:4; stroke-opacity:1; fill:none" points="140.51,1486.45 140.51,47.2441 "/>
<polyline clip-path="url(#clip850)" style="stroke:#000000; stroke-linecap:round; stroke-linejoin:round; stroke-width:4; stroke-opacity:1; fill:none" points="140.51,1179.65 159.408,1179.65 "/>
<polyline clip-path="url(#clip850)" style="stroke:#000000; stroke-linecap:round; stroke-linejoin:round; stroke-width:4; stroke-opacity:1; fill:none" points="140.51,872.065 159.408,872.065 "/>
<polyline clip-path="url(#clip850)" style="stroke:#000000; stroke-linecap:round; stroke-linejoin:round; stroke-width:4; stroke-opacity:1; fill:none" points="140.51,564.483 159.408,564.483 "/>
<polyline clip-path="url(#clip850)" style="stroke:#000000; stroke-linecap:round; stroke-linejoin:round; stroke-width:4; stroke-opacity:1; fill:none" points="140.51,256.9 159.408,256.9 "/>
<path clip-path="url(#clip850)" d="M92.566 1165.45 Q88.9549 1165.45 87.1262 1169.01 Q85.3206 1172.55 85.3206 1179.68 Q85.3206 1186.79 87.1262 1190.35 Q88.9549 1193.89 92.566 1193.89 Q96.2002 1193.89 98.0058 1190.35 Q99.8345 1186.79 99.8345 1179.68 Q99.8345 1172.55 98.0058 1169.01 Q96.2002 1165.45 92.566 1165.45 M92.566 1161.74 Q98.3761 1161.74 101.432 1166.35 Q104.51 1170.93 104.51 1179.68 Q104.51 1188.41 101.432 1193.02 Q98.3761 1197.6 92.566 1197.6 Q86.7558 1197.6 83.6771 1193.02 Q80.6216 1188.41 80.6216 1179.68 Q80.6216 1170.93 83.6771 1166.35 Q86.7558 1161.74 92.566 1161.74 Z" fill="#000000" fill-rule="nonzero" fill-opacity="1" /><path clip-path="url(#clip850)" d="M57.4273 885.41 L73.7466 885.41 L73.7466 889.345 L51.8023 889.345 L51.8023 885.41 Q54.4643 882.655 59.0476 878.025 Q63.6541 873.373 64.8346 872.03 Q67.08 869.507 67.9596 867.771 Q68.8624 866.012 68.8624 864.322 Q68.8624 861.567 66.918 859.831 Q64.9967 858.095 61.8948 858.095 Q59.6958 858.095 57.2421 858.859 Q54.8115 859.623 52.0338 861.174 L52.0338 856.452 Q54.8578 855.317 57.3115 854.739 Q59.7652 854.16 61.8023 854.16 Q67.1726 854.16 70.367 856.845 Q73.5614 859.53 73.5614 864.021 Q73.5614 866.151 72.7513 868.072 Q71.9642 869.97 69.8578 872.563 Q69.2791 873.234 66.1772 876.451 Q63.0754 879.646 57.4273 885.41 Z" fill="#000000" fill-rule="nonzero" fill-opacity="1" /><path clip-path="url(#clip850)" d="M83.6077 854.785 L101.964 854.785 L101.964 858.72 L87.8901 858.72 L87.8901 867.192 Q88.9086 866.845 89.9271 866.683 Q90.9456 866.498 91.9641 866.498 Q97.7511 866.498 101.131 869.669 Q104.51 872.84 104.51 878.257 Q104.51 883.836 101.038 886.937 Q97.566 890.016 91.2465 890.016 Q89.0706 890.016 86.8021 889.646 Q84.5568 889.275 82.1494 888.535 L82.1494 883.836 Q84.2327 884.97 86.4549 885.525 Q88.6771 886.081 91.1539 886.081 Q95.1586 886.081 97.4965 883.975 Q99.8345 881.868 99.8345 878.257 Q99.8345 874.646 97.4965 872.539 Q95.1586 870.433 91.1539 870.433 Q89.279 870.433 87.404 870.85 Q85.5521 871.266 83.6077 872.146 L83.6077 854.785 Z" fill="#000000" fill-rule="nonzero" fill-opacity="1" /><path clip-path="url(#clip850)" d="M52.4505 547.203 L70.8068 547.203 L70.8068 551.138 L56.7328 551.138 L56.7328 559.61 Q57.7513 559.263 58.7699 559.101 Q59.7884 558.916 60.8069 558.916 Q66.5939 558.916 69.9735 562.087 Q73.3531 565.258 73.3531 570.675 Q73.3531 576.253 69.8809 579.355 Q66.4087 582.434 60.0893 582.434 Q57.9134 582.434 55.6449 582.064 Q53.3995 581.693 50.9921 580.952 L50.9921 576.253 Q53.0754 577.388 55.2977 577.943 Q57.5199 578.499 59.9967 578.499 Q64.0013 578.499 66.3393 576.392 Q68.6772 574.286 68.6772 570.675 Q68.6772 567.064 66.3393 564.957 Q64.0013 562.851 59.9967 562.851 Q58.1217 562.851 56.2467 563.267 Q54.3949 563.684 52.4505 564.564 L52.4505 547.203 Z" fill="#000000" fill-rule="nonzero" fill-opacity="1" /><path clip-path="url(#clip850)" d="M92.566 550.281 Q88.9549 550.281 87.1262 553.846 Q85.3206 557.388 85.3206 564.517 Q85.3206 571.624 87.1262 575.189 Q88.9549 578.73 92.566 578.73 Q96.2002 578.73 98.0058 575.189 Q99.8345 571.624 99.8345 564.517 Q99.8345 557.388 98.0058 553.846 Q96.2002 550.281 92.566 550.281 M92.566 546.578 Q98.3761 546.578 101.432 551.184 Q104.51 555.767 104.51 564.517 Q104.51 573.244 101.432 577.851 Q98.3761 582.434 92.566 582.434 Q86.7558 582.434 83.6771 577.851 Q80.6216 573.244 80.6216 564.517 Q80.6216 555.767 83.6771 551.184 Q86.7558 546.578 92.566 546.578 Z" fill="#000000" fill-rule="nonzero" fill-opacity="1" /><path clip-path="url(#clip850)" d="M52.219 239.62 L74.4411 239.62 L74.4411 241.611 L61.8948 274.18 L57.0106 274.18 L68.8161 243.556 L52.219 243.556 L52.219 239.62 Z" fill="#000000" fill-rule="nonzero" fill-opacity="1" /><path clip-path="url(#clip850)" d="M83.6077 239.62 L101.964 239.62 L101.964 243.556 L87.8901 243.556 L87.8901 252.028 Q88.9086 251.681 89.9271 251.519 Q90.9456 251.333 91.9641 251.333 Q97.7511 251.333 101.131 254.505 Q104.51 257.676 104.51 263.093 Q104.51 268.671 101.038 271.773 Q97.566 274.852 91.2465 274.852 Q89.0706 274.852 86.8021 274.481 Q84.5568 274.111 82.1494 273.37 L82.1494 268.671 Q84.2327 269.805 86.4549 270.361 Q88.6771 270.917 91.1539 270.917 Q95.1586 270.917 97.4965 268.81 Q99.8345 266.704 99.8345 263.093 Q99.8345 259.481 97.4965 257.375 Q95.1586 255.268 91.1539 255.268 Q89.279 255.268 87.404 255.685 Q85.5521 256.102 83.6077 256.981 L83.6077 239.62 Z" fill="#000000" fill-rule="nonzero" fill-opacity="1" /><polyline clip-path="url(#clip852)" style="stroke:#0000ff; stroke-linecap:round; stroke-linejoin:round; stroke-width:4; stroke-opacity:1; fill:none" points="203.121,717.165 228.602,722.288 235.609,718.474 252.041,717.441 261.363,716.374 283.639,719.289 303.327,723.691 330.073,725.714 356.996,727.622 387.556,732.213 416.559,732.293 441.39,732.492 476.406,733.881 499.203,739.921 522.086,744.461 556.901,747.979 583.454,749.349 605.009,754.146 632.98,760.609 656.586,768.362 679.534,776.479 702.991,782.935 730.908,789.258 754.192,797.75 780.273,802.994 811.103,811.022 833.468,810.099 867.969,812.233 893.981,821.281 920.044,829.319 950.661,838.564 975.204,847.139 1000.64,854.083 1019.51,864.349 1036.87,876.792 1044.29,882.326 1065.79,884.682 1083.55,886.121 1105.71,886.662 1131.85,890.247 1158.27,900.51 1185.3,911.211 1208.2,916.692 1233.76,919.747 1266.2,921.182 1295.27,922.249 1327.89,926.931 1355.88,932.554 1381.36,935.958 1406.42,938.141 1438.74,937.701 1463.22,937.561 1489.72,936.764 1516.86,933.689 1546.52,928.151 1575.4,929.114 1602.74,927.666 1628.5,928.521 1648.64,921.854 1666.86,918.631 1683.54,911.854 1701.68,905.14 1723.04,904.948 1746.37,903.168 1768.25,905.368 1787.29,908.964 1808.87,915.83 1828.56,927.54 1850.2,940.397 1866.13,951.733 1882.11,968.051 1892.24,982.055 1899.56,996.469 1909.3,1015.3 1921.05,1032.56 1934.04,1051.16 1945.14,1062.15 1963.57,1068.15 1978.84,1071.02 1989.17,1070.12 2011.15,1061.5 2027.18,1055.91 2046.64,1037.12 2058.82,1021.56 2062.66,1001.67 2063.56,983.534 2062.09,961.766 2047.87,946.232 2029.42,938.296 2006.95,929.614 1977.29,933.08 1952.1,933.746 1931.97,930.881 1913.99,927.166 1892,924.292 1871.95,929.564 1850.02,935.819 1833.49,943.764 1810.61,946.025 1785.56,945.19 1758.22,940.934 1736.02,929.636 1713.59,918.596 1682.53,903.296 1656.12,885.676 1633.56,867.463 1618.5,852.592 1607.38,839.414 1590.82,826.609 1576.62,810.447 1565.18,794.524 1557.33,777.946 1557.84,762.346 1571.19,747.872 1585.94,734.502 1607.55,726.443 1627.54,729.95 1651.73,730.725 1670.99,744.158 1693.34,752.007 1707.89,756.075 1730.4,761.608 1753,772.583 1765.45,782.341 1782.73,793.321 1800.98,803.732 1822.99,810.938 1844.3,812.336 1866.04,812.254 1890.42,804.098 1910.95,799.995 1927.02,799.887 1945.7,808.98 1962.56,821.664 1977.29,837.29 1986.84,853.506 1993.7,873.493 2000.64,895.187 2004.63,914.557 2004.54,935.2 2005.63,945.556 2008.7,958.778 2019.84,977.029 2027.06,994.471 2039.43,1009.01 2051.17,1015.92 2063.91,1019.42 2081.57,1013.6 2101.49,1005.24 2114.64,996.328 2130.4,984.073 2139.79,975.751 2142.33,956.783 2133.34,940.978 2113.69,922.595 2098.29,906.258 2077.03,895.363 2048.39,890.282 2020.88,885.333 2003.25,883.688 1979.38,882.657 1959.35,880.919 1941.79,870.417 1926.81,863.564 1904.63,856.942 1888.45,857.07 1866.54,860.195 1845.56,854.442 1824.33,848.979 1804.45,847.742 1780.15,844.022 1761.86,838.805 1744.68,834.652 1722.91,833.107 1694.64,834.98 1668.49,841.92 1653.19,840.478 1649.05,831.804 1645,829.284 1638.34,827.642 1627.57,826.494 1618.49,825.47 1604.24,830.162 1589.74,837.393 1563.27,841.236 1540.94,844.919 1526.21,850.489 1517.44,859.68 1525.17,860.367 1544.67,857.615 1577.07,853.416 1593.43,835.17 1610,820.552 1615.55,804.422 1606.94,787.866 1591.65,769.866 1579.98,759.67 1570.22,738.782 1551.44,728.335 1529.85,739.99 1506.9,741.112 1479.63,735.679 1475.28,716.935 1471.09,697.304 1472.37,676.368 1476.71,660.045 1492.35,637.703 1499.45,618.203 1502.68,595.424 1486.01,583.159 1463.18,576.074 1453.46,572.631 1463.59,559.299 1485.15,548.716 1521.96,547.979 1559.75,532.63 1586.26,516.433 1604.4,493.269 1617.65,472.021 1639.46,463.499 1665.77,466.582 1689.6,471.964 1708.72,489.362 1735.63,501.865 1756.2,519.136 1765.48,540.368 1754.58,557.278 1736.55,572.61 1709.85,585.744 1676.33,591.94 1649.7,590.943 1615.45,576.464 1590.29,560.514 1579.3,539.143 1578.85,517.457 1596.89,503.043 1611.9,493.104 1633.95,478.875 1659.39,470.799 1681.9,454.582 1704.83,441.745 1725.2,441.283 1747.2,426.823 1751.38,412.5 1762.15,395.785 1774.78,389.705 1791.74,372.626 1784.16,358.788 1761.97,347.85 1758.8,345.885 1770.83,341.574 1796.42,335.562 1824.39,340.227 1850.41,343.66 1877.81,349.073 1902.1,366.808 1904.62,385.276 1900.5,397.852 1878.62,409.165 1863.3,430.955 1849.14,458.373 1838.2,491.497 1841.17,511.58 1804.6,513.625 1780.22,529.968 1747.71,536.057 1717.54,552.365 1701.03,578.328 1680.95,595.832 1654.18,589.914 1631.16,578.888 1602.81,569.549 1588.51,556.322 1562.65,541.131 1554.38,533.06 1562.31,511.508 1586.91,503.348 1621.14,497.959 1650.23,500.794 1686.49,508.685 1714.76,523.335 1722.47,544.862 1736.77,565.314 1753.6,569.318 1779.54,574.531 1802.28,585.064 1812.89,587.389 1838.84,579.212 1862.89,571.641 1882.02,562.483 1902.29,565.456 1921.91,580.25 1921.25,598.698 1921.84,619.339 1907.79,651.883 1887.19,677.462 1862.93,697.538 1839.98,726.469 1839.4,751.543 1803.22,762.693 1774.86,767.915 1746.79,782.654 1721.35,796.755 1703.94,815.773 1687.91,836.546 1661.6,859.847 1634.18,868.601 1606.13,859.723 1582.06,854.249 1551.12,850.366 1522.74,841.965 1503.41,820.192 1488.63,800.085 1457.83,777.588 1440.74,757.334 1414.53,740.942 1390.14,738.531 1359.92,744.131 1340.89,741.181 1315.53,733.137 1311.58,707.157 1293.69,699.41 1269.59,702.752 1252.17,712.497 1227.5,729.504 1220.15,736.976 1190.16,739.716 1165.48,745.308 1140.51,737.682 1119.84,719.724 1096.67,707.257 1061.67,702.045 1029.08,692.14 1006.81,687.533 985.646,677.691 965.504,657.05 965.77,643.415 975.096,624.245 990.182,603.823 1002.41,580.863 1009.22,549.302 1015.67,524.466 999.903,504.232 980.472,500.098 969.932,490.181 974.432,476.461 1001.9,475.377 1038.33,478.999 1079.06,477.237 1113.49,472.917 1141.37,454.404 1166.05,429.569 1191.53,409.851 1222.4,403.339 1260.92,406.13 1292.94,418.734 1324.26,433.941 1355.42,446.508 1382.46,458.624 1403.36,472.964 1439.8,479.456 1465.8,494.103 1492.22,516.398 1522.8,543.858 1550.66,558.941 1573.7,571.067 1593.66,581.029 1603.1,570.94 1623.74,562.204 1649.81,547.824 1673.98,538.632 1702.8,527.357 1736.76,526.474 1773,535.19 1801.07,560.152 1807.43,583.23 1803.13,614.117 1784.76,646.249 1783.19,673.939 1775.37,706.143 1775.78,739.832 1792.24,770.7 1823.31,796.331 1863.62,792.827 1885.82,795.237 1915.82,803.296 1935.08,825.722 1960.57,850.897 1982.8,882.236 1995.08,914.286 1998.39,936.959 2015.5,918.174 2051.44,924.794 2078.95,930.813 2091.53,946.893 2092.73,950.631 2093.29,954.857 2097.75,971.964 2101.5,978.088 2114.68,981.511 2131.44,983.576 2163.04,976.802 2190.54,986.73 2203.46,1000.5 2216.22,1022.31 2216.41,1036.42 2219.36,1021.87 2224.61,1002.95 2223.46,976.304 2213.25,949.963 2196.82,926.79 2186.23,904.573 2186.39,883.976 2158.87,862.077 2152.72,831.123 2156.53,805.256 2175.39,793.898 2197.67,797.233 2221.8,806.288 2237.83,818.206 2249.5,838.438 2275.67,860.946 2289.93,882.426 2281.28,909.975 2260.06,931.457 2242.32,951.524 2212.29,963.456 2193.61,982.428 2166.44,995.708 2138.91,1018.47 2118.85,1039.91 2108.84,1063.53 2089.56,1086.44 2072.2,1108.03 2046.33,1124.71 2019.79,1137.42 1987.97,1153.44 1962.48,1172.34 1933.57,1180.42 1904.01,1199.57 1889.52,1217.39 1857.21,1228.48 1838.51,1243.84 1819.67,1262.47 1800.37,1290.19 1793.13,1311.39 1788.78,1332.13 1782.19,1355.64 1804.74,1376.8 1814.04,1391.51 1807.82,1414.68 1799.47,1441.88 1778.5,1445.72 1755.68,1442.26 1734.18,1424.31 1721.51,1398.06 1707.53,1376.23 1683.57,1353.17 1644.06,1326.7 1612.17,1319.32 1577.55,1319.91 1541.79,1326.54 1500.85,1336.32 1472.88,1336.62 1438.6,1326.21 1411.88,1313.44 1392.35,1288.59 1390.44,1254.96 1386.3,1215.25 1365.64,1188.74 1343.48,1167.94 1348.63,1136.23 1346.4,1108.15 1339.12,1084.28 1326.7,1056.53 1307.14,1032.25 1301.78,1004.97 1308.29,971.754 1317.58,938.058 1336.27,908.462 1351.87,878.105 1366.08,845.895 1393.98,823.878 1387.08,796.003 1371.15,771.576 1341.75,748.561 1308.71,746.83 1288.64,732.9 1280.31,707.861 1276.04,675.656 1288.99,647.692 1303.83,626.286 1326.53,617.232 1357.14,606.014 1394.19,600.548 1434.81,596.5 1474.06,596.916 1503.32,588.702 1525.84,561.712 1544.01,540.345 1572.21,528.663 1594.96,522.268 1597.5,506.9 1583.14,492.786 1562.34,478.956 1537.71,466.662 1508.73,439.984 1484.87,414.098 1470.21,387.101 1452.61,366.053 1451.89,348.139 1457.53,328.107 1475.26,318.986 1493.57,328.08 1523.37,331.591 1561.95,335.175 1597.85,344.419 1638.18,350.574 1672.45,353.016 1703.45,367.937 1727.89,374.503 1753.28,366.434 1777.17,356.696 1808.64,351.139 1841.43,350.976 1872.99,345.247 1896.06,360.885 1907.69,378.227 1913.18,370.745 1923.69,353.871 1940.89,336.567 1960.02,326.158 1982.82,311.802 2001.95,303.589 1991.96,304.299 1968.9,291.664 1958.8,275.014 1948.83,245.258 1951.01,215.874 1963.28,200.15 1992.01,190.954 2025.23,193.732 2051.1,198.164 2084.58,201.743 2119.5,213.599 2142.88,237.637 2147.87,267.158 2141.23,293.749 2128.49,301.135 2133.32,317.11 2137.22,339.681 2133.71,371.971 2105.27,388.652 2084.89,423.439 2055.33,446.42 2032.17,472.961 2026.53,507.891 1999.72,513.746 1964.56,516.318 1928.58,527.744 1897.62,542.59 1880.99,569.651 1870.09,600.146 1870.38,617.24 1896.76,621.568 1925.49,634.495 1962.09,648.9 1996.75,672.863 2025.65,687.525 2064.46,693.182 2099.59,693.691 2137.73,690.345 2167.9,694.3 2193.92,693.039 2204.22,678.562 2218.02,659.568 2234.16,638.774 2232.42,613.104 2229.38,594.176 2219.44,570.027 2193.06,549.04 2170.67,530.577 2146.21,515.304 2104.45,517.047 2077.83,524.171 2053.17,542.38 2037.27,562.147 2010.81,587.357 2008.16,617.78 2012.67,648.745 2016.01,677.916 2033.36,704.196 2046.67,729.307 2060.29,762.584 2074.88,792.977 2106.33,805.244 2136.45,823.03 2163.62,851.311 2183.03,874.504 2197.83,905.798 2205.52,930.807 2201.95,942.771 2169.59,944.035 2132,957.296 2104.36,955.823 2089.55,963.421 2068.66,967.837 2046.92,963.176 2015.81,947.186 1984.84,940.771 1948.78,943.26 1904.66,956.009 1865.59,971.394 1827.04,970.516 1783.02,978.923 1745.8,979.906 1706.61,980.492 1674.97,974.932 1640.51,979.209 1608.79,973.532 1575.24,965.942 1538.71,934.917 1511.23,919.74 1472.2,912.732 1438.26,897.385 1409.61,881.652 1378.94,859.85 1352.26,852.295 1326.34,866.88 1301.12,882.915 1272.05,898.011 1233.51,915.851 1195.14,924.282 1166.08,919.917 1138.57,897.053 1119.38,872.246 1102.72,841.791 1076.42,817.289 1065.03,786.453 1060.95,758.151 1063.01,734.474 1049.59,705.744 1026.28,688.806 997.996,676.603 978.73,654.837 969.994,624.163 967.302,600.043 956.058,572.553 965.797,545.602 986.785,518.741 997.996,501.591 1012.74,495.066 1021.16,480.093 1026.13,463.985 1032.08,441.389 1040.23,418.195 1044.76,388.712 1055.69,355.035 1057.57,330.989 1034.88,312.153 1014.54,298.768 987.41,299.72 960.883,307.939 933.79,304.039 900.012,289.731 861.871,275.952 838.739,268.542 816.986,264.63 802.268,247.288 801.232,226.07 815.889,207.925 838.474,189.41 861.283,171.228 906.132,160.284 936.995,146.488 970.721,141.064 1000.17,153.505 1028.71,160.085 1062.46,154.239 1096.73,149.972 1116.1,128.107 1133.06,109.59 1145.23,88.8898 "/>
<polyline clip-path="url(#clip852)" style="stroke:#ff0000; stroke-linecap:round; stroke-linejoin:round; stroke-width:4; stroke-opacity:1; fill:none" points="203.545,717.154 234.505,723.552 237.165,714.657 258.697,715.961 262.138,716.662 289.657,722.358 306.85,725.914 336.147,725.668 361.12,727.686 392.095,734.083 418.846,730.171 440.378,731.463 483.456,734.071 495.458,742.856 520.446,744.861 563.538,747.469 581.642,748.06 601.439,755.307 635.898,762.418 655.709,769.665 678.976,777.625 703.11,782.608 734.142,789.018 753.1,799.242 781.573,801.973 815.222,812.086 831.62,806.008 873.917,811.594 892.036,824.808 919.655,830.517 953.348,840.63 973.217,847.889 1000.87,853.598 1015.56,866.11 1033.73,879.336 1037.19,880.05 1070.03,880.517 1083.85,883.384 1108.93,885.402 1136.61,891.123 1161.72,905.8 1188.56,914.499 1206.72,915.102 1235.27,917.845 1271.61,919.027 1296.7,921.057 1331.33,928.217 1355.59,933.237 1380.68,935.255 1405.79,937.285 1442.98,935.501 1461.16,936.091 1490.57,935.857 1517.36,931.908 1548.45,925.707 1576.19,931.428 1602.97,927.491 1628.09,929.521 1646.13,917.464 1664.31,918.055 1681.5,908.987 1701.34,903.61 1725.62,908.63 1748.92,903.967 1769.74,908.261 1787.08,911.841 1810.55,919.839 1828.9,933.089 1851.55,944.076 1863.79,952.922 1880.51,972.164 1888.46,983.287 1895.59,997.398 1908.03,1018.94 1922.13,1034.51 1935.4,1053.07 1945.02,1058.23 1969.37,1063.27 1979.81,1065.42 1987.6,1063.86 2016.06,1053.92 2027.31,1053.07 2049.41,1026 2055.35,1017.74 2054.11,995.356 2058.19,980.408 2056.96,958.053 2037.74,947.779 2020.36,944.187 1997.68,933.2 1970.08,940.127 1949.24,935.833 1932.7,929.263 1915.34,925.683 1890.21,923.653 1872.21,935.722 1848.9,940.373 1836.01,947.189 1807.41,944.433 1782.28,942.415 1754.52,936.682 1736.18,923.431 1712.72,915.434 1677.07,898.603 1656.13,881.674 1635.2,864.744 1623.84,852.958 1612.48,841.159 1590.74,827.232 1577.61,808.789 1567.09,794.05 1560.89,777.047 1565.07,762.196 1583.91,747.223 1594.16,736.766 1617.42,732.14 1631.24,734.982 1660.58,734.748 1674.55,750.176 1695.31,754.458 1705.7,756.586 1733.39,762.295 1755.14,776.185 1760.42,783.555 1783,794.493 1802.13,804.729 1826.38,809.724 1845.36,807.337 1866.97,808.641 1891.88,798.048 1910.02,798.651 1923.89,801.505 1945.7,815.421 1960.58,827.921 1974.65,843.398 1981.78,857.449 1990.76,878.192 1999.74,898.948 2002.58,915.299 2000.33,936.903 2002.99,940.606 2009.32,957.696 2025.27,979.928 2028.14,996.316 2043.06,1008.88 2053.5,1011.04 2067.41,1013.91 2088.07,1005.53 2104.43,999.428 2113.83,991.887 2131.82,979.805 2136.92,974.551 2136.46,949.206 2121.52,936.657 2103.92,920.417 2093.29,905.628 2069.8,897.631 2041.19,894.887 2016.89,889.88 2006.47,887.727 1977.89,884.996 1960.53,881.415 1942.99,865.2 1929.11,862.345 1901.36,856.624 1889.32,860.438 1862.56,864.375 1844.23,851.149 1823.42,846.868 1804.43,849.242 1776.71,843.534 1763.67,837.702 1746.35,834.122 1720.43,835.081 1690.22,838.305 1666.1,845.92 1657.38,837.825 1657.24,825.202 1649.49,826.752 1638.27,827.588 1623.58,827.711 1616.65,826.284 1599.46,835.327 1586.57,842.119 1553.73,841.651 1538.2,844.739 1528.76,852.244 1521.95,863.453 1537.48,860.352 1556.47,857.965 1587.53,851.764 1596.82,831.636 1611.39,818.902 1615.55,804.028 1605.88,786.311 1589.29,767.179 1580.57,759.096 1569.12,734.76 1549.21,727.514 1526.91,741.773 1505.33,740.469 1474.21,734.059 1475.79,715.542 1470.45,695.623 1472.87,674.166 1477.05,659.353 1494.94,634.845 1499.95,617.092 1503.19,592.731 1484.18,582.568 1460.87,574.657 1453.97,573.243 1465.88,556.941 1490.76,546.421 1530.35,548.304 1568.03,531.067 1586.82,516.192 1604.63,491.783 1617.33,472.577 1637.86,464.322 1666.26,467.028 1690.38,471.962 1710.38,491.635 1739.75,503.889 1757.16,519.932 1766.01,540.467 1754.17,556.756 1734.59,574.596 1705.47,587.367 1671.09,592.817 1649.55,591.525 1610.62,574.153 1588.97,560.336 1580.17,539.79 1579.1,517.73 1597.87,502.868 1611.52,493.197 1637.99,476.809 1661.98,469.267 1685,452.178 1706.35,440.995 1724.39,441.573 1750.83,425.209 1750.68,412.746 1763.32,393.578 1775.3,389.813 1795.64,369.131 1784.33,357.504 1758.43,346.001 1774.67,340.021 1805.47,333.907 1832.18,342.457 1853.66,343.749 1881.19,349.372 1904.66,369.685 1904.02,385.076 1900.75,396.826 1875.19,410.236 1860.93,435.298 1845.85,463.325 1836.82,495.732 1840.45,508.946 1799.21,512.956 1779.66,530.784 1745.32,536.222 1714.56,554.874 1700.22,580.046 1681.45,594.946 1653.83,589.274 1631.33,578.41 1601.1,569.072 1589.8,557.384 1558.65,538.498 1556.03,534.844 1563.52,508.294 1590.97,501.453 1628.75,496.728 1652.87,501.674 1690.8,509.45 1715.92,523.956 1721.31,543.776 1737.06,565.738 1750.87,568.567 1781.95,574.94 1804.46,585.817 1811.37,587.231 1843.11,578.127 1867.12,570.56 1884.2,561.579 1904.92,565.824 1925.83,582.593 1920.93,600.334 1922.11,622.456 1904.56,659.526 1884.17,680.38 1861.12,697.58 1837.42,730.331 1839.4,749.561 1799.01,763.23 1775.76,767.868 1745.74,783.678 1719.98,797.236 1703.79,815.925 1686.75,837.591 1657.66,863.083 1634.36,867.734 1607.48,859.036 1583.23,854.028 1547.75,849.87 1520.89,841.171 1501.67,818.324 1488.57,799.881 1452.09,773.491 1441.62,758.764 1413.88,740.481 1392.3,739.177 1357.84,744.64 1344.01,741.785 1313.76,732.423 1311.01,703.584 1293.75,700.028 1267.04,703.953 1249.85,712.971 1222.34,732.435 1221.49,735.4 1183.56,740.149 1163.73,745.501 1136.97,736.827 1117.08,717.019 1094.63,706.106 1055.83,701.258 1025.65,691.895 1008.41,688.34 986,677.439 963.572,654.001 966.16,645.118 976.471,622.16 993.664,600.63 1003.96,577.709 1009.93,544.527 1015.92,523.882 999.564,504.898 982.37,501.367 971.193,489.703 975.473,474.976 1008.12,475.431 1046.79,480.254 1088.02,476.243 1114.64,472.343 1142.07,453.027 1167.74,427.141 1190.85,410.076 1221.72,403.962 1264.65,406.533 1293.91,418.75 1325.76,434.621 1355.05,446.851 1380.9,458.379 1402.48,472.159 1443.79,480.623 1465.38,494.415 1494.82,519.17 1526.89,547.603 1549.36,558.454 1571.85,569.318 1590.88,579.48 1600.28,572.025 1625.12,561.505 1655.09,545.794 1675.63,537.526 1708.18,525.481 1740.88,525.949 1778.01,536.677 1803.32,563.72 1806.11,579.899 1803.15,616.796 1782.9,650.187 1784.04,672.333 1774.14,707.914 1775.44,742.683 1793.07,771.436 1826.22,797.113 1864.15,792.352 1878.02,795.206 1916.14,803.043 1935.49,825.891 1964.44,853.881 1984.83,886.423 1994.82,916.849 1997.68,933.2 2012.19,920.429 2054.69,926.039 2079.01,931.047 2089.65,945.86 2092.31,949.563 2094.16,956.256 2099.7,976.335 2102.36,980.051 2119.76,983.631 2137.95,984.234 2169.85,975.019 2195.24,989.734 2203.25,1000.87 2218.46,1026.13 2216.02,1035.11 2220.08,1020.13 2225.75,999.182 2222.59,970.122 2210.87,945.614 2194.87,923.406 2185.83,902.639 2187.22,884.024 2153.87,858.273 2151.57,826.346 2157.24,805.516 2174.36,796.473 2195.98,797.79 2222.93,806.464 2237.87,818.964 2250.38,840.396 2280.28,865.421 2290.15,883.187 2278.62,912.297 2258.26,933.311 2242.17,952.073 2209.48,964.266 2193.38,983.041 2164.17,995.959 2135.16,1021.57 2119.02,1040.37 2109.01,1063.63 2087.74,1087.73 2070.75,1109.57 2044.13,1126.26 2019.13,1136.95 1984.68,1155.21 1961.5,1172.65 1933.81,1179.62 1901.98,1201.63 1890.88,1215.24 1853.71,1229.81 1839.11,1242.7 1818.52,1263.91 1798.91,1294.9 1794.76,1309.99 1788.93,1331.13 1781.44,1358.32 1808.71,1379.97 1813.21,1390.5 1805.72,1417.73 1798.21,1444.99 1779.91,1444.38 1754.59,1442.32 1730.8,1421.36 1720.03,1393.5 1706.74,1374.75 1680.33,1350.08 1636.52,1321.8 1614.74,1320.47 1578.18,1319.26 1539.1,1327.1 1495.67,1337.25 1477.4,1336.64 1436.4,1324.92 1413.7,1313.8 1391.77,1286.89 1390.66,1251.57 1384.28,1208.82 1364.17,1188.73 1344.07,1168.64 1349.94,1134.88 1346.31,1108.71 1338.36,1084.84 1325.16,1053.55 1305.97,1030.56 1302.35,1004.46 1309.08,967.871 1318.4,935.021 1337.26,907.338 1353.5,875.977 1366.25,843.927 1393.76,824.402 1386.67,797.753 1371.82,772.667 1338.86,747.014 1309.54,747.26 1291.35,734.083 1280.85,706.795 1276.35,671.349 1290.87,646.127 1303.67,626.836 1324.29,618.543 1361.23,604.222 1399.08,599.485 1440.38,595.462 1476.54,596.643 1500.58,589.065 1527.01,560.115 1543.19,541.574 1572.31,528.828 1592.05,523.513 1596.2,508.761 1582.29,493.443 1558.06,476.01 1532.17,464.469 1500.97,433.157 1481.88,410.581 1470.53,386.491 1454.07,367.581 1451.37,351.5 1458.03,328.026 1475.11,319.118 1494.07,329.195 1529.26,333.292 1572.17,335.851 1602.29,345.115 1644.38,350.615 1672.73,353.309 1704.66,369.156 1725.31,373.376 1752.69,366.56 1777.45,356.102 1811.71,350.688 1844.31,351.144 1875.12,345.029 1895.95,361.7 1906.47,376.255 1911.54,371.087 1924.14,351.943 1943.6,334.214 1960.63,325.294 1986.97,308.98 2003.16,302.989 1992.03,303.813 1963.5,288.704 1957.24,271.96 1944.73,238.482 1952.05,212.153 1962.15,201.868 1994.52,189.934 2029.68,194.006 2050.3,198.214 2088.93,202.987 2125.14,216.533 2144.38,238.987 2147.48,267.444 2140.23,293.798 2131.75,298.264 2133.8,317.26 2137.69,342.839 2131.46,378.777 2099.04,390.773 2080.83,430.537 2054.47,446.9 2032.55,473.524 2026.26,509.61 2003.91,511.259 1962.69,515.282 1925.92,529.566 1896.84,542.324 1881.75,570.437 1869.27,602.241 1870.27,611.813 1897.1,620.45 1929.21,636.42 1969.08,650.864 2002.25,676.455 2024.85,687.356 2067.21,692.917 2099.99,693.384 2141.33,689.349 2165.57,694.332 2191.44,693.372 2202.4,679.974 2219.25,658.406 2236.06,636.838 2232.13,611.038 2229.22,594.835 2218.36,567.645 2187.82,545.794 2170.31,529.75 2145.09,515.233 2096.95,517.841 2080.7,523.869 2053.49,543.235 2037.45,561.776 2007.76,590.024 2007.36,618.063 2013.04,650.495 2016.09,679.297 2034.63,705.023 2046.24,729.347 2061.54,767.007 2075.84,795.059 2106.24,804.458 2137.69,823.491 2165.92,854.459 2182.69,873.652 2198.91,908.483 2204.48,928.537 2202.05,937.494 2167.52,942.993 2126.26,959.726 2105.4,955.42 2092.53,962.236 2069.22,966.899 2044.9,961.879 2009.12,945.023 1981.33,939.29 1943.31,944.076 1895.04,959.369 1862.32,971.562 1825.92,970.368 1779.29,979.694 1746.37,979.214 1705.68,980.297 1677.9,974.564 1639.86,979.337 1608.62,972.89 1573.92,965.717 1532.91,928.808 1512.94,921.524 1471.35,912.936 1439.23,896.831 1410.59,881.452 1376.72,858.691 1355.94,854.41 1326.64,867.279 1299.95,883.839 1269.77,899.71 1227.5,919.396 1192.93,924.883 1168.69,919.875 1135.75,894.112 1120.12,871.942 1100.17,839.424 1074.19,815.15 1064.64,784.822 1061.12,758.924 1063.67,737.43 1048.08,702.796 1026.5,688.93 997.192,676.615 978.22,653.878 969.587,620.746 967.838,601.589 954.924,570.745 966.088,544.884 989.268,515.269 996.137,504.184 1009.01,497.467 1021.02,481.202 1026.14,463.534 1033.84,437.057 1040.66,413.534 1045.75,383.44 1059.4,348.929 1056.8,332.849 1033.62,312.573 1015.6,299.568 986.463,299.814 958.193,309.546 930.776,303.936 895.651,287.425 856.261,273.153 842.567,270.348 818.591,265.439 802.352,246.603 801.542,224.74 817.825,206.383 841.8,186.513 864.908,169.584 915.361,158.24 936.733,147.155 970.918,141.766 999.998,153.897 1027.37,159.483 1064.98,154.795 1099.17,149.419 1116.2,128.183 1132.38,109.876 1145.98,87.9763 "/>
<path clip-path="url(#clip850)" d="M214.252 1438.47 L760.776 1438.47 L760.776 1282.95 L214.252 1282.95  Z" fill="#ffffff" fill-rule="evenodd" fill-opacity="1"/>
<polyline clip-path="url(#clip850)" style="stroke:#000000; stroke-linecap:round; stroke-linejoin:round; stroke-width:4; stroke-opacity:1; fill:none" points="214.252,1438.47 760.776,1438.47 760.776,1282.95 214.252,1282.95 214.252,1438.47 "/>
<polyline clip-path="url(#clip850)" style="stroke:#0000ff; stroke-linecap:round; stroke-linejoin:round; stroke-width:4; stroke-opacity:1; fill:none" points="238.832,1334.79 386.315,1334.79 "/>
<path clip-path="url(#clip850)" d="M434.924 1338.05 L434.924 1340.13 L415.34 1340.13 Q415.618 1344.53 417.979 1346.84 Q420.363 1349.13 424.6 1349.13 Q427.053 1349.13 429.345 1348.53 Q431.66 1347.93 433.928 1346.73 L433.928 1350.75 Q431.637 1351.73 429.229 1352.24 Q426.822 1352.75 424.345 1352.75 Q418.141 1352.75 414.507 1349.13 Q410.896 1345.52 410.896 1339.37 Q410.896 1333 414.322 1329.27 Q417.771 1325.52 423.604 1325.52 Q428.836 1325.52 431.868 1328.9 Q434.924 1332.26 434.924 1338.05 M430.664 1336.8 Q430.618 1333.3 428.697 1331.22 Q426.799 1329.13 423.65 1329.13 Q420.086 1329.13 417.933 1331.15 Q415.803 1333.16 415.479 1336.82 L430.664 1336.8 Z" fill="#000000" fill-rule="nonzero" fill-opacity="1" /><path clip-path="url(#clip850)" d="M458.442 1326.91 L458.442 1330.94 Q456.636 1330.01 454.692 1329.55 Q452.748 1329.09 450.664 1329.09 Q447.493 1329.09 445.896 1330.06 Q444.322 1331.03 444.322 1332.98 Q444.322 1334.46 445.456 1335.32 Q446.59 1336.15 450.016 1336.91 L451.474 1337.24 Q456.011 1338.21 457.91 1339.99 Q459.831 1341.75 459.831 1344.92 Q459.831 1348.53 456.96 1350.64 Q454.113 1352.75 449.113 1352.75 Q447.03 1352.75 444.761 1352.33 Q442.516 1351.94 440.016 1351.13 L440.016 1346.73 Q442.377 1347.95 444.669 1348.58 Q446.961 1349.18 449.206 1349.18 Q452.215 1349.18 453.836 1348.16 Q455.456 1347.12 455.456 1345.25 Q455.456 1343.51 454.275 1342.58 Q453.118 1341.66 449.16 1340.8 L447.678 1340.45 Q443.72 1339.62 441.961 1337.91 Q440.201 1336.17 440.201 1333.16 Q440.201 1329.51 442.794 1327.51 Q445.386 1325.52 450.155 1325.52 Q452.516 1325.52 454.599 1325.87 Q456.683 1326.22 458.442 1326.91 Z" fill="#000000" fill-rule="nonzero" fill-opacity="1" /><path clip-path="url(#clip850)" d="M470.826 1318.79 L470.826 1326.15 L479.599 1326.15 L479.599 1329.46 L470.826 1329.46 L470.826 1343.53 Q470.826 1346.7 471.683 1347.61 Q472.562 1348.51 475.224 1348.51 L479.599 1348.51 L479.599 1352.07 L475.224 1352.07 Q470.294 1352.07 468.419 1350.25 Q466.544 1348.39 466.544 1343.53 L466.544 1329.46 L463.419 1329.46 L463.419 1326.15 L466.544 1326.15 L466.544 1318.79 L470.826 1318.79 Z" fill="#000000" fill-rule="nonzero" fill-opacity="1" /><path clip-path="url(#clip850)" d="M485.201 1326.15 L489.46 1326.15 L489.46 1352.07 L485.201 1352.07 L485.201 1326.15 M485.201 1316.06 L489.46 1316.06 L489.46 1321.45 L485.201 1321.45 L485.201 1316.06 Z" fill="#000000" fill-rule="nonzero" fill-opacity="1" /><path clip-path="url(#clip850)" d="M518.557 1331.13 Q520.155 1328.26 522.377 1326.89 Q524.599 1325.52 527.608 1325.52 Q531.659 1325.52 533.858 1328.37 Q536.057 1331.19 536.057 1336.43 L536.057 1352.07 L531.775 1352.07 L531.775 1336.57 Q531.775 1332.84 530.455 1331.03 Q529.136 1329.23 526.428 1329.23 Q523.118 1329.23 521.196 1331.43 Q519.275 1333.63 519.275 1337.42 L519.275 1352.07 L514.993 1352.07 L514.993 1336.57 Q514.993 1332.82 513.673 1331.03 Q512.354 1329.23 509.599 1329.23 Q506.335 1329.23 504.414 1331.45 Q502.493 1333.65 502.493 1337.42 L502.493 1352.07 L498.21 1352.07 L498.21 1326.15 L502.493 1326.15 L502.493 1330.18 Q503.951 1327.79 505.988 1326.66 Q508.025 1325.52 510.826 1325.52 Q513.65 1325.52 515.618 1326.96 Q517.608 1328.39 518.557 1331.13 Z" fill="#000000" fill-rule="nonzero" fill-opacity="1" /><path clip-path="url(#clip850)" d="M556.335 1339.04 Q551.173 1339.04 549.182 1340.22 Q547.191 1341.4 547.191 1344.25 Q547.191 1346.52 548.673 1347.86 Q550.178 1349.18 552.747 1349.18 Q556.289 1349.18 558.418 1346.68 Q560.571 1344.16 560.571 1339.99 L560.571 1339.04 L556.335 1339.04 M564.83 1337.28 L564.83 1352.07 L560.571 1352.07 L560.571 1348.14 Q559.113 1350.5 556.937 1351.63 Q554.761 1352.75 551.613 1352.75 Q547.631 1352.75 545.27 1350.52 Q542.932 1348.28 542.932 1344.53 Q542.932 1340.15 545.849 1337.93 Q548.789 1335.71 554.599 1335.71 L560.571 1335.71 L560.571 1335.29 Q560.571 1332.35 558.627 1330.76 Q556.705 1329.13 553.21 1329.13 Q550.988 1329.13 548.881 1329.67 Q546.775 1330.2 544.83 1331.26 L544.83 1327.33 Q547.168 1326.43 549.367 1325.99 Q551.566 1325.52 553.65 1325.52 Q559.275 1325.52 562.053 1328.44 Q564.83 1331.36 564.83 1337.28 Z" fill="#000000" fill-rule="nonzero" fill-opacity="1" /><path clip-path="url(#clip850)" d="M577.816 1318.79 L577.816 1326.15 L586.589 1326.15 L586.589 1329.46 L577.816 1329.46 L577.816 1343.53 Q577.816 1346.7 578.673 1347.61 Q579.552 1348.51 582.214 1348.51 L586.589 1348.51 L586.589 1352.07 L582.214 1352.07 Q577.284 1352.07 575.409 1350.25 Q573.534 1348.39 573.534 1343.53 L573.534 1329.46 L570.409 1329.46 L570.409 1326.15 L573.534 1326.15 L573.534 1318.79 L577.816 1318.79 Z" fill="#000000" fill-rule="nonzero" fill-opacity="1" /><path clip-path="url(#clip850)" d="M614.367 1338.05 L614.367 1340.13 L594.784 1340.13 Q595.062 1344.53 597.423 1346.84 Q599.807 1349.13 604.043 1349.13 Q606.497 1349.13 608.788 1348.53 Q611.103 1347.93 613.372 1346.73 L613.372 1350.75 Q611.08 1351.73 608.673 1352.24 Q606.265 1352.75 603.788 1352.75 Q597.585 1352.75 593.95 1349.13 Q590.339 1345.52 590.339 1339.37 Q590.339 1333 593.765 1329.27 Q597.214 1325.52 603.048 1325.52 Q608.279 1325.52 611.312 1328.9 Q614.367 1332.26 614.367 1338.05 M610.108 1336.8 Q610.062 1333.3 608.14 1331.22 Q606.242 1329.13 603.094 1329.13 Q599.529 1329.13 597.376 1331.15 Q595.247 1333.16 594.923 1336.82 L610.108 1336.8 Z" fill="#000000" fill-rule="nonzero" fill-opacity="1" /><polyline clip-path="url(#clip850)" style="stroke:#ff0000; stroke-linecap:round; stroke-linejoin:round; stroke-width:4; stroke-opacity:1; fill:none" points="238.832,1386.63 386.315,1386.63 "/>
<path clip-path="url(#clip850)" d="M431.243 1382.97 Q432.84 1380.1 435.062 1378.73 Q437.285 1377.36 440.294 1377.36 Q444.345 1377.36 446.544 1380.21 Q448.743 1383.03 448.743 1388.27 L448.743 1403.91 L444.461 1403.91 L444.461 1388.41 Q444.461 1384.68 443.141 1382.87 Q441.822 1381.07 439.113 1381.07 Q435.803 1381.07 433.882 1383.27 Q431.961 1385.47 431.961 1389.26 L431.961 1403.91 L427.678 1403.91 L427.678 1388.41 Q427.678 1384.66 426.359 1382.87 Q425.039 1381.07 422.285 1381.07 Q419.021 1381.07 417.1 1383.29 Q415.178 1385.49 415.178 1389.26 L415.178 1403.91 L410.896 1403.91 L410.896 1377.99 L415.178 1377.99 L415.178 1382.02 Q416.637 1379.63 418.674 1378.5 Q420.711 1377.36 423.512 1377.36 Q426.336 1377.36 428.303 1378.8 Q430.294 1380.23 431.243 1382.97 Z" fill="#000000" fill-rule="nonzero" fill-opacity="1" /><path clip-path="url(#clip850)" d="M479.414 1389.89 L479.414 1391.97 L459.831 1391.97 Q460.109 1396.37 462.47 1398.68 Q464.854 1400.97 469.09 1400.97 Q471.544 1400.97 473.835 1400.37 Q476.15 1399.77 478.419 1398.57 L478.419 1402.59 Q476.127 1403.57 473.72 1404.08 Q471.312 1404.59 468.835 1404.59 Q462.632 1404.59 458.998 1400.97 Q455.386 1397.36 455.386 1391.21 Q455.386 1384.84 458.812 1381.11 Q462.261 1377.36 468.095 1377.36 Q473.326 1377.36 476.359 1380.74 Q479.414 1384.1 479.414 1389.89 M475.155 1388.64 Q475.109 1385.14 473.187 1383.06 Q471.289 1380.97 468.141 1380.97 Q464.576 1380.97 462.423 1382.99 Q460.294 1385 459.97 1388.66 L475.155 1388.64 Z" fill="#000000" fill-rule="nonzero" fill-opacity="1" /><path clip-path="url(#clip850)" d="M498.187 1390.88 Q493.025 1390.88 491.034 1392.06 Q489.044 1393.24 489.044 1396.09 Q489.044 1398.36 490.525 1399.7 Q492.03 1401.02 494.599 1401.02 Q498.141 1401.02 500.27 1398.52 Q502.423 1396 502.423 1391.83 L502.423 1390.88 L498.187 1390.88 M506.682 1389.12 L506.682 1403.91 L502.423 1403.91 L502.423 1399.98 Q500.965 1402.34 498.789 1403.47 Q496.613 1404.59 493.465 1404.59 Q489.483 1404.59 487.122 1402.36 Q484.784 1400.12 484.784 1396.37 Q484.784 1391.99 487.701 1389.77 Q490.641 1387.55 496.451 1387.55 L502.423 1387.55 L502.423 1387.13 Q502.423 1384.19 500.479 1382.6 Q498.557 1380.97 495.062 1380.97 Q492.84 1380.97 490.733 1381.51 Q488.627 1382.04 486.683 1383.1 L486.683 1379.17 Q489.021 1378.27 491.22 1377.83 Q493.419 1377.36 495.502 1377.36 Q501.127 1377.36 503.905 1380.28 Q506.682 1383.2 506.682 1389.12 Z" fill="#000000" fill-rule="nonzero" fill-opacity="1" /><path clip-path="url(#clip850)" d="M531.983 1378.75 L531.983 1382.78 Q530.178 1381.85 528.233 1381.39 Q526.289 1380.93 524.206 1380.93 Q521.034 1380.93 519.437 1381.9 Q517.863 1382.87 517.863 1384.82 Q517.863 1386.3 518.997 1387.16 Q520.131 1387.99 523.557 1388.75 L525.016 1389.08 Q529.553 1390.05 531.451 1391.83 Q533.372 1393.59 533.372 1396.76 Q533.372 1400.37 530.502 1402.48 Q527.655 1404.59 522.655 1404.59 Q520.571 1404.59 518.303 1404.17 Q516.057 1403.78 513.557 1402.97 L513.557 1398.57 Q515.919 1399.79 518.21 1400.42 Q520.502 1401.02 522.747 1401.02 Q525.756 1401.02 527.377 1400 Q528.997 1398.96 528.997 1397.09 Q528.997 1395.35 527.817 1394.42 Q526.659 1393.5 522.701 1392.64 L521.219 1392.29 Q517.261 1391.46 515.502 1389.75 Q513.743 1388.01 513.743 1385 Q513.743 1381.35 516.335 1379.35 Q518.928 1377.36 523.696 1377.36 Q526.057 1377.36 528.141 1377.71 Q530.224 1378.06 531.983 1378.75 Z" fill="#000000" fill-rule="nonzero" fill-opacity="1" /><path clip-path="url(#clip850)" d="M539.715 1393.68 L539.715 1377.99 L543.974 1377.99 L543.974 1393.52 Q543.974 1397.2 545.409 1399.05 Q546.844 1400.88 549.715 1400.88 Q553.164 1400.88 555.154 1398.68 Q557.168 1396.48 557.168 1392.69 L557.168 1377.99 L561.428 1377.99 L561.428 1403.91 L557.168 1403.91 L557.168 1399.93 Q555.617 1402.29 553.557 1403.45 Q551.52 1404.59 548.812 1404.59 Q544.344 1404.59 542.029 1401.81 Q539.715 1399.03 539.715 1393.68 M550.432 1377.36 L550.432 1377.36 Z" fill="#000000" fill-rule="nonzero" fill-opacity="1" /><path clip-path="url(#clip850)" d="M585.224 1381.97 Q584.506 1381.55 583.65 1381.37 Q582.816 1381.16 581.798 1381.16 Q578.187 1381.16 576.242 1383.52 Q574.321 1385.86 574.321 1390.26 L574.321 1403.91 L570.039 1403.91 L570.039 1377.99 L574.321 1377.99 L574.321 1382.02 Q575.664 1379.66 577.816 1378.52 Q579.969 1377.36 583.048 1377.36 Q583.488 1377.36 584.02 1377.43 Q584.552 1377.48 585.201 1377.6 L585.224 1381.97 Z" fill="#000000" fill-rule="nonzero" fill-opacity="1" /><path clip-path="url(#clip850)" d="M610.825 1389.89 L610.825 1391.97 L591.242 1391.97 Q591.52 1396.37 593.881 1398.68 Q596.265 1400.97 600.501 1400.97 Q602.955 1400.97 605.247 1400.37 Q607.562 1399.77 609.83 1398.57 L609.83 1402.59 Q607.538 1403.57 605.131 1404.08 Q602.724 1404.59 600.247 1404.59 Q594.043 1404.59 590.409 1400.97 Q586.798 1397.36 586.798 1391.21 Q586.798 1384.84 590.224 1381.11 Q593.673 1377.36 599.506 1377.36 Q604.737 1377.36 607.77 1380.74 Q610.825 1384.1 610.825 1389.89 M606.566 1388.64 Q606.52 1385.14 604.599 1383.06 Q602.7 1380.97 599.552 1380.97 Q595.988 1380.97 593.835 1382.99 Q591.705 1385 591.381 1388.66 L606.566 1388.64 Z" fill="#000000" fill-rule="nonzero" fill-opacity="1" /><path clip-path="url(#clip850)" d="M638.001 1382.97 Q639.598 1380.1 641.821 1378.73 Q644.043 1377.36 647.052 1377.36 Q651.103 1377.36 653.302 1380.21 Q655.501 1383.03 655.501 1388.27 L655.501 1403.91 L651.219 1403.91 L651.219 1388.41 Q651.219 1384.68 649.899 1382.87 Q648.58 1381.07 645.872 1381.07 Q642.561 1381.07 640.64 1383.27 Q638.719 1385.47 638.719 1389.26 L638.719 1403.91 L634.436 1403.91 L634.436 1388.41 Q634.436 1384.66 633.117 1382.87 Q631.798 1381.07 629.043 1381.07 Q625.779 1381.07 623.858 1383.29 Q621.936 1385.49 621.936 1389.26 L621.936 1403.91 L617.654 1403.91 L617.654 1377.99 L621.936 1377.99 L621.936 1382.02 Q623.395 1379.63 625.432 1378.5 Q627.469 1377.36 630.27 1377.36 Q633.094 1377.36 635.061 1378.8 Q637.052 1380.23 638.001 1382.97 Z" fill="#000000" fill-rule="nonzero" fill-opacity="1" /><path clip-path="url(#clip850)" d="M686.172 1389.89 L686.172 1391.97 L666.589 1391.97 Q666.867 1396.37 669.228 1398.68 Q671.612 1400.97 675.848 1400.97 Q678.302 1400.97 680.594 1400.37 Q682.908 1399.77 685.177 1398.57 L685.177 1402.59 Q682.885 1403.57 680.478 1404.08 Q678.07 1404.59 675.594 1404.59 Q669.39 1404.59 665.756 1400.97 Q662.145 1397.36 662.145 1391.21 Q662.145 1384.84 665.57 1381.11 Q669.02 1377.36 674.853 1377.36 Q680.084 1377.36 683.117 1380.74 Q686.172 1384.1 686.172 1389.89 M681.913 1388.64 Q681.867 1385.14 679.945 1383.06 Q678.047 1380.97 674.899 1380.97 Q671.334 1380.97 669.182 1382.99 Q667.052 1385 666.728 1388.66 L681.913 1388.64 Z" fill="#000000" fill-rule="nonzero" fill-opacity="1" /><path clip-path="url(#clip850)" d="M714.714 1388.27 L714.714 1403.91 L710.455 1403.91 L710.455 1388.41 Q710.455 1384.72 709.019 1382.9 Q707.584 1381.07 704.714 1381.07 Q701.265 1381.07 699.274 1383.27 Q697.283 1385.47 697.283 1389.26 L697.283 1403.91 L693.001 1403.91 L693.001 1377.99 L697.283 1377.99 L697.283 1382.02 Q698.811 1379.68 700.871 1378.52 Q702.955 1377.36 705.663 1377.36 Q710.13 1377.36 712.422 1380.14 Q714.714 1382.9 714.714 1388.27 Z" fill="#000000" fill-rule="nonzero" fill-opacity="1" /><path clip-path="url(#clip850)" d="M727.422 1370.63 L727.422 1377.99 L736.195 1377.99 L736.195 1381.3 L727.422 1381.3 L727.422 1395.37 Q727.422 1398.54 728.278 1399.45 Q729.158 1400.35 731.82 1400.35 L736.195 1400.35 L736.195 1403.91 L731.82 1403.91 Q726.89 1403.91 725.015 1402.09 Q723.14 1400.23 723.14 1395.37 L723.14 1381.3 L720.015 1381.3 L720.015 1377.99 L723.14 1377.99 L723.14 1370.63 L727.422 1370.63 Z" fill="#000000" fill-rule="nonzero" fill-opacity="1" /></svg>
