<?xml version="1.0" encoding="utf-8"?>
<svg xmlns="http://www.w3.org/2000/svg" xmlns:xlink="http://www.w3.org/1999/xlink" width="600" height="400" viewBox="0 0 2400 1600">
<defs>
  <clipPath id="clip910">
    <rect x="0" y="0" width="2400" height="1600"/>
  </clipPath>
</defs>
<path clip-path="url(#clip910)" d="M0 1600 L2400 1600 L2400 0 L0 0  Z" fill="#ffffff" fill-rule="evenodd" fill-opacity="1"/>
<defs>
  <clipPath id="clip911">
    <rect x="480" y="0" width="1681" height="1600"/>
  </clipPath>
</defs>
<path clip-path="url(#clip910)" d="M140.51 1486.45 L2352.76 1486.45 L2352.76 47.2441 L140.51 47.2441  Z" fill="#ffffff" fill-rule="evenodd" fill-opacity="1"/>
<defs>
  <clipPath id="clip912">
    <rect x="140" y="47" width="2213" height="1440"/>
  </clipPath>
</defs>
<polyline clip-path="url(#clip912)" style="stroke:#000000; stroke-linecap:round; stroke-linejoin:round; stroke-width:2; stroke-opacity:0.1; fill:none" points="352.791,1486.45 352.791,47.2441 "/>
<polyline clip-path="url(#clip912)" style="stroke:#000000; stroke-linecap:round; stroke-linejoin:round; stroke-width:2; stroke-opacity:0.1; fill:none" points="786.605,1486.45 786.605,47.2441 "/>
<polyline clip-path="url(#clip912)" style="stroke:#000000; stroke-linecap:round; stroke-linejoin:round; stroke-width:2; stroke-opacity:0.1; fill:none" points="1220.42,1486.45 1220.42,47.2441 "/>
<polyline clip-path="url(#clip912)" style="stroke:#000000; stroke-linecap:round; stroke-linejoin:round; stroke-width:2; stroke-opacity:0.1; fill:none" points="1654.23,1486.45 1654.23,47.2441 "/>
<polyline clip-path="url(#clip912)" style="stroke:#000000; stroke-linecap:round; stroke-linejoin:round; stroke-width:2; stroke-opacity:0.1; fill:none" points="2088.05,1486.45 2088.05,47.2441 "/>
<polyline clip-path="url(#clip910)" style="stroke:#000000; stroke-linecap:round; stroke-linejoin:round; stroke-width:4; stroke-opacity:1; fill:none" points="140.51,1486.45 2352.76,1486.45 "/>
<polyline clip-path="url(#clip910)" style="stroke:#000000; stroke-linecap:round; stroke-linejoin:round; stroke-width:4; stroke-opacity:1; fill:none" points="352.791,1486.45 352.791,1467.55 "/>
<polyline clip-path="url(#clip910)" style="stroke:#000000; stroke-linecap:round; stroke-linejoin:round; stroke-width:4; stroke-opacity:1; fill:none" points="786.605,1486.45 786.605,1467.55 "/>
<polyline clip-path="url(#clip910)" style="stroke:#000000; stroke-linecap:round; stroke-linejoin:round; stroke-width:4; stroke-opacity:1; fill:none" points="1220.42,1486.45 1220.42,1467.55 "/>
<polyline clip-path="url(#clip910)" style="stroke:#000000; stroke-linecap:round; stroke-linejoin:round; stroke-width:4; stroke-opacity:1; fill:none" points="1654.23,1486.45 1654.23,1467.55 "/>
<polyline clip-path="url(#clip910)" style="stroke:#000000; stroke-linecap:round; stroke-linejoin:round; stroke-width:4; stroke-opacity:1; fill:none" points="2088.05,1486.45 2088.05,1467.55 "/>
<path clip-path="url(#clip910)" d="M306.854 1532.02 L336.53 1532.02 L336.53 1535.95 L306.854 1535.95 L306.854 1532.02 Z" fill="#000000" fill-rule="nonzero" fill-opacity="1" /><path clip-path="url(#clip910)" d="M360.789 1530.21 Q364.145 1530.93 366.02 1533.2 Q367.918 1535.47 367.918 1538.8 Q367.918 1543.92 364.4 1546.72 Q360.881 1549.52 354.4 1549.52 Q352.224 1549.52 349.909 1549.08 Q347.618 1548.66 345.164 1547.81 L345.164 1543.29 Q347.108 1544.43 349.423 1545.01 Q351.738 1545.58 354.261 1545.58 Q358.659 1545.58 360.951 1543.85 Q363.266 1542.11 363.266 1538.8 Q363.266 1535.75 361.113 1534.03 Q358.983 1532.3 355.164 1532.3 L351.136 1532.3 L351.136 1528.45 L355.349 1528.45 Q358.798 1528.45 360.627 1527.09 Q362.455 1525.7 362.455 1523.11 Q362.455 1520.45 360.557 1519.03 Q358.682 1517.6 355.164 1517.6 Q353.242 1517.6 351.043 1518.01 Q348.844 1518.43 346.205 1519.31 L346.205 1515.14 Q348.868 1514.4 351.182 1514.03 Q353.52 1513.66 355.58 1513.66 Q360.904 1513.66 364.006 1516.09 Q367.108 1518.5 367.108 1522.62 Q367.108 1525.49 365.465 1527.48 Q363.821 1529.45 360.789 1530.21 Z" fill="#000000" fill-rule="nonzero" fill-opacity="1" /><path clip-path="url(#clip910)" d="M386.784 1517.37 Q383.173 1517.37 381.344 1520.93 Q379.539 1524.47 379.539 1531.6 Q379.539 1538.71 381.344 1542.27 Q383.173 1545.82 386.784 1545.82 Q390.418 1545.82 392.224 1542.27 Q394.052 1538.71 394.052 1531.6 Q394.052 1524.47 392.224 1520.93 Q390.418 1517.37 386.784 1517.37 M386.784 1513.66 Q392.594 1513.66 395.65 1518.27 Q398.728 1522.85 398.728 1531.6 Q398.728 1540.33 395.65 1544.94 Q392.594 1549.52 386.784 1549.52 Q380.974 1549.52 377.895 1544.94 Q374.84 1540.33 374.84 1531.6 Q374.84 1522.85 377.895 1518.27 Q380.974 1513.66 386.784 1513.66 Z" fill="#000000" fill-rule="nonzero" fill-opacity="1" /><path clip-path="url(#clip910)" d="M786.605 1517.37 Q782.994 1517.37 781.165 1520.93 Q779.359 1524.47 779.359 1531.6 Q779.359 1538.71 781.165 1542.27 Q782.994 1545.82 786.605 1545.82 Q790.239 1545.82 792.045 1542.27 Q793.873 1538.71 793.873 1531.6 Q793.873 1524.47 792.045 1520.93 Q790.239 1517.37 786.605 1517.37 M786.605 1513.66 Q792.415 1513.66 795.47 1518.27 Q798.549 1522.85 798.549 1531.6 Q798.549 1540.33 795.47 1544.94 Q792.415 1549.52 786.605 1549.52 Q780.795 1549.52 777.716 1544.94 Q774.66 1540.33 774.66 1531.6 Q774.66 1522.85 777.716 1518.27 Q780.795 1513.66 786.605 1513.66 Z" fill="#000000" fill-rule="nonzero" fill-opacity="1" /><path clip-path="url(#clip910)" d="M1209.26 1530.21 Q1212.62 1530.93 1214.49 1533.2 Q1216.39 1535.47 1216.39 1538.8 Q1216.39 1543.92 1212.87 1546.72 Q1209.35 1549.52 1202.87 1549.52 Q1200.7 1549.52 1198.38 1549.08 Q1196.09 1548.66 1193.64 1547.81 L1193.64 1543.29 Q1195.58 1544.43 1197.9 1545.01 Q1200.21 1545.58 1202.73 1545.58 Q1207.13 1545.58 1209.42 1543.85 Q1211.74 1542.11 1211.74 1538.8 Q1211.74 1535.75 1209.59 1534.03 Q1207.46 1532.3 1203.64 1532.3 L1199.61 1532.3 L1199.61 1528.45 L1203.82 1528.45 Q1207.27 1528.45 1209.1 1527.09 Q1210.93 1525.7 1210.93 1523.11 Q1210.93 1520.45 1209.03 1519.03 Q1207.15 1517.6 1203.64 1517.6 Q1201.71 1517.6 1199.52 1518.01 Q1197.32 1518.43 1194.68 1519.31 L1194.68 1515.14 Q1197.34 1514.4 1199.65 1514.03 Q1201.99 1513.66 1204.05 1513.66 Q1209.38 1513.66 1212.48 1516.09 Q1215.58 1518.5 1215.58 1522.62 Q1215.58 1525.49 1213.94 1527.48 Q1212.29 1529.45 1209.26 1530.21 Z" fill="#000000" fill-rule="nonzero" fill-opacity="1" /><path clip-path="url(#clip910)" d="M1235.26 1517.37 Q1231.65 1517.37 1229.82 1520.93 Q1228.01 1524.47 1228.01 1531.6 Q1228.01 1538.71 1229.82 1542.27 Q1231.65 1545.82 1235.26 1545.82 Q1238.89 1545.82 1240.7 1542.27 Q1242.52 1538.71 1242.52 1531.6 Q1242.52 1524.47 1240.7 1520.93 Q1238.89 1517.37 1235.26 1517.37 M1235.26 1513.66 Q1241.07 1513.66 1244.12 1518.27 Q1247.2 1522.85 1247.2 1531.6 Q1247.2 1540.33 1244.12 1544.94 Q1241.07 1549.52 1235.26 1549.52 Q1229.45 1549.52 1226.37 1544.94 Q1223.31 1540.33 1223.31 1531.6 Q1223.31 1522.85 1226.37 1518.27 Q1229.45 1513.66 1235.26 1513.66 Z" fill="#000000" fill-rule="nonzero" fill-opacity="1" /><path clip-path="url(#clip910)" d="M1639.64 1529.7 Q1636.49 1529.7 1634.64 1531.86 Q1632.81 1534.01 1632.81 1537.76 Q1632.81 1541.49 1634.64 1543.66 Q1636.49 1545.82 1639.64 1545.82 Q1642.79 1545.82 1644.61 1543.66 Q1646.47 1541.49 1646.47 1537.76 Q1646.47 1534.01 1644.61 1531.86 Q1642.79 1529.7 1639.64 1529.7 M1648.92 1515.05 L1648.92 1519.31 Q1647.16 1518.48 1645.35 1518.04 Q1643.57 1517.6 1641.81 1517.6 Q1637.18 1517.6 1634.73 1520.72 Q1632.3 1523.85 1631.95 1530.17 Q1633.32 1528.15 1635.38 1527.09 Q1637.44 1526 1639.92 1526 Q1645.12 1526 1648.13 1529.17 Q1651.17 1532.32 1651.17 1537.76 Q1651.17 1543.08 1648.02 1546.3 Q1644.87 1549.52 1639.64 1549.52 Q1633.64 1549.52 1630.47 1544.94 Q1627.3 1540.33 1627.3 1531.6 Q1627.3 1523.41 1631.19 1518.55 Q1635.08 1513.66 1641.63 1513.66 Q1643.39 1513.66 1645.17 1514.01 Q1646.98 1514.36 1648.92 1515.05 Z" fill="#000000" fill-rule="nonzero" fill-opacity="1" /><path clip-path="url(#clip910)" d="M1669.22 1517.37 Q1665.61 1517.37 1663.78 1520.93 Q1661.98 1524.47 1661.98 1531.6 Q1661.98 1538.71 1663.78 1542.27 Q1665.61 1545.82 1669.22 1545.82 Q1672.85 1545.82 1674.66 1542.27 Q1676.49 1538.71 1676.49 1531.6 Q1676.49 1524.47 1674.66 1520.93 Q1672.85 1517.37 1669.22 1517.37 M1669.22 1513.66 Q1675.03 1513.66 1678.09 1518.27 Q1681.16 1522.85 1681.16 1531.6 Q1681.16 1540.33 1678.09 1544.94 Q1675.03 1549.52 1669.22 1549.52 Q1663.41 1549.52 1660.33 1544.94 Q1657.28 1540.33 1657.28 1531.6 Q1657.28 1522.85 1660.33 1518.27 Q1663.41 1513.66 1669.22 1513.66 Z" fill="#000000" fill-rule="nonzero" fill-opacity="1" /><path clip-path="url(#clip910)" d="M2063.17 1548.13 L2063.17 1543.87 Q2064.93 1544.7 2066.74 1545.14 Q2068.54 1545.58 2070.28 1545.58 Q2074.91 1545.58 2077.34 1542.48 Q2079.79 1539.36 2080.14 1533.01 Q2078.8 1535.01 2076.74 1536.07 Q2074.68 1537.13 2072.18 1537.13 Q2066.99 1537.13 2063.96 1534.01 Q2060.95 1530.86 2060.95 1525.42 Q2060.95 1520.1 2064.1 1516.88 Q2067.25 1513.66 2072.48 1513.66 Q2078.47 1513.66 2081.62 1518.27 Q2084.79 1522.85 2084.79 1531.6 Q2084.79 1539.77 2080.9 1544.66 Q2077.04 1549.52 2070.49 1549.52 Q2068.73 1549.52 2066.92 1549.17 Q2065.12 1548.82 2063.17 1548.13 M2072.48 1533.48 Q2075.63 1533.48 2077.46 1531.32 Q2079.31 1529.17 2079.31 1525.42 Q2079.31 1521.7 2077.46 1519.54 Q2075.63 1517.37 2072.48 1517.37 Q2069.33 1517.37 2067.48 1519.54 Q2065.65 1521.7 2065.65 1525.42 Q2065.65 1529.17 2067.48 1531.32 Q2069.33 1533.48 2072.48 1533.48 Z" fill="#000000" fill-rule="nonzero" fill-opacity="1" /><path clip-path="url(#clip910)" d="M2103.2 1517.37 Q2099.59 1517.37 2097.76 1520.93 Q2095.95 1524.47 2095.95 1531.6 Q2095.95 1538.71 2097.76 1542.27 Q2099.59 1545.82 2103.2 1545.82 Q2106.83 1545.82 2108.64 1542.27 Q2110.46 1538.71 2110.46 1531.6 Q2110.46 1524.47 2108.64 1520.93 Q2106.83 1517.37 2103.2 1517.37 M2103.2 1513.66 Q2109.01 1513.66 2112.06 1518.27 Q2115.14 1522.85 2115.14 1531.6 Q2115.14 1540.33 2112.06 1544.94 Q2109.01 1549.52 2103.2 1549.52 Q2097.39 1549.52 2094.31 1544.94 Q2091.25 1540.33 2091.25 1531.6 Q2091.25 1522.85 2094.31 1518.27 Q2097.39 1513.66 2103.2 1513.66 Z" fill="#000000" fill-rule="nonzero" fill-opacity="1" /><polyline clip-path="url(#clip912)" style="stroke:#000000; stroke-linecap:round; stroke-linejoin:round; stroke-width:2; stroke-opacity:0.1; fill:none" points="140.51,1179.65 2352.76,1179.65 "/>
<polyline clip-path="url(#clip912)" style="stroke:#000000; stroke-linecap:round; stroke-linejoin:round; stroke-width:2; stroke-opacity:0.1; fill:none" points="140.51,872.065 2352.76,872.065 "/>
<polyline clip-path="url(#clip912)" style="stroke:#000000; stroke-linecap:round; stroke-linejoin:round; stroke-width:2; stroke-opacity:0.1; fill:none" points="140.51,564.483 2352.76,564.483 "/>
<polyline clip-path="url(#clip912)" style="stroke:#000000; stroke-linecap:round; stroke-linejoin:round; stroke-width:2; stroke-opacity:0.1; fill:none" points="140.51,256.9 2352.76,256.9 "/>
<polyline clip-path="url(#clip910)" style="stroke:#000000; stroke-linecap:round; stroke-linejoin:round; stroke-width:4; stroke-opacity:1; fill:none" points="140.51,1486.45 140.51,47.2441 "/>
<polyline clip-path="url(#clip910)" style="stroke:#000000; stroke-linecap:round; stroke-linejoin:round; stroke-width:4; stroke-opacity:1; fill:none" points="140.51,1179.65 159.408,1179.65 "/>
<polyline clip-path="url(#clip910)" style="stroke:#000000; stroke-linecap:round; stroke-linejoin:round; stroke-width:4; stroke-opacity:1; fill:none" points="140.51,872.065 159.408,872.065 "/>
<polyline clip-path="url(#clip910)" style="stroke:#000000; stroke-linecap:round; stroke-linejoin:round; stroke-width:4; stroke-opacity:1; fill:none" points="140.51,564.483 159.408,564.483 "/>
<polyline clip-path="url(#clip910)" style="stroke:#000000; stroke-linecap:round; stroke-linejoin:round; stroke-width:4; stroke-opacity:1; fill:none" points="140.51,256.9 159.408,256.9 "/>
<path clip-path="url(#clip910)" d="M92.566 1165.45 Q88.9549 1165.45 87.1262 1169.01 Q85.3206 1172.55 85.3206 1179.68 Q85.3206 1186.79 87.1262 1190.35 Q88.9549 1193.89 92.566 1193.89 Q96.2002 1193.89 98.0058 1190.35 Q99.8345 1186.79 99.8345 1179.68 Q99.8345 1172.55 98.0058 1169.01 Q96.2002 1165.45 92.566 1165.45 M92.566 1161.74 Q98.3761 1161.74 101.432 1166.35 Q104.51 1170.93 104.51 1179.68 Q104.51 1188.41 101.432 1193.02 Q98.3761 1197.6 92.566 1197.6 Q86.7558 1197.6 83.6771 1193.02 Q80.6216 1188.41 80.6216 1179.68 Q80.6216 1170.93 83.6771 1166.35 Q86.7558 1161.74 92.566 1161.74 Z" fill="#000000" fill-rule="nonzero" fill-opacity="1" /><path clip-path="url(#clip910)" d="M57.4273 885.41 L73.7466 885.41 L73.7466 889.345 L51.8023 889.345 L51.8023 885.41 Q54.4643 882.655 59.0476 878.025 Q63.6541 873.373 64.8346 872.03 Q67.08 869.507 67.9596 867.771 Q68.8624 866.012 68.8624 864.322 Q68.8624 861.567 66.918 859.831 Q64.9967 858.095 61.8948 858.095 Q59.6958 858.095 57.2421 858.859 Q54.8115 859.623 52.0338 861.174 L52.0338 856.452 Q54.8578 855.317 57.3115 854.739 Q59.7652 854.16 61.8023 854.16 Q67.1726 854.16 70.367 856.845 Q73.5614 859.53 73.5614 864.021 Q73.5614 866.151 72.7513 868.072 Q71.9642 869.97 69.8578 872.563 Q69.2791 873.234 66.1772 876.451 Q63.0754 879.646 57.4273 885.41 Z" fill="#000000" fill-rule="nonzero" fill-opacity="1" /><path clip-path="url(#clip910)" d="M83.6077 854.785 L101.964 854.785 L101.964 858.72 L87.8901 858.72 L87.8901 867.192 Q88.9086 866.845 89.9271 866.683 Q90.9456 866.498 91.9641 866.498 Q97.7511 866.498 101.131 869.669 Q104.51 872.84 104.51 878.257 Q104.51 883.836 101.038 886.937 Q97.566 890.016 91.2465 890.016 Q89.0706 890.016 86.8021 889.646 Q84.5568 889.275 82.1494 888.535 L82.1494 883.836 Q84.2327 884.97 86.4549 885.525 Q88.6771 886.081 91.1539 886.081 Q95.1586 886.081 97.4965 883.975 Q99.8345 881.868 99.8345 878.257 Q99.8345 874.646 97.4965 872.539 Q95.1586 870.433 91.1539 870.433 Q89.279 870.433 87.404 870.85 Q85.5521 871.266 83.6077 872.146 L83.6077 854.785 Z" fill="#000000" fill-rule="nonzero" fill-opacity="1" /><path clip-path="url(#clip910)" d="M52.4505 547.203 L70.8068 547.203 L70.8068 551.138 L56.7328 551.138 L56.7328 559.61 Q57.7513 559.263 58.7699 559.101 Q59.7884 558.916 60.8069 558.916 Q66.5939 558.916 69.9735 562.087 Q73.3531 565.258 73.3531 570.675 Q73.3531 576.253 69.8809 579.355 Q66.4087 582.434 60.0893 582.434 Q57.9134 582.434 55.6449 582.064 Q53.3995 581.693 50.9921 580.952 L50.9921 576.253 Q53.0754 577.388 55.2977 577.943 Q57.5199 578.499 59.9967 578.499 Q64.0013 578.499 66.3393 576.392 Q68.6772 574.286 68.6772 570.675 Q68.6772 567.064 66.3393 564.957 Q64.0013 562.851 59.9967 562.851 Q58.1217 562.851 56.2467 563.267 Q54.3949 563.684 52.4505 564.564 L52.4505 547.203 Z" fill="#000000" fill-rule="nonzero" fill-opacity="1" /><path clip-path="url(#clip910)" d="M92.566 550.281 Q88.9549 550.281 87.1262 553.846 Q85.3206 557.388 85.3206 564.517 Q85.3206 571.624 87.1262 575.189 Q88.9549 578.73 92.566 578.73 Q96.2002 578.73 98.0058 575.189 Q99.8345 571.624 99.8345 564.517 Q99.8345 557.388 98.0058 553.846 Q96.2002 550.281 92.566 550.281 M92.566 546.578 Q98.3761 546.578 101.432 551.184 Q104.51 555.767 104.51 564.517 Q104.51 573.244 101.432 577.851 Q98.3761 582.434 92.566 582.434 Q86.7558 582.434 83.6771 577.851 Q80.6216 573.244 80.6216 564.517 Q80.6216 555.767 83.6771 551.184 Q86.7558 546.578 92.566 546.578 Z" fill="#000000" fill-rule="nonzero" fill-opacity="1" /><path clip-path="url(#clip910)" d="M52.219 239.62 L74.4411 239.62 L74.4411 241.611 L61.8948 274.18 L57.0106 274.18 L68.8161 243.556 L52.219 243.556 L52.219 239.62 Z" fill="#000000" fill-rule="nonzero" fill-opacity="1" /><path clip-path="url(#clip910)" d="M83.6077 239.62 L101.964 239.62 L101.964 243.556 L87.8901 243.556 L87.8901 252.028 Q88.9086 251.681 89.9271 251.519 Q90.9456 251.333 91.9641 251.333 Q97.7511 251.333 101.131 254.505 Q104.51 257.676 104.51 263.093 Q104.51 268.671 101.038 271.773 Q97.566 274.852 91.2465 274.852 Q89.0706 274.852 86.8021 274.481 Q84.5568 274.111 82.1494 273.37 L82.1494 268.671 Q84.2327 269.805 86.4549 270.361 Q88.6771 270.917 91.1539 270.917 Q95.1586 270.917 97.4965 268.81 Q99.8345 266.704 99.8345 263.093 Q99.8345 259.481 97.4965 257.375 Q95.1586 255.268 91.1539 255.268 Q89.279 255.268 87.404 255.685 Q85.5521 256.102 83.6077 256.981 L83.6077 239.62 Z" fill="#000000" fill-rule="nonzero" fill-opacity="1" /><polyline clip-path="url(#clip912)" style="stroke:#0000ff; stroke-linecap:round; stroke-linejoin:round; stroke-width:4; stroke-opacity:1; fill:none" points="203.121,717.165 228.602,722.288 235.609,718.474 252.041,717.441 261.363,716.374 283.639,719.289 303.327,723.691 330.073,725.714 356.996,727.622 387.556,732.213 416.559,732.293 441.39,732.492 476.406,733.881 499.203,739.921 522.086,744.461 556.901,747.979 583.454,749.349 605.009,754.146 632.98,760.609 656.586,768.362 679.534,776.479 702.991,782.935 730.908,789.258 754.192,797.75 780.273,802.994 811.103,811.022 833.468,810.099 867.969,812.233 893.981,821.281 920.044,829.319 950.661,838.564 975.204,847.139 1000.64,854.083 1019.51,864.349 1036.87,876.792 1044.29,882.326 1065.79,884.682 1083.55,886.121 1105.71,886.662 1131.85,890.247 1158.27,900.51 1185.3,911.211 1208.2,916.692 1233.76,919.747 1266.2,921.182 1295.27,922.249 1327.89,926.931 1355.88,932.554 1381.36,935.958 1406.42,938.141 1438.74,937.701 1463.22,937.561 1489.72,936.764 1516.86,933.689 1546.52,928.151 1575.4,929.114 1602.74,927.666 1628.5,928.521 1648.64,921.854 1666.86,918.631 1683.54,911.854 1701.68,905.14 1723.04,904.948 1746.37,903.168 1768.25,905.368 1787.29,908.964 1808.87,915.83 1828.56,927.54 1850.2,940.397 1866.13,951.733 1882.11,968.051 1892.24,982.055 1899.56,996.469 1909.3,1015.3 1921.05,1032.56 1934.04,1051.16 1945.14,1062.15 1963.57,1068.15 1978.84,1071.02 1989.17,1070.12 2011.15,1061.5 2027.18,1055.91 2046.64,1037.12 2058.82,1021.56 2062.66,1001.67 2063.56,983.534 2062.09,961.766 2047.87,946.232 2029.42,938.296 2006.95,929.614 1977.29,933.08 1952.1,933.746 1931.97,930.881 1913.99,927.166 1892,924.292 1871.95,929.564 1850.02,935.819 1833.49,943.764 1810.61,946.025 1785.56,945.19 1758.22,940.934 1736.02,929.636 1713.59,918.596 1682.53,903.296 1656.12,885.676 1633.56,867.463 1618.5,852.592 1607.38,839.414 1590.82,826.609 1576.62,810.447 1565.18,794.524 1557.33,777.946 1557.84,762.346 1571.19,747.872 1585.94,734.502 1607.55,726.443 1627.54,729.95 1651.73,730.725 1670.99,744.158 1693.34,752.007 1707.89,756.075 1730.4,761.608 1753,772.583 1765.45,782.341 1782.73,793.321 1800.98,803.732 1822.99,810.938 1844.3,812.336 1866.04,812.254 1890.42,804.098 1910.95,799.995 1927.02,799.887 1945.7,808.98 1962.56,821.664 1977.29,837.29 1986.84,853.506 1993.7,873.493 2000.64,895.187 2004.63,914.557 2004.54,935.2 2005.63,945.556 2008.7,958.778 2019.84,977.029 2027.06,994.471 2039.43,1009.01 2051.17,1015.92 2063.91,1019.42 2081.57,1013.6 2101.49,1005.24 2114.64,996.328 2130.4,984.073 2139.79,975.751 2142.33,956.783 2133.34,940.978 2113.69,922.595 2098.29,906.258 2077.03,895.363 2048.39,890.282 2020.88,885.333 2003.25,883.688 1979.38,882.657 1959.35,880.919 1941.79,870.417 1926.81,863.564 1904.63,856.942 1888.45,857.07 1866.54,860.195 1845.56,854.442 1824.33,848.979 1804.45,847.742 1780.15,844.022 1761.86,838.805 1744.68,834.652 1722.91,833.107 1694.64,834.98 1668.49,841.92 1653.19,840.478 1649.05,831.804 1645,829.284 1638.34,827.642 1627.57,826.494 1618.49,825.47 1604.24,830.162 1589.74,837.393 1563.27,841.236 1540.94,844.919 1526.21,850.489 1517.44,859.68 1525.17,860.367 1544.67,857.615 1577.07,853.416 1593.43,835.17 1610,820.552 1615.55,804.422 1606.94,787.866 1591.65,769.866 1579.98,759.67 1570.22,738.782 1551.44,728.335 1529.85,739.99 1506.9,741.112 1479.63,735.679 1475.28,716.935 1471.09,697.304 1472.37,676.368 1476.71,660.045 1492.35,637.703 1499.45,618.203 1502.68,595.424 1486.01,583.159 1463.18,576.074 1453.46,572.631 1463.59,559.299 1485.15,548.716 1521.96,547.979 1559.75,532.63 1586.26,516.433 1604.4,493.269 1617.65,472.021 1639.46,463.499 1665.77,466.582 1689.6,471.964 1708.72,489.362 1735.63,501.865 1756.2,519.136 1765.48,540.368 1754.58,557.278 1736.55,572.61 1709.85,585.744 1676.33,591.94 1649.7,590.943 1615.45,576.464 1590.29,560.514 1579.3,539.143 1578.85,517.457 1596.89,503.043 1611.9,493.104 1633.95,478.875 1659.39,470.799 1681.9,454.582 1704.83,441.745 1725.2,441.283 1747.2,426.823 1751.38,412.5 1762.15,395.785 1774.78,389.705 1791.74,372.626 1784.16,358.788 1761.97,347.85 1758.8,345.885 1770.83,341.574 1796.42,335.562 1824.39,340.227 1850.41,343.66 1877.81,349.073 1902.1,366.808 1904.62,385.276 1900.5,397.852 1878.62,409.165 1863.3,430.955 1849.14,458.373 1838.2,491.497 1841.17,511.58 1804.6,513.625 1780.22,529.968 1747.71,536.057 1717.54,552.365 1701.03,578.328 1680.95,595.832 1654.18,589.914 1631.16,578.888 1602.81,569.549 1588.51,556.322 1562.65,541.131 1554.38,533.06 1562.31,511.508 1586.91,503.348 1621.14,497.959 1650.23,500.794 1686.49,508.685 1714.76,523.335 1722.47,544.862 1736.77,565.314 1753.6,569.318 1779.54,574.531 1802.28,585.064 1812.89,587.389 1838.84,579.212 1862.89,571.641 1882.02,562.483 1902.29,565.456 1921.91,580.25 1921.25,598.698 1921.84,619.339 1907.79,651.883 1887.19,677.462 1862.93,697.538 1839.98,726.469 1839.4,751.543 1803.22,762.693 1774.86,767.915 1746.79,782.654 1721.35,796.755 1703.94,815.773 1687.91,836.546 1661.6,859.847 1634.18,868.601 1606.13,859.723 1582.06,854.249 1551.12,850.366 1522.74,841.965 1503.41,820.192 1488.63,800.085 1457.83,777.588 1440.74,757.334 1414.53,740.942 1390.14,738.531 1359.92,744.131 1340.89,741.181 1315.53,733.137 1311.58,707.157 1293.69,699.41 1269.59,702.752 1252.17,712.497 1227.5,729.504 1220.15,736.976 1190.16,739.716 1165.48,745.308 1140.51,737.682 1119.84,719.724 1096.67,707.257 1061.67,702.045 1029.08,692.14 1006.81,687.533 985.646,677.691 965.504,657.05 965.77,643.415 975.096,624.245 990.182,603.823 1002.41,580.863 1009.22,549.302 1015.67,524.466 999.903,504.232 980.472,500.098 969.932,490.181 974.432,476.461 1001.9,475.377 1038.33,478.999 1079.06,477.237 1113.49,472.917 1141.37,454.404 1166.05,429.569 1191.53,409.851 1222.4,403.339 1260.92,406.13 1292.94,418.734 1324.26,433.941 1355.42,446.508 1382.46,458.624 1403.36,472.964 1439.8,479.456 1465.8,494.103 1492.22,516.398 1522.8,543.858 1550.66,558.941 1573.7,571.067 1593.66,581.029 1603.1,570.94 1623.74,562.204 1649.81,547.824 1673.98,538.632 1702.8,527.357 1736.76,526.474 1773,535.19 1801.07,560.152 1807.43,583.23 1803.13,614.117 1784.76,646.249 1783.19,673.939 1775.37,706.143 1775.78,739.832 1792.24,770.7 1823.31,796.331 1863.62,792.827 1885.82,795.237 1915.82,803.296 1935.08,825.722 1960.57,850.897 1982.8,882.236 1995.08,914.286 1998.39,936.959 2015.5,918.174 2051.44,924.794 2078.95,930.813 2091.53,946.893 2092.73,950.631 2093.29,954.857 2097.75,971.964 2101.5,978.088 2114.68,981.511 2131.44,983.576 2163.04,976.802 2190.54,986.73 2203.46,1000.5 2216.22,1022.31 2216.41,1036.42 2219.36,1021.87 2224.61,1002.95 2223.46,976.304 2213.25,949.963 2196.82,926.79 2186.23,904.573 2186.39,883.976 2158.87,862.077 2152.72,831.123 2156.53,805.256 2175.39,793.898 2197.67,797.233 2221.8,806.288 2237.83,818.206 2249.5,838.438 2275.67,860.946 2289.93,882.426 2281.28,909.975 2260.06,931.457 2242.32,951.524 2212.29,963.456 2193.61,982.428 2166.44,995.708 2138.91,1018.47 2118.85,1039.91 2108.84,1063.53 2089.56,1086.44 2072.2,1108.03 2046.33,1124.71 2019.79,1137.42 1987.97,1153.44 1962.48,1172.34 1933.57,1180.42 1904.01,1199.57 1889.52,1217.39 1857.21,1228.48 1838.51,1243.84 1819.67,1262.47 1800.37,1290.19 1793.13,1311.39 1788.78,1332.13 1782.19,1355.64 1804.74,1376.8 1814.04,1391.51 1807.82,1414.68 1799.47,1441.88 1778.5,1445.72 1755.68,1442.26 1734.18,1424.31 1721.51,1398.06 1707.53,1376.23 1683.57,1353.17 1644.06,1326.7 1612.17,1319.32 1577.55,1319.91 1541.79,1326.54 1500.85,1336.32 1472.88,1336.62 1438.6,1326.21 1411.88,1313.44 1392.35,1288.59 1390.44,1254.96 1386.3,1215.25 1365.64,1188.74 1343.48,1167.94 1348.63,1136.23 1346.4,1108.15 1339.12,1084.28 1326.7,1056.53 1307.14,1032.25 1301.78,1004.97 1308.29,971.754 1317.58,938.058 1336.27,908.462 1351.87,878.105 1366.08,845.895 1393.98,823.878 1387.08,796.003 1371.15,771.576 1341.75,748.561 1308.71,746.83 1288.64,732.9 1280.31,707.861 1276.04,675.656 1288.99,647.692 1303.83,626.286 1326.53,617.232 1357.14,606.014 1394.19,600.548 1434.81,596.5 1474.06,596.916 1503.32,588.702 1525.84,561.712 1544.01,540.345 1572.21,528.663 1594.96,522.268 1597.5,506.9 1583.14,492.786 1562.34,478.956 1537.71,466.662 1508.73,439.984 1484.87,414.098 1470.21,387.101 1452.61,366.053 1451.89,348.139 1457.53,328.107 1475.26,318.986 1493.57,328.08 1523.37,331.591 1561.95,335.175 1597.85,344.419 1638.18,350.574 1672.45,353.016 1703.45,367.937 1727.89,374.503 1753.28,366.434 1777.17,356.696 1808.64,351.139 1841.43,350.976 1872.99,345.247 1896.06,360.885 1907.69,378.227 1913.18,370.745 1923.69,353.871 1940.89,336.567 1960.02,326.158 1982.82,311.802 2001.95,303.589 1991.96,304.299 1968.9,291.664 1958.8,275.014 1948.83,245.258 1951.01,215.874 1963.28,200.15 1992.01,190.954 2025.23,193.732 2051.1,198.164 2084.58,201.743 2119.5,213.599 2142.88,237.637 2147.87,267.158 2141.23,293.749 2128.49,301.135 2133.32,317.11 2137.22,339.681 2133.71,371.971 2105.27,388.652 2084.89,423.439 2055.33,446.42 2032.17,472.961 2026.53,507.891 1999.72,513.746 1964.56,516.318 1928.58,527.744 1897.62,542.59 1880.99,569.651 1870.09,600.146 1870.38,617.24 1896.76,621.568 1925.49,634.495 1962.09,648.9 1996.75,672.863 2025.65,687.525 2064.46,693.182 2099.59,693.691 2137.73,690.345 2167.9,694.3 2193.92,693.039 2204.22,678.562 2218.02,659.568 2234.16,638.774 2232.42,613.104 2229.38,594.176 2219.44,570.027 2193.06,549.04 2170.67,530.577 2146.21,515.304 2104.45,517.047 2077.83,524.171 2053.17,542.38 2037.27,562.147 2010.81,587.357 2008.16,617.78 2012.67,648.745 2016.01,677.916 2033.36,704.196 2046.67,729.307 2060.29,762.584 2074.88,792.977 2106.33,805.244 2136.45,823.03 2163.62,851.311 2183.03,874.504 2197.83,905.798 2205.52,930.807 2201.95,942.771 2169.59,944.035 2132,957.296 2104.36,955.823 2089.55,963.421 2068.66,967.837 2046.92,963.176 2015.81,947.186 1984.84,940.771 1948.78,943.26 1904.66,956.009 1865.59,971.394 1827.04,970.516 1783.02,978.923 1745.8,979.906 1706.61,980.492 1674.97,974.932 1640.51,979.209 1608.79,973.532 1575.24,965.942 1538.71,934.917 1511.23,919.74 1472.2,912.732 1438.26,897.385 1409.61,881.652 1378.94,859.85 1352.26,852.295 1326.34,866.88 1301.12,882.915 1272.05,898.011 1233.51,915.851 1195.14,924.282 1166.08,919.917 1138.57,897.053 1119.38,872.246 1102.72,841.791 1076.42,817.289 1065.03,786.453 1060.95,758.151 1063.01,734.474 1049.59,705.744 1026.28,688.806 997.996,676.603 978.73,654.837 969.994,624.163 967.302,600.043 956.058,572.553 965.797,545.602 986.785,518.741 997.996,501.591 1012.74,495.066 1021.16,480.093 1026.13,463.985 1032.08,441.389 1040.23,418.195 1044.76,388.712 1055.69,355.035 1057.57,330.989 1034.88,312.153 1014.54,298.768 987.41,299.72 960.883,307.939 933.79,304.039 900.012,289.731 861.871,275.952 838.739,268.542 816.986,264.63 802.268,247.288 801.232,226.07 815.889,207.925 838.474,189.41 861.283,171.228 906.132,160.284 936.995,146.488 970.721,141.064 1000.17,153.505 1028.71,160.085 1062.46,154.239 1096.73,149.972 1116.1,128.107 1133.06,109.59 1145.23,88.8898 "/>
<polyline clip-path="url(#clip912)" style="stroke:#ff0000; stroke-linecap:round; stroke-linejoin:round; stroke-width:4; stroke-opacity:1; fill:none" points="203.545,717.154 234.505,723.552 237.165,714.657 258.697,715.961 262.138,716.662 289.657,722.358 306.85,725.914 336.147,725.668 361.12,727.686 392.095,734.083 418.846,730.171 440.378,731.463 483.456,734.071 495.458,742.856 520.446,744.861 563.538,747.469 581.642,748.06 601.439,755.307 635.898,762.418 655.709,769.665 678.976,777.625 703.11,782.608 734.142,789.018 753.1,799.242 781.573,801.973 815.222,812.086 831.62,806.008 873.917,811.594 892.036,824.808 919.655,830.517 953.348,840.63 973.217,847.889 1000.87,853.598 1015.56,866.11 1033.73,879.336 1037.19,880.05 1070.03,880.517 1083.85,883.384 1108.93,885.402 1136.61,891.123 1161.72,905.8 1188.56,914.499 1206.72,915.102 1235.27,917.845 1271.61,919.027 1296.7,921.057 1331.33,928.217 1355.59,933.237 1380.68,935.255 1405.79,937.285 1442.98,935.501 1461.16,936.091 1490.57,935.857 1517.36,931.908 1548.45,925.707 1576.19,931.428 1602.97,927.491 1628.09,929.521 1646.13,917.464 1664.31,918.055 1681.5,908.987 1701.34,903.61 1725.62,908.63 1748.92,903.967 1769.74,908.261 1787.08,911.841 1810.55,919.839 1828.9,933.089 1851.55,944.076 1863.79,952.922 1880.51,972.164 1888.46,983.287 1895.59,997.398 1908.03,1018.94 1922.13,1034.51 1935.4,1053.07 1945.02,1058.23 1969.37,1063.27 1979.81,1065.42 1987.6,1063.86 2016.06,1053.92 2027.31,1053.07 2049.41,1026 2055.35,1017.74 2054.11,995.356 2058.19,980.408 2056.96,958.053 2037.74,947.779 2020.36,944.187 1997.68,933.2 1970.08,940.127 1949.24,935.833 1932.7,929.263 1915.34,925.683 1890.21,923.653 1872.21,935.722 1848.9,940.373 1836.01,947.189 1807.41,944.433 1782.28,942.415 1754.52,936.682 1736.18,923.431 1712.72,915.434 1677.07,898.603 1656.13,881.674 1635.2,864.744 1623.84,852.958 1612.48,841.159 1590.74,827.232 1577.61,808.789 1567.09,794.05 1560.89,777.047 1565.07,762.196 1583.91,747.223 1594.16,736.766 1617.42,732.14 1631.24,734.982 1660.58,734.748 1674.55,750.176 1695.31,754.458 1705.7,756.586 1733.39,762.295 1755.14,776.185 1760.42,783.555 1783,794.493 1802.13,804.729 1826.38,809.724 1845.36,807.337 1866.97,808.641 1891.88,798.048 1910.02,798.651 1923.89,801.505 1945.7,815.421 1960.58,827.921 1974.65,843.398 1981.78,857.449 1990.76,878.192 1999.74,898.948 2002.58,915.299 2000.33,936.903 2002.99,940.606 2009.32,957.696 2025.27,979.928 2028.14,996.316 2043.06,1008.88 2053.5,1011.04 2067.41,1013.91 2088.07,1005.53 2104.43,999.428 2113.83,991.887 2131.82,979.805 2136.92,974.551 2136.46,949.206 2121.52,936.657 2103.92,920.417 2093.29,905.628 2069.8,897.631 2041.19,894.887 2016.89,889.88 2006.47,887.727 1977.89,884.996 1960.53,881.415 1942.99,865.2 1929.11,862.345 1901.36,856.624 1889.32,860.438 1862.56,864.375 1844.23,851.149 1823.42,846.868 1804.43,849.242 1776.71,843.534 1763.67,837.702 1746.35,834.122 1720.43,835.081 1690.22,838.305 1666.1,845.92 1657.38,837.825 1657.24,825.202 1649.49,826.752 1638.27,827.588 1623.58,827.711 1616.65,826.284 1599.46,835.327 1586.57,842.119 1553.73,841.651 1538.2,844.739 1528.76,852.244 1521.95,863.453 1537.48,860.352 1556.47,857.965 1587.53,851.764 1596.82,831.636 1611.39,818.902 1615.55,804.028 1605.88,786.311 1589.29,767.179 1580.57,759.096 1569.12,734.76 1549.21,727.514 1526.91,741.773 1505.33,740.469 1474.21,734.059 1475.79,715.542 1470.45,695.623 1472.87,674.166 1477.05,659.353 1494.94,634.845 1499.95,617.092 1503.19,592.731 1484.18,582.568 1460.87,574.657 1453.97,573.243 1465.88,556.941 1490.76,546.421 1530.35,548.304 1568.03,531.067 1586.82,516.192 1604.63,491.783 1617.33,472.577 1637.86,464.322 1666.26,467.028 1690.38,471.962 1710.38,491.635 1739.75,503.889 1757.16,519.932 1766.01,540.467 1754.17,556.756 1734.59,574.596 1705.47,587.367 1671.09,592.817 1649.55,591.525 1610.62,574.153 1588.97,560.336 1580.17,539.79 1579.1,517.73 1597.87,502.868 1611.52,493.197 1637.99,476.809 1661.98,469.267 1685,452.178 1706.35,440.995 1724.39,441.573 1750.83,425.209 1750.68,412.746 1763.32,393.578 1775.3,389.813 1795.64,369.131 1784.33,357.504 1758.43,346.001 1774.67,340.021 1805.47,333.907 1832.18,342.457 1853.66,343.749 1881.19,349.372 1904.66,369.685 1904.02,385.076 1900.75,396.826 1875.19,410.236 1860.93,435.298 1845.85,463.325 1836.82,495.732 1840.45,508.946 1799.21,512.956 1779.66,530.784 1745.32,536.222 1714.56,554.874 1700.22,580.046 1681.45,594.946 1653.83,589.274 1631.33,578.41 1601.1,569.072 1589.8,557.384 1558.65,538.498 1556.03,534.844 1563.52,508.294 1590.97,501.453 1628.75,496.728 1652.87,501.674 1690.8,509.45 1715.92,523.956 1721.31,543.776 1737.06,565.738 1750.87,568.567 1781.95,574.94 1804.46,585.817 1811.37,587.231 1843.11,578.127 1867.12,570.56 1884.2,561.579 1904.92,565.824 1925.83,582.593 1920.93,600.334 1922.11,622.456 1904.56,659.526 1884.17,680.38 1861.12,697.58 1837.42,730.331 1839.4,749.561 1799.01,763.23 1775.76,767.868 1745.74,783.678 1719.98,797.236 1703.79,815.925 1686.75,837.591 1657.66,863.083 1634.36,867.734 1607.48,859.036 1583.23,854.028 1547.75,849.87 1520.89,841.171 1501.67,818.324 1488.57,799.881 1452.09,773.491 1441.62,758.764 1413.88,740.481 1392.3,739.177 1357.84,744.64 1344.01,741.785 1313.76,732.423 1311.01,703.584 1293.75,700.028 1267.04,703.953 1249.85,712.971 1222.34,732.435 1221.49,735.4 1183.56,740.149 1163.73,745.501 1136.97,736.827 1117.08,717.019 1094.63,706.106 1055.83,701.258 1025.65,691.895 1008.41,688.34 986,677.439 963.572,654.001 966.16,645.118 976.471,622.16 993.664,600.63 1003.96,577.709 1009.93,544.527 1015.92,523.882 999.564,504.898 982.37,501.367 971.193,489.703 975.473,474.976 1008.12,475.431 1046.79,480.254 1088.02,476.243 1114.64,472.343 1142.07,453.027 1167.74,427.141 1190.85,410.076 1221.72,403.962 1264.65,406.533 1293.91,418.75 1325.76,434.621 1355.05,446.851 1380.9,458.379 1402.48,472.159 1443.79,480.623 1465.38,494.415 1494.82,519.17 1526.89,547.603 1549.36,558.454 1571.85,569.318 1590.88,579.48 1600.28,572.025 1625.12,561.505 1655.09,545.794 1675.63,537.526 1708.18,525.481 1740.88,525.949 1778.01,536.677 1803.32,563.72 1806.11,579.899 1803.15,616.796 1782.9,650.187 1784.04,672.333 1774.14,707.914 1775.44,742.683 1793.07,771.436 1826.22,797.113 1864.15,792.352 1878.02,795.206 1916.14,803.043 1935.49,825.891 1964.44,853.881 1984.83,886.423 1994.82,916.849 1997.68,933.2 2012.19,920.429 2054.69,926.039 2079.01,931.047 2089.65,945.86 2092.31,949.563 2094.16,956.256 2099.7,976.335 2102.36,980.051 2119.76,983.631 2137.95,984.234 2169.85,975.019 2195.24,989.734 2203.25,1000.87 2218.46,1026.13 2216.02,1035.11 2220.08,1020.13 2225.75,999.182 2222.59,970.122 2210.87,945.614 2194.87,923.406 2185.83,902.639 2187.22,884.024 2153.87,858.273 2151.57,826.346 2157.24,805.516 2174.36,796.473 2195.98,797.79 2222.93,806.464 2237.87,818.964 2250.38,840.396 2280.28,865.421 2290.15,883.187 2278.62,912.297 2258.26,933.311 2242.17,952.073 2209.48,964.266 2193.38,983.041 2164.17,995.959 2135.16,1021.57 2119.02,1040.37 2109.01,1063.63 2087.74,1087.73 2070.75,1109.57 2044.13,1126.26 2019.13,1136.95 1984.68,1155.21 1961.5,1172.65 1933.81,1179.62 1901.98,1201.63 1890.88,1215.24 1853.71,1229.81 1839.11,1242.7 1818.52,1263.91 1798.91,1294.9 1794.76,1309.99 1788.93,1331.13 1781.44,1358.32 1808.71,1379.97 1813.21,1390.5 1805.72,1417.73 1798.21,1444.99 1779.91,1444.38 1754.59,1442.32 1730.8,1421.36 1720.03,1393.5 1706.74,1374.75 1680.33,1350.08 1636.52,1321.8 1614.74,1320.47 1578.18,1319.26 1539.1,1327.1 1495.67,1337.25 1477.4,1336.64 1436.4,1324.92 1413.7,1313.8 1391.77,1286.89 1390.66,1251.57 1384.28,1208.82 1364.17,1188.73 1344.07,1168.64 1349.94,1134.88 1346.31,1108.71 1338.36,1084.84 1325.16,1053.55 1305.97,1030.56 1302.35,1004.46 1309.08,967.871 1318.4,935.021 1337.26,907.338 1353.5,875.977 1366.25,843.927 1393.76,824.402 1386.67,797.753 1371.82,772.667 1338.86,747.014 1309.54,747.26 1291.35,734.083 1280.85,706.795 1276.35,671.349 1290.87,646.127 1303.67,626.836 1324.29,618.543 1361.23,604.222 1399.08,599.485 1440.38,595.462 1476.54,596.643 1500.58,589.065 1527.01,560.115 1543.19,541.574 1572.31,528.828 1592.05,523.513 1596.2,508.761 1582.29,493.443 1558.06,476.01 1532.17,464.469 1500.97,433.157 1481.88,410.581 1470.53,386.491 1454.07,367.581 1451.37,351.5 1458.03,328.026 1475.11,319.118 1494.07,329.195 1529.26,333.292 1572.17,335.851 1602.29,345.115 1644.38,350.615 1672.73,353.309 1704.66,369.156 1725.31,373.376 1752.69,366.56 1777.45,356.102 1811.71,350.688 1844.31,351.144 1875.12,345.029 1895.95,361.7 1906.47,376.255 1911.54,371.087 1924.14,351.943 1943.6,334.214 1960.63,325.294 1986.97,308.98 2003.16,302.989 1992.03,303.813 1963.5,288.704 1957.24,271.96 1944.73,238.482 1952.05,212.153 1962.15,201.868 1994.52,189.934 2029.68,194.006 2050.3,198.214 2088.93,202.987 2125.14,216.533 2144.38,238.987 2147.48,267.444 2140.23,293.798 2131.75,298.264 2133.8,317.26 2137.69,342.839 2131.46,378.777 2099.04,390.773 2080.83,430.537 2054.47,446.9 2032.55,473.524 2026.26,509.61 2003.91,511.259 1962.69,515.282 1925.92,529.566 1896.84,542.324 1881.75,570.437 1869.27,602.241 1870.27,611.813 1897.1,620.45 1929.21,636.42 1969.08,650.864 2002.25,676.455 2024.85,687.356 2067.21,692.917 2099.99,693.384 2141.33,689.349 2165.57,694.332 2191.44,693.372 2202.4,679.974 2219.25,658.406 2236.06,636.838 2232.13,611.038 2229.22,594.835 2218.36,567.645 2187.82,545.794 2170.31,529.75 2145.09,515.233 2096.95,517.841 2080.7,523.869 2053.49,543.235 2037.45,561.776 2007.76,590.024 2007.36,618.063 2013.04,650.495 2016.09,679.297 2034.63,705.023 2046.24,729.347 2061.54,767.007 2075.84,795.059 2106.24,804.458 2137.69,823.491 2165.92,854.459 2182.69,873.652 2198.91,908.483 2204.48,928.537 2202.05,937.494 2167.52,942.993 2126.26,959.726 2105.4,955.42 2092.53,962.236 2069.22,966.899 2044.9,961.879 2009.12,945.023 1981.33,939.29 1943.31,944.076 1895.04,959.369 1862.32,971.562 1825.92,970.368 1779.29,979.694 1746.37,979.214 1705.68,980.297 1677.9,974.564 1639.86,979.337 1608.62,972.89 1573.92,965.717 1532.91,928.808 1512.94,921.524 1471.35,912.936 1439.23,896.831 1410.59,881.452 1376.72,858.691 1355.94,854.41 1326.64,867.279 1299.95,883.839 1269.77,899.71 1227.5,919.396 1192.93,924.883 1168.69,919.875 1135.75,894.112 1120.12,871.942 1100.17,839.424 1074.19,815.15 1064.64,784.822 1061.12,758.924 1063.67,737.43 1048.08,702.796 1026.5,688.93 997.192,676.615 978.22,653.878 969.587,620.746 967.838,601.589 954.924,570.745 966.088,544.884 989.268,515.269 996.137,504.184 1009.01,497.467 1021.02,481.202 1026.14,463.534 1033.84,437.057 1040.66,413.534 1045.75,383.44 1059.4,348.929 1056.8,332.849 1033.62,312.573 1015.6,299.568 986.463,299.814 958.193,309.546 930.776,303.936 895.651,287.425 856.261,273.153 842.567,270.348 818.591,265.439 802.352,246.603 801.542,224.74 817.825,206.383 841.8,186.513 864.908,169.584 915.361,158.24 936.733,147.155 970.918,141.766 999.998,153.897 1027.37,159.483 1064.98,154.795 1099.17,149.419 1116.2,128.183 1132.38,109.876 1145.98,87.9763 "/>
<polyline clip-path="url(#clip912)" style="stroke:#3da44d; stroke-linecap:round; stroke-linejoin:round; stroke-width:4; stroke-opacity:1; fill:none" points="207.848,717.522 222.523,716.39 237.837,715.866 251.2,718.336 268.806,718.246 289.138,720.855 311.656,722.211 337.788,724.004 363.735,725.901 391.246,728.14 417.71,732.547 444.975,734.295 473.66,735.965 500.831,738.711 526.853,742.973 553.67,747.311 579.486,750.654 607.304,755.585 633.479,759.62 656.956,767.766 682.038,774.307 706.964,780.736 732.325,790.168 756.356,797.198 783.385,800.751 811.049,806.535 839.619,810.926 867.96,816.229 894.586,823.325 921.279,830.079 947.391,839.604 973.241,847.137 996.317,853.692 1016.27,862.804 1033.26,872.105 1050.59,878.552 1069.97,880.847 1090.47,885.337 1115,891.115 1139.31,896.893 1163.7,903.041 1187.55,907.878 1212.61,915.022 1240.46,920.17 1269.59,923.023 1299.43,926.029 1326.33,928.417 1354.56,930.78 1383.03,932.734 1410.16,933.738 1438.01,933.699 1466.5,935.254 1494.67,933.739 1522.42,932.755 1550.14,929.584 1576.16,928.461 1602.45,925.723 1626.79,923.573 1646.05,920.917 1666.64,918.037 1685.15,915.899 1704.8,910.817 1724.52,908.843 1745.07,909.118 1765.46,912.027 1787.21,917.893 1807.46,923.971 1828.15,933.558 1845.2,945.462 1863.35,956.437 1877.86,969.922 1889.49,984.796 1901.09,999.479 1910.28,1015.77 1921.76,1030.61 1935.74,1043.34 1949.83,1052.07 1962.89,1059.34 1974.95,1062.21 1991.18,1062.88 2007.42,1055.16 2023.15,1044.36 2037.74,1030.67 2049.96,1014.47 2053.96,997.576 2053.82,980.823 2047.79,962.852 2031.58,949.651 2014.34,940.996 1992.27,936.036 1972.03,932.475 1953.02,931.31 1933.64,930.506 1914.54,928.216 1894.69,929.477 1874,932.528 1852.52,934.329 1830.17,938.842 1805.72,937.91 1782.21,935.548 1756.4,929.698 1731.1,923.112 1706.69,910.676 1684.51,896.339 1663.11,881.215 1643.99,865.746 1625.5,851.789 1607.47,836.994 1592.13,822.638 1582.02,808.09 1573.78,795.353 1570.72,782.865 1572.67,772.434 1580.37,760.282 1593.76,748.5 1612.07,741.077 1630.68,736.785 1652.16,737.585 1673.52,742.064 1691.73,749.9 1712.13,755.765 1731.36,763.441 1749.09,772.878 1766.21,781.721 1785.43,790.872 1805.7,798.463 1826.21,803.393 1845.63,806.642 1866.81,805.901 1887.87,804.919 1905.91,805.82 1923.08,809.517 1938.71,816.885 1953.72,828.788 1967.84,842.453 1981.57,858.383 1991.5,876.392 1998.49,893.975 2002.85,912.459 2007.56,929.03 2011.63,944.388 2017.44,959.273 2026.02,973.3 2034.38,987.021 2044.78,998.557 2057.06,1006.63 2070.23,1005.86 2084.84,1001.68 2097.88,996.404 2109.38,988.94 2119.58,980.347 2129.16,968.582 2131.89,952.253 2124.95,934.821 2106.93,921.568 2087,908.712 2064.75,899.319 2041.88,893.971 2020.17,889.823 2000.03,884.881 1980.37,879.422 1962.29,875.441 1946.43,871.804 1929.93,866.316 1909.55,861.991 1887.31,857.068 1866.58,855.411 1844.34,853.602 1824.27,850.426 1803.54,846.102 1781.54,843.145 1759.71,840.402 1737.19,837.525 1714.25,835.986 1692.57,835.444 1675.03,833.923 1662.8,833.332 1653.28,831.065 1645.41,830.067 1635.59,828.007 1624.58,828.487 1613.24,831.909 1597.69,835.935 1580.25,841.678 1561.45,848.673 1543.86,857.808 1530.97,854.95 1535.31,860.067 1535.14,869.501 1547.16,854.054 1578.03,838.275 1596.06,828.916 1596.05,815.508 1619.2,812.413 1607.07,789.395 1587.89,772.499 1583.17,749.541 1572.77,732.812 1547.3,731.387 1525.29,741.565 1502.22,738.505 1480.12,735.143 1474.76,717.878 1475.76,699.325 1474.53,678.139 1473.42,655.23 1489.34,635.906 1503.19,617.668 1517.6,599.253 1492.63,588.174 1465.52,579.973 1441.27,569.8 1470.11,561.43 1499.01,559.52 1528.84,549.914 1556.41,530.541 1583.18,512.454 1605.41,493.271 1618,473.705 1639.73,466.491 1664.4,477.06 1691.95,470.588 1710.58,491.321 1741.64,494.523 1759.05,517.174 1761.97,542.377 1766.71,568.919 1735.92,581.891 1699.75,587.122 1665.88,585.292 1636.25,593.575 1613.1,573.999 1582.61,562.026 1579.83,538.009 1573.06,514.575 1589.95,499.746 1612.94,495.414 1636.9,483.416 1661.95,469.102 1681.3,449.378 1705.47,439.156 1729.97,434.736 1746.03,427.697 1758.17,414.602 1767.51,403.813 1783.55,388.012 1781.16,370.268 1774.64,357.497 1761.5,347.841 1761.35,351.215 1776.67,349.792 1800.46,337.201 1825.61,341.812 1853.75,342.494 1884.41,343.772 1905.18,358.263 1900.45,380.877 1891.73,400.382 1870.72,417.25 1851.76,435.644 1847.2,460.019 1846.36,486.811 1837.04,508.703 1806.71,511.093 1780.02,527.166 1747.95,533.445 1720.43,552.933 1706.18,579.358 1681.27,592.046 1653.69,597.577 1629.11,584.431 1610.83,567.321 1587.78,555.307 1568.61,541.77 1549.43,524.309 1571.64,510.144 1601.66,510.437 1629.98,501.281 1658.48,505.455 1688.41,506.408 1708.86,527.16 1712.23,551.921 1735.92,557.285 1761.22,566.954 1784.55,567.519 1810.87,574.133 1824.77,589.64 1843.44,573.218 1856.29,582.295 1874.07,574.988 1898.6,571.27 1919.81,580.73 1925.4,606.608 1923.94,635.493 1898.95,660.611 1879.92,685.057 1858.56,705.327 1843.45,726.3 1834.64,751.248 1807.33,763.783 1775.53,766.466 1748.16,778.681 1716.26,790.781 1696.76,814.461 1681.88,838.943 1669.94,865.456 1639.28,865.666 1609.23,860.916 1580.17,856.424 1550.92,848.807 1523.4,832.239 1499.26,820.306 1479.7,800.674 1458.27,783.35 1452.78,758.474 1424.51,735.604 1395.45,735.673 1372.21,741.984 1349.3,733.08 1330.43,720.706 1305.69,710.544 1289.61,700.609 1263.96,697.332 1249.72,712.304 1223.42,724.753 1204.96,740.119 1179.74,745.487 1151.35,746.448 1139.63,723.673 1114.74,703.633 1089.01,702.174 1059.86,700.114 1034.15,701.285 1007.09,690.556 988.391,674.058 960.242,665.105 961.572,642.382 974.667,622.813 986.625,599.878 1000.5,574.386 1011.12,550.335 1015.2,526.458 998.763,507.174 971.171,498.677 962.12,478.341 985.022,479.549 1009.64,477.159 1042.86,479.636 1080.1,480.813 1113.69,476.223 1140.29,453.366 1163.54,428.572 1190.18,408.398 1226.33,405.046 1262.36,405.16 1293.55,419.564 1323.05,436.068 1355.85,443.542 1385.39,454.26 1405.97,472.146 1438.62,478.652 1469.4,491.565 1496.66,512.186 1522.23,534.53 1543.62,558.173 1568.17,577.57 1598.15,584.583 1590.72,570.261 1620.38,564.354 1651.5,546.865 1674.02,529.505 1708.44,526.247 1746.84,523.29 1776.15,539.285 1806.3,556.088 1805.9,584.411 1798.54,614.005 1784.85,643.789 1781.25,675.347 1782.24,708.129 1778.1,739.694 1795.15,769.228 1821.49,791.823 1853.46,794.897 1882.92,800.974 1917.81,805.953 1944.81,828.755 1971.66,853.98 1982.53,884.819 1983.19,913.629 2003.83,933.491 2025.17,917.784 2055.74,916.916 2080.67,926.836 2081.05,943.693 2091.46,944.847 2094.94,959.055 2091.46,972.964 2101.19,975.755 2120.54,980.302 2140.13,980.963 2164.84,978.076 2188.77,990.03 2204.62,1002.99 2212.94,1026.3 2210.99,1040.28 2218.8,1019.41 2229.94,997.831 2225.48,971.703 2210.93,951.734 2196.26,928.398 2184.75,904.646 2174.11,879.095 2155.37,857.455 2147.17,829.975 2153.4,805.172 2173.77,791.016 2196.66,794.301 2223.14,799.195 2236.06,817.549 2252.28,838.892 2272.74,858.109 2286.55,881.503 2278.09,908.799 2259.87,930.839 2238.09,950.963 2211.63,965.216 2187.3,980.971 2162.41,998.966 2145.75,1020.76 2130.02,1043.16 2111.47,1064.08 2090.11,1087.04 2069.18,1109.4 2041.86,1123.13 2017,1138.96 1987.41,1153.26 1960.68,1172.36 1929.43,1181.92 1906.83,1200.82 1885.8,1218.93 1860.06,1232.25 1835.83,1245.77 1817.65,1265.2 1802.03,1286.58 1797.43,1310.38 1785.37,1333.52 1784.91,1356.88 1802.39,1375.85 1814.9,1399.58 1813.41,1422.98 1799.12,1441.89 1778.53,1444.6 1753.27,1439.29 1731.19,1425.59 1726.1,1398.97 1704.43,1377.11 1676.3,1355.07 1648.5,1330.62 1614.97,1319.78 1577.62,1323.11 1540.44,1329.49 1504.33,1328.13 1472.1,1343.93 1436.3,1331.01 1407.03,1309.63 1392.23,1281.12 1389.37,1247.37 1384.9,1215.08 1365.44,1187.7 1345.87,1166.29 1344.77,1137.19 1344.18,1109.26 1341.61,1080.55 1325.28,1054.48 1307.11,1028.98 1299.54,999.763 1310.15,968.566 1317.79,935.94 1338.35,906.827 1355.39,875.913 1371.78,845.975 1395.47,822.419 1389.06,793.405 1374.23,770.342 1345.07,756.41 1313.17,748.602 1285.78,733.38 1280.47,705.841 1277.63,675.249 1281.03,647.714 1299.89,627.163 1329.52,618.315 1362.93,604.255 1400.23,599.198 1437.38,603.68 1473.74,602.009 1499.08,583.754 1519.45,561.914 1540.44,545.363 1569.93,540.521 1595.5,528.489 1602.76,506.682 1582.11,492.543 1556.2,476.282 1528.27,458.831 1505.86,437.736 1488.64,409.978 1472.79,386.813 1459.52,364.026 1445.86,349.68 1453.91,327.763 1478.29,318.938 1501.02,334.827 1532.21,332.674 1567.85,336.174 1602.33,341.86 1639.33,344.147 1672.23,351.463 1698.69,370.564 1726.59,372.497 1751.03,363.766 1778.97,351.673 1810.41,356.337 1842.26,348.285 1870.57,349.007 1889.06,368.321 1901.07,381.877 1909.38,363.439 1923.74,349.266 1943.65,337.526 1964.81,324.314 1988.87,314.118 2009.34,307.765 1984.98,302.208 1963.33,290.778 1953.31,268.184 1938.85,243.912 1944.59,217.179 1964.62,199.285 1992.61,187.005 2025.01,193.18 2057.98,198.437 2095.16,197.625 2124.79,211.083 2144.27,235.976 2149.41,261.864 2142.16,283.272 2124.53,296.593 2130.41,319.873 2135.42,345.82 2127.88,373.237 2102.32,393.876 2085.64,420.781 2061.33,444.999 2044.25,475.003 2031.18,505.917 1997.43,514.035 1961.34,515.834 1928.17,530.568 1897.35,545.377 1875.42,568.386 1864.2,594.585 1867.66,621.978 1899.81,626.698 1934.75,633.592 1968.23,649.572 1998.78,672.043 2030.3,690.385 2065.89,693.217 2100.13,693.047 2133.43,695.168 2162.48,699.264 2186.35,694.194 2205.92,678.187 2225.07,659.924 2239.88,640.365 2236.34,616.264 2224.47,592.988 2215.9,569.183 2196.57,546.328 2171.43,526.571 2143.01,511.976 2109.8,517.3 2079.52,525.62 2052.38,543.742 2029,563.42 2008.32,588.235 2009.32,619.275 2017.79,648.598 2019.44,677.542 2029.9,703.266 2044.6,731.273 2059.5,760.641 2072.56,790.529 2104.04,807.244 2136.61,824.894 2161.48,848.24 2182.83,874.061 2202.08,900.504 2215.87,927.152 2193.44,942.372 2163.41,944.026 2134.96,952.219 2110.35,953.693 2090.4,967.76 2065.61,967.222 2038.15,959.492 2011.47,946.915 1978.38,939.498 1940.37,943.202 1904.25,958.94 1863.03,967.104 1824.14,968.097 1783.41,977.538 1745.82,977.149 1707.87,980.1 1674.3,980.001 1638.47,981.969 1606.97,974.413 1576.98,955.636 1548.18,935.536 1509.8,920.183 1471.65,912.647 1437.38,896.08 1408.77,875.098 1377.28,856.481 1346.59,849.573 1319.63,865.13 1292.67,884.201 1265.06,903.076 1232.51,917.662 1194.93,927.988 1159.92,919.332 1141.44,892.251 1116.49,868.146 1099.62,839.636 1074.68,815.012 1060.06,788.007 1062.51,758.982 1063.24,730.903 1049.65,702.919 1021.06,688.458 994.897,673.132 979.81,648.728 966.242,622.709 964.403,593.963 953.049,567.866 963.323,542.144 977.644,520.564 990.555,502.913 1009.8,499.717 1024.56,479.741 1027.29,457.668 1030.23,433.837 1043.49,411.054 1050.59,384.344 1061.81,358.853 1058.57,333.443 1039.53,312.601 1014.83,298.371 989.165,302.898 957.381,306.011 923.448,300.453 896.216,287.773 865.845,280.096 837.399,275.584 813.838,267.706 799.368,247.156 798.797,220.109 819.875,203.027 847.705,188.895 871.603,168.143 903.923,156.393 935.735,145.794 970.064,140.955 999.271,153.168 1029.54,159.602 1059.24,151.431 1089.98,148.684 1117.43,134.091 1135.73,112.47 1147.29,89.0963 "/>
<path clip-path="url(#clip910)" d="M214.252 1438.47 L760.776 1438.47 L760.776 1231.11 L214.252 1231.11  Z" fill="#ffffff" fill-rule="evenodd" fill-opacity="1"/>
<polyline clip-path="url(#clip910)" style="stroke:#000000; stroke-linecap:round; stroke-linejoin:round; stroke-width:4; stroke-opacity:1; fill:none" points="214.252,1438.47 760.776,1438.47 760.776,1231.11 214.252,1231.11 214.252,1438.47 "/>
<polyline clip-path="url(#clip910)" style="stroke:#0000ff; stroke-linecap:round; stroke-linejoin:round; stroke-width:4; stroke-opacity:1; fill:none" points="238.832,1282.95 386.315,1282.95 "/>
<path clip-path="url(#clip910)" d="M434.924 1286.21 L434.924 1288.29 L415.34 1288.29 Q415.618 1292.69 417.979 1295 Q420.363 1297.29 424.6 1297.29 Q427.053 1297.29 429.345 1296.69 Q431.66 1296.09 433.928 1294.89 L433.928 1298.91 Q431.637 1299.89 429.229 1300.4 Q426.822 1300.91 424.345 1300.91 Q418.141 1300.91 414.507 1297.29 Q410.896 1293.68 410.896 1287.53 Q410.896 1281.16 414.322 1277.43 Q417.771 1273.68 423.604 1273.68 Q428.836 1273.68 431.868 1277.06 Q434.924 1280.42 434.924 1286.21 M430.664 1284.96 Q430.618 1281.46 428.697 1279.38 Q426.799 1277.29 423.65 1277.29 Q420.086 1277.29 417.933 1279.31 Q415.803 1281.32 415.479 1284.98 L430.664 1284.96 Z" fill="#000000" fill-rule="nonzero" fill-opacity="1" /><path clip-path="url(#clip910)" d="M458.442 1275.07 L458.442 1279.1 Q456.636 1278.17 454.692 1277.71 Q452.748 1277.25 450.664 1277.25 Q447.493 1277.25 445.896 1278.22 Q444.322 1279.19 444.322 1281.14 Q444.322 1282.62 445.456 1283.48 Q446.59 1284.31 450.016 1285.07 L451.474 1285.4 Q456.011 1286.37 457.91 1288.15 Q459.831 1289.91 459.831 1293.08 Q459.831 1296.69 456.96 1298.8 Q454.113 1300.91 449.113 1300.91 Q447.03 1300.91 444.761 1300.49 Q442.516 1300.1 440.016 1299.29 L440.016 1294.89 Q442.377 1296.11 444.669 1296.74 Q446.961 1297.34 449.206 1297.34 Q452.215 1297.34 453.836 1296.32 Q455.456 1295.28 455.456 1293.41 Q455.456 1291.67 454.275 1290.74 Q453.118 1289.82 449.16 1288.96 L447.678 1288.61 Q443.72 1287.78 441.961 1286.07 Q440.201 1284.33 440.201 1281.32 Q440.201 1277.67 442.794 1275.67 Q445.386 1273.68 450.155 1273.68 Q452.516 1273.68 454.599 1274.03 Q456.683 1274.38 458.442 1275.07 Z" fill="#000000" fill-rule="nonzero" fill-opacity="1" /><path clip-path="url(#clip910)" d="M470.826 1266.95 L470.826 1274.31 L479.599 1274.31 L479.599 1277.62 L470.826 1277.62 L470.826 1291.69 Q470.826 1294.86 471.683 1295.77 Q472.562 1296.67 475.224 1296.67 L479.599 1296.67 L479.599 1300.23 L475.224 1300.23 Q470.294 1300.23 468.419 1298.41 Q466.544 1296.55 466.544 1291.69 L466.544 1277.62 L463.419 1277.62 L463.419 1274.31 L466.544 1274.31 L466.544 1266.95 L470.826 1266.95 Z" fill="#000000" fill-rule="nonzero" fill-opacity="1" /><path clip-path="url(#clip910)" d="M485.201 1274.31 L489.46 1274.31 L489.46 1300.23 L485.201 1300.23 L485.201 1274.31 M485.201 1264.22 L489.46 1264.22 L489.46 1269.61 L485.201 1269.61 L485.201 1264.22 Z" fill="#000000" fill-rule="nonzero" fill-opacity="1" /><path clip-path="url(#clip910)" d="M518.557 1279.29 Q520.155 1276.42 522.377 1275.05 Q524.599 1273.68 527.608 1273.68 Q531.659 1273.68 533.858 1276.53 Q536.057 1279.35 536.057 1284.59 L536.057 1300.23 L531.775 1300.23 L531.775 1284.73 Q531.775 1281 530.455 1279.19 Q529.136 1277.39 526.428 1277.39 Q523.118 1277.39 521.196 1279.59 Q519.275 1281.79 519.275 1285.58 L519.275 1300.23 L514.993 1300.23 L514.993 1284.73 Q514.993 1280.98 513.673 1279.19 Q512.354 1277.39 509.599 1277.39 Q506.335 1277.39 504.414 1279.61 Q502.493 1281.81 502.493 1285.58 L502.493 1300.23 L498.21 1300.23 L498.21 1274.31 L502.493 1274.31 L502.493 1278.34 Q503.951 1275.95 505.988 1274.82 Q508.025 1273.68 510.826 1273.68 Q513.65 1273.68 515.618 1275.12 Q517.608 1276.55 518.557 1279.29 Z" fill="#000000" fill-rule="nonzero" fill-opacity="1" /><path clip-path="url(#clip910)" d="M556.335 1287.2 Q551.173 1287.2 549.182 1288.38 Q547.191 1289.56 547.191 1292.41 Q547.191 1294.68 548.673 1296.02 Q550.178 1297.34 552.747 1297.34 Q556.289 1297.34 558.418 1294.84 Q560.571 1292.32 560.571 1288.15 L560.571 1287.2 L556.335 1287.2 M564.83 1285.44 L564.83 1300.23 L560.571 1300.23 L560.571 1296.3 Q559.113 1298.66 556.937 1299.79 Q554.761 1300.91 551.613 1300.91 Q547.631 1300.91 545.27 1298.68 Q542.932 1296.44 542.932 1292.69 Q542.932 1288.31 545.849 1286.09 Q548.789 1283.87 554.599 1283.87 L560.571 1283.87 L560.571 1283.45 Q560.571 1280.51 558.627 1278.92 Q556.705 1277.29 553.21 1277.29 Q550.988 1277.29 548.881 1277.83 Q546.775 1278.36 544.83 1279.42 L544.83 1275.49 Q547.168 1274.59 549.367 1274.15 Q551.566 1273.68 553.65 1273.68 Q559.275 1273.68 562.053 1276.6 Q564.83 1279.52 564.83 1285.44 Z" fill="#000000" fill-rule="nonzero" fill-opacity="1" /><path clip-path="url(#clip910)" d="M577.816 1266.95 L577.816 1274.31 L586.589 1274.31 L586.589 1277.62 L577.816 1277.62 L577.816 1291.69 Q577.816 1294.86 578.673 1295.77 Q579.552 1296.67 582.214 1296.67 L586.589 1296.67 L586.589 1300.23 L582.214 1300.23 Q577.284 1300.23 575.409 1298.41 Q573.534 1296.55 573.534 1291.69 L573.534 1277.62 L570.409 1277.62 L570.409 1274.31 L573.534 1274.31 L573.534 1266.95 L577.816 1266.95 Z" fill="#000000" fill-rule="nonzero" fill-opacity="1" /><path clip-path="url(#clip910)" d="M614.367 1286.21 L614.367 1288.29 L594.784 1288.29 Q595.062 1292.69 597.423 1295 Q599.807 1297.29 604.043 1297.29 Q606.497 1297.29 608.788 1296.69 Q611.103 1296.09 613.372 1294.89 L613.372 1298.91 Q611.08 1299.89 608.673 1300.4 Q606.265 1300.91 603.788 1300.91 Q597.585 1300.91 593.95 1297.29 Q590.339 1293.68 590.339 1287.53 Q590.339 1281.16 593.765 1277.43 Q597.214 1273.68 603.048 1273.68 Q608.279 1273.68 611.312 1277.06 Q614.367 1280.42 614.367 1286.21 M610.108 1284.96 Q610.062 1281.46 608.14 1279.38 Q606.242 1277.29 603.094 1277.29 Q599.529 1277.29 597.376 1279.31 Q595.247 1281.32 594.923 1284.98 L610.108 1284.96 Z" fill="#000000" fill-rule="nonzero" fill-opacity="1" /><polyline clip-path="url(#clip910)" style="stroke:#ff0000; stroke-linecap:round; stroke-linejoin:round; stroke-width:4; stroke-opacity:1; fill:none" points="238.832,1334.79 386.315,1334.79 "/>
<path clip-path="url(#clip910)" d="M431.243 1331.13 Q432.84 1328.26 435.062 1326.89 Q437.285 1325.52 440.294 1325.52 Q444.345 1325.52 446.544 1328.37 Q448.743 1331.19 448.743 1336.43 L448.743 1352.07 L444.461 1352.07 L444.461 1336.57 Q444.461 1332.84 443.141 1331.03 Q441.822 1329.23 439.113 1329.23 Q435.803 1329.23 433.882 1331.43 Q431.961 1333.63 431.961 1337.42 L431.961 1352.07 L427.678 1352.07 L427.678 1336.57 Q427.678 1332.82 426.359 1331.03 Q425.039 1329.23 422.285 1329.23 Q419.021 1329.23 417.1 1331.45 Q415.178 1333.65 415.178 1337.42 L415.178 1352.07 L410.896 1352.07 L410.896 1326.15 L415.178 1326.15 L415.178 1330.18 Q416.637 1327.79 418.674 1326.66 Q420.711 1325.52 423.512 1325.52 Q426.336 1325.52 428.303 1326.96 Q430.294 1328.39 431.243 1331.13 Z" fill="#000000" fill-rule="nonzero" fill-opacity="1" /><path clip-path="url(#clip910)" d="M479.414 1338.05 L479.414 1340.13 L459.831 1340.13 Q460.109 1344.53 462.47 1346.84 Q464.854 1349.13 469.09 1349.13 Q471.544 1349.13 473.835 1348.53 Q476.15 1347.93 478.419 1346.73 L478.419 1350.75 Q476.127 1351.73 473.72 1352.24 Q471.312 1352.75 468.835 1352.75 Q462.632 1352.75 458.998 1349.13 Q455.386 1345.52 455.386 1339.37 Q455.386 1333 458.812 1329.27 Q462.261 1325.52 468.095 1325.52 Q473.326 1325.52 476.359 1328.9 Q479.414 1332.26 479.414 1338.05 M475.155 1336.8 Q475.109 1333.3 473.187 1331.22 Q471.289 1329.13 468.141 1329.13 Q464.576 1329.13 462.423 1331.15 Q460.294 1333.16 459.97 1336.82 L475.155 1336.8 Z" fill="#000000" fill-rule="nonzero" fill-opacity="1" /><path clip-path="url(#clip910)" d="M498.187 1339.04 Q493.025 1339.04 491.034 1340.22 Q489.044 1341.4 489.044 1344.25 Q489.044 1346.52 490.525 1347.86 Q492.03 1349.18 494.599 1349.18 Q498.141 1349.18 500.27 1346.68 Q502.423 1344.16 502.423 1339.99 L502.423 1339.04 L498.187 1339.04 M506.682 1337.28 L506.682 1352.07 L502.423 1352.07 L502.423 1348.14 Q500.965 1350.5 498.789 1351.63 Q496.613 1352.75 493.465 1352.75 Q489.483 1352.75 487.122 1350.52 Q484.784 1348.28 484.784 1344.53 Q484.784 1340.15 487.701 1337.93 Q490.641 1335.71 496.451 1335.71 L502.423 1335.71 L502.423 1335.29 Q502.423 1332.35 500.479 1330.76 Q498.557 1329.13 495.062 1329.13 Q492.84 1329.13 490.733 1329.67 Q488.627 1330.2 486.683 1331.26 L486.683 1327.33 Q489.021 1326.43 491.22 1325.99 Q493.419 1325.52 495.502 1325.52 Q501.127 1325.52 503.905 1328.44 Q506.682 1331.36 506.682 1337.28 Z" fill="#000000" fill-rule="nonzero" fill-opacity="1" /><path clip-path="url(#clip910)" d="M531.983 1326.91 L531.983 1330.94 Q530.178 1330.01 528.233 1329.55 Q526.289 1329.09 524.206 1329.09 Q521.034 1329.09 519.437 1330.06 Q517.863 1331.03 517.863 1332.98 Q517.863 1334.46 518.997 1335.32 Q520.131 1336.15 523.557 1336.91 L525.016 1337.24 Q529.553 1338.21 531.451 1339.99 Q533.372 1341.75 533.372 1344.92 Q533.372 1348.53 530.502 1350.64 Q527.655 1352.75 522.655 1352.75 Q520.571 1352.75 518.303 1352.33 Q516.057 1351.94 513.557 1351.13 L513.557 1346.73 Q515.919 1347.95 518.21 1348.58 Q520.502 1349.18 522.747 1349.18 Q525.756 1349.18 527.377 1348.16 Q528.997 1347.12 528.997 1345.25 Q528.997 1343.51 527.817 1342.58 Q526.659 1341.66 522.701 1340.8 L521.219 1340.45 Q517.261 1339.62 515.502 1337.91 Q513.743 1336.17 513.743 1333.16 Q513.743 1329.51 516.335 1327.51 Q518.928 1325.52 523.696 1325.52 Q526.057 1325.52 528.141 1325.87 Q530.224 1326.22 531.983 1326.91 Z" fill="#000000" fill-rule="nonzero" fill-opacity="1" /><path clip-path="url(#clip910)" d="M539.715 1341.84 L539.715 1326.15 L543.974 1326.15 L543.974 1341.68 Q543.974 1345.36 545.409 1347.21 Q546.844 1349.04 549.715 1349.04 Q553.164 1349.04 555.154 1346.84 Q557.168 1344.64 557.168 1340.85 L557.168 1326.15 L561.428 1326.15 L561.428 1352.07 L557.168 1352.07 L557.168 1348.09 Q555.617 1350.45 553.557 1351.61 Q551.52 1352.75 548.812 1352.75 Q544.344 1352.75 542.029 1349.97 Q539.715 1347.19 539.715 1341.84 M550.432 1325.52 L550.432 1325.52 Z" fill="#000000" fill-rule="nonzero" fill-opacity="1" /><path clip-path="url(#clip910)" d="M585.224 1330.13 Q584.506 1329.71 583.65 1329.53 Q582.816 1329.32 581.798 1329.32 Q578.187 1329.32 576.242 1331.68 Q574.321 1334.02 574.321 1338.42 L574.321 1352.07 L570.039 1352.07 L570.039 1326.15 L574.321 1326.15 L574.321 1330.18 Q575.664 1327.82 577.816 1326.68 Q579.969 1325.52 583.048 1325.52 Q583.488 1325.52 584.02 1325.59 Q584.552 1325.64 585.201 1325.76 L585.224 1330.13 Z" fill="#000000" fill-rule="nonzero" fill-opacity="1" /><path clip-path="url(#clip910)" d="M610.825 1338.05 L610.825 1340.13 L591.242 1340.13 Q591.52 1344.53 593.881 1346.84 Q596.265 1349.13 600.501 1349.13 Q602.955 1349.13 605.247 1348.53 Q607.562 1347.93 609.83 1346.73 L609.83 1350.75 Q607.538 1351.73 605.131 1352.24 Q602.724 1352.75 600.247 1352.75 Q594.043 1352.75 590.409 1349.13 Q586.798 1345.52 586.798 1339.37 Q586.798 1333 590.224 1329.27 Q593.673 1325.52 599.506 1325.52 Q604.737 1325.52 607.77 1328.9 Q610.825 1332.26 610.825 1338.05 M606.566 1336.8 Q606.52 1333.3 604.599 1331.22 Q602.7 1329.13 599.552 1329.13 Q595.988 1329.13 593.835 1331.15 Q591.705 1333.16 591.381 1336.82 L606.566 1336.8 Z" fill="#000000" fill-rule="nonzero" fill-opacity="1" /><path clip-path="url(#clip910)" d="M638.001 1331.13 Q639.598 1328.26 641.821 1326.89 Q644.043 1325.52 647.052 1325.52 Q651.103 1325.52 653.302 1328.37 Q655.501 1331.19 655.501 1336.43 L655.501 1352.07 L651.219 1352.07 L651.219 1336.57 Q651.219 1332.84 649.899 1331.03 Q648.58 1329.23 645.872 1329.23 Q642.561 1329.23 640.64 1331.43 Q638.719 1333.63 638.719 1337.42 L638.719 1352.07 L634.436 1352.07 L634.436 1336.57 Q634.436 1332.82 633.117 1331.03 Q631.798 1329.23 629.043 1329.23 Q625.779 1329.23 623.858 1331.45 Q621.936 1333.65 621.936 1337.42 L621.936 1352.07 L617.654 1352.07 L617.654 1326.15 L621.936 1326.15 L621.936 1330.18 Q623.395 1327.79 625.432 1326.66 Q627.469 1325.52 630.27 1325.52 Q633.094 1325.52 635.061 1326.96 Q637.052 1328.39 638.001 1331.13 Z" fill="#000000" fill-rule="nonzero" fill-opacity="1" /><path clip-path="url(#clip910)" d="M686.172 1338.05 L686.172 1340.13 L666.589 1340.13 Q666.867 1344.53 669.228 1346.84 Q671.612 1349.13 675.848 1349.13 Q678.302 1349.13 680.594 1348.53 Q682.908 1347.93 685.177 1346.73 L685.177 1350.75 Q682.885 1351.73 680.478 1352.24 Q678.07 1352.75 675.594 1352.75 Q669.39 1352.75 665.756 1349.13 Q662.145 1345.52 662.145 1339.37 Q662.145 1333 665.57 1329.27 Q669.02 1325.52 674.853 1325.52 Q680.084 1325.52 683.117 1328.9 Q686.172 1332.26 686.172 1338.05 M681.913 1336.8 Q681.867 1333.3 679.945 1331.22 Q678.047 1329.13 674.899 1329.13 Q671.334 1329.13 669.182 1331.15 Q667.052 1333.16 666.728 1336.82 L681.913 1336.8 Z" fill="#000000" fill-rule="nonzero" fill-opacity="1" /><path clip-path="url(#clip910)" d="M714.714 1336.43 L714.714 1352.07 L710.455 1352.07 L710.455 1336.57 Q710.455 1332.88 709.019 1331.06 Q707.584 1329.23 704.714 1329.23 Q701.265 1329.23 699.274 1331.43 Q697.283 1333.63 697.283 1337.42 L697.283 1352.07 L693.001 1352.07 L693.001 1326.15 L697.283 1326.15 L697.283 1330.18 Q698.811 1327.84 700.871 1326.68 Q702.955 1325.52 705.663 1325.52 Q710.13 1325.52 712.422 1328.3 Q714.714 1331.06 714.714 1336.43 Z" fill="#000000" fill-rule="nonzero" fill-opacity="1" /><path clip-path="url(#clip910)" d="M727.422 1318.79 L727.422 1326.15 L736.195 1326.15 L736.195 1329.46 L727.422 1329.46 L727.422 1343.53 Q727.422 1346.7 728.278 1347.61 Q729.158 1348.51 731.82 1348.51 L736.195 1348.51 L736.195 1352.07 L731.82 1352.07 Q726.89 1352.07 725.015 1350.25 Q723.14 1348.39 723.14 1343.53 L723.14 1329.46 L720.015 1329.46 L720.015 1326.15 L723.14 1326.15 L723.14 1318.79 L727.422 1318.79 Z" fill="#000000" fill-rule="nonzero" fill-opacity="1" /><polyline clip-path="url(#clip910)" style="stroke:#3da44d; stroke-linecap:round; stroke-linejoin:round; stroke-width:4; stroke-opacity:1; fill:none" points="238.832,1386.63 386.315,1386.63 "/>
<path clip-path="url(#clip910)" d="M435.549 1377.99 L426.174 1390.6 L436.035 1403.91 L431.012 1403.91 L423.465 1393.73 L415.919 1403.91 L410.896 1403.91 L420.965 1390.35 L411.752 1377.99 L416.776 1377.99 L423.65 1387.22 L430.525 1377.99 L435.549 1377.99 Z" fill="#000000" fill-rule="nonzero" fill-opacity="1" /><path clip-path="url(#clip910)" d="M458.581 1378.75 L458.581 1382.78 Q456.775 1381.85 454.831 1381.39 Q452.886 1380.93 450.803 1380.93 Q447.632 1380.93 446.035 1381.9 Q444.461 1382.87 444.461 1384.82 Q444.461 1386.3 445.595 1387.16 Q446.729 1387.99 450.155 1388.75 L451.613 1389.08 Q456.15 1390.05 458.048 1391.83 Q459.97 1393.59 459.97 1396.76 Q459.97 1400.37 457.099 1402.48 Q454.252 1404.59 449.252 1404.59 Q447.169 1404.59 444.9 1404.17 Q442.655 1403.78 440.155 1402.97 L440.155 1398.57 Q442.516 1399.79 444.808 1400.42 Q447.099 1401.02 449.345 1401.02 Q452.354 1401.02 453.974 1400 Q455.595 1398.96 455.595 1397.09 Q455.595 1395.35 454.414 1394.42 Q453.257 1393.5 449.298 1392.64 L447.817 1392.29 Q443.859 1391.46 442.099 1389.75 Q440.34 1388.01 440.34 1385 Q440.34 1381.35 442.933 1379.35 Q445.525 1377.36 450.294 1377.36 Q452.655 1377.36 454.738 1377.71 Q456.822 1378.06 458.581 1378.75 Z" fill="#000000" fill-rule="nonzero" fill-opacity="1" /></svg>
