<?xml version="1.0" encoding="utf-8"?>
<svg xmlns="http://www.w3.org/2000/svg" xmlns:xlink="http://www.w3.org/1999/xlink" width="600" height="400" viewBox="0 0 2400 1600">
<defs>
  <clipPath id="clip490">
    <rect x="0" y="0" width="2400" height="1600"/>
  </clipPath>
</defs>
<path clip-path="url(#clip490)" d="M0 1600 L2400 1600 L2400 0 L0 0  Z" fill="#ffffff" fill-rule="evenodd" fill-opacity="1"/>
<defs>
  <clipPath id="clip491">
    <rect x="480" y="0" width="1681" height="1600"/>
  </clipPath>
</defs>
<path clip-path="url(#clip490)" d="M177.871 1486.45 L2352.76 1486.45 L2352.76 47.2441 L177.871 47.2441  Z" fill="#ffffff" fill-rule="evenodd" fill-opacity="1"/>
<defs>
  <clipPath id="clip492">
    <rect x="177" y="47" width="2176" height="1440"/>
  </clipPath>
</defs>
<polyline clip-path="url(#clip492)" style="stroke:#000000; stroke-linecap:round; stroke-linejoin:round; stroke-width:2; stroke-opacity:0.1; fill:none" points="386.18,1486.45 386.18,47.2441 "/>
<polyline clip-path="url(#clip492)" style="stroke:#000000; stroke-linecap:round; stroke-linejoin:round; stroke-width:2; stroke-opacity:0.1; fill:none" points="812.754,1486.45 812.754,47.2441 "/>
<polyline clip-path="url(#clip492)" style="stroke:#000000; stroke-linecap:round; stroke-linejoin:round; stroke-width:2; stroke-opacity:0.1; fill:none" points="1239.33,1486.45 1239.33,47.2441 "/>
<polyline clip-path="url(#clip492)" style="stroke:#000000; stroke-linecap:round; stroke-linejoin:round; stroke-width:2; stroke-opacity:0.1; fill:none" points="1665.9,1486.45 1665.9,47.2441 "/>
<polyline clip-path="url(#clip492)" style="stroke:#000000; stroke-linecap:round; stroke-linejoin:round; stroke-width:2; stroke-opacity:0.1; fill:none" points="2092.48,1486.45 2092.48,47.2441 "/>
<polyline clip-path="url(#clip492)" style="stroke:#000000; stroke-linecap:round; stroke-linejoin:round; stroke-width:2; stroke-opacity:0.1; fill:none" points="177.871,1483.56 2352.76,1483.56 "/>
<polyline clip-path="url(#clip492)" style="stroke:#000000; stroke-linecap:round; stroke-linejoin:round; stroke-width:2; stroke-opacity:0.1; fill:none" points="177.871,1176.83 2352.76,1176.83 "/>
<polyline clip-path="url(#clip492)" style="stroke:#000000; stroke-linecap:round; stroke-linejoin:round; stroke-width:2; stroke-opacity:0.1; fill:none" points="177.871,870.103 2352.76,870.103 "/>
<polyline clip-path="url(#clip492)" style="stroke:#000000; stroke-linecap:round; stroke-linejoin:round; stroke-width:2; stroke-opacity:0.1; fill:none" points="177.871,563.375 2352.76,563.375 "/>
<polyline clip-path="url(#clip492)" style="stroke:#000000; stroke-linecap:round; stroke-linejoin:round; stroke-width:2; stroke-opacity:0.1; fill:none" points="177.871,256.647 2352.76,256.647 "/>
<polyline clip-path="url(#clip490)" style="stroke:#000000; stroke-linecap:round; stroke-linejoin:round; stroke-width:4; stroke-opacity:1; fill:none" points="177.871,1486.45 2352.76,1486.45 "/>
<polyline clip-path="url(#clip490)" style="stroke:#000000; stroke-linecap:round; stroke-linejoin:round; stroke-width:4; stroke-opacity:1; fill:none" points="386.18,1486.45 386.18,1467.55 "/>
<polyline clip-path="url(#clip490)" style="stroke:#000000; stroke-linecap:round; stroke-linejoin:round; stroke-width:4; stroke-opacity:1; fill:none" points="812.754,1486.45 812.754,1467.55 "/>
<polyline clip-path="url(#clip490)" style="stroke:#000000; stroke-linecap:round; stroke-linejoin:round; stroke-width:4; stroke-opacity:1; fill:none" points="1239.33,1486.45 1239.33,1467.55 "/>
<polyline clip-path="url(#clip490)" style="stroke:#000000; stroke-linecap:round; stroke-linejoin:round; stroke-width:4; stroke-opacity:1; fill:none" points="1665.9,1486.45 1665.9,1467.55 "/>
<polyline clip-path="url(#clip490)" style="stroke:#000000; stroke-linecap:round; stroke-linejoin:round; stroke-width:4; stroke-opacity:1; fill:none" points="2092.48,1486.45 2092.48,1467.55 "/>
<path clip-path="url(#clip490)" d="M340.243 1532.02 L369.919 1532.02 L369.919 1535.95 L340.243 1535.95 L340.243 1532.02 Z" fill="#000000" fill-rule="nonzero" fill-opacity="1" /><path clip-path="url(#clip490)" d="M394.178 1530.21 Q397.534 1530.93 399.409 1533.2 Q401.307 1535.47 401.307 1538.8 Q401.307 1543.92 397.789 1546.72 Q394.27 1549.52 387.789 1549.52 Q385.613 1549.52 383.298 1549.08 Q381.007 1548.66 378.553 1547.81 L378.553 1543.29 Q380.497 1544.43 382.812 1545.01 Q385.127 1545.58 387.65 1545.58 Q392.048 1545.58 394.34 1543.85 Q396.655 1542.11 396.655 1538.8 Q396.655 1535.75 394.502 1534.03 Q392.372 1532.3 388.553 1532.3 L384.525 1532.3 L384.525 1528.45 L388.738 1528.45 Q392.187 1528.45 394.016 1527.09 Q395.845 1525.7 395.845 1523.11 Q395.845 1520.45 393.946 1519.03 Q392.071 1517.6 388.553 1517.6 Q386.632 1517.6 384.433 1518.01 Q382.234 1518.43 379.595 1519.31 L379.595 1515.14 Q382.257 1514.4 384.571 1514.03 Q386.909 1513.66 388.97 1513.66 Q394.294 1513.66 397.395 1516.09 Q400.497 1518.5 400.497 1522.62 Q400.497 1525.49 398.854 1527.48 Q397.21 1529.45 394.178 1530.21 Z" fill="#000000" fill-rule="nonzero" fill-opacity="1" /><path clip-path="url(#clip490)" d="M420.173 1517.37 Q416.562 1517.37 414.733 1520.93 Q412.928 1524.47 412.928 1531.6 Q412.928 1538.71 414.733 1542.27 Q416.562 1545.82 420.173 1545.82 Q423.807 1545.82 425.613 1542.27 Q427.442 1538.71 427.442 1531.6 Q427.442 1524.47 425.613 1520.93 Q423.807 1517.37 420.173 1517.37 M420.173 1513.66 Q425.983 1513.66 429.039 1518.27 Q432.118 1522.85 432.118 1531.6 Q432.118 1540.33 429.039 1544.94 Q425.983 1549.52 420.173 1549.52 Q414.363 1549.52 411.284 1544.94 Q408.229 1540.33 408.229 1531.6 Q408.229 1522.85 411.284 1518.27 Q414.363 1513.66 420.173 1513.66 Z" fill="#000000" fill-rule="nonzero" fill-opacity="1" /><path clip-path="url(#clip490)" d="M812.754 1517.37 Q809.143 1517.37 807.314 1520.93 Q805.509 1524.47 805.509 1531.6 Q805.509 1538.71 807.314 1542.27 Q809.143 1545.82 812.754 1545.82 Q816.388 1545.82 818.194 1542.27 Q820.023 1538.71 820.023 1531.6 Q820.023 1524.47 818.194 1520.93 Q816.388 1517.37 812.754 1517.37 M812.754 1513.66 Q818.564 1513.66 821.62 1518.27 Q824.699 1522.85 824.699 1531.6 Q824.699 1540.33 821.62 1544.94 Q818.564 1549.52 812.754 1549.52 Q806.944 1549.52 803.865 1544.94 Q800.81 1540.33 800.81 1531.6 Q800.81 1522.85 803.865 1518.27 Q806.944 1513.66 812.754 1513.66 Z" fill="#000000" fill-rule="nonzero" fill-opacity="1" /><path clip-path="url(#clip490)" d="M1228.17 1530.21 Q1231.53 1530.93 1233.4 1533.2 Q1235.3 1535.47 1235.3 1538.8 Q1235.3 1543.92 1231.78 1546.72 Q1228.26 1549.52 1221.78 1549.52 Q1219.61 1549.52 1217.29 1549.08 Q1215 1548.66 1212.55 1547.81 L1212.55 1543.29 Q1214.49 1544.43 1216.81 1545.01 Q1219.12 1545.58 1221.64 1545.58 Q1226.04 1545.58 1228.33 1543.85 Q1230.65 1542.11 1230.65 1538.8 Q1230.65 1535.75 1228.49 1534.03 Q1226.37 1532.3 1222.55 1532.3 L1218.52 1532.3 L1218.52 1528.45 L1222.73 1528.45 Q1226.18 1528.45 1228.01 1527.09 Q1229.84 1525.7 1229.84 1523.11 Q1229.84 1520.45 1227.94 1519.03 Q1226.06 1517.6 1222.55 1517.6 Q1220.62 1517.6 1218.43 1518.01 Q1216.23 1518.43 1213.59 1519.31 L1213.59 1515.14 Q1216.25 1514.4 1218.56 1514.03 Q1220.9 1513.66 1222.96 1513.66 Q1228.29 1513.66 1231.39 1516.09 Q1234.49 1518.5 1234.49 1522.62 Q1234.49 1525.49 1232.85 1527.48 Q1231.2 1529.45 1228.17 1530.21 Z" fill="#000000" fill-rule="nonzero" fill-opacity="1" /><path clip-path="url(#clip490)" d="M1254.17 1517.37 Q1250.55 1517.37 1248.73 1520.93 Q1246.92 1524.47 1246.92 1531.6 Q1246.92 1538.71 1248.73 1542.27 Q1250.55 1545.82 1254.17 1545.82 Q1257.8 1545.82 1259.61 1542.27 Q1261.43 1538.71 1261.43 1531.6 Q1261.43 1524.47 1259.61 1520.93 Q1257.8 1517.37 1254.17 1517.37 M1254.17 1513.66 Q1259.98 1513.66 1263.03 1518.27 Q1266.11 1522.85 1266.11 1531.6 Q1266.11 1540.33 1263.03 1544.94 Q1259.98 1549.52 1254.17 1549.52 Q1248.36 1549.52 1245.28 1544.94 Q1242.22 1540.33 1242.22 1531.6 Q1242.22 1522.85 1245.28 1518.27 Q1248.36 1513.66 1254.17 1513.66 Z" fill="#000000" fill-rule="nonzero" fill-opacity="1" /><path clip-path="url(#clip490)" d="M1651.31 1529.7 Q1648.16 1529.7 1646.31 1531.86 Q1644.48 1534.01 1644.48 1537.76 Q1644.48 1541.49 1646.31 1543.66 Q1648.16 1545.82 1651.31 1545.82 Q1654.46 1545.82 1656.28 1543.66 Q1658.14 1541.49 1658.14 1537.76 Q1658.14 1534.01 1656.28 1531.86 Q1654.46 1529.7 1651.31 1529.7 M1660.59 1515.05 L1660.59 1519.31 Q1658.83 1518.48 1657.02 1518.04 Q1655.24 1517.6 1653.48 1517.6 Q1648.85 1517.6 1646.4 1520.72 Q1643.97 1523.85 1643.62 1530.17 Q1644.99 1528.15 1647.05 1527.09 Q1649.11 1526 1651.59 1526 Q1656.79 1526 1659.8 1529.17 Q1662.83 1532.32 1662.83 1537.76 Q1662.83 1543.08 1659.69 1546.3 Q1656.54 1549.52 1651.31 1549.52 Q1645.31 1549.52 1642.14 1544.94 Q1638.97 1540.33 1638.97 1531.6 Q1638.97 1523.41 1642.86 1518.55 Q1646.75 1513.66 1653.3 1513.66 Q1655.06 1513.66 1656.84 1514.01 Q1658.65 1514.36 1660.59 1515.05 Z" fill="#000000" fill-rule="nonzero" fill-opacity="1" /><path clip-path="url(#clip490)" d="M1680.89 1517.37 Q1677.28 1517.37 1675.45 1520.93 Q1673.65 1524.47 1673.65 1531.6 Q1673.65 1538.71 1675.45 1542.27 Q1677.28 1545.82 1680.89 1545.82 Q1684.52 1545.82 1686.33 1542.27 Q1688.16 1538.71 1688.16 1531.6 Q1688.16 1524.47 1686.33 1520.93 Q1684.52 1517.37 1680.89 1517.37 M1680.89 1513.66 Q1686.7 1513.66 1689.76 1518.27 Q1692.83 1522.85 1692.83 1531.6 Q1692.83 1540.33 1689.76 1544.94 Q1686.7 1549.52 1680.89 1549.52 Q1675.08 1549.52 1672 1544.94 Q1668.95 1540.33 1668.95 1531.6 Q1668.95 1522.85 1672 1518.27 Q1675.08 1513.66 1680.89 1513.66 Z" fill="#000000" fill-rule="nonzero" fill-opacity="1" /><path clip-path="url(#clip490)" d="M2067.6 1548.13 L2067.6 1543.87 Q2069.36 1544.7 2071.17 1545.14 Q2072.97 1545.58 2074.71 1545.58 Q2079.34 1545.58 2081.77 1542.48 Q2084.22 1539.36 2084.57 1533.01 Q2083.23 1535.01 2081.17 1536.07 Q2079.11 1537.13 2076.61 1537.13 Q2071.42 1537.13 2068.39 1534.01 Q2065.38 1530.86 2065.38 1525.42 Q2065.38 1520.1 2068.53 1516.88 Q2071.68 1513.66 2076.91 1513.66 Q2082.9 1513.66 2086.05 1518.27 Q2089.22 1522.85 2089.22 1531.6 Q2089.22 1539.77 2085.33 1544.66 Q2081.47 1549.52 2074.92 1549.52 Q2073.16 1549.52 2071.35 1549.17 Q2069.55 1548.82 2067.6 1548.13 M2076.91 1533.48 Q2080.06 1533.48 2081.89 1531.32 Q2083.74 1529.17 2083.74 1525.42 Q2083.74 1521.7 2081.89 1519.54 Q2080.06 1517.37 2076.91 1517.37 Q2073.76 1517.37 2071.91 1519.54 Q2070.08 1521.7 2070.08 1525.42 Q2070.08 1529.17 2071.91 1531.32 Q2073.76 1533.48 2076.91 1533.48 Z" fill="#000000" fill-rule="nonzero" fill-opacity="1" /><path clip-path="url(#clip490)" d="M2107.63 1517.37 Q2104.02 1517.37 2102.19 1520.93 Q2100.38 1524.47 2100.38 1531.6 Q2100.38 1538.71 2102.19 1542.27 Q2104.02 1545.82 2107.63 1545.82 Q2111.26 1545.82 2113.07 1542.27 Q2114.89 1538.71 2114.89 1531.6 Q2114.89 1524.47 2113.07 1520.93 Q2111.26 1517.37 2107.63 1517.37 M2107.63 1513.66 Q2113.44 1513.66 2116.49 1518.27 Q2119.57 1522.85 2119.57 1531.6 Q2119.57 1540.33 2116.49 1544.94 Q2113.44 1549.52 2107.63 1549.52 Q2101.82 1549.52 2098.74 1544.94 Q2095.68 1540.33 2095.68 1531.6 Q2095.68 1522.85 2098.74 1518.27 Q2101.82 1513.66 2107.63 1513.66 Z" fill="#000000" fill-rule="nonzero" fill-opacity="1" /><polyline clip-path="url(#clip490)" style="stroke:#000000; stroke-linecap:round; stroke-linejoin:round; stroke-width:4; stroke-opacity:1; fill:none" points="177.871,1486.45 177.871,47.2441 "/>
<polyline clip-path="url(#clip490)" style="stroke:#000000; stroke-linecap:round; stroke-linejoin:round; stroke-width:4; stroke-opacity:1; fill:none" points="177.871,1483.56 196.769,1483.56 "/>
<polyline clip-path="url(#clip490)" style="stroke:#000000; stroke-linecap:round; stroke-linejoin:round; stroke-width:4; stroke-opacity:1; fill:none" points="177.871,1176.83 196.769,1176.83 "/>
<polyline clip-path="url(#clip490)" style="stroke:#000000; stroke-linecap:round; stroke-linejoin:round; stroke-width:4; stroke-opacity:1; fill:none" points="177.871,870.103 196.769,870.103 "/>
<polyline clip-path="url(#clip490)" style="stroke:#000000; stroke-linecap:round; stroke-linejoin:round; stroke-width:4; stroke-opacity:1; fill:none" points="177.871,563.375 196.769,563.375 "/>
<polyline clip-path="url(#clip490)" style="stroke:#000000; stroke-linecap:round; stroke-linejoin:round; stroke-width:4; stroke-opacity:1; fill:none" points="177.871,256.647 196.769,256.647 "/>
<path clip-path="url(#clip490)" d="M50.9921 1484.01 L80.6679 1484.01 L80.6679 1487.95 L50.9921 1487.95 L50.9921 1484.01 Z" fill="#000000" fill-rule="nonzero" fill-opacity="1" /><path clip-path="url(#clip490)" d="M94.7882 1496.9 L111.108 1496.9 L111.108 1500.84 L89.1632 1500.84 L89.1632 1496.9 Q91.8252 1494.15 96.4085 1489.52 Q101.015 1484.87 102.196 1483.52 Q104.441 1481 105.321 1479.27 Q106.223 1477.51 106.223 1475.82 Q106.223 1473.06 104.279 1471.33 Q102.358 1469.59 99.2558 1469.59 Q97.0567 1469.59 94.603 1470.35 Q92.1725 1471.12 89.3947 1472.67 L89.3947 1467.95 Q92.2188 1466.81 94.6724 1466.23 Q97.1261 1465.65 99.1632 1465.65 Q104.534 1465.65 107.728 1468.34 Q110.922 1471.02 110.922 1475.52 Q110.922 1477.65 110.112 1479.57 Q109.325 1481.46 107.219 1484.06 Q106.64 1484.73 103.538 1487.95 Q100.436 1491.14 94.7882 1496.9 Z" fill="#000000" fill-rule="nonzero" fill-opacity="1" /><path clip-path="url(#clip490)" d="M120.969 1466.28 L139.325 1466.28 L139.325 1470.21 L125.251 1470.21 L125.251 1478.69 Q126.27 1478.34 127.288 1478.18 Q128.307 1477.99 129.325 1477.99 Q135.112 1477.99 138.492 1481.16 Q141.871 1484.34 141.871 1489.75 Q141.871 1495.33 138.399 1498.43 Q134.927 1501.51 128.607 1501.51 Q126.432 1501.51 124.163 1501.14 Q121.918 1500.77 119.51 1500.03 L119.51 1495.33 Q121.594 1496.46 123.816 1497.02 Q126.038 1497.58 128.515 1497.58 Q132.519 1497.58 134.857 1495.47 Q137.195 1493.36 137.195 1489.75 Q137.195 1486.14 134.857 1484.03 Q132.519 1481.93 128.515 1481.93 Q126.64 1481.93 124.765 1482.34 Q122.913 1482.76 120.969 1483.64 L120.969 1466.28 Z" fill="#000000" fill-rule="nonzero" fill-opacity="1" /><path clip-path="url(#clip490)" d="M129.927 1162.63 Q126.316 1162.63 124.487 1166.19 Q122.682 1169.74 122.682 1176.87 Q122.682 1183.97 124.487 1187.54 Q126.316 1191.08 129.927 1191.08 Q133.561 1191.08 135.367 1187.54 Q137.195 1183.97 137.195 1176.87 Q137.195 1169.74 135.367 1166.19 Q133.561 1162.63 129.927 1162.63 M129.927 1158.93 Q135.737 1158.93 138.793 1163.53 Q141.871 1168.12 141.871 1176.87 Q141.871 1185.59 138.793 1190.2 Q135.737 1194.78 129.927 1194.78 Q124.117 1194.78 121.038 1190.2 Q117.983 1185.59 117.983 1176.87 Q117.983 1168.12 121.038 1163.53 Q124.117 1158.93 129.927 1158.93 Z" fill="#000000" fill-rule="nonzero" fill-opacity="1" /><path clip-path="url(#clip490)" d="M94.7882 883.448 L111.108 883.448 L111.108 887.383 L89.1632 887.383 L89.1632 883.448 Q91.8252 880.693 96.4085 876.064 Q101.015 871.411 102.196 870.069 Q104.441 867.545 105.321 865.809 Q106.223 864.05 106.223 862.36 Q106.223 859.606 104.279 857.87 Q102.358 856.133 99.2558 856.133 Q97.0567 856.133 94.603 856.897 Q92.1725 857.661 89.3947 859.212 L89.3947 854.49 Q92.2188 853.356 94.6724 852.777 Q97.1261 852.198 99.1632 852.198 Q104.534 852.198 107.728 854.883 Q110.922 857.569 110.922 862.059 Q110.922 864.189 110.112 866.11 Q109.325 868.008 107.219 870.601 Q106.64 871.272 103.538 874.49 Q100.436 877.684 94.7882 883.448 Z" fill="#000000" fill-rule="nonzero" fill-opacity="1" /><path clip-path="url(#clip490)" d="M120.969 852.823 L139.325 852.823 L139.325 856.758 L125.251 856.758 L125.251 865.231 Q126.27 864.883 127.288 864.721 Q128.307 864.536 129.325 864.536 Q135.112 864.536 138.492 867.707 Q141.871 870.879 141.871 876.295 Q141.871 881.874 138.399 884.976 Q134.927 888.055 128.607 888.055 Q126.432 888.055 124.163 887.684 Q121.918 887.314 119.51 886.573 L119.51 881.874 Q121.594 883.008 123.816 883.564 Q126.038 884.119 128.515 884.119 Q132.519 884.119 134.857 882.013 Q137.195 879.906 137.195 876.295 Q137.195 872.684 134.857 870.578 Q132.519 868.471 128.515 868.471 Q126.64 868.471 124.765 868.888 Q122.913 869.305 120.969 870.184 L120.969 852.823 Z" fill="#000000" fill-rule="nonzero" fill-opacity="1" /><path clip-path="url(#clip490)" d="M89.8114 546.095 L108.168 546.095 L108.168 550.03 L94.0937 550.03 L94.0937 558.502 Q95.1123 558.155 96.1308 557.993 Q97.1493 557.808 98.1678 557.808 Q103.955 557.808 107.334 560.979 Q110.714 564.151 110.714 569.567 Q110.714 575.146 107.242 578.248 Q103.77 581.326 97.4502 581.326 Q95.2743 581.326 93.0058 580.956 Q90.7604 580.586 88.353 579.845 L88.353 575.146 Q90.4364 576.28 92.6586 576.836 Q94.8808 577.391 97.3576 577.391 Q101.362 577.391 103.7 575.285 Q106.038 573.178 106.038 569.567 Q106.038 565.956 103.7 563.85 Q101.362 561.743 97.3576 561.743 Q95.4826 561.743 93.6076 562.16 Q91.7558 562.576 89.8114 563.456 L89.8114 546.095 Z" fill="#000000" fill-rule="nonzero" fill-opacity="1" /><path clip-path="url(#clip490)" d="M129.927 549.174 Q126.316 549.174 124.487 552.739 Q122.682 556.28 122.682 563.41 Q122.682 570.516 124.487 574.081 Q126.316 577.623 129.927 577.623 Q133.561 577.623 135.367 574.081 Q137.195 570.516 137.195 563.41 Q137.195 556.28 135.367 552.739 Q133.561 549.174 129.927 549.174 M129.927 545.47 Q135.737 545.47 138.793 550.077 Q141.871 554.66 141.871 563.41 Q141.871 572.137 138.793 576.743 Q135.737 581.326 129.927 581.326 Q124.117 581.326 121.038 576.743 Q117.983 572.137 117.983 563.41 Q117.983 554.66 121.038 550.077 Q124.117 545.47 129.927 545.47 Z" fill="#000000" fill-rule="nonzero" fill-opacity="1" /><path clip-path="url(#clip490)" d="M89.5799 239.367 L111.802 239.367 L111.802 241.358 L99.2558 273.927 L94.3715 273.927 L106.177 243.302 L89.5799 243.302 L89.5799 239.367 Z" fill="#000000" fill-rule="nonzero" fill-opacity="1" /><path clip-path="url(#clip490)" d="M120.969 239.367 L139.325 239.367 L139.325 243.302 L125.251 243.302 L125.251 251.774 Q126.27 251.427 127.288 251.265 Q128.307 251.08 129.325 251.08 Q135.112 251.08 138.492 254.251 Q141.871 257.422 141.871 262.839 Q141.871 268.418 138.399 271.519 Q134.927 274.598 128.607 274.598 Q126.432 274.598 124.163 274.228 Q121.918 273.857 119.51 273.117 L119.51 268.418 Q121.594 269.552 123.816 270.107 Q126.038 270.663 128.515 270.663 Q132.519 270.663 134.857 268.557 Q137.195 266.45 137.195 262.839 Q137.195 259.228 134.857 257.121 Q132.519 255.015 128.515 255.015 Q126.64 255.015 124.765 255.432 Q122.913 255.848 120.969 256.728 L120.969 239.367 Z" fill="#000000" fill-rule="nonzero" fill-opacity="1" /><polyline clip-path="url(#clip492)" style="stroke:#0000ff; stroke-linecap:round; stroke-linejoin:round; stroke-width:4; stroke-opacity:1; fill:none" points="240.046,714.669 266.82,720.291 270.285,715.896 281.121,714.282 288.561,713.822 310.018,717.086 332.035,722.237 359.62,724.55 387.464,726.625 418.226,730.593 446.967,730.818 471.653,731.198 506.371,732.549 528.942,737.952 552.12,742.227 586.264,745.892 611.524,747.668 633.023,752.356 661.775,759.276 685.375,766.375 708.124,774.215 731.33,780.341 758.293,786.821 780.356,795.384 805.352,801.33 835.621,809.376 858.144,809.47 891.526,811.256 917.175,819.165 943.214,826.784 973.632,835.989 997.587,844.547 1023.19,851.595 1042.28,861.601 1059.53,873.421 1067.34,879.495 1087.82,883.129 1104.39,884.867 1125.65,886.321 1151.31,889.605 1177.18,898.995 1203.92,909.055 1225.73,914.172 1251.26,917.865 1282.95,919.619 1311.59,920.605 1343.38,924.843 1371.68,929.85 1397.66,933.441 1422.35,936.061 1453.34,935.962 1477.46,935.466 1504.15,935.069 1530.61,932.624 1559.19,927.333 1587.28,927.422 1614.39,925.649 1640.56,926.153 1661.3,920.091 1678.9,916.86 1695.93,909.824 1713.57,903.528 1734.26,903.233 1756.27,901.215 1777.74,902.563 1796.96,905.596 1817.47,912.429 1837.14,924.011 1858.23,936.547 1874.13,947.67 1889.93,964.079 1900.04,978.278 1907.66,992.678 1916.98,1012.11 1928.32,1029.62 1941.2,1048.23 1951.93,1059.2 1969.86,1065.95 1984.17,1068.97 1994.05,1068.46 2014.92,1062.08 2031.41,1056.75 2052.35,1038.21 2064.68,1023.13 2068.28,1003.31 2070.78,984.559 2069.64,961.793 2054.26,945.406 2038.02,937.571 2015.98,927.354 1986.39,931.532 1961.31,931.054 1941.38,926.814 1923.05,924.582 1900.39,922.741 1880.21,927.836 1858.62,933.866 1842.22,940.715 1820.07,943.153 1796.09,943.359 1768.97,939.547 1746.16,928.988 1723.77,918.616 1694.37,904.249 1669.06,886.16 1646.25,867.749 1630.71,852.245 1619.51,838.725 1603.73,825.133 1589.22,808.787 1577.75,792.938 1570.1,777.016 1569.51,761.526 1580.66,746.182 1594.07,733.629 1616.24,726.578 1635.13,725.256 1661.08,725.181 1681.22,737.315 1703.04,745.744 1717.26,751.263 1739.54,758.18 1762.58,770.344 1774.6,780.076 1791.92,790.728 1810.04,801.115 1831.01,808.482 1850.95,810.766 1871.85,811.707 1895.72,804.846 1916.51,800.392 1932.93,799.702 1951.49,806.77 1967.45,817.494 1982.31,832.077 1992.84,848.079 2001.14,867.967 2008.53,890.185 2012.72,910.214 2012.57,931.185 2012.11,942.742 2015.16,956.148 2025.08,974.937 2032.14,992.792 2043.84,1006.84 2055.22,1014.19 2067.32,1017.76 2083.91,1014.21 2103.11,1007.02 2117.7,997.996 2134.49,985.672 2143.86,976.858 2148.19,958.257 2138,940.157 2122.03,922.323 2105.57,904.402 2084.79,893.09 2058.47,888.458 2031.09,884.006 2012.92,880.742 1988.34,879.044 1967.52,877.612 1949.24,868.631 1934.03,862.456 1912.42,855.958 1896.35,855.448 1874.78,857.478 1853.98,852.501 1833.57,847.44 1814.17,845.823 1790.2,842.358 1772.67,837.751 1755.75,833.064 1733.47,831.656 1706.5,832.934 1680.87,838.783 1665.58,837.874 1660.56,830.678 1655.78,827.09 1648.76,825.17 1638.36,824.114 1629.92,823.368 1616.5,827.333 1602.86,833.324 1578.37,837.973 1556.79,842.106 1541.85,847.827 1532.57,856.458 1538.76,858.297 1550.16,856.188 1579.58,853.088 1601.18,838.72 1619.32,822.492 1626.62,805.573 1618.9,788.886 1605.73,769.833 1595.11,758.775 1584.37,737.474 1566.4,727.147 1545.83,737.677 1524.71,738.699 1496.08,734.031 1490.91,716.394 1486.93,697.219 1488.06,676.928 1491.27,660.411 1505.27,638.461 1512.86,618.679 1516.62,595.517 1500.35,582.737 1478.5,574.164 1469.39,572.375 1478.26,559.634 1497.74,548.881 1533.14,546.582 1572.21,534.535 1597.62,517.018 1615.1,493.14 1630.51,472.489 1650.23,462.41 1675.31,464.968 1699.17,471.214 1718.43,488.515 1745.67,501.079 1766.71,517.501 1775.7,537.792 1765.34,555.521 1746.57,571.873 1720.31,585.625 1687.37,591.625 1662.6,591.022 1629.4,575.829 1603.61,559.831 1592.04,539.429 1591.16,518.097 1608.29,502.834 1623.44,492.859 1647.11,478.199 1671.28,469.258 1693.12,453.986 1714.65,441.425 1733.71,440.947 1755.98,427.442 1761.01,412.434 1772,394.993 1783.7,389.707 1801.47,372.913 1794.79,358.929 1773.96,348.829 1770.08,346.585 1780.22,342.221 1802.62,336.149 1832.39,340.084 1857.93,343.314 1883.32,347.57 1907.97,364.59 1912.05,382.599 1908.77,395.484 1887.69,407.26 1871.74,429.74 1856.74,456.917 1847.31,488.43 1849.19,509.035 1814.14,513.342 1791.09,528.251 1758.95,534.424 1729.32,551.486 1711.76,576.765 1693.07,594.225 1665.92,589.405 1643.28,578.038 1616.05,568.683 1601.76,556.619 1576.03,540.542 1567.65,532.748 1575.44,511.074 1598.87,501.974 1632.7,497.042 1661.42,499.742 1696.21,507.527 1723.72,521.1 1732.99,542.501 1747.13,564.248 1762.65,568.316 1788.18,572.863 1810.64,583.189 1821.25,586.316 1846.16,578.854 1870.35,570.904 1889.77,562.097 1909.96,564.287 1929.78,578.456 1928.58,596.376 1928.72,617.19 1916.63,648.935 1897.12,674.104 1872.32,693.553 1850.41,723.554 1847.13,748.867 1811.88,761.4 1784.6,767.022 1756.87,780.941 1730.98,795.509 1714.35,814.459 1697.85,836.016 1673.08,858.763 1645.89,866.646 1619.48,857.687 1596.32,851.687 1565.21,848.188 1536.81,839.78 1517.58,818.522 1503.33,799.093 1473.57,776.738 1456.74,757.028 1432.49,739.421 1407.67,737.18 1377.74,742.718 1359.7,741.058 1333.36,732.758 1328.81,706.578 1312.27,697.298 1288.2,702.271 1270.88,710.683 1245.8,727.014 1241.59,733.082 1211.03,737.607 1187.32,743.077 1162.49,736.691 1141.55,719.484 1119.05,706.307 1084.77,701.143 1053.18,691.743 1030.88,686.429 1009.45,676.598 988.964,655.617 988.462,642.808 997.738,623.215 1013.52,602.471 1025.09,579.803 1031.81,549.319 1037.96,525.238 1023.38,505.249 1004.95,500.204 994.57,488.771 998.194,476.262 1022.8,474.393 1058.34,477.321 1099.94,475.183 1133.23,472.214 1160.23,454.429 1184.43,430.42 1208.5,410.552 1239.41,402.536 1277.72,405.03 1309.61,416.402 1340.65,432.848 1370.28,446.252 1397.66,456.843 1419.31,470.789 1455.21,479.122 1480.66,493.148 1507.12,515.086 1537.05,542.092 1563.77,558.106 1586.89,569.546 1605.9,580.157 1615.83,570.761 1636.09,560.919 1661.85,546.966 1685.21,537.104 1713.88,525.915 1745.88,524.6 1782.12,533.994 1809.3,559.419 1816.95,580.342 1813.02,611.886 1795.8,643.883 1793.48,671.592 1784.26,703.679 1784.28,737.108 1800.74,767.484 1831.53,793.313 1870.74,792.29 1892.18,793.061 1923.01,801.075 1942.11,822.529 1967.37,848.267 1988.73,879.315 2000.66,912.397 2004.58,934.946 2020.57,918.244 2055.48,922.108 2082.99,928.044 2095.46,943.567 2097.29,948.691 2097.57,952.836 2101.94,968.613 2104.95,975.135 2117.56,979.012 2133.48,981.034 2162.05,975.013 2189.96,983.629 2203.92,996.488 2217.7,1018.24 2217.92,1031.28 2221.46,1019.01 2225.2,1003.38 2224.95,976.734 2215.5,949.688 2200.48,925.855 2189.16,903.008 2189.17,882.584 2163.1,860.994 2155.09,829.244 2158.92,803.674 2178.02,793.291 2199.4,795.634 2223.48,803.841 2239,816.577 2250.57,835.517 2275.29,858.035 2289.21,878.687 2281.38,906.156 2262.67,928.517 2244.8,948.168 2215.77,961.337 2196.91,980.782 2169.44,993.007 2142.53,1015.58 2123.61,1036.51 2111.94,1060.65 2093.44,1083.27 2076.37,1105.97 2050.68,1122.79 2025.5,1134.89 1994.98,1150.44 1969.56,1168.46 1941.62,1176.84 1912.81,1195.82 1897.06,1212.82 1865.05,1225.64 1846.5,1239.84 1828.35,1259.85 1811.65,1287.14 1803.01,1307.68 1798.13,1327.95 1790.94,1352.7 1813.27,1373.67 1822.82,1388.53 1817.52,1411.56 1809.33,1436.4 1791.15,1441.43 1768.11,1439.57 1746.28,1421.64 1733.16,1395.51 1719.5,1373.51 1695.25,1350.88 1656.74,1325.2 1625.95,1316.59 1592.14,1315.43 1555.48,1322.19 1515.21,1332.39 1487.64,1333.94 1453.17,1322.84 1427.69,1309.8 1408.4,1285.57 1405.04,1252.85 1400.51,1213.16 1381.98,1186.36 1360.34,1165.28 1364.63,1133.89 1362.94,1106.21 1356.18,1081.27 1344.78,1053.09 1324.3,1029.09 1320.04,1002.99 1325.52,969.186 1334.5,935.639 1353.35,907.35 1369.58,876.298 1381.85,844.478 1407.74,822.304 1404.1,794.668 1389.07,770.864 1359.34,747.801 1326.76,744.453 1307.01,731.751 1298.52,706.952 1294.81,675.47 1307.72,647.199 1321.13,624.714 1342.76,615.96 1373.69,605.337 1409.56,598.869 1449.83,594.439 1487.77,594.891 1516.41,587.914 1540.04,561.424 1557.22,539.546 1585.43,527.34 1606.45,521.412 1609.18,506.392 1596.32,492.787 1575.86,478.148 1550.8,466.476 1522.75,439.183 1499.36,414.09 1485.73,387.741 1469.69,366.979 1465.03,349.022 1472.19,327.467 1489.06,318.059 1506.63,327.517 1536.53,331.354 1574.59,335.088 1609.31,342.894 1649.71,348.946 1683.31,352.907 1714.24,367.947 1738.69,374.338 1763.52,366.828 1786.8,355.157 1817.68,349.779 1849.64,350.499 1880.18,344.932 1903.24,359.592 1914.4,376.623 1918.91,370.687 1928.81,354.811 1946.29,338.184 1964.11,326.822 1987.45,311.928 2006.77,303.572 1997.82,304.443 1976.64,292.021 1966.39,276.641 1955.14,245.955 1957.8,216.888 1968.28,201.051 1996.51,190.803 2028.4,192.697 2053.27,197.892 2087.74,202.653 2123.48,214.12 2146.45,237.333 2151.62,265.64 2143.92,292.398 2133.96,300.926 2137.04,316.987 2140.83,339.663 2136.96,372.104 2108.6,388.35 2088.61,422.178 2061.92,444.8 2039,471.054 2031.83,506.052 2007.01,513.488 1972.03,514.544 1937.16,527.408 1906.02,540.366 1890.21,567.785 1878.54,598.303 1877.34,614.886 1904.2,619.9 1933.15,633.103 1969.3,646.911 2003.3,670.977 2031.14,686.191 2068.91,691.26 2103.49,692.394 2141.64,688.872 2170.95,692.047 2196.36,691.554 2207.53,676.827 2220.75,658.115 2235.97,638.013 2235.67,612.329 2231.91,594.385 2222.15,570.839 2197.01,550.057 2176.4,530.736 2151.08,514.808 2109.43,516.111 2084.25,522.765 2060.12,540.585 2042.99,559.513 2018.03,584.463 2012.26,613.918 2017.7,645.426 2022.01,675.748 2038.09,702.445 2051.03,726.782 2065.41,760.818 2079.74,791.811 2111.03,804.033 2139.78,821.041 2165.02,849.261 2186.09,872.499 2200.48,904.098 2208.19,929.139 2205.49,940.163 2173.58,941.4 2136.65,954.93 2109.5,953.421 2094.78,959.788 2074.08,964.466 2051.98,959.959 2021.85,945.58 1992.09,938.317 1956.6,940.268 1914.21,953.547 1875.54,967.536 1836.04,968.076 1792.8,975.655 1756.21,976.587 1717.91,978.088 1686.98,972.358 1652.15,976.87 1620.53,971.927 1587.71,963.958 1553.57,933.445 1525.38,918.633 1488.9,911.034 1455.66,895.903 1426.49,879.85 1395.72,858.181 1370.21,850.232 1342.47,863.519 1318.48,881.223 1290.23,896.332 1252.39,914.425 1214.81,923.027 1186.16,918.016 1158.28,895.031 1140.45,871.608 1122.01,841.721 1097.78,815.53 1087.18,785.25 1082.24,756.736 1084.77,733.392 1071.19,703.922 1049.34,686.595 1020.63,675.545 1001.57,653.886 994.457,622.801 991.162,599.307 978.873,571.835 988.035,545.39 1008.98,518.457 1019.85,501.376 1033.46,495.414 1043.42,481.166 1047.92,464.392 1053.8,440.547 1061.7,415.816 1066.85,387.359 1077.54,353.925 1078.79,331.323 1058.56,312.89 1038.47,298.749 1010.51,298.71 983.422,308.435 956.411,305.111 924.754,290.586 888.231,275.375 866.11,269.594 843.422,265.414 828.915,247.577 827.055,226.451 841.287,208.308 863.072,189.39 886.109,171.115 929.6,159.782 958.85,148.443 991.852,142.737 1022.08,152.552 1050.07,159.726 1083.4,155.609 1117.82,149.546 1137.79,129.052 1153.11,109.478 1165.91,87.9763 "/>
<polyline clip-path="url(#clip492)" style="stroke:#ff0000; stroke-linecap:round; stroke-linejoin:round; stroke-width:4; stroke-opacity:1; fill:none" points="239.425,715.623 269.868,722.003 272.484,713.132 293.656,714.433 297.041,715.132 324.1,720.813 341.006,724.358 369.814,724.113 394.37,726.125 424.828,732.505 451.133,728.603 472.306,729.892 514.664,732.493 526.466,741.253 551.037,743.253 593.41,745.854 611.212,746.443 630.678,753.669 664.562,760.761 684.043,767.987 706.921,775.925 730.653,780.894 761.167,787.287 779.808,797.482 807.806,800.206 840.894,810.291 857.018,804.23 898.609,809.8 916.426,822.978 943.584,828.67 976.715,838.756 996.252,845.994 1023.44,851.687 1037.89,864.165 1055.76,877.354 1059.16,878.066 1091.45,878.532 1105.04,881.391 1129.7,883.403 1156.91,889.108 1181.61,903.745 1208,912.419 1225.86,913.021 1253.93,915.757 1289.66,916.935 1314.33,918.959 1348.39,926.1 1372.25,931.105 1396.92,933.117 1421.6,935.142 1458.17,933.363 1476.05,933.952 1504.97,933.719 1531.32,929.78 1561.89,923.597 1589.16,929.302 1615.5,925.376 1640.19,927.4 1657.94,915.376 1675.81,915.965 1692.72,906.923 1712.23,901.561 1736.1,906.567 1759.01,901.917 1779.48,906.199 1796.53,909.769 1819.61,917.744 1837.65,930.958 1859.92,941.914 1871.97,950.736 1888.4,969.925 1896.22,981.016 1903.23,995.089 1915.46,1016.57 1929.33,1032.09 1942.38,1050.61 1951.83,1055.75 1975.78,1060.78 1986.05,1062.92 1993.71,1061.37 2021.69,1051.45 2032.76,1050.61 2054.48,1023.61 2060.33,1015.37 2059.1,993.052 2063.11,978.145 2061.9,955.852 2043.01,945.607 2025.92,942.025 2003.62,931.069 1976.48,937.976 1955.99,933.694 1939.72,927.142 1922.66,923.572 1897.94,921.548 1880.24,933.584 1857.32,938.221 1844.65,945.019 1816.53,942.27 1791.81,940.258 1764.51,934.541 1746.48,921.327 1723.42,913.352 1688.35,896.568 1667.76,879.685 1647.19,862.803 1636.01,851.049 1624.85,839.283 1603.47,825.395 1590.55,807.003 1580.22,792.305 1574.12,775.349 1578.23,760.54 1596.75,745.608 1606.84,735.18 1629.7,730.566 1643.29,733.401 1672.14,733.168 1685.88,748.553 1706.3,752.823 1716.51,754.945 1743.74,760.638 1765.12,774.49 1770.31,781.839 1792.52,792.746 1811.34,802.954 1835.18,807.936 1853.84,805.555 1875.09,806.856 1899.58,796.292 1917.42,796.893 1931.06,799.74 1952.5,813.616 1967.13,826.082 1980.97,841.516 1987.98,855.528 1996.81,876.213 2005.64,896.911 2008.44,913.217 2006.22,934.762 2008.84,938.455 2015.07,955.496 2030.75,977.667 2033.57,994.009 2048.24,1006.54 2058.51,1008.7 2072.19,1011.55 2092.5,1003.2 2108.59,997.113 2117.83,989.592 2135.52,977.544 2140.54,972.305 2140.08,947.031 2125.39,934.516 2108.09,918.321 2097.64,903.573 2074.53,895.598 2046.41,892.862 2022.5,887.869 2012.27,885.722 1984.15,882.998 1967.09,879.428 1949.84,863.257 1936.19,860.411 1908.91,854.705 1897.06,858.509 1870.76,862.435 1852.73,849.246 1832.27,844.976 1813.6,847.344 1786.34,841.651 1773.51,835.836 1756.48,832.265 1731,833.222 1701.29,836.437 1677.58,844.031 1669,835.958 1668.86,823.37 1661.24,824.916 1650.2,825.75 1635.76,825.873 1628.95,824.45 1612.04,833.468 1599.37,840.24 1567.08,839.774 1551.81,842.854 1542.52,850.338 1535.83,861.515 1551.1,858.423 1569.77,856.043 1600.31,849.859 1609.45,829.787 1623.77,817.088 1627.87,802.255 1618.35,784.587 1602.04,765.509 1593.47,757.448 1582.21,733.18 1562.63,725.953 1540.7,740.173 1519.49,738.873 1488.89,732.48 1490.44,714.015 1485.19,694.152 1487.57,672.754 1491.68,657.982 1509.26,633.542 1514.2,615.838 1517.38,591.545 1498.69,581.411 1475.76,573.522 1468.98,572.111 1480.7,555.854 1505.15,545.364 1544.09,547.241 1581.14,530.052 1599.61,515.219 1617.13,490.877 1629.61,471.725 1649.81,463.492 1677.73,466.191 1701.45,471.111 1721.11,490.73 1749.99,502.95 1767.11,518.949 1775.82,539.426 1764.17,555.67 1744.92,573.46 1716.28,586.196 1682.48,591.631 1661.3,590.343 1623.02,573.019 1601.73,559.24 1593.07,538.751 1592.02,516.752 1610.48,501.931 1623.9,492.288 1649.93,475.945 1673.52,468.424 1696.16,451.382 1717.15,440.23 1734.89,440.806 1760.89,424.489 1760.74,412.06 1773.17,392.945 1784.94,389.19 1804.95,368.566 1793.83,356.972 1768.37,345.5 1784.33,339.537 1814.62,333.439 1840.88,341.966 1862,343.255 1889.07,348.862 1912.15,369.118 1911.52,384.467 1908.31,396.184 1883.17,409.557 1869.15,434.549 1854.32,462.498 1845.45,494.815 1849.02,507.992 1808.46,511.992 1789.24,529.77 1755.47,535.193 1725.22,553.793 1711.12,578.896 1692.66,593.753 1665.5,588.097 1643.38,577.264 1613.66,567.951 1602.54,556.296 1571.91,537.463 1569.34,533.819 1576.71,507.342 1603.69,500.52 1640.85,495.809 1664.57,500.741 1701.86,508.495 1726.56,522.961 1731.86,542.726 1747.35,564.627 1760.93,567.448 1791.49,573.804 1813.62,584.65 1820.42,586.061 1851.63,576.982 1875.24,569.436 1892.03,560.48 1912.4,564.712 1932.97,581.435 1928.15,599.127 1929.31,621.187 1912.05,658.154 1892,678.95 1869.34,696.102 1846.03,728.763 1847.98,747.94 1808.26,761.571 1785.4,766.196 1755.88,781.962 1730.56,795.482 1714.63,814.119 1697.88,835.725 1669.27,861.147 1646.36,865.785 1619.93,857.11 1596.09,852.117 1561.19,847.97 1534.79,839.295 1515.89,816.512 1503.01,798.12 1467.13,771.803 1456.84,757.117 1429.57,738.885 1408.34,737.584 1374.45,743.032 1360.86,740.185 1331.11,730.849 1328.41,702.09 1311.43,698.544 1285.17,702.458 1268.26,711.451 1241.22,730.861 1240.38,733.818 1203.08,738.554 1183.59,743.891 1157.27,735.241 1137.72,715.488 1115.64,704.605 1077.49,699.771 1047.81,690.434 1030.86,686.888 1008.82,676.018 986.768,652.645 989.313,643.787 999.451,620.893 1016.36,599.422 1026.48,576.564 1032.35,543.475 1038.24,522.887 1022.16,503.956 1005.25,500.434 994.261,488.803 998.47,474.117 1030.58,474.571 1068.6,479.381 1109.14,475.381 1135.32,471.492 1162.29,452.229 1187.53,426.415 1210.25,409.398 1240.61,403.3 1282.82,405.864 1311.59,418.047 1342.91,433.874 1371.71,446.07 1397.13,457.566 1418.35,471.308 1458.97,479.749 1480.2,493.502 1509.15,518.188 1540.69,546.542 1562.78,557.363 1584.9,568.197 1603.61,578.331 1612.85,570.896 1637.28,560.406 1666.74,544.738 1686.95,536.493 1718.95,524.482 1751.1,524.948 1787.62,535.647 1812.5,562.614 1815.25,578.748 1812.33,615.543 1792.42,648.842 1793.55,670.926 1783.81,706.409 1785.09,741.081 1802.42,769.754 1835.02,795.36 1872.32,790.612 1885.96,793.458 1923.44,801.273 1942.46,824.057 1970.93,851.969 1990.98,884.421 2000.81,914.763 2003.62,931.069 2017.88,918.333 2059.67,923.928 2083.59,928.921 2094.05,943.693 2096.67,947.386 2098.49,954.061 2103.94,974.084 2106.55,977.789 2123.66,981.36 2141.55,981.961 2172.91,972.771 2197.88,987.445 2205.76,998.549 2220.72,1023.74 2218.32,1032.69 2222.31,1017.76 2227.88,996.868 2224.77,967.888 2213.25,943.448 2197.51,921.302 2188.63,900.592 2189.99,882.029 2157.2,856.35 2154.94,824.511 2160.51,803.74 2177.35,794.722 2198.61,796.035 2225.11,804.684 2239.8,817.15 2252.1,838.523 2281.51,863.478 2291.2,881.195 2279.87,910.223 2259.85,931.179 2244.02,949.889 2211.89,962.048 2196.05,980.771 2167.33,993.653 2138.8,1019.2 2122.93,1037.94 2113.09,1061.13 2092.18,1085.17 2075.47,1106.95 2049.29,1123.6 2024.71,1134.26 1990.84,1152.46 1968.04,1169.85 1940.81,1176.81 1909.52,1198.76 1898.6,1212.33 1862.05,1226.85 1847.69,1239.71 1827.45,1260.86 1808.16,1291.77 1804.08,1306.81 1798.35,1327.89 1790.99,1355 1817.81,1376.6 1822.23,1387.1 1814.86,1414.25 1807.48,1441.44 1789.48,1440.83 1764.58,1438.78 1741.19,1417.87 1730.6,1390.09 1717.53,1371.4 1691.57,1346.8 1648.48,1318.59 1627.07,1317.26 1591.12,1316.06 1552.69,1323.88 1509.99,1334 1492.02,1333.39 1451.71,1321.71 1429.38,1310.61 1407.82,1283.78 1406.73,1248.56 1400.46,1205.92 1380.68,1185.89 1360.92,1165.85 1366.69,1132.18 1363.12,1106.09 1355.3,1082.29 1342.32,1051.09 1323.45,1028.15 1319.89,1002.13 1326.51,965.643 1335.68,932.884 1354.22,905.279 1370.19,874.005 1382.73,842.044 1409.77,822.573 1402.81,795.998 1388.2,770.981 1355.8,745.4 1326.96,745.645 1309.07,732.505 1298.75,705.292 1294.33,669.945 1308.6,644.793 1321.19,625.555 1341.46,617.286 1377.79,603.004 1415.01,598.281 1455.62,594.269 1491.18,595.447 1514.81,587.889 1540.8,559.02 1556.71,540.53 1585.35,527.819 1604.76,522.519 1608.84,507.808 1595.16,492.533 1571.33,475.148 1545.88,463.639 1515.19,432.414 1496.42,409.901 1485.26,385.878 1469.08,367.02 1466.42,350.984 1472.98,327.575 1489.77,318.692 1508.41,328.74 1543.02,332.826 1585.21,335.378 1614.83,344.617 1656.22,350.101 1684.09,352.788 1715.48,368.59 1735.79,372.799 1762.72,366.002 1787.06,355.573 1820.75,350.174 1852.81,350.628 1883.1,344.531 1903.59,361.155 1913.93,375.67 1918.92,370.517 1931.3,351.426 1950.44,333.746 1967.19,324.851 1993.08,308.582 2009.01,302.607 1998.06,303.429 1970.01,288.363 1963.85,271.664 1951.55,238.28 1958.75,212.024 1968.68,201.767 2000.51,189.866 2035.09,193.927 2055.36,198.123 2093.34,202.884 2128.95,216.392 2147.87,238.783 2150.92,267.162 2143.79,293.442 2135.45,297.896 2137.47,316.839 2141.29,342.347 2135.16,378.185 2103.28,390.147 2085.38,429.801 2059.46,446.119 2037.9,472.669 2031.72,508.655 2009.75,510.299 1969.21,514.311 1933.05,528.555 1904.46,541.278 1889.63,569.313 1877.35,601.029 1878.34,610.574 1904.71,619.187 1936.29,635.113 1975.5,649.517 2008.11,675.036 2030.34,685.907 2071.99,691.452 2104.22,691.919 2144.87,687.894 2168.7,692.863 2194.14,691.906 2204.92,678.545 2221.49,657.038 2238.02,635.53 2234.16,609.801 2231.3,593.643 2220.62,566.528 2190.59,544.738 2173.37,528.739 2148.57,514.262 2101.23,516.863 2085.25,522.875 2058.49,542.186 2042.72,560.676 2013.53,588.846 2013.13,616.807 2018.72,649.149 2021.72,677.871 2039.95,703.525 2051.37,727.781 2066.41,765.337 2080.48,793.311 2110.36,802.684 2141.29,821.665 2169.05,852.546 2185.54,871.686 2201.49,906.42 2206.97,926.419 2204.58,935.35 2170.62,940.835 2130.06,957.521 2109.54,953.227 2096.88,960.024 2073.96,964.674 2050.05,959.668 2014.87,942.859 1987.54,937.142 1950.16,941.914 1902.69,957.165 1870.52,969.324 1834.73,968.134 1788.87,977.434 1756.51,976.955 1716.49,978.035 1689.18,972.317 1651.77,977.078 1621.05,970.649 1586.93,963.496 1546.6,926.688 1526.97,919.425 1486.07,910.861 1454.49,894.801 1426.32,879.465 1393.02,856.767 1372.59,852.497 1343.78,865.331 1317.53,881.845 1287.86,897.672 1246.3,917.303 1212.3,922.775 1188.47,917.781 1156.08,892.09 1140.7,869.981 1121.08,837.553 1095.54,813.346 1086.15,783.103 1082.69,757.276 1085.19,735.842 1069.86,701.305 1048.65,687.477 1019.83,675.196 1001.17,652.523 992.683,619.482 990.963,600.379 978.265,569.62 989.242,543.83 1012.04,514.299 1018.79,503.244 1031.44,496.545 1043.26,480.325 1048.29,462.707 1055.86,436.304 1062.57,412.845 1067.58,382.835 1081,348.42 1078.44,332.384 1055.65,312.165 1037.93,299.196 1009.28,299.442 981.478,309.146 954.519,303.552 919.981,287.087 881.248,272.854 867.782,270.057 844.207,265.162 828.239,246.378 827.443,224.575 843.453,206.27 867.029,186.455 889.751,169.573 939.361,158.261 960.377,147.206 993.991,141.832 1022.59,153.93 1049.5,159.5 1086.49,154.825 1120.1,149.464 1136.85,128.287 1152.76,110.031 1166.13,88.1918 "/>
<polyline clip-path="url(#clip492)" style="stroke:#3da44d; stroke-linecap:round; stroke-linejoin:round; stroke-width:4; stroke-opacity:1; fill:none" points="248.928,716.079 262.477,715.953 276.005,718.398 292.878,718.333 312.038,717.243 331.069,720.863 350.898,722.747 372.584,723.669 394.957,727.055 422.274,729.5 447.539,730.018 475.228,731.011 502.088,736.4 529.304,738.798 556.153,741.868 584.193,745.617 610.821,748.682 636.404,752.576 661.327,760.656 688.367,766.137 713.353,773.885 737.687,782.68 761.91,790.325 787.43,794.765 813.605,800.264 837.836,805.063 863.137,810.723 888.811,816.677 913.995,825.014 941.746,831.732 969.558,837.556 993.015,844.727 1015.91,852.751 1038.04,863.473 1056.7,870.533 1074.98,878.135 1092.51,882.62 1113.21,887.418 1135.19,891.486 1158.57,897.767 1184.22,903.275 1208.58,907.289 1233.78,910.398 1259.43,916.603 1286.81,918.299 1316.01,922.949 1345.04,926.205 1372.94,928.824 1399.9,932.814 1426.61,934.201 1453.73,931.55 1481.48,930.853 1507.17,929.86 1534.47,930.13 1562.13,927.817 1587.53,927.105 1610.78,924.299 1634.01,922.588 1657.04,920.104 1678.31,917.771 1697.19,912.191 1717.86,909.355 1737.71,907.742 1757.33,907.454 1778.47,909.884 1797.74,916.119 1817.76,923.187 1836.18,931.251 1851.42,942.351 1867.48,953.627 1883.03,966.899 1895.71,979.976 1908.53,993.686 1920.34,1010.2 1933.64,1024.04 1944.65,1036.18 1958.49,1045.39 1972.32,1050.94 1986.11,1052.42 1999.58,1051.18 2012.24,1045.57 2024.01,1036.93 2035.24,1025.57 2048.02,1014.7 2049.9,998.848 2050.3,983.462 2044.28,968.622 2033.91,954.968 2021.11,943.204 2005.49,935.074 1986.77,931.9 1964.64,928.86 1943.55,927.273 1922.43,927.592 1901.71,928.754 1879.31,931.922 1857.82,932.572 1836.12,934.095 1812.62,935.868 1789.53,933.303 1764.95,926.935 1740.65,919.483 1718.15,908.639 1695.08,896.617 1674.95,883.158 1657.01,867.776 1639.73,852.869 1623.71,839.057 1610.42,823.291 1600.1,808.263 1593.47,792.528 1588.78,778.094 1591.2,764.99 1597.77,752.11 1610.37,743.397 1627.42,738.574 1646.6,737.657 1666.24,739.79 1684.34,744.176 1702.37,749.4 1719.35,757.51 1738.58,765.322 1758.37,773.038 1777.08,782.273 1796.42,790.306 1815.86,798.76 1835.6,802.462 1856.29,803.952 1875.47,807.503 1893.89,806.889 1913.5,808.909 1932.25,812.391 1950.18,820.266 1964.81,831.052 1977.4,844.629 1989.18,858.909 1998.18,875.451 2002.84,893.439 2009.92,910.03 2012.78,926.396 2015.38,942.356 2021.86,956.874 2028.71,971.328 2036.55,984.007 2046.02,993.819 2057.62,1000.07 2071.29,1000.89 2085.81,1000.3 2100.05,995.756 2110.94,988.895 2121.41,979.849 2127.75,967.464 2127.03,953.775 2121.41,938.59 2110,923.754 2095.33,909.613 2075.33,899.312 2052.91,892.244 2030.86,886.121 2009.25,883.986 1988.67,878.582 1970.09,874.475 1952.22,868.65 1930.64,864.704 1910.99,860.899 1891.98,855.411 1873.26,854.134 1853.68,850.883 1832.75,848.893 1811.31,845.636 1790.67,842.599 1769.26,840.27 1749.7,837.584 1729.92,836.13 1709.72,836.009 1693,834.82 1678.45,833.899 1666.68,833.206 1655.06,831.325 1644.45,830.049 1631.19,830.189 1619.43,829.434 1605.01,829.664 1590.66,832.091 1574.87,832.885 1557.94,833.113 1543.18,839.987 1543.31,854.708 1563.35,854.773 1576.77,851.591 1593.23,847.906 1609.42,835.334 1626.82,826.646 1623.7,807.685 1622.53,786.538 1601.57,775.196 1595.34,754.852 1586.17,736.013 1559.04,730.044 1540.82,741.694 1519.52,734.06 1495.93,734.753 1475.83,714.909 1479.53,693.246 1481.4,669.906 1500.33,656.85 1512.77,635.8 1520.98,614.195 1526.85,592.355 1502.79,587.205 1479.78,579.67 1458.7,569.389 1480.57,558.057 1506.16,548.36 1539.16,549.059 1567.99,536.527 1587.55,513.76 1606.03,494.609 1625.97,473.977 1653.08,467.126 1672.3,469.426 1699.53,473.765 1721.22,487.836 1747.91,497.137 1766.67,518.9 1778.66,544.304 1766.38,562.676 1739.82,573.253 1715.06,584.59 1685.99,594.352 1656.11,590.087 1625.31,580.117 1604.13,564.216 1591.18,541.331 1594.58,521.802 1606.76,504.119 1622.44,488.571 1640.35,474.182 1666.94,469.296 1690.8,464.317 1711.6,453.099 1731.73,441.361 1749.79,429.23 1760.87,412.984 1772.66,394.247 1790.71,385.709 1797.86,369.029 1783.23,355.337 1766.17,348.399 1770.81,343.943 1791.21,336.51 1813.64,337.175 1837.46,338.292 1863.07,340.827 1889.89,347.32 1903.81,362.38 1915.55,383.402 1908.12,402.224 1885.86,415.534 1874.71,439.319 1860.97,462.777 1862.43,490.216 1838.75,505.748 1809.87,510.808 1788.48,528.275 1757.03,537.51 1736.34,555.193 1720.3,578.965 1694.36,592.286 1667.51,581.812 1643.82,572.629 1619.45,562.831 1595.62,559.296 1572.52,544.322 1564.78,521.88 1583.47,504.391 1612.82,502.26 1639.35,493.605 1668.64,489.52 1697.55,499.769 1716.27,520.06 1724.24,542.158 1742.52,560.448 1756.31,572.181 1783.39,575.485 1805.47,583.081 1827.36,583.289 1847.7,577.124 1870.15,567.997 1891.66,559.465 1914.43,567.948 1931.71,581.964 1928.81,602.302 1924.4,627.54 1909.87,650.933 1898.38,678.886 1877.22,700.987 1858.27,724.629 1843.7,746.569 1812.73,762.21 1785.45,767.787 1757.44,780.767 1732.15,797.016 1712.13,818.197 1698.39,841.777 1669.51,855.849 1643.74,866.582 1614.23,860.095 1586.86,854.367 1559.1,846.013 1535.68,832.215 1510.9,817.509 1491.86,797.614 1474.47,777.822 1456.03,757.733 1435.39,743.854 1406.23,739.494 1379.97,745.466 1353.75,743.77 1333.64,728.324 1336.06,704.773 1313.67,691.047 1285.21,696.138 1266.97,711.101 1246.79,728.22 1228.44,741.89 1203.33,741.014 1178.86,743.33 1156.57,732.877 1138.23,715.026 1114.86,704.176 1086.46,703.233 1058.39,698.603 1032.08,687.651 1003.8,679.085 986.578,658.434 991.534,636.846 1002.13,616.876 1019.9,597.276 1030.71,574.857 1035.97,551.771 1039.68,529.708 1025.06,513.218 1001.07,503.865 986.525,488.242 1009.52,479.043 1038.92,478.392 1069.09,478.67 1103.88,474.699 1137.19,469.05 1165.62,453.23 1183.07,430.097 1207.33,409.214 1241,405.208 1277.45,406.829 1309.8,421.762 1338.42,435.115 1368.15,446.022 1397.21,454.633 1423.72,468.718 1457.04,475.701 1479.92,495.408 1503.8,517.285 1529.7,535.663 1550.08,557.581 1576.31,568.728 1598.31,580.125 1608.69,571.092 1634.19,561.384 1659.77,545.811 1686.8,534.004 1718.78,526.617 1752.9,521.456 1790.33,529.457 1811.05,553.308 1816.74,583.394 1807.6,614.97 1800.98,646.283 1790.92,677.019 1782.21,708.796 1790.72,741.041 1799.35,772.248 1826.99,793.918 1860,791.921 1892.31,791.306 1923.25,804.289 1942.48,828.246 1968.2,850.944 1981.82,879.07 1995.53,903.462 1997.51,929.615 2023.65,922.381 2048.22,925.358 2076,926.509 2095.73,935.398 2099.01,946.297 2095.25,960.14 2094.91,974.511 2114.21,976.124 2130.11,978.343 2148.55,971.644 2170.21,972.028 2189.03,983.782 2198.67,1001.21 2208.12,1020.33 2220.07,1028.17 2225.08,1011.18 2226.59,991.164 2224.94,967.643 2211.59,946.848 2200.45,923.755 2190.03,902.465 2182.45,877.09 2159.6,858.181 2153.1,833.216 2156.83,807.118 2172.11,788.653 2198.31,790.455 2221.18,800.815 2244.5,814.193 2258.9,836.43 2278.83,858.483 2290.15,883.199 2287.49,909.845 2270.32,931.61 2245.75,947.799 2218.38,964.369 2192.97,980.219 2167.44,993.938 2146.47,1015.88 2124,1036.75 2108.97,1058.94 2095.92,1084.33 2071.88,1103.12 2050.04,1122.17 2023.82,1138.63 1997.4,1153.19 1967.03,1169.42 1936.36,1176.51 1913.34,1198.74 1890.51,1215.07 1867.95,1227.02 1845.56,1244.62 1826.21,1261.09 1813.11,1281.34 1800.16,1301.41 1798.34,1325.68 1799.37,1350.06 1815.6,1368.58 1827.65,1389.49 1825.43,1415.38 1815.06,1434.89 1788.68,1445.72 1767.03,1435.4 1755.46,1409.93 1734.68,1387.08 1710.97,1365.96 1688.85,1343.4 1661.94,1321.95 1628.02,1314.33 1592.41,1319.63 1554.91,1322.15 1521.8,1331.04 1486.46,1337.85 1455.72,1325.29 1427.49,1307.52 1413.92,1278.03 1409.03,1247.02 1404.49,1214.02 1377.4,1192.02 1362.2,1164.6 1365.55,1135.44 1364.27,1104.37 1354.1,1076.67 1341.51,1053.18 1326.87,1026.08 1314.97,998.164 1323.05,966.729 1334.99,935.848 1352.42,905.76 1367.09,875.706 1390.65,851.344 1409.56,826.332 1407.62,796.369 1384.29,773.023 1358.43,753.923 1326.69,753.604 1303.34,732.426 1301.46,702.624 1295.98,672.558 1301.13,646.066 1319.15,622.611 1349.65,616.317 1382.8,612.097 1415.06,601.916 1449.47,602.271 1482.64,601.057 1512.23,586.854 1528.29,563.415 1550.9,544.4 1581.41,539.923 1606.99,532.705 1614.08,508.853 1590.77,491.834 1568.09,472.247 1544.55,455.404 1525.04,435.848 1500.31,417.357 1486.48,392.373 1462.75,373.905 1454.16,349.732 1469.63,328.313 1493.05,316.85 1518.24,330.01 1547.72,332.421 1581.85,338.641 1616.22,339.366 1649.26,337.831 1676.4,350.503 1700.14,370.33 1728.54,373.237 1757.44,363.553 1788.17,355.207 1821.05,352.013 1849.72,344.116 1878.75,342.923 1891.63,364.744 1906.4,380.407 1921.4,367.099 1928.73,350.259 1941.75,335.019 1967.01,327.133 1991.98,316.603 2013.26,308.527 1992.25,301.297 1974.42,283.854 1961.94,261.844 1951.99,240.293 1954.65,215.868 1971.26,196.455 2000.96,188.795 2032.69,189.952 2062.52,194.082 2094.37,197.33 2121.22,213.501 2144.5,233.021 2151.75,258.312 2146.01,280.029 2146.59,299.782 2144.63,322.737 2141.01,349.374 2125.75,374.651 2100.07,394.324 2084.07,420.488 2067.26,449.737 2052.48,477.483 2031.15,504.383 1999.03,508.24 1966.74,515.517 1937.1,527.6 1904.18,540.363 1880.97,563.598 1867.34,588.79 1878.19,616.615 1907.22,625.295 1938.76,639.413 1970.48,656.335 1996.82,679.505 2031.49,687.694 2067.64,688.944 2100.48,688.474 2133.67,684.962 2162.14,697.823 2190.85,698.612 2211.79,681.739 2228.6,661.279 2235.28,638.97 2234.42,613.971 2225.71,591.279 2216.2,564.954 2196.29,541.688 2172.87,523.943 2147.01,511.99 2112.21,515.035 2079.79,518.833 2057.27,541.994 2039.62,566.032 2016.07,591.992 2011.98,622.704 2018.19,652.745 2020.84,680.818 2040.36,707.389 2051.45,734.142 2062.02,763.749 2084,788.519 2113.94,806.641 2140.81,826.803 2163.61,849.144 2187.2,870.855 2204.66,896.338 2212.44,922.855 2191.37,938.752 2167.75,950.884 2139.88,951.522 2115.51,956.565 2096.2,962.38 2071.53,963.402 2049.26,950.849 2018.61,941.137 1984.22,939.26 1946.61,947.17 1910.59,959.976 1872.67,958.194 1835.21,967.206 1796.13,973.55 1758.57,983.324 1723.04,982.843 1689.96,972.839 1653.43,977.241 1617.66,973.392 1585.08,957.124 1556.73,937.092 1523.34,923.078 1490.81,909.323 1457.5,897.764 1429.56,877.793 1403.29,856.03 1369.42,851.165 1337.01,859.953 1312.3,881.914 1285.31,902.827 1254.32,920.853 1217.09,921.918 1186.4,912.314 1157.71,893.308 1138.93,867.306 1121.01,841.581 1099.63,818.204 1084.99,790.704 1086.18,760.013 1087.14,728.42 1066.89,706.757 1044.92,686.967 1020.19,672.503 1007.75,648.691 998.72,621.949 984.21,597.965 972.204,572.685 983.397,548.122 998.115,526.134 1014.82,510.166 1029.18,495.821 1046.15,477.849 1051.14,456.612 1055.4,433.062 1060.11,408.281 1064.24,382.467 1076.09,359.062 1081.7,332.28 1059.88,315.051 1035.49,301.985 1006.62,307.457 980.81,310.097 949.38,303.259 921.571,291.711 890.166,283.338 861.269,279 836.234,267.128 819.334,245.712 828.954,222.81 851.247,203.561 868.087,185.355 893.43,164.077 926.906,152.948 960.627,146.685 993.453,147.65 1021.78,159.396 1050.47,165.164 1082.72,157.777 1108.22,141.693 1135.05,127.652 1148.28,104.566 1158.97,88.5168 "/>
<path clip-path="url(#clip490)" d="M250.367 1438.47 L793.155 1438.47 L793.155 1231.11 L250.367 1231.11  Z" fill="#ffffff" fill-rule="evenodd" fill-opacity="1"/>
<polyline clip-path="url(#clip490)" style="stroke:#000000; stroke-linecap:round; stroke-linejoin:round; stroke-width:4; stroke-opacity:1; fill:none" points="250.367,1438.47 793.155,1438.47 793.155,1231.11 250.367,1231.11 250.367,1438.47 "/>
<polyline clip-path="url(#clip490)" style="stroke:#0000ff; stroke-linecap:round; stroke-linejoin:round; stroke-width:4; stroke-opacity:1; fill:none" points="274.533,1282.95 419.525,1282.95 "/>
<path clip-path="url(#clip490)" d="M467.718 1286.21 L467.718 1288.29 L448.135 1288.29 Q448.413 1292.69 450.774 1295 Q453.158 1297.29 457.394 1297.29 Q459.848 1297.29 462.139 1296.69 Q464.454 1296.09 466.723 1294.89 L466.723 1298.91 Q464.431 1299.89 462.024 1300.4 Q459.616 1300.91 457.14 1300.91 Q450.936 1300.91 447.302 1297.29 Q443.691 1293.68 443.691 1287.53 Q443.691 1281.16 447.116 1277.43 Q450.565 1273.68 456.399 1273.68 Q461.63 1273.68 464.663 1277.06 Q467.718 1280.42 467.718 1286.21 M463.459 1284.96 Q463.413 1281.46 461.491 1279.38 Q459.593 1277.29 456.445 1277.29 Q452.88 1277.29 450.728 1279.31 Q448.598 1281.32 448.274 1284.98 L463.459 1284.96 Z" fill="#000000" fill-rule="nonzero" fill-opacity="1" /><path clip-path="url(#clip490)" d="M491.237 1275.07 L491.237 1279.1 Q489.431 1278.17 487.487 1277.71 Q485.542 1277.25 483.459 1277.25 Q480.288 1277.25 478.69 1278.22 Q477.116 1279.19 477.116 1281.14 Q477.116 1282.62 478.251 1283.48 Q479.385 1284.31 482.811 1285.07 L484.269 1285.4 Q488.806 1286.37 490.704 1288.15 Q492.625 1289.91 492.625 1293.08 Q492.625 1296.69 489.755 1298.8 Q486.908 1300.91 481.908 1300.91 Q479.825 1300.91 477.556 1300.49 Q475.311 1300.1 472.811 1299.29 L472.811 1294.89 Q475.172 1296.11 477.463 1296.74 Q479.755 1297.34 482 1297.34 Q485.01 1297.34 486.63 1296.32 Q488.25 1295.28 488.25 1293.41 Q488.25 1291.67 487.07 1290.74 Q485.912 1289.82 481.954 1288.96 L480.473 1288.61 Q476.514 1287.78 474.755 1286.07 Q472.996 1284.33 472.996 1281.32 Q472.996 1277.67 475.588 1275.67 Q478.181 1273.68 482.95 1273.68 Q485.311 1273.68 487.394 1274.03 Q489.477 1274.38 491.237 1275.07 Z" fill="#000000" fill-rule="nonzero" fill-opacity="1" /><path clip-path="url(#clip490)" d="M503.621 1266.95 L503.621 1274.31 L512.394 1274.31 L512.394 1277.62 L503.621 1277.62 L503.621 1291.69 Q503.621 1294.86 504.477 1295.77 Q505.357 1296.67 508.019 1296.67 L512.394 1296.67 L512.394 1300.23 L508.019 1300.23 Q503.088 1300.23 501.213 1298.41 Q499.338 1296.55 499.338 1291.69 L499.338 1277.62 L496.213 1277.62 L496.213 1274.31 L499.338 1274.31 L499.338 1266.95 L503.621 1266.95 Z" fill="#000000" fill-rule="nonzero" fill-opacity="1" /><path clip-path="url(#clip490)" d="M517.996 1274.31 L522.255 1274.31 L522.255 1300.23 L517.996 1300.23 L517.996 1274.31 M517.996 1264.22 L522.255 1264.22 L522.255 1269.61 L517.996 1269.61 L517.996 1264.22 Z" fill="#000000" fill-rule="nonzero" fill-opacity="1" /><path clip-path="url(#clip490)" d="M551.352 1279.29 Q552.949 1276.42 555.171 1275.05 Q557.394 1273.68 560.403 1273.68 Q564.454 1273.68 566.653 1276.53 Q568.852 1279.35 568.852 1284.59 L568.852 1300.23 L564.569 1300.23 L564.569 1284.73 Q564.569 1281 563.25 1279.19 Q561.931 1277.39 559.222 1277.39 Q555.912 1277.39 553.991 1279.59 Q552.07 1281.79 552.07 1285.58 L552.07 1300.23 L547.787 1300.23 L547.787 1284.73 Q547.787 1280.98 546.468 1279.19 Q545.148 1277.39 542.394 1277.39 Q539.13 1277.39 537.209 1279.61 Q535.287 1281.81 535.287 1285.58 L535.287 1300.23 L531.005 1300.23 L531.005 1274.31 L535.287 1274.31 L535.287 1278.34 Q536.746 1275.95 538.783 1274.82 Q540.82 1273.68 543.621 1273.68 Q546.445 1273.68 548.412 1275.12 Q550.403 1276.55 551.352 1279.29 Z" fill="#000000" fill-rule="nonzero" fill-opacity="1" /><path clip-path="url(#clip490)" d="M589.13 1287.2 Q583.968 1287.2 581.977 1288.38 Q579.986 1289.56 579.986 1292.41 Q579.986 1294.68 581.468 1296.02 Q582.972 1297.34 585.542 1297.34 Q589.083 1297.34 591.213 1294.84 Q593.366 1292.32 593.366 1288.15 L593.366 1287.2 L589.13 1287.2 M597.625 1285.44 L597.625 1300.23 L593.366 1300.23 L593.366 1296.3 Q591.907 1298.66 589.731 1299.79 Q587.555 1300.91 584.407 1300.91 Q580.426 1300.91 578.065 1298.68 Q575.727 1296.44 575.727 1292.69 Q575.727 1288.31 578.643 1286.09 Q581.583 1283.87 587.393 1283.87 L593.366 1283.87 L593.366 1283.45 Q593.366 1280.51 591.421 1278.92 Q589.5 1277.29 586.005 1277.29 Q583.782 1277.29 581.676 1277.83 Q579.569 1278.36 577.625 1279.42 L577.625 1275.49 Q579.963 1274.59 582.162 1274.15 Q584.361 1273.68 586.444 1273.68 Q592.069 1273.68 594.847 1276.6 Q597.625 1279.52 597.625 1285.44 Z" fill="#000000" fill-rule="nonzero" fill-opacity="1" /><path clip-path="url(#clip490)" d="M610.611 1266.95 L610.611 1274.31 L619.384 1274.31 L619.384 1277.62 L610.611 1277.62 L610.611 1291.69 Q610.611 1294.86 611.467 1295.77 Q612.347 1296.67 615.009 1296.67 L619.384 1296.67 L619.384 1300.23 L615.009 1300.23 Q610.078 1300.23 608.204 1298.41 Q606.329 1296.55 606.329 1291.69 L606.329 1277.62 L603.204 1277.62 L603.204 1274.31 L606.329 1274.31 L606.329 1266.95 L610.611 1266.95 Z" fill="#000000" fill-rule="nonzero" fill-opacity="1" /><path clip-path="url(#clip490)" d="M647.162 1286.21 L647.162 1288.29 L627.578 1288.29 Q627.856 1292.69 630.217 1295 Q632.602 1297.29 636.838 1297.29 Q639.291 1297.29 641.583 1296.69 Q643.898 1296.09 646.166 1294.89 L646.166 1298.91 Q643.875 1299.89 641.467 1300.4 Q639.06 1300.91 636.583 1300.91 Q630.379 1300.91 626.745 1297.29 Q623.134 1293.68 623.134 1287.53 Q623.134 1281.16 626.56 1277.43 Q630.009 1273.68 635.842 1273.68 Q641.074 1273.68 644.106 1277.06 Q647.162 1280.42 647.162 1286.21 M642.902 1284.96 Q642.856 1281.46 640.935 1279.38 Q639.037 1277.29 635.889 1277.29 Q632.324 1277.29 630.171 1279.31 Q628.041 1281.32 627.717 1284.98 L642.902 1284.96 Z" fill="#000000" fill-rule="nonzero" fill-opacity="1" /><polyline clip-path="url(#clip490)" style="stroke:#ff0000; stroke-linecap:round; stroke-linejoin:round; stroke-width:4; stroke-opacity:1; fill:none" points="274.533,1334.79 419.525,1334.79 "/>
<path clip-path="url(#clip490)" d="M464.038 1331.13 Q465.635 1328.26 467.857 1326.89 Q470.079 1325.52 473.088 1325.52 Q477.139 1325.52 479.338 1328.37 Q481.538 1331.19 481.538 1336.43 L481.538 1352.07 L477.255 1352.07 L477.255 1336.57 Q477.255 1332.84 475.936 1331.03 Q474.616 1329.23 471.908 1329.23 Q468.598 1329.23 466.676 1331.43 Q464.755 1333.63 464.755 1337.42 L464.755 1352.07 L460.473 1352.07 L460.473 1336.57 Q460.473 1332.82 459.153 1331.03 Q457.834 1329.23 455.079 1329.23 Q451.815 1329.23 449.894 1331.45 Q447.973 1333.65 447.973 1337.42 L447.973 1352.07 L443.691 1352.07 L443.691 1326.15 L447.973 1326.15 L447.973 1330.18 Q449.431 1327.79 451.468 1326.66 Q453.505 1325.52 456.306 1325.52 Q459.13 1325.52 461.098 1326.96 Q463.089 1328.39 464.038 1331.13 Z" fill="#000000" fill-rule="nonzero" fill-opacity="1" /><path clip-path="url(#clip490)" d="M512.209 1338.05 L512.209 1340.13 L492.625 1340.13 Q492.903 1344.53 495.264 1346.84 Q497.649 1349.13 501.885 1349.13 Q504.338 1349.13 506.63 1348.53 Q508.945 1347.93 511.213 1346.73 L511.213 1350.75 Q508.922 1351.73 506.514 1352.24 Q504.107 1352.75 501.63 1352.75 Q495.426 1352.75 491.792 1349.13 Q488.181 1345.52 488.181 1339.37 Q488.181 1333 491.607 1329.27 Q495.056 1325.52 500.889 1325.52 Q506.121 1325.52 509.153 1328.9 Q512.209 1332.26 512.209 1338.05 M507.949 1336.8 Q507.903 1333.3 505.982 1331.22 Q504.084 1329.13 500.936 1329.13 Q497.371 1329.13 495.218 1331.15 Q493.088 1333.16 492.764 1336.82 L507.949 1336.8 Z" fill="#000000" fill-rule="nonzero" fill-opacity="1" /><path clip-path="url(#clip490)" d="M530.982 1339.04 Q525.82 1339.04 523.829 1340.22 Q521.838 1341.4 521.838 1344.25 Q521.838 1346.52 523.32 1347.86 Q524.824 1349.18 527.394 1349.18 Q530.935 1349.18 533.065 1346.68 Q535.218 1344.16 535.218 1339.99 L535.218 1339.04 L530.982 1339.04 M539.477 1337.28 L539.477 1352.07 L535.218 1352.07 L535.218 1348.14 Q533.759 1350.5 531.584 1351.63 Q529.408 1352.75 526.26 1352.75 Q522.278 1352.75 519.917 1350.52 Q517.579 1348.28 517.579 1344.53 Q517.579 1340.15 520.496 1337.93 Q523.435 1335.71 529.246 1335.71 L535.218 1335.71 L535.218 1335.29 Q535.218 1332.35 533.273 1330.76 Q531.352 1329.13 527.857 1329.13 Q525.635 1329.13 523.528 1329.67 Q521.422 1330.2 519.477 1331.26 L519.477 1327.33 Q521.815 1326.43 524.014 1325.99 Q526.213 1325.52 528.297 1325.52 Q533.922 1325.52 536.699 1328.44 Q539.477 1331.36 539.477 1337.28 Z" fill="#000000" fill-rule="nonzero" fill-opacity="1" /><path clip-path="url(#clip490)" d="M564.778 1326.91 L564.778 1330.94 Q562.972 1330.01 561.028 1329.55 Q559.083 1329.09 557 1329.09 Q553.829 1329.09 552.232 1330.06 Q550.658 1331.03 550.658 1332.98 Q550.658 1334.46 551.792 1335.32 Q552.926 1336.15 556.352 1336.91 L557.81 1337.24 Q562.347 1338.21 564.245 1339.99 Q566.167 1341.75 566.167 1344.92 Q566.167 1348.53 563.296 1350.64 Q560.449 1352.75 555.449 1352.75 Q553.366 1352.75 551.097 1352.33 Q548.852 1351.94 546.352 1351.13 L546.352 1346.73 Q548.713 1347.95 551.005 1348.58 Q553.296 1349.18 555.542 1349.18 Q558.551 1349.18 560.171 1348.16 Q561.792 1347.12 561.792 1345.25 Q561.792 1343.51 560.611 1342.58 Q559.454 1341.66 555.495 1340.8 L554.014 1340.45 Q550.056 1339.62 548.296 1337.91 Q546.537 1336.17 546.537 1333.16 Q546.537 1329.51 549.13 1327.51 Q551.722 1325.52 556.491 1325.52 Q558.852 1325.52 560.935 1325.87 Q563.019 1326.22 564.778 1326.91 Z" fill="#000000" fill-rule="nonzero" fill-opacity="1" /><path clip-path="url(#clip490)" d="M572.509 1341.84 L572.509 1326.15 L576.768 1326.15 L576.768 1341.68 Q576.768 1345.36 578.204 1347.21 Q579.639 1349.04 582.509 1349.04 Q585.958 1349.04 587.949 1346.84 Q589.963 1344.64 589.963 1340.85 L589.963 1326.15 L594.222 1326.15 L594.222 1352.07 L589.963 1352.07 L589.963 1348.09 Q588.412 1350.45 586.352 1351.61 Q584.315 1352.75 581.606 1352.75 Q577.139 1352.75 574.824 1349.97 Q572.509 1347.19 572.509 1341.84 M583.227 1325.52 L583.227 1325.52 Z" fill="#000000" fill-rule="nonzero" fill-opacity="1" /><path clip-path="url(#clip490)" d="M618.018 1330.13 Q617.301 1329.71 616.444 1329.53 Q615.611 1329.32 614.592 1329.32 Q610.981 1329.32 609.037 1331.68 Q607.116 1334.02 607.116 1338.42 L607.116 1352.07 L602.833 1352.07 L602.833 1326.15 L607.116 1326.15 L607.116 1330.18 Q608.458 1327.82 610.611 1326.68 Q612.764 1325.52 615.842 1325.52 Q616.282 1325.52 616.815 1325.59 Q617.347 1325.64 617.995 1325.76 L618.018 1330.13 Z" fill="#000000" fill-rule="nonzero" fill-opacity="1" /><path clip-path="url(#clip490)" d="M643.62 1338.05 L643.62 1340.13 L624.037 1340.13 Q624.315 1344.53 626.676 1346.84 Q629.06 1349.13 633.296 1349.13 Q635.75 1349.13 638.041 1348.53 Q640.356 1347.93 642.625 1346.73 L642.625 1350.75 Q640.333 1351.73 637.926 1352.24 Q635.518 1352.75 633.041 1352.75 Q626.838 1352.75 623.203 1349.13 Q619.592 1345.52 619.592 1339.37 Q619.592 1333 623.018 1329.27 Q626.467 1325.52 632.301 1325.52 Q637.532 1325.52 640.564 1328.9 Q643.62 1332.26 643.62 1338.05 M639.361 1336.8 Q639.314 1333.3 637.393 1331.22 Q635.495 1329.13 632.347 1329.13 Q628.782 1329.13 626.629 1331.15 Q624.5 1333.16 624.176 1336.82 L639.361 1336.8 Z" fill="#000000" fill-rule="nonzero" fill-opacity="1" /><path clip-path="url(#clip490)" d="M670.796 1331.13 Q672.393 1328.26 674.615 1326.89 Q676.837 1325.52 679.847 1325.52 Q683.898 1325.52 686.097 1328.37 Q688.296 1331.19 688.296 1336.43 L688.296 1352.07 L684.013 1352.07 L684.013 1336.57 Q684.013 1332.84 682.694 1331.03 Q681.374 1329.23 678.666 1329.23 Q675.356 1329.23 673.435 1331.43 Q671.513 1333.63 671.513 1337.42 L671.513 1352.07 L667.231 1352.07 L667.231 1336.57 Q667.231 1332.82 665.912 1331.03 Q664.592 1329.23 661.837 1329.23 Q658.574 1329.23 656.652 1331.45 Q654.731 1333.65 654.731 1337.42 L654.731 1352.07 L650.449 1352.07 L650.449 1326.15 L654.731 1326.15 L654.731 1330.18 Q656.189 1327.79 658.226 1326.66 Q660.263 1325.52 663.064 1325.52 Q665.888 1325.52 667.856 1326.96 Q669.847 1328.39 670.796 1331.13 Z" fill="#000000" fill-rule="nonzero" fill-opacity="1" /><path clip-path="url(#clip490)" d="M718.967 1338.05 L718.967 1340.13 L699.384 1340.13 Q699.661 1344.53 702.022 1346.84 Q704.407 1349.13 708.643 1349.13 Q711.096 1349.13 713.388 1348.53 Q715.703 1347.93 717.971 1346.73 L717.971 1350.75 Q715.68 1351.73 713.272 1352.24 Q710.865 1352.75 708.388 1352.75 Q702.184 1352.75 698.55 1349.13 Q694.939 1345.52 694.939 1339.37 Q694.939 1333 698.365 1329.27 Q701.814 1325.52 707.647 1325.52 Q712.879 1325.52 715.911 1328.9 Q718.967 1332.26 718.967 1338.05 M714.708 1336.8 Q714.661 1333.3 712.74 1331.22 Q710.842 1329.13 707.694 1329.13 Q704.129 1329.13 701.976 1331.15 Q699.847 1333.16 699.522 1336.82 L714.708 1336.8 Z" fill="#000000" fill-rule="nonzero" fill-opacity="1" /><path clip-path="url(#clip490)" d="M747.508 1336.43 L747.508 1352.07 L743.249 1352.07 L743.249 1336.57 Q743.249 1332.88 741.814 1331.06 Q740.379 1329.23 737.508 1329.23 Q734.059 1329.23 732.069 1331.43 Q730.078 1333.63 730.078 1337.42 L730.078 1352.07 L725.795 1352.07 L725.795 1326.15 L730.078 1326.15 L730.078 1330.18 Q731.606 1327.84 733.666 1326.68 Q735.749 1325.52 738.457 1325.52 Q742.925 1325.52 745.217 1328.3 Q747.508 1331.06 747.508 1336.43 Z" fill="#000000" fill-rule="nonzero" fill-opacity="1" /><path clip-path="url(#clip490)" d="M760.217 1318.79 L760.217 1326.15 L768.99 1326.15 L768.99 1329.46 L760.217 1329.46 L760.217 1343.53 Q760.217 1346.7 761.073 1347.61 Q761.953 1348.51 764.615 1348.51 L768.99 1348.51 L768.99 1352.07 L764.615 1352.07 Q759.684 1352.07 757.809 1350.25 Q755.934 1348.39 755.934 1343.53 L755.934 1329.46 L752.809 1329.46 L752.809 1326.15 L755.934 1326.15 L755.934 1318.79 L760.217 1318.79 Z" fill="#000000" fill-rule="nonzero" fill-opacity="1" /><polyline clip-path="url(#clip490)" style="stroke:#3da44d; stroke-linecap:round; stroke-linejoin:round; stroke-width:4; stroke-opacity:1; fill:none" points="274.533,1386.63 419.525,1386.63 "/>
<path clip-path="url(#clip490)" d="M468.343 1377.99 L458.968 1390.6 L468.829 1403.91 L463.806 1403.91 L456.26 1393.73 L448.714 1403.91 L443.691 1403.91 L453.76 1390.35 L444.547 1377.99 L449.57 1377.99 L456.445 1387.22 L463.32 1377.99 L468.343 1377.99 Z" fill="#000000" fill-rule="nonzero" fill-opacity="1" /><path clip-path="url(#clip490)" d="M491.375 1378.75 L491.375 1382.78 Q489.57 1381.85 487.625 1381.39 Q485.681 1380.93 483.598 1380.93 Q480.426 1380.93 478.829 1381.9 Q477.255 1382.87 477.255 1384.82 Q477.255 1386.3 478.389 1387.16 Q479.524 1387.99 482.95 1388.75 L484.408 1389.08 Q488.945 1390.05 490.843 1391.83 Q492.764 1393.59 492.764 1396.76 Q492.764 1400.37 489.894 1402.48 Q487.047 1404.59 482.047 1404.59 Q479.963 1404.59 477.695 1404.17 Q475.45 1403.78 472.95 1402.97 L472.95 1398.57 Q475.311 1399.79 477.602 1400.42 Q479.894 1401.02 482.139 1401.02 Q485.149 1401.02 486.769 1400 Q488.389 1398.96 488.389 1397.09 Q488.389 1395.35 487.209 1394.42 Q486.051 1393.5 482.093 1392.64 L480.612 1392.29 Q476.653 1391.46 474.894 1389.75 Q473.135 1388.01 473.135 1385 Q473.135 1381.35 475.727 1379.35 Q478.32 1377.36 483.088 1377.36 Q485.45 1377.36 487.533 1377.71 Q489.616 1378.06 491.375 1378.75 Z" fill="#000000" fill-rule="nonzero" fill-opacity="1" /></svg>
