<?xml version="1.0" encoding="utf-8"?>
<svg xmlns="http://www.w3.org/2000/svg" xmlns:xlink="http://www.w3.org/1999/xlink" width="600" height="400" viewBox="0 0 2400 1600">
<defs>
  <clipPath id="clip320">
    <rect x="0" y="0" width="2400" height="1600"/>
  </clipPath>
</defs>
<path clip-path="url(#clip320)" d="M0 1600 L2400 1600 L2400 0 L0 0  Z" fill="#ffffff" fill-rule="evenodd" fill-opacity="1"/>
<defs>
  <clipPath id="clip321">
    <rect x="480" y="0" width="1681" height="1600"/>
  </clipPath>
</defs>
<path clip-path="url(#clip320)" d="M239.19 1410.9 L2352.76 1410.9 L2352.76 123.472 L239.19 123.472  Z" fill="#ffffff" fill-rule="evenodd" fill-opacity="1"/>
<defs>
  <clipPath id="clip322">
    <rect x="239" y="123" width="2115" height="1288"/>
  </clipPath>
</defs>
<polyline clip-path="url(#clip322)" style="stroke:#000000; stroke-linecap:round; stroke-linejoin:round; stroke-width:2; stroke-opacity:0.1; fill:none" points="1096.58,1410.9 1096.58,123.472 "/>
<polyline clip-path="url(#clip322)" style="stroke:#000000; stroke-linecap:round; stroke-linejoin:round; stroke-width:2; stroke-opacity:0.1; fill:none" points="2093.55,1410.9 2093.55,123.472 "/>
<polyline clip-path="url(#clip320)" style="stroke:#000000; stroke-linecap:round; stroke-linejoin:round; stroke-width:4; stroke-opacity:1; fill:none" points="239.19,1410.9 2352.76,1410.9 "/>
<polyline clip-path="url(#clip320)" style="stroke:#000000; stroke-linecap:round; stroke-linejoin:round; stroke-width:4; stroke-opacity:1; fill:none" points="1096.58,1410.9 1096.58,1392 "/>
<polyline clip-path="url(#clip320)" style="stroke:#000000; stroke-linecap:round; stroke-linejoin:round; stroke-width:4; stroke-opacity:1; fill:none" points="2093.55,1410.9 2093.55,1392 "/>
<path clip-path="url(#clip320)" d="M1061.56 1485.02 L1069.2 1485.02 L1069.2 1458.66 L1060.89 1460.32 L1060.89 1456.06 L1069.16 1454.4 L1073.83 1454.4 L1073.83 1485.02 L1081.47 1485.02 L1081.47 1488.96 L1061.56 1488.96 L1061.56 1485.02 Z" fill="#000000" fill-rule="nonzero" fill-opacity="1" /><path clip-path="url(#clip320)" d="M1100.91 1457.48 Q1097.3 1457.48 1095.47 1461.04 Q1093.67 1464.58 1093.67 1471.71 Q1093.67 1478.82 1095.47 1482.38 Q1097.3 1485.92 1100.91 1485.92 Q1104.55 1485.92 1106.35 1482.38 Q1108.18 1478.82 1108.18 1471.71 Q1108.18 1464.58 1106.35 1461.04 Q1104.55 1457.48 1100.91 1457.48 M1100.91 1453.77 Q1106.72 1453.77 1109.78 1458.38 Q1112.86 1462.96 1112.86 1471.71 Q1112.86 1480.44 1109.78 1485.04 Q1106.72 1489.63 1100.91 1489.63 Q1095.1 1489.63 1092.03 1485.04 Q1088.97 1480.44 1088.97 1471.71 Q1088.97 1462.96 1092.03 1458.38 Q1095.1 1453.77 1100.91 1453.77 Z" fill="#000000" fill-rule="nonzero" fill-opacity="1" /><path clip-path="url(#clip320)" d="M1122.56 1435.97 Q1119.63 1435.97 1118.14 1438.86 Q1116.68 1441.74 1116.68 1447.53 Q1116.68 1453.31 1118.14 1456.2 Q1119.63 1459.08 1122.56 1459.08 Q1125.52 1459.08 1126.98 1456.2 Q1128.47 1453.31 1128.47 1447.53 Q1128.47 1441.74 1126.98 1438.86 Q1125.52 1435.97 1122.56 1435.97 M1122.56 1432.96 Q1127.28 1432.96 1129.77 1436.7 Q1132.27 1440.43 1132.27 1447.53 Q1132.27 1454.62 1129.77 1458.37 Q1127.28 1462.09 1122.56 1462.09 Q1117.84 1462.09 1115.34 1458.37 Q1112.86 1454.62 1112.86 1447.53 Q1112.86 1440.43 1115.34 1436.7 Q1117.84 1432.96 1122.56 1432.96 Z" fill="#000000" fill-rule="nonzero" fill-opacity="1" /><path clip-path="url(#clip320)" d="M2059.87 1485.02 L2067.51 1485.02 L2067.51 1458.66 L2059.2 1460.32 L2059.2 1456.06 L2067.47 1454.4 L2072.14 1454.4 L2072.14 1485.02 L2079.78 1485.02 L2079.78 1488.96 L2059.87 1488.96 L2059.87 1485.02 Z" fill="#000000" fill-rule="nonzero" fill-opacity="1" /><path clip-path="url(#clip320)" d="M2099.22 1457.48 Q2095.61 1457.48 2093.78 1461.04 Q2091.98 1464.58 2091.98 1471.71 Q2091.98 1478.82 2093.78 1482.38 Q2095.61 1485.92 2099.22 1485.92 Q2102.86 1485.92 2104.66 1482.38 Q2106.49 1478.82 2106.49 1471.71 Q2106.49 1464.58 2104.66 1461.04 Q2102.86 1457.48 2099.22 1457.48 M2099.22 1453.77 Q2105.03 1453.77 2108.09 1458.38 Q2111.17 1462.96 2111.17 1471.71 Q2111.17 1480.44 2108.09 1485.04 Q2105.03 1489.63 2099.22 1489.63 Q2093.41 1489.63 2090.34 1485.04 Q2087.28 1480.44 2087.28 1471.71 Q2087.28 1462.96 2090.34 1458.38 Q2093.41 1453.77 2099.22 1453.77 Z" fill="#000000" fill-rule="nonzero" fill-opacity="1" /><path clip-path="url(#clip320)" d="M2111.71 1458.35 L2117.92 1458.35 L2117.92 1436.93 L2111.17 1438.28 L2111.17 1434.82 L2117.88 1433.47 L2121.68 1433.47 L2121.68 1458.35 L2127.89 1458.35 L2127.89 1461.55 L2111.71 1461.55 L2111.71 1458.35 Z" fill="#000000" fill-rule="nonzero" fill-opacity="1" /><path clip-path="url(#clip320)" d="M733.834 1531.95 L733.834 1568.9 L741.6 1568.9 Q751.435 1568.9 755.986 1564.45 Q760.569 1559.99 760.569 1550.38 Q760.569 1540.83 755.986 1536.4 Q751.435 1531.95 741.6 1531.95 L733.834 1531.95 M727.404 1526.67 L740.613 1526.67 Q754.427 1526.67 760.888 1532.43 Q767.349 1538.16 767.349 1550.38 Q767.349 1562.66 760.856 1568.42 Q754.363 1574.19 740.613 1574.19 L727.404 1574.19 L727.404 1526.67 Z" fill="#000000" fill-rule="nonzero" fill-opacity="1" /><path clip-path="url(#clip320)" d="M792.175 1577.5 Q789.693 1583.86 787.337 1585.8 Q784.982 1587.74 781.035 1587.74 L776.356 1587.74 L776.356 1582.84 L779.794 1582.84 Q782.213 1582.84 783.55 1581.7 Q784.886 1580.55 786.51 1576.29 L787.56 1573.61 L773.142 1538.54 L779.348 1538.54 L790.488 1566.42 L801.628 1538.54 L807.835 1538.54 L792.175 1577.5 Z" fill="#000000" fill-rule="nonzero" fill-opacity="1" /><path clip-path="url(#clip320)" d="M845.552 1552.67 L845.552 1574.19 L839.695 1574.19 L839.695 1552.86 Q839.695 1547.8 837.722 1545.29 Q835.748 1542.77 831.802 1542.77 Q827.059 1542.77 824.322 1545.79 Q821.585 1548.82 821.585 1554.04 L821.585 1574.19 L815.696 1574.19 L815.696 1538.54 L821.585 1538.54 L821.585 1544.08 Q823.685 1540.86 826.518 1539.27 Q829.383 1537.68 833.107 1537.68 Q839.25 1537.68 842.401 1541.5 Q845.552 1545.29 845.552 1552.67 Z" fill="#000000" fill-rule="nonzero" fill-opacity="1" /><path clip-path="url(#clip320)" d="M873.433 1556.27 Q866.336 1556.27 863.598 1557.89 Q860.861 1559.51 860.861 1563.43 Q860.861 1566.55 862.898 1568.39 Q864.967 1570.21 868.5 1570.21 Q873.37 1570.21 876.298 1566.77 Q879.258 1563.3 879.258 1557.57 L879.258 1556.27 L873.433 1556.27 M885.115 1553.85 L885.115 1574.19 L879.258 1574.19 L879.258 1568.77 Q877.253 1572.02 874.261 1573.58 Q871.269 1575.11 866.94 1575.11 Q861.466 1575.11 858.219 1572.05 Q855.005 1568.97 855.005 1563.81 Q855.005 1557.79 859.015 1554.74 Q863.057 1551.68 871.046 1551.68 L879.258 1551.68 L879.258 1551.11 Q879.258 1547.07 876.584 1544.87 Q873.943 1542.64 869.137 1542.64 Q866.081 1542.64 863.185 1543.38 Q860.288 1544.11 857.615 1545.57 L857.615 1540.16 Q860.829 1538.92 863.853 1538.31 Q866.877 1537.68 869.741 1537.68 Q877.476 1537.68 881.295 1541.69 Q885.115 1545.7 885.115 1553.85 Z" fill="#000000" fill-rule="nonzero" fill-opacity="1" /><path clip-path="url(#clip320)" d="M924.932 1545.38 Q927.128 1541.43 930.184 1539.56 Q933.239 1537.68 937.377 1537.68 Q942.947 1537.68 945.971 1541.59 Q948.994 1545.48 948.994 1552.67 L948.994 1574.19 L943.106 1574.19 L943.106 1552.86 Q943.106 1547.74 941.292 1545.25 Q939.478 1542.77 935.754 1542.77 Q931.202 1542.77 928.56 1545.79 Q925.919 1548.82 925.919 1554.04 L925.919 1574.19 L920.03 1574.19 L920.03 1552.86 Q920.03 1547.7 918.216 1545.25 Q916.402 1542.77 912.614 1542.77 Q908.127 1542.77 905.485 1545.83 Q902.843 1548.85 902.843 1554.04 L902.843 1574.19 L896.955 1574.19 L896.955 1538.54 L902.843 1538.54 L902.843 1544.08 Q904.848 1540.8 907.649 1539.24 Q910.45 1537.68 914.301 1537.68 Q918.184 1537.68 920.89 1539.65 Q923.627 1541.62 924.932 1545.38 Z" fill="#000000" fill-rule="nonzero" fill-opacity="1" /><path clip-path="url(#clip320)" d="M960.675 1538.54 L966.532 1538.54 L966.532 1574.19 L960.675 1574.19 L960.675 1538.54 M960.675 1524.66 L966.532 1524.66 L966.532 1532.08 L960.675 1532.08 L960.675 1524.66 Z" fill="#000000" fill-rule="nonzero" fill-opacity="1" /><path clip-path="url(#clip320)" d="M1004.44 1539.91 L1004.44 1545.38 Q1001.96 1544.01 999.443 1543.34 Q996.96 1542.64 994.414 1542.64 Q988.716 1542.64 985.565 1546.27 Q982.414 1549.87 982.414 1556.39 Q982.414 1562.92 985.565 1566.55 Q988.716 1570.14 994.414 1570.14 Q996.96 1570.14 999.443 1569.47 Q1001.96 1568.77 1004.44 1567.41 L1004.44 1572.82 Q1001.99 1573.96 999.347 1574.54 Q996.737 1575.11 993.777 1575.11 Q985.725 1575.11 980.982 1570.05 Q976.24 1564.99 976.24 1556.39 Q976.24 1547.67 981.014 1542.68 Q985.82 1537.68 994.159 1537.68 Q996.865 1537.68 999.443 1538.25 Q1002.02 1538.79 1004.44 1539.91 Z" fill="#000000" fill-rule="nonzero" fill-opacity="1" /><path clip-path="url(#clip320)" d="M1037.35 1539.59 L1037.35 1545.13 Q1034.87 1543.85 1032.19 1543.22 Q1029.52 1542.58 1026.66 1542.58 Q1022.3 1542.58 1020.1 1543.92 Q1017.93 1545.25 1017.93 1547.93 Q1017.93 1549.96 1019.49 1551.14 Q1021.05 1552.29 1025.76 1553.34 L1027.77 1553.78 Q1034.01 1555.12 1036.62 1557.57 Q1039.26 1559.99 1039.26 1564.35 Q1039.26 1569.32 1035.31 1572.21 Q1031.4 1575.11 1024.52 1575.11 Q1021.66 1575.11 1018.54 1574.54 Q1015.45 1573.99 1012.01 1572.88 L1012.01 1566.83 Q1015.26 1568.52 1018.41 1569.38 Q1021.56 1570.21 1024.65 1570.21 Q1028.79 1570.21 1031.02 1568.81 Q1033.24 1567.37 1033.24 1564.8 Q1033.24 1562.41 1031.62 1561.14 Q1030.03 1559.86 1024.59 1558.68 L1022.55 1558.21 Q1017.11 1557.06 1014.69 1554.71 Q1012.27 1552.32 1012.27 1548.18 Q1012.27 1543.15 1015.83 1540.42 Q1019.4 1537.68 1025.96 1537.68 Q1029.2 1537.68 1032.07 1538.16 Q1034.93 1538.63 1037.35 1539.59 Z" fill="#000000" fill-rule="nonzero" fill-opacity="1" /><path clip-path="url(#clip320)" d="M1098.94 1552.67 L1098.94 1574.19 L1093.08 1574.19 L1093.08 1552.86 Q1093.08 1547.8 1091.11 1545.29 Q1089.14 1542.77 1085.19 1542.77 Q1080.45 1542.77 1077.71 1545.79 Q1074.97 1548.82 1074.97 1554.04 L1074.97 1574.19 L1069.08 1574.19 L1069.08 1538.54 L1074.97 1538.54 L1074.97 1544.08 Q1077.07 1540.86 1079.91 1539.27 Q1082.77 1537.68 1086.49 1537.68 Q1092.64 1537.68 1095.79 1541.5 Q1098.94 1545.29 1098.94 1552.67 Z" fill="#000000" fill-rule="nonzero" fill-opacity="1" /><path clip-path="url(#clip320)" d="M1124.43 1542.64 Q1119.72 1542.64 1116.99 1546.34 Q1114.25 1550 1114.25 1556.39 Q1114.25 1562.79 1116.95 1566.48 Q1119.69 1570.14 1124.43 1570.14 Q1129.11 1570.14 1131.85 1566.45 Q1134.59 1562.76 1134.59 1556.39 Q1134.59 1550.06 1131.85 1546.37 Q1129.11 1542.64 1124.43 1542.64 M1124.43 1537.68 Q1132.07 1537.68 1136.43 1542.64 Q1140.79 1547.61 1140.79 1556.39 Q1140.79 1565.15 1136.43 1570.14 Q1132.07 1575.11 1124.43 1575.11 Q1116.76 1575.11 1112.4 1570.14 Q1108.07 1565.15 1108.07 1556.39 Q1108.07 1547.61 1112.4 1542.64 Q1116.76 1537.68 1124.43 1537.68 Z" fill="#000000" fill-rule="nonzero" fill-opacity="1" /><path clip-path="url(#clip320)" d="M1150.5 1538.54 L1156.36 1538.54 L1156.36 1574.19 L1150.5 1574.19 L1150.5 1538.54 M1150.5 1524.66 L1156.36 1524.66 L1156.36 1532.08 L1150.5 1532.08 L1150.5 1524.66 Z" fill="#000000" fill-rule="nonzero" fill-opacity="1" /><path clip-path="url(#clip320)" d="M1191.34 1539.59 L1191.34 1545.13 Q1188.85 1543.85 1186.18 1543.22 Q1183.51 1542.58 1180.64 1542.58 Q1176.28 1542.58 1174.09 1543.92 Q1171.92 1545.25 1171.92 1547.93 Q1171.92 1549.96 1173.48 1551.14 Q1175.04 1552.29 1179.75 1553.34 L1181.76 1553.78 Q1187.99 1555.12 1190.6 1557.57 Q1193.25 1559.99 1193.25 1564.35 Q1193.25 1569.32 1189.3 1572.21 Q1185.38 1575.11 1178.51 1575.11 Q1175.65 1575.11 1172.53 1574.54 Q1169.44 1573.99 1166 1572.88 L1166 1566.83 Q1169.25 1568.52 1172.4 1569.38 Q1175.55 1570.21 1178.64 1570.21 Q1182.77 1570.21 1185 1568.81 Q1187.23 1567.37 1187.23 1564.8 Q1187.23 1562.41 1185.61 1561.14 Q1184.02 1559.86 1178.57 1558.68 L1176.54 1558.21 Q1171.09 1557.06 1168.67 1554.71 Q1166.26 1552.32 1166.26 1548.18 Q1166.26 1543.15 1169.82 1540.42 Q1173.39 1537.68 1179.94 1537.68 Q1183.19 1537.68 1186.05 1538.16 Q1188.92 1538.63 1191.34 1539.59 Z" fill="#000000" fill-rule="nonzero" fill-opacity="1" /><path clip-path="url(#clip320)" d="M1233.06 1554.9 L1233.06 1557.76 L1206.14 1557.76 Q1206.52 1563.81 1209.77 1566.99 Q1213.04 1570.14 1218.87 1570.14 Q1222.24 1570.14 1225.39 1569.32 Q1228.58 1568.49 1231.7 1566.83 L1231.7 1572.37 Q1228.54 1573.71 1225.23 1574.41 Q1221.92 1575.11 1218.52 1575.11 Q1209.99 1575.11 1204.99 1570.14 Q1200.03 1565.18 1200.03 1556.71 Q1200.03 1547.96 1204.74 1542.83 Q1209.48 1537.68 1217.5 1537.68 Q1224.69 1537.68 1228.86 1542.33 Q1233.06 1546.94 1233.06 1554.9 M1227.21 1553.18 Q1227.14 1548.37 1224.5 1545.51 Q1221.89 1542.64 1217.56 1542.64 Q1212.66 1542.64 1209.7 1545.41 Q1206.77 1548.18 1206.33 1553.21 L1227.21 1553.18 Z" fill="#000000" fill-rule="nonzero" fill-opacity="1" /><path clip-path="url(#clip320)" d="M1286.12 1539.59 L1286.12 1545.13 Q1283.64 1543.85 1280.97 1543.22 Q1278.29 1542.58 1275.43 1542.58 Q1271.07 1542.58 1268.87 1543.92 Q1266.71 1545.25 1266.71 1547.93 Q1266.71 1549.96 1268.27 1551.14 Q1269.83 1552.29 1274.54 1553.34 L1276.54 1553.78 Q1282.78 1555.12 1285.39 1557.57 Q1288.03 1559.99 1288.03 1564.35 Q1288.03 1569.32 1284.09 1572.21 Q1280.17 1575.11 1273.3 1575.11 Q1270.43 1575.11 1267.31 1574.54 Q1264.22 1573.99 1260.79 1572.88 L1260.79 1566.83 Q1264.03 1568.52 1267.18 1569.38 Q1270.34 1570.21 1273.42 1570.21 Q1277.56 1570.21 1279.79 1568.81 Q1282.02 1567.37 1282.02 1564.8 Q1282.02 1562.41 1280.39 1561.14 Q1278.8 1559.86 1273.36 1558.68 L1271.32 1558.21 Q1265.88 1557.06 1263.46 1554.71 Q1261.04 1552.32 1261.04 1548.18 Q1261.04 1543.15 1264.61 1540.42 Q1268.17 1537.68 1274.73 1537.68 Q1277.97 1537.68 1280.84 1538.16 Q1283.7 1538.63 1286.12 1539.59 Z" fill="#000000" fill-rule="nonzero" fill-opacity="1" /><path clip-path="url(#clip320)" d="M1303.15 1528.42 L1303.15 1538.54 L1315.21 1538.54 L1315.21 1543.09 L1303.15 1543.09 L1303.15 1562.44 Q1303.15 1566.8 1304.33 1568.04 Q1305.54 1569.28 1309.2 1569.28 L1315.21 1569.28 L1315.21 1574.19 L1309.2 1574.19 Q1302.42 1574.19 1299.84 1571.67 Q1297.26 1569.12 1297.26 1562.44 L1297.26 1543.09 L1292.97 1543.09 L1292.97 1538.54 L1297.26 1538.54 L1297.26 1528.42 L1303.15 1528.42 Z" fill="#000000" fill-rule="nonzero" fill-opacity="1" /><path clip-path="url(#clip320)" d="M1339.12 1556.27 Q1332.02 1556.27 1329.28 1557.89 Q1326.54 1559.51 1326.54 1563.43 Q1326.54 1566.55 1328.58 1568.39 Q1330.65 1570.21 1334.18 1570.21 Q1339.05 1570.21 1341.98 1566.77 Q1344.94 1563.3 1344.94 1557.57 L1344.94 1556.27 L1339.12 1556.27 M1350.8 1553.85 L1350.8 1574.19 L1344.94 1574.19 L1344.94 1568.77 Q1342.94 1572.02 1339.94 1573.58 Q1336.95 1575.11 1332.62 1575.11 Q1327.15 1575.11 1323.9 1572.05 Q1320.69 1568.97 1320.69 1563.81 Q1320.69 1557.79 1324.7 1554.74 Q1328.74 1551.68 1336.73 1551.68 L1344.94 1551.68 L1344.94 1551.11 Q1344.94 1547.07 1342.27 1544.87 Q1339.63 1542.64 1334.82 1542.64 Q1331.76 1542.64 1328.87 1543.38 Q1325.97 1544.11 1323.3 1545.57 L1323.3 1540.16 Q1326.51 1538.92 1329.54 1538.31 Q1332.56 1537.68 1335.42 1537.68 Q1343.16 1537.68 1346.98 1541.69 Q1350.8 1545.7 1350.8 1553.85 Z" fill="#000000" fill-rule="nonzero" fill-opacity="1" /><path clip-path="url(#clip320)" d="M1392.49 1552.67 L1392.49 1574.19 L1386.64 1574.19 L1386.64 1552.86 Q1386.64 1547.8 1384.66 1545.29 Q1382.69 1542.77 1378.74 1542.77 Q1374 1542.77 1371.26 1545.79 Q1368.53 1548.82 1368.53 1554.04 L1368.53 1574.19 L1362.64 1574.19 L1362.64 1538.54 L1368.53 1538.54 L1368.53 1544.08 Q1370.63 1540.86 1373.46 1539.27 Q1376.32 1537.68 1380.05 1537.68 Q1386.19 1537.68 1389.34 1541.5 Q1392.49 1545.29 1392.49 1552.67 Z" fill="#000000" fill-rule="nonzero" fill-opacity="1" /><path clip-path="url(#clip320)" d="M1427.63 1543.95 L1427.63 1524.66 L1433.49 1524.66 L1433.49 1574.19 L1427.63 1574.19 L1427.63 1568.84 Q1425.79 1572.02 1422.95 1573.58 Q1420.15 1575.11 1416.21 1575.11 Q1409.74 1575.11 1405.67 1569.95 Q1401.63 1564.8 1401.63 1556.39 Q1401.63 1547.99 1405.67 1542.83 Q1409.74 1537.68 1416.21 1537.68 Q1420.15 1537.68 1422.95 1539.24 Q1425.79 1540.77 1427.63 1543.95 M1407.68 1556.39 Q1407.68 1562.85 1410.32 1566.55 Q1412.99 1570.21 1417.64 1570.21 Q1422.28 1570.21 1424.96 1566.55 Q1427.63 1562.85 1427.63 1556.39 Q1427.63 1549.93 1424.96 1546.27 Q1422.28 1542.58 1417.64 1542.58 Q1412.99 1542.58 1410.32 1546.27 Q1407.68 1549.93 1407.68 1556.39 Z" fill="#000000" fill-rule="nonzero" fill-opacity="1" /><path clip-path="url(#clip320)" d="M1461.75 1556.27 Q1454.65 1556.27 1451.92 1557.89 Q1449.18 1559.51 1449.18 1563.43 Q1449.18 1566.55 1451.22 1568.39 Q1453.29 1570.21 1456.82 1570.21 Q1461.69 1570.21 1464.62 1566.77 Q1467.58 1563.3 1467.58 1557.57 L1467.58 1556.27 L1461.75 1556.27 M1473.43 1553.85 L1473.43 1574.19 L1467.58 1574.19 L1467.58 1568.77 Q1465.57 1572.02 1462.58 1573.58 Q1459.59 1575.11 1455.26 1575.11 Q1449.78 1575.11 1446.54 1572.05 Q1443.32 1568.97 1443.32 1563.81 Q1443.32 1557.79 1447.33 1554.74 Q1451.38 1551.68 1459.36 1551.68 L1467.58 1551.68 L1467.58 1551.11 Q1467.58 1547.07 1464.9 1544.87 Q1462.26 1542.64 1457.46 1542.64 Q1454.4 1542.64 1451.5 1543.38 Q1448.61 1544.11 1445.93 1545.57 L1445.93 1540.16 Q1449.15 1538.92 1452.17 1538.31 Q1455.2 1537.68 1458.06 1537.68 Q1465.79 1537.68 1469.61 1541.69 Q1473.43 1545.7 1473.43 1553.85 Z" fill="#000000" fill-rule="nonzero" fill-opacity="1" /><path clip-path="url(#clip320)" d="M1506.15 1544.01 Q1505.17 1543.44 1503.99 1543.18 Q1502.84 1542.9 1501.44 1542.9 Q1496.48 1542.9 1493.8 1546.14 Q1491.16 1549.36 1491.16 1555.41 L1491.16 1574.19 L1485.27 1574.19 L1485.27 1538.54 L1491.16 1538.54 L1491.16 1544.08 Q1493.01 1540.83 1495.97 1539.27 Q1498.93 1537.68 1503.16 1537.68 Q1503.77 1537.68 1504.5 1537.77 Q1505.23 1537.84 1506.12 1538 L1506.15 1544.01 Z" fill="#000000" fill-rule="nonzero" fill-opacity="1" /><path clip-path="url(#clip320)" d="M1534.61 1543.95 L1534.61 1524.66 L1540.46 1524.66 L1540.46 1574.19 L1534.61 1574.19 L1534.61 1568.84 Q1532.76 1572.02 1529.93 1573.58 Q1527.13 1575.11 1523.18 1575.11 Q1516.72 1575.11 1512.65 1569.95 Q1508.6 1564.8 1508.6 1556.39 Q1508.6 1547.99 1512.65 1542.83 Q1516.72 1537.68 1523.18 1537.68 Q1527.13 1537.68 1529.93 1539.24 Q1532.76 1540.77 1534.61 1543.95 M1514.65 1556.39 Q1514.65 1562.85 1517.29 1566.55 Q1519.97 1570.21 1524.61 1570.21 Q1529.26 1570.21 1531.93 1566.55 Q1534.61 1562.85 1534.61 1556.39 Q1534.61 1549.93 1531.93 1546.27 Q1529.26 1542.58 1524.61 1542.58 Q1519.97 1542.58 1517.29 1546.27 Q1514.65 1549.93 1514.65 1556.39 Z" fill="#000000" fill-rule="nonzero" fill-opacity="1" /><path clip-path="url(#clip320)" d="M1596.71 1543.95 L1596.71 1524.66 L1602.56 1524.66 L1602.56 1574.19 L1596.71 1574.19 L1596.71 1568.84 Q1594.86 1572.02 1592.03 1573.58 Q1589.23 1575.11 1585.28 1575.11 Q1578.82 1575.11 1574.74 1569.95 Q1570.7 1564.8 1570.7 1556.39 Q1570.7 1547.99 1574.74 1542.83 Q1578.82 1537.68 1585.28 1537.68 Q1589.23 1537.68 1592.03 1539.24 Q1594.86 1540.77 1596.71 1543.95 M1576.75 1556.39 Q1576.75 1562.85 1579.39 1566.55 Q1582.06 1570.21 1586.71 1570.21 Q1591.36 1570.21 1594.03 1566.55 Q1596.71 1562.85 1596.71 1556.39 Q1596.71 1549.93 1594.03 1546.27 Q1591.36 1542.58 1586.71 1542.58 Q1582.06 1542.58 1579.39 1546.27 Q1576.75 1549.93 1576.75 1556.39 Z" fill="#000000" fill-rule="nonzero" fill-opacity="1" /><path clip-path="url(#clip320)" d="M1645.12 1554.9 L1645.12 1557.76 L1618.19 1557.76 Q1618.57 1563.81 1621.82 1566.99 Q1625.1 1570.14 1630.92 1570.14 Q1634.29 1570.14 1637.45 1569.32 Q1640.63 1568.49 1643.75 1566.83 L1643.75 1572.37 Q1640.6 1573.71 1637.29 1574.41 Q1633.98 1575.11 1630.57 1575.11 Q1622.04 1575.11 1617.04 1570.14 Q1612.08 1565.18 1612.08 1556.71 Q1612.08 1547.96 1616.79 1542.83 Q1621.53 1537.68 1629.55 1537.68 Q1636.75 1537.68 1640.91 1542.33 Q1645.12 1546.94 1645.12 1554.9 M1639.26 1553.18 Q1639.2 1548.37 1636.55 1545.51 Q1633.94 1542.64 1629.62 1542.64 Q1624.71 1542.64 1621.75 1545.41 Q1618.83 1548.18 1618.38 1553.21 L1639.26 1553.18 Z" fill="#000000" fill-rule="nonzero" fill-opacity="1" /><path clip-path="url(#clip320)" d="M1650.53 1538.54 L1656.73 1538.54 L1667.87 1568.46 L1679.01 1538.54 L1685.22 1538.54 L1671.85 1574.19 L1663.9 1574.19 L1650.53 1538.54 Z" fill="#000000" fill-rule="nonzero" fill-opacity="1" /><path clip-path="url(#clip320)" d="M1693.3 1538.54 L1699.16 1538.54 L1699.16 1574.19 L1693.3 1574.19 L1693.3 1538.54 M1693.3 1524.66 L1699.16 1524.66 L1699.16 1532.08 L1693.3 1532.08 L1693.3 1524.66 Z" fill="#000000" fill-rule="nonzero" fill-opacity="1" /><path clip-path="url(#clip320)" d="M1727.62 1556.27 Q1720.52 1556.27 1717.78 1557.89 Q1715.04 1559.51 1715.04 1563.43 Q1715.04 1566.55 1717.08 1568.39 Q1719.15 1570.21 1722.68 1570.21 Q1727.55 1570.21 1730.48 1566.77 Q1733.44 1563.3 1733.44 1557.57 L1733.44 1556.27 L1727.62 1556.27 M1739.3 1553.85 L1739.3 1574.19 L1733.44 1574.19 L1733.44 1568.77 Q1731.44 1572.02 1728.44 1573.58 Q1725.45 1575.11 1721.12 1575.11 Q1715.65 1575.11 1712.4 1572.05 Q1709.19 1568.97 1709.19 1563.81 Q1709.19 1557.79 1713.2 1554.74 Q1717.24 1551.68 1725.23 1551.68 L1733.44 1551.68 L1733.44 1551.11 Q1733.44 1547.07 1730.77 1544.87 Q1728.13 1542.64 1723.32 1542.64 Q1720.26 1542.64 1717.37 1543.38 Q1714.47 1544.11 1711.8 1545.57 L1711.8 1540.16 Q1715.01 1538.92 1718.04 1538.31 Q1721.06 1537.68 1723.92 1537.68 Q1731.66 1537.68 1735.48 1541.69 Q1739.3 1545.7 1739.3 1553.85 Z" fill="#000000" fill-rule="nonzero" fill-opacity="1" /><path clip-path="url(#clip320)" d="M1757.15 1528.42 L1757.15 1538.54 L1769.22 1538.54 L1769.22 1543.09 L1757.15 1543.09 L1757.15 1562.44 Q1757.15 1566.8 1758.33 1568.04 Q1759.54 1569.28 1763.2 1569.28 L1769.22 1569.28 L1769.22 1574.19 L1763.2 1574.19 Q1756.42 1574.19 1753.84 1571.67 Q1751.26 1569.12 1751.26 1562.44 L1751.26 1543.09 L1746.97 1543.09 L1746.97 1538.54 L1751.26 1538.54 L1751.26 1528.42 L1757.15 1528.42 Z" fill="#000000" fill-rule="nonzero" fill-opacity="1" /><path clip-path="url(#clip320)" d="M1776.92 1538.54 L1782.77 1538.54 L1782.77 1574.19 L1776.92 1574.19 L1776.92 1538.54 M1776.92 1524.66 L1782.77 1524.66 L1782.77 1532.08 L1776.92 1532.08 L1776.92 1524.66 Z" fill="#000000" fill-rule="nonzero" fill-opacity="1" /><path clip-path="url(#clip320)" d="M1808.84 1542.64 Q1804.13 1542.64 1801.39 1546.34 Q1798.66 1550 1798.66 1556.39 Q1798.66 1562.79 1801.36 1566.48 Q1804.1 1570.14 1808.84 1570.14 Q1813.52 1570.14 1816.26 1566.45 Q1819 1562.76 1819 1556.39 Q1819 1550.06 1816.26 1546.37 Q1813.52 1542.64 1808.84 1542.64 M1808.84 1537.68 Q1816.48 1537.68 1820.84 1542.64 Q1825.2 1547.61 1825.2 1556.39 Q1825.2 1565.15 1820.84 1570.14 Q1816.48 1575.11 1808.84 1575.11 Q1801.17 1575.11 1796.81 1570.14 Q1792.48 1565.15 1792.48 1556.39 Q1792.48 1547.61 1796.81 1542.64 Q1801.17 1537.68 1808.84 1537.68 Z" fill="#000000" fill-rule="nonzero" fill-opacity="1" /><path clip-path="url(#clip320)" d="M1864.54 1552.67 L1864.54 1574.19 L1858.69 1574.19 L1858.69 1552.86 Q1858.69 1547.8 1856.71 1545.29 Q1854.74 1542.77 1850.79 1542.77 Q1846.05 1542.77 1843.31 1545.79 Q1840.58 1548.82 1840.58 1554.04 L1840.58 1574.19 L1834.69 1574.19 L1834.69 1538.54 L1840.58 1538.54 L1840.58 1544.08 Q1842.68 1540.86 1845.51 1539.27 Q1848.37 1537.68 1852.1 1537.68 Q1858.24 1537.68 1861.39 1541.5 Q1864.54 1545.29 1864.54 1552.67 Z" fill="#000000" fill-rule="nonzero" fill-opacity="1" /><polyline clip-path="url(#clip322)" style="stroke:#000000; stroke-linecap:round; stroke-linejoin:round; stroke-width:2; stroke-opacity:0.1; fill:none" points="239.19,1276.28 2352.76,1276.28 "/>
<polyline clip-path="url(#clip322)" style="stroke:#000000; stroke-linecap:round; stroke-linejoin:round; stroke-width:2; stroke-opacity:0.1; fill:none" points="239.19,1091.83 2352.76,1091.83 "/>
<polyline clip-path="url(#clip322)" style="stroke:#000000; stroke-linecap:round; stroke-linejoin:round; stroke-width:2; stroke-opacity:0.1; fill:none" points="239.19,907.38 2352.76,907.38 "/>
<polyline clip-path="url(#clip322)" style="stroke:#000000; stroke-linecap:round; stroke-linejoin:round; stroke-width:2; stroke-opacity:0.1; fill:none" points="239.19,722.931 2352.76,722.931 "/>
<polyline clip-path="url(#clip322)" style="stroke:#000000; stroke-linecap:round; stroke-linejoin:round; stroke-width:2; stroke-opacity:0.1; fill:none" points="239.19,538.482 2352.76,538.482 "/>
<polyline clip-path="url(#clip322)" style="stroke:#000000; stroke-linecap:round; stroke-linejoin:round; stroke-width:2; stroke-opacity:0.1; fill:none" points="239.19,354.033 2352.76,354.033 "/>
<polyline clip-path="url(#clip322)" style="stroke:#000000; stroke-linecap:round; stroke-linejoin:round; stroke-width:2; stroke-opacity:0.1; fill:none" points="239.19,169.583 2352.76,169.583 "/>
<polyline clip-path="url(#clip320)" style="stroke:#000000; stroke-linecap:round; stroke-linejoin:round; stroke-width:4; stroke-opacity:1; fill:none" points="239.19,1410.9 239.19,123.472 "/>
<polyline clip-path="url(#clip320)" style="stroke:#000000; stroke-linecap:round; stroke-linejoin:round; stroke-width:4; stroke-opacity:1; fill:none" points="239.19,1276.28 258.088,1276.28 "/>
<polyline clip-path="url(#clip320)" style="stroke:#000000; stroke-linecap:round; stroke-linejoin:round; stroke-width:4; stroke-opacity:1; fill:none" points="239.19,1091.83 258.088,1091.83 "/>
<polyline clip-path="url(#clip320)" style="stroke:#000000; stroke-linecap:round; stroke-linejoin:round; stroke-width:4; stroke-opacity:1; fill:none" points="239.19,907.38 258.088,907.38 "/>
<polyline clip-path="url(#clip320)" style="stroke:#000000; stroke-linecap:round; stroke-linejoin:round; stroke-width:4; stroke-opacity:1; fill:none" points="239.19,722.931 258.088,722.931 "/>
<polyline clip-path="url(#clip320)" style="stroke:#000000; stroke-linecap:round; stroke-linejoin:round; stroke-width:4; stroke-opacity:1; fill:none" points="239.19,538.482 258.088,538.482 "/>
<polyline clip-path="url(#clip320)" style="stroke:#000000; stroke-linecap:round; stroke-linejoin:round; stroke-width:4; stroke-opacity:1; fill:none" points="239.19,354.033 258.088,354.033 "/>
<polyline clip-path="url(#clip320)" style="stroke:#000000; stroke-linecap:round; stroke-linejoin:round; stroke-width:4; stroke-opacity:1; fill:none" points="239.19,169.583 258.088,169.583 "/>
<path clip-path="url(#clip320)" d="M50.9921 1276.73 L80.6679 1276.73 L80.6679 1280.66 L50.9921 1280.66 L50.9921 1276.73 Z" fill="#000000" fill-rule="nonzero" fill-opacity="1" /><path clip-path="url(#clip320)" d="M103.608 1263.07 L91.8021 1281.52 L103.608 1281.52 L103.608 1263.07 M102.381 1259 L108.26 1259 L108.26 1281.52 L113.191 1281.52 L113.191 1285.41 L108.26 1285.41 L108.26 1293.56 L103.608 1293.56 L103.608 1285.41 L88.0058 1285.41 L88.0058 1280.9 L102.381 1259 Z" fill="#000000" fill-rule="nonzero" fill-opacity="1" /><path clip-path="url(#clip320)" d="M119.742 1259 L141.964 1259 L141.964 1260.99 L129.418 1293.56 L124.533 1293.56 L136.339 1262.93 L119.742 1262.93 L119.742 1259 Z" fill="#000000" fill-rule="nonzero" fill-opacity="1" /><path clip-path="url(#clip320)" d="M151.13 1259 L169.487 1259 L169.487 1262.93 L155.413 1262.93 L155.413 1271.41 Q156.431 1271.06 157.45 1270.9 Q158.468 1270.71 159.487 1270.71 Q165.274 1270.71 168.654 1273.88 Q172.033 1277.05 172.033 1282.47 Q172.033 1288.05 168.561 1291.15 Q165.089 1294.23 158.769 1294.23 Q156.593 1294.23 154.325 1293.86 Q152.08 1293.49 149.672 1292.75 L149.672 1288.05 Q151.755 1289.18 153.978 1289.74 Q156.2 1290.29 158.677 1290.29 Q162.681 1290.29 165.019 1288.19 Q167.357 1286.08 167.357 1282.47 Q167.357 1278.86 165.019 1276.75 Q162.681 1274.65 158.677 1274.65 Q156.802 1274.65 154.927 1275.06 Q153.075 1275.48 151.13 1276.36 L151.13 1259 Z" fill="#000000" fill-rule="nonzero" fill-opacity="1" /><path clip-path="url(#clip320)" d="M191.246 1262.08 Q187.635 1262.08 185.806 1265.64 Q184.001 1269.18 184.001 1276.31 Q184.001 1283.42 185.806 1286.98 Q187.635 1290.53 191.246 1290.53 Q194.88 1290.53 196.686 1286.98 Q198.514 1283.42 198.514 1276.31 Q198.514 1269.18 196.686 1265.64 Q194.88 1262.08 191.246 1262.08 M191.246 1258.37 Q197.056 1258.37 200.112 1262.98 Q203.19 1267.56 203.19 1276.31 Q203.19 1285.04 200.112 1289.65 Q197.056 1294.23 191.246 1294.23 Q185.436 1294.23 182.357 1289.65 Q179.302 1285.04 179.302 1276.31 Q179.302 1267.56 182.357 1262.98 Q185.436 1258.37 191.246 1258.37 Z" fill="#000000" fill-rule="nonzero" fill-opacity="1" /><path clip-path="url(#clip320)" d="M50.9921 1092.28 L80.6679 1092.28 L80.6679 1096.22 L50.9921 1096.22 L50.9921 1092.28 Z" fill="#000000" fill-rule="nonzero" fill-opacity="1" /><path clip-path="url(#clip320)" d="M103.608 1078.62 L91.8021 1097.07 L103.608 1097.07 L103.608 1078.62 M102.381 1074.55 L108.26 1074.55 L108.26 1097.07 L113.191 1097.07 L113.191 1100.96 L108.26 1100.96 L108.26 1109.11 L103.608 1109.11 L103.608 1100.96 L88.0058 1100.96 L88.0058 1096.45 L102.381 1074.55 Z" fill="#000000" fill-rule="nonzero" fill-opacity="1" /><path clip-path="url(#clip320)" d="M120.969 1074.55 L139.325 1074.55 L139.325 1078.48 L125.251 1078.48 L125.251 1086.96 Q126.27 1086.61 127.288 1086.45 Q128.307 1086.26 129.325 1086.26 Q135.112 1086.26 138.492 1089.43 Q141.871 1092.6 141.871 1098.02 Q141.871 1103.6 138.399 1106.7 Q134.927 1109.78 128.607 1109.78 Q126.432 1109.78 124.163 1109.41 Q121.918 1109.04 119.51 1108.3 L119.51 1103.6 Q121.594 1104.73 123.816 1105.29 Q126.038 1105.85 128.515 1105.85 Q132.519 1105.85 134.857 1103.74 Q137.195 1101.63 137.195 1098.02 Q137.195 1094.41 134.857 1092.3 Q132.519 1090.2 128.515 1090.2 Q126.64 1090.2 124.765 1090.61 Q122.913 1091.03 120.969 1091.91 L120.969 1074.55 Z" fill="#000000" fill-rule="nonzero" fill-opacity="1" /><path clip-path="url(#clip320)" d="M161.084 1077.63 Q157.473 1077.63 155.644 1081.19 Q153.839 1084.73 153.839 1091.86 Q153.839 1098.97 155.644 1102.54 Q157.473 1106.08 161.084 1106.08 Q164.718 1106.08 166.524 1102.54 Q168.353 1098.97 168.353 1091.86 Q168.353 1084.73 166.524 1081.19 Q164.718 1077.63 161.084 1077.63 M161.084 1073.92 Q166.894 1073.92 169.95 1078.53 Q173.029 1083.11 173.029 1091.86 Q173.029 1100.59 169.95 1105.2 Q166.894 1109.78 161.084 1109.78 Q155.274 1109.78 152.195 1105.2 Q149.14 1100.59 149.14 1091.86 Q149.14 1083.11 152.195 1078.53 Q155.274 1073.92 161.084 1073.92 Z" fill="#000000" fill-rule="nonzero" fill-opacity="1" /><path clip-path="url(#clip320)" d="M191.246 1077.63 Q187.635 1077.63 185.806 1081.19 Q184.001 1084.73 184.001 1091.86 Q184.001 1098.97 185.806 1102.54 Q187.635 1106.08 191.246 1106.08 Q194.88 1106.08 196.686 1102.54 Q198.514 1098.97 198.514 1091.86 Q198.514 1084.73 196.686 1081.19 Q194.88 1077.63 191.246 1077.63 M191.246 1073.92 Q197.056 1073.92 200.112 1078.53 Q203.19 1083.11 203.19 1091.86 Q203.19 1100.59 200.112 1105.2 Q197.056 1109.78 191.246 1109.78 Q185.436 1109.78 182.357 1105.2 Q179.302 1100.59 179.302 1091.86 Q179.302 1083.11 182.357 1078.53 Q185.436 1073.92 191.246 1073.92 Z" fill="#000000" fill-rule="nonzero" fill-opacity="1" /><path clip-path="url(#clip320)" d="M50.9921 907.831 L80.6679 907.831 L80.6679 911.767 L50.9921 911.767 L50.9921 907.831 Z" fill="#000000" fill-rule="nonzero" fill-opacity="1" /><path clip-path="url(#clip320)" d="M103.608 894.174 L91.8021 912.623 L103.608 912.623 L103.608 894.174 M102.381 890.1 L108.26 890.1 L108.26 912.623 L113.191 912.623 L113.191 916.512 L108.26 916.512 L108.26 924.66 L103.608 924.66 L103.608 916.512 L88.0058 916.512 L88.0058 911.998 L102.381 890.1 Z" fill="#000000" fill-rule="nonzero" fill-opacity="1" /><path clip-path="url(#clip320)" d="M124.95 920.725 L141.269 920.725 L141.269 924.66 L119.325 924.66 L119.325 920.725 Q121.987 917.97 126.57 913.341 Q131.177 908.688 132.357 907.345 Q134.603 904.822 135.482 903.086 Q136.385 901.327 136.385 899.637 Q136.385 896.882 134.441 895.146 Q132.519 893.41 129.418 893.41 Q127.219 893.41 124.765 894.174 Q122.334 894.938 119.557 896.489 L119.557 891.767 Q122.381 890.632 124.834 890.054 Q127.288 889.475 129.325 889.475 Q134.695 889.475 137.89 892.16 Q141.084 894.845 141.084 899.336 Q141.084 901.466 140.274 903.387 Q139.487 905.285 137.381 907.878 Q136.802 908.549 133.7 911.767 Q130.598 914.961 124.95 920.725 Z" fill="#000000" fill-rule="nonzero" fill-opacity="1" /><path clip-path="url(#clip320)" d="M151.13 890.1 L169.487 890.1 L169.487 894.035 L155.413 894.035 L155.413 902.507 Q156.431 902.16 157.45 901.998 Q158.468 901.813 159.487 901.813 Q165.274 901.813 168.654 904.984 Q172.033 908.156 172.033 913.572 Q172.033 919.151 168.561 922.253 Q165.089 925.331 158.769 925.331 Q156.593 925.331 154.325 924.961 Q152.08 924.591 149.672 923.85 L149.672 919.151 Q151.755 920.285 153.978 920.841 Q156.2 921.396 158.677 921.396 Q162.681 921.396 165.019 919.29 Q167.357 917.183 167.357 913.572 Q167.357 909.961 165.019 907.855 Q162.681 905.748 158.677 905.748 Q156.802 905.748 154.927 906.165 Q153.075 906.581 151.13 907.461 L151.13 890.1 Z" fill="#000000" fill-rule="nonzero" fill-opacity="1" /><path clip-path="url(#clip320)" d="M191.246 893.179 Q187.635 893.179 185.806 896.744 Q184.001 900.285 184.001 907.415 Q184.001 914.521 185.806 918.086 Q187.635 921.628 191.246 921.628 Q194.88 921.628 196.686 918.086 Q198.514 914.521 198.514 907.415 Q198.514 900.285 196.686 896.744 Q194.88 893.179 191.246 893.179 M191.246 889.475 Q197.056 889.475 200.112 894.082 Q203.19 898.665 203.19 907.415 Q203.19 916.142 200.112 920.748 Q197.056 925.331 191.246 925.331 Q185.436 925.331 182.357 920.748 Q179.302 916.142 179.302 907.415 Q179.302 898.665 182.357 894.082 Q185.436 889.475 191.246 889.475 Z" fill="#000000" fill-rule="nonzero" fill-opacity="1" /><path clip-path="url(#clip320)" d="M50.9921 723.382 L80.6679 723.382 L80.6679 727.317 L50.9921 727.317 L50.9921 723.382 Z" fill="#000000" fill-rule="nonzero" fill-opacity="1" /><path clip-path="url(#clip320)" d="M103.608 709.725 L91.8021 728.174 L103.608 728.174 L103.608 709.725 M102.381 705.651 L108.26 705.651 L108.26 728.174 L113.191 728.174 L113.191 732.063 L108.26 732.063 L108.26 740.211 L103.608 740.211 L103.608 732.063 L88.0058 732.063 L88.0058 727.549 L102.381 705.651 Z" fill="#000000" fill-rule="nonzero" fill-opacity="1" /><path clip-path="url(#clip320)" d="M130.922 708.73 Q127.311 708.73 125.482 712.294 Q123.677 715.836 123.677 722.966 Q123.677 730.072 125.482 733.637 Q127.311 737.179 130.922 737.179 Q134.556 737.179 136.362 733.637 Q138.191 730.072 138.191 722.966 Q138.191 715.836 136.362 712.294 Q134.556 708.73 130.922 708.73 M130.922 705.026 Q136.732 705.026 139.788 709.632 Q142.867 714.216 142.867 722.966 Q142.867 731.692 139.788 736.299 Q136.732 740.882 130.922 740.882 Q125.112 740.882 122.033 736.299 Q118.978 731.692 118.978 722.966 Q118.978 714.216 122.033 709.632 Q125.112 705.026 130.922 705.026 Z" fill="#000000" fill-rule="nonzero" fill-opacity="1" /><path clip-path="url(#clip320)" d="M161.084 708.73 Q157.473 708.73 155.644 712.294 Q153.839 715.836 153.839 722.966 Q153.839 730.072 155.644 733.637 Q157.473 737.179 161.084 737.179 Q164.718 737.179 166.524 733.637 Q168.353 730.072 168.353 722.966 Q168.353 715.836 166.524 712.294 Q164.718 708.73 161.084 708.73 M161.084 705.026 Q166.894 705.026 169.95 709.632 Q173.029 714.216 173.029 722.966 Q173.029 731.692 169.95 736.299 Q166.894 740.882 161.084 740.882 Q155.274 740.882 152.195 736.299 Q149.14 731.692 149.14 722.966 Q149.14 714.216 152.195 709.632 Q155.274 705.026 161.084 705.026 Z" fill="#000000" fill-rule="nonzero" fill-opacity="1" /><path clip-path="url(#clip320)" d="M191.246 708.73 Q187.635 708.73 185.806 712.294 Q184.001 715.836 184.001 722.966 Q184.001 730.072 185.806 733.637 Q187.635 737.179 191.246 737.179 Q194.88 737.179 196.686 733.637 Q198.514 730.072 198.514 722.966 Q198.514 715.836 196.686 712.294 Q194.88 708.73 191.246 708.73 M191.246 705.026 Q197.056 705.026 200.112 709.632 Q203.19 714.216 203.19 722.966 Q203.19 731.692 200.112 736.299 Q197.056 740.882 191.246 740.882 Q185.436 740.882 182.357 736.299 Q179.302 731.692 179.302 722.966 Q179.302 714.216 182.357 709.632 Q185.436 705.026 191.246 705.026 Z" fill="#000000" fill-rule="nonzero" fill-opacity="1" /><path clip-path="url(#clip320)" d="M50.9921 538.933 L80.6679 538.933 L80.6679 542.868 L50.9921 542.868 L50.9921 538.933 Z" fill="#000000" fill-rule="nonzero" fill-opacity="1" /><path clip-path="url(#clip320)" d="M104.927 537.128 Q108.283 537.845 110.158 540.114 Q112.057 542.382 112.057 545.716 Q112.057 550.831 108.538 553.632 Q105.02 556.433 98.5382 556.433 Q96.3623 556.433 94.0475 555.993 Q91.7558 555.577 89.3021 554.72 L89.3021 550.206 Q91.2465 551.34 93.5613 551.919 Q95.8761 552.498 98.3993 552.498 Q102.797 552.498 105.089 550.762 Q107.404 549.026 107.404 545.716 Q107.404 542.66 105.251 540.947 Q103.121 539.211 99.3021 539.211 L95.2743 539.211 L95.2743 535.368 L99.4872 535.368 Q102.936 535.368 104.765 534.003 Q106.594 532.614 106.594 530.021 Q106.594 527.359 104.696 525.947 Q102.821 524.512 99.3021 524.512 Q97.3808 524.512 95.1817 524.929 Q92.9826 525.345 90.3438 526.225 L90.3438 522.058 Q93.0058 521.317 95.3206 520.947 Q97.6585 520.577 99.7187 520.577 Q105.043 520.577 108.145 523.007 Q111.246 525.415 111.246 529.535 Q111.246 532.405 109.603 534.396 Q107.959 536.364 104.927 537.128 Z" fill="#000000" fill-rule="nonzero" fill-opacity="1" /><path clip-path="url(#clip320)" d="M119.742 521.202 L141.964 521.202 L141.964 523.192 L129.418 555.762 L124.533 555.762 L136.339 525.137 L119.742 525.137 L119.742 521.202 Z" fill="#000000" fill-rule="nonzero" fill-opacity="1" /><path clip-path="url(#clip320)" d="M151.13 521.202 L169.487 521.202 L169.487 525.137 L155.413 525.137 L155.413 533.609 Q156.431 533.262 157.45 533.1 Q158.468 532.915 159.487 532.915 Q165.274 532.915 168.654 536.086 Q172.033 539.257 172.033 544.674 Q172.033 550.253 168.561 553.354 Q165.089 556.433 158.769 556.433 Q156.593 556.433 154.325 556.063 Q152.08 555.692 149.672 554.952 L149.672 550.253 Q151.755 551.387 153.978 551.942 Q156.2 552.498 158.677 552.498 Q162.681 552.498 165.019 550.391 Q167.357 548.285 167.357 544.674 Q167.357 541.063 165.019 538.956 Q162.681 536.85 158.677 536.85 Q156.802 536.85 154.927 537.266 Q153.075 537.683 151.13 538.563 L151.13 521.202 Z" fill="#000000" fill-rule="nonzero" fill-opacity="1" /><path clip-path="url(#clip320)" d="M191.246 524.28 Q187.635 524.28 185.806 527.845 Q184.001 531.387 184.001 538.516 Q184.001 545.623 185.806 549.188 Q187.635 552.729 191.246 552.729 Q194.88 552.729 196.686 549.188 Q198.514 545.623 198.514 538.516 Q198.514 531.387 196.686 527.845 Q194.88 524.28 191.246 524.28 M191.246 520.577 Q197.056 520.577 200.112 525.183 Q203.19 529.767 203.19 538.516 Q203.19 547.243 200.112 551.85 Q197.056 556.433 191.246 556.433 Q185.436 556.433 182.357 551.85 Q179.302 547.243 179.302 538.516 Q179.302 529.767 182.357 525.183 Q185.436 520.577 191.246 520.577 Z" fill="#000000" fill-rule="nonzero" fill-opacity="1" /><path clip-path="url(#clip320)" d="M50.9921 354.484 L80.6679 354.484 L80.6679 358.419 L50.9921 358.419 L50.9921 354.484 Z" fill="#000000" fill-rule="nonzero" fill-opacity="1" /><path clip-path="url(#clip320)" d="M104.927 352.678 Q108.283 353.396 110.158 355.665 Q112.057 357.933 112.057 361.266 Q112.057 366.382 108.538 369.183 Q105.02 371.984 98.5382 371.984 Q96.3623 371.984 94.0475 371.544 Q91.7558 371.127 89.3021 370.271 L89.3021 365.757 Q91.2465 366.891 93.5613 367.47 Q95.8761 368.049 98.3993 368.049 Q102.797 368.049 105.089 366.313 Q107.404 364.577 107.404 361.266 Q107.404 358.211 105.251 356.498 Q103.121 354.762 99.3021 354.762 L95.2743 354.762 L95.2743 350.919 L99.4872 350.919 Q102.936 350.919 104.765 349.553 Q106.594 348.165 106.594 345.572 Q106.594 342.91 104.696 341.498 Q102.821 340.063 99.3021 340.063 Q97.3808 340.063 95.1817 340.479 Q92.9826 340.896 90.3438 341.776 L90.3438 337.609 Q93.0058 336.868 95.3206 336.498 Q97.6585 336.128 99.7187 336.128 Q105.043 336.128 108.145 338.558 Q111.246 340.966 111.246 345.086 Q111.246 347.956 109.603 349.947 Q107.959 351.915 104.927 352.678 Z" fill="#000000" fill-rule="nonzero" fill-opacity="1" /><path clip-path="url(#clip320)" d="M120.969 336.753 L139.325 336.753 L139.325 340.688 L125.251 340.688 L125.251 349.16 Q126.27 348.813 127.288 348.651 Q128.307 348.466 129.325 348.466 Q135.112 348.466 138.492 351.637 Q141.871 354.808 141.871 360.225 Q141.871 365.803 138.399 368.905 Q134.927 371.984 128.607 371.984 Q126.432 371.984 124.163 371.614 Q121.918 371.243 119.51 370.502 L119.51 365.803 Q121.594 366.938 123.816 367.493 Q126.038 368.049 128.515 368.049 Q132.519 368.049 134.857 365.942 Q137.195 363.836 137.195 360.225 Q137.195 356.614 134.857 354.507 Q132.519 352.401 128.515 352.401 Q126.64 352.401 124.765 352.817 Q122.913 353.234 120.969 354.114 L120.969 336.753 Z" fill="#000000" fill-rule="nonzero" fill-opacity="1" /><path clip-path="url(#clip320)" d="M161.084 339.831 Q157.473 339.831 155.644 343.396 Q153.839 346.938 153.839 354.067 Q153.839 361.174 155.644 364.739 Q157.473 368.28 161.084 368.28 Q164.718 368.28 166.524 364.739 Q168.353 361.174 168.353 354.067 Q168.353 346.938 166.524 343.396 Q164.718 339.831 161.084 339.831 M161.084 336.128 Q166.894 336.128 169.95 340.734 Q173.029 345.317 173.029 354.067 Q173.029 362.794 169.95 367.401 Q166.894 371.984 161.084 371.984 Q155.274 371.984 152.195 367.401 Q149.14 362.794 149.14 354.067 Q149.14 345.317 152.195 340.734 Q155.274 336.128 161.084 336.128 Z" fill="#000000" fill-rule="nonzero" fill-opacity="1" /><path clip-path="url(#clip320)" d="M191.246 339.831 Q187.635 339.831 185.806 343.396 Q184.001 346.938 184.001 354.067 Q184.001 361.174 185.806 364.739 Q187.635 368.28 191.246 368.28 Q194.88 368.28 196.686 364.739 Q198.514 361.174 198.514 354.067 Q198.514 346.938 196.686 343.396 Q194.88 339.831 191.246 339.831 M191.246 336.128 Q197.056 336.128 200.112 340.734 Q203.19 345.317 203.19 354.067 Q203.19 362.794 200.112 367.401 Q197.056 371.984 191.246 371.984 Q185.436 371.984 182.357 367.401 Q179.302 362.794 179.302 354.067 Q179.302 345.317 182.357 340.734 Q185.436 336.128 191.246 336.128 Z" fill="#000000" fill-rule="nonzero" fill-opacity="1" /><path clip-path="url(#clip320)" d="M50.9921 170.035 L80.6679 170.035 L80.6679 173.97 L50.9921 173.97 L50.9921 170.035 Z" fill="#000000" fill-rule="nonzero" fill-opacity="1" /><path clip-path="url(#clip320)" d="M104.927 168.229 Q108.283 168.947 110.158 171.215 Q112.057 173.484 112.057 176.817 Q112.057 181.933 108.538 184.734 Q105.02 187.535 98.5382 187.535 Q96.3623 187.535 94.0475 187.095 Q91.7558 186.678 89.3021 185.822 L89.3021 181.308 Q91.2465 182.442 93.5613 183.021 Q95.8761 183.6 98.3993 183.6 Q102.797 183.6 105.089 181.863 Q107.404 180.127 107.404 176.817 Q107.404 173.762 105.251 172.049 Q103.121 170.313 99.3021 170.313 L95.2743 170.313 L95.2743 166.47 L99.4872 166.47 Q102.936 166.47 104.765 165.104 Q106.594 163.715 106.594 161.123 Q106.594 158.461 104.696 157.049 Q102.821 155.614 99.3021 155.614 Q97.3808 155.614 95.1817 156.03 Q92.9826 156.447 90.3438 157.327 L90.3438 153.16 Q93.0058 152.419 95.3206 152.049 Q97.6585 151.678 99.7187 151.678 Q105.043 151.678 108.145 154.109 Q111.246 156.516 111.246 160.637 Q111.246 163.507 109.603 165.498 Q107.959 167.465 104.927 168.229 Z" fill="#000000" fill-rule="nonzero" fill-opacity="1" /><path clip-path="url(#clip320)" d="M124.95 182.928 L141.269 182.928 L141.269 186.863 L119.325 186.863 L119.325 182.928 Q121.987 180.174 126.57 175.544 Q131.177 170.891 132.357 169.549 Q134.603 167.026 135.482 165.29 Q136.385 163.53 136.385 161.84 Q136.385 159.086 134.441 157.35 Q132.519 155.614 129.418 155.614 Q127.219 155.614 124.765 156.378 Q122.334 157.141 119.557 158.692 L119.557 153.97 Q122.381 152.836 124.834 152.257 Q127.288 151.678 129.325 151.678 Q134.695 151.678 137.89 154.364 Q141.084 157.049 141.084 161.54 Q141.084 163.669 140.274 165.59 Q139.487 167.489 137.381 170.081 Q136.802 170.752 133.7 173.97 Q130.598 177.164 124.95 182.928 Z" fill="#000000" fill-rule="nonzero" fill-opacity="1" /><path clip-path="url(#clip320)" d="M151.13 152.303 L169.487 152.303 L169.487 156.239 L155.413 156.239 L155.413 164.711 Q156.431 164.364 157.45 164.202 Q158.468 164.016 159.487 164.016 Q165.274 164.016 168.654 167.188 Q172.033 170.359 172.033 175.776 Q172.033 181.354 168.561 184.456 Q165.089 187.535 158.769 187.535 Q156.593 187.535 154.325 187.164 Q152.08 186.794 149.672 186.053 L149.672 181.354 Q151.755 182.488 153.978 183.044 Q156.2 183.6 158.677 183.6 Q162.681 183.6 165.019 181.493 Q167.357 179.387 167.357 175.776 Q167.357 172.164 165.019 170.058 Q162.681 167.952 158.677 167.952 Q156.802 167.952 154.927 168.368 Q153.075 168.785 151.13 169.664 L151.13 152.303 Z" fill="#000000" fill-rule="nonzero" fill-opacity="1" /><path clip-path="url(#clip320)" d="M191.246 155.382 Q187.635 155.382 185.806 158.947 Q184.001 162.489 184.001 169.618 Q184.001 176.725 185.806 180.289 Q187.635 183.831 191.246 183.831 Q194.88 183.831 196.686 180.289 Q198.514 176.725 198.514 169.618 Q198.514 162.489 196.686 158.947 Q194.88 155.382 191.246 155.382 M191.246 151.678 Q197.056 151.678 200.112 156.285 Q203.19 160.868 203.19 169.618 Q203.19 178.345 200.112 182.951 Q197.056 187.535 191.246 187.535 Q185.436 187.535 182.357 182.951 Q179.302 178.345 179.302 169.618 Q179.302 160.868 182.357 156.285 Q185.436 151.678 191.246 151.678 Z" fill="#000000" fill-rule="nonzero" fill-opacity="1" /><path clip-path="url(#clip320)" d="M1017.21 12.096 L1025.39 12.096 L1025.39 65.6895 L1054.84 65.6895 L1054.84 72.576 L1017.21 72.576 L1017.21 12.096 Z" fill="#000000" fill-rule="nonzero" fill-opacity="1" /><path clip-path="url(#clip320)" d="M1079.23 32.4315 Q1073.23 32.4315 1069.75 37.1306 Q1066.27 41.7891 1066.27 49.9314 Q1066.27 58.0738 1069.71 62.7728 Q1073.19 67.4314 1079.23 67.4314 Q1085.18 67.4314 1088.67 62.7323 Q1092.15 58.0333 1092.15 49.9314 Q1092.15 41.8701 1088.67 37.1711 Q1085.18 32.4315 1079.23 32.4315 M1079.23 26.1121 Q1088.95 26.1121 1094.5 32.4315 Q1100.05 38.7509 1100.05 49.9314 Q1100.05 61.0714 1094.5 67.4314 Q1088.95 73.7508 1079.23 73.7508 Q1069.47 73.7508 1063.92 67.4314 Q1058.41 61.0714 1058.41 49.9314 Q1058.41 38.7509 1063.92 32.4315 Q1069.47 26.1121 1079.23 26.1121 Z" fill="#000000" fill-rule="nonzero" fill-opacity="1" /><path clip-path="url(#clip320)" d="M1142.26 49.3643 Q1142.26 41.2625 1138.9 36.8065 Q1135.58 32.3505 1129.54 32.3505 Q1123.55 32.3505 1120.18 36.8065 Q1116.86 41.2625 1116.86 49.3643 Q1116.86 57.4256 1120.18 61.8816 Q1123.55 66.3376 1129.54 66.3376 Q1135.58 66.3376 1138.9 61.8816 Q1142.26 57.4256 1142.26 49.3643 M1149.72 66.9452 Q1149.72 78.5308 1144.57 84.1616 Q1139.43 89.8329 1128.81 89.8329 Q1124.88 89.8329 1121.4 89.2252 Q1117.92 88.6581 1114.63 87.4428 L1114.63 80.1917 Q1117.92 81.9741 1121.12 82.8248 Q1124.32 83.6755 1127.64 83.6755 Q1134.97 83.6755 1138.62 79.8271 Q1142.26 76.0193 1142.26 68.282 L1142.26 64.5957 Q1139.95 68.6061 1136.35 70.5911 Q1132.74 72.576 1127.72 72.576 Q1119.37 72.576 1114.27 66.2161 Q1109.17 59.8562 1109.17 49.3643 Q1109.17 38.832 1114.27 32.472 Q1119.37 26.1121 1127.72 26.1121 Q1132.74 26.1121 1136.35 28.0971 Q1139.95 30.082 1142.26 34.0924 L1142.26 27.2059 L1149.72 27.2059 L1149.72 66.9452 Z" fill="#000000" fill-rule="nonzero" fill-opacity="1" /><path clip-path="url(#clip320)" d="M1161.3 46.5287 L1183.14 46.5287 L1183.14 53.1722 L1161.3 53.1722 L1161.3 46.5287 Z" fill="#000000" fill-rule="nonzero" fill-opacity="1" /><path clip-path="url(#clip320)" d="M1195 9.54393 L1202.46 9.54393 L1202.46 72.576 L1195 72.576 L1195 9.54393 Z" fill="#000000" fill-rule="nonzero" fill-opacity="1" /><path clip-path="url(#clip320)" d="M1218.05 27.2059 L1225.51 27.2059 L1225.51 72.576 L1218.05 72.576 L1218.05 27.2059 M1218.05 9.54393 L1225.51 9.54393 L1225.51 18.9825 L1218.05 18.9825 L1218.05 9.54393 Z" fill="#000000" fill-rule="nonzero" fill-opacity="1" /><path clip-path="url(#clip320)" d="M1240.82 9.54393 L1248.31 9.54393 L1248.31 46.7717 L1270.55 27.2059 L1280.07 27.2059 L1256.01 48.4326 L1281.09 72.576 L1271.36 72.576 L1248.31 50.4176 L1248.31 72.576 L1240.82 72.576 L1240.82 9.54393 Z" fill="#000000" fill-rule="nonzero" fill-opacity="1" /><path clip-path="url(#clip320)" d="M1325 48.0275 L1325 51.6733 L1290.73 51.6733 Q1291.21 59.3701 1295.35 63.421 Q1299.52 67.4314 1306.93 67.4314 Q1311.22 67.4314 1315.24 66.3781 Q1319.29 65.3249 1323.26 63.2184 L1323.26 70.267 Q1319.25 71.9684 1315.03 72.8596 Q1310.82 73.7508 1306.49 73.7508 Q1295.63 73.7508 1289.27 67.4314 Q1282.95 61.1119 1282.95 50.3365 Q1282.95 39.1965 1288.94 32.6746 Q1294.98 26.1121 1305.19 26.1121 Q1314.34 26.1121 1319.65 32.0264 Q1325 37.9003 1325 48.0275 M1317.54 45.84 Q1317.46 39.7232 1314.1 36.0774 Q1310.78 32.4315 1305.27 32.4315 Q1299.03 32.4315 1295.26 35.9558 Q1291.54 39.4801 1290.97 45.8805 L1317.54 45.84 Z" fill="#000000" fill-rule="nonzero" fill-opacity="1" /><path clip-path="url(#clip320)" d="M1337.23 9.54393 L1344.69 9.54393 L1344.69 72.576 L1337.23 72.576 L1337.23 9.54393 Z" fill="#000000" fill-rule="nonzero" fill-opacity="1" /><path clip-path="url(#clip320)" d="M1360.28 27.2059 L1367.73 27.2059 L1367.73 72.576 L1360.28 72.576 L1360.28 27.2059 M1360.28 9.54393 L1367.73 9.54393 L1367.73 18.9825 L1360.28 18.9825 L1360.28 9.54393 Z" fill="#000000" fill-rule="nonzero" fill-opacity="1" /><path clip-path="url(#clip320)" d="M1421.04 45.1919 L1421.04 72.576 L1413.59 72.576 L1413.59 45.4349 Q1413.59 38.994 1411.08 35.7938 Q1408.57 32.5936 1403.54 32.5936 Q1397.51 32.5936 1394.03 36.4419 Q1390.54 40.2903 1390.54 46.9338 L1390.54 72.576 L1383.05 72.576 L1383.05 9.54393 L1390.54 9.54393 L1390.54 34.2544 Q1393.22 30.163 1396.82 28.1376 Q1400.47 26.1121 1405.21 26.1121 Q1413.02 26.1121 1417.03 30.9732 Q1421.04 35.7938 1421.04 45.1919 Z" fill="#000000" fill-rule="nonzero" fill-opacity="1" /><path clip-path="url(#clip320)" d="M1453.49 32.4315 Q1447.5 32.4315 1444.01 37.1306 Q1440.53 41.7891 1440.53 49.9314 Q1440.53 58.0738 1443.97 62.7728 Q1447.46 67.4314 1453.49 67.4314 Q1459.45 67.4314 1462.93 62.7323 Q1466.41 58.0333 1466.41 49.9314 Q1466.41 41.8701 1462.93 37.1711 Q1459.45 32.4315 1453.49 32.4315 M1453.49 26.1121 Q1463.21 26.1121 1468.76 32.4315 Q1474.31 38.7509 1474.31 49.9314 Q1474.31 61.0714 1468.76 67.4314 Q1463.21 73.7508 1453.49 73.7508 Q1443.73 73.7508 1438.18 67.4314 Q1432.67 61.0714 1432.67 49.9314 Q1432.67 38.7509 1438.18 32.4315 Q1443.73 26.1121 1453.49 26.1121 Z" fill="#000000" fill-rule="nonzero" fill-opacity="1" /><path clip-path="url(#clip320)" d="M1504.25 32.4315 Q1498.26 32.4315 1494.77 37.1306 Q1491.29 41.7891 1491.29 49.9314 Q1491.29 58.0738 1494.73 62.7728 Q1498.21 67.4314 1504.25 67.4314 Q1510.21 67.4314 1513.69 62.7323 Q1517.17 58.0333 1517.17 49.9314 Q1517.17 41.8701 1513.69 37.1711 Q1510.21 32.4315 1504.25 32.4315 M1504.25 26.1121 Q1513.97 26.1121 1519.52 32.4315 Q1525.07 38.7509 1525.07 49.9314 Q1525.07 61.0714 1519.52 67.4314 Q1513.97 73.7508 1504.25 73.7508 Q1494.49 73.7508 1488.94 67.4314 Q1483.43 61.0714 1483.43 49.9314 Q1483.43 38.7509 1488.94 32.4315 Q1494.49 26.1121 1504.25 26.1121 Z" fill="#000000" fill-rule="nonzero" fill-opacity="1" /><path clip-path="url(#clip320)" d="M1567.28 34.0924 L1567.28 9.54393 L1574.74 9.54393 L1574.74 72.576 L1567.28 72.576 L1567.28 65.7705 Q1564.93 69.8214 1561.33 71.8063 Q1557.76 73.7508 1552.74 73.7508 Q1544.52 73.7508 1539.33 67.1883 Q1534.19 60.6258 1534.19 49.9314 Q1534.19 39.2371 1539.33 32.6746 Q1544.52 26.1121 1552.74 26.1121 Q1557.76 26.1121 1561.33 28.0971 Q1564.93 30.0415 1567.28 34.0924 M1541.88 49.9314 Q1541.88 58.1548 1545.25 62.8538 Q1548.65 67.5124 1554.56 67.5124 Q1560.48 67.5124 1563.88 62.8538 Q1567.28 58.1548 1567.28 49.9314 Q1567.28 41.7081 1563.88 37.0496 Q1560.48 32.3505 1554.56 32.3505 Q1548.65 32.3505 1545.25 37.0496 Q1541.88 41.7081 1541.88 49.9314 Z" fill="#000000" fill-rule="nonzero" fill-opacity="1" /><polyline clip-path="url(#clip322)" style="stroke:#009af9; stroke-linecap:round; stroke-linejoin:round; stroke-width:4; stroke-opacity:1; fill:none" points="299.008,1374.46 332.804,1133.1 366.599,885.811 400.395,754.531 434.19,675.547 467.985,576.879 501.781,490.269 535.576,442.048 569.372,399.952 603.167,357.034 636.962,312.623 670.758,270.393 704.553,255.916 738.349,235.879 772.144,214.869 805.94,197.331 839.735,186.369 873.53,180.769 907.326,169.499 941.121,165.772 974.917,161.153 1008.71,160.741 1042.51,159.909 1076.3,162.347 1110.1,165.594 1143.89,172.735 1177.69,179.753 1211.48,189.342 1245.28,200.631 1279.08,214.74 1312.87,230.188 1346.67,248.157 1380.46,265.982 1414.26,286.324 1448.05,307.754 1481.85,331.882 1515.64,356.424 1549.44,383.085 1583.23,409.254 1617.03,436.282 1650.83,465.193 1684.62,493.618 1718.42,524.838 1752.21,554.791 1786.01,587.547 1819.8,615.698 1853.6,648.656 1887.39,681.346 1921.19,714.974 1954.98,749.861 1988.78,782.168 2022.57,815.83 2056.37,851.719 2090.17,880.689 2123.96,919.918 2157.76,954.075 2191.55,988.485 2225.35,1021.55 2259.14,1057.76 2292.94,1095.88 "/>
<polyline clip-path="url(#clip322)" style="stroke:#0000ff; stroke-linecap:round; stroke-linejoin:round; stroke-width:4; stroke-opacity:1; fill:none" stroke-dasharray="16, 10" points="1042.51,2698.32 1042.51,-1163.95 "/>
<path clip-path="url(#clip320)" d="M2022.5 270.066 L2282.3 270.066 L2282.3 166.386 L2022.5 166.386  Z" fill="#ffffff" fill-rule="evenodd" fill-opacity="1"/>
<polyline clip-path="url(#clip320)" style="stroke:#000000; stroke-linecap:round; stroke-linejoin:round; stroke-width:4; stroke-opacity:1; fill:none" points="2022.5,270.066 2282.3,270.066 2282.3,166.386 2022.5,166.386 2022.5,270.066 "/>
<polyline clip-path="url(#clip320)" style="stroke:#009af9; stroke-linecap:round; stroke-linejoin:round; stroke-width:4; stroke-opacity:1; fill:none" points="2045.98,218.226 2186.89,218.226 "/>
<path clip-path="url(#clip320)" d="M2215.05 204.789 L2215.05 217.775 L2220.93 217.775 Q2224.19 217.775 2225.97 216.085 Q2227.76 214.395 2227.76 211.27 Q2227.76 208.168 2225.97 206.479 Q2224.19 204.789 2220.93 204.789 L2215.05 204.789 M2210.37 200.946 L2220.93 200.946 Q2226.74 200.946 2229.7 203.585 Q2232.69 206.201 2232.69 211.27 Q2232.69 216.386 2229.7 219.002 Q2226.74 221.617 2220.93 221.617 L2215.05 221.617 L2215.05 235.506 L2210.37 235.506 L2210.37 200.946 Z" fill="#000000" fill-rule="nonzero" fill-opacity="1" /><path clip-path="url(#clip320)" d="M2238.96 200.946 L2258.82 200.946 L2258.82 204.881 L2243.63 204.881 L2243.63 215.067 L2257.34 215.067 L2257.34 219.002 L2243.63 219.002 L2243.63 235.506 L2238.96 235.506 L2238.96 200.946 Z" fill="#000000" fill-rule="nonzero" fill-opacity="1" /></svg>
