<?xml version="1.0" encoding="utf-8"?>
<svg xmlns="http://www.w3.org/2000/svg" xmlns:xlink="http://www.w3.org/1999/xlink" width="600" height="400" viewBox="0 0 2400 1600">
<defs>
  <clipPath id="clip850">
    <rect x="0" y="0" width="2400" height="1600"/>
  </clipPath>
</defs>
<path clip-path="url(#clip850)" d="M0 1600 L2400 1600 L2400 0 L0 0  Z" fill="#ffffff" fill-rule="evenodd" fill-opacity="1"/>
<defs>
  <clipPath id="clip851">
    <rect x="480" y="0" width="1681" height="1600"/>
  </clipPath>
</defs>
<path clip-path="url(#clip850)" d="M140.51 1486.45 L2352.76 1486.45 L2352.76 47.2441 L140.51 47.2441  Z" fill="#ffffff" fill-rule="evenodd" fill-opacity="1"/>
<defs>
  <clipPath id="clip852">
    <rect x="140" y="47" width="2213" height="1440"/>
  </clipPath>
</defs>
<polyline clip-path="url(#clip852)" style="stroke:#000000; stroke-linecap:round; stroke-linejoin:round; stroke-width:2; stroke-opacity:0.1; fill:none" points="352.821,1486.45 352.821,47.2441 "/>
<polyline clip-path="url(#clip852)" style="stroke:#000000; stroke-linecap:round; stroke-linejoin:round; stroke-width:2; stroke-opacity:0.1; fill:none" points="786.59,1486.45 786.59,47.2441 "/>
<polyline clip-path="url(#clip852)" style="stroke:#000000; stroke-linecap:round; stroke-linejoin:round; stroke-width:2; stroke-opacity:0.1; fill:none" points="1220.36,1486.45 1220.36,47.2441 "/>
<polyline clip-path="url(#clip852)" style="stroke:#000000; stroke-linecap:round; stroke-linejoin:round; stroke-width:2; stroke-opacity:0.1; fill:none" points="1654.13,1486.45 1654.13,47.2441 "/>
<polyline clip-path="url(#clip852)" style="stroke:#000000; stroke-linecap:round; stroke-linejoin:round; stroke-width:2; stroke-opacity:0.1; fill:none" points="2087.9,1486.45 2087.9,47.2441 "/>
<polyline clip-path="url(#clip852)" style="stroke:#000000; stroke-linecap:round; stroke-linejoin:round; stroke-width:2; stroke-opacity:0.1; fill:none" points="140.51,1179.7 2352.76,1179.7 "/>
<polyline clip-path="url(#clip852)" style="stroke:#000000; stroke-linecap:round; stroke-linejoin:round; stroke-width:2; stroke-opacity:0.1; fill:none" points="140.51,872.1 2352.76,872.1 "/>
<polyline clip-path="url(#clip852)" style="stroke:#000000; stroke-linecap:round; stroke-linejoin:round; stroke-width:2; stroke-opacity:0.1; fill:none" points="140.51,564.504 2352.76,564.504 "/>
<polyline clip-path="url(#clip852)" style="stroke:#000000; stroke-linecap:round; stroke-linejoin:round; stroke-width:2; stroke-opacity:0.1; fill:none" points="140.51,256.908 2352.76,256.908 "/>
<polyline clip-path="url(#clip850)" style="stroke:#000000; stroke-linecap:round; stroke-linejoin:round; stroke-width:4; stroke-opacity:1; fill:none" points="140.51,1486.45 2352.76,1486.45 "/>
<polyline clip-path="url(#clip850)" style="stroke:#000000; stroke-linecap:round; stroke-linejoin:round; stroke-width:4; stroke-opacity:1; fill:none" points="352.821,1486.45 352.821,1467.55 "/>
<polyline clip-path="url(#clip850)" style="stroke:#000000; stroke-linecap:round; stroke-linejoin:round; stroke-width:4; stroke-opacity:1; fill:none" points="786.59,1486.45 786.59,1467.55 "/>
<polyline clip-path="url(#clip850)" style="stroke:#000000; stroke-linecap:round; stroke-linejoin:round; stroke-width:4; stroke-opacity:1; fill:none" points="1220.36,1486.45 1220.36,1467.55 "/>
<polyline clip-path="url(#clip850)" style="stroke:#000000; stroke-linecap:round; stroke-linejoin:round; stroke-width:4; stroke-opacity:1; fill:none" points="1654.13,1486.45 1654.13,1467.55 "/>
<polyline clip-path="url(#clip850)" style="stroke:#000000; stroke-linecap:round; stroke-linejoin:round; stroke-width:4; stroke-opacity:1; fill:none" points="2087.9,1486.45 2087.9,1467.55 "/>
<path clip-path="url(#clip850)" d="M306.884 1532.02 L336.56 1532.02 L336.56 1535.95 L306.884 1535.95 L306.884 1532.02 Z" fill="#000000" fill-rule="nonzero" fill-opacity="1" /><path clip-path="url(#clip850)" d="M360.819 1530.21 Q364.176 1530.93 366.051 1533.2 Q367.949 1535.47 367.949 1538.8 Q367.949 1543.92 364.43 1546.72 Q360.912 1549.52 354.43 1549.52 Q352.254 1549.52 349.94 1549.08 Q347.648 1548.66 345.194 1547.81 L345.194 1543.29 Q347.139 1544.43 349.453 1545.01 Q351.768 1545.58 354.291 1545.58 Q358.689 1545.58 360.981 1543.85 Q363.296 1542.11 363.296 1538.8 Q363.296 1535.75 361.143 1534.03 Q359.014 1532.3 355.194 1532.3 L351.166 1532.3 L351.166 1528.45 L355.379 1528.45 Q358.828 1528.45 360.657 1527.09 Q362.486 1525.7 362.486 1523.11 Q362.486 1520.45 360.588 1519.03 Q358.713 1517.6 355.194 1517.6 Q353.273 1517.6 351.074 1518.01 Q348.875 1518.43 346.236 1519.31 L346.236 1515.14 Q348.898 1514.4 351.213 1514.03 Q353.551 1513.66 355.611 1513.66 Q360.935 1513.66 364.037 1516.09 Q367.138 1518.5 367.138 1522.62 Q367.138 1525.49 365.495 1527.48 Q363.851 1529.45 360.819 1530.21 Z" fill="#000000" fill-rule="nonzero" fill-opacity="1" /><path clip-path="url(#clip850)" d="M386.814 1517.37 Q383.203 1517.37 381.375 1520.93 Q379.569 1524.47 379.569 1531.6 Q379.569 1538.71 381.375 1542.27 Q383.203 1545.82 386.814 1545.82 Q390.449 1545.82 392.254 1542.27 Q394.083 1538.71 394.083 1531.6 Q394.083 1524.47 392.254 1520.93 Q390.449 1517.37 386.814 1517.37 M386.814 1513.66 Q392.624 1513.66 395.68 1518.27 Q398.759 1522.85 398.759 1531.6 Q398.759 1540.33 395.68 1544.94 Q392.624 1549.52 386.814 1549.52 Q381.004 1549.52 377.925 1544.94 Q374.87 1540.33 374.87 1531.6 Q374.87 1522.85 377.925 1518.27 Q381.004 1513.66 386.814 1513.66 Z" fill="#000000" fill-rule="nonzero" fill-opacity="1" /><path clip-path="url(#clip850)" d="M786.59 1517.37 Q782.979 1517.37 781.15 1520.93 Q779.345 1524.47 779.345 1531.6 Q779.345 1538.71 781.15 1542.27 Q782.979 1545.82 786.59 1545.82 Q790.224 1545.82 792.03 1542.27 Q793.859 1538.71 793.859 1531.6 Q793.859 1524.47 792.03 1520.93 Q790.224 1517.37 786.59 1517.37 M786.59 1513.66 Q792.4 1513.66 795.456 1518.27 Q798.535 1522.85 798.535 1531.6 Q798.535 1540.33 795.456 1544.94 Q792.4 1549.52 786.59 1549.52 Q780.78 1549.52 777.701 1544.94 Q774.646 1540.33 774.646 1531.6 Q774.646 1522.85 777.701 1518.27 Q780.78 1513.66 786.59 1513.66 Z" fill="#000000" fill-rule="nonzero" fill-opacity="1" /><path clip-path="url(#clip850)" d="M1209.2 1530.21 Q1212.56 1530.93 1214.43 1533.2 Q1216.33 1535.47 1216.33 1538.8 Q1216.33 1543.92 1212.81 1546.72 Q1209.29 1549.52 1202.81 1549.52 Q1200.64 1549.52 1198.32 1549.08 Q1196.03 1548.66 1193.58 1547.81 L1193.58 1543.29 Q1195.52 1544.43 1197.84 1545.01 Q1200.15 1545.58 1202.67 1545.58 Q1207.07 1545.58 1209.36 1543.85 Q1211.68 1542.11 1211.68 1538.8 Q1211.68 1535.75 1209.53 1534.03 Q1207.4 1532.3 1203.58 1532.3 L1199.55 1532.3 L1199.55 1528.45 L1203.76 1528.45 Q1207.21 1528.45 1209.04 1527.09 Q1210.87 1525.7 1210.87 1523.11 Q1210.87 1520.45 1208.97 1519.03 Q1207.1 1517.6 1203.58 1517.6 Q1201.66 1517.6 1199.46 1518.01 Q1197.26 1518.43 1194.62 1519.31 L1194.62 1515.14 Q1197.28 1514.4 1199.6 1514.03 Q1201.93 1513.66 1203.99 1513.66 Q1209.32 1513.66 1212.42 1516.09 Q1215.52 1518.5 1215.52 1522.62 Q1215.52 1525.49 1213.88 1527.48 Q1212.23 1529.45 1209.2 1530.21 Z" fill="#000000" fill-rule="nonzero" fill-opacity="1" /><path clip-path="url(#clip850)" d="M1235.2 1517.37 Q1231.59 1517.37 1229.76 1520.93 Q1227.95 1524.47 1227.95 1531.6 Q1227.95 1538.71 1229.76 1542.27 Q1231.59 1545.82 1235.2 1545.82 Q1238.83 1545.82 1240.64 1542.27 Q1242.47 1538.71 1242.47 1531.6 Q1242.47 1524.47 1240.64 1520.93 Q1238.83 1517.37 1235.2 1517.37 M1235.2 1513.66 Q1241.01 1513.66 1244.06 1518.27 Q1247.14 1522.85 1247.14 1531.6 Q1247.14 1540.33 1244.06 1544.94 Q1241.01 1549.52 1235.2 1549.52 Q1229.39 1549.52 1226.31 1544.94 Q1223.25 1540.33 1223.25 1531.6 Q1223.25 1522.85 1226.31 1518.27 Q1229.39 1513.66 1235.2 1513.66 Z" fill="#000000" fill-rule="nonzero" fill-opacity="1" /><path clip-path="url(#clip850)" d="M1639.53 1529.7 Q1636.38 1529.7 1634.53 1531.86 Q1632.7 1534.01 1632.7 1537.76 Q1632.7 1541.49 1634.53 1543.66 Q1636.38 1545.82 1639.53 1545.82 Q1642.68 1545.82 1644.51 1543.66 Q1646.36 1541.49 1646.36 1537.76 Q1646.36 1534.01 1644.51 1531.86 Q1642.68 1529.7 1639.53 1529.7 M1648.82 1515.05 L1648.82 1519.31 Q1647.06 1518.48 1645.25 1518.04 Q1643.47 1517.6 1641.71 1517.6 Q1637.08 1517.6 1634.63 1520.72 Q1632.19 1523.85 1631.85 1530.17 Q1633.21 1528.15 1635.27 1527.09 Q1637.33 1526 1639.81 1526 Q1645.02 1526 1648.03 1529.17 Q1651.06 1532.32 1651.06 1537.76 Q1651.06 1543.08 1647.91 1546.3 Q1644.76 1549.52 1639.53 1549.52 Q1633.54 1549.52 1630.37 1544.94 Q1627.19 1540.33 1627.19 1531.6 Q1627.19 1523.41 1631.08 1518.55 Q1634.97 1513.66 1641.52 1513.66 Q1643.28 1513.66 1645.07 1514.01 Q1646.87 1514.36 1648.82 1515.05 Z" fill="#000000" fill-rule="nonzero" fill-opacity="1" /><path clip-path="url(#clip850)" d="M1669.12 1517.37 Q1665.5 1517.37 1663.68 1520.93 Q1661.87 1524.47 1661.87 1531.6 Q1661.87 1538.71 1663.68 1542.27 Q1665.5 1545.82 1669.12 1545.82 Q1672.75 1545.82 1674.56 1542.27 Q1676.38 1538.71 1676.38 1531.6 Q1676.38 1524.47 1674.56 1520.93 Q1672.75 1517.37 1669.12 1517.37 M1669.12 1513.66 Q1674.93 1513.66 1677.98 1518.27 Q1681.06 1522.85 1681.06 1531.6 Q1681.06 1540.33 1677.98 1544.94 Q1674.93 1549.52 1669.12 1549.52 Q1663.31 1549.52 1660.23 1544.94 Q1657.17 1540.33 1657.17 1531.6 Q1657.17 1522.85 1660.23 1518.27 Q1663.31 1513.66 1669.12 1513.66 Z" fill="#000000" fill-rule="nonzero" fill-opacity="1" /><path clip-path="url(#clip850)" d="M2063.02 1548.13 L2063.02 1543.87 Q2064.78 1544.7 2066.59 1545.14 Q2068.39 1545.58 2070.13 1545.58 Q2074.76 1545.58 2077.19 1542.48 Q2079.64 1539.36 2079.99 1533.01 Q2078.65 1535.01 2076.59 1536.07 Q2074.53 1537.13 2072.03 1537.13 Q2066.84 1537.13 2063.81 1534.01 Q2060.8 1530.86 2060.8 1525.42 Q2060.8 1520.1 2063.95 1516.88 Q2067.1 1513.66 2072.33 1513.66 Q2078.32 1513.66 2081.47 1518.27 Q2084.64 1522.85 2084.64 1531.6 Q2084.64 1539.77 2080.76 1544.66 Q2076.89 1549.52 2070.34 1549.52 Q2068.58 1549.52 2066.77 1549.17 Q2064.97 1548.82 2063.02 1548.13 M2072.33 1533.48 Q2075.48 1533.48 2077.31 1531.32 Q2079.16 1529.17 2079.16 1525.42 Q2079.16 1521.7 2077.31 1519.54 Q2075.48 1517.37 2072.33 1517.37 Q2069.18 1517.37 2067.33 1519.54 Q2065.5 1521.7 2065.5 1525.42 Q2065.5 1529.17 2067.33 1531.32 Q2069.18 1533.48 2072.33 1533.48 Z" fill="#000000" fill-rule="nonzero" fill-opacity="1" /><path clip-path="url(#clip850)" d="M2103.05 1517.37 Q2099.44 1517.37 2097.61 1520.93 Q2095.8 1524.47 2095.8 1531.6 Q2095.8 1538.71 2097.61 1542.27 Q2099.44 1545.82 2103.05 1545.82 Q2106.68 1545.82 2108.49 1542.27 Q2110.32 1538.71 2110.32 1531.6 Q2110.32 1524.47 2108.49 1520.93 Q2106.68 1517.37 2103.05 1517.37 M2103.05 1513.66 Q2108.86 1513.66 2111.91 1518.27 Q2114.99 1522.85 2114.99 1531.6 Q2114.99 1540.33 2111.91 1544.94 Q2108.86 1549.52 2103.05 1549.52 Q2097.24 1549.52 2094.16 1544.94 Q2091.1 1540.33 2091.1 1531.6 Q2091.1 1522.85 2094.16 1518.27 Q2097.24 1513.66 2103.05 1513.66 Z" fill="#000000" fill-rule="nonzero" fill-opacity="1" /><polyline clip-path="url(#clip850)" style="stroke:#000000; stroke-linecap:round; stroke-linejoin:round; stroke-width:4; stroke-opacity:1; fill:none" points="140.51,1486.45 140.51,47.2441 "/>
<polyline clip-path="url(#clip850)" style="stroke:#000000; stroke-linecap:round; stroke-linejoin:round; stroke-width:4; stroke-opacity:1; fill:none" points="140.51,1179.7 159.408,1179.7 "/>
<polyline clip-path="url(#clip850)" style="stroke:#000000; stroke-linecap:round; stroke-linejoin:round; stroke-width:4; stroke-opacity:1; fill:none" points="140.51,872.1 159.408,872.1 "/>
<polyline clip-path="url(#clip850)" style="stroke:#000000; stroke-linecap:round; stroke-linejoin:round; stroke-width:4; stroke-opacity:1; fill:none" points="140.51,564.504 159.408,564.504 "/>
<polyline clip-path="url(#clip850)" style="stroke:#000000; stroke-linecap:round; stroke-linejoin:round; stroke-width:4; stroke-opacity:1; fill:none" points="140.51,256.908 159.408,256.908 "/>
<path clip-path="url(#clip850)" d="M92.566 1165.49 Q88.9549 1165.49 87.1262 1169.06 Q85.3206 1172.6 85.3206 1179.73 Q85.3206 1186.84 87.1262 1190.4 Q88.9549 1193.94 92.566 1193.94 Q96.2002 1193.94 98.0058 1190.4 Q99.8345 1186.84 99.8345 1179.73 Q99.8345 1172.6 98.0058 1169.06 Q96.2002 1165.49 92.566 1165.49 M92.566 1161.79 Q98.3761 1161.79 101.432 1166.4 Q104.51 1170.98 104.51 1179.73 Q104.51 1188.46 101.432 1193.06 Q98.3761 1197.65 92.566 1197.65 Q86.7558 1197.65 83.6771 1193.06 Q80.6216 1188.46 80.6216 1179.73 Q80.6216 1170.98 83.6771 1166.4 Q86.7558 1161.79 92.566 1161.79 Z" fill="#000000" fill-rule="nonzero" fill-opacity="1" /><path clip-path="url(#clip850)" d="M57.4273 885.445 L73.7466 885.445 L73.7466 889.38 L51.8023 889.38 L51.8023 885.445 Q54.4643 882.69 59.0476 878.061 Q63.6541 873.408 64.8346 872.065 Q67.08 869.542 67.9596 867.806 Q68.8624 866.047 68.8624 864.357 Q68.8624 861.602 66.918 859.866 Q64.9967 858.13 61.8948 858.13 Q59.6958 858.13 57.2421 858.894 Q54.8115 859.658 52.0338 861.209 L52.0338 856.487 Q54.8578 855.352 57.3115 854.774 Q59.7652 854.195 61.8023 854.195 Q67.1726 854.195 70.367 856.88 Q73.5614 859.565 73.5614 864.056 Q73.5614 866.186 72.7513 868.107 Q71.9642 870.005 69.8578 872.598 Q69.2791 873.269 66.1772 876.486 Q63.0754 879.681 57.4273 885.445 Z" fill="#000000" fill-rule="nonzero" fill-opacity="1" /><path clip-path="url(#clip850)" d="M83.6077 854.82 L101.964 854.82 L101.964 858.755 L87.8901 858.755 L87.8901 867.227 Q88.9086 866.88 89.9271 866.718 Q90.9456 866.533 91.9641 866.533 Q97.7511 866.533 101.131 869.704 Q104.51 872.875 104.51 878.292 Q104.51 883.871 101.038 886.973 Q97.566 890.051 91.2465 890.051 Q89.0706 890.051 86.8021 889.681 Q84.5568 889.31 82.1494 888.57 L82.1494 883.871 Q84.2327 885.005 86.4549 885.561 Q88.6771 886.116 91.1539 886.116 Q95.1586 886.116 97.4965 884.01 Q99.8345 881.903 99.8345 878.292 Q99.8345 874.681 97.4965 872.574 Q95.1586 870.468 91.1539 870.468 Q89.279 870.468 87.404 870.885 Q85.5521 871.301 83.6077 872.181 L83.6077 854.82 Z" fill="#000000" fill-rule="nonzero" fill-opacity="1" /><path clip-path="url(#clip850)" d="M52.4505 547.224 L70.8068 547.224 L70.8068 551.159 L56.7328 551.159 L56.7328 559.631 Q57.7513 559.284 58.7699 559.122 Q59.7884 558.937 60.8069 558.937 Q66.5939 558.937 69.9735 562.108 Q73.3531 565.279 73.3531 570.696 Q73.3531 576.275 69.8809 579.377 Q66.4087 582.455 60.0893 582.455 Q57.9134 582.455 55.6449 582.085 Q53.3995 581.715 50.9921 580.974 L50.9921 576.275 Q53.0754 577.409 55.2977 577.965 Q57.5199 578.52 59.9967 578.52 Q64.0013 578.52 66.3393 576.414 Q68.6772 574.307 68.6772 570.696 Q68.6772 567.085 66.3393 564.978 Q64.0013 562.872 59.9967 562.872 Q58.1217 562.872 56.2467 563.289 Q54.3949 563.705 52.4505 564.585 L52.4505 547.224 Z" fill="#000000" fill-rule="nonzero" fill-opacity="1" /><path clip-path="url(#clip850)" d="M92.566 550.303 Q88.9549 550.303 87.1262 553.867 Q85.3206 557.409 85.3206 564.539 Q85.3206 571.645 87.1262 575.21 Q88.9549 578.752 92.566 578.752 Q96.2002 578.752 98.0058 575.21 Q99.8345 571.645 99.8345 564.539 Q99.8345 557.409 98.0058 553.867 Q96.2002 550.303 92.566 550.303 M92.566 546.599 Q98.3761 546.599 101.432 551.205 Q104.51 555.789 104.51 564.539 Q104.51 573.265 101.432 577.872 Q98.3761 582.455 92.566 582.455 Q86.7558 582.455 83.6771 577.872 Q80.6216 573.265 80.6216 564.539 Q80.6216 555.789 83.6771 551.205 Q86.7558 546.599 92.566 546.599 Z" fill="#000000" fill-rule="nonzero" fill-opacity="1" /><path clip-path="url(#clip850)" d="M52.219 239.628 L74.4411 239.628 L74.4411 241.619 L61.8948 274.188 L57.0106 274.188 L68.8161 243.563 L52.219 243.563 L52.219 239.628 Z" fill="#000000" fill-rule="nonzero" fill-opacity="1" /><path clip-path="url(#clip850)" d="M83.6077 239.628 L101.964 239.628 L101.964 243.563 L87.8901 243.563 L87.8901 252.035 Q88.9086 251.688 89.9271 251.526 Q90.9456 251.341 91.9641 251.341 Q97.7511 251.341 101.131 254.512 Q104.51 257.683 104.51 263.1 Q104.51 268.679 101.038 271.781 Q97.566 274.859 91.2465 274.859 Q89.0706 274.859 86.8021 274.489 Q84.5568 274.119 82.1494 273.378 L82.1494 268.679 Q84.2327 269.813 86.4549 270.369 Q88.6771 270.924 91.1539 270.924 Q95.1586 270.924 97.4965 268.818 Q99.8345 266.711 99.8345 263.1 Q99.8345 259.489 97.4965 257.383 Q95.1586 255.276 91.1539 255.276 Q89.279 255.276 87.404 255.693 Q85.5521 256.109 83.6077 256.989 L83.6077 239.628 Z" fill="#000000" fill-rule="nonzero" fill-opacity="1" /><polyline clip-path="url(#clip852)" style="stroke:#0000ff; stroke-linecap:round; stroke-linejoin:round; stroke-width:4; stroke-opacity:1; fill:none" points="203.121,717.187 228.437,722.603 233.749,718.199 254.016,716.585 262.82,716.376 283.861,719.979 303.491,723.881 330.057,725.533 356.848,727.793 387.617,732.498 416.922,731.981 441.409,732.226 477.526,733.722 499.723,740.225 522.768,744.422 557.751,747.179 583.199,748.919 604.124,754.201 632.998,760.709 656.546,768.159 679.666,776.319 702.846,782.683 731.042,789.287 754.065,797.948 780.079,803.323 811.036,811.016 833.698,810.402 867.877,812.457 893.262,821.165 919.497,829.143 950.611,839.122 975.213,847.488 1001.15,854.413 1019.33,864.954 1036.7,877.119 1043.95,882.25 1065.73,884.474 1083.37,885.96 1105.91,887.36 1132.3,890.796 1159.1,901.277 1186.27,912.173 1207.9,917.093 1233.57,920.043 1266.19,921.237 1295.24,921.903 1328.67,926.435 1356.32,931.76 1381.56,935.416 1406.39,937.934 1438.6,937.358 1462.9,936.838 1489.33,936.273 1516.27,933.562 1545.71,928.347 1574.7,929.482 1602.39,927.722 1628.38,928.345 1648.58,920.976 1666.46,918.299 1683.06,911.647 1701,905.259 1722.63,904.947 1746.09,902.755 1768.37,905.306 1787.59,909.277 1809.31,915.947 1829.17,927.565 1850.15,940.312 1865.43,951.606 1881.12,968.359 1891.26,982.195 1898.32,996.414 1907.85,1015.34 1920.62,1032.83 1933.8,1051.42 1944.78,1061.78 1963.93,1068 1978.63,1070.32 1988.93,1069.74 2011.41,1061.8 2027.39,1056.38 2046.74,1035.79 2058.14,1020.36 2061.58,1000.01 2063.47,982.031 2062.42,960.746 2047.83,946.007 2028.67,939.183 2005.87,930.986 1976.58,933.32 1951.88,931.986 1931.86,929.052 1913.63,926.007 1892.11,923.476 1872.21,929.983 1849.93,936.555 1833.81,944.341 1810.35,946.692 1785.05,945.594 1757.39,940.573 1735.32,929.641 1712.64,918.773 1682.11,903.242 1656.61,885.452 1634,867.325 1619.35,852.799 1607.93,840.044 1591.36,826.557 1577.12,810.154 1565.24,794.875 1557.21,778.353 1557.68,762.824 1570.91,747.246 1585.63,736.313 1609.61,729.454 1627.43,731.127 1653.35,731.742 1672.64,744.841 1694.7,751.694 1708.37,756.703 1730.63,762.42 1752.96,773.23 1764.21,782.091 1781.95,792.426 1800.65,803.302 1823.03,810.793 1843.59,812.023 1864.94,812.07 1888.68,804.501 1909.49,800.466 1925.81,800.313 1945.23,808.946 1961.42,821.395 1976.66,837.471 1986.04,853.62 1994.65,873.639 2002.52,894.955 2006.55,914.114 2005.32,935.105 2005.31,945.17 2008.69,958.42 2019.98,976.789 2027.21,994.22 2038.83,1008.92 2050.57,1015.49 2064.17,1019.01 2082.61,1014.5 2102.37,1006.34 2115.98,998.136 2132.01,986.094 2141.09,977.116 2143.1,956.925 2132.29,939.218 2113.75,922.558 2100.09,906.639 2076.36,895.722 2047.35,891.622 2020.66,887.4 2003.42,885.078 1979.6,883.032 1959.46,880.724 1941.07,870.385 1926.69,863.809 1904.39,857.485 1888.25,857.436 1865.79,860.23 1845.28,854.263 1824.35,848.482 1805.16,847.615 1780.14,844.364 1762.15,839.215 1745.09,834.64 1723.24,833.328 1695.26,835.263 1668.86,841.561 1653.15,839.882 1650.28,831.277 1644.82,828.166 1637.65,826.923 1626.32,826.374 1617.59,825.775 1603.48,830.424 1588.58,837.244 1562.71,841.532 1541.1,845.285 1526.84,850.693 1517.65,859.528 1525.32,859.843 1543.39,857.836 1577.93,853.927 1592.44,835.515 1608.76,820.901 1615.49,805.106 1606.93,787.565 1592.61,770.006 1580.42,759.489 1570.32,738.387 1550.52,728.345 1529.25,740.734 1506.74,740.543 1478.2,734.627 1475.27,716.107 1470.96,697.145 1472.65,675.941 1476.82,660.105 1493.07,638.236 1500.07,618.076 1502.19,595.297 1484.85,583.077 1462.3,575.243 1452.13,573.354 1463.26,560.203 1485.32,549.618 1522.89,548.71 1561.45,534.056 1586.5,516.961 1604.52,492.506 1618.38,471.586 1640.34,463.485 1665.58,466.325 1689.68,471.9 1709,490.345 1736.37,502.821 1756.98,519.233 1766.97,539.948 1754.2,556.837 1736.01,573.27 1709.05,585.346 1674.53,591.429 1648.52,591.783 1614.91,576.531 1588.93,560.084 1579.28,539.059 1578.45,517.171 1597.19,502.721 1612.45,492.476 1636.26,478.659 1659.92,469.96 1682.08,454.096 1704.94,441.152 1725.08,441.091 1748.28,426.827 1751.35,411.579 1762.43,394.761 1775.18,389.252 1792.81,372.174 1784.54,358.101 1762.34,347.147 1757.75,346.253 1771.13,341.872 1797.25,335.255 1826.28,340.677 1851.86,343.644 1878.11,349.071 1902.07,367.122 1904.94,385.627 1900.53,398.025 1879.27,409.015 1863.08,431.186 1847.5,459.354 1837.65,491.927 1840.78,511.371 1804.84,513.792 1780.54,529.479 1748.42,535.927 1717.32,552.824 1700.37,578.555 1680.19,595.769 1653.26,589.837 1630.91,578.386 1603.31,569.361 1588.59,556.927 1562.56,540.902 1553.5,532.856 1561.45,511.338 1586.49,503.072 1621.32,497.664 1650.53,501.376 1686.7,508.201 1714.88,523.101 1722.9,544.666 1736.32,565.049 1753.26,569.441 1779.36,574.351 1802.68,585.207 1813.08,587.565 1839.02,580.17 1863.53,571.806 1883.23,562.032 1903.41,565.554 1922.62,580.895 1921.34,599.207 1922.18,620.475 1909.18,651.529 1887.54,677.557 1862.04,696.854 1839.58,726.39 1838.76,751.771 1802.88,763.288 1774.51,768.562 1746.19,782.861 1720.58,797.707 1703.14,816.754 1687.18,837.286 1661.16,860.522 1634.1,869.191 1606.7,859.815 1582.25,853.605 1550.82,850.09 1522.04,841.698 1501.93,820.307 1487.79,799.947 1456.55,777.631 1440.32,757.842 1414.78,741.144 1390.49,738.704 1359.84,744.332 1341.18,741.752 1315.67,733.051 1311,706.979 1293.13,699.397 1268.62,703.78 1250.59,712.148 1226.77,729.181 1220.37,736.393 1190.18,739.107 1166.7,745.281 1140.63,737.838 1119.82,719.366 1095.63,706.625 1060.95,701.9 1028.85,693.458 1006.03,687.77 985.566,677.085 966.014,656.553 965.373,642.461 975.747,623.383 991.328,603.359 1002.16,579.983 1008.55,549.444 1015.77,524.157 998.94,504.73 979.873,500.406 970.057,488.99 974.606,475.788 1002.41,475.402 1039.19,478.939 1082.29,476.069 1114.07,472.219 1142.16,453.595 1166.31,429.038 1190.66,409.788 1222,403.665 1260.85,406.191 1292.89,418.493 1324.58,433.44 1354.77,446.935 1381.35,459.34 1403.48,472.087 1439.36,480.362 1465.51,494.197 1491.78,517.019 1523.24,544.424 1550.57,559.454 1574.34,570.667 1594.18,580.975 1603.23,569.716 1623.85,562.082 1649.77,547.887 1674.03,538.045 1704.09,527.65 1737.44,526.075 1772.83,534.657 1799.84,559.913 1806.93,582.01 1803.98,613.646 1785.13,645.723 1783.34,673.71 1774.29,706.09 1775.21,740.128 1791.24,770.703 1824.11,795.572 1864.61,792.975 1885.26,796.163 1915.8,802.41 1935.23,824.992 1961.08,851.056 1982.95,883.355 1994.54,915.936 1998.21,937.196 2015.89,918.9 2050.72,924.657 2078.33,931.02 2090.74,946.801 2092.42,950.537 2093.08,955.776 2098.62,972.278 2101.03,978.267 2115.16,981.829 2132.5,983.735 2160.38,976.861 2188.71,986.409 2202.69,999.781 2215.77,1022.24 2216.07,1036.48 2219.47,1021.08 2224.94,1002.43 2222.95,975.057 2211.66,948.579 2195.67,925.21 2185.08,902.596 2186.72,883.209 2158.25,861.946 2151.46,830.648 2156.85,805.783 2175.23,795.416 2196.25,797.51 2220.9,805.731 2236.98,818.892 2249.06,838.321 2275.23,861.938 2290.15,882.281 2280.02,909.291 2260.09,931.58 2242.18,951.659 2211.47,963.263 2192.62,983.344 2164.49,995.068 2138.49,1018.76 2118.58,1040.4 2108.17,1063.96 2088.56,1086.88 2071.27,1108.96 2045.45,1125.5 2018.35,1136.87 1987.25,1153.58 1962.48,1172.11 1933.74,1180.1 1904.68,1199.97 1889.32,1216.76 1856.94,1229.13 1836.97,1243.69 1818.62,1262.88 1801.08,1291.33 1793.72,1312 1788.74,1332.33 1782.2,1356.3 1805.43,1377.46 1814.51,1392.54 1806.23,1415.58 1798.89,1442.19 1778.73,1445.72 1756.19,1442.47 1733.55,1423.69 1721.02,1396.93 1707.46,1375.59 1682.83,1353.04 1643.12,1326.26 1613.59,1319.26 1579.12,1318.58 1541.14,1326.92 1499.06,1336.01 1472.93,1336.7 1438.66,1326.42 1412.77,1313.97 1392.89,1289.28 1390.3,1255.47 1384.96,1215.22 1364.62,1188.28 1342.3,1167.55 1348.47,1136.02 1346.46,1108.16 1338.32,1083.77 1326.52,1055.55 1306.92,1031.76 1301.82,1004.7 1308.84,971.317 1317.71,937.548 1336.43,908.557 1352.8,877.313 1366.07,845.148 1393.15,823.807 1388.12,796.087 1371.9,771.954 1342.09,748.41 1308.99,747.16 1289.46,733.277 1280.2,707.58 1276.87,675.35 1290.27,647.488 1303.75,625.594 1326.78,617.583 1357.31,605.77 1394.17,599.813 1435.63,596.488 1474.55,596.704 1502.21,588.657 1525.68,563.242 1543.51,540.942 1572.1,528.058 1594.48,522.46 1597.53,506.684 1583.99,493.976 1561.8,478.812 1535.59,465.767 1505.84,438.853 1482.97,412.041 1470.58,386.149 1452.61,365.932 1449.97,348.198 1458.68,328.005 1475.83,318.37 1493.08,327.985 1524.46,332.246 1563.9,335.361 1598.75,344.368 1639.74,350.114 1673.24,353.375 1703.26,368.9 1728.43,374.081 1753.4,366.721 1777.09,355.833 1809.02,350.61 1842.15,351.73 1873.48,346.031 1896.06,361.244 1907.08,377.233 1912.78,370.436 1923.27,354.016 1940.6,337.145 1958.41,326.502 1982.69,311.546 2002.14,302.121 1990.25,304.112 1967.4,290.879 1958.64,273.508 1946.91,243.786 1951.54,215.791 1963.06,200.585 1992.02,190.691 2025.83,194.202 2050.52,198.565 2084.13,202.936 2120.29,214.635 2142.62,237.516 2147.51,266.727 2140.81,293.451 2127.97,301.601 2132.87,317.71 2137.18,340.296 2132.22,372.326 2102.34,389.929 2083.77,425.305 2055.26,446.886 2032.35,472.95 2025.3,507.242 1999.11,514.244 1964.47,515.703 1929.05,527.622 1898.02,541.657 1881.48,569.391 1869.19,600.513 1869.55,616.879 1895.92,620.836 1925.98,635.285 1962.88,649.623 1997.51,673.445 2025.97,688.012 2064.87,692.818 2100.51,693.536 2139.07,689.467 2168.24,695.176 2193.87,693.646 2204.43,678.403 2217.19,659.115 2234.98,638.767 2233.29,613.619 2228.85,594.281 2219.19,570.605 2192.08,549.03 2170.48,530.797 2145.25,516.085 2103.47,516.977 2078.31,524.24 2053.7,542.396 2037.03,561.99 2011.1,587.156 2007.57,616.862 2012.96,648.071 2015.95,677.814 2033.45,704.353 2045.75,729.695 2059.5,763.253 2074.76,793.736 2106.3,804.997 2136.8,822.646 2163.5,851.514 2183.55,874.637 2198.3,906.179 2205.5,930.867 2201.88,942.322 2170.54,943.423 2133.04,956.988 2104.17,955.461 2088.66,963.527 2068.44,967.216 2046.62,962.36 2014.77,948.764 1985.03,939.699 1948.67,943.28 1902.99,957.668 1863.84,970.441 1826.25,970.525 1782.59,979.108 1745.36,979.892 1706.19,979.798 1675.13,974.11 1640.05,978.675 1607.4,972.727 1574.4,966.095 1539.25,935.927 1511.23,920.195 1473.1,913.11 1439.86,896.957 1409.88,881.527 1378.64,859.997 1351.76,853.322 1325.71,867.428 1300.55,883.245 1271.24,899.034 1233.71,917.447 1195.53,925.113 1166.15,920.515 1137.39,896.364 1119.21,872.036 1100.89,842.35 1075.92,817.147 1065.18,785.792 1060.83,757.747 1063.14,734.924 1049.86,705.993 1027.04,688.755 998.953,676.334 978.074,654.828 969.982,623.938 967.78,600.011 956.057,572.555 965.633,545.727 986.478,517.788 997.416,500.983 1011.95,494.609 1021.68,480.058 1026.24,464.234 1032.47,441.351 1039.45,416.123 1044.35,387.285 1056.12,353.971 1057.11,331.289 1034.81,312.794 1015.09,299.38 987.763,299.647 960.408,308.197 932.677,304.39 900.842,289.099 862.332,275.124 839.359,269.61 816.848,264.62 801.717,247.551 801.086,225.866 816.595,208.327 839.459,189.443 862.644,171.012 906.794,160.375 936.93,146.933 970.31,140.859 1000.29,153.579 1028.68,160.502 1062.62,155.452 1097.45,149.325 1117.2,128.274 1133.26,108.985 1146.43,88.0156 "/>
<polyline clip-path="url(#clip852)" style="stroke:#ff0000; stroke-linecap:round; stroke-linejoin:round; stroke-width:4; stroke-opacity:1; fill:none" points="203.591,717.182 234.547,723.58 237.208,714.685 258.737,715.989 262.178,716.69 289.694,722.387 306.885,725.943 336.179,725.697 361.15,727.714 392.121,734.112 418.87,730.2 440.399,731.492 483.473,734.1 495.474,742.885 520.459,744.891 563.546,747.499 581.649,748.09 601.443,755.337 635.899,762.448 655.708,769.695 678.972,777.656 703.104,782.639 734.133,789.049 753.089,799.274 781.558,802.005 815.204,812.119 831.601,806.041 873.893,811.627 892.01,824.841 919.627,830.55 953.316,840.664 973.183,847.923 1000.83,853.632 1015.52,866.145 1033.69,879.372 1037.15,880.085 1069.99,880.553 1083.81,883.419 1108.88,885.437 1136.55,891.159 1161.67,905.837 1188.51,914.536 1206.67,915.139 1235.21,917.883 1271.54,919.064 1296.63,921.094 1331.26,928.255 1355.52,933.275 1380.61,935.292 1405.71,937.323 1442.9,935.539 1461.07,936.129 1490.48,935.895 1517.27,931.946 1548.36,925.745 1576.09,931.466 1602.87,927.529 1627.99,929.559 1646.03,917.501 1664.21,918.092 1681.4,909.024 1701.23,903.647 1725.51,908.667 1748.8,904.004 1769.63,908.298 1786.96,911.878 1810.43,919.876 1828.78,933.127 1851.42,944.114 1863.67,952.961 1880.38,972.204 1888.33,983.327 1895.46,997.439 1907.9,1018.98 1921.99,1034.55 1935.27,1053.11 1944.88,1058.27 1969.23,1063.31 1979.67,1065.47 1987.46,1063.9 2015.92,1053.96 2027.17,1053.11 2049.26,1026.05 2055.2,1017.78 2053.96,995.397 2058.04,980.448 2056.81,958.091 2037.59,947.818 2020.21,944.225 1997.54,933.238 1969.94,940.165 1949.1,935.871 1932.56,929.3 1915.21,925.72 1890.08,923.69 1872.08,935.76 1848.77,940.411 1835.89,947.227 1807.29,944.471 1782.16,942.453 1754.4,936.72 1736.07,923.468 1712.61,915.471 1676.96,898.639 1656.02,881.709 1635.1,864.779 1623.73,852.992 1612.38,841.193 1590.64,827.265 1577.51,808.821 1567,794.081 1560.8,777.077 1564.97,762.227 1583.81,747.253 1594.07,736.795 1617.32,732.168 1631.14,735.011 1660.48,734.777 1674.44,750.206 1695.21,754.488 1705.59,756.616 1733.28,762.325 1755.02,776.216 1760.3,783.586 1782.88,794.524 1802.01,804.761 1826.26,809.756 1845.23,807.369 1866.85,808.674 1891.75,798.08 1909.89,798.683 1923.76,801.537 1945.56,815.453 1960.44,827.954 1974.51,843.432 1981.64,857.483 1990.62,878.227 1999.6,898.984 2002.44,915.336 2000.19,936.941 2002.85,940.645 2009.18,957.735 2025.13,979.968 2027.99,996.356 2042.91,1008.92 2053.35,1011.08 2067.26,1013.95 2087.93,1005.57 2104.28,999.469 2113.68,991.927 2131.66,979.845 2136.77,974.591 2136.3,949.245 2121.37,936.695 2103.77,920.454 2093.14,905.665 2069.65,897.667 2041.05,894.924 2016.74,889.916 2006.33,887.763 1977.75,885.031 1960.4,881.451 1942.86,865.234 1928.98,862.38 1901.23,856.659 1889.19,860.473 1862.44,864.41 1844.1,851.183 1823.3,846.902 1804.31,849.276 1776.6,843.567 1763.55,837.735 1746.23,834.155 1720.32,835.115 1690.12,838.338 1666,845.954 1657.28,837.858 1657.14,825.235 1649.39,826.785 1638.16,827.622 1623.47,827.745 1616.55,826.317 1599.36,835.361 1586.47,842.152 1553.64,841.685 1538.11,844.773 1528.67,852.278 1521.86,863.487 1537.39,860.387 1556.37,858 1587.43,851.799 1596.73,831.67 1611.29,818.935 1615.45,804.06 1605.78,786.342 1589.19,767.21 1580.47,759.126 1569.02,734.789 1549.11,727.542 1526.82,741.802 1505.24,740.498 1474.13,734.088 1475.7,715.57 1470.37,695.651 1472.78,674.193 1476.96,659.379 1494.85,634.87 1499.87,617.115 1503.1,592.754 1484.09,582.591 1460.78,574.679 1453.89,573.264 1465.8,556.962 1490.67,546.442 1530.26,548.324 1567.94,531.087 1586.72,516.211 1604.53,491.801 1617.23,472.594 1637.76,464.338 1666.16,467.045 1690.28,471.979 1710.27,491.653 1739.64,503.908 1757.05,519.952 1765.9,540.487 1754.05,556.777 1734.48,574.618 1705.36,587.389 1670.99,592.84 1649.44,591.548 1610.52,574.175 1588.87,560.358 1580.07,539.81 1579,517.749 1597.77,502.886 1611.42,493.216 1637.89,476.827 1661.88,469.285 1684.9,452.195 1706.24,441.01 1724.28,441.589 1750.71,425.225 1750.57,412.761 1763.21,393.591 1775.18,389.826 1795.52,369.144 1784.21,357.516 1758.32,346.012 1774.56,340.033 1805.35,333.918 1832.06,342.469 1853.53,343.761 1881.06,349.384 1904.53,369.697 1903.89,385.089 1900.62,396.84 1875.06,410.251 1860.8,435.314 1845.72,463.342 1836.7,495.75 1840.33,508.964 1799.09,512.975 1779.54,530.804 1745.2,536.242 1714.45,554.895 1700.11,580.068 1681.34,594.968 1653.72,589.296 1631.22,578.432 1601.01,569.093 1589.7,557.405 1558.55,538.518 1555.94,534.864 1563.43,508.312 1590.87,501.471 1628.65,496.747 1652.77,501.693 1690.69,509.469 1715.81,523.975 1721.2,543.797 1736.95,565.759 1750.76,568.589 1781.83,574.962 1804.34,585.839 1811.25,587.254 1842.99,578.149 1866.99,570.582 1884.07,561.6 1904.79,565.845 1925.7,582.615 1920.79,600.357 1921.98,622.48 1904.43,659.551 1884.04,680.406 1860.99,697.607 1837.29,730.36 1839.27,749.591 1798.89,763.26 1775.64,767.899 1745.62,783.709 1719.87,797.268 1703.68,815.958 1686.65,837.625 1657.55,863.118 1634.26,867.769 1607.38,859.07 1583.13,854.063 1547.65,849.904 1520.8,841.205 1501.59,818.357 1488.49,799.913 1452.01,773.522 1441.54,758.794 1413.81,740.51 1392.22,739.206 1357.76,744.669 1343.94,741.815 1313.69,732.451 1310.94,703.611 1293.68,700.055 1266.97,703.98 1249.78,712.999 1222.28,732.464 1221.43,735.429 1183.5,740.178 1163.68,745.53 1136.92,736.856 1117.04,717.047 1094.58,706.133 1055.79,701.286 1025.61,691.923 1008.38,688.367 985.965,677.466 963.539,654.027 966.127,645.143 976.436,622.184 993.628,600.653 1003.92,577.731 1009.89,544.547 1015.88,523.901 999.527,504.916 982.336,501.385 971.159,489.721 975.439,474.994 1008.09,475.449 1046.75,480.272 1087.97,476.261 1114.59,472.361 1142.02,453.043 1167.68,427.156 1190.79,410.091 1221.66,403.976 1264.59,406.547 1293.84,418.765 1325.69,434.637 1354.97,446.867 1380.82,458.396 1402.4,472.176 1443.71,480.641 1465.29,494.434 1494.73,519.189 1526.8,547.623 1549.27,558.475 1571.75,569.339 1590.78,579.502 1600.18,572.046 1625.02,561.526 1654.98,545.814 1675.53,537.546 1708.07,525.501 1740.77,525.968 1777.9,536.697 1803.2,563.741 1805.99,579.921 1803.03,616.82 1782.78,650.213 1783.93,672.359 1774.02,707.942 1775.32,742.713 1792.95,771.467 1826.1,797.145 1864.03,792.383 1877.89,795.238 1916.01,803.075 1935.35,825.924 1964.3,853.915 1984.69,886.459 1994.68,916.886 1997.54,933.238 2012.04,920.466 2054.54,926.077 2078.86,931.085 2089.5,945.898 2092.16,949.602 2094.01,956.295 2099.55,976.375 2102.21,980.091 2119.6,983.671 2137.79,984.274 2169.69,975.058 2195.08,989.774 2203.09,1000.91 2218.3,1026.17 2215.86,1035.15 2219.92,1020.18 2225.59,999.223 2222.42,970.162 2210.71,945.652 2194.7,923.444 2185.67,902.675 2187.06,884.059 2153.71,858.307 2151.41,826.379 2157.08,805.548 2174.2,796.505 2195.82,797.822 2222.77,806.496 2237.71,818.997 2250.21,840.43 2280.11,865.456 2289.97,883.223 2278.45,912.333 2258.09,933.348 2242,952.112 2209.32,964.305 2193.22,983.081 2164.01,996 2135,1021.62 2118.87,1040.42 2108.86,1063.67 2087.59,1087.77 2070.6,1109.61 2043.98,1126.31 2018.98,1137 1984.54,1155.26 1961.37,1172.7 1933.68,1179.67 1901.85,1201.68 1890.75,1215.29 1853.59,1229.86 1838.99,1242.75 1818.4,1263.96 1798.79,1294.96 1794.64,1310.04 1788.81,1331.18 1781.32,1358.37 1808.59,1380.03 1813.09,1390.56 1805.6,1417.79 1798.1,1445.05 1779.79,1444.44 1754.47,1442.38 1730.69,1421.42 1719.92,1393.56 1706.63,1374.81 1680.23,1350.14 1636.42,1321.85 1614.64,1320.53 1578.09,1319.32 1539.01,1327.16 1495.59,1337.31 1477.31,1336.69 1436.32,1324.98 1413.62,1313.86 1391.7,1286.95 1390.58,1251.62 1384.21,1208.87 1364.1,1188.78 1344,1168.68 1349.87,1134.92 1346.24,1108.75 1338.29,1084.88 1325.09,1053.59 1305.9,1030.6 1302.28,1004.5 1309.01,967.91 1318.33,935.059 1337.19,907.375 1353.42,876.013 1366.18,843.961 1393.68,824.435 1386.59,797.785 1371.74,772.697 1338.79,747.044 1309.47,747.29 1291.28,734.112 1280.78,706.822 1276.29,671.375 1290.8,646.152 1303.6,626.86 1324.22,618.567 1361.16,604.245 1399,599.508 1440.29,595.485 1476.46,596.666 1500.49,589.087 1526.92,560.136 1543.1,541.594 1572.22,528.847 1591.95,523.532 1596.1,508.78 1582.19,493.462 1557.96,476.027 1532.08,464.486 1500.88,433.173 1481.79,410.595 1470.44,386.504 1453.99,367.593 1451.28,351.512 1457.95,328.036 1475.02,319.129 1493.98,329.205 1529.17,333.303 1572.07,335.862 1602.19,345.127 1644.28,350.626 1672.62,353.321 1704.55,369.168 1725.19,373.388 1752.58,366.572 1777.33,356.114 1811.59,350.7 1844.19,351.155 1874.99,345.04 1895.82,361.712 1906.34,376.268 1911.41,371.1 1924,351.955 1943.47,334.225 1960.5,325.305 1986.83,308.99 2003.02,302.998 1991.89,303.823 1963.36,288.713 1957.1,271.968 1944.59,238.489 1951.91,212.159 1962.02,201.873 1994.38,189.938 2029.54,194.011 2050.16,198.219 2088.78,202.993 2124.98,216.539 2144.23,238.994 2147.32,267.452 2140.08,293.807 2131.59,298.273 2133.64,317.271 2137.53,342.85 2131.3,378.79 2098.89,390.786 2080.68,430.552 2054.32,446.916 2032.4,473.542 2026.11,509.629 2003.77,511.278 1962.55,515.301 1925.78,529.586 1896.71,542.345 1881.62,570.459 1869.15,602.264 1870.14,611.837 1896.97,620.474 1929.08,636.445 1968.94,650.889 2002.11,676.481 2024.71,687.382 2067.06,692.944 2099.84,693.411 2141.18,689.376 2165.41,694.359 2191.28,693.399 2202.24,680 2219.08,658.431 2235.9,636.863 2231.97,611.062 2229.06,594.858 2218.2,567.666 2187.66,545.814 2170.15,529.77 2144.94,515.252 2096.8,517.86 2080.55,523.889 2053.34,543.255 2037.3,561.797 2007.62,590.047 2007.22,618.087 2012.9,650.52 2015.95,679.323 2034.49,705.051 2046.1,729.375 2061.39,767.037 2075.69,795.09 2106.09,804.49 2137.53,823.524 2165.76,854.493 2182.53,873.687 2198.75,908.519 2204.32,928.575 2201.89,937.532 2167.36,943.032 2126.11,959.765 2105.25,955.458 2092.38,962.275 2069.07,966.938 2044.75,961.918 2008.98,945.062 1981.19,939.328 1943.18,944.114 1894.91,959.408 1862.19,971.601 1825.8,970.408 1779.17,979.734 1746.26,979.254 1705.57,980.337 1677.8,974.603 1639.76,979.377 1608.52,972.93 1573.82,965.757 1532.82,928.845 1512.85,921.561 1471.27,912.973 1439.15,896.868 1410.51,881.488 1376.65,858.726 1355.87,854.444 1326.57,867.314 1299.88,883.875 1269.71,899.747 1227.44,919.433 1192.87,924.92 1168.64,919.913 1135.7,894.148 1120.07,871.977 1100.12,839.458 1074.15,815.182 1064.59,784.853 1061.08,758.954 1063.62,737.459 1048.04,702.824 1026.46,688.957 997.156,676.641 978.186,653.904 969.554,620.769 967.804,601.612 954.892,570.767 966.055,544.904 989.232,515.289 996.1,504.203 1008.97,497.485 1020.98,481.219 1026.1,463.551 1033.79,437.073 1040.62,413.548 1045.71,383.453 1059.36,348.941 1056.76,332.86 1033.58,312.583 1015.56,299.578 986.427,299.824 958.16,309.556 930.746,303.946 895.625,287.434 856.239,273.161 842.546,270.356 818.573,265.447 802.336,246.61 801.526,224.746 817.807,206.388 841.78,186.518 864.885,169.588 915.333,158.244 936.703,147.158 970.884,141.769 999.961,153.9 1027.33,159.486 1064.94,154.798 1099.12,149.422 1116.15,128.185 1132.33,109.877 1145.92,87.9763 "/>
<path clip-path="url(#clip850)" d="M214.252 1438.47 L760.776 1438.47 L760.776 1282.95 L214.252 1282.95  Z" fill="#ffffff" fill-rule="evenodd" fill-opacity="1"/>
<polyline clip-path="url(#clip850)" style="stroke:#000000; stroke-linecap:round; stroke-linejoin:round; stroke-width:4; stroke-opacity:1; fill:none" points="214.252,1438.47 760.776,1438.47 760.776,1282.95 214.252,1282.95 214.252,1438.47 "/>
<polyline clip-path="url(#clip850)" style="stroke:#0000ff; stroke-linecap:round; stroke-linejoin:round; stroke-width:4; stroke-opacity:1; fill:none" points="238.832,1334.79 386.315,1334.79 "/>
<path clip-path="url(#clip850)" d="M434.924 1338.05 L434.924 1340.13 L415.34 1340.13 Q415.618 1344.53 417.979 1346.84 Q420.363 1349.13 424.6 1349.13 Q427.053 1349.13 429.345 1348.53 Q431.66 1347.93 433.928 1346.73 L433.928 1350.75 Q431.637 1351.73 429.229 1352.24 Q426.822 1352.75 424.345 1352.75 Q418.141 1352.75 414.507 1349.13 Q410.896 1345.52 410.896 1339.37 Q410.896 1333 414.322 1329.27 Q417.771 1325.52 423.604 1325.52 Q428.836 1325.52 431.868 1328.9 Q434.924 1332.26 434.924 1338.05 M430.664 1336.8 Q430.618 1333.3 428.697 1331.22 Q426.799 1329.13 423.65 1329.13 Q420.086 1329.13 417.933 1331.15 Q415.803 1333.16 415.479 1336.82 L430.664 1336.8 Z" fill="#000000" fill-rule="nonzero" fill-opacity="1" /><path clip-path="url(#clip850)" d="M458.442 1326.91 L458.442 1330.94 Q456.636 1330.01 454.692 1329.55 Q452.748 1329.09 450.664 1329.09 Q447.493 1329.09 445.896 1330.06 Q444.322 1331.03 444.322 1332.98 Q444.322 1334.46 445.456 1335.32 Q446.59 1336.15 450.016 1336.91 L451.474 1337.24 Q456.011 1338.21 457.91 1339.99 Q459.831 1341.75 459.831 1344.92 Q459.831 1348.53 456.96 1350.64 Q454.113 1352.75 449.113 1352.75 Q447.03 1352.75 444.761 1352.33 Q442.516 1351.94 440.016 1351.13 L440.016 1346.73 Q442.377 1347.95 444.669 1348.58 Q446.961 1349.18 449.206 1349.18 Q452.215 1349.18 453.836 1348.16 Q455.456 1347.12 455.456 1345.25 Q455.456 1343.51 454.275 1342.58 Q453.118 1341.66 449.16 1340.8 L447.678 1340.45 Q443.72 1339.62 441.961 1337.91 Q440.201 1336.17 440.201 1333.16 Q440.201 1329.51 442.794 1327.51 Q445.386 1325.52 450.155 1325.52 Q452.516 1325.52 454.599 1325.87 Q456.683 1326.22 458.442 1326.91 Z" fill="#000000" fill-rule="nonzero" fill-opacity="1" /><path clip-path="url(#clip850)" d="M470.826 1318.79 L470.826 1326.15 L479.599 1326.15 L479.599 1329.46 L470.826 1329.46 L470.826 1343.53 Q470.826 1346.7 471.683 1347.61 Q472.562 1348.51 475.224 1348.51 L479.599 1348.51 L479.599 1352.07 L475.224 1352.07 Q470.294 1352.07 468.419 1350.25 Q466.544 1348.39 466.544 1343.53 L466.544 1329.46 L463.419 1329.46 L463.419 1326.15 L466.544 1326.15 L466.544 1318.79 L470.826 1318.79 Z" fill="#000000" fill-rule="nonzero" fill-opacity="1" /><path clip-path="url(#clip850)" d="M485.201 1326.15 L489.46 1326.15 L489.46 1352.07 L485.201 1352.07 L485.201 1326.15 M485.201 1316.06 L489.46 1316.06 L489.46 1321.45 L485.201 1321.45 L485.201 1316.06 Z" fill="#000000" fill-rule="nonzero" fill-opacity="1" /><path clip-path="url(#clip850)" d="M518.557 1331.13 Q520.155 1328.26 522.377 1326.89 Q524.599 1325.52 527.608 1325.52 Q531.659 1325.52 533.858 1328.37 Q536.057 1331.19 536.057 1336.43 L536.057 1352.07 L531.775 1352.07 L531.775 1336.57 Q531.775 1332.84 530.455 1331.03 Q529.136 1329.23 526.428 1329.23 Q523.118 1329.23 521.196 1331.43 Q519.275 1333.63 519.275 1337.42 L519.275 1352.07 L514.993 1352.07 L514.993 1336.57 Q514.993 1332.82 513.673 1331.03 Q512.354 1329.23 509.599 1329.23 Q506.335 1329.23 504.414 1331.45 Q502.493 1333.65 502.493 1337.42 L502.493 1352.07 L498.21 1352.07 L498.21 1326.15 L502.493 1326.15 L502.493 1330.18 Q503.951 1327.79 505.988 1326.66 Q508.025 1325.52 510.826 1325.52 Q513.65 1325.52 515.618 1326.96 Q517.608 1328.39 518.557 1331.13 Z" fill="#000000" fill-rule="nonzero" fill-opacity="1" /><path clip-path="url(#clip850)" d="M556.335 1339.04 Q551.173 1339.04 549.182 1340.22 Q547.191 1341.4 547.191 1344.25 Q547.191 1346.52 548.673 1347.86 Q550.178 1349.18 552.747 1349.18 Q556.289 1349.18 558.418 1346.68 Q560.571 1344.16 560.571 1339.99 L560.571 1339.04 L556.335 1339.04 M564.83 1337.28 L564.83 1352.07 L560.571 1352.07 L560.571 1348.14 Q559.113 1350.5 556.937 1351.63 Q554.761 1352.75 551.613 1352.75 Q547.631 1352.75 545.27 1350.52 Q542.932 1348.28 542.932 1344.53 Q542.932 1340.15 545.849 1337.93 Q548.789 1335.71 554.599 1335.71 L560.571 1335.71 L560.571 1335.29 Q560.571 1332.35 558.627 1330.76 Q556.705 1329.13 553.21 1329.13 Q550.988 1329.13 548.881 1329.67 Q546.775 1330.2 544.83 1331.26 L544.83 1327.33 Q547.168 1326.43 549.367 1325.99 Q551.566 1325.52 553.65 1325.52 Q559.275 1325.52 562.053 1328.44 Q564.83 1331.36 564.83 1337.28 Z" fill="#000000" fill-rule="nonzero" fill-opacity="1" /><path clip-path="url(#clip850)" d="M577.816 1318.79 L577.816 1326.15 L586.589 1326.15 L586.589 1329.46 L577.816 1329.46 L577.816 1343.53 Q577.816 1346.7 578.673 1347.61 Q579.552 1348.51 582.214 1348.51 L586.589 1348.51 L586.589 1352.07 L582.214 1352.07 Q577.284 1352.07 575.409 1350.25 Q573.534 1348.39 573.534 1343.53 L573.534 1329.46 L570.409 1329.46 L570.409 1326.15 L573.534 1326.15 L573.534 1318.79 L577.816 1318.79 Z" fill="#000000" fill-rule="nonzero" fill-opacity="1" /><path clip-path="url(#clip850)" d="M614.367 1338.05 L614.367 1340.13 L594.784 1340.13 Q595.062 1344.53 597.423 1346.84 Q599.807 1349.13 604.043 1349.13 Q606.497 1349.13 608.788 1348.53 Q611.103 1347.93 613.372 1346.73 L613.372 1350.75 Q611.08 1351.73 608.673 1352.24 Q606.265 1352.75 603.788 1352.75 Q597.585 1352.75 593.95 1349.13 Q590.339 1345.52 590.339 1339.37 Q590.339 1333 593.765 1329.27 Q597.214 1325.52 603.048 1325.52 Q608.279 1325.52 611.312 1328.9 Q614.367 1332.26 614.367 1338.05 M610.108 1336.8 Q610.062 1333.3 608.14 1331.22 Q606.242 1329.13 603.094 1329.13 Q599.529 1329.13 597.376 1331.15 Q595.247 1333.16 594.923 1336.82 L610.108 1336.8 Z" fill="#000000" fill-rule="nonzero" fill-opacity="1" /><polyline clip-path="url(#clip850)" style="stroke:#ff0000; stroke-linecap:round; stroke-linejoin:round; stroke-width:4; stroke-opacity:1; fill:none" points="238.832,1386.63 386.315,1386.63 "/>
<path clip-path="url(#clip850)" d="M431.243 1382.97 Q432.84 1380.1 435.062 1378.73 Q437.285 1377.36 440.294 1377.36 Q444.345 1377.36 446.544 1380.21 Q448.743 1383.03 448.743 1388.27 L448.743 1403.91 L444.461 1403.91 L444.461 1388.41 Q444.461 1384.68 443.141 1382.87 Q441.822 1381.07 439.113 1381.07 Q435.803 1381.07 433.882 1383.27 Q431.961 1385.47 431.961 1389.26 L431.961 1403.91 L427.678 1403.91 L427.678 1388.41 Q427.678 1384.66 426.359 1382.87 Q425.039 1381.07 422.285 1381.07 Q419.021 1381.07 417.1 1383.29 Q415.178 1385.49 415.178 1389.26 L415.178 1403.91 L410.896 1403.91 L410.896 1377.99 L415.178 1377.99 L415.178 1382.02 Q416.637 1379.63 418.674 1378.5 Q420.711 1377.36 423.512 1377.36 Q426.336 1377.36 428.303 1378.8 Q430.294 1380.23 431.243 1382.97 Z" fill="#000000" fill-rule="nonzero" fill-opacity="1" /><path clip-path="url(#clip850)" d="M479.414 1389.89 L479.414 1391.97 L459.831 1391.97 Q460.109 1396.37 462.47 1398.68 Q464.854 1400.97 469.09 1400.97 Q471.544 1400.97 473.835 1400.37 Q476.15 1399.77 478.419 1398.57 L478.419 1402.59 Q476.127 1403.57 473.72 1404.08 Q471.312 1404.59 468.835 1404.59 Q462.632 1404.59 458.998 1400.97 Q455.386 1397.36 455.386 1391.21 Q455.386 1384.84 458.812 1381.11 Q462.261 1377.36 468.095 1377.36 Q473.326 1377.36 476.359 1380.74 Q479.414 1384.1 479.414 1389.89 M475.155 1388.64 Q475.109 1385.14 473.187 1383.06 Q471.289 1380.97 468.141 1380.97 Q464.576 1380.97 462.423 1382.99 Q460.294 1385 459.97 1388.66 L475.155 1388.64 Z" fill="#000000" fill-rule="nonzero" fill-opacity="1" /><path clip-path="url(#clip850)" d="M498.187 1390.88 Q493.025 1390.88 491.034 1392.06 Q489.044 1393.24 489.044 1396.09 Q489.044 1398.36 490.525 1399.7 Q492.03 1401.02 494.599 1401.02 Q498.141 1401.02 500.27 1398.52 Q502.423 1396 502.423 1391.83 L502.423 1390.88 L498.187 1390.88 M506.682 1389.12 L506.682 1403.91 L502.423 1403.91 L502.423 1399.98 Q500.965 1402.34 498.789 1403.47 Q496.613 1404.59 493.465 1404.59 Q489.483 1404.59 487.122 1402.36 Q484.784 1400.12 484.784 1396.37 Q484.784 1391.99 487.701 1389.77 Q490.641 1387.55 496.451 1387.55 L502.423 1387.55 L502.423 1387.13 Q502.423 1384.19 500.479 1382.6 Q498.557 1380.97 495.062 1380.97 Q492.84 1380.97 490.733 1381.51 Q488.627 1382.04 486.683 1383.1 L486.683 1379.17 Q489.021 1378.27 491.22 1377.83 Q493.419 1377.36 495.502 1377.36 Q501.127 1377.36 503.905 1380.28 Q506.682 1383.2 506.682 1389.12 Z" fill="#000000" fill-rule="nonzero" fill-opacity="1" /><path clip-path="url(#clip850)" d="M531.983 1378.75 L531.983 1382.78 Q530.178 1381.85 528.233 1381.39 Q526.289 1380.93 524.206 1380.93 Q521.034 1380.93 519.437 1381.9 Q517.863 1382.87 517.863 1384.82 Q517.863 1386.3 518.997 1387.16 Q520.131 1387.99 523.557 1388.75 L525.016 1389.08 Q529.553 1390.05 531.451 1391.83 Q533.372 1393.59 533.372 1396.76 Q533.372 1400.37 530.502 1402.48 Q527.655 1404.59 522.655 1404.59 Q520.571 1404.59 518.303 1404.17 Q516.057 1403.78 513.557 1402.97 L513.557 1398.57 Q515.919 1399.79 518.21 1400.42 Q520.502 1401.02 522.747 1401.02 Q525.756 1401.02 527.377 1400 Q528.997 1398.96 528.997 1397.09 Q528.997 1395.35 527.817 1394.42 Q526.659 1393.5 522.701 1392.64 L521.219 1392.29 Q517.261 1391.46 515.502 1389.75 Q513.743 1388.01 513.743 1385 Q513.743 1381.35 516.335 1379.35 Q518.928 1377.36 523.696 1377.36 Q526.057 1377.36 528.141 1377.71 Q530.224 1378.06 531.983 1378.75 Z" fill="#000000" fill-rule="nonzero" fill-opacity="1" /><path clip-path="url(#clip850)" d="M539.715 1393.68 L539.715 1377.99 L543.974 1377.99 L543.974 1393.52 Q543.974 1397.2 545.409 1399.05 Q546.844 1400.88 549.715 1400.88 Q553.164 1400.88 555.154 1398.68 Q557.168 1396.48 557.168 1392.69 L557.168 1377.99 L561.428 1377.99 L561.428 1403.91 L557.168 1403.91 L557.168 1399.93 Q555.617 1402.29 553.557 1403.45 Q551.52 1404.59 548.812 1404.59 Q544.344 1404.59 542.029 1401.81 Q539.715 1399.03 539.715 1393.68 M550.432 1377.36 L550.432 1377.36 Z" fill="#000000" fill-rule="nonzero" fill-opacity="1" /><path clip-path="url(#clip850)" d="M585.224 1381.97 Q584.506 1381.55 583.65 1381.37 Q582.816 1381.16 581.798 1381.16 Q578.187 1381.16 576.242 1383.52 Q574.321 1385.86 574.321 1390.26 L574.321 1403.91 L570.039 1403.91 L570.039 1377.99 L574.321 1377.99 L574.321 1382.02 Q575.664 1379.66 577.816 1378.52 Q579.969 1377.36 583.048 1377.36 Q583.488 1377.36 584.02 1377.43 Q584.552 1377.48 585.201 1377.6 L585.224 1381.97 Z" fill="#000000" fill-rule="nonzero" fill-opacity="1" /><path clip-path="url(#clip850)" d="M610.825 1389.89 L610.825 1391.97 L591.242 1391.97 Q591.52 1396.37 593.881 1398.68 Q596.265 1400.97 600.501 1400.97 Q602.955 1400.97 605.247 1400.37 Q607.562 1399.77 609.83 1398.57 L609.83 1402.59 Q607.538 1403.57 605.131 1404.08 Q602.724 1404.59 600.247 1404.59 Q594.043 1404.59 590.409 1400.97 Q586.798 1397.36 586.798 1391.21 Q586.798 1384.84 590.224 1381.11 Q593.673 1377.36 599.506 1377.36 Q604.737 1377.36 607.77 1380.74 Q610.825 1384.1 610.825 1389.89 M606.566 1388.64 Q606.52 1385.14 604.599 1383.06 Q602.7 1380.97 599.552 1380.97 Q595.988 1380.97 593.835 1382.99 Q591.705 1385 591.381 1388.66 L606.566 1388.64 Z" fill="#000000" fill-rule="nonzero" fill-opacity="1" /><path clip-path="url(#clip850)" d="M638.001 1382.97 Q639.598 1380.1 641.821 1378.73 Q644.043 1377.36 647.052 1377.36 Q651.103 1377.36 653.302 1380.21 Q655.501 1383.03 655.501 1388.27 L655.501 1403.91 L651.219 1403.91 L651.219 1388.41 Q651.219 1384.68 649.899 1382.87 Q648.58 1381.07 645.872 1381.07 Q642.561 1381.07 640.64 1383.27 Q638.719 1385.47 638.719 1389.26 L638.719 1403.91 L634.436 1403.91 L634.436 1388.41 Q634.436 1384.66 633.117 1382.87 Q631.798 1381.07 629.043 1381.07 Q625.779 1381.07 623.858 1383.29 Q621.936 1385.49 621.936 1389.26 L621.936 1403.91 L617.654 1403.91 L617.654 1377.99 L621.936 1377.99 L621.936 1382.02 Q623.395 1379.63 625.432 1378.5 Q627.469 1377.36 630.27 1377.36 Q633.094 1377.36 635.061 1378.8 Q637.052 1380.23 638.001 1382.97 Z" fill="#000000" fill-rule="nonzero" fill-opacity="1" /><path clip-path="url(#clip850)" d="M686.172 1389.89 L686.172 1391.97 L666.589 1391.97 Q666.867 1396.37 669.228 1398.68 Q671.612 1400.97 675.848 1400.97 Q678.302 1400.97 680.594 1400.37 Q682.908 1399.77 685.177 1398.57 L685.177 1402.59 Q682.885 1403.57 680.478 1404.08 Q678.07 1404.59 675.594 1404.59 Q669.39 1404.59 665.756 1400.97 Q662.145 1397.36 662.145 1391.21 Q662.145 1384.84 665.57 1381.11 Q669.02 1377.36 674.853 1377.36 Q680.084 1377.36 683.117 1380.74 Q686.172 1384.1 686.172 1389.89 M681.913 1388.64 Q681.867 1385.14 679.945 1383.06 Q678.047 1380.97 674.899 1380.97 Q671.334 1380.97 669.182 1382.99 Q667.052 1385 666.728 1388.66 L681.913 1388.64 Z" fill="#000000" fill-rule="nonzero" fill-opacity="1" /><path clip-path="url(#clip850)" d="M714.714 1388.27 L714.714 1403.91 L710.455 1403.91 L710.455 1388.41 Q710.455 1384.72 709.019 1382.9 Q707.584 1381.07 704.714 1381.07 Q701.265 1381.07 699.274 1383.27 Q697.283 1385.47 697.283 1389.26 L697.283 1403.91 L693.001 1403.91 L693.001 1377.99 L697.283 1377.99 L697.283 1382.02 Q698.811 1379.68 700.871 1378.52 Q702.955 1377.36 705.663 1377.36 Q710.13 1377.36 712.422 1380.14 Q714.714 1382.9 714.714 1388.27 Z" fill="#000000" fill-rule="nonzero" fill-opacity="1" /><path clip-path="url(#clip850)" d="M727.422 1370.63 L727.422 1377.99 L736.195 1377.99 L736.195 1381.3 L727.422 1381.3 L727.422 1395.37 Q727.422 1398.54 728.278 1399.45 Q729.158 1400.35 731.82 1400.35 L736.195 1400.35 L736.195 1403.91 L731.82 1403.91 Q726.89 1403.91 725.015 1402.09 Q723.14 1400.23 723.14 1395.37 L723.14 1381.3 L720.015 1381.3 L720.015 1377.99 L723.14 1377.99 L723.14 1370.63 L727.422 1370.63 Z" fill="#000000" fill-rule="nonzero" fill-opacity="1" /></svg>
