<?xml version="1.0" encoding="utf-8"?>
<svg xmlns="http://www.w3.org/2000/svg" xmlns:xlink="http://www.w3.org/1999/xlink" width="600" height="400" viewBox="0 0 2400 1600">
<defs>
  <clipPath id="clip880">
    <rect x="0" y="0" width="2400" height="1600"/>
  </clipPath>
</defs>
<path clip-path="url(#clip880)" d="M0 1600 L2400 1600 L2400 0 L0 0  Z" fill="#ffffff" fill-rule="evenodd" fill-opacity="1"/>
<defs>
  <clipPath id="clip881">
    <rect x="480" y="0" width="1681" height="1600"/>
  </clipPath>
</defs>
<path clip-path="url(#clip880)" d="M177.871 1486.45 L2352.76 1486.45 L2352.76 47.2441 L177.871 47.2441  Z" fill="#ffffff" fill-rule="evenodd" fill-opacity="1"/>
<defs>
  <clipPath id="clip882">
    <rect x="177" y="47" width="2176" height="1440"/>
  </clipPath>
</defs>
<polyline clip-path="url(#clip882)" style="stroke:#000000; stroke-linecap:round; stroke-linejoin:round; stroke-width:2; stroke-opacity:0.1; fill:none" points="386.563,1486.45 386.563,47.2441 "/>
<polyline clip-path="url(#clip882)" style="stroke:#000000; stroke-linecap:round; stroke-linejoin:round; stroke-width:2; stroke-opacity:0.1; fill:none" points="812.909,1486.45 812.909,47.2441 "/>
<polyline clip-path="url(#clip882)" style="stroke:#000000; stroke-linecap:round; stroke-linejoin:round; stroke-width:2; stroke-opacity:0.1; fill:none" points="1239.26,1486.45 1239.26,47.2441 "/>
<polyline clip-path="url(#clip882)" style="stroke:#000000; stroke-linecap:round; stroke-linejoin:round; stroke-width:2; stroke-opacity:0.1; fill:none" points="1665.6,1486.45 1665.6,47.2441 "/>
<polyline clip-path="url(#clip882)" style="stroke:#000000; stroke-linecap:round; stroke-linejoin:round; stroke-width:2; stroke-opacity:0.1; fill:none" points="2091.95,1486.45 2091.95,47.2441 "/>
<polyline clip-path="url(#clip882)" style="stroke:#000000; stroke-linecap:round; stroke-linejoin:round; stroke-width:2; stroke-opacity:0.1; fill:none" points="177.871,1483.13 2352.76,1483.13 "/>
<polyline clip-path="url(#clip882)" style="stroke:#000000; stroke-linecap:round; stroke-linejoin:round; stroke-width:2; stroke-opacity:0.1; fill:none" points="177.871,1176.45 2352.76,1176.45 "/>
<polyline clip-path="url(#clip882)" style="stroke:#000000; stroke-linecap:round; stroke-linejoin:round; stroke-width:2; stroke-opacity:0.1; fill:none" points="177.871,869.77 2352.76,869.77 "/>
<polyline clip-path="url(#clip882)" style="stroke:#000000; stroke-linecap:round; stroke-linejoin:round; stroke-width:2; stroke-opacity:0.1; fill:none" points="177.871,563.088 2352.76,563.088 "/>
<polyline clip-path="url(#clip882)" style="stroke:#000000; stroke-linecap:round; stroke-linejoin:round; stroke-width:2; stroke-opacity:0.1; fill:none" points="177.871,256.406 2352.76,256.406 "/>
<polyline clip-path="url(#clip880)" style="stroke:#000000; stroke-linecap:round; stroke-linejoin:round; stroke-width:4; stroke-opacity:1; fill:none" points="177.871,1486.45 2352.76,1486.45 "/>
<polyline clip-path="url(#clip880)" style="stroke:#000000; stroke-linecap:round; stroke-linejoin:round; stroke-width:4; stroke-opacity:1; fill:none" points="386.563,1486.45 386.563,1467.55 "/>
<polyline clip-path="url(#clip880)" style="stroke:#000000; stroke-linecap:round; stroke-linejoin:round; stroke-width:4; stroke-opacity:1; fill:none" points="812.909,1486.45 812.909,1467.55 "/>
<polyline clip-path="url(#clip880)" style="stroke:#000000; stroke-linecap:round; stroke-linejoin:round; stroke-width:4; stroke-opacity:1; fill:none" points="1239.26,1486.45 1239.26,1467.55 "/>
<polyline clip-path="url(#clip880)" style="stroke:#000000; stroke-linecap:round; stroke-linejoin:round; stroke-width:4; stroke-opacity:1; fill:none" points="1665.6,1486.45 1665.6,1467.55 "/>
<polyline clip-path="url(#clip880)" style="stroke:#000000; stroke-linecap:round; stroke-linejoin:round; stroke-width:4; stroke-opacity:1; fill:none" points="2091.95,1486.45 2091.95,1467.55 "/>
<path clip-path="url(#clip880)" d="M340.626 1532.02 L370.302 1532.02 L370.302 1535.95 L340.626 1535.95 L340.626 1532.02 Z" fill="#000000" fill-rule="nonzero" fill-opacity="1" /><path clip-path="url(#clip880)" d="M394.561 1530.21 Q397.917 1530.93 399.792 1533.2 Q401.691 1535.47 401.691 1538.8 Q401.691 1543.92 398.172 1546.72 Q394.654 1549.52 388.172 1549.52 Q385.996 1549.52 383.681 1549.08 Q381.39 1548.66 378.936 1547.81 L378.936 1543.29 Q380.88 1544.43 383.195 1545.01 Q385.51 1545.58 388.033 1545.58 Q392.431 1545.58 394.723 1543.85 Q397.038 1542.11 397.038 1538.8 Q397.038 1535.75 394.885 1534.03 Q392.755 1532.3 388.936 1532.3 L384.908 1532.3 L384.908 1528.45 L389.121 1528.45 Q392.57 1528.45 394.399 1527.09 Q396.228 1525.7 396.228 1523.11 Q396.228 1520.45 394.329 1519.03 Q392.454 1517.6 388.936 1517.6 Q387.015 1517.6 384.816 1518.01 Q382.617 1518.43 379.978 1519.31 L379.978 1515.14 Q382.64 1514.4 384.954 1514.03 Q387.292 1513.66 389.353 1513.66 Q394.677 1513.66 397.778 1516.09 Q400.88 1518.5 400.88 1522.62 Q400.88 1525.49 399.237 1527.48 Q397.593 1529.45 394.561 1530.21 Z" fill="#000000" fill-rule="nonzero" fill-opacity="1" /><path clip-path="url(#clip880)" d="M420.556 1517.37 Q416.945 1517.37 415.116 1520.93 Q413.311 1524.47 413.311 1531.6 Q413.311 1538.71 415.116 1542.27 Q416.945 1545.82 420.556 1545.82 Q424.19 1545.82 425.996 1542.27 Q427.825 1538.71 427.825 1531.6 Q427.825 1524.47 425.996 1520.93 Q424.19 1517.37 420.556 1517.37 M420.556 1513.66 Q426.366 1513.66 429.422 1518.27 Q432.501 1522.85 432.501 1531.6 Q432.501 1540.33 429.422 1544.94 Q426.366 1549.52 420.556 1549.52 Q414.746 1549.52 411.667 1544.94 Q408.612 1540.33 408.612 1531.6 Q408.612 1522.85 411.667 1518.27 Q414.746 1513.66 420.556 1513.66 Z" fill="#000000" fill-rule="nonzero" fill-opacity="1" /><path clip-path="url(#clip880)" d="M812.909 1517.37 Q809.298 1517.37 807.469 1520.93 Q805.664 1524.47 805.664 1531.6 Q805.664 1538.71 807.469 1542.27 Q809.298 1545.82 812.909 1545.82 Q816.544 1545.82 818.349 1542.27 Q820.178 1538.71 820.178 1531.6 Q820.178 1524.47 818.349 1520.93 Q816.544 1517.37 812.909 1517.37 M812.909 1513.66 Q818.719 1513.66 821.775 1518.27 Q824.854 1522.85 824.854 1531.6 Q824.854 1540.33 821.775 1544.94 Q818.719 1549.52 812.909 1549.52 Q807.099 1549.52 804.02 1544.94 Q800.965 1540.33 800.965 1531.6 Q800.965 1522.85 804.02 1518.27 Q807.099 1513.66 812.909 1513.66 Z" fill="#000000" fill-rule="nonzero" fill-opacity="1" /><path clip-path="url(#clip880)" d="M1228.1 1530.21 Q1231.45 1530.93 1233.33 1533.2 Q1235.23 1535.47 1235.23 1538.8 Q1235.23 1543.92 1231.71 1546.72 Q1228.19 1549.52 1221.71 1549.52 Q1219.53 1549.52 1217.22 1549.08 Q1214.93 1548.66 1212.47 1547.81 L1212.47 1543.29 Q1214.42 1544.43 1216.73 1545.01 Q1219.05 1545.58 1221.57 1545.58 Q1225.97 1545.58 1228.26 1543.85 Q1230.57 1542.11 1230.57 1538.8 Q1230.57 1535.75 1228.42 1534.03 Q1226.29 1532.3 1222.47 1532.3 L1218.45 1532.3 L1218.45 1528.45 L1222.66 1528.45 Q1226.11 1528.45 1227.94 1527.09 Q1229.76 1525.7 1229.76 1523.11 Q1229.76 1520.45 1227.87 1519.03 Q1225.99 1517.6 1222.47 1517.6 Q1220.55 1517.6 1218.35 1518.01 Q1216.15 1518.43 1213.51 1519.31 L1213.51 1515.14 Q1216.18 1514.4 1218.49 1514.03 Q1220.83 1513.66 1222.89 1513.66 Q1228.21 1513.66 1231.32 1516.09 Q1234.42 1518.5 1234.42 1522.62 Q1234.42 1525.49 1232.77 1527.48 Q1231.13 1529.45 1228.1 1530.21 Z" fill="#000000" fill-rule="nonzero" fill-opacity="1" /><path clip-path="url(#clip880)" d="M1254.09 1517.37 Q1250.48 1517.37 1248.65 1520.93 Q1246.85 1524.47 1246.85 1531.6 Q1246.85 1538.71 1248.65 1542.27 Q1250.48 1545.82 1254.09 1545.82 Q1257.73 1545.82 1259.53 1542.27 Q1261.36 1538.71 1261.36 1531.6 Q1261.36 1524.47 1259.53 1520.93 Q1257.73 1517.37 1254.09 1517.37 M1254.09 1513.66 Q1259.9 1513.66 1262.96 1518.27 Q1266.04 1522.85 1266.04 1531.6 Q1266.04 1540.33 1262.96 1544.94 Q1259.9 1549.52 1254.09 1549.52 Q1248.28 1549.52 1245.2 1544.94 Q1242.15 1540.33 1242.15 1531.6 Q1242.15 1522.85 1245.2 1518.27 Q1248.28 1513.66 1254.09 1513.66 Z" fill="#000000" fill-rule="nonzero" fill-opacity="1" /><path clip-path="url(#clip880)" d="M1651.01 1529.7 Q1647.86 1529.7 1646.01 1531.86 Q1644.18 1534.01 1644.18 1537.76 Q1644.18 1541.49 1646.01 1543.66 Q1647.86 1545.82 1651.01 1545.82 Q1654.15 1545.82 1655.98 1543.66 Q1657.84 1541.49 1657.84 1537.76 Q1657.84 1534.01 1655.98 1531.86 Q1654.15 1529.7 1651.01 1529.7 M1660.29 1515.05 L1660.29 1519.31 Q1658.53 1518.48 1656.72 1518.04 Q1654.94 1517.6 1653.18 1517.6 Q1648.55 1517.6 1646.1 1520.72 Q1643.67 1523.85 1643.32 1530.17 Q1644.69 1528.15 1646.75 1527.09 Q1648.81 1526 1651.28 1526 Q1656.49 1526 1659.5 1529.17 Q1662.53 1532.32 1662.53 1537.76 Q1662.53 1543.08 1659.39 1546.3 Q1656.24 1549.52 1651.01 1549.52 Q1645.01 1549.52 1641.84 1544.94 Q1638.67 1540.33 1638.67 1531.6 Q1638.67 1523.41 1642.56 1518.55 Q1646.45 1513.66 1653 1513.66 Q1654.76 1513.66 1656.54 1514.01 Q1658.34 1514.36 1660.29 1515.05 Z" fill="#000000" fill-rule="nonzero" fill-opacity="1" /><path clip-path="url(#clip880)" d="M1680.59 1517.37 Q1676.98 1517.37 1675.15 1520.93 Q1673.34 1524.47 1673.34 1531.6 Q1673.34 1538.71 1675.15 1542.27 Q1676.98 1545.82 1680.59 1545.82 Q1684.22 1545.82 1686.03 1542.27 Q1687.86 1538.71 1687.86 1531.6 Q1687.86 1524.47 1686.03 1520.93 Q1684.22 1517.37 1680.59 1517.37 M1680.59 1513.66 Q1686.4 1513.66 1689.46 1518.27 Q1692.53 1522.85 1692.53 1531.6 Q1692.53 1540.33 1689.46 1544.94 Q1686.4 1549.52 1680.59 1549.52 Q1674.78 1549.52 1671.7 1544.94 Q1668.65 1540.33 1668.65 1531.6 Q1668.65 1522.85 1671.7 1518.27 Q1674.78 1513.66 1680.59 1513.66 Z" fill="#000000" fill-rule="nonzero" fill-opacity="1" /><path clip-path="url(#clip880)" d="M2067.07 1548.13 L2067.07 1543.87 Q2068.83 1544.7 2070.64 1545.14 Q2072.45 1545.58 2074.18 1545.58 Q2078.81 1545.58 2081.24 1542.48 Q2083.7 1539.36 2084.04 1533.01 Q2082.7 1535.01 2080.64 1536.07 Q2078.58 1537.13 2076.08 1537.13 Q2070.89 1537.13 2067.86 1534.01 Q2064.85 1530.86 2064.85 1525.42 Q2064.85 1520.1 2068 1516.88 Q2071.15 1513.66 2076.38 1513.66 Q2082.38 1513.66 2085.52 1518.27 Q2088.69 1522.85 2088.69 1531.6 Q2088.69 1539.77 2084.81 1544.66 Q2080.94 1549.52 2074.39 1549.52 Q2072.63 1549.52 2070.82 1549.17 Q2069.02 1548.82 2067.07 1548.13 M2076.38 1533.48 Q2079.53 1533.48 2081.36 1531.32 Q2083.21 1529.17 2083.21 1525.42 Q2083.21 1521.7 2081.36 1519.54 Q2079.53 1517.37 2076.38 1517.37 Q2073.23 1517.37 2071.38 1519.54 Q2069.55 1521.7 2069.55 1525.42 Q2069.55 1529.17 2071.38 1531.32 Q2073.23 1533.48 2076.38 1533.48 Z" fill="#000000" fill-rule="nonzero" fill-opacity="1" /><path clip-path="url(#clip880)" d="M2107.1 1517.37 Q2103.49 1517.37 2101.66 1520.93 Q2099.85 1524.47 2099.85 1531.6 Q2099.85 1538.71 2101.66 1542.27 Q2103.49 1545.82 2107.1 1545.82 Q2110.73 1545.82 2112.54 1542.27 Q2114.37 1538.71 2114.37 1531.6 Q2114.37 1524.47 2112.54 1520.93 Q2110.73 1517.37 2107.1 1517.37 M2107.1 1513.66 Q2112.91 1513.66 2115.96 1518.27 Q2119.04 1522.85 2119.04 1531.6 Q2119.04 1540.33 2115.96 1544.94 Q2112.91 1549.52 2107.1 1549.52 Q2101.29 1549.52 2098.21 1544.94 Q2095.15 1540.33 2095.15 1531.6 Q2095.15 1522.85 2098.21 1518.27 Q2101.29 1513.66 2107.1 1513.66 Z" fill="#000000" fill-rule="nonzero" fill-opacity="1" /><polyline clip-path="url(#clip880)" style="stroke:#000000; stroke-linecap:round; stroke-linejoin:round; stroke-width:4; stroke-opacity:1; fill:none" points="177.871,1486.45 177.871,47.2441 "/>
<polyline clip-path="url(#clip880)" style="stroke:#000000; stroke-linecap:round; stroke-linejoin:round; stroke-width:4; stroke-opacity:1; fill:none" points="177.871,1483.13 196.769,1483.13 "/>
<polyline clip-path="url(#clip880)" style="stroke:#000000; stroke-linecap:round; stroke-linejoin:round; stroke-width:4; stroke-opacity:1; fill:none" points="177.871,1176.45 196.769,1176.45 "/>
<polyline clip-path="url(#clip880)" style="stroke:#000000; stroke-linecap:round; stroke-linejoin:round; stroke-width:4; stroke-opacity:1; fill:none" points="177.871,869.77 196.769,869.77 "/>
<polyline clip-path="url(#clip880)" style="stroke:#000000; stroke-linecap:round; stroke-linejoin:round; stroke-width:4; stroke-opacity:1; fill:none" points="177.871,563.088 196.769,563.088 "/>
<polyline clip-path="url(#clip880)" style="stroke:#000000; stroke-linecap:round; stroke-linejoin:round; stroke-width:4; stroke-opacity:1; fill:none" points="177.871,256.406 196.769,256.406 "/>
<path clip-path="url(#clip880)" d="M50.9921 1483.59 L80.6679 1483.59 L80.6679 1487.52 L50.9921 1487.52 L50.9921 1483.59 Z" fill="#000000" fill-rule="nonzero" fill-opacity="1" /><path clip-path="url(#clip880)" d="M94.7882 1496.48 L111.108 1496.48 L111.108 1500.41 L89.1632 1500.41 L89.1632 1496.48 Q91.8252 1493.72 96.4085 1489.09 Q101.015 1484.44 102.196 1483.1 Q104.441 1480.58 105.321 1478.84 Q106.223 1477.08 106.223 1475.39 Q106.223 1472.64 104.279 1470.9 Q102.358 1469.16 99.2558 1469.16 Q97.0567 1469.16 94.603 1469.93 Q92.1725 1470.69 89.3947 1472.24 L89.3947 1467.52 Q92.2188 1466.39 94.6724 1465.81 Q97.1261 1465.23 99.1632 1465.23 Q104.534 1465.23 107.728 1467.91 Q110.922 1470.6 110.922 1475.09 Q110.922 1477.22 110.112 1479.14 Q109.325 1481.04 107.219 1483.63 Q106.64 1484.3 103.538 1487.52 Q100.436 1490.72 94.7882 1496.48 Z" fill="#000000" fill-rule="nonzero" fill-opacity="1" /><path clip-path="url(#clip880)" d="M120.969 1465.85 L139.325 1465.85 L139.325 1469.79 L125.251 1469.79 L125.251 1478.26 Q126.27 1477.91 127.288 1477.75 Q128.307 1477.57 129.325 1477.57 Q135.112 1477.57 138.492 1480.74 Q141.871 1483.91 141.871 1489.33 Q141.871 1494.91 138.399 1498.01 Q134.927 1501.09 128.607 1501.09 Q126.432 1501.09 124.163 1500.72 Q121.918 1500.34 119.51 1499.6 L119.51 1494.91 Q121.594 1496.04 123.816 1496.59 Q126.038 1497.15 128.515 1497.15 Q132.519 1497.15 134.857 1495.04 Q137.195 1492.94 137.195 1489.33 Q137.195 1485.72 134.857 1483.61 Q132.519 1481.5 128.515 1481.5 Q126.64 1481.5 124.765 1481.92 Q122.913 1482.34 120.969 1483.22 L120.969 1465.85 Z" fill="#000000" fill-rule="nonzero" fill-opacity="1" /><path clip-path="url(#clip880)" d="M129.927 1162.25 Q126.316 1162.25 124.487 1165.82 Q122.682 1169.36 122.682 1176.49 Q122.682 1183.59 124.487 1187.16 Q126.316 1190.7 129.927 1190.7 Q133.561 1190.7 135.367 1187.16 Q137.195 1183.59 137.195 1176.49 Q137.195 1169.36 135.367 1165.82 Q133.561 1162.25 129.927 1162.25 M129.927 1158.55 Q135.737 1158.55 138.793 1163.15 Q141.871 1167.74 141.871 1176.49 Q141.871 1185.21 138.793 1189.82 Q135.737 1194.4 129.927 1194.4 Q124.117 1194.4 121.038 1189.82 Q117.983 1185.21 117.983 1176.49 Q117.983 1167.74 121.038 1163.15 Q124.117 1158.55 129.927 1158.55 Z" fill="#000000" fill-rule="nonzero" fill-opacity="1" /><path clip-path="url(#clip880)" d="M94.7882 883.115 L111.108 883.115 L111.108 887.05 L89.1632 887.05 L89.1632 883.115 Q91.8252 880.36 96.4085 875.731 Q101.015 871.078 102.196 869.735 Q104.441 867.212 105.321 865.476 Q106.223 863.717 106.223 862.027 Q106.223 859.273 104.279 857.536 Q102.358 855.8 99.2558 855.8 Q97.0567 855.8 94.603 856.564 Q92.1725 857.328 89.3947 858.879 L89.3947 854.157 Q92.2188 853.023 94.6724 852.444 Q97.1261 851.865 99.1632 851.865 Q104.534 851.865 107.728 854.55 Q110.922 857.236 110.922 861.726 Q110.922 863.856 110.112 865.777 Q109.325 867.675 107.219 870.268 Q106.64 870.939 103.538 874.157 Q100.436 877.351 94.7882 883.115 Z" fill="#000000" fill-rule="nonzero" fill-opacity="1" /><path clip-path="url(#clip880)" d="M120.969 852.49 L139.325 852.49 L139.325 856.425 L125.251 856.425 L125.251 864.898 Q126.27 864.55 127.288 864.388 Q128.307 864.203 129.325 864.203 Q135.112 864.203 138.492 867.374 Q141.871 870.546 141.871 875.962 Q141.871 881.541 138.399 884.643 Q134.927 887.721 128.607 887.721 Q126.432 887.721 124.163 887.351 Q121.918 886.981 119.51 886.24 L119.51 881.541 Q121.594 882.675 123.816 883.231 Q126.038 883.786 128.515 883.786 Q132.519 883.786 134.857 881.68 Q137.195 879.573 137.195 875.962 Q137.195 872.351 134.857 870.245 Q132.519 868.138 128.515 868.138 Q126.64 868.138 124.765 868.555 Q122.913 868.972 120.969 869.851 L120.969 852.49 Z" fill="#000000" fill-rule="nonzero" fill-opacity="1" /><path clip-path="url(#clip880)" d="M89.8114 545.808 L108.168 545.808 L108.168 549.743 L94.0937 549.743 L94.0937 558.215 Q95.1123 557.868 96.1308 557.706 Q97.1493 557.521 98.1678 557.521 Q103.955 557.521 107.334 560.692 Q110.714 563.864 110.714 569.28 Q110.714 574.859 107.242 577.961 Q103.77 581.039 97.4502 581.039 Q95.2743 581.039 93.0058 580.669 Q90.7604 580.299 88.353 579.558 L88.353 574.859 Q90.4364 575.993 92.6586 576.549 Q94.8808 577.104 97.3576 577.104 Q101.362 577.104 103.7 574.998 Q106.038 572.891 106.038 569.28 Q106.038 565.669 103.7 563.563 Q101.362 561.456 97.3576 561.456 Q95.4826 561.456 93.6076 561.873 Q91.7558 562.29 89.8114 563.169 L89.8114 545.808 Z" fill="#000000" fill-rule="nonzero" fill-opacity="1" /><path clip-path="url(#clip880)" d="M129.927 548.887 Q126.316 548.887 124.487 552.452 Q122.682 555.993 122.682 563.123 Q122.682 570.229 124.487 573.794 Q126.316 577.336 129.927 577.336 Q133.561 577.336 135.367 573.794 Q137.195 570.229 137.195 563.123 Q137.195 555.993 135.367 552.452 Q133.561 548.887 129.927 548.887 M129.927 545.183 Q135.737 545.183 138.793 549.79 Q141.871 554.373 141.871 563.123 Q141.871 571.85 138.793 576.456 Q135.737 581.039 129.927 581.039 Q124.117 581.039 121.038 576.456 Q117.983 571.85 117.983 563.123 Q117.983 554.373 121.038 549.79 Q124.117 545.183 129.927 545.183 Z" fill="#000000" fill-rule="nonzero" fill-opacity="1" /><path clip-path="url(#clip880)" d="M89.5799 239.126 L111.802 239.126 L111.802 241.117 L99.2558 273.686 L94.3715 273.686 L106.177 243.061 L89.5799 243.061 L89.5799 239.126 Z" fill="#000000" fill-rule="nonzero" fill-opacity="1" /><path clip-path="url(#clip880)" d="M120.969 239.126 L139.325 239.126 L139.325 243.061 L125.251 243.061 L125.251 251.533 Q126.27 251.186 127.288 251.024 Q128.307 250.839 129.325 250.839 Q135.112 250.839 138.492 254.01 Q141.871 257.182 141.871 262.598 Q141.871 268.177 138.399 271.279 Q134.927 274.357 128.607 274.357 Q126.432 274.357 124.163 273.987 Q121.918 273.617 119.51 272.876 L119.51 268.177 Q121.594 269.311 123.816 269.867 Q126.038 270.422 128.515 270.422 Q132.519 270.422 134.857 268.316 Q137.195 266.209 137.195 262.598 Q137.195 258.987 134.857 256.881 Q132.519 254.774 128.515 254.774 Q126.64 254.774 124.765 255.191 Q122.913 255.607 120.969 256.487 L120.969 239.126 Z" fill="#000000" fill-rule="nonzero" fill-opacity="1" /><polyline clip-path="url(#clip882)" style="stroke:#0000ff; stroke-linecap:round; stroke-linejoin:round; stroke-width:4; stroke-opacity:1; fill:none" points="239.425,715.317 264.308,720.717 269.529,716.327 289.448,714.718 298.102,714.509 318.783,718.101 338.077,721.991 364.188,723.639 390.521,725.892 420.764,730.583 449.567,730.067 473.635,730.312 509.134,731.804 530.951,738.287 553.601,742.472 587.986,745.22 612.998,746.955 633.565,752.221 661.945,758.71 685.091,766.138 707.815,774.274 730.598,780.619 758.311,787.203 780.94,795.839 806.51,801.197 836.937,808.868 859.211,808.256 892.805,810.304 917.756,818.987 943.541,826.941 974.124,836.89 998.304,845.231 1023.8,852.136 1041.66,862.646 1058.74,874.774 1065.87,879.89 1087.27,882.107 1104.61,883.589 1126.76,884.985 1152.71,888.411 1179.05,898.861 1205.75,909.724 1227.01,914.629 1252.24,917.571 1284.31,918.762 1312.86,919.426 1345.71,923.944 1372.89,929.253 1397.7,932.899 1422.1,935.408 1453.76,934.835 1477.64,934.316 1503.63,933.753 1530.1,931.049 1559.03,925.85 1587.53,926.982 1614.75,925.227 1640.29,925.848 1660.15,918.501 1677.72,915.832 1694.04,909.2 1711.67,902.831 1732.93,902.519 1755.99,900.334 1777.89,902.877 1796.78,906.837 1818.13,913.487 1837.65,925.071 1858.27,937.779 1873.29,949.04 1888.71,965.743 1898.68,979.538 1905.62,993.715 1914.99,1012.58 1927.53,1030.02 1940.49,1048.55 1951.28,1058.89 1970.11,1065.09 1984.55,1067.4 1994.67,1066.82 2016.77,1058.9 2032.48,1053.51 2051.49,1032.97 2062.7,1017.59 2066.08,997.295 2067.94,979.375 2066.91,958.153 2052.56,943.458 2033.73,936.654 2011.33,928.481 1982.53,930.808 1958.26,929.479 1938.58,926.553 1920.66,923.517 1899.51,920.993 1879.95,927.481 1858.05,934.034 1842.21,941.796 1819.15,944.141 1794.28,943.046 1767.1,938.04 1745.4,927.141 1723.12,916.304 1693.1,900.819 1668.04,883.082 1645.82,865.01 1631.42,850.527 1620.2,837.81 1603.91,824.362 1589.91,808.009 1578.23,792.775 1570.34,776.302 1570.8,760.818 1583.81,745.287 1598.27,734.387 1621.85,727.548 1639.37,729.216 1664.84,729.829 1683.8,742.89 1705.48,749.722 1718.91,754.717 1740.8,760.416 1762.75,771.194 1773.8,780.029 1791.23,790.333 1809.61,801.177 1831.62,808.645 1851.82,809.872 1872.81,809.918 1896.14,802.372 1916.59,798.349 1932.64,798.197 1951.72,806.804 1967.64,819.216 1982.62,835.244 1991.83,851.346 2000.3,871.305 2008.03,892.557 2011.99,911.66 2010.78,932.588 2010.77,942.623 2014.1,955.834 2025.19,974.149 2032.3,991.527 2043.72,1006.18 2055.25,1012.74 2068.63,1016.25 2086.75,1011.75 2106.18,1003.61 2119.55,995.432 2135.31,983.425 2144.23,974.474 2146.2,954.343 2135.58,936.689 2117.36,920.079 2103.94,904.207 2080.61,893.322 2052.09,889.234 2025.86,885.025 2008.92,882.709 1985.5,880.67 1965.71,878.368 1947.64,868.06 1933.5,861.504 1911.58,855.199 1895.71,855.15 1873.64,857.935 1853.49,851.987 1832.92,846.222 1814.05,845.358 1789.46,842.117 1771.78,836.983 1755,832.422 1733.53,831.114 1706.03,833.043 1680.08,839.322 1664.64,837.648 1661.82,829.068 1656.45,825.967 1649.41,824.727 1638.27,824.18 1629.69,823.582 1615.82,828.218 1601.17,835.017 1575.74,839.293 1554.51,843.035 1540.49,848.427 1531.46,857.235 1539,857.549 1556.76,855.549 1590.71,851.651 1604.97,833.294 1621.01,818.723 1627.63,802.975 1619.21,785.486 1605.13,767.979 1593.15,757.494 1583.23,736.455 1563.77,726.443 1542.86,738.794 1520.74,738.604 1492.68,732.705 1489.81,714.24 1485.57,695.335 1487.23,674.194 1491.33,658.405 1507.3,636.601 1514.18,616.501 1516.26,593.79 1499.22,581.606 1477.06,573.795 1467.06,571.912 1478,558.8 1499.68,548.247 1536.61,547.341 1574.51,532.731 1599.13,515.686 1616.84,491.304 1630.47,470.446 1652.05,462.369 1676.85,465.201 1700.54,470.759 1719.53,489.149 1746.44,501.589 1766.69,517.952 1776.51,538.605 1763.96,555.444 1746.08,571.828 1719.58,583.868 1685.65,589.934 1660.09,590.286 1627.05,575.079 1601.52,558.681 1592.03,537.718 1591.22,515.896 1609.64,501.489 1624.64,491.274 1648.04,477.498 1671.3,468.825 1693.08,453.008 1715.54,440.103 1735.34,440.041 1758.14,425.821 1761.16,410.617 1772.05,393.849 1784.58,388.357 1801.91,371.33 1793.78,357.299 1771.96,346.377 1767.45,345.486 1780.61,341.118 1806.27,334.521 1834.81,339.926 1859.95,342.884 1885.75,348.296 1909.3,366.293 1912.12,384.743 1907.79,397.103 1886.89,408.061 1870.97,430.167 1855.67,458.251 1845.99,490.727 1849.06,510.113 1813.74,512.527 1789.85,528.168 1758.28,534.596 1727.71,551.442 1711.05,577.098 1691.22,594.26 1664.74,588.346 1642.78,576.929 1615.65,567.931 1601.19,555.533 1575.6,539.556 1566.69,531.534 1574.51,510.08 1599.12,501.839 1633.36,496.447 1662.07,500.148 1697.61,506.952 1725.32,521.809 1733.2,543.309 1746.38,563.632 1763.03,568.01 1788.69,572.906 1811.61,583.73 1821.84,586.08 1847.33,578.708 1871.42,570.369 1890.79,560.624 1910.62,564.135 1929.5,579.43 1928.24,597.688 1929.06,618.893 1916.29,649.855 1895.02,675.805 1869.96,695.045 1847.88,724.493 1847.08,749.799 1811.81,761.282 1783.93,766.54 1756.09,780.797 1730.91,795.599 1713.78,814.589 1698.09,835.06 1672.51,858.226 1645.92,866.87 1618.99,857.521 1594.96,851.33 1564.06,847.825 1535.77,839.459 1516,818.131 1502.11,797.831 1471.4,775.582 1455.45,755.852 1430.35,739.203 1406.48,736.771 1376.34,742.381 1358.01,739.81 1332.94,731.134 1328.35,705.14 1310.79,697.581 1286.69,701.95 1268.97,710.293 1245.56,727.276 1239.27,734.466 1209.59,737.173 1186.52,743.328 1160.89,735.907 1140.44,717.49 1116.66,704.787 1082.57,700.075 1051.03,691.659 1028.59,685.988 1008.48,675.335 989.263,654.864 988.632,640.814 998.829,621.793 1014.14,601.828 1024.79,578.521 1031.07,548.073 1038.17,522.861 1021.62,503.492 1002.88,499.18 993.237,487.798 997.708,474.636 1025.04,474.251 1061.19,477.778 1103.55,474.916 1134.78,471.078 1162.4,452.508 1186.13,428.025 1210.07,408.832 1240.87,402.727 1279.05,405.246 1310.54,417.511 1341.69,432.413 1371.37,445.868 1397.49,458.236 1419.24,470.945 1454.51,479.196 1480.21,492.99 1506.03,515.744 1536.95,543.067 1563.82,558.053 1587.18,569.232 1606.68,579.51 1615.57,568.285 1635.85,560.674 1661.32,546.52 1685.17,536.708 1714.71,526.343 1747.49,524.774 1782.27,533.33 1808.82,558.511 1815.79,580.542 1812.89,612.084 1794.37,644.066 1792.6,671.97 1783.7,704.254 1784.61,738.191 1800.36,768.674 1832.68,793.469 1872.49,790.881 1892.78,794.059 1922.79,800.287 1941.89,822.802 1967.3,848.788 1988.8,880.992 2000.19,913.476 2003.79,934.672 2021.18,916.431 2055.41,922.171 2082.54,928.515 2094.74,944.25 2096.39,947.975 2097.04,953.198 2102.48,969.651 2104.85,975.622 2118.75,979.174 2135.79,981.073 2163.19,974.22 2191.03,983.74 2204.78,997.072 2217.63,1019.46 2217.93,1033.66 2221.27,1018.31 2226.64,999.712 2224.69,972.422 2213.59,946.022 2197.88,922.723 2187.47,900.176 2189.08,880.846 2161.09,859.646 2154.42,828.441 2159.72,803.651 2177.79,793.314 2198.44,795.402 2222.68,803.598 2238.48,816.72 2250.35,836.091 2276.07,859.638 2290.74,879.921 2280.78,906.851 2261.2,929.074 2243.59,949.093 2213.4,960.663 2194.88,980.684 2167.23,992.373 2141.68,1015.99 2122.1,1037.57 2111.87,1061.06 2092.6,1083.91 2075.61,1105.93 2050.23,1122.42 2023.6,1133.76 1993.03,1150.42 1968.68,1168.89 1940.43,1176.86 1911.86,1196.66 1896.77,1213.41 1864.94,1225.74 1845.32,1240.26 1827.28,1259.39 1810.04,1287.76 1802.8,1308.36 1797.91,1328.63 1791.48,1352.53 1814.32,1373.63 1823.24,1388.67 1815.11,1411.63 1807.89,1438.16 1788.07,1441.68 1765.92,1438.45 1743.66,1419.73 1731.35,1393.04 1718.02,1371.77 1693.81,1349.28 1654.78,1322.58 1625.75,1315.6 1591.88,1314.93 1554.55,1323.24 1513.19,1332.3 1487.51,1332.99 1453.83,1322.74 1428.38,1310.32 1408.83,1285.71 1406.29,1252 1401.04,1211.87 1381.05,1185.01 1359.11,1164.34 1365.17,1132.91 1363.2,1105.13 1355.2,1080.81 1343.6,1052.68 1324.33,1028.96 1319.32,1001.97 1326.22,968.693 1334.94,935.024 1353.34,906.118 1369.43,874.967 1382.47,842.898 1409.08,821.621 1404.14,793.984 1388.2,769.922 1358.9,746.448 1326.37,745.202 1307.18,731.36 1298.07,705.739 1294.8,673.605 1307.97,645.826 1321.22,623.997 1343.85,616.01 1373.86,604.232 1410.09,598.292 1450.84,594.977 1489.09,595.192 1516.29,587.169 1539.35,561.83 1556.88,539.596 1584.98,526.75 1606.97,521.169 1609.97,505.44 1596.66,492.77 1574.85,477.651 1549.09,464.644 1519.86,437.811 1497.37,411.078 1485.19,385.263 1467.53,365.106 1464.93,347.425 1473.5,327.291 1490.36,317.685 1507.31,327.272 1538.15,331.52 1576.91,334.626 1611.18,343.606 1651.46,349.335 1684.39,352.587 1713.9,368.065 1738.63,373.231 1763.17,365.893 1786.46,355.037 1817.85,349.829 1850.41,350.946 1881.2,345.265 1903.39,360.432 1914.23,376.373 1919.82,369.597 1930.14,353.225 1947.17,336.405 1964.67,325.793 1988.54,310.882 2007.66,301.484 1995.97,303.469 1973.52,290.276 1964.9,272.957 1953.37,243.323 1957.92,215.411 1969.25,200.25 1997.71,190.386 2030.95,193.887 2055.21,198.236 2088.24,202.595 2123.79,214.258 2145.74,237.071 2150.54,266.196 2143.95,292.84 2131.34,300.967 2136.15,317.028 2140.39,339.547 2135.52,371.481 2106.15,389.032 2087.89,424.303 2059.87,445.82 2037.35,471.806 2030.42,505.997 2004.68,512.977 1970.63,514.432 1935.82,526.316 1905.32,540.309 1889.06,567.961 1876.98,598.99 1877.34,615.307 1903.25,619.252 1932.8,633.658 1969.07,647.954 2003.11,671.705 2031.08,686.229 2069.31,691.021 2104.35,691.737 2142.25,687.68 2170.92,693.372 2196.1,691.847 2206.49,676.649 2219.03,657.418 2236.51,637.131 2234.86,612.058 2230.49,592.777 2220.99,569.171 2194.35,547.661 2173.12,529.481 2148.32,514.813 2107.25,515.703 2082.52,522.943 2058.34,541.046 2041.95,560.581 2016.47,585.672 2012.99,615.291 2018.3,646.407 2021.23,676.062 2038.43,702.522 2050.52,727.789 2064.03,761.246 2079.03,791.639 2110.03,802.867 2140.01,820.464 2166.26,849.245 2185.96,872.3 2200.47,903.748 2207.54,928.362 2203.98,939.783 2173.18,940.881 2136.32,954.406 2107.94,952.883 2092.7,960.926 2072.82,964.604 2051.37,959.762 2020.07,946.206 1990.84,937.168 1955.1,940.739 1910.2,955.084 1871.72,967.819 1834.78,967.903 1791.87,976.46 1755.27,977.242 1716.77,977.148 1686.25,971.478 1651.76,976.029 1619.68,970.098 1587.24,963.486 1552.69,933.408 1525.15,917.723 1487.67,910.659 1455,894.553 1425.54,879.169 1394.83,857.704 1368.4,851.048 1342.8,865.113 1318.07,880.882 1289.27,896.624 1252.38,914.983 1214.86,922.626 1185.98,918.042 1157.71,893.962 1139.84,869.706 1121.83,840.108 1097.29,814.98 1086.73,783.719 1082.46,755.757 1084.73,733.002 1071.67,704.157 1049.24,686.97 1021.64,674.585 1001.12,653.144 993.163,622.345 990.998,598.49 979.476,571.116 988.889,544.367 1009.38,516.511 1020.13,499.756 1034.41,493.401 1043.97,478.894 1048.45,463.116 1054.58,440.301 1061.44,415.148 1066.26,386.396 1077.82,353.181 1078.8,330.567 1056.88,312.126 1037.5,298.752 1010.64,299.018 983.752,307.543 956.496,303.747 925.206,288.502 887.355,274.568 864.775,269.07 842.65,264.095 827.777,247.077 827.157,225.456 842.4,207.969 864.873,189.142 887.661,170.765 931.056,160.16 960.676,146.758 993.485,140.702 1022.95,153.384 1050.86,160.286 1084.22,155.251 1118.45,149.143 1137.86,128.154 1153.64,108.923 1166.59,88.0155 "/>
<polyline clip-path="url(#clip882)" style="stroke:#ff0000; stroke-linecap:round; stroke-linejoin:round; stroke-width:4; stroke-opacity:1; fill:none" points="239.886,715.313 270.313,721.692 272.928,712.823 294.089,714.123 297.471,714.822 324.516,720.502 341.413,724.047 370.206,723.802 394.749,725.814 425.19,732.193 451.482,728.292 472.643,729.58 514.979,732.18 526.774,740.939 551.332,742.939 593.682,745.539 611.475,746.128 630.931,753.354 664.797,760.444 684.266,767.67 707.133,775.607 730.852,780.575 761.35,786.966 779.981,797.16 807.964,799.883 841.034,809.967 857.15,803.907 898.719,809.477 916.526,822.652 943.67,828.344 976.782,838.427 996.309,845.665 1023.48,851.357 1037.92,863.833 1055.78,877.02 1059.18,877.732 1091.46,878.198 1105.04,881.056 1129.68,883.068 1156.89,888.772 1181.57,903.407 1207.95,912.08 1225.8,912.681 1253.85,915.417 1289.56,916.594 1314.22,918.619 1348.26,925.758 1372.1,930.763 1396.76,932.775 1421.43,934.799 1457.98,933.02 1475.85,933.609 1504.76,933.376 1531.09,929.438 1561.64,923.256 1588.9,928.96 1615.22,925.034 1639.91,927.058 1657.64,915.036 1675.51,915.625 1692.4,906.584 1711.9,901.224 1735.76,906.229 1758.66,901.579 1779.12,905.861 1796.16,909.43 1819.23,917.404 1837.26,930.616 1859.52,941.571 1871.55,950.391 1887.98,969.577 1895.8,980.666 1902.81,994.737 1915.03,1016.22 1928.88,1031.74 1941.93,1050.25 1951.38,1055.39 1975.31,1060.42 1985.57,1062.56 1993.23,1061 2021.2,1051.09 2032.26,1050.25 2053.97,1023.26 2059.81,1015.01 2058.59,992.701 2062.6,977.796 2061.39,955.506 2042.51,945.263 2025.42,941.681 2003.14,930.726 1976.01,937.633 1955.53,933.352 1939.27,926.801 1922.22,923.231 1897.52,921.207 1879.83,933.241 1856.92,937.878 1844.25,944.674 1816.14,941.926 1791.44,939.915 1764.16,934.198 1746.14,920.986 1723.09,913.012 1688.04,896.231 1667.46,879.351 1646.9,862.471 1635.73,850.719 1624.57,838.955 1603.2,825.068 1590.29,806.68 1579.96,791.983 1573.87,775.03 1577.97,760.223 1596.49,745.294 1606.57,734.867 1629.42,730.254 1643,733.088 1671.84,732.855 1685.57,748.238 1705.98,752.507 1716.18,754.629 1743.4,760.322 1764.77,774.171 1769.96,781.519 1792.15,792.425 1810.96,802.631 1834.79,807.612 1853.44,805.232 1874.68,806.532 1899.15,795.97 1916.99,796.571 1930.62,799.417 1952.05,813.292 1966.67,825.755 1980.5,841.187 1987.51,855.197 1996.33,875.879 2005.16,896.574 2007.96,912.877 2005.74,934.419 2008.36,938.111 2014.58,955.15 2030.26,977.317 2033.07,993.657 2047.74,1006.18 2058,1008.34 2071.67,1011.2 2091.98,1002.85 2108.05,996.761 2117.29,989.241 2134.97,977.195 2139.98,971.957 2139.53,946.686 2124.85,934.173 2107.55,917.981 2097.11,903.235 2074.01,895.262 2045.9,892.526 2022.01,887.533 2011.78,885.386 1983.68,882.663 1966.63,879.093 1949.39,862.925 1935.75,860.079 1908.48,854.375 1896.64,858.178 1870.35,862.103 1852.33,848.916 1831.88,844.647 1813.22,847.014 1785.97,841.322 1773.15,835.508 1756.13,831.938 1730.66,832.895 1700.97,836.109 1677.27,843.702 1668.7,835.63 1668.56,823.044 1660.94,824.59 1649.91,825.424 1635.47,825.547 1628.67,824.124 1611.77,833.14 1599.11,839.912 1566.83,839.445 1551.57,842.525 1542.29,850.008 1535.59,861.183 1550.86,858.092 1569.52,855.712 1600.04,849.529 1609.18,829.46 1623.49,816.763 1627.59,801.932 1618.08,784.267 1601.78,765.192 1593.21,757.132 1581.95,732.867 1562.38,725.642 1540.47,739.86 1519.27,738.559 1488.68,732.168 1490.23,713.706 1484.99,693.845 1487.36,672.451 1491.47,657.681 1509.05,633.245 1513.98,615.543 1517.16,591.254 1498.47,581.121 1475.56,573.233 1468.79,571.822 1480.5,555.568 1504.94,545.08 1543.85,546.957 1580.89,529.77 1599.35,514.939 1616.86,490.601 1629.33,471.452 1649.51,463.22 1677.43,465.919 1701.13,470.838 1720.78,490.454 1749.65,502.672 1766.76,518.668 1775.46,539.142 1763.82,555.384 1744.57,573.172 1715.95,585.905 1682.17,591.34 1661,590.052 1622.74,572.73 1601.46,558.954 1592.81,538.468 1591.76,516.472 1610.2,501.654 1623.62,492.011 1649.64,475.671 1673.22,468.152 1695.84,451.112 1716.82,439.961 1734.56,440.538 1760.53,424.222 1760.39,411.796 1772.81,392.683 1784.58,388.93 1804.58,368.308 1793.46,356.716 1768.01,345.246 1783.97,339.284 1814.24,333.187 1840.49,341.713 1861.59,343.001 1888.65,348.607 1911.72,368.86 1911.09,384.207 1907.88,395.922 1882.75,409.293 1868.74,434.282 1853.92,462.227 1845.05,494.539 1848.62,507.714 1808.09,511.713 1788.87,529.488 1755.12,534.91 1724.89,553.507 1710.79,578.606 1692.35,593.462 1665.2,587.807 1643.09,576.975 1613.39,567.664 1602.27,556.01 1571.66,537.18 1569.09,533.536 1576.45,507.063 1603.43,500.243 1640.56,495.532 1664.27,500.464 1701.54,508.217 1726.23,522.68 1731.53,542.442 1747,564.339 1760.58,567.161 1791.12,573.515 1813.24,584.36 1820.04,585.77 1851.23,576.693 1874.82,569.148 1891.61,560.193 1911.97,564.425 1932.52,581.146 1927.7,598.835 1928.87,620.892 1911.62,657.853 1891.58,678.646 1868.93,695.796 1845.63,728.451 1847.58,747.625 1807.89,761.254 1785.04,765.879 1755.53,781.642 1730.22,795.161 1714.3,813.795 1697.56,835.397 1668.97,860.815 1646.07,865.452 1619.66,856.779 1595.82,851.786 1560.95,847.64 1534.56,838.967 1515.67,816.187 1502.79,797.798 1466.94,771.485 1456.65,756.801 1429.39,738.572 1408.17,737.271 1374.31,742.718 1360.72,739.872 1330.99,730.537 1328.29,701.782 1311.32,698.237 1285.07,702.15 1268.18,711.142 1241.15,730.549 1240.31,733.505 1203.03,738.24 1183.55,743.577 1157.24,734.928 1137.7,715.178 1115.63,704.297 1077.5,699.464 1047.84,690.128 1030.9,686.583 1008.87,675.714 986.83,652.345 989.374,643.488 999.507,620.597 1016.4,599.129 1026.52,576.275 1032.39,543.191 1038.28,522.606 1022.2,503.678 1005.31,500.157 994.319,488.528 998.526,473.844 1030.62,474.298 1068.62,479.106 1109.13,475.107 1135.3,471.218 1162.26,451.959 1187.48,426.148 1210.19,409.134 1240.53,403.037 1282.73,405.601 1311.48,417.782 1342.79,433.607 1371.56,445.801 1396.97,457.295 1418.18,471.034 1458.78,479.474 1480,493.226 1508.93,517.908 1540.45,546.257 1562.54,557.077 1584.64,567.909 1603.34,578.042 1612.58,570.608 1636.99,560.119 1666.44,544.454 1686.63,536.211 1718.62,524.201 1750.76,524.667 1787.25,535.364 1812.12,562.328 1814.87,578.459 1811.95,615.249 1792.06,648.542 1793.18,670.623 1783.44,706.1 1784.72,740.767 1802.05,769.436 1834.63,795.038 1871.91,790.29 1885.54,793.136 1923,800.951 1942.02,823.731 1970.47,851.639 1990.51,884.086 2000.33,914.423 2003.14,930.726 2017.39,917.993 2059.16,923.587 2083.07,928.58 2093.52,943.349 2096.14,947.042 2097.96,953.715 2103.4,973.735 2106.02,977.44 2123.11,981.01 2140.99,981.611 2172.34,972.423 2197.3,987.094 2205.17,998.196 2220.12,1023.38 2217.72,1032.34 2221.71,1017.41 2227.28,996.516 2224.17,967.54 2212.66,943.104 2196.93,920.962 2188.05,900.254 2189.41,881.694 2156.64,856.019 2154.38,824.185 2159.95,803.416 2176.78,794.4 2198.02,795.713 2224.51,804.361 2239.19,816.825 2251.49,838.194 2280.88,863.146 2290.57,880.86 2279.24,909.884 2259.23,930.837 2243.41,949.544 2211.3,961.701 2195.46,980.421 2166.76,993.302 2138.25,1018.84 2122.39,1037.59 2112.55,1060.77 2091.65,1084.8 2074.95,1106.58 2048.79,1123.22 2024.22,1133.88 1990.36,1152.09 1967.58,1169.47 1940.37,1176.43 1909.09,1198.37 1898.17,1211.94 1861.65,1226.47 1847.3,1239.32 1827.06,1260.47 1807.79,1291.37 1803.71,1306.41 1797.98,1327.49 1790.62,1354.6 1817.42,1376.19 1821.84,1386.69 1814.48,1413.84 1807.11,1441.02 1789.11,1440.41 1764.23,1438.36 1740.85,1417.46 1730.26,1389.68 1717.2,1370.99 1691.25,1346.39 1648.19,1318.19 1626.79,1316.86 1590.86,1315.66 1552.45,1323.48 1509.77,1333.6 1491.81,1332.98 1451.52,1321.3 1429.21,1310.21 1407.66,1283.39 1406.57,1248.17 1400.3,1205.54 1380.53,1185.51 1360.78,1165.47 1366.55,1131.81 1362.98,1105.72 1355.16,1081.92 1342.19,1050.72 1323.33,1027.8 1319.78,1001.78 1326.39,965.296 1335.55,932.542 1354.08,904.94 1370.04,873.671 1382.58,841.715 1409.61,822.247 1402.65,795.676 1388.05,770.663 1355.66,745.086 1326.84,745.331 1308.96,732.193 1298.65,704.984 1294.23,669.642 1308.49,644.494 1321.07,625.259 1341.34,616.991 1377.65,602.711 1414.84,597.989 1455.43,593.977 1490.97,595.155 1514.59,587.598 1540.57,558.733 1556.47,540.246 1585.09,527.538 1604.49,522.238 1608.57,507.53 1594.9,492.257 1571.08,474.874 1545.64,463.367 1514.97,432.147 1496.21,409.637 1485.06,385.617 1468.89,366.763 1466.23,350.729 1472.78,327.323 1489.56,318.442 1508.19,328.489 1542.79,332.574 1584.95,335.125 1614.55,344.362 1655.92,349.846 1683.78,352.532 1715.16,368.333 1735.45,372.54 1762.37,365.744 1786.7,355.317 1820.36,349.92 1852.41,350.373 1882.68,344.277 1903.16,360.899 1913.49,375.411 1918.48,370.259 1930.86,351.171 1949.99,333.494 1966.73,324.6 1992.61,308.333 2008.53,302.359 1997.58,303.181 1969.54,288.117 1963.39,271.421 1951.1,238.042 1958.29,211.79 1968.22,201.535 2000.03,189.635 2034.59,193.696 2054.86,197.891 2092.81,202.651 2128.4,216.157 2147.32,238.545 2150.36,266.919 2143.24,293.196 2134.89,297.649 2136.91,316.589 2140.74,342.093 2134.61,377.926 2102.75,389.886 2084.86,429.534 2058.95,445.85 2037.4,472.396 2031.22,508.376 2009.26,510.02 1968.75,514.031 1932.61,528.274 1904.03,540.995 1889.21,569.025 1876.94,600.736 1877.92,610.28 1904.28,618.892 1935.85,634.815 1975.03,649.217 2007.63,674.733 2029.84,685.601 2071.47,691.146 2103.69,691.612 2144.32,687.589 2168.14,692.557 2193.56,691.6 2204.33,678.241 2220.89,656.737 2237.42,635.232 2233.55,609.508 2230.69,593.352 2220.02,566.241 2190.01,544.454 2172.8,528.458 2148.01,513.982 2100.7,516.583 2084.73,522.594 2057.98,541.903 2042.22,560.389 2013.04,588.555 2012.65,616.512 2018.23,648.849 2021.23,677.566 2039.45,703.217 2050.86,727.47 2065.9,765.02 2079.95,792.989 2109.83,802.361 2140.74,821.339 2168.48,852.216 2184.96,871.353 2200.91,906.081 2206.38,926.077 2203.99,935.008 2170.05,940.491 2129.51,957.175 2109,952.881 2096.35,959.677 2073.44,964.326 2049.54,959.321 2014.38,942.515 1987.07,936.799 1949.7,941.571 1902.27,956.819 1870.11,968.976 1834.33,967.786 1788.5,977.084 1756.16,976.606 1716.17,977.685 1688.87,971.969 1651.48,976.729 1620.78,970.301 1586.67,963.149 1546.37,926.347 1526.74,919.085 1485.87,910.522 1454.3,894.464 1426.15,879.13 1392.87,856.436 1372.45,852.167 1343.65,864.998 1317.42,881.51 1287.76,897.335 1246.22,916.962 1212.24,922.434 1188.42,917.441 1156.05,891.753 1140.68,869.648 1121.07,837.225 1095.55,813.022 1086.15,782.783 1082.7,756.96 1085.2,735.529 1069.88,700.997 1048.68,687.172 1019.87,674.892 1001.23,652.222 992.742,619.186 991.022,600.086 978.332,569.332 989.303,543.546 1012.08,514.019 1018.83,502.966 1031.48,496.268 1043.29,480.051 1048.32,462.435 1055.88,436.036 1062.59,412.581 1067.59,382.575 1081.01,348.165 1078.45,332.132 1055.67,311.916 1037.96,298.949 1009.33,299.194 981.543,308.898 954.598,303.304 920.078,286.841 881.366,272.611 867.908,269.814 844.345,264.92 828.386,246.138 827.59,224.339 843.592,206.037 867.155,186.225 889.865,169.345 939.449,158.035 960.453,146.982 994.049,141.609 1022.63,153.704 1049.53,159.274 1086.5,154.6 1120.09,149.239 1136.83,128.066 1152.74,109.812 1166.09,87.9763 "/>
<polyline clip-path="url(#clip882)" style="stroke:#3da44d; stroke-linecap:round; stroke-linejoin:round; stroke-width:4; stroke-opacity:1; fill:none" points="254.295,718.47 266.774,715.957 280.562,716.372 296.074,715.474 312.635,717.541 331.179,718.838 350.402,723.276 373.699,725.89 398.222,728.316 422.094,729.976 449.634,732.268 477.257,733.082 505.016,733.351 530.844,737.634 556.855,741.729 585.144,745.258 610.549,750.414 636.96,754.973 660.949,762.47 686.485,768.083 712.465,771.611 734.984,780.073 758.151,788.667 783.586,795.429 810.273,800.749 837.114,807.727 865.338,811.718 892.525,817.475 918.161,824.59 944.531,830.204 970.175,836.373 993.691,845.488 1015.99,853.562 1035.25,862.071 1052.85,869.006 1069.63,874.721 1090.25,879.724 1111.57,882.76 1133.79,887.097 1156.6,893.246 1179.91,899.835 1204.67,907.463 1231.03,911.256 1257.25,914.551 1285.66,918.444 1313.6,920.681 1341.19,923.981 1369.02,926.785 1396.92,930.157 1424.36,931.396 1451.85,931.346 1478.61,931.51 1505.38,929.843 1531.33,926.869 1558.89,925.573 1585.38,924.817 1610.32,923.461 1634.82,922.75 1655.69,920.403 1675.62,915.266 1695.67,910.719 1714.78,908.062 1734.55,905.353 1755.63,906.156 1776.56,908.469 1798.86,911.458 1817.8,920.389 1836.37,928.86 1854.71,940.764 1870.32,954.196 1885.44,966.961 1897.55,980.299 1907.92,996.811 1917.78,1012.98 1930.4,1026.86 1943.27,1038.69 1955.92,1048.19 1969.4,1054.29 1984.61,1056.04 1999.04,1053.16 2015.57,1049.89 2028.25,1038.49 2040.66,1025.87 2050.77,1010.69 2056.19,993.926 2054.26,976.011 2048.15,959.62 2035.1,947.831 2019.38,940.114 2001.84,935.576 1982.21,933.27 1959.13,928.813 1939.11,928.88 1918.96,928.165 1898.24,927.794 1877.09,928.929 1855.3,932.96 1834.9,933.025 1813.17,935.562 1789.86,933.23 1765.93,930.275 1741.73,919.771 1718.67,907.614 1695.15,894.883 1673.89,881.17 1654.76,866.709 1637.29,851.953 1620.36,837.833 1607.73,823.048 1597.07,806.877 1586.28,791.604 1583.35,777.903 1587,764.322 1593.27,753.023 1602.67,743.37 1620.28,737.411 1641.31,737.014 1663.09,738.398 1682.91,742.471 1703.16,748.136 1721.11,755.933 1740.19,764.34 1758.79,773.831 1776.67,782.25 1794.27,791.792 1813.42,799.965 1833.78,803.633 1854.59,804.423 1874.28,805.837 1893.03,804.033 1913.52,804.313 1931.57,808.023 1947.39,814.645 1963.57,826.93 1975.37,841.387 1986.58,855.785 1995.55,872.975 2002.69,891.379 2004.87,909.18 2008.52,924.962 2014.38,940.461 2020.67,954.936 2027.75,969.261 2036.19,983.225 2046.59,993.429 2057.6,999.288 2069.79,1001.59 2084.67,1000.76 2097.19,995.451 2111.68,989.166 2123.58,979.488 2132.29,967.328 2134.99,951.509 2128.11,934.248 2110.38,921.375 2092.42,909.585 2073.61,898.136 2050.38,891.74 2029.28,886.041 2009.25,882.36 1989.19,878.002 1969.17,875.778 1950.39,870.503 1929.41,867.478 1908.03,861.423 1889.15,857.538 1869.7,854.385 1849.4,850.275 1831.79,847.173 1810.93,843.73 1791.79,839.349 1772.77,838.119 1753.05,836.491 1731.02,835.378 1712.1,834.799 1693.98,834.721 1678.12,833.128 1665.75,829.764 1654.09,828.88 1645.02,828.823 1633.94,828.443 1620.96,828.357 1608.1,828.294 1593.21,830.438 1575.2,826.784 1564.44,841.467 1553.35,844.277 1552.49,853.097 1547.79,857.634 1570.47,852.827 1591.61,849.095 1608.43,836.078 1623.3,821.605 1627.05,804.587 1616.3,786.154 1605.9,767.443 1596.46,749.995 1582.66,734.346 1559.05,730.461 1534.95,732.893 1511.85,741.711 1491.61,732.925 1489.94,711.594 1496.81,691.948 1483.91,676.066 1488.31,654.376 1503.28,637.043 1512.33,614.975 1506.47,594.277 1490.01,586.592 1468.94,580.637 1465.51,563.03 1489.79,560.542 1519.55,561.115 1546.55,553.141 1575.22,536.798 1595.17,513.046 1615.58,491.01 1634.94,473.175 1658.59,461.346 1680.31,472.404 1708.24,472.01 1726.28,488.466 1749.65,494.879 1760.72,519.166 1769.75,537.485 1756.89,554.696 1738.57,574.561 1715.14,580.499 1688.21,583.664 1663.46,573.656 1637.91,566.868 1605.79,561.769 1580.29,547.342 1588.47,524.47 1615.96,506.359 1630.71,488.867 1648.32,473.28 1670.48,464.121 1693.01,456.172 1713.8,447.834 1736.67,444.208 1755.41,430.291 1756.59,409.135 1768.83,396.193 1786.52,389.076 1797.85,374.1 1787.87,360.718 1769.63,350.892 1775.18,334.702 1793.02,342.667 1815.53,337.638 1839.07,343.617 1862.97,345.784 1889.87,345.587 1911.56,360.864 1921.69,382.652 1903.84,401.903 1882.23,417.993 1869.08,438.526 1853.05,459.577 1848.38,486.61 1845.55,512.769 1812.04,509.763 1786.54,525.977 1755.87,536.06 1729.17,553.511 1716.35,575.507 1694.4,594.954 1663.97,595.889 1639.43,582.655 1616.36,573.586 1599.13,557.522 1578.99,544.999 1570.39,524.61 1579.87,506.67 1604.23,492.711 1634.27,501.743 1666.6,503.873 1697.34,505.17 1723.12,517.458 1730.98,539.918 1745.03,559.528 1764.6,567.679 1787.59,570.718 1805.99,585.962 1827.55,584.938 1847.6,578.536 1868.64,572.151 1891.27,560.752 1917.04,563.583 1935.8,584.395 1932.08,608.252 1915.68,628.757 1906.67,653.91 1887.77,679.747 1868.99,702.645 1856.44,727.096 1836.38,744.236 1809.24,756.625 1781.86,765.188 1757.24,781.641 1731.24,794.643 1711.35,813.24 1697.84,839.677 1676.02,858.826 1644.03,866.378 1611.8,861.091 1589.16,848.513 1558.48,850.643 1530.93,838.52 1515.93,817.313 1495.59,796.685 1475.15,773.915 1456.53,748.142 1430.28,734.095 1408.44,741.888 1381.36,743.282 1358.17,739.661 1339.9,725.628 1327.75,706.9 1307.58,698.428 1287.7,703.632 1268.79,716.646 1249.47,728.032 1227.92,735.169 1202.6,742.419 1176.97,743.994 1152.62,733.168 1136.45,715.79 1113.32,700.704 1083.32,698.7 1056.59,688.893 1029.79,683.42 1002.5,680.471 987.407,658.12 999.173,644.093 999.876,618.739 1017.76,599.452 1028.42,577.946 1035.22,552.746 1038.99,528.679 1026.14,508.454 1002.2,504.686 988.963,486.732 1009.53,474.589 1035.9,474.116 1068.14,477.874 1103.63,476.589 1137.37,474.721 1160.65,451.701 1186.5,432.007 1207.89,410.093 1242.71,400.768 1278.31,406.036 1310.38,415.541 1344.24,422.445 1372.45,440.818 1399.03,456.256 1428.8,467.118 1458.33,479.245 1485.81,496.153 1505.91,519.89 1530.22,541.07 1563.05,540.88 1575.46,562.767 1594.73,578.72 1617.26,568.607 1639.49,557.396 1663.53,540.156 1691.65,527.329 1722.04,521.515 1754.55,522.353 1785.21,534.612 1811.91,555.346 1817.54,584.905 1809.96,615.378 1800.91,643.425 1791.75,674.193 1788.37,705.838 1788.54,737.892 1799.36,770.107 1829.59,788.25 1865.19,787.899 1899.86,788.995 1927.93,802.165 1947.07,824.069 1968.33,847.71 1978.23,878.671 1991.5,906.248 2002.3,932.996 2025.48,918.568 2052.13,924.592 2073.46,927.286 2085.18,934.288 2095.04,942.972 2096.21,956.859 2099.12,971.44 2107.5,983.526 2126.62,978.756 2148.21,975.541 2170.43,973.749 2191.52,986.759 2199.8,1007.35 2199.03,1028.95 2219.67,1041.37 2227.72,1019.95 2233.64,994.838 2223.75,969.156 2216.66,943.132 2193.04,926.502 2190.53,899.512 2181.31,875.119 2160.78,855.161 2150.15,829.863 2156.14,805.561 2176.59,792.694 2199.18,795.635 2222.09,806.223 2241.13,818.667 2255.94,839.088 2281.62,856.074 2291.2,881.931 2279.42,906.118 2261.69,925.917 2238.82,944.171 2217.19,962.401 2195.41,980.339 2164.93,994.967 2138.26,1015.2 2123.68,1040.45 2110.75,1063.47 2092.81,1085.77 2072.81,1106.72 2047.99,1122.8 2021.05,1134.4 1996.15,1151.9 1969.17,1168.55 1936.19,1173.62 1914.32,1194.37 1897.09,1214.93 1871.94,1228.08 1846.32,1241.35 1825.27,1259.54 1809.92,1282.02 1797.86,1304.74 1793.68,1329.22 1795.51,1354.48 1819.05,1368.88 1827.41,1391 1821.32,1415.47 1811.94,1438.11 1784.63,1445.72 1759.96,1434.6 1738.77,1417.28 1728.16,1392.21 1709.33,1367.82 1685.64,1343.64 1657.47,1324.67 1626.32,1312.99 1589.75,1312 1555.37,1324.46 1520.14,1332.64 1484.81,1333.63 1452.64,1320.87 1420.17,1309.05 1411.26,1277.69 1411.1,1245.96 1395.43,1215.79 1378.05,1189.42 1359.36,1163.11 1369.69,1134.73 1366.87,1104.88 1354.23,1076.64 1334.25,1051.55 1320.45,1024.52 1320.41,996.254 1326.17,963.591 1335.55,932.461 1354.1,903.921 1366.3,873.475 1385.82,847.83 1407.02,823.624 1405.24,793.37 1390.83,764.962 1358.79,751.878 1327.33,751.772 1306.59,727.471 1296.93,700.616 1294.44,672.053 1301.72,643.657 1317.91,620.488 1348.93,610.099 1380.55,605.017 1417.9,600.565 1450.9,593.359 1485.36,596.63 1515,582.788 1531.86,559.284 1556.82,544.531 1584.2,533.556 1610.95,522.596 1611.27,500.208 1588.37,488.589 1563.81,477.172 1541.23,460.819 1521.37,438.613 1502.16,417.811 1485.59,395.823 1467.39,375.509 1464.25,353.22 1463.23,331.667 1488.7,328.706 1516,330.867 1547.6,335.815 1582.33,337.697 1616.91,342.507 1648.3,348.341 1679.31,356.491 1706.62,371.932 1736.96,375.029 1762.94,365.227 1787.75,352.222 1819.29,348.143 1850.88,345.519 1879.86,346.9 1901.93,362.985 1907.86,380.447 1919.12,362.355 1932.78,348.525 1949.03,336.876 1969.41,327.619 1993.25,325.629 2007.03,310.215 1987.51,302.849 1971.72,286.449 1958.76,264.017 1953.23,239.538 1954.83,216.129 1974.58,199.847 1999.82,194.083 2030.59,192.534 2060.74,192.02 2092.86,202.588 2121.22,213.914 2140.26,234.578 2148.67,259.477 2141.14,281.55 2137.8,302.394 2144.08,322.819 2136.91,348.787 2124.12,375.763 2100.45,396.178 2083.74,423.06 2056.54,443.795 2036.22,468.197 2032.8,498.696 2001.18,510.619 1964.79,514.582 1936.06,530.296 1901.76,538.324 1883.37,565.14 1866.24,589.403 1878.18,618.957 1907.95,623.491 1938.15,637.428 1970.27,651.902 1999.98,670.93 2031.25,686.788 2066.04,692.227 2100.7,690.058 2132.73,688.866 2163.63,695.55 2192.61,693.779 2214.5,681.312 2223.46,660.129 2237.42,636.091 2243.05,608.998 2227.97,588.393 2211.82,566.926 2195.52,544.265 2174.3,525.149 2145.4,510.592 2110.46,515.142 2083.41,526.197 2060.46,545.308 2036.81,563.423 2019.29,588.383 2011.68,617.509 2018.65,645.85 2018.88,676.795 2039.58,701.714 2051.08,731.562 2062.62,761.351 2080.62,790.273 2109.95,803.919 2140.64,818.914 2161.7,845.051 2182.64,869.271 2200.34,896.335 2214.74,920.607 2194.2,938.078 2167.02,940.346 2139.64,950.169 2113.75,953.925 2093.98,964.368 2066.4,967.574 2042.41,955.506 2015.5,942.813 1982.54,939.336 1945.6,942.174 1910.07,955.399 1873.32,968.312 1833.14,970 1793.84,972.944 1755.25,977.982 1719.05,975.511 1686.59,974.532 1652.86,979.64 1619.24,970.643 1580.72,960.917 1554.8,935.596 1521.31,919.281 1487.26,909.618 1456.9,895.793 1430.67,874.867 1401.86,857.861 1368.83,852.053 1341.13,866.142 1314.75,883.455 1284.36,900.34 1254.46,917.887 1217.15,923.888 1182.88,914.032 1154.77,894.638 1136.83,868.203 1119.72,840.515 1097.82,817.084 1089.46,786.262 1090.63,757.636 1082.14,730.155 1069.28,706.149 1045.45,689.646 1017.68,674.771 999.492,651.422 998.039,623.584 990.123,596.146 978.027,570.728 989.355,546.47 1002.61,524.756 1018.31,507.786 1038.33,493.923 1045.26,476.975 1054.75,457.439 1059.51,434.311 1065.31,409.48 1071.11,382.985 1080.67,357.172 1081.95,329.419 1065.11,306.654 1036.05,300.941 1007.66,307.256 976.633,310.209 947.084,303.105 920.739,289.179 891.206,279.85 862.861,277.758 836.968,266.806 823.995,245.452 832.286,221.348 848.42,201.787 869.828,182.761 898.975,167.959 931.166,157.085 959.709,146.189 992.641,140.672 1023.17,148.62 1052.89,157.678 1086.26,156.533 1115.97,149.48 1132.87,128.58 1148.19,108.798 1166.39,94.6421 "/>
<path clip-path="url(#clip880)" d="M250.367 1438.47 L793.155 1438.47 L793.155 1231.11 L250.367 1231.11  Z" fill="#ffffff" fill-rule="evenodd" fill-opacity="1"/>
<polyline clip-path="url(#clip880)" style="stroke:#000000; stroke-linecap:round; stroke-linejoin:round; stroke-width:4; stroke-opacity:1; fill:none" points="250.367,1438.47 793.155,1438.47 793.155,1231.11 250.367,1231.11 250.367,1438.47 "/>
<polyline clip-path="url(#clip880)" style="stroke:#0000ff; stroke-linecap:round; stroke-linejoin:round; stroke-width:4; stroke-opacity:1; fill:none" points="274.533,1282.95 419.525,1282.95 "/>
<path clip-path="url(#clip880)" d="M467.718 1286.21 L467.718 1288.29 L448.135 1288.29 Q448.413 1292.69 450.774 1295 Q453.158 1297.29 457.394 1297.29 Q459.848 1297.29 462.139 1296.69 Q464.454 1296.09 466.723 1294.89 L466.723 1298.91 Q464.431 1299.89 462.024 1300.4 Q459.616 1300.91 457.14 1300.91 Q450.936 1300.91 447.302 1297.29 Q443.691 1293.68 443.691 1287.53 Q443.691 1281.16 447.116 1277.43 Q450.565 1273.68 456.399 1273.68 Q461.63 1273.68 464.663 1277.06 Q467.718 1280.42 467.718 1286.21 M463.459 1284.96 Q463.413 1281.46 461.491 1279.38 Q459.593 1277.29 456.445 1277.29 Q452.88 1277.29 450.728 1279.31 Q448.598 1281.32 448.274 1284.98 L463.459 1284.96 Z" fill="#000000" fill-rule="nonzero" fill-opacity="1" /><path clip-path="url(#clip880)" d="M491.237 1275.07 L491.237 1279.1 Q489.431 1278.17 487.487 1277.71 Q485.542 1277.25 483.459 1277.25 Q480.288 1277.25 478.69 1278.22 Q477.116 1279.19 477.116 1281.14 Q477.116 1282.62 478.251 1283.48 Q479.385 1284.31 482.811 1285.07 L484.269 1285.4 Q488.806 1286.37 490.704 1288.15 Q492.625 1289.91 492.625 1293.08 Q492.625 1296.69 489.755 1298.8 Q486.908 1300.91 481.908 1300.91 Q479.825 1300.91 477.556 1300.49 Q475.311 1300.1 472.811 1299.29 L472.811 1294.89 Q475.172 1296.11 477.463 1296.74 Q479.755 1297.34 482 1297.34 Q485.01 1297.34 486.63 1296.32 Q488.25 1295.28 488.25 1293.41 Q488.25 1291.67 487.07 1290.74 Q485.912 1289.82 481.954 1288.96 L480.473 1288.61 Q476.514 1287.78 474.755 1286.07 Q472.996 1284.33 472.996 1281.32 Q472.996 1277.67 475.588 1275.67 Q478.181 1273.68 482.95 1273.68 Q485.311 1273.68 487.394 1274.03 Q489.477 1274.38 491.237 1275.07 Z" fill="#000000" fill-rule="nonzero" fill-opacity="1" /><path clip-path="url(#clip880)" d="M503.621 1266.95 L503.621 1274.31 L512.394 1274.31 L512.394 1277.62 L503.621 1277.62 L503.621 1291.69 Q503.621 1294.86 504.477 1295.77 Q505.357 1296.67 508.019 1296.67 L512.394 1296.67 L512.394 1300.23 L508.019 1300.23 Q503.088 1300.23 501.213 1298.41 Q499.338 1296.55 499.338 1291.69 L499.338 1277.62 L496.213 1277.62 L496.213 1274.31 L499.338 1274.31 L499.338 1266.95 L503.621 1266.95 Z" fill="#000000" fill-rule="nonzero" fill-opacity="1" /><path clip-path="url(#clip880)" d="M517.996 1274.31 L522.255 1274.31 L522.255 1300.23 L517.996 1300.23 L517.996 1274.31 M517.996 1264.22 L522.255 1264.22 L522.255 1269.61 L517.996 1269.61 L517.996 1264.22 Z" fill="#000000" fill-rule="nonzero" fill-opacity="1" /><path clip-path="url(#clip880)" d="M551.352 1279.29 Q552.949 1276.42 555.171 1275.05 Q557.394 1273.68 560.403 1273.68 Q564.454 1273.68 566.653 1276.53 Q568.852 1279.35 568.852 1284.59 L568.852 1300.23 L564.569 1300.23 L564.569 1284.73 Q564.569 1281 563.25 1279.19 Q561.931 1277.39 559.222 1277.39 Q555.912 1277.39 553.991 1279.59 Q552.07 1281.79 552.07 1285.58 L552.07 1300.23 L547.787 1300.23 L547.787 1284.73 Q547.787 1280.98 546.468 1279.19 Q545.148 1277.39 542.394 1277.39 Q539.13 1277.39 537.209 1279.61 Q535.287 1281.81 535.287 1285.58 L535.287 1300.23 L531.005 1300.23 L531.005 1274.31 L535.287 1274.31 L535.287 1278.34 Q536.746 1275.95 538.783 1274.82 Q540.82 1273.68 543.621 1273.68 Q546.445 1273.68 548.412 1275.12 Q550.403 1276.55 551.352 1279.29 Z" fill="#000000" fill-rule="nonzero" fill-opacity="1" /><path clip-path="url(#clip880)" d="M589.13 1287.2 Q583.968 1287.2 581.977 1288.38 Q579.986 1289.56 579.986 1292.41 Q579.986 1294.68 581.468 1296.02 Q582.972 1297.34 585.542 1297.34 Q589.083 1297.34 591.213 1294.84 Q593.366 1292.32 593.366 1288.15 L593.366 1287.2 L589.13 1287.2 M597.625 1285.44 L597.625 1300.23 L593.366 1300.23 L593.366 1296.3 Q591.907 1298.66 589.731 1299.79 Q587.555 1300.91 584.407 1300.91 Q580.426 1300.91 578.065 1298.68 Q575.727 1296.44 575.727 1292.69 Q575.727 1288.31 578.643 1286.09 Q581.583 1283.87 587.393 1283.87 L593.366 1283.87 L593.366 1283.45 Q593.366 1280.51 591.421 1278.92 Q589.5 1277.29 586.005 1277.29 Q583.782 1277.29 581.676 1277.83 Q579.569 1278.36 577.625 1279.42 L577.625 1275.49 Q579.963 1274.59 582.162 1274.15 Q584.361 1273.68 586.444 1273.68 Q592.069 1273.68 594.847 1276.6 Q597.625 1279.52 597.625 1285.44 Z" fill="#000000" fill-rule="nonzero" fill-opacity="1" /><path clip-path="url(#clip880)" d="M610.611 1266.95 L610.611 1274.31 L619.384 1274.31 L619.384 1277.62 L610.611 1277.62 L610.611 1291.69 Q610.611 1294.86 611.467 1295.77 Q612.347 1296.67 615.009 1296.67 L619.384 1296.67 L619.384 1300.23 L615.009 1300.23 Q610.078 1300.23 608.204 1298.41 Q606.329 1296.55 606.329 1291.69 L606.329 1277.62 L603.204 1277.62 L603.204 1274.31 L606.329 1274.31 L606.329 1266.95 L610.611 1266.95 Z" fill="#000000" fill-rule="nonzero" fill-opacity="1" /><path clip-path="url(#clip880)" d="M647.162 1286.21 L647.162 1288.29 L627.578 1288.29 Q627.856 1292.69 630.217 1295 Q632.602 1297.29 636.838 1297.29 Q639.291 1297.29 641.583 1296.69 Q643.898 1296.09 646.166 1294.89 L646.166 1298.91 Q643.875 1299.89 641.467 1300.4 Q639.06 1300.91 636.583 1300.91 Q630.379 1300.91 626.745 1297.29 Q623.134 1293.68 623.134 1287.53 Q623.134 1281.16 626.56 1277.43 Q630.009 1273.68 635.842 1273.68 Q641.074 1273.68 644.106 1277.06 Q647.162 1280.42 647.162 1286.21 M642.902 1284.96 Q642.856 1281.46 640.935 1279.38 Q639.037 1277.29 635.889 1277.29 Q632.324 1277.29 630.171 1279.31 Q628.041 1281.32 627.717 1284.98 L642.902 1284.96 Z" fill="#000000" fill-rule="nonzero" fill-opacity="1" /><polyline clip-path="url(#clip880)" style="stroke:#ff0000; stroke-linecap:round; stroke-linejoin:round; stroke-width:4; stroke-opacity:1; fill:none" points="274.533,1334.79 419.525,1334.79 "/>
<path clip-path="url(#clip880)" d="M464.038 1331.13 Q465.635 1328.26 467.857 1326.89 Q470.079 1325.52 473.088 1325.52 Q477.139 1325.52 479.338 1328.37 Q481.538 1331.19 481.538 1336.43 L481.538 1352.07 L477.255 1352.07 L477.255 1336.57 Q477.255 1332.84 475.936 1331.03 Q474.616 1329.23 471.908 1329.23 Q468.598 1329.23 466.676 1331.43 Q464.755 1333.63 464.755 1337.42 L464.755 1352.07 L460.473 1352.07 L460.473 1336.57 Q460.473 1332.82 459.153 1331.03 Q457.834 1329.23 455.079 1329.23 Q451.815 1329.23 449.894 1331.45 Q447.973 1333.65 447.973 1337.42 L447.973 1352.07 L443.691 1352.07 L443.691 1326.15 L447.973 1326.15 L447.973 1330.18 Q449.431 1327.79 451.468 1326.66 Q453.505 1325.52 456.306 1325.52 Q459.13 1325.52 461.098 1326.96 Q463.089 1328.39 464.038 1331.13 Z" fill="#000000" fill-rule="nonzero" fill-opacity="1" /><path clip-path="url(#clip880)" d="M512.209 1338.05 L512.209 1340.13 L492.625 1340.13 Q492.903 1344.53 495.264 1346.84 Q497.649 1349.13 501.885 1349.13 Q504.338 1349.13 506.63 1348.53 Q508.945 1347.93 511.213 1346.73 L511.213 1350.75 Q508.922 1351.73 506.514 1352.24 Q504.107 1352.75 501.63 1352.75 Q495.426 1352.75 491.792 1349.13 Q488.181 1345.52 488.181 1339.37 Q488.181 1333 491.607 1329.27 Q495.056 1325.52 500.889 1325.52 Q506.121 1325.52 509.153 1328.9 Q512.209 1332.26 512.209 1338.05 M507.949 1336.8 Q507.903 1333.3 505.982 1331.22 Q504.084 1329.13 500.936 1329.13 Q497.371 1329.13 495.218 1331.15 Q493.088 1333.16 492.764 1336.82 L507.949 1336.8 Z" fill="#000000" fill-rule="nonzero" fill-opacity="1" /><path clip-path="url(#clip880)" d="M530.982 1339.04 Q525.82 1339.04 523.829 1340.22 Q521.838 1341.4 521.838 1344.25 Q521.838 1346.52 523.32 1347.86 Q524.824 1349.18 527.394 1349.18 Q530.935 1349.18 533.065 1346.68 Q535.218 1344.16 535.218 1339.99 L535.218 1339.04 L530.982 1339.04 M539.477 1337.28 L539.477 1352.07 L535.218 1352.07 L535.218 1348.14 Q533.759 1350.5 531.584 1351.63 Q529.408 1352.75 526.26 1352.75 Q522.278 1352.75 519.917 1350.52 Q517.579 1348.28 517.579 1344.53 Q517.579 1340.15 520.496 1337.93 Q523.435 1335.71 529.246 1335.71 L535.218 1335.71 L535.218 1335.29 Q535.218 1332.35 533.273 1330.76 Q531.352 1329.13 527.857 1329.13 Q525.635 1329.13 523.528 1329.67 Q521.422 1330.2 519.477 1331.26 L519.477 1327.33 Q521.815 1326.43 524.014 1325.99 Q526.213 1325.52 528.297 1325.52 Q533.922 1325.52 536.699 1328.44 Q539.477 1331.36 539.477 1337.28 Z" fill="#000000" fill-rule="nonzero" fill-opacity="1" /><path clip-path="url(#clip880)" d="M564.778 1326.91 L564.778 1330.94 Q562.972 1330.01 561.028 1329.55 Q559.083 1329.09 557 1329.09 Q553.829 1329.09 552.232 1330.06 Q550.658 1331.03 550.658 1332.98 Q550.658 1334.46 551.792 1335.32 Q552.926 1336.15 556.352 1336.91 L557.81 1337.24 Q562.347 1338.21 564.245 1339.99 Q566.167 1341.75 566.167 1344.92 Q566.167 1348.53 563.296 1350.64 Q560.449 1352.75 555.449 1352.75 Q553.366 1352.75 551.097 1352.33 Q548.852 1351.94 546.352 1351.13 L546.352 1346.73 Q548.713 1347.95 551.005 1348.58 Q553.296 1349.18 555.542 1349.18 Q558.551 1349.18 560.171 1348.16 Q561.792 1347.12 561.792 1345.25 Q561.792 1343.51 560.611 1342.58 Q559.454 1341.66 555.495 1340.8 L554.014 1340.45 Q550.056 1339.62 548.296 1337.91 Q546.537 1336.17 546.537 1333.16 Q546.537 1329.51 549.13 1327.51 Q551.722 1325.52 556.491 1325.52 Q558.852 1325.52 560.935 1325.87 Q563.019 1326.22 564.778 1326.91 Z" fill="#000000" fill-rule="nonzero" fill-opacity="1" /><path clip-path="url(#clip880)" d="M572.509 1341.84 L572.509 1326.15 L576.768 1326.15 L576.768 1341.68 Q576.768 1345.36 578.204 1347.21 Q579.639 1349.04 582.509 1349.04 Q585.958 1349.04 587.949 1346.84 Q589.963 1344.64 589.963 1340.85 L589.963 1326.15 L594.222 1326.15 L594.222 1352.07 L589.963 1352.07 L589.963 1348.09 Q588.412 1350.45 586.352 1351.61 Q584.315 1352.75 581.606 1352.75 Q577.139 1352.75 574.824 1349.97 Q572.509 1347.19 572.509 1341.84 M583.227 1325.52 L583.227 1325.52 Z" fill="#000000" fill-rule="nonzero" fill-opacity="1" /><path clip-path="url(#clip880)" d="M618.018 1330.13 Q617.301 1329.71 616.444 1329.53 Q615.611 1329.32 614.592 1329.32 Q610.981 1329.32 609.037 1331.68 Q607.116 1334.02 607.116 1338.42 L607.116 1352.07 L602.833 1352.07 L602.833 1326.15 L607.116 1326.15 L607.116 1330.18 Q608.458 1327.82 610.611 1326.68 Q612.764 1325.52 615.842 1325.52 Q616.282 1325.52 616.815 1325.59 Q617.347 1325.64 617.995 1325.76 L618.018 1330.13 Z" fill="#000000" fill-rule="nonzero" fill-opacity="1" /><path clip-path="url(#clip880)" d="M643.62 1338.05 L643.62 1340.13 L624.037 1340.13 Q624.315 1344.53 626.676 1346.84 Q629.06 1349.13 633.296 1349.13 Q635.75 1349.13 638.041 1348.53 Q640.356 1347.93 642.625 1346.73 L642.625 1350.75 Q640.333 1351.73 637.926 1352.24 Q635.518 1352.75 633.041 1352.75 Q626.838 1352.75 623.203 1349.13 Q619.592 1345.52 619.592 1339.37 Q619.592 1333 623.018 1329.27 Q626.467 1325.52 632.301 1325.52 Q637.532 1325.52 640.564 1328.9 Q643.62 1332.26 643.62 1338.05 M639.361 1336.8 Q639.314 1333.3 637.393 1331.22 Q635.495 1329.13 632.347 1329.13 Q628.782 1329.13 626.629 1331.15 Q624.5 1333.16 624.176 1336.82 L639.361 1336.8 Z" fill="#000000" fill-rule="nonzero" fill-opacity="1" /><path clip-path="url(#clip880)" d="M670.796 1331.13 Q672.393 1328.26 674.615 1326.89 Q676.837 1325.52 679.847 1325.52 Q683.898 1325.52 686.097 1328.37 Q688.296 1331.19 688.296 1336.43 L688.296 1352.07 L684.013 1352.07 L684.013 1336.57 Q684.013 1332.84 682.694 1331.03 Q681.374 1329.23 678.666 1329.23 Q675.356 1329.23 673.435 1331.43 Q671.513 1333.63 671.513 1337.42 L671.513 1352.07 L667.231 1352.07 L667.231 1336.57 Q667.231 1332.82 665.912 1331.03 Q664.592 1329.23 661.837 1329.23 Q658.574 1329.23 656.652 1331.45 Q654.731 1333.65 654.731 1337.42 L654.731 1352.07 L650.449 1352.07 L650.449 1326.15 L654.731 1326.15 L654.731 1330.18 Q656.189 1327.79 658.226 1326.66 Q660.263 1325.52 663.064 1325.52 Q665.888 1325.52 667.856 1326.96 Q669.847 1328.39 670.796 1331.13 Z" fill="#000000" fill-rule="nonzero" fill-opacity="1" /><path clip-path="url(#clip880)" d="M718.967 1338.05 L718.967 1340.13 L699.384 1340.13 Q699.661 1344.53 702.022 1346.84 Q704.407 1349.13 708.643 1349.13 Q711.096 1349.13 713.388 1348.53 Q715.703 1347.93 717.971 1346.73 L717.971 1350.75 Q715.68 1351.73 713.272 1352.24 Q710.865 1352.75 708.388 1352.75 Q702.184 1352.75 698.55 1349.13 Q694.939 1345.52 694.939 1339.37 Q694.939 1333 698.365 1329.27 Q701.814 1325.52 707.647 1325.52 Q712.879 1325.52 715.911 1328.9 Q718.967 1332.26 718.967 1338.05 M714.708 1336.8 Q714.661 1333.3 712.74 1331.22 Q710.842 1329.13 707.694 1329.13 Q704.129 1329.13 701.976 1331.15 Q699.847 1333.16 699.522 1336.82 L714.708 1336.8 Z" fill="#000000" fill-rule="nonzero" fill-opacity="1" /><path clip-path="url(#clip880)" d="M747.508 1336.43 L747.508 1352.07 L743.249 1352.07 L743.249 1336.57 Q743.249 1332.88 741.814 1331.06 Q740.379 1329.23 737.508 1329.23 Q734.059 1329.23 732.069 1331.43 Q730.078 1333.63 730.078 1337.42 L730.078 1352.07 L725.795 1352.07 L725.795 1326.15 L730.078 1326.15 L730.078 1330.18 Q731.606 1327.84 733.666 1326.68 Q735.749 1325.52 738.457 1325.52 Q742.925 1325.52 745.217 1328.3 Q747.508 1331.06 747.508 1336.43 Z" fill="#000000" fill-rule="nonzero" fill-opacity="1" /><path clip-path="url(#clip880)" d="M760.217 1318.79 L760.217 1326.15 L768.99 1326.15 L768.99 1329.46 L760.217 1329.46 L760.217 1343.53 Q760.217 1346.7 761.073 1347.61 Q761.953 1348.51 764.615 1348.51 L768.99 1348.51 L768.99 1352.07 L764.615 1352.07 Q759.684 1352.07 757.809 1350.25 Q755.934 1348.39 755.934 1343.53 L755.934 1329.46 L752.809 1329.46 L752.809 1326.15 L755.934 1326.15 L755.934 1318.79 L760.217 1318.79 Z" fill="#000000" fill-rule="nonzero" fill-opacity="1" /><polyline clip-path="url(#clip880)" style="stroke:#3da44d; stroke-linecap:round; stroke-linejoin:round; stroke-width:4; stroke-opacity:1; fill:none" points="274.533,1386.63 419.525,1386.63 "/>
<path clip-path="url(#clip880)" d="M468.343 1377.99 L458.968 1390.6 L468.829 1403.91 L463.806 1403.91 L456.26 1393.73 L448.714 1403.91 L443.691 1403.91 L453.76 1390.35 L444.547 1377.99 L449.57 1377.99 L456.445 1387.22 L463.32 1377.99 L468.343 1377.99 Z" fill="#000000" fill-rule="nonzero" fill-opacity="1" /><path clip-path="url(#clip880)" d="M491.375 1378.75 L491.375 1382.78 Q489.57 1381.85 487.625 1381.39 Q485.681 1380.93 483.598 1380.93 Q480.426 1380.93 478.829 1381.9 Q477.255 1382.87 477.255 1384.82 Q477.255 1386.3 478.389 1387.16 Q479.524 1387.99 482.95 1388.75 L484.408 1389.08 Q488.945 1390.05 490.843 1391.83 Q492.764 1393.59 492.764 1396.76 Q492.764 1400.37 489.894 1402.48 Q487.047 1404.59 482.047 1404.59 Q479.963 1404.59 477.695 1404.17 Q475.45 1403.78 472.95 1402.97 L472.95 1398.57 Q475.311 1399.79 477.602 1400.42 Q479.894 1401.02 482.139 1401.02 Q485.149 1401.02 486.769 1400 Q488.389 1398.96 488.389 1397.09 Q488.389 1395.35 487.209 1394.42 Q486.051 1393.5 482.093 1392.64 L480.612 1392.29 Q476.653 1391.46 474.894 1389.75 Q473.135 1388.01 473.135 1385 Q473.135 1381.35 475.727 1379.35 Q478.32 1377.36 483.088 1377.36 Q485.45 1377.36 487.533 1377.71 Q489.616 1378.06 491.375 1378.75 Z" fill="#000000" fill-rule="nonzero" fill-opacity="1" /></svg>
