<?xml version="1.0" encoding="utf-8"?>
<svg xmlns="http://www.w3.org/2000/svg" xmlns:xlink="http://www.w3.org/1999/xlink" width="600" height="400" viewBox="0 0 2400 1600">
<defs>
  <clipPath id="clip360">
    <rect x="0" y="0" width="2400" height="1600"/>
  </clipPath>
</defs>
<path clip-path="url(#clip360)" d="M0 1600 L2400 1600 L2400 0 L0 0  Z" fill="#ffffff" fill-rule="evenodd" fill-opacity="1"/>
<defs>
  <clipPath id="clip361">
    <rect x="239" y="123" width="2115" height="1288"/>
  </clipPath>
</defs>
<path clip-path="url(#clip360)" d="M239.19 1410.9 L2352.76 1410.9 L2352.76 123.472 L239.19 123.472  Z" fill="#ffffff" fill-rule="evenodd" fill-opacity="1"/>
<polyline clip-path="url(#clip361)" style="stroke:#000000; stroke-linecap:round; stroke-linejoin:round; stroke-width:2; stroke-opacity:0.1; fill:none" points="1096.58,1410.9 1096.58,123.472 "/>
<polyline clip-path="url(#clip361)" style="stroke:#000000; stroke-linecap:round; stroke-linejoin:round; stroke-width:2; stroke-opacity:0.1; fill:none" points="2093.55,1410.9 2093.55,123.472 "/>
<polyline clip-path="url(#clip361)" style="stroke:#000000; stroke-linecap:round; stroke-linejoin:round; stroke-width:2; stroke-opacity:0.1; fill:none" points="239.19,1209.03 2352.76,1209.03 "/>
<polyline clip-path="url(#clip361)" style="stroke:#000000; stroke-linecap:round; stroke-linejoin:round; stroke-width:2; stroke-opacity:0.1; fill:none" points="239.19,989.259 2352.76,989.259 "/>
<polyline clip-path="url(#clip361)" style="stroke:#000000; stroke-linecap:round; stroke-linejoin:round; stroke-width:2; stroke-opacity:0.1; fill:none" points="239.19,769.487 2352.76,769.487 "/>
<polyline clip-path="url(#clip361)" style="stroke:#000000; stroke-linecap:round; stroke-linejoin:round; stroke-width:2; stroke-opacity:0.1; fill:none" points="239.19,549.714 2352.76,549.714 "/>
<polyline clip-path="url(#clip361)" style="stroke:#000000; stroke-linecap:round; stroke-linejoin:round; stroke-width:2; stroke-opacity:0.1; fill:none" points="239.19,329.942 2352.76,329.942 "/>
<polyline clip-path="url(#clip360)" style="stroke:#000000; stroke-linecap:round; stroke-linejoin:round; stroke-width:4; stroke-opacity:1; fill:none" points="239.19,1410.9 2352.76,1410.9 "/>
<polyline clip-path="url(#clip360)" style="stroke:#000000; stroke-linecap:round; stroke-linejoin:round; stroke-width:4; stroke-opacity:1; fill:none" points="1096.58,1410.9 1096.58,1392 "/>
<polyline clip-path="url(#clip360)" style="stroke:#000000; stroke-linecap:round; stroke-linejoin:round; stroke-width:4; stroke-opacity:1; fill:none" points="2093.55,1410.9 2093.55,1392 "/>
<path clip-path="url(#clip360)" d="M1061.56 1485.02 L1069.2 1485.02 L1069.2 1458.66 L1060.89 1460.32 L1060.89 1456.06 L1069.16 1454.4 L1073.83 1454.4 L1073.83 1485.02 L1081.47 1485.02 L1081.47 1488.96 L1061.56 1488.96 L1061.56 1485.02 Z" fill="#000000" fill-rule="nonzero" fill-opacity="1" /><path clip-path="url(#clip360)" d="M1100.91 1457.48 Q1097.3 1457.48 1095.47 1461.04 Q1093.67 1464.58 1093.67 1471.71 Q1093.67 1478.82 1095.47 1482.38 Q1097.3 1485.92 1100.91 1485.92 Q1104.55 1485.92 1106.35 1482.38 Q1108.18 1478.82 1108.18 1471.71 Q1108.18 1464.58 1106.35 1461.04 Q1104.55 1457.48 1100.91 1457.48 M1100.91 1453.77 Q1106.72 1453.77 1109.78 1458.38 Q1112.86 1462.96 1112.86 1471.71 Q1112.86 1480.44 1109.78 1485.04 Q1106.72 1489.63 1100.91 1489.63 Q1095.1 1489.63 1092.03 1485.04 Q1088.97 1480.44 1088.97 1471.71 Q1088.97 1462.96 1092.03 1458.38 Q1095.1 1453.77 1100.91 1453.77 Z" fill="#000000" fill-rule="nonzero" fill-opacity="1" /><path clip-path="url(#clip360)" d="M1122.56 1435.97 Q1119.63 1435.97 1118.14 1438.86 Q1116.68 1441.74 1116.68 1447.53 Q1116.68 1453.31 1118.14 1456.2 Q1119.63 1459.08 1122.56 1459.08 Q1125.52 1459.08 1126.98 1456.2 Q1128.47 1453.31 1128.47 1447.53 Q1128.47 1441.74 1126.98 1438.86 Q1125.52 1435.97 1122.56 1435.97 M1122.56 1432.96 Q1127.28 1432.96 1129.77 1436.7 Q1132.27 1440.43 1132.27 1447.53 Q1132.27 1454.62 1129.77 1458.37 Q1127.28 1462.09 1122.56 1462.09 Q1117.84 1462.09 1115.34 1458.37 Q1112.86 1454.62 1112.86 1447.53 Q1112.86 1440.43 1115.34 1436.7 Q1117.84 1432.96 1122.56 1432.96 Z" fill="#000000" fill-rule="nonzero" fill-opacity="1" /><path clip-path="url(#clip360)" d="M2059.87 1485.02 L2067.51 1485.02 L2067.51 1458.66 L2059.2 1460.32 L2059.2 1456.06 L2067.47 1454.4 L2072.14 1454.4 L2072.14 1485.02 L2079.78 1485.02 L2079.78 1488.96 L2059.87 1488.96 L2059.87 1485.02 Z" fill="#000000" fill-rule="nonzero" fill-opacity="1" /><path clip-path="url(#clip360)" d="M2099.22 1457.48 Q2095.61 1457.48 2093.78 1461.04 Q2091.98 1464.58 2091.98 1471.71 Q2091.98 1478.82 2093.78 1482.38 Q2095.61 1485.92 2099.22 1485.92 Q2102.86 1485.92 2104.66 1482.38 Q2106.49 1478.82 2106.49 1471.71 Q2106.49 1464.58 2104.66 1461.04 Q2102.86 1457.48 2099.22 1457.48 M2099.22 1453.77 Q2105.03 1453.77 2108.09 1458.38 Q2111.17 1462.96 2111.17 1471.71 Q2111.17 1480.44 2108.09 1485.04 Q2105.03 1489.63 2099.22 1489.63 Q2093.41 1489.63 2090.34 1485.04 Q2087.28 1480.44 2087.28 1471.71 Q2087.28 1462.96 2090.34 1458.38 Q2093.41 1453.77 2099.22 1453.77 Z" fill="#000000" fill-rule="nonzero" fill-opacity="1" /><path clip-path="url(#clip360)" d="M2111.71 1458.35 L2117.92 1458.35 L2117.92 1436.93 L2111.17 1438.28 L2111.17 1434.82 L2117.88 1433.47 L2121.68 1433.47 L2121.68 1458.35 L2127.89 1458.35 L2127.89 1461.55 L2111.71 1461.55 L2111.71 1458.35 Z" fill="#000000" fill-rule="nonzero" fill-opacity="1" /><path clip-path="url(#clip360)" d="M733.834 1531.95 L733.834 1568.9 L741.6 1568.9 Q751.435 1568.9 755.986 1564.45 Q760.569 1559.99 760.569 1550.38 Q760.569 1540.83 755.986 1536.4 Q751.435 1531.95 741.6 1531.95 L733.834 1531.95 M727.404 1526.67 L740.613 1526.67 Q754.427 1526.67 760.888 1532.43 Q767.349 1538.16 767.349 1550.38 Q767.349 1562.66 760.856 1568.42 Q754.363 1574.19 740.613 1574.19 L727.404 1574.19 L727.404 1526.67 Z" fill="#000000" fill-rule="nonzero" fill-opacity="1" /><path clip-path="url(#clip360)" d="M792.175 1577.5 Q789.693 1583.86 787.337 1585.8 Q784.982 1587.74 781.035 1587.74 L776.356 1587.74 L776.356 1582.84 L779.794 1582.84 Q782.213 1582.84 783.55 1581.7 Q784.886 1580.55 786.51 1576.29 L787.56 1573.61 L773.142 1538.54 L779.348 1538.54 L790.488 1566.42 L801.628 1538.54 L807.835 1538.54 L792.175 1577.5 Z" fill="#000000" fill-rule="nonzero" fill-opacity="1" /><path clip-path="url(#clip360)" d="M845.552 1552.67 L845.552 1574.19 L839.695 1574.19 L839.695 1552.86 Q839.695 1547.8 837.722 1545.29 Q835.748 1542.77 831.802 1542.77 Q827.059 1542.77 824.322 1545.79 Q821.585 1548.82 821.585 1554.04 L821.585 1574.19 L815.696 1574.19 L815.696 1538.54 L821.585 1538.54 L821.585 1544.08 Q823.685 1540.86 826.518 1539.27 Q829.383 1537.68 833.107 1537.68 Q839.25 1537.68 842.401 1541.5 Q845.552 1545.29 845.552 1552.67 Z" fill="#000000" fill-rule="nonzero" fill-opacity="1" /><path clip-path="url(#clip360)" d="M873.433 1556.27 Q866.336 1556.27 863.598 1557.89 Q860.861 1559.51 860.861 1563.43 Q860.861 1566.55 862.898 1568.39 Q864.967 1570.21 868.5 1570.21 Q873.37 1570.21 876.298 1566.77 Q879.258 1563.3 879.258 1557.57 L879.258 1556.27 L873.433 1556.27 M885.115 1553.85 L885.115 1574.19 L879.258 1574.19 L879.258 1568.77 Q877.253 1572.02 874.261 1573.58 Q871.269 1575.11 866.94 1575.11 Q861.466 1575.11 858.219 1572.05 Q855.005 1568.97 855.005 1563.81 Q855.005 1557.79 859.015 1554.74 Q863.057 1551.68 871.046 1551.68 L879.258 1551.68 L879.258 1551.11 Q879.258 1547.07 876.584 1544.87 Q873.943 1542.64 869.137 1542.64 Q866.081 1542.64 863.185 1543.38 Q860.288 1544.11 857.615 1545.57 L857.615 1540.16 Q860.829 1538.92 863.853 1538.31 Q866.877 1537.68 869.741 1537.68 Q877.476 1537.68 881.295 1541.69 Q885.115 1545.7 885.115 1553.85 Z" fill="#000000" fill-rule="nonzero" fill-opacity="1" /><path clip-path="url(#clip360)" d="M924.932 1545.38 Q927.128 1541.43 930.184 1539.56 Q933.239 1537.68 937.377 1537.68 Q942.947 1537.68 945.971 1541.59 Q948.994 1545.48 948.994 1552.67 L948.994 1574.19 L943.106 1574.19 L943.106 1552.86 Q943.106 1547.74 941.292 1545.25 Q939.478 1542.77 935.754 1542.77 Q931.202 1542.77 928.56 1545.79 Q925.919 1548.82 925.919 1554.04 L925.919 1574.19 L920.03 1574.19 L920.03 1552.86 Q920.03 1547.7 918.216 1545.25 Q916.402 1542.77 912.614 1542.77 Q908.127 1542.77 905.485 1545.83 Q902.843 1548.85 902.843 1554.04 L902.843 1574.19 L896.955 1574.19 L896.955 1538.54 L902.843 1538.54 L902.843 1544.08 Q904.848 1540.8 907.649 1539.24 Q910.45 1537.68 914.301 1537.68 Q918.184 1537.68 920.89 1539.65 Q923.627 1541.62 924.932 1545.38 Z" fill="#000000" fill-rule="nonzero" fill-opacity="1" /><path clip-path="url(#clip360)" d="M960.675 1538.54 L966.532 1538.54 L966.532 1574.19 L960.675 1574.19 L960.675 1538.54 M960.675 1524.66 L966.532 1524.66 L966.532 1532.08 L960.675 1532.08 L960.675 1524.66 Z" fill="#000000" fill-rule="nonzero" fill-opacity="1" /><path clip-path="url(#clip360)" d="M1004.44 1539.91 L1004.44 1545.38 Q1001.96 1544.01 999.443 1543.34 Q996.96 1542.64 994.414 1542.64 Q988.716 1542.64 985.565 1546.27 Q982.414 1549.87 982.414 1556.39 Q982.414 1562.92 985.565 1566.55 Q988.716 1570.14 994.414 1570.14 Q996.96 1570.14 999.443 1569.47 Q1001.96 1568.77 1004.44 1567.41 L1004.44 1572.82 Q1001.99 1573.96 999.347 1574.54 Q996.737 1575.11 993.777 1575.11 Q985.725 1575.11 980.982 1570.05 Q976.24 1564.99 976.24 1556.39 Q976.24 1547.67 981.014 1542.68 Q985.82 1537.68 994.159 1537.68 Q996.865 1537.68 999.443 1538.25 Q1002.02 1538.79 1004.44 1539.91 Z" fill="#000000" fill-rule="nonzero" fill-opacity="1" /><path clip-path="url(#clip360)" d="M1037.35 1539.59 L1037.35 1545.13 Q1034.87 1543.85 1032.19 1543.22 Q1029.52 1542.58 1026.66 1542.58 Q1022.3 1542.58 1020.1 1543.92 Q1017.93 1545.25 1017.93 1547.93 Q1017.93 1549.96 1019.49 1551.14 Q1021.05 1552.29 1025.76 1553.34 L1027.77 1553.78 Q1034.01 1555.12 1036.62 1557.57 Q1039.26 1559.99 1039.26 1564.35 Q1039.26 1569.32 1035.31 1572.21 Q1031.4 1575.11 1024.52 1575.11 Q1021.66 1575.11 1018.54 1574.54 Q1015.45 1573.99 1012.01 1572.88 L1012.01 1566.83 Q1015.26 1568.52 1018.41 1569.38 Q1021.56 1570.21 1024.65 1570.21 Q1028.79 1570.21 1031.02 1568.81 Q1033.24 1567.37 1033.24 1564.8 Q1033.24 1562.41 1031.62 1561.14 Q1030.03 1559.86 1024.59 1558.68 L1022.55 1558.21 Q1017.11 1557.06 1014.69 1554.71 Q1012.27 1552.32 1012.27 1548.18 Q1012.27 1543.15 1015.83 1540.42 Q1019.4 1537.68 1025.96 1537.68 Q1029.2 1537.68 1032.07 1538.16 Q1034.93 1538.63 1037.35 1539.59 Z" fill="#000000" fill-rule="nonzero" fill-opacity="1" /><path clip-path="url(#clip360)" d="M1098.94 1552.67 L1098.94 1574.19 L1093.08 1574.19 L1093.08 1552.86 Q1093.08 1547.8 1091.11 1545.29 Q1089.14 1542.77 1085.19 1542.77 Q1080.45 1542.77 1077.71 1545.79 Q1074.97 1548.82 1074.97 1554.04 L1074.97 1574.19 L1069.08 1574.19 L1069.08 1538.54 L1074.97 1538.54 L1074.97 1544.08 Q1077.07 1540.86 1079.91 1539.27 Q1082.77 1537.68 1086.49 1537.68 Q1092.64 1537.68 1095.79 1541.5 Q1098.94 1545.29 1098.94 1552.67 Z" fill="#000000" fill-rule="nonzero" fill-opacity="1" /><path clip-path="url(#clip360)" d="M1124.43 1542.64 Q1119.72 1542.64 1116.99 1546.34 Q1114.25 1550 1114.25 1556.39 Q1114.25 1562.79 1116.95 1566.48 Q1119.69 1570.14 1124.43 1570.14 Q1129.11 1570.14 1131.85 1566.45 Q1134.59 1562.76 1134.59 1556.39 Q1134.59 1550.06 1131.85 1546.37 Q1129.11 1542.64 1124.43 1542.64 M1124.43 1537.68 Q1132.07 1537.68 1136.43 1542.64 Q1140.79 1547.61 1140.79 1556.39 Q1140.79 1565.15 1136.43 1570.14 Q1132.07 1575.11 1124.43 1575.11 Q1116.76 1575.11 1112.4 1570.14 Q1108.07 1565.15 1108.07 1556.39 Q1108.07 1547.61 1112.4 1542.64 Q1116.76 1537.68 1124.43 1537.68 Z" fill="#000000" fill-rule="nonzero" fill-opacity="1" /><path clip-path="url(#clip360)" d="M1150.5 1538.54 L1156.36 1538.54 L1156.36 1574.19 L1150.5 1574.19 L1150.5 1538.54 M1150.5 1524.66 L1156.36 1524.66 L1156.36 1532.08 L1150.5 1532.08 L1150.5 1524.66 Z" fill="#000000" fill-rule="nonzero" fill-opacity="1" /><path clip-path="url(#clip360)" d="M1191.34 1539.59 L1191.34 1545.13 Q1188.85 1543.85 1186.18 1543.22 Q1183.51 1542.58 1180.64 1542.58 Q1176.28 1542.58 1174.09 1543.92 Q1171.92 1545.25 1171.92 1547.93 Q1171.92 1549.96 1173.48 1551.14 Q1175.04 1552.29 1179.75 1553.34 L1181.76 1553.78 Q1187.99 1555.12 1190.6 1557.57 Q1193.25 1559.99 1193.25 1564.35 Q1193.25 1569.32 1189.3 1572.21 Q1185.38 1575.11 1178.51 1575.11 Q1175.65 1575.11 1172.53 1574.54 Q1169.44 1573.99 1166 1572.88 L1166 1566.83 Q1169.25 1568.52 1172.4 1569.38 Q1175.55 1570.21 1178.64 1570.21 Q1182.77 1570.21 1185 1568.81 Q1187.23 1567.37 1187.23 1564.8 Q1187.23 1562.41 1185.61 1561.14 Q1184.02 1559.86 1178.57 1558.68 L1176.54 1558.21 Q1171.09 1557.06 1168.67 1554.71 Q1166.26 1552.32 1166.26 1548.18 Q1166.26 1543.15 1169.82 1540.42 Q1173.39 1537.68 1179.94 1537.68 Q1183.19 1537.68 1186.05 1538.16 Q1188.92 1538.63 1191.34 1539.59 Z" fill="#000000" fill-rule="nonzero" fill-opacity="1" /><path clip-path="url(#clip360)" d="M1233.06 1554.9 L1233.06 1557.76 L1206.14 1557.76 Q1206.52 1563.81 1209.77 1566.99 Q1213.04 1570.14 1218.87 1570.14 Q1222.24 1570.14 1225.39 1569.32 Q1228.58 1568.49 1231.7 1566.83 L1231.7 1572.37 Q1228.54 1573.71 1225.23 1574.41 Q1221.92 1575.11 1218.52 1575.11 Q1209.99 1575.11 1204.99 1570.14 Q1200.03 1565.18 1200.03 1556.71 Q1200.03 1547.96 1204.74 1542.83 Q1209.48 1537.68 1217.5 1537.68 Q1224.69 1537.68 1228.86 1542.33 Q1233.06 1546.94 1233.06 1554.9 M1227.21 1553.18 Q1227.14 1548.37 1224.5 1545.51 Q1221.89 1542.64 1217.56 1542.64 Q1212.66 1542.64 1209.7 1545.41 Q1206.77 1548.18 1206.33 1553.21 L1227.21 1553.18 Z" fill="#000000" fill-rule="nonzero" fill-opacity="1" /><path clip-path="url(#clip360)" d="M1286.12 1539.59 L1286.12 1545.13 Q1283.64 1543.85 1280.97 1543.22 Q1278.29 1542.58 1275.43 1542.58 Q1271.07 1542.58 1268.87 1543.92 Q1266.71 1545.25 1266.71 1547.93 Q1266.71 1549.96 1268.27 1551.14 Q1269.83 1552.29 1274.54 1553.34 L1276.54 1553.78 Q1282.78 1555.12 1285.39 1557.57 Q1288.03 1559.99 1288.03 1564.35 Q1288.03 1569.32 1284.09 1572.21 Q1280.17 1575.11 1273.3 1575.11 Q1270.43 1575.11 1267.31 1574.54 Q1264.22 1573.99 1260.79 1572.88 L1260.79 1566.83 Q1264.03 1568.52 1267.18 1569.38 Q1270.34 1570.21 1273.42 1570.21 Q1277.56 1570.21 1279.79 1568.81 Q1282.02 1567.37 1282.02 1564.8 Q1282.02 1562.41 1280.39 1561.14 Q1278.8 1559.86 1273.36 1558.68 L1271.32 1558.21 Q1265.88 1557.06 1263.46 1554.71 Q1261.04 1552.32 1261.04 1548.18 Q1261.04 1543.15 1264.61 1540.42 Q1268.17 1537.68 1274.73 1537.68 Q1277.97 1537.68 1280.84 1538.16 Q1283.7 1538.63 1286.12 1539.59 Z" fill="#000000" fill-rule="nonzero" fill-opacity="1" /><path clip-path="url(#clip360)" d="M1303.15 1528.42 L1303.15 1538.54 L1315.21 1538.54 L1315.21 1543.09 L1303.15 1543.09 L1303.15 1562.44 Q1303.15 1566.8 1304.33 1568.04 Q1305.54 1569.28 1309.2 1569.28 L1315.21 1569.28 L1315.21 1574.19 L1309.2 1574.19 Q1302.42 1574.19 1299.84 1571.67 Q1297.26 1569.12 1297.26 1562.44 L1297.26 1543.09 L1292.97 1543.09 L1292.97 1538.54 L1297.26 1538.54 L1297.26 1528.42 L1303.15 1528.42 Z" fill="#000000" fill-rule="nonzero" fill-opacity="1" /><path clip-path="url(#clip360)" d="M1339.12 1556.27 Q1332.02 1556.27 1329.28 1557.89 Q1326.54 1559.51 1326.54 1563.43 Q1326.54 1566.55 1328.58 1568.39 Q1330.65 1570.21 1334.18 1570.21 Q1339.05 1570.21 1341.98 1566.77 Q1344.94 1563.3 1344.94 1557.57 L1344.94 1556.27 L1339.12 1556.27 M1350.8 1553.85 L1350.8 1574.19 L1344.94 1574.19 L1344.94 1568.77 Q1342.94 1572.02 1339.94 1573.58 Q1336.95 1575.11 1332.62 1575.11 Q1327.15 1575.11 1323.9 1572.05 Q1320.69 1568.97 1320.69 1563.81 Q1320.69 1557.79 1324.7 1554.74 Q1328.74 1551.68 1336.73 1551.68 L1344.94 1551.68 L1344.94 1551.11 Q1344.94 1547.07 1342.27 1544.87 Q1339.63 1542.64 1334.82 1542.64 Q1331.76 1542.64 1328.87 1543.38 Q1325.97 1544.11 1323.3 1545.57 L1323.3 1540.16 Q1326.51 1538.92 1329.54 1538.31 Q1332.56 1537.68 1335.42 1537.68 Q1343.16 1537.68 1346.98 1541.69 Q1350.8 1545.7 1350.8 1553.85 Z" fill="#000000" fill-rule="nonzero" fill-opacity="1" /><path clip-path="url(#clip360)" d="M1392.49 1552.67 L1392.49 1574.19 L1386.64 1574.19 L1386.64 1552.86 Q1386.64 1547.8 1384.66 1545.29 Q1382.69 1542.77 1378.74 1542.77 Q1374 1542.77 1371.26 1545.79 Q1368.53 1548.82 1368.53 1554.04 L1368.53 1574.19 L1362.64 1574.19 L1362.64 1538.54 L1368.53 1538.54 L1368.53 1544.08 Q1370.63 1540.86 1373.46 1539.27 Q1376.32 1537.68 1380.05 1537.68 Q1386.19 1537.68 1389.34 1541.5 Q1392.49 1545.29 1392.49 1552.67 Z" fill="#000000" fill-rule="nonzero" fill-opacity="1" /><path clip-path="url(#clip360)" d="M1427.63 1543.95 L1427.63 1524.66 L1433.49 1524.66 L1433.49 1574.19 L1427.63 1574.19 L1427.63 1568.84 Q1425.79 1572.02 1422.95 1573.58 Q1420.15 1575.11 1416.21 1575.11 Q1409.74 1575.11 1405.67 1569.95 Q1401.63 1564.8 1401.63 1556.39 Q1401.63 1547.99 1405.67 1542.83 Q1409.74 1537.68 1416.21 1537.68 Q1420.15 1537.68 1422.95 1539.24 Q1425.79 1540.77 1427.63 1543.95 M1407.68 1556.39 Q1407.68 1562.85 1410.32 1566.55 Q1412.99 1570.21 1417.64 1570.21 Q1422.28 1570.21 1424.96 1566.55 Q1427.63 1562.85 1427.63 1556.39 Q1427.63 1549.93 1424.96 1546.27 Q1422.28 1542.58 1417.64 1542.58 Q1412.99 1542.58 1410.32 1546.27 Q1407.68 1549.93 1407.68 1556.39 Z" fill="#000000" fill-rule="nonzero" fill-opacity="1" /><path clip-path="url(#clip360)" d="M1461.75 1556.27 Q1454.65 1556.27 1451.92 1557.89 Q1449.18 1559.51 1449.18 1563.43 Q1449.18 1566.55 1451.22 1568.39 Q1453.29 1570.21 1456.82 1570.21 Q1461.69 1570.21 1464.62 1566.77 Q1467.58 1563.3 1467.58 1557.57 L1467.58 1556.27 L1461.75 1556.27 M1473.43 1553.85 L1473.43 1574.19 L1467.58 1574.19 L1467.58 1568.77 Q1465.57 1572.02 1462.58 1573.58 Q1459.59 1575.11 1455.26 1575.11 Q1449.78 1575.11 1446.54 1572.05 Q1443.32 1568.97 1443.32 1563.81 Q1443.32 1557.79 1447.33 1554.74 Q1451.38 1551.68 1459.36 1551.68 L1467.58 1551.68 L1467.58 1551.11 Q1467.58 1547.07 1464.9 1544.87 Q1462.26 1542.64 1457.46 1542.64 Q1454.4 1542.64 1451.5 1543.38 Q1448.61 1544.11 1445.93 1545.57 L1445.93 1540.16 Q1449.15 1538.92 1452.17 1538.31 Q1455.2 1537.68 1458.06 1537.68 Q1465.79 1537.68 1469.61 1541.69 Q1473.43 1545.7 1473.43 1553.85 Z" fill="#000000" fill-rule="nonzero" fill-opacity="1" /><path clip-path="url(#clip360)" d="M1506.15 1544.01 Q1505.17 1543.44 1503.99 1543.18 Q1502.84 1542.9 1501.44 1542.9 Q1496.48 1542.9 1493.8 1546.14 Q1491.16 1549.36 1491.16 1555.41 L1491.16 1574.19 L1485.27 1574.19 L1485.27 1538.54 L1491.16 1538.54 L1491.16 1544.08 Q1493.01 1540.83 1495.97 1539.27 Q1498.93 1537.68 1503.16 1537.68 Q1503.77 1537.68 1504.5 1537.77 Q1505.23 1537.84 1506.12 1538 L1506.15 1544.01 Z" fill="#000000" fill-rule="nonzero" fill-opacity="1" /><path clip-path="url(#clip360)" d="M1534.61 1543.95 L1534.61 1524.66 L1540.46 1524.66 L1540.46 1574.19 L1534.61 1574.19 L1534.61 1568.84 Q1532.76 1572.02 1529.93 1573.58 Q1527.13 1575.11 1523.18 1575.11 Q1516.72 1575.11 1512.65 1569.95 Q1508.6 1564.8 1508.6 1556.39 Q1508.6 1547.99 1512.65 1542.83 Q1516.72 1537.68 1523.18 1537.68 Q1527.13 1537.68 1529.93 1539.24 Q1532.76 1540.77 1534.61 1543.95 M1514.65 1556.39 Q1514.65 1562.85 1517.29 1566.55 Q1519.97 1570.21 1524.61 1570.21 Q1529.26 1570.21 1531.93 1566.55 Q1534.61 1562.85 1534.61 1556.39 Q1534.61 1549.93 1531.93 1546.27 Q1529.26 1542.58 1524.61 1542.58 Q1519.97 1542.58 1517.29 1546.27 Q1514.65 1549.93 1514.65 1556.39 Z" fill="#000000" fill-rule="nonzero" fill-opacity="1" /><path clip-path="url(#clip360)" d="M1596.71 1543.95 L1596.71 1524.66 L1602.56 1524.66 L1602.56 1574.19 L1596.71 1574.19 L1596.71 1568.84 Q1594.86 1572.02 1592.03 1573.58 Q1589.23 1575.11 1585.28 1575.11 Q1578.82 1575.11 1574.74 1569.95 Q1570.7 1564.8 1570.7 1556.39 Q1570.7 1547.99 1574.74 1542.83 Q1578.82 1537.68 1585.28 1537.68 Q1589.23 1537.68 1592.03 1539.24 Q1594.86 1540.77 1596.71 1543.95 M1576.75 1556.39 Q1576.75 1562.85 1579.39 1566.55 Q1582.06 1570.21 1586.71 1570.21 Q1591.36 1570.21 1594.03 1566.55 Q1596.71 1562.85 1596.71 1556.39 Q1596.71 1549.93 1594.03 1546.27 Q1591.36 1542.58 1586.71 1542.58 Q1582.06 1542.58 1579.39 1546.27 Q1576.75 1549.93 1576.75 1556.39 Z" fill="#000000" fill-rule="nonzero" fill-opacity="1" /><path clip-path="url(#clip360)" d="M1645.12 1554.9 L1645.12 1557.76 L1618.19 1557.76 Q1618.57 1563.81 1621.82 1566.99 Q1625.1 1570.14 1630.92 1570.14 Q1634.29 1570.14 1637.45 1569.32 Q1640.63 1568.49 1643.75 1566.83 L1643.75 1572.37 Q1640.6 1573.71 1637.29 1574.41 Q1633.98 1575.11 1630.57 1575.11 Q1622.04 1575.11 1617.04 1570.14 Q1612.08 1565.18 1612.08 1556.71 Q1612.08 1547.96 1616.79 1542.83 Q1621.53 1537.68 1629.55 1537.68 Q1636.75 1537.68 1640.91 1542.33 Q1645.12 1546.94 1645.12 1554.9 M1639.26 1553.18 Q1639.2 1548.37 1636.55 1545.51 Q1633.94 1542.64 1629.62 1542.64 Q1624.71 1542.64 1621.75 1545.41 Q1618.83 1548.18 1618.38 1553.21 L1639.26 1553.18 Z" fill="#000000" fill-rule="nonzero" fill-opacity="1" /><path clip-path="url(#clip360)" d="M1650.53 1538.54 L1656.73 1538.54 L1667.87 1568.46 L1679.01 1538.54 L1685.22 1538.54 L1671.85 1574.19 L1663.9 1574.19 L1650.53 1538.54 Z" fill="#000000" fill-rule="nonzero" fill-opacity="1" /><path clip-path="url(#clip360)" d="M1693.3 1538.54 L1699.16 1538.54 L1699.16 1574.19 L1693.3 1574.19 L1693.3 1538.54 M1693.3 1524.66 L1699.16 1524.66 L1699.16 1532.08 L1693.3 1532.08 L1693.3 1524.66 Z" fill="#000000" fill-rule="nonzero" fill-opacity="1" /><path clip-path="url(#clip360)" d="M1727.62 1556.27 Q1720.52 1556.27 1717.78 1557.89 Q1715.04 1559.51 1715.04 1563.43 Q1715.04 1566.55 1717.08 1568.39 Q1719.15 1570.21 1722.68 1570.21 Q1727.55 1570.21 1730.48 1566.77 Q1733.44 1563.3 1733.44 1557.57 L1733.44 1556.27 L1727.62 1556.27 M1739.3 1553.85 L1739.3 1574.19 L1733.44 1574.19 L1733.44 1568.77 Q1731.44 1572.02 1728.44 1573.58 Q1725.45 1575.11 1721.12 1575.11 Q1715.65 1575.11 1712.4 1572.05 Q1709.19 1568.97 1709.19 1563.81 Q1709.19 1557.79 1713.2 1554.74 Q1717.24 1551.68 1725.23 1551.68 L1733.44 1551.68 L1733.44 1551.11 Q1733.44 1547.07 1730.77 1544.87 Q1728.13 1542.64 1723.32 1542.64 Q1720.26 1542.64 1717.37 1543.38 Q1714.47 1544.11 1711.8 1545.57 L1711.8 1540.16 Q1715.01 1538.92 1718.04 1538.31 Q1721.06 1537.68 1723.92 1537.68 Q1731.66 1537.68 1735.48 1541.69 Q1739.3 1545.7 1739.3 1553.85 Z" fill="#000000" fill-rule="nonzero" fill-opacity="1" /><path clip-path="url(#clip360)" d="M1757.15 1528.42 L1757.15 1538.54 L1769.22 1538.54 L1769.22 1543.09 L1757.15 1543.09 L1757.15 1562.44 Q1757.15 1566.8 1758.33 1568.04 Q1759.54 1569.28 1763.2 1569.28 L1769.22 1569.28 L1769.22 1574.19 L1763.2 1574.19 Q1756.42 1574.19 1753.84 1571.67 Q1751.26 1569.12 1751.26 1562.44 L1751.26 1543.09 L1746.97 1543.09 L1746.97 1538.54 L1751.26 1538.54 L1751.26 1528.42 L1757.15 1528.42 Z" fill="#000000" fill-rule="nonzero" fill-opacity="1" /><path clip-path="url(#clip360)" d="M1776.92 1538.54 L1782.77 1538.54 L1782.77 1574.19 L1776.92 1574.19 L1776.92 1538.54 M1776.92 1524.66 L1782.77 1524.66 L1782.77 1532.08 L1776.92 1532.08 L1776.92 1524.66 Z" fill="#000000" fill-rule="nonzero" fill-opacity="1" /><path clip-path="url(#clip360)" d="M1808.84 1542.64 Q1804.13 1542.64 1801.39 1546.34 Q1798.66 1550 1798.66 1556.39 Q1798.66 1562.79 1801.36 1566.48 Q1804.1 1570.14 1808.84 1570.14 Q1813.52 1570.14 1816.26 1566.45 Q1819 1562.76 1819 1556.39 Q1819 1550.06 1816.26 1546.37 Q1813.52 1542.64 1808.84 1542.64 M1808.84 1537.68 Q1816.48 1537.68 1820.84 1542.64 Q1825.2 1547.61 1825.2 1556.39 Q1825.2 1565.15 1820.84 1570.14 Q1816.48 1575.11 1808.84 1575.11 Q1801.17 1575.11 1796.81 1570.14 Q1792.48 1565.15 1792.48 1556.39 Q1792.48 1547.61 1796.81 1542.64 Q1801.17 1537.68 1808.84 1537.68 Z" fill="#000000" fill-rule="nonzero" fill-opacity="1" /><path clip-path="url(#clip360)" d="M1864.54 1552.67 L1864.54 1574.19 L1858.69 1574.19 L1858.69 1552.86 Q1858.69 1547.8 1856.71 1545.29 Q1854.74 1542.77 1850.79 1542.77 Q1846.05 1542.77 1843.31 1545.79 Q1840.58 1548.82 1840.58 1554.04 L1840.58 1574.19 L1834.69 1574.19 L1834.69 1538.54 L1840.58 1538.54 L1840.58 1544.08 Q1842.68 1540.86 1845.51 1539.27 Q1848.37 1537.68 1852.1 1537.68 Q1858.24 1537.68 1861.39 1541.5 Q1864.54 1545.29 1864.54 1552.67 Z" fill="#000000" fill-rule="nonzero" fill-opacity="1" /><polyline clip-path="url(#clip360)" style="stroke:#000000; stroke-linecap:round; stroke-linejoin:round; stroke-width:4; stroke-opacity:1; fill:none" points="239.19,1410.9 239.19,123.472 "/>
<polyline clip-path="url(#clip360)" style="stroke:#000000; stroke-linecap:round; stroke-linejoin:round; stroke-width:4; stroke-opacity:1; fill:none" points="239.19,1209.03 258.088,1209.03 "/>
<polyline clip-path="url(#clip360)" style="stroke:#000000; stroke-linecap:round; stroke-linejoin:round; stroke-width:4; stroke-opacity:1; fill:none" points="239.19,989.259 258.088,989.259 "/>
<polyline clip-path="url(#clip360)" style="stroke:#000000; stroke-linecap:round; stroke-linejoin:round; stroke-width:4; stroke-opacity:1; fill:none" points="239.19,769.487 258.088,769.487 "/>
<polyline clip-path="url(#clip360)" style="stroke:#000000; stroke-linecap:round; stroke-linejoin:round; stroke-width:4; stroke-opacity:1; fill:none" points="239.19,549.714 258.088,549.714 "/>
<polyline clip-path="url(#clip360)" style="stroke:#000000; stroke-linecap:round; stroke-linejoin:round; stroke-width:4; stroke-opacity:1; fill:none" points="239.19,329.942 258.088,329.942 "/>
<path clip-path="url(#clip360)" d="M50.9921 1209.48 L80.6679 1209.48 L80.6679 1213.42 L50.9921 1213.42 L50.9921 1209.48 Z" fill="#000000" fill-rule="nonzero" fill-opacity="1" /><path clip-path="url(#clip360)" d="M104.927 1207.68 Q108.283 1208.39 110.158 1210.66 Q112.057 1212.93 112.057 1216.26 Q112.057 1221.38 108.538 1224.18 Q105.02 1226.98 98.5382 1226.98 Q96.3623 1226.98 94.0475 1226.54 Q91.7558 1226.13 89.3021 1225.27 L89.3021 1220.76 Q91.2465 1221.89 93.5613 1222.47 Q95.8761 1223.05 98.3993 1223.05 Q102.797 1223.05 105.089 1221.31 Q107.404 1219.58 107.404 1216.26 Q107.404 1213.21 105.251 1211.5 Q103.121 1209.76 99.3021 1209.76 L95.2743 1209.76 L95.2743 1205.92 L99.4872 1205.92 Q102.936 1205.92 104.765 1204.55 Q106.594 1203.16 106.594 1200.57 Q106.594 1197.91 104.696 1196.5 Q102.821 1195.06 99.3021 1195.06 Q97.3808 1195.06 95.1817 1195.48 Q92.9826 1195.89 90.3438 1196.77 L90.3438 1192.61 Q93.0058 1191.87 95.3206 1191.5 Q97.6585 1191.13 99.7187 1191.13 Q105.043 1191.13 108.145 1193.56 Q111.246 1195.96 111.246 1200.08 Q111.246 1202.95 109.603 1204.95 Q107.959 1206.91 104.927 1207.68 Z" fill="#000000" fill-rule="nonzero" fill-opacity="1" /><path clip-path="url(#clip360)" d="M120.969 1191.75 L139.325 1191.75 L139.325 1195.69 L125.251 1195.69 L125.251 1204.16 Q126.27 1203.81 127.288 1203.65 Q128.307 1203.46 129.325 1203.46 Q135.112 1203.46 138.492 1206.64 Q141.871 1209.81 141.871 1215.22 Q141.871 1220.8 138.399 1223.9 Q134.927 1226.98 128.607 1226.98 Q126.432 1226.98 124.163 1226.61 Q121.918 1226.24 119.51 1225.5 L119.51 1220.8 Q121.594 1221.94 123.816 1222.49 Q126.038 1223.05 128.515 1223.05 Q132.519 1223.05 134.857 1220.94 Q137.195 1218.83 137.195 1215.22 Q137.195 1211.61 134.857 1209.51 Q132.519 1207.4 128.515 1207.4 Q126.64 1207.4 124.765 1207.82 Q122.913 1208.23 120.969 1209.11 L120.969 1191.75 Z" fill="#000000" fill-rule="nonzero" fill-opacity="1" /><path clip-path="url(#clip360)" d="M161.084 1194.83 Q157.473 1194.83 155.644 1198.39 Q153.839 1201.94 153.839 1209.07 Q153.839 1216.17 155.644 1219.74 Q157.473 1223.28 161.084 1223.28 Q164.718 1223.28 166.524 1219.74 Q168.353 1216.17 168.353 1209.07 Q168.353 1201.94 166.524 1198.39 Q164.718 1194.83 161.084 1194.83 M161.084 1191.13 Q166.894 1191.13 169.95 1195.73 Q173.029 1200.32 173.029 1209.07 Q173.029 1217.79 169.95 1222.4 Q166.894 1226.98 161.084 1226.98 Q155.274 1226.98 152.195 1222.4 Q149.14 1217.79 149.14 1209.07 Q149.14 1200.32 152.195 1195.73 Q155.274 1191.13 161.084 1191.13 Z" fill="#000000" fill-rule="nonzero" fill-opacity="1" /><path clip-path="url(#clip360)" d="M191.246 1194.83 Q187.635 1194.83 185.806 1198.39 Q184.001 1201.94 184.001 1209.07 Q184.001 1216.17 185.806 1219.74 Q187.635 1223.28 191.246 1223.28 Q194.88 1223.28 196.686 1219.74 Q198.514 1216.17 198.514 1209.07 Q198.514 1201.94 196.686 1198.39 Q194.88 1194.83 191.246 1194.83 M191.246 1191.13 Q197.056 1191.13 200.112 1195.73 Q203.19 1200.32 203.19 1209.07 Q203.19 1217.79 200.112 1222.4 Q197.056 1226.98 191.246 1226.98 Q185.436 1226.98 182.357 1222.4 Q179.302 1217.79 179.302 1209.07 Q179.302 1200.32 182.357 1195.73 Q185.436 1191.13 191.246 1191.13 Z" fill="#000000" fill-rule="nonzero" fill-opacity="1" /><path clip-path="url(#clip360)" d="M50.9921 989.71 L80.6679 989.71 L80.6679 993.645 L50.9921 993.645 L50.9921 989.71 Z" fill="#000000" fill-rule="nonzero" fill-opacity="1" /><path clip-path="url(#clip360)" d="M104.927 987.905 Q108.283 988.622 110.158 990.891 Q112.057 993.159 112.057 996.493 Q112.057 1001.61 108.538 1004.41 Q105.02 1007.21 98.5382 1007.21 Q96.3623 1007.21 94.0475 1006.77 Q91.7558 1006.35 89.3021 1005.5 L89.3021 1000.98 Q91.2465 1002.12 93.5613 1002.7 Q95.8761 1003.28 98.3993 1003.28 Q102.797 1003.28 105.089 1001.54 Q107.404 999.803 107.404 996.493 Q107.404 993.437 105.251 991.724 Q103.121 989.988 99.3021 989.988 L95.2743 989.988 L95.2743 986.146 L99.4872 986.146 Q102.936 986.146 104.765 984.78 Q106.594 983.391 106.594 980.798 Q106.594 978.136 104.696 976.724 Q102.821 975.289 99.3021 975.289 Q97.3808 975.289 95.1817 975.706 Q92.9826 976.122 90.3438 977.002 L90.3438 972.835 Q93.0058 972.095 95.3206 971.724 Q97.6585 971.354 99.7187 971.354 Q105.043 971.354 108.145 973.784 Q111.246 976.192 111.246 980.312 Q111.246 983.183 109.603 985.173 Q107.959 987.141 104.927 987.905 Z" fill="#000000" fill-rule="nonzero" fill-opacity="1" /><path clip-path="url(#clip360)" d="M130.922 975.058 Q127.311 975.058 125.482 978.622 Q123.677 982.164 123.677 989.294 Q123.677 996.4 125.482 999.965 Q127.311 1003.51 130.922 1003.51 Q134.556 1003.51 136.362 999.965 Q138.191 996.4 138.191 989.294 Q138.191 982.164 136.362 978.622 Q134.556 975.058 130.922 975.058 M130.922 971.354 Q136.732 971.354 139.788 975.96 Q142.867 980.544 142.867 989.294 Q142.867 998.02 139.788 1002.63 Q136.732 1007.21 130.922 1007.21 Q125.112 1007.21 122.033 1002.63 Q118.978 998.02 118.978 989.294 Q118.978 980.544 122.033 975.96 Q125.112 971.354 130.922 971.354 Z" fill="#000000" fill-rule="nonzero" fill-opacity="1" /><path clip-path="url(#clip360)" d="M161.084 975.058 Q157.473 975.058 155.644 978.622 Q153.839 982.164 153.839 989.294 Q153.839 996.4 155.644 999.965 Q157.473 1003.51 161.084 1003.51 Q164.718 1003.51 166.524 999.965 Q168.353 996.4 168.353 989.294 Q168.353 982.164 166.524 978.622 Q164.718 975.058 161.084 975.058 M161.084 971.354 Q166.894 971.354 169.95 975.96 Q173.029 980.544 173.029 989.294 Q173.029 998.02 169.95 1002.63 Q166.894 1007.21 161.084 1007.21 Q155.274 1007.21 152.195 1002.63 Q149.14 998.02 149.14 989.294 Q149.14 980.544 152.195 975.96 Q155.274 971.354 161.084 971.354 Z" fill="#000000" fill-rule="nonzero" fill-opacity="1" /><path clip-path="url(#clip360)" d="M191.246 975.058 Q187.635 975.058 185.806 978.622 Q184.001 982.164 184.001 989.294 Q184.001 996.4 185.806 999.965 Q187.635 1003.51 191.246 1003.51 Q194.88 1003.51 196.686 999.965 Q198.514 996.4 198.514 989.294 Q198.514 982.164 196.686 978.622 Q194.88 975.058 191.246 975.058 M191.246 971.354 Q197.056 971.354 200.112 975.96 Q203.19 980.544 203.19 989.294 Q203.19 998.02 200.112 1002.63 Q197.056 1007.21 191.246 1007.21 Q185.436 1007.21 182.357 1002.63 Q179.302 998.02 179.302 989.294 Q179.302 980.544 182.357 975.96 Q185.436 971.354 191.246 971.354 Z" fill="#000000" fill-rule="nonzero" fill-opacity="1" /><path clip-path="url(#clip360)" d="M50.9921 769.938 L80.6679 769.938 L80.6679 773.873 L50.9921 773.873 L50.9921 769.938 Z" fill="#000000" fill-rule="nonzero" fill-opacity="1" /><path clip-path="url(#clip360)" d="M94.7882 782.832 L111.108 782.832 L111.108 786.767 L89.1632 786.767 L89.1632 782.832 Q91.8252 780.077 96.4085 775.447 Q101.015 770.795 102.196 769.452 Q104.441 766.929 105.321 765.193 Q106.223 763.434 106.223 761.744 Q106.223 758.989 104.279 757.253 Q102.358 755.517 99.2558 755.517 Q97.0567 755.517 94.603 756.281 Q92.1725 757.045 89.3947 758.596 L89.3947 753.873 Q92.2188 752.739 94.6724 752.16 Q97.1261 751.582 99.1632 751.582 Q104.534 751.582 107.728 754.267 Q110.922 756.952 110.922 761.443 Q110.922 763.572 110.112 765.494 Q109.325 767.392 107.219 769.984 Q106.64 770.656 103.538 773.873 Q100.436 777.068 94.7882 782.832 Z" fill="#000000" fill-rule="nonzero" fill-opacity="1" /><path clip-path="url(#clip360)" d="M120.969 752.207 L139.325 752.207 L139.325 756.142 L125.251 756.142 L125.251 764.614 Q126.27 764.267 127.288 764.105 Q128.307 763.92 129.325 763.92 Q135.112 763.92 138.492 767.091 Q141.871 770.262 141.871 775.679 Q141.871 781.257 138.399 784.359 Q134.927 787.438 128.607 787.438 Q126.432 787.438 124.163 787.068 Q121.918 786.697 119.51 785.957 L119.51 781.257 Q121.594 782.392 123.816 782.947 Q126.038 783.503 128.515 783.503 Q132.519 783.503 134.857 781.396 Q137.195 779.29 137.195 775.679 Q137.195 772.068 134.857 769.961 Q132.519 767.855 128.515 767.855 Q126.64 767.855 124.765 768.271 Q122.913 768.688 120.969 769.568 L120.969 752.207 Z" fill="#000000" fill-rule="nonzero" fill-opacity="1" /><path clip-path="url(#clip360)" d="M161.084 755.285 Q157.473 755.285 155.644 758.85 Q153.839 762.392 153.839 769.521 Q153.839 776.628 155.644 780.193 Q157.473 783.734 161.084 783.734 Q164.718 783.734 166.524 780.193 Q168.353 776.628 168.353 769.521 Q168.353 762.392 166.524 758.85 Q164.718 755.285 161.084 755.285 M161.084 751.582 Q166.894 751.582 169.95 756.188 Q173.029 760.771 173.029 769.521 Q173.029 778.248 169.95 782.855 Q166.894 787.438 161.084 787.438 Q155.274 787.438 152.195 782.855 Q149.14 778.248 149.14 769.521 Q149.14 760.771 152.195 756.188 Q155.274 751.582 161.084 751.582 Z" fill="#000000" fill-rule="nonzero" fill-opacity="1" /><path clip-path="url(#clip360)" d="M191.246 755.285 Q187.635 755.285 185.806 758.85 Q184.001 762.392 184.001 769.521 Q184.001 776.628 185.806 780.193 Q187.635 783.734 191.246 783.734 Q194.88 783.734 196.686 780.193 Q198.514 776.628 198.514 769.521 Q198.514 762.392 196.686 758.85 Q194.88 755.285 191.246 755.285 M191.246 751.582 Q197.056 751.582 200.112 756.188 Q203.19 760.771 203.19 769.521 Q203.19 778.248 200.112 782.855 Q197.056 787.438 191.246 787.438 Q185.436 787.438 182.357 782.855 Q179.302 778.248 179.302 769.521 Q179.302 760.771 182.357 756.188 Q185.436 751.582 191.246 751.582 Z" fill="#000000" fill-rule="nonzero" fill-opacity="1" /><path clip-path="url(#clip360)" d="M50.9921 550.166 L80.6679 550.166 L80.6679 554.101 L50.9921 554.101 L50.9921 550.166 Z" fill="#000000" fill-rule="nonzero" fill-opacity="1" /><path clip-path="url(#clip360)" d="M94.7882 563.059 L111.108 563.059 L111.108 566.994 L89.1632 566.994 L89.1632 563.059 Q91.8252 560.305 96.4085 555.675 Q101.015 551.022 102.196 549.68 Q104.441 547.157 105.321 545.421 Q106.223 543.661 106.223 541.971 Q106.223 539.217 104.279 537.481 Q102.358 535.745 99.2558 535.745 Q97.0567 535.745 94.603 536.509 Q92.1725 537.272 89.3947 538.823 L89.3947 534.101 Q92.2188 532.967 94.6724 532.388 Q97.1261 531.81 99.1632 531.81 Q104.534 531.81 107.728 534.495 Q110.922 537.18 110.922 541.671 Q110.922 543.8 110.112 545.721 Q109.325 547.62 107.219 550.212 Q106.64 550.883 103.538 554.101 Q100.436 557.295 94.7882 563.059 Z" fill="#000000" fill-rule="nonzero" fill-opacity="1" /><path clip-path="url(#clip360)" d="M130.922 535.513 Q127.311 535.513 125.482 539.078 Q123.677 542.62 123.677 549.749 Q123.677 556.856 125.482 560.42 Q127.311 563.962 130.922 563.962 Q134.556 563.962 136.362 560.42 Q138.191 556.856 138.191 549.749 Q138.191 542.62 136.362 539.078 Q134.556 535.513 130.922 535.513 M130.922 531.81 Q136.732 531.81 139.788 536.416 Q142.867 540.999 142.867 549.749 Q142.867 558.476 139.788 563.082 Q136.732 567.666 130.922 567.666 Q125.112 567.666 122.033 563.082 Q118.978 558.476 118.978 549.749 Q118.978 540.999 122.033 536.416 Q125.112 531.81 130.922 531.81 Z" fill="#000000" fill-rule="nonzero" fill-opacity="1" /><path clip-path="url(#clip360)" d="M161.084 535.513 Q157.473 535.513 155.644 539.078 Q153.839 542.62 153.839 549.749 Q153.839 556.856 155.644 560.42 Q157.473 563.962 161.084 563.962 Q164.718 563.962 166.524 560.42 Q168.353 556.856 168.353 549.749 Q168.353 542.62 166.524 539.078 Q164.718 535.513 161.084 535.513 M161.084 531.81 Q166.894 531.81 169.95 536.416 Q173.029 540.999 173.029 549.749 Q173.029 558.476 169.95 563.082 Q166.894 567.666 161.084 567.666 Q155.274 567.666 152.195 563.082 Q149.14 558.476 149.14 549.749 Q149.14 540.999 152.195 536.416 Q155.274 531.81 161.084 531.81 Z" fill="#000000" fill-rule="nonzero" fill-opacity="1" /><path clip-path="url(#clip360)" d="M191.246 535.513 Q187.635 535.513 185.806 539.078 Q184.001 542.62 184.001 549.749 Q184.001 556.856 185.806 560.42 Q187.635 563.962 191.246 563.962 Q194.88 563.962 196.686 560.42 Q198.514 556.856 198.514 549.749 Q198.514 542.62 196.686 539.078 Q194.88 535.513 191.246 535.513 M191.246 531.81 Q197.056 531.81 200.112 536.416 Q203.19 540.999 203.19 549.749 Q203.19 558.476 200.112 563.082 Q197.056 567.666 191.246 567.666 Q185.436 567.666 182.357 563.082 Q179.302 558.476 179.302 549.749 Q179.302 540.999 182.357 536.416 Q185.436 531.81 191.246 531.81 Z" fill="#000000" fill-rule="nonzero" fill-opacity="1" /><path clip-path="url(#clip360)" d="M50.9921 330.394 L80.6679 330.394 L80.6679 334.329 L50.9921 334.329 L50.9921 330.394 Z" fill="#000000" fill-rule="nonzero" fill-opacity="1" /><path clip-path="url(#clip360)" d="M91.5706 343.287 L99.2095 343.287 L99.2095 316.922 L90.8993 318.588 L90.8993 314.329 L99.1632 312.662 L103.839 312.662 L103.839 343.287 L111.478 343.287 L111.478 347.222 L91.5706 347.222 L91.5706 343.287 Z" fill="#000000" fill-rule="nonzero" fill-opacity="1" /><path clip-path="url(#clip360)" d="M120.969 312.662 L139.325 312.662 L139.325 316.597 L125.251 316.597 L125.251 325.07 Q126.27 324.722 127.288 324.56 Q128.307 324.375 129.325 324.375 Q135.112 324.375 138.492 327.546 Q141.871 330.718 141.871 336.134 Q141.871 341.713 138.399 344.815 Q134.927 347.894 128.607 347.894 Q126.432 347.894 124.163 347.523 Q121.918 347.153 119.51 346.412 L119.51 341.713 Q121.594 342.847 123.816 343.403 Q126.038 343.958 128.515 343.958 Q132.519 343.958 134.857 341.852 Q137.195 339.745 137.195 336.134 Q137.195 332.523 134.857 330.417 Q132.519 328.31 128.515 328.31 Q126.64 328.31 124.765 328.727 Q122.913 329.144 120.969 330.023 L120.969 312.662 Z" fill="#000000" fill-rule="nonzero" fill-opacity="1" /><path clip-path="url(#clip360)" d="M161.084 315.741 Q157.473 315.741 155.644 319.306 Q153.839 322.847 153.839 329.977 Q153.839 337.083 155.644 340.648 Q157.473 344.19 161.084 344.19 Q164.718 344.19 166.524 340.648 Q168.353 337.083 168.353 329.977 Q168.353 322.847 166.524 319.306 Q164.718 315.741 161.084 315.741 M161.084 312.037 Q166.894 312.037 169.95 316.644 Q173.029 321.227 173.029 329.977 Q173.029 338.704 169.95 343.31 Q166.894 347.894 161.084 347.894 Q155.274 347.894 152.195 343.31 Q149.14 338.704 149.14 329.977 Q149.14 321.227 152.195 316.644 Q155.274 312.037 161.084 312.037 Z" fill="#000000" fill-rule="nonzero" fill-opacity="1" /><path clip-path="url(#clip360)" d="M191.246 315.741 Q187.635 315.741 185.806 319.306 Q184.001 322.847 184.001 329.977 Q184.001 337.083 185.806 340.648 Q187.635 344.19 191.246 344.19 Q194.88 344.19 196.686 340.648 Q198.514 337.083 198.514 329.977 Q198.514 322.847 196.686 319.306 Q194.88 315.741 191.246 315.741 M191.246 312.037 Q197.056 312.037 200.112 316.644 Q203.19 321.227 203.19 329.977 Q203.19 338.704 200.112 343.31 Q197.056 347.894 191.246 347.894 Q185.436 347.894 182.357 343.31 Q179.302 338.704 179.302 329.977 Q179.302 321.227 182.357 316.644 Q185.436 312.037 191.246 312.037 Z" fill="#000000" fill-rule="nonzero" fill-opacity="1" /><path clip-path="url(#clip360)" d="M1017.21 12.096 L1025.39 12.096 L1025.39 65.6895 L1054.84 65.6895 L1054.84 72.576 L1017.21 72.576 L1017.21 12.096 Z" fill="#000000" fill-rule="nonzero" fill-opacity="1" /><path clip-path="url(#clip360)" d="M1079.23 32.4315 Q1073.23 32.4315 1069.75 37.1306 Q1066.27 41.7891 1066.27 49.9314 Q1066.27 58.0738 1069.71 62.7728 Q1073.19 67.4314 1079.23 67.4314 Q1085.18 67.4314 1088.67 62.7323 Q1092.15 58.0333 1092.15 49.9314 Q1092.15 41.8701 1088.67 37.1711 Q1085.18 32.4315 1079.23 32.4315 M1079.23 26.1121 Q1088.95 26.1121 1094.5 32.4315 Q1100.05 38.7509 1100.05 49.9314 Q1100.05 61.0714 1094.5 67.4314 Q1088.95 73.7508 1079.23 73.7508 Q1069.47 73.7508 1063.92 67.4314 Q1058.41 61.0714 1058.41 49.9314 Q1058.41 38.7509 1063.92 32.4315 Q1069.47 26.1121 1079.23 26.1121 Z" fill="#000000" fill-rule="nonzero" fill-opacity="1" /><path clip-path="url(#clip360)" d="M1142.26 49.3643 Q1142.26 41.2625 1138.9 36.8065 Q1135.58 32.3505 1129.54 32.3505 Q1123.55 32.3505 1120.18 36.8065 Q1116.86 41.2625 1116.86 49.3643 Q1116.86 57.4256 1120.18 61.8816 Q1123.55 66.3376 1129.54 66.3376 Q1135.58 66.3376 1138.9 61.8816 Q1142.26 57.4256 1142.26 49.3643 M1149.72 66.9452 Q1149.72 78.5308 1144.57 84.1616 Q1139.43 89.8329 1128.81 89.8329 Q1124.88 89.8329 1121.4 89.2252 Q1117.92 88.6581 1114.63 87.4428 L1114.63 80.1917 Q1117.92 81.9741 1121.12 82.8248 Q1124.32 83.6755 1127.64 83.6755 Q1134.97 83.6755 1138.62 79.8271 Q1142.26 76.0193 1142.26 68.282 L1142.26 64.5957 Q1139.95 68.6061 1136.35 70.5911 Q1132.74 72.576 1127.72 72.576 Q1119.37 72.576 1114.27 66.2161 Q1109.17 59.8562 1109.17 49.3643 Q1109.17 38.832 1114.27 32.472 Q1119.37 26.1121 1127.72 26.1121 Q1132.74 26.1121 1136.35 28.0971 Q1139.95 30.082 1142.26 34.0924 L1142.26 27.2059 L1149.72 27.2059 L1149.72 66.9452 Z" fill="#000000" fill-rule="nonzero" fill-opacity="1" /><path clip-path="url(#clip360)" d="M1161.3 46.5287 L1183.14 46.5287 L1183.14 53.1722 L1161.3 53.1722 L1161.3 46.5287 Z" fill="#000000" fill-rule="nonzero" fill-opacity="1" /><path clip-path="url(#clip360)" d="M1195 9.54393 L1202.46 9.54393 L1202.46 72.576 L1195 72.576 L1195 9.54393 Z" fill="#000000" fill-rule="nonzero" fill-opacity="1" /><path clip-path="url(#clip360)" d="M1218.05 27.2059 L1225.51 27.2059 L1225.51 72.576 L1218.05 72.576 L1218.05 27.2059 M1218.05 9.54393 L1225.51 9.54393 L1225.51 18.9825 L1218.05 18.9825 L1218.05 9.54393 Z" fill="#000000" fill-rule="nonzero" fill-opacity="1" /><path clip-path="url(#clip360)" d="M1240.82 9.54393 L1248.31 9.54393 L1248.31 46.7717 L1270.55 27.2059 L1280.07 27.2059 L1256.01 48.4326 L1281.09 72.576 L1271.36 72.576 L1248.31 50.4176 L1248.31 72.576 L1240.82 72.576 L1240.82 9.54393 Z" fill="#000000" fill-rule="nonzero" fill-opacity="1" /><path clip-path="url(#clip360)" d="M1325 48.0275 L1325 51.6733 L1290.73 51.6733 Q1291.21 59.3701 1295.35 63.421 Q1299.52 67.4314 1306.93 67.4314 Q1311.22 67.4314 1315.24 66.3781 Q1319.29 65.3249 1323.26 63.2184 L1323.26 70.267 Q1319.25 71.9684 1315.03 72.8596 Q1310.82 73.7508 1306.49 73.7508 Q1295.63 73.7508 1289.27 67.4314 Q1282.95 61.1119 1282.95 50.3365 Q1282.95 39.1965 1288.94 32.6746 Q1294.98 26.1121 1305.19 26.1121 Q1314.34 26.1121 1319.65 32.0264 Q1325 37.9003 1325 48.0275 M1317.54 45.84 Q1317.46 39.7232 1314.1 36.0774 Q1310.78 32.4315 1305.27 32.4315 Q1299.03 32.4315 1295.26 35.9558 Q1291.54 39.4801 1290.97 45.8805 L1317.54 45.84 Z" fill="#000000" fill-rule="nonzero" fill-opacity="1" /><path clip-path="url(#clip360)" d="M1337.23 9.54393 L1344.69 9.54393 L1344.69 72.576 L1337.23 72.576 L1337.23 9.54393 Z" fill="#000000" fill-rule="nonzero" fill-opacity="1" /><path clip-path="url(#clip360)" d="M1360.28 27.2059 L1367.73 27.2059 L1367.73 72.576 L1360.28 72.576 L1360.28 27.2059 M1360.28 9.54393 L1367.73 9.54393 L1367.73 18.9825 L1360.28 18.9825 L1360.28 9.54393 Z" fill="#000000" fill-rule="nonzero" fill-opacity="1" /><path clip-path="url(#clip360)" d="M1421.04 45.1919 L1421.04 72.576 L1413.59 72.576 L1413.59 45.4349 Q1413.59 38.994 1411.08 35.7938 Q1408.57 32.5936 1403.54 32.5936 Q1397.51 32.5936 1394.03 36.4419 Q1390.54 40.2903 1390.54 46.9338 L1390.54 72.576 L1383.05 72.576 L1383.05 9.54393 L1390.54 9.54393 L1390.54 34.2544 Q1393.22 30.163 1396.82 28.1376 Q1400.47 26.1121 1405.21 26.1121 Q1413.02 26.1121 1417.03 30.9732 Q1421.04 35.7938 1421.04 45.1919 Z" fill="#000000" fill-rule="nonzero" fill-opacity="1" /><path clip-path="url(#clip360)" d="M1453.49 32.4315 Q1447.5 32.4315 1444.01 37.1306 Q1440.53 41.7891 1440.53 49.9314 Q1440.53 58.0738 1443.97 62.7728 Q1447.46 67.4314 1453.49 67.4314 Q1459.45 67.4314 1462.93 62.7323 Q1466.41 58.0333 1466.41 49.9314 Q1466.41 41.8701 1462.93 37.1711 Q1459.45 32.4315 1453.49 32.4315 M1453.49 26.1121 Q1463.21 26.1121 1468.76 32.4315 Q1474.31 38.7509 1474.31 49.9314 Q1474.31 61.0714 1468.76 67.4314 Q1463.21 73.7508 1453.49 73.7508 Q1443.73 73.7508 1438.18 67.4314 Q1432.67 61.0714 1432.67 49.9314 Q1432.67 38.7509 1438.18 32.4315 Q1443.73 26.1121 1453.49 26.1121 Z" fill="#000000" fill-rule="nonzero" fill-opacity="1" /><path clip-path="url(#clip360)" d="M1504.25 32.4315 Q1498.26 32.4315 1494.77 37.1306 Q1491.29 41.7891 1491.29 49.9314 Q1491.29 58.0738 1494.73 62.7728 Q1498.21 67.4314 1504.25 67.4314 Q1510.21 67.4314 1513.69 62.7323 Q1517.17 58.0333 1517.17 49.9314 Q1517.17 41.8701 1513.69 37.1711 Q1510.21 32.4315 1504.25 32.4315 M1504.25 26.1121 Q1513.97 26.1121 1519.52 32.4315 Q1525.07 38.7509 1525.07 49.9314 Q1525.07 61.0714 1519.52 67.4314 Q1513.97 73.7508 1504.25 73.7508 Q1494.49 73.7508 1488.94 67.4314 Q1483.43 61.0714 1483.43 49.9314 Q1483.43 38.7509 1488.94 32.4315 Q1494.49 26.1121 1504.25 26.1121 Z" fill="#000000" fill-rule="nonzero" fill-opacity="1" /><path clip-path="url(#clip360)" d="M1567.28 34.0924 L1567.28 9.54393 L1574.74 9.54393 L1574.74 72.576 L1567.28 72.576 L1567.28 65.7705 Q1564.93 69.8214 1561.33 71.8063 Q1557.76 73.7508 1552.74 73.7508 Q1544.52 73.7508 1539.33 67.1883 Q1534.19 60.6258 1534.19 49.9314 Q1534.19 39.2371 1539.33 32.6746 Q1544.52 26.1121 1552.74 26.1121 Q1557.76 26.1121 1561.33 28.0971 Q1564.93 30.0415 1567.28 34.0924 M1541.88 49.9314 Q1541.88 58.1548 1545.25 62.8538 Q1548.65 67.5124 1554.56 67.5124 Q1560.48 67.5124 1563.88 62.8538 Q1567.28 58.1548 1567.28 49.9314 Q1567.28 41.7081 1563.88 37.0496 Q1560.48 32.3505 1554.56 32.3505 Q1548.65 32.3505 1545.25 37.0496 Q1541.88 41.7081 1541.88 49.9314 Z" fill="#000000" fill-rule="nonzero" fill-opacity="1" /><polyline clip-path="url(#clip361)" style="stroke:#009af9; stroke-linecap:round; stroke-linejoin:round; stroke-width:4; stroke-opacity:1; fill:none" points="299.008,1374.46 332.804,913.997 366.599,664.272 400.395,500.484 434.19,374.248 467.985,360.766 501.781,302.331 535.576,276.617 569.372,251.617 603.167,237.865 636.962,220.363 670.758,212.567 704.553,203.303 738.349,192.19 772.144,189.476 805.94,180.555 839.735,174.166 873.53,171.125 907.326,167.128 941.121,165.235 974.917,162.103 1008.71,161.008 1042.51,160.819 1076.3,159.909 1110.1,161.407 1143.89,163.1 1177.69,165.514 1211.48,168.693 1245.28,172.394 1279.08,178.11 1312.87,183.7 1346.67,190.364 1380.46,198.138 1414.26,206.61 1448.05,216.276 1481.85,226.469 1515.64,238.969 1549.44,250.973 1583.23,263.505 1617.03,278.722 1650.83,292.595 1684.62,308.384 1718.42,323.276 1752.21,339.042 1786.01,355.961 1819.8,374.322 1853.6,392.593 1887.39,409.138 1921.19,427.219 1954.98,446.001 1988.78,465.923 2022.57,484.46 2056.37,504.569 2090.17,524.637 2123.96,543.661 2157.76,564.342 2191.55,585.864 2225.35,604.282 2259.14,626.216 2292.94,643.221 "/>
<polyline clip-path="url(#clip361)" style="stroke:#008000; stroke-linecap:round; stroke-linejoin:round; stroke-width:4; stroke-opacity:1; fill:none" points="299.008,933.361 332.804,698.694 366.599,470.466 400.395,432.664 434.19,382.875 467.985,336.474 501.781,305.364 535.576,282.845 569.372,253.721 603.167,245.193 636.962,230.588 670.758,212.217 704.553,204.235 738.349,195.668 772.144,188.765 805.94,182.6 839.735,173.99 873.53,170.373 907.326,167.192 941.121,165.201 974.917,160.878 1008.71,161.174 1042.51,160.06 1076.3,161.456 1110.1,160.963 1143.89,162.524 1177.69,164.552 1211.48,168.238 1245.28,173.501 1279.08,177.555 1312.87,183.712 1346.67,190.479 1380.46,198.143 1414.26,206.553 1448.05,216.349 1481.85,227.303 1515.64,238.202 1549.44,250.694 1583.23,263.53 1617.03,277.707 1650.83,291.57 1684.62,308.324 1718.42,323.513 1752.21,340.098 1786.01,356.667 1819.8,374.019 1853.6,391.861 1887.39,409.127 1921.19,427.817 1954.98,447.484 1988.78,465.766 2022.57,488.779 2056.37,506.187 2090.17,525.66 2123.96,544.599 2157.76,565.783 2191.55,588.927 2225.35,608.2 2259.14,631.965 2292.94,647.134 "/>
<polyline clip-path="url(#clip361)" style="stroke:#0000ff; stroke-linecap:round; stroke-linejoin:round; stroke-width:4; stroke-opacity:1; fill:none" stroke-dasharray="16, 10" points="1076.3,2698.32 1076.3,-1163.95 "/>
<path clip-path="url(#clip360)" d="M1903.54 321.906 L2282.3 321.906 L2282.3 166.386 L1903.54 166.386  Z" fill="#ffffff" fill-rule="evenodd" fill-opacity="1"/>
<polyline clip-path="url(#clip360)" style="stroke:#000000; stroke-linecap:round; stroke-linejoin:round; stroke-width:4; stroke-opacity:1; fill:none" points="1903.54,321.906 2282.3,321.906 2282.3,166.386 1903.54,166.386 1903.54,321.906 "/>
<polyline clip-path="url(#clip360)" style="stroke:#009af9; stroke-linecap:round; stroke-linejoin:round; stroke-width:4; stroke-opacity:1; fill:none" points="1927.02,218.226 2067.93,218.226 "/>
<path clip-path="url(#clip360)" d="M2096.09 204.789 L2096.09 217.775 L2101.97 217.775 Q2105.23 217.775 2107.01 216.085 Q2108.8 214.395 2108.8 211.27 Q2108.8 208.168 2107.01 206.479 Q2105.23 204.789 2101.97 204.789 L2096.09 204.789 M2091.41 200.946 L2101.97 200.946 Q2107.78 200.946 2110.74 203.585 Q2113.73 206.201 2113.73 211.27 Q2113.73 216.386 2110.74 219.002 Q2107.78 221.617 2101.97 221.617 L2096.09 221.617 L2096.09 235.506 L2091.41 235.506 L2091.41 200.946 Z" fill="#000000" fill-rule="nonzero" fill-opacity="1" /><path clip-path="url(#clip360)" d="M2120 200.946 L2139.86 200.946 L2139.86 204.881 L2124.68 204.881 L2124.68 215.067 L2138.38 215.067 L2138.38 219.002 L2124.68 219.002 L2124.68 235.506 L2120 235.506 L2120 200.946 Z" fill="#000000" fill-rule="nonzero" fill-opacity="1" /><polyline clip-path="url(#clip360)" style="stroke:#008000; stroke-linecap:round; stroke-linejoin:round; stroke-width:4; stroke-opacity:1; fill:none" points="1927.02,270.066 2067.93,270.066 "/>
<path clip-path="url(#clip360)" d="M2107.25 257.393 L2100.9 274.592 L2113.61 274.592 L2107.25 257.393 M2104.61 252.786 L2109.91 252.786 L2123.08 287.346 L2118.22 287.346 L2115.07 278.481 L2099.49 278.481 L2096.34 287.346 L2091.41 287.346 L2104.61 252.786 Z" fill="#000000" fill-rule="nonzero" fill-opacity="1" /><path clip-path="url(#clip360)" d="M2127.59 252.786 L2132.29 252.786 L2132.29 273.782 Q2132.29 279.337 2134.31 281.791 Q2136.32 284.221 2140.83 284.221 Q2145.32 284.221 2147.34 281.791 Q2149.35 279.337 2149.35 273.782 L2149.35 252.786 L2154.05 252.786 L2154.05 274.36 Q2154.05 281.119 2150.7 284.569 Q2147.36 288.018 2140.83 288.018 Q2134.28 288.018 2130.93 284.569 Q2127.59 281.119 2127.59 274.36 L2127.59 252.786 Z" fill="#000000" fill-rule="nonzero" fill-opacity="1" /><path clip-path="url(#clip360)" d="M2161.16 252.786 L2166.18 252.786 L2174.77 265.633 L2183.4 252.786 L2188.43 252.786 L2177.32 269.383 L2189.17 287.346 L2184.14 287.346 L2174.42 272.647 L2164.63 287.346 L2159.58 287.346 L2171.92 268.897 L2161.16 252.786 Z" fill="#000000" fill-rule="nonzero" fill-opacity="1" /><path clip-path="url(#clip360)" d="M2215.05 256.629 L2215.05 269.615 L2220.93 269.615 Q2224.19 269.615 2225.97 267.925 Q2227.76 266.235 2227.76 263.11 Q2227.76 260.008 2225.97 258.319 Q2224.19 256.629 2220.93 256.629 L2215.05 256.629 M2210.37 252.786 L2220.93 252.786 Q2226.74 252.786 2229.7 255.425 Q2232.69 258.041 2232.69 263.11 Q2232.69 268.226 2229.7 270.842 Q2226.74 273.457 2220.93 273.457 L2215.05 273.457 L2215.05 287.346 L2210.37 287.346 L2210.37 252.786 Z" fill="#000000" fill-rule="nonzero" fill-opacity="1" /><path clip-path="url(#clip360)" d="M2238.96 252.786 L2258.82 252.786 L2258.82 256.721 L2243.63 256.721 L2243.63 266.907 L2257.34 266.907 L2257.34 270.842 L2243.63 270.842 L2243.63 287.346 L2238.96 287.346 L2238.96 252.786 Z" fill="#000000" fill-rule="nonzero" fill-opacity="1" /></svg>
