<?xml version="1.0" encoding="utf-8"?>
<svg xmlns="http://www.w3.org/2000/svg" xmlns:xlink="http://www.w3.org/1999/xlink" width="600" height="400" viewBox="0 0 2400 1600">
<defs>
  <clipPath id="clip760">
    <rect x="0" y="0" width="2400" height="1600"/>
  </clipPath>
</defs>
<path clip-path="url(#clip760)" d="M0 1600 L2400 1600 L2400 0 L0 0  Z" fill="#ffffff" fill-rule="evenodd" fill-opacity="1"/>
<defs>
  <clipPath id="clip761">
    <rect x="480" y="0" width="1681" height="1600"/>
  </clipPath>
</defs>
<path clip-path="url(#clip760)" d="M140.51 1486.45 L2352.76 1486.45 L2352.76 47.2441 L140.51 47.2441  Z" fill="#ffffff" fill-rule="evenodd" fill-opacity="1"/>
<defs>
  <clipPath id="clip762">
    <rect x="140" y="47" width="2213" height="1440"/>
  </clipPath>
</defs>
<polyline clip-path="url(#clip762)" style="stroke:#000000; stroke-linecap:round; stroke-linejoin:round; stroke-width:2; stroke-opacity:0.1; fill:none" points="353.946,1486.45 353.946,47.2441 "/>
<polyline clip-path="url(#clip762)" style="stroke:#000000; stroke-linecap:round; stroke-linejoin:round; stroke-width:2; stroke-opacity:0.1; fill:none" points="787.501,1486.45 787.501,47.2441 "/>
<polyline clip-path="url(#clip762)" style="stroke:#000000; stroke-linecap:round; stroke-linejoin:round; stroke-width:2; stroke-opacity:0.1; fill:none" points="1221.06,1486.45 1221.06,47.2441 "/>
<polyline clip-path="url(#clip762)" style="stroke:#000000; stroke-linecap:round; stroke-linejoin:round; stroke-width:2; stroke-opacity:0.1; fill:none" points="1654.61,1486.45 1654.61,47.2441 "/>
<polyline clip-path="url(#clip762)" style="stroke:#000000; stroke-linecap:round; stroke-linejoin:round; stroke-width:2; stroke-opacity:0.1; fill:none" points="2088.17,1486.45 2088.17,47.2441 "/>
<polyline clip-path="url(#clip762)" style="stroke:#000000; stroke-linecap:round; stroke-linejoin:round; stroke-width:2; stroke-opacity:0.1; fill:none" points="140.51,1180.05 2352.76,1180.05 "/>
<polyline clip-path="url(#clip762)" style="stroke:#000000; stroke-linecap:round; stroke-linejoin:round; stroke-width:2; stroke-opacity:0.1; fill:none" points="140.51,872.352 2352.76,872.352 "/>
<polyline clip-path="url(#clip762)" style="stroke:#000000; stroke-linecap:round; stroke-linejoin:round; stroke-width:2; stroke-opacity:0.1; fill:none" points="140.51,564.657 2352.76,564.657 "/>
<polyline clip-path="url(#clip762)" style="stroke:#000000; stroke-linecap:round; stroke-linejoin:round; stroke-width:2; stroke-opacity:0.1; fill:none" points="140.51,256.962 2352.76,256.962 "/>
<polyline clip-path="url(#clip760)" style="stroke:#000000; stroke-linecap:round; stroke-linejoin:round; stroke-width:4; stroke-opacity:1; fill:none" points="140.51,1486.45 2352.76,1486.45 "/>
<polyline clip-path="url(#clip760)" style="stroke:#000000; stroke-linecap:round; stroke-linejoin:round; stroke-width:4; stroke-opacity:1; fill:none" points="353.946,1486.45 353.946,1467.55 "/>
<polyline clip-path="url(#clip760)" style="stroke:#000000; stroke-linecap:round; stroke-linejoin:round; stroke-width:4; stroke-opacity:1; fill:none" points="787.501,1486.45 787.501,1467.55 "/>
<polyline clip-path="url(#clip760)" style="stroke:#000000; stroke-linecap:round; stroke-linejoin:round; stroke-width:4; stroke-opacity:1; fill:none" points="1221.06,1486.45 1221.06,1467.55 "/>
<polyline clip-path="url(#clip760)" style="stroke:#000000; stroke-linecap:round; stroke-linejoin:round; stroke-width:4; stroke-opacity:1; fill:none" points="1654.61,1486.45 1654.61,1467.55 "/>
<polyline clip-path="url(#clip760)" style="stroke:#000000; stroke-linecap:round; stroke-linejoin:round; stroke-width:4; stroke-opacity:1; fill:none" points="2088.17,1486.45 2088.17,1467.55 "/>
<path clip-path="url(#clip760)" d="M308.009 1532.02 L337.685 1532.02 L337.685 1535.95 L308.009 1535.95 L308.009 1532.02 Z" fill="#000000" fill-rule="nonzero" fill-opacity="1" /><path clip-path="url(#clip760)" d="M361.944 1530.21 Q365.301 1530.93 367.176 1533.2 Q369.074 1535.47 369.074 1538.8 Q369.074 1543.92 365.555 1546.72 Q362.037 1549.52 355.555 1549.52 Q353.379 1549.52 351.065 1549.08 Q348.773 1548.66 346.319 1547.81 L346.319 1543.29 Q348.264 1544.43 350.578 1545.01 Q352.893 1545.58 355.416 1545.58 Q359.814 1545.58 362.106 1543.85 Q364.421 1542.11 364.421 1538.8 Q364.421 1535.75 362.268 1534.03 Q360.139 1532.3 356.319 1532.3 L352.291 1532.3 L352.291 1528.45 L356.504 1528.45 Q359.953 1528.45 361.782 1527.09 Q363.611 1525.7 363.611 1523.11 Q363.611 1520.45 361.713 1519.03 Q359.838 1517.6 356.319 1517.6 Q354.398 1517.6 352.199 1518.01 Q350 1518.43 347.361 1519.31 L347.361 1515.14 Q350.023 1514.4 352.338 1514.03 Q354.676 1513.66 356.736 1513.66 Q362.06 1513.66 365.162 1516.09 Q368.263 1518.5 368.263 1522.62 Q368.263 1525.49 366.62 1527.48 Q364.976 1529.45 361.944 1530.21 Z" fill="#000000" fill-rule="nonzero" fill-opacity="1" /><path clip-path="url(#clip760)" d="M387.939 1517.37 Q384.328 1517.37 382.5 1520.93 Q380.694 1524.47 380.694 1531.6 Q380.694 1538.71 382.5 1542.27 Q384.328 1545.82 387.939 1545.82 Q391.574 1545.82 393.379 1542.27 Q395.208 1538.71 395.208 1531.6 Q395.208 1524.47 393.379 1520.93 Q391.574 1517.37 387.939 1517.37 M387.939 1513.66 Q393.749 1513.66 396.805 1518.27 Q399.884 1522.85 399.884 1531.6 Q399.884 1540.33 396.805 1544.94 Q393.749 1549.52 387.939 1549.52 Q382.129 1549.52 379.05 1544.94 Q375.995 1540.33 375.995 1531.6 Q375.995 1522.85 379.05 1518.27 Q382.129 1513.66 387.939 1513.66 Z" fill="#000000" fill-rule="nonzero" fill-opacity="1" /><path clip-path="url(#clip760)" d="M787.501 1517.37 Q783.89 1517.37 782.062 1520.93 Q780.256 1524.47 780.256 1531.6 Q780.256 1538.71 782.062 1542.27 Q783.89 1545.82 787.501 1545.82 Q791.136 1545.82 792.941 1542.27 Q794.77 1538.71 794.77 1531.6 Q794.77 1524.47 792.941 1520.93 Q791.136 1517.37 787.501 1517.37 M787.501 1513.66 Q793.312 1513.66 796.367 1518.27 Q799.446 1522.85 799.446 1531.6 Q799.446 1540.33 796.367 1544.94 Q793.312 1549.52 787.501 1549.52 Q781.691 1549.52 778.613 1544.94 Q775.557 1540.33 775.557 1531.6 Q775.557 1522.85 778.613 1518.27 Q781.691 1513.66 787.501 1513.66 Z" fill="#000000" fill-rule="nonzero" fill-opacity="1" /><path clip-path="url(#clip760)" d="M1209.9 1530.21 Q1213.26 1530.93 1215.13 1533.2 Q1217.03 1535.47 1217.03 1538.8 Q1217.03 1543.92 1213.51 1546.72 Q1209.99 1549.52 1203.51 1549.52 Q1201.33 1549.52 1199.02 1549.08 Q1196.73 1548.66 1194.27 1547.81 L1194.27 1543.29 Q1196.22 1544.43 1198.53 1545.01 Q1200.85 1545.58 1203.37 1545.58 Q1207.77 1545.58 1210.06 1543.85 Q1212.38 1542.11 1212.38 1538.8 Q1212.38 1535.75 1210.22 1534.03 Q1208.09 1532.3 1204.27 1532.3 L1200.25 1532.3 L1200.25 1528.45 L1204.46 1528.45 Q1207.91 1528.45 1209.74 1527.09 Q1211.57 1525.7 1211.57 1523.11 Q1211.57 1520.45 1209.67 1519.03 Q1207.79 1517.6 1204.27 1517.6 Q1202.35 1517.6 1200.15 1518.01 Q1197.95 1518.43 1195.32 1519.31 L1195.32 1515.14 Q1197.98 1514.4 1200.29 1514.03 Q1202.63 1513.66 1204.69 1513.66 Q1210.01 1513.66 1213.12 1516.09 Q1216.22 1518.5 1216.22 1522.62 Q1216.22 1525.49 1214.57 1527.48 Q1212.93 1529.45 1209.9 1530.21 Z" fill="#000000" fill-rule="nonzero" fill-opacity="1" /><path clip-path="url(#clip760)" d="M1235.89 1517.37 Q1232.28 1517.37 1230.45 1520.93 Q1228.65 1524.47 1228.65 1531.6 Q1228.65 1538.71 1230.45 1542.27 Q1232.28 1545.82 1235.89 1545.82 Q1239.53 1545.82 1241.33 1542.27 Q1243.16 1538.71 1243.16 1531.6 Q1243.16 1524.47 1241.33 1520.93 Q1239.53 1517.37 1235.89 1517.37 M1235.89 1513.66 Q1241.7 1513.66 1244.76 1518.27 Q1247.84 1522.85 1247.84 1531.6 Q1247.84 1540.33 1244.76 1544.94 Q1241.7 1549.52 1235.89 1549.52 Q1230.08 1549.52 1227.01 1544.94 Q1223.95 1540.33 1223.95 1531.6 Q1223.95 1522.85 1227.01 1518.27 Q1230.08 1513.66 1235.89 1513.66 Z" fill="#000000" fill-rule="nonzero" fill-opacity="1" /><path clip-path="url(#clip760)" d="M1640.02 1529.7 Q1636.87 1529.7 1635.02 1531.86 Q1633.19 1534.01 1633.19 1537.76 Q1633.19 1541.49 1635.02 1543.66 Q1636.87 1545.82 1640.02 1545.82 Q1643.16 1545.82 1644.99 1543.66 Q1646.85 1541.49 1646.85 1537.76 Q1646.85 1534.01 1644.99 1531.86 Q1643.16 1529.7 1640.02 1529.7 M1649.3 1515.05 L1649.3 1519.31 Q1647.54 1518.48 1645.73 1518.04 Q1643.95 1517.6 1642.19 1517.6 Q1637.56 1517.6 1635.11 1520.72 Q1632.68 1523.85 1632.33 1530.17 Q1633.7 1528.15 1635.76 1527.09 Q1637.82 1526 1640.29 1526 Q1645.5 1526 1648.51 1529.17 Q1651.54 1532.32 1651.54 1537.76 Q1651.54 1543.08 1648.4 1546.3 Q1645.25 1549.52 1640.02 1549.52 Q1634.02 1549.52 1630.85 1544.94 Q1627.68 1540.33 1627.68 1531.6 Q1627.68 1523.41 1631.57 1518.55 Q1635.46 1513.66 1642.01 1513.66 Q1643.77 1513.66 1645.55 1514.01 Q1647.35 1514.36 1649.3 1515.05 Z" fill="#000000" fill-rule="nonzero" fill-opacity="1" /><path clip-path="url(#clip760)" d="M1669.6 1517.37 Q1665.99 1517.37 1664.16 1520.93 Q1662.35 1524.47 1662.35 1531.6 Q1662.35 1538.71 1664.16 1542.27 Q1665.99 1545.82 1669.6 1545.82 Q1673.23 1545.82 1675.04 1542.27 Q1676.87 1538.71 1676.87 1531.6 Q1676.87 1524.47 1675.04 1520.93 Q1673.23 1517.37 1669.6 1517.37 M1669.6 1513.66 Q1675.41 1513.66 1678.47 1518.27 Q1681.54 1522.85 1681.54 1531.6 Q1681.54 1540.33 1678.47 1544.94 Q1675.41 1549.52 1669.6 1549.52 Q1663.79 1549.52 1660.71 1544.94 Q1657.66 1540.33 1657.66 1531.6 Q1657.66 1522.85 1660.71 1518.27 Q1663.79 1513.66 1669.6 1513.66 Z" fill="#000000" fill-rule="nonzero" fill-opacity="1" /><path clip-path="url(#clip760)" d="M2063.29 1548.13 L2063.29 1543.87 Q2065.05 1544.7 2066.86 1545.14 Q2068.66 1545.58 2070.4 1545.58 Q2075.03 1545.58 2077.46 1542.48 Q2079.91 1539.36 2080.26 1533.01 Q2078.92 1535.01 2076.86 1536.07 Q2074.8 1537.13 2072.3 1537.13 Q2067.11 1537.13 2064.08 1534.01 Q2061.07 1530.86 2061.07 1525.42 Q2061.07 1520.1 2064.22 1516.88 Q2067.37 1513.66 2072.6 1513.66 Q2078.59 1513.66 2081.74 1518.27 Q2084.91 1522.85 2084.91 1531.6 Q2084.91 1539.77 2081.03 1544.66 Q2077.16 1549.52 2070.61 1549.52 Q2068.85 1549.52 2067.04 1549.17 Q2065.24 1548.82 2063.29 1548.13 M2072.6 1533.48 Q2075.75 1533.48 2077.58 1531.32 Q2079.43 1529.17 2079.43 1525.42 Q2079.43 1521.7 2077.58 1519.54 Q2075.75 1517.37 2072.6 1517.37 Q2069.45 1517.37 2067.6 1519.54 Q2065.77 1521.7 2065.77 1525.42 Q2065.77 1529.17 2067.6 1531.32 Q2069.45 1533.48 2072.6 1533.48 Z" fill="#000000" fill-rule="nonzero" fill-opacity="1" /><path clip-path="url(#clip760)" d="M2103.32 1517.37 Q2099.71 1517.37 2097.88 1520.93 Q2096.07 1524.47 2096.07 1531.6 Q2096.07 1538.71 2097.88 1542.27 Q2099.71 1545.82 2103.32 1545.82 Q2106.95 1545.82 2108.76 1542.27 Q2110.59 1538.71 2110.59 1531.6 Q2110.59 1524.47 2108.76 1520.93 Q2106.95 1517.37 2103.32 1517.37 M2103.32 1513.66 Q2109.13 1513.66 2112.18 1518.27 Q2115.26 1522.85 2115.26 1531.6 Q2115.26 1540.33 2112.18 1544.94 Q2109.13 1549.52 2103.32 1549.52 Q2097.51 1549.52 2094.43 1544.94 Q2091.37 1540.33 2091.37 1531.6 Q2091.37 1522.85 2094.43 1518.27 Q2097.51 1513.66 2103.32 1513.66 Z" fill="#000000" fill-rule="nonzero" fill-opacity="1" /><polyline clip-path="url(#clip760)" style="stroke:#000000; stroke-linecap:round; stroke-linejoin:round; stroke-width:4; stroke-opacity:1; fill:none" points="140.51,1486.45 140.51,47.2441 "/>
<polyline clip-path="url(#clip760)" style="stroke:#000000; stroke-linecap:round; stroke-linejoin:round; stroke-width:4; stroke-opacity:1; fill:none" points="140.51,1180.05 159.408,1180.05 "/>
<polyline clip-path="url(#clip760)" style="stroke:#000000; stroke-linecap:round; stroke-linejoin:round; stroke-width:4; stroke-opacity:1; fill:none" points="140.51,872.352 159.408,872.352 "/>
<polyline clip-path="url(#clip760)" style="stroke:#000000; stroke-linecap:round; stroke-linejoin:round; stroke-width:4; stroke-opacity:1; fill:none" points="140.51,564.657 159.408,564.657 "/>
<polyline clip-path="url(#clip760)" style="stroke:#000000; stroke-linecap:round; stroke-linejoin:round; stroke-width:4; stroke-opacity:1; fill:none" points="140.51,256.962 159.408,256.962 "/>
<path clip-path="url(#clip760)" d="M92.566 1165.85 Q88.9549 1165.85 87.1262 1169.41 Q85.3206 1172.95 85.3206 1180.08 Q85.3206 1187.19 87.1262 1190.75 Q88.9549 1194.29 92.566 1194.29 Q96.2002 1194.29 98.0058 1190.75 Q99.8345 1187.19 99.8345 1180.08 Q99.8345 1172.95 98.0058 1169.41 Q96.2002 1165.85 92.566 1165.85 M92.566 1162.14 Q98.3761 1162.14 101.432 1166.75 Q104.51 1171.33 104.51 1180.08 Q104.51 1188.81 101.432 1193.42 Q98.3761 1198 92.566 1198 Q86.7558 1198 83.6771 1193.42 Q80.6216 1188.81 80.6216 1180.08 Q80.6216 1171.33 83.6771 1166.75 Q86.7558 1162.14 92.566 1162.14 Z" fill="#000000" fill-rule="nonzero" fill-opacity="1" /><path clip-path="url(#clip760)" d="M57.4273 885.697 L73.7466 885.697 L73.7466 889.632 L51.8023 889.632 L51.8023 885.697 Q54.4643 882.942 59.0476 878.313 Q63.6541 873.66 64.8346 872.318 Q67.08 869.794 67.9596 868.058 Q68.8624 866.299 68.8624 864.609 Q68.8624 861.855 66.918 860.119 Q64.9967 858.382 61.8948 858.382 Q59.6958 858.382 57.2421 859.146 Q54.8115 859.91 52.0338 861.461 L52.0338 856.739 Q54.8578 855.605 57.3115 855.026 Q59.7652 854.447 61.8023 854.447 Q67.1726 854.447 70.367 857.132 Q73.5614 859.818 73.5614 864.308 Q73.5614 866.438 72.7513 868.359 Q71.9642 870.257 69.8578 872.85 Q69.2791 873.521 66.1772 876.739 Q63.0754 879.933 57.4273 885.697 Z" fill="#000000" fill-rule="nonzero" fill-opacity="1" /><path clip-path="url(#clip760)" d="M83.6077 855.072 L101.964 855.072 L101.964 859.007 L87.8901 859.007 L87.8901 867.48 Q88.9086 867.132 89.9271 866.97 Q90.9456 866.785 91.9641 866.785 Q97.7511 866.785 101.131 869.956 Q104.51 873.128 104.51 878.544 Q104.51 884.123 101.038 887.225 Q97.566 890.304 91.2465 890.304 Q89.0706 890.304 86.8021 889.933 Q84.5568 889.563 82.1494 888.822 L82.1494 884.123 Q84.2327 885.257 86.4549 885.813 Q88.6771 886.368 91.1539 886.368 Q95.1586 886.368 97.4965 884.262 Q99.8345 882.155 99.8345 878.544 Q99.8345 874.933 97.4965 872.827 Q95.1586 870.72 91.1539 870.72 Q89.279 870.72 87.404 871.137 Q85.5521 871.554 83.6077 872.433 L83.6077 855.072 Z" fill="#000000" fill-rule="nonzero" fill-opacity="1" /><path clip-path="url(#clip760)" d="M52.4505 547.377 L70.8068 547.377 L70.8068 551.312 L56.7328 551.312 L56.7328 559.785 Q57.7513 559.437 58.7699 559.275 Q59.7884 559.09 60.8069 559.09 Q66.5939 559.09 69.9735 562.261 Q73.3531 565.433 73.3531 570.849 Q73.3531 576.428 69.8809 579.53 Q66.4087 582.609 60.0893 582.609 Q57.9134 582.609 55.6449 582.238 Q53.3995 581.868 50.9921 581.127 L50.9921 576.428 Q53.0754 577.562 55.2977 578.118 Q57.5199 578.673 59.9967 578.673 Q64.0013 578.673 66.3393 576.567 Q68.6772 574.46 68.6772 570.849 Q68.6772 567.238 66.3393 565.132 Q64.0013 563.025 59.9967 563.025 Q58.1217 563.025 56.2467 563.442 Q54.3949 563.859 52.4505 564.738 L52.4505 547.377 Z" fill="#000000" fill-rule="nonzero" fill-opacity="1" /><path clip-path="url(#clip760)" d="M92.566 550.456 Q88.9549 550.456 87.1262 554.021 Q85.3206 557.562 85.3206 564.692 Q85.3206 571.798 87.1262 575.363 Q88.9549 578.905 92.566 578.905 Q96.2002 578.905 98.0058 575.363 Q99.8345 571.798 99.8345 564.692 Q99.8345 557.562 98.0058 554.021 Q96.2002 550.456 92.566 550.456 M92.566 546.752 Q98.3761 546.752 101.432 551.359 Q104.51 555.942 104.51 564.692 Q104.51 573.419 101.432 578.025 Q98.3761 582.609 92.566 582.609 Q86.7558 582.609 83.6771 578.025 Q80.6216 573.419 80.6216 564.692 Q80.6216 555.942 83.6771 551.359 Q86.7558 546.752 92.566 546.752 Z" fill="#000000" fill-rule="nonzero" fill-opacity="1" /><path clip-path="url(#clip760)" d="M52.219 239.682 L74.4411 239.682 L74.4411 241.673 L61.8948 274.242 L57.0106 274.242 L68.8161 243.618 L52.219 243.618 L52.219 239.682 Z" fill="#000000" fill-rule="nonzero" fill-opacity="1" /><path clip-path="url(#clip760)" d="M83.6077 239.682 L101.964 239.682 L101.964 243.618 L87.8901 243.618 L87.8901 252.09 Q88.9086 251.742 89.9271 251.58 Q90.9456 251.395 91.9641 251.395 Q97.7511 251.395 101.131 254.567 Q104.51 257.738 104.51 263.154 Q104.51 268.733 101.038 271.835 Q97.566 274.914 91.2465 274.914 Q89.0706 274.914 86.8021 274.543 Q84.5568 274.173 82.1494 273.432 L82.1494 268.733 Q84.2327 269.867 86.4549 270.423 Q88.6771 270.978 91.1539 270.978 Q95.1586 270.978 97.4965 268.872 Q99.8345 266.766 99.8345 263.154 Q99.8345 259.543 97.4965 257.437 Q95.1586 255.33 91.1539 255.33 Q89.279 255.33 87.404 255.747 Q85.5521 256.164 83.6077 257.043 L83.6077 239.682 Z" fill="#000000" fill-rule="nonzero" fill-opacity="1" /><polyline clip-path="url(#clip762)" style="stroke:#0000ff; stroke-linecap:round; stroke-linejoin:round; stroke-width:4; stroke-opacity:1; fill:none" points="203.121,715.645 231.922,723.077 236.485,719.393 247.429,718.883 254.851,718.376 279.72,719.426 302.887,723.409 329.781,726.207 356.157,727.86 386.182,732.426 414.991,732.307 440.307,732.645 476.781,733.975 499.521,739.976 522.949,744.162 557.432,747.757 582.946,749.388 604.931,753.942 634.535,760.274 658.206,767.579 680.947,776.157 703.765,782.733 731.042,789.262 754.334,797.579 780.588,803.169 810.718,810.701 833.75,811.251 868.301,813.554 893.5,821.769 919.545,829.254 950.388,838.518 975.106,847.053 1001.11,854.066 1020.67,863.635 1038.56,875.556 1046.16,881.433 1067.14,884.808 1084.31,886.702 1106.58,888.178 1132.48,891.396 1158.18,900.388 1184.74,910.575 1206.85,916.203 1232.95,920.002 1265.74,921.688 1294.61,923.461 1327.35,927.896 1355.97,932.812 1382.18,936.438 1407.3,938.47 1438.68,938.473 1463.17,938.322 1489.75,937.614 1516.28,934.745 1545.37,929.114 1573.99,929.35 1601.99,927.763 1628.67,928.616 1649.57,922.83 1668.01,919.415 1684.81,912.402 1702.49,906 1723.14,905.05 1745.96,903.282 1767.62,905.418 1787.14,908.577 1808.89,915.25 1829.13,926.334 1850.61,938.973 1867.01,949.878 1882.78,965.685 1893.5,980.274 1901.12,994.661 1910.68,1014.03 1922.38,1032.07 1934.7,1050.68 1945.1,1061.97 1962.76,1068.68 1977.39,1072.12 1987.69,1071.85 2008.98,1065.73 2025.96,1059.7 2047.08,1040.28 2059.48,1025.12 2062.77,1004.22 2065.43,985.406 2064.39,963.921 2051.7,948 2034.01,939.943 2009.11,930.823 1979.83,932.528 1953.62,931.092 1932.94,927.817 1915.08,925.515 1892.9,923.28 1873.08,929.857 1850.83,936.581 1834.19,943.583 1811.39,946.195 1787.25,945.718 1759.57,941.882 1736.41,931.795 1713.46,920.987 1683.67,905.467 1657.9,888.06 1635.1,869.811 1619.83,854.172 1607.87,841.49 1591.36,827.835 1576.75,811.593 1564.85,795.845 1556.71,779.407 1556.23,763.327 1568.06,747.936 1580.74,735.658 1600.82,727.576 1622.33,727.924 1651.64,729.643 1671.32,740.928 1692.49,748.768 1707.27,753.579 1729.94,760.585 1753.24,771.818 1765.3,781.501 1782.88,792.384 1800.88,802.948 1822.55,810.993 1843.69,813.337 1865.13,813.961 1888.77,806.603 1909.45,802.264 1926,801.262 1945.13,808.619 1962.15,819.992 1977.41,835.527 1987.56,851.367 1995.92,870.891 2003.41,892.519 2007.37,912.274 2006.66,933.819 2006.15,945.211 2008.61,958.903 2018.54,977.127 2025.67,994.653 2038.01,1008.83 2049.58,1016.15 2062.51,1020.31 2080.14,1016.77 2099.87,1010.31 2114.67,1002.26 2131.05,990.005 2140.25,979.538 2143.93,959.718 2134.79,941.675 2117.26,924.238 2103.52,907.485 2081.73,896.407 2053.32,891.05 2025.23,886.21 2006,883.922 1981.69,882.442 1961.25,880.189 1942.7,870.937 1927.27,864.393 1905.35,858.054 1888.79,857.084 1866.35,859.474 1845.98,854.747 1825.24,849.335 1805.94,848.069 1781.84,844.407 1763.31,839.093 1746.23,834.849 1724.06,833.235 1697.25,834.457 1670.97,839.964 1655.08,839.21 1649.79,832.01 1644.35,828.873 1637,827.616 1626.57,827.083 1617.95,826.466 1604.52,830.594 1590.57,836.731 1565.07,840.789 1543.86,844.829 1528.41,850.664 1518.53,859.406 1524.53,860.608 1538.82,858.027 1571.47,853.893 1590.55,837.127 1606.5,823.128 1613.95,807.708 1607.83,790.745 1593.85,772.697 1582.83,760.764 1571.69,739.937 1553.21,729.808 1532.69,739.207 1510.36,739.758 1481.57,735.462 1476.22,718.626 1471.99,699.208 1473.42,678.522 1477.51,662.549 1492.75,640.249 1499.79,619.95 1503.34,596.46 1486.73,584.071 1464.97,575.726 1455.82,573.542 1464.83,561.366 1484.23,551.654 1520.16,549.775 1558.91,535.922 1584.8,518.059 1604.04,494.428 1618.57,472.744 1639.37,463.123 1665.63,467.411 1690.19,471.981 1708.82,490.064 1735.93,503.282 1756.43,518.568 1766.4,538.713 1755.86,556.25 1737.08,572.888 1710.54,585.342 1676.87,591.077 1650.65,591.934 1616.37,577.219 1590.86,562.051 1580.93,540.527 1578.77,518.158 1596.66,502.975 1612.04,493.457 1635.2,479.779 1659.14,470.645 1682.31,455.173 1704.35,442.598 1723.39,440.792 1747.61,427.849 1751.82,413.28 1762.21,396.304 1774.02,390.953 1792.04,373.433 1785.93,359.91 1764.92,349.276 1760.6,347.818 1771.32,342.936 1794.32,336.83 1822.71,341.394 1848.34,343.328 1875.85,348.334 1900.42,365.582 1904.61,383.982 1901.83,396.837 1880.4,407.875 1864.99,430.535 1848.47,457.113 1838.58,489.174 1840.59,509.333 1805.81,514.382 1782.18,529.028 1749.54,535.72 1719.48,552.641 1701.46,578.056 1681.37,595.388 1654.15,591.281 1631.52,579.006 1604.36,569.342 1589.83,557.822 1563.07,541.291 1555.45,534.023 1561.74,512.034 1585.89,503.077 1620.54,498.221 1649.17,501.286 1684.55,509.431 1714.45,523.338 1722.88,544.448 1737.01,565.226 1753.05,569.8 1778.91,574.568 1802.43,584.503 1812.94,587.827 1837.78,579.598 1863.15,572.265 1882.19,562.649 1902.54,565.002 1921.99,579.903 1921.87,597.401 1922.16,617.584 1908.68,649.821 1887.86,676.142 1864.02,696.262 1840.93,726.284 1838.02,750.799 1802.95,763.147 1774.73,769.296 1747.24,783.044 1721.2,796.386 1704.48,816.199 1686.98,836.516 1660.9,860.073 1634.61,868.851 1607.8,861.36 1583.47,854.274 1552.14,851.203 1523.55,842.942 1504.29,821.313 1489.27,800.97 1458.96,778.271 1442.19,759.203 1416.58,741.948 1392.33,738.287 1361.1,743.592 1342.2,741.864 1316,734.357 1312.19,708.815 1295.32,700.081 1270.22,703.349 1252.09,712.48 1227.81,728.876 1222.08,735.238 1191.65,739.876 1168.32,744.587 1142.55,737.178 1121.05,720.868 1098.43,707.546 1064.13,702.58 1031.46,693.382 1008.3,688.609 986.88,677.817 966.316,657.132 966.504,643.921 976.643,624.419 992.36,604.457 1003.08,580.742 1009.98,550.646 1016.23,526.061 1001.95,505.04 982.806,500.816 971.939,489.315 976.235,476.686 1001.45,476.061 1036.71,479.143 1077.24,477.38 1111.7,473.44 1139.83,455.779 1165.36,431.269 1189.64,411.157 1221.5,403.909 1261.29,405.942 1292.92,418.277 1324.17,433.815 1353.95,446.723 1381.26,458.76 1402.91,472.617 1439.7,479.966 1465.79,494.002 1492.19,516.413 1522.22,544.293 1549.93,559.697 1574.38,570.343 1593.74,581.075 1603.68,572.577 1624.12,561.997 1651.15,548.404 1673.61,538.748 1702.96,527.949 1735.82,526.463 1772.72,535.328 1800.59,560.559 1808.11,581.381 1803.93,612.745 1785.94,644.671 1783.73,672.019 1775.32,705.032 1774.6,739.404 1791.9,769.583 1823.16,794.873 1862.9,794.423 1883.83,795.556 1915.05,802.991 1935.55,825.187 1960.7,850.582 1981.6,881.579 1994.29,913.535 1998.88,937.23 2015.42,920.812 2051.62,924.923 2078.64,930.963 2091.18,946.164 2092.87,950.528 2094.33,955.552 2097.57,971.616 2100.46,977.43 2113.74,981.299 2129.99,983.3 2159.63,976.898 2186.22,986.901 2200.64,999.439 2215.01,1021.21 2216.37,1034.14 2218.82,1022.79 2223.63,1005.62 2223.64,977.829 2213.92,951.095 2197.56,927.87 2185.55,904.809 2186.14,884.564 2158.98,861.858 2152.19,831.404 2157.23,805.997 2174.46,795.214 2195.87,796.734 2219.96,805.35 2235.84,818.805 2247.23,837.854 2274.81,861.186 2288.63,882.417 2280.24,909.101 2261.01,931.145 2243.48,951.092 2213.12,963.895 2193.43,982.499 2166.53,996.087 2138.93,1018.65 2118.94,1039.96 2108.71,1063.45 2090.66,1086.94 2072.79,1109.12 2047.5,1125.28 2020.8,1136.85 1989.47,1152.48 1963.05,1171.14 1933.66,1179.71 1904.64,1199.36 1889.48,1217.2 1857.09,1228.81 1837.83,1243.27 1819.94,1263.2 1802.41,1290.98 1793.91,1311.79 1789.23,1331.98 1782.22,1356.53 1805.63,1377.78 1814.35,1391.58 1807.95,1414.71 1799.41,1441.45 1781.17,1445.72 1757.9,1442.96 1735.17,1425.48 1723.48,1399.29 1709.36,1377.89 1685.51,1354.89 1645.48,1329.04 1614.54,1320.41 1579.72,1318.65 1542.67,1326.78 1500.7,1336.97 1472.96,1337.4 1438.71,1325.47 1413.35,1313.86 1392.67,1289.57 1390.92,1255.86 1386.61,1215.91 1366.05,1188.92 1343.6,1167.39 1348.91,1136.46 1346.46,1109.44 1338.82,1083.75 1327.07,1056.15 1309.42,1032.27 1302.99,1005.05 1309.08,971.526 1317.49,938.69 1336.33,909.224 1353.99,878.011 1367.1,845.537 1393.14,824.251 1388.33,796.64 1372.98,771.979 1342.66,749.569 1309.81,746.659 1289.94,733.87 1280.77,708.235 1276.57,675.254 1289.72,647.706 1304.71,626.133 1326.47,616.917 1358.62,606.143 1394.89,599.828 1434.98,595.827 1473.52,596.806 1502.42,589.3 1526.45,563.281 1544.46,541.411 1572.8,528.6 1594.5,522.478 1598.59,508.414 1584.53,493.603 1563.04,478.39 1536.43,466.685 1507.65,440.005 1484.18,414.468 1471.32,388.673 1454.06,367.057 1450.67,349.493 1457.58,327.89 1474.93,318.179 1493.49,328.013 1523.85,333.215 1561.57,334.827 1597.2,343.266 1637.83,350.423 1672.44,354.21 1703.13,368.182 1727.34,374.48 1754.24,367.588 1777.44,355.869 1808.44,351.061 1840.29,351.608 1871.37,345.692 1894.91,359.838 1906.69,375.939 1911.56,371.888 1922.15,355.116 1939.45,337.697 1957.35,326.985 1981.21,312.02 2001.59,304.763 1992.1,304.238 1969.3,292.581 1959.43,276.271 1947.95,246.993 1951.29,217.79 1962.26,201.577 1990.83,190.98 2024.04,193.321 2049.39,197.948 2083.53,202.449 2119.67,214.973 2142.62,236.696 2148.23,265.393 2140.7,292.503 2130.56,301.313 2133.25,317.844 2137.32,340.641 2132.64,372.422 2103.96,389.181 2083.74,423.474 2056.8,446.189 2034.12,471.313 2026.48,506.088 2001.29,514.303 1965.94,516.082 1929.81,528.366 1897.95,542.128 1881.53,569.135 1870.5,599.1 1869.85,616.059 1895.75,621.368 1926.09,633.945 1962.41,649.079 1996.7,672.947 2025.01,688.098 2063.42,694.431 2099.39,693.808 2138.1,689.808 2167.42,693.959 2194.62,694.038 2205.38,679.718 2218.9,659.59 2234.01,639.082 2233.05,614.065 2228.84,595.504 2219.94,571.733 2193.13,550.969 2172.27,531.563 2147.38,516.428 2105.41,517.322 2079.2,524.289 2054.99,541.523 2038.11,561.308 2011.98,585.936 2006.81,615.367 2012.62,646.719 2016.51,676.453 2033.77,703.691 2046.14,729.495 2059.9,762.965 2074.19,792.913 2105.93,805.426 2136.56,822.883 2163.84,851.348 2183.08,874.572 2197.79,905.634 2205.79,930.962 2202.54,942.959 2170.18,945.475 2133.94,957.931 2105.61,956.947 2089.82,962.891 2070.44,967.27 2048.4,962.84 2017.15,949.347 1986.2,941.313 1949.91,943.879 1905.09,956.474 1866.72,970.622 1828.39,971.096 1784.5,978.67 1747.19,979.67 1708.49,980.477 1676.08,975.241 1641.22,978.51 1608.63,973.5 1575.55,967.048 1540.17,936.444 1511.79,921.631 1473.74,912.68 1440.72,897.578 1410.57,882.147 1379.48,860.473 1353.37,852.359 1327.14,865.658 1302.31,882.265 1273.25,898.54 1235.05,917.715 1196.39,925.395 1166.75,920.246 1137.98,896.974 1120.64,872.698 1103.13,842.536 1077.68,817.202 1065.46,786.614 1061.08,758.695 1063.72,735.5 1051,705.27 1028.08,688.556 999.508,676.731 979.57,654.986 970.445,624.361 968.469,600.752 956.67,573.07 965.962,546.054 987.244,519.067 999.012,502.26 1012.08,496.51 1021.73,481.915 1027.13,464.868 1033.55,441.825 1040.41,417.664 1046.08,389.736 1057.48,355.978 1057.79,332.597 1036.91,313.067 1016.73,298.832 988.801,299.381 962.113,308.081 934.491,304.729 902.963,289.92 864.652,276.652 840.979,269.547 817.626,264.972 803.066,247.931 801.487,226.961 816.255,208.251 839.179,188.861 862.862,171.586 905.694,160.03 935.574,148.349 969.813,141.533 1000.19,152.543 1028.74,159.251 1063.21,155.601 1097.1,149.653 1117.35,129.368 1132.85,109.484 1146.33,88.5661 "/>
<polyline clip-path="url(#clip762)" style="stroke:#ff0000; stroke-linecap:round; stroke-linejoin:round; stroke-width:4; stroke-opacity:1; fill:none" points="204.789,717.385 235.73,723.785 238.39,714.886 259.908,716.191 263.348,716.892 290.85,722.591 308.033,726.148 337.312,725.902 362.271,727.92 393.227,734.32 419.962,730.406 441.481,731.699 484.533,734.308 496.528,743.096 521.501,745.102 564.567,747.711 582.661,748.302 602.446,755.551 636.884,762.665 656.683,769.914 679.936,777.878 704.057,782.862 735.07,789.275 754.017,799.502 782.472,802.235 816.102,812.352 832.49,806.272 874.762,811.859 892.87,825.078 920.473,830.789 954.146,840.906 974.002,848.167 1001.63,853.878 1016.32,866.395 1034.48,879.626 1037.94,880.34 1070.76,880.808 1084.57,883.675 1109.63,885.694 1137.29,891.417 1162.4,906.1 1189.22,914.802 1207.37,915.405 1235.9,918.15 1272.22,919.331 1297.29,921.362 1331.9,928.525 1356.15,933.547 1381.23,935.565 1406.31,937.596 1443.48,935.811 1461.65,936.402 1491.05,936.168 1517.82,932.217 1548.9,926.014 1576.61,931.737 1603.38,927.799 1628.48,929.83 1646.52,917.768 1664.68,918.359 1681.87,909.288 1701.7,903.909 1725.96,908.931 1749.24,904.266 1770.05,908.562 1787.38,912.143 1810.84,920.143 1829.18,933.399 1851.81,944.39 1864.05,953.239 1880.75,972.488 1888.7,983.615 1895.83,997.732 1908.26,1019.28 1922.35,1034.85 1935.61,1053.42 1945.22,1058.58 1969.56,1063.63 1979.99,1065.78 1987.78,1064.22 2016.23,1054.27 2027.47,1053.42 2049.55,1026.35 2055.49,1018.08 2054.25,995.689 2058.32,980.735 2057.09,958.371 2037.89,948.094 2020.52,944.501 1997.86,933.51 1970.27,940.439 1949.44,936.144 1932.91,929.571 1915.57,925.99 1890.45,923.959 1872.46,936.033 1849.16,940.685 1836.29,947.504 1807.7,944.747 1782.58,942.728 1754.83,936.993 1736.51,923.737 1713.07,915.737 1677.43,898.9 1656.5,881.965 1635.59,865.029 1624.23,853.238 1612.89,841.435 1591.15,827.503 1578.03,809.053 1567.52,794.309 1561.32,777.299 1565.5,762.444 1584.33,747.465 1594.58,737.003 1617.82,732.376 1631.63,735.219 1660.96,734.985 1674.92,750.419 1695.67,754.702 1706.05,756.831 1733.72,762.542 1755.46,776.438 1760.73,783.81 1783.3,794.752 1802.42,804.992 1826.66,809.989 1845.62,807.601 1867.23,808.906 1892.11,798.309 1910.25,798.912 1924.11,801.767 1945.9,815.687 1960.77,828.192 1974.84,843.675 1981.96,857.731 1990.93,878.482 1999.91,899.245 2002.76,915.602 2000.5,937.214 2003.16,940.919 2009.49,958.015 2025.43,980.255 2028.29,996.649 2043.21,1009.21 2053.64,1011.38 2067.54,1014.25 2088.2,1005.87 2104.54,999.763 2113.93,992.218 2131.91,980.132 2137.01,974.876 2136.55,949.522 2121.62,936.968 2104.03,920.722 2093.41,905.928 2069.93,897.928 2041.34,895.183 2017.05,890.174 2006.64,888.02 1978.07,885.288 1960.73,881.706 1943.2,865.485 1929.33,862.629 1901.59,856.906 1889.55,860.721 1862.82,864.66 1844.49,851.429 1823.7,847.146 1804.72,849.521 1777.02,843.81 1763.98,837.977 1746.67,834.395 1720.77,835.355 1690.58,838.58 1666.48,846.198 1657.76,838.1 1657.62,825.472 1649.87,827.023 1638.66,827.86 1623.97,827.983 1617.05,826.555 1599.87,835.601 1586.99,842.395 1554.17,841.927 1538.65,845.017 1529.21,852.524 1522.41,863.737 1537.93,860.635 1556.9,858.248 1587.95,852.044 1597.24,831.909 1611.79,819.17 1615.95,804.29 1606.28,786.567 1589.71,767.428 1580.99,759.342 1569.55,734.997 1549.65,727.748 1527.36,742.013 1505.8,740.708 1474.7,734.296 1476.28,715.772 1470.94,695.846 1473.36,674.381 1477.53,659.563 1495.41,635.046 1500.42,617.285 1503.66,592.916 1484.66,582.75 1461.36,574.836 1454.47,573.42 1466.38,557.113 1491.23,546.589 1530.8,548.473 1568.46,531.229 1587.24,516.349 1605.04,491.931 1617.73,472.718 1638.25,464.46 1666.64,467.167 1690.74,472.103 1710.73,491.783 1740.08,504.041 1757.48,520.091 1766.32,540.632 1754.49,556.928 1734.92,574.774 1705.81,587.55 1671.46,593.002 1649.93,591.71 1611.02,574.331 1589.39,560.51 1580.59,539.956 1579.52,517.888 1598.28,503.02 1611.92,493.346 1638.38,476.952 1662.36,469.407 1685.36,452.312 1706.7,441.124 1724.73,441.702 1751.15,425.333 1751.01,412.865 1763.64,393.69 1775.6,389.923 1795.94,369.234 1784.63,357.603 1758.75,346.095 1774.98,340.114 1805.76,333.997 1832.46,342.551 1853.92,343.843 1881.43,349.468 1904.89,369.788 1904.25,385.185 1900.99,396.939 1875.44,410.354 1861.19,435.425 1846.11,463.463 1837.09,495.881 1840.72,509.1 1799.51,513.112 1779.97,530.946 1745.64,536.386 1714.9,555.045 1700.57,580.227 1681.81,595.131 1654.21,589.458 1631.72,578.59 1601.52,569.248 1590.21,557.556 1559.08,538.663 1556.47,535.008 1563.96,508.448 1591.38,501.604 1629.15,496.878 1653.25,501.826 1691.16,509.605 1716.26,524.115 1721.65,543.943 1737.39,565.913 1751.19,568.743 1782.25,575.119 1804.75,585.999 1811.66,587.414 1843.38,578.307 1867.37,570.737 1884.44,561.753 1905.15,565.999 1926.05,582.774 1921.15,600.522 1922.33,622.652 1904.79,659.735 1884.41,680.597 1861.37,697.803 1837.69,730.566 1839.67,749.804 1799.3,763.477 1776.06,768.118 1746.06,783.933 1720.32,797.496 1704.14,816.192 1687.11,837.866 1658.04,863.368 1634.75,868.02 1607.89,859.318 1583.65,854.309 1548.19,850.149 1521.35,841.447 1502.14,818.592 1489.05,800.142 1452.59,773.742 1442.13,759.01 1414.41,740.72 1392.83,739.416 1358.39,744.88 1344.58,742.025 1314.34,732.659 1311.6,703.809 1294.34,700.252 1267.65,704.178 1250.47,713.2 1222.98,732.671 1222.13,735.637 1184.22,740.388 1164.41,745.742 1137.65,737.065 1117.78,717.249 1095.34,706.332 1056.57,701.483 1026.4,692.117 1009.18,688.56 986.778,677.655 964.363,654.209 966.95,645.323 977.254,622.356 994.437,600.818 1004.73,577.888 1010.7,544.694 1016.68,524.042 1000.33,505.051 983.15,501.518 971.979,489.851 976.257,475.118 1008.89,475.573 1047.53,480.398 1088.74,476.386 1115.34,472.484 1142.76,453.161 1168.41,427.265 1191.5,410.194 1222.36,404.077 1265.26,406.65 1294.5,418.871 1326.34,434.748 1355.6,446.982 1381.44,458.515 1403,472.3 1444.29,480.767 1465.87,494.564 1495.29,519.328 1527.35,547.771 1549.81,558.626 1572.28,569.494 1591.3,579.661 1600.69,572.202 1625.52,561.679 1655.46,545.962 1676,537.691 1708.53,525.642 1741.21,526.109 1778.32,536.842 1803.61,563.894 1806.4,580.079 1803.44,616.99 1783.2,650.393 1784.35,672.547 1774.45,708.142 1775.75,742.923 1793.36,771.687 1826.5,797.373 1864.41,792.61 1878.27,795.465 1916.36,803.306 1935.7,826.161 1964.63,854.161 1985.01,886.715 1995,917.153 1997.86,933.51 2012.35,920.734 2054.83,926.347 2079.13,931.356 2089.77,946.174 2092.43,949.879 2094.28,956.575 2099.81,976.661 2102.47,980.378 2119.86,983.959 2138.04,984.562 2169.92,975.344 2195.3,990.064 2203.3,1001.2 2218.51,1026.47 2216.07,1035.46 2220.13,1020.48 2225.79,999.516 2222.63,970.445 2210.92,945.928 2194.92,923.713 2185.89,902.937 2187.28,884.315 2153.95,858.555 2151.65,826.616 2157.32,805.779 2174.43,796.733 2196.03,798.05 2222.97,806.727 2237.9,819.232 2250.4,840.672 2280.29,865.706 2290.15,883.479 2278.63,912.599 2258.28,933.62 2242.19,952.39 2209.53,964.587 2193.43,983.369 2164.24,996.292 2135.25,1021.92 2119.12,1040.72 2109.12,1063.98 2087.86,1088.1 2070.88,1109.94 2044.28,1126.64 2019.29,1137.34 1984.86,1155.6 1961.7,1173.04 1934.02,1180.02 1902.21,1202.04 1891.12,1215.65 1853.97,1230.23 1839.38,1243.12 1818.8,1264.34 1799.2,1295.35 1795.05,1310.44 1789.23,1331.58 1781.74,1358.78 1809,1380.44 1813.49,1390.98 1806.01,1418.22 1798.51,1445.49 1780.21,1444.87 1754.91,1442.82 1731.13,1421.85 1720.37,1393.98 1707.09,1375.22 1680.7,1350.55 1636.91,1322.25 1615.14,1320.92 1578.61,1319.72 1539.55,1327.56 1496.15,1337.71 1477.88,1337.09 1436.91,1325.38 1414.22,1314.25 1392.31,1287.33 1391.2,1252 1384.82,1209.23 1364.72,1189.13 1344.63,1169.03 1350.5,1135.26 1346.87,1109.08 1338.93,1085.2 1325.73,1053.9 1306.55,1030.9 1302.94,1004.8 1309.66,968.193 1318.98,935.331 1337.83,907.639 1354.06,876.266 1366.8,844.204 1394.29,824.672 1387.21,798.013 1372.37,772.918 1339.43,747.256 1310.12,747.502 1291.94,734.32 1281.45,707.022 1276.96,671.563 1291.47,646.332 1304.26,627.033 1324.86,618.738 1361.79,604.411 1399.61,599.673 1440.88,595.648 1477.03,596.83 1501.05,589.248 1527.46,560.288 1543.64,541.74 1572.74,528.989 1592.47,523.672 1596.62,508.915 1582.71,493.592 1558.49,476.152 1532.62,464.607 1501.44,433.284 1482.36,410.699 1471.02,386.6 1454.57,367.683 1451.87,351.597 1458.53,328.114 1475.6,319.203 1494.54,329.283 1529.72,333.381 1572.6,335.941 1602.7,345.209 1644.77,350.711 1673.1,353.406 1705,369.259 1725.64,373.48 1753.01,366.662 1777.76,356.2 1811.99,350.785 1844.58,351.24 1875.36,345.123 1896.19,361.8 1906.69,376.36 1911.77,371.191 1924.35,352.04 1943.81,334.305 1960.83,325.381 1987.15,309.061 2003.33,303.067 1992.21,303.892 1963.69,288.778 1957.44,272.027 1944.93,238.538 1952.25,212.199 1962.35,201.91 1994.69,189.971 2029.84,194.045 2050.45,198.254 2089.05,203.03 2125.24,216.58 2144.47,239.042 2147.56,267.51 2140.32,293.873 2131.84,298.341 2133.89,317.344 2137.78,342.932 2131.55,378.883 2099.15,390.883 2080.95,430.662 2054.61,447.032 2032.7,473.666 2026.41,509.765 2004.09,511.414 1962.88,515.438 1926.13,529.728 1897.07,542.491 1882,570.614 1869.52,602.43 1870.52,612.005 1897.33,620.645 1929.43,636.621 1969.27,651.07 2002.42,676.671 2025.01,687.575 2067.34,693.138 2100.1,693.606 2141.42,689.569 2165.64,694.554 2191.5,693.594 2202.45,680.191 2219.29,658.615 2236.1,637.039 2232.16,611.23 2229.26,595.021 2218.41,567.82 2187.88,545.962 2170.38,529.912 2145.18,515.389 2097.07,517.998 2080.82,524.029 2053.63,543.402 2037.6,561.95 2007.93,590.208 2007.53,618.258 2013.2,650.701 2016.25,679.514 2034.78,705.249 2046.39,729.582 2061.68,767.256 2075.97,795.318 2106.35,804.721 2137.78,823.761 2165.99,854.74 2182.75,873.94 2198.97,908.783 2204.53,928.845 2202.1,937.805 2167.59,943.307 2126.36,960.045 2105.51,955.738 2092.65,962.556 2069.35,967.221 2045.04,962.199 2009.29,945.337 1981.51,939.602 1943.52,944.39 1895.28,959.688 1862.57,971.885 1826.2,970.692 1779.59,980.021 1746.7,979.541 1706.03,980.624 1678.27,974.889 1640.25,979.664 1609.03,973.215 1574.35,966.039 1533.36,929.116 1513.4,921.83 1471.84,913.239 1439.74,897.128 1411.11,881.743 1377.27,858.974 1356.5,854.691 1327.22,867.565 1300.54,884.131 1270.38,900.008 1228.14,919.7 1193.58,925.19 1169.36,920.18 1136.44,894.408 1120.82,872.229 1100.87,839.7 1074.92,815.416 1065.37,785.078 1061.86,759.17 1064.4,737.668 1048.82,703.022 1027.26,689.151 997.963,676.831 979.003,654.086 970.375,620.941 968.626,601.778 955.721,570.922 966.878,545.051 990.044,515.426 996.908,504.337 1009.77,497.617 1021.78,481.346 1026.9,463.672 1034.58,437.185 1041.41,413.653 1046.49,383.548 1060.14,349.025 1057.53,332.938 1034.37,312.655 1016.36,299.646 987.24,299.892 958.987,309.627 931.586,304.015 896.483,287.498 857.116,273.221 843.43,270.415 819.469,265.504 803.239,246.661 802.43,224.79 818.703,206.427 842.664,186.549 865.758,169.614 916.181,158.266 937.54,147.177 971.704,141.786 1000.77,153.921 1028.12,159.509 1065.71,154.82 1099.88,149.441 1116.9,128.198 1133.07,109.884 1146.66,87.9763 "/>
<path clip-path="url(#clip760)" d="M214.252 1438.47 L760.776 1438.47 L760.776 1282.95 L214.252 1282.95  Z" fill="#ffffff" fill-rule="evenodd" fill-opacity="1"/>
<polyline clip-path="url(#clip760)" style="stroke:#000000; stroke-linecap:round; stroke-linejoin:round; stroke-width:4; stroke-opacity:1; fill:none" points="214.252,1438.47 760.776,1438.47 760.776,1282.95 214.252,1282.95 214.252,1438.47 "/>
<polyline clip-path="url(#clip760)" style="stroke:#0000ff; stroke-linecap:round; stroke-linejoin:round; stroke-width:4; stroke-opacity:1; fill:none" points="238.832,1334.79 386.315,1334.79 "/>
<path clip-path="url(#clip760)" d="M434.924 1338.05 L434.924 1340.13 L415.34 1340.13 Q415.618 1344.53 417.979 1346.84 Q420.363 1349.13 424.6 1349.13 Q427.053 1349.13 429.345 1348.53 Q431.66 1347.93 433.928 1346.73 L433.928 1350.75 Q431.637 1351.73 429.229 1352.24 Q426.822 1352.75 424.345 1352.75 Q418.141 1352.75 414.507 1349.13 Q410.896 1345.52 410.896 1339.37 Q410.896 1333 414.322 1329.27 Q417.771 1325.52 423.604 1325.52 Q428.836 1325.52 431.868 1328.9 Q434.924 1332.26 434.924 1338.05 M430.664 1336.8 Q430.618 1333.3 428.697 1331.22 Q426.799 1329.13 423.65 1329.13 Q420.086 1329.13 417.933 1331.15 Q415.803 1333.16 415.479 1336.82 L430.664 1336.8 Z" fill="#000000" fill-rule="nonzero" fill-opacity="1" /><path clip-path="url(#clip760)" d="M458.442 1326.91 L458.442 1330.94 Q456.636 1330.01 454.692 1329.55 Q452.748 1329.09 450.664 1329.09 Q447.493 1329.09 445.896 1330.06 Q444.322 1331.03 444.322 1332.98 Q444.322 1334.46 445.456 1335.32 Q446.59 1336.15 450.016 1336.91 L451.474 1337.24 Q456.011 1338.21 457.91 1339.99 Q459.831 1341.75 459.831 1344.92 Q459.831 1348.53 456.96 1350.64 Q454.113 1352.75 449.113 1352.75 Q447.03 1352.75 444.761 1352.33 Q442.516 1351.94 440.016 1351.13 L440.016 1346.73 Q442.377 1347.95 444.669 1348.58 Q446.961 1349.18 449.206 1349.18 Q452.215 1349.18 453.836 1348.16 Q455.456 1347.12 455.456 1345.25 Q455.456 1343.51 454.275 1342.58 Q453.118 1341.66 449.16 1340.8 L447.678 1340.45 Q443.72 1339.62 441.961 1337.91 Q440.201 1336.17 440.201 1333.16 Q440.201 1329.51 442.794 1327.51 Q445.386 1325.52 450.155 1325.52 Q452.516 1325.52 454.599 1325.87 Q456.683 1326.22 458.442 1326.91 Z" fill="#000000" fill-rule="nonzero" fill-opacity="1" /><path clip-path="url(#clip760)" d="M470.826 1318.79 L470.826 1326.15 L479.599 1326.15 L479.599 1329.46 L470.826 1329.46 L470.826 1343.53 Q470.826 1346.7 471.683 1347.61 Q472.562 1348.51 475.224 1348.51 L479.599 1348.51 L479.599 1352.07 L475.224 1352.07 Q470.294 1352.07 468.419 1350.25 Q466.544 1348.39 466.544 1343.53 L466.544 1329.46 L463.419 1329.46 L463.419 1326.15 L466.544 1326.15 L466.544 1318.79 L470.826 1318.79 Z" fill="#000000" fill-rule="nonzero" fill-opacity="1" /><path clip-path="url(#clip760)" d="M485.201 1326.15 L489.46 1326.15 L489.46 1352.07 L485.201 1352.07 L485.201 1326.15 M485.201 1316.06 L489.46 1316.06 L489.46 1321.45 L485.201 1321.45 L485.201 1316.06 Z" fill="#000000" fill-rule="nonzero" fill-opacity="1" /><path clip-path="url(#clip760)" d="M518.557 1331.13 Q520.155 1328.26 522.377 1326.89 Q524.599 1325.52 527.608 1325.52 Q531.659 1325.52 533.858 1328.37 Q536.057 1331.19 536.057 1336.43 L536.057 1352.07 L531.775 1352.07 L531.775 1336.57 Q531.775 1332.84 530.455 1331.03 Q529.136 1329.23 526.428 1329.23 Q523.118 1329.23 521.196 1331.43 Q519.275 1333.63 519.275 1337.42 L519.275 1352.07 L514.993 1352.07 L514.993 1336.57 Q514.993 1332.82 513.673 1331.03 Q512.354 1329.23 509.599 1329.23 Q506.335 1329.23 504.414 1331.45 Q502.493 1333.65 502.493 1337.42 L502.493 1352.07 L498.21 1352.07 L498.21 1326.15 L502.493 1326.15 L502.493 1330.18 Q503.951 1327.79 505.988 1326.66 Q508.025 1325.52 510.826 1325.52 Q513.65 1325.52 515.618 1326.96 Q517.608 1328.39 518.557 1331.13 Z" fill="#000000" fill-rule="nonzero" fill-opacity="1" /><path clip-path="url(#clip760)" d="M556.335 1339.04 Q551.173 1339.04 549.182 1340.22 Q547.191 1341.4 547.191 1344.25 Q547.191 1346.52 548.673 1347.86 Q550.178 1349.18 552.747 1349.18 Q556.289 1349.18 558.418 1346.68 Q560.571 1344.16 560.571 1339.99 L560.571 1339.04 L556.335 1339.04 M564.83 1337.28 L564.83 1352.07 L560.571 1352.07 L560.571 1348.14 Q559.113 1350.5 556.937 1351.63 Q554.761 1352.75 551.613 1352.75 Q547.631 1352.75 545.27 1350.52 Q542.932 1348.28 542.932 1344.53 Q542.932 1340.15 545.849 1337.93 Q548.789 1335.71 554.599 1335.71 L560.571 1335.71 L560.571 1335.29 Q560.571 1332.35 558.627 1330.76 Q556.705 1329.13 553.21 1329.13 Q550.988 1329.13 548.881 1329.67 Q546.775 1330.2 544.83 1331.26 L544.83 1327.33 Q547.168 1326.43 549.367 1325.99 Q551.566 1325.52 553.65 1325.52 Q559.275 1325.52 562.053 1328.44 Q564.83 1331.36 564.83 1337.28 Z" fill="#000000" fill-rule="nonzero" fill-opacity="1" /><path clip-path="url(#clip760)" d="M577.816 1318.79 L577.816 1326.15 L586.589 1326.15 L586.589 1329.46 L577.816 1329.46 L577.816 1343.53 Q577.816 1346.7 578.673 1347.61 Q579.552 1348.51 582.214 1348.51 L586.589 1348.51 L586.589 1352.07 L582.214 1352.07 Q577.284 1352.07 575.409 1350.25 Q573.534 1348.39 573.534 1343.53 L573.534 1329.46 L570.409 1329.46 L570.409 1326.15 L573.534 1326.15 L573.534 1318.79 L577.816 1318.79 Z" fill="#000000" fill-rule="nonzero" fill-opacity="1" /><path clip-path="url(#clip760)" d="M614.367 1338.05 L614.367 1340.13 L594.784 1340.13 Q595.062 1344.53 597.423 1346.84 Q599.807 1349.13 604.043 1349.13 Q606.497 1349.13 608.788 1348.53 Q611.103 1347.93 613.372 1346.73 L613.372 1350.75 Q611.08 1351.73 608.673 1352.24 Q606.265 1352.75 603.788 1352.75 Q597.585 1352.75 593.95 1349.13 Q590.339 1345.52 590.339 1339.37 Q590.339 1333 593.765 1329.27 Q597.214 1325.52 603.048 1325.52 Q608.279 1325.52 611.312 1328.9 Q614.367 1332.26 614.367 1338.05 M610.108 1336.8 Q610.062 1333.3 608.14 1331.22 Q606.242 1329.13 603.094 1329.13 Q599.529 1329.13 597.376 1331.15 Q595.247 1333.16 594.923 1336.82 L610.108 1336.8 Z" fill="#000000" fill-rule="nonzero" fill-opacity="1" /><polyline clip-path="url(#clip760)" style="stroke:#ff0000; stroke-linecap:round; stroke-linejoin:round; stroke-width:4; stroke-opacity:1; fill:none" points="238.832,1386.63 386.315,1386.63 "/>
<path clip-path="url(#clip760)" d="M431.243 1382.97 Q432.84 1380.1 435.062 1378.73 Q437.285 1377.36 440.294 1377.36 Q444.345 1377.36 446.544 1380.21 Q448.743 1383.03 448.743 1388.27 L448.743 1403.91 L444.461 1403.91 L444.461 1388.41 Q444.461 1384.68 443.141 1382.87 Q441.822 1381.07 439.113 1381.07 Q435.803 1381.07 433.882 1383.27 Q431.961 1385.47 431.961 1389.26 L431.961 1403.91 L427.678 1403.91 L427.678 1388.41 Q427.678 1384.66 426.359 1382.87 Q425.039 1381.07 422.285 1381.07 Q419.021 1381.07 417.1 1383.29 Q415.178 1385.49 415.178 1389.26 L415.178 1403.91 L410.896 1403.91 L410.896 1377.99 L415.178 1377.99 L415.178 1382.02 Q416.637 1379.63 418.674 1378.5 Q420.711 1377.36 423.512 1377.36 Q426.336 1377.36 428.303 1378.8 Q430.294 1380.23 431.243 1382.97 Z" fill="#000000" fill-rule="nonzero" fill-opacity="1" /><path clip-path="url(#clip760)" d="M479.414 1389.89 L479.414 1391.97 L459.831 1391.97 Q460.109 1396.37 462.47 1398.68 Q464.854 1400.97 469.09 1400.97 Q471.544 1400.97 473.835 1400.37 Q476.15 1399.77 478.419 1398.57 L478.419 1402.59 Q476.127 1403.57 473.72 1404.08 Q471.312 1404.59 468.835 1404.59 Q462.632 1404.59 458.998 1400.97 Q455.386 1397.36 455.386 1391.21 Q455.386 1384.84 458.812 1381.11 Q462.261 1377.36 468.095 1377.36 Q473.326 1377.36 476.359 1380.74 Q479.414 1384.1 479.414 1389.89 M475.155 1388.64 Q475.109 1385.14 473.187 1383.06 Q471.289 1380.97 468.141 1380.97 Q464.576 1380.97 462.423 1382.99 Q460.294 1385 459.97 1388.66 L475.155 1388.64 Z" fill="#000000" fill-rule="nonzero" fill-opacity="1" /><path clip-path="url(#clip760)" d="M498.187 1390.88 Q493.025 1390.88 491.034 1392.06 Q489.044 1393.24 489.044 1396.09 Q489.044 1398.36 490.525 1399.7 Q492.03 1401.02 494.599 1401.02 Q498.141 1401.02 500.27 1398.52 Q502.423 1396 502.423 1391.83 L502.423 1390.88 L498.187 1390.88 M506.682 1389.12 L506.682 1403.91 L502.423 1403.91 L502.423 1399.98 Q500.965 1402.34 498.789 1403.47 Q496.613 1404.59 493.465 1404.59 Q489.483 1404.59 487.122 1402.36 Q484.784 1400.12 484.784 1396.37 Q484.784 1391.99 487.701 1389.77 Q490.641 1387.55 496.451 1387.55 L502.423 1387.55 L502.423 1387.13 Q502.423 1384.19 500.479 1382.6 Q498.557 1380.97 495.062 1380.97 Q492.84 1380.97 490.733 1381.51 Q488.627 1382.04 486.683 1383.1 L486.683 1379.17 Q489.021 1378.27 491.22 1377.83 Q493.419 1377.36 495.502 1377.36 Q501.127 1377.36 503.905 1380.28 Q506.682 1383.2 506.682 1389.12 Z" fill="#000000" fill-rule="nonzero" fill-opacity="1" /><path clip-path="url(#clip760)" d="M531.983 1378.75 L531.983 1382.78 Q530.178 1381.85 528.233 1381.39 Q526.289 1380.93 524.206 1380.93 Q521.034 1380.93 519.437 1381.9 Q517.863 1382.87 517.863 1384.82 Q517.863 1386.3 518.997 1387.16 Q520.131 1387.99 523.557 1388.75 L525.016 1389.08 Q529.553 1390.05 531.451 1391.83 Q533.372 1393.59 533.372 1396.76 Q533.372 1400.37 530.502 1402.48 Q527.655 1404.59 522.655 1404.59 Q520.571 1404.59 518.303 1404.17 Q516.057 1403.78 513.557 1402.97 L513.557 1398.57 Q515.919 1399.79 518.21 1400.42 Q520.502 1401.02 522.747 1401.02 Q525.756 1401.02 527.377 1400 Q528.997 1398.96 528.997 1397.09 Q528.997 1395.35 527.817 1394.42 Q526.659 1393.5 522.701 1392.64 L521.219 1392.29 Q517.261 1391.46 515.502 1389.75 Q513.743 1388.01 513.743 1385 Q513.743 1381.35 516.335 1379.35 Q518.928 1377.36 523.696 1377.36 Q526.057 1377.36 528.141 1377.71 Q530.224 1378.06 531.983 1378.75 Z" fill="#000000" fill-rule="nonzero" fill-opacity="1" /><path clip-path="url(#clip760)" d="M539.715 1393.68 L539.715 1377.99 L543.974 1377.99 L543.974 1393.52 Q543.974 1397.2 545.409 1399.05 Q546.844 1400.88 549.715 1400.88 Q553.164 1400.88 555.154 1398.68 Q557.168 1396.48 557.168 1392.69 L557.168 1377.99 L561.428 1377.99 L561.428 1403.91 L557.168 1403.91 L557.168 1399.93 Q555.617 1402.29 553.557 1403.45 Q551.52 1404.59 548.812 1404.59 Q544.344 1404.59 542.029 1401.81 Q539.715 1399.03 539.715 1393.68 M550.432 1377.36 L550.432 1377.36 Z" fill="#000000" fill-rule="nonzero" fill-opacity="1" /><path clip-path="url(#clip760)" d="M585.224 1381.97 Q584.506 1381.55 583.65 1381.37 Q582.816 1381.16 581.798 1381.16 Q578.187 1381.16 576.242 1383.52 Q574.321 1385.86 574.321 1390.26 L574.321 1403.91 L570.039 1403.91 L570.039 1377.99 L574.321 1377.99 L574.321 1382.02 Q575.664 1379.66 577.816 1378.52 Q579.969 1377.36 583.048 1377.36 Q583.488 1377.36 584.02 1377.43 Q584.552 1377.48 585.201 1377.6 L585.224 1381.97 Z" fill="#000000" fill-rule="nonzero" fill-opacity="1" /><path clip-path="url(#clip760)" d="M610.825 1389.89 L610.825 1391.97 L591.242 1391.97 Q591.52 1396.37 593.881 1398.68 Q596.265 1400.97 600.501 1400.97 Q602.955 1400.97 605.247 1400.37 Q607.562 1399.77 609.83 1398.57 L609.83 1402.59 Q607.538 1403.57 605.131 1404.08 Q602.724 1404.59 600.247 1404.59 Q594.043 1404.59 590.409 1400.97 Q586.798 1397.36 586.798 1391.21 Q586.798 1384.84 590.224 1381.11 Q593.673 1377.36 599.506 1377.36 Q604.737 1377.36 607.77 1380.74 Q610.825 1384.1 610.825 1389.89 M606.566 1388.64 Q606.52 1385.14 604.599 1383.06 Q602.7 1380.97 599.552 1380.97 Q595.988 1380.97 593.835 1382.99 Q591.705 1385 591.381 1388.66 L606.566 1388.64 Z" fill="#000000" fill-rule="nonzero" fill-opacity="1" /><path clip-path="url(#clip760)" d="M638.001 1382.97 Q639.598 1380.1 641.821 1378.73 Q644.043 1377.36 647.052 1377.36 Q651.103 1377.36 653.302 1380.21 Q655.501 1383.03 655.501 1388.27 L655.501 1403.91 L651.219 1403.91 L651.219 1388.41 Q651.219 1384.68 649.899 1382.87 Q648.58 1381.07 645.872 1381.07 Q642.561 1381.07 640.64 1383.27 Q638.719 1385.47 638.719 1389.26 L638.719 1403.91 L634.436 1403.91 L634.436 1388.41 Q634.436 1384.66 633.117 1382.87 Q631.798 1381.07 629.043 1381.07 Q625.779 1381.07 623.858 1383.29 Q621.936 1385.49 621.936 1389.26 L621.936 1403.91 L617.654 1403.91 L617.654 1377.99 L621.936 1377.99 L621.936 1382.02 Q623.395 1379.63 625.432 1378.5 Q627.469 1377.36 630.27 1377.36 Q633.094 1377.36 635.061 1378.8 Q637.052 1380.23 638.001 1382.97 Z" fill="#000000" fill-rule="nonzero" fill-opacity="1" /><path clip-path="url(#clip760)" d="M686.172 1389.89 L686.172 1391.97 L666.589 1391.97 Q666.867 1396.37 669.228 1398.68 Q671.612 1400.97 675.848 1400.97 Q678.302 1400.97 680.594 1400.37 Q682.908 1399.77 685.177 1398.57 L685.177 1402.59 Q682.885 1403.57 680.478 1404.08 Q678.07 1404.59 675.594 1404.59 Q669.39 1404.59 665.756 1400.97 Q662.145 1397.36 662.145 1391.21 Q662.145 1384.84 665.57 1381.11 Q669.02 1377.36 674.853 1377.36 Q680.084 1377.36 683.117 1380.74 Q686.172 1384.1 686.172 1389.89 M681.913 1388.64 Q681.867 1385.14 679.945 1383.06 Q678.047 1380.97 674.899 1380.97 Q671.334 1380.97 669.182 1382.99 Q667.052 1385 666.728 1388.66 L681.913 1388.64 Z" fill="#000000" fill-rule="nonzero" fill-opacity="1" /><path clip-path="url(#clip760)" d="M714.714 1388.27 L714.714 1403.91 L710.455 1403.91 L710.455 1388.41 Q710.455 1384.72 709.019 1382.9 Q707.584 1381.07 704.714 1381.07 Q701.265 1381.07 699.274 1383.27 Q697.283 1385.47 697.283 1389.26 L697.283 1403.91 L693.001 1403.91 L693.001 1377.99 L697.283 1377.99 L697.283 1382.02 Q698.811 1379.68 700.871 1378.52 Q702.955 1377.36 705.663 1377.36 Q710.13 1377.36 712.422 1380.14 Q714.714 1382.9 714.714 1388.27 Z" fill="#000000" fill-rule="nonzero" fill-opacity="1" /><path clip-path="url(#clip760)" d="M727.422 1370.63 L727.422 1377.99 L736.195 1377.99 L736.195 1381.3 L727.422 1381.3 L727.422 1395.37 Q727.422 1398.54 728.278 1399.45 Q729.158 1400.35 731.82 1400.35 L736.195 1400.35 L736.195 1403.91 L731.82 1403.91 Q726.89 1403.91 725.015 1402.09 Q723.14 1400.23 723.14 1395.37 L723.14 1381.3 L720.015 1381.3 L720.015 1377.99 L723.14 1377.99 L723.14 1370.63 L727.422 1370.63 Z" fill="#000000" fill-rule="nonzero" fill-opacity="1" /></svg>
