<?xml version="1.0" encoding="utf-8"?>
<svg xmlns="http://www.w3.org/2000/svg" xmlns:xlink="http://www.w3.org/1999/xlink" width="600" height="400" viewBox="0 0 2400 1600">
<defs>
  <clipPath id="clip340">
    <rect x="0" y="0" width="2400" height="1600"/>
  </clipPath>
</defs>
<path clip-path="url(#clip340)" d="M0 1600 L2400 1600 L2400 0 L0 0  Z" fill="#ffffff" fill-rule="evenodd" fill-opacity="1"/>
<defs>
  <clipPath id="clip341">
    <rect x="480" y="0" width="1681" height="1600"/>
  </clipPath>
</defs>
<path clip-path="url(#clip340)" d="M140.51 1486.45 L2352.76 1486.45 L2352.76 47.2441 L140.51 47.2441  Z" fill="#ffffff" fill-rule="evenodd" fill-opacity="1"/>
<defs>
  <clipPath id="clip342">
    <rect x="140" y="47" width="2213" height="1440"/>
  </clipPath>
</defs>
<polyline clip-path="url(#clip342)" style="stroke:#000000; stroke-linecap:round; stroke-linejoin:round; stroke-width:2; stroke-opacity:0.1; fill:none" points="352.58,1486.45 352.58,47.2441 "/>
<polyline clip-path="url(#clip342)" style="stroke:#000000; stroke-linecap:round; stroke-linejoin:round; stroke-width:2; stroke-opacity:0.1; fill:none" points="786.441,1486.45 786.441,47.2441 "/>
<polyline clip-path="url(#clip342)" style="stroke:#000000; stroke-linecap:round; stroke-linejoin:round; stroke-width:2; stroke-opacity:0.1; fill:none" points="1220.3,1486.45 1220.3,47.2441 "/>
<polyline clip-path="url(#clip342)" style="stroke:#000000; stroke-linecap:round; stroke-linejoin:round; stroke-width:2; stroke-opacity:0.1; fill:none" points="1654.16,1486.45 1654.16,47.2441 "/>
<polyline clip-path="url(#clip342)" style="stroke:#000000; stroke-linecap:round; stroke-linejoin:round; stroke-width:2; stroke-opacity:0.1; fill:none" points="2088.02,1486.45 2088.02,47.2441 "/>
<polyline clip-path="url(#clip342)" style="stroke:#000000; stroke-linecap:round; stroke-linejoin:round; stroke-width:2; stroke-opacity:0.1; fill:none" points="140.51,1180.23 2352.76,1180.23 "/>
<polyline clip-path="url(#clip342)" style="stroke:#000000; stroke-linecap:round; stroke-linejoin:round; stroke-width:2; stroke-opacity:0.1; fill:none" points="140.51,872.483 2352.76,872.483 "/>
<polyline clip-path="url(#clip342)" style="stroke:#000000; stroke-linecap:round; stroke-linejoin:round; stroke-width:2; stroke-opacity:0.1; fill:none" points="140.51,564.737 2352.76,564.737 "/>
<polyline clip-path="url(#clip342)" style="stroke:#000000; stroke-linecap:round; stroke-linejoin:round; stroke-width:2; stroke-opacity:0.1; fill:none" points="140.51,256.991 2352.76,256.991 "/>
<polyline clip-path="url(#clip340)" style="stroke:#000000; stroke-linecap:round; stroke-linejoin:round; stroke-width:4; stroke-opacity:1; fill:none" points="140.51,1486.45 2352.76,1486.45 "/>
<polyline clip-path="url(#clip340)" style="stroke:#000000; stroke-linecap:round; stroke-linejoin:round; stroke-width:4; stroke-opacity:1; fill:none" points="352.58,1486.45 352.58,1467.55 "/>
<polyline clip-path="url(#clip340)" style="stroke:#000000; stroke-linecap:round; stroke-linejoin:round; stroke-width:4; stroke-opacity:1; fill:none" points="786.441,1486.45 786.441,1467.55 "/>
<polyline clip-path="url(#clip340)" style="stroke:#000000; stroke-linecap:round; stroke-linejoin:round; stroke-width:4; stroke-opacity:1; fill:none" points="1220.3,1486.45 1220.3,1467.55 "/>
<polyline clip-path="url(#clip340)" style="stroke:#000000; stroke-linecap:round; stroke-linejoin:round; stroke-width:4; stroke-opacity:1; fill:none" points="1654.16,1486.45 1654.16,1467.55 "/>
<polyline clip-path="url(#clip340)" style="stroke:#000000; stroke-linecap:round; stroke-linejoin:round; stroke-width:4; stroke-opacity:1; fill:none" points="2088.02,1486.45 2088.02,1467.55 "/>
<path clip-path="url(#clip340)" d="M306.642 1532.02 L336.318 1532.02 L336.318 1535.95 L306.642 1535.95 L306.642 1532.02 Z" fill="#000000" fill-rule="nonzero" fill-opacity="1" /><path clip-path="url(#clip340)" d="M360.577 1530.21 Q363.934 1530.93 365.809 1533.2 Q367.707 1535.47 367.707 1538.8 Q367.707 1543.92 364.188 1546.72 Q360.67 1549.52 354.189 1549.52 Q352.013 1549.52 349.698 1549.08 Q347.406 1548.66 344.952 1547.81 L344.952 1543.29 Q346.897 1544.43 349.212 1545.01 Q351.527 1545.58 354.05 1545.58 Q358.448 1545.58 360.739 1543.85 Q363.054 1542.11 363.054 1538.8 Q363.054 1535.75 360.901 1534.03 Q358.772 1532.3 354.952 1532.3 L350.925 1532.3 L350.925 1528.45 L355.138 1528.45 Q358.587 1528.45 360.415 1527.09 Q362.244 1525.7 362.244 1523.11 Q362.244 1520.45 360.346 1519.03 Q358.471 1517.6 354.952 1517.6 Q353.031 1517.6 350.832 1518.01 Q348.633 1518.43 345.994 1519.31 L345.994 1515.14 Q348.656 1514.4 350.971 1514.03 Q353.309 1513.66 355.369 1513.66 Q360.693 1513.66 363.795 1516.09 Q366.897 1518.5 366.897 1522.62 Q366.897 1525.49 365.253 1527.48 Q363.61 1529.45 360.577 1530.21 Z" fill="#000000" fill-rule="nonzero" fill-opacity="1" /><path clip-path="url(#clip340)" d="M386.573 1517.37 Q382.962 1517.37 381.133 1520.93 Q379.327 1524.47 379.327 1531.6 Q379.327 1538.71 381.133 1542.27 Q382.962 1545.82 386.573 1545.82 Q390.207 1545.82 392.012 1542.27 Q393.841 1538.71 393.841 1531.6 Q393.841 1524.47 392.012 1520.93 Q390.207 1517.37 386.573 1517.37 M386.573 1513.66 Q392.383 1513.66 395.438 1518.27 Q398.517 1522.85 398.517 1531.6 Q398.517 1540.33 395.438 1544.94 Q392.383 1549.52 386.573 1549.52 Q380.762 1549.52 377.684 1544.94 Q374.628 1540.33 374.628 1531.6 Q374.628 1522.85 377.684 1518.27 Q380.762 1513.66 386.573 1513.66 Z" fill="#000000" fill-rule="nonzero" fill-opacity="1" /><path clip-path="url(#clip340)" d="M786.441 1517.37 Q782.83 1517.37 781.001 1520.93 Q779.195 1524.47 779.195 1531.6 Q779.195 1538.71 781.001 1542.27 Q782.83 1545.82 786.441 1545.82 Q790.075 1545.82 791.881 1542.27 Q793.709 1538.71 793.709 1531.6 Q793.709 1524.47 791.881 1520.93 Q790.075 1517.37 786.441 1517.37 M786.441 1513.66 Q792.251 1513.66 795.306 1518.27 Q798.385 1522.85 798.385 1531.6 Q798.385 1540.33 795.306 1544.94 Q792.251 1549.52 786.441 1549.52 Q780.631 1549.52 777.552 1544.94 Q774.496 1540.33 774.496 1531.6 Q774.496 1522.85 777.552 1518.27 Q780.631 1513.66 786.441 1513.66 Z" fill="#000000" fill-rule="nonzero" fill-opacity="1" /><path clip-path="url(#clip340)" d="M1209.14 1530.21 Q1212.5 1530.93 1214.38 1533.2 Q1216.27 1535.47 1216.27 1538.8 Q1216.27 1543.92 1212.76 1546.72 Q1209.24 1549.52 1202.76 1549.52 Q1200.58 1549.52 1198.26 1549.08 Q1195.97 1548.66 1193.52 1547.81 L1193.52 1543.29 Q1195.46 1544.43 1197.78 1545.01 Q1200.09 1545.58 1202.62 1545.58 Q1207.01 1545.58 1209.31 1543.85 Q1211.62 1542.11 1211.62 1538.8 Q1211.62 1535.75 1209.47 1534.03 Q1207.34 1532.3 1203.52 1532.3 L1199.49 1532.3 L1199.49 1528.45 L1203.7 1528.45 Q1207.15 1528.45 1208.98 1527.09 Q1210.81 1525.7 1210.81 1523.11 Q1210.81 1520.45 1208.91 1519.03 Q1207.04 1517.6 1203.52 1517.6 Q1201.6 1517.6 1199.4 1518.01 Q1197.2 1518.43 1194.56 1519.31 L1194.56 1515.14 Q1197.22 1514.4 1199.54 1514.03 Q1201.88 1513.66 1203.94 1513.66 Q1209.26 1513.66 1212.36 1516.09 Q1215.46 1518.5 1215.46 1522.62 Q1215.46 1525.49 1213.82 1527.48 Q1212.18 1529.45 1209.14 1530.21 Z" fill="#000000" fill-rule="nonzero" fill-opacity="1" /><path clip-path="url(#clip340)" d="M1235.14 1517.37 Q1231.53 1517.37 1229.7 1520.93 Q1227.89 1524.47 1227.89 1531.6 Q1227.89 1538.71 1229.7 1542.27 Q1231.53 1545.82 1235.14 1545.82 Q1238.77 1545.82 1240.58 1542.27 Q1242.41 1538.71 1242.41 1531.6 Q1242.41 1524.47 1240.58 1520.93 Q1238.77 1517.37 1235.14 1517.37 M1235.14 1513.66 Q1240.95 1513.66 1244.01 1518.27 Q1247.08 1522.85 1247.08 1531.6 Q1247.08 1540.33 1244.01 1544.94 Q1240.95 1549.52 1235.14 1549.52 Q1229.33 1549.52 1226.25 1544.94 Q1223.2 1540.33 1223.2 1531.6 Q1223.2 1522.85 1226.25 1518.27 Q1229.33 1513.66 1235.14 1513.66 Z" fill="#000000" fill-rule="nonzero" fill-opacity="1" /><path clip-path="url(#clip340)" d="M1639.57 1529.7 Q1636.42 1529.7 1634.57 1531.86 Q1632.74 1534.01 1632.74 1537.76 Q1632.74 1541.49 1634.57 1543.66 Q1636.42 1545.82 1639.57 1545.82 Q1642.72 1545.82 1644.54 1543.66 Q1646.4 1541.49 1646.4 1537.76 Q1646.4 1534.01 1644.54 1531.86 Q1642.72 1529.7 1639.57 1529.7 M1648.85 1515.05 L1648.85 1519.31 Q1647.09 1518.48 1645.29 1518.04 Q1643.5 1517.6 1641.74 1517.6 Q1637.11 1517.6 1634.66 1520.72 Q1632.23 1523.85 1631.88 1530.17 Q1633.25 1528.15 1635.31 1527.09 Q1637.37 1526 1639.85 1526 Q1645.05 1526 1648.06 1529.17 Q1651.1 1532.32 1651.1 1537.76 Q1651.1 1543.08 1647.95 1546.3 Q1644.8 1549.52 1639.57 1549.52 Q1633.57 1549.52 1630.4 1544.94 Q1627.23 1540.33 1627.23 1531.6 Q1627.23 1523.41 1631.12 1518.55 Q1635.01 1513.66 1641.56 1513.66 Q1643.32 1513.66 1645.1 1514.01 Q1646.91 1514.36 1648.85 1515.05 Z" fill="#000000" fill-rule="nonzero" fill-opacity="1" /><path clip-path="url(#clip340)" d="M1669.15 1517.37 Q1665.54 1517.37 1663.71 1520.93 Q1661.91 1524.47 1661.91 1531.6 Q1661.91 1538.71 1663.71 1542.27 Q1665.54 1545.82 1669.15 1545.82 Q1672.79 1545.82 1674.59 1542.27 Q1676.42 1538.71 1676.42 1531.6 Q1676.42 1524.47 1674.59 1520.93 Q1672.79 1517.37 1669.15 1517.37 M1669.15 1513.66 Q1674.96 1513.66 1678.02 1518.27 Q1681.1 1522.85 1681.1 1531.6 Q1681.1 1540.33 1678.02 1544.94 Q1674.96 1549.52 1669.15 1549.52 Q1663.34 1549.52 1660.26 1544.94 Q1657.21 1540.33 1657.21 1531.6 Q1657.21 1522.85 1660.26 1518.27 Q1663.34 1513.66 1669.15 1513.66 Z" fill="#000000" fill-rule="nonzero" fill-opacity="1" /><path clip-path="url(#clip340)" d="M2063.15 1548.13 L2063.15 1543.87 Q2064.91 1544.7 2066.72 1545.14 Q2068.52 1545.58 2070.26 1545.58 Q2074.89 1545.58 2077.32 1542.48 Q2079.77 1539.36 2080.12 1533.01 Q2078.78 1535.01 2076.72 1536.07 Q2074.66 1537.13 2072.16 1537.13 Q2066.97 1537.13 2063.94 1534.01 Q2060.93 1530.86 2060.93 1525.42 Q2060.93 1520.1 2064.08 1516.88 Q2067.23 1513.66 2072.46 1513.66 Q2078.45 1513.66 2081.6 1518.27 Q2084.77 1522.85 2084.77 1531.6 Q2084.77 1539.77 2080.88 1544.66 Q2077.02 1549.52 2070.47 1549.52 Q2068.71 1549.52 2066.9 1549.17 Q2065.1 1548.82 2063.15 1548.13 M2072.46 1533.48 Q2075.6 1533.48 2077.43 1531.32 Q2079.29 1529.17 2079.29 1525.42 Q2079.29 1521.7 2077.43 1519.54 Q2075.6 1517.37 2072.46 1517.37 Q2069.31 1517.37 2067.46 1519.54 Q2065.63 1521.7 2065.63 1525.42 Q2065.63 1529.17 2067.46 1531.32 Q2069.31 1533.48 2072.46 1533.48 Z" fill="#000000" fill-rule="nonzero" fill-opacity="1" /><path clip-path="url(#clip340)" d="M2103.17 1517.37 Q2099.56 1517.37 2097.73 1520.93 Q2095.93 1524.47 2095.93 1531.6 Q2095.93 1538.71 2097.73 1542.27 Q2099.56 1545.82 2103.17 1545.82 Q2106.81 1545.82 2108.61 1542.27 Q2110.44 1538.71 2110.44 1531.6 Q2110.44 1524.47 2108.61 1520.93 Q2106.81 1517.37 2103.17 1517.37 M2103.17 1513.66 Q2108.98 1513.66 2112.04 1518.27 Q2115.12 1522.85 2115.12 1531.6 Q2115.12 1540.33 2112.04 1544.94 Q2108.98 1549.52 2103.17 1549.52 Q2097.36 1549.52 2094.29 1544.94 Q2091.23 1540.33 2091.23 1531.6 Q2091.23 1522.85 2094.29 1518.27 Q2097.36 1513.66 2103.17 1513.66 Z" fill="#000000" fill-rule="nonzero" fill-opacity="1" /><polyline clip-path="url(#clip340)" style="stroke:#000000; stroke-linecap:round; stroke-linejoin:round; stroke-width:4; stroke-opacity:1; fill:none" points="140.51,1486.45 140.51,47.2441 "/>
<polyline clip-path="url(#clip340)" style="stroke:#000000; stroke-linecap:round; stroke-linejoin:round; stroke-width:4; stroke-opacity:1; fill:none" points="140.51,1180.23 159.408,1180.23 "/>
<polyline clip-path="url(#clip340)" style="stroke:#000000; stroke-linecap:round; stroke-linejoin:round; stroke-width:4; stroke-opacity:1; fill:none" points="140.51,872.483 159.408,872.483 "/>
<polyline clip-path="url(#clip340)" style="stroke:#000000; stroke-linecap:round; stroke-linejoin:round; stroke-width:4; stroke-opacity:1; fill:none" points="140.51,564.737 159.408,564.737 "/>
<polyline clip-path="url(#clip340)" style="stroke:#000000; stroke-linecap:round; stroke-linejoin:round; stroke-width:4; stroke-opacity:1; fill:none" points="140.51,256.991 159.408,256.991 "/>
<path clip-path="url(#clip340)" d="M92.566 1166.03 Q88.9549 1166.03 87.1262 1169.59 Q85.3206 1173.13 85.3206 1180.26 Q85.3206 1187.37 87.1262 1190.94 Q88.9549 1194.48 92.566 1194.48 Q96.2002 1194.48 98.0058 1190.94 Q99.8345 1187.37 99.8345 1180.26 Q99.8345 1173.13 98.0058 1169.59 Q96.2002 1166.03 92.566 1166.03 M92.566 1162.32 Q98.3761 1162.32 101.432 1166.93 Q104.51 1171.51 104.51 1180.26 Q104.51 1188.99 101.432 1193.6 Q98.3761 1198.18 92.566 1198.18 Q86.7558 1198.18 83.6771 1193.6 Q80.6216 1188.99 80.6216 1180.26 Q80.6216 1171.51 83.6771 1166.93 Q86.7558 1162.32 92.566 1162.32 Z" fill="#000000" fill-rule="nonzero" fill-opacity="1" /><path clip-path="url(#clip340)" d="M57.4273 885.828 L73.7466 885.828 L73.7466 889.763 L51.8023 889.763 L51.8023 885.828 Q54.4643 883.073 59.0476 878.444 Q63.6541 873.791 64.8346 872.448 Q67.08 869.925 67.9596 868.189 Q68.8624 866.43 68.8624 864.74 Q68.8624 861.985 66.918 860.249 Q64.9967 858.513 61.8948 858.513 Q59.6958 858.513 57.2421 859.277 Q54.8115 860.041 52.0338 861.592 L52.0338 856.87 Q54.8578 855.735 57.3115 855.157 Q59.7652 854.578 61.8023 854.578 Q67.1726 854.578 70.367 857.263 Q73.5614 859.948 73.5614 864.439 Q73.5614 866.569 72.7513 868.49 Q71.9642 870.388 69.8578 872.981 Q69.2791 873.652 66.1772 876.87 Q63.0754 880.064 57.4273 885.828 Z" fill="#000000" fill-rule="nonzero" fill-opacity="1" /><path clip-path="url(#clip340)" d="M83.6077 855.203 L101.964 855.203 L101.964 859.138 L87.8901 859.138 L87.8901 867.61 Q88.9086 867.263 89.9271 867.101 Q90.9456 866.916 91.9641 866.916 Q97.7511 866.916 101.131 870.087 Q104.51 873.258 104.51 878.675 Q104.51 884.254 101.038 887.356 Q97.566 890.434 91.2465 890.434 Q89.0706 890.434 86.8021 890.064 Q84.5568 889.694 82.1494 888.953 L82.1494 884.254 Q84.2327 885.388 86.4549 885.944 Q88.6771 886.499 91.1539 886.499 Q95.1586 886.499 97.4965 884.393 Q99.8345 882.286 99.8345 878.675 Q99.8345 875.064 97.4965 872.957 Q95.1586 870.851 91.1539 870.851 Q89.279 870.851 87.404 871.268 Q85.5521 871.684 83.6077 872.564 L83.6077 855.203 Z" fill="#000000" fill-rule="nonzero" fill-opacity="1" /><path clip-path="url(#clip340)" d="M52.4505 547.457 L70.8068 547.457 L70.8068 551.392 L56.7328 551.392 L56.7328 559.864 Q57.7513 559.517 58.7699 559.355 Q59.7884 559.17 60.8069 559.17 Q66.5939 559.17 69.9735 562.341 Q73.3531 565.512 73.3531 570.929 Q73.3531 576.507 69.8809 579.609 Q66.4087 582.688 60.0893 582.688 Q57.9134 582.688 55.6449 582.318 Q53.3995 581.947 50.9921 581.207 L50.9921 576.507 Q53.0754 577.642 55.2977 578.197 Q57.5199 578.753 59.9967 578.753 Q64.0013 578.753 66.3393 576.646 Q68.6772 574.54 68.6772 570.929 Q68.6772 567.318 66.3393 565.211 Q64.0013 563.105 59.9967 563.105 Q58.1217 563.105 56.2467 563.521 Q54.3949 563.938 52.4505 564.818 L52.4505 547.457 Z" fill="#000000" fill-rule="nonzero" fill-opacity="1" /><path clip-path="url(#clip340)" d="M92.566 550.535 Q88.9549 550.535 87.1262 554.1 Q85.3206 557.642 85.3206 564.771 Q85.3206 571.878 87.1262 575.443 Q88.9549 578.984 92.566 578.984 Q96.2002 578.984 98.0058 575.443 Q99.8345 571.878 99.8345 564.771 Q99.8345 557.642 98.0058 554.1 Q96.2002 550.535 92.566 550.535 M92.566 546.832 Q98.3761 546.832 101.432 551.438 Q104.51 556.021 104.51 564.771 Q104.51 573.498 101.432 578.105 Q98.3761 582.688 92.566 582.688 Q86.7558 582.688 83.6771 578.105 Q80.6216 573.498 80.6216 564.771 Q80.6216 556.021 83.6771 551.438 Q86.7558 546.832 92.566 546.832 Z" fill="#000000" fill-rule="nonzero" fill-opacity="1" /><path clip-path="url(#clip340)" d="M52.219 239.711 L74.4411 239.711 L74.4411 241.701 L61.8948 274.271 L57.0106 274.271 L68.8161 243.646 L52.219 243.646 L52.219 239.711 Z" fill="#000000" fill-rule="nonzero" fill-opacity="1" /><path clip-path="url(#clip340)" d="M83.6077 239.711 L101.964 239.711 L101.964 243.646 L87.8901 243.646 L87.8901 252.118 Q88.9086 251.771 89.9271 251.609 Q90.9456 251.423 91.9641 251.423 Q97.7511 251.423 101.131 254.595 Q104.51 257.766 104.51 263.183 Q104.51 268.761 101.038 271.863 Q97.566 274.942 91.2465 274.942 Q89.0706 274.942 86.8021 274.571 Q84.5568 274.201 82.1494 273.46 L82.1494 268.761 Q84.2327 269.896 86.4549 270.451 Q88.6771 271.007 91.1539 271.007 Q95.1586 271.007 97.4965 268.9 Q99.8345 266.794 99.8345 263.183 Q99.8345 259.572 97.4965 257.465 Q95.1586 255.359 91.1539 255.359 Q89.279 255.359 87.404 255.775 Q85.5521 256.192 83.6077 257.072 L83.6077 239.711 Z" fill="#000000" fill-rule="nonzero" fill-opacity="1" /><polyline clip-path="url(#clip342)" style="stroke:#0000ff; stroke-linecap:round; stroke-linejoin:round; stroke-width:4; stroke-opacity:1; fill:none" points="203.121,717.019 225.678,722.501 233.382,718.923 252.196,717.297 261.273,716.919 283.196,720.213 303.304,724.787 329.471,726.775 356.618,728.637 387.071,733.225 416.396,732.889 440.993,733.196 477.566,734.607 499.005,740.291 521.878,744.464 557.224,747.73 582.582,749.324 603.717,753.913 633.167,760.831 656.571,768.138 679.081,776.436 702.456,783.011 730.723,789.971 753.96,798.849 779.983,803.919 810.863,811.413 833.289,810.471 868.368,812.717 893.157,821.287 919.129,829.532 950.263,839.057 974.7,847.504 1000.59,854.503 1018.95,864.443 1036.73,876.738 1044.08,882.131 1065.76,884.606 1083.11,886.446 1105.62,887.923 1132.05,891.159 1158.61,901.741 1185.66,912.407 1207.53,917.314 1233.25,920.346 1265.82,921.399 1294.6,922.617 1327.29,927.482 1355.58,932.534 1381.87,935.671 1406.72,938.403 1439.04,937.905 1463.21,937.48 1490.27,937.042 1516.77,934.124 1546.47,928.601 1575.12,929.503 1602.62,927.928 1628.51,928.167 1648.89,921.637 1666.67,918.393 1683.64,911.405 1701.48,905.201 1722.82,905.502 1745.68,903.477 1767.93,905.201 1787.52,908.977 1809.32,916.034 1829.16,928.222 1850.23,941.271 1865.99,952.297 1881.81,968.947 1891.52,982.961 1898.85,996.672 1908.53,1015.67 1920.51,1033.36 1933.89,1051.97 1944.94,1062.17 1964.21,1068.69 1978.41,1071.45 1987.97,1069.85 2010.53,1062.88 2026.76,1057.89 2048.1,1036.5 2059.1,1021.48 2061.44,1001.02 2063,982.679 2060.98,961.342 2046.9,946.106 2027.55,940.094 2005.7,931.451 1978.13,932.988 1953.4,932.118 1932.26,928.717 1913.4,925.833 1891.35,923.314 1871.96,929.72 1850.04,936.732 1833.8,944.861 1810.5,947.419 1785.21,945.954 1757.46,941.329 1735.58,930.113 1713.55,918.726 1682.38,903.526 1656.23,886.042 1633.63,867.899 1618.62,853.477 1607.4,840.768 1591.01,827.047 1576.75,810.684 1565.24,795.119 1557.36,778.449 1557.89,762.924 1572.02,747.359 1587.88,735.708 1609.16,728.707 1625.7,728.401 1653.99,730.583 1674.03,743.089 1694.65,751.248 1708.44,757.025 1730.4,762.968 1752.68,773.547 1764.29,782.483 1781.66,793.269 1800.35,803.798 1822.62,811.285 1843.28,812.674 1865.03,812.703 1889.55,805.105 1910.12,800.779 1925.99,800.417 1945.41,808.929 1962.33,821.273 1976.87,836.684 1985.39,853.738 1993.15,873.706 2001.31,895.468 2005.67,914.782 2005.17,935.408 2005.13,945.517 2008.22,958.604 2019.45,977.701 2027.13,995.449 2039.4,1009.95 2050.72,1016.56 2063.86,1019.56 2082.6,1014.49 2100.47,1007.13 2114.17,997.46 2131.51,985.144 2140.57,976.745 2143.92,957.616 2131.31,941.183 2112.94,924.381 2098.72,907.606 2075.53,898.148 2047.12,894.779 2020.4,890.467 2003.95,886.911 1979.68,884.389 1959.34,881.079 1941.3,870.008 1926.32,863.595 1904.19,857.432 1888.32,857.554 1865.94,860.005 1845.45,854.554 1824.48,849.167 1804.99,848.139 1779.95,844.484 1762.28,839.878 1745.52,835.243 1723.33,833.754 1695.2,835.767 1668.52,842.115 1653.19,840.604 1649.5,831.792 1645.15,828.559 1638.13,827.476 1626.85,826.343 1618.02,825.67 1603.61,830.522 1589.35,837.4 1563.49,841.85 1542.15,845.382 1527.33,851.348 1517.97,860.071 1526.67,860.839 1546.54,859.142 1579.45,853.846 1595.05,835.7 1610.27,820.751 1615.38,804.843 1607.09,788.138 1591.8,770.368 1580.77,759.41 1570.79,738.568 1551.6,728.5 1530.34,740.338 1508.42,740.777 1478.51,735.239 1475.62,715.826 1470.21,697.292 1471.92,676.844 1476.98,660.283 1492.07,638.43 1500.62,618.738 1502.13,595.527 1484.13,582.942 1462.32,574.758 1452.57,572.923 1463.57,560.403 1485.85,548.971 1521.85,548.752 1559.43,534.515 1585.76,517.49 1604.18,493.074 1618.87,472.154 1639.56,462.802 1665.84,466.934 1689.58,472.577 1709.05,490.545 1736.77,502.782 1756.55,518.975 1765.99,539.694 1754.92,556.943 1736.09,573.268 1708.97,586.314 1675.04,591.54 1649.12,591.67 1616.1,576.141 1589.62,561.427 1579.63,539.837 1578.17,518.013 1597.44,502.766 1612.47,492.079 1635.13,478.286 1660.31,469.904 1681.45,453.734 1704.68,442.482 1725.09,441.242 1748.06,426.375 1751.72,412.157 1761.72,395.373 1775.42,389.695 1792.7,372.208 1784.41,357.931 1763.2,348.153 1758.72,346.664 1771.04,342.073 1795.46,335.441 1824.97,340.652 1850.9,343.732 1877.94,348.926 1901.85,366.437 1904.25,386.009 1901.59,398.407 1878.77,408.541 1862.76,431.456 1848.09,458.36 1838.14,490.958 1839.99,512.218 1803.09,513.829 1780.17,529.75 1747.84,535.61 1717.46,553.523 1700.39,578.761 1681.12,596.302 1653.72,589.993 1630.68,578.817 1603.23,570.342 1589.16,556.944 1562.2,540.945 1554.24,533.118 1562.38,511.409 1586.89,502.867 1622.72,496.993 1651.75,501.668 1686.08,509.133 1714.74,523.296 1722.29,544.585 1736.78,566.086 1753.81,570.413 1779.32,575.079 1803.11,585.51 1813.51,587.729 1839.26,579.883 1864.08,572.341 1883.4,562.799 1904.27,565.643 1922.94,580.751 1921.97,599.115 1921.63,620.846 1908.08,652.979 1886.29,677.925 1862.25,697.333 1840.58,727.245 1838.99,752.091 1803.03,763.971 1774.78,768.528 1746.8,782.797 1720.63,797.002 1703.22,816.18 1687.25,837.331 1661.38,860.6 1634.76,868.934 1607.65,860.191 1582.6,854.494 1550.81,850.284 1522.54,842.139 1502.59,820.505 1487.92,800.619 1457.05,777.676 1440.63,758.349 1414.79,741.762 1390.33,739.122 1360.02,744.391 1340.96,742.683 1315.92,734.246 1310.93,707.736 1293.05,698.653 1268.34,703.622 1250.51,713.571 1225.58,730.001 1220.03,736.774 1189.61,739.743 1165.98,745.722 1140.1,738.126 1118.67,720.208 1095.92,707.019 1060.88,701.154 1027.75,693.162 1005.8,687.993 985.392,676.53 964.929,656.492 964.519,642.98 974.7,623.72 990.9,603.451 1002.61,580.293 1008.87,549.525 1015.82,525.019 999.678,505.303 980.152,499.904 969.773,488.734 976.222,475.325 1002.41,476.196 1039.63,479.139 1080.23,477.305 1112.81,473.242 1139.96,455.043 1164.92,429.616 1190.34,409.959 1221.31,404.518 1261.37,406.248 1292.73,418.545 1324.25,434.354 1354.25,447.408 1381.49,459.201 1403.6,473.177 1439.39,480.092 1465.07,494.582 1491.76,517.019 1523.2,544.428 1550.64,560.108 1574.51,570.532 1593.15,581.278 1602.66,571.412 1623.56,561.71 1650.62,548.314 1674.57,538.4 1704.14,527.378 1737.75,526.056 1772.97,535.264 1799.81,560.262 1806.85,581.737 1803.47,614.185 1785.21,647.38 1782.53,674.177 1775.31,705.666 1775.48,739.81 1792.31,770.072 1823.57,795.027 1863.3,793.638 1885.38,796.716 1916.22,803.885 1935.58,825.104 1961.82,850.541 1981.94,882.871 1994.37,916.093 1999.17,938.184 2015.01,919.331 2050.92,925.105 2079,931.255 2090.67,947.741 2094.01,951.981 2093.81,956.35 2098.19,972.562 2101.9,979.099 2115.36,982.828 2132.57,984.892 2161.8,978.6 2189.94,987.064 2202.53,1000.82 2216.3,1022.87 2216.08,1036.51 2220.08,1021.65 2224.94,1003.15 2223.04,976.052 2213.02,949.872 2196.28,926.094 2185.27,903.851 2187.16,883.412 2159.11,861.897 2151.73,830.53 2157.18,805.456 2176.5,795.662 2196.89,797.845 2221.26,806.165 2237.37,818.857 2248.97,838.733 2275.14,861.632 2290.12,882.85 2280.19,910.458 2260.44,932.484 2243.34,952.975 2212.26,963.847 2192.95,983.462 2165.72,996.851 2137.96,1019.4 2119.47,1040.17 2108.47,1063.47 2089.11,1086.77 2071.15,1109.57 2045.49,1127.02 2019.19,1138.56 1987.74,1155.26 1962.02,1172.39 1933.77,1180.08 1905.51,1200.7 1888.78,1217.53 1856.38,1229.42 1837.01,1243.93 1818.96,1263.9 1801.09,1291.89 1793.35,1311.72 1788.88,1332.23 1782.38,1356.53 1805.1,1377.87 1814.54,1392.97 1807.19,1416.39 1799.39,1442 1779.14,1445.66 1755.8,1443.37 1733.38,1424.81 1721.75,1397.23 1707.68,1375.79 1683.71,1353.58 1645.2,1328.17 1613.35,1320.66 1578.43,1319.67 1541.3,1327.69 1499.7,1338.35 1472.13,1337.78 1437.81,1326.9 1412.62,1313.75 1392.68,1289.36 1390.51,1255.97 1385.46,1215.32 1364,1188.41 1342.54,1167.4 1348.87,1136.51 1345.94,1108.55 1337.81,1084.17 1325.73,1056.2 1307.04,1032.01 1301.95,1005.59 1307.87,971.701 1317.56,937.963 1336.77,908.643 1351.91,877.507 1365.87,846.028 1393.39,825.159 1387.06,797.156 1372.05,772.901 1341.72,749.149 1308.22,746.851 1288.14,732.936 1280.57,707.064 1276.13,674.373 1289.63,647.097 1304.06,626.276 1325.84,617.931 1357.59,606.005 1395.13,600.42 1436.2,596.251 1474.31,596.752 1502.69,589.013 1525.21,562.999 1544,541.995 1572.38,529.088 1594.69,522.381 1596.7,507.459 1583.66,494.52 1561.82,479.182 1535.37,466.257 1507.27,438.679 1484.2,412.792 1471.16,386.903 1453.99,366.896 1449.89,348.931 1457.55,328.271 1476.23,319.028 1493.34,328.594 1523.95,332.861 1563.53,334.996 1599.43,344.146 1640.17,350.295 1673.27,353.991 1704.49,367.765 1727.65,374.776 1753.64,367.428 1776.93,356.761 1808.62,351.229 1841.64,351.643 1873.45,345.514 1896.58,361.089 1907.42,378.22 1912.64,370.606 1922.41,353.987 1940.45,337.344 1958.82,325.482 1982.54,310.937 2002.67,303.074 1990.25,303.863 1968.4,291.349 1959,274.019 1947.5,244.643 1950.82,215.539 1962.95,199.817 1991.6,190.176 2025.43,194.118 2050.87,198.669 2084.84,202.345 2120.67,214.811 2143.46,237.574 2147.12,266.38 2140.45,293.554 2127.85,301.643 2132.79,317.888 2137.14,340.205 2133.91,372.343 2103.23,389.055 2083.48,424.952 2055.49,446.862 2033.55,472.528 2026.4,507.191 1999.71,513.772 1963.92,516.207 1928.71,529.485 1896.8,542.19 1881.58,569.583 1869.65,600.467 1869.86,616.922 1896.75,621.507 1926.85,635.413 1964.32,649.715 1998.73,673.793 2027.11,688.91 2064.99,693.692 2099.49,693.896 2139.07,689.988 2168.24,694.919 2194.23,693.452 2205.8,678.261 2218.93,659.069 2235.25,639.123 2233.45,613.732 2229.31,595.116 2219.49,571.227 2192.82,548.612 2170.6,530.197 2146.12,515.798 2103.22,517.935 2077.98,523.816 2054.32,542.608 2036.88,561.984 2010.87,587.23 2007.44,616.557 2011.74,648.575 2016.46,678.82 2034.44,704.921 2046.23,730.252 2060.67,763.498 2075.86,794.054 2107.61,805.812 2137.74,822.973 2163.19,851.725 2183.42,874.801 2197.67,906.857 2205.51,932.072 2201.58,942.981 2170.02,944.281 2132.96,957.184 2104.04,955.731 2088.82,962.965 2069.18,967.504 2046.01,962.863 2015.34,948.248 1984.54,941.165 1948,943.53 1903.09,956.945 1864.66,971.506 1826.15,971.299 1782.86,978.957 1745.56,979.31 1706.76,981.405 1675.35,975.122 1640.14,979.188 1607.68,973.967 1574.76,965.86 1538.89,935.365 1510,920.507 1472.48,913.506 1439.82,897.822 1409.82,881.829 1378.46,860.177 1352.29,853.491 1325.74,867.588 1300.77,883.53 1271.35,898.924 1233.06,917.177 1194.81,925.673 1166.31,920.44 1138.21,896.573 1119.71,872.708 1101.06,842.278 1074.62,816.867 1064.37,786.136 1060.97,758.583 1063.96,735.527 1049.46,705.597 1026.18,688.764 997.489,677.042 978.164,655.777 970.763,624.091 966.935,600.468 955.866,572.745 965.555,545.609 986.8,518.017 997.808,501.145 1012.17,496.027 1020.71,481.71 1025.94,464.78 1033.28,441.086 1039.22,416.946 1044.34,387.716 1057.26,354.65 1056.92,331.032 1034.94,313.417 1014.42,299.654 986.495,299.115 959.578,308.905 932.054,304.312 900.169,289.668 862.238,275.698 838.845,269.507 816.441,264.921 801.589,247.193 800.886,225.556 816.745,206.999 839.052,188.778 862.741,171.749 905.184,160.612 936.522,147.702 970.66,141.761 1000.59,153.609 1029.24,160.119 1063.37,155.326 1097.45,149.639 1117.28,128.629 1133.09,108.902 1145.74,87.993 "/>
<polyline clip-path="url(#clip342)" style="stroke:#ff0000; stroke-linecap:round; stroke-linejoin:round; stroke-width:4; stroke-opacity:1; fill:none" points="203.317,717.49 234.28,723.891 236.941,714.991 258.475,716.296 261.917,716.997 289.439,722.697 306.634,726.254 335.934,726.008 360.91,728.027 391.888,734.428 418.642,730.513 440.176,731.806 483.259,734.416 495.262,743.205 520.253,745.211 563.349,747.821 581.456,748.412 601.254,755.662 635.717,762.778 655.53,770.028 678.8,777.993 702.937,782.978 733.972,789.391 752.932,799.621 781.408,802.354 815.061,812.472 831.461,806.391 873.763,811.98 891.883,825.201 919.506,830.913 953.202,841.031 973.073,848.294 1000.72,854.006 1015.42,866.525 1033.6,879.758 1037.05,880.472 1069.9,880.94 1083.72,883.808 1108.8,885.827 1136.48,891.551 1161.6,906.237 1188.44,914.94 1206.61,915.543 1235.15,918.288 1271.5,919.47 1296.59,921.501 1331.23,928.665 1355.49,933.688 1380.58,935.706 1405.69,937.737 1442.89,935.953 1461.07,936.543 1490.48,936.31 1517.28,932.358 1548.37,926.154 1576.11,931.878 1602.89,927.939 1628.02,929.97 1646.06,917.906 1664.24,918.497 1681.44,909.425 1701.28,904.045 1725.56,909.068 1748.86,904.402 1769.69,908.699 1787.03,912.281 1810.5,920.282 1828.85,933.54 1851.5,944.532 1863.75,953.383 1880.46,972.636 1888.42,983.764 1895.55,997.883 1907.99,1019.44 1922.09,1035.01 1935.36,1053.59 1944.98,1058.74 1969.33,1063.79 1979.78,1065.94 1987.57,1064.38 2016.03,1054.43 2027.28,1053.59 2049.38,1026.5 2055.33,1018.23 2054.08,995.84 2058.16,980.883 2056.93,958.516 2037.71,948.238 2020.33,944.643 1997.65,933.651 1970.04,940.581 1949.2,936.285 1932.66,929.711 1915.3,926.129 1890.17,924.098 1872.16,936.174 1848.85,940.827 1835.97,947.647 1807.36,944.889 1782.22,942.871 1754.46,937.134 1736.12,923.877 1712.66,915.875 1677,899.035 1656.06,882.097 1635.13,865.159 1623.76,853.366 1612.41,841.561 1590.66,827.626 1577.53,809.173 1567.01,794.426 1560.81,777.414 1564.99,762.556 1583.83,747.575 1594.09,737.112 1617.34,732.483 1631.17,735.327 1660.51,735.093 1674.48,750.529 1695.25,754.813 1705.63,756.943 1733.33,762.654 1755.08,776.552 1760.36,783.926 1782.95,794.869 1802.08,805.111 1826.33,810.109 1845.31,807.721 1866.93,809.026 1891.83,798.427 1909.98,799.03 1923.85,801.886 1945.66,815.808 1960.54,828.315 1974.61,843.801 1981.74,857.859 1990.72,878.613 1999.7,899.38 2002.55,915.74 2000.3,937.356 2002.96,941.061 2009.29,958.16 2025.24,980.403 2028.11,996.8 2043.03,1009.37 2053.47,1011.54 2067.39,1014.4 2088.05,1006.02 2104.41,999.915 2113.81,992.369 2131.8,980.28 2136.91,975.024 2136.44,949.666 2121.5,937.11 2103.9,920.861 2093.27,906.064 2069.77,898.063 2041.17,895.318 2016.86,890.308 2006.44,888.153 1977.85,885.421 1960.5,881.838 1942.96,865.614 1929.07,862.758 1901.32,857.034 1889.27,860.85 1862.52,864.789 1844.18,851.556 1823.37,847.272 1804.38,849.648 1776.66,843.936 1763.61,838.102 1746.29,834.519 1720.37,835.48 1690.16,838.705 1666.04,846.325 1657.32,838.225 1657.17,825.595 1649.42,827.146 1638.2,827.983 1623.5,828.106 1616.58,826.678 1599.38,835.726 1586.49,842.521 1553.65,842.053 1538.12,845.143 1528.68,852.652 1521.86,863.866 1537.4,860.764 1556.38,858.376 1587.45,852.172 1596.75,832.033 1611.31,819.292 1615.48,804.409 1605.8,786.683 1589.21,767.541 1580.49,759.454 1569.04,735.105 1549.13,727.855 1526.82,742.122 1505.25,740.817 1474.12,734.403 1475.7,715.877 1470.36,695.947 1472.78,674.479 1476.96,659.658 1494.85,635.137 1499.87,617.374 1503.11,593 1484.09,582.832 1460.78,574.917 1453.88,573.501 1465.79,557.191 1490.67,546.666 1530.27,548.549 1567.95,531.303 1586.74,516.421 1604.56,491.998 1617.26,472.782 1637.79,464.522 1666.2,467.23 1690.32,472.167 1710.32,491.85 1739.69,504.111 1757.1,520.163 1765.95,540.708 1754.11,557.006 1734.53,574.855 1705.4,587.633 1671.03,593.086 1649.48,591.794 1610.55,574.412 1588.9,560.588 1580.09,540.031 1579.02,517.959 1597.79,503.089 1611.44,493.413 1637.92,477.017 1661.91,469.471 1684.94,452.372 1706.28,441.183 1724.33,441.761 1750.77,425.389 1750.62,412.919 1763.26,393.741 1775.24,389.974 1795.59,369.281 1784.28,357.648 1758.38,346.138 1774.62,340.156 1805.42,334.038 1832.13,342.593 1853.61,343.886 1881.14,349.511 1904.62,369.835 1903.98,385.235 1900.71,396.99 1875.14,410.408 1860.88,435.483 1845.8,463.525 1836.77,495.949 1840.4,509.17 1799.16,513.183 1779.61,531.02 1745.26,536.461 1714.5,555.123 1700.15,580.309 1681.38,595.216 1653.76,589.541 1631.25,578.671 1601.03,569.328 1589.72,557.634 1558.57,538.738 1555.95,535.082 1563.44,508.518 1590.89,501.673 1628.68,496.946 1652.8,501.895 1690.74,509.675 1715.86,524.188 1721.25,544.019 1737,565.992 1750.81,568.824 1781.89,575.2 1804.41,586.082 1811.32,587.498 1843.07,578.388 1867.07,570.818 1884.15,561.832 1904.88,566.079 1925.79,582.857 1920.89,600.608 1922.07,622.741 1904.52,659.83 1884.12,680.696 1861.07,697.905 1837.37,730.673 1839.35,749.914 1798.96,763.59 1775.7,768.231 1745.68,784.049 1719.92,797.614 1703.72,816.313 1686.69,837.991 1657.59,863.497 1634.29,868.15 1607.41,859.447 1583.15,854.437 1547.66,850.276 1520.81,841.573 1501.59,818.714 1488.49,800.261 1452,773.856 1441.53,759.122 1413.79,740.829 1392.2,739.524 1357.73,744.99 1343.91,742.134 1313.65,732.766 1310.91,703.912 1293.64,700.354 1266.93,704.281 1249.73,713.304 1222.23,732.778 1221.37,735.745 1183.44,740.497 1163.61,745.852 1136.84,737.173 1116.96,717.354 1094.5,706.435 1055.69,701.585 1025.51,692.218 1008.27,688.66 985.858,677.753 963.427,654.303 966.016,645.415 976.327,622.445 993.523,600.903 1003.82,577.97 1009.79,544.77 1015.78,524.114 999.423,505.12 982.228,501.587 971.049,489.917 975.329,475.183 1007.98,475.638 1046.66,480.464 1087.89,476.45 1114.51,472.548 1141.95,453.222 1167.62,427.322 1190.73,410.248 1221.6,404.13 1264.54,406.703 1293.8,418.927 1325.66,434.806 1354.94,447.042 1380.8,458.577 1402.38,472.364 1443.7,480.833 1465.29,494.632 1494.73,519.4 1526.81,547.848 1549.28,558.705 1571.77,569.574 1590.8,579.742 1600.2,572.283 1625.05,561.758 1655.02,546.038 1675.57,537.766 1708.12,525.715 1740.82,526.182 1777.96,536.916 1803.27,563.974 1806.06,580.161 1803.09,617.078 1782.85,650.487 1783.99,672.645 1774.08,708.245 1775.38,743.033 1793.01,771.801 1826.17,797.491 1864.11,792.727 1877.98,795.583 1916.1,803.425 1935.45,826.284 1964.4,854.289 1984.79,886.849 1994.79,917.291 1997.65,933.651 2012.16,920.873 2054.66,926.486 2078.99,931.496 2089.63,946.317 2092.29,950.023 2094.14,956.719 2099.68,976.809 2102.34,980.526 2119.74,984.109 2137.93,984.712 2169.84,975.492 2195.23,990.214 2203.24,1001.35 2218.46,1026.63 2216.01,1035.61 2220.08,1020.63 2225.75,999.668 2222.58,970.592 2210.86,946.071 2194.85,923.852 2185.82,903.073 2187.2,884.448 2153.85,858.684 2151.56,826.74 2157.22,805.899 2174.35,796.851 2195.97,798.168 2222.93,806.847 2237.86,819.354 2250.37,840.797 2280.28,865.836 2290.15,883.611 2278.62,912.736 2258.26,933.761 2242.16,952.534 2209.48,964.733 2193.37,983.518 2164.15,996.443 2135.14,1022.07 2119,1040.88 2108.99,1064.15 2087.72,1088.26 2070.73,1110.11 2044.1,1126.82 2019.1,1137.51 1984.65,1155.78 1961.47,1173.22 1933.77,1180.2 1901.94,1202.23 1890.83,1215.84 1853.67,1230.42 1839.06,1243.32 1818.47,1264.54 1798.86,1295.55 1794.7,1310.64 1788.88,1331.79 1781.39,1358.99 1808.66,1380.66 1813.16,1391.2 1805.67,1418.44 1798.16,1445.72 1779.85,1445.1 1754.53,1443.04 1730.74,1422.07 1719.97,1394.2 1706.67,1375.44 1680.27,1350.76 1636.45,1322.46 1614.67,1321.13 1578.11,1319.92 1539.02,1327.76 1495.59,1337.92 1477.31,1337.3 1436.31,1325.58 1413.6,1314.46 1391.68,1287.53 1390.56,1252.19 1384.19,1209.42 1364.07,1189.31 1343.97,1169.21 1349.84,1135.43 1346.21,1109.25 1338.25,1085.37 1325.05,1054.07 1305.86,1031.06 1302.24,1004.95 1308.97,968.34 1318.3,935.472 1337.16,907.775 1353.4,876.397 1366.15,844.33 1393.66,824.795 1386.57,798.131 1371.72,773.032 1338.76,747.366 1309.43,747.612 1291.24,734.428 1280.74,707.125 1276.24,671.66 1290.76,646.425 1303.56,627.123 1324.18,618.826 1361.13,604.498 1398.98,599.758 1440.28,595.733 1476.45,596.915 1500.49,589.332 1526.93,560.367 1543.11,541.816 1572.24,529.063 1591.98,523.745 1596.13,508.985 1582.21,493.66 1557.98,476.217 1532.09,464.67 1500.88,433.341 1481.79,410.753 1470.44,386.65 1453.98,367.73 1451.27,351.641 1457.94,328.154 1475.02,319.241 1493.98,329.323 1529.18,333.422 1572.09,335.983 1602.22,345.252 1644.31,350.755 1672.66,353.45 1704.59,369.306 1725.24,373.528 1752.63,366.708 1777.39,356.245 1811.65,350.828 1844.27,351.284 1875.07,345.166 1895.91,361.846 1906.42,376.408 1911.5,371.238 1924.1,352.084 1943.56,334.346 1960.6,325.421 1986.93,309.098 2003.13,303.103 1992,303.928 1963.46,288.811 1957.2,272.058 1944.69,238.563 1952.01,212.22 1962.12,201.929 1994.48,189.988 2029.66,194.063 2050.28,198.273 2088.91,203.049 2125.12,216.602 2144.37,239.067 2147.46,267.54 2140.22,293.908 2131.73,298.376 2133.78,317.383 2137.67,342.975 2131.44,378.932 2099.01,390.934 2080.81,430.719 2054.44,447.092 2032.52,473.73 2026.23,509.835 2003.88,511.484 1962.65,515.51 1925.88,529.801 1896.79,542.567 1881.71,570.695 1869.23,602.516 1870.23,612.093 1897.05,620.734 1929.17,636.712 1969.04,651.164 2002.22,676.769 2024.82,687.675 2067.18,693.239 2099.97,693.707 2141.32,689.669 2165.55,694.655 2191.43,693.695 2202.39,680.289 2219.24,658.71 2236.06,637.131 2232.12,611.317 2229.22,595.105 2218.36,567.9 2187.81,546.038 2170.3,529.986 2145.08,515.46 2096.93,518.07 2080.68,524.102 2053.46,543.478 2037.42,562.029 2007.73,590.292 2007.33,618.346 2013.01,650.795 2016.06,679.612 2034.6,705.352 2046.21,729.689 2061.51,767.369 2075.82,795.436 2106.22,804.84 2137.67,823.884 2165.9,854.868 2182.68,874.071 2198.9,908.92 2204.47,928.985 2202.04,937.947 2167.51,943.449 2126.25,960.191 2105.38,955.882 2092.51,962.702 2069.19,967.367 2044.87,962.345 2009.09,945.48 1981.29,939.744 1943.27,944.532 1895,959.834 1862.27,972.033 1825.87,970.839 1779.23,980.17 1746.31,979.689 1705.62,980.773 1677.84,975.036 1639.79,979.813 1608.55,973.362 1573.84,966.186 1532.83,929.256 1512.85,921.969 1471.26,913.376 1439.14,897.263 1410.49,881.875 1376.62,859.102 1355.84,854.818 1326.54,867.694 1299.84,884.263 1269.66,900.143 1227.39,919.839 1192.81,925.329 1168.57,920.319 1135.63,894.542 1119.99,872.36 1100.04,839.825 1074.06,815.538 1064.5,785.194 1060.99,759.282 1063.53,737.776 1047.94,703.124 1026.37,689.251 997.051,676.929 978.077,654.18 969.443,621.03 967.693,601.863 954.779,571.002 965.944,545.127 989.126,515.497 995.996,504.406 1008.87,497.685 1020.88,481.411 1026,463.734 1033.7,437.244 1040.52,413.707 1045.61,383.597 1059.27,349.068 1056.66,332.979 1033.48,312.693 1015.46,299.681 986.321,299.927 958.047,309.664 930.627,304.051 895.499,287.531 856.104,273.252 842.409,270.445 818.431,265.534 802.19,246.687 801.38,224.813 817.664,206.446 841.642,186.566 864.753,169.628 915.211,158.278 936.586,147.187 970.774,141.795 999.857,153.932 1027.23,159.521 1064.85,154.831 1099.04,149.452 1116.07,128.205 1132.26,109.888 1145.85,87.9763 "/>
<path clip-path="url(#clip340)" d="M214.252 1438.47 L760.776 1438.47 L760.776 1282.95 L214.252 1282.95  Z" fill="#ffffff" fill-rule="evenodd" fill-opacity="1"/>
<polyline clip-path="url(#clip340)" style="stroke:#000000; stroke-linecap:round; stroke-linejoin:round; stroke-width:4; stroke-opacity:1; fill:none" points="214.252,1438.47 760.776,1438.47 760.776,1282.95 214.252,1282.95 214.252,1438.47 "/>
<polyline clip-path="url(#clip340)" style="stroke:#0000ff; stroke-linecap:round; stroke-linejoin:round; stroke-width:4; stroke-opacity:1; fill:none" points="238.832,1334.79 386.315,1334.79 "/>
<path clip-path="url(#clip340)" d="M434.924 1338.05 L434.924 1340.13 L415.34 1340.13 Q415.618 1344.53 417.979 1346.84 Q420.363 1349.13 424.6 1349.13 Q427.053 1349.13 429.345 1348.53 Q431.66 1347.93 433.928 1346.73 L433.928 1350.75 Q431.637 1351.73 429.229 1352.24 Q426.822 1352.75 424.345 1352.75 Q418.141 1352.75 414.507 1349.13 Q410.896 1345.52 410.896 1339.37 Q410.896 1333 414.322 1329.27 Q417.771 1325.52 423.604 1325.52 Q428.836 1325.52 431.868 1328.9 Q434.924 1332.26 434.924 1338.05 M430.664 1336.8 Q430.618 1333.3 428.697 1331.22 Q426.799 1329.13 423.65 1329.13 Q420.086 1329.13 417.933 1331.15 Q415.803 1333.16 415.479 1336.82 L430.664 1336.8 Z" fill="#000000" fill-rule="nonzero" fill-opacity="1" /><path clip-path="url(#clip340)" d="M458.442 1326.91 L458.442 1330.94 Q456.636 1330.01 454.692 1329.55 Q452.748 1329.09 450.664 1329.09 Q447.493 1329.09 445.896 1330.06 Q444.322 1331.03 444.322 1332.98 Q444.322 1334.46 445.456 1335.32 Q446.59 1336.15 450.016 1336.91 L451.474 1337.24 Q456.011 1338.21 457.91 1339.99 Q459.831 1341.75 459.831 1344.92 Q459.831 1348.53 456.96 1350.64 Q454.113 1352.75 449.113 1352.75 Q447.03 1352.75 444.761 1352.33 Q442.516 1351.94 440.016 1351.13 L440.016 1346.73 Q442.377 1347.95 444.669 1348.58 Q446.961 1349.18 449.206 1349.18 Q452.215 1349.18 453.836 1348.16 Q455.456 1347.12 455.456 1345.25 Q455.456 1343.51 454.275 1342.58 Q453.118 1341.66 449.16 1340.8 L447.678 1340.45 Q443.72 1339.62 441.961 1337.91 Q440.201 1336.17 440.201 1333.16 Q440.201 1329.51 442.794 1327.51 Q445.386 1325.52 450.155 1325.52 Q452.516 1325.52 454.599 1325.87 Q456.683 1326.22 458.442 1326.91 Z" fill="#000000" fill-rule="nonzero" fill-opacity="1" /><path clip-path="url(#clip340)" d="M470.826 1318.79 L470.826 1326.15 L479.599 1326.15 L479.599 1329.46 L470.826 1329.46 L470.826 1343.53 Q470.826 1346.7 471.683 1347.61 Q472.562 1348.51 475.224 1348.51 L479.599 1348.51 L479.599 1352.07 L475.224 1352.07 Q470.294 1352.07 468.419 1350.25 Q466.544 1348.39 466.544 1343.53 L466.544 1329.46 L463.419 1329.46 L463.419 1326.15 L466.544 1326.15 L466.544 1318.79 L470.826 1318.79 Z" fill="#000000" fill-rule="nonzero" fill-opacity="1" /><path clip-path="url(#clip340)" d="M485.201 1326.15 L489.46 1326.15 L489.46 1352.07 L485.201 1352.07 L485.201 1326.15 M485.201 1316.06 L489.46 1316.06 L489.46 1321.45 L485.201 1321.45 L485.201 1316.06 Z" fill="#000000" fill-rule="nonzero" fill-opacity="1" /><path clip-path="url(#clip340)" d="M518.557 1331.13 Q520.155 1328.26 522.377 1326.89 Q524.599 1325.52 527.608 1325.52 Q531.659 1325.52 533.858 1328.37 Q536.057 1331.19 536.057 1336.43 L536.057 1352.07 L531.775 1352.07 L531.775 1336.57 Q531.775 1332.84 530.455 1331.03 Q529.136 1329.23 526.428 1329.23 Q523.118 1329.23 521.196 1331.43 Q519.275 1333.63 519.275 1337.42 L519.275 1352.07 L514.993 1352.07 L514.993 1336.57 Q514.993 1332.82 513.673 1331.03 Q512.354 1329.23 509.599 1329.23 Q506.335 1329.23 504.414 1331.45 Q502.493 1333.65 502.493 1337.42 L502.493 1352.07 L498.21 1352.07 L498.21 1326.15 L502.493 1326.15 L502.493 1330.18 Q503.951 1327.79 505.988 1326.66 Q508.025 1325.52 510.826 1325.52 Q513.65 1325.52 515.618 1326.96 Q517.608 1328.39 518.557 1331.13 Z" fill="#000000" fill-rule="nonzero" fill-opacity="1" /><path clip-path="url(#clip340)" d="M556.335 1339.04 Q551.173 1339.04 549.182 1340.22 Q547.191 1341.4 547.191 1344.25 Q547.191 1346.52 548.673 1347.86 Q550.178 1349.18 552.747 1349.18 Q556.289 1349.18 558.418 1346.68 Q560.571 1344.16 560.571 1339.99 L560.571 1339.04 L556.335 1339.04 M564.83 1337.28 L564.83 1352.07 L560.571 1352.07 L560.571 1348.14 Q559.113 1350.5 556.937 1351.63 Q554.761 1352.75 551.613 1352.75 Q547.631 1352.75 545.27 1350.52 Q542.932 1348.28 542.932 1344.53 Q542.932 1340.15 545.849 1337.93 Q548.789 1335.71 554.599 1335.71 L560.571 1335.71 L560.571 1335.29 Q560.571 1332.35 558.627 1330.76 Q556.705 1329.13 553.21 1329.13 Q550.988 1329.13 548.881 1329.67 Q546.775 1330.2 544.83 1331.26 L544.83 1327.33 Q547.168 1326.43 549.367 1325.99 Q551.566 1325.52 553.65 1325.52 Q559.275 1325.52 562.053 1328.44 Q564.83 1331.36 564.83 1337.28 Z" fill="#000000" fill-rule="nonzero" fill-opacity="1" /><path clip-path="url(#clip340)" d="M577.816 1318.79 L577.816 1326.15 L586.589 1326.15 L586.589 1329.46 L577.816 1329.46 L577.816 1343.53 Q577.816 1346.7 578.673 1347.61 Q579.552 1348.51 582.214 1348.51 L586.589 1348.51 L586.589 1352.07 L582.214 1352.07 Q577.284 1352.07 575.409 1350.25 Q573.534 1348.39 573.534 1343.53 L573.534 1329.46 L570.409 1329.46 L570.409 1326.15 L573.534 1326.15 L573.534 1318.79 L577.816 1318.79 Z" fill="#000000" fill-rule="nonzero" fill-opacity="1" /><path clip-path="url(#clip340)" d="M614.367 1338.05 L614.367 1340.13 L594.784 1340.13 Q595.062 1344.53 597.423 1346.84 Q599.807 1349.13 604.043 1349.13 Q606.497 1349.13 608.788 1348.53 Q611.103 1347.93 613.372 1346.73 L613.372 1350.75 Q611.08 1351.73 608.673 1352.24 Q606.265 1352.75 603.788 1352.75 Q597.585 1352.75 593.95 1349.13 Q590.339 1345.52 590.339 1339.37 Q590.339 1333 593.765 1329.27 Q597.214 1325.52 603.048 1325.52 Q608.279 1325.52 611.312 1328.9 Q614.367 1332.26 614.367 1338.05 M610.108 1336.8 Q610.062 1333.3 608.14 1331.22 Q606.242 1329.13 603.094 1329.13 Q599.529 1329.13 597.376 1331.15 Q595.247 1333.16 594.923 1336.82 L610.108 1336.8 Z" fill="#000000" fill-rule="nonzero" fill-opacity="1" /><polyline clip-path="url(#clip340)" style="stroke:#ff0000; stroke-linecap:round; stroke-linejoin:round; stroke-width:4; stroke-opacity:1; fill:none" points="238.832,1386.63 386.315,1386.63 "/>
<path clip-path="url(#clip340)" d="M431.243 1382.97 Q432.84 1380.1 435.062 1378.73 Q437.285 1377.36 440.294 1377.36 Q444.345 1377.36 446.544 1380.21 Q448.743 1383.03 448.743 1388.27 L448.743 1403.91 L444.461 1403.91 L444.461 1388.41 Q444.461 1384.68 443.141 1382.87 Q441.822 1381.07 439.113 1381.07 Q435.803 1381.07 433.882 1383.27 Q431.961 1385.47 431.961 1389.26 L431.961 1403.91 L427.678 1403.91 L427.678 1388.41 Q427.678 1384.66 426.359 1382.87 Q425.039 1381.07 422.285 1381.07 Q419.021 1381.07 417.1 1383.29 Q415.178 1385.49 415.178 1389.26 L415.178 1403.91 L410.896 1403.91 L410.896 1377.99 L415.178 1377.99 L415.178 1382.02 Q416.637 1379.63 418.674 1378.5 Q420.711 1377.36 423.512 1377.36 Q426.336 1377.36 428.303 1378.8 Q430.294 1380.23 431.243 1382.97 Z" fill="#000000" fill-rule="nonzero" fill-opacity="1" /><path clip-path="url(#clip340)" d="M479.414 1389.89 L479.414 1391.97 L459.831 1391.97 Q460.109 1396.37 462.47 1398.68 Q464.854 1400.97 469.09 1400.97 Q471.544 1400.97 473.835 1400.37 Q476.15 1399.77 478.419 1398.57 L478.419 1402.59 Q476.127 1403.57 473.72 1404.08 Q471.312 1404.59 468.835 1404.59 Q462.632 1404.59 458.998 1400.97 Q455.386 1397.36 455.386 1391.21 Q455.386 1384.84 458.812 1381.11 Q462.261 1377.36 468.095 1377.36 Q473.326 1377.36 476.359 1380.74 Q479.414 1384.1 479.414 1389.89 M475.155 1388.64 Q475.109 1385.14 473.187 1383.06 Q471.289 1380.97 468.141 1380.97 Q464.576 1380.97 462.423 1382.99 Q460.294 1385 459.97 1388.66 L475.155 1388.64 Z" fill="#000000" fill-rule="nonzero" fill-opacity="1" /><path clip-path="url(#clip340)" d="M498.187 1390.88 Q493.025 1390.88 491.034 1392.06 Q489.044 1393.24 489.044 1396.09 Q489.044 1398.36 490.525 1399.7 Q492.03 1401.02 494.599 1401.02 Q498.141 1401.02 500.27 1398.52 Q502.423 1396 502.423 1391.83 L502.423 1390.88 L498.187 1390.88 M506.682 1389.12 L506.682 1403.91 L502.423 1403.91 L502.423 1399.98 Q500.965 1402.34 498.789 1403.47 Q496.613 1404.59 493.465 1404.59 Q489.483 1404.59 487.122 1402.36 Q484.784 1400.12 484.784 1396.37 Q484.784 1391.99 487.701 1389.77 Q490.641 1387.55 496.451 1387.55 L502.423 1387.55 L502.423 1387.13 Q502.423 1384.19 500.479 1382.6 Q498.557 1380.97 495.062 1380.97 Q492.84 1380.97 490.733 1381.51 Q488.627 1382.04 486.683 1383.1 L486.683 1379.17 Q489.021 1378.27 491.22 1377.83 Q493.419 1377.36 495.502 1377.36 Q501.127 1377.36 503.905 1380.28 Q506.682 1383.2 506.682 1389.12 Z" fill="#000000" fill-rule="nonzero" fill-opacity="1" /><path clip-path="url(#clip340)" d="M531.983 1378.75 L531.983 1382.78 Q530.178 1381.85 528.233 1381.39 Q526.289 1380.93 524.206 1380.93 Q521.034 1380.93 519.437 1381.9 Q517.863 1382.87 517.863 1384.82 Q517.863 1386.3 518.997 1387.16 Q520.131 1387.99 523.557 1388.75 L525.016 1389.08 Q529.553 1390.05 531.451 1391.83 Q533.372 1393.59 533.372 1396.76 Q533.372 1400.37 530.502 1402.48 Q527.655 1404.59 522.655 1404.59 Q520.571 1404.59 518.303 1404.17 Q516.057 1403.78 513.557 1402.97 L513.557 1398.57 Q515.919 1399.79 518.21 1400.42 Q520.502 1401.02 522.747 1401.02 Q525.756 1401.02 527.377 1400 Q528.997 1398.96 528.997 1397.09 Q528.997 1395.35 527.817 1394.42 Q526.659 1393.5 522.701 1392.64 L521.219 1392.29 Q517.261 1391.46 515.502 1389.75 Q513.743 1388.01 513.743 1385 Q513.743 1381.35 516.335 1379.35 Q518.928 1377.36 523.696 1377.36 Q526.057 1377.36 528.141 1377.71 Q530.224 1378.06 531.983 1378.75 Z" fill="#000000" fill-rule="nonzero" fill-opacity="1" /><path clip-path="url(#clip340)" d="M539.715 1393.68 L539.715 1377.99 L543.974 1377.99 L543.974 1393.52 Q543.974 1397.2 545.409 1399.05 Q546.844 1400.88 549.715 1400.88 Q553.164 1400.88 555.154 1398.68 Q557.168 1396.48 557.168 1392.69 L557.168 1377.99 L561.428 1377.99 L561.428 1403.91 L557.168 1403.91 L557.168 1399.93 Q555.617 1402.29 553.557 1403.45 Q551.52 1404.59 548.812 1404.59 Q544.344 1404.59 542.029 1401.81 Q539.715 1399.03 539.715 1393.68 M550.432 1377.36 L550.432 1377.36 Z" fill="#000000" fill-rule="nonzero" fill-opacity="1" /><path clip-path="url(#clip340)" d="M585.224 1381.97 Q584.506 1381.55 583.65 1381.37 Q582.816 1381.16 581.798 1381.16 Q578.187 1381.16 576.242 1383.52 Q574.321 1385.86 574.321 1390.26 L574.321 1403.91 L570.039 1403.91 L570.039 1377.99 L574.321 1377.99 L574.321 1382.02 Q575.664 1379.66 577.816 1378.52 Q579.969 1377.36 583.048 1377.36 Q583.488 1377.36 584.02 1377.43 Q584.552 1377.48 585.201 1377.6 L585.224 1381.97 Z" fill="#000000" fill-rule="nonzero" fill-opacity="1" /><path clip-path="url(#clip340)" d="M610.825 1389.89 L610.825 1391.97 L591.242 1391.97 Q591.52 1396.37 593.881 1398.68 Q596.265 1400.97 600.501 1400.97 Q602.955 1400.97 605.247 1400.37 Q607.562 1399.77 609.83 1398.57 L609.83 1402.59 Q607.538 1403.57 605.131 1404.08 Q602.724 1404.59 600.247 1404.59 Q594.043 1404.59 590.409 1400.97 Q586.798 1397.36 586.798 1391.21 Q586.798 1384.84 590.224 1381.11 Q593.673 1377.36 599.506 1377.36 Q604.737 1377.36 607.77 1380.74 Q610.825 1384.1 610.825 1389.89 M606.566 1388.64 Q606.52 1385.14 604.599 1383.06 Q602.7 1380.97 599.552 1380.97 Q595.988 1380.97 593.835 1382.99 Q591.705 1385 591.381 1388.66 L606.566 1388.64 Z" fill="#000000" fill-rule="nonzero" fill-opacity="1" /><path clip-path="url(#clip340)" d="M638.001 1382.97 Q639.598 1380.1 641.821 1378.73 Q644.043 1377.36 647.052 1377.36 Q651.103 1377.36 653.302 1380.21 Q655.501 1383.03 655.501 1388.27 L655.501 1403.91 L651.219 1403.91 L651.219 1388.41 Q651.219 1384.68 649.899 1382.87 Q648.58 1381.07 645.872 1381.07 Q642.561 1381.07 640.64 1383.27 Q638.719 1385.47 638.719 1389.26 L638.719 1403.91 L634.436 1403.91 L634.436 1388.41 Q634.436 1384.66 633.117 1382.87 Q631.798 1381.07 629.043 1381.07 Q625.779 1381.07 623.858 1383.29 Q621.936 1385.49 621.936 1389.26 L621.936 1403.91 L617.654 1403.91 L617.654 1377.99 L621.936 1377.99 L621.936 1382.02 Q623.395 1379.63 625.432 1378.5 Q627.469 1377.36 630.27 1377.36 Q633.094 1377.36 635.061 1378.8 Q637.052 1380.23 638.001 1382.97 Z" fill="#000000" fill-rule="nonzero" fill-opacity="1" /><path clip-path="url(#clip340)" d="M686.172 1389.89 L686.172 1391.97 L666.589 1391.97 Q666.867 1396.37 669.228 1398.68 Q671.612 1400.97 675.848 1400.97 Q678.302 1400.97 680.594 1400.37 Q682.908 1399.77 685.177 1398.57 L685.177 1402.59 Q682.885 1403.57 680.478 1404.08 Q678.07 1404.59 675.594 1404.59 Q669.39 1404.59 665.756 1400.97 Q662.145 1397.36 662.145 1391.21 Q662.145 1384.84 665.57 1381.11 Q669.02 1377.36 674.853 1377.36 Q680.084 1377.36 683.117 1380.74 Q686.172 1384.1 686.172 1389.89 M681.913 1388.64 Q681.867 1385.14 679.945 1383.06 Q678.047 1380.97 674.899 1380.97 Q671.334 1380.97 669.182 1382.99 Q667.052 1385 666.728 1388.66 L681.913 1388.64 Z" fill="#000000" fill-rule="nonzero" fill-opacity="1" /><path clip-path="url(#clip340)" d="M714.714 1388.27 L714.714 1403.91 L710.455 1403.91 L710.455 1388.41 Q710.455 1384.72 709.019 1382.9 Q707.584 1381.07 704.714 1381.07 Q701.265 1381.07 699.274 1383.27 Q697.283 1385.47 697.283 1389.26 L697.283 1403.91 L693.001 1403.91 L693.001 1377.99 L697.283 1377.99 L697.283 1382.02 Q698.811 1379.68 700.871 1378.52 Q702.955 1377.36 705.663 1377.36 Q710.13 1377.36 712.422 1380.14 Q714.714 1382.9 714.714 1388.27 Z" fill="#000000" fill-rule="nonzero" fill-opacity="1" /><path clip-path="url(#clip340)" d="M727.422 1370.63 L727.422 1377.99 L736.195 1377.99 L736.195 1381.3 L727.422 1381.3 L727.422 1395.37 Q727.422 1398.54 728.278 1399.45 Q729.158 1400.35 731.82 1400.35 L736.195 1400.35 L736.195 1403.91 L731.82 1403.91 Q726.89 1403.91 725.015 1402.09 Q723.14 1400.23 723.14 1395.37 L723.14 1381.3 L720.015 1381.3 L720.015 1377.99 L723.14 1377.99 L723.14 1370.63 L727.422 1370.63 Z" fill="#000000" fill-rule="nonzero" fill-opacity="1" /></svg>
