<?xml version="1.0" encoding="utf-8"?>
<svg xmlns="http://www.w3.org/2000/svg" xmlns:xlink="http://www.w3.org/1999/xlink" width="600" height="400" viewBox="0 0 2400 1600">
<defs>
  <clipPath id="clip370">
    <rect x="0" y="0" width="2400" height="1600"/>
  </clipPath>
</defs>
<path clip-path="url(#clip370)" d="M0 1600 L2400 1600 L2400 0 L0 0  Z" fill="#ffffff" fill-rule="evenodd" fill-opacity="1"/>
<defs>
  <clipPath id="clip371">
    <rect x="480" y="0" width="1681" height="1600"/>
  </clipPath>
</defs>
<path clip-path="url(#clip370)" d="M177.871 1486.45 L2352.76 1486.45 L2352.76 47.2441 L177.871 47.2441  Z" fill="#ffffff" fill-rule="evenodd" fill-opacity="1"/>
<defs>
  <clipPath id="clip372">
    <rect x="177" y="47" width="2176" height="1440"/>
  </clipPath>
</defs>
<polyline clip-path="url(#clip372)" style="stroke:#000000; stroke-linecap:round; stroke-linejoin:round; stroke-width:2; stroke-opacity:0.1; fill:none" points="386.075,1486.45 386.075,47.2441 "/>
<polyline clip-path="url(#clip372)" style="stroke:#000000; stroke-linecap:round; stroke-linejoin:round; stroke-width:2; stroke-opacity:0.1; fill:none" points="811.783,1486.45 811.783,47.2441 "/>
<polyline clip-path="url(#clip372)" style="stroke:#000000; stroke-linecap:round; stroke-linejoin:round; stroke-width:2; stroke-opacity:0.1; fill:none" points="1237.49,1486.45 1237.49,47.2441 "/>
<polyline clip-path="url(#clip372)" style="stroke:#000000; stroke-linecap:round; stroke-linejoin:round; stroke-width:2; stroke-opacity:0.1; fill:none" points="1663.2,1486.45 1663.2,47.2441 "/>
<polyline clip-path="url(#clip372)" style="stroke:#000000; stroke-linecap:round; stroke-linejoin:round; stroke-width:2; stroke-opacity:0.1; fill:none" points="2088.91,1486.45 2088.91,47.2441 "/>
<polyline clip-path="url(#clip372)" style="stroke:#000000; stroke-linecap:round; stroke-linejoin:round; stroke-width:2; stroke-opacity:0.1; fill:none" points="177.871,1480.19 2352.76,1480.19 "/>
<polyline clip-path="url(#clip372)" style="stroke:#000000; stroke-linecap:round; stroke-linejoin:round; stroke-width:2; stroke-opacity:0.1; fill:none" points="177.871,1174.42 2352.76,1174.42 "/>
<polyline clip-path="url(#clip372)" style="stroke:#000000; stroke-linecap:round; stroke-linejoin:round; stroke-width:2; stroke-opacity:0.1; fill:none" points="177.871,868.643 2352.76,868.643 "/>
<polyline clip-path="url(#clip372)" style="stroke:#000000; stroke-linecap:round; stroke-linejoin:round; stroke-width:2; stroke-opacity:0.1; fill:none" points="177.871,562.87 2352.76,562.87 "/>
<polyline clip-path="url(#clip372)" style="stroke:#000000; stroke-linecap:round; stroke-linejoin:round; stroke-width:2; stroke-opacity:0.1; fill:none" points="177.871,257.097 2352.76,257.097 "/>
<polyline clip-path="url(#clip370)" style="stroke:#000000; stroke-linecap:round; stroke-linejoin:round; stroke-width:4; stroke-opacity:1; fill:none" points="177.871,1486.45 2352.76,1486.45 "/>
<polyline clip-path="url(#clip370)" style="stroke:#000000; stroke-linecap:round; stroke-linejoin:round; stroke-width:4; stroke-opacity:1; fill:none" points="386.075,1486.45 386.075,1467.55 "/>
<polyline clip-path="url(#clip370)" style="stroke:#000000; stroke-linecap:round; stroke-linejoin:round; stroke-width:4; stroke-opacity:1; fill:none" points="811.783,1486.45 811.783,1467.55 "/>
<polyline clip-path="url(#clip370)" style="stroke:#000000; stroke-linecap:round; stroke-linejoin:round; stroke-width:4; stroke-opacity:1; fill:none" points="1237.49,1486.45 1237.49,1467.55 "/>
<polyline clip-path="url(#clip370)" style="stroke:#000000; stroke-linecap:round; stroke-linejoin:round; stroke-width:4; stroke-opacity:1; fill:none" points="1663.2,1486.45 1663.2,1467.55 "/>
<polyline clip-path="url(#clip370)" style="stroke:#000000; stroke-linecap:round; stroke-linejoin:round; stroke-width:4; stroke-opacity:1; fill:none" points="2088.91,1486.45 2088.91,1467.55 "/>
<path clip-path="url(#clip370)" d="M340.138 1532.02 L369.813 1532.02 L369.813 1535.95 L340.138 1535.95 L340.138 1532.02 Z" fill="#000000" fill-rule="nonzero" fill-opacity="1" /><path clip-path="url(#clip370)" d="M394.072 1530.21 Q397.429 1530.93 399.304 1533.2 Q401.202 1535.47 401.202 1538.8 Q401.202 1543.92 397.684 1546.72 Q394.165 1549.52 387.684 1549.52 Q385.508 1549.52 383.193 1549.08 Q380.901 1548.66 378.448 1547.81 L378.448 1543.29 Q380.392 1544.43 382.707 1545.01 Q385.022 1545.58 387.545 1545.58 Q391.943 1545.58 394.234 1543.85 Q396.549 1542.11 396.549 1538.8 Q396.549 1535.75 394.397 1534.03 Q392.267 1532.3 388.447 1532.3 L384.42 1532.3 L384.42 1528.45 L388.633 1528.45 Q392.082 1528.45 393.91 1527.09 Q395.739 1525.7 395.739 1523.11 Q395.739 1520.45 393.841 1519.03 Q391.966 1517.6 388.447 1517.6 Q386.526 1517.6 384.327 1518.01 Q382.128 1518.43 379.489 1519.31 L379.489 1515.14 Q382.151 1514.4 384.466 1514.03 Q386.804 1513.66 388.864 1513.66 Q394.188 1513.66 397.29 1516.09 Q400.392 1518.5 400.392 1522.62 Q400.392 1525.49 398.748 1527.48 Q397.105 1529.45 394.072 1530.21 Z" fill="#000000" fill-rule="nonzero" fill-opacity="1" /><path clip-path="url(#clip370)" d="M420.068 1517.37 Q416.457 1517.37 414.628 1520.93 Q412.822 1524.47 412.822 1531.6 Q412.822 1538.71 414.628 1542.27 Q416.457 1545.82 420.068 1545.82 Q423.702 1545.82 425.507 1542.27 Q427.336 1538.71 427.336 1531.6 Q427.336 1524.47 425.507 1520.93 Q423.702 1517.37 420.068 1517.37 M420.068 1513.66 Q425.878 1513.66 428.933 1518.27 Q432.012 1522.85 432.012 1531.6 Q432.012 1540.33 428.933 1544.94 Q425.878 1549.52 420.068 1549.52 Q414.258 1549.52 411.179 1544.94 Q408.123 1540.33 408.123 1531.6 Q408.123 1522.85 411.179 1518.27 Q414.258 1513.66 420.068 1513.66 Z" fill="#000000" fill-rule="nonzero" fill-opacity="1" /><path clip-path="url(#clip370)" d="M811.783 1517.37 Q808.172 1517.37 806.343 1520.93 Q804.538 1524.47 804.538 1531.6 Q804.538 1538.71 806.343 1542.27 Q808.172 1545.82 811.783 1545.82 Q815.417 1545.82 817.223 1542.27 Q819.052 1538.71 819.052 1531.6 Q819.052 1524.47 817.223 1520.93 Q815.417 1517.37 811.783 1517.37 M811.783 1513.66 Q817.593 1513.66 820.649 1518.27 Q823.728 1522.85 823.728 1531.6 Q823.728 1540.33 820.649 1544.94 Q817.593 1549.52 811.783 1549.52 Q805.973 1549.52 802.894 1544.94 Q799.839 1540.33 799.839 1531.6 Q799.839 1522.85 802.894 1518.27 Q805.973 1513.66 811.783 1513.66 Z" fill="#000000" fill-rule="nonzero" fill-opacity="1" /><path clip-path="url(#clip370)" d="M1226.33 1530.21 Q1229.69 1530.93 1231.57 1533.2 Q1233.46 1535.47 1233.46 1538.8 Q1233.46 1543.92 1229.95 1546.72 Q1226.43 1549.52 1219.95 1549.52 Q1217.77 1549.52 1215.45 1549.08 Q1213.16 1548.66 1210.71 1547.81 L1210.71 1543.29 Q1212.65 1544.43 1214.97 1545.01 Q1217.28 1545.58 1219.81 1545.58 Q1224.2 1545.58 1226.5 1543.85 Q1228.81 1542.11 1228.81 1538.8 Q1228.81 1535.75 1226.66 1534.03 Q1224.53 1532.3 1220.71 1532.3 L1216.68 1532.3 L1216.68 1528.45 L1220.89 1528.45 Q1224.34 1528.45 1226.17 1527.09 Q1228 1525.7 1228 1523.11 Q1228 1520.45 1226.1 1519.03 Q1224.23 1517.6 1220.71 1517.6 Q1218.79 1517.6 1216.59 1518.01 Q1214.39 1518.43 1211.75 1519.31 L1211.75 1515.14 Q1214.41 1514.4 1216.73 1514.03 Q1219.07 1513.66 1221.13 1513.66 Q1226.45 1513.66 1229.55 1516.09 Q1232.65 1518.5 1232.65 1522.62 Q1232.65 1525.49 1231.01 1527.48 Q1229.37 1529.45 1226.33 1530.21 Z" fill="#000000" fill-rule="nonzero" fill-opacity="1" /><path clip-path="url(#clip370)" d="M1252.33 1517.37 Q1248.72 1517.37 1246.89 1520.93 Q1245.08 1524.47 1245.08 1531.6 Q1245.08 1538.71 1246.89 1542.27 Q1248.72 1545.82 1252.33 1545.82 Q1255.96 1545.82 1257.77 1542.27 Q1259.6 1538.71 1259.6 1531.6 Q1259.6 1524.47 1257.77 1520.93 Q1255.96 1517.37 1252.33 1517.37 M1252.33 1513.66 Q1258.14 1513.66 1261.2 1518.27 Q1264.27 1522.85 1264.27 1531.6 Q1264.27 1540.33 1261.2 1544.94 Q1258.14 1549.52 1252.33 1549.52 Q1246.52 1549.52 1243.44 1544.94 Q1240.38 1540.33 1240.38 1531.6 Q1240.38 1522.85 1243.44 1518.27 Q1246.52 1513.66 1252.33 1513.66 Z" fill="#000000" fill-rule="nonzero" fill-opacity="1" /><path clip-path="url(#clip370)" d="M1648.61 1529.7 Q1645.46 1529.7 1643.61 1531.86 Q1641.78 1534.01 1641.78 1537.76 Q1641.78 1541.49 1643.61 1543.66 Q1645.46 1545.82 1648.61 1545.82 Q1651.75 1545.82 1653.58 1543.66 Q1655.43 1541.49 1655.43 1537.76 Q1655.43 1534.01 1653.58 1531.86 Q1651.75 1529.7 1648.61 1529.7 M1657.89 1515.05 L1657.89 1519.31 Q1656.13 1518.48 1654.32 1518.04 Q1652.54 1517.6 1650.78 1517.6 Q1646.15 1517.6 1643.7 1520.72 Q1641.27 1523.85 1640.92 1530.17 Q1642.29 1528.15 1644.35 1527.09 Q1646.41 1526 1648.88 1526 Q1654.09 1526 1657.1 1529.17 Q1660.13 1532.32 1660.13 1537.76 Q1660.13 1543.08 1656.98 1546.3 Q1653.84 1549.52 1648.61 1549.52 Q1642.61 1549.52 1639.44 1544.94 Q1636.27 1540.33 1636.27 1531.6 Q1636.27 1523.41 1640.16 1518.55 Q1644.04 1513.66 1650.6 1513.66 Q1652.35 1513.66 1654.14 1514.01 Q1655.94 1514.36 1657.89 1515.05 Z" fill="#000000" fill-rule="nonzero" fill-opacity="1" /><path clip-path="url(#clip370)" d="M1678.19 1517.37 Q1674.58 1517.37 1672.75 1520.93 Q1670.94 1524.47 1670.94 1531.6 Q1670.94 1538.71 1672.75 1542.27 Q1674.58 1545.82 1678.19 1545.82 Q1681.82 1545.82 1683.63 1542.27 Q1685.46 1538.71 1685.46 1531.6 Q1685.46 1524.47 1683.63 1520.93 Q1681.82 1517.37 1678.19 1517.37 M1678.19 1513.66 Q1684 1513.66 1687.05 1518.27 Q1690.13 1522.85 1690.13 1531.6 Q1690.13 1540.33 1687.05 1544.94 Q1684 1549.52 1678.19 1549.52 Q1672.38 1549.52 1669.3 1544.94 Q1666.24 1540.33 1666.24 1531.6 Q1666.24 1522.85 1669.3 1518.27 Q1672.38 1513.66 1678.19 1513.66 Z" fill="#000000" fill-rule="nonzero" fill-opacity="1" /><path clip-path="url(#clip370)" d="M2064.04 1548.13 L2064.04 1543.87 Q2065.79 1544.7 2067.6 1545.14 Q2069.41 1545.58 2071.14 1545.58 Q2075.77 1545.58 2078.2 1542.48 Q2080.66 1539.36 2081 1533.01 Q2079.66 1535.01 2077.6 1536.07 Q2075.54 1537.13 2073.04 1537.13 Q2067.86 1537.13 2064.82 1534.01 Q2061.81 1530.86 2061.81 1525.42 Q2061.81 1520.1 2064.96 1516.88 Q2068.11 1513.66 2073.34 1513.66 Q2079.34 1513.66 2082.48 1518.27 Q2085.66 1522.85 2085.66 1531.6 Q2085.66 1539.77 2081.77 1544.66 Q2077.9 1549.52 2071.35 1549.52 Q2069.59 1549.52 2067.79 1549.17 Q2065.98 1548.82 2064.04 1548.13 M2073.34 1533.48 Q2076.49 1533.48 2078.32 1531.32 Q2080.17 1529.17 2080.17 1525.42 Q2080.17 1521.7 2078.32 1519.54 Q2076.49 1517.37 2073.34 1517.37 Q2070.19 1517.37 2068.34 1519.54 Q2066.51 1521.7 2066.51 1525.42 Q2066.51 1529.17 2068.34 1531.32 Q2070.19 1533.48 2073.34 1533.48 Z" fill="#000000" fill-rule="nonzero" fill-opacity="1" /><path clip-path="url(#clip370)" d="M2104.06 1517.37 Q2100.45 1517.37 2098.62 1520.93 Q2096.81 1524.47 2096.81 1531.6 Q2096.81 1538.71 2098.62 1542.27 Q2100.45 1545.82 2104.06 1545.82 Q2107.69 1545.82 2109.5 1542.27 Q2111.33 1538.71 2111.33 1531.6 Q2111.33 1524.47 2109.5 1520.93 Q2107.69 1517.37 2104.06 1517.37 M2104.06 1513.66 Q2109.87 1513.66 2112.92 1518.27 Q2116 1522.85 2116 1531.6 Q2116 1540.33 2112.92 1544.94 Q2109.87 1549.52 2104.06 1549.52 Q2098.25 1549.52 2095.17 1544.94 Q2092.11 1540.33 2092.11 1531.6 Q2092.11 1522.85 2095.17 1518.27 Q2098.25 1513.66 2104.06 1513.66 Z" fill="#000000" fill-rule="nonzero" fill-opacity="1" /><polyline clip-path="url(#clip370)" style="stroke:#000000; stroke-linecap:round; stroke-linejoin:round; stroke-width:4; stroke-opacity:1; fill:none" points="177.871,1486.45 177.871,47.2441 "/>
<polyline clip-path="url(#clip370)" style="stroke:#000000; stroke-linecap:round; stroke-linejoin:round; stroke-width:4; stroke-opacity:1; fill:none" points="177.871,1480.19 196.769,1480.19 "/>
<polyline clip-path="url(#clip370)" style="stroke:#000000; stroke-linecap:round; stroke-linejoin:round; stroke-width:4; stroke-opacity:1; fill:none" points="177.871,1174.42 196.769,1174.42 "/>
<polyline clip-path="url(#clip370)" style="stroke:#000000; stroke-linecap:round; stroke-linejoin:round; stroke-width:4; stroke-opacity:1; fill:none" points="177.871,868.643 196.769,868.643 "/>
<polyline clip-path="url(#clip370)" style="stroke:#000000; stroke-linecap:round; stroke-linejoin:round; stroke-width:4; stroke-opacity:1; fill:none" points="177.871,562.87 196.769,562.87 "/>
<polyline clip-path="url(#clip370)" style="stroke:#000000; stroke-linecap:round; stroke-linejoin:round; stroke-width:4; stroke-opacity:1; fill:none" points="177.871,257.097 196.769,257.097 "/>
<path clip-path="url(#clip370)" d="M50.9921 1480.64 L80.6679 1480.64 L80.6679 1484.58 L50.9921 1484.58 L50.9921 1480.64 Z" fill="#000000" fill-rule="nonzero" fill-opacity="1" /><path clip-path="url(#clip370)" d="M94.7882 1493.53 L111.108 1493.53 L111.108 1497.47 L89.1632 1497.47 L89.1632 1493.53 Q91.8252 1490.78 96.4085 1486.15 Q101.015 1481.5 102.196 1480.15 Q104.441 1477.63 105.321 1475.9 Q106.223 1474.14 106.223 1472.45 Q106.223 1469.69 104.279 1467.96 Q102.358 1466.22 99.2558 1466.22 Q97.0567 1466.22 94.603 1466.98 Q92.1725 1467.75 89.3947 1469.3 L89.3947 1464.58 Q92.2188 1463.44 94.6724 1462.86 Q97.1261 1462.28 99.1632 1462.28 Q104.534 1462.28 107.728 1464.97 Q110.922 1467.65 110.922 1472.15 Q110.922 1474.28 110.112 1476.2 Q109.325 1478.09 107.219 1480.69 Q106.64 1481.36 103.538 1484.58 Q100.436 1487.77 94.7882 1493.53 Z" fill="#000000" fill-rule="nonzero" fill-opacity="1" /><path clip-path="url(#clip370)" d="M120.969 1462.91 L139.325 1462.91 L139.325 1466.84 L125.251 1466.84 L125.251 1475.32 Q126.27 1474.97 127.288 1474.81 Q128.307 1474.62 129.325 1474.62 Q135.112 1474.62 138.492 1477.79 Q141.871 1480.96 141.871 1486.38 Q141.871 1491.96 138.399 1495.06 Q134.927 1498.14 128.607 1498.14 Q126.432 1498.14 124.163 1497.77 Q121.918 1497.4 119.51 1496.66 L119.51 1491.96 Q121.594 1493.09 123.816 1493.65 Q126.038 1494.21 128.515 1494.21 Q132.519 1494.21 134.857 1492.1 Q137.195 1489.99 137.195 1486.38 Q137.195 1482.77 134.857 1480.66 Q132.519 1478.56 128.515 1478.56 Q126.64 1478.56 124.765 1478.97 Q122.913 1479.39 120.969 1480.27 L120.969 1462.91 Z" fill="#000000" fill-rule="nonzero" fill-opacity="1" /><path clip-path="url(#clip370)" d="M129.927 1160.22 Q126.316 1160.22 124.487 1163.78 Q122.682 1167.32 122.682 1174.45 Q122.682 1181.56 124.487 1185.12 Q126.316 1188.66 129.927 1188.66 Q133.561 1188.66 135.367 1185.12 Q137.195 1181.56 137.195 1174.45 Q137.195 1167.32 135.367 1163.78 Q133.561 1160.22 129.927 1160.22 M129.927 1156.51 Q135.737 1156.51 138.793 1161.12 Q141.871 1165.7 141.871 1174.45 Q141.871 1183.18 138.793 1187.78 Q135.737 1192.37 129.927 1192.37 Q124.117 1192.37 121.038 1187.78 Q117.983 1183.18 117.983 1174.45 Q117.983 1165.7 121.038 1161.12 Q124.117 1156.51 129.927 1156.51 Z" fill="#000000" fill-rule="nonzero" fill-opacity="1" /><path clip-path="url(#clip370)" d="M94.7882 881.988 L111.108 881.988 L111.108 885.923 L89.1632 885.923 L89.1632 881.988 Q91.8252 879.234 96.4085 874.604 Q101.015 869.951 102.196 868.609 Q104.441 866.085 105.321 864.349 Q106.223 862.59 106.223 860.9 Q106.223 858.146 104.279 856.41 Q102.358 854.673 99.2558 854.673 Q97.0567 854.673 94.603 855.437 Q92.1725 856.201 89.3947 857.752 L89.3947 853.03 Q92.2188 851.896 94.6724 851.317 Q97.1261 850.738 99.1632 850.738 Q104.534 850.738 107.728 853.423 Q110.922 856.109 110.922 860.599 Q110.922 862.729 110.112 864.65 Q109.325 866.548 107.219 869.141 Q106.64 869.812 103.538 873.03 Q100.436 876.224 94.7882 881.988 Z" fill="#000000" fill-rule="nonzero" fill-opacity="1" /><path clip-path="url(#clip370)" d="M120.969 851.363 L139.325 851.363 L139.325 855.298 L125.251 855.298 L125.251 863.771 Q126.27 863.423 127.288 863.261 Q128.307 863.076 129.325 863.076 Q135.112 863.076 138.492 866.247 Q141.871 869.419 141.871 874.835 Q141.871 880.414 138.399 883.516 Q134.927 886.595 128.607 886.595 Q126.432 886.595 124.163 886.224 Q121.918 885.854 119.51 885.113 L119.51 880.414 Q121.594 881.548 123.816 882.104 Q126.038 882.659 128.515 882.659 Q132.519 882.659 134.857 880.553 Q137.195 878.446 137.195 874.835 Q137.195 871.224 134.857 869.118 Q132.519 867.011 128.515 867.011 Q126.64 867.011 124.765 867.428 Q122.913 867.845 120.969 868.724 L120.969 851.363 Z" fill="#000000" fill-rule="nonzero" fill-opacity="1" /><path clip-path="url(#clip370)" d="M89.8114 545.59 L108.168 545.59 L108.168 549.525 L94.0937 549.525 L94.0937 557.998 Q95.1123 557.65 96.1308 557.488 Q97.1493 557.303 98.1678 557.303 Q103.955 557.303 107.334 560.474 Q110.714 563.646 110.714 569.062 Q110.714 574.641 107.242 577.743 Q103.77 580.821 97.4502 580.821 Q95.2743 580.821 93.0058 580.451 Q90.7604 580.081 88.353 579.34 L88.353 574.641 Q90.4364 575.775 92.6586 576.331 Q94.8808 576.886 97.3576 576.886 Q101.362 576.886 103.7 574.78 Q106.038 572.673 106.038 569.062 Q106.038 565.451 103.7 563.345 Q101.362 561.238 97.3576 561.238 Q95.4826 561.238 93.6076 561.655 Q91.7558 562.072 89.8114 562.951 L89.8114 545.59 Z" fill="#000000" fill-rule="nonzero" fill-opacity="1" /><path clip-path="url(#clip370)" d="M129.927 548.669 Q126.316 548.669 124.487 552.234 Q122.682 555.775 122.682 562.905 Q122.682 570.011 124.487 573.576 Q126.316 577.118 129.927 577.118 Q133.561 577.118 135.367 573.576 Q137.195 570.011 137.195 562.905 Q137.195 555.775 135.367 552.234 Q133.561 548.669 129.927 548.669 M129.927 544.965 Q135.737 544.965 138.793 549.572 Q141.871 554.155 141.871 562.905 Q141.871 571.632 138.793 576.238 Q135.737 580.821 129.927 580.821 Q124.117 580.821 121.038 576.238 Q117.983 571.632 117.983 562.905 Q117.983 554.155 121.038 549.572 Q124.117 544.965 129.927 544.965 Z" fill="#000000" fill-rule="nonzero" fill-opacity="1" /><path clip-path="url(#clip370)" d="M89.5799 239.817 L111.802 239.817 L111.802 241.808 L99.2558 274.377 L94.3715 274.377 L106.177 243.752 L89.5799 243.752 L89.5799 239.817 Z" fill="#000000" fill-rule="nonzero" fill-opacity="1" /><path clip-path="url(#clip370)" d="M120.969 239.817 L139.325 239.817 L139.325 243.752 L125.251 243.752 L125.251 252.224 Q126.27 251.877 127.288 251.715 Q128.307 251.53 129.325 251.53 Q135.112 251.53 138.492 254.701 Q141.871 257.873 141.871 263.289 Q141.871 268.868 138.399 271.97 Q134.927 275.048 128.607 275.048 Q126.432 275.048 124.163 274.678 Q121.918 274.308 119.51 273.567 L119.51 268.868 Q121.594 270.002 123.816 270.558 Q126.038 271.113 128.515 271.113 Q132.519 271.113 134.857 269.007 Q137.195 266.9 137.195 263.289 Q137.195 259.678 134.857 257.572 Q132.519 255.465 128.515 255.465 Q126.64 255.465 124.765 255.882 Q122.913 256.299 120.969 257.178 L120.969 239.817 Z" fill="#000000" fill-rule="nonzero" fill-opacity="1" /><polyline clip-path="url(#clip372)" style="stroke:#0000ff; stroke-linecap:round; stroke-linejoin:round; stroke-width:4; stroke-opacity:1; fill:none" points="239.425,714.177 261.558,719.622 269.117,716.068 287.577,714.452 296.484,714.077 317.995,717.349 337.725,721.894 363.4,723.869 390.037,725.719 419.918,730.278 448.692,729.944 472.826,730.249 508.713,731.651 529.748,737.299 552.191,741.446 586.874,744.69 611.755,746.274 632.493,750.833 661.389,757.707 684.354,764.967 706.441,773.212 729.376,779.745 757.113,786.66 779.912,795.482 805.446,800.519 835.747,807.965 857.751,807.029 892.171,809.26 916.494,817.775 941.978,825.968 972.527,835.431 996.505,843.825 1021.91,850.779 1039.93,860.655 1057.37,872.871 1064.59,878.229 1085.85,880.689 1102.88,882.516 1124.97,883.984 1150.9,887.2 1176.96,897.714 1203.5,908.311 1224.96,913.187 1250.19,916.199 1282.15,917.246 1310.39,918.456 1342.47,923.29 1370.23,928.309 1396.02,931.426 1420.41,934.14 1452.12,933.646 1475.83,933.223 1502.39,932.789 1528.39,929.889 1557.53,924.401 1585.64,925.298 1612.63,923.733 1638.03,923.97 1658.03,917.482 1675.47,914.259 1692.12,907.316 1709.62,901.152 1730.57,901.451 1752.99,899.438 1774.83,901.152 1794.05,904.904 1815.44,911.915 1834.91,924.025 1855.58,936.99 1871.05,947.945 1886.57,964.489 1896.1,978.413 1903.29,992.036 1912.79,1010.92 1924.54,1028.49 1937.67,1046.98 1948.51,1057.12 1967.42,1063.59 1981.35,1066.33 1990.74,1064.74 2012.87,1057.82 2028.8,1052.87 2049.74,1031.61 2060.53,1016.69 2062.82,996.36 2064.35,978.133 2062.38,956.932 2048.55,941.794 2029.57,935.821 2008.13,927.233 1981.08,928.76 1956.81,927.896 1936.07,924.517 1917.57,921.652 1895.93,919.148 1876.91,925.513 1855.39,932.481 1839.46,940.558 1816.6,943.099 1791.79,941.643 1764.55,937.048 1743.08,925.904 1721.47,914.59 1690.89,899.487 1665.23,882.116 1643.05,864.089 1628.33,849.76 1617.32,837.131 1601.23,823.499 1587.25,807.241 1575.95,791.775 1568.22,775.213 1568.73,759.787 1582.6,744.321 1598.17,732.746 1619.04,725.789 1635.28,725.485 1663.03,727.653 1682.7,740.079 1702.93,748.185 1716.46,753.925 1738,759.831 1759.87,770.342 1771.26,779.221 1788.3,789.937 1806.64,800.399 1828.49,807.837 1848.76,809.218 1870.1,809.247 1894.16,801.698 1914.35,797.399 1929.91,797.04 1948.98,805.497 1965.58,817.762 1979.85,833.074 1988.21,850.018 1995.82,869.859 2003.82,891.481 2008.1,910.671 2007.61,931.165 2007.57,941.209 2010.6,954.212 2021.63,973.186 2029.16,990.821 2041.2,1005.23 2052.3,1011.8 2065.2,1014.78 2083.59,1009.74 2101.12,1002.43 2114.57,992.819 2131.58,980.582 2140.46,972.237 2143.75,953.231 2131.38,936.903 2113.36,920.209 2099.4,903.542 2076.65,894.144 2048.77,890.796 2022.56,886.512 2006.42,882.979 1982.6,880.473 1962.64,877.184 1944.94,866.184 1930.24,859.812 1908.53,853.689 1892.96,853.81 1870.99,856.246 1850.89,850.829 1830.31,845.477 1811.19,844.456 1786.62,840.824 1769.29,836.248 1752.84,831.642 1731.07,830.162 1703.47,832.163 1677.29,838.47 1662.25,836.969 1658.63,828.213 1654.36,825.001 1647.47,823.925 1636.4,822.8 1627.73,822.131 1613.6,826.951 1599.6,833.785 1574.23,838.207 1553.29,841.716 1538.75,847.644 1529.56,856.311 1538.1,857.074 1557.6,855.388 1589.89,850.126 1605.2,832.096 1620.13,817.243 1625.14,801.437 1617.01,784.839 1602.01,767.184 1591.18,756.295 1581.4,735.587 1562.56,725.583 1541.7,737.346 1520.19,737.782 1490.85,732.279 1488.01,712.991 1482.71,694.576 1484.38,674.259 1489.35,657.804 1504.15,636.091 1512.54,616.525 1514.02,593.463 1496.36,580.959 1474.97,572.827 1465.4,571.004 1476.19,558.564 1498.05,547.205 1533.37,546.988 1570.24,532.842 1596.08,515.926 1614.15,491.667 1628.57,470.881 1648.87,461.589 1674.66,465.694 1697.95,471.302 1717.05,489.154 1744.25,501.313 1763.66,517.402 1772.93,537.988 1762.07,555.126 1743.59,571.347 1716.98,584.309 1683.69,589.501 1658.25,589.631 1625.85,574.201 1599.87,559.582 1590.07,538.13 1588.63,516.446 1607.55,501.297 1622.29,490.679 1644.53,476.974 1669.23,468.646 1689.97,452.579 1712.76,441.399 1732.8,440.167 1755.33,425.396 1758.92,411.268 1768.74,394.592 1782.18,388.951 1799.13,371.576 1791,357.391 1770.19,347.675 1765.79,346.196 1777.88,341.634 1801.84,335.045 1830.8,340.222 1856.25,343.283 1882.78,348.443 1906.23,365.842 1908.58,385.288 1905.98,397.607 1883.59,407.676 1867.87,430.444 1853.48,457.175 1843.72,489.565 1845.54,510.688 1809.33,512.289 1786.84,528.108 1755.12,533.93 1725.31,551.729 1708.56,576.805 1689.65,594.233 1662.77,587.964 1640.16,576.86 1613.23,568.44 1599.42,555.128 1572.96,539.231 1565.15,531.454 1573.14,509.885 1597.19,501.397 1632.35,495.561 1660.84,500.206 1694.52,507.623 1722.64,521.695 1730.04,542.848 1744.27,564.21 1760.97,568.511 1786.01,573.146 1809.35,583.511 1819.55,585.715 1844.82,577.919 1869.18,570.426 1888.13,560.945 1908.6,563.77 1926.93,578.782 1925.98,597.028 1925.64,618.62 1912.35,650.547 1890.96,675.332 1867.38,694.616 1846.12,724.337 1844.55,749.023 1809.27,760.827 1781.55,765.355 1754.1,779.532 1728.41,793.646 1711.33,812.701 1695.66,833.716 1670.28,856.836 1644.16,865.117 1617.56,856.431 1592.98,850.77 1561.78,846.587 1534.05,838.494 1514.48,816.998 1500.08,797.24 1469.79,774.444 1453.67,755.241 1428.33,738.76 1404.33,736.137 1374.59,741.372 1355.88,739.676 1331.31,731.292 1326.42,704.953 1308.87,695.928 1284.63,700.865 1267.13,710.75 1242.67,727.075 1237.23,733.805 1207.38,736.754 1184.19,742.695 1158.8,735.147 1137.77,717.345 1115.44,704.241 1081.07,698.413 1048.56,690.472 1027.02,685.336 1007,673.946 986.917,654.038 986.515,640.612 996.505,621.475 1012.4,601.337 1023.89,578.327 1030.04,547.756 1036.85,523.407 1021.01,503.817 1001.85,498.453 991.67,487.354 997.999,474.032 1023.69,474.897 1060.22,477.821 1100.06,475.999 1132.02,471.962 1158.66,453.879 1183.15,428.616 1208.09,409.085 1238.48,403.679 1277.79,405.398 1308.55,417.616 1339.49,433.323 1368.92,446.294 1395.65,458.011 1417.34,471.897 1452.46,478.768 1477.66,493.165 1503.84,515.458 1534.7,542.692 1561.63,558.271 1585.05,568.628 1603.34,579.305 1612.66,569.502 1633.17,559.863 1659.72,546.552 1683.22,536.703 1712.24,525.751 1745.21,524.438 1779.78,533.586 1806.11,558.424 1813.02,579.761 1809.7,612.002 1791.78,644.984 1789.15,671.609 1782.07,702.896 1782.23,736.821 1798.75,766.889 1829.43,791.683 1868.41,790.304 1890.07,793.362 1920.33,800.485 1939.33,821.568 1965.08,846.842 1984.82,878.965 1997.02,911.974 2001.72,933.923 2017.27,915.191 2052.5,920.928 2080.06,927.038 2091.5,943.419 2094.78,947.632 2094.59,951.972 2098.89,968.08 2102.53,974.576 2115.73,978.281 2132.62,980.331 2161.3,974.08 2188.91,982.49 2201.26,996.154 2214.77,1018.07 2214.56,1031.62 2218.49,1016.86 2223.25,998.475 2221.38,971.549 2211.56,945.536 2195.13,921.91 2184.33,899.81 2186.18,879.502 2158.66,858.126 2151.41,826.959 2156.77,802.046 2175.72,792.315 2195.73,794.484 2219.64,802.75 2235.45,815.361 2246.83,835.11 2272.5,857.862 2287.21,878.944 2277.47,906.375 2258.09,928.26 2241.31,948.62 2210.81,959.421 2191.86,978.911 2165.14,992.214 2137.91,1014.62 2119.77,1035.25 2108.97,1058.41 2089.98,1081.56 2072.35,1104.21 2047.18,1121.55 2021.37,1133.02 1990.51,1149.61 1965.27,1166.62 1937.56,1174.27 1909.83,1194.76 1893.41,1211.48 1861.61,1223.29 1842.61,1237.71 1824.9,1257.55 1807.37,1285.36 1799.77,1305.06 1795.38,1325.44 1789.01,1349.58 1811.3,1370.79 1820.56,1385.79 1813.35,1409.06 1805.69,1434.51 1785.83,1438.14 1762.93,1435.87 1740.93,1417.43 1729.52,1390.03 1715.72,1368.73 1692.19,1346.65 1654.4,1321.41 1623.15,1313.95 1588.89,1312.96 1552.45,1320.94 1511.64,1331.52 1484.59,1330.96 1450.92,1320.14 1426.2,1307.08 1406.63,1282.84 1404.5,1249.67 1399.55,1209.28 1378.49,1182.54 1357.43,1161.67 1363.64,1130.98 1360.77,1103.19 1352.79,1078.97 1340.94,1051.18 1322.6,1027.15 1317.61,1000.9 1323.41,967.225 1332.92,933.704 1351.77,904.571 1366.63,873.636 1380.33,842.358 1407.32,821.623 1401.12,793.799 1386.39,769.7 1356.63,746.101 1323.76,743.817 1304.05,729.991 1296.62,704.285 1292.27,671.803 1305.52,644.702 1319.67,624.015 1341.04,615.723 1372.2,603.874 1409.04,598.325 1449.34,594.182 1486.72,594.68 1514.58,586.991 1536.67,561.143 1555.11,540.274 1582.95,527.45 1604.85,520.786 1606.82,505.959 1594.02,493.104 1572.59,477.864 1546.64,465.022 1519.06,437.62 1496.43,411.9 1483.64,386.177 1466.79,366.298 1462.77,348.448 1470.28,327.921 1488.61,318.737 1505.4,328.242 1535.43,332.481 1574.27,334.602 1609.49,343.693 1649.47,349.804 1681.95,353.476 1712.58,367.162 1735.31,374.128 1760.81,366.827 1783.66,356.227 1814.75,350.732 1847.15,351.143 1878.37,345.053 1901.06,360.528 1911.7,377.549 1916.82,369.984 1926.41,353.472 1944.1,336.935 1962.13,325.149 1985.4,310.697 2005.16,302.886 1992.97,303.669 1971.53,291.236 1962.31,274.017 1951.03,244.829 1954.29,215.911 1966.18,200.29 1994.3,190.711 2027.49,194.628 2052.46,199.15 2085.79,202.802 2120.94,215.188 2143.3,237.805 2146.89,266.427 2140.35,293.426 2127.99,301.463 2132.83,317.604 2137.1,339.778 2133.93,371.71 2103.83,388.315 2084.45,423.981 2056.98,445.751 2035.46,471.253 2028.44,505.693 2002.25,512.232 1967.13,514.652 1932.59,527.845 1901.28,540.468 1886.34,567.686 1874.64,598.372 1874.85,614.721 1901.22,619.277 1930.77,633.093 1967.53,647.304 2001.29,671.227 2029.14,686.247 2066.31,690.999 2100.16,691.201 2138.99,687.318 2167.62,692.218 2193.12,690.761 2204.47,675.666 2217.35,656.598 2233.37,636.78 2231.6,611.551 2227.54,593.054 2217.91,569.319 2191.74,546.849 2169.93,528.552 2145.91,514.245 2103.82,516.368 2079.06,522.212 2055.84,540.883 2038.72,560.135 2013.2,585.219 2009.84,614.358 2014.06,646.171 2018.69,676.222 2036.33,702.156 2047.9,727.324 2062.07,760.358 2076.97,790.717 2108.13,802.4 2137.69,819.451 2162.66,848.019 2182.51,870.946 2196.49,902.797 2204.18,927.85 2200.33,938.689 2169.36,939.981 2133,952.802 2104.62,951.358 2089.69,958.545 2070.42,963.055 2047.68,958.444 2017.59,943.923 1987.37,936.885 1951.51,939.234 1907.45,952.564 1869.74,967.031 1831.96,966.826 1789.48,974.435 1752.88,974.785 1714.81,976.867 1683.99,970.624 1649.44,974.664 1617.59,969.477 1585.29,961.422 1550.09,931.122 1521.75,916.359 1484.93,909.403 1452.88,893.82 1423.45,877.93 1392.68,856.416 1367,849.773 1340.95,863.78 1316.45,879.62 1287.58,894.915 1250.01,913.05 1212.48,921.492 1184.51,916.293 1156.94,892.578 1138.79,868.867 1120.49,838.632 1094.55,813.384 1084.49,782.85 1081.16,755.473 1084.09,732.565 1069.86,702.827 1047.02,686.103 1018.87,674.455 999.904,653.327 992.642,621.844 988.885,598.372 978.025,570.827 987.531,543.865 1008.38,516.45 1019.18,499.687 1033.27,494.601 1041.65,480.376 1046.78,463.554 1053.99,440.012 1059.81,416.027 1064.84,386.984 1077.52,354.131 1077.18,330.664 1055.61,313.161 1035.48,299.487 1008.08,298.952 981.667,308.679 954.66,304.115 923.375,289.565 886.156,275.685 863.203,269.534 841.219,264.977 826.647,247.363 825.957,225.864 841.518,207.426 863.406,189.322 886.649,172.402 928.295,161.337 959.044,148.509 992.541,142.607 1021.91,154.378 1050.02,160.847 1083.51,156.084 1116.94,150.434 1136.4,129.558 1151.92,109.958 1164.33,89.1831 "/>
<polyline clip-path="url(#clip372)" style="stroke:#ff0000; stroke-linecap:round; stroke-linejoin:round; stroke-width:4; stroke-opacity:1; fill:none" points="239.617,714.644 269.998,721.004 272.609,712.161 293.739,713.457 297.116,714.154 324.12,719.817 340.992,723.352 369.742,723.108 394.248,725.113 424.644,731.473 450.896,727.584 472.025,728.868 514.298,731.461 526.076,740.194 550.597,742.188 592.884,744.781 610.65,745.368 630.077,752.572 663.892,759.641 683.333,766.845 706.165,774.759 729.848,779.712 760.301,786.085 778.904,796.248 806.845,798.964 839.866,809.018 855.957,802.975 897.464,808.528 915.244,821.664 942.348,827.339 975.411,837.393 994.909,844.61 1022.04,850.285 1036.46,862.724 1054.29,875.872 1057.69,876.581 1089.91,877.046 1103.48,879.896 1128.08,881.902 1155.24,887.589 1179.89,902.18 1206.23,910.828 1224.05,911.427 1252.06,914.155 1287.73,915.329 1312.35,917.347 1346.33,924.465 1370.14,929.455 1394.76,931.461 1419.4,933.479 1455.89,931.706 1473.73,932.293 1502.59,932.061 1528.89,928.134 1559.4,921.97 1586.61,927.657 1612.9,923.744 1637.54,925.762 1655.25,913.775 1673.09,914.362 1689.96,905.348 1709.43,900.003 1733.26,904.994 1756.12,900.358 1776.55,904.627 1793.57,908.186 1816.6,916.136 1834.6,929.309 1856.83,940.231 1868.85,949.025 1885.25,968.154 1893.05,979.211 1900.05,993.24 1912.25,1014.66 1926.09,1030.13 1939.12,1048.58 1948.55,1053.71 1972.45,1058.72 1982.69,1060.86 1990.34,1059.31 2018.27,1049.43 2029.31,1048.58 2050.99,1021.68 2056.82,1013.46 2055.6,991.209 2059.61,976.349 2058.4,954.125 2039.54,943.912 2022.48,940.341 2000.23,929.419 1973.14,936.305 1952.7,932.036 1936.46,925.505 1919.43,921.946 1894.77,919.928 1877.1,931.926 1854.23,936.549 1841.59,943.325 1813.52,940.586 1788.85,938.58 1761.61,932.88 1743.62,919.707 1720.6,911.757 1685.61,895.025 1665.06,878.196 1644.53,861.366 1633.37,849.649 1622.23,837.919 1600.89,824.074 1588.01,805.74 1577.69,791.087 1571.6,774.184 1575.7,759.421 1594.19,744.536 1604.25,734.14 1627.07,729.541 1640.64,732.366 1669.43,732.134 1683.14,747.472 1703.51,751.728 1713.7,753.844 1740.88,759.519 1762.22,773.328 1767.4,780.654 1789.56,791.527 1808.34,801.703 1832.14,806.669 1850.75,804.296 1871.97,805.593 1896.4,795.062 1914.21,795.661 1927.82,798.499 1949.22,812.332 1963.82,824.759 1977.63,840.145 1984.62,854.113 1993.44,874.734 2002.25,895.368 2005.04,911.623 2002.83,933.1 2005.44,936.782 2011.66,953.771 2027.31,975.872 2030.12,992.163 2044.76,1004.65 2055.01,1006.8 2068.66,1009.65 2088.94,1001.32 2104.99,995.258 2114.21,987.76 2131.86,975.749 2136.87,970.527 2136.42,945.331 2121.76,932.856 2104.49,916.711 2094.06,902.009 2071,894.059 2042.93,891.332 2019.08,886.354 2008.86,884.213 1980.81,881.498 1963.78,877.939 1946.57,861.818 1932.94,858.981 1905.71,853.293 1893.89,857.085 1867.64,860.999 1849.65,847.851 1829.23,843.594 1810.59,845.955 1783.39,840.28 1770.59,834.482 1753.59,830.923 1728.16,831.877 1698.52,835.082 1674.85,842.653 1666.29,834.605 1666.15,822.056 1658.55,823.597 1647.53,824.428 1633.12,824.551 1626.32,823.132 1609.45,832.122 1596.8,838.873 1564.58,838.408 1549.34,841.478 1540.07,848.939 1533.39,860.082 1548.63,856.999 1567.26,854.627 1597.74,848.462 1606.86,828.452 1621.15,815.793 1625.24,801.006 1615.75,783.394 1599.47,764.375 1590.91,756.339 1579.68,732.146 1560.14,724.942 1538.25,739.118 1517.08,737.821 1486.55,731.449 1488.09,713.041 1482.86,693.24 1485.23,671.909 1489.33,657.183 1506.88,632.819 1511.8,615.17 1514.98,590.952 1496.32,580.85 1473.45,572.985 1466.68,571.579 1478.37,555.373 1502.78,544.915 1541.63,546.787 1578.61,529.651 1597.04,514.864 1614.53,490.598 1626.99,471.505 1647.14,463.298 1675.01,465.989 1698.68,470.894 1718.3,490.451 1747.12,502.633 1764.21,518.582 1772.89,538.995 1761.27,555.189 1742.06,572.924 1713.48,585.62 1679.75,591.038 1658.6,589.754 1620.4,572.484 1599.16,558.748 1590.52,538.323 1589.47,516.393 1607.89,501.618 1621.28,492.004 1647.26,475.713 1670.81,468.215 1693.4,451.226 1714.34,440.108 1732.05,440.683 1757.99,424.416 1757.85,412.026 1770.25,392.97 1782,389.228 1801.97,368.668 1790.87,357.109 1765.45,345.673 1781.39,339.729 1811.62,333.65 1837.83,342.151 1858.9,343.435 1885.92,349.025 1908.95,369.218 1908.32,384.519 1905.12,396.199 1880.03,409.531 1866.04,434.446 1851.24,462.308 1842.38,494.524 1845.94,507.66 1805.47,511.647 1786.29,529.37 1752.58,534.776 1722.4,553.318 1708.32,578.342 1689.91,593.154 1662.8,587.516 1640.72,576.716 1611.06,567.432 1599.97,555.813 1569.4,537.038 1566.83,533.406 1574.18,507.012 1601.12,500.211 1638.2,495.515 1661.87,500.431 1699.09,508.161 1723.74,522.582 1729.03,542.286 1744.48,564.118 1758.03,566.931 1788.53,573.266 1810.62,584.079 1817.41,585.485 1848.55,576.434 1872.11,568.912 1888.87,559.984 1909.2,564.203 1929.72,580.874 1924.91,598.511 1926.07,620.502 1908.85,657.354 1888.84,678.086 1866.22,695.184 1842.96,727.743 1844.91,746.86 1805.27,760.449 1782.45,765.06 1753,780.776 1727.72,794.255 1711.83,812.834 1695.11,834.372 1666.56,859.715 1643.7,864.338 1617.32,855.691 1593.53,850.713 1558.7,846.579 1532.35,837.931 1513.49,815.219 1500.64,796.884 1464.83,770.649 1454.56,756.009 1427.34,737.834 1406.16,736.537 1372.34,741.968 1358.78,739.13 1329.09,729.822 1326.39,701.153 1309.45,697.618 1283.24,701.52 1266.37,710.485 1239.38,729.835 1238.54,732.782 1201.32,737.503 1181.87,742.824 1155.6,734.201 1136.09,714.509 1114.05,703.66 1075.98,698.841 1046.36,689.534 1029.45,685.999 1007.45,675.162 985.444,651.862 987.984,643.032 998.101,620.209 1014.97,598.805 1025.08,576.018 1030.94,543.032 1036.81,522.508 1020.76,503.636 1003.89,500.126 992.922,488.531 997.122,473.89 1029.16,474.343 1067.11,479.137 1107.57,475.15 1133.69,471.273 1160.61,452.07 1185.8,426.336 1208.47,409.372 1238.77,403.293 1280.9,405.85 1309.61,417.995 1340.87,433.773 1369.6,445.93 1394.98,457.391 1416.15,471.089 1456.69,479.504 1477.87,493.215 1506.77,517.824 1538.24,546.089 1560.29,556.877 1582.36,567.677 1601.03,577.78 1610.26,570.368 1634.63,559.91 1664.04,544.291 1684.2,536.072 1716.14,524.098 1748.23,524.563 1784.67,535.228 1809.5,562.112 1812.24,578.196 1809.33,614.876 1789.46,648.071 1790.59,670.086 1780.87,705.458 1782.14,740.023 1799.44,768.607 1831.98,794.133 1869.2,789.399 1882.81,792.237 1920.21,800.028 1939.2,822.741 1967.61,850.566 1987.62,882.917 1997.42,913.164 2000.23,929.419 2014.47,916.723 2056.17,922.3 2080.04,927.278 2090.48,942.004 2093.09,945.686 2094.91,952.339 2100.35,972.3 2102.96,975.994 2120.03,979.553 2137.88,980.153 2169.18,970.992 2194.1,985.62 2201.96,996.689 2216.89,1021.8 2214.49,1030.73 2218.48,1015.84 2224.04,995.013 2220.93,966.124 2209.44,941.76 2193.73,919.683 2184.86,899.037 2186.23,880.532 2153.5,854.932 2151.25,823.193 2156.81,802.486 2173.61,793.496 2194.82,794.805 2221.28,803.428 2235.93,815.855 2248.21,837.161 2277.55,862.039 2287.23,879.7 2275.92,908.638 2255.94,929.529 2240.15,948.181 2208.08,960.302 2192.27,978.966 2163.61,991.809 2135.14,1017.27 2119.3,1035.96 2109.48,1059.08 2088.61,1083.04 2071.94,1104.75 2045.81,1121.35 2021.28,1131.98 1987.48,1150.13 1964.73,1167.46 1937.55,1174.39 1906.32,1196.27 1895.42,1209.8 1858.95,1224.28 1844.62,1237.1 1824.42,1258.19 1805.17,1289 1801.1,1303.99 1795.38,1325 1788.03,1352.03 1814.79,1373.56 1819.21,1384.03 1811.86,1411.1 1804.49,1438.2 1786.53,1437.59 1761.68,1435.55 1738.34,1414.71 1727.77,1387.01 1714.72,1368.37 1688.81,1343.85 1645.82,1315.73 1624.45,1314.41 1588.57,1313.21 1550.22,1321 1507.6,1331.09 1489.67,1330.48 1449.44,1318.84 1427.16,1307.78 1405.65,1281.03 1404.55,1245.92 1398.3,1203.42 1378.56,1183.44 1358.83,1163.47 1364.59,1129.91 1361.03,1103.89 1353.23,1080.16 1340.27,1049.06 1321.44,1026.2 1317.89,1000.26 1324.49,963.885 1333.64,931.229 1352.15,903.709 1368.08,872.533 1380.6,840.671 1407.59,821.261 1400.64,794.769 1386.06,769.83 1353.72,744.328 1324.95,744.573 1307.09,731.473 1296.79,704.345 1292.38,669.108 1306.63,644.035 1319.18,624.857 1339.42,616.613 1375.68,602.376 1412.81,597.667 1453.34,593.668 1488.83,594.842 1512.41,587.308 1538.35,558.528 1554.23,540.096 1582.81,527.425 1602.18,522.141 1606.25,507.476 1592.6,492.249 1568.82,474.918 1543.42,463.445 1512.8,432.317 1494.07,409.874 1482.93,385.925 1466.78,367.127 1464.12,351.141 1470.67,327.804 1487.42,318.949 1506.03,328.966 1540.57,333.039 1582.67,335.583 1612.23,344.793 1653.54,350.26 1681.35,352.939 1712.68,368.692 1732.95,372.887 1759.82,366.111 1784.12,355.715 1817.73,350.333 1849.73,350.786 1879.96,344.707 1900.4,361.28 1910.72,375.749 1915.7,370.612 1928.06,351.581 1947.16,333.956 1963.88,325.089 1989.72,308.871 2005.61,302.914 1994.68,303.734 1966.69,288.714 1960.54,272.068 1948.27,238.787 1955.45,212.613 1965.37,202.388 1997.13,190.524 2031.64,194.573 2051.87,198.756 2089.77,203.501 2125.31,216.967 2144.19,239.289 2147.23,267.579 2140.12,293.778 2131.79,298.217 2133.81,317.102 2137.62,342.53 2131.51,378.257 2099.69,390.182 2081.83,429.712 2055.96,445.979 2034.45,472.447 2028.27,508.32 2006.35,509.959 1965.89,513.959 1929.81,528.159 1901.27,540.842 1886.47,568.79 1874.22,600.407 1875.2,609.923 1901.53,618.509 1933.04,634.384 1972.16,648.744 2004.72,674.184 2026.9,685.02 2068.46,690.549 2100.63,691.014 2141.2,687.002 2164.98,691.955 2190.37,691.001 2201.12,677.682 2217.66,656.241 2234.16,634.8 2230.3,609.152 2227.45,593.044 2216.79,566.014 2186.82,544.291 2169.64,528.342 2144.89,513.91 2097.65,516.503 2081.7,522.496 2054.99,541.747 2039.26,560.179 2010.12,588.262 2009.73,616.136 2015.3,648.377 2018.3,677.009 2036.49,702.584 2047.88,726.765 2062.9,764.203 2076.93,792.09 2106.76,801.434 2137.62,820.356 2165.32,851.141 2181.78,870.221 2197.71,904.847 2203.17,924.783 2200.78,933.687 2166.9,939.155 2126.41,955.789 2105.94,951.508 2093.31,958.284 2070.43,962.919 2046.56,957.929 2011.46,941.173 1984.18,935.473 1946.88,940.231 1899.51,955.434 1867.4,967.555 1831.68,966.368 1785.92,975.639 1753.62,975.162 1713.69,976.239 1686.43,970.539 1649.09,975.285 1618.44,968.876 1584.39,961.745 1544.14,925.052 1524.55,917.812 1483.74,909.274 1452.22,893.264 1424.11,877.975 1390.87,855.348 1370.48,851.092 1341.73,863.885 1315.54,880.348 1285.92,896.126 1244.44,915.696 1210.52,921.151 1186.73,916.173 1154.41,890.561 1139.07,868.521 1119.49,836.195 1094,812.063 1084.62,781.914 1081.17,756.168 1083.67,734.8 1068.37,700.37 1047.2,686.586 1018.44,674.343 999.819,651.74 991.347,618.802 989.63,599.759 976.958,569.096 987.913,543.386 1010.66,513.947 1017.4,502.926 1030.03,496.248 1041.82,480.079 1046.85,462.515 1054.39,436.195 1061.09,412.809 1066.09,382.892 1079.48,348.584 1076.93,332.599 1054.18,312.442 1036.5,299.514 1007.91,299.759 980.165,309.433 953.26,303.856 918.792,287.442 880.138,273.254 866.7,270.466 843.172,265.585 827.236,246.86 826.442,225.125 842.42,206.877 865.947,187.124 888.623,170.294 938.133,159.017 959.107,147.997 992.652,142.64 1021.19,154.7 1048.05,160.253 1084.96,155.593 1118.51,150.248 1135.22,129.137 1151.1,110.938 1164.44,89.1665 "/>
<polyline clip-path="url(#clip372)" style="stroke:#3da44d; stroke-linecap:round; stroke-linejoin:round; stroke-width:4; stroke-opacity:1; fill:none" points="248.798,714.895 257.878,714.534 274.431,717.863 291.313,717.449 309.586,718.089 328.72,720.803 348.206,722.538 371.6,723.789 395.968,726.118 422.093,728.762 450.086,729.665 476.745,731.006 504.239,734.334 530.682,739.972 556.428,741.911 585.324,744.623 610.672,749.56 635.328,754.047 659.816,758.024 682.515,765.502 706.718,773.408 732.197,779.813 758.16,786.991 783.394,794.639 808.61,802.191 835.504,807.158 863.272,810.972 891.848,814.976 917.157,821.268 943.721,827.001 969.068,833.649 993.485,842.461 1015.41,850.598 1035.44,860.57 1053.35,869.857 1071.96,875.994 1089.84,878.533 1110.29,881.114 1131.27,883.863 1153.46,891.777 1178.66,898.922 1204.88,904.25 1229.62,908.613 1256.89,911.947 1284.72,915.865 1312.87,919.759 1341.78,925.736 1371.04,929.491 1397.81,932.067 1422.72,933.4 1450.02,932.066 1477.57,932.643 1503.53,931.631 1530.96,928.093 1558.66,925.739 1585.89,924.423 1610.78,924.359 1632.46,922.243 1652.64,919.914 1673.12,915.801 1692.67,912.327 1712.04,908.382 1732.03,906.244 1753.55,906.84 1773.87,907.897 1794,912.79 1814.18,920.95 1834.17,930.443 1850.01,941.889 1867.37,952.989 1881.17,967.595 1892.13,980.817 1904.34,994.459 1914.8,1008.67 1926.9,1023.78 1940.1,1038.6 1953.08,1047.08 1968.6,1052.3 1983.36,1055.41 1998.83,1054.36 2013.76,1048.03 2027.84,1039.62 2039.86,1027.48 2047.63,1011.75 2050.57,993.958 2051.94,975.945 2045.28,960.753 2035.74,950.007 2021.23,940.873 2001.88,935.675 1979.42,934.154 1958.11,932.243 1937.72,929.141 1917.33,928.63 1897.09,928.097 1876.88,927.882 1855.45,932.288 1833.36,933.347 1810.62,935.764 1787.78,931.99 1764.3,928.326 1740.01,918.793 1715.89,906.168 1691.8,894.57 1669.19,881.426 1650.17,866.207 1634.02,851.496 1620.03,835.859 1604.99,821.495 1591.06,806.829 1583.03,788.114 1579.74,768.071 1586.85,750.937 1601.18,745.397 1617.26,739.987 1634.52,735.168 1652.2,732.155 1668.48,736.797 1684.02,743.229 1699.74,749.587 1718.02,754.359 1736.79,761.546 1755.41,772.267 1773.47,780.236 1791.87,789.576 1813.41,794.645 1831.9,801.584 1850.87,803.702 1871.58,803.8 1891,803.243 1910.54,805.8 1928.41,808.07 1944.7,815.418 1961.28,826.868 1974.98,840.116 1984.94,857.104 1994.29,874.658 2000,892.107 2002.32,910.88 2007.06,926.851 2010.4,942.749 2017.92,956.009 2024.49,971.783 2033.78,983.196 2045.55,993.171 2057.72,998.359 2070.62,1000.38 2083.64,1000.12 2098.17,996.402 2111.29,988.047 2120.27,977.63 2124.78,965.501 2124.98,950.593 2117.29,935.364 2106.99,920.749 2088.93,909.221 2069.88,899.146 2050.18,892.67 2027.15,885.167 2004.14,883.485 1984,878.479 1963.04,874.337 1944.94,869.395 1927.59,862.859 1909.67,859.156 1890.99,856.007 1870.29,854.961 1849.03,851.921 1828.58,846.82 1807.87,843.499 1788.12,840.053 1768.21,837.745 1747.82,835.898 1727.7,834.382 1706.44,834.519 1688.1,834.274 1673.33,832.626 1661.43,829.453 1650.05,826.845 1639.04,825.307 1625.55,825.176 1610.96,823.191 1594.71,817.723 1588.58,825.77 1575.71,834.963 1555.95,835.276 1542.92,851.037 1536.3,865.123 1549.26,855.729 1570.53,856.866 1596.23,859.287 1612.22,843.15 1630.49,828.506 1636.42,804.008 1630.43,782.321 1608.04,764.222 1590.98,753.631 1577.71,737.479 1558.9,728.956 1537.54,732.54 1515.21,740.045 1489.83,730.93 1483.67,710.249 1476.98,692.961 1487.22,674.291 1495.76,655.623 1508.54,636.729 1513.12,613.639 1527.19,594.23 1502.95,582.305 1477.47,584.757 1464.23,565.825 1489.97,552.765 1512.51,541.38 1545.01,545.008 1577.78,538.549 1595.3,515.991 1608.93,492.563 1620.07,469.488 1647.22,463.602 1671.35,468.935 1696.5,472.018 1716.2,487.498 1740.44,500.156 1765.97,516.048 1774.02,540.568 1762.19,563.688 1733.07,569.607 1709.55,581.333 1680.76,587.098 1653.38,590.471 1631.72,568.873 1602.63,559.919 1586.54,541.703 1581.38,517.463 1599.5,499.634 1622.52,484.475 1648.28,476.873 1670.84,464.956 1689.88,449.871 1712.65,444.959 1735.89,439.601 1753.22,425.636 1757.59,407.415 1773.34,394.98 1791.83,388.333 1803.44,372.223 1783.1,369.169 1762.44,360.28 1777.78,347.36 1789.15,333.521 1813.92,334.598 1835.84,335.253 1858.48,336.148 1885.28,343.983 1905.8,362.99 1920.5,380.971 1914.63,404.773 1889.17,417.996 1871.74,436.169 1858.31,462.556 1853.16,489.689 1837.56,511.726 1808.57,510.656 1786.87,528.876 1754.4,539.222 1723.83,552.031 1707.06,572.366 1696.5,595.834 1667.58,585.139 1638.02,583.852 1611.12,574.678 1599.16,554.18 1584.99,538.139 1568.09,527.184 1587.36,505.927 1606.34,486.325 1637.22,489.89 1665.72,501.349 1694.61,518.187 1716.11,528.89 1736.07,545.158 1737.78,566.075 1761.49,571.024 1782.97,575.761 1797.42,592.053 1824.14,588.354 1846.27,578.817 1864.23,563.875 1889.14,553.995 1910.37,565.726 1928.89,581.503 1925.51,603.792 1923.32,626.521 1918.42,655.515 1893.64,678.414 1864.33,694.331 1854.29,723.204 1838.48,748.837 1807.48,752.975 1783.8,762.727 1759.53,781.402 1731.29,793.602 1712.42,815.573 1690.36,835.519 1673.9,858.598 1645.77,862.79 1620.02,851.549 1591.42,852.594 1560.87,854.834 1530.58,841.197 1512.46,820.139 1500.93,792.454 1469,777.975 1453.17,751.124 1433.82,732.357 1406.81,740.021 1379.46,741.267 1351.93,739.288 1331.19,729.938 1328.19,709.646 1307.45,696.907 1287.9,708.132 1265.83,712.543 1250.3,726.773 1230.06,739.04 1204.65,744.64 1179.73,742.967 1158.09,729.235 1133.65,712.826 1105.23,706.107 1074.82,704.791 1056.44,689.249 1028.02,684.551 1002.72,676.022 981.96,659.628 993.517,639.273 996.332,615.031 1017.03,595.515 1026.11,569.102 1036.69,545.933 1038.33,520.786 1025.01,508.302 999.71,505.327 985.306,486.186 1006.39,472.89 1036.77,470.132 1068.62,474.034 1103.09,476.182 1136.33,473.448 1157.96,447.666 1188.37,429.923 1211.02,405.284 1244.98,402.013 1278.26,405.425 1310.97,415.582 1341.95,427.602 1371.46,440.521 1395.43,457.048 1421.92,470.467 1452.84,483.047 1476.66,502.875 1501.07,522.615 1528.9,537.365 1554.54,553.991 1574.14,569.68 1592.81,580.012 1613.71,569.744 1637.16,556.815 1663.83,548.527 1686.98,533.161 1717.26,524.894 1750.07,521.65 1785.01,530.642 1805.9,555.768 1816.08,586.459 1810.2,616.551 1794.33,646.118 1789.88,677.209 1779.27,707.402 1783.78,739.669 1796.13,769.779 1828.12,783.778 1862.91,786.47 1897.48,784.717 1928.49,797.445 1952.56,823.169 1977.5,845.61 1984.69,875.295 1991.6,902.865 1993.45,929.312 2019.94,920.066 2050.03,915.964 2073.36,923.602 2084.23,938.972 2088.84,946.475 2090.06,960.736 2095.59,969.785 2107.42,976.958 2124.09,980.619 2142.66,976.372 2166.01,973.561 2187.49,981.999 2203.09,997.601 2206.25,1018.86 2208.02,1040.56 2225.81,1019.31 2232.4,993.625 2230,965.785 2209.63,946.499 2195.51,923.506 2192.88,896.583 2180.99,873.536 2157.9,856.436 2151.9,829.88 2150.14,805.02 2172.22,792.996 2196.37,792.483 2220.85,799.363 2233.82,819.749 2252.74,839.213 2278.37,855.691 2291.2,879.757 2276.31,903.403 2258.85,927.045 2239.66,947.424 2215.04,965.744 2186.69,979.912 2165.18,999.995 2139.72,1016.55 2122.31,1034.98 2110.71,1059.8 2092.19,1082.68 2072.04,1104.02 2046.26,1119.57 2020.97,1136.46 1989.42,1146.94 1972.32,1168.71 1942.61,1177.14 1917.49,1194.01 1897.65,1213.84 1867.68,1224.49 1843.04,1244.22 1819.04,1256.78 1816.71,1282.06 1799.46,1300.5 1793.75,1328.4 1789.67,1353.93 1810.31,1370.75 1826.15,1391.57 1815.08,1413.56 1806.57,1436.38 1779.87,1445.72 1755.33,1432.66 1737.01,1412.19 1725.1,1385.86 1712.74,1358.67 1686.06,1338.5 1658.56,1316.38 1623.75,1310.29 1588.7,1315.85 1552.41,1322.59 1516.18,1331.34 1481.56,1336.02 1449.24,1322.78 1423.57,1304.07 1411.36,1277.09 1406.81,1246.09 1403.15,1213.02 1384.08,1186.47 1359.05,1164.39 1359.63,1136 1361.61,1106.1 1350.21,1079.07 1335.37,1052.7 1323.53,1023.83 1320.87,994.391 1322.86,963.183 1336.26,931.764 1347.92,898.761 1365.55,871.154 1384.56,845.741 1408.46,822.227 1409,792.866 1389.13,769.462 1359.38,755.353 1327.11,747.519 1305.86,726.545 1298.49,701.11 1290.75,675.831 1296.95,649.016 1315.14,624.453 1343.01,609.189 1376.5,603.737 1412.07,599.921 1446.42,600.207 1481.8,596.557 1510.51,583.79 1528.41,561.317 1551.77,544.83 1581.37,537.206 1609.48,525.659 1606.44,504.996 1586.41,490.547 1561.65,476.657 1541.37,453.057 1515.64,435.245 1495.18,411.148 1485.8,382.945 1461.85,371.367 1457.32,347.768 1466.48,323.462 1492.36,317.564 1514.59,334.552 1546.47,335.271 1579.46,345.458 1613.9,342.434 1648.6,348.769 1680.98,347.912 1707.5,367.347 1734.93,378.252 1764.14,370.211 1791.18,359.994 1817.33,350.27 1846.66,350.555 1873.53,345.797 1894.82,359.939 1909.84,376.759 1927.54,371.187 1926.38,350.469 1943.32,333.595 1966.54,327.664 1991.53,322.974 2009.42,307.376 1988.17,301.409 1972.57,285.858 1956.32,265.776 1947.58,244.783 1952.15,219.319 1966.37,193.986 1997.52,186.5 2030.58,192.561 2059.04,194.424 2091.05,198.589 2118.18,214.554 2143.09,236.556 2155.37,263.59 2145.87,289.606 2124.35,295.577 2128.23,321.226 2135.13,348.835 2123.14,374.892 2097.38,393.306 2078.54,420.195 2059.68,446.646 2045.85,475.234 2034.64,506.423 2001.51,512.968 1966.48,521.99 1932.46,525.761 1900.02,537.592 1887.12,564.771 1872.54,591.488 1880.35,616.475 1910.77,622.066 1938.59,638.287 1971.29,649.463 1994.8,672.188 2028.57,684.279 2062.45,686.6 2095.34,690.625 2129.93,687.441 2162.03,694.965 2191.17,694.39 2203.94,671.543 2221.74,655.251 2235.04,634.037 2231.82,607.77 2226.01,583.345 2206.19,564.546 2185.27,545.658 2166.48,523.625 2141.69,509.512 2107.2,506.635 2075.65,521.14 2055.85,546.13 2031.9,565.156 2010.58,588.921 2009.47,618.105 2011.19,648.484 2017.91,678.838 2039.65,703.241 2048.16,732.382 2059.9,764.791 2073.11,794.852 2110.06,803.019 2143.45,819.191 2168.59,843.996 2181.59,872.442 2193.32,900.759 2205.03,923.51 2191.31,937.428 2167.75,947.933 2138.32,947.194 2117,953.382 2089.99,959.71 2067.74,966.415 2041.58,953.22 2009.54,942.226 1976.22,933.25 1938.99,942.728 1905.86,959.303 1867.22,966.764 1829.61,964.102 1790.94,971.455 1753.75,980.253 1719.61,977.947 1685.01,974.183 1649.64,974.277 1613.62,971.16 1582.52,955.164 1556.19,932.413 1522.48,918.593 1485.95,917.368 1455.44,899.641 1426.55,878.939 1402.11,855.396 1367.69,850.341 1341.17,865.687 1317.51,885.442 1284.81,898.352 1250.28,914.981 1214.18,922.343 1181.99,911.616 1152.88,892.758 1133.2,867.361 1116.62,840.428 1097.05,813.057 1090.09,784.793 1079.28,757.46 1080.7,731.003 1070.49,705.147 1046.94,686.012 1017.99,673.395 999.614,649.316 990.986,623.478 988.11,597.603 981.903,571.303 991.362,547.348 1005.3,527.331 1019.53,510.796 1026.8,495.929 1042.74,479.196 1049.52,458.218 1050.25,433.416 1058.49,408.077 1065.78,382.717 1072.49,357.668 1073.76,332.441 1057.8,310.444 1034.12,297.237 1008.76,297.735 983.574,306.488 951.435,303.303 921.747,289.683 890.627,280.433 865.653,269.872 837.053,266.931 823.779,245.671 828.857,221.632 850.529,205.23 869.823,183.704 894.84,166.059 926.862,159.472 956.771,143.999 990.726,140.054 1018.93,154.838 1051.17,158.282 1084.55,158.022 1116.43,154.228 1133.07,132.452 1149.38,109.787 1162.44,87.9763 "/>
<path clip-path="url(#clip370)" d="M250.367 1438.47 L793.155 1438.47 L793.155 1231.11 L250.367 1231.11  Z" fill="#ffffff" fill-rule="evenodd" fill-opacity="1"/>
<polyline clip-path="url(#clip370)" style="stroke:#000000; stroke-linecap:round; stroke-linejoin:round; stroke-width:4; stroke-opacity:1; fill:none" points="250.367,1438.47 793.155,1438.47 793.155,1231.11 250.367,1231.11 250.367,1438.47 "/>
<polyline clip-path="url(#clip370)" style="stroke:#0000ff; stroke-linecap:round; stroke-linejoin:round; stroke-width:4; stroke-opacity:1; fill:none" points="274.533,1282.95 419.525,1282.95 "/>
<path clip-path="url(#clip370)" d="M467.718 1286.21 L467.718 1288.29 L448.135 1288.29 Q448.413 1292.69 450.774 1295 Q453.158 1297.29 457.394 1297.29 Q459.848 1297.29 462.139 1296.69 Q464.454 1296.09 466.723 1294.89 L466.723 1298.91 Q464.431 1299.89 462.024 1300.4 Q459.616 1300.91 457.14 1300.91 Q450.936 1300.91 447.302 1297.29 Q443.691 1293.68 443.691 1287.53 Q443.691 1281.16 447.116 1277.43 Q450.565 1273.68 456.399 1273.68 Q461.63 1273.68 464.663 1277.06 Q467.718 1280.42 467.718 1286.21 M463.459 1284.96 Q463.413 1281.46 461.491 1279.38 Q459.593 1277.29 456.445 1277.29 Q452.88 1277.29 450.728 1279.31 Q448.598 1281.32 448.274 1284.98 L463.459 1284.96 Z" fill="#000000" fill-rule="nonzero" fill-opacity="1" /><path clip-path="url(#clip370)" d="M491.237 1275.07 L491.237 1279.1 Q489.431 1278.17 487.487 1277.71 Q485.542 1277.25 483.459 1277.25 Q480.288 1277.25 478.69 1278.22 Q477.116 1279.19 477.116 1281.14 Q477.116 1282.62 478.251 1283.48 Q479.385 1284.31 482.811 1285.07 L484.269 1285.4 Q488.806 1286.37 490.704 1288.15 Q492.625 1289.91 492.625 1293.08 Q492.625 1296.69 489.755 1298.8 Q486.908 1300.91 481.908 1300.91 Q479.825 1300.91 477.556 1300.49 Q475.311 1300.1 472.811 1299.29 L472.811 1294.89 Q475.172 1296.11 477.463 1296.74 Q479.755 1297.34 482 1297.34 Q485.01 1297.34 486.63 1296.32 Q488.25 1295.28 488.25 1293.41 Q488.25 1291.67 487.07 1290.74 Q485.912 1289.82 481.954 1288.96 L480.473 1288.61 Q476.514 1287.78 474.755 1286.07 Q472.996 1284.33 472.996 1281.32 Q472.996 1277.67 475.588 1275.67 Q478.181 1273.68 482.95 1273.68 Q485.311 1273.68 487.394 1274.03 Q489.477 1274.38 491.237 1275.07 Z" fill="#000000" fill-rule="nonzero" fill-opacity="1" /><path clip-path="url(#clip370)" d="M503.621 1266.95 L503.621 1274.31 L512.394 1274.31 L512.394 1277.62 L503.621 1277.62 L503.621 1291.69 Q503.621 1294.86 504.477 1295.77 Q505.357 1296.67 508.019 1296.67 L512.394 1296.67 L512.394 1300.23 L508.019 1300.23 Q503.088 1300.23 501.213 1298.41 Q499.338 1296.55 499.338 1291.69 L499.338 1277.62 L496.213 1277.62 L496.213 1274.31 L499.338 1274.31 L499.338 1266.95 L503.621 1266.95 Z" fill="#000000" fill-rule="nonzero" fill-opacity="1" /><path clip-path="url(#clip370)" d="M517.996 1274.31 L522.255 1274.31 L522.255 1300.23 L517.996 1300.23 L517.996 1274.31 M517.996 1264.22 L522.255 1264.22 L522.255 1269.61 L517.996 1269.61 L517.996 1264.22 Z" fill="#000000" fill-rule="nonzero" fill-opacity="1" /><path clip-path="url(#clip370)" d="M551.352 1279.29 Q552.949 1276.42 555.171 1275.05 Q557.394 1273.68 560.403 1273.68 Q564.454 1273.68 566.653 1276.53 Q568.852 1279.35 568.852 1284.59 L568.852 1300.23 L564.569 1300.23 L564.569 1284.73 Q564.569 1281 563.25 1279.19 Q561.931 1277.39 559.222 1277.39 Q555.912 1277.39 553.991 1279.59 Q552.07 1281.79 552.07 1285.58 L552.07 1300.23 L547.787 1300.23 L547.787 1284.73 Q547.787 1280.98 546.468 1279.19 Q545.148 1277.39 542.394 1277.39 Q539.13 1277.39 537.209 1279.61 Q535.287 1281.81 535.287 1285.58 L535.287 1300.23 L531.005 1300.23 L531.005 1274.31 L535.287 1274.31 L535.287 1278.34 Q536.746 1275.95 538.783 1274.82 Q540.82 1273.68 543.621 1273.68 Q546.445 1273.68 548.412 1275.12 Q550.403 1276.55 551.352 1279.29 Z" fill="#000000" fill-rule="nonzero" fill-opacity="1" /><path clip-path="url(#clip370)" d="M589.13 1287.2 Q583.968 1287.2 581.977 1288.38 Q579.986 1289.56 579.986 1292.41 Q579.986 1294.68 581.468 1296.02 Q582.972 1297.34 585.542 1297.34 Q589.083 1297.34 591.213 1294.84 Q593.366 1292.32 593.366 1288.15 L593.366 1287.2 L589.13 1287.2 M597.625 1285.44 L597.625 1300.23 L593.366 1300.23 L593.366 1296.3 Q591.907 1298.66 589.731 1299.79 Q587.555 1300.91 584.407 1300.91 Q580.426 1300.91 578.065 1298.68 Q575.727 1296.44 575.727 1292.69 Q575.727 1288.31 578.643 1286.09 Q581.583 1283.87 587.393 1283.87 L593.366 1283.87 L593.366 1283.45 Q593.366 1280.51 591.421 1278.92 Q589.5 1277.29 586.005 1277.29 Q583.782 1277.29 581.676 1277.83 Q579.569 1278.36 577.625 1279.42 L577.625 1275.49 Q579.963 1274.59 582.162 1274.15 Q584.361 1273.68 586.444 1273.68 Q592.069 1273.68 594.847 1276.6 Q597.625 1279.52 597.625 1285.44 Z" fill="#000000" fill-rule="nonzero" fill-opacity="1" /><path clip-path="url(#clip370)" d="M610.611 1266.95 L610.611 1274.31 L619.384 1274.31 L619.384 1277.62 L610.611 1277.62 L610.611 1291.69 Q610.611 1294.86 611.467 1295.77 Q612.347 1296.67 615.009 1296.67 L619.384 1296.67 L619.384 1300.23 L615.009 1300.23 Q610.078 1300.23 608.204 1298.41 Q606.329 1296.55 606.329 1291.69 L606.329 1277.62 L603.204 1277.62 L603.204 1274.31 L606.329 1274.31 L606.329 1266.95 L610.611 1266.95 Z" fill="#000000" fill-rule="nonzero" fill-opacity="1" /><path clip-path="url(#clip370)" d="M647.162 1286.21 L647.162 1288.29 L627.578 1288.29 Q627.856 1292.69 630.217 1295 Q632.602 1297.29 636.838 1297.29 Q639.291 1297.29 641.583 1296.69 Q643.898 1296.09 646.166 1294.89 L646.166 1298.91 Q643.875 1299.89 641.467 1300.4 Q639.06 1300.91 636.583 1300.91 Q630.379 1300.91 626.745 1297.29 Q623.134 1293.68 623.134 1287.53 Q623.134 1281.16 626.56 1277.43 Q630.009 1273.68 635.842 1273.68 Q641.074 1273.68 644.106 1277.06 Q647.162 1280.42 647.162 1286.21 M642.902 1284.96 Q642.856 1281.46 640.935 1279.38 Q639.037 1277.29 635.889 1277.29 Q632.324 1277.29 630.171 1279.31 Q628.041 1281.32 627.717 1284.98 L642.902 1284.96 Z" fill="#000000" fill-rule="nonzero" fill-opacity="1" /><polyline clip-path="url(#clip370)" style="stroke:#ff0000; stroke-linecap:round; stroke-linejoin:round; stroke-width:4; stroke-opacity:1; fill:none" points="274.533,1334.79 419.525,1334.79 "/>
<path clip-path="url(#clip370)" d="M464.038 1331.13 Q465.635 1328.26 467.857 1326.89 Q470.079 1325.52 473.088 1325.52 Q477.139 1325.52 479.338 1328.37 Q481.538 1331.19 481.538 1336.43 L481.538 1352.07 L477.255 1352.07 L477.255 1336.57 Q477.255 1332.84 475.936 1331.03 Q474.616 1329.23 471.908 1329.23 Q468.598 1329.23 466.676 1331.43 Q464.755 1333.63 464.755 1337.42 L464.755 1352.07 L460.473 1352.07 L460.473 1336.57 Q460.473 1332.82 459.153 1331.03 Q457.834 1329.23 455.079 1329.23 Q451.815 1329.23 449.894 1331.45 Q447.973 1333.65 447.973 1337.42 L447.973 1352.07 L443.691 1352.07 L443.691 1326.15 L447.973 1326.15 L447.973 1330.18 Q449.431 1327.79 451.468 1326.66 Q453.505 1325.52 456.306 1325.52 Q459.13 1325.52 461.098 1326.96 Q463.089 1328.39 464.038 1331.13 Z" fill="#000000" fill-rule="nonzero" fill-opacity="1" /><path clip-path="url(#clip370)" d="M512.209 1338.05 L512.209 1340.13 L492.625 1340.13 Q492.903 1344.53 495.264 1346.84 Q497.649 1349.13 501.885 1349.13 Q504.338 1349.13 506.63 1348.53 Q508.945 1347.93 511.213 1346.73 L511.213 1350.75 Q508.922 1351.73 506.514 1352.24 Q504.107 1352.75 501.63 1352.75 Q495.426 1352.75 491.792 1349.13 Q488.181 1345.52 488.181 1339.37 Q488.181 1333 491.607 1329.27 Q495.056 1325.52 500.889 1325.52 Q506.121 1325.52 509.153 1328.9 Q512.209 1332.26 512.209 1338.05 M507.949 1336.8 Q507.903 1333.3 505.982 1331.22 Q504.084 1329.13 500.936 1329.13 Q497.371 1329.13 495.218 1331.15 Q493.088 1333.16 492.764 1336.82 L507.949 1336.8 Z" fill="#000000" fill-rule="nonzero" fill-opacity="1" /><path clip-path="url(#clip370)" d="M530.982 1339.04 Q525.82 1339.04 523.829 1340.22 Q521.838 1341.4 521.838 1344.25 Q521.838 1346.52 523.32 1347.86 Q524.824 1349.18 527.394 1349.18 Q530.935 1349.18 533.065 1346.68 Q535.218 1344.16 535.218 1339.99 L535.218 1339.04 L530.982 1339.04 M539.477 1337.28 L539.477 1352.07 L535.218 1352.07 L535.218 1348.14 Q533.759 1350.5 531.584 1351.63 Q529.408 1352.75 526.26 1352.75 Q522.278 1352.75 519.917 1350.52 Q517.579 1348.28 517.579 1344.53 Q517.579 1340.15 520.496 1337.93 Q523.435 1335.71 529.246 1335.71 L535.218 1335.71 L535.218 1335.29 Q535.218 1332.35 533.273 1330.76 Q531.352 1329.13 527.857 1329.13 Q525.635 1329.13 523.528 1329.67 Q521.422 1330.2 519.477 1331.26 L519.477 1327.33 Q521.815 1326.43 524.014 1325.99 Q526.213 1325.52 528.297 1325.52 Q533.922 1325.52 536.699 1328.44 Q539.477 1331.36 539.477 1337.28 Z" fill="#000000" fill-rule="nonzero" fill-opacity="1" /><path clip-path="url(#clip370)" d="M564.778 1326.91 L564.778 1330.94 Q562.972 1330.01 561.028 1329.55 Q559.083 1329.09 557 1329.09 Q553.829 1329.09 552.232 1330.06 Q550.658 1331.03 550.658 1332.98 Q550.658 1334.46 551.792 1335.32 Q552.926 1336.15 556.352 1336.91 L557.81 1337.24 Q562.347 1338.21 564.245 1339.99 Q566.167 1341.75 566.167 1344.92 Q566.167 1348.53 563.296 1350.64 Q560.449 1352.75 555.449 1352.75 Q553.366 1352.75 551.097 1352.33 Q548.852 1351.94 546.352 1351.13 L546.352 1346.73 Q548.713 1347.95 551.005 1348.58 Q553.296 1349.18 555.542 1349.18 Q558.551 1349.18 560.171 1348.16 Q561.792 1347.12 561.792 1345.25 Q561.792 1343.51 560.611 1342.58 Q559.454 1341.66 555.495 1340.8 L554.014 1340.45 Q550.056 1339.62 548.296 1337.91 Q546.537 1336.17 546.537 1333.16 Q546.537 1329.51 549.13 1327.51 Q551.722 1325.52 556.491 1325.52 Q558.852 1325.52 560.935 1325.87 Q563.019 1326.22 564.778 1326.91 Z" fill="#000000" fill-rule="nonzero" fill-opacity="1" /><path clip-path="url(#clip370)" d="M572.509 1341.84 L572.509 1326.15 L576.768 1326.15 L576.768 1341.68 Q576.768 1345.36 578.204 1347.21 Q579.639 1349.04 582.509 1349.04 Q585.958 1349.04 587.949 1346.84 Q589.963 1344.64 589.963 1340.85 L589.963 1326.15 L594.222 1326.15 L594.222 1352.07 L589.963 1352.07 L589.963 1348.09 Q588.412 1350.45 586.352 1351.61 Q584.315 1352.75 581.606 1352.75 Q577.139 1352.75 574.824 1349.97 Q572.509 1347.19 572.509 1341.84 M583.227 1325.52 L583.227 1325.52 Z" fill="#000000" fill-rule="nonzero" fill-opacity="1" /><path clip-path="url(#clip370)" d="M618.018 1330.13 Q617.301 1329.71 616.444 1329.53 Q615.611 1329.32 614.592 1329.32 Q610.981 1329.32 609.037 1331.68 Q607.116 1334.02 607.116 1338.42 L607.116 1352.07 L602.833 1352.07 L602.833 1326.15 L607.116 1326.15 L607.116 1330.18 Q608.458 1327.82 610.611 1326.68 Q612.764 1325.52 615.842 1325.52 Q616.282 1325.52 616.815 1325.59 Q617.347 1325.64 617.995 1325.76 L618.018 1330.13 Z" fill="#000000" fill-rule="nonzero" fill-opacity="1" /><path clip-path="url(#clip370)" d="M643.62 1338.05 L643.62 1340.13 L624.037 1340.13 Q624.315 1344.53 626.676 1346.84 Q629.06 1349.13 633.296 1349.13 Q635.75 1349.13 638.041 1348.53 Q640.356 1347.93 642.625 1346.73 L642.625 1350.75 Q640.333 1351.73 637.926 1352.24 Q635.518 1352.75 633.041 1352.75 Q626.838 1352.75 623.203 1349.13 Q619.592 1345.52 619.592 1339.37 Q619.592 1333 623.018 1329.27 Q626.467 1325.52 632.301 1325.52 Q637.532 1325.52 640.564 1328.9 Q643.62 1332.26 643.62 1338.05 M639.361 1336.8 Q639.314 1333.3 637.393 1331.22 Q635.495 1329.13 632.347 1329.13 Q628.782 1329.13 626.629 1331.15 Q624.5 1333.16 624.176 1336.82 L639.361 1336.8 Z" fill="#000000" fill-rule="nonzero" fill-opacity="1" /><path clip-path="url(#clip370)" d="M670.796 1331.13 Q672.393 1328.26 674.615 1326.89 Q676.837 1325.52 679.847 1325.52 Q683.898 1325.52 686.097 1328.37 Q688.296 1331.19 688.296 1336.43 L688.296 1352.07 L684.013 1352.07 L684.013 1336.57 Q684.013 1332.84 682.694 1331.03 Q681.374 1329.23 678.666 1329.23 Q675.356 1329.23 673.435 1331.43 Q671.513 1333.63 671.513 1337.42 L671.513 1352.07 L667.231 1352.07 L667.231 1336.57 Q667.231 1332.82 665.912 1331.03 Q664.592 1329.23 661.837 1329.23 Q658.574 1329.23 656.652 1331.45 Q654.731 1333.65 654.731 1337.42 L654.731 1352.07 L650.449 1352.07 L650.449 1326.15 L654.731 1326.15 L654.731 1330.18 Q656.189 1327.79 658.226 1326.66 Q660.263 1325.52 663.064 1325.52 Q665.888 1325.52 667.856 1326.96 Q669.847 1328.39 670.796 1331.13 Z" fill="#000000" fill-rule="nonzero" fill-opacity="1" /><path clip-path="url(#clip370)" d="M718.967 1338.05 L718.967 1340.13 L699.384 1340.13 Q699.661 1344.53 702.022 1346.84 Q704.407 1349.13 708.643 1349.13 Q711.096 1349.13 713.388 1348.53 Q715.703 1347.93 717.971 1346.73 L717.971 1350.75 Q715.68 1351.73 713.272 1352.24 Q710.865 1352.75 708.388 1352.75 Q702.184 1352.75 698.55 1349.13 Q694.939 1345.52 694.939 1339.37 Q694.939 1333 698.365 1329.27 Q701.814 1325.52 707.647 1325.52 Q712.879 1325.52 715.911 1328.9 Q718.967 1332.26 718.967 1338.05 M714.708 1336.8 Q714.661 1333.3 712.74 1331.22 Q710.842 1329.13 707.694 1329.13 Q704.129 1329.13 701.976 1331.15 Q699.847 1333.16 699.522 1336.82 L714.708 1336.8 Z" fill="#000000" fill-rule="nonzero" fill-opacity="1" /><path clip-path="url(#clip370)" d="M747.508 1336.43 L747.508 1352.07 L743.249 1352.07 L743.249 1336.57 Q743.249 1332.88 741.814 1331.06 Q740.379 1329.23 737.508 1329.23 Q734.059 1329.23 732.069 1331.43 Q730.078 1333.63 730.078 1337.42 L730.078 1352.07 L725.795 1352.07 L725.795 1326.15 L730.078 1326.15 L730.078 1330.18 Q731.606 1327.84 733.666 1326.68 Q735.749 1325.52 738.457 1325.52 Q742.925 1325.52 745.217 1328.3 Q747.508 1331.06 747.508 1336.43 Z" fill="#000000" fill-rule="nonzero" fill-opacity="1" /><path clip-path="url(#clip370)" d="M760.217 1318.79 L760.217 1326.15 L768.99 1326.15 L768.99 1329.46 L760.217 1329.46 L760.217 1343.53 Q760.217 1346.7 761.073 1347.61 Q761.953 1348.51 764.615 1348.51 L768.99 1348.51 L768.99 1352.07 L764.615 1352.07 Q759.684 1352.07 757.809 1350.25 Q755.934 1348.39 755.934 1343.53 L755.934 1329.46 L752.809 1329.46 L752.809 1326.15 L755.934 1326.15 L755.934 1318.79 L760.217 1318.79 Z" fill="#000000" fill-rule="nonzero" fill-opacity="1" /><polyline clip-path="url(#clip370)" style="stroke:#3da44d; stroke-linecap:round; stroke-linejoin:round; stroke-width:4; stroke-opacity:1; fill:none" points="274.533,1386.63 419.525,1386.63 "/>
<path clip-path="url(#clip370)" d="M468.343 1377.99 L458.968 1390.6 L468.829 1403.91 L463.806 1403.91 L456.26 1393.73 L448.714 1403.91 L443.691 1403.91 L453.76 1390.35 L444.547 1377.99 L449.57 1377.99 L456.445 1387.22 L463.32 1377.99 L468.343 1377.99 Z" fill="#000000" fill-rule="nonzero" fill-opacity="1" /><path clip-path="url(#clip370)" d="M491.375 1378.75 L491.375 1382.78 Q489.57 1381.85 487.625 1381.39 Q485.681 1380.93 483.598 1380.93 Q480.426 1380.93 478.829 1381.9 Q477.255 1382.87 477.255 1384.82 Q477.255 1386.3 478.389 1387.16 Q479.524 1387.99 482.95 1388.75 L484.408 1389.08 Q488.945 1390.05 490.843 1391.83 Q492.764 1393.59 492.764 1396.76 Q492.764 1400.37 489.894 1402.48 Q487.047 1404.59 482.047 1404.59 Q479.963 1404.59 477.695 1404.17 Q475.45 1403.78 472.95 1402.97 L472.95 1398.57 Q475.311 1399.79 477.602 1400.42 Q479.894 1401.02 482.139 1401.02 Q485.149 1401.02 486.769 1400 Q488.389 1398.96 488.389 1397.09 Q488.389 1395.35 487.209 1394.42 Q486.051 1393.5 482.093 1392.64 L480.612 1392.29 Q476.653 1391.46 474.894 1389.75 Q473.135 1388.01 473.135 1385 Q473.135 1381.35 475.727 1379.35 Q478.32 1377.36 483.088 1377.36 Q485.45 1377.36 487.533 1377.71 Q489.616 1378.06 491.375 1378.75 Z" fill="#000000" fill-rule="nonzero" fill-opacity="1" /></svg>
