<?xml version="1.0" encoding="utf-8"?>
<svg xmlns="http://www.w3.org/2000/svg" xmlns:xlink="http://www.w3.org/1999/xlink" width="600" height="400" viewBox="0 0 2400 1600">
<defs>
  <clipPath id="clip490">
    <rect x="0" y="0" width="2400" height="1600"/>
  </clipPath>
</defs>
<path clip-path="url(#clip490)" d="M0 1600 L2400 1600 L2400 0 L0 0  Z" fill="#ffffff" fill-rule="evenodd" fill-opacity="1"/>
<defs>
  <clipPath id="clip491">
    <rect x="169" y="47" width="2185" height="1440"/>
  </clipPath>
</defs>
<path clip-path="url(#clip490)" d="M169.121 1486.45 L2352.76 1486.45 L2352.76 47.2441 L169.121 47.2441  Z" fill="#ffffff" fill-rule="evenodd" fill-opacity="1"/>
<polyline clip-path="url(#clip491)" style="stroke:#000000; stroke-linecap:round; stroke-linejoin:round; stroke-width:2; stroke-opacity:0.1; fill:none" points="217.28,1486.45 217.28,47.2441 "/>
<polyline clip-path="url(#clip491)" style="stroke:#000000; stroke-linecap:round; stroke-linejoin:round; stroke-width:2; stroke-opacity:0.1; fill:none" points="899.41,1486.45 899.41,47.2441 "/>
<polyline clip-path="url(#clip491)" style="stroke:#000000; stroke-linecap:round; stroke-linejoin:round; stroke-width:2; stroke-opacity:0.1; fill:none" points="1581.54,1486.45 1581.54,47.2441 "/>
<polyline clip-path="url(#clip491)" style="stroke:#000000; stroke-linecap:round; stroke-linejoin:round; stroke-width:2; stroke-opacity:0.1; fill:none" points="2263.67,1486.45 2263.67,47.2441 "/>
<polyline clip-path="url(#clip491)" style="stroke:#000000; stroke-linecap:round; stroke-linejoin:round; stroke-width:2; stroke-opacity:0.1; fill:none" points="169.121,1409.39 2352.76,1409.39 "/>
<polyline clip-path="url(#clip491)" style="stroke:#000000; stroke-linecap:round; stroke-linejoin:round; stroke-width:2; stroke-opacity:0.1; fill:none" points="169.121,1083.91 2352.76,1083.91 "/>
<polyline clip-path="url(#clip491)" style="stroke:#000000; stroke-linecap:round; stroke-linejoin:round; stroke-width:2; stroke-opacity:0.1; fill:none" points="169.121,758.436 2352.76,758.436 "/>
<polyline clip-path="url(#clip491)" style="stroke:#000000; stroke-linecap:round; stroke-linejoin:round; stroke-width:2; stroke-opacity:0.1; fill:none" points="169.121,432.959 2352.76,432.959 "/>
<polyline clip-path="url(#clip491)" style="stroke:#000000; stroke-linecap:round; stroke-linejoin:round; stroke-width:2; stroke-opacity:0.1; fill:none" points="169.121,107.482 2352.76,107.482 "/>
<polyline clip-path="url(#clip490)" style="stroke:#000000; stroke-linecap:round; stroke-linejoin:round; stroke-width:4; stroke-opacity:1; fill:none" points="169.121,1486.45 2352.76,1486.45 "/>
<polyline clip-path="url(#clip490)" style="stroke:#000000; stroke-linecap:round; stroke-linejoin:round; stroke-width:4; stroke-opacity:1; fill:none" points="217.28,1486.45 217.28,1467.55 "/>
<polyline clip-path="url(#clip490)" style="stroke:#000000; stroke-linecap:round; stroke-linejoin:round; stroke-width:4; stroke-opacity:1; fill:none" points="899.41,1486.45 899.41,1467.55 "/>
<polyline clip-path="url(#clip490)" style="stroke:#000000; stroke-linecap:round; stroke-linejoin:round; stroke-width:4; stroke-opacity:1; fill:none" points="1581.54,1486.45 1581.54,1467.55 "/>
<polyline clip-path="url(#clip490)" style="stroke:#000000; stroke-linecap:round; stroke-linejoin:round; stroke-width:4; stroke-opacity:1; fill:none" points="2263.67,1486.45 2263.67,1467.55 "/>
<path clip-path="url(#clip490)" d="M217.28 1517.37 Q213.669 1517.37 211.84 1520.93 Q210.034 1524.47 210.034 1531.6 Q210.034 1538.71 211.84 1542.27 Q213.669 1545.82 217.28 1545.82 Q220.914 1545.82 222.719 1542.27 Q224.548 1538.71 224.548 1531.6 Q224.548 1524.47 222.719 1520.93 Q220.914 1517.37 217.28 1517.37 M217.28 1513.66 Q223.09 1513.66 226.145 1518.27 Q229.224 1522.85 229.224 1531.6 Q229.224 1540.33 226.145 1544.94 Q223.09 1549.52 217.28 1549.52 Q211.47 1549.52 208.391 1544.94 Q205.335 1540.33 205.335 1531.6 Q205.335 1522.85 208.391 1518.27 Q211.47 1513.66 217.28 1513.66 Z" fill="#000000" fill-rule="nonzero" fill-opacity="1" /><path clip-path="url(#clip490)" d="M874.109 1514.29 L892.465 1514.29 L892.465 1518.22 L878.391 1518.22 L878.391 1526.7 Q879.41 1526.35 880.428 1526.19 Q881.447 1526 882.465 1526 Q888.252 1526 891.632 1529.17 Q895.012 1532.34 895.012 1537.76 Q895.012 1543.34 891.539 1546.44 Q888.067 1549.52 881.748 1549.52 Q879.572 1549.52 877.303 1549.15 Q875.058 1548.78 872.651 1548.04 L872.651 1543.34 Q874.734 1544.47 876.956 1545.03 Q879.178 1545.58 881.655 1545.58 Q885.66 1545.58 887.998 1543.48 Q890.336 1541.37 890.336 1537.76 Q890.336 1534.15 887.998 1532.04 Q885.66 1529.94 881.655 1529.94 Q879.78 1529.94 877.905 1530.35 Q876.053 1530.77 874.109 1531.65 L874.109 1514.29 Z" fill="#000000" fill-rule="nonzero" fill-opacity="1" /><path clip-path="url(#clip490)" d="M914.224 1517.37 Q910.613 1517.37 908.785 1520.93 Q906.979 1524.47 906.979 1531.6 Q906.979 1538.71 908.785 1542.27 Q910.613 1545.82 914.224 1545.82 Q917.859 1545.82 919.664 1542.27 Q921.493 1538.71 921.493 1531.6 Q921.493 1524.47 919.664 1520.93 Q917.859 1517.37 914.224 1517.37 M914.224 1513.66 Q920.035 1513.66 923.09 1518.27 Q926.169 1522.85 926.169 1531.6 Q926.169 1540.33 923.09 1544.94 Q920.035 1549.52 914.224 1549.52 Q908.414 1549.52 905.336 1544.94 Q902.28 1540.33 902.28 1531.6 Q902.28 1522.85 905.336 1518.27 Q908.414 1513.66 914.224 1513.66 Z" fill="#000000" fill-rule="nonzero" fill-opacity="1" /><path clip-path="url(#clip490)" d="M1541.15 1544.91 L1548.79 1544.91 L1548.79 1518.55 L1540.48 1520.21 L1540.48 1515.95 L1548.74 1514.29 L1553.41 1514.29 L1553.41 1544.91 L1561.05 1544.91 L1561.05 1548.85 L1541.15 1548.85 L1541.15 1544.91 Z" fill="#000000" fill-rule="nonzero" fill-opacity="1" /><path clip-path="url(#clip490)" d="M1580.5 1517.37 Q1576.89 1517.37 1575.06 1520.93 Q1573.25 1524.47 1573.25 1531.6 Q1573.25 1538.71 1575.06 1542.27 Q1576.89 1545.82 1580.5 1545.82 Q1584.13 1545.82 1585.94 1542.27 Q1587.77 1538.71 1587.77 1531.6 Q1587.77 1524.47 1585.94 1520.93 Q1584.13 1517.37 1580.5 1517.37 M1580.5 1513.66 Q1586.31 1513.66 1589.36 1518.27 Q1592.44 1522.85 1592.44 1531.6 Q1592.44 1540.33 1589.36 1544.94 Q1586.31 1549.52 1580.5 1549.52 Q1574.69 1549.52 1571.61 1544.94 Q1568.55 1540.33 1568.55 1531.6 Q1568.55 1522.85 1571.61 1518.27 Q1574.69 1513.66 1580.5 1513.66 Z" fill="#000000" fill-rule="nonzero" fill-opacity="1" /><path clip-path="url(#clip490)" d="M1610.66 1517.37 Q1607.05 1517.37 1605.22 1520.93 Q1603.41 1524.47 1603.41 1531.6 Q1603.41 1538.71 1605.22 1542.27 Q1607.05 1545.82 1610.66 1545.82 Q1614.29 1545.82 1616.1 1542.27 Q1617.93 1538.71 1617.93 1531.6 Q1617.93 1524.47 1616.1 1520.93 Q1614.29 1517.37 1610.66 1517.37 M1610.66 1513.66 Q1616.47 1513.66 1619.53 1518.27 Q1622.6 1522.85 1622.6 1531.6 Q1622.6 1540.33 1619.53 1544.94 Q1616.47 1549.52 1610.66 1549.52 Q1604.85 1549.52 1601.77 1544.94 Q1598.72 1540.33 1598.72 1531.6 Q1598.72 1522.85 1601.77 1518.27 Q1604.85 1513.66 1610.66 1513.66 Z" fill="#000000" fill-rule="nonzero" fill-opacity="1" /><path clip-path="url(#clip490)" d="M2223.28 1544.91 L2230.92 1544.91 L2230.92 1518.55 L2222.61 1520.21 L2222.61 1515.95 L2230.87 1514.29 L2235.54 1514.29 L2235.54 1544.91 L2243.18 1544.91 L2243.18 1548.85 L2223.28 1548.85 L2223.28 1544.91 Z" fill="#000000" fill-rule="nonzero" fill-opacity="1" /><path clip-path="url(#clip490)" d="M2252.67 1514.29 L2271.03 1514.29 L2271.03 1518.22 L2256.96 1518.22 L2256.96 1526.7 Q2257.98 1526.35 2258.99 1526.19 Q2260.01 1526 2261.03 1526 Q2266.82 1526 2270.2 1529.17 Q2273.58 1532.34 2273.58 1537.76 Q2273.58 1543.34 2270.1 1546.44 Q2266.63 1549.52 2260.31 1549.52 Q2258.14 1549.52 2255.87 1549.15 Q2253.62 1548.78 2251.22 1548.04 L2251.22 1543.34 Q2253.3 1544.47 2255.52 1545.03 Q2257.74 1545.58 2260.22 1545.58 Q2264.23 1545.58 2266.56 1543.48 Q2268.9 1541.37 2268.9 1537.76 Q2268.9 1534.15 2266.56 1532.04 Q2264.23 1529.94 2260.22 1529.94 Q2258.35 1529.94 2256.47 1530.35 Q2254.62 1530.77 2252.67 1531.65 L2252.67 1514.29 Z" fill="#000000" fill-rule="nonzero" fill-opacity="1" /><path clip-path="url(#clip490)" d="M2292.79 1517.37 Q2289.18 1517.37 2287.35 1520.93 Q2285.54 1524.47 2285.54 1531.6 Q2285.54 1538.71 2287.35 1542.27 Q2289.18 1545.82 2292.79 1545.82 Q2296.42 1545.82 2298.23 1542.27 Q2300.06 1538.71 2300.06 1531.6 Q2300.06 1524.47 2298.23 1520.93 Q2296.42 1517.37 2292.79 1517.37 M2292.79 1513.66 Q2298.6 1513.66 2301.66 1518.27 Q2304.73 1522.85 2304.73 1531.6 Q2304.73 1540.33 2301.66 1544.94 Q2298.6 1549.52 2292.79 1549.52 Q2286.98 1549.52 2283.9 1544.94 Q2280.85 1540.33 2280.85 1531.6 Q2280.85 1522.85 2283.9 1518.27 Q2286.98 1513.66 2292.79 1513.66 Z" fill="#000000" fill-rule="nonzero" fill-opacity="1" /><polyline clip-path="url(#clip490)" style="stroke:#000000; stroke-linecap:round; stroke-linejoin:round; stroke-width:4; stroke-opacity:1; fill:none" points="169.121,1486.45 169.121,47.2441 "/>
<polyline clip-path="url(#clip490)" style="stroke:#000000; stroke-linecap:round; stroke-linejoin:round; stroke-width:4; stroke-opacity:1; fill:none" points="169.121,1409.39 188.019,1409.39 "/>
<polyline clip-path="url(#clip490)" style="stroke:#000000; stroke-linecap:round; stroke-linejoin:round; stroke-width:4; stroke-opacity:1; fill:none" points="169.121,1083.91 188.019,1083.91 "/>
<polyline clip-path="url(#clip490)" style="stroke:#000000; stroke-linecap:round; stroke-linejoin:round; stroke-width:4; stroke-opacity:1; fill:none" points="169.121,758.436 188.019,758.436 "/>
<polyline clip-path="url(#clip490)" style="stroke:#000000; stroke-linecap:round; stroke-linejoin:round; stroke-width:4; stroke-opacity:1; fill:none" points="169.121,432.959 188.019,432.959 "/>
<polyline clip-path="url(#clip490)" style="stroke:#000000; stroke-linecap:round; stroke-linejoin:round; stroke-width:4; stroke-opacity:1; fill:none" points="169.121,107.482 188.019,107.482 "/>
<path clip-path="url(#clip490)" d="M121.177 1395.19 Q117.566 1395.19 115.737 1398.75 Q113.932 1402.29 113.932 1409.42 Q113.932 1416.53 115.737 1420.09 Q117.566 1423.64 121.177 1423.64 Q124.811 1423.64 126.617 1420.09 Q128.445 1416.53 128.445 1409.42 Q128.445 1402.29 126.617 1398.75 Q124.811 1395.19 121.177 1395.19 M121.177 1391.48 Q126.987 1391.48 130.043 1396.09 Q133.121 1400.67 133.121 1409.42 Q133.121 1418.15 130.043 1422.76 Q126.987 1427.34 121.177 1427.34 Q115.367 1427.34 112.288 1422.76 Q109.233 1418.15 109.233 1409.42 Q109.233 1400.67 112.288 1396.09 Q115.367 1391.48 121.177 1391.48 Z" fill="#000000" fill-rule="nonzero" fill-opacity="1" /><path clip-path="url(#clip490)" d="M86.0382 1097.26 L102.358 1097.26 L102.358 1101.19 L80.4133 1101.19 L80.4133 1097.26 Q83.0753 1094.5 87.6586 1089.87 Q92.2651 1085.22 93.4456 1083.88 Q95.691 1081.35 96.5706 1079.62 Q97.4734 1077.86 97.4734 1076.17 Q97.4734 1073.41 95.5289 1071.68 Q93.6076 1069.94 90.5058 1069.94 Q88.3067 1069.94 85.8531 1070.71 Q83.4225 1071.47 80.6447 1073.02 L80.6447 1068.3 Q83.4688 1067.16 85.9225 1066.59 Q88.3762 1066.01 90.4132 1066.01 Q95.7836 1066.01 98.978 1068.69 Q102.172 1071.38 102.172 1075.87 Q102.172 1078 101.362 1079.92 Q100.575 1081.82 98.4687 1084.41 Q97.89 1085.08 94.7882 1088.3 Q91.6864 1091.49 86.0382 1097.26 Z" fill="#000000" fill-rule="nonzero" fill-opacity="1" /><path clip-path="url(#clip490)" d="M112.219 1066.63 L130.575 1066.63 L130.575 1070.57 L116.501 1070.57 L116.501 1079.04 Q117.52 1078.69 118.538 1078.53 Q119.557 1078.35 120.575 1078.35 Q126.362 1078.35 129.742 1081.52 Q133.121 1084.69 133.121 1090.1 Q133.121 1095.68 129.649 1098.78 Q126.177 1101.86 119.857 1101.86 Q117.682 1101.86 115.413 1101.49 Q113.168 1101.12 110.76 1100.38 L110.76 1095.68 Q112.844 1096.82 115.066 1097.37 Q117.288 1097.93 119.765 1097.93 Q123.77 1097.93 126.107 1095.82 Q128.445 1093.72 128.445 1090.1 Q128.445 1086.49 126.107 1084.39 Q123.77 1082.28 119.765 1082.28 Q117.89 1082.28 116.015 1082.7 Q114.163 1083.11 112.219 1083.99 L112.219 1066.63 Z" fill="#000000" fill-rule="nonzero" fill-opacity="1" /><path clip-path="url(#clip490)" d="M81.0614 741.156 L99.4178 741.156 L99.4178 745.091 L85.3438 745.091 L85.3438 753.563 Q86.3623 753.216 87.3808 753.054 Q88.3993 752.869 89.4178 752.869 Q95.2049 752.869 98.5845 756.04 Q101.964 759.211 101.964 764.628 Q101.964 770.206 98.4919 773.308 Q95.0197 776.387 88.7003 776.387 Q86.5243 776.387 84.2558 776.017 Q82.0105 775.646 79.6031 774.905 L79.6031 770.206 Q81.6864 771.341 83.9086 771.896 Q86.1308 772.452 88.6077 772.452 Q92.6123 772.452 94.9502 770.345 Q97.2882 768.239 97.2882 764.628 Q97.2882 761.017 94.9502 758.91 Q92.6123 756.804 88.6077 756.804 Q86.7327 756.804 84.8577 757.22 Q83.0058 757.637 81.0614 758.517 L81.0614 741.156 Z" fill="#000000" fill-rule="nonzero" fill-opacity="1" /><path clip-path="url(#clip490)" d="M121.177 744.234 Q117.566 744.234 115.737 747.799 Q113.932 751.341 113.932 758.47 Q113.932 765.577 115.737 769.142 Q117.566 772.683 121.177 772.683 Q124.811 772.683 126.617 769.142 Q128.445 765.577 128.445 758.47 Q128.445 751.341 126.617 747.799 Q124.811 744.234 121.177 744.234 M121.177 740.531 Q126.987 740.531 130.043 745.137 Q133.121 749.72 133.121 758.47 Q133.121 767.197 130.043 771.804 Q126.987 776.387 121.177 776.387 Q115.367 776.387 112.288 771.804 Q109.233 767.197 109.233 758.47 Q109.233 749.72 112.288 745.137 Q115.367 740.531 121.177 740.531 Z" fill="#000000" fill-rule="nonzero" fill-opacity="1" /><path clip-path="url(#clip490)" d="M80.8299 415.679 L103.052 415.679 L103.052 417.67 L90.5058 450.239 L85.6216 450.239 L97.4271 419.614 L80.8299 419.614 L80.8299 415.679 Z" fill="#000000" fill-rule="nonzero" fill-opacity="1" /><path clip-path="url(#clip490)" d="M112.219 415.679 L130.575 415.679 L130.575 419.614 L116.501 419.614 L116.501 428.086 Q117.52 427.739 118.538 427.577 Q119.557 427.392 120.575 427.392 Q126.362 427.392 129.742 430.563 Q133.121 433.735 133.121 439.151 Q133.121 444.73 129.649 447.832 Q126.177 450.91 119.857 450.91 Q117.682 450.91 115.413 450.54 Q113.168 450.17 110.76 449.429 L110.76 444.73 Q112.844 445.864 115.066 446.42 Q117.288 446.975 119.765 446.975 Q123.77 446.975 126.107 444.869 Q128.445 442.762 128.445 439.151 Q128.445 435.54 126.107 433.434 Q123.77 431.327 119.765 431.327 Q117.89 431.327 116.015 431.744 Q114.163 432.16 112.219 433.04 L112.219 415.679 Z" fill="#000000" fill-rule="nonzero" fill-opacity="1" /><path clip-path="url(#clip490)" d="M51.6634 120.827 L59.3023 120.827 L59.3023 94.4617 L50.9921 96.1284 L50.9921 91.8692 L59.256 90.2025 L63.9319 90.2025 L63.9319 120.827 L71.5707 120.827 L71.5707 124.762 L51.6634 124.762 L51.6634 120.827 Z" fill="#000000" fill-rule="nonzero" fill-opacity="1" /><path clip-path="url(#clip490)" d="M91.0151 93.2812 Q87.404 93.2812 85.5753 96.846 Q83.7697 100.388 83.7697 107.517 Q83.7697 114.624 85.5753 118.188 Q87.404 121.73 91.0151 121.73 Q94.6493 121.73 96.4548 118.188 Q98.2835 114.624 98.2835 107.517 Q98.2835 100.388 96.4548 96.846 Q94.6493 93.2812 91.0151 93.2812 M91.0151 89.5775 Q96.8252 89.5775 99.8808 94.184 Q102.959 98.7673 102.959 107.517 Q102.959 116.244 99.8808 120.85 Q96.8252 125.434 91.0151 125.434 Q85.2049 125.434 82.1262 120.85 Q79.0707 116.244 79.0707 107.517 Q79.0707 98.7673 82.1262 94.184 Q85.2049 89.5775 91.0151 89.5775 Z" fill="#000000" fill-rule="nonzero" fill-opacity="1" /><path clip-path="url(#clip490)" d="M121.177 93.2812 Q117.566 93.2812 115.737 96.846 Q113.932 100.388 113.932 107.517 Q113.932 114.624 115.737 118.188 Q117.566 121.73 121.177 121.73 Q124.811 121.73 126.617 118.188 Q128.445 114.624 128.445 107.517 Q128.445 100.388 126.617 96.846 Q124.811 93.2812 121.177 93.2812 M121.177 89.5775 Q126.987 89.5775 130.043 94.184 Q133.121 98.7673 133.121 107.517 Q133.121 116.244 130.043 120.85 Q126.987 125.434 121.177 125.434 Q115.367 125.434 112.288 120.85 Q109.233 116.244 109.233 107.517 Q109.233 98.7673 112.288 94.184 Q115.367 89.5775 121.177 89.5775 Z" fill="#000000" fill-rule="nonzero" fill-opacity="1" /><polyline clip-path="url(#clip491)" style="stroke:#009af9; stroke-linecap:round; stroke-linejoin:round; stroke-width:4; stroke-opacity:1; fill:none" points="230.922,1408.58 244.565,1405.76 258.207,1417.15 271.85,1408.78 285.493,1395.25 299.135,1429.91 312.778,1407.1 326.42,1398.12 340.063,1445.72 353.706,1434.02 367.348,1406.55 380.991,1417.93 394.633,1405.91 408.276,1409.29 421.919,1395.58 435.561,1429.23 449.204,1419.58 462.846,1416.38 476.489,1435.52 490.132,1407.28 503.774,1427.41 517.417,1413.29 531.059,1440.41 544.702,1422.44 558.345,1397.33 571.987,1387.12 585.63,1386.7 599.273,1428.09 612.915,1408.12 626.558,1403.02 640.2,1406.67 653.843,1420.29 667.486,1399.19 681.128,1425.17 694.771,1437.22 708.413,1415.5 722.056,1414.46 735.699,1395.82 749.341,1419.99 762.984,1406.66 776.626,1415.36 790.269,1402.73 803.912,1404.22 817.554,1408.04 831.197,1392.09 844.839,1421.27 858.482,1414.85 872.125,1403.39 885.767,1392.14 899.41,1410.71 913.052,1404.28 926.695,1406.8 940.338,1394.6 953.98,1374.94 967.623,1365.35 981.265,1327.99 994.908,1331.29 1008.55,1310.21 1022.19,1309.91 1035.84,1302.57 1049.48,1283.27 1063.12,1239.75 1076.76,1248.12 1090.41,1225.92 1104.05,1216.38 1117.69,1200.46 1131.33,1190.06 1144.98,1215.5 1158.62,1188.94 1172.26,1157.93 1185.9,1133.5 1199.55,1128.73 1213.19,1127.53 1226.83,1114.34 1240.47,1094.9 1254.12,1075.77 1267.76,1068.32 1281.4,1070.27 1295.05,1041.99 1308.69,1022.16 1322.33,1007.99 1335.97,991.703 1349.62,977.623 1363.26,987.9 1376.9,949.54 1390.54,953.006 1404.19,947.203 1417.83,905.869 1431.47,918.415 1445.11,920.505 1458.76,880.383 1472.4,865.876 1486.04,869.358 1499.68,852.844 1513.33,820.676 1526.97,810.477 1540.61,804.222 1554.25,781.671 1567.9,771.669 1581.54,775.377 1595.18,761.096 1608.82,749.353 1622.47,745.273 1636.11,713.212 1649.75,699.746 1663.4,691.517 1677.04,676.546 1690.68,657.222 1704.32,643.287 1717.97,644.925 1731.61,631.795 1745.25,603.079 1758.89,582.226 1772.54,605.334 1786.18,564.168 1799.82,563.795 1813.46,543.054 1827.11,544.869 1840.75,530.174 1854.39,528.581 1868.03,505.821 1881.68,505.035 1895.32,488.469 1908.96,446.1 1922.6,436.308 1936.25,426.938 1949.89,424.385 1963.53,419.839 1977.18,394.67 1990.82,398.583 2004.46,368.413 2018.1,332.323 2031.75,335.131 2045.39,358.571 2059.03,347.903 2072.67,287.562 2086.32,296.38 2099.96,295.264 2113.6,280.962 2127.24,226.605 2140.89,209.172 2154.53,248.476 2168.17,194.905 2181.81,174.436 2195.46,172.942 2209.1,152.445 2222.74,167.164 2236.38,140.45 2250.03,138.618 2263.67,112.893 2277.31,107.89 "/>
<polyline clip-path="url(#clip491)" style="stroke:#e26f46; stroke-linecap:round; stroke-linejoin:round; stroke-width:4; stroke-opacity:1; fill:none" points="230.922,1409.39 244.565,1409.38 258.207,1409.21 271.85,1410.1 285.493,1410.05 299.135,1405.5 312.778,1413.91 326.42,1412.1 340.063,1406.57 353.706,1422.87 367.348,1430.13 380.991,1423.21 394.633,1422.38 408.276,1416.27 421.919,1412.98 435.561,1404.58 449.204,1413.22 462.846,1415.81 476.489,1416.36 490.132,1425.14 503.774,1419.15 517.417,1423.24 531.059,1419.96 544.702,1429.29 558.345,1428.22 571.987,1416.01 585.63,1402.22 599.273,1392 612.915,1403.28 626.558,1403.68 640.2,1402.04 653.843,1402.68 667.486,1409.41 681.128,1405.28 694.771,1413.61 708.413,1425.16 722.056,1423.95 735.699,1422.03 749.341,1411.99 762.984,1414.93 776.626,1411.34 790.269,1412.5 803.912,1407.91 817.554,1405.21 831.197,1405.09 844.839,1398.23 858.482,1406.2 872.125,1409.68 885.767,1407.26 899.41,1400.45 913.052,1403.62 926.695,1403.38 940.338,1404.4 953.98,1399.87 967.623,1387.9 981.265,1374.98 994.908,1349.49 1008.55,1332.93 1022.19,1312.92 1035.84,1299.77 1049.48,1288.95 1063.12,1274.61 1076.76,1246.96 1090.41,1232.4 1104.05,1214.56 1117.69,1199.86 1131.33,1184.77 1144.98,1171.79 1158.62,1176.16 1172.26,1170.4 1185.9,1154.54 1199.55,1133.9 1213.19,1118.57 1226.83,1109.06 1240.47,1098.64 1254.12,1084.67 1267.76,1068.13 1281.4,1054.88 1295.05,1048.34 1308.69,1033.46 1322.33,1015.88 1335.97,998.906 1349.62,981.603 1363.26,965.143 1376.9,960.144 1390.54,942.268 1404.19,932.946 1417.83,926.033 1431.47,905.096 1445.11,897.298 1458.76,894.92 1472.4,877.77 1486.04,860.622 1499.68,851.612 1513.33,839.994 1526.97,819.421 1540.61,801.874 1554.25,788.587 1567.9,771.406 1581.54,756.835 1595.18,750.337 1608.82,741.894 1622.47,732.857 1636.11,726.6 1649.75,709.968 1663.4,693.66 1677.04,680.094 1690.68,665.738 1704.32,648.909 1717.97,632.675 1731.61,623.864 1745.25,614.13 1758.89,596.668 1772.54,576.828 1786.18,574.754 1799.82,557.738 1813.46,547.207 1827.11,532.663 1840.75,524.993 1854.39,515.205 1868.03,509.441 1881.68,497.259 1895.32,489.809 1908.96,478.964 1922.6,454.124 1936.25,433.285 1949.89,416.074 1963.53,404.814 1977.18,397.176 1990.82,383.016 2004.46,376.618 2018.1,360.991 2031.75,335.694 2045.39,320.486 2059.03,322.26 2072.67,321.597 2086.32,296.694 2099.96,283.925 2113.6,276.265 2127.24,266.585 2140.89,237.599 2154.53,210.505 2168.17,210.39 2181.81,189.761 2195.46,167.964 2209.1,153.887 2222.74,137.379 2236.38,134.513 2250.03,123.522 2263.67,117.041 2277.31,103.289 2290.95,93.0602 "/>
<polyline clip-path="url(#clip491)" style="stroke:#3da44d; stroke-linecap:round; stroke-linejoin:round; stroke-width:4; stroke-opacity:1; fill:none" points="230.922,1409.39 244.565,1409.39 258.207,1409.39 271.85,1409.39 285.493,1409.39 299.135,1409.38 312.778,1409.4 326.42,1409.4 340.063,1409.38 353.706,1409.48 367.348,1409.58 380.991,1409.59 394.633,1409.67 408.276,1409.67 421.919,1409.69 435.561,1409.55 449.204,1409.84 462.846,1410.03 476.489,1410.2 490.132,1410.82 503.774,1410.83 517.417,1411.39 531.059,1411.57 544.702,1412.71 558.345,1413.27 571.987,1412.82 585.63,1411.84 599.273,1410.75 612.915,1411.67 626.558,1411.57 640.2,1411.17 653.843,1410.96 667.486,1411.58 681.128,1410.86 694.771,1411.83 708.413,1413.63 722.056,1413.91 735.699,1414.11 749.341,1412.96 762.984,1413.57 776.626,1413.19 790.269,1413.46 803.912,1412.76 817.554,1412.19 831.197,1411.93 844.839,1410.45 858.482,1411.26 872.125,1411.55 885.767,1410.95 899.41,1409.49 913.052,1409.53 926.695,1409.06 940.338,1408.82 953.98,1407.64 967.623,1404.97 981.265,1401.66 994.908,1395.58 1008.55,1390.01 1022.19,1383.05 1035.84,1376.37 1049.48,1369.42 1063.12,1361.29 1076.76,1350.14 1090.41,1340.17 1104.05,1328.93 1117.69,1317.49 1131.33,1305.37 1144.98,1293.03 1158.62,1283.31 1172.26,1272.03 1185.9,1258.93 1199.55,1244.61 1213.19,1230.65 1226.83,1217.34 1240.47,1203.74 1254.12,1189.36 1267.76,1174.28 1281.4,1159.46 1295.05,1145.63 1308.69,1130.4 1322.33,1114.49 1335.97,1098.39 1349.62,1081.94 1363.26,1065.36 1376.9,1050.58 1390.54,1033.7 1404.19,1018.12 1417.83,1003.07 1431.47,985.718 1445.11,970.435 1458.76,956.321 1472.4,939.996 1486.04,923.583 1499.68,908.519 1513.33,893.174 1526.97,876.326 1540.61,859.784 1554.25,843.856 1567.9,827.233 1581.54,810.945 1595.18,796.074 1608.82,781.142 1622.47,766.356 1636.11,752.322 1649.75,736.793 1663.4,721.309 1677.04,706.288 1690.68,691.18 1704.32,675.647 1717.97,660.137 1731.61,645.891 1745.25,631.687 1758.89,616.288 1772.54,600.368 1786.18,587.445 1799.82,572.294 1813.46,558.245 1827.11,543.64 1840.75,530.293 1854.39,516.842 1868.03,504.334 1881.68,491.046 1895.32,478.757 1908.96,466.17 1922.6,451.246 1936.25,436.669 1949.89,422.46 1963.53,409.148 1977.18,396.538 1990.82,382.963 2004.46,370.772 2018.1,357.199 2031.75,341.83 2045.39,327.83 2059.03,316.785 2072.67,305.864 2086.32,291.109 2099.96,278.172 2113.6,266.191 2127.24,254.078 2140.89,238.651 2154.53,222.982 2168.17,211.592 2181.81,196.927 2195.46,181.75 2209.1,167.593 2222.74,152.905 2236.38,140.508 2250.03,127.016 2263.67,114.451 2277.31,100.875 2290.95,87.9763 "/>
<path clip-path="url(#clip490)" d="M241.909 302.578 L954.987 302.578 L954.987 95.2176 L241.909 95.2176  Z" fill="#ffffff" fill-rule="evenodd" fill-opacity="1"/>
<polyline clip-path="url(#clip490)" style="stroke:#000000; stroke-linecap:round; stroke-linejoin:round; stroke-width:4; stroke-opacity:1; fill:none" points="241.909,302.578 954.987,302.578 954.987,95.2176 241.909,95.2176 241.909,302.578 "/>
<polyline clip-path="url(#clip490)" style="stroke:#009af9; stroke-linecap:round; stroke-linejoin:round; stroke-width:4; stroke-opacity:1; fill:none" points="266.172,147.058 411.747,147.058 "/>
<path clip-path="url(#clip490)" d="M436.01 129.778 L442.978 129.778 L451.797 153.296 L460.663 129.778 L467.63 129.778 L467.63 164.338 L463.07 164.338 L463.07 133.99 L454.158 157.694 L449.459 157.694 L440.547 133.99 L440.547 164.338 L436.01 164.338 L436.01 129.778 Z" fill="#000000" fill-rule="nonzero" fill-opacity="1" /><path clip-path="url(#clip490)" d="M498.903 150.31 L498.903 152.393 L479.32 152.393 Q479.598 156.791 481.959 159.106 Q484.343 161.398 488.579 161.398 Q491.033 161.398 493.324 160.796 Q495.639 160.194 497.908 158.99 L497.908 163.018 Q495.616 163.99 493.209 164.5 Q490.801 165.009 488.325 165.009 Q482.121 165.009 478.487 161.398 Q474.876 157.787 474.876 151.629 Q474.876 145.264 478.301 141.537 Q481.75 137.787 487.584 137.787 Q492.815 137.787 495.848 141.166 Q498.903 144.523 498.903 150.31 M494.644 149.06 Q494.598 145.565 492.676 143.481 Q490.778 141.398 487.63 141.398 Q484.065 141.398 481.913 143.412 Q479.783 145.426 479.459 149.083 L494.644 149.06 Z" fill="#000000" fill-rule="nonzero" fill-opacity="1" /><path clip-path="url(#clip490)" d="M517.676 151.305 Q512.514 151.305 510.523 152.486 Q508.533 153.666 508.533 156.514 Q508.533 158.782 510.014 160.125 Q511.519 161.444 514.088 161.444 Q517.63 161.444 519.76 158.944 Q521.912 156.421 521.912 152.254 L521.912 151.305 L517.676 151.305 M526.172 149.546 L526.172 164.338 L521.912 164.338 L521.912 160.402 Q520.454 162.763 518.278 163.898 Q516.102 165.009 512.954 165.009 Q508.973 165.009 506.611 162.787 Q504.274 160.541 504.274 156.791 Q504.274 152.416 507.19 150.194 Q510.13 147.972 515.94 147.972 L521.912 147.972 L521.912 147.555 Q521.912 144.615 519.968 143.018 Q518.047 141.398 514.551 141.398 Q512.329 141.398 510.223 141.93 Q508.116 142.463 506.172 143.527 L506.172 139.592 Q508.51 138.69 510.709 138.25 Q512.908 137.787 514.991 137.787 Q520.616 137.787 523.394 140.703 Q526.172 143.62 526.172 149.546 Z" fill="#000000" fill-rule="nonzero" fill-opacity="1" /><path clip-path="url(#clip490)" d="M551.472 139.176 L551.472 143.203 Q549.667 142.277 547.722 141.815 Q545.778 141.352 543.695 141.352 Q540.523 141.352 538.926 142.324 Q537.352 143.296 537.352 145.24 Q537.352 146.722 538.486 147.578 Q539.621 148.412 543.046 149.176 L544.505 149.5 Q549.042 150.472 550.94 152.254 Q552.861 154.014 552.861 157.185 Q552.861 160.796 549.991 162.902 Q547.144 165.009 542.144 165.009 Q540.06 165.009 537.792 164.592 Q535.546 164.199 533.047 163.388 L533.047 158.99 Q535.408 160.217 537.699 160.842 Q539.991 161.444 542.236 161.444 Q545.246 161.444 546.866 160.426 Q548.486 159.384 548.486 157.509 Q548.486 155.773 547.306 154.847 Q546.148 153.921 542.19 153.064 L540.709 152.717 Q536.75 151.884 534.991 150.171 Q533.232 148.435 533.232 145.426 Q533.232 141.768 535.824 139.778 Q538.417 137.787 543.185 137.787 Q545.546 137.787 547.63 138.134 Q549.713 138.481 551.472 139.176 Z" fill="#000000" fill-rule="nonzero" fill-opacity="1" /><path clip-path="url(#clip490)" d="M559.204 154.106 L559.204 138.412 L563.463 138.412 L563.463 153.944 Q563.463 157.625 564.898 159.476 Q566.333 161.305 569.204 161.305 Q572.653 161.305 574.644 159.106 Q576.657 156.907 576.657 153.111 L576.657 138.412 L580.917 138.412 L580.917 164.338 L576.657 164.338 L576.657 160.356 Q575.106 162.717 573.046 163.875 Q571.009 165.009 568.301 165.009 Q563.833 165.009 561.519 162.231 Q559.204 159.453 559.204 154.106 M569.921 137.787 L569.921 137.787 Z" fill="#000000" fill-rule="nonzero" fill-opacity="1" /><path clip-path="url(#clip490)" d="M604.713 142.393 Q603.995 141.977 603.139 141.791 Q602.305 141.583 601.287 141.583 Q597.676 141.583 595.731 143.944 Q593.81 146.282 593.81 150.68 L593.81 164.338 L589.528 164.338 L589.528 138.412 L593.81 138.412 L593.81 142.44 Q595.153 140.078 597.305 138.944 Q599.458 137.787 602.537 137.787 Q602.977 137.787 603.509 137.856 Q604.041 137.903 604.69 138.018 L604.713 142.393 Z" fill="#000000" fill-rule="nonzero" fill-opacity="1" /><path clip-path="url(#clip490)" d="M630.315 150.31 L630.315 152.393 L610.731 152.393 Q611.009 156.791 613.37 159.106 Q615.754 161.398 619.99 161.398 Q622.444 161.398 624.736 160.796 Q627.051 160.194 629.319 158.99 L629.319 163.018 Q627.027 163.99 624.62 164.5 Q622.213 165.009 619.736 165.009 Q613.532 165.009 609.898 161.398 Q606.287 157.787 606.287 151.629 Q606.287 145.264 609.713 141.537 Q613.162 137.787 618.995 137.787 Q624.227 137.787 627.259 141.166 Q630.315 144.523 630.315 150.31 M626.055 149.06 Q626.009 145.565 624.088 143.481 Q622.19 141.398 619.041 141.398 Q615.477 141.398 613.324 143.412 Q611.194 145.426 610.87 149.083 L626.055 149.06 Z" fill="#000000" fill-rule="nonzero" fill-opacity="1" /><path clip-path="url(#clip490)" d="M657.49 143.389 Q659.087 140.518 661.31 139.153 Q663.532 137.787 666.541 137.787 Q670.592 137.787 672.791 140.634 Q674.99 143.458 674.99 148.689 L674.99 164.338 L670.708 164.338 L670.708 148.828 Q670.708 145.102 669.388 143.296 Q668.069 141.49 665.361 141.49 Q662.05 141.49 660.129 143.69 Q658.208 145.889 658.208 149.685 L658.208 164.338 L653.925 164.338 L653.925 148.828 Q653.925 145.078 652.606 143.296 Q651.287 141.49 648.532 141.49 Q645.268 141.49 643.347 143.713 Q641.426 145.912 641.426 149.685 L641.426 164.338 L637.143 164.338 L637.143 138.412 L641.426 138.412 L641.426 142.44 Q642.884 140.055 644.921 138.921 Q646.958 137.787 649.759 137.787 Q652.583 137.787 654.55 139.222 Q656.541 140.657 657.49 143.389 Z" fill="#000000" fill-rule="nonzero" fill-opacity="1" /><path clip-path="url(#clip490)" d="M705.661 150.31 L705.661 152.393 L686.078 152.393 Q686.356 156.791 688.717 159.106 Q691.101 161.398 695.337 161.398 Q697.791 161.398 700.083 160.796 Q702.397 160.194 704.666 158.99 L704.666 163.018 Q702.374 163.99 699.967 164.5 Q697.56 165.009 695.083 165.009 Q688.879 165.009 685.245 161.398 Q681.634 157.787 681.634 151.629 Q681.634 145.264 685.06 141.537 Q688.509 137.787 694.342 137.787 Q699.573 137.787 702.606 141.166 Q705.661 144.523 705.661 150.31 M701.402 149.06 Q701.356 145.565 699.435 143.481 Q697.536 141.398 694.388 141.398 Q690.823 141.398 688.671 143.412 Q686.541 145.426 686.217 149.083 L701.402 149.06 Z" fill="#000000" fill-rule="nonzero" fill-opacity="1" /><path clip-path="url(#clip490)" d="M734.203 148.689 L734.203 164.338 L729.944 164.338 L729.944 148.828 Q729.944 145.148 728.508 143.319 Q727.073 141.49 724.203 141.49 Q720.754 141.49 718.763 143.69 Q716.772 145.889 716.772 149.685 L716.772 164.338 L712.49 164.338 L712.49 138.412 L716.772 138.412 L716.772 142.44 Q718.3 140.102 720.36 138.944 Q722.444 137.787 725.152 137.787 Q729.62 137.787 731.911 140.565 Q734.203 143.319 734.203 148.689 Z" fill="#000000" fill-rule="nonzero" fill-opacity="1" /><path clip-path="url(#clip490)" d="M746.911 131.051 L746.911 138.412 L755.684 138.412 L755.684 141.722 L746.911 141.722 L746.911 155.796 Q746.911 158.967 747.768 159.87 Q748.647 160.773 751.309 160.773 L755.684 160.773 L755.684 164.338 L751.309 164.338 Q746.379 164.338 744.504 162.509 Q742.629 160.657 742.629 155.796 L742.629 141.722 L739.504 141.722 L739.504 138.412 L742.629 138.412 L742.629 131.051 L746.911 131.051 Z" fill="#000000" fill-rule="nonzero" fill-opacity="1" /><polyline clip-path="url(#clip490)" style="stroke:#e26f46; stroke-linecap:round; stroke-linejoin:round; stroke-width:4; stroke-opacity:1; fill:none" points="266.172,198.898 411.747,198.898 "/>
<path clip-path="url(#clip490)" d="M436.01 169.721 L457.862 169.721 L457.862 173.657 L440.686 173.657 L440.686 183.888 L457.144 183.888 L457.144 187.823 L440.686 187.823 L440.686 200.346 L458.278 200.346 L458.278 204.281 L436.01 204.281 L436.01 169.721 Z" fill="#000000" fill-rule="nonzero" fill-opacity="1" /><path clip-path="url(#clip490)" d="M482.306 179.12 L482.306 183.147 Q480.5 182.221 478.556 181.758 Q476.612 181.295 474.528 181.295 Q471.357 181.295 469.76 182.268 Q468.186 183.24 468.186 185.184 Q468.186 186.666 469.32 187.522 Q470.454 188.356 473.88 189.12 L475.338 189.444 Q479.875 190.416 481.774 192.198 Q483.695 193.957 483.695 197.129 Q483.695 200.74 480.825 202.846 Q477.977 204.953 472.977 204.953 Q470.894 204.953 468.626 204.536 Q466.38 204.143 463.88 203.332 L463.88 198.934 Q466.241 200.161 468.533 200.786 Q470.825 201.388 473.07 201.388 Q476.079 201.388 477.7 200.369 Q479.32 199.328 479.32 197.453 Q479.32 195.717 478.139 194.791 Q476.982 193.865 473.024 193.008 L471.542 192.661 Q467.584 191.828 465.825 190.115 Q464.065 188.379 464.065 185.37 Q464.065 181.712 466.658 179.721 Q469.251 177.731 474.019 177.731 Q476.38 177.731 478.463 178.078 Q480.547 178.425 482.306 179.12 Z" fill="#000000" fill-rule="nonzero" fill-opacity="1" /><path clip-path="url(#clip490)" d="M494.69 170.995 L494.69 178.356 L503.463 178.356 L503.463 181.666 L494.69 181.666 L494.69 195.74 Q494.69 198.911 495.547 199.814 Q496.426 200.717 499.088 200.717 L503.463 200.717 L503.463 204.281 L499.088 204.281 Q494.158 204.281 492.283 202.453 Q490.408 200.601 490.408 195.74 L490.408 181.666 L487.283 181.666 L487.283 178.356 L490.408 178.356 L490.408 170.995 L494.69 170.995 Z" fill="#000000" fill-rule="nonzero" fill-opacity="1" /><path clip-path="url(#clip490)" d="M509.065 178.356 L513.324 178.356 L513.324 204.281 L509.065 204.281 L509.065 178.356 M509.065 168.263 L513.324 168.263 L513.324 173.657 L509.065 173.657 L509.065 168.263 Z" fill="#000000" fill-rule="nonzero" fill-opacity="1" /><path clip-path="url(#clip490)" d="M542.421 183.332 Q544.019 180.462 546.241 179.096 Q548.463 177.731 551.472 177.731 Q555.523 177.731 557.722 180.578 Q559.921 183.402 559.921 188.633 L559.921 204.281 L555.639 204.281 L555.639 188.772 Q555.639 185.045 554.32 183.24 Q553 181.434 550.292 181.434 Q546.982 181.434 545.06 183.633 Q543.139 185.832 543.139 189.629 L543.139 204.281 L538.857 204.281 L538.857 188.772 Q538.857 185.022 537.537 183.24 Q536.218 181.434 533.463 181.434 Q530.199 181.434 528.278 183.657 Q526.357 185.856 526.357 189.629 L526.357 204.281 L522.074 204.281 L522.074 178.356 L526.357 178.356 L526.357 182.383 Q527.815 179.999 529.852 178.865 Q531.889 177.731 534.69 177.731 Q537.514 177.731 539.482 179.166 Q541.472 180.601 542.421 183.332 Z" fill="#000000" fill-rule="nonzero" fill-opacity="1" /><path clip-path="url(#clip490)" d="M580.199 191.249 Q575.037 191.249 573.046 192.43 Q571.056 193.61 571.056 196.457 Q571.056 198.726 572.537 200.069 Q574.042 201.388 576.611 201.388 Q580.153 201.388 582.282 198.888 Q584.435 196.365 584.435 192.198 L584.435 191.249 L580.199 191.249 M588.694 189.49 L588.694 204.281 L584.435 204.281 L584.435 200.346 Q582.977 202.707 580.801 203.842 Q578.625 204.953 575.477 204.953 Q571.495 204.953 569.134 202.731 Q566.796 200.485 566.796 196.735 Q566.796 192.36 569.713 190.138 Q572.653 187.916 578.463 187.916 L584.435 187.916 L584.435 187.499 Q584.435 184.559 582.491 182.962 Q580.569 181.342 577.074 181.342 Q574.852 181.342 572.745 181.874 Q570.639 182.407 568.694 183.471 L568.694 179.536 Q571.032 178.633 573.231 178.194 Q575.431 177.731 577.514 177.731 Q583.139 177.731 585.917 180.647 Q588.694 183.564 588.694 189.49 Z" fill="#000000" fill-rule="nonzero" fill-opacity="1" /><path clip-path="url(#clip490)" d="M601.68 170.995 L601.68 178.356 L610.453 178.356 L610.453 181.666 L601.68 181.666 L601.68 195.74 Q601.68 198.911 602.537 199.814 Q603.416 200.717 606.079 200.717 L610.453 200.717 L610.453 204.281 L606.079 204.281 Q601.148 204.281 599.273 202.453 Q597.398 200.601 597.398 195.74 L597.398 181.666 L594.273 181.666 L594.273 178.356 L597.398 178.356 L597.398 170.995 L601.68 170.995 Z" fill="#000000" fill-rule="nonzero" fill-opacity="1" /><path clip-path="url(#clip490)" d="M638.231 190.254 L638.231 192.337 L618.648 192.337 Q618.926 196.735 621.287 199.05 Q623.671 201.342 627.907 201.342 Q630.361 201.342 632.652 200.74 Q634.967 200.138 637.236 198.934 L637.236 202.962 Q634.944 203.934 632.537 204.443 Q630.129 204.953 627.652 204.953 Q621.449 204.953 617.815 201.342 Q614.203 197.731 614.203 191.573 Q614.203 185.207 617.629 181.481 Q621.078 177.731 626.912 177.731 Q632.143 177.731 635.176 181.11 Q638.231 184.467 638.231 190.254 M633.972 189.004 Q633.926 185.508 632.004 183.425 Q630.106 181.342 626.958 181.342 Q623.393 181.342 621.24 183.356 Q619.111 185.37 618.787 189.027 L633.972 189.004 Z" fill="#000000" fill-rule="nonzero" fill-opacity="1" /><path clip-path="url(#clip490)" d="M681.19 184.747 Q681.19 186.387 678.848 186.387 L673.578 186.387 Q675.053 188.495 675.053 191.61 Q675.053 194.28 673.953 196.786 Q672.875 199.269 671.142 201.002 Q669.432 202.736 667.277 203.79 Q665.122 204.82 663.014 204.82 Q659.805 204.82 657.815 202.642 Q655.824 200.464 655.824 197.231 Q655.824 195.521 656.409 193.624 Q657.018 191.727 658.166 189.97 Q659.314 188.19 660.813 186.761 Q662.335 185.333 664.303 184.466 Q666.293 183.599 668.378 183.599 L679.316 183.599 Q679.902 183.599 680.206 183.646 Q680.534 183.67 680.862 183.951 Q681.19 184.208 681.19 184.747 M671.985 191.048 Q671.985 190.486 671.915 189.994 Q671.845 189.478 671.587 188.799 Q671.329 188.097 670.884 187.605 Q670.439 187.089 669.573 186.738 Q668.729 186.387 667.582 186.387 Q665.966 186.387 664.185 187.277 Q662.405 188.167 661.047 190.369 Q659.923 192.242 659.36 194.678 Q658.798 197.114 658.798 198.566 Q658.798 201.049 659.993 202.408 Q661.211 203.743 663.061 203.743 Q664.584 203.743 666.317 202.712 Q668.05 201.658 669.385 199.667 Q670.556 197.934 671.259 195.404 Q671.985 192.875 671.985 191.048 Z" fill="#000000" fill-rule="nonzero" fill-opacity="1" /><path clip-path="url(#clip490)" d="M708.286 201.133 Q708.286 202.395 707.597 205.182 Q706.908 207.97 706.072 209.872 Q704.285 214.003 701.203 214.003 Q700.826 214.003 700.448 213.97 Q700.088 213.938 699.547 213.79 Q699.006 213.643 698.563 213.413 Q698.12 213.167 697.678 212.708 Q697.251 212.249 697.005 211.642 Q695.644 214.003 693.513 214.003 Q691.447 214.003 690.086 212.954 Q688.742 211.905 688.742 209.757 Q688.742 208.789 689.135 207.363 Q689.529 205.937 690.627 202.985 Q691.234 201.461 691.234 200.624 Q691.234 200.247 691.152 200.001 Q691.07 199.755 690.906 199.673 Q690.759 199.575 690.66 199.559 Q690.562 199.526 690.398 199.526 Q689.414 199.526 688.529 200.526 Q687.643 201.51 687.004 203.69 Q686.873 204.1 686.791 204.199 Q686.709 204.297 686.463 204.297 Q686.053 204.281 686.053 203.953 Q686.053 203.822 686.201 203.313 Q686.348 202.789 686.692 202.018 Q687.053 201.231 687.545 200.526 Q688.037 199.805 688.807 199.296 Q689.594 198.788 690.496 198.788 Q691.71 198.788 692.48 199.591 Q693.251 200.395 693.251 201.543 Q693.251 201.87 693.169 202.231 Q693.087 202.575 693.005 202.805 Q692.939 203.018 692.677 203.69 Q691.595 206.527 691.25 207.888 Q690.923 209.248 690.923 210.199 Q690.923 210.511 690.939 210.757 Q690.955 211.003 691.086 211.511 Q691.234 212.019 691.496 212.364 Q691.759 212.692 692.3 212.97 Q692.857 213.249 693.611 213.249 Q695.497 213.249 696.71 210.429 Q696.677 210.265 696.677 209.839 Q696.677 208.888 696.973 207.609 Q697.055 207.314 697.53 205.428 Q698.005 203.526 698.415 201.87 Q698.842 200.198 698.891 200.1 Q699.055 199.641 699.416 199.395 Q699.776 199.149 700.137 199.149 Q700.547 199.149 700.826 199.395 Q701.104 199.641 701.104 200.067 Q701.104 200.149 701.006 200.526 Q700.924 200.887 700.793 201.428 Q700.662 201.969 700.596 202.248 L699.186 207.888 Q698.825 209.199 698.825 210.331 Q698.825 211.757 699.465 212.511 Q700.104 213.249 701.301 213.249 Q703.547 213.249 704.99 210.298 Q705.646 209.019 706.236 207.019 Q706.843 205.018 706.843 204.149 Q706.843 202.51 705.629 201.297 Q705.367 201.067 705.252 200.887 Q705.138 200.69 705.138 200.395 Q705.138 199.837 705.662 199.313 Q706.187 198.788 706.81 198.788 Q707.367 198.788 707.827 199.345 Q708.286 199.887 708.286 201.133 Z" fill="#000000" fill-rule="nonzero" fill-opacity="1" /><path clip-path="url(#clip490)" d="M733.272 182.754 L762.948 182.754 L762.948 186.643 L733.272 186.643 L733.272 182.754 M733.272 192.198 L762.948 192.198 L762.948 196.133 L733.272 196.133 L733.272 192.198 Z" fill="#000000" fill-rule="nonzero" fill-opacity="1" /><path clip-path="url(#clip490)" d="M798.109 172.8 Q794.498 172.8 792.67 176.365 Q790.864 179.907 790.864 187.036 Q790.864 194.143 792.67 197.707 Q794.498 201.249 798.109 201.249 Q801.744 201.249 803.549 197.707 Q805.378 194.143 805.378 187.036 Q805.378 179.907 803.549 176.365 Q801.744 172.8 798.109 172.8 M798.109 169.096 Q803.92 169.096 806.975 173.703 Q810.054 178.286 810.054 187.036 Q810.054 195.763 806.975 200.369 Q803.92 204.953 798.109 204.953 Q792.299 204.953 789.221 200.369 Q786.165 195.763 786.165 187.036 Q786.165 178.286 789.221 173.703 Q792.299 169.096 798.109 169.096 Z" fill="#000000" fill-rule="nonzero" fill-opacity="1" /><path clip-path="url(#clip490)" d="M818.271 198.402 L823.156 198.402 L823.156 204.281 L818.271 204.281 L818.271 198.402 Z" fill="#000000" fill-rule="nonzero" fill-opacity="1" /><path clip-path="url(#clip490)" d="M843.341 172.8 Q839.729 172.8 837.901 176.365 Q836.095 179.907 836.095 187.036 Q836.095 194.143 837.901 197.707 Q839.729 201.249 843.341 201.249 Q846.975 201.249 848.78 197.707 Q850.609 194.143 850.609 187.036 Q850.609 179.907 848.78 176.365 Q846.975 172.8 843.341 172.8 M843.341 169.096 Q849.151 169.096 852.206 173.703 Q855.285 178.286 855.285 187.036 Q855.285 195.763 852.206 200.369 Q849.151 204.953 843.341 204.953 Q837.53 204.953 834.452 200.369 Q831.396 195.763 831.396 187.036 Q831.396 178.286 834.452 173.703 Q837.53 169.096 843.341 169.096 Z" fill="#000000" fill-rule="nonzero" fill-opacity="1" /><path clip-path="url(#clip490)" d="M864.313 200.346 L871.952 200.346 L871.952 173.981 L863.641 175.647 L863.641 171.388 L871.905 169.721 L876.581 169.721 L876.581 200.346 L884.22 200.346 L884.22 204.281 L864.313 204.281 L864.313 200.346 Z" fill="#000000" fill-rule="nonzero" fill-opacity="1" /><polyline clip-path="url(#clip490)" style="stroke:#3da44d; stroke-linecap:round; stroke-linejoin:round; stroke-width:4; stroke-opacity:1; fill:none" points="266.172,250.738 411.747,250.738 "/>
<path clip-path="url(#clip490)" d="M436.01 221.561 L457.862 221.561 L457.862 225.497 L440.686 225.497 L440.686 235.728 L457.144 235.728 L457.144 239.663 L440.686 239.663 L440.686 252.186 L458.278 252.186 L458.278 256.121 L436.01 256.121 L436.01 221.561 Z" fill="#000000" fill-rule="nonzero" fill-opacity="1" /><path clip-path="url(#clip490)" d="M482.306 230.96 L482.306 234.987 Q480.5 234.061 478.556 233.598 Q476.612 233.135 474.528 233.135 Q471.357 233.135 469.76 234.108 Q468.186 235.08 468.186 237.024 Q468.186 238.506 469.32 239.362 Q470.454 240.196 473.88 240.96 L475.338 241.284 Q479.875 242.256 481.774 244.038 Q483.695 245.797 483.695 248.969 Q483.695 252.58 480.825 254.686 Q477.977 256.793 472.977 256.793 Q470.894 256.793 468.626 256.376 Q466.38 255.983 463.88 255.172 L463.88 250.774 Q466.241 252.001 468.533 252.626 Q470.825 253.228 473.07 253.228 Q476.079 253.228 477.7 252.209 Q479.32 251.168 479.32 249.293 Q479.32 247.557 478.139 246.631 Q476.982 245.705 473.024 244.848 L471.542 244.501 Q467.584 243.668 465.825 241.955 Q464.065 240.219 464.065 237.21 Q464.065 233.552 466.658 231.561 Q469.251 229.571 474.019 229.571 Q476.38 229.571 478.463 229.918 Q480.547 230.265 482.306 230.96 Z" fill="#000000" fill-rule="nonzero" fill-opacity="1" /><path clip-path="url(#clip490)" d="M494.69 222.835 L494.69 230.196 L503.463 230.196 L503.463 233.506 L494.69 233.506 L494.69 247.58 Q494.69 250.751 495.547 251.654 Q496.426 252.557 499.088 252.557 L503.463 252.557 L503.463 256.121 L499.088 256.121 Q494.158 256.121 492.283 254.293 Q490.408 252.441 490.408 247.58 L490.408 233.506 L487.283 233.506 L487.283 230.196 L490.408 230.196 L490.408 222.835 L494.69 222.835 Z" fill="#000000" fill-rule="nonzero" fill-opacity="1" /><path clip-path="url(#clip490)" d="M509.065 230.196 L513.324 230.196 L513.324 256.121 L509.065 256.121 L509.065 230.196 M509.065 220.103 L513.324 220.103 L513.324 225.497 L509.065 225.497 L509.065 220.103 Z" fill="#000000" fill-rule="nonzero" fill-opacity="1" /><path clip-path="url(#clip490)" d="M542.421 235.172 Q544.019 232.302 546.241 230.936 Q548.463 229.571 551.472 229.571 Q555.523 229.571 557.722 232.418 Q559.921 235.242 559.921 240.473 L559.921 256.121 L555.639 256.121 L555.639 240.612 Q555.639 236.885 554.32 235.08 Q553 233.274 550.292 233.274 Q546.982 233.274 545.06 235.473 Q543.139 237.672 543.139 241.469 L543.139 256.121 L538.857 256.121 L538.857 240.612 Q538.857 236.862 537.537 235.08 Q536.218 233.274 533.463 233.274 Q530.199 233.274 528.278 235.497 Q526.357 237.696 526.357 241.469 L526.357 256.121 L522.074 256.121 L522.074 230.196 L526.357 230.196 L526.357 234.223 Q527.815 231.839 529.852 230.705 Q531.889 229.571 534.69 229.571 Q537.514 229.571 539.482 231.006 Q541.472 232.441 542.421 235.172 Z" fill="#000000" fill-rule="nonzero" fill-opacity="1" /><path clip-path="url(#clip490)" d="M580.199 243.089 Q575.037 243.089 573.046 244.27 Q571.056 245.45 571.056 248.297 Q571.056 250.566 572.537 251.909 Q574.042 253.228 576.611 253.228 Q580.153 253.228 582.282 250.728 Q584.435 248.205 584.435 244.038 L584.435 243.089 L580.199 243.089 M588.694 241.33 L588.694 256.121 L584.435 256.121 L584.435 252.186 Q582.977 254.547 580.801 255.682 Q578.625 256.793 575.477 256.793 Q571.495 256.793 569.134 254.571 Q566.796 252.325 566.796 248.575 Q566.796 244.2 569.713 241.978 Q572.653 239.756 578.463 239.756 L584.435 239.756 L584.435 239.339 Q584.435 236.399 582.491 234.802 Q580.569 233.182 577.074 233.182 Q574.852 233.182 572.745 233.714 Q570.639 234.247 568.694 235.311 L568.694 231.376 Q571.032 230.473 573.231 230.034 Q575.431 229.571 577.514 229.571 Q583.139 229.571 585.917 232.487 Q588.694 235.404 588.694 241.33 Z" fill="#000000" fill-rule="nonzero" fill-opacity="1" /><path clip-path="url(#clip490)" d="M601.68 222.835 L601.68 230.196 L610.453 230.196 L610.453 233.506 L601.68 233.506 L601.68 247.58 Q601.68 250.751 602.537 251.654 Q603.416 252.557 606.079 252.557 L610.453 252.557 L610.453 256.121 L606.079 256.121 Q601.148 256.121 599.273 254.293 Q597.398 252.441 597.398 247.58 L597.398 233.506 L594.273 233.506 L594.273 230.196 L597.398 230.196 L597.398 222.835 L601.68 222.835 Z" fill="#000000" fill-rule="nonzero" fill-opacity="1" /><path clip-path="url(#clip490)" d="M638.231 242.094 L638.231 244.177 L618.648 244.177 Q618.926 248.575 621.287 250.89 Q623.671 253.182 627.907 253.182 Q630.361 253.182 632.652 252.58 Q634.967 251.978 637.236 250.774 L637.236 254.802 Q634.944 255.774 632.537 256.283 Q630.129 256.793 627.652 256.793 Q621.449 256.793 617.815 253.182 Q614.203 249.571 614.203 243.413 Q614.203 237.047 617.629 233.321 Q621.078 229.571 626.912 229.571 Q632.143 229.571 635.176 232.95 Q638.231 236.307 638.231 242.094 M633.972 240.844 Q633.926 237.348 632.004 235.265 Q630.106 233.182 626.958 233.182 Q623.393 233.182 621.24 235.196 Q619.111 237.21 618.787 240.867 L633.972 240.844 Z" fill="#000000" fill-rule="nonzero" fill-opacity="1" /><path clip-path="url(#clip490)" d="M681.19 236.587 Q681.19 238.227 678.848 238.227 L673.578 238.227 Q675.053 240.335 675.053 243.45 Q675.053 246.12 673.953 248.626 Q672.875 251.109 671.142 252.842 Q669.432 254.576 667.277 255.63 Q665.122 256.66 663.014 256.66 Q659.805 256.66 657.815 254.482 Q655.824 252.304 655.824 249.071 Q655.824 247.361 656.409 245.464 Q657.018 243.567 658.166 241.81 Q659.314 240.03 660.813 238.601 Q662.335 237.173 664.303 236.306 Q666.293 235.439 668.378 235.439 L679.316 235.439 Q679.902 235.439 680.206 235.486 Q680.534 235.51 680.862 235.791 Q681.19 236.048 681.19 236.587 M671.985 242.888 Q671.985 242.326 671.915 241.834 Q671.845 241.318 671.587 240.639 Q671.329 239.937 670.884 239.445 Q670.439 238.929 669.573 238.578 Q668.729 238.227 667.582 238.227 Q665.966 238.227 664.185 239.117 Q662.405 240.007 661.047 242.209 Q659.923 244.082 659.36 246.518 Q658.798 248.954 658.798 250.406 Q658.798 252.889 659.993 254.248 Q661.211 255.583 663.061 255.583 Q664.584 255.583 666.317 254.552 Q668.05 253.498 669.385 251.507 Q670.556 249.774 671.259 247.244 Q671.985 244.715 671.985 242.888 Z" fill="#000000" fill-rule="nonzero" fill-opacity="1" /><path clip-path="url(#clip490)" d="M708.286 252.973 Q708.286 254.235 707.597 257.022 Q706.908 259.81 706.072 261.712 Q704.285 265.843 701.203 265.843 Q700.826 265.843 700.448 265.81 Q700.088 265.778 699.547 265.63 Q699.006 265.483 698.563 265.253 Q698.12 265.007 697.678 264.548 Q697.251 264.089 697.005 263.482 Q695.644 265.843 693.513 265.843 Q691.447 265.843 690.086 264.794 Q688.742 263.745 688.742 261.597 Q688.742 260.629 689.135 259.203 Q689.529 257.777 690.627 254.825 Q691.234 253.301 691.234 252.464 Q691.234 252.087 691.152 251.841 Q691.07 251.595 690.906 251.513 Q690.759 251.415 690.66 251.399 Q690.562 251.366 690.398 251.366 Q689.414 251.366 688.529 252.366 Q687.643 253.35 687.004 255.53 Q686.873 255.94 686.791 256.039 Q686.709 256.137 686.463 256.137 Q686.053 256.121 686.053 255.793 Q686.053 255.662 686.201 255.153 Q686.348 254.629 686.692 253.858 Q687.053 253.071 687.545 252.366 Q688.037 251.645 688.807 251.136 Q689.594 250.628 690.496 250.628 Q691.71 250.628 692.48 251.431 Q693.251 252.235 693.251 253.383 Q693.251 253.71 693.169 254.071 Q693.087 254.415 693.005 254.645 Q692.939 254.858 692.677 255.53 Q691.595 258.367 691.25 259.728 Q690.923 261.088 690.923 262.039 Q690.923 262.351 690.939 262.597 Q690.955 262.843 691.086 263.351 Q691.234 263.859 691.496 264.204 Q691.759 264.532 692.3 264.81 Q692.857 265.089 693.611 265.089 Q695.497 265.089 696.71 262.269 Q696.677 262.105 696.677 261.679 Q696.677 260.728 696.973 259.449 Q697.055 259.154 697.53 257.268 Q698.005 255.366 698.415 253.71 Q698.842 252.038 698.891 251.94 Q699.055 251.481 699.416 251.235 Q699.776 250.989 700.137 250.989 Q700.547 250.989 700.826 251.235 Q701.104 251.481 701.104 251.907 Q701.104 251.989 701.006 252.366 Q700.924 252.727 700.793 253.268 Q700.662 253.809 700.596 254.088 L699.186 259.728 Q698.825 261.039 698.825 262.171 Q698.825 263.597 699.465 264.351 Q700.104 265.089 701.301 265.089 Q703.547 265.089 704.99 262.138 Q705.646 260.859 706.236 258.859 Q706.843 256.858 706.843 255.989 Q706.843 254.35 705.629 253.137 Q705.367 252.907 705.252 252.727 Q705.138 252.53 705.138 252.235 Q705.138 251.677 705.662 251.153 Q706.187 250.628 706.81 250.628 Q707.367 250.628 707.827 251.185 Q708.286 251.727 708.286 252.973 Z" fill="#000000" fill-rule="nonzero" fill-opacity="1" /><path clip-path="url(#clip490)" d="M733.272 234.594 L762.948 234.594 L762.948 238.483 L733.272 238.483 L733.272 234.594 M733.272 244.038 L762.948 244.038 L762.948 247.973 L733.272 247.973 L733.272 244.038 Z" fill="#000000" fill-rule="nonzero" fill-opacity="1" /><path clip-path="url(#clip490)" d="M788.92 252.186 L796.558 252.186 L796.558 225.821 L788.248 227.487 L788.248 223.228 L796.512 221.561 L801.188 221.561 L801.188 252.186 L808.827 252.186 L808.827 256.121 L788.92 256.121 L788.92 252.186 Z" fill="#000000" fill-rule="nonzero" fill-opacity="1" /><path clip-path="url(#clip490)" d="M818.271 250.242 L823.156 250.242 L823.156 256.121 L818.271 256.121 L818.271 250.242 Z" fill="#000000" fill-rule="nonzero" fill-opacity="1" /><path clip-path="url(#clip490)" d="M843.341 224.64 Q839.729 224.64 837.901 228.205 Q836.095 231.747 836.095 238.876 Q836.095 245.983 837.901 249.547 Q839.729 253.089 843.341 253.089 Q846.975 253.089 848.78 249.547 Q850.609 245.983 850.609 238.876 Q850.609 231.747 848.78 228.205 Q846.975 224.64 843.341 224.64 M843.341 220.936 Q849.151 220.936 852.206 225.543 Q855.285 230.126 855.285 238.876 Q855.285 247.603 852.206 252.209 Q849.151 256.793 843.341 256.793 Q837.53 256.793 834.452 252.209 Q831.396 247.603 831.396 238.876 Q831.396 230.126 834.452 225.543 Q837.53 220.936 843.341 220.936 Z" fill="#000000" fill-rule="nonzero" fill-opacity="1" /><path clip-path="url(#clip490)" d="M885.076 242.094 L885.076 244.177 L865.493 244.177 Q865.771 248.575 868.132 250.89 Q870.516 253.182 874.752 253.182 Q877.206 253.182 879.498 252.58 Q881.813 251.978 884.081 250.774 L884.081 254.802 Q881.789 255.774 879.382 256.283 Q876.975 256.793 874.498 256.793 Q868.294 256.793 864.66 253.182 Q861.049 249.571 861.049 243.413 Q861.049 237.047 864.475 233.321 Q867.924 229.571 873.757 229.571 Q878.989 229.571 882.021 232.95 Q885.076 236.307 885.076 242.094 M880.817 240.844 Q880.771 237.348 878.85 235.265 Q876.952 233.182 873.803 233.182 Q870.239 233.182 868.086 235.196 Q865.956 237.21 865.632 240.867 L880.817 240.844 Z" fill="#000000" fill-rule="nonzero" fill-opacity="1" /><path clip-path="url(#clip490)" d="M889.914 241.237 L902.391 241.237 L902.391 245.034 L889.914 245.034 L889.914 241.237 Z" fill="#000000" fill-rule="nonzero" fill-opacity="1" /><path clip-path="url(#clip490)" d="M909.822 221.561 L928.178 221.561 L928.178 225.497 L914.104 225.497 L914.104 233.969 Q915.123 233.622 916.141 233.46 Q917.16 233.274 918.178 233.274 Q923.965 233.274 927.345 236.446 Q930.724 239.617 930.724 245.034 Q930.724 250.612 927.252 253.714 Q923.78 256.793 917.461 256.793 Q915.285 256.793 913.016 256.422 Q910.771 256.052 908.363 255.311 L908.363 250.612 Q910.447 251.746 912.669 252.302 Q914.891 252.858 917.368 252.858 Q921.373 252.858 923.711 250.751 Q926.048 248.645 926.048 245.034 Q926.048 241.422 923.711 239.316 Q921.373 237.21 917.368 237.21 Q915.493 237.21 913.618 237.626 Q911.766 238.043 909.822 238.922 L909.822 221.561 Z" fill="#000000" fill-rule="nonzero" fill-opacity="1" /></svg>
