<?xml version="1.0" encoding="utf-8"?>
<svg xmlns="http://www.w3.org/2000/svg" xmlns:xlink="http://www.w3.org/1999/xlink" width="600" height="400" viewBox="0 0 2400 1600">
<defs>
  <clipPath id="clip830">
    <rect x="0" y="0" width="2400" height="1600"/>
  </clipPath>
</defs>
<path clip-path="url(#clip830)" d="M0 1600 L2400 1600 L2400 0 L0 0  Z" fill="#ffffff" fill-rule="evenodd" fill-opacity="1"/>
<defs>
  <clipPath id="clip831">
    <rect x="480" y="0" width="1681" height="1600"/>
  </clipPath>
</defs>
<path clip-path="url(#clip830)" d="M140.51 1486.45 L2352.76 1486.45 L2352.76 47.2441 L140.51 47.2441  Z" fill="#ffffff" fill-rule="evenodd" fill-opacity="1"/>
<defs>
  <clipPath id="clip832">
    <rect x="140" y="47" width="2213" height="1440"/>
  </clipPath>
</defs>
<polyline clip-path="url(#clip832)" style="stroke:#000000; stroke-linecap:round; stroke-linejoin:round; stroke-width:2; stroke-opacity:0.1; fill:none" points="352.398,1486.45 352.398,47.2441 "/>
<polyline clip-path="url(#clip832)" style="stroke:#000000; stroke-linecap:round; stroke-linejoin:round; stroke-width:2; stroke-opacity:0.1; fill:none" points="786.3,1486.45 786.3,47.2441 "/>
<polyline clip-path="url(#clip832)" style="stroke:#000000; stroke-linecap:round; stroke-linejoin:round; stroke-width:2; stroke-opacity:0.1; fill:none" points="1220.2,1486.45 1220.2,47.2441 "/>
<polyline clip-path="url(#clip832)" style="stroke:#000000; stroke-linecap:round; stroke-linejoin:round; stroke-width:2; stroke-opacity:0.1; fill:none" points="1654.1,1486.45 1654.1,47.2441 "/>
<polyline clip-path="url(#clip832)" style="stroke:#000000; stroke-linecap:round; stroke-linejoin:round; stroke-width:2; stroke-opacity:0.1; fill:none" points="2088,1486.45 2088,47.2441 "/>
<polyline clip-path="url(#clip832)" style="stroke:#000000; stroke-linecap:round; stroke-linejoin:round; stroke-width:2; stroke-opacity:0.1; fill:none" points="140.51,1180.14 2352.76,1180.14 "/>
<polyline clip-path="url(#clip832)" style="stroke:#000000; stroke-linecap:round; stroke-linejoin:round; stroke-width:2; stroke-opacity:0.1; fill:none" points="140.51,872.416 2352.76,872.416 "/>
<polyline clip-path="url(#clip832)" style="stroke:#000000; stroke-linecap:round; stroke-linejoin:round; stroke-width:2; stroke-opacity:0.1; fill:none" points="140.51,564.696 2352.76,564.696 "/>
<polyline clip-path="url(#clip832)" style="stroke:#000000; stroke-linecap:round; stroke-linejoin:round; stroke-width:2; stroke-opacity:0.1; fill:none" points="140.51,256.976 2352.76,256.976 "/>
<polyline clip-path="url(#clip830)" style="stroke:#000000; stroke-linecap:round; stroke-linejoin:round; stroke-width:4; stroke-opacity:1; fill:none" points="140.51,1486.45 2352.76,1486.45 "/>
<polyline clip-path="url(#clip830)" style="stroke:#000000; stroke-linecap:round; stroke-linejoin:round; stroke-width:4; stroke-opacity:1; fill:none" points="352.398,1486.45 352.398,1467.55 "/>
<polyline clip-path="url(#clip830)" style="stroke:#000000; stroke-linecap:round; stroke-linejoin:round; stroke-width:4; stroke-opacity:1; fill:none" points="786.3,1486.45 786.3,1467.55 "/>
<polyline clip-path="url(#clip830)" style="stroke:#000000; stroke-linecap:round; stroke-linejoin:round; stroke-width:4; stroke-opacity:1; fill:none" points="1220.2,1486.45 1220.2,1467.55 "/>
<polyline clip-path="url(#clip830)" style="stroke:#000000; stroke-linecap:round; stroke-linejoin:round; stroke-width:4; stroke-opacity:1; fill:none" points="1654.1,1486.45 1654.1,1467.55 "/>
<polyline clip-path="url(#clip830)" style="stroke:#000000; stroke-linecap:round; stroke-linejoin:round; stroke-width:4; stroke-opacity:1; fill:none" points="2088,1486.45 2088,1467.55 "/>
<path clip-path="url(#clip830)" d="M306.46 1532.02 L336.136 1532.02 L336.136 1535.95 L306.46 1535.95 L306.46 1532.02 Z" fill="#000000" fill-rule="nonzero" fill-opacity="1" /><path clip-path="url(#clip830)" d="M360.395 1530.21 Q363.752 1530.93 365.627 1533.2 Q367.525 1535.47 367.525 1538.8 Q367.525 1543.92 364.006 1546.72 Q360.488 1549.52 354.007 1549.52 Q351.831 1549.52 349.516 1549.08 Q347.224 1548.66 344.77 1547.81 L344.77 1543.29 Q346.715 1544.43 349.03 1545.01 Q351.345 1545.58 353.868 1545.58 Q358.266 1545.58 360.557 1543.85 Q362.872 1542.11 362.872 1538.8 Q362.872 1535.75 360.719 1534.03 Q358.59 1532.3 354.77 1532.3 L350.743 1532.3 L350.743 1528.45 L354.956 1528.45 Q358.405 1528.45 360.233 1527.09 Q362.062 1525.7 362.062 1523.11 Q362.062 1520.45 360.164 1519.03 Q358.289 1517.6 354.77 1517.6 Q352.849 1517.6 350.65 1518.01 Q348.451 1518.43 345.812 1519.31 L345.812 1515.14 Q348.474 1514.4 350.789 1514.03 Q353.127 1513.66 355.187 1513.66 Q360.511 1513.66 363.613 1516.09 Q366.715 1518.5 366.715 1522.62 Q366.715 1525.49 365.071 1527.48 Q363.428 1529.45 360.395 1530.21 Z" fill="#000000" fill-rule="nonzero" fill-opacity="1" /><path clip-path="url(#clip830)" d="M386.391 1517.37 Q382.78 1517.37 380.951 1520.93 Q379.145 1524.47 379.145 1531.6 Q379.145 1538.71 380.951 1542.27 Q382.78 1545.82 386.391 1545.82 Q390.025 1545.82 391.83 1542.27 Q393.659 1538.71 393.659 1531.6 Q393.659 1524.47 391.83 1520.93 Q390.025 1517.37 386.391 1517.37 M386.391 1513.66 Q392.201 1513.66 395.256 1518.27 Q398.335 1522.85 398.335 1531.6 Q398.335 1540.33 395.256 1544.94 Q392.201 1549.52 386.391 1549.52 Q380.58 1549.52 377.502 1544.94 Q374.446 1540.33 374.446 1531.6 Q374.446 1522.85 377.502 1518.27 Q380.58 1513.66 386.391 1513.66 Z" fill="#000000" fill-rule="nonzero" fill-opacity="1" /><path clip-path="url(#clip830)" d="M786.3 1517.37 Q782.688 1517.37 780.86 1520.93 Q779.054 1524.47 779.054 1531.6 Q779.054 1538.71 780.86 1542.27 Q782.688 1545.82 786.3 1545.82 Q789.934 1545.82 791.739 1542.27 Q793.568 1538.71 793.568 1531.6 Q793.568 1524.47 791.739 1520.93 Q789.934 1517.37 786.3 1517.37 M786.3 1513.66 Q792.11 1513.66 795.165 1518.27 Q798.244 1522.85 798.244 1531.6 Q798.244 1540.33 795.165 1544.94 Q792.11 1549.52 786.3 1549.52 Q780.489 1549.52 777.411 1544.94 Q774.355 1540.33 774.355 1531.6 Q774.355 1522.85 777.411 1518.27 Q780.489 1513.66 786.3 1513.66 Z" fill="#000000" fill-rule="nonzero" fill-opacity="1" /><path clip-path="url(#clip830)" d="M1209.04 1530.21 Q1212.4 1530.93 1214.28 1533.2 Q1216.17 1535.47 1216.17 1538.8 Q1216.17 1543.92 1212.66 1546.72 Q1209.14 1549.52 1202.66 1549.52 Q1200.48 1549.52 1198.16 1549.08 Q1195.87 1548.66 1193.42 1547.81 L1193.42 1543.29 Q1195.36 1544.43 1197.68 1545.01 Q1199.99 1545.58 1202.52 1545.58 Q1206.91 1545.58 1209.21 1543.85 Q1211.52 1542.11 1211.52 1538.8 Q1211.52 1535.75 1209.37 1534.03 Q1207.24 1532.3 1203.42 1532.3 L1199.39 1532.3 L1199.39 1528.45 L1203.6 1528.45 Q1207.05 1528.45 1208.88 1527.09 Q1210.71 1525.7 1210.71 1523.11 Q1210.71 1520.45 1208.81 1519.03 Q1206.94 1517.6 1203.42 1517.6 Q1201.5 1517.6 1199.3 1518.01 Q1197.1 1518.43 1194.46 1519.31 L1194.46 1515.14 Q1197.12 1514.4 1199.44 1514.03 Q1201.78 1513.66 1203.84 1513.66 Q1209.16 1513.66 1212.26 1516.09 Q1215.36 1518.5 1215.36 1522.62 Q1215.36 1525.49 1213.72 1527.48 Q1212.08 1529.45 1209.04 1530.21 Z" fill="#000000" fill-rule="nonzero" fill-opacity="1" /><path clip-path="url(#clip830)" d="M1235.04 1517.37 Q1231.43 1517.37 1229.6 1520.93 Q1227.79 1524.47 1227.79 1531.6 Q1227.79 1538.71 1229.6 1542.27 Q1231.43 1545.82 1235.04 1545.82 Q1238.67 1545.82 1240.48 1542.27 Q1242.31 1538.71 1242.31 1531.6 Q1242.31 1524.47 1240.48 1520.93 Q1238.67 1517.37 1235.04 1517.37 M1235.04 1513.66 Q1240.85 1513.66 1243.9 1518.27 Q1246.98 1522.85 1246.98 1531.6 Q1246.98 1540.33 1243.9 1544.94 Q1240.85 1549.52 1235.04 1549.52 Q1229.23 1549.52 1226.15 1544.94 Q1223.09 1540.33 1223.09 1531.6 Q1223.09 1522.85 1226.15 1518.27 Q1229.23 1513.66 1235.04 1513.66 Z" fill="#000000" fill-rule="nonzero" fill-opacity="1" /><path clip-path="url(#clip830)" d="M1639.51 1529.7 Q1636.36 1529.7 1634.51 1531.86 Q1632.68 1534.01 1632.68 1537.76 Q1632.68 1541.49 1634.51 1543.66 Q1636.36 1545.82 1639.51 1545.82 Q1642.66 1545.82 1644.49 1543.66 Q1646.34 1541.49 1646.34 1537.76 Q1646.34 1534.01 1644.49 1531.86 Q1642.66 1529.7 1639.51 1529.7 M1648.79 1515.05 L1648.79 1519.31 Q1647.03 1518.48 1645.23 1518.04 Q1643.44 1517.6 1641.68 1517.6 Q1637.05 1517.6 1634.6 1520.72 Q1632.17 1523.85 1631.82 1530.17 Q1633.19 1528.15 1635.25 1527.09 Q1637.31 1526 1639.79 1526 Q1644.99 1526 1648 1529.17 Q1651.04 1532.32 1651.04 1537.76 Q1651.04 1543.08 1647.89 1546.3 Q1644.74 1549.52 1639.51 1549.52 Q1633.51 1549.52 1630.34 1544.94 Q1627.17 1540.33 1627.17 1531.6 Q1627.17 1523.41 1631.06 1518.55 Q1634.95 1513.66 1641.5 1513.66 Q1643.26 1513.66 1645.04 1514.01 Q1646.85 1514.36 1648.79 1515.05 Z" fill="#000000" fill-rule="nonzero" fill-opacity="1" /><path clip-path="url(#clip830)" d="M1669.09 1517.37 Q1665.48 1517.37 1663.65 1520.93 Q1661.85 1524.47 1661.85 1531.6 Q1661.85 1538.71 1663.65 1542.27 Q1665.48 1545.82 1669.09 1545.82 Q1672.73 1545.82 1674.53 1542.27 Q1676.36 1538.71 1676.36 1531.6 Q1676.36 1524.47 1674.53 1520.93 Q1672.73 1517.37 1669.09 1517.37 M1669.09 1513.66 Q1674.9 1513.66 1677.96 1518.27 Q1681.04 1522.85 1681.04 1531.6 Q1681.04 1540.33 1677.96 1544.94 Q1674.9 1549.52 1669.09 1549.52 Q1663.28 1549.52 1660.2 1544.94 Q1657.15 1540.33 1657.15 1531.6 Q1657.15 1522.85 1660.2 1518.27 Q1663.28 1513.66 1669.09 1513.66 Z" fill="#000000" fill-rule="nonzero" fill-opacity="1" /><path clip-path="url(#clip830)" d="M2063.13 1548.13 L2063.13 1543.87 Q2064.89 1544.7 2066.7 1545.14 Q2068.5 1545.58 2070.24 1545.58 Q2074.87 1545.58 2077.3 1542.48 Q2079.75 1539.36 2080.1 1533.01 Q2078.76 1535.01 2076.7 1536.07 Q2074.64 1537.13 2072.14 1537.13 Q2066.95 1537.13 2063.92 1534.01 Q2060.91 1530.86 2060.91 1525.42 Q2060.91 1520.1 2064.06 1516.88 Q2067.21 1513.66 2072.44 1513.66 Q2078.43 1513.66 2081.58 1518.27 Q2084.75 1522.85 2084.75 1531.6 Q2084.75 1539.77 2080.86 1544.66 Q2077 1549.52 2070.45 1549.52 Q2068.69 1549.52 2066.88 1549.17 Q2065.08 1548.82 2063.13 1548.13 M2072.44 1533.48 Q2075.59 1533.48 2077.41 1531.32 Q2079.27 1529.17 2079.27 1525.42 Q2079.27 1521.7 2077.41 1519.54 Q2075.59 1517.37 2072.44 1517.37 Q2069.29 1517.37 2067.44 1519.54 Q2065.61 1521.7 2065.61 1525.42 Q2065.61 1529.17 2067.44 1531.32 Q2069.29 1533.48 2072.44 1533.48 Z" fill="#000000" fill-rule="nonzero" fill-opacity="1" /><path clip-path="url(#clip830)" d="M2103.16 1517.37 Q2099.54 1517.37 2097.72 1520.93 Q2095.91 1524.47 2095.91 1531.6 Q2095.91 1538.71 2097.72 1542.27 Q2099.54 1545.82 2103.16 1545.82 Q2106.79 1545.82 2108.59 1542.27 Q2110.42 1538.71 2110.42 1531.6 Q2110.42 1524.47 2108.59 1520.93 Q2106.79 1517.37 2103.16 1517.37 M2103.16 1513.66 Q2108.97 1513.66 2112.02 1518.27 Q2115.1 1522.85 2115.1 1531.6 Q2115.1 1540.33 2112.02 1544.94 Q2108.97 1549.52 2103.16 1549.52 Q2097.35 1549.52 2094.27 1544.94 Q2091.21 1540.33 2091.21 1531.6 Q2091.21 1522.85 2094.27 1518.27 Q2097.35 1513.66 2103.16 1513.66 Z" fill="#000000" fill-rule="nonzero" fill-opacity="1" /><polyline clip-path="url(#clip830)" style="stroke:#000000; stroke-linecap:round; stroke-linejoin:round; stroke-width:4; stroke-opacity:1; fill:none" points="140.51,1486.45 140.51,47.2441 "/>
<polyline clip-path="url(#clip830)" style="stroke:#000000; stroke-linecap:round; stroke-linejoin:round; stroke-width:4; stroke-opacity:1; fill:none" points="140.51,1180.14 159.408,1180.14 "/>
<polyline clip-path="url(#clip830)" style="stroke:#000000; stroke-linecap:round; stroke-linejoin:round; stroke-width:4; stroke-opacity:1; fill:none" points="140.51,872.416 159.408,872.416 "/>
<polyline clip-path="url(#clip830)" style="stroke:#000000; stroke-linecap:round; stroke-linejoin:round; stroke-width:4; stroke-opacity:1; fill:none" points="140.51,564.696 159.408,564.696 "/>
<polyline clip-path="url(#clip830)" style="stroke:#000000; stroke-linecap:round; stroke-linejoin:round; stroke-width:4; stroke-opacity:1; fill:none" points="140.51,256.976 159.408,256.976 "/>
<path clip-path="url(#clip830)" d="M92.566 1165.94 Q88.9549 1165.94 87.1262 1169.5 Q85.3206 1173.04 85.3206 1180.17 Q85.3206 1187.28 87.1262 1190.84 Q88.9549 1194.38 92.566 1194.38 Q96.2002 1194.38 98.0058 1190.84 Q99.8345 1187.28 99.8345 1180.17 Q99.8345 1173.04 98.0058 1169.5 Q96.2002 1165.94 92.566 1165.94 M92.566 1162.23 Q98.3761 1162.23 101.432 1166.84 Q104.51 1171.42 104.51 1180.17 Q104.51 1188.9 101.432 1193.5 Q98.3761 1198.09 92.566 1198.09 Q86.7558 1198.09 83.6771 1193.5 Q80.6216 1188.9 80.6216 1180.17 Q80.6216 1171.42 83.6771 1166.84 Q86.7558 1162.23 92.566 1162.23 Z" fill="#000000" fill-rule="nonzero" fill-opacity="1" /><path clip-path="url(#clip830)" d="M57.4273 885.761 L73.7466 885.761 L73.7466 889.696 L51.8023 889.696 L51.8023 885.761 Q54.4643 883.007 59.0476 878.377 Q63.6541 873.724 64.8346 872.382 Q67.08 869.858 67.9596 868.122 Q68.8624 866.363 68.8624 864.673 Q68.8624 861.919 66.918 860.183 Q64.9967 858.446 61.8948 858.446 Q59.6958 858.446 57.2421 859.21 Q54.8115 859.974 52.0338 861.525 L52.0338 856.803 Q54.8578 855.669 57.3115 855.09 Q59.7652 854.511 61.8023 854.511 Q67.1726 854.511 70.367 857.196 Q73.5614 859.882 73.5614 864.372 Q73.5614 866.502 72.7513 868.423 Q71.9642 870.321 69.8578 872.914 Q69.2791 873.585 66.1772 876.803 Q63.0754 879.997 57.4273 885.761 Z" fill="#000000" fill-rule="nonzero" fill-opacity="1" /><path clip-path="url(#clip830)" d="M83.6077 855.136 L101.964 855.136 L101.964 859.071 L87.8901 859.071 L87.8901 867.544 Q88.9086 867.196 89.9271 867.034 Q90.9456 866.849 91.9641 866.849 Q97.7511 866.849 101.131 870.02 Q104.51 873.192 104.51 878.608 Q104.51 884.187 101.038 887.289 Q97.566 890.368 91.2465 890.368 Q89.0706 890.368 86.8021 889.997 Q84.5568 889.627 82.1494 888.886 L82.1494 884.187 Q84.2327 885.321 86.4549 885.877 Q88.6771 886.432 91.1539 886.432 Q95.1586 886.432 97.4965 884.326 Q99.8345 882.219 99.8345 878.608 Q99.8345 874.997 97.4965 872.891 Q95.1586 870.784 91.1539 870.784 Q89.279 870.784 87.404 871.201 Q85.5521 871.618 83.6077 872.497 L83.6077 855.136 Z" fill="#000000" fill-rule="nonzero" fill-opacity="1" /><path clip-path="url(#clip830)" d="M52.4505 547.416 L70.8068 547.416 L70.8068 551.351 L56.7328 551.351 L56.7328 559.824 Q57.7513 559.476 58.7699 559.314 Q59.7884 559.129 60.8069 559.129 Q66.5939 559.129 69.9735 562.3 Q73.3531 565.472 73.3531 570.888 Q73.3531 576.467 69.8809 579.569 Q66.4087 582.648 60.0893 582.648 Q57.9134 582.648 55.6449 582.277 Q53.3995 581.907 50.9921 581.166 L50.9921 576.467 Q53.0754 577.601 55.2977 578.157 Q57.5199 578.712 59.9967 578.712 Q64.0013 578.712 66.3393 576.606 Q68.6772 574.499 68.6772 570.888 Q68.6772 567.277 66.3393 565.171 Q64.0013 563.064 59.9967 563.064 Q58.1217 563.064 56.2467 563.481 Q54.3949 563.898 52.4505 564.777 L52.4505 547.416 Z" fill="#000000" fill-rule="nonzero" fill-opacity="1" /><path clip-path="url(#clip830)" d="M92.566 550.495 Q88.9549 550.495 87.1262 554.06 Q85.3206 557.601 85.3206 564.731 Q85.3206 571.837 87.1262 575.402 Q88.9549 578.944 92.566 578.944 Q96.2002 578.944 98.0058 575.402 Q99.8345 571.837 99.8345 564.731 Q99.8345 557.601 98.0058 554.06 Q96.2002 550.495 92.566 550.495 M92.566 546.791 Q98.3761 546.791 101.432 551.398 Q104.51 555.981 104.51 564.731 Q104.51 573.458 101.432 578.064 Q98.3761 582.648 92.566 582.648 Q86.7558 582.648 83.6771 578.064 Q80.6216 573.458 80.6216 564.731 Q80.6216 555.981 83.6771 551.398 Q86.7558 546.791 92.566 546.791 Z" fill="#000000" fill-rule="nonzero" fill-opacity="1" /><path clip-path="url(#clip830)" d="M52.219 239.696 L74.4411 239.696 L74.4411 241.687 L61.8948 274.256 L57.0106 274.256 L68.8161 243.631 L52.219 243.631 L52.219 239.696 Z" fill="#000000" fill-rule="nonzero" fill-opacity="1" /><path clip-path="url(#clip830)" d="M83.6077 239.696 L101.964 239.696 L101.964 243.631 L87.8901 243.631 L87.8901 252.103 Q88.9086 251.756 89.9271 251.594 Q90.9456 251.409 91.9641 251.409 Q97.7511 251.409 101.131 254.58 Q104.51 257.752 104.51 263.168 Q104.51 268.747 101.038 271.849 Q97.566 274.927 91.2465 274.927 Q89.0706 274.927 86.8021 274.557 Q84.5568 274.187 82.1494 273.446 L82.1494 268.747 Q84.2327 269.881 86.4549 270.437 Q88.6771 270.992 91.1539 270.992 Q95.1586 270.992 97.4965 268.886 Q99.8345 266.779 99.8345 263.168 Q99.8345 259.557 97.4965 257.451 Q95.1586 255.344 91.1539 255.344 Q89.279 255.344 87.404 255.761 Q85.5521 256.178 83.6077 257.057 L83.6077 239.696 Z" fill="#000000" fill-rule="nonzero" fill-opacity="1" /><polyline clip-path="url(#clip832)" style="stroke:#0000ff; stroke-linecap:round; stroke-linejoin:round; stroke-width:4; stroke-opacity:1; fill:none" points="203.94,715.82 231.766,723.225 235.288,719.356 245.688,717.76 252.523,717.067 276.489,719.873 299.55,723.34 327.258,724.702 354.418,726.839 384.761,731.593 413.787,731.871 438.945,732.385 475.298,733.934 497.733,739.612 521.423,743.859 556.095,747.368 582.102,749.307 604.587,754.203 633.06,760.65 656.372,768.472 679.296,776.268 702.406,783.256 730.114,789.701 753.158,797.774 779.179,803.568 810.274,811.63 832.625,811.686 866.787,813.74 892.545,821.784 918.83,829.32 949.499,838.507 974.516,847.19 1000.12,854.279 1018.92,864.486 1037.19,876.236 1045.32,882.212 1065.93,885.076 1082.97,887.163 1104.5,888.51 1130.42,891.601 1157.36,901.304 1184.42,911.238 1206.83,916.422 1232.75,920.225 1265.2,922.353 1294.07,923.446 1326.34,927.556 1354.47,932.665 1380.61,936.23 1405.25,938.676 1437.53,938.845 1462.19,938.619 1489.89,937.626 1516.5,934.955 1545.69,929.586 1574.38,929.532 1601.63,927.712 1627.95,927.599 1648.92,921.367 1667.4,918.204 1684.33,911.866 1701.83,905.802 1722.87,905.275 1745.73,903.338 1768,905.365 1787.7,908.787 1808.88,914.847 1829.17,925.999 1850.79,938.438 1866.84,949.726 1882.97,965.827 1893.45,980.257 1900.48,994.748 1909.71,1014.47 1921.33,1032.4 1934.05,1051.42 1944.59,1062.09 1962.41,1068.76 1976.71,1073.03 1986.39,1072.62 2007.49,1065.03 2025.38,1059.78 2046.2,1040.91 2057.75,1025.65 2060.77,1004.26 2064.49,985.706 2064.03,963.676 2050.56,948.44 2031.67,941.056 2008.36,932.305 1978.49,935.511 1954.13,933.295 1933.77,929.102 1915,926.086 1892.83,923.359 1873.13,928.577 1850.93,934.96 1833.76,943.17 1810.53,946.408 1785.79,946.622 1758.85,942.719 1735.9,932.53 1713.11,921.662 1682.36,906.037 1656.89,887.724 1634.16,869.245 1618.39,854.272 1606.25,840.982 1589.83,827.399 1575.32,811.225 1563.66,795.932 1555.69,779.404 1555.08,763.434 1567.07,747.934 1580.93,735.867 1603.49,729.438 1621.83,727.875 1648.71,728.745 1670.09,739.866 1692.29,748.134 1707.34,753.95 1730.02,760.987 1752.96,772.337 1765.08,781.282 1782.68,792.284 1800.97,803.494 1822.53,811.001 1842.84,812.852 1864.09,813.102 1887.66,806.655 1908.52,802.815 1925.31,801.357 1944.51,808.013 1961.61,819.011 1976.65,834.351 1986.27,850.565 1995.56,870.465 2002.65,892.503 2006.96,912.357 2007.21,934.17 2008.11,945.172 2010.32,958.893 2019.07,977.306 2025.8,994.985 2037.59,1009.87 2049.26,1016.89 2062.38,1020.67 2078.73,1017.31 2098.11,1010.69 2112.2,1002.59 2130.04,989.502 2139.75,979.784 2143.51,960.899 2135.67,944.343 2117.82,926.585 2101.05,908.106 2077.77,897.44 2048.69,894.787 2021.85,890.056 2006.43,887.575 1981.26,884.289 1961.52,881.932 1942.69,871.115 1927.05,865.171 1905,858.052 1888.58,856.841 1866.17,858.925 1845.92,853.814 1825.5,848.869 1805.66,847.299 1780.99,843.881 1762.53,839.28 1745.41,835.214 1723.97,833.86 1696.16,835.387 1670.04,841.08 1653.79,840.011 1648.24,832.605 1643.21,829.364 1636.26,828.036 1626.19,827.07 1617.66,826.292 1603.89,830.536 1588.64,836.533 1563.85,840.672 1542.42,844.791 1527.44,850.386 1517.43,858.24 1524.28,859.257 1538.28,857.905 1571.36,854.845 1589.51,839.091 1606.85,823.448 1614.33,806.829 1607.08,790.22 1593.32,772.218 1582.22,760.752 1571.41,739.854 1553.41,729.315 1532.15,739.18 1509.38,741.193 1480.97,735.589 1476.3,718.494 1471.09,699.272 1471.57,678.423 1476.92,661.819 1491.91,639.842 1499.77,619.692 1503.14,596.914 1486.65,584.387 1463.97,576.452 1454.24,574.243 1463.82,560.585 1484.17,550.23 1519.76,549.017 1557.89,535.895 1584.02,518.461 1603.01,494.062 1617.37,473.049 1637.8,463.298 1665.32,466.448 1689.64,471.316 1708.57,489.046 1735.74,502.127 1755.53,519.361 1765.37,539.518 1754.93,555.805 1736.67,572.349 1710.13,585.619 1676.55,592.016 1649.85,591.52 1616.18,577.035 1590.73,561.73 1579.55,540.121 1578.05,517.652 1595.49,502.626 1611,493.708 1633.19,479.507 1658.48,471.156 1681.16,454.888 1703.61,442.286 1723.74,441.354 1746.94,427.977 1750.4,414.075 1761.36,396.754 1773.61,390.626 1791.47,373.122 1785.31,360.196 1764.07,349.183 1759.77,347.666 1770.44,342.799 1793.74,336.359 1822.88,340.794 1848.17,343.382 1874.87,349.22 1900.44,365.593 1904.98,383.43 1901.41,396.703 1879.14,408.745 1864.19,430.2 1848.81,457.65 1838.79,490.004 1840.37,510.285 1806.06,513.799 1781.74,529.204 1749.26,535.738 1718.7,552.396 1701.47,576.839 1681.53,594.383 1654.08,590.261 1631.55,579.226 1604.56,570.59 1589.18,558.006 1563.86,541.92 1554.5,534.608 1561.67,512.4 1585.96,503.323 1619.9,498.417 1649,501.644 1684.08,508.622 1712.47,522.373 1721.8,543.669 1735.05,565.129 1752.59,569.364 1778.99,574.337 1802.01,585.054 1811.38,588.228 1837.53,580.314 1862.47,572.682 1881.05,563.448 1901.6,564.53 1921.62,579.966 1920.97,597.836 1922.16,618.719 1908.58,650.762 1888.75,676.29 1864.43,695.493 1842.05,725.169 1838.33,750.001 1803.72,763.882 1775.2,768.065 1747.69,782.983 1720.65,796.746 1703.05,815.292 1686.33,836.836 1661.43,859.913 1634.57,868.881 1607.57,860.731 1582.71,854.354 1550.87,850.215 1521.68,842.436 1501.75,821.202 1489.12,800.881 1457.45,778.025 1440.13,758.78 1414.7,741.315 1391.06,738.854 1359.96,744.442 1342.95,742.165 1317.09,734.462 1311.03,709.278 1294.48,699.982 1270.54,703.862 1252.16,712.219 1227.88,729.255 1221.43,735.781 1191.25,739.701 1167.96,744.917 1141.26,739.023 1120.5,721.049 1096.99,708.287 1062.03,702.713 1029.06,693.722 1006.53,688.138 986.64,678.279 966.1,657.764 965.372,644.054 974.94,624.172 990.318,604.913 1002.1,581.909 1008.13,551.539 1014.75,526.92 1001.1,506.143 982.397,500.237 970.42,490.354 974.576,476.968 1000.66,475.868 1036.79,478.603 1078.27,477.682 1111.37,472.906 1139.62,454.765 1165.07,431.105 1189.83,411.427 1219.87,403.314 1259.29,406.105 1291.95,418.191 1323.12,434.246 1353.52,446.432 1381.08,458.654 1403.53,472.638 1439.15,479.594 1464.41,494.082 1491.64,516.582 1522.58,543.678 1550.01,559.495 1574.16,570.382 1593.16,581.185 1602.7,572.475 1623.29,562.653 1650.58,549 1673.98,538.945 1703.3,527.165 1736.48,526.22 1770.97,534.05 1798.29,559.003 1807.6,580.01 1804.21,612.015 1786.06,644.998 1783.24,671.9 1774.92,704.471 1774.16,739.723 1790.75,770.508 1821.66,795.339 1863.3,793.843 1884.78,795.813 1915.64,802.955 1934.78,824.986 1959.81,850.328 1981.86,881.988 1994.11,914.678 1998.8,936.668 2015.49,920.886 2050.55,925.123 2078.71,930.581 2090.78,946.466 2091.93,950.99 2093.8,955.767 2098.51,972.404 2101.67,977.737 2114.05,981.744 2129.63,983.174 2158.1,977.468 2186.72,985.68 2200.51,998.929 2215.16,1020.87 2215.78,1033.5 2219.16,1022.55 2223.95,1006.35 2222.74,979.874 2212.51,953.01 2196.62,927.74 2185.52,904.878 2185.96,884.834 2159.59,863.187 2151.41,832.04 2157.18,806.999 2174.65,795.085 2196.24,797.077 2219.97,805.735 2235.82,817.375 2248.4,837.108 2274.04,859.98 2288.21,881.382 2280.23,909.539 2260.77,930.908 2242.63,950.214 2213.45,963.701 2194.26,982.966 2167.26,995.572 2139.5,1018.44 2119.71,1039.45 2108.28,1062.52 2088.81,1085.62 2071.82,1109.24 2045.39,1125.7 2018.1,1137.3 1987.8,1153.57 1962.61,1172.16 1933.73,1180.62 1904.87,1199.15 1890.16,1216.18 1858.18,1229.04 1837.81,1243.33 1819.81,1263.34 1800.89,1291.39 1793.63,1311.32 1789.26,1331.14 1781.96,1356.32 1804.68,1377.93 1814.31,1392.19 1807.23,1415.45 1799.52,1441.38 1780.29,1445.72 1756.62,1443.07 1734.16,1426.63 1722.06,1400.4 1708.35,1377.85 1684.42,1353.92 1645.67,1328.27 1614.38,1319.86 1578.74,1319.71 1541.59,1327.52 1500.02,1337.96 1473.43,1337.38 1438.1,1327.16 1412.2,1314.36 1391.75,1289.72 1390.52,1256.81 1385.5,1217.24 1365.28,1189.24 1342.75,1167.51 1348.2,1136.62 1346.3,1109.41 1339.24,1084.3 1325.67,1057.09 1307.86,1032.77 1301.45,1005.83 1308.11,972.566 1318.03,939.792 1335.49,909.447 1352.89,877.772 1366.94,845.717 1393.18,824.128 1388.55,797.029 1372.08,772.469 1342.34,749.576 1309.74,746.538 1288.14,733.753 1279.24,708.574 1276.09,676.106 1288.78,648.405 1303.21,626.189 1325.14,617.132 1356.8,605.593 1392.67,600.155 1432.67,596.27 1471.8,596.496 1501.87,590.116 1524.9,563.312 1543.09,540.972 1571.57,527.974 1595.12,523.424 1598.37,507.614 1583.62,493.82 1561.71,478.508 1536.57,466.999 1507.46,439.908 1484.56,414.297 1470.99,388.029 1453.77,367.597 1450.41,349.738 1456.84,328.993 1474.83,318.601 1492.72,328.365 1522.23,333.694 1562.45,336.257 1597.73,344.159 1637.57,349.383 1671.63,352.624 1703.04,367.616 1728.5,374.898 1753.71,367.18 1777.02,356.338 1807.42,351.313 1839.78,351.78 1871.68,345.67 1895.59,360.422 1907.13,376.202 1911.92,371.687 1921.56,355.302 1939.93,338.723 1958.17,326.854 1982.52,312.315 2001.66,303.981 1991.5,304.346 1968.93,292.317 1959.09,276.013 1947.14,247.6 1951.19,218.442 1962.03,201.901 1990.19,190.774 2024.35,193.419 2050.12,198.129 2083.77,202.644 2120.03,214.275 2143.1,236.946 2147.49,266.196 2140.5,293.384 2129.78,301.447 2133.6,317.384 2136.55,339.671 2132.43,370.934 2104.5,388.528 2084.72,423.453 2057.53,444.932 2034.88,471.022 2025.98,506.124 2000.59,513.76 1964.83,516.187 1929.74,528.23 1898.45,542.265 1882.6,569.18 1870.64,600.085 1867.93,616.15 1895.59,621.024 1925.58,634.593 1961.56,648.523 1996.51,672.309 2024.65,688.582 2063.55,693.102 2099.06,693.601 2138.88,690.078 2168.84,694.699 2194.05,693.643 2204.79,679.193 2218.83,659.076 2233.65,638.253 2232.75,613.67 2229.41,594.955 2220.12,571.075 2194.05,550.429 2172.56,531.551 2146.47,516.115 2104.56,517.573 2078.32,523.839 2054.59,542.159 2037.06,561.049 2012.04,585.037 2007.07,614.965 2012.22,646.381 2014.83,676.88 2033.55,703.367 2046.53,729.566 2060.13,763.006 2074.28,792.719 2105.59,805.839 2136.71,823.24 2163.69,852.591 2183.91,875.314 2197.75,906.915 2205.38,931.076 2202.07,942.691 2169.94,944.659 2132.98,957.471 2104.67,956.071 2089.44,962.734 2069.69,967.098 2046.46,962.889 2015.17,947.916 1985.12,940.428 1948.59,943.043 1905.1,956.333 1867.09,970.336 1828.12,970.916 1784.76,979.322 1746.83,979.992 1707.3,979.843 1675.69,974.568 1640.41,979.022 1607.97,973.839 1575.08,966.275 1539.7,935.746 1511.6,920.965 1473.23,913.018 1440.77,897.423 1409.98,881.838 1377.87,861.316 1352.38,853.139 1324.87,866.403 1300.42,882.623 1271.97,898.838 1233.63,916.314 1195.85,924.653 1166.35,921.224 1137.61,898.374 1119.87,873.332 1101.89,842.389 1076.44,817.962 1063.93,787.193 1061.32,758.131 1064.2,734.58 1049.83,705.046 1026.48,688.221 997.832,677.098 977.55,655.821 969.021,624.2 967.948,600.729 956.315,573.337 964.223,546.546 986.214,518.409 997.636,503.026 1010.72,495.341 1020.41,481.475 1025.83,465.088 1031.94,441.232 1038.97,417.091 1044.63,389.518 1055.92,356.653 1057.33,332.639 1035.13,313.447 1016.13,299.243 988.739,298.652 961.701,308.043 932.785,304.643 900.172,290.528 862.993,276.146 839.91,269.306 816.712,264.913 802,246.873 799.898,225.588 814.553,208.38 837.207,190.173 860.287,172.399 904.559,161.565 935.393,148.015 969.554,142.006 999.176,153.024 1027.57,160.149 1061.99,155.454 1096.48,149.595 1115.81,128.775 1131.99,109.903 1145.29,88.9799 "/>
<polyline clip-path="url(#clip832)" style="stroke:#ff0000; stroke-linecap:round; stroke-linejoin:round; stroke-width:4; stroke-opacity:1; fill:none" points="203.121,717.436 234.087,723.837 236.748,714.937 258.284,716.242 261.727,716.944 289.251,722.643 306.448,726.2 335.75,725.954 360.729,727.972 391.709,734.373 418.467,730.459 440.003,731.751 483.089,734.361 495.094,743.149 520.086,745.156 563.187,747.765 581.295,748.356 601.096,755.606 635.562,762.72 655.377,769.97 678.648,777.934 702.788,782.919 733.826,789.332 752.788,799.56 781.266,802.293 814.923,812.411 831.324,806.33 873.629,811.919 891.752,825.138 919.377,830.849 953.077,840.967 972.95,848.229 1000.6,853.941 1015.3,866.459 1033.48,879.691 1036.94,880.405 1069.78,880.872 1083.61,883.74 1108.69,885.759 1136.37,891.483 1161.49,906.167 1188.34,914.869 1206.5,915.472 1235.06,918.217 1271.4,919.399 1296.5,921.43 1331.14,928.594 1355.41,933.616 1380.5,935.634 1405.61,937.665 1442.81,935.88 1460.99,936.471 1490.41,936.237 1517.21,932.286 1548.3,926.083 1576.04,931.806 1602.83,927.867 1627.95,929.898 1646,917.836 1664.18,918.427 1681.38,909.355 1701.22,903.976 1725.51,908.998 1748.81,904.333 1769.64,908.629 1786.98,912.211 1810.45,920.211 1828.81,933.468 1851.46,944.46 1863.71,953.31 1880.43,972.561 1888.38,983.688 1895.51,997.806 1907.95,1019.36 1922.05,1034.93 1935.33,1053.5 1944.95,1058.66 1969.3,1063.71 1979.75,1065.86 1987.54,1064.3 2016.01,1054.35 2027.26,1053.5 2049.36,1026.42 2055.3,1018.15 2054.06,995.763 2058.14,980.808 2056.91,958.443 2037.69,948.165 2020.3,944.57 1997.62,933.579 1970.01,940.509 1949.17,936.213 1932.62,929.64 1915.27,926.058 1890.13,924.027 1872.12,936.102 1848.81,940.755 1835.92,947.574 1807.31,944.817 1782.18,942.798 1754.41,937.062 1736.07,923.806 1712.61,915.805 1676.94,898.966 1656,882.029 1635.07,865.093 1623.7,853.301 1612.35,841.497 1590.59,827.563 1577.46,809.112 1566.95,794.366 1560.74,777.355 1564.92,762.499 1583.77,747.519 1594.02,737.056 1617.28,732.428 1631.11,735.272 1660.45,735.038 1674.42,750.473 1695.19,754.756 1705.58,756.886 1733.28,762.597 1755.03,776.494 1760.31,783.867 1782.9,794.809 1802.03,805.05 1826.29,810.048 1845.27,807.66 1866.89,808.964 1891.79,798.367 1909.95,798.97 1923.82,801.825 1945.63,815.747 1960.51,828.252 1974.58,843.737 1981.71,857.793 1990.7,878.546 1999.68,899.311 2002.53,915.669 2000.27,937.284 2002.93,940.989 2009.27,958.086 2025.22,980.328 2028.08,996.723 2043.01,1009.29 2053.45,1011.46 2067.37,1014.32 2088.03,1005.94 2104.39,999.837 2113.79,992.292 2131.79,980.204 2136.89,974.949 2136.43,949.592 2121.49,937.038 2103.89,920.79 2093.26,905.995 2069.75,897.994 2041.14,895.249 2016.83,890.239 2006.42,888.085 1977.82,885.353 1960.47,881.771 1942.92,865.548 1929.04,862.692 1901.28,856.969 1889.23,860.784 1862.48,864.723 1844.14,851.491 1823.32,847.208 1804.33,849.583 1776.61,843.872 1763.56,838.038 1746.23,834.456 1720.32,835.416 1690.1,838.641 1665.98,846.26 1657.26,838.161 1657.11,825.532 1649.36,827.083 1638.14,827.92 1623.44,828.043 1616.51,826.615 1599.32,835.662 1586.43,842.457 1553.58,841.989 1538.05,845.078 1528.6,852.587 1521.79,863.8 1537.33,860.698 1556.32,858.31 1587.38,852.107 1596.68,831.97 1611.25,819.23 1615.41,804.349 1605.74,786.624 1589.15,767.484 1580.43,759.397 1568.97,735.05 1549.06,727.8 1526.75,742.066 1505.17,740.761 1474.05,734.348 1475.62,715.824 1470.29,695.896 1472.7,674.429 1476.88,659.609 1494.77,635.09 1499.79,617.329 1503.03,592.957 1484.01,582.79 1460.7,574.876 1453.8,573.46 1465.72,557.151 1490.59,546.627 1530.2,548.51 1567.89,531.266 1586.67,516.384 1604.49,491.964 1617.19,472.749 1637.73,464.49 1666.14,467.198 1690.26,472.134 1710.26,491.816 1739.64,504.075 1757.05,520.126 1765.91,540.669 1754.06,556.966 1734.48,574.814 1705.35,587.591 1670.97,593.043 1649.42,591.751 1610.48,574.371 1588.83,560.548 1580.02,539.992 1578.95,517.923 1597.72,503.054 1611.38,493.379 1637.86,476.984 1661.86,469.438 1684.88,452.341 1706.23,441.153 1724.28,441.731 1750.72,425.361 1750.57,412.892 1763.21,393.715 1775.19,389.948 1795.54,369.257 1784.23,357.625 1758.33,346.116 1774.57,340.134 1805.38,334.017 1832.09,342.572 1853.57,343.864 1881.11,349.489 1904.58,369.811 1903.94,385.209 1900.67,396.964 1875.1,410.381 1860.84,435.454 1845.76,463.493 1836.73,495.915 1840.36,509.134 1799.11,513.147 1779.56,530.982 1745.21,536.423 1714.44,555.083 1700.1,580.267 1681.32,595.173 1653.7,589.498 1631.19,578.63 1600.96,569.287 1589.65,557.594 1558.5,538.7 1555.88,535.044 1563.37,508.482 1590.83,501.638 1628.62,496.912 1652.74,501.86 1690.68,509.639 1715.8,524.151 1721.2,543.981 1736.95,565.952 1750.76,568.783 1781.84,575.159 1804.36,586.04 1811.28,587.455 1843.02,578.347 1867.03,570.777 1884.11,561.791 1904.84,566.038 1925.75,582.815 1920.85,600.564 1922.04,622.695 1904.48,659.782 1884.09,680.645 1861.03,697.853 1837.33,730.619 1839.31,749.858 1798.91,763.533 1775.65,768.173 1745.63,783.99 1719.87,797.554 1703.67,816.251 1686.63,837.927 1657.53,863.431 1634.23,868.084 1607.34,859.381 1583.09,854.372 1547.59,850.211 1520.74,841.509 1501.51,818.651 1488.41,800.201 1451.92,773.798 1441.45,759.065 1413.71,740.774 1392.11,739.469 1357.65,744.934 1343.82,742.078 1313.56,732.711 1310.81,703.86 1293.55,700.302 1266.83,704.229 1249.63,713.251 1222.12,732.724 1221.27,735.69 1183.33,740.441 1163.5,745.796 1136.73,737.118 1116.85,717.301 1094.38,706.383 1055.58,701.533 1025.39,692.166 1008.15,688.609 985.735,677.703 963.303,654.255 965.891,645.368 976.204,622.4 993.401,600.859 1003.7,577.928 1009.67,544.731 1015.66,524.077 999.302,505.085 982.105,501.552 970.925,489.883 975.206,475.15 1007.86,475.605 1046.54,480.43 1087.77,476.417 1114.4,472.516 1141.84,453.191 1167.51,427.293 1190.62,410.221 1221.5,404.103 1264.44,406.676 1293.7,418.898 1325.57,434.777 1354.86,447.012 1380.72,458.545 1402.3,472.331 1443.62,480.799 1465.21,494.598 1494.66,519.363 1526.74,547.809 1549.21,558.665 1571.71,569.534 1590.74,579.701 1600.14,572.242 1624.99,561.717 1654.96,545.999 1675.51,537.728 1708.07,525.677 1740.77,526.145 1777.91,536.878 1803.22,563.933 1806.01,580.119 1803.05,617.033 1782.8,650.439 1783.94,672.595 1774.03,708.192 1775.34,742.977 1792.97,771.743 1826.13,797.431 1864.07,792.668 1877.94,795.523 1916.06,803.364 1935.42,826.221 1964.37,854.224 1984.77,886.781 1994.76,917.22 1997.62,933.579 2012.13,920.802 2054.64,926.415 2078.97,931.425 2089.61,946.244 2092.27,949.949 2094.12,956.645 2099.66,976.733 2102.32,980.451 2119.72,984.033 2137.92,984.636 2169.82,975.416 2195.22,990.138 2203.23,1001.28 2218.45,1026.55 2216.01,1035.53 2220.07,1020.55 2225.74,999.591 2222.57,970.517 2210.86,945.998 2194.85,923.781 2185.81,903.004 2187.19,884.38 2153.84,858.618 2151.54,826.677 2157.21,805.838 2174.34,796.791 2195.96,798.108 2222.92,806.786 2237.86,819.292 2250.37,840.733 2280.28,865.77 2290.15,883.543 2278.62,912.666 2258.25,933.69 2242.16,952.46 2209.47,964.658 2193.36,983.442 2164.14,996.366 2135.13,1021.99 2118.99,1040.8 2108.98,1064.06 2087.7,1088.18 2070.71,1110.03 2044.08,1126.73 2019.07,1137.42 1984.62,1155.69 1961.44,1173.13 1933.74,1180.11 1901.9,1202.13 1890.8,1215.75 1853.63,1230.32 1839.02,1243.22 1818.42,1264.44 1798.81,1295.45 1794.66,1310.54 1788.83,1331.68 1781.34,1358.88 1808.62,1380.55 1813.11,1391.08 1805.62,1418.32 1798.12,1445.6 1779.8,1444.98 1754.48,1442.93 1730.69,1421.96 1719.91,1394.09 1706.62,1375.33 1680.21,1350.65 1636.39,1322.35 1614.6,1321.02 1578.04,1319.82 1538.95,1327.66 1495.51,1337.81 1477.23,1337.2 1436.23,1325.48 1413.52,1314.35 1391.59,1287.43 1390.48,1252.09 1384.1,1209.32 1363.98,1189.22 1343.88,1169.12 1349.75,1135.34 1346.12,1109.16 1338.16,1085.28 1324.96,1053.98 1305.77,1030.98 1302.15,1004.87 1308.88,968.265 1318.21,935.4 1337.07,907.706 1353.31,876.33 1366.06,844.266 1393.57,824.732 1386.49,798.071 1371.63,772.973 1338.67,747.31 1309.34,747.556 1291.14,734.373 1280.64,707.072 1276.15,671.61 1290.67,646.377 1303.47,627.077 1324.09,618.781 1361.05,604.454 1398.9,599.715 1440.2,595.69 1476.38,596.871 1500.42,589.289 1526.85,560.327 1543.04,541.777 1572.17,529.025 1591.91,523.708 1596.06,508.95 1582.15,493.625 1557.91,476.184 1532.02,464.638 1500.81,433.312 1481.71,410.725 1470.36,386.625 1453.9,367.706 1451.2,351.619 1457.86,328.133 1474.95,319.222 1493.91,329.303 1529.11,333.402 1572.02,335.962 1602.15,345.23 1644.25,350.732 1672.6,353.428 1704.54,369.282 1725.19,373.504 1752.58,366.685 1777.35,356.222 1811.61,350.806 1844.22,351.262 1875.03,345.144 1895.87,361.823 1906.39,376.384 1911.46,371.214 1924.06,352.062 1943.53,334.325 1960.57,325.401 1986.91,309.079 2003.1,303.085 1991.97,303.91 1963.43,288.794 1957.17,272.042 1944.66,238.55 1951.98,212.209 1962.09,201.919 1994.46,189.979 2029.63,194.054 2050.26,198.263 2088.89,203.039 2125.1,216.591 2144.35,239.055 2147.45,267.525 2140.2,293.89 2131.71,298.358 2133.77,317.363 2137.66,342.953 2131.42,378.907 2099,390.908 2080.79,430.69 2054.42,447.061 2032.49,473.697 2026.2,509.799 2003.86,511.448 1962.62,515.473 1925.84,529.764 1896.76,542.528 1881.67,570.654 1869.19,602.472 1870.19,612.048 1897.02,620.689 1929.14,636.666 1969.01,651.116 2002.19,676.719 2024.8,687.624 2067.16,693.188 2099.95,693.656 2141.3,689.618 2165.54,694.603 2191.42,693.643 2202.38,680.239 2219.23,658.662 2236.05,637.084 2232.12,611.273 2229.21,595.062 2218.35,567.86 2187.8,545.999 2170.29,529.948 2145.06,515.424 2096.91,518.034 2080.66,524.065 2053.44,543.439 2037.4,561.988 2007.7,590.249 2007.3,618.301 2012.98,650.747 2016.03,679.562 2034.58,705.3 2046.19,729.634 2061.49,767.311 2075.8,795.375 2106.2,804.779 2137.66,823.821 2165.89,854.802 2182.67,874.004 2198.9,908.85 2204.46,928.914 2202.03,937.875 2167.5,943.377 2126.23,960.117 2105.36,955.808 2092.49,962.628 2069.17,967.293 2044.85,962.271 2009.06,945.407 1981.26,939.672 1943.24,944.46 1894.96,959.76 1862.23,971.958 1825.83,970.764 1779.18,980.094 1746.26,979.614 1705.56,980.697 1677.78,974.961 1639.73,979.737 1608.49,973.287 1573.77,966.111 1532.76,929.184 1512.78,921.898 1471.18,913.306 1439.06,897.194 1410.41,881.808 1376.54,859.037 1355.75,854.753 1326.45,867.628 1299.75,884.196 1269.56,900.074 1227.29,919.768 1192.71,925.258 1168.47,920.248 1135.52,894.474 1119.88,872.293 1099.92,839.761 1073.95,815.476 1064.39,785.135 1060.87,759.225 1063.42,737.721 1047.83,703.072 1026.25,689.2 996.93,676.879 977.954,654.132 969.319,620.984 967.569,601.82 954.653,570.961 965.819,545.088 989.004,515.461 995.874,504.371 1008.75,497.65 1020.77,481.378 1025.89,463.702 1033.58,437.214 1040.41,413.68 1045.5,383.572 1059.15,349.046 1056.55,332.958 1033.36,312.673 1015.34,299.663 986.198,299.909 957.922,309.646 930.5,304.033 895.368,287.514 855.97,273.236 842.273,270.43 818.293,265.518 802.05,246.674 801.24,224.801 817.526,206.436 841.506,186.557 864.619,169.621 915.082,158.272 936.458,147.182 970.65,141.79 999.736,153.927 1027.11,159.515 1064.73,154.825 1098.93,149.446 1115.96,128.201 1132.15,109.886 1145.74,87.9763 "/>
<path clip-path="url(#clip830)" d="M214.252 1438.47 L760.776 1438.47 L760.776 1282.95 L214.252 1282.95  Z" fill="#ffffff" fill-rule="evenodd" fill-opacity="1"/>
<polyline clip-path="url(#clip830)" style="stroke:#000000; stroke-linecap:round; stroke-linejoin:round; stroke-width:4; stroke-opacity:1; fill:none" points="214.252,1438.47 760.776,1438.47 760.776,1282.95 214.252,1282.95 214.252,1438.47 "/>
<polyline clip-path="url(#clip830)" style="stroke:#0000ff; stroke-linecap:round; stroke-linejoin:round; stroke-width:4; stroke-opacity:1; fill:none" points="238.832,1334.79 386.315,1334.79 "/>
<path clip-path="url(#clip830)" d="M434.924 1338.05 L434.924 1340.13 L415.34 1340.13 Q415.618 1344.53 417.979 1346.84 Q420.363 1349.13 424.6 1349.13 Q427.053 1349.13 429.345 1348.53 Q431.66 1347.93 433.928 1346.73 L433.928 1350.75 Q431.637 1351.73 429.229 1352.24 Q426.822 1352.75 424.345 1352.75 Q418.141 1352.75 414.507 1349.13 Q410.896 1345.52 410.896 1339.37 Q410.896 1333 414.322 1329.27 Q417.771 1325.52 423.604 1325.52 Q428.836 1325.52 431.868 1328.9 Q434.924 1332.26 434.924 1338.05 M430.664 1336.8 Q430.618 1333.3 428.697 1331.22 Q426.799 1329.13 423.65 1329.13 Q420.086 1329.13 417.933 1331.15 Q415.803 1333.16 415.479 1336.82 L430.664 1336.8 Z" fill="#000000" fill-rule="nonzero" fill-opacity="1" /><path clip-path="url(#clip830)" d="M458.442 1326.91 L458.442 1330.94 Q456.636 1330.01 454.692 1329.55 Q452.748 1329.09 450.664 1329.09 Q447.493 1329.09 445.896 1330.06 Q444.322 1331.03 444.322 1332.98 Q444.322 1334.46 445.456 1335.32 Q446.59 1336.15 450.016 1336.91 L451.474 1337.24 Q456.011 1338.21 457.91 1339.99 Q459.831 1341.75 459.831 1344.92 Q459.831 1348.53 456.96 1350.64 Q454.113 1352.75 449.113 1352.75 Q447.03 1352.75 444.761 1352.33 Q442.516 1351.94 440.016 1351.13 L440.016 1346.73 Q442.377 1347.95 444.669 1348.58 Q446.961 1349.18 449.206 1349.18 Q452.215 1349.18 453.836 1348.16 Q455.456 1347.12 455.456 1345.25 Q455.456 1343.51 454.275 1342.58 Q453.118 1341.66 449.16 1340.8 L447.678 1340.45 Q443.72 1339.62 441.961 1337.91 Q440.201 1336.17 440.201 1333.16 Q440.201 1329.51 442.794 1327.51 Q445.386 1325.52 450.155 1325.52 Q452.516 1325.52 454.599 1325.87 Q456.683 1326.22 458.442 1326.91 Z" fill="#000000" fill-rule="nonzero" fill-opacity="1" /><path clip-path="url(#clip830)" d="M470.826 1318.79 L470.826 1326.15 L479.599 1326.15 L479.599 1329.46 L470.826 1329.46 L470.826 1343.53 Q470.826 1346.7 471.683 1347.61 Q472.562 1348.51 475.224 1348.51 L479.599 1348.51 L479.599 1352.07 L475.224 1352.07 Q470.294 1352.07 468.419 1350.25 Q466.544 1348.39 466.544 1343.53 L466.544 1329.46 L463.419 1329.46 L463.419 1326.15 L466.544 1326.15 L466.544 1318.79 L470.826 1318.79 Z" fill="#000000" fill-rule="nonzero" fill-opacity="1" /><path clip-path="url(#clip830)" d="M485.201 1326.15 L489.46 1326.15 L489.46 1352.07 L485.201 1352.07 L485.201 1326.15 M485.201 1316.06 L489.46 1316.06 L489.46 1321.45 L485.201 1321.45 L485.201 1316.06 Z" fill="#000000" fill-rule="nonzero" fill-opacity="1" /><path clip-path="url(#clip830)" d="M518.557 1331.13 Q520.155 1328.26 522.377 1326.89 Q524.599 1325.52 527.608 1325.52 Q531.659 1325.52 533.858 1328.37 Q536.057 1331.19 536.057 1336.43 L536.057 1352.07 L531.775 1352.07 L531.775 1336.57 Q531.775 1332.84 530.455 1331.03 Q529.136 1329.23 526.428 1329.23 Q523.118 1329.23 521.196 1331.43 Q519.275 1333.63 519.275 1337.42 L519.275 1352.07 L514.993 1352.07 L514.993 1336.57 Q514.993 1332.82 513.673 1331.03 Q512.354 1329.23 509.599 1329.23 Q506.335 1329.23 504.414 1331.45 Q502.493 1333.65 502.493 1337.42 L502.493 1352.07 L498.21 1352.07 L498.21 1326.15 L502.493 1326.15 L502.493 1330.18 Q503.951 1327.79 505.988 1326.66 Q508.025 1325.52 510.826 1325.52 Q513.65 1325.52 515.618 1326.96 Q517.608 1328.39 518.557 1331.13 Z" fill="#000000" fill-rule="nonzero" fill-opacity="1" /><path clip-path="url(#clip830)" d="M556.335 1339.04 Q551.173 1339.04 549.182 1340.22 Q547.191 1341.4 547.191 1344.25 Q547.191 1346.52 548.673 1347.86 Q550.178 1349.18 552.747 1349.18 Q556.289 1349.18 558.418 1346.68 Q560.571 1344.16 560.571 1339.99 L560.571 1339.04 L556.335 1339.04 M564.83 1337.28 L564.83 1352.07 L560.571 1352.07 L560.571 1348.14 Q559.113 1350.5 556.937 1351.63 Q554.761 1352.75 551.613 1352.75 Q547.631 1352.75 545.27 1350.52 Q542.932 1348.28 542.932 1344.53 Q542.932 1340.15 545.849 1337.93 Q548.789 1335.71 554.599 1335.71 L560.571 1335.71 L560.571 1335.29 Q560.571 1332.35 558.627 1330.76 Q556.705 1329.13 553.21 1329.13 Q550.988 1329.13 548.881 1329.67 Q546.775 1330.2 544.83 1331.26 L544.83 1327.33 Q547.168 1326.43 549.367 1325.99 Q551.566 1325.52 553.65 1325.52 Q559.275 1325.52 562.053 1328.44 Q564.83 1331.36 564.83 1337.28 Z" fill="#000000" fill-rule="nonzero" fill-opacity="1" /><path clip-path="url(#clip830)" d="M577.816 1318.79 L577.816 1326.15 L586.589 1326.15 L586.589 1329.46 L577.816 1329.46 L577.816 1343.53 Q577.816 1346.7 578.673 1347.61 Q579.552 1348.51 582.214 1348.51 L586.589 1348.51 L586.589 1352.07 L582.214 1352.07 Q577.284 1352.07 575.409 1350.25 Q573.534 1348.39 573.534 1343.53 L573.534 1329.46 L570.409 1329.46 L570.409 1326.15 L573.534 1326.15 L573.534 1318.79 L577.816 1318.79 Z" fill="#000000" fill-rule="nonzero" fill-opacity="1" /><path clip-path="url(#clip830)" d="M614.367 1338.05 L614.367 1340.13 L594.784 1340.13 Q595.062 1344.53 597.423 1346.84 Q599.807 1349.13 604.043 1349.13 Q606.497 1349.13 608.788 1348.53 Q611.103 1347.93 613.372 1346.73 L613.372 1350.75 Q611.08 1351.73 608.673 1352.24 Q606.265 1352.75 603.788 1352.75 Q597.585 1352.75 593.95 1349.13 Q590.339 1345.52 590.339 1339.37 Q590.339 1333 593.765 1329.27 Q597.214 1325.52 603.048 1325.52 Q608.279 1325.52 611.312 1328.9 Q614.367 1332.26 614.367 1338.05 M610.108 1336.8 Q610.062 1333.3 608.14 1331.22 Q606.242 1329.13 603.094 1329.13 Q599.529 1329.13 597.376 1331.15 Q595.247 1333.16 594.923 1336.82 L610.108 1336.8 Z" fill="#000000" fill-rule="nonzero" fill-opacity="1" /><polyline clip-path="url(#clip830)" style="stroke:#ff0000; stroke-linecap:round; stroke-linejoin:round; stroke-width:4; stroke-opacity:1; fill:none" points="238.832,1386.63 386.315,1386.63 "/>
<path clip-path="url(#clip830)" d="M431.243 1382.97 Q432.84 1380.1 435.062 1378.73 Q437.285 1377.36 440.294 1377.36 Q444.345 1377.36 446.544 1380.21 Q448.743 1383.03 448.743 1388.27 L448.743 1403.91 L444.461 1403.91 L444.461 1388.41 Q444.461 1384.68 443.141 1382.87 Q441.822 1381.07 439.113 1381.07 Q435.803 1381.07 433.882 1383.27 Q431.961 1385.47 431.961 1389.26 L431.961 1403.91 L427.678 1403.91 L427.678 1388.41 Q427.678 1384.66 426.359 1382.87 Q425.039 1381.07 422.285 1381.07 Q419.021 1381.07 417.1 1383.29 Q415.178 1385.49 415.178 1389.26 L415.178 1403.91 L410.896 1403.91 L410.896 1377.99 L415.178 1377.99 L415.178 1382.02 Q416.637 1379.63 418.674 1378.5 Q420.711 1377.36 423.512 1377.36 Q426.336 1377.36 428.303 1378.8 Q430.294 1380.23 431.243 1382.97 Z" fill="#000000" fill-rule="nonzero" fill-opacity="1" /><path clip-path="url(#clip830)" d="M479.414 1389.89 L479.414 1391.97 L459.831 1391.97 Q460.109 1396.37 462.47 1398.68 Q464.854 1400.97 469.09 1400.97 Q471.544 1400.97 473.835 1400.37 Q476.15 1399.77 478.419 1398.57 L478.419 1402.59 Q476.127 1403.57 473.72 1404.08 Q471.312 1404.59 468.835 1404.59 Q462.632 1404.59 458.998 1400.97 Q455.386 1397.36 455.386 1391.21 Q455.386 1384.84 458.812 1381.11 Q462.261 1377.36 468.095 1377.36 Q473.326 1377.36 476.359 1380.74 Q479.414 1384.1 479.414 1389.89 M475.155 1388.64 Q475.109 1385.14 473.187 1383.06 Q471.289 1380.97 468.141 1380.97 Q464.576 1380.97 462.423 1382.99 Q460.294 1385 459.97 1388.66 L475.155 1388.64 Z" fill="#000000" fill-rule="nonzero" fill-opacity="1" /><path clip-path="url(#clip830)" d="M498.187 1390.88 Q493.025 1390.88 491.034 1392.06 Q489.044 1393.24 489.044 1396.09 Q489.044 1398.36 490.525 1399.7 Q492.03 1401.02 494.599 1401.02 Q498.141 1401.02 500.27 1398.52 Q502.423 1396 502.423 1391.83 L502.423 1390.88 L498.187 1390.88 M506.682 1389.12 L506.682 1403.91 L502.423 1403.91 L502.423 1399.98 Q500.965 1402.34 498.789 1403.47 Q496.613 1404.59 493.465 1404.59 Q489.483 1404.59 487.122 1402.36 Q484.784 1400.12 484.784 1396.37 Q484.784 1391.99 487.701 1389.77 Q490.641 1387.55 496.451 1387.55 L502.423 1387.55 L502.423 1387.13 Q502.423 1384.19 500.479 1382.6 Q498.557 1380.97 495.062 1380.97 Q492.84 1380.97 490.733 1381.51 Q488.627 1382.04 486.683 1383.1 L486.683 1379.17 Q489.021 1378.27 491.22 1377.83 Q493.419 1377.36 495.502 1377.36 Q501.127 1377.36 503.905 1380.28 Q506.682 1383.2 506.682 1389.12 Z" fill="#000000" fill-rule="nonzero" fill-opacity="1" /><path clip-path="url(#clip830)" d="M531.983 1378.75 L531.983 1382.78 Q530.178 1381.85 528.233 1381.39 Q526.289 1380.93 524.206 1380.93 Q521.034 1380.93 519.437 1381.9 Q517.863 1382.87 517.863 1384.82 Q517.863 1386.3 518.997 1387.16 Q520.131 1387.99 523.557 1388.75 L525.016 1389.08 Q529.553 1390.05 531.451 1391.83 Q533.372 1393.59 533.372 1396.76 Q533.372 1400.37 530.502 1402.48 Q527.655 1404.59 522.655 1404.59 Q520.571 1404.59 518.303 1404.17 Q516.057 1403.78 513.557 1402.97 L513.557 1398.57 Q515.919 1399.79 518.21 1400.42 Q520.502 1401.02 522.747 1401.02 Q525.756 1401.02 527.377 1400 Q528.997 1398.96 528.997 1397.09 Q528.997 1395.35 527.817 1394.42 Q526.659 1393.5 522.701 1392.64 L521.219 1392.29 Q517.261 1391.46 515.502 1389.75 Q513.743 1388.01 513.743 1385 Q513.743 1381.35 516.335 1379.35 Q518.928 1377.36 523.696 1377.36 Q526.057 1377.36 528.141 1377.71 Q530.224 1378.06 531.983 1378.75 Z" fill="#000000" fill-rule="nonzero" fill-opacity="1" /><path clip-path="url(#clip830)" d="M539.715 1393.68 L539.715 1377.99 L543.974 1377.99 L543.974 1393.52 Q543.974 1397.2 545.409 1399.05 Q546.844 1400.88 549.715 1400.88 Q553.164 1400.88 555.154 1398.68 Q557.168 1396.48 557.168 1392.69 L557.168 1377.99 L561.428 1377.99 L561.428 1403.91 L557.168 1403.91 L557.168 1399.93 Q555.617 1402.29 553.557 1403.45 Q551.52 1404.59 548.812 1404.59 Q544.344 1404.59 542.029 1401.81 Q539.715 1399.03 539.715 1393.68 M550.432 1377.36 L550.432 1377.36 Z" fill="#000000" fill-rule="nonzero" fill-opacity="1" /><path clip-path="url(#clip830)" d="M585.224 1381.97 Q584.506 1381.55 583.65 1381.37 Q582.816 1381.16 581.798 1381.16 Q578.187 1381.16 576.242 1383.52 Q574.321 1385.86 574.321 1390.26 L574.321 1403.91 L570.039 1403.91 L570.039 1377.99 L574.321 1377.99 L574.321 1382.02 Q575.664 1379.66 577.816 1378.52 Q579.969 1377.36 583.048 1377.36 Q583.488 1377.36 584.02 1377.43 Q584.552 1377.48 585.201 1377.6 L585.224 1381.97 Z" fill="#000000" fill-rule="nonzero" fill-opacity="1" /><path clip-path="url(#clip830)" d="M610.825 1389.89 L610.825 1391.97 L591.242 1391.97 Q591.52 1396.37 593.881 1398.68 Q596.265 1400.97 600.501 1400.97 Q602.955 1400.97 605.247 1400.37 Q607.562 1399.77 609.83 1398.57 L609.83 1402.59 Q607.538 1403.57 605.131 1404.08 Q602.724 1404.59 600.247 1404.59 Q594.043 1404.59 590.409 1400.97 Q586.798 1397.36 586.798 1391.21 Q586.798 1384.84 590.224 1381.11 Q593.673 1377.36 599.506 1377.36 Q604.737 1377.36 607.77 1380.74 Q610.825 1384.1 610.825 1389.89 M606.566 1388.64 Q606.52 1385.14 604.599 1383.06 Q602.7 1380.97 599.552 1380.97 Q595.988 1380.97 593.835 1382.99 Q591.705 1385 591.381 1388.66 L606.566 1388.64 Z" fill="#000000" fill-rule="nonzero" fill-opacity="1" /><path clip-path="url(#clip830)" d="M638.001 1382.97 Q639.598 1380.1 641.821 1378.73 Q644.043 1377.36 647.052 1377.36 Q651.103 1377.36 653.302 1380.21 Q655.501 1383.03 655.501 1388.27 L655.501 1403.91 L651.219 1403.91 L651.219 1388.41 Q651.219 1384.68 649.899 1382.87 Q648.58 1381.07 645.872 1381.07 Q642.561 1381.07 640.64 1383.27 Q638.719 1385.47 638.719 1389.26 L638.719 1403.91 L634.436 1403.91 L634.436 1388.41 Q634.436 1384.66 633.117 1382.87 Q631.798 1381.07 629.043 1381.07 Q625.779 1381.07 623.858 1383.29 Q621.936 1385.49 621.936 1389.26 L621.936 1403.91 L617.654 1403.91 L617.654 1377.99 L621.936 1377.99 L621.936 1382.02 Q623.395 1379.63 625.432 1378.5 Q627.469 1377.36 630.27 1377.36 Q633.094 1377.36 635.061 1378.8 Q637.052 1380.23 638.001 1382.97 Z" fill="#000000" fill-rule="nonzero" fill-opacity="1" /><path clip-path="url(#clip830)" d="M686.172 1389.89 L686.172 1391.97 L666.589 1391.97 Q666.867 1396.37 669.228 1398.68 Q671.612 1400.97 675.848 1400.97 Q678.302 1400.97 680.594 1400.37 Q682.908 1399.77 685.177 1398.57 L685.177 1402.59 Q682.885 1403.57 680.478 1404.08 Q678.07 1404.59 675.594 1404.59 Q669.39 1404.59 665.756 1400.97 Q662.145 1397.36 662.145 1391.21 Q662.145 1384.84 665.57 1381.11 Q669.02 1377.36 674.853 1377.36 Q680.084 1377.36 683.117 1380.74 Q686.172 1384.1 686.172 1389.89 M681.913 1388.64 Q681.867 1385.14 679.945 1383.06 Q678.047 1380.97 674.899 1380.97 Q671.334 1380.97 669.182 1382.99 Q667.052 1385 666.728 1388.66 L681.913 1388.64 Z" fill="#000000" fill-rule="nonzero" fill-opacity="1" /><path clip-path="url(#clip830)" d="M714.714 1388.27 L714.714 1403.91 L710.455 1403.91 L710.455 1388.41 Q710.455 1384.72 709.019 1382.9 Q707.584 1381.07 704.714 1381.07 Q701.265 1381.07 699.274 1383.27 Q697.283 1385.47 697.283 1389.26 L697.283 1403.91 L693.001 1403.91 L693.001 1377.99 L697.283 1377.99 L697.283 1382.02 Q698.811 1379.68 700.871 1378.52 Q702.955 1377.36 705.663 1377.36 Q710.13 1377.36 712.422 1380.14 Q714.714 1382.9 714.714 1388.27 Z" fill="#000000" fill-rule="nonzero" fill-opacity="1" /><path clip-path="url(#clip830)" d="M727.422 1370.63 L727.422 1377.99 L736.195 1377.99 L736.195 1381.3 L727.422 1381.3 L727.422 1395.37 Q727.422 1398.54 728.278 1399.45 Q729.158 1400.35 731.82 1400.35 L736.195 1400.35 L736.195 1403.91 L731.82 1403.91 Q726.89 1403.91 725.015 1402.09 Q723.14 1400.23 723.14 1395.37 L723.14 1381.3 L720.015 1381.3 L720.015 1377.99 L723.14 1377.99 L723.14 1370.63 L727.422 1370.63 Z" fill="#000000" fill-rule="nonzero" fill-opacity="1" /></svg>
