<?xml version="1.0" encoding="utf-8"?>
<svg xmlns="http://www.w3.org/2000/svg" xmlns:xlink="http://www.w3.org/1999/xlink" width="600" height="400" viewBox="0 0 2400 1600">
<defs>
  <clipPath id="clip860">
    <rect x="0" y="0" width="2400" height="1600"/>
  </clipPath>
</defs>
<path clip-path="url(#clip860)" d="M0 1600 L2400 1600 L2400 0 L0 0  Z" fill="#ffffff" fill-rule="evenodd" fill-opacity="1"/>
<defs>
  <clipPath id="clip861">
    <rect x="480" y="0" width="1681" height="1600"/>
  </clipPath>
</defs>
<path clip-path="url(#clip860)" d="M177.871 1486.45 L2352.76 1486.45 L2352.76 47.2441 L177.871 47.2441  Z" fill="#ffffff" fill-rule="evenodd" fill-opacity="1"/>
<defs>
  <clipPath id="clip862">
    <rect x="177" y="47" width="2176" height="1440"/>
  </clipPath>
</defs>
<polyline clip-path="url(#clip862)" style="stroke:#000000; stroke-linecap:round; stroke-linejoin:round; stroke-width:2; stroke-opacity:0.1; fill:none" points="386.031,1486.45 386.031,47.2441 "/>
<polyline clip-path="url(#clip862)" style="stroke:#000000; stroke-linecap:round; stroke-linejoin:round; stroke-width:2; stroke-opacity:0.1; fill:none" points="812.173,1486.45 812.173,47.2441 "/>
<polyline clip-path="url(#clip862)" style="stroke:#000000; stroke-linecap:round; stroke-linejoin:round; stroke-width:2; stroke-opacity:0.1; fill:none" points="1238.31,1486.45 1238.31,47.2441 "/>
<polyline clip-path="url(#clip862)" style="stroke:#000000; stroke-linecap:round; stroke-linejoin:round; stroke-width:2; stroke-opacity:0.1; fill:none" points="1664.46,1486.45 1664.46,47.2441 "/>
<polyline clip-path="url(#clip862)" style="stroke:#000000; stroke-linecap:round; stroke-linejoin:round; stroke-width:2; stroke-opacity:0.1; fill:none" points="2090.6,1486.45 2090.6,47.2441 "/>
<polyline clip-path="url(#clip862)" style="stroke:#000000; stroke-linecap:round; stroke-linejoin:round; stroke-width:2; stroke-opacity:0.1; fill:none" points="177.871,1483.28 2352.76,1483.28 "/>
<polyline clip-path="url(#clip862)" style="stroke:#000000; stroke-linecap:round; stroke-linejoin:round; stroke-width:2; stroke-opacity:0.1; fill:none" points="177.871,1176.84 2352.76,1176.84 "/>
<polyline clip-path="url(#clip862)" style="stroke:#000000; stroke-linecap:round; stroke-linejoin:round; stroke-width:2; stroke-opacity:0.1; fill:none" points="177.871,870.397 2352.76,870.397 "/>
<polyline clip-path="url(#clip862)" style="stroke:#000000; stroke-linecap:round; stroke-linejoin:round; stroke-width:2; stroke-opacity:0.1; fill:none" points="177.871,563.955 2352.76,563.955 "/>
<polyline clip-path="url(#clip862)" style="stroke:#000000; stroke-linecap:round; stroke-linejoin:round; stroke-width:2; stroke-opacity:0.1; fill:none" points="177.871,257.513 2352.76,257.513 "/>
<polyline clip-path="url(#clip860)" style="stroke:#000000; stroke-linecap:round; stroke-linejoin:round; stroke-width:4; stroke-opacity:1; fill:none" points="177.871,1486.45 2352.76,1486.45 "/>
<polyline clip-path="url(#clip860)" style="stroke:#000000; stroke-linecap:round; stroke-linejoin:round; stroke-width:4; stroke-opacity:1; fill:none" points="386.031,1486.45 386.031,1467.55 "/>
<polyline clip-path="url(#clip860)" style="stroke:#000000; stroke-linecap:round; stroke-linejoin:round; stroke-width:4; stroke-opacity:1; fill:none" points="812.173,1486.45 812.173,1467.55 "/>
<polyline clip-path="url(#clip860)" style="stroke:#000000; stroke-linecap:round; stroke-linejoin:round; stroke-width:4; stroke-opacity:1; fill:none" points="1238.31,1486.45 1238.31,1467.55 "/>
<polyline clip-path="url(#clip860)" style="stroke:#000000; stroke-linecap:round; stroke-linejoin:round; stroke-width:4; stroke-opacity:1; fill:none" points="1664.46,1486.45 1664.46,1467.55 "/>
<polyline clip-path="url(#clip860)" style="stroke:#000000; stroke-linecap:round; stroke-linejoin:round; stroke-width:4; stroke-opacity:1; fill:none" points="2090.6,1486.45 2090.6,1467.55 "/>
<path clip-path="url(#clip860)" d="M340.094 1532.02 L369.77 1532.02 L369.77 1535.95 L340.094 1535.95 L340.094 1532.02 Z" fill="#000000" fill-rule="nonzero" fill-opacity="1" /><path clip-path="url(#clip860)" d="M394.029 1530.21 Q397.386 1530.93 399.261 1533.2 Q401.159 1535.47 401.159 1538.8 Q401.159 1543.92 397.64 1546.72 Q394.122 1549.52 387.64 1549.52 Q385.464 1549.52 383.15 1549.08 Q380.858 1548.66 378.404 1547.81 L378.404 1543.29 Q380.349 1544.43 382.663 1545.01 Q384.978 1545.58 387.501 1545.58 Q391.899 1545.58 394.191 1543.85 Q396.506 1542.11 396.506 1538.8 Q396.506 1535.75 394.353 1534.03 Q392.224 1532.3 388.404 1532.3 L384.376 1532.3 L384.376 1528.45 L388.589 1528.45 Q392.038 1528.45 393.867 1527.09 Q395.696 1525.7 395.696 1523.11 Q395.696 1520.45 393.798 1519.03 Q391.923 1517.6 388.404 1517.6 Q386.483 1517.6 384.284 1518.01 Q382.085 1518.43 379.446 1519.31 L379.446 1515.14 Q382.108 1514.4 384.423 1514.03 Q386.761 1513.66 388.821 1513.66 Q394.145 1513.66 397.247 1516.09 Q400.349 1518.5 400.349 1522.62 Q400.349 1525.49 398.705 1527.48 Q397.061 1529.45 394.029 1530.21 Z" fill="#000000" fill-rule="nonzero" fill-opacity="1" /><path clip-path="url(#clip860)" d="M420.024 1517.37 Q416.413 1517.37 414.585 1520.93 Q412.779 1524.47 412.779 1531.6 Q412.779 1538.71 414.585 1542.27 Q416.413 1545.82 420.024 1545.82 Q423.659 1545.82 425.464 1542.27 Q427.293 1538.71 427.293 1531.6 Q427.293 1524.47 425.464 1520.93 Q423.659 1517.37 420.024 1517.37 M420.024 1513.66 Q425.834 1513.66 428.89 1518.27 Q431.969 1522.85 431.969 1531.6 Q431.969 1540.33 428.89 1544.94 Q425.834 1549.52 420.024 1549.52 Q414.214 1549.52 411.135 1544.94 Q408.08 1540.33 408.08 1531.6 Q408.08 1522.85 411.135 1518.27 Q414.214 1513.66 420.024 1513.66 Z" fill="#000000" fill-rule="nonzero" fill-opacity="1" /><path clip-path="url(#clip860)" d="M812.173 1517.37 Q808.562 1517.37 806.733 1520.93 Q804.928 1524.47 804.928 1531.6 Q804.928 1538.71 806.733 1542.27 Q808.562 1545.82 812.173 1545.82 Q815.807 1545.82 817.613 1542.27 Q819.441 1538.71 819.441 1531.6 Q819.441 1524.47 817.613 1520.93 Q815.807 1517.37 812.173 1517.37 M812.173 1513.66 Q817.983 1513.66 821.039 1518.27 Q824.117 1522.85 824.117 1531.6 Q824.117 1540.33 821.039 1544.94 Q817.983 1549.52 812.173 1549.52 Q806.363 1549.52 803.284 1544.94 Q800.228 1540.33 800.228 1531.6 Q800.228 1522.85 803.284 1518.27 Q806.363 1513.66 812.173 1513.66 Z" fill="#000000" fill-rule="nonzero" fill-opacity="1" /><path clip-path="url(#clip860)" d="M1227.16 1530.21 Q1230.51 1530.93 1232.39 1533.2 Q1234.29 1535.47 1234.29 1538.8 Q1234.29 1543.92 1230.77 1546.72 Q1227.25 1549.52 1220.77 1549.52 Q1218.59 1549.52 1216.28 1549.08 Q1213.99 1548.66 1211.53 1547.81 L1211.53 1543.29 Q1213.48 1544.43 1215.79 1545.01 Q1218.11 1545.58 1220.63 1545.58 Q1225.03 1545.58 1227.32 1543.85 Q1229.63 1542.11 1229.63 1538.8 Q1229.63 1535.75 1227.48 1534.03 Q1225.35 1532.3 1221.53 1532.3 L1217.5 1532.3 L1217.5 1528.45 L1221.72 1528.45 Q1225.17 1528.45 1226.99 1527.09 Q1228.82 1525.7 1228.82 1523.11 Q1228.82 1520.45 1226.93 1519.03 Q1225.05 1517.6 1221.53 1517.6 Q1219.61 1517.6 1217.41 1518.01 Q1215.21 1518.43 1212.57 1519.31 L1212.57 1515.14 Q1215.24 1514.4 1217.55 1514.03 Q1219.89 1513.66 1221.95 1513.66 Q1227.27 1513.66 1230.37 1516.09 Q1233.48 1518.5 1233.48 1522.62 Q1233.48 1525.49 1231.83 1527.48 Q1230.19 1529.45 1227.16 1530.21 Z" fill="#000000" fill-rule="nonzero" fill-opacity="1" /><path clip-path="url(#clip860)" d="M1253.15 1517.37 Q1249.54 1517.37 1247.71 1520.93 Q1245.91 1524.47 1245.91 1531.6 Q1245.91 1538.71 1247.71 1542.27 Q1249.54 1545.82 1253.15 1545.82 Q1256.79 1545.82 1258.59 1542.27 Q1260.42 1538.71 1260.42 1531.6 Q1260.42 1524.47 1258.59 1520.93 Q1256.79 1517.37 1253.15 1517.37 M1253.15 1513.66 Q1258.96 1513.66 1262.02 1518.27 Q1265.1 1522.85 1265.1 1531.6 Q1265.1 1540.33 1262.02 1544.94 Q1258.96 1549.52 1253.15 1549.52 Q1247.34 1549.52 1244.26 1544.94 Q1241.21 1540.33 1241.21 1531.6 Q1241.21 1522.85 1244.26 1518.27 Q1247.34 1513.66 1253.15 1513.66 Z" fill="#000000" fill-rule="nonzero" fill-opacity="1" /><path clip-path="url(#clip860)" d="M1649.86 1529.7 Q1646.71 1529.7 1644.86 1531.86 Q1643.03 1534.01 1643.03 1537.76 Q1643.03 1541.49 1644.86 1543.66 Q1646.71 1545.82 1649.86 1545.82 Q1653.01 1545.82 1654.84 1543.66 Q1656.69 1541.49 1656.69 1537.76 Q1656.69 1534.01 1654.84 1531.86 Q1653.01 1529.7 1649.86 1529.7 M1659.14 1515.05 L1659.14 1519.31 Q1657.38 1518.48 1655.58 1518.04 Q1653.8 1517.6 1652.04 1517.6 Q1647.41 1517.6 1644.95 1520.72 Q1642.52 1523.85 1642.18 1530.17 Q1643.54 1528.15 1645.6 1527.09 Q1647.66 1526 1650.14 1526 Q1655.35 1526 1658.36 1529.17 Q1661.39 1532.32 1661.39 1537.76 Q1661.39 1543.08 1658.24 1546.3 Q1655.09 1549.52 1649.86 1549.52 Q1643.87 1549.52 1640.69 1544.94 Q1637.52 1540.33 1637.52 1531.6 Q1637.52 1523.41 1641.41 1518.55 Q1645.3 1513.66 1651.85 1513.66 Q1653.61 1513.66 1655.39 1514.01 Q1657.2 1514.36 1659.14 1515.05 Z" fill="#000000" fill-rule="nonzero" fill-opacity="1" /><path clip-path="url(#clip860)" d="M1679.44 1517.37 Q1675.83 1517.37 1674 1520.93 Q1672.2 1524.47 1672.2 1531.6 Q1672.2 1538.71 1674 1542.27 Q1675.83 1545.82 1679.44 1545.82 Q1683.08 1545.82 1684.88 1542.27 Q1686.71 1538.71 1686.71 1531.6 Q1686.71 1524.47 1684.88 1520.93 Q1683.08 1517.37 1679.44 1517.37 M1679.44 1513.66 Q1685.25 1513.66 1688.31 1518.27 Q1691.39 1522.85 1691.39 1531.6 Q1691.39 1540.33 1688.31 1544.94 Q1685.25 1549.52 1679.44 1549.52 Q1673.63 1549.52 1670.56 1544.94 Q1667.5 1540.33 1667.5 1531.6 Q1667.5 1522.85 1670.56 1518.27 Q1673.63 1513.66 1679.44 1513.66 Z" fill="#000000" fill-rule="nonzero" fill-opacity="1" /><path clip-path="url(#clip860)" d="M2065.72 1548.13 L2065.72 1543.87 Q2067.48 1544.7 2069.29 1545.14 Q2071.09 1545.58 2072.83 1545.58 Q2077.46 1545.58 2079.89 1542.48 Q2082.34 1539.36 2082.69 1533.01 Q2081.35 1535.01 2079.29 1536.07 Q2077.23 1537.13 2074.73 1537.13 Q2069.54 1537.13 2066.51 1534.01 Q2063.5 1530.86 2063.5 1525.42 Q2063.5 1520.1 2066.65 1516.88 Q2069.8 1513.66 2075.03 1513.66 Q2081.03 1513.66 2084.17 1518.27 Q2087.34 1522.85 2087.34 1531.6 Q2087.34 1539.77 2083.46 1544.66 Q2079.59 1549.52 2073.04 1549.52 Q2071.28 1549.52 2069.47 1549.17 Q2067.67 1548.82 2065.72 1548.13 M2075.03 1533.48 Q2078.18 1533.48 2080.01 1531.32 Q2081.86 1529.17 2081.86 1525.42 Q2081.86 1521.7 2080.01 1519.54 Q2078.18 1517.37 2075.03 1517.37 Q2071.88 1517.37 2070.03 1519.54 Q2068.2 1521.7 2068.2 1525.42 Q2068.2 1529.17 2070.03 1531.32 Q2071.88 1533.48 2075.03 1533.48 Z" fill="#000000" fill-rule="nonzero" fill-opacity="1" /><path clip-path="url(#clip860)" d="M2105.75 1517.37 Q2102.14 1517.37 2100.31 1520.93 Q2098.5 1524.47 2098.5 1531.6 Q2098.5 1538.71 2100.31 1542.27 Q2102.14 1545.82 2105.75 1545.82 Q2109.38 1545.82 2111.19 1542.27 Q2113.02 1538.71 2113.02 1531.6 Q2113.02 1524.47 2111.19 1520.93 Q2109.38 1517.37 2105.75 1517.37 M2105.75 1513.66 Q2111.56 1513.66 2114.61 1518.27 Q2117.69 1522.85 2117.69 1531.6 Q2117.69 1540.33 2114.61 1544.94 Q2111.56 1549.52 2105.75 1549.52 Q2099.94 1549.52 2096.86 1544.94 Q2093.8 1540.33 2093.8 1531.6 Q2093.8 1522.85 2096.86 1518.27 Q2099.94 1513.66 2105.75 1513.66 Z" fill="#000000" fill-rule="nonzero" fill-opacity="1" /><polyline clip-path="url(#clip860)" style="stroke:#000000; stroke-linecap:round; stroke-linejoin:round; stroke-width:4; stroke-opacity:1; fill:none" points="177.871,1486.45 177.871,47.2441 "/>
<polyline clip-path="url(#clip860)" style="stroke:#000000; stroke-linecap:round; stroke-linejoin:round; stroke-width:4; stroke-opacity:1; fill:none" points="177.871,1483.28 196.769,1483.28 "/>
<polyline clip-path="url(#clip860)" style="stroke:#000000; stroke-linecap:round; stroke-linejoin:round; stroke-width:4; stroke-opacity:1; fill:none" points="177.871,1176.84 196.769,1176.84 "/>
<polyline clip-path="url(#clip860)" style="stroke:#000000; stroke-linecap:round; stroke-linejoin:round; stroke-width:4; stroke-opacity:1; fill:none" points="177.871,870.397 196.769,870.397 "/>
<polyline clip-path="url(#clip860)" style="stroke:#000000; stroke-linecap:round; stroke-linejoin:round; stroke-width:4; stroke-opacity:1; fill:none" points="177.871,563.955 196.769,563.955 "/>
<polyline clip-path="url(#clip860)" style="stroke:#000000; stroke-linecap:round; stroke-linejoin:round; stroke-width:4; stroke-opacity:1; fill:none" points="177.871,257.513 196.769,257.513 "/>
<path clip-path="url(#clip860)" d="M50.9921 1483.73 L80.6679 1483.73 L80.6679 1487.67 L50.9921 1487.67 L50.9921 1483.73 Z" fill="#000000" fill-rule="nonzero" fill-opacity="1" /><path clip-path="url(#clip860)" d="M94.7882 1496.63 L111.108 1496.63 L111.108 1500.56 L89.1632 1500.56 L89.1632 1496.63 Q91.8252 1493.87 96.4085 1489.24 Q101.015 1484.59 102.196 1483.25 Q104.441 1480.72 105.321 1478.99 Q106.223 1477.23 106.223 1475.54 Q106.223 1472.78 104.279 1471.05 Q102.358 1469.31 99.2558 1469.31 Q97.0567 1469.31 94.603 1470.07 Q92.1725 1470.84 89.3947 1472.39 L89.3947 1467.67 Q92.2188 1466.53 94.6724 1465.95 Q97.1261 1465.38 99.1632 1465.38 Q104.534 1465.38 107.728 1468.06 Q110.922 1470.75 110.922 1475.24 Q110.922 1477.37 110.112 1479.29 Q109.325 1481.19 107.219 1483.78 Q106.64 1484.45 103.538 1487.67 Q100.436 1490.86 94.7882 1496.63 Z" fill="#000000" fill-rule="nonzero" fill-opacity="1" /><path clip-path="url(#clip860)" d="M120.969 1466 L139.325 1466 L139.325 1469.94 L125.251 1469.94 L125.251 1478.41 Q126.27 1478.06 127.288 1477.9 Q128.307 1477.71 129.325 1477.71 Q135.112 1477.71 138.492 1480.88 Q141.871 1484.06 141.871 1489.47 Q141.871 1495.05 138.399 1498.15 Q134.927 1501.23 128.607 1501.23 Q126.432 1501.23 124.163 1500.86 Q121.918 1500.49 119.51 1499.75 L119.51 1495.05 Q121.594 1496.19 123.816 1496.74 Q126.038 1497.3 128.515 1497.3 Q132.519 1497.3 134.857 1495.19 Q137.195 1493.08 137.195 1489.47 Q137.195 1485.86 134.857 1483.76 Q132.519 1481.65 128.515 1481.65 Q126.64 1481.65 124.765 1482.07 Q122.913 1482.48 120.969 1483.36 L120.969 1466 Z" fill="#000000" fill-rule="nonzero" fill-opacity="1" /><path clip-path="url(#clip860)" d="M129.927 1162.64 Q126.316 1162.64 124.487 1166.2 Q122.682 1169.74 122.682 1176.87 Q122.682 1183.98 124.487 1187.54 Q126.316 1191.09 129.927 1191.09 Q133.561 1191.09 135.367 1187.54 Q137.195 1183.98 137.195 1176.87 Q137.195 1169.74 135.367 1166.2 Q133.561 1162.64 129.927 1162.64 M129.927 1158.93 Q135.737 1158.93 138.793 1163.54 Q141.871 1168.12 141.871 1176.87 Q141.871 1185.6 138.793 1190.21 Q135.737 1194.79 129.927 1194.79 Q124.117 1194.79 121.038 1190.21 Q117.983 1185.6 117.983 1176.87 Q117.983 1168.12 121.038 1163.54 Q124.117 1158.93 129.927 1158.93 Z" fill="#000000" fill-rule="nonzero" fill-opacity="1" /><path clip-path="url(#clip860)" d="M94.7882 883.742 L111.108 883.742 L111.108 887.677 L89.1632 887.677 L89.1632 883.742 Q91.8252 880.987 96.4085 876.357 Q101.015 871.705 102.196 870.362 Q104.441 867.839 105.321 866.103 Q106.223 864.344 106.223 862.654 Q106.223 859.899 104.279 858.163 Q102.358 856.427 99.2558 856.427 Q97.0567 856.427 94.603 857.191 Q92.1725 857.955 89.3947 859.506 L89.3947 854.783 Q92.2188 853.649 94.6724 853.07 Q97.1261 852.492 99.1632 852.492 Q104.534 852.492 107.728 855.177 Q110.922 857.862 110.922 862.353 Q110.922 864.482 110.112 866.404 Q109.325 868.302 107.219 870.894 Q106.64 871.566 103.538 874.783 Q100.436 877.978 94.7882 883.742 Z" fill="#000000" fill-rule="nonzero" fill-opacity="1" /><path clip-path="url(#clip860)" d="M120.969 853.117 L139.325 853.117 L139.325 857.052 L125.251 857.052 L125.251 865.524 Q126.27 865.177 127.288 865.015 Q128.307 864.83 129.325 864.83 Q135.112 864.83 138.492 868.001 Q141.871 871.172 141.871 876.589 Q141.871 882.168 138.399 885.269 Q134.927 888.348 128.607 888.348 Q126.432 888.348 124.163 887.978 Q121.918 887.607 119.51 886.867 L119.51 882.168 Q121.594 883.302 123.816 883.857 Q126.038 884.413 128.515 884.413 Q132.519 884.413 134.857 882.306 Q137.195 880.2 137.195 876.589 Q137.195 872.978 134.857 870.871 Q132.519 868.765 128.515 868.765 Q126.64 868.765 124.765 869.181 Q122.913 869.598 120.969 870.478 L120.969 853.117 Z" fill="#000000" fill-rule="nonzero" fill-opacity="1" /><path clip-path="url(#clip860)" d="M89.8114 546.675 L108.168 546.675 L108.168 550.61 L94.0937 550.61 L94.0937 559.082 Q95.1123 558.735 96.1308 558.573 Q97.1493 558.388 98.1678 558.388 Q103.955 558.388 107.334 561.559 Q110.714 564.73 110.714 570.147 Q110.714 575.726 107.242 578.827 Q103.77 581.906 97.4502 581.906 Q95.2743 581.906 93.0058 581.536 Q90.7604 581.165 88.353 580.425 L88.353 575.726 Q90.4364 576.86 92.6586 577.415 Q94.8808 577.971 97.3576 577.971 Q101.362 577.971 103.7 575.865 Q106.038 573.758 106.038 570.147 Q106.038 566.536 103.7 564.429 Q101.362 562.323 97.3576 562.323 Q95.4826 562.323 93.6076 562.74 Q91.7558 563.156 89.8114 564.036 L89.8114 546.675 Z" fill="#000000" fill-rule="nonzero" fill-opacity="1" /><path clip-path="url(#clip860)" d="M129.927 549.754 Q126.316 549.754 124.487 553.318 Q122.682 556.86 122.682 563.99 Q122.682 571.096 124.487 574.661 Q126.316 578.202 129.927 578.202 Q133.561 578.202 135.367 574.661 Q137.195 571.096 137.195 563.99 Q137.195 556.86 135.367 553.318 Q133.561 549.754 129.927 549.754 M129.927 546.05 Q135.737 546.05 138.793 550.656 Q141.871 555.24 141.871 563.99 Q141.871 572.716 138.793 577.323 Q135.737 581.906 129.927 581.906 Q124.117 581.906 121.038 577.323 Q117.983 572.716 117.983 563.99 Q117.983 555.24 121.038 550.656 Q124.117 546.05 129.927 546.05 Z" fill="#000000" fill-rule="nonzero" fill-opacity="1" /><path clip-path="url(#clip860)" d="M89.5799 240.233 L111.802 240.233 L111.802 242.224 L99.2558 274.793 L94.3715 274.793 L106.177 244.168 L89.5799 244.168 L89.5799 240.233 Z" fill="#000000" fill-rule="nonzero" fill-opacity="1" /><path clip-path="url(#clip860)" d="M120.969 240.233 L139.325 240.233 L139.325 244.168 L125.251 244.168 L125.251 252.64 Q126.27 252.293 127.288 252.131 Q128.307 251.946 129.325 251.946 Q135.112 251.946 138.492 255.117 Q141.871 258.288 141.871 263.705 Q141.871 269.284 138.399 272.386 Q134.927 275.464 128.607 275.464 Q126.432 275.464 124.163 275.094 Q121.918 274.724 119.51 273.983 L119.51 269.284 Q121.594 270.418 123.816 270.974 Q126.038 271.529 128.515 271.529 Q132.519 271.529 134.857 269.423 Q137.195 267.316 137.195 263.705 Q137.195 260.094 134.857 257.988 Q132.519 255.881 128.515 255.881 Q126.64 255.881 124.765 256.298 Q122.913 256.714 120.969 257.594 L120.969 240.233 Z" fill="#000000" fill-rule="nonzero" fill-opacity="1" /><polyline clip-path="url(#clip862)" style="stroke:#0000ff; stroke-linecap:round; stroke-linejoin:round; stroke-width:4; stroke-opacity:1; fill:none" points="240.229,714.451 267.557,721.825 271.016,717.972 281.23,716.383 287.943,715.693 311.48,718.487 334.129,721.939 361.341,723.296 388.016,725.424 417.816,730.158 446.323,730.435 471.03,730.947 506.734,732.49 528.768,738.144 552.034,742.374 586.086,745.868 611.627,747.799 633.711,752.674 661.674,759.094 684.569,766.884 707.083,774.648 729.779,781.607 756.992,788.025 779.624,796.064 805.18,801.834 835.719,809.863 857.67,809.919 891.22,811.964 916.518,819.975 942.333,827.479 972.454,836.629 997.023,845.275 1022.17,852.335 1040.63,862.499 1058.57,874.2 1066.56,880.152 1086.8,883.004 1103.53,885.082 1124.68,886.423 1150.13,889.502 1176.59,899.164 1203.18,909.057 1225.18,914.22 1250.64,918.007 1282.51,920.126 1310.86,921.214 1342.56,925.308 1370.18,930.395 1395.85,933.945 1420.05,936.381 1451.75,936.549 1475.98,936.325 1503.18,935.336 1529.31,932.676 1557.98,927.329 1586.16,927.275 1612.92,925.463 1638.77,925.35 1659.37,919.144 1677.51,915.994 1694.14,909.683 1711.33,903.644 1731.99,903.119 1754.45,901.19 1776.31,903.209 1795.67,906.616 1816.47,912.651 1836.39,923.757 1857.63,936.144 1873.38,947.386 1889.23,963.419 1899.53,977.79 1906.43,992.22 1915.49,1011.86 1926.9,1029.72 1939.4,1048.65 1949.75,1059.28 1967.25,1065.93 1981.29,1070.18 1990.8,1069.77 2011.53,1062.21 2029.09,1056.98 2049.54,1038.19 2060.88,1022.99 2063.85,1001.69 2067.5,983.216 2067.05,961.277 2053.82,946.105 2035.27,938.751 2012.37,930.037 1983.05,933.229 1959.11,931.023 1939.12,926.847 1920.68,923.843 1898.92,921.128 1879.56,926.324 1857.77,932.681 1840.9,940.856 1818.09,944.081 1793.79,944.294 1767.33,940.407 1744.79,930.261 1722.4,919.438 1692.2,903.878 1667.19,885.641 1644.87,867.239 1629.38,852.328 1617.46,839.093 1601.33,825.566 1587.08,809.46 1575.63,794.23 1567.8,777.771 1567.21,761.867 1578.98,746.432 1592.59,734.415 1614.75,728.012 1632.76,726.456 1659.16,727.322 1680.15,738.397 1701.96,746.63 1716.74,752.423 1739.01,759.43 1761.54,770.733 1773.45,779.641 1790.73,790.598 1808.7,801.76 1829.87,809.236 1849.82,811.08 1870.68,811.328 1893.83,804.909 1914.32,801.085 1930.81,799.633 1949.67,806.261 1966.47,817.214 1981.23,832.49 1990.68,848.637 1999.81,868.453 2006.77,890.4 2011,910.172 2011.25,931.894 2012.13,942.851 2014.3,956.514 2022.9,974.851 2029.51,992.456 2041.08,1007.27 2052.55,1014.27 2065.43,1018.03 2081.49,1014.69 2100.52,1008.09 2114.36,1000.03 2131.88,986.996 2141.42,977.318 2145.11,958.512 2137.41,942.025 2119.88,924.341 2103.4,905.938 2080.55,895.317 2051.98,892.674 2025.62,887.964 2010.48,885.492 1985.76,882.22 1966.37,879.872 1947.89,869.101 1932.52,863.181 1910.87,856.092 1894.74,854.887 1872.73,856.961 1852.85,851.872 1832.79,846.947 1813.3,845.384 1789.08,841.979 1770.94,837.398 1754.13,833.349 1733.07,832.001 1705.76,833.522 1680.11,839.19 1664.15,838.126 1658.7,830.751 1653.76,827.523 1646.93,826.201 1637.04,825.239 1628.66,824.465 1615.14,828.691 1600.16,834.663 1575.82,838.784 1554.77,842.886 1540.06,848.458 1530.23,856.279 1536.96,857.292 1550.7,855.945 1583.2,852.898 1601.02,837.21 1618.04,821.632 1625.39,805.082 1618.28,788.542 1604.76,770.615 1593.86,759.196 1583.24,738.385 1565.56,727.89 1544.69,737.714 1522.32,739.718 1494.42,734.138 1489.83,717.114 1484.71,697.971 1485.19,677.209 1490.44,660.675 1505.17,638.788 1512.88,618.722 1516.2,596.039 1500,583.564 1477.73,575.662 1468.17,573.462 1477.58,559.86 1497.56,549.549 1532.51,548.34 1569.96,535.273 1595.63,517.912 1614.27,493.614 1628.38,472.688 1648.45,462.978 1675.47,466.115 1699.35,470.962 1717.95,488.619 1744.63,501.645 1764.07,518.808 1773.74,538.881 1763.48,555.101 1745.54,571.576 1719.48,584.791 1686.5,591.161 1660.28,590.667 1627.21,576.242 1602.21,561.001 1591.24,539.482 1589.76,517.106 1606.89,502.143 1622.12,493.261 1643.92,479.12 1668.76,470.803 1691.03,454.603 1713.08,442.053 1732.85,441.125 1755.63,427.803 1759.03,413.959 1769.8,396.71 1781.83,390.608 1799.37,373.176 1793.32,360.304 1772.46,349.337 1768.24,347.826 1778.72,342.98 1801.6,336.567 1830.21,340.983 1855.05,343.56 1881.27,349.374 1906.39,365.679 1910.84,383.441 1907.34,396.659 1885.46,408.652 1870.78,430.017 1855.68,457.353 1845.84,489.573 1847.39,509.77 1813.69,513.269 1789.81,528.61 1757.91,535.117 1727.89,551.705 1710.97,576.047 1691.4,593.518 1664.44,589.414 1642.3,578.424 1615.8,569.824 1600.69,557.292 1575.82,541.273 1566.64,533.992 1573.68,511.876 1597.53,502.837 1630.87,497.951 1659.44,501.165 1693.9,508.113 1721.78,521.807 1730.94,543.015 1743.95,564.385 1761.18,568.604 1787.11,573.555 1809.72,584.228 1818.91,587.389 1844.6,579.508 1869.1,571.908 1887.34,562.712 1907.52,563.789 1927.19,579.161 1926.55,596.957 1927.71,617.753 1914.38,649.663 1894.9,675.085 1871.02,694.209 1849.04,723.761 1845.39,748.49 1811.4,762.313 1783.39,766.479 1756.37,781.335 1729.81,795.041 1712.53,813.51 1696.11,834.964 1671.65,857.945 1645.28,866.876 1618.75,858.76 1594.34,852.409 1563.06,848.287 1534.4,840.541 1514.83,819.395 1502.42,799.159 1471.32,776.398 1454.31,757.232 1429.33,739.84 1406.12,737.39 1375.57,742.954 1358.87,740.686 1333.47,733.016 1327.52,707.936 1311.26,698.679 1287.75,702.543 1269.7,710.865 1245.85,727.83 1239.52,734.329 1209.88,738.233 1187.01,743.427 1160.78,737.558 1140.4,719.658 1117.3,706.949 1082.97,701.399 1050.59,692.445 1028.46,686.883 1008.93,677.066 988.757,656.636 988.043,642.983 997.44,623.184 1012.54,604.005 1024.11,581.096 1030.04,550.852 1036.54,526.335 1023.13,505.645 1004.76,499.763 993,489.921 997.082,476.591 1022.7,475.496 1058.18,478.219 1098.93,477.302 1131.43,472.546 1159.17,454.48 1184.16,430.919 1208.49,411.322 1237.99,403.243 1276.71,406.022 1308.78,418.058 1339.39,434.047 1369.25,446.182 1396.32,458.353 1418.37,472.279 1453.35,479.207 1478.16,493.634 1504.9,516.04 1535.28,543.024 1562.23,558.775 1585.94,569.617 1604.6,580.375 1613.97,571.701 1634.19,561.92 1660.99,548.324 1683.98,538.311 1712.78,526.579 1745.36,525.638 1779.24,533.436 1806.06,558.286 1815.21,579.205 1811.88,611.077 1794.06,643.923 1791.28,670.713 1783.11,703.149 1782.36,738.255 1798.66,768.911 1829.01,793.639 1869.91,792.15 1891,794.112 1921.32,801.224 1940.11,823.164 1964.69,848.4 1986.35,879.928 1998.39,912.483 2002.98,934.382 2019.38,918.665 2053.82,922.885 2081.47,928.32 2093.32,944.139 2094.45,948.644 2096.29,953.401 2100.91,969.969 2104.02,975.28 2116.18,979.27 2131.47,980.695 2159.44,975.012 2187.54,983.19 2201.09,996.384 2215.48,1018.24 2216.09,1030.82 2219.4,1019.9 2224.11,1003.77 2222.93,977.408 2212.88,950.656 2197.27,925.491 2186.37,902.723 2186.8,882.763 2160.9,861.206 2152.87,830.188 2158.53,805.251 2175.7,793.387 2196.9,795.371 2220.2,803.992 2235.76,815.585 2248.12,835.235 2273.3,858.012 2287.22,879.325 2279.38,907.366 2260.27,928.645 2242.46,947.871 2213.8,961.302 2194.95,980.487 2168.43,993.041 2141.17,1015.81 2121.74,1036.74 2110.51,1059.71 2091.39,1082.72 2074.7,1106.24 2048.74,1122.63 2021.95,1134.18 1992.19,1150.38 1967.45,1168.9 1939.08,1177.32 1910.74,1195.78 1896.29,1212.74 1864.89,1225.54 1844.87,1239.77 1827.2,1259.7 1808.62,1287.63 1801.49,1307.48 1797.2,1327.22 1790.02,1352.29 1812.34,1373.81 1821.79,1388.01 1814.84,1411.17 1807.28,1436.99 1788.39,1441.31 1765.14,1438.68 1743.08,1422.31 1731.2,1396.19 1717.74,1373.73 1694.23,1349.9 1656.18,1324.36 1625.44,1315.98 1590.44,1315.83 1553.95,1323.61 1513.12,1334.01 1487.01,1333.43 1452.32,1323.25 1426.88,1310.51 1406.79,1285.96 1405.58,1253.19 1400.66,1213.79 1380.8,1185.9 1358.67,1164.26 1364.02,1133.5 1362.16,1106.4 1355.23,1081.4 1341.9,1054.3 1324.41,1030.09 1318.11,1003.26 1324.65,970.131 1334.39,937.493 1351.55,907.274 1368.63,875.731 1382.43,843.808 1408.2,822.309 1403.65,795.323 1387.48,770.865 1358.27,748.067 1326.25,745.042 1305.03,732.31 1296.3,707.235 1293.2,674.902 1305.67,647.316 1319.84,625.193 1341.38,616.173 1372.47,604.681 1407.7,599.266 1446.98,595.397 1485.42,595.622 1514.95,589.269 1537.56,562.576 1555.43,540.329 1583.4,527.385 1606.52,522.854 1609.72,507.11 1595.23,493.373 1573.71,478.124 1549.02,466.663 1520.44,439.685 1497.94,414.18 1484.62,388.022 1467.71,367.674 1464.41,349.89 1470.72,329.231 1488.39,318.882 1505.96,328.605 1534.94,333.912 1574.44,336.465 1609.09,344.333 1648.22,349.536 1681.67,352.763 1712.52,367.694 1737.52,374.945 1762.28,367.26 1785.17,356.462 1815.03,351.458 1846.81,351.923 1878.14,345.838 1901.62,360.529 1912.96,376.244 1917.66,371.747 1927.13,355.43 1945.17,338.92 1963.09,327.101 1987,312.622 2005.8,304.323 1995.82,304.686 1973.65,292.707 1963.99,276.471 1952.25,248.176 1956.23,219.139 1966.88,202.666 1994.53,191.585 2028.08,194.22 2053.39,198.91 2086.43,203.406 2122.05,214.989 2144.71,237.566 2149.02,266.695 2142.16,293.77 2131.62,301.799 2135.38,317.669 2138.28,339.864 2134.23,370.998 2106.8,388.519 2087.37,423.298 2060.66,444.688 2038.43,470.67 2029.68,505.626 2004.74,513.23 1969.62,515.647 1935.16,527.64 1904.44,541.616 1888.87,568.42 1877.12,599.196 1874.46,615.195 1901.63,620.049 1931.08,633.561 1966.41,647.433 2000.73,671.121 2028.37,687.326 2066.58,691.828 2101.45,692.324 2140.57,688.816 2169.98,693.418 2194.74,692.366 2205.29,677.976 2219.09,657.943 2233.64,637.206 2232.76,612.725 2229.47,594.088 2220.35,570.308 2194.74,549.747 2173.64,530.947 2148.01,515.575 2106.85,517.027 2081.08,523.267 2057.78,541.511 2040.57,560.323 2015.99,584.211 2011.11,614.015 2016.17,645.301 2018.73,675.673 2037.11,702.05 2049.86,728.14 2063.22,761.441 2077.12,791.03 2107.87,804.096 2138.43,821.424 2164.93,850.653 2184.78,873.283 2198.38,904.752 2205.87,928.813 2202.63,940.379 2171.07,942.34 2134.77,955.098 2106.96,953.704 2092.01,960.339 2072.61,964.685 2049.79,960.494 2019.07,945.583 1989.55,938.126 1953.67,940.73 1910.96,953.964 1873.63,967.909 1835.36,968.487 1792.78,976.858 1755.53,977.526 1716.7,977.377 1685.65,972.124 1651.01,976.559 1619.14,971.398 1586.85,963.866 1552.1,933.464 1524.51,918.744 1486.82,910.83 1454.94,895.3 1424.7,879.779 1393.17,859.342 1368.13,851.2 1341.11,864.409 1317.09,880.561 1289.16,896.708 1251.51,914.112 1214.4,922.417 1185.42,919.002 1157.2,896.246 1139.78,871.309 1122.11,840.495 1097.13,816.169 1084.84,785.527 1082.28,756.586 1085.1,733.133 1070.99,703.721 1048.06,686.966 1019.92,675.89 1000,654.701 991.627,623.212 990.572,599.838 979.148,572.56 986.914,545.88 1008.51,517.86 1019.73,502.54 1032.58,494.887 1042.09,481.079 1047.42,464.761 1053.42,441.004 1060.33,416.963 1065.88,389.504 1076.97,356.776 1078.36,332.862 1056.55,313.75 1037.89,299.605 1010.99,299.016 984.437,308.367 956.038,304.981 924.008,290.926 887.494,276.603 864.824,269.792 842.042,265.417 827.592,247.452 825.528,226.255 839.921,209.119 862.169,190.988 884.837,173.287 928.317,162.499 958.6,149.004 992.15,143.02 1021.24,153.992 1049.13,161.088 1082.93,156.412 1116.81,150.578 1135.79,129.844 1151.68,111.051 1164.74,90.2146 "/>
<polyline clip-path="url(#clip862)" style="stroke:#ff0000; stroke-linecap:round; stroke-linejoin:round; stroke-width:4; stroke-opacity:1; fill:none" points="239.425,716.06 269.837,722.434 272.451,713.572 293.601,714.871 296.982,715.57 324.014,721.245 340.903,724.788 369.682,724.543 394.213,726.553 424.64,732.927 450.919,729.029 472.069,730.316 514.385,732.915 526.175,741.667 550.721,743.665 593.051,746.263 610.835,746.852 630.282,754.071 664.131,761.156 683.592,768.376 706.447,776.307 730.155,781.271 760.638,787.657 779.261,797.844 807.23,800.565 840.284,810.641 856.392,804.585 897.941,810.15 915.739,823.315 942.87,829.003 975.967,839.078 995.485,846.31 1022.64,851.998 1037.08,864.464 1054.93,877.641 1058.33,878.352 1090.59,878.818 1104.16,881.674 1128.8,883.684 1155.98,889.384 1180.66,904.007 1207.02,912.673 1224.86,913.274 1252.9,916.008 1288.6,917.184 1313.24,919.207 1347.26,926.341 1371.1,931.342 1395.75,933.352 1420.4,935.375 1456.94,933.597 1474.79,934.186 1503.69,933.953 1530.01,930.018 1560.55,923.84 1587.79,929.54 1614.1,925.618 1638.77,927.64 1656.5,915.628 1674.36,916.216 1691.25,907.182 1710.73,901.825 1734.58,906.827 1757.47,902.181 1777.92,906.459 1794.95,910.026 1818.01,917.993 1836.03,931.195 1858.28,942.141 1870.31,950.954 1886.73,970.125 1894.54,981.206 1901.55,995.266 1913.76,1016.73 1927.61,1032.23 1940.65,1050.73 1950.1,1055.87 1974.02,1060.89 1984.27,1063.04 1991.93,1061.48 2019.89,1051.58 2030.94,1050.73 2052.64,1023.76 2058.48,1015.53 2057.26,993.231 2061.26,978.338 2060.06,956.066 2041.18,945.83 2024.1,942.251 2001.83,931.305 1974.72,938.206 1954.25,933.928 1938,927.383 1920.95,923.816 1896.26,921.793 1878.58,933.818 1855.68,938.451 1843.02,945.242 1814.93,942.496 1790.24,940.486 1762.97,934.774 1744.95,921.573 1721.91,913.605 1686.88,896.837 1666.32,879.97 1645.76,863.103 1634.6,851.361 1623.45,839.605 1602.08,825.73 1589.18,807.356 1578.86,792.671 1572.76,775.731 1576.87,760.936 1595.38,746.018 1605.45,735.599 1628.29,730.99 1641.87,733.822 1670.69,733.589 1684.41,748.96 1704.81,753.226 1715.01,755.346 1742.21,761.034 1763.58,774.873 1768.76,782.215 1790.95,793.112 1809.74,803.31 1833.56,808.287 1852.2,805.909 1873.44,807.208 1897.9,796.655 1915.72,797.255 1929.35,800.099 1950.77,813.962 1965.38,826.416 1979.2,841.836 1986.21,855.835 1995.03,876.501 2003.85,897.18 2006.65,913.47 2004.43,934.995 2007.04,938.684 2013.27,955.71 2028.93,977.86 2031.75,994.187 2046.41,1006.7 2056.66,1008.86 2070.33,1011.72 2090.63,1003.37 2106.69,997.288 2115.92,989.774 2133.59,977.737 2138.61,972.503 2138.15,947.252 2123.48,934.75 2106.19,918.569 2095.75,903.836 2072.67,895.868 2044.57,893.135 2020.7,888.146 2010.47,886.001 1982.39,883.28 1965.34,879.713 1948.11,863.557 1934.47,860.713 1907.21,855.013 1895.38,858.813 1869.1,862.736 1851.09,849.559 1830.65,845.293 1812,847.659 1784.77,841.971 1771.96,836.161 1754.94,832.594 1729.48,833.55 1699.81,836.762 1676.12,844.349 1667.55,836.284 1667.41,823.707 1659.8,825.252 1648.77,826.085 1634.34,826.208 1627.54,824.786 1610.65,833.795 1597.99,840.562 1565.73,840.096 1550.48,843.172 1541.2,850.65 1534.51,861.816 1549.77,858.727 1568.42,856.349 1598.93,850.172 1608.06,830.118 1622.37,817.431 1626.46,802.612 1616.96,784.961 1600.66,765.9 1592.1,757.847 1580.85,733.601 1561.29,726.381 1539.38,740.588 1518.19,739.289 1487.62,732.902 1489.17,714.455 1483.93,694.609 1486.3,673.232 1490.41,658.474 1507.98,634.057 1512.91,616.369 1516.09,592.098 1497.41,581.974 1474.51,574.092 1467.73,572.682 1479.44,556.441 1503.87,545.961 1542.76,547.836 1579.78,530.663 1598.23,515.843 1615.73,491.524 1628.21,472.39 1648.38,464.165 1676.27,466.862 1699.97,471.777 1719.61,491.377 1748.46,503.586 1765.56,519.57 1774.26,540.028 1762.62,556.257 1743.39,574.031 1714.78,586.754 1681.02,592.184 1659.85,590.897 1621.61,573.589 1600.35,559.824 1591.7,539.354 1590.65,517.376 1609.09,502.568 1622.49,492.934 1648.5,476.607 1672.07,469.093 1694.68,452.067 1715.65,440.925 1733.38,441.501 1759.34,425.198 1759.2,412.781 1771.62,393.684 1783.38,389.933 1803.36,369.328 1792.26,357.744 1766.81,346.283 1782.77,340.326 1813.02,334.234 1839.26,342.753 1860.35,344.04 1887.4,349.642 1910.45,369.879 1909.83,385.213 1906.62,396.92 1881.5,410.28 1867.5,435.249 1852.68,463.172 1843.82,495.459 1847.38,508.624 1806.87,512.62 1787.67,530.381 1753.93,535.799 1723.72,554.382 1709.63,579.461 1691.19,594.305 1664.06,588.654 1641.96,577.831 1612.27,568.527 1601.16,556.882 1570.56,538.067 1567.99,534.426 1575.35,507.974 1602.31,501.159 1639.43,496.452 1663.12,501.379 1700.38,509.126 1725.05,523.578 1730.35,543.325 1745.82,565.205 1759.39,568.024 1789.91,574.374 1812.03,585.21 1818.82,586.619 1850,577.549 1873.58,570.01 1890.35,561.062 1910.71,565.291 1931.25,581.998 1926.43,599.674 1927.6,621.713 1910.35,658.645 1890.32,679.422 1867.68,696.558 1844.4,729.188 1846.35,748.347 1806.67,761.965 1783.83,766.586 1754.34,782.338 1729.04,795.846 1713.14,814.465 1696.4,836.051 1667.82,861.449 1644.94,866.082 1618.53,857.416 1594.71,852.427 1559.85,848.284 1533.47,839.618 1514.6,816.855 1501.73,798.481 1465.89,772.188 1455.6,757.516 1428.36,739.301 1407.15,738.002 1373.3,743.444 1359.72,740.6 1330.01,731.272 1327.31,702.54 1310.35,698.998 1284.11,702.908 1267.22,711.893 1240.2,731.284 1239.37,734.238 1202.11,738.97 1182.63,744.302 1156.34,735.66 1136.81,715.926 1114.75,705.053 1076.64,700.223 1046.99,690.895 1030.06,687.353 1008.04,676.493 986.01,653.142 988.553,644.292 998.681,621.419 1015.57,599.968 1025.68,577.132 1031.55,544.073 1037.43,523.505 1021.37,504.591 1004.48,501.073 993.496,489.453 997.701,474.78 1029.77,475.234 1067.76,480.039 1108.26,476.043 1134.41,472.157 1161.35,452.913 1186.57,427.122 1209.27,410.121 1239.59,404.029 1281.77,406.591 1310.5,418.763 1341.8,434.575 1370.56,446.759 1395.96,458.245 1417.15,471.973 1457.73,480.407 1478.94,494.147 1507.86,518.81 1539.37,547.137 1561.44,557.949 1583.53,568.772 1602.22,578.897 1611.46,571.469 1635.86,560.989 1665.29,545.335 1685.48,537.098 1717.45,525.098 1749.57,525.564 1786.05,536.253 1810.91,563.195 1813.65,579.314 1810.74,616.075 1790.85,649.342 1791.97,671.406 1782.24,706.855 1783.52,741.495 1800.84,770.141 1833.41,795.723 1870.67,790.979 1884.29,793.823 1921.73,801.631 1940.74,824.394 1969.18,852.28 1989.2,884.701 1999.02,915.015 2001.83,931.305 2016.08,918.582 2057.83,924.171 2081.72,929.16 2092.17,943.918 2094.79,947.608 2096.61,954.276 2102.05,974.281 2104.66,977.982 2121.75,981.549 2139.62,982.15 2170.95,972.969 2195.9,987.629 2203.77,998.722 2218.71,1023.89 2216.31,1032.84 2220.3,1017.92 2225.87,997.043 2222.76,968.09 2211.25,943.673 2195.53,921.548 2186.65,900.857 2188.01,882.311 2155.26,856.656 2153,824.847 2158.57,804.095 2175.39,795.086 2196.62,796.397 2223.1,805.039 2237.77,817.493 2250.06,838.845 2279.43,863.778 2289.12,881.478 2277.8,910.479 2257.8,931.415 2241.99,950.108 2209.89,962.256 2194.06,980.961 2165.37,993.832 2136.88,1019.35 2121.02,1038.08 2111.19,1061.25 2090.3,1085.26 2073.61,1107.02 2047.46,1123.65 2022.9,1134.3 1989.06,1152.49 1966.29,1169.86 1939.09,1176.81 1907.83,1198.74 1896.92,1212.3 1860.41,1226.81 1846.06,1239.66 1825.84,1260.79 1806.57,1291.67 1802.5,1306.7 1796.77,1327.76 1789.41,1354.84 1816.2,1376.42 1820.62,1386.91 1813.26,1414.04 1805.89,1441.2 1787.91,1440.59 1763.04,1438.54 1739.67,1417.65 1729.09,1389.9 1716.03,1371.22 1690.1,1346.64 1647.05,1318.46 1625.66,1317.14 1589.75,1315.94 1551.36,1323.75 1508.7,1333.86 1490.75,1333.25 1450.48,1321.58 1428.17,1310.5 1406.64,1283.69 1405.55,1248.5 1399.28,1205.9 1379.52,1185.88 1359.78,1165.87 1365.55,1132.23 1361.98,1106.16 1354.17,1082.38 1341.2,1051.21 1322.35,1028.3 1318.8,1002.3 1325.4,965.847 1334.57,933.119 1353.09,905.539 1369.04,874.295 1381.57,842.363 1408.59,822.911 1401.63,796.36 1387.04,771.367 1354.67,745.81 1325.86,746.055 1307.99,732.927 1297.68,705.739 1293.26,670.425 1307.52,645.297 1320.09,626.077 1340.35,617.815 1376.64,603.547 1413.81,598.828 1454.38,594.82 1489.91,595.996 1513.52,588.446 1539.48,559.603 1555.38,541.131 1583.99,528.432 1603.38,523.137 1607.45,508.44 1593.79,493.179 1569.98,475.81 1544.55,464.312 1513.9,433.116 1495.15,410.624 1484,386.623 1467.83,367.783 1465.18,351.762 1471.73,328.375 1488.5,319.5 1507.12,329.539 1541.7,333.621 1583.84,336.171 1613.43,345.401 1654.78,350.88 1682.62,353.564 1713.99,369.352 1734.27,373.556 1761.18,366.766 1785.49,356.347 1819.15,350.953 1851.18,351.407 1881.43,345.315 1901.9,361.924 1912.23,376.425 1917.21,371.276 1929.59,352.204 1948.71,334.54 1965.44,325.653 1991.31,309.4 2007.22,303.43 1996.28,304.252 1968.25,289.199 1962.1,272.516 1949.81,239.163 1957,212.932 1966.93,202.684 1998.72,190.794 2033.27,194.852 2053.52,199.044 2091.46,203.8 2127.03,217.296 2145.94,239.666 2148.98,268.018 2141.86,294.274 2133.52,298.723 2135.54,317.649 2139.36,343.133 2133.24,378.938 2101.39,390.889 2083.51,430.506 2057.61,446.808 2036.08,473.334 2029.9,509.286 2007.95,510.928 1967.46,514.936 1931.33,529.168 1902.77,541.879 1887.95,569.888 1875.69,601.574 1876.67,611.11 1903.02,619.715 1934.57,635.625 1973.73,650.016 2006.32,675.512 2028.52,686.372 2070.13,691.913 2102.33,692.379 2142.94,688.358 2166.75,693.322 2192.16,692.366 2202.93,679.018 2219.48,657.53 2236,636.042 2232.13,610.338 2229.28,594.195 2218.61,567.105 2188.61,545.335 2171.41,529.351 2146.63,514.887 2099.35,517.486 2083.38,523.492 2056.65,542.786 2040.89,561.258 2011.73,589.402 2011.33,617.337 2016.92,649.648 2019.91,678.343 2038.12,703.974 2049.53,728.208 2064.56,765.728 2078.61,793.676 2108.47,803.041 2139.36,822.003 2167.09,852.856 2183.57,871.978 2199.5,906.679 2204.97,926.659 2202.59,935.583 2168.67,941.062 2128.14,957.733 2107.64,953.442 2095,960.233 2072.1,964.879 2048.21,959.878 2013.07,943.085 1985.77,937.373 1948.42,942.141 1901.01,957.377 1868.86,969.525 1833.11,968.336 1787.3,977.627 1754.97,977.149 1715,978.228 1687.71,972.515 1650.34,977.271 1619.65,970.848 1585.56,963.702 1545.28,926.929 1525.66,919.673 1484.81,911.117 1453.26,895.071 1425.12,879.749 1391.85,857.073 1371.44,852.807 1342.66,865.629 1316.44,882.127 1286.79,897.94 1245.27,917.552 1211.31,923.019 1187.5,918.03 1155.15,892.362 1139.79,870.274 1120.19,837.877 1094.68,813.693 1085.29,783.478 1081.84,757.675 1084.34,736.261 1069.02,701.756 1047.83,687.941 1019.04,675.671 1000.4,653.019 991.919,620.009 990.201,600.924 977.516,570.194 988.482,544.428 1011.25,514.924 1018,503.88 1030.64,497.187 1042.45,480.983 1047.47,463.381 1055.03,437.002 1061.74,413.565 1066.74,383.583 1080.14,349.2 1077.59,333.18 1054.82,312.979 1037.12,300.023 1008.5,300.268 980.726,309.964 953.794,304.374 919.291,287.924 880.597,273.705 867.145,270.911 843.594,266.02 827.642,247.253 826.846,225.471 842.841,207.183 866.392,187.387 889.091,170.52 938.652,159.219 959.646,148.175 993.226,142.806 1021.79,154.892 1048.68,160.457 1085.63,155.787 1119.21,150.43 1135.94,129.273 1151.84,111.034 1165.19,89.2151 "/>
<polyline clip-path="url(#clip862)" style="stroke:#3da44d; stroke-linecap:round; stroke-linejoin:round; stroke-width:4; stroke-opacity:1; fill:none" points="258.976,714.282 268.943,713.061 282.175,714.816 294.794,716.733 309.56,718.729 328.959,721.188 348.993,724.204 371.499,726.876 397.358,729.988 422.468,730.407 448.699,731.207 476.354,733.455 504.064,736.653 531.132,739.475 556.889,743.376 583.999,746.442 609.935,748.703 636.223,754.077 661.171,760.171 686.568,767.487 710.971,776.38 734.896,784.025 759.902,790.273 786.485,794.545 811.649,799.361 837.741,806.804 863.766,811.005 891.9,813.764 918.821,821.573 944.476,831.137 968.478,839.042 991.819,847.44 1013.65,855.958 1033.29,863.146 1052.16,869.799 1069.85,876.064 1090.59,881.506 1111.8,885.602 1135.73,889.366 1159.15,894.648 1182.09,900.788 1205.74,908.009 1231.88,911.992 1259.55,914.504 1287.17,918.566 1315.07,921.222 1342.04,924.966 1369.81,927.86 1395.76,930.042 1423.24,933.891 1451.39,933.908 1477.58,932.485 1504.58,932.355 1531.7,930.54 1557.72,929.187 1583.06,928.06 1606.8,924.202 1631.04,920.877 1654.34,917.491 1675.77,915.342 1696.59,911.661 1716.38,909.634 1737.15,908.412 1757.18,907.639 1778.42,910.965 1797.74,914.793 1817.16,921.291 1833.51,929.636 1848.17,940.87 1864.55,953.454 1880.31,968.448 1893.23,982.121 1905.65,995.104 1917.82,1009.08 1929.39,1023.01 1941.58,1035.61 1955.4,1043.95 1969.2,1052.31 1984.86,1055.68 1999.46,1053.02 2014.04,1047.17 2027.18,1038.71 2041.04,1028.53 2052.16,1015.39 2054.65,999.74 2049.95,983.689 2042.02,969.632 2029.94,957.948 2014.05,946.779 1999.33,936.548 1980.88,932.644 1960.8,930.661 1940.56,929.983 1919.44,928.703 1898.45,930.741 1879.42,932.76 1856.52,935.506 1834.87,935.296 1812.65,935.527 1787.71,934.943 1764.67,929.249 1742.63,919.972 1718.91,910.603 1696.66,896.597 1674.15,882.358 1653.51,868.757 1635.39,854.566 1619.72,840.451 1606.49,826.739 1598.28,810.625 1592.09,796.618 1589.05,781.68 1590.81,767.791 1600.18,757.696 1610.39,750.208 1626.55,742.695 1644.59,741.263 1663.36,742.189 1683.34,744.887 1702.47,750.716 1721.28,757.815 1741.4,762.57 1758.88,770.974 1777.29,781.52 1793.45,790.814 1812.5,798.245 1832.43,803.285 1853.8,807.566 1871.53,806.799 1891.4,808.655 1910.82,810.775 1927.28,813.84 1942.23,821.655 1958.69,830.088 1971.84,843.193 1980.61,857.884 1990.51,874.954 2001.31,891.93 2008.74,908.734 2010.75,925.762 2013.5,940.736 2019.99,955.189 2026.35,969.216 2033.96,980.466 2044.28,991.6 2055.67,998.28 2071,999.465 2086.37,996.084 2099.42,990.27 2112.17,984.344 2122.91,976.939 2128.25,965.966 2130.08,954.441 2120.32,941.375 2103.4,929.64 2087.22,917.271 2068.91,906.511 2050.53,896.717 2029.8,889.238 2007.86,884.239 1985.63,880.117 1966.78,875.209 1947.4,871.148 1928.51,865.676 1909,858.951 1889.05,857.763 1869.5,854.717 1849.13,850.603 1828.53,847.019 1809.08,846.09 1788.88,844.853 1767.72,840.342 1747.9,838.58 1728.32,837.289 1708.52,836.094 1689.46,835.211 1678.46,834.092 1667.46,832.744 1656.04,831.496 1645.49,831.033 1633.2,829.908 1619.01,833.553 1603.58,838.548 1587.75,843.807 1571.52,845.406 1554.63,842.6 1543.92,853.228 1538.23,864.595 1554.4,854.304 1571,855.696 1595.01,857.113 1612.96,844.083 1627.28,826.667 1622.17,806.041 1613.41,785.238 1607.8,766.457 1601.29,745.237 1585.79,728.495 1560.28,736.094 1538.95,746.103 1514.42,742.953 1491.67,736.196 1486.34,715.266 1479.98,693.467 1481.95,671.634 1495.59,655.172 1510.81,639.345 1515.67,620.172 1515.29,598.525 1495.49,587.218 1469.41,583.663 1465.69,571.217 1490.99,559.394 1515.27,549.236 1545.65,546.138 1573.56,532.455 1594.1,516.093 1603.74,492.858 1622.62,472.551 1649.52,465.284 1677.44,465.195 1701.69,474.56 1724.9,491.105 1744.71,502.589 1766.41,516.536 1775.67,538.011 1764.2,558.683 1744.33,574.184 1714.86,581.938 1683.23,585.703 1656.29,578.105 1627.28,576.654 1600.52,563.609 1589.17,544.369 1590.01,521.266 1598.9,502.107 1619.27,491.332 1638.92,477.871 1666.42,470.141 1684.3,452.669 1709.7,444.92 1732.94,445.116 1752.94,438.285 1759.42,419.888 1766.11,400.847 1782.78,390.451 1791.31,375.973 1781.47,364.077 1766.52,355.792 1767.31,347.799 1786.84,343.753 1807.19,332.173 1833.48,337.955 1859.69,339.313 1884.06,350.457 1909.05,359.847 1921.59,379.615 1899.22,395.847 1880,409.491 1864.11,431.435 1863.28,460.54 1855.32,486.807 1837.87,508.69 1808.92,514.444 1780.28,525.646 1755.74,540.178 1727.4,556.136 1712.06,581.104 1688.94,599.085 1664,588.013 1645.09,576.232 1619.26,563.844 1595.08,560.315 1573.51,546.118 1567.45,527.151 1581.1,507.435 1609.13,499.212 1634,493.538 1662.11,499.114 1689.83,508.356 1713.28,524.072 1727.7,539.712 1740.04,558.856 1757.39,565.331 1780.2,569.828 1800.47,579.373 1826.64,578.893 1846.39,575.992 1866.53,565.553 1891.06,556.779 1917.29,557.045 1933.24,577.47 1933.63,603.329 1921.2,627.86 1906.38,654.508 1887.7,678.864 1865.21,703.186 1847.55,726.928 1844.82,754.705 1813.51,761.847 1779.94,762.504 1752.81,774.491 1728.42,792.22 1707.96,814.376 1694.56,837.808 1673.5,856.366 1647.35,865.066 1618.91,861.314 1590.77,852.816 1561.17,848.852 1530.86,837.892 1512.25,816.137 1495.78,795.992 1469.81,779.546 1450.87,761.205 1430.96,742.558 1405.48,730.921 1379.37,740.68 1353.47,740.725 1332.52,726.167 1334.79,705.85 1311.82,699.927 1286.09,702.172 1269,714.926 1247.17,725.298 1231.36,742.326 1206.61,736.102 1183.25,738.359 1158.1,730.494 1136.89,713.354 1112.47,701.165 1083.17,702.779 1052.1,698.148 1033.5,683.3 1010.84,671.092 990.66,658.518 977.695,638.942 1000.93,627.616 1017.97,606.838 1027.02,580.701 1035.25,556.384 1030.18,532.331 1020.85,511.631 1002.61,499.623 981.875,491.186 1004.53,475.061 1033.2,479.458 1068.83,476.119 1105.75,478.289 1136.39,463.771 1166.47,453.698 1188.69,432.578 1211.59,408.647 1246.56,402.633 1280.9,406.814 1304.04,422.727 1339.23,431.355 1363.74,451.799 1390.82,457.091 1417.29,471.919 1449.06,482.785 1481.95,490.694 1508.2,511.837 1529.82,533.819 1548.66,557.748 1576.32,568.617 1593.96,569.999 1611.35,566.355 1639.95,561.102 1663.58,547.627 1684.41,529.257 1716.98,526.435 1749.77,532.788 1781.06,544.789 1814.91,553.188 1815.28,579.289 1811.39,610.294 1801.6,640.947 1793.83,671.032 1785.4,701.408 1774.74,732.192 1801.29,757.635 1819.56,787.804 1857.64,780.034 1886.87,796.081 1922.9,801.604 1949.41,824.319 1966.68,851.848 1987.21,877.084 1987.24,904.254 1998.84,923.949 2022.6,915.558 2049.22,918.705 2069.83,927.406 2082.75,931.486 2095.28,939.973 2093.02,956.141 2095.59,965.827 2105.21,974.74 2123.83,975.103 2144.66,975.524 2165.95,973.397 2186.33,984.312 2206.88,997.969 2217.39,1016.25 2223.87,1033.59 2221.83,1011.49 2227.65,990.667 2222.92,966.411 2209.6,943.672 2199.89,921.276 2190.2,896.88 2187.05,872.915 2161.28,855.787 2148.81,827.416 2148,802.055 2172.65,791.081 2199.32,789.351 2224.8,804.169 2236.98,825.25 2259.24,841.016 2274.61,860.403 2291.2,880.649 2280.88,907.724 2262.07,928.936 2240.86,948.787 2215.73,964.357 2190.49,978.488 2160.33,990.966 2136.67,1010.97 2123.97,1038.31 2108.78,1062.47 2095.51,1085.72 2077.45,1108.08 2050.99,1125.08 2019.73,1132.29 1986.6,1142.42 1967.11,1164.04 1937.15,1176.56 1912.53,1192.22 1890.01,1208.42 1869.2,1225.1 1847.29,1235.46 1830.02,1256.31 1807.81,1275.21 1797.06,1296.82 1794.21,1324.22 1788.6,1348.48 1808.39,1366.26 1818,1388.38 1819.7,1410.07 1810.06,1432.02 1790.73,1445.72 1760.57,1437.64 1737.93,1416.58 1727.67,1389.38 1703.35,1367.65 1693.82,1340.79 1665.84,1318.69 1628.7,1311.69 1591.25,1315.37 1553.45,1324.28 1517.49,1328.79 1485.75,1335.71 1450.58,1325.42 1421.51,1309.22 1411.63,1279.63 1404.17,1248.79 1398.35,1217.44 1379.06,1192.08 1360.99,1165.67 1364.87,1134.52 1364.24,1107.8 1350.39,1081.98 1333.27,1056.96 1315.78,1029.66 1319.32,998.637 1325.53,968.48 1331.73,935.236 1350.14,905 1371.77,876.838 1385.44,847.383 1407.39,822.871 1406.23,793.532 1387.01,768.577 1359.48,750.568 1328.57,745.017 1302.12,729.316 1293.87,702.367 1288.73,674.211 1297.92,648.846 1318.79,627.204 1351.02,616.917 1380.93,602.478 1413.59,601.915 1446.32,594.85 1481.64,599.435 1508.97,585.429 1530.9,565.822 1549.79,545.767 1582.65,539.926 1606.8,526.721 1610.93,501.793 1591.98,487.32 1568.98,472.098 1540.59,459.815 1521.83,438.042 1504.03,414.187 1485.71,393.292 1465.43,373.738 1458.62,351.058 1467.11,328.137 1494.32,320.827 1519.02,328.159 1548.82,334.086 1579.95,338.721 1612.86,339.995 1643.76,348.15 1670.75,356.211 1699.88,369.874 1731.69,374.801 1755.8,367.246 1785.76,358.592 1817.65,352.351 1847.51,345.004 1874.14,351.391 1888.33,369.831 1910.9,376.214 1915.3,361.007 1923.77,346.117 1943.77,331.896 1967.03,326.916 1988.02,319.991 2001.16,310.574 1988.55,299.809 1970.45,283.557 1959.05,263.936 1949.42,240.507 1944.68,213.575 1968.29,196.053 1999.36,187.323 2030.7,194.789 2061.8,202.525 2093.23,201.266 2121.9,217.839 2139.73,240.923 2151.42,267.151 2136.38,284.531 2131.38,301.545 2131.85,324.892 2140.21,348.404 2131.02,375.037 2104.73,395.504 2084.57,423.455 2060.32,445.087 2044.55,469.974 2025.04,490.582 1999.32,510.082 1968.53,520.416 1934.24,527.713 1903.74,542.591 1880.85,560.688 1869.21,587.026 1878.38,612.643 1911.36,621.086 1943.46,635.017 1973.03,652.632 1995.95,677.197 2030.43,687.392 2066.07,688.997 2101.56,681.554 2132.15,690.925 2156.75,693.005 2184.21,689.908 2205.29,678.288 2222.55,660.502 2224.24,637.014 2223.21,614.04 2221.68,590.984 2217.91,565.717 2199.37,543.012 2174.97,525.142 2145.74,512.056 2111.02,512.814 2082.82,527.778 2057.29,544.11 2044.19,566.926 2019.23,588.942 2010.78,618.963 2019.15,647.786 2023.98,674.596 2040.76,699.205 2052.23,728.65 2055.87,761.449 2074.07,790.39 2106.58,807.011 2135.1,824.78 2160.04,848.68 2182.31,871.868 2199.53,896.301 2214.6,919.168 2205.58,942.041 2172.16,941.909 2140.76,950.052 2112.12,949.763 2096.09,964.229 2069.65,960.577 2045.9,954.017 2014.21,951.282 1981.99,944.109 1946.22,947.404 1906.4,956.487 1871.55,971.02 1832.09,974.721 1795.89,974.929 1757.33,976.931 1720.74,979.924 1685.36,974.376 1647.12,972.787 1613.47,970.208 1580.33,960.975 1554.71,939.107 1526.38,922.639 1490.03,910.835 1463.4,891.193 1429.6,876.41 1401.57,854.634 1368.59,844.745 1342.62,867.873 1313.38,885.168 1280.83,897.927 1247.76,912.529 1215.83,924.301 1181,919.482 1161.98,894.78 1138.44,869.47 1119.67,841.888 1095.24,820.705 1084.72,790.499 1085.33,759.519 1084.29,729.793 1069.83,704.16 1044.4,688.264 1014.44,679.492 997.717,655.29 993.439,628.036 986.175,601.389 976.246,574.388 981.845,548.149 992.538,520.46 1016.15,507.553 1037.21,500.184 1045.61,479.055 1053.85,456.667 1051.92,434.432 1058.52,407.526 1065.63,380.62 1080.98,357.296 1076.19,331.787 1062.73,308.393 1036.57,300.216 1008.12,300.95 982.249,310.174 951.081,305.517 925.789,290.614 895.822,278.074 870.16,275.088 839.577,269.521 825.727,247.864 827.775,223.133 843.996,202.061 864.823,181.125 893.043,166.377 926.353,155.901 957.45,141.414 992.167,143.938 1021.74,159.25 1052.54,162.579 1087.25,159.768 1121.13,156.646 1140.68,132.199 1154.42,111.286 1164.21,87.9763 "/>
<path clip-path="url(#clip860)" d="M250.367 1438.47 L793.155 1438.47 L793.155 1231.11 L250.367 1231.11  Z" fill="#ffffff" fill-rule="evenodd" fill-opacity="1"/>
<polyline clip-path="url(#clip860)" style="stroke:#000000; stroke-linecap:round; stroke-linejoin:round; stroke-width:4; stroke-opacity:1; fill:none" points="250.367,1438.47 793.155,1438.47 793.155,1231.11 250.367,1231.11 250.367,1438.47 "/>
<polyline clip-path="url(#clip860)" style="stroke:#0000ff; stroke-linecap:round; stroke-linejoin:round; stroke-width:4; stroke-opacity:1; fill:none" points="274.533,1282.95 419.525,1282.95 "/>
<path clip-path="url(#clip860)" d="M467.718 1286.21 L467.718 1288.29 L448.135 1288.29 Q448.413 1292.69 450.774 1295 Q453.158 1297.29 457.394 1297.29 Q459.848 1297.29 462.139 1296.69 Q464.454 1296.09 466.723 1294.89 L466.723 1298.91 Q464.431 1299.89 462.024 1300.4 Q459.616 1300.91 457.14 1300.91 Q450.936 1300.91 447.302 1297.29 Q443.691 1293.68 443.691 1287.53 Q443.691 1281.16 447.116 1277.43 Q450.565 1273.68 456.399 1273.68 Q461.63 1273.68 464.663 1277.06 Q467.718 1280.42 467.718 1286.21 M463.459 1284.96 Q463.413 1281.46 461.491 1279.38 Q459.593 1277.29 456.445 1277.29 Q452.88 1277.29 450.728 1279.31 Q448.598 1281.32 448.274 1284.98 L463.459 1284.96 Z" fill="#000000" fill-rule="nonzero" fill-opacity="1" /><path clip-path="url(#clip860)" d="M491.237 1275.07 L491.237 1279.1 Q489.431 1278.17 487.487 1277.71 Q485.542 1277.25 483.459 1277.25 Q480.288 1277.25 478.69 1278.22 Q477.116 1279.19 477.116 1281.14 Q477.116 1282.62 478.251 1283.48 Q479.385 1284.31 482.811 1285.07 L484.269 1285.4 Q488.806 1286.37 490.704 1288.15 Q492.625 1289.91 492.625 1293.08 Q492.625 1296.69 489.755 1298.8 Q486.908 1300.91 481.908 1300.91 Q479.825 1300.91 477.556 1300.49 Q475.311 1300.1 472.811 1299.29 L472.811 1294.89 Q475.172 1296.11 477.463 1296.74 Q479.755 1297.34 482 1297.34 Q485.01 1297.34 486.63 1296.32 Q488.25 1295.28 488.25 1293.41 Q488.25 1291.67 487.07 1290.74 Q485.912 1289.82 481.954 1288.96 L480.473 1288.61 Q476.514 1287.78 474.755 1286.07 Q472.996 1284.33 472.996 1281.32 Q472.996 1277.67 475.588 1275.67 Q478.181 1273.68 482.95 1273.68 Q485.311 1273.68 487.394 1274.03 Q489.477 1274.38 491.237 1275.07 Z" fill="#000000" fill-rule="nonzero" fill-opacity="1" /><path clip-path="url(#clip860)" d="M503.621 1266.95 L503.621 1274.31 L512.394 1274.31 L512.394 1277.62 L503.621 1277.62 L503.621 1291.69 Q503.621 1294.86 504.477 1295.77 Q505.357 1296.67 508.019 1296.67 L512.394 1296.67 L512.394 1300.23 L508.019 1300.23 Q503.088 1300.23 501.213 1298.41 Q499.338 1296.55 499.338 1291.69 L499.338 1277.62 L496.213 1277.62 L496.213 1274.31 L499.338 1274.31 L499.338 1266.95 L503.621 1266.95 Z" fill="#000000" fill-rule="nonzero" fill-opacity="1" /><path clip-path="url(#clip860)" d="M517.996 1274.31 L522.255 1274.31 L522.255 1300.23 L517.996 1300.23 L517.996 1274.31 M517.996 1264.22 L522.255 1264.22 L522.255 1269.61 L517.996 1269.61 L517.996 1264.22 Z" fill="#000000" fill-rule="nonzero" fill-opacity="1" /><path clip-path="url(#clip860)" d="M551.352 1279.29 Q552.949 1276.42 555.171 1275.05 Q557.394 1273.68 560.403 1273.68 Q564.454 1273.68 566.653 1276.53 Q568.852 1279.35 568.852 1284.59 L568.852 1300.23 L564.569 1300.23 L564.569 1284.73 Q564.569 1281 563.25 1279.19 Q561.931 1277.39 559.222 1277.39 Q555.912 1277.39 553.991 1279.59 Q552.07 1281.79 552.07 1285.58 L552.07 1300.23 L547.787 1300.23 L547.787 1284.73 Q547.787 1280.98 546.468 1279.19 Q545.148 1277.39 542.394 1277.39 Q539.13 1277.39 537.209 1279.61 Q535.287 1281.81 535.287 1285.58 L535.287 1300.23 L531.005 1300.23 L531.005 1274.31 L535.287 1274.31 L535.287 1278.34 Q536.746 1275.95 538.783 1274.82 Q540.82 1273.68 543.621 1273.68 Q546.445 1273.68 548.412 1275.12 Q550.403 1276.55 551.352 1279.29 Z" fill="#000000" fill-rule="nonzero" fill-opacity="1" /><path clip-path="url(#clip860)" d="M589.13 1287.2 Q583.968 1287.2 581.977 1288.38 Q579.986 1289.56 579.986 1292.41 Q579.986 1294.68 581.468 1296.02 Q582.972 1297.34 585.542 1297.34 Q589.083 1297.34 591.213 1294.84 Q593.366 1292.32 593.366 1288.15 L593.366 1287.2 L589.13 1287.2 M597.625 1285.44 L597.625 1300.23 L593.366 1300.23 L593.366 1296.3 Q591.907 1298.66 589.731 1299.79 Q587.555 1300.91 584.407 1300.91 Q580.426 1300.91 578.065 1298.68 Q575.727 1296.44 575.727 1292.69 Q575.727 1288.31 578.643 1286.09 Q581.583 1283.87 587.393 1283.87 L593.366 1283.87 L593.366 1283.45 Q593.366 1280.51 591.421 1278.92 Q589.5 1277.29 586.005 1277.29 Q583.782 1277.29 581.676 1277.83 Q579.569 1278.36 577.625 1279.42 L577.625 1275.49 Q579.963 1274.59 582.162 1274.15 Q584.361 1273.68 586.444 1273.68 Q592.069 1273.68 594.847 1276.6 Q597.625 1279.52 597.625 1285.44 Z" fill="#000000" fill-rule="nonzero" fill-opacity="1" /><path clip-path="url(#clip860)" d="M610.611 1266.95 L610.611 1274.31 L619.384 1274.31 L619.384 1277.62 L610.611 1277.62 L610.611 1291.69 Q610.611 1294.86 611.467 1295.77 Q612.347 1296.67 615.009 1296.67 L619.384 1296.67 L619.384 1300.23 L615.009 1300.23 Q610.078 1300.23 608.204 1298.41 Q606.329 1296.55 606.329 1291.69 L606.329 1277.62 L603.204 1277.62 L603.204 1274.31 L606.329 1274.31 L606.329 1266.95 L610.611 1266.95 Z" fill="#000000" fill-rule="nonzero" fill-opacity="1" /><path clip-path="url(#clip860)" d="M647.162 1286.21 L647.162 1288.29 L627.578 1288.29 Q627.856 1292.69 630.217 1295 Q632.602 1297.29 636.838 1297.29 Q639.291 1297.29 641.583 1296.69 Q643.898 1296.09 646.166 1294.89 L646.166 1298.91 Q643.875 1299.89 641.467 1300.4 Q639.06 1300.91 636.583 1300.91 Q630.379 1300.91 626.745 1297.29 Q623.134 1293.68 623.134 1287.53 Q623.134 1281.16 626.56 1277.43 Q630.009 1273.68 635.842 1273.68 Q641.074 1273.68 644.106 1277.06 Q647.162 1280.42 647.162 1286.21 M642.902 1284.96 Q642.856 1281.46 640.935 1279.38 Q639.037 1277.29 635.889 1277.29 Q632.324 1277.29 630.171 1279.31 Q628.041 1281.32 627.717 1284.98 L642.902 1284.96 Z" fill="#000000" fill-rule="nonzero" fill-opacity="1" /><polyline clip-path="url(#clip860)" style="stroke:#ff0000; stroke-linecap:round; stroke-linejoin:round; stroke-width:4; stroke-opacity:1; fill:none" points="274.533,1334.79 419.525,1334.79 "/>
<path clip-path="url(#clip860)" d="M464.038 1331.13 Q465.635 1328.26 467.857 1326.89 Q470.079 1325.52 473.088 1325.52 Q477.139 1325.52 479.338 1328.37 Q481.538 1331.19 481.538 1336.43 L481.538 1352.07 L477.255 1352.07 L477.255 1336.57 Q477.255 1332.84 475.936 1331.03 Q474.616 1329.23 471.908 1329.23 Q468.598 1329.23 466.676 1331.43 Q464.755 1333.63 464.755 1337.42 L464.755 1352.07 L460.473 1352.07 L460.473 1336.57 Q460.473 1332.82 459.153 1331.03 Q457.834 1329.23 455.079 1329.23 Q451.815 1329.23 449.894 1331.45 Q447.973 1333.65 447.973 1337.42 L447.973 1352.07 L443.691 1352.07 L443.691 1326.15 L447.973 1326.15 L447.973 1330.18 Q449.431 1327.79 451.468 1326.66 Q453.505 1325.52 456.306 1325.52 Q459.13 1325.52 461.098 1326.96 Q463.089 1328.39 464.038 1331.13 Z" fill="#000000" fill-rule="nonzero" fill-opacity="1" /><path clip-path="url(#clip860)" d="M512.209 1338.05 L512.209 1340.13 L492.625 1340.13 Q492.903 1344.53 495.264 1346.84 Q497.649 1349.13 501.885 1349.13 Q504.338 1349.13 506.63 1348.53 Q508.945 1347.93 511.213 1346.73 L511.213 1350.75 Q508.922 1351.73 506.514 1352.24 Q504.107 1352.75 501.63 1352.75 Q495.426 1352.75 491.792 1349.13 Q488.181 1345.52 488.181 1339.37 Q488.181 1333 491.607 1329.27 Q495.056 1325.52 500.889 1325.52 Q506.121 1325.52 509.153 1328.9 Q512.209 1332.26 512.209 1338.05 M507.949 1336.8 Q507.903 1333.3 505.982 1331.22 Q504.084 1329.13 500.936 1329.13 Q497.371 1329.13 495.218 1331.15 Q493.088 1333.16 492.764 1336.82 L507.949 1336.8 Z" fill="#000000" fill-rule="nonzero" fill-opacity="1" /><path clip-path="url(#clip860)" d="M530.982 1339.04 Q525.82 1339.04 523.829 1340.22 Q521.838 1341.4 521.838 1344.25 Q521.838 1346.52 523.32 1347.86 Q524.824 1349.18 527.394 1349.18 Q530.935 1349.18 533.065 1346.68 Q535.218 1344.16 535.218 1339.99 L535.218 1339.04 L530.982 1339.04 M539.477 1337.28 L539.477 1352.07 L535.218 1352.07 L535.218 1348.14 Q533.759 1350.5 531.584 1351.63 Q529.408 1352.75 526.26 1352.75 Q522.278 1352.75 519.917 1350.52 Q517.579 1348.28 517.579 1344.53 Q517.579 1340.15 520.496 1337.93 Q523.435 1335.71 529.246 1335.71 L535.218 1335.71 L535.218 1335.29 Q535.218 1332.35 533.273 1330.76 Q531.352 1329.13 527.857 1329.13 Q525.635 1329.13 523.528 1329.67 Q521.422 1330.2 519.477 1331.26 L519.477 1327.33 Q521.815 1326.43 524.014 1325.99 Q526.213 1325.52 528.297 1325.52 Q533.922 1325.52 536.699 1328.44 Q539.477 1331.36 539.477 1337.28 Z" fill="#000000" fill-rule="nonzero" fill-opacity="1" /><path clip-path="url(#clip860)" d="M564.778 1326.91 L564.778 1330.94 Q562.972 1330.01 561.028 1329.55 Q559.083 1329.09 557 1329.09 Q553.829 1329.09 552.232 1330.06 Q550.658 1331.03 550.658 1332.98 Q550.658 1334.46 551.792 1335.32 Q552.926 1336.15 556.352 1336.91 L557.81 1337.24 Q562.347 1338.21 564.245 1339.99 Q566.167 1341.75 566.167 1344.92 Q566.167 1348.53 563.296 1350.64 Q560.449 1352.75 555.449 1352.75 Q553.366 1352.75 551.097 1352.33 Q548.852 1351.94 546.352 1351.13 L546.352 1346.73 Q548.713 1347.95 551.005 1348.58 Q553.296 1349.18 555.542 1349.18 Q558.551 1349.18 560.171 1348.16 Q561.792 1347.12 561.792 1345.25 Q561.792 1343.51 560.611 1342.58 Q559.454 1341.66 555.495 1340.8 L554.014 1340.45 Q550.056 1339.62 548.296 1337.91 Q546.537 1336.17 546.537 1333.16 Q546.537 1329.51 549.13 1327.51 Q551.722 1325.52 556.491 1325.52 Q558.852 1325.52 560.935 1325.87 Q563.019 1326.22 564.778 1326.91 Z" fill="#000000" fill-rule="nonzero" fill-opacity="1" /><path clip-path="url(#clip860)" d="M572.509 1341.84 L572.509 1326.15 L576.768 1326.15 L576.768 1341.68 Q576.768 1345.36 578.204 1347.21 Q579.639 1349.04 582.509 1349.04 Q585.958 1349.04 587.949 1346.84 Q589.963 1344.64 589.963 1340.85 L589.963 1326.15 L594.222 1326.15 L594.222 1352.07 L589.963 1352.07 L589.963 1348.09 Q588.412 1350.45 586.352 1351.61 Q584.315 1352.75 581.606 1352.75 Q577.139 1352.75 574.824 1349.97 Q572.509 1347.19 572.509 1341.84 M583.227 1325.52 L583.227 1325.52 Z" fill="#000000" fill-rule="nonzero" fill-opacity="1" /><path clip-path="url(#clip860)" d="M618.018 1330.13 Q617.301 1329.71 616.444 1329.53 Q615.611 1329.32 614.592 1329.32 Q610.981 1329.32 609.037 1331.68 Q607.116 1334.02 607.116 1338.42 L607.116 1352.07 L602.833 1352.07 L602.833 1326.15 L607.116 1326.15 L607.116 1330.18 Q608.458 1327.82 610.611 1326.68 Q612.764 1325.52 615.842 1325.52 Q616.282 1325.52 616.815 1325.59 Q617.347 1325.64 617.995 1325.76 L618.018 1330.13 Z" fill="#000000" fill-rule="nonzero" fill-opacity="1" /><path clip-path="url(#clip860)" d="M643.62 1338.05 L643.62 1340.13 L624.037 1340.13 Q624.315 1344.53 626.676 1346.84 Q629.06 1349.13 633.296 1349.13 Q635.75 1349.13 638.041 1348.53 Q640.356 1347.93 642.625 1346.73 L642.625 1350.75 Q640.333 1351.73 637.926 1352.24 Q635.518 1352.75 633.041 1352.75 Q626.838 1352.75 623.203 1349.13 Q619.592 1345.52 619.592 1339.37 Q619.592 1333 623.018 1329.27 Q626.467 1325.52 632.301 1325.52 Q637.532 1325.52 640.564 1328.9 Q643.62 1332.26 643.62 1338.05 M639.361 1336.8 Q639.314 1333.3 637.393 1331.22 Q635.495 1329.13 632.347 1329.13 Q628.782 1329.13 626.629 1331.15 Q624.5 1333.16 624.176 1336.82 L639.361 1336.8 Z" fill="#000000" fill-rule="nonzero" fill-opacity="1" /><path clip-path="url(#clip860)" d="M670.796 1331.13 Q672.393 1328.26 674.615 1326.89 Q676.837 1325.52 679.847 1325.52 Q683.898 1325.52 686.097 1328.37 Q688.296 1331.19 688.296 1336.43 L688.296 1352.07 L684.013 1352.07 L684.013 1336.57 Q684.013 1332.84 682.694 1331.03 Q681.374 1329.23 678.666 1329.23 Q675.356 1329.23 673.435 1331.43 Q671.513 1333.63 671.513 1337.42 L671.513 1352.07 L667.231 1352.07 L667.231 1336.57 Q667.231 1332.82 665.912 1331.03 Q664.592 1329.23 661.837 1329.23 Q658.574 1329.23 656.652 1331.45 Q654.731 1333.65 654.731 1337.42 L654.731 1352.07 L650.449 1352.07 L650.449 1326.15 L654.731 1326.15 L654.731 1330.18 Q656.189 1327.79 658.226 1326.66 Q660.263 1325.52 663.064 1325.52 Q665.888 1325.52 667.856 1326.96 Q669.847 1328.39 670.796 1331.13 Z" fill="#000000" fill-rule="nonzero" fill-opacity="1" /><path clip-path="url(#clip860)" d="M718.967 1338.05 L718.967 1340.13 L699.384 1340.13 Q699.661 1344.53 702.022 1346.84 Q704.407 1349.13 708.643 1349.13 Q711.096 1349.13 713.388 1348.53 Q715.703 1347.93 717.971 1346.73 L717.971 1350.75 Q715.68 1351.73 713.272 1352.24 Q710.865 1352.75 708.388 1352.75 Q702.184 1352.75 698.55 1349.13 Q694.939 1345.52 694.939 1339.37 Q694.939 1333 698.365 1329.27 Q701.814 1325.52 707.647 1325.52 Q712.879 1325.52 715.911 1328.9 Q718.967 1332.26 718.967 1338.05 M714.708 1336.8 Q714.661 1333.3 712.74 1331.22 Q710.842 1329.13 707.694 1329.13 Q704.129 1329.13 701.976 1331.15 Q699.847 1333.16 699.522 1336.82 L714.708 1336.8 Z" fill="#000000" fill-rule="nonzero" fill-opacity="1" /><path clip-path="url(#clip860)" d="M747.508 1336.43 L747.508 1352.07 L743.249 1352.07 L743.249 1336.57 Q743.249 1332.88 741.814 1331.06 Q740.379 1329.23 737.508 1329.23 Q734.059 1329.23 732.069 1331.43 Q730.078 1333.63 730.078 1337.42 L730.078 1352.07 L725.795 1352.07 L725.795 1326.15 L730.078 1326.15 L730.078 1330.18 Q731.606 1327.84 733.666 1326.68 Q735.749 1325.52 738.457 1325.52 Q742.925 1325.52 745.217 1328.3 Q747.508 1331.06 747.508 1336.43 Z" fill="#000000" fill-rule="nonzero" fill-opacity="1" /><path clip-path="url(#clip860)" d="M760.217 1318.79 L760.217 1326.15 L768.99 1326.15 L768.99 1329.46 L760.217 1329.46 L760.217 1343.53 Q760.217 1346.7 761.073 1347.61 Q761.953 1348.51 764.615 1348.51 L768.99 1348.51 L768.99 1352.07 L764.615 1352.07 Q759.684 1352.07 757.809 1350.25 Q755.934 1348.39 755.934 1343.53 L755.934 1329.46 L752.809 1329.46 L752.809 1326.15 L755.934 1326.15 L755.934 1318.79 L760.217 1318.79 Z" fill="#000000" fill-rule="nonzero" fill-opacity="1" /><polyline clip-path="url(#clip860)" style="stroke:#3da44d; stroke-linecap:round; stroke-linejoin:round; stroke-width:4; stroke-opacity:1; fill:none" points="274.533,1386.63 419.525,1386.63 "/>
<path clip-path="url(#clip860)" d="M468.343 1377.99 L458.968 1390.6 L468.829 1403.91 L463.806 1403.91 L456.26 1393.73 L448.714 1403.91 L443.691 1403.91 L453.76 1390.35 L444.547 1377.99 L449.57 1377.99 L456.445 1387.22 L463.32 1377.99 L468.343 1377.99 Z" fill="#000000" fill-rule="nonzero" fill-opacity="1" /><path clip-path="url(#clip860)" d="M491.375 1378.75 L491.375 1382.78 Q489.57 1381.85 487.625 1381.39 Q485.681 1380.93 483.598 1380.93 Q480.426 1380.93 478.829 1381.9 Q477.255 1382.87 477.255 1384.82 Q477.255 1386.3 478.389 1387.16 Q479.524 1387.99 482.95 1388.75 L484.408 1389.08 Q488.945 1390.05 490.843 1391.83 Q492.764 1393.59 492.764 1396.76 Q492.764 1400.37 489.894 1402.48 Q487.047 1404.59 482.047 1404.59 Q479.963 1404.59 477.695 1404.17 Q475.45 1403.78 472.95 1402.97 L472.95 1398.57 Q475.311 1399.79 477.602 1400.42 Q479.894 1401.02 482.139 1401.02 Q485.149 1401.02 486.769 1400 Q488.389 1398.96 488.389 1397.09 Q488.389 1395.35 487.209 1394.42 Q486.051 1393.5 482.093 1392.64 L480.612 1392.29 Q476.653 1391.46 474.894 1389.75 Q473.135 1388.01 473.135 1385 Q473.135 1381.35 475.727 1379.35 Q478.32 1377.36 483.088 1377.36 Q485.45 1377.36 487.533 1377.71 Q489.616 1378.06 491.375 1378.75 Z" fill="#000000" fill-rule="nonzero" fill-opacity="1" /></svg>
