<?xml version="1.0" encoding="utf-8"?>
<svg xmlns="http://www.w3.org/2000/svg" xmlns:xlink="http://www.w3.org/1999/xlink" width="600" height="400" viewBox="0 0 2400 1600">
<defs>
  <clipPath id="clip460">
    <rect x="0" y="0" width="2400" height="1600"/>
  </clipPath>
</defs>
<path clip-path="url(#clip460)" d="M0 1600 L2400 1600 L2400 0 L0 0  Z" fill="#ffffff" fill-rule="evenodd" fill-opacity="1"/>
<defs>
  <clipPath id="clip461">
    <rect x="193" y="47" width="2160" height="1440"/>
  </clipPath>
</defs>
<path clip-path="url(#clip460)" d="M193.936 1486.45 L2352.76 1486.45 L2352.76 47.2441 L193.936 47.2441  Z" fill="#ffffff" fill-rule="evenodd" fill-opacity="1"/>
<polyline clip-path="url(#clip461)" style="stroke:#000000; stroke-linecap:round; stroke-linejoin:round; stroke-width:2; stroke-opacity:0.1; fill:none" points="229.255,1486.45 229.255,47.2441 "/>
<polyline clip-path="url(#clip461)" style="stroke:#000000; stroke-linecap:round; stroke-linejoin:round; stroke-width:2; stroke-opacity:0.1; fill:none" points="744.855,1486.45 744.855,47.2441 "/>
<polyline clip-path="url(#clip461)" style="stroke:#000000; stroke-linecap:round; stroke-linejoin:round; stroke-width:2; stroke-opacity:0.1; fill:none" points="1260.46,1486.45 1260.46,47.2441 "/>
<polyline clip-path="url(#clip461)" style="stroke:#000000; stroke-linecap:round; stroke-linejoin:round; stroke-width:2; stroke-opacity:0.1; fill:none" points="1776.06,1486.45 1776.06,47.2441 "/>
<polyline clip-path="url(#clip461)" style="stroke:#000000; stroke-linecap:round; stroke-linejoin:round; stroke-width:2; stroke-opacity:0.1; fill:none" points="2291.66,1486.45 2291.66,47.2441 "/>
<polyline clip-path="url(#clip461)" style="stroke:#000000; stroke-linecap:round; stroke-linejoin:round; stroke-width:2; stroke-opacity:0.1; fill:none" points="193.936,1348.01 2352.76,1348.01 "/>
<polyline clip-path="url(#clip461)" style="stroke:#000000; stroke-linecap:round; stroke-linejoin:round; stroke-width:2; stroke-opacity:0.1; fill:none" points="193.936,1083.41 2352.76,1083.41 "/>
<polyline clip-path="url(#clip461)" style="stroke:#000000; stroke-linecap:round; stroke-linejoin:round; stroke-width:2; stroke-opacity:0.1; fill:none" points="193.936,818.813 2352.76,818.813 "/>
<polyline clip-path="url(#clip461)" style="stroke:#000000; stroke-linecap:round; stroke-linejoin:round; stroke-width:2; stroke-opacity:0.1; fill:none" points="193.936,554.217 2352.76,554.217 "/>
<polyline clip-path="url(#clip461)" style="stroke:#000000; stroke-linecap:round; stroke-linejoin:round; stroke-width:2; stroke-opacity:0.1; fill:none" points="193.936,289.621 2352.76,289.621 "/>
<polyline clip-path="url(#clip460)" style="stroke:#000000; stroke-linecap:round; stroke-linejoin:round; stroke-width:4; stroke-opacity:1; fill:none" points="193.936,1486.45 2352.76,1486.45 "/>
<polyline clip-path="url(#clip460)" style="stroke:#000000; stroke-linecap:round; stroke-linejoin:round; stroke-width:4; stroke-opacity:1; fill:none" points="229.255,1486.45 229.255,1467.55 "/>
<polyline clip-path="url(#clip460)" style="stroke:#000000; stroke-linecap:round; stroke-linejoin:round; stroke-width:4; stroke-opacity:1; fill:none" points="744.855,1486.45 744.855,1467.55 "/>
<polyline clip-path="url(#clip460)" style="stroke:#000000; stroke-linecap:round; stroke-linejoin:round; stroke-width:4; stroke-opacity:1; fill:none" points="1260.46,1486.45 1260.46,1467.55 "/>
<polyline clip-path="url(#clip460)" style="stroke:#000000; stroke-linecap:round; stroke-linejoin:round; stroke-width:4; stroke-opacity:1; fill:none" points="1776.06,1486.45 1776.06,1467.55 "/>
<polyline clip-path="url(#clip460)" style="stroke:#000000; stroke-linecap:round; stroke-linejoin:round; stroke-width:4; stroke-opacity:1; fill:none" points="2291.66,1486.45 2291.66,1467.55 "/>
<path clip-path="url(#clip460)" d="M229.255 1517.37 Q225.644 1517.37 223.815 1520.93 Q222.009 1524.47 222.009 1531.6 Q222.009 1538.71 223.815 1542.27 Q225.644 1545.82 229.255 1545.82 Q232.889 1545.82 234.694 1542.27 Q236.523 1538.71 236.523 1531.6 Q236.523 1524.47 234.694 1520.93 Q232.889 1517.37 229.255 1517.37 M229.255 1513.66 Q235.065 1513.66 238.12 1518.27 Q241.199 1522.85 241.199 1531.6 Q241.199 1540.33 238.12 1544.94 Q235.065 1549.52 229.255 1549.52 Q223.444 1549.52 220.366 1544.94 Q217.31 1540.33 217.31 1531.6 Q217.31 1522.85 220.366 1518.27 Q223.444 1513.66 229.255 1513.66 Z" fill="#000000" fill-rule="nonzero" fill-opacity="1" /><path clip-path="url(#clip460)" d="M723.629 1544.91 L739.948 1544.91 L739.948 1548.85 L718.004 1548.85 L718.004 1544.91 Q720.666 1542.16 725.249 1537.53 Q729.855 1532.88 731.036 1531.53 Q733.281 1529.01 734.161 1527.27 Q735.064 1525.51 735.064 1523.82 Q735.064 1521.07 733.119 1519.33 Q731.198 1517.6 728.096 1517.6 Q725.897 1517.6 723.443 1518.36 Q721.013 1519.13 718.235 1520.68 L718.235 1515.95 Q721.059 1514.82 723.513 1514.24 Q725.967 1513.66 728.004 1513.66 Q733.374 1513.66 736.568 1516.35 Q739.763 1519.03 739.763 1523.52 Q739.763 1525.65 738.953 1527.57 Q738.166 1529.47 736.059 1532.07 Q735.48 1532.74 732.379 1535.95 Q729.277 1539.15 723.629 1544.91 Z" fill="#000000" fill-rule="nonzero" fill-opacity="1" /><path clip-path="url(#clip460)" d="M759.763 1517.37 Q756.152 1517.37 754.323 1520.93 Q752.517 1524.47 752.517 1531.6 Q752.517 1538.71 754.323 1542.27 Q756.152 1545.82 759.763 1545.82 Q763.397 1545.82 765.202 1542.27 Q767.031 1538.71 767.031 1531.6 Q767.031 1524.47 765.202 1520.93 Q763.397 1517.37 759.763 1517.37 M759.763 1513.66 Q765.573 1513.66 768.628 1518.27 Q771.707 1522.85 771.707 1531.6 Q771.707 1540.33 768.628 1544.94 Q765.573 1549.52 759.763 1549.52 Q753.952 1549.52 750.874 1544.94 Q747.818 1540.33 747.818 1531.6 Q747.818 1522.85 750.874 1518.27 Q753.952 1513.66 759.763 1513.66 Z" fill="#000000" fill-rule="nonzero" fill-opacity="1" /><path clip-path="url(#clip460)" d="M1248.63 1518.36 L1236.82 1536.81 L1248.63 1536.81 L1248.63 1518.36 M1247.4 1514.29 L1253.28 1514.29 L1253.28 1536.81 L1258.21 1536.81 L1258.21 1540.7 L1253.28 1540.7 L1253.28 1548.85 L1248.63 1548.85 L1248.63 1540.7 L1233.03 1540.7 L1233.03 1536.19 L1247.4 1514.29 Z" fill="#000000" fill-rule="nonzero" fill-opacity="1" /><path clip-path="url(#clip460)" d="M1275.94 1517.37 Q1272.33 1517.37 1270.5 1520.93 Q1268.7 1524.47 1268.7 1531.6 Q1268.7 1538.71 1270.5 1542.27 Q1272.33 1545.82 1275.94 1545.82 Q1279.58 1545.82 1281.38 1542.27 Q1283.21 1538.71 1283.21 1531.6 Q1283.21 1524.47 1281.38 1520.93 Q1279.58 1517.37 1275.94 1517.37 M1275.94 1513.66 Q1281.75 1513.66 1284.81 1518.27 Q1287.89 1522.85 1287.89 1531.6 Q1287.89 1540.33 1284.81 1544.94 Q1281.75 1549.52 1275.94 1549.52 Q1270.13 1549.52 1267.05 1544.94 Q1264 1540.33 1264 1531.6 Q1264 1522.85 1267.05 1518.27 Q1270.13 1513.66 1275.94 1513.66 Z" fill="#000000" fill-rule="nonzero" fill-opacity="1" /><path clip-path="url(#clip460)" d="M1761.46 1529.7 Q1758.31 1529.7 1756.46 1531.86 Q1754.63 1534.01 1754.63 1537.76 Q1754.63 1541.49 1756.46 1543.66 Q1758.31 1545.82 1761.46 1545.82 Q1764.61 1545.82 1766.44 1543.66 Q1768.29 1541.49 1768.29 1537.76 Q1768.29 1534.01 1766.44 1531.86 Q1764.61 1529.7 1761.46 1529.7 M1770.74 1515.05 L1770.74 1519.31 Q1768.98 1518.48 1767.18 1518.04 Q1765.4 1517.6 1763.64 1517.6 Q1759.01 1517.6 1756.55 1520.72 Q1754.12 1523.85 1753.78 1530.17 Q1755.14 1528.15 1757.2 1527.09 Q1759.26 1526 1761.74 1526 Q1766.95 1526 1769.96 1529.17 Q1772.99 1532.32 1772.99 1537.76 Q1772.99 1543.08 1769.84 1546.3 Q1766.69 1549.52 1761.46 1549.52 Q1755.47 1549.52 1752.3 1544.94 Q1749.12 1540.33 1749.12 1531.6 Q1749.12 1523.41 1753.01 1518.55 Q1756.9 1513.66 1763.45 1513.66 Q1765.21 1513.66 1766.99 1514.01 Q1768.8 1514.36 1770.74 1515.05 Z" fill="#000000" fill-rule="nonzero" fill-opacity="1" /><path clip-path="url(#clip460)" d="M1791.04 1517.37 Q1787.43 1517.37 1785.61 1520.93 Q1783.8 1524.47 1783.8 1531.6 Q1783.8 1538.71 1785.61 1542.27 Q1787.43 1545.82 1791.04 1545.82 Q1794.68 1545.82 1796.48 1542.27 Q1798.31 1538.71 1798.31 1531.6 Q1798.31 1524.47 1796.48 1520.93 Q1794.68 1517.37 1791.04 1517.37 M1791.04 1513.66 Q1796.86 1513.66 1799.91 1518.27 Q1802.99 1522.85 1802.99 1531.6 Q1802.99 1540.33 1799.91 1544.94 Q1796.86 1549.52 1791.04 1549.52 Q1785.23 1549.52 1782.16 1544.94 Q1779.1 1540.33 1779.1 1531.6 Q1779.1 1522.85 1782.16 1518.27 Q1785.23 1513.66 1791.04 1513.66 Z" fill="#000000" fill-rule="nonzero" fill-opacity="1" /><path clip-path="url(#clip460)" d="M2276.53 1532.44 Q2273.2 1532.44 2271.28 1534.22 Q2269.38 1536 2269.38 1539.13 Q2269.38 1542.25 2271.28 1544.03 Q2273.2 1545.82 2276.53 1545.82 Q2279.86 1545.82 2281.78 1544.03 Q2283.71 1542.23 2283.71 1539.13 Q2283.71 1536 2281.78 1534.22 Q2279.89 1532.44 2276.53 1532.44 M2271.85 1530.45 Q2268.84 1529.7 2267.16 1527.64 Q2265.49 1525.58 2265.49 1522.62 Q2265.49 1518.48 2268.43 1516.07 Q2271.39 1513.66 2276.53 1513.66 Q2281.69 1513.66 2284.63 1516.07 Q2287.57 1518.48 2287.57 1522.62 Q2287.57 1525.58 2285.88 1527.64 Q2284.22 1529.7 2281.23 1530.45 Q2284.61 1531.23 2286.48 1533.52 Q2288.38 1535.82 2288.38 1539.13 Q2288.38 1544.15 2285.3 1546.83 Q2282.25 1549.52 2276.53 1549.52 Q2270.81 1549.52 2267.73 1546.83 Q2264.68 1544.15 2264.68 1539.13 Q2264.68 1535.82 2266.58 1533.52 Q2268.47 1531.23 2271.85 1530.45 M2270.14 1523.06 Q2270.14 1525.75 2271.81 1527.25 Q2273.5 1528.76 2276.53 1528.76 Q2279.54 1528.76 2281.23 1527.25 Q2282.94 1525.75 2282.94 1523.06 Q2282.94 1520.38 2281.23 1518.87 Q2279.54 1517.37 2276.53 1517.37 Q2273.5 1517.37 2271.81 1518.87 Q2270.14 1520.38 2270.14 1523.06 Z" fill="#000000" fill-rule="nonzero" fill-opacity="1" /><path clip-path="url(#clip460)" d="M2306.69 1517.37 Q2303.08 1517.37 2301.25 1520.93 Q2299.45 1524.47 2299.45 1531.6 Q2299.45 1538.71 2301.25 1542.27 Q2303.08 1545.82 2306.69 1545.82 Q2310.33 1545.82 2312.13 1542.27 Q2313.96 1538.71 2313.96 1531.6 Q2313.96 1524.47 2312.13 1520.93 Q2310.33 1517.37 2306.69 1517.37 M2306.69 1513.66 Q2312.5 1513.66 2315.56 1518.27 Q2318.64 1522.85 2318.64 1531.6 Q2318.64 1540.33 2315.56 1544.94 Q2312.5 1549.52 2306.69 1549.52 Q2300.88 1549.52 2297.8 1544.94 Q2294.75 1540.33 2294.75 1531.6 Q2294.75 1522.85 2297.8 1518.27 Q2300.88 1513.66 2306.69 1513.66 Z" fill="#000000" fill-rule="nonzero" fill-opacity="1" /><polyline clip-path="url(#clip460)" style="stroke:#000000; stroke-linecap:round; stroke-linejoin:round; stroke-width:4; stroke-opacity:1; fill:none" points="193.936,1486.45 193.936,47.2441 "/>
<polyline clip-path="url(#clip460)" style="stroke:#000000; stroke-linecap:round; stroke-linejoin:round; stroke-width:4; stroke-opacity:1; fill:none" points="193.936,1348.01 212.834,1348.01 "/>
<polyline clip-path="url(#clip460)" style="stroke:#000000; stroke-linecap:round; stroke-linejoin:round; stroke-width:4; stroke-opacity:1; fill:none" points="193.936,1083.41 212.834,1083.41 "/>
<polyline clip-path="url(#clip460)" style="stroke:#000000; stroke-linecap:round; stroke-linejoin:round; stroke-width:4; stroke-opacity:1; fill:none" points="193.936,818.813 212.834,818.813 "/>
<polyline clip-path="url(#clip460)" style="stroke:#000000; stroke-linecap:round; stroke-linejoin:round; stroke-width:4; stroke-opacity:1; fill:none" points="193.936,554.217 212.834,554.217 "/>
<polyline clip-path="url(#clip460)" style="stroke:#000000; stroke-linecap:round; stroke-linejoin:round; stroke-width:4; stroke-opacity:1; fill:none" points="193.936,289.621 212.834,289.621 "/>
<path clip-path="url(#clip460)" d="M50.9921 1348.46 L80.6679 1348.46 L80.6679 1352.39 L50.9921 1352.39 L50.9921 1348.46 Z" fill="#000000" fill-rule="nonzero" fill-opacity="1" /><path clip-path="url(#clip460)" d="M91.5706 1361.35 L99.2095 1361.35 L99.2095 1334.98 L90.8993 1336.65 L90.8993 1332.39 L99.1632 1330.73 L103.839 1330.73 L103.839 1361.35 L111.478 1361.35 L111.478 1365.29 L91.5706 1365.29 L91.5706 1361.35 Z" fill="#000000" fill-rule="nonzero" fill-opacity="1" /><path clip-path="url(#clip460)" d="M120.922 1359.41 L125.807 1359.41 L125.807 1365.29 L120.922 1365.29 L120.922 1359.41 Z" fill="#000000" fill-rule="nonzero" fill-opacity="1" /><path clip-path="url(#clip460)" d="M145.992 1333.8 Q142.381 1333.8 140.552 1337.37 Q138.746 1340.91 138.746 1348.04 Q138.746 1355.15 140.552 1358.71 Q142.381 1362.25 145.992 1362.25 Q149.626 1362.25 151.431 1358.71 Q153.26 1355.15 153.26 1348.04 Q153.26 1340.91 151.431 1337.37 Q149.626 1333.8 145.992 1333.8 M145.992 1330.1 Q151.802 1330.1 154.857 1334.71 Q157.936 1339.29 157.936 1348.04 Q157.936 1356.77 154.857 1361.37 Q151.802 1365.96 145.992 1365.96 Q140.181 1365.96 137.103 1361.37 Q134.047 1356.77 134.047 1348.04 Q134.047 1339.29 137.103 1334.71 Q140.181 1330.1 145.992 1330.1 Z" fill="#000000" fill-rule="nonzero" fill-opacity="1" /><path clip-path="url(#clip460)" d="M51.9875 1083.86 L81.6633 1083.86 L81.6633 1087.8 L51.9875 1087.8 L51.9875 1083.86 Z" fill="#000000" fill-rule="nonzero" fill-opacity="1" /><path clip-path="url(#clip460)" d="M101.756 1069.21 Q98.1447 1069.21 96.316 1072.77 Q94.5104 1076.31 94.5104 1083.44 Q94.5104 1090.55 96.316 1094.11 Q98.1447 1097.66 101.756 1097.66 Q105.39 1097.66 107.196 1094.11 Q109.024 1090.55 109.024 1083.44 Q109.024 1076.31 107.196 1072.77 Q105.39 1069.21 101.756 1069.21 M101.756 1065.5 Q107.566 1065.5 110.621 1070.11 Q113.7 1074.69 113.7 1083.44 Q113.7 1092.17 110.621 1096.78 Q107.566 1101.36 101.756 1101.36 Q95.9456 1101.36 92.8669 1096.78 Q89.8114 1092.17 89.8114 1083.44 Q89.8114 1074.69 92.8669 1070.11 Q95.9456 1065.5 101.756 1065.5 Z" fill="#000000" fill-rule="nonzero" fill-opacity="1" /><path clip-path="url(#clip460)" d="M121.918 1094.81 L126.802 1094.81 L126.802 1100.69 L121.918 1100.69 L121.918 1094.81 Z" fill="#000000" fill-rule="nonzero" fill-opacity="1" /><path clip-path="url(#clip460)" d="M137.033 1066.13 L155.39 1066.13 L155.39 1070.06 L141.316 1070.06 L141.316 1078.54 Q142.334 1078.19 143.353 1078.03 Q144.371 1077.84 145.39 1077.84 Q151.177 1077.84 154.556 1081.01 Q157.936 1084.18 157.936 1089.6 Q157.936 1095.18 154.464 1098.28 Q150.992 1101.36 144.672 1101.36 Q142.496 1101.36 140.228 1100.99 Q137.982 1100.62 135.575 1099.88 L135.575 1095.18 Q137.658 1096.31 139.881 1096.87 Q142.103 1097.43 144.58 1097.43 Q148.584 1097.43 150.922 1095.32 Q153.26 1093.21 153.26 1089.6 Q153.26 1085.99 150.922 1083.88 Q148.584 1081.78 144.58 1081.78 Q142.705 1081.78 140.83 1082.19 Q138.978 1082.61 137.033 1083.49 L137.033 1066.13 Z" fill="#000000" fill-rule="nonzero" fill-opacity="1" /><path clip-path="url(#clip460)" d="M100.76 804.612 Q97.1493 804.612 95.3206 808.176 Q93.515 811.718 93.515 818.848 Q93.515 825.954 95.3206 829.519 Q97.1493 833.061 100.76 833.061 Q104.395 833.061 106.2 829.519 Q108.029 825.954 108.029 818.848 Q108.029 811.718 106.2 808.176 Q104.395 804.612 100.76 804.612 M100.76 800.908 Q106.571 800.908 109.626 805.514 Q112.705 810.098 112.705 818.848 Q112.705 827.574 109.626 832.181 Q106.571 836.764 100.76 836.764 Q94.9502 836.764 91.8715 832.181 Q88.816 827.574 88.816 818.848 Q88.816 810.098 91.8715 805.514 Q94.9502 800.908 100.76 800.908 Z" fill="#000000" fill-rule="nonzero" fill-opacity="1" /><path clip-path="url(#clip460)" d="M120.922 830.213 L125.807 830.213 L125.807 836.093 L120.922 836.093 L120.922 830.213 Z" fill="#000000" fill-rule="nonzero" fill-opacity="1" /><path clip-path="url(#clip460)" d="M145.992 804.612 Q142.381 804.612 140.552 808.176 Q138.746 811.718 138.746 818.848 Q138.746 825.954 140.552 829.519 Q142.381 833.061 145.992 833.061 Q149.626 833.061 151.431 829.519 Q153.26 825.954 153.26 818.848 Q153.26 811.718 151.431 808.176 Q149.626 804.612 145.992 804.612 M145.992 800.908 Q151.802 800.908 154.857 805.514 Q157.936 810.098 157.936 818.848 Q157.936 827.574 154.857 832.181 Q151.802 836.764 145.992 836.764 Q140.181 836.764 137.103 832.181 Q134.047 827.574 134.047 818.848 Q134.047 810.098 137.103 805.514 Q140.181 800.908 145.992 800.908 Z" fill="#000000" fill-rule="nonzero" fill-opacity="1" /><path clip-path="url(#clip460)" d="M101.756 540.015 Q98.1447 540.015 96.316 543.58 Q94.5104 547.122 94.5104 554.251 Q94.5104 561.358 96.316 564.923 Q98.1447 568.464 101.756 568.464 Q105.39 568.464 107.196 564.923 Q109.024 561.358 109.024 554.251 Q109.024 547.122 107.196 543.58 Q105.39 540.015 101.756 540.015 M101.756 536.312 Q107.566 536.312 110.621 540.918 Q113.7 545.502 113.7 554.251 Q113.7 562.978 110.621 567.585 Q107.566 572.168 101.756 572.168 Q95.9456 572.168 92.8669 567.585 Q89.8114 562.978 89.8114 554.251 Q89.8114 545.502 92.8669 540.918 Q95.9456 536.312 101.756 536.312 Z" fill="#000000" fill-rule="nonzero" fill-opacity="1" /><path clip-path="url(#clip460)" d="M121.918 565.617 L126.802 565.617 L126.802 571.497 L121.918 571.497 L121.918 565.617 Z" fill="#000000" fill-rule="nonzero" fill-opacity="1" /><path clip-path="url(#clip460)" d="M137.033 536.937 L155.39 536.937 L155.39 540.872 L141.316 540.872 L141.316 549.344 Q142.334 548.997 143.353 548.835 Q144.371 548.65 145.39 548.65 Q151.177 548.65 154.556 551.821 Q157.936 554.992 157.936 560.409 Q157.936 565.988 154.464 569.089 Q150.992 572.168 144.672 572.168 Q142.496 572.168 140.228 571.798 Q137.982 571.427 135.575 570.687 L135.575 565.988 Q137.658 567.122 139.881 567.677 Q142.103 568.233 144.58 568.233 Q148.584 568.233 150.922 566.126 Q153.26 564.02 153.26 560.409 Q153.26 556.798 150.922 554.691 Q148.584 552.585 144.58 552.585 Q142.705 552.585 140.83 553.002 Q138.978 553.418 137.033 554.298 L137.033 536.937 Z" fill="#000000" fill-rule="nonzero" fill-opacity="1" /><path clip-path="url(#clip460)" d="M91.5706 302.965 L99.2095 302.965 L99.2095 276.6 L90.8993 278.267 L90.8993 274.007 L99.1632 272.341 L103.839 272.341 L103.839 302.965 L111.478 302.965 L111.478 306.901 L91.5706 306.901 L91.5706 302.965 Z" fill="#000000" fill-rule="nonzero" fill-opacity="1" /><path clip-path="url(#clip460)" d="M120.922 301.021 L125.807 301.021 L125.807 306.901 L120.922 306.901 L120.922 301.021 Z" fill="#000000" fill-rule="nonzero" fill-opacity="1" /><path clip-path="url(#clip460)" d="M145.992 275.419 Q142.381 275.419 140.552 278.984 Q138.746 282.526 138.746 289.655 Q138.746 296.762 140.552 300.327 Q142.381 303.868 145.992 303.868 Q149.626 303.868 151.431 300.327 Q153.26 296.762 153.26 289.655 Q153.26 282.526 151.431 278.984 Q149.626 275.419 145.992 275.419 M145.992 271.716 Q151.802 271.716 154.857 276.322 Q157.936 280.905 157.936 289.655 Q157.936 298.382 154.857 302.989 Q151.802 307.572 145.992 307.572 Q140.181 307.572 137.103 302.989 Q134.047 298.382 134.047 289.655 Q134.047 280.905 137.103 276.322 Q140.181 271.716 145.992 271.716 Z" fill="#000000" fill-rule="nonzero" fill-opacity="1" /><path clip-path="url(#clip461)" d="M255.035 903.632 L280.815 766.721 L306.595 826.215 L332.375 856.751 L358.155 797.709 L383.935 698.723 L409.715 761.564 L435.495 686.315 L461.275 634.14 L487.055 632.29 L512.835 657.721 L538.615 670.348 L564.395 656.621 L590.175 723.305 L615.955 697.13 L641.735 711.001 L667.515 768.665 L693.295 727.876 L719.075 778.308 L744.855 748.531 L770.635 762.64 L796.415 725.679 L822.195 706.106 L847.975 622.872 L873.755 677.447 L899.535 765.123 L925.316 863.279 L951.096 863.579 L976.876 916.086 L1002.66 928.566 L1028.44 1025.63 L1054.22 1015.76 L1080 993.619 L1105.78 1007.43 L1131.56 1045.05 L1157.34 1029.18 L1183.12 1111.26 L1208.9 1139.4 L1234.68 1258.6 L1260.46 1174.61 L1286.24 1238.24 L1312.02 1272.83 L1337.8 1300.97 L1363.58 1278.36 L1389.36 1313.75 L1415.14 1346.86 L1440.92 1290.54 L1466.7 1240.48 L1492.48 1250.51 L1518.26 1339.8 L1544.04 1392.69 L1569.82 1386.52 L1595.6 1379.87 L1621.38 1390.97 L1647.16 1364.5 L1672.94 1293.85 L1698.72 1246.65 L1724.5 1220.66 L1750.28 1216.22 L1776.06 1229.91 L1801.84 1242.82 L1827.62 1285.63 L1853.4 1268.82 L1879.18 1178.11 L1904.96 1078.72 L1930.74 1058.93 L1956.52 1028.94 L1982.3 1042.02 L2008.08 1126.12 L2033.86 1244.04 L2059.64 1224.45 L2085.42 1275.52 L2111.2 1279.79 L2136.98 1317.84 L2162.76 1383.59 L2188.54 1422.17 L2214.32 1445.72 L2240.1 1326.41 L2265.88 1283.41 L2291.66 1299.17 L2291.66 678.394 L2265.88 672.683 L2240.1 701.819 L2214.32 851.83 L2188.54 838.322 L2162.76 800.008 L2136.98 785.774 L2111.2 759.895 L2085.42 763.707 L2059.64 737.382 L2033.86 756.27 L2008.08 628.351 L1982.3 551.909 L1956.52 548.686 L1930.74 604.95 L1904.96 630.565 L1879.18 723.714 L1853.4 794.455 L1827.62 830.266 L1801.84 787.128 L1776.06 776.007 L1750.28 761.306 L1724.5 759.128 L1698.72 791.834 L1672.94 864.045 L1647.16 906.263 L1621.38 941.307 L1595.6 890.878 L1569.82 919.47 L1544.04 885.281 L1518.26 835.014 L1492.48 739.867 L1466.7 734.26 L1440.92 800.091 L1415.14 878.137 L1389.36 830.918 L1363.58 819.96 L1337.8 831.452 L1312.02 797.785 L1286.24 748.049 L1260.46 691.708 L1234.68 747.28 L1208.9 596.258 L1183.12 586.109 L1157.34 530.963 L1131.56 568.028 L1105.78 519.008 L1080 541.97 L1054.22 564.263 L1028.44 589.976 L1002.66 490.161 L976.876 458.985 L951.096 402.921 L925.316 442.713 L899.535 353.47 L873.755 254.566 L847.975 207.935 L822.195 281.057 L796.415 281.445 L770.635 325.698 L744.855 310.308 L719.075 352.57 L693.295 321.957 L667.515 370.068 L641.735 313.781 L615.955 276.047 L590.175 287.171 L564.395 221.445 L538.615 245.755 L512.835 187.985 L487.055 162.764 L461.275 144.508 L435.495 190.902 L409.715 239.183 L383.935 126.263 L358.155 191.433 L332.375 217.038 L306.595 182.188 L280.815 87.9763 L255.035 158.536  Z" fill="#009af9" fill-rule="evenodd" fill-opacity="0.5"/>
<polyline clip-path="url(#clip461)" style="stroke:#009af9; stroke-linecap:round; stroke-linejoin:round; stroke-width:4; stroke-opacity:1; fill:none" points="255.035,531.084 280.815,427.349 306.595,504.202 332.375,536.895 358.155,494.571 383.935,412.493 409.715,500.374 435.495,438.609 461.275,389.324 487.055,397.527 512.835,422.853 538.615,458.051 564.395,439.033 590.175,505.238 615.955,486.588 641.735,512.391 667.515,569.367 693.295,524.917 719.075,565.439 744.855,529.419 770.635,544.169 796.415,503.562 822.195,493.582 847.975,415.403 873.755,466.007 899.535,559.296 925.316,652.996 951.096,633.25 976.876,687.535 1002.66,709.363 1028.44,807.801 1054.22,790.009 1080,767.795 1105.78,763.221 1131.56,806.538 1157.34,780.074 1183.12,848.684 1208.9,867.83 1234.68,1002.94 1260.46,933.158 1286.24,993.144 1312.02,1035.31 1337.8,1066.21 1363.58,1049.16 1389.36,1072.33 1415.14,1112.5 1440.92,1045.32 1466.7,987.372 1492.48,995.188 1518.26,1087.4 1544.04,1138.98 1569.82,1152.99 1595.6,1135.37 1621.38,1166.14 1647.16,1135.38 1672.94,1078.95 1698.72,1019.24 1724.5,989.895 1750.28,988.761 1776.06,1002.96 1801.84,1014.97 1827.62,1057.95 1853.4,1031.64 1879.18,950.91 1904.96,854.643 1930.74,831.939 1956.52,788.813 1982.3,796.965 2008.08,877.234 2033.86,1000.16 2059.64,980.915 2085.42,1019.61 2111.2,1019.84 2136.98,1051.81 2162.76,1091.8 2188.54,1130.24 2214.32,1148.77 2240.1,1014.12 2265.88,978.048 2291.66,988.781 "/>
<path clip-path="url(#clip461)" d="M255.035 1431.73 L280.815 1356.91 L306.595 1340.33 L332.375 1309.83 L358.155 1296.11 L383.935 1274.56 L409.715 1205.08 L435.495 1143.82 L461.275 1099.98 L487.055 1050.02 L512.835 970.761 L538.615 937.013 L564.395 904.451 L590.175 843.561 L615.955 782.137 L641.735 748.543 L667.515 749.477 L693.295 764.936 L719.075 714.405 L744.855 683.068 L770.635 669.683 L796.415 675.229 L822.195 635.931 L847.975 567.105 L873.755 523.561 L899.535 456.73 L925.316 406.14 L951.096 418.442 L976.876 388.71 L1002.66 422.856 L1028.44 439.843 L1054.22 526.921 L1080 589.924 L1105.78 602.125 L1131.56 591.248 L1157.34 561.521 L1183.12 554.076 L1208.9 518.168 L1234.68 504.211 L1260.46 540.268 L1286.24 529.649 L1312.02 564.003 L1337.8 635.866 L1363.58 720.975 L1389.36 787.946 L1415.14 822.227 L1440.92 855.874 L1466.7 893.156 L1492.48 949.723 L1518.26 940.382 L1544.04 959.94 L1569.82 985.068 L1595.6 1015.74 L1621.38 1012.66 L1647.16 1046.32 L1672.94 1072.84 L1698.72 1077.38 L1724.5 1108.42 L1750.28 1140.56 L1776.06 1198.26 L1801.84 1204.38 L1827.62 1227.54 L1853.4 1247.92 L1879.18 1281.77 L1904.96 1280.82 L1930.74 1248.02 L1956.52 1203.91 L1982.3 1137.54 L2008.08 1111.16 L2033.86 1114.71 L2059.64 1125.63 L2085.42 1164.79 L2111.2 1165.82 L2136.98 1213.29 L2162.76 1264.35 L2188.54 1302.58 L2214.32 1321.88 L2240.1 1363.2 L2265.88 1391.67 L2291.66 1394.36 L2291.66 1133.78 L2265.88 1176.56 L2240.1 1180.59 L2214.32 1118.24 L2188.54 1067.67 L2162.76 1031.42 L2136.98 1000.46 L2111.2 974.021 L2085.42 929.332 L2059.64 933.629 L2033.86 913 L2008.08 903.36 L1982.3 928.746 L1956.52 994.157 L1930.74 1028.15 L1904.96 1072.25 L1879.18 1058.91 L1853.4 1047.87 L1827.62 1002.73 L1801.84 981.93 L1776.06 977.002 L1750.28 908.281 L1724.5 898.355 L1698.72 873.491 L1672.94 840.14 L1647.16 816.068 L1621.38 781.738 L1595.6 816.226 L1569.82 793.426 L1544.04 761.617 L1518.26 730.24 L1492.48 715.513 L1466.7 663.954 L1440.92 614.468 L1415.14 580.456 L1389.36 540.198 L1363.58 489.114 L1337.8 392.533 L1312.02 368.125 L1286.24 337.792 L1260.46 341.154 L1234.68 312.44 L1208.9 307.107 L1183.12 343.366 L1157.34 373.781 L1131.56 369.649 L1105.78 386.091 L1080 369.056 L1054.22 324.545 L1028.44 246.532 L1002.66 221.064 L976.876 215.045 L951.096 231.276 L925.316 193.552 L899.535 245.307 L873.755 290.931 L847.975 349.092 L822.195 392.224 L796.415 452.298 L770.635 470.809 L744.855 469.936 L719.075 498.437 L693.295 546.523 L667.515 552.093 L641.735 541.807 L615.955 565.663 L590.175 638.094 L564.395 696.019 L538.615 728.739 L512.835 748.761 L487.055 838.058 L461.275 885.276 L435.495 937.158 L409.715 1007.33 L383.935 1076.15 L358.155 1100.51 L332.375 1099.08 L306.595 1109.37 L280.815 1128.55 L255.035 1136.98  Z" fill="#e26f46" fill-rule="evenodd" fill-opacity="0.5"/>
<polyline clip-path="url(#clip461)" style="stroke:#e26f46; stroke-linecap:round; stroke-linejoin:round; stroke-width:4; stroke-opacity:1; fill:none" points="255.035,1284.35 280.815,1242.73 306.595,1224.85 332.375,1204.46 358.155,1198.31 383.935,1175.35 409.715,1106.21 435.495,1040.49 461.275,992.629 487.055,944.041 512.835,859.761 538.615,832.876 564.395,800.235 590.175,740.828 615.955,673.9 641.735,645.175 667.515,650.785 693.295,655.73 719.075,606.421 744.855,576.502 770.635,570.246 796.415,563.763 822.195,514.077 847.975,458.099 873.755,407.246 899.535,351.018 925.316,299.846 951.096,324.859 976.876,301.878 1002.66,321.96 1028.44,343.187 1054.22,425.733 1080,479.49 1105.78,494.108 1131.56,480.449 1157.34,467.651 1183.12,448.721 1208.9,412.638 1234.68,408.326 1260.46,440.711 1286.24,433.721 1312.02,466.064 1337.8,514.199 1363.58,605.044 1389.36,664.072 1415.14,701.342 1440.92,735.171 1466.7,778.555 1492.48,832.618 1518.26,835.311 1544.04,860.778 1569.82,889.247 1595.6,915.981 1621.38,897.2 1647.16,931.192 1672.94,956.489 1698.72,975.436 1724.5,1003.39 1750.28,1024.42 1776.06,1087.63 1801.84,1093.16 1827.62,1115.13 1853.4,1147.89 1879.18,1170.34 1904.96,1176.53 1930.74,1138.08 1956.52,1099.03 1982.3,1033.14 2008.08,1007.26 2033.86,1013.85 2059.64,1029.63 2085.42,1047.06 2111.2,1069.92 2136.98,1106.88 2162.76,1147.89 2188.54,1185.13 2214.32,1220.06 2240.1,1271.9 2265.88,1284.11 2291.66,1264.07 "/>
<polyline clip-path="url(#clip461)" style="stroke:#3da44d; stroke-linecap:round; stroke-linejoin:round; stroke-width:4; stroke-opacity:1; fill:none" stroke-dasharray="16, 10" points="255.035,718.304 280.815,560.686 306.595,722.062 332.375,755.216 358.155,731.174 383.935,557.085 409.715,659.721 435.495,645.978 461.275,589.494 487.055,562.369 512.835,474.465 538.615,490.74 564.395,452.644 590.175,455.426 615.955,342.105 641.735,464.019 667.515,566.667 693.295,634.935 719.075,625.509 744.855,564.288 770.635,547.315 796.415,462.662 822.195,432.337 847.975,343.222 873.755,453.882 899.535,508.663 925.316,705.821 951.096,663.554 976.876,696.812 1002.66,824.324 1028.44,913.344 1054.22,948.741 1080,867.777 1105.78,924.49 1131.56,934.302 1157.34,833.774 1183.12,787.818 1208.9,774.456 1234.68,875.055 1260.46,817.795 1286.24,938.662 1312.02,1028.02 1337.8,1043.23 1363.58,1054.66 1389.36,1033.6 1415.14,1101.46 1440.92,1140.68 1466.7,1068.93 1492.48,1057.97 1518.26,1119.84 1544.04,1192.4 1569.82,1125.92 1595.6,1117.42 1621.38,1081.04 1647.16,1070.47 1672.94,1050.47 1698.72,935.172 1724.5,944.203 1750.28,973.432 1776.06,1003.69 1801.84,1001.42 1827.62,1079.21 1853.4,1038.95 1879.18,996.407 1904.96,880.69 1930.74,808.503 1956.52,732.839 1982.3,782.565 2008.08,774.611 2033.86,816.535 2059.64,877.824 2085.42,975.988 2111.2,1016.42 2136.98,1084.86 2162.76,1092.91 2188.54,1195.64 2214.32,1233.92 2240.1,1014.88 2265.88,998.887 2291.66,959.359 "/>
<polyline clip-path="url(#clip461)" style="stroke:#c271d2; stroke-linecap:round; stroke-linejoin:round; stroke-width:4; stroke-opacity:1; fill:none" stroke-dasharray="16, 10" points="255.035,1244.72 280.815,1221.62 306.595,1052.35 332.375,1070.01 358.155,1205.27 383.935,1239.44 409.715,1072.8 435.495,1061.54 461.275,1008.9 487.055,983.948 512.835,933.885 538.615,884.531 564.395,779.758 590.175,834.13 615.955,693.683 641.735,675.769 667.515,618.646 693.295,622.14 719.075,597.229 744.855,630.278 770.635,606.256 796.415,584.746 822.195,509.077 847.975,492.659 873.755,372.602 899.535,297.678 925.316,244.849 951.096,276.463 976.876,307.222 1002.66,355.535 1028.44,419.701 1054.22,451.733 1080,441.317 1105.78,455.96 1131.56,475.692 1157.34,442.478 1183.12,471.913 1208.9,343.11 1234.68,321.983 1260.46,362.074 1286.24,444.479 1312.02,503.979 1337.8,509.662 1363.58,606.096 1389.36,667.723 1415.14,693.45 1440.92,702.797 1466.7,820.65 1492.48,808.958 1518.26,822.519 1544.04,821.236 1569.82,782.044 1595.6,857.914 1621.38,866.975 1647.16,874.451 1672.94,988.416 1698.72,997.032 1724.5,982.996 1750.28,979.826 1776.06,1003.19 1801.84,1015.46 1827.62,1063.42 1853.4,1193.11 1879.18,1178.81 1904.96,1233.33 1930.74,1172.85 1956.52,1173.23 1982.3,1121.96 2008.08,1046.73 2033.86,1058.4 2059.64,1022.19 2085.42,1046.04 2111.2,1100.87 2136.98,1133.76 2162.76,1116.54 2188.54,1197.04 2214.32,1259.33 2240.1,1281.55 2265.88,1313.11 2291.66,1286.96 "/>
<path clip-path="url(#clip460)" d="M1825.15 354.418 L2280.8 354.418 L2280.8 95.2176 L1825.15 95.2176  Z" fill="#ffffff" fill-rule="evenodd" fill-opacity="1"/>
<polyline clip-path="url(#clip460)" style="stroke:#000000; stroke-linecap:round; stroke-linejoin:round; stroke-width:4; stroke-opacity:1; fill:none" points="1825.15,354.418 2280.8,354.418 2280.8,95.2176 1825.15,95.2176 1825.15,354.418 "/>
<polyline clip-path="url(#clip460)" style="stroke:#009af9; stroke-linecap:round; stroke-linejoin:round; stroke-width:4; stroke-opacity:1; fill:none" points="1849.13,147.058 1993.05,147.058 "/>
<path clip-path="url(#clip460)" d="M2021.72 133.62 L2021.72 146.606 L2027.6 146.606 Q2030.86 146.606 2032.64 144.916 Q2034.43 143.227 2034.43 140.102 Q2034.43 137 2032.64 135.31 Q2030.86 133.62 2027.6 133.62 L2021.72 133.62 M2017.04 129.778 L2027.6 129.778 Q2033.41 129.778 2036.37 132.416 Q2039.36 135.032 2039.36 140.102 Q2039.36 145.217 2036.37 147.833 Q2033.41 150.449 2027.6 150.449 L2021.72 150.449 L2021.72 164.338 L2017.04 164.338 L2017.04 129.778 Z" fill="#000000" fill-rule="nonzero" fill-opacity="1" /><path clip-path="url(#clip460)" d="M2045.63 129.778 L2065.49 129.778 L2065.49 133.713 L2050.3 133.713 L2050.3 143.898 L2064.01 143.898 L2064.01 147.833 L2050.3 147.833 L2050.3 164.338 L2045.63 164.338 L2045.63 129.778 Z" fill="#000000" fill-rule="nonzero" fill-opacity="1" /><path clip-path="url(#clip460)" d="M2104.31 139.176 L2104.31 143.203 Q2102.5 142.277 2100.56 141.815 Q2098.61 141.352 2096.53 141.352 Q2093.36 141.352 2091.76 142.324 Q2090.19 143.296 2090.19 145.24 Q2090.19 146.722 2091.32 147.578 Q2092.46 148.412 2095.88 149.176 L2097.34 149.5 Q2101.88 150.472 2103.78 152.254 Q2105.7 154.014 2105.7 157.185 Q2105.7 160.796 2102.83 162.902 Q2099.98 165.009 2094.98 165.009 Q2092.9 165.009 2090.63 164.592 Q2088.38 164.199 2085.88 163.388 L2085.88 158.99 Q2088.24 160.217 2090.54 160.842 Q2092.83 161.444 2095.07 161.444 Q2098.08 161.444 2099.7 160.426 Q2101.32 159.384 2101.32 157.509 Q2101.32 155.773 2100.14 154.847 Q2098.99 153.921 2095.03 153.064 L2093.55 152.717 Q2089.59 151.884 2087.83 150.171 Q2086.07 148.435 2086.07 145.426 Q2086.07 141.768 2088.66 139.778 Q2091.25 137.787 2096.02 137.787 Q2098.38 137.787 2100.47 138.134 Q2102.55 138.481 2104.31 139.176 Z" fill="#000000" fill-rule="nonzero" fill-opacity="1" /><path clip-path="url(#clip460)" d="M2132.67 143.389 Q2134.26 140.518 2136.48 139.153 Q2138.71 137.787 2141.72 137.787 Q2145.77 137.787 2147.97 140.634 Q2150.17 143.458 2150.17 148.689 L2150.17 164.338 L2145.88 164.338 L2145.88 148.828 Q2145.88 145.102 2144.56 143.296 Q2143.24 141.49 2140.54 141.49 Q2137.23 141.49 2135.3 143.69 Q2133.38 145.889 2133.38 149.685 L2133.38 164.338 L2129.1 164.338 L2129.1 148.828 Q2129.1 145.078 2127.78 143.296 Q2126.46 141.49 2123.71 141.49 Q2120.44 141.49 2118.52 143.713 Q2116.6 145.912 2116.6 149.685 L2116.6 164.338 L2112.32 164.338 L2112.32 138.412 L2116.6 138.412 L2116.6 142.44 Q2118.06 140.055 2120.1 138.921 Q2122.13 137.787 2124.93 137.787 Q2127.76 137.787 2129.73 139.222 Q2131.72 140.657 2132.67 143.389 Z" fill="#000000" fill-rule="nonzero" fill-opacity="1" /><path clip-path="url(#clip460)" d="M2168.71 141.398 Q2165.28 141.398 2163.29 144.083 Q2161.3 146.745 2161.3 151.398 Q2161.3 156.051 2163.27 158.736 Q2165.26 161.398 2168.71 161.398 Q2172.11 161.398 2174.1 158.713 Q2176.09 156.027 2176.09 151.398 Q2176.09 146.791 2174.1 144.106 Q2172.11 141.398 2168.71 141.398 M2168.71 137.787 Q2174.26 137.787 2177.43 141.398 Q2180.61 145.009 2180.61 151.398 Q2180.61 157.764 2177.43 161.398 Q2174.26 165.009 2168.71 165.009 Q2163.13 165.009 2159.96 161.398 Q2156.81 157.764 2156.81 151.398 Q2156.81 145.009 2159.96 141.398 Q2163.13 137.787 2168.71 137.787 Z" fill="#000000" fill-rule="nonzero" fill-opacity="1" /><path clip-path="url(#clip460)" d="M2197.71 141.398 Q2194.29 141.398 2192.29 144.083 Q2190.3 146.745 2190.3 151.398 Q2190.3 156.051 2192.27 158.736 Q2194.26 161.398 2197.71 161.398 Q2201.11 161.398 2203.1 158.713 Q2205.1 156.027 2205.1 151.398 Q2205.1 146.791 2203.1 144.106 Q2201.11 141.398 2197.71 141.398 M2197.71 137.787 Q2203.27 137.787 2206.44 141.398 Q2209.61 145.009 2209.61 151.398 Q2209.61 157.764 2206.44 161.398 Q2203.27 165.009 2197.71 165.009 Q2192.13 165.009 2188.96 161.398 Q2185.81 157.764 2185.81 151.398 Q2185.81 145.009 2188.96 141.398 Q2192.13 137.787 2197.71 137.787 Z" fill="#000000" fill-rule="nonzero" fill-opacity="1" /><path clip-path="url(#clip460)" d="M2220.88 131.051 L2220.88 138.412 L2229.66 138.412 L2229.66 141.722 L2220.88 141.722 L2220.88 155.796 Q2220.88 158.967 2221.74 159.87 Q2222.62 160.773 2225.28 160.773 L2229.66 160.773 L2229.66 164.338 L2225.28 164.338 Q2220.35 164.338 2218.48 162.509 Q2216.6 160.657 2216.6 155.796 L2216.6 141.722 L2213.48 141.722 L2213.48 138.412 L2216.6 138.412 L2216.6 131.051 L2220.88 131.051 Z" fill="#000000" fill-rule="nonzero" fill-opacity="1" /><path clip-path="url(#clip460)" d="M2256.81 148.689 L2256.81 164.338 L2252.55 164.338 L2252.55 148.828 Q2252.55 145.148 2251.11 143.319 Q2249.68 141.49 2246.81 141.49 Q2243.36 141.49 2241.37 143.69 Q2239.38 145.889 2239.38 149.685 L2239.38 164.338 L2235.1 164.338 L2235.1 128.319 L2239.38 128.319 L2239.38 142.44 Q2240.91 140.102 2242.97 138.944 Q2245.05 137.787 2247.76 137.787 Q2252.23 137.787 2254.52 140.565 Q2256.81 143.319 2256.81 148.689 Z" fill="#000000" fill-rule="nonzero" fill-opacity="1" /><polyline clip-path="url(#clip460)" style="stroke:#e26f46; stroke-linecap:round; stroke-linejoin:round; stroke-width:4; stroke-opacity:1; fill:none" points="1849.13,198.898 1993.05,198.898 "/>
<path clip-path="url(#clip460)" d="M2021.72 185.46 L2021.72 198.446 L2027.6 198.446 Q2030.86 198.446 2032.64 196.756 Q2034.43 195.067 2034.43 191.942 Q2034.43 188.84 2032.64 187.15 Q2030.86 185.46 2027.6 185.46 L2021.72 185.46 M2017.04 181.618 L2027.6 181.618 Q2033.41 181.618 2036.37 184.256 Q2039.36 186.872 2039.36 191.942 Q2039.36 197.057 2036.37 199.673 Q2033.41 202.289 2027.6 202.289 L2021.72 202.289 L2021.72 216.178 L2017.04 216.178 L2017.04 181.618 Z" fill="#000000" fill-rule="nonzero" fill-opacity="1" /><path clip-path="url(#clip460)" d="M2045.63 181.618 L2065.49 181.618 L2065.49 185.553 L2050.3 185.553 L2050.3 195.738 L2064.01 195.738 L2064.01 199.673 L2050.3 199.673 L2050.3 216.178 L2045.63 216.178 L2045.63 181.618 Z" fill="#000000" fill-rule="nonzero" fill-opacity="1" /><path clip-path="url(#clip460)" d="M2104.31 191.016 L2104.31 195.043 Q2102.5 194.117 2100.56 193.655 Q2098.61 193.192 2096.53 193.192 Q2093.36 193.192 2091.76 194.164 Q2090.19 195.136 2090.19 197.08 Q2090.19 198.562 2091.32 199.418 Q2092.46 200.252 2095.88 201.016 L2097.34 201.34 Q2101.88 202.312 2103.78 204.094 Q2105.7 205.854 2105.7 209.025 Q2105.7 212.636 2102.83 214.742 Q2099.98 216.849 2094.98 216.849 Q2092.9 216.849 2090.63 216.432 Q2088.38 216.039 2085.88 215.228 L2085.88 210.83 Q2088.24 212.057 2090.54 212.682 Q2092.83 213.284 2095.07 213.284 Q2098.08 213.284 2099.7 212.266 Q2101.32 211.224 2101.32 209.349 Q2101.32 207.613 2100.14 206.687 Q2098.99 205.761 2095.03 204.904 L2093.55 204.557 Q2089.59 203.724 2087.83 202.011 Q2086.07 200.275 2086.07 197.266 Q2086.07 193.608 2088.66 191.618 Q2091.25 189.627 2096.02 189.627 Q2098.38 189.627 2100.47 189.974 Q2102.55 190.321 2104.31 191.016 Z" fill="#000000" fill-rule="nonzero" fill-opacity="1" /><path clip-path="url(#clip460)" d="M2132.67 195.229 Q2134.26 192.358 2136.48 190.993 Q2138.71 189.627 2141.72 189.627 Q2145.77 189.627 2147.97 192.474 Q2150.17 195.298 2150.17 200.529 L2150.17 216.178 L2145.88 216.178 L2145.88 200.668 Q2145.88 196.942 2144.56 195.136 Q2143.24 193.33 2140.54 193.33 Q2137.23 193.33 2135.3 195.53 Q2133.38 197.729 2133.38 201.525 L2133.38 216.178 L2129.1 216.178 L2129.1 200.668 Q2129.1 196.918 2127.78 195.136 Q2126.46 193.33 2123.71 193.33 Q2120.44 193.33 2118.52 195.553 Q2116.6 197.752 2116.6 201.525 L2116.6 216.178 L2112.32 216.178 L2112.32 190.252 L2116.6 190.252 L2116.6 194.28 Q2118.06 191.895 2120.1 190.761 Q2122.13 189.627 2124.93 189.627 Q2127.76 189.627 2129.73 191.062 Q2131.72 192.497 2132.67 195.229 Z" fill="#000000" fill-rule="nonzero" fill-opacity="1" /><path clip-path="url(#clip460)" d="M2168.71 193.238 Q2165.28 193.238 2163.29 195.923 Q2161.3 198.585 2161.3 203.238 Q2161.3 207.891 2163.27 210.576 Q2165.26 213.238 2168.71 213.238 Q2172.11 213.238 2174.1 210.553 Q2176.09 207.867 2176.09 203.238 Q2176.09 198.631 2174.1 195.946 Q2172.11 193.238 2168.71 193.238 M2168.71 189.627 Q2174.26 189.627 2177.43 193.238 Q2180.61 196.849 2180.61 203.238 Q2180.61 209.604 2177.43 213.238 Q2174.26 216.849 2168.71 216.849 Q2163.13 216.849 2159.96 213.238 Q2156.81 209.604 2156.81 203.238 Q2156.81 196.849 2159.96 193.238 Q2163.13 189.627 2168.71 189.627 Z" fill="#000000" fill-rule="nonzero" fill-opacity="1" /><path clip-path="url(#clip460)" d="M2197.71 193.238 Q2194.29 193.238 2192.29 195.923 Q2190.3 198.585 2190.3 203.238 Q2190.3 207.891 2192.27 210.576 Q2194.26 213.238 2197.71 213.238 Q2201.11 213.238 2203.1 210.553 Q2205.1 207.867 2205.1 203.238 Q2205.1 198.631 2203.1 195.946 Q2201.11 193.238 2197.71 193.238 M2197.71 189.627 Q2203.27 189.627 2206.44 193.238 Q2209.61 196.849 2209.61 203.238 Q2209.61 209.604 2206.44 213.238 Q2203.27 216.849 2197.71 216.849 Q2192.13 216.849 2188.96 213.238 Q2185.81 209.604 2185.81 203.238 Q2185.81 196.849 2188.96 193.238 Q2192.13 189.627 2197.71 189.627 Z" fill="#000000" fill-rule="nonzero" fill-opacity="1" /><path clip-path="url(#clip460)" d="M2220.88 182.891 L2220.88 190.252 L2229.66 190.252 L2229.66 193.562 L2220.88 193.562 L2220.88 207.636 Q2220.88 210.807 2221.74 211.71 Q2222.62 212.613 2225.28 212.613 L2229.66 212.613 L2229.66 216.178 L2225.28 216.178 Q2220.35 216.178 2218.48 214.349 Q2216.6 212.497 2216.6 207.636 L2216.6 193.562 L2213.48 193.562 L2213.48 190.252 L2216.6 190.252 L2216.6 182.891 L2220.88 182.891 Z" fill="#000000" fill-rule="nonzero" fill-opacity="1" /><path clip-path="url(#clip460)" d="M2256.81 200.529 L2256.81 216.178 L2252.55 216.178 L2252.55 200.668 Q2252.55 196.988 2251.11 195.159 Q2249.68 193.33 2246.81 193.33 Q2243.36 193.33 2241.37 195.53 Q2239.38 197.729 2239.38 201.525 L2239.38 216.178 L2235.1 216.178 L2235.1 180.159 L2239.38 180.159 L2239.38 194.28 Q2240.91 191.942 2242.97 190.784 Q2245.05 189.627 2247.76 189.627 Q2252.23 189.627 2254.52 192.405 Q2256.81 195.159 2256.81 200.529 Z" fill="#000000" fill-rule="nonzero" fill-opacity="1" /><polyline clip-path="url(#clip460)" style="stroke:#3da44d; stroke-linecap:round; stroke-linejoin:round; stroke-width:4; stroke-opacity:1; fill:none" stroke-dasharray="16, 10" points="1849.13,250.738 1993.05,250.738 "/>
<path clip-path="url(#clip460)" d="M2017.04 233.458 L2046.28 233.458 L2046.28 237.393 L2034.01 237.393 L2034.01 268.018 L2029.31 268.018 L2029.31 237.393 L2017.04 237.393 L2017.04 233.458 Z" fill="#000000" fill-rule="nonzero" fill-opacity="1" /><path clip-path="url(#clip460)" d="M2058.66 246.073 Q2057.94 245.657 2057.09 245.471 Q2056.25 245.263 2055.24 245.263 Q2051.62 245.263 2049.68 247.624 Q2047.76 249.962 2047.76 254.36 L2047.76 268.018 L2043.48 268.018 L2043.48 242.092 L2047.76 242.092 L2047.76 246.12 Q2049.1 243.758 2051.25 242.624 Q2053.41 241.467 2056.49 241.467 Q2056.93 241.467 2057.46 241.536 Q2057.99 241.583 2058.64 241.698 L2058.66 246.073 Z" fill="#000000" fill-rule="nonzero" fill-opacity="1" /><path clip-path="url(#clip460)" d="M2062.69 257.786 L2062.69 242.092 L2066.95 242.092 L2066.95 257.624 Q2066.95 261.305 2068.38 263.156 Q2069.82 264.985 2072.69 264.985 Q2076.14 264.985 2078.13 262.786 Q2080.14 260.587 2080.14 256.791 L2080.14 242.092 L2084.4 242.092 L2084.4 268.018 L2080.14 268.018 L2080.14 264.036 Q2078.59 266.397 2076.53 267.555 Q2074.49 268.689 2071.79 268.689 Q2067.32 268.689 2065 265.911 Q2062.69 263.133 2062.69 257.786 M2073.41 241.467 L2073.41 241.467 Z" fill="#000000" fill-rule="nonzero" fill-opacity="1" /><path clip-path="url(#clip460)" d="M2115.35 253.99 L2115.35 256.073 L2095.77 256.073 Q2096.05 260.471 2098.41 262.786 Q2100.79 265.078 2105.03 265.078 Q2107.48 265.078 2109.77 264.476 Q2112.09 263.874 2114.36 262.67 L2114.36 266.698 Q2112.06 267.67 2109.66 268.18 Q2107.25 268.689 2104.77 268.689 Q2098.57 268.689 2094.93 265.078 Q2091.32 261.467 2091.32 255.309 Q2091.32 248.944 2094.75 245.217 Q2098.2 241.467 2104.03 241.467 Q2109.26 241.467 2112.3 244.846 Q2115.35 248.203 2115.35 253.99 M2111.09 252.74 Q2111.05 249.245 2109.12 247.161 Q2107.23 245.078 2104.08 245.078 Q2100.51 245.078 2098.36 247.092 Q2096.23 249.106 2095.91 252.763 L2111.09 252.74 Z" fill="#000000" fill-rule="nonzero" fill-opacity="1" /><polyline clip-path="url(#clip460)" style="stroke:#c271d2; stroke-linecap:round; stroke-linejoin:round; stroke-width:4; stroke-opacity:1; fill:none" stroke-dasharray="16, 10" points="1849.13,302.578 1993.05,302.578 "/>
<path clip-path="url(#clip460)" d="M2017.04 285.298 L2046.28 285.298 L2046.28 289.233 L2034.01 289.233 L2034.01 319.858 L2029.31 319.858 L2029.31 289.233 L2017.04 289.233 L2017.04 285.298 Z" fill="#000000" fill-rule="nonzero" fill-opacity="1" /><path clip-path="url(#clip460)" d="M2058.66 297.913 Q2057.94 297.497 2057.09 297.311 Q2056.25 297.103 2055.24 297.103 Q2051.62 297.103 2049.68 299.464 Q2047.76 301.802 2047.76 306.2 L2047.76 319.858 L2043.48 319.858 L2043.48 293.932 L2047.76 293.932 L2047.76 297.96 Q2049.1 295.598 2051.25 294.464 Q2053.41 293.307 2056.49 293.307 Q2056.93 293.307 2057.46 293.376 Q2057.99 293.423 2058.64 293.538 L2058.66 297.913 Z" fill="#000000" fill-rule="nonzero" fill-opacity="1" /><path clip-path="url(#clip460)" d="M2062.69 309.626 L2062.69 293.932 L2066.95 293.932 L2066.95 309.464 Q2066.95 313.145 2068.38 314.996 Q2069.82 316.825 2072.69 316.825 Q2076.14 316.825 2078.13 314.626 Q2080.14 312.427 2080.14 308.631 L2080.14 293.932 L2084.4 293.932 L2084.4 319.858 L2080.14 319.858 L2080.14 315.876 Q2078.59 318.237 2076.53 319.395 Q2074.49 320.529 2071.79 320.529 Q2067.32 320.529 2065 317.751 Q2062.69 314.973 2062.69 309.626 M2073.41 293.307 L2073.41 293.307 Z" fill="#000000" fill-rule="nonzero" fill-opacity="1" /><path clip-path="url(#clip460)" d="M2115.35 305.83 L2115.35 307.913 L2095.77 307.913 Q2096.05 312.311 2098.41 314.626 Q2100.79 316.918 2105.03 316.918 Q2107.48 316.918 2109.77 316.316 Q2112.09 315.714 2114.36 314.51 L2114.36 318.538 Q2112.06 319.51 2109.66 320.02 Q2107.25 320.529 2104.77 320.529 Q2098.57 320.529 2094.93 316.918 Q2091.32 313.307 2091.32 307.149 Q2091.32 300.784 2094.75 297.057 Q2098.2 293.307 2104.03 293.307 Q2109.26 293.307 2112.3 296.686 Q2115.35 300.043 2115.35 305.83 M2111.09 304.58 Q2111.05 301.085 2109.12 299.001 Q2107.23 296.918 2104.08 296.918 Q2100.51 296.918 2098.36 298.932 Q2096.23 300.946 2095.91 304.603 L2111.09 304.58 Z" fill="#000000" fill-rule="nonzero" fill-opacity="1" /></svg>
