<?xml version="1.0" encoding="utf-8"?>
<svg xmlns="http://www.w3.org/2000/svg" xmlns:xlink="http://www.w3.org/1999/xlink" width="600" height="400" viewBox="0 0 2400 1600">
<defs>
  <clipPath id="clip560">
    <rect x="0" y="0" width="2400" height="1600"/>
  </clipPath>
</defs>
<path clip-path="url(#clip560)" d="M0 1600 L2400 1600 L2400 0 L0 0  Z" fill="#ffffff" fill-rule="evenodd" fill-opacity="1"/>
<defs>
  <clipPath id="clip561">
    <rect x="239" y="123" width="2115" height="1288"/>
  </clipPath>
</defs>
<path clip-path="url(#clip560)" d="M239.19 1410.9 L2352.76 1410.9 L2352.76 123.472 L239.19 123.472  Z" fill="#ffffff" fill-rule="evenodd" fill-opacity="1"/>
<polyline clip-path="url(#clip561)" style="stroke:#000000; stroke-linecap:round; stroke-linejoin:round; stroke-width:2; stroke-opacity:0.1; fill:none" points="1096.58,1410.9 1096.58,123.472 "/>
<polyline clip-path="url(#clip561)" style="stroke:#000000; stroke-linecap:round; stroke-linejoin:round; stroke-width:2; stroke-opacity:0.1; fill:none" points="2093.55,1410.9 2093.55,123.472 "/>
<polyline clip-path="url(#clip561)" style="stroke:#000000; stroke-linecap:round; stroke-linejoin:round; stroke-width:2; stroke-opacity:0.1; fill:none" points="239.19,1210.09 2352.76,1210.09 "/>
<polyline clip-path="url(#clip561)" style="stroke:#000000; stroke-linecap:round; stroke-linejoin:round; stroke-width:2; stroke-opacity:0.1; fill:none" points="239.19,969.203 2352.76,969.203 "/>
<polyline clip-path="url(#clip561)" style="stroke:#000000; stroke-linecap:round; stroke-linejoin:round; stroke-width:2; stroke-opacity:0.1; fill:none" points="239.19,728.314 2352.76,728.314 "/>
<polyline clip-path="url(#clip561)" style="stroke:#000000; stroke-linecap:round; stroke-linejoin:round; stroke-width:2; stroke-opacity:0.1; fill:none" points="239.19,487.425 2352.76,487.425 "/>
<polyline clip-path="url(#clip561)" style="stroke:#000000; stroke-linecap:round; stroke-linejoin:round; stroke-width:2; stroke-opacity:0.1; fill:none" points="239.19,246.536 2352.76,246.536 "/>
<polyline clip-path="url(#clip560)" style="stroke:#000000; stroke-linecap:round; stroke-linejoin:round; stroke-width:4; stroke-opacity:1; fill:none" points="239.19,1410.9 2352.76,1410.9 "/>
<polyline clip-path="url(#clip560)" style="stroke:#000000; stroke-linecap:round; stroke-linejoin:round; stroke-width:4; stroke-opacity:1; fill:none" points="1096.58,1410.9 1096.58,1392 "/>
<polyline clip-path="url(#clip560)" style="stroke:#000000; stroke-linecap:round; stroke-linejoin:round; stroke-width:4; stroke-opacity:1; fill:none" points="2093.55,1410.9 2093.55,1392 "/>
<path clip-path="url(#clip560)" d="M1061.56 1485.02 L1069.2 1485.02 L1069.2 1458.66 L1060.89 1460.32 L1060.89 1456.06 L1069.16 1454.4 L1073.83 1454.4 L1073.83 1485.02 L1081.47 1485.02 L1081.47 1488.96 L1061.56 1488.96 L1061.56 1485.02 Z" fill="#000000" fill-rule="nonzero" fill-opacity="1" /><path clip-path="url(#clip560)" d="M1100.91 1457.48 Q1097.3 1457.48 1095.47 1461.04 Q1093.67 1464.58 1093.67 1471.71 Q1093.67 1478.82 1095.47 1482.38 Q1097.3 1485.92 1100.91 1485.92 Q1104.55 1485.92 1106.35 1482.38 Q1108.18 1478.82 1108.18 1471.71 Q1108.18 1464.58 1106.35 1461.04 Q1104.55 1457.48 1100.91 1457.48 M1100.91 1453.77 Q1106.72 1453.77 1109.78 1458.38 Q1112.86 1462.96 1112.86 1471.71 Q1112.86 1480.44 1109.78 1485.04 Q1106.72 1489.63 1100.91 1489.63 Q1095.1 1489.63 1092.03 1485.04 Q1088.97 1480.44 1088.97 1471.71 Q1088.97 1462.96 1092.03 1458.38 Q1095.1 1453.77 1100.91 1453.77 Z" fill="#000000" fill-rule="nonzero" fill-opacity="1" /><path clip-path="url(#clip560)" d="M1122.56 1435.97 Q1119.63 1435.97 1118.14 1438.86 Q1116.68 1441.74 1116.68 1447.53 Q1116.68 1453.31 1118.14 1456.2 Q1119.63 1459.08 1122.56 1459.08 Q1125.52 1459.08 1126.98 1456.2 Q1128.47 1453.31 1128.47 1447.53 Q1128.47 1441.74 1126.98 1438.86 Q1125.52 1435.97 1122.56 1435.97 M1122.56 1432.96 Q1127.28 1432.96 1129.77 1436.7 Q1132.27 1440.43 1132.27 1447.53 Q1132.27 1454.62 1129.77 1458.37 Q1127.28 1462.09 1122.56 1462.09 Q1117.84 1462.09 1115.34 1458.37 Q1112.86 1454.62 1112.86 1447.53 Q1112.86 1440.43 1115.34 1436.7 Q1117.84 1432.96 1122.56 1432.96 Z" fill="#000000" fill-rule="nonzero" fill-opacity="1" /><path clip-path="url(#clip560)" d="M2059.87 1485.02 L2067.51 1485.02 L2067.51 1458.66 L2059.2 1460.32 L2059.2 1456.06 L2067.47 1454.4 L2072.14 1454.4 L2072.14 1485.02 L2079.78 1485.02 L2079.78 1488.96 L2059.87 1488.96 L2059.87 1485.02 Z" fill="#000000" fill-rule="nonzero" fill-opacity="1" /><path clip-path="url(#clip560)" d="M2099.22 1457.48 Q2095.61 1457.48 2093.78 1461.04 Q2091.98 1464.58 2091.98 1471.71 Q2091.98 1478.82 2093.78 1482.38 Q2095.61 1485.92 2099.22 1485.92 Q2102.86 1485.92 2104.66 1482.38 Q2106.49 1478.82 2106.49 1471.71 Q2106.49 1464.58 2104.66 1461.04 Q2102.86 1457.48 2099.22 1457.48 M2099.22 1453.77 Q2105.03 1453.77 2108.09 1458.38 Q2111.17 1462.96 2111.17 1471.71 Q2111.17 1480.44 2108.09 1485.04 Q2105.03 1489.63 2099.22 1489.63 Q2093.41 1489.63 2090.34 1485.04 Q2087.28 1480.44 2087.28 1471.71 Q2087.28 1462.96 2090.34 1458.38 Q2093.41 1453.77 2099.22 1453.77 Z" fill="#000000" fill-rule="nonzero" fill-opacity="1" /><path clip-path="url(#clip560)" d="M2111.71 1458.35 L2117.92 1458.35 L2117.92 1436.93 L2111.17 1438.28 L2111.17 1434.82 L2117.88 1433.47 L2121.68 1433.47 L2121.68 1458.35 L2127.89 1458.35 L2127.89 1461.55 L2111.71 1461.55 L2111.71 1458.35 Z" fill="#000000" fill-rule="nonzero" fill-opacity="1" /><path clip-path="url(#clip560)" d="M733.834 1531.95 L733.834 1568.9 L741.6 1568.9 Q751.435 1568.9 755.986 1564.45 Q760.569 1559.99 760.569 1550.38 Q760.569 1540.83 755.986 1536.4 Q751.435 1531.95 741.6 1531.95 L733.834 1531.95 M727.404 1526.67 L740.613 1526.67 Q754.427 1526.67 760.888 1532.43 Q767.349 1538.16 767.349 1550.38 Q767.349 1562.66 760.856 1568.42 Q754.363 1574.19 740.613 1574.19 L727.404 1574.19 L727.404 1526.67 Z" fill="#000000" fill-rule="nonzero" fill-opacity="1" /><path clip-path="url(#clip560)" d="M792.175 1577.5 Q789.693 1583.86 787.337 1585.8 Q784.982 1587.74 781.035 1587.74 L776.356 1587.74 L776.356 1582.84 L779.794 1582.84 Q782.213 1582.84 783.55 1581.7 Q784.886 1580.55 786.51 1576.29 L787.56 1573.61 L773.142 1538.54 L779.348 1538.54 L790.488 1566.42 L801.628 1538.54 L807.835 1538.54 L792.175 1577.5 Z" fill="#000000" fill-rule="nonzero" fill-opacity="1" /><path clip-path="url(#clip560)" d="M845.552 1552.67 L845.552 1574.19 L839.695 1574.19 L839.695 1552.86 Q839.695 1547.8 837.722 1545.29 Q835.748 1542.77 831.802 1542.77 Q827.059 1542.77 824.322 1545.79 Q821.585 1548.82 821.585 1554.04 L821.585 1574.19 L815.696 1574.19 L815.696 1538.54 L821.585 1538.54 L821.585 1544.08 Q823.685 1540.86 826.518 1539.27 Q829.383 1537.68 833.107 1537.68 Q839.25 1537.68 842.401 1541.5 Q845.552 1545.29 845.552 1552.67 Z" fill="#000000" fill-rule="nonzero" fill-opacity="1" /><path clip-path="url(#clip560)" d="M873.433 1556.27 Q866.336 1556.27 863.598 1557.89 Q860.861 1559.51 860.861 1563.43 Q860.861 1566.55 862.898 1568.39 Q864.967 1570.21 868.5 1570.21 Q873.37 1570.21 876.298 1566.77 Q879.258 1563.3 879.258 1557.57 L879.258 1556.27 L873.433 1556.27 M885.115 1553.85 L885.115 1574.19 L879.258 1574.19 L879.258 1568.77 Q877.253 1572.02 874.261 1573.58 Q871.269 1575.11 866.94 1575.11 Q861.466 1575.11 858.219 1572.05 Q855.005 1568.97 855.005 1563.81 Q855.005 1557.79 859.015 1554.74 Q863.057 1551.68 871.046 1551.68 L879.258 1551.68 L879.258 1551.11 Q879.258 1547.07 876.584 1544.87 Q873.943 1542.64 869.137 1542.64 Q866.081 1542.64 863.185 1543.38 Q860.288 1544.11 857.615 1545.57 L857.615 1540.16 Q860.829 1538.92 863.853 1538.31 Q866.877 1537.68 869.741 1537.68 Q877.476 1537.68 881.295 1541.69 Q885.115 1545.7 885.115 1553.85 Z" fill="#000000" fill-rule="nonzero" fill-opacity="1" /><path clip-path="url(#clip560)" d="M924.932 1545.38 Q927.128 1541.43 930.184 1539.56 Q933.239 1537.68 937.377 1537.68 Q942.947 1537.68 945.971 1541.59 Q948.994 1545.48 948.994 1552.67 L948.994 1574.19 L943.106 1574.19 L943.106 1552.86 Q943.106 1547.74 941.292 1545.25 Q939.478 1542.77 935.754 1542.77 Q931.202 1542.77 928.56 1545.79 Q925.919 1548.82 925.919 1554.04 L925.919 1574.19 L920.03 1574.19 L920.03 1552.86 Q920.03 1547.7 918.216 1545.25 Q916.402 1542.77 912.614 1542.77 Q908.127 1542.77 905.485 1545.83 Q902.843 1548.85 902.843 1554.04 L902.843 1574.19 L896.955 1574.19 L896.955 1538.54 L902.843 1538.54 L902.843 1544.08 Q904.848 1540.8 907.649 1539.24 Q910.45 1537.68 914.301 1537.68 Q918.184 1537.68 920.89 1539.65 Q923.627 1541.62 924.932 1545.38 Z" fill="#000000" fill-rule="nonzero" fill-opacity="1" /><path clip-path="url(#clip560)" d="M960.675 1538.54 L966.532 1538.54 L966.532 1574.19 L960.675 1574.19 L960.675 1538.54 M960.675 1524.66 L966.532 1524.66 L966.532 1532.08 L960.675 1532.08 L960.675 1524.66 Z" fill="#000000" fill-rule="nonzero" fill-opacity="1" /><path clip-path="url(#clip560)" d="M1004.44 1539.91 L1004.44 1545.38 Q1001.96 1544.01 999.443 1543.34 Q996.96 1542.64 994.414 1542.64 Q988.716 1542.64 985.565 1546.27 Q982.414 1549.87 982.414 1556.39 Q982.414 1562.92 985.565 1566.55 Q988.716 1570.14 994.414 1570.14 Q996.96 1570.14 999.443 1569.47 Q1001.96 1568.77 1004.44 1567.41 L1004.44 1572.82 Q1001.99 1573.96 999.347 1574.54 Q996.737 1575.11 993.777 1575.11 Q985.725 1575.11 980.982 1570.05 Q976.24 1564.99 976.24 1556.39 Q976.24 1547.67 981.014 1542.68 Q985.82 1537.68 994.159 1537.68 Q996.865 1537.68 999.443 1538.25 Q1002.02 1538.79 1004.44 1539.91 Z" fill="#000000" fill-rule="nonzero" fill-opacity="1" /><path clip-path="url(#clip560)" d="M1037.35 1539.59 L1037.35 1545.13 Q1034.87 1543.85 1032.19 1543.22 Q1029.52 1542.58 1026.66 1542.58 Q1022.3 1542.58 1020.1 1543.92 Q1017.93 1545.25 1017.93 1547.93 Q1017.93 1549.96 1019.49 1551.14 Q1021.05 1552.29 1025.76 1553.34 L1027.77 1553.78 Q1034.01 1555.12 1036.62 1557.57 Q1039.26 1559.99 1039.26 1564.35 Q1039.26 1569.32 1035.31 1572.21 Q1031.4 1575.11 1024.52 1575.11 Q1021.66 1575.11 1018.54 1574.54 Q1015.45 1573.99 1012.01 1572.88 L1012.01 1566.83 Q1015.26 1568.52 1018.41 1569.38 Q1021.56 1570.21 1024.65 1570.21 Q1028.79 1570.21 1031.02 1568.81 Q1033.24 1567.37 1033.24 1564.8 Q1033.24 1562.41 1031.62 1561.14 Q1030.03 1559.86 1024.59 1558.68 L1022.55 1558.21 Q1017.11 1557.06 1014.69 1554.71 Q1012.27 1552.32 1012.27 1548.18 Q1012.27 1543.15 1015.83 1540.42 Q1019.4 1537.68 1025.96 1537.68 Q1029.2 1537.68 1032.07 1538.16 Q1034.93 1538.63 1037.35 1539.59 Z" fill="#000000" fill-rule="nonzero" fill-opacity="1" /><path clip-path="url(#clip560)" d="M1098.94 1552.67 L1098.94 1574.19 L1093.08 1574.19 L1093.08 1552.86 Q1093.08 1547.8 1091.11 1545.29 Q1089.14 1542.77 1085.19 1542.77 Q1080.45 1542.77 1077.71 1545.79 Q1074.97 1548.82 1074.97 1554.04 L1074.97 1574.19 L1069.08 1574.19 L1069.08 1538.54 L1074.97 1538.54 L1074.97 1544.08 Q1077.07 1540.86 1079.91 1539.27 Q1082.77 1537.68 1086.49 1537.68 Q1092.64 1537.68 1095.79 1541.5 Q1098.94 1545.29 1098.94 1552.67 Z" fill="#000000" fill-rule="nonzero" fill-opacity="1" /><path clip-path="url(#clip560)" d="M1124.43 1542.64 Q1119.72 1542.64 1116.99 1546.34 Q1114.25 1550 1114.25 1556.39 Q1114.25 1562.79 1116.95 1566.48 Q1119.69 1570.14 1124.43 1570.14 Q1129.11 1570.14 1131.85 1566.45 Q1134.59 1562.76 1134.59 1556.39 Q1134.59 1550.06 1131.85 1546.37 Q1129.11 1542.64 1124.43 1542.64 M1124.43 1537.68 Q1132.07 1537.68 1136.43 1542.64 Q1140.79 1547.61 1140.79 1556.39 Q1140.79 1565.15 1136.43 1570.14 Q1132.07 1575.11 1124.43 1575.11 Q1116.76 1575.11 1112.4 1570.14 Q1108.07 1565.15 1108.07 1556.39 Q1108.07 1547.61 1112.4 1542.64 Q1116.76 1537.68 1124.43 1537.68 Z" fill="#000000" fill-rule="nonzero" fill-opacity="1" /><path clip-path="url(#clip560)" d="M1150.5 1538.54 L1156.36 1538.54 L1156.36 1574.19 L1150.5 1574.19 L1150.5 1538.54 M1150.5 1524.66 L1156.36 1524.66 L1156.36 1532.08 L1150.5 1532.08 L1150.5 1524.66 Z" fill="#000000" fill-rule="nonzero" fill-opacity="1" /><path clip-path="url(#clip560)" d="M1191.34 1539.59 L1191.34 1545.13 Q1188.85 1543.85 1186.18 1543.22 Q1183.51 1542.58 1180.64 1542.58 Q1176.28 1542.58 1174.09 1543.92 Q1171.92 1545.25 1171.92 1547.93 Q1171.92 1549.96 1173.48 1551.14 Q1175.04 1552.29 1179.75 1553.34 L1181.76 1553.78 Q1187.99 1555.12 1190.6 1557.57 Q1193.25 1559.99 1193.25 1564.35 Q1193.25 1569.32 1189.3 1572.21 Q1185.38 1575.11 1178.51 1575.11 Q1175.65 1575.11 1172.53 1574.54 Q1169.44 1573.99 1166 1572.88 L1166 1566.83 Q1169.25 1568.52 1172.4 1569.38 Q1175.55 1570.21 1178.64 1570.21 Q1182.77 1570.21 1185 1568.81 Q1187.23 1567.37 1187.23 1564.8 Q1187.23 1562.41 1185.61 1561.14 Q1184.02 1559.86 1178.57 1558.68 L1176.54 1558.21 Q1171.09 1557.06 1168.67 1554.71 Q1166.26 1552.32 1166.26 1548.18 Q1166.26 1543.15 1169.82 1540.42 Q1173.39 1537.68 1179.94 1537.68 Q1183.19 1537.68 1186.05 1538.16 Q1188.92 1538.63 1191.34 1539.59 Z" fill="#000000" fill-rule="nonzero" fill-opacity="1" /><path clip-path="url(#clip560)" d="M1233.06 1554.9 L1233.06 1557.76 L1206.14 1557.76 Q1206.52 1563.81 1209.77 1566.99 Q1213.04 1570.14 1218.87 1570.14 Q1222.24 1570.14 1225.39 1569.32 Q1228.58 1568.49 1231.7 1566.83 L1231.7 1572.37 Q1228.54 1573.71 1225.23 1574.41 Q1221.92 1575.11 1218.52 1575.11 Q1209.99 1575.11 1204.99 1570.14 Q1200.03 1565.18 1200.03 1556.71 Q1200.03 1547.96 1204.74 1542.83 Q1209.48 1537.68 1217.5 1537.68 Q1224.69 1537.68 1228.86 1542.33 Q1233.06 1546.94 1233.06 1554.9 M1227.21 1553.18 Q1227.14 1548.37 1224.5 1545.51 Q1221.89 1542.64 1217.56 1542.64 Q1212.66 1542.64 1209.7 1545.41 Q1206.77 1548.18 1206.33 1553.21 L1227.21 1553.18 Z" fill="#000000" fill-rule="nonzero" fill-opacity="1" /><path clip-path="url(#clip560)" d="M1286.12 1539.59 L1286.12 1545.13 Q1283.64 1543.85 1280.97 1543.22 Q1278.29 1542.58 1275.43 1542.58 Q1271.07 1542.58 1268.87 1543.92 Q1266.71 1545.25 1266.71 1547.93 Q1266.71 1549.96 1268.27 1551.14 Q1269.83 1552.29 1274.54 1553.34 L1276.54 1553.78 Q1282.78 1555.12 1285.39 1557.57 Q1288.03 1559.99 1288.03 1564.35 Q1288.03 1569.32 1284.09 1572.21 Q1280.17 1575.11 1273.3 1575.11 Q1270.43 1575.11 1267.31 1574.54 Q1264.22 1573.99 1260.79 1572.88 L1260.79 1566.83 Q1264.03 1568.52 1267.18 1569.38 Q1270.34 1570.21 1273.42 1570.21 Q1277.56 1570.21 1279.79 1568.81 Q1282.02 1567.37 1282.02 1564.8 Q1282.02 1562.41 1280.39 1561.14 Q1278.8 1559.86 1273.36 1558.68 L1271.32 1558.21 Q1265.88 1557.06 1263.46 1554.71 Q1261.04 1552.32 1261.04 1548.18 Q1261.04 1543.15 1264.61 1540.42 Q1268.17 1537.68 1274.73 1537.68 Q1277.97 1537.68 1280.84 1538.16 Q1283.7 1538.63 1286.12 1539.59 Z" fill="#000000" fill-rule="nonzero" fill-opacity="1" /><path clip-path="url(#clip560)" d="M1303.15 1528.42 L1303.15 1538.54 L1315.21 1538.54 L1315.21 1543.09 L1303.15 1543.09 L1303.15 1562.44 Q1303.15 1566.8 1304.33 1568.04 Q1305.54 1569.28 1309.2 1569.28 L1315.21 1569.28 L1315.21 1574.19 L1309.2 1574.19 Q1302.42 1574.19 1299.84 1571.67 Q1297.26 1569.12 1297.26 1562.44 L1297.26 1543.09 L1292.97 1543.09 L1292.97 1538.54 L1297.26 1538.54 L1297.26 1528.42 L1303.15 1528.42 Z" fill="#000000" fill-rule="nonzero" fill-opacity="1" /><path clip-path="url(#clip560)" d="M1339.12 1556.27 Q1332.02 1556.27 1329.28 1557.89 Q1326.54 1559.51 1326.54 1563.43 Q1326.54 1566.55 1328.58 1568.39 Q1330.65 1570.21 1334.18 1570.21 Q1339.05 1570.21 1341.98 1566.77 Q1344.94 1563.3 1344.94 1557.57 L1344.94 1556.27 L1339.12 1556.27 M1350.8 1553.85 L1350.8 1574.19 L1344.94 1574.19 L1344.94 1568.77 Q1342.94 1572.02 1339.94 1573.58 Q1336.95 1575.11 1332.62 1575.11 Q1327.15 1575.11 1323.9 1572.05 Q1320.69 1568.97 1320.69 1563.81 Q1320.69 1557.79 1324.7 1554.74 Q1328.74 1551.68 1336.73 1551.68 L1344.94 1551.68 L1344.94 1551.11 Q1344.94 1547.07 1342.27 1544.87 Q1339.63 1542.64 1334.82 1542.64 Q1331.76 1542.64 1328.87 1543.38 Q1325.97 1544.11 1323.3 1545.57 L1323.3 1540.16 Q1326.51 1538.92 1329.54 1538.31 Q1332.56 1537.68 1335.42 1537.68 Q1343.16 1537.68 1346.98 1541.69 Q1350.8 1545.7 1350.8 1553.85 Z" fill="#000000" fill-rule="nonzero" fill-opacity="1" /><path clip-path="url(#clip560)" d="M1392.49 1552.67 L1392.49 1574.19 L1386.64 1574.19 L1386.64 1552.86 Q1386.64 1547.8 1384.66 1545.29 Q1382.69 1542.77 1378.74 1542.77 Q1374 1542.77 1371.26 1545.79 Q1368.53 1548.82 1368.53 1554.04 L1368.53 1574.19 L1362.64 1574.19 L1362.64 1538.54 L1368.53 1538.54 L1368.53 1544.08 Q1370.63 1540.86 1373.46 1539.27 Q1376.32 1537.68 1380.05 1537.68 Q1386.19 1537.68 1389.34 1541.5 Q1392.49 1545.29 1392.49 1552.67 Z" fill="#000000" fill-rule="nonzero" fill-opacity="1" /><path clip-path="url(#clip560)" d="M1427.63 1543.95 L1427.63 1524.66 L1433.49 1524.66 L1433.49 1574.19 L1427.63 1574.19 L1427.63 1568.84 Q1425.79 1572.02 1422.95 1573.58 Q1420.15 1575.11 1416.21 1575.11 Q1409.74 1575.11 1405.67 1569.95 Q1401.63 1564.8 1401.63 1556.39 Q1401.63 1547.99 1405.67 1542.83 Q1409.74 1537.68 1416.21 1537.68 Q1420.15 1537.68 1422.95 1539.24 Q1425.79 1540.77 1427.63 1543.95 M1407.68 1556.39 Q1407.68 1562.85 1410.32 1566.55 Q1412.99 1570.21 1417.64 1570.21 Q1422.28 1570.21 1424.96 1566.55 Q1427.63 1562.85 1427.63 1556.39 Q1427.63 1549.93 1424.96 1546.27 Q1422.28 1542.58 1417.64 1542.58 Q1412.99 1542.58 1410.32 1546.27 Q1407.68 1549.93 1407.68 1556.39 Z" fill="#000000" fill-rule="nonzero" fill-opacity="1" /><path clip-path="url(#clip560)" d="M1461.75 1556.27 Q1454.65 1556.27 1451.92 1557.89 Q1449.18 1559.51 1449.18 1563.43 Q1449.18 1566.55 1451.22 1568.39 Q1453.29 1570.21 1456.82 1570.21 Q1461.69 1570.21 1464.62 1566.77 Q1467.58 1563.3 1467.58 1557.57 L1467.58 1556.27 L1461.75 1556.27 M1473.43 1553.85 L1473.43 1574.19 L1467.58 1574.19 L1467.58 1568.77 Q1465.57 1572.02 1462.58 1573.58 Q1459.59 1575.11 1455.26 1575.11 Q1449.78 1575.11 1446.54 1572.05 Q1443.32 1568.97 1443.32 1563.81 Q1443.32 1557.79 1447.33 1554.74 Q1451.38 1551.68 1459.36 1551.68 L1467.58 1551.68 L1467.58 1551.11 Q1467.58 1547.07 1464.9 1544.87 Q1462.26 1542.64 1457.46 1542.64 Q1454.4 1542.64 1451.5 1543.38 Q1448.61 1544.11 1445.93 1545.57 L1445.93 1540.16 Q1449.15 1538.92 1452.17 1538.31 Q1455.2 1537.68 1458.06 1537.68 Q1465.79 1537.68 1469.61 1541.69 Q1473.43 1545.7 1473.43 1553.85 Z" fill="#000000" fill-rule="nonzero" fill-opacity="1" /><path clip-path="url(#clip560)" d="M1506.15 1544.01 Q1505.17 1543.44 1503.99 1543.18 Q1502.84 1542.9 1501.44 1542.9 Q1496.48 1542.9 1493.8 1546.14 Q1491.16 1549.36 1491.16 1555.41 L1491.16 1574.19 L1485.27 1574.19 L1485.27 1538.54 L1491.16 1538.54 L1491.16 1544.08 Q1493.01 1540.83 1495.97 1539.27 Q1498.93 1537.68 1503.16 1537.68 Q1503.77 1537.68 1504.5 1537.77 Q1505.23 1537.84 1506.12 1538 L1506.15 1544.01 Z" fill="#000000" fill-rule="nonzero" fill-opacity="1" /><path clip-path="url(#clip560)" d="M1534.61 1543.95 L1534.61 1524.66 L1540.46 1524.66 L1540.46 1574.19 L1534.61 1574.19 L1534.61 1568.84 Q1532.76 1572.02 1529.93 1573.58 Q1527.13 1575.11 1523.18 1575.11 Q1516.72 1575.11 1512.65 1569.95 Q1508.6 1564.8 1508.6 1556.39 Q1508.6 1547.99 1512.65 1542.83 Q1516.72 1537.68 1523.18 1537.68 Q1527.13 1537.68 1529.93 1539.24 Q1532.76 1540.77 1534.61 1543.95 M1514.65 1556.39 Q1514.65 1562.85 1517.29 1566.55 Q1519.97 1570.21 1524.61 1570.21 Q1529.26 1570.21 1531.93 1566.55 Q1534.61 1562.85 1534.61 1556.39 Q1534.61 1549.93 1531.93 1546.27 Q1529.26 1542.58 1524.61 1542.58 Q1519.97 1542.58 1517.29 1546.27 Q1514.65 1549.93 1514.65 1556.39 Z" fill="#000000" fill-rule="nonzero" fill-opacity="1" /><path clip-path="url(#clip560)" d="M1596.71 1543.95 L1596.71 1524.66 L1602.56 1524.66 L1602.56 1574.19 L1596.71 1574.19 L1596.71 1568.84 Q1594.86 1572.02 1592.03 1573.58 Q1589.23 1575.11 1585.28 1575.11 Q1578.82 1575.11 1574.74 1569.95 Q1570.7 1564.8 1570.7 1556.39 Q1570.7 1547.99 1574.74 1542.83 Q1578.82 1537.68 1585.28 1537.68 Q1589.23 1537.68 1592.03 1539.24 Q1594.86 1540.77 1596.71 1543.95 M1576.75 1556.39 Q1576.75 1562.85 1579.39 1566.55 Q1582.06 1570.21 1586.71 1570.21 Q1591.36 1570.21 1594.03 1566.55 Q1596.71 1562.85 1596.71 1556.39 Q1596.71 1549.93 1594.03 1546.27 Q1591.36 1542.58 1586.71 1542.58 Q1582.06 1542.58 1579.39 1546.27 Q1576.75 1549.93 1576.75 1556.39 Z" fill="#000000" fill-rule="nonzero" fill-opacity="1" /><path clip-path="url(#clip560)" d="M1645.12 1554.9 L1645.12 1557.76 L1618.19 1557.76 Q1618.57 1563.81 1621.82 1566.99 Q1625.1 1570.14 1630.92 1570.14 Q1634.29 1570.14 1637.45 1569.32 Q1640.63 1568.49 1643.75 1566.83 L1643.75 1572.37 Q1640.6 1573.71 1637.29 1574.41 Q1633.98 1575.11 1630.57 1575.11 Q1622.04 1575.11 1617.04 1570.14 Q1612.08 1565.18 1612.08 1556.71 Q1612.08 1547.96 1616.79 1542.83 Q1621.53 1537.68 1629.55 1537.68 Q1636.75 1537.68 1640.91 1542.33 Q1645.12 1546.94 1645.12 1554.9 M1639.26 1553.18 Q1639.2 1548.37 1636.55 1545.51 Q1633.94 1542.64 1629.62 1542.64 Q1624.71 1542.64 1621.75 1545.41 Q1618.83 1548.18 1618.38 1553.21 L1639.26 1553.18 Z" fill="#000000" fill-rule="nonzero" fill-opacity="1" /><path clip-path="url(#clip560)" d="M1650.53 1538.54 L1656.73 1538.54 L1667.87 1568.46 L1679.01 1538.54 L1685.22 1538.54 L1671.85 1574.19 L1663.9 1574.19 L1650.53 1538.54 Z" fill="#000000" fill-rule="nonzero" fill-opacity="1" /><path clip-path="url(#clip560)" d="M1693.3 1538.54 L1699.16 1538.54 L1699.16 1574.19 L1693.3 1574.19 L1693.3 1538.54 M1693.3 1524.66 L1699.16 1524.66 L1699.16 1532.08 L1693.3 1532.08 L1693.3 1524.66 Z" fill="#000000" fill-rule="nonzero" fill-opacity="1" /><path clip-path="url(#clip560)" d="M1727.62 1556.27 Q1720.52 1556.27 1717.78 1557.89 Q1715.04 1559.51 1715.04 1563.43 Q1715.04 1566.55 1717.08 1568.39 Q1719.15 1570.21 1722.68 1570.21 Q1727.55 1570.21 1730.48 1566.77 Q1733.44 1563.3 1733.44 1557.57 L1733.44 1556.27 L1727.62 1556.27 M1739.3 1553.85 L1739.3 1574.19 L1733.44 1574.19 L1733.44 1568.77 Q1731.44 1572.02 1728.44 1573.58 Q1725.45 1575.11 1721.12 1575.11 Q1715.65 1575.11 1712.4 1572.05 Q1709.19 1568.97 1709.19 1563.81 Q1709.19 1557.79 1713.2 1554.74 Q1717.24 1551.68 1725.23 1551.68 L1733.44 1551.68 L1733.44 1551.11 Q1733.44 1547.07 1730.77 1544.87 Q1728.13 1542.64 1723.32 1542.64 Q1720.26 1542.64 1717.37 1543.38 Q1714.47 1544.11 1711.8 1545.57 L1711.8 1540.16 Q1715.01 1538.92 1718.04 1538.31 Q1721.06 1537.68 1723.92 1537.68 Q1731.66 1537.68 1735.48 1541.69 Q1739.3 1545.7 1739.3 1553.85 Z" fill="#000000" fill-rule="nonzero" fill-opacity="1" /><path clip-path="url(#clip560)" d="M1757.15 1528.42 L1757.15 1538.54 L1769.22 1538.54 L1769.22 1543.09 L1757.15 1543.09 L1757.15 1562.44 Q1757.15 1566.8 1758.33 1568.04 Q1759.54 1569.28 1763.2 1569.28 L1769.22 1569.28 L1769.22 1574.19 L1763.2 1574.19 Q1756.42 1574.19 1753.84 1571.67 Q1751.26 1569.12 1751.26 1562.44 L1751.26 1543.09 L1746.97 1543.09 L1746.97 1538.54 L1751.26 1538.54 L1751.26 1528.42 L1757.15 1528.42 Z" fill="#000000" fill-rule="nonzero" fill-opacity="1" /><path clip-path="url(#clip560)" d="M1776.92 1538.54 L1782.77 1538.54 L1782.77 1574.19 L1776.92 1574.19 L1776.92 1538.54 M1776.92 1524.66 L1782.77 1524.66 L1782.77 1532.08 L1776.92 1532.08 L1776.92 1524.66 Z" fill="#000000" fill-rule="nonzero" fill-opacity="1" /><path clip-path="url(#clip560)" d="M1808.84 1542.64 Q1804.13 1542.64 1801.39 1546.34 Q1798.66 1550 1798.66 1556.39 Q1798.66 1562.79 1801.36 1566.48 Q1804.1 1570.14 1808.84 1570.14 Q1813.52 1570.14 1816.26 1566.45 Q1819 1562.76 1819 1556.39 Q1819 1550.06 1816.26 1546.37 Q1813.52 1542.64 1808.84 1542.64 M1808.84 1537.68 Q1816.48 1537.68 1820.84 1542.64 Q1825.2 1547.61 1825.2 1556.39 Q1825.2 1565.15 1820.84 1570.14 Q1816.48 1575.11 1808.84 1575.11 Q1801.17 1575.11 1796.81 1570.14 Q1792.48 1565.15 1792.48 1556.39 Q1792.48 1547.61 1796.81 1542.64 Q1801.17 1537.68 1808.84 1537.68 Z" fill="#000000" fill-rule="nonzero" fill-opacity="1" /><path clip-path="url(#clip560)" d="M1864.54 1552.67 L1864.54 1574.19 L1858.69 1574.19 L1858.69 1552.86 Q1858.69 1547.8 1856.71 1545.29 Q1854.74 1542.77 1850.79 1542.77 Q1846.05 1542.77 1843.31 1545.79 Q1840.58 1548.82 1840.58 1554.04 L1840.58 1574.19 L1834.69 1574.19 L1834.69 1538.54 L1840.58 1538.54 L1840.58 1544.08 Q1842.68 1540.86 1845.51 1539.27 Q1848.37 1537.68 1852.1 1537.68 Q1858.24 1537.68 1861.39 1541.5 Q1864.54 1545.29 1864.54 1552.67 Z" fill="#000000" fill-rule="nonzero" fill-opacity="1" /><polyline clip-path="url(#clip560)" style="stroke:#000000; stroke-linecap:round; stroke-linejoin:round; stroke-width:4; stroke-opacity:1; fill:none" points="239.19,1410.9 239.19,123.472 "/>
<polyline clip-path="url(#clip560)" style="stroke:#000000; stroke-linecap:round; stroke-linejoin:round; stroke-width:4; stroke-opacity:1; fill:none" points="239.19,1210.09 258.088,1210.09 "/>
<polyline clip-path="url(#clip560)" style="stroke:#000000; stroke-linecap:round; stroke-linejoin:round; stroke-width:4; stroke-opacity:1; fill:none" points="239.19,969.203 258.088,969.203 "/>
<polyline clip-path="url(#clip560)" style="stroke:#000000; stroke-linecap:round; stroke-linejoin:round; stroke-width:4; stroke-opacity:1; fill:none" points="239.19,728.314 258.088,728.314 "/>
<polyline clip-path="url(#clip560)" style="stroke:#000000; stroke-linecap:round; stroke-linejoin:round; stroke-width:4; stroke-opacity:1; fill:none" points="239.19,487.425 258.088,487.425 "/>
<polyline clip-path="url(#clip560)" style="stroke:#000000; stroke-linecap:round; stroke-linejoin:round; stroke-width:4; stroke-opacity:1; fill:none" points="239.19,246.536 258.088,246.536 "/>
<path clip-path="url(#clip560)" d="M50.9921 1210.54 L80.6679 1210.54 L80.6679 1214.48 L50.9921 1214.48 L50.9921 1210.54 Z" fill="#000000" fill-rule="nonzero" fill-opacity="1" /><path clip-path="url(#clip560)" d="M94.7882 1223.44 L111.108 1223.44 L111.108 1227.37 L89.1632 1227.37 L89.1632 1223.44 Q91.8252 1220.68 96.4085 1216.05 Q101.015 1211.4 102.196 1210.06 Q104.441 1207.53 105.321 1205.8 Q106.223 1204.04 106.223 1202.35 Q106.223 1199.59 104.279 1197.86 Q102.358 1196.12 99.2558 1196.12 Q97.0567 1196.12 94.603 1196.89 Q92.1725 1197.65 89.3947 1199.2 L89.3947 1194.48 Q92.2188 1193.34 94.6724 1192.77 Q97.1261 1192.19 99.1632 1192.19 Q104.534 1192.19 107.728 1194.87 Q110.922 1197.56 110.922 1202.05 Q110.922 1204.18 110.112 1206.1 Q109.325 1208 107.219 1210.59 Q106.64 1211.26 103.538 1214.48 Q100.436 1217.67 94.7882 1223.44 Z" fill="#000000" fill-rule="nonzero" fill-opacity="1" /><path clip-path="url(#clip560)" d="M124.95 1223.44 L141.269 1223.44 L141.269 1227.37 L119.325 1227.37 L119.325 1223.44 Q121.987 1220.68 126.57 1216.05 Q131.177 1211.4 132.357 1210.06 Q134.603 1207.53 135.482 1205.8 Q136.385 1204.04 136.385 1202.35 Q136.385 1199.59 134.441 1197.86 Q132.519 1196.12 129.418 1196.12 Q127.219 1196.12 124.765 1196.89 Q122.334 1197.65 119.557 1199.2 L119.557 1194.48 Q122.381 1193.34 124.834 1192.77 Q127.288 1192.19 129.325 1192.19 Q134.695 1192.19 137.89 1194.87 Q141.084 1197.56 141.084 1202.05 Q141.084 1204.18 140.274 1206.1 Q139.487 1208 137.381 1210.59 Q136.802 1211.26 133.7 1214.48 Q130.598 1217.67 124.95 1223.44 Z" fill="#000000" fill-rule="nonzero" fill-opacity="1" /><path clip-path="url(#clip560)" d="M151.13 1192.81 L169.487 1192.81 L169.487 1196.75 L155.413 1196.75 L155.413 1205.22 Q156.431 1204.87 157.45 1204.71 Q158.468 1204.53 159.487 1204.53 Q165.274 1204.53 168.654 1207.7 Q172.033 1210.87 172.033 1216.28 Q172.033 1221.86 168.561 1224.97 Q165.089 1228.04 158.769 1228.04 Q156.593 1228.04 154.325 1227.67 Q152.08 1227.3 149.672 1226.56 L149.672 1221.86 Q151.755 1223 153.978 1223.55 Q156.2 1224.11 158.677 1224.11 Q162.681 1224.11 165.019 1222 Q167.357 1219.9 167.357 1216.28 Q167.357 1212.67 165.019 1210.57 Q162.681 1208.46 158.677 1208.46 Q156.802 1208.46 154.927 1208.88 Q153.075 1209.29 151.13 1210.17 L151.13 1192.81 Z" fill="#000000" fill-rule="nonzero" fill-opacity="1" /><path clip-path="url(#clip560)" d="M191.246 1195.89 Q187.635 1195.89 185.806 1199.46 Q184.001 1203 184.001 1210.13 Q184.001 1217.23 185.806 1220.8 Q187.635 1224.34 191.246 1224.34 Q194.88 1224.34 196.686 1220.8 Q198.514 1217.23 198.514 1210.13 Q198.514 1203 196.686 1199.46 Q194.88 1195.89 191.246 1195.89 M191.246 1192.19 Q197.056 1192.19 200.112 1196.79 Q203.19 1201.38 203.19 1210.13 Q203.19 1218.85 200.112 1223.46 Q197.056 1228.04 191.246 1228.04 Q185.436 1228.04 182.357 1223.46 Q179.302 1218.85 179.302 1210.13 Q179.302 1201.38 182.357 1196.79 Q185.436 1192.19 191.246 1192.19 Z" fill="#000000" fill-rule="nonzero" fill-opacity="1" /><path clip-path="url(#clip560)" d="M50.9921 969.655 L80.6679 969.655 L80.6679 973.59 L50.9921 973.59 L50.9921 969.655 Z" fill="#000000" fill-rule="nonzero" fill-opacity="1" /><path clip-path="url(#clip560)" d="M94.7882 982.548 L111.108 982.548 L111.108 986.483 L89.1632 986.483 L89.1632 982.548 Q91.8252 979.794 96.4085 975.164 Q101.015 970.511 102.196 969.169 Q104.441 966.645 105.321 964.909 Q106.223 963.15 106.223 961.46 Q106.223 958.706 104.279 956.97 Q102.358 955.233 99.2558 955.233 Q97.0567 955.233 94.603 955.997 Q92.1725 956.761 89.3947 958.312 L89.3947 953.59 Q92.2188 952.456 94.6724 951.877 Q97.1261 951.298 99.1632 951.298 Q104.534 951.298 107.728 953.983 Q110.922 956.669 110.922 961.159 Q110.922 963.289 110.112 965.21 Q109.325 967.108 107.219 969.701 Q106.64 970.372 103.538 973.59 Q100.436 976.784 94.7882 982.548 Z" fill="#000000" fill-rule="nonzero" fill-opacity="1" /><path clip-path="url(#clip560)" d="M130.922 955.002 Q127.311 955.002 125.482 958.567 Q123.677 962.108 123.677 969.238 Q123.677 976.344 125.482 979.909 Q127.311 983.451 130.922 983.451 Q134.556 983.451 136.362 979.909 Q138.191 976.344 138.191 969.238 Q138.191 962.108 136.362 958.567 Q134.556 955.002 130.922 955.002 M130.922 951.298 Q136.732 951.298 139.788 955.905 Q142.867 960.488 142.867 969.238 Q142.867 977.965 139.788 982.571 Q136.732 987.155 130.922 987.155 Q125.112 987.155 122.033 982.571 Q118.978 977.965 118.978 969.238 Q118.978 960.488 122.033 955.905 Q125.112 951.298 130.922 951.298 Z" fill="#000000" fill-rule="nonzero" fill-opacity="1" /><path clip-path="url(#clip560)" d="M161.084 955.002 Q157.473 955.002 155.644 958.567 Q153.839 962.108 153.839 969.238 Q153.839 976.344 155.644 979.909 Q157.473 983.451 161.084 983.451 Q164.718 983.451 166.524 979.909 Q168.353 976.344 168.353 969.238 Q168.353 962.108 166.524 958.567 Q164.718 955.002 161.084 955.002 M161.084 951.298 Q166.894 951.298 169.95 955.905 Q173.029 960.488 173.029 969.238 Q173.029 977.965 169.95 982.571 Q166.894 987.155 161.084 987.155 Q155.274 987.155 152.195 982.571 Q149.14 977.965 149.14 969.238 Q149.14 960.488 152.195 955.905 Q155.274 951.298 161.084 951.298 Z" fill="#000000" fill-rule="nonzero" fill-opacity="1" /><path clip-path="url(#clip560)" d="M191.246 955.002 Q187.635 955.002 185.806 958.567 Q184.001 962.108 184.001 969.238 Q184.001 976.344 185.806 979.909 Q187.635 983.451 191.246 983.451 Q194.88 983.451 196.686 979.909 Q198.514 976.344 198.514 969.238 Q198.514 962.108 196.686 958.567 Q194.88 955.002 191.246 955.002 M191.246 951.298 Q197.056 951.298 200.112 955.905 Q203.19 960.488 203.19 969.238 Q203.19 977.965 200.112 982.571 Q197.056 987.155 191.246 987.155 Q185.436 987.155 182.357 982.571 Q179.302 977.965 179.302 969.238 Q179.302 960.488 182.357 955.905 Q185.436 951.298 191.246 951.298 Z" fill="#000000" fill-rule="nonzero" fill-opacity="1" /><path clip-path="url(#clip560)" d="M50.9921 728.765 L80.6679 728.765 L80.6679 732.701 L50.9921 732.701 L50.9921 728.765 Z" fill="#000000" fill-rule="nonzero" fill-opacity="1" /><path clip-path="url(#clip560)" d="M91.5706 741.659 L99.2095 741.659 L99.2095 715.293 L90.8993 716.96 L90.8993 712.701 L99.1632 711.034 L103.839 711.034 L103.839 741.659 L111.478 741.659 L111.478 745.594 L91.5706 745.594 L91.5706 741.659 Z" fill="#000000" fill-rule="nonzero" fill-opacity="1" /><path clip-path="url(#clip560)" d="M119.742 711.034 L141.964 711.034 L141.964 713.025 L129.418 745.594 L124.533 745.594 L136.339 714.969 L119.742 714.969 L119.742 711.034 Z" fill="#000000" fill-rule="nonzero" fill-opacity="1" /><path clip-path="url(#clip560)" d="M151.13 711.034 L169.487 711.034 L169.487 714.969 L155.413 714.969 L155.413 723.441 Q156.431 723.094 157.45 722.932 Q158.468 722.747 159.487 722.747 Q165.274 722.747 168.654 725.918 Q172.033 729.09 172.033 734.506 Q172.033 740.085 168.561 743.187 Q165.089 746.265 158.769 746.265 Q156.593 746.265 154.325 745.895 Q152.08 745.525 149.672 744.784 L149.672 740.085 Q151.755 741.219 153.978 741.775 Q156.2 742.33 158.677 742.33 Q162.681 742.33 165.019 740.224 Q167.357 738.117 167.357 734.506 Q167.357 730.895 165.019 728.789 Q162.681 726.682 158.677 726.682 Q156.802 726.682 154.927 727.099 Q153.075 727.515 151.13 728.395 L151.13 711.034 Z" fill="#000000" fill-rule="nonzero" fill-opacity="1" /><path clip-path="url(#clip560)" d="M191.246 714.113 Q187.635 714.113 185.806 717.678 Q184.001 721.219 184.001 728.349 Q184.001 735.455 185.806 739.02 Q187.635 742.562 191.246 742.562 Q194.88 742.562 196.686 739.02 Q198.514 735.455 198.514 728.349 Q198.514 721.219 196.686 717.678 Q194.88 714.113 191.246 714.113 M191.246 710.409 Q197.056 710.409 200.112 715.016 Q203.19 719.599 203.19 728.349 Q203.19 737.076 200.112 741.682 Q197.056 746.265 191.246 746.265 Q185.436 746.265 182.357 741.682 Q179.302 737.076 179.302 728.349 Q179.302 719.599 182.357 715.016 Q185.436 710.409 191.246 710.409 Z" fill="#000000" fill-rule="nonzero" fill-opacity="1" /><path clip-path="url(#clip560)" d="M50.9921 487.876 L80.6679 487.876 L80.6679 491.811 L50.9921 491.811 L50.9921 487.876 Z" fill="#000000" fill-rule="nonzero" fill-opacity="1" /><path clip-path="url(#clip560)" d="M91.5706 500.77 L99.2095 500.77 L99.2095 474.404 L90.8993 476.071 L90.8993 471.812 L99.1632 470.145 L103.839 470.145 L103.839 500.77 L111.478 500.77 L111.478 504.705 L91.5706 504.705 L91.5706 500.77 Z" fill="#000000" fill-rule="nonzero" fill-opacity="1" /><path clip-path="url(#clip560)" d="M120.969 470.145 L139.325 470.145 L139.325 474.08 L125.251 474.08 L125.251 482.552 Q126.27 482.205 127.288 482.043 Q128.307 481.858 129.325 481.858 Q135.112 481.858 138.492 485.029 Q141.871 488.2 141.871 493.617 Q141.871 499.196 138.399 502.297 Q134.927 505.376 128.607 505.376 Q126.432 505.376 124.163 505.006 Q121.918 504.635 119.51 503.895 L119.51 499.196 Q121.594 500.33 123.816 500.885 Q126.038 501.441 128.515 501.441 Q132.519 501.441 134.857 499.335 Q137.195 497.228 137.195 493.617 Q137.195 490.006 134.857 487.899 Q132.519 485.793 128.515 485.793 Q126.64 485.793 124.765 486.21 Q122.913 486.626 120.969 487.506 L120.969 470.145 Z" fill="#000000" fill-rule="nonzero" fill-opacity="1" /><path clip-path="url(#clip560)" d="M161.084 473.224 Q157.473 473.224 155.644 476.788 Q153.839 480.33 153.839 487.46 Q153.839 494.566 155.644 498.131 Q157.473 501.672 161.084 501.672 Q164.718 501.672 166.524 498.131 Q168.353 494.566 168.353 487.46 Q168.353 480.33 166.524 476.788 Q164.718 473.224 161.084 473.224 M161.084 469.52 Q166.894 469.52 169.95 474.126 Q173.029 478.71 173.029 487.46 Q173.029 496.186 169.95 500.793 Q166.894 505.376 161.084 505.376 Q155.274 505.376 152.195 500.793 Q149.14 496.186 149.14 487.46 Q149.14 478.71 152.195 474.126 Q155.274 469.52 161.084 469.52 Z" fill="#000000" fill-rule="nonzero" fill-opacity="1" /><path clip-path="url(#clip560)" d="M191.246 473.224 Q187.635 473.224 185.806 476.788 Q184.001 480.33 184.001 487.46 Q184.001 494.566 185.806 498.131 Q187.635 501.672 191.246 501.672 Q194.88 501.672 196.686 498.131 Q198.514 494.566 198.514 487.46 Q198.514 480.33 196.686 476.788 Q194.88 473.224 191.246 473.224 M191.246 469.52 Q197.056 469.52 200.112 474.126 Q203.19 478.71 203.19 487.46 Q203.19 496.186 200.112 500.793 Q197.056 505.376 191.246 505.376 Q185.436 505.376 182.357 500.793 Q179.302 496.186 179.302 487.46 Q179.302 478.71 182.357 474.126 Q185.436 469.52 191.246 469.52 Z" fill="#000000" fill-rule="nonzero" fill-opacity="1" /><path clip-path="url(#clip560)" d="M50.9921 246.987 L80.6679 246.987 L80.6679 250.922 L50.9921 250.922 L50.9921 246.987 Z" fill="#000000" fill-rule="nonzero" fill-opacity="1" /><path clip-path="url(#clip560)" d="M91.5706 259.88 L99.2095 259.88 L99.2095 233.515 L90.8993 235.182 L90.8993 230.922 L99.1632 229.256 L103.839 229.256 L103.839 259.88 L111.478 259.88 L111.478 263.816 L91.5706 263.816 L91.5706 259.88 Z" fill="#000000" fill-rule="nonzero" fill-opacity="1" /><path clip-path="url(#clip560)" d="M124.95 259.88 L141.269 259.88 L141.269 263.816 L119.325 263.816 L119.325 259.88 Q121.987 257.126 126.57 252.496 Q131.177 247.844 132.357 246.501 Q134.603 243.978 135.482 242.242 Q136.385 240.482 136.385 238.793 Q136.385 236.038 134.441 234.302 Q132.519 232.566 129.418 232.566 Q127.219 232.566 124.765 233.33 Q122.334 234.094 119.557 235.645 L119.557 230.922 Q122.381 229.788 124.834 229.209 Q127.288 228.631 129.325 228.631 Q134.695 228.631 137.89 231.316 Q141.084 234.001 141.084 238.492 Q141.084 240.621 140.274 242.543 Q139.487 244.441 137.381 247.033 Q136.802 247.705 133.7 250.922 Q130.598 254.117 124.95 259.88 Z" fill="#000000" fill-rule="nonzero" fill-opacity="1" /><path clip-path="url(#clip560)" d="M151.13 229.256 L169.487 229.256 L169.487 233.191 L155.413 233.191 L155.413 241.663 Q156.431 241.316 157.45 241.154 Q158.468 240.969 159.487 240.969 Q165.274 240.969 168.654 244.14 Q172.033 247.311 172.033 252.728 Q172.033 258.306 168.561 261.408 Q165.089 264.487 158.769 264.487 Q156.593 264.487 154.325 264.117 Q152.08 263.746 149.672 263.005 L149.672 258.306 Q151.755 259.441 153.978 259.996 Q156.2 260.552 158.677 260.552 Q162.681 260.552 165.019 258.445 Q167.357 256.339 167.357 252.728 Q167.357 249.117 165.019 247.01 Q162.681 244.904 158.677 244.904 Q156.802 244.904 154.927 245.32 Q153.075 245.737 151.13 246.617 L151.13 229.256 Z" fill="#000000" fill-rule="nonzero" fill-opacity="1" /><path clip-path="url(#clip560)" d="M191.246 232.334 Q187.635 232.334 185.806 235.899 Q184.001 239.441 184.001 246.57 Q184.001 253.677 185.806 257.242 Q187.635 260.783 191.246 260.783 Q194.88 260.783 196.686 257.242 Q198.514 253.677 198.514 246.57 Q198.514 239.441 196.686 235.899 Q194.88 232.334 191.246 232.334 M191.246 228.631 Q197.056 228.631 200.112 233.237 Q203.19 237.82 203.19 246.57 Q203.19 255.297 200.112 259.904 Q197.056 264.487 191.246 264.487 Q185.436 264.487 182.357 259.904 Q179.302 255.297 179.302 246.57 Q179.302 237.82 182.357 233.237 Q185.436 228.631 191.246 228.631 Z" fill="#000000" fill-rule="nonzero" fill-opacity="1" /><path clip-path="url(#clip560)" d="M1017.21 12.096 L1025.39 12.096 L1025.39 65.6895 L1054.84 65.6895 L1054.84 72.576 L1017.21 72.576 L1017.21 12.096 Z" fill="#000000" fill-rule="nonzero" fill-opacity="1" /><path clip-path="url(#clip560)" d="M1079.23 32.4315 Q1073.23 32.4315 1069.75 37.1306 Q1066.27 41.7891 1066.27 49.9314 Q1066.27 58.0738 1069.71 62.7728 Q1073.19 67.4314 1079.23 67.4314 Q1085.18 67.4314 1088.67 62.7323 Q1092.15 58.0333 1092.15 49.9314 Q1092.15 41.8701 1088.67 37.1711 Q1085.18 32.4315 1079.23 32.4315 M1079.23 26.1121 Q1088.95 26.1121 1094.5 32.4315 Q1100.05 38.7509 1100.05 49.9314 Q1100.05 61.0714 1094.5 67.4314 Q1088.95 73.7508 1079.23 73.7508 Q1069.47 73.7508 1063.92 67.4314 Q1058.41 61.0714 1058.41 49.9314 Q1058.41 38.7509 1063.92 32.4315 Q1069.47 26.1121 1079.23 26.1121 Z" fill="#000000" fill-rule="nonzero" fill-opacity="1" /><path clip-path="url(#clip560)" d="M1142.26 49.3643 Q1142.26 41.2625 1138.9 36.8065 Q1135.58 32.3505 1129.54 32.3505 Q1123.55 32.3505 1120.18 36.8065 Q1116.86 41.2625 1116.86 49.3643 Q1116.86 57.4256 1120.18 61.8816 Q1123.55 66.3376 1129.54 66.3376 Q1135.58 66.3376 1138.9 61.8816 Q1142.26 57.4256 1142.26 49.3643 M1149.72 66.9452 Q1149.72 78.5308 1144.57 84.1616 Q1139.43 89.8329 1128.81 89.8329 Q1124.88 89.8329 1121.4 89.2252 Q1117.92 88.6581 1114.63 87.4428 L1114.63 80.1917 Q1117.92 81.9741 1121.12 82.8248 Q1124.32 83.6755 1127.64 83.6755 Q1134.97 83.6755 1138.62 79.8271 Q1142.26 76.0193 1142.26 68.282 L1142.26 64.5957 Q1139.95 68.6061 1136.35 70.5911 Q1132.74 72.576 1127.72 72.576 Q1119.37 72.576 1114.27 66.2161 Q1109.17 59.8562 1109.17 49.3643 Q1109.17 38.832 1114.27 32.472 Q1119.37 26.1121 1127.72 26.1121 Q1132.74 26.1121 1136.35 28.0971 Q1139.95 30.082 1142.26 34.0924 L1142.26 27.2059 L1149.72 27.2059 L1149.72 66.9452 Z" fill="#000000" fill-rule="nonzero" fill-opacity="1" /><path clip-path="url(#clip560)" d="M1161.3 46.5287 L1183.14 46.5287 L1183.14 53.1722 L1161.3 53.1722 L1161.3 46.5287 Z" fill="#000000" fill-rule="nonzero" fill-opacity="1" /><path clip-path="url(#clip560)" d="M1195 9.54393 L1202.46 9.54393 L1202.46 72.576 L1195 72.576 L1195 9.54393 Z" fill="#000000" fill-rule="nonzero" fill-opacity="1" /><path clip-path="url(#clip560)" d="M1218.05 27.2059 L1225.51 27.2059 L1225.51 72.576 L1218.05 72.576 L1218.05 27.2059 M1218.05 9.54393 L1225.51 9.54393 L1225.51 18.9825 L1218.05 18.9825 L1218.05 9.54393 Z" fill="#000000" fill-rule="nonzero" fill-opacity="1" /><path clip-path="url(#clip560)" d="M1240.82 9.54393 L1248.31 9.54393 L1248.31 46.7717 L1270.55 27.2059 L1280.07 27.2059 L1256.01 48.4326 L1281.09 72.576 L1271.36 72.576 L1248.31 50.4176 L1248.31 72.576 L1240.82 72.576 L1240.82 9.54393 Z" fill="#000000" fill-rule="nonzero" fill-opacity="1" /><path clip-path="url(#clip560)" d="M1325 48.0275 L1325 51.6733 L1290.73 51.6733 Q1291.21 59.3701 1295.35 63.421 Q1299.52 67.4314 1306.93 67.4314 Q1311.22 67.4314 1315.24 66.3781 Q1319.29 65.3249 1323.26 63.2184 L1323.26 70.267 Q1319.25 71.9684 1315.03 72.8596 Q1310.82 73.7508 1306.49 73.7508 Q1295.63 73.7508 1289.27 67.4314 Q1282.95 61.1119 1282.95 50.3365 Q1282.95 39.1965 1288.94 32.6746 Q1294.98 26.1121 1305.19 26.1121 Q1314.34 26.1121 1319.65 32.0264 Q1325 37.9003 1325 48.0275 M1317.54 45.84 Q1317.46 39.7232 1314.1 36.0774 Q1310.78 32.4315 1305.27 32.4315 Q1299.03 32.4315 1295.26 35.9558 Q1291.54 39.4801 1290.97 45.8805 L1317.54 45.84 Z" fill="#000000" fill-rule="nonzero" fill-opacity="1" /><path clip-path="url(#clip560)" d="M1337.23 9.54393 L1344.69 9.54393 L1344.69 72.576 L1337.23 72.576 L1337.23 9.54393 Z" fill="#000000" fill-rule="nonzero" fill-opacity="1" /><path clip-path="url(#clip560)" d="M1360.28 27.2059 L1367.73 27.2059 L1367.73 72.576 L1360.28 72.576 L1360.28 27.2059 M1360.28 9.54393 L1367.73 9.54393 L1367.73 18.9825 L1360.28 18.9825 L1360.28 9.54393 Z" fill="#000000" fill-rule="nonzero" fill-opacity="1" /><path clip-path="url(#clip560)" d="M1421.04 45.1919 L1421.04 72.576 L1413.59 72.576 L1413.59 45.4349 Q1413.59 38.994 1411.08 35.7938 Q1408.57 32.5936 1403.54 32.5936 Q1397.51 32.5936 1394.03 36.4419 Q1390.54 40.2903 1390.54 46.9338 L1390.54 72.576 L1383.05 72.576 L1383.05 9.54393 L1390.54 9.54393 L1390.54 34.2544 Q1393.22 30.163 1396.82 28.1376 Q1400.47 26.1121 1405.21 26.1121 Q1413.02 26.1121 1417.03 30.9732 Q1421.04 35.7938 1421.04 45.1919 Z" fill="#000000" fill-rule="nonzero" fill-opacity="1" /><path clip-path="url(#clip560)" d="M1453.49 32.4315 Q1447.5 32.4315 1444.01 37.1306 Q1440.53 41.7891 1440.53 49.9314 Q1440.53 58.0738 1443.97 62.7728 Q1447.46 67.4314 1453.49 67.4314 Q1459.45 67.4314 1462.93 62.7323 Q1466.41 58.0333 1466.41 49.9314 Q1466.41 41.8701 1462.93 37.1711 Q1459.45 32.4315 1453.49 32.4315 M1453.49 26.1121 Q1463.21 26.1121 1468.76 32.4315 Q1474.31 38.7509 1474.31 49.9314 Q1474.31 61.0714 1468.76 67.4314 Q1463.21 73.7508 1453.49 73.7508 Q1443.73 73.7508 1438.18 67.4314 Q1432.67 61.0714 1432.67 49.9314 Q1432.67 38.7509 1438.18 32.4315 Q1443.73 26.1121 1453.49 26.1121 Z" fill="#000000" fill-rule="nonzero" fill-opacity="1" /><path clip-path="url(#clip560)" d="M1504.25 32.4315 Q1498.26 32.4315 1494.77 37.1306 Q1491.29 41.7891 1491.29 49.9314 Q1491.29 58.0738 1494.73 62.7728 Q1498.21 67.4314 1504.25 67.4314 Q1510.21 67.4314 1513.69 62.7323 Q1517.17 58.0333 1517.17 49.9314 Q1517.17 41.8701 1513.69 37.1711 Q1510.21 32.4315 1504.25 32.4315 M1504.25 26.1121 Q1513.97 26.1121 1519.52 32.4315 Q1525.07 38.7509 1525.07 49.9314 Q1525.07 61.0714 1519.52 67.4314 Q1513.97 73.7508 1504.25 73.7508 Q1494.49 73.7508 1488.94 67.4314 Q1483.43 61.0714 1483.43 49.9314 Q1483.43 38.7509 1488.94 32.4315 Q1494.49 26.1121 1504.25 26.1121 Z" fill="#000000" fill-rule="nonzero" fill-opacity="1" /><path clip-path="url(#clip560)" d="M1567.28 34.0924 L1567.28 9.54393 L1574.74 9.54393 L1574.74 72.576 L1567.28 72.576 L1567.28 65.7705 Q1564.93 69.8214 1561.33 71.8063 Q1557.76 73.7508 1552.74 73.7508 Q1544.52 73.7508 1539.33 67.1883 Q1534.19 60.6258 1534.19 49.9314 Q1534.19 39.2371 1539.33 32.6746 Q1544.52 26.1121 1552.74 26.1121 Q1557.76 26.1121 1561.33 28.0971 Q1564.93 30.0415 1567.28 34.0924 M1541.88 49.9314 Q1541.88 58.1548 1545.25 62.8538 Q1548.65 67.5124 1554.56 67.5124 Q1560.48 67.5124 1563.88 62.8538 Q1567.28 58.1548 1567.28 49.9314 Q1567.28 41.7081 1563.88 37.0496 Q1560.48 32.3505 1554.56 32.3505 Q1548.65 32.3505 1545.25 37.0496 Q1541.88 41.7081 1541.88 49.9314 Z" fill="#000000" fill-rule="nonzero" fill-opacity="1" /><polyline clip-path="url(#clip561)" style="stroke:#009af9; stroke-linecap:round; stroke-linejoin:round; stroke-width:4; stroke-opacity:1; fill:none" points="299.008,1374.46 332.804,1182.19 366.599,945.465 400.395,847.944 434.19,707.613 467.985,674.861 501.781,529.345 535.576,516.67 569.372,475.104 603.167,435.037 636.962,355.24 670.758,343.655 704.553,299.633 738.349,268.878 772.144,244.065 805.94,238.28 839.735,216.772 873.53,202.569 907.326,189.093 941.121,182.639 974.917,174.054 1008.71,166.111 1042.51,163.645 1076.3,160.261 1110.1,159.909 1143.89,161.925 1177.69,164.484 1211.48,173.968 1245.28,178.41 1279.08,186.519 1312.87,197.057 1346.67,208.365 1380.46,225.34 1414.26,239.403 1448.05,260.566 1481.85,282.125 1515.64,303.92 1549.44,328.431 1583.23,361.268 1617.03,387.931 1650.83,418.307 1684.62,451.816 1718.42,481.73 1752.21,516.4 1786.01,556.311 1819.8,587.323 1853.6,626.792 1887.39,666.554 1921.19,704.608 1954.98,744.655 1988.78,789.156 2022.57,830.564 2056.37,872.414 2090.17,914 2123.96,955.948 2157.76,1002.1 2191.55,1054.76 2225.35,1100.25 2259.14,1137.35 2292.94,1179.84 "/>
<polyline clip-path="url(#clip561)" style="stroke:#008000; stroke-linecap:round; stroke-linejoin:round; stroke-width:4; stroke-opacity:1; fill:none" points="299.008,1113.52 332.804,1092.01 366.599,933.64 400.395,827.867 434.19,757.457 467.985,667.825 501.781,599.791 535.576,490.679 569.372,469.308 603.167,409.312 636.962,374.966 670.758,341.492 704.553,314.128 738.349,272.785 772.144,247.996 805.94,238.654 839.735,209.011 873.53,198.364 907.326,188.942 941.121,177.177 974.917,171.649 1008.71,168.62 1042.51,163.606 1076.3,160.039 1110.1,162.696 1143.89,161.807 1177.69,166.208 1211.48,170.284 1245.28,175.816 1279.08,185.964 1312.87,195.511 1346.67,208.87 1380.46,224.044 1414.26,240.654 1448.05,260.671 1481.85,283.909 1515.64,304.413 1549.44,329.824 1583.23,358.08 1617.03,387.698 1650.83,414.761 1684.62,447.938 1718.42,480.312 1752.21,517.583 1786.01,555.468 1819.8,592.816 1853.6,630.584 1887.39,666.395 1921.19,707.668 1954.98,746.451 1988.78,792.42 2022.57,831.952 2056.37,879.33 2090.17,921.906 2123.96,962.618 2157.76,1003.06 2191.55,1047.16 2225.35,1098.93 2259.14,1145.8 2292.94,1187.62 "/>
<polyline clip-path="url(#clip561)" style="stroke:#0000ff; stroke-linecap:round; stroke-linejoin:round; stroke-width:4; stroke-opacity:1; fill:none" stroke-dasharray="16, 10" points="1110.1,2698.32 1110.1,-1163.95 "/>
<path clip-path="url(#clip560)" d="M1903.54 321.906 L2282.3 321.906 L2282.3 166.386 L1903.54 166.386  Z" fill="#ffffff" fill-rule="evenodd" fill-opacity="1"/>
<polyline clip-path="url(#clip560)" style="stroke:#000000; stroke-linecap:round; stroke-linejoin:round; stroke-width:4; stroke-opacity:1; fill:none" points="1903.54,321.906 2282.3,321.906 2282.3,166.386 1903.54,166.386 1903.54,321.906 "/>
<polyline clip-path="url(#clip560)" style="stroke:#009af9; stroke-linecap:round; stroke-linejoin:round; stroke-width:4; stroke-opacity:1; fill:none" points="1927.02,218.226 2067.93,218.226 "/>
<path clip-path="url(#clip560)" d="M2096.09 204.789 L2096.09 217.775 L2101.97 217.775 Q2105.23 217.775 2107.01 216.085 Q2108.8 214.395 2108.8 211.27 Q2108.8 208.168 2107.01 206.479 Q2105.23 204.789 2101.97 204.789 L2096.09 204.789 M2091.41 200.946 L2101.97 200.946 Q2107.78 200.946 2110.74 203.585 Q2113.73 206.201 2113.73 211.27 Q2113.73 216.386 2110.74 219.002 Q2107.78 221.617 2101.97 221.617 L2096.09 221.617 L2096.09 235.506 L2091.41 235.506 L2091.41 200.946 Z" fill="#000000" fill-rule="nonzero" fill-opacity="1" /><path clip-path="url(#clip560)" d="M2120 200.946 L2139.86 200.946 L2139.86 204.881 L2124.68 204.881 L2124.68 215.067 L2138.38 215.067 L2138.38 219.002 L2124.68 219.002 L2124.68 235.506 L2120 235.506 L2120 200.946 Z" fill="#000000" fill-rule="nonzero" fill-opacity="1" /><polyline clip-path="url(#clip560)" style="stroke:#008000; stroke-linecap:round; stroke-linejoin:round; stroke-width:4; stroke-opacity:1; fill:none" points="1927.02,270.066 2067.93,270.066 "/>
<path clip-path="url(#clip560)" d="M2107.25 257.393 L2100.9 274.592 L2113.61 274.592 L2107.25 257.393 M2104.61 252.786 L2109.91 252.786 L2123.08 287.346 L2118.22 287.346 L2115.07 278.481 L2099.49 278.481 L2096.34 287.346 L2091.41 287.346 L2104.61 252.786 Z" fill="#000000" fill-rule="nonzero" fill-opacity="1" /><path clip-path="url(#clip560)" d="M2127.59 252.786 L2132.29 252.786 L2132.29 273.782 Q2132.29 279.337 2134.31 281.791 Q2136.32 284.221 2140.83 284.221 Q2145.32 284.221 2147.34 281.791 Q2149.35 279.337 2149.35 273.782 L2149.35 252.786 L2154.05 252.786 L2154.05 274.36 Q2154.05 281.119 2150.7 284.569 Q2147.36 288.018 2140.83 288.018 Q2134.28 288.018 2130.93 284.569 Q2127.59 281.119 2127.59 274.36 L2127.59 252.786 Z" fill="#000000" fill-rule="nonzero" fill-opacity="1" /><path clip-path="url(#clip560)" d="M2161.16 252.786 L2166.18 252.786 L2174.77 265.633 L2183.4 252.786 L2188.43 252.786 L2177.32 269.383 L2189.17 287.346 L2184.14 287.346 L2174.42 272.647 L2164.63 287.346 L2159.58 287.346 L2171.92 268.897 L2161.16 252.786 Z" fill="#000000" fill-rule="nonzero" fill-opacity="1" /><path clip-path="url(#clip560)" d="M2215.05 256.629 L2215.05 269.615 L2220.93 269.615 Q2224.19 269.615 2225.97 267.925 Q2227.76 266.235 2227.76 263.11 Q2227.76 260.008 2225.97 258.319 Q2224.19 256.629 2220.93 256.629 L2215.05 256.629 M2210.37 252.786 L2220.93 252.786 Q2226.74 252.786 2229.7 255.425 Q2232.69 258.041 2232.69 263.11 Q2232.69 268.226 2229.7 270.842 Q2226.74 273.457 2220.93 273.457 L2215.05 273.457 L2215.05 287.346 L2210.37 287.346 L2210.37 252.786 Z" fill="#000000" fill-rule="nonzero" fill-opacity="1" /><path clip-path="url(#clip560)" d="M2238.96 252.786 L2258.82 252.786 L2258.82 256.721 L2243.63 256.721 L2243.63 266.907 L2257.34 266.907 L2257.34 270.842 L2243.63 270.842 L2243.63 287.346 L2238.96 287.346 L2238.96 252.786 Z" fill="#000000" fill-rule="nonzero" fill-opacity="1" /></svg>
