<?xml version="1.0" encoding="utf-8"?>
<svg xmlns="http://www.w3.org/2000/svg" xmlns:xlink="http://www.w3.org/1999/xlink" width="600" height="400" viewBox="0 0 2400 1600">
<defs>
  <clipPath id="clip310">
    <rect x="0" y="0" width="2400" height="1600"/>
  </clipPath>
</defs>
<path clip-path="url(#clip310)" d="M0 1600 L2400 1600 L2400 0 L0 0  Z" fill="#ffffff" fill-rule="evenodd" fill-opacity="1"/>
<defs>
  <clipPath id="clip311">
    <rect x="480" y="0" width="1681" height="1600"/>
  </clipPath>
</defs>
<path clip-path="url(#clip310)" d="M147.478 1486.45 L2352.76 1486.45 L2352.76 47.2441 L147.478 47.2441  Z" fill="#ffffff" fill-rule="evenodd" fill-opacity="1"/>
<defs>
  <clipPath id="clip312">
    <rect x="147" y="47" width="2206" height="1440"/>
  </clipPath>
</defs>
<polyline clip-path="url(#clip312)" style="stroke:#000000; stroke-linecap:round; stroke-linejoin:round; stroke-width:2; stroke-opacity:0.1; fill:none" points="183.557,1486.45 183.557,47.2441 "/>
<polyline clip-path="url(#clip312)" style="stroke:#000000; stroke-linecap:round; stroke-linejoin:round; stroke-width:2; stroke-opacity:0.1; fill:none" points="710.253,1486.45 710.253,47.2441 "/>
<polyline clip-path="url(#clip312)" style="stroke:#000000; stroke-linecap:round; stroke-linejoin:round; stroke-width:2; stroke-opacity:0.1; fill:none" points="1236.95,1486.45 1236.95,47.2441 "/>
<polyline clip-path="url(#clip312)" style="stroke:#000000; stroke-linecap:round; stroke-linejoin:round; stroke-width:2; stroke-opacity:0.1; fill:none" points="1763.65,1486.45 1763.65,47.2441 "/>
<polyline clip-path="url(#clip312)" style="stroke:#000000; stroke-linecap:round; stroke-linejoin:round; stroke-width:2; stroke-opacity:0.1; fill:none" points="2290.34,1486.45 2290.34,47.2441 "/>
<polyline clip-path="url(#clip312)" style="stroke:#000000; stroke-linecap:round; stroke-linejoin:round; stroke-width:2; stroke-opacity:0.1; fill:none" points="147.478,1440.79 2352.76,1440.79 "/>
<polyline clip-path="url(#clip312)" style="stroke:#000000; stroke-linecap:round; stroke-linejoin:round; stroke-width:2; stroke-opacity:0.1; fill:none" points="147.478,1096.42 2352.76,1096.42 "/>
<polyline clip-path="url(#clip312)" style="stroke:#000000; stroke-linecap:round; stroke-linejoin:round; stroke-width:2; stroke-opacity:0.1; fill:none" points="147.478,752.057 2352.76,752.057 "/>
<polyline clip-path="url(#clip312)" style="stroke:#000000; stroke-linecap:round; stroke-linejoin:round; stroke-width:2; stroke-opacity:0.1; fill:none" points="147.478,407.692 2352.76,407.692 "/>
<polyline clip-path="url(#clip312)" style="stroke:#000000; stroke-linecap:round; stroke-linejoin:round; stroke-width:2; stroke-opacity:0.1; fill:none" points="147.478,63.3265 2352.76,63.3265 "/>
<polyline clip-path="url(#clip310)" style="stroke:#000000; stroke-linecap:round; stroke-linejoin:round; stroke-width:4; stroke-opacity:1; fill:none" points="147.478,1486.45 2352.76,1486.45 "/>
<polyline clip-path="url(#clip310)" style="stroke:#000000; stroke-linecap:round; stroke-linejoin:round; stroke-width:4; stroke-opacity:1; fill:none" points="183.557,1486.45 183.557,1467.55 "/>
<polyline clip-path="url(#clip310)" style="stroke:#000000; stroke-linecap:round; stroke-linejoin:round; stroke-width:4; stroke-opacity:1; fill:none" points="710.253,1486.45 710.253,1467.55 "/>
<polyline clip-path="url(#clip310)" style="stroke:#000000; stroke-linecap:round; stroke-linejoin:round; stroke-width:4; stroke-opacity:1; fill:none" points="1236.95,1486.45 1236.95,1467.55 "/>
<polyline clip-path="url(#clip310)" style="stroke:#000000; stroke-linecap:round; stroke-linejoin:round; stroke-width:4; stroke-opacity:1; fill:none" points="1763.65,1486.45 1763.65,1467.55 "/>
<polyline clip-path="url(#clip310)" style="stroke:#000000; stroke-linecap:round; stroke-linejoin:round; stroke-width:4; stroke-opacity:1; fill:none" points="2290.34,1486.45 2290.34,1467.55 "/>
<path clip-path="url(#clip310)" d="M183.557 1517.37 Q179.946 1517.37 178.117 1520.93 Q176.311 1524.47 176.311 1531.6 Q176.311 1538.71 178.117 1542.27 Q179.946 1545.82 183.557 1545.82 Q187.191 1545.82 188.996 1542.27 Q190.825 1538.71 190.825 1531.6 Q190.825 1524.47 188.996 1520.93 Q187.191 1517.37 183.557 1517.37 M183.557 1513.66 Q189.367 1513.66 192.422 1518.27 Q195.501 1522.85 195.501 1531.6 Q195.501 1540.33 192.422 1544.94 Q189.367 1549.52 183.557 1549.52 Q177.746 1549.52 174.668 1544.94 Q171.612 1540.33 171.612 1531.6 Q171.612 1522.85 174.668 1518.27 Q177.746 1513.66 183.557 1513.66 Z" fill="#000000" fill-rule="nonzero" fill-opacity="1" /><path clip-path="url(#clip310)" d="M689.026 1544.91 L705.346 1544.91 L705.346 1548.85 L683.401 1548.85 L683.401 1544.91 Q686.063 1542.16 690.647 1537.53 Q695.253 1532.88 696.434 1531.53 Q698.679 1529.01 699.559 1527.27 Q700.461 1525.51 700.461 1523.82 Q700.461 1521.07 698.517 1519.33 Q696.596 1517.6 693.494 1517.6 Q691.295 1517.6 688.841 1518.36 Q686.411 1519.13 683.633 1520.68 L683.633 1515.95 Q686.457 1514.82 688.911 1514.24 Q691.364 1513.66 693.401 1513.66 Q698.772 1513.66 701.966 1516.35 Q705.16 1519.03 705.16 1523.52 Q705.16 1525.65 704.35 1527.57 Q703.563 1529.47 701.457 1532.07 Q700.878 1532.74 697.776 1535.95 Q694.674 1539.15 689.026 1544.91 Z" fill="#000000" fill-rule="nonzero" fill-opacity="1" /><path clip-path="url(#clip310)" d="M725.16 1517.37 Q721.549 1517.37 719.721 1520.93 Q717.915 1524.47 717.915 1531.6 Q717.915 1538.71 719.721 1542.27 Q721.549 1545.82 725.16 1545.82 Q728.795 1545.82 730.6 1542.27 Q732.429 1538.71 732.429 1531.6 Q732.429 1524.47 730.6 1520.93 Q728.795 1517.37 725.16 1517.37 M725.16 1513.66 Q730.971 1513.66 734.026 1518.27 Q737.105 1522.85 737.105 1531.6 Q737.105 1540.33 734.026 1544.94 Q730.971 1549.52 725.16 1549.52 Q719.35 1549.52 716.272 1544.94 Q713.216 1540.33 713.216 1531.6 Q713.216 1522.85 716.272 1518.27 Q719.35 1513.66 725.16 1513.66 Z" fill="#000000" fill-rule="nonzero" fill-opacity="1" /><path clip-path="url(#clip310)" d="M1225.12 1518.36 L1213.32 1536.81 L1225.12 1536.81 L1225.12 1518.36 M1223.89 1514.29 L1229.77 1514.29 L1229.77 1536.81 L1234.7 1536.81 L1234.7 1540.7 L1229.77 1540.7 L1229.77 1548.85 L1225.12 1548.85 L1225.12 1540.7 L1209.52 1540.7 L1209.52 1536.19 L1223.89 1514.29 Z" fill="#000000" fill-rule="nonzero" fill-opacity="1" /><path clip-path="url(#clip310)" d="M1252.44 1517.37 Q1248.82 1517.37 1247 1520.93 Q1245.19 1524.47 1245.19 1531.6 Q1245.19 1538.71 1247 1542.27 Q1248.82 1545.82 1252.44 1545.82 Q1256.07 1545.82 1257.88 1542.27 Q1259.7 1538.71 1259.7 1531.6 Q1259.7 1524.47 1257.88 1520.93 Q1256.07 1517.37 1252.44 1517.37 M1252.44 1513.66 Q1258.25 1513.66 1261.3 1518.27 Q1264.38 1522.85 1264.38 1531.6 Q1264.38 1540.33 1261.3 1544.94 Q1258.25 1549.52 1252.44 1549.52 Q1246.63 1549.52 1243.55 1544.94 Q1240.49 1540.33 1240.49 1531.6 Q1240.49 1522.85 1243.55 1518.27 Q1246.63 1513.66 1252.44 1513.66 Z" fill="#000000" fill-rule="nonzero" fill-opacity="1" /><path clip-path="url(#clip310)" d="M1749.05 1529.7 Q1745.9 1529.7 1744.05 1531.86 Q1742.22 1534.01 1742.22 1537.76 Q1742.22 1541.49 1744.05 1543.66 Q1745.9 1545.82 1749.05 1545.82 Q1752.2 1545.82 1754.03 1543.66 Q1755.88 1541.49 1755.88 1537.76 Q1755.88 1534.01 1754.03 1531.86 Q1752.2 1529.7 1749.05 1529.7 M1758.33 1515.05 L1758.33 1519.31 Q1756.57 1518.48 1754.77 1518.04 Q1752.99 1517.6 1751.23 1517.6 Q1746.6 1517.6 1744.14 1520.72 Q1741.71 1523.85 1741.37 1530.17 Q1742.73 1528.15 1744.79 1527.09 Q1746.85 1526 1749.33 1526 Q1754.54 1526 1757.55 1529.17 Q1760.58 1532.32 1760.58 1537.76 Q1760.58 1543.08 1757.43 1546.3 Q1754.28 1549.52 1749.05 1549.52 Q1743.06 1549.52 1739.88 1544.94 Q1736.71 1540.33 1736.71 1531.6 Q1736.71 1523.41 1740.6 1518.55 Q1744.49 1513.66 1751.04 1513.66 Q1752.8 1513.66 1754.58 1514.01 Q1756.39 1514.36 1758.33 1515.05 Z" fill="#000000" fill-rule="nonzero" fill-opacity="1" /><path clip-path="url(#clip310)" d="M1778.63 1517.37 Q1775.02 1517.37 1773.19 1520.93 Q1771.39 1524.47 1771.39 1531.6 Q1771.39 1538.71 1773.19 1542.27 Q1775.02 1545.82 1778.63 1545.82 Q1782.27 1545.82 1784.07 1542.27 Q1785.9 1538.71 1785.9 1531.6 Q1785.9 1524.47 1784.07 1520.93 Q1782.27 1517.37 1778.63 1517.37 M1778.63 1513.66 Q1784.44 1513.66 1787.5 1518.27 Q1790.58 1522.85 1790.58 1531.6 Q1790.58 1540.33 1787.5 1544.94 Q1784.44 1549.52 1778.63 1549.52 Q1772.82 1549.52 1769.75 1544.94 Q1766.69 1540.33 1766.69 1531.6 Q1766.69 1522.85 1769.75 1518.27 Q1772.82 1513.66 1778.63 1513.66 Z" fill="#000000" fill-rule="nonzero" fill-opacity="1" /><path clip-path="url(#clip310)" d="M2275.22 1532.44 Q2271.88 1532.44 2269.96 1534.22 Q2268.06 1536 2268.06 1539.13 Q2268.06 1542.25 2269.96 1544.03 Q2271.88 1545.82 2275.22 1545.82 Q2278.55 1545.82 2280.47 1544.03 Q2282.39 1542.23 2282.39 1539.13 Q2282.39 1536 2280.47 1534.22 Q2278.57 1532.44 2275.22 1532.44 M2270.54 1530.45 Q2267.53 1529.7 2265.84 1527.64 Q2264.17 1525.58 2264.17 1522.62 Q2264.17 1518.48 2267.11 1516.07 Q2270.08 1513.66 2275.22 1513.66 Q2280.38 1513.66 2283.32 1516.07 Q2286.26 1518.48 2286.26 1522.62 Q2286.26 1525.58 2284.57 1527.64 Q2282.9 1529.7 2279.91 1530.45 Q2283.29 1531.23 2285.17 1533.52 Q2287.07 1535.82 2287.07 1539.13 Q2287.07 1544.15 2283.99 1546.83 Q2280.93 1549.52 2275.22 1549.52 Q2269.5 1549.52 2266.42 1546.83 Q2263.36 1544.15 2263.36 1539.13 Q2263.36 1535.82 2265.26 1533.52 Q2267.16 1531.23 2270.54 1530.45 M2268.83 1523.06 Q2268.83 1525.75 2270.49 1527.25 Q2272.18 1528.76 2275.22 1528.76 Q2278.22 1528.76 2279.91 1527.25 Q2281.63 1525.75 2281.63 1523.06 Q2281.63 1520.38 2279.91 1518.87 Q2278.22 1517.37 2275.22 1517.37 Q2272.18 1517.37 2270.49 1518.87 Q2268.83 1520.38 2268.83 1523.06 Z" fill="#000000" fill-rule="nonzero" fill-opacity="1" /><path clip-path="url(#clip310)" d="M2305.38 1517.37 Q2301.77 1517.37 2299.94 1520.93 Q2298.13 1524.47 2298.13 1531.6 Q2298.13 1538.71 2299.94 1542.27 Q2301.77 1545.82 2305.38 1545.82 Q2309.01 1545.82 2310.82 1542.27 Q2312.65 1538.71 2312.65 1531.6 Q2312.65 1524.47 2310.82 1520.93 Q2309.01 1517.37 2305.38 1517.37 M2305.38 1513.66 Q2311.19 1513.66 2314.24 1518.27 Q2317.32 1522.85 2317.32 1531.6 Q2317.32 1540.33 2314.24 1544.94 Q2311.19 1549.52 2305.38 1549.52 Q2299.57 1549.52 2296.49 1544.94 Q2293.43 1540.33 2293.43 1531.6 Q2293.43 1522.85 2296.49 1518.27 Q2299.57 1513.66 2305.38 1513.66 Z" fill="#000000" fill-rule="nonzero" fill-opacity="1" /><polyline clip-path="url(#clip310)" style="stroke:#000000; stroke-linecap:round; stroke-linejoin:round; stroke-width:4; stroke-opacity:1; fill:none" points="147.478,1486.45 147.478,47.2441 "/>
<polyline clip-path="url(#clip310)" style="stroke:#000000; stroke-linecap:round; stroke-linejoin:round; stroke-width:4; stroke-opacity:1; fill:none" points="147.478,1440.79 166.376,1440.79 "/>
<polyline clip-path="url(#clip310)" style="stroke:#000000; stroke-linecap:round; stroke-linejoin:round; stroke-width:4; stroke-opacity:1; fill:none" points="147.478,1096.42 166.376,1096.42 "/>
<polyline clip-path="url(#clip310)" style="stroke:#000000; stroke-linecap:round; stroke-linejoin:round; stroke-width:4; stroke-opacity:1; fill:none" points="147.478,752.057 166.376,752.057 "/>
<polyline clip-path="url(#clip310)" style="stroke:#000000; stroke-linecap:round; stroke-linejoin:round; stroke-width:4; stroke-opacity:1; fill:none" points="147.478,407.692 166.376,407.692 "/>
<polyline clip-path="url(#clip310)" style="stroke:#000000; stroke-linecap:round; stroke-linejoin:round; stroke-width:4; stroke-opacity:1; fill:none" points="147.478,63.3265 166.376,63.3265 "/>
<path clip-path="url(#clip310)" d="M51.3625 1441.24 L81.0383 1441.24 L81.0383 1445.17 L51.3625 1445.17 L51.3625 1441.24 Z" fill="#000000" fill-rule="nonzero" fill-opacity="1" /><path clip-path="url(#clip310)" d="M95.1586 1454.13 L111.478 1454.13 L111.478 1458.07 L89.5336 1458.07 L89.5336 1454.13 Q92.1956 1451.38 96.7789 1446.75 Q101.385 1442.09 102.566 1440.75 Q104.811 1438.23 105.691 1436.49 Q106.594 1434.73 106.594 1433.04 Q106.594 1430.29 104.649 1428.55 Q102.728 1426.82 99.6261 1426.82 Q97.4271 1426.82 94.9734 1427.58 Q92.5428 1428.34 89.7651 1429.9 L89.7651 1425.17 Q92.5891 1424.04 95.0428 1423.46 Q97.4965 1422.88 99.5335 1422.88 Q104.904 1422.88 108.098 1425.57 Q111.293 1428.25 111.293 1432.74 Q111.293 1434.87 110.483 1436.79 Q109.696 1438.69 107.589 1441.28 Q107.01 1441.96 103.909 1445.17 Q100.807 1448.37 95.1586 1454.13 Z" fill="#000000" fill-rule="nonzero" fill-opacity="1" /><path clip-path="url(#clip310)" d="M50.9921 1096.87 L80.6679 1096.87 L80.6679 1100.81 L50.9921 1100.81 L50.9921 1096.87 Z" fill="#000000" fill-rule="nonzero" fill-opacity="1" /><path clip-path="url(#clip310)" d="M91.5706 1109.77 L99.2095 1109.77 L99.2095 1083.4 L90.8993 1085.07 L90.8993 1080.81 L99.1632 1079.14 L103.839 1079.14 L103.839 1109.77 L111.478 1109.77 L111.478 1113.7 L91.5706 1113.7 L91.5706 1109.77 Z" fill="#000000" fill-rule="nonzero" fill-opacity="1" /><path clip-path="url(#clip310)" d="M99.5335 737.855 Q95.9224 737.855 94.0937 741.42 Q92.2882 744.962 92.2882 752.091 Q92.2882 759.198 94.0937 762.763 Q95.9224 766.304 99.5335 766.304 Q103.168 766.304 104.973 762.763 Q106.802 759.198 106.802 752.091 Q106.802 744.962 104.973 741.42 Q103.168 737.855 99.5335 737.855 M99.5335 734.152 Q105.344 734.152 108.399 738.758 Q111.478 743.341 111.478 752.091 Q111.478 760.818 108.399 765.425 Q105.344 770.008 99.5335 770.008 Q93.7234 770.008 90.6447 765.425 Q87.5892 760.818 87.5892 752.091 Q87.5892 743.341 90.6447 738.758 Q93.7234 734.152 99.5335 734.152 Z" fill="#000000" fill-rule="nonzero" fill-opacity="1" /><path clip-path="url(#clip310)" d="M91.5706 421.036 L99.2095 421.036 L99.2095 394.671 L90.8993 396.337 L90.8993 392.078 L99.1632 390.412 L103.839 390.412 L103.839 421.036 L111.478 421.036 L111.478 424.972 L91.5706 424.972 L91.5706 421.036 Z" fill="#000000" fill-rule="nonzero" fill-opacity="1" /><path clip-path="url(#clip310)" d="M95.1586 76.6713 L111.478 76.6713 L111.478 80.6065 L89.5336 80.6065 L89.5336 76.6713 Q92.1956 73.9167 96.7789 69.2871 Q101.385 64.6343 102.566 63.2918 Q104.811 60.7686 105.691 59.0325 Q106.594 57.2733 106.594 55.5835 Q106.594 52.8289 104.649 51.0928 Q102.728 49.3567 99.6261 49.3567 Q97.4271 49.3567 94.9734 50.1205 Q92.5428 50.8844 89.7651 52.4353 L89.7651 47.7131 Q92.5891 46.5789 95.0428 46.0002 Q97.4965 45.4215 99.5335 45.4215 Q104.904 45.4215 108.098 48.1067 Q111.293 50.7918 111.293 55.2825 Q111.293 57.4122 110.483 59.3335 Q109.696 61.2316 107.589 63.8242 Q107.01 64.4955 103.909 67.713 Q100.807 70.9075 95.1586 76.6713 Z" fill="#000000" fill-rule="nonzero" fill-opacity="1" /><path clip-path="url(#clip312)" d="M209.891 1212.7 L236.226 1190.27 L262.561 1168.68 L288.896 1200.55 L315.231 1183.88 L341.566 1181.23 L367.9 1135.74 L394.235 1049 L420.57 974.993 L446.905 990.308 L473.24 965.704 L499.574 995.384 L525.909 1003.98 L552.244 1033.22 L578.579 1025.88 L604.914 1034.62 L631.249 1028.38 L657.583 1015.98 L683.918 1031.98 L710.253 1069.43 L736.588 1037.59 L762.923 1039.18 L789.258 1054.6 L815.592 1052.54 L841.927 1028.35 L868.262 1056.79 L894.597 1030.06 L920.932 976.367 L947.266 960.538 L973.601 938.223 L999.936 931.929 L1026.27 919.425 L1052.61 910.692 L1078.94 895.872 L1105.28 859.184 L1131.61 857.638 L1157.95 822.453 L1184.28 794.858 L1210.61 748.744 L1236.95 660.334 L1263.28 616.331 L1289.62 573.082 L1315.95 619.646 L1342.29 566.969 L1368.62 596.134 L1394.96 605.08 L1421.29 563.147 L1447.63 523.654 L1473.96 536.498 L1500.3 636.258 L1526.63 638.014 L1552.97 594.44 L1579.3 637.051 L1605.64 645.22 L1631.97 632.991 L1658.31 654.778 L1684.64 658.862 L1710.98 690.606 L1737.31 642.748 L1763.65 673.755 L1789.98 666.334 L1816.32 680.013 L1842.65 719.877 L1868.99 745.779 L1895.32 836.369 L1921.65 859.935 L1947.99 960.031 L1974.32 1027.85 L2000.66 1103.42 L2026.99 1142.33 L2053.33 1202.86 L2079.66 1229.93 L2106 1315.97 L2132.33 1410.23 L2158.67 1386.25 L2185 1394.28 L2211.34 1445.72 L2237.67 1391.53 L2264.01 1369.45 L2290.34 1287 L2290.34 904.646 L2264.01 987.578 L2237.67 1034.46 L2211.34 1092.65 L2185 1045.4 L2158.67 1048.8 L2132.33 1076.55 L2106 978.638 L2079.66 901.688 L2053.33 883.634 L2026.99 817.87 L2000.66 787.382 L1974.32 731.93 L1947.99 672.05 L1921.65 583.052 L1895.32 567.667 L1868.99 500.1 L1842.65 458.489 L1816.32 381.465 L1789.98 351.553 L1763.65 349.669 L1737.31 315.803 L1710.98 338.393 L1684.64 315.483 L1658.31 303.508 L1631.97 281.61 L1605.64 291.53 L1579.3 277.86 L1552.97 254.642 L1526.63 304.515 L1500.3 323.63 L1473.96 249.822 L1447.63 229.668 L1421.29 283.749 L1394.96 339.235 L1368.62 339.204 L1342.29 304.659 L1315.95 324.447 L1289.62 275.354 L1263.28 337.483 L1236.95 371.34 L1210.61 451.354 L1184.28 477.645 L1157.95 522.482 L1131.61 563.65 L1105.28 570.265 L1078.94 592.422 L1052.61 605.841 L1026.27 612.056 L999.936 610.949 L973.601 636.25 L947.266 660.507 L920.932 679.038 L894.597 712.042 L868.262 742.838 L841.927 722.574 L815.592 740.595 L789.258 767.003 L762.923 758.577 L736.588 771.99 L710.253 776.45 L683.918 736.472 L657.583 734.088 L631.249 756.579 L604.914 755.486 L578.579 733.241 L552.244 752.493 L525.909 717.223 L499.574 707.568 L473.24 671.424 L446.905 654.952 L420.57 642.899 L394.235 713.069 L367.9 758.085 L341.566 786.109 L315.231 766.061 L288.896 765.798 L262.561 734.946 L236.226 745.553 L209.891 752.937  Z" fill="#009af9" fill-rule="evenodd" fill-opacity="0.5"/>
<polyline clip-path="url(#clip312)" style="stroke:#009af9; stroke-linecap:round; stroke-linejoin:round; stroke-width:4; stroke-opacity:1; fill:none" points="209.891,982.817 236.226,967.912 262.561,951.815 288.896,983.173 315.231,974.972 341.566,983.671 367.9,946.911 394.235,881.033 420.57,808.946 446.905,822.63 473.24,818.564 499.574,851.476 525.909,860.602 552.244,892.855 578.579,879.56 604.914,895.051 631.249,892.479 657.583,875.033 683.918,884.227 710.253,922.939 736.588,904.789 762.923,898.878 789.258,910.803 815.592,896.566 841.927,875.463 868.262,899.814 894.597,871.051 920.932,827.702 947.266,810.522 973.601,787.237 999.936,771.439 1026.27,765.741 1052.61,758.267 1078.94,744.147 1105.28,714.724 1131.61,710.644 1157.95,672.467 1184.28,636.252 1210.61,600.049 1236.95,515.837 1263.28,476.907 1289.62,424.218 1315.95,472.047 1342.29,435.814 1368.62,467.669 1394.96,472.158 1421.29,423.448 1447.63,376.661 1473.96,393.16 1500.3,479.944 1526.63,471.265 1552.97,424.541 1579.3,457.455 1605.64,468.375 1631.97,457.3 1658.31,479.143 1684.64,487.172 1710.98,514.499 1737.31,479.275 1763.65,511.712 1789.98,508.944 1816.32,530.739 1842.65,589.183 1868.99,622.939 1895.32,702.018 1921.65,721.493 1947.99,816.041 1974.32,879.891 2000.66,945.402 2026.99,980.101 2053.33,1043.24 2079.66,1065.81 2106,1147.3 2132.33,1243.39 2158.67,1217.53 2185,1219.84 2211.34,1269.19 2237.67,1212.99 2264.01,1178.51 2290.34,1095.82 "/>
<path clip-path="url(#clip312)" d="M209.891 545.693 L236.226 562.113 L262.561 597.831 L288.896 603.435 L315.231 635.785 L341.566 668.653 L367.9 698.184 L394.235 714.003 L420.57 731.153 L446.905 703.47 L473.24 694.465 L499.574 700.711 L525.909 716.124 L552.244 751.698 L578.579 769.183 L604.914 792.375 L631.249 850.791 L657.583 880.424 L683.918 901.001 L710.253 908.822 L736.588 918.204 L762.923 915.292 L789.258 927.819 L815.592 947.377 L841.927 970.903 L868.262 961.87 L894.597 964.629 L920.932 987.85 L947.266 991.058 L973.601 1015.74 L999.936 1040.53 L1026.27 1045.11 L1052.61 1046.62 L1078.94 1061.42 L1105.28 1069.41 L1131.61 1033.65 L1157.95 1004.31 L1184.28 999.072 L1210.61 977.848 L1236.95 975.284 L1263.28 920.493 L1289.62 902.359 L1315.95 864.062 L1342.29 823.038 L1368.62 778.947 L1394.96 732.942 L1421.29 714.508 L1447.63 674.668 L1473.96 647.244 L1500.3 628.725 L1526.63 622.138 L1552.97 628.008 L1579.3 589.404 L1605.64 570.624 L1631.97 570.514 L1658.31 566.168 L1684.64 556.554 L1710.98 548.182 L1737.31 511.017 L1763.65 478.489 L1789.98 450.804 L1816.32 422.465 L1842.65 365.69 L1868.99 321.604 L1895.32 250.73 L1921.65 244.215 L1947.99 248.625 L1974.32 245.356 L2000.66 255.655 L2026.99 278.048 L2053.33 335.479 L2079.66 389.822 L2106 449.643 L2132.33 522.615 L2158.67 596.456 L2185 664.869 L2211.34 719.118 L2237.67 768.164 L2264.01 796.501 L2290.34 831.002 L2290.34 654.89 L2264.01 642.342 L2237.67 620.613 L2211.34 590.435 L2185 529.495 L2158.67 475.359 L2132.33 389.554 L2106 305.452 L2079.66 246.605 L2053.33 189.606 L2026.99 128.424 L2000.66 104.735 L1974.32 120.778 L1947.99 107.953 L1921.65 120.698 L1895.32 160.739 L1868.99 179.949 L1842.65 230.39 L1816.32 287.198 L1789.98 339.71 L1763.65 376.098 L1737.31 384.751 L1710.98 427.281 L1684.64 438.602 L1658.31 449.548 L1631.97 426.831 L1605.64 441.071 L1579.3 456.859 L1552.97 486.435 L1526.63 495.181 L1500.3 490.157 L1473.96 515.383 L1447.63 545.326 L1421.29 584.578 L1394.96 603.104 L1368.62 634.853 L1342.29 677.257 L1315.95 721.139 L1289.62 768.433 L1263.28 790.628 L1236.95 830.135 L1210.61 844.487 L1184.28 852.701 L1157.95 882.152 L1131.61 886.236 L1105.28 907.692 L1078.94 924.962 L1052.61 926.057 L1026.27 919.863 L999.936 920.083 L973.601 886.82 L947.266 862.669 L920.932 846.772 L894.597 827.001 L868.262 824.679 L841.927 824.406 L815.592 804.999 L789.258 784.946 L762.923 781.989 L736.588 797.486 L710.253 785.511 L683.918 777.432 L657.583 758.955 L631.249 731.338 L604.914 667.841 L578.579 646.79 L552.244 609.476 L525.909 584.352 L499.574 585.754 L473.24 567.337 L446.905 577.289 L420.57 579.232 L394.235 576.96 L367.9 557.044 L341.566 527.898 L315.231 505.062 L288.896 473.693 L262.561 466.171 L236.226 423.194 L209.891 373.358  Z" fill="#e26f46" fill-rule="evenodd" fill-opacity="0.5"/>
<polyline clip-path="url(#clip312)" style="stroke:#e26f46; stroke-linecap:round; stroke-linejoin:round; stroke-width:4; stroke-opacity:1; fill:none" points="209.891,459.526 236.226,492.654 262.561,532.001 288.896,538.564 315.231,570.423 341.566,598.275 367.9,627.614 394.235,645.481 420.57,655.193 446.905,640.379 473.24,630.901 499.574,643.233 525.909,650.238 552.244,680.587 578.579,707.987 604.914,730.108 631.249,791.065 657.583,819.689 683.918,839.216 710.253,847.166 736.588,857.845 762.923,848.641 789.258,856.383 815.592,876.188 841.927,897.655 868.262,893.275 894.597,895.815 920.932,917.311 947.266,926.863 973.601,951.281 999.936,980.305 1026.27,982.487 1052.61,986.34 1078.94,993.193 1105.28,988.551 1131.61,959.945 1157.95,943.232 1184.28,925.886 1210.61,911.167 1236.95,902.709 1263.28,855.56 1289.62,835.396 1315.95,792.601 1342.29,750.147 1368.62,706.9 1394.96,668.023 1421.29,649.543 1447.63,609.997 1473.96,581.314 1500.3,559.441 1526.63,558.66 1552.97,557.222 1579.3,523.132 1605.64,505.848 1631.97,498.673 1658.31,507.858 1684.64,497.578 1710.98,487.732 1737.31,447.884 1763.65,427.294 1789.98,395.257 1816.32,354.832 1842.65,298.04 1868.99,250.776 1895.32,205.735 1921.65,182.457 1947.99,178.289 1974.32,183.067 2000.66,180.195 2026.99,203.236 2053.33,262.542 2079.66,318.214 2106,377.547 2132.33,456.085 2158.67,535.908 2185,597.182 2211.34,654.777 2237.67,694.389 2264.01,719.421 2290.34,742.946 "/>
<polyline clip-path="url(#clip312)" style="stroke:#3da44d; stroke-linecap:round; stroke-linejoin:round; stroke-width:4; stroke-opacity:1; fill:none" stroke-dasharray="16, 10" points="209.891,869.512 236.226,830.638 262.561,843.27 288.896,870.076 315.231,828.826 341.566,855.109 367.9,853.214 394.235,775.386 420.57,680.568 446.905,747.865 473.24,784.948 499.574,801.924 525.909,840.419 552.244,851.923 578.579,829.54 604.914,823.864 631.249,799.042 657.583,848.773 683.918,847.366 710.253,917.554 736.588,871.483 762.923,851.468 789.258,803.076 815.592,794.826 841.927,859.565 868.262,858.627 894.597,794.807 920.932,750.973 947.266,772.352 973.601,745.064 999.936,765.007 1026.27,784.295 1052.61,741.634 1078.94,720.081 1105.28,735.83 1131.61,699.218 1157.95,660.65 1184.28,662.038 1210.61,653.919 1236.95,590.786 1263.28,548.395 1289.62,504.677 1315.95,572.77 1342.29,518.111 1368.62,545.364 1394.96,546.264 1421.29,504.787 1447.63,411.409 1473.96,400.612 1500.3,421.879 1526.63,391.067 1552.97,317.352 1579.3,366.295 1605.64,403.649 1631.97,376.029 1658.31,389.28 1684.64,438.389 1710.98,482.061 1737.31,497.163 1763.65,552.116 1789.98,508.514 1816.32,536.197 1842.65,546.01 1868.99,530.74 1895.32,633.095 1921.65,674.458 1947.99,757.588 1974.32,859.776 2000.66,894.46 2026.99,906.114 2053.33,970.698 2079.66,1026.89 2106,1134.02 2132.33,1238.34 2158.67,1216.36 2185,1239.83 2211.34,1251.9 2237.67,1203.2 2264.01,1143.29 2290.34,1032.16 "/>
<polyline clip-path="url(#clip312)" style="stroke:#c271d2; stroke-linecap:round; stroke-linejoin:round; stroke-width:4; stroke-opacity:1; fill:none" stroke-dasharray="16, 10" points="209.891,474.222 236.226,509.78 262.561,517.336 288.896,553.834 315.231,562.75 341.566,575.394 367.9,613.621 394.235,580.964 420.57,603.24 446.905,601.764 473.24,612.83 499.574,587.289 525.909,627.073 552.244,625.581 578.579,683.017 604.914,728.608 631.249,801.691 657.583,862.534 683.918,857.101 710.253,836.903 736.588,830.807 762.923,834.235 789.258,865.418 815.592,881.088 841.927,905.765 868.262,898.371 894.597,920.577 920.932,969.898 947.266,967.591 973.601,1033.84 999.936,1061.31 1026.27,1058.42 1052.61,1065.72 1078.94,1074.71 1105.28,1063.79 1131.61,966.009 1157.95,1000.15 1184.28,939.91 1210.61,933.505 1236.95,943.355 1263.28,913.038 1289.62,867.816 1315.95,858.163 1342.29,780.098 1368.62,646.756 1394.96,643.785 1421.29,600.523 1447.63,608.222 1473.96,538.432 1500.3,544.752 1526.63,558.648 1552.97,553.404 1579.3,460.433 1605.64,462.602 1631.97,433.685 1658.31,440.532 1684.64,477.27 1710.98,483.321 1737.31,446.769 1763.65,446.161 1789.98,441.948 1816.32,401.65 1842.65,317.198 1868.99,241.599 1895.32,157.009 1921.65,93.6437 1947.99,126.334 1974.32,87.9763 2000.66,154.123 2026.99,223.165 2053.33,264.305 2079.66,253.173 2106,329.17 2132.33,424.409 2158.67,496.372 2185,553.952 2211.34,584.421 2237.67,663.753 2264.01,697.193 2290.34,725.26 "/>
<path clip-path="url(#clip310)" d="M220.987 354.418 L681.282 354.418 L681.282 95.2176 L220.987 95.2176  Z" fill="#ffffff" fill-rule="evenodd" fill-opacity="1"/>
<polyline clip-path="url(#clip310)" style="stroke:#000000; stroke-linecap:round; stroke-linejoin:round; stroke-width:4; stroke-opacity:1; fill:none" points="220.987,354.418 681.282,354.418 681.282,95.2176 220.987,95.2176 220.987,354.418 "/>
<polyline clip-path="url(#clip310)" style="stroke:#009af9; stroke-linecap:round; stroke-linejoin:round; stroke-width:4; stroke-opacity:1; fill:none" points="245.49,147.058 392.509,147.058 "/>
<path clip-path="url(#clip310)" d="M421.688 133.62 L421.688 146.606 L427.567 146.606 Q430.831 146.606 432.614 144.916 Q434.396 143.227 434.396 140.102 Q434.396 137 432.614 135.31 Q430.831 133.62 427.567 133.62 L421.688 133.62 M417.012 129.778 L427.567 129.778 Q433.378 129.778 436.34 132.416 Q439.327 135.032 439.327 140.102 Q439.327 145.217 436.34 147.833 Q433.378 150.449 427.567 150.449 L421.688 150.449 L421.688 164.338 L417.012 164.338 L417.012 129.778 Z" fill="#000000" fill-rule="nonzero" fill-opacity="1" /><path clip-path="url(#clip310)" d="M445.6 129.778 L465.461 129.778 L465.461 133.713 L450.276 133.713 L450.276 143.898 L463.979 143.898 L463.979 147.833 L450.276 147.833 L450.276 164.338 L445.6 164.338 L445.6 129.778 Z" fill="#000000" fill-rule="nonzero" fill-opacity="1" /><path clip-path="url(#clip310)" d="M504.28 139.176 L504.28 143.203 Q502.474 142.277 500.53 141.815 Q498.586 141.352 496.502 141.352 Q493.331 141.352 491.734 142.324 Q490.16 143.296 490.16 145.24 Q490.16 146.722 491.294 147.578 Q492.428 148.412 495.854 149.176 L497.312 149.5 Q501.849 150.472 503.748 152.254 Q505.669 154.014 505.669 157.185 Q505.669 160.796 502.798 162.902 Q499.951 165.009 494.951 165.009 Q492.868 165.009 490.599 164.592 Q488.354 164.199 485.854 163.388 L485.854 158.99 Q488.215 160.217 490.507 160.842 Q492.799 161.444 495.044 161.444 Q498.053 161.444 499.673 160.426 Q501.294 159.384 501.294 157.509 Q501.294 155.773 500.113 154.847 Q498.956 153.921 494.998 153.064 L493.516 152.717 Q489.558 151.884 487.799 150.171 Q486.039 148.435 486.039 145.426 Q486.039 141.768 488.632 139.778 Q491.224 137.787 495.993 137.787 Q498.354 137.787 500.437 138.134 Q502.521 138.481 504.28 139.176 Z" fill="#000000" fill-rule="nonzero" fill-opacity="1" /><path clip-path="url(#clip310)" d="M532.636 143.389 Q534.233 140.518 536.456 139.153 Q538.678 137.787 541.687 137.787 Q545.738 137.787 547.937 140.634 Q550.136 143.458 550.136 148.689 L550.136 164.338 L545.854 164.338 L545.854 148.828 Q545.854 145.102 544.534 143.296 Q543.215 141.49 540.507 141.49 Q537.196 141.49 535.275 143.69 Q533.354 145.889 533.354 149.685 L533.354 164.338 L529.071 164.338 L529.071 148.828 Q529.071 145.078 527.752 143.296 Q526.433 141.49 523.678 141.49 Q520.414 141.49 518.493 143.713 Q516.572 145.912 516.572 149.685 L516.572 164.338 L512.289 164.338 L512.289 138.412 L516.572 138.412 L516.572 142.44 Q518.03 140.055 520.067 138.921 Q522.104 137.787 524.905 137.787 Q527.729 137.787 529.696 139.222 Q531.687 140.657 532.636 143.389 Z" fill="#000000" fill-rule="nonzero" fill-opacity="1" /><path clip-path="url(#clip310)" d="M568.678 141.398 Q565.252 141.398 563.261 144.083 Q561.27 146.745 561.27 151.398 Q561.27 156.051 563.238 158.736 Q565.229 161.398 568.678 161.398 Q572.081 161.398 574.071 158.713 Q576.062 156.027 576.062 151.398 Q576.062 146.791 574.071 144.106 Q572.081 141.398 568.678 141.398 M568.678 137.787 Q574.233 137.787 577.405 141.398 Q580.576 145.009 580.576 151.398 Q580.576 157.764 577.405 161.398 Q574.233 165.009 568.678 165.009 Q563.099 165.009 559.928 161.398 Q556.78 157.764 556.78 151.398 Q556.78 145.009 559.928 141.398 Q563.099 137.787 568.678 137.787 Z" fill="#000000" fill-rule="nonzero" fill-opacity="1" /><path clip-path="url(#clip310)" d="M597.682 141.398 Q594.256 141.398 592.266 144.083 Q590.275 146.745 590.275 151.398 Q590.275 156.051 592.242 158.736 Q594.233 161.398 597.682 161.398 Q601.085 161.398 603.076 158.713 Q605.066 156.027 605.066 151.398 Q605.066 146.791 603.076 144.106 Q601.085 141.398 597.682 141.398 M597.682 137.787 Q603.238 137.787 606.409 141.398 Q609.58 145.009 609.58 151.398 Q609.58 157.764 606.409 161.398 Q603.238 165.009 597.682 165.009 Q592.104 165.009 588.932 161.398 Q585.784 157.764 585.784 151.398 Q585.784 145.009 588.932 141.398 Q592.104 137.787 597.682 137.787 Z" fill="#000000" fill-rule="nonzero" fill-opacity="1" /><path clip-path="url(#clip310)" d="M620.853 131.051 L620.853 138.412 L629.626 138.412 L629.626 141.722 L620.853 141.722 L620.853 155.796 Q620.853 158.967 621.71 159.87 Q622.589 160.773 625.252 160.773 L629.626 160.773 L629.626 164.338 L625.252 164.338 Q620.321 164.338 618.446 162.509 Q616.571 160.657 616.571 155.796 L616.571 141.722 L613.446 141.722 L613.446 138.412 L616.571 138.412 L616.571 131.051 L620.853 131.051 Z" fill="#000000" fill-rule="nonzero" fill-opacity="1" /><path clip-path="url(#clip310)" d="M656.779 148.689 L656.779 164.338 L652.52 164.338 L652.52 148.828 Q652.52 145.148 651.085 143.319 Q649.65 141.49 646.779 141.49 Q643.33 141.49 641.339 143.69 Q639.349 145.889 639.349 149.685 L639.349 164.338 L635.066 164.338 L635.066 128.319 L639.349 128.319 L639.349 142.44 Q640.876 140.102 642.937 138.944 Q645.02 137.787 647.728 137.787 Q652.196 137.787 654.487 140.565 Q656.779 143.319 656.779 148.689 Z" fill="#000000" fill-rule="nonzero" fill-opacity="1" /><polyline clip-path="url(#clip310)" style="stroke:#e26f46; stroke-linecap:round; stroke-linejoin:round; stroke-width:4; stroke-opacity:1; fill:none" points="245.49,198.898 392.509,198.898 "/>
<path clip-path="url(#clip310)" d="M421.688 185.46 L421.688 198.446 L427.567 198.446 Q430.831 198.446 432.614 196.756 Q434.396 195.067 434.396 191.942 Q434.396 188.84 432.614 187.15 Q430.831 185.46 427.567 185.46 L421.688 185.46 M417.012 181.618 L427.567 181.618 Q433.378 181.618 436.34 184.256 Q439.327 186.872 439.327 191.942 Q439.327 197.057 436.34 199.673 Q433.378 202.289 427.567 202.289 L421.688 202.289 L421.688 216.178 L417.012 216.178 L417.012 181.618 Z" fill="#000000" fill-rule="nonzero" fill-opacity="1" /><path clip-path="url(#clip310)" d="M445.6 181.618 L465.461 181.618 L465.461 185.553 L450.276 185.553 L450.276 195.738 L463.979 195.738 L463.979 199.673 L450.276 199.673 L450.276 216.178 L445.6 216.178 L445.6 181.618 Z" fill="#000000" fill-rule="nonzero" fill-opacity="1" /><path clip-path="url(#clip310)" d="M504.28 191.016 L504.28 195.043 Q502.474 194.117 500.53 193.655 Q498.586 193.192 496.502 193.192 Q493.331 193.192 491.734 194.164 Q490.16 195.136 490.16 197.08 Q490.16 198.562 491.294 199.418 Q492.428 200.252 495.854 201.016 L497.312 201.34 Q501.849 202.312 503.748 204.094 Q505.669 205.854 505.669 209.025 Q505.669 212.636 502.798 214.742 Q499.951 216.849 494.951 216.849 Q492.868 216.849 490.599 216.432 Q488.354 216.039 485.854 215.228 L485.854 210.83 Q488.215 212.057 490.507 212.682 Q492.799 213.284 495.044 213.284 Q498.053 213.284 499.673 212.266 Q501.294 211.224 501.294 209.349 Q501.294 207.613 500.113 206.687 Q498.956 205.761 494.998 204.904 L493.516 204.557 Q489.558 203.724 487.799 202.011 Q486.039 200.275 486.039 197.266 Q486.039 193.608 488.632 191.618 Q491.224 189.627 495.993 189.627 Q498.354 189.627 500.437 189.974 Q502.521 190.321 504.28 191.016 Z" fill="#000000" fill-rule="nonzero" fill-opacity="1" /><path clip-path="url(#clip310)" d="M532.636 195.229 Q534.233 192.358 536.456 190.993 Q538.678 189.627 541.687 189.627 Q545.738 189.627 547.937 192.474 Q550.136 195.298 550.136 200.529 L550.136 216.178 L545.854 216.178 L545.854 200.668 Q545.854 196.942 544.534 195.136 Q543.215 193.33 540.507 193.33 Q537.196 193.33 535.275 195.53 Q533.354 197.729 533.354 201.525 L533.354 216.178 L529.071 216.178 L529.071 200.668 Q529.071 196.918 527.752 195.136 Q526.433 193.33 523.678 193.33 Q520.414 193.33 518.493 195.553 Q516.572 197.752 516.572 201.525 L516.572 216.178 L512.289 216.178 L512.289 190.252 L516.572 190.252 L516.572 194.28 Q518.03 191.895 520.067 190.761 Q522.104 189.627 524.905 189.627 Q527.729 189.627 529.696 191.062 Q531.687 192.497 532.636 195.229 Z" fill="#000000" fill-rule="nonzero" fill-opacity="1" /><path clip-path="url(#clip310)" d="M568.678 193.238 Q565.252 193.238 563.261 195.923 Q561.27 198.585 561.27 203.238 Q561.27 207.891 563.238 210.576 Q565.229 213.238 568.678 213.238 Q572.081 213.238 574.071 210.553 Q576.062 207.867 576.062 203.238 Q576.062 198.631 574.071 195.946 Q572.081 193.238 568.678 193.238 M568.678 189.627 Q574.233 189.627 577.405 193.238 Q580.576 196.849 580.576 203.238 Q580.576 209.604 577.405 213.238 Q574.233 216.849 568.678 216.849 Q563.099 216.849 559.928 213.238 Q556.78 209.604 556.78 203.238 Q556.78 196.849 559.928 193.238 Q563.099 189.627 568.678 189.627 Z" fill="#000000" fill-rule="nonzero" fill-opacity="1" /><path clip-path="url(#clip310)" d="M597.682 193.238 Q594.256 193.238 592.266 195.923 Q590.275 198.585 590.275 203.238 Q590.275 207.891 592.242 210.576 Q594.233 213.238 597.682 213.238 Q601.085 213.238 603.076 210.553 Q605.066 207.867 605.066 203.238 Q605.066 198.631 603.076 195.946 Q601.085 193.238 597.682 193.238 M597.682 189.627 Q603.238 189.627 606.409 193.238 Q609.58 196.849 609.58 203.238 Q609.58 209.604 606.409 213.238 Q603.238 216.849 597.682 216.849 Q592.104 216.849 588.932 213.238 Q585.784 209.604 585.784 203.238 Q585.784 196.849 588.932 193.238 Q592.104 189.627 597.682 189.627 Z" fill="#000000" fill-rule="nonzero" fill-opacity="1" /><path clip-path="url(#clip310)" d="M620.853 182.891 L620.853 190.252 L629.626 190.252 L629.626 193.562 L620.853 193.562 L620.853 207.636 Q620.853 210.807 621.71 211.71 Q622.589 212.613 625.252 212.613 L629.626 212.613 L629.626 216.178 L625.252 216.178 Q620.321 216.178 618.446 214.349 Q616.571 212.497 616.571 207.636 L616.571 193.562 L613.446 193.562 L613.446 190.252 L616.571 190.252 L616.571 182.891 L620.853 182.891 Z" fill="#000000" fill-rule="nonzero" fill-opacity="1" /><path clip-path="url(#clip310)" d="M656.779 200.529 L656.779 216.178 L652.52 216.178 L652.52 200.668 Q652.52 196.988 651.085 195.159 Q649.65 193.33 646.779 193.33 Q643.33 193.33 641.339 195.53 Q639.349 197.729 639.349 201.525 L639.349 216.178 L635.066 216.178 L635.066 180.159 L639.349 180.159 L639.349 194.28 Q640.876 191.942 642.937 190.784 Q645.02 189.627 647.728 189.627 Q652.196 189.627 654.487 192.405 Q656.779 195.159 656.779 200.529 Z" fill="#000000" fill-rule="nonzero" fill-opacity="1" /><polyline clip-path="url(#clip310)" style="stroke:#3da44d; stroke-linecap:round; stroke-linejoin:round; stroke-width:4; stroke-opacity:1; fill:none" stroke-dasharray="16, 10" points="245.49,250.738 392.509,250.738 "/>
<path clip-path="url(#clip310)" d="M417.012 233.458 L446.248 233.458 L446.248 237.393 L433.979 237.393 L433.979 268.018 L429.28 268.018 L429.28 237.393 L417.012 237.393 L417.012 233.458 Z" fill="#000000" fill-rule="nonzero" fill-opacity="1" /><path clip-path="url(#clip310)" d="M458.632 246.073 Q457.914 245.657 457.058 245.471 Q456.225 245.263 455.206 245.263 Q451.595 245.263 449.651 247.624 Q447.729 249.962 447.729 254.36 L447.729 268.018 L443.447 268.018 L443.447 242.092 L447.729 242.092 L447.729 246.12 Q449.072 243.758 451.225 242.624 Q453.377 241.467 456.456 241.467 Q456.896 241.467 457.428 241.536 Q457.961 241.583 458.609 241.698 L458.632 246.073 Z" fill="#000000" fill-rule="nonzero" fill-opacity="1" /><path clip-path="url(#clip310)" d="M462.66 257.786 L462.66 242.092 L466.919 242.092 L466.919 257.624 Q466.919 261.305 468.354 263.156 Q469.789 264.985 472.66 264.985 Q476.109 264.985 478.1 262.786 Q480.113 260.587 480.113 256.791 L480.113 242.092 L484.373 242.092 L484.373 268.018 L480.113 268.018 L480.113 264.036 Q478.562 266.397 476.502 267.555 Q474.465 268.689 471.757 268.689 Q467.289 268.689 464.975 265.911 Q462.66 263.133 462.66 257.786 M473.377 241.467 L473.377 241.467 Z" fill="#000000" fill-rule="nonzero" fill-opacity="1" /><path clip-path="url(#clip310)" d="M515.322 253.99 L515.322 256.073 L495.738 256.073 Q496.016 260.471 498.377 262.786 Q500.761 265.078 504.998 265.078 Q507.451 265.078 509.743 264.476 Q512.058 263.874 514.326 262.67 L514.326 266.698 Q512.035 267.67 509.627 268.18 Q507.22 268.689 504.743 268.689 Q498.539 268.689 494.905 265.078 Q491.294 261.467 491.294 255.309 Q491.294 248.944 494.72 245.217 Q498.169 241.467 504.002 241.467 Q509.234 241.467 512.266 244.846 Q515.322 248.203 515.322 253.99 M511.062 252.74 Q511.016 249.245 509.095 247.161 Q507.197 245.078 504.048 245.078 Q500.484 245.078 498.331 247.092 Q496.201 249.106 495.877 252.763 L511.062 252.74 Z" fill="#000000" fill-rule="nonzero" fill-opacity="1" /><polyline clip-path="url(#clip310)" style="stroke:#c271d2; stroke-linecap:round; stroke-linejoin:round; stroke-width:4; stroke-opacity:1; fill:none" stroke-dasharray="16, 10" points="245.49,302.578 392.509,302.578 "/>
<path clip-path="url(#clip310)" d="M417.012 285.298 L446.248 285.298 L446.248 289.233 L433.979 289.233 L433.979 319.858 L429.28 319.858 L429.28 289.233 L417.012 289.233 L417.012 285.298 Z" fill="#000000" fill-rule="nonzero" fill-opacity="1" /><path clip-path="url(#clip310)" d="M458.632 297.913 Q457.914 297.497 457.058 297.311 Q456.225 297.103 455.206 297.103 Q451.595 297.103 449.651 299.464 Q447.729 301.802 447.729 306.2 L447.729 319.858 L443.447 319.858 L443.447 293.932 L447.729 293.932 L447.729 297.96 Q449.072 295.598 451.225 294.464 Q453.377 293.307 456.456 293.307 Q456.896 293.307 457.428 293.376 Q457.961 293.423 458.609 293.538 L458.632 297.913 Z" fill="#000000" fill-rule="nonzero" fill-opacity="1" /><path clip-path="url(#clip310)" d="M462.66 309.626 L462.66 293.932 L466.919 293.932 L466.919 309.464 Q466.919 313.145 468.354 314.996 Q469.789 316.825 472.66 316.825 Q476.109 316.825 478.1 314.626 Q480.113 312.427 480.113 308.631 L480.113 293.932 L484.373 293.932 L484.373 319.858 L480.113 319.858 L480.113 315.876 Q478.562 318.237 476.502 319.395 Q474.465 320.529 471.757 320.529 Q467.289 320.529 464.975 317.751 Q462.66 314.973 462.66 309.626 M473.377 293.307 L473.377 293.307 Z" fill="#000000" fill-rule="nonzero" fill-opacity="1" /><path clip-path="url(#clip310)" d="M515.322 305.83 L515.322 307.913 L495.738 307.913 Q496.016 312.311 498.377 314.626 Q500.761 316.918 504.998 316.918 Q507.451 316.918 509.743 316.316 Q512.058 315.714 514.326 314.51 L514.326 318.538 Q512.035 319.51 509.627 320.02 Q507.22 320.529 504.743 320.529 Q498.539 320.529 494.905 316.918 Q491.294 313.307 491.294 307.149 Q491.294 300.784 494.72 297.057 Q498.169 293.307 504.002 293.307 Q509.234 293.307 512.266 296.686 Q515.322 300.043 515.322 305.83 M511.062 304.58 Q511.016 301.085 509.095 299.001 Q507.197 296.918 504.048 296.918 Q500.484 296.918 498.331 298.932 Q496.201 300.946 495.877 304.603 L511.062 304.58 Z" fill="#000000" fill-rule="nonzero" fill-opacity="1" /></svg>
