<?xml version="1.0" encoding="utf-8"?>
<svg xmlns="http://www.w3.org/2000/svg" xmlns:xlink="http://www.w3.org/1999/xlink" width="600" height="400" viewBox="0 0 2400 1600">
<defs>
  <clipPath id="clip340">
    <rect x="0" y="0" width="2400" height="1600"/>
  </clipPath>
</defs>
<path clip-path="url(#clip340)" d="M0 1600 L2400 1600 L2400 0 L0 0  Z" fill="#ffffff" fill-rule="evenodd" fill-opacity="1"/>
<defs>
  <clipPath id="clip341">
    <rect x="480" y="0" width="1681" height="1600"/>
  </clipPath>
</defs>
<path clip-path="url(#clip340)" d="M193.936 1486.45 L1175.98 1486.45 L1175.98 47.2441 L193.936 47.2441  Z" fill="#ffffff" fill-rule="evenodd" fill-opacity="1"/>
<defs>
  <clipPath id="clip342">
    <rect x="193" y="47" width="983" height="1440"/>
  </clipPath>
</defs>
<polyline clip-path="url(#clip342)" style="stroke:#000000; stroke-linecap:round; stroke-linejoin:round; stroke-width:2; stroke-opacity:0.1; fill:none" points="210.002,1486.45 210.002,47.2441 "/>
<polyline clip-path="url(#clip342)" style="stroke:#000000; stroke-linecap:round; stroke-linejoin:round; stroke-width:2; stroke-opacity:0.1; fill:none" points="444.55,1486.45 444.55,47.2441 "/>
<polyline clip-path="url(#clip342)" style="stroke:#000000; stroke-linecap:round; stroke-linejoin:round; stroke-width:2; stroke-opacity:0.1; fill:none" points="679.097,1486.45 679.097,47.2441 "/>
<polyline clip-path="url(#clip342)" style="stroke:#000000; stroke-linecap:round; stroke-linejoin:round; stroke-width:2; stroke-opacity:0.1; fill:none" points="913.644,1486.45 913.644,47.2441 "/>
<polyline clip-path="url(#clip342)" style="stroke:#000000; stroke-linecap:round; stroke-linejoin:round; stroke-width:2; stroke-opacity:0.1; fill:none" points="1148.19,1486.45 1148.19,47.2441 "/>
<polyline clip-path="url(#clip342)" style="stroke:#000000; stroke-linecap:round; stroke-linejoin:round; stroke-width:2; stroke-opacity:0.1; fill:none" points="193.936,1444.89 1175.98,1444.89 "/>
<polyline clip-path="url(#clip342)" style="stroke:#000000; stroke-linecap:round; stroke-linejoin:round; stroke-width:2; stroke-opacity:0.1; fill:none" points="193.936,1199.28 1175.98,1199.28 "/>
<polyline clip-path="url(#clip342)" style="stroke:#000000; stroke-linecap:round; stroke-linejoin:round; stroke-width:2; stroke-opacity:0.1; fill:none" points="193.936,953.669 1175.98,953.669 "/>
<polyline clip-path="url(#clip342)" style="stroke:#000000; stroke-linecap:round; stroke-linejoin:round; stroke-width:2; stroke-opacity:0.1; fill:none" points="193.936,708.059 1175.98,708.059 "/>
<polyline clip-path="url(#clip342)" style="stroke:#000000; stroke-linecap:round; stroke-linejoin:round; stroke-width:2; stroke-opacity:0.1; fill:none" points="193.936,462.45 1175.98,462.45 "/>
<polyline clip-path="url(#clip342)" style="stroke:#000000; stroke-linecap:round; stroke-linejoin:round; stroke-width:2; stroke-opacity:0.1; fill:none" points="193.936,216.841 1175.98,216.841 "/>
<polyline clip-path="url(#clip340)" style="stroke:#000000; stroke-linecap:round; stroke-linejoin:round; stroke-width:4; stroke-opacity:1; fill:none" points="193.936,1486.45 1175.98,1486.45 "/>
<polyline clip-path="url(#clip340)" style="stroke:#000000; stroke-linecap:round; stroke-linejoin:round; stroke-width:4; stroke-opacity:1; fill:none" points="210.002,1486.45 210.002,1467.55 "/>
<polyline clip-path="url(#clip340)" style="stroke:#000000; stroke-linecap:round; stroke-linejoin:round; stroke-width:4; stroke-opacity:1; fill:none" points="444.55,1486.45 444.55,1467.55 "/>
<polyline clip-path="url(#clip340)" style="stroke:#000000; stroke-linecap:round; stroke-linejoin:round; stroke-width:4; stroke-opacity:1; fill:none" points="679.097,1486.45 679.097,1467.55 "/>
<polyline clip-path="url(#clip340)" style="stroke:#000000; stroke-linecap:round; stroke-linejoin:round; stroke-width:4; stroke-opacity:1; fill:none" points="913.644,1486.45 913.644,1467.55 "/>
<polyline clip-path="url(#clip340)" style="stroke:#000000; stroke-linecap:round; stroke-linejoin:round; stroke-width:4; stroke-opacity:1; fill:none" points="1148.19,1486.45 1148.19,1467.55 "/>
<path clip-path="url(#clip340)" d="M210.002 1517.37 Q206.391 1517.37 204.563 1520.93 Q202.757 1524.47 202.757 1531.6 Q202.757 1538.71 204.563 1542.27 Q206.391 1545.82 210.002 1545.82 Q213.637 1545.82 215.442 1542.27 Q217.271 1538.71 217.271 1531.6 Q217.271 1524.47 215.442 1520.93 Q213.637 1517.37 210.002 1517.37 M210.002 1513.66 Q215.813 1513.66 218.868 1518.27 Q221.947 1522.85 221.947 1531.6 Q221.947 1540.33 218.868 1544.94 Q215.813 1549.52 210.002 1549.52 Q204.192 1549.52 201.114 1544.94 Q198.058 1540.33 198.058 1531.6 Q198.058 1522.85 201.114 1518.27 Q204.192 1513.66 210.002 1513.66 Z" fill="#000000" fill-rule="nonzero" fill-opacity="1" /><path clip-path="url(#clip340)" d="M423.323 1544.91 L439.642 1544.91 L439.642 1548.85 L417.698 1548.85 L417.698 1544.91 Q420.36 1542.16 424.943 1537.53 Q429.55 1532.88 430.73 1531.53 Q432.976 1529.01 433.855 1527.27 Q434.758 1525.51 434.758 1523.82 Q434.758 1521.07 432.814 1519.33 Q430.892 1517.6 427.79 1517.6 Q425.591 1517.6 423.138 1518.36 Q420.707 1519.13 417.929 1520.68 L417.929 1515.95 Q420.753 1514.82 423.207 1514.24 Q425.661 1513.66 427.698 1513.66 Q433.068 1513.66 436.263 1516.35 Q439.457 1519.03 439.457 1523.52 Q439.457 1525.65 438.647 1527.57 Q437.86 1529.47 435.753 1532.07 Q435.175 1532.74 432.073 1535.95 Q428.971 1539.15 423.323 1544.91 Z" fill="#000000" fill-rule="nonzero" fill-opacity="1" /><path clip-path="url(#clip340)" d="M459.457 1517.37 Q455.846 1517.37 454.017 1520.93 Q452.212 1524.47 452.212 1531.6 Q452.212 1538.71 454.017 1542.27 Q455.846 1545.82 459.457 1545.82 Q463.091 1545.82 464.897 1542.27 Q466.725 1538.71 466.725 1531.6 Q466.725 1524.47 464.897 1520.93 Q463.091 1517.37 459.457 1517.37 M459.457 1513.66 Q465.267 1513.66 468.323 1518.27 Q471.401 1522.85 471.401 1531.6 Q471.401 1540.33 468.323 1544.94 Q465.267 1549.52 459.457 1549.52 Q453.647 1549.52 450.568 1544.94 Q447.513 1540.33 447.513 1531.6 Q447.513 1522.85 450.568 1518.27 Q453.647 1513.66 459.457 1513.66 Z" fill="#000000" fill-rule="nonzero" fill-opacity="1" /><path clip-path="url(#clip340)" d="M667.268 1518.36 L655.463 1536.81 L667.268 1536.81 L667.268 1518.36 M666.041 1514.29 L671.921 1514.29 L671.921 1536.81 L676.851 1536.81 L676.851 1540.7 L671.921 1540.7 L671.921 1548.85 L667.268 1548.85 L667.268 1540.7 L651.666 1540.7 L651.666 1536.19 L666.041 1514.29 Z" fill="#000000" fill-rule="nonzero" fill-opacity="1" /><path clip-path="url(#clip340)" d="M694.583 1517.37 Q690.972 1517.37 689.143 1520.93 Q687.337 1524.47 687.337 1531.6 Q687.337 1538.71 689.143 1542.27 Q690.972 1545.82 694.583 1545.82 Q698.217 1545.82 700.023 1542.27 Q701.851 1538.71 701.851 1531.6 Q701.851 1524.47 700.023 1520.93 Q698.217 1517.37 694.583 1517.37 M694.583 1513.66 Q700.393 1513.66 703.449 1518.27 Q706.527 1522.85 706.527 1531.6 Q706.527 1540.33 703.449 1544.94 Q700.393 1549.52 694.583 1549.52 Q688.773 1549.52 685.694 1544.94 Q682.638 1540.33 682.638 1531.6 Q682.638 1522.85 685.694 1518.27 Q688.773 1513.66 694.583 1513.66 Z" fill="#000000" fill-rule="nonzero" fill-opacity="1" /><path clip-path="url(#clip340)" d="M899.049 1529.7 Q895.901 1529.7 894.049 1531.86 Q892.22 1534.01 892.22 1537.76 Q892.22 1541.49 894.049 1543.66 Q895.901 1545.82 899.049 1545.82 Q902.197 1545.82 904.026 1543.66 Q905.878 1541.49 905.878 1537.76 Q905.878 1534.01 904.026 1531.86 Q902.197 1529.7 899.049 1529.7 M908.331 1515.05 L908.331 1519.31 Q906.572 1518.48 904.767 1518.04 Q902.984 1517.6 901.225 1517.6 Q896.595 1517.6 894.142 1520.72 Q891.711 1523.85 891.364 1530.17 Q892.73 1528.15 894.79 1527.09 Q896.85 1526 899.327 1526 Q904.535 1526 907.544 1529.17 Q910.577 1532.32 910.577 1537.76 Q910.577 1543.08 907.429 1546.3 Q904.281 1549.52 899.049 1549.52 Q893.054 1549.52 889.883 1544.94 Q886.711 1540.33 886.711 1531.6 Q886.711 1523.41 890.6 1518.55 Q894.489 1513.66 901.04 1513.66 Q902.799 1513.66 904.582 1514.01 Q906.387 1514.36 908.331 1515.05 Z" fill="#000000" fill-rule="nonzero" fill-opacity="1" /><path clip-path="url(#clip340)" d="M928.632 1517.37 Q925.021 1517.37 923.193 1520.93 Q921.387 1524.47 921.387 1531.6 Q921.387 1538.71 923.193 1542.27 Q925.021 1545.82 928.632 1545.82 Q932.267 1545.82 934.072 1542.27 Q935.901 1538.71 935.901 1531.6 Q935.901 1524.47 934.072 1520.93 Q932.267 1517.37 928.632 1517.37 M928.632 1513.66 Q934.442 1513.66 937.498 1518.27 Q940.577 1522.85 940.577 1531.6 Q940.577 1540.33 937.498 1544.94 Q934.442 1549.52 928.632 1549.52 Q922.822 1549.52 919.743 1544.94 Q916.688 1540.33 916.688 1531.6 Q916.688 1522.85 919.743 1518.27 Q922.822 1513.66 928.632 1513.66 Z" fill="#000000" fill-rule="nonzero" fill-opacity="1" /><path clip-path="url(#clip340)" d="M1133.06 1532.44 Q1129.73 1532.44 1127.81 1534.22 Q1125.91 1536 1125.91 1539.13 Q1125.91 1542.25 1127.81 1544.03 Q1129.73 1545.82 1133.06 1545.82 Q1136.4 1545.82 1138.32 1544.03 Q1140.24 1542.23 1140.24 1539.13 Q1140.24 1536 1138.32 1534.22 Q1136.42 1532.44 1133.06 1532.44 M1128.39 1530.45 Q1125.38 1529.7 1123.69 1527.64 Q1122.02 1525.58 1122.02 1522.62 Q1122.02 1518.48 1124.96 1516.07 Q1127.93 1513.66 1133.06 1513.66 Q1138.23 1513.66 1141.17 1516.07 Q1144.11 1518.48 1144.11 1522.62 Q1144.11 1525.58 1142.42 1527.64 Q1140.75 1529.7 1137.76 1530.45 Q1141.14 1531.23 1143.02 1533.52 Q1144.92 1535.82 1144.92 1539.13 Q1144.92 1544.15 1141.84 1546.83 Q1138.78 1549.52 1133.06 1549.52 Q1127.35 1549.52 1124.27 1546.83 Q1121.21 1544.15 1121.21 1539.13 Q1121.21 1535.82 1123.11 1533.52 Q1125.01 1531.23 1128.39 1530.45 M1126.68 1523.06 Q1126.68 1525.75 1128.34 1527.25 Q1130.03 1528.76 1133.06 1528.76 Q1136.07 1528.76 1137.76 1527.25 Q1139.48 1525.75 1139.48 1523.06 Q1139.48 1520.38 1137.76 1518.87 Q1136.07 1517.37 1133.06 1517.37 Q1130.03 1517.37 1128.34 1518.87 Q1126.68 1520.38 1126.68 1523.06 Z" fill="#000000" fill-rule="nonzero" fill-opacity="1" /><path clip-path="url(#clip340)" d="M1163.23 1517.37 Q1159.61 1517.37 1157.79 1520.93 Q1155.98 1524.47 1155.98 1531.6 Q1155.98 1538.71 1157.79 1542.27 Q1159.61 1545.82 1163.23 1545.82 Q1166.86 1545.82 1168.67 1542.27 Q1170.49 1538.71 1170.49 1531.6 Q1170.49 1524.47 1168.67 1520.93 Q1166.86 1517.37 1163.23 1517.37 M1163.23 1513.66 Q1169.04 1513.66 1172.09 1518.27 Q1175.17 1522.85 1175.17 1531.6 Q1175.17 1540.33 1172.09 1544.94 Q1169.04 1549.52 1163.23 1549.52 Q1157.42 1549.52 1154.34 1544.94 Q1151.28 1540.33 1151.28 1531.6 Q1151.28 1522.85 1154.34 1518.27 Q1157.42 1513.66 1163.23 1513.66 Z" fill="#000000" fill-rule="nonzero" fill-opacity="1" /><polyline clip-path="url(#clip340)" style="stroke:#000000; stroke-linecap:round; stroke-linejoin:round; stroke-width:4; stroke-opacity:1; fill:none" points="193.936,1486.45 193.936,47.2441 "/>
<polyline clip-path="url(#clip340)" style="stroke:#000000; stroke-linecap:round; stroke-linejoin:round; stroke-width:4; stroke-opacity:1; fill:none" points="193.936,1444.89 212.834,1444.89 "/>
<polyline clip-path="url(#clip340)" style="stroke:#000000; stroke-linecap:round; stroke-linejoin:round; stroke-width:4; stroke-opacity:1; fill:none" points="193.936,1199.28 212.834,1199.28 "/>
<polyline clip-path="url(#clip340)" style="stroke:#000000; stroke-linecap:round; stroke-linejoin:round; stroke-width:4; stroke-opacity:1; fill:none" points="193.936,953.669 212.834,953.669 "/>
<polyline clip-path="url(#clip340)" style="stroke:#000000; stroke-linecap:round; stroke-linejoin:round; stroke-width:4; stroke-opacity:1; fill:none" points="193.936,708.059 212.834,708.059 "/>
<polyline clip-path="url(#clip340)" style="stroke:#000000; stroke-linecap:round; stroke-linejoin:round; stroke-width:4; stroke-opacity:1; fill:none" points="193.936,462.45 212.834,462.45 "/>
<polyline clip-path="url(#clip340)" style="stroke:#000000; stroke-linecap:round; stroke-linejoin:round; stroke-width:4; stroke-opacity:1; fill:none" points="193.936,216.841 212.834,216.841 "/>
<path clip-path="url(#clip340)" d="M51.9875 1445.34 L81.6633 1445.34 L81.6633 1449.27 L51.9875 1449.27 L51.9875 1445.34 Z" fill="#000000" fill-rule="nonzero" fill-opacity="1" /><path clip-path="url(#clip340)" d="M92.566 1458.23 L100.205 1458.23 L100.205 1431.87 L91.8947 1433.53 L91.8947 1429.27 L100.159 1427.61 L104.834 1427.61 L104.834 1458.23 L112.473 1458.23 L112.473 1462.17 L92.566 1462.17 L92.566 1458.23 Z" fill="#000000" fill-rule="nonzero" fill-opacity="1" /><path clip-path="url(#clip340)" d="M121.918 1456.29 L126.802 1456.29 L126.802 1462.17 L121.918 1462.17 L121.918 1456.29 Z" fill="#000000" fill-rule="nonzero" fill-opacity="1" /><path clip-path="url(#clip340)" d="M137.033 1427.61 L155.39 1427.61 L155.39 1431.54 L141.316 1431.54 L141.316 1440.01 Q142.334 1439.67 143.353 1439.51 Q144.371 1439.32 145.39 1439.32 Q151.177 1439.32 154.556 1442.49 Q157.936 1445.66 157.936 1451.08 Q157.936 1456.66 154.464 1459.76 Q150.992 1462.84 144.672 1462.84 Q142.496 1462.84 140.228 1462.47 Q137.982 1462.1 135.575 1461.36 L135.575 1456.66 Q137.658 1457.79 139.881 1458.35 Q142.103 1458.9 144.58 1458.9 Q148.584 1458.9 150.922 1456.8 Q153.26 1454.69 153.26 1451.08 Q153.26 1447.47 150.922 1445.36 Q148.584 1443.26 144.58 1443.26 Q142.705 1443.26 140.83 1443.67 Q138.978 1444.09 137.033 1444.97 L137.033 1427.61 Z" fill="#000000" fill-rule="nonzero" fill-opacity="1" /><path clip-path="url(#clip340)" d="M50.9921 1199.73 L80.6679 1199.73 L80.6679 1203.66 L50.9921 1203.66 L50.9921 1199.73 Z" fill="#000000" fill-rule="nonzero" fill-opacity="1" /><path clip-path="url(#clip340)" d="M91.5706 1212.62 L99.2095 1212.62 L99.2095 1186.26 L90.8993 1187.92 L90.8993 1183.66 L99.1632 1182 L103.839 1182 L103.839 1212.62 L111.478 1212.62 L111.478 1216.56 L91.5706 1216.56 L91.5706 1212.62 Z" fill="#000000" fill-rule="nonzero" fill-opacity="1" /><path clip-path="url(#clip340)" d="M120.922 1210.68 L125.807 1210.68 L125.807 1216.56 L120.922 1216.56 L120.922 1210.68 Z" fill="#000000" fill-rule="nonzero" fill-opacity="1" /><path clip-path="url(#clip340)" d="M145.992 1185.08 Q142.381 1185.08 140.552 1188.64 Q138.746 1192.18 138.746 1199.31 Q138.746 1206.42 140.552 1209.98 Q142.381 1213.53 145.992 1213.53 Q149.626 1213.53 151.431 1209.98 Q153.26 1206.42 153.26 1199.31 Q153.26 1192.18 151.431 1188.64 Q149.626 1185.08 145.992 1185.08 M145.992 1181.37 Q151.802 1181.37 154.857 1185.98 Q157.936 1190.56 157.936 1199.31 Q157.936 1208.04 154.857 1212.65 Q151.802 1217.23 145.992 1217.23 Q140.181 1217.23 137.103 1212.65 Q134.047 1208.04 134.047 1199.31 Q134.047 1190.56 137.103 1185.98 Q140.181 1181.37 145.992 1181.37 Z" fill="#000000" fill-rule="nonzero" fill-opacity="1" /><path clip-path="url(#clip340)" d="M51.9875 954.12 L81.6633 954.12 L81.6633 958.055 L51.9875 958.055 L51.9875 954.12 Z" fill="#000000" fill-rule="nonzero" fill-opacity="1" /><path clip-path="url(#clip340)" d="M101.756 939.467 Q98.1447 939.467 96.316 943.032 Q94.5104 946.574 94.5104 953.703 Q94.5104 960.81 96.316 964.375 Q98.1447 967.916 101.756 967.916 Q105.39 967.916 107.196 964.375 Q109.024 960.81 109.024 953.703 Q109.024 946.574 107.196 943.032 Q105.39 939.467 101.756 939.467 M101.756 935.764 Q107.566 935.764 110.621 940.37 Q113.7 944.953 113.7 953.703 Q113.7 962.43 110.621 967.037 Q107.566 971.62 101.756 971.62 Q95.9456 971.62 92.8669 967.037 Q89.8114 962.43 89.8114 953.703 Q89.8114 944.953 92.8669 940.37 Q95.9456 935.764 101.756 935.764 Z" fill="#000000" fill-rule="nonzero" fill-opacity="1" /><path clip-path="url(#clip340)" d="M121.918 965.069 L126.802 965.069 L126.802 970.949 L121.918 970.949 L121.918 965.069 Z" fill="#000000" fill-rule="nonzero" fill-opacity="1" /><path clip-path="url(#clip340)" d="M137.033 936.389 L155.39 936.389 L155.39 940.324 L141.316 940.324 L141.316 948.796 Q142.334 948.449 143.353 948.287 Q144.371 948.101 145.39 948.101 Q151.177 948.101 154.556 951.273 Q157.936 954.444 157.936 959.861 Q157.936 965.439 154.464 968.541 Q150.992 971.62 144.672 971.62 Q142.496 971.62 140.228 971.249 Q137.982 970.879 135.575 970.138 L135.575 965.439 Q137.658 966.574 139.881 967.129 Q142.103 967.685 144.58 967.685 Q148.584 967.685 150.922 965.578 Q153.26 963.472 153.26 959.861 Q153.26 956.25 150.922 954.143 Q148.584 952.037 144.58 952.037 Q142.705 952.037 140.83 952.453 Q138.978 952.87 137.033 953.75 L137.033 936.389 Z" fill="#000000" fill-rule="nonzero" fill-opacity="1" /><path clip-path="url(#clip340)" d="M100.76 693.858 Q97.1493 693.858 95.3206 697.423 Q93.515 700.964 93.515 708.094 Q93.515 715.2 95.3206 718.765 Q97.1493 722.307 100.76 722.307 Q104.395 722.307 106.2 718.765 Q108.029 715.2 108.029 708.094 Q108.029 700.964 106.2 697.423 Q104.395 693.858 100.76 693.858 M100.76 690.154 Q106.571 690.154 109.626 694.761 Q112.705 699.344 112.705 708.094 Q112.705 716.821 109.626 721.427 Q106.571 726.011 100.76 726.011 Q94.9502 726.011 91.8715 721.427 Q88.816 716.821 88.816 708.094 Q88.816 699.344 91.8715 694.761 Q94.9502 690.154 100.76 690.154 Z" fill="#000000" fill-rule="nonzero" fill-opacity="1" /><path clip-path="url(#clip340)" d="M120.922 719.46 L125.807 719.46 L125.807 725.339 L120.922 725.339 L120.922 719.46 Z" fill="#000000" fill-rule="nonzero" fill-opacity="1" /><path clip-path="url(#clip340)" d="M145.992 693.858 Q142.381 693.858 140.552 697.423 Q138.746 700.964 138.746 708.094 Q138.746 715.2 140.552 718.765 Q142.381 722.307 145.992 722.307 Q149.626 722.307 151.431 718.765 Q153.26 715.2 153.26 708.094 Q153.26 700.964 151.431 697.423 Q149.626 693.858 145.992 693.858 M145.992 690.154 Q151.802 690.154 154.857 694.761 Q157.936 699.344 157.936 708.094 Q157.936 716.821 154.857 721.427 Q151.802 726.011 145.992 726.011 Q140.181 726.011 137.103 721.427 Q134.047 716.821 134.047 708.094 Q134.047 699.344 137.103 694.761 Q140.181 690.154 145.992 690.154 Z" fill="#000000" fill-rule="nonzero" fill-opacity="1" /><path clip-path="url(#clip340)" d="M101.756 448.249 Q98.1447 448.249 96.316 451.813 Q94.5104 455.355 94.5104 462.485 Q94.5104 469.591 96.316 473.156 Q98.1447 476.698 101.756 476.698 Q105.39 476.698 107.196 473.156 Q109.024 469.591 109.024 462.485 Q109.024 455.355 107.196 451.813 Q105.39 448.249 101.756 448.249 M101.756 444.545 Q107.566 444.545 110.621 449.151 Q113.7 453.735 113.7 462.485 Q113.7 471.212 110.621 475.818 Q107.566 480.401 101.756 480.401 Q95.9456 480.401 92.8669 475.818 Q89.8114 471.212 89.8114 462.485 Q89.8114 453.735 92.8669 449.151 Q95.9456 444.545 101.756 444.545 Z" fill="#000000" fill-rule="nonzero" fill-opacity="1" /><path clip-path="url(#clip340)" d="M121.918 473.85 L126.802 473.85 L126.802 479.73 L121.918 479.73 L121.918 473.85 Z" fill="#000000" fill-rule="nonzero" fill-opacity="1" /><path clip-path="url(#clip340)" d="M137.033 445.17 L155.39 445.17 L155.39 449.105 L141.316 449.105 L141.316 457.577 Q142.334 457.23 143.353 457.068 Q144.371 456.883 145.39 456.883 Q151.177 456.883 154.556 460.054 Q157.936 463.225 157.936 468.642 Q157.936 474.221 154.464 477.323 Q150.992 480.401 144.672 480.401 Q142.496 480.401 140.228 480.031 Q137.982 479.661 135.575 478.92 L135.575 474.221 Q137.658 475.355 139.881 475.911 Q142.103 476.466 144.58 476.466 Q148.584 476.466 150.922 474.36 Q153.26 472.253 153.26 468.642 Q153.26 465.031 150.922 462.925 Q148.584 460.818 144.58 460.818 Q142.705 460.818 140.83 461.235 Q138.978 461.651 137.033 462.531 L137.033 445.17 Z" fill="#000000" fill-rule="nonzero" fill-opacity="1" /><path clip-path="url(#clip340)" d="M91.5706 230.186 L99.2095 230.186 L99.2095 203.82 L90.8993 205.487 L90.8993 201.227 L99.1632 199.561 L103.839 199.561 L103.839 230.186 L111.478 230.186 L111.478 234.121 L91.5706 234.121 L91.5706 230.186 Z" fill="#000000" fill-rule="nonzero" fill-opacity="1" /><path clip-path="url(#clip340)" d="M120.922 228.241 L125.807 228.241 L125.807 234.121 L120.922 234.121 L120.922 228.241 Z" fill="#000000" fill-rule="nonzero" fill-opacity="1" /><path clip-path="url(#clip340)" d="M145.992 202.639 Q142.381 202.639 140.552 206.204 Q138.746 209.746 138.746 216.875 Q138.746 223.982 140.552 227.547 Q142.381 231.088 145.992 231.088 Q149.626 231.088 151.431 227.547 Q153.26 223.982 153.26 216.875 Q153.26 209.746 151.431 206.204 Q149.626 202.639 145.992 202.639 M145.992 198.936 Q151.802 198.936 154.857 203.542 Q157.936 208.125 157.936 216.875 Q157.936 225.602 154.857 230.209 Q151.802 234.792 145.992 234.792 Q140.181 234.792 137.103 230.209 Q134.047 225.602 134.047 216.875 Q134.047 208.125 137.103 203.542 Q140.181 198.936 145.992 198.936 Z" fill="#000000" fill-rule="nonzero" fill-opacity="1" /><polyline clip-path="url(#clip342)" style="stroke:#009af9; stroke-linecap:round; stroke-linejoin:round; stroke-width:4; stroke-opacity:1; fill:none" points="221.73,1044.34 233.457,1015.6 245.185,996.947 256.912,1039.23 268.639,1021.45 280.367,1037.87 292.094,990.917 303.821,904.659 315.549,803.765 327.276,828.155 339.003,826.157 350.731,859.114 362.458,871.618 374.185,913.162 385.913,891.704 397.64,915.72 409.368,910.765 421.095,891.445 432.822,903.835 444.55,962.476 456.277,942.555 468.004,934.774 479.732,950.209 491.459,934.928 503.186,906.132 514.914,931.958 526.641,885.857 538.368,820.859 550.096,793.549 561.823,756.995 573.551,734.834 585.278,723.446 597.005,724.186 608.733,702.356 620.46,655.884 632.187,648.178 643.915,596.876 655.642,549.68 667.369,500.168 679.097,376.028 690.824,323.759 702.552,249.966 714.279,315.652 726.006,268.456 737.734,309.171 749.461,311.858 761.188,237.733 772.916,172.986 784.643,192.909 796.37,311.568 808.098,300.467 819.825,242.857 831.552,288.459 843.28,306.341 855.007,283.644 866.735,307.929 878.462,311.578 890.189,342.311 901.917,298.868 913.644,343.601 925.371,333.589 937.099,367.412 948.826,446.969 960.553,485.519 972.281,591.59 984.008,629.986 995.735,766.06 1007.46,866.04 1019.19,961.849 1030.92,1015.84 1042.64,1102.53 1054.37,1139.38 1066.1,1255.7 1077.83,1395.88 1089.55,1362.08 1101.28,1366.55 1113.01,1432.76 1124.74,1356.6 1136.46,1303.5 1148.19,1188.18 "/>
<polyline clip-path="url(#clip342)" style="stroke:#e26f46; stroke-linecap:round; stroke-linejoin:round; stroke-width:4; stroke-opacity:1; fill:none" points="221.73,1037.23 233.457,1015.97 245.185,993.004 256.912,1037.74 268.639,1026.04 280.367,1038.45 292.094,986.008 303.821,892.037 315.549,789.209 327.276,808.728 339.003,802.928 350.731,849.876 362.458,862.893 374.185,908.901 385.913,889.936 397.64,912.034 409.368,908.365 421.095,883.478 432.822,896.594 444.55,951.815 456.277,925.924 468.004,917.493 479.732,934.502 491.459,914.194 503.186,884.092 514.914,918.828 526.641,877.798 538.368,815.964 550.096,791.458 561.823,758.242 573.551,735.707 585.278,727.579 597.005,716.918 608.733,696.776 620.46,654.807 632.187,648.986 643.915,594.529 655.642,542.87 667.369,491.229 679.097,371.104 690.824,315.574 702.552,240.415 714.279,308.64 726.006,256.956 737.734,302.396 749.461,308.798 761.188,239.317 772.916,172.578 784.643,196.113 796.37,319.905 808.098,307.524 819.825,240.876 831.552,287.826 843.28,303.402 855.007,287.605 866.735,318.762 878.462,330.216 890.189,369.197 901.917,318.951 913.644,365.221 925.371,361.271 937.099,392.361 948.826,475.729 960.553,523.88 972.281,636.682 984.008,664.462 995.735,799.33 1007.46,890.409 1019.19,983.857 1030.92,1033.35 1042.64,1123.42 1054.37,1155.61 1066.1,1271.86 1077.83,1408.92 1089.55,1372.03 1101.28,1375.32 1113.01,1445.72 1124.74,1365.56 1136.46,1316.38 1148.19,1198.42 "/>
<polyline clip-path="url(#clip342)" style="stroke:#3da44d; stroke-linecap:round; stroke-linejoin:round; stroke-width:4; stroke-opacity:1; fill:none" points="221.73,875.603 233.457,820.151 245.185,838.17 256.912,876.407 268.639,817.567 280.367,855.059 292.094,852.355 303.821,741.338 315.549,606.085 327.276,702.081 339.003,754.977 350.731,779.193 362.458,834.103 374.185,850.514 385.913,818.585 397.64,810.489 409.368,775.081 421.095,846.021 432.822,844.014 444.55,944.133 456.277,878.414 468.004,849.865 479.732,780.836 491.459,769.067 503.186,861.414 514.914,860.077 526.641,769.041 538.368,706.513 550.096,737.009 561.823,698.085 573.551,726.532 585.278,754.045 597.005,693.192 608.733,662.448 620.46,684.913 632.187,632.688 643.915,577.673 655.642,579.653 667.369,568.072 679.097,478.015 690.824,417.546 702.552,355.186 714.279,452.317 726.006,374.349 737.734,413.223 749.461,414.507 761.188,355.342 772.916,222.143 784.643,206.741 796.37,237.078 808.098,193.127 819.825,87.9763 831.552,157.79 843.28,211.074 855.007,171.676 866.735,190.578 878.462,260.628 890.189,322.925 901.917,344.466 913.644,422.854 925.371,360.659 937.099,400.146 948.826,414.145 960.553,392.362 972.281,538.367 984.008,597.369 995.735,715.95 1007.46,861.715 1019.19,911.191 1030.92,927.814 1042.64,1019.94 1054.37,1100.09 1066.1,1252.91 1077.83,1401.72 1089.55,1370.36 1101.28,1403.84 1113.01,1421.06 1124.74,1351.59 1136.46,1266.14 1148.19,1107.61 "/>
<path clip-path="url(#clip340)" d="M226.671 302.578 L686.541 302.578 L686.541 95.2176 L226.671 95.2176  Z" fill="#ffffff" fill-rule="evenodd" fill-opacity="1"/>
<polyline clip-path="url(#clip340)" style="stroke:#000000; stroke-linecap:round; stroke-linejoin:round; stroke-width:4; stroke-opacity:1; fill:none" points="226.671,302.578 686.541,302.578 686.541,95.2176 226.671,95.2176 226.671,302.578 "/>
<polyline clip-path="url(#clip340)" style="stroke:#009af9; stroke-linecap:round; stroke-linejoin:round; stroke-width:4; stroke-opacity:1; fill:none" points="237.583,147.058 303.053,147.058 "/>
<path clip-path="url(#clip340)" d="M313.964 129.778 L318.64 129.778 L318.64 144.384 L334.149 129.778 L340.168 129.778 L323.015 145.889 L341.395 164.338 L335.237 164.338 L318.64 147.694 L318.64 164.338 L313.964 164.338 L313.964 129.778 Z" fill="#000000" fill-rule="nonzero" fill-opacity="1" /><path clip-path="url(#clip340)" d="M355.816 151.305 Q350.654 151.305 348.663 152.486 Q346.672 153.666 346.672 156.514 Q346.672 158.782 348.154 160.125 Q349.658 161.444 352.228 161.444 Q355.77 161.444 357.899 158.944 Q360.052 156.421 360.052 152.254 L360.052 151.305 L355.816 151.305 M364.311 149.546 L364.311 164.338 L360.052 164.338 L360.052 160.402 Q358.594 162.763 356.418 163.898 Q354.242 165.009 351.094 165.009 Q347.112 165.009 344.751 162.787 Q342.413 160.541 342.413 156.791 Q342.413 152.416 345.33 150.194 Q348.27 147.972 354.08 147.972 L360.052 147.972 L360.052 147.555 Q360.052 144.615 358.107 143.018 Q356.186 141.398 352.691 141.398 Q350.469 141.398 348.362 141.93 Q346.256 142.463 344.311 143.527 L344.311 139.592 Q346.649 138.69 348.848 138.25 Q351.047 137.787 353.131 137.787 Q358.756 137.787 361.533 140.703 Q364.311 143.62 364.311 149.546 Z" fill="#000000" fill-rule="nonzero" fill-opacity="1" /><path clip-path="url(#clip340)" d="M373.084 128.319 L377.343 128.319 L377.343 164.338 L373.084 164.338 L373.084 128.319 Z" fill="#000000" fill-rule="nonzero" fill-opacity="1" /><path clip-path="url(#clip340)" d="M406.441 143.389 Q408.038 140.518 410.26 139.153 Q412.482 137.787 415.491 137.787 Q419.542 137.787 421.741 140.634 Q423.94 143.458 423.94 148.689 L423.94 164.338 L419.658 164.338 L419.658 148.828 Q419.658 145.102 418.339 143.296 Q417.019 141.49 414.311 141.49 Q411.001 141.49 409.079 143.69 Q407.158 145.889 407.158 149.685 L407.158 164.338 L402.876 164.338 L402.876 148.828 Q402.876 145.078 401.556 143.296 Q400.237 141.49 397.482 141.49 Q394.218 141.49 392.297 143.713 Q390.376 145.912 390.376 149.685 L390.376 164.338 L386.093 164.338 L386.093 138.412 L390.376 138.412 L390.376 142.44 Q391.834 140.055 393.871 138.921 Q395.908 137.787 398.709 137.787 Q401.533 137.787 403.501 139.222 Q405.491 140.657 406.441 143.389 Z" fill="#000000" fill-rule="nonzero" fill-opacity="1" /><path clip-path="url(#clip340)" d="M444.218 151.305 Q439.056 151.305 437.065 152.486 Q435.075 153.666 435.075 156.514 Q435.075 158.782 436.556 160.125 Q438.061 161.444 440.63 161.444 Q444.172 161.444 446.301 158.944 Q448.454 156.421 448.454 152.254 L448.454 151.305 L444.218 151.305 M452.713 149.546 L452.713 164.338 L448.454 164.338 L448.454 160.402 Q446.996 162.763 444.82 163.898 Q442.644 165.009 439.496 165.009 Q435.514 165.009 433.153 162.787 Q430.815 160.541 430.815 156.791 Q430.815 152.416 433.732 150.194 Q436.672 147.972 442.482 147.972 L448.454 147.972 L448.454 147.555 Q448.454 144.615 446.51 143.018 Q444.589 141.398 441.093 141.398 Q438.871 141.398 436.764 141.93 Q434.658 142.463 432.714 143.527 L432.714 139.592 Q435.052 138.69 437.251 138.25 Q439.45 137.787 441.533 137.787 Q447.158 137.787 449.936 140.703 Q452.713 143.62 452.713 149.546 Z" fill="#000000" fill-rule="nonzero" fill-opacity="1" /><path clip-path="url(#clip340)" d="M483.037 148.689 L483.037 164.338 L478.778 164.338 L478.778 148.828 Q478.778 145.148 477.343 143.319 Q475.908 141.49 473.037 141.49 Q469.588 141.49 467.598 143.69 Q465.607 145.889 465.607 149.685 L465.607 164.338 L461.325 164.338 L461.325 138.412 L465.607 138.412 L465.607 142.44 Q467.135 140.102 469.195 138.944 Q471.278 137.787 473.986 137.787 Q478.454 137.787 480.746 140.565 Q483.037 143.319 483.037 148.689 Z" fill="#000000" fill-rule="nonzero" fill-opacity="1" /><path clip-path="url(#clip340)" d="M523.13 139.176 L523.13 143.203 Q521.324 142.277 519.38 141.815 Q517.435 141.352 515.352 141.352 Q512.181 141.352 510.584 142.324 Q509.009 143.296 509.009 145.24 Q509.009 146.722 510.144 147.578 Q511.278 148.412 514.704 149.176 L516.162 149.5 Q520.699 150.472 522.597 152.254 Q524.519 154.014 524.519 157.185 Q524.519 160.796 521.648 162.902 Q518.801 165.009 513.801 165.009 Q511.718 165.009 509.449 164.592 Q507.204 164.199 504.704 163.388 L504.704 158.99 Q507.065 160.217 509.357 160.842 Q511.648 161.444 513.894 161.444 Q516.903 161.444 518.523 160.426 Q520.144 159.384 520.144 157.509 Q520.144 155.773 518.963 154.847 Q517.806 153.921 513.847 153.064 L512.366 152.717 Q508.408 151.884 506.648 150.171 Q504.889 148.435 504.889 145.426 Q504.889 141.768 507.482 139.778 Q510.074 137.787 514.843 137.787 Q517.204 137.787 519.287 138.134 Q521.37 138.481 523.13 139.176 Z" fill="#000000" fill-rule="nonzero" fill-opacity="1" /><path clip-path="url(#clip340)" d="M551.486 143.389 Q553.083 140.518 555.306 139.153 Q557.528 137.787 560.537 137.787 Q564.588 137.787 566.787 140.634 Q568.986 143.458 568.986 148.689 L568.986 164.338 L564.704 164.338 L564.704 148.828 Q564.704 145.102 563.384 143.296 Q562.065 141.49 559.356 141.49 Q556.046 141.49 554.125 143.69 Q552.204 145.889 552.204 149.685 L552.204 164.338 L547.921 164.338 L547.921 148.828 Q547.921 145.078 546.602 143.296 Q545.282 141.49 542.528 141.49 Q539.264 141.49 537.343 143.713 Q535.421 145.912 535.421 149.685 L535.421 164.338 L531.139 164.338 L531.139 138.412 L535.421 138.412 L535.421 142.44 Q536.88 140.055 538.917 138.921 Q540.954 137.787 543.755 137.787 Q546.579 137.787 548.546 139.222 Q550.537 140.657 551.486 143.389 Z" fill="#000000" fill-rule="nonzero" fill-opacity="1" /><path clip-path="url(#clip340)" d="M587.528 141.398 Q584.102 141.398 582.111 144.083 Q580.12 146.745 580.12 151.398 Q580.12 156.051 582.088 158.736 Q584.078 161.398 587.528 161.398 Q590.93 161.398 592.921 158.713 Q594.912 156.027 594.912 151.398 Q594.912 146.791 592.921 144.106 Q590.93 141.398 587.528 141.398 M587.528 137.787 Q593.083 137.787 596.254 141.398 Q599.426 145.009 599.426 151.398 Q599.426 157.764 596.254 161.398 Q593.083 165.009 587.528 165.009 Q581.949 165.009 578.778 161.398 Q575.629 157.764 575.629 151.398 Q575.629 145.009 578.778 141.398 Q581.949 137.787 587.528 137.787 Z" fill="#000000" fill-rule="nonzero" fill-opacity="1" /><path clip-path="url(#clip340)" d="M616.532 141.398 Q613.106 141.398 611.115 144.083 Q609.125 146.745 609.125 151.398 Q609.125 156.051 611.092 158.736 Q613.083 161.398 616.532 161.398 Q619.935 161.398 621.926 158.713 Q623.916 156.027 623.916 151.398 Q623.916 146.791 621.926 144.106 Q619.935 141.398 616.532 141.398 M616.532 137.787 Q622.088 137.787 625.259 141.398 Q628.43 145.009 628.43 151.398 Q628.43 157.764 625.259 161.398 Q622.088 165.009 616.532 165.009 Q610.953 165.009 607.782 161.398 Q604.634 157.764 604.634 151.398 Q604.634 145.009 607.782 141.398 Q610.953 137.787 616.532 137.787 Z" fill="#000000" fill-rule="nonzero" fill-opacity="1" /><path clip-path="url(#clip340)" d="M639.703 131.051 L639.703 138.412 L648.476 138.412 L648.476 141.722 L639.703 141.722 L639.703 155.796 Q639.703 158.967 640.56 159.87 Q641.439 160.773 644.101 160.773 L648.476 160.773 L648.476 164.338 L644.101 164.338 Q639.171 164.338 637.296 162.509 Q635.421 160.657 635.421 155.796 L635.421 141.722 L632.296 141.722 L632.296 138.412 L635.421 138.412 L635.421 131.051 L639.703 131.051 Z" fill="#000000" fill-rule="nonzero" fill-opacity="1" /><path clip-path="url(#clip340)" d="M675.629 148.689 L675.629 164.338 L671.37 164.338 L671.37 148.828 Q671.37 145.148 669.935 143.319 Q668.499 141.49 665.629 141.49 Q662.18 141.49 660.189 143.69 Q658.198 145.889 658.198 149.685 L658.198 164.338 L653.916 164.338 L653.916 128.319 L658.198 128.319 L658.198 142.44 Q659.726 140.102 661.786 138.944 Q663.87 137.787 666.578 137.787 Q671.046 137.787 673.337 140.565 Q675.629 143.319 675.629 148.689 Z" fill="#000000" fill-rule="nonzero" fill-opacity="1" /><polyline clip-path="url(#clip340)" style="stroke:#e26f46; stroke-linecap:round; stroke-linejoin:round; stroke-width:4; stroke-opacity:1; fill:none" points="237.583,198.898 303.053,198.898 "/>
<path clip-path="url(#clip340)" d="M318.247 212.289 L318.247 226.039 L313.964 226.039 L313.964 190.252 L318.247 190.252 L318.247 194.187 Q319.589 191.872 321.626 190.761 Q323.686 189.627 326.534 189.627 Q331.256 189.627 334.196 193.377 Q337.159 197.127 337.159 203.238 Q337.159 209.349 334.196 213.099 Q331.256 216.849 326.534 216.849 Q323.686 216.849 321.626 215.738 Q319.589 214.603 318.247 212.289 M332.737 203.238 Q332.737 198.539 330.793 195.877 Q328.872 193.192 325.492 193.192 Q322.112 193.192 320.168 195.877 Q318.247 198.539 318.247 203.238 Q318.247 207.937 320.168 210.622 Q322.112 213.284 325.492 213.284 Q328.872 213.284 330.793 210.622 Q332.737 207.937 332.737 203.238 Z" fill="#000000" fill-rule="nonzero" fill-opacity="1" /><path clip-path="url(#clip340)" d="M357.344 180.159 L357.344 183.701 L353.27 183.701 Q350.978 183.701 350.075 184.627 Q349.195 185.553 349.195 187.96 L349.195 190.252 L356.209 190.252 L356.209 193.562 L349.195 193.562 L349.195 216.178 L344.913 216.178 L344.913 193.562 L340.839 193.562 L340.839 190.252 L344.913 190.252 L344.913 188.446 Q344.913 184.118 346.927 182.15 Q348.941 180.159 353.316 180.159 L357.344 180.159 Z" fill="#000000" fill-rule="nonzero" fill-opacity="1" /><path clip-path="url(#clip340)" d="M392.505 191.016 L392.505 195.043 Q390.7 194.117 388.755 193.655 Q386.811 193.192 384.728 193.192 Q381.556 193.192 379.959 194.164 Q378.385 195.136 378.385 197.08 Q378.385 198.562 379.519 199.418 Q380.654 200.252 384.08 201.016 L385.538 201.34 Q390.075 202.312 391.973 204.094 Q393.894 205.854 393.894 209.025 Q393.894 212.636 391.024 214.742 Q388.177 216.849 383.177 216.849 Q381.093 216.849 378.825 216.432 Q376.58 216.039 374.08 215.228 L374.08 210.83 Q376.441 212.057 378.732 212.682 Q381.024 213.284 383.269 213.284 Q386.279 213.284 387.899 212.266 Q389.519 211.224 389.519 209.349 Q389.519 207.613 388.339 206.687 Q387.181 205.761 383.223 204.904 L381.742 204.557 Q377.783 203.724 376.024 202.011 Q374.265 200.275 374.265 197.266 Q374.265 193.608 376.857 191.618 Q379.45 189.627 384.218 189.627 Q386.58 189.627 388.663 189.974 Q390.746 190.321 392.505 191.016 Z" fill="#000000" fill-rule="nonzero" fill-opacity="1" /><path clip-path="url(#clip340)" d="M420.862 195.229 Q422.459 192.358 424.681 190.993 Q426.903 189.627 429.913 189.627 Q433.964 189.627 436.163 192.474 Q438.362 195.298 438.362 200.529 L438.362 216.178 L434.079 216.178 L434.079 200.668 Q434.079 196.942 432.76 195.136 Q431.44 193.33 428.732 193.33 Q425.422 193.33 423.501 195.53 Q421.579 197.729 421.579 201.525 L421.579 216.178 L417.297 216.178 L417.297 200.668 Q417.297 196.918 415.978 195.136 Q414.658 193.33 411.903 193.33 Q408.64 193.33 406.718 195.553 Q404.797 197.752 404.797 201.525 L404.797 216.178 L400.515 216.178 L400.515 190.252 L404.797 190.252 L404.797 194.28 Q406.255 191.895 408.292 190.761 Q410.329 189.627 413.13 189.627 Q415.954 189.627 417.922 191.062 Q419.913 192.497 420.862 195.229 Z" fill="#000000" fill-rule="nonzero" fill-opacity="1" /><path clip-path="url(#clip340)" d="M456.903 193.238 Q453.477 193.238 451.487 195.923 Q449.496 198.585 449.496 203.238 Q449.496 207.891 451.463 210.576 Q453.454 213.238 456.903 213.238 Q460.306 213.238 462.297 210.553 Q464.287 207.867 464.287 203.238 Q464.287 198.631 462.297 195.946 Q460.306 193.238 456.903 193.238 M456.903 189.627 Q462.459 189.627 465.63 193.238 Q468.801 196.849 468.801 203.238 Q468.801 209.604 465.63 213.238 Q462.459 216.849 456.903 216.849 Q451.325 216.849 448.153 213.238 Q445.005 209.604 445.005 203.238 Q445.005 196.849 448.153 193.238 Q451.325 189.627 456.903 189.627 Z" fill="#000000" fill-rule="nonzero" fill-opacity="1" /><path clip-path="url(#clip340)" d="M485.908 193.238 Q482.482 193.238 480.491 195.923 Q478.5 198.585 478.5 203.238 Q478.5 207.891 480.468 210.576 Q482.459 213.238 485.908 213.238 Q489.31 213.238 491.301 210.553 Q493.292 207.867 493.292 203.238 Q493.292 198.631 491.301 195.946 Q489.31 193.238 485.908 193.238 M485.908 189.627 Q491.463 189.627 494.635 193.238 Q497.806 196.849 497.806 203.238 Q497.806 209.604 494.635 213.238 Q491.463 216.849 485.908 216.849 Q480.329 216.849 477.158 213.238 Q474.01 209.604 474.01 203.238 Q474.01 196.849 477.158 193.238 Q480.329 189.627 485.908 189.627 Z" fill="#000000" fill-rule="nonzero" fill-opacity="1" /><path clip-path="url(#clip340)" d="M509.079 182.891 L509.079 190.252 L517.852 190.252 L517.852 193.562 L509.079 193.562 L509.079 207.636 Q509.079 210.807 509.935 211.71 Q510.815 212.613 513.477 212.613 L517.852 212.613 L517.852 216.178 L513.477 216.178 Q508.546 216.178 506.672 214.349 Q504.797 212.497 504.797 207.636 L504.797 193.562 L501.672 193.562 L501.672 190.252 L504.797 190.252 L504.797 182.891 L509.079 182.891 Z" fill="#000000" fill-rule="nonzero" fill-opacity="1" /><path clip-path="url(#clip340)" d="M545.005 200.529 L545.005 216.178 L540.745 216.178 L540.745 200.668 Q540.745 196.988 539.31 195.159 Q537.875 193.33 535.005 193.33 Q531.556 193.33 529.565 195.53 Q527.574 197.729 527.574 201.525 L527.574 216.178 L523.292 216.178 L523.292 180.159 L527.574 180.159 L527.574 194.28 Q529.102 191.942 531.162 190.784 Q533.245 189.627 535.954 189.627 Q540.421 189.627 542.713 192.405 Q545.005 195.159 545.005 200.529 Z" fill="#000000" fill-rule="nonzero" fill-opacity="1" /><polyline clip-path="url(#clip340)" style="stroke:#3da44d; stroke-linecap:round; stroke-linejoin:round; stroke-width:4; stroke-opacity:1; fill:none" points="237.583,250.738 303.053,250.738 "/>
<path clip-path="url(#clip340)" d="M321.372 234.731 L321.372 242.092 L330.145 242.092 L330.145 245.402 L321.372 245.402 L321.372 259.476 Q321.372 262.647 322.228 263.55 Q323.108 264.453 325.77 264.453 L330.145 264.453 L330.145 268.018 L325.77 268.018 Q320.839 268.018 318.964 266.189 Q317.089 264.337 317.089 259.476 L317.089 245.402 L313.964 245.402 L313.964 242.092 L317.089 242.092 L317.089 234.731 L321.372 234.731 Z" fill="#000000" fill-rule="nonzero" fill-opacity="1" /><path clip-path="url(#clip340)" d="M350.77 246.073 Q350.052 245.657 349.195 245.471 Q348.362 245.263 347.344 245.263 Q343.733 245.263 341.788 247.624 Q339.867 249.962 339.867 254.36 L339.867 268.018 L335.584 268.018 L335.584 242.092 L339.867 242.092 L339.867 246.12 Q341.209 243.758 343.362 242.624 Q345.515 241.467 348.594 241.467 Q349.033 241.467 349.566 241.536 Q350.098 241.583 350.746 241.698 L350.77 246.073 Z" fill="#000000" fill-rule="nonzero" fill-opacity="1" /><path clip-path="url(#clip340)" d="M354.797 257.786 L354.797 242.092 L359.057 242.092 L359.057 257.624 Q359.057 261.305 360.492 263.156 Q361.927 264.985 364.797 264.985 Q368.246 264.985 370.237 262.786 Q372.251 260.587 372.251 256.791 L372.251 242.092 L376.51 242.092 L376.51 268.018 L372.251 268.018 L372.251 264.036 Q370.7 266.397 368.64 267.555 Q366.603 268.689 363.894 268.689 Q359.427 268.689 357.112 265.911 Q354.797 263.133 354.797 257.786 M365.515 241.467 L365.515 241.467 Z" fill="#000000" fill-rule="nonzero" fill-opacity="1" /><path clip-path="url(#clip340)" d="M407.459 253.99 L407.459 256.073 L387.876 256.073 Q388.154 260.471 390.515 262.786 Q392.899 265.078 397.135 265.078 Q399.589 265.078 401.88 264.476 Q404.195 263.874 406.464 262.67 L406.464 266.698 Q404.172 267.67 401.765 268.18 Q399.357 268.689 396.88 268.689 Q390.677 268.689 387.043 265.078 Q383.431 261.467 383.431 255.309 Q383.431 248.944 386.857 245.217 Q390.306 241.467 396.14 241.467 Q401.371 241.467 404.404 244.846 Q407.459 248.203 407.459 253.99 M403.2 252.74 Q403.154 249.245 401.232 247.161 Q399.334 245.078 396.186 245.078 Q392.621 245.078 390.468 247.092 Q388.339 249.106 388.015 252.763 L403.2 252.74 Z" fill="#000000" fill-rule="nonzero" fill-opacity="1" /><path clip-path="url(#clip340)" d="M1370.71 1486.45 L2352.76 1486.45 L2352.76 47.2441 L1370.71 47.2441  Z" fill="#ffffff" fill-rule="evenodd" fill-opacity="1"/>
<defs>
  <clipPath id="clip343">
    <rect x="1370" y="47" width="983" height="1440"/>
  </clipPath>
</defs>
<polyline clip-path="url(#clip343)" style="stroke:#000000; stroke-linecap:round; stroke-linejoin:round; stroke-width:2; stroke-opacity:0.1; fill:none" points="1386.77,1486.45 1386.77,47.2441 "/>
<polyline clip-path="url(#clip343)" style="stroke:#000000; stroke-linecap:round; stroke-linejoin:round; stroke-width:2; stroke-opacity:0.1; fill:none" points="1621.32,1486.45 1621.32,47.2441 "/>
<polyline clip-path="url(#clip343)" style="stroke:#000000; stroke-linecap:round; stroke-linejoin:round; stroke-width:2; stroke-opacity:0.1; fill:none" points="1855.87,1486.45 1855.87,47.2441 "/>
<polyline clip-path="url(#clip343)" style="stroke:#000000; stroke-linecap:round; stroke-linejoin:round; stroke-width:2; stroke-opacity:0.1; fill:none" points="2090.41,1486.45 2090.41,47.2441 "/>
<polyline clip-path="url(#clip343)" style="stroke:#000000; stroke-linecap:round; stroke-linejoin:round; stroke-width:2; stroke-opacity:0.1; fill:none" points="2324.96,1486.45 2324.96,47.2441 "/>
<polyline clip-path="url(#clip343)" style="stroke:#000000; stroke-linecap:round; stroke-linejoin:round; stroke-width:2; stroke-opacity:0.1; fill:none" points="1370.71,1475.58 2352.76,1475.58 "/>
<polyline clip-path="url(#clip343)" style="stroke:#000000; stroke-linecap:round; stroke-linejoin:round; stroke-width:2; stroke-opacity:0.1; fill:none" points="1370.71,1001.74 2352.76,1001.74 "/>
<polyline clip-path="url(#clip343)" style="stroke:#000000; stroke-linecap:round; stroke-linejoin:round; stroke-width:2; stroke-opacity:0.1; fill:none" points="1370.71,527.9 2352.76,527.9 "/>
<polyline clip-path="url(#clip343)" style="stroke:#000000; stroke-linecap:round; stroke-linejoin:round; stroke-width:2; stroke-opacity:0.1; fill:none" points="1370.71,54.0585 2352.76,54.0585 "/>
<polyline clip-path="url(#clip340)" style="stroke:#000000; stroke-linecap:round; stroke-linejoin:round; stroke-width:4; stroke-opacity:1; fill:none" points="1370.71,1486.45 2352.76,1486.45 "/>
<polyline clip-path="url(#clip340)" style="stroke:#000000; stroke-linecap:round; stroke-linejoin:round; stroke-width:4; stroke-opacity:1; fill:none" points="1386.77,1486.45 1386.77,1467.55 "/>
<polyline clip-path="url(#clip340)" style="stroke:#000000; stroke-linecap:round; stroke-linejoin:round; stroke-width:4; stroke-opacity:1; fill:none" points="1621.32,1486.45 1621.32,1467.55 "/>
<polyline clip-path="url(#clip340)" style="stroke:#000000; stroke-linecap:round; stroke-linejoin:round; stroke-width:4; stroke-opacity:1; fill:none" points="1855.87,1486.45 1855.87,1467.55 "/>
<polyline clip-path="url(#clip340)" style="stroke:#000000; stroke-linecap:round; stroke-linejoin:round; stroke-width:4; stroke-opacity:1; fill:none" points="2090.41,1486.45 2090.41,1467.55 "/>
<polyline clip-path="url(#clip340)" style="stroke:#000000; stroke-linecap:round; stroke-linejoin:round; stroke-width:4; stroke-opacity:1; fill:none" points="2324.96,1486.45 2324.96,1467.55 "/>
<path clip-path="url(#clip340)" d="M1386.77 1517.37 Q1383.16 1517.37 1381.33 1520.93 Q1379.53 1524.47 1379.53 1531.6 Q1379.53 1538.71 1381.33 1542.27 Q1383.16 1545.82 1386.77 1545.82 Q1390.41 1545.82 1392.21 1542.27 Q1394.04 1538.71 1394.04 1531.6 Q1394.04 1524.47 1392.21 1520.93 Q1390.41 1517.37 1386.77 1517.37 M1386.77 1513.66 Q1392.58 1513.66 1395.64 1518.27 Q1398.72 1522.85 1398.72 1531.6 Q1398.72 1540.33 1395.64 1544.94 Q1392.58 1549.52 1386.77 1549.52 Q1380.96 1549.52 1377.88 1544.94 Q1374.83 1540.33 1374.83 1531.6 Q1374.83 1522.85 1377.88 1518.27 Q1380.96 1513.66 1386.77 1513.66 Z" fill="#000000" fill-rule="nonzero" fill-opacity="1" /><path clip-path="url(#clip340)" d="M1600.09 1544.91 L1616.41 1544.91 L1616.41 1548.85 L1594.47 1548.85 L1594.47 1544.91 Q1597.13 1542.16 1601.71 1537.53 Q1606.32 1532.88 1607.5 1531.53 Q1609.75 1529.01 1610.63 1527.27 Q1611.53 1525.51 1611.53 1523.82 Q1611.53 1521.07 1609.58 1519.33 Q1607.66 1517.6 1604.56 1517.6 Q1602.36 1517.6 1599.91 1518.36 Q1597.48 1519.13 1594.7 1520.68 L1594.7 1515.95 Q1597.52 1514.82 1599.98 1514.24 Q1602.43 1513.66 1604.47 1513.66 Q1609.84 1513.66 1613.03 1516.35 Q1616.23 1519.03 1616.23 1523.52 Q1616.23 1525.65 1615.42 1527.57 Q1614.63 1529.47 1612.52 1532.07 Q1611.95 1532.74 1608.84 1535.95 Q1605.74 1539.15 1600.09 1544.91 Z" fill="#000000" fill-rule="nonzero" fill-opacity="1" /><path clip-path="url(#clip340)" d="M1636.23 1517.37 Q1632.62 1517.37 1630.79 1520.93 Q1628.98 1524.47 1628.98 1531.6 Q1628.98 1538.71 1630.79 1542.27 Q1632.62 1545.82 1636.23 1545.82 Q1639.86 1545.82 1641.67 1542.27 Q1643.5 1538.71 1643.5 1531.6 Q1643.5 1524.47 1641.67 1520.93 Q1639.86 1517.37 1636.23 1517.37 M1636.23 1513.66 Q1642.04 1513.66 1645.09 1518.27 Q1648.17 1522.85 1648.17 1531.6 Q1648.17 1540.33 1645.09 1544.94 Q1642.04 1549.52 1636.23 1549.52 Q1630.42 1549.52 1627.34 1544.94 Q1624.28 1540.33 1624.28 1531.6 Q1624.28 1522.85 1627.34 1518.27 Q1630.42 1513.66 1636.23 1513.66 Z" fill="#000000" fill-rule="nonzero" fill-opacity="1" /><path clip-path="url(#clip340)" d="M1844.04 1518.36 L1832.23 1536.81 L1844.04 1536.81 L1844.04 1518.36 M1842.81 1514.29 L1848.69 1514.29 L1848.69 1536.81 L1853.62 1536.81 L1853.62 1540.7 L1848.69 1540.7 L1848.69 1548.85 L1844.04 1548.85 L1844.04 1540.7 L1828.44 1540.7 L1828.44 1536.19 L1842.81 1514.29 Z" fill="#000000" fill-rule="nonzero" fill-opacity="1" /><path clip-path="url(#clip340)" d="M1871.35 1517.37 Q1867.74 1517.37 1865.91 1520.93 Q1864.11 1524.47 1864.11 1531.6 Q1864.11 1538.71 1865.91 1542.27 Q1867.74 1545.82 1871.35 1545.82 Q1874.99 1545.82 1876.79 1542.27 Q1878.62 1538.71 1878.62 1531.6 Q1878.62 1524.47 1876.79 1520.93 Q1874.99 1517.37 1871.35 1517.37 M1871.35 1513.66 Q1877.16 1513.66 1880.22 1518.27 Q1883.3 1522.85 1883.3 1531.6 Q1883.3 1540.33 1880.22 1544.94 Q1877.16 1549.52 1871.35 1549.52 Q1865.54 1549.52 1862.46 1544.94 Q1859.41 1540.33 1859.41 1531.6 Q1859.41 1522.85 1862.46 1518.27 Q1865.54 1513.66 1871.35 1513.66 Z" fill="#000000" fill-rule="nonzero" fill-opacity="1" /><path clip-path="url(#clip340)" d="M2075.82 1529.7 Q2072.67 1529.7 2070.82 1531.86 Q2068.99 1534.01 2068.99 1537.76 Q2068.99 1541.49 2070.82 1543.66 Q2072.67 1545.82 2075.82 1545.82 Q2078.97 1545.82 2080.8 1543.66 Q2082.65 1541.49 2082.65 1537.76 Q2082.65 1534.01 2080.8 1531.86 Q2078.97 1529.7 2075.82 1529.7 M2085.1 1515.05 L2085.1 1519.31 Q2083.34 1518.48 2081.54 1518.04 Q2079.76 1517.6 2078 1517.6 Q2073.37 1517.6 2070.91 1520.72 Q2068.48 1523.85 2068.13 1530.17 Q2069.5 1528.15 2071.56 1527.09 Q2073.62 1526 2076.1 1526 Q2081.31 1526 2084.32 1529.17 Q2087.35 1532.32 2087.35 1537.76 Q2087.35 1543.08 2084.2 1546.3 Q2081.05 1549.52 2075.82 1549.52 Q2069.82 1549.52 2066.65 1544.94 Q2063.48 1540.33 2063.48 1531.6 Q2063.48 1523.41 2067.37 1518.55 Q2071.26 1513.66 2077.81 1513.66 Q2079.57 1513.66 2081.35 1514.01 Q2083.16 1514.36 2085.1 1515.05 Z" fill="#000000" fill-rule="nonzero" fill-opacity="1" /><path clip-path="url(#clip340)" d="M2105.4 1517.37 Q2101.79 1517.37 2099.96 1520.93 Q2098.16 1524.47 2098.16 1531.6 Q2098.16 1538.71 2099.96 1542.27 Q2101.79 1545.82 2105.4 1545.82 Q2109.04 1545.82 2110.84 1542.27 Q2112.67 1538.71 2112.67 1531.6 Q2112.67 1524.47 2110.84 1520.93 Q2109.04 1517.37 2105.4 1517.37 M2105.4 1513.66 Q2111.21 1513.66 2114.27 1518.27 Q2117.35 1522.85 2117.35 1531.6 Q2117.35 1540.33 2114.27 1544.94 Q2111.21 1549.52 2105.4 1549.52 Q2099.59 1549.52 2096.51 1544.94 Q2093.46 1540.33 2093.46 1531.6 Q2093.46 1522.85 2096.51 1518.27 Q2099.59 1513.66 2105.4 1513.66 Z" fill="#000000" fill-rule="nonzero" fill-opacity="1" /><path clip-path="url(#clip340)" d="M2309.83 1532.44 Q2306.5 1532.44 2304.58 1534.22 Q2302.68 1536 2302.68 1539.13 Q2302.68 1542.25 2304.58 1544.03 Q2306.5 1545.82 2309.83 1545.82 Q2313.17 1545.82 2315.09 1544.03 Q2317.01 1542.23 2317.01 1539.13 Q2317.01 1536 2315.09 1534.22 Q2313.19 1532.44 2309.83 1532.44 M2305.16 1530.45 Q2302.15 1529.7 2300.46 1527.64 Q2298.79 1525.58 2298.79 1522.62 Q2298.79 1518.48 2301.73 1516.07 Q2304.7 1513.66 2309.83 1513.66 Q2315 1513.66 2317.94 1516.07 Q2320.88 1518.48 2320.88 1522.62 Q2320.88 1525.58 2319.19 1527.64 Q2317.52 1529.7 2314.53 1530.45 Q2317.91 1531.23 2319.79 1533.52 Q2321.69 1535.82 2321.69 1539.13 Q2321.69 1544.15 2318.61 1546.83 Q2315.55 1549.52 2309.83 1549.52 Q2304.12 1549.52 2301.04 1546.83 Q2297.98 1544.15 2297.98 1539.13 Q2297.98 1535.82 2299.88 1533.52 Q2301.78 1531.23 2305.16 1530.45 M2303.45 1523.06 Q2303.45 1525.75 2305.11 1527.25 Q2306.8 1528.76 2309.83 1528.76 Q2312.84 1528.76 2314.53 1527.25 Q2316.25 1525.75 2316.25 1523.06 Q2316.25 1520.38 2314.53 1518.87 Q2312.84 1517.37 2309.83 1517.37 Q2306.8 1517.37 2305.11 1518.87 Q2303.45 1520.38 2303.45 1523.06 Z" fill="#000000" fill-rule="nonzero" fill-opacity="1" /><path clip-path="url(#clip340)" d="M2340 1517.37 Q2336.39 1517.37 2334.56 1520.93 Q2332.75 1524.47 2332.75 1531.6 Q2332.75 1538.71 2334.56 1542.27 Q2336.39 1545.82 2340 1545.82 Q2343.63 1545.82 2345.44 1542.27 Q2347.27 1538.71 2347.27 1531.6 Q2347.27 1524.47 2345.44 1520.93 Q2343.63 1517.37 2340 1517.37 M2340 1513.66 Q2345.81 1513.66 2348.86 1518.27 Q2351.94 1522.85 2351.94 1531.6 Q2351.94 1540.33 2348.86 1544.94 Q2345.81 1549.52 2340 1549.52 Q2334.19 1549.52 2331.11 1544.94 Q2328.05 1540.33 2328.05 1531.6 Q2328.05 1522.85 2331.11 1518.27 Q2334.19 1513.66 2340 1513.66 Z" fill="#000000" fill-rule="nonzero" fill-opacity="1" /><polyline clip-path="url(#clip340)" style="stroke:#000000; stroke-linecap:round; stroke-linejoin:round; stroke-width:4; stroke-opacity:1; fill:none" points="1370.71,1486.45 1370.71,47.2441 "/>
<polyline clip-path="url(#clip340)" style="stroke:#000000; stroke-linecap:round; stroke-linejoin:round; stroke-width:4; stroke-opacity:1; fill:none" points="1370.71,1475.58 1389.6,1475.58 "/>
<polyline clip-path="url(#clip340)" style="stroke:#000000; stroke-linecap:round; stroke-linejoin:round; stroke-width:4; stroke-opacity:1; fill:none" points="1370.71,1001.74 1389.6,1001.74 "/>
<polyline clip-path="url(#clip340)" style="stroke:#000000; stroke-linecap:round; stroke-linejoin:round; stroke-width:4; stroke-opacity:1; fill:none" points="1370.71,527.9 1389.6,527.9 "/>
<polyline clip-path="url(#clip340)" style="stroke:#000000; stroke-linecap:round; stroke-linejoin:round; stroke-width:4; stroke-opacity:1; fill:none" points="1370.71,54.0585 1389.6,54.0585 "/>
<path clip-path="url(#clip340)" d="M1274.22 1476.04 L1303.9 1476.04 L1303.9 1479.97 L1274.22 1479.97 L1274.22 1476.04 Z" fill="#000000" fill-rule="nonzero" fill-opacity="1" /><path clip-path="url(#clip340)" d="M1314.8 1488.93 L1322.44 1488.93 L1322.44 1462.56 L1314.13 1464.23 L1314.13 1459.97 L1322.39 1458.3 L1327.07 1458.3 L1327.07 1488.93 L1334.71 1488.93 L1334.71 1492.86 L1314.8 1492.86 L1314.8 1488.93 Z" fill="#000000" fill-rule="nonzero" fill-opacity="1" /><path clip-path="url(#clip340)" d="M1322.76 987.541 Q1319.15 987.541 1317.32 991.106 Q1315.52 994.648 1315.52 1001.78 Q1315.52 1008.88 1317.32 1012.45 Q1319.15 1015.99 1322.76 1015.99 Q1326.4 1015.99 1328.2 1012.45 Q1330.03 1008.88 1330.03 1001.78 Q1330.03 994.648 1328.2 991.106 Q1326.4 987.541 1322.76 987.541 M1322.76 983.837 Q1328.57 983.837 1331.63 988.444 Q1334.71 993.027 1334.71 1001.78 Q1334.71 1010.5 1331.63 1015.11 Q1328.57 1019.69 1322.76 1019.69 Q1316.95 1019.69 1313.87 1015.11 Q1310.82 1010.5 1310.82 1001.78 Q1310.82 993.027 1313.87 988.444 Q1316.95 983.837 1322.76 983.837 Z" fill="#000000" fill-rule="nonzero" fill-opacity="1" /><path clip-path="url(#clip340)" d="M1314.8 541.245 L1322.44 541.245 L1322.44 514.88 L1314.13 516.546 L1314.13 512.287 L1322.39 510.62 L1327.07 510.62 L1327.07 541.245 L1334.71 541.245 L1334.71 545.18 L1314.8 545.18 L1314.8 541.245 Z" fill="#000000" fill-rule="nonzero" fill-opacity="1" /><path clip-path="url(#clip340)" d="M1318.39 67.4033 L1334.71 67.4033 L1334.71 71.3385 L1312.76 71.3385 L1312.76 67.4033 Q1315.42 64.6487 1320.01 60.0191 Q1324.61 55.3663 1325.79 54.0237 Q1328.04 51.5006 1328.92 49.7645 Q1329.82 48.0053 1329.82 46.3155 Q1329.82 43.5608 1327.88 41.8247 Q1325.96 40.0886 1322.86 40.0886 Q1320.66 40.0886 1318.2 40.8525 Q1315.77 41.6164 1312.99 43.1673 L1312.99 38.4451 Q1315.82 37.3109 1318.27 36.7322 Q1320.73 36.1535 1322.76 36.1535 Q1328.13 36.1535 1331.33 38.8386 Q1334.52 41.5238 1334.52 46.0145 Q1334.52 48.1442 1333.71 50.0654 Q1332.92 51.9636 1330.82 54.5562 Q1330.24 55.2274 1327.14 58.445 Q1324.04 61.6394 1318.39 67.4033 Z" fill="#000000" fill-rule="nonzero" fill-opacity="1" /><polyline clip-path="url(#clip343)" style="stroke:#009af9; stroke-linecap:round; stroke-linejoin:round; stroke-width:4; stroke-opacity:1; fill:none" points="1398.5,594.281 1410.23,643.818 1421.96,688.685 1433.68,699.289 1445.41,740.188 1457.14,782.906 1468.86,823.451 1480.59,846.927 1492.32,858.477 1504.05,838.829 1515.77,832.141 1527.5,853.519 1539.23,859.192 1550.96,899.439 1562.68,928.72 1574.41,966.158 1586.14,1046.89 1597.87,1084.98 1609.59,1111.29 1621.32,1128.07 1633.05,1141.53 1644.78,1126.02 1656.5,1136.25 1668.23,1169.29 1679.96,1197.62 1691.68,1195.89 1703.41,1202.59 1715.14,1227.26 1726.87,1246.02 1738.59,1280.93 1750.32,1319.21 1762.05,1318.15 1773.78,1329.66 1785.5,1337.43 1797.23,1323.07 1808.96,1285.99 1820.69,1257.8 1832.41,1236.01 1844.14,1219.01 1855.87,1207.52 1867.6,1143.34 1879.32,1115.32 1891.05,1060.44 1902.78,1002.46 1914.5,941.004 1926.23,883.619 1937.96,859.14 1949.69,813.117 1961.41,773.218 1973.14,743.499 1984.87,729.835 1996.6,724.911 2008.32,682.81 2020.05,655.348 2031.78,647.957 2043.51,661.853 2055.23,649.75 2066.96,636.285 2078.69,571.484 2090.41,545.674 2102.14,503.835 2113.87,448.412 2125.6,368.796 2137.32,299.594 2149.05,228.513 2160.78,204.708 2172.51,207.583 2184.23,213.752 2195.96,214.095 2207.69,247.062 2219.42,324.381 2231.14,394.845 2242.87,491.187 2254.6,601.044 2266.33,704.443 2278.05,791.152 2289.78,865.68 2301.51,920.853 2313.23,954.521 2324.96,993.756 "/>
<polyline clip-path="url(#clip343)" style="stroke:#e26f46; stroke-linecap:round; stroke-linejoin:round; stroke-width:4; stroke-opacity:1; fill:none" points="1398.5,599.223 1410.23,644.808 1421.96,698.949 1433.68,707.979 1445.41,751.818 1457.14,790.141 1468.86,830.511 1480.59,855.096 1492.32,868.459 1504.05,848.076 1515.77,835.034 1527.5,852.002 1539.23,861.641 1550.96,903.401 1562.68,941.103 1574.41,971.541 1586.14,1055.42 1597.87,1094.8 1609.59,1121.67 1621.32,1132.61 1633.05,1147.31 1644.78,1134.64 1656.5,1145.29 1668.23,1172.55 1679.96,1202.08 1691.68,1196.06 1703.41,1199.55 1715.14,1229.13 1726.87,1242.27 1738.59,1275.87 1750.32,1315.81 1762.05,1318.81 1773.78,1324.11 1785.5,1333.54 1797.23,1327.16 1808.96,1287.79 1820.69,1264.8 1832.41,1240.93 1844.14,1220.68 1855.87,1209.04 1867.6,1144.16 1879.32,1116.42 1891.05,1057.53 1902.78,999.115 1914.5,939.608 1926.23,886.113 1937.96,860.686 1949.69,806.27 1961.41,766.803 1973.14,736.706 1984.87,735.631 1996.6,733.652 2008.32,686.745 2020.05,662.962 2031.78,653.09 2043.51,665.728 2055.23,651.583 2066.96,638.035 2078.69,583.205 2090.41,554.873 2102.14,510.791 2113.87,455.166 2125.6,377.021 2137.32,311.987 2149.05,250.01 2160.78,217.98 2172.51,212.245 2184.23,218.82 2195.96,214.868 2207.69,246.573 2219.42,328.177 2231.14,404.78 2242.87,486.423 2254.6,594.489 2266.33,704.324 2278.05,788.637 2289.78,867.886 2301.51,922.392 2313.23,956.837 2324.96,989.207 "/>
<polyline clip-path="url(#clip343)" style="stroke:#3da44d; stroke-linecap:round; stroke-linejoin:round; stroke-width:4; stroke-opacity:1; fill:none" points="1398.5,619.445 1410.23,668.373 1421.96,678.77 1433.68,728.991 1445.41,741.26 1457.14,758.657 1468.86,811.256 1480.59,766.321 1492.32,796.973 1504.05,794.941 1515.77,810.169 1527.5,775.025 1539.23,829.767 1550.96,827.714 1562.68,906.744 1574.41,969.478 1586.14,1070.04 1597.87,1153.76 1609.59,1146.28 1621.32,1118.49 1633.05,1110.1 1644.78,1114.82 1656.5,1157.73 1668.23,1179.29 1679.96,1213.24 1691.68,1203.07 1703.41,1233.62 1715.14,1301.49 1726.87,1298.32 1738.59,1389.47 1750.32,1427.27 1762.05,1423.3 1773.78,1433.34 1785.5,1445.72 1797.23,1430.68 1808.96,1296.14 1820.69,1343.11 1832.41,1260.23 1844.14,1251.41 1855.87,1264.97 1867.6,1223.25 1879.32,1161.03 1891.05,1147.74 1902.78,1040.33 1914.5,856.85 1926.23,852.762 1937.96,793.234 1949.69,803.828 1961.41,707.797 1973.14,716.494 1984.87,735.615 1996.6,728.4 2008.32,600.473 2020.05,603.456 2031.78,563.667 2043.51,573.089 2055.23,623.639 2066.96,631.966 2078.69,581.67 2090.41,580.834 2102.14,575.037 2113.87,519.587 2125.6,403.382 2137.32,299.359 2149.05,182.965 2160.78,95.7746 2172.51,140.756 2184.23,87.9763 2195.96,178.993 2207.69,273.994 2219.42,330.603 2231.14,315.285 2242.87,419.856 2254.6,550.904 2266.33,649.924 2278.05,729.153 2289.78,771.078 2301.51,880.238 2313.23,926.251 2324.96,964.87 "/>
<path clip-path="url(#clip340)" d="M1403.44 302.578 L1863.31 302.578 L1863.31 95.2176 L1403.44 95.2176  Z" fill="#ffffff" fill-rule="evenodd" fill-opacity="1"/>
<polyline clip-path="url(#clip340)" style="stroke:#000000; stroke-linecap:round; stroke-linejoin:round; stroke-width:4; stroke-opacity:1; fill:none" points="1403.44,302.578 1863.31,302.578 1863.31,95.2176 1403.44,95.2176 1403.44,302.578 "/>
<polyline clip-path="url(#clip340)" style="stroke:#009af9; stroke-linecap:round; stroke-linejoin:round; stroke-width:4; stroke-opacity:1; fill:none" points="1414.35,147.058 1479.82,147.058 "/>
<path clip-path="url(#clip340)" d="M1490.74 129.778 L1495.41 129.778 L1495.41 144.384 L1510.92 129.778 L1516.94 129.778 L1499.79 145.889 L1518.17 164.338 L1512.01 164.338 L1495.41 147.694 L1495.41 164.338 L1490.74 164.338 L1490.74 129.778 Z" fill="#000000" fill-rule="nonzero" fill-opacity="1" /><path clip-path="url(#clip340)" d="M1532.59 151.305 Q1527.42 151.305 1525.43 152.486 Q1523.44 153.666 1523.44 156.514 Q1523.44 158.782 1524.92 160.125 Q1526.43 161.444 1529 161.444 Q1532.54 161.444 1534.67 158.944 Q1536.82 156.421 1536.82 152.254 L1536.82 151.305 L1532.59 151.305 M1541.08 149.546 L1541.08 164.338 L1536.82 164.338 L1536.82 160.402 Q1535.36 162.763 1533.19 163.898 Q1531.01 165.009 1527.86 165.009 Q1523.88 165.009 1521.52 162.787 Q1519.18 160.541 1519.18 156.791 Q1519.18 152.416 1522.1 150.194 Q1525.04 147.972 1530.85 147.972 L1536.82 147.972 L1536.82 147.555 Q1536.82 144.615 1534.88 143.018 Q1532.96 141.398 1529.46 141.398 Q1527.24 141.398 1525.13 141.93 Q1523.03 142.463 1521.08 143.527 L1521.08 139.592 Q1523.42 138.69 1525.62 138.25 Q1527.82 137.787 1529.9 137.787 Q1535.53 137.787 1538.3 140.703 Q1541.08 143.62 1541.08 149.546 Z" fill="#000000" fill-rule="nonzero" fill-opacity="1" /><path clip-path="url(#clip340)" d="M1549.86 128.319 L1554.11 128.319 L1554.11 164.338 L1549.86 164.338 L1549.86 128.319 Z" fill="#000000" fill-rule="nonzero" fill-opacity="1" /><path clip-path="url(#clip340)" d="M1583.21 143.389 Q1584.81 140.518 1587.03 139.153 Q1589.25 137.787 1592.26 137.787 Q1596.31 137.787 1598.51 140.634 Q1600.71 143.458 1600.71 148.689 L1600.71 164.338 L1596.43 164.338 L1596.43 148.828 Q1596.43 145.102 1595.11 143.296 Q1593.79 141.49 1591.08 141.49 Q1587.77 141.49 1585.85 143.69 Q1583.93 145.889 1583.93 149.685 L1583.93 164.338 L1579.65 164.338 L1579.65 148.828 Q1579.65 145.078 1578.33 143.296 Q1577.01 141.49 1574.25 141.49 Q1570.99 141.49 1569.07 143.713 Q1567.15 145.912 1567.15 149.685 L1567.15 164.338 L1562.86 164.338 L1562.86 138.412 L1567.15 138.412 L1567.15 142.44 Q1568.61 140.055 1570.64 138.921 Q1572.68 137.787 1575.48 137.787 Q1578.3 137.787 1580.27 139.222 Q1582.26 140.657 1583.21 143.389 Z" fill="#000000" fill-rule="nonzero" fill-opacity="1" /><path clip-path="url(#clip340)" d="M1620.99 151.305 Q1615.83 151.305 1613.84 152.486 Q1611.85 153.666 1611.85 156.514 Q1611.85 158.782 1613.33 160.125 Q1614.83 161.444 1617.4 161.444 Q1620.94 161.444 1623.07 158.944 Q1625.23 156.421 1625.23 152.254 L1625.23 151.305 L1620.99 151.305 M1629.48 149.546 L1629.48 164.338 L1625.23 164.338 L1625.23 160.402 Q1623.77 162.763 1621.59 163.898 Q1619.42 165.009 1616.27 165.009 Q1612.29 165.009 1609.92 162.787 Q1607.59 160.541 1607.59 156.791 Q1607.59 152.416 1610.5 150.194 Q1613.44 147.972 1619.25 147.972 L1625.23 147.972 L1625.23 147.555 Q1625.23 144.615 1623.28 143.018 Q1621.36 141.398 1617.86 141.398 Q1615.64 141.398 1613.54 141.93 Q1611.43 142.463 1609.48 143.527 L1609.48 139.592 Q1611.82 138.69 1614.02 138.25 Q1616.22 137.787 1618.3 137.787 Q1623.93 137.787 1626.71 140.703 Q1629.48 143.62 1629.48 149.546 Z" fill="#000000" fill-rule="nonzero" fill-opacity="1" /><path clip-path="url(#clip340)" d="M1659.81 148.689 L1659.81 164.338 L1655.55 164.338 L1655.55 148.828 Q1655.55 145.148 1654.11 143.319 Q1652.68 141.49 1649.81 141.49 Q1646.36 141.49 1644.37 143.69 Q1642.38 145.889 1642.38 149.685 L1642.38 164.338 L1638.1 164.338 L1638.1 138.412 L1642.38 138.412 L1642.38 142.44 Q1643.91 140.102 1645.97 138.944 Q1648.05 137.787 1650.76 137.787 Q1655.23 137.787 1657.52 140.565 Q1659.81 143.319 1659.81 148.689 Z" fill="#000000" fill-rule="nonzero" fill-opacity="1" /><path clip-path="url(#clip340)" d="M1699.9 139.176 L1699.9 143.203 Q1698.1 142.277 1696.15 141.815 Q1694.21 141.352 1692.12 141.352 Q1688.95 141.352 1687.35 142.324 Q1685.78 143.296 1685.78 145.24 Q1685.78 146.722 1686.91 147.578 Q1688.05 148.412 1691.47 149.176 L1692.93 149.5 Q1697.47 150.472 1699.37 152.254 Q1701.29 154.014 1701.29 157.185 Q1701.29 160.796 1698.42 162.902 Q1695.57 165.009 1690.57 165.009 Q1688.49 165.009 1686.22 164.592 Q1683.97 164.199 1681.47 163.388 L1681.47 158.99 Q1683.84 160.217 1686.13 160.842 Q1688.42 161.444 1690.66 161.444 Q1693.67 161.444 1695.29 160.426 Q1696.91 159.384 1696.91 157.509 Q1696.91 155.773 1695.73 154.847 Q1694.58 153.921 1690.62 153.064 L1689.14 152.717 Q1685.18 151.884 1683.42 150.171 Q1681.66 148.435 1681.66 145.426 Q1681.66 141.768 1684.25 139.778 Q1686.85 137.787 1691.61 137.787 Q1693.97 137.787 1696.06 138.134 Q1698.14 138.481 1699.9 139.176 Z" fill="#000000" fill-rule="nonzero" fill-opacity="1" /><path clip-path="url(#clip340)" d="M1728.26 143.389 Q1729.85 140.518 1732.08 139.153 Q1734.3 137.787 1737.31 137.787 Q1741.36 137.787 1743.56 140.634 Q1745.76 143.458 1745.76 148.689 L1745.76 164.338 L1741.47 164.338 L1741.47 148.828 Q1741.47 145.102 1740.16 143.296 Q1738.84 141.49 1736.13 141.49 Q1732.82 141.49 1730.9 143.69 Q1728.97 145.889 1728.97 149.685 L1728.97 164.338 L1724.69 164.338 L1724.69 148.828 Q1724.69 145.078 1723.37 143.296 Q1722.05 141.49 1719.3 141.49 Q1716.03 141.49 1714.11 143.713 Q1712.19 145.912 1712.19 149.685 L1712.19 164.338 L1707.91 164.338 L1707.91 138.412 L1712.19 138.412 L1712.19 142.44 Q1713.65 140.055 1715.69 138.921 Q1717.72 137.787 1720.53 137.787 Q1723.35 137.787 1725.32 139.222 Q1727.31 140.657 1728.26 143.389 Z" fill="#000000" fill-rule="nonzero" fill-opacity="1" /><path clip-path="url(#clip340)" d="M1764.3 141.398 Q1760.87 141.398 1758.88 144.083 Q1756.89 146.745 1756.89 151.398 Q1756.89 156.051 1758.86 158.736 Q1760.85 161.398 1764.3 161.398 Q1767.7 161.398 1769.69 158.713 Q1771.68 156.027 1771.68 151.398 Q1771.68 146.791 1769.69 144.106 Q1767.7 141.398 1764.3 141.398 M1764.3 137.787 Q1769.85 137.787 1773.03 141.398 Q1776.2 145.009 1776.2 151.398 Q1776.2 157.764 1773.03 161.398 Q1769.85 165.009 1764.3 165.009 Q1758.72 165.009 1755.55 161.398 Q1752.4 157.764 1752.4 151.398 Q1752.4 145.009 1755.55 141.398 Q1758.72 137.787 1764.3 137.787 Z" fill="#000000" fill-rule="nonzero" fill-opacity="1" /><path clip-path="url(#clip340)" d="M1793.3 141.398 Q1789.88 141.398 1787.89 144.083 Q1785.9 146.745 1785.9 151.398 Q1785.9 156.051 1787.86 158.736 Q1789.85 161.398 1793.3 161.398 Q1796.71 161.398 1798.7 158.713 Q1800.69 156.027 1800.69 151.398 Q1800.69 146.791 1798.7 144.106 Q1796.71 141.398 1793.3 141.398 M1793.3 137.787 Q1798.86 137.787 1802.03 141.398 Q1805.2 145.009 1805.2 151.398 Q1805.2 157.764 1802.03 161.398 Q1798.86 165.009 1793.3 165.009 Q1787.72 165.009 1784.55 161.398 Q1781.4 157.764 1781.4 151.398 Q1781.4 145.009 1784.55 141.398 Q1787.72 137.787 1793.3 137.787 Z" fill="#000000" fill-rule="nonzero" fill-opacity="1" /><path clip-path="url(#clip340)" d="M1816.47 131.051 L1816.47 138.412 L1825.25 138.412 L1825.25 141.722 L1816.47 141.722 L1816.47 155.796 Q1816.47 158.967 1817.33 159.87 Q1818.21 160.773 1820.87 160.773 L1825.25 160.773 L1825.25 164.338 L1820.87 164.338 Q1815.94 164.338 1814.07 162.509 Q1812.19 160.657 1812.19 155.796 L1812.19 141.722 L1809.07 141.722 L1809.07 138.412 L1812.19 138.412 L1812.19 131.051 L1816.47 131.051 Z" fill="#000000" fill-rule="nonzero" fill-opacity="1" /><path clip-path="url(#clip340)" d="M1852.4 148.689 L1852.4 164.338 L1848.14 164.338 L1848.14 148.828 Q1848.14 145.148 1846.71 143.319 Q1845.27 141.49 1842.4 141.49 Q1838.95 141.49 1836.96 143.69 Q1834.97 145.889 1834.97 149.685 L1834.97 164.338 L1830.69 164.338 L1830.69 128.319 L1834.97 128.319 L1834.97 142.44 Q1836.5 140.102 1838.56 138.944 Q1840.64 137.787 1843.35 137.787 Q1847.82 137.787 1850.11 140.565 Q1852.4 143.319 1852.4 148.689 Z" fill="#000000" fill-rule="nonzero" fill-opacity="1" /><polyline clip-path="url(#clip340)" style="stroke:#e26f46; stroke-linecap:round; stroke-linejoin:round; stroke-width:4; stroke-opacity:1; fill:none" points="1414.35,198.898 1479.82,198.898 "/>
<path clip-path="url(#clip340)" d="M1495.02 212.289 L1495.02 226.039 L1490.74 226.039 L1490.74 190.252 L1495.02 190.252 L1495.02 194.187 Q1496.36 191.872 1498.4 190.761 Q1500.46 189.627 1503.3 189.627 Q1508.03 189.627 1510.97 193.377 Q1513.93 197.127 1513.93 203.238 Q1513.93 209.349 1510.97 213.099 Q1508.03 216.849 1503.3 216.849 Q1500.46 216.849 1498.4 215.738 Q1496.36 214.603 1495.02 212.289 M1509.51 203.238 Q1509.51 198.539 1507.56 195.877 Q1505.64 193.192 1502.26 193.192 Q1498.88 193.192 1496.94 195.877 Q1495.02 198.539 1495.02 203.238 Q1495.02 207.937 1496.94 210.622 Q1498.88 213.284 1502.26 213.284 Q1505.64 213.284 1507.56 210.622 Q1509.51 207.937 1509.51 203.238 Z" fill="#000000" fill-rule="nonzero" fill-opacity="1" /><path clip-path="url(#clip340)" d="M1534.11 180.159 L1534.11 183.701 L1530.04 183.701 Q1527.75 183.701 1526.85 184.627 Q1525.97 185.553 1525.97 187.96 L1525.97 190.252 L1532.98 190.252 L1532.98 193.562 L1525.97 193.562 L1525.97 216.178 L1521.68 216.178 L1521.68 193.562 L1517.61 193.562 L1517.61 190.252 L1521.68 190.252 L1521.68 188.446 Q1521.68 184.118 1523.7 182.15 Q1525.71 180.159 1530.09 180.159 L1534.11 180.159 Z" fill="#000000" fill-rule="nonzero" fill-opacity="1" /><path clip-path="url(#clip340)" d="M1569.28 191.016 L1569.28 195.043 Q1567.47 194.117 1565.53 193.655 Q1563.58 193.192 1561.5 193.192 Q1558.33 193.192 1556.73 194.164 Q1555.16 195.136 1555.16 197.08 Q1555.16 198.562 1556.29 199.418 Q1557.42 200.252 1560.85 201.016 L1562.31 201.34 Q1566.85 202.312 1568.74 204.094 Q1570.67 205.854 1570.67 209.025 Q1570.67 212.636 1567.79 214.742 Q1564.95 216.849 1559.95 216.849 Q1557.86 216.849 1555.6 216.432 Q1553.35 216.039 1550.85 215.228 L1550.85 210.83 Q1553.21 212.057 1555.5 212.682 Q1557.79 213.284 1560.04 213.284 Q1563.05 213.284 1564.67 212.266 Q1566.29 211.224 1566.29 209.349 Q1566.29 207.613 1565.11 206.687 Q1563.95 205.761 1559.99 204.904 L1558.51 204.557 Q1554.55 203.724 1552.8 202.011 Q1551.04 200.275 1551.04 197.266 Q1551.04 193.608 1553.63 191.618 Q1556.22 189.627 1560.99 189.627 Q1563.35 189.627 1565.43 189.974 Q1567.52 190.321 1569.28 191.016 Z" fill="#000000" fill-rule="nonzero" fill-opacity="1" /><path clip-path="url(#clip340)" d="M1597.63 195.229 Q1599.23 192.358 1601.45 190.993 Q1603.67 189.627 1606.68 189.627 Q1610.73 189.627 1612.93 192.474 Q1615.13 195.298 1615.13 200.529 L1615.13 216.178 L1610.85 216.178 L1610.85 200.668 Q1610.85 196.942 1609.53 195.136 Q1608.21 193.33 1605.5 193.33 Q1602.19 193.33 1600.27 195.53 Q1598.35 197.729 1598.35 201.525 L1598.35 216.178 L1594.07 216.178 L1594.07 200.668 Q1594.07 196.918 1592.75 195.136 Q1591.43 193.33 1588.67 193.33 Q1585.41 193.33 1583.49 195.553 Q1581.57 197.752 1581.57 201.525 L1581.57 216.178 L1577.29 216.178 L1577.29 190.252 L1581.57 190.252 L1581.57 194.28 Q1583.03 191.895 1585.06 190.761 Q1587.1 189.627 1589.9 189.627 Q1592.73 189.627 1594.69 191.062 Q1596.68 192.497 1597.63 195.229 Z" fill="#000000" fill-rule="nonzero" fill-opacity="1" /><path clip-path="url(#clip340)" d="M1633.67 193.238 Q1630.25 193.238 1628.26 195.923 Q1626.27 198.585 1626.27 203.238 Q1626.27 207.891 1628.23 210.576 Q1630.23 213.238 1633.67 213.238 Q1637.08 213.238 1639.07 210.553 Q1641.06 207.867 1641.06 203.238 Q1641.06 198.631 1639.07 195.946 Q1637.08 193.238 1633.67 193.238 M1633.67 189.627 Q1639.23 189.627 1642.4 193.238 Q1645.57 196.849 1645.57 203.238 Q1645.57 209.604 1642.4 213.238 Q1639.23 216.849 1633.67 216.849 Q1628.1 216.849 1624.92 213.238 Q1621.78 209.604 1621.78 203.238 Q1621.78 196.849 1624.92 193.238 Q1628.1 189.627 1633.67 189.627 Z" fill="#000000" fill-rule="nonzero" fill-opacity="1" /><path clip-path="url(#clip340)" d="M1662.68 193.238 Q1659.25 193.238 1657.26 195.923 Q1655.27 198.585 1655.27 203.238 Q1655.27 207.891 1657.24 210.576 Q1659.23 213.238 1662.68 213.238 Q1666.08 213.238 1668.07 210.553 Q1670.06 207.867 1670.06 203.238 Q1670.06 198.631 1668.07 195.946 Q1666.08 193.238 1662.68 193.238 M1662.68 189.627 Q1668.23 189.627 1671.41 193.238 Q1674.58 196.849 1674.58 203.238 Q1674.58 209.604 1671.41 213.238 Q1668.23 216.849 1662.68 216.849 Q1657.1 216.849 1653.93 213.238 Q1650.78 209.604 1650.78 203.238 Q1650.78 196.849 1653.93 193.238 Q1657.1 189.627 1662.68 189.627 Z" fill="#000000" fill-rule="nonzero" fill-opacity="1" /><path clip-path="url(#clip340)" d="M1685.85 182.891 L1685.85 190.252 L1694.62 190.252 L1694.62 193.562 L1685.85 193.562 L1685.85 207.636 Q1685.85 210.807 1686.71 211.71 Q1687.59 212.613 1690.25 212.613 L1694.62 212.613 L1694.62 216.178 L1690.25 216.178 Q1685.32 216.178 1683.44 214.349 Q1681.57 212.497 1681.57 207.636 L1681.57 193.562 L1678.44 193.562 L1678.44 190.252 L1681.57 190.252 L1681.57 182.891 L1685.85 182.891 Z" fill="#000000" fill-rule="nonzero" fill-opacity="1" /><path clip-path="url(#clip340)" d="M1721.78 200.529 L1721.78 216.178 L1717.52 216.178 L1717.52 200.668 Q1717.52 196.988 1716.08 195.159 Q1714.65 193.33 1711.78 193.33 Q1708.33 193.33 1706.34 195.53 Q1704.35 197.729 1704.35 201.525 L1704.35 216.178 L1700.06 216.178 L1700.06 180.159 L1704.35 180.159 L1704.35 194.28 Q1705.87 191.942 1707.93 190.784 Q1710.02 189.627 1712.72 189.627 Q1717.19 189.627 1719.48 192.405 Q1721.78 195.159 1721.78 200.529 Z" fill="#000000" fill-rule="nonzero" fill-opacity="1" /><polyline clip-path="url(#clip340)" style="stroke:#3da44d; stroke-linecap:round; stroke-linejoin:round; stroke-width:4; stroke-opacity:1; fill:none" points="1414.35,250.738 1479.82,250.738 "/>
<path clip-path="url(#clip340)" d="M1498.14 234.731 L1498.14 242.092 L1506.92 242.092 L1506.92 245.402 L1498.14 245.402 L1498.14 259.476 Q1498.14 262.647 1499 263.55 Q1499.88 264.453 1502.54 264.453 L1506.92 264.453 L1506.92 268.018 L1502.54 268.018 Q1497.61 268.018 1495.74 266.189 Q1493.86 264.337 1493.86 259.476 L1493.86 245.402 L1490.74 245.402 L1490.74 242.092 L1493.86 242.092 L1493.86 234.731 L1498.14 234.731 Z" fill="#000000" fill-rule="nonzero" fill-opacity="1" /><path clip-path="url(#clip340)" d="M1527.54 246.073 Q1526.82 245.657 1525.97 245.471 Q1525.13 245.263 1524.11 245.263 Q1520.5 245.263 1518.56 247.624 Q1516.64 249.962 1516.64 254.36 L1516.64 268.018 L1512.36 268.018 L1512.36 242.092 L1516.64 242.092 L1516.64 246.12 Q1517.98 243.758 1520.13 242.624 Q1522.29 241.467 1525.36 241.467 Q1525.8 241.467 1526.34 241.536 Q1526.87 241.583 1527.52 241.698 L1527.54 246.073 Z" fill="#000000" fill-rule="nonzero" fill-opacity="1" /><path clip-path="url(#clip340)" d="M1531.57 257.786 L1531.57 242.092 L1535.83 242.092 L1535.83 257.624 Q1535.83 261.305 1537.26 263.156 Q1538.7 264.985 1541.57 264.985 Q1545.02 264.985 1547.01 262.786 Q1549.02 260.587 1549.02 256.791 L1549.02 242.092 L1553.28 242.092 L1553.28 268.018 L1549.02 268.018 L1549.02 264.036 Q1547.47 266.397 1545.41 267.555 Q1543.37 268.689 1540.67 268.689 Q1536.2 268.689 1533.88 265.911 Q1531.57 263.133 1531.57 257.786 M1542.29 241.467 L1542.29 241.467 Z" fill="#000000" fill-rule="nonzero" fill-opacity="1" /><path clip-path="url(#clip340)" d="M1584.23 253.99 L1584.23 256.073 L1564.65 256.073 Q1564.92 260.471 1567.29 262.786 Q1569.67 265.078 1573.91 265.078 Q1576.36 265.078 1578.65 264.476 Q1580.97 263.874 1583.23 262.67 L1583.23 266.698 Q1580.94 267.67 1578.54 268.18 Q1576.13 268.689 1573.65 268.689 Q1567.45 268.689 1563.81 265.078 Q1560.2 261.467 1560.2 255.309 Q1560.2 248.944 1563.63 245.217 Q1567.08 241.467 1572.91 241.467 Q1578.14 241.467 1581.17 244.846 Q1584.23 248.203 1584.23 253.99 M1579.97 252.74 Q1579.92 249.245 1578 247.161 Q1576.11 245.078 1572.96 245.078 Q1569.39 245.078 1567.24 247.092 Q1565.11 249.106 1564.79 252.763 L1579.97 252.74 Z" fill="#000000" fill-rule="nonzero" fill-opacity="1" /></svg>
