<?xml version="1.0" encoding="utf-8"?>
<svg xmlns="http://www.w3.org/2000/svg" xmlns:xlink="http://www.w3.org/1999/xlink" width="600" height="400" viewBox="0 0 2400 1600">
<defs>
  <clipPath id="clip710">
    <rect x="0" y="0" width="2400" height="1600"/>
  </clipPath>
</defs>
<path clip-path="url(#clip710)" d="M0 1600 L2400 1600 L2400 0 L0 0  Z" fill="#ffffff" fill-rule="evenodd" fill-opacity="1"/>
<defs>
  <clipPath id="clip711">
    <rect x="140" y="47" width="2213" height="1440"/>
  </clipPath>
</defs>
<path clip-path="url(#clip710)" d="M140.51 1486.45 L2352.76 1486.45 L2352.76 47.2441 L140.51 47.2441  Z" fill="#ffffff" fill-rule="evenodd" fill-opacity="1"/>
<polyline clip-path="url(#clip711)" style="stroke:#000000; stroke-linecap:round; stroke-linejoin:round; stroke-width:2; stroke-opacity:0.1; fill:none" points="352.991,1486.45 352.991,47.2441 "/>
<polyline clip-path="url(#clip711)" style="stroke:#000000; stroke-linecap:round; stroke-linejoin:round; stroke-width:2; stroke-opacity:0.1; fill:none" points="786.76,1486.45 786.76,47.2441 "/>
<polyline clip-path="url(#clip711)" style="stroke:#000000; stroke-linecap:round; stroke-linejoin:round; stroke-width:2; stroke-opacity:0.1; fill:none" points="1220.53,1486.45 1220.53,47.2441 "/>
<polyline clip-path="url(#clip711)" style="stroke:#000000; stroke-linecap:round; stroke-linejoin:round; stroke-width:2; stroke-opacity:0.1; fill:none" points="1654.3,1486.45 1654.3,47.2441 "/>
<polyline clip-path="url(#clip711)" style="stroke:#000000; stroke-linecap:round; stroke-linejoin:round; stroke-width:2; stroke-opacity:0.1; fill:none" points="2088.07,1486.45 2088.07,47.2441 "/>
<polyline clip-path="url(#clip711)" style="stroke:#000000; stroke-linecap:round; stroke-linejoin:round; stroke-width:2; stroke-opacity:0.1; fill:none" points="140.51,1180.13 2352.76,1180.13 "/>
<polyline clip-path="url(#clip711)" style="stroke:#000000; stroke-linecap:round; stroke-linejoin:round; stroke-width:2; stroke-opacity:0.1; fill:none" points="140.51,872.479 2352.76,872.479 "/>
<polyline clip-path="url(#clip711)" style="stroke:#000000; stroke-linecap:round; stroke-linejoin:round; stroke-width:2; stroke-opacity:0.1; fill:none" points="140.51,564.827 2352.76,564.827 "/>
<polyline clip-path="url(#clip711)" style="stroke:#000000; stroke-linecap:round; stroke-linejoin:round; stroke-width:2; stroke-opacity:0.1; fill:none" points="140.51,257.174 2352.76,257.174 "/>
<polyline clip-path="url(#clip710)" style="stroke:#000000; stroke-linecap:round; stroke-linejoin:round; stroke-width:4; stroke-opacity:1; fill:none" points="140.51,1486.45 2352.76,1486.45 "/>
<polyline clip-path="url(#clip710)" style="stroke:#000000; stroke-linecap:round; stroke-linejoin:round; stroke-width:4; stroke-opacity:1; fill:none" points="352.991,1486.45 352.991,1467.55 "/>
<polyline clip-path="url(#clip710)" style="stroke:#000000; stroke-linecap:round; stroke-linejoin:round; stroke-width:4; stroke-opacity:1; fill:none" points="786.76,1486.45 786.76,1467.55 "/>
<polyline clip-path="url(#clip710)" style="stroke:#000000; stroke-linecap:round; stroke-linejoin:round; stroke-width:4; stroke-opacity:1; fill:none" points="1220.53,1486.45 1220.53,1467.55 "/>
<polyline clip-path="url(#clip710)" style="stroke:#000000; stroke-linecap:round; stroke-linejoin:round; stroke-width:4; stroke-opacity:1; fill:none" points="1654.3,1486.45 1654.3,1467.55 "/>
<polyline clip-path="url(#clip710)" style="stroke:#000000; stroke-linecap:round; stroke-linejoin:round; stroke-width:4; stroke-opacity:1; fill:none" points="2088.07,1486.45 2088.07,1467.55 "/>
<path clip-path="url(#clip710)" d="M307.054 1532.02 L336.73 1532.02 L336.73 1535.95 L307.054 1535.95 L307.054 1532.02 Z" fill="#000000" fill-rule="nonzero" fill-opacity="1" /><path clip-path="url(#clip710)" d="M360.989 1530.21 Q364.345 1530.93 366.22 1533.2 Q368.118 1535.47 368.118 1538.8 Q368.118 1543.92 364.6 1546.72 Q361.081 1549.52 354.6 1549.52 Q352.424 1549.52 350.109 1549.08 Q347.818 1548.66 345.364 1547.81 L345.364 1543.29 Q347.308 1544.43 349.623 1545.01 Q351.938 1545.58 354.461 1545.58 Q358.859 1545.58 361.151 1543.85 Q363.466 1542.11 363.466 1538.8 Q363.466 1535.75 361.313 1534.03 Q359.183 1532.3 355.364 1532.3 L351.336 1532.3 L351.336 1528.45 L355.549 1528.45 Q358.998 1528.45 360.827 1527.09 Q362.656 1525.7 362.656 1523.11 Q362.656 1520.45 360.757 1519.03 Q358.882 1517.6 355.364 1517.6 Q353.443 1517.6 351.244 1518.01 Q349.044 1518.43 346.406 1519.31 L346.406 1515.14 Q349.068 1514.4 351.382 1514.03 Q353.72 1513.66 355.781 1513.66 Q361.105 1513.66 364.206 1516.09 Q367.308 1518.5 367.308 1522.62 Q367.308 1525.49 365.665 1527.48 Q364.021 1529.45 360.989 1530.21 Z" fill="#000000" fill-rule="nonzero" fill-opacity="1" /><path clip-path="url(#clip710)" d="M386.984 1517.37 Q383.373 1517.37 381.544 1520.93 Q379.739 1524.47 379.739 1531.6 Q379.739 1538.71 381.544 1542.27 Q383.373 1545.82 386.984 1545.82 Q390.618 1545.82 392.424 1542.27 Q394.253 1538.71 394.253 1531.6 Q394.253 1524.47 392.424 1520.93 Q390.618 1517.37 386.984 1517.37 M386.984 1513.66 Q392.794 1513.66 395.85 1518.27 Q398.928 1522.85 398.928 1531.6 Q398.928 1540.33 395.85 1544.94 Q392.794 1549.52 386.984 1549.52 Q381.174 1549.52 378.095 1544.94 Q375.04 1540.33 375.04 1531.6 Q375.04 1522.85 378.095 1518.27 Q381.174 1513.66 386.984 1513.66 Z" fill="#000000" fill-rule="nonzero" fill-opacity="1" /><path clip-path="url(#clip710)" d="M786.76 1517.37 Q783.149 1517.37 781.32 1520.93 Q779.515 1524.47 779.515 1531.6 Q779.515 1538.71 781.32 1542.27 Q783.149 1545.82 786.76 1545.82 Q790.394 1545.82 792.2 1542.27 Q794.029 1538.71 794.029 1531.6 Q794.029 1524.47 792.2 1520.93 Q790.394 1517.37 786.76 1517.37 M786.76 1513.66 Q792.57 1513.66 795.626 1518.27 Q798.704 1522.85 798.704 1531.6 Q798.704 1540.33 795.626 1544.94 Q792.57 1549.52 786.76 1549.52 Q780.95 1549.52 777.871 1544.94 Q774.816 1540.33 774.816 1531.6 Q774.816 1522.85 777.871 1518.27 Q780.95 1513.66 786.76 1513.66 Z" fill="#000000" fill-rule="nonzero" fill-opacity="1" /><path clip-path="url(#clip710)" d="M1209.37 1530.21 Q1212.73 1530.93 1214.6 1533.2 Q1216.5 1535.47 1216.5 1538.8 Q1216.5 1543.92 1212.98 1546.72 Q1209.46 1549.52 1202.98 1549.52 Q1200.81 1549.52 1198.49 1549.08 Q1196.2 1548.66 1193.75 1547.81 L1193.75 1543.29 Q1195.69 1544.43 1198.01 1545.01 Q1200.32 1545.58 1202.84 1545.58 Q1207.24 1545.58 1209.53 1543.85 Q1211.85 1542.11 1211.85 1538.8 Q1211.85 1535.75 1209.7 1534.03 Q1207.57 1532.3 1203.75 1532.3 L1199.72 1532.3 L1199.72 1528.45 L1203.93 1528.45 Q1207.38 1528.45 1209.21 1527.09 Q1211.04 1525.7 1211.04 1523.11 Q1211.04 1520.45 1209.14 1519.03 Q1207.27 1517.6 1203.75 1517.6 Q1201.83 1517.6 1199.63 1518.01 Q1197.43 1518.43 1194.79 1519.31 L1194.79 1515.14 Q1197.45 1514.4 1199.77 1514.03 Q1202.1 1513.66 1204.16 1513.66 Q1209.49 1513.66 1212.59 1516.09 Q1215.69 1518.5 1215.69 1522.62 Q1215.69 1525.49 1214.05 1527.48 Q1212.4 1529.45 1209.37 1530.21 Z" fill="#000000" fill-rule="nonzero" fill-opacity="1" /><path clip-path="url(#clip710)" d="M1235.37 1517.37 Q1231.76 1517.37 1229.93 1520.93 Q1228.12 1524.47 1228.12 1531.6 Q1228.12 1538.71 1229.93 1542.27 Q1231.76 1545.82 1235.37 1545.82 Q1239 1545.82 1240.81 1542.27 Q1242.64 1538.71 1242.64 1531.6 Q1242.64 1524.47 1240.81 1520.93 Q1239 1517.37 1235.37 1517.37 M1235.37 1513.66 Q1241.18 1513.66 1244.23 1518.27 Q1247.31 1522.85 1247.31 1531.6 Q1247.31 1540.33 1244.23 1544.94 Q1241.18 1549.52 1235.37 1549.52 Q1229.56 1549.52 1226.48 1544.94 Q1223.42 1540.33 1223.42 1531.6 Q1223.42 1522.85 1226.48 1518.27 Q1229.56 1513.66 1235.37 1513.66 Z" fill="#000000" fill-rule="nonzero" fill-opacity="1" /><path clip-path="url(#clip710)" d="M1639.7 1529.7 Q1636.55 1529.7 1634.7 1531.86 Q1632.87 1534.01 1632.87 1537.76 Q1632.87 1541.49 1634.7 1543.66 Q1636.55 1545.82 1639.7 1545.82 Q1642.85 1545.82 1644.68 1543.66 Q1646.53 1541.49 1646.53 1537.76 Q1646.53 1534.01 1644.68 1531.86 Q1642.85 1529.7 1639.7 1529.7 M1648.99 1515.05 L1648.99 1519.31 Q1647.23 1518.48 1645.42 1518.04 Q1643.64 1517.6 1641.88 1517.6 Q1637.25 1517.6 1634.8 1520.72 Q1632.37 1523.85 1632.02 1530.17 Q1633.38 1528.15 1635.44 1527.09 Q1637.5 1526 1639.98 1526 Q1645.19 1526 1648.2 1529.17 Q1651.23 1532.32 1651.23 1537.76 Q1651.23 1543.08 1648.08 1546.3 Q1644.93 1549.52 1639.7 1549.52 Q1633.71 1549.52 1630.54 1544.94 Q1627.37 1540.33 1627.37 1531.6 Q1627.37 1523.41 1631.25 1518.55 Q1635.14 1513.66 1641.69 1513.66 Q1643.45 1513.66 1645.24 1514.01 Q1647.04 1514.36 1648.99 1515.05 Z" fill="#000000" fill-rule="nonzero" fill-opacity="1" /><path clip-path="url(#clip710)" d="M1669.29 1517.37 Q1665.68 1517.37 1663.85 1520.93 Q1662.04 1524.47 1662.04 1531.6 Q1662.04 1538.71 1663.85 1542.27 Q1665.68 1545.82 1669.29 1545.82 Q1672.92 1545.82 1674.73 1542.27 Q1676.55 1538.71 1676.55 1531.6 Q1676.55 1524.47 1674.73 1520.93 Q1672.92 1517.37 1669.29 1517.37 M1669.29 1513.66 Q1675.1 1513.66 1678.15 1518.27 Q1681.23 1522.85 1681.23 1531.6 Q1681.23 1540.33 1678.15 1544.94 Q1675.1 1549.52 1669.29 1549.52 Q1663.48 1549.52 1660.4 1544.94 Q1657.34 1540.33 1657.34 1531.6 Q1657.34 1522.85 1660.4 1518.27 Q1663.48 1513.66 1669.29 1513.66 Z" fill="#000000" fill-rule="nonzero" fill-opacity="1" /><path clip-path="url(#clip710)" d="M2063.19 1548.13 L2063.19 1543.87 Q2064.95 1544.7 2066.76 1545.14 Q2068.56 1545.58 2070.3 1545.58 Q2074.93 1545.58 2077.36 1542.48 Q2079.81 1539.36 2080.16 1533.01 Q2078.82 1535.01 2076.76 1536.07 Q2074.7 1537.13 2072.2 1537.13 Q2067.01 1537.13 2063.98 1534.01 Q2060.97 1530.86 2060.97 1525.42 Q2060.97 1520.1 2064.12 1516.88 Q2067.27 1513.66 2072.5 1513.66 Q2078.5 1513.66 2081.64 1518.27 Q2084.81 1522.85 2084.81 1531.6 Q2084.81 1539.77 2080.93 1544.66 Q2077.06 1549.52 2070.51 1549.52 Q2068.75 1549.52 2066.94 1549.17 Q2065.14 1548.82 2063.19 1548.13 M2072.5 1533.48 Q2075.65 1533.48 2077.48 1531.32 Q2079.33 1529.17 2079.33 1525.42 Q2079.33 1521.7 2077.48 1519.54 Q2075.65 1517.37 2072.5 1517.37 Q2069.35 1517.37 2067.5 1519.54 Q2065.67 1521.7 2065.67 1525.42 Q2065.67 1529.17 2067.5 1531.32 Q2069.35 1533.48 2072.5 1533.48 Z" fill="#000000" fill-rule="nonzero" fill-opacity="1" /><path clip-path="url(#clip710)" d="M2103.22 1517.37 Q2099.61 1517.37 2097.78 1520.93 Q2095.97 1524.47 2095.97 1531.6 Q2095.97 1538.71 2097.78 1542.27 Q2099.61 1545.82 2103.22 1545.82 Q2106.85 1545.82 2108.66 1542.27 Q2110.49 1538.71 2110.49 1531.6 Q2110.49 1524.47 2108.66 1520.93 Q2106.85 1517.37 2103.22 1517.37 M2103.22 1513.66 Q2109.03 1513.66 2112.08 1518.27 Q2115.16 1522.85 2115.16 1531.6 Q2115.16 1540.33 2112.08 1544.94 Q2109.03 1549.52 2103.22 1549.52 Q2097.41 1549.52 2094.33 1544.94 Q2091.27 1540.33 2091.27 1531.6 Q2091.27 1522.85 2094.33 1518.27 Q2097.41 1513.66 2103.22 1513.66 Z" fill="#000000" fill-rule="nonzero" fill-opacity="1" /><polyline clip-path="url(#clip710)" style="stroke:#000000; stroke-linecap:round; stroke-linejoin:round; stroke-width:4; stroke-opacity:1; fill:none" points="140.51,1486.45 140.51,47.2441 "/>
<polyline clip-path="url(#clip710)" style="stroke:#000000; stroke-linecap:round; stroke-linejoin:round; stroke-width:4; stroke-opacity:1; fill:none" points="140.51,1180.13 159.408,1180.13 "/>
<polyline clip-path="url(#clip710)" style="stroke:#000000; stroke-linecap:round; stroke-linejoin:round; stroke-width:4; stroke-opacity:1; fill:none" points="140.51,872.479 159.408,872.479 "/>
<polyline clip-path="url(#clip710)" style="stroke:#000000; stroke-linecap:round; stroke-linejoin:round; stroke-width:4; stroke-opacity:1; fill:none" points="140.51,564.827 159.408,564.827 "/>
<polyline clip-path="url(#clip710)" style="stroke:#000000; stroke-linecap:round; stroke-linejoin:round; stroke-width:4; stroke-opacity:1; fill:none" points="140.51,257.174 159.408,257.174 "/>
<path clip-path="url(#clip710)" d="M92.566 1165.93 Q88.9549 1165.93 87.1262 1169.5 Q85.3206 1173.04 85.3206 1180.17 Q85.3206 1187.27 87.1262 1190.84 Q88.9549 1194.38 92.566 1194.38 Q96.2002 1194.38 98.0058 1190.84 Q99.8345 1187.27 99.8345 1180.17 Q99.8345 1173.04 98.0058 1169.5 Q96.2002 1165.93 92.566 1165.93 M92.566 1162.23 Q98.3761 1162.23 101.432 1166.83 Q104.51 1171.42 104.51 1180.17 Q104.51 1188.89 101.432 1193.5 Q98.3761 1198.08 92.566 1198.08 Q86.7558 1198.08 83.6771 1193.5 Q80.6216 1188.89 80.6216 1180.17 Q80.6216 1171.42 83.6771 1166.83 Q86.7558 1162.23 92.566 1162.23 Z" fill="#000000" fill-rule="nonzero" fill-opacity="1" /><path clip-path="url(#clip710)" d="M57.4273 885.824 L73.7466 885.824 L73.7466 889.759 L51.8023 889.759 L51.8023 885.824 Q54.4643 883.069 59.0476 878.44 Q63.6541 873.787 64.8346 872.444 Q67.08 869.921 67.9596 868.185 Q68.8624 866.426 68.8624 864.736 Q68.8624 861.982 66.918 860.245 Q64.9967 858.509 61.8948 858.509 Q59.6958 858.509 57.2421 859.273 Q54.8115 860.037 52.0338 861.588 L52.0338 856.866 Q54.8578 855.732 57.3115 855.153 Q59.7652 854.574 61.8023 854.574 Q67.1726 854.574 70.367 857.259 Q73.5614 859.944 73.5614 864.435 Q73.5614 866.565 72.7513 868.486 Q71.9642 870.384 69.8578 872.977 Q69.2791 873.648 66.1772 876.866 Q63.0754 880.06 57.4273 885.824 Z" fill="#000000" fill-rule="nonzero" fill-opacity="1" /><path clip-path="url(#clip710)" d="M83.6077 855.199 L101.964 855.199 L101.964 859.134 L87.8901 859.134 L87.8901 867.606 Q88.9086 867.259 89.9271 867.097 Q90.9456 866.912 91.9641 866.912 Q97.7511 866.912 101.131 870.083 Q104.51 873.255 104.51 878.671 Q104.51 884.25 101.038 887.352 Q97.566 890.43 91.2465 890.43 Q89.0706 890.43 86.8021 890.06 Q84.5568 889.69 82.1494 888.949 L82.1494 884.25 Q84.2327 885.384 86.4549 885.94 Q88.6771 886.495 91.1539 886.495 Q95.1586 886.495 97.4965 884.389 Q99.8345 882.282 99.8345 878.671 Q99.8345 875.06 97.4965 872.954 Q95.1586 870.847 91.1539 870.847 Q89.279 870.847 87.404 871.264 Q85.5521 871.681 83.6077 872.56 L83.6077 855.199 Z" fill="#000000" fill-rule="nonzero" fill-opacity="1" /><path clip-path="url(#clip710)" d="M52.4505 547.547 L70.8068 547.547 L70.8068 551.482 L56.7328 551.482 L56.7328 559.954 Q57.7513 559.607 58.7699 559.445 Q59.7884 559.26 60.8069 559.26 Q66.5939 559.26 69.9735 562.431 Q73.3531 565.602 73.3531 571.019 Q73.3531 576.597 69.8809 579.699 Q66.4087 582.778 60.0893 582.778 Q57.9134 582.778 55.6449 582.408 Q53.3995 582.037 50.9921 581.297 L50.9921 576.597 Q53.0754 577.732 55.2977 578.287 Q57.5199 578.843 59.9967 578.843 Q64.0013 578.843 66.3393 576.736 Q68.6772 574.63 68.6772 571.019 Q68.6772 567.408 66.3393 565.301 Q64.0013 563.195 59.9967 563.195 Q58.1217 563.195 56.2467 563.611 Q54.3949 564.028 52.4505 564.908 L52.4505 547.547 Z" fill="#000000" fill-rule="nonzero" fill-opacity="1" /><path clip-path="url(#clip710)" d="M92.566 550.625 Q88.9549 550.625 87.1262 554.19 Q85.3206 557.732 85.3206 564.861 Q85.3206 571.968 87.1262 575.533 Q88.9549 579.074 92.566 579.074 Q96.2002 579.074 98.0058 575.533 Q99.8345 571.968 99.8345 564.861 Q99.8345 557.732 98.0058 554.19 Q96.2002 550.625 92.566 550.625 M92.566 546.922 Q98.3761 546.922 101.432 551.528 Q104.51 556.111 104.51 564.861 Q104.51 573.588 101.432 578.195 Q98.3761 582.778 92.566 582.778 Q86.7558 582.778 83.6771 578.195 Q80.6216 573.588 80.6216 564.861 Q80.6216 556.111 83.6771 551.528 Q86.7558 546.922 92.566 546.922 Z" fill="#000000" fill-rule="nonzero" fill-opacity="1" /><path clip-path="url(#clip710)" d="M52.219 239.894 L74.4411 239.894 L74.4411 241.885 L61.8948 274.454 L57.0106 274.454 L68.8161 243.829 L52.219 243.829 L52.219 239.894 Z" fill="#000000" fill-rule="nonzero" fill-opacity="1" /><path clip-path="url(#clip710)" d="M83.6077 239.894 L101.964 239.894 L101.964 243.829 L87.8901 243.829 L87.8901 252.302 Q88.9086 251.954 89.9271 251.792 Q90.9456 251.607 91.9641 251.607 Q97.7511 251.607 101.131 254.778 Q104.51 257.95 104.51 263.366 Q104.51 268.945 101.038 272.047 Q97.566 275.126 91.2465 275.126 Q89.0706 275.126 86.8021 274.755 Q84.5568 274.385 82.1494 273.644 L82.1494 268.945 Q84.2327 270.079 86.4549 270.635 Q88.6771 271.19 91.1539 271.19 Q95.1586 271.19 97.4965 269.084 Q99.8345 266.977 99.8345 263.366 Q99.8345 259.755 97.4965 257.649 Q95.1586 255.542 91.1539 255.542 Q89.279 255.542 87.404 255.959 Q85.5521 256.376 83.6077 257.255 L83.6077 239.894 Z" fill="#000000" fill-rule="nonzero" fill-opacity="1" /><polyline clip-path="url(#clip711)" style="stroke:#0000ff; stroke-linecap:round; stroke-linejoin:round; stroke-width:4; stroke-opacity:1; fill:none" points="203.121,717.786 231.652,722.982 235.681,718.158 246.416,717.806 253.38,718.251 277.558,720.977 300.658,725.039 327.494,726.725 354.668,728.138 384.685,732.288 414.143,732.364 439.76,732.303 475.65,733.906 498.448,739.841 521.991,744.487 557.102,748.028 582.571,749.804 604.471,754.554 633.147,760.865 656.826,767.884 679.824,775.796 702.679,782.513 730.744,789.264 753.549,797.702 779.757,803.222 810.525,811.217 833.418,811.162 866.526,813.299 892.521,821.199 919.092,828.593 949.687,837.87 974.781,846.647 1001.1,853.956 1020.35,864.029 1038.09,876.309 1045.59,882.189 1065.72,885.823 1082.98,888.074 1104.9,889.454 1130.85,892.122 1156.66,901.078 1184.08,910.549 1206.33,915.674 1232.7,919.606 1264.99,921.737 1294.28,923.148 1327.23,927.974 1355.46,932.824 1381.24,936.337 1406.71,938.439 1438.51,938.685 1462.68,938.826 1489.31,938.079 1516.12,935.089 1545.36,929.337 1573.54,929.266 1601.76,927.775 1628.23,928.478 1649.42,921.962 1667.74,918.617 1684.86,911.858 1702.58,905.369 1723.44,905.063 1746.04,902.899 1767.82,904.145 1787.3,907.876 1808.6,914.888 1829.08,926.402 1850.13,938.977 1866.24,950.081 1882.64,966.258 1893.34,980.598 1900.91,995.257 1910.38,1013.68 1922.07,1031.71 1934.84,1050.82 1945.36,1062.06 1963.19,1069.09 1977.25,1072.48 1987.05,1071.46 2008.36,1065.26 2024.98,1060.57 2047.43,1040.83 2060.8,1026.08 2064.58,1006.77 2066.22,987.909 2064.16,964.974 2049.69,948.149 2030.94,940.799 2008.19,931.369 1979.93,934.633 1954.62,933.494 1934.41,928.634 1915.09,925.814 1891.83,923.19 1872.13,929.269 1850.65,935.544 1834.15,942.89 1811.31,946.293 1786.99,946.651 1760.29,942.752 1736.77,932.589 1713.75,922.448 1683.08,906.689 1657.38,889.04 1635.22,870.851 1619.44,854.98 1607.33,841.375 1590.78,827.774 1576.07,811.076 1564.33,795.6 1556.42,779.168 1555.93,763.848 1567.99,748.65 1582.38,735.656 1605.28,728.899 1624.47,728.761 1651.51,730.666 1670.94,742.416 1692.36,748.629 1707.09,754.168 1729.42,760.614 1751.46,771.887 1764.3,781.57 1782.05,792.233 1800.72,803.24 1822.56,811.347 1842.76,812.998 1864.44,813.339 1888.13,807.046 1909.49,802.597 1926.02,801.575 1944.74,808.393 1961.51,819.039 1976.52,834.316 1986.26,850.395 1995.12,870.279 2003.73,892.258 2007.91,912.104 2007.15,933.77 2006.4,944.924 2009.17,958.692 2019.12,977.304 2026.84,995.012 2038.1,1009.54 2049.46,1016.64 2062.38,1020.54 2080.34,1017.14 2099.71,1010.74 2114.92,1002.68 2130.6,989.243 2140.01,979.164 2144.2,960.084 2135.89,942.481 2117.11,923.622 2101.42,906.521 2080.25,895.225 2052.6,890.467 2024.94,887.045 2006.59,885.104 1981.57,883.583 1960.95,881.112 1942.35,871.249 1926.71,864.859 1905.05,858.186 1888.68,857.349 1866.58,859.286 1845.78,854.295 1824.73,849.223 1805.31,847.667 1781.06,844.235 1762.8,839.523 1745.75,835.626 1723.77,833.846 1696.26,835.28 1670.03,840.868 1653.71,839.931 1648.6,832.528 1644.28,829.334 1637.05,827.705 1626.47,826.609 1618.37,826.05 1604.2,830.023 1590.03,836.299 1565.12,840.533 1544.05,844.205 1528.89,850.077 1518.96,858.582 1525.46,860.907 1538.88,859.55 1568.98,855.158 1590.44,837.288 1606.91,822.835 1613.94,807.913 1607.65,791.22 1592.8,772.112 1582.26,760.739 1571.13,740.002 1553.25,730.157 1532.29,739.437 1510.28,741.031 1481.65,736.355 1475.98,718.628 1471.55,699.546 1472.27,678.444 1475.94,661.919 1492.18,639.978 1499.04,620.326 1503.29,597.161 1485.93,583.309 1463.34,575.908 1454.47,573.945 1463.87,562.046 1484.07,550.687 1520.16,549.551 1558.15,535.522 1583.94,518.634 1603.21,494.864 1617.66,472.909 1639.03,463.44 1665.75,466.265 1689.1,471.97 1707.82,489.878 1734.86,502.512 1755.21,519.051 1766.28,539.58 1755.83,556.98 1736.7,573.074 1710.58,585.664 1677.76,591.718 1651.51,592.704 1616.95,577.956 1592.1,561.558 1579.65,540.945 1578.07,518.443 1596.02,502.703 1611.6,494.015 1634.88,479.394 1657.94,470.209 1680.98,454.734 1703.79,442.334 1725.09,440.843 1747.71,426.896 1750.97,414.028 1760.97,395.719 1773.77,390.757 1790.99,373.924 1785.51,360.948 1764.51,349.455 1760.01,347.788 1770.32,343.176 1793.67,336.867 1822.65,341.026 1848.83,344.363 1876.24,349.98 1899.86,366.677 1904.59,384.38 1901.92,396.305 1880.27,407.896 1864.52,429.968 1848.61,457.44 1838.33,490.485 1840.72,510.393 1805.55,514.052 1781.71,528.81 1749.86,535.879 1718.76,552.358 1701.14,577.678 1681.66,596.574 1653.89,591.061 1631.72,579.668 1604.33,570.172 1589.54,557.485 1562.76,541.856 1555,534.401 1562.9,512.769 1586.75,503.167 1620.43,497.409 1649.61,501.3 1685.39,508.537 1713.99,522.076 1722.26,543.598 1736.46,564.646 1752.02,570.178 1778.57,574.464 1801.26,584.827 1812.24,587.167 1838.09,580.018 1862.87,572.697 1881.55,563.59 1902.4,566.237 1922.51,579.876 1921.39,597.525 1922.19,618.712 1909.5,650.771 1889.15,675.591 1865.1,695.907 1840.89,724.755 1839.25,750.517 1802.82,762.882 1774.57,768.88 1746.78,783.514 1720.86,797.056 1703.79,815.351 1687.48,836.38 1662.32,859.553 1635.34,868.454 1607.29,861.186 1583.35,854.681 1550.99,850.606 1522.66,842.221 1503.89,820.665 1489.13,800.932 1457.86,777.955 1440.61,758.751 1414.9,741.621 1392,739.085 1361.75,743.979 1343.23,742.848 1317.36,734.061 1311.77,708.607 1294.56,700.033 1269.79,703.095 1252.54,712.848 1227.49,728.361 1221.68,735.438 1189.72,739.937 1166.53,744.826 1141.3,738.717 1120.63,720.801 1097.87,707.537 1062.26,701.752 1030.04,693.658 1008.49,689.035 986.933,678.875 966.166,657.52 965.846,644.503 975.791,624.806 991.242,604.004 1003.16,581.274 1008.6,550.616 1015.42,526.401 1002.65,506.264 982.358,501.014 970.943,490.781 974.446,476.603 1000.21,476.02 1036.4,479.093 1078.4,477.157 1112.11,473.276 1141.08,455.74 1164.8,430.271 1190.01,411.774 1221.33,404.051 1261.07,406.069 1293.14,418.564 1324.01,433.796 1353.65,447.17 1381.68,458.387 1402.36,472.784 1438.95,479.855 1465.18,494.426 1492.2,516.549 1522.28,543.263 1549.05,559.577 1573.65,570.27 1592.94,580.742 1602.27,572.065 1623.25,561.991 1650.27,548.37 1672.71,538.626 1703.74,527.046 1736.7,526.893 1772.7,535.394 1799.15,560.269 1806.98,581.522 1803.64,612.661 1786.12,645.197 1784.06,672.608 1775.12,705.366 1775.25,739.861 1791.64,770.055 1822.93,796.154 1863.55,793.977 1883.79,796.117 1915.24,803.368 1935.68,824.786 1962.12,850.778 1982.62,882.534 1993.81,914.956 1999.22,937.73 2013.81,920.96 2050.55,924.27 2078.21,931.097 2091.43,946.008 2092.45,950.573 2093.56,955.646 2098.32,971.576 2101.38,977.897 2114,981.634 2130.03,983.389 2157.98,977.38 2185.88,986.682 2200.22,998.263 2214.8,1020.73 2215.69,1034.38 2218.56,1022.89 2223,1006.35 2223.08,979.502 2213.77,952.294 2197.84,927.726 2185.88,905.178 2186.42,884.632 2159.42,862.386 2152.38,831.966 2156.09,806.723 2174.17,795.559 2195.27,796.794 2219.37,805.491 2236.26,818.638 2248.11,838.439 2275.35,861.128 2288.9,882.481 2280.86,909.262 2261.32,930.533 2243.49,950.314 2213.9,964.112 2194.17,983.196 2165.94,996.269 2138.46,1019.09 2118.74,1040.36 2107.61,1064.47 2088.26,1087.36 2070.14,1109.85 2044.9,1126.02 2019.39,1137.43 1988.46,1152.83 1963.55,1172.09 1934.59,1179.78 1904.51,1199.5 1889.41,1217.37 1856.9,1230.12 1838.28,1243.05 1819.72,1262.84 1801.63,1290.6 1794.01,1311.43 1788.49,1331.62 1783.34,1356.04 1805.15,1377.52 1814.36,1391.81 1808.16,1414.65 1799.39,1440.9 1780.1,1445.72 1757.45,1442.99 1735.23,1425.79 1722.41,1399.27 1708.1,1377.62 1684.44,1355.03 1646.04,1329.38 1614.59,1321.22 1579.73,1319.43 1542.6,1327.48 1501.5,1336.57 1473.84,1338 1437.7,1327.02 1413.12,1314.15 1392.77,1289.78 1390.3,1255.95 1385.9,1216.1 1365.38,1189.53 1343.32,1168.43 1348.22,1136.44 1346.94,1108.68 1338.42,1084.64 1326.62,1056.52 1307.41,1032.85 1302.36,1006.04 1308.65,972.343 1317.27,938.945 1335.85,909.897 1352.8,879.446 1365.62,847.417 1392.19,824.908 1389.21,796.97 1372.24,772.178 1341.73,749.643 1309.43,746.336 1288.52,733.599 1279.99,707.948 1276.15,675.594 1289.7,648.402 1304.21,626.375 1326.31,617.187 1357.73,605.524 1393.54,600.214 1433.78,596.181 1473.18,596.795 1502.25,589.783 1526,563.897 1543.88,541.612 1570.96,529.014 1594.12,522.84 1597.81,507.832 1585,493.92 1562.67,478.654 1536.64,466.428 1506.97,440.394 1484.88,414.789 1471.3,388.749 1455.21,367.871 1450.47,350.213 1457.08,329.295 1474.65,319.239 1492.26,328.166 1523.38,333.045 1562.96,335.93 1596.99,343.878 1636.97,349.798 1670.86,353.081 1702.06,367.749 1727.66,373.716 1754.32,368.071 1777.5,356.263 1808.23,351.341 1840.74,351.39 1872.46,346.594 1895.73,360.746 1907.24,376.13 1911.73,371.749 1921.5,355.791 1939.32,338.767 1958.01,327.38 1981.2,311.95 2000.75,304.085 1992.28,304.073 1970.48,293.089 1960.37,276.903 1948.39,246.884 1951.63,218.118 1962.1,202.107 1990.92,191.671 2024.8,194.11 2049.26,198.528 2083.4,202.78 2119.8,213.934 2142.4,236.84 2148.15,265.728 2141.91,293.171 2130.44,301.222 2132.86,317.668 2137.7,340.083 2132.89,372.329 2104.52,390.2 2084.71,423.056 2057.32,445.643 2034.21,471.857 2026.49,507.075 2000.52,514.504 1965.36,516.223 1929.6,527.728 1898.48,542.049 1881.51,569.751 1869.89,600.68 1870.22,616.66 1897.2,622.469 1925.82,635.826 1962.23,648.681 1997.63,672.921 2024.56,688.046 2063.34,693.084 2098.77,694.455 2138.29,690.405 2168.77,694.637 2194.28,694.286 2204.63,678.82 2219.74,658.912 2235.16,638.792 2232.81,613.841 2229.67,595.146 2220.38,570.824 2193.89,549.653 2171.91,531.302 2147.25,516.349 2105.23,518.016 2079.06,524.035 2054.57,541.324 2037.64,561.554 2011.54,586.609 2007.03,615.885 2012.17,647.364 2016.3,677.629 2033.28,704.145 2046.25,730.168 2059.76,762.992 2075.42,793.586 2106.48,805.441 2136.35,822.505 2163.17,851.093 2182.62,874.556 2197.68,906.512 2204.9,931.372 2202.86,942.532 2170.56,944.39 2133.2,957.484 2104.66,956.132 2089.95,963.541 2070.7,967.983 2047.72,962.758 2016.69,949.189 1987.18,941.295 1950.32,943.52 1905.05,956.665 1866.28,970.896 1828.88,970.927 1784.27,978.873 1745.39,980.053 1706.89,980.376 1675.23,974.257 1640.45,979.249 1607.86,974.214 1573.93,966.922 1540.14,935.699 1511.37,921.162 1473.06,912.969 1439.52,897.592 1409.69,881.924 1379.68,860.769 1352.73,853.556 1325.48,867.212 1300.97,883.287 1272.58,898.631 1234.56,916.991 1196.4,925.672 1167.33,920.312 1138.66,897.455 1119.81,873.088 1101.71,842.774 1077.63,817.315 1065.03,786.763 1061.11,758.465 1063.33,736.149 1049.81,706.413 1027.36,688.098 998.313,677.286 978.299,656.401 970.009,625.294 968.228,600.652 955.378,572.408 964.637,546.114 985.828,519.025 997.895,502.485 1010.7,495.019 1021.64,481.984 1026,465.404 1032.73,441.734 1040.35,417.805 1045.24,389.861 1057.2,355.963 1057.3,332.419 1035.98,312.93 1015.6,299.424 987.36,299.466 960.766,309.329 933.364,304.979 901.549,290.091 863.411,276.826 840.778,269.377 817.627,265.908 801.611,248.053 801.467,226.737 814.951,208.995 837.757,189.544 861.229,171.961 904.207,160.166 935.158,148.268 968.572,141.839 999.388,153.325 1027.2,160.648 1061.52,155.592 1095.96,149.737 1116.83,129.352 1132.88,109.647 1145.66,87.9763 "/>
<polyline clip-path="url(#clip711)" style="stroke:#ff0000; stroke-linecap:round; stroke-linejoin:round; stroke-width:4; stroke-opacity:1; fill:none" points="203.76,717.533 234.717,723.932 237.377,715.035 258.907,716.339 262.348,717.041 289.863,722.739 307.055,726.295 336.349,726.049 361.32,728.067 392.291,734.466 419.04,730.553 440.569,731.845 483.642,734.454 495.643,743.241 520.628,745.246 563.716,747.855 581.819,748.446 601.613,755.694 636.069,762.807 655.878,770.056 679.142,778.018 703.274,783.002 734.303,789.413 753.259,799.639 781.728,802.371 815.374,812.487 831.771,806.408 874.063,811.995 892.18,825.211 919.797,830.921 953.486,841.037 973.353,848.298 1001,854.008 1015.69,866.523 1033.86,879.752 1037.32,880.466 1070.16,880.933 1083.98,883.801 1109.05,885.819 1136.72,891.541 1161.84,906.222 1188.68,914.923 1206.84,915.526 1235.38,918.27 1271.71,919.452 1296.8,921.482 1331.43,928.644 1355.69,933.665 1380.78,935.683 1405.88,937.714 1443.07,935.929 1461.24,936.52 1490.65,936.286 1517.44,932.336 1548.53,926.134 1576.26,931.856 1603.04,927.918 1628.16,929.949 1646.2,917.889 1664.38,918.479 1681.57,909.41 1701.41,904.032 1725.68,909.053 1748.98,904.389 1769.8,908.684 1787.13,912.265 1810.6,920.264 1828.95,933.517 1851.59,944.507 1863.84,953.355 1880.55,972.602 1888.5,983.726 1895.63,997.841 1908.07,1019.39 1922.16,1034.96 1935.44,1053.53 1945.05,1058.68 1969.4,1063.73 1979.84,1065.88 1987.63,1064.32 2016.09,1054.38 2027.34,1053.53 2049.43,1026.45 2055.38,1018.18 2054.13,995.799 2058.21,980.847 2056.98,958.486 2037.76,948.211 2020.38,944.617 1997.71,933.628 1970.11,940.556 1949.28,936.262 1932.73,929.69 1915.38,926.109 1890.25,924.079 1872.25,936.151 1848.94,940.803 1836.06,947.62 1807.46,944.864 1782.33,942.845 1754.57,937.111 1736.24,923.857 1712.78,915.858 1677.13,899.023 1656.19,882.09 1635.27,865.157 1623.91,853.368 1612.55,841.566 1590.81,827.636 1577.68,809.189 1567.17,794.446 1560.97,777.439 1565.14,762.586 1583.98,747.609 1594.24,737.149 1617.49,732.522 1631.31,735.365 1660.65,735.131 1674.61,750.563 1695.38,754.845 1705.76,756.974 1733.45,762.684 1755.19,776.578 1760.47,783.949 1783.05,794.889 1802.18,805.128 1826.43,810.124 1845.4,807.737 1867.02,809.041 1891.92,798.446 1910.06,799.049 1923.93,801.904 1945.73,815.822 1960.61,828.325 1974.68,843.806 1981.81,857.86 1990.79,878.608 1999.77,899.368 2002.61,915.723 2000.36,937.332 2003.02,941.036 2009.35,958.13 2025.3,980.367 2028.16,996.758 2043.08,1009.32 2053.52,1011.49 2067.43,1014.36 2088.1,1005.98 2104.45,999.872 2113.85,992.328 2131.83,980.244 2136.94,974.989 2136.48,949.638 2121.54,937.086 2103.94,920.842 2093.32,906.05 2069.82,898.051 2041.22,895.307 2016.91,890.298 2006.5,888.145 1977.92,885.413 1960.57,881.832 1943.03,865.612 1929.15,862.757 1901.4,857.035 1889.36,860.85 1862.61,864.788 1844.27,851.559 1823.47,847.276 1804.48,849.651 1776.77,843.941 1763.72,838.108 1746.4,834.527 1720.49,835.487 1690.29,838.711 1666.17,846.329 1657.45,838.231 1657.31,825.605 1649.56,827.156 1638.34,827.993 1623.64,828.116 1616.72,826.688 1599.53,835.733 1586.64,842.526 1553.81,842.058 1538.28,845.147 1528.84,852.654 1522.03,863.865 1537.56,860.764 1556.54,858.376 1587.6,852.174 1596.9,832.041 1611.46,819.305 1615.62,804.426 1605.95,786.706 1589.36,767.57 1580.64,759.485 1569.19,735.143 1549.28,727.895 1526.99,742.158 1505.41,740.853 1474.3,734.442 1475.87,715.921 1470.54,695.997 1472.95,674.536 1477.13,659.719 1495.02,635.205 1500.04,617.448 1503.27,593.082 1484.26,582.917 1460.95,575.004 1454.06,573.589 1465.97,557.283 1490.84,546.761 1530.43,548.644 1568.11,531.403 1586.89,516.525 1604.7,492.11 1617.4,472.9 1637.93,464.643 1666.33,467.35 1690.45,472.285 1710.44,491.962 1739.81,504.219 1757.22,520.266 1766.07,540.805 1754.22,557.098 1734.65,574.942 1705.53,587.716 1671.16,593.168 1649.61,591.876 1610.69,574.499 1589.04,560.68 1580.24,540.128 1579.17,518.064 1597.94,503.198 1611.59,493.525 1638.06,477.133 1662.05,469.59 1685.07,452.497 1706.41,441.31 1724.45,441.889 1750.88,425.522 1750.74,413.056 1763.38,393.883 1775.35,390.117 1795.69,369.431 1784.39,357.801 1758.49,346.295 1774.73,340.314 1805.52,334.198 1832.23,342.751 1853.7,344.043 1881.23,349.667 1904.7,369.984 1904.06,385.379 1900.79,397.132 1875.23,410.545 1860.97,435.613 1845.89,463.646 1836.87,496.06 1840.5,509.277 1799.26,513.289 1779.71,531.12 1745.37,536.56 1714.62,555.216 1700.28,580.394 1681.51,595.297 1653.89,589.624 1631.39,578.757 1601.18,569.417 1589.87,557.726 1558.72,538.836 1556.11,535.181 1563.6,508.625 1591.04,501.783 1628.82,497.057 1652.94,502.004 1690.86,509.782 1715.98,524.29 1721.37,544.116 1737.12,566.082 1750.93,568.912 1782,575.287 1804.51,586.165 1811.42,587.581 1843.16,578.474 1867.16,570.906 1884.24,561.922 1904.96,566.168 1925.87,582.941 1920.96,600.687 1922.15,622.813 1904.6,659.891 1884.21,680.75 1861.16,697.954 1837.46,730.713 1839.44,749.947 1799.06,763.619 1775.81,768.259 1745.79,784.072 1720.04,797.633 1703.85,816.326 1686.82,837.997 1657.72,863.496 1634.43,868.147 1607.55,859.447 1583.3,854.438 1547.82,850.279 1520.97,841.579 1501.76,818.726 1488.66,800.279 1452.18,773.883 1441.71,759.152 1413.98,740.865 1392.39,739.561 1357.93,745.025 1344.11,742.17 1313.86,732.805 1311.11,703.959 1293.85,700.403 1267.14,704.329 1249.95,713.349 1222.45,732.817 1221.6,735.783 1183.67,740.533 1163.85,745.886 1137.09,737.211 1117.21,717.398 1094.75,706.482 1055.96,701.634 1025.78,692.269 1008.55,688.712 986.135,677.809 963.709,654.366 966.297,645.481 976.606,622.518 993.798,600.982 1004.09,578.056 1010.06,544.866 1016.05,524.217 999.697,505.228 982.506,501.696 971.329,490.03 975.609,475.3 1008.26,475.755 1046.92,480.579 1088.14,476.567 1114.76,472.666 1142.19,453.346 1167.85,427.454 1190.96,410.385 1221.83,404.269 1264.76,406.841 1294.01,419.061 1325.86,434.936 1355.14,447.168 1380.99,458.699 1402.57,472.482 1443.88,480.948 1465.46,494.744 1494.9,519.503 1526.97,547.943 1549.44,558.797 1571.93,569.663 1590.95,579.828 1600.35,572.37 1625.19,561.849 1655.15,546.134 1675.7,537.864 1708.24,525.816 1740.94,526.284 1778.07,537.015 1803.37,564.064 1806.16,580.246 1803.2,617.152 1782.95,650.551 1784.1,672.702 1774.19,708.291 1775.49,743.068 1793.12,771.828 1826.27,797.51 1864.2,792.748 1878.06,795.603 1916.18,803.442 1935.52,826.294 1964.47,854.291 1984.86,886.84 1994.85,917.273 1997.71,933.628 2012.22,920.854 2054.71,926.466 2079.03,931.475 2089.67,946.291 2092.33,949.995 2094.18,956.69 2099.72,976.773 2102.38,980.49 2119.78,984.071 2137.96,984.674 2169.86,975.457 2195.25,990.175 2203.26,1001.31 2218.47,1026.58 2216.03,1035.56 2220.09,1020.58 2225.76,999.626 2222.59,970.559 2210.88,946.045 2194.88,923.832 2185.84,903.06 2187.23,884.441 2153.88,858.684 2151.58,826.75 2157.25,805.915 2174.37,796.87 2195.99,798.187 2222.94,806.863 2237.88,819.366 2250.38,840.803 2280.28,865.834 2290.15,883.604 2278.62,912.72 2258.26,933.739 2242.17,952.506 2209.49,964.701 2193.39,983.48 2164.18,996.402 2135.17,1022.02 2119.04,1040.83 2109.03,1064.09 2087.76,1088.19 2070.77,1110.04 2044.15,1126.74 2019.16,1137.43 1984.71,1155.69 1961.54,1173.13 1933.85,1180.11 1902.02,1202.12 1890.92,1215.73 1853.76,1230.3 1839.16,1243.2 1818.57,1264.42 1798.96,1295.42 1794.81,1310.5 1788.98,1331.64 1781.49,1358.84 1808.76,1380.5 1813.26,1391.03 1805.77,1418.27 1798.27,1445.54 1779.96,1444.92 1754.64,1442.87 1730.86,1421.9 1720.09,1394.04 1706.8,1375.28 1680.4,1350.61 1636.59,1322.32 1614.81,1320.99 1578.26,1319.78 1539.18,1327.62 1495.76,1337.77 1477.48,1337.16 1436.49,1325.44 1413.79,1314.32 1391.87,1287.4 1390.75,1252.07 1384.38,1209.31 1364.27,1189.21 1344.17,1169.12 1350.04,1135.35 1346.41,1109.17 1338.46,1085.3 1325.26,1054.01 1306.07,1031.01 1302.45,1004.91 1309.18,968.307 1318.5,935.449 1337.36,907.761 1353.59,876.392 1366.35,844.335 1393.85,824.805 1386.76,798.15 1371.91,773.058 1338.96,747.4 1309.64,747.646 1291.45,734.466 1280.95,707.171 1276.46,671.717 1290.97,646.49 1303.77,627.194 1324.39,618.9 1361.33,604.575 1399.17,599.838 1440.46,595.813 1476.63,596.995 1500.66,589.414 1527.09,560.458 1543.27,541.913 1572.39,529.164 1592.12,523.847 1596.27,509.092 1582.36,493.771 1558.13,476.334 1532.25,464.79 1501.05,433.471 1481.96,410.89 1470.61,386.794 1454.16,367.88 1451.45,351.796 1458.12,328.316 1475.19,319.406 1494.15,329.485 1529.34,333.583 1572.24,336.143 1602.36,345.409 1644.45,350.91 1672.79,353.605 1704.72,369.455 1725.36,373.676 1752.75,366.859 1777.5,356.398 1811.76,350.984 1844.36,351.439 1875.16,345.323 1895.99,361.998 1906.51,376.556 1911.58,371.387 1924.17,352.239 1943.64,334.506 1960.67,325.584 1987,309.266 2003.19,303.273 1992.06,304.097 1963.53,288.986 1957.27,272.237 1944.76,238.752 1952.08,212.417 1962.19,202.129 1994.55,190.192 2029.71,194.266 2050.33,198.474 2088.95,203.249 2125.15,216.798 2144.4,239.257 2147.49,267.721 2140.25,294.08 2131.76,298.547 2133.81,317.548 2137.7,343.132 2131.47,379.078 2099.06,391.077 2080.85,430.85 2054.49,447.217 2032.57,473.848 2026.28,509.942 2003.94,511.591 1962.72,515.615 1925.95,529.902 1896.88,542.663 1881.8,570.783 1869.32,602.594 1870.31,612.168 1897.14,620.807 1929.25,636.78 1969.11,651.228 2002.28,676.825 2024.88,687.728 2067.23,693.29 2100.01,693.758 2141.35,689.721 2165.58,694.705 2191.45,693.745 2202.41,680.344 2219.25,658.771 2236.07,637.199 2232.14,611.393 2229.23,595.186 2218.37,567.989 2187.83,546.134 2170.32,530.087 2145.11,515.565 2096.97,518.174 2080.72,524.204 2053.51,543.574 2037.47,562.119 2007.79,590.374 2007.39,618.42 2013.07,650.859 2016.12,679.667 2034.66,705.399 2046.27,729.728 2061.56,767.397 2075.86,795.455 2106.26,804.857 2137.7,823.895 2165.93,854.869 2182.7,874.067 2198.92,908.905 2204.49,928.964 2202.06,937.923 2167.53,943.424 2126.28,960.16 2105.42,955.853 2092.55,962.671 2069.24,967.335 2044.92,962.314 2009.15,945.454 1981.36,939.72 1943.35,944.507 1895.08,959.803 1862.36,971.999 1825.97,970.805 1779.34,980.133 1746.43,979.653 1705.74,980.736 1677.97,975.001 1639.93,979.776 1608.69,973.328 1573.99,966.153 1532.99,929.235 1513.02,921.95 1471.44,913.36 1439.32,897.251 1410.68,881.869 1376.82,859.102 1356.04,854.82 1326.74,867.692 1300.05,884.256 1269.88,900.131 1227.61,919.821 1193.04,925.309 1168.81,920.301 1135.87,894.532 1120.24,872.356 1100.29,839.831 1074.32,815.551 1064.76,785.217 1061.25,759.312 1063.79,737.814 1048.21,703.172 1026.63,689.303 997.326,676.984 978.356,654.243 969.724,621.103 967.974,601.942 955.062,571.091 966.225,545.223 989.402,515.602 996.27,504.515 1009.14,497.795 1021.15,481.527 1026.27,463.855 1033.96,437.372 1040.79,413.843 1045.88,383.743 1059.53,349.224 1056.93,333.14 1033.75,312.859 1015.73,299.852 986.597,300.098 958.33,309.832 930.916,304.221 895.795,287.706 856.409,273.431 842.716,270.625 818.743,265.715 802.506,246.874 801.696,225.006 817.977,206.645 841.95,186.771 865.055,169.838 915.503,158.492 936.873,147.404 971.054,142.014 1000.13,154.148 1027.5,159.735 1065.11,155.046 1099.29,149.668 1116.32,128.428 1132.5,110.116 1146.09,88.2116 "/>
<path clip-path="url(#clip710)" d="M214.252 1438.47 L760.776 1438.47 L760.776 1282.95 L214.252 1282.95  Z" fill="#ffffff" fill-rule="evenodd" fill-opacity="1"/>
<polyline clip-path="url(#clip710)" style="stroke:#000000; stroke-linecap:round; stroke-linejoin:round; stroke-width:4; stroke-opacity:1; fill:none" points="214.252,1438.47 760.776,1438.47 760.776,1282.95 214.252,1282.95 214.252,1438.47 "/>
<polyline clip-path="url(#clip710)" style="stroke:#0000ff; stroke-linecap:round; stroke-linejoin:round; stroke-width:4; stroke-opacity:1; fill:none" points="238.832,1334.79 386.315,1334.79 "/>
<path clip-path="url(#clip710)" d="M434.924 1338.05 L434.924 1340.13 L415.34 1340.13 Q415.618 1344.53 417.979 1346.84 Q420.363 1349.13 424.6 1349.13 Q427.053 1349.13 429.345 1348.53 Q431.66 1347.93 433.928 1346.73 L433.928 1350.75 Q431.637 1351.73 429.229 1352.24 Q426.822 1352.75 424.345 1352.75 Q418.141 1352.75 414.507 1349.13 Q410.896 1345.52 410.896 1339.37 Q410.896 1333 414.322 1329.27 Q417.771 1325.52 423.604 1325.52 Q428.836 1325.52 431.868 1328.9 Q434.924 1332.26 434.924 1338.05 M430.664 1336.8 Q430.618 1333.3 428.697 1331.22 Q426.799 1329.13 423.65 1329.13 Q420.086 1329.13 417.933 1331.15 Q415.803 1333.16 415.479 1336.82 L430.664 1336.8 Z" fill="#000000" fill-rule="nonzero" fill-opacity="1" /><path clip-path="url(#clip710)" d="M458.442 1326.91 L458.442 1330.94 Q456.636 1330.01 454.692 1329.55 Q452.748 1329.09 450.664 1329.09 Q447.493 1329.09 445.896 1330.06 Q444.322 1331.03 444.322 1332.98 Q444.322 1334.46 445.456 1335.32 Q446.59 1336.15 450.016 1336.91 L451.474 1337.24 Q456.011 1338.21 457.91 1339.99 Q459.831 1341.75 459.831 1344.92 Q459.831 1348.53 456.96 1350.64 Q454.113 1352.75 449.113 1352.75 Q447.03 1352.75 444.761 1352.33 Q442.516 1351.94 440.016 1351.13 L440.016 1346.73 Q442.377 1347.95 444.669 1348.58 Q446.961 1349.18 449.206 1349.18 Q452.215 1349.18 453.836 1348.16 Q455.456 1347.12 455.456 1345.25 Q455.456 1343.51 454.275 1342.58 Q453.118 1341.66 449.16 1340.8 L447.678 1340.45 Q443.72 1339.62 441.961 1337.91 Q440.201 1336.17 440.201 1333.16 Q440.201 1329.51 442.794 1327.51 Q445.386 1325.52 450.155 1325.52 Q452.516 1325.52 454.599 1325.87 Q456.683 1326.22 458.442 1326.91 Z" fill="#000000" fill-rule="nonzero" fill-opacity="1" /><path clip-path="url(#clip710)" d="M470.826 1318.79 L470.826 1326.15 L479.599 1326.15 L479.599 1329.46 L470.826 1329.46 L470.826 1343.53 Q470.826 1346.7 471.683 1347.61 Q472.562 1348.51 475.224 1348.51 L479.599 1348.51 L479.599 1352.07 L475.224 1352.07 Q470.294 1352.07 468.419 1350.25 Q466.544 1348.39 466.544 1343.53 L466.544 1329.46 L463.419 1329.46 L463.419 1326.15 L466.544 1326.15 L466.544 1318.79 L470.826 1318.79 Z" fill="#000000" fill-rule="nonzero" fill-opacity="1" /><path clip-path="url(#clip710)" d="M485.201 1326.15 L489.46 1326.15 L489.46 1352.07 L485.201 1352.07 L485.201 1326.15 M485.201 1316.06 L489.46 1316.06 L489.46 1321.45 L485.201 1321.45 L485.201 1316.06 Z" fill="#000000" fill-rule="nonzero" fill-opacity="1" /><path clip-path="url(#clip710)" d="M518.557 1331.13 Q520.155 1328.26 522.377 1326.89 Q524.599 1325.52 527.608 1325.52 Q531.659 1325.52 533.858 1328.37 Q536.057 1331.19 536.057 1336.43 L536.057 1352.07 L531.775 1352.07 L531.775 1336.57 Q531.775 1332.84 530.455 1331.03 Q529.136 1329.23 526.428 1329.23 Q523.118 1329.23 521.196 1331.43 Q519.275 1333.63 519.275 1337.42 L519.275 1352.07 L514.993 1352.07 L514.993 1336.57 Q514.993 1332.82 513.673 1331.03 Q512.354 1329.23 509.599 1329.23 Q506.335 1329.23 504.414 1331.45 Q502.493 1333.65 502.493 1337.42 L502.493 1352.07 L498.21 1352.07 L498.21 1326.15 L502.493 1326.15 L502.493 1330.18 Q503.951 1327.79 505.988 1326.66 Q508.025 1325.52 510.826 1325.52 Q513.65 1325.52 515.618 1326.96 Q517.608 1328.39 518.557 1331.13 Z" fill="#000000" fill-rule="nonzero" fill-opacity="1" /><path clip-path="url(#clip710)" d="M556.335 1339.04 Q551.173 1339.04 549.182 1340.22 Q547.191 1341.4 547.191 1344.25 Q547.191 1346.52 548.673 1347.86 Q550.178 1349.18 552.747 1349.18 Q556.289 1349.18 558.418 1346.68 Q560.571 1344.16 560.571 1339.99 L560.571 1339.04 L556.335 1339.04 M564.83 1337.28 L564.83 1352.07 L560.571 1352.07 L560.571 1348.14 Q559.113 1350.5 556.937 1351.63 Q554.761 1352.75 551.613 1352.75 Q547.631 1352.75 545.27 1350.52 Q542.932 1348.28 542.932 1344.53 Q542.932 1340.15 545.849 1337.93 Q548.789 1335.71 554.599 1335.71 L560.571 1335.71 L560.571 1335.29 Q560.571 1332.35 558.627 1330.76 Q556.705 1329.13 553.21 1329.13 Q550.988 1329.13 548.881 1329.67 Q546.775 1330.2 544.83 1331.26 L544.83 1327.33 Q547.168 1326.43 549.367 1325.99 Q551.566 1325.52 553.65 1325.52 Q559.275 1325.52 562.053 1328.44 Q564.83 1331.36 564.83 1337.28 Z" fill="#000000" fill-rule="nonzero" fill-opacity="1" /><path clip-path="url(#clip710)" d="M577.816 1318.79 L577.816 1326.15 L586.589 1326.15 L586.589 1329.46 L577.816 1329.46 L577.816 1343.53 Q577.816 1346.7 578.673 1347.61 Q579.552 1348.51 582.214 1348.51 L586.589 1348.51 L586.589 1352.07 L582.214 1352.07 Q577.284 1352.07 575.409 1350.25 Q573.534 1348.39 573.534 1343.53 L573.534 1329.46 L570.409 1329.46 L570.409 1326.15 L573.534 1326.15 L573.534 1318.79 L577.816 1318.79 Z" fill="#000000" fill-rule="nonzero" fill-opacity="1" /><path clip-path="url(#clip710)" d="M614.367 1338.05 L614.367 1340.13 L594.784 1340.13 Q595.062 1344.53 597.423 1346.84 Q599.807 1349.13 604.043 1349.13 Q606.497 1349.13 608.788 1348.53 Q611.103 1347.93 613.372 1346.73 L613.372 1350.75 Q611.08 1351.73 608.673 1352.24 Q606.265 1352.75 603.788 1352.75 Q597.585 1352.75 593.95 1349.13 Q590.339 1345.52 590.339 1339.37 Q590.339 1333 593.765 1329.27 Q597.214 1325.52 603.048 1325.52 Q608.279 1325.52 611.312 1328.9 Q614.367 1332.26 614.367 1338.05 M610.108 1336.8 Q610.062 1333.3 608.14 1331.22 Q606.242 1329.13 603.094 1329.13 Q599.529 1329.13 597.376 1331.15 Q595.247 1333.16 594.923 1336.82 L610.108 1336.8 Z" fill="#000000" fill-rule="nonzero" fill-opacity="1" /><polyline clip-path="url(#clip710)" style="stroke:#ff0000; stroke-linecap:round; stroke-linejoin:round; stroke-width:4; stroke-opacity:1; fill:none" points="238.832,1386.63 386.315,1386.63 "/>
<path clip-path="url(#clip710)" d="M431.243 1382.97 Q432.84 1380.1 435.062 1378.73 Q437.285 1377.36 440.294 1377.36 Q444.345 1377.36 446.544 1380.21 Q448.743 1383.03 448.743 1388.27 L448.743 1403.91 L444.461 1403.91 L444.461 1388.41 Q444.461 1384.68 443.141 1382.87 Q441.822 1381.07 439.113 1381.07 Q435.803 1381.07 433.882 1383.27 Q431.961 1385.47 431.961 1389.26 L431.961 1403.91 L427.678 1403.91 L427.678 1388.41 Q427.678 1384.66 426.359 1382.87 Q425.039 1381.07 422.285 1381.07 Q419.021 1381.07 417.1 1383.29 Q415.178 1385.49 415.178 1389.26 L415.178 1403.91 L410.896 1403.91 L410.896 1377.99 L415.178 1377.99 L415.178 1382.02 Q416.637 1379.63 418.674 1378.5 Q420.711 1377.36 423.512 1377.36 Q426.336 1377.36 428.303 1378.8 Q430.294 1380.23 431.243 1382.97 Z" fill="#000000" fill-rule="nonzero" fill-opacity="1" /><path clip-path="url(#clip710)" d="M479.414 1389.89 L479.414 1391.97 L459.831 1391.97 Q460.109 1396.37 462.47 1398.68 Q464.854 1400.97 469.09 1400.97 Q471.544 1400.97 473.835 1400.37 Q476.15 1399.77 478.419 1398.57 L478.419 1402.59 Q476.127 1403.57 473.72 1404.08 Q471.312 1404.59 468.835 1404.59 Q462.632 1404.59 458.998 1400.97 Q455.386 1397.36 455.386 1391.21 Q455.386 1384.84 458.812 1381.11 Q462.261 1377.36 468.095 1377.36 Q473.326 1377.36 476.359 1380.74 Q479.414 1384.1 479.414 1389.89 M475.155 1388.64 Q475.109 1385.14 473.187 1383.06 Q471.289 1380.97 468.141 1380.97 Q464.576 1380.97 462.423 1382.99 Q460.294 1385 459.97 1388.66 L475.155 1388.64 Z" fill="#000000" fill-rule="nonzero" fill-opacity="1" /><path clip-path="url(#clip710)" d="M498.187 1390.88 Q493.025 1390.88 491.034 1392.06 Q489.044 1393.24 489.044 1396.09 Q489.044 1398.36 490.525 1399.7 Q492.03 1401.02 494.599 1401.02 Q498.141 1401.02 500.27 1398.52 Q502.423 1396 502.423 1391.83 L502.423 1390.88 L498.187 1390.88 M506.682 1389.12 L506.682 1403.91 L502.423 1403.91 L502.423 1399.98 Q500.965 1402.34 498.789 1403.47 Q496.613 1404.59 493.465 1404.59 Q489.483 1404.59 487.122 1402.36 Q484.784 1400.12 484.784 1396.37 Q484.784 1391.99 487.701 1389.77 Q490.641 1387.55 496.451 1387.55 L502.423 1387.55 L502.423 1387.13 Q502.423 1384.19 500.479 1382.6 Q498.557 1380.97 495.062 1380.97 Q492.84 1380.97 490.733 1381.51 Q488.627 1382.04 486.683 1383.1 L486.683 1379.17 Q489.021 1378.27 491.22 1377.83 Q493.419 1377.36 495.502 1377.36 Q501.127 1377.36 503.905 1380.28 Q506.682 1383.2 506.682 1389.12 Z" fill="#000000" fill-rule="nonzero" fill-opacity="1" /><path clip-path="url(#clip710)" d="M531.983 1378.75 L531.983 1382.78 Q530.178 1381.85 528.233 1381.39 Q526.289 1380.93 524.206 1380.93 Q521.034 1380.93 519.437 1381.9 Q517.863 1382.87 517.863 1384.82 Q517.863 1386.3 518.997 1387.16 Q520.131 1387.99 523.557 1388.75 L525.016 1389.08 Q529.553 1390.05 531.451 1391.83 Q533.372 1393.59 533.372 1396.76 Q533.372 1400.37 530.502 1402.48 Q527.655 1404.59 522.655 1404.59 Q520.571 1404.59 518.303 1404.17 Q516.057 1403.78 513.557 1402.97 L513.557 1398.57 Q515.919 1399.79 518.21 1400.42 Q520.502 1401.02 522.747 1401.02 Q525.756 1401.02 527.377 1400 Q528.997 1398.96 528.997 1397.09 Q528.997 1395.35 527.817 1394.42 Q526.659 1393.5 522.701 1392.64 L521.219 1392.29 Q517.261 1391.46 515.502 1389.75 Q513.743 1388.01 513.743 1385 Q513.743 1381.35 516.335 1379.35 Q518.928 1377.36 523.696 1377.36 Q526.057 1377.36 528.141 1377.71 Q530.224 1378.06 531.983 1378.75 Z" fill="#000000" fill-rule="nonzero" fill-opacity="1" /><path clip-path="url(#clip710)" d="M539.715 1393.68 L539.715 1377.99 L543.974 1377.99 L543.974 1393.52 Q543.974 1397.2 545.409 1399.05 Q546.844 1400.88 549.715 1400.88 Q553.164 1400.88 555.154 1398.68 Q557.168 1396.48 557.168 1392.69 L557.168 1377.99 L561.428 1377.99 L561.428 1403.91 L557.168 1403.91 L557.168 1399.93 Q555.617 1402.29 553.557 1403.45 Q551.52 1404.59 548.812 1404.59 Q544.344 1404.59 542.029 1401.81 Q539.715 1399.03 539.715 1393.68 M550.432 1377.36 L550.432 1377.36 Z" fill="#000000" fill-rule="nonzero" fill-opacity="1" /><path clip-path="url(#clip710)" d="M585.224 1381.97 Q584.506 1381.55 583.65 1381.37 Q582.816 1381.16 581.798 1381.16 Q578.187 1381.16 576.242 1383.52 Q574.321 1385.86 574.321 1390.26 L574.321 1403.91 L570.039 1403.91 L570.039 1377.99 L574.321 1377.99 L574.321 1382.02 Q575.664 1379.66 577.816 1378.52 Q579.969 1377.36 583.048 1377.36 Q583.488 1377.36 584.02 1377.43 Q584.552 1377.48 585.201 1377.6 L585.224 1381.97 Z" fill="#000000" fill-rule="nonzero" fill-opacity="1" /><path clip-path="url(#clip710)" d="M610.825 1389.89 L610.825 1391.97 L591.242 1391.97 Q591.52 1396.37 593.881 1398.68 Q596.265 1400.97 600.501 1400.97 Q602.955 1400.97 605.247 1400.37 Q607.562 1399.77 609.83 1398.57 L609.83 1402.59 Q607.538 1403.57 605.131 1404.08 Q602.724 1404.59 600.247 1404.59 Q594.043 1404.59 590.409 1400.97 Q586.798 1397.36 586.798 1391.21 Q586.798 1384.84 590.224 1381.11 Q593.673 1377.36 599.506 1377.36 Q604.737 1377.36 607.77 1380.74 Q610.825 1384.1 610.825 1389.89 M606.566 1388.64 Q606.52 1385.14 604.599 1383.06 Q602.7 1380.97 599.552 1380.97 Q595.988 1380.97 593.835 1382.99 Q591.705 1385 591.381 1388.66 L606.566 1388.64 Z" fill="#000000" fill-rule="nonzero" fill-opacity="1" /><path clip-path="url(#clip710)" d="M638.001 1382.97 Q639.598 1380.1 641.821 1378.73 Q644.043 1377.36 647.052 1377.36 Q651.103 1377.36 653.302 1380.21 Q655.501 1383.03 655.501 1388.27 L655.501 1403.91 L651.219 1403.91 L651.219 1388.41 Q651.219 1384.68 649.899 1382.87 Q648.58 1381.07 645.872 1381.07 Q642.561 1381.07 640.64 1383.27 Q638.719 1385.47 638.719 1389.26 L638.719 1403.91 L634.436 1403.91 L634.436 1388.41 Q634.436 1384.66 633.117 1382.87 Q631.798 1381.07 629.043 1381.07 Q625.779 1381.07 623.858 1383.29 Q621.936 1385.49 621.936 1389.26 L621.936 1403.91 L617.654 1403.91 L617.654 1377.99 L621.936 1377.99 L621.936 1382.02 Q623.395 1379.63 625.432 1378.5 Q627.469 1377.36 630.27 1377.36 Q633.094 1377.36 635.061 1378.8 Q637.052 1380.23 638.001 1382.97 Z" fill="#000000" fill-rule="nonzero" fill-opacity="1" /><path clip-path="url(#clip710)" d="M686.172 1389.89 L686.172 1391.97 L666.589 1391.97 Q666.867 1396.37 669.228 1398.68 Q671.612 1400.97 675.848 1400.97 Q678.302 1400.97 680.594 1400.37 Q682.908 1399.77 685.177 1398.57 L685.177 1402.59 Q682.885 1403.57 680.478 1404.08 Q678.07 1404.59 675.594 1404.59 Q669.39 1404.59 665.756 1400.97 Q662.145 1397.36 662.145 1391.21 Q662.145 1384.84 665.57 1381.11 Q669.02 1377.36 674.853 1377.36 Q680.084 1377.36 683.117 1380.74 Q686.172 1384.1 686.172 1389.89 M681.913 1388.64 Q681.867 1385.14 679.945 1383.06 Q678.047 1380.97 674.899 1380.97 Q671.334 1380.97 669.182 1382.99 Q667.052 1385 666.728 1388.66 L681.913 1388.64 Z" fill="#000000" fill-rule="nonzero" fill-opacity="1" /><path clip-path="url(#clip710)" d="M714.714 1388.27 L714.714 1403.91 L710.455 1403.91 L710.455 1388.41 Q710.455 1384.72 709.019 1382.9 Q707.584 1381.07 704.714 1381.07 Q701.265 1381.07 699.274 1383.27 Q697.283 1385.47 697.283 1389.26 L697.283 1403.91 L693.001 1403.91 L693.001 1377.99 L697.283 1377.99 L697.283 1382.02 Q698.811 1379.68 700.871 1378.52 Q702.955 1377.36 705.663 1377.36 Q710.13 1377.36 712.422 1380.14 Q714.714 1382.9 714.714 1388.27 Z" fill="#000000" fill-rule="nonzero" fill-opacity="1" /><path clip-path="url(#clip710)" d="M727.422 1370.63 L727.422 1377.99 L736.195 1377.99 L736.195 1381.3 L727.422 1381.3 L727.422 1395.37 Q727.422 1398.54 728.278 1399.45 Q729.158 1400.35 731.82 1400.35 L736.195 1400.35 L736.195 1403.91 L731.82 1403.91 Q726.89 1403.91 725.015 1402.09 Q723.14 1400.23 723.14 1395.37 L723.14 1381.3 L720.015 1381.3 L720.015 1377.99 L723.14 1377.99 L723.14 1370.63 L727.422 1370.63 Z" fill="#000000" fill-rule="nonzero" fill-opacity="1" /></svg>
