<?xml version="1.0" encoding="utf-8"?>
<svg xmlns="http://www.w3.org/2000/svg" xmlns:xlink="http://www.w3.org/1999/xlink" width="600" height="400" viewBox="0 0 2400 1600">
<defs>
  <clipPath id="clip400">
    <rect x="0" y="0" width="2400" height="1600"/>
  </clipPath>
</defs>
<path clip-path="url(#clip400)" d="M0 1600 L2400 1600 L2400 0 L0 0  Z" fill="#ffffff" fill-rule="evenodd" fill-opacity="1"/>
<defs>
  <clipPath id="clip401">
    <rect x="1409" y="47" width="945" height="1440"/>
  </clipPath>
</defs>
<path clip-path="url(#clip400)" d="M224.098 1486.45 L1167.84 1486.45 L1167.84 47.2441 L224.098 47.2441  Z" fill="#ffffff" fill-rule="evenodd" fill-opacity="1"/>
<defs>
  <clipPath id="clip402">
    <rect x="224" y="47" width="945" height="1440"/>
  </clipPath>
</defs>
<polyline clip-path="url(#clip402)" style="stroke:#000000; stroke-linecap:round; stroke-linejoin:round; stroke-width:2; stroke-opacity:0.1; fill:none" points="239.538,1486.45 239.538,47.2441 "/>
<polyline clip-path="url(#clip402)" style="stroke:#000000; stroke-linecap:round; stroke-linejoin:round; stroke-width:2; stroke-opacity:0.1; fill:none" points="464.935,1486.45 464.935,47.2441 "/>
<polyline clip-path="url(#clip402)" style="stroke:#000000; stroke-linecap:round; stroke-linejoin:round; stroke-width:2; stroke-opacity:0.1; fill:none" points="690.332,1486.45 690.332,47.2441 "/>
<polyline clip-path="url(#clip402)" style="stroke:#000000; stroke-linecap:round; stroke-linejoin:round; stroke-width:2; stroke-opacity:0.1; fill:none" points="915.73,1486.45 915.73,47.2441 "/>
<polyline clip-path="url(#clip402)" style="stroke:#000000; stroke-linecap:round; stroke-linejoin:round; stroke-width:2; stroke-opacity:0.1; fill:none" points="1141.13,1486.45 1141.13,47.2441 "/>
<polyline clip-path="url(#clip402)" style="stroke:#000000; stroke-linecap:round; stroke-linejoin:round; stroke-width:2; stroke-opacity:0.1; fill:none" points="224.098,1363.54 1167.84,1363.54 "/>
<polyline clip-path="url(#clip402)" style="stroke:#000000; stroke-linecap:round; stroke-linejoin:round; stroke-width:2; stroke-opacity:0.1; fill:none" points="224.098,1110.44 1167.84,1110.44 "/>
<polyline clip-path="url(#clip402)" style="stroke:#000000; stroke-linecap:round; stroke-linejoin:round; stroke-width:2; stroke-opacity:0.1; fill:none" points="224.098,857.34 1167.84,857.34 "/>
<polyline clip-path="url(#clip402)" style="stroke:#000000; stroke-linecap:round; stroke-linejoin:round; stroke-width:2; stroke-opacity:0.1; fill:none" points="224.098,604.24 1167.84,604.24 "/>
<polyline clip-path="url(#clip402)" style="stroke:#000000; stroke-linecap:round; stroke-linejoin:round; stroke-width:2; stroke-opacity:0.1; fill:none" points="224.098,351.14 1167.84,351.14 "/>
<polyline clip-path="url(#clip402)" style="stroke:#000000; stroke-linecap:round; stroke-linejoin:round; stroke-width:2; stroke-opacity:0.1; fill:none" points="224.098,98.0404 1167.84,98.0404 "/>
<polyline clip-path="url(#clip400)" style="stroke:#000000; stroke-linecap:round; stroke-linejoin:round; stroke-width:4; stroke-opacity:1; fill:none" points="224.098,1486.45 1167.84,1486.45 "/>
<polyline clip-path="url(#clip400)" style="stroke:#000000; stroke-linecap:round; stroke-linejoin:round; stroke-width:4; stroke-opacity:1; fill:none" points="239.538,1486.45 239.538,1467.55 "/>
<polyline clip-path="url(#clip400)" style="stroke:#000000; stroke-linecap:round; stroke-linejoin:round; stroke-width:4; stroke-opacity:1; fill:none" points="464.935,1486.45 464.935,1467.55 "/>
<polyline clip-path="url(#clip400)" style="stroke:#000000; stroke-linecap:round; stroke-linejoin:round; stroke-width:4; stroke-opacity:1; fill:none" points="690.332,1486.45 690.332,1467.55 "/>
<polyline clip-path="url(#clip400)" style="stroke:#000000; stroke-linecap:round; stroke-linejoin:round; stroke-width:4; stroke-opacity:1; fill:none" points="915.73,1486.45 915.73,1467.55 "/>
<polyline clip-path="url(#clip400)" style="stroke:#000000; stroke-linecap:round; stroke-linejoin:round; stroke-width:4; stroke-opacity:1; fill:none" points="1141.13,1486.45 1141.13,1467.55 "/>
<path clip-path="url(#clip400)" d="M239.538 1517.37 Q235.927 1517.37 234.098 1520.93 Q232.292 1524.47 232.292 1531.6 Q232.292 1538.71 234.098 1542.27 Q235.927 1545.82 239.538 1545.82 Q243.172 1545.82 244.977 1542.27 Q246.806 1538.71 246.806 1531.6 Q246.806 1524.47 244.977 1520.93 Q243.172 1517.37 239.538 1517.37 M239.538 1513.66 Q245.348 1513.66 248.403 1518.27 Q251.482 1522.85 251.482 1531.6 Q251.482 1540.33 248.403 1544.94 Q245.348 1549.52 239.538 1549.52 Q233.727 1549.52 230.649 1544.94 Q227.593 1540.33 227.593 1531.6 Q227.593 1522.85 230.649 1518.27 Q233.727 1513.66 239.538 1513.66 Z" fill="#000000" fill-rule="nonzero" fill-opacity="1" /><path clip-path="url(#clip400)" d="M443.708 1544.91 L460.028 1544.91 L460.028 1548.85 L438.083 1548.85 L438.083 1544.91 Q440.745 1542.16 445.329 1537.53 Q449.935 1532.88 451.116 1531.53 Q453.361 1529.01 454.241 1527.27 Q455.143 1525.51 455.143 1523.82 Q455.143 1521.07 453.199 1519.33 Q451.278 1517.6 448.176 1517.6 Q445.977 1517.6 443.523 1518.36 Q441.093 1519.13 438.315 1520.68 L438.315 1515.95 Q441.139 1514.82 443.593 1514.24 Q446.046 1513.66 448.083 1513.66 Q453.454 1513.66 456.648 1516.35 Q459.842 1519.03 459.842 1523.52 Q459.842 1525.65 459.032 1527.57 Q458.245 1529.47 456.139 1532.07 Q455.56 1532.74 452.458 1535.95 Q449.356 1539.15 443.708 1544.91 Z" fill="#000000" fill-rule="nonzero" fill-opacity="1" /><path clip-path="url(#clip400)" d="M479.842 1517.37 Q476.231 1517.37 474.403 1520.93 Q472.597 1524.47 472.597 1531.6 Q472.597 1538.71 474.403 1542.27 Q476.231 1545.82 479.842 1545.82 Q483.477 1545.82 485.282 1542.27 Q487.111 1538.71 487.111 1531.6 Q487.111 1524.47 485.282 1520.93 Q483.477 1517.37 479.842 1517.37 M479.842 1513.66 Q485.652 1513.66 488.708 1518.27 Q491.787 1522.85 491.787 1531.6 Q491.787 1540.33 488.708 1544.94 Q485.652 1549.52 479.842 1549.52 Q474.032 1549.52 470.953 1544.94 Q467.898 1540.33 467.898 1531.6 Q467.898 1522.85 470.953 1518.27 Q474.032 1513.66 479.842 1513.66 Z" fill="#000000" fill-rule="nonzero" fill-opacity="1" /><path clip-path="url(#clip400)" d="M678.504 1518.36 L666.698 1536.81 L678.504 1536.81 L678.504 1518.36 M677.277 1514.29 L683.157 1514.29 L683.157 1536.81 L688.087 1536.81 L688.087 1540.7 L683.157 1540.7 L683.157 1548.85 L678.504 1548.85 L678.504 1540.7 L662.902 1540.7 L662.902 1536.19 L677.277 1514.29 Z" fill="#000000" fill-rule="nonzero" fill-opacity="1" /><path clip-path="url(#clip400)" d="M705.818 1517.37 Q702.207 1517.37 700.379 1520.93 Q698.573 1524.47 698.573 1531.6 Q698.573 1538.71 700.379 1542.27 Q702.207 1545.82 705.818 1545.82 Q709.453 1545.82 711.258 1542.27 Q713.087 1538.71 713.087 1531.6 Q713.087 1524.47 711.258 1520.93 Q709.453 1517.37 705.818 1517.37 M705.818 1513.66 Q711.629 1513.66 714.684 1518.27 Q717.763 1522.85 717.763 1531.6 Q717.763 1540.33 714.684 1544.94 Q711.629 1549.52 705.818 1549.52 Q700.008 1549.52 696.93 1544.94 Q693.874 1540.33 693.874 1531.6 Q693.874 1522.85 696.93 1518.27 Q700.008 1513.66 705.818 1513.66 Z" fill="#000000" fill-rule="nonzero" fill-opacity="1" /><path clip-path="url(#clip400)" d="M901.135 1529.7 Q897.987 1529.7 896.135 1531.86 Q894.306 1534.01 894.306 1537.76 Q894.306 1541.49 896.135 1543.66 Q897.987 1545.82 901.135 1545.82 Q904.283 1545.82 906.112 1543.66 Q907.964 1541.49 907.964 1537.76 Q907.964 1534.01 906.112 1531.86 Q904.283 1529.7 901.135 1529.7 M910.417 1515.05 L910.417 1519.31 Q908.658 1518.48 906.853 1518.04 Q905.07 1517.6 903.311 1517.6 Q898.681 1517.6 896.228 1520.72 Q893.797 1523.85 893.45 1530.17 Q894.816 1528.15 896.876 1527.09 Q898.936 1526 901.413 1526 Q906.621 1526 909.63 1529.17 Q912.663 1532.32 912.663 1537.76 Q912.663 1543.08 909.515 1546.3 Q906.366 1549.52 901.135 1549.52 Q895.14 1549.52 891.968 1544.94 Q888.797 1540.33 888.797 1531.6 Q888.797 1523.41 892.686 1518.55 Q896.575 1513.66 903.126 1513.66 Q904.885 1513.66 906.667 1514.01 Q908.473 1514.36 910.417 1515.05 Z" fill="#000000" fill-rule="nonzero" fill-opacity="1" /><path clip-path="url(#clip400)" d="M930.718 1517.37 Q927.107 1517.37 925.278 1520.93 Q923.473 1524.47 923.473 1531.6 Q923.473 1538.71 925.278 1542.27 Q927.107 1545.82 930.718 1545.82 Q934.352 1545.82 936.158 1542.27 Q937.987 1538.71 937.987 1531.6 Q937.987 1524.47 936.158 1520.93 Q934.352 1517.37 930.718 1517.37 M930.718 1513.66 Q936.528 1513.66 939.584 1518.27 Q942.663 1522.85 942.663 1531.6 Q942.663 1540.33 939.584 1544.94 Q936.528 1549.52 930.718 1549.52 Q924.908 1549.52 921.829 1544.94 Q918.774 1540.33 918.774 1531.6 Q918.774 1522.85 921.829 1518.27 Q924.908 1513.66 930.718 1513.66 Z" fill="#000000" fill-rule="nonzero" fill-opacity="1" /><path clip-path="url(#clip400)" d="M1126 1532.44 Q1122.67 1532.44 1120.75 1534.22 Q1118.85 1536 1118.85 1539.13 Q1118.85 1542.25 1120.75 1544.03 Q1122.67 1545.82 1126 1545.82 Q1129.33 1545.82 1131.25 1544.03 Q1133.18 1542.23 1133.18 1539.13 Q1133.18 1536 1131.25 1534.22 Q1129.36 1532.44 1126 1532.44 M1121.32 1530.45 Q1118.31 1529.7 1116.63 1527.64 Q1114.96 1525.58 1114.96 1522.62 Q1114.96 1518.48 1117.9 1516.07 Q1120.86 1513.66 1126 1513.66 Q1131.16 1513.66 1134.1 1516.07 Q1137.04 1518.48 1137.04 1522.62 Q1137.04 1525.58 1135.35 1527.64 Q1133.69 1529.7 1130.7 1530.45 Q1134.08 1531.23 1135.95 1533.52 Q1137.85 1535.82 1137.85 1539.13 Q1137.85 1544.15 1134.77 1546.83 Q1131.72 1549.52 1126 1549.52 Q1120.28 1549.52 1117.2 1546.83 Q1114.15 1544.15 1114.15 1539.13 Q1114.15 1535.82 1116.05 1533.52 Q1117.94 1531.23 1121.32 1530.45 M1119.61 1523.06 Q1119.61 1525.75 1121.28 1527.25 Q1122.97 1528.76 1126 1528.76 Q1129.01 1528.76 1130.7 1527.25 Q1132.41 1525.75 1132.41 1523.06 Q1132.41 1520.38 1130.7 1518.87 Q1129.01 1517.37 1126 1517.37 Q1122.97 1517.37 1121.28 1518.87 Q1119.61 1520.38 1119.61 1523.06 Z" fill="#000000" fill-rule="nonzero" fill-opacity="1" /><path clip-path="url(#clip400)" d="M1156.16 1517.37 Q1152.55 1517.37 1150.72 1520.93 Q1148.92 1524.47 1148.92 1531.6 Q1148.92 1538.71 1150.72 1542.27 Q1152.55 1545.82 1156.16 1545.82 Q1159.8 1545.82 1161.6 1542.27 Q1163.43 1538.71 1163.43 1531.6 Q1163.43 1524.47 1161.6 1520.93 Q1159.8 1517.37 1156.16 1517.37 M1156.16 1513.66 Q1161.97 1513.66 1165.03 1518.27 Q1168.11 1522.85 1168.11 1531.6 Q1168.11 1540.33 1165.03 1544.94 Q1161.97 1549.52 1156.16 1549.52 Q1150.35 1549.52 1147.27 1544.94 Q1144.22 1540.33 1144.22 1531.6 Q1144.22 1522.85 1147.27 1518.27 Q1150.35 1513.66 1156.16 1513.66 Z" fill="#000000" fill-rule="nonzero" fill-opacity="1" /><polyline clip-path="url(#clip400)" style="stroke:#000000; stroke-linecap:round; stroke-linejoin:round; stroke-width:4; stroke-opacity:1; fill:none" points="224.098,1486.45 224.098,47.2441 "/>
<polyline clip-path="url(#clip400)" style="stroke:#000000; stroke-linecap:round; stroke-linejoin:round; stroke-width:4; stroke-opacity:1; fill:none" points="224.098,1363.54 242.996,1363.54 "/>
<polyline clip-path="url(#clip400)" style="stroke:#000000; stroke-linecap:round; stroke-linejoin:round; stroke-width:4; stroke-opacity:1; fill:none" points="224.098,1110.44 242.996,1110.44 "/>
<polyline clip-path="url(#clip400)" style="stroke:#000000; stroke-linecap:round; stroke-linejoin:round; stroke-width:4; stroke-opacity:1; fill:none" points="224.098,857.34 242.996,857.34 "/>
<polyline clip-path="url(#clip400)" style="stroke:#000000; stroke-linecap:round; stroke-linejoin:round; stroke-width:4; stroke-opacity:1; fill:none" points="224.098,604.24 242.996,604.24 "/>
<polyline clip-path="url(#clip400)" style="stroke:#000000; stroke-linecap:round; stroke-linejoin:round; stroke-width:4; stroke-opacity:1; fill:none" points="224.098,351.14 242.996,351.14 "/>
<polyline clip-path="url(#clip400)" style="stroke:#000000; stroke-linecap:round; stroke-linejoin:round; stroke-width:4; stroke-opacity:1; fill:none" points="224.098,98.0404 242.996,98.0404 "/>
<path clip-path="url(#clip400)" d="M50.9921 1363.99 L80.6679 1363.99 L80.6679 1367.93 L50.9921 1367.93 L50.9921 1363.99 Z" fill="#000000" fill-rule="nonzero" fill-opacity="1" /><path clip-path="url(#clip400)" d="M100.76 1349.34 Q97.1493 1349.34 95.3206 1352.9 Q93.515 1356.44 93.515 1363.57 Q93.515 1370.68 95.3206 1374.24 Q97.1493 1377.79 100.76 1377.79 Q104.395 1377.79 106.2 1374.24 Q108.029 1370.68 108.029 1363.57 Q108.029 1356.44 106.2 1352.9 Q104.395 1349.34 100.76 1349.34 M100.76 1345.63 Q106.571 1345.63 109.626 1350.24 Q112.705 1354.82 112.705 1363.57 Q112.705 1372.3 109.626 1376.91 Q106.571 1381.49 100.76 1381.49 Q94.9502 1381.49 91.8715 1376.91 Q88.816 1372.3 88.816 1363.57 Q88.816 1354.82 91.8715 1350.24 Q94.9502 1345.63 100.76 1345.63 Z" fill="#000000" fill-rule="nonzero" fill-opacity="1" /><path clip-path="url(#clip400)" d="M120.922 1374.94 L125.807 1374.94 L125.807 1380.82 L120.922 1380.82 L120.922 1374.94 Z" fill="#000000" fill-rule="nonzero" fill-opacity="1" /><path clip-path="url(#clip400)" d="M136.038 1346.26 L154.394 1346.26 L154.394 1350.19 L140.32 1350.19 L140.32 1358.67 Q141.339 1358.32 142.357 1358.16 Q143.376 1357.97 144.394 1357.97 Q150.181 1357.97 153.561 1361.14 Q156.941 1364.31 156.941 1369.73 Q156.941 1375.31 153.468 1378.41 Q149.996 1381.49 143.677 1381.49 Q141.501 1381.49 139.232 1381.12 Q136.987 1380.75 134.58 1380.01 L134.58 1375.31 Q136.663 1376.44 138.885 1377 Q141.107 1377.56 143.584 1377.56 Q147.589 1377.56 149.927 1375.45 Q152.265 1373.34 152.265 1369.73 Q152.265 1366.12 149.927 1364.01 Q147.589 1361.91 143.584 1361.91 Q141.709 1361.91 139.834 1362.32 Q137.982 1362.74 136.038 1363.62 L136.038 1346.26 Z" fill="#000000" fill-rule="nonzero" fill-opacity="1" /><path clip-path="url(#clip400)" d="M176.153 1349.34 Q172.542 1349.34 170.714 1352.9 Q168.908 1356.44 168.908 1363.57 Q168.908 1370.68 170.714 1374.24 Q172.542 1377.79 176.153 1377.79 Q179.788 1377.79 181.593 1374.24 Q183.422 1370.68 183.422 1363.57 Q183.422 1356.44 181.593 1352.9 Q179.788 1349.34 176.153 1349.34 M176.153 1345.63 Q181.964 1345.63 185.019 1350.24 Q188.098 1354.82 188.098 1363.57 Q188.098 1372.3 185.019 1376.91 Q181.964 1381.49 176.153 1381.49 Q170.343 1381.49 167.265 1376.91 Q164.209 1372.3 164.209 1363.57 Q164.209 1354.82 167.265 1350.24 Q170.343 1345.63 176.153 1345.63 Z" fill="#000000" fill-rule="nonzero" fill-opacity="1" /><path clip-path="url(#clip400)" d="M51.9875 1110.89 L81.6633 1110.89 L81.6633 1114.83 L51.9875 1114.83 L51.9875 1110.89 Z" fill="#000000" fill-rule="nonzero" fill-opacity="1" /><path clip-path="url(#clip400)" d="M101.756 1096.24 Q98.1447 1096.24 96.316 1099.8 Q94.5104 1103.34 94.5104 1110.47 Q94.5104 1117.58 96.316 1121.15 Q98.1447 1124.69 101.756 1124.69 Q105.39 1124.69 107.196 1121.15 Q109.024 1117.58 109.024 1110.47 Q109.024 1103.34 107.196 1099.8 Q105.39 1096.24 101.756 1096.24 M101.756 1092.53 Q107.566 1092.53 110.621 1097.14 Q113.7 1101.72 113.7 1110.47 Q113.7 1119.2 110.621 1123.81 Q107.566 1128.39 101.756 1128.39 Q95.9456 1128.39 92.8669 1123.81 Q89.8114 1119.2 89.8114 1110.47 Q89.8114 1101.72 92.8669 1097.14 Q95.9456 1092.53 101.756 1092.53 Z" fill="#000000" fill-rule="nonzero" fill-opacity="1" /><path clip-path="url(#clip400)" d="M121.918 1121.84 L126.802 1121.84 L126.802 1127.72 L121.918 1127.72 L121.918 1121.84 Z" fill="#000000" fill-rule="nonzero" fill-opacity="1" /><path clip-path="url(#clip400)" d="M141.015 1123.78 L157.334 1123.78 L157.334 1127.72 L135.39 1127.72 L135.39 1123.78 Q138.052 1121.03 142.635 1116.4 Q147.242 1111.75 148.422 1110.4 Q150.668 1107.88 151.547 1106.15 Q152.45 1104.39 152.45 1102.7 Q152.45 1099.94 150.505 1098.21 Q148.584 1096.47 145.482 1096.47 Q143.283 1096.47 140.83 1097.23 Q138.399 1098 135.621 1099.55 L135.621 1094.83 Q138.445 1093.69 140.899 1093.11 Q143.353 1092.53 145.39 1092.53 Q150.76 1092.53 153.955 1095.22 Q157.149 1097.9 157.149 1102.4 Q157.149 1104.52 156.339 1106.45 Q155.552 1108.34 153.445 1110.94 Q152.867 1111.61 149.765 1114.83 Q146.663 1118.02 141.015 1123.78 Z" fill="#000000" fill-rule="nonzero" fill-opacity="1" /><path clip-path="url(#clip400)" d="M167.195 1093.16 L185.552 1093.16 L185.552 1097.09 L171.478 1097.09 L171.478 1105.57 Q172.496 1105.22 173.515 1105.06 Q174.533 1104.87 175.552 1104.87 Q181.339 1104.87 184.718 1108.04 Q188.098 1111.21 188.098 1116.63 Q188.098 1122.21 184.626 1125.31 Q181.153 1128.39 174.834 1128.39 Q172.658 1128.39 170.39 1128.02 Q168.144 1127.65 165.737 1126.91 L165.737 1122.21 Q167.82 1123.34 170.042 1123.9 Q172.265 1124.46 174.741 1124.46 Q178.746 1124.46 181.084 1122.35 Q183.422 1120.24 183.422 1116.63 Q183.422 1113.02 181.084 1110.91 Q178.746 1108.81 174.741 1108.81 Q172.866 1108.81 170.991 1109.22 Q169.14 1109.64 167.195 1110.52 L167.195 1093.16 Z" fill="#000000" fill-rule="nonzero" fill-opacity="1" /><path clip-path="url(#clip400)" d="M100.76 843.138 Q97.1493 843.138 95.3206 846.703 Q93.515 850.245 93.515 857.374 Q93.515 864.481 95.3206 868.046 Q97.1493 871.587 100.76 871.587 Q104.395 871.587 106.2 868.046 Q108.029 864.481 108.029 857.374 Q108.029 850.245 106.2 846.703 Q104.395 843.138 100.76 843.138 M100.76 839.435 Q106.571 839.435 109.626 844.041 Q112.705 848.624 112.705 857.374 Q112.705 866.101 109.626 870.708 Q106.571 875.291 100.76 875.291 Q94.9502 875.291 91.8715 870.708 Q88.816 866.101 88.816 857.374 Q88.816 848.624 91.8715 844.041 Q94.9502 839.435 100.76 839.435 Z" fill="#000000" fill-rule="nonzero" fill-opacity="1" /><path clip-path="url(#clip400)" d="M120.922 868.74 L125.807 868.74 L125.807 874.62 L120.922 874.62 L120.922 868.74 Z" fill="#000000" fill-rule="nonzero" fill-opacity="1" /><path clip-path="url(#clip400)" d="M145.992 843.138 Q142.381 843.138 140.552 846.703 Q138.746 850.245 138.746 857.374 Q138.746 864.481 140.552 868.046 Q142.381 871.587 145.992 871.587 Q149.626 871.587 151.431 868.046 Q153.26 864.481 153.26 857.374 Q153.26 850.245 151.431 846.703 Q149.626 843.138 145.992 843.138 M145.992 839.435 Q151.802 839.435 154.857 844.041 Q157.936 848.624 157.936 857.374 Q157.936 866.101 154.857 870.708 Q151.802 875.291 145.992 875.291 Q140.181 875.291 137.103 870.708 Q134.047 866.101 134.047 857.374 Q134.047 848.624 137.103 844.041 Q140.181 839.435 145.992 839.435 Z" fill="#000000" fill-rule="nonzero" fill-opacity="1" /><path clip-path="url(#clip400)" d="M176.153 843.138 Q172.542 843.138 170.714 846.703 Q168.908 850.245 168.908 857.374 Q168.908 864.481 170.714 868.046 Q172.542 871.587 176.153 871.587 Q179.788 871.587 181.593 868.046 Q183.422 864.481 183.422 857.374 Q183.422 850.245 181.593 846.703 Q179.788 843.138 176.153 843.138 M176.153 839.435 Q181.964 839.435 185.019 844.041 Q188.098 848.624 188.098 857.374 Q188.098 866.101 185.019 870.708 Q181.964 875.291 176.153 875.291 Q170.343 875.291 167.265 870.708 Q164.209 866.101 164.209 857.374 Q164.209 848.624 167.265 844.041 Q170.343 839.435 176.153 839.435 Z" fill="#000000" fill-rule="nonzero" fill-opacity="1" /><path clip-path="url(#clip400)" d="M101.756 590.039 Q98.1447 590.039 96.316 593.603 Q94.5104 597.145 94.5104 604.275 Q94.5104 611.381 96.316 614.946 Q98.1447 618.487 101.756 618.487 Q105.39 618.487 107.196 614.946 Q109.024 611.381 109.024 604.275 Q109.024 597.145 107.196 593.603 Q105.39 590.039 101.756 590.039 M101.756 586.335 Q107.566 586.335 110.621 590.941 Q113.7 595.525 113.7 604.275 Q113.7 613.001 110.621 617.608 Q107.566 622.191 101.756 622.191 Q95.9456 622.191 92.8669 617.608 Q89.8114 613.001 89.8114 604.275 Q89.8114 595.525 92.8669 590.941 Q95.9456 586.335 101.756 586.335 Z" fill="#000000" fill-rule="nonzero" fill-opacity="1" /><path clip-path="url(#clip400)" d="M121.918 615.64 L126.802 615.64 L126.802 621.52 L121.918 621.52 L121.918 615.64 Z" fill="#000000" fill-rule="nonzero" fill-opacity="1" /><path clip-path="url(#clip400)" d="M141.015 617.585 L157.334 617.585 L157.334 621.52 L135.39 621.52 L135.39 617.585 Q138.052 614.83 142.635 610.2 Q147.242 605.548 148.422 604.205 Q150.668 601.682 151.547 599.946 Q152.45 598.187 152.45 596.497 Q152.45 593.742 150.505 592.006 Q148.584 590.27 145.482 590.27 Q143.283 590.27 140.83 591.034 Q138.399 591.798 135.621 593.349 L135.621 588.627 Q138.445 587.492 140.899 586.914 Q143.353 586.335 145.39 586.335 Q150.76 586.335 153.955 589.02 Q157.149 591.705 157.149 596.196 Q157.149 598.326 156.339 600.247 Q155.552 602.145 153.445 604.738 Q152.867 605.409 149.765 608.626 Q146.663 611.821 141.015 617.585 Z" fill="#000000" fill-rule="nonzero" fill-opacity="1" /><path clip-path="url(#clip400)" d="M167.195 586.96 L185.552 586.96 L185.552 590.895 L171.478 590.895 L171.478 599.367 Q172.496 599.02 173.515 598.858 Q174.533 598.673 175.552 598.673 Q181.339 598.673 184.718 601.844 Q188.098 605.015 188.098 610.432 Q188.098 616.011 184.626 619.112 Q181.153 622.191 174.834 622.191 Q172.658 622.191 170.39 621.821 Q168.144 621.45 165.737 620.71 L165.737 616.011 Q167.82 617.145 170.042 617.7 Q172.265 618.256 174.741 618.256 Q178.746 618.256 181.084 616.15 Q183.422 614.043 183.422 610.432 Q183.422 606.821 181.084 604.714 Q178.746 602.608 174.741 602.608 Q172.866 602.608 170.991 603.025 Q169.14 603.441 167.195 604.321 L167.195 586.96 Z" fill="#000000" fill-rule="nonzero" fill-opacity="1" /><path clip-path="url(#clip400)" d="M100.76 336.939 Q97.1493 336.939 95.3206 340.504 Q93.515 344.045 93.515 351.175 Q93.515 358.281 95.3206 361.846 Q97.1493 365.388 100.76 365.388 Q104.395 365.388 106.2 361.846 Q108.029 358.281 108.029 351.175 Q108.029 344.045 106.2 340.504 Q104.395 336.939 100.76 336.939 M100.76 333.235 Q106.571 333.235 109.626 337.842 Q112.705 342.425 112.705 351.175 Q112.705 359.902 109.626 364.508 Q106.571 369.091 100.76 369.091 Q94.9502 369.091 91.8715 364.508 Q88.816 359.902 88.816 351.175 Q88.816 342.425 91.8715 337.842 Q94.9502 333.235 100.76 333.235 Z" fill="#000000" fill-rule="nonzero" fill-opacity="1" /><path clip-path="url(#clip400)" d="M120.922 362.541 L125.807 362.541 L125.807 368.42 L120.922 368.42 L120.922 362.541 Z" fill="#000000" fill-rule="nonzero" fill-opacity="1" /><path clip-path="url(#clip400)" d="M136.038 333.86 L154.394 333.86 L154.394 337.795 L140.32 337.795 L140.32 346.267 Q141.339 345.92 142.357 345.758 Q143.376 345.573 144.394 345.573 Q150.181 345.573 153.561 348.744 Q156.941 351.916 156.941 357.332 Q156.941 362.911 153.468 366.013 Q149.996 369.091 143.677 369.091 Q141.501 369.091 139.232 368.721 Q136.987 368.351 134.58 367.61 L134.58 362.911 Q136.663 364.045 138.885 364.601 Q141.107 365.156 143.584 365.156 Q147.589 365.156 149.927 363.05 Q152.265 360.943 152.265 357.332 Q152.265 353.721 149.927 351.615 Q147.589 349.508 143.584 349.508 Q141.709 349.508 139.834 349.925 Q137.982 350.342 136.038 351.221 L136.038 333.86 Z" fill="#000000" fill-rule="nonzero" fill-opacity="1" /><path clip-path="url(#clip400)" d="M176.153 336.939 Q172.542 336.939 170.714 340.504 Q168.908 344.045 168.908 351.175 Q168.908 358.281 170.714 361.846 Q172.542 365.388 176.153 365.388 Q179.788 365.388 181.593 361.846 Q183.422 358.281 183.422 351.175 Q183.422 344.045 181.593 340.504 Q179.788 336.939 176.153 336.939 M176.153 333.235 Q181.964 333.235 185.019 337.842 Q188.098 342.425 188.098 351.175 Q188.098 359.902 185.019 364.508 Q181.964 369.091 176.153 369.091 Q170.343 369.091 167.265 364.508 Q164.209 359.902 164.209 351.175 Q164.209 342.425 167.265 337.842 Q170.343 333.235 176.153 333.235 Z" fill="#000000" fill-rule="nonzero" fill-opacity="1" /><path clip-path="url(#clip400)" d="M101.756 83.8391 Q98.1447 83.8391 96.316 87.4039 Q94.5104 90.9455 94.5104 98.0751 Q94.5104 105.182 96.316 108.746 Q98.1447 112.288 101.756 112.288 Q105.39 112.288 107.196 108.746 Q109.024 105.182 109.024 98.0751 Q109.024 90.9455 107.196 87.4039 Q105.39 83.8391 101.756 83.8391 M101.756 80.1354 Q107.566 80.1354 110.621 84.7419 Q113.7 89.3252 113.7 98.0751 Q113.7 106.802 110.621 111.408 Q107.566 115.992 101.756 115.992 Q95.9456 115.992 92.8669 111.408 Q89.8114 106.802 89.8114 98.0751 Q89.8114 89.3252 92.8669 84.7419 Q95.9456 80.1354 101.756 80.1354 Z" fill="#000000" fill-rule="nonzero" fill-opacity="1" /><path clip-path="url(#clip400)" d="M121.918 109.441 L126.802 109.441 L126.802 115.32 L121.918 115.32 L121.918 109.441 Z" fill="#000000" fill-rule="nonzero" fill-opacity="1" /><path clip-path="url(#clip400)" d="M135.806 80.7604 L158.029 80.7604 L158.029 82.7511 L145.482 115.32 L140.598 115.32 L152.404 84.6956 L135.806 84.6956 L135.806 80.7604 Z" fill="#000000" fill-rule="nonzero" fill-opacity="1" /><path clip-path="url(#clip400)" d="M167.195 80.7604 L185.552 80.7604 L185.552 84.6956 L171.478 84.6956 L171.478 93.1678 Q172.496 92.8205 173.515 92.6585 Q174.533 92.4733 175.552 92.4733 Q181.339 92.4733 184.718 95.6446 Q188.098 98.8159 188.098 104.233 Q188.098 109.811 184.626 112.913 Q181.153 115.992 174.834 115.992 Q172.658 115.992 170.39 115.621 Q168.144 115.251 165.737 114.51 L165.737 109.811 Q167.82 110.945 170.042 111.501 Q172.265 112.057 174.741 112.057 Q178.746 112.057 181.084 109.95 Q183.422 107.844 183.422 104.233 Q183.422 100.621 181.084 98.5149 Q178.746 96.4085 174.741 96.4085 Q172.866 96.4085 170.991 96.8251 Q169.14 97.2418 167.195 98.1214 L167.195 80.7604 Z" fill="#000000" fill-rule="nonzero" fill-opacity="1" /><polyline clip-path="url(#clip402)" style="stroke:#009af9; stroke-linecap:round; stroke-linejoin:round; stroke-width:4; stroke-opacity:1; fill:none" points="250.807,619.444 262.077,396.053 273.347,222.888 284.617,387.578 295.887,490.489 307.157,462.153 318.427,356.411 329.697,580.763 340.966,514.422 352.236,448.602 363.506,468.656 374.776,497.103 386.046,522.38 397.316,458.228 408.586,567.248 419.856,476.186 431.125,494.393 442.395,574.13 453.665,483.972 464.935,566.258 476.205,462.537 487.475,475.469 498.745,383.176 510.014,353.398 521.284,181.79 532.554,284.486 543.824,462.17 555.094,594.607 566.364,492.215 577.634,527.375 588.904,528.174 600.173,683.047 611.443,627.821 622.713,603.164 633.983,620.966 645.253,759.263 656.523,754.534 667.793,927.354 679.063,1004.61 690.332,1264.23 701.602,1143.77 712.872,1255.21 724.142,1300.01 735.412,1325.47 746.682,1245.55 757.952,1237.34 769.222,1261.34 780.491,1107.59 791.761,998.668 803.031,1036.78 814.301,1252 825.571,1370.17 836.841,1415.57 848.111,1405.47 859.38,1445.72 870.65,1381.57 881.92,1234.74 893.19,1096.48 904.46,998.903 915.73,966.626 927,983.003 938.27,999.888 949.539,1106.59 960.809,1080.06 972.079,954.099 983.349,808.529 994.619,786.74 1005.89,694.342 1017.16,684.916 1028.43,812.372 1039.7,1012.16 1050.97,950.43 1062.24,1008.33 1073.51,976.929 1084.78,994.668 1096.05,1063.42 1107.32,1140.15 1118.59,1185.72 1129.86,960.082 1141.13,916.264 "/>
<polyline clip-path="url(#clip402)" style="stroke:#e26f46; stroke-linecap:round; stroke-linejoin:round; stroke-width:4; stroke-opacity:1; fill:none" points="250.807,499.21 262.077,265.704 273.347,87.9763 284.617,246.888 295.887,361.926 307.157,338.582 318.427,246.158 329.697,472.631 340.966,428.395 352.236,366.491 363.506,378.362 374.776,392.12 386.046,420.06 397.316,369.869 408.586,478.591 419.856,404.575 431.125,429.501 442.395,513.554 453.665,438.875 464.935,526.936 476.205,418.242 487.475,434.486 498.745,346.921 510.014,323.96 521.284,132.53 532.554,239.006 543.824,421.505 555.094,572.237 566.364,484.752 577.634,522.382 588.904,514.5 600.173,666.941 611.443,615.303 622.713,598.731 633.983,613.478 645.253,747.009 656.523,740.809 667.793,912.211 679.063,1001.55 690.332,1278.87 701.602,1156.54 712.872,1261.49 724.142,1305.95 735.412,1321.04 746.682,1224.26 757.952,1206.85 769.222,1228.38 780.491,1066.72 791.761,945.826 803.031,987.13 814.301,1199.58 825.571,1315.06 836.841,1354.99 848.111,1348.43 859.38,1395.45 870.65,1343.94 881.92,1215.13 893.19,1074.36 904.46,982.235 915.73,954.827 927,974.609 938.27,975.684 949.539,1098.68 960.809,1074.93 972.079,937.957 983.349,794.652 994.619,792.051 1005.89,693.385 1017.16,702.653 1028.43,835.44 1039.7,1036.8 1050.97,951.982 1062.24,984.733 1073.51,955.913 1084.78,990.606 1096.05,1065.3 1107.32,1151.96 1118.59,1211.18 1129.86,983.098 1141.13,949.355 "/>
<polyline clip-path="url(#clip402)" style="stroke:#3da44d; stroke-linecap:round; stroke-linejoin:round; stroke-width:4; stroke-opacity:1; fill:none" points="250.807,665.056 262.077,632.146 273.347,433.813 284.617,638.583 295.887,642.197 307.157,456.902 318.427,218.048 329.697,561.164 340.966,505.596 352.236,222.282 363.506,315.705 374.776,283.716 386.046,268.306 397.316,112.949 408.586,139.378 419.856,247.514 431.125,135.46 442.395,245.96 453.665,259.811 464.935,362.946 476.205,279.562 487.475,311.056 498.745,286.206 510.014,212.296 521.284,252.255 532.554,296.4 543.824,552.465 555.094,767.561 566.364,674.4 577.634,718.65 588.904,745.743 600.173,917.885 611.443,811.492 622.713,721.014 633.983,629.059 645.253,701.898 656.523,731.831 667.793,858.163 679.063,872.808 690.332,1104.6 701.602,965.16 712.872,1268.06 724.142,1344.23 735.412,1440.27 746.682,1381.71 757.952,1283.08 769.222,1305.42 780.491,973.737 791.761,770.302 803.031,742.619 814.301,1059.31 825.571,1168.84 836.841,1283.72 848.111,1244.23 859.38,1342.43 870.65,1215.51 881.92,1153.67 893.19,972.093 904.46,910.58 915.73,797.506 927,793.559 938.27,783.424 949.539,918.081 960.809,949.947 972.079,821.496 983.349,787.124 994.619,935.119 1005.89,782.408 1017.16,519.715 1028.43,559.082 1039.7,711.805 1050.97,703.421 1062.24,737.606 1073.51,897.511 1084.78,925.074 1096.05,985.936 1107.32,1025.37 1118.59,1064.6 1129.86,761.325 1141.13,797.544 "/>
<path clip-path="url(#clip400)" d="M680.34 302.578 L1136.38 302.578 L1136.38 95.2176 L680.34 95.2176  Z" fill="#ffffff" fill-rule="evenodd" fill-opacity="1"/>
<polyline clip-path="url(#clip400)" style="stroke:#000000; stroke-linecap:round; stroke-linejoin:round; stroke-width:4; stroke-opacity:1; fill:none" points="680.34,302.578 1136.38,302.578 1136.38,95.2176 680.34,95.2176 680.34,302.578 "/>
<polyline clip-path="url(#clip400)" style="stroke:#009af9; stroke-linecap:round; stroke-linejoin:round; stroke-width:4; stroke-opacity:1; fill:none" points="690.826,147.058 753.742,147.058 "/>
<path clip-path="url(#clip400)" d="M764.228 129.778 L768.904 129.778 L768.904 144.384 L784.413 129.778 L790.432 129.778 L773.279 145.889 L791.659 164.338 L785.501 164.338 L768.904 147.694 L768.904 164.338 L764.228 164.338 L764.228 129.778 Z" fill="#000000" fill-rule="nonzero" fill-opacity="1" /><path clip-path="url(#clip400)" d="M806.08 151.305 Q800.918 151.305 798.927 152.486 Q796.936 153.666 796.936 156.514 Q796.936 158.782 798.418 160.125 Q799.922 161.444 802.492 161.444 Q806.033 161.444 808.163 158.944 Q810.316 156.421 810.316 152.254 L810.316 151.305 L806.08 151.305 M814.575 149.546 L814.575 164.338 L810.316 164.338 L810.316 160.402 Q808.858 162.763 806.682 163.898 Q804.506 165.009 801.358 165.009 Q797.376 165.009 795.015 162.787 Q792.677 160.541 792.677 156.791 Q792.677 152.416 795.594 150.194 Q798.534 147.972 804.344 147.972 L810.316 147.972 L810.316 147.555 Q810.316 144.615 808.371 143.018 Q806.45 141.398 802.955 141.398 Q800.733 141.398 798.626 141.93 Q796.52 142.463 794.575 143.527 L794.575 139.592 Q796.913 138.69 799.112 138.25 Q801.311 137.787 803.395 137.787 Q809.02 137.787 811.797 140.703 Q814.575 143.62 814.575 149.546 Z" fill="#000000" fill-rule="nonzero" fill-opacity="1" /><path clip-path="url(#clip400)" d="M823.348 128.319 L827.607 128.319 L827.607 164.338 L823.348 164.338 L823.348 128.319 Z" fill="#000000" fill-rule="nonzero" fill-opacity="1" /><path clip-path="url(#clip400)" d="M856.705 143.389 Q858.302 140.518 860.524 139.153 Q862.746 137.787 865.755 137.787 Q869.806 137.787 872.005 140.634 Q874.204 143.458 874.204 148.689 L874.204 164.338 L869.922 164.338 L869.922 148.828 Q869.922 145.102 868.603 143.296 Q867.283 141.49 864.575 141.49 Q861.265 141.49 859.343 143.69 Q857.422 145.889 857.422 149.685 L857.422 164.338 L853.14 164.338 L853.14 148.828 Q853.14 145.078 851.82 143.296 Q850.501 141.49 847.746 141.49 Q844.482 141.49 842.561 143.713 Q840.64 145.912 840.64 149.685 L840.64 164.338 L836.357 164.338 L836.357 138.412 L840.64 138.412 L840.64 142.44 Q842.098 140.055 844.135 138.921 Q846.172 137.787 848.973 137.787 Q851.797 137.787 853.765 139.222 Q855.755 140.657 856.705 143.389 Z" fill="#000000" fill-rule="nonzero" fill-opacity="1" /><path clip-path="url(#clip400)" d="M894.482 151.305 Q889.32 151.305 887.329 152.486 Q885.339 153.666 885.339 156.514 Q885.339 158.782 886.82 160.125 Q888.325 161.444 890.894 161.444 Q894.436 161.444 896.565 158.944 Q898.718 156.421 898.718 152.254 L898.718 151.305 L894.482 151.305 M902.977 149.546 L902.977 164.338 L898.718 164.338 L898.718 160.402 Q897.26 162.763 895.084 163.898 Q892.908 165.009 889.76 165.009 Q885.778 165.009 883.417 162.787 Q881.079 160.541 881.079 156.791 Q881.079 152.416 883.996 150.194 Q886.936 147.972 892.746 147.972 L898.718 147.972 L898.718 147.555 Q898.718 144.615 896.774 143.018 Q894.852 141.398 891.357 141.398 Q889.135 141.398 887.028 141.93 Q884.922 142.463 882.978 143.527 L882.978 139.592 Q885.315 138.69 887.515 138.25 Q889.714 137.787 891.797 137.787 Q897.422 137.787 900.2 140.703 Q902.977 143.62 902.977 149.546 Z" fill="#000000" fill-rule="nonzero" fill-opacity="1" /><path clip-path="url(#clip400)" d="M933.301 148.689 L933.301 164.338 L929.042 164.338 L929.042 148.828 Q929.042 145.148 927.607 143.319 Q926.172 141.49 923.301 141.49 Q919.852 141.49 917.862 143.69 Q915.871 145.889 915.871 149.685 L915.871 164.338 L911.588 164.338 L911.588 138.412 L915.871 138.412 L915.871 142.44 Q917.399 140.102 919.459 138.944 Q921.542 137.787 924.25 137.787 Q928.718 137.787 931.01 140.565 Q933.301 143.319 933.301 148.689 Z" fill="#000000" fill-rule="nonzero" fill-opacity="1" /><path clip-path="url(#clip400)" d="M973.394 139.176 L973.394 143.203 Q971.588 142.277 969.644 141.815 Q967.699 141.352 965.616 141.352 Q962.445 141.352 960.847 142.324 Q959.273 143.296 959.273 145.24 Q959.273 146.722 960.408 147.578 Q961.542 148.412 964.968 149.176 L966.426 149.5 Q970.963 150.472 972.861 152.254 Q974.783 154.014 974.783 157.185 Q974.783 160.796 971.912 162.902 Q969.065 165.009 964.065 165.009 Q961.982 165.009 959.713 164.592 Q957.468 164.199 954.968 163.388 L954.968 158.99 Q957.329 160.217 959.621 160.842 Q961.912 161.444 964.158 161.444 Q967.167 161.444 968.787 160.426 Q970.408 159.384 970.408 157.509 Q970.408 155.773 969.227 154.847 Q968.07 153.921 964.111 153.064 L962.63 152.717 Q958.672 151.884 956.912 150.171 Q955.153 148.435 955.153 145.426 Q955.153 141.768 957.746 139.778 Q960.338 137.787 965.107 137.787 Q967.468 137.787 969.551 138.134 Q971.634 138.481 973.394 139.176 Z" fill="#000000" fill-rule="nonzero" fill-opacity="1" /><path clip-path="url(#clip400)" d="M1001.75 143.389 Q1003.35 140.518 1005.57 139.153 Q1007.79 137.787 1010.8 137.787 Q1014.85 137.787 1017.05 140.634 Q1019.25 143.458 1019.25 148.689 L1019.25 164.338 L1014.97 164.338 L1014.97 148.828 Q1014.97 145.102 1013.65 143.296 Q1012.33 141.49 1009.62 141.49 Q1006.31 141.49 1004.39 143.69 Q1002.47 145.889 1002.47 149.685 L1002.47 164.338 L998.185 164.338 L998.185 148.828 Q998.185 145.078 996.866 143.296 Q995.546 141.49 992.792 141.49 Q989.528 141.49 987.607 143.713 Q985.685 145.912 985.685 149.685 L985.685 164.338 L981.403 164.338 L981.403 138.412 L985.685 138.412 L985.685 142.44 Q987.144 140.055 989.181 138.921 Q991.218 137.787 994.019 137.787 Q996.843 137.787 998.81 139.222 Q1000.8 140.657 1001.75 143.389 Z" fill="#000000" fill-rule="nonzero" fill-opacity="1" /><path clip-path="url(#clip400)" d="M1037.79 141.398 Q1034.37 141.398 1032.37 144.083 Q1030.38 146.745 1030.38 151.398 Q1030.38 156.051 1032.35 158.736 Q1034.34 161.398 1037.79 161.398 Q1041.19 161.398 1043.18 158.713 Q1045.18 156.027 1045.18 151.398 Q1045.18 146.791 1043.18 144.106 Q1041.19 141.398 1037.79 141.398 M1037.79 137.787 Q1043.35 137.787 1046.52 141.398 Q1049.69 145.009 1049.69 151.398 Q1049.69 157.764 1046.52 161.398 Q1043.35 165.009 1037.79 165.009 Q1032.21 165.009 1029.04 161.398 Q1025.89 157.764 1025.89 151.398 Q1025.89 145.009 1029.04 141.398 Q1032.21 137.787 1037.79 137.787 Z" fill="#000000" fill-rule="nonzero" fill-opacity="1" /><path clip-path="url(#clip400)" d="M1066.8 141.398 Q1063.37 141.398 1061.38 144.083 Q1059.39 146.745 1059.39 151.398 Q1059.39 156.051 1061.36 158.736 Q1063.35 161.398 1066.8 161.398 Q1070.2 161.398 1072.19 158.713 Q1074.18 156.027 1074.18 151.398 Q1074.18 146.791 1072.19 144.106 Q1070.2 141.398 1066.8 141.398 M1066.8 137.787 Q1072.35 137.787 1075.52 141.398 Q1078.69 145.009 1078.69 151.398 Q1078.69 157.764 1075.52 161.398 Q1072.35 165.009 1066.8 165.009 Q1061.22 165.009 1058.05 161.398 Q1054.9 157.764 1054.9 151.398 Q1054.9 145.009 1058.05 141.398 Q1061.22 137.787 1066.8 137.787 Z" fill="#000000" fill-rule="nonzero" fill-opacity="1" /><path clip-path="url(#clip400)" d="M1089.97 131.051 L1089.97 138.412 L1098.74 138.412 L1098.74 141.722 L1089.97 141.722 L1089.97 155.796 Q1089.97 158.967 1090.82 159.87 Q1091.7 160.773 1094.37 160.773 L1098.74 160.773 L1098.74 164.338 L1094.37 164.338 Q1089.43 164.338 1087.56 162.509 Q1085.68 160.657 1085.68 155.796 L1085.68 141.722 L1082.56 141.722 L1082.56 138.412 L1085.68 138.412 L1085.68 131.051 L1089.97 131.051 Z" fill="#000000" fill-rule="nonzero" fill-opacity="1" /><path clip-path="url(#clip400)" d="M1125.89 148.689 L1125.89 164.338 L1121.63 164.338 L1121.63 148.828 Q1121.63 145.148 1120.2 143.319 Q1118.76 141.49 1115.89 141.49 Q1112.44 141.49 1110.45 143.69 Q1108.46 145.889 1108.46 149.685 L1108.46 164.338 L1104.18 164.338 L1104.18 128.319 L1108.46 128.319 L1108.46 142.44 Q1109.99 140.102 1112.05 138.944 Q1114.13 137.787 1116.84 137.787 Q1121.31 137.787 1123.6 140.565 Q1125.89 143.319 1125.89 148.689 Z" fill="#000000" fill-rule="nonzero" fill-opacity="1" /><polyline clip-path="url(#clip400)" style="stroke:#e26f46; stroke-linecap:round; stroke-linejoin:round; stroke-width:4; stroke-opacity:1; fill:none" points="690.826,198.898 753.742,198.898 "/>
<path clip-path="url(#clip400)" d="M768.511 212.289 L768.511 226.039 L764.228 226.039 L764.228 190.252 L768.511 190.252 L768.511 194.187 Q769.853 191.872 771.89 190.761 Q773.95 189.627 776.798 189.627 Q781.52 189.627 784.46 193.377 Q787.422 197.127 787.422 203.238 Q787.422 209.349 784.46 213.099 Q781.52 216.849 776.798 216.849 Q773.95 216.849 771.89 215.738 Q769.853 214.603 768.511 212.289 M783.001 203.238 Q783.001 198.539 781.057 195.877 Q779.135 193.192 775.756 193.192 Q772.376 193.192 770.432 195.877 Q768.511 198.539 768.511 203.238 Q768.511 207.937 770.432 210.622 Q772.376 213.284 775.756 213.284 Q779.135 213.284 781.057 210.622 Q783.001 207.937 783.001 203.238 Z" fill="#000000" fill-rule="nonzero" fill-opacity="1" /><path clip-path="url(#clip400)" d="M807.608 180.159 L807.608 183.701 L803.534 183.701 Q801.242 183.701 800.339 184.627 Q799.459 185.553 799.459 187.96 L799.459 190.252 L806.473 190.252 L806.473 193.562 L799.459 193.562 L799.459 216.178 L795.177 216.178 L795.177 193.562 L791.103 193.562 L791.103 190.252 L795.177 190.252 L795.177 188.446 Q795.177 184.118 797.191 182.15 Q799.205 180.159 803.58 180.159 L807.608 180.159 Z" fill="#000000" fill-rule="nonzero" fill-opacity="1" /><path clip-path="url(#clip400)" d="M842.769 191.016 L842.769 195.043 Q840.964 194.117 839.019 193.655 Q837.075 193.192 834.992 193.192 Q831.82 193.192 830.223 194.164 Q828.649 195.136 828.649 197.08 Q828.649 198.562 829.783 199.418 Q830.918 200.252 834.344 201.016 L835.802 201.34 Q840.339 202.312 842.237 204.094 Q844.158 205.854 844.158 209.025 Q844.158 212.636 841.288 214.742 Q838.441 216.849 833.441 216.849 Q831.357 216.849 829.089 216.432 Q826.844 216.039 824.344 215.228 L824.344 210.83 Q826.705 212.057 828.996 212.682 Q831.288 213.284 833.533 213.284 Q836.543 213.284 838.163 212.266 Q839.783 211.224 839.783 209.349 Q839.783 207.613 838.603 206.687 Q837.445 205.761 833.487 204.904 L832.006 204.557 Q828.047 203.724 826.288 202.011 Q824.529 200.275 824.529 197.266 Q824.529 193.608 827.121 191.618 Q829.714 189.627 834.482 189.627 Q836.844 189.627 838.927 189.974 Q841.01 190.321 842.769 191.016 Z" fill="#000000" fill-rule="nonzero" fill-opacity="1" /><path clip-path="url(#clip400)" d="M871.126 195.229 Q872.723 192.358 874.945 190.993 Q877.167 189.627 880.177 189.627 Q884.228 189.627 886.427 192.474 Q888.626 195.298 888.626 200.529 L888.626 216.178 L884.343 216.178 L884.343 200.668 Q884.343 196.942 883.024 195.136 Q881.704 193.33 878.996 193.33 Q875.686 193.33 873.765 195.53 Q871.843 197.729 871.843 201.525 L871.843 216.178 L867.561 216.178 L867.561 200.668 Q867.561 196.918 866.242 195.136 Q864.922 193.33 862.167 193.33 Q858.904 193.33 856.982 195.553 Q855.061 197.752 855.061 201.525 L855.061 216.178 L850.779 216.178 L850.779 190.252 L855.061 190.252 L855.061 194.28 Q856.519 191.895 858.556 190.761 Q860.593 189.627 863.394 189.627 Q866.218 189.627 868.186 191.062 Q870.177 192.497 871.126 195.229 Z" fill="#000000" fill-rule="nonzero" fill-opacity="1" /><path clip-path="url(#clip400)" d="M907.167 193.238 Q903.741 193.238 901.751 195.923 Q899.76 198.585 899.76 203.238 Q899.76 207.891 901.727 210.576 Q903.718 213.238 907.167 213.238 Q910.57 213.238 912.561 210.553 Q914.551 207.867 914.551 203.238 Q914.551 198.631 912.561 195.946 Q910.57 193.238 907.167 193.238 M907.167 189.627 Q912.723 189.627 915.894 193.238 Q919.065 196.849 919.065 203.238 Q919.065 209.604 915.894 213.238 Q912.723 216.849 907.167 216.849 Q901.589 216.849 898.417 213.238 Q895.269 209.604 895.269 203.238 Q895.269 196.849 898.417 193.238 Q901.589 189.627 907.167 189.627 Z" fill="#000000" fill-rule="nonzero" fill-opacity="1" /><path clip-path="url(#clip400)" d="M936.172 193.238 Q932.746 193.238 930.755 195.923 Q928.764 198.585 928.764 203.238 Q928.764 207.891 930.732 210.576 Q932.723 213.238 936.172 213.238 Q939.574 213.238 941.565 210.553 Q943.556 207.867 943.556 203.238 Q943.556 198.631 941.565 195.946 Q939.574 193.238 936.172 193.238 M936.172 189.627 Q941.727 189.627 944.898 193.238 Q948.07 196.849 948.07 203.238 Q948.07 209.604 944.898 213.238 Q941.727 216.849 936.172 216.849 Q930.593 216.849 927.422 213.238 Q924.274 209.604 924.274 203.238 Q924.274 196.849 927.422 193.238 Q930.593 189.627 936.172 189.627 Z" fill="#000000" fill-rule="nonzero" fill-opacity="1" /><path clip-path="url(#clip400)" d="M959.343 182.891 L959.343 190.252 L968.116 190.252 L968.116 193.562 L959.343 193.562 L959.343 207.636 Q959.343 210.807 960.199 211.71 Q961.079 212.613 963.741 212.613 L968.116 212.613 L968.116 216.178 L963.741 216.178 Q958.81 216.178 956.935 214.349 Q955.06 212.497 955.06 207.636 L955.06 193.562 L951.935 193.562 L951.935 190.252 L955.06 190.252 L955.06 182.891 L959.343 182.891 Z" fill="#000000" fill-rule="nonzero" fill-opacity="1" /><path clip-path="url(#clip400)" d="M995.269 200.529 L995.269 216.178 L991.009 216.178 L991.009 200.668 Q991.009 196.988 989.574 195.159 Q988.139 193.33 985.269 193.33 Q981.82 193.33 979.829 195.53 Q977.838 197.729 977.838 201.525 L977.838 216.178 L973.556 216.178 L973.556 180.159 L977.838 180.159 L977.838 194.28 Q979.366 191.942 981.426 190.784 Q983.509 189.627 986.218 189.627 Q990.685 189.627 992.977 192.405 Q995.269 195.159 995.269 200.529 Z" fill="#000000" fill-rule="nonzero" fill-opacity="1" /><polyline clip-path="url(#clip400)" style="stroke:#3da44d; stroke-linecap:round; stroke-linejoin:round; stroke-width:4; stroke-opacity:1; fill:none" points="690.826,250.738 753.742,250.738 "/>
<path clip-path="url(#clip400)" d="M771.636 234.731 L771.636 242.092 L780.409 242.092 L780.409 245.402 L771.636 245.402 L771.636 259.476 Q771.636 262.647 772.492 263.55 Q773.372 264.453 776.034 264.453 L780.409 264.453 L780.409 268.018 L776.034 268.018 Q771.103 268.018 769.228 266.189 Q767.353 264.337 767.353 259.476 L767.353 245.402 L764.228 245.402 L764.228 242.092 L767.353 242.092 L767.353 234.731 L771.636 234.731 Z" fill="#000000" fill-rule="nonzero" fill-opacity="1" /><path clip-path="url(#clip400)" d="M801.034 246.073 Q800.316 245.657 799.459 245.471 Q798.626 245.263 797.608 245.263 Q793.997 245.263 792.052 247.624 Q790.131 249.962 790.131 254.36 L790.131 268.018 L785.848 268.018 L785.848 242.092 L790.131 242.092 L790.131 246.12 Q791.473 243.758 793.626 242.624 Q795.779 241.467 798.858 241.467 Q799.297 241.467 799.83 241.536 Q800.362 241.583 801.01 241.698 L801.034 246.073 Z" fill="#000000" fill-rule="nonzero" fill-opacity="1" /><path clip-path="url(#clip400)" d="M805.061 257.786 L805.061 242.092 L809.321 242.092 L809.321 257.624 Q809.321 261.305 810.756 263.156 Q812.191 264.985 815.061 264.985 Q818.51 264.985 820.501 262.786 Q822.515 260.587 822.515 256.791 L822.515 242.092 L826.774 242.092 L826.774 268.018 L822.515 268.018 L822.515 264.036 Q820.964 266.397 818.904 267.555 Q816.867 268.689 814.158 268.689 Q809.691 268.689 807.376 265.911 Q805.061 263.133 805.061 257.786 M815.779 241.467 L815.779 241.467 Z" fill="#000000" fill-rule="nonzero" fill-opacity="1" /><path clip-path="url(#clip400)" d="M857.723 253.99 L857.723 256.073 L838.14 256.073 Q838.418 260.471 840.779 262.786 Q843.163 265.078 847.399 265.078 Q849.853 265.078 852.144 264.476 Q854.459 263.874 856.728 262.67 L856.728 266.698 Q854.436 267.67 852.029 268.18 Q849.621 268.689 847.144 268.689 Q840.941 268.689 837.306 265.078 Q833.695 261.467 833.695 255.309 Q833.695 248.944 837.121 245.217 Q840.57 241.467 846.404 241.467 Q851.635 241.467 854.667 244.846 Q857.723 248.203 857.723 253.99 M853.464 252.74 Q853.417 249.245 851.496 247.161 Q849.598 245.078 846.45 245.078 Q842.885 245.078 840.732 247.092 Q838.603 249.106 838.279 252.763 L853.464 252.74 Z" fill="#000000" fill-rule="nonzero" fill-opacity="1" /><path clip-path="url(#clip400)" d="M1409.02 1486.45 L2352.76 1486.45 L2352.76 47.2441 L1409.02 47.2441  Z" fill="#ffffff" fill-rule="evenodd" fill-opacity="1"/>
<polyline clip-path="url(#clip401)" style="stroke:#000000; stroke-linecap:round; stroke-linejoin:round; stroke-width:2; stroke-opacity:0.1; fill:none" points="1424.46,1486.45 1424.46,47.2441 "/>
<polyline clip-path="url(#clip401)" style="stroke:#000000; stroke-linecap:round; stroke-linejoin:round; stroke-width:2; stroke-opacity:0.1; fill:none" points="1649.85,1486.45 1649.85,47.2441 "/>
<polyline clip-path="url(#clip401)" style="stroke:#000000; stroke-linecap:round; stroke-linejoin:round; stroke-width:2; stroke-opacity:0.1; fill:none" points="1875.25,1486.45 1875.25,47.2441 "/>
<polyline clip-path="url(#clip401)" style="stroke:#000000; stroke-linecap:round; stroke-linejoin:round; stroke-width:2; stroke-opacity:0.1; fill:none" points="2100.65,1486.45 2100.65,47.2441 "/>
<polyline clip-path="url(#clip401)" style="stroke:#000000; stroke-linecap:round; stroke-linejoin:round; stroke-width:2; stroke-opacity:0.1; fill:none" points="2326.05,1486.45 2326.05,47.2441 "/>
<polyline clip-path="url(#clip401)" style="stroke:#000000; stroke-linecap:round; stroke-linejoin:round; stroke-width:2; stroke-opacity:0.1; fill:none" points="1409.02,1471 2352.76,1471 "/>
<polyline clip-path="url(#clip401)" style="stroke:#000000; stroke-linecap:round; stroke-linejoin:round; stroke-width:2; stroke-opacity:0.1; fill:none" points="1409.02,1081.43 2352.76,1081.43 "/>
<polyline clip-path="url(#clip401)" style="stroke:#000000; stroke-linecap:round; stroke-linejoin:round; stroke-width:2; stroke-opacity:0.1; fill:none" points="1409.02,691.859 2352.76,691.859 "/>
<polyline clip-path="url(#clip401)" style="stroke:#000000; stroke-linecap:round; stroke-linejoin:round; stroke-width:2; stroke-opacity:0.1; fill:none" points="1409.02,302.29 2352.76,302.29 "/>
<polyline clip-path="url(#clip400)" style="stroke:#000000; stroke-linecap:round; stroke-linejoin:round; stroke-width:4; stroke-opacity:1; fill:none" points="1409.02,1486.45 2352.76,1486.45 "/>
<polyline clip-path="url(#clip400)" style="stroke:#000000; stroke-linecap:round; stroke-linejoin:round; stroke-width:4; stroke-opacity:1; fill:none" points="1424.46,1486.45 1424.46,1467.55 "/>
<polyline clip-path="url(#clip400)" style="stroke:#000000; stroke-linecap:round; stroke-linejoin:round; stroke-width:4; stroke-opacity:1; fill:none" points="1649.85,1486.45 1649.85,1467.55 "/>
<polyline clip-path="url(#clip400)" style="stroke:#000000; stroke-linecap:round; stroke-linejoin:round; stroke-width:4; stroke-opacity:1; fill:none" points="1875.25,1486.45 1875.25,1467.55 "/>
<polyline clip-path="url(#clip400)" style="stroke:#000000; stroke-linecap:round; stroke-linejoin:round; stroke-width:4; stroke-opacity:1; fill:none" points="2100.65,1486.45 2100.65,1467.55 "/>
<polyline clip-path="url(#clip400)" style="stroke:#000000; stroke-linecap:round; stroke-linejoin:round; stroke-width:4; stroke-opacity:1; fill:none" points="2326.05,1486.45 2326.05,1467.55 "/>
<path clip-path="url(#clip400)" d="M1424.46 1517.37 Q1420.85 1517.37 1419.02 1520.93 Q1417.21 1524.47 1417.21 1531.6 Q1417.21 1538.71 1419.02 1542.27 Q1420.85 1545.82 1424.46 1545.82 Q1428.09 1545.82 1429.9 1542.27 Q1431.73 1538.71 1431.73 1531.6 Q1431.73 1524.47 1429.9 1520.93 Q1428.09 1517.37 1424.46 1517.37 M1424.46 1513.66 Q1430.27 1513.66 1433.32 1518.27 Q1436.4 1522.85 1436.4 1531.6 Q1436.4 1540.33 1433.32 1544.94 Q1430.27 1549.52 1424.46 1549.52 Q1418.65 1549.52 1415.57 1544.94 Q1412.51 1540.33 1412.51 1531.6 Q1412.51 1522.85 1415.57 1518.27 Q1418.65 1513.66 1424.46 1513.66 Z" fill="#000000" fill-rule="nonzero" fill-opacity="1" /><path clip-path="url(#clip400)" d="M1628.63 1544.91 L1644.95 1544.91 L1644.95 1548.85 L1623 1548.85 L1623 1544.91 Q1625.66 1542.16 1630.25 1537.53 Q1634.85 1532.88 1636.03 1531.53 Q1638.28 1529.01 1639.16 1527.27 Q1640.06 1525.51 1640.06 1523.82 Q1640.06 1521.07 1638.12 1519.33 Q1636.2 1517.6 1633.09 1517.6 Q1630.9 1517.6 1628.44 1518.36 Q1626.01 1519.13 1623.23 1520.68 L1623.23 1515.95 Q1626.06 1514.82 1628.51 1514.24 Q1630.97 1513.66 1633 1513.66 Q1638.37 1513.66 1641.57 1516.35 Q1644.76 1519.03 1644.76 1523.52 Q1644.76 1525.65 1643.95 1527.57 Q1643.16 1529.47 1641.06 1532.07 Q1640.48 1532.74 1637.38 1535.95 Q1634.28 1539.15 1628.63 1544.91 Z" fill="#000000" fill-rule="nonzero" fill-opacity="1" /><path clip-path="url(#clip400)" d="M1664.76 1517.37 Q1661.15 1517.37 1659.32 1520.93 Q1657.52 1524.47 1657.52 1531.6 Q1657.52 1538.71 1659.32 1542.27 Q1661.15 1545.82 1664.76 1545.82 Q1668.4 1545.82 1670.2 1542.27 Q1672.03 1538.71 1672.03 1531.6 Q1672.03 1524.47 1670.2 1520.93 Q1668.4 1517.37 1664.76 1517.37 M1664.76 1513.66 Q1670.57 1513.66 1673.63 1518.27 Q1676.71 1522.85 1676.71 1531.6 Q1676.71 1540.33 1673.63 1544.94 Q1670.57 1549.52 1664.76 1549.52 Q1658.95 1549.52 1655.87 1544.94 Q1652.82 1540.33 1652.82 1531.6 Q1652.82 1522.85 1655.87 1518.27 Q1658.95 1513.66 1664.76 1513.66 Z" fill="#000000" fill-rule="nonzero" fill-opacity="1" /><path clip-path="url(#clip400)" d="M1863.42 1518.36 L1851.62 1536.81 L1863.42 1536.81 L1863.42 1518.36 M1862.2 1514.29 L1868.08 1514.29 L1868.08 1536.81 L1873.01 1536.81 L1873.01 1540.7 L1868.08 1540.7 L1868.08 1548.85 L1863.42 1548.85 L1863.42 1540.7 L1847.82 1540.7 L1847.82 1536.19 L1862.2 1514.29 Z" fill="#000000" fill-rule="nonzero" fill-opacity="1" /><path clip-path="url(#clip400)" d="M1890.74 1517.37 Q1887.13 1517.37 1885.3 1520.93 Q1883.49 1524.47 1883.49 1531.6 Q1883.49 1538.71 1885.3 1542.27 Q1887.13 1545.82 1890.74 1545.82 Q1894.37 1545.82 1896.18 1542.27 Q1898.01 1538.71 1898.01 1531.6 Q1898.01 1524.47 1896.18 1520.93 Q1894.37 1517.37 1890.74 1517.37 M1890.74 1513.66 Q1896.55 1513.66 1899.6 1518.27 Q1902.68 1522.85 1902.68 1531.6 Q1902.68 1540.33 1899.6 1544.94 Q1896.55 1549.52 1890.74 1549.52 Q1884.93 1549.52 1881.85 1544.94 Q1878.79 1540.33 1878.79 1531.6 Q1878.79 1522.85 1881.85 1518.27 Q1884.93 1513.66 1890.74 1513.66 Z" fill="#000000" fill-rule="nonzero" fill-opacity="1" /><path clip-path="url(#clip400)" d="M2086.05 1529.7 Q2082.91 1529.7 2081.05 1531.86 Q2079.23 1534.01 2079.23 1537.76 Q2079.23 1541.49 2081.05 1543.66 Q2082.91 1545.82 2086.05 1545.82 Q2089.2 1545.82 2091.03 1543.66 Q2092.88 1541.49 2092.88 1537.76 Q2092.88 1534.01 2091.03 1531.86 Q2089.2 1529.7 2086.05 1529.7 M2095.34 1515.05 L2095.34 1519.31 Q2093.58 1518.48 2091.77 1518.04 Q2089.99 1517.6 2088.23 1517.6 Q2083.6 1517.6 2081.15 1520.72 Q2078.72 1523.85 2078.37 1530.17 Q2079.73 1528.15 2081.79 1527.09 Q2083.86 1526 2086.33 1526 Q2091.54 1526 2094.55 1529.17 Q2097.58 1532.32 2097.58 1537.76 Q2097.58 1543.08 2094.43 1546.3 Q2091.29 1549.52 2086.05 1549.52 Q2080.06 1549.52 2076.89 1544.94 Q2073.72 1540.33 2073.72 1531.6 Q2073.72 1523.41 2077.61 1518.55 Q2081.49 1513.66 2088.04 1513.66 Q2089.8 1513.66 2091.59 1514.01 Q2093.39 1514.36 2095.34 1515.05 Z" fill="#000000" fill-rule="nonzero" fill-opacity="1" /><path clip-path="url(#clip400)" d="M2115.64 1517.37 Q2112.03 1517.37 2110.2 1520.93 Q2108.39 1524.47 2108.39 1531.6 Q2108.39 1538.71 2110.2 1542.27 Q2112.03 1545.82 2115.64 1545.82 Q2119.27 1545.82 2121.08 1542.27 Q2122.91 1538.71 2122.91 1531.6 Q2122.91 1524.47 2121.08 1520.93 Q2119.27 1517.37 2115.64 1517.37 M2115.64 1513.66 Q2121.45 1513.66 2124.5 1518.27 Q2127.58 1522.85 2127.58 1531.6 Q2127.58 1540.33 2124.5 1544.94 Q2121.45 1549.52 2115.64 1549.52 Q2109.83 1549.52 2106.75 1544.94 Q2103.69 1540.33 2103.69 1531.6 Q2103.69 1522.85 2106.75 1518.27 Q2109.83 1513.66 2115.64 1513.66 Z" fill="#000000" fill-rule="nonzero" fill-opacity="1" /><path clip-path="url(#clip400)" d="M2310.92 1532.44 Q2307.59 1532.44 2305.66 1534.22 Q2303.77 1536 2303.77 1539.13 Q2303.77 1542.25 2305.66 1544.03 Q2307.59 1545.82 2310.92 1545.82 Q2314.25 1545.82 2316.17 1544.03 Q2318.09 1542.23 2318.09 1539.13 Q2318.09 1536 2316.17 1534.22 Q2314.28 1532.44 2310.92 1532.44 M2306.24 1530.45 Q2303.23 1529.7 2301.54 1527.64 Q2299.88 1525.58 2299.88 1522.62 Q2299.88 1518.48 2302.82 1516.07 Q2305.78 1513.66 2310.92 1513.66 Q2316.08 1513.66 2319.02 1516.07 Q2321.96 1518.48 2321.96 1522.62 Q2321.96 1525.58 2320.27 1527.64 Q2318.6 1529.7 2315.62 1530.45 Q2319 1531.23 2320.87 1533.52 Q2322.77 1535.82 2322.77 1539.13 Q2322.77 1544.15 2319.69 1546.83 Q2316.64 1549.52 2310.92 1549.52 Q2305.2 1549.52 2302.12 1546.83 Q2299.07 1544.15 2299.07 1539.13 Q2299.07 1535.82 2300.97 1533.52 Q2302.86 1531.23 2306.24 1530.45 M2304.53 1523.06 Q2304.53 1525.75 2306.2 1527.25 Q2307.89 1528.76 2310.92 1528.76 Q2313.93 1528.76 2315.62 1527.25 Q2317.33 1525.75 2317.33 1523.06 Q2317.33 1520.38 2315.62 1518.87 Q2313.93 1517.37 2310.92 1517.37 Q2307.89 1517.37 2306.2 1518.87 Q2304.53 1520.38 2304.53 1523.06 Z" fill="#000000" fill-rule="nonzero" fill-opacity="1" /><path clip-path="url(#clip400)" d="M2341.08 1517.37 Q2337.47 1517.37 2335.64 1520.93 Q2333.84 1524.47 2333.84 1531.6 Q2333.84 1538.71 2335.64 1542.27 Q2337.47 1545.82 2341.08 1545.82 Q2344.72 1545.82 2346.52 1542.27 Q2348.35 1538.71 2348.35 1531.6 Q2348.35 1524.47 2346.52 1520.93 Q2344.72 1517.37 2341.08 1517.37 M2341.08 1513.66 Q2346.89 1513.66 2349.95 1518.27 Q2353.03 1522.85 2353.03 1531.6 Q2353.03 1540.33 2349.95 1544.94 Q2346.89 1549.52 2341.08 1549.52 Q2335.27 1549.52 2332.19 1544.94 Q2329.14 1540.33 2329.14 1531.6 Q2329.14 1522.85 2332.19 1518.27 Q2335.27 1513.66 2341.08 1513.66 Z" fill="#000000" fill-rule="nonzero" fill-opacity="1" /><polyline clip-path="url(#clip400)" style="stroke:#000000; stroke-linecap:round; stroke-linejoin:round; stroke-width:4; stroke-opacity:1; fill:none" points="1409.02,1486.45 1409.02,47.2441 "/>
<polyline clip-path="url(#clip400)" style="stroke:#000000; stroke-linecap:round; stroke-linejoin:round; stroke-width:4; stroke-opacity:1; fill:none" points="1409.02,1471 1427.91,1471 "/>
<polyline clip-path="url(#clip400)" style="stroke:#000000; stroke-linecap:round; stroke-linejoin:round; stroke-width:4; stroke-opacity:1; fill:none" points="1409.02,1081.43 1427.91,1081.43 "/>
<polyline clip-path="url(#clip400)" style="stroke:#000000; stroke-linecap:round; stroke-linejoin:round; stroke-width:4; stroke-opacity:1; fill:none" points="1409.02,691.859 1427.91,691.859 "/>
<polyline clip-path="url(#clip400)" style="stroke:#000000; stroke-linecap:round; stroke-linejoin:round; stroke-width:4; stroke-opacity:1; fill:none" points="1409.02,302.29 1427.91,302.29 "/>
<path clip-path="url(#clip400)" d="M1266.07 1471.45 L1295.75 1471.45 L1295.75 1475.38 L1266.07 1475.38 L1266.07 1471.45 Z" fill="#000000" fill-rule="nonzero" fill-opacity="1" /><path clip-path="url(#clip400)" d="M1306.65 1484.34 L1314.29 1484.34 L1314.29 1457.98 L1305.98 1459.64 L1305.98 1455.38 L1314.24 1453.72 L1318.92 1453.72 L1318.92 1484.34 L1326.56 1484.34 L1326.56 1488.28 L1306.65 1488.28 L1306.65 1484.34 Z" fill="#000000" fill-rule="nonzero" fill-opacity="1" /><path clip-path="url(#clip400)" d="M1336 1482.4 L1340.89 1482.4 L1340.89 1488.28 L1336 1488.28 L1336 1482.4 Z" fill="#000000" fill-rule="nonzero" fill-opacity="1" /><path clip-path="url(#clip400)" d="M1361.07 1456.8 Q1357.46 1456.8 1355.63 1460.36 Q1353.83 1463.9 1353.83 1471.03 Q1353.83 1478.14 1355.63 1481.7 Q1357.46 1485.24 1361.07 1485.24 Q1364.71 1485.24 1366.51 1481.7 Q1368.34 1478.14 1368.34 1471.03 Q1368.34 1463.9 1366.51 1460.36 Q1364.71 1456.8 1361.07 1456.8 M1361.07 1453.09 Q1366.88 1453.09 1369.94 1457.7 Q1373.02 1462.28 1373.02 1471.03 Q1373.02 1479.76 1369.94 1484.36 Q1366.88 1488.95 1361.07 1488.95 Q1355.26 1488.95 1352.18 1484.36 Q1349.13 1479.76 1349.13 1471.03 Q1349.13 1462.28 1352.18 1457.7 Q1355.26 1453.09 1361.07 1453.09 Z" fill="#000000" fill-rule="nonzero" fill-opacity="1" /><path clip-path="url(#clip400)" d="M1267.07 1081.88 L1296.74 1081.88 L1296.74 1085.81 L1267.07 1085.81 L1267.07 1081.88 Z" fill="#000000" fill-rule="nonzero" fill-opacity="1" /><path clip-path="url(#clip400)" d="M1316.84 1067.23 Q1313.23 1067.23 1311.4 1070.79 Q1309.59 1074.33 1309.59 1081.46 Q1309.59 1088.57 1311.4 1092.13 Q1313.23 1095.68 1316.84 1095.68 Q1320.47 1095.68 1322.28 1092.13 Q1324.11 1088.57 1324.11 1081.46 Q1324.11 1074.33 1322.28 1070.79 Q1320.47 1067.23 1316.84 1067.23 M1316.84 1063.52 Q1322.65 1063.52 1325.7 1068.13 Q1328.78 1072.71 1328.78 1081.46 Q1328.78 1090.19 1325.7 1094.8 Q1322.65 1099.38 1316.84 1099.38 Q1311.03 1099.38 1307.95 1094.8 Q1304.89 1090.19 1304.89 1081.46 Q1304.89 1072.71 1307.95 1068.13 Q1311.03 1063.52 1316.84 1063.52 Z" fill="#000000" fill-rule="nonzero" fill-opacity="1" /><path clip-path="url(#clip400)" d="M1337 1092.83 L1341.88 1092.83 L1341.88 1098.71 L1337 1098.71 L1337 1092.83 Z" fill="#000000" fill-rule="nonzero" fill-opacity="1" /><path clip-path="url(#clip400)" d="M1352.11 1064.15 L1370.47 1064.15 L1370.47 1068.08 L1356.4 1068.08 L1356.4 1076.56 Q1357.42 1076.21 1358.43 1076.05 Q1359.45 1075.86 1360.47 1075.86 Q1366.26 1075.86 1369.64 1079.03 Q1373.02 1082.2 1373.02 1087.62 Q1373.02 1093.2 1369.54 1096.3 Q1366.07 1099.38 1359.75 1099.38 Q1357.58 1099.38 1355.31 1099.01 Q1353.06 1098.64 1350.66 1097.9 L1350.66 1093.2 Q1352.74 1094.33 1354.96 1094.89 Q1357.18 1095.44 1359.66 1095.44 Q1363.67 1095.44 1366 1093.34 Q1368.34 1091.23 1368.34 1087.62 Q1368.34 1084.01 1366 1081.9 Q1363.67 1079.8 1359.66 1079.8 Q1357.79 1079.8 1355.91 1080.21 Q1354.06 1080.63 1352.11 1081.51 L1352.11 1064.15 Z" fill="#000000" fill-rule="nonzero" fill-opacity="1" /><path clip-path="url(#clip400)" d="M1315.84 677.658 Q1312.23 677.658 1310.4 681.222 Q1308.6 684.764 1308.6 691.894 Q1308.6 699 1310.4 702.565 Q1312.23 706.106 1315.84 706.106 Q1319.48 706.106 1321.28 702.565 Q1323.11 699 1323.11 691.894 Q1323.11 684.764 1321.28 681.222 Q1319.48 677.658 1315.84 677.658 M1315.84 673.954 Q1321.65 673.954 1324.71 678.56 Q1327.79 683.144 1327.79 691.894 Q1327.79 700.62 1324.71 705.227 Q1321.65 709.81 1315.84 709.81 Q1310.03 709.81 1306.95 705.227 Q1303.9 700.62 1303.9 691.894 Q1303.9 683.144 1306.95 678.56 Q1310.03 673.954 1315.84 673.954 Z" fill="#000000" fill-rule="nonzero" fill-opacity="1" /><path clip-path="url(#clip400)" d="M1336 703.259 L1340.89 703.259 L1340.89 709.139 L1336 709.139 L1336 703.259 Z" fill="#000000" fill-rule="nonzero" fill-opacity="1" /><path clip-path="url(#clip400)" d="M1361.07 677.658 Q1357.46 677.658 1355.63 681.222 Q1353.83 684.764 1353.83 691.894 Q1353.83 699 1355.63 702.565 Q1357.46 706.106 1361.07 706.106 Q1364.71 706.106 1366.51 702.565 Q1368.34 699 1368.34 691.894 Q1368.34 684.764 1366.51 681.222 Q1364.71 677.658 1361.07 677.658 M1361.07 673.954 Q1366.88 673.954 1369.94 678.56 Q1373.02 683.144 1373.02 691.894 Q1373.02 700.62 1369.94 705.227 Q1366.88 709.81 1361.07 709.81 Q1355.26 709.81 1352.18 705.227 Q1349.13 700.62 1349.13 691.894 Q1349.13 683.144 1352.18 678.56 Q1355.26 673.954 1361.07 673.954 Z" fill="#000000" fill-rule="nonzero" fill-opacity="1" /><path clip-path="url(#clip400)" d="M1316.84 288.089 Q1313.23 288.089 1311.4 291.653 Q1309.59 295.195 1309.59 302.325 Q1309.59 309.431 1311.4 312.996 Q1313.23 316.538 1316.84 316.538 Q1320.47 316.538 1322.28 312.996 Q1324.11 309.431 1324.11 302.325 Q1324.11 295.195 1322.28 291.653 Q1320.47 288.089 1316.84 288.089 M1316.84 284.385 Q1322.65 284.385 1325.7 288.991 Q1328.78 293.575 1328.78 302.325 Q1328.78 311.051 1325.7 315.658 Q1322.65 320.241 1316.84 320.241 Q1311.03 320.241 1307.95 315.658 Q1304.89 311.051 1304.89 302.325 Q1304.89 293.575 1307.95 288.991 Q1311.03 284.385 1316.84 284.385 Z" fill="#000000" fill-rule="nonzero" fill-opacity="1" /><path clip-path="url(#clip400)" d="M1337 313.69 L1341.88 313.69 L1341.88 319.57 L1337 319.57 L1337 313.69 Z" fill="#000000" fill-rule="nonzero" fill-opacity="1" /><path clip-path="url(#clip400)" d="M1352.11 285.01 L1370.47 285.01 L1370.47 288.945 L1356.4 288.945 L1356.4 297.417 Q1357.42 297.07 1358.43 296.908 Q1359.45 296.723 1360.47 296.723 Q1366.26 296.723 1369.64 299.894 Q1373.02 303.065 1373.02 308.482 Q1373.02 314.061 1369.54 317.163 Q1366.07 320.241 1359.75 320.241 Q1357.58 320.241 1355.31 319.871 Q1353.06 319.5 1350.66 318.76 L1350.66 314.061 Q1352.74 315.195 1354.96 315.75 Q1357.18 316.306 1359.66 316.306 Q1363.67 316.306 1366 314.2 Q1368.34 312.093 1368.34 308.482 Q1368.34 304.871 1366 302.764 Q1363.67 300.658 1359.66 300.658 Q1357.79 300.658 1355.91 301.075 Q1354.06 301.491 1352.11 302.371 L1352.11 285.01 Z" fill="#000000" fill-rule="nonzero" fill-opacity="1" /><polyline clip-path="url(#clip401)" style="stroke:#009af9; stroke-linecap:round; stroke-linejoin:round; stroke-width:4; stroke-opacity:1; fill:none" points="1435.73,1423.71 1447,1358.54 1458.27,1261.17 1469.54,1138.64 1480.81,1042.83 1492.08,1016.01 1503.35,959.694 1514.62,933.466 1525.89,923.193 1537.16,957.564 1548.43,986.499 1559.7,993.984 1570.96,958.178 1582.23,951.52 1593.5,898.622 1604.77,839.59 1616.04,759.947 1627.31,741.267 1638.58,696.704 1649.85,642.989 1661.12,622.63 1672.39,579.353 1683.66,579.814 1694.93,528.5 1706.2,442.149 1717.47,419.013 1728.74,413.466 1740.01,441.947 1751.28,469.546 1762.55,451.566 1773.82,418.622 1785.09,363.366 1796.36,346.767 1807.63,339.535 1818.9,303.418 1830.17,227.273 1841.44,195.202 1852.71,177.528 1863.98,236.857 1875.25,261.806 1886.52,332.246 1897.79,452.048 1909.06,534.044 1920.33,655.286 1931.6,756.181 1942.87,802.954 1954.14,807.828 1965.41,821.862 1976.68,752.257 1987.95,701.741 1999.22,730.893 2010.49,784.745 2021.76,872.594 2033.03,962.31 2044.3,1005.16 2055.57,1044.79 2066.84,1114.95 2078.11,1156.77 2089.38,1155.56 2100.65,1142.92 2111.92,1151.82 2123.19,1115.14 2134.46,1090.67 2145.73,1078.35 2157,1113.18 2168.27,1130.39 2179.54,1160.41 2190.81,1122.9 2202.08,1112.34 2213.35,1099.98 2224.62,1079.26 2235.89,1073.15 2247.16,1104.55 2258.43,1139.7 2269.7,1117.73 2280.97,1112.7 2292.24,1095.54 2303.51,1092.46 2314.78,1101.91 2326.05,1097.91 "/>
<polyline clip-path="url(#clip401)" style="stroke:#e26f46; stroke-linecap:round; stroke-linejoin:round; stroke-width:4; stroke-opacity:1; fill:none" points="1435.73,1445.72 1447,1383.21 1458.27,1282.54 1469.54,1151.24 1480.81,1063.12 1492.08,1030.06 1503.35,957.689 1514.62,929.63 1525.89,923.132 1537.16,965.207 1548.43,1012.24 1559.7,1021.17 1570.96,965.943 1582.23,944.907 1593.5,889.509 1604.77,823.713 1616.04,749.786 1627.31,731.279 1638.58,692.654 1649.85,637.281 1661.12,616.149 1672.39,583.74 1683.66,581.376 1694.93,534.134 1706.2,451.043 1717.47,413.164 1728.74,400.933 1740.01,439.013 1751.28,459.787 1762.55,436.738 1773.82,414.392 1785.09,373.215 1796.36,361.989 1807.63,348.945 1818.9,317.055 1830.17,232.384 1841.44,193.03 1852.71,170.137 1863.98,219.652 1875.25,250.189 1886.52,342.251 1897.79,477.74 1909.06,562.873 1920.33,694.383 1931.6,797.302 1942.87,828.053 1954.14,819.721 1965.41,842.402 1976.68,765.163 1987.95,714.403 1999.22,740.012 2010.49,786.51 2021.76,875.456 2033.03,961.767 2044.3,1002.02 2055.57,1038.03 2066.84,1112.4 2078.11,1146.35 2089.38,1142.69 2100.65,1142.75 2111.92,1141.78 2123.19,1112.03 2134.46,1087.09 2145.73,1075.11 2157,1116.81 2168.27,1126.29 2179.54,1148.83 2190.81,1115.39 2202.08,1111.77 2213.35,1106.26 2224.62,1092.78 2235.89,1092.88 2247.16,1117.96 2258.43,1147.32 2269.7,1111.64 2280.97,1106.65 2292.24,1090.97 2303.51,1085.59 2314.78,1097.31 2326.05,1091.34 "/>
<polyline clip-path="url(#clip401)" style="stroke:#3da44d; stroke-linecap:round; stroke-linejoin:round; stroke-width:4; stroke-opacity:1; fill:none" points="1435.73,1318.92 1447,1267.04 1458.27,1193.04 1469.54,1145.38 1480.81,1109.33 1492.08,1085.05 1503.35,1121.34 1514.62,1069.37 1525.89,1047.19 1537.16,1044.92 1548.43,1025.07 1559.7,926.116 1570.96,843.773 1582.23,945.743 1593.5,970.601 1604.77,926.086 1616.04,832.381 1627.31,763.965 1638.58,754.597 1649.85,720.664 1661.12,609.529 1672.39,683.475 1683.66,632.62 1694.93,503.367 1706.2,437.041 1717.47,421.838 1728.74,452.67 1740.01,437.991 1751.28,386.113 1762.55,361.274 1773.82,318.666 1785.09,445.242 1796.36,436.894 1807.63,326.369 1818.9,285.277 1830.17,175.02 1841.44,136.674 1852.71,87.9763 1863.98,160.359 1875.25,250.926 1886.52,382.021 1897.79,488.347 1909.06,546.086 1920.33,633.461 1931.6,793.872 1942.87,712.891 1954.14,798.232 1965.41,895.556 1976.68,891.339 1987.95,785.448 1999.22,857.311 2010.49,768.601 2021.76,926.11 2033.03,1081.06 2044.3,1030.51 2055.57,1172 2066.84,1152.73 2078.11,1230.4 2089.38,1181.27 2100.65,1155.84 2111.92,1138.91 2123.19,1190.81 2134.46,1019.78 2145.73,1003.19 2157,953.92 2168.27,1046.95 2179.54,1162.88 2190.81,1301.69 2202.08,1223.85 2213.35,1110.01 2224.62,1136.13 2235.89,1193.02 2247.16,1282.82 2258.43,1261.05 2269.7,1115.47 2280.97,1090.23 2292.24,1039.49 2303.51,1067.15 2314.78,1231.53 2326.05,1210.9 "/>
<path clip-path="url(#clip400)" d="M1865.26 302.578 L2321.3 302.578 L2321.3 95.2176 L1865.26 95.2176  Z" fill="#ffffff" fill-rule="evenodd" fill-opacity="1"/>
<polyline clip-path="url(#clip400)" style="stroke:#000000; stroke-linecap:round; stroke-linejoin:round; stroke-width:4; stroke-opacity:1; fill:none" points="1865.26,302.578 2321.3,302.578 2321.3,95.2176 1865.26,95.2176 1865.26,302.578 "/>
<polyline clip-path="url(#clip400)" style="stroke:#009af9; stroke-linecap:round; stroke-linejoin:round; stroke-width:4; stroke-opacity:1; fill:none" points="1875.75,147.058 1938.66,147.058 "/>
<path clip-path="url(#clip400)" d="M1949.15 129.778 L1953.82 129.778 L1953.82 144.384 L1969.33 129.778 L1975.35 129.778 L1958.2 145.889 L1976.58 164.338 L1970.42 164.338 L1953.82 147.694 L1953.82 164.338 L1949.15 164.338 L1949.15 129.778 Z" fill="#000000" fill-rule="nonzero" fill-opacity="1" /><path clip-path="url(#clip400)" d="M1991 151.305 Q1985.84 151.305 1983.85 152.486 Q1981.86 153.666 1981.86 156.514 Q1981.86 158.782 1983.34 160.125 Q1984.84 161.444 1987.41 161.444 Q1990.95 161.444 1993.08 158.944 Q1995.23 156.421 1995.23 152.254 L1995.23 151.305 L1991 151.305 M1999.49 149.546 L1999.49 164.338 L1995.23 164.338 L1995.23 160.402 Q1993.78 162.763 1991.6 163.898 Q1989.42 165.009 1986.28 165.009 Q1982.3 165.009 1979.93 162.787 Q1977.6 160.541 1977.6 156.791 Q1977.6 152.416 1980.51 150.194 Q1983.45 147.972 1989.26 147.972 L1995.23 147.972 L1995.23 147.555 Q1995.23 144.615 1993.29 143.018 Q1991.37 141.398 1987.87 141.398 Q1985.65 141.398 1983.55 141.93 Q1981.44 142.463 1979.49 143.527 L1979.49 139.592 Q1981.83 138.69 1984.03 138.25 Q1986.23 137.787 1988.31 137.787 Q1993.94 137.787 1996.72 140.703 Q1999.49 143.62 1999.49 149.546 Z" fill="#000000" fill-rule="nonzero" fill-opacity="1" /><path clip-path="url(#clip400)" d="M2008.27 128.319 L2012.53 128.319 L2012.53 164.338 L2008.27 164.338 L2008.27 128.319 Z" fill="#000000" fill-rule="nonzero" fill-opacity="1" /><path clip-path="url(#clip400)" d="M2041.62 143.389 Q2043.22 140.518 2045.44 139.153 Q2047.67 137.787 2050.67 137.787 Q2054.73 137.787 2056.92 140.634 Q2059.12 143.458 2059.12 148.689 L2059.12 164.338 L2054.84 164.338 L2054.84 148.828 Q2054.84 145.102 2053.52 143.296 Q2052.2 141.49 2049.49 141.49 Q2046.18 141.49 2044.26 143.69 Q2042.34 145.889 2042.34 149.685 L2042.34 164.338 L2038.06 164.338 L2038.06 148.828 Q2038.06 145.078 2036.74 143.296 Q2035.42 141.49 2032.67 141.49 Q2029.4 141.49 2027.48 143.713 Q2025.56 145.912 2025.56 149.685 L2025.56 164.338 L2021.28 164.338 L2021.28 138.412 L2025.56 138.412 L2025.56 142.44 Q2027.02 140.055 2029.05 138.921 Q2031.09 137.787 2033.89 137.787 Q2036.72 137.787 2038.68 139.222 Q2040.67 140.657 2041.62 143.389 Z" fill="#000000" fill-rule="nonzero" fill-opacity="1" /><path clip-path="url(#clip400)" d="M2079.4 151.305 Q2074.24 151.305 2072.25 152.486 Q2070.26 153.666 2070.26 156.514 Q2070.26 158.782 2071.74 160.125 Q2073.24 161.444 2075.81 161.444 Q2079.35 161.444 2081.48 158.944 Q2083.64 156.421 2083.64 152.254 L2083.64 151.305 L2079.4 151.305 M2087.9 149.546 L2087.9 164.338 L2083.64 164.338 L2083.64 160.402 Q2082.18 162.763 2080 163.898 Q2077.83 165.009 2074.68 165.009 Q2070.7 165.009 2068.34 162.787 Q2066 160.541 2066 156.791 Q2066 152.416 2068.92 150.194 Q2071.85 147.972 2077.67 147.972 L2083.64 147.972 L2083.64 147.555 Q2083.64 144.615 2081.69 143.018 Q2079.77 141.398 2076.28 141.398 Q2074.05 141.398 2071.95 141.93 Q2069.84 142.463 2067.9 143.527 L2067.9 139.592 Q2070.23 138.69 2072.43 138.25 Q2074.63 137.787 2076.72 137.787 Q2082.34 137.787 2085.12 140.703 Q2087.9 143.62 2087.9 149.546 Z" fill="#000000" fill-rule="nonzero" fill-opacity="1" /><path clip-path="url(#clip400)" d="M2118.22 148.689 L2118.22 164.338 L2113.96 164.338 L2113.96 148.828 Q2113.96 145.148 2112.53 143.319 Q2111.09 141.49 2108.22 141.49 Q2104.77 141.49 2102.78 143.69 Q2100.79 145.889 2100.79 149.685 L2100.79 164.338 L2096.51 164.338 L2096.51 138.412 L2100.79 138.412 L2100.79 142.44 Q2102.32 140.102 2104.38 138.944 Q2106.46 137.787 2109.17 137.787 Q2113.64 137.787 2115.93 140.565 Q2118.22 143.319 2118.22 148.689 Z" fill="#000000" fill-rule="nonzero" fill-opacity="1" /><path clip-path="url(#clip400)" d="M2158.31 139.176 L2158.31 143.203 Q2156.51 142.277 2154.56 141.815 Q2152.62 141.352 2150.54 141.352 Q2147.36 141.352 2145.77 142.324 Q2144.19 143.296 2144.19 145.24 Q2144.19 146.722 2145.33 147.578 Q2146.46 148.412 2149.89 149.176 L2151.35 149.5 Q2155.88 150.472 2157.78 152.254 Q2159.7 154.014 2159.7 157.185 Q2159.7 160.796 2156.83 162.902 Q2153.98 165.009 2148.98 165.009 Q2146.9 165.009 2144.63 164.592 Q2142.39 164.199 2139.89 163.388 L2139.89 158.99 Q2142.25 160.217 2144.54 160.842 Q2146.83 161.444 2149.08 161.444 Q2152.09 161.444 2153.71 160.426 Q2155.33 159.384 2155.33 157.509 Q2155.33 155.773 2154.15 154.847 Q2152.99 153.921 2149.03 153.064 L2147.55 152.717 Q2143.59 151.884 2141.83 150.171 Q2140.07 148.435 2140.07 145.426 Q2140.07 141.768 2142.66 139.778 Q2145.26 137.787 2150.03 137.787 Q2152.39 137.787 2154.47 138.134 Q2156.55 138.481 2158.31 139.176 Z" fill="#000000" fill-rule="nonzero" fill-opacity="1" /><path clip-path="url(#clip400)" d="M2186.67 143.389 Q2188.27 140.518 2190.49 139.153 Q2192.71 137.787 2195.72 137.787 Q2199.77 137.787 2201.97 140.634 Q2204.17 143.458 2204.17 148.689 L2204.17 164.338 L2199.89 164.338 L2199.89 148.828 Q2199.89 145.102 2198.57 143.296 Q2197.25 141.49 2194.54 141.49 Q2191.23 141.49 2189.31 143.69 Q2187.39 145.889 2187.39 149.685 L2187.39 164.338 L2183.1 164.338 L2183.1 148.828 Q2183.1 145.078 2181.78 143.296 Q2180.47 141.49 2177.71 141.49 Q2174.45 141.49 2172.53 143.713 Q2170.6 145.912 2170.6 149.685 L2170.6 164.338 L2166.32 164.338 L2166.32 138.412 L2170.6 138.412 L2170.6 142.44 Q2172.06 140.055 2174.1 138.921 Q2176.14 137.787 2178.94 137.787 Q2181.76 137.787 2183.73 139.222 Q2185.72 140.657 2186.67 143.389 Z" fill="#000000" fill-rule="nonzero" fill-opacity="1" /><path clip-path="url(#clip400)" d="M2222.71 141.398 Q2219.28 141.398 2217.29 144.083 Q2215.3 146.745 2215.3 151.398 Q2215.3 156.051 2217.27 158.736 Q2219.26 161.398 2222.71 161.398 Q2226.11 161.398 2228.1 158.713 Q2230.09 156.027 2230.09 151.398 Q2230.09 146.791 2228.1 144.106 Q2226.11 141.398 2222.71 141.398 M2222.71 137.787 Q2228.27 137.787 2231.44 141.398 Q2234.61 145.009 2234.61 151.398 Q2234.61 157.764 2231.44 161.398 Q2228.27 165.009 2222.71 165.009 Q2217.13 165.009 2213.96 161.398 Q2210.81 157.764 2210.81 151.398 Q2210.81 145.009 2213.96 141.398 Q2217.13 137.787 2222.71 137.787 Z" fill="#000000" fill-rule="nonzero" fill-opacity="1" /><path clip-path="url(#clip400)" d="M2251.72 141.398 Q2248.29 141.398 2246.3 144.083 Q2244.31 146.745 2244.31 151.398 Q2244.31 156.051 2246.28 158.736 Q2248.27 161.398 2251.72 161.398 Q2255.12 161.398 2257.11 158.713 Q2259.1 156.027 2259.1 151.398 Q2259.1 146.791 2257.11 144.106 Q2255.12 141.398 2251.72 141.398 M2251.72 137.787 Q2257.27 137.787 2260.44 141.398 Q2263.61 145.009 2263.61 151.398 Q2263.61 157.764 2260.44 161.398 Q2257.27 165.009 2251.72 165.009 Q2246.14 165.009 2242.97 161.398 Q2239.82 157.764 2239.82 151.398 Q2239.82 145.009 2242.97 141.398 Q2246.14 137.787 2251.72 137.787 Z" fill="#000000" fill-rule="nonzero" fill-opacity="1" /><path clip-path="url(#clip400)" d="M2274.89 131.051 L2274.89 138.412 L2283.66 138.412 L2283.66 141.722 L2274.89 141.722 L2274.89 155.796 Q2274.89 158.967 2275.74 159.87 Q2276.62 160.773 2279.28 160.773 L2283.66 160.773 L2283.66 164.338 L2279.28 164.338 Q2274.35 164.338 2272.48 162.509 Q2270.6 160.657 2270.6 155.796 L2270.6 141.722 L2267.48 141.722 L2267.48 138.412 L2270.6 138.412 L2270.6 131.051 L2274.89 131.051 Z" fill="#000000" fill-rule="nonzero" fill-opacity="1" /><path clip-path="url(#clip400)" d="M2310.81 148.689 L2310.81 164.338 L2306.55 164.338 L2306.55 148.828 Q2306.55 145.148 2305.12 143.319 Q2303.68 141.49 2300.81 141.49 Q2297.36 141.49 2295.37 143.69 Q2293.38 145.889 2293.38 149.685 L2293.38 164.338 L2289.1 164.338 L2289.1 128.319 L2293.38 128.319 L2293.38 142.44 Q2294.91 140.102 2296.97 138.944 Q2299.05 137.787 2301.76 137.787 Q2306.23 137.787 2308.52 140.565 Q2310.81 143.319 2310.81 148.689 Z" fill="#000000" fill-rule="nonzero" fill-opacity="1" /><polyline clip-path="url(#clip400)" style="stroke:#e26f46; stroke-linecap:round; stroke-linejoin:round; stroke-width:4; stroke-opacity:1; fill:none" points="1875.75,198.898 1938.66,198.898 "/>
<path clip-path="url(#clip400)" d="M1953.43 212.289 L1953.43 226.039 L1949.15 226.039 L1949.15 190.252 L1953.43 190.252 L1953.43 194.187 Q1954.77 191.872 1956.81 190.761 Q1958.87 189.627 1961.72 189.627 Q1966.44 189.627 1969.38 193.377 Q1972.34 197.127 1972.34 203.238 Q1972.34 209.349 1969.38 213.099 Q1966.44 216.849 1961.72 216.849 Q1958.87 216.849 1956.81 215.738 Q1954.77 214.603 1953.43 212.289 M1967.92 203.238 Q1967.92 198.539 1965.98 195.877 Q1964.05 193.192 1960.67 193.192 Q1957.3 193.192 1955.35 195.877 Q1953.43 198.539 1953.43 203.238 Q1953.43 207.937 1955.35 210.622 Q1957.3 213.284 1960.67 213.284 Q1964.05 213.284 1965.98 210.622 Q1967.92 207.937 1967.92 203.238 Z" fill="#000000" fill-rule="nonzero" fill-opacity="1" /><path clip-path="url(#clip400)" d="M1992.53 180.159 L1992.53 183.701 L1988.45 183.701 Q1986.16 183.701 1985.26 184.627 Q1984.38 185.553 1984.38 187.96 L1984.38 190.252 L1991.39 190.252 L1991.39 193.562 L1984.38 193.562 L1984.38 216.178 L1980.1 216.178 L1980.1 193.562 L1976.02 193.562 L1976.02 190.252 L1980.1 190.252 L1980.1 188.446 Q1980.1 184.118 1982.11 182.15 Q1984.12 180.159 1988.5 180.159 L1992.53 180.159 Z" fill="#000000" fill-rule="nonzero" fill-opacity="1" /><path clip-path="url(#clip400)" d="M2027.69 191.016 L2027.69 195.043 Q2025.88 194.117 2023.94 193.655 Q2021.99 193.192 2019.91 193.192 Q2016.74 193.192 2015.14 194.164 Q2013.57 195.136 2013.57 197.08 Q2013.57 198.562 2014.7 199.418 Q2015.84 200.252 2019.26 201.016 L2020.72 201.34 Q2025.26 202.312 2027.16 204.094 Q2029.08 205.854 2029.08 209.025 Q2029.08 212.636 2026.21 214.742 Q2023.36 216.849 2018.36 216.849 Q2016.28 216.849 2014.01 216.432 Q2011.76 216.039 2009.26 215.228 L2009.26 210.83 Q2011.62 212.057 2013.92 212.682 Q2016.21 213.284 2018.45 213.284 Q2021.46 213.284 2023.08 212.266 Q2024.7 211.224 2024.7 209.349 Q2024.7 207.613 2023.52 206.687 Q2022.36 205.761 2018.41 204.904 L2016.92 204.557 Q2012.97 203.724 2011.21 202.011 Q2009.45 200.275 2009.45 197.266 Q2009.45 193.608 2012.04 191.618 Q2014.63 189.627 2019.4 189.627 Q2021.76 189.627 2023.85 189.974 Q2025.93 190.321 2027.69 191.016 Z" fill="#000000" fill-rule="nonzero" fill-opacity="1" /><path clip-path="url(#clip400)" d="M2056.04 195.229 Q2057.64 192.358 2059.86 190.993 Q2062.09 189.627 2065.1 189.627 Q2069.15 189.627 2071.35 192.474 Q2073.54 195.298 2073.54 200.529 L2073.54 216.178 L2069.26 216.178 L2069.26 200.668 Q2069.26 196.942 2067.94 195.136 Q2066.62 193.33 2063.92 193.33 Q2060.6 193.33 2058.68 195.53 Q2056.76 197.729 2056.76 201.525 L2056.76 216.178 L2052.48 216.178 L2052.48 200.668 Q2052.48 196.918 2051.16 195.136 Q2049.84 193.33 2047.09 193.33 Q2043.82 193.33 2041.9 195.553 Q2039.98 197.752 2039.98 201.525 L2039.98 216.178 L2035.7 216.178 L2035.7 190.252 L2039.98 190.252 L2039.98 194.28 Q2041.44 191.895 2043.48 190.761 Q2045.51 189.627 2048.31 189.627 Q2051.14 189.627 2053.1 191.062 Q2055.1 192.497 2056.04 195.229 Z" fill="#000000" fill-rule="nonzero" fill-opacity="1" /><path clip-path="url(#clip400)" d="M2092.09 193.238 Q2088.66 193.238 2086.67 195.923 Q2084.68 198.585 2084.68 203.238 Q2084.68 207.891 2086.65 210.576 Q2088.64 213.238 2092.09 213.238 Q2095.49 213.238 2097.48 210.553 Q2099.47 207.867 2099.47 203.238 Q2099.47 198.631 2097.48 195.946 Q2095.49 193.238 2092.09 193.238 M2092.09 189.627 Q2097.64 189.627 2100.81 193.238 Q2103.98 196.849 2103.98 203.238 Q2103.98 209.604 2100.81 213.238 Q2097.64 216.849 2092.09 216.849 Q2086.51 216.849 2083.34 213.238 Q2080.19 209.604 2080.19 203.238 Q2080.19 196.849 2083.34 193.238 Q2086.51 189.627 2092.09 189.627 Z" fill="#000000" fill-rule="nonzero" fill-opacity="1" /><path clip-path="url(#clip400)" d="M2121.09 193.238 Q2117.66 193.238 2115.67 195.923 Q2113.68 198.585 2113.68 203.238 Q2113.68 207.891 2115.65 210.576 Q2117.64 213.238 2121.09 213.238 Q2124.49 213.238 2126.48 210.553 Q2128.47 207.867 2128.47 203.238 Q2128.47 198.631 2126.48 195.946 Q2124.49 193.238 2121.09 193.238 M2121.09 189.627 Q2126.65 189.627 2129.82 193.238 Q2132.99 196.849 2132.99 203.238 Q2132.99 209.604 2129.82 213.238 Q2126.65 216.849 2121.09 216.849 Q2115.51 216.849 2112.34 213.238 Q2109.19 209.604 2109.19 203.238 Q2109.19 196.849 2112.34 193.238 Q2115.51 189.627 2121.09 189.627 Z" fill="#000000" fill-rule="nonzero" fill-opacity="1" /><path clip-path="url(#clip400)" d="M2144.26 182.891 L2144.26 190.252 L2153.04 190.252 L2153.04 193.562 L2144.26 193.562 L2144.26 207.636 Q2144.26 210.807 2145.12 211.71 Q2146 212.613 2148.66 212.613 L2153.04 212.613 L2153.04 216.178 L2148.66 216.178 Q2143.73 216.178 2141.85 214.349 Q2139.98 212.497 2139.98 207.636 L2139.98 193.562 L2136.85 193.562 L2136.85 190.252 L2139.98 190.252 L2139.98 182.891 L2144.26 182.891 Z" fill="#000000" fill-rule="nonzero" fill-opacity="1" /><path clip-path="url(#clip400)" d="M2180.19 200.529 L2180.19 216.178 L2175.93 216.178 L2175.93 200.668 Q2175.93 196.988 2174.49 195.159 Q2173.06 193.33 2170.19 193.33 Q2166.74 193.33 2164.75 195.53 Q2162.76 197.729 2162.76 201.525 L2162.76 216.178 L2158.47 216.178 L2158.47 180.159 L2162.76 180.159 L2162.76 194.28 Q2164.28 191.942 2166.35 190.784 Q2168.43 189.627 2171.14 189.627 Q2175.6 189.627 2177.9 192.405 Q2180.19 195.159 2180.19 200.529 Z" fill="#000000" fill-rule="nonzero" fill-opacity="1" /><polyline clip-path="url(#clip400)" style="stroke:#3da44d; stroke-linecap:round; stroke-linejoin:round; stroke-width:4; stroke-opacity:1; fill:none" points="1875.75,250.738 1938.66,250.738 "/>
<path clip-path="url(#clip400)" d="M1956.55 234.731 L1956.55 242.092 L1965.33 242.092 L1965.33 245.402 L1956.55 245.402 L1956.55 259.476 Q1956.55 262.647 1957.41 263.55 Q1958.29 264.453 1960.95 264.453 L1965.33 264.453 L1965.33 268.018 L1960.95 268.018 Q1956.02 268.018 1954.15 266.189 Q1952.27 264.337 1952.27 259.476 L1952.27 245.402 L1949.15 245.402 L1949.15 242.092 L1952.27 242.092 L1952.27 234.731 L1956.55 234.731 Z" fill="#000000" fill-rule="nonzero" fill-opacity="1" /><path clip-path="url(#clip400)" d="M1985.95 246.073 Q1985.23 245.657 1984.38 245.471 Q1983.55 245.263 1982.53 245.263 Q1978.92 245.263 1976.97 247.624 Q1975.05 249.962 1975.05 254.36 L1975.05 268.018 L1970.77 268.018 L1970.77 242.092 L1975.05 242.092 L1975.05 246.12 Q1976.39 243.758 1978.55 242.624 Q1980.7 241.467 1983.78 241.467 Q1984.22 241.467 1984.75 241.536 Q1985.28 241.583 1985.93 241.698 L1985.95 246.073 Z" fill="#000000" fill-rule="nonzero" fill-opacity="1" /><path clip-path="url(#clip400)" d="M1989.98 257.786 L1989.98 242.092 L1994.24 242.092 L1994.24 257.624 Q1994.24 261.305 1995.67 263.156 Q1997.11 264.985 1999.98 264.985 Q2003.43 264.985 2005.42 262.786 Q2007.43 260.587 2007.43 256.791 L2007.43 242.092 L2011.69 242.092 L2011.69 268.018 L2007.43 268.018 L2007.43 264.036 Q2005.88 266.397 2003.82 267.555 Q2001.79 268.689 1999.08 268.689 Q1994.61 268.689 1992.3 265.911 Q1989.98 263.133 1989.98 257.786 M2000.7 241.467 L2000.7 241.467 Z" fill="#000000" fill-rule="nonzero" fill-opacity="1" /><path clip-path="url(#clip400)" d="M2042.64 253.99 L2042.64 256.073 L2023.06 256.073 Q2023.34 260.471 2025.7 262.786 Q2028.08 265.078 2032.32 265.078 Q2034.77 265.078 2037.06 264.476 Q2039.38 263.874 2041.65 262.67 L2041.65 266.698 Q2039.36 267.67 2036.95 268.18 Q2034.54 268.689 2032.06 268.689 Q2025.86 268.689 2022.23 265.078 Q2018.61 261.467 2018.61 255.309 Q2018.61 248.944 2022.04 245.217 Q2025.49 241.467 2031.32 241.467 Q2036.55 241.467 2039.59 244.846 Q2042.64 248.203 2042.64 253.99 M2038.38 252.74 Q2038.34 249.245 2036.42 247.161 Q2034.52 245.078 2031.37 245.078 Q2027.8 245.078 2025.65 247.092 Q2023.52 249.106 2023.2 252.763 L2038.38 252.74 Z" fill="#000000" fill-rule="nonzero" fill-opacity="1" /></svg>
