<?xml version="1.0" encoding="utf-8"?>
<svg xmlns="http://www.w3.org/2000/svg" xmlns:xlink="http://www.w3.org/1999/xlink" width="600" height="400" viewBox="0 0 2400 1600">
<defs>
  <clipPath id="clip220">
    <rect x="0" y="0" width="2400" height="1600"/>
  </clipPath>
</defs>
<path clip-path="url(#clip220)" d="M0 1600 L2400 1600 L2400 0 L0 0  Z" fill="#ffffff" fill-rule="evenodd" fill-opacity="1"/>
<defs>
  <clipPath id="clip221">
    <rect x="480" y="0" width="1681" height="1600"/>
  </clipPath>
</defs>
<path clip-path="url(#clip220)" d="M269.352 1410.9 L2352.76 1410.9 L2352.76 123.472 L269.352 123.472  Z" fill="#ffffff" fill-rule="evenodd" fill-opacity="1"/>
<defs>
  <clipPath id="clip222">
    <rect x="269" y="123" width="2084" height="1288"/>
  </clipPath>
</defs>
<polyline clip-path="url(#clip222)" style="stroke:#000000; stroke-linecap:round; stroke-linejoin:round; stroke-width:2; stroke-opacity:0.1; fill:none" points="1114.51,1410.9 1114.51,123.472 "/>
<polyline clip-path="url(#clip222)" style="stroke:#000000; stroke-linecap:round; stroke-linejoin:round; stroke-width:2; stroke-opacity:0.1; fill:none" points="2097.24,1410.9 2097.24,123.472 "/>
<polyline clip-path="url(#clip222)" style="stroke:#000000; stroke-linecap:round; stroke-linejoin:round; stroke-width:2; stroke-opacity:0.1; fill:none" points="269.352,1241.98 2352.76,1241.98 "/>
<polyline clip-path="url(#clip222)" style="stroke:#000000; stroke-linecap:round; stroke-linejoin:round; stroke-width:2; stroke-opacity:0.1; fill:none" points="269.352,997.836 2352.76,997.836 "/>
<polyline clip-path="url(#clip222)" style="stroke:#000000; stroke-linecap:round; stroke-linejoin:round; stroke-width:2; stroke-opacity:0.1; fill:none" points="269.352,753.688 2352.76,753.688 "/>
<polyline clip-path="url(#clip222)" style="stroke:#000000; stroke-linecap:round; stroke-linejoin:round; stroke-width:2; stroke-opacity:0.1; fill:none" points="269.352,509.541 2352.76,509.541 "/>
<polyline clip-path="url(#clip222)" style="stroke:#000000; stroke-linecap:round; stroke-linejoin:round; stroke-width:2; stroke-opacity:0.1; fill:none" points="269.352,265.393 2352.76,265.393 "/>
<polyline clip-path="url(#clip220)" style="stroke:#000000; stroke-linecap:round; stroke-linejoin:round; stroke-width:4; stroke-opacity:1; fill:none" points="269.352,1410.9 2352.76,1410.9 "/>
<polyline clip-path="url(#clip220)" style="stroke:#000000; stroke-linecap:round; stroke-linejoin:round; stroke-width:4; stroke-opacity:1; fill:none" points="1114.51,1410.9 1114.51,1392 "/>
<polyline clip-path="url(#clip220)" style="stroke:#000000; stroke-linecap:round; stroke-linejoin:round; stroke-width:4; stroke-opacity:1; fill:none" points="2097.24,1410.9 2097.24,1392 "/>
<path clip-path="url(#clip220)" d="M1079.49 1485.02 L1087.13 1485.02 L1087.13 1458.66 L1078.82 1460.32 L1078.82 1456.06 L1087.08 1454.4 L1091.76 1454.4 L1091.76 1485.02 L1099.4 1485.02 L1099.4 1488.96 L1079.49 1488.96 L1079.49 1485.02 Z" fill="#000000" fill-rule="nonzero" fill-opacity="1" /><path clip-path="url(#clip220)" d="M1118.84 1457.48 Q1115.23 1457.48 1113.4 1461.04 Q1111.6 1464.58 1111.6 1471.71 Q1111.6 1478.82 1113.4 1482.38 Q1115.23 1485.92 1118.84 1485.92 Q1122.48 1485.92 1124.28 1482.38 Q1126.11 1478.82 1126.11 1471.71 Q1126.11 1464.58 1124.28 1461.04 Q1122.48 1457.48 1118.84 1457.48 M1118.84 1453.77 Q1124.65 1453.77 1127.71 1458.38 Q1130.79 1462.96 1130.79 1471.71 Q1130.79 1480.44 1127.71 1485.04 Q1124.65 1489.63 1118.84 1489.63 Q1113.03 1489.63 1109.95 1485.04 Q1106.9 1480.44 1106.9 1471.71 Q1106.9 1462.96 1109.95 1458.38 Q1113.03 1453.77 1118.84 1453.77 Z" fill="#000000" fill-rule="nonzero" fill-opacity="1" /><path clip-path="url(#clip220)" d="M1140.49 1435.97 Q1137.56 1435.97 1136.07 1438.86 Q1134.6 1441.74 1134.6 1447.53 Q1134.6 1453.31 1136.07 1456.2 Q1137.56 1459.08 1140.49 1459.08 Q1143.44 1459.08 1144.91 1456.2 Q1146.4 1453.31 1146.4 1447.53 Q1146.4 1441.74 1144.91 1438.86 Q1143.44 1435.97 1140.49 1435.97 M1140.49 1432.96 Q1145.21 1432.96 1147.69 1436.7 Q1150.2 1440.43 1150.2 1447.53 Q1150.2 1454.62 1147.69 1458.37 Q1145.21 1462.09 1140.49 1462.09 Q1135.77 1462.09 1133.27 1458.37 Q1130.79 1454.62 1130.79 1447.53 Q1130.79 1440.43 1133.27 1436.7 Q1135.77 1432.96 1140.49 1432.96 Z" fill="#000000" fill-rule="nonzero" fill-opacity="1" /><path clip-path="url(#clip220)" d="M2063.57 1485.02 L2071.21 1485.02 L2071.21 1458.66 L2062.9 1460.32 L2062.9 1456.06 L2071.16 1454.4 L2075.84 1454.4 L2075.84 1485.02 L2083.48 1485.02 L2083.48 1488.96 L2063.57 1488.96 L2063.57 1485.02 Z" fill="#000000" fill-rule="nonzero" fill-opacity="1" /><path clip-path="url(#clip220)" d="M2102.92 1457.48 Q2099.31 1457.48 2097.48 1461.04 Q2095.68 1464.58 2095.68 1471.71 Q2095.68 1478.82 2097.48 1482.38 Q2099.31 1485.92 2102.92 1485.92 Q2106.56 1485.92 2108.36 1482.38 Q2110.19 1478.82 2110.19 1471.71 Q2110.19 1464.58 2108.36 1461.04 Q2106.56 1457.48 2102.92 1457.48 M2102.92 1453.77 Q2108.73 1453.77 2111.79 1458.38 Q2114.87 1462.96 2114.87 1471.71 Q2114.87 1480.44 2111.79 1485.04 Q2108.73 1489.63 2102.92 1489.63 Q2097.11 1489.63 2094.03 1485.04 Q2090.98 1480.44 2090.98 1471.71 Q2090.98 1462.96 2094.03 1458.38 Q2097.11 1453.77 2102.92 1453.77 Z" fill="#000000" fill-rule="nonzero" fill-opacity="1" /><path clip-path="url(#clip220)" d="M2115.41 1458.35 L2121.62 1458.35 L2121.62 1436.93 L2114.87 1438.28 L2114.87 1434.82 L2121.58 1433.47 L2125.38 1433.47 L2125.38 1458.35 L2131.59 1458.35 L2131.59 1461.55 L2115.41 1461.55 L2115.41 1458.35 Z" fill="#000000" fill-rule="nonzero" fill-opacity="1" /><path clip-path="url(#clip220)" d="M748.914 1531.95 L748.914 1568.9 L756.681 1568.9 Q766.516 1568.9 771.067 1564.45 Q775.65 1559.99 775.65 1550.38 Q775.65 1540.83 771.067 1536.4 Q766.516 1531.95 756.681 1531.95 L748.914 1531.95 M742.485 1526.67 L755.694 1526.67 Q769.508 1526.67 775.969 1532.43 Q782.43 1538.16 782.43 1550.38 Q782.43 1562.66 775.937 1568.42 Q769.444 1574.19 755.694 1574.19 L742.485 1574.19 L742.485 1526.67 Z" fill="#000000" fill-rule="nonzero" fill-opacity="1" /><path clip-path="url(#clip220)" d="M807.256 1577.5 Q804.774 1583.86 802.418 1585.8 Q800.063 1587.74 796.116 1587.74 L791.437 1587.74 L791.437 1582.84 L794.875 1582.84 Q797.294 1582.84 798.631 1581.7 Q799.967 1580.55 801.591 1576.29 L802.641 1573.61 L788.223 1538.54 L794.429 1538.54 L805.569 1566.42 L816.709 1538.54 L822.916 1538.54 L807.256 1577.5 Z" fill="#000000" fill-rule="nonzero" fill-opacity="1" /><path clip-path="url(#clip220)" d="M860.633 1552.67 L860.633 1574.19 L854.776 1574.19 L854.776 1552.86 Q854.776 1547.8 852.803 1545.29 Q850.829 1542.77 846.883 1542.77 Q842.14 1542.77 839.403 1545.79 Q836.666 1548.82 836.666 1554.04 L836.666 1574.19 L830.777 1574.19 L830.777 1538.54 L836.666 1538.54 L836.666 1544.08 Q838.766 1540.86 841.599 1539.27 Q844.464 1537.68 848.188 1537.68 Q854.331 1537.68 857.482 1541.5 Q860.633 1545.29 860.633 1552.67 Z" fill="#000000" fill-rule="nonzero" fill-opacity="1" /><path clip-path="url(#clip220)" d="M888.514 1556.27 Q881.417 1556.27 878.679 1557.89 Q875.942 1559.51 875.942 1563.43 Q875.942 1566.55 877.979 1568.39 Q880.048 1570.21 883.581 1570.21 Q888.451 1570.21 891.379 1566.77 Q894.339 1563.3 894.339 1557.57 L894.339 1556.27 L888.514 1556.27 M900.195 1553.85 L900.195 1574.19 L894.339 1574.19 L894.339 1568.77 Q892.334 1572.02 889.342 1573.58 Q886.35 1575.11 882.021 1575.11 Q876.547 1575.11 873.3 1572.05 Q870.086 1568.97 870.086 1563.81 Q870.086 1557.79 874.096 1554.74 Q878.138 1551.68 886.127 1551.68 L894.339 1551.68 L894.339 1551.11 Q894.339 1547.07 891.665 1544.87 Q889.024 1542.64 884.218 1542.64 Q881.162 1542.64 878.266 1543.38 Q875.369 1544.11 872.696 1545.57 L872.696 1540.16 Q875.91 1538.92 878.934 1538.31 Q881.958 1537.68 884.822 1537.68 Q892.557 1537.68 896.376 1541.69 Q900.195 1545.7 900.195 1553.85 Z" fill="#000000" fill-rule="nonzero" fill-opacity="1" /><path clip-path="url(#clip220)" d="M940.013 1545.38 Q942.209 1541.43 945.265 1539.56 Q948.32 1537.68 952.458 1537.68 Q958.028 1537.68 961.052 1541.59 Q964.075 1545.48 964.075 1552.67 L964.075 1574.19 L958.187 1574.19 L958.187 1552.86 Q958.187 1547.74 956.373 1545.25 Q954.559 1542.77 950.835 1542.77 Q946.283 1542.77 943.641 1545.79 Q941 1548.82 941 1554.04 L941 1574.19 L935.111 1574.19 L935.111 1552.86 Q935.111 1547.7 933.297 1545.25 Q931.483 1542.77 927.695 1542.77 Q923.207 1542.77 920.566 1545.83 Q917.924 1548.85 917.924 1554.04 L917.924 1574.19 L912.036 1574.19 L912.036 1538.54 L917.924 1538.54 L917.924 1544.08 Q919.929 1540.8 922.73 1539.24 Q925.531 1537.68 929.382 1537.68 Q933.265 1537.68 935.971 1539.65 Q938.708 1541.62 940.013 1545.38 Z" fill="#000000" fill-rule="nonzero" fill-opacity="1" /><path clip-path="url(#clip220)" d="M975.756 1538.54 L981.613 1538.54 L981.613 1574.19 L975.756 1574.19 L975.756 1538.54 M975.756 1524.66 L981.613 1524.66 L981.613 1532.08 L975.756 1532.08 L975.756 1524.66 Z" fill="#000000" fill-rule="nonzero" fill-opacity="1" /><path clip-path="url(#clip220)" d="M1019.52 1539.91 L1019.52 1545.38 Q1017.04 1544.01 1014.52 1543.34 Q1012.04 1542.64 1009.49 1542.64 Q1003.8 1542.64 1000.65 1546.27 Q997.495 1549.87 997.495 1556.39 Q997.495 1562.92 1000.65 1566.55 Q1003.8 1570.14 1009.49 1570.14 Q1012.04 1570.14 1014.52 1569.47 Q1017.04 1568.77 1019.52 1567.41 L1019.52 1572.82 Q1017.07 1573.96 1014.43 1574.54 Q1011.82 1575.11 1008.86 1575.11 Q1000.81 1575.11 996.063 1570.05 Q991.321 1564.99 991.321 1556.39 Q991.321 1547.67 996.095 1542.68 Q1000.9 1537.68 1009.24 1537.68 Q1011.95 1537.68 1014.52 1538.25 Q1017.1 1538.79 1019.52 1539.91 Z" fill="#000000" fill-rule="nonzero" fill-opacity="1" /><path clip-path="url(#clip220)" d="M1052.43 1539.59 L1052.43 1545.13 Q1049.95 1543.85 1047.28 1543.22 Q1044.6 1542.58 1041.74 1542.58 Q1037.38 1542.58 1035.18 1543.92 Q1033.02 1545.25 1033.02 1547.93 Q1033.02 1549.96 1034.58 1551.14 Q1036.14 1552.29 1040.85 1553.34 L1042.85 1553.78 Q1049.09 1555.12 1051.7 1557.57 Q1054.34 1559.99 1054.34 1564.35 Q1054.34 1569.32 1050.39 1572.21 Q1046.48 1575.11 1039.6 1575.11 Q1036.74 1575.11 1033.62 1574.54 Q1030.53 1573.99 1027.1 1572.88 L1027.1 1566.83 Q1030.34 1568.52 1033.49 1569.38 Q1036.64 1570.21 1039.73 1570.21 Q1043.87 1570.21 1046.1 1568.81 Q1048.33 1567.37 1048.33 1564.8 Q1048.33 1562.41 1046.7 1561.14 Q1045.11 1559.86 1039.67 1558.68 L1037.63 1558.21 Q1032.19 1557.06 1029.77 1554.71 Q1027.35 1552.32 1027.35 1548.18 Q1027.35 1543.15 1030.92 1540.42 Q1034.48 1537.68 1041.04 1537.68 Q1044.28 1537.68 1047.15 1538.16 Q1050.01 1538.63 1052.43 1539.59 Z" fill="#000000" fill-rule="nonzero" fill-opacity="1" /><path clip-path="url(#clip220)" d="M1114.02 1552.67 L1114.02 1574.19 L1108.16 1574.19 L1108.16 1552.86 Q1108.16 1547.8 1106.19 1545.29 Q1104.22 1542.77 1100.27 1542.77 Q1095.53 1542.77 1092.79 1545.79 Q1090.05 1548.82 1090.05 1554.04 L1090.05 1574.19 L1084.16 1574.19 L1084.16 1538.54 L1090.05 1538.54 L1090.05 1544.08 Q1092.15 1540.86 1094.99 1539.27 Q1097.85 1537.68 1101.57 1537.68 Q1107.72 1537.68 1110.87 1541.5 Q1114.02 1545.29 1114.02 1552.67 Z" fill="#000000" fill-rule="nonzero" fill-opacity="1" /><path clip-path="url(#clip220)" d="M1139.51 1542.64 Q1134.8 1542.64 1132.07 1546.34 Q1129.33 1550 1129.33 1556.39 Q1129.33 1562.79 1132.03 1566.48 Q1134.77 1570.14 1139.51 1570.14 Q1144.19 1570.14 1146.93 1566.45 Q1149.67 1562.76 1149.67 1556.39 Q1149.67 1550.06 1146.93 1546.37 Q1144.19 1542.64 1139.51 1542.64 M1139.51 1537.68 Q1147.15 1537.68 1151.51 1542.64 Q1155.87 1547.61 1155.87 1556.39 Q1155.87 1565.15 1151.51 1570.14 Q1147.15 1575.11 1139.51 1575.11 Q1131.84 1575.11 1127.48 1570.14 Q1123.15 1565.15 1123.15 1556.39 Q1123.15 1547.61 1127.48 1542.64 Q1131.84 1537.68 1139.51 1537.68 Z" fill="#000000" fill-rule="nonzero" fill-opacity="1" /><path clip-path="url(#clip220)" d="M1165.58 1538.54 L1171.44 1538.54 L1171.44 1574.19 L1165.58 1574.19 L1165.58 1538.54 M1165.58 1524.66 L1171.44 1524.66 L1171.44 1532.08 L1165.58 1532.08 L1165.58 1524.66 Z" fill="#000000" fill-rule="nonzero" fill-opacity="1" /><path clip-path="url(#clip220)" d="M1206.42 1539.59 L1206.42 1545.13 Q1203.94 1543.85 1201.26 1543.22 Q1198.59 1542.58 1195.72 1542.58 Q1191.36 1542.58 1189.17 1543.92 Q1187 1545.25 1187 1547.93 Q1187 1549.96 1188.56 1551.14 Q1190.12 1552.29 1194.83 1553.34 L1196.84 1553.78 Q1203.08 1555.12 1205.69 1557.57 Q1208.33 1559.99 1208.33 1564.35 Q1208.33 1569.32 1204.38 1572.21 Q1200.47 1575.11 1193.59 1575.11 Q1190.73 1575.11 1187.61 1574.54 Q1184.52 1573.99 1181.08 1572.88 L1181.08 1566.83 Q1184.33 1568.52 1187.48 1569.38 Q1190.63 1570.21 1193.72 1570.21 Q1197.86 1570.21 1200.08 1568.81 Q1202.31 1567.37 1202.31 1564.8 Q1202.31 1562.41 1200.69 1561.14 Q1199.1 1559.86 1193.65 1558.68 L1191.62 1558.21 Q1186.17 1557.06 1183.76 1554.71 Q1181.34 1552.32 1181.34 1548.18 Q1181.34 1543.15 1184.9 1540.42 Q1188.47 1537.68 1195.02 1537.68 Q1198.27 1537.68 1201.13 1538.16 Q1204 1538.63 1206.42 1539.59 Z" fill="#000000" fill-rule="nonzero" fill-opacity="1" /><path clip-path="url(#clip220)" d="M1248.14 1554.9 L1248.14 1557.76 L1221.22 1557.76 Q1221.6 1563.81 1224.85 1566.99 Q1228.12 1570.14 1233.95 1570.14 Q1237.32 1570.14 1240.47 1569.32 Q1243.66 1568.49 1246.78 1566.83 L1246.78 1572.37 Q1243.63 1573.71 1240.32 1574.41 Q1237.01 1575.11 1233.6 1575.11 Q1225.07 1575.11 1220.07 1570.14 Q1215.11 1565.18 1215.11 1556.71 Q1215.11 1547.96 1219.82 1542.83 Q1224.56 1537.68 1232.58 1537.68 Q1239.77 1537.68 1243.94 1542.33 Q1248.14 1546.94 1248.14 1554.9 M1242.29 1553.18 Q1242.22 1548.37 1239.58 1545.51 Q1236.97 1542.64 1232.64 1542.64 Q1227.74 1542.64 1224.78 1545.41 Q1221.85 1548.18 1221.41 1553.21 L1242.29 1553.18 Z" fill="#000000" fill-rule="nonzero" fill-opacity="1" /><path clip-path="url(#clip220)" d="M1301.2 1539.59 L1301.2 1545.13 Q1298.72 1543.85 1296.05 1543.22 Q1293.37 1542.58 1290.51 1542.58 Q1286.15 1542.58 1283.95 1543.92 Q1281.79 1545.25 1281.79 1547.93 Q1281.79 1549.96 1283.35 1551.14 Q1284.91 1552.29 1289.62 1553.34 L1291.62 1553.78 Q1297.86 1555.12 1300.47 1557.57 Q1303.11 1559.99 1303.11 1564.35 Q1303.11 1569.32 1299.17 1572.21 Q1295.25 1575.11 1288.38 1575.11 Q1285.51 1575.11 1282.39 1574.54 Q1279.31 1573.99 1275.87 1572.88 L1275.87 1566.83 Q1279.11 1568.52 1282.27 1569.38 Q1285.42 1570.21 1288.5 1570.21 Q1292.64 1570.21 1294.87 1568.81 Q1297.1 1567.37 1297.1 1564.8 Q1297.1 1562.41 1295.47 1561.14 Q1293.88 1559.86 1288.44 1558.68 L1286.4 1558.21 Q1280.96 1557.06 1278.54 1554.71 Q1276.12 1552.32 1276.12 1548.18 Q1276.12 1543.15 1279.69 1540.42 Q1283.25 1537.68 1289.81 1537.68 Q1293.06 1537.68 1295.92 1538.16 Q1298.78 1538.63 1301.2 1539.59 Z" fill="#000000" fill-rule="nonzero" fill-opacity="1" /><path clip-path="url(#clip220)" d="M1318.23 1528.42 L1318.23 1538.54 L1330.29 1538.54 L1330.29 1543.09 L1318.23 1543.09 L1318.23 1562.44 Q1318.23 1566.8 1319.41 1568.04 Q1320.62 1569.28 1324.28 1569.28 L1330.29 1569.28 L1330.29 1574.19 L1324.28 1574.19 Q1317.5 1574.19 1314.92 1571.67 Q1312.34 1569.12 1312.34 1562.44 L1312.34 1543.09 L1308.05 1543.09 L1308.05 1538.54 L1312.34 1538.54 L1312.34 1528.42 L1318.23 1528.42 Z" fill="#000000" fill-rule="nonzero" fill-opacity="1" /><path clip-path="url(#clip220)" d="M1354.2 1556.27 Q1347.1 1556.27 1344.36 1557.89 Q1341.63 1559.51 1341.63 1563.43 Q1341.63 1566.55 1343.66 1568.39 Q1345.73 1570.21 1349.26 1570.21 Q1354.13 1570.21 1357.06 1566.77 Q1360.02 1563.3 1360.02 1557.57 L1360.02 1556.27 L1354.2 1556.27 M1365.88 1553.85 L1365.88 1574.19 L1360.02 1574.19 L1360.02 1568.77 Q1358.02 1572.02 1355.03 1573.58 Q1352.03 1575.11 1347.7 1575.11 Q1342.23 1575.11 1338.98 1572.05 Q1335.77 1568.97 1335.77 1563.81 Q1335.77 1557.79 1339.78 1554.74 Q1343.82 1551.68 1351.81 1551.68 L1360.02 1551.68 L1360.02 1551.11 Q1360.02 1547.07 1357.35 1544.87 Q1354.71 1542.64 1349.9 1542.64 Q1346.85 1542.64 1343.95 1543.38 Q1341.05 1544.11 1338.38 1545.57 L1338.38 1540.16 Q1341.59 1538.92 1344.62 1538.31 Q1347.64 1537.68 1350.51 1537.68 Q1358.24 1537.68 1362.06 1541.69 Q1365.88 1545.7 1365.88 1553.85 Z" fill="#000000" fill-rule="nonzero" fill-opacity="1" /><path clip-path="url(#clip220)" d="M1407.57 1552.67 L1407.57 1574.19 L1401.72 1574.19 L1401.72 1552.86 Q1401.72 1547.8 1399.74 1545.29 Q1397.77 1542.77 1393.82 1542.77 Q1389.08 1542.77 1386.34 1545.79 Q1383.61 1548.82 1383.61 1554.04 L1383.61 1574.19 L1377.72 1574.19 L1377.72 1538.54 L1383.61 1538.54 L1383.61 1544.08 Q1385.71 1540.86 1388.54 1539.27 Q1391.41 1537.68 1395.13 1537.68 Q1401.27 1537.68 1404.42 1541.5 Q1407.57 1545.29 1407.57 1552.67 Z" fill="#000000" fill-rule="nonzero" fill-opacity="1" /><path clip-path="url(#clip220)" d="M1442.71 1543.95 L1442.71 1524.66 L1448.57 1524.66 L1448.57 1574.19 L1442.71 1574.19 L1442.71 1568.84 Q1440.87 1572.02 1438.03 1573.58 Q1435.23 1575.11 1431.29 1575.11 Q1424.83 1575.11 1420.75 1569.95 Q1416.71 1564.8 1416.71 1556.39 Q1416.71 1547.99 1420.75 1542.83 Q1424.83 1537.68 1431.29 1537.68 Q1435.23 1537.68 1438.03 1539.24 Q1440.87 1540.77 1442.71 1543.95 M1422.76 1556.39 Q1422.76 1562.85 1425.4 1566.55 Q1428.07 1570.21 1432.72 1570.21 Q1437.37 1570.21 1440.04 1566.55 Q1442.71 1562.85 1442.71 1556.39 Q1442.71 1549.93 1440.04 1546.27 Q1437.37 1542.58 1432.72 1542.58 Q1428.07 1542.58 1425.4 1546.27 Q1422.76 1549.93 1422.76 1556.39 Z" fill="#000000" fill-rule="nonzero" fill-opacity="1" /><path clip-path="url(#clip220)" d="M1476.83 1556.27 Q1469.74 1556.27 1467 1557.89 Q1464.26 1559.51 1464.26 1563.43 Q1464.26 1566.55 1466.3 1568.39 Q1468.37 1570.21 1471.9 1570.21 Q1476.77 1570.21 1479.7 1566.77 Q1482.66 1563.3 1482.66 1557.57 L1482.66 1556.27 L1476.83 1556.27 M1488.51 1553.85 L1488.51 1574.19 L1482.66 1574.19 L1482.66 1568.77 Q1480.65 1572.02 1477.66 1573.58 Q1474.67 1575.11 1470.34 1575.11 Q1464.87 1575.11 1461.62 1572.05 Q1458.4 1568.97 1458.4 1563.81 Q1458.4 1557.79 1462.41 1554.74 Q1466.46 1551.68 1474.45 1551.68 L1482.66 1551.68 L1482.66 1551.11 Q1482.66 1547.07 1479.98 1544.87 Q1477.34 1542.64 1472.54 1542.64 Q1469.48 1542.64 1466.58 1543.38 Q1463.69 1544.11 1461.01 1545.57 L1461.01 1540.16 Q1464.23 1538.92 1467.25 1538.31 Q1470.28 1537.68 1473.14 1537.68 Q1480.88 1537.68 1484.69 1541.69 Q1488.51 1545.7 1488.51 1553.85 Z" fill="#000000" fill-rule="nonzero" fill-opacity="1" /><path clip-path="url(#clip220)" d="M1521.23 1544.01 Q1520.25 1543.44 1519.07 1543.18 Q1517.92 1542.9 1516.52 1542.9 Q1511.56 1542.9 1508.88 1546.14 Q1506.24 1549.36 1506.24 1555.41 L1506.24 1574.19 L1500.35 1574.19 L1500.35 1538.54 L1506.24 1538.54 L1506.24 1544.08 Q1508.09 1540.83 1511.05 1539.27 Q1514.01 1537.68 1518.24 1537.68 Q1518.85 1537.68 1519.58 1537.77 Q1520.31 1537.84 1521.2 1538 L1521.23 1544.01 Z" fill="#000000" fill-rule="nonzero" fill-opacity="1" /><path clip-path="url(#clip220)" d="M1549.69 1543.95 L1549.69 1524.66 L1555.54 1524.66 L1555.54 1574.19 L1549.69 1574.19 L1549.69 1568.84 Q1547.84 1572.02 1545.01 1573.58 Q1542.21 1575.11 1538.26 1575.11 Q1531.8 1575.11 1527.73 1569.95 Q1523.68 1564.8 1523.68 1556.39 Q1523.68 1547.99 1527.73 1542.83 Q1531.8 1537.68 1538.26 1537.68 Q1542.21 1537.68 1545.01 1539.24 Q1547.84 1540.77 1549.69 1543.95 M1529.73 1556.39 Q1529.73 1562.85 1532.37 1566.55 Q1535.05 1570.21 1539.69 1570.21 Q1544.34 1570.21 1547.01 1566.55 Q1549.69 1562.85 1549.69 1556.39 Q1549.69 1549.93 1547.01 1546.27 Q1544.34 1542.58 1539.69 1542.58 Q1535.05 1542.58 1532.37 1546.27 Q1529.73 1549.93 1529.73 1556.39 Z" fill="#000000" fill-rule="nonzero" fill-opacity="1" /><path clip-path="url(#clip220)" d="M1611.79 1543.95 L1611.79 1524.66 L1617.64 1524.66 L1617.64 1574.19 L1611.79 1574.19 L1611.79 1568.84 Q1609.94 1572.02 1607.11 1573.58 Q1604.31 1575.11 1600.36 1575.11 Q1593.9 1575.11 1589.82 1569.95 Q1585.78 1564.8 1585.78 1556.39 Q1585.78 1547.99 1589.82 1542.83 Q1593.9 1537.68 1600.36 1537.68 Q1604.31 1537.68 1607.11 1539.24 Q1609.94 1540.77 1611.79 1543.95 M1591.83 1556.39 Q1591.83 1562.85 1594.47 1566.55 Q1597.14 1570.21 1601.79 1570.21 Q1606.44 1570.21 1609.11 1566.55 Q1611.79 1562.85 1611.79 1556.39 Q1611.79 1549.93 1609.11 1546.27 Q1606.44 1542.58 1601.79 1542.58 Q1597.14 1542.58 1594.47 1546.27 Q1591.83 1549.93 1591.83 1556.39 Z" fill="#000000" fill-rule="nonzero" fill-opacity="1" /><path clip-path="url(#clip220)" d="M1660.2 1554.9 L1660.2 1557.76 L1633.27 1557.76 Q1633.65 1563.81 1636.9 1566.99 Q1640.18 1570.14 1646 1570.14 Q1649.38 1570.14 1652.53 1569.32 Q1655.71 1568.49 1658.83 1566.83 L1658.83 1572.37 Q1655.68 1573.71 1652.37 1574.41 Q1649.06 1575.11 1645.65 1575.11 Q1637.12 1575.11 1632.12 1570.14 Q1627.16 1565.18 1627.16 1556.71 Q1627.16 1547.96 1631.87 1542.83 Q1636.61 1537.68 1644.63 1537.68 Q1651.83 1537.68 1656 1542.33 Q1660.2 1546.94 1660.2 1554.9 M1654.34 1553.18 Q1654.28 1548.37 1651.64 1545.51 Q1649.03 1542.64 1644.7 1542.64 Q1639.8 1542.64 1636.84 1545.41 Q1633.91 1548.18 1633.46 1553.21 L1654.34 1553.18 Z" fill="#000000" fill-rule="nonzero" fill-opacity="1" /><path clip-path="url(#clip220)" d="M1665.61 1538.54 L1671.81 1538.54 L1682.95 1568.46 L1694.09 1538.54 L1700.3 1538.54 L1686.93 1574.19 L1678.98 1574.19 L1665.61 1538.54 Z" fill="#000000" fill-rule="nonzero" fill-opacity="1" /><path clip-path="url(#clip220)" d="M1708.39 1538.54 L1714.24 1538.54 L1714.24 1574.19 L1708.39 1574.19 L1708.39 1538.54 M1708.39 1524.66 L1714.24 1524.66 L1714.24 1532.08 L1708.39 1532.08 L1708.39 1524.66 Z" fill="#000000" fill-rule="nonzero" fill-opacity="1" /><path clip-path="url(#clip220)" d="M1742.7 1556.27 Q1735.6 1556.27 1732.86 1557.89 Q1730.12 1559.51 1730.12 1563.43 Q1730.12 1566.55 1732.16 1568.39 Q1734.23 1570.21 1737.76 1570.21 Q1742.63 1570.21 1745.56 1566.77 Q1748.52 1563.3 1748.52 1557.57 L1748.52 1556.27 L1742.7 1556.27 M1754.38 1553.85 L1754.38 1574.19 L1748.52 1574.19 L1748.52 1568.77 Q1746.52 1572.02 1743.52 1573.58 Q1740.53 1575.11 1736.2 1575.11 Q1730.73 1575.11 1727.48 1572.05 Q1724.27 1568.97 1724.27 1563.81 Q1724.27 1557.79 1728.28 1554.74 Q1732.32 1551.68 1740.31 1551.68 L1748.52 1551.68 L1748.52 1551.11 Q1748.52 1547.07 1745.85 1544.87 Q1743.21 1542.64 1738.4 1542.64 Q1735.34 1542.64 1732.45 1543.38 Q1729.55 1544.11 1726.88 1545.57 L1726.88 1540.16 Q1730.09 1538.92 1733.12 1538.31 Q1736.14 1537.68 1739 1537.68 Q1746.74 1537.68 1750.56 1541.69 Q1754.38 1545.7 1754.38 1553.85 Z" fill="#000000" fill-rule="nonzero" fill-opacity="1" /><path clip-path="url(#clip220)" d="M1772.23 1528.42 L1772.23 1538.54 L1784.3 1538.54 L1784.3 1543.09 L1772.23 1543.09 L1772.23 1562.44 Q1772.23 1566.8 1773.41 1568.04 Q1774.62 1569.28 1778.28 1569.28 L1784.3 1569.28 L1784.3 1574.19 L1778.28 1574.19 Q1771.5 1574.19 1768.92 1571.67 Q1766.35 1569.12 1766.35 1562.44 L1766.35 1543.09 L1762.05 1543.09 L1762.05 1538.54 L1766.35 1538.54 L1766.35 1528.42 L1772.23 1528.42 Z" fill="#000000" fill-rule="nonzero" fill-opacity="1" /><path clip-path="url(#clip220)" d="M1792 1538.54 L1797.86 1538.54 L1797.86 1574.19 L1792 1574.19 L1792 1538.54 M1792 1524.66 L1797.86 1524.66 L1797.86 1532.08 L1792 1532.08 L1792 1524.66 Z" fill="#000000" fill-rule="nonzero" fill-opacity="1" /><path clip-path="url(#clip220)" d="M1823.92 1542.64 Q1819.21 1542.64 1816.48 1546.34 Q1813.74 1550 1813.74 1556.39 Q1813.74 1562.79 1816.44 1566.48 Q1819.18 1570.14 1823.92 1570.14 Q1828.6 1570.14 1831.34 1566.45 Q1834.08 1562.76 1834.08 1556.39 Q1834.08 1550.06 1831.34 1546.37 Q1828.6 1542.64 1823.92 1542.64 M1823.92 1537.68 Q1831.56 1537.68 1835.92 1542.64 Q1840.28 1547.61 1840.28 1556.39 Q1840.28 1565.15 1835.92 1570.14 Q1831.56 1575.11 1823.92 1575.11 Q1816.25 1575.11 1811.89 1570.14 Q1807.56 1565.15 1807.56 1556.39 Q1807.56 1547.61 1811.89 1542.64 Q1816.25 1537.68 1823.92 1537.68 Z" fill="#000000" fill-rule="nonzero" fill-opacity="1" /><path clip-path="url(#clip220)" d="M1879.62 1552.67 L1879.62 1574.19 L1873.77 1574.19 L1873.77 1552.86 Q1873.77 1547.8 1871.79 1545.29 Q1869.82 1542.77 1865.87 1542.77 Q1861.13 1542.77 1858.39 1545.79 Q1855.66 1548.82 1855.66 1554.04 L1855.66 1574.19 L1849.77 1574.19 L1849.77 1538.54 L1855.66 1538.54 L1855.66 1544.08 Q1857.76 1540.86 1860.59 1539.27 Q1863.45 1537.68 1867.18 1537.68 Q1873.32 1537.68 1876.47 1541.5 Q1879.62 1545.29 1879.62 1552.67 Z" fill="#000000" fill-rule="nonzero" fill-opacity="1" /><polyline clip-path="url(#clip220)" style="stroke:#000000; stroke-linecap:round; stroke-linejoin:round; stroke-width:4; stroke-opacity:1; fill:none" points="269.352,1410.9 269.352,123.472 "/>
<polyline clip-path="url(#clip220)" style="stroke:#000000; stroke-linecap:round; stroke-linejoin:round; stroke-width:4; stroke-opacity:1; fill:none" points="269.352,1241.98 288.25,1241.98 "/>
<polyline clip-path="url(#clip220)" style="stroke:#000000; stroke-linecap:round; stroke-linejoin:round; stroke-width:4; stroke-opacity:1; fill:none" points="269.352,997.836 288.25,997.836 "/>
<polyline clip-path="url(#clip220)" style="stroke:#000000; stroke-linecap:round; stroke-linejoin:round; stroke-width:4; stroke-opacity:1; fill:none" points="269.352,753.688 288.25,753.688 "/>
<polyline clip-path="url(#clip220)" style="stroke:#000000; stroke-linecap:round; stroke-linejoin:round; stroke-width:4; stroke-opacity:1; fill:none" points="269.352,509.541 288.25,509.541 "/>
<polyline clip-path="url(#clip220)" style="stroke:#000000; stroke-linecap:round; stroke-linejoin:round; stroke-width:4; stroke-opacity:1; fill:none" points="269.352,265.393 288.25,265.393 "/>
<path clip-path="url(#clip220)" d="M50.9921 1242.44 L80.6679 1242.44 L80.6679 1246.37 L50.9921 1246.37 L50.9921 1242.44 Z" fill="#000000" fill-rule="nonzero" fill-opacity="1" /><path clip-path="url(#clip220)" d="M91.5706 1255.33 L99.2095 1255.33 L99.2095 1228.96 L90.8993 1230.63 L90.8993 1226.37 L99.1632 1224.7 L103.839 1224.7 L103.839 1255.33 L111.478 1255.33 L111.478 1259.26 L91.5706 1259.26 L91.5706 1255.33 Z" fill="#000000" fill-rule="nonzero" fill-opacity="1" /><path clip-path="url(#clip220)" d="M130.922 1227.78 Q127.311 1227.78 125.482 1231.35 Q123.677 1234.89 123.677 1242.02 Q123.677 1249.13 125.482 1252.69 Q127.311 1256.23 130.922 1256.23 Q134.556 1256.23 136.362 1252.69 Q138.191 1249.13 138.191 1242.02 Q138.191 1234.89 136.362 1231.35 Q134.556 1227.78 130.922 1227.78 M130.922 1224.08 Q136.732 1224.08 139.788 1228.69 Q142.867 1233.27 142.867 1242.02 Q142.867 1250.75 139.788 1255.35 Q136.732 1259.94 130.922 1259.94 Q125.112 1259.94 122.033 1255.35 Q118.978 1250.75 118.978 1242.02 Q118.978 1233.27 122.033 1228.69 Q125.112 1224.08 130.922 1224.08 Z" fill="#000000" fill-rule="nonzero" fill-opacity="1" /><path clip-path="url(#clip220)" d="M161.084 1227.78 Q157.473 1227.78 155.644 1231.35 Q153.839 1234.89 153.839 1242.02 Q153.839 1249.13 155.644 1252.69 Q157.473 1256.23 161.084 1256.23 Q164.718 1256.23 166.524 1252.69 Q168.353 1249.13 168.353 1242.02 Q168.353 1234.89 166.524 1231.35 Q164.718 1227.78 161.084 1227.78 M161.084 1224.08 Q166.894 1224.08 169.95 1228.69 Q173.029 1233.27 173.029 1242.02 Q173.029 1250.75 169.95 1255.35 Q166.894 1259.94 161.084 1259.94 Q155.274 1259.94 152.195 1255.35 Q149.14 1250.75 149.14 1242.02 Q149.14 1233.27 152.195 1228.69 Q155.274 1224.08 161.084 1224.08 Z" fill="#000000" fill-rule="nonzero" fill-opacity="1" /><path clip-path="url(#clip220)" d="M191.246 1227.78 Q187.635 1227.78 185.806 1231.35 Q184.001 1234.89 184.001 1242.02 Q184.001 1249.13 185.806 1252.69 Q187.635 1256.23 191.246 1256.23 Q194.88 1256.23 196.686 1252.69 Q198.514 1249.13 198.514 1242.02 Q198.514 1234.89 196.686 1231.35 Q194.88 1227.78 191.246 1227.78 M191.246 1224.08 Q197.056 1224.08 200.112 1228.69 Q203.19 1233.27 203.19 1242.02 Q203.19 1250.75 200.112 1255.35 Q197.056 1259.94 191.246 1259.94 Q185.436 1259.94 182.357 1255.35 Q179.302 1250.75 179.302 1242.02 Q179.302 1233.27 182.357 1228.69 Q185.436 1224.08 191.246 1224.08 Z" fill="#000000" fill-rule="nonzero" fill-opacity="1" /><path clip-path="url(#clip220)" d="M221.408 1227.78 Q217.797 1227.78 215.968 1231.35 Q214.163 1234.89 214.163 1242.02 Q214.163 1249.13 215.968 1252.69 Q217.797 1256.23 221.408 1256.23 Q225.042 1256.23 226.848 1252.69 Q228.676 1249.13 228.676 1242.02 Q228.676 1234.89 226.848 1231.35 Q225.042 1227.78 221.408 1227.78 M221.408 1224.08 Q227.218 1224.08 230.274 1228.69 Q233.352 1233.27 233.352 1242.02 Q233.352 1250.75 230.274 1255.35 Q227.218 1259.94 221.408 1259.94 Q215.598 1259.94 212.519 1255.35 Q209.463 1250.75 209.463 1242.02 Q209.463 1233.27 212.519 1228.69 Q215.598 1224.08 221.408 1224.08 Z" fill="#000000" fill-rule="nonzero" fill-opacity="1" /><path clip-path="url(#clip220)" d="M81.154 998.288 L110.83 998.288 L110.83 1002.22 L81.154 1002.22 L81.154 998.288 Z" fill="#000000" fill-rule="nonzero" fill-opacity="1" /><path clip-path="url(#clip220)" d="M130.922 998.704 Q127.589 998.704 125.668 1000.49 Q123.77 1002.27 123.77 1005.39 Q123.77 1008.52 125.668 1010.3 Q127.589 1012.08 130.922 1012.08 Q134.256 1012.08 136.177 1010.3 Q138.098 1008.5 138.098 1005.39 Q138.098 1002.27 136.177 1000.49 Q134.279 998.704 130.922 998.704 M126.246 996.714 Q123.237 995.973 121.547 993.913 Q119.881 991.853 119.881 988.89 Q119.881 984.746 122.82 982.339 Q125.783 979.931 130.922 979.931 Q136.084 979.931 139.024 982.339 Q141.964 984.746 141.964 988.89 Q141.964 991.853 140.274 993.913 Q138.607 995.973 135.621 996.714 Q139.001 997.501 140.876 999.792 Q142.774 1002.08 142.774 1005.39 Q142.774 1010.42 139.695 1013.1 Q136.64 1015.79 130.922 1015.79 Q125.205 1015.79 122.126 1013.1 Q119.07 1010.42 119.07 1005.39 Q119.07 1002.08 120.969 999.792 Q122.867 997.501 126.246 996.714 M124.533 989.329 Q124.533 992.015 126.2 993.519 Q127.89 995.024 130.922 995.024 Q133.931 995.024 135.621 993.519 Q137.334 992.015 137.334 989.329 Q137.334 986.644 135.621 985.14 Q133.931 983.635 130.922 983.635 Q127.89 983.635 126.2 985.14 Q124.533 986.644 124.533 989.329 Z" fill="#000000" fill-rule="nonzero" fill-opacity="1" /><path clip-path="url(#clip220)" d="M161.084 983.635 Q157.473 983.635 155.644 987.2 Q153.839 990.741 153.839 997.871 Q153.839 1004.98 155.644 1008.54 Q157.473 1012.08 161.084 1012.08 Q164.718 1012.08 166.524 1008.54 Q168.353 1004.98 168.353 997.871 Q168.353 990.741 166.524 987.2 Q164.718 983.635 161.084 983.635 M161.084 979.931 Q166.894 979.931 169.95 984.538 Q173.029 989.121 173.029 997.871 Q173.029 1006.6 169.95 1011.2 Q166.894 1015.79 161.084 1015.79 Q155.274 1015.79 152.195 1011.2 Q149.14 1006.6 149.14 997.871 Q149.14 989.121 152.195 984.538 Q155.274 979.931 161.084 979.931 Z" fill="#000000" fill-rule="nonzero" fill-opacity="1" /><path clip-path="url(#clip220)" d="M191.246 983.635 Q187.635 983.635 185.806 987.2 Q184.001 990.741 184.001 997.871 Q184.001 1004.98 185.806 1008.54 Q187.635 1012.08 191.246 1012.08 Q194.88 1012.08 196.686 1008.54 Q198.514 1004.98 198.514 997.871 Q198.514 990.741 196.686 987.2 Q194.88 983.635 191.246 983.635 M191.246 979.931 Q197.056 979.931 200.112 984.538 Q203.19 989.121 203.19 997.871 Q203.19 1006.6 200.112 1011.2 Q197.056 1015.79 191.246 1015.79 Q185.436 1015.79 182.357 1011.2 Q179.302 1006.6 179.302 997.871 Q179.302 989.121 182.357 984.538 Q185.436 979.931 191.246 979.931 Z" fill="#000000" fill-rule="nonzero" fill-opacity="1" /><path clip-path="url(#clip220)" d="M221.408 983.635 Q217.797 983.635 215.968 987.2 Q214.163 990.741 214.163 997.871 Q214.163 1004.98 215.968 1008.54 Q217.797 1012.08 221.408 1012.08 Q225.042 1012.08 226.848 1008.54 Q228.676 1004.98 228.676 997.871 Q228.676 990.741 226.848 987.2 Q225.042 983.635 221.408 983.635 M221.408 979.931 Q227.218 979.931 230.274 984.538 Q233.352 989.121 233.352 997.871 Q233.352 1006.6 230.274 1011.2 Q227.218 1015.79 221.408 1015.79 Q215.598 1015.79 212.519 1011.2 Q209.463 1006.6 209.463 997.871 Q209.463 989.121 212.519 984.538 Q215.598 979.931 221.408 979.931 Z" fill="#000000" fill-rule="nonzero" fill-opacity="1" /><path clip-path="url(#clip220)" d="M81.154 754.14 L110.83 754.14 L110.83 758.075 L81.154 758.075 L81.154 754.14 Z" fill="#000000" fill-rule="nonzero" fill-opacity="1" /><path clip-path="url(#clip220)" d="M131.501 751.825 Q128.353 751.825 126.501 753.978 Q124.672 756.131 124.672 759.881 Q124.672 763.607 126.501 765.783 Q128.353 767.936 131.501 767.936 Q134.649 767.936 136.478 765.783 Q138.33 763.607 138.33 759.881 Q138.33 756.131 136.478 753.978 Q134.649 751.825 131.501 751.825 M140.783 737.172 L140.783 741.432 Q139.024 740.598 137.219 740.158 Q135.436 739.719 133.677 739.719 Q129.047 739.719 126.594 742.844 Q124.163 745.969 123.816 752.288 Q125.182 750.274 127.242 749.209 Q129.302 748.121 131.779 748.121 Q136.987 748.121 139.996 751.293 Q143.029 754.441 143.029 759.881 Q143.029 765.205 139.881 768.422 Q136.732 771.64 131.501 771.64 Q125.506 771.64 122.334 767.056 Q119.163 762.45 119.163 753.723 Q119.163 745.529 123.052 740.668 Q126.941 735.783 133.492 735.783 Q135.251 735.783 137.033 736.131 Q138.839 736.478 140.783 737.172 Z" fill="#000000" fill-rule="nonzero" fill-opacity="1" /><path clip-path="url(#clip220)" d="M161.084 739.487 Q157.473 739.487 155.644 743.052 Q153.839 746.594 153.839 753.723 Q153.839 760.83 155.644 764.394 Q157.473 767.936 161.084 767.936 Q164.718 767.936 166.524 764.394 Q168.353 760.83 168.353 753.723 Q168.353 746.594 166.524 743.052 Q164.718 739.487 161.084 739.487 M161.084 735.783 Q166.894 735.783 169.95 740.39 Q173.029 744.973 173.029 753.723 Q173.029 762.45 169.95 767.056 Q166.894 771.64 161.084 771.64 Q155.274 771.64 152.195 767.056 Q149.14 762.45 149.14 753.723 Q149.14 744.973 152.195 740.39 Q155.274 735.783 161.084 735.783 Z" fill="#000000" fill-rule="nonzero" fill-opacity="1" /><path clip-path="url(#clip220)" d="M191.246 739.487 Q187.635 739.487 185.806 743.052 Q184.001 746.594 184.001 753.723 Q184.001 760.83 185.806 764.394 Q187.635 767.936 191.246 767.936 Q194.88 767.936 196.686 764.394 Q198.514 760.83 198.514 753.723 Q198.514 746.594 196.686 743.052 Q194.88 739.487 191.246 739.487 M191.246 735.783 Q197.056 735.783 200.112 740.39 Q203.19 744.973 203.19 753.723 Q203.19 762.45 200.112 767.056 Q197.056 771.64 191.246 771.64 Q185.436 771.64 182.357 767.056 Q179.302 762.45 179.302 753.723 Q179.302 744.973 182.357 740.39 Q185.436 735.783 191.246 735.783 Z" fill="#000000" fill-rule="nonzero" fill-opacity="1" /><path clip-path="url(#clip220)" d="M221.408 739.487 Q217.797 739.487 215.968 743.052 Q214.163 746.594 214.163 753.723 Q214.163 760.83 215.968 764.394 Q217.797 767.936 221.408 767.936 Q225.042 767.936 226.848 764.394 Q228.676 760.83 228.676 753.723 Q228.676 746.594 226.848 743.052 Q225.042 739.487 221.408 739.487 M221.408 735.783 Q227.218 735.783 230.274 740.39 Q233.352 744.973 233.352 753.723 Q233.352 762.45 230.274 767.056 Q227.218 771.64 221.408 771.64 Q215.598 771.64 212.519 767.056 Q209.463 762.45 209.463 753.723 Q209.463 744.973 212.519 740.39 Q215.598 735.783 221.408 735.783 Z" fill="#000000" fill-rule="nonzero" fill-opacity="1" /><path clip-path="url(#clip220)" d="M81.154 509.992 L110.83 509.992 L110.83 513.927 L81.154 513.927 L81.154 509.992 Z" fill="#000000" fill-rule="nonzero" fill-opacity="1" /><path clip-path="url(#clip220)" d="M133.769 496.335 L121.964 514.784 L133.769 514.784 L133.769 496.335 M132.543 492.261 L138.422 492.261 L138.422 514.784 L143.353 514.784 L143.353 518.672 L138.422 518.672 L138.422 526.821 L133.769 526.821 L133.769 518.672 L118.168 518.672 L118.168 514.159 L132.543 492.261 Z" fill="#000000" fill-rule="nonzero" fill-opacity="1" /><path clip-path="url(#clip220)" d="M161.084 495.339 Q157.473 495.339 155.644 498.904 Q153.839 502.446 153.839 509.575 Q153.839 516.682 155.644 520.246 Q157.473 523.788 161.084 523.788 Q164.718 523.788 166.524 520.246 Q168.353 516.682 168.353 509.575 Q168.353 502.446 166.524 498.904 Q164.718 495.339 161.084 495.339 M161.084 491.636 Q166.894 491.636 169.95 496.242 Q173.029 500.825 173.029 509.575 Q173.029 518.302 169.95 522.909 Q166.894 527.492 161.084 527.492 Q155.274 527.492 152.195 522.909 Q149.14 518.302 149.14 509.575 Q149.14 500.825 152.195 496.242 Q155.274 491.636 161.084 491.636 Z" fill="#000000" fill-rule="nonzero" fill-opacity="1" /><path clip-path="url(#clip220)" d="M191.246 495.339 Q187.635 495.339 185.806 498.904 Q184.001 502.446 184.001 509.575 Q184.001 516.682 185.806 520.246 Q187.635 523.788 191.246 523.788 Q194.88 523.788 196.686 520.246 Q198.514 516.682 198.514 509.575 Q198.514 502.446 196.686 498.904 Q194.88 495.339 191.246 495.339 M191.246 491.636 Q197.056 491.636 200.112 496.242 Q203.19 500.825 203.19 509.575 Q203.19 518.302 200.112 522.909 Q197.056 527.492 191.246 527.492 Q185.436 527.492 182.357 522.909 Q179.302 518.302 179.302 509.575 Q179.302 500.825 182.357 496.242 Q185.436 491.636 191.246 491.636 Z" fill="#000000" fill-rule="nonzero" fill-opacity="1" /><path clip-path="url(#clip220)" d="M221.408 495.339 Q217.797 495.339 215.968 498.904 Q214.163 502.446 214.163 509.575 Q214.163 516.682 215.968 520.246 Q217.797 523.788 221.408 523.788 Q225.042 523.788 226.848 520.246 Q228.676 516.682 228.676 509.575 Q228.676 502.446 226.848 498.904 Q225.042 495.339 221.408 495.339 M221.408 491.636 Q227.218 491.636 230.274 496.242 Q233.352 500.825 233.352 509.575 Q233.352 518.302 230.274 522.909 Q227.218 527.492 221.408 527.492 Q215.598 527.492 212.519 522.909 Q209.463 518.302 209.463 509.575 Q209.463 500.825 212.519 496.242 Q215.598 491.636 221.408 491.636 Z" fill="#000000" fill-rule="nonzero" fill-opacity="1" /><path clip-path="url(#clip220)" d="M81.154 265.844 L110.83 265.844 L110.83 269.779 L81.154 269.779 L81.154 265.844 Z" fill="#000000" fill-rule="nonzero" fill-opacity="1" /><path clip-path="url(#clip220)" d="M124.95 278.737 L141.269 278.737 L141.269 282.673 L119.325 282.673 L119.325 278.737 Q121.987 275.983 126.57 271.353 Q131.177 266.7 132.357 265.358 Q134.603 262.835 135.482 261.099 Q136.385 259.339 136.385 257.65 Q136.385 254.895 134.441 253.159 Q132.519 251.423 129.418 251.423 Q127.219 251.423 124.765 252.187 Q122.334 252.951 119.557 254.501 L119.557 249.779 Q122.381 248.645 124.834 248.066 Q127.288 247.488 129.325 247.488 Q134.695 247.488 137.89 250.173 Q141.084 252.858 141.084 257.349 Q141.084 259.478 140.274 261.4 Q139.487 263.298 137.381 265.89 Q136.802 266.562 133.7 269.779 Q130.598 272.974 124.95 278.737 Z" fill="#000000" fill-rule="nonzero" fill-opacity="1" /><path clip-path="url(#clip220)" d="M161.084 251.191 Q157.473 251.191 155.644 254.756 Q153.839 258.298 153.839 265.427 Q153.839 272.534 155.644 276.099 Q157.473 279.64 161.084 279.64 Q164.718 279.64 166.524 276.099 Q168.353 272.534 168.353 265.427 Q168.353 258.298 166.524 254.756 Q164.718 251.191 161.084 251.191 M161.084 247.488 Q166.894 247.488 169.95 252.094 Q173.029 256.677 173.029 265.427 Q173.029 274.154 169.95 278.761 Q166.894 283.344 161.084 283.344 Q155.274 283.344 152.195 278.761 Q149.14 274.154 149.14 265.427 Q149.14 256.677 152.195 252.094 Q155.274 247.488 161.084 247.488 Z" fill="#000000" fill-rule="nonzero" fill-opacity="1" /><path clip-path="url(#clip220)" d="M191.246 251.191 Q187.635 251.191 185.806 254.756 Q184.001 258.298 184.001 265.427 Q184.001 272.534 185.806 276.099 Q187.635 279.64 191.246 279.64 Q194.88 279.64 196.686 276.099 Q198.514 272.534 198.514 265.427 Q198.514 258.298 196.686 254.756 Q194.88 251.191 191.246 251.191 M191.246 247.488 Q197.056 247.488 200.112 252.094 Q203.19 256.677 203.19 265.427 Q203.19 274.154 200.112 278.761 Q197.056 283.344 191.246 283.344 Q185.436 283.344 182.357 278.761 Q179.302 274.154 179.302 265.427 Q179.302 256.677 182.357 252.094 Q185.436 247.488 191.246 247.488 Z" fill="#000000" fill-rule="nonzero" fill-opacity="1" /><path clip-path="url(#clip220)" d="M221.408 251.191 Q217.797 251.191 215.968 254.756 Q214.163 258.298 214.163 265.427 Q214.163 272.534 215.968 276.099 Q217.797 279.64 221.408 279.64 Q225.042 279.64 226.848 276.099 Q228.676 272.534 228.676 265.427 Q228.676 258.298 226.848 254.756 Q225.042 251.191 221.408 251.191 M221.408 247.488 Q227.218 247.488 230.274 252.094 Q233.352 256.677 233.352 265.427 Q233.352 274.154 230.274 278.761 Q227.218 283.344 221.408 283.344 Q215.598 283.344 212.519 278.761 Q209.463 274.154 209.463 265.427 Q209.463 256.677 212.519 252.094 Q215.598 247.488 221.408 247.488 Z" fill="#000000" fill-rule="nonzero" fill-opacity="1" /><path clip-path="url(#clip220)" d="M1032.29 12.096 L1040.47 12.096 L1040.47 65.6895 L1069.92 65.6895 L1069.92 72.576 L1032.29 72.576 L1032.29 12.096 Z" fill="#000000" fill-rule="nonzero" fill-opacity="1" /><path clip-path="url(#clip220)" d="M1094.31 32.4315 Q1088.32 32.4315 1084.83 37.1306 Q1081.35 41.7891 1081.35 49.9314 Q1081.35 58.0738 1084.79 62.7728 Q1088.27 67.4314 1094.31 67.4314 Q1100.27 67.4314 1103.75 62.7323 Q1107.23 58.0333 1107.23 49.9314 Q1107.23 41.8701 1103.75 37.1711 Q1100.27 32.4315 1094.31 32.4315 M1094.31 26.1121 Q1104.03 26.1121 1109.58 32.4315 Q1115.13 38.7509 1115.13 49.9314 Q1115.13 61.0714 1109.58 67.4314 Q1104.03 73.7508 1094.31 73.7508 Q1084.55 73.7508 1079 67.4314 Q1073.49 61.0714 1073.49 49.9314 Q1073.49 38.7509 1079 32.4315 Q1084.55 26.1121 1094.31 26.1121 Z" fill="#000000" fill-rule="nonzero" fill-opacity="1" /><path clip-path="url(#clip220)" d="M1157.34 49.3643 Q1157.34 41.2625 1153.98 36.8065 Q1150.66 32.3505 1144.62 32.3505 Q1138.63 32.3505 1135.27 36.8065 Q1131.94 41.2625 1131.94 49.3643 Q1131.94 57.4256 1135.27 61.8816 Q1138.63 66.3376 1144.62 66.3376 Q1150.66 66.3376 1153.98 61.8816 Q1157.34 57.4256 1157.34 49.3643 M1164.8 66.9452 Q1164.8 78.5308 1159.65 84.1616 Q1154.51 89.8329 1143.89 89.8329 Q1139.96 89.8329 1136.48 89.2252 Q1133 88.6581 1129.72 87.4428 L1129.72 80.1917 Q1133 81.9741 1136.2 82.8248 Q1139.4 83.6755 1142.72 83.6755 Q1150.05 83.6755 1153.7 79.8271 Q1157.34 76.0193 1157.34 68.282 L1157.34 64.5957 Q1155.03 68.6061 1151.43 70.5911 Q1147.82 72.576 1142.8 72.576 Q1134.45 72.576 1129.35 66.2161 Q1124.25 59.8562 1124.25 49.3643 Q1124.25 38.832 1129.35 32.472 Q1134.45 26.1121 1142.8 26.1121 Q1147.82 26.1121 1151.43 28.0971 Q1155.03 30.082 1157.34 34.0924 L1157.34 27.2059 L1164.8 27.2059 L1164.8 66.9452 Z" fill="#000000" fill-rule="nonzero" fill-opacity="1" /><path clip-path="url(#clip220)" d="M1176.38 46.5287 L1198.22 46.5287 L1198.22 53.1722 L1176.38 53.1722 L1176.38 46.5287 Z" fill="#000000" fill-rule="nonzero" fill-opacity="1" /><path clip-path="url(#clip220)" d="M1210.09 9.54393 L1217.54 9.54393 L1217.54 72.576 L1210.09 72.576 L1210.09 9.54393 Z" fill="#000000" fill-rule="nonzero" fill-opacity="1" /><path clip-path="url(#clip220)" d="M1233.13 27.2059 L1240.59 27.2059 L1240.59 72.576 L1233.13 72.576 L1233.13 27.2059 M1233.13 9.54393 L1240.59 9.54393 L1240.59 18.9825 L1233.13 18.9825 L1233.13 9.54393 Z" fill="#000000" fill-rule="nonzero" fill-opacity="1" /><path clip-path="url(#clip220)" d="M1255.9 9.54393 L1263.4 9.54393 L1263.4 46.7717 L1285.63 27.2059 L1295.15 27.2059 L1271.09 48.4326 L1296.17 72.576 L1286.44 72.576 L1263.4 50.4176 L1263.4 72.576 L1255.9 72.576 L1255.9 9.54393 Z" fill="#000000" fill-rule="nonzero" fill-opacity="1" /><path clip-path="url(#clip220)" d="M1340.08 48.0275 L1340.08 51.6733 L1305.81 51.6733 Q1306.29 59.3701 1310.43 63.421 Q1314.6 67.4314 1322.01 67.4314 Q1326.31 67.4314 1330.32 66.3781 Q1334.37 65.3249 1338.34 63.2184 L1338.34 70.267 Q1334.33 71.9684 1330.11 72.8596 Q1325.9 73.7508 1321.57 73.7508 Q1310.71 73.7508 1304.35 67.4314 Q1298.03 61.1119 1298.03 50.3365 Q1298.03 39.1965 1304.03 32.6746 Q1310.06 26.1121 1320.27 26.1121 Q1329.42 26.1121 1334.73 32.0264 Q1340.08 37.9003 1340.08 48.0275 M1332.63 45.84 Q1332.54 39.7232 1329.18 36.0774 Q1325.86 32.4315 1320.35 32.4315 Q1314.11 32.4315 1310.35 35.9558 Q1306.62 39.4801 1306.05 45.8805 L1332.63 45.84 Z" fill="#000000" fill-rule="nonzero" fill-opacity="1" /><path clip-path="url(#clip220)" d="M1352.31 9.54393 L1359.77 9.54393 L1359.77 72.576 L1352.31 72.576 L1352.31 9.54393 Z" fill="#000000" fill-rule="nonzero" fill-opacity="1" /><path clip-path="url(#clip220)" d="M1375.36 27.2059 L1382.82 27.2059 L1382.82 72.576 L1375.36 72.576 L1375.36 27.2059 M1375.36 9.54393 L1382.82 9.54393 L1382.82 18.9825 L1375.36 18.9825 L1375.36 9.54393 Z" fill="#000000" fill-rule="nonzero" fill-opacity="1" /><path clip-path="url(#clip220)" d="M1436.13 45.1919 L1436.13 72.576 L1428.67 72.576 L1428.67 45.4349 Q1428.67 38.994 1426.16 35.7938 Q1423.65 32.5936 1418.63 32.5936 Q1412.59 32.5936 1409.11 36.4419 Q1405.62 40.2903 1405.62 46.9338 L1405.62 72.576 L1398.13 72.576 L1398.13 9.54393 L1405.62 9.54393 L1405.62 34.2544 Q1408.3 30.163 1411.9 28.1376 Q1415.55 26.1121 1420.29 26.1121 Q1428.1 26.1121 1432.12 30.9732 Q1436.13 35.7938 1436.13 45.1919 Z" fill="#000000" fill-rule="nonzero" fill-opacity="1" /><path clip-path="url(#clip220)" d="M1468.57 32.4315 Q1462.58 32.4315 1459.09 37.1306 Q1455.61 41.7891 1455.61 49.9314 Q1455.61 58.0738 1459.05 62.7728 Q1462.54 67.4314 1468.57 67.4314 Q1474.53 67.4314 1478.01 62.7323 Q1481.5 58.0333 1481.5 49.9314 Q1481.5 41.8701 1478.01 37.1711 Q1474.53 32.4315 1468.57 32.4315 M1468.57 26.1121 Q1478.3 26.1121 1483.85 32.4315 Q1489.4 38.7509 1489.4 49.9314 Q1489.4 61.0714 1483.85 67.4314 Q1478.3 73.7508 1468.57 73.7508 Q1458.81 73.7508 1453.26 67.4314 Q1447.75 61.0714 1447.75 49.9314 Q1447.75 38.7509 1453.26 32.4315 Q1458.81 26.1121 1468.57 26.1121 Z" fill="#000000" fill-rule="nonzero" fill-opacity="1" /><path clip-path="url(#clip220)" d="M1519.33 32.4315 Q1513.34 32.4315 1509.85 37.1306 Q1506.37 41.7891 1506.37 49.9314 Q1506.37 58.0738 1509.81 62.7728 Q1513.3 67.4314 1519.33 67.4314 Q1525.29 67.4314 1528.77 62.7323 Q1532.25 58.0333 1532.25 49.9314 Q1532.25 41.8701 1528.77 37.1711 Q1525.29 32.4315 1519.33 32.4315 M1519.33 26.1121 Q1529.05 26.1121 1534.6 32.4315 Q1540.15 38.7509 1540.15 49.9314 Q1540.15 61.0714 1534.6 67.4314 Q1529.05 73.7508 1519.33 73.7508 Q1509.57 73.7508 1504.02 67.4314 Q1498.51 61.0714 1498.51 49.9314 Q1498.51 38.7509 1504.02 32.4315 Q1509.57 26.1121 1519.33 26.1121 Z" fill="#000000" fill-rule="nonzero" fill-opacity="1" /><path clip-path="url(#clip220)" d="M1582.36 34.0924 L1582.36 9.54393 L1589.82 9.54393 L1589.82 72.576 L1582.36 72.576 L1582.36 65.7705 Q1580.01 69.8214 1576.41 71.8063 Q1572.84 73.7508 1567.82 73.7508 Q1559.6 73.7508 1554.41 67.1883 Q1549.27 60.6258 1549.27 49.9314 Q1549.27 39.2371 1554.41 32.6746 Q1559.6 26.1121 1567.82 26.1121 Q1572.84 26.1121 1576.41 28.0971 Q1580.01 30.0415 1582.36 34.0924 M1556.96 49.9314 Q1556.96 58.1548 1560.33 62.8538 Q1563.73 67.5124 1569.64 67.5124 Q1575.56 67.5124 1578.96 62.8538 Q1582.36 58.1548 1582.36 49.9314 Q1582.36 41.7081 1578.96 37.0496 Q1575.56 32.3505 1569.64 32.3505 Q1563.73 32.3505 1560.33 37.0496 Q1556.96 41.7081 1556.96 49.9314 Z" fill="#000000" fill-rule="nonzero" fill-opacity="1" /><polyline clip-path="url(#clip222)" style="stroke:#009af9; stroke-linecap:round; stroke-linejoin:round; stroke-width:4; stroke-opacity:1; fill:none" points="328.317,1374.46 361.63,1122.96 394.943,1033.98 428.256,627.329 461.569,446.422 494.882,374.954 528.195,323.56 561.508,255.924 594.822,237.679 628.135,223.29 661.448,206.685 694.761,200.755 728.074,192.467 761.387,183.505 794.7,176.056 828.014,174.98 861.327,171.459 894.64,166.884 927.953,164.654 961.266,163.604 994.579,161.297 1027.89,160.981 1061.21,160.381 1094.52,160.05 1127.83,160.201 1161.14,160.311 1194.46,160.71 1227.77,161.502 1261.08,162.515 1294.4,163.307 1327.71,165.267 1361.02,166.94 1394.34,168.951 1427.65,171.524 1460.96,173.955 1494.28,176.541 1527.59,179.617 1560.9,182.912 1594.22,187.215 1627.53,190.034 1660.84,194.105 1694.16,198.935 1727.47,202.893 1760.78,207.381 1794.09,211.883 1827.41,216.97 1860.72,221.544 1894.03,226.588 1927.35,231.719 1960.66,236.483 1993.97,242.074 2027.29,247.217 2060.6,252.723 2093.91,258.522 2127.23,264.2 2160.54,269.277 2193.85,274.814 2227.17,280.27 2260.48,286.38 2293.79,292.434 "/>
<polyline clip-path="url(#clip222)" style="stroke:#008000; stroke-linecap:round; stroke-linejoin:round; stroke-width:4; stroke-opacity:1; fill:none" points="328.317,1313.25 361.63,1115.48 394.943,847.59 428.256,634.532 461.569,496.839 494.882,343.143 528.195,324.73 561.508,245.987 594.822,239.335 628.135,219.828 661.448,204.45 694.761,197.492 728.074,186.736 761.387,190.201 794.7,180.298 828.014,171.13 861.327,171.134 894.64,167.262 927.953,166.82 961.266,163.579 994.579,163.09 1027.89,160.885 1061.21,160.743 1094.52,160.294 1127.83,159.909 1161.14,160.365 1194.46,160.697 1227.77,161.336 1261.08,162.283 1294.4,163.62 1327.71,164.69 1361.02,166.896 1394.34,168.882 1427.65,171.009 1460.96,173.775 1494.28,176.589 1527.59,180.053 1560.9,182.899 1594.22,186.767 1627.53,190.319 1660.84,194.209 1694.16,198.569 1727.47,202.758 1760.78,207.386 1794.09,212.329 1827.41,216.98 1860.72,221.441 1894.03,226.821 1927.35,231.692 1960.66,237.384 1993.97,242.901 2027.29,247.937 2060.6,252.863 2093.91,259.206 2127.23,264.749 2160.54,270.229 2193.85,276.674 2227.17,282.021 2260.48,287.272 2293.79,293.29 "/>
<polyline clip-path="url(#clip222)" style="stroke:#0000ff; stroke-linecap:round; stroke-linejoin:round; stroke-width:4; stroke-opacity:1; fill:none" stroke-dasharray="16, 10" points="1094.52,2698.32 1094.52,-1163.95 "/>
<path clip-path="url(#clip220)" d="M1907.56 1367.98 L2283.31 1367.98 L2283.31 1212.46 L1907.56 1212.46  Z" fill="#ffffff" fill-rule="evenodd" fill-opacity="1"/>
<polyline clip-path="url(#clip220)" style="stroke:#000000; stroke-linecap:round; stroke-linejoin:round; stroke-width:4; stroke-opacity:1; fill:none" points="1907.56,1367.98 2283.31,1367.98 2283.31,1212.46 1907.56,1212.46 1907.56,1367.98 "/>
<polyline clip-path="url(#clip220)" style="stroke:#009af9; stroke-linecap:round; stroke-linejoin:round; stroke-width:4; stroke-opacity:1; fill:none" points="1930.71,1264.3 2069.6,1264.3 "/>
<path clip-path="url(#clip220)" d="M2097.43 1250.87 L2097.43 1263.85 L2103.31 1263.85 Q2106.57 1263.85 2108.36 1262.16 Q2110.14 1260.47 2110.14 1257.35 Q2110.14 1254.24 2108.36 1252.55 Q2106.57 1250.87 2103.31 1250.87 L2097.43 1250.87 M2092.75 1247.02 L2103.31 1247.02 Q2109.12 1247.02 2112.08 1249.66 Q2115.07 1252.28 2115.07 1257.35 Q2115.07 1262.46 2112.08 1265.08 Q2109.12 1267.69 2103.31 1267.69 L2097.43 1267.69 L2097.43 1281.58 L2092.75 1281.58 L2092.75 1247.02 Z" fill="#000000" fill-rule="nonzero" fill-opacity="1" /><path clip-path="url(#clip220)" d="M2121.34 1247.02 L2141.2 1247.02 L2141.2 1250.96 L2126.02 1250.96 L2126.02 1261.14 L2139.72 1261.14 L2139.72 1265.08 L2126.02 1265.08 L2126.02 1281.58 L2121.34 1281.58 L2121.34 1247.02 Z" fill="#000000" fill-rule="nonzero" fill-opacity="1" /><polyline clip-path="url(#clip220)" style="stroke:#008000; stroke-linecap:round; stroke-linejoin:round; stroke-width:4; stroke-opacity:1; fill:none" points="1930.71,1316.14 2069.6,1316.14 "/>
<path clip-path="url(#clip220)" d="M2108.59 1303.47 L2102.24 1320.67 L2114.95 1320.67 L2108.59 1303.47 M2105.95 1298.86 L2111.25 1298.86 L2124.42 1333.42 L2119.56 1333.42 L2116.41 1324.56 L2100.83 1324.56 L2097.68 1333.42 L2092.75 1333.42 L2105.95 1298.86 Z" fill="#000000" fill-rule="nonzero" fill-opacity="1" /><path clip-path="url(#clip220)" d="M2128.93 1298.86 L2133.63 1298.86 L2133.63 1319.86 Q2133.63 1325.41 2135.65 1327.87 Q2137.66 1330.3 2142.17 1330.3 Q2146.67 1330.3 2148.68 1327.87 Q2150.69 1325.41 2150.69 1319.86 L2150.69 1298.86 L2155.39 1298.86 L2155.39 1320.44 Q2155.39 1327.2 2152.04 1330.64 Q2148.7 1334.09 2142.17 1334.09 Q2135.62 1334.09 2132.27 1330.64 Q2128.93 1327.2 2128.93 1320.44 L2128.93 1298.86 Z" fill="#000000" fill-rule="nonzero" fill-opacity="1" /><path clip-path="url(#clip220)" d="M2162.5 1298.86 L2167.52 1298.86 L2176.11 1311.71 L2184.74 1298.86 L2189.77 1298.86 L2178.66 1315.46 L2190.51 1333.42 L2185.48 1333.42 L2175.76 1318.72 L2165.97 1333.42 L2160.92 1333.42 L2173.26 1314.97 L2162.5 1298.86 Z" fill="#000000" fill-rule="nonzero" fill-opacity="1" /><path clip-path="url(#clip220)" d="M2216.39 1302.71 L2216.39 1315.69 L2222.27 1315.69 Q2225.53 1315.69 2227.31 1314 Q2229.1 1312.31 2229.1 1309.19 Q2229.1 1306.08 2227.31 1304.39 Q2225.53 1302.71 2222.27 1302.71 L2216.39 1302.71 M2211.71 1298.86 L2222.27 1298.86 Q2228.08 1298.86 2231.04 1301.5 Q2234.03 1304.12 2234.03 1309.19 Q2234.03 1314.3 2231.04 1316.92 Q2228.08 1319.53 2222.27 1319.53 L2216.39 1319.53 L2216.39 1333.42 L2211.71 1333.42 L2211.71 1298.86 Z" fill="#000000" fill-rule="nonzero" fill-opacity="1" /><path clip-path="url(#clip220)" d="M2240.3 1298.86 L2260.16 1298.86 L2260.16 1302.8 L2244.98 1302.8 L2244.98 1312.98 L2258.68 1312.98 L2258.68 1316.92 L2244.98 1316.92 L2244.98 1333.42 L2240.3 1333.42 L2240.3 1298.86 Z" fill="#000000" fill-rule="nonzero" fill-opacity="1" /></svg>
