<?xml version="1.0" encoding="utf-8"?>
<svg xmlns="http://www.w3.org/2000/svg" xmlns:xlink="http://www.w3.org/1999/xlink" width="600" height="400" viewBox="0 0 2400 1600">
<defs>
  <clipPath id="clip420">
    <rect x="0" y="0" width="2400" height="1600"/>
  </clipPath>
</defs>
<path clip-path="url(#clip420)" d="M0 1600 L2400 1600 L2400 0 L0 0  Z" fill="#ffffff" fill-rule="evenodd" fill-opacity="1"/>
<defs>
  <clipPath id="clip421">
    <rect x="140" y="47" width="2213" height="1440"/>
  </clipPath>
</defs>
<path clip-path="url(#clip420)" d="M140.51 1486.45 L2352.76 1486.45 L2352.76 47.2441 L140.51 47.2441  Z" fill="#ffffff" fill-rule="evenodd" fill-opacity="1"/>
<polyline clip-path="url(#clip421)" style="stroke:#000000; stroke-linecap:round; stroke-linejoin:round; stroke-width:2; stroke-opacity:0.1; fill:none" points="352.398,1486.45 352.398,47.2441 "/>
<polyline clip-path="url(#clip421)" style="stroke:#000000; stroke-linecap:round; stroke-linejoin:round; stroke-width:2; stroke-opacity:0.1; fill:none" points="786.3,1486.45 786.3,47.2441 "/>
<polyline clip-path="url(#clip421)" style="stroke:#000000; stroke-linecap:round; stroke-linejoin:round; stroke-width:2; stroke-opacity:0.1; fill:none" points="1220.2,1486.45 1220.2,47.2441 "/>
<polyline clip-path="url(#clip421)" style="stroke:#000000; stroke-linecap:round; stroke-linejoin:round; stroke-width:2; stroke-opacity:0.1; fill:none" points="1654.1,1486.45 1654.1,47.2441 "/>
<polyline clip-path="url(#clip421)" style="stroke:#000000; stroke-linecap:round; stroke-linejoin:round; stroke-width:2; stroke-opacity:0.1; fill:none" points="2088,1486.45 2088,47.2441 "/>
<polyline clip-path="url(#clip421)" style="stroke:#000000; stroke-linecap:round; stroke-linejoin:round; stroke-width:2; stroke-opacity:0.1; fill:none" points="140.51,1180.23 2352.76,1180.23 "/>
<polyline clip-path="url(#clip421)" style="stroke:#000000; stroke-linecap:round; stroke-linejoin:round; stroke-width:2; stroke-opacity:0.1; fill:none" points="140.51,872.483 2352.76,872.483 "/>
<polyline clip-path="url(#clip421)" style="stroke:#000000; stroke-linecap:round; stroke-linejoin:round; stroke-width:2; stroke-opacity:0.1; fill:none" points="140.51,564.737 2352.76,564.737 "/>
<polyline clip-path="url(#clip421)" style="stroke:#000000; stroke-linecap:round; stroke-linejoin:round; stroke-width:2; stroke-opacity:0.1; fill:none" points="140.51,256.991 2352.76,256.991 "/>
<polyline clip-path="url(#clip420)" style="stroke:#000000; stroke-linecap:round; stroke-linejoin:round; stroke-width:4; stroke-opacity:1; fill:none" points="140.51,1486.45 2352.76,1486.45 "/>
<polyline clip-path="url(#clip420)" style="stroke:#000000; stroke-linecap:round; stroke-linejoin:round; stroke-width:4; stroke-opacity:1; fill:none" points="352.398,1486.45 352.398,1467.55 "/>
<polyline clip-path="url(#clip420)" style="stroke:#000000; stroke-linecap:round; stroke-linejoin:round; stroke-width:4; stroke-opacity:1; fill:none" points="786.3,1486.45 786.3,1467.55 "/>
<polyline clip-path="url(#clip420)" style="stroke:#000000; stroke-linecap:round; stroke-linejoin:round; stroke-width:4; stroke-opacity:1; fill:none" points="1220.2,1486.45 1220.2,1467.55 "/>
<polyline clip-path="url(#clip420)" style="stroke:#000000; stroke-linecap:round; stroke-linejoin:round; stroke-width:4; stroke-opacity:1; fill:none" points="1654.1,1486.45 1654.1,1467.55 "/>
<polyline clip-path="url(#clip420)" style="stroke:#000000; stroke-linecap:round; stroke-linejoin:round; stroke-width:4; stroke-opacity:1; fill:none" points="2088,1486.45 2088,1467.55 "/>
<path clip-path="url(#clip420)" d="M306.46 1532.02 L336.136 1532.02 L336.136 1535.95 L306.46 1535.95 L306.46 1532.02 Z" fill="#000000" fill-rule="nonzero" fill-opacity="1" /><path clip-path="url(#clip420)" d="M360.395 1530.21 Q363.752 1530.93 365.627 1533.2 Q367.525 1535.47 367.525 1538.8 Q367.525 1543.92 364.006 1546.72 Q360.488 1549.52 354.007 1549.52 Q351.831 1549.52 349.516 1549.08 Q347.224 1548.66 344.77 1547.81 L344.77 1543.29 Q346.715 1544.43 349.03 1545.01 Q351.345 1545.58 353.868 1545.58 Q358.266 1545.58 360.557 1543.85 Q362.872 1542.11 362.872 1538.8 Q362.872 1535.75 360.719 1534.03 Q358.59 1532.3 354.77 1532.3 L350.743 1532.3 L350.743 1528.45 L354.956 1528.45 Q358.405 1528.45 360.233 1527.09 Q362.062 1525.7 362.062 1523.11 Q362.062 1520.45 360.164 1519.03 Q358.289 1517.6 354.77 1517.6 Q352.849 1517.6 350.65 1518.01 Q348.451 1518.43 345.812 1519.31 L345.812 1515.14 Q348.474 1514.4 350.789 1514.03 Q353.127 1513.66 355.187 1513.66 Q360.511 1513.66 363.613 1516.09 Q366.715 1518.5 366.715 1522.62 Q366.715 1525.49 365.071 1527.48 Q363.428 1529.45 360.395 1530.21 Z" fill="#000000" fill-rule="nonzero" fill-opacity="1" /><path clip-path="url(#clip420)" d="M386.391 1517.37 Q382.78 1517.37 380.951 1520.93 Q379.145 1524.47 379.145 1531.6 Q379.145 1538.71 380.951 1542.27 Q382.78 1545.82 386.391 1545.82 Q390.025 1545.82 391.83 1542.27 Q393.659 1538.71 393.659 1531.6 Q393.659 1524.47 391.83 1520.93 Q390.025 1517.37 386.391 1517.37 M386.391 1513.66 Q392.201 1513.66 395.256 1518.27 Q398.335 1522.85 398.335 1531.6 Q398.335 1540.33 395.256 1544.94 Q392.201 1549.52 386.391 1549.52 Q380.58 1549.52 377.502 1544.94 Q374.446 1540.33 374.446 1531.6 Q374.446 1522.85 377.502 1518.27 Q380.58 1513.66 386.391 1513.66 Z" fill="#000000" fill-rule="nonzero" fill-opacity="1" /><path clip-path="url(#clip420)" d="M786.3 1517.37 Q782.688 1517.37 780.86 1520.93 Q779.054 1524.47 779.054 1531.6 Q779.054 1538.71 780.86 1542.27 Q782.688 1545.82 786.3 1545.82 Q789.934 1545.82 791.739 1542.27 Q793.568 1538.71 793.568 1531.6 Q793.568 1524.47 791.739 1520.93 Q789.934 1517.37 786.3 1517.37 M786.3 1513.66 Q792.11 1513.66 795.165 1518.27 Q798.244 1522.85 798.244 1531.6 Q798.244 1540.33 795.165 1544.94 Q792.11 1549.52 786.3 1549.52 Q780.489 1549.52 777.411 1544.94 Q774.355 1540.33 774.355 1531.6 Q774.355 1522.85 777.411 1518.27 Q780.489 1513.66 786.3 1513.66 Z" fill="#000000" fill-rule="nonzero" fill-opacity="1" /><path clip-path="url(#clip420)" d="M1209.04 1530.21 Q1212.4 1530.93 1214.28 1533.2 Q1216.17 1535.47 1216.17 1538.8 Q1216.17 1543.92 1212.66 1546.72 Q1209.14 1549.52 1202.66 1549.52 Q1200.48 1549.52 1198.16 1549.08 Q1195.87 1548.66 1193.42 1547.81 L1193.42 1543.29 Q1195.36 1544.43 1197.68 1545.01 Q1199.99 1545.58 1202.52 1545.58 Q1206.91 1545.58 1209.21 1543.85 Q1211.52 1542.11 1211.52 1538.8 Q1211.52 1535.75 1209.37 1534.03 Q1207.24 1532.3 1203.42 1532.3 L1199.39 1532.3 L1199.39 1528.45 L1203.6 1528.45 Q1207.05 1528.45 1208.88 1527.09 Q1210.71 1525.7 1210.71 1523.11 Q1210.71 1520.45 1208.81 1519.03 Q1206.94 1517.6 1203.42 1517.6 Q1201.5 1517.6 1199.3 1518.01 Q1197.1 1518.43 1194.46 1519.31 L1194.46 1515.14 Q1197.12 1514.4 1199.44 1514.03 Q1201.78 1513.66 1203.84 1513.66 Q1209.16 1513.66 1212.26 1516.09 Q1215.36 1518.5 1215.36 1522.62 Q1215.36 1525.49 1213.72 1527.48 Q1212.08 1529.45 1209.04 1530.21 Z" fill="#000000" fill-rule="nonzero" fill-opacity="1" /><path clip-path="url(#clip420)" d="M1235.04 1517.37 Q1231.43 1517.37 1229.6 1520.93 Q1227.79 1524.47 1227.79 1531.6 Q1227.79 1538.71 1229.6 1542.27 Q1231.43 1545.82 1235.04 1545.82 Q1238.67 1545.82 1240.48 1542.27 Q1242.31 1538.71 1242.31 1531.6 Q1242.31 1524.47 1240.48 1520.93 Q1238.67 1517.37 1235.04 1517.37 M1235.04 1513.66 Q1240.85 1513.66 1243.9 1518.27 Q1246.98 1522.85 1246.98 1531.6 Q1246.98 1540.33 1243.9 1544.94 Q1240.85 1549.52 1235.04 1549.52 Q1229.23 1549.52 1226.15 1544.94 Q1223.09 1540.33 1223.09 1531.6 Q1223.09 1522.85 1226.15 1518.27 Q1229.23 1513.66 1235.04 1513.66 Z" fill="#000000" fill-rule="nonzero" fill-opacity="1" /><path clip-path="url(#clip420)" d="M1639.51 1529.7 Q1636.36 1529.7 1634.51 1531.86 Q1632.68 1534.01 1632.68 1537.76 Q1632.68 1541.49 1634.51 1543.66 Q1636.36 1545.82 1639.51 1545.82 Q1642.66 1545.82 1644.49 1543.66 Q1646.34 1541.49 1646.34 1537.76 Q1646.34 1534.01 1644.49 1531.86 Q1642.66 1529.7 1639.51 1529.7 M1648.79 1515.05 L1648.79 1519.31 Q1647.03 1518.48 1645.23 1518.04 Q1643.44 1517.6 1641.68 1517.6 Q1637.05 1517.6 1634.6 1520.72 Q1632.17 1523.85 1631.82 1530.17 Q1633.19 1528.15 1635.25 1527.09 Q1637.31 1526 1639.79 1526 Q1644.99 1526 1648 1529.17 Q1651.04 1532.32 1651.04 1537.76 Q1651.04 1543.08 1647.89 1546.3 Q1644.74 1549.52 1639.51 1549.52 Q1633.51 1549.52 1630.34 1544.94 Q1627.17 1540.33 1627.17 1531.6 Q1627.17 1523.41 1631.06 1518.55 Q1634.95 1513.66 1641.5 1513.66 Q1643.26 1513.66 1645.04 1514.01 Q1646.85 1514.36 1648.79 1515.05 Z" fill="#000000" fill-rule="nonzero" fill-opacity="1" /><path clip-path="url(#clip420)" d="M1669.09 1517.37 Q1665.48 1517.37 1663.65 1520.93 Q1661.85 1524.47 1661.85 1531.6 Q1661.85 1538.71 1663.65 1542.27 Q1665.48 1545.82 1669.09 1545.82 Q1672.73 1545.82 1674.53 1542.27 Q1676.36 1538.71 1676.36 1531.6 Q1676.36 1524.47 1674.53 1520.93 Q1672.73 1517.37 1669.09 1517.37 M1669.09 1513.66 Q1674.9 1513.66 1677.96 1518.27 Q1681.04 1522.85 1681.04 1531.6 Q1681.04 1540.33 1677.96 1544.94 Q1674.9 1549.52 1669.09 1549.52 Q1663.28 1549.52 1660.2 1544.94 Q1657.15 1540.33 1657.15 1531.6 Q1657.15 1522.85 1660.2 1518.27 Q1663.28 1513.66 1669.09 1513.66 Z" fill="#000000" fill-rule="nonzero" fill-opacity="1" /><path clip-path="url(#clip420)" d="M2063.13 1548.13 L2063.13 1543.87 Q2064.89 1544.7 2066.7 1545.14 Q2068.5 1545.58 2070.24 1545.58 Q2074.87 1545.58 2077.3 1542.48 Q2079.75 1539.36 2080.1 1533.01 Q2078.76 1535.01 2076.7 1536.07 Q2074.64 1537.13 2072.14 1537.13 Q2066.95 1537.13 2063.92 1534.01 Q2060.91 1530.86 2060.91 1525.42 Q2060.91 1520.1 2064.06 1516.88 Q2067.21 1513.66 2072.44 1513.66 Q2078.43 1513.66 2081.58 1518.27 Q2084.75 1522.85 2084.75 1531.6 Q2084.75 1539.77 2080.86 1544.66 Q2077 1549.52 2070.45 1549.52 Q2068.69 1549.52 2066.88 1549.17 Q2065.08 1548.82 2063.13 1548.13 M2072.44 1533.48 Q2075.59 1533.48 2077.41 1531.32 Q2079.27 1529.17 2079.27 1525.42 Q2079.27 1521.7 2077.41 1519.54 Q2075.59 1517.37 2072.44 1517.37 Q2069.29 1517.37 2067.44 1519.54 Q2065.61 1521.7 2065.61 1525.42 Q2065.61 1529.17 2067.44 1531.32 Q2069.29 1533.48 2072.44 1533.48 Z" fill="#000000" fill-rule="nonzero" fill-opacity="1" /><path clip-path="url(#clip420)" d="M2103.16 1517.37 Q2099.54 1517.37 2097.72 1520.93 Q2095.91 1524.47 2095.91 1531.6 Q2095.91 1538.71 2097.72 1542.27 Q2099.54 1545.82 2103.16 1545.82 Q2106.79 1545.82 2108.59 1542.27 Q2110.42 1538.71 2110.42 1531.6 Q2110.42 1524.47 2108.59 1520.93 Q2106.79 1517.37 2103.16 1517.37 M2103.16 1513.66 Q2108.97 1513.66 2112.02 1518.27 Q2115.1 1522.85 2115.1 1531.6 Q2115.1 1540.33 2112.02 1544.94 Q2108.97 1549.52 2103.16 1549.52 Q2097.35 1549.52 2094.27 1544.94 Q2091.21 1540.33 2091.21 1531.6 Q2091.21 1522.85 2094.27 1518.27 Q2097.35 1513.66 2103.16 1513.66 Z" fill="#000000" fill-rule="nonzero" fill-opacity="1" /><polyline clip-path="url(#clip420)" style="stroke:#000000; stroke-linecap:round; stroke-linejoin:round; stroke-width:4; stroke-opacity:1; fill:none" points="140.51,1486.45 140.51,47.2441 "/>
<polyline clip-path="url(#clip420)" style="stroke:#000000; stroke-linecap:round; stroke-linejoin:round; stroke-width:4; stroke-opacity:1; fill:none" points="140.51,1180.23 159.408,1180.23 "/>
<polyline clip-path="url(#clip420)" style="stroke:#000000; stroke-linecap:round; stroke-linejoin:round; stroke-width:4; stroke-opacity:1; fill:none" points="140.51,872.483 159.408,872.483 "/>
<polyline clip-path="url(#clip420)" style="stroke:#000000; stroke-linecap:round; stroke-linejoin:round; stroke-width:4; stroke-opacity:1; fill:none" points="140.51,564.737 159.408,564.737 "/>
<polyline clip-path="url(#clip420)" style="stroke:#000000; stroke-linecap:round; stroke-linejoin:round; stroke-width:4; stroke-opacity:1; fill:none" points="140.51,256.991 159.408,256.991 "/>
<path clip-path="url(#clip420)" d="M92.566 1166.03 Q88.9549 1166.03 87.1262 1169.59 Q85.3206 1173.13 85.3206 1180.26 Q85.3206 1187.37 87.1262 1190.94 Q88.9549 1194.48 92.566 1194.48 Q96.2002 1194.48 98.0058 1190.94 Q99.8345 1187.37 99.8345 1180.26 Q99.8345 1173.13 98.0058 1169.59 Q96.2002 1166.03 92.566 1166.03 M92.566 1162.32 Q98.3761 1162.32 101.432 1166.93 Q104.51 1171.51 104.51 1180.26 Q104.51 1188.99 101.432 1193.6 Q98.3761 1198.18 92.566 1198.18 Q86.7558 1198.18 83.6771 1193.6 Q80.6216 1188.99 80.6216 1180.26 Q80.6216 1171.51 83.6771 1166.93 Q86.7558 1162.32 92.566 1162.32 Z" fill="#000000" fill-rule="nonzero" fill-opacity="1" /><path clip-path="url(#clip420)" d="M57.4273 885.828 L73.7466 885.828 L73.7466 889.763 L51.8023 889.763 L51.8023 885.828 Q54.4643 883.073 59.0476 878.444 Q63.6541 873.791 64.8346 872.448 Q67.08 869.925 67.9596 868.189 Q68.8624 866.43 68.8624 864.74 Q68.8624 861.985 66.918 860.249 Q64.9967 858.513 61.8948 858.513 Q59.6958 858.513 57.2421 859.277 Q54.8115 860.041 52.0338 861.592 L52.0338 856.87 Q54.8578 855.735 57.3115 855.157 Q59.7652 854.578 61.8023 854.578 Q67.1726 854.578 70.367 857.263 Q73.5614 859.948 73.5614 864.439 Q73.5614 866.569 72.7513 868.49 Q71.9642 870.388 69.8578 872.981 Q69.2791 873.652 66.1772 876.87 Q63.0754 880.064 57.4273 885.828 Z" fill="#000000" fill-rule="nonzero" fill-opacity="1" /><path clip-path="url(#clip420)" d="M83.6077 855.203 L101.964 855.203 L101.964 859.138 L87.8901 859.138 L87.8901 867.61 Q88.9086 867.263 89.9271 867.101 Q90.9456 866.916 91.9641 866.916 Q97.7511 866.916 101.131 870.087 Q104.51 873.258 104.51 878.675 Q104.51 884.254 101.038 887.356 Q97.566 890.434 91.2465 890.434 Q89.0706 890.434 86.8021 890.064 Q84.5568 889.694 82.1494 888.953 L82.1494 884.254 Q84.2327 885.388 86.4549 885.944 Q88.6771 886.499 91.1539 886.499 Q95.1586 886.499 97.4965 884.393 Q99.8345 882.286 99.8345 878.675 Q99.8345 875.064 97.4965 872.957 Q95.1586 870.851 91.1539 870.851 Q89.279 870.851 87.404 871.268 Q85.5521 871.684 83.6077 872.564 L83.6077 855.203 Z" fill="#000000" fill-rule="nonzero" fill-opacity="1" /><path clip-path="url(#clip420)" d="M52.4505 547.457 L70.8068 547.457 L70.8068 551.392 L56.7328 551.392 L56.7328 559.864 Q57.7513 559.517 58.7699 559.355 Q59.7884 559.17 60.8069 559.17 Q66.5939 559.17 69.9735 562.341 Q73.3531 565.512 73.3531 570.929 Q73.3531 576.507 69.8809 579.609 Q66.4087 582.688 60.0893 582.688 Q57.9134 582.688 55.6449 582.318 Q53.3995 581.947 50.9921 581.207 L50.9921 576.507 Q53.0754 577.642 55.2977 578.197 Q57.5199 578.753 59.9967 578.753 Q64.0013 578.753 66.3393 576.646 Q68.6772 574.54 68.6772 570.929 Q68.6772 567.318 66.3393 565.211 Q64.0013 563.105 59.9967 563.105 Q58.1217 563.105 56.2467 563.521 Q54.3949 563.938 52.4505 564.818 L52.4505 547.457 Z" fill="#000000" fill-rule="nonzero" fill-opacity="1" /><path clip-path="url(#clip420)" d="M92.566 550.535 Q88.9549 550.535 87.1262 554.1 Q85.3206 557.642 85.3206 564.771 Q85.3206 571.878 87.1262 575.443 Q88.9549 578.984 92.566 578.984 Q96.2002 578.984 98.0058 575.443 Q99.8345 571.878 99.8345 564.771 Q99.8345 557.642 98.0058 554.1 Q96.2002 550.535 92.566 550.535 M92.566 546.832 Q98.3761 546.832 101.432 551.438 Q104.51 556.021 104.51 564.771 Q104.51 573.498 101.432 578.105 Q98.3761 582.688 92.566 582.688 Q86.7558 582.688 83.6771 578.105 Q80.6216 573.498 80.6216 564.771 Q80.6216 556.021 83.6771 551.438 Q86.7558 546.832 92.566 546.832 Z" fill="#000000" fill-rule="nonzero" fill-opacity="1" /><path clip-path="url(#clip420)" d="M52.219 239.711 L74.4411 239.711 L74.4411 241.701 L61.8948 274.271 L57.0106 274.271 L68.8161 243.646 L52.219 243.646 L52.219 239.711 Z" fill="#000000" fill-rule="nonzero" fill-opacity="1" /><path clip-path="url(#clip420)" d="M83.6077 239.711 L101.964 239.711 L101.964 243.646 L87.8901 243.646 L87.8901 252.118 Q88.9086 251.771 89.9271 251.609 Q90.9456 251.423 91.9641 251.423 Q97.7511 251.423 101.131 254.595 Q104.51 257.766 104.51 263.183 Q104.51 268.761 101.038 271.863 Q97.566 274.942 91.2465 274.942 Q89.0706 274.942 86.8021 274.571 Q84.5568 274.201 82.1494 273.46 L82.1494 268.761 Q84.2327 269.896 86.4549 270.451 Q88.6771 271.007 91.1539 271.007 Q95.1586 271.007 97.4965 268.9 Q99.8345 266.794 99.8345 263.183 Q99.8345 259.572 97.4965 257.465 Q95.1586 255.359 91.1539 255.359 Q89.279 255.359 87.404 255.775 Q85.5521 256.192 83.6077 257.072 L83.6077 239.711 Z" fill="#000000" fill-rule="nonzero" fill-opacity="1" /><polyline clip-path="url(#clip421)" style="stroke:#0000ff; stroke-linecap:round; stroke-linejoin:round; stroke-width:4; stroke-opacity:1; fill:none" points="204.683,717.781 231.657,724.072 235.718,719.987 246.295,719.257 253.635,718.708 275.593,719.72 298.52,723.567 326.606,725.944 353.669,728.173 383.537,732.339 412.768,732.257 438.371,732.256 475.031,733.768 497.778,739.284 521.541,743.906 556.113,747.486 582.228,749.214 604.386,753.992 632.837,760.416 656.482,767.51 679.4,775.901 702.386,782.523 729.829,789.038 753.286,797.447 779.466,803.439 810.332,811.47 832.836,811.855 867.227,814.734 892.82,822.518 918.863,829.723 949.367,838.612 974.184,846.638 1000.28,853.692 1019.59,864.163 1037.29,876.411 1045.51,882.575 1066.66,885.88 1083.68,887.544 1105.19,889.044 1130.9,892.501 1157.6,901.282 1184.94,910.543 1207.18,916.053 1232.42,919.728 1264.71,921.728 1293.73,922.966 1326.58,927.54 1355.05,932.604 1381.48,935.988 1406.67,938.359 1437.92,938.435 1462.67,938.432 1489.42,937.376 1516.36,934.529 1545.61,929.459 1574.38,930.079 1602.09,928.227 1628.21,928.52 1649.5,922.546 1667.84,919.257 1684.79,913.009 1702.43,906.774 1723.46,906.396 1745.96,904.043 1768.03,905.441 1787.17,908.734 1808.68,914.603 1828.49,925.918 1850.75,938.186 1866.67,949.79 1882.7,966.148 1893.28,980.538 1901.17,995.137 1909.81,1014.45 1921,1032.47 1933.42,1051.46 1944.57,1062.33 1962.92,1070.05 1977.37,1073.02 1987.89,1072.58 2009.75,1066.28 2025.63,1060.6 2047.29,1040.65 2059.34,1025.97 2063.06,1005.57 2065.4,986.024 2064.05,964.023 2050.26,947.712 2032.72,939.302 2008.13,929.96 1979.61,934.484 1954.36,933.474 1933.54,930.164 1915.15,927.179 1892.56,924.37 1872.35,929.42 1850.31,935.424 1834.35,943.127 1810.97,945.869 1786.82,945.789 1759.74,941.827 1736.34,931.974 1713.16,921.34 1683.06,905.444 1657.34,887.984 1634.65,869.855 1619.03,855.116 1606.73,841.59 1590.25,827.556 1575.58,811.089 1563.92,796.155 1555.93,779.936 1556.22,764.288 1567.53,749.436 1580.35,736.247 1602.6,729.071 1621.72,727.582 1649.5,728.406 1670.35,742.107 1692.24,749.754 1706.72,754.164 1729.37,760.559 1751.54,771.884 1764.73,781.52 1782.14,792.701 1800.48,803.415 1822.14,811.274 1842.79,812.786 1864.26,813.313 1888.01,807.069 1909.8,802.93 1926.31,801.857 1944.81,809.246 1961.1,820.282 1976.57,834.719 1986.78,850.489 1995.95,870.519 2003.73,892.828 2007.17,912.628 2005.75,933.941 2006,945.172 2009.23,959.057 2019.52,977.496 2027.03,995.314 2038.15,1009.8 2049.21,1016.55 2061.9,1019.96 2079.52,1016.51 2098.97,1011.14 2113.28,1001.69 2129.99,989.087 2139.17,978.952 2142.86,959.439 2134.17,942.723 2117.98,925.277 2101.23,908.155 2079.52,896.278 2052.14,889.713 2024.77,885.128 2006.67,883.436 1981.87,881.848 1960.75,879.569 1942.28,870.495 1926.67,863.826 1904.79,857.437 1888.58,857.079 1866.94,859.344 1846.34,854.42 1825.32,848.828 1805.88,847.671 1781.46,844.541 1762.55,839.625 1744.62,835.192 1722.71,834.123 1696,834.847 1669.59,840.72 1653.16,840.023 1648.46,833.022 1644.19,829.592 1637,828.149 1626.24,827.369 1617.69,826.544 1604.76,830.076 1590.52,835.941 1563.65,840.048 1542.12,843.777 1527.95,849.632 1518.22,858.546 1523.94,859.982 1538.89,857.768 1569.9,854.667 1589.51,839.326 1606.43,823.783 1613.76,808.176 1607.23,790.933 1592.97,772.15 1582.88,761.813 1571.07,740.594 1552.88,730.214 1531.58,740.384 1509.73,740.8 1480.48,735.534 1476.27,718.691 1472.15,699.054 1472.26,678.245 1475.8,661.363 1490.67,639.152 1499.32,619.553 1502.05,596.623 1485.56,583.842 1464.33,575.525 1453.7,573.456 1463.14,561.107 1482.58,551.025 1517.9,547.795 1557.38,534.89 1583.44,517.79 1603.65,493.893 1617.67,472.697 1637.73,463.034 1665.08,466.122 1689.15,472.372 1708.09,488.525 1734.89,502.854 1754.83,518.972 1765,539.671 1754.89,557.057 1736.64,573.041 1709.74,586.01 1676.95,592.141 1650,592.5 1615.23,577.629 1590.3,561.817 1579.51,541.054 1579.2,518.651 1595.94,503.295 1610.66,493.669 1633.71,479.728 1657.96,470.741 1681.81,455.219 1703.14,442.53 1723.81,441.684 1747.3,427.699 1751.02,413.195 1761.26,396.063 1772.73,391.514 1791.91,373.666 1785.06,360.39 1763.78,349.575 1760.11,347.441 1770.64,342.927 1793.95,336.648 1823.23,340.547 1848.7,342.865 1876.04,348.12 1899.32,365.812 1904.37,383.69 1901.01,395.747 1880.17,408.056 1864.44,430.286 1848.77,457.196 1839.47,488.354 1840.42,509.999 1805.37,513.685 1781.04,528.881 1748.91,535.285 1718.06,552.35 1700.3,578.023 1680.71,595.698 1653.09,590.543 1631,579.17 1603.36,569.65 1588.27,557.73 1562.51,541.171 1555.61,534.769 1562.21,511.966 1585.48,502.857 1620.81,498.25 1649.24,502.021 1683.71,507.783 1712.72,522.234 1723.19,543.741 1735.65,565.019 1752.1,569.688 1778.6,574.738 1801.87,584.982 1811.71,587.144 1837.64,580.298 1862.08,572.596 1882.19,563.042 1902.55,565.257 1921.73,579.794 1920.93,597.509 1922.11,618.194 1909.22,650.828 1888.98,676.816 1864.34,696.027 1841.43,725.425 1837.96,750.997 1803.26,762.91 1776.07,768.928 1746.58,782.939 1720.45,797.385 1702.73,816.705 1686.13,837.432 1661.3,860.281 1634.03,868.91 1607.56,859.579 1582.58,854.208 1551.4,851.271 1523.38,842.218 1502.71,821.266 1488.31,800.343 1458.25,777.988 1440.98,759.641 1416.12,742.039 1391.5,738.241 1360.99,744.334 1342.08,742.886 1315.79,733.789 1310.77,707.626 1294.34,699.748 1269.74,703.469 1252.02,712.439 1227.73,728.845 1221.12,735.593 1190.87,740.615 1167.07,744.899 1141.88,737.697 1120,720.408 1097.23,707.895 1062.22,702.315 1029.98,693.713 1007.52,688.502 985.875,678.238 965.395,658.652 964.726,644.084 975.451,625.286 990.583,604.69 1002.33,581.549 1008.56,550.2 1016.01,525.945 1001.35,505.683 981.797,500.609 970.824,490.954 974.032,476.586 999.739,475.678 1036.44,479.419 1077.53,476.953 1110.5,473.24 1138.42,456.088 1163.06,431.277 1189.26,411.443 1220.47,403.882 1260.27,406.047 1292.38,417.358 1323.87,433.769 1354.02,447.66 1381.23,459.497 1403.74,472.837 1439.25,480.812 1465.42,494.72 1492.27,516.757 1521.86,543.073 1549.25,559.618 1573.26,570.426 1593.28,581.123 1602.43,572.88 1623.88,562.52 1650.16,548.247 1673.1,538.675 1702.02,528.205 1735.74,526.042 1772.05,535.611 1799.39,560.277 1807.98,581.666 1803.71,613.524 1786.41,646.781 1782.5,673.665 1773.75,704.952 1775.3,739.253 1791.4,770.267 1823.28,795.821 1863.02,793.547 1883.62,795.734 1915.58,803.709 1935.28,825.168 1960.28,850.894 1981.99,882.308 1994.33,915.727 1998.53,937.707 2014.09,921.298 2050.04,925.369 2078.1,931.379 2091.52,946.352 2092.79,950.438 2093.65,955.431 2098.78,971.472 2101.07,977.735 2114.01,981.371 2130.55,983.034 2159.06,977.968 2186.67,986.681 2201.46,999.174 2215.32,1021.19 2215.9,1034.64 2218.3,1023.21 2223.92,1005.56 2223.14,978.966 2213.88,951.829 2197.15,927.506 2186.34,905.332 2186.42,885.268 2160.54,862.649 2152.07,833.947 2156.53,808.199 2174.27,795.689 2195.53,797.979 2220.3,806.138 2236.41,817.915 2247.86,838.11 2273.96,860.613 2289.83,882.075 2280.84,909.662 2260.92,931.264 2242.38,951.677 2212.34,964.323 2193.4,983.54 2166.4,995.699 2139.54,1018.74 2119.88,1040.02 2108.69,1063.45 2089.39,1086.58 2071.68,1108.38 2045.38,1125.54 2019.65,1137.58 1988.74,1153.78 1962.71,1171.97 1934.66,1180.56 1905.69,1199.3 1888.96,1216.75 1857.7,1229.27 1837.17,1243.5 1819,1263.48 1802.29,1291.72 1794.84,1311.39 1788.67,1331.82 1781.71,1356.79 1804.39,1377.88 1813.87,1391.85 1807.16,1415.45 1799.62,1441.21 1780.95,1444.74 1757.8,1443.14 1734.58,1425.71 1722.19,1399.59 1708.62,1377.56 1684.18,1354.91 1645.35,1328.51 1613.82,1321.7 1579.58,1319.74 1542.44,1326.84 1501.3,1337.51 1474.56,1337.53 1439.8,1326.85 1412.93,1314.48 1391.98,1290.32 1390.02,1256.25 1384.44,1216.18 1365.5,1188.94 1343.39,1167.58 1348.06,1136.87 1346.09,1109.24 1339.12,1083.97 1325.97,1055.64 1307.27,1031.92 1300.88,1005.97 1307.73,972.448 1317.98,939.032 1336.2,909.847 1352.26,878.611 1365.84,846.777 1392.61,824.369 1387.19,796.939 1371.83,772.642 1342.61,749.193 1310.11,746.938 1289.05,734.605 1280.36,708.564 1276.12,676.766 1289.16,649.049 1304.3,627.169 1324.91,617.197 1355.82,605.261 1392.54,600.296 1433.89,596.707 1473.16,596.626 1502.36,589.09 1525.59,562.887 1543.5,540.674 1572.39,528.649 1593.59,522.663 1597.31,507.657 1583.08,494.285 1561.61,479.503 1535.45,466.698 1507.89,439.97 1486.11,414.194 1471.59,388.124 1453.23,367.345 1449.86,349.597 1457.55,328.254 1474.65,318.867 1492.3,328.288 1522.25,332.852 1561.63,335.078 1597.35,343.431 1638.82,349.107 1672.72,353.895 1703.13,368.37 1727.28,374.563 1753.25,367.693 1777.19,356.57 1808.97,351.425 1841.72,351.326 1873.06,345.488 1895.61,360.488 1906.97,376.792 1911.91,371.74 1922.73,354.969 1939.87,337.403 1957.01,326.583 1981.86,311.891 2001.45,303.956 1992.77,303.936 1970.25,293.054 1959.95,276.337 1947.46,247.309 1950.64,218.144 1961.58,201.694 1990.59,190.937 2025.31,193.169 2050.46,198.226 2083.31,202.761 2119.18,214.253 2141.78,236.856 2147.6,265.304 2141.86,292.537 2129.58,301.666 2134.55,318.473 2137.08,341.145 2134.03,372.002 2105.01,388.229 2085.91,421.95 2059.05,445.084 2034.58,470.75 2026.02,506.223 2000.98,514.041 1964.95,515.908 1929.82,528 1898.28,541.636 1881.35,568.395 1870.77,599.598 1869.57,616.185 1895.84,621.726 1925.97,634.326 1962.48,648.783 1996.9,672.96 2025.2,688.053 2063.81,693.96 2099.18,693.79 2137.77,690.55 2167.22,694.816 2193.89,693.151 2205.91,678.838 2219.59,659.927 2234.96,639.895 2233.11,614.677 2229.98,596.169 2220.07,571.786 2193.59,550.072 2172.02,531.767 2146.82,516.528 2104.87,516.612 2079.64,523.716 2055.55,541.313 2038,561.21 2012.59,586.257 2006.56,615.66 2011.01,647.323 2015.61,678.12 2033.77,704.306 2045.65,729.501 2059.76,763.419 2074.55,794.04 2105.84,806.57 2136.48,822.94 2162.83,850.178 2182.97,873.808 2197.57,905.692 2205.01,930.824 2202.18,942.197 2169.36,944.322 2132.82,957.702 2105.29,956.356 2090.28,963.092 2069.99,967.02 2047.45,963.304 2016.9,948.848 1985.45,940.406 1948.64,943.208 1903.76,956.516 1865.54,970.515 1827.2,971.457 1783.56,978.985 1745.32,980.317 1705.86,981.623 1674.24,975.59 1639.57,979.868 1607.73,974.056 1574.74,966.61 1540.1,936.507 1511.94,921.484 1473.47,914.004 1440.37,898.121 1410.5,882.708 1379.22,861.682 1353.06,853.008 1324.91,865.76 1300.38,883.637 1271.92,899.527 1233.45,917.454 1195.84,925.097 1166.64,920.557 1137.68,897.944 1119.83,873.367 1102.09,843.673 1077.09,817.657 1064.35,787.228 1060.69,758.851 1063.77,735.516 1049.22,705.804 1025.72,689.112 997.137,677.126 977.475,655.814 968.59,625.313 967.038,601.176 956.422,573.301 965.406,547.052 986.398,519.355 996.751,502.058 1009.95,496.386 1020.37,480.972 1025.5,464.978 1032.62,441.927 1040.29,418.29 1043.81,389.852 1056.02,356.78 1057.03,333.404 1035.76,314.085 1016.34,299.659 987.938,299.58 960.378,308.49 932.014,304.829 900.28,289.824 862.586,276.571 840.545,269.512 817.911,265.133 802.378,247.773 801.101,226.826 815.363,208.542 837.532,189.031 861.414,171.732 904.321,161.129 934.105,149.156 967.925,142.463 998.547,152.597 1027.48,159.748 1061.91,156.042 1096.69,149.805 1117.35,129.084 1131.86,109.723 1145.49,88.4428 "/>
<polyline clip-path="url(#clip421)" style="stroke:#ff0000; stroke-linecap:round; stroke-linejoin:round; stroke-width:4; stroke-opacity:1; fill:none" points="203.121,717.49 234.087,723.891 236.748,714.991 258.284,716.296 261.727,716.997 289.251,722.697 306.448,726.254 335.75,726.008 360.729,728.027 391.709,734.428 418.467,730.513 440.003,731.806 483.089,734.416 495.094,743.205 520.086,745.211 563.187,747.821 581.295,748.412 601.096,755.662 635.562,762.778 655.377,770.028 678.648,777.993 702.788,782.978 733.826,789.391 752.788,799.621 781.266,802.354 814.923,812.472 831.324,806.391 873.629,811.98 891.752,825.201 919.377,830.913 953.077,841.031 972.95,848.294 1000.6,854.006 1015.3,866.525 1033.48,879.758 1036.94,880.472 1069.78,880.94 1083.61,883.808 1108.69,885.827 1136.37,891.551 1161.49,906.237 1188.34,914.94 1206.5,915.543 1235.06,918.288 1271.4,919.47 1296.5,921.501 1331.14,928.665 1355.41,933.688 1380.5,935.706 1405.61,937.737 1442.81,935.953 1460.99,936.543 1490.41,936.31 1517.21,932.358 1548.3,926.154 1576.04,931.878 1602.83,927.939 1627.95,929.97 1646,917.906 1664.18,918.497 1681.38,909.425 1701.22,904.045 1725.51,909.068 1748.81,904.402 1769.64,908.699 1786.98,912.281 1810.45,920.282 1828.81,933.54 1851.46,944.532 1863.71,953.383 1880.43,972.636 1888.38,983.764 1895.51,997.883 1907.95,1019.44 1922.05,1035.01 1935.33,1053.59 1944.95,1058.74 1969.3,1063.79 1979.75,1065.94 1987.54,1064.38 2016.01,1054.43 2027.26,1053.59 2049.36,1026.5 2055.3,1018.23 2054.06,995.84 2058.14,980.883 2056.91,958.516 2037.69,948.238 2020.3,944.643 1997.62,933.651 1970.01,940.581 1949.17,936.285 1932.62,929.711 1915.27,926.129 1890.13,924.098 1872.12,936.174 1848.81,940.827 1835.92,947.647 1807.31,944.889 1782.18,942.871 1754.41,937.134 1736.07,923.877 1712.61,915.875 1676.94,899.035 1656,882.097 1635.07,865.159 1623.7,853.366 1612.35,841.561 1590.59,827.626 1577.46,809.173 1566.95,794.426 1560.74,777.414 1564.92,762.556 1583.77,747.575 1594.02,737.112 1617.28,732.483 1631.11,735.327 1660.45,735.093 1674.42,750.529 1695.19,754.813 1705.58,756.943 1733.28,762.654 1755.03,776.552 1760.31,783.926 1782.9,794.869 1802.03,805.111 1826.29,810.109 1845.27,807.721 1866.89,809.026 1891.79,798.427 1909.95,799.03 1923.82,801.886 1945.63,815.808 1960.51,828.315 1974.58,843.801 1981.71,857.859 1990.7,878.613 1999.68,899.38 2002.53,915.74 2000.27,937.356 2002.93,941.061 2009.27,958.16 2025.22,980.403 2028.08,996.8 2043.01,1009.37 2053.45,1011.54 2067.37,1014.4 2088.03,1006.02 2104.39,999.915 2113.79,992.369 2131.79,980.28 2136.89,975.024 2136.43,949.666 2121.49,937.11 2103.89,920.861 2093.26,906.064 2069.75,898.063 2041.14,895.318 2016.83,890.308 2006.42,888.153 1977.82,885.421 1960.47,881.838 1942.92,865.614 1929.04,862.758 1901.28,857.034 1889.23,860.85 1862.48,864.789 1844.14,851.556 1823.32,847.272 1804.33,849.648 1776.61,843.936 1763.56,838.102 1746.23,834.519 1720.32,835.48 1690.1,838.705 1665.98,846.325 1657.26,838.225 1657.11,825.595 1649.36,827.146 1638.14,827.983 1623.44,828.106 1616.51,826.678 1599.32,835.726 1586.43,842.521 1553.58,842.053 1538.05,845.143 1528.6,852.652 1521.79,863.866 1537.33,860.764 1556.32,858.376 1587.38,852.172 1596.68,832.033 1611.25,819.292 1615.41,804.409 1605.74,786.683 1589.15,767.541 1580.43,759.454 1568.97,735.105 1549.06,727.855 1526.75,742.122 1505.17,740.817 1474.05,734.403 1475.62,715.877 1470.29,695.947 1472.7,674.479 1476.88,659.658 1494.77,635.137 1499.79,617.374 1503.03,593 1484.01,582.832 1460.7,574.917 1453.8,573.501 1465.72,557.191 1490.59,546.666 1530.2,548.549 1567.89,531.303 1586.67,516.421 1604.49,491.998 1617.19,472.782 1637.73,464.522 1666.14,467.23 1690.26,472.167 1710.26,491.85 1739.64,504.111 1757.05,520.163 1765.91,540.708 1754.06,557.006 1734.48,574.855 1705.35,587.633 1670.97,593.086 1649.42,591.794 1610.48,574.412 1588.83,560.588 1580.02,540.031 1578.95,517.959 1597.72,503.089 1611.38,493.413 1637.86,477.017 1661.86,469.471 1684.88,452.372 1706.23,441.183 1724.28,441.761 1750.72,425.389 1750.57,412.919 1763.21,393.741 1775.19,389.974 1795.54,369.281 1784.23,357.648 1758.33,346.138 1774.57,340.156 1805.38,334.038 1832.09,342.593 1853.57,343.886 1881.11,349.511 1904.58,369.835 1903.94,385.235 1900.67,396.99 1875.1,410.408 1860.84,435.483 1845.76,463.525 1836.73,495.949 1840.36,509.17 1799.11,513.183 1779.56,531.02 1745.21,536.461 1714.44,555.123 1700.1,580.309 1681.32,595.216 1653.7,589.541 1631.19,578.671 1600.96,569.328 1589.65,557.634 1558.5,538.738 1555.88,535.082 1563.37,508.518 1590.83,501.673 1628.62,496.946 1652.74,501.895 1690.68,509.675 1715.8,524.188 1721.2,544.019 1736.95,565.992 1750.76,568.824 1781.84,575.2 1804.36,586.082 1811.28,587.498 1843.02,578.388 1867.03,570.818 1884.11,561.832 1904.84,566.079 1925.75,582.857 1920.85,600.608 1922.04,622.741 1904.48,659.83 1884.09,680.696 1861.03,697.905 1837.33,730.673 1839.31,749.914 1798.91,763.59 1775.65,768.231 1745.63,784.049 1719.87,797.614 1703.67,816.313 1686.63,837.991 1657.53,863.497 1634.23,868.15 1607.34,859.447 1583.09,854.437 1547.59,850.276 1520.74,841.573 1501.51,818.714 1488.41,800.261 1451.92,773.856 1441.45,759.122 1413.71,740.829 1392.11,739.524 1357.65,744.99 1343.82,742.134 1313.56,732.766 1310.81,703.912 1293.55,700.354 1266.83,704.281 1249.63,713.304 1222.12,732.778 1221.27,735.745 1183.33,740.497 1163.5,745.852 1136.73,737.173 1116.85,717.354 1094.38,706.435 1055.58,701.585 1025.39,692.218 1008.15,688.66 985.735,677.753 963.303,654.303 965.891,645.415 976.204,622.445 993.401,600.903 1003.7,577.97 1009.67,544.77 1015.66,524.114 999.302,505.12 982.105,501.587 970.925,489.917 975.206,475.183 1007.86,475.638 1046.54,480.464 1087.77,476.45 1114.4,472.548 1141.84,453.222 1167.51,427.322 1190.62,410.248 1221.5,404.13 1264.44,406.703 1293.7,418.927 1325.57,434.806 1354.86,447.042 1380.72,458.577 1402.3,472.364 1443.62,480.833 1465.21,494.632 1494.66,519.4 1526.74,547.848 1549.21,558.705 1571.71,569.574 1590.74,579.742 1600.14,572.283 1624.99,561.758 1654.96,546.038 1675.51,537.766 1708.07,525.715 1740.77,526.182 1777.91,536.916 1803.22,563.974 1806.01,580.161 1803.05,617.078 1782.8,650.487 1783.94,672.645 1774.03,708.245 1775.34,743.033 1792.97,771.801 1826.13,797.491 1864.07,792.727 1877.94,795.583 1916.06,803.425 1935.42,826.284 1964.37,854.289 1984.77,886.849 1994.76,917.291 1997.62,933.651 2012.13,920.873 2054.64,926.486 2078.97,931.496 2089.61,946.317 2092.27,950.023 2094.12,956.719 2099.66,976.809 2102.32,980.526 2119.72,984.109 2137.92,984.712 2169.82,975.492 2195.22,990.214 2203.23,1001.35 2218.45,1026.63 2216.01,1035.61 2220.07,1020.63 2225.74,999.668 2222.57,970.592 2210.86,946.071 2194.85,923.852 2185.81,903.073 2187.19,884.448 2153.84,858.684 2151.54,826.74 2157.21,805.899 2174.34,796.851 2195.96,798.168 2222.92,806.847 2237.86,819.354 2250.37,840.797 2280.28,865.836 2290.15,883.611 2278.62,912.736 2258.25,933.761 2242.16,952.534 2209.47,964.733 2193.36,983.518 2164.14,996.443 2135.13,1022.07 2118.99,1040.88 2108.98,1064.15 2087.7,1088.26 2070.71,1110.11 2044.08,1126.82 2019.07,1137.51 1984.62,1155.78 1961.44,1173.22 1933.74,1180.2 1901.9,1202.23 1890.8,1215.84 1853.63,1230.42 1839.02,1243.32 1818.42,1264.54 1798.81,1295.55 1794.66,1310.64 1788.83,1331.79 1781.34,1358.99 1808.62,1380.66 1813.11,1391.2 1805.62,1418.44 1798.12,1445.72 1779.8,1445.1 1754.48,1443.04 1730.69,1422.07 1719.91,1394.2 1706.62,1375.44 1680.21,1350.76 1636.39,1322.46 1614.6,1321.13 1578.04,1319.92 1538.95,1327.76 1495.51,1337.92 1477.23,1337.3 1436.23,1325.58 1413.52,1314.46 1391.59,1287.53 1390.48,1252.19 1384.1,1209.42 1363.98,1189.31 1343.88,1169.21 1349.75,1135.43 1346.12,1109.25 1338.16,1085.37 1324.96,1054.07 1305.77,1031.06 1302.15,1004.95 1308.88,968.34 1318.21,935.472 1337.07,907.775 1353.31,876.397 1366.06,844.33 1393.57,824.795 1386.49,798.131 1371.63,773.032 1338.67,747.366 1309.34,747.612 1291.14,734.428 1280.64,707.125 1276.15,671.66 1290.67,646.425 1303.47,627.123 1324.09,618.826 1361.05,604.498 1398.9,599.758 1440.2,595.733 1476.38,596.915 1500.42,589.332 1526.85,560.367 1543.04,541.816 1572.17,529.063 1591.91,523.745 1596.06,508.985 1582.15,493.66 1557.91,476.217 1532.02,464.67 1500.81,433.341 1481.71,410.753 1470.36,386.65 1453.9,367.73 1451.2,351.641 1457.86,328.154 1474.95,319.241 1493.91,329.323 1529.11,333.422 1572.02,335.983 1602.15,345.252 1644.25,350.755 1672.6,353.45 1704.54,369.306 1725.19,373.528 1752.58,366.708 1777.35,356.245 1811.61,350.828 1844.22,351.284 1875.03,345.166 1895.87,361.846 1906.39,376.408 1911.46,371.238 1924.06,352.084 1943.53,334.346 1960.57,325.421 1986.91,309.098 2003.1,303.103 1991.97,303.928 1963.43,288.811 1957.17,272.058 1944.66,238.563 1951.98,212.22 1962.09,201.929 1994.46,189.988 2029.63,194.063 2050.26,198.273 2088.89,203.049 2125.1,216.602 2144.35,239.067 2147.45,267.54 2140.2,293.908 2131.71,298.376 2133.77,317.383 2137.66,342.975 2131.42,378.932 2099,390.934 2080.79,430.719 2054.42,447.092 2032.49,473.73 2026.2,509.835 2003.86,511.484 1962.62,515.51 1925.84,529.801 1896.76,542.567 1881.67,570.695 1869.19,602.516 1870.19,612.093 1897.02,620.734 1929.14,636.712 1969.01,651.164 2002.19,676.769 2024.8,687.675 2067.16,693.239 2099.95,693.707 2141.3,689.669 2165.54,694.655 2191.42,693.695 2202.38,680.289 2219.23,658.71 2236.05,637.131 2232.12,611.317 2229.21,595.105 2218.35,567.9 2187.8,546.038 2170.29,529.986 2145.06,515.46 2096.91,518.07 2080.66,524.102 2053.44,543.478 2037.4,562.029 2007.7,590.292 2007.3,618.346 2012.98,650.795 2016.03,679.612 2034.58,705.352 2046.19,729.689 2061.49,767.369 2075.8,795.436 2106.2,804.84 2137.66,823.884 2165.89,854.868 2182.67,874.071 2198.9,908.92 2204.46,928.985 2202.03,937.947 2167.5,943.449 2126.23,960.191 2105.36,955.882 2092.49,962.702 2069.17,967.367 2044.85,962.345 2009.06,945.48 1981.26,939.744 1943.24,944.532 1894.96,959.834 1862.23,972.033 1825.83,970.839 1779.18,980.17 1746.26,979.689 1705.56,980.773 1677.78,975.036 1639.73,979.813 1608.49,973.362 1573.77,966.186 1532.76,929.256 1512.78,921.969 1471.18,913.376 1439.06,897.263 1410.41,881.875 1376.54,859.102 1355.75,854.818 1326.45,867.694 1299.75,884.263 1269.56,900.143 1227.29,919.839 1192.71,925.329 1168.47,920.319 1135.52,894.542 1119.88,872.36 1099.92,839.825 1073.95,815.538 1064.39,785.194 1060.87,759.282 1063.42,737.776 1047.83,703.124 1026.25,689.251 996.93,676.929 977.954,654.18 969.319,621.03 967.569,601.863 954.653,571.002 965.819,545.127 989.004,515.497 995.874,504.406 1008.75,497.685 1020.77,481.411 1025.89,463.734 1033.58,437.244 1040.41,413.707 1045.5,383.597 1059.15,349.068 1056.55,332.979 1033.36,312.693 1015.34,299.681 986.198,299.927 957.922,309.664 930.5,304.051 895.368,287.531 855.97,273.252 842.273,270.445 818.293,265.534 802.05,246.687 801.24,224.813 817.526,206.446 841.506,186.566 864.619,169.628 915.082,158.278 936.458,147.187 970.65,141.795 999.736,153.932 1027.11,159.521 1064.73,154.831 1098.93,149.452 1115.96,128.205 1132.15,109.888 1145.74,87.9763 "/>
<path clip-path="url(#clip420)" d="M214.252 1438.47 L760.776 1438.47 L760.776 1282.95 L214.252 1282.95  Z" fill="#ffffff" fill-rule="evenodd" fill-opacity="1"/>
<polyline clip-path="url(#clip420)" style="stroke:#000000; stroke-linecap:round; stroke-linejoin:round; stroke-width:4; stroke-opacity:1; fill:none" points="214.252,1438.47 760.776,1438.47 760.776,1282.95 214.252,1282.95 214.252,1438.47 "/>
<polyline clip-path="url(#clip420)" style="stroke:#0000ff; stroke-linecap:round; stroke-linejoin:round; stroke-width:4; stroke-opacity:1; fill:none" points="238.832,1334.79 386.315,1334.79 "/>
<path clip-path="url(#clip420)" d="M434.924 1338.05 L434.924 1340.13 L415.34 1340.13 Q415.618 1344.53 417.979 1346.84 Q420.363 1349.13 424.6 1349.13 Q427.053 1349.13 429.345 1348.53 Q431.66 1347.93 433.928 1346.73 L433.928 1350.75 Q431.637 1351.73 429.229 1352.24 Q426.822 1352.75 424.345 1352.75 Q418.141 1352.75 414.507 1349.13 Q410.896 1345.52 410.896 1339.37 Q410.896 1333 414.322 1329.27 Q417.771 1325.52 423.604 1325.52 Q428.836 1325.52 431.868 1328.9 Q434.924 1332.26 434.924 1338.05 M430.664 1336.8 Q430.618 1333.3 428.697 1331.22 Q426.799 1329.13 423.65 1329.13 Q420.086 1329.13 417.933 1331.15 Q415.803 1333.16 415.479 1336.82 L430.664 1336.8 Z" fill="#000000" fill-rule="nonzero" fill-opacity="1" /><path clip-path="url(#clip420)" d="M458.442 1326.91 L458.442 1330.94 Q456.636 1330.01 454.692 1329.55 Q452.748 1329.09 450.664 1329.09 Q447.493 1329.09 445.896 1330.06 Q444.322 1331.03 444.322 1332.98 Q444.322 1334.46 445.456 1335.32 Q446.59 1336.15 450.016 1336.91 L451.474 1337.24 Q456.011 1338.21 457.91 1339.99 Q459.831 1341.75 459.831 1344.92 Q459.831 1348.53 456.96 1350.64 Q454.113 1352.75 449.113 1352.75 Q447.03 1352.75 444.761 1352.33 Q442.516 1351.94 440.016 1351.13 L440.016 1346.73 Q442.377 1347.95 444.669 1348.58 Q446.961 1349.18 449.206 1349.18 Q452.215 1349.18 453.836 1348.16 Q455.456 1347.12 455.456 1345.25 Q455.456 1343.51 454.275 1342.58 Q453.118 1341.66 449.16 1340.8 L447.678 1340.45 Q443.72 1339.62 441.961 1337.91 Q440.201 1336.17 440.201 1333.16 Q440.201 1329.51 442.794 1327.51 Q445.386 1325.52 450.155 1325.52 Q452.516 1325.52 454.599 1325.87 Q456.683 1326.22 458.442 1326.91 Z" fill="#000000" fill-rule="nonzero" fill-opacity="1" /><path clip-path="url(#clip420)" d="M470.826 1318.79 L470.826 1326.15 L479.599 1326.15 L479.599 1329.46 L470.826 1329.46 L470.826 1343.53 Q470.826 1346.7 471.683 1347.61 Q472.562 1348.51 475.224 1348.51 L479.599 1348.51 L479.599 1352.07 L475.224 1352.07 Q470.294 1352.07 468.419 1350.25 Q466.544 1348.39 466.544 1343.53 L466.544 1329.46 L463.419 1329.46 L463.419 1326.15 L466.544 1326.15 L466.544 1318.79 L470.826 1318.79 Z" fill="#000000" fill-rule="nonzero" fill-opacity="1" /><path clip-path="url(#clip420)" d="M485.201 1326.15 L489.46 1326.15 L489.46 1352.07 L485.201 1352.07 L485.201 1326.15 M485.201 1316.06 L489.46 1316.06 L489.46 1321.45 L485.201 1321.45 L485.201 1316.06 Z" fill="#000000" fill-rule="nonzero" fill-opacity="1" /><path clip-path="url(#clip420)" d="M518.557 1331.13 Q520.155 1328.26 522.377 1326.89 Q524.599 1325.52 527.608 1325.52 Q531.659 1325.52 533.858 1328.37 Q536.057 1331.19 536.057 1336.43 L536.057 1352.07 L531.775 1352.07 L531.775 1336.57 Q531.775 1332.84 530.455 1331.03 Q529.136 1329.23 526.428 1329.23 Q523.118 1329.23 521.196 1331.43 Q519.275 1333.63 519.275 1337.42 L519.275 1352.07 L514.993 1352.07 L514.993 1336.57 Q514.993 1332.82 513.673 1331.03 Q512.354 1329.23 509.599 1329.23 Q506.335 1329.23 504.414 1331.45 Q502.493 1333.65 502.493 1337.42 L502.493 1352.07 L498.21 1352.07 L498.21 1326.15 L502.493 1326.15 L502.493 1330.18 Q503.951 1327.79 505.988 1326.66 Q508.025 1325.52 510.826 1325.52 Q513.65 1325.52 515.618 1326.96 Q517.608 1328.39 518.557 1331.13 Z" fill="#000000" fill-rule="nonzero" fill-opacity="1" /><path clip-path="url(#clip420)" d="M556.335 1339.04 Q551.173 1339.04 549.182 1340.22 Q547.191 1341.4 547.191 1344.25 Q547.191 1346.52 548.673 1347.86 Q550.178 1349.18 552.747 1349.18 Q556.289 1349.18 558.418 1346.68 Q560.571 1344.16 560.571 1339.99 L560.571 1339.04 L556.335 1339.04 M564.83 1337.28 L564.83 1352.07 L560.571 1352.07 L560.571 1348.14 Q559.113 1350.5 556.937 1351.63 Q554.761 1352.75 551.613 1352.75 Q547.631 1352.75 545.27 1350.52 Q542.932 1348.28 542.932 1344.53 Q542.932 1340.15 545.849 1337.93 Q548.789 1335.71 554.599 1335.71 L560.571 1335.71 L560.571 1335.29 Q560.571 1332.35 558.627 1330.76 Q556.705 1329.13 553.21 1329.13 Q550.988 1329.13 548.881 1329.67 Q546.775 1330.2 544.83 1331.26 L544.83 1327.33 Q547.168 1326.43 549.367 1325.99 Q551.566 1325.52 553.65 1325.52 Q559.275 1325.52 562.053 1328.44 Q564.83 1331.36 564.83 1337.28 Z" fill="#000000" fill-rule="nonzero" fill-opacity="1" /><path clip-path="url(#clip420)" d="M577.816 1318.79 L577.816 1326.15 L586.589 1326.15 L586.589 1329.46 L577.816 1329.46 L577.816 1343.53 Q577.816 1346.7 578.673 1347.61 Q579.552 1348.51 582.214 1348.51 L586.589 1348.51 L586.589 1352.07 L582.214 1352.07 Q577.284 1352.07 575.409 1350.25 Q573.534 1348.39 573.534 1343.53 L573.534 1329.46 L570.409 1329.46 L570.409 1326.15 L573.534 1326.15 L573.534 1318.79 L577.816 1318.79 Z" fill="#000000" fill-rule="nonzero" fill-opacity="1" /><path clip-path="url(#clip420)" d="M614.367 1338.05 L614.367 1340.13 L594.784 1340.13 Q595.062 1344.53 597.423 1346.84 Q599.807 1349.13 604.043 1349.13 Q606.497 1349.13 608.788 1348.53 Q611.103 1347.93 613.372 1346.73 L613.372 1350.75 Q611.08 1351.73 608.673 1352.24 Q606.265 1352.75 603.788 1352.75 Q597.585 1352.75 593.95 1349.13 Q590.339 1345.52 590.339 1339.37 Q590.339 1333 593.765 1329.27 Q597.214 1325.52 603.048 1325.52 Q608.279 1325.52 611.312 1328.9 Q614.367 1332.26 614.367 1338.05 M610.108 1336.8 Q610.062 1333.3 608.14 1331.22 Q606.242 1329.13 603.094 1329.13 Q599.529 1329.13 597.376 1331.15 Q595.247 1333.16 594.923 1336.82 L610.108 1336.8 Z" fill="#000000" fill-rule="nonzero" fill-opacity="1" /><polyline clip-path="url(#clip420)" style="stroke:#ff0000; stroke-linecap:round; stroke-linejoin:round; stroke-width:4; stroke-opacity:1; fill:none" points="238.832,1386.63 386.315,1386.63 "/>
<path clip-path="url(#clip420)" d="M431.243 1382.97 Q432.84 1380.1 435.062 1378.73 Q437.285 1377.36 440.294 1377.36 Q444.345 1377.36 446.544 1380.21 Q448.743 1383.03 448.743 1388.27 L448.743 1403.91 L444.461 1403.91 L444.461 1388.41 Q444.461 1384.68 443.141 1382.87 Q441.822 1381.07 439.113 1381.07 Q435.803 1381.07 433.882 1383.27 Q431.961 1385.47 431.961 1389.26 L431.961 1403.91 L427.678 1403.91 L427.678 1388.41 Q427.678 1384.66 426.359 1382.87 Q425.039 1381.07 422.285 1381.07 Q419.021 1381.07 417.1 1383.29 Q415.178 1385.49 415.178 1389.26 L415.178 1403.91 L410.896 1403.91 L410.896 1377.99 L415.178 1377.99 L415.178 1382.02 Q416.637 1379.63 418.674 1378.5 Q420.711 1377.36 423.512 1377.36 Q426.336 1377.36 428.303 1378.8 Q430.294 1380.23 431.243 1382.97 Z" fill="#000000" fill-rule="nonzero" fill-opacity="1" /><path clip-path="url(#clip420)" d="M479.414 1389.89 L479.414 1391.97 L459.831 1391.97 Q460.109 1396.37 462.47 1398.68 Q464.854 1400.97 469.09 1400.97 Q471.544 1400.97 473.835 1400.37 Q476.15 1399.77 478.419 1398.57 L478.419 1402.59 Q476.127 1403.57 473.72 1404.08 Q471.312 1404.59 468.835 1404.59 Q462.632 1404.59 458.998 1400.97 Q455.386 1397.36 455.386 1391.21 Q455.386 1384.84 458.812 1381.11 Q462.261 1377.36 468.095 1377.36 Q473.326 1377.36 476.359 1380.74 Q479.414 1384.1 479.414 1389.89 M475.155 1388.64 Q475.109 1385.14 473.187 1383.06 Q471.289 1380.97 468.141 1380.97 Q464.576 1380.97 462.423 1382.99 Q460.294 1385 459.97 1388.66 L475.155 1388.64 Z" fill="#000000" fill-rule="nonzero" fill-opacity="1" /><path clip-path="url(#clip420)" d="M498.187 1390.88 Q493.025 1390.88 491.034 1392.06 Q489.044 1393.24 489.044 1396.09 Q489.044 1398.36 490.525 1399.7 Q492.03 1401.02 494.599 1401.02 Q498.141 1401.02 500.27 1398.52 Q502.423 1396 502.423 1391.83 L502.423 1390.88 L498.187 1390.88 M506.682 1389.12 L506.682 1403.91 L502.423 1403.91 L502.423 1399.98 Q500.965 1402.34 498.789 1403.47 Q496.613 1404.59 493.465 1404.59 Q489.483 1404.59 487.122 1402.36 Q484.784 1400.12 484.784 1396.37 Q484.784 1391.99 487.701 1389.77 Q490.641 1387.55 496.451 1387.55 L502.423 1387.55 L502.423 1387.13 Q502.423 1384.19 500.479 1382.6 Q498.557 1380.97 495.062 1380.97 Q492.84 1380.97 490.733 1381.51 Q488.627 1382.04 486.683 1383.1 L486.683 1379.17 Q489.021 1378.27 491.22 1377.83 Q493.419 1377.36 495.502 1377.36 Q501.127 1377.36 503.905 1380.28 Q506.682 1383.2 506.682 1389.12 Z" fill="#000000" fill-rule="nonzero" fill-opacity="1" /><path clip-path="url(#clip420)" d="M531.983 1378.75 L531.983 1382.78 Q530.178 1381.85 528.233 1381.39 Q526.289 1380.93 524.206 1380.93 Q521.034 1380.93 519.437 1381.9 Q517.863 1382.87 517.863 1384.82 Q517.863 1386.3 518.997 1387.16 Q520.131 1387.99 523.557 1388.75 L525.016 1389.08 Q529.553 1390.05 531.451 1391.83 Q533.372 1393.59 533.372 1396.76 Q533.372 1400.37 530.502 1402.48 Q527.655 1404.59 522.655 1404.59 Q520.571 1404.59 518.303 1404.17 Q516.057 1403.78 513.557 1402.97 L513.557 1398.57 Q515.919 1399.79 518.21 1400.42 Q520.502 1401.02 522.747 1401.02 Q525.756 1401.02 527.377 1400 Q528.997 1398.96 528.997 1397.09 Q528.997 1395.35 527.817 1394.42 Q526.659 1393.5 522.701 1392.64 L521.219 1392.29 Q517.261 1391.46 515.502 1389.75 Q513.743 1388.01 513.743 1385 Q513.743 1381.35 516.335 1379.35 Q518.928 1377.36 523.696 1377.36 Q526.057 1377.36 528.141 1377.71 Q530.224 1378.06 531.983 1378.75 Z" fill="#000000" fill-rule="nonzero" fill-opacity="1" /><path clip-path="url(#clip420)" d="M539.715 1393.68 L539.715 1377.99 L543.974 1377.99 L543.974 1393.52 Q543.974 1397.2 545.409 1399.05 Q546.844 1400.88 549.715 1400.88 Q553.164 1400.88 555.154 1398.68 Q557.168 1396.48 557.168 1392.69 L557.168 1377.99 L561.428 1377.99 L561.428 1403.91 L557.168 1403.91 L557.168 1399.93 Q555.617 1402.29 553.557 1403.45 Q551.52 1404.59 548.812 1404.59 Q544.344 1404.59 542.029 1401.81 Q539.715 1399.03 539.715 1393.68 M550.432 1377.36 L550.432 1377.36 Z" fill="#000000" fill-rule="nonzero" fill-opacity="1" /><path clip-path="url(#clip420)" d="M585.224 1381.97 Q584.506 1381.55 583.65 1381.37 Q582.816 1381.16 581.798 1381.16 Q578.187 1381.16 576.242 1383.52 Q574.321 1385.86 574.321 1390.26 L574.321 1403.91 L570.039 1403.91 L570.039 1377.99 L574.321 1377.99 L574.321 1382.02 Q575.664 1379.66 577.816 1378.52 Q579.969 1377.36 583.048 1377.36 Q583.488 1377.36 584.02 1377.43 Q584.552 1377.48 585.201 1377.6 L585.224 1381.97 Z" fill="#000000" fill-rule="nonzero" fill-opacity="1" /><path clip-path="url(#clip420)" d="M610.825 1389.89 L610.825 1391.97 L591.242 1391.97 Q591.52 1396.37 593.881 1398.68 Q596.265 1400.97 600.501 1400.97 Q602.955 1400.97 605.247 1400.37 Q607.562 1399.77 609.83 1398.57 L609.83 1402.59 Q607.538 1403.57 605.131 1404.08 Q602.724 1404.59 600.247 1404.59 Q594.043 1404.59 590.409 1400.97 Q586.798 1397.36 586.798 1391.21 Q586.798 1384.84 590.224 1381.11 Q593.673 1377.36 599.506 1377.36 Q604.737 1377.36 607.77 1380.74 Q610.825 1384.1 610.825 1389.89 M606.566 1388.64 Q606.52 1385.14 604.599 1383.06 Q602.7 1380.97 599.552 1380.97 Q595.988 1380.97 593.835 1382.99 Q591.705 1385 591.381 1388.66 L606.566 1388.64 Z" fill="#000000" fill-rule="nonzero" fill-opacity="1" /><path clip-path="url(#clip420)" d="M638.001 1382.97 Q639.598 1380.1 641.821 1378.73 Q644.043 1377.36 647.052 1377.36 Q651.103 1377.36 653.302 1380.21 Q655.501 1383.03 655.501 1388.27 L655.501 1403.91 L651.219 1403.91 L651.219 1388.41 Q651.219 1384.68 649.899 1382.87 Q648.58 1381.07 645.872 1381.07 Q642.561 1381.07 640.64 1383.27 Q638.719 1385.47 638.719 1389.26 L638.719 1403.91 L634.436 1403.91 L634.436 1388.41 Q634.436 1384.66 633.117 1382.87 Q631.798 1381.07 629.043 1381.07 Q625.779 1381.07 623.858 1383.29 Q621.936 1385.49 621.936 1389.26 L621.936 1403.91 L617.654 1403.91 L617.654 1377.99 L621.936 1377.99 L621.936 1382.02 Q623.395 1379.63 625.432 1378.5 Q627.469 1377.36 630.27 1377.36 Q633.094 1377.36 635.061 1378.8 Q637.052 1380.23 638.001 1382.97 Z" fill="#000000" fill-rule="nonzero" fill-opacity="1" /><path clip-path="url(#clip420)" d="M686.172 1389.89 L686.172 1391.97 L666.589 1391.97 Q666.867 1396.37 669.228 1398.68 Q671.612 1400.97 675.848 1400.97 Q678.302 1400.97 680.594 1400.37 Q682.908 1399.77 685.177 1398.57 L685.177 1402.59 Q682.885 1403.57 680.478 1404.08 Q678.07 1404.59 675.594 1404.59 Q669.39 1404.59 665.756 1400.97 Q662.145 1397.36 662.145 1391.21 Q662.145 1384.84 665.57 1381.11 Q669.02 1377.36 674.853 1377.36 Q680.084 1377.36 683.117 1380.74 Q686.172 1384.1 686.172 1389.89 M681.913 1388.64 Q681.867 1385.14 679.945 1383.06 Q678.047 1380.97 674.899 1380.97 Q671.334 1380.97 669.182 1382.99 Q667.052 1385 666.728 1388.66 L681.913 1388.64 Z" fill="#000000" fill-rule="nonzero" fill-opacity="1" /><path clip-path="url(#clip420)" d="M714.714 1388.27 L714.714 1403.91 L710.455 1403.91 L710.455 1388.41 Q710.455 1384.72 709.019 1382.9 Q707.584 1381.07 704.714 1381.07 Q701.265 1381.07 699.274 1383.27 Q697.283 1385.47 697.283 1389.26 L697.283 1403.91 L693.001 1403.91 L693.001 1377.99 L697.283 1377.99 L697.283 1382.02 Q698.811 1379.68 700.871 1378.52 Q702.955 1377.36 705.663 1377.36 Q710.13 1377.36 712.422 1380.14 Q714.714 1382.9 714.714 1388.27 Z" fill="#000000" fill-rule="nonzero" fill-opacity="1" /><path clip-path="url(#clip420)" d="M727.422 1370.63 L727.422 1377.99 L736.195 1377.99 L736.195 1381.3 L727.422 1381.3 L727.422 1395.37 Q727.422 1398.54 728.278 1399.45 Q729.158 1400.35 731.82 1400.35 L736.195 1400.35 L736.195 1403.91 L731.82 1403.91 Q726.89 1403.91 725.015 1402.09 Q723.14 1400.23 723.14 1395.37 L723.14 1381.3 L720.015 1381.3 L720.015 1377.99 L723.14 1377.99 L723.14 1370.63 L727.422 1370.63 Z" fill="#000000" fill-rule="nonzero" fill-opacity="1" /></svg>
