<?xml version="1.0" encoding="utf-8"?>
<svg xmlns="http://www.w3.org/2000/svg" xmlns:xlink="http://www.w3.org/1999/xlink" width="600" height="400" viewBox="0 0 2400 1600">
<defs>
  <clipPath id="clip740">
    <rect x="0" y="0" width="2400" height="1600"/>
  </clipPath>
</defs>
<path clip-path="url(#clip740)" d="M0 1600 L2400 1600 L2400 0 L0 0  Z" fill="#ffffff" fill-rule="evenodd" fill-opacity="1"/>
<defs>
  <clipPath id="clip741">
    <rect x="480" y="0" width="1681" height="1600"/>
  </clipPath>
</defs>
<path clip-path="url(#clip740)" d="M193.936 1486.45 L1152.76 1486.45 L1152.76 47.2441 L193.936 47.2441  Z" fill="#ffffff" fill-rule="evenodd" fill-opacity="1"/>
<defs>
  <clipPath id="clip742">
    <rect x="193" y="47" width="960" height="1440"/>
  </clipPath>
</defs>
<polyline clip-path="url(#clip742)" style="stroke:#000000; stroke-linecap:round; stroke-linejoin:round; stroke-width:2; stroke-opacity:0.1; fill:none" points="209.622,1486.45 209.622,47.2441 "/>
<polyline clip-path="url(#clip742)" style="stroke:#000000; stroke-linecap:round; stroke-linejoin:round; stroke-width:2; stroke-opacity:0.1; fill:none" points="438.622,1486.45 438.622,47.2441 "/>
<polyline clip-path="url(#clip742)" style="stroke:#000000; stroke-linecap:round; stroke-linejoin:round; stroke-width:2; stroke-opacity:0.1; fill:none" points="667.621,1486.45 667.621,47.2441 "/>
<polyline clip-path="url(#clip742)" style="stroke:#000000; stroke-linecap:round; stroke-linejoin:round; stroke-width:2; stroke-opacity:0.1; fill:none" points="896.62,1486.45 896.62,47.2441 "/>
<polyline clip-path="url(#clip742)" style="stroke:#000000; stroke-linecap:round; stroke-linejoin:round; stroke-width:2; stroke-opacity:0.1; fill:none" points="1125.62,1486.45 1125.62,47.2441 "/>
<polyline clip-path="url(#clip742)" style="stroke:#000000; stroke-linecap:round; stroke-linejoin:round; stroke-width:2; stroke-opacity:0.1; fill:none" points="193.936,1350.59 1152.76,1350.59 "/>
<polyline clip-path="url(#clip742)" style="stroke:#000000; stroke-linecap:round; stroke-linejoin:round; stroke-width:2; stroke-opacity:0.1; fill:none" points="193.936,1148.81 1152.76,1148.81 "/>
<polyline clip-path="url(#clip742)" style="stroke:#000000; stroke-linecap:round; stroke-linejoin:round; stroke-width:2; stroke-opacity:0.1; fill:none" points="193.936,947.044 1152.76,947.044 "/>
<polyline clip-path="url(#clip742)" style="stroke:#000000; stroke-linecap:round; stroke-linejoin:round; stroke-width:2; stroke-opacity:0.1; fill:none" points="193.936,745.272 1152.76,745.272 "/>
<polyline clip-path="url(#clip742)" style="stroke:#000000; stroke-linecap:round; stroke-linejoin:round; stroke-width:2; stroke-opacity:0.1; fill:none" points="193.936,543.501 1152.76,543.501 "/>
<polyline clip-path="url(#clip742)" style="stroke:#000000; stroke-linecap:round; stroke-linejoin:round; stroke-width:2; stroke-opacity:0.1; fill:none" points="193.936,341.73 1152.76,341.73 "/>
<polyline clip-path="url(#clip742)" style="stroke:#000000; stroke-linecap:round; stroke-linejoin:round; stroke-width:2; stroke-opacity:0.1; fill:none" points="193.936,139.958 1152.76,139.958 "/>
<polyline clip-path="url(#clip740)" style="stroke:#000000; stroke-linecap:round; stroke-linejoin:round; stroke-width:4; stroke-opacity:1; fill:none" points="193.936,1486.45 1152.76,1486.45 "/>
<polyline clip-path="url(#clip740)" style="stroke:#000000; stroke-linecap:round; stroke-linejoin:round; stroke-width:4; stroke-opacity:1; fill:none" points="209.622,1486.45 209.622,1467.55 "/>
<polyline clip-path="url(#clip740)" style="stroke:#000000; stroke-linecap:round; stroke-linejoin:round; stroke-width:4; stroke-opacity:1; fill:none" points="438.622,1486.45 438.622,1467.55 "/>
<polyline clip-path="url(#clip740)" style="stroke:#000000; stroke-linecap:round; stroke-linejoin:round; stroke-width:4; stroke-opacity:1; fill:none" points="667.621,1486.45 667.621,1467.55 "/>
<polyline clip-path="url(#clip740)" style="stroke:#000000; stroke-linecap:round; stroke-linejoin:round; stroke-width:4; stroke-opacity:1; fill:none" points="896.62,1486.45 896.62,1467.55 "/>
<polyline clip-path="url(#clip740)" style="stroke:#000000; stroke-linecap:round; stroke-linejoin:round; stroke-width:4; stroke-opacity:1; fill:none" points="1125.62,1486.45 1125.62,1467.55 "/>
<path clip-path="url(#clip740)" d="M209.622 1517.37 Q206.011 1517.37 204.183 1520.93 Q202.377 1524.47 202.377 1531.6 Q202.377 1538.71 204.183 1542.27 Q206.011 1545.82 209.622 1545.82 Q213.257 1545.82 215.062 1542.27 Q216.891 1538.71 216.891 1531.6 Q216.891 1524.47 215.062 1520.93 Q213.257 1517.37 209.622 1517.37 M209.622 1513.66 Q215.433 1513.66 218.488 1518.27 Q221.567 1522.85 221.567 1531.6 Q221.567 1540.33 218.488 1544.94 Q215.433 1549.52 209.622 1549.52 Q203.812 1549.52 200.734 1544.94 Q197.678 1540.33 197.678 1531.6 Q197.678 1522.85 200.734 1518.27 Q203.812 1513.66 209.622 1513.66 Z" fill="#000000" fill-rule="nonzero" fill-opacity="1" /><path clip-path="url(#clip740)" d="M417.395 1544.91 L433.714 1544.91 L433.714 1548.85 L411.77 1548.85 L411.77 1544.91 Q414.432 1542.16 419.015 1537.53 Q423.622 1532.88 424.802 1531.53 Q427.048 1529.01 427.927 1527.27 Q428.83 1525.51 428.83 1523.82 Q428.83 1521.07 426.886 1519.33 Q424.964 1517.6 421.863 1517.6 Q419.663 1517.6 417.21 1518.36 Q414.779 1519.13 412.001 1520.68 L412.001 1515.95 Q414.826 1514.82 417.279 1514.24 Q419.733 1513.66 421.77 1513.66 Q427.14 1513.66 430.335 1516.35 Q433.529 1519.03 433.529 1523.52 Q433.529 1525.65 432.719 1527.57 Q431.932 1529.47 429.825 1532.07 Q429.247 1532.74 426.145 1535.95 Q423.043 1539.15 417.395 1544.91 Z" fill="#000000" fill-rule="nonzero" fill-opacity="1" /><path clip-path="url(#clip740)" d="M453.529 1517.37 Q449.918 1517.37 448.089 1520.93 Q446.284 1524.47 446.284 1531.6 Q446.284 1538.71 448.089 1542.27 Q449.918 1545.82 453.529 1545.82 Q457.163 1545.82 458.969 1542.27 Q460.798 1538.71 460.798 1531.6 Q460.798 1524.47 458.969 1520.93 Q457.163 1517.37 453.529 1517.37 M453.529 1513.66 Q459.339 1513.66 462.395 1518.27 Q465.473 1522.85 465.473 1531.6 Q465.473 1540.33 462.395 1544.94 Q459.339 1549.52 453.529 1549.52 Q447.719 1549.52 444.64 1544.94 Q441.585 1540.33 441.585 1531.6 Q441.585 1522.85 444.64 1518.27 Q447.719 1513.66 453.529 1513.66 Z" fill="#000000" fill-rule="nonzero" fill-opacity="1" /><path clip-path="url(#clip740)" d="M655.792 1518.36 L643.987 1536.81 L655.792 1536.81 L655.792 1518.36 M654.565 1514.29 L660.445 1514.29 L660.445 1536.81 L665.376 1536.81 L665.376 1540.7 L660.445 1540.7 L660.445 1548.85 L655.792 1548.85 L655.792 1540.7 L640.191 1540.7 L640.191 1536.19 L654.565 1514.29 Z" fill="#000000" fill-rule="nonzero" fill-opacity="1" /><path clip-path="url(#clip740)" d="M683.107 1517.37 Q679.496 1517.37 677.667 1520.93 Q675.862 1524.47 675.862 1531.6 Q675.862 1538.71 677.667 1542.27 Q679.496 1545.82 683.107 1545.82 Q686.741 1545.82 688.547 1542.27 Q690.375 1538.71 690.375 1531.6 Q690.375 1524.47 688.547 1520.93 Q686.741 1517.37 683.107 1517.37 M683.107 1513.66 Q688.917 1513.66 691.973 1518.27 Q695.051 1522.85 695.051 1531.6 Q695.051 1540.33 691.973 1544.94 Q688.917 1549.52 683.107 1549.52 Q677.297 1549.52 674.218 1544.94 Q671.163 1540.33 671.163 1531.6 Q671.163 1522.85 674.218 1518.27 Q677.297 1513.66 683.107 1513.66 Z" fill="#000000" fill-rule="nonzero" fill-opacity="1" /><path clip-path="url(#clip740)" d="M882.025 1529.7 Q878.877 1529.7 877.025 1531.86 Q875.197 1534.01 875.197 1537.76 Q875.197 1541.49 877.025 1543.66 Q878.877 1545.82 882.025 1545.82 Q885.174 1545.82 887.002 1543.66 Q888.854 1541.49 888.854 1537.76 Q888.854 1534.01 887.002 1531.86 Q885.174 1529.7 882.025 1529.7 M891.308 1515.05 L891.308 1519.31 Q889.549 1518.48 887.743 1518.04 Q885.961 1517.6 884.201 1517.6 Q879.572 1517.6 877.118 1520.72 Q874.687 1523.85 874.34 1530.17 Q875.706 1528.15 877.766 1527.09 Q879.826 1526 882.303 1526 Q887.511 1526 890.521 1529.17 Q893.553 1532.32 893.553 1537.76 Q893.553 1543.08 890.405 1546.3 Q887.257 1549.52 882.025 1549.52 Q876.03 1549.52 872.859 1544.94 Q869.688 1540.33 869.688 1531.6 Q869.688 1523.41 873.576 1518.55 Q877.465 1513.66 884.016 1513.66 Q885.775 1513.66 887.558 1514.01 Q889.363 1514.36 891.308 1515.05 Z" fill="#000000" fill-rule="nonzero" fill-opacity="1" /><path clip-path="url(#clip740)" d="M911.609 1517.37 Q907.997 1517.37 906.169 1520.93 Q904.363 1524.47 904.363 1531.6 Q904.363 1538.71 906.169 1542.27 Q907.997 1545.82 911.609 1545.82 Q915.243 1545.82 917.048 1542.27 Q918.877 1538.71 918.877 1531.6 Q918.877 1524.47 917.048 1520.93 Q915.243 1517.37 911.609 1517.37 M911.609 1513.66 Q917.419 1513.66 920.474 1518.27 Q923.553 1522.85 923.553 1531.6 Q923.553 1540.33 920.474 1544.94 Q917.419 1549.52 911.609 1549.52 Q905.798 1549.52 902.72 1544.94 Q899.664 1540.33 899.664 1531.6 Q899.664 1522.85 902.72 1518.27 Q905.798 1513.66 911.609 1513.66 Z" fill="#000000" fill-rule="nonzero" fill-opacity="1" /><path clip-path="url(#clip740)" d="M1110.49 1532.44 Q1107.16 1532.44 1105.24 1534.22 Q1103.34 1536 1103.34 1539.13 Q1103.34 1542.25 1105.24 1544.03 Q1107.16 1545.82 1110.49 1545.82 Q1113.83 1545.82 1115.75 1544.03 Q1117.67 1542.23 1117.67 1539.13 Q1117.67 1536 1115.75 1534.22 Q1113.85 1532.44 1110.49 1532.44 M1105.82 1530.45 Q1102.81 1529.7 1101.12 1527.64 Q1099.45 1525.58 1099.45 1522.62 Q1099.45 1518.48 1102.39 1516.07 Q1105.35 1513.66 1110.49 1513.66 Q1115.65 1513.66 1118.59 1516.07 Q1121.53 1518.48 1121.53 1522.62 Q1121.53 1525.58 1119.84 1527.64 Q1118.18 1529.7 1115.19 1530.45 Q1118.57 1531.23 1120.45 1533.52 Q1122.34 1535.82 1122.34 1539.13 Q1122.34 1544.15 1119.27 1546.83 Q1116.21 1549.52 1110.49 1549.52 Q1104.77 1549.52 1101.7 1546.83 Q1098.64 1544.15 1098.64 1539.13 Q1098.64 1535.82 1100.54 1533.52 Q1102.44 1531.23 1105.82 1530.45 M1104.1 1523.06 Q1104.1 1525.75 1105.77 1527.25 Q1107.46 1528.76 1110.49 1528.76 Q1113.5 1528.76 1115.19 1527.25 Q1116.9 1525.75 1116.9 1523.06 Q1116.9 1520.38 1115.19 1518.87 Q1113.5 1517.37 1110.49 1517.37 Q1107.46 1517.37 1105.77 1518.87 Q1104.1 1520.38 1104.1 1523.06 Z" fill="#000000" fill-rule="nonzero" fill-opacity="1" /><path clip-path="url(#clip740)" d="M1140.65 1517.37 Q1137.04 1517.37 1135.21 1520.93 Q1133.41 1524.47 1133.41 1531.6 Q1133.41 1538.71 1135.21 1542.27 Q1137.04 1545.82 1140.65 1545.82 Q1144.29 1545.82 1146.09 1542.27 Q1147.92 1538.71 1147.92 1531.6 Q1147.92 1524.47 1146.09 1520.93 Q1144.29 1517.37 1140.65 1517.37 M1140.65 1513.66 Q1146.46 1513.66 1149.52 1518.27 Q1152.6 1522.85 1152.6 1531.6 Q1152.6 1540.33 1149.52 1544.94 Q1146.46 1549.52 1140.65 1549.52 Q1134.84 1549.52 1131.77 1544.94 Q1128.71 1540.33 1128.71 1531.6 Q1128.71 1522.85 1131.77 1518.27 Q1134.84 1513.66 1140.65 1513.66 Z" fill="#000000" fill-rule="nonzero" fill-opacity="1" /><polyline clip-path="url(#clip740)" style="stroke:#000000; stroke-linecap:round; stroke-linejoin:round; stroke-width:4; stroke-opacity:1; fill:none" points="193.936,1486.45 193.936,47.2441 "/>
<polyline clip-path="url(#clip740)" style="stroke:#000000; stroke-linecap:round; stroke-linejoin:round; stroke-width:4; stroke-opacity:1; fill:none" points="193.936,1350.59 212.834,1350.59 "/>
<polyline clip-path="url(#clip740)" style="stroke:#000000; stroke-linecap:round; stroke-linejoin:round; stroke-width:4; stroke-opacity:1; fill:none" points="193.936,1148.81 212.834,1148.81 "/>
<polyline clip-path="url(#clip740)" style="stroke:#000000; stroke-linecap:round; stroke-linejoin:round; stroke-width:4; stroke-opacity:1; fill:none" points="193.936,947.044 212.834,947.044 "/>
<polyline clip-path="url(#clip740)" style="stroke:#000000; stroke-linecap:round; stroke-linejoin:round; stroke-width:4; stroke-opacity:1; fill:none" points="193.936,745.272 212.834,745.272 "/>
<polyline clip-path="url(#clip740)" style="stroke:#000000; stroke-linecap:round; stroke-linejoin:round; stroke-width:4; stroke-opacity:1; fill:none" points="193.936,543.501 212.834,543.501 "/>
<polyline clip-path="url(#clip740)" style="stroke:#000000; stroke-linecap:round; stroke-linejoin:round; stroke-width:4; stroke-opacity:1; fill:none" points="193.936,341.73 212.834,341.73 "/>
<polyline clip-path="url(#clip740)" style="stroke:#000000; stroke-linecap:round; stroke-linejoin:round; stroke-width:4; stroke-opacity:1; fill:none" points="193.936,139.958 212.834,139.958 "/>
<path clip-path="url(#clip740)" d="M51.9875 1351.04 L81.6633 1351.04 L81.6633 1354.97 L51.9875 1354.97 L51.9875 1351.04 Z" fill="#000000" fill-rule="nonzero" fill-opacity="1" /><path clip-path="url(#clip740)" d="M92.566 1363.93 L100.205 1363.93 L100.205 1337.57 L91.8947 1339.23 L91.8947 1334.97 L100.159 1333.31 L104.834 1333.31 L104.834 1363.93 L112.473 1363.93 L112.473 1367.87 L92.566 1367.87 L92.566 1363.93 Z" fill="#000000" fill-rule="nonzero" fill-opacity="1" /><path clip-path="url(#clip740)" d="M121.918 1361.99 L126.802 1361.99 L126.802 1367.87 L121.918 1367.87 L121.918 1361.99 Z" fill="#000000" fill-rule="nonzero" fill-opacity="1" /><path clip-path="url(#clip740)" d="M137.033 1333.31 L155.39 1333.31 L155.39 1337.24 L141.316 1337.24 L141.316 1345.71 Q142.334 1345.37 143.353 1345.2 Q144.371 1345.02 145.39 1345.02 Q151.177 1345.02 154.556 1348.19 Q157.936 1351.36 157.936 1356.78 Q157.936 1362.36 154.464 1365.46 Q150.992 1368.54 144.672 1368.54 Q142.496 1368.54 140.228 1368.17 Q137.982 1367.8 135.575 1367.06 L135.575 1362.36 Q137.658 1363.49 139.881 1364.05 Q142.103 1364.6 144.58 1364.6 Q148.584 1364.6 150.922 1362.5 Q153.26 1360.39 153.26 1356.78 Q153.26 1353.17 150.922 1351.06 Q148.584 1348.95 144.58 1348.95 Q142.705 1348.95 140.83 1349.37 Q138.978 1349.79 137.033 1350.67 L137.033 1333.31 Z" fill="#000000" fill-rule="nonzero" fill-opacity="1" /><path clip-path="url(#clip740)" d="M50.9921 1149.27 L80.6679 1149.27 L80.6679 1153.2 L50.9921 1153.2 L50.9921 1149.27 Z" fill="#000000" fill-rule="nonzero" fill-opacity="1" /><path clip-path="url(#clip740)" d="M91.5706 1162.16 L99.2095 1162.16 L99.2095 1135.79 L90.8993 1137.46 L90.8993 1133.2 L99.1632 1131.53 L103.839 1131.53 L103.839 1162.16 L111.478 1162.16 L111.478 1166.09 L91.5706 1166.09 L91.5706 1162.16 Z" fill="#000000" fill-rule="nonzero" fill-opacity="1" /><path clip-path="url(#clip740)" d="M120.922 1160.22 L125.807 1160.22 L125.807 1166.09 L120.922 1166.09 L120.922 1160.22 Z" fill="#000000" fill-rule="nonzero" fill-opacity="1" /><path clip-path="url(#clip740)" d="M145.992 1134.61 Q142.381 1134.61 140.552 1138.18 Q138.746 1141.72 138.746 1148.85 Q138.746 1155.96 140.552 1159.52 Q142.381 1163.06 145.992 1163.06 Q149.626 1163.06 151.431 1159.52 Q153.26 1155.96 153.26 1148.85 Q153.26 1141.72 151.431 1138.18 Q149.626 1134.61 145.992 1134.61 M145.992 1130.91 Q151.802 1130.91 154.857 1135.52 Q157.936 1140.1 157.936 1148.85 Q157.936 1157.58 154.857 1162.18 Q151.802 1166.77 145.992 1166.77 Q140.181 1166.77 137.103 1162.18 Q134.047 1157.58 134.047 1148.85 Q134.047 1140.1 137.103 1135.52 Q140.181 1130.91 145.992 1130.91 Z" fill="#000000" fill-rule="nonzero" fill-opacity="1" /><path clip-path="url(#clip740)" d="M51.9875 947.495 L81.6633 947.495 L81.6633 951.43 L51.9875 951.43 L51.9875 947.495 Z" fill="#000000" fill-rule="nonzero" fill-opacity="1" /><path clip-path="url(#clip740)" d="M101.756 932.842 Q98.1447 932.842 96.316 936.407 Q94.5104 939.949 94.5104 947.078 Q94.5104 954.185 96.316 957.75 Q98.1447 961.291 101.756 961.291 Q105.39 961.291 107.196 957.75 Q109.024 954.185 109.024 947.078 Q109.024 939.949 107.196 936.407 Q105.39 932.842 101.756 932.842 M101.756 929.139 Q107.566 929.139 110.621 933.745 Q113.7 938.328 113.7 947.078 Q113.7 955.805 110.621 960.412 Q107.566 964.995 101.756 964.995 Q95.9456 964.995 92.8669 960.412 Q89.8114 955.805 89.8114 947.078 Q89.8114 938.328 92.8669 933.745 Q95.9456 929.139 101.756 929.139 Z" fill="#000000" fill-rule="nonzero" fill-opacity="1" /><path clip-path="url(#clip740)" d="M121.918 958.444 L126.802 958.444 L126.802 964.324 L121.918 964.324 L121.918 958.444 Z" fill="#000000" fill-rule="nonzero" fill-opacity="1" /><path clip-path="url(#clip740)" d="M137.033 929.764 L155.39 929.764 L155.39 933.699 L141.316 933.699 L141.316 942.171 Q142.334 941.824 143.353 941.662 Q144.371 941.477 145.39 941.477 Q151.177 941.477 154.556 944.648 Q157.936 947.819 157.936 953.236 Q157.936 958.814 154.464 961.916 Q150.992 964.995 144.672 964.995 Q142.496 964.995 140.228 964.625 Q137.982 964.254 135.575 963.513 L135.575 958.814 Q137.658 959.949 139.881 960.504 Q142.103 961.06 144.58 961.06 Q148.584 961.06 150.922 958.953 Q153.26 956.847 153.26 953.236 Q153.26 949.625 150.922 947.518 Q148.584 945.412 144.58 945.412 Q142.705 945.412 140.83 945.828 Q138.978 946.245 137.033 947.125 L137.033 929.764 Z" fill="#000000" fill-rule="nonzero" fill-opacity="1" /><path clip-path="url(#clip740)" d="M100.76 731.071 Q97.1493 731.071 95.3206 734.636 Q93.515 738.177 93.515 745.307 Q93.515 752.413 95.3206 755.978 Q97.1493 759.52 100.76 759.52 Q104.395 759.52 106.2 755.978 Q108.029 752.413 108.029 745.307 Q108.029 738.177 106.2 734.636 Q104.395 731.071 100.76 731.071 M100.76 727.367 Q106.571 727.367 109.626 731.974 Q112.705 736.557 112.705 745.307 Q112.705 754.034 109.626 758.64 Q106.571 763.224 100.76 763.224 Q94.9502 763.224 91.8715 758.64 Q88.816 754.034 88.816 745.307 Q88.816 736.557 91.8715 731.974 Q94.9502 727.367 100.76 727.367 Z" fill="#000000" fill-rule="nonzero" fill-opacity="1" /><path clip-path="url(#clip740)" d="M120.922 756.673 L125.807 756.673 L125.807 762.552 L120.922 762.552 L120.922 756.673 Z" fill="#000000" fill-rule="nonzero" fill-opacity="1" /><path clip-path="url(#clip740)" d="M145.992 731.071 Q142.381 731.071 140.552 734.636 Q138.746 738.177 138.746 745.307 Q138.746 752.413 140.552 755.978 Q142.381 759.52 145.992 759.52 Q149.626 759.52 151.431 755.978 Q153.26 752.413 153.26 745.307 Q153.26 738.177 151.431 734.636 Q149.626 731.071 145.992 731.071 M145.992 727.367 Q151.802 727.367 154.857 731.974 Q157.936 736.557 157.936 745.307 Q157.936 754.034 154.857 758.64 Q151.802 763.224 145.992 763.224 Q140.181 763.224 137.103 758.64 Q134.047 754.034 134.047 745.307 Q134.047 736.557 137.103 731.974 Q140.181 727.367 145.992 727.367 Z" fill="#000000" fill-rule="nonzero" fill-opacity="1" /><path clip-path="url(#clip740)" d="M101.756 529.3 Q98.1447 529.3 96.316 532.865 Q94.5104 536.406 94.5104 543.536 Q94.5104 550.642 96.316 554.207 Q98.1447 557.749 101.756 557.749 Q105.39 557.749 107.196 554.207 Q109.024 550.642 109.024 543.536 Q109.024 536.406 107.196 532.865 Q105.39 529.3 101.756 529.3 M101.756 525.596 Q107.566 525.596 110.621 530.203 Q113.7 534.786 113.7 543.536 Q113.7 552.263 110.621 556.869 Q107.566 561.452 101.756 561.452 Q95.9456 561.452 92.8669 556.869 Q89.8114 552.263 89.8114 543.536 Q89.8114 534.786 92.8669 530.203 Q95.9456 525.596 101.756 525.596 Z" fill="#000000" fill-rule="nonzero" fill-opacity="1" /><path clip-path="url(#clip740)" d="M121.918 554.901 L126.802 554.901 L126.802 560.781 L121.918 560.781 L121.918 554.901 Z" fill="#000000" fill-rule="nonzero" fill-opacity="1" /><path clip-path="url(#clip740)" d="M137.033 526.221 L155.39 526.221 L155.39 530.156 L141.316 530.156 L141.316 538.628 Q142.334 538.281 143.353 538.119 Q144.371 537.934 145.39 537.934 Q151.177 537.934 154.556 541.105 Q157.936 544.277 157.936 549.693 Q157.936 555.272 154.464 558.374 Q150.992 561.452 144.672 561.452 Q142.496 561.452 140.228 561.082 Q137.982 560.712 135.575 559.971 L135.575 555.272 Q137.658 556.406 139.881 556.962 Q142.103 557.517 144.58 557.517 Q148.584 557.517 150.922 555.411 Q153.26 553.304 153.26 549.693 Q153.26 546.082 150.922 543.976 Q148.584 541.869 144.58 541.869 Q142.705 541.869 140.83 542.286 Q138.978 542.702 137.033 543.582 L137.033 526.221 Z" fill="#000000" fill-rule="nonzero" fill-opacity="1" /><path clip-path="url(#clip740)" d="M91.5706 355.075 L99.2095 355.075 L99.2095 328.709 L90.8993 330.376 L90.8993 326.116 L99.1632 324.45 L103.839 324.45 L103.839 355.075 L111.478 355.075 L111.478 359.01 L91.5706 359.01 L91.5706 355.075 Z" fill="#000000" fill-rule="nonzero" fill-opacity="1" /><path clip-path="url(#clip740)" d="M120.922 353.13 L125.807 353.13 L125.807 359.01 L120.922 359.01 L120.922 353.13 Z" fill="#000000" fill-rule="nonzero" fill-opacity="1" /><path clip-path="url(#clip740)" d="M145.992 327.528 Q142.381 327.528 140.552 331.093 Q138.746 334.635 138.746 341.764 Q138.746 348.871 140.552 352.436 Q142.381 355.977 145.992 355.977 Q149.626 355.977 151.431 352.436 Q153.26 348.871 153.26 341.764 Q153.26 334.635 151.431 331.093 Q149.626 327.528 145.992 327.528 M145.992 323.825 Q151.802 323.825 154.857 328.431 Q157.936 333.015 157.936 341.764 Q157.936 350.491 154.857 355.098 Q151.802 359.681 145.992 359.681 Q140.181 359.681 137.103 355.098 Q134.047 350.491 134.047 341.764 Q134.047 333.015 137.103 328.431 Q140.181 323.825 145.992 323.825 Z" fill="#000000" fill-rule="nonzero" fill-opacity="1" /><path clip-path="url(#clip740)" d="M92.566 153.303 L100.205 153.303 L100.205 126.938 L91.8947 128.604 L91.8947 124.345 L100.159 122.678 L104.834 122.678 L104.834 153.303 L112.473 153.303 L112.473 157.238 L92.566 157.238 L92.566 153.303 Z" fill="#000000" fill-rule="nonzero" fill-opacity="1" /><path clip-path="url(#clip740)" d="M121.918 151.359 L126.802 151.359 L126.802 157.238 L121.918 157.238 L121.918 151.359 Z" fill="#000000" fill-rule="nonzero" fill-opacity="1" /><path clip-path="url(#clip740)" d="M137.033 122.678 L155.39 122.678 L155.39 126.614 L141.316 126.614 L141.316 135.086 Q142.334 134.739 143.353 134.577 Q144.371 134.391 145.39 134.391 Q151.177 134.391 154.556 137.563 Q157.936 140.734 157.936 146.151 Q157.936 151.729 154.464 154.831 Q150.992 157.91 144.672 157.91 Q142.496 157.91 140.228 157.539 Q137.982 157.169 135.575 156.428 L135.575 151.729 Q137.658 152.864 139.881 153.419 Q142.103 153.975 144.58 153.975 Q148.584 153.975 150.922 151.868 Q153.26 149.762 153.26 146.151 Q153.26 142.54 150.922 140.433 Q148.584 138.327 144.58 138.327 Q142.705 138.327 140.83 138.743 Q138.978 139.16 137.033 140.04 L137.033 122.678 Z" fill="#000000" fill-rule="nonzero" fill-opacity="1" /><polyline clip-path="url(#clip742)" style="stroke:#009af9; stroke-linecap:round; stroke-linejoin:round; stroke-width:4; stroke-opacity:1; fill:none" points="221.072,707.114 232.522,750.976 243.972,819.077 255.422,757.963 266.872,716.157 278.322,719.876 289.772,696.185 301.222,688.874 312.672,633.202 324.122,608.006 335.572,609.579 347.022,607.818 358.472,562.164 369.922,471.288 381.372,479.334 392.822,360.117 404.272,278.979 415.722,238.979 427.172,207.878 438.622,192.133 450.072,173.119 461.522,191.214 472.972,206.405 484.422,228.75 495.872,297.921 507.321,285.387 518.771,338.26 530.221,493.611 541.671,529.991 553.121,529.665 564.571,590.983 576.021,625.994 587.471,699.617 598.921,756.052 610.371,822.443 621.821,912.924 633.271,949.574 644.721,1008.89 656.171,985.57 667.621,1024.24 679.071,1144.9 690.521,1201.19 701.971,1219.21 713.421,1284.33 724.871,1321.51 736.321,1368.89 747.771,1434.96 759.221,1407.34 770.671,1445.72 782.121,1434.18 793.571,1407.06 805.021,1441.44 816.47,1393.1 827.92,1381.74 839.37,1294.06 850.82,1246.56 862.27,1103.19 873.72,1037.41 885.17,930.882 896.62,869.368 908.07,830.169 919.52,752.292 930.97,700.527 942.42,594.035 953.87,604.328 965.32,498.668 976.77,454.885 988.22,431.465 999.67,413.024 1011.12,435.05 1022.57,400.124 1034.02,435.943 1045.47,425.941 1056.92,441.852 1068.37,586.701 1079.82,609.692 1091.27,547.263 1102.72,456.685 1114.17,380.386 1125.62,406.502 "/>
<polyline clip-path="url(#clip742)" style="stroke:#e26f46; stroke-linecap:round; stroke-linejoin:round; stroke-width:4; stroke-opacity:1; fill:none" points="221.072,707.706 232.522,751.386 243.972,816.697 255.422,759.358 266.872,712.904 278.322,721.812 289.772,693.826 301.222,683.421 312.672,623.253 324.122,588.856 335.572,593.737 347.022,591.651 358.472,540.066 369.922,444.952 381.372,447.345 392.822,328.095 404.272,242.037 415.722,195.787 427.172,153.424 438.622,120.398 450.072,87.9763 461.522,123.094 472.972,127.626 484.422,133.67 495.872,201.806 507.321,188.351 518.771,243.09 530.221,412.402 541.671,461.107 553.121,466.208 564.571,534.41 576.021,579.771 587.471,661.478 598.921,726.38 610.371,802.891 621.821,900.209 633.271,934.334 644.721,1000.39 656.171,978.755 667.621,1022.16 679.071,1145.56 690.521,1198.93 701.971,1217.29 713.421,1281.25 724.871,1316.53 736.321,1368.46 747.771,1441.47 759.221,1410.46 770.671,1443.31 782.121,1440.2 793.571,1415.24 805.021,1442.63 816.47,1394.96 827.92,1386.95 839.37,1292.46 850.82,1239.38 862.27,1096.08 873.72,1029.4 885.17,913.892 896.62,855.919 908.07,815.251 919.52,740.753 930.97,687.653 942.42,581.388 953.87,591.506 965.32,487.995 976.77,450.182 988.22,425.458 999.67,403.294 1011.12,434.684 1022.57,403.737 1034.02,434.872 1045.47,425.555 1056.92,436.814 1068.37,573.132 1079.82,596.083 1091.27,539.401 1102.72,445.953 1114.17,367.821 1125.62,391.589 "/>
<polyline clip-path="url(#clip742)" style="stroke:#3da44d; stroke-linecap:round; stroke-linejoin:round; stroke-width:4; stroke-opacity:1; fill:none" points="221.072,714.03 232.522,726.982 243.972,790.974 255.422,717.131 266.872,666.666 278.322,719.772 289.772,739.288 301.222,707.742 312.672,716.897 324.122,709.301 335.572,657.939 347.022,646.119 358.472,594.897 369.922,564.728 381.372,586.7 392.822,491.81 404.272,434.545 415.722,373.351 427.172,367.464 438.622,332.097 450.072,349.097 461.522,368.688 472.972,331.632 484.422,392.59 495.872,452.306 507.321,451.462 518.771,536.365 530.221,687.869 541.671,691.724 553.121,634.729 564.571,694.749 576.021,745.067 587.471,783.033 598.921,800.814 610.371,781.653 621.821,913.228 633.271,921.581 644.721,901.978 656.171,895.536 667.621,969.53 679.071,1094.5 690.521,1150.75 701.971,1073.03 713.421,1137 724.871,1151.74 736.321,1213.8 747.771,1282.28 759.221,1272.96 770.671,1357.43 782.121,1342.29 793.571,1323.13 805.021,1342.73 816.47,1339.21 827.92,1299.23 839.37,1274.49 850.82,1240.16 862.27,1060.17 873.72,993.221 885.17,990.303 896.62,908.338 908.07,800.386 919.52,663.989 930.97,641.534 942.42,523.058 953.87,532.17 965.32,354.163 976.77,246.473 988.22,225.047 999.67,206.999 1011.12,271.084 1022.57,261.09 1034.02,343.211 1045.47,353.462 1056.92,347.111 1068.37,525.993 1079.82,596.409 1091.27,577.751 1102.72,475.219 1114.17,402.274 1125.62,403.633 "/>
<path clip-path="url(#clip740)" d="M663.249 1438.47 L1120.8 1438.47 L1120.8 1231.11 L663.249 1231.11  Z" fill="#ffffff" fill-rule="evenodd" fill-opacity="1"/>
<polyline clip-path="url(#clip740)" style="stroke:#000000; stroke-linecap:round; stroke-linejoin:round; stroke-width:4; stroke-opacity:1; fill:none" points="663.249,1438.47 1120.8,1438.47 1120.8,1231.11 663.249,1231.11 663.249,1438.47 "/>
<polyline clip-path="url(#clip740)" style="stroke:#009af9; stroke-linecap:round; stroke-linejoin:round; stroke-width:4; stroke-opacity:1; fill:none" points="673.902,1282.95 737.823,1282.95 "/>
<path clip-path="url(#clip740)" d="M748.477 1265.67 L753.153 1265.67 L753.153 1280.28 L768.662 1265.67 L774.681 1265.67 L757.528 1281.79 L775.907 1300.23 L769.75 1300.23 L753.153 1283.59 L753.153 1300.23 L748.477 1300.23 L748.477 1265.67 Z" fill="#000000" fill-rule="nonzero" fill-opacity="1" /><path clip-path="url(#clip740)" d="M790.329 1287.2 Q785.167 1287.2 783.176 1288.38 Q781.185 1289.56 781.185 1292.41 Q781.185 1294.68 782.667 1296.02 Q784.171 1297.34 786.741 1297.34 Q790.282 1297.34 792.412 1294.84 Q794.565 1292.32 794.565 1288.15 L794.565 1287.2 L790.329 1287.2 M798.824 1285.44 L798.824 1300.23 L794.565 1300.23 L794.565 1296.3 Q793.106 1298.66 790.93 1299.79 Q788.755 1300.91 785.606 1300.91 Q781.625 1300.91 779.264 1298.68 Q776.926 1296.44 776.926 1292.69 Q776.926 1288.31 779.843 1286.09 Q782.782 1283.87 788.592 1283.87 L794.565 1283.87 L794.565 1283.45 Q794.565 1280.51 792.62 1278.92 Q790.699 1277.29 787.204 1277.29 Q784.981 1277.29 782.875 1277.83 Q780.768 1278.36 778.824 1279.42 L778.824 1275.49 Q781.162 1274.59 783.361 1274.15 Q785.56 1273.68 787.643 1273.68 Q793.268 1273.68 796.046 1276.6 Q798.824 1279.52 798.824 1285.44 Z" fill="#000000" fill-rule="nonzero" fill-opacity="1" /><path clip-path="url(#clip740)" d="M807.597 1264.22 L811.856 1264.22 L811.856 1300.23 L807.597 1300.23 L807.597 1264.22 Z" fill="#000000" fill-rule="nonzero" fill-opacity="1" /><path clip-path="url(#clip740)" d="M840.953 1279.29 Q842.551 1276.42 844.773 1275.05 Q846.995 1273.68 850.004 1273.68 Q854.055 1273.68 856.254 1276.53 Q858.453 1279.35 858.453 1284.59 L858.453 1300.23 L854.171 1300.23 L854.171 1284.73 Q854.171 1281 852.851 1279.19 Q851.532 1277.39 848.824 1277.39 Q845.513 1277.39 843.592 1279.59 Q841.671 1281.79 841.671 1285.58 L841.671 1300.23 L837.389 1300.23 L837.389 1284.73 Q837.389 1280.98 836.069 1279.19 Q834.75 1277.39 831.995 1277.39 Q828.731 1277.39 826.81 1279.61 Q824.889 1281.81 824.889 1285.58 L824.889 1300.23 L820.606 1300.23 L820.606 1274.31 L824.889 1274.31 L824.889 1278.34 Q826.347 1275.95 828.384 1274.82 Q830.421 1273.68 833.222 1273.68 Q836.046 1273.68 838.014 1275.12 Q840.004 1276.55 840.953 1279.29 Z" fill="#000000" fill-rule="nonzero" fill-opacity="1" /><path clip-path="url(#clip740)" d="M878.731 1287.2 Q873.569 1287.2 871.578 1288.38 Q869.587 1289.56 869.587 1292.41 Q869.587 1294.68 871.069 1296.02 Q872.574 1297.34 875.143 1297.34 Q878.685 1297.34 880.814 1294.84 Q882.967 1292.32 882.967 1288.15 L882.967 1287.2 L878.731 1287.2 M887.226 1285.44 L887.226 1300.23 L882.967 1300.23 L882.967 1296.3 Q881.509 1298.66 879.333 1299.79 Q877.157 1300.91 874.009 1300.91 Q870.027 1300.91 867.666 1298.68 Q865.328 1296.44 865.328 1292.69 Q865.328 1288.31 868.245 1286.09 Q871.185 1283.87 876.995 1283.87 L882.967 1283.87 L882.967 1283.45 Q882.967 1280.51 881.023 1278.92 Q879.101 1277.29 875.606 1277.29 Q873.384 1277.29 871.277 1277.83 Q869.171 1278.36 867.226 1279.42 L867.226 1275.49 Q869.564 1274.59 871.763 1274.15 Q873.962 1273.68 876.046 1273.68 Q881.671 1273.68 884.448 1276.6 Q887.226 1279.52 887.226 1285.44 Z" fill="#000000" fill-rule="nonzero" fill-opacity="1" /><path clip-path="url(#clip740)" d="M917.55 1284.59 L917.55 1300.23 L913.291 1300.23 L913.291 1284.73 Q913.291 1281.04 911.856 1279.22 Q910.421 1277.39 907.55 1277.39 Q904.101 1277.39 902.11 1279.59 Q900.12 1281.79 900.12 1285.58 L900.12 1300.23 L895.837 1300.23 L895.837 1274.31 L900.12 1274.31 L900.12 1278.34 Q901.647 1276 903.708 1274.84 Q905.791 1273.68 908.499 1273.68 Q912.967 1273.68 915.258 1276.46 Q917.55 1279.22 917.55 1284.59 Z" fill="#000000" fill-rule="nonzero" fill-opacity="1" /><path clip-path="url(#clip740)" d="M957.643 1275.07 L957.643 1279.1 Q955.837 1278.17 953.893 1277.71 Q951.948 1277.25 949.865 1277.25 Q946.693 1277.25 945.096 1278.22 Q943.522 1279.19 943.522 1281.14 Q943.522 1282.62 944.656 1283.48 Q945.791 1284.31 949.217 1285.07 L950.675 1285.4 Q955.212 1286.37 957.11 1288.15 Q959.031 1289.91 959.031 1293.08 Q959.031 1296.69 956.161 1298.8 Q953.314 1300.91 948.314 1300.91 Q946.231 1300.91 943.962 1300.49 Q941.717 1300.1 939.217 1299.29 L939.217 1294.89 Q941.578 1296.11 943.869 1296.74 Q946.161 1297.34 948.406 1297.34 Q951.416 1297.34 953.036 1296.32 Q954.656 1295.28 954.656 1293.41 Q954.656 1291.67 953.476 1290.74 Q952.318 1289.82 948.36 1288.96 L946.879 1288.61 Q942.92 1287.78 941.161 1286.07 Q939.402 1284.33 939.402 1281.32 Q939.402 1277.67 941.994 1275.67 Q944.587 1273.68 949.356 1273.68 Q951.717 1273.68 953.8 1274.03 Q955.883 1274.38 957.643 1275.07 Z" fill="#000000" fill-rule="nonzero" fill-opacity="1" /><path clip-path="url(#clip740)" d="M985.999 1279.29 Q987.596 1276.42 989.818 1275.05 Q992.04 1273.68 995.05 1273.68 Q999.101 1273.68 1001.3 1276.53 Q1003.5 1279.35 1003.5 1284.59 L1003.5 1300.23 L999.216 1300.23 L999.216 1284.73 Q999.216 1281 997.897 1279.19 Q996.577 1277.39 993.869 1277.39 Q990.559 1277.39 988.638 1279.59 Q986.716 1281.79 986.716 1285.58 L986.716 1300.23 L982.434 1300.23 L982.434 1284.73 Q982.434 1280.98 981.115 1279.19 Q979.795 1277.39 977.041 1277.39 Q973.777 1277.39 971.855 1279.61 Q969.934 1281.81 969.934 1285.58 L969.934 1300.23 L965.652 1300.23 L965.652 1274.31 L969.934 1274.31 L969.934 1278.34 Q971.392 1275.95 973.429 1274.82 Q975.466 1273.68 978.267 1273.68 Q981.091 1273.68 983.059 1275.12 Q985.05 1276.55 985.999 1279.29 Z" fill="#000000" fill-rule="nonzero" fill-opacity="1" /><path clip-path="url(#clip740)" d="M1022.04 1277.29 Q1018.61 1277.29 1016.62 1279.98 Q1014.63 1282.64 1014.63 1287.29 Q1014.63 1291.95 1016.6 1294.63 Q1018.59 1297.29 1022.04 1297.29 Q1025.44 1297.29 1027.43 1294.61 Q1029.42 1291.92 1029.42 1287.29 Q1029.42 1282.69 1027.43 1280 Q1025.44 1277.29 1022.04 1277.29 M1022.04 1273.68 Q1027.6 1273.68 1030.77 1277.29 Q1033.94 1280.91 1033.94 1287.29 Q1033.94 1293.66 1030.77 1297.29 Q1027.6 1300.91 1022.04 1300.91 Q1016.46 1300.91 1013.29 1297.29 Q1010.14 1293.66 1010.14 1287.29 Q1010.14 1280.91 1013.29 1277.29 Q1016.46 1273.68 1022.04 1273.68 Z" fill="#000000" fill-rule="nonzero" fill-opacity="1" /><path clip-path="url(#clip740)" d="M1051.04 1277.29 Q1047.62 1277.29 1045.63 1279.98 Q1043.64 1282.64 1043.64 1287.29 Q1043.64 1291.95 1045.6 1294.63 Q1047.6 1297.29 1051.04 1297.29 Q1054.45 1297.29 1056.44 1294.61 Q1058.43 1291.92 1058.43 1287.29 Q1058.43 1282.69 1056.44 1280 Q1054.45 1277.29 1051.04 1277.29 M1051.04 1273.68 Q1056.6 1273.68 1059.77 1277.29 Q1062.94 1280.91 1062.94 1287.29 Q1062.94 1293.66 1059.77 1297.29 Q1056.6 1300.91 1051.04 1300.91 Q1045.47 1300.91 1042.29 1297.29 Q1039.15 1293.66 1039.15 1287.29 Q1039.15 1280.91 1042.29 1277.29 Q1045.47 1273.68 1051.04 1273.68 Z" fill="#000000" fill-rule="nonzero" fill-opacity="1" /><path clip-path="url(#clip740)" d="M1074.22 1266.95 L1074.22 1274.31 L1082.99 1274.31 L1082.99 1277.62 L1074.22 1277.62 L1074.22 1291.69 Q1074.22 1294.86 1075.07 1295.77 Q1075.95 1296.67 1078.61 1296.67 L1082.99 1296.67 L1082.99 1300.23 L1078.61 1300.23 Q1073.68 1300.23 1071.81 1298.41 Q1069.93 1296.55 1069.93 1291.69 L1069.93 1277.62 L1066.81 1277.62 L1066.81 1274.31 L1069.93 1274.31 L1069.93 1266.95 L1074.22 1266.95 Z" fill="#000000" fill-rule="nonzero" fill-opacity="1" /><path clip-path="url(#clip740)" d="M1110.14 1284.59 L1110.14 1300.23 L1105.88 1300.23 L1105.88 1284.73 Q1105.88 1281.04 1104.45 1279.22 Q1103.01 1277.39 1100.14 1277.39 Q1096.69 1277.39 1094.7 1279.59 Q1092.71 1281.79 1092.71 1285.58 L1092.71 1300.23 L1088.43 1300.23 L1088.43 1264.22 L1092.71 1264.22 L1092.71 1278.34 Q1094.24 1276 1096.3 1274.84 Q1098.38 1273.68 1101.09 1273.68 Q1105.56 1273.68 1107.85 1276.46 Q1110.14 1279.22 1110.14 1284.59 Z" fill="#000000" fill-rule="nonzero" fill-opacity="1" /><polyline clip-path="url(#clip740)" style="stroke:#e26f46; stroke-linecap:round; stroke-linejoin:round; stroke-width:4; stroke-opacity:1; fill:none" points="673.902,1334.79 737.823,1334.79 "/>
<path clip-path="url(#clip740)" d="M752.759 1348.19 L752.759 1361.94 L748.477 1361.94 L748.477 1326.15 L752.759 1326.15 L752.759 1330.08 Q754.102 1327.77 756.139 1326.66 Q758.199 1325.52 761.046 1325.52 Q765.769 1325.52 768.708 1329.27 Q771.671 1333.02 771.671 1339.13 Q771.671 1345.25 768.708 1349 Q765.769 1352.75 761.046 1352.75 Q758.199 1352.75 756.139 1351.63 Q754.102 1350.5 752.759 1348.19 M767.25 1339.13 Q767.25 1334.44 765.306 1331.77 Q763.384 1329.09 760.005 1329.09 Q756.625 1329.09 754.681 1331.77 Q752.759 1334.44 752.759 1339.13 Q752.759 1343.83 754.681 1346.52 Q756.625 1349.18 760.005 1349.18 Q763.384 1349.18 765.306 1346.52 Q767.25 1343.83 767.25 1339.13 Z" fill="#000000" fill-rule="nonzero" fill-opacity="1" /><path clip-path="url(#clip740)" d="M791.856 1316.06 L791.856 1319.6 L787.782 1319.6 Q785.491 1319.6 784.588 1320.52 Q783.708 1321.45 783.708 1323.86 L783.708 1326.15 L790.722 1326.15 L790.722 1329.46 L783.708 1329.46 L783.708 1352.07 L779.426 1352.07 L779.426 1329.46 L775.352 1329.46 L775.352 1326.15 L779.426 1326.15 L779.426 1324.34 Q779.426 1320.01 781.44 1318.05 Q783.454 1316.06 787.829 1316.06 L791.856 1316.06 Z" fill="#000000" fill-rule="nonzero" fill-opacity="1" /><path clip-path="url(#clip740)" d="M827.018 1326.91 L827.018 1330.94 Q825.213 1330.01 823.268 1329.55 Q821.324 1329.09 819.24 1329.09 Q816.069 1329.09 814.472 1330.06 Q812.898 1331.03 812.898 1332.98 Q812.898 1334.46 814.032 1335.32 Q815.166 1336.15 818.592 1336.91 L820.051 1337.24 Q824.588 1338.21 826.486 1339.99 Q828.407 1341.75 828.407 1344.92 Q828.407 1348.53 825.537 1350.64 Q822.69 1352.75 817.69 1352.75 Q815.606 1352.75 813.338 1352.33 Q811.092 1351.94 808.592 1351.13 L808.592 1346.73 Q810.953 1347.95 813.245 1348.58 Q815.537 1349.18 817.782 1349.18 Q820.791 1349.18 822.412 1348.16 Q824.032 1347.12 824.032 1345.25 Q824.032 1343.51 822.852 1342.58 Q821.694 1341.66 817.736 1340.8 L816.254 1340.45 Q812.296 1339.62 810.537 1337.91 Q808.778 1336.17 808.778 1333.16 Q808.778 1329.51 811.37 1327.51 Q813.963 1325.52 818.731 1325.52 Q821.092 1325.52 823.176 1325.87 Q825.259 1326.22 827.018 1326.91 Z" fill="#000000" fill-rule="nonzero" fill-opacity="1" /><path clip-path="url(#clip740)" d="M855.375 1331.13 Q856.972 1328.26 859.194 1326.89 Q861.416 1325.52 864.425 1325.52 Q868.476 1325.52 870.675 1328.37 Q872.874 1331.19 872.874 1336.43 L872.874 1352.07 L868.592 1352.07 L868.592 1336.57 Q868.592 1332.84 867.273 1331.03 Q865.953 1329.23 863.245 1329.23 Q859.935 1329.23 858.013 1331.43 Q856.092 1333.63 856.092 1337.42 L856.092 1352.07 L851.81 1352.07 L851.81 1336.57 Q851.81 1332.82 850.49 1331.03 Q849.171 1329.23 846.416 1329.23 Q843.152 1329.23 841.231 1331.45 Q839.31 1333.65 839.31 1337.42 L839.31 1352.07 L835.027 1352.07 L835.027 1326.15 L839.31 1326.15 L839.31 1330.18 Q840.768 1327.79 842.805 1326.66 Q844.842 1325.52 847.643 1325.52 Q850.467 1325.52 852.435 1326.96 Q854.425 1328.39 855.375 1331.13 Z" fill="#000000" fill-rule="nonzero" fill-opacity="1" /><path clip-path="url(#clip740)" d="M891.416 1329.13 Q887.99 1329.13 885.999 1331.82 Q884.009 1334.48 884.009 1339.13 Q884.009 1343.79 885.976 1346.47 Q887.967 1349.13 891.416 1349.13 Q894.819 1349.13 896.809 1346.45 Q898.8 1343.76 898.8 1339.13 Q898.8 1334.53 896.809 1331.84 Q894.819 1329.13 891.416 1329.13 M891.416 1325.52 Q896.972 1325.52 900.143 1329.13 Q903.314 1332.75 903.314 1339.13 Q903.314 1345.5 900.143 1349.13 Q896.972 1352.75 891.416 1352.75 Q885.837 1352.75 882.666 1349.13 Q879.518 1345.5 879.518 1339.13 Q879.518 1332.75 882.666 1329.13 Q885.837 1325.52 891.416 1325.52 Z" fill="#000000" fill-rule="nonzero" fill-opacity="1" /><path clip-path="url(#clip740)" d="M920.42 1329.13 Q916.995 1329.13 915.004 1331.82 Q913.013 1334.48 913.013 1339.13 Q913.013 1343.79 914.981 1346.47 Q916.971 1349.13 920.42 1349.13 Q923.823 1349.13 925.814 1346.45 Q927.805 1343.76 927.805 1339.13 Q927.805 1334.53 925.814 1331.84 Q923.823 1329.13 920.42 1329.13 M920.42 1325.52 Q925.976 1325.52 929.147 1329.13 Q932.319 1332.75 932.319 1339.13 Q932.319 1345.5 929.147 1349.13 Q925.976 1352.75 920.42 1352.75 Q914.842 1352.75 911.671 1349.13 Q908.522 1345.5 908.522 1339.13 Q908.522 1332.75 911.671 1329.13 Q914.842 1325.52 920.42 1325.52 Z" fill="#000000" fill-rule="nonzero" fill-opacity="1" /><path clip-path="url(#clip740)" d="M943.592 1318.79 L943.592 1326.15 L952.365 1326.15 L952.365 1329.46 L943.592 1329.46 L943.592 1343.53 Q943.592 1346.7 944.448 1347.61 Q945.328 1348.51 947.99 1348.51 L952.365 1348.51 L952.365 1352.07 L947.99 1352.07 Q943.059 1352.07 941.184 1350.25 Q939.309 1348.39 939.309 1343.53 L939.309 1329.46 L936.184 1329.46 L936.184 1326.15 L939.309 1326.15 L939.309 1318.79 L943.592 1318.79 Z" fill="#000000" fill-rule="nonzero" fill-opacity="1" /><path clip-path="url(#clip740)" d="M979.517 1336.43 L979.517 1352.07 L975.258 1352.07 L975.258 1336.57 Q975.258 1332.88 973.823 1331.06 Q972.388 1329.23 969.517 1329.23 Q966.068 1329.23 964.078 1331.43 Q962.087 1333.63 962.087 1337.42 L962.087 1352.07 L957.805 1352.07 L957.805 1316.06 L962.087 1316.06 L962.087 1330.18 Q963.615 1327.84 965.675 1326.68 Q967.758 1325.52 970.467 1325.52 Q974.934 1325.52 977.226 1328.3 Q979.517 1331.06 979.517 1336.43 Z" fill="#000000" fill-rule="nonzero" fill-opacity="1" /><polyline clip-path="url(#clip740)" style="stroke:#3da44d; stroke-linecap:round; stroke-linejoin:round; stroke-width:4; stroke-opacity:1; fill:none" points="673.902,1386.63 737.823,1386.63 "/>
<path clip-path="url(#clip740)" d="M755.884 1370.63 L755.884 1377.99 L764.657 1377.99 L764.657 1381.3 L755.884 1381.3 L755.884 1395.37 Q755.884 1398.54 756.741 1399.45 Q757.62 1400.35 760.282 1400.35 L764.657 1400.35 L764.657 1403.91 L760.282 1403.91 Q755.352 1403.91 753.477 1402.09 Q751.602 1400.23 751.602 1395.37 L751.602 1381.3 L748.477 1381.3 L748.477 1377.99 L751.602 1377.99 L751.602 1370.63 L755.884 1370.63 Z" fill="#000000" fill-rule="nonzero" fill-opacity="1" /><path clip-path="url(#clip740)" d="M785.282 1381.97 Q784.565 1381.55 783.708 1381.37 Q782.875 1381.16 781.856 1381.16 Q778.245 1381.16 776.301 1383.52 Q774.38 1385.86 774.38 1390.26 L774.38 1403.91 L770.097 1403.91 L770.097 1377.99 L774.38 1377.99 L774.38 1382.02 Q775.722 1379.66 777.875 1378.52 Q780.028 1377.36 783.106 1377.36 Q783.546 1377.36 784.079 1377.43 Q784.611 1377.48 785.259 1377.6 L785.282 1381.97 Z" fill="#000000" fill-rule="nonzero" fill-opacity="1" /><path clip-path="url(#clip740)" d="M789.31 1393.68 L789.31 1377.99 L793.569 1377.99 L793.569 1393.52 Q793.569 1397.2 795.004 1399.05 Q796.44 1400.88 799.31 1400.88 Q802.759 1400.88 804.75 1398.68 Q806.764 1396.48 806.764 1392.69 L806.764 1377.99 L811.023 1377.99 L811.023 1403.91 L806.764 1403.91 L806.764 1399.93 Q805.213 1402.29 803.153 1403.45 Q801.116 1404.59 798.407 1404.59 Q793.94 1404.59 791.625 1401.81 Q789.31 1399.03 789.31 1393.68 M800.028 1377.36 L800.028 1377.36 Z" fill="#000000" fill-rule="nonzero" fill-opacity="1" /><path clip-path="url(#clip740)" d="M841.972 1389.89 L841.972 1391.97 L822.389 1391.97 Q822.666 1396.37 825.027 1398.68 Q827.412 1400.97 831.648 1400.97 Q834.101 1400.97 836.393 1400.37 Q838.708 1399.77 840.976 1398.57 L840.976 1402.59 Q838.685 1403.57 836.277 1404.08 Q833.87 1404.59 831.393 1404.59 Q825.19 1404.59 821.555 1400.97 Q817.944 1397.36 817.944 1391.21 Q817.944 1384.84 821.37 1381.11 Q824.819 1377.36 830.652 1377.36 Q835.884 1377.36 838.916 1380.74 Q841.972 1384.1 841.972 1389.89 M837.713 1388.64 Q837.666 1385.14 835.745 1383.06 Q833.847 1380.97 830.699 1380.97 Q827.134 1380.97 824.981 1382.99 Q822.852 1385 822.527 1388.66 L837.713 1388.64 Z" fill="#000000" fill-rule="nonzero" fill-opacity="1" /><path clip-path="url(#clip740)" d="M1393.94 1486.45 L2352.76 1486.45 L2352.76 47.2441 L1393.94 47.2441  Z" fill="#ffffff" fill-rule="evenodd" fill-opacity="1"/>
<defs>
  <clipPath id="clip743">
    <rect x="1393" y="47" width="960" height="1440"/>
  </clipPath>
</defs>
<polyline clip-path="url(#clip743)" style="stroke:#000000; stroke-linecap:round; stroke-linejoin:round; stroke-width:2; stroke-opacity:0.1; fill:none" points="1409.62,1486.45 1409.62,47.2441 "/>
<polyline clip-path="url(#clip743)" style="stroke:#000000; stroke-linecap:round; stroke-linejoin:round; stroke-width:2; stroke-opacity:0.1; fill:none" points="1638.62,1486.45 1638.62,47.2441 "/>
<polyline clip-path="url(#clip743)" style="stroke:#000000; stroke-linecap:round; stroke-linejoin:round; stroke-width:2; stroke-opacity:0.1; fill:none" points="1867.62,1486.45 1867.62,47.2441 "/>
<polyline clip-path="url(#clip743)" style="stroke:#000000; stroke-linecap:round; stroke-linejoin:round; stroke-width:2; stroke-opacity:0.1; fill:none" points="2096.62,1486.45 2096.62,47.2441 "/>
<polyline clip-path="url(#clip743)" style="stroke:#000000; stroke-linecap:round; stroke-linejoin:round; stroke-width:2; stroke-opacity:0.1; fill:none" points="2325.62,1486.45 2325.62,47.2441 "/>
<polyline clip-path="url(#clip743)" style="stroke:#000000; stroke-linecap:round; stroke-linejoin:round; stroke-width:2; stroke-opacity:0.1; fill:none" points="1393.94,1472.75 2352.76,1472.75 "/>
<polyline clip-path="url(#clip743)" style="stroke:#000000; stroke-linecap:round; stroke-linejoin:round; stroke-width:2; stroke-opacity:0.1; fill:none" points="1393.94,1267.19 2352.76,1267.19 "/>
<polyline clip-path="url(#clip743)" style="stroke:#000000; stroke-linecap:round; stroke-linejoin:round; stroke-width:2; stroke-opacity:0.1; fill:none" points="1393.94,1061.63 2352.76,1061.63 "/>
<polyline clip-path="url(#clip743)" style="stroke:#000000; stroke-linecap:round; stroke-linejoin:round; stroke-width:2; stroke-opacity:0.1; fill:none" points="1393.94,856.075 2352.76,856.075 "/>
<polyline clip-path="url(#clip743)" style="stroke:#000000; stroke-linecap:round; stroke-linejoin:round; stroke-width:2; stroke-opacity:0.1; fill:none" points="1393.94,650.515 2352.76,650.515 "/>
<polyline clip-path="url(#clip743)" style="stroke:#000000; stroke-linecap:round; stroke-linejoin:round; stroke-width:2; stroke-opacity:0.1; fill:none" points="1393.94,444.955 2352.76,444.955 "/>
<polyline clip-path="url(#clip743)" style="stroke:#000000; stroke-linecap:round; stroke-linejoin:round; stroke-width:2; stroke-opacity:0.1; fill:none" points="1393.94,239.396 2352.76,239.396 "/>
<polyline clip-path="url(#clip740)" style="stroke:#000000; stroke-linecap:round; stroke-linejoin:round; stroke-width:4; stroke-opacity:1; fill:none" points="1393.94,1486.45 2352.76,1486.45 "/>
<polyline clip-path="url(#clip740)" style="stroke:#000000; stroke-linecap:round; stroke-linejoin:round; stroke-width:4; stroke-opacity:1; fill:none" points="1409.62,1486.45 1409.62,1467.55 "/>
<polyline clip-path="url(#clip740)" style="stroke:#000000; stroke-linecap:round; stroke-linejoin:round; stroke-width:4; stroke-opacity:1; fill:none" points="1638.62,1486.45 1638.62,1467.55 "/>
<polyline clip-path="url(#clip740)" style="stroke:#000000; stroke-linecap:round; stroke-linejoin:round; stroke-width:4; stroke-opacity:1; fill:none" points="1867.62,1486.45 1867.62,1467.55 "/>
<polyline clip-path="url(#clip740)" style="stroke:#000000; stroke-linecap:round; stroke-linejoin:round; stroke-width:4; stroke-opacity:1; fill:none" points="2096.62,1486.45 2096.62,1467.55 "/>
<polyline clip-path="url(#clip740)" style="stroke:#000000; stroke-linecap:round; stroke-linejoin:round; stroke-width:4; stroke-opacity:1; fill:none" points="2325.62,1486.45 2325.62,1467.55 "/>
<path clip-path="url(#clip740)" d="M1409.62 1517.37 Q1406.01 1517.37 1404.18 1520.93 Q1402.38 1524.47 1402.38 1531.6 Q1402.38 1538.71 1404.18 1542.27 Q1406.01 1545.82 1409.62 1545.82 Q1413.26 1545.82 1415.06 1542.27 Q1416.89 1538.71 1416.89 1531.6 Q1416.89 1524.47 1415.06 1520.93 Q1413.26 1517.37 1409.62 1517.37 M1409.62 1513.66 Q1415.43 1513.66 1418.49 1518.27 Q1421.57 1522.85 1421.57 1531.6 Q1421.57 1540.33 1418.49 1544.94 Q1415.43 1549.52 1409.62 1549.52 Q1403.81 1549.52 1400.73 1544.94 Q1397.68 1540.33 1397.68 1531.6 Q1397.68 1522.85 1400.73 1518.27 Q1403.81 1513.66 1409.62 1513.66 Z" fill="#000000" fill-rule="nonzero" fill-opacity="1" /><path clip-path="url(#clip740)" d="M1617.39 1544.91 L1633.71 1544.91 L1633.71 1548.85 L1611.77 1548.85 L1611.77 1544.91 Q1614.43 1542.16 1619.02 1537.53 Q1623.62 1532.88 1624.8 1531.53 Q1627.05 1529.01 1627.93 1527.27 Q1628.83 1525.51 1628.83 1523.82 Q1628.83 1521.07 1626.89 1519.33 Q1624.96 1517.6 1621.86 1517.6 Q1619.66 1517.6 1617.21 1518.36 Q1614.78 1519.13 1612 1520.68 L1612 1515.95 Q1614.83 1514.82 1617.28 1514.24 Q1619.73 1513.66 1621.77 1513.66 Q1627.14 1513.66 1630.33 1516.35 Q1633.53 1519.03 1633.53 1523.52 Q1633.53 1525.65 1632.72 1527.57 Q1631.93 1529.47 1629.83 1532.07 Q1629.25 1532.74 1626.14 1535.95 Q1623.04 1539.15 1617.39 1544.91 Z" fill="#000000" fill-rule="nonzero" fill-opacity="1" /><path clip-path="url(#clip740)" d="M1653.53 1517.37 Q1649.92 1517.37 1648.09 1520.93 Q1646.28 1524.47 1646.28 1531.6 Q1646.28 1538.71 1648.09 1542.27 Q1649.92 1545.82 1653.53 1545.82 Q1657.16 1545.82 1658.97 1542.27 Q1660.8 1538.71 1660.8 1531.6 Q1660.8 1524.47 1658.97 1520.93 Q1657.16 1517.37 1653.53 1517.37 M1653.53 1513.66 Q1659.34 1513.66 1662.39 1518.27 Q1665.47 1522.85 1665.47 1531.6 Q1665.47 1540.33 1662.39 1544.94 Q1659.34 1549.52 1653.53 1549.52 Q1647.72 1549.52 1644.64 1544.94 Q1641.58 1540.33 1641.58 1531.6 Q1641.58 1522.85 1644.64 1518.27 Q1647.72 1513.66 1653.53 1513.66 Z" fill="#000000" fill-rule="nonzero" fill-opacity="1" /><path clip-path="url(#clip740)" d="M1855.79 1518.36 L1843.99 1536.81 L1855.79 1536.81 L1855.79 1518.36 M1854.57 1514.29 L1860.45 1514.29 L1860.45 1536.81 L1865.38 1536.81 L1865.38 1540.7 L1860.45 1540.7 L1860.45 1548.85 L1855.79 1548.85 L1855.79 1540.7 L1840.19 1540.7 L1840.19 1536.19 L1854.57 1514.29 Z" fill="#000000" fill-rule="nonzero" fill-opacity="1" /><path clip-path="url(#clip740)" d="M1883.11 1517.37 Q1879.5 1517.37 1877.67 1520.93 Q1875.86 1524.47 1875.86 1531.6 Q1875.86 1538.71 1877.67 1542.27 Q1879.5 1545.82 1883.11 1545.82 Q1886.74 1545.82 1888.55 1542.27 Q1890.38 1538.71 1890.38 1531.6 Q1890.38 1524.47 1888.55 1520.93 Q1886.74 1517.37 1883.11 1517.37 M1883.11 1513.66 Q1888.92 1513.66 1891.97 1518.27 Q1895.05 1522.85 1895.05 1531.6 Q1895.05 1540.33 1891.97 1544.94 Q1888.92 1549.52 1883.11 1549.52 Q1877.3 1549.52 1874.22 1544.94 Q1871.16 1540.33 1871.16 1531.6 Q1871.16 1522.85 1874.22 1518.27 Q1877.3 1513.66 1883.11 1513.66 Z" fill="#000000" fill-rule="nonzero" fill-opacity="1" /><path clip-path="url(#clip740)" d="M2082.03 1529.7 Q2078.88 1529.7 2077.03 1531.86 Q2075.2 1534.01 2075.2 1537.76 Q2075.2 1541.49 2077.03 1543.66 Q2078.88 1545.82 2082.03 1545.82 Q2085.17 1545.82 2087 1543.66 Q2088.85 1541.49 2088.85 1537.76 Q2088.85 1534.01 2087 1531.86 Q2085.17 1529.7 2082.03 1529.7 M2091.31 1515.05 L2091.31 1519.31 Q2089.55 1518.48 2087.74 1518.04 Q2085.96 1517.6 2084.2 1517.6 Q2079.57 1517.6 2077.12 1520.72 Q2074.69 1523.85 2074.34 1530.17 Q2075.71 1528.15 2077.77 1527.09 Q2079.83 1526 2082.3 1526 Q2087.51 1526 2090.52 1529.17 Q2093.55 1532.32 2093.55 1537.76 Q2093.55 1543.08 2090.4 1546.3 Q2087.26 1549.52 2082.03 1549.52 Q2076.03 1549.52 2072.86 1544.94 Q2069.69 1540.33 2069.69 1531.6 Q2069.69 1523.41 2073.58 1518.55 Q2077.47 1513.66 2084.02 1513.66 Q2085.78 1513.66 2087.56 1514.01 Q2089.36 1514.36 2091.31 1515.05 Z" fill="#000000" fill-rule="nonzero" fill-opacity="1" /><path clip-path="url(#clip740)" d="M2111.61 1517.37 Q2108 1517.37 2106.17 1520.93 Q2104.36 1524.47 2104.36 1531.6 Q2104.36 1538.71 2106.17 1542.27 Q2108 1545.82 2111.61 1545.82 Q2115.24 1545.82 2117.05 1542.27 Q2118.88 1538.71 2118.88 1531.6 Q2118.88 1524.47 2117.05 1520.93 Q2115.24 1517.37 2111.61 1517.37 M2111.61 1513.66 Q2117.42 1513.66 2120.47 1518.27 Q2123.55 1522.85 2123.55 1531.6 Q2123.55 1540.33 2120.47 1544.94 Q2117.42 1549.52 2111.61 1549.52 Q2105.8 1549.52 2102.72 1544.94 Q2099.66 1540.33 2099.66 1531.6 Q2099.66 1522.85 2102.72 1518.27 Q2105.8 1513.66 2111.61 1513.66 Z" fill="#000000" fill-rule="nonzero" fill-opacity="1" /><path clip-path="url(#clip740)" d="M2310.49 1532.44 Q2307.16 1532.44 2305.24 1534.22 Q2303.34 1536 2303.34 1539.13 Q2303.34 1542.25 2305.24 1544.03 Q2307.16 1545.82 2310.49 1545.82 Q2313.83 1545.82 2315.75 1544.03 Q2317.67 1542.23 2317.67 1539.13 Q2317.67 1536 2315.75 1534.22 Q2313.85 1532.44 2310.49 1532.44 M2305.82 1530.45 Q2302.81 1529.7 2301.12 1527.64 Q2299.45 1525.58 2299.45 1522.62 Q2299.45 1518.48 2302.39 1516.07 Q2305.35 1513.66 2310.49 1513.66 Q2315.65 1513.66 2318.59 1516.07 Q2321.53 1518.48 2321.53 1522.62 Q2321.53 1525.58 2319.84 1527.64 Q2318.18 1529.7 2315.19 1530.45 Q2318.57 1531.23 2320.45 1533.52 Q2322.34 1535.82 2322.34 1539.13 Q2322.34 1544.15 2319.27 1546.83 Q2316.21 1549.52 2310.49 1549.52 Q2304.77 1549.52 2301.7 1546.83 Q2298.64 1544.15 2298.64 1539.13 Q2298.64 1535.82 2300.54 1533.52 Q2302.44 1531.23 2305.82 1530.45 M2304.1 1523.06 Q2304.1 1525.75 2305.77 1527.25 Q2307.46 1528.76 2310.49 1528.76 Q2313.5 1528.76 2315.19 1527.25 Q2316.9 1525.75 2316.9 1523.06 Q2316.9 1520.38 2315.19 1518.87 Q2313.5 1517.37 2310.49 1517.37 Q2307.46 1517.37 2305.77 1518.87 Q2304.1 1520.38 2304.1 1523.06 Z" fill="#000000" fill-rule="nonzero" fill-opacity="1" /><path clip-path="url(#clip740)" d="M2340.65 1517.37 Q2337.04 1517.37 2335.21 1520.93 Q2333.41 1524.47 2333.41 1531.6 Q2333.41 1538.71 2335.21 1542.27 Q2337.04 1545.82 2340.65 1545.82 Q2344.29 1545.82 2346.09 1542.27 Q2347.92 1538.71 2347.92 1531.6 Q2347.92 1524.47 2346.09 1520.93 Q2344.29 1517.37 2340.65 1517.37 M2340.65 1513.66 Q2346.46 1513.66 2349.52 1518.27 Q2352.6 1522.85 2352.6 1531.6 Q2352.6 1540.33 2349.52 1544.94 Q2346.46 1549.52 2340.65 1549.52 Q2334.84 1549.52 2331.77 1544.94 Q2328.71 1540.33 2328.71 1531.6 Q2328.71 1522.85 2331.77 1518.27 Q2334.84 1513.66 2340.65 1513.66 Z" fill="#000000" fill-rule="nonzero" fill-opacity="1" /><polyline clip-path="url(#clip740)" style="stroke:#000000; stroke-linecap:round; stroke-linejoin:round; stroke-width:4; stroke-opacity:1; fill:none" points="1393.94,1486.45 1393.94,47.2441 "/>
<polyline clip-path="url(#clip740)" style="stroke:#000000; stroke-linecap:round; stroke-linejoin:round; stroke-width:4; stroke-opacity:1; fill:none" points="1393.94,1472.75 1412.83,1472.75 "/>
<polyline clip-path="url(#clip740)" style="stroke:#000000; stroke-linecap:round; stroke-linejoin:round; stroke-width:4; stroke-opacity:1; fill:none" points="1393.94,1267.19 1412.83,1267.19 "/>
<polyline clip-path="url(#clip740)" style="stroke:#000000; stroke-linecap:round; stroke-linejoin:round; stroke-width:4; stroke-opacity:1; fill:none" points="1393.94,1061.63 1412.83,1061.63 "/>
<polyline clip-path="url(#clip740)" style="stroke:#000000; stroke-linecap:round; stroke-linejoin:round; stroke-width:4; stroke-opacity:1; fill:none" points="1393.94,856.075 1412.83,856.075 "/>
<polyline clip-path="url(#clip740)" style="stroke:#000000; stroke-linecap:round; stroke-linejoin:round; stroke-width:4; stroke-opacity:1; fill:none" points="1393.94,650.515 1412.83,650.515 "/>
<polyline clip-path="url(#clip740)" style="stroke:#000000; stroke-linecap:round; stroke-linejoin:round; stroke-width:4; stroke-opacity:1; fill:none" points="1393.94,444.955 1412.83,444.955 "/>
<polyline clip-path="url(#clip740)" style="stroke:#000000; stroke-linecap:round; stroke-linejoin:round; stroke-width:4; stroke-opacity:1; fill:none" points="1393.94,239.396 1412.83,239.396 "/>
<path clip-path="url(#clip740)" d="M1251.99 1473.2 L1281.66 1473.2 L1281.66 1477.14 L1251.99 1477.14 L1251.99 1473.2 Z" fill="#000000" fill-rule="nonzero" fill-opacity="1" /><path clip-path="url(#clip740)" d="M1292.57 1486.1 L1300.2 1486.1 L1300.2 1459.73 L1291.89 1461.4 L1291.89 1457.14 L1300.16 1455.47 L1304.83 1455.47 L1304.83 1486.1 L1312.47 1486.1 L1312.47 1490.03 L1292.57 1490.03 L1292.57 1486.1 Z" fill="#000000" fill-rule="nonzero" fill-opacity="1" /><path clip-path="url(#clip740)" d="M1321.92 1484.15 L1326.8 1484.15 L1326.8 1490.03 L1321.92 1490.03 L1321.92 1484.15 Z" fill="#000000" fill-rule="nonzero" fill-opacity="1" /><path clip-path="url(#clip740)" d="M1337.03 1455.47 L1355.39 1455.47 L1355.39 1459.41 L1341.32 1459.41 L1341.32 1467.88 Q1342.33 1467.53 1343.35 1467.37 Q1344.37 1467.19 1345.39 1467.19 Q1351.18 1467.19 1354.56 1470.36 Q1357.94 1473.53 1357.94 1478.95 Q1357.94 1484.52 1354.46 1487.63 Q1350.99 1490.7 1344.67 1490.7 Q1342.5 1490.7 1340.23 1490.33 Q1337.98 1489.96 1335.58 1489.22 L1335.58 1484.52 Q1337.66 1485.66 1339.88 1486.21 Q1342.1 1486.77 1344.58 1486.77 Q1348.58 1486.77 1350.92 1484.66 Q1353.26 1482.56 1353.26 1478.95 Q1353.26 1475.33 1350.92 1473.23 Q1348.58 1471.12 1344.58 1471.12 Q1342.7 1471.12 1340.83 1471.54 Q1338.98 1471.95 1337.03 1472.83 L1337.03 1455.47 Z" fill="#000000" fill-rule="nonzero" fill-opacity="1" /><path clip-path="url(#clip740)" d="M1250.99 1267.65 L1280.67 1267.65 L1280.67 1271.58 L1250.99 1271.58 L1250.99 1267.65 Z" fill="#000000" fill-rule="nonzero" fill-opacity="1" /><path clip-path="url(#clip740)" d="M1291.57 1280.54 L1299.21 1280.54 L1299.21 1254.17 L1290.9 1255.84 L1290.9 1251.58 L1299.16 1249.91 L1303.84 1249.91 L1303.84 1280.54 L1311.48 1280.54 L1311.48 1284.47 L1291.57 1284.47 L1291.57 1280.54 Z" fill="#000000" fill-rule="nonzero" fill-opacity="1" /><path clip-path="url(#clip740)" d="M1320.92 1278.59 L1325.81 1278.59 L1325.81 1284.47 L1320.92 1284.47 L1320.92 1278.59 Z" fill="#000000" fill-rule="nonzero" fill-opacity="1" /><path clip-path="url(#clip740)" d="M1345.99 1252.99 Q1342.38 1252.99 1340.55 1256.56 Q1338.75 1260.1 1338.75 1267.23 Q1338.75 1274.33 1340.55 1277.9 Q1342.38 1281.44 1345.99 1281.44 Q1349.63 1281.44 1351.43 1277.9 Q1353.26 1274.33 1353.26 1267.23 Q1353.26 1260.1 1351.43 1256.56 Q1349.63 1252.99 1345.99 1252.99 M1345.99 1249.29 Q1351.8 1249.29 1354.86 1253.9 Q1357.94 1258.48 1357.94 1267.23 Q1357.94 1275.96 1354.86 1280.56 Q1351.8 1285.15 1345.99 1285.15 Q1340.18 1285.15 1337.1 1280.56 Q1334.05 1275.96 1334.05 1267.23 Q1334.05 1258.48 1337.1 1253.9 Q1340.18 1249.29 1345.99 1249.29 Z" fill="#000000" fill-rule="nonzero" fill-opacity="1" /><path clip-path="url(#clip740)" d="M1251.99 1062.09 L1281.66 1062.09 L1281.66 1066.02 L1251.99 1066.02 L1251.99 1062.09 Z" fill="#000000" fill-rule="nonzero" fill-opacity="1" /><path clip-path="url(#clip740)" d="M1301.76 1047.43 Q1298.14 1047.43 1296.32 1051 Q1294.51 1054.54 1294.51 1061.67 Q1294.51 1068.78 1296.32 1072.34 Q1298.14 1075.88 1301.76 1075.88 Q1305.39 1075.88 1307.2 1072.34 Q1309.02 1068.78 1309.02 1061.67 Q1309.02 1054.54 1307.2 1051 Q1305.39 1047.43 1301.76 1047.43 M1301.76 1043.73 Q1307.57 1043.73 1310.62 1048.34 Q1313.7 1052.92 1313.7 1061.67 Q1313.7 1070.4 1310.62 1075 Q1307.57 1079.59 1301.76 1079.59 Q1295.95 1079.59 1292.87 1075 Q1289.81 1070.4 1289.81 1061.67 Q1289.81 1052.92 1292.87 1048.34 Q1295.95 1043.73 1301.76 1043.73 Z" fill="#000000" fill-rule="nonzero" fill-opacity="1" /><path clip-path="url(#clip740)" d="M1321.92 1073.03 L1326.8 1073.03 L1326.8 1078.91 L1321.92 1078.91 L1321.92 1073.03 Z" fill="#000000" fill-rule="nonzero" fill-opacity="1" /><path clip-path="url(#clip740)" d="M1337.03 1044.35 L1355.39 1044.35 L1355.39 1048.29 L1341.32 1048.29 L1341.32 1056.76 Q1342.33 1056.41 1343.35 1056.25 Q1344.37 1056.07 1345.39 1056.07 Q1351.18 1056.07 1354.56 1059.24 Q1357.94 1062.41 1357.94 1067.83 Q1357.94 1073.4 1354.46 1076.51 Q1350.99 1079.59 1344.67 1079.59 Q1342.5 1079.59 1340.23 1079.22 Q1337.98 1078.84 1335.58 1078.1 L1335.58 1073.4 Q1337.66 1074.54 1339.88 1075.09 Q1342.1 1075.65 1344.58 1075.65 Q1348.58 1075.65 1350.92 1073.54 Q1353.26 1071.44 1353.26 1067.83 Q1353.26 1064.22 1350.92 1062.11 Q1348.58 1060 1344.58 1060 Q1342.7 1060 1340.83 1060.42 Q1338.98 1060.84 1337.03 1061.72 L1337.03 1044.35 Z" fill="#000000" fill-rule="nonzero" fill-opacity="1" /><path clip-path="url(#clip740)" d="M1300.76 841.873 Q1297.15 841.873 1295.32 845.438 Q1293.52 848.98 1293.52 856.109 Q1293.52 863.216 1295.32 866.781 Q1297.15 870.322 1300.76 870.322 Q1304.39 870.322 1306.2 866.781 Q1308.03 863.216 1308.03 856.109 Q1308.03 848.98 1306.2 845.438 Q1304.39 841.873 1300.76 841.873 M1300.76 838.17 Q1306.57 838.17 1309.63 842.776 Q1312.7 847.359 1312.7 856.109 Q1312.7 864.836 1309.63 869.443 Q1306.57 874.026 1300.76 874.026 Q1294.95 874.026 1291.87 869.443 Q1288.82 864.836 1288.82 856.109 Q1288.82 847.359 1291.87 842.776 Q1294.95 838.17 1300.76 838.17 Z" fill="#000000" fill-rule="nonzero" fill-opacity="1" /><path clip-path="url(#clip740)" d="M1320.92 867.475 L1325.81 867.475 L1325.81 873.355 L1320.92 873.355 L1320.92 867.475 Z" fill="#000000" fill-rule="nonzero" fill-opacity="1" /><path clip-path="url(#clip740)" d="M1345.99 841.873 Q1342.38 841.873 1340.55 845.438 Q1338.75 848.98 1338.75 856.109 Q1338.75 863.216 1340.55 866.781 Q1342.38 870.322 1345.99 870.322 Q1349.63 870.322 1351.43 866.781 Q1353.26 863.216 1353.26 856.109 Q1353.26 848.98 1351.43 845.438 Q1349.63 841.873 1345.99 841.873 M1345.99 838.17 Q1351.8 838.17 1354.86 842.776 Q1357.94 847.359 1357.94 856.109 Q1357.94 864.836 1354.86 869.443 Q1351.8 874.026 1345.99 874.026 Q1340.18 874.026 1337.1 869.443 Q1334.05 864.836 1334.05 856.109 Q1334.05 847.359 1337.1 842.776 Q1340.18 838.17 1345.99 838.17 Z" fill="#000000" fill-rule="nonzero" fill-opacity="1" /><path clip-path="url(#clip740)" d="M1301.76 636.314 Q1298.14 636.314 1296.32 639.878 Q1294.51 643.42 1294.51 650.55 Q1294.51 657.656 1296.32 661.221 Q1298.14 664.763 1301.76 664.763 Q1305.39 664.763 1307.2 661.221 Q1309.02 657.656 1309.02 650.55 Q1309.02 643.42 1307.2 639.878 Q1305.39 636.314 1301.76 636.314 M1301.76 632.61 Q1307.57 632.61 1310.62 637.216 Q1313.7 641.8 1313.7 650.55 Q1313.7 659.277 1310.62 663.883 Q1307.57 668.466 1301.76 668.466 Q1295.95 668.466 1292.87 663.883 Q1289.81 659.277 1289.81 650.55 Q1289.81 641.8 1292.87 637.216 Q1295.95 632.61 1301.76 632.61 Z" fill="#000000" fill-rule="nonzero" fill-opacity="1" /><path clip-path="url(#clip740)" d="M1321.92 661.915 L1326.8 661.915 L1326.8 667.795 L1321.92 667.795 L1321.92 661.915 Z" fill="#000000" fill-rule="nonzero" fill-opacity="1" /><path clip-path="url(#clip740)" d="M1337.03 633.235 L1355.39 633.235 L1355.39 637.17 L1341.32 637.17 L1341.32 645.642 Q1342.33 645.295 1343.35 645.133 Q1344.37 644.948 1345.39 644.948 Q1351.18 644.948 1354.56 648.119 Q1357.94 651.29 1357.94 656.707 Q1357.94 662.286 1354.46 665.388 Q1350.99 668.466 1344.67 668.466 Q1342.5 668.466 1340.23 668.096 Q1337.98 667.726 1335.58 666.985 L1335.58 662.286 Q1337.66 663.42 1339.88 663.976 Q1342.1 664.531 1344.58 664.531 Q1348.58 664.531 1350.92 662.425 Q1353.26 660.318 1353.26 656.707 Q1353.26 653.096 1350.92 650.99 Q1348.58 648.883 1344.58 648.883 Q1342.7 648.883 1340.83 649.3 Q1338.98 649.716 1337.03 650.596 L1337.03 633.235 Z" fill="#000000" fill-rule="nonzero" fill-opacity="1" /><path clip-path="url(#clip740)" d="M1291.57 458.3 L1299.21 458.3 L1299.21 431.935 L1290.9 433.601 L1290.9 429.342 L1299.16 427.675 L1303.84 427.675 L1303.84 458.3 L1311.48 458.3 L1311.48 462.235 L1291.57 462.235 L1291.57 458.3 Z" fill="#000000" fill-rule="nonzero" fill-opacity="1" /><path clip-path="url(#clip740)" d="M1320.92 456.356 L1325.81 456.356 L1325.81 462.235 L1320.92 462.235 L1320.92 456.356 Z" fill="#000000" fill-rule="nonzero" fill-opacity="1" /><path clip-path="url(#clip740)" d="M1345.99 430.754 Q1342.38 430.754 1340.55 434.319 Q1338.75 437.86 1338.75 444.99 Q1338.75 452.097 1340.55 455.661 Q1342.38 459.203 1345.99 459.203 Q1349.63 459.203 1351.43 455.661 Q1353.26 452.097 1353.26 444.99 Q1353.26 437.86 1351.43 434.319 Q1349.63 430.754 1345.99 430.754 M1345.99 427.05 Q1351.8 427.05 1354.86 431.657 Q1357.94 436.24 1357.94 444.99 Q1357.94 453.717 1354.86 458.323 Q1351.8 462.907 1345.99 462.907 Q1340.18 462.907 1337.1 458.323 Q1334.05 453.717 1334.05 444.99 Q1334.05 436.24 1337.1 431.657 Q1340.18 427.05 1345.99 427.05 Z" fill="#000000" fill-rule="nonzero" fill-opacity="1" /><path clip-path="url(#clip740)" d="M1292.57 252.741 L1300.2 252.741 L1300.2 226.375 L1291.89 228.042 L1291.89 223.782 L1300.16 222.116 L1304.83 222.116 L1304.83 252.741 L1312.47 252.741 L1312.47 256.676 L1292.57 256.676 L1292.57 252.741 Z" fill="#000000" fill-rule="nonzero" fill-opacity="1" /><path clip-path="url(#clip740)" d="M1321.92 250.796 L1326.8 250.796 L1326.8 256.676 L1321.92 256.676 L1321.92 250.796 Z" fill="#000000" fill-rule="nonzero" fill-opacity="1" /><path clip-path="url(#clip740)" d="M1337.03 222.116 L1355.39 222.116 L1355.39 226.051 L1341.32 226.051 L1341.32 234.523 Q1342.33 234.176 1343.35 234.014 Q1344.37 233.829 1345.39 233.829 Q1351.18 233.829 1354.56 237 Q1357.94 240.171 1357.94 245.588 Q1357.94 251.167 1354.46 254.268 Q1350.99 257.347 1344.67 257.347 Q1342.5 257.347 1340.23 256.977 Q1337.98 256.606 1335.58 255.866 L1335.58 251.167 Q1337.66 252.301 1339.88 252.856 Q1342.1 253.412 1344.58 253.412 Q1348.58 253.412 1350.92 251.305 Q1353.26 249.199 1353.26 245.588 Q1353.26 241.977 1350.92 239.87 Q1348.58 237.764 1344.58 237.764 Q1342.7 237.764 1340.83 238.18 Q1338.98 238.597 1337.03 239.477 L1337.03 222.116 Z" fill="#000000" fill-rule="nonzero" fill-opacity="1" /><polyline clip-path="url(#clip743)" style="stroke:#009af9; stroke-linecap:round; stroke-linejoin:round; stroke-width:4; stroke-opacity:1; fill:none" points="1421.07,880.145 1432.52,885.361 1443.97,869.782 1455.42,900.293 1466.87,922.49 1478.32,932.384 1489.77,935.876 1501.22,928.429 1512.67,943.243 1524.12,938.659 1535.57,943.793 1547.02,918.087 1558.47,920.21 1569.92,918.608 1581.37,908.364 1592.82,892.994 1604.27,847.874 1615.72,811.768 1627.17,767.037 1638.62,705.094 1650.07,666.875 1661.52,600.511 1672.97,546.189 1684.42,475.974 1695.87,404.913 1707.32,366.977 1718.77,323.863 1730.22,287.739 1741.67,249.78 1753.12,189.988 1764.57,173.108 1776.02,171.637 1787.47,146.838 1798.92,99.3998 1810.37,90.59 1821.82,106.327 1833.27,142.44 1844.72,166.248 1856.17,209.408 1867.62,251.048 1879.07,298.899 1890.52,357.262 1901.97,430.744 1913.42,520.404 1924.87,587.28 1936.32,646.265 1947.77,726.219 1959.22,795.532 1970.67,859.836 1982.12,936.174 1993.57,992.381 2005.02,1033.18 2016.47,1107.37 2027.92,1164.97 2039.37,1223.56 2050.82,1270.31 2062.27,1305.24 2073.72,1331.06 2085.17,1368.08 2096.62,1362.4 2108.07,1379.67 2119.52,1386.66 2130.97,1345.12 2142.42,1309.45 2153.87,1275.4 2165.32,1269.91 2176.77,1229.72 2188.22,1166.59 2199.67,1123.32 2211.12,1075.5 2222.57,1001.81 2234.02,966.068 2245.47,925.634 2256.92,894.408 2268.37,874.59 2279.82,900.411 2291.27,917.098 2302.72,923.994 2314.17,906.064 2325.62,872.932 "/>
<polyline clip-path="url(#clip743)" style="stroke:#e26f46; stroke-linecap:round; stroke-linejoin:round; stroke-width:4; stroke-opacity:1; fill:none" points="1421.07,878.764 1432.52,887.213 1443.97,869.718 1455.42,893.536 1466.87,913.26 1478.32,919.546 1489.77,929.364 1501.22,933.678 1512.67,951.559 1524.12,945.594 1535.57,948.377 1547.02,922.491 1558.47,919.893 1569.92,912.17 1581.37,903.613 1592.82,885.146 1604.27,840.775 1615.72,816.09 1627.17,781.483 1638.62,701.318 1650.07,668.441 1661.52,595.878 1672.97,543.892 1684.42,489.197 1695.87,414.255 1707.32,375.9 1718.77,321.562 1730.22,281.336 1741.67,241.286 1753.12,187.312 1764.57,168.856 1776.02,161.951 1787.47,136.088 1798.92,93.1557 1810.37,87.9763 1821.82,107.544 1833.27,138.379 1844.72,160.932 1856.17,203.1 1867.62,242.267 1879.07,287.175 1890.52,347.889 1901.97,427.798 1913.42,513.18 1924.87,575.995 1936.32,637.935 1947.77,722.765 1959.22,797.521 1970.67,865.067 1982.12,935.783 1993.57,988.275 2005.02,1029.67 2016.47,1109.47 2027.92,1165.18 2039.37,1227.54 2050.82,1273.22 2062.27,1306.19 2073.72,1335.14 2085.17,1372.53 2096.62,1364.27 2108.07,1375.47 2119.52,1384.39 2130.97,1339.51 2142.42,1296.8 2153.87,1267.41 2165.32,1263.81 2176.77,1225.97 2188.22,1162.41 2199.67,1125.08 2211.12,1078.06 2222.57,1006.71 2234.02,971.579 2245.47,935.132 2256.92,908.001 2268.37,883.589 2279.82,904.768 2291.27,929.058 2302.72,929.519 2314.17,911.761 2325.62,876.943 "/>
<polyline clip-path="url(#clip743)" style="stroke:#3da44d; stroke-linecap:round; stroke-linejoin:round; stroke-width:4; stroke-opacity:1; fill:none" points="1421.07,927.301 1432.52,951.271 1443.97,894.779 1455.42,925.936 1466.87,883.359 1478.32,905.194 1489.77,928.168 1501.22,904.938 1512.67,972.425 1524.12,950.329 1535.57,952.142 1547.02,925.502 1558.47,886.546 1569.92,896.747 1581.37,900.633 1592.82,924.448 1604.27,859.446 1615.72,796.066 1627.17,769.28 1638.62,669.357 1650.07,653.612 1661.52,568.024 1672.97,454.942 1684.42,413.023 1695.87,364.784 1707.32,383.408 1718.77,350.727 1730.22,326.449 1741.67,319.834 1753.12,222.541 1764.57,264.989 1776.02,210.295 1787.47,178.82 1798.92,146.938 1810.37,110.512 1821.82,110.439 1833.27,123.046 1844.72,122.616 1856.17,175.488 1867.62,218.614 1879.07,229.028 1890.52,335.394 1901.97,377.869 1913.42,468.037 1924.87,590.972 1936.32,661.428 1947.77,745.644 1959.22,800.583 1970.67,846.84 1982.12,902.716 1993.57,943.425 2005.02,992.09 2016.47,1056.95 2027.92,1139.97 2039.37,1246.26 2050.82,1284.33 2062.27,1324.74 2073.72,1284.5 2085.17,1326.37 2096.62,1391.43 2108.07,1404.21 2119.52,1445.72 2130.97,1327.41 2142.42,1269.96 2153.87,1251.97 2165.32,1294.25 2176.77,1228.81 2188.22,1181.69 2199.67,1116.44 2211.12,1052.47 2222.57,969.122 2234.02,859.03 2245.47,864.571 2256.92,839.209 2268.37,895.218 2279.82,925.961 2291.27,927.622 2302.72,965.157 2314.17,936.853 2325.62,830.826 "/>
<path clip-path="url(#clip740)" d="M1863.25 302.578 L2320.8 302.578 L2320.8 95.2176 L1863.25 95.2176  Z" fill="#ffffff" fill-rule="evenodd" fill-opacity="1"/>
<polyline clip-path="url(#clip740)" style="stroke:#000000; stroke-linecap:round; stroke-linejoin:round; stroke-width:4; stroke-opacity:1; fill:none" points="1863.25,302.578 2320.8,302.578 2320.8,95.2176 1863.25,95.2176 1863.25,302.578 "/>
<polyline clip-path="url(#clip740)" style="stroke:#009af9; stroke-linecap:round; stroke-linejoin:round; stroke-width:4; stroke-opacity:1; fill:none" points="1873.9,147.058 1937.82,147.058 "/>
<path clip-path="url(#clip740)" d="M1948.48 129.778 L1953.15 129.778 L1953.15 144.384 L1968.66 129.778 L1974.68 129.778 L1957.53 145.889 L1975.91 164.338 L1969.75 164.338 L1953.15 147.694 L1953.15 164.338 L1948.48 164.338 L1948.48 129.778 Z" fill="#000000" fill-rule="nonzero" fill-opacity="1" /><path clip-path="url(#clip740)" d="M1990.33 151.305 Q1985.17 151.305 1983.18 152.486 Q1981.19 153.666 1981.19 156.514 Q1981.19 158.782 1982.67 160.125 Q1984.17 161.444 1986.74 161.444 Q1990.28 161.444 1992.41 158.944 Q1994.56 156.421 1994.56 152.254 L1994.56 151.305 L1990.33 151.305 M1998.82 149.546 L1998.82 164.338 L1994.56 164.338 L1994.56 160.402 Q1993.11 162.763 1990.93 163.898 Q1988.75 165.009 1985.61 165.009 Q1981.62 165.009 1979.26 162.787 Q1976.93 160.541 1976.93 156.791 Q1976.93 152.416 1979.84 150.194 Q1982.78 147.972 1988.59 147.972 L1994.56 147.972 L1994.56 147.555 Q1994.56 144.615 1992.62 143.018 Q1990.7 141.398 1987.2 141.398 Q1984.98 141.398 1982.87 141.93 Q1980.77 142.463 1978.82 143.527 L1978.82 139.592 Q1981.16 138.69 1983.36 138.25 Q1985.56 137.787 1987.64 137.787 Q1993.27 137.787 1996.05 140.703 Q1998.82 143.62 1998.82 149.546 Z" fill="#000000" fill-rule="nonzero" fill-opacity="1" /><path clip-path="url(#clip740)" d="M2007.6 128.319 L2011.86 128.319 L2011.86 164.338 L2007.6 164.338 L2007.6 128.319 Z" fill="#000000" fill-rule="nonzero" fill-opacity="1" /><path clip-path="url(#clip740)" d="M2040.95 143.389 Q2042.55 140.518 2044.77 139.153 Q2046.99 137.787 2050 137.787 Q2054.06 137.787 2056.25 140.634 Q2058.45 143.458 2058.45 148.689 L2058.45 164.338 L2054.17 164.338 L2054.17 148.828 Q2054.17 145.102 2052.85 143.296 Q2051.53 141.49 2048.82 141.49 Q2045.51 141.49 2043.59 143.69 Q2041.67 145.889 2041.67 149.685 L2041.67 164.338 L2037.39 164.338 L2037.39 148.828 Q2037.39 145.078 2036.07 143.296 Q2034.75 141.49 2032 141.49 Q2028.73 141.49 2026.81 143.713 Q2024.89 145.912 2024.89 149.685 L2024.89 164.338 L2020.61 164.338 L2020.61 138.412 L2024.89 138.412 L2024.89 142.44 Q2026.35 140.055 2028.38 138.921 Q2030.42 137.787 2033.22 137.787 Q2036.05 137.787 2038.01 139.222 Q2040 140.657 2040.95 143.389 Z" fill="#000000" fill-rule="nonzero" fill-opacity="1" /><path clip-path="url(#clip740)" d="M2078.73 151.305 Q2073.57 151.305 2071.58 152.486 Q2069.59 153.666 2069.59 156.514 Q2069.59 158.782 2071.07 160.125 Q2072.57 161.444 2075.14 161.444 Q2078.68 161.444 2080.81 158.944 Q2082.97 156.421 2082.97 152.254 L2082.97 151.305 L2078.73 151.305 M2087.23 149.546 L2087.23 164.338 L2082.97 164.338 L2082.97 160.402 Q2081.51 162.763 2079.33 163.898 Q2077.16 165.009 2074.01 165.009 Q2070.03 165.009 2067.67 162.787 Q2065.33 160.541 2065.33 156.791 Q2065.33 152.416 2068.24 150.194 Q2071.18 147.972 2076.99 147.972 L2082.97 147.972 L2082.97 147.555 Q2082.97 144.615 2081.02 143.018 Q2079.1 141.398 2075.61 141.398 Q2073.38 141.398 2071.28 141.93 Q2069.17 142.463 2067.23 143.527 L2067.23 139.592 Q2069.56 138.69 2071.76 138.25 Q2073.96 137.787 2076.05 137.787 Q2081.67 137.787 2084.45 140.703 Q2087.23 143.62 2087.23 149.546 Z" fill="#000000" fill-rule="nonzero" fill-opacity="1" /><path clip-path="url(#clip740)" d="M2117.55 148.689 L2117.55 164.338 L2113.29 164.338 L2113.29 148.828 Q2113.29 145.148 2111.86 143.319 Q2110.42 141.49 2107.55 141.49 Q2104.1 141.49 2102.11 143.69 Q2100.12 145.889 2100.12 149.685 L2100.12 164.338 L2095.84 164.338 L2095.84 138.412 L2100.12 138.412 L2100.12 142.44 Q2101.65 140.102 2103.71 138.944 Q2105.79 137.787 2108.5 137.787 Q2112.97 137.787 2115.26 140.565 Q2117.55 143.319 2117.55 148.689 Z" fill="#000000" fill-rule="nonzero" fill-opacity="1" /><path clip-path="url(#clip740)" d="M2157.64 139.176 L2157.64 143.203 Q2155.84 142.277 2153.89 141.815 Q2151.95 141.352 2149.86 141.352 Q2146.69 141.352 2145.1 142.324 Q2143.52 143.296 2143.52 145.24 Q2143.52 146.722 2144.66 147.578 Q2145.79 148.412 2149.22 149.176 L2150.67 149.5 Q2155.21 150.472 2157.11 152.254 Q2159.03 154.014 2159.03 157.185 Q2159.03 160.796 2156.16 162.902 Q2153.31 165.009 2148.31 165.009 Q2146.23 165.009 2143.96 164.592 Q2141.72 164.199 2139.22 163.388 L2139.22 158.99 Q2141.58 160.217 2143.87 160.842 Q2146.16 161.444 2148.41 161.444 Q2151.42 161.444 2153.04 160.426 Q2154.66 159.384 2154.66 157.509 Q2154.66 155.773 2153.48 154.847 Q2152.32 153.921 2148.36 153.064 L2146.88 152.717 Q2142.92 151.884 2141.16 150.171 Q2139.4 148.435 2139.4 145.426 Q2139.4 141.768 2141.99 139.778 Q2144.59 137.787 2149.36 137.787 Q2151.72 137.787 2153.8 138.134 Q2155.88 138.481 2157.64 139.176 Z" fill="#000000" fill-rule="nonzero" fill-opacity="1" /><path clip-path="url(#clip740)" d="M2186 143.389 Q2187.6 140.518 2189.82 139.153 Q2192.04 137.787 2195.05 137.787 Q2199.1 137.787 2201.3 140.634 Q2203.5 143.458 2203.5 148.689 L2203.5 164.338 L2199.22 164.338 L2199.22 148.828 Q2199.22 145.102 2197.9 143.296 Q2196.58 141.49 2193.87 141.49 Q2190.56 141.49 2188.64 143.69 Q2186.72 145.889 2186.72 149.685 L2186.72 164.338 L2182.43 164.338 L2182.43 148.828 Q2182.43 145.078 2181.11 143.296 Q2179.8 141.49 2177.04 141.49 Q2173.78 141.49 2171.86 143.713 Q2169.93 145.912 2169.93 149.685 L2169.93 164.338 L2165.65 164.338 L2165.65 138.412 L2169.93 138.412 L2169.93 142.44 Q2171.39 140.055 2173.43 138.921 Q2175.47 137.787 2178.27 137.787 Q2181.09 137.787 2183.06 139.222 Q2185.05 140.657 2186 143.389 Z" fill="#000000" fill-rule="nonzero" fill-opacity="1" /><path clip-path="url(#clip740)" d="M2222.04 141.398 Q2218.61 141.398 2216.62 144.083 Q2214.63 146.745 2214.63 151.398 Q2214.63 156.051 2216.6 158.736 Q2218.59 161.398 2222.04 161.398 Q2225.44 161.398 2227.43 158.713 Q2229.42 156.027 2229.42 151.398 Q2229.42 146.791 2227.43 144.106 Q2225.44 141.398 2222.04 141.398 M2222.04 137.787 Q2227.6 137.787 2230.77 141.398 Q2233.94 145.009 2233.94 151.398 Q2233.94 157.764 2230.77 161.398 Q2227.6 165.009 2222.04 165.009 Q2216.46 165.009 2213.29 161.398 Q2210.14 157.764 2210.14 151.398 Q2210.14 145.009 2213.29 141.398 Q2216.46 137.787 2222.04 137.787 Z" fill="#000000" fill-rule="nonzero" fill-opacity="1" /><path clip-path="url(#clip740)" d="M2251.04 141.398 Q2247.62 141.398 2245.63 144.083 Q2243.64 146.745 2243.64 151.398 Q2243.64 156.051 2245.6 158.736 Q2247.6 161.398 2251.04 161.398 Q2254.45 161.398 2256.44 158.713 Q2258.43 156.027 2258.43 151.398 Q2258.43 146.791 2256.44 144.106 Q2254.45 141.398 2251.04 141.398 M2251.04 137.787 Q2256.6 137.787 2259.77 141.398 Q2262.94 145.009 2262.94 151.398 Q2262.94 157.764 2259.77 161.398 Q2256.6 165.009 2251.04 165.009 Q2245.47 165.009 2242.29 161.398 Q2239.15 157.764 2239.15 151.398 Q2239.15 145.009 2242.29 141.398 Q2245.47 137.787 2251.04 137.787 Z" fill="#000000" fill-rule="nonzero" fill-opacity="1" /><path clip-path="url(#clip740)" d="M2274.22 131.051 L2274.22 138.412 L2282.99 138.412 L2282.99 141.722 L2274.22 141.722 L2274.22 155.796 Q2274.22 158.967 2275.07 159.87 Q2275.95 160.773 2278.61 160.773 L2282.99 160.773 L2282.99 164.338 L2278.61 164.338 Q2273.68 164.338 2271.81 162.509 Q2269.93 160.657 2269.93 155.796 L2269.93 141.722 L2266.81 141.722 L2266.81 138.412 L2269.93 138.412 L2269.93 131.051 L2274.22 131.051 Z" fill="#000000" fill-rule="nonzero" fill-opacity="1" /><path clip-path="url(#clip740)" d="M2310.14 148.689 L2310.14 164.338 L2305.88 164.338 L2305.88 148.828 Q2305.88 145.148 2304.45 143.319 Q2303.01 141.49 2300.14 141.49 Q2296.69 141.49 2294.7 143.69 Q2292.71 145.889 2292.71 149.685 L2292.71 164.338 L2288.43 164.338 L2288.43 128.319 L2292.71 128.319 L2292.71 142.44 Q2294.24 140.102 2296.3 138.944 Q2298.38 137.787 2301.09 137.787 Q2305.56 137.787 2307.85 140.565 Q2310.14 143.319 2310.14 148.689 Z" fill="#000000" fill-rule="nonzero" fill-opacity="1" /><polyline clip-path="url(#clip740)" style="stroke:#e26f46; stroke-linecap:round; stroke-linejoin:round; stroke-width:4; stroke-opacity:1; fill:none" points="1873.9,198.898 1937.82,198.898 "/>
<path clip-path="url(#clip740)" d="M1952.76 212.289 L1952.76 226.039 L1948.48 226.039 L1948.48 190.252 L1952.76 190.252 L1952.76 194.187 Q1954.1 191.872 1956.14 190.761 Q1958.2 189.627 1961.05 189.627 Q1965.77 189.627 1968.71 193.377 Q1971.67 197.127 1971.67 203.238 Q1971.67 209.349 1968.71 213.099 Q1965.77 216.849 1961.05 216.849 Q1958.2 216.849 1956.14 215.738 Q1954.1 214.603 1952.76 212.289 M1967.25 203.238 Q1967.25 198.539 1965.31 195.877 Q1963.38 193.192 1960 193.192 Q1956.63 193.192 1954.68 195.877 Q1952.76 198.539 1952.76 203.238 Q1952.76 207.937 1954.68 210.622 Q1956.63 213.284 1960 213.284 Q1963.38 213.284 1965.31 210.622 Q1967.25 207.937 1967.25 203.238 Z" fill="#000000" fill-rule="nonzero" fill-opacity="1" /><path clip-path="url(#clip740)" d="M1991.86 180.159 L1991.86 183.701 L1987.78 183.701 Q1985.49 183.701 1984.59 184.627 Q1983.71 185.553 1983.71 187.96 L1983.71 190.252 L1990.72 190.252 L1990.72 193.562 L1983.71 193.562 L1983.71 216.178 L1979.43 216.178 L1979.43 193.562 L1975.35 193.562 L1975.35 190.252 L1979.43 190.252 L1979.43 188.446 Q1979.43 184.118 1981.44 182.15 Q1983.45 180.159 1987.83 180.159 L1991.86 180.159 Z" fill="#000000" fill-rule="nonzero" fill-opacity="1" /><path clip-path="url(#clip740)" d="M2027.02 191.016 L2027.02 195.043 Q2025.21 194.117 2023.27 193.655 Q2021.32 193.192 2019.24 193.192 Q2016.07 193.192 2014.47 194.164 Q2012.9 195.136 2012.9 197.08 Q2012.9 198.562 2014.03 199.418 Q2015.17 200.252 2018.59 201.016 L2020.05 201.34 Q2024.59 202.312 2026.49 204.094 Q2028.41 205.854 2028.41 209.025 Q2028.41 212.636 2025.54 214.742 Q2022.69 216.849 2017.69 216.849 Q2015.61 216.849 2013.34 216.432 Q2011.09 216.039 2008.59 215.228 L2008.59 210.83 Q2010.95 212.057 2013.25 212.682 Q2015.54 213.284 2017.78 213.284 Q2020.79 213.284 2022.41 212.266 Q2024.03 211.224 2024.03 209.349 Q2024.03 207.613 2022.85 206.687 Q2021.69 205.761 2017.74 204.904 L2016.25 204.557 Q2012.3 203.724 2010.54 202.011 Q2008.78 200.275 2008.78 197.266 Q2008.78 193.608 2011.37 191.618 Q2013.96 189.627 2018.73 189.627 Q2021.09 189.627 2023.18 189.974 Q2025.26 190.321 2027.02 191.016 Z" fill="#000000" fill-rule="nonzero" fill-opacity="1" /><path clip-path="url(#clip740)" d="M2055.37 195.229 Q2056.97 192.358 2059.19 190.993 Q2061.42 189.627 2064.43 189.627 Q2068.48 189.627 2070.68 192.474 Q2072.87 195.298 2072.87 200.529 L2072.87 216.178 L2068.59 216.178 L2068.59 200.668 Q2068.59 196.942 2067.27 195.136 Q2065.95 193.33 2063.24 193.33 Q2059.93 193.33 2058.01 195.53 Q2056.09 197.729 2056.09 201.525 L2056.09 216.178 L2051.81 216.178 L2051.81 200.668 Q2051.81 196.918 2050.49 195.136 Q2049.17 193.33 2046.42 193.33 Q2043.15 193.33 2041.23 195.553 Q2039.31 197.752 2039.31 201.525 L2039.31 216.178 L2035.03 216.178 L2035.03 190.252 L2039.31 190.252 L2039.31 194.28 Q2040.77 191.895 2042.81 190.761 Q2044.84 189.627 2047.64 189.627 Q2050.47 189.627 2052.43 191.062 Q2054.43 192.497 2055.37 195.229 Z" fill="#000000" fill-rule="nonzero" fill-opacity="1" /><path clip-path="url(#clip740)" d="M2091.42 193.238 Q2087.99 193.238 2086 195.923 Q2084.01 198.585 2084.01 203.238 Q2084.01 207.891 2085.98 210.576 Q2087.97 213.238 2091.42 213.238 Q2094.82 213.238 2096.81 210.553 Q2098.8 207.867 2098.8 203.238 Q2098.8 198.631 2096.81 195.946 Q2094.82 193.238 2091.42 193.238 M2091.42 189.627 Q2096.97 189.627 2100.14 193.238 Q2103.31 196.849 2103.31 203.238 Q2103.31 209.604 2100.14 213.238 Q2096.97 216.849 2091.42 216.849 Q2085.84 216.849 2082.67 213.238 Q2079.52 209.604 2079.52 203.238 Q2079.52 196.849 2082.67 193.238 Q2085.84 189.627 2091.42 189.627 Z" fill="#000000" fill-rule="nonzero" fill-opacity="1" /><path clip-path="url(#clip740)" d="M2120.42 193.238 Q2116.99 193.238 2115 195.923 Q2113.01 198.585 2113.01 203.238 Q2113.01 207.891 2114.98 210.576 Q2116.97 213.238 2120.42 213.238 Q2123.82 213.238 2125.81 210.553 Q2127.8 207.867 2127.8 203.238 Q2127.8 198.631 2125.81 195.946 Q2123.82 193.238 2120.42 193.238 M2120.42 189.627 Q2125.98 189.627 2129.15 193.238 Q2132.32 196.849 2132.32 203.238 Q2132.32 209.604 2129.15 213.238 Q2125.98 216.849 2120.42 216.849 Q2114.84 216.849 2111.67 213.238 Q2108.52 209.604 2108.52 203.238 Q2108.52 196.849 2111.67 193.238 Q2114.84 189.627 2120.42 189.627 Z" fill="#000000" fill-rule="nonzero" fill-opacity="1" /><path clip-path="url(#clip740)" d="M2143.59 182.891 L2143.59 190.252 L2152.36 190.252 L2152.36 193.562 L2143.59 193.562 L2143.59 207.636 Q2143.59 210.807 2144.45 211.71 Q2145.33 212.613 2147.99 212.613 L2152.36 212.613 L2152.36 216.178 L2147.99 216.178 Q2143.06 216.178 2141.18 214.349 Q2139.31 212.497 2139.31 207.636 L2139.31 193.562 L2136.18 193.562 L2136.18 190.252 L2139.31 190.252 L2139.31 182.891 L2143.59 182.891 Z" fill="#000000" fill-rule="nonzero" fill-opacity="1" /><path clip-path="url(#clip740)" d="M2179.52 200.529 L2179.52 216.178 L2175.26 216.178 L2175.26 200.668 Q2175.26 196.988 2173.82 195.159 Q2172.39 193.33 2169.52 193.33 Q2166.07 193.33 2164.08 195.53 Q2162.09 197.729 2162.09 201.525 L2162.09 216.178 L2157.8 216.178 L2157.8 180.159 L2162.09 180.159 L2162.09 194.28 Q2163.61 191.942 2165.67 190.784 Q2167.76 189.627 2170.47 189.627 Q2174.93 189.627 2177.23 192.405 Q2179.52 195.159 2179.52 200.529 Z" fill="#000000" fill-rule="nonzero" fill-opacity="1" /><polyline clip-path="url(#clip740)" style="stroke:#3da44d; stroke-linecap:round; stroke-linejoin:round; stroke-width:4; stroke-opacity:1; fill:none" points="1873.9,250.738 1937.82,250.738 "/>
<path clip-path="url(#clip740)" d="M1955.88 234.731 L1955.88 242.092 L1964.66 242.092 L1964.66 245.402 L1955.88 245.402 L1955.88 259.476 Q1955.88 262.647 1956.74 263.55 Q1957.62 264.453 1960.28 264.453 L1964.66 264.453 L1964.66 268.018 L1960.28 268.018 Q1955.35 268.018 1953.48 266.189 Q1951.6 264.337 1951.6 259.476 L1951.6 245.402 L1948.48 245.402 L1948.48 242.092 L1951.6 242.092 L1951.6 234.731 L1955.88 234.731 Z" fill="#000000" fill-rule="nonzero" fill-opacity="1" /><path clip-path="url(#clip740)" d="M1985.28 246.073 Q1984.56 245.657 1983.71 245.471 Q1982.87 245.263 1981.86 245.263 Q1978.25 245.263 1976.3 247.624 Q1974.38 249.962 1974.38 254.36 L1974.38 268.018 L1970.1 268.018 L1970.1 242.092 L1974.38 242.092 L1974.38 246.12 Q1975.72 243.758 1977.87 242.624 Q1980.03 241.467 1983.11 241.467 Q1983.55 241.467 1984.08 241.536 Q1984.61 241.583 1985.26 241.698 L1985.28 246.073 Z" fill="#000000" fill-rule="nonzero" fill-opacity="1" /><path clip-path="url(#clip740)" d="M1989.31 257.786 L1989.31 242.092 L1993.57 242.092 L1993.57 257.624 Q1993.57 261.305 1995 263.156 Q1996.44 264.985 1999.31 264.985 Q2002.76 264.985 2004.75 262.786 Q2006.76 260.587 2006.76 256.791 L2006.76 242.092 L2011.02 242.092 L2011.02 268.018 L2006.76 268.018 L2006.76 264.036 Q2005.21 266.397 2003.15 267.555 Q2001.12 268.689 1998.41 268.689 Q1993.94 268.689 1991.62 265.911 Q1989.31 263.133 1989.31 257.786 M2000.03 241.467 L2000.03 241.467 Z" fill="#000000" fill-rule="nonzero" fill-opacity="1" /><path clip-path="url(#clip740)" d="M2041.97 253.99 L2041.97 256.073 L2022.39 256.073 Q2022.67 260.471 2025.03 262.786 Q2027.41 265.078 2031.65 265.078 Q2034.1 265.078 2036.39 264.476 Q2038.71 263.874 2040.98 262.67 L2040.98 266.698 Q2038.68 267.67 2036.28 268.18 Q2033.87 268.689 2031.39 268.689 Q2025.19 268.689 2021.56 265.078 Q2017.94 261.467 2017.94 255.309 Q2017.94 248.944 2021.37 245.217 Q2024.82 241.467 2030.65 241.467 Q2035.88 241.467 2038.92 244.846 Q2041.97 248.203 2041.97 253.99 M2037.71 252.74 Q2037.67 249.245 2035.75 247.161 Q2033.85 245.078 2030.7 245.078 Q2027.13 245.078 2024.98 247.092 Q2022.85 249.106 2022.53 252.763 L2037.71 252.74 Z" fill="#000000" fill-rule="nonzero" fill-opacity="1" /></svg>
