<?xml version="1.0" encoding="utf-8"?>
<svg xmlns="http://www.w3.org/2000/svg" xmlns:xlink="http://www.w3.org/1999/xlink" width="600" height="400" viewBox="0 0 2400 1600">
<defs>
  <clipPath id="clip870">
    <rect x="0" y="0" width="2400" height="1600"/>
  </clipPath>
</defs>
<path clip-path="url(#clip870)" d="M0 1600 L2400 1600 L2400 0 L0 0  Z" fill="#ffffff" fill-rule="evenodd" fill-opacity="1"/>
<defs>
  <clipPath id="clip871">
    <rect x="480" y="0" width="1681" height="1600"/>
  </clipPath>
</defs>
<path clip-path="url(#clip870)" d="M194.422 1486.45 L1153.32 1486.45 L1153.32 47.2441 L194.422 47.2441  Z" fill="#ffffff" fill-rule="evenodd" fill-opacity="1"/>
<defs>
  <clipPath id="clip872">
    <rect x="194" y="47" width="960" height="1440"/>
  </clipPath>
</defs>
<polyline clip-path="url(#clip872)" style="stroke:#000000; stroke-linecap:round; stroke-linejoin:round; stroke-width:2; stroke-opacity:0.1; fill:none" points="210.11,1486.45 210.11,47.2441 "/>
<polyline clip-path="url(#clip872)" style="stroke:#000000; stroke-linecap:round; stroke-linejoin:round; stroke-width:2; stroke-opacity:0.1; fill:none" points="439.128,1486.45 439.128,47.2441 "/>
<polyline clip-path="url(#clip872)" style="stroke:#000000; stroke-linecap:round; stroke-linejoin:round; stroke-width:2; stroke-opacity:0.1; fill:none" points="668.147,1486.45 668.147,47.2441 "/>
<polyline clip-path="url(#clip872)" style="stroke:#000000; stroke-linecap:round; stroke-linejoin:round; stroke-width:2; stroke-opacity:0.1; fill:none" points="897.166,1486.45 897.166,47.2441 "/>
<polyline clip-path="url(#clip872)" style="stroke:#000000; stroke-linecap:round; stroke-linejoin:round; stroke-width:2; stroke-opacity:0.1; fill:none" points="1126.18,1486.45 1126.18,47.2441 "/>
<polyline clip-path="url(#clip872)" style="stroke:#000000; stroke-linecap:round; stroke-linejoin:round; stroke-width:2; stroke-opacity:0.1; fill:none" points="194.422,1354.24 1153.32,1354.24 "/>
<polyline clip-path="url(#clip872)" style="stroke:#000000; stroke-linecap:round; stroke-linejoin:round; stroke-width:2; stroke-opacity:0.1; fill:none" points="194.422,1187.18 1153.32,1187.18 "/>
<polyline clip-path="url(#clip872)" style="stroke:#000000; stroke-linecap:round; stroke-linejoin:round; stroke-width:2; stroke-opacity:0.1; fill:none" points="194.422,1020.12 1153.32,1020.12 "/>
<polyline clip-path="url(#clip872)" style="stroke:#000000; stroke-linecap:round; stroke-linejoin:round; stroke-width:2; stroke-opacity:0.1; fill:none" points="194.422,853.064 1153.32,853.064 "/>
<polyline clip-path="url(#clip872)" style="stroke:#000000; stroke-linecap:round; stroke-linejoin:round; stroke-width:2; stroke-opacity:0.1; fill:none" points="194.422,686.006 1153.32,686.006 "/>
<polyline clip-path="url(#clip872)" style="stroke:#000000; stroke-linecap:round; stroke-linejoin:round; stroke-width:2; stroke-opacity:0.1; fill:none" points="194.422,518.949 1153.32,518.949 "/>
<polyline clip-path="url(#clip872)" style="stroke:#000000; stroke-linecap:round; stroke-linejoin:round; stroke-width:2; stroke-opacity:0.1; fill:none" points="194.422,351.891 1153.32,351.891 "/>
<polyline clip-path="url(#clip872)" style="stroke:#000000; stroke-linecap:round; stroke-linejoin:round; stroke-width:2; stroke-opacity:0.1; fill:none" points="194.422,184.833 1153.32,184.833 "/>
<polyline clip-path="url(#clip870)" style="stroke:#000000; stroke-linecap:round; stroke-linejoin:round; stroke-width:4; stroke-opacity:1; fill:none" points="194.422,1486.45 1153.32,1486.45 "/>
<polyline clip-path="url(#clip870)" style="stroke:#000000; stroke-linecap:round; stroke-linejoin:round; stroke-width:4; stroke-opacity:1; fill:none" points="210.11,1486.45 210.11,1467.55 "/>
<polyline clip-path="url(#clip870)" style="stroke:#000000; stroke-linecap:round; stroke-linejoin:round; stroke-width:4; stroke-opacity:1; fill:none" points="439.128,1486.45 439.128,1467.55 "/>
<polyline clip-path="url(#clip870)" style="stroke:#000000; stroke-linecap:round; stroke-linejoin:round; stroke-width:4; stroke-opacity:1; fill:none" points="668.147,1486.45 668.147,1467.55 "/>
<polyline clip-path="url(#clip870)" style="stroke:#000000; stroke-linecap:round; stroke-linejoin:round; stroke-width:4; stroke-opacity:1; fill:none" points="897.166,1486.45 897.166,1467.55 "/>
<polyline clip-path="url(#clip870)" style="stroke:#000000; stroke-linecap:round; stroke-linejoin:round; stroke-width:4; stroke-opacity:1; fill:none" points="1126.18,1486.45 1126.18,1467.55 "/>
<path clip-path="url(#clip870)" d="M210.11 1517.37 Q206.499 1517.37 204.67 1520.93 Q202.865 1524.47 202.865 1531.6 Q202.865 1538.71 204.67 1542.27 Q206.499 1545.82 210.11 1545.82 Q213.744 1545.82 215.55 1542.27 Q217.378 1538.71 217.378 1531.6 Q217.378 1524.47 215.55 1520.93 Q213.744 1517.37 210.11 1517.37 M210.11 1513.66 Q215.92 1513.66 218.976 1518.27 Q222.054 1522.85 222.054 1531.6 Q222.054 1540.33 218.976 1544.94 Q215.92 1549.52 210.11 1549.52 Q204.3 1549.52 201.221 1544.94 Q198.166 1540.33 198.166 1531.6 Q198.166 1522.85 201.221 1518.27 Q204.3 1513.66 210.11 1513.66 Z" fill="#000000" fill-rule="nonzero" fill-opacity="1" /><path clip-path="url(#clip870)" d="M417.902 1544.91 L434.221 1544.91 L434.221 1548.85 L412.277 1548.85 L412.277 1544.91 Q414.939 1542.16 419.522 1537.53 Q424.129 1532.88 425.309 1531.53 Q427.554 1529.01 428.434 1527.27 Q429.337 1525.51 429.337 1523.82 Q429.337 1521.07 427.392 1519.33 Q425.471 1517.6 422.369 1517.6 Q420.17 1517.6 417.717 1518.36 Q415.286 1519.13 412.508 1520.68 L412.508 1515.95 Q415.332 1514.82 417.786 1514.24 Q420.24 1513.66 422.277 1513.66 Q427.647 1513.66 430.841 1516.35 Q434.036 1519.03 434.036 1523.52 Q434.036 1525.65 433.226 1527.57 Q432.439 1529.47 430.332 1532.07 Q429.754 1532.74 426.652 1535.95 Q423.55 1539.15 417.902 1544.91 Z" fill="#000000" fill-rule="nonzero" fill-opacity="1" /><path clip-path="url(#clip870)" d="M454.036 1517.37 Q450.425 1517.37 448.596 1520.93 Q446.79 1524.47 446.79 1531.6 Q446.79 1538.71 448.596 1542.27 Q450.425 1545.82 454.036 1545.82 Q457.67 1545.82 459.476 1542.27 Q461.304 1538.71 461.304 1531.6 Q461.304 1524.47 459.476 1520.93 Q457.67 1517.37 454.036 1517.37 M454.036 1513.66 Q459.846 1513.66 462.902 1518.27 Q465.98 1522.85 465.98 1531.6 Q465.98 1540.33 462.902 1544.94 Q459.846 1549.52 454.036 1549.52 Q448.226 1549.52 445.147 1544.94 Q442.091 1540.33 442.091 1531.6 Q442.091 1522.85 445.147 1518.27 Q448.226 1513.66 454.036 1513.66 Z" fill="#000000" fill-rule="nonzero" fill-opacity="1" /><path clip-path="url(#clip870)" d="M656.318 1518.36 L644.513 1536.81 L656.318 1536.81 L656.318 1518.36 M655.092 1514.29 L660.971 1514.29 L660.971 1536.81 L665.902 1536.81 L665.902 1540.7 L660.971 1540.7 L660.971 1548.85 L656.318 1548.85 L656.318 1540.7 L640.717 1540.7 L640.717 1536.19 L655.092 1514.29 Z" fill="#000000" fill-rule="nonzero" fill-opacity="1" /><path clip-path="url(#clip870)" d="M683.633 1517.37 Q680.022 1517.37 678.193 1520.93 Q676.388 1524.47 676.388 1531.6 Q676.388 1538.71 678.193 1542.27 Q680.022 1545.82 683.633 1545.82 Q687.267 1545.82 689.073 1542.27 Q690.902 1538.71 690.902 1531.6 Q690.902 1524.47 689.073 1520.93 Q687.267 1517.37 683.633 1517.37 M683.633 1513.66 Q689.443 1513.66 692.499 1518.27 Q695.578 1522.85 695.578 1531.6 Q695.578 1540.33 692.499 1544.94 Q689.443 1549.52 683.633 1549.52 Q677.823 1549.52 674.744 1544.94 Q671.689 1540.33 671.689 1531.6 Q671.689 1522.85 674.744 1518.27 Q677.823 1513.66 683.633 1513.66 Z" fill="#000000" fill-rule="nonzero" fill-opacity="1" /><path clip-path="url(#clip870)" d="M882.571 1529.7 Q879.423 1529.7 877.571 1531.86 Q875.742 1534.01 875.742 1537.76 Q875.742 1541.49 877.571 1543.66 Q879.423 1545.82 882.571 1545.82 Q885.719 1545.82 887.548 1543.66 Q889.4 1541.49 889.4 1537.76 Q889.4 1534.01 887.548 1531.86 Q885.719 1529.7 882.571 1529.7 M891.853 1515.05 L891.853 1519.31 Q890.094 1518.48 888.288 1518.04 Q886.506 1517.6 884.747 1517.6 Q880.117 1517.6 877.664 1520.72 Q875.233 1523.85 874.886 1530.17 Q876.251 1528.15 878.312 1527.09 Q880.372 1526 882.849 1526 Q888.057 1526 891.066 1529.17 Q894.099 1532.32 894.099 1537.76 Q894.099 1543.08 890.95 1546.3 Q887.802 1549.52 882.571 1549.52 Q876.576 1549.52 873.404 1544.94 Q870.233 1540.33 870.233 1531.6 Q870.233 1523.41 874.122 1518.55 Q878.011 1513.66 884.562 1513.66 Q886.321 1513.66 888.103 1514.01 Q889.909 1514.36 891.853 1515.05 Z" fill="#000000" fill-rule="nonzero" fill-opacity="1" /><path clip-path="url(#clip870)" d="M912.154 1517.37 Q908.543 1517.37 906.714 1520.93 Q904.909 1524.47 904.909 1531.6 Q904.909 1538.71 906.714 1542.27 Q908.543 1545.82 912.154 1545.82 Q915.788 1545.82 917.594 1542.27 Q919.423 1538.71 919.423 1531.6 Q919.423 1524.47 917.594 1520.93 Q915.788 1517.37 912.154 1517.37 M912.154 1513.66 Q917.964 1513.66 921.02 1518.27 Q924.098 1522.85 924.098 1531.6 Q924.098 1540.33 921.02 1544.94 Q917.964 1549.52 912.154 1549.52 Q906.344 1549.52 903.265 1544.94 Q900.21 1540.33 900.21 1531.6 Q900.21 1522.85 903.265 1518.27 Q906.344 1513.66 912.154 1513.66 Z" fill="#000000" fill-rule="nonzero" fill-opacity="1" /><path clip-path="url(#clip870)" d="M1111.06 1532.44 Q1107.72 1532.44 1105.8 1534.22 Q1103.9 1536 1103.9 1539.13 Q1103.9 1542.25 1105.8 1544.03 Q1107.72 1545.82 1111.06 1545.82 Q1114.39 1545.82 1116.31 1544.03 Q1118.23 1542.23 1118.23 1539.13 Q1118.23 1536 1116.31 1534.22 Q1114.41 1532.44 1111.06 1532.44 M1106.38 1530.45 Q1103.37 1529.7 1101.68 1527.64 Q1100.02 1525.58 1100.02 1522.62 Q1100.02 1518.48 1102.96 1516.07 Q1105.92 1513.66 1111.06 1513.66 Q1116.22 1513.66 1119.16 1516.07 Q1122.1 1518.48 1122.1 1522.62 Q1122.1 1525.58 1120.41 1527.64 Q1118.74 1529.7 1115.76 1530.45 Q1119.14 1531.23 1121.01 1533.52 Q1122.91 1535.82 1122.91 1539.13 Q1122.91 1544.15 1119.83 1546.83 Q1116.77 1549.52 1111.06 1549.52 Q1105.34 1549.52 1102.26 1546.83 Q1099.21 1544.15 1099.21 1539.13 Q1099.21 1535.82 1101.1 1533.52 Q1103 1531.23 1106.38 1530.45 M1104.67 1523.06 Q1104.67 1525.75 1106.33 1527.25 Q1108.02 1528.76 1111.06 1528.76 Q1114.07 1528.76 1115.76 1527.25 Q1117.47 1525.75 1117.47 1523.06 Q1117.47 1520.38 1115.76 1518.87 Q1114.07 1517.37 1111.06 1517.37 Q1108.02 1517.37 1106.33 1518.87 Q1104.67 1520.38 1104.67 1523.06 Z" fill="#000000" fill-rule="nonzero" fill-opacity="1" /><path clip-path="url(#clip870)" d="M1141.22 1517.37 Q1137.61 1517.37 1135.78 1520.93 Q1133.97 1524.47 1133.97 1531.6 Q1133.97 1538.71 1135.78 1542.27 Q1137.61 1545.82 1141.22 1545.82 Q1144.85 1545.82 1146.66 1542.27 Q1148.49 1538.71 1148.49 1531.6 Q1148.49 1524.47 1146.66 1520.93 Q1144.85 1517.37 1141.22 1517.37 M1141.22 1513.66 Q1147.03 1513.66 1150.08 1518.27 Q1153.16 1522.85 1153.16 1531.6 Q1153.16 1540.33 1150.08 1544.94 Q1147.03 1549.52 1141.22 1549.52 Q1135.41 1549.52 1132.33 1544.94 Q1129.27 1540.33 1129.27 1531.6 Q1129.27 1522.85 1132.33 1518.27 Q1135.41 1513.66 1141.22 1513.66 Z" fill="#000000" fill-rule="nonzero" fill-opacity="1" /><polyline clip-path="url(#clip870)" style="stroke:#000000; stroke-linecap:round; stroke-linejoin:round; stroke-width:4; stroke-opacity:1; fill:none" points="194.422,1486.45 194.422,47.2441 "/>
<polyline clip-path="url(#clip870)" style="stroke:#000000; stroke-linecap:round; stroke-linejoin:round; stroke-width:4; stroke-opacity:1; fill:none" points="194.422,1354.24 213.32,1354.24 "/>
<polyline clip-path="url(#clip870)" style="stroke:#000000; stroke-linecap:round; stroke-linejoin:round; stroke-width:4; stroke-opacity:1; fill:none" points="194.422,1187.18 213.32,1187.18 "/>
<polyline clip-path="url(#clip870)" style="stroke:#000000; stroke-linecap:round; stroke-linejoin:round; stroke-width:4; stroke-opacity:1; fill:none" points="194.422,1020.12 213.32,1020.12 "/>
<polyline clip-path="url(#clip870)" style="stroke:#000000; stroke-linecap:round; stroke-linejoin:round; stroke-width:4; stroke-opacity:1; fill:none" points="194.422,853.064 213.32,853.064 "/>
<polyline clip-path="url(#clip870)" style="stroke:#000000; stroke-linecap:round; stroke-linejoin:round; stroke-width:4; stroke-opacity:1; fill:none" points="194.422,686.006 213.32,686.006 "/>
<polyline clip-path="url(#clip870)" style="stroke:#000000; stroke-linecap:round; stroke-linejoin:round; stroke-width:4; stroke-opacity:1; fill:none" points="194.422,518.949 213.32,518.949 "/>
<polyline clip-path="url(#clip870)" style="stroke:#000000; stroke-linecap:round; stroke-linejoin:round; stroke-width:4; stroke-opacity:1; fill:none" points="194.422,351.891 213.32,351.891 "/>
<polyline clip-path="url(#clip870)" style="stroke:#000000; stroke-linecap:round; stroke-linejoin:round; stroke-width:4; stroke-opacity:1; fill:none" points="194.422,184.833 213.32,184.833 "/>
<path clip-path="url(#clip870)" d="M51.3162 1354.69 L80.992 1354.69 L80.992 1358.62 L51.3162 1358.62 L51.3162 1354.69 Z" fill="#000000" fill-rule="nonzero" fill-opacity="1" /><path clip-path="url(#clip870)" d="M101.084 1340.04 Q97.4734 1340.04 95.6447 1343.6 Q93.8391 1347.14 93.8391 1354.27 Q93.8391 1361.38 95.6447 1364.94 Q97.4734 1368.48 101.084 1368.48 Q104.719 1368.48 106.524 1364.94 Q108.353 1361.38 108.353 1354.27 Q108.353 1347.14 106.524 1343.6 Q104.719 1340.04 101.084 1340.04 M101.084 1336.33 Q106.895 1336.33 109.95 1340.94 Q113.029 1345.52 113.029 1354.27 Q113.029 1363 109.95 1367.6 Q106.895 1372.19 101.084 1372.19 Q95.2743 1372.19 92.1956 1367.6 Q89.1401 1363 89.1401 1354.27 Q89.1401 1345.52 92.1956 1340.94 Q95.2743 1336.33 101.084 1336.33 Z" fill="#000000" fill-rule="nonzero" fill-opacity="1" /><path clip-path="url(#clip870)" d="M121.246 1365.64 L126.131 1365.64 L126.131 1371.52 L121.246 1371.52 L121.246 1365.64 Z" fill="#000000" fill-rule="nonzero" fill-opacity="1" /><path clip-path="url(#clip870)" d="M146.894 1352.37 Q143.746 1352.37 141.894 1354.53 Q140.066 1356.68 140.066 1360.43 Q140.066 1364.16 141.894 1366.33 Q143.746 1368.48 146.894 1368.48 Q150.043 1368.48 151.871 1366.33 Q153.723 1364.16 153.723 1360.43 Q153.723 1356.68 151.871 1354.53 Q150.043 1352.37 146.894 1352.37 M156.177 1337.72 L156.177 1341.98 Q154.417 1341.15 152.612 1340.71 Q150.83 1340.27 149.07 1340.27 Q144.441 1340.27 141.987 1343.39 Q139.556 1346.52 139.209 1352.84 Q140.575 1350.82 142.635 1349.76 Q144.695 1348.67 147.172 1348.67 Q152.38 1348.67 155.39 1351.84 Q158.422 1354.99 158.422 1360.43 Q158.422 1365.75 155.274 1368.97 Q152.126 1372.19 146.894 1372.19 Q140.899 1372.19 137.728 1367.6 Q134.556 1363 134.556 1354.27 Q134.556 1346.08 138.445 1341.22 Q142.334 1336.33 148.885 1336.33 Q150.644 1336.33 152.427 1336.68 Q154.232 1337.03 156.177 1337.72 Z" fill="#000000" fill-rule="nonzero" fill-opacity="1" /><path clip-path="url(#clip870)" d="M50.9921 1187.63 L80.6679 1187.63 L80.6679 1191.57 L50.9921 1191.57 L50.9921 1187.63 Z" fill="#000000" fill-rule="nonzero" fill-opacity="1" /><path clip-path="url(#clip870)" d="M100.76 1172.98 Q97.1493 1172.98 95.3206 1176.54 Q93.515 1180.08 93.515 1187.21 Q93.515 1194.32 95.3206 1197.89 Q97.1493 1201.43 100.76 1201.43 Q104.395 1201.43 106.2 1197.89 Q108.029 1194.32 108.029 1187.21 Q108.029 1180.08 106.2 1176.54 Q104.395 1172.98 100.76 1172.98 M100.76 1169.27 Q106.571 1169.27 109.626 1173.88 Q112.705 1178.46 112.705 1187.21 Q112.705 1195.94 109.626 1200.55 Q106.571 1205.13 100.76 1205.13 Q94.9502 1205.13 91.8715 1200.55 Q88.816 1195.94 88.816 1187.21 Q88.816 1178.46 91.8715 1173.88 Q94.9502 1169.27 100.76 1169.27 Z" fill="#000000" fill-rule="nonzero" fill-opacity="1" /><path clip-path="url(#clip870)" d="M120.922 1198.58 L125.807 1198.58 L125.807 1204.46 L120.922 1204.46 L120.922 1198.58 Z" fill="#000000" fill-rule="nonzero" fill-opacity="1" /><path clip-path="url(#clip870)" d="M148.839 1173.97 L137.033 1192.42 L148.839 1192.42 L148.839 1173.97 M147.612 1169.9 L153.492 1169.9 L153.492 1192.42 L158.422 1192.42 L158.422 1196.31 L153.492 1196.31 L153.492 1204.46 L148.839 1204.46 L148.839 1196.31 L133.237 1196.31 L133.237 1191.8 L147.612 1169.9 Z" fill="#000000" fill-rule="nonzero" fill-opacity="1" /><path clip-path="url(#clip870)" d="M53.0754 1020.57 L82.7512 1020.57 L82.7512 1024.51 L53.0754 1024.51 L53.0754 1020.57 Z" fill="#000000" fill-rule="nonzero" fill-opacity="1" /><path clip-path="url(#clip870)" d="M102.844 1005.92 Q99.2326 1005.92 97.4039 1009.49 Q95.5984 1013.03 95.5984 1020.16 Q95.5984 1027.26 97.4039 1030.83 Q99.2326 1034.37 102.844 1034.37 Q106.478 1034.37 108.283 1030.83 Q110.112 1027.26 110.112 1020.16 Q110.112 1013.03 108.283 1009.49 Q106.478 1005.92 102.844 1005.92 M102.844 1002.22 Q108.654 1002.22 111.709 1006.82 Q114.788 1011.41 114.788 1020.16 Q114.788 1028.88 111.709 1033.49 Q108.654 1038.07 102.844 1038.07 Q97.0335 1038.07 93.9549 1033.49 Q90.8993 1028.88 90.8993 1020.16 Q90.8993 1011.41 93.9549 1006.82 Q97.0335 1002.22 102.844 1002.22 Z" fill="#000000" fill-rule="nonzero" fill-opacity="1" /><path clip-path="url(#clip870)" d="M123.006 1031.52 L127.89 1031.52 L127.89 1037.4 L123.006 1037.4 L123.006 1031.52 Z" fill="#000000" fill-rule="nonzero" fill-opacity="1" /><path clip-path="url(#clip870)" d="M142.103 1033.47 L158.422 1033.47 L158.422 1037.4 L136.478 1037.4 L136.478 1033.47 Q139.14 1030.71 143.723 1026.08 Q148.33 1021.43 149.51 1020.09 Q151.755 1017.56 152.635 1015.83 Q153.538 1014.07 153.538 1012.38 Q153.538 1009.62 151.593 1007.89 Q149.672 1006.15 146.57 1006.15 Q144.371 1006.15 141.918 1006.92 Q139.487 1007.68 136.709 1009.23 L136.709 1004.51 Q139.533 1003.37 141.987 1002.8 Q144.441 1002.22 146.478 1002.22 Q151.848 1002.22 155.042 1004.9 Q158.237 1007.59 158.237 1012.08 Q158.237 1014.21 157.427 1016.13 Q156.64 1018.03 154.533 1020.62 Q153.955 1021.29 150.853 1024.51 Q147.751 1027.7 142.103 1033.47 Z" fill="#000000" fill-rule="nonzero" fill-opacity="1" /><path clip-path="url(#clip870)" d="M101.246 838.863 Q97.6354 838.863 95.8067 842.427 Q94.0012 845.969 94.0012 853.099 Q94.0012 860.205 95.8067 863.77 Q97.6354 867.312 101.246 867.312 Q104.881 867.312 106.686 863.77 Q108.515 860.205 108.515 853.099 Q108.515 845.969 106.686 842.427 Q104.881 838.863 101.246 838.863 M101.246 835.159 Q107.057 835.159 110.112 839.765 Q113.191 844.349 113.191 853.099 Q113.191 861.825 110.112 866.432 Q107.057 871.015 101.246 871.015 Q95.4363 871.015 92.3576 866.432 Q89.3021 861.825 89.3021 853.099 Q89.3021 844.349 92.3576 839.765 Q95.4363 835.159 101.246 835.159 Z" fill="#000000" fill-rule="nonzero" fill-opacity="1" /><path clip-path="url(#clip870)" d="M121.408 864.464 L126.293 864.464 L126.293 870.344 L121.408 870.344 L121.408 864.464 Z" fill="#000000" fill-rule="nonzero" fill-opacity="1" /><path clip-path="url(#clip870)" d="M146.478 838.863 Q142.867 838.863 141.038 842.427 Q139.232 845.969 139.232 853.099 Q139.232 860.205 141.038 863.77 Q142.867 867.312 146.478 867.312 Q150.112 867.312 151.918 863.77 Q153.746 860.205 153.746 853.099 Q153.746 845.969 151.918 842.427 Q150.112 838.863 146.478 838.863 M146.478 835.159 Q152.288 835.159 155.343 839.765 Q158.422 844.349 158.422 853.099 Q158.422 861.825 155.343 866.432 Q152.288 871.015 146.478 871.015 Q140.668 871.015 137.589 866.432 Q134.533 861.825 134.533 853.099 Q134.533 844.349 137.589 839.765 Q140.668 835.159 146.478 835.159 Z" fill="#000000" fill-rule="nonzero" fill-opacity="1" /><path clip-path="url(#clip870)" d="M102.844 671.805 Q99.2326 671.805 97.4039 675.37 Q95.5984 678.911 95.5984 686.041 Q95.5984 693.147 97.4039 696.712 Q99.2326 700.254 102.844 700.254 Q106.478 700.254 108.283 696.712 Q110.112 693.147 110.112 686.041 Q110.112 678.911 108.283 675.37 Q106.478 671.805 102.844 671.805 M102.844 668.101 Q108.654 668.101 111.709 672.708 Q114.788 677.291 114.788 686.041 Q114.788 694.768 111.709 699.374 Q108.654 703.958 102.844 703.958 Q97.0335 703.958 93.9549 699.374 Q90.8993 694.768 90.8993 686.041 Q90.8993 677.291 93.9549 672.708 Q97.0335 668.101 102.844 668.101 Z" fill="#000000" fill-rule="nonzero" fill-opacity="1" /><path clip-path="url(#clip870)" d="M123.006 697.407 L127.89 697.407 L127.89 703.286 L123.006 703.286 L123.006 697.407 Z" fill="#000000" fill-rule="nonzero" fill-opacity="1" /><path clip-path="url(#clip870)" d="M142.103 699.351 L158.422 699.351 L158.422 703.286 L136.478 703.286 L136.478 699.351 Q139.14 696.597 143.723 691.967 Q148.33 687.314 149.51 685.972 Q151.755 683.448 152.635 681.712 Q153.538 679.953 153.538 678.263 Q153.538 675.509 151.593 673.773 Q149.672 672.036 146.57 672.036 Q144.371 672.036 141.918 672.8 Q139.487 673.564 136.709 675.115 L136.709 670.393 Q139.533 669.259 141.987 668.68 Q144.441 668.101 146.478 668.101 Q151.848 668.101 155.042 670.786 Q158.237 673.472 158.237 677.962 Q158.237 680.092 157.427 682.013 Q156.64 683.911 154.533 686.504 Q153.955 687.175 150.853 690.393 Q147.751 693.587 142.103 699.351 Z" fill="#000000" fill-rule="nonzero" fill-opacity="1" /><path clip-path="url(#clip870)" d="M100.76 504.747 Q97.1493 504.747 95.3206 508.312 Q93.515 511.854 93.515 518.983 Q93.515 526.09 95.3206 529.655 Q97.1493 533.196 100.76 533.196 Q104.395 533.196 106.2 529.655 Q108.029 526.09 108.029 518.983 Q108.029 511.854 106.2 508.312 Q104.395 504.747 100.76 504.747 M100.76 501.044 Q106.571 501.044 109.626 505.65 Q112.705 510.233 112.705 518.983 Q112.705 527.71 109.626 532.317 Q106.571 536.9 100.76 536.9 Q94.9502 536.9 91.8715 532.317 Q88.816 527.71 88.816 518.983 Q88.816 510.233 91.8715 505.65 Q94.9502 501.044 100.76 501.044 Z" fill="#000000" fill-rule="nonzero" fill-opacity="1" /><path clip-path="url(#clip870)" d="M120.922 530.349 L125.807 530.349 L125.807 536.229 L120.922 536.229 L120.922 530.349 Z" fill="#000000" fill-rule="nonzero" fill-opacity="1" /><path clip-path="url(#clip870)" d="M148.839 505.743 L137.033 524.192 L148.839 524.192 L148.839 505.743 M147.612 501.669 L153.492 501.669 L153.492 524.192 L158.422 524.192 L158.422 528.081 L153.492 528.081 L153.492 536.229 L148.839 536.229 L148.839 528.081 L133.237 528.081 L133.237 523.567 L147.612 501.669 Z" fill="#000000" fill-rule="nonzero" fill-opacity="1" /><path clip-path="url(#clip870)" d="M101.084 337.69 Q97.4734 337.69 95.6447 341.254 Q93.8391 344.796 93.8391 351.926 Q93.8391 359.032 95.6447 362.597 Q97.4734 366.139 101.084 366.139 Q104.719 366.139 106.524 362.597 Q108.353 359.032 108.353 351.926 Q108.353 344.796 106.524 341.254 Q104.719 337.69 101.084 337.69 M101.084 333.986 Q106.895 333.986 109.95 338.592 Q113.029 343.176 113.029 351.926 Q113.029 360.653 109.95 365.259 Q106.895 369.842 101.084 369.842 Q95.2743 369.842 92.1956 365.259 Q89.1401 360.653 89.1401 351.926 Q89.1401 343.176 92.1956 338.592 Q95.2743 333.986 101.084 333.986 Z" fill="#000000" fill-rule="nonzero" fill-opacity="1" /><path clip-path="url(#clip870)" d="M121.246 363.291 L126.131 363.291 L126.131 369.171 L121.246 369.171 L121.246 363.291 Z" fill="#000000" fill-rule="nonzero" fill-opacity="1" /><path clip-path="url(#clip870)" d="M146.894 350.028 Q143.746 350.028 141.894 352.18 Q140.066 354.333 140.066 358.083 Q140.066 361.81 141.894 363.986 Q143.746 366.139 146.894 366.139 Q150.043 366.139 151.871 363.986 Q153.723 361.81 153.723 358.083 Q153.723 354.333 151.871 352.18 Q150.043 350.028 146.894 350.028 M156.177 335.375 L156.177 339.634 Q154.417 338.801 152.612 338.361 Q150.83 337.921 149.07 337.921 Q144.441 337.921 141.987 341.046 Q139.556 344.171 139.209 350.491 Q140.575 348.477 142.635 347.412 Q144.695 346.324 147.172 346.324 Q152.38 346.324 155.39 349.495 Q158.422 352.643 158.422 358.083 Q158.422 363.407 155.274 366.625 Q152.126 369.842 146.894 369.842 Q140.899 369.842 137.728 365.259 Q134.556 360.653 134.556 351.926 Q134.556 343.731 138.445 338.87 Q142.334 333.986 148.885 333.986 Q150.644 333.986 152.427 334.333 Q154.232 334.68 156.177 335.375 Z" fill="#000000" fill-rule="nonzero" fill-opacity="1" /><path clip-path="url(#clip870)" d="M101.339 170.632 Q97.728 170.632 95.8993 174.197 Q94.0937 177.738 94.0937 184.868 Q94.0937 191.975 95.8993 195.539 Q97.728 199.081 101.339 199.081 Q104.973 199.081 106.779 195.539 Q108.608 191.975 108.608 184.868 Q108.608 177.738 106.779 174.197 Q104.973 170.632 101.339 170.632 M101.339 166.928 Q107.149 166.928 110.205 171.535 Q113.283 176.118 113.283 184.868 Q113.283 193.595 110.205 198.201 Q107.149 202.785 101.339 202.785 Q95.5289 202.785 92.4502 198.201 Q89.3947 193.595 89.3947 184.868 Q89.3947 176.118 92.4502 171.535 Q95.5289 166.928 101.339 166.928 Z" fill="#000000" fill-rule="nonzero" fill-opacity="1" /><path clip-path="url(#clip870)" d="M121.501 196.234 L126.385 196.234 L126.385 202.113 L121.501 202.113 L121.501 196.234 Z" fill="#000000" fill-rule="nonzero" fill-opacity="1" /><path clip-path="url(#clip870)" d="M146.57 185.701 Q143.237 185.701 141.316 187.484 Q139.418 189.266 139.418 192.391 Q139.418 195.516 141.316 197.299 Q143.237 199.081 146.57 199.081 Q149.904 199.081 151.825 197.299 Q153.746 195.493 153.746 192.391 Q153.746 189.266 151.825 187.484 Q149.927 185.701 146.57 185.701 M141.894 183.711 Q138.885 182.97 137.195 180.91 Q135.529 178.85 135.529 175.887 Q135.529 171.743 138.469 169.336 Q141.431 166.928 146.57 166.928 Q151.732 166.928 154.672 169.336 Q157.612 171.743 157.612 175.887 Q157.612 178.85 155.922 180.91 Q154.255 182.97 151.269 183.711 Q154.649 184.498 156.524 186.789 Q158.422 189.081 158.422 192.391 Q158.422 197.414 155.343 200.099 Q152.288 202.785 146.57 202.785 Q140.853 202.785 137.774 200.099 Q134.719 197.414 134.719 192.391 Q134.719 189.081 136.617 186.789 Q138.515 184.498 141.894 183.711 M140.181 176.326 Q140.181 179.012 141.848 180.516 Q143.538 182.021 146.57 182.021 Q149.58 182.021 151.269 180.516 Q152.982 179.012 152.982 176.326 Q152.982 173.641 151.269 172.137 Q149.58 170.632 146.57 170.632 Q143.538 170.632 141.848 172.137 Q140.181 173.641 140.181 176.326 Z" fill="#000000" fill-rule="nonzero" fill-opacity="1" /><polyline clip-path="url(#clip872)" style="stroke:#009af9; stroke-linecap:round; stroke-linejoin:round; stroke-width:4; stroke-opacity:1; fill:none" points="221.561,647.298 233.012,782.234 244.463,861.527 255.914,812.424 267.365,890.007 278.815,1007.61 290.266,992.264 301.717,1063.46 313.168,1100.38 324.619,1212.85 336.07,1211.28 347.521,1139.97 358.972,1111.88 370.423,1105.79 381.874,1202.73 393.325,1263.15 404.776,1352.44 416.227,1283 427.678,1207.28 439.128,1220.07 450.579,1204.13 462.03,1172.62 473.481,1147.4 484.932,1072.45 496.383,1218.88 507.834,1190.23 519.285,1221.43 530.736,1002.83 542.187,1110.61 553.638,1027.88 565.089,889.388 576.54,793.965 587.991,641.351 599.442,654.687 610.892,664.907 622.343,667.854 633.794,527.389 645.245,419.309 656.696,314.143 668.147,339.824 679.598,485.655 691.049,461.194 702.5,374.218 713.951,234.76 725.402,304.654 736.853,372.451 748.304,499.896 759.755,676.105 771.205,761.359 782.656,856.959 794.107,827.365 805.558,989.551 817.009,1038.51 828.46,1035.32 839.911,1102.97 851.362,1029.84 862.813,1043.47 874.264,1009.16 885.715,1045.92 897.166,1191.95 908.617,1232.19 920.068,1261.94 931.519,1287.12 942.969,1199.98 954.42,1166.63 965.871,1211.38 977.322,1189.67 988.773,1032 1000.22,1090.38 1011.68,1147.63 1023.13,1083.72 1034.58,1219.04 1046.03,984.052 1057.48,933.438 1068.93,1063.07 1080.38,947.013 1091.83,1037 1103.28,1103 1114.73,1006.46 1126.18,1131.06 "/>
<polyline clip-path="url(#clip872)" style="stroke:#e26f46; stroke-linecap:round; stroke-linejoin:round; stroke-width:4; stroke-opacity:1; fill:none" points="221.561,585.199 233.012,724.839 244.463,795.783 255.914,752.808 267.365,828.506 278.815,953.629 290.266,948.592 301.717,1018.02 313.168,1049.76 324.619,1179.02 336.07,1174.86 347.521,1105.55 358.972,1073.34 370.423,1078.27 381.874,1181.19 393.325,1247.06 404.776,1345.96 416.227,1279.28 427.678,1203.59 439.128,1213.04 450.579,1210.2 462.03,1182.36 473.481,1164.67 484.932,1083.8 496.383,1220.71 507.834,1199.74 519.285,1247.18 530.736,1023.03 542.187,1144.25 553.638,1061.42 565.089,930.765 576.54,828.038 587.991,689.224 599.442,699.042 610.892,700.797 622.343,695.254 633.794,565.518 645.245,443.71 656.696,334.749 668.147,356.891 679.598,487.631 691.049,459.88 702.5,366.59 713.951,239.264 725.402,320.296 736.853,403.146 748.304,543.662 759.755,709.125 771.205,800.136 782.656,889.353 794.107,868.384 805.558,1025.59 817.009,1083.52 828.46,1079.47 839.911,1136.38 851.362,1057.69 862.813,1076.49 874.264,1028.27 885.715,1066.36 897.166,1215.68 908.617,1253.51 920.068,1279.66 931.519,1305.63 942.969,1216.44 954.42,1169.05 965.871,1216.18 977.322,1200.93 988.773,1033.51 1000.22,1097.95 1011.68,1152.08 1023.13,1078.76 1034.58,1223.53 1046.03,985.801 1057.48,931.624 1068.93,1057.69 1080.38,941.063 1091.83,1031.78 1103.28,1105.79 1114.73,1012.37 1126.18,1138 "/>
<polyline clip-path="url(#clip872)" style="stroke:#3da44d; stroke-linecap:round; stroke-linejoin:round; stroke-width:4; stroke-opacity:1; fill:none" points="221.561,776.156 233.012,911.41 244.463,927.9 255.914,858.359 267.365,984.27 278.815,1214.12 290.266,1049.32 301.717,1115.58 313.168,1068.59 324.619,1156.75 336.07,1114.92 347.521,1038.55 358.972,1130.77 370.423,954.618 381.874,1125.88 393.325,1296.31 404.776,1325.3 416.227,1301.62 427.678,1361.52 439.128,1364.68 450.579,1445.72 462.03,1281.87 473.481,1156.25 484.932,937.938 496.383,1160.23 507.834,1095.7 519.285,1276.54 530.736,955.488 542.187,924.119 553.638,848.612 565.089,858.114 576.54,635.891 587.991,402.733 599.442,328.125 610.892,263.12 622.343,354.888 633.794,258.807 645.245,330.36 656.696,264.755 668.147,87.9763 679.598,184.193 691.049,183.102 702.5,227.556 713.951,103.739 725.402,237.059 736.853,185.025 748.304,324.461 759.755,484.698 771.205,651.936 782.656,832.245 794.107,822.91 805.558,1180.21 817.009,1130.91 828.46,977.671 839.911,1215.12 851.362,1094.61 862.813,1160.11 874.264,1057.1 885.715,998.459 897.166,1167.71 908.617,1246.35 920.068,1242.15 931.519,1340.15 942.969,1222.21 954.42,1216.71 965.871,1204.17 977.322,1090.15 988.773,904.438 1000.22,1073.89 1011.68,1134.2 1023.13,1060.77 1034.58,1167.45 1046.03,972.556 1057.48,949.683 1068.93,1161.85 1080.38,1061.11 1091.83,1115.65 1103.28,1148.77 1114.73,951.212 1126.18,1061.61 "/>
<path clip-path="url(#clip870)" d="M663.805 302.578 L1121.36 302.578 L1121.36 95.2176 L663.805 95.2176  Z" fill="#ffffff" fill-rule="evenodd" fill-opacity="1"/>
<polyline clip-path="url(#clip870)" style="stroke:#000000; stroke-linecap:round; stroke-linejoin:round; stroke-width:4; stroke-opacity:1; fill:none" points="663.805,302.578 1121.36,302.578 1121.36,95.2176 663.805,95.2176 663.805,302.578 "/>
<polyline clip-path="url(#clip870)" style="stroke:#009af9; stroke-linecap:round; stroke-linejoin:round; stroke-width:4; stroke-opacity:1; fill:none" points="674.459,147.058 738.386,147.058 "/>
<path clip-path="url(#clip870)" d="M749.04 129.778 L753.716 129.778 L753.716 144.384 L769.226 129.778 L775.244 129.778 L758.091 145.889 L776.471 164.338 L770.314 164.338 L753.716 147.694 L753.716 164.338 L749.04 164.338 L749.04 129.778 Z" fill="#000000" fill-rule="nonzero" fill-opacity="1" /><path clip-path="url(#clip870)" d="M790.892 151.305 Q785.73 151.305 783.739 152.486 Q781.749 153.666 781.749 156.514 Q781.749 158.782 783.23 160.125 Q784.735 161.444 787.304 161.444 Q790.846 161.444 792.975 158.944 Q795.128 156.421 795.128 152.254 L795.128 151.305 L790.892 151.305 M799.387 149.546 L799.387 164.338 L795.128 164.338 L795.128 160.402 Q793.67 162.763 791.494 163.898 Q789.318 165.009 786.17 165.009 Q782.188 165.009 779.827 162.787 Q777.489 160.541 777.489 156.791 Q777.489 152.416 780.406 150.194 Q783.346 147.972 789.156 147.972 L795.128 147.972 L795.128 147.555 Q795.128 144.615 793.184 143.018 Q791.262 141.398 787.767 141.398 Q785.545 141.398 783.438 141.93 Q781.332 142.463 779.388 143.527 L779.388 139.592 Q781.725 138.69 783.925 138.25 Q786.124 137.787 788.207 137.787 Q793.832 137.787 796.61 140.703 Q799.387 143.62 799.387 149.546 Z" fill="#000000" fill-rule="nonzero" fill-opacity="1" /><path clip-path="url(#clip870)" d="M808.161 128.319 L812.42 128.319 L812.42 164.338 L808.161 164.338 L808.161 128.319 Z" fill="#000000" fill-rule="nonzero" fill-opacity="1" /><path clip-path="url(#clip870)" d="M841.517 143.389 Q843.114 140.518 845.336 139.153 Q847.558 137.787 850.568 137.787 Q854.619 137.787 856.818 140.634 Q859.017 143.458 859.017 148.689 L859.017 164.338 L854.734 164.338 L854.734 148.828 Q854.734 145.102 853.415 143.296 Q852.095 141.49 849.387 141.49 Q846.077 141.49 844.156 143.69 Q842.234 145.889 842.234 149.685 L842.234 164.338 L837.952 164.338 L837.952 148.828 Q837.952 145.078 836.633 143.296 Q835.313 141.49 832.559 141.49 Q829.295 141.49 827.373 143.713 Q825.452 145.912 825.452 149.685 L825.452 164.338 L821.17 164.338 L821.17 138.412 L825.452 138.412 L825.452 142.44 Q826.91 140.055 828.947 138.921 Q830.984 137.787 833.785 137.787 Q836.609 137.787 838.577 139.222 Q840.568 140.657 841.517 143.389 Z" fill="#000000" fill-rule="nonzero" fill-opacity="1" /><path clip-path="url(#clip870)" d="M879.294 151.305 Q874.132 151.305 872.142 152.486 Q870.151 153.666 870.151 156.514 Q870.151 158.782 871.632 160.125 Q873.137 161.444 875.706 161.444 Q879.248 161.444 881.378 158.944 Q883.531 156.421 883.531 152.254 L883.531 151.305 L879.294 151.305 M887.79 149.546 L887.79 164.338 L883.531 164.338 L883.531 160.402 Q882.072 162.763 879.896 163.898 Q877.72 165.009 874.572 165.009 Q870.591 165.009 868.23 162.787 Q865.892 160.541 865.892 156.791 Q865.892 152.416 868.808 150.194 Q871.748 147.972 877.558 147.972 L883.531 147.972 L883.531 147.555 Q883.531 144.615 881.586 143.018 Q879.665 141.398 876.169 141.398 Q873.947 141.398 871.841 141.93 Q869.734 142.463 867.79 143.527 L867.79 139.592 Q870.128 138.69 872.327 138.25 Q874.526 137.787 876.609 137.787 Q882.234 137.787 885.012 140.703 Q887.79 143.62 887.79 149.546 Z" fill="#000000" fill-rule="nonzero" fill-opacity="1" /><path clip-path="url(#clip870)" d="M918.114 148.689 L918.114 164.338 L913.854 164.338 L913.854 148.828 Q913.854 145.148 912.419 143.319 Q910.984 141.49 908.114 141.49 Q904.665 141.49 902.674 143.69 Q900.683 145.889 900.683 149.685 L900.683 164.338 L896.401 164.338 L896.401 138.412 L900.683 138.412 L900.683 142.44 Q902.211 140.102 904.271 138.944 Q906.354 137.787 909.063 137.787 Q913.53 137.787 915.822 140.565 Q918.114 143.319 918.114 148.689 Z" fill="#000000" fill-rule="nonzero" fill-opacity="1" /><path clip-path="url(#clip870)" d="M958.206 139.176 L958.206 143.203 Q956.4 142.277 954.456 141.815 Q952.512 141.352 950.428 141.352 Q947.257 141.352 945.66 142.324 Q944.086 143.296 944.086 145.24 Q944.086 146.722 945.22 147.578 Q946.354 148.412 949.78 149.176 L951.238 149.5 Q955.775 150.472 957.674 152.254 Q959.595 154.014 959.595 157.185 Q959.595 160.796 956.725 162.902 Q953.877 165.009 948.877 165.009 Q946.794 165.009 944.526 164.592 Q942.28 164.199 939.78 163.388 L939.78 158.99 Q942.141 160.217 944.433 160.842 Q946.725 161.444 948.97 161.444 Q951.979 161.444 953.6 160.426 Q955.22 159.384 955.22 157.509 Q955.22 155.773 954.039 154.847 Q952.882 153.921 948.924 153.064 L947.442 152.717 Q943.484 151.884 941.725 150.171 Q939.965 148.435 939.965 145.426 Q939.965 141.768 942.558 139.778 Q945.151 137.787 949.919 137.787 Q952.28 137.787 954.363 138.134 Q956.447 138.481 958.206 139.176 Z" fill="#000000" fill-rule="nonzero" fill-opacity="1" /><path clip-path="url(#clip870)" d="M986.562 143.389 Q988.16 140.518 990.382 139.153 Q992.604 137.787 995.613 137.787 Q999.664 137.787 1001.86 140.634 Q1004.06 143.458 1004.06 148.689 L1004.06 164.338 L999.78 164.338 L999.78 148.828 Q999.78 145.102 998.46 143.296 Q997.141 141.49 994.433 141.49 Q991.123 141.49 989.201 143.69 Q987.28 145.889 987.28 149.685 L987.28 164.338 L982.998 164.338 L982.998 148.828 Q982.998 145.078 981.678 143.296 Q980.359 141.49 977.604 141.49 Q974.34 141.49 972.419 143.713 Q970.498 145.912 970.498 149.685 L970.498 164.338 L966.215 164.338 L966.215 138.412 L970.498 138.412 L970.498 142.44 Q971.956 140.055 973.993 138.921 Q976.03 137.787 978.831 137.787 Q981.655 137.787 983.623 139.222 Q985.613 140.657 986.562 143.389 Z" fill="#000000" fill-rule="nonzero" fill-opacity="1" /><path clip-path="url(#clip870)" d="M1022.6 141.398 Q1019.18 141.398 1017.19 144.083 Q1015.2 146.745 1015.2 151.398 Q1015.2 156.051 1017.16 158.736 Q1019.15 161.398 1022.6 161.398 Q1026.01 161.398 1028 158.713 Q1029.99 156.027 1029.99 151.398 Q1029.99 146.791 1028 144.106 Q1026.01 141.398 1022.6 141.398 M1022.6 137.787 Q1028.16 137.787 1031.33 141.398 Q1034.5 145.009 1034.5 151.398 Q1034.5 157.764 1031.33 161.398 Q1028.16 165.009 1022.6 165.009 Q1017.03 165.009 1013.85 161.398 Q1010.71 157.764 1010.71 151.398 Q1010.71 145.009 1013.85 141.398 Q1017.03 137.787 1022.6 137.787 Z" fill="#000000" fill-rule="nonzero" fill-opacity="1" /><path clip-path="url(#clip870)" d="M1051.61 141.398 Q1048.18 141.398 1046.19 144.083 Q1044.2 146.745 1044.2 151.398 Q1044.2 156.051 1046.17 158.736 Q1048.16 161.398 1051.61 161.398 Q1055.01 161.398 1057 158.713 Q1058.99 156.027 1058.99 151.398 Q1058.99 146.791 1057 144.106 Q1055.01 141.398 1051.61 141.398 M1051.61 137.787 Q1057.16 137.787 1060.34 141.398 Q1063.51 145.009 1063.51 151.398 Q1063.51 157.764 1060.34 161.398 Q1057.16 165.009 1051.61 165.009 Q1046.03 165.009 1042.86 161.398 Q1039.71 157.764 1039.71 151.398 Q1039.71 145.009 1042.86 141.398 Q1046.03 137.787 1051.61 137.787 Z" fill="#000000" fill-rule="nonzero" fill-opacity="1" /><path clip-path="url(#clip870)" d="M1074.78 131.051 L1074.78 138.412 L1083.55 138.412 L1083.55 141.722 L1074.78 141.722 L1074.78 155.796 Q1074.78 158.967 1075.64 159.87 Q1076.52 160.773 1079.18 160.773 L1083.55 160.773 L1083.55 164.338 L1079.18 164.338 Q1074.25 164.338 1072.37 162.509 Q1070.5 160.657 1070.5 155.796 L1070.5 141.722 L1067.37 141.722 L1067.37 138.412 L1070.5 138.412 L1070.5 131.051 L1074.78 131.051 Z" fill="#000000" fill-rule="nonzero" fill-opacity="1" /><path clip-path="url(#clip870)" d="M1110.71 148.689 L1110.71 164.338 L1106.45 164.338 L1106.45 148.828 Q1106.45 145.148 1105.01 143.319 Q1103.58 141.49 1100.71 141.49 Q1097.26 141.49 1095.27 143.69 Q1093.27 145.889 1093.27 149.685 L1093.27 164.338 L1088.99 164.338 L1088.99 128.319 L1093.27 128.319 L1093.27 142.44 Q1094.8 140.102 1096.86 138.944 Q1098.95 137.787 1101.65 137.787 Q1106.12 137.787 1108.41 140.565 Q1110.71 143.319 1110.71 148.689 Z" fill="#000000" fill-rule="nonzero" fill-opacity="1" /><polyline clip-path="url(#clip870)" style="stroke:#e26f46; stroke-linecap:round; stroke-linejoin:round; stroke-width:4; stroke-opacity:1; fill:none" points="674.459,198.898 738.386,198.898 "/>
<path clip-path="url(#clip870)" d="M753.323 212.289 L753.323 226.039 L749.04 226.039 L749.04 190.252 L753.323 190.252 L753.323 194.187 Q754.665 191.872 756.702 190.761 Q758.763 189.627 761.61 189.627 Q766.332 189.627 769.272 193.377 Q772.235 197.127 772.235 203.238 Q772.235 209.349 769.272 213.099 Q766.332 216.849 761.61 216.849 Q758.763 216.849 756.702 215.738 Q754.665 214.603 753.323 212.289 M767.814 203.238 Q767.814 198.539 765.869 195.877 Q763.948 193.192 760.568 193.192 Q757.189 193.192 755.244 195.877 Q753.323 198.539 753.323 203.238 Q753.323 207.937 755.244 210.622 Q757.189 213.284 760.568 213.284 Q763.948 213.284 765.869 210.622 Q767.814 207.937 767.814 203.238 Z" fill="#000000" fill-rule="nonzero" fill-opacity="1" /><path clip-path="url(#clip870)" d="M792.42 180.159 L792.42 183.701 L788.346 183.701 Q786.054 183.701 785.151 184.627 Q784.272 185.553 784.272 187.96 L784.272 190.252 L791.286 190.252 L791.286 193.562 L784.272 193.562 L784.272 216.178 L779.989 216.178 L779.989 193.562 L775.915 193.562 L775.915 190.252 L779.989 190.252 L779.989 188.446 Q779.989 184.118 782.003 182.15 Q784.017 180.159 788.392 180.159 L792.42 180.159 Z" fill="#000000" fill-rule="nonzero" fill-opacity="1" /><path clip-path="url(#clip870)" d="M827.582 191.016 L827.582 195.043 Q825.776 194.117 823.832 193.655 Q821.887 193.192 819.804 193.192 Q816.633 193.192 815.036 194.164 Q813.461 195.136 813.461 197.08 Q813.461 198.562 814.596 199.418 Q815.73 200.252 819.156 201.016 L820.614 201.34 Q825.151 202.312 827.049 204.094 Q828.971 205.854 828.971 209.025 Q828.971 212.636 826.1 214.742 Q823.253 216.849 818.253 216.849 Q816.17 216.849 813.901 216.432 Q811.656 216.039 809.156 215.228 L809.156 210.83 Q811.517 212.057 813.809 212.682 Q816.1 213.284 818.346 213.284 Q821.355 213.284 822.975 212.266 Q824.596 211.224 824.596 209.349 Q824.596 207.613 823.415 206.687 Q822.258 205.761 818.299 204.904 L816.818 204.557 Q812.86 203.724 811.1 202.011 Q809.341 200.275 809.341 197.266 Q809.341 193.608 811.934 191.618 Q814.526 189.627 819.295 189.627 Q821.656 189.627 823.739 189.974 Q825.822 190.321 827.582 191.016 Z" fill="#000000" fill-rule="nonzero" fill-opacity="1" /><path clip-path="url(#clip870)" d="M855.938 195.229 Q857.535 192.358 859.757 190.993 Q861.98 189.627 864.989 189.627 Q869.04 189.627 871.239 192.474 Q873.438 195.298 873.438 200.529 L873.438 216.178 L869.156 216.178 L869.156 200.668 Q869.156 196.942 867.836 195.136 Q866.517 193.33 863.808 193.33 Q860.498 193.33 858.577 195.53 Q856.656 197.729 856.656 201.525 L856.656 216.178 L852.373 216.178 L852.373 200.668 Q852.373 196.918 851.054 195.136 Q849.734 193.33 846.98 193.33 Q843.716 193.33 841.795 195.553 Q839.873 197.752 839.873 201.525 L839.873 216.178 L835.591 216.178 L835.591 190.252 L839.873 190.252 L839.873 194.28 Q841.332 191.895 843.369 190.761 Q845.406 189.627 848.207 189.627 Q851.031 189.627 852.998 191.062 Q854.989 192.497 855.938 195.229 Z" fill="#000000" fill-rule="nonzero" fill-opacity="1" /><path clip-path="url(#clip870)" d="M891.98 193.238 Q888.554 193.238 886.563 195.923 Q884.572 198.585 884.572 203.238 Q884.572 207.891 886.54 210.576 Q888.53 213.238 891.98 213.238 Q895.382 213.238 897.373 210.553 Q899.364 207.867 899.364 203.238 Q899.364 198.631 897.373 195.946 Q895.382 193.238 891.98 193.238 M891.98 189.627 Q897.535 189.627 900.706 193.238 Q903.878 196.849 903.878 203.238 Q903.878 209.604 900.706 213.238 Q897.535 216.849 891.98 216.849 Q886.401 216.849 883.23 213.238 Q880.081 209.604 880.081 203.238 Q880.081 196.849 883.23 193.238 Q886.401 189.627 891.98 189.627 Z" fill="#000000" fill-rule="nonzero" fill-opacity="1" /><path clip-path="url(#clip870)" d="M920.984 193.238 Q917.558 193.238 915.567 195.923 Q913.577 198.585 913.577 203.238 Q913.577 207.891 915.544 210.576 Q917.535 213.238 920.984 213.238 Q924.387 213.238 926.377 210.553 Q928.368 207.867 928.368 203.238 Q928.368 198.631 926.377 195.946 Q924.387 193.238 920.984 193.238 M920.984 189.627 Q926.54 189.627 929.711 193.238 Q932.882 196.849 932.882 203.238 Q932.882 209.604 929.711 213.238 Q926.54 216.849 920.984 216.849 Q915.405 216.849 912.234 213.238 Q909.086 209.604 909.086 203.238 Q909.086 196.849 912.234 193.238 Q915.405 189.627 920.984 189.627 Z" fill="#000000" fill-rule="nonzero" fill-opacity="1" /><path clip-path="url(#clip870)" d="M944.155 182.891 L944.155 190.252 L952.928 190.252 L952.928 193.562 L944.155 193.562 L944.155 207.636 Q944.155 210.807 945.012 211.71 Q945.891 212.613 948.553 212.613 L952.928 212.613 L952.928 216.178 L948.553 216.178 Q943.623 216.178 941.748 214.349 Q939.873 212.497 939.873 207.636 L939.873 193.562 L936.748 193.562 L936.748 190.252 L939.873 190.252 L939.873 182.891 L944.155 182.891 Z" fill="#000000" fill-rule="nonzero" fill-opacity="1" /><path clip-path="url(#clip870)" d="M980.081 200.529 L980.081 216.178 L975.822 216.178 L975.822 200.668 Q975.822 196.988 974.386 195.159 Q972.951 193.33 970.081 193.33 Q966.632 193.33 964.641 195.53 Q962.65 197.729 962.65 201.525 L962.65 216.178 L958.368 216.178 L958.368 180.159 L962.65 180.159 L962.65 194.28 Q964.178 191.942 966.238 190.784 Q968.322 189.627 971.03 189.627 Q975.498 189.627 977.789 192.405 Q980.081 195.159 980.081 200.529 Z" fill="#000000" fill-rule="nonzero" fill-opacity="1" /><polyline clip-path="url(#clip870)" style="stroke:#3da44d; stroke-linecap:round; stroke-linejoin:round; stroke-width:4; stroke-opacity:1; fill:none" points="674.459,250.738 738.386,250.738 "/>
<path clip-path="url(#clip870)" d="M756.448 234.731 L756.448 242.092 L765.221 242.092 L765.221 245.402 L756.448 245.402 L756.448 259.476 Q756.448 262.647 757.304 263.55 Q758.184 264.453 760.846 264.453 L765.221 264.453 L765.221 268.018 L760.846 268.018 Q755.915 268.018 754.04 266.189 Q752.165 264.337 752.165 259.476 L752.165 245.402 L749.04 245.402 L749.04 242.092 L752.165 242.092 L752.165 234.731 L756.448 234.731 Z" fill="#000000" fill-rule="nonzero" fill-opacity="1" /><path clip-path="url(#clip870)" d="M785.846 246.073 Q785.128 245.657 784.272 245.471 Q783.438 245.263 782.42 245.263 Q778.809 245.263 776.864 247.624 Q774.943 249.962 774.943 254.36 L774.943 268.018 L770.661 268.018 L770.661 242.092 L774.943 242.092 L774.943 246.12 Q776.286 243.758 778.438 242.624 Q780.591 241.467 783.67 241.467 Q784.11 241.467 784.642 241.536 Q785.175 241.583 785.823 241.698 L785.846 246.073 Z" fill="#000000" fill-rule="nonzero" fill-opacity="1" /><path clip-path="url(#clip870)" d="M789.874 257.786 L789.874 242.092 L794.133 242.092 L794.133 257.624 Q794.133 261.305 795.568 263.156 Q797.003 264.985 799.874 264.985 Q803.323 264.985 805.313 262.786 Q807.327 260.587 807.327 256.791 L807.327 242.092 L811.586 242.092 L811.586 268.018 L807.327 268.018 L807.327 264.036 Q805.776 266.397 803.716 267.555 Q801.679 268.689 798.971 268.689 Q794.503 268.689 792.188 265.911 Q789.874 263.133 789.874 257.786 M800.591 241.467 L800.591 241.467 Z" fill="#000000" fill-rule="nonzero" fill-opacity="1" /><path clip-path="url(#clip870)" d="M842.535 253.99 L842.535 256.073 L822.952 256.073 Q823.23 260.471 825.591 262.786 Q827.975 265.078 832.211 265.078 Q834.665 265.078 836.957 264.476 Q839.271 263.874 841.54 262.67 L841.54 266.698 Q839.248 267.67 836.841 268.18 Q834.434 268.689 831.957 268.689 Q825.753 268.689 822.119 265.078 Q818.508 261.467 818.508 255.309 Q818.508 248.944 821.934 245.217 Q825.383 241.467 831.216 241.467 Q836.447 241.467 839.48 244.846 Q842.535 248.203 842.535 253.99 M838.276 252.74 Q838.23 249.245 836.309 247.161 Q834.41 245.078 831.262 245.078 Q827.697 245.078 825.545 247.092 Q823.415 249.106 823.091 252.763 L838.276 252.74 Z" fill="#000000" fill-rule="nonzero" fill-opacity="1" /><path clip-path="url(#clip870)" d="M1393.85 1486.45 L2352.76 1486.45 L2352.76 47.2441 L1393.85 47.2441  Z" fill="#ffffff" fill-rule="evenodd" fill-opacity="1"/>
<defs>
  <clipPath id="clip873">
    <rect x="1393" y="47" width="960" height="1440"/>
  </clipPath>
</defs>
<polyline clip-path="url(#clip873)" style="stroke:#000000; stroke-linecap:round; stroke-linejoin:round; stroke-width:2; stroke-opacity:0.1; fill:none" points="1409.54,1486.45 1409.54,47.2441 "/>
<polyline clip-path="url(#clip873)" style="stroke:#000000; stroke-linecap:round; stroke-linejoin:round; stroke-width:2; stroke-opacity:0.1; fill:none" points="1638.56,1486.45 1638.56,47.2441 "/>
<polyline clip-path="url(#clip873)" style="stroke:#000000; stroke-linecap:round; stroke-linejoin:round; stroke-width:2; stroke-opacity:0.1; fill:none" points="1867.58,1486.45 1867.58,47.2441 "/>
<polyline clip-path="url(#clip873)" style="stroke:#000000; stroke-linecap:round; stroke-linejoin:round; stroke-width:2; stroke-opacity:0.1; fill:none" points="2096.6,1486.45 2096.6,47.2441 "/>
<polyline clip-path="url(#clip873)" style="stroke:#000000; stroke-linecap:round; stroke-linejoin:round; stroke-width:2; stroke-opacity:0.1; fill:none" points="2325.62,1486.45 2325.62,47.2441 "/>
<polyline clip-path="url(#clip873)" style="stroke:#000000; stroke-linecap:round; stroke-linejoin:round; stroke-width:2; stroke-opacity:0.1; fill:none" points="1393.85,1301.78 2352.76,1301.78 "/>
<polyline clip-path="url(#clip873)" style="stroke:#000000; stroke-linecap:round; stroke-linejoin:round; stroke-width:2; stroke-opacity:0.1; fill:none" points="1393.85,1019.12 2352.76,1019.12 "/>
<polyline clip-path="url(#clip873)" style="stroke:#000000; stroke-linecap:round; stroke-linejoin:round; stroke-width:2; stroke-opacity:0.1; fill:none" points="1393.85,736.458 2352.76,736.458 "/>
<polyline clip-path="url(#clip873)" style="stroke:#000000; stroke-linecap:round; stroke-linejoin:round; stroke-width:2; stroke-opacity:0.1; fill:none" points="1393.85,453.799 2352.76,453.799 "/>
<polyline clip-path="url(#clip873)" style="stroke:#000000; stroke-linecap:round; stroke-linejoin:round; stroke-width:2; stroke-opacity:0.1; fill:none" points="1393.85,171.139 2352.76,171.139 "/>
<polyline clip-path="url(#clip870)" style="stroke:#000000; stroke-linecap:round; stroke-linejoin:round; stroke-width:4; stroke-opacity:1; fill:none" points="1393.85,1486.45 2352.76,1486.45 "/>
<polyline clip-path="url(#clip870)" style="stroke:#000000; stroke-linecap:round; stroke-linejoin:round; stroke-width:4; stroke-opacity:1; fill:none" points="1409.54,1486.45 1409.54,1467.55 "/>
<polyline clip-path="url(#clip870)" style="stroke:#000000; stroke-linecap:round; stroke-linejoin:round; stroke-width:4; stroke-opacity:1; fill:none" points="1638.56,1486.45 1638.56,1467.55 "/>
<polyline clip-path="url(#clip870)" style="stroke:#000000; stroke-linecap:round; stroke-linejoin:round; stroke-width:4; stroke-opacity:1; fill:none" points="1867.58,1486.45 1867.58,1467.55 "/>
<polyline clip-path="url(#clip870)" style="stroke:#000000; stroke-linecap:round; stroke-linejoin:round; stroke-width:4; stroke-opacity:1; fill:none" points="2096.6,1486.45 2096.6,1467.55 "/>
<polyline clip-path="url(#clip870)" style="stroke:#000000; stroke-linecap:round; stroke-linejoin:round; stroke-width:4; stroke-opacity:1; fill:none" points="2325.62,1486.45 2325.62,1467.55 "/>
<path clip-path="url(#clip870)" d="M1409.54 1517.37 Q1405.93 1517.37 1404.1 1520.93 Q1402.3 1524.47 1402.3 1531.6 Q1402.3 1538.71 1404.1 1542.27 Q1405.93 1545.82 1409.54 1545.82 Q1413.18 1545.82 1414.98 1542.27 Q1416.81 1538.71 1416.81 1531.6 Q1416.81 1524.47 1414.98 1520.93 Q1413.18 1517.37 1409.54 1517.37 M1409.54 1513.66 Q1415.35 1513.66 1418.41 1518.27 Q1421.49 1522.85 1421.49 1531.6 Q1421.49 1540.33 1418.41 1544.94 Q1415.35 1549.52 1409.54 1549.52 Q1403.73 1549.52 1400.65 1544.94 Q1397.6 1540.33 1397.6 1531.6 Q1397.6 1522.85 1400.65 1518.27 Q1403.73 1513.66 1409.54 1513.66 Z" fill="#000000" fill-rule="nonzero" fill-opacity="1" /><path clip-path="url(#clip870)" d="M1617.33 1544.91 L1633.65 1544.91 L1633.65 1548.85 L1611.71 1548.85 L1611.71 1544.91 Q1614.37 1542.16 1618.95 1537.53 Q1623.56 1532.88 1624.74 1531.53 Q1626.99 1529.01 1627.87 1527.27 Q1628.77 1525.51 1628.77 1523.82 Q1628.77 1521.07 1626.83 1519.33 Q1624.9 1517.6 1621.8 1517.6 Q1619.6 1517.6 1617.15 1518.36 Q1614.72 1519.13 1611.94 1520.68 L1611.94 1515.95 Q1614.77 1514.82 1617.22 1514.24 Q1619.67 1513.66 1621.71 1513.66 Q1627.08 1513.66 1630.27 1516.35 Q1633.47 1519.03 1633.47 1523.52 Q1633.47 1525.65 1632.66 1527.57 Q1631.87 1529.47 1629.77 1532.07 Q1629.19 1532.74 1626.08 1535.95 Q1622.98 1539.15 1617.33 1544.91 Z" fill="#000000" fill-rule="nonzero" fill-opacity="1" /><path clip-path="url(#clip870)" d="M1653.47 1517.37 Q1649.86 1517.37 1648.03 1520.93 Q1646.22 1524.47 1646.22 1531.6 Q1646.22 1538.71 1648.03 1542.27 Q1649.86 1545.82 1653.47 1545.82 Q1657.1 1545.82 1658.91 1542.27 Q1660.74 1538.71 1660.74 1531.6 Q1660.74 1524.47 1658.91 1520.93 Q1657.1 1517.37 1653.47 1517.37 M1653.47 1513.66 Q1659.28 1513.66 1662.33 1518.27 Q1665.41 1522.85 1665.41 1531.6 Q1665.41 1540.33 1662.33 1544.94 Q1659.28 1549.52 1653.47 1549.52 Q1647.66 1549.52 1644.58 1544.94 Q1641.52 1540.33 1641.52 1531.6 Q1641.52 1522.85 1644.58 1518.27 Q1647.66 1513.66 1653.47 1513.66 Z" fill="#000000" fill-rule="nonzero" fill-opacity="1" /><path clip-path="url(#clip870)" d="M1855.75 1518.36 L1843.95 1536.81 L1855.75 1536.81 L1855.75 1518.36 M1854.52 1514.29 L1860.4 1514.29 L1860.4 1536.81 L1865.33 1536.81 L1865.33 1540.7 L1860.4 1540.7 L1860.4 1548.85 L1855.75 1548.85 L1855.75 1540.7 L1840.15 1540.7 L1840.15 1536.19 L1854.52 1514.29 Z" fill="#000000" fill-rule="nonzero" fill-opacity="1" /><path clip-path="url(#clip870)" d="M1883.07 1517.37 Q1879.45 1517.37 1877.63 1520.93 Q1875.82 1524.47 1875.82 1531.6 Q1875.82 1538.71 1877.63 1542.27 Q1879.45 1545.82 1883.07 1545.82 Q1886.7 1545.82 1888.51 1542.27 Q1890.33 1538.71 1890.33 1531.6 Q1890.33 1524.47 1888.51 1520.93 Q1886.7 1517.37 1883.07 1517.37 M1883.07 1513.66 Q1888.88 1513.66 1891.93 1518.27 Q1895.01 1522.85 1895.01 1531.6 Q1895.01 1540.33 1891.93 1544.94 Q1888.88 1549.52 1883.07 1549.52 Q1877.26 1549.52 1874.18 1544.94 Q1871.12 1540.33 1871.12 1531.6 Q1871.12 1522.85 1874.18 1518.27 Q1877.26 1513.66 1883.07 1513.66 Z" fill="#000000" fill-rule="nonzero" fill-opacity="1" /><path clip-path="url(#clip870)" d="M2082 1529.7 Q2078.86 1529.7 2077 1531.86 Q2075.18 1534.01 2075.18 1537.76 Q2075.18 1541.49 2077 1543.66 Q2078.86 1545.82 2082 1545.82 Q2085.15 1545.82 2086.98 1543.66 Q2088.83 1541.49 2088.83 1537.76 Q2088.83 1534.01 2086.98 1531.86 Q2085.15 1529.7 2082 1529.7 M2091.29 1515.05 L2091.29 1519.31 Q2089.53 1518.48 2087.72 1518.04 Q2085.94 1517.6 2084.18 1517.6 Q2079.55 1517.6 2077.1 1520.72 Q2074.67 1523.85 2074.32 1530.17 Q2075.68 1528.15 2077.74 1527.09 Q2079.8 1526 2082.28 1526 Q2087.49 1526 2090.5 1529.17 Q2093.53 1532.32 2093.53 1537.76 Q2093.53 1543.08 2090.38 1546.3 Q2087.24 1549.52 2082 1549.52 Q2076.01 1549.52 2072.84 1544.94 Q2069.67 1540.33 2069.67 1531.6 Q2069.67 1523.41 2073.55 1518.55 Q2077.44 1513.66 2083.99 1513.66 Q2085.75 1513.66 2087.54 1514.01 Q2089.34 1514.36 2091.29 1515.05 Z" fill="#000000" fill-rule="nonzero" fill-opacity="1" /><path clip-path="url(#clip870)" d="M2111.59 1517.37 Q2107.98 1517.37 2106.15 1520.93 Q2104.34 1524.47 2104.34 1531.6 Q2104.34 1538.71 2106.15 1542.27 Q2107.98 1545.82 2111.59 1545.82 Q2115.22 1545.82 2117.03 1542.27 Q2118.86 1538.71 2118.86 1531.6 Q2118.86 1524.47 2117.03 1520.93 Q2115.22 1517.37 2111.59 1517.37 M2111.59 1513.66 Q2117.4 1513.66 2120.45 1518.27 Q2123.53 1522.85 2123.53 1531.6 Q2123.53 1540.33 2120.45 1544.94 Q2117.4 1549.52 2111.59 1549.52 Q2105.78 1549.52 2102.7 1544.94 Q2099.64 1540.33 2099.64 1531.6 Q2099.64 1522.85 2102.7 1518.27 Q2105.78 1513.66 2111.59 1513.66 Z" fill="#000000" fill-rule="nonzero" fill-opacity="1" /><path clip-path="url(#clip870)" d="M2310.49 1532.44 Q2307.16 1532.44 2305.24 1534.22 Q2303.34 1536 2303.34 1539.13 Q2303.34 1542.25 2305.24 1544.03 Q2307.16 1545.82 2310.49 1545.82 Q2313.82 1545.82 2315.74 1544.03 Q2317.67 1542.23 2317.67 1539.13 Q2317.67 1536 2315.74 1534.22 Q2313.85 1532.44 2310.49 1532.44 M2305.81 1530.45 Q2302.8 1529.7 2301.12 1527.64 Q2299.45 1525.58 2299.45 1522.62 Q2299.45 1518.48 2302.39 1516.07 Q2305.35 1513.66 2310.49 1513.66 Q2315.65 1513.66 2318.59 1516.07 Q2321.53 1518.48 2321.53 1522.62 Q2321.53 1525.58 2319.84 1527.64 Q2318.18 1529.7 2315.19 1530.45 Q2318.57 1531.23 2320.44 1533.52 Q2322.34 1535.82 2322.34 1539.13 Q2322.34 1544.15 2319.26 1546.83 Q2316.21 1549.52 2310.49 1549.52 Q2304.77 1549.52 2301.69 1546.83 Q2298.64 1544.15 2298.64 1539.13 Q2298.64 1535.82 2300.54 1533.52 Q2302.43 1531.23 2305.81 1530.45 M2304.1 1523.06 Q2304.1 1525.75 2305.77 1527.25 Q2307.46 1528.76 2310.49 1528.76 Q2313.5 1528.76 2315.19 1527.25 Q2316.9 1525.75 2316.9 1523.06 Q2316.9 1520.38 2315.19 1518.87 Q2313.5 1517.37 2310.49 1517.37 Q2307.46 1517.37 2305.77 1518.87 Q2304.1 1520.38 2304.1 1523.06 Z" fill="#000000" fill-rule="nonzero" fill-opacity="1" /><path clip-path="url(#clip870)" d="M2340.65 1517.37 Q2337.04 1517.37 2335.21 1520.93 Q2333.41 1524.47 2333.41 1531.6 Q2333.41 1538.71 2335.21 1542.27 Q2337.04 1545.82 2340.65 1545.82 Q2344.29 1545.82 2346.09 1542.27 Q2347.92 1538.71 2347.92 1531.6 Q2347.92 1524.47 2346.09 1520.93 Q2344.29 1517.37 2340.65 1517.37 M2340.65 1513.66 Q2346.46 1513.66 2349.52 1518.27 Q2352.6 1522.85 2352.6 1531.6 Q2352.6 1540.33 2349.52 1544.94 Q2346.46 1549.52 2340.65 1549.52 Q2334.84 1549.52 2331.76 1544.94 Q2328.71 1540.33 2328.71 1531.6 Q2328.71 1522.85 2331.76 1518.27 Q2334.84 1513.66 2340.65 1513.66 Z" fill="#000000" fill-rule="nonzero" fill-opacity="1" /><polyline clip-path="url(#clip870)" style="stroke:#000000; stroke-linecap:round; stroke-linejoin:round; stroke-width:4; stroke-opacity:1; fill:none" points="1393.85,1486.45 1393.85,47.2441 "/>
<polyline clip-path="url(#clip870)" style="stroke:#000000; stroke-linecap:round; stroke-linejoin:round; stroke-width:4; stroke-opacity:1; fill:none" points="1393.85,1301.78 1412.75,1301.78 "/>
<polyline clip-path="url(#clip870)" style="stroke:#000000; stroke-linecap:round; stroke-linejoin:round; stroke-width:4; stroke-opacity:1; fill:none" points="1393.85,1019.12 1412.75,1019.12 "/>
<polyline clip-path="url(#clip870)" style="stroke:#000000; stroke-linecap:round; stroke-linejoin:round; stroke-width:4; stroke-opacity:1; fill:none" points="1393.85,736.458 1412.75,736.458 "/>
<polyline clip-path="url(#clip870)" style="stroke:#000000; stroke-linecap:round; stroke-linejoin:round; stroke-width:4; stroke-opacity:1; fill:none" points="1393.85,453.799 1412.75,453.799 "/>
<polyline clip-path="url(#clip870)" style="stroke:#000000; stroke-linecap:round; stroke-linejoin:round; stroke-width:4; stroke-opacity:1; fill:none" points="1393.85,171.139 1412.75,171.139 "/>
<path clip-path="url(#clip870)" d="M1251.56 1302.23 L1281.24 1302.23 L1281.24 1306.16 L1251.56 1306.16 L1251.56 1302.23 Z" fill="#000000" fill-rule="nonzero" fill-opacity="1" /><path clip-path="url(#clip870)" d="M1301.33 1287.58 Q1297.72 1287.58 1295.89 1291.14 Q1294.08 1294.68 1294.08 1301.81 Q1294.08 1308.92 1295.89 1312.48 Q1297.72 1316.02 1301.33 1316.02 Q1304.96 1316.02 1306.77 1312.48 Q1308.6 1308.92 1308.6 1301.81 Q1308.6 1294.68 1306.77 1291.14 Q1304.96 1287.58 1301.33 1287.58 M1301.33 1283.87 Q1307.14 1283.87 1310.19 1288.48 Q1313.27 1293.06 1313.27 1301.81 Q1313.27 1310.54 1310.19 1315.15 Q1307.14 1319.73 1301.33 1319.73 Q1295.52 1319.73 1292.44 1315.15 Q1289.38 1310.54 1289.38 1301.81 Q1289.38 1293.06 1292.44 1288.48 Q1295.52 1283.87 1301.33 1283.87 Z" fill="#000000" fill-rule="nonzero" fill-opacity="1" /><path clip-path="url(#clip870)" d="M1321.49 1313.18 L1326.37 1313.18 L1326.37 1319.06 L1321.49 1319.06 L1321.49 1313.18 Z" fill="#000000" fill-rule="nonzero" fill-opacity="1" /><path clip-path="url(#clip870)" d="M1350.73 1300.42 Q1354.08 1301.14 1355.96 1303.41 Q1357.85 1305.68 1357.85 1309.01 Q1357.85 1314.13 1354.34 1316.93 Q1350.82 1319.73 1344.34 1319.73 Q1342.16 1319.73 1339.85 1319.29 Q1337.55 1318.87 1335.1 1318.02 L1335.1 1313.5 Q1337.04 1314.64 1339.36 1315.21 Q1341.67 1315.79 1344.2 1315.79 Q1348.6 1315.79 1350.89 1314.06 Q1353.2 1312.32 1353.2 1309.01 Q1353.2 1305.96 1351.05 1304.24 Q1348.92 1302.51 1345.1 1302.51 L1341.07 1302.51 L1341.07 1298.66 L1345.29 1298.66 Q1348.73 1298.66 1350.56 1297.3 Q1352.39 1295.91 1352.39 1293.32 Q1352.39 1290.65 1350.49 1289.24 Q1348.62 1287.81 1345.1 1287.81 Q1343.18 1287.81 1340.98 1288.22 Q1338.78 1288.64 1336.14 1289.52 L1336.14 1285.35 Q1338.8 1284.61 1341.12 1284.24 Q1343.46 1283.87 1345.52 1283.87 Q1350.84 1283.87 1353.94 1286.3 Q1357.04 1288.71 1357.04 1292.83 Q1357.04 1295.7 1355.4 1297.69 Q1353.76 1299.66 1350.73 1300.42 Z" fill="#000000" fill-rule="nonzero" fill-opacity="1" /><path clip-path="url(#clip870)" d="M1300.68 1004.92 Q1297.07 1004.92 1295.24 1008.48 Q1293.43 1012.02 1293.43 1019.15 Q1293.43 1026.26 1295.24 1029.82 Q1297.07 1033.37 1300.68 1033.37 Q1304.31 1033.37 1306.12 1029.82 Q1307.95 1026.26 1307.95 1019.15 Q1307.95 1012.02 1306.12 1008.48 Q1304.31 1004.92 1300.68 1004.92 M1300.68 1001.21 Q1306.49 1001.21 1309.55 1005.82 Q1312.62 1010.4 1312.62 1019.15 Q1312.62 1027.88 1309.55 1032.49 Q1306.49 1037.07 1300.68 1037.07 Q1294.87 1037.07 1291.79 1032.49 Q1288.73 1027.88 1288.73 1019.15 Q1288.73 1010.4 1291.79 1005.82 Q1294.87 1001.21 1300.68 1001.21 Z" fill="#000000" fill-rule="nonzero" fill-opacity="1" /><path clip-path="url(#clip870)" d="M1320.84 1030.52 L1325.73 1030.52 L1325.73 1036.4 L1320.84 1036.4 L1320.84 1030.52 Z" fill="#000000" fill-rule="nonzero" fill-opacity="1" /><path clip-path="url(#clip870)" d="M1345.91 1004.92 Q1342.3 1004.92 1340.47 1008.48 Q1338.67 1012.02 1338.67 1019.15 Q1338.67 1026.26 1340.47 1029.82 Q1342.3 1033.37 1345.91 1033.37 Q1349.54 1033.37 1351.35 1029.82 Q1353.18 1026.26 1353.18 1019.15 Q1353.18 1012.02 1351.35 1008.48 Q1349.54 1004.92 1345.91 1004.92 M1345.91 1001.21 Q1351.72 1001.21 1354.78 1005.82 Q1357.85 1010.4 1357.85 1019.15 Q1357.85 1027.88 1354.78 1032.49 Q1351.72 1037.07 1345.91 1037.07 Q1340.1 1037.07 1337.02 1032.49 Q1333.97 1027.88 1333.97 1019.15 Q1333.97 1010.4 1337.02 1005.82 Q1340.1 1001.21 1345.91 1001.21 Z" fill="#000000" fill-rule="nonzero" fill-opacity="1" /><path clip-path="url(#clip870)" d="M1301.33 722.257 Q1297.72 722.257 1295.89 725.822 Q1294.08 729.363 1294.08 736.493 Q1294.08 743.599 1295.89 747.164 Q1297.72 750.706 1301.33 750.706 Q1304.96 750.706 1306.77 747.164 Q1308.6 743.599 1308.6 736.493 Q1308.6 729.363 1306.77 725.822 Q1304.96 722.257 1301.33 722.257 M1301.33 718.553 Q1307.14 718.553 1310.19 723.16 Q1313.27 727.743 1313.27 736.493 Q1313.27 745.22 1310.19 749.826 Q1307.14 754.41 1301.33 754.41 Q1295.52 754.41 1292.44 749.826 Q1289.38 745.22 1289.38 736.493 Q1289.38 727.743 1292.44 723.16 Q1295.52 718.553 1301.33 718.553 Z" fill="#000000" fill-rule="nonzero" fill-opacity="1" /><path clip-path="url(#clip870)" d="M1321.49 747.859 L1326.37 747.859 L1326.37 753.738 L1321.49 753.738 L1321.49 747.859 Z" fill="#000000" fill-rule="nonzero" fill-opacity="1" /><path clip-path="url(#clip870)" d="M1350.73 735.104 Q1354.08 735.822 1355.96 738.09 Q1357.85 740.359 1357.85 743.692 Q1357.85 748.808 1354.34 751.609 Q1350.82 754.41 1344.34 754.41 Q1342.16 754.41 1339.85 753.97 Q1337.55 753.553 1335.1 752.697 L1335.1 748.183 Q1337.04 749.317 1339.36 749.896 Q1341.67 750.474 1344.2 750.474 Q1348.6 750.474 1350.89 748.738 Q1353.2 747.002 1353.2 743.692 Q1353.2 740.636 1351.05 738.924 Q1348.92 737.187 1345.1 737.187 L1341.07 737.187 L1341.07 733.345 L1345.29 733.345 Q1348.73 733.345 1350.56 731.979 Q1352.39 730.59 1352.39 727.998 Q1352.39 725.336 1350.49 723.924 Q1348.62 722.488 1345.1 722.488 Q1343.18 722.488 1340.98 722.905 Q1338.78 723.322 1336.14 724.201 L1336.14 720.035 Q1338.8 719.294 1341.12 718.924 Q1343.46 718.553 1345.52 718.553 Q1350.84 718.553 1353.94 720.984 Q1357.04 723.391 1357.04 727.512 Q1357.04 730.382 1355.4 732.373 Q1353.76 734.34 1350.73 735.104 Z" fill="#000000" fill-rule="nonzero" fill-opacity="1" /><path clip-path="url(#clip870)" d="M1300.52 439.597 Q1296.91 439.597 1295.08 443.162 Q1293.27 446.704 1293.27 453.833 Q1293.27 460.94 1295.08 464.505 Q1296.91 468.046 1300.52 468.046 Q1304.15 468.046 1305.96 464.505 Q1307.79 460.94 1307.79 453.833 Q1307.79 446.704 1305.96 443.162 Q1304.15 439.597 1300.52 439.597 M1300.52 435.894 Q1306.33 435.894 1309.38 440.5 Q1312.46 445.084 1312.46 453.833 Q1312.46 462.56 1309.38 467.167 Q1306.33 471.75 1300.52 471.75 Q1294.71 471.75 1291.63 467.167 Q1288.57 462.56 1288.57 453.833 Q1288.57 445.084 1291.63 440.5 Q1294.71 435.894 1300.52 435.894 Z" fill="#000000" fill-rule="nonzero" fill-opacity="1" /><path clip-path="url(#clip870)" d="M1320.68 465.199 L1325.56 465.199 L1325.56 471.079 L1320.68 471.079 L1320.68 465.199 Z" fill="#000000" fill-rule="nonzero" fill-opacity="1" /><path clip-path="url(#clip870)" d="M1346.33 451.935 Q1343.18 451.935 1341.33 454.088 Q1339.5 456.241 1339.5 459.991 Q1339.5 463.718 1341.33 465.894 Q1343.18 468.046 1346.33 468.046 Q1349.48 468.046 1351.3 465.894 Q1353.16 463.718 1353.16 459.991 Q1353.16 456.241 1351.3 454.088 Q1349.48 451.935 1346.33 451.935 M1355.61 437.283 L1355.61 441.542 Q1353.85 440.709 1352.04 440.269 Q1350.26 439.829 1348.5 439.829 Q1343.87 439.829 1341.42 442.954 Q1338.99 446.079 1338.64 452.398 Q1340.01 450.384 1342.07 449.32 Q1344.13 448.232 1346.61 448.232 Q1351.81 448.232 1354.82 451.403 Q1357.85 454.551 1357.85 459.991 Q1357.85 465.315 1354.71 468.532 Q1351.56 471.75 1346.33 471.75 Q1340.33 471.75 1337.16 467.167 Q1333.99 462.56 1333.99 453.833 Q1333.99 445.639 1337.88 440.778 Q1341.77 435.894 1348.32 435.894 Q1350.08 435.894 1351.86 436.241 Q1353.67 436.588 1355.61 437.283 Z" fill="#000000" fill-rule="nonzero" fill-opacity="1" /><path clip-path="url(#clip870)" d="M1300.86 156.938 Q1297.25 156.938 1295.42 160.503 Q1293.62 164.044 1293.62 171.174 Q1293.62 178.28 1295.42 181.845 Q1297.25 185.387 1300.86 185.387 Q1304.5 185.387 1306.3 181.845 Q1308.13 178.28 1308.13 171.174 Q1308.13 164.044 1306.3 160.503 Q1304.5 156.938 1300.86 156.938 M1300.86 153.234 Q1306.67 153.234 1309.73 157.841 Q1312.81 162.424 1312.81 171.174 Q1312.81 179.901 1309.73 184.507 Q1306.67 189.091 1300.86 189.091 Q1295.05 189.091 1291.98 184.507 Q1288.92 179.901 1288.92 171.174 Q1288.92 162.424 1291.98 157.841 Q1295.05 153.234 1300.86 153.234 Z" fill="#000000" fill-rule="nonzero" fill-opacity="1" /><path clip-path="url(#clip870)" d="M1321.03 182.54 L1325.91 182.54 L1325.91 188.419 L1321.03 188.419 L1321.03 182.54 Z" fill="#000000" fill-rule="nonzero" fill-opacity="1" /><path clip-path="url(#clip870)" d="M1336.23 187.702 L1336.23 183.442 Q1337.99 184.276 1339.8 184.716 Q1341.61 185.155 1343.34 185.155 Q1347.97 185.155 1350.4 182.054 Q1352.86 178.929 1353.2 172.586 Q1351.86 174.577 1349.8 175.642 Q1347.74 176.706 1345.24 176.706 Q1340.05 176.706 1337.02 173.581 Q1334.01 170.433 1334.01 164.993 Q1334.01 159.669 1337.16 156.452 Q1340.31 153.234 1345.54 153.234 Q1351.54 153.234 1354.68 157.841 Q1357.85 162.424 1357.85 171.174 Q1357.85 179.345 1353.97 184.229 Q1350.1 189.091 1343.55 189.091 Q1341.79 189.091 1339.98 188.743 Q1338.18 188.396 1336.23 187.702 M1345.54 173.049 Q1348.69 173.049 1350.52 170.896 Q1352.37 168.743 1352.37 164.993 Q1352.37 161.267 1350.52 159.114 Q1348.69 156.938 1345.54 156.938 Q1342.39 156.938 1340.54 159.114 Q1338.71 161.267 1338.71 164.993 Q1338.71 168.743 1340.54 170.896 Q1342.39 173.049 1345.54 173.049 Z" fill="#000000" fill-rule="nonzero" fill-opacity="1" /><polyline clip-path="url(#clip873)" style="stroke:#009af9; stroke-linecap:round; stroke-linejoin:round; stroke-width:4; stroke-opacity:1; fill:none" points="1420.99,184.888 1432.44,213.395 1443.9,232.32 1455.35,256.199 1466.8,266.907 1478.25,318.819 1489.7,307.278 1501.15,316.107 1512.6,312.201 1524.05,359.091 1535.5,439.961 1546.95,467.836 1558.4,562.42 1569.86,594.132 1581.31,621.044 1592.76,632.475 1604.21,620.886 1615.66,697.702 1627.11,808.51 1638.56,915.383 1650.01,968.73 1661.46,1051.88 1672.91,1095.82 1684.37,1123.56 1695.82,1171 1707.27,1259.97 1718.72,1335.95 1730.17,1322.61 1741.62,1310.63 1753.07,1325.89 1764.52,1330.52 1775.97,1326.85 1787.42,1288.8 1798.87,1274.54 1810.33,1263.57 1821.78,1263.36 1833.23,1306.9 1844.68,1265.23 1856.13,1209.75 1867.58,1187.42 1879.03,1150.13 1890.48,1054.57 1901.93,948.141 1913.38,882.88 1924.83,758.877 1936.29,656.251 1947.74,538.21 1959.19,431.753 1970.64,429.459 1982.09,428.102 1993.54,464.078 2004.99,495.579 2016.44,577.228 2027.89,688.052 2039.34,718.258 2050.79,686.257 2062.25,734.528 2073.7,756.141 2085.15,717.476 2096.6,762.477 2108.05,811.027 2119.5,829.821 2130.95,899.089 2142.4,991.915 2153.85,1058.06 2165.3,1080.7 2176.76,1168.58 2188.21,1169.28 2199.66,1190.11 2211.11,1141.31 2222.56,1150.83 2234.01,1201.44 2245.46,1239.38 2256.91,1168.42 2268.36,1177.43 2279.81,1232.12 2291.26,1238.83 2302.72,1288.11 2314.17,1327.71 2325.62,1381.44 "/>
<polyline clip-path="url(#clip873)" style="stroke:#e26f46; stroke-linecap:round; stroke-linejoin:round; stroke-width:4; stroke-opacity:1; fill:none" points="1420.99,177.736 1432.44,187.855 1443.9,219.568 1455.35,239.716 1466.8,257.921 1478.25,306.89 1489.7,288.894 1501.15,304.675 1512.6,297.758 1524.05,350.753 1535.5,436.343 1546.95,453.634 1558.4,557.882 1569.86,584.7 1581.31,602.044 1592.76,610.394 1604.21,598.716 1615.66,665.535 1627.11,787.975 1638.56,894.471 1650.01,948.318 1661.46,1045.16 1672.91,1103.81 1684.37,1116.35 1695.82,1166.39 1707.27,1242.74 1718.72,1320.77 1730.17,1303.71 1741.62,1293.01 1753.07,1312.4 1764.52,1315.72 1775.97,1313.04 1787.42,1278.38 1798.87,1262.2 1810.33,1258.29 1821.78,1256.3 1833.23,1322.22 1844.68,1274.43 1856.13,1215.27 1867.58,1191.34 1879.03,1142.59 1890.48,1034.59 1901.93,919.438 1913.38,854.471 1924.83,732.569 1936.29,633.035 1947.74,510.44 1959.19,414.52 1970.64,422.568 1982.09,427.897 1993.54,474.381 2004.99,493.03 2016.44,565.974 2027.89,687.881 2039.34,722.096 2050.79,683.059 2062.25,737.558 2073.7,786.59 2085.15,729.956 2096.6,767.415 2108.05,806.593 2119.5,827.696 2130.95,878.856 2142.4,960.077 2153.85,1038.82 2165.3,1072.95 2176.76,1153.46 2188.21,1164.83 2199.66,1182.47 2211.11,1139.18 2222.56,1142.46 2234.01,1190.3 2245.46,1233.8 2256.91,1150 2268.36,1156.18 2279.81,1209.77 2291.26,1227.31 2302.72,1274.79 2314.17,1311.4 2325.62,1351.78 "/>
<polyline clip-path="url(#clip873)" style="stroke:#3da44d; stroke-linecap:round; stroke-linejoin:round; stroke-width:4; stroke-opacity:1; fill:none" points="1420.99,290.606 1432.44,235.014 1443.9,87.9763 1455.35,290.544 1466.8,356.375 1478.25,349.822 1489.7,159.644 1501.15,220.414 1512.6,350.296 1524.05,402.911 1535.5,483.018 1546.95,457.15 1558.4,616.575 1569.86,694.719 1581.31,492.829 1592.76,536.077 1604.21,496.421 1615.66,582.858 1627.11,675.342 1638.56,860.608 1650.01,978.716 1661.46,1119.03 1672.91,1102.83 1684.37,1242.53 1695.82,1310.42 1707.27,1297.88 1718.72,1440.58 1730.17,1444.2 1741.62,1445.72 1753.07,1410.46 1764.52,1431.27 1775.97,1278.21 1787.42,1419.8 1798.87,1401.2 1810.33,1364.08 1821.78,1206.83 1833.23,1227.11 1844.68,1205.36 1856.13,1167.1 1867.58,1211.9 1879.03,1186.17 1890.48,1000.5 1901.93,931.386 1913.38,980.974 1924.83,783.379 1936.29,748.349 1947.74,606.462 1959.19,466.572 1970.64,428.785 1982.09,500.52 1993.54,282.022 2004.99,375.615 2016.44,469.913 2027.89,545.7 2039.34,614.568 2050.79,565.223 2062.25,646.63 2073.7,722.572 2085.15,700.032 2096.6,817.927 2108.05,789.05 2119.5,777.225 2130.95,876.389 2142.4,942.843 2153.85,1132.41 2165.3,1124.94 2176.76,1141.68 2188.21,1149.11 2199.66,1376.88 2211.11,1196.88 2222.56,1113.05 2234.01,1121.78 2245.46,1149.24 2256.91,1069.41 2268.36,1205.16 2279.81,1211.63 2291.26,1195.87 2302.72,1192.1 2314.17,1256.56 2325.62,1344.04 "/>
<path clip-path="url(#clip870)" d="M1863.24 302.578 L2320.79 302.578 L2320.79 95.2176 L1863.24 95.2176  Z" fill="#ffffff" fill-rule="evenodd" fill-opacity="1"/>
<polyline clip-path="url(#clip870)" style="stroke:#000000; stroke-linecap:round; stroke-linejoin:round; stroke-width:4; stroke-opacity:1; fill:none" points="1863.24,302.578 2320.79,302.578 2320.79,95.2176 1863.24,95.2176 1863.24,302.578 "/>
<polyline clip-path="url(#clip870)" style="stroke:#009af9; stroke-linecap:round; stroke-linejoin:round; stroke-width:4; stroke-opacity:1; fill:none" points="1873.89,147.058 1937.82,147.058 "/>
<path clip-path="url(#clip870)" d="M1948.47 129.778 L1953.15 129.778 L1953.15 144.384 L1968.66 129.778 L1974.68 129.778 L1957.52 145.889 L1975.9 164.338 L1969.75 164.338 L1953.15 147.694 L1953.15 164.338 L1948.47 164.338 L1948.47 129.778 Z" fill="#000000" fill-rule="nonzero" fill-opacity="1" /><path clip-path="url(#clip870)" d="M1990.32 151.305 Q1985.16 151.305 1983.17 152.486 Q1981.18 153.666 1981.18 156.514 Q1981.18 158.782 1982.66 160.125 Q1984.17 161.444 1986.74 161.444 Q1990.28 161.444 1992.41 158.944 Q1994.56 156.421 1994.56 152.254 L1994.56 151.305 L1990.32 151.305 M1998.82 149.546 L1998.82 164.338 L1994.56 164.338 L1994.56 160.402 Q1993.1 162.763 1990.93 163.898 Q1988.75 165.009 1985.6 165.009 Q1981.62 165.009 1979.26 162.787 Q1976.92 160.541 1976.92 156.791 Q1976.92 152.416 1979.84 150.194 Q1982.78 147.972 1988.59 147.972 L1994.56 147.972 L1994.56 147.555 Q1994.56 144.615 1992.62 143.018 Q1990.7 141.398 1987.2 141.398 Q1984.98 141.398 1982.87 141.93 Q1980.76 142.463 1978.82 143.527 L1978.82 139.592 Q1981.16 138.69 1983.36 138.25 Q1985.56 137.787 1987.64 137.787 Q1993.26 137.787 1996.04 140.703 Q1998.82 143.62 1998.82 149.546 Z" fill="#000000" fill-rule="nonzero" fill-opacity="1" /><path clip-path="url(#clip870)" d="M2007.59 128.319 L2011.85 128.319 L2011.85 164.338 L2007.59 164.338 L2007.59 128.319 Z" fill="#000000" fill-rule="nonzero" fill-opacity="1" /><path clip-path="url(#clip870)" d="M2040.95 143.389 Q2042.55 140.518 2044.77 139.153 Q2046.99 137.787 2050 137.787 Q2054.05 137.787 2056.25 140.634 Q2058.45 143.458 2058.45 148.689 L2058.45 164.338 L2054.17 164.338 L2054.17 148.828 Q2054.17 145.102 2052.85 143.296 Q2051.53 141.49 2048.82 141.49 Q2045.51 141.49 2043.59 143.69 Q2041.67 145.889 2041.67 149.685 L2041.67 164.338 L2037.38 164.338 L2037.38 148.828 Q2037.38 145.078 2036.07 143.296 Q2034.75 141.49 2031.99 141.49 Q2028.73 141.49 2026.81 143.713 Q2024.88 145.912 2024.88 149.685 L2024.88 164.338 L2020.6 164.338 L2020.6 138.412 L2024.88 138.412 L2024.88 142.44 Q2026.34 140.055 2028.38 138.921 Q2030.42 137.787 2033.22 137.787 Q2036.04 137.787 2038.01 139.222 Q2040 140.657 2040.95 143.389 Z" fill="#000000" fill-rule="nonzero" fill-opacity="1" /><path clip-path="url(#clip870)" d="M2078.73 151.305 Q2073.57 151.305 2071.57 152.486 Q2069.58 153.666 2069.58 156.514 Q2069.58 158.782 2071.07 160.125 Q2072.57 161.444 2075.14 161.444 Q2078.68 161.444 2080.81 158.944 Q2082.96 156.421 2082.96 152.254 L2082.96 151.305 L2078.73 151.305 M2087.22 149.546 L2087.22 164.338 L2082.96 164.338 L2082.96 160.402 Q2081.51 162.763 2079.33 163.898 Q2077.15 165.009 2074.01 165.009 Q2070.02 165.009 2067.66 162.787 Q2065.32 160.541 2065.32 156.791 Q2065.32 152.416 2068.24 150.194 Q2071.18 147.972 2076.99 147.972 L2082.96 147.972 L2082.96 147.555 Q2082.96 144.615 2081.02 143.018 Q2079.1 141.398 2075.6 141.398 Q2073.38 141.398 2071.27 141.93 Q2069.17 142.463 2067.22 143.527 L2067.22 139.592 Q2069.56 138.69 2071.76 138.25 Q2073.96 137.787 2076.04 137.787 Q2081.67 137.787 2084.44 140.703 Q2087.22 143.62 2087.22 149.546 Z" fill="#000000" fill-rule="nonzero" fill-opacity="1" /><path clip-path="url(#clip870)" d="M2117.55 148.689 L2117.55 164.338 L2113.29 164.338 L2113.29 148.828 Q2113.29 145.148 2111.85 143.319 Q2110.42 141.49 2107.55 141.49 Q2104.1 141.49 2102.11 143.69 Q2100.12 145.889 2100.12 149.685 L2100.12 164.338 L2095.83 164.338 L2095.83 138.412 L2100.12 138.412 L2100.12 142.44 Q2101.64 140.102 2103.7 138.944 Q2105.79 137.787 2108.5 137.787 Q2112.96 137.787 2115.25 140.565 Q2117.55 143.319 2117.55 148.689 Z" fill="#000000" fill-rule="nonzero" fill-opacity="1" /><path clip-path="url(#clip870)" d="M2157.64 139.176 L2157.64 143.203 Q2155.83 142.277 2153.89 141.815 Q2151.94 141.352 2149.86 141.352 Q2146.69 141.352 2145.09 142.324 Q2143.52 143.296 2143.52 145.24 Q2143.52 146.722 2144.65 147.578 Q2145.79 148.412 2149.21 149.176 L2150.67 149.5 Q2155.21 150.472 2157.11 152.254 Q2159.03 154.014 2159.03 157.185 Q2159.03 160.796 2156.16 162.902 Q2153.31 165.009 2148.31 165.009 Q2146.23 165.009 2143.96 164.592 Q2141.71 164.199 2139.21 163.388 L2139.21 158.99 Q2141.57 160.217 2143.87 160.842 Q2146.16 161.444 2148.4 161.444 Q2151.41 161.444 2153.03 160.426 Q2154.65 159.384 2154.65 157.509 Q2154.65 155.773 2153.47 154.847 Q2152.31 153.921 2148.36 153.064 L2146.88 152.717 Q2142.92 151.884 2141.16 150.171 Q2139.4 148.435 2139.4 145.426 Q2139.4 141.768 2141.99 139.778 Q2144.58 137.787 2149.35 137.787 Q2151.71 137.787 2153.8 138.134 Q2155.88 138.481 2157.64 139.176 Z" fill="#000000" fill-rule="nonzero" fill-opacity="1" /><path clip-path="url(#clip870)" d="M2186 143.389 Q2187.59 140.518 2189.81 139.153 Q2192.04 137.787 2195.05 137.787 Q2199.1 137.787 2201.3 140.634 Q2203.5 143.458 2203.5 148.689 L2203.5 164.338 L2199.21 164.338 L2199.21 148.828 Q2199.21 145.102 2197.89 143.296 Q2196.57 141.49 2193.87 141.49 Q2190.56 141.49 2188.63 143.69 Q2186.71 145.889 2186.71 149.685 L2186.71 164.338 L2182.43 164.338 L2182.43 148.828 Q2182.43 145.078 2181.11 143.296 Q2179.79 141.49 2177.04 141.49 Q2173.77 141.49 2171.85 143.713 Q2169.93 145.912 2169.93 149.685 L2169.93 164.338 L2165.65 164.338 L2165.65 138.412 L2169.93 138.412 L2169.93 142.44 Q2171.39 140.055 2173.43 138.921 Q2175.46 137.787 2178.26 137.787 Q2181.09 137.787 2183.06 139.222 Q2185.05 140.657 2186 143.389 Z" fill="#000000" fill-rule="nonzero" fill-opacity="1" /><path clip-path="url(#clip870)" d="M2222.04 141.398 Q2218.61 141.398 2216.62 144.083 Q2214.63 146.745 2214.63 151.398 Q2214.63 156.051 2216.6 158.736 Q2218.59 161.398 2222.04 161.398 Q2225.44 161.398 2227.43 158.713 Q2229.42 156.027 2229.42 151.398 Q2229.42 146.791 2227.43 144.106 Q2225.44 141.398 2222.04 141.398 M2222.04 137.787 Q2227.59 137.787 2230.76 141.398 Q2233.93 145.009 2233.93 151.398 Q2233.93 157.764 2230.76 161.398 Q2227.59 165.009 2222.04 165.009 Q2216.46 165.009 2213.29 161.398 Q2210.14 157.764 2210.14 151.398 Q2210.14 145.009 2213.29 141.398 Q2216.46 137.787 2222.04 137.787 Z" fill="#000000" fill-rule="nonzero" fill-opacity="1" /><path clip-path="url(#clip870)" d="M2251.04 141.398 Q2247.62 141.398 2245.62 144.083 Q2243.63 146.745 2243.63 151.398 Q2243.63 156.051 2245.6 158.736 Q2247.59 161.398 2251.04 161.398 Q2254.44 161.398 2256.43 158.713 Q2258.43 156.027 2258.43 151.398 Q2258.43 146.791 2256.43 144.106 Q2254.44 141.398 2251.04 141.398 M2251.04 137.787 Q2256.6 137.787 2259.77 141.398 Q2262.94 145.009 2262.94 151.398 Q2262.94 157.764 2259.77 161.398 Q2256.6 165.009 2251.04 165.009 Q2245.46 165.009 2242.29 161.398 Q2239.14 157.764 2239.14 151.398 Q2239.14 145.009 2242.29 141.398 Q2245.46 137.787 2251.04 137.787 Z" fill="#000000" fill-rule="nonzero" fill-opacity="1" /><path clip-path="url(#clip870)" d="M2274.21 131.051 L2274.21 138.412 L2282.99 138.412 L2282.99 141.722 L2274.21 141.722 L2274.21 155.796 Q2274.21 158.967 2275.07 159.87 Q2275.95 160.773 2278.61 160.773 L2282.99 160.773 L2282.99 164.338 L2278.61 164.338 Q2273.68 164.338 2271.8 162.509 Q2269.93 160.657 2269.93 155.796 L2269.93 141.722 L2266.8 141.722 L2266.8 138.412 L2269.93 138.412 L2269.93 131.051 L2274.21 131.051 Z" fill="#000000" fill-rule="nonzero" fill-opacity="1" /><path clip-path="url(#clip870)" d="M2310.14 148.689 L2310.14 164.338 L2305.88 164.338 L2305.88 148.828 Q2305.88 145.148 2304.44 143.319 Q2303.01 141.49 2300.14 141.49 Q2296.69 141.49 2294.7 143.69 Q2292.71 145.889 2292.71 149.685 L2292.71 164.338 L2288.43 164.338 L2288.43 128.319 L2292.71 128.319 L2292.71 142.44 Q2294.24 140.102 2296.3 138.944 Q2298.38 137.787 2301.09 137.787 Q2305.55 137.787 2307.85 140.565 Q2310.14 143.319 2310.14 148.689 Z" fill="#000000" fill-rule="nonzero" fill-opacity="1" /><polyline clip-path="url(#clip870)" style="stroke:#e26f46; stroke-linecap:round; stroke-linejoin:round; stroke-width:4; stroke-opacity:1; fill:none" points="1873.89,198.898 1937.82,198.898 "/>
<path clip-path="url(#clip870)" d="M1952.76 212.289 L1952.76 226.039 L1948.47 226.039 L1948.47 190.252 L1952.76 190.252 L1952.76 194.187 Q1954.1 191.872 1956.14 190.761 Q1958.2 189.627 1961.04 189.627 Q1965.76 189.627 1968.7 193.377 Q1971.67 197.127 1971.67 203.238 Q1971.67 209.349 1968.7 213.099 Q1965.76 216.849 1961.04 216.849 Q1958.2 216.849 1956.14 215.738 Q1954.1 214.603 1952.76 212.289 M1967.25 203.238 Q1967.25 198.539 1965.3 195.877 Q1963.38 193.192 1960 193.192 Q1956.62 193.192 1954.68 195.877 Q1952.76 198.539 1952.76 203.238 Q1952.76 207.937 1954.68 210.622 Q1956.62 213.284 1960 213.284 Q1963.38 213.284 1965.3 210.622 Q1967.25 207.937 1967.25 203.238 Z" fill="#000000" fill-rule="nonzero" fill-opacity="1" /><path clip-path="url(#clip870)" d="M1991.85 180.159 L1991.85 183.701 L1987.78 183.701 Q1985.49 183.701 1984.58 184.627 Q1983.7 185.553 1983.7 187.96 L1983.7 190.252 L1990.72 190.252 L1990.72 193.562 L1983.7 193.562 L1983.7 216.178 L1979.42 216.178 L1979.42 193.562 L1975.35 193.562 L1975.35 190.252 L1979.42 190.252 L1979.42 188.446 Q1979.42 184.118 1981.44 182.15 Q1983.45 180.159 1987.82 180.159 L1991.85 180.159 Z" fill="#000000" fill-rule="nonzero" fill-opacity="1" /><path clip-path="url(#clip870)" d="M2027.01 191.016 L2027.01 195.043 Q2025.21 194.117 2023.26 193.655 Q2021.32 193.192 2019.24 193.192 Q2016.07 193.192 2014.47 194.164 Q2012.89 195.136 2012.89 197.08 Q2012.89 198.562 2014.03 199.418 Q2015.16 200.252 2018.59 201.016 L2020.05 201.34 Q2024.58 202.312 2026.48 204.094 Q2028.4 205.854 2028.4 209.025 Q2028.4 212.636 2025.53 214.742 Q2022.69 216.849 2017.69 216.849 Q2015.6 216.849 2013.33 216.432 Q2011.09 216.039 2008.59 215.228 L2008.59 210.83 Q2010.95 212.057 2013.24 212.682 Q2015.53 213.284 2017.78 213.284 Q2020.79 213.284 2022.41 212.266 Q2024.03 211.224 2024.03 209.349 Q2024.03 207.613 2022.85 206.687 Q2021.69 205.761 2017.73 204.904 L2016.25 204.557 Q2012.29 203.724 2010.53 202.011 Q2008.77 200.275 2008.77 197.266 Q2008.77 193.608 2011.37 191.618 Q2013.96 189.627 2018.73 189.627 Q2021.09 189.627 2023.17 189.974 Q2025.26 190.321 2027.01 191.016 Z" fill="#000000" fill-rule="nonzero" fill-opacity="1" /><path clip-path="url(#clip870)" d="M2055.37 195.229 Q2056.97 192.358 2059.19 190.993 Q2061.41 189.627 2064.42 189.627 Q2068.47 189.627 2070.67 192.474 Q2072.87 195.298 2072.87 200.529 L2072.87 216.178 L2068.59 216.178 L2068.59 200.668 Q2068.59 196.942 2067.27 195.136 Q2065.95 193.33 2063.24 193.33 Q2059.93 193.33 2058.01 195.53 Q2056.09 197.729 2056.09 201.525 L2056.09 216.178 L2051.81 216.178 L2051.81 200.668 Q2051.81 196.918 2050.49 195.136 Q2049.17 193.33 2046.41 193.33 Q2043.15 193.33 2041.23 195.553 Q2039.31 197.752 2039.31 201.525 L2039.31 216.178 L2035.02 216.178 L2035.02 190.252 L2039.31 190.252 L2039.31 194.28 Q2040.76 191.895 2042.8 190.761 Q2044.84 189.627 2047.64 189.627 Q2050.46 189.627 2052.43 191.062 Q2054.42 192.497 2055.37 195.229 Z" fill="#000000" fill-rule="nonzero" fill-opacity="1" /><path clip-path="url(#clip870)" d="M2091.41 193.238 Q2087.99 193.238 2086 195.923 Q2084.01 198.585 2084.01 203.238 Q2084.01 207.891 2085.97 210.576 Q2087.96 213.238 2091.41 213.238 Q2094.82 213.238 2096.81 210.553 Q2098.8 207.867 2098.8 203.238 Q2098.8 198.631 2096.81 195.946 Q2094.82 193.238 2091.41 193.238 M2091.41 189.627 Q2096.97 189.627 2100.14 193.238 Q2103.31 196.849 2103.31 203.238 Q2103.31 209.604 2100.14 213.238 Q2096.97 216.849 2091.41 216.849 Q2085.83 216.849 2082.66 213.238 Q2079.51 209.604 2079.51 203.238 Q2079.51 196.849 2082.66 193.238 Q2085.83 189.627 2091.41 189.627 Z" fill="#000000" fill-rule="nonzero" fill-opacity="1" /><path clip-path="url(#clip870)" d="M2120.42 193.238 Q2116.99 193.238 2115 195.923 Q2113.01 198.585 2113.01 203.238 Q2113.01 207.891 2114.98 210.576 Q2116.97 213.238 2120.42 213.238 Q2123.82 213.238 2125.81 210.553 Q2127.8 207.867 2127.8 203.238 Q2127.8 198.631 2125.81 195.946 Q2123.82 193.238 2120.42 193.238 M2120.42 189.627 Q2125.97 189.627 2129.14 193.238 Q2132.31 196.849 2132.31 203.238 Q2132.31 209.604 2129.14 213.238 Q2125.97 216.849 2120.42 216.849 Q2114.84 216.849 2111.67 213.238 Q2108.52 209.604 2108.52 203.238 Q2108.52 196.849 2111.67 193.238 Q2114.84 189.627 2120.42 189.627 Z" fill="#000000" fill-rule="nonzero" fill-opacity="1" /><path clip-path="url(#clip870)" d="M2143.59 182.891 L2143.59 190.252 L2152.36 190.252 L2152.36 193.562 L2143.59 193.562 L2143.59 207.636 Q2143.59 210.807 2144.44 211.71 Q2145.32 212.613 2147.99 212.613 L2152.36 212.613 L2152.36 216.178 L2147.99 216.178 Q2143.06 216.178 2141.18 214.349 Q2139.31 212.497 2139.31 207.636 L2139.31 193.562 L2136.18 193.562 L2136.18 190.252 L2139.31 190.252 L2139.31 182.891 L2143.59 182.891 Z" fill="#000000" fill-rule="nonzero" fill-opacity="1" /><path clip-path="url(#clip870)" d="M2179.51 200.529 L2179.51 216.178 L2175.25 216.178 L2175.25 200.668 Q2175.25 196.988 2173.82 195.159 Q2172.38 193.33 2169.51 193.33 Q2166.06 193.33 2164.07 195.53 Q2162.08 197.729 2162.08 201.525 L2162.08 216.178 L2157.8 216.178 L2157.8 180.159 L2162.08 180.159 L2162.08 194.28 Q2163.61 191.942 2165.67 190.784 Q2167.75 189.627 2170.46 189.627 Q2174.93 189.627 2177.22 192.405 Q2179.51 195.159 2179.51 200.529 Z" fill="#000000" fill-rule="nonzero" fill-opacity="1" /><polyline clip-path="url(#clip870)" style="stroke:#3da44d; stroke-linecap:round; stroke-linejoin:round; stroke-width:4; stroke-opacity:1; fill:none" points="1873.89,250.738 1937.82,250.738 "/>
<path clip-path="url(#clip870)" d="M1955.88 234.731 L1955.88 242.092 L1964.65 242.092 L1964.65 245.402 L1955.88 245.402 L1955.88 259.476 Q1955.88 262.647 1956.74 263.55 Q1957.62 264.453 1960.28 264.453 L1964.65 264.453 L1964.65 268.018 L1960.28 268.018 Q1955.35 268.018 1953.47 266.189 Q1951.6 264.337 1951.6 259.476 L1951.6 245.402 L1948.47 245.402 L1948.47 242.092 L1951.6 242.092 L1951.6 234.731 L1955.88 234.731 Z" fill="#000000" fill-rule="nonzero" fill-opacity="1" /><path clip-path="url(#clip870)" d="M1985.28 246.073 Q1984.56 245.657 1983.7 245.471 Q1982.87 245.263 1981.85 245.263 Q1978.24 245.263 1976.3 247.624 Q1974.38 249.962 1974.38 254.36 L1974.38 268.018 L1970.09 268.018 L1970.09 242.092 L1974.38 242.092 L1974.38 246.12 Q1975.72 243.758 1977.87 242.624 Q1980.02 241.467 1983.1 241.467 Q1983.54 241.467 1984.08 241.536 Q1984.61 241.583 1985.26 241.698 L1985.28 246.073 Z" fill="#000000" fill-rule="nonzero" fill-opacity="1" /><path clip-path="url(#clip870)" d="M1989.31 257.786 L1989.31 242.092 L1993.57 242.092 L1993.57 257.624 Q1993.57 261.305 1995 263.156 Q1996.44 264.985 1999.31 264.985 Q2002.76 264.985 2004.75 262.786 Q2006.76 260.587 2006.76 256.791 L2006.76 242.092 L2011.02 242.092 L2011.02 268.018 L2006.76 268.018 L2006.76 264.036 Q2005.21 266.397 2003.15 267.555 Q2001.11 268.689 1998.4 268.689 Q1993.94 268.689 1991.62 265.911 Q1989.31 263.133 1989.31 257.786 M2000.02 241.467 L2000.02 241.467 Z" fill="#000000" fill-rule="nonzero" fill-opacity="1" /><path clip-path="url(#clip870)" d="M2041.97 253.99 L2041.97 256.073 L2022.38 256.073 Q2022.66 260.471 2025.02 262.786 Q2027.41 265.078 2031.64 265.078 Q2034.1 265.078 2036.39 264.476 Q2038.7 263.874 2040.97 262.67 L2040.97 266.698 Q2038.68 267.67 2036.27 268.18 Q2033.87 268.689 2031.39 268.689 Q2025.19 268.689 2021.55 265.078 Q2017.94 261.467 2017.94 255.309 Q2017.94 248.944 2021.37 245.217 Q2024.82 241.467 2030.65 241.467 Q2035.88 241.467 2038.91 244.846 Q2041.97 248.203 2041.97 253.99 M2037.71 252.74 Q2037.66 249.245 2035.74 247.161 Q2033.84 245.078 2030.7 245.078 Q2027.13 245.078 2024.98 247.092 Q2022.85 249.106 2022.52 252.763 L2037.71 252.74 Z" fill="#000000" fill-rule="nonzero" fill-opacity="1" /></svg>
