<?xml version="1.0" encoding="utf-8"?>
<svg xmlns="http://www.w3.org/2000/svg" xmlns:xlink="http://www.w3.org/1999/xlink" width="600" height="400" viewBox="0 0 2400 1600">
<defs>
  <clipPath id="clip750">
    <rect x="0" y="0" width="2400" height="1600"/>
  </clipPath>
</defs>
<path clip-path="url(#clip750)" d="M0 1600 L2400 1600 L2400 0 L0 0  Z" fill="#ffffff" fill-rule="evenodd" fill-opacity="1"/>
<defs>
  <clipPath id="clip751">
    <rect x="480" y="0" width="1681" height="1600"/>
  </clipPath>
</defs>
<path clip-path="url(#clip750)" d="M140.51 1486.45 L2352.76 1486.45 L2352.76 47.2441 L140.51 47.2441  Z" fill="#ffffff" fill-rule="evenodd" fill-opacity="1"/>
<defs>
  <clipPath id="clip752">
    <rect x="140" y="47" width="2213" height="1440"/>
  </clipPath>
</defs>
<polyline clip-path="url(#clip752)" style="stroke:#000000; stroke-linecap:round; stroke-linejoin:round; stroke-width:2; stroke-opacity:0.1; fill:none" points="352.397,1486.45 352.397,47.2441 "/>
<polyline clip-path="url(#clip752)" style="stroke:#000000; stroke-linecap:round; stroke-linejoin:round; stroke-width:2; stroke-opacity:0.1; fill:none" points="786.297,1486.45 786.297,47.2441 "/>
<polyline clip-path="url(#clip752)" style="stroke:#000000; stroke-linecap:round; stroke-linejoin:round; stroke-width:2; stroke-opacity:0.1; fill:none" points="1220.2,1486.45 1220.2,47.2441 "/>
<polyline clip-path="url(#clip752)" style="stroke:#000000; stroke-linecap:round; stroke-linejoin:round; stroke-width:2; stroke-opacity:0.1; fill:none" points="1654.1,1486.45 1654.1,47.2441 "/>
<polyline clip-path="url(#clip752)" style="stroke:#000000; stroke-linecap:round; stroke-linejoin:round; stroke-width:2; stroke-opacity:0.1; fill:none" points="2088,1486.45 2088,47.2441 "/>
<polyline clip-path="url(#clip752)" style="stroke:#000000; stroke-linecap:round; stroke-linejoin:round; stroke-width:2; stroke-opacity:0.1; fill:none" points="140.51,1180.02 2352.76,1180.02 "/>
<polyline clip-path="url(#clip752)" style="stroke:#000000; stroke-linecap:round; stroke-linejoin:round; stroke-width:2; stroke-opacity:0.1; fill:none" points="140.51,872.35 2352.76,872.35 "/>
<polyline clip-path="url(#clip752)" style="stroke:#000000; stroke-linecap:round; stroke-linejoin:round; stroke-width:2; stroke-opacity:0.1; fill:none" points="140.51,564.683 2352.76,564.683 "/>
<polyline clip-path="url(#clip752)" style="stroke:#000000; stroke-linecap:round; stroke-linejoin:round; stroke-width:2; stroke-opacity:0.1; fill:none" points="140.51,257.016 2352.76,257.016 "/>
<polyline clip-path="url(#clip750)" style="stroke:#000000; stroke-linecap:round; stroke-linejoin:round; stroke-width:4; stroke-opacity:1; fill:none" points="140.51,1486.45 2352.76,1486.45 "/>
<polyline clip-path="url(#clip750)" style="stroke:#000000; stroke-linecap:round; stroke-linejoin:round; stroke-width:4; stroke-opacity:1; fill:none" points="352.397,1486.45 352.397,1467.55 "/>
<polyline clip-path="url(#clip750)" style="stroke:#000000; stroke-linecap:round; stroke-linejoin:round; stroke-width:4; stroke-opacity:1; fill:none" points="786.297,1486.45 786.297,1467.55 "/>
<polyline clip-path="url(#clip750)" style="stroke:#000000; stroke-linecap:round; stroke-linejoin:round; stroke-width:4; stroke-opacity:1; fill:none" points="1220.2,1486.45 1220.2,1467.55 "/>
<polyline clip-path="url(#clip750)" style="stroke:#000000; stroke-linecap:round; stroke-linejoin:round; stroke-width:4; stroke-opacity:1; fill:none" points="1654.1,1486.45 1654.1,1467.55 "/>
<polyline clip-path="url(#clip750)" style="stroke:#000000; stroke-linecap:round; stroke-linejoin:round; stroke-width:4; stroke-opacity:1; fill:none" points="2088,1486.45 2088,1467.55 "/>
<path clip-path="url(#clip750)" d="M306.46 1532.02 L336.136 1532.02 L336.136 1535.95 L306.46 1535.95 L306.46 1532.02 Z" fill="#000000" fill-rule="nonzero" fill-opacity="1" /><path clip-path="url(#clip750)" d="M360.395 1530.21 Q363.751 1530.93 365.626 1533.2 Q367.524 1535.47 367.524 1538.8 Q367.524 1543.92 364.006 1546.72 Q360.487 1549.52 354.006 1549.52 Q351.83 1549.52 349.515 1549.08 Q347.223 1548.66 344.77 1547.81 L344.77 1543.29 Q346.714 1544.43 349.029 1545.01 Q351.344 1545.58 353.867 1545.58 Q358.265 1545.58 360.557 1543.85 Q362.872 1542.11 362.872 1538.8 Q362.872 1535.75 360.719 1534.03 Q358.589 1532.3 354.77 1532.3 L350.742 1532.3 L350.742 1528.45 L354.955 1528.45 Q358.404 1528.45 360.233 1527.09 Q362.061 1525.7 362.061 1523.11 Q362.061 1520.45 360.163 1519.03 Q358.288 1517.6 354.77 1517.6 Q352.848 1517.6 350.649 1518.01 Q348.45 1518.43 345.811 1519.31 L345.811 1515.14 Q348.473 1514.4 350.788 1514.03 Q353.126 1513.66 355.186 1513.66 Q360.51 1513.66 363.612 1516.09 Q366.714 1518.5 366.714 1522.62 Q366.714 1525.49 365.071 1527.48 Q363.427 1529.45 360.395 1530.21 Z" fill="#000000" fill-rule="nonzero" fill-opacity="1" /><path clip-path="url(#clip750)" d="M386.39 1517.37 Q382.779 1517.37 380.95 1520.93 Q379.145 1524.47 379.145 1531.6 Q379.145 1538.71 380.95 1542.27 Q382.779 1545.82 386.39 1545.82 Q390.024 1545.82 391.83 1542.27 Q393.658 1538.71 393.658 1531.6 Q393.658 1524.47 391.83 1520.93 Q390.024 1517.37 386.39 1517.37 M386.39 1513.66 Q392.2 1513.66 395.256 1518.27 Q398.334 1522.85 398.334 1531.6 Q398.334 1540.33 395.256 1544.94 Q392.2 1549.52 386.39 1549.52 Q380.58 1549.52 377.501 1544.94 Q374.446 1540.33 374.446 1531.6 Q374.446 1522.85 377.501 1518.27 Q380.58 1513.66 386.39 1513.66 Z" fill="#000000" fill-rule="nonzero" fill-opacity="1" /><path clip-path="url(#clip750)" d="M786.297 1517.37 Q782.686 1517.37 780.857 1520.93 Q779.051 1524.47 779.051 1531.6 Q779.051 1538.71 780.857 1542.27 Q782.686 1545.82 786.297 1545.82 Q789.931 1545.82 791.737 1542.27 Q793.565 1538.71 793.565 1531.6 Q793.565 1524.47 791.737 1520.93 Q789.931 1517.37 786.297 1517.37 M786.297 1513.66 Q792.107 1513.66 795.162 1518.27 Q798.241 1522.85 798.241 1531.6 Q798.241 1540.33 795.162 1544.94 Q792.107 1549.52 786.297 1549.52 Q780.487 1549.52 777.408 1544.94 Q774.352 1540.33 774.352 1531.6 Q774.352 1522.85 777.408 1518.27 Q780.487 1513.66 786.297 1513.66 Z" fill="#000000" fill-rule="nonzero" fill-opacity="1" /><path clip-path="url(#clip750)" d="M1209.04 1530.21 Q1212.4 1530.93 1214.27 1533.2 Q1216.17 1535.47 1216.17 1538.8 Q1216.17 1543.92 1212.65 1546.72 Q1209.13 1549.52 1202.65 1549.52 Q1200.47 1549.52 1198.16 1549.08 Q1195.87 1548.66 1193.41 1547.81 L1193.41 1543.29 Q1195.36 1544.43 1197.67 1545.01 Q1199.99 1545.58 1202.51 1545.58 Q1206.91 1545.58 1209.2 1543.85 Q1211.52 1542.11 1211.52 1538.8 Q1211.52 1535.75 1209.36 1534.03 Q1207.23 1532.3 1203.41 1532.3 L1199.39 1532.3 L1199.39 1528.45 L1203.6 1528.45 Q1207.05 1528.45 1208.88 1527.09 Q1210.71 1525.7 1210.71 1523.11 Q1210.71 1520.45 1208.81 1519.03 Q1206.93 1517.6 1203.41 1517.6 Q1201.49 1517.6 1199.29 1518.01 Q1197.09 1518.43 1194.46 1519.31 L1194.46 1515.14 Q1197.12 1514.4 1199.43 1514.03 Q1201.77 1513.66 1203.83 1513.66 Q1209.15 1513.66 1212.26 1516.09 Q1215.36 1518.5 1215.36 1522.62 Q1215.36 1525.49 1213.72 1527.48 Q1212.07 1529.45 1209.04 1530.21 Z" fill="#000000" fill-rule="nonzero" fill-opacity="1" /><path clip-path="url(#clip750)" d="M1235.03 1517.37 Q1231.42 1517.37 1229.59 1520.93 Q1227.79 1524.47 1227.79 1531.6 Q1227.79 1538.71 1229.59 1542.27 Q1231.42 1545.82 1235.03 1545.82 Q1238.67 1545.82 1240.47 1542.27 Q1242.3 1538.71 1242.3 1531.6 Q1242.3 1524.47 1240.47 1520.93 Q1238.67 1517.37 1235.03 1517.37 M1235.03 1513.66 Q1240.84 1513.66 1243.9 1518.27 Q1246.98 1522.85 1246.98 1531.6 Q1246.98 1540.33 1243.9 1544.94 Q1240.84 1549.52 1235.03 1549.52 Q1229.22 1549.52 1226.15 1544.94 Q1223.09 1540.33 1223.09 1531.6 Q1223.09 1522.85 1226.15 1518.27 Q1229.22 1513.66 1235.03 1513.66 Z" fill="#000000" fill-rule="nonzero" fill-opacity="1" /><path clip-path="url(#clip750)" d="M1639.5 1529.7 Q1636.35 1529.7 1634.5 1531.86 Q1632.67 1534.01 1632.67 1537.76 Q1632.67 1541.49 1634.5 1543.66 Q1636.35 1545.82 1639.5 1545.82 Q1642.65 1545.82 1644.48 1543.66 Q1646.33 1541.49 1646.33 1537.76 Q1646.33 1534.01 1644.48 1531.86 Q1642.65 1529.7 1639.5 1529.7 M1648.78 1515.05 L1648.78 1519.31 Q1647.02 1518.48 1645.22 1518.04 Q1643.44 1517.6 1641.68 1517.6 Q1637.05 1517.6 1634.59 1520.72 Q1632.16 1523.85 1631.82 1530.17 Q1633.18 1528.15 1635.24 1527.09 Q1637.3 1526 1639.78 1526 Q1644.99 1526 1648 1529.17 Q1651.03 1532.32 1651.03 1537.76 Q1651.03 1543.08 1647.88 1546.3 Q1644.73 1549.52 1639.5 1549.52 Q1633.51 1549.52 1630.33 1544.94 Q1627.16 1540.33 1627.16 1531.6 Q1627.16 1523.41 1631.05 1518.55 Q1634.94 1513.66 1641.49 1513.66 Q1643.25 1513.66 1645.03 1514.01 Q1646.84 1514.36 1648.78 1515.05 Z" fill="#000000" fill-rule="nonzero" fill-opacity="1" /><path clip-path="url(#clip750)" d="M1669.08 1517.37 Q1665.47 1517.37 1663.64 1520.93 Q1661.84 1524.47 1661.84 1531.6 Q1661.84 1538.71 1663.64 1542.27 Q1665.47 1545.82 1669.08 1545.82 Q1672.72 1545.82 1674.52 1542.27 Q1676.35 1538.71 1676.35 1531.6 Q1676.35 1524.47 1674.52 1520.93 Q1672.72 1517.37 1669.08 1517.37 M1669.08 1513.66 Q1674.89 1513.66 1677.95 1518.27 Q1681.03 1522.85 1681.03 1531.6 Q1681.03 1540.33 1677.95 1544.94 Q1674.89 1549.52 1669.08 1549.52 Q1663.27 1549.52 1660.2 1544.94 Q1657.14 1540.33 1657.14 1531.6 Q1657.14 1522.85 1660.2 1518.27 Q1663.27 1513.66 1669.08 1513.66 Z" fill="#000000" fill-rule="nonzero" fill-opacity="1" /><path clip-path="url(#clip750)" d="M2063.12 1548.13 L2063.12 1543.87 Q2064.88 1544.7 2066.69 1545.14 Q2068.49 1545.58 2070.23 1545.58 Q2074.86 1545.58 2077.29 1542.48 Q2079.74 1539.36 2080.09 1533.01 Q2078.75 1535.01 2076.69 1536.07 Q2074.63 1537.13 2072.13 1537.13 Q2066.94 1537.13 2063.91 1534.01 Q2060.9 1530.86 2060.9 1525.42 Q2060.9 1520.1 2064.05 1516.88 Q2067.2 1513.66 2072.43 1513.66 Q2078.42 1513.66 2081.57 1518.27 Q2084.74 1522.85 2084.74 1531.6 Q2084.74 1539.77 2080.85 1544.66 Q2076.99 1549.52 2070.44 1549.52 Q2068.68 1549.52 2066.87 1549.17 Q2065.07 1548.82 2063.12 1548.13 M2072.43 1533.48 Q2075.58 1533.48 2077.41 1531.32 Q2079.26 1529.17 2079.26 1525.42 Q2079.26 1521.7 2077.41 1519.54 Q2075.58 1517.37 2072.43 1517.37 Q2069.28 1517.37 2067.43 1519.54 Q2065.6 1521.7 2065.6 1525.42 Q2065.6 1529.17 2067.43 1531.32 Q2069.28 1533.48 2072.43 1533.48 Z" fill="#000000" fill-rule="nonzero" fill-opacity="1" /><path clip-path="url(#clip750)" d="M2103.15 1517.37 Q2099.54 1517.37 2097.71 1520.93 Q2095.9 1524.47 2095.9 1531.6 Q2095.9 1538.71 2097.71 1542.27 Q2099.54 1545.82 2103.15 1545.82 Q2106.78 1545.82 2108.59 1542.27 Q2110.41 1538.71 2110.41 1531.6 Q2110.41 1524.47 2108.59 1520.93 Q2106.78 1517.37 2103.15 1517.37 M2103.15 1513.66 Q2108.96 1513.66 2112.01 1518.27 Q2115.09 1522.85 2115.09 1531.6 Q2115.09 1540.33 2112.01 1544.94 Q2108.96 1549.52 2103.15 1549.52 Q2097.34 1549.52 2094.26 1544.94 Q2091.2 1540.33 2091.2 1531.6 Q2091.2 1522.85 2094.26 1518.27 Q2097.34 1513.66 2103.15 1513.66 Z" fill="#000000" fill-rule="nonzero" fill-opacity="1" /><polyline clip-path="url(#clip750)" style="stroke:#000000; stroke-linecap:round; stroke-linejoin:round; stroke-width:4; stroke-opacity:1; fill:none" points="140.51,1486.45 140.51,47.2441 "/>
<polyline clip-path="url(#clip750)" style="stroke:#000000; stroke-linecap:round; stroke-linejoin:round; stroke-width:4; stroke-opacity:1; fill:none" points="140.51,1180.02 159.408,1180.02 "/>
<polyline clip-path="url(#clip750)" style="stroke:#000000; stroke-linecap:round; stroke-linejoin:round; stroke-width:4; stroke-opacity:1; fill:none" points="140.51,872.35 159.408,872.35 "/>
<polyline clip-path="url(#clip750)" style="stroke:#000000; stroke-linecap:round; stroke-linejoin:round; stroke-width:4; stroke-opacity:1; fill:none" points="140.51,564.683 159.408,564.683 "/>
<polyline clip-path="url(#clip750)" style="stroke:#000000; stroke-linecap:round; stroke-linejoin:round; stroke-width:4; stroke-opacity:1; fill:none" points="140.51,257.016 159.408,257.016 "/>
<path clip-path="url(#clip750)" d="M92.566 1165.82 Q88.9549 1165.82 87.1262 1169.38 Q85.3206 1172.92 85.3206 1180.05 Q85.3206 1187.16 87.1262 1190.72 Q88.9549 1194.26 92.566 1194.26 Q96.2002 1194.26 98.0058 1190.72 Q99.8345 1187.16 99.8345 1180.05 Q99.8345 1172.92 98.0058 1169.38 Q96.2002 1165.82 92.566 1165.82 M92.566 1162.11 Q98.3761 1162.11 101.432 1166.72 Q104.51 1171.3 104.51 1180.05 Q104.51 1188.78 101.432 1193.38 Q98.3761 1197.97 92.566 1197.97 Q86.7558 1197.97 83.6771 1193.38 Q80.6216 1188.78 80.6216 1180.05 Q80.6216 1171.3 83.6771 1166.72 Q86.7558 1162.11 92.566 1162.11 Z" fill="#000000" fill-rule="nonzero" fill-opacity="1" /><path clip-path="url(#clip750)" d="M57.4273 885.695 L73.7466 885.695 L73.7466 889.63 L51.8023 889.63 L51.8023 885.695 Q54.4643 882.94 59.0476 878.311 Q63.6541 873.658 64.8346 872.315 Q67.08 869.792 67.9596 868.056 Q68.8624 866.297 68.8624 864.607 Q68.8624 861.852 66.918 860.116 Q64.9967 858.38 61.8948 858.38 Q59.6958 858.38 57.2421 859.144 Q54.8115 859.908 52.0338 861.459 L52.0338 856.737 Q54.8578 855.602 57.3115 855.024 Q59.7652 854.445 61.8023 854.445 Q67.1726 854.445 70.367 857.13 Q73.5614 859.815 73.5614 864.306 Q73.5614 866.436 72.7513 868.357 Q71.9642 870.255 69.8578 872.848 Q69.2791 873.519 66.1772 876.737 Q63.0754 879.931 57.4273 885.695 Z" fill="#000000" fill-rule="nonzero" fill-opacity="1" /><path clip-path="url(#clip750)" d="M83.6077 855.07 L101.964 855.07 L101.964 859.005 L87.8901 859.005 L87.8901 867.477 Q88.9086 867.13 89.9271 866.968 Q90.9456 866.783 91.9641 866.783 Q97.7511 866.783 101.131 869.954 Q104.51 873.126 104.51 878.542 Q104.51 884.121 101.038 887.223 Q97.566 890.301 91.2465 890.301 Q89.0706 890.301 86.8021 889.931 Q84.5568 889.561 82.1494 888.82 L82.1494 884.121 Q84.2327 885.255 86.4549 885.811 Q88.6771 886.366 91.1539 886.366 Q95.1586 886.366 97.4965 884.26 Q99.8345 882.153 99.8345 878.542 Q99.8345 874.931 97.4965 872.825 Q95.1586 870.718 91.1539 870.718 Q89.279 870.718 87.404 871.135 Q85.5521 871.551 83.6077 872.431 L83.6077 855.07 Z" fill="#000000" fill-rule="nonzero" fill-opacity="1" /><path clip-path="url(#clip750)" d="M52.4505 547.403 L70.8068 547.403 L70.8068 551.338 L56.7328 551.338 L56.7328 559.811 Q57.7513 559.463 58.7699 559.301 Q59.7884 559.116 60.8069 559.116 Q66.5939 559.116 69.9735 562.287 Q73.3531 565.459 73.3531 570.875 Q73.3531 576.454 69.8809 579.556 Q66.4087 582.635 60.0893 582.635 Q57.9134 582.635 55.6449 582.264 Q53.3995 581.894 50.9921 581.153 L50.9921 576.454 Q53.0754 577.588 55.2977 578.144 Q57.5199 578.699 59.9967 578.699 Q64.0013 578.699 66.3393 576.593 Q68.6772 574.486 68.6772 570.875 Q68.6772 567.264 66.3393 565.158 Q64.0013 563.051 59.9967 563.051 Q58.1217 563.051 56.2467 563.468 Q54.3949 563.885 52.4505 564.764 L52.4505 547.403 Z" fill="#000000" fill-rule="nonzero" fill-opacity="1" /><path clip-path="url(#clip750)" d="M92.566 550.482 Q88.9549 550.482 87.1262 554.047 Q85.3206 557.588 85.3206 564.718 Q85.3206 571.824 87.1262 575.389 Q88.9549 578.931 92.566 578.931 Q96.2002 578.931 98.0058 575.389 Q99.8345 571.824 99.8345 564.718 Q99.8345 557.588 98.0058 554.047 Q96.2002 550.482 92.566 550.482 M92.566 546.778 Q98.3761 546.778 101.432 551.385 Q104.51 555.968 104.51 564.718 Q104.51 573.445 101.432 578.051 Q98.3761 582.635 92.566 582.635 Q86.7558 582.635 83.6771 578.051 Q80.6216 573.445 80.6216 564.718 Q80.6216 555.968 83.6771 551.385 Q86.7558 546.778 92.566 546.778 Z" fill="#000000" fill-rule="nonzero" fill-opacity="1" /><path clip-path="url(#clip750)" d="M52.219 239.736 L74.4411 239.736 L74.4411 241.727 L61.8948 274.296 L57.0106 274.296 L68.8161 243.672 L52.219 243.672 L52.219 239.736 Z" fill="#000000" fill-rule="nonzero" fill-opacity="1" /><path clip-path="url(#clip750)" d="M83.6077 239.736 L101.964 239.736 L101.964 243.672 L87.8901 243.672 L87.8901 252.144 Q88.9086 251.797 89.9271 251.635 Q90.9456 251.449 91.9641 251.449 Q97.7511 251.449 101.131 254.621 Q104.51 257.792 104.51 263.209 Q104.51 268.787 101.038 271.889 Q97.566 274.968 91.2465 274.968 Q89.0706 274.968 86.8021 274.597 Q84.5568 274.227 82.1494 273.486 L82.1494 268.787 Q84.2327 269.921 86.4549 270.477 Q88.6771 271.033 91.1539 271.033 Q95.1586 271.033 97.4965 268.926 Q99.8345 266.82 99.8345 263.209 Q99.8345 259.597 97.4965 257.491 Q95.1586 255.385 91.1539 255.385 Q89.279 255.385 87.404 255.801 Q85.5521 256.218 83.6077 257.097 L83.6077 239.736 Z" fill="#000000" fill-rule="nonzero" fill-opacity="1" /><polyline clip-path="url(#clip752)" style="stroke:#0000ff; stroke-linecap:round; stroke-linejoin:round; stroke-width:4; stroke-opacity:1; fill:none" points="203.674,717.221 227.59,722.535 234.693,718.472 254.033,717.154 262.466,716.11 284.396,719.177 303.312,723.345 329.614,725.337 356.604,727.565 387.125,732.553 416.228,732.44 440.826,732.498 477.074,734.131 499.071,740.212 521.792,744.275 557.281,747.883 582.975,749.426 604.175,753.971 632.842,760.576 656.078,768.401 679.01,776.691 702.447,783.109 730.519,789.554 753.189,798.155 779.346,803.52 810.64,811.483 833.1,810.633 868.272,812.867 893.641,821.27 919.901,829.25 950.468,839.13 974.549,847.538 1000.63,854.187 1019.04,864.159 1036.01,876.727 1043.67,882.441 1065.39,884.954 1083.27,886.474 1105.78,887.697 1131.84,891.367 1158.45,901.982 1185.86,912.187 1208.05,916.788 1233.49,919.573 1266.25,921.111 1295.26,922.274 1327.99,927.157 1355.92,932.812 1381.75,936.248 1406.46,938.608 1438.68,938.082 1462.98,937.449 1489.65,936.635 1516.6,933.938 1546.37,928.47 1575.05,929.255 1602.78,927.885 1628.61,928.434 1648.77,921.169 1666.8,917.983 1683.35,911.233 1701.32,904.91 1723.09,905.109 1746.39,903.534 1768.7,906.023 1787.61,909.732 1809.23,916.791 1829.02,928.505 1850.91,940.416 1866.38,951.416 1882.04,967.792 1892.26,981.898 1899.22,996.396 1908.27,1015.75 1920.37,1033.22 1933.56,1051.61 1944.39,1062.05 1963.05,1068.51 1977.69,1070.92 1987.94,1069.66 2010.01,1062.11 2026.79,1056.37 2047.1,1035.89 2058.3,1021.02 2061.62,1000.82 2063.92,982.924 2061.93,961.695 2047.34,946.611 2029.41,939.486 2006.36,930.6 1976.12,934.8 1952.16,933.431 1932.78,928.606 1915.21,924.973 1892.94,923.005 1873,930.077 1850.64,936.969 1833.87,944.834 1810.46,947.138 1785.09,945.707 1757.31,940.627 1734.83,930.015 1712.47,919.136 1681.66,902.999 1656.06,885.347 1634.05,867.317 1619.42,852.916 1608.12,840.701 1591.12,827.442 1576.46,811.481 1564.63,795.741 1556.78,779.146 1557.4,763.311 1571.18,747.203 1585.47,734.075 1608.11,726.597 1627.44,727.924 1655.01,729.72 1674.32,743.061 1694.89,751.876 1708.11,757.474 1729.83,763.188 1752.57,773.395 1763.86,782.282 1781.39,793.303 1800.22,804.199 1822.96,811.467 1844.16,812.182 1865.52,812.636 1889.71,805.624 1910.29,801.078 1926.31,800.847 1945.33,809.107 1962.23,821.708 1976.85,837.461 1986.52,853.301 1994.46,873.026 2001.85,895.06 2006.09,914.323 2004.99,935.293 2004.76,945.276 2007.7,958.681 2019.14,977.428 2026.83,995.131 2039.27,1009.86 2050.72,1016.34 2063.41,1019.56 2082.3,1014.28 2101.72,1007.2 2115.28,998.539 2131.75,985.558 2140.54,976.271 2142.98,956.507 2132.06,940.294 2114.13,922.423 2098.77,905.723 2077.53,894.7 2048.07,890.023 2020.71,886.422 2003.63,884.827 1979.73,883.691 1960.14,881.68 1941.67,871.21 1927.21,864.04 1905.05,856.887 1888.66,856.895 1865.35,859.832 1844.79,854.427 1824.16,848.933 1804.49,848.041 1779.4,844.178 1762.01,839.233 1745.25,834.856 1723.5,833.657 1695.82,835.343 1669.29,841.817 1653.65,840.145 1649.44,832.126 1644.79,829.345 1637.55,827.87 1626.2,827.148 1617.39,826.162 1602.99,830.441 1588.83,837.599 1562.98,842.1 1541.16,845.141 1526.64,850.605 1517.92,859.79 1526.36,860.381 1545.12,858.67 1577.47,852.648 1594.18,834.921 1609.16,820.51 1615.32,805.263 1607.26,788.402 1591.87,770.219 1580.85,759.638 1569.86,738.472 1550.2,729.057 1529.84,740.583 1507.28,741.075 1478.73,736.555 1475.3,717.155 1470.78,697.381 1472.82,676.511 1476.41,659.635 1492.09,638.196 1499.37,618.202 1503.36,595.2 1484.26,583.489 1461.53,574.637 1452.17,573.357 1463.39,560.648 1486.03,549.794 1521.79,548.648 1559.74,533.667 1586.56,517.088 1605.2,493.064 1617.86,472.016 1639.6,463.435 1665.88,466.975 1690.28,472.044 1708.89,490.917 1737.69,502.787 1757.12,519.755 1765.97,539.654 1754.7,556.465 1736.57,573.136 1708.91,585.99 1674.94,592.13 1648.83,591.785 1615.19,576.369 1588.95,561.516 1578.84,539.813 1578.12,517.705 1597.27,502.568 1612.26,492.37 1635.73,478.629 1660.52,469.601 1682.7,453.894 1705.2,441.114 1725,441.423 1748.46,427.285 1750.82,412.035 1762.08,394.882 1775.24,389.872 1792.83,372.458 1784.46,358.658 1762.28,348.535 1758.71,345.802 1771.08,342.354 1797.19,335.693 1826.14,341.439 1850.74,344.254 1877.53,349.311 1901.14,367.027 1903.6,385.329 1900.76,397.662 1878.51,408.844 1863.53,431.294 1848.09,458.873 1837.8,491.229 1840.15,511.915 1804.52,514.442 1780.01,529.705 1747.69,536.308 1716.76,553.46 1700.7,578.345 1681.53,595.358 1653.95,590.02 1631.52,578.976 1603.36,569.615 1588.28,557.161 1561.31,541.115 1553.21,532.833 1562.01,510.992 1586.88,502.615 1622.18,498.312 1651.74,501.264 1686.26,508.521 1714.89,523.21 1722.18,545.506 1736.43,565.874 1753.94,570.277 1779.24,574.941 1802.72,584.717 1813.13,588.124 1838.46,579.102 1863.46,572.249 1882.94,563.084 1903.62,565.708 1923.47,580.661 1921.31,599.391 1922.2,619.864 1909.27,651.265 1888.68,676.311 1863.47,695.815 1840.16,726.758 1838.79,751.293 1802.52,762.946 1773.87,768.087 1746.1,783.621 1720.72,797.62 1703.35,816.401 1686.73,837.328 1661.33,861.092 1634.22,868.923 1606.46,859.675 1582.2,854.399 1549.96,850.409 1522.21,841.58 1503.94,820.204 1488.41,799.741 1457.52,777.348 1439.83,757.703 1414.5,741.108 1390.12,739.142 1360.18,744.233 1341.17,741.78 1315.41,733.34 1310.32,706.661 1292.49,699.605 1269.51,703.977 1251,713.009 1225.64,729.843 1219.99,736.94 1188.5,740.205 1165.41,745.902 1140.02,738.454 1119.47,719.562 1096.13,707.974 1061.08,702.231 1028.92,692.261 1006.57,688.363 985.7,678.046 965.738,657.122 964.387,642.987 975.076,624.394 991.186,604.098 1003.12,581.155 1008.94,549.519 1015.58,524.99 1000.41,504.927 980.8,500.723 970.437,489.002 975.106,475.132 1001.9,474.989 1036.85,479.119 1079.91,476.859 1113.44,472.566 1140.81,453.788 1165.62,429.545 1190.86,410.176 1221.28,403.555 1260.85,406.185 1293.41,419.145 1324.58,434.366 1354.6,447.01 1381.81,459.566 1404.21,473.43 1440.41,480.196 1465.11,494.598 1491.02,517.126 1522.06,543.767 1549.88,559.688 1574.37,570.981 1593.2,581.458 1602.58,569.456 1623.98,561.884 1650.59,548.472 1673.26,538.553 1702.95,526.945 1736.44,526.06 1773.34,535.45 1800.42,560.715 1807.42,583.241 1803.12,614.05 1784.26,647.092 1783.46,673.968 1774.76,705.786 1774.64,740.357 1791.34,770.373 1822.52,796.146 1863.19,794.581 1884.77,795.675 1915.05,803.414 1935.99,825.857 1961.02,852.125 1982.36,883.463 1994.65,915.51 1997.81,937.131 2014.59,919.291 2050.56,924.874 2078.92,931.928 2090.57,946.772 2092.85,951.365 2093.65,955.279 2098.55,971.311 2101.52,978.357 2115.44,981.874 2132.38,984.412 2161.42,977.194 2188.73,986.716 2203,1000.06 2216.08,1022.42 2215.65,1036.46 2219.16,1022.09 2224.72,1003.23 2221.93,976.293 2212.06,949.766 2196.65,925.375 2185.46,903.051 2186.76,883.689 2159.99,861.932 2152.91,829.399 2157.18,805.15 2175.48,795.373 2196.75,797.208 2220.99,805.708 2237.06,818.946 2249.67,838.372 2275.11,862.13 2290.15,882.654 2279.86,909.516 2259.72,932.343 2242.47,952.869 2211.72,964.118 2193.31,983.115 2165.76,996.09 2137.86,1019.46 2119.06,1040.29 2108.18,1063.69 2089.12,1086.86 2070.91,1108.97 2044.82,1126.43 2019.31,1137.23 1987.29,1154.22 1961.49,1172.62 1932.52,1180.65 1903.62,1199.52 1888.72,1217.56 1856.28,1229.56 1837.43,1244.11 1819.56,1263.82 1801.46,1291.57 1794.33,1312.21 1788.34,1332.38 1781.5,1356.49 1804.75,1377.73 1814.57,1392.35 1806.77,1416.02 1799.69,1442.9 1778.21,1445.72 1755.3,1442.59 1734.36,1424.05 1721.16,1396.88 1706.97,1375.42 1683.73,1352.55 1644.41,1326.29 1612.34,1320.09 1577.79,1319.77 1541.24,1326.7 1499.11,1336.46 1471.76,1337.17 1437.13,1326.15 1411.89,1313.39 1391.7,1289.12 1390.13,1255.24 1383.98,1214.06 1363.35,1188.4 1343.02,1167.34 1349.12,1136.2 1346.89,1108.45 1337.74,1084.66 1325.68,1056.67 1307.39,1031.74 1301.42,1004.72 1308.31,971.735 1317.83,938.376 1335.95,908.597 1352.77,877.829 1364.9,845.219 1394.33,824.634 1387.2,797.261 1372.39,772.461 1341.34,749.784 1308.48,746.647 1288.84,733.136 1280.07,708.068 1276.58,675.933 1289.9,648.332 1303.76,626.215 1325.39,617.471 1357.94,605.436 1394.71,600.004 1435.56,596.741 1474.38,596.531 1503,588.599 1525.81,561.614 1543.46,540.193 1572.12,528.619 1594.8,522.163 1597.59,506.998 1582.37,494.159 1560.99,478.306 1535.26,466.404 1506.96,438.497 1483.13,412.974 1470.26,387.185 1453.27,366.16 1450.6,348.642 1457.22,328.561 1475.05,318.617 1492.63,328.336 1523.44,333.058 1564.15,336.075 1599.19,345.002 1640.86,350.747 1673.78,353.953 1704.16,368.359 1728.25,374.783 1753.63,366.858 1776.98,356.51 1809.35,351.547 1842.33,351.415 1873.73,346.08 1895.92,361.598 1907.11,377.557 1914.09,370.585 1923.46,353.071 1940.33,336.074 1958.69,325.987 1982.84,311.912 2002.6,303.286 1990.87,303.777 1968.19,291.191 1957.84,273.836 1946.94,244.222 1952.26,215.665 1963.09,199.835 1991.19,190.132 2024.36,192.53 2049.17,198.414 2083.7,201.884 2119.61,214.383 2143.63,237.626 2147.7,266.296 2141.15,293.711 2128.77,302.589 2133.27,318.707 2136.8,341.25 2133.27,372.593 2104.59,389.171 2085.36,423.965 2055.43,446.117 2033.19,472.569 2026.91,507.411 2000.25,513.208 1964.25,515.17 1928.3,528.803 1897.15,542.088 1881.82,569.968 1869.89,600.735 1868.84,617.693 1896.84,620.814 1926.13,634.488 1963.47,649.604 1997.88,673.792 2025.84,688.221 2064.94,693.082 2099.87,693.704 2139.28,689.522 2168.61,695.211 2194.18,693.492 2204.9,678.081 2218.77,659.273 2234.89,638.761 2231.84,613.398 2228.59,594.193 2218.63,570.083 2191.58,549.353 2170.64,530.351 2145.35,515.688 2103.8,517.46 2078.21,524.858 2053.81,542.446 2036.68,561.662 2010.2,586.903 2006.72,616.714 2012.99,648.842 2016.11,678.905 2034.26,705.112 2046.94,730.051 2060.18,763.863 2075.24,794.531 2107.42,805.418 2137.14,823.099 2163.72,851.845 2183.35,874.916 2197.97,906.16 2205.04,931.237 2201.49,943.189 2170.64,944.361 2131.84,958.474 2104.39,955.798 2089.2,963.291 2069.28,967.521 2046.74,961.982 2015.27,948.41 1984.49,940.547 1948.32,943.878 1903.22,957.352 1864.94,970.937 1826.03,971.237 1782.66,979.814 1744.73,979.756 1706.02,980.099 1674.74,974.631 1639.26,979.517 1607.15,973.316 1574.25,966.12 1538.52,935.084 1510.41,920.222 1471.98,912.337 1439.18,896.77 1409.57,881.582 1378.25,860.202 1353.22,852.851 1326.46,866.814 1300.74,883.669 1271.75,898.955 1233.34,917.971 1194.91,924.954 1165.95,920.163 1137.46,896.815 1119.17,872.648 1100.79,841.982 1075.07,816.311 1063.93,785.628 1059.7,757.418 1062.92,734.743 1049.13,705.253 1025.73,688.924 997.538,676.692 979,654.24 969.804,623.451 967.307,600.678 955.31,572.605 964.749,546.484 986.852,518.251 998.615,501.404 1011.53,494.656 1021.03,480.42 1026.12,463.97 1031.96,440.507 1038.19,417.222 1045.19,388.129 1057.12,355.04 1056.48,331.969 1034.47,312.958 1014.62,299.063 986.886,299.47 959.447,308.684 930.995,304.32 900.025,289.827 861.856,274.92 838.433,269.404 816.433,265.034 801.814,247.553 800.954,226.198 816.535,207.953 838.734,188.935 862.416,171.284 906.136,160.692 935.615,147.421 969.442,141.31 1000.13,153.62 1027.83,159.877 1061.99,154.583 1096.69,150.429 1115.57,129.041 1132.63,109.104 1145.98,87.9763 "/>
<polyline clip-path="url(#clip752)" style="stroke:#ff0000; stroke-linecap:round; stroke-linejoin:round; stroke-width:4; stroke-opacity:1; fill:none" points="203.121,717.397 234.087,723.796 236.748,714.899 258.284,716.203 261.726,716.904 289.25,722.602 306.447,726.159 335.75,725.913 360.728,727.931 391.708,734.331 418.466,730.417 440.001,731.709 483.088,734.318 495.092,743.105 520.085,745.111 563.186,747.72 581.294,748.311 601.094,755.56 635.56,762.673 655.375,769.922 678.646,777.884 702.786,782.868 733.824,789.28 752.785,799.507 781.264,802.239 814.92,812.355 831.321,806.276 873.626,811.863 891.749,825.08 919.374,830.79 953.073,840.907 972.946,848.167 1000.6,853.878 1015.29,866.394 1033.48,879.623 1036.93,880.337 1069.78,880.805 1083.6,883.672 1108.68,885.691 1136.37,891.413 1161.49,906.095 1188.33,914.796 1206.5,915.399 1235.05,918.143 1271.4,919.325 1296.49,921.355 1331.13,928.518 1355.4,933.539 1380.49,935.557 1405.6,937.588 1442.8,935.803 1460.98,936.394 1490.4,936.16 1517.2,932.21 1548.3,926.007 1576.04,931.73 1602.82,927.792 1627.95,929.822 1646,917.762 1664.18,918.352 1681.37,909.282 1701.22,903.904 1725.5,908.925 1748.8,904.261 1769.63,908.556 1786.97,912.138 1810.44,920.137 1828.8,933.391 1851.45,944.381 1863.7,953.23 1880.42,972.477 1888.37,983.602 1895.5,997.718 1907.94,1019.27 1922.04,1034.84 1935.32,1053.41 1944.94,1058.56 1969.3,1063.61 1979.74,1065.76 1987.53,1064.2 2016,1054.25 2027.25,1053.41 2049.35,1026.33 2055.29,1018.06 2054.05,995.675 2058.13,980.723 2056.9,958.361 2037.68,948.085 2020.29,944.492 1997.61,933.502 1970,940.431 1949.16,936.136 1932.62,929.564 1915.26,925.983 1890.12,923.952 1872.12,936.025 1848.8,940.677 1835.91,947.495 1807.31,944.738 1782.17,942.72 1754.4,936.985 1736.06,923.73 1712.6,915.731 1676.93,898.896 1655.99,881.962 1635.06,865.028 1623.69,853.238 1612.34,841.436 1590.59,827.505 1577.46,809.057 1566.94,794.313 1560.74,777.306 1564.92,762.451 1583.76,747.474 1594.02,737.014 1617.27,732.386 1631.1,735.229 1660.45,734.995 1674.42,750.428 1695.19,754.711 1705.57,756.84 1733.27,762.55 1755.02,776.444 1760.3,783.816 1782.89,794.757 1802.03,804.996 1826.28,809.992 1845.26,807.605 1866.88,808.909 1891.79,798.313 1909.94,798.916 1923.81,801.771 1945.62,815.69 1960.5,828.194 1974.57,843.676 1981.71,857.73 1990.69,878.479 1999.67,899.24 2002.52,915.596 2000.26,937.206 2002.92,940.911 2009.26,958.005 2025.21,980.243 2028.07,996.635 2043,1009.2 2053.44,1011.37 2067.36,1014.23 2088.02,1005.85 2104.38,999.749 2113.78,992.205 2131.78,980.12 2136.88,974.865 2136.42,949.513 2121.48,936.96 2103.88,920.715 2093.25,905.923 2069.74,897.923 2041.13,895.179 2016.82,890.17 2006.41,888.016 1977.81,885.284 1960.46,881.703 1942.91,865.483 1929.03,862.628 1901.27,856.905 1889.23,860.72 1862.47,864.658 1844.13,851.429 1823.32,847.146 1804.33,849.521 1776.6,843.811 1763.55,837.978 1746.23,834.396 1720.31,835.356 1690.1,838.581 1665.97,846.198 1657.25,838.101 1657.1,825.474 1649.35,827.025 1638.13,827.861 1623.43,827.985 1616.51,826.557 1599.31,835.602 1586.42,842.396 1553.58,841.928 1538.04,845.017 1528.6,852.524 1521.79,863.735 1537.32,860.634 1556.31,858.247 1587.38,852.044 1596.68,831.91 1611.24,819.173 1615.41,804.294 1605.73,786.573 1589.14,767.436 1580.42,759.35 1568.97,735.008 1549.05,727.759 1526.75,742.022 1505.17,740.718 1474.04,734.306 1475.62,715.785 1470.28,695.86 1472.7,674.397 1476.88,659.58 1494.77,635.065 1499.79,617.307 1503.03,592.939 1484.01,582.774 1460.69,574.861 1453.79,573.446 1465.71,557.139 1490.59,546.617 1530.19,548.5 1567.88,531.258 1586.67,516.38 1604.49,491.963 1617.19,472.752 1637.72,464.495 1666.13,467.202 1690.25,472.137 1710.26,491.815 1739.63,504.073 1757.05,520.121 1765.9,540.661 1754.05,556.955 1734.47,574.799 1705.34,587.574 1670.96,593.026 1649.41,591.733 1610.47,574.356 1588.82,560.536 1580.02,539.984 1578.94,517.918 1597.72,503.051 1611.37,493.378 1637.85,476.986 1661.85,469.442 1684.87,452.348 1706.22,441.161 1724.27,441.74 1750.71,425.372 1750.57,412.905 1763.21,393.731 1775.18,389.965 1795.53,369.278 1784.22,357.648 1758.32,346.141 1774.56,340.16 1805.37,334.044 1832.08,342.597 1853.56,343.889 1881.1,349.513 1904.57,369.832 1903.94,385.227 1900.67,396.98 1875.1,410.395 1860.84,435.463 1845.75,463.498 1836.72,495.914 1840.35,509.131 1799.11,513.143 1779.55,530.975 1745.2,536.415 1714.44,555.072 1700.09,580.251 1681.32,595.155 1653.69,589.481 1631.19,578.614 1600.96,569.274 1589.65,557.582 1558.49,538.692 1555.88,535.036 1563.37,508.479 1590.82,501.636 1628.61,496.91 1652.74,501.858 1690.67,509.636 1715.8,524.145 1721.19,543.971 1736.94,565.939 1750.75,568.769 1781.84,575.144 1804.36,586.023 1811.27,587.438 1843.02,578.331 1867.03,570.763 1884.11,561.779 1904.83,566.025 1925.75,582.799 1920.84,600.545 1922.03,622.672 1904.47,659.752 1884.08,680.612 1861.02,697.817 1837.32,730.577 1839.3,749.813 1798.9,763.485 1775.65,768.125 1745.62,783.939 1719.86,797.501 1703.66,816.195 1686.62,837.867 1657.52,863.366 1634.22,868.018 1607.34,859.317 1583.08,854.308 1547.59,850.149 1520.73,841.448 1501.51,818.595 1488.4,800.147 1451.91,773.749 1441.44,759.018 1413.7,740.73 1392.11,739.426 1357.64,744.89 1343.81,742.035 1313.56,732.669 1310.81,703.823 1293.54,700.266 1266.83,704.192 1249.63,713.212 1222.12,732.682 1221.27,735.648 1183.33,740.398 1163.5,745.751 1136.73,737.075 1116.84,717.261 1094.38,706.345 1055.57,701.497 1025.39,692.131 1008.15,688.575 985.732,677.671 963.299,654.227 965.888,645.341 976.2,622.377 993.397,600.84 1003.7,577.913 1009.67,544.722 1015.66,524.071 999.298,505.082 982.101,501.55 970.921,489.883 975.202,475.152 1007.86,475.608 1046.54,480.432 1087.77,476.42 1114.4,472.519 1141.83,453.197 1167.51,427.304 1190.62,410.235 1221.5,404.118 1264.44,406.69 1293.7,418.911 1325.56,434.786 1354.85,447.019 1380.71,458.551 1402.29,472.334 1443.61,480.801 1465.21,494.597 1494.65,519.358 1526.73,547.799 1549.21,558.653 1571.7,569.52 1590.73,579.685 1600.13,572.227 1624.98,561.705 1654.95,545.989 1675.5,537.719 1708.06,525.671 1740.76,526.139 1777.9,536.87 1803.21,563.92 1806,580.104 1803.04,617.011 1782.79,650.412 1783.93,672.564 1774.03,708.154 1775.33,742.933 1792.96,771.694 1826.12,797.378 1864.06,792.615 1877.93,795.47 1916.06,803.31 1935.41,826.163 1964.36,854.161 1984.76,886.712 1994.75,917.146 1997.61,933.502 2012.12,920.728 2054.63,926.339 2078.96,931.348 2089.6,946.165 2092.26,949.87 2094.11,956.565 2099.65,976.649 2102.31,980.366 2119.71,983.947 2137.91,984.55 2169.82,975.332 2195.21,990.051 2203.23,1001.19 2218.44,1026.45 2216,1035.44 2220.06,1020.46 2225.73,999.503 2222.56,970.434 2210.85,945.919 2194.84,923.706 2185.8,902.932 2187.19,884.312 2153.83,858.554 2151.53,826.618 2157.2,805.783 2174.33,796.738 2195.95,798.055 2222.91,806.731 2237.85,819.234 2250.36,840.673 2280.27,865.704 2290.14,883.475 2278.61,912.593 2258.24,933.613 2242.15,952.38 2209.46,964.576 2193.35,983.356 2164.13,996.278 2135.12,1021.9 2118.98,1040.71 2108.97,1063.96 2087.69,1088.07 2070.7,1109.92 2044.07,1126.62 2019.06,1137.31 1984.61,1155.58 1961.43,1173.01 1933.73,1179.99 1901.9,1202.01 1890.79,1215.62 1853.62,1230.19 1839.01,1243.09 1818.41,1264.31 1798.8,1295.31 1794.65,1310.39 1788.82,1331.54 1781.33,1358.73 1808.61,1380.39 1813.11,1390.93 1805.61,1418.16 1798.11,1445.43 1779.8,1444.82 1754.47,1442.76 1730.68,1421.79 1719.9,1393.93 1706.61,1375.18 1680.2,1350.5 1636.38,1322.21 1614.6,1320.88 1578.03,1319.67 1538.94,1327.51 1495.51,1337.67 1477.22,1337.05 1436.22,1325.33 1413.51,1314.21 1391.59,1287.29 1390.47,1251.96 1384.09,1209.2 1363.98,1189.1 1343.87,1169 1349.74,1135.23 1346.11,1109.06 1338.16,1085.18 1324.95,1053.89 1305.76,1030.88 1302.15,1004.78 1308.87,968.182 1318.2,935.323 1337.06,907.633 1353.3,876.264 1366.06,844.205 1393.57,824.674 1386.48,798.018 1371.63,772.924 1338.67,747.265 1309.33,747.511 1291.14,734.331 1280.64,707.035 1276.14,671.579 1290.66,646.35 1303.46,627.053 1324.09,618.759 1361.04,604.434 1398.89,599.696 1440.2,595.671 1476.37,596.853 1500.41,589.272 1526.85,560.314 1543.03,541.768 1572.16,529.019 1591.9,523.702 1596.05,508.946 1582.14,493.625 1557.9,476.186 1532.01,464.642 1500.8,433.322 1481.71,410.739 1470.35,386.643 1453.89,367.727 1451.19,351.642 1457.86,328.161 1474.94,319.251 1493.9,329.33 1529.1,333.429 1572.02,335.988 1602.14,345.255 1644.25,350.756 1672.59,353.452 1704.53,369.303 1725.18,373.524 1752.58,366.706 1777.34,356.245 1811.6,350.83 1844.22,351.286 1875.02,345.169 1895.87,361.845 1906.38,376.403 1911.46,371.235 1924.05,352.086 1943.52,334.352 1960.56,325.429 1986.9,309.111 2003.1,303.117 1991.96,303.942 1963.42,288.829 1957.16,272.08 1944.65,238.593 1951.97,212.257 1962.08,201.969 1994.45,190.031 2029.62,194.105 2050.25,198.314 2088.88,203.089 2125.09,216.638 2144.35,239.098 2147.44,267.563 2140.19,293.924 2131.7,298.392 2133.76,317.393 2137.65,342.979 2131.41,378.926 2098.99,390.925 2080.78,430.701 2054.41,447.068 2032.49,473.7 2026.19,509.796 2003.85,511.445 1962.61,515.469 1925.83,529.757 1896.75,542.519 1881.66,570.64 1869.18,602.452 1870.18,612.027 1897.01,620.666 1929.13,636.64 1969.01,651.088 2002.19,676.686 2024.79,687.59 2067.15,693.153 2099.94,693.62 2141.29,689.584 2165.53,694.568 2191.41,693.608 2202.37,680.206 2219.22,658.632 2236.04,637.059 2232.11,611.252 2229.2,595.044 2218.34,567.846 2187.79,545.989 2170.28,529.942 2145.05,515.42 2096.91,518.029 2080.65,524.059 2053.43,543.43 2037.39,561.976 2007.7,590.232 2007.29,618.279 2012.97,650.719 2016.03,679.529 2034.57,705.262 2046.18,729.593 2061.48,767.263 2075.79,795.323 2106.19,804.725 2137.65,823.763 2165.88,854.739 2182.66,873.938 2198.89,908.778 2204.45,928.838 2202.02,937.797 2167.49,943.298 2126.22,960.035 2105.35,955.728 2092.48,962.546 2069.16,967.21 2044.84,962.189 2009.06,945.329 1981.26,939.594 1943.23,944.381 1894.95,959.678 1862.22,971.874 1825.82,970.68 1779.18,980.009 1746.26,979.529 1705.56,980.612 1677.77,974.877 1639.72,979.652 1608.48,973.203 1573.77,966.028 1532.75,929.108 1512.78,921.823 1471.18,913.233 1439.06,897.123 1410.4,881.74 1376.53,858.973 1355.75,854.69 1326.44,867.563 1299.74,884.128 1269.56,900.003 1227.28,919.694 1192.7,925.183 1168.46,920.174 1135.51,894.404 1119.88,872.227 1099.92,839.7 1073.94,815.419 1064.38,785.083 1060.87,759.178 1063.41,737.678 1047.82,703.035 1026.24,689.165 996.926,676.846 977.95,654.104 969.316,620.962 967.566,601.8 954.65,570.947 965.816,545.079 989,515.457 995.87,504.368 1008.74,497.649 1020.76,481.379 1025.88,463.707 1033.58,437.223 1040.4,413.693 1045.49,383.591 1059.15,349.07 1056.54,332.986 1033.36,312.704 1015.34,299.696 986.194,299.942 957.919,309.677 930.496,304.065 895.365,287.549 855.967,273.274 842.27,270.468 818.29,265.557 802.047,246.716 801.237,224.847 817.523,206.485 841.503,186.61 864.616,169.676 915.078,158.329 936.455,147.241 970.646,141.851 999.732,153.985 1027.11,159.572 1064.73,154.883 1098.92,149.505 1115.96,128.264 1132.14,109.952 1145.74,88.0459 "/>
<path clip-path="url(#clip750)" d="M214.252 1438.47 L760.776 1438.47 L760.776 1282.95 L214.252 1282.95  Z" fill="#ffffff" fill-rule="evenodd" fill-opacity="1"/>
<polyline clip-path="url(#clip750)" style="stroke:#000000; stroke-linecap:round; stroke-linejoin:round; stroke-width:4; stroke-opacity:1; fill:none" points="214.252,1438.47 760.776,1438.47 760.776,1282.95 214.252,1282.95 214.252,1438.47 "/>
<polyline clip-path="url(#clip750)" style="stroke:#0000ff; stroke-linecap:round; stroke-linejoin:round; stroke-width:4; stroke-opacity:1; fill:none" points="238.832,1334.79 386.315,1334.79 "/>
<path clip-path="url(#clip750)" d="M434.924 1338.05 L434.924 1340.13 L415.34 1340.13 Q415.618 1344.53 417.979 1346.84 Q420.363 1349.13 424.6 1349.13 Q427.053 1349.13 429.345 1348.53 Q431.66 1347.93 433.928 1346.73 L433.928 1350.75 Q431.637 1351.73 429.229 1352.24 Q426.822 1352.75 424.345 1352.75 Q418.141 1352.75 414.507 1349.13 Q410.896 1345.52 410.896 1339.37 Q410.896 1333 414.322 1329.27 Q417.771 1325.52 423.604 1325.52 Q428.836 1325.52 431.868 1328.9 Q434.924 1332.26 434.924 1338.05 M430.664 1336.8 Q430.618 1333.3 428.697 1331.22 Q426.799 1329.13 423.65 1329.13 Q420.086 1329.13 417.933 1331.15 Q415.803 1333.16 415.479 1336.82 L430.664 1336.8 Z" fill="#000000" fill-rule="nonzero" fill-opacity="1" /><path clip-path="url(#clip750)" d="M458.442 1326.91 L458.442 1330.94 Q456.636 1330.01 454.692 1329.55 Q452.748 1329.09 450.664 1329.09 Q447.493 1329.09 445.896 1330.06 Q444.322 1331.03 444.322 1332.98 Q444.322 1334.46 445.456 1335.32 Q446.59 1336.15 450.016 1336.91 L451.474 1337.24 Q456.011 1338.21 457.91 1339.99 Q459.831 1341.75 459.831 1344.92 Q459.831 1348.53 456.96 1350.64 Q454.113 1352.75 449.113 1352.75 Q447.03 1352.75 444.761 1352.33 Q442.516 1351.94 440.016 1351.13 L440.016 1346.73 Q442.377 1347.95 444.669 1348.58 Q446.961 1349.18 449.206 1349.18 Q452.215 1349.18 453.836 1348.16 Q455.456 1347.12 455.456 1345.25 Q455.456 1343.51 454.275 1342.58 Q453.118 1341.66 449.16 1340.8 L447.678 1340.45 Q443.72 1339.62 441.961 1337.91 Q440.201 1336.17 440.201 1333.16 Q440.201 1329.51 442.794 1327.51 Q445.386 1325.52 450.155 1325.52 Q452.516 1325.52 454.599 1325.87 Q456.683 1326.22 458.442 1326.91 Z" fill="#000000" fill-rule="nonzero" fill-opacity="1" /><path clip-path="url(#clip750)" d="M470.826 1318.79 L470.826 1326.15 L479.599 1326.15 L479.599 1329.46 L470.826 1329.46 L470.826 1343.53 Q470.826 1346.7 471.683 1347.61 Q472.562 1348.51 475.224 1348.51 L479.599 1348.51 L479.599 1352.07 L475.224 1352.07 Q470.294 1352.07 468.419 1350.25 Q466.544 1348.39 466.544 1343.53 L466.544 1329.46 L463.419 1329.46 L463.419 1326.15 L466.544 1326.15 L466.544 1318.79 L470.826 1318.79 Z" fill="#000000" fill-rule="nonzero" fill-opacity="1" /><path clip-path="url(#clip750)" d="M485.201 1326.15 L489.46 1326.15 L489.46 1352.07 L485.201 1352.07 L485.201 1326.15 M485.201 1316.06 L489.46 1316.06 L489.46 1321.45 L485.201 1321.45 L485.201 1316.06 Z" fill="#000000" fill-rule="nonzero" fill-opacity="1" /><path clip-path="url(#clip750)" d="M518.557 1331.13 Q520.155 1328.26 522.377 1326.89 Q524.599 1325.52 527.608 1325.52 Q531.659 1325.52 533.858 1328.37 Q536.057 1331.19 536.057 1336.43 L536.057 1352.07 L531.775 1352.07 L531.775 1336.57 Q531.775 1332.84 530.455 1331.03 Q529.136 1329.23 526.428 1329.23 Q523.118 1329.23 521.196 1331.43 Q519.275 1333.63 519.275 1337.42 L519.275 1352.07 L514.993 1352.07 L514.993 1336.57 Q514.993 1332.82 513.673 1331.03 Q512.354 1329.23 509.599 1329.23 Q506.335 1329.23 504.414 1331.45 Q502.493 1333.65 502.493 1337.42 L502.493 1352.07 L498.21 1352.07 L498.21 1326.15 L502.493 1326.15 L502.493 1330.18 Q503.951 1327.79 505.988 1326.66 Q508.025 1325.52 510.826 1325.52 Q513.65 1325.52 515.618 1326.96 Q517.608 1328.39 518.557 1331.13 Z" fill="#000000" fill-rule="nonzero" fill-opacity="1" /><path clip-path="url(#clip750)" d="M556.335 1339.04 Q551.173 1339.04 549.182 1340.22 Q547.191 1341.4 547.191 1344.25 Q547.191 1346.52 548.673 1347.86 Q550.178 1349.18 552.747 1349.18 Q556.289 1349.18 558.418 1346.68 Q560.571 1344.16 560.571 1339.99 L560.571 1339.04 L556.335 1339.04 M564.83 1337.28 L564.83 1352.07 L560.571 1352.07 L560.571 1348.14 Q559.113 1350.5 556.937 1351.63 Q554.761 1352.75 551.613 1352.75 Q547.631 1352.75 545.27 1350.52 Q542.932 1348.28 542.932 1344.53 Q542.932 1340.15 545.849 1337.93 Q548.789 1335.71 554.599 1335.71 L560.571 1335.71 L560.571 1335.29 Q560.571 1332.35 558.627 1330.76 Q556.705 1329.13 553.21 1329.13 Q550.988 1329.13 548.881 1329.67 Q546.775 1330.2 544.83 1331.26 L544.83 1327.33 Q547.168 1326.43 549.367 1325.99 Q551.566 1325.52 553.65 1325.52 Q559.275 1325.52 562.053 1328.44 Q564.83 1331.36 564.83 1337.28 Z" fill="#000000" fill-rule="nonzero" fill-opacity="1" /><path clip-path="url(#clip750)" d="M577.816 1318.79 L577.816 1326.15 L586.589 1326.15 L586.589 1329.46 L577.816 1329.46 L577.816 1343.53 Q577.816 1346.7 578.673 1347.61 Q579.552 1348.51 582.214 1348.51 L586.589 1348.51 L586.589 1352.07 L582.214 1352.07 Q577.284 1352.07 575.409 1350.25 Q573.534 1348.39 573.534 1343.53 L573.534 1329.46 L570.409 1329.46 L570.409 1326.15 L573.534 1326.15 L573.534 1318.79 L577.816 1318.79 Z" fill="#000000" fill-rule="nonzero" fill-opacity="1" /><path clip-path="url(#clip750)" d="M614.367 1338.05 L614.367 1340.13 L594.784 1340.13 Q595.062 1344.53 597.423 1346.84 Q599.807 1349.13 604.043 1349.13 Q606.497 1349.13 608.788 1348.53 Q611.103 1347.93 613.372 1346.73 L613.372 1350.75 Q611.08 1351.73 608.673 1352.24 Q606.265 1352.75 603.788 1352.75 Q597.585 1352.75 593.95 1349.13 Q590.339 1345.52 590.339 1339.37 Q590.339 1333 593.765 1329.27 Q597.214 1325.52 603.048 1325.52 Q608.279 1325.52 611.312 1328.9 Q614.367 1332.26 614.367 1338.05 M610.108 1336.8 Q610.062 1333.3 608.14 1331.22 Q606.242 1329.13 603.094 1329.13 Q599.529 1329.13 597.376 1331.15 Q595.247 1333.16 594.923 1336.82 L610.108 1336.8 Z" fill="#000000" fill-rule="nonzero" fill-opacity="1" /><polyline clip-path="url(#clip750)" style="stroke:#ff0000; stroke-linecap:round; stroke-linejoin:round; stroke-width:4; stroke-opacity:1; fill:none" points="238.832,1386.63 386.315,1386.63 "/>
<path clip-path="url(#clip750)" d="M431.243 1382.97 Q432.84 1380.1 435.062 1378.73 Q437.285 1377.36 440.294 1377.36 Q444.345 1377.36 446.544 1380.21 Q448.743 1383.03 448.743 1388.27 L448.743 1403.91 L444.461 1403.91 L444.461 1388.41 Q444.461 1384.68 443.141 1382.87 Q441.822 1381.07 439.113 1381.07 Q435.803 1381.07 433.882 1383.27 Q431.961 1385.47 431.961 1389.26 L431.961 1403.91 L427.678 1403.91 L427.678 1388.41 Q427.678 1384.66 426.359 1382.87 Q425.039 1381.07 422.285 1381.07 Q419.021 1381.07 417.1 1383.29 Q415.178 1385.49 415.178 1389.26 L415.178 1403.91 L410.896 1403.91 L410.896 1377.99 L415.178 1377.99 L415.178 1382.02 Q416.637 1379.63 418.674 1378.5 Q420.711 1377.36 423.512 1377.36 Q426.336 1377.36 428.303 1378.8 Q430.294 1380.23 431.243 1382.97 Z" fill="#000000" fill-rule="nonzero" fill-opacity="1" /><path clip-path="url(#clip750)" d="M479.414 1389.89 L479.414 1391.97 L459.831 1391.97 Q460.109 1396.37 462.47 1398.68 Q464.854 1400.97 469.09 1400.97 Q471.544 1400.97 473.835 1400.37 Q476.15 1399.77 478.419 1398.57 L478.419 1402.59 Q476.127 1403.57 473.72 1404.08 Q471.312 1404.59 468.835 1404.59 Q462.632 1404.59 458.998 1400.97 Q455.386 1397.36 455.386 1391.21 Q455.386 1384.84 458.812 1381.11 Q462.261 1377.36 468.095 1377.36 Q473.326 1377.36 476.359 1380.74 Q479.414 1384.1 479.414 1389.89 M475.155 1388.64 Q475.109 1385.14 473.187 1383.06 Q471.289 1380.97 468.141 1380.97 Q464.576 1380.97 462.423 1382.99 Q460.294 1385 459.97 1388.66 L475.155 1388.64 Z" fill="#000000" fill-rule="nonzero" fill-opacity="1" /><path clip-path="url(#clip750)" d="M498.187 1390.88 Q493.025 1390.88 491.034 1392.06 Q489.044 1393.24 489.044 1396.09 Q489.044 1398.36 490.525 1399.7 Q492.03 1401.02 494.599 1401.02 Q498.141 1401.02 500.27 1398.52 Q502.423 1396 502.423 1391.83 L502.423 1390.88 L498.187 1390.88 M506.682 1389.12 L506.682 1403.91 L502.423 1403.91 L502.423 1399.98 Q500.965 1402.34 498.789 1403.47 Q496.613 1404.59 493.465 1404.59 Q489.483 1404.59 487.122 1402.36 Q484.784 1400.12 484.784 1396.37 Q484.784 1391.99 487.701 1389.77 Q490.641 1387.55 496.451 1387.55 L502.423 1387.55 L502.423 1387.13 Q502.423 1384.19 500.479 1382.6 Q498.557 1380.97 495.062 1380.97 Q492.84 1380.97 490.733 1381.51 Q488.627 1382.04 486.683 1383.1 L486.683 1379.17 Q489.021 1378.27 491.22 1377.83 Q493.419 1377.36 495.502 1377.36 Q501.127 1377.36 503.905 1380.28 Q506.682 1383.2 506.682 1389.12 Z" fill="#000000" fill-rule="nonzero" fill-opacity="1" /><path clip-path="url(#clip750)" d="M531.983 1378.75 L531.983 1382.78 Q530.178 1381.85 528.233 1381.39 Q526.289 1380.93 524.206 1380.93 Q521.034 1380.93 519.437 1381.9 Q517.863 1382.87 517.863 1384.82 Q517.863 1386.3 518.997 1387.16 Q520.131 1387.99 523.557 1388.75 L525.016 1389.08 Q529.553 1390.05 531.451 1391.83 Q533.372 1393.59 533.372 1396.76 Q533.372 1400.37 530.502 1402.48 Q527.655 1404.59 522.655 1404.59 Q520.571 1404.59 518.303 1404.17 Q516.057 1403.78 513.557 1402.97 L513.557 1398.57 Q515.919 1399.79 518.21 1400.42 Q520.502 1401.02 522.747 1401.02 Q525.756 1401.02 527.377 1400 Q528.997 1398.96 528.997 1397.09 Q528.997 1395.35 527.817 1394.42 Q526.659 1393.5 522.701 1392.64 L521.219 1392.29 Q517.261 1391.46 515.502 1389.75 Q513.743 1388.01 513.743 1385 Q513.743 1381.35 516.335 1379.35 Q518.928 1377.36 523.696 1377.36 Q526.057 1377.36 528.141 1377.71 Q530.224 1378.06 531.983 1378.75 Z" fill="#000000" fill-rule="nonzero" fill-opacity="1" /><path clip-path="url(#clip750)" d="M539.715 1393.68 L539.715 1377.99 L543.974 1377.99 L543.974 1393.52 Q543.974 1397.2 545.409 1399.05 Q546.844 1400.88 549.715 1400.88 Q553.164 1400.88 555.154 1398.68 Q557.168 1396.48 557.168 1392.69 L557.168 1377.99 L561.428 1377.99 L561.428 1403.91 L557.168 1403.91 L557.168 1399.93 Q555.617 1402.29 553.557 1403.45 Q551.52 1404.59 548.812 1404.59 Q544.344 1404.59 542.029 1401.81 Q539.715 1399.03 539.715 1393.68 M550.432 1377.36 L550.432 1377.36 Z" fill="#000000" fill-rule="nonzero" fill-opacity="1" /><path clip-path="url(#clip750)" d="M585.224 1381.97 Q584.506 1381.55 583.65 1381.37 Q582.816 1381.16 581.798 1381.16 Q578.187 1381.16 576.242 1383.52 Q574.321 1385.86 574.321 1390.26 L574.321 1403.91 L570.039 1403.91 L570.039 1377.99 L574.321 1377.99 L574.321 1382.02 Q575.664 1379.66 577.816 1378.52 Q579.969 1377.36 583.048 1377.36 Q583.488 1377.36 584.02 1377.43 Q584.552 1377.48 585.201 1377.6 L585.224 1381.97 Z" fill="#000000" fill-rule="nonzero" fill-opacity="1" /><path clip-path="url(#clip750)" d="M610.825 1389.89 L610.825 1391.97 L591.242 1391.97 Q591.52 1396.37 593.881 1398.68 Q596.265 1400.97 600.501 1400.97 Q602.955 1400.97 605.247 1400.37 Q607.562 1399.77 609.83 1398.57 L609.83 1402.59 Q607.538 1403.57 605.131 1404.08 Q602.724 1404.59 600.247 1404.59 Q594.043 1404.59 590.409 1400.97 Q586.798 1397.36 586.798 1391.21 Q586.798 1384.84 590.224 1381.11 Q593.673 1377.36 599.506 1377.36 Q604.737 1377.36 607.77 1380.74 Q610.825 1384.1 610.825 1389.89 M606.566 1388.64 Q606.52 1385.14 604.599 1383.06 Q602.7 1380.97 599.552 1380.97 Q595.988 1380.97 593.835 1382.99 Q591.705 1385 591.381 1388.66 L606.566 1388.64 Z" fill="#000000" fill-rule="nonzero" fill-opacity="1" /><path clip-path="url(#clip750)" d="M638.001 1382.97 Q639.598 1380.1 641.821 1378.73 Q644.043 1377.36 647.052 1377.36 Q651.103 1377.36 653.302 1380.21 Q655.501 1383.03 655.501 1388.27 L655.501 1403.91 L651.219 1403.91 L651.219 1388.41 Q651.219 1384.68 649.899 1382.87 Q648.58 1381.07 645.872 1381.07 Q642.561 1381.07 640.64 1383.27 Q638.719 1385.47 638.719 1389.26 L638.719 1403.91 L634.436 1403.91 L634.436 1388.41 Q634.436 1384.66 633.117 1382.87 Q631.798 1381.07 629.043 1381.07 Q625.779 1381.07 623.858 1383.29 Q621.936 1385.49 621.936 1389.26 L621.936 1403.91 L617.654 1403.91 L617.654 1377.99 L621.936 1377.99 L621.936 1382.02 Q623.395 1379.63 625.432 1378.5 Q627.469 1377.36 630.27 1377.36 Q633.094 1377.36 635.061 1378.8 Q637.052 1380.23 638.001 1382.97 Z" fill="#000000" fill-rule="nonzero" fill-opacity="1" /><path clip-path="url(#clip750)" d="M686.172 1389.89 L686.172 1391.97 L666.589 1391.97 Q666.867 1396.37 669.228 1398.68 Q671.612 1400.97 675.848 1400.97 Q678.302 1400.97 680.594 1400.37 Q682.908 1399.77 685.177 1398.57 L685.177 1402.59 Q682.885 1403.57 680.478 1404.08 Q678.07 1404.59 675.594 1404.59 Q669.39 1404.59 665.756 1400.97 Q662.145 1397.36 662.145 1391.21 Q662.145 1384.84 665.57 1381.11 Q669.02 1377.36 674.853 1377.36 Q680.084 1377.36 683.117 1380.74 Q686.172 1384.1 686.172 1389.89 M681.913 1388.64 Q681.867 1385.14 679.945 1383.06 Q678.047 1380.97 674.899 1380.97 Q671.334 1380.97 669.182 1382.99 Q667.052 1385 666.728 1388.66 L681.913 1388.64 Z" fill="#000000" fill-rule="nonzero" fill-opacity="1" /><path clip-path="url(#clip750)" d="M714.714 1388.27 L714.714 1403.91 L710.455 1403.91 L710.455 1388.41 Q710.455 1384.72 709.019 1382.9 Q707.584 1381.07 704.714 1381.07 Q701.265 1381.07 699.274 1383.27 Q697.283 1385.47 697.283 1389.26 L697.283 1403.91 L693.001 1403.91 L693.001 1377.99 L697.283 1377.99 L697.283 1382.02 Q698.811 1379.68 700.871 1378.52 Q702.955 1377.36 705.663 1377.36 Q710.13 1377.36 712.422 1380.14 Q714.714 1382.9 714.714 1388.27 Z" fill="#000000" fill-rule="nonzero" fill-opacity="1" /><path clip-path="url(#clip750)" d="M727.422 1370.63 L727.422 1377.99 L736.195 1377.99 L736.195 1381.3 L727.422 1381.3 L727.422 1395.37 Q727.422 1398.54 728.278 1399.45 Q729.158 1400.35 731.82 1400.35 L736.195 1400.35 L736.195 1403.91 L731.82 1403.91 Q726.89 1403.91 725.015 1402.09 Q723.14 1400.23 723.14 1395.37 L723.14 1381.3 L720.015 1381.3 L720.015 1377.99 L723.14 1377.99 L723.14 1370.63 L727.422 1370.63 Z" fill="#000000" fill-rule="nonzero" fill-opacity="1" /></svg>
