<?xml version="1.0" encoding="utf-8"?>
<svg xmlns="http://www.w3.org/2000/svg" xmlns:xlink="http://www.w3.org/1999/xlink" width="600" height="400" viewBox="0 0 2400 1600">
<defs>
  <clipPath id="clip030">
    <rect x="0" y="0" width="2400" height="1600"/>
  </clipPath>
</defs>
<path clip-path="url(#clip030)" d="M0 1600 L2400 1600 L2400 0 L0 0  Z" fill="#ffffff" fill-rule="evenodd" fill-opacity="1"/>
<defs>
  <clipPath id="clip031">
    <rect x="480" y="0" width="1681" height="1600"/>
  </clipPath>
</defs>
<path clip-path="url(#clip030)" d="M147.709 1486.45 L2352.76 1486.45 L2352.76 47.2441 L147.709 47.2441  Z" fill="#ffffff" fill-rule="evenodd" fill-opacity="1"/>
<defs>
  <clipPath id="clip032">
    <rect x="147" y="47" width="2206" height="1440"/>
  </clipPath>
</defs>
<polyline clip-path="url(#clip032)" style="stroke:#000000; stroke-linecap:round; stroke-linejoin:round; stroke-width:2; stroke-opacity:0.1; fill:none" points="183.784,1486.45 183.784,47.2441 "/>
<polyline clip-path="url(#clip032)" style="stroke:#000000; stroke-linecap:round; stroke-linejoin:round; stroke-width:2; stroke-opacity:0.1; fill:none" points="710.425,1486.45 710.425,47.2441 "/>
<polyline clip-path="url(#clip032)" style="stroke:#000000; stroke-linecap:round; stroke-linejoin:round; stroke-width:2; stroke-opacity:0.1; fill:none" points="1237.07,1486.45 1237.07,47.2441 "/>
<polyline clip-path="url(#clip032)" style="stroke:#000000; stroke-linecap:round; stroke-linejoin:round; stroke-width:2; stroke-opacity:0.1; fill:none" points="1763.71,1486.45 1763.71,47.2441 "/>
<polyline clip-path="url(#clip032)" style="stroke:#000000; stroke-linecap:round; stroke-linejoin:round; stroke-width:2; stroke-opacity:0.1; fill:none" points="2290.35,1486.45 2290.35,47.2441 "/>
<polyline clip-path="url(#clip030)" style="stroke:#000000; stroke-linecap:round; stroke-linejoin:round; stroke-width:4; stroke-opacity:1; fill:none" points="147.709,1486.45 2352.76,1486.45 "/>
<polyline clip-path="url(#clip030)" style="stroke:#000000; stroke-linecap:round; stroke-linejoin:round; stroke-width:4; stroke-opacity:1; fill:none" points="183.784,1486.45 183.784,1467.55 "/>
<polyline clip-path="url(#clip030)" style="stroke:#000000; stroke-linecap:round; stroke-linejoin:round; stroke-width:4; stroke-opacity:1; fill:none" points="710.425,1486.45 710.425,1467.55 "/>
<polyline clip-path="url(#clip030)" style="stroke:#000000; stroke-linecap:round; stroke-linejoin:round; stroke-width:4; stroke-opacity:1; fill:none" points="1237.07,1486.45 1237.07,1467.55 "/>
<polyline clip-path="url(#clip030)" style="stroke:#000000; stroke-linecap:round; stroke-linejoin:round; stroke-width:4; stroke-opacity:1; fill:none" points="1763.71,1486.45 1763.71,1467.55 "/>
<polyline clip-path="url(#clip030)" style="stroke:#000000; stroke-linecap:round; stroke-linejoin:round; stroke-width:4; stroke-opacity:1; fill:none" points="2290.35,1486.45 2290.35,1467.55 "/>
<path clip-path="url(#clip030)" d="M183.784 1517.37 Q180.173 1517.37 178.345 1520.93 Q176.539 1524.47 176.539 1531.6 Q176.539 1538.71 178.345 1542.27 Q180.173 1545.82 183.784 1545.82 Q187.419 1545.82 189.224 1542.27 Q191.053 1538.71 191.053 1531.6 Q191.053 1524.47 189.224 1520.93 Q187.419 1517.37 183.784 1517.37 M183.784 1513.66 Q189.594 1513.66 192.65 1518.27 Q195.729 1522.85 195.729 1531.6 Q195.729 1540.33 192.65 1544.94 Q189.594 1549.52 183.784 1549.52 Q177.974 1549.52 174.895 1544.94 Q171.84 1540.33 171.84 1531.6 Q171.84 1522.85 174.895 1518.27 Q177.974 1513.66 183.784 1513.66 Z" fill="#000000" fill-rule="nonzero" fill-opacity="1" /><path clip-path="url(#clip030)" d="M689.199 1544.91 L705.518 1544.91 L705.518 1548.85 L683.574 1548.85 L683.574 1544.91 Q686.236 1542.16 690.819 1537.53 Q695.426 1532.88 696.606 1531.53 Q698.851 1529.01 699.731 1527.27 Q700.634 1525.51 700.634 1523.82 Q700.634 1521.07 698.689 1519.33 Q696.768 1517.6 693.666 1517.6 Q691.467 1517.6 689.014 1518.36 Q686.583 1519.13 683.805 1520.68 L683.805 1515.95 Q686.629 1514.82 689.083 1514.24 Q691.537 1513.66 693.574 1513.66 Q698.944 1513.66 702.138 1516.35 Q705.333 1519.03 705.333 1523.52 Q705.333 1525.65 704.523 1527.57 Q703.736 1529.47 701.629 1532.07 Q701.051 1532.74 697.949 1535.95 Q694.847 1539.15 689.199 1544.91 Z" fill="#000000" fill-rule="nonzero" fill-opacity="1" /><path clip-path="url(#clip030)" d="M725.333 1517.37 Q721.722 1517.37 719.893 1520.93 Q718.087 1524.47 718.087 1531.6 Q718.087 1538.71 719.893 1542.27 Q721.722 1545.82 725.333 1545.82 Q728.967 1545.82 730.773 1542.27 Q732.601 1538.71 732.601 1531.6 Q732.601 1524.47 730.773 1520.93 Q728.967 1517.37 725.333 1517.37 M725.333 1513.66 Q731.143 1513.66 734.198 1518.27 Q737.277 1522.85 737.277 1531.6 Q737.277 1540.33 734.198 1544.94 Q731.143 1549.52 725.333 1549.52 Q719.523 1549.52 716.444 1544.94 Q713.388 1540.33 713.388 1531.6 Q713.388 1522.85 716.444 1518.27 Q719.523 1513.66 725.333 1513.66 Z" fill="#000000" fill-rule="nonzero" fill-opacity="1" /><path clip-path="url(#clip030)" d="M1225.24 1518.36 L1213.43 1536.81 L1225.24 1536.81 L1225.24 1518.36 M1224.01 1514.29 L1229.89 1514.29 L1229.89 1536.81 L1234.82 1536.81 L1234.82 1540.7 L1229.89 1540.7 L1229.89 1548.85 L1225.24 1548.85 L1225.24 1540.7 L1209.64 1540.7 L1209.64 1536.19 L1224.01 1514.29 Z" fill="#000000" fill-rule="nonzero" fill-opacity="1" /><path clip-path="url(#clip030)" d="M1252.55 1517.37 Q1248.94 1517.37 1247.11 1520.93 Q1245.31 1524.47 1245.31 1531.6 Q1245.31 1538.71 1247.11 1542.27 Q1248.94 1545.82 1252.55 1545.82 Q1256.19 1545.82 1257.99 1542.27 Q1259.82 1538.71 1259.82 1531.6 Q1259.82 1524.47 1257.99 1520.93 Q1256.19 1517.37 1252.55 1517.37 M1252.55 1513.66 Q1258.36 1513.66 1261.42 1518.27 Q1264.5 1522.85 1264.5 1531.6 Q1264.5 1540.33 1261.42 1544.94 Q1258.36 1549.52 1252.55 1549.52 Q1246.74 1549.52 1243.66 1544.94 Q1240.61 1540.33 1240.61 1531.6 Q1240.61 1522.85 1243.66 1518.27 Q1246.74 1513.66 1252.55 1513.66 Z" fill="#000000" fill-rule="nonzero" fill-opacity="1" /><path clip-path="url(#clip030)" d="M1749.11 1529.7 Q1745.96 1529.7 1744.11 1531.86 Q1742.28 1534.01 1742.28 1537.76 Q1742.28 1541.49 1744.11 1543.66 Q1745.96 1545.82 1749.11 1545.82 Q1752.26 1545.82 1754.09 1543.66 Q1755.94 1541.49 1755.94 1537.76 Q1755.94 1534.01 1754.09 1531.86 Q1752.26 1529.7 1749.11 1529.7 M1758.4 1515.05 L1758.4 1519.31 Q1756.64 1518.48 1754.83 1518.04 Q1753.05 1517.6 1751.29 1517.6 Q1746.66 1517.6 1744.21 1520.72 Q1741.78 1523.85 1741.43 1530.17 Q1742.79 1528.15 1744.85 1527.09 Q1746.91 1526 1749.39 1526 Q1754.6 1526 1757.61 1529.17 Q1760.64 1532.32 1760.64 1537.76 Q1760.64 1543.08 1757.49 1546.3 Q1754.34 1549.52 1749.11 1549.52 Q1743.12 1549.52 1739.95 1544.94 Q1736.78 1540.33 1736.78 1531.6 Q1736.78 1523.41 1740.66 1518.55 Q1744.55 1513.66 1751.1 1513.66 Q1752.86 1513.66 1754.65 1514.01 Q1756.45 1514.36 1758.4 1515.05 Z" fill="#000000" fill-rule="nonzero" fill-opacity="1" /><path clip-path="url(#clip030)" d="M1778.7 1517.37 Q1775.09 1517.37 1773.26 1520.93 Q1771.45 1524.47 1771.45 1531.6 Q1771.45 1538.71 1773.26 1542.27 Q1775.09 1545.82 1778.7 1545.82 Q1782.33 1545.82 1784.14 1542.27 Q1785.96 1538.71 1785.96 1531.6 Q1785.96 1524.47 1784.14 1520.93 Q1782.33 1517.37 1778.7 1517.37 M1778.7 1513.66 Q1784.51 1513.66 1787.56 1518.27 Q1790.64 1522.85 1790.64 1531.6 Q1790.64 1540.33 1787.56 1544.94 Q1784.51 1549.52 1778.7 1549.52 Q1772.89 1549.52 1769.81 1544.94 Q1766.75 1540.33 1766.75 1531.6 Q1766.75 1522.85 1769.81 1518.27 Q1772.89 1513.66 1778.7 1513.66 Z" fill="#000000" fill-rule="nonzero" fill-opacity="1" /><path clip-path="url(#clip030)" d="M2275.22 1532.44 Q2271.89 1532.44 2269.97 1534.22 Q2268.07 1536 2268.07 1539.13 Q2268.07 1542.25 2269.97 1544.03 Q2271.89 1545.82 2275.22 1545.82 Q2278.56 1545.82 2280.48 1544.03 Q2282.4 1542.23 2282.4 1539.13 Q2282.4 1536 2280.48 1534.22 Q2278.58 1532.44 2275.22 1532.44 M2270.55 1530.45 Q2267.54 1529.7 2265.85 1527.64 Q2264.18 1525.58 2264.18 1522.62 Q2264.18 1518.48 2267.12 1516.07 Q2270.08 1513.66 2275.22 1513.66 Q2280.38 1513.66 2283.32 1516.07 Q2286.26 1518.48 2286.26 1522.62 Q2286.26 1525.58 2284.57 1527.64 Q2282.91 1529.7 2279.92 1530.45 Q2283.3 1531.23 2285.18 1533.52 Q2287.07 1535.82 2287.07 1539.13 Q2287.07 1544.15 2283.99 1546.83 Q2280.94 1549.52 2275.22 1549.52 Q2269.5 1549.52 2266.43 1546.83 Q2263.37 1544.15 2263.37 1539.13 Q2263.37 1535.82 2265.27 1533.52 Q2267.17 1531.23 2270.55 1530.45 M2268.83 1523.06 Q2268.83 1525.75 2270.5 1527.25 Q2272.19 1528.76 2275.22 1528.76 Q2278.23 1528.76 2279.92 1527.25 Q2281.63 1525.75 2281.63 1523.06 Q2281.63 1520.38 2279.92 1518.87 Q2278.23 1517.37 2275.22 1517.37 Q2272.19 1517.37 2270.5 1518.87 Q2268.83 1520.38 2268.83 1523.06 Z" fill="#000000" fill-rule="nonzero" fill-opacity="1" /><path clip-path="url(#clip030)" d="M2305.38 1517.37 Q2301.77 1517.37 2299.94 1520.93 Q2298.14 1524.47 2298.14 1531.6 Q2298.14 1538.71 2299.94 1542.27 Q2301.77 1545.82 2305.38 1545.82 Q2309.02 1545.82 2310.82 1542.27 Q2312.65 1538.71 2312.65 1531.6 Q2312.65 1524.47 2310.82 1520.93 Q2309.02 1517.37 2305.38 1517.37 M2305.38 1513.66 Q2311.19 1513.66 2314.25 1518.27 Q2317.33 1522.85 2317.33 1531.6 Q2317.33 1540.33 2314.25 1544.94 Q2311.19 1549.52 2305.38 1549.52 Q2299.57 1549.52 2296.49 1544.94 Q2293.44 1540.33 2293.44 1531.6 Q2293.44 1522.85 2296.49 1518.27 Q2299.57 1513.66 2305.38 1513.66 Z" fill="#000000" fill-rule="nonzero" fill-opacity="1" /><polyline clip-path="url(#clip032)" style="stroke:#000000; stroke-linecap:round; stroke-linejoin:round; stroke-width:2; stroke-opacity:0.1; fill:none" points="147.709,1179.14 2352.76,1179.14 "/>
<polyline clip-path="url(#clip032)" style="stroke:#000000; stroke-linecap:round; stroke-linejoin:round; stroke-width:2; stroke-opacity:0.1; fill:none" points="147.709,842.098 2352.76,842.098 "/>
<polyline clip-path="url(#clip032)" style="stroke:#000000; stroke-linecap:round; stroke-linejoin:round; stroke-width:2; stroke-opacity:0.1; fill:none" points="147.709,505.057 2352.76,505.057 "/>
<polyline clip-path="url(#clip032)" style="stroke:#000000; stroke-linecap:round; stroke-linejoin:round; stroke-width:2; stroke-opacity:0.1; fill:none" points="147.709,168.015 2352.76,168.015 "/>
<polyline clip-path="url(#clip030)" style="stroke:#000000; stroke-linecap:round; stroke-linejoin:round; stroke-width:4; stroke-opacity:1; fill:none" points="147.709,1486.45 147.709,47.2441 "/>
<polyline clip-path="url(#clip030)" style="stroke:#000000; stroke-linecap:round; stroke-linejoin:round; stroke-width:4; stroke-opacity:1; fill:none" points="147.709,1179.14 166.607,1179.14 "/>
<polyline clip-path="url(#clip030)" style="stroke:#000000; stroke-linecap:round; stroke-linejoin:round; stroke-width:4; stroke-opacity:1; fill:none" points="147.709,842.098 166.607,842.098 "/>
<polyline clip-path="url(#clip030)" style="stroke:#000000; stroke-linecap:round; stroke-linejoin:round; stroke-width:4; stroke-opacity:1; fill:none" points="147.709,505.057 166.607,505.057 "/>
<polyline clip-path="url(#clip030)" style="stroke:#000000; stroke-linecap:round; stroke-linejoin:round; stroke-width:4; stroke-opacity:1; fill:none" points="147.709,168.015 166.607,168.015 "/>
<path clip-path="url(#clip030)" d="M50.9921 1179.59 L80.6679 1179.59 L80.6679 1183.53 L50.9921 1183.53 L50.9921 1179.59 Z" fill="#000000" fill-rule="nonzero" fill-opacity="1" /><path clip-path="url(#clip030)" d="M90.8067 1161.86 L109.163 1161.86 L109.163 1165.8 L95.0891 1165.8 L95.0891 1174.27 Q96.1076 1173.92 97.1261 1173.76 Q98.1447 1173.57 99.1632 1173.57 Q104.95 1173.57 108.33 1176.74 Q111.709 1179.92 111.709 1185.33 Q111.709 1190.91 108.237 1194.01 Q104.765 1197.09 98.4456 1197.09 Q96.2697 1197.09 94.0012 1196.72 Q91.7558 1196.35 89.3484 1195.61 L89.3484 1190.91 Q91.4317 1192.05 93.6539 1192.6 Q95.8761 1193.16 98.353 1193.16 Q102.358 1193.16 104.696 1191.05 Q107.033 1188.94 107.033 1185.33 Q107.033 1181.72 104.696 1179.61 Q102.358 1177.51 98.353 1177.51 Q96.478 1177.51 94.603 1177.92 Q92.7512 1178.34 90.8067 1179.22 L90.8067 1161.86 Z" fill="#000000" fill-rule="nonzero" fill-opacity="1" /><path clip-path="url(#clip030)" d="M99.765 827.897 Q96.1539 827.897 94.3252 831.462 Q92.5197 835.003 92.5197 842.133 Q92.5197 849.24 94.3252 852.804 Q96.1539 856.346 99.765 856.346 Q103.399 856.346 105.205 852.804 Q107.033 849.24 107.033 842.133 Q107.033 835.003 105.205 831.462 Q103.399 827.897 99.765 827.897 M99.765 824.193 Q105.575 824.193 108.631 828.8 Q111.709 833.383 111.709 842.133 Q111.709 850.86 108.631 855.466 Q105.575 860.05 99.765 860.05 Q93.9549 860.05 90.8762 855.466 Q87.8206 850.86 87.8206 842.133 Q87.8206 833.383 90.8762 828.8 Q93.9549 824.193 99.765 824.193 Z" fill="#000000" fill-rule="nonzero" fill-opacity="1" /><path clip-path="url(#clip030)" d="M90.8067 487.777 L109.163 487.777 L109.163 491.712 L95.0891 491.712 L95.0891 500.184 Q96.1076 499.837 97.1261 499.675 Q98.1447 499.489 99.1632 499.489 Q104.95 499.489 108.33 502.661 Q111.709 505.832 111.709 511.249 Q111.709 516.827 108.237 519.929 Q104.765 523.008 98.4456 523.008 Q96.2697 523.008 94.0012 522.637 Q91.7558 522.267 89.3484 521.526 L89.3484 516.827 Q91.4317 517.962 93.6539 518.517 Q95.8761 519.073 98.353 519.073 Q102.358 519.073 104.696 516.966 Q107.033 514.86 107.033 511.249 Q107.033 507.638 104.696 505.531 Q102.358 503.425 98.353 503.425 Q96.478 503.425 94.603 503.841 Q92.7512 504.258 90.8067 505.138 L90.8067 487.777 Z" fill="#000000" fill-rule="nonzero" fill-opacity="1" /><path clip-path="url(#clip030)" d="M60.4134 181.36 L68.0522 181.36 L68.0522 154.994 L59.7421 156.661 L59.7421 152.401 L68.0059 150.735 L72.6818 150.735 L72.6818 181.36 L80.3207 181.36 L80.3207 185.295 L60.4134 185.295 L60.4134 181.36 Z" fill="#000000" fill-rule="nonzero" fill-opacity="1" /><path clip-path="url(#clip030)" d="M99.765 153.813 Q96.1539 153.813 94.3252 157.378 Q92.5197 160.92 92.5197 168.049 Q92.5197 175.156 94.3252 178.721 Q96.1539 182.262 99.765 182.262 Q103.399 182.262 105.205 178.721 Q107.033 175.156 107.033 168.049 Q107.033 160.92 105.205 157.378 Q103.399 153.813 99.765 153.813 M99.765 150.11 Q105.575 150.11 108.631 154.716 Q111.709 159.3 111.709 168.049 Q111.709 176.776 108.631 181.383 Q105.575 185.966 99.765 185.966 Q93.9549 185.966 90.8762 181.383 Q87.8206 176.776 87.8206 168.049 Q87.8206 159.3 90.8762 154.716 Q93.9549 150.11 99.765 150.11 Z" fill="#000000" fill-rule="nonzero" fill-opacity="1" /><path clip-path="url(#clip032)" d="M210.116 1120.96 L236.448 1122.14 L262.78 1108.89 L289.113 1109.85 L315.445 1120.72 L341.777 1117.28 L368.109 1085.67 L394.441 1084.5 L420.773 1098.5 L447.105 1117.59 L473.437 1119.77 L499.769 1113.95 L526.101 1077.08 L552.433 1066.23 L578.765 1109.52 L605.097 1147.32 L631.429 1183.3 L657.761 1234.49 L684.093 1251.4 L710.425 1297.66 L736.758 1346.46 L763.09 1371.89 L789.422 1380.31 L815.754 1415.04 L842.086 1425 L868.418 1421.85 L894.75 1437.79 L921.082 1429.46 L947.414 1443.78 L973.746 1434.5 L1000.08 1434.89 L1026.41 1410.76 L1052.74 1397.54 L1079.07 1399.47 L1105.41 1377.82 L1131.74 1333.05 L1158.07 1299.92 L1184.4 1256.01 L1210.73 1195.3 L1237.07 1136.89 L1263.4 1064.18 L1289.73 1011.83 L1316.06 963.628 L1342.39 902.996 L1368.73 855.955 L1395.06 825.303 L1421.39 798.685 L1447.72 780.223 L1474.06 815.3 L1500.39 810.226 L1526.72 815.434 L1553.05 847.373 L1579.38 877.871 L1605.72 901.664 L1632.05 943.272 L1658.38 969.57 L1684.71 995.43 L1711.04 1013.13 L1737.38 1028.73 L1763.71 1084.78 L1790.04 1131.54 L1816.37 1186.83 L1842.7 1249.08 L1869.04 1254.51 L1895.37 1292.93 L1921.7 1339.43 L1948.03 1399.49 L1974.36 1400.92 L2000.7 1387.94 L2027.03 1360.48 L2053.36 1339.1 L2079.69 1334.77 L2106.02 1314.62 L2132.36 1281.04 L2158.69 1250.89 L2185.02 1223.5 L2211.35 1198.57 L2237.68 1232.75 L2264.02 1223.68 L2290.35 1236.87 L2290.35 443.563 L2264.02 479.819 L2237.68 484.384 L2211.35 519.165 L2185.02 542.331 L2158.69 557.637 L2132.36 614.935 L2106.02 668.164 L2079.69 693.276 L2053.36 709.637 L2027.03 728.488 L2000.7 755.665 L1974.36 757.951 L1948.03 766.563 L1921.7 751.214 L1895.37 698.442 L1869.04 660.782 L1842.7 609.33 L1816.37 545.932 L1790.04 476.277 L1763.71 395.706 L1737.38 368.836 L1711.04 296.495 L1684.71 226.925 L1658.38 207.522 L1632.05 182.403 L1605.72 164.908 L1579.38 133.195 L1553.05 112.825 L1526.72 88.8753 L1500.39 87.9763 L1474.06 99.3206 L1447.72 152.849 L1421.39 190.767 L1395.06 225.992 L1368.73 271.212 L1342.39 320.213 L1316.06 397.006 L1289.73 444.444 L1263.4 508.389 L1237.07 541.124 L1210.73 617.337 L1184.4 679.554 L1158.07 706.062 L1131.74 733.708 L1105.41 776.459 L1079.07 800.055 L1052.74 860.058 L1026.41 850.379 L1000.08 879.374 L973.746 864.967 L947.414 845.214 L921.082 851.31 L894.75 823.293 L868.418 822.091 L842.086 768.295 L815.754 745.934 L789.422 709.953 L763.09 637.412 L736.758 594.956 L710.425 562.189 L684.093 539.023 L657.761 513.487 L631.429 492.298 L605.097 466.246 L578.765 457.333 L552.433 448.76 L526.101 450.137 L499.769 444.308 L473.437 458.437 L447.105 478.619 L420.773 535.327 L394.441 531.015 L368.109 567.398 L341.777 578.96 L315.445 617.782 L289.113 631.678 L262.78 623.802 L236.448 620.873 L210.116 630.729  Z" fill="#009af9" fill-rule="evenodd" fill-opacity="0.5"/>
<polyline clip-path="url(#clip032)" style="stroke:#009af9; stroke-linecap:round; stroke-linejoin:round; stroke-width:4; stroke-opacity:1; fill:none" points="210.116,875.844 236.448,871.505 262.78,866.346 289.113,870.765 315.445,869.25 341.777,848.118 368.109,826.536 394.441,807.759 420.773,816.914 447.105,798.106 473.437,789.104 499.769,779.127 526.101,763.609 552.433,757.495 578.765,783.427 605.097,806.784 631.429,837.799 657.761,873.987 684.093,895.212 710.425,929.923 736.758,970.707 763.09,1004.65 789.422,1045.13 815.754,1080.49 842.086,1096.65 868.418,1121.97 894.75,1130.54 921.082,1140.39 947.414,1144.5 973.746,1149.73 1000.08,1157.13 1026.41,1130.57 1052.74,1128.8 1079.07,1099.77 1105.41,1077.14 1131.74,1033.38 1158.07,1002.99 1184.4,967.782 1210.73,906.32 1237.07,839.006 1263.4,786.283 1289.73,728.137 1316.06,680.317 1342.39,611.604 1368.73,563.583 1395.06,525.647 1421.39,494.726 1447.72,466.536 1474.06,457.311 1500.39,449.101 1526.72,452.154 1553.05,480.099 1579.38,505.533 1605.72,533.286 1632.05,562.837 1658.38,588.546 1684.71,611.178 1711.04,654.814 1737.38,698.785 1763.71,740.243 1790.04,803.909 1816.37,866.383 1842.7,929.203 1869.04,957.647 1895.37,995.684 1921.7,1045.32 1948.03,1083.03 1974.36,1079.44 2000.7,1071.8 2027.03,1044.48 2053.36,1024.37 2079.69,1014.02 2106.02,991.393 2132.36,947.988 2158.69,904.265 2185.02,882.918 2211.35,858.867 2237.68,858.566 2264.02,851.747 2290.35,840.218 "/>
<path clip-path="url(#clip032)" d="M210.116 861.631 L236.448 906.034 L262.78 903.152 L289.113 927.033 L315.445 986.102 L341.777 976.005 L368.109 974.351 L394.441 956.339 L420.773 920.709 L447.105 936.953 L473.437 888.536 L499.769 930.378 L526.101 913.694 L552.433 882.098 L578.765 803.544 L605.097 722.382 L631.429 712.96 L657.761 695.693 L684.093 668.732 L710.425 709.224 L736.758 743.335 L763.09 660.925 L789.422 709.471 L815.754 739.912 L842.086 742.944 L868.418 791.744 L894.75 812.558 L921.082 881.207 L947.414 949.065 L973.746 978.026 L1000.08 1004.01 L1026.41 1032.38 L1052.74 1081.15 L1079.07 1153.78 L1105.41 1176.8 L1131.74 1198.8 L1158.07 1254.72 L1184.4 1301.63 L1210.73 1389.38 L1237.07 1442.85 L1263.4 1421.52 L1289.73 1445.72 L1316.06 1440.19 L1342.39 1413.22 L1368.73 1277.44 L1395.06 1147.48 L1421.39 1193.2 L1447.72 1126.84 L1474.06 1083.04 L1500.39 970.9 L1526.72 877.813 L1553.05 810.66 L1579.38 810.569 L1605.72 832.054 L1632.05 765.254 L1658.38 696.816 L1684.71 682.017 L1711.04 662.827 L1737.38 558.3 L1763.71 552.757 L1790.04 516.438 L1816.37 549.312 L1842.7 604.11 L1869.04 646.921 L1895.37 640.25 L1921.7 658.946 L1948.03 794.454 L1974.36 901.925 L2000.7 945.373 L2027.03 961.223 L2053.36 1010.21 L2079.69 1027.1 L2106.02 1096.93 L2132.36 1141.33 L2158.69 1115.72 L2185.02 1091.7 L2211.35 1091.99 L2237.68 1065.11 L2264.02 1013.92 L2290.35 1010.82 L2290.35 789.513 L2264.02 815.1 L2237.68 869.944 L2211.35 904.239 L2185.02 896.688 L2158.69 923.862 L2132.36 952.544 L2106.02 908.62 L2079.69 824.604 L2053.36 814.983 L2027.03 804.465 L2000.7 746.924 L1974.36 692.793 L1948.03 610.482 L1921.7 467.937 L1895.37 436.623 L1869.04 468.728 L1842.7 455.472 L1816.37 375.099 L1790.04 342.219 L1763.71 348.849 L1737.38 356.756 L1711.04 481.499 L1684.71 513.162 L1658.38 528.243 L1632.05 583.081 L1605.72 632.06 L1579.38 661.985 L1553.05 631.022 L1526.72 707.164 L1500.39 772.011 L1474.06 892.062 L1447.72 929.545 L1421.39 999.465 L1395.06 984.994 L1368.73 1100.05 L1342.39 1214.37 L1316.06 1255.07 L1289.73 1253.78 L1263.4 1224.14 L1237.07 1281.08 L1210.73 1211.39 L1184.4 1130.67 L1158.07 1076.78 L1131.74 1032.29 L1105.41 984.778 L1079.07 980.268 L1052.74 898.445 L1026.41 853.54 L1000.08 827.91 L973.746 819.784 L947.414 778.862 L921.082 697.61 L894.75 621.195 L868.418 597.153 L842.086 556.456 L815.754 587.689 L789.422 535.84 L763.09 504.257 L736.758 571.616 L710.425 535.18 L684.093 483.172 L657.761 530.048 L631.429 527.181 L605.097 565.381 L578.765 611.39 L552.433 666.913 L526.101 732.914 L499.769 768.575 L473.437 737.963 L447.105 772.075 L420.773 734.572 L394.441 799.138 L368.109 772.664 L341.777 806.752 L315.445 817.065 L289.113 733.667 L262.78 700.986 L236.448 724.935 L210.116 657.897  Z" fill="#e26f46" fill-rule="evenodd" fill-opacity="0.5"/>
<polyline clip-path="url(#clip032)" style="stroke:#e26f46; stroke-linecap:round; stroke-linejoin:round; stroke-width:4; stroke-opacity:1; fill:none" points="210.116,759.764 236.448,815.485 262.78,802.069 289.113,830.35 315.445,901.583 341.777,891.378 368.109,873.507 394.441,877.739 420.773,827.641 447.105,854.514 473.437,813.249 499.769,849.477 526.101,823.304 552.433,774.506 578.765,707.467 605.097,643.882 631.429,620.071 657.761,612.87 684.093,575.952 710.425,622.202 736.758,657.476 763.09,582.591 789.422,622.656 815.754,663.801 842.086,649.7 868.418,694.449 894.75,716.877 921.082,789.408 947.414,863.964 973.746,898.905 1000.08,915.958 1026.41,942.961 1052.74,989.8 1079.07,1067.02 1105.41,1080.79 1131.74,1115.55 1158.07,1165.75 1184.4,1216.15 1210.73,1300.38 1237.07,1361.96 1263.4,1322.83 1289.73,1349.75 1316.06,1347.63 1342.39,1313.79 1368.73,1188.75 1395.06,1066.24 1421.39,1096.33 1447.72,1028.19 1474.06,987.552 1500.39,871.456 1526.72,792.488 1553.05,720.841 1579.38,736.277 1605.72,732.057 1632.05,674.168 1658.38,612.53 1684.71,597.589 1711.04,572.163 1737.38,457.528 1763.71,450.803 1790.04,429.328 1816.37,462.206 1842.7,529.791 1869.04,557.825 1895.37,538.437 1921.7,563.441 1948.03,702.468 1974.36,797.359 2000.7,846.148 2027.03,882.844 2053.36,912.594 2079.69,925.851 2106.02,1002.78 2132.36,1046.94 2158.69,1019.79 2185.02,994.194 2211.35,998.115 2237.68,967.525 2264.02,914.511 2290.35,900.168 "/>
<polyline clip-path="url(#clip032)" style="stroke:#3da44d; stroke-linecap:round; stroke-linejoin:round; stroke-width:4; stroke-opacity:1; fill:none" stroke-dasharray="16, 10" points="210.116,872.783 236.448,837.889 262.78,742.822 289.113,842.406 315.445,725.081 341.777,662.635 368.109,620.189 394.441,606.872 420.773,619.379 447.105,577.184 473.437,688.605 499.769,736.781 526.101,654.44 552.433,678.636 578.765,651.301 605.097,627.799 631.429,683.591 657.761,695.476 684.093,857.581 710.425,852.507 736.758,996.762 763.09,1080.19 789.422,1023.82 815.754,1065.5 842.086,1057 868.418,1163.39 894.75,1137.43 921.082,1096.1 947.414,1098.42 973.746,1149.58 1000.08,1102.49 1026.41,1065.12 1052.74,1264.39 1079.07,1240.59 1105.41,1183.71 1131.74,1239.94 1158.07,1138.77 1184.4,1056.26 1210.73,1060.4 1237.07,970.003 1263.4,915.847 1289.73,820.287 1316.06,751.779 1342.39,600.042 1368.73,643.112 1395.06,547.695 1421.39,640.037 1447.72,558.183 1474.06,520.567 1500.39,531.328 1526.72,473.237 1553.05,418.987 1579.38,417.504 1605.72,501.873 1632.05,478.679 1658.38,507.94 1684.71,549.74 1711.04,613.276 1737.38,615.78 1763.71,738.142 1790.04,858.186 1816.37,962.021 1842.7,1101.82 1869.04,1068.88 1895.37,1102.1 1921.7,1157.15 1948.03,1282.15 1974.36,1313.36 2000.7,1427.23 2027.03,1367.04 2053.36,1327.24 2079.69,1229.63 2106.02,1172.17 2132.36,1114.66 2158.69,1018.13 2185.02,1031.71 2211.35,929.365 2237.68,936.07 2264.02,1061.35 2290.35,969.282 "/>
<polyline clip-path="url(#clip032)" style="stroke:#c271d2; stroke-linecap:round; stroke-linejoin:round; stroke-width:4; stroke-opacity:1; fill:none" stroke-dasharray="16, 10" points="210.116,792.854 236.448,824.216 262.78,874.644 289.113,835.754 315.445,845.937 341.777,864.705 368.109,855.875 394.441,917.385 420.773,957.176 447.105,961.323 473.437,798.999 499.769,801.229 526.101,842.818 552.433,854.061 578.765,773.076 605.097,689.971 631.429,687 657.761,657.752 684.093,686.497 710.425,670.572 736.758,638.811 763.09,559.773 789.422,613.334 815.754,685.891 842.086,590.665 868.418,649.198 894.75,642.131 921.082,703.879 947.414,825.101 973.746,896.935 1000.08,1004.07 1026.41,1003.29 1052.74,1014.65 1079.07,1035.95 1105.41,1048.44 1131.74,1110.35 1158.07,1142.07 1184.4,1194.43 1210.73,1300.19 1237.07,1430.6 1263.4,1381.59 1289.73,1402.28 1316.06,1357.79 1342.39,1272.02 1368.73,1129.78 1395.06,1032.31 1421.39,1128.64 1447.72,1088.89 1474.06,998.16 1500.39,876.568 1526.72,863.479 1553.05,783.726 1579.38,709.312 1605.72,709.514 1632.05,720.264 1658.38,569.636 1684.71,587.595 1711.04,568.004 1737.38,532.469 1763.71,459.98 1790.04,399.027 1816.37,405.072 1842.7,553.429 1869.04,588.671 1895.37,532.531 1921.7,525.46 1948.03,727.086 1974.36,842.111 2000.7,868.808 2027.03,873.871 2053.36,904.433 2079.69,877.583 2106.02,1026 2132.36,1095.37 2158.69,1019.56 2185.02,939.331 2211.35,971.397 2237.68,1013.01 2264.02,910.618 2290.35,932.191 "/>
<path clip-path="url(#clip030)" d="M221.211 354.418 L681.483 354.418 L681.483 95.2176 L221.211 95.2176  Z" fill="#ffffff" fill-rule="evenodd" fill-opacity="1"/>
<polyline clip-path="url(#clip030)" style="stroke:#000000; stroke-linecap:round; stroke-linejoin:round; stroke-width:4; stroke-opacity:1; fill:none" points="221.211,354.418 681.483,354.418 681.483,95.2176 221.211,95.2176 221.211,354.418 "/>
<polyline clip-path="url(#clip030)" style="stroke:#009af9; stroke-linecap:round; stroke-linejoin:round; stroke-width:4; stroke-opacity:1; fill:none" points="245.711,147.058 392.715,147.058 "/>
<path clip-path="url(#clip030)" d="M421.891 133.62 L421.891 146.606 L427.771 146.606 Q431.034 146.606 432.817 144.916 Q434.599 143.227 434.599 140.102 Q434.599 137 432.817 135.31 Q431.034 133.62 427.771 133.62 L421.891 133.62 M417.215 129.778 L427.771 129.778 Q433.581 129.778 436.544 132.416 Q439.53 135.032 439.53 140.102 Q439.53 145.217 436.544 147.833 Q433.581 150.449 427.771 150.449 L421.891 150.449 L421.891 164.338 L417.215 164.338 L417.215 129.778 Z" fill="#000000" fill-rule="nonzero" fill-opacity="1" /><path clip-path="url(#clip030)" d="M445.803 129.778 L465.664 129.778 L465.664 133.713 L450.479 133.713 L450.479 143.898 L464.182 143.898 L464.182 147.833 L450.479 147.833 L450.479 164.338 L445.803 164.338 L445.803 129.778 Z" fill="#000000" fill-rule="nonzero" fill-opacity="1" /><path clip-path="url(#clip030)" d="M504.483 139.176 L504.483 143.203 Q502.678 142.277 500.733 141.815 Q498.789 141.352 496.705 141.352 Q493.534 141.352 491.937 142.324 Q490.363 143.296 490.363 145.24 Q490.363 146.722 491.497 147.578 Q492.631 148.412 496.057 149.176 L497.516 149.5 Q502.053 150.472 503.951 152.254 Q505.872 154.014 505.872 157.185 Q505.872 160.796 503.002 162.902 Q500.154 165.009 495.154 165.009 Q493.071 165.009 490.803 164.592 Q488.557 164.199 486.057 163.388 L486.057 158.99 Q488.418 160.217 490.71 160.842 Q493.002 161.444 495.247 161.444 Q498.256 161.444 499.877 160.426 Q501.497 159.384 501.497 157.509 Q501.497 155.773 500.316 154.847 Q499.159 153.921 495.201 153.064 L493.719 152.717 Q489.761 151.884 488.002 150.171 Q486.242 148.435 486.242 145.426 Q486.242 141.768 488.835 139.778 Q491.428 137.787 496.196 137.787 Q498.557 137.787 500.641 138.134 Q502.724 138.481 504.483 139.176 Z" fill="#000000" fill-rule="nonzero" fill-opacity="1" /><path clip-path="url(#clip030)" d="M532.839 143.389 Q534.437 140.518 536.659 139.153 Q538.881 137.787 541.89 137.787 Q545.941 137.787 548.14 140.634 Q550.339 143.458 550.339 148.689 L550.339 164.338 L546.057 164.338 L546.057 148.828 Q546.057 145.102 544.738 143.296 Q543.418 141.49 540.71 141.49 Q537.4 141.49 535.478 143.69 Q533.557 145.889 533.557 149.685 L533.557 164.338 L529.275 164.338 L529.275 148.828 Q529.275 145.078 527.955 143.296 Q526.636 141.49 523.881 141.49 Q520.617 141.49 518.696 143.713 Q516.775 145.912 516.775 149.685 L516.775 164.338 L512.492 164.338 L512.492 138.412 L516.775 138.412 L516.775 142.44 Q518.233 140.055 520.27 138.921 Q522.307 137.787 525.108 137.787 Q527.932 137.787 529.9 139.222 Q531.89 140.657 532.839 143.389 Z" fill="#000000" fill-rule="nonzero" fill-opacity="1" /><path clip-path="url(#clip030)" d="M568.881 141.398 Q565.455 141.398 563.464 144.083 Q561.474 146.745 561.474 151.398 Q561.474 156.051 563.441 158.736 Q565.432 161.398 568.881 161.398 Q572.284 161.398 574.274 158.713 Q576.265 156.027 576.265 151.398 Q576.265 146.791 574.274 144.106 Q572.284 141.398 568.881 141.398 M568.881 137.787 Q574.436 137.787 577.608 141.398 Q580.779 145.009 580.779 151.398 Q580.779 157.764 577.608 161.398 Q574.436 165.009 568.881 165.009 Q563.302 165.009 560.131 161.398 Q556.983 157.764 556.983 151.398 Q556.983 145.009 560.131 141.398 Q563.302 137.787 568.881 137.787 Z" fill="#000000" fill-rule="nonzero" fill-opacity="1" /><path clip-path="url(#clip030)" d="M597.885 141.398 Q594.459 141.398 592.469 144.083 Q590.478 146.745 590.478 151.398 Q590.478 156.051 592.446 158.736 Q594.436 161.398 597.885 161.398 Q601.288 161.398 603.279 158.713 Q605.27 156.027 605.27 151.398 Q605.27 146.791 603.279 144.106 Q601.288 141.398 597.885 141.398 M597.885 137.787 Q603.441 137.787 606.612 141.398 Q609.783 145.009 609.783 151.398 Q609.783 157.764 606.612 161.398 Q603.441 165.009 597.885 165.009 Q592.307 165.009 589.135 161.398 Q585.987 157.764 585.987 151.398 Q585.987 145.009 589.135 141.398 Q592.307 137.787 597.885 137.787 Z" fill="#000000" fill-rule="nonzero" fill-opacity="1" /><path clip-path="url(#clip030)" d="M621.057 131.051 L621.057 138.412 L629.83 138.412 L629.83 141.722 L621.057 141.722 L621.057 155.796 Q621.057 158.967 621.913 159.87 Q622.793 160.773 625.455 160.773 L629.83 160.773 L629.83 164.338 L625.455 164.338 Q620.524 164.338 618.649 162.509 Q616.774 160.657 616.774 155.796 L616.774 141.722 L613.649 141.722 L613.649 138.412 L616.774 138.412 L616.774 131.051 L621.057 131.051 Z" fill="#000000" fill-rule="nonzero" fill-opacity="1" /><path clip-path="url(#clip030)" d="M656.982 148.689 L656.982 164.338 L652.723 164.338 L652.723 148.828 Q652.723 145.148 651.288 143.319 Q649.853 141.49 646.982 141.49 Q643.533 141.49 641.543 143.69 Q639.552 145.889 639.552 149.685 L639.552 164.338 L635.269 164.338 L635.269 128.319 L639.552 128.319 L639.552 142.44 Q641.08 140.102 643.14 138.944 Q645.223 137.787 647.931 137.787 Q652.399 137.787 654.691 140.565 Q656.982 143.319 656.982 148.689 Z" fill="#000000" fill-rule="nonzero" fill-opacity="1" /><polyline clip-path="url(#clip030)" style="stroke:#e26f46; stroke-linecap:round; stroke-linejoin:round; stroke-width:4; stroke-opacity:1; fill:none" points="245.711,198.898 392.715,198.898 "/>
<path clip-path="url(#clip030)" d="M421.891 185.46 L421.891 198.446 L427.771 198.446 Q431.034 198.446 432.817 196.756 Q434.599 195.067 434.599 191.942 Q434.599 188.84 432.817 187.15 Q431.034 185.46 427.771 185.46 L421.891 185.46 M417.215 181.618 L427.771 181.618 Q433.581 181.618 436.544 184.256 Q439.53 186.872 439.53 191.942 Q439.53 197.057 436.544 199.673 Q433.581 202.289 427.771 202.289 L421.891 202.289 L421.891 216.178 L417.215 216.178 L417.215 181.618 Z" fill="#000000" fill-rule="nonzero" fill-opacity="1" /><path clip-path="url(#clip030)" d="M445.803 181.618 L465.664 181.618 L465.664 185.553 L450.479 185.553 L450.479 195.738 L464.182 195.738 L464.182 199.673 L450.479 199.673 L450.479 216.178 L445.803 216.178 L445.803 181.618 Z" fill="#000000" fill-rule="nonzero" fill-opacity="1" /><path clip-path="url(#clip030)" d="M504.483 191.016 L504.483 195.043 Q502.678 194.117 500.733 193.655 Q498.789 193.192 496.705 193.192 Q493.534 193.192 491.937 194.164 Q490.363 195.136 490.363 197.08 Q490.363 198.562 491.497 199.418 Q492.631 200.252 496.057 201.016 L497.516 201.34 Q502.053 202.312 503.951 204.094 Q505.872 205.854 505.872 209.025 Q505.872 212.636 503.002 214.742 Q500.154 216.849 495.154 216.849 Q493.071 216.849 490.803 216.432 Q488.557 216.039 486.057 215.228 L486.057 210.83 Q488.418 212.057 490.71 212.682 Q493.002 213.284 495.247 213.284 Q498.256 213.284 499.877 212.266 Q501.497 211.224 501.497 209.349 Q501.497 207.613 500.316 206.687 Q499.159 205.761 495.201 204.904 L493.719 204.557 Q489.761 203.724 488.002 202.011 Q486.242 200.275 486.242 197.266 Q486.242 193.608 488.835 191.618 Q491.428 189.627 496.196 189.627 Q498.557 189.627 500.641 189.974 Q502.724 190.321 504.483 191.016 Z" fill="#000000" fill-rule="nonzero" fill-opacity="1" /><path clip-path="url(#clip030)" d="M532.839 195.229 Q534.437 192.358 536.659 190.993 Q538.881 189.627 541.89 189.627 Q545.941 189.627 548.14 192.474 Q550.339 195.298 550.339 200.529 L550.339 216.178 L546.057 216.178 L546.057 200.668 Q546.057 196.942 544.738 195.136 Q543.418 193.33 540.71 193.33 Q537.4 193.33 535.478 195.53 Q533.557 197.729 533.557 201.525 L533.557 216.178 L529.275 216.178 L529.275 200.668 Q529.275 196.918 527.955 195.136 Q526.636 193.33 523.881 193.33 Q520.617 193.33 518.696 195.553 Q516.775 197.752 516.775 201.525 L516.775 216.178 L512.492 216.178 L512.492 190.252 L516.775 190.252 L516.775 194.28 Q518.233 191.895 520.27 190.761 Q522.307 189.627 525.108 189.627 Q527.932 189.627 529.9 191.062 Q531.89 192.497 532.839 195.229 Z" fill="#000000" fill-rule="nonzero" fill-opacity="1" /><path clip-path="url(#clip030)" d="M568.881 193.238 Q565.455 193.238 563.464 195.923 Q561.474 198.585 561.474 203.238 Q561.474 207.891 563.441 210.576 Q565.432 213.238 568.881 213.238 Q572.284 213.238 574.274 210.553 Q576.265 207.867 576.265 203.238 Q576.265 198.631 574.274 195.946 Q572.284 193.238 568.881 193.238 M568.881 189.627 Q574.436 189.627 577.608 193.238 Q580.779 196.849 580.779 203.238 Q580.779 209.604 577.608 213.238 Q574.436 216.849 568.881 216.849 Q563.302 216.849 560.131 213.238 Q556.983 209.604 556.983 203.238 Q556.983 196.849 560.131 193.238 Q563.302 189.627 568.881 189.627 Z" fill="#000000" fill-rule="nonzero" fill-opacity="1" /><path clip-path="url(#clip030)" d="M597.885 193.238 Q594.459 193.238 592.469 195.923 Q590.478 198.585 590.478 203.238 Q590.478 207.891 592.446 210.576 Q594.436 213.238 597.885 213.238 Q601.288 213.238 603.279 210.553 Q605.27 207.867 605.27 203.238 Q605.27 198.631 603.279 195.946 Q601.288 193.238 597.885 193.238 M597.885 189.627 Q603.441 189.627 606.612 193.238 Q609.783 196.849 609.783 203.238 Q609.783 209.604 606.612 213.238 Q603.441 216.849 597.885 216.849 Q592.307 216.849 589.135 213.238 Q585.987 209.604 585.987 203.238 Q585.987 196.849 589.135 193.238 Q592.307 189.627 597.885 189.627 Z" fill="#000000" fill-rule="nonzero" fill-opacity="1" /><path clip-path="url(#clip030)" d="M621.057 182.891 L621.057 190.252 L629.83 190.252 L629.83 193.562 L621.057 193.562 L621.057 207.636 Q621.057 210.807 621.913 211.71 Q622.793 212.613 625.455 212.613 L629.83 212.613 L629.83 216.178 L625.455 216.178 Q620.524 216.178 618.649 214.349 Q616.774 212.497 616.774 207.636 L616.774 193.562 L613.649 193.562 L613.649 190.252 L616.774 190.252 L616.774 182.891 L621.057 182.891 Z" fill="#000000" fill-rule="nonzero" fill-opacity="1" /><path clip-path="url(#clip030)" d="M656.982 200.529 L656.982 216.178 L652.723 216.178 L652.723 200.668 Q652.723 196.988 651.288 195.159 Q649.853 193.33 646.982 193.33 Q643.533 193.33 641.543 195.53 Q639.552 197.729 639.552 201.525 L639.552 216.178 L635.269 216.178 L635.269 180.159 L639.552 180.159 L639.552 194.28 Q641.08 191.942 643.14 190.784 Q645.223 189.627 647.931 189.627 Q652.399 189.627 654.691 192.405 Q656.982 195.159 656.982 200.529 Z" fill="#000000" fill-rule="nonzero" fill-opacity="1" /><polyline clip-path="url(#clip030)" style="stroke:#3da44d; stroke-linecap:round; stroke-linejoin:round; stroke-width:4; stroke-opacity:1; fill:none" stroke-dasharray="16, 10" points="245.711,250.738 392.715,250.738 "/>
<path clip-path="url(#clip030)" d="M417.215 233.458 L446.451 233.458 L446.451 237.393 L434.183 237.393 L434.183 268.018 L429.484 268.018 L429.484 237.393 L417.215 237.393 L417.215 233.458 Z" fill="#000000" fill-rule="nonzero" fill-opacity="1" /><path clip-path="url(#clip030)" d="M458.835 246.073 Q458.118 245.657 457.261 245.471 Q456.428 245.263 455.409 245.263 Q451.798 245.263 449.854 247.624 Q447.933 249.962 447.933 254.36 L447.933 268.018 L443.65 268.018 L443.65 242.092 L447.933 242.092 L447.933 246.12 Q449.275 243.758 451.428 242.624 Q453.581 241.467 456.659 241.467 Q457.099 241.467 457.632 241.536 Q458.164 241.583 458.812 241.698 L458.835 246.073 Z" fill="#000000" fill-rule="nonzero" fill-opacity="1" /><path clip-path="url(#clip030)" d="M462.863 257.786 L462.863 242.092 L467.122 242.092 L467.122 257.624 Q467.122 261.305 468.557 263.156 Q469.993 264.985 472.863 264.985 Q476.312 264.985 478.303 262.786 Q480.317 260.587 480.317 256.791 L480.317 242.092 L484.576 242.092 L484.576 268.018 L480.317 268.018 L480.317 264.036 Q478.766 266.397 476.706 267.555 Q474.668 268.689 471.96 268.689 Q467.493 268.689 465.178 265.911 Q462.863 263.133 462.863 257.786 M473.581 241.467 L473.581 241.467 Z" fill="#000000" fill-rule="nonzero" fill-opacity="1" /><path clip-path="url(#clip030)" d="M515.525 253.99 L515.525 256.073 L495.942 256.073 Q496.219 260.471 498.58 262.786 Q500.965 265.078 505.201 265.078 Q507.654 265.078 509.946 264.476 Q512.261 263.874 514.529 262.67 L514.529 266.698 Q512.238 267.67 509.83 268.18 Q507.423 268.689 504.946 268.689 Q498.742 268.689 495.108 265.078 Q491.497 261.467 491.497 255.309 Q491.497 248.944 494.923 245.217 Q498.372 241.467 504.205 241.467 Q509.437 241.467 512.469 244.846 Q515.525 248.203 515.525 253.99 M511.266 252.74 Q511.219 249.245 509.298 247.161 Q507.4 245.078 504.252 245.078 Q500.687 245.078 498.534 247.092 Q496.404 249.106 496.08 252.763 L511.266 252.74 Z" fill="#000000" fill-rule="nonzero" fill-opacity="1" /><polyline clip-path="url(#clip030)" style="stroke:#c271d2; stroke-linecap:round; stroke-linejoin:round; stroke-width:4; stroke-opacity:1; fill:none" stroke-dasharray="16, 10" points="245.711,302.578 392.715,302.578 "/>
<path clip-path="url(#clip030)" d="M417.215 285.298 L446.451 285.298 L446.451 289.233 L434.183 289.233 L434.183 319.858 L429.484 319.858 L429.484 289.233 L417.215 289.233 L417.215 285.298 Z" fill="#000000" fill-rule="nonzero" fill-opacity="1" /><path clip-path="url(#clip030)" d="M458.835 297.913 Q458.118 297.497 457.261 297.311 Q456.428 297.103 455.409 297.103 Q451.798 297.103 449.854 299.464 Q447.933 301.802 447.933 306.2 L447.933 319.858 L443.65 319.858 L443.65 293.932 L447.933 293.932 L447.933 297.96 Q449.275 295.598 451.428 294.464 Q453.581 293.307 456.659 293.307 Q457.099 293.307 457.632 293.376 Q458.164 293.423 458.812 293.538 L458.835 297.913 Z" fill="#000000" fill-rule="nonzero" fill-opacity="1" /><path clip-path="url(#clip030)" d="M462.863 309.626 L462.863 293.932 L467.122 293.932 L467.122 309.464 Q467.122 313.145 468.557 314.996 Q469.993 316.825 472.863 316.825 Q476.312 316.825 478.303 314.626 Q480.317 312.427 480.317 308.631 L480.317 293.932 L484.576 293.932 L484.576 319.858 L480.317 319.858 L480.317 315.876 Q478.766 318.237 476.706 319.395 Q474.668 320.529 471.96 320.529 Q467.493 320.529 465.178 317.751 Q462.863 314.973 462.863 309.626 M473.581 293.307 L473.581 293.307 Z" fill="#000000" fill-rule="nonzero" fill-opacity="1" /><path clip-path="url(#clip030)" d="M515.525 305.83 L515.525 307.913 L495.942 307.913 Q496.219 312.311 498.58 314.626 Q500.965 316.918 505.201 316.918 Q507.654 316.918 509.946 316.316 Q512.261 315.714 514.529 314.51 L514.529 318.538 Q512.238 319.51 509.83 320.02 Q507.423 320.529 504.946 320.529 Q498.742 320.529 495.108 316.918 Q491.497 313.307 491.497 307.149 Q491.497 300.784 494.923 297.057 Q498.372 293.307 504.205 293.307 Q509.437 293.307 512.469 296.686 Q515.525 300.043 515.525 305.83 M511.266 304.58 Q511.219 301.085 509.298 299.001 Q507.4 296.918 504.252 296.918 Q500.687 296.918 498.534 298.932 Q496.404 300.946 496.08 304.603 L511.266 304.58 Z" fill="#000000" fill-rule="nonzero" fill-opacity="1" /></svg>
