<?xml version="1.0" encoding="utf-8"?>
<svg xmlns="http://www.w3.org/2000/svg" xmlns:xlink="http://www.w3.org/1999/xlink" width="600" height="400" viewBox="0 0 2400 1600">
<defs>
  <clipPath id="clip740">
    <rect x="0" y="0" width="2400" height="1600"/>
  </clipPath>
</defs>
<path clip-path="url(#clip740)" d="M0 1600 L2400 1600 L2400 0 L0 0  Z" fill="#ffffff" fill-rule="evenodd" fill-opacity="1"/>
<defs>
  <clipPath id="clip741">
    <rect x="140" y="47" width="2213" height="1440"/>
  </clipPath>
</defs>
<path clip-path="url(#clip740)" d="M140.51 1486.45 L2352.76 1486.45 L2352.76 47.2441 L140.51 47.2441  Z" fill="#ffffff" fill-rule="evenodd" fill-opacity="1"/>
<polyline clip-path="url(#clip741)" style="stroke:#000000; stroke-linecap:round; stroke-linejoin:round; stroke-width:2; stroke-opacity:0.1; fill:none" points="353.047,1486.45 353.047,47.2441 "/>
<polyline clip-path="url(#clip741)" style="stroke:#000000; stroke-linecap:round; stroke-linejoin:round; stroke-width:2; stroke-opacity:0.1; fill:none" points="786.803,1486.45 786.803,47.2441 "/>
<polyline clip-path="url(#clip741)" style="stroke:#000000; stroke-linecap:round; stroke-linejoin:round; stroke-width:2; stroke-opacity:0.1; fill:none" points="1220.56,1486.45 1220.56,47.2441 "/>
<polyline clip-path="url(#clip741)" style="stroke:#000000; stroke-linecap:round; stroke-linejoin:round; stroke-width:2; stroke-opacity:0.1; fill:none" points="1654.32,1486.45 1654.32,47.2441 "/>
<polyline clip-path="url(#clip741)" style="stroke:#000000; stroke-linecap:round; stroke-linejoin:round; stroke-width:2; stroke-opacity:0.1; fill:none" points="2088.07,1486.45 2088.07,47.2441 "/>
<polyline clip-path="url(#clip741)" style="stroke:#000000; stroke-linecap:round; stroke-linejoin:round; stroke-width:2; stroke-opacity:0.1; fill:none" points="140.51,1180.23 2352.76,1180.23 "/>
<polyline clip-path="url(#clip741)" style="stroke:#000000; stroke-linecap:round; stroke-linejoin:round; stroke-width:2; stroke-opacity:0.1; fill:none" points="140.51,872.483 2352.76,872.483 "/>
<polyline clip-path="url(#clip741)" style="stroke:#000000; stroke-linecap:round; stroke-linejoin:round; stroke-width:2; stroke-opacity:0.1; fill:none" points="140.51,564.737 2352.76,564.737 "/>
<polyline clip-path="url(#clip741)" style="stroke:#000000; stroke-linecap:round; stroke-linejoin:round; stroke-width:2; stroke-opacity:0.1; fill:none" points="140.51,256.991 2352.76,256.991 "/>
<polyline clip-path="url(#clip740)" style="stroke:#000000; stroke-linecap:round; stroke-linejoin:round; stroke-width:4; stroke-opacity:1; fill:none" points="140.51,1486.45 2352.76,1486.45 "/>
<polyline clip-path="url(#clip740)" style="stroke:#000000; stroke-linecap:round; stroke-linejoin:round; stroke-width:4; stroke-opacity:1; fill:none" points="353.047,1486.45 353.047,1467.55 "/>
<polyline clip-path="url(#clip740)" style="stroke:#000000; stroke-linecap:round; stroke-linejoin:round; stroke-width:4; stroke-opacity:1; fill:none" points="786.803,1486.45 786.803,1467.55 "/>
<polyline clip-path="url(#clip740)" style="stroke:#000000; stroke-linecap:round; stroke-linejoin:round; stroke-width:4; stroke-opacity:1; fill:none" points="1220.56,1486.45 1220.56,1467.55 "/>
<polyline clip-path="url(#clip740)" style="stroke:#000000; stroke-linecap:round; stroke-linejoin:round; stroke-width:4; stroke-opacity:1; fill:none" points="1654.32,1486.45 1654.32,1467.55 "/>
<polyline clip-path="url(#clip740)" style="stroke:#000000; stroke-linecap:round; stroke-linejoin:round; stroke-width:4; stroke-opacity:1; fill:none" points="2088.07,1486.45 2088.07,1467.55 "/>
<path clip-path="url(#clip740)" d="M307.11 1532.02 L336.785 1532.02 L336.785 1535.95 L307.11 1535.95 L307.11 1532.02 Z" fill="#000000" fill-rule="nonzero" fill-opacity="1" /><path clip-path="url(#clip740)" d="M361.045 1530.21 Q364.401 1530.93 366.276 1533.2 Q368.174 1535.47 368.174 1538.8 Q368.174 1543.92 364.656 1546.72 Q361.137 1549.52 354.656 1549.52 Q352.48 1549.52 350.165 1549.08 Q347.873 1548.66 345.42 1547.81 L345.42 1543.29 Q347.364 1544.43 349.679 1545.01 Q351.994 1545.58 354.517 1545.58 Q358.915 1545.58 361.207 1543.85 Q363.521 1542.11 363.521 1538.8 Q363.521 1535.75 361.369 1534.03 Q359.239 1532.3 355.42 1532.3 L351.392 1532.3 L351.392 1528.45 L355.605 1528.45 Q359.054 1528.45 360.882 1527.09 Q362.711 1525.7 362.711 1523.11 Q362.711 1520.45 360.813 1519.03 Q358.938 1517.6 355.42 1517.6 Q353.498 1517.6 351.299 1518.01 Q349.1 1518.43 346.461 1519.31 L346.461 1515.14 Q349.123 1514.4 351.438 1514.03 Q353.776 1513.66 355.836 1513.66 Q361.16 1513.66 364.262 1516.09 Q367.364 1518.5 367.364 1522.62 Q367.364 1525.49 365.72 1527.48 Q364.077 1529.45 361.045 1530.21 Z" fill="#000000" fill-rule="nonzero" fill-opacity="1" /><path clip-path="url(#clip740)" d="M387.04 1517.37 Q383.429 1517.37 381.6 1520.93 Q379.794 1524.47 379.794 1531.6 Q379.794 1538.71 381.6 1542.27 Q383.429 1545.82 387.04 1545.82 Q390.674 1545.82 392.48 1542.27 Q394.308 1538.71 394.308 1531.6 Q394.308 1524.47 392.48 1520.93 Q390.674 1517.37 387.04 1517.37 M387.04 1513.66 Q392.85 1513.66 395.905 1518.27 Q398.984 1522.85 398.984 1531.6 Q398.984 1540.33 395.905 1544.94 Q392.85 1549.52 387.04 1549.52 Q381.23 1549.52 378.151 1544.94 Q375.095 1540.33 375.095 1531.6 Q375.095 1522.85 378.151 1518.27 Q381.23 1513.66 387.04 1513.66 Z" fill="#000000" fill-rule="nonzero" fill-opacity="1" /><path clip-path="url(#clip740)" d="M786.803 1517.37 Q783.192 1517.37 781.364 1520.93 Q779.558 1524.47 779.558 1531.6 Q779.558 1538.71 781.364 1542.27 Q783.192 1545.82 786.803 1545.82 Q790.438 1545.82 792.243 1542.27 Q794.072 1538.71 794.072 1531.6 Q794.072 1524.47 792.243 1520.93 Q790.438 1517.37 786.803 1517.37 M786.803 1513.66 Q792.613 1513.66 795.669 1518.27 Q798.748 1522.85 798.748 1531.6 Q798.748 1540.33 795.669 1544.94 Q792.613 1549.52 786.803 1549.52 Q780.993 1549.52 777.914 1544.94 Q774.859 1540.33 774.859 1531.6 Q774.859 1522.85 777.914 1518.27 Q780.993 1513.66 786.803 1513.66 Z" fill="#000000" fill-rule="nonzero" fill-opacity="1" /><path clip-path="url(#clip740)" d="M1209.4 1530.21 Q1212.76 1530.93 1214.63 1533.2 Q1216.53 1535.47 1216.53 1538.8 Q1216.53 1543.92 1213.01 1546.72 Q1209.49 1549.52 1203.01 1549.52 Q1200.84 1549.52 1198.52 1549.08 Q1196.23 1548.66 1193.78 1547.81 L1193.78 1543.29 Q1195.72 1544.43 1198.04 1545.01 Q1200.35 1545.58 1202.87 1545.58 Q1207.27 1545.58 1209.56 1543.85 Q1211.88 1542.11 1211.88 1538.8 Q1211.88 1535.75 1209.73 1534.03 Q1207.6 1532.3 1203.78 1532.3 L1199.75 1532.3 L1199.75 1528.45 L1203.96 1528.45 Q1207.41 1528.45 1209.24 1527.09 Q1211.07 1525.7 1211.07 1523.11 Q1211.07 1520.45 1209.17 1519.03 Q1207.3 1517.6 1203.78 1517.6 Q1201.86 1517.6 1199.66 1518.01 Q1197.46 1518.43 1194.82 1519.31 L1194.82 1515.14 Q1197.48 1514.4 1199.8 1514.03 Q1202.13 1513.66 1204.19 1513.66 Q1209.52 1513.66 1212.62 1516.09 Q1215.72 1518.5 1215.72 1522.62 Q1215.72 1525.49 1214.08 1527.48 Q1212.43 1529.45 1209.4 1530.21 Z" fill="#000000" fill-rule="nonzero" fill-opacity="1" /><path clip-path="url(#clip740)" d="M1235.4 1517.37 Q1231.79 1517.37 1229.96 1520.93 Q1228.15 1524.47 1228.15 1531.6 Q1228.15 1538.71 1229.96 1542.27 Q1231.79 1545.82 1235.4 1545.82 Q1239.03 1545.82 1240.84 1542.27 Q1242.67 1538.71 1242.67 1531.6 Q1242.67 1524.47 1240.84 1520.93 Q1239.03 1517.37 1235.4 1517.37 M1235.4 1513.66 Q1241.21 1513.66 1244.26 1518.27 Q1247.34 1522.85 1247.34 1531.6 Q1247.34 1540.33 1244.26 1544.94 Q1241.21 1549.52 1235.4 1549.52 Q1229.59 1549.52 1226.51 1544.94 Q1223.45 1540.33 1223.45 1531.6 Q1223.45 1522.85 1226.51 1518.27 Q1229.59 1513.66 1235.4 1513.66 Z" fill="#000000" fill-rule="nonzero" fill-opacity="1" /><path clip-path="url(#clip740)" d="M1639.72 1529.7 Q1636.57 1529.7 1634.72 1531.86 Q1632.89 1534.01 1632.89 1537.76 Q1632.89 1541.49 1634.72 1543.66 Q1636.57 1545.82 1639.72 1545.82 Q1642.87 1545.82 1644.7 1543.66 Q1646.55 1541.49 1646.55 1537.76 Q1646.55 1534.01 1644.7 1531.86 Q1642.87 1529.7 1639.72 1529.7 M1649 1515.05 L1649 1519.31 Q1647.24 1518.48 1645.44 1518.04 Q1643.66 1517.6 1641.9 1517.6 Q1637.27 1517.6 1634.81 1520.72 Q1632.38 1523.85 1632.04 1530.17 Q1633.4 1528.15 1635.46 1527.09 Q1637.52 1526 1640 1526 Q1645.21 1526 1648.22 1529.17 Q1651.25 1532.32 1651.25 1537.76 Q1651.25 1543.08 1648.1 1546.3 Q1644.95 1549.52 1639.72 1549.52 Q1633.73 1549.52 1630.55 1544.94 Q1627.38 1540.33 1627.38 1531.6 Q1627.38 1523.41 1631.27 1518.55 Q1635.16 1513.66 1641.71 1513.66 Q1643.47 1513.66 1645.25 1514.01 Q1647.06 1514.36 1649 1515.05 Z" fill="#000000" fill-rule="nonzero" fill-opacity="1" /><path clip-path="url(#clip740)" d="M1669.3 1517.37 Q1665.69 1517.37 1663.86 1520.93 Q1662.06 1524.47 1662.06 1531.6 Q1662.06 1538.71 1663.86 1542.27 Q1665.69 1545.82 1669.3 1545.82 Q1672.94 1545.82 1674.74 1542.27 Q1676.57 1538.71 1676.57 1531.6 Q1676.57 1524.47 1674.74 1520.93 Q1672.94 1517.37 1669.3 1517.37 M1669.3 1513.66 Q1675.11 1513.66 1678.17 1518.27 Q1681.25 1522.85 1681.25 1531.6 Q1681.25 1540.33 1678.17 1544.94 Q1675.11 1549.52 1669.3 1549.52 Q1663.49 1549.52 1660.42 1544.94 Q1657.36 1540.33 1657.36 1531.6 Q1657.36 1522.85 1660.42 1518.27 Q1663.49 1513.66 1669.3 1513.66 Z" fill="#000000" fill-rule="nonzero" fill-opacity="1" /><path clip-path="url(#clip740)" d="M2063.2 1548.13 L2063.2 1543.87 Q2064.96 1544.7 2066.76 1545.14 Q2068.57 1545.58 2070.31 1545.58 Q2074.94 1545.58 2077.37 1542.48 Q2079.82 1539.36 2080.17 1533.01 Q2078.82 1535.01 2076.76 1536.07 Q2074.7 1537.13 2072.2 1537.13 Q2067.02 1537.13 2063.99 1534.01 Q2060.98 1530.86 2060.98 1525.42 Q2060.98 1520.1 2064.13 1516.88 Q2067.27 1513.66 2072.51 1513.66 Q2078.5 1513.66 2081.65 1518.27 Q2084.82 1522.85 2084.82 1531.6 Q2084.82 1539.77 2080.93 1544.66 Q2077.07 1549.52 2070.51 1549.52 Q2068.76 1549.52 2066.95 1549.17 Q2065.14 1548.82 2063.2 1548.13 M2072.51 1533.48 Q2075.65 1533.48 2077.48 1531.32 Q2079.33 1529.17 2079.33 1525.42 Q2079.33 1521.7 2077.48 1519.54 Q2075.65 1517.37 2072.51 1517.37 Q2069.36 1517.37 2067.51 1519.54 Q2065.68 1521.7 2065.68 1525.42 Q2065.68 1529.17 2067.51 1531.32 Q2069.36 1533.48 2072.51 1533.48 Z" fill="#000000" fill-rule="nonzero" fill-opacity="1" /><path clip-path="url(#clip740)" d="M2103.22 1517.37 Q2099.61 1517.37 2097.78 1520.93 Q2095.98 1524.47 2095.98 1531.6 Q2095.98 1538.71 2097.78 1542.27 Q2099.61 1545.82 2103.22 1545.82 Q2106.86 1545.82 2108.66 1542.27 Q2110.49 1538.71 2110.49 1531.6 Q2110.49 1524.47 2108.66 1520.93 Q2106.86 1517.37 2103.22 1517.37 M2103.22 1513.66 Q2109.03 1513.66 2112.09 1518.27 Q2115.17 1522.85 2115.17 1531.6 Q2115.17 1540.33 2112.09 1544.94 Q2109.03 1549.52 2103.22 1549.52 Q2097.41 1549.52 2094.33 1544.94 Q2091.28 1540.33 2091.28 1531.6 Q2091.28 1522.85 2094.33 1518.27 Q2097.41 1513.66 2103.22 1513.66 Z" fill="#000000" fill-rule="nonzero" fill-opacity="1" /><polyline clip-path="url(#clip740)" style="stroke:#000000; stroke-linecap:round; stroke-linejoin:round; stroke-width:4; stroke-opacity:1; fill:none" points="140.51,1486.45 140.51,47.2441 "/>
<polyline clip-path="url(#clip740)" style="stroke:#000000; stroke-linecap:round; stroke-linejoin:round; stroke-width:4; stroke-opacity:1; fill:none" points="140.51,1180.23 159.408,1180.23 "/>
<polyline clip-path="url(#clip740)" style="stroke:#000000; stroke-linecap:round; stroke-linejoin:round; stroke-width:4; stroke-opacity:1; fill:none" points="140.51,872.483 159.408,872.483 "/>
<polyline clip-path="url(#clip740)" style="stroke:#000000; stroke-linecap:round; stroke-linejoin:round; stroke-width:4; stroke-opacity:1; fill:none" points="140.51,564.737 159.408,564.737 "/>
<polyline clip-path="url(#clip740)" style="stroke:#000000; stroke-linecap:round; stroke-linejoin:round; stroke-width:4; stroke-opacity:1; fill:none" points="140.51,256.991 159.408,256.991 "/>
<path clip-path="url(#clip740)" d="M92.566 1166.03 Q88.9549 1166.03 87.1262 1169.59 Q85.3206 1173.13 85.3206 1180.26 Q85.3206 1187.37 87.1262 1190.94 Q88.9549 1194.48 92.566 1194.48 Q96.2002 1194.48 98.0058 1190.94 Q99.8345 1187.37 99.8345 1180.26 Q99.8345 1173.13 98.0058 1169.59 Q96.2002 1166.03 92.566 1166.03 M92.566 1162.32 Q98.3761 1162.32 101.432 1166.93 Q104.51 1171.51 104.51 1180.26 Q104.51 1188.99 101.432 1193.6 Q98.3761 1198.18 92.566 1198.18 Q86.7558 1198.18 83.6771 1193.6 Q80.6216 1188.99 80.6216 1180.26 Q80.6216 1171.51 83.6771 1166.93 Q86.7558 1162.32 92.566 1162.32 Z" fill="#000000" fill-rule="nonzero" fill-opacity="1" /><path clip-path="url(#clip740)" d="M57.4273 885.828 L73.7466 885.828 L73.7466 889.763 L51.8023 889.763 L51.8023 885.828 Q54.4643 883.073 59.0476 878.444 Q63.6541 873.791 64.8346 872.448 Q67.08 869.925 67.9596 868.189 Q68.8624 866.43 68.8624 864.74 Q68.8624 861.985 66.918 860.249 Q64.9967 858.513 61.8948 858.513 Q59.6958 858.513 57.2421 859.277 Q54.8115 860.041 52.0338 861.592 L52.0338 856.87 Q54.8578 855.735 57.3115 855.157 Q59.7652 854.578 61.8023 854.578 Q67.1726 854.578 70.367 857.263 Q73.5614 859.948 73.5614 864.439 Q73.5614 866.569 72.7513 868.49 Q71.9642 870.388 69.8578 872.981 Q69.2791 873.652 66.1772 876.87 Q63.0754 880.064 57.4273 885.828 Z" fill="#000000" fill-rule="nonzero" fill-opacity="1" /><path clip-path="url(#clip740)" d="M83.6077 855.203 L101.964 855.203 L101.964 859.138 L87.8901 859.138 L87.8901 867.61 Q88.9086 867.263 89.9271 867.101 Q90.9456 866.916 91.9641 866.916 Q97.7511 866.916 101.131 870.087 Q104.51 873.258 104.51 878.675 Q104.51 884.254 101.038 887.356 Q97.566 890.434 91.2465 890.434 Q89.0706 890.434 86.8021 890.064 Q84.5568 889.694 82.1494 888.953 L82.1494 884.254 Q84.2327 885.388 86.4549 885.944 Q88.6771 886.499 91.1539 886.499 Q95.1586 886.499 97.4965 884.393 Q99.8345 882.286 99.8345 878.675 Q99.8345 875.064 97.4965 872.957 Q95.1586 870.851 91.1539 870.851 Q89.279 870.851 87.404 871.268 Q85.5521 871.684 83.6077 872.564 L83.6077 855.203 Z" fill="#000000" fill-rule="nonzero" fill-opacity="1" /><path clip-path="url(#clip740)" d="M52.4505 547.457 L70.8068 547.457 L70.8068 551.392 L56.7328 551.392 L56.7328 559.864 Q57.7513 559.517 58.7699 559.355 Q59.7884 559.17 60.8069 559.17 Q66.5939 559.17 69.9735 562.341 Q73.3531 565.512 73.3531 570.929 Q73.3531 576.507 69.8809 579.609 Q66.4087 582.688 60.0893 582.688 Q57.9134 582.688 55.6449 582.318 Q53.3995 581.947 50.9921 581.207 L50.9921 576.507 Q53.0754 577.642 55.2977 578.197 Q57.5199 578.753 59.9967 578.753 Q64.0013 578.753 66.3393 576.646 Q68.6772 574.54 68.6772 570.929 Q68.6772 567.318 66.3393 565.211 Q64.0013 563.105 59.9967 563.105 Q58.1217 563.105 56.2467 563.521 Q54.3949 563.938 52.4505 564.818 L52.4505 547.457 Z" fill="#000000" fill-rule="nonzero" fill-opacity="1" /><path clip-path="url(#clip740)" d="M92.566 550.535 Q88.9549 550.535 87.1262 554.1 Q85.3206 557.642 85.3206 564.771 Q85.3206 571.878 87.1262 575.443 Q88.9549 578.984 92.566 578.984 Q96.2002 578.984 98.0058 575.443 Q99.8345 571.878 99.8345 564.771 Q99.8345 557.642 98.0058 554.1 Q96.2002 550.535 92.566 550.535 M92.566 546.832 Q98.3761 546.832 101.432 551.438 Q104.51 556.021 104.51 564.771 Q104.51 573.498 101.432 578.105 Q98.3761 582.688 92.566 582.688 Q86.7558 582.688 83.6771 578.105 Q80.6216 573.498 80.6216 564.771 Q80.6216 556.021 83.6771 551.438 Q86.7558 546.832 92.566 546.832 Z" fill="#000000" fill-rule="nonzero" fill-opacity="1" /><path clip-path="url(#clip740)" d="M52.219 239.711 L74.4411 239.711 L74.4411 241.701 L61.8948 274.271 L57.0106 274.271 L68.8161 243.646 L52.219 243.646 L52.219 239.711 Z" fill="#000000" fill-rule="nonzero" fill-opacity="1" /><path clip-path="url(#clip740)" d="M83.6077 239.711 L101.964 239.711 L101.964 243.646 L87.8901 243.646 L87.8901 252.118 Q88.9086 251.771 89.9271 251.609 Q90.9456 251.423 91.9641 251.423 Q97.7511 251.423 101.131 254.595 Q104.51 257.766 104.51 263.183 Q104.51 268.761 101.038 271.863 Q97.566 274.942 91.2465 274.942 Q89.0706 274.942 86.8021 274.571 Q84.5568 274.201 82.1494 273.46 L82.1494 268.761 Q84.2327 269.896 86.4549 270.451 Q88.6771 271.007 91.1539 271.007 Q95.1586 271.007 97.4965 268.9 Q99.8345 266.794 99.8345 263.183 Q99.8345 259.572 97.4965 257.465 Q95.1586 255.359 91.1539 255.359 Q89.279 255.359 87.404 255.775 Q85.5521 256.192 83.6077 257.072 L83.6077 239.711 Z" fill="#000000" fill-rule="nonzero" fill-opacity="1" /><polyline clip-path="url(#clip741)" style="stroke:#0000ff; stroke-linecap:round; stroke-linejoin:round; stroke-width:4; stroke-opacity:1; fill:none" points="203.121,717.658 231.832,723.222 236.175,718.998 246.564,718.058 253.392,717.98 277.315,720.07 300.392,723.657 327.619,725.317 355.09,727.576 384.957,732.404 414.287,732.604 440.13,732.864 476.058,733.835 499.069,739.17 522.448,743.469 556.585,747.437 581.935,749.339 604.013,754.112 632.455,760.498 656.426,768.004 679.589,776.025 703.081,782.788 730.71,788.956 753.842,797.754 779.976,803.488 810.812,811.709 833.113,811.26 866.726,813.479 892.719,821.532 919.373,828.839 950.531,838.125 974.923,846.865 1000.64,853.866 1019.68,863.937 1037.32,876.74 1045.12,882.1 1066.17,885.487 1083.9,887.516 1105.61,888.36 1131.23,891.692 1157.95,901.202 1185.28,911.481 1206.82,916.797 1232.14,920.539 1264.85,922.531 1294.29,923.792 1326.88,927.845 1355.06,932.665 1381.81,936.18 1407.06,939.01 1438.89,939.571 1463,939.69 1489.96,938.641 1517.13,935.357 1546.81,929.721 1574.84,929.296 1602.35,927.82 1628.18,928.406 1649.1,922.561 1667.77,919.602 1685.21,912.848 1702.9,906.715 1723.91,906.078 1745.94,903.533 1767.76,904.965 1787.33,908.293 1808.86,914.895 1828.6,926.526 1850.13,939.136 1866.63,950.624 1882.94,966.912 1893.38,980.778 1900.87,995.637 1909.76,1014.59 1921.37,1032.22 1933.9,1051.03 1944.69,1062.14 1962.48,1069.31 1976.56,1072.52 1986.89,1071.91 2007.42,1065.33 2025.31,1059.93 2047.17,1041.24 2059.51,1026.58 2063.43,1005.78 2065.43,986.306 2063.77,964.081 2050.56,948.32 2033.2,939.839 2011.17,929.391 1981.36,931.922 1956.18,931.352 1935.94,927.397 1916.12,925.184 1892.73,923.208 1872.59,929.413 1850.31,935.92 1833.51,943.026 1810.69,946.232 1785.99,946.46 1759.07,942.529 1736.45,932.537 1713.43,921.524 1683.32,905.75 1656.98,887.788 1633.93,869.534 1618.83,854.477 1606.94,841.047 1590.77,827.333 1576.32,811.097 1564.31,796.097 1556.01,779.745 1555.82,764.214 1567.75,749.355 1582.37,736.328 1605.43,728.69 1623.25,728.739 1649.68,729.411 1670.72,741.188 1692.47,748.748 1707.27,754.137 1729.05,760.633 1751.96,771.759 1764.03,781.479 1781.71,792.625 1800.28,803.311 1821.99,810.894 1842.69,812.805 1863.47,813.819 1887.8,807.018 1908.86,802.313 1925.66,801.238 1944.97,808.621 1962.15,819.559 1977.24,835.104 1986.91,851.878 1995.66,871.853 2003.2,893.387 2007.09,912.959 2006.5,934.216 2006.44,945.423 2008.66,959.159 2018.52,977.886 2025.89,995.416 2037.86,1010.12 2049.02,1017.37 2061.48,1020.97 2078.22,1018 2098,1011.25 2113.78,1001.72 2131.32,989.056 2141.22,979.366 2144.22,959.678 2134.06,943.665 2116.07,926.188 2098.85,909.126 2075.57,898.178 2048.56,893.862 2022.55,889.4 2005.95,885.903 1981.96,883.067 1960.93,880.05 1942.01,870.062 1926.88,863.352 1904.85,856.93 1888.55,856.156 1866.64,858.431 1845.44,854.211 1824.82,849.599 1804.63,848.176 1780.32,844.571 1762.46,840.105 1745.6,835.898 1723.87,834.3 1696.95,835.286 1670.24,840.309 1653.13,839.299 1648.78,832.144 1643.94,829.06 1636.66,827.66 1625.6,827.082 1617.6,826.259 1604.66,830.029 1591.15,836.098 1565.42,840.765 1543.28,844.658 1528.43,850.096 1518.6,858.894 1525.23,860.551 1539.47,858.638 1570.93,854.175 1591.18,837.499 1607.61,822.14 1614.49,806.98 1607.19,790.359 1592.53,772.354 1582.74,761.182 1571.97,739.71 1553,730.299 1532.51,739.996 1510.36,740.77 1480.86,736.178 1475.71,718.407 1472.04,699.328 1472.16,677.849 1476.41,661.287 1492.17,639.268 1499.04,619.622 1502.36,596.479 1486.94,583.65 1464.48,575.686 1455.23,573.95 1463.57,561.034 1483.74,550.307 1517.64,548.859 1557.12,535.624 1583.23,518.656 1602.06,495.29 1617.27,473.004 1638.39,462.726 1665.09,465.629 1689.49,471.744 1708.51,489.911 1736.01,502.277 1756.7,519.469 1766.4,539.649 1754.73,556.819 1736.62,573.815 1709.23,586.488 1676.34,592.212 1649.97,591.96 1616.84,578.302 1591.46,561.754 1578.89,540.949 1578.2,519.008 1596.48,503.576 1611.51,493.688 1635.75,478.352 1660.31,470.197 1682.13,454.7 1704.8,442.373 1724.32,441.862 1747.41,427.815 1750.93,413.426 1761.23,396.352 1773.65,391.528 1791.25,375.23 1785.55,361.418 1764.09,349.563 1760.29,347.129 1770.94,343.224 1793.17,337.474 1821.53,340.734 1847.49,343.848 1875.64,348.406 1900.48,366.193 1904.99,384.023 1900.76,396.939 1880.08,407.37 1864.88,429.087 1848.4,456.601 1838.2,488.787 1840.35,509.81 1805,514.333 1780.86,529.542 1749.73,536.075 1718.78,552.361 1700.95,577.623 1681.63,595.047 1654.82,591.152 1631.48,579.545 1603.47,569.641 1588.64,557.712 1562.61,541.204 1554.65,534.848 1562.12,512.557 1586.39,503.564 1620.55,497.784 1649.5,501.51 1684.19,507.903 1712.97,521.427 1723.02,543.984 1736.37,564.786 1751.82,569.935 1778.62,573.974 1801.27,584.199 1811.61,587.126 1837.42,580.612 1861.98,572.833 1881.85,562.828 1903.02,564.962 1921.15,579.69 1920.84,598.189 1922.37,618.492 1909.94,651.265 1888.01,676.695 1863.11,695.976 1841.11,725.743 1838.24,750.543 1803.01,763.424 1775.2,768.402 1747.17,783.258 1720.48,797.5 1703.89,815.601 1687.25,836.653 1662.21,860.113 1635.46,868.981 1607.8,860.525 1582.93,854.598 1551.44,851.069 1522.89,842.283 1502.63,821.457 1488.94,800.435 1458.31,778.028 1441.12,758.87 1416.24,741.415 1391.87,739.026 1361.6,743.453 1342.9,741.612 1317.25,733.783 1311.49,708.035 1294.87,699.837 1270.77,703.234 1252.04,712.206 1227.53,729.521 1221.95,736.08 1191.11,739.999 1167.26,744.889 1141.39,738.483 1120.79,720.734 1097.32,707.737 1062.46,702.238 1030.4,693.475 1008.08,688.04 986.862,677.975 966.283,657.534 966.343,644.843 976.422,624.343 992.178,603.403 1003.15,580.981 1009.28,550.811 1015.7,525.868 1001.58,505.402 982.112,501.555 971.839,490.52 976.389,477.079 1001.71,476.194 1037.05,479.034 1078.58,476.716 1111.04,473.223 1139.69,455.8 1165.11,430.163 1189.79,410.915 1221.39,403.314 1261.22,406.513 1293.1,418.527 1325.1,433.509 1354.58,446.45 1381.23,458.861 1403.77,472.777 1440.13,480.99 1464.86,494.14 1491.78,516.147 1522.75,543.018 1549.55,559.499 1573.45,570.344 1593.49,581.974 1602.96,571.796 1623.41,561.513 1650.82,548.363 1673.68,538.507 1703.77,527.105 1736.17,526.568 1772.49,535.588 1799.97,561.118 1808.14,581.601 1804.37,613.09 1786.92,645.285 1783.66,673.09 1775.25,704.697 1775.75,739.219 1791.08,770.521 1822.93,795.007 1863.22,793.934 1884.05,796.263 1915.17,802.319 1935.85,824.009 1961.4,851.469 1982.23,883.182 1994.32,915.619 1999.02,937.533 2013.91,919.827 2051.33,924.845 2078.68,931.522 2091.21,946.801 2092.67,950.345 2093.48,955.217 2098.24,971.687 2101.14,977.76 2113.57,981.29 2130,983.179 2158.25,977.769 2186.34,987.645 2200.85,998.534 2214.34,1020.63 2216.12,1034.18 2219.16,1022.15 2224.25,1005.25 2222.66,978.405 2212.96,951.242 2197.7,927.057 2186.16,904.607 2186.52,883.962 2159.36,862.6 2152.05,831.928 2156.47,807.125 2174.32,795.01 2195.84,797.337 2220.29,806.447 2236.66,818.255 2248.39,838.069 2274.32,860.547 2289.65,880.765 2281.1,908.476 2260.82,931.177 2243.3,952.101 2212.7,964.394 2192.86,982.667 2166.47,995.375 2139.29,1018.82 2119.99,1040.12 2108.43,1064.05 2088.79,1086.47 2073.04,1109.79 2046.57,1126.35 2019.88,1137.53 1988.58,1153.34 1962.92,1171.8 1933.83,1180.17 1904.66,1199.35 1889.51,1217.1 1857.55,1229.12 1838.22,1243.19 1820.23,1263.54 1802.37,1291.73 1794.24,1311.85 1788.32,1331.43 1782.12,1356.76 1804.23,1378.27 1814.04,1391.83 1807.14,1415.52 1799.21,1441.93 1780.04,1445.49 1757.68,1442.97 1735.16,1426.51 1722.59,1400.37 1708.96,1377.68 1684.22,1354.37 1645.68,1329.04 1614.08,1320.82 1579.25,1320.21 1542.56,1326.71 1501.72,1336.21 1474.72,1338 1439.84,1327.23 1413.01,1314.72 1393.03,1289.94 1390.87,1256.35 1385.48,1216.91 1365.11,1189.35 1343.43,1168.07 1348.38,1136.08 1346.58,1109.07 1338.61,1084.33 1325.79,1056.42 1307.26,1032.21 1302.01,1005.91 1308.14,972.636 1317.5,938.524 1336.25,909.525 1352.79,878.988 1365.69,846.4 1393.43,824.591 1388.2,797.05 1371.8,772.955 1342.14,749.621 1309.28,746.012 1288.77,733.412 1280.34,708 1276.95,676.412 1288.64,648.579 1303.42,627.521 1325.28,618.386 1356.81,606.432 1393.66,601.368 1434.1,596.701 1473.96,596.645 1502.66,589.433 1525.68,562.573 1543.36,541.734 1572.09,529.771 1594.14,522.886 1596.33,507.319 1583.79,493.94 1562.72,479.178 1537,466.554 1507.49,439.621 1484.67,413.38 1470.94,387.714 1454.09,367.148 1449.9,349.603 1456.71,328.936 1474.71,319.457 1493.02,328.178 1522.95,332.78 1561.95,335.215 1597.64,344.172 1638.11,350.458 1671.17,353.649 1702.8,368.226 1727.22,375.194 1753.37,367.29 1777.24,356.847 1808.58,351.671 1841.02,350.863 1872.53,345.07 1896.51,359.66 1907.74,377.364 1911.84,371.628 1922.43,354.696 1939.69,337.631 1957.35,326.82 1981.66,311.845 2001.78,304.364 1992.38,304.624 1970.82,292.521 1960.19,275.802 1946.81,246.399 1950.75,217.432 1961.57,201.579 1989.87,190.792 2024.89,192.967 2050.17,198.003 2084.48,202.333 2119.32,214.678 2142.77,236.4 2147.89,265.198 2141.12,292.399 2129.75,300.544 2133.1,317.073 2137.06,339.538 2133.11,371.329 2104.58,388.879 2085.13,422.404 2058.13,445.548 2034.64,472.092 2026.24,506.508 2001.56,514.136 1965.67,516.041 1929.97,528.004 1898.64,541.6 1881.14,568.686 1870.53,599.247 1869.13,615.822 1896.41,622.334 1926.42,634.613 1962.95,649.063 1996.5,672.991 2025.13,687.799 2064.33,692.572 2099.8,694.409 2138.21,690.307 2168.39,694.485 2194.13,693.994 2205.03,678.849 2218.64,658.977 2234.81,639.451 2233.01,613.904 2229.28,595.169 2220.02,571.187 2193.03,550.165 2171.53,531.731 2147.09,516.326 2105.13,516.567 2079.18,523.868 2055.12,541.408 2038.34,561.608 2012.19,586.32 2006.13,615.377 2011.18,647.596 2016.29,678.338 2033.36,704.814 2045.63,729.804 2059.84,763.003 2076.05,793.723 2106.52,806.574 2137.4,823.044 2162.9,851.581 2183.23,874.53 2197.46,905.586 2205.81,930.471 2202.56,943.346 2170.03,943.916 2132.4,957.41 2104.27,956.216 2089.46,962.412 2069,967.663 2047.7,962.851 2015.87,949.246 1986.33,940.265 1950.23,942.808 1906.71,956.127 1867.49,969.553 1829.07,971.032 1784.89,979.248 1746.17,979.424 1706.52,980.332 1675.39,974.682 1640.22,979.17 1607.46,973.986 1574.23,965.947 1539.83,935.521 1511.74,920.873 1473.23,913.225 1440.43,898.059 1411.14,882.253 1378.98,861.554 1352.54,853.216 1324.93,867.031 1300.45,883.815 1271.65,898.302 1233.98,917 1195.81,925.742 1166.28,920.81 1138.19,897.28 1119.48,873.107 1102.08,843.547 1077.27,818.18 1065.64,787.018 1061.2,758.817 1062.88,735.338 1049.54,705.573 1026.31,688.093 997.999,676.51 977.355,655.253 969.578,624.372 967.468,600.542 956.787,572.785 965.416,545.38 986.789,518.919 998.4,502.612 1011.62,496.049 1021.42,481.631 1026.01,464.864 1033.32,441.456 1040.53,417.748 1045.09,388.862 1056.9,356.378 1057.62,332.921 1035.85,313.489 1015.97,299.633 987.826,299.448 960.92,309.053 934.133,305.013 902.791,290.539 864.393,276.448 840.557,269.893 817.879,264.768 802.076,247.475 801.039,225.879 816.093,208.54 837.69,188.824 861.218,171.671 904.126,161.004 934.412,148.023 968.995,141.44 999.557,152.415 1027.13,160.403 1061.67,155.383 1097.03,149.324 1117.14,128.073 1133.47,109.871 1145.99,88.901 "/>
<polyline clip-path="url(#clip741)" style="stroke:#ff0000; stroke-linecap:round; stroke-linejoin:round; stroke-width:4; stroke-opacity:1; fill:none" points="203.82,717.49 234.776,723.891 237.436,714.991 258.965,716.296 262.406,716.997 289.921,722.697 307.112,726.254 336.405,726.008 361.375,728.027 392.345,734.428 419.094,730.513 440.622,731.806 483.694,734.416 495.695,743.205 520.679,745.211 563.766,747.821 581.868,748.412 601.662,755.662 636.116,762.778 655.925,770.028 679.188,777.993 703.32,782.978 734.348,789.391 753.303,799.621 781.772,802.354 815.417,812.472 831.813,806.391 874.104,811.98 892.221,825.201 919.836,830.913 953.525,841.031 973.391,848.294 1001.04,854.006 1015.73,866.525 1033.9,879.758 1037.36,880.472 1070.19,880.94 1084.01,883.808 1109.08,885.827 1136.76,891.551 1161.87,906.237 1188.71,914.94 1206.87,915.543 1235.41,918.288 1271.74,919.47 1296.83,921.501 1331.46,928.665 1355.72,933.688 1380.8,935.706 1405.9,937.737 1443.09,935.953 1461.27,936.543 1490.67,936.31 1517.47,932.358 1548.55,926.154 1576.28,931.878 1603.06,927.939 1628.18,929.97 1646.22,917.906 1664.39,918.497 1681.58,909.425 1701.42,904.045 1725.7,909.068 1748.99,904.402 1769.81,908.699 1787.15,912.281 1810.61,920.282 1828.96,933.54 1851.6,944.532 1863.85,953.383 1880.56,972.636 1888.52,983.764 1895.64,997.883 1908.08,1019.44 1922.18,1035.01 1935.45,1053.59 1945.06,1058.74 1969.41,1063.79 1979.85,1065.94 1987.64,1064.38 2016.1,1054.43 2027.35,1053.59 2049.44,1026.5 2055.38,1018.23 2054.14,995.84 2058.22,980.883 2056.99,958.516 2037.77,948.238 2020.39,944.643 1997.72,933.651 1970.12,940.581 1949.28,936.285 1932.74,929.711 1915.39,926.129 1890.27,924.098 1872.26,936.174 1848.96,940.827 1836.07,947.647 1807.48,944.889 1782.35,942.871 1754.59,937.134 1736.25,923.877 1712.8,915.875 1677.15,899.035 1656.21,882.097 1635.29,865.159 1623.92,853.366 1612.57,841.561 1590.83,827.626 1577.7,809.173 1567.19,794.426 1560.99,777.414 1565.16,762.556 1584,747.575 1594.26,737.112 1617.5,732.483 1631.33,735.327 1660.66,735.093 1674.63,750.529 1695.39,754.813 1705.77,756.943 1733.46,762.654 1755.21,776.552 1760.49,783.926 1783.07,794.869 1802.2,805.111 1826.45,810.109 1845.41,807.721 1867.03,809.026 1891.93,798.427 1910.07,799.03 1923.94,801.886 1945.74,815.808 1960.62,828.315 1974.69,843.801 1981.82,857.859 1990.8,878.613 1999.77,899.38 2002.62,915.74 2000.37,937.356 2003.03,941.061 2009.36,958.16 2025.31,980.403 2028.17,996.8 2043.09,1009.37 2053.53,1011.54 2067.44,1014.4 2088.1,1006.02 2104.45,999.915 2113.85,992.369 2131.84,980.28 2136.94,975.024 2136.48,949.666 2121.54,937.11 2103.95,920.861 2093.32,906.064 2069.83,898.063 2041.23,895.318 2016.92,890.308 2006.51,888.153 1977.93,885.421 1960.58,881.838 1943.04,865.614 1929.16,862.758 1901.41,857.034 1889.37,860.85 1862.62,864.789 1844.29,851.556 1823.48,847.272 1804.5,849.648 1776.78,843.936 1763.74,838.102 1746.42,834.519 1720.51,835.48 1690.3,838.705 1666.19,846.325 1657.47,838.225 1657.32,825.595 1649.57,827.146 1638.35,827.983 1623.66,828.106 1616.74,826.678 1599.55,835.726 1586.66,842.521 1553.83,842.053 1538.3,845.143 1528.86,852.652 1522.05,863.866 1537.58,860.764 1556.56,858.376 1587.62,852.172 1596.92,832.033 1611.48,819.292 1615.64,804.409 1605.97,786.683 1589.38,767.541 1580.66,759.454 1569.21,735.105 1549.3,727.855 1527.01,742.122 1505.44,740.817 1474.32,734.403 1475.9,715.877 1470.56,695.947 1472.98,674.479 1477.16,659.658 1495.04,635.137 1500.06,617.374 1503.3,593 1484.28,582.832 1460.98,574.917 1454.08,573.501 1465.99,557.191 1490.86,546.666 1530.45,548.549 1568.13,531.303 1586.91,516.421 1604.72,491.998 1617.42,472.782 1637.95,464.522 1666.35,467.23 1690.46,472.167 1710.46,491.85 1739.82,504.111 1757.23,520.163 1766.08,540.708 1754.24,557.006 1734.66,574.855 1705.54,587.633 1671.17,593.086 1649.63,591.794 1610.71,574.412 1589.06,560.588 1580.26,540.031 1579.19,517.959 1597.96,503.089 1611.61,493.413 1638.08,477.017 1662.07,469.471 1685.08,452.372 1706.42,441.183 1724.47,441.761 1750.9,425.389 1750.75,412.919 1763.39,393.741 1775.36,389.974 1795.71,369.281 1784.4,357.648 1758.5,346.138 1774.74,340.156 1805.54,334.038 1832.24,342.593 1853.71,343.886 1881.24,349.511 1904.71,369.835 1904.07,385.235 1900.81,396.99 1875.24,410.408 1860.99,435.483 1845.91,463.525 1836.88,495.949 1840.51,509.17 1799.28,513.183 1779.73,531.02 1745.39,536.461 1714.64,555.123 1700.29,580.309 1681.53,595.216 1653.91,589.541 1631.41,578.671 1601.2,569.328 1589.89,557.634 1558.75,538.738 1556.13,535.082 1563.62,508.518 1591.06,501.673 1628.84,496.946 1652.96,501.895 1690.88,509.675 1716,524.188 1721.39,544.019 1737.13,565.992 1750.94,568.824 1782.01,575.2 1804.53,586.082 1811.44,587.498 1843.17,578.388 1867.17,570.818 1884.25,561.832 1904.97,566.079 1925.88,582.857 1920.98,600.608 1922.16,622.741 1904.61,659.83 1884.22,680.696 1861.17,697.905 1837.48,730.673 1839.46,749.914 1799.08,763.59 1775.83,768.231 1745.81,784.049 1720.06,797.614 1703.87,816.313 1686.83,837.991 1657.74,863.497 1634.45,868.15 1607.57,859.447 1583.32,854.437 1547.84,850.276 1520.99,841.573 1501.78,818.714 1488.68,800.261 1452.2,773.856 1441.73,759.122 1414,740.829 1392.41,739.524 1357.96,744.99 1344.14,742.134 1313.89,732.766 1311.14,703.912 1293.88,700.354 1267.17,704.281 1249.98,713.304 1222.48,732.778 1221.63,735.745 1183.7,740.497 1163.88,745.852 1137.12,737.173 1117.24,717.354 1094.78,706.435 1055.99,701.585 1025.82,692.218 1008.58,688.66 986.172,677.753 963.747,654.303 966.335,645.415 976.644,622.445 993.835,600.903 1004.13,577.97 1010.1,544.77 1016.09,524.114 999.734,505.12 982.543,501.587 971.367,489.917 975.646,475.183 1008.29,475.638 1046.96,480.464 1088.18,476.45 1114.8,472.548 1142.22,453.222 1167.89,427.322 1190.99,410.248 1221.86,404.13 1264.79,406.703 1294.04,418.927 1325.89,434.806 1355.17,447.042 1381.02,458.577 1402.59,472.364 1443.9,480.833 1465.49,494.632 1494.93,519.4 1526.99,547.848 1549.46,558.705 1571.95,569.574 1590.97,579.742 1600.37,572.283 1625.21,561.758 1655.17,546.038 1675.71,537.766 1708.26,525.715 1740.95,526.182 1778.08,536.916 1803.38,563.974 1806.17,580.161 1803.21,617.078 1782.97,650.487 1784.11,672.645 1774.21,708.245 1775.51,743.033 1793.13,771.801 1826.29,797.491 1864.21,792.727 1878.08,795.583 1916.19,803.425 1935.53,826.284 1964.48,854.289 1984.87,886.849 1994.86,917.291 1997.72,933.651 2012.22,920.873 2054.72,926.486 2079.04,931.496 2089.68,946.317 2092.34,950.023 2094.19,956.719 2099.73,976.809 2102.39,980.526 2119.78,984.109 2137.97,984.712 2169.86,975.492 2195.25,990.214 2203.26,1001.35 2218.47,1026.63 2216.03,1035.61 2220.09,1020.63 2225.76,999.668 2222.59,970.592 2210.88,946.071 2194.88,923.852 2185.84,903.073 2187.23,884.448 2153.89,858.684 2151.59,826.74 2157.26,805.899 2174.38,796.851 2195.99,798.168 2222.94,806.847 2237.88,819.354 2250.38,840.797 2280.28,865.836 2290.15,883.611 2278.62,912.736 2258.26,933.761 2242.17,952.534 2209.5,964.733 2193.39,983.518 2164.18,996.443 2135.18,1022.07 2119.04,1040.88 2109.04,1064.15 2087.77,1088.26 2070.78,1110.11 2044.16,1126.82 2019.16,1137.51 1984.72,1155.78 1961.55,1173.22 1933.86,1180.2 1902.03,1202.23 1890.93,1215.84 1853.77,1230.42 1839.17,1243.32 1818.58,1264.54 1798.97,1295.55 1794.82,1310.64 1789,1331.79 1781.51,1358.99 1808.78,1380.66 1813.27,1391.2 1805.78,1418.44 1798.28,1445.72 1779.98,1445.1 1754.66,1443.04 1730.87,1422.07 1720.1,1394.2 1706.82,1375.44 1680.41,1350.76 1636.6,1322.46 1614.83,1321.13 1578.28,1319.92 1539.2,1327.76 1495.78,1337.92 1477.5,1337.3 1436.51,1325.58 1413.81,1314.46 1391.89,1287.53 1390.78,1252.19 1384.4,1209.42 1364.29,1189.31 1344.19,1169.21 1350.06,1135.43 1346.44,1109.25 1338.48,1085.37 1325.28,1054.07 1306.1,1031.06 1302.48,1004.95 1309.21,968.34 1318.53,935.472 1337.38,907.775 1353.62,876.397 1366.37,844.33 1393.87,824.795 1386.79,798.131 1371.94,773.032 1338.99,747.366 1309.67,747.612 1291.48,734.428 1280.98,707.125 1276.49,671.66 1291,646.425 1303.8,627.123 1324.42,618.826 1361.36,604.498 1399.2,599.758 1440.49,595.733 1476.65,596.915 1500.68,589.332 1527.11,560.367 1543.29,541.816 1572.41,529.063 1592.14,523.745 1596.29,508.985 1582.38,493.66 1558.15,476.217 1532.27,464.67 1501.07,433.341 1481.98,410.753 1470.63,386.65 1454.18,367.73 1451.48,351.641 1458.14,328.154 1475.22,319.241 1494.17,329.323 1529.37,333.422 1572.26,335.983 1602.38,345.252 1644.47,350.755 1672.81,353.45 1704.73,369.306 1725.38,373.528 1752.76,366.708 1777.52,356.245 1811.77,350.828 1844.37,351.284 1875.17,345.166 1896.01,361.846 1906.52,376.408 1911.59,371.238 1924.18,352.084 1943.65,334.346 1960.68,325.421 1987.01,309.098 2003.2,303.103 1992.07,303.928 1963.54,288.811 1957.28,272.058 1944.77,238.563 1952.09,212.22 1962.2,201.929 1994.55,189.988 2029.72,194.063 2050.34,198.273 2088.95,203.049 2125.16,216.602 2144.4,239.067 2147.5,267.54 2140.25,293.908 2131.77,298.376 2133.82,317.383 2137.71,342.975 2131.48,378.932 2099.06,390.934 2080.86,430.719 2054.5,447.092 2032.58,473.73 2026.29,509.835 2003.95,511.484 1962.73,515.51 1925.96,529.801 1896.89,542.567 1881.81,570.695 1869.33,602.516 1870.33,612.093 1897.15,620.734 1929.26,636.712 1969.12,651.164 2002.29,676.769 2024.89,687.675 2067.24,693.239 2100.02,693.707 2141.35,689.669 2165.58,694.655 2191.45,693.695 2202.41,680.289 2219.25,658.71 2236.07,637.131 2232.14,611.317 2229.23,595.105 2218.37,567.9 2187.84,546.038 2170.33,529.986 2145.11,515.46 2096.98,518.07 2080.73,524.102 2053.52,543.478 2037.48,562.029 2007.8,590.292 2007.39,618.346 2013.08,650.795 2016.13,679.612 2034.66,705.352 2046.27,729.689 2061.57,767.369 2075.87,795.436 2106.26,804.84 2137.71,823.884 2165.93,854.868 2182.7,874.071 2198.93,908.92 2204.49,928.985 2202.06,937.947 2167.54,943.449 2126.29,960.191 2105.42,955.882 2092.55,962.702 2069.25,967.367 2044.93,962.345 2009.16,945.48 1981.37,939.744 1943.36,944.532 1895.09,959.834 1862.37,972.033 1825.98,970.839 1779.35,980.17 1746.45,979.689 1705.76,980.773 1677.98,975.036 1639.94,979.813 1608.71,973.362 1574.01,966.186 1533.01,929.256 1513.04,921.969 1471.46,913.376 1439.35,897.263 1410.7,881.875 1376.84,859.102 1356.07,854.818 1326.77,867.694 1300.08,884.263 1269.91,900.143 1227.64,919.839 1193.07,925.329 1168.84,920.319 1135.9,894.542 1120.28,872.36 1100.32,839.825 1074.35,815.538 1064.8,785.194 1061.28,759.282 1063.83,737.776 1048.24,703.124 1026.67,689.251 997.363,676.929 978.394,654.18 969.762,621.03 968.012,601.863 955.101,571.002 966.263,545.127 989.44,515.497 996.308,504.406 1009.18,497.685 1021.19,481.411 1026.31,463.734 1034,437.244 1040.83,413.707 1045.91,383.597 1059.56,349.068 1056.96,332.979 1033.78,312.693 1015.77,299.681 986.635,299.927 958.368,309.664 930.955,304.051 895.835,287.531 856.45,273.252 842.758,270.445 818.786,265.534 802.549,246.687 801.739,224.813 818.019,206.446 841.992,186.566 865.096,169.628 915.542,158.278 936.912,147.187 971.092,141.795 1000.17,153.932 1027.54,159.521 1065.14,154.831 1099.32,149.452 1116.36,128.205 1132.54,109.888 1146.13,87.9763 "/>
<path clip-path="url(#clip740)" d="M214.252 1438.47 L760.776 1438.47 L760.776 1282.95 L214.252 1282.95  Z" fill="#ffffff" fill-rule="evenodd" fill-opacity="1"/>
<polyline clip-path="url(#clip740)" style="stroke:#000000; stroke-linecap:round; stroke-linejoin:round; stroke-width:4; stroke-opacity:1; fill:none" points="214.252,1438.47 760.776,1438.47 760.776,1282.95 214.252,1282.95 214.252,1438.47 "/>
<polyline clip-path="url(#clip740)" style="stroke:#0000ff; stroke-linecap:round; stroke-linejoin:round; stroke-width:4; stroke-opacity:1; fill:none" points="238.832,1334.79 386.315,1334.79 "/>
<path clip-path="url(#clip740)" d="M434.924 1338.05 L434.924 1340.13 L415.34 1340.13 Q415.618 1344.53 417.979 1346.84 Q420.363 1349.13 424.6 1349.13 Q427.053 1349.13 429.345 1348.53 Q431.66 1347.93 433.928 1346.73 L433.928 1350.75 Q431.637 1351.73 429.229 1352.24 Q426.822 1352.75 424.345 1352.75 Q418.141 1352.75 414.507 1349.13 Q410.896 1345.52 410.896 1339.37 Q410.896 1333 414.322 1329.27 Q417.771 1325.52 423.604 1325.52 Q428.836 1325.52 431.868 1328.9 Q434.924 1332.26 434.924 1338.05 M430.664 1336.8 Q430.618 1333.3 428.697 1331.22 Q426.799 1329.13 423.65 1329.13 Q420.086 1329.13 417.933 1331.15 Q415.803 1333.16 415.479 1336.82 L430.664 1336.8 Z" fill="#000000" fill-rule="nonzero" fill-opacity="1" /><path clip-path="url(#clip740)" d="M458.442 1326.91 L458.442 1330.94 Q456.636 1330.01 454.692 1329.55 Q452.748 1329.09 450.664 1329.09 Q447.493 1329.09 445.896 1330.06 Q444.322 1331.03 444.322 1332.98 Q444.322 1334.46 445.456 1335.32 Q446.59 1336.15 450.016 1336.91 L451.474 1337.24 Q456.011 1338.21 457.91 1339.99 Q459.831 1341.75 459.831 1344.92 Q459.831 1348.53 456.96 1350.64 Q454.113 1352.75 449.113 1352.75 Q447.03 1352.75 444.761 1352.33 Q442.516 1351.94 440.016 1351.13 L440.016 1346.73 Q442.377 1347.95 444.669 1348.58 Q446.961 1349.18 449.206 1349.18 Q452.215 1349.18 453.836 1348.16 Q455.456 1347.12 455.456 1345.25 Q455.456 1343.51 454.275 1342.58 Q453.118 1341.66 449.16 1340.8 L447.678 1340.45 Q443.72 1339.62 441.961 1337.91 Q440.201 1336.17 440.201 1333.16 Q440.201 1329.51 442.794 1327.51 Q445.386 1325.52 450.155 1325.52 Q452.516 1325.52 454.599 1325.87 Q456.683 1326.22 458.442 1326.91 Z" fill="#000000" fill-rule="nonzero" fill-opacity="1" /><path clip-path="url(#clip740)" d="M470.826 1318.79 L470.826 1326.15 L479.599 1326.15 L479.599 1329.46 L470.826 1329.46 L470.826 1343.53 Q470.826 1346.7 471.683 1347.61 Q472.562 1348.51 475.224 1348.51 L479.599 1348.51 L479.599 1352.07 L475.224 1352.07 Q470.294 1352.07 468.419 1350.25 Q466.544 1348.39 466.544 1343.53 L466.544 1329.46 L463.419 1329.46 L463.419 1326.15 L466.544 1326.15 L466.544 1318.79 L470.826 1318.79 Z" fill="#000000" fill-rule="nonzero" fill-opacity="1" /><path clip-path="url(#clip740)" d="M485.201 1326.15 L489.46 1326.15 L489.46 1352.07 L485.201 1352.07 L485.201 1326.15 M485.201 1316.06 L489.46 1316.06 L489.46 1321.45 L485.201 1321.45 L485.201 1316.06 Z" fill="#000000" fill-rule="nonzero" fill-opacity="1" /><path clip-path="url(#clip740)" d="M518.557 1331.13 Q520.155 1328.26 522.377 1326.89 Q524.599 1325.52 527.608 1325.52 Q531.659 1325.52 533.858 1328.37 Q536.057 1331.19 536.057 1336.43 L536.057 1352.07 L531.775 1352.07 L531.775 1336.57 Q531.775 1332.84 530.455 1331.03 Q529.136 1329.23 526.428 1329.23 Q523.118 1329.23 521.196 1331.43 Q519.275 1333.63 519.275 1337.42 L519.275 1352.07 L514.993 1352.07 L514.993 1336.57 Q514.993 1332.82 513.673 1331.03 Q512.354 1329.23 509.599 1329.23 Q506.335 1329.23 504.414 1331.45 Q502.493 1333.65 502.493 1337.42 L502.493 1352.07 L498.21 1352.07 L498.21 1326.15 L502.493 1326.15 L502.493 1330.18 Q503.951 1327.79 505.988 1326.66 Q508.025 1325.52 510.826 1325.52 Q513.65 1325.52 515.618 1326.96 Q517.608 1328.39 518.557 1331.13 Z" fill="#000000" fill-rule="nonzero" fill-opacity="1" /><path clip-path="url(#clip740)" d="M556.335 1339.04 Q551.173 1339.04 549.182 1340.22 Q547.191 1341.4 547.191 1344.25 Q547.191 1346.52 548.673 1347.86 Q550.178 1349.18 552.747 1349.18 Q556.289 1349.18 558.418 1346.68 Q560.571 1344.16 560.571 1339.99 L560.571 1339.04 L556.335 1339.04 M564.83 1337.28 L564.83 1352.07 L560.571 1352.07 L560.571 1348.14 Q559.113 1350.5 556.937 1351.63 Q554.761 1352.75 551.613 1352.75 Q547.631 1352.75 545.27 1350.52 Q542.932 1348.28 542.932 1344.53 Q542.932 1340.15 545.849 1337.93 Q548.789 1335.71 554.599 1335.71 L560.571 1335.71 L560.571 1335.29 Q560.571 1332.35 558.627 1330.76 Q556.705 1329.13 553.21 1329.13 Q550.988 1329.13 548.881 1329.67 Q546.775 1330.2 544.83 1331.26 L544.83 1327.33 Q547.168 1326.43 549.367 1325.99 Q551.566 1325.52 553.65 1325.52 Q559.275 1325.52 562.053 1328.44 Q564.83 1331.36 564.83 1337.28 Z" fill="#000000" fill-rule="nonzero" fill-opacity="1" /><path clip-path="url(#clip740)" d="M577.816 1318.79 L577.816 1326.15 L586.589 1326.15 L586.589 1329.46 L577.816 1329.46 L577.816 1343.53 Q577.816 1346.7 578.673 1347.61 Q579.552 1348.51 582.214 1348.51 L586.589 1348.51 L586.589 1352.07 L582.214 1352.07 Q577.284 1352.07 575.409 1350.25 Q573.534 1348.39 573.534 1343.53 L573.534 1329.46 L570.409 1329.46 L570.409 1326.15 L573.534 1326.15 L573.534 1318.79 L577.816 1318.79 Z" fill="#000000" fill-rule="nonzero" fill-opacity="1" /><path clip-path="url(#clip740)" d="M614.367 1338.05 L614.367 1340.13 L594.784 1340.13 Q595.062 1344.53 597.423 1346.84 Q599.807 1349.13 604.043 1349.13 Q606.497 1349.13 608.788 1348.53 Q611.103 1347.93 613.372 1346.73 L613.372 1350.75 Q611.08 1351.73 608.673 1352.24 Q606.265 1352.75 603.788 1352.75 Q597.585 1352.75 593.95 1349.13 Q590.339 1345.52 590.339 1339.37 Q590.339 1333 593.765 1329.27 Q597.214 1325.52 603.048 1325.52 Q608.279 1325.52 611.312 1328.9 Q614.367 1332.26 614.367 1338.05 M610.108 1336.8 Q610.062 1333.3 608.14 1331.22 Q606.242 1329.13 603.094 1329.13 Q599.529 1329.13 597.376 1331.15 Q595.247 1333.16 594.923 1336.82 L610.108 1336.8 Z" fill="#000000" fill-rule="nonzero" fill-opacity="1" /><polyline clip-path="url(#clip740)" style="stroke:#ff0000; stroke-linecap:round; stroke-linejoin:round; stroke-width:4; stroke-opacity:1; fill:none" points="238.832,1386.63 386.315,1386.63 "/>
<path clip-path="url(#clip740)" d="M431.243 1382.97 Q432.84 1380.1 435.062 1378.73 Q437.285 1377.36 440.294 1377.36 Q444.345 1377.36 446.544 1380.21 Q448.743 1383.03 448.743 1388.27 L448.743 1403.91 L444.461 1403.91 L444.461 1388.41 Q444.461 1384.68 443.141 1382.87 Q441.822 1381.07 439.113 1381.07 Q435.803 1381.07 433.882 1383.27 Q431.961 1385.47 431.961 1389.26 L431.961 1403.91 L427.678 1403.91 L427.678 1388.41 Q427.678 1384.66 426.359 1382.87 Q425.039 1381.07 422.285 1381.07 Q419.021 1381.07 417.1 1383.29 Q415.178 1385.49 415.178 1389.26 L415.178 1403.91 L410.896 1403.91 L410.896 1377.99 L415.178 1377.99 L415.178 1382.02 Q416.637 1379.63 418.674 1378.5 Q420.711 1377.36 423.512 1377.36 Q426.336 1377.36 428.303 1378.8 Q430.294 1380.23 431.243 1382.97 Z" fill="#000000" fill-rule="nonzero" fill-opacity="1" /><path clip-path="url(#clip740)" d="M479.414 1389.89 L479.414 1391.97 L459.831 1391.97 Q460.109 1396.37 462.47 1398.68 Q464.854 1400.97 469.09 1400.97 Q471.544 1400.97 473.835 1400.37 Q476.15 1399.77 478.419 1398.57 L478.419 1402.59 Q476.127 1403.57 473.72 1404.08 Q471.312 1404.59 468.835 1404.59 Q462.632 1404.59 458.998 1400.97 Q455.386 1397.36 455.386 1391.21 Q455.386 1384.84 458.812 1381.11 Q462.261 1377.36 468.095 1377.36 Q473.326 1377.36 476.359 1380.74 Q479.414 1384.1 479.414 1389.89 M475.155 1388.64 Q475.109 1385.14 473.187 1383.06 Q471.289 1380.97 468.141 1380.97 Q464.576 1380.97 462.423 1382.99 Q460.294 1385 459.97 1388.66 L475.155 1388.64 Z" fill="#000000" fill-rule="nonzero" fill-opacity="1" /><path clip-path="url(#clip740)" d="M498.187 1390.88 Q493.025 1390.88 491.034 1392.06 Q489.044 1393.24 489.044 1396.09 Q489.044 1398.36 490.525 1399.7 Q492.03 1401.02 494.599 1401.02 Q498.141 1401.02 500.27 1398.52 Q502.423 1396 502.423 1391.83 L502.423 1390.88 L498.187 1390.88 M506.682 1389.12 L506.682 1403.91 L502.423 1403.91 L502.423 1399.98 Q500.965 1402.34 498.789 1403.47 Q496.613 1404.59 493.465 1404.59 Q489.483 1404.59 487.122 1402.36 Q484.784 1400.12 484.784 1396.37 Q484.784 1391.99 487.701 1389.77 Q490.641 1387.55 496.451 1387.55 L502.423 1387.55 L502.423 1387.13 Q502.423 1384.19 500.479 1382.6 Q498.557 1380.97 495.062 1380.97 Q492.84 1380.97 490.733 1381.51 Q488.627 1382.04 486.683 1383.1 L486.683 1379.17 Q489.021 1378.27 491.22 1377.83 Q493.419 1377.36 495.502 1377.36 Q501.127 1377.36 503.905 1380.28 Q506.682 1383.2 506.682 1389.12 Z" fill="#000000" fill-rule="nonzero" fill-opacity="1" /><path clip-path="url(#clip740)" d="M531.983 1378.75 L531.983 1382.78 Q530.178 1381.85 528.233 1381.39 Q526.289 1380.93 524.206 1380.93 Q521.034 1380.93 519.437 1381.9 Q517.863 1382.87 517.863 1384.82 Q517.863 1386.3 518.997 1387.16 Q520.131 1387.99 523.557 1388.75 L525.016 1389.08 Q529.553 1390.05 531.451 1391.83 Q533.372 1393.59 533.372 1396.76 Q533.372 1400.37 530.502 1402.48 Q527.655 1404.59 522.655 1404.59 Q520.571 1404.59 518.303 1404.17 Q516.057 1403.78 513.557 1402.97 L513.557 1398.57 Q515.919 1399.79 518.21 1400.42 Q520.502 1401.02 522.747 1401.02 Q525.756 1401.02 527.377 1400 Q528.997 1398.96 528.997 1397.09 Q528.997 1395.35 527.817 1394.42 Q526.659 1393.5 522.701 1392.64 L521.219 1392.29 Q517.261 1391.46 515.502 1389.75 Q513.743 1388.01 513.743 1385 Q513.743 1381.35 516.335 1379.35 Q518.928 1377.36 523.696 1377.36 Q526.057 1377.36 528.141 1377.71 Q530.224 1378.06 531.983 1378.75 Z" fill="#000000" fill-rule="nonzero" fill-opacity="1" /><path clip-path="url(#clip740)" d="M539.715 1393.68 L539.715 1377.99 L543.974 1377.99 L543.974 1393.52 Q543.974 1397.2 545.409 1399.05 Q546.844 1400.88 549.715 1400.88 Q553.164 1400.88 555.154 1398.68 Q557.168 1396.48 557.168 1392.69 L557.168 1377.99 L561.428 1377.99 L561.428 1403.91 L557.168 1403.91 L557.168 1399.93 Q555.617 1402.29 553.557 1403.45 Q551.52 1404.59 548.812 1404.59 Q544.344 1404.59 542.029 1401.81 Q539.715 1399.03 539.715 1393.68 M550.432 1377.36 L550.432 1377.36 Z" fill="#000000" fill-rule="nonzero" fill-opacity="1" /><path clip-path="url(#clip740)" d="M585.224 1381.97 Q584.506 1381.55 583.65 1381.37 Q582.816 1381.16 581.798 1381.16 Q578.187 1381.16 576.242 1383.52 Q574.321 1385.86 574.321 1390.26 L574.321 1403.91 L570.039 1403.91 L570.039 1377.99 L574.321 1377.99 L574.321 1382.02 Q575.664 1379.66 577.816 1378.52 Q579.969 1377.36 583.048 1377.36 Q583.488 1377.36 584.02 1377.43 Q584.552 1377.48 585.201 1377.6 L585.224 1381.97 Z" fill="#000000" fill-rule="nonzero" fill-opacity="1" /><path clip-path="url(#clip740)" d="M610.825 1389.89 L610.825 1391.97 L591.242 1391.97 Q591.52 1396.37 593.881 1398.68 Q596.265 1400.97 600.501 1400.97 Q602.955 1400.97 605.247 1400.37 Q607.562 1399.77 609.83 1398.57 L609.83 1402.59 Q607.538 1403.57 605.131 1404.08 Q602.724 1404.59 600.247 1404.59 Q594.043 1404.59 590.409 1400.97 Q586.798 1397.36 586.798 1391.21 Q586.798 1384.84 590.224 1381.11 Q593.673 1377.36 599.506 1377.36 Q604.737 1377.36 607.77 1380.74 Q610.825 1384.1 610.825 1389.89 M606.566 1388.64 Q606.52 1385.14 604.599 1383.06 Q602.7 1380.97 599.552 1380.97 Q595.988 1380.97 593.835 1382.99 Q591.705 1385 591.381 1388.66 L606.566 1388.64 Z" fill="#000000" fill-rule="nonzero" fill-opacity="1" /><path clip-path="url(#clip740)" d="M638.001 1382.97 Q639.598 1380.1 641.821 1378.73 Q644.043 1377.36 647.052 1377.36 Q651.103 1377.36 653.302 1380.21 Q655.501 1383.03 655.501 1388.27 L655.501 1403.91 L651.219 1403.91 L651.219 1388.41 Q651.219 1384.68 649.899 1382.87 Q648.58 1381.07 645.872 1381.07 Q642.561 1381.07 640.64 1383.27 Q638.719 1385.47 638.719 1389.26 L638.719 1403.91 L634.436 1403.91 L634.436 1388.41 Q634.436 1384.66 633.117 1382.87 Q631.798 1381.07 629.043 1381.07 Q625.779 1381.07 623.858 1383.29 Q621.936 1385.49 621.936 1389.26 L621.936 1403.91 L617.654 1403.91 L617.654 1377.99 L621.936 1377.99 L621.936 1382.02 Q623.395 1379.63 625.432 1378.5 Q627.469 1377.36 630.27 1377.36 Q633.094 1377.36 635.061 1378.8 Q637.052 1380.23 638.001 1382.97 Z" fill="#000000" fill-rule="nonzero" fill-opacity="1" /><path clip-path="url(#clip740)" d="M686.172 1389.89 L686.172 1391.97 L666.589 1391.97 Q666.867 1396.37 669.228 1398.68 Q671.612 1400.97 675.848 1400.97 Q678.302 1400.97 680.594 1400.37 Q682.908 1399.77 685.177 1398.57 L685.177 1402.59 Q682.885 1403.57 680.478 1404.08 Q678.07 1404.59 675.594 1404.59 Q669.39 1404.59 665.756 1400.97 Q662.145 1397.36 662.145 1391.21 Q662.145 1384.84 665.57 1381.11 Q669.02 1377.36 674.853 1377.36 Q680.084 1377.36 683.117 1380.74 Q686.172 1384.1 686.172 1389.89 M681.913 1388.64 Q681.867 1385.14 679.945 1383.06 Q678.047 1380.97 674.899 1380.97 Q671.334 1380.97 669.182 1382.99 Q667.052 1385 666.728 1388.66 L681.913 1388.64 Z" fill="#000000" fill-rule="nonzero" fill-opacity="1" /><path clip-path="url(#clip740)" d="M714.714 1388.27 L714.714 1403.91 L710.455 1403.91 L710.455 1388.41 Q710.455 1384.72 709.019 1382.9 Q707.584 1381.07 704.714 1381.07 Q701.265 1381.07 699.274 1383.27 Q697.283 1385.47 697.283 1389.26 L697.283 1403.91 L693.001 1403.91 L693.001 1377.99 L697.283 1377.99 L697.283 1382.02 Q698.811 1379.68 700.871 1378.52 Q702.955 1377.36 705.663 1377.36 Q710.13 1377.36 712.422 1380.14 Q714.714 1382.9 714.714 1388.27 Z" fill="#000000" fill-rule="nonzero" fill-opacity="1" /><path clip-path="url(#clip740)" d="M727.422 1370.63 L727.422 1377.99 L736.195 1377.99 L736.195 1381.3 L727.422 1381.3 L727.422 1395.37 Q727.422 1398.54 728.278 1399.45 Q729.158 1400.35 731.82 1400.35 L736.195 1400.35 L736.195 1403.91 L731.82 1403.91 Q726.89 1403.91 725.015 1402.09 Q723.14 1400.23 723.14 1395.37 L723.14 1381.3 L720.015 1381.3 L720.015 1377.99 L723.14 1377.99 L723.14 1370.63 L727.422 1370.63 Z" fill="#000000" fill-rule="nonzero" fill-opacity="1" /></svg>
