<?xml version="1.0" encoding="utf-8"?>
<svg xmlns="http://www.w3.org/2000/svg" xmlns:xlink="http://www.w3.org/1999/xlink" width="600" height="400" viewBox="0 0 2400 1600">
<defs>
  <clipPath id="clip330">
    <rect x="0" y="0" width="2400" height="1600"/>
  </clipPath>
</defs>
<path clip-path="url(#clip330)" d="M0 1600 L2400 1600 L2400 0 L0 0  Z" fill="#ffffff" fill-rule="evenodd" fill-opacity="1"/>
<defs>
  <clipPath id="clip331">
    <rect x="193" y="47" width="2160" height="1440"/>
  </clipPath>
</defs>
<path clip-path="url(#clip330)" d="M193.936 1486.45 L2352.76 1486.45 L2352.76 47.2441 L193.936 47.2441  Z" fill="#ffffff" fill-rule="evenodd" fill-opacity="1"/>
<polyline clip-path="url(#clip331)" style="stroke:#000000; stroke-linecap:round; stroke-linejoin:round; stroke-width:2; stroke-opacity:0.1; fill:none" points="229.255,1486.45 229.255,47.2441 "/>
<polyline clip-path="url(#clip331)" style="stroke:#000000; stroke-linecap:round; stroke-linejoin:round; stroke-width:2; stroke-opacity:0.1; fill:none" points="744.855,1486.45 744.855,47.2441 "/>
<polyline clip-path="url(#clip331)" style="stroke:#000000; stroke-linecap:round; stroke-linejoin:round; stroke-width:2; stroke-opacity:0.1; fill:none" points="1260.46,1486.45 1260.46,47.2441 "/>
<polyline clip-path="url(#clip331)" style="stroke:#000000; stroke-linecap:round; stroke-linejoin:round; stroke-width:2; stroke-opacity:0.1; fill:none" points="1776.06,1486.45 1776.06,47.2441 "/>
<polyline clip-path="url(#clip331)" style="stroke:#000000; stroke-linecap:round; stroke-linejoin:round; stroke-width:2; stroke-opacity:0.1; fill:none" points="2291.66,1486.45 2291.66,47.2441 "/>
<polyline clip-path="url(#clip331)" style="stroke:#000000; stroke-linecap:round; stroke-linejoin:round; stroke-width:2; stroke-opacity:0.1; fill:none" points="193.936,1282.39 2352.76,1282.39 "/>
<polyline clip-path="url(#clip331)" style="stroke:#000000; stroke-linecap:round; stroke-linejoin:round; stroke-width:2; stroke-opacity:0.1; fill:none" points="193.936,1054.07 2352.76,1054.07 "/>
<polyline clip-path="url(#clip331)" style="stroke:#000000; stroke-linecap:round; stroke-linejoin:round; stroke-width:2; stroke-opacity:0.1; fill:none" points="193.936,825.759 2352.76,825.759 "/>
<polyline clip-path="url(#clip331)" style="stroke:#000000; stroke-linecap:round; stroke-linejoin:round; stroke-width:2; stroke-opacity:0.1; fill:none" points="193.936,597.446 2352.76,597.446 "/>
<polyline clip-path="url(#clip331)" style="stroke:#000000; stroke-linecap:round; stroke-linejoin:round; stroke-width:2; stroke-opacity:0.1; fill:none" points="193.936,369.132 2352.76,369.132 "/>
<polyline clip-path="url(#clip331)" style="stroke:#000000; stroke-linecap:round; stroke-linejoin:round; stroke-width:2; stroke-opacity:0.1; fill:none" points="193.936,140.819 2352.76,140.819 "/>
<polyline clip-path="url(#clip330)" style="stroke:#000000; stroke-linecap:round; stroke-linejoin:round; stroke-width:4; stroke-opacity:1; fill:none" points="193.936,1486.45 2352.76,1486.45 "/>
<polyline clip-path="url(#clip330)" style="stroke:#000000; stroke-linecap:round; stroke-linejoin:round; stroke-width:4; stroke-opacity:1; fill:none" points="229.255,1486.45 229.255,1467.55 "/>
<polyline clip-path="url(#clip330)" style="stroke:#000000; stroke-linecap:round; stroke-linejoin:round; stroke-width:4; stroke-opacity:1; fill:none" points="744.855,1486.45 744.855,1467.55 "/>
<polyline clip-path="url(#clip330)" style="stroke:#000000; stroke-linecap:round; stroke-linejoin:round; stroke-width:4; stroke-opacity:1; fill:none" points="1260.46,1486.45 1260.46,1467.55 "/>
<polyline clip-path="url(#clip330)" style="stroke:#000000; stroke-linecap:round; stroke-linejoin:round; stroke-width:4; stroke-opacity:1; fill:none" points="1776.06,1486.45 1776.06,1467.55 "/>
<polyline clip-path="url(#clip330)" style="stroke:#000000; stroke-linecap:round; stroke-linejoin:round; stroke-width:4; stroke-opacity:1; fill:none" points="2291.66,1486.45 2291.66,1467.55 "/>
<path clip-path="url(#clip330)" d="M229.255 1517.37 Q225.644 1517.37 223.815 1520.93 Q222.009 1524.47 222.009 1531.6 Q222.009 1538.71 223.815 1542.27 Q225.644 1545.82 229.255 1545.82 Q232.889 1545.82 234.694 1542.27 Q236.523 1538.71 236.523 1531.6 Q236.523 1524.47 234.694 1520.93 Q232.889 1517.37 229.255 1517.37 M229.255 1513.66 Q235.065 1513.66 238.12 1518.27 Q241.199 1522.85 241.199 1531.6 Q241.199 1540.33 238.12 1544.94 Q235.065 1549.52 229.255 1549.52 Q223.444 1549.52 220.366 1544.94 Q217.31 1540.33 217.31 1531.6 Q217.31 1522.85 220.366 1518.27 Q223.444 1513.66 229.255 1513.66 Z" fill="#000000" fill-rule="nonzero" fill-opacity="1" /><path clip-path="url(#clip330)" d="M723.629 1544.91 L739.948 1544.91 L739.948 1548.85 L718.004 1548.85 L718.004 1544.91 Q720.666 1542.16 725.249 1537.53 Q729.855 1532.88 731.036 1531.53 Q733.281 1529.01 734.161 1527.27 Q735.064 1525.51 735.064 1523.82 Q735.064 1521.07 733.119 1519.33 Q731.198 1517.6 728.096 1517.6 Q725.897 1517.6 723.443 1518.36 Q721.013 1519.13 718.235 1520.68 L718.235 1515.95 Q721.059 1514.82 723.513 1514.24 Q725.967 1513.66 728.004 1513.66 Q733.374 1513.66 736.568 1516.35 Q739.763 1519.03 739.763 1523.52 Q739.763 1525.65 738.953 1527.57 Q738.166 1529.47 736.059 1532.07 Q735.48 1532.74 732.379 1535.95 Q729.277 1539.15 723.629 1544.91 Z" fill="#000000" fill-rule="nonzero" fill-opacity="1" /><path clip-path="url(#clip330)" d="M759.763 1517.37 Q756.152 1517.37 754.323 1520.93 Q752.517 1524.47 752.517 1531.6 Q752.517 1538.71 754.323 1542.27 Q756.152 1545.82 759.763 1545.82 Q763.397 1545.82 765.202 1542.27 Q767.031 1538.71 767.031 1531.6 Q767.031 1524.47 765.202 1520.93 Q763.397 1517.37 759.763 1517.37 M759.763 1513.66 Q765.573 1513.66 768.628 1518.27 Q771.707 1522.85 771.707 1531.6 Q771.707 1540.33 768.628 1544.94 Q765.573 1549.52 759.763 1549.52 Q753.952 1549.52 750.874 1544.94 Q747.818 1540.33 747.818 1531.6 Q747.818 1522.85 750.874 1518.27 Q753.952 1513.66 759.763 1513.66 Z" fill="#000000" fill-rule="nonzero" fill-opacity="1" /><path clip-path="url(#clip330)" d="M1248.63 1518.36 L1236.82 1536.81 L1248.63 1536.81 L1248.63 1518.36 M1247.4 1514.29 L1253.28 1514.29 L1253.28 1536.81 L1258.21 1536.81 L1258.21 1540.7 L1253.28 1540.7 L1253.28 1548.85 L1248.63 1548.85 L1248.63 1540.7 L1233.03 1540.7 L1233.03 1536.19 L1247.4 1514.29 Z" fill="#000000" fill-rule="nonzero" fill-opacity="1" /><path clip-path="url(#clip330)" d="M1275.94 1517.37 Q1272.33 1517.37 1270.5 1520.93 Q1268.7 1524.47 1268.7 1531.6 Q1268.7 1538.71 1270.5 1542.27 Q1272.33 1545.82 1275.94 1545.82 Q1279.58 1545.82 1281.38 1542.27 Q1283.21 1538.71 1283.21 1531.6 Q1283.21 1524.47 1281.38 1520.93 Q1279.58 1517.37 1275.94 1517.37 M1275.94 1513.66 Q1281.75 1513.66 1284.81 1518.27 Q1287.89 1522.85 1287.89 1531.6 Q1287.89 1540.33 1284.81 1544.94 Q1281.75 1549.52 1275.94 1549.52 Q1270.13 1549.52 1267.05 1544.94 Q1264 1540.33 1264 1531.6 Q1264 1522.85 1267.05 1518.27 Q1270.13 1513.66 1275.94 1513.66 Z" fill="#000000" fill-rule="nonzero" fill-opacity="1" /><path clip-path="url(#clip330)" d="M1761.46 1529.7 Q1758.31 1529.7 1756.46 1531.86 Q1754.63 1534.01 1754.63 1537.76 Q1754.63 1541.49 1756.46 1543.66 Q1758.31 1545.82 1761.46 1545.82 Q1764.61 1545.82 1766.44 1543.66 Q1768.29 1541.49 1768.29 1537.76 Q1768.29 1534.01 1766.44 1531.86 Q1764.61 1529.7 1761.46 1529.7 M1770.74 1515.05 L1770.74 1519.31 Q1768.98 1518.48 1767.18 1518.04 Q1765.4 1517.6 1763.64 1517.6 Q1759.01 1517.6 1756.55 1520.72 Q1754.12 1523.85 1753.78 1530.17 Q1755.14 1528.15 1757.2 1527.09 Q1759.26 1526 1761.74 1526 Q1766.95 1526 1769.96 1529.17 Q1772.99 1532.32 1772.99 1537.76 Q1772.99 1543.08 1769.84 1546.3 Q1766.69 1549.52 1761.46 1549.52 Q1755.47 1549.52 1752.3 1544.94 Q1749.12 1540.33 1749.12 1531.6 Q1749.12 1523.41 1753.01 1518.55 Q1756.9 1513.66 1763.45 1513.66 Q1765.21 1513.66 1766.99 1514.01 Q1768.8 1514.36 1770.74 1515.05 Z" fill="#000000" fill-rule="nonzero" fill-opacity="1" /><path clip-path="url(#clip330)" d="M1791.04 1517.37 Q1787.43 1517.37 1785.61 1520.93 Q1783.8 1524.47 1783.8 1531.6 Q1783.8 1538.71 1785.61 1542.27 Q1787.43 1545.82 1791.04 1545.82 Q1794.68 1545.82 1796.48 1542.27 Q1798.31 1538.71 1798.31 1531.6 Q1798.31 1524.47 1796.48 1520.93 Q1794.68 1517.37 1791.04 1517.37 M1791.04 1513.66 Q1796.86 1513.66 1799.91 1518.27 Q1802.99 1522.85 1802.99 1531.6 Q1802.99 1540.33 1799.91 1544.94 Q1796.86 1549.52 1791.04 1549.52 Q1785.23 1549.52 1782.16 1544.94 Q1779.1 1540.33 1779.1 1531.6 Q1779.1 1522.85 1782.16 1518.27 Q1785.23 1513.66 1791.04 1513.66 Z" fill="#000000" fill-rule="nonzero" fill-opacity="1" /><path clip-path="url(#clip330)" d="M2276.53 1532.44 Q2273.2 1532.44 2271.28 1534.22 Q2269.38 1536 2269.38 1539.13 Q2269.38 1542.25 2271.28 1544.03 Q2273.2 1545.82 2276.53 1545.82 Q2279.86 1545.82 2281.78 1544.03 Q2283.71 1542.23 2283.71 1539.13 Q2283.71 1536 2281.78 1534.22 Q2279.89 1532.44 2276.53 1532.44 M2271.85 1530.45 Q2268.84 1529.7 2267.16 1527.64 Q2265.49 1525.58 2265.49 1522.62 Q2265.49 1518.48 2268.43 1516.07 Q2271.39 1513.66 2276.53 1513.66 Q2281.69 1513.66 2284.63 1516.07 Q2287.57 1518.48 2287.57 1522.62 Q2287.57 1525.58 2285.88 1527.64 Q2284.22 1529.7 2281.23 1530.45 Q2284.61 1531.23 2286.48 1533.52 Q2288.38 1535.82 2288.38 1539.13 Q2288.38 1544.15 2285.3 1546.83 Q2282.25 1549.52 2276.53 1549.52 Q2270.81 1549.52 2267.73 1546.83 Q2264.68 1544.15 2264.68 1539.13 Q2264.68 1535.82 2266.58 1533.52 Q2268.47 1531.23 2271.85 1530.45 M2270.14 1523.06 Q2270.14 1525.75 2271.81 1527.25 Q2273.5 1528.76 2276.53 1528.76 Q2279.54 1528.76 2281.23 1527.25 Q2282.94 1525.75 2282.94 1523.06 Q2282.94 1520.38 2281.23 1518.87 Q2279.54 1517.37 2276.53 1517.37 Q2273.5 1517.37 2271.81 1518.87 Q2270.14 1520.38 2270.14 1523.06 Z" fill="#000000" fill-rule="nonzero" fill-opacity="1" /><path clip-path="url(#clip330)" d="M2306.69 1517.37 Q2303.08 1517.37 2301.25 1520.93 Q2299.45 1524.47 2299.45 1531.6 Q2299.45 1538.71 2301.25 1542.27 Q2303.08 1545.82 2306.69 1545.82 Q2310.33 1545.82 2312.13 1542.27 Q2313.96 1538.71 2313.96 1531.6 Q2313.96 1524.47 2312.13 1520.93 Q2310.33 1517.37 2306.69 1517.37 M2306.69 1513.66 Q2312.5 1513.66 2315.56 1518.27 Q2318.64 1522.85 2318.64 1531.6 Q2318.64 1540.33 2315.56 1544.94 Q2312.5 1549.52 2306.69 1549.52 Q2300.88 1549.52 2297.8 1544.94 Q2294.75 1540.33 2294.75 1531.6 Q2294.75 1522.85 2297.8 1518.27 Q2300.88 1513.66 2306.69 1513.66 Z" fill="#000000" fill-rule="nonzero" fill-opacity="1" /><polyline clip-path="url(#clip330)" style="stroke:#000000; stroke-linecap:round; stroke-linejoin:round; stroke-width:4; stroke-opacity:1; fill:none" points="193.936,1486.45 193.936,47.2441 "/>
<polyline clip-path="url(#clip330)" style="stroke:#000000; stroke-linecap:round; stroke-linejoin:round; stroke-width:4; stroke-opacity:1; fill:none" points="193.936,1282.39 212.834,1282.39 "/>
<polyline clip-path="url(#clip330)" style="stroke:#000000; stroke-linecap:round; stroke-linejoin:round; stroke-width:4; stroke-opacity:1; fill:none" points="193.936,1054.07 212.834,1054.07 "/>
<polyline clip-path="url(#clip330)" style="stroke:#000000; stroke-linecap:round; stroke-linejoin:round; stroke-width:4; stroke-opacity:1; fill:none" points="193.936,825.759 212.834,825.759 "/>
<polyline clip-path="url(#clip330)" style="stroke:#000000; stroke-linecap:round; stroke-linejoin:round; stroke-width:4; stroke-opacity:1; fill:none" points="193.936,597.446 212.834,597.446 "/>
<polyline clip-path="url(#clip330)" style="stroke:#000000; stroke-linecap:round; stroke-linejoin:round; stroke-width:4; stroke-opacity:1; fill:none" points="193.936,369.132 212.834,369.132 "/>
<polyline clip-path="url(#clip330)" style="stroke:#000000; stroke-linecap:round; stroke-linejoin:round; stroke-width:4; stroke-opacity:1; fill:none" points="193.936,140.819 212.834,140.819 "/>
<path clip-path="url(#clip330)" d="M50.9921 1282.84 L80.6679 1282.84 L80.6679 1286.77 L50.9921 1286.77 L50.9921 1282.84 Z" fill="#000000" fill-rule="nonzero" fill-opacity="1" /><path clip-path="url(#clip330)" d="M91.5706 1295.73 L99.2095 1295.73 L99.2095 1269.37 L90.8993 1271.03 L90.8993 1266.77 L99.1632 1265.11 L103.839 1265.11 L103.839 1295.73 L111.478 1295.73 L111.478 1299.67 L91.5706 1299.67 L91.5706 1295.73 Z" fill="#000000" fill-rule="nonzero" fill-opacity="1" /><path clip-path="url(#clip330)" d="M120.922 1293.79 L125.807 1293.79 L125.807 1299.67 L120.922 1299.67 L120.922 1293.79 Z" fill="#000000" fill-rule="nonzero" fill-opacity="1" /><path clip-path="url(#clip330)" d="M145.992 1268.18 Q142.381 1268.18 140.552 1271.75 Q138.746 1275.29 138.746 1282.42 Q138.746 1289.53 140.552 1293.09 Q142.381 1296.63 145.992 1296.63 Q149.626 1296.63 151.431 1293.09 Q153.26 1289.53 153.26 1282.42 Q153.26 1275.29 151.431 1271.75 Q149.626 1268.18 145.992 1268.18 M145.992 1264.48 Q151.802 1264.48 154.857 1269.09 Q157.936 1273.67 157.936 1282.42 Q157.936 1291.15 154.857 1295.75 Q151.802 1300.34 145.992 1300.34 Q140.181 1300.34 137.103 1295.75 Q134.047 1291.15 134.047 1282.42 Q134.047 1273.67 137.103 1269.09 Q140.181 1264.48 145.992 1264.48 Z" fill="#000000" fill-rule="nonzero" fill-opacity="1" /><path clip-path="url(#clip330)" d="M51.9875 1054.52 L81.6633 1054.52 L81.6633 1058.46 L51.9875 1058.46 L51.9875 1054.52 Z" fill="#000000" fill-rule="nonzero" fill-opacity="1" /><path clip-path="url(#clip330)" d="M101.756 1039.87 Q98.1447 1039.87 96.316 1043.44 Q94.5104 1046.98 94.5104 1054.11 Q94.5104 1061.21 96.316 1064.78 Q98.1447 1068.32 101.756 1068.32 Q105.39 1068.32 107.196 1064.78 Q109.024 1061.21 109.024 1054.11 Q109.024 1046.98 107.196 1043.44 Q105.39 1039.87 101.756 1039.87 M101.756 1036.17 Q107.566 1036.17 110.621 1040.77 Q113.7 1045.36 113.7 1054.11 Q113.7 1062.83 110.621 1067.44 Q107.566 1072.02 101.756 1072.02 Q95.9456 1072.02 92.8669 1067.44 Q89.8114 1062.83 89.8114 1054.11 Q89.8114 1045.36 92.8669 1040.77 Q95.9456 1036.17 101.756 1036.17 Z" fill="#000000" fill-rule="nonzero" fill-opacity="1" /><path clip-path="url(#clip330)" d="M121.918 1065.47 L126.802 1065.47 L126.802 1071.35 L121.918 1071.35 L121.918 1065.47 Z" fill="#000000" fill-rule="nonzero" fill-opacity="1" /><path clip-path="url(#clip330)" d="M137.033 1036.79 L155.39 1036.79 L155.39 1040.73 L141.316 1040.73 L141.316 1049.2 Q142.334 1048.85 143.353 1048.69 Q144.371 1048.51 145.39 1048.51 Q151.177 1048.51 154.556 1051.68 Q157.936 1054.85 157.936 1060.26 Q157.936 1065.84 154.464 1068.95 Q150.992 1072.02 144.672 1072.02 Q142.496 1072.02 140.228 1071.65 Q137.982 1071.28 135.575 1070.54 L135.575 1065.84 Q137.658 1066.98 139.881 1067.53 Q142.103 1068.09 144.58 1068.09 Q148.584 1068.09 150.922 1065.98 Q153.26 1063.88 153.26 1060.26 Q153.26 1056.65 150.922 1054.55 Q148.584 1052.44 144.58 1052.44 Q142.705 1052.44 140.83 1052.86 Q138.978 1053.27 137.033 1054.15 L137.033 1036.79 Z" fill="#000000" fill-rule="nonzero" fill-opacity="1" /><path clip-path="url(#clip330)" d="M100.76 811.558 Q97.1493 811.558 95.3206 815.123 Q93.515 818.664 93.515 825.794 Q93.515 832.9 95.3206 836.465 Q97.1493 840.007 100.76 840.007 Q104.395 840.007 106.2 836.465 Q108.029 832.9 108.029 825.794 Q108.029 818.664 106.2 815.123 Q104.395 811.558 100.76 811.558 M100.76 807.854 Q106.571 807.854 109.626 812.461 Q112.705 817.044 112.705 825.794 Q112.705 834.521 109.626 839.127 Q106.571 843.711 100.76 843.711 Q94.9502 843.711 91.8715 839.127 Q88.816 834.521 88.816 825.794 Q88.816 817.044 91.8715 812.461 Q94.9502 807.854 100.76 807.854 Z" fill="#000000" fill-rule="nonzero" fill-opacity="1" /><path clip-path="url(#clip330)" d="M120.922 837.16 L125.807 837.16 L125.807 843.039 L120.922 843.039 L120.922 837.16 Z" fill="#000000" fill-rule="nonzero" fill-opacity="1" /><path clip-path="url(#clip330)" d="M145.992 811.558 Q142.381 811.558 140.552 815.123 Q138.746 818.664 138.746 825.794 Q138.746 832.9 140.552 836.465 Q142.381 840.007 145.992 840.007 Q149.626 840.007 151.431 836.465 Q153.26 832.9 153.26 825.794 Q153.26 818.664 151.431 815.123 Q149.626 811.558 145.992 811.558 M145.992 807.854 Q151.802 807.854 154.857 812.461 Q157.936 817.044 157.936 825.794 Q157.936 834.521 154.857 839.127 Q151.802 843.711 145.992 843.711 Q140.181 843.711 137.103 839.127 Q134.047 834.521 134.047 825.794 Q134.047 817.044 137.103 812.461 Q140.181 807.854 145.992 807.854 Z" fill="#000000" fill-rule="nonzero" fill-opacity="1" /><path clip-path="url(#clip330)" d="M101.756 583.245 Q98.1447 583.245 96.316 586.809 Q94.5104 590.351 94.5104 597.481 Q94.5104 604.587 96.316 608.152 Q98.1447 611.693 101.756 611.693 Q105.39 611.693 107.196 608.152 Q109.024 604.587 109.024 597.481 Q109.024 590.351 107.196 586.809 Q105.39 583.245 101.756 583.245 M101.756 579.541 Q107.566 579.541 110.621 584.147 Q113.7 588.731 113.7 597.481 Q113.7 606.207 110.621 610.814 Q107.566 615.397 101.756 615.397 Q95.9456 615.397 92.8669 610.814 Q89.8114 606.207 89.8114 597.481 Q89.8114 588.731 92.8669 584.147 Q95.9456 579.541 101.756 579.541 Z" fill="#000000" fill-rule="nonzero" fill-opacity="1" /><path clip-path="url(#clip330)" d="M121.918 608.846 L126.802 608.846 L126.802 614.726 L121.918 614.726 L121.918 608.846 Z" fill="#000000" fill-rule="nonzero" fill-opacity="1" /><path clip-path="url(#clip330)" d="M137.033 580.166 L155.39 580.166 L155.39 584.101 L141.316 584.101 L141.316 592.573 Q142.334 592.226 143.353 592.064 Q144.371 591.879 145.39 591.879 Q151.177 591.879 154.556 595.05 Q157.936 598.221 157.936 603.638 Q157.936 609.217 154.464 612.318 Q150.992 615.397 144.672 615.397 Q142.496 615.397 140.228 615.027 Q137.982 614.656 135.575 613.916 L135.575 609.217 Q137.658 610.351 139.881 610.906 Q142.103 611.462 144.58 611.462 Q148.584 611.462 150.922 609.355 Q153.26 607.249 153.26 603.638 Q153.26 600.027 150.922 597.92 Q148.584 595.814 144.58 595.814 Q142.705 595.814 140.83 596.231 Q138.978 596.647 137.033 597.527 L137.033 580.166 Z" fill="#000000" fill-rule="nonzero" fill-opacity="1" /><path clip-path="url(#clip330)" d="M91.5706 382.477 L99.2095 382.477 L99.2095 356.112 L90.8993 357.778 L90.8993 353.519 L99.1632 351.852 L103.839 351.852 L103.839 382.477 L111.478 382.477 L111.478 386.412 L91.5706 386.412 L91.5706 382.477 Z" fill="#000000" fill-rule="nonzero" fill-opacity="1" /><path clip-path="url(#clip330)" d="M120.922 380.533 L125.807 380.533 L125.807 386.412 L120.922 386.412 L120.922 380.533 Z" fill="#000000" fill-rule="nonzero" fill-opacity="1" /><path clip-path="url(#clip330)" d="M145.992 354.931 Q142.381 354.931 140.552 358.496 Q138.746 362.038 138.746 369.167 Q138.746 376.274 140.552 379.838 Q142.381 383.38 145.992 383.38 Q149.626 383.38 151.431 379.838 Q153.26 376.274 153.26 369.167 Q153.26 362.038 151.431 358.496 Q149.626 354.931 145.992 354.931 M145.992 351.227 Q151.802 351.227 154.857 355.834 Q157.936 360.417 157.936 369.167 Q157.936 377.894 154.857 382.5 Q151.802 387.084 145.992 387.084 Q140.181 387.084 137.103 382.5 Q134.047 377.894 134.047 369.167 Q134.047 360.417 137.103 355.834 Q140.181 351.227 145.992 351.227 Z" fill="#000000" fill-rule="nonzero" fill-opacity="1" /><path clip-path="url(#clip330)" d="M92.566 154.164 L100.205 154.164 L100.205 127.798 L91.8947 129.465 L91.8947 125.206 L100.159 123.539 L104.834 123.539 L104.834 154.164 L112.473 154.164 L112.473 158.099 L92.566 158.099 L92.566 154.164 Z" fill="#000000" fill-rule="nonzero" fill-opacity="1" /><path clip-path="url(#clip330)" d="M121.918 152.219 L126.802 152.219 L126.802 158.099 L121.918 158.099 L121.918 152.219 Z" fill="#000000" fill-rule="nonzero" fill-opacity="1" /><path clip-path="url(#clip330)" d="M137.033 123.539 L155.39 123.539 L155.39 127.474 L141.316 127.474 L141.316 135.946 Q142.334 135.599 143.353 135.437 Q144.371 135.252 145.39 135.252 Q151.177 135.252 154.556 138.423 Q157.936 141.594 157.936 147.011 Q157.936 152.59 154.464 155.692 Q150.992 158.77 144.672 158.77 Q142.496 158.77 140.228 158.4 Q137.982 158.03 135.575 157.289 L135.575 152.59 Q137.658 153.724 139.881 154.28 Q142.103 154.835 144.58 154.835 Q148.584 154.835 150.922 152.729 Q153.26 150.622 153.26 147.011 Q153.26 143.4 150.922 141.294 Q148.584 139.187 144.58 139.187 Q142.705 139.187 140.83 139.604 Q138.978 140.02 137.033 140.9 L137.033 123.539 Z" fill="#000000" fill-rule="nonzero" fill-opacity="1" /><path clip-path="url(#clip331)" d="M255.035 1038.25 L280.815 999.343 L306.595 942.845 L332.375 902.987 L358.155 802.2 L383.935 696.243 L409.715 732.42 L435.495 760.586 L461.275 720.339 L487.055 644.637 L512.835 686.823 L538.615 622.116 L564.395 576.145 L590.175 575.606 L615.955 600.442 L641.735 638.208 L667.515 649.873 L693.295 740.86 L719.075 751.844 L744.855 797.164 L770.635 857.287 L796.415 858.46 L822.195 901.467 L847.975 877.669 L873.755 895.699 L899.535 879.776 L925.316 905.251 L951.096 878.739 L976.876 969.387 L1002.66 1060.72 L1028.44 1160.29 L1054.22 1117.88 L1080 1155.47 L1105.78 1185.97 L1131.56 1275.26 L1157.34 1269.1 L1183.12 1262.27 L1208.9 1246.59 L1234.68 1292.38 L1260.46 1275.16 L1286.24 1335.46 L1312.02 1344.9 L1337.8 1445.72 L1363.58 1366.04 L1389.36 1383.26 L1415.14 1358.21 L1440.92 1334.84 L1466.7 1275.18 L1492.48 1272.51 L1518.26 1292.44 L1544.04 1210.73 L1569.82 1144.88 L1595.6 1141.23 L1621.38 1223 L1647.16 1232.78 L1672.94 1232.58 L1698.72 1223.58 L1724.5 1224.11 L1750.28 1195.95 L1776.06 1157.18 L1801.84 1095.83 L1827.62 1047.38 L1853.4 1025.62 L1879.18 1000.68 L1904.96 1004.84 L1930.74 1028.91 L1956.52 993.063 L1982.3 938.488 L2008.08 843.856 L2033.86 820.31 L2059.64 783.813 L2085.42 803.963 L2111.2 887.912 L2136.98 990.832 L2162.76 1008.16 L2188.54 1049.1 L2214.32 1061.87 L2240.1 1073.61 L2265.88 1108.22 L2291.66 1136.95 L2291.66 678.092 L2265.88 664.479 L2240.1 627.775 L2214.32 615.601 L2188.54 626.333 L2162.76 601.657 L2136.98 647.401 L2111.2 555.184 L2085.42 485.259 L2059.64 471.146 L2033.86 492.419 L2008.08 481.032 L1982.3 532.074 L1956.52 619.355 L1930.74 664.674 L1904.96 664.044 L1879.18 695.2 L1853.4 673.33 L1827.62 696.656 L1801.84 735.459 L1776.06 791.393 L1750.28 850.939 L1724.5 875.913 L1698.72 852.85 L1672.94 853.459 L1647.16 834.078 L1621.38 793.429 L1595.6 718.069 L1569.82 735.028 L1544.04 814.282 L1518.26 892.552 L1492.48 898.488 L1466.7 889.612 L1440.92 910.131 L1415.14 901.406 L1389.36 884.343 L1363.58 858.725 L1337.8 952.388 L1312.02 871.596 L1286.24 865.182 L1260.46 810.81 L1234.68 843.582 L1208.9 816.337 L1183.12 815.163 L1157.34 852.101 L1131.56 901.752 L1105.78 826.86 L1080 809.888 L1054.22 765.832 L1028.44 778.489 L1002.66 700.648 L976.876 581 L951.096 500.289 L925.316 547.643 L899.535 520.851 L873.755 532.775 L847.975 482.501 L822.195 476.926 L796.415 387.031 L770.635 409.456 L744.855 328.472 L719.075 286.767 L693.295 286.455 L667.515 202.045 L641.735 204.915 L615.955 161.05 L590.175 124.833 L564.395 108.175 L538.615 139.923 L512.835 187.557 L487.055 87.9763 L461.275 158.464 L435.495 200.951 L409.715 178.113 L383.935 101.178 L358.155 177.883 L332.375 293.043 L306.595 304.304 L280.815 327.088 L255.035 332.084  Z" fill="#009af9" fill-rule="evenodd" fill-opacity="0.5"/>
<polyline clip-path="url(#clip331)" style="stroke:#009af9; stroke-linecap:round; stroke-linejoin:round; stroke-width:4; stroke-opacity:1; fill:none" points="255.035,685.168 280.815,663.216 306.595,623.574 332.375,598.015 358.155,490.042 383.935,398.71 409.715,455.266 435.495,480.769 461.275,439.402 487.055,366.307 512.835,437.19 538.615,381.019 564.395,342.16 590.175,350.22 615.955,380.746 641.735,421.562 667.515,425.959 693.295,513.658 719.075,519.305 744.855,562.818 770.635,633.371 796.415,622.746 822.195,689.197 847.975,680.085 873.755,714.237 899.535,700.314 925.316,726.447 951.096,689.514 976.876,775.194 1002.66,880.684 1028.44,969.389 1054.22,941.855 1080,982.681 1105.78,1006.41 1131.56,1088.51 1157.34,1060.6 1183.12,1038.72 1208.9,1031.46 1234.68,1067.98 1260.46,1042.98 1286.24,1100.32 1312.02,1108.25 1337.8,1199.05 1363.58,1112.38 1389.36,1133.8 1415.14,1129.81 1440.92,1122.49 1466.7,1082.4 1492.48,1085.5 1518.26,1092.49 1544.04,1012.5 1569.82,939.954 1595.6,929.651 1621.38,1008.21 1647.16,1033.43 1672.94,1043.02 1698.72,1038.22 1724.5,1050.01 1750.28,1023.44 1776.06,974.288 1801.84,915.644 1827.62,872.019 1853.4,849.477 1879.18,847.942 1904.96,834.443 1930.74,846.793 1956.52,806.209 1982.3,735.281 2008.08,662.444 2033.86,656.365 2059.64,627.479 2085.42,644.611 2111.2,721.548 2136.98,819.117 2162.76,804.907 2188.54,837.716 2214.32,838.734 2240.1,850.69 2265.88,886.35 2291.66,907.519 "/>
<path clip-path="url(#clip331)" d="M255.035 1437.88 L280.815 1365.85 L306.595 1338.12 L332.375 1372.57 L358.155 1389.58 L383.935 1335.59 L409.715 1295.82 L435.495 1249.85 L461.275 1241.69 L487.055 1194.44 L512.835 1127.98 L538.615 1072.51 L564.395 1017.23 L590.175 943.083 L615.955 858.827 L641.735 785.519 L667.515 712.385 L693.295 671.342 L719.075 636.794 L744.855 664.001 L770.635 642.243 L796.415 601.09 L822.195 577.121 L847.975 565.078 L873.755 544.573 L899.535 512.327 L925.316 486.791 L951.096 470.967 L976.876 477.077 L1002.66 509.454 L1028.44 516.813 L1054.22 556.893 L1080 587.473 L1105.78 642.438 L1131.56 711.982 L1157.34 756.694 L1183.12 776.867 L1208.9 790.478 L1234.68 826.151 L1260.46 814.216 L1286.24 825.574 L1312.02 850.607 L1337.8 892.811 L1363.58 941.645 L1389.36 967.875 L1415.14 1030.64 L1440.92 1077.6 L1466.7 1077.78 L1492.48 1127.47 L1518.26 1177.86 L1544.04 1196.51 L1569.82 1208.84 L1595.6 1231.85 L1621.38 1192.46 L1647.16 1205.45 L1672.94 1196.14 L1698.72 1200.51 L1724.5 1208.54 L1750.28 1208.5 L1776.06 1222.93 L1801.84 1256.32 L1827.62 1303.11 L1853.4 1354.19 L1879.18 1383.96 L1904.96 1416.64 L1930.74 1417.09 L1956.52 1401.5 L1982.3 1350.77 L2008.08 1304.09 L2033.86 1238.52 L2059.64 1166.06 L2085.42 1158.99 L2111.2 1178.45 L2136.98 1179.4 L2162.76 1179.25 L2188.54 1190.81 L2214.32 1200.25 L2240.1 1236.23 L2265.88 1258.9 L2291.66 1300.27 L2291.66 1074.03 L2265.88 1068.46 L2240.1 1045.44 L2214.32 1015.36 L2188.54 996.366 L2162.76 993.326 L2136.98 1001.38 L2111.2 1011.17 L2085.42 985.382 L2059.64 992.116 L2033.86 1028.45 L2008.08 1107.44 L1982.3 1151.88 L1956.52 1205.01 L1930.74 1263.3 L1904.96 1251.57 L1879.18 1225.04 L1853.4 1197.21 L1827.62 1147.27 L1801.84 1067.63 L1776.06 1036.33 L1750.28 1039.06 L1724.5 1036.31 L1698.72 1021.42 L1672.94 1019.34 L1647.16 1006.17 L1621.38 1030.19 L1595.6 1034.16 L1569.82 1030.69 L1544.04 1007.92 L1518.26 958.695 L1492.48 920.65 L1466.7 877.197 L1440.92 890.523 L1415.14 853.911 L1389.36 830.075 L1363.58 769.525 L1337.8 701.322 L1312.02 654.641 L1286.24 631.948 L1260.46 618.323 L1234.68 627.848 L1208.9 610.935 L1183.12 611.353 L1157.34 581.97 L1131.56 538.471 L1105.78 456.238 L1080 390.566 L1054.22 383.529 L1028.44 346.341 L1002.66 323.597 L976.876 288.086 L951.096 281.951 L925.316 282.402 L899.535 327.359 L873.755 353.43 L847.975 373.085 L822.195 388.021 L796.415 409.874 L770.635 447.576 L744.855 459.189 L719.075 463.42 L693.295 490.588 L667.515 540.2 L641.735 604.701 L615.955 680.53 L590.175 751.814 L564.395 860.039 L538.615 917.259 L512.835 942.131 L487.055 1012.21 L461.275 1044.14 L435.495 1062.05 L409.715 1098.84 L383.935 1142.31 L358.155 1182.3 L332.375 1180.23 L306.595 1168.29 L280.815 1170.84 L255.035 1200.78  Z" fill="#e26f46" fill-rule="evenodd" fill-opacity="0.5"/>
<polyline clip-path="url(#clip331)" style="stroke:#e26f46; stroke-linecap:round; stroke-linejoin:round; stroke-width:4; stroke-opacity:1; fill:none" points="255.035,1319.33 280.815,1268.34 306.595,1253.21 332.375,1276.4 358.155,1285.94 383.935,1238.95 409.715,1197.33 435.495,1155.95 461.275,1142.91 487.055,1103.33 512.835,1035.05 538.615,994.885 564.395,938.633 590.175,847.449 615.955,769.678 641.735,695.11 667.515,626.293 693.295,580.965 719.075,550.107 744.855,561.595 770.635,544.909 796.415,505.482 822.195,482.571 847.975,469.081 873.755,449.002 899.535,419.843 925.316,384.597 951.096,376.459 976.876,382.582 1002.66,416.526 1028.44,431.577 1054.22,470.211 1080,489.019 1105.78,549.338 1131.56,625.227 1157.34,669.332 1183.12,694.11 1208.9,700.706 1234.68,727 1260.46,716.27 1286.24,728.761 1312.02,752.624 1337.8,797.066 1363.58,855.585 1389.36,898.975 1415.14,942.277 1440.92,984.062 1466.7,977.488 1492.48,1024.06 1518.26,1068.28 1544.04,1102.22 1569.82,1119.76 1595.6,1133.01 1621.38,1111.33 1647.16,1105.81 1672.94,1107.74 1698.72,1110.97 1724.5,1122.42 1750.28,1123.78 1776.06,1129.63 1801.84,1161.98 1827.62,1225.19 1853.4,1275.7 1879.18,1304.5 1904.96,1334.11 1930.74,1340.19 1956.52,1303.25 1982.3,1251.33 2008.08,1205.77 2033.86,1133.48 2059.64,1079.09 2085.42,1072.19 2111.2,1094.81 2136.98,1090.39 2162.76,1086.29 2188.54,1093.59 2214.32,1107.81 2240.1,1140.84 2265.88,1163.68 2291.66,1187.15 "/>
<polyline clip-path="url(#clip331)" style="stroke:#3da44d; stroke-linecap:round; stroke-linejoin:round; stroke-width:4; stroke-opacity:1; fill:none" stroke-dasharray="16, 10" points="255.035,739.033 280.815,760.412 306.595,728.061 332.375,704.627 358.155,584.428 383.935,513.905 409.715,642.945 435.495,681.339 461.275,606.869 487.055,504.786 512.835,564.976 538.615,432.468 564.395,388.191 590.175,410.536 615.955,445.381 641.735,477.838 667.515,491.778 693.295,564.808 719.075,647.523 744.855,645.559 770.635,727.191 796.415,672.147 822.195,744.121 847.975,732.034 873.755,753.212 899.535,697.931 925.316,645.861 951.096,720.274 976.876,830.449 1002.66,945.208 1028.44,963.106 1054.22,922.795 1080,987.23 1105.78,1107 1131.56,1271.07 1157.34,1233.41 1183.12,1172.75 1208.9,1165.63 1234.68,1191.71 1260.46,1062.53 1286.24,1075.82 1312.02,1081.25 1337.8,1090.61 1363.58,970.216 1389.36,984.964 1415.14,971.257 1440.92,930.59 1466.7,988.447 1492.48,1073.61 1518.26,1091.53 1544.04,997.219 1569.82,940.772 1595.6,954.597 1621.38,1050.86 1647.16,1090.31 1672.94,1072.76 1698.72,1154.71 1724.5,1162.21 1750.28,1201.39 1776.06,1155.35 1801.84,1055.86 1827.62,898.331 1853.4,896.109 1879.18,834.851 1904.96,808.688 1930.74,772.683 1956.52,749.262 1982.3,734.925 2008.08,684.725 2033.86,665.547 2059.64,611.954 2085.42,602.061 2111.2,763.015 2136.98,916.555 2162.76,956.528 2188.54,1011.8 2214.32,1031.25 2240.1,1066.21 2265.88,1026.25 2291.66,1119.27 "/>
<polyline clip-path="url(#clip331)" style="stroke:#c271d2; stroke-linecap:round; stroke-linejoin:round; stroke-width:4; stroke-opacity:1; fill:none" stroke-dasharray="16, 10" points="255.035,1193.26 280.815,1180.79 306.595,1204.26 332.375,1204.78 358.155,1237.41 383.935,1204.04 409.715,1143.76 435.495,1154.38 461.275,1106.67 487.055,1075.8 512.835,1001.61 538.615,1004.11 564.395,1001.4 590.175,897.066 615.955,870.213 641.735,747.895 667.515,632.337 693.295,537.736 719.075,527.494 744.855,523.736 770.635,492.13 796.415,503.764 822.195,488.771 847.975,458.983 873.755,487.806 899.535,408.204 925.316,348.415 951.096,304.483 976.876,330.289 1002.66,444.002 1028.44,455.066 1054.22,465.047 1080,446.424 1105.78,538.173 1131.56,583.752 1157.34,654.783 1183.12,718.378 1208.9,712.957 1234.68,789.22 1260.46,780.906 1286.24,788.411 1312.02,760.054 1337.8,815.319 1363.58,844.385 1389.36,917.62 1415.14,954.258 1440.92,1005.12 1466.7,1004.13 1492.48,1037.23 1518.26,1006.69 1544.04,1064.82 1569.82,1089.5 1595.6,1064.71 1621.38,1089.23 1647.16,1102.63 1672.94,1130.63 1698.72,1054.73 1724.5,1141.96 1750.28,1144.33 1776.06,1168.25 1801.84,1198.06 1827.62,1280.15 1853.4,1240.45 1879.18,1329.03 1904.96,1332.02 1930.74,1374.31 1956.52,1332.66 1982.3,1287.43 2008.08,1262.89 2033.86,1146.27 2059.64,1106.18 2085.42,1060.76 2111.2,1057.89 2136.98,1037.16 2162.76,1050.31 2188.54,1085.39 2214.32,1148.93 2240.1,1170.69 2265.88,1169.64 2291.66,1135.88 "/>
<path clip-path="url(#clip330)" d="M1825.15 354.418 L2280.8 354.418 L2280.8 95.2176 L1825.15 95.2176  Z" fill="#ffffff" fill-rule="evenodd" fill-opacity="1"/>
<polyline clip-path="url(#clip330)" style="stroke:#000000; stroke-linecap:round; stroke-linejoin:round; stroke-width:4; stroke-opacity:1; fill:none" points="1825.15,354.418 2280.8,354.418 2280.8,95.2176 1825.15,95.2176 1825.15,354.418 "/>
<polyline clip-path="url(#clip330)" style="stroke:#009af9; stroke-linecap:round; stroke-linejoin:round; stroke-width:4; stroke-opacity:1; fill:none" points="1849.13,147.058 1993.05,147.058 "/>
<path clip-path="url(#clip330)" d="M2021.72 133.62 L2021.72 146.606 L2027.6 146.606 Q2030.86 146.606 2032.64 144.916 Q2034.43 143.227 2034.43 140.102 Q2034.43 137 2032.64 135.31 Q2030.86 133.62 2027.6 133.62 L2021.72 133.62 M2017.04 129.778 L2027.6 129.778 Q2033.41 129.778 2036.37 132.416 Q2039.36 135.032 2039.36 140.102 Q2039.36 145.217 2036.37 147.833 Q2033.41 150.449 2027.6 150.449 L2021.72 150.449 L2021.72 164.338 L2017.04 164.338 L2017.04 129.778 Z" fill="#000000" fill-rule="nonzero" fill-opacity="1" /><path clip-path="url(#clip330)" d="M2045.63 129.778 L2065.49 129.778 L2065.49 133.713 L2050.3 133.713 L2050.3 143.898 L2064.01 143.898 L2064.01 147.833 L2050.3 147.833 L2050.3 164.338 L2045.63 164.338 L2045.63 129.778 Z" fill="#000000" fill-rule="nonzero" fill-opacity="1" /><path clip-path="url(#clip330)" d="M2104.31 139.176 L2104.31 143.203 Q2102.5 142.277 2100.56 141.815 Q2098.61 141.352 2096.53 141.352 Q2093.36 141.352 2091.76 142.324 Q2090.19 143.296 2090.19 145.24 Q2090.19 146.722 2091.32 147.578 Q2092.46 148.412 2095.88 149.176 L2097.34 149.5 Q2101.88 150.472 2103.78 152.254 Q2105.7 154.014 2105.7 157.185 Q2105.7 160.796 2102.83 162.902 Q2099.98 165.009 2094.98 165.009 Q2092.9 165.009 2090.63 164.592 Q2088.38 164.199 2085.88 163.388 L2085.88 158.99 Q2088.24 160.217 2090.54 160.842 Q2092.83 161.444 2095.07 161.444 Q2098.08 161.444 2099.7 160.426 Q2101.32 159.384 2101.32 157.509 Q2101.32 155.773 2100.14 154.847 Q2098.99 153.921 2095.03 153.064 L2093.55 152.717 Q2089.59 151.884 2087.83 150.171 Q2086.07 148.435 2086.07 145.426 Q2086.07 141.768 2088.66 139.778 Q2091.25 137.787 2096.02 137.787 Q2098.38 137.787 2100.47 138.134 Q2102.55 138.481 2104.31 139.176 Z" fill="#000000" fill-rule="nonzero" fill-opacity="1" /><path clip-path="url(#clip330)" d="M2132.67 143.389 Q2134.26 140.518 2136.48 139.153 Q2138.71 137.787 2141.72 137.787 Q2145.77 137.787 2147.97 140.634 Q2150.17 143.458 2150.17 148.689 L2150.17 164.338 L2145.88 164.338 L2145.88 148.828 Q2145.88 145.102 2144.56 143.296 Q2143.24 141.49 2140.54 141.49 Q2137.23 141.49 2135.3 143.69 Q2133.38 145.889 2133.38 149.685 L2133.38 164.338 L2129.1 164.338 L2129.1 148.828 Q2129.1 145.078 2127.78 143.296 Q2126.46 141.49 2123.71 141.49 Q2120.44 141.49 2118.52 143.713 Q2116.6 145.912 2116.6 149.685 L2116.6 164.338 L2112.32 164.338 L2112.32 138.412 L2116.6 138.412 L2116.6 142.44 Q2118.06 140.055 2120.1 138.921 Q2122.13 137.787 2124.93 137.787 Q2127.76 137.787 2129.73 139.222 Q2131.72 140.657 2132.67 143.389 Z" fill="#000000" fill-rule="nonzero" fill-opacity="1" /><path clip-path="url(#clip330)" d="M2168.71 141.398 Q2165.28 141.398 2163.29 144.083 Q2161.3 146.745 2161.3 151.398 Q2161.3 156.051 2163.27 158.736 Q2165.26 161.398 2168.71 161.398 Q2172.11 161.398 2174.1 158.713 Q2176.09 156.027 2176.09 151.398 Q2176.09 146.791 2174.1 144.106 Q2172.11 141.398 2168.71 141.398 M2168.71 137.787 Q2174.26 137.787 2177.43 141.398 Q2180.61 145.009 2180.61 151.398 Q2180.61 157.764 2177.43 161.398 Q2174.26 165.009 2168.71 165.009 Q2163.13 165.009 2159.96 161.398 Q2156.81 157.764 2156.81 151.398 Q2156.81 145.009 2159.96 141.398 Q2163.13 137.787 2168.71 137.787 Z" fill="#000000" fill-rule="nonzero" fill-opacity="1" /><path clip-path="url(#clip330)" d="M2197.71 141.398 Q2194.29 141.398 2192.29 144.083 Q2190.3 146.745 2190.3 151.398 Q2190.3 156.051 2192.27 158.736 Q2194.26 161.398 2197.71 161.398 Q2201.11 161.398 2203.1 158.713 Q2205.1 156.027 2205.1 151.398 Q2205.1 146.791 2203.1 144.106 Q2201.11 141.398 2197.71 141.398 M2197.71 137.787 Q2203.27 137.787 2206.44 141.398 Q2209.61 145.009 2209.61 151.398 Q2209.61 157.764 2206.44 161.398 Q2203.27 165.009 2197.71 165.009 Q2192.13 165.009 2188.96 161.398 Q2185.81 157.764 2185.81 151.398 Q2185.81 145.009 2188.96 141.398 Q2192.13 137.787 2197.71 137.787 Z" fill="#000000" fill-rule="nonzero" fill-opacity="1" /><path clip-path="url(#clip330)" d="M2220.88 131.051 L2220.88 138.412 L2229.66 138.412 L2229.66 141.722 L2220.88 141.722 L2220.88 155.796 Q2220.88 158.967 2221.74 159.87 Q2222.62 160.773 2225.28 160.773 L2229.66 160.773 L2229.66 164.338 L2225.28 164.338 Q2220.35 164.338 2218.48 162.509 Q2216.6 160.657 2216.6 155.796 L2216.6 141.722 L2213.48 141.722 L2213.48 138.412 L2216.6 138.412 L2216.6 131.051 L2220.88 131.051 Z" fill="#000000" fill-rule="nonzero" fill-opacity="1" /><path clip-path="url(#clip330)" d="M2256.81 148.689 L2256.81 164.338 L2252.55 164.338 L2252.55 148.828 Q2252.55 145.148 2251.11 143.319 Q2249.68 141.49 2246.81 141.49 Q2243.36 141.49 2241.37 143.69 Q2239.38 145.889 2239.38 149.685 L2239.38 164.338 L2235.1 164.338 L2235.1 128.319 L2239.38 128.319 L2239.38 142.44 Q2240.91 140.102 2242.97 138.944 Q2245.05 137.787 2247.76 137.787 Q2252.23 137.787 2254.52 140.565 Q2256.81 143.319 2256.81 148.689 Z" fill="#000000" fill-rule="nonzero" fill-opacity="1" /><polyline clip-path="url(#clip330)" style="stroke:#e26f46; stroke-linecap:round; stroke-linejoin:round; stroke-width:4; stroke-opacity:1; fill:none" points="1849.13,198.898 1993.05,198.898 "/>
<path clip-path="url(#clip330)" d="M2021.72 185.46 L2021.72 198.446 L2027.6 198.446 Q2030.86 198.446 2032.64 196.756 Q2034.43 195.067 2034.43 191.942 Q2034.43 188.84 2032.64 187.15 Q2030.86 185.46 2027.6 185.46 L2021.72 185.46 M2017.04 181.618 L2027.6 181.618 Q2033.41 181.618 2036.37 184.256 Q2039.36 186.872 2039.36 191.942 Q2039.36 197.057 2036.37 199.673 Q2033.41 202.289 2027.6 202.289 L2021.72 202.289 L2021.72 216.178 L2017.04 216.178 L2017.04 181.618 Z" fill="#000000" fill-rule="nonzero" fill-opacity="1" /><path clip-path="url(#clip330)" d="M2045.63 181.618 L2065.49 181.618 L2065.49 185.553 L2050.3 185.553 L2050.3 195.738 L2064.01 195.738 L2064.01 199.673 L2050.3 199.673 L2050.3 216.178 L2045.63 216.178 L2045.63 181.618 Z" fill="#000000" fill-rule="nonzero" fill-opacity="1" /><path clip-path="url(#clip330)" d="M2104.31 191.016 L2104.31 195.043 Q2102.5 194.117 2100.56 193.655 Q2098.61 193.192 2096.53 193.192 Q2093.36 193.192 2091.76 194.164 Q2090.19 195.136 2090.19 197.08 Q2090.19 198.562 2091.32 199.418 Q2092.46 200.252 2095.88 201.016 L2097.34 201.34 Q2101.88 202.312 2103.78 204.094 Q2105.7 205.854 2105.7 209.025 Q2105.7 212.636 2102.83 214.742 Q2099.98 216.849 2094.98 216.849 Q2092.9 216.849 2090.63 216.432 Q2088.38 216.039 2085.88 215.228 L2085.88 210.83 Q2088.24 212.057 2090.54 212.682 Q2092.83 213.284 2095.07 213.284 Q2098.08 213.284 2099.7 212.266 Q2101.32 211.224 2101.32 209.349 Q2101.32 207.613 2100.14 206.687 Q2098.99 205.761 2095.03 204.904 L2093.55 204.557 Q2089.59 203.724 2087.83 202.011 Q2086.07 200.275 2086.07 197.266 Q2086.07 193.608 2088.66 191.618 Q2091.25 189.627 2096.02 189.627 Q2098.38 189.627 2100.47 189.974 Q2102.55 190.321 2104.31 191.016 Z" fill="#000000" fill-rule="nonzero" fill-opacity="1" /><path clip-path="url(#clip330)" d="M2132.67 195.229 Q2134.26 192.358 2136.48 190.993 Q2138.71 189.627 2141.72 189.627 Q2145.77 189.627 2147.97 192.474 Q2150.17 195.298 2150.17 200.529 L2150.17 216.178 L2145.88 216.178 L2145.88 200.668 Q2145.88 196.942 2144.56 195.136 Q2143.24 193.33 2140.54 193.33 Q2137.23 193.33 2135.3 195.53 Q2133.38 197.729 2133.38 201.525 L2133.38 216.178 L2129.1 216.178 L2129.1 200.668 Q2129.1 196.918 2127.78 195.136 Q2126.46 193.33 2123.71 193.33 Q2120.44 193.33 2118.52 195.553 Q2116.6 197.752 2116.6 201.525 L2116.6 216.178 L2112.32 216.178 L2112.32 190.252 L2116.6 190.252 L2116.6 194.28 Q2118.06 191.895 2120.1 190.761 Q2122.13 189.627 2124.93 189.627 Q2127.76 189.627 2129.73 191.062 Q2131.72 192.497 2132.67 195.229 Z" fill="#000000" fill-rule="nonzero" fill-opacity="1" /><path clip-path="url(#clip330)" d="M2168.71 193.238 Q2165.28 193.238 2163.29 195.923 Q2161.3 198.585 2161.3 203.238 Q2161.3 207.891 2163.27 210.576 Q2165.26 213.238 2168.71 213.238 Q2172.11 213.238 2174.1 210.553 Q2176.09 207.867 2176.09 203.238 Q2176.09 198.631 2174.1 195.946 Q2172.11 193.238 2168.71 193.238 M2168.71 189.627 Q2174.26 189.627 2177.43 193.238 Q2180.61 196.849 2180.61 203.238 Q2180.61 209.604 2177.43 213.238 Q2174.26 216.849 2168.71 216.849 Q2163.13 216.849 2159.96 213.238 Q2156.81 209.604 2156.81 203.238 Q2156.81 196.849 2159.96 193.238 Q2163.13 189.627 2168.71 189.627 Z" fill="#000000" fill-rule="nonzero" fill-opacity="1" /><path clip-path="url(#clip330)" d="M2197.71 193.238 Q2194.29 193.238 2192.29 195.923 Q2190.3 198.585 2190.3 203.238 Q2190.3 207.891 2192.27 210.576 Q2194.26 213.238 2197.71 213.238 Q2201.11 213.238 2203.1 210.553 Q2205.1 207.867 2205.1 203.238 Q2205.1 198.631 2203.1 195.946 Q2201.11 193.238 2197.71 193.238 M2197.71 189.627 Q2203.27 189.627 2206.44 193.238 Q2209.61 196.849 2209.61 203.238 Q2209.61 209.604 2206.44 213.238 Q2203.27 216.849 2197.71 216.849 Q2192.13 216.849 2188.96 213.238 Q2185.81 209.604 2185.81 203.238 Q2185.81 196.849 2188.96 193.238 Q2192.13 189.627 2197.71 189.627 Z" fill="#000000" fill-rule="nonzero" fill-opacity="1" /><path clip-path="url(#clip330)" d="M2220.88 182.891 L2220.88 190.252 L2229.66 190.252 L2229.66 193.562 L2220.88 193.562 L2220.88 207.636 Q2220.88 210.807 2221.74 211.71 Q2222.62 212.613 2225.28 212.613 L2229.66 212.613 L2229.66 216.178 L2225.28 216.178 Q2220.35 216.178 2218.48 214.349 Q2216.6 212.497 2216.6 207.636 L2216.6 193.562 L2213.48 193.562 L2213.48 190.252 L2216.6 190.252 L2216.6 182.891 L2220.88 182.891 Z" fill="#000000" fill-rule="nonzero" fill-opacity="1" /><path clip-path="url(#clip330)" d="M2256.81 200.529 L2256.81 216.178 L2252.55 216.178 L2252.55 200.668 Q2252.55 196.988 2251.11 195.159 Q2249.68 193.33 2246.81 193.33 Q2243.36 193.33 2241.37 195.53 Q2239.38 197.729 2239.38 201.525 L2239.38 216.178 L2235.1 216.178 L2235.1 180.159 L2239.38 180.159 L2239.38 194.28 Q2240.91 191.942 2242.97 190.784 Q2245.05 189.627 2247.76 189.627 Q2252.23 189.627 2254.52 192.405 Q2256.81 195.159 2256.81 200.529 Z" fill="#000000" fill-rule="nonzero" fill-opacity="1" /><polyline clip-path="url(#clip330)" style="stroke:#3da44d; stroke-linecap:round; stroke-linejoin:round; stroke-width:4; stroke-opacity:1; fill:none" stroke-dasharray="16, 10" points="1849.13,250.738 1993.05,250.738 "/>
<path clip-path="url(#clip330)" d="M2017.04 233.458 L2046.28 233.458 L2046.28 237.393 L2034.01 237.393 L2034.01 268.018 L2029.31 268.018 L2029.31 237.393 L2017.04 237.393 L2017.04 233.458 Z" fill="#000000" fill-rule="nonzero" fill-opacity="1" /><path clip-path="url(#clip330)" d="M2058.66 246.073 Q2057.94 245.657 2057.09 245.471 Q2056.25 245.263 2055.24 245.263 Q2051.62 245.263 2049.68 247.624 Q2047.76 249.962 2047.76 254.36 L2047.76 268.018 L2043.48 268.018 L2043.48 242.092 L2047.76 242.092 L2047.76 246.12 Q2049.1 243.758 2051.25 242.624 Q2053.41 241.467 2056.49 241.467 Q2056.93 241.467 2057.46 241.536 Q2057.99 241.583 2058.64 241.698 L2058.66 246.073 Z" fill="#000000" fill-rule="nonzero" fill-opacity="1" /><path clip-path="url(#clip330)" d="M2062.69 257.786 L2062.69 242.092 L2066.95 242.092 L2066.95 257.624 Q2066.95 261.305 2068.38 263.156 Q2069.82 264.985 2072.69 264.985 Q2076.14 264.985 2078.13 262.786 Q2080.14 260.587 2080.14 256.791 L2080.14 242.092 L2084.4 242.092 L2084.4 268.018 L2080.14 268.018 L2080.14 264.036 Q2078.59 266.397 2076.53 267.555 Q2074.49 268.689 2071.79 268.689 Q2067.32 268.689 2065 265.911 Q2062.69 263.133 2062.69 257.786 M2073.41 241.467 L2073.41 241.467 Z" fill="#000000" fill-rule="nonzero" fill-opacity="1" /><path clip-path="url(#clip330)" d="M2115.35 253.99 L2115.35 256.073 L2095.77 256.073 Q2096.05 260.471 2098.41 262.786 Q2100.79 265.078 2105.03 265.078 Q2107.48 265.078 2109.77 264.476 Q2112.09 263.874 2114.36 262.67 L2114.36 266.698 Q2112.06 267.67 2109.66 268.18 Q2107.25 268.689 2104.77 268.689 Q2098.57 268.689 2094.93 265.078 Q2091.32 261.467 2091.32 255.309 Q2091.32 248.944 2094.75 245.217 Q2098.2 241.467 2104.03 241.467 Q2109.26 241.467 2112.3 244.846 Q2115.35 248.203 2115.35 253.99 M2111.09 252.74 Q2111.05 249.245 2109.12 247.161 Q2107.23 245.078 2104.08 245.078 Q2100.51 245.078 2098.36 247.092 Q2096.23 249.106 2095.91 252.763 L2111.09 252.74 Z" fill="#000000" fill-rule="nonzero" fill-opacity="1" /><polyline clip-path="url(#clip330)" style="stroke:#c271d2; stroke-linecap:round; stroke-linejoin:round; stroke-width:4; stroke-opacity:1; fill:none" stroke-dasharray="16, 10" points="1849.13,302.578 1993.05,302.578 "/>
<path clip-path="url(#clip330)" d="M2017.04 285.298 L2046.28 285.298 L2046.28 289.233 L2034.01 289.233 L2034.01 319.858 L2029.31 319.858 L2029.31 289.233 L2017.04 289.233 L2017.04 285.298 Z" fill="#000000" fill-rule="nonzero" fill-opacity="1" /><path clip-path="url(#clip330)" d="M2058.66 297.913 Q2057.94 297.497 2057.09 297.311 Q2056.25 297.103 2055.24 297.103 Q2051.62 297.103 2049.68 299.464 Q2047.76 301.802 2047.76 306.2 L2047.76 319.858 L2043.48 319.858 L2043.48 293.932 L2047.76 293.932 L2047.76 297.96 Q2049.1 295.598 2051.25 294.464 Q2053.41 293.307 2056.49 293.307 Q2056.93 293.307 2057.46 293.376 Q2057.99 293.423 2058.64 293.538 L2058.66 297.913 Z" fill="#000000" fill-rule="nonzero" fill-opacity="1" /><path clip-path="url(#clip330)" d="M2062.69 309.626 L2062.69 293.932 L2066.95 293.932 L2066.95 309.464 Q2066.95 313.145 2068.38 314.996 Q2069.82 316.825 2072.69 316.825 Q2076.14 316.825 2078.13 314.626 Q2080.14 312.427 2080.14 308.631 L2080.14 293.932 L2084.4 293.932 L2084.4 319.858 L2080.14 319.858 L2080.14 315.876 Q2078.59 318.237 2076.53 319.395 Q2074.49 320.529 2071.79 320.529 Q2067.32 320.529 2065 317.751 Q2062.69 314.973 2062.69 309.626 M2073.41 293.307 L2073.41 293.307 Z" fill="#000000" fill-rule="nonzero" fill-opacity="1" /><path clip-path="url(#clip330)" d="M2115.35 305.83 L2115.35 307.913 L2095.77 307.913 Q2096.05 312.311 2098.41 314.626 Q2100.79 316.918 2105.03 316.918 Q2107.48 316.918 2109.77 316.316 Q2112.09 315.714 2114.36 314.51 L2114.36 318.538 Q2112.06 319.51 2109.66 320.02 Q2107.25 320.529 2104.77 320.529 Q2098.57 320.529 2094.93 316.918 Q2091.32 313.307 2091.32 307.149 Q2091.32 300.784 2094.75 297.057 Q2098.2 293.307 2104.03 293.307 Q2109.26 293.307 2112.3 296.686 Q2115.35 300.043 2115.35 305.83 M2111.09 304.58 Q2111.05 301.085 2109.12 299.001 Q2107.23 296.918 2104.08 296.918 Q2100.51 296.918 2098.36 298.932 Q2096.23 300.946 2095.91 304.603 L2111.09 304.58 Z" fill="#000000" fill-rule="nonzero" fill-opacity="1" /></svg>
