<?xml version="1.0" encoding="utf-8"?>
<svg xmlns="http://www.w3.org/2000/svg" xmlns:xlink="http://www.w3.org/1999/xlink" width="600" height="400" viewBox="0 0 2400 1600">
<defs>
  <clipPath id="clip110">
    <rect x="0" y="0" width="2400" height="1600"/>
  </clipPath>
</defs>
<path clip-path="url(#clip110)" d="M0 1600 L2400 1600 L2400 0 L0 0  Z" fill="#ffffff" fill-rule="evenodd" fill-opacity="1"/>
<defs>
  <clipPath id="clip111">
    <rect x="480" y="0" width="1681" height="1600"/>
  </clipPath>
</defs>
<path clip-path="url(#clip110)" d="M177.871 1486.45 L2352.76 1486.45 L2352.76 47.2441 L177.871 47.2441  Z" fill="#ffffff" fill-rule="evenodd" fill-opacity="1"/>
<defs>
  <clipPath id="clip112">
    <rect x="177" y="47" width="2176" height="1440"/>
  </clipPath>
</defs>
<polyline clip-path="url(#clip112)" style="stroke:#000000; stroke-linecap:round; stroke-linejoin:round; stroke-width:2; stroke-opacity:0.1; fill:none" points="386.152,1486.45 386.152,47.2441 "/>
<polyline clip-path="url(#clip112)" style="stroke:#000000; stroke-linecap:round; stroke-linejoin:round; stroke-width:2; stroke-opacity:0.1; fill:none" points="812.642,1486.45 812.642,47.2441 "/>
<polyline clip-path="url(#clip112)" style="stroke:#000000; stroke-linecap:round; stroke-linejoin:round; stroke-width:2; stroke-opacity:0.1; fill:none" points="1239.13,1486.45 1239.13,47.2441 "/>
<polyline clip-path="url(#clip112)" style="stroke:#000000; stroke-linecap:round; stroke-linejoin:round; stroke-width:2; stroke-opacity:0.1; fill:none" points="1665.62,1486.45 1665.62,47.2441 "/>
<polyline clip-path="url(#clip112)" style="stroke:#000000; stroke-linecap:round; stroke-linejoin:round; stroke-width:2; stroke-opacity:0.1; fill:none" points="2092.11,1486.45 2092.11,47.2441 "/>
<polyline clip-path="url(#clip112)" style="stroke:#000000; stroke-linecap:round; stroke-linejoin:round; stroke-width:2; stroke-opacity:0.1; fill:none" points="177.871,1484.6 2352.76,1484.6 "/>
<polyline clip-path="url(#clip112)" style="stroke:#000000; stroke-linecap:round; stroke-linejoin:round; stroke-width:2; stroke-opacity:0.1; fill:none" points="177.871,1177.65 2352.76,1177.65 "/>
<polyline clip-path="url(#clip112)" style="stroke:#000000; stroke-linecap:round; stroke-linejoin:round; stroke-width:2; stroke-opacity:0.1; fill:none" points="177.871,870.709 2352.76,870.709 "/>
<polyline clip-path="url(#clip112)" style="stroke:#000000; stroke-linecap:round; stroke-linejoin:round; stroke-width:2; stroke-opacity:0.1; fill:none" points="177.871,563.763 2352.76,563.763 "/>
<polyline clip-path="url(#clip112)" style="stroke:#000000; stroke-linecap:round; stroke-linejoin:round; stroke-width:2; stroke-opacity:0.1; fill:none" points="177.871,256.818 2352.76,256.818 "/>
<polyline clip-path="url(#clip110)" style="stroke:#000000; stroke-linecap:round; stroke-linejoin:round; stroke-width:4; stroke-opacity:1; fill:none" points="177.871,1486.45 2352.76,1486.45 "/>
<polyline clip-path="url(#clip110)" style="stroke:#000000; stroke-linecap:round; stroke-linejoin:round; stroke-width:4; stroke-opacity:1; fill:none" points="386.152,1486.45 386.152,1467.55 "/>
<polyline clip-path="url(#clip110)" style="stroke:#000000; stroke-linecap:round; stroke-linejoin:round; stroke-width:4; stroke-opacity:1; fill:none" points="812.642,1486.45 812.642,1467.55 "/>
<polyline clip-path="url(#clip110)" style="stroke:#000000; stroke-linecap:round; stroke-linejoin:round; stroke-width:4; stroke-opacity:1; fill:none" points="1239.13,1486.45 1239.13,1467.55 "/>
<polyline clip-path="url(#clip110)" style="stroke:#000000; stroke-linecap:round; stroke-linejoin:round; stroke-width:4; stroke-opacity:1; fill:none" points="1665.62,1486.45 1665.62,1467.55 "/>
<polyline clip-path="url(#clip110)" style="stroke:#000000; stroke-linecap:round; stroke-linejoin:round; stroke-width:4; stroke-opacity:1; fill:none" points="2092.11,1486.45 2092.11,1467.55 "/>
<path clip-path="url(#clip110)" d="M340.214 1532.02 L369.89 1532.02 L369.89 1535.95 L340.214 1535.95 L340.214 1532.02 Z" fill="#000000" fill-rule="nonzero" fill-opacity="1" /><path clip-path="url(#clip110)" d="M394.149 1530.21 Q397.506 1530.93 399.381 1533.2 Q401.279 1535.47 401.279 1538.8 Q401.279 1543.92 397.76 1546.72 Q394.242 1549.52 387.76 1549.52 Q385.585 1549.52 383.27 1549.08 Q380.978 1548.66 378.524 1547.81 L378.524 1543.29 Q380.469 1544.43 382.784 1545.01 Q385.098 1545.58 387.622 1545.58 Q392.02 1545.58 394.311 1543.85 Q396.626 1542.11 396.626 1538.8 Q396.626 1535.75 394.473 1534.03 Q392.344 1532.3 388.524 1532.3 L384.497 1532.3 L384.497 1528.45 L388.709 1528.45 Q392.159 1528.45 393.987 1527.09 Q395.816 1525.7 395.816 1523.11 Q395.816 1520.45 393.918 1519.03 Q392.043 1517.6 388.524 1517.6 Q386.603 1517.6 384.404 1518.01 Q382.205 1518.43 379.566 1519.31 L379.566 1515.14 Q382.228 1514.4 384.543 1514.03 Q386.881 1513.66 388.941 1513.66 Q394.265 1513.66 397.367 1516.09 Q400.469 1518.5 400.469 1522.62 Q400.469 1525.49 398.825 1527.48 Q397.182 1529.45 394.149 1530.21 Z" fill="#000000" fill-rule="nonzero" fill-opacity="1" /><path clip-path="url(#clip110)" d="M420.145 1517.37 Q416.533 1517.37 414.705 1520.93 Q412.899 1524.47 412.899 1531.6 Q412.899 1538.71 414.705 1542.27 Q416.533 1545.82 420.145 1545.82 Q423.779 1545.82 425.584 1542.27 Q427.413 1538.71 427.413 1531.6 Q427.413 1524.47 425.584 1520.93 Q423.779 1517.37 420.145 1517.37 M420.145 1513.66 Q425.955 1513.66 429.01 1518.27 Q432.089 1522.85 432.089 1531.6 Q432.089 1540.33 429.01 1544.94 Q425.955 1549.52 420.145 1549.52 Q414.334 1549.52 411.256 1544.94 Q408.2 1540.33 408.2 1531.6 Q408.2 1522.85 411.256 1518.27 Q414.334 1513.66 420.145 1513.66 Z" fill="#000000" fill-rule="nonzero" fill-opacity="1" /><path clip-path="url(#clip110)" d="M812.642 1517.37 Q809.031 1517.37 807.203 1520.93 Q805.397 1524.47 805.397 1531.6 Q805.397 1538.71 807.203 1542.27 Q809.031 1545.82 812.642 1545.82 Q816.277 1545.82 818.082 1542.27 Q819.911 1538.71 819.911 1531.6 Q819.911 1524.47 818.082 1520.93 Q816.277 1517.37 812.642 1517.37 M812.642 1513.66 Q818.452 1513.66 821.508 1518.27 Q824.587 1522.85 824.587 1531.6 Q824.587 1540.33 821.508 1544.94 Q818.452 1549.52 812.642 1549.52 Q806.832 1549.52 803.754 1544.94 Q800.698 1540.33 800.698 1531.6 Q800.698 1522.85 803.754 1518.27 Q806.832 1513.66 812.642 1513.66 Z" fill="#000000" fill-rule="nonzero" fill-opacity="1" /><path clip-path="url(#clip110)" d="M1227.98 1530.21 Q1231.33 1530.93 1233.21 1533.2 Q1235.11 1535.47 1235.11 1538.8 Q1235.11 1543.92 1231.59 1546.72 Q1228.07 1549.52 1221.59 1549.52 Q1219.41 1549.52 1217.1 1549.08 Q1214.8 1548.66 1212.35 1547.81 L1212.35 1543.29 Q1214.3 1544.43 1216.61 1545.01 Q1218.92 1545.58 1221.45 1545.58 Q1225.85 1545.58 1228.14 1543.85 Q1230.45 1542.11 1230.45 1538.8 Q1230.45 1535.75 1228.3 1534.03 Q1226.17 1532.3 1222.35 1532.3 L1218.32 1532.3 L1218.32 1528.45 L1222.54 1528.45 Q1225.98 1528.45 1227.81 1527.09 Q1229.64 1525.7 1229.64 1523.11 Q1229.64 1520.45 1227.74 1519.03 Q1225.87 1517.6 1222.35 1517.6 Q1220.43 1517.6 1218.23 1518.01 Q1216.03 1518.43 1213.39 1519.31 L1213.39 1515.14 Q1216.05 1514.4 1218.37 1514.03 Q1220.71 1513.66 1222.77 1513.66 Q1228.09 1513.66 1231.19 1516.09 Q1234.3 1518.5 1234.3 1522.62 Q1234.3 1525.49 1232.65 1527.48 Q1231.01 1529.45 1227.98 1530.21 Z" fill="#000000" fill-rule="nonzero" fill-opacity="1" /><path clip-path="url(#clip110)" d="M1253.97 1517.37 Q1250.36 1517.37 1248.53 1520.93 Q1246.73 1524.47 1246.73 1531.6 Q1246.73 1538.71 1248.53 1542.27 Q1250.36 1545.82 1253.97 1545.82 Q1257.61 1545.82 1259.41 1542.27 Q1261.24 1538.71 1261.24 1531.6 Q1261.24 1524.47 1259.41 1520.93 Q1257.61 1517.37 1253.97 1517.37 M1253.97 1513.66 Q1259.78 1513.66 1262.84 1518.27 Q1265.92 1522.85 1265.92 1531.6 Q1265.92 1540.33 1262.84 1544.94 Q1259.78 1549.52 1253.97 1549.52 Q1248.16 1549.52 1245.08 1544.94 Q1242.03 1540.33 1242.03 1531.6 Q1242.03 1522.85 1245.08 1518.27 Q1248.16 1513.66 1253.97 1513.66 Z" fill="#000000" fill-rule="nonzero" fill-opacity="1" /><path clip-path="url(#clip110)" d="M1651.03 1529.7 Q1647.88 1529.7 1646.03 1531.86 Q1644.2 1534.01 1644.2 1537.76 Q1644.2 1541.49 1646.03 1543.66 Q1647.88 1545.82 1651.03 1545.82 Q1654.18 1545.82 1656.01 1543.66 Q1657.86 1541.49 1657.86 1537.76 Q1657.86 1534.01 1656.01 1531.86 Q1654.18 1529.7 1651.03 1529.7 M1660.31 1515.05 L1660.31 1519.31 Q1658.55 1518.48 1656.75 1518.04 Q1654.96 1517.6 1653.2 1517.6 Q1648.58 1517.6 1646.12 1520.72 Q1643.69 1523.85 1643.34 1530.17 Q1644.71 1528.15 1646.77 1527.09 Q1648.83 1526 1651.31 1526 Q1656.52 1526 1659.52 1529.17 Q1662.56 1532.32 1662.56 1537.76 Q1662.56 1543.08 1659.41 1546.3 Q1656.26 1549.52 1651.03 1549.52 Q1645.03 1549.52 1641.86 1544.94 Q1638.69 1540.33 1638.69 1531.6 Q1638.69 1523.41 1642.58 1518.55 Q1646.47 1513.66 1653.02 1513.66 Q1654.78 1513.66 1656.56 1514.01 Q1658.37 1514.36 1660.31 1515.05 Z" fill="#000000" fill-rule="nonzero" fill-opacity="1" /><path clip-path="url(#clip110)" d="M1680.61 1517.37 Q1677 1517.37 1675.17 1520.93 Q1673.37 1524.47 1673.37 1531.6 Q1673.37 1538.71 1675.17 1542.27 Q1677 1545.82 1680.61 1545.82 Q1684.25 1545.82 1686.05 1542.27 Q1687.88 1538.71 1687.88 1531.6 Q1687.88 1524.47 1686.05 1520.93 Q1684.25 1517.37 1680.61 1517.37 M1680.61 1513.66 Q1686.42 1513.66 1689.48 1518.27 Q1692.56 1522.85 1692.56 1531.6 Q1692.56 1540.33 1689.48 1544.94 Q1686.42 1549.52 1680.61 1549.52 Q1674.8 1549.52 1671.72 1544.94 Q1668.67 1540.33 1668.67 1531.6 Q1668.67 1522.85 1671.72 1518.27 Q1674.8 1513.66 1680.61 1513.66 Z" fill="#000000" fill-rule="nonzero" fill-opacity="1" /><path clip-path="url(#clip110)" d="M2067.24 1548.13 L2067.24 1543.87 Q2069 1544.7 2070.81 1545.14 Q2072.61 1545.58 2074.35 1545.58 Q2078.98 1545.58 2081.41 1542.48 Q2083.86 1539.36 2084.21 1533.01 Q2082.87 1535.01 2080.81 1536.07 Q2078.75 1537.13 2076.25 1537.13 Q2071.06 1537.13 2068.03 1534.01 Q2065.02 1530.86 2065.02 1525.42 Q2065.02 1520.1 2068.17 1516.88 Q2071.32 1513.66 2076.55 1513.66 Q2082.54 1513.66 2085.69 1518.27 Q2088.86 1522.85 2088.86 1531.6 Q2088.86 1539.77 2084.97 1544.66 Q2081.11 1549.52 2074.56 1549.52 Q2072.8 1549.52 2070.99 1549.17 Q2069.19 1548.82 2067.24 1548.13 M2076.55 1533.48 Q2079.7 1533.48 2081.52 1531.32 Q2083.38 1529.17 2083.38 1525.42 Q2083.38 1521.7 2081.52 1519.54 Q2079.7 1517.37 2076.55 1517.37 Q2073.4 1517.37 2071.55 1519.54 Q2069.72 1521.7 2069.72 1525.42 Q2069.72 1529.17 2071.55 1531.32 Q2073.4 1533.48 2076.55 1533.48 Z" fill="#000000" fill-rule="nonzero" fill-opacity="1" /><path clip-path="url(#clip110)" d="M2107.26 1517.37 Q2103.65 1517.37 2101.83 1520.93 Q2100.02 1524.47 2100.02 1531.6 Q2100.02 1538.71 2101.83 1542.27 Q2103.65 1545.82 2107.26 1545.82 Q2110.9 1545.82 2112.7 1542.27 Q2114.53 1538.71 2114.53 1531.6 Q2114.53 1524.47 2112.7 1520.93 Q2110.9 1517.37 2107.26 1517.37 M2107.26 1513.66 Q2113.08 1513.66 2116.13 1518.27 Q2119.21 1522.85 2119.21 1531.6 Q2119.21 1540.33 2116.13 1544.94 Q2113.08 1549.52 2107.26 1549.52 Q2101.45 1549.52 2098.38 1544.94 Q2095.32 1540.33 2095.32 1531.6 Q2095.32 1522.85 2098.38 1518.27 Q2101.45 1513.66 2107.26 1513.66 Z" fill="#000000" fill-rule="nonzero" fill-opacity="1" /><polyline clip-path="url(#clip110)" style="stroke:#000000; stroke-linecap:round; stroke-linejoin:round; stroke-width:4; stroke-opacity:1; fill:none" points="177.871,1486.45 177.871,47.2441 "/>
<polyline clip-path="url(#clip110)" style="stroke:#000000; stroke-linecap:round; stroke-linejoin:round; stroke-width:4; stroke-opacity:1; fill:none" points="177.871,1484.6 196.769,1484.6 "/>
<polyline clip-path="url(#clip110)" style="stroke:#000000; stroke-linecap:round; stroke-linejoin:round; stroke-width:4; stroke-opacity:1; fill:none" points="177.871,1177.65 196.769,1177.65 "/>
<polyline clip-path="url(#clip110)" style="stroke:#000000; stroke-linecap:round; stroke-linejoin:round; stroke-width:4; stroke-opacity:1; fill:none" points="177.871,870.709 196.769,870.709 "/>
<polyline clip-path="url(#clip110)" style="stroke:#000000; stroke-linecap:round; stroke-linejoin:round; stroke-width:4; stroke-opacity:1; fill:none" points="177.871,563.763 196.769,563.763 "/>
<polyline clip-path="url(#clip110)" style="stroke:#000000; stroke-linecap:round; stroke-linejoin:round; stroke-width:4; stroke-opacity:1; fill:none" points="177.871,256.818 196.769,256.818 "/>
<path clip-path="url(#clip110)" d="M50.9921 1485.05 L80.6679 1485.05 L80.6679 1488.99 L50.9921 1488.99 L50.9921 1485.05 Z" fill="#000000" fill-rule="nonzero" fill-opacity="1" /><path clip-path="url(#clip110)" d="M94.7882 1497.95 L111.108 1497.95 L111.108 1501.88 L89.1632 1501.88 L89.1632 1497.95 Q91.8252 1495.19 96.4085 1490.56 Q101.015 1485.91 102.196 1484.57 Q104.441 1482.04 105.321 1480.31 Q106.223 1478.55 106.223 1476.86 Q106.223 1474.1 104.279 1472.37 Q102.358 1470.63 99.2558 1470.63 Q97.0567 1470.63 94.603 1471.39 Q92.1725 1472.16 89.3947 1473.71 L89.3947 1468.99 Q92.2188 1467.85 94.6724 1467.27 Q97.1261 1466.7 99.1632 1466.7 Q104.534 1466.7 107.728 1469.38 Q110.922 1472.07 110.922 1476.56 Q110.922 1478.69 110.112 1480.61 Q109.325 1482.51 107.219 1485.1 Q106.64 1485.77 103.538 1488.99 Q100.436 1492.18 94.7882 1497.95 Z" fill="#000000" fill-rule="nonzero" fill-opacity="1" /><path clip-path="url(#clip110)" d="M120.969 1467.32 L139.325 1467.32 L139.325 1471.26 L125.251 1471.26 L125.251 1479.73 Q126.27 1479.38 127.288 1479.22 Q128.307 1479.03 129.325 1479.03 Q135.112 1479.03 138.492 1482.2 Q141.871 1485.38 141.871 1490.79 Q141.871 1496.37 138.399 1499.47 Q134.927 1502.55 128.607 1502.55 Q126.432 1502.55 124.163 1502.18 Q121.918 1501.81 119.51 1501.07 L119.51 1496.37 Q121.594 1497.51 123.816 1498.06 Q126.038 1498.62 128.515 1498.62 Q132.519 1498.62 134.857 1496.51 Q137.195 1494.4 137.195 1490.79 Q137.195 1487.18 134.857 1485.08 Q132.519 1482.97 128.515 1482.97 Q126.64 1482.97 124.765 1483.39 Q122.913 1483.8 120.969 1484.68 L120.969 1467.32 Z" fill="#000000" fill-rule="nonzero" fill-opacity="1" /><path clip-path="url(#clip110)" d="M129.927 1163.45 Q126.316 1163.45 124.487 1167.02 Q122.682 1170.56 122.682 1177.69 Q122.682 1184.8 124.487 1188.36 Q126.316 1191.9 129.927 1191.9 Q133.561 1191.9 135.367 1188.36 Q137.195 1184.8 137.195 1177.69 Q137.195 1170.56 135.367 1167.02 Q133.561 1163.45 129.927 1163.45 M129.927 1159.75 Q135.737 1159.75 138.793 1164.36 Q141.871 1168.94 141.871 1177.69 Q141.871 1186.42 138.793 1191.02 Q135.737 1195.61 129.927 1195.61 Q124.117 1195.61 121.038 1191.02 Q117.983 1186.42 117.983 1177.69 Q117.983 1168.94 121.038 1164.36 Q124.117 1159.75 129.927 1159.75 Z" fill="#000000" fill-rule="nonzero" fill-opacity="1" /><path clip-path="url(#clip110)" d="M94.7882 884.054 L111.108 884.054 L111.108 887.989 L89.1632 887.989 L89.1632 884.054 Q91.8252 881.299 96.4085 876.67 Q101.015 872.017 102.196 870.674 Q104.441 868.151 105.321 866.415 Q106.223 864.656 106.223 862.966 Q106.223 860.211 104.279 858.475 Q102.358 856.739 99.2558 856.739 Q97.0567 856.739 94.603 857.503 Q92.1725 858.267 89.3947 859.818 L89.3947 855.096 Q92.2188 853.961 94.6724 853.383 Q97.1261 852.804 99.1632 852.804 Q104.534 852.804 107.728 855.489 Q110.922 858.174 110.922 862.665 Q110.922 864.795 110.112 866.716 Q109.325 868.614 107.219 871.207 Q106.64 871.878 103.538 875.096 Q100.436 878.29 94.7882 884.054 Z" fill="#000000" fill-rule="nonzero" fill-opacity="1" /><path clip-path="url(#clip110)" d="M120.969 853.429 L139.325 853.429 L139.325 857.364 L125.251 857.364 L125.251 865.836 Q126.27 865.489 127.288 865.327 Q128.307 865.142 129.325 865.142 Q135.112 865.142 138.492 868.313 Q141.871 871.485 141.871 876.901 Q141.871 882.48 138.399 885.582 Q134.927 888.66 128.607 888.66 Q126.432 888.66 124.163 888.29 Q121.918 887.92 119.51 887.179 L119.51 882.48 Q121.594 883.614 123.816 884.17 Q126.038 884.725 128.515 884.725 Q132.519 884.725 134.857 882.619 Q137.195 880.512 137.195 876.901 Q137.195 873.29 134.857 871.184 Q132.519 869.077 128.515 869.077 Q126.64 869.077 124.765 869.494 Q122.913 869.91 120.969 870.79 L120.969 853.429 Z" fill="#000000" fill-rule="nonzero" fill-opacity="1" /><path clip-path="url(#clip110)" d="M89.8114 546.483 L108.168 546.483 L108.168 550.418 L94.0937 550.418 L94.0937 558.891 Q95.1123 558.543 96.1308 558.381 Q97.1493 558.196 98.1678 558.196 Q103.955 558.196 107.334 561.367 Q110.714 564.539 110.714 569.955 Q110.714 575.534 107.242 578.636 Q103.77 581.715 97.4502 581.715 Q95.2743 581.715 93.0058 581.344 Q90.7604 580.974 88.353 580.233 L88.353 575.534 Q90.4364 576.668 92.6586 577.224 Q94.8808 577.779 97.3576 577.779 Q101.362 577.779 103.7 575.673 Q106.038 573.567 106.038 569.955 Q106.038 566.344 103.7 564.238 Q101.362 562.131 97.3576 562.131 Q95.4826 562.131 93.6076 562.548 Q91.7558 562.965 89.8114 563.844 L89.8114 546.483 Z" fill="#000000" fill-rule="nonzero" fill-opacity="1" /><path clip-path="url(#clip110)" d="M129.927 549.562 Q126.316 549.562 124.487 553.127 Q122.682 556.668 122.682 563.798 Q122.682 570.904 124.487 574.469 Q126.316 578.011 129.927 578.011 Q133.561 578.011 135.367 574.469 Q137.195 570.904 137.195 563.798 Q137.195 556.668 135.367 553.127 Q133.561 549.562 129.927 549.562 M129.927 545.858 Q135.737 545.858 138.793 550.465 Q141.871 555.048 141.871 563.798 Q141.871 572.525 138.793 577.131 Q135.737 581.715 129.927 581.715 Q124.117 581.715 121.038 577.131 Q117.983 572.525 117.983 563.798 Q117.983 555.048 121.038 550.465 Q124.117 545.858 129.927 545.858 Z" fill="#000000" fill-rule="nonzero" fill-opacity="1" /><path clip-path="url(#clip110)" d="M89.5799 239.538 L111.802 239.538 L111.802 241.528 L99.2558 274.098 L94.3715 274.098 L106.177 243.473 L89.5799 243.473 L89.5799 239.538 Z" fill="#000000" fill-rule="nonzero" fill-opacity="1" /><path clip-path="url(#clip110)" d="M120.969 239.538 L139.325 239.538 L139.325 243.473 L125.251 243.473 L125.251 251.945 Q126.27 251.598 127.288 251.436 Q128.307 251.25 129.325 251.25 Q135.112 251.25 138.492 254.422 Q141.871 257.593 141.871 263.01 Q141.871 268.588 138.399 271.69 Q134.927 274.769 128.607 274.769 Q126.432 274.769 124.163 274.399 Q121.918 274.028 119.51 273.287 L119.51 268.588 Q121.594 269.723 123.816 270.278 Q126.038 270.834 128.515 270.834 Q132.519 270.834 134.857 268.727 Q137.195 266.621 137.195 263.01 Q137.195 259.399 134.857 257.292 Q132.519 255.186 128.515 255.186 Q126.64 255.186 124.765 255.602 Q122.913 256.019 120.969 256.899 L120.969 239.538 Z" fill="#000000" fill-rule="nonzero" fill-opacity="1" /><polyline clip-path="url(#clip112)" style="stroke:#0000ff; stroke-linecap:round; stroke-linejoin:round; stroke-width:4; stroke-opacity:1; fill:none" points="240.289,716.24 263.388,721.729 268.823,717.39 288.582,715.167 298.12,715.174 319.389,718.974 338.161,723.084 363.911,724.813 390.42,726.512 420.127,731.346 448.906,731.344 472.975,731.108 508.569,732.397 530.283,738.457 552.978,743.011 587.219,746.377 612.177,748.013 633.482,752.901 662.363,759.546 685.579,766.97 708.308,774.935 730.976,781.22 758.403,787.859 780.771,796.625 806.114,801.913 836.795,809.769 859.122,809.238 892.769,811.491 917.516,820.357 943.197,827.786 973.734,837.13 997.791,845.587 1023.34,852.748 1041.15,863.179 1058.53,875.272 1066.25,880.085 1086.72,882.94 1103.71,884.331 1125.93,885.829 1152.23,889.492 1178.63,899.957 1205.24,910.477 1226.79,915.404 1252.11,918.432 1284.15,920.02 1312.6,921.276 1344.9,925.644 1372.83,930.876 1397.92,934.171 1422.2,936.865 1454.24,936.4 1477.59,936.061 1504.23,935.536 1530.37,932.112 1559.41,926.762 1587.57,927.529 1614.84,925.753 1640.51,926.734 1660.75,920.061 1678.4,917.259 1695.14,910.598 1712.57,903.831 1733.32,904.023 1755.99,902.202 1777.45,904.231 1796.01,907.622 1817.81,914.819 1837.91,927.02 1858.96,939.123 1874.43,949.687 1889.98,966.01 1899.99,979.941 1907.02,994.404 1916.12,1013.55 1927.66,1031.14 1940.61,1049.91 1951.15,1060.16 1969.82,1066.61 1984.37,1069.08 1994.04,1067.99 2015.22,1061.73 2031.35,1056.01 2050.6,1035.03 2062.46,1019.12 2065.85,998.911 2068.37,980.813 2066.88,959.696 2052.84,945.146 2033.2,938.531 2010.73,929.088 1982.76,931.801 1958.97,930.638 1939.11,927.472 1921,924.797 1898.9,922.367 1879.85,929.027 1858.46,935.93 1842.63,943.637 1819.5,945.352 1795.05,944.173 1767.7,939.381 1745.77,928.349 1723.22,917.399 1692.8,901.203 1667.35,884.178 1645.14,866.691 1630.52,852.402 1620.12,839.361 1603.84,825.863 1589.84,809.305 1578.49,793.656 1570.9,777.195 1571.18,761.696 1584.91,746.141 1599.01,732.976 1621.18,726.028 1639.84,728.107 1666.21,729.476 1684.6,742.746 1705.51,750.224 1718.77,755.346 1741.04,760.825 1763.24,771.604 1774.35,780.828 1791.53,791.374 1809.87,802.258 1831.75,809.605 1852.43,811.039 1873.62,810.781 1897.31,803.488 1917.46,799.571 1933.26,798.971 1951.31,807.788 1967.59,820.84 1982.28,837.21 1991.74,852.914 2000.2,872.725 2007.63,894.335 2011.12,912.892 2010.53,933.279 2010.12,943.657 2013.42,957.015 2024.76,975.655 2032.39,993.154 2044.57,1007.97 2056.16,1014.28 2069.03,1017.29 2087.2,1012.68 2105.37,1004.21 2118.48,994.836 2134.6,982.985 2143.79,974.59 2146.16,954.869 2135.47,937.574 2117.52,919.488 2102.48,903.901 2081.7,893.652 2053.01,890.19 2026.78,886.078 2009.63,883.663 1985.99,881.531 1966.22,879.238 1948.41,868.534 1933.38,861.87 1911.6,855.158 1895.87,855.022 1873.91,858.22 1853.76,853.16 1833.27,847.645 1814.04,846.265 1789.39,842.763 1771.91,837.696 1755.2,833.26 1733.31,832.141 1705.85,833.774 1679.15,840.282 1664.44,838.831 1661.29,830.717 1656.07,827.919 1648.94,826.094 1638.27,824.916 1629.97,824.307 1616.38,829.155 1601.88,836.126 1575.48,840.291 1554.15,843.237 1540.31,848.793 1531.51,858.206 1539.58,858.932 1555.34,857.584 1587.51,853.039 1605.62,834.034 1621.92,819.686 1627.37,803.918 1618.92,786.892 1603.83,769.056 1593.33,758.307 1582.88,737.473 1564.82,726.39 1544.14,737.788 1521.11,739.415 1493.08,734.062 1489.87,715.236 1485.47,696.101 1487,674.65 1491.56,658.439 1506.34,636.682 1513.51,616.767 1517.52,593.808 1499.97,581.596 1476.98,574.654 1467.44,572.304 1478.91,558.581 1500.22,548.171 1535.08,546.492 1574.18,533.325 1599.17,516.493 1616.59,492.02 1629.84,471.55 1651.24,462.623 1677.2,466.257 1700.87,471.642 1720.33,489.666 1747.77,501.95 1765.86,518.562 1775.97,538.615 1764.57,555.664 1746.44,572.483 1718.59,584.986 1686.21,590.802 1660.26,590.738 1627.1,575.159 1601.91,559.89 1592.24,538.966 1591.42,517.176 1609.71,502.208 1623.97,491.691 1646.95,476.911 1671.92,468.983 1694.29,453.232 1715.8,440.882 1735.28,440.26 1757.61,426.734 1760.71,411.798 1772,394.497 1784.13,389.155 1801.04,372.328 1793.98,358.83 1772.25,348.302 1768.35,346.046 1780.03,342.061 1805.94,335.309 1834.31,340.369 1859.54,342.792 1885.73,349.126 1908.48,366.425 1911.84,385.147 1907.01,398.063 1885.55,407.983 1871.38,430.635 1856.75,457.12 1846.32,489.93 1848.82,510.86 1813.04,512.671 1789.78,528.591 1758.27,535.546 1728.04,552.225 1711.31,577.876 1691.47,594.853 1664.26,589.449 1643.02,577.194 1615.42,569.828 1600.4,555.948 1574.52,540.089 1566.41,532.53 1575.59,510.179 1600.19,501.569 1633.65,496.199 1662.51,500.987 1696.64,507.689 1724.45,522.397 1732.57,544.083 1745.75,564.727 1762.42,569.216 1788.8,573.504 1812.08,583.776 1821.43,587.232 1846.45,579.216 1870.7,570.974 1890.43,561.337 1911.06,564.821 1930.37,579.534 1928.21,598.475 1929.1,619.499 1914.61,651.468 1893.74,676.223 1870.45,695.851 1848.35,725.61 1846.85,750.175 1811.18,762.152 1783.78,767.274 1756.15,781.401 1730.26,795.379 1714.29,814.304 1698.65,835.845 1672.32,859.066 1646,866.787 1619.72,858.007 1595.85,852.574 1564.44,848.374 1536.63,839.829 1516.63,818.522 1503.19,798.717 1472.35,776.269 1455.92,757.594 1431.14,740.952 1406.4,737.304 1376.68,742.543 1357.57,741.083 1332.12,732.155 1327.95,705.293 1310.22,698.289 1286.49,702.529 1268.74,711.326 1245.88,728.434 1238.46,735.168 1208.85,738.216 1185.61,744.097 1160.29,737.786 1139.9,718.611 1117.45,705.608 1083.42,700.617 1050.55,691.971 1028.38,686.494 1008.22,675.756 989.186,655.238 988.564,641.894 998.665,622.772 1014.48,602.924 1025.67,579.767 1032.32,549.14 1038.12,523.368 1021.35,504.265 1002.66,499.399 992.621,487.819 998.978,475.025 1025.39,474.596 1061.05,478.36 1101.66,475.237 1134.22,471.775 1160.91,454.21 1185.36,429.615 1209.35,409.819 1240.59,402.78 1279.22,405.668 1311.25,418.057 1342.05,434.463 1371.65,446.994 1398.02,458.158 1419.12,471.775 1454.82,479.104 1479.93,493.808 1506.59,515.87 1536.45,543.39 1563.3,558.886 1587.08,570.212 1605.69,579.886 1615.42,569.255 1635.89,561.442 1662.89,547.206 1685.3,537.378 1714.71,527.361 1746.84,525.422 1782.97,535.012 1810.16,559.601 1816.17,581.84 1812.23,612.891 1793.85,645.368 1792.41,672.65 1783.32,705.161 1784.52,739.717 1802.02,769.582 1832.4,794.767 1871.78,791.89 1893,794.639 1923.41,801.636 1942.83,823.175 1966.77,849.561 1987.32,881.142 1999.3,913.835 2004.43,935.738 2021.43,917.336 2055.45,922.907 2082.9,930.448 2095.4,945.536 2098.45,949.966 2097.81,953.914 2103.16,970.729 2105.11,976.646 2117.73,980.415 2135.12,981.798 2165.44,976.272 2191.99,986.553 2205.16,998.096 2217,1020.96 2218.67,1034.31 2221.61,1020.12 2226.53,1001.86 2224.78,974.023 2213.42,946.998 2197.83,923.709 2187.78,901.542 2188.98,881.218 2162.01,860.172 2155.7,829.513 2159.72,804.51 2178.12,793.466 2199.51,796.276 2223.24,804.202 2239.1,816.929 2250.71,837.163 2276.81,859.848 2290.5,881.06 2280.78,908.504 2260.72,930.204 2243.05,950.235 2212.96,962.585 2194.59,981.585 2168.01,993.603 2141.93,1016.35 2123.17,1038.09 2113.48,1062.37 2093.22,1084.75 2075.9,1106.87 2050.39,1123.56 2024.8,1135.32 1993.69,1151.47 1968.15,1169.77 1940.15,1178.32 1911.76,1197.83 1896.28,1214.41 1864.16,1226.61 1845.56,1241.73 1828.08,1260.73 1809.48,1288.26 1803.23,1309.27 1798.08,1329.27 1790.93,1353.56 1814.4,1375.34 1823.22,1390.23 1816.36,1413.64 1808,1439.13 1788.06,1442.95 1765.38,1439.66 1744.08,1422.05 1732.35,1395.14 1717.93,1373.88 1694.81,1350.6 1655.66,1325.68 1624.47,1317.54 1590.85,1316.47 1554.91,1324.23 1513.66,1333.78 1487.12,1334.5 1453.56,1324.3 1427.62,1312.02 1408.69,1286.55 1406.98,1252.92 1401.16,1213.3 1380.15,1186.24 1359.43,1165 1366.64,1133.61 1363.25,1106.18 1355.09,1082.01 1342.93,1053.66 1324.21,1029.93 1319.01,1003.77 1325,969.764 1334.56,936.327 1353.19,907.255 1369.96,876.509 1381.72,843.831 1408.71,822.976 1403.41,795.209 1388.42,771.091 1358.2,747.872 1325.35,745.521 1306.07,731.544 1298.29,707.324 1294.99,674.562 1307.46,646.261 1321.72,625.113 1343.52,616.215 1373.94,604.205 1409.33,599.099 1450.01,595.085 1488.8,595.254 1517.22,587.523 1539.25,560.859 1557.31,539.735 1584.64,527.213 1606.57,521.919 1610,505.935 1595.26,492.997 1574.53,477.459 1548.51,465.887 1521.26,438.418 1497.84,412.282 1484.8,385.924 1467.64,365.641 1464.11,348.266 1472.16,327.987 1490.31,318.61 1508.22,328.737 1538.52,332.551 1577.42,335.254 1611.95,344.072 1651.71,350.316 1684.02,353.429 1714.45,367.804 1738.41,374.283 1763.29,366.833 1786.35,355.421 1818.07,350.398 1849.88,350.492 1881.07,344.669 1903.1,361.483 1914.65,377.048 1920.59,370.103 1929.99,353.83 1947.47,336.946 1964.68,326.053 1988.64,310.967 2009,302.933 1996.17,304.013 1973.72,290.899 1964.84,273.776 1952.64,244.579 1957.51,215.619 1969.22,200.385 1997.44,191.183 2030.58,193.411 2055.11,198.165 2088.16,202.066 2123.63,214.602 2147.45,237.604 2150.6,266.517 2143.25,293.851 2132.63,303.035 2136.72,318.543 2140.41,340.25 2135.91,372.787 2106.85,388.595 2088.63,424.683 2060.36,445.84 2038.36,472.19 2031.47,506.838 2005.13,513.331 1970.42,514.379 1935.64,527.289 1905.17,540.776 1889.25,568.287 1878.23,599.871 1877.66,616.394 1904.7,619.808 1933.95,633.419 1970.16,647.932 2004.29,672.273 2032.57,687.545 2069.68,692.05 2103.98,692.037 2142.13,688.542 2171.05,693.895 2196.21,692.89 2206.48,677.664 2220.14,657.888 2236.71,637.623 2234.36,612.436 2231.29,593.271 2220.69,569.511 2194.73,548.339 2173.58,529.727 2149.2,515.27 2107.79,516.618 2082.13,523.202 2059.05,541.356 2042.2,560.872 2016.38,585.824 2012.48,615.626 2017.38,647.256 2021.7,677.346 2038.48,703.734 2051.22,728.534 2064.4,762.191 2078.8,792.729 2110.73,804.066 2139.86,821.392 2166.62,850.493 2186.71,873.513 2200.21,905.195 2207.77,929.539 2203,941.935 2172.95,942.231 2136.24,955.033 2108.57,954.423 2093.96,960.875 2074.38,965.225 2052.21,961.051 2020.16,947.468 1990.04,937.842 1954.75,941.999 1910.66,955.918 1873.06,969.712 1835.06,968.857 1792.58,976.936 1755.49,977.815 1716.79,978.658 1686.22,973.158 1652.04,977.34 1619.96,971.053 1587.15,964.058 1551.89,933.469 1525.01,918.636 1487.83,912.01 1454.89,896.914 1426.09,880.639 1395.88,858.837 1369.43,851.823 1342.3,865.58 1317.11,881.931 1289.04,897.495 1251.66,916.126 1214.82,923.835 1185.7,919.001 1159.12,895.227 1140.95,871.458 1122.46,841.089 1096.92,815.488 1085.73,784.751 1082.71,756.61 1085.05,733.389 1070.67,703.687 1048.32,686.968 1020.06,675.776 1001.1,654.006 993.169,622.588 990.734,599.54 979.065,572.377 988.53,545.451 1009.26,517.232 1021.35,500.328 1034.14,495.13 1043.26,480.463 1048.29,464.177 1054.89,440.34 1061.99,416.018 1066.33,386.775 1078.33,353.7 1078.42,330.999 1056.76,312.63 1036.91,298.744 1009.52,299.886 982.779,308.127 955.712,304.072 924.361,289.931 886.841,275.794 864.03,268.894 841.401,264.406 827.363,247.243 826.911,226.048 842.224,207.574 862.818,188.599 887.026,171.208 930.655,161.24 960.588,147.091 993.475,141.625 1022.37,153.408 1049.8,159.701 1084.39,155.511 1118.47,149.45 1136.99,128.33 1152.58,109.251 1166.12,88.5135 "/>
<polyline clip-path="url(#clip112)" style="stroke:#ff0000; stroke-linecap:round; stroke-linejoin:round; stroke-width:4; stroke-opacity:1; fill:none" points="239.425,716.119 269.862,722.503 272.478,713.627 293.646,714.928 297.029,715.628 324.083,721.312 340.986,724.861 369.789,724.615 394.34,726.629 424.792,733.013 451.092,729.109 472.26,730.398 514.611,733.001 526.41,741.767 550.976,743.769 593.341,746.371 611.14,746.961 630.602,754.192 664.479,761.289 683.956,768.521 706.83,776.464 730.557,781.437 761.065,787.834 779.703,798.037 807.695,800.762 840.777,810.855 856.898,804.789 898.481,810.364 916.294,823.55 943.447,829.247 976.571,839.339 996.104,846.583 1023.29,852.28 1037.73,864.767 1055.6,877.965 1059,878.677 1091.28,879.144 1104.87,882.005 1129.52,884.018 1156.74,889.727 1181.43,904.375 1207.81,913.055 1225.67,913.657 1253.73,916.395 1289.46,917.574 1314.12,919.599 1348.17,926.745 1372.03,931.754 1396.69,933.768 1421.37,935.794 1457.94,934.014 1475.81,934.603 1504.72,934.37 1531.07,930.428 1561.63,924.24 1588.9,929.95 1615.23,926.021 1639.92,928.047 1657.66,916.014 1675.53,916.604 1692.44,907.555 1711.94,902.189 1735.81,907.199 1758.71,902.545 1779.18,906.83 1796.23,910.403 1819.3,918.384 1837.34,931.607 1859.61,942.571 1871.65,951.399 1888.08,970.601 1895.9,981.701 1902.91,995.783 1915.14,1017.28 1929,1032.81 1942.05,1051.34 1951.5,1056.48 1975.44,1061.52 1985.71,1063.67 1993.37,1062.11 2021.35,1052.19 2032.41,1051.34 2054.13,1024.33 2059.97,1016.08 2058.75,993.745 2062.76,978.828 2061.55,956.519 2042.66,946.267 2025.57,942.682 2003.28,931.718 1976.14,938.63 1955.65,934.345 1939.39,927.789 1922.33,924.216 1897.62,922.19 1879.92,934.235 1857,938.876 1844.34,945.677 1816.22,942.927 1791.51,940.914 1764.21,935.192 1746.19,921.969 1723.13,913.988 1688.07,897.192 1667.49,880.298 1646.92,863.404 1635.74,851.642 1624.58,839.867 1603.2,825.969 1590.29,807.564 1579.96,792.855 1573.86,775.887 1577.97,761.068 1596.49,746.126 1606.57,735.69 1629.43,731.073 1643.02,733.909 1671.86,733.676 1685.6,749.073 1706.01,753.345 1716.22,755.469 1743.44,761.166 1764.83,775.028 1770.01,782.382 1792.22,793.297 1811.03,803.512 1834.87,808.497 1853.52,806.115 1874.77,807.417 1899.26,796.846 1917.1,797.447 1930.73,800.296 1952.17,814.182 1966.8,826.656 1980.63,842.102 1987.64,856.123 1996.47,876.823 2005.3,897.536 2008.1,913.853 2005.88,935.413 2008.49,939.109 2014.72,956.163 2030.4,978.349 2033.22,994.703 2047.89,1007.24 2058.15,1009.4 2071.83,1012.26 2092.14,1003.9 2108.22,997.809 2117.46,990.283 2135.15,978.226 2140.17,972.983 2139.71,947.691 2125.03,935.168 2107.72,918.961 2097.28,904.203 2074.17,896.222 2046.05,893.484 2022.16,888.487 2011.92,886.339 1983.81,883.613 1966.75,880.04 1949.51,863.858 1935.86,861.01 1908.58,855.3 1896.74,859.106 1870.44,863.035 1852.41,849.837 1831.96,845.564 1813.29,847.934 1786.04,842.237 1773.21,836.417 1756.18,832.844 1730.71,833.802 1701.01,837.019 1677.3,844.619 1668.72,836.54 1668.58,823.943 1660.96,825.49 1649.93,826.325 1635.49,826.447 1628.68,825.023 1611.77,834.047 1599.11,840.825 1566.82,840.358 1551.55,843.44 1542.27,850.929 1535.57,862.115 1550.84,859.021 1569.51,856.639 1600.04,850.451 1609.18,830.364 1623.5,817.657 1627.6,802.813 1618.08,785.133 1601.78,766.041 1593.21,757.974 1581.95,733.688 1562.37,726.457 1540.45,740.687 1519.24,739.385 1488.64,732.989 1490.19,714.511 1484.95,694.633 1487.32,673.22 1491.43,658.438 1509.02,633.98 1513.95,616.263 1517.13,591.953 1498.44,581.812 1475.52,573.917 1468.74,572.505 1480.46,556.237 1504.91,545.739 1543.83,547.618 1580.88,530.417 1599.35,515.573 1616.86,491.214 1629.34,472.048 1649.53,463.81 1677.45,466.511 1701.16,471.434 1720.83,491.066 1749.7,503.295 1766.82,519.305 1775.52,539.797 1763.87,556.053 1744.62,573.856 1715.99,586.6 1682.2,592.039 1661.02,590.75 1622.75,573.414 1601.47,559.626 1592.81,539.122 1591.76,517.108 1610.21,502.276 1623.63,492.626 1649.66,476.272 1673.24,468.745 1695.88,451.691 1716.86,440.531 1734.6,441.108 1760.59,424.778 1760.45,412.341 1772.87,393.212 1784.64,389.455 1804.65,368.816 1793.53,357.213 1768.07,345.734 1784.03,339.767 1814.31,333.665 1840.57,342.198 1861.68,343.487 1888.75,349.098 1911.82,369.368 1911.2,384.728 1907.98,396.453 1882.85,409.836 1868.83,434.846 1854,462.815 1845.13,495.155 1848.7,508.341 1808.16,512.344 1788.94,530.134 1755.17,535.561 1724.93,554.174 1710.83,579.295 1692.38,594.163 1665.23,588.503 1643.11,577.662 1613.39,568.343 1602.28,556.679 1571.65,537.833 1569.08,534.186 1576.44,507.69 1603.43,500.864 1640.57,496.149 1664.29,501.085 1701.58,508.845 1726.27,523.32 1731.57,543.1 1747.06,565.016 1760.63,567.84 1791.18,574.199 1813.32,585.053 1820.11,586.465 1851.32,577.379 1874.92,569.829 1891.71,560.866 1912.08,565.102 1932.64,581.836 1927.82,599.541 1928.98,621.616 1911.72,658.61 1891.68,679.42 1869.02,696.585 1845.72,729.268 1847.66,748.459 1807.96,762.099 1785.1,766.728 1755.58,782.505 1730.27,796.035 1714.34,814.685 1697.6,836.307 1668.99,861.746 1646.09,866.387 1619.66,857.707 1595.82,852.71 1560.93,848.56 1534.53,839.879 1515.64,817.079 1502.76,798.675 1466.89,772.339 1456.6,757.643 1429.33,739.398 1408.11,738.096 1374.23,743.548 1360.64,740.699 1330.9,731.356 1328.2,702.576 1311.22,699.028 1284.97,702.945 1268.06,711.944 1241.02,731.368 1240.19,734.327 1202.9,739.066 1183.4,744.407 1157.09,735.751 1137.54,715.984 1115.46,705.093 1077.32,700.256 1047.65,690.913 1030.71,687.364 1008.67,676.486 986.622,653.097 989.167,644.232 999.303,621.322 1016.21,599.836 1026.33,576.962 1032.2,543.849 1038.09,523.246 1022.01,504.302 1005.1,500.778 994.114,489.139 998.322,474.442 1030.42,474.896 1068.44,479.709 1108.97,475.707 1135.14,471.815 1162.11,452.538 1187.34,426.706 1210.06,409.677 1240.41,403.574 1282.62,406.141 1311.38,418.332 1342.7,434.171 1371.49,446.375 1396.91,457.879 1418.12,471.63 1458.73,480.078 1479.96,493.841 1508.9,518.544 1540.43,546.918 1562.53,557.747 1584.63,568.589 1603.34,578.73 1612.58,571.29 1637.01,560.792 1666.46,545.113 1686.66,536.863 1718.67,524.843 1750.81,525.309 1787.32,536.015 1812.19,563.002 1814.94,579.147 1812.02,615.969 1792.12,649.291 1793.24,671.391 1783.51,706.898 1784.79,741.595 1802.12,770.289 1834.71,795.913 1872,791.161 1885.64,794.009 1923.11,801.83 1942.13,824.63 1970.59,852.562 1990.64,885.037 2000.46,915.4 2003.28,931.718 2017.54,918.973 2059.32,924.572 2083.23,929.569 2093.69,944.351 2096.31,948.047 2098.13,954.726 2103.57,974.764 2106.19,978.472 2123.29,982.044 2141.18,982.646 2172.54,973.45 2197.5,988.134 2205.38,999.246 2220.33,1024.45 2217.93,1033.41 2221.92,1018.47 2227.5,997.564 2224.38,968.563 2212.87,944.106 2197.13,921.944 2188.25,901.219 2189.61,882.643 2156.83,856.946 2154.57,825.085 2160.14,804.298 2176.97,795.274 2198.23,796.588 2224.72,805.244 2239.41,817.718 2251.71,839.106 2281.11,864.079 2290.8,881.808 2279.47,910.858 2259.46,931.828 2243.63,950.552 2211.5,962.719 2195.67,981.455 2166.95,994.347 2138.43,1019.91 2122.57,1038.67 2112.73,1061.87 2091.82,1085.93 2075.11,1107.72 2048.94,1124.38 2024.36,1135.05 1990.5,1153.27 1967.71,1170.67 1940.48,1177.63 1909.19,1199.6 1898.27,1213.17 1861.74,1227.71 1847.38,1240.58 1827.14,1261.75 1807.86,1292.67 1803.78,1307.73 1798.05,1328.82 1790.69,1355.95 1817.5,1377.56 1821.92,1388.07 1814.55,1415.24 1807.18,1442.45 1789.18,1441.84 1764.29,1439.79 1740.9,1418.87 1730.31,1391.07 1717.24,1372.36 1691.28,1347.74 1648.21,1319.51 1626.8,1318.19 1590.86,1316.98 1552.43,1324.8 1509.74,1334.93 1491.77,1334.32 1451.47,1322.63 1429.15,1311.53 1407.6,1284.68 1406.5,1249.43 1400.23,1206.77 1380.46,1186.72 1360.7,1166.67 1366.47,1132.98 1362.9,1106.86 1355.08,1083.04 1342.1,1051.82 1323.24,1028.87 1319.68,1002.83 1326.29,966.317 1335.46,933.535 1354,905.91 1369.97,874.613 1382.51,842.63 1409.54,823.145 1402.58,796.551 1387.98,771.516 1355.58,745.917 1326.75,746.163 1308.86,733.013 1298.54,705.781 1294.12,670.409 1308.4,645.239 1320.98,625.987 1341.25,617.712 1377.57,603.421 1414.78,598.694 1455.38,594.679 1490.93,595.858 1514.56,588.294 1540.55,559.405 1556.46,540.902 1585.09,528.182 1604.49,522.878 1608.57,508.157 1594.9,492.871 1571.07,475.473 1545.62,463.957 1514.94,432.71 1496.18,410.18 1485.02,386.14 1468.84,367.269 1466.18,351.222 1472.74,327.796 1489.53,318.907 1508.16,328.962 1542.77,333.051 1584.95,335.604 1614.56,344.85 1655.94,350.338 1683.81,353.027 1715.2,368.841 1735.5,373.052 1762.42,366.25 1786.76,355.814 1820.44,350.411 1852.5,350.866 1882.78,344.764 1903.26,361.4 1913.6,375.925 1918.59,370.768 1930.97,351.664 1950.11,333.971 1966.85,325.07 1992.74,308.79 2008.66,302.81 1997.72,303.633 1969.67,288.556 1963.51,271.846 1951.22,238.438 1958.41,212.163 1968.35,201.899 2000.16,189.989 2034.74,194.053 2055.01,198.252 2092.98,203.016 2128.58,216.534 2147.5,238.941 2150.54,267.34 2143.42,293.639 2135.08,298.096 2137.1,317.053 2140.92,342.578 2134.79,378.442 2102.92,390.413 2085.02,430.095 2059.1,446.424 2037.55,472.993 2031.37,509.004 2009.4,510.649 1968.87,514.664 1932.72,528.919 1904.13,541.651 1889.3,569.706 1877.04,601.444 1878.02,610.996 1904.39,619.615 1935.96,635.552 1975.16,649.966 2007.77,675.504 2029.99,686.382 2071.63,691.932 2103.86,692.398 2144.5,688.371 2168.33,693.344 2193.76,692.386 2204.54,679.015 2221.1,657.492 2237.63,635.969 2233.77,610.223 2230.91,594.053 2220.23,566.919 2190.21,545.113 2172.99,529.103 2148.2,514.615 2100.87,517.218 2084.89,523.234 2058.14,542.56 2042.37,561.062 2013.19,589.252 2012.79,617.233 2018.37,649.598 2021.37,678.34 2039.6,704.013 2051.02,728.286 2066.06,765.869 2080.12,793.862 2110,803.242 2140.92,822.236 2168.67,853.139 2185.16,872.293 2201.11,907.051 2206.58,927.064 2204.2,936.003 2170.25,941.491 2129.69,958.189 2109.17,953.891 2096.52,960.693 2073.6,965.347 2049.69,960.337 2014.52,943.517 1987.2,937.795 1949.82,942.571 1902.37,957.833 1870.2,970 1834.41,968.809 1788.57,978.115 1756.21,977.637 1716.21,978.717 1688.9,972.996 1651.49,977.759 1620.79,971.326 1586.67,964.168 1546.35,927.334 1526.72,920.066 1485.83,911.496 1454.25,895.424 1426.09,880.077 1392.8,857.363 1372.37,853.09 1343.57,865.933 1317.32,882.459 1287.65,898.297 1246.1,917.942 1212.11,923.418 1188.28,918.421 1155.9,892.711 1140.53,870.586 1120.91,838.136 1095.38,813.912 1085.98,783.647 1082.53,757.802 1085.03,736.353 1069.7,701.791 1048.49,687.954 1019.68,675.663 1001.02,652.974 992.536,619.91 990.816,600.793 978.121,570.013 989.096,544.205 1011.88,514.652 1018.64,503.59 1031.29,496.886 1043.1,480.655 1048.14,463.024 1055.7,436.602 1062.41,413.127 1067.41,383.095 1080.83,348.656 1078.27,332.609 1055.49,312.375 1037.77,299.397 1009.13,299.643 981.334,309.354 954.379,303.756 919.848,287.279 881.123,273.037 867.66,270.237 844.089,265.338 828.124,246.541 827.328,224.723 843.335,206.405 866.906,186.576 889.624,169.682 939.225,158.362 960.237,147.299 993.844,141.922 1022.43,154.028 1049.34,159.602 1086.32,154.924 1119.93,149.558 1136.68,128.367 1152.58,110.098 1165.95,88.243 "/>
<polyline clip-path="url(#clip112)" style="stroke:#3da44d; stroke-linecap:round; stroke-linejoin:round; stroke-width:4; stroke-opacity:1; fill:none" points="252.75,711.381 265.75,715.911 278.918,717.44 294.485,719.208 311.337,719.486 328.903,721.939 348.859,725.74 371.197,728.22 396.212,728.875 421.723,730.705 448.651,733.142 475.454,733.935 503.444,737.318 530.132,740.491 556.738,743.08 582.549,748.249 609.028,751.255 635.691,756.927 661.806,761.559 686.055,767.806 709.829,775.582 734.709,781.36 757.894,788.528 782.677,795.155 810.241,798.886 836.961,805.075 862.828,809.848 889.796,815.664 916.498,823.455 943.358,829.237 967.619,838.108 991.255,846.762 1013.53,855.568 1033.58,863.901 1053.14,870.44 1071.94,875.46 1090.93,881.939 1111.68,885.453 1133.81,888.272 1158.17,893.536 1182.75,900.819 1206.84,907.754 1233.06,913.435 1259.45,918.166 1289.23,919.939 1317.73,921.864 1345.61,925.379 1373.37,929.418 1398.45,933.602 1424.53,935.687 1451.83,935.929 1477.26,935.11 1504.31,935.55 1531.09,933.064 1557.51,927.527 1584.36,925.083 1610.3,924.236 1633.23,922.563 1655.06,917.979 1675.72,914.513 1696.64,910.069 1716.9,907.086 1737.4,907.958 1757.09,907.749 1778.57,910.029 1798.92,915.25 1818.59,923.437 1836.55,932.08 1853.62,942.298 1869.09,956.266 1882.67,971.46 1896.55,984.364 1907.98,998.935 1918.67,1014.21 1929.97,1028.85 1942.43,1040.83 1956.11,1051.07 1970.44,1056.21 1986.46,1057.03 2002.07,1053.18 2019.44,1048.29 2034.94,1040.25 2046.57,1027.34 2051.62,1011.27 2056.61,994.227 2055.11,977.72 2046.78,961.571 2035.65,948.212 2021.04,941.316 2003.54,938.224 1982.64,932.457 1962.11,931.599 1940.45,930.435 1918.03,929.654 1897.6,929.178 1877.73,931.612 1856.63,934.02 1835.73,936.511 1811.87,936.084 1787.54,935.483 1765.58,929.559 1742.14,922.283 1717.69,909.879 1694.05,896.932 1673.38,881.6 1655.57,865.917 1637.79,851.9 1623.02,837.706 1608.84,823.568 1598.25,807.87 1591.89,792.979 1586.86,778.389 1587.88,762.547 1593.31,749.699 1606.39,739.72 1624,735.642 1643.94,734.38 1665.26,737.903 1685.31,743.91 1703.49,750.819 1721.78,757.896 1741.76,765.54 1760.73,773.344 1778.48,781.097 1795.39,789.227 1813.37,795.688 1832.16,801.193 1853.4,804.13 1873.58,805.087 1893.1,804.635 1911.48,807.186 1930.48,811.855 1948.69,818.595 1964.72,829.243 1979.01,841.91 1989.27,858.238 1996.74,875.962 2003.32,895.363 2009.01,913.945 2014.54,930.097 2017.1,944.922 2022.57,958.774 2027.97,973.813 2037.35,985.319 2049.44,995.275 2060.91,1000.83 2074.48,1004.38 2088.46,1000.97 2101.82,994.679 2112.75,987.448 2122.1,979.356 2128.99,966.22 2126.34,952.245 2117.49,940.134 2105.52,925.427 2087.58,913.506 2069.76,902.939 2050.88,892.939 2028.58,887.378 2009.29,883.076 1988.31,879.203 1968.21,875.95 1948.18,870.693 1929.01,864.419 1910.48,858.787 1891.49,856.037 1872.14,855.038 1853.25,850.023 1832.35,848.887 1810.07,846.547 1789.1,844.449 1769.76,841.443 1749.64,837.271 1728.35,837.055 1709.81,835.639 1691.78,836.183 1675.88,833.817 1664.5,833.002 1655.37,831.432 1644.76,829.506 1633.18,828.559 1620.66,830.041 1605.39,834.373 1589.25,838.783 1569.32,843.123 1551.96,846.588 1538.6,857.365 1546.56,865.84 1552.49,860.094 1571.5,854.043 1593.08,847.757 1611.97,835.192 1624.07,818.295 1626.51,798.667 1618.55,782.806 1609.51,764.266 1596.26,750.21 1583.34,731.522 1559.2,733.527 1539.75,745.264 1515.77,744.201 1491.42,735.951 1485.02,716.491 1482.55,695.892 1492.26,676.875 1505.26,658.42 1511.33,636.552 1521.89,616.934 1519.36,596.718 1497.57,589.411 1472.15,584.353 1465.15,567.382 1486.28,555.587 1512.89,549.774 1544.49,552.04 1574.3,536.033 1597.82,516.113 1612.31,492.245 1631.11,471.39 1655.62,459.917 1680.34,469.176 1701.56,479.471 1726.56,487.326 1750.31,498.091 1769.08,515.078 1775.89,536.038 1761.94,556.611 1743.5,577.522 1718.84,591.918 1689.09,592.832 1657.21,587.666 1628.7,577.098 1601.87,565.402 1589.08,544.261 1592.37,520.681 1607.16,501.013 1626.92,490.722 1649.96,480.374 1671.15,468.277 1689.93,454.899 1711.47,447.173 1733.42,441.923 1752.27,431.055 1757.53,413.964 1772.01,400.525 1791.07,390.129 1798.75,370.89 1778.89,360.886 1761.97,352.177 1771.63,341.231 1790.8,336.328 1813.47,334.758 1839.79,334.752 1863.55,337.916 1888.92,346.905 1907.57,363.62 1917.52,384.493 1905.33,405.691 1882.56,417.366 1871.14,437.06 1861.86,460.51 1857.24,487.582 1842.1,509.058 1811.99,513.019 1789.41,530.739 1759.69,538.708 1736.75,558.081 1720.68,581.461 1691.14,594.293 1661.43,594.676 1647.12,576.778 1622.47,566.769 1598.66,558.516 1572.17,548.605 1566.09,524.508 1576.65,502.179 1606.14,503.257 1636.37,497.568 1667.28,500.257 1697.3,504.058 1724.48,514.191 1734.6,535.688 1739.22,558.118 1760.38,570.81 1784.58,585.839 1810.06,585.293 1827.99,587.856 1847.03,575.125 1871.59,566.67 1895.33,554.992 1912.61,570.05 1929.76,585.113 1929.53,607.006 1930.92,629.576 1916.15,655.916 1893.4,674.217 1873.92,700.949 1852.99,724.818 1840.16,751.292 1814.5,765.251 1783.2,767.668 1753.12,778.051 1724.42,790.828 1706.78,815.469 1701.09,843.278 1675.71,862.345 1644.29,867.13 1618.21,863.868 1590.39,859.571 1561.98,849.908 1533.37,837.995 1509.25,819.781 1497.34,795.261 1475.44,775.148 1457.67,754.62 1432.03,745.958 1406.12,744.684 1382.87,748.605 1364.23,738.758 1343.98,725.951 1333.55,705.077 1309.76,694.882 1286.45,705.938 1269.54,717.008 1249.33,727.984 1229.54,737.964 1206.22,740.678 1180.45,741.135 1157.66,731.507 1139.53,716.185 1114.08,706.316 1084.8,702.014 1056.93,696.086 1030.29,692.703 1005.77,678.849 987.576,661.276 990.606,640.374 998.9,619.759 1012.58,600.507 1025.41,579.498 1036.57,556.676 1043.75,531.841 1023.06,512.335 997.074,509.85 982.892,488.299 1005.09,473.765 1037.65,473.483 1069.28,479.289 1103.66,477.301 1135.77,469.597 1160.74,451.096 1181.53,424.189 1209.8,403.942 1244.76,403.354 1278.95,407.011 1307.51,421.676 1338.39,428.84 1365.07,444.6 1393.7,460.298 1422.09,475.561 1456.6,482.53 1483.38,498.895 1508.38,518.904 1538.23,534.156 1563.29,552.017 1576.55,572.576 1602.33,579.368 1621.4,569.372 1643.35,561.122 1668.07,548.936 1690.58,535.8 1720.83,523.332 1757.8,524.64 1785.1,540.609 1815.93,558.78 1824.35,588.03 1811.57,617.803 1792.07,645.109 1787.89,677.172 1783.07,709.018 1782.03,740.939 1804.58,767.197 1829.47,791.606 1863.22,790.964 1897.25,784.681 1925.89,801.189 1943.76,828.098 1971.47,850.724 1979.52,882.519 1989.22,911.704 1998.23,935.627 2020.31,917.483 2048.39,920.002 2073.38,926.164 2087.93,938.991 2098.19,940.17 2093.46,953.233 2095.64,966.974 2108.48,981.379 2124.28,986.749 2145.31,982.65 2169.67,978.448 2193.47,981.39 2202.31,999.554 2213.11,1017.79 2221.42,1031.84 2223.06,1015.08 2226.43,994.595 2222.04,971.374 2211.06,947.049 2199.35,923.327 2185.78,898.867 2183.36,873.592 2159.17,856.365 2150.85,832.611 2160.6,807.521 2178.33,789.916 2203.89,795.654 2225.34,806.296 2246.22,818.254 2260.11,841.239 2283.43,860.162 2291.2,886.791 2282.33,912.638 2262.49,933.56 2239.66,951.423 2213.87,963.68 2191.48,980.516 2165.06,997.206 2144.21,1016.96 2123.33,1035.9 2108.66,1060.35 2090.07,1083.78 2073.57,1107.06 2051.41,1128.43 2021.02,1137.56 1994.77,1154.41 1967.94,1169.02 1937.34,1178.03 1913.22,1195.01 1894.81,1216.03 1868.87,1224.91 1848.46,1243.2 1831.66,1263.06 1813.16,1284.63 1803.43,1308.69 1795.89,1330.86 1794.37,1354.33 1815.28,1371.55 1822.42,1393.41 1821.88,1416.75 1812.07,1438.07 1785.64,1445.72 1763.59,1434.41 1749.56,1414.03 1735,1390.47 1711.55,1369.61 1690.22,1344.46 1657.98,1326.24 1624.56,1316.78 1588.8,1317.1 1551.87,1322.33 1519.11,1331.71 1484.76,1338.57 1453.68,1330.09 1428.92,1307.74 1409.02,1280.83 1405.95,1246.62 1404.63,1213.28 1379.24,1187.93 1357.58,1163.55 1363.46,1134.72 1356.96,1106.88 1355.99,1078.58 1337.19,1053.95 1321.63,1028.14 1316.28,996.261 1322.19,963.929 1332.55,932.038 1352.61,904.006 1372.54,878.174 1388.18,849.717 1410.67,824.756 1405.46,794.593 1387.54,769.163 1360.32,751.947 1327.09,752.369 1304.94,732.827 1293.21,705.949 1287.92,676.664 1299.73,647.958 1316.83,621.723 1348.26,613.021 1381.67,605.145 1418.68,605.724 1451.49,594.879 1485.56,596.152 1514.59,584.439 1539.95,565.297 1555.14,541.705 1583.74,530.955 1609.29,518.708 1610.93,493.456 1589.71,482.103 1565.03,471.477 1539.91,455.893 1519.77,434.743 1503.58,411.87 1482.12,393.209 1466.44,372.693 1457.98,348.5 1468.38,325.38 1495.11,318.471 1519.67,327.672 1549.43,330.417 1581.58,334.419 1613.25,339.833 1646.19,348.006 1677.96,353.983 1707.27,365.588 1736.61,376.866 1764.81,364.227 1793.22,357.897 1816.01,343.545 1845.77,342.443 1877.54,342.096 1896.57,356.817 1911.5,377.938 1913.51,359.299 1928.09,346.103 1947.07,332.513 1970.94,330.998 1994.05,321.5 2009.77,305.196 1990.07,298.041 1973.68,284.149 1960.02,264.79 1952.16,238.531 1955.48,213.202 1976.08,193.85 2005.62,188.346 2034.96,195.686 2064.08,197.082 2096.8,202.119 2121.86,217.192 2144.5,236.132 2148.3,262.558 2140.55,287.035 2124.5,301.653 2132.19,322.861 2130.49,348.273 2124.59,374.635 2103.41,398.257 2085.7,426.822 2056.82,446.896 2035.57,472.701 2036.08,506.089 2001.81,513.638 1967.21,516.401 1933.63,523.207 1899.8,536.809 1887.43,566.95 1873.62,592.417 1881.51,618.093 1912.51,619.313 1945.57,631.526 1975.26,648.696 2000.25,673.036 2029.88,693.32 2066.38,695.173 2101.69,687.313 2137.84,684.912 2163.35,699.908 2192.75,695.34 2209.36,679.569 2225.9,659.893 2237.48,637.135 2239.22,611.692 2230.47,586.106 2214.06,564.201 2192.39,545.551 2171.13,524.169 2143.09,510.181 2109.02,515.677 2084.71,529.355 2062.35,543.969 2039.25,564.922 2016.23,587.454 2010.97,617.7 2017.26,646.676 2022.18,677.364 2038.91,703.694 2053.06,732.133 2059.13,764.188 2079.04,791.982 2114.24,802.511 2141.96,825.19 2164.99,849.688 2181.5,873.873 2200.7,899.663 2215.15,926.165 2196.12,941.966 2169.55,938.365 2147.05,951.247 2122.7,956.727 2098.29,959.215 2071.41,961.206 2045.36,956.788 2015.69,945.398 1981.29,940.278 1946.47,943.301 1908.38,958.199 1870.89,968.257 1833.92,972.297 1794.99,978.588 1756.91,981.035 1720.62,975.249 1687.77,981.867 1652.97,975.944 1617.63,966.7 1582.85,955.895 1555.6,934.767 1523.68,918.282 1486.77,911.523 1456.41,895.426 1429.28,877.812 1402.16,859.511 1369.94,853.46 1340.43,868.987 1311.84,883.137 1284.73,901.744 1253.81,918.161 1216.95,920.463 1185.48,914.323 1157.96,894.328 1138.05,867.355 1121.08,840.9 1096.86,816.805 1087.4,788.771 1087.34,759.624 1085.97,731.061 1069.43,705.298 1044.04,689.141 1018.26,673.19 1004.63,651.493 995.052,626.909 984.819,603.297 988.329,575.69 994.13,550.585 996.17,523.053 1014.07,506.922 1038.61,497.336 1050.61,477.457 1049.35,455.123 1055.39,433.964 1060.88,408.357 1067.17,382.524 1074.42,356.635 1075.83,331.206 1059.31,312.897 1036.97,300.507 1008.13,301.928 980.417,306.813 950.797,302.977 923.83,286.257 894.569,276.24 867.262,275.096 838.366,269.159 820.042,246.342 827.908,221.373 849.757,201.423 873.97,188.249 895.802,168.214 926.865,157.209 958.395,145.739 991.603,142.615 1024.06,151.282 1052.83,161.218 1085.08,156.753 1114.39,148.857 1136.87,130.881 1158.07,113.462 1168.26,87.9763 "/>
<path clip-path="url(#clip110)" d="M250.367 1438.47 L793.155 1438.47 L793.155 1231.11 L250.367 1231.11  Z" fill="#ffffff" fill-rule="evenodd" fill-opacity="1"/>
<polyline clip-path="url(#clip110)" style="stroke:#000000; stroke-linecap:round; stroke-linejoin:round; stroke-width:4; stroke-opacity:1; fill:none" points="250.367,1438.47 793.155,1438.47 793.155,1231.11 250.367,1231.11 250.367,1438.47 "/>
<polyline clip-path="url(#clip110)" style="stroke:#0000ff; stroke-linecap:round; stroke-linejoin:round; stroke-width:4; stroke-opacity:1; fill:none" points="274.533,1282.95 419.525,1282.95 "/>
<path clip-path="url(#clip110)" d="M467.718 1286.21 L467.718 1288.29 L448.135 1288.29 Q448.413 1292.69 450.774 1295 Q453.158 1297.29 457.394 1297.29 Q459.848 1297.29 462.139 1296.69 Q464.454 1296.09 466.723 1294.89 L466.723 1298.91 Q464.431 1299.89 462.024 1300.4 Q459.616 1300.91 457.14 1300.91 Q450.936 1300.91 447.302 1297.29 Q443.691 1293.68 443.691 1287.53 Q443.691 1281.16 447.116 1277.43 Q450.565 1273.68 456.399 1273.68 Q461.63 1273.68 464.663 1277.06 Q467.718 1280.42 467.718 1286.21 M463.459 1284.96 Q463.413 1281.46 461.491 1279.38 Q459.593 1277.29 456.445 1277.29 Q452.88 1277.29 450.728 1279.31 Q448.598 1281.32 448.274 1284.98 L463.459 1284.96 Z" fill="#000000" fill-rule="nonzero" fill-opacity="1" /><path clip-path="url(#clip110)" d="M491.237 1275.07 L491.237 1279.1 Q489.431 1278.17 487.487 1277.71 Q485.542 1277.25 483.459 1277.25 Q480.288 1277.25 478.69 1278.22 Q477.116 1279.19 477.116 1281.14 Q477.116 1282.62 478.251 1283.48 Q479.385 1284.31 482.811 1285.07 L484.269 1285.4 Q488.806 1286.37 490.704 1288.15 Q492.625 1289.91 492.625 1293.08 Q492.625 1296.69 489.755 1298.8 Q486.908 1300.91 481.908 1300.91 Q479.825 1300.91 477.556 1300.49 Q475.311 1300.1 472.811 1299.29 L472.811 1294.89 Q475.172 1296.11 477.463 1296.74 Q479.755 1297.34 482 1297.34 Q485.01 1297.34 486.63 1296.32 Q488.25 1295.28 488.25 1293.41 Q488.25 1291.67 487.07 1290.74 Q485.912 1289.82 481.954 1288.96 L480.473 1288.61 Q476.514 1287.78 474.755 1286.07 Q472.996 1284.33 472.996 1281.32 Q472.996 1277.67 475.588 1275.67 Q478.181 1273.68 482.95 1273.68 Q485.311 1273.68 487.394 1274.03 Q489.477 1274.38 491.237 1275.07 Z" fill="#000000" fill-rule="nonzero" fill-opacity="1" /><path clip-path="url(#clip110)" d="M503.621 1266.95 L503.621 1274.31 L512.394 1274.31 L512.394 1277.62 L503.621 1277.62 L503.621 1291.69 Q503.621 1294.86 504.477 1295.77 Q505.357 1296.67 508.019 1296.67 L512.394 1296.67 L512.394 1300.23 L508.019 1300.23 Q503.088 1300.23 501.213 1298.41 Q499.338 1296.55 499.338 1291.69 L499.338 1277.62 L496.213 1277.62 L496.213 1274.31 L499.338 1274.31 L499.338 1266.95 L503.621 1266.95 Z" fill="#000000" fill-rule="nonzero" fill-opacity="1" /><path clip-path="url(#clip110)" d="M517.996 1274.31 L522.255 1274.31 L522.255 1300.23 L517.996 1300.23 L517.996 1274.31 M517.996 1264.22 L522.255 1264.22 L522.255 1269.61 L517.996 1269.61 L517.996 1264.22 Z" fill="#000000" fill-rule="nonzero" fill-opacity="1" /><path clip-path="url(#clip110)" d="M551.352 1279.29 Q552.949 1276.42 555.171 1275.05 Q557.394 1273.68 560.403 1273.68 Q564.454 1273.68 566.653 1276.53 Q568.852 1279.35 568.852 1284.59 L568.852 1300.23 L564.569 1300.23 L564.569 1284.73 Q564.569 1281 563.25 1279.19 Q561.931 1277.39 559.222 1277.39 Q555.912 1277.39 553.991 1279.59 Q552.07 1281.79 552.07 1285.58 L552.07 1300.23 L547.787 1300.23 L547.787 1284.73 Q547.787 1280.98 546.468 1279.19 Q545.148 1277.39 542.394 1277.39 Q539.13 1277.39 537.209 1279.61 Q535.287 1281.81 535.287 1285.58 L535.287 1300.23 L531.005 1300.23 L531.005 1274.31 L535.287 1274.31 L535.287 1278.34 Q536.746 1275.95 538.783 1274.82 Q540.82 1273.68 543.621 1273.68 Q546.445 1273.68 548.412 1275.12 Q550.403 1276.55 551.352 1279.29 Z" fill="#000000" fill-rule="nonzero" fill-opacity="1" /><path clip-path="url(#clip110)" d="M589.13 1287.2 Q583.968 1287.2 581.977 1288.38 Q579.986 1289.56 579.986 1292.41 Q579.986 1294.68 581.468 1296.02 Q582.972 1297.34 585.542 1297.34 Q589.083 1297.34 591.213 1294.84 Q593.366 1292.32 593.366 1288.15 L593.366 1287.2 L589.13 1287.2 M597.625 1285.44 L597.625 1300.23 L593.366 1300.23 L593.366 1296.3 Q591.907 1298.66 589.731 1299.79 Q587.555 1300.91 584.407 1300.91 Q580.426 1300.91 578.065 1298.68 Q575.727 1296.44 575.727 1292.69 Q575.727 1288.31 578.643 1286.09 Q581.583 1283.87 587.393 1283.87 L593.366 1283.87 L593.366 1283.45 Q593.366 1280.51 591.421 1278.92 Q589.5 1277.29 586.005 1277.29 Q583.782 1277.29 581.676 1277.83 Q579.569 1278.36 577.625 1279.42 L577.625 1275.49 Q579.963 1274.59 582.162 1274.15 Q584.361 1273.68 586.444 1273.68 Q592.069 1273.68 594.847 1276.6 Q597.625 1279.52 597.625 1285.44 Z" fill="#000000" fill-rule="nonzero" fill-opacity="1" /><path clip-path="url(#clip110)" d="M610.611 1266.95 L610.611 1274.31 L619.384 1274.31 L619.384 1277.62 L610.611 1277.62 L610.611 1291.69 Q610.611 1294.86 611.467 1295.77 Q612.347 1296.67 615.009 1296.67 L619.384 1296.67 L619.384 1300.23 L615.009 1300.23 Q610.078 1300.23 608.204 1298.41 Q606.329 1296.55 606.329 1291.69 L606.329 1277.62 L603.204 1277.62 L603.204 1274.31 L606.329 1274.31 L606.329 1266.95 L610.611 1266.95 Z" fill="#000000" fill-rule="nonzero" fill-opacity="1" /><path clip-path="url(#clip110)" d="M647.162 1286.21 L647.162 1288.29 L627.578 1288.29 Q627.856 1292.69 630.217 1295 Q632.602 1297.29 636.838 1297.29 Q639.291 1297.29 641.583 1296.69 Q643.898 1296.09 646.166 1294.89 L646.166 1298.91 Q643.875 1299.89 641.467 1300.4 Q639.06 1300.91 636.583 1300.91 Q630.379 1300.91 626.745 1297.29 Q623.134 1293.68 623.134 1287.53 Q623.134 1281.16 626.56 1277.43 Q630.009 1273.68 635.842 1273.68 Q641.074 1273.68 644.106 1277.06 Q647.162 1280.42 647.162 1286.21 M642.902 1284.96 Q642.856 1281.46 640.935 1279.38 Q639.037 1277.29 635.889 1277.29 Q632.324 1277.29 630.171 1279.31 Q628.041 1281.32 627.717 1284.98 L642.902 1284.96 Z" fill="#000000" fill-rule="nonzero" fill-opacity="1" /><polyline clip-path="url(#clip110)" style="stroke:#ff0000; stroke-linecap:round; stroke-linejoin:round; stroke-width:4; stroke-opacity:1; fill:none" points="274.533,1334.79 419.525,1334.79 "/>
<path clip-path="url(#clip110)" d="M464.038 1331.13 Q465.635 1328.26 467.857 1326.89 Q470.079 1325.52 473.088 1325.52 Q477.139 1325.52 479.338 1328.37 Q481.538 1331.19 481.538 1336.43 L481.538 1352.07 L477.255 1352.07 L477.255 1336.57 Q477.255 1332.84 475.936 1331.03 Q474.616 1329.23 471.908 1329.23 Q468.598 1329.23 466.676 1331.43 Q464.755 1333.63 464.755 1337.42 L464.755 1352.07 L460.473 1352.07 L460.473 1336.57 Q460.473 1332.82 459.153 1331.03 Q457.834 1329.23 455.079 1329.23 Q451.815 1329.23 449.894 1331.45 Q447.973 1333.65 447.973 1337.42 L447.973 1352.07 L443.691 1352.07 L443.691 1326.15 L447.973 1326.15 L447.973 1330.18 Q449.431 1327.79 451.468 1326.66 Q453.505 1325.52 456.306 1325.52 Q459.13 1325.52 461.098 1326.96 Q463.089 1328.39 464.038 1331.13 Z" fill="#000000" fill-rule="nonzero" fill-opacity="1" /><path clip-path="url(#clip110)" d="M512.209 1338.05 L512.209 1340.13 L492.625 1340.13 Q492.903 1344.53 495.264 1346.84 Q497.649 1349.13 501.885 1349.13 Q504.338 1349.13 506.63 1348.53 Q508.945 1347.93 511.213 1346.73 L511.213 1350.75 Q508.922 1351.73 506.514 1352.24 Q504.107 1352.75 501.63 1352.75 Q495.426 1352.75 491.792 1349.13 Q488.181 1345.52 488.181 1339.37 Q488.181 1333 491.607 1329.27 Q495.056 1325.52 500.889 1325.52 Q506.121 1325.52 509.153 1328.9 Q512.209 1332.26 512.209 1338.05 M507.949 1336.8 Q507.903 1333.3 505.982 1331.22 Q504.084 1329.13 500.936 1329.13 Q497.371 1329.13 495.218 1331.15 Q493.088 1333.16 492.764 1336.82 L507.949 1336.8 Z" fill="#000000" fill-rule="nonzero" fill-opacity="1" /><path clip-path="url(#clip110)" d="M530.982 1339.04 Q525.82 1339.04 523.829 1340.22 Q521.838 1341.4 521.838 1344.25 Q521.838 1346.52 523.32 1347.86 Q524.824 1349.18 527.394 1349.18 Q530.935 1349.18 533.065 1346.68 Q535.218 1344.16 535.218 1339.99 L535.218 1339.04 L530.982 1339.04 M539.477 1337.28 L539.477 1352.07 L535.218 1352.07 L535.218 1348.14 Q533.759 1350.5 531.584 1351.63 Q529.408 1352.75 526.26 1352.75 Q522.278 1352.75 519.917 1350.52 Q517.579 1348.28 517.579 1344.53 Q517.579 1340.15 520.496 1337.93 Q523.435 1335.71 529.246 1335.71 L535.218 1335.71 L535.218 1335.29 Q535.218 1332.35 533.273 1330.76 Q531.352 1329.13 527.857 1329.13 Q525.635 1329.13 523.528 1329.67 Q521.422 1330.2 519.477 1331.26 L519.477 1327.33 Q521.815 1326.43 524.014 1325.99 Q526.213 1325.52 528.297 1325.52 Q533.922 1325.52 536.699 1328.44 Q539.477 1331.36 539.477 1337.28 Z" fill="#000000" fill-rule="nonzero" fill-opacity="1" /><path clip-path="url(#clip110)" d="M564.778 1326.91 L564.778 1330.94 Q562.972 1330.01 561.028 1329.55 Q559.083 1329.09 557 1329.09 Q553.829 1329.09 552.232 1330.06 Q550.658 1331.03 550.658 1332.98 Q550.658 1334.46 551.792 1335.32 Q552.926 1336.15 556.352 1336.91 L557.81 1337.24 Q562.347 1338.21 564.245 1339.99 Q566.167 1341.75 566.167 1344.92 Q566.167 1348.53 563.296 1350.64 Q560.449 1352.75 555.449 1352.75 Q553.366 1352.75 551.097 1352.33 Q548.852 1351.94 546.352 1351.13 L546.352 1346.73 Q548.713 1347.95 551.005 1348.58 Q553.296 1349.18 555.542 1349.18 Q558.551 1349.18 560.171 1348.16 Q561.792 1347.12 561.792 1345.25 Q561.792 1343.51 560.611 1342.58 Q559.454 1341.66 555.495 1340.8 L554.014 1340.45 Q550.056 1339.62 548.296 1337.91 Q546.537 1336.17 546.537 1333.16 Q546.537 1329.51 549.13 1327.51 Q551.722 1325.52 556.491 1325.52 Q558.852 1325.52 560.935 1325.87 Q563.019 1326.22 564.778 1326.91 Z" fill="#000000" fill-rule="nonzero" fill-opacity="1" /><path clip-path="url(#clip110)" d="M572.509 1341.84 L572.509 1326.15 L576.768 1326.15 L576.768 1341.68 Q576.768 1345.36 578.204 1347.21 Q579.639 1349.04 582.509 1349.04 Q585.958 1349.04 587.949 1346.84 Q589.963 1344.64 589.963 1340.85 L589.963 1326.15 L594.222 1326.15 L594.222 1352.07 L589.963 1352.07 L589.963 1348.09 Q588.412 1350.45 586.352 1351.61 Q584.315 1352.75 581.606 1352.75 Q577.139 1352.75 574.824 1349.97 Q572.509 1347.19 572.509 1341.84 M583.227 1325.52 L583.227 1325.52 Z" fill="#000000" fill-rule="nonzero" fill-opacity="1" /><path clip-path="url(#clip110)" d="M618.018 1330.13 Q617.301 1329.71 616.444 1329.53 Q615.611 1329.32 614.592 1329.32 Q610.981 1329.32 609.037 1331.68 Q607.116 1334.02 607.116 1338.42 L607.116 1352.07 L602.833 1352.07 L602.833 1326.15 L607.116 1326.15 L607.116 1330.18 Q608.458 1327.82 610.611 1326.68 Q612.764 1325.52 615.842 1325.52 Q616.282 1325.52 616.815 1325.59 Q617.347 1325.64 617.995 1325.76 L618.018 1330.13 Z" fill="#000000" fill-rule="nonzero" fill-opacity="1" /><path clip-path="url(#clip110)" d="M643.62 1338.05 L643.62 1340.13 L624.037 1340.13 Q624.315 1344.53 626.676 1346.84 Q629.06 1349.13 633.296 1349.13 Q635.75 1349.13 638.041 1348.53 Q640.356 1347.93 642.625 1346.73 L642.625 1350.75 Q640.333 1351.73 637.926 1352.24 Q635.518 1352.75 633.041 1352.75 Q626.838 1352.75 623.203 1349.13 Q619.592 1345.52 619.592 1339.37 Q619.592 1333 623.018 1329.27 Q626.467 1325.52 632.301 1325.52 Q637.532 1325.52 640.564 1328.9 Q643.62 1332.26 643.62 1338.05 M639.361 1336.8 Q639.314 1333.3 637.393 1331.22 Q635.495 1329.13 632.347 1329.13 Q628.782 1329.13 626.629 1331.15 Q624.5 1333.16 624.176 1336.82 L639.361 1336.8 Z" fill="#000000" fill-rule="nonzero" fill-opacity="1" /><path clip-path="url(#clip110)" d="M670.796 1331.13 Q672.393 1328.26 674.615 1326.89 Q676.837 1325.52 679.847 1325.52 Q683.898 1325.52 686.097 1328.37 Q688.296 1331.19 688.296 1336.43 L688.296 1352.07 L684.013 1352.07 L684.013 1336.57 Q684.013 1332.84 682.694 1331.03 Q681.374 1329.23 678.666 1329.23 Q675.356 1329.23 673.435 1331.43 Q671.513 1333.63 671.513 1337.42 L671.513 1352.07 L667.231 1352.07 L667.231 1336.57 Q667.231 1332.82 665.912 1331.03 Q664.592 1329.23 661.837 1329.23 Q658.574 1329.23 656.652 1331.45 Q654.731 1333.65 654.731 1337.42 L654.731 1352.07 L650.449 1352.07 L650.449 1326.15 L654.731 1326.15 L654.731 1330.18 Q656.189 1327.79 658.226 1326.66 Q660.263 1325.52 663.064 1325.52 Q665.888 1325.52 667.856 1326.96 Q669.847 1328.39 670.796 1331.13 Z" fill="#000000" fill-rule="nonzero" fill-opacity="1" /><path clip-path="url(#clip110)" d="M718.967 1338.05 L718.967 1340.13 L699.384 1340.13 Q699.661 1344.53 702.022 1346.84 Q704.407 1349.13 708.643 1349.13 Q711.096 1349.13 713.388 1348.53 Q715.703 1347.93 717.971 1346.73 L717.971 1350.75 Q715.68 1351.73 713.272 1352.24 Q710.865 1352.75 708.388 1352.75 Q702.184 1352.75 698.55 1349.13 Q694.939 1345.52 694.939 1339.37 Q694.939 1333 698.365 1329.27 Q701.814 1325.52 707.647 1325.52 Q712.879 1325.52 715.911 1328.9 Q718.967 1332.26 718.967 1338.05 M714.708 1336.8 Q714.661 1333.3 712.74 1331.22 Q710.842 1329.13 707.694 1329.13 Q704.129 1329.13 701.976 1331.15 Q699.847 1333.16 699.522 1336.82 L714.708 1336.8 Z" fill="#000000" fill-rule="nonzero" fill-opacity="1" /><path clip-path="url(#clip110)" d="M747.508 1336.43 L747.508 1352.07 L743.249 1352.07 L743.249 1336.57 Q743.249 1332.88 741.814 1331.06 Q740.379 1329.23 737.508 1329.23 Q734.059 1329.23 732.069 1331.43 Q730.078 1333.63 730.078 1337.42 L730.078 1352.07 L725.795 1352.07 L725.795 1326.15 L730.078 1326.15 L730.078 1330.18 Q731.606 1327.84 733.666 1326.68 Q735.749 1325.52 738.457 1325.52 Q742.925 1325.52 745.217 1328.3 Q747.508 1331.06 747.508 1336.43 Z" fill="#000000" fill-rule="nonzero" fill-opacity="1" /><path clip-path="url(#clip110)" d="M760.217 1318.79 L760.217 1326.15 L768.99 1326.15 L768.99 1329.46 L760.217 1329.46 L760.217 1343.53 Q760.217 1346.7 761.073 1347.61 Q761.953 1348.51 764.615 1348.51 L768.99 1348.51 L768.99 1352.07 L764.615 1352.07 Q759.684 1352.07 757.809 1350.25 Q755.934 1348.39 755.934 1343.53 L755.934 1329.46 L752.809 1329.46 L752.809 1326.15 L755.934 1326.15 L755.934 1318.79 L760.217 1318.79 Z" fill="#000000" fill-rule="nonzero" fill-opacity="1" /><polyline clip-path="url(#clip110)" style="stroke:#3da44d; stroke-linecap:round; stroke-linejoin:round; stroke-width:4; stroke-opacity:1; fill:none" points="274.533,1386.63 419.525,1386.63 "/>
<path clip-path="url(#clip110)" d="M468.343 1377.99 L458.968 1390.6 L468.829 1403.91 L463.806 1403.91 L456.26 1393.73 L448.714 1403.91 L443.691 1403.91 L453.76 1390.35 L444.547 1377.99 L449.57 1377.99 L456.445 1387.22 L463.32 1377.99 L468.343 1377.99 Z" fill="#000000" fill-rule="nonzero" fill-opacity="1" /><path clip-path="url(#clip110)" d="M491.375 1378.75 L491.375 1382.78 Q489.57 1381.85 487.625 1381.39 Q485.681 1380.93 483.598 1380.93 Q480.426 1380.93 478.829 1381.9 Q477.255 1382.87 477.255 1384.82 Q477.255 1386.3 478.389 1387.16 Q479.524 1387.99 482.95 1388.75 L484.408 1389.08 Q488.945 1390.05 490.843 1391.83 Q492.764 1393.59 492.764 1396.76 Q492.764 1400.37 489.894 1402.48 Q487.047 1404.59 482.047 1404.59 Q479.963 1404.59 477.695 1404.17 Q475.45 1403.78 472.95 1402.97 L472.95 1398.57 Q475.311 1399.79 477.602 1400.42 Q479.894 1401.02 482.139 1401.02 Q485.149 1401.02 486.769 1400 Q488.389 1398.96 488.389 1397.09 Q488.389 1395.35 487.209 1394.42 Q486.051 1393.5 482.093 1392.64 L480.612 1392.29 Q476.653 1391.46 474.894 1389.75 Q473.135 1388.01 473.135 1385 Q473.135 1381.35 475.727 1379.35 Q478.32 1377.36 483.088 1377.36 Q485.45 1377.36 487.533 1377.71 Q489.616 1378.06 491.375 1378.75 Z" fill="#000000" fill-rule="nonzero" fill-opacity="1" /></svg>
