<?xml version="1.0" encoding="utf-8"?>
<svg xmlns="http://www.w3.org/2000/svg" xmlns:xlink="http://www.w3.org/1999/xlink" width="600" height="400" viewBox="0 0 2400 1600">
<defs>
  <clipPath id="clip580">
    <rect x="0" y="0" width="2400" height="1600"/>
  </clipPath>
</defs>
<path clip-path="url(#clip580)" d="M0 1600 L2400 1600 L2400 0 L0 0  Z" fill="#ffffff" fill-rule="evenodd" fill-opacity="1"/>
<defs>
  <clipPath id="clip581">
    <rect x="480" y="0" width="1681" height="1600"/>
  </clipPath>
</defs>
<path clip-path="url(#clip580)" d="M177.871 1486.45 L2352.76 1486.45 L2352.76 47.2441 L177.871 47.2441  Z" fill="#ffffff" fill-rule="evenodd" fill-opacity="1"/>
<defs>
  <clipPath id="clip582">
    <rect x="177" y="47" width="2176" height="1440"/>
  </clipPath>
</defs>
<polyline clip-path="url(#clip582)" style="stroke:#000000; stroke-linecap:round; stroke-linejoin:round; stroke-width:2; stroke-opacity:0.1; fill:none" points="386.512,1486.45 386.512,47.2441 "/>
<polyline clip-path="url(#clip582)" style="stroke:#000000; stroke-linecap:round; stroke-linejoin:round; stroke-width:2; stroke-opacity:0.1; fill:none" points="811.929,1486.45 811.929,47.2441 "/>
<polyline clip-path="url(#clip582)" style="stroke:#000000; stroke-linecap:round; stroke-linejoin:round; stroke-width:2; stroke-opacity:0.1; fill:none" points="1237.34,1486.45 1237.34,47.2441 "/>
<polyline clip-path="url(#clip582)" style="stroke:#000000; stroke-linecap:round; stroke-linejoin:round; stroke-width:2; stroke-opacity:0.1; fill:none" points="1662.76,1486.45 1662.76,47.2441 "/>
<polyline clip-path="url(#clip582)" style="stroke:#000000; stroke-linecap:round; stroke-linejoin:round; stroke-width:2; stroke-opacity:0.1; fill:none" points="2088.18,1486.45 2088.18,47.2441 "/>
<polyline clip-path="url(#clip582)" style="stroke:#000000; stroke-linecap:round; stroke-linejoin:round; stroke-width:2; stroke-opacity:0.1; fill:none" points="177.871,1483.13 2352.76,1483.13 "/>
<polyline clip-path="url(#clip582)" style="stroke:#000000; stroke-linecap:round; stroke-linejoin:round; stroke-width:2; stroke-opacity:0.1; fill:none" points="177.871,1176.93 2352.76,1176.93 "/>
<polyline clip-path="url(#clip582)" style="stroke:#000000; stroke-linecap:round; stroke-linejoin:round; stroke-width:2; stroke-opacity:0.1; fill:none" points="177.871,870.729 2352.76,870.729 "/>
<polyline clip-path="url(#clip582)" style="stroke:#000000; stroke-linecap:round; stroke-linejoin:round; stroke-width:2; stroke-opacity:0.1; fill:none" points="177.871,564.53 2352.76,564.53 "/>
<polyline clip-path="url(#clip582)" style="stroke:#000000; stroke-linecap:round; stroke-linejoin:round; stroke-width:2; stroke-opacity:0.1; fill:none" points="177.871,258.331 2352.76,258.331 "/>
<polyline clip-path="url(#clip580)" style="stroke:#000000; stroke-linecap:round; stroke-linejoin:round; stroke-width:4; stroke-opacity:1; fill:none" points="177.871,1486.45 2352.76,1486.45 "/>
<polyline clip-path="url(#clip580)" style="stroke:#000000; stroke-linecap:round; stroke-linejoin:round; stroke-width:4; stroke-opacity:1; fill:none" points="386.512,1486.45 386.512,1467.55 "/>
<polyline clip-path="url(#clip580)" style="stroke:#000000; stroke-linecap:round; stroke-linejoin:round; stroke-width:4; stroke-opacity:1; fill:none" points="811.929,1486.45 811.929,1467.55 "/>
<polyline clip-path="url(#clip580)" style="stroke:#000000; stroke-linecap:round; stroke-linejoin:round; stroke-width:4; stroke-opacity:1; fill:none" points="1237.34,1486.45 1237.34,1467.55 "/>
<polyline clip-path="url(#clip580)" style="stroke:#000000; stroke-linecap:round; stroke-linejoin:round; stroke-width:4; stroke-opacity:1; fill:none" points="1662.76,1486.45 1662.76,1467.55 "/>
<polyline clip-path="url(#clip580)" style="stroke:#000000; stroke-linecap:round; stroke-linejoin:round; stroke-width:4; stroke-opacity:1; fill:none" points="2088.18,1486.45 2088.18,1467.55 "/>
<path clip-path="url(#clip580)" d="M340.575 1532.02 L370.251 1532.02 L370.251 1535.95 L340.575 1535.95 L340.575 1532.02 Z" fill="#000000" fill-rule="nonzero" fill-opacity="1" /><path clip-path="url(#clip580)" d="M394.51 1530.21 Q397.866 1530.93 399.741 1533.2 Q401.64 1535.47 401.64 1538.8 Q401.64 1543.92 398.121 1546.72 Q394.603 1549.52 388.121 1549.52 Q385.945 1549.52 383.63 1549.08 Q381.339 1548.66 378.885 1547.81 L378.885 1543.29 Q380.829 1544.43 383.144 1545.01 Q385.459 1545.58 387.982 1545.58 Q392.38 1545.58 394.672 1543.85 Q396.987 1542.11 396.987 1538.8 Q396.987 1535.75 394.834 1534.03 Q392.704 1532.3 388.885 1532.3 L384.857 1532.3 L384.857 1528.45 L389.07 1528.45 Q392.519 1528.45 394.348 1527.09 Q396.177 1525.7 396.177 1523.11 Q396.177 1520.45 394.278 1519.03 Q392.403 1517.6 388.885 1517.6 Q386.964 1517.6 384.765 1518.01 Q382.566 1518.43 379.927 1519.31 L379.927 1515.14 Q382.589 1514.4 384.903 1514.03 Q387.241 1513.66 389.302 1513.66 Q394.626 1513.66 397.727 1516.09 Q400.829 1518.5 400.829 1522.62 Q400.829 1525.49 399.186 1527.48 Q397.542 1529.45 394.51 1530.21 Z" fill="#000000" fill-rule="nonzero" fill-opacity="1" /><path clip-path="url(#clip580)" d="M420.505 1517.37 Q416.894 1517.37 415.065 1520.93 Q413.26 1524.47 413.26 1531.6 Q413.26 1538.71 415.065 1542.27 Q416.894 1545.82 420.505 1545.82 Q424.139 1545.82 425.945 1542.27 Q427.774 1538.71 427.774 1531.6 Q427.774 1524.47 425.945 1520.93 Q424.139 1517.37 420.505 1517.37 M420.505 1513.66 Q426.315 1513.66 429.371 1518.27 Q432.45 1522.85 432.45 1531.6 Q432.45 1540.33 429.371 1544.94 Q426.315 1549.52 420.505 1549.52 Q414.695 1549.52 411.616 1544.94 Q408.561 1540.33 408.561 1531.6 Q408.561 1522.85 411.616 1518.27 Q414.695 1513.66 420.505 1513.66 Z" fill="#000000" fill-rule="nonzero" fill-opacity="1" /><path clip-path="url(#clip580)" d="M811.929 1517.37 Q808.317 1517.37 806.489 1520.93 Q804.683 1524.47 804.683 1531.6 Q804.683 1538.71 806.489 1542.27 Q808.317 1545.82 811.929 1545.82 Q815.563 1545.82 817.368 1542.27 Q819.197 1538.71 819.197 1531.6 Q819.197 1524.47 817.368 1520.93 Q815.563 1517.37 811.929 1517.37 M811.929 1513.66 Q817.739 1513.66 820.794 1518.27 Q823.873 1522.85 823.873 1531.6 Q823.873 1540.33 820.794 1544.94 Q817.739 1549.52 811.929 1549.52 Q806.118 1549.52 803.04 1544.94 Q799.984 1540.33 799.984 1531.6 Q799.984 1522.85 803.04 1518.27 Q806.118 1513.66 811.929 1513.66 Z" fill="#000000" fill-rule="nonzero" fill-opacity="1" /><path clip-path="url(#clip580)" d="M1226.19 1530.21 Q1229.54 1530.93 1231.42 1533.2 Q1233.32 1535.47 1233.32 1538.8 Q1233.32 1543.92 1229.8 1546.72 Q1226.28 1549.52 1219.8 1549.52 Q1217.62 1549.52 1215.31 1549.08 Q1213.02 1548.66 1210.56 1547.81 L1210.56 1543.29 Q1212.51 1544.43 1214.82 1545.01 Q1217.14 1545.58 1219.66 1545.58 Q1224.06 1545.58 1226.35 1543.85 Q1228.66 1542.11 1228.66 1538.8 Q1228.66 1535.75 1226.51 1534.03 Q1224.38 1532.3 1220.56 1532.3 L1216.53 1532.3 L1216.53 1528.45 L1220.75 1528.45 Q1224.2 1528.45 1226.03 1527.09 Q1227.85 1525.7 1227.85 1523.11 Q1227.85 1520.45 1225.96 1519.03 Q1224.08 1517.6 1220.56 1517.6 Q1218.64 1517.6 1216.44 1518.01 Q1214.24 1518.43 1211.6 1519.31 L1211.6 1515.14 Q1214.27 1514.4 1216.58 1514.03 Q1218.92 1513.66 1220.98 1513.66 Q1226.3 1513.66 1229.4 1516.09 Q1232.51 1518.5 1232.51 1522.62 Q1232.51 1525.49 1230.86 1527.48 Q1229.22 1529.45 1226.19 1530.21 Z" fill="#000000" fill-rule="nonzero" fill-opacity="1" /><path clip-path="url(#clip580)" d="M1252.18 1517.37 Q1248.57 1517.37 1246.74 1520.93 Q1244.94 1524.47 1244.94 1531.6 Q1244.94 1538.71 1246.74 1542.27 Q1248.57 1545.82 1252.18 1545.82 Q1255.82 1545.82 1257.62 1542.27 Q1259.45 1538.71 1259.45 1531.6 Q1259.45 1524.47 1257.62 1520.93 Q1255.82 1517.37 1252.18 1517.37 M1252.18 1513.66 Q1257.99 1513.66 1261.05 1518.27 Q1264.13 1522.85 1264.13 1531.6 Q1264.13 1540.33 1261.05 1544.94 Q1257.99 1549.52 1252.18 1549.52 Q1246.37 1549.52 1243.29 1544.94 Q1240.24 1540.33 1240.24 1531.6 Q1240.24 1522.85 1243.29 1518.27 Q1246.37 1513.66 1252.18 1513.66 Z" fill="#000000" fill-rule="nonzero" fill-opacity="1" /><path clip-path="url(#clip580)" d="M1648.17 1529.7 Q1645.02 1529.7 1643.17 1531.86 Q1641.34 1534.01 1641.34 1537.76 Q1641.34 1541.49 1643.17 1543.66 Q1645.02 1545.82 1648.17 1545.82 Q1651.31 1545.82 1653.14 1543.66 Q1654.99 1541.49 1654.99 1537.76 Q1654.99 1534.01 1653.14 1531.86 Q1651.31 1529.7 1648.17 1529.7 M1657.45 1515.05 L1657.45 1519.31 Q1655.69 1518.48 1653.88 1518.04 Q1652.1 1517.6 1650.34 1517.6 Q1645.71 1517.6 1643.26 1520.72 Q1640.83 1523.85 1640.48 1530.17 Q1641.85 1528.15 1643.91 1527.09 Q1645.97 1526 1648.44 1526 Q1653.65 1526 1656.66 1529.17 Q1659.69 1532.32 1659.69 1537.76 Q1659.69 1543.08 1656.55 1546.3 Q1653.4 1549.52 1648.17 1549.52 Q1642.17 1549.52 1639 1544.94 Q1635.83 1540.33 1635.83 1531.6 Q1635.83 1523.41 1639.72 1518.55 Q1643.61 1513.66 1650.16 1513.66 Q1651.92 1513.66 1653.7 1514.01 Q1655.5 1514.36 1657.45 1515.05 Z" fill="#000000" fill-rule="nonzero" fill-opacity="1" /><path clip-path="url(#clip580)" d="M1677.75 1517.37 Q1674.14 1517.37 1672.31 1520.93 Q1670.5 1524.47 1670.5 1531.6 Q1670.5 1538.71 1672.31 1542.27 Q1674.14 1545.82 1677.75 1545.82 Q1681.38 1545.82 1683.19 1542.27 Q1685.02 1538.71 1685.02 1531.6 Q1685.02 1524.47 1683.19 1520.93 Q1681.38 1517.37 1677.75 1517.37 M1677.75 1513.66 Q1683.56 1513.66 1686.61 1518.27 Q1689.69 1522.85 1689.69 1531.6 Q1689.69 1540.33 1686.61 1544.94 Q1683.56 1549.52 1677.75 1549.52 Q1671.94 1549.52 1668.86 1544.94 Q1665.8 1540.33 1665.8 1531.6 Q1665.8 1522.85 1668.86 1518.27 Q1671.94 1513.66 1677.75 1513.66 Z" fill="#000000" fill-rule="nonzero" fill-opacity="1" /><path clip-path="url(#clip580)" d="M2063.3 1548.13 L2063.3 1543.87 Q2065.06 1544.7 2066.87 1545.14 Q2068.67 1545.58 2070.41 1545.58 Q2075.04 1545.58 2077.47 1542.48 Q2079.92 1539.36 2080.27 1533.01 Q2078.93 1535.01 2076.87 1536.07 Q2074.81 1537.13 2072.31 1537.13 Q2067.12 1537.13 2064.09 1534.01 Q2061.08 1530.86 2061.08 1525.42 Q2061.08 1520.1 2064.23 1516.88 Q2067.38 1513.66 2072.61 1513.66 Q2078.61 1513.66 2081.75 1518.27 Q2084.92 1522.85 2084.92 1531.6 Q2084.92 1539.77 2081.04 1544.66 Q2077.17 1549.52 2070.62 1549.52 Q2068.86 1549.52 2067.05 1549.17 Q2065.25 1548.82 2063.3 1548.13 M2072.61 1533.48 Q2075.76 1533.48 2077.59 1531.32 Q2079.44 1529.17 2079.44 1525.42 Q2079.44 1521.7 2077.59 1519.54 Q2075.76 1517.37 2072.61 1517.37 Q2069.46 1517.37 2067.61 1519.54 Q2065.78 1521.7 2065.78 1525.42 Q2065.78 1529.17 2067.61 1531.32 Q2069.46 1533.48 2072.61 1533.48 Z" fill="#000000" fill-rule="nonzero" fill-opacity="1" /><path clip-path="url(#clip580)" d="M2103.33 1517.37 Q2099.72 1517.37 2097.89 1520.93 Q2096.08 1524.47 2096.08 1531.6 Q2096.08 1538.71 2097.89 1542.27 Q2099.72 1545.82 2103.33 1545.82 Q2106.96 1545.82 2108.77 1542.27 Q2110.6 1538.71 2110.6 1531.6 Q2110.6 1524.47 2108.77 1520.93 Q2106.96 1517.37 2103.33 1517.37 M2103.33 1513.66 Q2109.14 1513.66 2112.19 1518.27 Q2115.27 1522.85 2115.27 1531.6 Q2115.27 1540.33 2112.19 1544.94 Q2109.14 1549.52 2103.33 1549.52 Q2097.52 1549.52 2094.44 1544.94 Q2091.38 1540.33 2091.38 1531.6 Q2091.38 1522.85 2094.44 1518.27 Q2097.52 1513.66 2103.33 1513.66 Z" fill="#000000" fill-rule="nonzero" fill-opacity="1" /><polyline clip-path="url(#clip580)" style="stroke:#000000; stroke-linecap:round; stroke-linejoin:round; stroke-width:4; stroke-opacity:1; fill:none" points="177.871,1486.45 177.871,47.2441 "/>
<polyline clip-path="url(#clip580)" style="stroke:#000000; stroke-linecap:round; stroke-linejoin:round; stroke-width:4; stroke-opacity:1; fill:none" points="177.871,1483.13 196.769,1483.13 "/>
<polyline clip-path="url(#clip580)" style="stroke:#000000; stroke-linecap:round; stroke-linejoin:round; stroke-width:4; stroke-opacity:1; fill:none" points="177.871,1176.93 196.769,1176.93 "/>
<polyline clip-path="url(#clip580)" style="stroke:#000000; stroke-linecap:round; stroke-linejoin:round; stroke-width:4; stroke-opacity:1; fill:none" points="177.871,870.729 196.769,870.729 "/>
<polyline clip-path="url(#clip580)" style="stroke:#000000; stroke-linecap:round; stroke-linejoin:round; stroke-width:4; stroke-opacity:1; fill:none" points="177.871,564.53 196.769,564.53 "/>
<polyline clip-path="url(#clip580)" style="stroke:#000000; stroke-linecap:round; stroke-linejoin:round; stroke-width:4; stroke-opacity:1; fill:none" points="177.871,258.331 196.769,258.331 "/>
<path clip-path="url(#clip580)" d="M50.9921 1483.58 L80.6679 1483.58 L80.6679 1487.51 L50.9921 1487.51 L50.9921 1483.58 Z" fill="#000000" fill-rule="nonzero" fill-opacity="1" /><path clip-path="url(#clip580)" d="M94.7882 1496.47 L111.108 1496.47 L111.108 1500.41 L89.1632 1500.41 L89.1632 1496.47 Q91.8252 1493.72 96.4085 1489.09 Q101.015 1484.44 102.196 1483.09 Q104.441 1480.57 105.321 1478.83 Q106.223 1477.07 106.223 1475.38 Q106.223 1472.63 104.279 1470.89 Q102.358 1469.16 99.2558 1469.16 Q97.0567 1469.16 94.603 1469.92 Q92.1725 1470.69 89.3947 1472.24 L89.3947 1467.51 Q92.2188 1466.38 94.6724 1465.8 Q97.1261 1465.22 99.1632 1465.22 Q104.534 1465.22 107.728 1467.91 Q110.922 1470.59 110.922 1475.08 Q110.922 1477.21 110.112 1479.13 Q109.325 1481.03 107.219 1483.62 Q106.64 1484.3 103.538 1487.51 Q100.436 1490.71 94.7882 1496.47 Z" fill="#000000" fill-rule="nonzero" fill-opacity="1" /><path clip-path="url(#clip580)" d="M120.969 1465.85 L139.325 1465.85 L139.325 1469.78 L125.251 1469.78 L125.251 1478.25 Q126.27 1477.91 127.288 1477.75 Q128.307 1477.56 129.325 1477.56 Q135.112 1477.56 138.492 1480.73 Q141.871 1483.9 141.871 1489.32 Q141.871 1494.9 138.399 1498 Q134.927 1501.08 128.607 1501.08 Q126.432 1501.08 124.163 1500.71 Q121.918 1500.34 119.51 1499.6 L119.51 1494.9 Q121.594 1496.03 123.816 1496.59 Q126.038 1497.14 128.515 1497.14 Q132.519 1497.14 134.857 1495.04 Q137.195 1492.93 137.195 1489.32 Q137.195 1485.71 134.857 1483.6 Q132.519 1481.5 128.515 1481.5 Q126.64 1481.5 124.765 1481.91 Q122.913 1482.33 120.969 1483.21 L120.969 1465.85 Z" fill="#000000" fill-rule="nonzero" fill-opacity="1" /><path clip-path="url(#clip580)" d="M129.927 1162.73 Q126.316 1162.73 124.487 1166.29 Q122.682 1169.83 122.682 1176.96 Q122.682 1184.07 124.487 1187.63 Q126.316 1191.18 129.927 1191.18 Q133.561 1191.18 135.367 1187.63 Q137.195 1184.07 137.195 1176.96 Q137.195 1169.83 135.367 1166.29 Q133.561 1162.73 129.927 1162.73 M129.927 1159.02 Q135.737 1159.02 138.793 1163.63 Q141.871 1168.21 141.871 1176.96 Q141.871 1185.69 138.793 1190.3 Q135.737 1194.88 129.927 1194.88 Q124.117 1194.88 121.038 1190.3 Q117.983 1185.69 117.983 1176.96 Q117.983 1168.21 121.038 1163.63 Q124.117 1159.02 129.927 1159.02 Z" fill="#000000" fill-rule="nonzero" fill-opacity="1" /><path clip-path="url(#clip580)" d="M94.7882 884.074 L111.108 884.074 L111.108 888.009 L89.1632 888.009 L89.1632 884.074 Q91.8252 881.319 96.4085 876.69 Q101.015 872.037 102.196 870.695 Q104.441 868.171 105.321 866.435 Q106.223 864.676 106.223 862.986 Q106.223 860.232 104.279 858.496 Q102.358 856.759 99.2558 856.759 Q97.0567 856.759 94.603 857.523 Q92.1725 858.287 89.3947 859.838 L89.3947 855.116 Q92.2188 853.982 94.6724 853.403 Q97.1261 852.824 99.1632 852.824 Q104.534 852.824 107.728 855.509 Q110.922 858.195 110.922 862.685 Q110.922 864.815 110.112 866.736 Q109.325 868.634 107.219 871.227 Q106.64 871.898 103.538 875.116 Q100.436 878.31 94.7882 884.074 Z" fill="#000000" fill-rule="nonzero" fill-opacity="1" /><path clip-path="url(#clip580)" d="M120.969 853.449 L139.325 853.449 L139.325 857.384 L125.251 857.384 L125.251 865.857 Q126.27 865.509 127.288 865.347 Q128.307 865.162 129.325 865.162 Q135.112 865.162 138.492 868.333 Q141.871 871.505 141.871 876.921 Q141.871 882.5 138.399 885.602 Q134.927 888.681 128.607 888.681 Q126.432 888.681 124.163 888.31 Q121.918 887.94 119.51 887.199 L119.51 882.5 Q121.594 883.634 123.816 884.19 Q126.038 884.745 128.515 884.745 Q132.519 884.745 134.857 882.639 Q137.195 880.532 137.195 876.921 Q137.195 873.31 134.857 871.204 Q132.519 869.097 128.515 869.097 Q126.64 869.097 124.765 869.514 Q122.913 869.931 120.969 870.81 L120.969 853.449 Z" fill="#000000" fill-rule="nonzero" fill-opacity="1" /><path clip-path="url(#clip580)" d="M89.8114 547.25 L108.168 547.25 L108.168 551.185 L94.0937 551.185 L94.0937 559.658 Q95.1123 559.31 96.1308 559.148 Q97.1493 558.963 98.1678 558.963 Q103.955 558.963 107.334 562.134 Q110.714 565.306 110.714 570.722 Q110.714 576.301 107.242 579.403 Q103.77 582.482 97.4502 582.482 Q95.2743 582.482 93.0058 582.111 Q90.7604 581.741 88.353 581 L88.353 576.301 Q90.4364 577.435 92.6586 577.991 Q94.8808 578.546 97.3576 578.546 Q101.362 578.546 103.7 576.44 Q106.038 574.333 106.038 570.722 Q106.038 567.111 103.7 565.005 Q101.362 562.898 97.3576 562.898 Q95.4826 562.898 93.6076 563.315 Q91.7558 563.732 89.8114 564.611 L89.8114 547.25 Z" fill="#000000" fill-rule="nonzero" fill-opacity="1" /><path clip-path="url(#clip580)" d="M129.927 550.329 Q126.316 550.329 124.487 553.894 Q122.682 557.435 122.682 564.565 Q122.682 571.671 124.487 575.236 Q126.316 578.778 129.927 578.778 Q133.561 578.778 135.367 575.236 Q137.195 571.671 137.195 564.565 Q137.195 557.435 135.367 553.894 Q133.561 550.329 129.927 550.329 M129.927 546.625 Q135.737 546.625 138.793 551.232 Q141.871 555.815 141.871 564.565 Q141.871 573.292 138.793 577.898 Q135.737 582.482 129.927 582.482 Q124.117 582.482 121.038 577.898 Q117.983 573.292 117.983 564.565 Q117.983 555.815 121.038 551.232 Q124.117 546.625 129.927 546.625 Z" fill="#000000" fill-rule="nonzero" fill-opacity="1" /><path clip-path="url(#clip580)" d="M89.5799 241.051 L111.802 241.051 L111.802 243.042 L99.2558 275.611 L94.3715 275.611 L106.177 244.986 L89.5799 244.986 L89.5799 241.051 Z" fill="#000000" fill-rule="nonzero" fill-opacity="1" /><path clip-path="url(#clip580)" d="M120.969 241.051 L139.325 241.051 L139.325 244.986 L125.251 244.986 L125.251 253.459 Q126.27 253.111 127.288 252.949 Q128.307 252.764 129.325 252.764 Q135.112 252.764 138.492 255.936 Q141.871 259.107 141.871 264.523 Q141.871 270.102 138.399 273.204 Q134.927 276.283 128.607 276.283 Q126.432 276.283 124.163 275.912 Q121.918 275.542 119.51 274.801 L119.51 270.102 Q121.594 271.236 123.816 271.792 Q126.038 272.347 128.515 272.347 Q132.519 272.347 134.857 270.241 Q137.195 268.135 137.195 264.523 Q137.195 260.912 134.857 258.806 Q132.519 256.699 128.515 256.699 Q126.64 256.699 124.765 257.116 Q122.913 257.533 120.969 258.412 L120.969 241.051 Z" fill="#000000" fill-rule="nonzero" fill-opacity="1" /><polyline clip-path="url(#clip582)" style="stroke:#0000ff; stroke-linecap:round; stroke-linejoin:round; stroke-width:4; stroke-opacity:1; fill:none" points="239.425,716.928 263.97,721.385 268.499,717.846 285.968,715.875 296.74,714.847 318.616,717.808 338.366,722.357 364.618,724.829 390.885,727.038 420.479,731.66 448.923,731.176 473.117,731.505 508.715,732.786 530.029,738.992 552.469,743.203 586.988,746.818 612.312,748.371 633.39,753.611 661.917,760.239 684.652,767.482 707.231,775.419 729.975,781.803 757.475,788.258 779.418,796.984 805.318,802.18 836.128,810.001 857.806,809.241 891.301,811.409 916.372,820.084 942.305,828.1 972.662,837.845 996.555,846.207 1022.07,853.154 1040.2,863.141 1056.65,875.571 1063.44,880.724 1085.09,883.042 1102.44,884.736 1124.87,885.979 1150.79,889.166 1176.93,899.297 1203.77,909.736 1224.82,914.958 1250.15,918.585 1282.72,920.341 1311.1,921.593 1343.09,926.066 1370.43,930.728 1395.52,933.474 1419.76,936.018 1451.69,936.059 1475.15,935.676 1501.78,934.902 1528.49,932.012 1557.34,926.416 1585.37,927.156 1612.82,925.746 1638.01,926.573 1657.73,919.894 1675.36,917.001 1691.91,909.973 1709.3,903.175 1730.44,903.731 1753.36,901.495 1774.7,903.474 1793.31,907.558 1814.69,914.554 1834.06,926.384 1855.31,938.939 1870.87,949.868 1886.41,966.276 1896.29,980.205 1903.22,994.25 1912.62,1012.9 1924.48,1030.46 1937.06,1049.12 1947.92,1059.41 1966.31,1066.02 1980.58,1068.78 1990.17,1067.92 2011.84,1061.14 2029.05,1055.12 2049.41,1034.45 2059.68,1018.93 2062.29,998.85 2064.18,981.215 2062.56,959.669 2049.31,944.935 2030.72,938.271 2006.81,929.355 1979.38,933.268 1955.04,931.119 1935.2,927.469 1917.02,924.548 1895.22,922.102 1876.43,928.203 1854.94,934.902 1839.14,942.226 1816.14,944.164 1791.29,943.881 1764.36,939.723 1742.76,928.079 1720.19,917.377 1689.46,901.74 1664.49,883.811 1642.68,866.029 1628.61,851.507 1617.91,839.085 1601.54,825.537 1586.73,809.758 1575.18,794.241 1567.64,777.338 1568.38,761.866 1581.14,746.557 1594.12,734.759 1616.44,728.419 1635.91,728.865 1662.01,731.378 1679.65,746.329 1701.27,752.391 1714.75,756.162 1737.26,761.581 1759.59,772.033 1771.2,781.119 1788.34,791.453 1806.01,802.226 1827.89,809.925 1848.27,811.205 1869.7,811.002 1893.61,803.88 1913.85,799.687 1929.55,798.988 1948.38,807.46 1964.62,820.075 1979.41,836.087 1988.55,852.412 1995.8,872.475 2003.17,893.848 2006.67,912.911 2005.93,933.641 2006.23,943.443 2009.62,956.71 2020.9,975.413 2028.8,992.865 2040.83,1007.31 2052.06,1013.75 2064.79,1017.21 2083.46,1012.78 2100.83,1004.52 2113.99,995.543 2130.13,982.843 2138.79,973.897 2141.91,954.233 2132.32,937.242 2115.81,919.176 2101.14,903.34 2078.79,892.692 2050.33,888.378 2022.71,884.428 2004.48,882.83 1981.28,881.898 1961.75,879.759 1944.22,869.258 1929.93,862.21 1908.74,855.613 1893.39,855.084 1870.98,858.363 1850.56,852.881 1830.02,847.444 1810.96,846.094 1786.3,842.633 1768.57,837.688 1752.16,832.976 1730.16,831.804 1703.1,833.44 1677.24,840.311 1662.22,838.694 1658.12,830.46 1654.19,827.561 1647.3,826.081 1635.74,825.248 1626.74,824.264 1613.01,828.863 1598.66,835.852 1572.69,840.216 1552.09,843.808 1538.18,849.652 1529.16,858.335 1538.14,859.15 1553.12,856.816 1589.58,851.484 1604.09,832.779 1619.65,818.841 1625.17,803.752 1616.23,787.343 1601.41,769.29 1590.86,758.227 1581.43,736.949 1561.93,727.591 1540.6,738.664 1518.72,739.923 1490.62,735.145 1487.6,716.453 1483.03,696.319 1484.99,675.054 1488.62,658.88 1503.66,638.104 1511.33,618.357 1514.73,595.063 1497.16,582.486 1475.11,575.161 1465.1,572.817 1476.25,559.757 1498.34,548.85 1533.65,548.757 1570.36,534.119 1596.14,517.444 1614.05,493.688 1626.36,472.843 1647.09,463.739 1674.03,467.06 1698.06,472.249 1715.86,490.881 1743.16,503.047 1763.39,519.112 1772.79,540.513 1760.85,557.526 1743.13,573.151 1716.33,585.635 1683.56,592.281 1657.94,591.71 1624.84,576.809 1599.7,561.566 1588.63,539.305 1588.82,516.713 1607.59,503.161 1621.71,492.758 1643.87,478.793 1668.27,470.467 1690.53,454.623 1712.48,442.466 1732.14,441.593 1754.59,427.67 1757.59,412.733 1768.2,395.878 1781.11,390.795 1798.74,373.572 1790.44,359.504 1768.16,348.719 1765.38,347.325 1777.53,342.799 1802.47,336.85 1831.56,341.733 1856.51,344.321 1882.24,350.298 1905.55,368.766 1908.47,386.73 1904.31,398.83 1883.05,409.524 1868.68,431.773 1853.09,459.408 1843.14,491.734 1845.44,512.666 1809.74,514.308 1786.22,530.04 1755.55,536.655 1725.01,553.32 1708.84,578.983 1688.61,595.267 1662.11,589.974 1639.83,578.378 1611.9,569.752 1598.24,556.355 1571.89,540.283 1564.3,533.361 1573.03,511.165 1597.15,503.486 1632.23,497.345 1659.98,501.436 1694.53,509.028 1722.13,523.752 1729.46,544.951 1743.14,566.027 1759.96,570.343 1785.69,574.767 1808.03,585.028 1818.66,587.927 1843.42,579.814 1867.56,572.139 1887.34,562.539 1906.74,566.369 1926.21,580.264 1924.49,599.013 1925.88,619.943 1910.73,652.51 1890.82,676.683 1867.46,695.75 1845.1,725.362 1844.33,750.513 1808.89,761.825 1780.9,767.309 1752.81,781.766 1727.65,796.757 1710.7,815.402 1694.98,835.523 1670.19,858.28 1643.55,866.889 1616.52,857.98 1592.17,851.848 1561.58,848.618 1533.53,840.498 1514.16,819.139 1500.95,798.717 1469.59,776.345 1452.91,757.241 1428.27,740.776 1404.36,738.052 1373.9,743.769 1355.97,741.027 1330.17,732.176 1326.56,706.087 1308.31,698.669 1285.34,702.63 1267.41,711.565 1243.69,728.698 1236.73,736.14 1207.17,737.936 1184.2,743.641 1158.54,737.114 1138.53,719.078 1116.1,706.231 1081.33,701.963 1049.55,692.127 1027.35,687.142 1006.75,677.45 987.673,656.151 987.703,642.054 997.472,622.993 1013.23,602.909 1023.93,580.422 1029.37,549.415 1036.44,524.715 1020.68,505.261 1001.81,500.488 991.932,489.301 997.195,475.847 1024.2,476.128 1060.61,479.033 1101.7,477.197 1133.3,472.885 1159.41,454.198 1184.08,429.942 1208.03,410.163 1238.84,404.211 1276.93,407.682 1308.74,418.825 1339.16,434.748 1369.68,447.273 1396.02,459.272 1417.52,473.41 1453.24,480.222 1477.66,494.091 1503.14,517.094 1533.06,544.134 1559.66,558.925 1584.31,569.861 1602.98,581.101 1613.21,571.147 1633.49,561.686 1659.3,547.528 1682.94,538.259 1712.56,527.245 1745.2,525.687 1780.06,536.048 1806.68,560.952 1813.33,582.412 1808.98,613.273 1791.78,646.131 1789.2,672.544 1781.31,704.943 1781.54,739.338 1797.45,769.783 1829.16,794.437 1867.74,792.56 1889.51,794.705 1919.68,801.694 1937.85,823.669 1964.32,849.916 1985.6,881.76 1996.55,914.442 2000.45,936.296 2017.15,917.117 2051.96,923.482 2079.22,928.931 2091.08,945.032 2093.61,949.246 2093.3,954.046 2098.21,970.353 2101.47,976.496 2114.46,980.567 2131.84,982.161 2159.94,975.199 2187.53,985.501 2201.17,998.875 2214.13,1020.14 2213.9,1033.68 2217.09,1019.03 2221.82,1000.91 2221.17,973.655 2210.89,947.493 2194.3,924.4 2183.99,901.513 2185.3,882.052 2158.44,860.736 2150.76,829.796 2155.02,805.086 2173.89,793.74 2194.95,796.553 2218.49,804.886 2234.27,817.817 2246.03,837.322 2272.31,859.16 2285.53,881.13 2276.3,908.267 2256.38,930.164 2240.09,950.29 2209.5,961.679 2190.71,981.025 2164.15,993.629 2137.33,1016.02 2118.54,1038.7 2107.75,1062.01 2089.08,1085.08 2071.58,1107.03 2046.33,1122.91 2021.19,1134.56 1989.77,1149.22 1965.28,1169 1936.57,1177.67 1908.45,1197.44 1892.28,1213.95 1860.82,1226.69 1842.1,1240.42 1823.75,1260.42 1806.87,1287.49 1799.42,1308.18 1795.63,1328.45 1788.26,1353.14 1811.11,1373.97 1819.82,1388.44 1812.85,1411.97 1805.16,1438.18 1784.57,1441.41 1762.18,1438.47 1740.61,1419.99 1729.13,1393.11 1714.75,1371.9 1691.07,1348.58 1651.92,1323.49 1621.48,1315.94 1588.02,1315.32 1552.69,1322.43 1512.26,1332.35 1485.13,1333.64 1450.73,1322.37 1425.57,1309.24 1405.93,1284.97 1404.39,1251.56 1398.86,1211.48 1378.17,1185.25 1356.92,1164.81 1363.19,1133.72 1361.9,1105.35 1352.39,1081.98 1341.22,1053.4 1322.24,1029.36 1317.64,1002.11 1324.04,969.246 1332.96,936.024 1352.18,906.987 1367.16,876.232 1379.72,844.269 1406.98,823.502 1400.61,795.555 1385.7,771.366 1357.14,748.039 1324.2,745.834 1304.5,732.084 1296.1,707.442 1292.95,675.053 1305.21,647.325 1318.67,626.139 1339.99,617.501 1370.91,605.946 1407.94,599.489 1448.32,594.894 1486.38,596.58 1514.69,588.894 1536.57,562.336 1554.16,541.362 1582.11,528.599 1604.51,521.744 1606.91,506.926 1592.22,494.394 1571.06,479.067 1545.73,466.63 1517.9,439.648 1495.28,413.702 1482.96,387.511 1465.94,367.352 1462.21,349.303 1470.13,329.106 1488.01,319.607 1505.15,329.715 1535.02,333.666 1574.88,335.965 1608.09,345.718 1647.94,350.761 1680.96,354.966 1712.05,369.312 1736.11,375.109 1760.62,367.839 1784.46,357.853 1814.78,351.175 1846.12,352.033 1876.98,347.057 1899.76,361.775 1910.9,378.199 1916.77,371.147 1925.96,354.905 1943.23,338.544 1960.8,328.007 1984.83,313.267 2004.25,304.357 1992.57,305.036 1970.27,292.53 1960.97,275.885 1949.22,245.74 1954.25,216.603 1966.3,201.814 1993.4,192.387 2027.42,195.805 2052.06,200.304 2085.22,204.148 2120.37,216.77 2142.85,239.147 2146.41,267.974 2139.51,294.962 2128.23,303.813 2132.88,319.772 2135.88,341.464 2131.26,372.942 2103.54,389.797 2084.19,425.7 2057.21,447.317 2034.29,473.142 2028.11,507.806 2001.19,514.062 1967.18,515.856 1931.63,527.977 1901.04,542.168 1885.96,569.129 1873.73,600.042 1874.79,616.825 1901.16,621.012 1930.04,634.533 1966.64,648.392 2000.28,672.969 2028.52,688.333 2066.23,692.011 2100.34,693.457 2137.87,688.954 2166.33,693.896 2192.31,692.443 2202.5,677.665 2216.84,659.438 2231.74,637.732 2230.27,612.544 2226.01,593.782 2217.05,570.411 2190.28,549.415 2169.62,531.084 2145.58,515.741 2104.54,517.366 2079.67,523.783 2056.03,542.355 2038.5,561.177 2012.53,585.821 2008.32,616.438 2014.43,648.48 2016.76,678.488 2035.2,703.738 2047.57,729.228 2060.79,762.612 2075.21,792.537 2106.34,804.98 2135.75,822.003 2161.4,850.35 2181.8,873.235 2196.71,905.005 2203.2,929.584 2199.15,941.134 2167.83,942.04 2131.55,955.476 2103.94,953.59 2089.39,961.7 2069.28,965.097 2047.07,960.974 2017.18,946.512 1987.29,938.296 1951.35,941.755 1906.21,954.883 1868.8,969.067 1830.98,969.151 1788.88,976.911 1751.94,977.979 1714.04,978.548 1683.72,971.914 1649.15,977.021 1617.43,971.282 1584.61,964.461 1548.83,933.763 1521.59,919.331 1484.39,911.299 1452.41,895.74 1424.07,880.001 1391.94,859.511 1366.95,851.145 1339.82,864.841 1316.29,882.343 1287.28,897.296 1249.74,915.027 1212.61,923.001 1184.01,919.218 1155.29,894.915 1138.18,871.047 1120.86,841.55 1095.98,815.49 1084.68,784.262 1080.86,757.078 1083.68,734.659 1069.37,704.628 1047.12,687.53 1018.64,676.172 999.779,653.876 991.463,623.133 989.338,599.614 977.498,572.444 988.282,546.605 1008.98,518.818 1019.24,500.768 1033.89,496.417 1041.33,480.976 1047.05,464.84 1053.94,441.554 1059.5,417.178 1064.97,388.319 1077.22,355.065 1076.84,332.4 1055.5,314.298 1036.16,300.546 1008.7,300.637 982.397,310.887 954.512,305.933 923.427,290.806 885.271,276.798 862.865,270.556 840.969,266.625 827.209,248.1 826.191,226.993 841.405,208.859 862.529,189.91 886.08,172.565 929.767,162.826 959.384,149.233 991.923,143.866 1021.24,155.726 1049.68,161.475 1083.23,157.682 1116.22,151.684 1135.56,131.032 1151.31,111.357 1164.36,90.5043 "/>
<polyline clip-path="url(#clip582)" style="stroke:#ff0000; stroke-linecap:round; stroke-linejoin:round; stroke-width:4; stroke-opacity:1; fill:none" points="240.155,716.515 270.515,722.884 273.125,714.029 294.24,715.327 297.614,716.025 324.6,721.696 341.461,725.236 370.19,724.991 394.68,726.999 425.055,733.368 451.289,729.474 472.404,730.76 514.648,733.356 526.417,742.101 550.921,744.098 593.179,746.694 610.934,747.282 630.347,754.496 664.139,761.575 683.566,768.79 706.383,776.714 730.05,781.674 760.482,788.056 779.072,798.234 806.994,800.953 839.992,811.02 856.073,804.97 897.551,810.531 915.319,823.685 942.404,829.368 975.444,839.436 994.928,846.662 1022.04,852.345 1036.45,864.801 1054.27,877.968 1057.66,878.678 1089.87,879.144 1103.42,881.997 1128.01,884.006 1155.15,889.701 1179.79,904.313 1206.1,912.972 1223.92,913.573 1251.91,916.304 1287.54,917.48 1312.15,919.501 1346.11,926.629 1369.9,931.626 1394.51,933.635 1419.13,935.656 1455.6,933.88 1473.42,934.468 1502.27,934.235 1528.54,930.303 1559.03,924.13 1586.23,929.826 1612.49,925.906 1637.12,927.927 1654.82,915.924 1672.64,916.512 1689.51,907.485 1708.96,902.133 1732.77,907.13 1755.62,902.488 1776.04,906.763 1793.04,910.327 1816.05,918.288 1834.05,931.479 1856.25,942.417 1868.27,951.223 1884.66,970.379 1892.46,981.451 1899.45,995.499 1911.64,1016.95 1925.47,1032.44 1938.49,1050.92 1947.92,1056.05 1971.8,1061.07 1982.04,1063.22 1989.68,1061.66 2017.59,1051.77 2028.62,1050.92 2050.29,1023.98 2056.11,1015.75 2054.9,993.466 2058.89,978.585 2057.69,956.33 2038.84,946.103 2021.8,942.527 1999.56,931.589 1972.49,938.485 1952.06,934.21 1935.84,927.67 1918.82,924.106 1894.17,922.085 1876.52,934.1 1853.66,938.73 1841.02,945.515 1812.98,942.772 1788.33,940.763 1761.1,935.056 1743.12,921.864 1720.12,913.903 1685.15,897.148 1664.62,880.295 1644.1,863.442 1632.95,851.708 1621.82,839.962 1600.49,826.098 1587.62,807.738 1577.31,793.065 1571.23,776.138 1575.32,761.355 1593.8,746.449 1603.85,736.038 1626.66,731.433 1640.21,734.263 1668.99,734.03 1682.68,749.389 1703.05,753.651 1713.23,755.77 1740.39,761.453 1761.71,775.281 1766.89,782.617 1789.04,793.506 1807.8,803.696 1831.58,808.669 1850.19,806.293 1871.39,807.591 1895.8,797.046 1913.6,797.646 1927.2,800.487 1948.58,814.34 1963.18,826.784 1976.97,842.192 1983.96,856.179 1992.77,876.829 2001.58,897.491 2004.37,913.769 2002.16,935.276 2004.77,938.963 2010.98,955.975 2026.62,978.107 2029.43,994.421 2044.06,1006.93 2054.3,1009.08 2067.94,1011.94 2088.21,1003.6 2104.24,997.52 2113.46,990.012 2131.1,977.985 2136.11,972.755 2135.65,947.524 2121.01,935.031 2103.75,918.864 2093.32,904.142 2070.28,896.181 2042.23,893.449 2018.39,888.464 2008.18,886.321 1980.15,883.602 1963.13,880.038 1945.93,863.895 1932.32,861.053 1905.11,855.358 1893.29,859.155 1867.06,863.074 1849.08,849.908 1828.67,845.645 1810.05,848.009 1782.87,842.326 1770.08,836.521 1753.09,832.957 1727.68,833.912 1698.06,837.121 1674.4,844.702 1665.85,836.643 1665.71,824.077 1658.11,825.62 1647.11,826.453 1632.7,826.575 1625.91,825.155 1609.05,834.157 1596.41,840.918 1564.21,840.452 1548.98,843.527 1539.72,850.998 1533.04,862.156 1548.27,859.069 1566.89,856.693 1597.35,850.52 1606.46,830.482 1620.74,817.806 1624.83,802.998 1615.34,785.361 1599.08,766.315 1590.53,758.269 1579.29,734.042 1559.77,726.828 1537.9,741.023 1516.74,739.725 1486.23,733.344 1487.77,714.911 1482.54,695.081 1484.91,673.721 1489.01,658.974 1506.55,634.576 1511.47,616.903 1514.65,592.652 1496,582.535 1473.14,574.659 1466.37,573.251 1478.06,557.022 1502.45,546.55 1541.28,548.424 1578.23,531.265 1596.65,516.457 1614.12,492.157 1626.57,473.038 1646.71,464.82 1674.56,467.514 1698.21,472.426 1717.82,492.01 1746.62,504.209 1763.7,520.18 1772.38,540.622 1760.76,556.839 1741.56,574.598 1713,587.311 1679.3,592.737 1658.17,591.451 1619.99,574.157 1598.76,560.403 1590.13,539.949 1589.08,517.988 1607.49,503.193 1620.87,493.566 1646.84,477.251 1670.36,469.743 1692.94,452.731 1713.87,441.598 1731.56,442.173 1757.49,425.883 1757.35,413.476 1769.74,394.394 1781.48,390.646 1801.43,370.057 1790.34,358.483 1764.95,347.031 1780.87,341.079 1811.08,334.991 1837.27,343.504 1858.32,344.79 1885.32,350.387 1908.34,370.608 1907.72,385.931 1904.51,397.627 1879.44,410.978 1865.46,435.927 1850.67,463.828 1841.82,496.089 1845.38,509.243 1804.94,513.236 1785.76,530.983 1752.08,536.397 1721.92,554.965 1707.86,580.024 1689.45,594.856 1662.36,589.21 1640.3,578.395 1610.66,569.099 1599.57,557.463 1569.03,538.663 1566.46,535.025 1573.81,508.594 1600.72,501.784 1637.77,497.081 1661.43,502.004 1698.62,509.745 1723.26,524.186 1728.54,543.917 1743.99,565.78 1757.53,568.597 1788,574.941 1810.08,585.768 1816.86,587.177 1847.99,578.113 1871.53,570.581 1888.27,561.64 1908.59,565.865 1929.1,582.559 1924.29,600.221 1925.46,622.243 1908.24,659.146 1888.25,679.906 1865.64,697.029 1842.4,729.633 1844.34,748.776 1804.74,762.384 1781.93,767.001 1752.5,782.74 1727.24,796.237 1711.36,814.842 1694.65,836.41 1666.12,861.788 1643.28,866.418 1616.92,857.759 1593.13,852.774 1558.34,848.634 1532,839.975 1513.16,817.23 1500.31,798.87 1464.53,772.599 1454.26,757.938 1427.07,739.737 1405.89,738.439 1372.1,743.877 1358.55,741.036 1328.88,731.715 1326.19,703.006 1309.25,699.466 1283.06,703.373 1266.2,712.351 1239.23,731.727 1238.39,734.679 1201.2,739.407 1181.76,744.735 1155.51,736.1 1136.01,716.38 1113.99,705.517 1075.94,700.691 1046.35,691.37 1029.44,687.83 1007.46,676.979 985.47,653.646 988.008,644.803 998.119,621.949 1014.98,600.515 1025.08,577.697 1030.93,544.664 1036.8,524.112 1020.77,505.213 1003.9,501.698 992.943,490.087 997.141,475.426 1029.16,475.88 1067.08,480.681 1107.51,476.688 1133.61,472.805 1160.51,453.576 1185.69,427.806 1208.35,410.818 1238.62,404.731 1280.72,407.291 1309.41,419.453 1340.65,435.253 1369.37,447.428 1394.72,458.904 1415.88,472.622 1456.39,481.048 1477.56,494.778 1506.43,519.421 1537.89,547.726 1559.92,558.529 1581.97,569.344 1600.64,579.461 1609.85,572.038 1634.22,561.566 1663.6,545.926 1683.75,537.695 1715.67,525.704 1747.73,526.17 1784.15,536.85 1808.96,563.771 1811.7,579.877 1808.79,616.609 1788.94,649.85 1790.06,671.896 1780.35,707.317 1781.62,741.93 1798.91,770.553 1831.42,796.115 1868.62,791.375 1882.22,794.216 1919.6,802.018 1938.57,824.763 1966.96,852.627 1986.96,885.023 1996.76,915.312 1999.56,931.589 2013.79,918.876 2055.46,924.461 2079.31,929.446 2089.75,944.193 2092.36,947.879 2094.18,954.542 2099.61,974.531 2102.22,978.23 2119.28,981.794 2137.11,982.394 2168.4,973.22 2193.3,987.869 2201.15,998.953 2216.07,1024.1 2213.67,1033.04 2217.66,1018.13 2223.22,997.275 2220.11,968.345 2208.63,943.948 2192.93,921.84 2184.07,901.165 2185.43,882.634 2152.73,856.999 2150.47,825.216 2156.03,804.48 2172.82,795.478 2194.02,796.788 2220.45,805.423 2235.1,817.867 2247.37,839.203 2276.69,864.115 2286.36,881.801 2275.06,910.78 2255.1,931.7 2239.31,950.378 2207.27,962.515 2191.47,981.206 2162.82,994.066 2134.38,1019.57 2118.55,1038.28 2108.74,1061.43 2087.88,1085.42 2071.22,1107.16 2045.11,1123.78 2020.59,1134.43 1986.81,1152.6 1964.08,1169.96 1936.93,1176.9 1905.72,1198.82 1894.83,1212.36 1858.38,1226.86 1844.06,1239.7 1823.87,1260.81 1804.64,1291.67 1800.57,1306.68 1794.85,1327.73 1787.51,1354.79 1814.25,1376.35 1818.66,1386.83 1811.32,1413.94 1803.96,1441.08 1786,1440.47 1761.17,1438.42 1737.85,1417.55 1727.28,1389.82 1714.25,1371.16 1688.36,1346.6 1645.39,1318.44 1624.03,1317.12 1588.19,1315.92 1549.86,1323.72 1507.27,1333.82 1489.35,1333.21 1449.15,1321.55 1426.88,1310.48 1405.38,1283.69 1404.29,1248.53 1398.04,1205.97 1378.31,1185.97 1358.6,1165.97 1364.36,1132.36 1360.8,1106.31 1353,1082.55 1340.05,1051.4 1321.24,1028.51 1317.69,1002.53 1324.29,966.104 1333.43,933.402 1351.92,905.844 1367.85,874.624 1380.36,842.718 1407.33,823.281 1400.38,796.752 1385.81,771.778 1353.5,746.241 1324.74,746.486 1306.9,733.368 1296.61,706.202 1292.2,670.916 1306.43,645.808 1318.98,626.603 1339.2,618.348 1375.43,604.091 1412.55,599.376 1453.04,595.371 1488.51,596.546 1512.08,589.002 1538,560.182 1553.87,541.725 1582.43,529.036 1601.78,523.745 1605.85,509.059 1592.21,493.811 1568.45,476.455 1543.06,464.967 1512.46,433.796 1493.74,411.321 1482.61,387.339 1466.47,368.514 1463.82,352.506 1470.36,329.137 1487.11,320.269 1505.7,330.3 1540.21,334.379 1582.29,336.926 1611.82,346.149 1653.1,351.624 1680.9,354.306 1712.21,370.082 1732.46,374.283 1759.32,367.497 1783.59,357.087 1817.19,351.698 1849.16,352.151 1879.37,346.063 1899.8,362.659 1910.11,377.149 1915.09,372.005 1927.44,352.947 1946.53,335.297 1963.23,326.418 1989.06,310.177 2004.94,304.212 1994.02,305.033 1966.04,289.992 1959.9,273.323 1947.63,239.996 1954.81,213.785 1964.72,203.546 1996.46,191.666 2030.94,195.72 2051.17,199.909 2089.04,204.661 2124.55,218.146 2143.42,240.498 2146.46,268.828 2139.35,295.063 2131.03,299.509 2133.04,318.42 2136.86,343.883 2130.75,379.66 2098.95,391.601 2081.1,431.187 2055.25,447.477 2033.75,473.981 2027.58,509.904 2005.67,511.546 1965.25,515.551 1929.18,529.771 1900.67,542.472 1885.88,570.458 1873.64,602.119 1874.62,611.648 1900.92,620.246 1932.42,636.144 1971.51,650.523 2004.04,675.999 2026.21,686.851 2067.74,692.387 2099.89,692.852 2140.43,688.835 2164.2,693.795 2189.57,692.84 2200.32,679.502 2216.84,658.031 2233.33,636.561 2229.47,610.877 2226.62,594.746 2215.97,567.678 2186.02,545.926 2168.85,529.954 2144.12,515.502 2096.91,518.098 2080.97,524.1 2054.29,543.378 2038.56,561.836 2009.45,589.957 2009.05,617.87 2014.62,650.156 2017.61,678.828 2035.79,704.439 2047.18,728.653 2062.18,766.144 2076.21,794.069 2106.02,803.427 2136.86,822.374 2164.54,853.202 2180.99,872.309 2196.9,906.983 2202.36,926.947 2199.98,935.864 2166.11,941.339 2125.66,957.996 2105.19,953.709 2092.57,960.495 2069.71,965.137 2045.86,960.139 2010.78,943.36 1983.52,937.652 1946.24,942.417 1898.91,957.641 1866.82,969.779 1831.13,968.59 1785.39,977.874 1753.12,977.397 1713.22,978.475 1685.97,972.767 1648.67,977.519 1618.04,971.101 1584,963.961 1543.79,927.217 1524.2,919.966 1483.42,911.417 1451.92,895.384 1423.83,880.074 1390.62,857.416 1370.24,853.153 1341.51,865.965 1315.34,882.451 1285.74,898.25 1244.29,917.847 1210.39,923.31 1186.62,918.325 1154.32,892.678 1138.99,870.607 1119.42,838.235 1093.95,814.07 1084.58,783.879 1081.13,758.097 1083.63,736.7 1068.34,702.222 1047.18,688.418 1018.44,676.158 999.835,653.524 991.369,620.54 989.653,601.47 976.99,570.765 987.937,545.019 1010.67,515.538 1017.4,504.503 1030.03,497.816 1041.81,481.624 1046.83,464.036 1054.37,437.678 1061.07,414.26 1066.06,384.302 1079.44,349.946 1076.89,333.938 1054.16,313.753 1036.49,300.807 1007.92,301.052 980.195,310.74 953.308,305.155 918.864,288.719 880.236,274.511 866.807,271.718 843.296,266.831 827.371,248.08 826.577,226.315 842.544,208.041 866.056,188.261 888.716,171.408 938.192,160.115 959.151,149.08 992.674,143.715 1021.19,155.791 1048.03,161.352 1084.92,156.686 1118.44,151.333 1135.15,130.193 1151.01,111.968 1164.34,90.1668 "/>
<polyline clip-path="url(#clip582)" style="stroke:#3da44d; stroke-linecap:round; stroke-linejoin:round; stroke-width:4; stroke-opacity:1; fill:none" points="259.326,723.579 269.57,720.542 281.229,719.644 294.179,719.104 309.771,720.115 329.8,722.935 350.141,723.992 372.915,727.8 398.262,730.011 424.558,733.253 451.072,734.733 477.748,735.88 503.064,736.802 530.611,739.099 556.176,741.66 583.265,746.011 609.961,750.589 636.472,755.701 661.224,763.564 684.921,768.993 708.205,775.825 732.727,782.404 759.115,788.335 784.046,796.947 810.666,802.067 836.016,809.334 863.011,811.075 891.253,814.97 918.376,820.822 942.907,829.457 969.403,837.243 993.259,846.43 1015.64,855.367 1034.56,862.848 1051.06,869.567 1069.24,875.273 1089.14,879.407 1108.01,884.21 1130.02,888.7 1155.17,893.762 1180.29,899.886 1205.16,907.417 1230.77,912.499 1256.85,916.295 1284.49,919.47 1312.9,921.75 1341.69,923.888 1368.2,929.948 1396.1,932.74 1423.76,933.049 1451.02,934.547 1477.55,934.858 1503.16,933.395 1530.61,932.165 1557.79,929.492 1583.54,925.64 1608.97,926.146 1632.77,923.128 1654.76,920.525 1675.09,915.993 1695.31,911.883 1714.61,908.322 1734.42,908.593 1754.18,909.079 1775.82,910.758 1794.28,915.664 1813.07,923.194 1831.44,933.297 1849.91,944.268 1866.08,956.777 1882.53,969.366 1895.01,983.042 1905.49,998.226 1917.44,1011.91 1929.54,1026.11 1941.6,1038.2 1953.84,1047.99 1967.46,1053.76 1982.45,1054.75 1998.92,1052.81 2013.49,1047.3 2027.59,1037.34 2038.08,1023.67 2047.61,1009.4 2052.86,994.227 2052.63,978 2045.13,963.824 2034.33,950.367 2015.4,945.085 1996.04,939.866 1976.06,934.627 1955.71,931.522 1937.17,927.607 1916.6,926.04 1895.55,927.249 1875.06,931.921 1854.35,935.965 1832.63,938.234 1811.01,938.952 1786.9,935.464 1761.9,930.678 1739.61,921.836 1716.23,910.345 1691.38,895.336 1669.57,880.754 1649.93,867.124 1633.27,852.407 1620.33,837.161 1605.92,823.464 1593.88,808.873 1584.38,793.479 1580.24,777.448 1584.58,764.147 1595.06,753.04 1608.61,746.373 1625.53,741.751 1645.21,737.673 1663.85,737.897 1682.24,743.569 1700.75,748.955 1717.57,755.398 1735.3,762.244 1753.23,772.002 1770.79,781.335 1789.07,789.427 1807.53,797.321 1828.52,802.594 1849.33,806.241 1870.62,806.538 1890.89,805.115 1911.14,806.036 1928.65,811.101 1945.99,817.827 1961.45,829.563 1972.68,844.097 1983.24,859.455 1991.36,876.966 1998.98,894.465 2004.6,911.315 2008.68,926.859 2011.92,942.066 2016.44,957.031 2024.88,971.672 2034.64,984.276 2046.38,993.962 2056.99,1000.59 2068.86,1005.08 2084.38,1003.94 2098.98,996.969 2112.31,988.22 2123.85,977.246 2128.77,965.454 2129.84,949.63 2118,933.7 2103.36,920.826 2087.62,907.986 2068.8,898.904 2046.46,893.015 2025.05,888.117 2004.19,883.171 1984.29,879.194 1966.05,874.212 1946.8,869.524 1925.78,864.179 1907.27,858.307 1887.6,856.117 1868.49,854.99 1848.91,850.494 1828.49,847.603 1806.48,846.223 1785.98,842.604 1765.64,838.119 1747.17,836.21 1727.74,834.113 1707.03,834.455 1689.34,834.4 1675.14,833.244 1662.38,831.474 1652.51,830.441 1641.29,829.55 1630.17,829.914 1617.61,831.122 1603.74,834.448 1589.34,838.503 1574.18,845.222 1558.68,853.82 1547.68,865.298 1533.34,859.243 1549.26,849.384 1565.24,857.159 1584.4,844.354 1601.42,829.018 1614.28,811.517 1622.03,798.648 1617.74,781.919 1596.79,771.615 1586.94,757.783 1580.32,741.978 1564.66,734.987 1542.11,739.179 1518.17,737.459 1498.31,728.126 1485.11,710.751 1477.44,694.296 1482.63,674.512 1489.13,653.498 1504.37,636.755 1512.83,617.244 1509.57,597.419 1488.62,595.703 1471.72,582.637 1464.2,563.348 1483.18,551.804 1510.54,545.557 1541.44,546.192 1572.43,536.905 1598.68,518.995 1612.57,494.677 1621.7,469.211 1649.08,455.573 1678.2,461.587 1702.14,474.541 1721.56,489.906 1743.82,504.616 1767.93,518.236 1776.91,541.473 1765.41,563.385 1740.87,575.638 1713.98,586.498 1682.9,591.551 1652.89,587.597 1626.28,574.933 1599.63,561.434 1587.73,537.966 1592.86,514.895 1613.99,515.041 1629.32,497.786 1655.29,492.781 1671.24,477.975 1686.46,455.646 1702.69,436.088 1725.62,441.034 1747.48,434.621 1756.01,417.765 1768.43,401.2 1785.45,391.855 1796.98,382.958 1790.31,368.058 1774.98,360.516 1769.2,350.275 1780.13,336.162 1809.09,335.082 1833.43,340.728 1858.24,345.29 1884.48,352.506 1908.96,363.294 1914.07,386.221 1895.89,404.57 1869.28,412.314 1860.3,437.909 1852.63,463.467 1849.19,489.733 1837.84,513.43 1808.62,512.7 1783.25,523.267 1754.78,535.398 1728.57,552.329 1717.87,578.961 1693.56,593.62 1663.72,592.883 1639.87,582.188 1614.95,573.313 1594.93,559.726 1571.62,544.211 1559.42,525.596 1573.57,507.946 1602.53,499.209 1633.2,497.921 1661.78,500.827 1691.55,507.14 1714.62,520.884 1721.66,542.871 1734.52,560.149 1757.01,567.564 1779.38,577.001 1800.95,583.964 1823.55,583.987 1847.41,579.439 1868.73,568.916 1887.11,554.545 1911.35,563.357 1927.88,582.685 1928.52,607.38 1925.11,631.461 1909.66,655.843 1885.04,674.992 1865.84,698.056 1852.94,723.701 1836.97,746.653 1807.77,756.589 1780.61,767.003 1750.54,776.451 1727.06,794.146 1709.91,815.888 1691.14,838.723 1671.16,860.722 1639.55,863.937 1610.06,859.02 1580.67,855.72 1555.36,843.937 1525.45,839.179 1512.15,817.472 1492.35,794.549 1474.43,773.859 1458.12,755.045 1431,742.461 1404.88,737.109 1376.87,742.715 1357.55,743.481 1338.4,726.88 1330.52,707.035 1308.93,696.419 1284.88,699.201 1264.94,710.239 1250.89,726.74 1229.94,737.251 1202.56,740.515 1177.37,740.553 1155.13,731.73 1136.53,714.952 1111.33,705.546 1085.04,698.642 1054.64,699.098 1026.12,697.266 1002.03,682.833 986.055,663.557 990.56,642.667 996.08,619.929 1011.68,599.716 1027.39,578.362 1034.14,554.002 1033.58,528.816 1016.89,511.089 992.79,506.053 990.223,485.298 1009.53,469.593 1034.4,474.378 1063.08,474.689 1096.56,475.115 1130.95,466.848 1160.66,452.037 1185.85,428.836 1213.65,406.856 1248.26,399.039 1279.23,412.523 1310.17,419.764 1338.95,436.14 1362.69,451.561 1392.49,463.201 1415.22,479.897 1445.21,480.651 1476.23,496.579 1504.09,519.233 1530.54,539.825 1555.2,558.723 1577.56,573.616 1595.73,590.179 1617.08,573.971 1642.74,563.251 1657.73,545.728 1686.53,534.509 1716.78,523.871 1751.26,524.86 1787.22,529.961 1808.27,556.844 1815.21,586.252 1808.31,617.979 1789.52,645.109 1786.84,676.076 1779.82,707.318 1782.9,741.881 1796.32,770.747 1825.63,791.937 1860.26,788.026 1894.33,788.408 1918.86,806.981 1942.41,827.692 1965.81,850.112 1985.28,875.506 1982.96,907.035 1991.84,935.312 2017.08,915.119 2053.3,914.962 2076.81,930.189 2080.17,953.393 2089.56,949.986 2099.8,957.148 2091.78,967.103 2105.28,976.835 2122.19,978.812 2146.29,983.284 2169.62,979.261 2191.82,980.825 2199.41,1001.11 2203.74,1020.87 2208.57,1032.68 2216.89,1015.13 2220.93,995.797 2207.6,973.353 2205.13,947.611 2194.69,923.232 2186.32,901.643 2176.28,878.235 2152.7,861.014 2145.41,834.445 2149.98,808.869 2168.11,791.363 2195.62,788.571 2219.78,803.309 2238.4,823.64 2253.79,844.556 2276.31,860.485 2291.2,883.58 2270.99,902.692 2257.78,925.579 2238.58,948.03 2209.16,958.689 2194.33,984.885 2163.99,996.608 2136.23,1013.89 2122.61,1039.02 2111.86,1065.12 2087.37,1084.9 2069.59,1107.07 2047.16,1125.78 2019.24,1137.64 1993.84,1153.73 1966.29,1168.98 1936.68,1182.51 1914.54,1201.68 1891.41,1216 1862.63,1223.01 1843.98,1242.3 1823.8,1260.75 1807.42,1282.96 1801.08,1306.27 1797.43,1330.4 1793.04,1355.02 1809.98,1376.19 1820.39,1396.2 1816.6,1419.96 1805.52,1439.14 1778.89,1445.72 1756.77,1432.43 1737.57,1412.27 1729.44,1385.73 1710.59,1363.14 1688.03,1343.04 1658.7,1323.86 1624.17,1317.03 1586.86,1314.99 1550.77,1323.18 1517.83,1334.73 1484.18,1329.95 1450.39,1322.51 1421.43,1304.82 1413.96,1280.03 1403.87,1250.41 1393.76,1220.53 1378.83,1191.69 1362.16,1166.46 1361.56,1137.28 1363.56,1107.92 1355.55,1078.42 1345.38,1050.32 1319.9,1030.03 1319.52,999.054 1321.17,967.541 1332.65,936.324 1351.27,907.716 1371.81,879.001 1380,846.065 1407.41,825.706 1398.73,797.58 1385.27,769.716 1362.88,752.184 1329.42,750.739 1304.7,732.263 1290.02,706.162 1291.84,676.04 1310.19,650.074 1321.16,624.644 1349.03,612.674 1380.55,604.147 1412.8,597.173 1445.46,597.398 1479.62,598.326 1510.72,588.32 1533.38,566.153 1554.79,547.116 1576.09,531.327 1604.22,522.849 1619.86,498.102 1588.58,491.431 1566.67,470.372 1535.11,459.736 1512.14,441.824 1500.07,418.006 1484.89,393.393 1468.05,371.693 1454.97,348.024 1467.49,324.535 1495.22,320.785 1517.39,333.335 1548.33,334.363 1582.51,338.494 1614.63,345.068 1646.68,349.002 1680.54,349.593 1707.2,371.84 1734.34,368.152 1760.6,368.592 1784.34,355.55 1815.53,348.609 1845.34,342.535 1873.57,344.39 1897.69,361.006 1903.53,380.976 1918.65,369.214 1927.53,353.253 1944.34,338.384 1965.57,329.937 1984.92,321.266 2000.27,311.292 1988.41,302.712 1972.66,286.384 1958.32,267.525 1946.44,243.206 1947.34,216.906 1969.12,196.766 1998.22,192.949 2029.17,199.194 2057.71,195.061 2090.01,203.317 2122.81,215.525 2141.29,237.899 2142.61,263.842 2141.65,289.928 2126.55,303.957 2138.25,326.017 2140.23,350.472 2127.89,377.447 2098.94,396.455 2085.2,426.165 2059.21,450.247 2040.44,477.287 2030.91,508.059 1996.38,512.965 1960.09,516.577 1926.92,524.28 1898.07,542.194 1884.12,569.213 1868.35,593.222 1873.79,618.531 1906.51,622.197 1935.14,639.258 1965.25,654.02 1995.73,670.228 2029.22,683.863 2063.11,691.693 2096.8,694.91 2130.44,689.71 2160.76,693.74 2187.62,696.14 2198.11,674.882 2213.67,657.798 2233.06,637.832 2233.42,610.94 2223.18,590.97 2210.81,569.027 2188.84,550.891 2165.44,532.023 2140.15,513.385 2108.9,516.754 2079.23,524.913 2058.7,545.434 2032.51,564.478 2012.08,587.595 2007.77,618.379 2012.37,649.985 2022.47,677.821 2037.99,704.156 2048.58,733.163 2058.87,764.755 2074.33,794.073 2109.23,806.757 2140.5,823.897 2168.82,844.169 2183.84,871.078 2197.83,897.211 2209.98,920.932 2198.2,943.325 2168.94,938.382 2138.01,950.894 2115.4,959.21 2088.68,962.66 2063.65,967.231 2040.61,955.248 2010.09,946.646 1978.41,940.468 1943.19,944.691 1906.96,956.811 1869.29,968.811 1830.88,968.115 1790.63,974.879 1753.75,978.163 1717.34,979.804 1683.14,977.544 1648.27,980.539 1613.86,970.493 1578.4,957.372 1553.12,931.923 1518.57,920.609 1483.85,914.436 1452.4,898.881 1423.21,880.793 1395.43,860.433 1363.06,847.223 1336.36,864.763 1313.56,885.115 1285.01,904.143 1251.13,917.248 1216.27,926.442 1180.41,918.032 1159.54,891.641 1139.71,865.793 1120.42,839.036 1096.22,816.4 1078.1,789.092 1090.35,762.506 1081.93,733.828 1068.68,707.733 1045.18,690.701 1017.02,677.677 1001.63,654.811 991.13,627.719 982.23,602.208 976.915,573.597 987.588,548.212 996.301,524.921 1017.6,509.834 1036.19,499.379 1046.82,481.625 1052.34,459.953 1058.65,437.51 1061.51,412.355 1071.19,386.921 1079.58,360.489 1078.01,333.375 1055.45,316.85 1035.3,299.535 1008.72,304.242 981.584,310.314 950.844,301.492 921.229,290.886 892.758,279.12 861.917,281.578 842.875,264.846 825.645,247.767 823.422,224.368 842.422,204.588 866.176,186.24 893.845,167.547 929.584,162.008 960.293,154.201 991.125,144.418 1019.08,153.321 1050.36,163.021 1083.97,164.766 1116.28,156.365 1131.19,131.618 1144.44,109.942 1157.73,87.9763 "/>
<path clip-path="url(#clip580)" d="M250.367 1438.47 L793.155 1438.47 L793.155 1231.11 L250.367 1231.11  Z" fill="#ffffff" fill-rule="evenodd" fill-opacity="1"/>
<polyline clip-path="url(#clip580)" style="stroke:#000000; stroke-linecap:round; stroke-linejoin:round; stroke-width:4; stroke-opacity:1; fill:none" points="250.367,1438.47 793.155,1438.47 793.155,1231.11 250.367,1231.11 250.367,1438.47 "/>
<polyline clip-path="url(#clip580)" style="stroke:#0000ff; stroke-linecap:round; stroke-linejoin:round; stroke-width:4; stroke-opacity:1; fill:none" points="274.533,1282.95 419.525,1282.95 "/>
<path clip-path="url(#clip580)" d="M467.718 1286.21 L467.718 1288.29 L448.135 1288.29 Q448.413 1292.69 450.774 1295 Q453.158 1297.29 457.394 1297.29 Q459.848 1297.29 462.139 1296.69 Q464.454 1296.09 466.723 1294.89 L466.723 1298.91 Q464.431 1299.89 462.024 1300.4 Q459.616 1300.91 457.14 1300.91 Q450.936 1300.91 447.302 1297.29 Q443.691 1293.68 443.691 1287.53 Q443.691 1281.16 447.116 1277.43 Q450.565 1273.68 456.399 1273.68 Q461.63 1273.68 464.663 1277.06 Q467.718 1280.42 467.718 1286.21 M463.459 1284.96 Q463.413 1281.46 461.491 1279.38 Q459.593 1277.29 456.445 1277.29 Q452.88 1277.29 450.728 1279.31 Q448.598 1281.32 448.274 1284.98 L463.459 1284.96 Z" fill="#000000" fill-rule="nonzero" fill-opacity="1" /><path clip-path="url(#clip580)" d="M491.237 1275.07 L491.237 1279.1 Q489.431 1278.17 487.487 1277.71 Q485.542 1277.25 483.459 1277.25 Q480.288 1277.25 478.69 1278.22 Q477.116 1279.19 477.116 1281.14 Q477.116 1282.62 478.251 1283.48 Q479.385 1284.31 482.811 1285.07 L484.269 1285.4 Q488.806 1286.37 490.704 1288.15 Q492.625 1289.91 492.625 1293.08 Q492.625 1296.69 489.755 1298.8 Q486.908 1300.91 481.908 1300.91 Q479.825 1300.91 477.556 1300.49 Q475.311 1300.1 472.811 1299.29 L472.811 1294.89 Q475.172 1296.11 477.463 1296.74 Q479.755 1297.34 482 1297.34 Q485.01 1297.34 486.63 1296.32 Q488.25 1295.28 488.25 1293.41 Q488.25 1291.67 487.07 1290.74 Q485.912 1289.82 481.954 1288.96 L480.473 1288.61 Q476.514 1287.78 474.755 1286.07 Q472.996 1284.33 472.996 1281.32 Q472.996 1277.67 475.588 1275.67 Q478.181 1273.68 482.95 1273.68 Q485.311 1273.68 487.394 1274.03 Q489.477 1274.38 491.237 1275.07 Z" fill="#000000" fill-rule="nonzero" fill-opacity="1" /><path clip-path="url(#clip580)" d="M503.621 1266.95 L503.621 1274.31 L512.394 1274.31 L512.394 1277.62 L503.621 1277.62 L503.621 1291.69 Q503.621 1294.86 504.477 1295.77 Q505.357 1296.67 508.019 1296.67 L512.394 1296.67 L512.394 1300.23 L508.019 1300.23 Q503.088 1300.23 501.213 1298.41 Q499.338 1296.55 499.338 1291.69 L499.338 1277.62 L496.213 1277.62 L496.213 1274.31 L499.338 1274.31 L499.338 1266.95 L503.621 1266.95 Z" fill="#000000" fill-rule="nonzero" fill-opacity="1" /><path clip-path="url(#clip580)" d="M517.996 1274.31 L522.255 1274.31 L522.255 1300.23 L517.996 1300.23 L517.996 1274.31 M517.996 1264.22 L522.255 1264.22 L522.255 1269.61 L517.996 1269.61 L517.996 1264.22 Z" fill="#000000" fill-rule="nonzero" fill-opacity="1" /><path clip-path="url(#clip580)" d="M551.352 1279.29 Q552.949 1276.42 555.171 1275.05 Q557.394 1273.68 560.403 1273.68 Q564.454 1273.68 566.653 1276.53 Q568.852 1279.35 568.852 1284.59 L568.852 1300.23 L564.569 1300.23 L564.569 1284.73 Q564.569 1281 563.25 1279.19 Q561.931 1277.39 559.222 1277.39 Q555.912 1277.39 553.991 1279.59 Q552.07 1281.79 552.07 1285.58 L552.07 1300.23 L547.787 1300.23 L547.787 1284.73 Q547.787 1280.98 546.468 1279.19 Q545.148 1277.39 542.394 1277.39 Q539.13 1277.39 537.209 1279.61 Q535.287 1281.81 535.287 1285.58 L535.287 1300.23 L531.005 1300.23 L531.005 1274.31 L535.287 1274.31 L535.287 1278.34 Q536.746 1275.95 538.783 1274.82 Q540.82 1273.68 543.621 1273.68 Q546.445 1273.68 548.412 1275.12 Q550.403 1276.55 551.352 1279.29 Z" fill="#000000" fill-rule="nonzero" fill-opacity="1" /><path clip-path="url(#clip580)" d="M589.13 1287.2 Q583.968 1287.2 581.977 1288.38 Q579.986 1289.56 579.986 1292.41 Q579.986 1294.68 581.468 1296.02 Q582.972 1297.34 585.542 1297.34 Q589.083 1297.34 591.213 1294.84 Q593.366 1292.32 593.366 1288.15 L593.366 1287.2 L589.13 1287.2 M597.625 1285.44 L597.625 1300.23 L593.366 1300.23 L593.366 1296.3 Q591.907 1298.66 589.731 1299.79 Q587.555 1300.91 584.407 1300.91 Q580.426 1300.91 578.065 1298.68 Q575.727 1296.44 575.727 1292.69 Q575.727 1288.31 578.643 1286.09 Q581.583 1283.87 587.393 1283.87 L593.366 1283.87 L593.366 1283.45 Q593.366 1280.51 591.421 1278.92 Q589.5 1277.29 586.005 1277.29 Q583.782 1277.29 581.676 1277.83 Q579.569 1278.36 577.625 1279.42 L577.625 1275.49 Q579.963 1274.59 582.162 1274.15 Q584.361 1273.68 586.444 1273.68 Q592.069 1273.68 594.847 1276.6 Q597.625 1279.52 597.625 1285.44 Z" fill="#000000" fill-rule="nonzero" fill-opacity="1" /><path clip-path="url(#clip580)" d="M610.611 1266.95 L610.611 1274.31 L619.384 1274.31 L619.384 1277.62 L610.611 1277.62 L610.611 1291.69 Q610.611 1294.86 611.467 1295.77 Q612.347 1296.67 615.009 1296.67 L619.384 1296.67 L619.384 1300.23 L615.009 1300.23 Q610.078 1300.23 608.204 1298.41 Q606.329 1296.55 606.329 1291.69 L606.329 1277.62 L603.204 1277.62 L603.204 1274.31 L606.329 1274.31 L606.329 1266.95 L610.611 1266.95 Z" fill="#000000" fill-rule="nonzero" fill-opacity="1" /><path clip-path="url(#clip580)" d="M647.162 1286.21 L647.162 1288.29 L627.578 1288.29 Q627.856 1292.69 630.217 1295 Q632.602 1297.29 636.838 1297.29 Q639.291 1297.29 641.583 1296.69 Q643.898 1296.09 646.166 1294.89 L646.166 1298.91 Q643.875 1299.89 641.467 1300.4 Q639.06 1300.91 636.583 1300.91 Q630.379 1300.91 626.745 1297.29 Q623.134 1293.68 623.134 1287.53 Q623.134 1281.16 626.56 1277.43 Q630.009 1273.68 635.842 1273.68 Q641.074 1273.68 644.106 1277.06 Q647.162 1280.42 647.162 1286.21 M642.902 1284.96 Q642.856 1281.46 640.935 1279.38 Q639.037 1277.29 635.889 1277.29 Q632.324 1277.29 630.171 1279.31 Q628.041 1281.32 627.717 1284.98 L642.902 1284.96 Z" fill="#000000" fill-rule="nonzero" fill-opacity="1" /><polyline clip-path="url(#clip580)" style="stroke:#ff0000; stroke-linecap:round; stroke-linejoin:round; stroke-width:4; stroke-opacity:1; fill:none" points="274.533,1334.79 419.525,1334.79 "/>
<path clip-path="url(#clip580)" d="M464.038 1331.13 Q465.635 1328.26 467.857 1326.89 Q470.079 1325.52 473.088 1325.52 Q477.139 1325.52 479.338 1328.37 Q481.538 1331.19 481.538 1336.43 L481.538 1352.07 L477.255 1352.07 L477.255 1336.57 Q477.255 1332.84 475.936 1331.03 Q474.616 1329.23 471.908 1329.23 Q468.598 1329.23 466.676 1331.43 Q464.755 1333.63 464.755 1337.42 L464.755 1352.07 L460.473 1352.07 L460.473 1336.57 Q460.473 1332.82 459.153 1331.03 Q457.834 1329.23 455.079 1329.23 Q451.815 1329.23 449.894 1331.45 Q447.973 1333.65 447.973 1337.42 L447.973 1352.07 L443.691 1352.07 L443.691 1326.15 L447.973 1326.15 L447.973 1330.18 Q449.431 1327.79 451.468 1326.66 Q453.505 1325.52 456.306 1325.52 Q459.13 1325.52 461.098 1326.96 Q463.089 1328.39 464.038 1331.13 Z" fill="#000000" fill-rule="nonzero" fill-opacity="1" /><path clip-path="url(#clip580)" d="M512.209 1338.05 L512.209 1340.13 L492.625 1340.13 Q492.903 1344.53 495.264 1346.84 Q497.649 1349.13 501.885 1349.13 Q504.338 1349.13 506.63 1348.53 Q508.945 1347.93 511.213 1346.73 L511.213 1350.75 Q508.922 1351.73 506.514 1352.24 Q504.107 1352.75 501.63 1352.75 Q495.426 1352.75 491.792 1349.13 Q488.181 1345.52 488.181 1339.37 Q488.181 1333 491.607 1329.27 Q495.056 1325.52 500.889 1325.52 Q506.121 1325.52 509.153 1328.9 Q512.209 1332.26 512.209 1338.05 M507.949 1336.8 Q507.903 1333.3 505.982 1331.22 Q504.084 1329.13 500.936 1329.13 Q497.371 1329.13 495.218 1331.15 Q493.088 1333.16 492.764 1336.82 L507.949 1336.8 Z" fill="#000000" fill-rule="nonzero" fill-opacity="1" /><path clip-path="url(#clip580)" d="M530.982 1339.04 Q525.82 1339.04 523.829 1340.22 Q521.838 1341.4 521.838 1344.25 Q521.838 1346.52 523.32 1347.86 Q524.824 1349.18 527.394 1349.18 Q530.935 1349.18 533.065 1346.68 Q535.218 1344.16 535.218 1339.99 L535.218 1339.04 L530.982 1339.04 M539.477 1337.28 L539.477 1352.07 L535.218 1352.07 L535.218 1348.14 Q533.759 1350.5 531.584 1351.63 Q529.408 1352.75 526.26 1352.75 Q522.278 1352.75 519.917 1350.52 Q517.579 1348.28 517.579 1344.53 Q517.579 1340.15 520.496 1337.93 Q523.435 1335.71 529.246 1335.71 L535.218 1335.71 L535.218 1335.29 Q535.218 1332.35 533.273 1330.76 Q531.352 1329.13 527.857 1329.13 Q525.635 1329.13 523.528 1329.67 Q521.422 1330.2 519.477 1331.26 L519.477 1327.33 Q521.815 1326.43 524.014 1325.99 Q526.213 1325.52 528.297 1325.52 Q533.922 1325.52 536.699 1328.44 Q539.477 1331.36 539.477 1337.28 Z" fill="#000000" fill-rule="nonzero" fill-opacity="1" /><path clip-path="url(#clip580)" d="M564.778 1326.91 L564.778 1330.94 Q562.972 1330.01 561.028 1329.55 Q559.083 1329.09 557 1329.09 Q553.829 1329.09 552.232 1330.06 Q550.658 1331.03 550.658 1332.98 Q550.658 1334.46 551.792 1335.32 Q552.926 1336.15 556.352 1336.91 L557.81 1337.24 Q562.347 1338.21 564.245 1339.99 Q566.167 1341.75 566.167 1344.92 Q566.167 1348.53 563.296 1350.64 Q560.449 1352.75 555.449 1352.75 Q553.366 1352.75 551.097 1352.33 Q548.852 1351.94 546.352 1351.13 L546.352 1346.73 Q548.713 1347.95 551.005 1348.58 Q553.296 1349.18 555.542 1349.18 Q558.551 1349.18 560.171 1348.16 Q561.792 1347.12 561.792 1345.25 Q561.792 1343.51 560.611 1342.58 Q559.454 1341.66 555.495 1340.8 L554.014 1340.45 Q550.056 1339.62 548.296 1337.91 Q546.537 1336.17 546.537 1333.16 Q546.537 1329.51 549.13 1327.51 Q551.722 1325.52 556.491 1325.52 Q558.852 1325.52 560.935 1325.87 Q563.019 1326.22 564.778 1326.91 Z" fill="#000000" fill-rule="nonzero" fill-opacity="1" /><path clip-path="url(#clip580)" d="M572.509 1341.84 L572.509 1326.15 L576.768 1326.15 L576.768 1341.68 Q576.768 1345.36 578.204 1347.21 Q579.639 1349.04 582.509 1349.04 Q585.958 1349.04 587.949 1346.84 Q589.963 1344.64 589.963 1340.85 L589.963 1326.15 L594.222 1326.15 L594.222 1352.07 L589.963 1352.07 L589.963 1348.09 Q588.412 1350.45 586.352 1351.61 Q584.315 1352.75 581.606 1352.75 Q577.139 1352.75 574.824 1349.97 Q572.509 1347.19 572.509 1341.84 M583.227 1325.52 L583.227 1325.52 Z" fill="#000000" fill-rule="nonzero" fill-opacity="1" /><path clip-path="url(#clip580)" d="M618.018 1330.13 Q617.301 1329.71 616.444 1329.53 Q615.611 1329.32 614.592 1329.32 Q610.981 1329.32 609.037 1331.68 Q607.116 1334.02 607.116 1338.42 L607.116 1352.07 L602.833 1352.07 L602.833 1326.15 L607.116 1326.15 L607.116 1330.18 Q608.458 1327.82 610.611 1326.68 Q612.764 1325.52 615.842 1325.52 Q616.282 1325.52 616.815 1325.59 Q617.347 1325.64 617.995 1325.76 L618.018 1330.13 Z" fill="#000000" fill-rule="nonzero" fill-opacity="1" /><path clip-path="url(#clip580)" d="M643.62 1338.05 L643.62 1340.13 L624.037 1340.13 Q624.315 1344.53 626.676 1346.84 Q629.06 1349.13 633.296 1349.13 Q635.75 1349.13 638.041 1348.53 Q640.356 1347.93 642.625 1346.73 L642.625 1350.75 Q640.333 1351.73 637.926 1352.24 Q635.518 1352.75 633.041 1352.75 Q626.838 1352.75 623.203 1349.13 Q619.592 1345.52 619.592 1339.37 Q619.592 1333 623.018 1329.27 Q626.467 1325.52 632.301 1325.52 Q637.532 1325.52 640.564 1328.9 Q643.62 1332.26 643.62 1338.05 M639.361 1336.8 Q639.314 1333.3 637.393 1331.22 Q635.495 1329.13 632.347 1329.13 Q628.782 1329.13 626.629 1331.15 Q624.5 1333.16 624.176 1336.82 L639.361 1336.8 Z" fill="#000000" fill-rule="nonzero" fill-opacity="1" /><path clip-path="url(#clip580)" d="M670.796 1331.13 Q672.393 1328.26 674.615 1326.89 Q676.837 1325.52 679.847 1325.52 Q683.898 1325.52 686.097 1328.37 Q688.296 1331.19 688.296 1336.43 L688.296 1352.07 L684.013 1352.07 L684.013 1336.57 Q684.013 1332.84 682.694 1331.03 Q681.374 1329.23 678.666 1329.23 Q675.356 1329.23 673.435 1331.43 Q671.513 1333.63 671.513 1337.42 L671.513 1352.07 L667.231 1352.07 L667.231 1336.57 Q667.231 1332.82 665.912 1331.03 Q664.592 1329.23 661.837 1329.23 Q658.574 1329.23 656.652 1331.45 Q654.731 1333.65 654.731 1337.42 L654.731 1352.07 L650.449 1352.07 L650.449 1326.15 L654.731 1326.15 L654.731 1330.18 Q656.189 1327.79 658.226 1326.66 Q660.263 1325.52 663.064 1325.52 Q665.888 1325.52 667.856 1326.96 Q669.847 1328.39 670.796 1331.13 Z" fill="#000000" fill-rule="nonzero" fill-opacity="1" /><path clip-path="url(#clip580)" d="M718.967 1338.05 L718.967 1340.13 L699.384 1340.13 Q699.661 1344.53 702.022 1346.84 Q704.407 1349.13 708.643 1349.13 Q711.096 1349.13 713.388 1348.53 Q715.703 1347.93 717.971 1346.73 L717.971 1350.75 Q715.68 1351.73 713.272 1352.24 Q710.865 1352.75 708.388 1352.75 Q702.184 1352.75 698.55 1349.13 Q694.939 1345.52 694.939 1339.37 Q694.939 1333 698.365 1329.27 Q701.814 1325.52 707.647 1325.52 Q712.879 1325.52 715.911 1328.9 Q718.967 1332.26 718.967 1338.05 M714.708 1336.8 Q714.661 1333.3 712.74 1331.22 Q710.842 1329.13 707.694 1329.13 Q704.129 1329.13 701.976 1331.15 Q699.847 1333.16 699.522 1336.82 L714.708 1336.8 Z" fill="#000000" fill-rule="nonzero" fill-opacity="1" /><path clip-path="url(#clip580)" d="M747.508 1336.43 L747.508 1352.07 L743.249 1352.07 L743.249 1336.57 Q743.249 1332.88 741.814 1331.06 Q740.379 1329.23 737.508 1329.23 Q734.059 1329.23 732.069 1331.43 Q730.078 1333.63 730.078 1337.42 L730.078 1352.07 L725.795 1352.07 L725.795 1326.15 L730.078 1326.15 L730.078 1330.18 Q731.606 1327.84 733.666 1326.68 Q735.749 1325.52 738.457 1325.52 Q742.925 1325.52 745.217 1328.3 Q747.508 1331.06 747.508 1336.43 Z" fill="#000000" fill-rule="nonzero" fill-opacity="1" /><path clip-path="url(#clip580)" d="M760.217 1318.79 L760.217 1326.15 L768.99 1326.15 L768.99 1329.46 L760.217 1329.46 L760.217 1343.53 Q760.217 1346.7 761.073 1347.61 Q761.953 1348.51 764.615 1348.51 L768.99 1348.51 L768.99 1352.07 L764.615 1352.07 Q759.684 1352.07 757.809 1350.25 Q755.934 1348.39 755.934 1343.53 L755.934 1329.46 L752.809 1329.46 L752.809 1326.15 L755.934 1326.15 L755.934 1318.79 L760.217 1318.79 Z" fill="#000000" fill-rule="nonzero" fill-opacity="1" /><polyline clip-path="url(#clip580)" style="stroke:#3da44d; stroke-linecap:round; stroke-linejoin:round; stroke-width:4; stroke-opacity:1; fill:none" points="274.533,1386.63 419.525,1386.63 "/>
<path clip-path="url(#clip580)" d="M468.343 1377.99 L458.968 1390.6 L468.829 1403.91 L463.806 1403.91 L456.26 1393.73 L448.714 1403.91 L443.691 1403.91 L453.76 1390.35 L444.547 1377.99 L449.57 1377.99 L456.445 1387.22 L463.32 1377.99 L468.343 1377.99 Z" fill="#000000" fill-rule="nonzero" fill-opacity="1" /><path clip-path="url(#clip580)" d="M491.375 1378.75 L491.375 1382.78 Q489.57 1381.85 487.625 1381.39 Q485.681 1380.93 483.598 1380.93 Q480.426 1380.93 478.829 1381.9 Q477.255 1382.87 477.255 1384.82 Q477.255 1386.3 478.389 1387.16 Q479.524 1387.99 482.95 1388.75 L484.408 1389.08 Q488.945 1390.05 490.843 1391.83 Q492.764 1393.59 492.764 1396.76 Q492.764 1400.37 489.894 1402.48 Q487.047 1404.59 482.047 1404.59 Q479.963 1404.59 477.695 1404.17 Q475.45 1403.78 472.95 1402.97 L472.95 1398.57 Q475.311 1399.79 477.602 1400.42 Q479.894 1401.02 482.139 1401.02 Q485.149 1401.02 486.769 1400 Q488.389 1398.96 488.389 1397.09 Q488.389 1395.35 487.209 1394.42 Q486.051 1393.5 482.093 1392.64 L480.612 1392.29 Q476.653 1391.46 474.894 1389.75 Q473.135 1388.01 473.135 1385 Q473.135 1381.35 475.727 1379.35 Q478.32 1377.36 483.088 1377.36 Q485.45 1377.36 487.533 1377.71 Q489.616 1378.06 491.375 1378.75 Z" fill="#000000" fill-rule="nonzero" fill-opacity="1" /></svg>
