<?xml version="1.0" encoding="utf-8"?>
<svg xmlns="http://www.w3.org/2000/svg" xmlns:xlink="http://www.w3.org/1999/xlink" width="600" height="400" viewBox="0 0 2400 1600">
<defs>
  <clipPath id="clip360">
    <rect x="0" y="0" width="2400" height="1600"/>
  </clipPath>
</defs>
<path clip-path="url(#clip360)" d="M0 1600 L2400 1600 L2400 0 L0 0  Z" fill="#ffffff" fill-rule="evenodd" fill-opacity="1"/>
<defs>
  <clipPath id="clip361">
    <rect x="480" y="0" width="1681" height="1600"/>
  </clipPath>
</defs>
<path clip-path="url(#clip360)" d="M269.352 1410.9 L2352.76 1410.9 L2352.76 123.472 L269.352 123.472  Z" fill="#ffffff" fill-rule="evenodd" fill-opacity="1"/>
<defs>
  <clipPath id="clip362">
    <rect x="269" y="123" width="2084" height="1288"/>
  </clipPath>
</defs>
<polyline clip-path="url(#clip362)" style="stroke:#000000; stroke-linecap:round; stroke-linejoin:round; stroke-width:2; stroke-opacity:0.1; fill:none" points="1114.51,1410.9 1114.51,123.472 "/>
<polyline clip-path="url(#clip362)" style="stroke:#000000; stroke-linecap:round; stroke-linejoin:round; stroke-width:2; stroke-opacity:0.1; fill:none" points="2097.24,1410.9 2097.24,123.472 "/>
<polyline clip-path="url(#clip362)" style="stroke:#000000; stroke-linecap:round; stroke-linejoin:round; stroke-width:2; stroke-opacity:0.1; fill:none" points="269.352,1218.6 2352.76,1218.6 "/>
<polyline clip-path="url(#clip362)" style="stroke:#000000; stroke-linecap:round; stroke-linejoin:round; stroke-width:2; stroke-opacity:0.1; fill:none" points="269.352,986.102 2352.76,986.102 "/>
<polyline clip-path="url(#clip362)" style="stroke:#000000; stroke-linecap:round; stroke-linejoin:round; stroke-width:2; stroke-opacity:0.1; fill:none" points="269.352,753.603 2352.76,753.603 "/>
<polyline clip-path="url(#clip362)" style="stroke:#000000; stroke-linecap:round; stroke-linejoin:round; stroke-width:2; stroke-opacity:0.1; fill:none" points="269.352,521.104 2352.76,521.104 "/>
<polyline clip-path="url(#clip362)" style="stroke:#000000; stroke-linecap:round; stroke-linejoin:round; stroke-width:2; stroke-opacity:0.1; fill:none" points="269.352,288.605 2352.76,288.605 "/>
<polyline clip-path="url(#clip360)" style="stroke:#000000; stroke-linecap:round; stroke-linejoin:round; stroke-width:4; stroke-opacity:1; fill:none" points="269.352,1410.9 2352.76,1410.9 "/>
<polyline clip-path="url(#clip360)" style="stroke:#000000; stroke-linecap:round; stroke-linejoin:round; stroke-width:4; stroke-opacity:1; fill:none" points="1114.51,1410.9 1114.51,1392 "/>
<polyline clip-path="url(#clip360)" style="stroke:#000000; stroke-linecap:round; stroke-linejoin:round; stroke-width:4; stroke-opacity:1; fill:none" points="2097.24,1410.9 2097.24,1392 "/>
<path clip-path="url(#clip360)" d="M1079.49 1485.02 L1087.13 1485.02 L1087.13 1458.66 L1078.82 1460.32 L1078.82 1456.06 L1087.08 1454.4 L1091.76 1454.4 L1091.76 1485.02 L1099.4 1485.02 L1099.4 1488.96 L1079.49 1488.96 L1079.49 1485.02 Z" fill="#000000" fill-rule="nonzero" fill-opacity="1" /><path clip-path="url(#clip360)" d="M1118.84 1457.48 Q1115.23 1457.48 1113.4 1461.04 Q1111.6 1464.58 1111.6 1471.71 Q1111.6 1478.82 1113.4 1482.38 Q1115.23 1485.92 1118.84 1485.92 Q1122.48 1485.92 1124.28 1482.38 Q1126.11 1478.82 1126.11 1471.71 Q1126.11 1464.58 1124.28 1461.04 Q1122.48 1457.48 1118.84 1457.48 M1118.84 1453.77 Q1124.65 1453.77 1127.71 1458.38 Q1130.79 1462.96 1130.79 1471.71 Q1130.79 1480.44 1127.71 1485.04 Q1124.65 1489.63 1118.84 1489.63 Q1113.03 1489.63 1109.95 1485.04 Q1106.9 1480.44 1106.9 1471.71 Q1106.9 1462.96 1109.95 1458.38 Q1113.03 1453.77 1118.84 1453.77 Z" fill="#000000" fill-rule="nonzero" fill-opacity="1" /><path clip-path="url(#clip360)" d="M1140.49 1435.97 Q1137.56 1435.97 1136.07 1438.86 Q1134.6 1441.74 1134.6 1447.53 Q1134.6 1453.31 1136.07 1456.2 Q1137.56 1459.08 1140.49 1459.08 Q1143.44 1459.08 1144.91 1456.2 Q1146.4 1453.31 1146.4 1447.53 Q1146.4 1441.74 1144.91 1438.86 Q1143.44 1435.97 1140.49 1435.97 M1140.49 1432.96 Q1145.21 1432.96 1147.69 1436.7 Q1150.2 1440.43 1150.2 1447.53 Q1150.2 1454.62 1147.69 1458.37 Q1145.21 1462.09 1140.49 1462.09 Q1135.77 1462.09 1133.27 1458.37 Q1130.79 1454.62 1130.79 1447.53 Q1130.79 1440.43 1133.27 1436.7 Q1135.77 1432.96 1140.49 1432.96 Z" fill="#000000" fill-rule="nonzero" fill-opacity="1" /><path clip-path="url(#clip360)" d="M2063.57 1485.02 L2071.21 1485.02 L2071.21 1458.66 L2062.9 1460.32 L2062.9 1456.06 L2071.16 1454.4 L2075.84 1454.4 L2075.84 1485.02 L2083.48 1485.02 L2083.48 1488.96 L2063.57 1488.96 L2063.57 1485.02 Z" fill="#000000" fill-rule="nonzero" fill-opacity="1" /><path clip-path="url(#clip360)" d="M2102.92 1457.48 Q2099.31 1457.48 2097.48 1461.04 Q2095.68 1464.58 2095.68 1471.71 Q2095.68 1478.82 2097.48 1482.38 Q2099.31 1485.92 2102.92 1485.92 Q2106.56 1485.92 2108.36 1482.38 Q2110.19 1478.82 2110.19 1471.71 Q2110.19 1464.58 2108.36 1461.04 Q2106.56 1457.48 2102.92 1457.48 M2102.92 1453.77 Q2108.73 1453.77 2111.79 1458.38 Q2114.87 1462.96 2114.87 1471.71 Q2114.87 1480.44 2111.79 1485.04 Q2108.73 1489.63 2102.92 1489.63 Q2097.11 1489.63 2094.03 1485.04 Q2090.98 1480.44 2090.98 1471.71 Q2090.98 1462.96 2094.03 1458.38 Q2097.11 1453.77 2102.92 1453.77 Z" fill="#000000" fill-rule="nonzero" fill-opacity="1" /><path clip-path="url(#clip360)" d="M2115.41 1458.35 L2121.62 1458.35 L2121.62 1436.93 L2114.87 1438.28 L2114.87 1434.82 L2121.58 1433.47 L2125.38 1433.47 L2125.38 1458.35 L2131.59 1458.35 L2131.59 1461.55 L2115.41 1461.55 L2115.41 1458.35 Z" fill="#000000" fill-rule="nonzero" fill-opacity="1" /><path clip-path="url(#clip360)" d="M748.914 1531.95 L748.914 1568.9 L756.681 1568.9 Q766.516 1568.9 771.067 1564.45 Q775.65 1559.99 775.65 1550.38 Q775.65 1540.83 771.067 1536.4 Q766.516 1531.95 756.681 1531.95 L748.914 1531.95 M742.485 1526.67 L755.694 1526.67 Q769.508 1526.67 775.969 1532.43 Q782.43 1538.16 782.43 1550.38 Q782.43 1562.66 775.937 1568.42 Q769.444 1574.19 755.694 1574.19 L742.485 1574.19 L742.485 1526.67 Z" fill="#000000" fill-rule="nonzero" fill-opacity="1" /><path clip-path="url(#clip360)" d="M807.256 1577.5 Q804.774 1583.86 802.418 1585.8 Q800.063 1587.74 796.116 1587.74 L791.437 1587.74 L791.437 1582.84 L794.875 1582.84 Q797.294 1582.84 798.631 1581.7 Q799.967 1580.55 801.591 1576.29 L802.641 1573.61 L788.223 1538.54 L794.429 1538.54 L805.569 1566.42 L816.709 1538.54 L822.916 1538.54 L807.256 1577.5 Z" fill="#000000" fill-rule="nonzero" fill-opacity="1" /><path clip-path="url(#clip360)" d="M860.633 1552.67 L860.633 1574.19 L854.776 1574.19 L854.776 1552.86 Q854.776 1547.8 852.803 1545.29 Q850.829 1542.77 846.883 1542.77 Q842.14 1542.77 839.403 1545.79 Q836.666 1548.82 836.666 1554.04 L836.666 1574.19 L830.777 1574.19 L830.777 1538.54 L836.666 1538.54 L836.666 1544.08 Q838.766 1540.86 841.599 1539.27 Q844.464 1537.68 848.188 1537.68 Q854.331 1537.68 857.482 1541.5 Q860.633 1545.29 860.633 1552.67 Z" fill="#000000" fill-rule="nonzero" fill-opacity="1" /><path clip-path="url(#clip360)" d="M888.514 1556.27 Q881.417 1556.27 878.679 1557.89 Q875.942 1559.51 875.942 1563.43 Q875.942 1566.55 877.979 1568.39 Q880.048 1570.21 883.581 1570.21 Q888.451 1570.21 891.379 1566.77 Q894.339 1563.3 894.339 1557.57 L894.339 1556.27 L888.514 1556.27 M900.195 1553.85 L900.195 1574.19 L894.339 1574.19 L894.339 1568.77 Q892.334 1572.02 889.342 1573.58 Q886.35 1575.11 882.021 1575.11 Q876.547 1575.11 873.3 1572.05 Q870.086 1568.97 870.086 1563.81 Q870.086 1557.79 874.096 1554.74 Q878.138 1551.68 886.127 1551.68 L894.339 1551.68 L894.339 1551.11 Q894.339 1547.07 891.665 1544.87 Q889.024 1542.64 884.218 1542.64 Q881.162 1542.64 878.266 1543.38 Q875.369 1544.11 872.696 1545.57 L872.696 1540.16 Q875.91 1538.92 878.934 1538.31 Q881.958 1537.68 884.822 1537.68 Q892.557 1537.68 896.376 1541.69 Q900.195 1545.7 900.195 1553.85 Z" fill="#000000" fill-rule="nonzero" fill-opacity="1" /><path clip-path="url(#clip360)" d="M940.013 1545.38 Q942.209 1541.43 945.265 1539.56 Q948.32 1537.68 952.458 1537.68 Q958.028 1537.68 961.052 1541.59 Q964.075 1545.48 964.075 1552.67 L964.075 1574.19 L958.187 1574.19 L958.187 1552.86 Q958.187 1547.74 956.373 1545.25 Q954.559 1542.77 950.835 1542.77 Q946.283 1542.77 943.641 1545.79 Q941 1548.82 941 1554.04 L941 1574.19 L935.111 1574.19 L935.111 1552.86 Q935.111 1547.7 933.297 1545.25 Q931.483 1542.77 927.695 1542.77 Q923.207 1542.77 920.566 1545.83 Q917.924 1548.85 917.924 1554.04 L917.924 1574.19 L912.036 1574.19 L912.036 1538.54 L917.924 1538.54 L917.924 1544.08 Q919.929 1540.8 922.73 1539.24 Q925.531 1537.68 929.382 1537.68 Q933.265 1537.68 935.971 1539.65 Q938.708 1541.62 940.013 1545.38 Z" fill="#000000" fill-rule="nonzero" fill-opacity="1" /><path clip-path="url(#clip360)" d="M975.756 1538.54 L981.613 1538.54 L981.613 1574.19 L975.756 1574.19 L975.756 1538.54 M975.756 1524.66 L981.613 1524.66 L981.613 1532.08 L975.756 1532.08 L975.756 1524.66 Z" fill="#000000" fill-rule="nonzero" fill-opacity="1" /><path clip-path="url(#clip360)" d="M1019.52 1539.91 L1019.52 1545.38 Q1017.04 1544.01 1014.52 1543.34 Q1012.04 1542.64 1009.49 1542.64 Q1003.8 1542.64 1000.65 1546.27 Q997.495 1549.87 997.495 1556.39 Q997.495 1562.92 1000.65 1566.55 Q1003.8 1570.14 1009.49 1570.14 Q1012.04 1570.14 1014.52 1569.47 Q1017.04 1568.77 1019.52 1567.41 L1019.52 1572.82 Q1017.07 1573.96 1014.43 1574.54 Q1011.82 1575.11 1008.86 1575.11 Q1000.81 1575.11 996.063 1570.05 Q991.321 1564.99 991.321 1556.39 Q991.321 1547.67 996.095 1542.68 Q1000.9 1537.68 1009.24 1537.68 Q1011.95 1537.68 1014.52 1538.25 Q1017.1 1538.79 1019.52 1539.91 Z" fill="#000000" fill-rule="nonzero" fill-opacity="1" /><path clip-path="url(#clip360)" d="M1052.43 1539.59 L1052.43 1545.13 Q1049.95 1543.85 1047.28 1543.22 Q1044.6 1542.58 1041.74 1542.58 Q1037.38 1542.58 1035.18 1543.92 Q1033.02 1545.25 1033.02 1547.93 Q1033.02 1549.96 1034.58 1551.14 Q1036.14 1552.29 1040.85 1553.34 L1042.85 1553.78 Q1049.09 1555.12 1051.7 1557.57 Q1054.34 1559.99 1054.34 1564.35 Q1054.34 1569.32 1050.39 1572.21 Q1046.48 1575.11 1039.6 1575.11 Q1036.74 1575.11 1033.62 1574.54 Q1030.53 1573.99 1027.1 1572.88 L1027.1 1566.83 Q1030.34 1568.52 1033.49 1569.38 Q1036.64 1570.21 1039.73 1570.21 Q1043.87 1570.21 1046.1 1568.81 Q1048.33 1567.37 1048.33 1564.8 Q1048.33 1562.41 1046.7 1561.14 Q1045.11 1559.86 1039.67 1558.68 L1037.63 1558.21 Q1032.19 1557.06 1029.77 1554.71 Q1027.35 1552.32 1027.35 1548.18 Q1027.35 1543.15 1030.92 1540.42 Q1034.48 1537.68 1041.04 1537.68 Q1044.28 1537.68 1047.15 1538.16 Q1050.01 1538.63 1052.43 1539.59 Z" fill="#000000" fill-rule="nonzero" fill-opacity="1" /><path clip-path="url(#clip360)" d="M1114.02 1552.67 L1114.02 1574.19 L1108.16 1574.19 L1108.16 1552.86 Q1108.16 1547.8 1106.19 1545.29 Q1104.22 1542.77 1100.27 1542.77 Q1095.53 1542.77 1092.79 1545.79 Q1090.05 1548.82 1090.05 1554.04 L1090.05 1574.19 L1084.16 1574.19 L1084.16 1538.54 L1090.05 1538.54 L1090.05 1544.08 Q1092.15 1540.86 1094.99 1539.27 Q1097.85 1537.68 1101.57 1537.68 Q1107.72 1537.68 1110.87 1541.5 Q1114.02 1545.29 1114.02 1552.67 Z" fill="#000000" fill-rule="nonzero" fill-opacity="1" /><path clip-path="url(#clip360)" d="M1139.51 1542.64 Q1134.8 1542.64 1132.07 1546.34 Q1129.33 1550 1129.33 1556.39 Q1129.33 1562.79 1132.03 1566.48 Q1134.77 1570.14 1139.51 1570.14 Q1144.19 1570.14 1146.93 1566.45 Q1149.67 1562.76 1149.67 1556.39 Q1149.67 1550.06 1146.93 1546.37 Q1144.19 1542.64 1139.51 1542.64 M1139.51 1537.68 Q1147.15 1537.68 1151.51 1542.64 Q1155.87 1547.61 1155.87 1556.39 Q1155.87 1565.15 1151.51 1570.14 Q1147.15 1575.11 1139.51 1575.11 Q1131.84 1575.11 1127.48 1570.14 Q1123.15 1565.15 1123.15 1556.39 Q1123.15 1547.61 1127.48 1542.64 Q1131.84 1537.68 1139.51 1537.68 Z" fill="#000000" fill-rule="nonzero" fill-opacity="1" /><path clip-path="url(#clip360)" d="M1165.58 1538.54 L1171.44 1538.54 L1171.44 1574.19 L1165.58 1574.19 L1165.58 1538.54 M1165.58 1524.66 L1171.44 1524.66 L1171.44 1532.08 L1165.58 1532.08 L1165.58 1524.66 Z" fill="#000000" fill-rule="nonzero" fill-opacity="1" /><path clip-path="url(#clip360)" d="M1206.42 1539.59 L1206.42 1545.13 Q1203.94 1543.85 1201.26 1543.22 Q1198.59 1542.58 1195.72 1542.58 Q1191.36 1542.58 1189.17 1543.92 Q1187 1545.25 1187 1547.93 Q1187 1549.96 1188.56 1551.14 Q1190.12 1552.29 1194.83 1553.34 L1196.84 1553.78 Q1203.08 1555.12 1205.69 1557.57 Q1208.33 1559.99 1208.33 1564.35 Q1208.33 1569.32 1204.38 1572.21 Q1200.47 1575.11 1193.59 1575.11 Q1190.73 1575.11 1187.61 1574.54 Q1184.52 1573.99 1181.08 1572.88 L1181.08 1566.83 Q1184.33 1568.52 1187.48 1569.38 Q1190.63 1570.21 1193.72 1570.21 Q1197.86 1570.21 1200.08 1568.81 Q1202.31 1567.37 1202.31 1564.8 Q1202.31 1562.41 1200.69 1561.14 Q1199.1 1559.86 1193.65 1558.68 L1191.62 1558.21 Q1186.17 1557.06 1183.76 1554.71 Q1181.34 1552.32 1181.34 1548.18 Q1181.34 1543.15 1184.9 1540.42 Q1188.47 1537.68 1195.02 1537.68 Q1198.27 1537.68 1201.13 1538.16 Q1204 1538.63 1206.42 1539.59 Z" fill="#000000" fill-rule="nonzero" fill-opacity="1" /><path clip-path="url(#clip360)" d="M1248.14 1554.9 L1248.14 1557.76 L1221.22 1557.76 Q1221.6 1563.81 1224.85 1566.99 Q1228.12 1570.14 1233.95 1570.14 Q1237.32 1570.14 1240.47 1569.32 Q1243.66 1568.49 1246.78 1566.83 L1246.78 1572.37 Q1243.63 1573.71 1240.32 1574.41 Q1237.01 1575.11 1233.6 1575.11 Q1225.07 1575.11 1220.07 1570.14 Q1215.11 1565.18 1215.11 1556.71 Q1215.11 1547.96 1219.82 1542.83 Q1224.56 1537.68 1232.58 1537.68 Q1239.77 1537.68 1243.94 1542.33 Q1248.14 1546.94 1248.14 1554.9 M1242.29 1553.18 Q1242.22 1548.37 1239.58 1545.51 Q1236.97 1542.64 1232.64 1542.64 Q1227.74 1542.64 1224.78 1545.41 Q1221.85 1548.18 1221.41 1553.21 L1242.29 1553.18 Z" fill="#000000" fill-rule="nonzero" fill-opacity="1" /><path clip-path="url(#clip360)" d="M1301.2 1539.59 L1301.2 1545.13 Q1298.72 1543.85 1296.05 1543.22 Q1293.37 1542.58 1290.51 1542.58 Q1286.15 1542.58 1283.95 1543.92 Q1281.79 1545.25 1281.79 1547.93 Q1281.79 1549.96 1283.35 1551.14 Q1284.91 1552.29 1289.62 1553.34 L1291.62 1553.78 Q1297.86 1555.12 1300.47 1557.57 Q1303.11 1559.99 1303.11 1564.35 Q1303.11 1569.32 1299.17 1572.21 Q1295.25 1575.11 1288.38 1575.11 Q1285.51 1575.11 1282.39 1574.54 Q1279.31 1573.99 1275.87 1572.88 L1275.87 1566.83 Q1279.11 1568.52 1282.27 1569.38 Q1285.42 1570.21 1288.5 1570.21 Q1292.64 1570.21 1294.87 1568.81 Q1297.1 1567.37 1297.1 1564.8 Q1297.1 1562.41 1295.47 1561.14 Q1293.88 1559.86 1288.44 1558.68 L1286.4 1558.21 Q1280.96 1557.06 1278.54 1554.71 Q1276.12 1552.32 1276.12 1548.18 Q1276.12 1543.15 1279.69 1540.42 Q1283.25 1537.68 1289.81 1537.68 Q1293.06 1537.68 1295.92 1538.16 Q1298.78 1538.63 1301.2 1539.59 Z" fill="#000000" fill-rule="nonzero" fill-opacity="1" /><path clip-path="url(#clip360)" d="M1318.23 1528.42 L1318.23 1538.54 L1330.29 1538.54 L1330.29 1543.09 L1318.23 1543.09 L1318.23 1562.44 Q1318.23 1566.8 1319.41 1568.04 Q1320.62 1569.28 1324.28 1569.28 L1330.29 1569.28 L1330.29 1574.19 L1324.28 1574.19 Q1317.5 1574.19 1314.92 1571.67 Q1312.34 1569.12 1312.34 1562.44 L1312.34 1543.09 L1308.05 1543.09 L1308.05 1538.54 L1312.34 1538.54 L1312.34 1528.42 L1318.23 1528.42 Z" fill="#000000" fill-rule="nonzero" fill-opacity="1" /><path clip-path="url(#clip360)" d="M1354.2 1556.27 Q1347.1 1556.27 1344.36 1557.89 Q1341.63 1559.51 1341.63 1563.43 Q1341.63 1566.55 1343.66 1568.39 Q1345.73 1570.21 1349.26 1570.21 Q1354.13 1570.21 1357.06 1566.77 Q1360.02 1563.3 1360.02 1557.57 L1360.02 1556.27 L1354.2 1556.27 M1365.88 1553.85 L1365.88 1574.19 L1360.02 1574.19 L1360.02 1568.77 Q1358.02 1572.02 1355.03 1573.58 Q1352.03 1575.11 1347.7 1575.11 Q1342.23 1575.11 1338.98 1572.05 Q1335.77 1568.97 1335.77 1563.81 Q1335.77 1557.79 1339.78 1554.74 Q1343.82 1551.68 1351.81 1551.68 L1360.02 1551.68 L1360.02 1551.11 Q1360.02 1547.07 1357.35 1544.87 Q1354.71 1542.64 1349.9 1542.64 Q1346.85 1542.64 1343.95 1543.38 Q1341.05 1544.11 1338.38 1545.57 L1338.38 1540.16 Q1341.59 1538.92 1344.62 1538.31 Q1347.64 1537.68 1350.51 1537.68 Q1358.24 1537.68 1362.06 1541.69 Q1365.88 1545.7 1365.88 1553.85 Z" fill="#000000" fill-rule="nonzero" fill-opacity="1" /><path clip-path="url(#clip360)" d="M1407.57 1552.67 L1407.57 1574.19 L1401.72 1574.19 L1401.72 1552.86 Q1401.72 1547.8 1399.74 1545.29 Q1397.77 1542.77 1393.82 1542.77 Q1389.08 1542.77 1386.34 1545.79 Q1383.61 1548.82 1383.61 1554.04 L1383.61 1574.19 L1377.72 1574.19 L1377.72 1538.54 L1383.61 1538.54 L1383.61 1544.08 Q1385.71 1540.86 1388.54 1539.27 Q1391.41 1537.68 1395.13 1537.68 Q1401.27 1537.68 1404.42 1541.5 Q1407.57 1545.29 1407.57 1552.67 Z" fill="#000000" fill-rule="nonzero" fill-opacity="1" /><path clip-path="url(#clip360)" d="M1442.71 1543.95 L1442.71 1524.66 L1448.57 1524.66 L1448.57 1574.19 L1442.71 1574.19 L1442.71 1568.84 Q1440.87 1572.02 1438.03 1573.58 Q1435.23 1575.11 1431.29 1575.11 Q1424.83 1575.11 1420.75 1569.95 Q1416.71 1564.8 1416.71 1556.39 Q1416.71 1547.99 1420.75 1542.83 Q1424.83 1537.68 1431.29 1537.68 Q1435.23 1537.68 1438.03 1539.24 Q1440.87 1540.77 1442.71 1543.95 M1422.76 1556.39 Q1422.76 1562.85 1425.4 1566.55 Q1428.07 1570.21 1432.72 1570.21 Q1437.37 1570.21 1440.04 1566.55 Q1442.71 1562.85 1442.71 1556.39 Q1442.71 1549.93 1440.04 1546.27 Q1437.37 1542.58 1432.72 1542.58 Q1428.07 1542.58 1425.4 1546.27 Q1422.76 1549.93 1422.76 1556.39 Z" fill="#000000" fill-rule="nonzero" fill-opacity="1" /><path clip-path="url(#clip360)" d="M1476.83 1556.27 Q1469.74 1556.27 1467 1557.89 Q1464.26 1559.51 1464.26 1563.43 Q1464.26 1566.55 1466.3 1568.39 Q1468.37 1570.21 1471.9 1570.21 Q1476.77 1570.21 1479.7 1566.77 Q1482.66 1563.3 1482.66 1557.57 L1482.66 1556.27 L1476.83 1556.27 M1488.51 1553.85 L1488.51 1574.19 L1482.66 1574.19 L1482.66 1568.77 Q1480.65 1572.02 1477.66 1573.58 Q1474.67 1575.11 1470.34 1575.11 Q1464.87 1575.11 1461.62 1572.05 Q1458.4 1568.97 1458.4 1563.81 Q1458.4 1557.79 1462.41 1554.74 Q1466.46 1551.68 1474.45 1551.68 L1482.66 1551.68 L1482.66 1551.11 Q1482.66 1547.07 1479.98 1544.87 Q1477.34 1542.64 1472.54 1542.64 Q1469.48 1542.64 1466.58 1543.38 Q1463.69 1544.11 1461.01 1545.57 L1461.01 1540.16 Q1464.23 1538.92 1467.25 1538.31 Q1470.28 1537.68 1473.14 1537.68 Q1480.88 1537.68 1484.69 1541.69 Q1488.51 1545.7 1488.51 1553.85 Z" fill="#000000" fill-rule="nonzero" fill-opacity="1" /><path clip-path="url(#clip360)" d="M1521.23 1544.01 Q1520.25 1543.44 1519.07 1543.18 Q1517.92 1542.9 1516.52 1542.9 Q1511.56 1542.9 1508.88 1546.14 Q1506.24 1549.36 1506.24 1555.41 L1506.24 1574.19 L1500.35 1574.19 L1500.35 1538.54 L1506.24 1538.54 L1506.24 1544.08 Q1508.09 1540.83 1511.05 1539.27 Q1514.01 1537.68 1518.24 1537.68 Q1518.85 1537.68 1519.58 1537.77 Q1520.31 1537.84 1521.2 1538 L1521.23 1544.01 Z" fill="#000000" fill-rule="nonzero" fill-opacity="1" /><path clip-path="url(#clip360)" d="M1549.69 1543.95 L1549.69 1524.66 L1555.54 1524.66 L1555.54 1574.19 L1549.69 1574.19 L1549.69 1568.84 Q1547.84 1572.02 1545.01 1573.58 Q1542.21 1575.11 1538.26 1575.11 Q1531.8 1575.11 1527.73 1569.95 Q1523.68 1564.8 1523.68 1556.39 Q1523.68 1547.99 1527.73 1542.83 Q1531.8 1537.68 1538.26 1537.68 Q1542.21 1537.68 1545.01 1539.24 Q1547.84 1540.77 1549.69 1543.95 M1529.73 1556.39 Q1529.73 1562.85 1532.37 1566.55 Q1535.05 1570.21 1539.69 1570.21 Q1544.34 1570.21 1547.01 1566.55 Q1549.69 1562.85 1549.69 1556.39 Q1549.69 1549.93 1547.01 1546.27 Q1544.34 1542.58 1539.69 1542.58 Q1535.05 1542.58 1532.37 1546.27 Q1529.73 1549.93 1529.73 1556.39 Z" fill="#000000" fill-rule="nonzero" fill-opacity="1" /><path clip-path="url(#clip360)" d="M1611.79 1543.95 L1611.79 1524.66 L1617.64 1524.66 L1617.64 1574.19 L1611.79 1574.19 L1611.79 1568.84 Q1609.94 1572.02 1607.11 1573.58 Q1604.31 1575.11 1600.36 1575.11 Q1593.9 1575.11 1589.82 1569.95 Q1585.78 1564.8 1585.78 1556.39 Q1585.78 1547.99 1589.82 1542.83 Q1593.9 1537.68 1600.36 1537.68 Q1604.31 1537.68 1607.11 1539.24 Q1609.94 1540.77 1611.79 1543.95 M1591.83 1556.39 Q1591.83 1562.85 1594.47 1566.55 Q1597.14 1570.21 1601.79 1570.21 Q1606.44 1570.21 1609.11 1566.55 Q1611.79 1562.85 1611.79 1556.39 Q1611.79 1549.93 1609.11 1546.27 Q1606.44 1542.58 1601.79 1542.58 Q1597.14 1542.58 1594.47 1546.27 Q1591.83 1549.93 1591.83 1556.39 Z" fill="#000000" fill-rule="nonzero" fill-opacity="1" /><path clip-path="url(#clip360)" d="M1660.2 1554.9 L1660.2 1557.76 L1633.27 1557.76 Q1633.65 1563.81 1636.9 1566.99 Q1640.18 1570.14 1646 1570.14 Q1649.38 1570.14 1652.53 1569.32 Q1655.71 1568.49 1658.83 1566.83 L1658.83 1572.37 Q1655.68 1573.71 1652.37 1574.41 Q1649.06 1575.11 1645.65 1575.11 Q1637.12 1575.11 1632.12 1570.14 Q1627.16 1565.18 1627.16 1556.71 Q1627.16 1547.96 1631.87 1542.83 Q1636.61 1537.68 1644.63 1537.68 Q1651.83 1537.68 1656 1542.33 Q1660.2 1546.94 1660.2 1554.9 M1654.34 1553.18 Q1654.28 1548.37 1651.64 1545.51 Q1649.03 1542.64 1644.7 1542.64 Q1639.8 1542.64 1636.84 1545.41 Q1633.91 1548.18 1633.46 1553.21 L1654.34 1553.18 Z" fill="#000000" fill-rule="nonzero" fill-opacity="1" /><path clip-path="url(#clip360)" d="M1665.61 1538.54 L1671.81 1538.54 L1682.95 1568.46 L1694.09 1538.54 L1700.3 1538.54 L1686.93 1574.19 L1678.98 1574.19 L1665.61 1538.54 Z" fill="#000000" fill-rule="nonzero" fill-opacity="1" /><path clip-path="url(#clip360)" d="M1708.39 1538.54 L1714.24 1538.54 L1714.24 1574.19 L1708.39 1574.19 L1708.39 1538.54 M1708.39 1524.66 L1714.24 1524.66 L1714.24 1532.08 L1708.39 1532.08 L1708.39 1524.66 Z" fill="#000000" fill-rule="nonzero" fill-opacity="1" /><path clip-path="url(#clip360)" d="M1742.7 1556.27 Q1735.6 1556.27 1732.86 1557.89 Q1730.12 1559.51 1730.12 1563.43 Q1730.12 1566.55 1732.16 1568.39 Q1734.23 1570.21 1737.76 1570.21 Q1742.63 1570.21 1745.56 1566.77 Q1748.52 1563.3 1748.52 1557.57 L1748.52 1556.27 L1742.7 1556.27 M1754.38 1553.85 L1754.38 1574.19 L1748.52 1574.19 L1748.52 1568.77 Q1746.52 1572.02 1743.52 1573.58 Q1740.53 1575.11 1736.2 1575.11 Q1730.73 1575.11 1727.48 1572.05 Q1724.27 1568.97 1724.27 1563.81 Q1724.27 1557.79 1728.28 1554.74 Q1732.32 1551.68 1740.31 1551.68 L1748.52 1551.68 L1748.52 1551.11 Q1748.52 1547.07 1745.85 1544.87 Q1743.21 1542.64 1738.4 1542.64 Q1735.34 1542.64 1732.45 1543.38 Q1729.55 1544.11 1726.88 1545.57 L1726.88 1540.16 Q1730.09 1538.92 1733.12 1538.31 Q1736.14 1537.68 1739 1537.68 Q1746.74 1537.68 1750.56 1541.69 Q1754.38 1545.7 1754.38 1553.85 Z" fill="#000000" fill-rule="nonzero" fill-opacity="1" /><path clip-path="url(#clip360)" d="M1772.23 1528.42 L1772.23 1538.54 L1784.3 1538.54 L1784.3 1543.09 L1772.23 1543.09 L1772.23 1562.44 Q1772.23 1566.8 1773.41 1568.04 Q1774.62 1569.28 1778.28 1569.28 L1784.3 1569.28 L1784.3 1574.19 L1778.28 1574.19 Q1771.5 1574.19 1768.92 1571.67 Q1766.35 1569.12 1766.35 1562.44 L1766.35 1543.09 L1762.05 1543.09 L1762.05 1538.54 L1766.35 1538.54 L1766.35 1528.42 L1772.23 1528.42 Z" fill="#000000" fill-rule="nonzero" fill-opacity="1" /><path clip-path="url(#clip360)" d="M1792 1538.54 L1797.86 1538.54 L1797.86 1574.19 L1792 1574.19 L1792 1538.54 M1792 1524.66 L1797.86 1524.66 L1797.86 1532.08 L1792 1532.08 L1792 1524.66 Z" fill="#000000" fill-rule="nonzero" fill-opacity="1" /><path clip-path="url(#clip360)" d="M1823.92 1542.64 Q1819.21 1542.64 1816.48 1546.34 Q1813.74 1550 1813.74 1556.39 Q1813.74 1562.79 1816.44 1566.48 Q1819.18 1570.14 1823.92 1570.14 Q1828.6 1570.14 1831.34 1566.45 Q1834.08 1562.76 1834.08 1556.39 Q1834.08 1550.06 1831.34 1546.37 Q1828.6 1542.64 1823.92 1542.64 M1823.92 1537.68 Q1831.56 1537.68 1835.92 1542.64 Q1840.28 1547.61 1840.28 1556.39 Q1840.28 1565.15 1835.92 1570.14 Q1831.56 1575.11 1823.92 1575.11 Q1816.25 1575.11 1811.89 1570.14 Q1807.56 1565.15 1807.56 1556.39 Q1807.56 1547.61 1811.89 1542.64 Q1816.25 1537.68 1823.92 1537.68 Z" fill="#000000" fill-rule="nonzero" fill-opacity="1" /><path clip-path="url(#clip360)" d="M1879.62 1552.67 L1879.62 1574.19 L1873.77 1574.19 L1873.77 1552.86 Q1873.77 1547.8 1871.79 1545.29 Q1869.82 1542.77 1865.87 1542.77 Q1861.13 1542.77 1858.39 1545.79 Q1855.66 1548.82 1855.66 1554.04 L1855.66 1574.19 L1849.77 1574.19 L1849.77 1538.54 L1855.66 1538.54 L1855.66 1544.08 Q1857.76 1540.86 1860.59 1539.27 Q1863.45 1537.68 1867.18 1537.68 Q1873.32 1537.68 1876.47 1541.5 Q1879.62 1545.29 1879.62 1552.67 Z" fill="#000000" fill-rule="nonzero" fill-opacity="1" /><polyline clip-path="url(#clip360)" style="stroke:#000000; stroke-linecap:round; stroke-linejoin:round; stroke-width:4; stroke-opacity:1; fill:none" points="269.352,1410.9 269.352,123.472 "/>
<polyline clip-path="url(#clip360)" style="stroke:#000000; stroke-linecap:round; stroke-linejoin:round; stroke-width:4; stroke-opacity:1; fill:none" points="269.352,1218.6 288.25,1218.6 "/>
<polyline clip-path="url(#clip360)" style="stroke:#000000; stroke-linecap:round; stroke-linejoin:round; stroke-width:4; stroke-opacity:1; fill:none" points="269.352,986.102 288.25,986.102 "/>
<polyline clip-path="url(#clip360)" style="stroke:#000000; stroke-linecap:round; stroke-linejoin:round; stroke-width:4; stroke-opacity:1; fill:none" points="269.352,753.603 288.25,753.603 "/>
<polyline clip-path="url(#clip360)" style="stroke:#000000; stroke-linecap:round; stroke-linejoin:round; stroke-width:4; stroke-opacity:1; fill:none" points="269.352,521.104 288.25,521.104 "/>
<polyline clip-path="url(#clip360)" style="stroke:#000000; stroke-linecap:round; stroke-linejoin:round; stroke-width:4; stroke-opacity:1; fill:none" points="269.352,288.605 288.25,288.605 "/>
<path clip-path="url(#clip360)" d="M50.9921 1219.05 L80.6679 1219.05 L80.6679 1222.99 L50.9921 1222.99 L50.9921 1219.05 Z" fill="#000000" fill-rule="nonzero" fill-opacity="1" /><path clip-path="url(#clip360)" d="M91.5706 1231.95 L99.2095 1231.95 L99.2095 1205.58 L90.8993 1207.25 L90.8993 1202.99 L99.1632 1201.32 L103.839 1201.32 L103.839 1231.95 L111.478 1231.95 L111.478 1235.88 L91.5706 1235.88 L91.5706 1231.95 Z" fill="#000000" fill-rule="nonzero" fill-opacity="1" /><path clip-path="url(#clip360)" d="M124.95 1231.95 L141.269 1231.95 L141.269 1235.88 L119.325 1235.88 L119.325 1231.95 Q121.987 1229.19 126.57 1224.56 Q131.177 1219.91 132.357 1218.57 Q134.603 1216.04 135.482 1214.31 Q136.385 1212.55 136.385 1210.86 Q136.385 1208.1 134.441 1206.37 Q132.519 1204.63 129.418 1204.63 Q127.219 1204.63 124.765 1205.4 Q122.334 1206.16 119.557 1207.71 L119.557 1202.99 Q122.381 1201.85 124.834 1201.27 Q127.288 1200.7 129.325 1200.7 Q134.695 1200.7 137.89 1203.38 Q141.084 1206.07 141.084 1210.56 Q141.084 1212.69 140.274 1214.61 Q139.487 1216.51 137.381 1219.1 Q136.802 1219.77 133.7 1222.99 Q130.598 1226.18 124.95 1231.95 Z" fill="#000000" fill-rule="nonzero" fill-opacity="1" /><path clip-path="url(#clip360)" d="M151.13 1201.32 L169.487 1201.32 L169.487 1205.26 L155.413 1205.26 L155.413 1213.73 Q156.431 1213.38 157.45 1213.22 Q158.468 1213.03 159.487 1213.03 Q165.274 1213.03 168.654 1216.21 Q172.033 1219.38 172.033 1224.79 Q172.033 1230.37 168.561 1233.47 Q165.089 1236.55 158.769 1236.55 Q156.593 1236.55 154.325 1236.18 Q152.08 1235.81 149.672 1235.07 L149.672 1230.37 Q151.755 1231.51 153.978 1232.06 Q156.2 1232.62 158.677 1232.62 Q162.681 1232.62 165.019 1230.51 Q167.357 1228.4 167.357 1224.79 Q167.357 1221.18 165.019 1219.08 Q162.681 1216.97 158.677 1216.97 Q156.802 1216.97 154.927 1217.39 Q153.075 1217.8 151.13 1218.68 L151.13 1201.32 Z" fill="#000000" fill-rule="nonzero" fill-opacity="1" /><path clip-path="url(#clip360)" d="M191.246 1204.4 Q187.635 1204.4 185.806 1207.96 Q184.001 1211.51 184.001 1218.64 Q184.001 1225.74 185.806 1229.31 Q187.635 1232.85 191.246 1232.85 Q194.88 1232.85 196.686 1229.31 Q198.514 1225.74 198.514 1218.64 Q198.514 1211.51 196.686 1207.96 Q194.88 1204.4 191.246 1204.4 M191.246 1200.7 Q197.056 1200.7 200.112 1205.3 Q203.19 1209.89 203.19 1218.64 Q203.19 1227.36 200.112 1231.97 Q197.056 1236.55 191.246 1236.55 Q185.436 1236.55 182.357 1231.97 Q179.302 1227.36 179.302 1218.64 Q179.302 1209.89 182.357 1205.3 Q185.436 1200.7 191.246 1200.7 Z" fill="#000000" fill-rule="nonzero" fill-opacity="1" /><path clip-path="url(#clip360)" d="M221.408 1204.4 Q217.797 1204.4 215.968 1207.96 Q214.163 1211.51 214.163 1218.64 Q214.163 1225.74 215.968 1229.31 Q217.797 1232.85 221.408 1232.85 Q225.042 1232.85 226.848 1229.31 Q228.676 1225.74 228.676 1218.64 Q228.676 1211.51 226.848 1207.96 Q225.042 1204.4 221.408 1204.4 M221.408 1200.7 Q227.218 1200.7 230.274 1205.3 Q233.352 1209.89 233.352 1218.64 Q233.352 1227.36 230.274 1231.97 Q227.218 1236.55 221.408 1236.55 Q215.598 1236.55 212.519 1231.97 Q209.463 1227.36 209.463 1218.64 Q209.463 1209.89 212.519 1205.3 Q215.598 1200.7 221.408 1200.7 Z" fill="#000000" fill-rule="nonzero" fill-opacity="1" /><path clip-path="url(#clip360)" d="M50.9921 986.553 L80.6679 986.553 L80.6679 990.489 L50.9921 990.489 L50.9921 986.553 Z" fill="#000000" fill-rule="nonzero" fill-opacity="1" /><path clip-path="url(#clip360)" d="M91.5706 999.447 L99.2095 999.447 L99.2095 973.081 L90.8993 974.748 L90.8993 970.489 L99.1632 968.822 L103.839 968.822 L103.839 999.447 L111.478 999.447 L111.478 1003.38 L91.5706 1003.38 L91.5706 999.447 Z" fill="#000000" fill-rule="nonzero" fill-opacity="1" /><path clip-path="url(#clip360)" d="M130.922 971.901 Q127.311 971.901 125.482 975.466 Q123.677 979.007 123.677 986.137 Q123.677 993.243 125.482 996.808 Q127.311 1000.35 130.922 1000.35 Q134.556 1000.35 136.362 996.808 Q138.191 993.243 138.191 986.137 Q138.191 979.007 136.362 975.466 Q134.556 971.901 130.922 971.901 M130.922 968.197 Q136.732 968.197 139.788 972.804 Q142.867 977.387 142.867 986.137 Q142.867 994.864 139.788 999.47 Q136.732 1004.05 130.922 1004.05 Q125.112 1004.05 122.033 999.47 Q118.978 994.864 118.978 986.137 Q118.978 977.387 122.033 972.804 Q125.112 968.197 130.922 968.197 Z" fill="#000000" fill-rule="nonzero" fill-opacity="1" /><path clip-path="url(#clip360)" d="M161.084 971.901 Q157.473 971.901 155.644 975.466 Q153.839 979.007 153.839 986.137 Q153.839 993.243 155.644 996.808 Q157.473 1000.35 161.084 1000.35 Q164.718 1000.35 166.524 996.808 Q168.353 993.243 168.353 986.137 Q168.353 979.007 166.524 975.466 Q164.718 971.901 161.084 971.901 M161.084 968.197 Q166.894 968.197 169.95 972.804 Q173.029 977.387 173.029 986.137 Q173.029 994.864 169.95 999.47 Q166.894 1004.05 161.084 1004.05 Q155.274 1004.05 152.195 999.47 Q149.14 994.864 149.14 986.137 Q149.14 977.387 152.195 972.804 Q155.274 968.197 161.084 968.197 Z" fill="#000000" fill-rule="nonzero" fill-opacity="1" /><path clip-path="url(#clip360)" d="M191.246 971.901 Q187.635 971.901 185.806 975.466 Q184.001 979.007 184.001 986.137 Q184.001 993.243 185.806 996.808 Q187.635 1000.35 191.246 1000.35 Q194.88 1000.35 196.686 996.808 Q198.514 993.243 198.514 986.137 Q198.514 979.007 196.686 975.466 Q194.88 971.901 191.246 971.901 M191.246 968.197 Q197.056 968.197 200.112 972.804 Q203.19 977.387 203.19 986.137 Q203.19 994.864 200.112 999.47 Q197.056 1004.05 191.246 1004.05 Q185.436 1004.05 182.357 999.47 Q179.302 994.864 179.302 986.137 Q179.302 977.387 182.357 972.804 Q185.436 968.197 191.246 968.197 Z" fill="#000000" fill-rule="nonzero" fill-opacity="1" /><path clip-path="url(#clip360)" d="M221.408 971.901 Q217.797 971.901 215.968 975.466 Q214.163 979.007 214.163 986.137 Q214.163 993.243 215.968 996.808 Q217.797 1000.35 221.408 1000.35 Q225.042 1000.35 226.848 996.808 Q228.676 993.243 228.676 986.137 Q228.676 979.007 226.848 975.466 Q225.042 971.901 221.408 971.901 M221.408 968.197 Q227.218 968.197 230.274 972.804 Q233.352 977.387 233.352 986.137 Q233.352 994.864 230.274 999.47 Q227.218 1004.05 221.408 1004.05 Q215.598 1004.05 212.519 999.47 Q209.463 994.864 209.463 986.137 Q209.463 977.387 212.519 972.804 Q215.598 968.197 221.408 968.197 Z" fill="#000000" fill-rule="nonzero" fill-opacity="1" /><path clip-path="url(#clip360)" d="M81.154 754.054 L110.83 754.054 L110.83 757.99 L81.154 757.99 L81.154 754.054 Z" fill="#000000" fill-rule="nonzero" fill-opacity="1" /><path clip-path="url(#clip360)" d="M119.742 736.323 L141.964 736.323 L141.964 738.314 L129.418 770.883 L124.533 770.883 L136.339 740.258 L119.742 740.258 L119.742 736.323 Z" fill="#000000" fill-rule="nonzero" fill-opacity="1" /><path clip-path="url(#clip360)" d="M151.13 736.323 L169.487 736.323 L169.487 740.258 L155.413 740.258 L155.413 748.73 Q156.431 748.383 157.45 748.221 Q158.468 748.036 159.487 748.036 Q165.274 748.036 168.654 751.207 Q172.033 754.379 172.033 759.795 Q172.033 765.374 168.561 768.476 Q165.089 771.554 158.769 771.554 Q156.593 771.554 154.325 771.184 Q152.08 770.814 149.672 770.073 L149.672 765.374 Q151.755 766.508 153.978 767.064 Q156.2 767.619 158.677 767.619 Q162.681 767.619 165.019 765.513 Q167.357 763.406 167.357 759.795 Q167.357 756.184 165.019 754.078 Q162.681 751.971 158.677 751.971 Q156.802 751.971 154.927 752.388 Q153.075 752.804 151.13 753.684 L151.13 736.323 Z" fill="#000000" fill-rule="nonzero" fill-opacity="1" /><path clip-path="url(#clip360)" d="M191.246 739.402 Q187.635 739.402 185.806 742.967 Q184.001 746.508 184.001 753.638 Q184.001 760.744 185.806 764.309 Q187.635 767.851 191.246 767.851 Q194.88 767.851 196.686 764.309 Q198.514 760.744 198.514 753.638 Q198.514 746.508 196.686 742.967 Q194.88 739.402 191.246 739.402 M191.246 735.698 Q197.056 735.698 200.112 740.305 Q203.19 744.888 203.19 753.638 Q203.19 762.365 200.112 766.971 Q197.056 771.554 191.246 771.554 Q185.436 771.554 182.357 766.971 Q179.302 762.365 179.302 753.638 Q179.302 744.888 182.357 740.305 Q185.436 735.698 191.246 735.698 Z" fill="#000000" fill-rule="nonzero" fill-opacity="1" /><path clip-path="url(#clip360)" d="M221.408 739.402 Q217.797 739.402 215.968 742.967 Q214.163 746.508 214.163 753.638 Q214.163 760.744 215.968 764.309 Q217.797 767.851 221.408 767.851 Q225.042 767.851 226.848 764.309 Q228.676 760.744 228.676 753.638 Q228.676 746.508 226.848 742.967 Q225.042 739.402 221.408 739.402 M221.408 735.698 Q227.218 735.698 230.274 740.305 Q233.352 744.888 233.352 753.638 Q233.352 762.365 230.274 766.971 Q227.218 771.554 221.408 771.554 Q215.598 771.554 212.519 766.971 Q209.463 762.365 209.463 753.638 Q209.463 744.888 212.519 740.305 Q215.598 735.698 221.408 735.698 Z" fill="#000000" fill-rule="nonzero" fill-opacity="1" /><path clip-path="url(#clip360)" d="M81.154 521.555 L110.83 521.555 L110.83 525.491 L81.154 525.491 L81.154 521.555 Z" fill="#000000" fill-rule="nonzero" fill-opacity="1" /><path clip-path="url(#clip360)" d="M120.969 503.824 L139.325 503.824 L139.325 507.759 L125.251 507.759 L125.251 516.231 Q126.27 515.884 127.288 515.722 Q128.307 515.537 129.325 515.537 Q135.112 515.537 138.492 518.708 Q141.871 521.879 141.871 527.296 Q141.871 532.875 138.399 535.977 Q134.927 539.055 128.607 539.055 Q126.432 539.055 124.163 538.685 Q121.918 538.315 119.51 537.574 L119.51 532.875 Q121.594 534.009 123.816 534.565 Q126.038 535.12 128.515 535.12 Q132.519 535.12 134.857 533.014 Q137.195 530.907 137.195 527.296 Q137.195 523.685 134.857 521.579 Q132.519 519.472 128.515 519.472 Q126.64 519.472 124.765 519.889 Q122.913 520.305 120.969 521.185 L120.969 503.824 Z" fill="#000000" fill-rule="nonzero" fill-opacity="1" /><path clip-path="url(#clip360)" d="M161.084 506.903 Q157.473 506.903 155.644 510.468 Q153.839 514.009 153.839 521.139 Q153.839 528.245 155.644 531.81 Q157.473 535.352 161.084 535.352 Q164.718 535.352 166.524 531.81 Q168.353 528.245 168.353 521.139 Q168.353 514.009 166.524 510.468 Q164.718 506.903 161.084 506.903 M161.084 503.199 Q166.894 503.199 169.95 507.805 Q173.029 512.389 173.029 521.139 Q173.029 529.866 169.95 534.472 Q166.894 539.055 161.084 539.055 Q155.274 539.055 152.195 534.472 Q149.14 529.866 149.14 521.139 Q149.14 512.389 152.195 507.805 Q155.274 503.199 161.084 503.199 Z" fill="#000000" fill-rule="nonzero" fill-opacity="1" /><path clip-path="url(#clip360)" d="M191.246 506.903 Q187.635 506.903 185.806 510.468 Q184.001 514.009 184.001 521.139 Q184.001 528.245 185.806 531.81 Q187.635 535.352 191.246 535.352 Q194.88 535.352 196.686 531.81 Q198.514 528.245 198.514 521.139 Q198.514 514.009 196.686 510.468 Q194.88 506.903 191.246 506.903 M191.246 503.199 Q197.056 503.199 200.112 507.805 Q203.19 512.389 203.19 521.139 Q203.19 529.866 200.112 534.472 Q197.056 539.055 191.246 539.055 Q185.436 539.055 182.357 534.472 Q179.302 529.866 179.302 521.139 Q179.302 512.389 182.357 507.805 Q185.436 503.199 191.246 503.199 Z" fill="#000000" fill-rule="nonzero" fill-opacity="1" /><path clip-path="url(#clip360)" d="M221.408 506.903 Q217.797 506.903 215.968 510.468 Q214.163 514.009 214.163 521.139 Q214.163 528.245 215.968 531.81 Q217.797 535.352 221.408 535.352 Q225.042 535.352 226.848 531.81 Q228.676 528.245 228.676 521.139 Q228.676 514.009 226.848 510.468 Q225.042 506.903 221.408 506.903 M221.408 503.199 Q227.218 503.199 230.274 507.805 Q233.352 512.389 233.352 521.139 Q233.352 529.866 230.274 534.472 Q227.218 539.055 221.408 539.055 Q215.598 539.055 212.519 534.472 Q209.463 529.866 209.463 521.139 Q209.463 512.389 212.519 507.805 Q215.598 503.199 221.408 503.199 Z" fill="#000000" fill-rule="nonzero" fill-opacity="1" /><path clip-path="url(#clip360)" d="M81.154 289.056 L110.83 289.056 L110.83 292.992 L81.154 292.992 L81.154 289.056 Z" fill="#000000" fill-rule="nonzero" fill-opacity="1" /><path clip-path="url(#clip360)" d="M124.95 301.95 L141.269 301.95 L141.269 305.885 L119.325 305.885 L119.325 301.95 Q121.987 299.195 126.57 294.566 Q131.177 289.913 132.357 288.57 Q134.603 286.047 135.482 284.311 Q136.385 282.552 136.385 280.862 Q136.385 278.107 134.441 276.371 Q132.519 274.635 129.418 274.635 Q127.219 274.635 124.765 275.399 Q122.334 276.163 119.557 277.714 L119.557 272.992 Q122.381 271.857 124.834 271.279 Q127.288 270.7 129.325 270.7 Q134.695 270.7 137.89 273.385 Q141.084 276.07 141.084 280.561 Q141.084 282.691 140.274 284.612 Q139.487 286.51 137.381 289.103 Q136.802 289.774 133.7 292.992 Q130.598 296.186 124.95 301.95 Z" fill="#000000" fill-rule="nonzero" fill-opacity="1" /><path clip-path="url(#clip360)" d="M151.13 271.325 L169.487 271.325 L169.487 275.26 L155.413 275.26 L155.413 283.732 Q156.431 283.385 157.45 283.223 Q158.468 283.038 159.487 283.038 Q165.274 283.038 168.654 286.209 Q172.033 289.38 172.033 294.797 Q172.033 300.376 168.561 303.478 Q165.089 306.556 158.769 306.556 Q156.593 306.556 154.325 306.186 Q152.08 305.816 149.672 305.075 L149.672 300.376 Q151.755 301.51 153.978 302.066 Q156.2 302.621 158.677 302.621 Q162.681 302.621 165.019 300.515 Q167.357 298.408 167.357 294.797 Q167.357 291.186 165.019 289.08 Q162.681 286.973 158.677 286.973 Q156.802 286.973 154.927 287.39 Q153.075 287.806 151.13 288.686 L151.13 271.325 Z" fill="#000000" fill-rule="nonzero" fill-opacity="1" /><path clip-path="url(#clip360)" d="M191.246 274.404 Q187.635 274.404 185.806 277.968 Q184.001 281.51 184.001 288.64 Q184.001 295.746 185.806 299.311 Q187.635 302.853 191.246 302.853 Q194.88 302.853 196.686 299.311 Q198.514 295.746 198.514 288.64 Q198.514 281.51 196.686 277.968 Q194.88 274.404 191.246 274.404 M191.246 270.7 Q197.056 270.7 200.112 275.306 Q203.19 279.89 203.19 288.64 Q203.19 297.367 200.112 301.973 Q197.056 306.556 191.246 306.556 Q185.436 306.556 182.357 301.973 Q179.302 297.367 179.302 288.64 Q179.302 279.89 182.357 275.306 Q185.436 270.7 191.246 270.7 Z" fill="#000000" fill-rule="nonzero" fill-opacity="1" /><path clip-path="url(#clip360)" d="M221.408 274.404 Q217.797 274.404 215.968 277.968 Q214.163 281.51 214.163 288.64 Q214.163 295.746 215.968 299.311 Q217.797 302.853 221.408 302.853 Q225.042 302.853 226.848 299.311 Q228.676 295.746 228.676 288.64 Q228.676 281.51 226.848 277.968 Q225.042 274.404 221.408 274.404 M221.408 270.7 Q227.218 270.7 230.274 275.306 Q233.352 279.89 233.352 288.64 Q233.352 297.367 230.274 301.973 Q227.218 306.556 221.408 306.556 Q215.598 306.556 212.519 301.973 Q209.463 297.367 209.463 288.64 Q209.463 279.89 212.519 275.306 Q215.598 270.7 221.408 270.7 Z" fill="#000000" fill-rule="nonzero" fill-opacity="1" /><path clip-path="url(#clip360)" d="M1032.29 12.096 L1040.47 12.096 L1040.47 65.6895 L1069.92 65.6895 L1069.92 72.576 L1032.29 72.576 L1032.29 12.096 Z" fill="#000000" fill-rule="nonzero" fill-opacity="1" /><path clip-path="url(#clip360)" d="M1094.31 32.4315 Q1088.32 32.4315 1084.83 37.1306 Q1081.35 41.7891 1081.35 49.9314 Q1081.35 58.0738 1084.79 62.7728 Q1088.27 67.4314 1094.31 67.4314 Q1100.27 67.4314 1103.75 62.7323 Q1107.23 58.0333 1107.23 49.9314 Q1107.23 41.8701 1103.75 37.1711 Q1100.27 32.4315 1094.31 32.4315 M1094.31 26.1121 Q1104.03 26.1121 1109.58 32.4315 Q1115.13 38.7509 1115.13 49.9314 Q1115.13 61.0714 1109.58 67.4314 Q1104.03 73.7508 1094.31 73.7508 Q1084.55 73.7508 1079 67.4314 Q1073.49 61.0714 1073.49 49.9314 Q1073.49 38.7509 1079 32.4315 Q1084.55 26.1121 1094.31 26.1121 Z" fill="#000000" fill-rule="nonzero" fill-opacity="1" /><path clip-path="url(#clip360)" d="M1157.34 49.3643 Q1157.34 41.2625 1153.98 36.8065 Q1150.66 32.3505 1144.62 32.3505 Q1138.63 32.3505 1135.27 36.8065 Q1131.94 41.2625 1131.94 49.3643 Q1131.94 57.4256 1135.27 61.8816 Q1138.63 66.3376 1144.62 66.3376 Q1150.66 66.3376 1153.98 61.8816 Q1157.34 57.4256 1157.34 49.3643 M1164.8 66.9452 Q1164.8 78.5308 1159.65 84.1616 Q1154.51 89.8329 1143.89 89.8329 Q1139.96 89.8329 1136.48 89.2252 Q1133 88.6581 1129.72 87.4428 L1129.72 80.1917 Q1133 81.9741 1136.2 82.8248 Q1139.4 83.6755 1142.72 83.6755 Q1150.05 83.6755 1153.7 79.8271 Q1157.34 76.0193 1157.34 68.282 L1157.34 64.5957 Q1155.03 68.6061 1151.43 70.5911 Q1147.82 72.576 1142.8 72.576 Q1134.45 72.576 1129.35 66.2161 Q1124.25 59.8562 1124.25 49.3643 Q1124.25 38.832 1129.35 32.472 Q1134.45 26.1121 1142.8 26.1121 Q1147.82 26.1121 1151.43 28.0971 Q1155.03 30.082 1157.34 34.0924 L1157.34 27.2059 L1164.8 27.2059 L1164.8 66.9452 Z" fill="#000000" fill-rule="nonzero" fill-opacity="1" /><path clip-path="url(#clip360)" d="M1176.38 46.5287 L1198.22 46.5287 L1198.22 53.1722 L1176.38 53.1722 L1176.38 46.5287 Z" fill="#000000" fill-rule="nonzero" fill-opacity="1" /><path clip-path="url(#clip360)" d="M1210.09 9.54393 L1217.54 9.54393 L1217.54 72.576 L1210.09 72.576 L1210.09 9.54393 Z" fill="#000000" fill-rule="nonzero" fill-opacity="1" /><path clip-path="url(#clip360)" d="M1233.13 27.2059 L1240.59 27.2059 L1240.59 72.576 L1233.13 72.576 L1233.13 27.2059 M1233.13 9.54393 L1240.59 9.54393 L1240.59 18.9825 L1233.13 18.9825 L1233.13 9.54393 Z" fill="#000000" fill-rule="nonzero" fill-opacity="1" /><path clip-path="url(#clip360)" d="M1255.9 9.54393 L1263.4 9.54393 L1263.4 46.7717 L1285.63 27.2059 L1295.15 27.2059 L1271.09 48.4326 L1296.17 72.576 L1286.44 72.576 L1263.4 50.4176 L1263.4 72.576 L1255.9 72.576 L1255.9 9.54393 Z" fill="#000000" fill-rule="nonzero" fill-opacity="1" /><path clip-path="url(#clip360)" d="M1340.08 48.0275 L1340.08 51.6733 L1305.81 51.6733 Q1306.29 59.3701 1310.43 63.421 Q1314.6 67.4314 1322.01 67.4314 Q1326.31 67.4314 1330.32 66.3781 Q1334.37 65.3249 1338.34 63.2184 L1338.34 70.267 Q1334.33 71.9684 1330.11 72.8596 Q1325.9 73.7508 1321.57 73.7508 Q1310.71 73.7508 1304.35 67.4314 Q1298.03 61.1119 1298.03 50.3365 Q1298.03 39.1965 1304.03 32.6746 Q1310.06 26.1121 1320.27 26.1121 Q1329.42 26.1121 1334.73 32.0264 Q1340.08 37.9003 1340.08 48.0275 M1332.63 45.84 Q1332.54 39.7232 1329.18 36.0774 Q1325.86 32.4315 1320.35 32.4315 Q1314.11 32.4315 1310.35 35.9558 Q1306.62 39.4801 1306.05 45.8805 L1332.63 45.84 Z" fill="#000000" fill-rule="nonzero" fill-opacity="1" /><path clip-path="url(#clip360)" d="M1352.31 9.54393 L1359.77 9.54393 L1359.77 72.576 L1352.31 72.576 L1352.31 9.54393 Z" fill="#000000" fill-rule="nonzero" fill-opacity="1" /><path clip-path="url(#clip360)" d="M1375.36 27.2059 L1382.82 27.2059 L1382.82 72.576 L1375.36 72.576 L1375.36 27.2059 M1375.36 9.54393 L1382.82 9.54393 L1382.82 18.9825 L1375.36 18.9825 L1375.36 9.54393 Z" fill="#000000" fill-rule="nonzero" fill-opacity="1" /><path clip-path="url(#clip360)" d="M1436.13 45.1919 L1436.13 72.576 L1428.67 72.576 L1428.67 45.4349 Q1428.67 38.994 1426.16 35.7938 Q1423.65 32.5936 1418.63 32.5936 Q1412.59 32.5936 1409.11 36.4419 Q1405.62 40.2903 1405.62 46.9338 L1405.62 72.576 L1398.13 72.576 L1398.13 9.54393 L1405.62 9.54393 L1405.62 34.2544 Q1408.3 30.163 1411.9 28.1376 Q1415.55 26.1121 1420.29 26.1121 Q1428.1 26.1121 1432.12 30.9732 Q1436.13 35.7938 1436.13 45.1919 Z" fill="#000000" fill-rule="nonzero" fill-opacity="1" /><path clip-path="url(#clip360)" d="M1468.57 32.4315 Q1462.58 32.4315 1459.09 37.1306 Q1455.61 41.7891 1455.61 49.9314 Q1455.61 58.0738 1459.05 62.7728 Q1462.54 67.4314 1468.57 67.4314 Q1474.53 67.4314 1478.01 62.7323 Q1481.5 58.0333 1481.5 49.9314 Q1481.5 41.8701 1478.01 37.1711 Q1474.53 32.4315 1468.57 32.4315 M1468.57 26.1121 Q1478.3 26.1121 1483.85 32.4315 Q1489.4 38.7509 1489.4 49.9314 Q1489.4 61.0714 1483.85 67.4314 Q1478.3 73.7508 1468.57 73.7508 Q1458.81 73.7508 1453.26 67.4314 Q1447.75 61.0714 1447.75 49.9314 Q1447.75 38.7509 1453.26 32.4315 Q1458.81 26.1121 1468.57 26.1121 Z" fill="#000000" fill-rule="nonzero" fill-opacity="1" /><path clip-path="url(#clip360)" d="M1519.33 32.4315 Q1513.34 32.4315 1509.85 37.1306 Q1506.37 41.7891 1506.37 49.9314 Q1506.37 58.0738 1509.81 62.7728 Q1513.3 67.4314 1519.33 67.4314 Q1525.29 67.4314 1528.77 62.7323 Q1532.25 58.0333 1532.25 49.9314 Q1532.25 41.8701 1528.77 37.1711 Q1525.29 32.4315 1519.33 32.4315 M1519.33 26.1121 Q1529.05 26.1121 1534.6 32.4315 Q1540.15 38.7509 1540.15 49.9314 Q1540.15 61.0714 1534.6 67.4314 Q1529.05 73.7508 1519.33 73.7508 Q1509.57 73.7508 1504.02 67.4314 Q1498.51 61.0714 1498.51 49.9314 Q1498.51 38.7509 1504.02 32.4315 Q1509.57 26.1121 1519.33 26.1121 Z" fill="#000000" fill-rule="nonzero" fill-opacity="1" /><path clip-path="url(#clip360)" d="M1582.36 34.0924 L1582.36 9.54393 L1589.82 9.54393 L1589.82 72.576 L1582.36 72.576 L1582.36 65.7705 Q1580.01 69.8214 1576.41 71.8063 Q1572.84 73.7508 1567.82 73.7508 Q1559.6 73.7508 1554.41 67.1883 Q1549.27 60.6258 1549.27 49.9314 Q1549.27 39.2371 1554.41 32.6746 Q1559.6 26.1121 1567.82 26.1121 Q1572.84 26.1121 1576.41 28.0971 Q1580.01 30.0415 1582.36 34.0924 M1556.96 49.9314 Q1556.96 58.1548 1560.33 62.8538 Q1563.73 67.5124 1569.64 67.5124 Q1575.56 67.5124 1578.96 62.8538 Q1582.36 58.1548 1582.36 49.9314 Q1582.36 41.7081 1578.96 37.0496 Q1575.56 32.3505 1569.64 32.3505 Q1563.73 32.3505 1560.33 37.0496 Q1556.96 41.7081 1556.96 49.9314 Z" fill="#000000" fill-rule="nonzero" fill-opacity="1" /><polyline clip-path="url(#clip362)" style="stroke:#009af9; stroke-linecap:round; stroke-linejoin:round; stroke-width:4; stroke-opacity:1; fill:none" points="328.317,1374.46 361.63,1032.82 394.943,518.747 428.256,403.408 461.569,321.698 494.882,293.686 528.195,241.644 561.508,227.531 594.822,207.961 628.135,195.492 661.448,194.473 694.761,181.541 728.074,177.787 761.387,173.346 794.7,170.718 828.014,167.936 861.327,165.538 894.64,164.244 927.953,163.275 961.266,162.112 994.579,161.147 1027.89,160.419 1061.21,160.107 1094.52,160.152 1127.83,160.377 1161.14,160.387 1194.46,160.875 1227.77,161.527 1261.08,162.325 1294.4,163.696 1327.71,164.801 1361.02,166.089 1394.34,167.934 1427.65,169.829 1460.96,171.676 1494.28,174.108 1527.59,176.142 1560.9,179.164 1594.22,181.831 1627.53,184.63 1660.84,187.639 1694.16,190.847 1727.47,194.404 1760.78,197.68 1794.09,201.128 1827.41,204.99 1860.72,208.63 1894.03,212.346 1927.35,216.623 1960.66,220.798 1993.97,224.481 2027.29,228.706 2060.6,232.448 2093.91,237.056 2127.23,240.897 2160.54,244.855 2193.85,250.193 2227.17,254.248 2260.48,258.358 2293.79,262.869 "/>
<polyline clip-path="url(#clip362)" style="stroke:#008000; stroke-linecap:round; stroke-linejoin:round; stroke-width:4; stroke-opacity:1; fill:none" points="328.317,943.255 361.63,561.18 394.943,437.19 428.256,353.47 461.569,277.803 494.882,265.114 528.195,247.17 561.508,221.63 594.822,207.192 628.135,195.464 661.448,193.02 694.761,180.907 728.074,178.553 761.387,174.366 794.7,172.01 828.014,168.998 861.327,166.739 894.64,164.765 927.953,162.856 961.266,162.413 994.579,161.68 1027.89,160.601 1061.21,160.658 1094.52,159.909 1127.83,160.083 1161.14,160.369 1194.46,160.907 1227.77,161.517 1261.08,162.391 1294.4,163.695 1327.71,164.798 1361.02,166.283 1394.34,167.956 1427.65,169.538 1460.96,171.791 1494.28,173.97 1527.59,176.4 1560.9,179.008 1594.22,181.744 1627.53,184.813 1660.84,187.772 1694.16,191.024 1727.47,194.33 1760.78,197.7 1794.09,201.302 1827.41,204.804 1860.72,208.815 1894.03,212.955 1927.35,216.715 1960.66,220.748 1993.97,224.503 2027.29,228.796 2060.6,233.11 2093.91,236.993 2127.23,241.279 2160.54,244.933 2193.85,249.716 2227.17,253.996 2260.48,258.448 2293.79,263.731 "/>
<polyline clip-path="url(#clip362)" style="stroke:#0000ff; stroke-linecap:round; stroke-linejoin:round; stroke-width:4; stroke-opacity:1; fill:none" stroke-dasharray="16, 10" points="1061.21,2698.32 1061.21,-1163.95 "/>
<path clip-path="url(#clip360)" d="M1907.56 1367.98 L2283.31 1367.98 L2283.31 1212.46 L1907.56 1212.46  Z" fill="#ffffff" fill-rule="evenodd" fill-opacity="1"/>
<polyline clip-path="url(#clip360)" style="stroke:#000000; stroke-linecap:round; stroke-linejoin:round; stroke-width:4; stroke-opacity:1; fill:none" points="1907.56,1367.98 2283.31,1367.98 2283.31,1212.46 1907.56,1212.46 1907.56,1367.98 "/>
<polyline clip-path="url(#clip360)" style="stroke:#009af9; stroke-linecap:round; stroke-linejoin:round; stroke-width:4; stroke-opacity:1; fill:none" points="1930.71,1264.3 2069.6,1264.3 "/>
<path clip-path="url(#clip360)" d="M2097.43 1250.87 L2097.43 1263.85 L2103.31 1263.85 Q2106.57 1263.85 2108.36 1262.16 Q2110.14 1260.47 2110.14 1257.35 Q2110.14 1254.24 2108.36 1252.55 Q2106.57 1250.87 2103.31 1250.87 L2097.43 1250.87 M2092.75 1247.02 L2103.31 1247.02 Q2109.12 1247.02 2112.08 1249.66 Q2115.07 1252.28 2115.07 1257.35 Q2115.07 1262.46 2112.08 1265.08 Q2109.12 1267.69 2103.31 1267.69 L2097.43 1267.69 L2097.43 1281.58 L2092.75 1281.58 L2092.75 1247.02 Z" fill="#000000" fill-rule="nonzero" fill-opacity="1" /><path clip-path="url(#clip360)" d="M2121.34 1247.02 L2141.2 1247.02 L2141.2 1250.96 L2126.02 1250.96 L2126.02 1261.14 L2139.72 1261.14 L2139.72 1265.08 L2126.02 1265.08 L2126.02 1281.58 L2121.34 1281.58 L2121.34 1247.02 Z" fill="#000000" fill-rule="nonzero" fill-opacity="1" /><polyline clip-path="url(#clip360)" style="stroke:#008000; stroke-linecap:round; stroke-linejoin:round; stroke-width:4; stroke-opacity:1; fill:none" points="1930.71,1316.14 2069.6,1316.14 "/>
<path clip-path="url(#clip360)" d="M2108.59 1303.47 L2102.24 1320.67 L2114.95 1320.67 L2108.59 1303.47 M2105.95 1298.86 L2111.25 1298.86 L2124.42 1333.42 L2119.56 1333.42 L2116.41 1324.56 L2100.83 1324.56 L2097.68 1333.42 L2092.75 1333.42 L2105.95 1298.86 Z" fill="#000000" fill-rule="nonzero" fill-opacity="1" /><path clip-path="url(#clip360)" d="M2128.93 1298.86 L2133.63 1298.86 L2133.63 1319.86 Q2133.63 1325.41 2135.65 1327.87 Q2137.66 1330.3 2142.17 1330.3 Q2146.67 1330.3 2148.68 1327.87 Q2150.69 1325.41 2150.69 1319.86 L2150.69 1298.86 L2155.39 1298.86 L2155.39 1320.44 Q2155.39 1327.2 2152.04 1330.64 Q2148.7 1334.09 2142.17 1334.09 Q2135.62 1334.09 2132.27 1330.64 Q2128.93 1327.2 2128.93 1320.44 L2128.93 1298.86 Z" fill="#000000" fill-rule="nonzero" fill-opacity="1" /><path clip-path="url(#clip360)" d="M2162.5 1298.86 L2167.52 1298.86 L2176.11 1311.71 L2184.74 1298.86 L2189.77 1298.86 L2178.66 1315.46 L2190.51 1333.42 L2185.48 1333.42 L2175.76 1318.72 L2165.97 1333.42 L2160.92 1333.42 L2173.26 1314.97 L2162.5 1298.86 Z" fill="#000000" fill-rule="nonzero" fill-opacity="1" /><path clip-path="url(#clip360)" d="M2216.39 1302.71 L2216.39 1315.69 L2222.27 1315.69 Q2225.53 1315.69 2227.31 1314 Q2229.1 1312.31 2229.1 1309.19 Q2229.1 1306.08 2227.31 1304.39 Q2225.53 1302.71 2222.27 1302.71 L2216.39 1302.71 M2211.71 1298.86 L2222.27 1298.86 Q2228.08 1298.86 2231.04 1301.5 Q2234.03 1304.12 2234.03 1309.19 Q2234.03 1314.3 2231.04 1316.92 Q2228.08 1319.53 2222.27 1319.53 L2216.39 1319.53 L2216.39 1333.42 L2211.71 1333.42 L2211.71 1298.86 Z" fill="#000000" fill-rule="nonzero" fill-opacity="1" /><path clip-path="url(#clip360)" d="M2240.3 1298.86 L2260.16 1298.86 L2260.16 1302.8 L2244.98 1302.8 L2244.98 1312.98 L2258.68 1312.98 L2258.68 1316.92 L2244.98 1316.92 L2244.98 1333.42 L2240.3 1333.42 L2240.3 1298.86 Z" fill="#000000" fill-rule="nonzero" fill-opacity="1" /></svg>
