<?xml version="1.0" encoding="utf-8"?>
<svg xmlns="http://www.w3.org/2000/svg" xmlns:xlink="http://www.w3.org/1999/xlink" width="600" height="400" viewBox="0 0 2400 1600">
<defs>
  <clipPath id="clip300">
    <rect x="0" y="0" width="2400" height="1600"/>
  </clipPath>
</defs>
<path clip-path="url(#clip300)" d="M0 1600 L2400 1600 L2400 0 L0 0  Z" fill="#ffffff" fill-rule="evenodd" fill-opacity="1"/>
<defs>
  <clipPath id="clip301">
    <rect x="140" y="47" width="2213" height="1440"/>
  </clipPath>
</defs>
<path clip-path="url(#clip300)" d="M140.51 1486.45 L2352.76 1486.45 L2352.76 47.2441 L140.51 47.2441  Z" fill="#ffffff" fill-rule="evenodd" fill-opacity="1"/>
<polyline clip-path="url(#clip301)" style="stroke:#000000; stroke-linecap:round; stroke-linejoin:round; stroke-width:2; stroke-opacity:0.1; fill:none" points="353.181,1486.45 353.181,47.2441 "/>
<polyline clip-path="url(#clip301)" style="stroke:#000000; stroke-linecap:round; stroke-linejoin:round; stroke-width:2; stroke-opacity:0.1; fill:none" points="786.255,1486.45 786.255,47.2441 "/>
<polyline clip-path="url(#clip301)" style="stroke:#000000; stroke-linecap:round; stroke-linejoin:round; stroke-width:2; stroke-opacity:0.1; fill:none" points="1219.33,1486.45 1219.33,47.2441 "/>
<polyline clip-path="url(#clip301)" style="stroke:#000000; stroke-linecap:round; stroke-linejoin:round; stroke-width:2; stroke-opacity:0.1; fill:none" points="1652.4,1486.45 1652.4,47.2441 "/>
<polyline clip-path="url(#clip301)" style="stroke:#000000; stroke-linecap:round; stroke-linejoin:round; stroke-width:2; stroke-opacity:0.1; fill:none" points="2085.48,1486.45 2085.48,47.2441 "/>
<polyline clip-path="url(#clip301)" style="stroke:#000000; stroke-linecap:round; stroke-linejoin:round; stroke-width:2; stroke-opacity:0.1; fill:none" points="140.51,1180.23 2352.76,1180.23 "/>
<polyline clip-path="url(#clip301)" style="stroke:#000000; stroke-linecap:round; stroke-linejoin:round; stroke-width:2; stroke-opacity:0.1; fill:none" points="140.51,872.483 2352.76,872.483 "/>
<polyline clip-path="url(#clip301)" style="stroke:#000000; stroke-linecap:round; stroke-linejoin:round; stroke-width:2; stroke-opacity:0.1; fill:none" points="140.51,564.737 2352.76,564.737 "/>
<polyline clip-path="url(#clip301)" style="stroke:#000000; stroke-linecap:round; stroke-linejoin:round; stroke-width:2; stroke-opacity:0.1; fill:none" points="140.51,256.991 2352.76,256.991 "/>
<polyline clip-path="url(#clip300)" style="stroke:#000000; stroke-linecap:round; stroke-linejoin:round; stroke-width:4; stroke-opacity:1; fill:none" points="140.51,1486.45 2352.76,1486.45 "/>
<polyline clip-path="url(#clip300)" style="stroke:#000000; stroke-linecap:round; stroke-linejoin:round; stroke-width:4; stroke-opacity:1; fill:none" points="353.181,1486.45 353.181,1467.55 "/>
<polyline clip-path="url(#clip300)" style="stroke:#000000; stroke-linecap:round; stroke-linejoin:round; stroke-width:4; stroke-opacity:1; fill:none" points="786.255,1486.45 786.255,1467.55 "/>
<polyline clip-path="url(#clip300)" style="stroke:#000000; stroke-linecap:round; stroke-linejoin:round; stroke-width:4; stroke-opacity:1; fill:none" points="1219.33,1486.45 1219.33,1467.55 "/>
<polyline clip-path="url(#clip300)" style="stroke:#000000; stroke-linecap:round; stroke-linejoin:round; stroke-width:4; stroke-opacity:1; fill:none" points="1652.4,1486.45 1652.4,1467.55 "/>
<polyline clip-path="url(#clip300)" style="stroke:#000000; stroke-linecap:round; stroke-linejoin:round; stroke-width:4; stroke-opacity:1; fill:none" points="2085.48,1486.45 2085.48,1467.55 "/>
<path clip-path="url(#clip300)" d="M307.244 1532.02 L336.919 1532.02 L336.919 1535.95 L307.244 1535.95 L307.244 1532.02 Z" fill="#000000" fill-rule="nonzero" fill-opacity="1" /><path clip-path="url(#clip300)" d="M361.179 1530.21 Q364.535 1530.93 366.41 1533.2 Q368.308 1535.47 368.308 1538.8 Q368.308 1543.92 364.79 1546.72 Q361.271 1549.52 354.79 1549.52 Q352.614 1549.52 350.299 1549.08 Q348.007 1548.66 345.554 1547.81 L345.554 1543.29 Q347.498 1544.43 349.813 1545.01 Q352.128 1545.58 354.651 1545.58 Q359.049 1545.58 361.341 1543.85 Q363.655 1542.11 363.655 1538.8 Q363.655 1535.75 361.503 1534.03 Q359.373 1532.3 355.554 1532.3 L351.526 1532.3 L351.526 1528.45 L355.739 1528.45 Q359.188 1528.45 361.016 1527.09 Q362.845 1525.7 362.845 1523.11 Q362.845 1520.45 360.947 1519.03 Q359.072 1517.6 355.554 1517.6 Q353.632 1517.6 351.433 1518.01 Q349.234 1518.43 346.595 1519.31 L346.595 1515.14 Q349.257 1514.4 351.572 1514.03 Q353.91 1513.66 355.97 1513.66 Q361.294 1513.66 364.396 1516.09 Q367.498 1518.5 367.498 1522.62 Q367.498 1525.49 365.854 1527.48 Q364.211 1529.45 361.179 1530.21 Z" fill="#000000" fill-rule="nonzero" fill-opacity="1" /><path clip-path="url(#clip300)" d="M387.174 1517.37 Q383.563 1517.37 381.734 1520.93 Q379.928 1524.47 379.928 1531.6 Q379.928 1538.71 381.734 1542.27 Q383.563 1545.82 387.174 1545.82 Q390.808 1545.82 392.614 1542.27 Q394.442 1538.71 394.442 1531.6 Q394.442 1524.47 392.614 1520.93 Q390.808 1517.37 387.174 1517.37 M387.174 1513.66 Q392.984 1513.66 396.039 1518.27 Q399.118 1522.85 399.118 1531.6 Q399.118 1540.33 396.039 1544.94 Q392.984 1549.52 387.174 1549.52 Q381.364 1549.52 378.285 1544.94 Q375.229 1540.33 375.229 1531.6 Q375.229 1522.85 378.285 1518.27 Q381.364 1513.66 387.174 1513.66 Z" fill="#000000" fill-rule="nonzero" fill-opacity="1" /><path clip-path="url(#clip300)" d="M786.255 1517.37 Q782.644 1517.37 780.815 1520.93 Q779.01 1524.47 779.01 1531.6 Q779.01 1538.71 780.815 1542.27 Q782.644 1545.82 786.255 1545.82 Q789.889 1545.82 791.695 1542.27 Q793.523 1538.71 793.523 1531.6 Q793.523 1524.47 791.695 1520.93 Q789.889 1517.37 786.255 1517.37 M786.255 1513.66 Q792.065 1513.66 795.121 1518.27 Q798.199 1522.85 798.199 1531.6 Q798.199 1540.33 795.121 1544.94 Q792.065 1549.52 786.255 1549.52 Q780.445 1549.52 777.366 1544.94 Q774.31 1540.33 774.31 1531.6 Q774.31 1522.85 777.366 1518.27 Q780.445 1513.66 786.255 1513.66 Z" fill="#000000" fill-rule="nonzero" fill-opacity="1" /><path clip-path="url(#clip300)" d="M1208.17 1530.21 Q1211.53 1530.93 1213.4 1533.2 Q1215.3 1535.47 1215.3 1538.8 Q1215.3 1543.92 1211.78 1546.72 Q1208.26 1549.52 1201.78 1549.52 Q1199.61 1549.52 1197.29 1549.08 Q1195 1548.66 1192.55 1547.81 L1192.55 1543.29 Q1194.49 1544.43 1196.81 1545.01 Q1199.12 1545.58 1201.64 1545.58 Q1206.04 1545.58 1208.33 1543.85 Q1210.65 1542.11 1210.65 1538.8 Q1210.65 1535.75 1208.5 1534.03 Q1206.37 1532.3 1202.55 1532.3 L1198.52 1532.3 L1198.52 1528.45 L1202.73 1528.45 Q1206.18 1528.45 1208.01 1527.09 Q1209.84 1525.7 1209.84 1523.11 Q1209.84 1520.45 1207.94 1519.03 Q1206.07 1517.6 1202.55 1517.6 Q1200.63 1517.6 1198.43 1518.01 Q1196.23 1518.43 1193.59 1519.31 L1193.59 1515.14 Q1196.25 1514.4 1198.57 1514.03 Q1200.9 1513.66 1202.96 1513.66 Q1208.29 1513.66 1211.39 1516.09 Q1214.49 1518.5 1214.49 1522.62 Q1214.49 1525.49 1212.85 1527.48 Q1211.2 1529.45 1208.17 1530.21 Z" fill="#000000" fill-rule="nonzero" fill-opacity="1" /><path clip-path="url(#clip300)" d="M1234.17 1517.37 Q1230.56 1517.37 1228.73 1520.93 Q1226.92 1524.47 1226.92 1531.6 Q1226.92 1538.71 1228.73 1542.27 Q1230.56 1545.82 1234.17 1545.82 Q1237.8 1545.82 1239.61 1542.27 Q1241.44 1538.71 1241.44 1531.6 Q1241.44 1524.47 1239.61 1520.93 Q1237.8 1517.37 1234.17 1517.37 M1234.17 1513.66 Q1239.98 1513.66 1243.03 1518.27 Q1246.11 1522.85 1246.11 1531.6 Q1246.11 1540.33 1243.03 1544.94 Q1239.98 1549.52 1234.17 1549.52 Q1228.36 1549.52 1225.28 1544.94 Q1222.22 1540.33 1222.22 1531.6 Q1222.22 1522.85 1225.28 1518.27 Q1228.36 1513.66 1234.17 1513.66 Z" fill="#000000" fill-rule="nonzero" fill-opacity="1" /><path clip-path="url(#clip300)" d="M1637.81 1529.7 Q1634.66 1529.7 1632.81 1531.86 Q1630.98 1534.01 1630.98 1537.76 Q1630.98 1541.49 1632.81 1543.66 Q1634.66 1545.82 1637.81 1545.82 Q1640.96 1545.82 1642.78 1543.66 Q1644.64 1541.49 1644.64 1537.76 Q1644.64 1534.01 1642.78 1531.86 Q1640.96 1529.7 1637.81 1529.7 M1647.09 1515.05 L1647.09 1519.31 Q1645.33 1518.48 1643.53 1518.04 Q1641.74 1517.6 1639.98 1517.6 Q1635.35 1517.6 1632.9 1520.72 Q1630.47 1523.85 1630.12 1530.17 Q1631.49 1528.15 1633.55 1527.09 Q1635.61 1526 1638.09 1526 Q1643.29 1526 1646.3 1529.17 Q1649.34 1532.32 1649.34 1537.76 Q1649.34 1543.08 1646.19 1546.3 Q1643.04 1549.52 1637.81 1549.52 Q1631.81 1549.52 1628.64 1544.94 Q1625.47 1540.33 1625.47 1531.6 Q1625.47 1523.41 1629.36 1518.55 Q1633.25 1513.66 1639.8 1513.66 Q1641.56 1513.66 1643.34 1514.01 Q1645.15 1514.36 1647.09 1515.05 Z" fill="#000000" fill-rule="nonzero" fill-opacity="1" /><path clip-path="url(#clip300)" d="M1667.39 1517.37 Q1663.78 1517.37 1661.95 1520.93 Q1660.15 1524.47 1660.15 1531.6 Q1660.15 1538.71 1661.95 1542.27 Q1663.78 1545.82 1667.39 1545.82 Q1671.03 1545.82 1672.83 1542.27 Q1674.66 1538.71 1674.66 1531.6 Q1674.66 1524.47 1672.83 1520.93 Q1671.03 1517.37 1667.39 1517.37 M1667.39 1513.66 Q1673.2 1513.66 1676.26 1518.27 Q1679.34 1522.85 1679.34 1531.6 Q1679.34 1540.33 1676.26 1544.94 Q1673.2 1549.52 1667.39 1549.52 Q1661.58 1549.52 1658.5 1544.94 Q1655.45 1540.33 1655.45 1531.6 Q1655.45 1522.85 1658.5 1518.27 Q1661.58 1513.66 1667.39 1513.66 Z" fill="#000000" fill-rule="nonzero" fill-opacity="1" /><path clip-path="url(#clip300)" d="M2060.6 1548.13 L2060.6 1543.87 Q2062.36 1544.7 2064.17 1545.14 Q2065.97 1545.58 2067.71 1545.58 Q2072.34 1545.58 2074.77 1542.48 Q2077.22 1539.36 2077.57 1533.01 Q2076.23 1535.01 2074.17 1536.07 Q2072.11 1537.13 2069.61 1537.13 Q2064.42 1537.13 2061.39 1534.01 Q2058.38 1530.86 2058.38 1525.42 Q2058.38 1520.1 2061.53 1516.88 Q2064.68 1513.66 2069.91 1513.66 Q2075.91 1513.66 2079.05 1518.27 Q2082.22 1522.85 2082.22 1531.6 Q2082.22 1539.77 2078.34 1544.66 Q2074.47 1549.52 2067.92 1549.52 Q2066.16 1549.52 2064.35 1549.17 Q2062.55 1548.82 2060.6 1548.13 M2069.91 1533.48 Q2073.06 1533.48 2074.89 1531.32 Q2076.74 1529.17 2076.74 1525.42 Q2076.74 1521.7 2074.89 1519.54 Q2073.06 1517.37 2069.91 1517.37 Q2066.76 1517.37 2064.91 1519.54 Q2063.08 1521.7 2063.08 1525.42 Q2063.08 1529.17 2064.91 1531.32 Q2066.76 1533.48 2069.91 1533.48 Z" fill="#000000" fill-rule="nonzero" fill-opacity="1" /><path clip-path="url(#clip300)" d="M2100.63 1517.37 Q2097.02 1517.37 2095.19 1520.93 Q2093.38 1524.47 2093.38 1531.6 Q2093.38 1538.71 2095.19 1542.27 Q2097.02 1545.82 2100.63 1545.82 Q2104.26 1545.82 2106.07 1542.27 Q2107.9 1538.71 2107.9 1531.6 Q2107.9 1524.47 2106.07 1520.93 Q2104.26 1517.37 2100.63 1517.37 M2100.63 1513.66 Q2106.44 1513.66 2109.49 1518.27 Q2112.57 1522.85 2112.57 1531.6 Q2112.57 1540.33 2109.49 1544.94 Q2106.44 1549.52 2100.63 1549.52 Q2094.82 1549.52 2091.74 1544.94 Q2088.68 1540.33 2088.68 1531.6 Q2088.68 1522.85 2091.74 1518.27 Q2094.82 1513.66 2100.63 1513.66 Z" fill="#000000" fill-rule="nonzero" fill-opacity="1" /><polyline clip-path="url(#clip300)" style="stroke:#000000; stroke-linecap:round; stroke-linejoin:round; stroke-width:4; stroke-opacity:1; fill:none" points="140.51,1486.45 140.51,47.2441 "/>
<polyline clip-path="url(#clip300)" style="stroke:#000000; stroke-linecap:round; stroke-linejoin:round; stroke-width:4; stroke-opacity:1; fill:none" points="140.51,1180.23 159.408,1180.23 "/>
<polyline clip-path="url(#clip300)" style="stroke:#000000; stroke-linecap:round; stroke-linejoin:round; stroke-width:4; stroke-opacity:1; fill:none" points="140.51,872.483 159.408,872.483 "/>
<polyline clip-path="url(#clip300)" style="stroke:#000000; stroke-linecap:round; stroke-linejoin:round; stroke-width:4; stroke-opacity:1; fill:none" points="140.51,564.737 159.408,564.737 "/>
<polyline clip-path="url(#clip300)" style="stroke:#000000; stroke-linecap:round; stroke-linejoin:round; stroke-width:4; stroke-opacity:1; fill:none" points="140.51,256.991 159.408,256.991 "/>
<path clip-path="url(#clip300)" d="M92.566 1166.03 Q88.9549 1166.03 87.1262 1169.59 Q85.3206 1173.13 85.3206 1180.26 Q85.3206 1187.37 87.1262 1190.94 Q88.9549 1194.48 92.566 1194.48 Q96.2002 1194.48 98.0058 1190.94 Q99.8345 1187.37 99.8345 1180.26 Q99.8345 1173.13 98.0058 1169.59 Q96.2002 1166.03 92.566 1166.03 M92.566 1162.32 Q98.3761 1162.32 101.432 1166.93 Q104.51 1171.51 104.51 1180.26 Q104.51 1188.99 101.432 1193.6 Q98.3761 1198.18 92.566 1198.18 Q86.7558 1198.18 83.6771 1193.6 Q80.6216 1188.99 80.6216 1180.26 Q80.6216 1171.51 83.6771 1166.93 Q86.7558 1162.32 92.566 1162.32 Z" fill="#000000" fill-rule="nonzero" fill-opacity="1" /><path clip-path="url(#clip300)" d="M57.4273 885.828 L73.7466 885.828 L73.7466 889.763 L51.8023 889.763 L51.8023 885.828 Q54.4643 883.073 59.0476 878.444 Q63.6541 873.791 64.8346 872.448 Q67.08 869.925 67.9596 868.189 Q68.8624 866.43 68.8624 864.74 Q68.8624 861.985 66.918 860.249 Q64.9967 858.513 61.8948 858.513 Q59.6958 858.513 57.2421 859.277 Q54.8115 860.041 52.0338 861.592 L52.0338 856.87 Q54.8578 855.735 57.3115 855.157 Q59.7652 854.578 61.8023 854.578 Q67.1726 854.578 70.367 857.263 Q73.5614 859.948 73.5614 864.439 Q73.5614 866.569 72.7513 868.49 Q71.9642 870.388 69.8578 872.981 Q69.2791 873.652 66.1772 876.87 Q63.0754 880.064 57.4273 885.828 Z" fill="#000000" fill-rule="nonzero" fill-opacity="1" /><path clip-path="url(#clip300)" d="M83.6077 855.203 L101.964 855.203 L101.964 859.138 L87.8901 859.138 L87.8901 867.61 Q88.9086 867.263 89.9271 867.101 Q90.9456 866.916 91.9641 866.916 Q97.7511 866.916 101.131 870.087 Q104.51 873.258 104.51 878.675 Q104.51 884.254 101.038 887.356 Q97.566 890.434 91.2465 890.434 Q89.0706 890.434 86.8021 890.064 Q84.5568 889.694 82.1494 888.953 L82.1494 884.254 Q84.2327 885.388 86.4549 885.944 Q88.6771 886.499 91.1539 886.499 Q95.1586 886.499 97.4965 884.393 Q99.8345 882.286 99.8345 878.675 Q99.8345 875.064 97.4965 872.957 Q95.1586 870.851 91.1539 870.851 Q89.279 870.851 87.404 871.268 Q85.5521 871.684 83.6077 872.564 L83.6077 855.203 Z" fill="#000000" fill-rule="nonzero" fill-opacity="1" /><path clip-path="url(#clip300)" d="M52.4505 547.457 L70.8068 547.457 L70.8068 551.392 L56.7328 551.392 L56.7328 559.864 Q57.7513 559.517 58.7699 559.355 Q59.7884 559.17 60.8069 559.17 Q66.5939 559.17 69.9735 562.341 Q73.3531 565.512 73.3531 570.929 Q73.3531 576.507 69.8809 579.609 Q66.4087 582.688 60.0893 582.688 Q57.9134 582.688 55.6449 582.318 Q53.3995 581.947 50.9921 581.207 L50.9921 576.507 Q53.0754 577.642 55.2977 578.197 Q57.5199 578.753 59.9967 578.753 Q64.0013 578.753 66.3393 576.646 Q68.6772 574.54 68.6772 570.929 Q68.6772 567.318 66.3393 565.211 Q64.0013 563.105 59.9967 563.105 Q58.1217 563.105 56.2467 563.521 Q54.3949 563.938 52.4505 564.818 L52.4505 547.457 Z" fill="#000000" fill-rule="nonzero" fill-opacity="1" /><path clip-path="url(#clip300)" d="M92.566 550.535 Q88.9549 550.535 87.1262 554.1 Q85.3206 557.642 85.3206 564.771 Q85.3206 571.878 87.1262 575.443 Q88.9549 578.984 92.566 578.984 Q96.2002 578.984 98.0058 575.443 Q99.8345 571.878 99.8345 564.771 Q99.8345 557.642 98.0058 554.1 Q96.2002 550.535 92.566 550.535 M92.566 546.832 Q98.3761 546.832 101.432 551.438 Q104.51 556.021 104.51 564.771 Q104.51 573.498 101.432 578.105 Q98.3761 582.688 92.566 582.688 Q86.7558 582.688 83.6771 578.105 Q80.6216 573.498 80.6216 564.771 Q80.6216 556.021 83.6771 551.438 Q86.7558 546.832 92.566 546.832 Z" fill="#000000" fill-rule="nonzero" fill-opacity="1" /><path clip-path="url(#clip300)" d="M52.219 239.711 L74.4411 239.711 L74.4411 241.701 L61.8948 274.271 L57.0106 274.271 L68.8161 243.646 L52.219 243.646 L52.219 239.711 Z" fill="#000000" fill-rule="nonzero" fill-opacity="1" /><path clip-path="url(#clip300)" d="M83.6077 239.711 L101.964 239.711 L101.964 243.646 L87.8901 243.646 L87.8901 252.118 Q88.9086 251.771 89.9271 251.609 Q90.9456 251.423 91.9641 251.423 Q97.7511 251.423 101.131 254.595 Q104.51 257.766 104.51 263.183 Q104.51 268.761 101.038 271.863 Q97.566 274.942 91.2465 274.942 Q89.0706 274.942 86.8021 274.571 Q84.5568 274.201 82.1494 273.46 L82.1494 268.761 Q84.2327 269.896 86.4549 270.451 Q88.6771 271.007 91.1539 271.007 Q95.1586 271.007 97.4965 268.9 Q99.8345 266.794 99.8345 263.183 Q99.8345 259.572 97.4965 257.465 Q95.1586 255.359 91.1539 255.359 Q89.279 255.359 87.404 255.775 Q85.5521 256.192 83.6077 257.072 L83.6077 239.711 Z" fill="#000000" fill-rule="nonzero" fill-opacity="1" /><polyline clip-path="url(#clip301)" style="stroke:#0000ff; stroke-linecap:round; stroke-linejoin:round; stroke-width:4; stroke-opacity:1; fill:none" points="203.121,718.519 233.532,724.114 236.49,719.739 248.642,718.042 255.613,717.522 279.403,718.733 301.983,722.108 328.192,724.75 355.038,727.694 385.31,732.54 414.209,732.5 439.374,732.92 475.731,734.527 498.373,739.945 522.051,744.22 556.476,747.51 582.541,749.299 604.229,754.472 633.014,760.752 656.907,767.883 680.304,775.732 703.372,782.335 730.868,789.122 752.847,797.8 778.769,803.163 809.632,811.428 832.14,811.885 866.663,814.393 892.401,821.56 919.075,828.542 949.411,838.087 974.284,846.189 1000.28,853.548 1019.92,864.224 1037.38,876.578 1045.19,882.343 1065.78,885.502 1082.55,887.727 1104.02,888.99 1129.58,892.257 1156.04,901.583 1183.55,911.333 1205.75,916.289 1231.83,920.194 1264.06,922.526 1293.13,923.78 1325.73,928.063 1353.73,933.048 1379.84,936.342 1405.34,938.721 1437.41,938.493 1461.49,938.235 1487.9,937.502 1514.79,934.728 1544,929.664 1572.42,929.992 1599.92,928.002 1626.01,928.153 1647.34,921.983 1665.86,918.597 1682.62,912.407 1699.93,906.266 1720.91,905.56 1743.91,903.451 1765.49,905.316 1785.02,908.999 1806.92,915.355 1826.94,926.294 1848.71,939.462 1864.34,950.82 1880.57,966.835 1891.14,980.76 1898.1,995.027 1907.38,1014.42 1918.91,1032.51 1931.59,1051.04 1942.25,1061.86 1959.99,1069.38 1974.87,1072.73 1985.69,1071.52 2007.12,1064.33 2023.36,1059.25 2044.39,1041.34 2057,1026.74 2061.86,1006.24 2064.18,986.556 2062.47,963.595 2049.59,948.197 2030.73,940.167 2005.85,931.109 1976.63,933.092 1951.73,930.465 1930.92,927.583 1911.84,925.363 1889.64,923.29 1870.01,928.687 1847.99,934.85 1832.18,942.654 1809.3,945.719 1784.6,946.445 1757.5,942.774 1734.65,932.413 1710.64,921.812 1680.23,906.536 1654.33,888.327 1631.56,869.687 1616.71,854.586 1605.29,841.53 1588.9,827.889 1574.19,811.175 1562.47,795.353 1554.36,779.301 1553.97,763.843 1565.72,749.036 1579.03,736.854 1601.52,728.926 1621.18,728.035 1647.87,727.79 1668.13,739.795 1689.82,748.496 1704.23,754.228 1726.78,761.119 1749.11,772.671 1762.11,782.066 1780.36,792.763 1798.93,803.549 1820.58,811.218 1840.75,813.505 1861.76,813.803 1885.94,806.95 1906.51,803.043 1923.32,802.132 1941.69,808.874 1959.11,819.568 1974.28,834.488 1984.33,850.383 1992.66,871.019 2000.65,893.243 2005.1,912.931 2004.87,934.082 2004.57,945.289 2007.06,958.927 2016.6,977.158 2023.67,994.541 2035.26,1009.78 2046.85,1016.99 2059.78,1020.99 2077.4,1017.17 2096.19,1010.45 2110.35,1001.6 2126.64,989.692 2136.35,980.286 2141.95,960.034 2133.15,941.839 2114.36,924.349 2099.69,907.567 2077.76,896.643 2048.09,892.806 2020.74,887.586 2003.5,884.913 1978.07,883.148 1957.31,880.389 1938.56,870.798 1923.5,864.049 1902.27,857.685 1886.74,856.741 1865.12,858.508 1844.86,853.681 1823.51,848.471 1803.4,847.65 1779.19,844.744 1761.09,840.087 1743.64,835.243 1722.06,834.016 1694.48,835.415 1668.09,840.688 1651.7,839.755 1646.65,832.258 1641.23,829.273 1634.04,827.859 1623.77,827.229 1615.46,826.503 1602.42,830.263 1588.76,836.71 1563.48,840.833 1541.7,844.336 1526.52,850.062 1516.55,859.227 1523.74,860.31 1536.64,858.973 1565.85,854.056 1586.73,839.443 1604.33,824.351 1611.69,807.967 1606.18,790.784 1591.05,772.137 1580.38,760.968 1570.33,739.853 1551.53,729.605 1529.18,738.941 1506.87,740.378 1477.96,735.032 1474.92,716.798 1469.61,698.503 1470.98,678.088 1475,662.342 1490.42,640.835 1497.68,620.696 1500.9,596.986 1484.43,583.252 1462.37,575.877 1453.17,573.853 1462.84,560.958 1482.74,550.159 1517.66,548.499 1556.12,534.645 1581.86,518.936 1600.67,495.077 1615.43,473.629 1636.72,462.999 1663.36,466.35 1687.14,471.819 1706.88,489.521 1733.98,502.363 1754.24,519.146 1763.15,540.017 1753.51,556.924 1734.51,572.806 1708.61,586.072 1675.24,592.156 1648.23,592.405 1614.54,577.218 1588.92,561.592 1577.5,540.466 1576.69,517.768 1594.6,503.045 1610.11,494.281 1632.77,479.213 1657,470.976 1679.52,455.714 1701.71,443.067 1722.14,441.327 1745.69,427.775 1750.39,414.434 1759.94,396.728 1771.35,391.447 1789.02,374.398 1783.34,360.413 1763.18,349.473 1758.01,347.454 1768.63,342.914 1791.15,337.1 1819.83,340.321 1846.66,342.824 1873.31,348.333 1896.88,365.772 1901.99,383.575 1898.68,396.374 1878.06,407.523 1862.87,429.422 1847.37,457.45 1836.59,489.929 1837.27,510.691 1802.52,514.682 1779.45,528.937 1747.8,536.048 1716.57,552.166 1698.85,577.25 1680.18,595.053 1652.41,590.887 1629.82,579.715 1601.92,569.938 1587.05,557.089 1561.11,540.418 1552.66,534.136 1560.02,512.24 1584.25,503.006 1618.69,497.71 1646.58,501.383 1681.22,508.692 1711.14,522.441 1720.68,543.682 1733.55,564.551 1750.09,570.34 1776.47,575.404 1799.27,585.193 1809.68,587.316 1835.78,580.054 1860.33,572.36 1880.09,563.008 1900.5,565.358 1919.02,579.343 1917.54,597.117 1919.65,618.758 1906.11,650.968 1885.85,675.857 1861.06,695.498 1838.65,725.184 1836.95,750.249 1802.31,763.483 1773.96,768.321 1744.77,782.71 1718.36,797.177 1701.09,816.066 1685.16,838.389 1659.21,860.197 1632.71,869.267 1605.24,860.32 1581.83,854.488 1550.24,850.308 1521.6,842.159 1501.08,821.702 1487.24,800.916 1457.33,777.845 1439.89,759.501 1414.16,742.395 1389.52,738.133 1358.82,743.576 1340.54,743.187 1314.81,733.63 1310.15,707.378 1294.08,699.632 1270.44,703.943 1251.27,711.678 1227.39,728.888 1220.45,735.651 1189.53,739.498 1166.19,744.274 1140.45,738.416 1119.5,721.482 1097.06,708.52 1061.23,702.955 1028.49,693.368 1006.83,688.396 985.454,678.209 964.784,657.398 964.821,643.965 974.862,624.171 990.826,604.05 1001.57,581.425 1007.77,550.997 1013.91,526.085 999.852,505.705 982.177,500.324 969.649,490.679 974.801,477.374 1000.14,475.902 1037.05,478.657 1078.03,476.684 1111.29,472.058 1140.03,454.116 1164.65,430.432 1188.21,410.229 1218.7,404.177 1259.06,406.092 1291.18,418.246 1322.09,433.182 1352.05,446.581 1379.78,459.386 1402.14,473.427 1437.94,480.207 1463.92,493.915 1490.87,516.253 1519.95,542.934 1546.8,559.458 1571.15,570.994 1590.93,580.892 1600.54,572.897 1621.69,562.413 1648.29,548.775 1671.18,538.47 1701.1,527.462 1735.01,525.614 1770.63,534.678 1796.95,559.904 1806.04,581.123 1801.95,612.889 1784.13,645.885 1781.71,672.292 1773.03,705.214 1774.01,739.718 1789.15,769.987 1820.59,795.489 1860.72,793.699 1881.01,796.665 1912.9,802.82 1933.4,824.248 1958.69,851.017 1979.39,883.217 1990.89,915.522 1996.69,937.776 2011.49,920.448 2048.19,925.168 2075.58,930.986 2087.28,946.665 2090.26,950.403 2091.55,955.572 2095.95,971.149 2098.66,977.479 2110.29,981.254 2127.08,983.321 2155.64,978.021 2183.68,986.529 2198.07,999.667 2212.98,1021.49 2212.61,1034.4 2215.92,1022.71 2220.6,1005.77 2219.67,978.403 2210.36,952.709 2195.08,928.282 2183.41,905.101 2183.57,884.87 2157.34,862.986 2149.21,832.45 2153.53,807.968 2170.91,796.605 2192.86,797.013 2216.81,805.17 2233.3,817.866 2245.76,838.337 2271.15,860.932 2286.1,882.098 2277.65,909.163 2258.49,931.59 2240.88,951.29 2209.98,963.784 2189.97,982.776 2162.44,996.056 2135.95,1018.7 2116.6,1040.03 2106.85,1064.41 2086.63,1086.93 2068.44,1109.19 2043.3,1125.82 2017.53,1136.76 1986.35,1153.92 1960.7,1172.05 1932.61,1180.41 1902.86,1200.39 1886.53,1216.94 1854.46,1229.78 1835.15,1244.01 1816.56,1263.11 1799.34,1291.05 1791.46,1310.97 1786.68,1331.94 1779.64,1356.68 1802.03,1378.29 1811.81,1391.9 1805.25,1415.1 1796.39,1441.19 1777.05,1445.01 1754.77,1442.81 1733.5,1425.42 1720.48,1399.19 1706.27,1377.18 1682.07,1353.39 1643.61,1327.16 1611.92,1319.55 1576.93,1320.06 1539.49,1327.25 1499.12,1336.91 1471.86,1337.74 1437.49,1325.96 1411.77,1314.19 1391.41,1290.04 1387.88,1257.02 1383.92,1216.91 1364.07,1189.79 1342.28,1168.03 1347.5,1136.2 1344.98,1109.01 1337.35,1084.12 1324.67,1055.75 1305.63,1032.24 1300.82,1006.47 1306.78,972.301 1317.01,938.82 1334.32,909.522 1351.46,879.164 1364.27,846.439 1391.9,824.706 1386.58,796.797 1371.46,772.524 1342.09,749.594 1309.39,747.52 1287.69,733.946 1279.42,708.188 1275.5,676.253 1287.99,648.449 1301.95,626.412 1323.44,616.883 1355.73,605.885 1392.28,599.808 1431.89,596.392 1470.37,596.577 1499.98,589.633 1523.86,563.277 1541.04,541.43 1569.87,528.75 1592.82,522.47 1595.94,507.65 1582.32,493.284 1560.85,478.146 1534.96,466.846 1505.76,440.424 1483.43,413.836 1468.51,387.776 1452.32,367.039 1448.63,348.9 1455.83,328.068 1472.96,318.042 1490.74,328.433 1521.17,332.912 1560.48,334.803 1595.33,344.308 1636.84,349.944 1670.45,353.338 1701.65,368.918 1726.47,374.432 1752.38,367.768 1775.07,355.503 1806.26,350.426 1838.46,351.013 1869.15,345.96 1893.27,360.081 1904.88,376.469 1910.28,371.253 1920.8,354.827 1936.99,338.025 1954.53,327.353 1978.69,312.861 1997.74,303.93 1990.21,304.901 1968.76,293.306 1957.77,276.838 1945.76,246.903 1948.31,217.583 1960.06,201.767 1988.12,191.074 2021.21,192.919 2046.25,198.734 2081.14,202.697 2116.6,214.85 2139.76,237.111 2145.46,265.466 2138.87,292.846 2126.86,300.638 2129.76,317.125 2134.26,340.162 2129.97,371.533 2101.51,388.321 2082.05,422.566 2054.46,445.059 2032.4,472.105 2022.89,506.193 1999.39,515.294 1963.53,515.997 1928.06,528.027 1896.28,542.614 1878.78,568.971 1867.38,598.695 1866.98,615.676 1893.2,621.346 1922.71,633.995 1960.29,648.513 1996.22,672.676 2023.51,688.843 2061.54,693.209 2096.92,694.042 2135.69,689.005 2165.25,693.775 2191.52,693.785 2202.6,679.501 2216.2,659.941 2232.6,639.926 2230.68,614.268 2226.64,594.933 2217.25,571.773 2190.16,550.226 2169.02,531.526 2144.85,516.385 2102.97,517.509 2077.49,523.253 2053.66,542.137 2035.46,561.498 2009.84,586.158 2004.19,615.958 2009.46,647.004 2013.1,677.452 2031.15,704.326 2043.86,730.09 2058.12,763.652 2073.8,794.008 2103.84,805.967 2134.17,823.011 2160.32,851.462 2179.86,874.72 2195.11,906.42 2203.15,931.616 2198.02,943.507 2167.22,944.761 2129.76,958.062 2102.51,956.855 2086.79,962.614 2067.35,966.828 2045.73,963.086 2014.79,950.062 1983.77,941.137 1947.18,944.036 1903.05,956.02 1864.03,970.347 1825.96,971.604 1782.07,979.326 1744.35,979.772 1704.56,980.372 1672.96,975.062 1638.63,979.521 1607.09,973.755 1573.85,966.624 1538.16,935.892 1509.81,921.264 1471.72,912.567 1438.43,897.461 1408.38,881.533 1377.57,860.625 1350.75,853.271 1323.71,867.376 1299.09,883.623 1270.49,898.95 1232.51,916.167 1195.79,924.208 1166.38,921.121 1136.56,898.678 1119.16,873.709 1100.64,843.136 1075.56,816.776 1064.14,786.562 1060.05,759.13 1062.94,735.56 1048.98,706.785 1027.76,688.497 998.861,677.363 977.464,655.658 969.999,624.54 966.885,601.22 955.336,573.915 963.936,546.794 984.914,519.546 996.908,502.417 1011.11,495.559 1021.11,481.596 1025.44,465.218 1031.83,442.027 1038.93,418.298 1043.86,388.821 1056.12,355.766 1056.86,332.47 1034.52,313.717 1015.45,299.576 987.495,299.297 960.459,308.005 932.063,304.239 901.317,290.141 863.619,275.933 839.788,269.949 817.023,264.951 801.502,247.616 800.678,226.401 815.178,208.277 837.337,189.34 861.4,171.326 904.143,161.259 934.037,148.785 968.37,141.605 998.986,152.493 1027.82,158.948 1062.26,155.396 1096.91,149.572 1115.7,128.536 1131.95,110.111 1144.58,88.0317 "/>
<polyline clip-path="url(#clip301)" style="stroke:#ff0000; stroke-linecap:round; stroke-linejoin:round; stroke-width:4; stroke-opacity:1; fill:none" points="204.189,717.49 235.096,723.891 237.752,714.991 259.247,716.296 262.683,716.997 290.154,722.697 307.318,726.254 336.565,726.008 361.496,728.027 392.417,734.428 419.124,730.513 440.619,731.806 483.623,734.416 495.604,743.205 520.55,745.211 563.568,747.821 581.642,748.412 601.404,755.662 635.805,762.778 655.582,770.028 678.809,777.993 702.903,782.978 733.882,789.391 752.807,799.621 781.231,802.354 814.823,812.472 831.193,806.391 873.418,811.98 891.506,825.201 919.079,830.913 952.714,841.031 972.549,848.294 1000.15,854.006 1014.82,866.525 1032.96,879.758 1036.41,880.472 1069.2,880.94 1083,883.808 1108.03,885.827 1135.66,891.551 1160.73,906.237 1187.53,914.94 1205.66,915.543 1234.15,918.288 1270.43,919.47 1295.48,921.501 1330.05,928.665 1354.27,933.688 1379.32,935.706 1404.38,937.737 1441.51,935.953 1459.66,936.543 1489.02,936.31 1515.77,932.358 1546.8,926.154 1574.49,931.878 1601.23,927.939 1626.3,929.97 1644.32,917.906 1662.46,918.497 1679.63,909.425 1699.43,904.045 1723.67,909.068 1746.93,904.402 1767.72,908.699 1785.02,912.281 1808.45,920.282 1826.77,933.54 1849.38,944.532 1861.61,953.383 1878.29,972.636 1886.23,983.764 1893.35,997.883 1905.77,1019.44 1919.84,1035.01 1933.09,1053.59 1942.69,1058.74 1967,1063.79 1977.42,1065.94 1985.21,1064.38 2013.62,1054.43 2024.85,1053.59 2046.9,1026.5 2052.84,1018.23 2051.6,995.84 2055.67,980.883 2054.44,958.516 2035.25,948.238 2017.9,944.643 1995.27,933.651 1967.71,940.581 1946.91,936.285 1930.39,929.711 1913.07,926.129 1887.98,924.098 1870.01,936.174 1846.74,940.827 1833.88,947.647 1805.32,944.889 1780.23,942.871 1752.52,937.134 1734.21,923.877 1710.8,915.875 1675.2,899.035 1654.29,882.097 1633.41,865.159 1622.06,853.366 1610.73,841.561 1589.02,827.626 1575.91,809.173 1565.41,794.426 1559.22,777.414 1563.39,762.556 1582.2,747.575 1592.44,737.112 1615.65,732.483 1629.45,735.327 1658.74,735.093 1672.69,750.529 1693.41,754.813 1703.78,756.943 1731.42,762.654 1753.14,776.552 1758.4,783.926 1780.95,794.869 1800.05,805.111 1824.26,810.109 1843.2,807.721 1864.78,809.026 1889.64,798.427 1907.76,799.03 1921.6,801.886 1943.37,815.808 1958.23,828.315 1972.27,843.801 1979.39,857.859 1988.35,878.613 1997.32,899.38 2000.16,915.74 1997.91,937.356 2000.57,941.061 2006.89,958.16 2022.81,980.403 2025.67,996.8 2040.57,1009.37 2050.99,1011.54 2064.88,1014.4 2085.51,1006.02 2101.83,999.915 2111.22,992.369 2129.17,980.28 2134.27,975.024 2133.81,949.666 2118.9,937.11 2101.33,920.861 2090.72,906.064 2067.26,898.063 2038.7,895.318 2014.44,890.308 2004.04,888.153 1975.5,885.421 1958.18,881.838 1940.67,865.614 1926.81,862.758 1899.11,857.034 1887.09,860.85 1860.38,864.789 1842.07,851.556 1821.3,847.272 1802.35,849.648 1774.67,843.936 1761.65,838.102 1744.36,834.519 1718.49,835.48 1688.33,838.705 1664.25,846.325 1655.55,838.225 1655.41,825.595 1647.67,827.146 1636.47,827.983 1621.8,828.106 1614.88,826.678 1597.72,835.726 1584.86,842.521 1552.07,842.053 1536.57,845.143 1527.14,852.652 1520.34,863.866 1535.85,860.764 1554.8,858.376 1585.81,852.172 1595.09,832.033 1609.63,819.292 1613.79,804.409 1604.13,786.683 1587.57,767.541 1578.87,759.454 1567.43,735.105 1547.56,727.855 1525.3,742.122 1503.76,740.817 1472.69,734.403 1474.27,715.877 1468.94,695.947 1471.35,674.479 1475.52,659.658 1493.38,635.137 1498.39,617.374 1501.62,593 1482.64,582.832 1459.37,574.917 1452.48,573.501 1464.38,557.191 1489.21,546.666 1528.73,548.549 1566.35,531.303 1585.1,516.421 1602.89,491.998 1615.56,472.782 1636.06,464.522 1664.41,467.23 1688.49,472.167 1708.46,491.85 1737.78,504.111 1755.16,520.163 1763.99,540.708 1752.17,557.006 1732.62,574.855 1703.55,587.633 1669.23,593.086 1647.73,591.794 1608.86,574.412 1587.25,560.588 1578.46,540.031 1577.39,517.959 1596.13,503.089 1609.76,493.413 1636.19,477.017 1660.14,469.471 1683.12,452.372 1704.43,441.183 1722.45,441.761 1748.83,425.389 1748.69,412.919 1761.31,393.741 1773.26,389.974 1793.57,369.281 1782.28,357.648 1756.43,346.138 1772.64,340.156 1803.39,334.038 1830.05,342.593 1851.49,343.886 1878.97,349.511 1902.4,369.835 1901.77,385.235 1898.5,396.99 1872.98,410.408 1858.75,435.483 1843.69,463.525 1834.68,495.949 1838.31,509.17 1797.14,513.183 1777.62,531.02 1743.33,536.461 1712.63,555.123 1698.31,580.309 1679.57,595.216 1652,589.541 1629.54,578.671 1599.37,569.328 1588.08,557.634 1556.98,538.738 1554.37,535.082 1561.85,508.518 1589.25,501.673 1626.97,496.946 1651.05,501.895 1688.91,509.675 1713.99,524.188 1719.37,544.019 1735.09,565.992 1748.88,568.824 1779.9,575.2 1802.38,586.082 1809.28,587.498 1840.96,578.388 1864.93,570.818 1881.98,561.832 1902.66,566.079 1923.54,582.857 1918.64,600.608 1919.83,622.741 1902.3,659.83 1881.95,680.696 1858.94,697.905 1835.28,730.673 1837.25,749.914 1796.93,763.59 1773.72,768.231 1743.75,784.049 1718.04,797.614 1701.87,816.313 1684.87,837.991 1655.82,863.497 1632.57,868.15 1605.73,859.447 1581.52,854.437 1546.1,850.276 1519.29,841.573 1500.11,818.714 1487.03,800.261 1450.6,773.856 1440.15,759.122 1412.47,740.829 1390.91,739.524 1356.51,744.99 1342.71,742.134 1312.51,732.766 1309.77,703.912 1292.53,700.354 1265.87,704.281 1248.71,713.304 1221.25,732.778 1220.4,735.745 1182.53,740.497 1162.74,745.852 1136.02,737.173 1116.17,717.354 1093.75,706.435 1055.02,701.585 1024.89,692.218 1007.69,688.66 985.31,677.753 962.92,654.303 965.504,645.415 975.797,622.445 992.961,600.903 1003.24,577.97 1009.2,544.77 1015.18,524.114 998.851,505.12 981.687,501.587 970.528,489.917 974.801,475.183 1007.4,475.638 1046,480.464 1087.15,476.45 1113.73,472.548 1141.12,453.222 1166.74,427.322 1189.81,410.248 1220.63,404.13 1263.49,406.703 1292.69,418.927 1324.49,434.806 1353.73,447.042 1379.54,458.577 1401.08,472.364 1442.32,480.833 1463.87,494.632 1493.26,519.4 1525.28,547.848 1547.71,558.705 1570.16,569.574 1589.16,579.742 1598.54,572.283 1623.34,561.758 1653.25,546.038 1673.77,537.766 1706.26,525.715 1738.9,526.182 1775.97,536.916 1801.24,563.974 1804.02,580.161 1801.06,617.078 1780.85,650.487 1781.99,672.645 1772.1,708.245 1773.4,743.033 1791,771.801 1824.1,797.491 1861.97,792.727 1875.81,795.583 1913.86,803.425 1933.18,826.284 1962.08,854.289 1982.43,886.849 1992.41,917.291 1995.27,933.651 2009.75,920.873 2052.17,926.486 2076.45,931.496 2087.08,946.317 2089.74,950.023 2091.58,956.719 2097.11,976.809 2099.77,980.526 2117.13,984.109 2135.29,984.712 2167.14,975.492 2192.49,990.214 2200.49,1001.35 2215.67,1026.63 2213.23,1035.61 2217.29,1020.63 2222.95,999.668 2219.79,970.592 2208.09,946.071 2192.11,923.852 2183.09,903.073 2184.48,884.448 2151.19,858.684 2148.89,826.74 2154.55,805.899 2171.64,796.851 2193.23,798.168 2220.13,806.847 2235.05,819.354 2247.53,840.797 2277.39,865.836 2287.23,883.611 2275.73,912.736 2255.4,933.761 2239.33,952.534 2206.71,964.733 2190.63,983.518 2161.47,996.443 2132.51,1022.07 2116.4,1040.88 2106.41,1064.15 2085.17,1088.26 2068.21,1110.11 2041.64,1126.82 2016.68,1137.51 1982.29,1155.78 1959.15,1173.22 1931.5,1180.2 1899.73,1202.23 1888.64,1215.84 1851.54,1230.42 1836.96,1243.32 1816.41,1264.54 1796.83,1295.55 1792.69,1310.64 1786.87,1331.79 1779.39,1358.99 1806.62,1380.66 1811.11,1391.2 1803.63,1418.44 1796.14,1445.72 1777.86,1445.1 1752.59,1443.04 1728.84,1422.07 1718.09,1394.2 1704.82,1375.44 1678.46,1350.76 1634.72,1322.46 1612.98,1321.13 1576.48,1319.92 1537.46,1327.76 1494.11,1337.92 1475.87,1337.3 1434.94,1325.58 1412.28,1314.46 1390.39,1287.53 1389.28,1252.19 1382.92,1209.42 1362.84,1189.31 1342.77,1169.21 1348.63,1135.43 1345.01,1109.25 1337.07,1085.37 1323.89,1054.07 1304.73,1031.06 1301.12,1004.95 1307.83,968.34 1317.15,935.472 1335.97,907.775 1352.18,876.397 1364.91,844.33 1392.37,824.795 1385.3,798.131 1370.47,773.032 1337.57,747.366 1308.3,747.612 1290.14,734.428 1279.66,707.125 1275.17,671.66 1289.66,646.425 1302.44,627.123 1323.02,618.826 1359.9,604.498 1397.68,599.758 1438.91,595.733 1475.02,596.915 1499.01,589.332 1525.4,560.367 1541.55,541.816 1570.62,529.063 1590.33,523.745 1594.47,508.985 1580.58,493.66 1556.39,476.217 1530.55,464.67 1499.4,433.341 1480.34,410.753 1469.01,386.65 1452.58,367.73 1449.88,351.641 1456.54,328.154 1473.59,319.241 1492.51,329.323 1527.65,333.422 1570.48,335.983 1600.55,345.252 1642.57,350.755 1670.87,353.45 1702.74,369.306 1723.35,373.528 1750.7,366.708 1775.41,356.245 1809.61,350.828 1842.16,351.284 1872.91,345.166 1893.71,361.846 1904.21,376.408 1909.27,371.238 1921.85,352.084 1941.28,334.346 1958.28,325.421 1984.57,309.098 2000.74,303.103 1989.62,303.928 1961.14,288.811 1954.89,272.058 1942.4,238.563 1949.71,212.22 1959.8,201.929 1992.11,189.988 2027.21,194.063 2047.8,198.273 2086.36,203.049 2122.5,216.602 2141.72,239.067 2144.81,267.54 2137.58,293.908 2129.1,298.376 2131.15,317.383 2135.03,342.975 2128.81,378.932 2096.45,390.934 2078.27,430.719 2051.96,447.092 2030.07,473.73 2023.79,509.835 2001.49,511.484 1960.33,515.51 1923.62,529.801 1894.59,542.567 1879.54,570.695 1867.08,602.516 1868.07,612.093 1894.85,620.734 1926.91,636.712 1966.71,651.164 1999.83,676.769 2022.39,687.675 2064.67,693.239 2097.4,693.707 2138.67,689.669 2162.87,694.655 2188.69,693.695 2199.64,680.289 2216.45,658.71 2233.24,637.131 2229.32,611.317 2226.41,595.105 2215.57,567.9 2185.08,546.038 2167.6,529.986 2142.43,515.46 2094.37,518.07 2078.14,524.102 2050.98,543.478 2034.97,562.029 2005.33,590.292 2004.93,618.346 2010.6,650.795 2013.64,679.612 2032.15,705.352 2043.74,729.689 2059.02,767.369 2073.29,795.436 2103.64,804.84 2135.03,823.884 2163.21,854.868 2179.96,874.071 2196.16,908.92 2201.71,928.985 2199.29,937.947 2164.82,943.449 2123.63,960.191 2102.8,955.882 2089.95,962.702 2066.68,967.367 2042.4,962.345 2006.69,945.48 1978.94,939.744 1940.99,944.532 1892.8,959.834 1860.13,972.033 1823.8,970.839 1777.24,980.17 1744.39,979.689 1703.77,980.773 1676.03,975.036 1638.05,979.813 1606.87,973.362 1572.23,966.186 1531.29,929.256 1511.35,921.969 1469.83,913.376 1437.77,897.263 1409.17,881.875 1375.37,859.102 1354.62,854.818 1325.37,867.694 1298.73,884.263 1268.6,900.143 1226.4,919.839 1191.89,925.329 1167.69,920.319 1134.81,894.542 1119.2,872.36 1099.28,839.825 1073.35,815.538 1063.81,785.194 1060.3,759.282 1062.84,737.776 1047.28,703.124 1025.74,689.251 996.483,676.929 977.544,654.18 968.925,621.03 967.179,601.863 954.288,571.002 965.432,545.127 988.573,515.497 995.43,504.406 1008.28,497.685 1020.27,481.411 1025.38,463.734 1033.06,437.244 1039.88,413.707 1044.96,383.597 1058.59,349.068 1055.99,332.979 1032.85,312.693 1014.86,299.681 985.772,299.927 957.55,309.664 930.18,304.051 895.115,287.531 855.792,273.252 842.121,270.445 818.187,265.534 801.975,246.687 801.167,224.813 817.422,206.446 841.356,186.566 864.425,169.628 914.791,158.278 936.127,147.187 970.254,141.795 999.284,153.932 1026.61,159.521 1064.16,154.831 1098.28,149.452 1115.29,128.205 1131.44,109.888 1145.01,87.9763 "/>
<polyline clip-path="url(#clip301)" style="stroke:#3da44d; stroke-linecap:round; stroke-linejoin:round; stroke-width:4; stroke-opacity:1; fill:none" points="221.183,719.665 232.607,717.306 243.157,716.942 255.945,718.984 271.955,721.952 292.834,724.339 316.2,725.61 340.413,728.926 367.07,730.404 393.056,730.753 419.25,734.619 445.686,736.973 472.813,739.941 499.148,742.412 525.959,745.737 553.234,750.828 580.478,754.313 605.015,759.197 630.745,763.881 656.384,769.538 680.941,776.408 705.076,784.433 730.612,790.031 755.944,798.149 782.612,804.225 810.704,809.954 838.3,814.077 865.841,819.871 893.137,826.781 918.775,833.682 943.578,840.414 968.748,846.184 990.886,855.207 1011.89,863.264 1031.26,871.386 1049.79,878.719 1070.7,882.967 1091.3,885.535 1114.05,890.719 1138.66,895.243 1162.62,901.083 1187.3,909.18 1213.34,914.369 1239.26,919.391 1267.06,921.752 1296.56,924.336 1324.84,925.602 1352.31,930.867 1378.73,936.384 1404.89,937.143 1432.92,937.986 1462.06,938.565 1488.41,938.139 1516.07,934.824 1543.92,934.286 1570.17,931.715 1596.8,930.23 1620.11,927.802 1641.27,923.299 1660.96,919.661 1681.14,915.361 1701.84,913.667 1722.05,913.132 1743.65,914.762 1765.41,915.715 1785.84,916.677 1805.82,922.749 1825.61,930.224 1843.86,939.976 1860.21,952.571 1875.05,967.587 1885.12,982.452 1896.65,997.681 1907.18,1013.85 1920.84,1027.01 1936.02,1037.97 1948.16,1048.07 1963.6,1053.12 1977.83,1053.64 1993.15,1054.4 2009.77,1049.69 2022.87,1040.47 2034.68,1028.44 2042.83,1014.93 2046.27,999.386 2046.03,983.325 2042.26,968.296 2031.25,955.965 2014.31,947.1 1993.63,941.358 1972.51,936.549 1951.59,933.228 1931.02,932.164 1909.57,930.433 1888.56,930.878 1869.52,933.184 1848.6,936.131 1826.28,935.485 1802,936.67 1778.63,932.792 1754.57,928.271 1731.53,921.094 1706.7,911.96 1682.41,900.486 1658.84,887.141 1641.47,871.238 1623.7,856.321 1609.81,840.707 1598.36,826.231 1587.34,812.494 1578.55,798.346 1573.35,784.706 1574.08,770.791 1581.89,758.048 1595.92,749.189 1612.37,742.065 1629.15,739.452 1651.98,741.418 1673.33,746.498 1692.5,752.764 1710.72,758.347 1729.69,763.695 1749.99,773.502 1766.47,781.909 1784.55,791.201 1804.56,798.689 1824.58,804.009 1843.43,806.33 1864.29,805.744 1885.68,808.511 1905.2,810.287 1922.72,816.615 1939.87,822.893 1955.29,832.918 1968.35,846.208 1980.4,860.097 1989.39,877.561 1995.04,894.854 1999.8,911.643 2005.5,928.869 2008.81,944.616 2012.74,959.319 2020.42,972.722 2031.65,985.086 2042.93,994.987 2056.32,1003.11 2069.24,1005.94 2082.38,1006.4 2096.06,1002.96 2109.62,996.033 2114.76,981.544 2118.81,967.2 2116.75,951.907 2111.63,936.998 2098.21,921.314 2083.03,908.186 2063.47,897.97 2043.87,890.958 2022.17,887.6 2001.25,883.048 1980.35,879.757 1961.65,876.108 1944.45,870.269 1924.5,865.358 1903.3,862.364 1883.59,858.493 1863.93,856.831 1843.25,853.509 1821.9,851.425 1800.93,848.048 1782.38,845.189 1762.25,841.87 1741.82,837.878 1719.82,839.377 1700.74,837.511 1681.84,837.242 1666.64,836.955 1653.24,834.263 1642.06,832.43 1630.07,830.757 1616.45,830.996 1600.9,831.306 1581.64,833.469 1560.71,838.555 1541.85,844.92 1529.28,852.633 1527.85,846.751 1530.58,839.013 1533.7,851.509 1548.62,867.426 1571.08,857.288 1582.8,835.872 1615.05,835.43 1632.66,813.569 1624.71,784.109 1605.04,760.68 1569.21,768.993 1553.25,746.211 1542.02,730.662 1518.05,722.741 1499.27,727.511 1483.14,732.068 1480.76,715.372 1463.59,710.478 1466.82,682.682 1481.82,660.308 1505.68,647.015 1505.84,619.785 1504.83,591.687 1494.67,563.613 1471.82,583.734 1450.16,566.228 1471.72,551.162 1496.93,552.937 1530.59,555.448 1555.84,536.312 1573.92,516.702 1588.41,491.053 1614.21,476.075 1638.68,459.501 1667.94,466.938 1694.48,473.246 1718.17,485.961 1741.01,499.344 1765.98,514.52 1777.51,536.627 1756.32,559.202 1731.56,578.088 1704.14,591.469 1675.68,592.658 1648.08,585.455 1620.97,574.457 1599.37,562.987 1581.38,549.009 1578.69,529.332 1593.85,511.864 1617.46,497.17 1631.34,480.16 1660.77,474.811 1678.4,456.376 1698.17,452.018 1725.05,447.948 1733.82,435.641 1745.41,415.869 1767.51,406.584 1784.64,392.342 1793.56,372.472 1782.04,352.382 1766.43,337.431 1757.21,346.306 1781.76,348.137 1806.97,346.119 1828.99,344.657 1856.04,339.217 1880.17,347.329 1895.68,366.262 1896.52,381.811 1901.24,398.043 1880.67,412.827 1864.27,433.929 1848.83,453.658 1836.37,479.755 1819.38,500.966 1790.29,514.093 1769.13,530.42 1735.42,533.658 1708.71,552.306 1694.68,576.29 1685.02,592.727 1661.4,584.77 1638.2,574.902 1614.67,571.72 1587.61,567.186 1566.82,553.567 1554.77,532.621 1559.92,508.985 1589.18,504.421 1619.06,498.106 1649.34,495.286 1679.76,506.052 1703.55,525.395 1728.63,540.458 1736.44,561.531 1757.52,568.657 1776.91,576.78 1799.71,579.619 1810.21,591.549 1836.94,580.792 1864.78,574.182 1887.87,566.594 1904.22,561.373 1903.23,580.375 1916.59,600.448 1914.36,626.231 1893.04,648.443 1876.57,673.247 1857.57,701.649 1831.93,728.803 1839.43,758.494 1807.52,765.254 1773.4,758.375 1745.53,775.677 1720.2,794.224 1696.05,813.851 1683.17,837.27 1666.45,859.143 1638.11,871.19 1611.27,860.141 1579.33,859.276 1547.24,855.238 1522.69,841.275 1509.71,816.26 1487,798.147 1463.55,776.456 1442.8,758.659 1423.47,737.263 1397.09,741.672 1368.48,746.755 1340.91,741.412 1316.19,729.926 1311.11,706.937 1289.07,696.003 1265.03,702.986 1249.7,719.614 1230.17,730.658 1206.97,735.273 1182.65,744.529 1158.06,749.86 1135.54,737.363 1121.76,715.703 1100.05,705.038 1072.03,695.634 1038.75,694.08 1011.89,693.601 986.357,683.374 967.899,663.187 968.468,640.295 980.218,620.659 986.181,595.646 1001.94,574.455 1009.26,551.096 1018.42,529.116 999.206,514.045 980.583,503.293 963.135,485.002 983.406,474.069 1009.67,477.222 1041.28,477.135 1078.37,475.319 1113.47,469.929 1137.3,449.033 1163,432.18 1188.85,412.765 1225.2,408.266 1258.84,406.811 1288.42,419.724 1318.22,435.476 1352.69,442.197 1374.73,464.698 1412.34,465.573 1444.35,466.044 1464.7,492.531 1495.94,513.081 1522.36,536.19 1531.48,556.914 1555.3,578.826 1588.3,592.436 1601.36,568.348 1623.85,556.443 1649.65,544.192 1676.76,533.787 1709.06,526.981 1739.83,526.133 1770.71,537.384 1790.82,560.855 1792.97,588.646 1793.98,617.067 1777.38,645.132 1777.46,676.572 1769.79,708.605 1769.54,740.69 1787.56,772.422 1812.6,795.654 1847.66,793.748 1878.8,799.699 1906.3,810.919 1931.65,830.153 1952.01,854.58 1975.78,878.787 1978.58,906.182 1991.03,927.278 2015.03,923.484 2042.5,929.931 2066.46,932.376 2083.02,935.809 2085.69,948.472 2084.86,961.375 2091.76,972.695 2104.51,980.129 2120.14,985.062 2139.81,982.378 2161.86,983.572 2184.99,989.13 2197.32,1002.33 2208.55,1021.27 2215.04,1034.23 2221.31,1018.88 2223.72,996.261 2218.73,974.386 2207.79,952.123 2198.75,928.591 2188.48,904.258 2177.49,879.83 2151.95,861.044 2146.1,832.992 2144.42,808.459 2165,792.579 2194.51,796.636 2218.4,808.116 2230.36,829.729 2252.68,846.38 2277.7,859.69 2290.15,883.099 2281.63,910.133 2265.85,935.248 2240.91,952.432 2212.38,967.983 2187.16,986.122 2158.62,999.449 2129.99,1015.83 2120.24,1042.3 2106.19,1067.43 2090.77,1089.34 2067.41,1106.81 2042.53,1122.31 2016.52,1138.51 1987.28,1151.98 1959.87,1167.87 1932.25,1183.22 1906.98,1196.92 1888.42,1217.6 1859.14,1227.3 1838.85,1242.99 1823.53,1263.74 1804.34,1284.48 1785.4,1306.2 1775.18,1330.64 1786.29,1355.38 1804.93,1374.02 1818.01,1395.97 1810.3,1420.51 1802.44,1444.49 1779.55,1440.38 1751.58,1436.21 1734.83,1415.92 1715.01,1394.52 1698.3,1369.53 1676.87,1348.49 1645.45,1331.18 1612.13,1322.26 1577.72,1319.06 1544.4,1332.28 1510.3,1341.67 1474.98,1340.79 1439.66,1332.73 1416.13,1313.51 1399.84,1287.56 1395.6,1252.95 1377.24,1223.23 1356.69,1198.36 1353.23,1168.06 1350.59,1140.67 1344.07,1112.12 1336.3,1083.22 1321.85,1055.81 1302.76,1030.35 1299.34,999.894 1310.51,970.35 1320.08,940.44 1333.4,906.856 1345.68,875.73 1368.71,849.548 1395.99,827.44 1388.15,796.285 1369.16,771.239 1340.07,752.664 1303.42,753.088 1279.49,733.451 1270.55,705.728 1265.09,674.544 1275.99,645.575 1298.77,625.003 1335.09,617.442 1363.33,602.218 1398.28,594.778 1433.61,595.236 1468.5,597.328 1497.28,582.456 1518.69,565.213 1538.03,542.39 1563.56,534.283 1593.42,527.583 1598.62,505.467 1585.36,488.78 1560.44,473.446 1530.98,460.291 1502.04,442.667 1482.94,421.691 1469.48,398.409 1451.65,376.759 1445.34,351.208 1450.88,327.432 1475.78,319.161 1501.71,331.141 1532.01,328.632 1567.57,332.379 1600.18,341.938 1632.94,347.104 1665.89,349.722 1693.2,362.748 1721.79,371.988 1752.48,372.147 1778.82,360.165 1808.17,351.621 1839.28,345.432 1870.79,344.349 1882.02,364.106 1893.79,382.682 1908.15,368.411 1919.37,351.092 1937.86,336.036 1963.42,330.939 1986.75,322.886 2001.37,305.257 1979.45,300.941 1960.07,286.842 1948.54,265.857 1937.47,241.876 1940.08,214.963 1957.43,195.233 1988.33,187.565 2022.89,195.643 2056.56,199.131 2090.4,201.758 2120.36,216.501 2141.21,237.534 2143.85,262.385 2129.3,281.088 2123.32,302.305 2135.05,325.395 2137.3,350.63 2124.58,376.935 2105.27,399.8 2083.38,426.941 2053.71,446.008 2037.09,472.96 2025.38,502.857 1990.96,513.02 1955.19,512.372 1919.88,523.941 1893.02,540.892 1875.01,566.265 1866.84,591.265 1877.54,614.98 1906.65,624.833 1939.21,632.182 1964.08,650.924 1991.17,669.026 2022.38,685.16 2056.61,688.7 2093.21,688.046 2131.11,691.931 2159.15,703.374 2186.47,694.916 2202.19,674.551 2223.09,655.689 2234.24,632.27 2228.43,608.506 2228.56,588.634 2216.49,564.428 2192.65,544.987 2165.11,529.638 2136.87,515.32 2102.88,514.876 2070.68,520.011 2048.23,539.502 2028.85,563.777 2004.89,587.629 1994.81,618.571 1996.5,647.377 2006.82,678.722 2025,705.435 2042.7,733.055 2052.14,764.007 2072.09,791.193 2105.62,806.512 2135.03,826.413 2155.77,849.237 2178.5,871.79 2199.03,895.295 2201.34,922.845 2188.44,937.909 2165.23,945.214 2140.62,956.457 2114.02,966.862 2091.93,970.584 2062.97,971.729 2034.23,959.466 2004.83,947.756 1970.62,943.333 1934.14,946.013 1897.03,952.433 1862.97,969.292 1823.6,969.76 1785.4,975.968 1748.31,981.912 1710.92,980.787 1671.51,981.525 1632.18,983.091 1600.45,970.138 1569.57,953.877 1540.3,934.452 1508.52,921.177 1472.01,914.12 1439.09,904.344 1416.2,878.37 1388.54,862.263 1354.33,857.96 1323.07,869.055 1293.8,886.454 1265.35,904.515 1232.08,920.498 1194.33,926.418 1160.91,919.031 1140.24,896.979 1116.93,873.917 1101.27,844.925 1077.24,819.69 1067.27,790.839 1069.38,763.159 1067.46,733.169 1050.85,707.484 1018.18,698.287 994.099,679.64 984.141,654.491 973.405,627.149 965.474,598.318 952.798,573.661 957.733,547.054 973.783,523.263 998.56,512.959 1010.76,496.874 1018.61,478.687 1019.85,458.925 1036.22,438.011 1045.93,411.093 1050.68,383.244 1060.26,357.178 1065.82,328.743 1047.09,310.437 1015.61,302.406 984.436,305.1 954.287,309.865 923.786,303.908 897.768,289.485 867.935,281.15 838.524,280.63 813.101,271.434 800.935,252.696 804.756,226.341 818.094,202.161 843.965,186.535 870.595,169.677 902.567,157.509 932.028,149.745 967.129,144.59 998.47,151.9 1029.85,158.931 1060.36,156.902 1093.34,155.053 1113.9,134.762 1132.76,112.119 1150.67,95.7714 "/>
<path clip-path="url(#clip300)" d="M214.252 1438.47 L760.776 1438.47 L760.776 1231.11 L214.252 1231.11  Z" fill="#ffffff" fill-rule="evenodd" fill-opacity="1"/>
<polyline clip-path="url(#clip300)" style="stroke:#000000; stroke-linecap:round; stroke-linejoin:round; stroke-width:4; stroke-opacity:1; fill:none" points="214.252,1438.47 760.776,1438.47 760.776,1231.11 214.252,1231.11 214.252,1438.47 "/>
<polyline clip-path="url(#clip300)" style="stroke:#0000ff; stroke-linecap:round; stroke-linejoin:round; stroke-width:4; stroke-opacity:1; fill:none" points="238.832,1282.95 386.315,1282.95 "/>
<path clip-path="url(#clip300)" d="M434.924 1286.21 L434.924 1288.29 L415.34 1288.29 Q415.618 1292.69 417.979 1295 Q420.363 1297.29 424.6 1297.29 Q427.053 1297.29 429.345 1296.69 Q431.66 1296.09 433.928 1294.89 L433.928 1298.91 Q431.637 1299.89 429.229 1300.4 Q426.822 1300.91 424.345 1300.91 Q418.141 1300.91 414.507 1297.29 Q410.896 1293.68 410.896 1287.53 Q410.896 1281.16 414.322 1277.43 Q417.771 1273.68 423.604 1273.68 Q428.836 1273.68 431.868 1277.06 Q434.924 1280.42 434.924 1286.21 M430.664 1284.96 Q430.618 1281.46 428.697 1279.38 Q426.799 1277.29 423.65 1277.29 Q420.086 1277.29 417.933 1279.31 Q415.803 1281.32 415.479 1284.98 L430.664 1284.96 Z" fill="#000000" fill-rule="nonzero" fill-opacity="1" /><path clip-path="url(#clip300)" d="M458.442 1275.07 L458.442 1279.1 Q456.636 1278.17 454.692 1277.71 Q452.748 1277.25 450.664 1277.25 Q447.493 1277.25 445.896 1278.22 Q444.322 1279.19 444.322 1281.14 Q444.322 1282.62 445.456 1283.48 Q446.59 1284.31 450.016 1285.07 L451.474 1285.4 Q456.011 1286.37 457.91 1288.15 Q459.831 1289.91 459.831 1293.08 Q459.831 1296.69 456.96 1298.8 Q454.113 1300.91 449.113 1300.91 Q447.03 1300.91 444.761 1300.49 Q442.516 1300.1 440.016 1299.29 L440.016 1294.89 Q442.377 1296.11 444.669 1296.74 Q446.961 1297.34 449.206 1297.34 Q452.215 1297.34 453.836 1296.32 Q455.456 1295.28 455.456 1293.41 Q455.456 1291.67 454.275 1290.74 Q453.118 1289.82 449.16 1288.96 L447.678 1288.61 Q443.72 1287.78 441.961 1286.07 Q440.201 1284.33 440.201 1281.32 Q440.201 1277.67 442.794 1275.67 Q445.386 1273.68 450.155 1273.68 Q452.516 1273.68 454.599 1274.03 Q456.683 1274.38 458.442 1275.07 Z" fill="#000000" fill-rule="nonzero" fill-opacity="1" /><path clip-path="url(#clip300)" d="M470.826 1266.95 L470.826 1274.31 L479.599 1274.31 L479.599 1277.62 L470.826 1277.62 L470.826 1291.69 Q470.826 1294.86 471.683 1295.77 Q472.562 1296.67 475.224 1296.67 L479.599 1296.67 L479.599 1300.23 L475.224 1300.23 Q470.294 1300.23 468.419 1298.41 Q466.544 1296.55 466.544 1291.69 L466.544 1277.62 L463.419 1277.62 L463.419 1274.31 L466.544 1274.31 L466.544 1266.95 L470.826 1266.95 Z" fill="#000000" fill-rule="nonzero" fill-opacity="1" /><path clip-path="url(#clip300)" d="M485.201 1274.31 L489.46 1274.31 L489.46 1300.23 L485.201 1300.23 L485.201 1274.31 M485.201 1264.22 L489.46 1264.22 L489.46 1269.61 L485.201 1269.61 L485.201 1264.22 Z" fill="#000000" fill-rule="nonzero" fill-opacity="1" /><path clip-path="url(#clip300)" d="M518.557 1279.29 Q520.155 1276.42 522.377 1275.05 Q524.599 1273.68 527.608 1273.68 Q531.659 1273.68 533.858 1276.53 Q536.057 1279.35 536.057 1284.59 L536.057 1300.23 L531.775 1300.23 L531.775 1284.73 Q531.775 1281 530.455 1279.19 Q529.136 1277.39 526.428 1277.39 Q523.118 1277.39 521.196 1279.59 Q519.275 1281.79 519.275 1285.58 L519.275 1300.23 L514.993 1300.23 L514.993 1284.73 Q514.993 1280.98 513.673 1279.19 Q512.354 1277.39 509.599 1277.39 Q506.335 1277.39 504.414 1279.61 Q502.493 1281.81 502.493 1285.58 L502.493 1300.23 L498.21 1300.23 L498.21 1274.31 L502.493 1274.31 L502.493 1278.34 Q503.951 1275.95 505.988 1274.82 Q508.025 1273.68 510.826 1273.68 Q513.65 1273.68 515.618 1275.12 Q517.608 1276.55 518.557 1279.29 Z" fill="#000000" fill-rule="nonzero" fill-opacity="1" /><path clip-path="url(#clip300)" d="M556.335 1287.2 Q551.173 1287.2 549.182 1288.38 Q547.191 1289.56 547.191 1292.41 Q547.191 1294.68 548.673 1296.02 Q550.178 1297.34 552.747 1297.34 Q556.289 1297.34 558.418 1294.84 Q560.571 1292.32 560.571 1288.15 L560.571 1287.2 L556.335 1287.2 M564.83 1285.44 L564.83 1300.23 L560.571 1300.23 L560.571 1296.3 Q559.113 1298.66 556.937 1299.79 Q554.761 1300.91 551.613 1300.91 Q547.631 1300.91 545.27 1298.68 Q542.932 1296.44 542.932 1292.69 Q542.932 1288.31 545.849 1286.09 Q548.789 1283.87 554.599 1283.87 L560.571 1283.87 L560.571 1283.45 Q560.571 1280.51 558.627 1278.92 Q556.705 1277.29 553.21 1277.29 Q550.988 1277.29 548.881 1277.83 Q546.775 1278.36 544.83 1279.42 L544.83 1275.49 Q547.168 1274.59 549.367 1274.15 Q551.566 1273.68 553.65 1273.68 Q559.275 1273.68 562.053 1276.6 Q564.83 1279.52 564.83 1285.44 Z" fill="#000000" fill-rule="nonzero" fill-opacity="1" /><path clip-path="url(#clip300)" d="M577.816 1266.95 L577.816 1274.31 L586.589 1274.31 L586.589 1277.62 L577.816 1277.62 L577.816 1291.69 Q577.816 1294.86 578.673 1295.77 Q579.552 1296.67 582.214 1296.67 L586.589 1296.67 L586.589 1300.23 L582.214 1300.23 Q577.284 1300.23 575.409 1298.41 Q573.534 1296.55 573.534 1291.69 L573.534 1277.62 L570.409 1277.62 L570.409 1274.31 L573.534 1274.31 L573.534 1266.95 L577.816 1266.95 Z" fill="#000000" fill-rule="nonzero" fill-opacity="1" /><path clip-path="url(#clip300)" d="M614.367 1286.21 L614.367 1288.29 L594.784 1288.29 Q595.062 1292.69 597.423 1295 Q599.807 1297.29 604.043 1297.29 Q606.497 1297.29 608.788 1296.69 Q611.103 1296.09 613.372 1294.89 L613.372 1298.91 Q611.08 1299.89 608.673 1300.4 Q606.265 1300.91 603.788 1300.91 Q597.585 1300.91 593.95 1297.29 Q590.339 1293.68 590.339 1287.53 Q590.339 1281.16 593.765 1277.43 Q597.214 1273.68 603.048 1273.68 Q608.279 1273.68 611.312 1277.06 Q614.367 1280.42 614.367 1286.21 M610.108 1284.96 Q610.062 1281.46 608.14 1279.38 Q606.242 1277.29 603.094 1277.29 Q599.529 1277.29 597.376 1279.31 Q595.247 1281.32 594.923 1284.98 L610.108 1284.96 Z" fill="#000000" fill-rule="nonzero" fill-opacity="1" /><polyline clip-path="url(#clip300)" style="stroke:#ff0000; stroke-linecap:round; stroke-linejoin:round; stroke-width:4; stroke-opacity:1; fill:none" points="238.832,1334.79 386.315,1334.79 "/>
<path clip-path="url(#clip300)" d="M431.243 1331.13 Q432.84 1328.26 435.062 1326.89 Q437.285 1325.52 440.294 1325.52 Q444.345 1325.52 446.544 1328.37 Q448.743 1331.19 448.743 1336.43 L448.743 1352.07 L444.461 1352.07 L444.461 1336.57 Q444.461 1332.84 443.141 1331.03 Q441.822 1329.23 439.113 1329.23 Q435.803 1329.23 433.882 1331.43 Q431.961 1333.63 431.961 1337.42 L431.961 1352.07 L427.678 1352.07 L427.678 1336.57 Q427.678 1332.82 426.359 1331.03 Q425.039 1329.23 422.285 1329.23 Q419.021 1329.23 417.1 1331.45 Q415.178 1333.65 415.178 1337.42 L415.178 1352.07 L410.896 1352.07 L410.896 1326.15 L415.178 1326.15 L415.178 1330.18 Q416.637 1327.79 418.674 1326.66 Q420.711 1325.52 423.512 1325.52 Q426.336 1325.52 428.303 1326.96 Q430.294 1328.39 431.243 1331.13 Z" fill="#000000" fill-rule="nonzero" fill-opacity="1" /><path clip-path="url(#clip300)" d="M479.414 1338.05 L479.414 1340.13 L459.831 1340.13 Q460.109 1344.53 462.47 1346.84 Q464.854 1349.13 469.09 1349.13 Q471.544 1349.13 473.835 1348.53 Q476.15 1347.93 478.419 1346.73 L478.419 1350.75 Q476.127 1351.73 473.72 1352.24 Q471.312 1352.75 468.835 1352.75 Q462.632 1352.75 458.998 1349.13 Q455.386 1345.52 455.386 1339.37 Q455.386 1333 458.812 1329.27 Q462.261 1325.52 468.095 1325.52 Q473.326 1325.52 476.359 1328.9 Q479.414 1332.26 479.414 1338.05 M475.155 1336.8 Q475.109 1333.3 473.187 1331.22 Q471.289 1329.13 468.141 1329.13 Q464.576 1329.13 462.423 1331.15 Q460.294 1333.16 459.97 1336.82 L475.155 1336.8 Z" fill="#000000" fill-rule="nonzero" fill-opacity="1" /><path clip-path="url(#clip300)" d="M498.187 1339.04 Q493.025 1339.04 491.034 1340.22 Q489.044 1341.4 489.044 1344.25 Q489.044 1346.52 490.525 1347.86 Q492.03 1349.18 494.599 1349.18 Q498.141 1349.18 500.27 1346.68 Q502.423 1344.16 502.423 1339.99 L502.423 1339.04 L498.187 1339.04 M506.682 1337.28 L506.682 1352.07 L502.423 1352.07 L502.423 1348.14 Q500.965 1350.5 498.789 1351.63 Q496.613 1352.75 493.465 1352.75 Q489.483 1352.75 487.122 1350.52 Q484.784 1348.28 484.784 1344.53 Q484.784 1340.15 487.701 1337.93 Q490.641 1335.71 496.451 1335.71 L502.423 1335.71 L502.423 1335.29 Q502.423 1332.35 500.479 1330.76 Q498.557 1329.13 495.062 1329.13 Q492.84 1329.13 490.733 1329.67 Q488.627 1330.2 486.683 1331.26 L486.683 1327.33 Q489.021 1326.43 491.22 1325.99 Q493.419 1325.52 495.502 1325.52 Q501.127 1325.52 503.905 1328.44 Q506.682 1331.36 506.682 1337.28 Z" fill="#000000" fill-rule="nonzero" fill-opacity="1" /><path clip-path="url(#clip300)" d="M531.983 1326.91 L531.983 1330.94 Q530.178 1330.01 528.233 1329.55 Q526.289 1329.09 524.206 1329.09 Q521.034 1329.09 519.437 1330.06 Q517.863 1331.03 517.863 1332.98 Q517.863 1334.46 518.997 1335.32 Q520.131 1336.15 523.557 1336.91 L525.016 1337.24 Q529.553 1338.21 531.451 1339.99 Q533.372 1341.75 533.372 1344.92 Q533.372 1348.53 530.502 1350.64 Q527.655 1352.75 522.655 1352.75 Q520.571 1352.75 518.303 1352.33 Q516.057 1351.94 513.557 1351.13 L513.557 1346.73 Q515.919 1347.95 518.21 1348.58 Q520.502 1349.18 522.747 1349.18 Q525.756 1349.18 527.377 1348.16 Q528.997 1347.12 528.997 1345.25 Q528.997 1343.51 527.817 1342.58 Q526.659 1341.66 522.701 1340.8 L521.219 1340.45 Q517.261 1339.62 515.502 1337.91 Q513.743 1336.17 513.743 1333.16 Q513.743 1329.51 516.335 1327.51 Q518.928 1325.52 523.696 1325.52 Q526.057 1325.52 528.141 1325.87 Q530.224 1326.22 531.983 1326.91 Z" fill="#000000" fill-rule="nonzero" fill-opacity="1" /><path clip-path="url(#clip300)" d="M539.715 1341.84 L539.715 1326.15 L543.974 1326.15 L543.974 1341.68 Q543.974 1345.36 545.409 1347.21 Q546.844 1349.04 549.715 1349.04 Q553.164 1349.04 555.154 1346.84 Q557.168 1344.64 557.168 1340.85 L557.168 1326.15 L561.428 1326.15 L561.428 1352.07 L557.168 1352.07 L557.168 1348.09 Q555.617 1350.45 553.557 1351.61 Q551.52 1352.75 548.812 1352.75 Q544.344 1352.75 542.029 1349.97 Q539.715 1347.19 539.715 1341.84 M550.432 1325.52 L550.432 1325.52 Z" fill="#000000" fill-rule="nonzero" fill-opacity="1" /><path clip-path="url(#clip300)" d="M585.224 1330.13 Q584.506 1329.71 583.65 1329.53 Q582.816 1329.32 581.798 1329.32 Q578.187 1329.32 576.242 1331.68 Q574.321 1334.02 574.321 1338.42 L574.321 1352.07 L570.039 1352.07 L570.039 1326.15 L574.321 1326.15 L574.321 1330.18 Q575.664 1327.82 577.816 1326.68 Q579.969 1325.52 583.048 1325.52 Q583.488 1325.52 584.02 1325.59 Q584.552 1325.64 585.201 1325.76 L585.224 1330.13 Z" fill="#000000" fill-rule="nonzero" fill-opacity="1" /><path clip-path="url(#clip300)" d="M610.825 1338.05 L610.825 1340.13 L591.242 1340.13 Q591.52 1344.53 593.881 1346.84 Q596.265 1349.13 600.501 1349.13 Q602.955 1349.13 605.247 1348.53 Q607.562 1347.93 609.83 1346.73 L609.83 1350.75 Q607.538 1351.73 605.131 1352.24 Q602.724 1352.75 600.247 1352.75 Q594.043 1352.75 590.409 1349.13 Q586.798 1345.52 586.798 1339.37 Q586.798 1333 590.224 1329.27 Q593.673 1325.52 599.506 1325.52 Q604.737 1325.52 607.77 1328.9 Q610.825 1332.26 610.825 1338.05 M606.566 1336.8 Q606.52 1333.3 604.599 1331.22 Q602.7 1329.13 599.552 1329.13 Q595.988 1329.13 593.835 1331.15 Q591.705 1333.16 591.381 1336.82 L606.566 1336.8 Z" fill="#000000" fill-rule="nonzero" fill-opacity="1" /><path clip-path="url(#clip300)" d="M638.001 1331.13 Q639.598 1328.26 641.821 1326.89 Q644.043 1325.52 647.052 1325.52 Q651.103 1325.52 653.302 1328.37 Q655.501 1331.19 655.501 1336.43 L655.501 1352.07 L651.219 1352.07 L651.219 1336.57 Q651.219 1332.84 649.899 1331.03 Q648.58 1329.23 645.872 1329.23 Q642.561 1329.23 640.64 1331.43 Q638.719 1333.63 638.719 1337.42 L638.719 1352.07 L634.436 1352.07 L634.436 1336.57 Q634.436 1332.82 633.117 1331.03 Q631.798 1329.23 629.043 1329.23 Q625.779 1329.23 623.858 1331.45 Q621.936 1333.65 621.936 1337.42 L621.936 1352.07 L617.654 1352.07 L617.654 1326.15 L621.936 1326.15 L621.936 1330.18 Q623.395 1327.79 625.432 1326.66 Q627.469 1325.52 630.27 1325.52 Q633.094 1325.52 635.061 1326.96 Q637.052 1328.39 638.001 1331.13 Z" fill="#000000" fill-rule="nonzero" fill-opacity="1" /><path clip-path="url(#clip300)" d="M686.172 1338.05 L686.172 1340.13 L666.589 1340.13 Q666.867 1344.53 669.228 1346.84 Q671.612 1349.13 675.848 1349.13 Q678.302 1349.13 680.594 1348.53 Q682.908 1347.93 685.177 1346.73 L685.177 1350.75 Q682.885 1351.73 680.478 1352.24 Q678.07 1352.75 675.594 1352.75 Q669.39 1352.75 665.756 1349.13 Q662.145 1345.52 662.145 1339.37 Q662.145 1333 665.57 1329.27 Q669.02 1325.52 674.853 1325.52 Q680.084 1325.52 683.117 1328.9 Q686.172 1332.26 686.172 1338.05 M681.913 1336.8 Q681.867 1333.3 679.945 1331.22 Q678.047 1329.13 674.899 1329.13 Q671.334 1329.13 669.182 1331.15 Q667.052 1333.16 666.728 1336.82 L681.913 1336.8 Z" fill="#000000" fill-rule="nonzero" fill-opacity="1" /><path clip-path="url(#clip300)" d="M714.714 1336.43 L714.714 1352.07 L710.455 1352.07 L710.455 1336.57 Q710.455 1332.88 709.019 1331.06 Q707.584 1329.23 704.714 1329.23 Q701.265 1329.23 699.274 1331.43 Q697.283 1333.63 697.283 1337.42 L697.283 1352.07 L693.001 1352.07 L693.001 1326.15 L697.283 1326.15 L697.283 1330.18 Q698.811 1327.84 700.871 1326.68 Q702.955 1325.52 705.663 1325.52 Q710.13 1325.52 712.422 1328.3 Q714.714 1331.06 714.714 1336.43 Z" fill="#000000" fill-rule="nonzero" fill-opacity="1" /><path clip-path="url(#clip300)" d="M727.422 1318.79 L727.422 1326.15 L736.195 1326.15 L736.195 1329.46 L727.422 1329.46 L727.422 1343.53 Q727.422 1346.7 728.278 1347.61 Q729.158 1348.51 731.82 1348.51 L736.195 1348.51 L736.195 1352.07 L731.82 1352.07 Q726.89 1352.07 725.015 1350.25 Q723.14 1348.39 723.14 1343.53 L723.14 1329.46 L720.015 1329.46 L720.015 1326.15 L723.14 1326.15 L723.14 1318.79 L727.422 1318.79 Z" fill="#000000" fill-rule="nonzero" fill-opacity="1" /><polyline clip-path="url(#clip300)" style="stroke:#3da44d; stroke-linecap:round; stroke-linejoin:round; stroke-width:4; stroke-opacity:1; fill:none" points="238.832,1386.63 386.315,1386.63 "/>
<path clip-path="url(#clip300)" d="M435.549 1377.99 L426.174 1390.6 L436.035 1403.91 L431.012 1403.91 L423.465 1393.73 L415.919 1403.91 L410.896 1403.91 L420.965 1390.35 L411.752 1377.99 L416.776 1377.99 L423.65 1387.22 L430.525 1377.99 L435.549 1377.99 Z" fill="#000000" fill-rule="nonzero" fill-opacity="1" /><path clip-path="url(#clip300)" d="M458.581 1378.75 L458.581 1382.78 Q456.775 1381.85 454.831 1381.39 Q452.886 1380.93 450.803 1380.93 Q447.632 1380.93 446.035 1381.9 Q444.461 1382.87 444.461 1384.82 Q444.461 1386.3 445.595 1387.16 Q446.729 1387.99 450.155 1388.75 L451.613 1389.08 Q456.15 1390.05 458.048 1391.83 Q459.97 1393.59 459.97 1396.76 Q459.97 1400.37 457.099 1402.48 Q454.252 1404.59 449.252 1404.59 Q447.169 1404.59 444.9 1404.17 Q442.655 1403.78 440.155 1402.97 L440.155 1398.57 Q442.516 1399.79 444.808 1400.42 Q447.099 1401.02 449.345 1401.02 Q452.354 1401.02 453.974 1400 Q455.595 1398.96 455.595 1397.09 Q455.595 1395.35 454.414 1394.42 Q453.257 1393.5 449.298 1392.64 L447.817 1392.29 Q443.859 1391.46 442.099 1389.75 Q440.34 1388.01 440.34 1385 Q440.34 1381.35 442.933 1379.35 Q445.525 1377.36 450.294 1377.36 Q452.655 1377.36 454.738 1377.71 Q456.822 1378.06 458.581 1378.75 Z" fill="#000000" fill-rule="nonzero" fill-opacity="1" /></svg>
