<?xml version="1.0" encoding="utf-8"?>
<svg xmlns="http://www.w3.org/2000/svg" xmlns:xlink="http://www.w3.org/1999/xlink" width="600" height="400" viewBox="0 0 2400 1600">
<defs>
  <clipPath id="clip580">
    <rect x="0" y="0" width="2400" height="1600"/>
  </clipPath>
</defs>
<path clip-path="url(#clip580)" d="M0 1600 L2400 1600 L2400 0 L0 0  Z" fill="#ffffff" fill-rule="evenodd" fill-opacity="1"/>
<defs>
  <clipPath id="clip581">
    <rect x="480" y="0" width="1681" height="1600"/>
  </clipPath>
</defs>
<path clip-path="url(#clip580)" d="M140.51 1486.45 L2352.76 1486.45 L2352.76 47.2441 L140.51 47.2441  Z" fill="#ffffff" fill-rule="evenodd" fill-opacity="1"/>
<defs>
  <clipPath id="clip582">
    <rect x="140" y="47" width="2213" height="1440"/>
  </clipPath>
</defs>
<polyline clip-path="url(#clip582)" style="stroke:#000000; stroke-linecap:round; stroke-linejoin:round; stroke-width:2; stroke-opacity:0.1; fill:none" points="352.398,1486.45 352.398,47.2441 "/>
<polyline clip-path="url(#clip582)" style="stroke:#000000; stroke-linecap:round; stroke-linejoin:round; stroke-width:2; stroke-opacity:0.1; fill:none" points="786.3,1486.45 786.3,47.2441 "/>
<polyline clip-path="url(#clip582)" style="stroke:#000000; stroke-linecap:round; stroke-linejoin:round; stroke-width:2; stroke-opacity:0.1; fill:none" points="1220.2,1486.45 1220.2,47.2441 "/>
<polyline clip-path="url(#clip582)" style="stroke:#000000; stroke-linecap:round; stroke-linejoin:round; stroke-width:2; stroke-opacity:0.1; fill:none" points="1654.1,1486.45 1654.1,47.2441 "/>
<polyline clip-path="url(#clip582)" style="stroke:#000000; stroke-linecap:round; stroke-linejoin:round; stroke-width:2; stroke-opacity:0.1; fill:none" points="2088,1486.45 2088,47.2441 "/>
<polyline clip-path="url(#clip582)" style="stroke:#000000; stroke-linecap:round; stroke-linejoin:round; stroke-width:2; stroke-opacity:0.1; fill:none" points="140.51,1179.7 2352.76,1179.7 "/>
<polyline clip-path="url(#clip582)" style="stroke:#000000; stroke-linecap:round; stroke-linejoin:round; stroke-width:2; stroke-opacity:0.1; fill:none" points="140.51,872.741 2352.76,872.741 "/>
<polyline clip-path="url(#clip582)" style="stroke:#000000; stroke-linecap:round; stroke-linejoin:round; stroke-width:2; stroke-opacity:0.1; fill:none" points="140.51,565.782 2352.76,565.782 "/>
<polyline clip-path="url(#clip582)" style="stroke:#000000; stroke-linecap:round; stroke-linejoin:round; stroke-width:2; stroke-opacity:0.1; fill:none" points="140.51,258.822 2352.76,258.822 "/>
<polyline clip-path="url(#clip580)" style="stroke:#000000; stroke-linecap:round; stroke-linejoin:round; stroke-width:4; stroke-opacity:1; fill:none" points="140.51,1486.45 2352.76,1486.45 "/>
<polyline clip-path="url(#clip580)" style="stroke:#000000; stroke-linecap:round; stroke-linejoin:round; stroke-width:4; stroke-opacity:1; fill:none" points="352.398,1486.45 352.398,1467.55 "/>
<polyline clip-path="url(#clip580)" style="stroke:#000000; stroke-linecap:round; stroke-linejoin:round; stroke-width:4; stroke-opacity:1; fill:none" points="786.3,1486.45 786.3,1467.55 "/>
<polyline clip-path="url(#clip580)" style="stroke:#000000; stroke-linecap:round; stroke-linejoin:round; stroke-width:4; stroke-opacity:1; fill:none" points="1220.2,1486.45 1220.2,1467.55 "/>
<polyline clip-path="url(#clip580)" style="stroke:#000000; stroke-linecap:round; stroke-linejoin:round; stroke-width:4; stroke-opacity:1; fill:none" points="1654.1,1486.45 1654.1,1467.55 "/>
<polyline clip-path="url(#clip580)" style="stroke:#000000; stroke-linecap:round; stroke-linejoin:round; stroke-width:4; stroke-opacity:1; fill:none" points="2088,1486.45 2088,1467.55 "/>
<path clip-path="url(#clip580)" d="M306.46 1532.02 L336.136 1532.02 L336.136 1535.95 L306.46 1535.95 L306.46 1532.02 Z" fill="#000000" fill-rule="nonzero" fill-opacity="1" /><path clip-path="url(#clip580)" d="M360.395 1530.21 Q363.752 1530.93 365.627 1533.2 Q367.525 1535.47 367.525 1538.8 Q367.525 1543.92 364.006 1546.72 Q360.488 1549.52 354.007 1549.52 Q351.831 1549.52 349.516 1549.08 Q347.224 1548.66 344.77 1547.81 L344.77 1543.29 Q346.715 1544.43 349.03 1545.01 Q351.345 1545.58 353.868 1545.58 Q358.266 1545.58 360.557 1543.85 Q362.872 1542.11 362.872 1538.8 Q362.872 1535.75 360.719 1534.03 Q358.59 1532.3 354.77 1532.3 L350.743 1532.3 L350.743 1528.45 L354.956 1528.45 Q358.405 1528.45 360.233 1527.09 Q362.062 1525.7 362.062 1523.11 Q362.062 1520.45 360.164 1519.03 Q358.289 1517.6 354.77 1517.6 Q352.849 1517.6 350.65 1518.01 Q348.451 1518.43 345.812 1519.31 L345.812 1515.14 Q348.474 1514.4 350.789 1514.03 Q353.127 1513.66 355.187 1513.66 Q360.511 1513.66 363.613 1516.09 Q366.715 1518.5 366.715 1522.62 Q366.715 1525.49 365.071 1527.48 Q363.428 1529.45 360.395 1530.21 Z" fill="#000000" fill-rule="nonzero" fill-opacity="1" /><path clip-path="url(#clip580)" d="M386.391 1517.37 Q382.78 1517.37 380.951 1520.93 Q379.145 1524.47 379.145 1531.6 Q379.145 1538.71 380.951 1542.27 Q382.78 1545.82 386.391 1545.82 Q390.025 1545.82 391.83 1542.27 Q393.659 1538.71 393.659 1531.6 Q393.659 1524.47 391.83 1520.93 Q390.025 1517.37 386.391 1517.37 M386.391 1513.66 Q392.201 1513.66 395.256 1518.27 Q398.335 1522.85 398.335 1531.6 Q398.335 1540.33 395.256 1544.94 Q392.201 1549.52 386.391 1549.52 Q380.58 1549.52 377.502 1544.94 Q374.446 1540.33 374.446 1531.6 Q374.446 1522.85 377.502 1518.27 Q380.58 1513.66 386.391 1513.66 Z" fill="#000000" fill-rule="nonzero" fill-opacity="1" /><path clip-path="url(#clip580)" d="M786.3 1517.37 Q782.688 1517.37 780.86 1520.93 Q779.054 1524.47 779.054 1531.6 Q779.054 1538.71 780.86 1542.27 Q782.688 1545.82 786.3 1545.82 Q789.934 1545.82 791.739 1542.27 Q793.568 1538.71 793.568 1531.6 Q793.568 1524.47 791.739 1520.93 Q789.934 1517.37 786.3 1517.37 M786.3 1513.66 Q792.11 1513.66 795.165 1518.27 Q798.244 1522.85 798.244 1531.6 Q798.244 1540.33 795.165 1544.94 Q792.11 1549.52 786.3 1549.52 Q780.489 1549.52 777.411 1544.94 Q774.355 1540.33 774.355 1531.6 Q774.355 1522.85 777.411 1518.27 Q780.489 1513.66 786.3 1513.66 Z" fill="#000000" fill-rule="nonzero" fill-opacity="1" /><path clip-path="url(#clip580)" d="M1209.04 1530.21 Q1212.4 1530.93 1214.28 1533.2 Q1216.17 1535.47 1216.17 1538.8 Q1216.17 1543.92 1212.66 1546.72 Q1209.14 1549.52 1202.66 1549.52 Q1200.48 1549.52 1198.16 1549.08 Q1195.87 1548.66 1193.42 1547.81 L1193.42 1543.29 Q1195.36 1544.43 1197.68 1545.01 Q1199.99 1545.58 1202.52 1545.58 Q1206.91 1545.58 1209.21 1543.85 Q1211.52 1542.11 1211.52 1538.8 Q1211.52 1535.75 1209.37 1534.03 Q1207.24 1532.3 1203.42 1532.3 L1199.39 1532.3 L1199.39 1528.45 L1203.6 1528.45 Q1207.05 1528.45 1208.88 1527.09 Q1210.71 1525.7 1210.71 1523.11 Q1210.71 1520.45 1208.81 1519.03 Q1206.94 1517.6 1203.42 1517.6 Q1201.5 1517.6 1199.3 1518.01 Q1197.1 1518.43 1194.46 1519.31 L1194.46 1515.14 Q1197.12 1514.4 1199.44 1514.03 Q1201.78 1513.66 1203.84 1513.66 Q1209.16 1513.66 1212.26 1516.09 Q1215.36 1518.5 1215.36 1522.62 Q1215.36 1525.49 1213.72 1527.48 Q1212.08 1529.45 1209.04 1530.21 Z" fill="#000000" fill-rule="nonzero" fill-opacity="1" /><path clip-path="url(#clip580)" d="M1235.04 1517.37 Q1231.43 1517.37 1229.6 1520.93 Q1227.79 1524.47 1227.79 1531.6 Q1227.79 1538.71 1229.6 1542.27 Q1231.43 1545.82 1235.04 1545.82 Q1238.67 1545.82 1240.48 1542.27 Q1242.31 1538.71 1242.31 1531.6 Q1242.31 1524.47 1240.48 1520.93 Q1238.67 1517.37 1235.04 1517.37 M1235.04 1513.66 Q1240.85 1513.66 1243.9 1518.27 Q1246.98 1522.85 1246.98 1531.6 Q1246.98 1540.33 1243.9 1544.94 Q1240.85 1549.52 1235.04 1549.52 Q1229.23 1549.52 1226.15 1544.94 Q1223.09 1540.33 1223.09 1531.6 Q1223.09 1522.85 1226.15 1518.27 Q1229.23 1513.66 1235.04 1513.66 Z" fill="#000000" fill-rule="nonzero" fill-opacity="1" /><path clip-path="url(#clip580)" d="M1639.51 1529.7 Q1636.36 1529.7 1634.51 1531.86 Q1632.68 1534.01 1632.68 1537.76 Q1632.68 1541.49 1634.51 1543.66 Q1636.36 1545.82 1639.51 1545.82 Q1642.66 1545.82 1644.49 1543.66 Q1646.34 1541.49 1646.34 1537.76 Q1646.34 1534.01 1644.49 1531.86 Q1642.66 1529.7 1639.51 1529.7 M1648.79 1515.05 L1648.79 1519.31 Q1647.03 1518.48 1645.23 1518.04 Q1643.44 1517.6 1641.68 1517.6 Q1637.05 1517.6 1634.6 1520.72 Q1632.17 1523.85 1631.82 1530.17 Q1633.19 1528.15 1635.25 1527.09 Q1637.31 1526 1639.79 1526 Q1644.99 1526 1648 1529.17 Q1651.04 1532.32 1651.04 1537.76 Q1651.04 1543.08 1647.89 1546.3 Q1644.74 1549.52 1639.51 1549.52 Q1633.51 1549.52 1630.34 1544.94 Q1627.17 1540.33 1627.17 1531.6 Q1627.17 1523.41 1631.06 1518.55 Q1634.95 1513.66 1641.5 1513.66 Q1643.26 1513.66 1645.04 1514.01 Q1646.85 1514.36 1648.79 1515.05 Z" fill="#000000" fill-rule="nonzero" fill-opacity="1" /><path clip-path="url(#clip580)" d="M1669.09 1517.37 Q1665.48 1517.37 1663.65 1520.93 Q1661.85 1524.47 1661.85 1531.6 Q1661.85 1538.71 1663.65 1542.27 Q1665.48 1545.82 1669.09 1545.82 Q1672.73 1545.82 1674.53 1542.27 Q1676.36 1538.71 1676.36 1531.6 Q1676.36 1524.47 1674.53 1520.93 Q1672.73 1517.37 1669.09 1517.37 M1669.09 1513.66 Q1674.9 1513.66 1677.96 1518.27 Q1681.04 1522.85 1681.04 1531.6 Q1681.04 1540.33 1677.96 1544.94 Q1674.9 1549.52 1669.09 1549.52 Q1663.28 1549.52 1660.2 1544.94 Q1657.15 1540.33 1657.15 1531.6 Q1657.15 1522.85 1660.2 1518.27 Q1663.28 1513.66 1669.09 1513.66 Z" fill="#000000" fill-rule="nonzero" fill-opacity="1" /><path clip-path="url(#clip580)" d="M2063.13 1548.13 L2063.13 1543.87 Q2064.89 1544.7 2066.7 1545.14 Q2068.5 1545.58 2070.24 1545.58 Q2074.87 1545.58 2077.3 1542.48 Q2079.75 1539.36 2080.1 1533.01 Q2078.76 1535.01 2076.7 1536.07 Q2074.64 1537.13 2072.14 1537.13 Q2066.95 1537.13 2063.92 1534.01 Q2060.91 1530.86 2060.91 1525.42 Q2060.91 1520.1 2064.06 1516.88 Q2067.21 1513.66 2072.44 1513.66 Q2078.43 1513.66 2081.58 1518.27 Q2084.75 1522.85 2084.75 1531.6 Q2084.75 1539.77 2080.86 1544.66 Q2077 1549.52 2070.45 1549.52 Q2068.69 1549.52 2066.88 1549.17 Q2065.08 1548.82 2063.13 1548.13 M2072.44 1533.48 Q2075.59 1533.48 2077.41 1531.32 Q2079.27 1529.17 2079.27 1525.42 Q2079.27 1521.7 2077.41 1519.54 Q2075.59 1517.37 2072.44 1517.37 Q2069.29 1517.37 2067.44 1519.54 Q2065.61 1521.7 2065.61 1525.42 Q2065.61 1529.17 2067.44 1531.32 Q2069.29 1533.48 2072.44 1533.48 Z" fill="#000000" fill-rule="nonzero" fill-opacity="1" /><path clip-path="url(#clip580)" d="M2103.16 1517.37 Q2099.54 1517.37 2097.72 1520.93 Q2095.91 1524.47 2095.91 1531.6 Q2095.91 1538.71 2097.72 1542.27 Q2099.54 1545.82 2103.16 1545.82 Q2106.79 1545.82 2108.59 1542.27 Q2110.42 1538.71 2110.42 1531.6 Q2110.42 1524.47 2108.59 1520.93 Q2106.79 1517.37 2103.16 1517.37 M2103.16 1513.66 Q2108.97 1513.66 2112.02 1518.27 Q2115.1 1522.85 2115.1 1531.6 Q2115.1 1540.33 2112.02 1544.94 Q2108.97 1549.52 2103.16 1549.52 Q2097.35 1549.52 2094.27 1544.94 Q2091.21 1540.33 2091.21 1531.6 Q2091.21 1522.85 2094.27 1518.27 Q2097.35 1513.66 2103.16 1513.66 Z" fill="#000000" fill-rule="nonzero" fill-opacity="1" /><polyline clip-path="url(#clip580)" style="stroke:#000000; stroke-linecap:round; stroke-linejoin:round; stroke-width:4; stroke-opacity:1; fill:none" points="140.51,1486.45 140.51,47.2441 "/>
<polyline clip-path="url(#clip580)" style="stroke:#000000; stroke-linecap:round; stroke-linejoin:round; stroke-width:4; stroke-opacity:1; fill:none" points="140.51,1179.7 159.408,1179.7 "/>
<polyline clip-path="url(#clip580)" style="stroke:#000000; stroke-linecap:round; stroke-linejoin:round; stroke-width:4; stroke-opacity:1; fill:none" points="140.51,872.741 159.408,872.741 "/>
<polyline clip-path="url(#clip580)" style="stroke:#000000; stroke-linecap:round; stroke-linejoin:round; stroke-width:4; stroke-opacity:1; fill:none" points="140.51,565.782 159.408,565.782 "/>
<polyline clip-path="url(#clip580)" style="stroke:#000000; stroke-linecap:round; stroke-linejoin:round; stroke-width:4; stroke-opacity:1; fill:none" points="140.51,258.822 159.408,258.822 "/>
<path clip-path="url(#clip580)" d="M92.566 1165.5 Q88.9549 1165.5 87.1262 1169.06 Q85.3206 1172.61 85.3206 1179.74 Q85.3206 1186.84 87.1262 1190.41 Q88.9549 1193.95 92.566 1193.95 Q96.2002 1193.95 98.0058 1190.41 Q99.8345 1186.84 99.8345 1179.74 Q99.8345 1172.61 98.0058 1169.06 Q96.2002 1165.5 92.566 1165.5 M92.566 1161.8 Q98.3761 1161.8 101.432 1166.4 Q104.51 1170.99 104.51 1179.74 Q104.51 1188.46 101.432 1193.07 Q98.3761 1197.65 92.566 1197.65 Q86.7558 1197.65 83.6771 1193.07 Q80.6216 1188.46 80.6216 1179.74 Q80.6216 1170.99 83.6771 1166.4 Q86.7558 1161.8 92.566 1161.8 Z" fill="#000000" fill-rule="nonzero" fill-opacity="1" /><path clip-path="url(#clip580)" d="M57.4273 886.086 L73.7466 886.086 L73.7466 890.021 L51.8023 890.021 L51.8023 886.086 Q54.4643 883.332 59.0476 878.702 Q63.6541 874.049 64.8346 872.707 Q67.08 870.183 67.9596 868.447 Q68.8624 866.688 68.8624 864.998 Q68.8624 862.244 66.918 860.508 Q64.9967 858.771 61.8948 858.771 Q59.6958 858.771 57.2421 859.535 Q54.8115 860.299 52.0338 861.85 L52.0338 857.128 Q54.8578 855.994 57.3115 855.415 Q59.7652 854.836 61.8023 854.836 Q67.1726 854.836 70.367 857.521 Q73.5614 860.207 73.5614 864.697 Q73.5614 866.827 72.7513 868.748 Q71.9642 870.646 69.8578 873.239 Q69.2791 873.91 66.1772 877.128 Q63.0754 880.322 57.4273 886.086 Z" fill="#000000" fill-rule="nonzero" fill-opacity="1" /><path clip-path="url(#clip580)" d="M83.6077 855.461 L101.964 855.461 L101.964 859.396 L87.8901 859.396 L87.8901 867.869 Q88.9086 867.521 89.9271 867.359 Q90.9456 867.174 91.9641 867.174 Q97.7511 867.174 101.131 870.346 Q104.51 873.517 104.51 878.933 Q104.51 884.512 101.038 887.614 Q97.566 890.693 91.2465 890.693 Q89.0706 890.693 86.8021 890.322 Q84.5568 889.952 82.1494 889.211 L82.1494 884.512 Q84.2327 885.646 86.4549 886.202 Q88.6771 886.757 91.1539 886.757 Q95.1586 886.757 97.4965 884.651 Q99.8345 882.545 99.8345 878.933 Q99.8345 875.322 97.4965 873.216 Q95.1586 871.109 91.1539 871.109 Q89.279 871.109 87.404 871.526 Q85.5521 871.943 83.6077 872.822 L83.6077 855.461 Z" fill="#000000" fill-rule="nonzero" fill-opacity="1" /><path clip-path="url(#clip580)" d="M52.4505 548.502 L70.8068 548.502 L70.8068 552.437 L56.7328 552.437 L56.7328 560.909 Q57.7513 560.562 58.7699 560.4 Q59.7884 560.215 60.8069 560.215 Q66.5939 560.215 69.9735 563.386 Q73.3531 566.557 73.3531 571.974 Q73.3531 577.553 69.8809 580.654 Q66.4087 583.733 60.0893 583.733 Q57.9134 583.733 55.6449 583.363 Q53.3995 582.992 50.9921 582.252 L50.9921 577.553 Q53.0754 578.687 55.2977 579.242 Q57.5199 579.798 59.9967 579.798 Q64.0013 579.798 66.3393 577.691 Q68.6772 575.585 68.6772 571.974 Q68.6772 568.363 66.3393 566.256 Q64.0013 564.15 59.9967 564.15 Q58.1217 564.15 56.2467 564.567 Q54.3949 564.983 52.4505 565.863 L52.4505 548.502 Z" fill="#000000" fill-rule="nonzero" fill-opacity="1" /><path clip-path="url(#clip580)" d="M92.566 551.58 Q88.9549 551.58 87.1262 555.145 Q85.3206 558.687 85.3206 565.817 Q85.3206 572.923 87.1262 576.488 Q88.9549 580.029 92.566 580.029 Q96.2002 580.029 98.0058 576.488 Q99.8345 572.923 99.8345 565.817 Q99.8345 558.687 98.0058 555.145 Q96.2002 551.58 92.566 551.58 M92.566 547.877 Q98.3761 547.877 101.432 552.483 Q104.51 557.067 104.51 565.817 Q104.51 574.543 101.432 579.15 Q98.3761 583.733 92.566 583.733 Q86.7558 583.733 83.6771 579.15 Q80.6216 574.543 80.6216 565.817 Q80.6216 557.067 83.6771 552.483 Q86.7558 547.877 92.566 547.877 Z" fill="#000000" fill-rule="nonzero" fill-opacity="1" /><path clip-path="url(#clip580)" d="M52.219 241.542 L74.4411 241.542 L74.4411 243.533 L61.8948 276.102 L57.0106 276.102 L68.8161 245.477 L52.219 245.477 L52.219 241.542 Z" fill="#000000" fill-rule="nonzero" fill-opacity="1" /><path clip-path="url(#clip580)" d="M83.6077 241.542 L101.964 241.542 L101.964 245.477 L87.8901 245.477 L87.8901 253.95 Q88.9086 253.602 89.9271 253.44 Q90.9456 253.255 91.9641 253.255 Q97.7511 253.255 101.131 256.426 Q104.51 259.598 104.51 265.014 Q104.51 270.593 101.038 273.695 Q97.566 276.774 91.2465 276.774 Q89.0706 276.774 86.8021 276.403 Q84.5568 276.033 82.1494 275.292 L82.1494 270.593 Q84.2327 271.727 86.4549 272.283 Q88.6771 272.838 91.1539 272.838 Q95.1586 272.838 97.4965 270.732 Q99.8345 268.625 99.8345 265.014 Q99.8345 261.403 97.4965 259.297 Q95.1586 257.19 91.1539 257.19 Q89.279 257.19 87.404 257.607 Q85.5521 258.024 83.6077 258.903 L83.6077 241.542 Z" fill="#000000" fill-rule="nonzero" fill-opacity="1" /><polyline clip-path="url(#clip582)" style="stroke:#0000ff; stroke-linecap:round; stroke-linejoin:round; stroke-width:4; stroke-opacity:1; fill:none" points="203.477,716.859 232.088,723.136 235.533,718.643 244.848,718.148 251.702,718.094 275.047,720.159 298.207,723.753 326.127,725.934 354.3,728.406 385.008,733.329 414.424,733.151 439.84,733.264 475.893,734.912 498.714,740.528 522.229,744.518 555.975,748.529 581.923,750.046 604.129,754.428 632.707,760.948 656.324,768.495 679.4,776.361 702.842,783.096 730.143,789.983 753.093,798.342 778.783,803.822 809.681,811.705 831.978,811.949 866.318,814.186 892.166,821.966 918.798,829.302 949.757,838.723 974.424,847.291 1000.35,854.744 1019.51,864.279 1037.57,876.113 1045.48,881.7 1065.97,885.089 1083.26,887.19 1104.93,888.876 1130.84,892.068 1157.55,901.698 1184.72,911.877 1206.94,917.016 1232.83,920.505 1265.14,922.639 1294.37,923.988 1326.71,927.933 1355.14,932.63 1381.42,936.033 1406.83,938.76 1439.01,938.433 1463.2,938.578 1490.15,937.714 1517.08,935.016 1545.77,930.196 1574.1,930.435 1601.77,928.377 1627.97,928.869 1648.69,922.485 1667.96,918.919 1685.11,912.386 1702.91,906.476 1723.61,906.021 1746.05,903.898 1767.54,905.841 1786.39,909.075 1808.24,915.654 1829.01,926.569 1850.92,939.164 1867.04,950.061 1882.99,966.561 1893.65,980.257 1901.26,994.583 1910.58,1013.44 1921.82,1031.37 1933.95,1050.86 1944.68,1062.01 1962.83,1068.92 1976.35,1072.49 1986.86,1071.93 2008.52,1064.89 2025.05,1059.84 2045.26,1039.08 2058.04,1023.08 2063.19,1002.67 2065.61,984.923 2065.76,964.298 2053.35,948.78 2036.11,939.543 2012.56,929.813 1980.75,933.974 1954.62,932.44 1933.51,928.813 1914.31,925.779 1892.01,923.405 1872.73,929.438 1850.68,935.787 1834.33,943.417 1811.31,946.279 1786.76,946.415 1759.33,942.357 1736.03,931.874 1713.02,921.382 1682.68,906.467 1657.19,889.224 1634.71,870.643 1619.49,855.442 1607.61,842.142 1591.11,828.335 1576.82,812.179 1564.72,796.778 1556.4,780.449 1556.2,765.013 1569.18,749.261 1581.85,736.683 1601.71,728.441 1620.2,729.448 1650.13,730.867 1671.93,743.104 1693.52,750.198 1707.07,754.9 1729.35,761.647 1751.49,772.869 1763.42,782.212 1781.3,792.714 1799.84,803.428 1821.67,811.591 1842.08,813.266 1863.94,814.013 1888.66,808.548 1909.67,804.101 1926.45,802.461 1945.31,808.962 1961.97,820.243 1976.54,835.616 1986.08,852.538 1994.57,872.38 2002.43,893.462 2006.71,912.837 2006.78,933.813 2007.11,945.071 2009.71,959.144 2019.32,977.876 2026.7,995.308 2038.11,1009.7 2048.66,1016.95 2061.49,1020.76 2079.48,1017.38 2098.59,1010.75 2112.65,1001.64 2130.52,989.584 2140.31,979.503 2144.96,959.696 2136.57,942.287 2119.73,924.541 2106.02,908.065 2082.71,896.289 2054.53,890.607 2025.44,886.479 2006.36,884.382 1980.6,882.453 1959.56,880.543 1940.78,871.559 1925.71,865.107 1904.37,858.501 1888.34,857.348 1866.38,859.21 1846.06,854.517 1824.9,849.542 1804.88,848.498 1780.38,844.999 1762.39,840.132 1745.13,835.835 1723.48,833.967 1696.75,835.696 1670.8,841.643 1654.02,840.586 1648.58,833.168 1644.33,829.871 1636.91,828.479 1626.13,827.734 1617.44,826.409 1603.93,830.311 1589.71,836.527 1564.75,841.166 1543.43,844.766 1528.61,850.255 1518.1,858.681 1524.7,860.175 1539.02,858.944 1566.83,855.208 1589.84,838.833 1606.88,823.002 1614.86,807.767 1606.38,791.324 1592.11,772.672 1582.1,761.573 1570.43,741.533 1552.01,730.016 1531.14,740.8 1509.14,741.029 1481.02,736.018 1476.24,719.204 1471.91,700.371 1471.85,678.986 1476.18,662.426 1490.91,641.621 1499.71,621.545 1502.53,597.607 1486.34,584.531 1464.35,576.231 1454.71,575.142 1464.06,562.344 1484.08,551.221 1519.69,550.435 1558.69,536.785 1584,519.158 1602.84,495.365 1617.13,474.264 1638.57,465.149 1665.11,467.624 1688.83,473.562 1708,491.205 1735.91,503.206 1755.14,519.124 1765.85,540.507 1755.1,557.644 1736.98,574.135 1709.65,587.131 1676.17,593.205 1650.83,592.711 1617.06,578.961 1591.04,563.409 1579.89,542.474 1578.3,519.979 1596.79,504.626 1611.14,494.796 1634.09,480.43 1658.61,471.058 1681.43,455.73 1704.28,443.648 1723.55,442.738 1747.22,429.371 1751.21,415.758 1760.97,397.845 1773.09,392.106 1791.03,375.196 1785.46,361.98 1763.52,351.229 1759.87,349.022 1769.63,344.852 1794.07,338.715 1823.14,342.93 1848.41,345.448 1875.86,350.027 1898.93,367.793 1904.45,385.63 1901.1,397.857 1879.74,409.969 1864.84,431.645 1849.27,458.729 1838.23,490.868 1839.39,511.296 1803.97,514.734 1780.95,530.296 1748.74,536.644 1718.25,554.021 1701.15,578.756 1681.34,596.951 1653.05,592.247 1631.03,580.517 1603.13,570.354 1589.16,557.946 1563.59,540.992 1554.52,535.231 1561.12,513.128 1586.16,504.003 1620.82,498.998 1649.08,503.089 1684.36,509.773 1713.28,523.528 1723.18,545.108 1735.86,566.167 1751.39,570.963 1777.95,575.922 1801.63,586.23 1812.05,588.819 1838.55,581.252 1863.13,573.535 1881.54,564.123 1902.1,566.988 1922.15,581.062 1921.3,598.732 1921.61,619.947 1908.23,651.62 1888.08,676.853 1863.57,696.647 1840.06,725.483 1838.53,751.228 1803.56,764.298 1775.41,769.845 1747.33,783.295 1721.55,797.093 1704.1,815.983 1687.56,837.256 1661.35,859.769 1634.6,868.812 1607.33,860.959 1583.02,854.559 1551.07,851.013 1522.39,842.118 1502.68,821.043 1488.61,801.267 1457.98,778.633 1441.68,759.061 1415.4,742.305 1390.51,738.688 1360.02,744.768 1341.85,742.592 1316.59,734.513 1311.35,709.284 1294.84,700.335 1271.03,704.342 1252.45,713.222 1228.35,729.5 1220.5,736.488 1190.25,740.636 1167.62,745.126 1141.14,739.319 1119.72,721.91 1097.37,709.012 1062.52,702.557 1029.59,694.495 1006.85,689.284 986.837,678.766 965.823,658.675 965.485,645.791 974.003,626.166 990.518,605.421 1002.46,582.356 1008.07,551.837 1014.74,527.37 1000.4,506.948 981.454,502.231 971.076,490.511 975.503,477.541 1000.47,476.998 1037.45,480.605 1077.35,478.249 1110.83,474.265 1139.36,456.25 1164.72,431.304 1189.58,411.777 1221.02,405.665 1259.7,407.571 1292.63,419.984 1323.61,435.573 1353.84,447.796 1380.75,459.817 1403.54,474.306 1439.04,482.109 1465.91,495.209 1491.24,517.174 1521.28,544.604 1548.96,560.881 1573.78,572.334 1592.88,582.097 1602.31,574.396 1623.09,563.21 1650.43,548.88 1672.43,539.827 1702.37,529.135 1735.33,527.022 1771.53,535.989 1799.16,561.23 1807.78,582.389 1803.17,613.697 1785.78,646.4 1782.92,673.38 1775.1,706.209 1774.91,740.952 1791.07,771.342 1823.2,796.042 1863.27,794.353 1884.74,796.167 1915.15,803.83 1935.94,825.601 1961.42,850.888 1982.71,882.505 1993.76,915.404 1999.09,937.703 2014.42,920.466 2050.83,925.016 2079.19,931.213 2090.46,947.221 2092.11,950.587 2093.69,955.218 2098.64,971.294 2101.59,977.799 2113.99,981.397 2130.14,983.102 2158.43,977.987 2186.24,987.506 2200.75,999.199 2214.29,1020.54 2216.41,1034.13 2218.43,1022.97 2222.56,1005.98 2222.39,980.307 2212.83,953.281 2197.55,928.825 2186.63,905.793 2186.85,885.495 2160.37,863.644 2151.84,832.702 2156.59,806.792 2174.84,795.81 2195.84,798.017 2220.38,805.699 2236.64,818.945 2247.91,838.178 2273.26,860.716 2289.51,882.205 2280.94,909.545 2260.58,930.982 2243.28,951.853 2212.35,963.793 2193.24,983.095 2165.78,995.707 2138.58,1018.54 2120.05,1040.2 2108.49,1063.71 2088.66,1086.28 2071.07,1109.24 2046.18,1126.12 2020.03,1137.41 1988.93,1153.12 1962.64,1170.33 1933.63,1179.49 1905.35,1198.85 1889.65,1215.7 1857.95,1228.47 1837.98,1242.7 1820.35,1262.54 1801.94,1290.13 1792.99,1310.78 1788.2,1331.77 1781.9,1356.59 1804.25,1377.32 1813.79,1391.12 1807.19,1414.92 1799.5,1440.57 1780.34,1445.07 1757.24,1442.2 1734.31,1423.95 1722.13,1398.34 1708.92,1375.75 1685.07,1353.29 1645.63,1327.23 1614.74,1319.91 1579.4,1318.1 1542.08,1326.09 1500.34,1336.34 1473.61,1337.26 1437.83,1325.8 1413.02,1313.36 1392.88,1289.24 1390.43,1255.87 1385.36,1215.39 1365.67,1188.93 1343.72,1168.43 1348.22,1136.49 1346.44,1108.64 1338,1084.2 1325.96,1055.83 1307.17,1032.24 1302.07,1006.38 1307.34,972.653 1316.85,938.922 1335.45,909.912 1352.12,879.483 1365.31,847.134 1393.43,826.39 1388.53,798.237 1373.04,772.96 1341.99,749.62 1308.11,746.912 1288.12,735.238 1279.72,708.999 1276.71,676.766 1289.31,648.725 1303.52,627.121 1324.89,618.639 1357.41,606.183 1394.5,600.593 1434.21,597.42 1473.49,597.912 1501.34,590.53 1524.73,564.035 1543.14,542.644 1571.79,529.179 1594.4,524.269 1597.89,509.444 1584.11,495.554 1562.4,480.59 1536.11,467.974 1506.42,441.322 1483.92,414.753 1471.03,388.99 1453.14,369.423 1449.2,351.4 1457,330.265 1475.02,320.285 1492.49,329.442 1523.22,334.554 1561.92,337.159 1597.62,346.017 1638.98,351.373 1672,355.235 1703.45,370.039 1727.98,376.344 1753.26,368.081 1776.13,357.685 1807.59,352.635 1840.54,352.433 1871.71,347.759 1895.46,362.743 1907.11,378.793 1911.8,373.484 1921.92,356.221 1939.22,340.101 1956.57,328.905 1980.29,314.621 2000.23,306.553 1991.77,305.514 1969.8,294.262 1959.66,278.48 1947.2,248.124 1951.05,218.785 1961.98,203.493 1991.08,193.505 2024.81,194.058 2050.68,199.481 2083.44,203.85 2118.93,216.556 2142.51,238.401 2147.9,266.851 2141.15,294.429 2128.82,302.994 2133.04,319.506 2136.88,341.102 2133.19,372.71 2105.25,390.19 2085.29,424.431 2056.95,446.604 2033.99,472.634 2026.46,507.303 2001.4,515.63 1963.79,517.689 1928.43,529.023 1897.81,542.509 1881.46,569.419 1870.22,600.453 1868.94,616.817 1894.99,622.949 1924.01,635.165 1962.88,649.766 1997.04,673.792 2024.9,689.237 2063.5,693.719 2098.59,694.977 2138.86,690.752 2168,695.684 2194.13,694.552 2204.83,680.217 2219.01,660.945 2235.11,640.57 2233.15,615.187 2229.7,596.897 2219.65,572.459 2193.44,552.013 2172.08,532.799 2147.47,517.328 2106.3,517.824 2079.74,524.707 2055.39,542.891 2037.68,562.331 2012.36,587.626 2006.85,616.754 2011.81,648.489 2016.44,678.511 2033.05,705.094 2046.38,729.866 2059.82,763.284 2075.51,794.48 2107,805.834 2137.01,823.891 2163.07,851.237 2182.95,874.179 2198.14,905.985 2204.65,931.482 2203.49,942.417 2170.69,944.923 2133.59,958.621 2105.83,956.686 2089.96,963.394 2070.18,967.243 2047.66,963.203 2016.22,949.268 1985.97,941.468 1949.99,943.605 1906.03,955.872 1866.9,969.925 1828.09,970.987 1784.06,979.16 1745.65,979.567 1706.34,981.194 1675.09,975.803 1639.25,979.519 1607.17,974.139 1574.44,966.245 1539.36,935.207 1511.42,920.235 1473.68,913.565 1440.5,898.487 1411.74,881.427 1380.11,860.823 1353.37,853.581 1325.33,867.399 1299.57,883.707 1271.13,899.142 1232.43,916.836 1195.34,925.822 1165.97,921.269 1138.39,898.089 1119.78,873.67 1101.53,843.397 1075.54,817.771 1064.41,787.187 1060.72,758.735 1061.64,736.586 1048.83,706.658 1026.42,689.186 998.38,678.268 978.312,656.655 969.853,625.794 966.84,602.216 955.58,574.36 964.191,548.015 985.954,520.686 997.718,503.378 1011.6,496.579 1021.06,482.538 1025.82,466.713 1032.24,442.525 1039.68,418.414 1044.31,390.854 1056.23,358.124 1058.33,334.343 1035.43,315.534 1015.14,301.934 987.516,300.742 960.099,309.625 932.513,307.446 901.49,292.029 863.115,277.6 839.536,271.54 817.538,267.701 802.389,249.743 800.707,228.262 815.686,210.121 837.831,191.29 861.586,173.67 903.888,162.232 934.478,149.888 967.907,144.791 998.915,154.973 1027.45,161.453 1061.79,158.006 1095.78,151.466 1116.28,130.968 1132.07,111.79 1145.47,90.8748 "/>
<polyline clip-path="url(#clip582)" style="stroke:#ff0000; stroke-linecap:round; stroke-linejoin:round; stroke-width:4; stroke-opacity:1; fill:none" points="203.121,718.144 234.087,724.529 236.748,715.652 258.284,716.953 261.727,717.653 289.251,723.338 306.448,726.886 335.75,726.641 360.729,728.655 391.709,735.039 418.467,731.135 440.003,732.424 483.089,735.027 495.094,743.794 520.086,745.795 563.187,748.398 581.295,748.988 601.096,756.219 635.562,763.316 655.377,770.548 678.648,778.492 702.788,783.465 733.826,789.862 752.788,800.066 781.266,802.791 814.923,812.884 831.324,806.819 873.629,812.393 891.752,825.58 919.377,831.277 953.077,841.37 972.95,848.614 1000.6,854.311 1015.3,866.799 1033.48,879.998 1036.94,880.71 1069.78,881.177 1083.61,884.037 1108.69,886.051 1136.37,891.761 1161.49,906.409 1188.34,915.089 1206.5,915.691 1235.06,918.429 1271.4,919.608 1296.5,921.634 1331.14,928.78 1355.41,933.789 1380.5,935.803 1405.61,937.829 1442.81,936.049 1460.99,936.638 1490.41,936.405 1517.21,932.463 1548.3,926.275 1576.04,931.985 1602.83,928.055 1627.95,930.081 1646,918.049 1664.18,918.638 1681.38,909.589 1701.22,904.223 1725.51,909.233 1748.81,904.579 1769.64,908.864 1786.98,912.437 1810.45,920.418 1828.81,933.642 1851.46,944.607 1863.71,953.435 1880.43,972.638 1888.38,983.738 1895.51,997.821 1907.95,1019.32 1922.05,1034.85 1935.33,1053.38 1944.95,1058.53 1969.3,1063.56 1979.75,1065.71 1987.54,1064.15 2016.01,1054.23 2027.26,1053.38 2049.36,1026.37 2055.3,1018.12 2054.06,995.783 2058.14,980.865 2056.91,958.555 2037.69,948.302 2020.3,944.717 1997.62,933.753 1970.01,940.665 1949.17,936.38 1932.62,929.824 1915.27,926.251 1890.13,924.225 1872.12,936.27 1848.81,940.911 1835.92,947.713 1807.31,944.963 1782.18,942.949 1754.41,937.227 1736.07,924.004 1712.61,916.023 1676.94,899.226 1656,882.331 1635.07,865.436 1623.7,853.673 1612.35,841.898 1590.59,827.999 1577.46,809.594 1566.95,794.884 1560.74,777.915 1564.92,763.095 1583.77,748.153 1594.02,737.716 1617.28,733.099 1631.11,735.936 1660.45,735.702 1674.42,751.099 1695.19,755.372 1705.58,757.496 1733.28,763.194 1755.03,777.056 1760.31,784.411 1782.9,795.326 1802.03,805.542 1826.29,810.527 1845.27,808.145 1866.89,809.446 1891.79,798.875 1909.95,799.476 1923.82,802.325 1945.63,816.212 1960.51,828.686 1974.58,844.133 1981.71,858.155 1990.7,878.856 1999.68,899.57 2002.53,915.888 2000.27,937.448 2002.93,941.144 2009.27,958.199 2025.22,980.386 2028.08,996.741 2043.01,1009.28 2053.45,1011.44 2067.37,1014.3 2088.03,1005.94 2104.39,999.847 2113.79,992.32 2131.79,980.263 2136.89,975.02 2136.43,949.727 2121.49,937.203 2103.89,920.995 2093.26,906.237 2069.75,898.256 2041.14,895.518 2016.83,890.52 2006.42,888.372 1977.82,885.646 1960.47,882.073 1942.92,865.89 1929.04,863.041 1901.28,857.332 1889.23,861.138 1862.48,865.067 1844.14,851.868 1823.32,847.595 1804.33,849.965 1776.61,844.268 1763.56,838.448 1746.23,834.875 1720.32,835.833 1690.1,839.049 1665.98,846.65 1657.26,838.571 1657.11,825.973 1649.36,827.52 1638.14,828.355 1623.44,828.478 1616.51,827.053 1599.32,836.078 1586.43,842.856 1553.58,842.389 1538.05,845.471 1528.6,852.961 1521.79,864.146 1537.33,861.052 1556.32,858.67 1587.38,852.482 1596.68,832.395 1611.25,819.686 1615.41,804.842 1605.74,787.161 1589.15,768.068 1580.43,760.001 1568.97,735.715 1549.06,728.483 1526.75,742.713 1505.17,741.412 1474.05,735.015 1475.62,716.536 1470.29,696.657 1472.7,675.244 1476.88,660.46 1494.77,636.002 1499.79,618.284 1503.03,593.973 1484.01,583.831 1460.7,575.936 1453.8,574.524 1465.72,558.255 1490.59,547.757 1530.2,549.636 1567.89,532.434 1586.67,517.589 1604.49,493.229 1617.19,474.062 1637.73,465.824 1666.14,468.525 1690.26,473.448 1710.26,493.082 1739.64,505.311 1757.05,521.322 1765.91,541.814 1754.06,558.071 1734.48,575.875 1705.35,588.62 1670.97,594.059 1649.42,592.77 1610.48,575.433 1588.83,561.644 1580.02,541.139 1578.95,519.124 1597.72,504.292 1611.38,494.641 1637.86,478.286 1661.86,470.759 1684.88,453.705 1706.23,442.544 1724.28,443.121 1750.72,426.791 1750.57,414.353 1763.21,395.223 1775.19,391.466 1795.54,370.826 1784.23,359.223 1758.33,347.742 1774.57,341.775 1805.38,335.673 1832.09,344.206 1853.57,345.495 1881.11,351.107 1904.58,371.378 1903.94,386.738 1900.67,398.464 1875.1,411.848 1860.84,436.859 1845.76,464.829 1836.73,497.17 1840.36,510.357 1799.11,514.36 1779.56,532.151 1745.21,537.578 1714.44,556.192 1700.1,581.314 1681.32,596.183 1653.7,590.523 1631.19,579.681 1600.96,570.362 1589.65,558.697 1558.5,539.85 1555.88,536.203 1563.37,509.706 1590.83,502.88 1628.62,498.165 1652.74,503.101 1690.68,510.861 1715.8,525.337 1721.2,545.117 1736.95,567.034 1750.76,569.858 1781.84,576.218 1804.36,587.073 1811.28,588.485 1843.02,579.399 1867.03,571.847 1884.11,562.884 1904.84,567.12 1925.75,583.856 1920.85,601.561 1922.04,623.638 1904.48,660.632 1884.09,681.444 1861.03,698.609 1837.33,731.294 1839.31,750.485 1798.91,764.127 1775.65,768.756 1745.63,784.533 1719.87,798.064 1703.67,816.715 1686.63,838.337 1657.53,863.778 1634.23,868.419 1607.34,859.739 1583.09,854.741 1547.59,850.591 1520.74,841.91 1501.51,819.109 1488.41,800.704 1451.92,774.367 1441.45,759.67 1413.71,741.424 1392.11,740.123 1357.65,745.574 1343.82,742.726 1313.56,733.382 1310.81,704.601 1293.55,701.053 1266.83,704.97 1249.63,713.97 1222.12,733.394 1221.27,736.353 1183.33,741.093 1163.5,746.434 1136.73,737.777 1116.85,718.009 1094.38,707.118 1055.58,702.281 1025.39,692.937 1008.15,689.388 985.735,678.51 963.303,655.119 965.891,646.254 976.204,623.343 993.401,601.856 1003.7,578.981 1009.67,545.866 1015.66,525.263 999.302,506.318 982.105,502.794 970.925,491.154 975.206,476.457 1007.86,476.911 1046.54,481.724 1087.77,477.721 1114.4,473.829 1141.84,454.552 1167.51,428.718 1190.62,411.688 1221.5,405.586 1264.44,408.152 1293.7,420.344 1325.57,436.183 1354.86,448.388 1380.72,459.893 1402.3,473.645 1443.62,482.092 1465.21,495.856 1494.66,520.561 1526.74,548.936 1549.21,559.765 1571.71,570.607 1590.74,580.749 1600.14,573.308 1624.99,562.81 1654.96,547.131 1675.51,538.88 1708.07,526.859 1740.77,527.326 1777.91,538.033 1803.22,565.021 1806.01,581.167 1803.05,617.989 1782.8,651.313 1783.94,673.414 1774.03,708.923 1775.34,743.622 1792.97,772.316 1826.13,797.941 1864.07,793.19 1877.94,796.038 1916.06,803.86 1935.42,826.661 1964.37,854.594 1984.77,887.07 1994.76,917.435 1997.62,933.753 2012.13,921.008 2054.64,926.607 2078.97,931.604 2089.61,946.387 2092.27,950.083 2094.12,956.762 2099.66,976.801 2102.32,980.509 2119.72,984.082 2137.92,984.683 2169.82,975.487 2195.22,990.172 2203.23,1001.28 2218.45,1026.49 2216.01,1035.45 2220.07,1020.51 2225.74,999.602 2222.57,970.6 2210.86,946.141 2194.85,923.979 2185.81,903.253 2187.19,884.676 2153.84,858.977 2151.54,827.115 2157.21,806.328 2174.34,797.303 2195.96,798.617 2222.92,807.273 2237.86,819.748 2250.37,841.137 2280.28,866.111 2290.15,883.841 2278.62,912.892 2258.25,933.863 2242.16,952.588 2209.47,964.756 2193.36,983.492 2164.14,996.385 2135.13,1021.95 2118.99,1040.71 2108.98,1063.92 2087.7,1087.97 2070.71,1109.76 2044.08,1126.42 2019.07,1137.09 1984.62,1155.32 1961.44,1172.71 1933.74,1179.68 1901.9,1201.64 1890.8,1215.22 1853.63,1229.76 1839.02,1242.63 1818.42,1263.8 1798.81,1294.72 1794.66,1309.78 1788.83,1330.87 1781.34,1358.01 1808.62,1379.62 1813.11,1390.13 1805.62,1417.3 1798.12,1444.51 1779.8,1443.89 1754.48,1441.84 1730.69,1420.92 1719.91,1393.12 1706.62,1374.41 1680.21,1349.79 1636.39,1321.57 1614.6,1320.24 1578.04,1319.04 1538.95,1326.86 1495.51,1336.99 1477.23,1336.37 1436.23,1324.68 1413.52,1313.58 1391.59,1286.73 1390.48,1251.48 1384.1,1208.81 1363.98,1188.76 1343.88,1168.71 1349.75,1135.02 1346.12,1108.9 1338.16,1085.08 1324.96,1053.86 1305.77,1030.91 1302.15,1004.87 1308.88,968.353 1318.21,935.57 1337.07,907.943 1353.31,876.646 1366.06,844.661 1393.57,825.175 1386.49,798.58 1371.63,773.544 1338.67,747.944 1309.34,748.189 1291.14,735.039 1280.64,707.806 1276.15,672.432 1290.67,647.261 1303.47,628.009 1324.09,619.733 1361.05,605.441 1398.9,600.714 1440.2,596.699 1476.38,597.877 1500.42,590.314 1526.85,561.423 1543.04,542.919 1572.17,530.199 1591.91,524.895 1596.06,510.173 1582.15,494.886 1557.91,477.488 1532.02,465.971 1500.81,434.722 1481.71,412.192 1470.36,388.15 1453.9,369.279 1451.2,353.231 1457.86,329.804 1474.95,320.914 1493.91,330.97 1529.11,335.059 1572.02,337.613 1602.15,346.858 1644.25,352.347 1672.6,355.036 1704.54,370.85 1725.19,375.062 1752.58,368.259 1777.35,357.823 1811.61,352.42 1844.22,352.875 1875.03,346.772 1895.87,363.41 1906.39,377.935 1911.46,372.778 1924.06,353.673 1943.53,335.98 1960.57,327.078 1986.91,310.797 2003.1,304.817 1991.97,305.64 1963.43,290.562 1957.17,273.851 1944.66,240.442 1951.98,214.166 1962.09,203.901 1994.46,191.991 2029.63,196.055 2050.26,200.254 2088.89,205.018 2125.1,218.537 2144.35,240.945 2147.45,269.345 2140.2,295.645 2131.71,300.102 2133.77,319.06 2137.66,344.587 2131.42,380.452 2099,392.423 2080.79,432.107 2054.42,448.437 2032.49,475.008 2026.2,511.02 2003.86,512.666 1962.62,516.681 1925.84,530.936 1896.76,543.668 1881.67,571.725 1869.19,603.464 1870.19,613.017 1897.02,621.636 1929.14,637.573 1969.01,651.988 2002.19,677.527 2024.8,688.406 2067.16,693.956 2099.95,694.422 2141.3,690.395 2165.54,695.368 2191.42,694.41 2202.38,681.039 2219.23,659.515 2236.05,637.991 2232.12,612.243 2229.21,596.073 2218.35,568.937 2187.8,547.131 2170.29,531.12 2145.06,516.631 2096.91,519.234 2080.66,525.251 2053.44,544.577 2037.4,563.081 2007.7,591.272 2007.3,619.254 2012.98,651.62 2016.03,680.364 2034.58,706.038 2046.19,730.312 2061.49,767.896 2075.8,795.891 2106.2,805.272 2137.66,824.266 2165.89,855.171 2182.67,874.325 2198.9,909.085 2204.46,929.099 2202.03,938.038 2167.5,943.526 2126.23,960.225 2105.36,955.927 2092.49,962.73 2069.17,967.383 2044.85,962.374 2009.06,945.552 1981.26,939.83 1943.24,944.607 1894.96,959.869 1862.23,972.037 1825.83,970.846 1779.18,980.153 1746.26,979.674 1705.56,980.754 1677.78,975.033 1639.73,979.797 1608.49,973.363 1573.77,966.204 1532.76,929.369 1512.78,922.1 1471.18,913.53 1439.06,897.458 1410.41,882.11 1376.54,859.395 1355.75,855.122 1326.45,867.965 1299.75,884.492 1269.56,900.331 1227.29,919.976 1192.71,925.452 1168.47,920.455 1135.52,894.744 1119.88,872.619 1099.92,840.167 1073.95,815.942 1064.39,785.675 1060.87,759.829 1063.42,738.379 1047.83,703.815 1026.25,689.978 996.93,677.687 977.954,654.997 969.319,621.931 967.569,602.813 954.653,572.031 965.819,546.222 989.004,516.668 995.874,505.605 1008.75,498.901 1020.77,482.669 1025.89,465.038 1033.58,438.615 1040.41,415.138 1045.5,385.105 1059.15,350.665 1056.55,334.617 1033.36,314.382 1015.34,301.404 986.198,301.649 957.922,311.361 930.5,305.763 895.368,289.285 855.97,275.042 842.273,272.243 818.293,267.343 802.05,248.545 801.24,226.727 817.526,208.407 841.506,188.578 864.619,171.683 915.082,160.362 936.458,149.299 970.65,143.921 999.736,156.028 1027.11,161.602 1064.73,156.924 1098.93,151.558 1115.96,130.366 1132.15,112.096 1145.74,90.2401 "/>
<polyline clip-path="url(#clip582)" style="stroke:#3da44d; stroke-linecap:round; stroke-linejoin:round; stroke-width:4; stroke-opacity:1; fill:none" points="210.508,719.26 226.494,720.136 242.165,720.658 259.013,721.442 277.577,724.802 296.565,724.183 317.441,726.217 340.134,728.696 364.393,730.877 390.01,731.876 416.687,734.508 444.275,737.078 471.58,739.116 498.219,742.234 523.833,746.733 551.166,749.955 579.81,754.678 605.723,761.139 630.828,767.586 655.739,772.724 681.26,778.007 707.095,785.498 734.324,791.186 759.357,796.145 783.355,803.341 809.445,808.633 835.971,813.146 863.167,818.805 889.337,824.155 916.697,831.665 942.514,838.66 967.046,848.054 991.325,856.41 1012.49,863.657 1033.8,869.821 1051.26,878.151 1071,884.659 1091.88,890.296 1114.59,893.477 1138.1,896.983 1163.41,903.817 1187.13,910.93 1211.96,915.183 1238.25,916.63 1267.25,918.714 1295.36,922.561 1323.11,925.664 1350.8,931.817 1378.26,934.641 1407.55,936.118 1436.08,936.57 1464.68,937.762 1492.88,936.563 1518.88,932.744 1545.78,930.439 1570.78,927.405 1595.43,926.029 1619.17,924.536 1643.15,922.486 1664.24,916.414 1685.34,914.093 1704.65,912.79 1725.19,909.092 1746.4,909.106 1767.33,911.594 1786.82,916.433 1809.25,924.506 1828.85,933.519 1845.76,944.564 1861.71,956.553 1876.39,968.609 1888.72,982.287 1900.59,997.203 1910.58,1012.71 1923.16,1025.38 1934.59,1036.55 1950.65,1044.29 1966.23,1050.74 1980.89,1054.14 1996.29,1054.16 2011.57,1052.06 2023.96,1043.09 2032.69,1030.51 2039.71,1015.84 2043.59,999.016 2045.27,982.042 2040.82,967.648 2028.29,955.272 2011.63,946.858 1992.3,941.854 1971.44,937.207 1950.44,933.537 1928.96,932.378 1908.7,931.742 1887.63,931.987 1867.6,934.225 1847.73,935.781 1826.55,936.982 1803.45,935.918 1779.6,934.357 1755.8,929.531 1732.37,923.16 1709.11,914.518 1684.39,904.283 1664.21,887.655 1645.76,870.878 1626.58,855.543 1610.54,840.084 1596.27,826.155 1584.66,811.286 1576.26,794.291 1573.99,779.438 1579.47,766.136 1586.96,752.481 1598.95,742.781 1615.07,735.845 1633.75,734.818 1653.24,739.281 1672.67,745.407 1691.42,752.423 1712.01,760.106 1731.89,767.874 1750.06,774.638 1767.62,781.91 1786.27,790.559 1804.84,798.195 1826.53,802.514 1848.17,805.913 1868,807.83 1886.6,809.399 1904.04,811.078 1920.8,815.554 1937.84,820.759 1954.99,830.475 1969.77,842.487 1980.26,858.176 1989.93,875.662 1996.12,894.135 2002,913.091 2006.8,929.507 2013.65,944.692 2019.29,959.87 2028.36,973.126 2034.36,986.129 2046.54,997.751 2059.03,1004.91 2074.01,1006.28 2090.08,1004.03 2101.74,995.76 2110.5,986.45 2113.42,975.634 2118.69,964.581 2118.87,951.663 2113.72,939.429 2103.74,927.053 2087.91,917.26 2069.56,905.593 2048.76,897.341 2026.78,892.338 2005.22,887.599 1983.94,883.205 1962.8,877.455 1943.85,871.951 1925.43,868.47 1906.3,864.752 1885.13,860.062 1862.94,855.987 1842.76,850.573 1822.66,846.089 1802.01,844.581 1780.18,840.465 1759.84,838.964 1737.99,838.101 1715.83,837.627 1693.49,837.598 1671.86,838.002 1653.02,839.651 1654.5,839.111 1647.84,831.543 1641.17,831.407 1627.8,838.115 1610.35,834.948 1595.37,828.675 1570.54,819.494 1554.48,833.627 1540.52,844.663 1524.46,850.458 1523.23,859.273 1540.57,866.544 1550.54,855.785 1580.03,853.435 1591.42,841.083 1611.44,836.388 1612.46,816.746 1599.68,793.4 1591.96,774.93 1594.28,751.536 1573.87,740.861 1550.87,737.418 1529.38,741.316 1503.88,742.485 1481.63,736.325 1471.71,719.268 1475.85,701.057 1480.82,679.526 1479.98,660.276 1487.59,640.42 1497.95,616.776 1505.95,598.132 1487.67,579.136 1457.95,577.523 1462.04,569.167 1470.18,557.825 1497.56,554.754 1531.31,555.488 1562.68,542.663 1578.91,517.147 1598.24,496.605 1615.69,475.432 1636.07,456.367 1666.83,461.321 1692.45,470.766 1709.86,492.16 1733.3,506.647 1758.45,519.546 1773.53,542.251 1748.06,560.581 1730.68,579.595 1703.79,589.829 1672.22,594.721 1639.69,587.554 1614.98,575.37 1589.51,561.936 1574.37,541.804 1577.09,516.395 1597.79,500.61 1620.27,492.358 1645.24,484.953 1658.09,467.528 1685,462.363 1704.67,451.74 1724.54,442.84 1744.17,433.021 1746.77,413.465 1755.8,396.035 1776.89,389.028 1790.34,378.202 1781.12,362.767 1765.64,352.467 1766,344.649 1782.57,336.619 1802.25,337.362 1827.43,337.925 1850.03,347.83 1874.8,354.2 1897.31,367.201 1907.52,385.321 1895.17,405.248 1876.29,420.076 1866.57,441.071 1852.54,463.554 1846.59,489.035 1826.94,509.494 1800.64,522.869 1772.28,536.552 1741.84,541.022 1715.35,554.151 1708.75,579.225 1688.69,595.094 1661.6,590.177 1635.22,578.145 1612,567.095 1586.42,560.726 1562.19,550.77 1555.2,527.284 1568.39,506.938 1596.27,501.734 1625.83,501.708 1656.92,505.907 1688.79,507.134 1714.07,518.974 1716.58,543.271 1738.44,561.815 1759.72,576.823 1782.11,578.583 1799.79,581.088 1821.19,585.114 1840.87,576.908 1865.83,568.464 1888.52,566.882 1912.44,569.901 1926.78,587.929 1926.74,607.278 1915.69,627.256 1899.99,652.274 1877.5,675.458 1865.27,697.918 1845.43,723.958 1838.52,752.27 1808.2,765.205 1774.93,767.849 1746.35,783.734 1728.13,806.816 1697.75,819.135 1683.48,843.223 1671.21,871.039 1635.73,873.316 1602.54,871.907 1576.67,864.469 1545.44,852.953 1518.12,847.633 1500.93,825.112 1487.32,799.154 1463.1,783.333 1443.94,763.938 1424.54,743.94 1395.36,738.203 1362.17,742.851 1332.49,746.682 1310.4,733.187 1315.27,712.383 1298.83,695.762 1273.68,706.865 1251.88,715.446 1235.53,732.047 1215.03,732.107 1190.34,736.219 1160.75,741.664 1141.13,728.219 1118.64,713.162 1090.83,713.903 1060.96,708.42 1031.94,699.748 1007.27,686.682 983.815,671.712 965.614,667.709 968.214,646.715 974.632,624.855 993.797,606.629 1002.93,579.328 1007.21,552.908 1017.85,530.881 1006.26,511.194 979.338,510.751 965.803,493.151 988.722,484.065 1017.52,479.891 1052.84,484.225 1085.76,491.435 1118.34,482.422 1144.47,462.315 1173.13,438.369 1199.89,413.804 1225.27,394.75 1254.99,402.739 1282.67,421.364 1320.52,428.919 1354.82,436.261 1385.9,453.197 1408.46,473.011 1445.79,480.614 1470.8,497.175 1503.2,512.771 1513.36,541.448 1537.39,562.569 1565.98,565.438 1585.31,584.844 1600.54,564.247 1625.06,558.114 1647.94,545.566 1676.46,537.118 1706.87,527.236 1740.04,529.503 1770.47,537.86 1794.41,558.478 1810.57,586.596 1801,616.455 1783.71,646.636 1787.57,677.285 1779.73,709.643 1776.27,744.678 1794.63,771.186 1822.48,791.28 1858.29,786.47 1892.91,785.318 1922.26,806.287 1942.94,831.625 1963.39,856.399 1982.11,879.568 1986.93,907.368 1995.71,929.399 2019.03,917.518 2047.28,922.228 2073.49,927.93 2086.12,939.695 2100.7,947.897 2087.26,957.054 2092.58,973.786 2106.43,987.507 2125.26,988.041 2145.59,985.509 2167.76,981.015 2187.03,987.725 2200.54,1003 2211.58,1021.24 2220.72,1032.85 2225.32,1011.65 2229.74,990.438 2217.93,969.821 2204.95,947.708 2192.77,922.679 2184.06,897.763 2178.88,875.189 2159.66,854.213 2149.92,831.777 2152.66,808.452 2171.87,797.686 2197.98,800.192 2221.38,804.985 2239.46,825.315 2257.99,846.348 2278.13,865.513 2284.57,889.036 2278.49,912.057 2263.21,933.251 2247.75,957.267 2218.98,967.778 2189.72,982.378 2158.1,998.993 2127.98,1014 2114.56,1041.93 2107.98,1069.74 2086.41,1087.02 2065.29,1107.41 2043.07,1128.6 2017.64,1141.12 1988.2,1152.5 1963.33,1167.99 1931.21,1175.15 1907.66,1196.23 1885.7,1214.63 1858.5,1228.2 1834.61,1244.41 1811.27,1262.55 1804.34,1286.62 1798.09,1307.52 1794.36,1330.82 1789.79,1353.72 1806.11,1373.65 1815.64,1392.93 1816.78,1417.62 1802.67,1437.88 1776.3,1445.72 1748.16,1436.25 1730.33,1418.19 1717.25,1392.74 1700.41,1369.32 1674.8,1351.37 1647.75,1330.51 1614.48,1318.76 1577.86,1321.7 1539.76,1332 1504.26,1335.37 1468.35,1339.47 1433.77,1330.47 1410.11,1307.56 1386.24,1283.21 1388.93,1251.11 1385.99,1218.22 1362.77,1193.3 1344.41,1165.74 1344.9,1136.52 1349.62,1107.56 1336.99,1080.71 1323.18,1055.3 1308.66,1029.89 1299.9,1000.11 1303.32,969.592 1320.62,940.47 1342.21,913.391 1348.5,880.752 1363.74,850.861 1391.42,829.363 1390.89,796.888 1371.43,770.419 1337.52,755.727 1305.2,755.62 1283.78,733.739 1270.72,704.644 1269.06,674.397 1288.84,653.193 1308.29,634.521 1332.31,622.573 1360.58,609.353 1394.91,602.158 1431.09,605.556 1469.63,600.931 1492.35,581.891 1515.32,562.838 1540.6,549.4 1566.54,535.993 1594.41,527.153 1604.57,502.424 1581.4,487.65 1555.6,473.832 1527.84,459.128 1504.94,438.44 1485.02,415.723 1469.31,391.732 1455.61,371.467 1451.98,357.91 1454.68,335.987 1474.42,330.159 1503.83,334.549 1537.33,339.34 1569.26,338.198 1602.23,346.86 1636.39,355.768 1669.24,359.19 1695.84,372.11 1725.75,378.501 1754.08,372.776 1781.95,360.578 1810.11,356.595 1836.79,345.176 1868.51,344.642 1890.1,365.472 1894.11,390.664 1905.22,372.487 1921.67,356.122 1941.85,335.488 1960.15,325.963 1980.62,316.03 1998.16,309.719 1981.7,302.128 1962.57,289.247 1944.6,270.586 1943.51,246.118 1946.86,221 1966.16,201.575 1996.08,195.266 2027.73,197.819 2057.19,202.708 2089.17,207.063 2123.98,213.974 2141.98,239.613 2146.69,265.729 2141.96,290.566 2137.94,301.663 2130.18,324.856 2138.63,351.973 2130.89,380.477 2101.5,395.222 2080.65,420.602 2057.71,445.807 2044.63,476.787 2036.64,508.438 1999.11,509.686 1964.12,515.962 1928.54,528.612 1898.29,545.566 1880.25,571.107 1862.58,594.225 1871.17,621.103 1904.58,619.911 1935.6,629.619 1969.09,644.953 1993.15,669.967 2021.03,692.309 2056.66,695.571 2091.79,695.921 2123.44,700.559 2154.65,699.862 2181.87,691.463 2197.76,671.773 2220.81,661.201 2241.14,639.681 2236.53,613.064 2223.05,591.123 2213.12,566.127 2190.96,545.932 2170.67,530.186 2142.39,515.23 2107.53,515.338 2075.94,522.614 2052.6,542.879 2030.24,565.084 2010.12,590.032 2002.42,619.075 2011.47,648.825 2022.56,676.281 2033.57,704.157 2043.68,733.275 2052.67,763.891 2068.49,795.012 2109.48,801.289 2139.85,823.257 2162.61,849.649 2179.01,874.649 2200.69,898.196 2212.86,919.676 2198.19,941.499 2168.9,946.453 2140.89,951.597 2117.46,958.264 2091.89,962.812 2065.81,971.928 2039.59,961.932 2009.55,950.387 1974.58,945.039 1939.39,944.496 1904.17,959.887 1868.91,969.89 1829.21,971.654 1789.07,976.922 1748.7,980.274 1711.88,982.349 1676.46,975.447 1640.73,981.533 1606.88,972.92 1574.09,960.621 1545.22,938.016 1512.07,924.369 1476.48,913.833 1440.58,900.971 1409.81,881.061 1384.8,859.917 1353.11,849.57 1320.74,865.832 1297.83,887.688 1262.7,899.792 1232.74,919.919 1195.65,926.16 1159.47,919.46 1135.4,895.605 1126.05,866.111 1101.28,842.396 1074.11,819.264 1061.03,789.028 1065.4,760.193 1068.85,733.89 1053.27,708.726 1030.64,688.707 1004.09,674.362 983.504,651.553 963.748,626.844 964.141,602.001 956.296,575.938 964.872,549.779 982.34,527.326 995.131,508.557 1014.3,502.611 1023.51,489.232 1027.13,465.113 1040.1,440.144 1041.28,412.753 1050.97,385.015 1063.84,360.355 1061.19,334.676 1042.82,314.519 1014.1,308.591 986.946,307.37 959.028,312.045 929.914,303.007 899.959,292.518 869.784,283.597 839.06,283.411 812.484,271.553 799.379,250.391 798.51,222.086 812.605,199.953 842.967,182.633 872.862,166.586 905.839,161.421 938.292,151.153 970.922,147.669 999.941,155.611 1029.41,163.599 1059.17,157.295 1091.43,154.346 1113.71,135.07 1128.57,111.016 1137.67,87.9763 "/>
<path clip-path="url(#clip580)" d="M214.252 1438.47 L760.776 1438.47 L760.776 1231.11 L214.252 1231.11  Z" fill="#ffffff" fill-rule="evenodd" fill-opacity="1"/>
<polyline clip-path="url(#clip580)" style="stroke:#000000; stroke-linecap:round; stroke-linejoin:round; stroke-width:4; stroke-opacity:1; fill:none" points="214.252,1438.47 760.776,1438.47 760.776,1231.11 214.252,1231.11 214.252,1438.47 "/>
<polyline clip-path="url(#clip580)" style="stroke:#0000ff; stroke-linecap:round; stroke-linejoin:round; stroke-width:4; stroke-opacity:1; fill:none" points="238.832,1282.95 386.315,1282.95 "/>
<path clip-path="url(#clip580)" d="M434.924 1286.21 L434.924 1288.29 L415.34 1288.29 Q415.618 1292.69 417.979 1295 Q420.363 1297.29 424.6 1297.29 Q427.053 1297.29 429.345 1296.69 Q431.66 1296.09 433.928 1294.89 L433.928 1298.91 Q431.637 1299.89 429.229 1300.4 Q426.822 1300.91 424.345 1300.91 Q418.141 1300.91 414.507 1297.29 Q410.896 1293.68 410.896 1287.53 Q410.896 1281.16 414.322 1277.43 Q417.771 1273.68 423.604 1273.68 Q428.836 1273.68 431.868 1277.06 Q434.924 1280.42 434.924 1286.21 M430.664 1284.96 Q430.618 1281.46 428.697 1279.38 Q426.799 1277.29 423.65 1277.29 Q420.086 1277.29 417.933 1279.31 Q415.803 1281.32 415.479 1284.98 L430.664 1284.96 Z" fill="#000000" fill-rule="nonzero" fill-opacity="1" /><path clip-path="url(#clip580)" d="M458.442 1275.07 L458.442 1279.1 Q456.636 1278.17 454.692 1277.71 Q452.748 1277.25 450.664 1277.25 Q447.493 1277.25 445.896 1278.22 Q444.322 1279.19 444.322 1281.14 Q444.322 1282.62 445.456 1283.48 Q446.59 1284.31 450.016 1285.07 L451.474 1285.4 Q456.011 1286.37 457.91 1288.15 Q459.831 1289.91 459.831 1293.08 Q459.831 1296.69 456.96 1298.8 Q454.113 1300.91 449.113 1300.91 Q447.03 1300.91 444.761 1300.49 Q442.516 1300.1 440.016 1299.29 L440.016 1294.89 Q442.377 1296.11 444.669 1296.74 Q446.961 1297.34 449.206 1297.34 Q452.215 1297.34 453.836 1296.32 Q455.456 1295.28 455.456 1293.41 Q455.456 1291.67 454.275 1290.74 Q453.118 1289.82 449.16 1288.96 L447.678 1288.61 Q443.72 1287.78 441.961 1286.07 Q440.201 1284.33 440.201 1281.32 Q440.201 1277.67 442.794 1275.67 Q445.386 1273.68 450.155 1273.68 Q452.516 1273.68 454.599 1274.03 Q456.683 1274.38 458.442 1275.07 Z" fill="#000000" fill-rule="nonzero" fill-opacity="1" /><path clip-path="url(#clip580)" d="M470.826 1266.95 L470.826 1274.31 L479.599 1274.31 L479.599 1277.62 L470.826 1277.62 L470.826 1291.69 Q470.826 1294.86 471.683 1295.77 Q472.562 1296.67 475.224 1296.67 L479.599 1296.67 L479.599 1300.23 L475.224 1300.23 Q470.294 1300.23 468.419 1298.41 Q466.544 1296.55 466.544 1291.69 L466.544 1277.62 L463.419 1277.62 L463.419 1274.31 L466.544 1274.31 L466.544 1266.95 L470.826 1266.95 Z" fill="#000000" fill-rule="nonzero" fill-opacity="1" /><path clip-path="url(#clip580)" d="M485.201 1274.31 L489.46 1274.31 L489.46 1300.23 L485.201 1300.23 L485.201 1274.31 M485.201 1264.22 L489.46 1264.22 L489.46 1269.61 L485.201 1269.61 L485.201 1264.22 Z" fill="#000000" fill-rule="nonzero" fill-opacity="1" /><path clip-path="url(#clip580)" d="M518.557 1279.29 Q520.155 1276.42 522.377 1275.05 Q524.599 1273.68 527.608 1273.68 Q531.659 1273.68 533.858 1276.53 Q536.057 1279.35 536.057 1284.59 L536.057 1300.23 L531.775 1300.23 L531.775 1284.73 Q531.775 1281 530.455 1279.19 Q529.136 1277.39 526.428 1277.39 Q523.118 1277.39 521.196 1279.59 Q519.275 1281.79 519.275 1285.58 L519.275 1300.23 L514.993 1300.23 L514.993 1284.73 Q514.993 1280.98 513.673 1279.19 Q512.354 1277.39 509.599 1277.39 Q506.335 1277.39 504.414 1279.61 Q502.493 1281.81 502.493 1285.58 L502.493 1300.23 L498.21 1300.23 L498.21 1274.31 L502.493 1274.31 L502.493 1278.34 Q503.951 1275.95 505.988 1274.82 Q508.025 1273.68 510.826 1273.68 Q513.65 1273.68 515.618 1275.12 Q517.608 1276.55 518.557 1279.29 Z" fill="#000000" fill-rule="nonzero" fill-opacity="1" /><path clip-path="url(#clip580)" d="M556.335 1287.2 Q551.173 1287.2 549.182 1288.38 Q547.191 1289.56 547.191 1292.41 Q547.191 1294.68 548.673 1296.02 Q550.178 1297.34 552.747 1297.34 Q556.289 1297.34 558.418 1294.84 Q560.571 1292.32 560.571 1288.15 L560.571 1287.2 L556.335 1287.2 M564.83 1285.44 L564.83 1300.23 L560.571 1300.23 L560.571 1296.3 Q559.113 1298.66 556.937 1299.79 Q554.761 1300.91 551.613 1300.91 Q547.631 1300.91 545.27 1298.68 Q542.932 1296.44 542.932 1292.69 Q542.932 1288.31 545.849 1286.09 Q548.789 1283.87 554.599 1283.87 L560.571 1283.87 L560.571 1283.45 Q560.571 1280.51 558.627 1278.92 Q556.705 1277.29 553.21 1277.29 Q550.988 1277.29 548.881 1277.83 Q546.775 1278.36 544.83 1279.42 L544.83 1275.49 Q547.168 1274.59 549.367 1274.15 Q551.566 1273.68 553.65 1273.68 Q559.275 1273.68 562.053 1276.6 Q564.83 1279.52 564.83 1285.44 Z" fill="#000000" fill-rule="nonzero" fill-opacity="1" /><path clip-path="url(#clip580)" d="M577.816 1266.95 L577.816 1274.31 L586.589 1274.31 L586.589 1277.62 L577.816 1277.62 L577.816 1291.69 Q577.816 1294.86 578.673 1295.77 Q579.552 1296.67 582.214 1296.67 L586.589 1296.67 L586.589 1300.23 L582.214 1300.23 Q577.284 1300.23 575.409 1298.41 Q573.534 1296.55 573.534 1291.69 L573.534 1277.62 L570.409 1277.62 L570.409 1274.31 L573.534 1274.31 L573.534 1266.95 L577.816 1266.95 Z" fill="#000000" fill-rule="nonzero" fill-opacity="1" /><path clip-path="url(#clip580)" d="M614.367 1286.21 L614.367 1288.29 L594.784 1288.29 Q595.062 1292.69 597.423 1295 Q599.807 1297.29 604.043 1297.29 Q606.497 1297.29 608.788 1296.69 Q611.103 1296.09 613.372 1294.89 L613.372 1298.91 Q611.08 1299.89 608.673 1300.4 Q606.265 1300.91 603.788 1300.91 Q597.585 1300.91 593.95 1297.29 Q590.339 1293.68 590.339 1287.53 Q590.339 1281.16 593.765 1277.43 Q597.214 1273.68 603.048 1273.68 Q608.279 1273.68 611.312 1277.06 Q614.367 1280.42 614.367 1286.21 M610.108 1284.96 Q610.062 1281.46 608.14 1279.38 Q606.242 1277.29 603.094 1277.29 Q599.529 1277.29 597.376 1279.31 Q595.247 1281.32 594.923 1284.98 L610.108 1284.96 Z" fill="#000000" fill-rule="nonzero" fill-opacity="1" /><polyline clip-path="url(#clip580)" style="stroke:#ff0000; stroke-linecap:round; stroke-linejoin:round; stroke-width:4; stroke-opacity:1; fill:none" points="238.832,1334.79 386.315,1334.79 "/>
<path clip-path="url(#clip580)" d="M431.243 1331.13 Q432.84 1328.26 435.062 1326.89 Q437.285 1325.52 440.294 1325.52 Q444.345 1325.52 446.544 1328.37 Q448.743 1331.19 448.743 1336.43 L448.743 1352.07 L444.461 1352.07 L444.461 1336.57 Q444.461 1332.84 443.141 1331.03 Q441.822 1329.23 439.113 1329.23 Q435.803 1329.23 433.882 1331.43 Q431.961 1333.63 431.961 1337.42 L431.961 1352.07 L427.678 1352.07 L427.678 1336.57 Q427.678 1332.82 426.359 1331.03 Q425.039 1329.23 422.285 1329.23 Q419.021 1329.23 417.1 1331.45 Q415.178 1333.65 415.178 1337.42 L415.178 1352.07 L410.896 1352.07 L410.896 1326.15 L415.178 1326.15 L415.178 1330.18 Q416.637 1327.79 418.674 1326.66 Q420.711 1325.52 423.512 1325.52 Q426.336 1325.52 428.303 1326.96 Q430.294 1328.39 431.243 1331.13 Z" fill="#000000" fill-rule="nonzero" fill-opacity="1" /><path clip-path="url(#clip580)" d="M479.414 1338.05 L479.414 1340.13 L459.831 1340.13 Q460.109 1344.53 462.47 1346.84 Q464.854 1349.13 469.09 1349.13 Q471.544 1349.13 473.835 1348.53 Q476.15 1347.93 478.419 1346.73 L478.419 1350.75 Q476.127 1351.73 473.72 1352.24 Q471.312 1352.75 468.835 1352.75 Q462.632 1352.75 458.998 1349.13 Q455.386 1345.52 455.386 1339.37 Q455.386 1333 458.812 1329.27 Q462.261 1325.52 468.095 1325.52 Q473.326 1325.52 476.359 1328.9 Q479.414 1332.26 479.414 1338.05 M475.155 1336.8 Q475.109 1333.3 473.187 1331.22 Q471.289 1329.13 468.141 1329.13 Q464.576 1329.13 462.423 1331.15 Q460.294 1333.16 459.97 1336.82 L475.155 1336.8 Z" fill="#000000" fill-rule="nonzero" fill-opacity="1" /><path clip-path="url(#clip580)" d="M498.187 1339.04 Q493.025 1339.04 491.034 1340.22 Q489.044 1341.4 489.044 1344.25 Q489.044 1346.52 490.525 1347.86 Q492.03 1349.18 494.599 1349.18 Q498.141 1349.18 500.27 1346.68 Q502.423 1344.16 502.423 1339.99 L502.423 1339.04 L498.187 1339.04 M506.682 1337.28 L506.682 1352.07 L502.423 1352.07 L502.423 1348.14 Q500.965 1350.5 498.789 1351.63 Q496.613 1352.75 493.465 1352.75 Q489.483 1352.75 487.122 1350.52 Q484.784 1348.28 484.784 1344.53 Q484.784 1340.15 487.701 1337.93 Q490.641 1335.71 496.451 1335.71 L502.423 1335.71 L502.423 1335.29 Q502.423 1332.35 500.479 1330.76 Q498.557 1329.13 495.062 1329.13 Q492.84 1329.13 490.733 1329.67 Q488.627 1330.2 486.683 1331.26 L486.683 1327.33 Q489.021 1326.43 491.22 1325.99 Q493.419 1325.52 495.502 1325.52 Q501.127 1325.52 503.905 1328.44 Q506.682 1331.36 506.682 1337.28 Z" fill="#000000" fill-rule="nonzero" fill-opacity="1" /><path clip-path="url(#clip580)" d="M531.983 1326.91 L531.983 1330.94 Q530.178 1330.01 528.233 1329.55 Q526.289 1329.09 524.206 1329.09 Q521.034 1329.09 519.437 1330.06 Q517.863 1331.03 517.863 1332.98 Q517.863 1334.46 518.997 1335.32 Q520.131 1336.15 523.557 1336.91 L525.016 1337.24 Q529.553 1338.21 531.451 1339.99 Q533.372 1341.75 533.372 1344.92 Q533.372 1348.53 530.502 1350.64 Q527.655 1352.75 522.655 1352.75 Q520.571 1352.75 518.303 1352.33 Q516.057 1351.94 513.557 1351.13 L513.557 1346.73 Q515.919 1347.95 518.21 1348.58 Q520.502 1349.18 522.747 1349.18 Q525.756 1349.18 527.377 1348.16 Q528.997 1347.12 528.997 1345.25 Q528.997 1343.51 527.817 1342.58 Q526.659 1341.66 522.701 1340.8 L521.219 1340.45 Q517.261 1339.62 515.502 1337.91 Q513.743 1336.17 513.743 1333.16 Q513.743 1329.51 516.335 1327.51 Q518.928 1325.52 523.696 1325.52 Q526.057 1325.52 528.141 1325.87 Q530.224 1326.22 531.983 1326.91 Z" fill="#000000" fill-rule="nonzero" fill-opacity="1" /><path clip-path="url(#clip580)" d="M539.715 1341.84 L539.715 1326.15 L543.974 1326.15 L543.974 1341.68 Q543.974 1345.36 545.409 1347.21 Q546.844 1349.04 549.715 1349.04 Q553.164 1349.04 555.154 1346.84 Q557.168 1344.64 557.168 1340.85 L557.168 1326.15 L561.428 1326.15 L561.428 1352.07 L557.168 1352.07 L557.168 1348.09 Q555.617 1350.45 553.557 1351.61 Q551.52 1352.75 548.812 1352.75 Q544.344 1352.75 542.029 1349.97 Q539.715 1347.19 539.715 1341.84 M550.432 1325.52 L550.432 1325.52 Z" fill="#000000" fill-rule="nonzero" fill-opacity="1" /><path clip-path="url(#clip580)" d="M585.224 1330.13 Q584.506 1329.71 583.65 1329.53 Q582.816 1329.32 581.798 1329.32 Q578.187 1329.32 576.242 1331.68 Q574.321 1334.02 574.321 1338.42 L574.321 1352.07 L570.039 1352.07 L570.039 1326.15 L574.321 1326.15 L574.321 1330.18 Q575.664 1327.82 577.816 1326.68 Q579.969 1325.52 583.048 1325.52 Q583.488 1325.52 584.02 1325.59 Q584.552 1325.64 585.201 1325.76 L585.224 1330.13 Z" fill="#000000" fill-rule="nonzero" fill-opacity="1" /><path clip-path="url(#clip580)" d="M610.825 1338.05 L610.825 1340.13 L591.242 1340.13 Q591.52 1344.53 593.881 1346.84 Q596.265 1349.13 600.501 1349.13 Q602.955 1349.13 605.247 1348.53 Q607.562 1347.93 609.83 1346.73 L609.83 1350.75 Q607.538 1351.73 605.131 1352.24 Q602.724 1352.75 600.247 1352.75 Q594.043 1352.75 590.409 1349.13 Q586.798 1345.52 586.798 1339.37 Q586.798 1333 590.224 1329.27 Q593.673 1325.52 599.506 1325.52 Q604.737 1325.52 607.77 1328.9 Q610.825 1332.26 610.825 1338.05 M606.566 1336.8 Q606.52 1333.3 604.599 1331.22 Q602.7 1329.13 599.552 1329.13 Q595.988 1329.13 593.835 1331.15 Q591.705 1333.16 591.381 1336.82 L606.566 1336.8 Z" fill="#000000" fill-rule="nonzero" fill-opacity="1" /><path clip-path="url(#clip580)" d="M638.001 1331.13 Q639.598 1328.26 641.821 1326.89 Q644.043 1325.52 647.052 1325.52 Q651.103 1325.52 653.302 1328.37 Q655.501 1331.19 655.501 1336.43 L655.501 1352.07 L651.219 1352.07 L651.219 1336.57 Q651.219 1332.84 649.899 1331.03 Q648.58 1329.23 645.872 1329.23 Q642.561 1329.23 640.64 1331.43 Q638.719 1333.63 638.719 1337.42 L638.719 1352.07 L634.436 1352.07 L634.436 1336.57 Q634.436 1332.82 633.117 1331.03 Q631.798 1329.23 629.043 1329.23 Q625.779 1329.23 623.858 1331.45 Q621.936 1333.65 621.936 1337.42 L621.936 1352.07 L617.654 1352.07 L617.654 1326.15 L621.936 1326.15 L621.936 1330.18 Q623.395 1327.79 625.432 1326.66 Q627.469 1325.52 630.27 1325.52 Q633.094 1325.52 635.061 1326.96 Q637.052 1328.39 638.001 1331.13 Z" fill="#000000" fill-rule="nonzero" fill-opacity="1" /><path clip-path="url(#clip580)" d="M686.172 1338.05 L686.172 1340.13 L666.589 1340.13 Q666.867 1344.53 669.228 1346.84 Q671.612 1349.13 675.848 1349.13 Q678.302 1349.13 680.594 1348.53 Q682.908 1347.93 685.177 1346.73 L685.177 1350.75 Q682.885 1351.73 680.478 1352.24 Q678.07 1352.75 675.594 1352.75 Q669.39 1352.75 665.756 1349.13 Q662.145 1345.52 662.145 1339.37 Q662.145 1333 665.57 1329.27 Q669.02 1325.52 674.853 1325.52 Q680.084 1325.52 683.117 1328.9 Q686.172 1332.26 686.172 1338.05 M681.913 1336.8 Q681.867 1333.3 679.945 1331.22 Q678.047 1329.13 674.899 1329.13 Q671.334 1329.13 669.182 1331.15 Q667.052 1333.16 666.728 1336.82 L681.913 1336.8 Z" fill="#000000" fill-rule="nonzero" fill-opacity="1" /><path clip-path="url(#clip580)" d="M714.714 1336.43 L714.714 1352.07 L710.455 1352.07 L710.455 1336.57 Q710.455 1332.88 709.019 1331.06 Q707.584 1329.23 704.714 1329.23 Q701.265 1329.23 699.274 1331.43 Q697.283 1333.63 697.283 1337.42 L697.283 1352.07 L693.001 1352.07 L693.001 1326.15 L697.283 1326.15 L697.283 1330.18 Q698.811 1327.84 700.871 1326.68 Q702.955 1325.52 705.663 1325.52 Q710.13 1325.52 712.422 1328.3 Q714.714 1331.06 714.714 1336.43 Z" fill="#000000" fill-rule="nonzero" fill-opacity="1" /><path clip-path="url(#clip580)" d="M727.422 1318.79 L727.422 1326.15 L736.195 1326.15 L736.195 1329.46 L727.422 1329.46 L727.422 1343.53 Q727.422 1346.7 728.278 1347.61 Q729.158 1348.51 731.82 1348.51 L736.195 1348.51 L736.195 1352.07 L731.82 1352.07 Q726.89 1352.07 725.015 1350.25 Q723.14 1348.39 723.14 1343.53 L723.14 1329.46 L720.015 1329.46 L720.015 1326.15 L723.14 1326.15 L723.14 1318.79 L727.422 1318.79 Z" fill="#000000" fill-rule="nonzero" fill-opacity="1" /><polyline clip-path="url(#clip580)" style="stroke:#3da44d; stroke-linecap:round; stroke-linejoin:round; stroke-width:4; stroke-opacity:1; fill:none" points="238.832,1386.63 386.315,1386.63 "/>
<path clip-path="url(#clip580)" d="M435.549 1377.99 L426.174 1390.6 L436.035 1403.91 L431.012 1403.91 L423.465 1393.73 L415.919 1403.91 L410.896 1403.91 L420.965 1390.35 L411.752 1377.99 L416.776 1377.99 L423.65 1387.22 L430.525 1377.99 L435.549 1377.99 Z" fill="#000000" fill-rule="nonzero" fill-opacity="1" /><path clip-path="url(#clip580)" d="M458.581 1378.75 L458.581 1382.78 Q456.775 1381.85 454.831 1381.39 Q452.886 1380.93 450.803 1380.93 Q447.632 1380.93 446.035 1381.9 Q444.461 1382.87 444.461 1384.82 Q444.461 1386.3 445.595 1387.16 Q446.729 1387.99 450.155 1388.75 L451.613 1389.08 Q456.15 1390.05 458.048 1391.83 Q459.97 1393.59 459.97 1396.76 Q459.97 1400.37 457.099 1402.48 Q454.252 1404.59 449.252 1404.59 Q447.169 1404.59 444.9 1404.17 Q442.655 1403.78 440.155 1402.97 L440.155 1398.57 Q442.516 1399.79 444.808 1400.42 Q447.099 1401.02 449.345 1401.02 Q452.354 1401.02 453.974 1400 Q455.595 1398.96 455.595 1397.09 Q455.595 1395.35 454.414 1394.42 Q453.257 1393.5 449.298 1392.64 L447.817 1392.29 Q443.859 1391.46 442.099 1389.75 Q440.34 1388.01 440.34 1385 Q440.34 1381.35 442.933 1379.35 Q445.525 1377.36 450.294 1377.36 Q452.655 1377.36 454.738 1377.71 Q456.822 1378.06 458.581 1378.75 Z" fill="#000000" fill-rule="nonzero" fill-opacity="1" /></svg>
