<?xml version="1.0" encoding="utf-8"?>
<svg xmlns="http://www.w3.org/2000/svg" xmlns:xlink="http://www.w3.org/1999/xlink" width="600" height="400" viewBox="0 0 2400 1600">
<defs>
  <clipPath id="clip550">
    <rect x="0" y="0" width="2400" height="1600"/>
  </clipPath>
</defs>
<path clip-path="url(#clip550)" d="M0 1600 L2400 1600 L2400 0 L0 0  Z" fill="#ffffff" fill-rule="evenodd" fill-opacity="1"/>
<defs>
  <clipPath id="clip551">
    <rect x="480" y="0" width="1681" height="1600"/>
  </clipPath>
</defs>
<path clip-path="url(#clip550)" d="M140.51 1486.45 L2352.76 1486.45 L2352.76 47.2441 L140.51 47.2441  Z" fill="#ffffff" fill-rule="evenodd" fill-opacity="1"/>
<defs>
  <clipPath id="clip552">
    <rect x="140" y="47" width="2213" height="1440"/>
  </clipPath>
</defs>
<polyline clip-path="url(#clip552)" style="stroke:#000000; stroke-linecap:round; stroke-linejoin:round; stroke-width:2; stroke-opacity:0.1; fill:none" points="352.398,1486.45 352.398,47.2441 "/>
<polyline clip-path="url(#clip552)" style="stroke:#000000; stroke-linecap:round; stroke-linejoin:round; stroke-width:2; stroke-opacity:0.1; fill:none" points="786.3,1486.45 786.3,47.2441 "/>
<polyline clip-path="url(#clip552)" style="stroke:#000000; stroke-linecap:round; stroke-linejoin:round; stroke-width:2; stroke-opacity:0.1; fill:none" points="1220.2,1486.45 1220.2,47.2441 "/>
<polyline clip-path="url(#clip552)" style="stroke:#000000; stroke-linecap:round; stroke-linejoin:round; stroke-width:2; stroke-opacity:0.1; fill:none" points="1654.1,1486.45 1654.1,47.2441 "/>
<polyline clip-path="url(#clip552)" style="stroke:#000000; stroke-linecap:round; stroke-linejoin:round; stroke-width:2; stroke-opacity:0.1; fill:none" points="2088,1486.45 2088,47.2441 "/>
<polyline clip-path="url(#clip552)" style="stroke:#000000; stroke-linecap:round; stroke-linejoin:round; stroke-width:2; stroke-opacity:0.1; fill:none" points="140.51,1179.78 2352.76,1179.78 "/>
<polyline clip-path="url(#clip552)" style="stroke:#000000; stroke-linecap:round; stroke-linejoin:round; stroke-width:2; stroke-opacity:0.1; fill:none" points="140.51,872.159 2352.76,872.159 "/>
<polyline clip-path="url(#clip552)" style="stroke:#000000; stroke-linecap:round; stroke-linejoin:round; stroke-width:2; stroke-opacity:0.1; fill:none" points="140.51,564.54 2352.76,564.54 "/>
<polyline clip-path="url(#clip552)" style="stroke:#000000; stroke-linecap:round; stroke-linejoin:round; stroke-width:2; stroke-opacity:0.1; fill:none" points="140.51,256.921 2352.76,256.921 "/>
<polyline clip-path="url(#clip550)" style="stroke:#000000; stroke-linecap:round; stroke-linejoin:round; stroke-width:4; stroke-opacity:1; fill:none" points="140.51,1486.45 2352.76,1486.45 "/>
<polyline clip-path="url(#clip550)" style="stroke:#000000; stroke-linecap:round; stroke-linejoin:round; stroke-width:4; stroke-opacity:1; fill:none" points="352.398,1486.45 352.398,1467.55 "/>
<polyline clip-path="url(#clip550)" style="stroke:#000000; stroke-linecap:round; stroke-linejoin:round; stroke-width:4; stroke-opacity:1; fill:none" points="786.3,1486.45 786.3,1467.55 "/>
<polyline clip-path="url(#clip550)" style="stroke:#000000; stroke-linecap:round; stroke-linejoin:round; stroke-width:4; stroke-opacity:1; fill:none" points="1220.2,1486.45 1220.2,1467.55 "/>
<polyline clip-path="url(#clip550)" style="stroke:#000000; stroke-linecap:round; stroke-linejoin:round; stroke-width:4; stroke-opacity:1; fill:none" points="1654.1,1486.45 1654.1,1467.55 "/>
<polyline clip-path="url(#clip550)" style="stroke:#000000; stroke-linecap:round; stroke-linejoin:round; stroke-width:4; stroke-opacity:1; fill:none" points="2088,1486.45 2088,1467.55 "/>
<path clip-path="url(#clip550)" d="M306.46 1532.02 L336.136 1532.02 L336.136 1535.95 L306.46 1535.95 L306.46 1532.02 Z" fill="#000000" fill-rule="nonzero" fill-opacity="1" /><path clip-path="url(#clip550)" d="M360.395 1530.21 Q363.752 1530.93 365.627 1533.2 Q367.525 1535.47 367.525 1538.8 Q367.525 1543.92 364.006 1546.72 Q360.488 1549.52 354.007 1549.52 Q351.831 1549.52 349.516 1549.08 Q347.224 1548.66 344.77 1547.81 L344.77 1543.29 Q346.715 1544.43 349.03 1545.01 Q351.345 1545.58 353.868 1545.58 Q358.266 1545.58 360.557 1543.85 Q362.872 1542.11 362.872 1538.8 Q362.872 1535.75 360.719 1534.03 Q358.59 1532.3 354.77 1532.3 L350.743 1532.3 L350.743 1528.45 L354.956 1528.45 Q358.405 1528.45 360.233 1527.09 Q362.062 1525.7 362.062 1523.11 Q362.062 1520.45 360.164 1519.03 Q358.289 1517.6 354.77 1517.6 Q352.849 1517.6 350.65 1518.01 Q348.451 1518.43 345.812 1519.31 L345.812 1515.14 Q348.474 1514.4 350.789 1514.03 Q353.127 1513.66 355.187 1513.66 Q360.511 1513.66 363.613 1516.09 Q366.715 1518.5 366.715 1522.62 Q366.715 1525.49 365.071 1527.48 Q363.428 1529.45 360.395 1530.21 Z" fill="#000000" fill-rule="nonzero" fill-opacity="1" /><path clip-path="url(#clip550)" d="M386.391 1517.37 Q382.78 1517.37 380.951 1520.93 Q379.145 1524.47 379.145 1531.6 Q379.145 1538.71 380.951 1542.27 Q382.78 1545.82 386.391 1545.82 Q390.025 1545.82 391.83 1542.27 Q393.659 1538.71 393.659 1531.6 Q393.659 1524.47 391.83 1520.93 Q390.025 1517.37 386.391 1517.37 M386.391 1513.66 Q392.201 1513.66 395.256 1518.27 Q398.335 1522.85 398.335 1531.6 Q398.335 1540.33 395.256 1544.94 Q392.201 1549.52 386.391 1549.52 Q380.58 1549.52 377.502 1544.94 Q374.446 1540.33 374.446 1531.6 Q374.446 1522.85 377.502 1518.27 Q380.58 1513.66 386.391 1513.66 Z" fill="#000000" fill-rule="nonzero" fill-opacity="1" /><path clip-path="url(#clip550)" d="M786.3 1517.37 Q782.688 1517.37 780.86 1520.93 Q779.054 1524.47 779.054 1531.6 Q779.054 1538.71 780.86 1542.27 Q782.688 1545.82 786.3 1545.82 Q789.934 1545.82 791.739 1542.27 Q793.568 1538.71 793.568 1531.6 Q793.568 1524.47 791.739 1520.93 Q789.934 1517.37 786.3 1517.37 M786.3 1513.66 Q792.11 1513.66 795.165 1518.27 Q798.244 1522.85 798.244 1531.6 Q798.244 1540.33 795.165 1544.94 Q792.11 1549.52 786.3 1549.52 Q780.489 1549.52 777.411 1544.94 Q774.355 1540.33 774.355 1531.6 Q774.355 1522.85 777.411 1518.27 Q780.489 1513.66 786.3 1513.66 Z" fill="#000000" fill-rule="nonzero" fill-opacity="1" /><path clip-path="url(#clip550)" d="M1209.04 1530.21 Q1212.4 1530.93 1214.28 1533.2 Q1216.17 1535.47 1216.17 1538.8 Q1216.17 1543.92 1212.66 1546.72 Q1209.14 1549.52 1202.66 1549.52 Q1200.48 1549.52 1198.16 1549.08 Q1195.87 1548.66 1193.42 1547.81 L1193.42 1543.29 Q1195.36 1544.43 1197.68 1545.01 Q1199.99 1545.58 1202.52 1545.58 Q1206.91 1545.58 1209.21 1543.85 Q1211.52 1542.11 1211.52 1538.8 Q1211.52 1535.75 1209.37 1534.03 Q1207.24 1532.3 1203.42 1532.3 L1199.39 1532.3 L1199.39 1528.45 L1203.6 1528.45 Q1207.05 1528.45 1208.88 1527.09 Q1210.71 1525.7 1210.71 1523.11 Q1210.71 1520.45 1208.81 1519.03 Q1206.94 1517.6 1203.42 1517.6 Q1201.5 1517.6 1199.3 1518.01 Q1197.1 1518.43 1194.46 1519.31 L1194.46 1515.14 Q1197.12 1514.4 1199.44 1514.03 Q1201.78 1513.66 1203.84 1513.66 Q1209.16 1513.66 1212.26 1516.09 Q1215.36 1518.5 1215.36 1522.62 Q1215.36 1525.49 1213.72 1527.48 Q1212.08 1529.45 1209.04 1530.21 Z" fill="#000000" fill-rule="nonzero" fill-opacity="1" /><path clip-path="url(#clip550)" d="M1235.04 1517.37 Q1231.43 1517.37 1229.6 1520.93 Q1227.79 1524.47 1227.79 1531.6 Q1227.79 1538.71 1229.6 1542.27 Q1231.43 1545.82 1235.04 1545.82 Q1238.67 1545.82 1240.48 1542.27 Q1242.31 1538.71 1242.31 1531.6 Q1242.31 1524.47 1240.48 1520.93 Q1238.67 1517.37 1235.04 1517.37 M1235.04 1513.66 Q1240.85 1513.66 1243.9 1518.27 Q1246.98 1522.85 1246.98 1531.6 Q1246.98 1540.33 1243.9 1544.94 Q1240.85 1549.52 1235.04 1549.52 Q1229.23 1549.52 1226.15 1544.94 Q1223.09 1540.33 1223.09 1531.6 Q1223.09 1522.85 1226.15 1518.27 Q1229.23 1513.66 1235.04 1513.66 Z" fill="#000000" fill-rule="nonzero" fill-opacity="1" /><path clip-path="url(#clip550)" d="M1639.51 1529.7 Q1636.36 1529.7 1634.51 1531.86 Q1632.68 1534.01 1632.68 1537.76 Q1632.68 1541.49 1634.51 1543.66 Q1636.36 1545.82 1639.51 1545.82 Q1642.66 1545.82 1644.49 1543.66 Q1646.34 1541.49 1646.34 1537.76 Q1646.34 1534.01 1644.49 1531.86 Q1642.66 1529.7 1639.51 1529.7 M1648.79 1515.05 L1648.79 1519.31 Q1647.03 1518.48 1645.23 1518.04 Q1643.44 1517.6 1641.68 1517.6 Q1637.05 1517.6 1634.6 1520.72 Q1632.17 1523.85 1631.82 1530.17 Q1633.19 1528.15 1635.25 1527.09 Q1637.31 1526 1639.79 1526 Q1644.99 1526 1648 1529.17 Q1651.04 1532.32 1651.04 1537.76 Q1651.04 1543.08 1647.89 1546.3 Q1644.74 1549.52 1639.51 1549.52 Q1633.51 1549.52 1630.34 1544.94 Q1627.17 1540.33 1627.17 1531.6 Q1627.17 1523.41 1631.06 1518.55 Q1634.95 1513.66 1641.5 1513.66 Q1643.26 1513.66 1645.04 1514.01 Q1646.85 1514.36 1648.79 1515.05 Z" fill="#000000" fill-rule="nonzero" fill-opacity="1" /><path clip-path="url(#clip550)" d="M1669.09 1517.37 Q1665.48 1517.37 1663.65 1520.93 Q1661.85 1524.47 1661.85 1531.6 Q1661.85 1538.71 1663.65 1542.27 Q1665.48 1545.82 1669.09 1545.82 Q1672.73 1545.82 1674.53 1542.27 Q1676.36 1538.71 1676.36 1531.6 Q1676.36 1524.47 1674.53 1520.93 Q1672.73 1517.37 1669.09 1517.37 M1669.09 1513.66 Q1674.9 1513.66 1677.96 1518.27 Q1681.04 1522.85 1681.04 1531.6 Q1681.04 1540.33 1677.96 1544.94 Q1674.9 1549.52 1669.09 1549.52 Q1663.28 1549.52 1660.2 1544.94 Q1657.15 1540.33 1657.15 1531.6 Q1657.15 1522.85 1660.2 1518.27 Q1663.28 1513.66 1669.09 1513.66 Z" fill="#000000" fill-rule="nonzero" fill-opacity="1" /><path clip-path="url(#clip550)" d="M2063.13 1548.13 L2063.13 1543.87 Q2064.89 1544.7 2066.7 1545.14 Q2068.5 1545.58 2070.24 1545.58 Q2074.87 1545.58 2077.3 1542.48 Q2079.75 1539.36 2080.1 1533.01 Q2078.76 1535.01 2076.7 1536.07 Q2074.64 1537.13 2072.14 1537.13 Q2066.95 1537.13 2063.92 1534.01 Q2060.91 1530.86 2060.91 1525.42 Q2060.91 1520.1 2064.06 1516.88 Q2067.21 1513.66 2072.44 1513.66 Q2078.43 1513.66 2081.58 1518.27 Q2084.75 1522.85 2084.75 1531.6 Q2084.75 1539.77 2080.86 1544.66 Q2077 1549.52 2070.45 1549.52 Q2068.69 1549.52 2066.88 1549.17 Q2065.08 1548.82 2063.13 1548.13 M2072.44 1533.48 Q2075.59 1533.48 2077.41 1531.32 Q2079.27 1529.17 2079.27 1525.42 Q2079.27 1521.7 2077.41 1519.54 Q2075.59 1517.37 2072.44 1517.37 Q2069.29 1517.37 2067.44 1519.54 Q2065.61 1521.7 2065.61 1525.42 Q2065.61 1529.17 2067.44 1531.32 Q2069.29 1533.48 2072.44 1533.48 Z" fill="#000000" fill-rule="nonzero" fill-opacity="1" /><path clip-path="url(#clip550)" d="M2103.16 1517.37 Q2099.54 1517.37 2097.72 1520.93 Q2095.91 1524.47 2095.91 1531.6 Q2095.91 1538.71 2097.72 1542.27 Q2099.54 1545.82 2103.16 1545.82 Q2106.79 1545.82 2108.59 1542.27 Q2110.42 1538.71 2110.42 1531.6 Q2110.42 1524.47 2108.59 1520.93 Q2106.79 1517.37 2103.16 1517.37 M2103.16 1513.66 Q2108.97 1513.66 2112.02 1518.27 Q2115.1 1522.85 2115.1 1531.6 Q2115.1 1540.33 2112.02 1544.94 Q2108.97 1549.52 2103.16 1549.52 Q2097.35 1549.52 2094.27 1544.94 Q2091.21 1540.33 2091.21 1531.6 Q2091.21 1522.85 2094.27 1518.27 Q2097.35 1513.66 2103.16 1513.66 Z" fill="#000000" fill-rule="nonzero" fill-opacity="1" /><polyline clip-path="url(#clip550)" style="stroke:#000000; stroke-linecap:round; stroke-linejoin:round; stroke-width:4; stroke-opacity:1; fill:none" points="140.51,1486.45 140.51,47.2441 "/>
<polyline clip-path="url(#clip550)" style="stroke:#000000; stroke-linecap:round; stroke-linejoin:round; stroke-width:4; stroke-opacity:1; fill:none" points="140.51,1179.78 159.408,1179.78 "/>
<polyline clip-path="url(#clip550)" style="stroke:#000000; stroke-linecap:round; stroke-linejoin:round; stroke-width:4; stroke-opacity:1; fill:none" points="140.51,872.159 159.408,872.159 "/>
<polyline clip-path="url(#clip550)" style="stroke:#000000; stroke-linecap:round; stroke-linejoin:round; stroke-width:4; stroke-opacity:1; fill:none" points="140.51,564.54 159.408,564.54 "/>
<polyline clip-path="url(#clip550)" style="stroke:#000000; stroke-linecap:round; stroke-linejoin:round; stroke-width:4; stroke-opacity:1; fill:none" points="140.51,256.921 159.408,256.921 "/>
<path clip-path="url(#clip550)" d="M92.566 1165.58 Q88.9549 1165.58 87.1262 1169.14 Q85.3206 1172.68 85.3206 1179.81 Q85.3206 1186.92 87.1262 1190.48 Q88.9549 1194.03 92.566 1194.03 Q96.2002 1194.03 98.0058 1190.48 Q99.8345 1186.92 99.8345 1179.81 Q99.8345 1172.68 98.0058 1169.14 Q96.2002 1165.58 92.566 1165.58 M92.566 1161.87 Q98.3761 1161.87 101.432 1166.48 Q104.51 1171.06 104.51 1179.81 Q104.51 1188.54 101.432 1193.15 Q98.3761 1197.73 92.566 1197.73 Q86.7558 1197.73 83.6771 1193.15 Q80.6216 1188.54 80.6216 1179.81 Q80.6216 1171.06 83.6771 1166.48 Q86.7558 1161.87 92.566 1161.87 Z" fill="#000000" fill-rule="nonzero" fill-opacity="1" /><path clip-path="url(#clip550)" d="M57.4273 885.504 L73.7466 885.504 L73.7466 889.439 L51.8023 889.439 L51.8023 885.504 Q54.4643 882.75 59.0476 878.12 Q63.6541 873.467 64.8346 872.125 Q67.08 869.602 67.9596 867.865 Q68.8624 866.106 68.8624 864.416 Q68.8624 861.662 66.918 859.926 Q64.9967 858.19 61.8948 858.19 Q59.6958 858.19 57.2421 858.953 Q54.8115 859.717 52.0338 861.268 L52.0338 856.546 Q54.8578 855.412 57.3115 854.833 Q59.7652 854.254 61.8023 854.254 Q67.1726 854.254 70.367 856.94 Q73.5614 859.625 73.5614 864.115 Q73.5614 866.245 72.7513 868.166 Q71.9642 870.064 69.8578 872.657 Q69.2791 873.328 66.1772 876.546 Q63.0754 879.74 57.4273 885.504 Z" fill="#000000" fill-rule="nonzero" fill-opacity="1" /><path clip-path="url(#clip550)" d="M83.6077 854.879 L101.964 854.879 L101.964 858.815 L87.8901 858.815 L87.8901 867.287 Q88.9086 866.939 89.9271 866.777 Q90.9456 866.592 91.9641 866.592 Q97.7511 866.592 101.131 869.764 Q104.51 872.935 104.51 878.351 Q104.51 883.93 101.038 887.032 Q97.566 890.111 91.2465 890.111 Q89.0706 890.111 86.8021 889.74 Q84.5568 889.37 82.1494 888.629 L82.1494 883.93 Q84.2327 885.064 86.4549 885.62 Q88.6771 886.176 91.1539 886.176 Q95.1586 886.176 97.4965 884.069 Q99.8345 881.963 99.8345 878.351 Q99.8345 874.74 97.4965 872.634 Q95.1586 870.527 91.1539 870.527 Q89.279 870.527 87.404 870.944 Q85.5521 871.361 83.6077 872.24 L83.6077 854.879 Z" fill="#000000" fill-rule="nonzero" fill-opacity="1" /><path clip-path="url(#clip550)" d="M52.4505 547.26 L70.8068 547.26 L70.8068 551.195 L56.7328 551.195 L56.7328 559.667 Q57.7513 559.32 58.7699 559.158 Q59.7884 558.973 60.8069 558.973 Q66.5939 558.973 69.9735 562.144 Q73.3531 565.316 73.3531 570.732 Q73.3531 576.311 69.8809 579.413 Q66.4087 582.491 60.0893 582.491 Q57.9134 582.491 55.6449 582.121 Q53.3995 581.751 50.9921 581.01 L50.9921 576.311 Q53.0754 577.445 55.2977 578.001 Q57.5199 578.556 59.9967 578.556 Q64.0013 578.556 66.3393 576.45 Q68.6772 574.343 68.6772 570.732 Q68.6772 567.121 66.3393 565.015 Q64.0013 562.908 59.9967 562.908 Q58.1217 562.908 56.2467 563.325 Q54.3949 563.741 52.4505 564.621 L52.4505 547.26 Z" fill="#000000" fill-rule="nonzero" fill-opacity="1" /><path clip-path="url(#clip550)" d="M92.566 550.339 Q88.9549 550.339 87.1262 553.904 Q85.3206 557.445 85.3206 564.575 Q85.3206 571.681 87.1262 575.246 Q88.9549 578.788 92.566 578.788 Q96.2002 578.788 98.0058 575.246 Q99.8345 571.681 99.8345 564.575 Q99.8345 557.445 98.0058 553.904 Q96.2002 550.339 92.566 550.339 M92.566 546.635 Q98.3761 546.635 101.432 551.242 Q104.51 555.825 104.51 564.575 Q104.51 573.302 101.432 577.908 Q98.3761 582.491 92.566 582.491 Q86.7558 582.491 83.6771 577.908 Q80.6216 573.302 80.6216 564.575 Q80.6216 555.825 83.6771 551.242 Q86.7558 546.635 92.566 546.635 Z" fill="#000000" fill-rule="nonzero" fill-opacity="1" /><path clip-path="url(#clip550)" d="M52.219 239.641 L74.4411 239.641 L74.4411 241.632 L61.8948 274.201 L57.0106 274.201 L68.8161 243.576 L52.219 243.576 L52.219 239.641 Z" fill="#000000" fill-rule="nonzero" fill-opacity="1" /><path clip-path="url(#clip550)" d="M83.6077 239.641 L101.964 239.641 L101.964 243.576 L87.8901 243.576 L87.8901 252.048 Q88.9086 251.701 89.9271 251.539 Q90.9456 251.354 91.9641 251.354 Q97.7511 251.354 101.131 254.525 Q104.51 257.696 104.51 263.113 Q104.51 268.692 101.038 271.793 Q97.566 274.872 91.2465 274.872 Q89.0706 274.872 86.8021 274.502 Q84.5568 274.131 82.1494 273.391 L82.1494 268.692 Q84.2327 269.826 86.4549 270.381 Q88.6771 270.937 91.1539 270.937 Q95.1586 270.937 97.4965 268.83 Q99.8345 266.724 99.8345 263.113 Q99.8345 259.502 97.4965 257.395 Q95.1586 255.289 91.1539 255.289 Q89.279 255.289 87.404 255.706 Q85.5521 256.122 83.6077 257.002 L83.6077 239.641 Z" fill="#000000" fill-rule="nonzero" fill-opacity="1" /><polyline clip-path="url(#clip552)" style="stroke:#0000ff; stroke-linecap:round; stroke-linejoin:round; stroke-width:4; stroke-opacity:1; fill:none" points="203.477,715.942 232.088,722.232 235.533,717.73 244.848,717.234 251.702,717.18 275.047,719.249 298.207,722.851 326.127,725.036 354.3,727.514 385.008,732.448 414.424,732.269 439.84,732.382 475.893,734.034 498.714,739.662 522.229,743.661 555.975,747.68 581.923,749.201 604.129,753.591 632.707,760.126 656.324,767.689 679.4,775.572 702.842,782.321 730.143,789.223 753.093,797.6 778.783,803.092 809.681,810.992 831.978,811.237 866.318,813.478 892.166,821.275 918.798,828.627 949.757,838.068 974.424,846.654 1000.35,854.124 1019.51,863.679 1037.57,875.538 1045.48,881.137 1065.97,884.534 1083.26,886.639 1104.93,888.328 1130.84,891.528 1157.55,901.179 1184.72,911.379 1206.94,916.529 1232.83,920.026 1265.14,922.165 1294.37,923.517 1326.71,927.47 1355.14,932.177 1381.42,935.587 1406.83,938.32 1439.01,937.992 1463.2,938.137 1490.15,937.272 1517.08,934.568 1545.77,929.738 1574.1,929.977 1601.77,927.914 1627.97,928.408 1648.69,922.01 1667.96,918.436 1685.11,911.889 1702.91,905.966 1723.61,905.511 1746.05,903.383 1767.54,905.33 1786.39,908.571 1808.24,915.165 1829.01,926.103 1850.92,938.725 1867.04,949.645 1882.99,966.181 1893.65,979.907 1901.26,994.263 1910.58,1013.16 1921.82,1031.13 1933.95,1050.66 1944.68,1061.84 1962.83,1068.76 1976.35,1072.34 1986.86,1071.77 2008.52,1064.72 2025.05,1059.66 2045.26,1038.85 2058.04,1022.83 2063.19,1002.37 2065.61,984.582 2065.76,963.912 2053.35,948.362 2036.11,939.105 2012.56,929.353 1980.75,933.524 1954.62,931.987 1933.51,928.351 1914.31,925.311 1892.01,922.932 1872.73,928.978 1850.68,935.341 1834.33,942.987 1811.31,945.855 1786.76,945.992 1759.33,941.925 1736.03,931.419 1713.02,920.904 1682.68,905.958 1657.19,888.677 1634.71,870.056 1619.49,854.823 1607.61,841.494 1591.11,827.657 1576.82,811.467 1564.72,796.032 1556.4,779.669 1556.2,764.2 1569.18,748.414 1581.85,735.808 1601.71,727.549 1620.2,728.558 1650.13,729.98 1671.93,742.243 1693.52,749.353 1707.07,754.065 1729.35,760.826 1751.49,772.072 1763.42,781.435 1781.3,791.96 1799.84,802.697 1821.67,810.878 1842.08,812.556 1863.94,813.305 1888.66,807.828 1909.67,803.371 1926.45,801.728 1945.31,808.243 1961.97,819.548 1976.54,834.954 1986.08,851.912 1994.57,871.797 2002.43,892.924 2006.71,912.341 2006.78,933.362 2007.11,944.645 2009.71,958.748 2019.32,977.52 2026.7,994.99 2038.11,1009.41 2048.66,1016.68 2061.49,1020.49 2079.48,1017.11 2098.59,1010.46 2112.65,1001.33 2130.52,989.254 2140.31,979.151 2144.96,959.3 2136.57,941.854 2119.73,924.071 2106.02,907.559 2082.71,895.758 2054.53,890.063 2025.44,885.926 2006.36,883.825 1980.6,881.892 1959.56,879.978 1940.78,870.974 1925.71,864.509 1904.37,857.888 1888.34,856.733 1866.38,858.599 1846.06,853.896 1824.9,848.91 1804.88,847.864 1780.38,844.358 1762.39,839.48 1745.13,835.174 1723.48,833.302 1696.75,835.035 1670.8,840.994 1654.02,839.935 1648.58,832.501 1644.33,829.197 1636.91,827.802 1626.13,827.056 1617.44,825.727 1603.93,829.637 1589.71,835.867 1564.75,840.516 1543.43,844.124 1528.61,849.625 1518.1,858.069 1524.7,859.566 1539.02,858.332 1566.83,854.588 1589.84,838.178 1606.88,822.313 1614.86,807.045 1606.38,790.567 1592.11,771.874 1582.1,760.752 1570.43,740.669 1552.01,729.127 1531.14,739.935 1509.14,740.164 1481.02,735.142 1476.24,718.292 1471.91,699.418 1471.85,677.988 1476.18,661.392 1490.91,640.543 1499.71,620.423 1502.53,596.434 1486.34,583.33 1464.35,575.011 1454.71,573.92 1464.06,561.094 1484.08,549.948 1519.69,549.16 1558.69,535.481 1584,517.816 1602.84,493.972 1617.13,472.825 1638.57,463.691 1665.11,466.171 1688.83,472.123 1708,489.803 1735.91,501.829 1755.14,517.782 1765.85,539.211 1755.1,556.385 1736.98,572.911 1709.65,585.935 1676.17,592.022 1650.83,591.527 1617.06,577.747 1591.04,562.162 1579.89,541.182 1578.3,518.638 1596.79,503.252 1611.14,493.402 1634.09,479.004 1658.61,469.613 1681.43,454.252 1704.28,442.144 1723.55,441.232 1747.22,427.836 1751.21,414.194 1760.97,396.242 1773.09,390.491 1791.03,373.544 1785.46,360.3 1763.52,349.526 1759.87,347.314 1769.63,343.135 1794.07,336.985 1823.14,341.21 1848.41,343.732 1875.86,348.321 1898.93,366.125 1904.45,384.001 1901.1,396.254 1879.74,408.393 1864.84,430.115 1849.27,457.257 1838.23,489.465 1839.39,509.938 1803.97,513.383 1780.95,528.978 1748.74,535.34 1718.25,552.754 1701.15,577.542 1681.34,595.777 1653.05,591.062 1631.03,579.307 1603.13,569.123 1589.16,556.688 1563.59,539.697 1554.52,533.923 1561.12,511.773 1586.16,502.628 1620.82,497.612 1649.08,501.713 1684.36,508.411 1713.28,522.195 1723.18,543.821 1735.86,564.926 1751.39,569.732 1777.95,574.702 1801.63,585.032 1812.05,587.627 1838.55,580.043 1863.13,572.31 1881.54,562.877 1902.1,565.749 1922.15,579.853 1921.3,597.561 1921.61,618.821 1908.23,650.563 1888.08,675.85 1863.57,695.687 1840.06,724.585 1838.53,750.385 1803.56,763.483 1775.41,769.042 1747.33,782.521 1721.55,796.349 1704.1,815.279 1687.56,836.598 1661.35,859.159 1634.6,868.221 1607.33,860.351 1583.02,853.938 1551.07,850.384 1522.39,841.471 1502.68,820.349 1488.61,800.531 1457.98,777.849 1441.68,758.235 1415.4,741.443 1390.51,737.818 1360.02,743.911 1341.85,741.73 1316.59,733.634 1311.35,708.35 1294.84,699.383 1271.03,703.398 1252.45,712.297 1228.35,728.61 1220.5,735.614 1190.25,739.771 1167.62,744.27 1141.14,738.451 1119.72,721.004 1097.37,708.078 1062.52,701.609 1029.59,693.53 1006.85,688.308 986.837,677.767 965.823,657.633 965.485,644.722 974.003,625.054 990.518,604.265 1002.46,581.15 1008.07,550.565 1014.74,526.046 1000.4,505.579 981.454,500.853 971.076,489.108 975.503,476.109 1000.47,475.566 1037.45,479.18 1077.35,476.819 1110.83,472.827 1139.36,454.773 1164.72,429.773 1189.58,410.204 1221.02,404.079 1259.7,405.99 1292.63,418.429 1323.61,434.051 1353.84,446.301 1380.75,458.347 1403.54,472.868 1439.04,480.687 1465.91,493.815 1491.24,515.828 1521.28,543.316 1548.96,559.629 1573.78,571.106 1592.88,580.89 1602.31,573.173 1623.09,561.962 1650.43,547.602 1672.43,538.529 1702.37,527.815 1735.33,525.697 1771.53,534.683 1799.16,559.978 1807.78,581.183 1803.17,612.558 1785.78,645.332 1782.92,672.369 1775.1,705.269 1774.91,740.087 1791.07,770.542 1823.2,795.295 1863.27,793.603 1884.74,795.42 1915.15,803.1 1935.94,824.918 1961.42,850.259 1982.71,881.944 1993.76,914.914 1999.09,937.261 2014.42,919.987 2050.83,924.546 2079.19,930.757 2090.46,946.799 2092.11,950.173 2093.69,954.813 2098.64,970.924 2101.59,977.443 2113.99,981.048 2130.14,982.757 2158.43,977.631 2186.24,987.171 2200.75,998.888 2214.29,1020.28 2216.41,1033.89 2218.43,1022.71 2222.56,1005.69 2222.39,979.956 2212.83,952.872 2197.55,928.364 2186.63,905.282 2186.85,884.941 2160.37,863.042 2151.84,832.034 2156.59,806.068 2174.84,795.062 2195.84,797.274 2220.38,804.973 2236.64,818.247 2247.91,837.521 2273.26,860.108 2289.51,881.644 2280.94,909.042 2260.58,930.525 2243.28,951.441 2212.35,963.406 2193.24,982.75 2165.78,995.389 2138.58,1018.27 2120.05,1039.98 2108.49,1063.54 2088.66,1086.15 2071.07,1109.16 2046.18,1126.08 2020.03,1137.4 1988.93,1153.14 1962.64,1170.39 1933.63,1179.57 1905.35,1198.97 1889.65,1215.85 1857.95,1228.65 1837.98,1242.91 1820.35,1262.8 1801.94,1290.44 1792.99,1311.14 1788.2,1332.17 1781.9,1357.04 1804.25,1377.82 1813.79,1391.65 1807.19,1415.5 1799.5,1441.2 1780.34,1445.72 1757.24,1442.84 1734.31,1424.55 1722.13,1398.89 1708.92,1376.25 1685.07,1353.74 1645.63,1327.63 1614.74,1320.29 1579.4,1318.48 1542.08,1326.48 1500.34,1336.75 1473.61,1337.67 1437.83,1326.19 1413.02,1313.72 1392.88,1289.55 1390.43,1256.11 1385.36,1215.55 1365.67,1189.02 1343.72,1168.48 1348.22,1136.47 1346.44,1108.57 1338,1084.08 1325.96,1055.65 1307.17,1032 1302.07,1006.08 1307.34,972.286 1316.85,938.483 1335.45,909.41 1352.12,878.915 1365.31,846.497 1393.43,825.708 1388.53,797.495 1373.04,772.164 1341.99,748.773 1308.11,746.06 1288.12,734.36 1279.72,708.065 1276.71,675.763 1289.31,647.661 1303.52,626.011 1324.89,617.511 1357.41,605.028 1394.5,599.426 1434.21,596.246 1473.49,596.74 1501.34,589.341 1524.73,562.79 1543.14,541.353 1571.79,527.859 1594.4,522.938 1597.89,508.082 1584.11,494.162 1562.4,479.165 1536.11,466.522 1506.42,439.812 1483.92,413.186 1471.03,387.369 1453.14,367.759 1449.2,349.698 1457,328.517 1475.02,318.516 1492.49,327.692 1523.22,332.815 1561.92,335.426 1597.62,344.303 1638.98,349.671 1672,353.541 1703.45,368.377 1727.98,374.695 1753.26,366.414 1776.13,355.996 1807.59,350.936 1840.54,350.733 1871.71,346.049 1895.46,361.065 1907.11,377.149 1911.8,371.829 1921.92,354.528 1939.22,338.374 1956.57,327.154 1980.29,312.839 2000.23,304.755 1991.77,303.712 1969.8,292.437 1959.66,276.62 1947.2,246.199 1951.05,216.797 1961.98,201.472 1991.08,191.463 2024.81,192.018 2050.68,197.452 2083.44,201.83 2118.93,214.564 2142.51,236.456 2147.9,264.967 2141.15,292.604 2128.82,301.187 2133.04,317.735 2136.88,339.378 2133.19,371.054 2105.25,388.571 2085.29,422.885 2056.95,445.106 2033.99,471.192 2026.46,505.936 2001.4,514.28 1963.79,516.344 1928.43,527.702 1897.81,541.217 1881.46,568.185 1870.22,599.285 1868.94,615.685 1894.99,621.83 1924.01,634.072 1962.88,648.705 1997.04,672.783 2024.9,688.261 2063.5,692.753 2098.59,694.013 2138.86,689.779 2168,694.722 2194.13,693.587 2204.83,679.221 2219.01,659.907 2235.11,639.489 2233.15,614.052 2229.7,595.722 2219.65,571.231 2193.44,550.742 2172.08,531.486 2147.47,515.983 2106.3,516.479 2079.74,523.377 2055.39,541.6 2037.68,561.081 2012.36,586.432 2006.85,615.622 2011.81,647.425 2016.44,677.512 2033.05,704.151 2046.38,728.977 2059.82,762.467 2075.51,793.73 2107,805.109 2137.01,823.204 2163.07,850.609 2182.95,873.6 2198.14,905.474 2204.65,931.026 2203.49,941.985 2170.69,944.496 2133.59,958.224 2105.83,956.285 2089.96,963.007 2070.18,966.864 2047.66,962.815 2016.22,948.85 1985.97,941.034 1949.99,943.175 1906.03,955.468 1866.9,969.551 1828.09,970.616 1784.06,978.807 1745.65,979.214 1706.34,980.845 1675.09,975.443 1639.25,979.167 1607.17,973.775 1574.44,965.865 1539.36,934.76 1511.42,919.755 1473.68,913.071 1440.5,897.961 1411.74,880.864 1380.11,860.216 1353.37,852.957 1325.33,866.806 1299.57,883.149 1271.13,898.616 1232.43,916.349 1195.34,925.355 1165.97,920.791 1138.39,897.561 1119.78,873.09 1101.53,842.752 1075.54,817.071 1064.41,786.421 1060.72,757.908 1061.64,735.712 1048.83,705.719 1026.42,688.209 998.38,677.268 978.312,655.608 969.853,624.682 966.84,601.052 955.58,573.137 964.191,546.735 985.954,519.347 997.718,502.002 1011.6,495.188 1021.06,481.118 1025.82,465.258 1032.24,441.018 1039.68,416.856 1044.31,389.236 1056.23,356.436 1058.33,332.603 1035.43,313.754 1015.14,300.126 987.516,298.931 960.099,307.832 932.513,305.649 901.49,290.198 863.115,275.739 839.536,269.666 817.538,265.819 802.389,247.822 800.707,226.295 815.686,208.115 837.831,189.243 861.586,171.585 903.888,160.123 934.478,147.753 967.907,142.644 998.915,152.848 1027.45,159.343 1061.79,155.888 1095.78,149.334 1116.28,128.792 1132.07,109.572 1145.47,88.6123 "/>
<polyline clip-path="url(#clip552)" style="stroke:#ff0000; stroke-linecap:round; stroke-linejoin:round; stroke-width:4; stroke-opacity:1; fill:none" points="203.121,717.23 234.087,723.628 236.748,714.732 258.284,716.036 261.727,716.738 289.251,722.435 306.448,725.991 335.75,725.745 360.729,727.763 391.709,734.161 418.467,730.248 440.003,731.54 483.089,734.149 495.094,742.935 520.086,744.94 563.187,747.549 581.295,748.14 601.096,755.387 635.562,762.499 655.377,769.747 678.648,777.708 702.788,782.691 733.826,789.102 752.788,799.327 781.266,802.059 814.923,812.174 831.324,806.095 873.629,811.681 891.752,824.897 919.377,830.606 953.077,840.721 972.95,847.981 1000.6,853.69 1015.3,866.204 1033.48,879.431 1036.94,880.145 1069.78,880.613 1083.61,883.48 1108.69,885.498 1136.37,891.219 1161.49,905.899 1188.34,914.599 1206.5,915.201 1235.06,917.945 1271.4,919.127 1296.5,921.157 1331.14,928.318 1355.41,933.339 1380.5,935.357 1405.61,937.387 1442.81,935.603 1460.99,936.193 1490.41,935.96 1517.21,932.01 1548.3,925.808 1576.04,931.53 1602.83,927.592 1627.95,929.623 1646,917.564 1664.18,918.155 1681.38,909.086 1701.22,903.709 1725.51,908.729 1748.81,904.066 1769.64,908.36 1786.98,911.941 1810.45,919.939 1828.81,933.191 1851.46,944.179 1863.71,953.026 1880.43,972.271 1888.38,983.395 1895.51,997.508 1907.95,1019.05 1922.05,1034.62 1935.33,1053.19 1944.95,1058.34 1969.3,1063.39 1979.75,1065.54 1987.54,1063.98 2016.01,1054.04 2027.26,1053.19 2049.36,1026.12 2055.3,1017.85 2054.06,995.465 2058.14,980.515 2056.91,958.157 2037.69,947.883 2020.3,944.29 1997.62,933.302 1970.01,940.229 1949.17,935.935 1932.62,929.364 1915.27,925.784 1890.13,923.753 1872.12,935.824 1848.81,940.475 1835.92,947.292 1807.31,944.536 1782.18,942.518 1754.41,936.784 1736.07,923.532 1712.61,915.534 1676.94,898.701 1656,881.769 1635.07,864.838 1623.7,853.05 1612.35,841.25 1590.59,827.321 1577.46,808.876 1566.95,794.135 1560.74,777.13 1564.92,762.278 1583.77,747.303 1594.02,736.844 1617.28,732.217 1631.11,735.06 1660.45,734.826 1674.42,750.256 1695.19,754.538 1705.58,756.667 1733.28,762.376 1755.03,776.268 1760.31,783.639 1782.9,794.578 1802.03,804.815 1826.29,809.811 1845.27,807.424 1866.89,808.728 1891.79,798.134 1909.95,798.737 1923.82,801.592 1945.63,815.508 1960.51,828.01 1974.58,843.489 1981.71,857.541 1990.7,878.287 1999.68,899.045 2002.53,915.398 2000.27,937.006 2002.93,940.709 2009.27,957.801 2025.22,980.035 2028.08,996.425 2043.01,1008.99 2053.45,1011.15 2067.37,1014.02 2088.03,1005.64 2104.39,999.538 2113.79,991.996 2131.79,979.912 2136.89,974.658 2136.43,949.31 2121.49,936.759 2103.89,920.517 2093.26,905.727 2069.75,897.729 2041.14,894.985 2016.83,889.977 2006.42,887.823 1977.82,885.092 1960.47,881.511 1942.92,865.293 1929.04,862.439 1901.28,856.717 1889.23,860.531 1862.48,864.469 1844.14,851.241 1823.32,846.959 1804.33,849.334 1776.61,843.625 1763.56,837.792 1746.23,834.211 1720.32,835.171 1690.1,838.395 1665.98,846.012 1657.26,837.915 1657.11,825.291 1649.36,826.841 1638.14,827.678 1623.44,827.801 1616.51,826.373 1599.32,835.417 1586.43,842.21 1553.58,841.742 1538.05,844.83 1528.6,852.336 1521.79,863.546 1537.33,860.445 1556.32,858.058 1587.38,851.857 1596.68,831.726 1611.25,818.99 1615.41,804.114 1605.74,786.395 1589.15,767.261 1580.43,759.177 1568.97,734.838 1549.06,727.591 1526.75,741.852 1505.17,740.548 1474.05,734.137 1475.62,715.618 1470.29,695.697 1472.7,674.237 1476.88,659.422 1494.77,634.911 1499.79,617.155 1503.03,592.792 1484.01,582.628 1460.7,574.716 1453.8,573.301 1465.72,556.997 1490.59,546.477 1530.2,548.359 1567.89,531.12 1586.67,516.244 1604.49,491.831 1617.19,472.623 1637.73,464.367 1666.14,467.074 1690.26,472.008 1710.26,491.684 1739.64,503.939 1757.05,519.985 1765.91,540.521 1754.06,556.813 1734.48,574.655 1705.35,587.427 1670.97,592.878 1649.42,591.586 1610.48,574.212 1588.83,560.393 1580.02,539.844 1578.95,517.782 1597.72,502.918 1611.38,493.246 1637.86,476.856 1661.86,469.313 1684.88,452.222 1706.23,441.037 1724.28,441.615 1750.72,425.25 1750.57,412.785 1763.21,393.615 1775.19,389.849 1795.54,369.165 1784.23,357.537 1758.33,346.032 1774.57,340.052 1805.38,333.936 1832.09,342.488 1853.57,343.78 1881.11,349.403 1904.58,369.719 1903.94,385.112 1900.67,396.863 1875.1,410.275 1860.84,435.34 1845.76,463.37 1836.73,495.781 1840.36,508.996 1799.11,513.008 1779.56,530.837 1745.21,536.276 1714.44,554.93 1700.1,580.106 1681.32,595.007 1653.7,589.334 1631.19,578.469 1600.96,569.13 1589.65,557.44 1558.5,538.552 1555.88,534.898 1563.37,508.344 1590.83,501.503 1628.62,496.778 1652.74,501.724 1690.68,509.501 1715.8,524.008 1721.2,543.831 1736.95,565.795 1750.76,568.625 1781.84,574.999 1804.36,585.877 1811.28,587.292 1843.02,578.186 1867.03,570.619 1884.11,561.636 1904.84,565.881 1925.75,582.653 1920.85,600.396 1922.04,622.52 1904.48,659.594 1884.09,680.451 1861.03,697.653 1837.33,730.408 1839.31,749.641 1798.91,763.311 1775.65,767.95 1745.63,783.762 1719.87,797.322 1703.67,816.013 1686.63,837.681 1657.53,863.177 1634.23,867.828 1607.34,859.129 1583.09,854.121 1547.59,849.962 1520.74,841.262 1501.51,818.412 1488.41,799.967 1451.92,773.574 1441.45,758.845 1413.71,740.56 1392.11,739.256 1357.65,744.719 1343.82,741.864 1313.56,732.5 1310.81,703.658 1293.55,700.102 1266.83,704.027 1249.63,713.046 1222.12,732.513 1221.27,735.478 1183.33,740.228 1163.5,745.58 1136.73,736.905 1116.85,717.095 1094.38,706.18 1055.58,701.332 1025.39,691.968 1008.15,688.412 985.735,677.51 963.303,654.07 965.891,645.186 976.204,622.225 993.401,600.692 1003.7,577.768 1009.67,544.582 1015.66,523.934 999.302,504.948 982.105,501.417 970.925,489.752 975.206,475.023 1007.86,475.478 1046.54,480.302 1087.77,476.29 1114.4,472.39 1141.84,453.071 1167.51,427.182 1190.62,410.115 1221.5,404 1264.44,406.571 1293.7,418.79 1325.57,434.663 1354.86,446.894 1380.72,458.424 1402.3,472.205 1443.62,480.671 1465.21,494.464 1494.66,519.222 1526.74,547.658 1549.21,558.511 1571.71,569.376 1590.74,579.54 1600.14,572.083 1624.99,561.562 1654.96,545.849 1675.51,537.58 1708.07,525.534 1740.77,526.002 1777.91,536.731 1803.22,563.777 1806.01,579.958 1803.05,616.86 1782.8,650.255 1783.94,672.404 1774.03,707.989 1775.34,742.762 1792.97,771.519 1826.13,797.199 1864.07,792.437 1877.94,795.291 1916.06,803.13 1935.42,825.98 1964.37,853.973 1984.77,886.519 1994.76,916.949 1997.62,933.302 2012.13,920.529 2054.64,926.14 2078.97,931.148 2089.61,945.963 2092.27,949.667 2094.12,956.361 2099.66,976.442 2102.32,980.158 2119.72,983.739 2137.92,984.342 2169.82,975.126 2195.22,989.842 2203.23,1000.98 2218.45,1026.24 2216.01,1035.22 2220.07,1020.25 2225.74,999.292 2222.57,970.228 2210.86,945.717 2194.85,923.507 2185.81,902.737 2187.19,884.12 2153.84,858.366 2151.54,826.435 2157.21,805.603 2174.34,796.559 2195.96,797.875 2222.92,806.55 2237.86,819.052 2250.37,840.487 2280.28,865.515 2290.15,883.283 2278.62,912.396 2258.25,933.413 2242.16,952.177 2209.47,964.371 2193.36,983.148 2164.14,996.068 2135.13,1021.69 2118.99,1040.49 2108.98,1063.74 2087.7,1087.85 2070.71,1109.69 2044.08,1126.39 2019.07,1137.08 1984.62,1155.34 1961.44,1172.78 1933.74,1179.75 1901.9,1201.77 1890.8,1215.38 1853.63,1229.95 1839.02,1242.84 1818.42,1264.05 1798.81,1295.05 1794.66,1310.14 1788.83,1331.28 1781.34,1358.47 1808.62,1380.12 1813.11,1390.66 1805.62,1417.89 1798.12,1445.16 1779.8,1444.54 1754.48,1442.49 1730.69,1421.52 1719.91,1393.66 1706.62,1374.91 1680.21,1350.24 1636.39,1321.95 1614.6,1320.62 1578.04,1319.41 1538.95,1327.25 1495.51,1337.4 1477.23,1336.79 1436.23,1325.07 1413.52,1313.95 1391.59,1287.04 1390.48,1251.71 1384.1,1208.95 1363.98,1188.86 1343.88,1168.77 1349.75,1135 1346.12,1108.83 1338.16,1084.96 1324.96,1053.67 1305.77,1030.67 1302.15,1004.57 1308.88,967.977 1318.21,935.123 1337.07,907.437 1353.31,876.072 1366.06,844.018 1393.57,824.491 1386.49,797.839 1371.63,772.749 1338.67,747.094 1309.34,747.34 1291.14,734.161 1280.64,706.869 1276.15,671.419 1290.67,646.195 1303.47,626.901 1324.09,618.607 1361.05,604.284 1398.9,599.547 1440.2,595.524 1476.38,596.705 1500.42,589.125 1526.85,560.172 1543.04,541.629 1572.17,528.881 1591.91,523.565 1596.06,508.812 1582.15,493.492 1557.91,476.056 1532.02,464.515 1500.81,433.199 1481.71,410.62 1470.36,386.527 1453.9,367.615 1451.2,351.532 1457.86,328.055 1474.95,319.146 1493.91,329.224 1529.11,333.321 1572.02,335.881 1602.15,345.146 1644.25,350.646 1672.6,353.341 1704.54,369.19 1725.19,373.41 1752.58,366.593 1777.35,356.134 1811.61,350.72 1844.22,351.175 1875.03,345.06 1895.87,361.733 1906.39,376.289 1911.46,371.121 1924.06,351.975 1943.53,334.244 1960.57,325.323 1986.91,309.007 2003.1,303.014 1991.97,303.839 1963.43,288.729 1957.17,271.982 1944.66,238.501 1951.98,212.168 1962.09,201.882 1994.46,189.946 2029.63,194.019 2050.26,198.227 2088.89,203.001 2125.1,216.549 2144.35,239.005 2147.45,267.466 2140.2,293.823 2131.71,298.289 2133.77,317.288 2137.66,342.87 2131.42,378.812 2099,390.809 2080.79,430.578 2054.42,446.943 2032.49,473.571 2026.2,509.661 2003.86,511.31 1962.62,515.333 1925.84,529.619 1896.76,542.379 1881.67,570.496 1869.19,602.303 1870.19,611.877 1897.02,620.514 1929.14,636.486 1969.01,650.932 2002.19,676.526 2024.8,687.428 2067.16,692.99 2099.95,693.457 2141.3,689.421 2165.54,694.405 2191.42,693.445 2202.38,680.045 2219.23,658.475 2236.05,636.904 2232.12,611.101 2229.21,594.896 2218.35,567.702 2187.8,545.849 2170.29,529.804 2145.06,515.284 2096.91,517.893 2080.66,523.922 2053.44,543.29 2037.4,561.833 2007.7,590.085 2007.3,618.127 2012.98,650.563 2016.03,679.368 2034.58,705.097 2046.19,729.424 2061.49,767.089 2075.8,795.144 2106.2,804.545 2137.66,823.58 2165.89,854.551 2182.67,873.747 2198.9,908.582 2204.46,928.638 2202.03,937.596 2167.5,943.096 2126.23,959.831 2105.36,955.524 2092.49,962.341 2069.17,967.005 2044.85,961.984 2009.06,945.127 1981.26,939.393 1943.24,944.179 1894.96,959.474 1862.23,971.668 1825.83,970.475 1779.18,979.802 1746.26,979.322 1705.56,980.404 1677.78,974.67 1639.73,979.445 1608.49,972.997 1573.77,965.823 1532.76,928.909 1512.78,921.625 1471.18,913.036 1439.06,896.929 1410.41,881.548 1376.54,858.784 1355.75,854.502 1326.45,867.373 1299.75,883.935 1269.56,899.808 1227.29,919.496 1192.71,924.984 1168.47,919.976 1135.52,894.21 1119.88,872.036 1099.92,839.515 1073.95,815.238 1064.39,784.906 1060.87,759.005 1063.42,737.508 1047.83,702.87 1026.25,689.003 996.93,676.686 977.954,653.947 969.319,620.81 967.569,601.651 954.653,570.803 965.819,544.939 989.004,515.321 995.874,504.234 1008.75,497.516 1020.77,481.249 1025.89,463.579 1033.58,437.1 1040.41,413.573 1045.5,383.475 1059.15,348.96 1056.55,332.878 1033.36,312.6 1015.34,299.594 986.198,299.84 957.922,309.573 930.5,303.962 895.368,287.449 855.97,273.175 842.273,270.37 818.293,265.46 802.05,246.622 801.24,224.756 817.526,206.397 841.506,186.525 864.619,169.594 915.082,158.249 936.458,147.162 970.65,141.773 999.736,153.905 1027.11,159.492 1064.73,154.803 1098.93,149.426 1115.96,128.188 1132.15,109.879 1145.74,87.9763 "/>
<path clip-path="url(#clip550)" d="M214.252 1438.47 L760.776 1438.47 L760.776 1282.95 L214.252 1282.95  Z" fill="#ffffff" fill-rule="evenodd" fill-opacity="1"/>
<polyline clip-path="url(#clip550)" style="stroke:#000000; stroke-linecap:round; stroke-linejoin:round; stroke-width:4; stroke-opacity:1; fill:none" points="214.252,1438.47 760.776,1438.47 760.776,1282.95 214.252,1282.95 214.252,1438.47 "/>
<polyline clip-path="url(#clip550)" style="stroke:#0000ff; stroke-linecap:round; stroke-linejoin:round; stroke-width:4; stroke-opacity:1; fill:none" points="238.832,1334.79 386.315,1334.79 "/>
<path clip-path="url(#clip550)" d="M434.924 1338.05 L434.924 1340.13 L415.34 1340.13 Q415.618 1344.53 417.979 1346.84 Q420.363 1349.13 424.6 1349.13 Q427.053 1349.13 429.345 1348.53 Q431.66 1347.93 433.928 1346.73 L433.928 1350.75 Q431.637 1351.73 429.229 1352.24 Q426.822 1352.75 424.345 1352.75 Q418.141 1352.75 414.507 1349.13 Q410.896 1345.52 410.896 1339.37 Q410.896 1333 414.322 1329.27 Q417.771 1325.52 423.604 1325.52 Q428.836 1325.52 431.868 1328.9 Q434.924 1332.26 434.924 1338.05 M430.664 1336.8 Q430.618 1333.3 428.697 1331.22 Q426.799 1329.13 423.65 1329.13 Q420.086 1329.13 417.933 1331.15 Q415.803 1333.16 415.479 1336.82 L430.664 1336.8 Z" fill="#000000" fill-rule="nonzero" fill-opacity="1" /><path clip-path="url(#clip550)" d="M458.442 1326.91 L458.442 1330.94 Q456.636 1330.01 454.692 1329.55 Q452.748 1329.09 450.664 1329.09 Q447.493 1329.09 445.896 1330.06 Q444.322 1331.03 444.322 1332.98 Q444.322 1334.46 445.456 1335.32 Q446.59 1336.15 450.016 1336.91 L451.474 1337.24 Q456.011 1338.21 457.91 1339.99 Q459.831 1341.75 459.831 1344.92 Q459.831 1348.53 456.96 1350.64 Q454.113 1352.75 449.113 1352.75 Q447.03 1352.75 444.761 1352.33 Q442.516 1351.94 440.016 1351.13 L440.016 1346.73 Q442.377 1347.95 444.669 1348.58 Q446.961 1349.18 449.206 1349.18 Q452.215 1349.18 453.836 1348.16 Q455.456 1347.12 455.456 1345.25 Q455.456 1343.51 454.275 1342.58 Q453.118 1341.66 449.16 1340.8 L447.678 1340.45 Q443.72 1339.62 441.961 1337.91 Q440.201 1336.17 440.201 1333.16 Q440.201 1329.51 442.794 1327.51 Q445.386 1325.52 450.155 1325.52 Q452.516 1325.52 454.599 1325.87 Q456.683 1326.22 458.442 1326.91 Z" fill="#000000" fill-rule="nonzero" fill-opacity="1" /><path clip-path="url(#clip550)" d="M470.826 1318.79 L470.826 1326.15 L479.599 1326.15 L479.599 1329.46 L470.826 1329.46 L470.826 1343.53 Q470.826 1346.7 471.683 1347.61 Q472.562 1348.51 475.224 1348.51 L479.599 1348.51 L479.599 1352.07 L475.224 1352.07 Q470.294 1352.07 468.419 1350.25 Q466.544 1348.39 466.544 1343.53 L466.544 1329.46 L463.419 1329.46 L463.419 1326.15 L466.544 1326.15 L466.544 1318.79 L470.826 1318.79 Z" fill="#000000" fill-rule="nonzero" fill-opacity="1" /><path clip-path="url(#clip550)" d="M485.201 1326.15 L489.46 1326.15 L489.46 1352.07 L485.201 1352.07 L485.201 1326.15 M485.201 1316.06 L489.46 1316.06 L489.46 1321.45 L485.201 1321.45 L485.201 1316.06 Z" fill="#000000" fill-rule="nonzero" fill-opacity="1" /><path clip-path="url(#clip550)" d="M518.557 1331.13 Q520.155 1328.26 522.377 1326.89 Q524.599 1325.52 527.608 1325.52 Q531.659 1325.52 533.858 1328.37 Q536.057 1331.19 536.057 1336.43 L536.057 1352.07 L531.775 1352.07 L531.775 1336.57 Q531.775 1332.84 530.455 1331.03 Q529.136 1329.23 526.428 1329.23 Q523.118 1329.23 521.196 1331.43 Q519.275 1333.63 519.275 1337.42 L519.275 1352.07 L514.993 1352.07 L514.993 1336.57 Q514.993 1332.82 513.673 1331.03 Q512.354 1329.23 509.599 1329.23 Q506.335 1329.23 504.414 1331.45 Q502.493 1333.65 502.493 1337.42 L502.493 1352.07 L498.21 1352.07 L498.21 1326.15 L502.493 1326.15 L502.493 1330.18 Q503.951 1327.79 505.988 1326.66 Q508.025 1325.52 510.826 1325.52 Q513.65 1325.52 515.618 1326.96 Q517.608 1328.39 518.557 1331.13 Z" fill="#000000" fill-rule="nonzero" fill-opacity="1" /><path clip-path="url(#clip550)" d="M556.335 1339.04 Q551.173 1339.04 549.182 1340.22 Q547.191 1341.4 547.191 1344.25 Q547.191 1346.52 548.673 1347.86 Q550.178 1349.18 552.747 1349.18 Q556.289 1349.18 558.418 1346.68 Q560.571 1344.16 560.571 1339.99 L560.571 1339.04 L556.335 1339.04 M564.83 1337.28 L564.83 1352.07 L560.571 1352.07 L560.571 1348.14 Q559.113 1350.5 556.937 1351.63 Q554.761 1352.75 551.613 1352.75 Q547.631 1352.75 545.27 1350.52 Q542.932 1348.28 542.932 1344.53 Q542.932 1340.15 545.849 1337.93 Q548.789 1335.71 554.599 1335.71 L560.571 1335.71 L560.571 1335.29 Q560.571 1332.35 558.627 1330.76 Q556.705 1329.13 553.21 1329.13 Q550.988 1329.13 548.881 1329.67 Q546.775 1330.2 544.83 1331.26 L544.83 1327.33 Q547.168 1326.43 549.367 1325.99 Q551.566 1325.52 553.65 1325.52 Q559.275 1325.52 562.053 1328.44 Q564.83 1331.36 564.83 1337.28 Z" fill="#000000" fill-rule="nonzero" fill-opacity="1" /><path clip-path="url(#clip550)" d="M577.816 1318.79 L577.816 1326.15 L586.589 1326.15 L586.589 1329.46 L577.816 1329.46 L577.816 1343.53 Q577.816 1346.7 578.673 1347.61 Q579.552 1348.51 582.214 1348.51 L586.589 1348.51 L586.589 1352.07 L582.214 1352.07 Q577.284 1352.07 575.409 1350.25 Q573.534 1348.39 573.534 1343.53 L573.534 1329.46 L570.409 1329.46 L570.409 1326.15 L573.534 1326.15 L573.534 1318.79 L577.816 1318.79 Z" fill="#000000" fill-rule="nonzero" fill-opacity="1" /><path clip-path="url(#clip550)" d="M614.367 1338.05 L614.367 1340.13 L594.784 1340.13 Q595.062 1344.53 597.423 1346.84 Q599.807 1349.13 604.043 1349.13 Q606.497 1349.13 608.788 1348.53 Q611.103 1347.93 613.372 1346.73 L613.372 1350.75 Q611.08 1351.73 608.673 1352.24 Q606.265 1352.75 603.788 1352.75 Q597.585 1352.75 593.95 1349.13 Q590.339 1345.52 590.339 1339.37 Q590.339 1333 593.765 1329.27 Q597.214 1325.52 603.048 1325.52 Q608.279 1325.52 611.312 1328.9 Q614.367 1332.26 614.367 1338.05 M610.108 1336.8 Q610.062 1333.3 608.14 1331.22 Q606.242 1329.13 603.094 1329.13 Q599.529 1329.13 597.376 1331.15 Q595.247 1333.16 594.923 1336.82 L610.108 1336.8 Z" fill="#000000" fill-rule="nonzero" fill-opacity="1" /><polyline clip-path="url(#clip550)" style="stroke:#ff0000; stroke-linecap:round; stroke-linejoin:round; stroke-width:4; stroke-opacity:1; fill:none" points="238.832,1386.63 386.315,1386.63 "/>
<path clip-path="url(#clip550)" d="M431.243 1382.97 Q432.84 1380.1 435.062 1378.73 Q437.285 1377.36 440.294 1377.36 Q444.345 1377.36 446.544 1380.21 Q448.743 1383.03 448.743 1388.27 L448.743 1403.91 L444.461 1403.91 L444.461 1388.41 Q444.461 1384.68 443.141 1382.87 Q441.822 1381.07 439.113 1381.07 Q435.803 1381.07 433.882 1383.27 Q431.961 1385.47 431.961 1389.26 L431.961 1403.91 L427.678 1403.91 L427.678 1388.41 Q427.678 1384.66 426.359 1382.87 Q425.039 1381.07 422.285 1381.07 Q419.021 1381.07 417.1 1383.29 Q415.178 1385.49 415.178 1389.26 L415.178 1403.91 L410.896 1403.91 L410.896 1377.99 L415.178 1377.99 L415.178 1382.02 Q416.637 1379.63 418.674 1378.5 Q420.711 1377.36 423.512 1377.36 Q426.336 1377.36 428.303 1378.8 Q430.294 1380.23 431.243 1382.97 Z" fill="#000000" fill-rule="nonzero" fill-opacity="1" /><path clip-path="url(#clip550)" d="M479.414 1389.89 L479.414 1391.97 L459.831 1391.97 Q460.109 1396.37 462.47 1398.68 Q464.854 1400.97 469.09 1400.97 Q471.544 1400.97 473.835 1400.37 Q476.15 1399.77 478.419 1398.57 L478.419 1402.59 Q476.127 1403.57 473.72 1404.08 Q471.312 1404.59 468.835 1404.59 Q462.632 1404.59 458.998 1400.97 Q455.386 1397.36 455.386 1391.21 Q455.386 1384.84 458.812 1381.11 Q462.261 1377.36 468.095 1377.36 Q473.326 1377.36 476.359 1380.74 Q479.414 1384.1 479.414 1389.89 M475.155 1388.64 Q475.109 1385.14 473.187 1383.06 Q471.289 1380.97 468.141 1380.97 Q464.576 1380.97 462.423 1382.99 Q460.294 1385 459.97 1388.66 L475.155 1388.64 Z" fill="#000000" fill-rule="nonzero" fill-opacity="1" /><path clip-path="url(#clip550)" d="M498.187 1390.88 Q493.025 1390.88 491.034 1392.06 Q489.044 1393.24 489.044 1396.09 Q489.044 1398.36 490.525 1399.7 Q492.03 1401.02 494.599 1401.02 Q498.141 1401.02 500.27 1398.52 Q502.423 1396 502.423 1391.83 L502.423 1390.88 L498.187 1390.88 M506.682 1389.12 L506.682 1403.91 L502.423 1403.91 L502.423 1399.98 Q500.965 1402.34 498.789 1403.47 Q496.613 1404.59 493.465 1404.59 Q489.483 1404.59 487.122 1402.36 Q484.784 1400.12 484.784 1396.37 Q484.784 1391.99 487.701 1389.77 Q490.641 1387.55 496.451 1387.55 L502.423 1387.55 L502.423 1387.13 Q502.423 1384.19 500.479 1382.6 Q498.557 1380.97 495.062 1380.97 Q492.84 1380.97 490.733 1381.51 Q488.627 1382.04 486.683 1383.1 L486.683 1379.17 Q489.021 1378.27 491.22 1377.83 Q493.419 1377.36 495.502 1377.36 Q501.127 1377.36 503.905 1380.28 Q506.682 1383.2 506.682 1389.12 Z" fill="#000000" fill-rule="nonzero" fill-opacity="1" /><path clip-path="url(#clip550)" d="M531.983 1378.75 L531.983 1382.78 Q530.178 1381.85 528.233 1381.39 Q526.289 1380.93 524.206 1380.93 Q521.034 1380.93 519.437 1381.9 Q517.863 1382.87 517.863 1384.82 Q517.863 1386.3 518.997 1387.16 Q520.131 1387.99 523.557 1388.75 L525.016 1389.08 Q529.553 1390.05 531.451 1391.83 Q533.372 1393.59 533.372 1396.76 Q533.372 1400.37 530.502 1402.48 Q527.655 1404.59 522.655 1404.59 Q520.571 1404.59 518.303 1404.17 Q516.057 1403.78 513.557 1402.97 L513.557 1398.57 Q515.919 1399.79 518.21 1400.42 Q520.502 1401.02 522.747 1401.02 Q525.756 1401.02 527.377 1400 Q528.997 1398.96 528.997 1397.09 Q528.997 1395.35 527.817 1394.42 Q526.659 1393.5 522.701 1392.64 L521.219 1392.29 Q517.261 1391.46 515.502 1389.75 Q513.743 1388.01 513.743 1385 Q513.743 1381.35 516.335 1379.35 Q518.928 1377.36 523.696 1377.36 Q526.057 1377.36 528.141 1377.71 Q530.224 1378.06 531.983 1378.75 Z" fill="#000000" fill-rule="nonzero" fill-opacity="1" /><path clip-path="url(#clip550)" d="M539.715 1393.68 L539.715 1377.99 L543.974 1377.99 L543.974 1393.52 Q543.974 1397.2 545.409 1399.05 Q546.844 1400.88 549.715 1400.88 Q553.164 1400.88 555.154 1398.68 Q557.168 1396.48 557.168 1392.69 L557.168 1377.99 L561.428 1377.99 L561.428 1403.91 L557.168 1403.91 L557.168 1399.93 Q555.617 1402.29 553.557 1403.45 Q551.52 1404.59 548.812 1404.59 Q544.344 1404.59 542.029 1401.81 Q539.715 1399.03 539.715 1393.68 M550.432 1377.36 L550.432 1377.36 Z" fill="#000000" fill-rule="nonzero" fill-opacity="1" /><path clip-path="url(#clip550)" d="M585.224 1381.97 Q584.506 1381.55 583.65 1381.37 Q582.816 1381.16 581.798 1381.16 Q578.187 1381.16 576.242 1383.52 Q574.321 1385.86 574.321 1390.26 L574.321 1403.91 L570.039 1403.91 L570.039 1377.99 L574.321 1377.99 L574.321 1382.02 Q575.664 1379.66 577.816 1378.52 Q579.969 1377.36 583.048 1377.36 Q583.488 1377.36 584.02 1377.43 Q584.552 1377.48 585.201 1377.6 L585.224 1381.97 Z" fill="#000000" fill-rule="nonzero" fill-opacity="1" /><path clip-path="url(#clip550)" d="M610.825 1389.89 L610.825 1391.97 L591.242 1391.97 Q591.52 1396.37 593.881 1398.68 Q596.265 1400.97 600.501 1400.97 Q602.955 1400.97 605.247 1400.37 Q607.562 1399.77 609.83 1398.57 L609.83 1402.59 Q607.538 1403.57 605.131 1404.08 Q602.724 1404.59 600.247 1404.59 Q594.043 1404.59 590.409 1400.97 Q586.798 1397.36 586.798 1391.21 Q586.798 1384.84 590.224 1381.11 Q593.673 1377.36 599.506 1377.36 Q604.737 1377.36 607.77 1380.74 Q610.825 1384.1 610.825 1389.89 M606.566 1388.64 Q606.52 1385.14 604.599 1383.06 Q602.7 1380.97 599.552 1380.97 Q595.988 1380.97 593.835 1382.99 Q591.705 1385 591.381 1388.66 L606.566 1388.64 Z" fill="#000000" fill-rule="nonzero" fill-opacity="1" /><path clip-path="url(#clip550)" d="M638.001 1382.97 Q639.598 1380.1 641.821 1378.73 Q644.043 1377.36 647.052 1377.36 Q651.103 1377.36 653.302 1380.21 Q655.501 1383.03 655.501 1388.27 L655.501 1403.91 L651.219 1403.91 L651.219 1388.41 Q651.219 1384.68 649.899 1382.87 Q648.58 1381.07 645.872 1381.07 Q642.561 1381.07 640.64 1383.27 Q638.719 1385.47 638.719 1389.26 L638.719 1403.91 L634.436 1403.91 L634.436 1388.41 Q634.436 1384.66 633.117 1382.87 Q631.798 1381.07 629.043 1381.07 Q625.779 1381.07 623.858 1383.29 Q621.936 1385.49 621.936 1389.26 L621.936 1403.91 L617.654 1403.91 L617.654 1377.99 L621.936 1377.99 L621.936 1382.02 Q623.395 1379.63 625.432 1378.5 Q627.469 1377.36 630.27 1377.36 Q633.094 1377.36 635.061 1378.8 Q637.052 1380.23 638.001 1382.97 Z" fill="#000000" fill-rule="nonzero" fill-opacity="1" /><path clip-path="url(#clip550)" d="M686.172 1389.89 L686.172 1391.97 L666.589 1391.97 Q666.867 1396.37 669.228 1398.68 Q671.612 1400.97 675.848 1400.97 Q678.302 1400.97 680.594 1400.37 Q682.908 1399.77 685.177 1398.57 L685.177 1402.59 Q682.885 1403.57 680.478 1404.08 Q678.07 1404.59 675.594 1404.59 Q669.39 1404.59 665.756 1400.97 Q662.145 1397.36 662.145 1391.21 Q662.145 1384.84 665.57 1381.11 Q669.02 1377.36 674.853 1377.36 Q680.084 1377.36 683.117 1380.74 Q686.172 1384.1 686.172 1389.89 M681.913 1388.64 Q681.867 1385.14 679.945 1383.06 Q678.047 1380.97 674.899 1380.97 Q671.334 1380.97 669.182 1382.99 Q667.052 1385 666.728 1388.66 L681.913 1388.64 Z" fill="#000000" fill-rule="nonzero" fill-opacity="1" /><path clip-path="url(#clip550)" d="M714.714 1388.27 L714.714 1403.91 L710.455 1403.91 L710.455 1388.41 Q710.455 1384.72 709.019 1382.9 Q707.584 1381.07 704.714 1381.07 Q701.265 1381.07 699.274 1383.27 Q697.283 1385.47 697.283 1389.26 L697.283 1403.91 L693.001 1403.91 L693.001 1377.99 L697.283 1377.99 L697.283 1382.02 Q698.811 1379.68 700.871 1378.52 Q702.955 1377.36 705.663 1377.36 Q710.13 1377.36 712.422 1380.14 Q714.714 1382.9 714.714 1388.27 Z" fill="#000000" fill-rule="nonzero" fill-opacity="1" /><path clip-path="url(#clip550)" d="M727.422 1370.63 L727.422 1377.99 L736.195 1377.99 L736.195 1381.3 L727.422 1381.3 L727.422 1395.37 Q727.422 1398.54 728.278 1399.45 Q729.158 1400.35 731.82 1400.35 L736.195 1400.35 L736.195 1403.91 L731.82 1403.91 Q726.89 1403.91 725.015 1402.09 Q723.14 1400.23 723.14 1395.37 L723.14 1381.3 L720.015 1381.3 L720.015 1377.99 L723.14 1377.99 L723.14 1370.63 L727.422 1370.63 Z" fill="#000000" fill-rule="nonzero" fill-opacity="1" /></svg>
