<?xml version="1.0" encoding="utf-8"?>
<svg xmlns="http://www.w3.org/2000/svg" xmlns:xlink="http://www.w3.org/1999/xlink" width="600" height="400" viewBox="0 0 2400 1600">
<defs>
  <clipPath id="clip130">
    <rect x="0" y="0" width="2400" height="1600"/>
  </clipPath>
</defs>
<path clip-path="url(#clip130)" d="M0 1600 L2400 1600 L2400 0 L0 0  Z" fill="#ffffff" fill-rule="evenodd" fill-opacity="1"/>
<defs>
  <clipPath id="clip131">
    <rect x="140" y="47" width="2213" height="1440"/>
  </clipPath>
</defs>
<path clip-path="url(#clip130)" d="M140.51 1486.45 L2352.76 1486.45 L2352.76 47.2441 L140.51 47.2441  Z" fill="#ffffff" fill-rule="evenodd" fill-opacity="1"/>
<polyline clip-path="url(#clip131)" style="stroke:#000000; stroke-linecap:round; stroke-linejoin:round; stroke-width:2; stroke-opacity:0.1; fill:none" points="353.247,1486.45 353.247,47.2441 "/>
<polyline clip-path="url(#clip131)" style="stroke:#000000; stroke-linecap:round; stroke-linejoin:round; stroke-width:2; stroke-opacity:0.1; fill:none" points="786.959,1486.45 786.959,47.2441 "/>
<polyline clip-path="url(#clip131)" style="stroke:#000000; stroke-linecap:round; stroke-linejoin:round; stroke-width:2; stroke-opacity:0.1; fill:none" points="1220.67,1486.45 1220.67,47.2441 "/>
<polyline clip-path="url(#clip131)" style="stroke:#000000; stroke-linecap:round; stroke-linejoin:round; stroke-width:2; stroke-opacity:0.1; fill:none" points="1654.38,1486.45 1654.38,47.2441 "/>
<polyline clip-path="url(#clip131)" style="stroke:#000000; stroke-linecap:round; stroke-linejoin:round; stroke-width:2; stroke-opacity:0.1; fill:none" points="2088.09,1486.45 2088.09,47.2441 "/>
<polyline clip-path="url(#clip131)" style="stroke:#000000; stroke-linecap:round; stroke-linejoin:round; stroke-width:2; stroke-opacity:0.1; fill:none" points="140.51,1179.16 2352.76,1179.16 "/>
<polyline clip-path="url(#clip131)" style="stroke:#000000; stroke-linecap:round; stroke-linejoin:round; stroke-width:2; stroke-opacity:0.1; fill:none" points="140.51,871.715 2352.76,871.715 "/>
<polyline clip-path="url(#clip131)" style="stroke:#000000; stroke-linecap:round; stroke-linejoin:round; stroke-width:2; stroke-opacity:0.1; fill:none" points="140.51,564.27 2352.76,564.27 "/>
<polyline clip-path="url(#clip131)" style="stroke:#000000; stroke-linecap:round; stroke-linejoin:round; stroke-width:2; stroke-opacity:0.1; fill:none" points="140.51,256.825 2352.76,256.825 "/>
<polyline clip-path="url(#clip130)" style="stroke:#000000; stroke-linecap:round; stroke-linejoin:round; stroke-width:4; stroke-opacity:1; fill:none" points="140.51,1486.45 2352.76,1486.45 "/>
<polyline clip-path="url(#clip130)" style="stroke:#000000; stroke-linecap:round; stroke-linejoin:round; stroke-width:4; stroke-opacity:1; fill:none" points="353.247,1486.45 353.247,1467.55 "/>
<polyline clip-path="url(#clip130)" style="stroke:#000000; stroke-linecap:round; stroke-linejoin:round; stroke-width:4; stroke-opacity:1; fill:none" points="786.959,1486.45 786.959,1467.55 "/>
<polyline clip-path="url(#clip130)" style="stroke:#000000; stroke-linecap:round; stroke-linejoin:round; stroke-width:4; stroke-opacity:1; fill:none" points="1220.67,1486.45 1220.67,1467.55 "/>
<polyline clip-path="url(#clip130)" style="stroke:#000000; stroke-linecap:round; stroke-linejoin:round; stroke-width:4; stroke-opacity:1; fill:none" points="1654.38,1486.45 1654.38,1467.55 "/>
<polyline clip-path="url(#clip130)" style="stroke:#000000; stroke-linecap:round; stroke-linejoin:round; stroke-width:4; stroke-opacity:1; fill:none" points="2088.09,1486.45 2088.09,1467.55 "/>
<path clip-path="url(#clip130)" d="M307.31 1532.02 L336.986 1532.02 L336.986 1535.95 L307.31 1535.95 L307.31 1532.02 Z" fill="#000000" fill-rule="nonzero" fill-opacity="1" /><path clip-path="url(#clip130)" d="M361.245 1530.21 Q364.601 1530.93 366.476 1533.2 Q368.374 1535.47 368.374 1538.8 Q368.374 1543.92 364.856 1546.72 Q361.337 1549.52 354.856 1549.52 Q352.68 1549.52 350.365 1549.08 Q348.074 1548.66 345.62 1547.81 L345.62 1543.29 Q347.564 1544.43 349.879 1545.01 Q352.194 1545.58 354.717 1545.58 Q359.115 1545.58 361.407 1543.85 Q363.722 1542.11 363.722 1538.8 Q363.722 1535.75 361.569 1534.03 Q359.439 1532.3 355.62 1532.3 L351.592 1532.3 L351.592 1528.45 L355.805 1528.45 Q359.254 1528.45 361.083 1527.09 Q362.911 1525.7 362.911 1523.11 Q362.911 1520.45 361.013 1519.03 Q359.138 1517.6 355.62 1517.6 Q353.699 1517.6 351.5 1518.01 Q349.3 1518.43 346.662 1519.31 L346.662 1515.14 Q349.324 1514.4 351.638 1514.03 Q353.976 1513.66 356.037 1513.66 Q361.361 1513.66 364.462 1516.09 Q367.564 1518.5 367.564 1522.62 Q367.564 1525.49 365.921 1527.48 Q364.277 1529.45 361.245 1530.21 Z" fill="#000000" fill-rule="nonzero" fill-opacity="1" /><path clip-path="url(#clip130)" d="M387.24 1517.37 Q383.629 1517.37 381.8 1520.93 Q379.995 1524.47 379.995 1531.6 Q379.995 1538.71 381.8 1542.27 Q383.629 1545.82 387.24 1545.82 Q390.874 1545.82 392.68 1542.27 Q394.509 1538.71 394.509 1531.6 Q394.509 1524.47 392.68 1520.93 Q390.874 1517.37 387.24 1517.37 M387.24 1513.66 Q393.05 1513.66 396.106 1518.27 Q399.184 1522.85 399.184 1531.6 Q399.184 1540.33 396.106 1544.94 Q393.05 1549.52 387.24 1549.52 Q381.43 1549.52 378.351 1544.94 Q375.296 1540.33 375.296 1531.6 Q375.296 1522.85 378.351 1518.27 Q381.43 1513.66 387.24 1513.66 Z" fill="#000000" fill-rule="nonzero" fill-opacity="1" /><path clip-path="url(#clip130)" d="M786.959 1517.37 Q783.348 1517.37 781.519 1520.93 Q779.713 1524.47 779.713 1531.6 Q779.713 1538.71 781.519 1542.27 Q783.348 1545.82 786.959 1545.82 Q790.593 1545.82 792.399 1542.27 Q794.227 1538.71 794.227 1531.6 Q794.227 1524.47 792.399 1520.93 Q790.593 1517.37 786.959 1517.37 M786.959 1513.66 Q792.769 1513.66 795.824 1518.27 Q798.903 1522.85 798.903 1531.6 Q798.903 1540.33 795.824 1544.94 Q792.769 1549.52 786.959 1549.52 Q781.149 1549.52 778.07 1544.94 Q775.014 1540.33 775.014 1531.6 Q775.014 1522.85 778.07 1518.27 Q781.149 1513.66 786.959 1513.66 Z" fill="#000000" fill-rule="nonzero" fill-opacity="1" /><path clip-path="url(#clip130)" d="M1209.51 1530.21 Q1212.87 1530.93 1214.74 1533.2 Q1216.64 1535.47 1216.64 1538.8 Q1216.64 1543.92 1213.12 1546.72 Q1209.61 1549.52 1203.12 1549.52 Q1200.95 1549.52 1198.63 1549.08 Q1196.34 1548.66 1193.89 1547.81 L1193.89 1543.29 Q1195.83 1544.43 1198.15 1545.01 Q1200.46 1545.58 1202.99 1545.58 Q1207.38 1545.58 1209.67 1543.85 Q1211.99 1542.11 1211.99 1538.8 Q1211.99 1535.75 1209.84 1534.03 Q1207.71 1532.3 1203.89 1532.3 L1199.86 1532.3 L1199.86 1528.45 L1204.07 1528.45 Q1207.52 1528.45 1209.35 1527.09 Q1211.18 1525.7 1211.18 1523.11 Q1211.18 1520.45 1209.28 1519.03 Q1207.41 1517.6 1203.89 1517.6 Q1201.97 1517.6 1199.77 1518.01 Q1197.57 1518.43 1194.93 1519.31 L1194.93 1515.14 Q1197.59 1514.4 1199.91 1514.03 Q1202.24 1513.66 1204.3 1513.66 Q1209.63 1513.66 1212.73 1516.09 Q1215.83 1518.5 1215.83 1522.62 Q1215.83 1525.49 1214.19 1527.48 Q1212.55 1529.45 1209.51 1530.21 Z" fill="#000000" fill-rule="nonzero" fill-opacity="1" /><path clip-path="url(#clip130)" d="M1235.51 1517.37 Q1231.9 1517.37 1230.07 1520.93 Q1228.26 1524.47 1228.26 1531.6 Q1228.26 1538.71 1230.07 1542.27 Q1231.9 1545.82 1235.51 1545.82 Q1239.14 1545.82 1240.95 1542.27 Q1242.78 1538.71 1242.78 1531.6 Q1242.78 1524.47 1240.95 1520.93 Q1239.14 1517.37 1235.51 1517.37 M1235.51 1513.66 Q1241.32 1513.66 1244.37 1518.27 Q1247.45 1522.85 1247.45 1531.6 Q1247.45 1540.33 1244.37 1544.94 Q1241.32 1549.52 1235.51 1549.52 Q1229.7 1549.52 1226.62 1544.94 Q1223.56 1540.33 1223.56 1531.6 Q1223.56 1522.85 1226.62 1518.27 Q1229.7 1513.66 1235.51 1513.66 Z" fill="#000000" fill-rule="nonzero" fill-opacity="1" /><path clip-path="url(#clip130)" d="M1639.79 1529.7 Q1636.64 1529.7 1634.79 1531.86 Q1632.96 1534.01 1632.96 1537.76 Q1632.96 1541.49 1634.79 1543.66 Q1636.64 1545.82 1639.79 1545.82 Q1642.94 1545.82 1644.76 1543.66 Q1646.62 1541.49 1646.62 1537.76 Q1646.62 1534.01 1644.76 1531.86 Q1642.94 1529.7 1639.79 1529.7 M1649.07 1515.05 L1649.07 1519.31 Q1647.31 1518.48 1645.5 1518.04 Q1643.72 1517.6 1641.96 1517.6 Q1637.33 1517.6 1634.88 1520.72 Q1632.45 1523.85 1632.1 1530.17 Q1633.47 1528.15 1635.53 1527.09 Q1637.59 1526 1640.06 1526 Q1645.27 1526 1648.28 1529.17 Q1651.31 1532.32 1651.31 1537.76 Q1651.31 1543.08 1648.17 1546.3 Q1645.02 1549.52 1639.79 1549.52 Q1633.79 1549.52 1630.62 1544.94 Q1627.45 1540.33 1627.45 1531.6 Q1627.45 1523.41 1631.34 1518.55 Q1635.23 1513.66 1641.78 1513.66 Q1643.54 1513.66 1645.32 1514.01 Q1647.12 1514.36 1649.07 1515.05 Z" fill="#000000" fill-rule="nonzero" fill-opacity="1" /><path clip-path="url(#clip130)" d="M1669.37 1517.37 Q1665.76 1517.37 1663.93 1520.93 Q1662.12 1524.47 1662.12 1531.6 Q1662.12 1538.71 1663.93 1542.27 Q1665.76 1545.82 1669.37 1545.82 Q1673 1545.82 1674.81 1542.27 Q1676.64 1538.71 1676.64 1531.6 Q1676.64 1524.47 1674.81 1520.93 Q1673 1517.37 1669.37 1517.37 M1669.37 1513.66 Q1675.18 1513.66 1678.24 1518.27 Q1681.31 1522.85 1681.31 1531.6 Q1681.31 1540.33 1678.24 1544.94 Q1675.18 1549.52 1669.37 1549.52 Q1663.56 1549.52 1660.48 1544.94 Q1657.43 1540.33 1657.43 1531.6 Q1657.43 1522.85 1660.48 1518.27 Q1663.56 1513.66 1669.37 1513.66 Z" fill="#000000" fill-rule="nonzero" fill-opacity="1" /><path clip-path="url(#clip130)" d="M2063.22 1548.13 L2063.22 1543.87 Q2064.98 1544.7 2066.79 1545.14 Q2068.59 1545.58 2070.33 1545.58 Q2074.96 1545.58 2077.39 1542.48 Q2079.84 1539.36 2080.19 1533.01 Q2078.85 1535.01 2076.79 1536.07 Q2074.73 1537.13 2072.23 1537.13 Q2067.04 1537.13 2064.01 1534.01 Q2061 1530.86 2061 1525.42 Q2061 1520.1 2064.15 1516.88 Q2067.29 1513.66 2072.53 1513.66 Q2078.52 1513.66 2081.67 1518.27 Q2084.84 1522.85 2084.84 1531.6 Q2084.84 1539.77 2080.95 1544.66 Q2077.09 1549.52 2070.54 1549.52 Q2068.78 1549.52 2066.97 1549.17 Q2065.17 1548.82 2063.22 1548.13 M2072.53 1533.48 Q2075.67 1533.48 2077.5 1531.32 Q2079.36 1529.17 2079.36 1525.42 Q2079.36 1521.7 2077.5 1519.54 Q2075.67 1517.37 2072.53 1517.37 Q2069.38 1517.37 2067.53 1519.54 Q2065.7 1521.7 2065.7 1525.42 Q2065.7 1529.17 2067.53 1531.32 Q2069.38 1533.48 2072.53 1533.48 Z" fill="#000000" fill-rule="nonzero" fill-opacity="1" /><path clip-path="url(#clip130)" d="M2103.24 1517.37 Q2099.63 1517.37 2097.8 1520.93 Q2096 1524.47 2096 1531.6 Q2096 1538.71 2097.8 1542.27 Q2099.63 1545.82 2103.24 1545.82 Q2106.88 1545.82 2108.68 1542.27 Q2110.51 1538.71 2110.51 1531.6 Q2110.51 1524.47 2108.68 1520.93 Q2106.88 1517.37 2103.24 1517.37 M2103.24 1513.66 Q2109.05 1513.66 2112.11 1518.27 Q2115.19 1522.85 2115.19 1531.6 Q2115.19 1540.33 2112.11 1544.94 Q2109.05 1549.52 2103.24 1549.52 Q2097.43 1549.52 2094.35 1544.94 Q2091.3 1540.33 2091.3 1531.6 Q2091.3 1522.85 2094.35 1518.27 Q2097.43 1513.66 2103.24 1513.66 Z" fill="#000000" fill-rule="nonzero" fill-opacity="1" /><polyline clip-path="url(#clip130)" style="stroke:#000000; stroke-linecap:round; stroke-linejoin:round; stroke-width:4; stroke-opacity:1; fill:none" points="140.51,1486.45 140.51,47.2441 "/>
<polyline clip-path="url(#clip130)" style="stroke:#000000; stroke-linecap:round; stroke-linejoin:round; stroke-width:4; stroke-opacity:1; fill:none" points="140.51,1179.16 159.408,1179.16 "/>
<polyline clip-path="url(#clip130)" style="stroke:#000000; stroke-linecap:round; stroke-linejoin:round; stroke-width:4; stroke-opacity:1; fill:none" points="140.51,871.715 159.408,871.715 "/>
<polyline clip-path="url(#clip130)" style="stroke:#000000; stroke-linecap:round; stroke-linejoin:round; stroke-width:4; stroke-opacity:1; fill:none" points="140.51,564.27 159.408,564.27 "/>
<polyline clip-path="url(#clip130)" style="stroke:#000000; stroke-linecap:round; stroke-linejoin:round; stroke-width:4; stroke-opacity:1; fill:none" points="140.51,256.825 159.408,256.825 "/>
<path clip-path="url(#clip130)" d="M92.566 1164.96 Q88.9549 1164.96 87.1262 1168.52 Q85.3206 1172.06 85.3206 1179.19 Q85.3206 1186.3 87.1262 1189.87 Q88.9549 1193.41 92.566 1193.41 Q96.2002 1193.41 98.0058 1189.87 Q99.8345 1186.3 99.8345 1179.19 Q99.8345 1172.06 98.0058 1168.52 Q96.2002 1164.96 92.566 1164.96 M92.566 1161.25 Q98.3761 1161.25 101.432 1165.86 Q104.51 1170.44 104.51 1179.19 Q104.51 1187.92 101.432 1192.53 Q98.3761 1197.11 92.566 1197.11 Q86.7558 1197.11 83.6771 1192.53 Q80.6216 1187.92 80.6216 1179.19 Q80.6216 1170.44 83.6771 1165.86 Q86.7558 1161.25 92.566 1161.25 Z" fill="#000000" fill-rule="nonzero" fill-opacity="1" /><path clip-path="url(#clip130)" d="M57.4273 885.06 L73.7466 885.06 L73.7466 888.995 L51.8023 888.995 L51.8023 885.06 Q54.4643 882.305 59.0476 877.675 Q63.6541 873.023 64.8346 871.68 Q67.08 869.157 67.9596 867.421 Q68.8624 865.662 68.8624 863.972 Q68.8624 861.217 66.918 859.481 Q64.9967 857.745 61.8948 857.745 Q59.6958 857.745 57.2421 858.509 Q54.8115 859.273 52.0338 860.824 L52.0338 856.102 Q54.8578 854.967 57.3115 854.389 Q59.7652 853.81 61.8023 853.81 Q67.1726 853.81 70.367 856.495 Q73.5614 859.18 73.5614 863.671 Q73.5614 865.801 72.7513 867.722 Q71.9642 869.62 69.8578 872.213 Q69.2791 872.884 66.1772 876.101 Q63.0754 879.296 57.4273 885.06 Z" fill="#000000" fill-rule="nonzero" fill-opacity="1" /><path clip-path="url(#clip130)" d="M83.6077 854.435 L101.964 854.435 L101.964 858.37 L87.8901 858.37 L87.8901 866.842 Q88.9086 866.495 89.9271 866.333 Q90.9456 866.148 91.9641 866.148 Q97.7511 866.148 101.131 869.319 Q104.51 872.49 104.51 877.907 Q104.51 883.486 101.038 886.587 Q97.566 889.666 91.2465 889.666 Q89.0706 889.666 86.8021 889.296 Q84.5568 888.925 82.1494 888.185 L82.1494 883.486 Q84.2327 884.62 86.4549 885.175 Q88.6771 885.731 91.1539 885.731 Q95.1586 885.731 97.4965 883.625 Q99.8345 881.518 99.8345 877.907 Q99.8345 874.296 97.4965 872.189 Q95.1586 870.083 91.1539 870.083 Q89.279 870.083 87.404 870.5 Q85.5521 870.916 83.6077 871.796 L83.6077 854.435 Z" fill="#000000" fill-rule="nonzero" fill-opacity="1" /><path clip-path="url(#clip130)" d="M52.4505 546.99 L70.8068 546.99 L70.8068 550.925 L56.7328 550.925 L56.7328 559.397 Q57.7513 559.05 58.7699 558.888 Q59.7884 558.703 60.8069 558.703 Q66.5939 558.703 69.9735 561.874 Q73.3531 565.045 73.3531 570.462 Q73.3531 576.041 69.8809 579.143 Q66.4087 582.221 60.0893 582.221 Q57.9134 582.221 55.6449 581.851 Q53.3995 581.481 50.9921 580.74 L50.9921 576.041 Q53.0754 577.175 55.2977 577.731 Q57.5199 578.286 59.9967 578.286 Q64.0013 578.286 66.3393 576.18 Q68.6772 574.073 68.6772 570.462 Q68.6772 566.851 66.3393 564.744 Q64.0013 562.638 59.9967 562.638 Q58.1217 562.638 56.2467 563.055 Q54.3949 563.471 52.4505 564.351 L52.4505 546.99 Z" fill="#000000" fill-rule="nonzero" fill-opacity="1" /><path clip-path="url(#clip130)" d="M92.566 550.069 Q88.9549 550.069 87.1262 553.633 Q85.3206 557.175 85.3206 564.305 Q85.3206 571.411 87.1262 574.976 Q88.9549 578.518 92.566 578.518 Q96.2002 578.518 98.0058 574.976 Q99.8345 571.411 99.8345 564.305 Q99.8345 557.175 98.0058 553.633 Q96.2002 550.069 92.566 550.069 M92.566 546.365 Q98.3761 546.365 101.432 550.971 Q104.51 555.555 104.51 564.305 Q104.51 573.031 101.432 577.638 Q98.3761 582.221 92.566 582.221 Q86.7558 582.221 83.6771 577.638 Q80.6216 573.031 80.6216 564.305 Q80.6216 555.555 83.6771 550.971 Q86.7558 546.365 92.566 546.365 Z" fill="#000000" fill-rule="nonzero" fill-opacity="1" /><path clip-path="url(#clip130)" d="M52.219 239.545 L74.4411 239.545 L74.4411 241.536 L61.8948 274.105 L57.0106 274.105 L68.8161 243.48 L52.219 243.48 L52.219 239.545 Z" fill="#000000" fill-rule="nonzero" fill-opacity="1" /><path clip-path="url(#clip130)" d="M83.6077 239.545 L101.964 239.545 L101.964 243.48 L87.8901 243.48 L87.8901 251.952 Q88.9086 251.605 89.9271 251.443 Q90.9456 251.258 91.9641 251.258 Q97.7511 251.258 101.131 254.429 Q104.51 257.6 104.51 263.017 Q104.51 268.596 101.038 271.698 Q97.566 274.776 91.2465 274.776 Q89.0706 274.776 86.8021 274.406 Q84.5568 274.036 82.1494 273.295 L82.1494 268.596 Q84.2327 269.73 86.4549 270.286 Q88.6771 270.841 91.1539 270.841 Q95.1586 270.841 97.4965 268.735 Q99.8345 266.628 99.8345 263.017 Q99.8345 259.406 97.4965 257.3 Q95.1586 255.193 91.1539 255.193 Q89.279 255.193 87.404 255.61 Q85.5521 256.026 83.6077 256.906 L83.6077 239.545 Z" fill="#000000" fill-rule="nonzero" fill-opacity="1" /><polyline clip-path="url(#clip131)" style="stroke:#0000ff; stroke-linecap:round; stroke-linejoin:round; stroke-width:4; stroke-opacity:1; fill:none" points="203.121,717.067 233.31,722.319 236.401,718.265 247.111,717.801 253.963,717.647 277.03,719.35 299.827,722.747 327.206,724.965 354.257,727.308 385.304,731.991 414.446,731.954 440.188,732.371 475.858,733.444 498.739,739.128 522.336,742.913 557.38,747.125 583.317,749.002 604.979,753.249 633.428,759.325 657.181,766.621 680.319,774.885 703.84,781.972 731.059,789.023 753.826,797.5 779.214,803.378 810.112,811.5 832.922,811.846 867.312,813.791 893.509,821.321 920.641,828.381 951.179,837.749 976.07,846.235 1001.92,853.532 1020.23,863.609 1037.82,875.758 1046.09,881.525 1066.88,884.675 1084.18,886.761 1105.35,887.914 1131.06,891.054 1157.48,900.656 1185.04,910.699 1207.69,915.602 1233.53,919.606 1265.3,921.707 1294.24,922.68 1326.92,926.873 1355.02,931.533 1381.42,935.317 1407,937.937 1438.92,937.903 1463.56,937.423 1490.85,936.648 1518.02,933.577 1546.75,928.665 1574.86,929.333 1602.06,927.595 1627.99,927.821 1648.88,921.62 1667.61,918.362 1684.6,911.619 1702.12,905.011 1723.28,904.645 1745.86,902.678 1768.27,904.221 1787.46,907.631 1809.24,914.195 1828.99,925.499 1850.51,938.113 1866.33,949.096 1882.9,965.658 1893.92,979.684 1901.71,993.74 1911.13,1012.87 1922.67,1031.04 1934.61,1049.58 1944.74,1060.9 1962.56,1068.19 1977.08,1070.85 1986.96,1070.54 2008.97,1064.96 2025.75,1059.67 2046.29,1039.86 2058.25,1023.92 2062.96,1003 2065.68,983.997 2063.8,962.184 2051.09,945.909 2033.73,937.687 2010.33,928.281 1981.93,930.44 1955.54,929.134 1934,926.425 1915.12,924.187 1892.1,922.693 1872.23,928.723 1850.92,935.514 1833.82,943.3 1810.57,945.948 1785.84,945.263 1758.68,941.91 1735.75,931.872 1712.65,920.976 1682.07,905.058 1656.38,887.77 1633.89,869.574 1618.75,854.715 1607.34,841.395 1591.1,827.64 1576.44,810.96 1564.9,795.231 1556.29,778.624 1555.95,763.408 1567.49,747.408 1581.78,734.841 1602.56,727.771 1622.73,727.549 1650.76,728.161 1670.7,739.382 1692.59,747.377 1707.22,753.285 1730.41,760.243 1752.99,771.857 1765.6,781.443 1782.64,791.727 1801.06,802.564 1822.61,810.06 1842.81,811.944 1864.32,813.035 1888.57,806.902 1909.47,802.469 1925.67,801.349 1944.34,808.136 1960.71,819.157 1975.52,835.177 1986.41,851.497 1994.78,871.238 2002.71,892.97 2006.23,912.413 2005.93,933.19 2006.08,944.358 2009.3,957.823 2019.2,976.271 2026.46,993.785 2038.31,1008.93 2049.18,1016.35 2062.43,1020.4 2080.59,1016.96 2099.02,1009.48 2113.54,999.942 2130.58,987.513 2139.93,978.644 2143.88,960.164 2133.59,942.145 2114.67,924.369 2100.8,907.222 2080.26,895.274 2051.53,889.798 2024.57,884.67 2006.3,882.043 1981.79,880.575 1960.87,879.111 1942.4,870.117 1926.88,863.978 1905.22,857.545 1888.45,856.917 1866.71,858.82 1846.48,853.51 1825.73,848.326 1805.74,846.975 1781.43,843.677 1762.7,839.182 1745.05,834.404 1723.82,832.789 1697.03,834.331 1670.57,840.276 1654.23,839.208 1648.42,831.66 1644.04,828.822 1637.19,827.034 1626.61,826.045 1617.94,825.333 1604.7,828.956 1590.9,835.074 1564.42,839.55 1542.89,843.471 1528.09,849.526 1518.17,858.355 1524.79,859.616 1537.62,857.585 1570.4,853.999 1590.92,837.097 1607.1,821.995 1614.67,806.816 1607.58,789.93 1592.96,770.785 1581.93,760.719 1572.58,739.839 1553.54,729.181 1532.34,738.851 1509.93,739.606 1480.61,735.488 1476.29,718.657 1471.62,699.511 1472.89,677.847 1476.52,660.97 1492.14,639.063 1499.01,619.407 1502.29,596.025 1486.63,583.177 1465.25,575.351 1454.81,573.513 1463.63,560.922 1484.08,550.669 1518.78,548.631 1558.64,535.269 1584.33,517.983 1602.88,493.153 1618.24,471.901 1637.77,462.984 1664.83,466.148 1688.57,471.954 1708.22,488.635 1736.14,501.93 1756.23,518.477 1766.21,539.012 1754.89,555.679 1736.76,572.403 1709.44,585.006 1676.38,591.448 1650.86,591.551 1617.42,576.333 1591.46,561.107 1580.45,540.166 1578.64,518.281 1595.7,503.025 1611.71,493.421 1634.52,478.238 1659.57,470.268 1682.38,454.84 1703.95,442.033 1724.1,441.04 1747.79,427.002 1751.08,413.116 1761.59,395.087 1773.82,390.708 1791.71,372.258 1784.86,359.494 1763.79,349.12 1759.94,346.941 1770.7,342.711 1794.37,336.648 1823.35,341.322 1848.32,343.299 1875.95,347.896 1900.14,365.71 1905.18,384.112 1900.95,395.548 1880.94,407.687 1864.42,430.225 1848.49,456.832 1839.64,489.769 1840.61,510.611 1804.9,513.363 1781.08,528.75 1748.67,535.155 1718.32,552.07 1701.78,577.553 1681.67,594.695 1653.79,589.894 1631.64,578.059 1604.09,569.152 1588.95,556.876 1563.03,541.158 1554.87,533.922 1562.59,512.887 1586.58,503.553 1620.51,496.92 1649.08,500.3 1684.97,507.074 1713.1,522.458 1721.71,543.338 1736.27,563.721 1751.85,569.11 1779.12,574.646 1802.22,584.445 1812.39,586.903 1838.94,579.865 1862.74,571.142 1881.98,562.419 1902.23,564.606 1922.22,579.964 1921.9,596.946 1921.41,618.056 1908.87,650.264 1888.76,676.171 1863.69,694.995 1840.36,725.028 1838.17,750.264 1803.43,762.96 1775.53,767.902 1747.63,781.578 1721.22,796.068 1704.02,815.062 1687.12,836.354 1661.56,859.949 1634.63,868.69 1607.21,860.012 1583.72,853.816 1551.85,849.843 1523.46,841.698 1504.1,820.932 1490.18,801.409 1458.99,777.917 1440.94,759.571 1416.61,740.495 1391.56,737.672 1360.69,743.829 1342.13,742.234 1316.74,732.972 1311.73,707.681 1295.03,699.491 1270.7,703.374 1252.13,711.486 1227.65,729.195 1221.37,735.448 1190.65,739.465 1167.76,744.789 1141.95,738.176 1121.22,720.396 1098.25,707.47 1062.88,701.887 1030.77,692.732 1008.43,687.76 986.509,677.627 965.87,656.599 965.312,643.584 975.573,623.631 991.759,603.653 1002.96,580.845 1008.79,550.263 1015.88,525.642 1001.86,505.408 982.975,500.904 971.344,489.775 974.655,475.99 1001.64,476.068 1036.7,479.453 1078.44,477.13 1112.81,472.626 1140.96,454.88 1165.01,430.01 1189.8,410.711 1221.62,403.753 1260.18,406.158 1292.33,418.037 1323.76,432.972 1354.32,446.231 1381.31,458.1 1402.93,472.017 1439.1,479.808 1465.2,493.713 1492.16,516.739 1521.63,543.53 1549.99,559.088 1574.4,569.947 1592.85,580.537 1602.96,571.825 1624.22,561.409 1650.85,547.324 1674,538.609 1703.58,527.207 1735.8,525.491 1772.08,534.598 1799.92,560.087 1806.68,581.738 1803.36,612.816 1786.51,644.636 1783.6,672.169 1775.64,704.244 1775.19,738.588 1790.69,770.061 1822.14,794.739 1862.5,793.362 1884.88,795.242 1915.97,802.8 1935.92,824.224 1961.08,849.803 1981.25,881.299 1994.21,914.101 1999.79,936.972 2015.4,920.511 2051.07,923.707 2077.96,930.316 2090.61,944.994 2092.57,949.865 2094.1,954.521 2098.75,970.806 2101.55,976.66 2114.24,980.987 2129.89,982.657 2158.81,977.421 2188.8,986.61 2201.72,999.162 2215.47,1020.05 2214.92,1033.48 2218.73,1022.4 2223.48,1005.01 2222.87,977.876 2213.26,950.485 2197.11,926.777 2186.37,903.97 2186.68,884.478 2159.37,861.323 2152.81,830.565 2156.43,806.257 2175.21,795.1 2195.8,796.052 2219.72,804.607 2236.72,817.157 2248.37,836.457 2273.32,859.761 2288.78,881.733 2280.42,908.859 2260.85,930.664 2243.21,950.378 2212.48,962.531 2194.18,981.137 2165.72,994.256 2138.88,1017.39 2120.49,1038.91 2109.34,1063.04 2089.37,1085.4 2070.94,1107.55 2045.68,1125.24 2019.36,1135.85 1989.4,1152.11 1963.66,1170.63 1934.77,1179.01 1905.66,1198.21 1889.52,1215.59 1857.59,1228.95 1838,1242.04 1819.92,1262.64 1801.89,1289.76 1794.36,1309.67 1789.45,1330 1781.52,1355.69 1804.11,1376.99 1815.58,1390.57 1807.08,1413.72 1799.63,1440.28 1780.51,1444.02 1757.5,1442.45 1735.68,1424.99 1723.31,1398.09 1708.43,1376.36 1684.44,1353.01 1645.85,1326.45 1614.51,1319.62 1580.6,1318.69 1542.76,1325.34 1501.31,1335.01 1473.97,1336.74 1438.59,1325.38 1412.6,1312.62 1391.85,1287.76 1389.92,1254.15 1386.17,1214.59 1365.37,1188.21 1344.44,1166.97 1348.15,1135.33 1346.56,1108.53 1339.82,1083.6 1326.55,1055.42 1307.13,1030.85 1301.4,1004.56 1307.9,971.357 1316.99,937.568 1335.92,908.795 1352.57,877.847 1365.5,845.082 1393.03,824.071 1388.23,796.059 1372.09,772.145 1342.96,749.451 1310.24,746.324 1288.34,733.081 1280.26,707.494 1277.62,675.438 1289.35,647.933 1304.18,626.625 1326,616.547 1356.47,605.397 1392.7,599.924 1433.29,596.307 1472.94,596.501 1502.17,588.415 1525.57,562.052 1543.41,540.811 1571.23,528.34 1594.35,522.251 1597.88,507.877 1583.55,493.422 1560.73,478.6 1535.88,465.978 1507.48,439.553 1485.24,413.677 1471.28,387.669 1453.62,366.601 1450.84,349.356 1457.7,329.159 1474.91,318.711 1492.57,327.594 1523.13,332.602 1562.26,334.285 1596.23,342.413 1637.58,348.496 1671.71,353.002 1703.45,367.92 1728.24,374.879 1754.29,366.33 1777.89,356.197 1808.75,350.463 1840.55,351.274 1872.27,345.735 1895,360.028 1907.3,375.716 1911.42,371.598 1922.27,354.459 1939.88,338.004 1957.8,327.356 1982.03,311.492 2000.96,303.577 1992.52,304.259 1970.09,293.022 1959.71,276.626 1947.36,247.136 1951.29,217.648 1962.2,201.009 1990.8,191.415 2023.97,194.363 2048.95,198.392 2083.01,202.104 2119.4,214.548 2142.58,236.802 2148.68,265.442 2141.39,292.258 2129.89,301.371 2132.98,317.491 2137.74,339.308 2133.1,371.088 2104.22,388.3 2084.72,423.526 2057.24,445.695 2033.18,471.526 2026.31,505.942 2001.79,514.46 1965.16,515.735 1929.02,527.459 1897.29,540.839 1881.73,568.054 1871.26,599.166 1869,615.076 1895.24,621.131 1924.86,633.547 1962.64,648.504 1998.08,672.041 2025.41,687.499 2063.85,692.94 2099.29,692.997 2138.53,689.507 2167.46,693.842 2194.44,692.82 2204.28,678.484 2218.64,659.041 2234.43,638.465 2232.83,613.156 2229.06,595.11 2218.99,570.619 2193.09,549.192 2170.93,531.073 2146.62,515.958 2105.12,516.854 2080.51,524.027 2055.22,541.049 2037.97,560.305 2011.62,585.933 2006.9,615.853 2012.35,647.689 2015.86,677.759 2034.26,704.466 2046.21,730.317 2060.27,763.07 2075.51,793.101 2107.24,805.645 2136.95,822.911 2162.03,849.944 2184.12,872.923 2196.94,905.376 2205.62,930.408 2202.99,942.089 2170.66,943.465 2133.08,957.043 2106.45,956.005 2090.26,961.566 2069.42,966.369 2046.72,961.99 2015.46,947.963 1984.91,939.723 1948.2,942.986 1903.78,955.733 1865.91,969.554 1827.38,970.743 1783.95,977.3 1746.22,979.57 1707.24,980.458 1675.01,974.131 1640.03,978.354 1606.95,972.979 1574.52,965.602 1540.65,935.679 1512.26,920.21 1474.29,912.417 1440.89,896.283 1410.38,880.9 1378.88,859.373 1352.19,851.451 1325.25,865.91 1300.62,882.668 1271.48,897.998 1233.86,916.118 1195.95,924.212 1166.8,919.699 1138.51,896.321 1120.3,871.965 1102.22,842.339 1076.6,816.75 1066.1,786.817 1061.18,758.333 1063.11,735.111 1049.2,704.441 1027.17,687.605 997.919,676.609 978.677,654.485 969.854,623.055 968.254,599.954 956.626,572.829 965.945,546.61 985.558,519.12 997.383,502.199 1011.04,495.475 1021.41,480.896 1026.59,464.735 1032.86,441.277 1039.05,417.217 1043.93,388.739 1056.69,355.206 1057.26,332.327 1036.03,313.587 1017.48,299.553 989.537,299.915 961.388,308.11 933.695,303.894 902.836,289.482 864.651,275.673 841.192,269.87 818.393,265.09 803.088,247.039 801.322,225.937 816.33,207.794 839.535,188.659 862.787,171.493 905.587,161.237 934.83,147.759 969.479,142.149 1000.59,152.392 1028.94,159.737 1062.61,155.636 1095.65,149.631 1116.93,129.176 1132.77,109.946 1145.55,88.6066 "/>
<polyline clip-path="url(#clip131)" style="stroke:#ff0000; stroke-linecap:round; stroke-linejoin:round; stroke-width:4; stroke-opacity:1; fill:none" points="204.036,716.873 234.989,723.268 237.649,714.377 259.175,715.68 262.616,716.381 290.128,722.075 307.317,725.629 336.607,725.383 361.574,727.4 392.541,733.795 419.287,729.884 440.814,731.176 483.881,733.783 495.88,742.563 520.862,744.568 563.944,747.175 582.044,747.765 601.836,755.009 636.287,762.117 656.094,769.36 679.355,777.317 703.484,782.298 734.509,788.705 753.462,798.924 781.928,801.654 815.569,811.763 831.964,805.688 874.25,811.271 892.365,824.479 919.978,830.185 953.663,840.294 973.527,847.55 1001.17,853.256 1015.86,865.763 1034.03,878.983 1037.49,879.696 1070.32,880.163 1084.14,883.029 1109.21,885.046 1136.88,890.764 1161.99,905.435 1188.82,914.13 1206.98,914.733 1235.52,917.475 1271.85,918.656 1296.93,920.685 1331.56,927.842 1355.81,932.86 1380.9,934.876 1406,936.905 1443.18,935.122 1461.35,935.713 1490.76,935.479 1517.55,931.531 1548.63,925.333 1576.36,931.052 1603.13,927.116 1628.24,929.146 1646.29,917.094 1664.46,917.684 1681.65,908.621 1701.48,903.246 1725.76,908.264 1749.05,903.603 1769.86,907.895 1787.2,911.474 1810.66,919.467 1829.01,932.712 1851.65,943.694 1863.89,952.536 1880.61,971.77 1888.56,982.887 1895.68,996.993 1908.12,1018.53 1922.21,1034.08 1935.48,1052.64 1945.1,1057.79 1969.44,1062.83 1979.88,1064.99 1987.67,1063.43 2016.13,1053.49 2027.37,1052.64 2049.46,1025.58 2055.41,1017.32 2054.16,994.951 2058.24,980.009 2057.01,957.664 2037.8,947.396 2020.42,943.805 1997.75,932.823 1970.15,939.746 1949.32,935.454 1932.78,928.887 1915.43,925.309 1890.31,923.28 1872.31,935.344 1849,939.992 1836.12,946.805 1807.53,944.051 1782.4,942.034 1754.64,936.303 1736.31,923.058 1712.86,915.065 1677.21,898.241 1656.28,881.319 1635.36,864.398 1623.99,852.616 1612.64,840.823 1590.9,826.902 1577.77,808.467 1567.26,793.735 1561.06,776.739 1565.24,761.896 1584.08,746.929 1594.33,736.476 1617.57,731.852 1631.4,734.693 1660.73,734.459 1674.69,749.881 1695.45,754.16 1705.83,756.288 1733.52,761.994 1755.26,775.878 1760.54,783.245 1783.12,794.177 1802.25,804.409 1826.49,809.402 1845.46,807.016 1867.07,808.32 1891.97,797.731 1910.11,798.334 1923.98,801.187 1945.78,815.096 1960.65,827.59 1974.72,843.061 1981.85,857.105 1990.83,877.839 1999.8,898.586 2002.65,914.929 2000.4,936.524 2003.06,940.226 2009.39,957.308 2025.34,979.53 2028.2,995.91 2043.12,1008.47 2053.56,1010.63 2067.46,1013.5 2088.12,1005.12 2104.47,999.022 2113.87,991.483 2131.85,979.407 2136.96,974.156 2136.5,948.822 2121.56,936.278 2103.97,920.045 2093.34,905.263 2069.85,897.27 2041.25,894.527 2016.95,889.522 2006.54,887.37 1977.96,884.64 1960.61,881.061 1943.07,864.853 1929.2,862 1901.45,856.281 1889.41,860.093 1862.66,864.029 1844.33,850.809 1823.53,846.529 1804.55,848.902 1776.83,843.196 1763.79,837.367 1746.47,833.788 1720.57,834.748 1690.37,837.97 1666.25,845.582 1657.53,837.49 1657.39,824.873 1649.64,826.422 1638.42,827.258 1623.73,827.381 1616.81,825.955 1599.62,834.994 1586.74,841.782 1553.91,841.315 1538.38,844.401 1528.94,851.903 1522.13,863.106 1537.66,860.007 1556.64,857.622 1587.69,851.424 1596.99,831.304 1611.55,818.576 1615.71,803.708 1606.04,785.999 1589.46,766.876 1580.74,758.796 1569.29,734.471 1549.38,727.228 1527.09,741.481 1505.52,740.178 1474.41,733.77 1475.98,715.262 1470.65,695.352 1473.06,673.905 1477.24,659.098 1495.12,634.601 1500.14,616.855 1503.38,592.506 1484.37,582.348 1461.06,574.44 1454.17,573.026 1466.08,556.731 1490.94,546.217 1530.53,548.098 1568.2,530.869 1586.98,516.001 1604.79,491.602 1617.49,472.405 1638.02,464.154 1666.41,466.859 1690.52,471.791 1710.52,491.455 1739.88,503.703 1757.29,519.74 1766.13,540.265 1754.29,556.547 1734.72,574.379 1705.6,587.144 1671.24,592.592 1649.7,591.301 1610.78,573.936 1589.14,560.126 1580.33,539.588 1579.26,517.538 1598.03,502.683 1611.68,493.017 1638.15,476.636 1662.13,469.097 1685.15,452.016 1706.49,440.837 1724.53,441.415 1750.95,425.059 1750.81,412.601 1763.45,393.441 1775.42,389.678 1795.76,369.006 1784.45,357.384 1758.56,345.886 1774.79,339.909 1805.59,333.797 1832.29,342.344 1853.76,343.635 1881.29,349.255 1904.75,369.559 1904.11,384.943 1900.85,396.688 1875.29,410.092 1861.03,435.143 1845.95,463.157 1836.93,495.55 1840.56,508.758 1799.33,512.767 1779.78,530.586 1745.45,536.022 1714.7,554.665 1700.36,579.827 1681.59,594.719 1653.98,589.05 1631.48,578.191 1601.27,568.857 1589.96,557.174 1558.82,538.297 1556.2,534.645 1563.69,508.106 1591.13,501.268 1628.91,496.546 1653.02,501.49 1690.94,509.262 1716.06,523.761 1721.45,543.573 1737.19,565.524 1751,568.353 1782.07,574.723 1804.58,585.594 1811.49,587.009 1843.22,577.908 1867.22,570.345 1884.29,561.368 1905.01,565.61 1925.91,582.372 1921.01,600.106 1922.2,622.217 1904.65,659.27 1884.26,680.115 1861.22,697.308 1837.52,730.044 1839.5,749.266 1799.13,762.929 1775.88,767.565 1745.87,783.367 1720.12,796.92 1703.93,815.6 1686.9,837.256 1657.81,862.737 1634.52,867.386 1607.64,858.691 1583.4,853.686 1547.92,849.53 1521.07,840.835 1501.86,817.998 1488.76,799.564 1452.29,773.185 1441.82,758.464 1414.09,740.19 1392.51,738.886 1358.06,744.347 1344.23,741.493 1313.99,732.135 1311.24,703.309 1293.98,699.755 1267.28,703.678 1250.09,712.692 1222.59,732.147 1221.74,735.111 1183.82,739.858 1164,745.207 1137.24,736.537 1117.36,716.738 1094.91,705.83 1056.12,700.985 1025.95,691.626 1008.72,688.072 986.307,677.176 963.884,653.749 966.472,644.87 976.78,621.922 993.969,600.401 1004.26,577.49 1010.23,544.323 1016.22,523.687 999.868,504.712 982.678,501.182 971.503,489.524 975.782,474.803 1008.43,475.258 1047.08,480.079 1088.3,476.07 1114.92,472.172 1142.34,452.864 1168,426.99 1191.11,409.933 1221.97,403.821 1264.89,406.391 1294.14,418.603 1325.99,434.467 1355.27,446.691 1381.11,458.214 1402.68,471.987 1443.99,480.448 1465.57,494.234 1495.01,518.977 1527.07,547.397 1549.54,558.244 1572.02,569.103 1591.05,579.261 1600.44,571.808 1625.28,561.294 1655.23,545.59 1675.78,537.325 1708.32,525.286 1741.01,525.753 1778.13,536.477 1803.43,563.507 1806.22,579.679 1803.26,616.56 1783.02,649.936 1784.16,672.072 1774.26,707.638 1775.56,742.391 1793.18,771.131 1826.33,796.797 1864.25,792.037 1878.12,794.891 1916.23,802.724 1935.57,825.561 1964.51,853.539 1984.9,886.066 1994.89,916.479 1997.75,932.823 2012.25,920.058 2054.74,925.665 2079.06,930.671 2089.7,945.477 2092.36,949.179 2094.21,955.869 2099.75,975.939 2102.41,979.653 2119.8,983.231 2137.98,983.834 2169.88,974.623 2195.26,989.331 2203.27,1000.46 2218.48,1025.71 2216.04,1034.69 2220.1,1019.72 2225.77,998.776 2222.6,969.728 2210.89,945.231 2194.89,923.034 2185.85,902.275 2187.24,883.668 2153.9,857.929 2151.6,826.016 2157.27,805.196 2174.39,796.157 2196,797.473 2222.95,806.143 2237.88,818.638 2250.39,840.06 2280.29,865.074 2290.15,882.832 2278.62,911.929 2258.27,932.933 2242.18,951.687 2209.5,963.875 2193.4,982.641 2164.2,995.554 2135.19,1021.16 2119.06,1039.95 2109.06,1063.19 2087.79,1087.28 2070.8,1109.11 2044.19,1125.8 2019.19,1136.49 1984.75,1154.74 1961.58,1172.16 1933.89,1179.14 1902.07,1201.14 1890.97,1214.74 1853.82,1229.3 1839.22,1242.19 1818.63,1263.39 1799.02,1294.37 1794.88,1309.44 1789.05,1330.57 1781.56,1357.75 1808.83,1379.39 1813.32,1389.92 1805.83,1417.13 1798.33,1444.39 1780.03,1443.77 1754.71,1441.72 1730.93,1420.76 1720.16,1392.92 1706.88,1374.18 1680.48,1349.52 1636.67,1321.25 1614.9,1319.92 1578.35,1318.72 1539.27,1326.55 1495.86,1336.69 1477.59,1336.08 1436.6,1324.37 1413.9,1313.25 1391.99,1286.36 1390.87,1251.05 1384.5,1208.32 1364.39,1188.24 1344.29,1168.15 1350.16,1134.41 1346.53,1108.25 1338.58,1084.39 1325.38,1053.12 1306.2,1030.14 1302.58,1004.05 1309.31,967.478 1318.63,934.643 1337.48,906.973 1353.72,875.626 1366.47,843.59 1393.97,824.073 1386.88,797.436 1372.04,772.361 1339.09,746.72 1309.77,746.966 1291.58,733.795 1281.09,706.519 1276.59,671.089 1291.11,645.878 1303.9,626.595 1324.52,618.306 1361.45,603.992 1399.29,599.257 1440.58,595.236 1476.73,596.416 1500.76,588.841 1527.19,559.904 1543.37,541.371 1572.48,528.631 1592.22,523.318 1596.37,508.573 1582.46,493.262 1558.23,475.836 1532.35,464.301 1501.15,433.003 1482.07,410.437 1470.72,386.358 1454.27,367.456 1451.56,351.383 1458.23,327.919 1475.3,319.015 1494.26,329.087 1529.44,333.182 1572.34,335.74 1602.45,345 1644.54,350.497 1672.87,353.191 1704.79,369.03 1725.44,373.248 1752.82,366.435 1777.57,355.982 1811.82,350.571 1844.42,351.026 1875.21,344.914 1896.05,361.578 1906.56,376.126 1911.63,370.961 1924.22,351.826 1943.68,334.104 1960.71,325.188 1987.04,308.882 2003.23,302.893 1992.1,303.717 1963.57,288.615 1957.31,271.878 1944.81,238.415 1952.12,212.098 1962.23,201.817 1994.59,189.888 2029.74,193.959 2050.36,198.165 2088.98,202.936 2125.18,216.476 2144.42,238.919 2147.51,267.364 2140.27,293.706 2131.78,298.17 2133.84,317.158 2137.72,342.725 2131.49,378.647 2099.08,390.637 2080.88,430.384 2054.52,446.74 2032.61,473.352 2026.32,509.422 2003.98,511.07 1962.77,515.091 1926,529.369 1896.93,542.122 1881.85,570.222 1869.37,602.012 1870.37,611.58 1897.19,620.213 1929.3,636.175 1969.16,650.613 2002.32,676.192 2024.92,687.088 2067.26,692.647 2100.03,693.114 2141.37,689.08 2165.6,694.061 2191.46,693.102 2202.42,679.709 2219.26,658.151 2236.08,636.593 2232.14,610.805 2229.24,594.609 2218.38,567.43 2187.85,545.59 2170.34,529.553 2145.13,515.042 2097,517.649 2080.75,523.675 2053.54,543.032 2037.51,561.564 2007.83,589.8 2007.42,617.827 2013.1,650.244 2016.16,679.033 2034.69,704.748 2046.3,729.06 2061.59,766.704 2075.89,794.743 2106.28,804.138 2137.72,823.163 2165.94,854.117 2182.71,873.301 2198.94,908.116 2204.5,928.162 2202.07,937.115 2167.55,942.612 2126.3,959.337 2105.44,955.032 2092.58,961.845 2069.27,966.506 2044.95,961.489 2009.19,944.641 1981.4,938.91 1943.39,943.694 1895.14,958.98 1862.42,971.167 1826.03,969.974 1779.41,979.296 1746.5,978.816 1705.82,979.899 1678.05,974.168 1640.01,978.939 1608.78,972.495 1574.09,965.326 1533.09,928.432 1513.12,921.152 1471.54,912.568 1439.43,896.47 1410.79,881.098 1376.94,858.347 1356.16,854.068 1326.87,866.931 1300.18,883.484 1270.01,899.348 1227.75,919.024 1193.19,924.509 1168.96,919.504 1136.02,893.753 1120.4,871.592 1100.45,839.089 1074.48,814.825 1064.92,784.511 1061.41,758.624 1063.96,737.14 1048.37,702.522 1026.8,688.662 997.497,676.352 978.529,653.626 969.898,620.508 968.149,601.36 955.239,570.53 966.4,544.68 989.574,515.079 996.441,503.998 1009.31,497.284 1021.32,481.026 1026.44,463.367 1034.13,436.902 1040.95,413.388 1046.04,383.308 1059.69,348.813 1057.09,332.739 1033.91,312.473 1015.9,299.474 986.77,299.72 958.506,309.447 931.096,303.84 895.979,287.336 856.598,273.07 842.908,270.267 818.938,265.36 802.702,246.532 801.893,224.679 818.172,206.33 842.141,186.469 865.244,169.548 915.684,158.209 937.052,147.129 971.228,141.742 1000.3,153.868 1027.67,159.451 1065.27,154.766 1099.45,149.391 1116.48,128.165 1132.66,109.866 1146.25,87.9763 "/>
<polyline clip-path="url(#clip131)" style="stroke:#3da44d; stroke-linecap:round; stroke-linejoin:round; stroke-width:4; stroke-opacity:1; fill:none" points="227.005,721.061 235.689,719.474 247.309,719.883 262.634,719.579 279.39,718.348 296.926,720.632 315.96,722.748 339.286,724.994 363.435,727.679 390.258,730.199 417.67,731.511 444.164,733.836 471.472,737.28 499.127,741.491 524.605,744.349 552.777,750.48 579.724,752.969 603.842,757.917 631.699,762.614 656.533,768.674 680.646,775.413 705.345,781.345 732.104,785.591 758.215,795.038 784.838,801.758 812.144,808.285 839.503,815.047 868.792,819.341 895.888,826.119 921.961,833.415 946.546,839.337 968.161,848.305 990.524,856.716 1012.94,863.81 1034.27,868.998 1052.48,874.407 1072.19,880.498 1094.48,884.293 1116.55,890.489 1139.78,896.854 1163.75,903.6 1188.99,911.293 1215.49,914.198 1242.44,919.014 1272.06,921.268 1300.41,924 1328.76,924.987 1356.3,927.378 1382.04,931.506 1409.4,933.292 1437.37,935.816 1464.84,934.448 1492.4,933.32 1520.15,930.48 1547.42,928.009 1573.59,925.144 1598.34,925.121 1621.19,923.969 1643.82,921.816 1665.78,918.572 1687.77,915.397 1708.17,911.369 1727.17,911.156 1746.29,911.748 1766.99,913.057 1787.01,918.057 1805.44,925.863 1823.37,934.638 1841.43,946.087 1858.84,958.017 1874.49,970.452 1886.98,984.758 1899.51,999.51 1911.5,1014.24 1924.21,1028.36 1935.78,1040.26 1947.47,1049.25 1962.72,1053.14 1978.37,1056.86 1996.85,1055.75 2013.37,1049.76 2026.98,1039.74 2038.52,1028.21 2047.35,1014.81 2051.81,1000.62 2050.35,984.716 2043.35,969.124 2035.04,955.557 2016.63,947.65 1996.75,941.342 1975.54,937.682 1955.39,936.84 1934.95,934.319 1914.46,931.349 1892.87,931.908 1870.65,932.87 1848.01,934.74 1824.66,937.606 1802.32,937.241 1778.48,934.045 1754.8,928.632 1729.58,920.594 1706.79,909.695 1685.72,896.746 1664.79,883.617 1645.15,869.647 1628.85,854.644 1614.83,839.875 1601.82,824.995 1588.43,809.345 1581.69,792.486 1577.4,778.209 1580.22,764.756 1585.28,751.668 1597.92,741.105 1615.01,735.695 1635.16,736.622 1654.88,740.255 1674.2,745.516 1692.16,751.76 1711.64,757.509 1729.53,766.579 1748.82,775.186 1766.8,782.302 1787.3,788.219 1807.28,796.44 1826.85,801.158 1846.92,804.009 1866.45,804.726 1884.18,808.132 1903.54,813.458 1922.26,819.009 1940.4,824.338 1957.36,833.225 1972.96,844.92 1983.08,859.732 1989.76,876.268 1999.05,893.264 2002.84,909.58 2007.25,926.273 2013.34,942.171 2019.46,957.983 2027.26,971.384 2034.32,983.331 2045.21,994.783 2056.64,1001.54 2070.54,1004.32 2083.23,1003.58 2094.89,998.951 2105,989.776 2114.57,978.089 2121.16,965.843 2121.28,952.2 2111.72,940.656 2098.83,925.744 2085.33,911.778 2067.74,900.61 2047.25,893.811 2025.58,887.954 2003.17,884.311 1981.25,879.895 1962.06,876.519 1942.02,871.523 1922.26,865.872 1903.21,861.249 1883.46,860.139 1863.5,856.812 1843.26,853.639 1822.73,852.753 1801.66,848.746 1778.51,844.313 1756.94,840.186 1734.83,838.886 1712.99,834.827 1695.1,842.038 1673.01,836.51 1659.58,827.826 1661.86,830.411 1651.2,833.05 1625.26,822.278 1613.59,826 1594.26,828.276 1599.44,840.34 1577.6,836.532 1560.78,845.939 1543.07,839.316 1524.92,841.638 1509.38,858.269 1535.38,850.616 1554.49,862.626 1582.48,855.256 1596.05,834.106 1615.27,824.319 1620.16,803.414 1605.72,789.111 1595.36,775.059 1584.08,757.835 1569.58,739.697 1545.95,730.59 1527.67,742.854 1507.49,740.285 1488.48,730.211 1469.85,719.691 1460.22,699.082 1469.71,676.559 1475.81,651.698 1497.47,634.687 1514.58,618.452 1508.34,598.92 1486.89,590.508 1467.73,585.372 1464.28,569.522 1475.21,553.353 1502.95,552.07 1530.17,541.165 1561.03,535.888 1585.93,518.815 1600.32,499.264 1611.88,476.024 1640.72,471.439 1668,461.97 1685.75,484.717 1716.45,493.073 1743.59,499.254 1765.85,514.226 1761.86,540.365 1750.36,564.375 1740.6,584.101 1711.75,590.274 1678.4,593.088 1647.96,586.165 1620.33,574.541 1591.67,564.853 1572.3,542.462 1574.6,518.208 1592.56,499.035 1617.02,492.442 1640.36,481.604 1660.33,468.297 1680.92,455.275 1704.63,444.506 1727.25,440.757 1747.14,427.767 1756.28,412.355 1772.35,401.808 1788.33,391.686 1796,373.488 1779.11,367.51 1759.96,360.382 1764.23,342.719 1783.83,333.905 1807.52,337.908 1832.6,341.565 1858.61,344.109 1887.64,347.615 1907.32,361.664 1905.18,383.491 1893.82,400.86 1878.62,417.557 1866.91,440.328 1853.11,463.342 1846.67,487.403 1830.57,506.488 1804.61,515.957 1775.21,523.792 1747.42,539.615 1725.43,557.781 1709.94,581.527 1681.14,596.023 1654.72,587.337 1631.25,580.551 1606.2,572.102 1582.32,564.181 1565.76,545.809 1551.43,525.74 1567.26,504.942 1598.2,495.244 1628.75,491.26 1658.38,498.24 1688.5,504.379 1710.93,522.534 1716.93,546.579 1730.43,566.807 1749.11,575.649 1771.07,582.774 1795.02,591.039 1821.31,589.442 1841.15,575.077 1858.32,560.383 1883.77,554.011 1907.7,561.31 1921.34,584.216 1915.07,606.476 1912.62,629.643 1906.08,654.769 1894.68,681.154 1867.6,694.995 1851.31,719.645 1830.98,743.102 1806.11,764.532 1773.14,766.752 1751.27,782.178 1722.2,788.505 1702.8,812.43 1692.31,840.701 1668.01,862.187 1634.81,868.273 1605.96,857.741 1577.22,859.179 1548.51,851.874 1522.73,839.448 1501.95,817.066 1485.98,793.142 1459.82,783.626 1446.89,759.007 1423.18,742.423 1396.55,741.453 1366.33,745.445 1338.3,741.655 1320.15,723.394 1308.42,703.256 1289.09,687.579 1274.52,699.514 1255.64,710.97 1239.4,728.464 1216.44,738.944 1189.82,743.438 1163.05,749.63 1141.02,731.632 1121.01,713.286 1093.67,703.811 1061.51,697.263 1032.77,692.812 1004.08,693.396 975.232,681.937 960.194,663.128 967.323,638.627 979.274,622.376 996.75,601.048 1008.24,578.318 1018.46,553.935 1020.4,527.212 998.599,509.336 970.592,499.762 958.623,475.526 986.931,469.582 1017.97,477.169 1049.06,484.596 1081.68,479.852 1109.03,464.015 1136.85,449.302 1167.06,430.957 1193.27,411.978 1226.74,402.215 1260.91,405.745 1290.96,417.478 1321.66,430.941 1349.72,445.571 1376.02,464.63 1408.47,475.321 1442.76,481.77 1466.79,496.291 1490.61,516.21 1512.52,539.75 1539.35,548.803 1565.28,561.588 1585.73,579.621 1606.83,570.421 1630.08,557.735 1653.54,547.052 1676.82,533.63 1710.04,526.411 1744.15,530.499 1777.78,539.864 1804.03,557.433 1810.66,586.646 1799.52,614.455 1785.37,644.212 1782.92,674.439 1767.76,705.538 1774.21,737.833 1792.92,766.139 1819.19,790.121 1855.63,791.797 1886.56,795.914 1919.83,804.15 1941.19,827.739 1968.59,852.501 1981.77,883.908 1990.48,912.824 1995.52,933.334 2021.34,916.923 2049.36,924.946 2071.31,920.836 2076.29,940.788 2091.52,944.817 2095.84,954.963 2090.64,971.291 2105.65,976.633 2121.92,978.463 2140.84,977.213 2162.74,974.985 2184.53,986.994 2197.18,1002.07 2209.94,1019.11 2223.1,1030.58 2219.3,1012.82 2217.6,992.645 2214.44,971.7 2207.3,948.649 2201.86,925.264 2189.52,904.056 2173.6,880.799 2157.86,856.044 2152.11,831.552 2151.65,808.309 2172.25,790.842 2201.53,793.806 2221.82,809.481 2241.76,822.233 2258.51,841.48 2279.47,858.684 2286.86,884.059 2285.18,908.67 2263.89,928.562 2241.22,941.087 2215.98,958.815 2186.94,974.437 2166.49,997.907 2143.68,1018.73 2127.07,1044.24 2107.49,1067.89 2081.5,1088.4 2072.49,1115.2 2046.56,1122.78 2015.89,1137.78 1989.76,1153.44 1966.02,1169.36 1932.89,1182.3 1912.53,1201.37 1886.83,1217.43 1855.81,1229.6 1828.99,1241.35 1809.24,1264.89 1800.63,1289.37 1803.91,1312.71 1783.3,1333.97 1787.61,1358.5 1809.07,1375.57 1823.08,1398.54 1818.39,1423.52 1798.41,1441.11 1770.95,1445.72 1745.36,1440.71 1729.59,1417.73 1718.96,1390.01 1695.06,1371.5 1674.97,1346.66 1646.15,1329.12 1611.91,1321.74 1576.43,1323.11 1539.88,1323.12 1504.07,1333.48 1469.66,1334.83 1433.91,1330.29 1407.35,1310.57 1392.28,1282.42 1398.6,1249.51 1383.59,1220.07 1359.04,1196.25 1352.67,1165.96 1358.02,1135.29 1349.64,1111.08 1333.82,1082.72 1320.3,1055.26 1307.73,1027.5 1297.46,998.685 1300.37,966.409 1310.47,935.682 1331.39,905.328 1351.87,876.273 1372.6,850.397 1391.49,824.437 1391.93,795.506 1379.73,767.247 1348.1,751.22 1317.36,746.942 1288.96,733.835 1281.67,705.398 1272.5,677.351 1280.19,649.029 1304.49,626.78 1332.77,611.309 1365.03,606.628 1399.25,596.666 1433.7,592.405 1467.7,595.829 1500.02,583.684 1520.93,563.352 1547.48,547.224 1574.98,536.15 1606.71,530.129 1601.21,504.629 1574.9,491.073 1551.6,478.323 1525.52,459.7 1505.58,437.011 1485.35,415.594 1470.23,393.285 1454.85,371.987 1444.14,347.738 1454.66,325.616 1480.53,320.544 1508.14,327.315 1538.38,333.053 1569.15,336.137 1600.36,343.646 1636.08,341.526 1666.28,353.794 1693.37,370.976 1725.67,375.116 1752.42,361.851 1779.03,352.123 1808.54,349.812 1838.48,344.485 1866.94,346.69 1884.24,365.972 1897.66,378.288 1909.33,363.362 1920.74,348.599 1937.82,336.452 1961.79,330.969 1986.66,327.897 2001.24,309.796 1986.37,299.29 1970.19,285.443 1960.12,263.636 1945.96,243.353 1942.12,215.934 1962.87,195.046 1993.19,188.624 2022.52,195.906 2059.36,200.189 2095.09,200.59 2127.03,213.924 2149.61,234.912 2141.97,258.582 2139.44,282.665 2132.9,300.571 2139.92,325.708 2137.14,350.415 2125.76,377.66 2097.44,396.831 2078.86,422.341 2059,446.058 2039.98,470.782 2028.92,499.316 1994.1,502.789 1959.58,510.493 1928.9,525.688 1900.22,544.797 1874.23,563.425 1864.6,590.251 1869.11,612.842 1897.67,622.078 1926.48,638.14 1957.89,654.56 1990.6,668.601 2023.75,679.777 2057.68,690.013 2091.64,694.746 2127.46,697.148 2160.49,700.875 2188.39,690.991 2211.95,676.306 2225.59,653.095 2243.35,635.468 2241.35,611.547 2235.26,585.909 2216.78,564.538 2191.04,546.416 2167.64,525.981 2136.97,517.075 2104.88,513.861 2075.64,526.064 2045.86,536.58 2033.29,562.815 2019.24,589.723 2009.52,617.188 2011.45,647.801 2022.36,678.094 2041.33,703.393 2049.64,732.222 2057.58,762.567 2074.74,791.78 2107.72,807.135 2142.33,819.557 2167.5,842.185 2184.48,869.596 2205.28,896.585 2218.82,925.424 2193.55,938.714 2166.87,944.319 2139.34,952.643 2112.61,955.904 2090.39,970.442 2060.63,969.677 2032.09,961.213 2005.72,947.526 1974.26,933.5 1939.42,943.662 1901.46,952.008 1864.99,965.394 1826.67,974.252 1789.59,982.91 1750.77,980.875 1712.69,979.979 1673.49,980.554 1639.05,985.738 1604.19,973.407 1570.95,959.079 1539.34,939.763 1506.6,923.386 1473.81,913.004 1441.97,894.374 1409.23,878.599 1384.29,856.888 1351.6,848.365 1321.39,863.634 1296.96,883.421 1265.17,900.638 1232.37,914.186 1196.62,927.364 1164.04,918.558 1140.16,894.232 1124.31,867.649 1105.69,840.647 1079.46,816.959 1066.5,788.154 1072.24,759.299 1063.36,734.448 1048.9,710.742 1028.25,688.137 1001.04,671.344 983.218,650.264 966.237,626.835 960.396,600.598 957.577,574.141 965.073,545.425 978.89,525.543 990.436,501.583 1009.8,493.784 1034.34,479.756 1032.73,458.347 1035.53,433.865 1044.73,409.011 1051.97,383.642 1058.66,357.633 1059.54,333.079 1041.34,313.08 1017.85,300.123 989.188,299.937 959.65,306.707 928.037,303.832 900.196,293.185 871.393,283.175 842.025,277.873 817.164,271.701 803.244,250.585 807.17,228.343 817.795,204.243 845.949,189.146 871.716,172.849 906.934,162.773 934.598,145.861 969.275,142.434 996.986,156.572 1027.24,163.628 1062.32,160.143 1094.28,149.937 1115.53,128.202 1134.23,105.973 1150.15,88.4563 "/>
<path clip-path="url(#clip130)" d="M214.252 1438.47 L760.776 1438.47 L760.776 1231.11 L214.252 1231.11  Z" fill="#ffffff" fill-rule="evenodd" fill-opacity="1"/>
<polyline clip-path="url(#clip130)" style="stroke:#000000; stroke-linecap:round; stroke-linejoin:round; stroke-width:4; stroke-opacity:1; fill:none" points="214.252,1438.47 760.776,1438.47 760.776,1231.11 214.252,1231.11 214.252,1438.47 "/>
<polyline clip-path="url(#clip130)" style="stroke:#0000ff; stroke-linecap:round; stroke-linejoin:round; stroke-width:4; stroke-opacity:1; fill:none" points="238.832,1282.95 386.315,1282.95 "/>
<path clip-path="url(#clip130)" d="M434.924 1286.21 L434.924 1288.29 L415.34 1288.29 Q415.618 1292.69 417.979 1295 Q420.363 1297.29 424.6 1297.29 Q427.053 1297.29 429.345 1296.69 Q431.66 1296.09 433.928 1294.89 L433.928 1298.91 Q431.637 1299.89 429.229 1300.4 Q426.822 1300.91 424.345 1300.91 Q418.141 1300.91 414.507 1297.29 Q410.896 1293.68 410.896 1287.53 Q410.896 1281.16 414.322 1277.43 Q417.771 1273.68 423.604 1273.68 Q428.836 1273.68 431.868 1277.06 Q434.924 1280.42 434.924 1286.21 M430.664 1284.96 Q430.618 1281.46 428.697 1279.38 Q426.799 1277.29 423.65 1277.29 Q420.086 1277.29 417.933 1279.31 Q415.803 1281.32 415.479 1284.98 L430.664 1284.96 Z" fill="#000000" fill-rule="nonzero" fill-opacity="1" /><path clip-path="url(#clip130)" d="M458.442 1275.07 L458.442 1279.1 Q456.636 1278.17 454.692 1277.71 Q452.748 1277.25 450.664 1277.25 Q447.493 1277.25 445.896 1278.22 Q444.322 1279.19 444.322 1281.14 Q444.322 1282.62 445.456 1283.48 Q446.59 1284.31 450.016 1285.07 L451.474 1285.4 Q456.011 1286.37 457.91 1288.15 Q459.831 1289.91 459.831 1293.08 Q459.831 1296.69 456.96 1298.8 Q454.113 1300.91 449.113 1300.91 Q447.03 1300.91 444.761 1300.49 Q442.516 1300.1 440.016 1299.29 L440.016 1294.89 Q442.377 1296.11 444.669 1296.74 Q446.961 1297.34 449.206 1297.34 Q452.215 1297.34 453.836 1296.32 Q455.456 1295.28 455.456 1293.41 Q455.456 1291.67 454.275 1290.74 Q453.118 1289.82 449.16 1288.96 L447.678 1288.61 Q443.72 1287.78 441.961 1286.07 Q440.201 1284.33 440.201 1281.32 Q440.201 1277.67 442.794 1275.67 Q445.386 1273.68 450.155 1273.68 Q452.516 1273.68 454.599 1274.03 Q456.683 1274.38 458.442 1275.07 Z" fill="#000000" fill-rule="nonzero" fill-opacity="1" /><path clip-path="url(#clip130)" d="M470.826 1266.95 L470.826 1274.31 L479.599 1274.31 L479.599 1277.62 L470.826 1277.62 L470.826 1291.69 Q470.826 1294.86 471.683 1295.77 Q472.562 1296.67 475.224 1296.67 L479.599 1296.67 L479.599 1300.23 L475.224 1300.23 Q470.294 1300.23 468.419 1298.41 Q466.544 1296.55 466.544 1291.69 L466.544 1277.62 L463.419 1277.62 L463.419 1274.31 L466.544 1274.31 L466.544 1266.95 L470.826 1266.95 Z" fill="#000000" fill-rule="nonzero" fill-opacity="1" /><path clip-path="url(#clip130)" d="M485.201 1274.31 L489.46 1274.31 L489.46 1300.23 L485.201 1300.23 L485.201 1274.31 M485.201 1264.22 L489.46 1264.22 L489.46 1269.61 L485.201 1269.61 L485.201 1264.22 Z" fill="#000000" fill-rule="nonzero" fill-opacity="1" /><path clip-path="url(#clip130)" d="M518.557 1279.29 Q520.155 1276.42 522.377 1275.05 Q524.599 1273.68 527.608 1273.68 Q531.659 1273.68 533.858 1276.53 Q536.057 1279.35 536.057 1284.59 L536.057 1300.23 L531.775 1300.23 L531.775 1284.73 Q531.775 1281 530.455 1279.19 Q529.136 1277.39 526.428 1277.39 Q523.118 1277.39 521.196 1279.59 Q519.275 1281.79 519.275 1285.58 L519.275 1300.23 L514.993 1300.23 L514.993 1284.73 Q514.993 1280.98 513.673 1279.19 Q512.354 1277.39 509.599 1277.39 Q506.335 1277.39 504.414 1279.61 Q502.493 1281.81 502.493 1285.58 L502.493 1300.23 L498.21 1300.23 L498.21 1274.31 L502.493 1274.31 L502.493 1278.34 Q503.951 1275.95 505.988 1274.82 Q508.025 1273.68 510.826 1273.68 Q513.65 1273.68 515.618 1275.12 Q517.608 1276.55 518.557 1279.29 Z" fill="#000000" fill-rule="nonzero" fill-opacity="1" /><path clip-path="url(#clip130)" d="M556.335 1287.2 Q551.173 1287.2 549.182 1288.38 Q547.191 1289.56 547.191 1292.41 Q547.191 1294.68 548.673 1296.02 Q550.178 1297.34 552.747 1297.34 Q556.289 1297.34 558.418 1294.84 Q560.571 1292.32 560.571 1288.15 L560.571 1287.2 L556.335 1287.2 M564.83 1285.44 L564.83 1300.23 L560.571 1300.23 L560.571 1296.3 Q559.113 1298.66 556.937 1299.79 Q554.761 1300.91 551.613 1300.91 Q547.631 1300.91 545.27 1298.68 Q542.932 1296.44 542.932 1292.69 Q542.932 1288.31 545.849 1286.09 Q548.789 1283.87 554.599 1283.87 L560.571 1283.87 L560.571 1283.45 Q560.571 1280.51 558.627 1278.92 Q556.705 1277.29 553.21 1277.29 Q550.988 1277.29 548.881 1277.83 Q546.775 1278.36 544.83 1279.42 L544.83 1275.49 Q547.168 1274.59 549.367 1274.15 Q551.566 1273.68 553.65 1273.68 Q559.275 1273.68 562.053 1276.6 Q564.83 1279.52 564.83 1285.44 Z" fill="#000000" fill-rule="nonzero" fill-opacity="1" /><path clip-path="url(#clip130)" d="M577.816 1266.95 L577.816 1274.31 L586.589 1274.31 L586.589 1277.62 L577.816 1277.62 L577.816 1291.69 Q577.816 1294.86 578.673 1295.77 Q579.552 1296.67 582.214 1296.67 L586.589 1296.67 L586.589 1300.23 L582.214 1300.23 Q577.284 1300.23 575.409 1298.41 Q573.534 1296.55 573.534 1291.69 L573.534 1277.62 L570.409 1277.62 L570.409 1274.31 L573.534 1274.31 L573.534 1266.95 L577.816 1266.95 Z" fill="#000000" fill-rule="nonzero" fill-opacity="1" /><path clip-path="url(#clip130)" d="M614.367 1286.21 L614.367 1288.29 L594.784 1288.29 Q595.062 1292.69 597.423 1295 Q599.807 1297.29 604.043 1297.29 Q606.497 1297.29 608.788 1296.69 Q611.103 1296.09 613.372 1294.89 L613.372 1298.91 Q611.08 1299.89 608.673 1300.4 Q606.265 1300.91 603.788 1300.91 Q597.585 1300.91 593.95 1297.29 Q590.339 1293.68 590.339 1287.53 Q590.339 1281.16 593.765 1277.43 Q597.214 1273.68 603.048 1273.68 Q608.279 1273.68 611.312 1277.06 Q614.367 1280.42 614.367 1286.21 M610.108 1284.96 Q610.062 1281.46 608.14 1279.38 Q606.242 1277.29 603.094 1277.29 Q599.529 1277.29 597.376 1279.31 Q595.247 1281.32 594.923 1284.98 L610.108 1284.96 Z" fill="#000000" fill-rule="nonzero" fill-opacity="1" /><polyline clip-path="url(#clip130)" style="stroke:#ff0000; stroke-linecap:round; stroke-linejoin:round; stroke-width:4; stroke-opacity:1; fill:none" points="238.832,1334.79 386.315,1334.79 "/>
<path clip-path="url(#clip130)" d="M431.243 1331.13 Q432.84 1328.26 435.062 1326.89 Q437.285 1325.52 440.294 1325.52 Q444.345 1325.52 446.544 1328.37 Q448.743 1331.19 448.743 1336.43 L448.743 1352.07 L444.461 1352.07 L444.461 1336.57 Q444.461 1332.84 443.141 1331.03 Q441.822 1329.23 439.113 1329.23 Q435.803 1329.23 433.882 1331.43 Q431.961 1333.63 431.961 1337.42 L431.961 1352.07 L427.678 1352.07 L427.678 1336.57 Q427.678 1332.82 426.359 1331.03 Q425.039 1329.23 422.285 1329.23 Q419.021 1329.23 417.1 1331.45 Q415.178 1333.65 415.178 1337.42 L415.178 1352.07 L410.896 1352.07 L410.896 1326.15 L415.178 1326.15 L415.178 1330.18 Q416.637 1327.79 418.674 1326.66 Q420.711 1325.52 423.512 1325.52 Q426.336 1325.52 428.303 1326.96 Q430.294 1328.39 431.243 1331.13 Z" fill="#000000" fill-rule="nonzero" fill-opacity="1" /><path clip-path="url(#clip130)" d="M479.414 1338.05 L479.414 1340.13 L459.831 1340.13 Q460.109 1344.53 462.47 1346.84 Q464.854 1349.13 469.09 1349.13 Q471.544 1349.13 473.835 1348.53 Q476.15 1347.93 478.419 1346.73 L478.419 1350.75 Q476.127 1351.73 473.72 1352.24 Q471.312 1352.75 468.835 1352.75 Q462.632 1352.75 458.998 1349.13 Q455.386 1345.52 455.386 1339.37 Q455.386 1333 458.812 1329.27 Q462.261 1325.52 468.095 1325.52 Q473.326 1325.52 476.359 1328.9 Q479.414 1332.26 479.414 1338.05 M475.155 1336.8 Q475.109 1333.3 473.187 1331.22 Q471.289 1329.13 468.141 1329.13 Q464.576 1329.13 462.423 1331.15 Q460.294 1333.16 459.97 1336.82 L475.155 1336.8 Z" fill="#000000" fill-rule="nonzero" fill-opacity="1" /><path clip-path="url(#clip130)" d="M498.187 1339.04 Q493.025 1339.04 491.034 1340.22 Q489.044 1341.4 489.044 1344.25 Q489.044 1346.52 490.525 1347.86 Q492.03 1349.18 494.599 1349.18 Q498.141 1349.18 500.27 1346.68 Q502.423 1344.16 502.423 1339.99 L502.423 1339.04 L498.187 1339.04 M506.682 1337.28 L506.682 1352.07 L502.423 1352.07 L502.423 1348.14 Q500.965 1350.5 498.789 1351.63 Q496.613 1352.75 493.465 1352.75 Q489.483 1352.75 487.122 1350.52 Q484.784 1348.28 484.784 1344.53 Q484.784 1340.15 487.701 1337.93 Q490.641 1335.71 496.451 1335.71 L502.423 1335.71 L502.423 1335.29 Q502.423 1332.35 500.479 1330.76 Q498.557 1329.13 495.062 1329.13 Q492.84 1329.13 490.733 1329.67 Q488.627 1330.2 486.683 1331.26 L486.683 1327.33 Q489.021 1326.43 491.22 1325.99 Q493.419 1325.52 495.502 1325.52 Q501.127 1325.52 503.905 1328.44 Q506.682 1331.36 506.682 1337.28 Z" fill="#000000" fill-rule="nonzero" fill-opacity="1" /><path clip-path="url(#clip130)" d="M531.983 1326.91 L531.983 1330.94 Q530.178 1330.01 528.233 1329.55 Q526.289 1329.09 524.206 1329.09 Q521.034 1329.09 519.437 1330.06 Q517.863 1331.03 517.863 1332.98 Q517.863 1334.46 518.997 1335.32 Q520.131 1336.15 523.557 1336.91 L525.016 1337.24 Q529.553 1338.21 531.451 1339.99 Q533.372 1341.75 533.372 1344.92 Q533.372 1348.53 530.502 1350.64 Q527.655 1352.75 522.655 1352.75 Q520.571 1352.75 518.303 1352.33 Q516.057 1351.94 513.557 1351.13 L513.557 1346.73 Q515.919 1347.95 518.21 1348.58 Q520.502 1349.18 522.747 1349.18 Q525.756 1349.18 527.377 1348.16 Q528.997 1347.12 528.997 1345.25 Q528.997 1343.51 527.817 1342.58 Q526.659 1341.66 522.701 1340.8 L521.219 1340.45 Q517.261 1339.62 515.502 1337.91 Q513.743 1336.17 513.743 1333.16 Q513.743 1329.51 516.335 1327.51 Q518.928 1325.52 523.696 1325.52 Q526.057 1325.52 528.141 1325.87 Q530.224 1326.22 531.983 1326.91 Z" fill="#000000" fill-rule="nonzero" fill-opacity="1" /><path clip-path="url(#clip130)" d="M539.715 1341.84 L539.715 1326.15 L543.974 1326.15 L543.974 1341.68 Q543.974 1345.36 545.409 1347.21 Q546.844 1349.04 549.715 1349.04 Q553.164 1349.04 555.154 1346.84 Q557.168 1344.64 557.168 1340.85 L557.168 1326.15 L561.428 1326.15 L561.428 1352.07 L557.168 1352.07 L557.168 1348.09 Q555.617 1350.45 553.557 1351.61 Q551.52 1352.75 548.812 1352.75 Q544.344 1352.75 542.029 1349.97 Q539.715 1347.19 539.715 1341.84 M550.432 1325.52 L550.432 1325.52 Z" fill="#000000" fill-rule="nonzero" fill-opacity="1" /><path clip-path="url(#clip130)" d="M585.224 1330.13 Q584.506 1329.71 583.65 1329.53 Q582.816 1329.32 581.798 1329.32 Q578.187 1329.32 576.242 1331.68 Q574.321 1334.02 574.321 1338.42 L574.321 1352.07 L570.039 1352.07 L570.039 1326.15 L574.321 1326.15 L574.321 1330.18 Q575.664 1327.82 577.816 1326.68 Q579.969 1325.52 583.048 1325.52 Q583.488 1325.52 584.02 1325.59 Q584.552 1325.64 585.201 1325.76 L585.224 1330.13 Z" fill="#000000" fill-rule="nonzero" fill-opacity="1" /><path clip-path="url(#clip130)" d="M610.825 1338.05 L610.825 1340.13 L591.242 1340.13 Q591.52 1344.53 593.881 1346.84 Q596.265 1349.13 600.501 1349.13 Q602.955 1349.13 605.247 1348.53 Q607.562 1347.93 609.83 1346.73 L609.83 1350.75 Q607.538 1351.73 605.131 1352.24 Q602.724 1352.75 600.247 1352.75 Q594.043 1352.75 590.409 1349.13 Q586.798 1345.52 586.798 1339.37 Q586.798 1333 590.224 1329.27 Q593.673 1325.52 599.506 1325.52 Q604.737 1325.52 607.77 1328.9 Q610.825 1332.26 610.825 1338.05 M606.566 1336.8 Q606.52 1333.3 604.599 1331.22 Q602.7 1329.13 599.552 1329.13 Q595.988 1329.13 593.835 1331.15 Q591.705 1333.16 591.381 1336.82 L606.566 1336.8 Z" fill="#000000" fill-rule="nonzero" fill-opacity="1" /><path clip-path="url(#clip130)" d="M638.001 1331.13 Q639.598 1328.26 641.821 1326.89 Q644.043 1325.52 647.052 1325.52 Q651.103 1325.52 653.302 1328.37 Q655.501 1331.19 655.501 1336.43 L655.501 1352.07 L651.219 1352.07 L651.219 1336.57 Q651.219 1332.84 649.899 1331.03 Q648.58 1329.23 645.872 1329.23 Q642.561 1329.23 640.64 1331.43 Q638.719 1333.63 638.719 1337.42 L638.719 1352.07 L634.436 1352.07 L634.436 1336.57 Q634.436 1332.82 633.117 1331.03 Q631.798 1329.23 629.043 1329.23 Q625.779 1329.23 623.858 1331.45 Q621.936 1333.65 621.936 1337.42 L621.936 1352.07 L617.654 1352.07 L617.654 1326.15 L621.936 1326.15 L621.936 1330.18 Q623.395 1327.79 625.432 1326.66 Q627.469 1325.52 630.27 1325.52 Q633.094 1325.52 635.061 1326.96 Q637.052 1328.39 638.001 1331.13 Z" fill="#000000" fill-rule="nonzero" fill-opacity="1" /><path clip-path="url(#clip130)" d="M686.172 1338.05 L686.172 1340.13 L666.589 1340.13 Q666.867 1344.53 669.228 1346.84 Q671.612 1349.13 675.848 1349.13 Q678.302 1349.13 680.594 1348.53 Q682.908 1347.93 685.177 1346.73 L685.177 1350.75 Q682.885 1351.73 680.478 1352.24 Q678.07 1352.75 675.594 1352.75 Q669.39 1352.75 665.756 1349.13 Q662.145 1345.52 662.145 1339.37 Q662.145 1333 665.57 1329.27 Q669.02 1325.52 674.853 1325.52 Q680.084 1325.52 683.117 1328.9 Q686.172 1332.26 686.172 1338.05 M681.913 1336.8 Q681.867 1333.3 679.945 1331.22 Q678.047 1329.13 674.899 1329.13 Q671.334 1329.13 669.182 1331.15 Q667.052 1333.16 666.728 1336.82 L681.913 1336.8 Z" fill="#000000" fill-rule="nonzero" fill-opacity="1" /><path clip-path="url(#clip130)" d="M714.714 1336.43 L714.714 1352.07 L710.455 1352.07 L710.455 1336.57 Q710.455 1332.88 709.019 1331.06 Q707.584 1329.23 704.714 1329.23 Q701.265 1329.23 699.274 1331.43 Q697.283 1333.63 697.283 1337.42 L697.283 1352.07 L693.001 1352.07 L693.001 1326.15 L697.283 1326.15 L697.283 1330.18 Q698.811 1327.84 700.871 1326.68 Q702.955 1325.52 705.663 1325.52 Q710.13 1325.52 712.422 1328.3 Q714.714 1331.06 714.714 1336.43 Z" fill="#000000" fill-rule="nonzero" fill-opacity="1" /><path clip-path="url(#clip130)" d="M727.422 1318.79 L727.422 1326.15 L736.195 1326.15 L736.195 1329.46 L727.422 1329.46 L727.422 1343.53 Q727.422 1346.7 728.278 1347.61 Q729.158 1348.51 731.82 1348.51 L736.195 1348.51 L736.195 1352.07 L731.82 1352.07 Q726.89 1352.07 725.015 1350.25 Q723.14 1348.39 723.14 1343.53 L723.14 1329.46 L720.015 1329.46 L720.015 1326.15 L723.14 1326.15 L723.14 1318.79 L727.422 1318.79 Z" fill="#000000" fill-rule="nonzero" fill-opacity="1" /><polyline clip-path="url(#clip130)" style="stroke:#3da44d; stroke-linecap:round; stroke-linejoin:round; stroke-width:4; stroke-opacity:1; fill:none" points="238.832,1386.63 386.315,1386.63 "/>
<path clip-path="url(#clip130)" d="M435.549 1377.99 L426.174 1390.6 L436.035 1403.91 L431.012 1403.91 L423.465 1393.73 L415.919 1403.91 L410.896 1403.91 L420.965 1390.35 L411.752 1377.99 L416.776 1377.99 L423.65 1387.22 L430.525 1377.99 L435.549 1377.99 Z" fill="#000000" fill-rule="nonzero" fill-opacity="1" /><path clip-path="url(#clip130)" d="M458.581 1378.75 L458.581 1382.78 Q456.775 1381.85 454.831 1381.39 Q452.886 1380.93 450.803 1380.93 Q447.632 1380.93 446.035 1381.9 Q444.461 1382.87 444.461 1384.82 Q444.461 1386.3 445.595 1387.16 Q446.729 1387.99 450.155 1388.75 L451.613 1389.08 Q456.15 1390.05 458.048 1391.83 Q459.97 1393.59 459.97 1396.76 Q459.97 1400.37 457.099 1402.48 Q454.252 1404.59 449.252 1404.59 Q447.169 1404.59 444.9 1404.17 Q442.655 1403.78 440.155 1402.97 L440.155 1398.57 Q442.516 1399.79 444.808 1400.42 Q447.099 1401.02 449.345 1401.02 Q452.354 1401.02 453.974 1400 Q455.595 1398.96 455.595 1397.09 Q455.595 1395.35 454.414 1394.42 Q453.257 1393.5 449.298 1392.64 L447.817 1392.29 Q443.859 1391.46 442.099 1389.75 Q440.34 1388.01 440.34 1385 Q440.34 1381.35 442.933 1379.35 Q445.525 1377.36 450.294 1377.36 Q452.655 1377.36 454.738 1377.71 Q456.822 1378.06 458.581 1378.75 Z" fill="#000000" fill-rule="nonzero" fill-opacity="1" /></svg>
